<?xml version="1.0" encoding="iso-8859-1"?>
<!-- Generator: Adobe Illustrator 16.0.0, SVG Export Plug-In . SVG Version: 6.00 Build 0)  -->
<!DOCTYPE svg PUBLIC "-//W3C//DTD SVG 1.1//EN" "http://www.w3.org/Graphics/SVG/1.1/DTD/svg11.dtd">
<svg version="1.1" id="Layer_1" xmlns="http://www.w3.org/2000/svg" xmlns:xlink="http://www.w3.org/1999/xlink" x="0px" y="0px"
	 width="64px" height="64px" viewBox="0 0 64 64" style="enable-background:new 0 0 64 64;" xml:space="preserve">
<g id="Shape_24_">
	<g>
		<circle style="fill:#666666;" cx="32" cy="32" r="32"/>
	</g>
</g>
<g id="_x35_00PX_Logo">
	<g>
		<path style="fill:#FFFFFF;" d="M53.283,27.149c-0.48-1.434-1.161-2.681-2.041-3.745c-0.881-1.063-1.962-1.898-3.242-2.507
			c-1.281-0.608-2.723-0.911-4.322-0.911c-1.282,0-2.473,0.217-3.572,0.65c-1.102,0.435-2.123,1.009-3.063,1.726
			c-0.941,0.717-1.822,1.553-2.642,2.508c-0.821,0.955-1.612,1.932-2.372,2.93c-0.801-1.041-1.611-2.028-2.432-2.963
			c-0.82-0.933-1.701-1.758-2.642-2.475s-1.962-1.291-3.062-1.726c-1.102-0.434-2.312-0.65-3.633-0.65
			c-1.602,0-3.042,0.314-4.322,0.943c-1.282,0.63-2.362,1.478-3.242,2.54c-0.881,1.064-1.552,2.323-2.012,3.777
			c-0.461,1.453-0.69,3.027-0.69,4.72c0,1.693,0.24,3.278,0.721,4.754s1.18,2.746,2.102,3.81c0.92,1.064,2.021,1.91,3.302,2.539
			c1.28,0.629,2.741,0.944,4.383,0.944c1.321,0,2.512-0.205,3.572-0.618s2.042-0.955,2.942-1.629c0.9-0.673,1.75-1.454,2.552-2.344
			c0.8-0.89,1.621-1.813,2.461-2.768c0.76,0.955,1.562,1.878,2.402,2.768c0.84,0.89,1.73,1.671,2.672,2.344
			c0.939,0.674,1.951,1.216,3.031,1.629c1.081,0.413,2.241,0.618,3.482,0.618c1.601,0,3.052-0.315,4.353-0.944
			s2.392-1.497,3.272-2.604c0.88-1.107,1.561-2.398,2.041-3.874s0.721-3.061,0.721-4.754C54.004,30.145,53.764,28.581,53.283,27.149
			z M26.806,34.019c-0.6,0.63-1.241,1.194-1.921,1.693c-0.681,0.499-1.401,0.911-2.161,1.236c-0.761,0.325-1.521,0.488-2.281,0.488
			c-1.481,0-2.642-0.498-3.482-1.497s-1.261-2.279-1.261-3.843c0-1.432,0.41-2.723,1.23-3.874c0.82-1.149,1.931-1.726,3.332-1.726
			c0.76,0,1.521,0.186,2.281,0.555c0.761,0.368,1.491,0.835,2.191,1.399s1.371,1.183,2.012,1.855
			c0.64,0.673,1.201,1.293,1.682,1.856C27.947,32.771,27.406,33.391,26.806,34.019z M47.159,35.874
			c-0.801,1.042-1.941,1.563-3.422,1.563c-0.841,0-1.632-0.151-2.372-0.456c-0.74-0.302-1.451-0.704-2.131-1.204
			c-0.682-0.499-1.321-1.063-1.921-1.693c-0.601-0.629-1.162-1.269-1.682-1.92c0.48-0.563,1.021-1.184,1.621-1.856
			s1.23-1.291,1.892-1.855c0.66-0.564,1.36-1.031,2.102-1.399c0.74-0.369,1.51-0.555,2.311-0.555c1.48,0,2.651,0.544,3.513,1.627
			c0.86,1.087,1.291,2.389,1.291,3.908S47.96,34.832,47.159,35.874z"/>
	</g>
</g>
<g>
</g>
<g>
</g>
<g>
</g>
<g>
</g>
<g>
</g>
<g>
</g>
<g>
</g>
<g>
</g>
<g>
</g>
<g>
</g>
<g>
</g>
<g>
</g>
<g>
</g>
<g>
</g>
<g>
</g>
</svg>
