<?xml version="1.0" encoding="iso-8859-1"?>
<!-- Generator: Adobe Illustrator 16.0.0, SVG Export Plug-In . SVG Version: 6.00 Build 0)  -->
<!DOCTYPE svg PUBLIC "-//W3C//DTD SVG 1.1//EN" "http://www.w3.org/Graphics/SVG/1.1/DTD/svg11.dtd">
<svg version="1.1" id="Layer_1" xmlns="http://www.w3.org/2000/svg" xmlns:xlink="http://www.w3.org/1999/xlink" x="0px" y="0px"
	 width="63.978px" height="64.021px" viewBox="0 0 63.978 64.021" style="enable-background:new 0 0 63.978 64.021;"
	 xml:space="preserve">
<g id="Acrobat_Logo">
	<g>
		<path style="fill-rule:evenodd;clip-rule:evenodd;fill:#ED7161;" d="M63.975,42.851c0,0-0.705-2.967-6.375-3.367
			c-2.741-0.193-6.955,0.002-12.047,0.697c-5.556-3.23-10.609-8.127-13.465-15.288c-0.705-1.77-1.378-3.938-1.972-6.243
			c0.961-6.376,0.19-9.421,0.19-9.421s-0.277,2.187-1.052,5.716c-1.47-7.034-2.021-14.057-0.41-14.253
			c0.498-0.06,1.901,0.021,1.626,5.086c0,0,0.287-0.128,0.488-1.443c0,0,0.978-4.334-2.281-4.334c-4.155,0-2.97,7.913-2.97,7.913
			s0.326,6.53,2.103,12.809c-1.486,5.301-3.769,11.861-7.188,18.418C16.916,47.053,11.08,57.7,5.458,61.713
			c0,0-3.991,2.327-3.991-0.16c0-1.063,4.82-6.952,12.112-12.612c0,0-13.579,8.011-13.579,12.212
			c0.124,3.347,3.503,3.69,6.534,1.423c1.229-0.919,5.805-4.858,11.592-15.237c1.209-0.277,19.076-4.356,26.178-5.541
			c4.074,2.229,9.135,3.913,15.468,4.589c0,0,4.346-0.082,4.079-2.195c0,0-0.285,1.386-3.894,0.972
			c-3.788-0.55-8.08-1.753-12.221-3.804c4.375-0.479,8.559-1.071,11.233-0.578c2.965,0.549,4.786,2.261,4.909,2.625
			C64.003,43.771,63.975,42.851,63.975,42.851z M18.133,47.325c1.266-2.27,2.587-4.841,3.945-7.762c0,0,4.411-8.853,6.729-15.802
			c0.261,0.688,0.542,1.357,0.847,1.999c2.246,4.72,5.953,10.579,12.732,14.901C35.221,41.855,26.711,43.973,18.133,47.325z"/>
	</g>
</g>
<g>
</g>
<g>
</g>
<g>
</g>
<g>
</g>
<g>
</g>
<g>
</g>
<g>
</g>
<g>
</g>
<g>
</g>
<g>
</g>
<g>
</g>
<g>
</g>
<g>
</g>
<g>
</g>
<g>
</g>
</svg>
