<?xml version="1.0" encoding="iso-8859-1"?>
<!-- Generator: Adobe Illustrator 16.0.0, SVG Export Plug-In . SVG Version: 6.00 Build 0)  -->
<!DOCTYPE svg PUBLIC "-//W3C//DTD SVG 1.1//EN" "http://www.w3.org/Graphics/SVG/1.1/DTD/svg11.dtd">
<svg version="1.1" id="Layer_1" xmlns="http://www.w3.org/2000/svg" xmlns:xlink="http://www.w3.org/1999/xlink" x="0px" y="0px"
	 width="64px" height="64px" viewBox="0 0 64 64" style="enable-background:new 0 0 64 64;" xml:space="preserve">
<g id="Shape_11_">
	<g>
		<path style="fill:#9B7CAB;" d="M60,0H4C1.791,0,0,1.79,0,4v56c0,2.209,1.791,4,4,4h56c2.209,0,4-1.791,4-4V4
			C64,1.79,62.209,0,60,0z"/>
	</g>
</g>
<g id="After_Efects_Logo">
	<g>
		<path style="fill-rule:evenodd;clip-rule:evenodd;fill:#FFFFFF;" d="M18.761,18.005L10,46h5.5l2.004-8.26h8.678L29.25,46h5.5
			l-9.623-27.995H18.761z M18.315,33.941l2.108-6.783c0.486-1.634,0.892-3.555,1.297-5.148h0.081
			c0.405,1.594,0.852,3.473,1.379,5.148l2.149,6.783H18.315z M53.996,34.881c0-4.372-2.068-9.685-8.515-9.685
			c-6.325,0-9.649,5.19-9.649,10.706c0,6.087,3.771,10.092,10.176,10.092c2.839,0,5.19-0.572,6.894-1.266l-0.729-3.475
			c-1.501,0.573-3.163,0.899-5.475,0.899c-3.162,0-5.96-1.552-6.081-5.148h13.217C53.915,36.555,53.996,35.819,53.996,34.881z
			 M40.616,33.491c0.202-2.044,1.5-4.862,4.581-4.862c3.324,0,4.136,3.024,4.096,4.862H40.616z"/>
	</g>
</g>
<g>
</g>
<g>
</g>
<g>
</g>
<g>
</g>
<g>
</g>
<g>
</g>
<g>
</g>
<g>
</g>
<g>
</g>
<g>
</g>
<g>
</g>
<g>
</g>
<g>
</g>
<g>
</g>
<g>
</g>
</svg>
