<?xml version="1.0" encoding="iso-8859-1"?>
<!-- Generator: Adobe Illustrator 16.0.0, SVG Export Plug-In . SVG Version: 6.00 Build 0)  -->
<!DOCTYPE svg PUBLIC "-//W3C//DTD SVG 1.1//EN" "http://www.w3.org/Graphics/SVG/1.1/DTD/svg11.dtd">
<svg version="1.1" id="Layer_1" xmlns="http://www.w3.org/2000/svg" xmlns:xlink="http://www.w3.org/1999/xlink" x="0px" y="0px"
	 width="64px" height="64px" viewBox="0 0 64 64" style="enable-background:new 0 0 64 64;" xml:space="preserve">
<g id="Shape_28_">
	<g>
		<circle style="fill:#FFCC66;" cx="32" cy="32" r="32"/>
	</g>
</g>
<g id="Amazon_Logo">
	<g>
		<path style="fill-rule:evenodd;clip-rule:evenodd;fill:#FFFFFF;" d="M43.845,43.644c-14.475,7.058-23.46,1.151-29.211-2.436
			c-0.355-0.227-0.961,0.054-0.438,0.67c1.917,2.382,8.196,8.119,16.393,8.119c8.199,0,13.081-4.587,13.69-5.386
			C44.888,43.819,44.458,43.38,43.845,43.644z M47.91,41.343c-0.389-0.519-2.363-0.615-3.605-0.459
			c-1.245,0.15-3.114,0.933-2.952,1.398c0.082,0.176,0.254,0.098,1.108,0.016c0.856-0.086,3.258-0.394,3.76,0.274
			c0.503,0.676-0.768,3.893-0.998,4.411c-0.225,0.519,0.086,0.651,0.506,0.308c0.415-0.345,1.167-1.24,1.672-2.505
			C47.902,43.513,48.206,41.737,47.91,41.343z M33.611,24.513c-3.813,0.131-13.281,1.248-13.281,9.427
			c0,8.8,10.837,9.167,14.394,3.482c0.138,0.229,0.292,0.456,0.487,0.667c1.309,1.408,3.054,3.085,3.054,3.085l4.444-4.499
			c0,0-2.527-2.03-2.527-4.236s0-9.791,0-11.82c0-2.03-1.917-6.618-8.809-6.618c-6.888,0-10.551,4.412-10.551,8.384l5.756,0.529
			c0,0,1.283-3.973,4.26-3.973s2.773,2.47,2.773,3.003C33.611,22.086,33.611,23.105,33.611,24.513z M33.611,31.471
			c0,6.442-6.599,5.467-6.599,1.383c0-3.779,3.948-4.544,6.599-4.635C33.611,29.345,33.611,30.478,33.611,31.471z"/>
	</g>
</g>
<g>
</g>
<g>
</g>
<g>
</g>
<g>
</g>
<g>
</g>
<g>
</g>
<g>
</g>
<g>
</g>
<g>
</g>
<g>
</g>
<g>
</g>
<g>
</g>
<g>
</g>
<g>
</g>
<g>
</g>
</svg>
