<?xml version="1.0" encoding="iso-8859-1"?>
<!-- Generator: Adobe Illustrator 16.0.0, SVG Export Plug-In . SVG Version: 6.00 Build 0)  -->
<!DOCTYPE svg PUBLIC "-//W3C//DTD SVG 1.1//EN" "http://www.w3.org/Graphics/SVG/1.1/DTD/svg11.dtd">
<svg version="1.1" id="Layer_1" xmlns="http://www.w3.org/2000/svg" xmlns:xlink="http://www.w3.org/1999/xlink" x="0px" y="0px"
	 width="64px" height="63.971px" viewBox="0 0 64 63.971" style="enable-background:new 0 0 64 63.971;" xml:space="preserve">
<g id="Amazon_Shape">
	<g>
		<path style="fill-rule:evenodd;clip-rule:evenodd;fill:#FFCC66;" d="M54.732,51.795c-0.317-0.001-0.646,0.073-0.949,0.216
			c-0.346,0.14-0.696,0.297-1.024,0.438l-0.488,0.201l-0.632,0.252v0.009c-6.866,2.784-14.078,4.416-20.754,4.559
			c-0.246,0.009-0.491,0.009-0.732,0.009c-10.494,0.005-19.061-4.864-27.704-9.659c-0.303-0.16-0.606-0.242-0.91-0.242
			c-0.391,0-0.788,0.145-1.078,0.416C0.17,48.266-0.002,48.663,0,49.066c-0.002,0.524,0.281,1.004,0.674,1.316
			c8.11,7.039,17,13.582,28.953,13.588c0.232,0,0.469-0.006,0.708-0.01c7.604-0.172,16.206-2.738,22.879-6.933l0.038-0.027
			c0.875-0.519,1.75-1.116,2.572-1.773c0.514-0.382,0.866-0.975,0.861-1.592C56.67,52.539,55.736,51.795,54.732,51.795z
			 M63.991,47.908v-0.004c-0.024-0.668-0.169-1.176-0.446-1.597l-0.027-0.04l-0.033-0.041c-0.283-0.309-0.554-0.426-0.849-0.557
			c-0.876-0.337-2.149-0.516-3.687-0.521c-1.103,0-2.32,0.104-3.543,0.37l-0.002-0.08l-1.232,0.409l-0.021,0.011l-0.695,0.226
			l0.002,0.032c-0.816,0.338-1.56,0.76-2.249,1.258c-0.427,0.323-0.785,0.747-0.806,1.397c-0.009,0.353,0.169,0.762,0.471,1.002
			c0.295,0.241,0.643,0.321,0.946,0.321c0.073,0,0.141-0.002,0.202-0.013l0.059-0.005l0.047-0.008
			c0.603-0.127,1.479-0.213,2.503-0.358c0.881-0.096,1.814-0.169,2.625-0.169c0.575-0.003,1.087,0.037,1.439,0.114
			c0.177,0.036,0.311,0.083,0.386,0.12c0.022,0.009,0.041,0.02,0.052,0.029c0.016,0.048,0.038,0.173,0.034,0.352
			c0.01,0.677-0.282,1.934-0.671,3.158c-0.386,1.227-0.854,2.458-1.164,3.276c-0.072,0.188-0.119,0.393-0.119,0.619
			c-0.007,0.33,0.127,0.728,0.413,0.991c0.277,0.266,0.635,0.37,0.939,0.37h0.012c0.453-0.005,0.837-0.187,1.17-0.444
			c3.125-2.812,4.211-7.294,4.254-9.818L63.991,47.908z"/>
	</g>
</g>
<g id="Amazon_Shape_1_">
	<g>
		<path style="fill:#666666;" d="M49.969,38.274c-1.549-1.98-3.104-3.676-3.104-7.491V18.074c0-5.367,0.424-10.312-3.529-13.979
			C40.088,1.132,35.002,0,31.047,0h-1.696c-7.201,0.419-14.828,3.527-16.522,12.428c-0.283,1.131,0.566,1.552,1.13,1.692
			l7.908,0.987c0.849-0.141,1.271-0.849,1.413-1.549c0.705-3.107,3.248-4.664,6.071-4.947h0.567c1.695,0,3.529,0.708,4.518,2.122
			c1.13,1.694,0.99,3.954,0.99,5.932v1.133c-1.838,0.136-3.955,0.276-6.075,0.556c-3.248,0.43-6.497,0.99-9.179,2.266
			c-5.225,2.117-8.757,6.634-8.757,13.271c0,8.337,5.366,12.571,12.147,12.571c2.259,0,4.097-0.285,5.788-0.705
			c2.686-0.849,4.942-2.401,7.629-5.23c1.552,2.121,1.977,3.112,4.659,5.37c0.707,0.28,1.413,0.28,1.976-0.14
			c1.698-1.415,4.665-3.958,6.215-5.367C50.538,39.823,50.396,38.975,49.969,38.274z M33.873,34.599
			c-0.989,1.973-2.686,3.246-4.522,3.676c-0.281,0-0.703,0.141-1.13,0.141c-3.104,0-4.941-2.404-4.941-5.934
			c0-4.521,2.683-6.639,6.071-7.628c1.837-0.423,3.955-0.565,6.075-0.565v1.697C35.426,29.231,35.565,31.771,33.873,34.599z"/>
	</g>
</g>
<g>
</g>
<g>
</g>
<g>
</g>
<g>
</g>
<g>
</g>
<g>
</g>
<g>
</g>
<g>
</g>
<g>
</g>
<g>
</g>
<g>
</g>
<g>
</g>
<g>
</g>
<g>
</g>
<g>
</g>
</svg>
