<?xml version="1.0" encoding="iso-8859-1"?>
<!-- Generator: Adobe Illustrator 16.0.0, SVG Export Plug-In . SVG Version: 6.00 Build 0)  -->
<!DOCTYPE svg PUBLIC "-//W3C//DTD SVG 1.1//EN" "http://www.w3.org/Graphics/SVG/1.1/DTD/svg11.dtd">
<svg version="1.1" id="Layer_1" xmlns="http://www.w3.org/2000/svg" xmlns:xlink="http://www.w3.org/1999/xlink" x="0px" y="0px"
	 width="49.982px" height="64.044px" viewBox="0 0 49.982 64.044" style="enable-background:new 0 0 49.982 64.044;"
	 xml:space="preserve">
<g id="Apple_Logo">
	<g>
		<path style="fill-rule:evenodd;clip-rule:evenodd;fill:#CCD0D2;" d="M34.35,9.736C36.759,7.157,38.389,3.574,37.944,0
			c-3.474,0.124-7.683,2.038-10.172,4.616c-2.237,2.285-4.192,5.934-3.67,9.436C27.98,14.317,31.936,12.312,34.35,9.736z
			 M41.744,34.407c-0.075-8.011,6.341-11.855,6.629-12.044c-3.606-5.437-9.225-6.182-11.224-6.265
			c-4.78-0.502-9.327,2.897-11.755,2.897c-2.419,0-6.161-2.83-10.127-2.755c-5.212,0.085-10.016,3.121-12.696,7.933
			c-5.415,9.678-1.389,24.019,3.89,31.868c2.579,3.844,5.652,8.155,9.687,7.998c3.891-0.154,5.36-2.59,10.06-2.59
			c4.697,0,6.019,2.59,10.13,2.512c4.183-0.076,6.834-3.917,9.395-7.771c2.959-4.455,4.177-8.771,4.251-8.99
			C49.89,47.152,41.829,43.976,41.744,34.407z"/>
	</g>
</g>
<g>
</g>
<g>
</g>
<g>
</g>
<g>
</g>
<g>
</g>
<g>
</g>
<g>
</g>
<g>
</g>
<g>
</g>
<g>
</g>
<g>
</g>
<g>
</g>
<g>
</g>
<g>
</g>
<g>
</g>
</svg>
