<?xml version="1.0" encoding="iso-8859-1"?>
<!-- Generator: Adobe Illustrator 16.0.0, SVG Export Plug-In . SVG Version: 6.00 Build 0)  -->
<!DOCTYPE svg PUBLIC "-//W3C//DTD SVG 1.1//EN" "http://www.w3.org/Graphics/SVG/1.1/DTD/svg11.dtd">
<svg version="1.1" id="Layer_1" xmlns="http://www.w3.org/2000/svg" xmlns:xlink="http://www.w3.org/1999/xlink" x="0px" y="0px"
	 width="64.003px" height="63.995px" viewBox="0 0 64.003 63.995" style="enable-background:new 0 0 64.003 63.995;"
	 xml:space="preserve">
<g id="Shape_56_">
	<g>
		<circle style="fill:#48A0DC;" cx="32.001" cy="31.998" r="31.998"/>
	</g>
</g>
<g id="Appstore_Icon">
	<g>
		<path style="fill:#FFFFFF;" d="M31.853,23.001c0.227-0.404,0.09-0.919-0.307-1.152l-2.168-1.259
			c-0.396-0.232-0.91-0.092-1.137,0.31l-3.322,5.864l-3.662,6.457L18.2,38.613c-0.229,0.403-0.09,0.919,0.307,1.147l2.168,1.263
			c0.396,0.233,0.908,0.092,1.139-0.31l4.246-7.493l2.744-4.842L31.853,23.001z M20.536,30.004H16c-1.104,0-2,0.899-2,2.004v2.006
			c0,1.104,0.896,2.001,2,2.001h0.937L20.536,30.004z M30.13,30.004l-3.333,6.011h11.768l-3-6.011H30.13z M19.966,41.989
			l-2.167-1.259c-0.396-0.231-0.763-0.042-0.815,0.419l-0.376,3.304c-0.053,0.46,0.215,0.627,0.594,0.364l2.8-1.932
			C20.38,42.626,20.364,42.22,19.966,41.989z M48.002,30.004H43.74l3.43,6.011h0.832c1.105,0,2-0.896,2-2.001v-2.006
			C50.002,30.903,49.107,30.004,48.002,30.004z M43.633,33.304c-0.012-0.021-0.029-0.054-0.045-0.083
			c-0.201-0.377-0.705-1.358-1.367-2.634c-0.008-0.016-0.018-0.03-0.025-0.048c-0.051-0.098-0.102-0.198-0.154-0.3
			c-0.037-0.07-0.076-0.145-0.115-0.219c-0.031-0.063-0.064-0.127-0.098-0.192c-0.061-0.113-0.119-0.227-0.18-0.343
			c-0.02-0.034-0.037-0.069-0.057-0.107c-0.066-0.128-0.135-0.259-0.203-0.393c-0.021-0.037-0.041-0.076-0.061-0.115
			c-1.527-2.924-3.446-6.523-4.63-8.415c-2.07-3.318-4.836-8.846-5.607-8.454c-1.082,0.548,2.266,7.563,3.373,10.202
			c1.108,2.636,5.433,12.742,6.3,13.182c0.867,0.44,1.203,0.195,1.781-0.047C43.125,35.094,44.162,34.282,43.633,33.304z
			 M45.785,41.415c-0.324,0.316-1.096,1.001-0.162,2.332c0.932,1.333,3.016,1.394,3.291,2.277
			C48.914,46.024,49.568,39.256,45.785,41.415z M46.104,38.512l-1.031-2.008c-0.234-0.454-0.783-0.64-1.223-0.412l-1.244,0.648
			c-0.438,0.229-0.576,0.768-0.307,1.201l1.307,2.091c0.27,0.43,0.838,0.572,1.262,0.313l0.889-0.54
			C46.18,39.548,46.336,38.966,46.104,38.512z"/>
	</g>
</g>
<g>
</g>
<g>
</g>
<g>
</g>
<g>
</g>
<g>
</g>
<g>
</g>
<g>
</g>
<g>
</g>
<g>
</g>
<g>
</g>
<g>
</g>
<g>
</g>
<g>
</g>
<g>
</g>
<g>
</g>
</svg>
