<?xml version="1.0" encoding="iso-8859-1"?>
<!-- Generator: Adobe Illustrator 16.0.0, SVG Export Plug-In . SVG Version: 6.00 Build 0)  -->
<!DOCTYPE svg PUBLIC "-//W3C//DTD SVG 1.1//EN" "http://www.w3.org/Graphics/SVG/1.1/DTD/svg11.dtd">
<svg version="1.1" id="Layer_1" xmlns="http://www.w3.org/2000/svg" xmlns:xlink="http://www.w3.org/1999/xlink" x="0px" y="0px"
	 width="64px" height="64px" viewBox="0 0 64 64" style="enable-background:new 0 0 64 64;" xml:space="preserve">
<g id="Shape_2_">
	<g>
		<path style="fill:#88C057;" d="M60,0H4C1.791,0,0,1.791,0,4v56c0,2.209,1.791,4,4,4h56c2.209,0,4-1.791,4-4V4
			C64,1.791,62.209,0,60,0z"/>
	</g>
</g>
<g id="Audition_Logo">
	<g>
		<path style="fill-rule:evenodd;clip-rule:evenodd;fill:#FFFFFF;" d="M18.979,18.005l-8.974,27.539h5.276l2.41-7.803h8.89
			l2.534,7.803h5.483l-9.098-27.539H18.979z M18.521,33.94l2.161-6.782c0.499-1.635,0.913-3.555,1.329-5.147h0.083
			c0.415,1.593,0.872,3.472,1.412,5.147l2.202,6.782H18.521z M55.829,39.579V25.646h-5.11v12.013c0,0.573-0.125,1.104-0.291,1.553
			c-0.54,1.269-1.869,2.697-3.904,2.697c-2.701,0-3.781-2.124-3.781-5.434V25.646h-5.109v11.687c0,6.496,3.365,8.662,7.063,8.662
			c3.614,0,5.608-2.043,6.48-3.474h0.083l0.25,3.023h4.486C55.911,43.91,55.829,41.949,55.829,39.579z"/>
	</g>
</g>
<g>
</g>
<g>
</g>
<g>
</g>
<g>
</g>
<g>
</g>
<g>
</g>
<g>
</g>
<g>
</g>
<g>
</g>
<g>
</g>
<g>
</g>
<g>
</g>
<g>
</g>
<g>
</g>
<g>
</g>
</svg>
