<?xml version="1.0" encoding="iso-8859-1"?>
<!-- Generator: Adobe Illustrator 16.0.0, SVG Export Plug-In . SVG Version: 6.00 Build 0)  -->
<!DOCTYPE svg PUBLIC "-//W3C//DTD SVG 1.1//EN" "http://www.w3.org/Graphics/SVG/1.1/DTD/svg11.dtd">
<svg version="1.1" id="Layer_1" xmlns="http://www.w3.org/2000/svg" xmlns:xlink="http://www.w3.org/1999/xlink" x="0px" y="0px"
	 width="64px" height="64px" viewBox="0 0 64 64" style="enable-background:new 0 0 64 64;" xml:space="preserve">
<g id="Shape_40_">
	<g>
		<circle style="fill:#48A0DC;" cx="32" cy="32" r="32"/>
	</g>
</g>
<g id="Basecamp_Logo">
	<g>
		<path style="fill-rule:evenodd;clip-rule:evenodd;fill:#FFFFFF;" d="M43.918,26.6c-5.181-8.614-11.912-8.263-11.912-8.263
			s-6.734-0.352-11.918,8.263c0,0-3.855,6.222-4.076,12.673c0,0,2.75,6.728,15.994,6.728c13.242,0,15.988-6.728,15.988-6.728
			C47.773,32.821,43.918,26.6,43.918,26.6z M44.935,38.738c0,0-1.59,5.05-12.965,5.181c-11.378,0.137-12.965-5.353-12.965-5.353
			c0.963-5.316,5.146-8.52,5.146-8.52s0.164-0.146,0.516-0.146c0.273,0,0.673,0.102,1.185,0.471c0,0,0.775,0.619,1.513,1.453
			c0.47,0.516,1.029,1.142,1.741,1.142c0.425,0,0.907-0.23,1.448-0.851c1.416-1.648,4.48-5.764,5.138-5.84h0.1
			c0.604,0,1.387,0.591,1.486,0.679c0.242,0.171,0.474,0.367,0.673,0.549c2.263,1.942,4.329,3.687,6.274,7.049
			C46.182,37.913,44.935,38.738,44.935,38.738z"/>
	</g>
</g>
<g>
</g>
<g>
</g>
<g>
</g>
<g>
</g>
<g>
</g>
<g>
</g>
<g>
</g>
<g>
</g>
<g>
</g>
<g>
</g>
<g>
</g>
<g>
</g>
<g>
</g>
<g>
</g>
<g>
</g>
</svg>
