<?xml version="1.0" encoding="iso-8859-1"?>
<!-- Generator: Adobe Illustrator 16.0.0, SVG Export Plug-In . SVG Version: 6.00 Build 0)  -->
<!DOCTYPE svg PUBLIC "-//W3C//DTD SVG 1.1//EN" "http://www.w3.org/Graphics/SVG/1.1/DTD/svg11.dtd">
<svg version="1.1" id="Layer_1" xmlns="http://www.w3.org/2000/svg" xmlns:xlink="http://www.w3.org/1999/xlink" x="0px" y="0px"
	 width="64px" height="21.998px" viewBox="0 0 64 21.998" style="enable-background:new 0 0 64 21.998;" xml:space="preserve">
<g id="Batman_Logo">
	<g>
		<path style="fill:#666666;" d="M31.94,3.029c0.023,0,0.037,0.003,0.06,0.003s0.036-0.003,0.06-0.003H31.94z M64,0H42.407
			c0,0-0.479,3.817-2.812,4.302c-2.332,0.485-5.084,1.516-5.263-0.06c-0.18-1.576-0.599-3.334-0.599-3.334l-0.538,2.304
			c0,0-0.349-0.171-1.196-0.18c-0.848,0.009-1.196,0.18-1.196,0.18l-0.539-2.304c0,0-0.418,1.758-0.598,3.334
			c-0.179,1.575-2.931,0.545-5.264,0.06C22.07,3.817,21.593,0,21.593,0H0c0,0,13.039,3.999,9.75,12.786c0,0,19.259-2.97,22.25,9.212
			c2.99-12.182,22.25-9.212,22.25-9.212C50.961,3.999,64,0,64,0z"/>
	</g>
</g>
<g>
</g>
<g>
</g>
<g>
</g>
<g>
</g>
<g>
</g>
<g>
</g>
<g>
</g>
<g>
</g>
<g>
</g>
<g>
</g>
<g>
</g>
<g>
</g>
<g>
</g>
<g>
</g>
<g>
</g>
</svg>
