<?xml version="1.0" encoding="iso-8859-1"?>
<!-- Generator: Adobe Illustrator 16.0.0, SVG Export Plug-In . SVG Version: 6.00 Build 0)  -->
<!DOCTYPE svg PUBLIC "-//W3C//DTD SVG 1.1//EN" "http://www.w3.org/Graphics/SVG/1.1/DTD/svg11.dtd">
<svg version="1.1" id="Layer_1" xmlns="http://www.w3.org/2000/svg" xmlns:xlink="http://www.w3.org/1999/xlink" x="0px" y="0px"
	 width="64px" height="64px" viewBox="0 0 64 64" style="enable-background:new 0 0 64 64;" xml:space="preserve">
<g id="Shape_63_">
	<g>
		<circle style="fill:#48A0DC;" cx="32" cy="32" r="32"/>
	</g>
</g>
<g id="Behance_Logo">
	<g>
		<path style="fill-rule:evenodd;clip-rule:evenodd;fill:#FFFFFF;" d="M28.304,31.126c0,0,2.727-0.228,2.727-3.809
			c0-3.58-2.384-5.327-5.404-5.327h-5.247h-0.163H16v20.009h4.216h0.163h5.56c0,0,6.066,0.201,6.066-5.906
			C32.005,36.093,32.146,31.126,28.304,31.126z M20.004,25.151h4.611h0.829c0,0,1.565,0,1.565,2.447c0,2.45-0.921,2.805-1.965,2.805
			h-5.041V25.151z M25.588,38.838c-0.155,0.003-0.287,0-0.376,0h-5.208v-5.249h5.881c0,0,2.13-0.027,2.13,2.698
			C28.015,38.584,26.424,38.819,25.588,38.838z M44.986,21.985h-8.999v3.011h8.999V21.985z M40.838,27.014
			c-7.84,0-7.832,7.514-7.832,7.514s-0.539,7.476,7.832,7.476c0,0,6.838,0.375,6.976-5.033c-2.222,0.053-2.436,0.031-3.597,0.015
			c-0.062,0.511-0.597,2.015-3.485,2.015c0,0-3.736,0.141-3.736-3.06h10.939C47.935,35.939,49.091,27.014,40.838,27.014z
			 M36.985,32.985c0,0,0.457-2.982,3.738-2.982c3.282,0,3.239,2.982,3.239,2.982H36.985z"/>
	</g>
</g>
<g>
</g>
<g>
</g>
<g>
</g>
<g>
</g>
<g>
</g>
<g>
</g>
<g>
</g>
<g>
</g>
<g>
</g>
<g>
</g>
<g>
</g>
<g>
</g>
<g>
</g>
<g>
</g>
<g>
</g>
</svg>
