<?xml version="1.0" encoding="iso-8859-1"?>
<!-- Generator: Adobe Illustrator 16.0.0, SVG Export Plug-In . SVG Version: 6.00 Build 0)  -->
<!DOCTYPE svg PUBLIC "-//W3C//DTD SVG 1.1//EN" "http://www.w3.org/Graphics/SVG/1.1/DTD/svg11.dtd">
<svg version="1.1" id="Layer_1" xmlns="http://www.w3.org/2000/svg" xmlns:xlink="http://www.w3.org/1999/xlink" x="0px" y="0px"
	 width="64.003px" height="63.995px" viewBox="0 0 64.003 63.995" style="enable-background:new 0 0 64.003 63.995;"
	 xml:space="preserve">
<g id="Shape_52_">
	<g>
		<circle style="fill:#FFCC66;" cx="32.001" cy="31.998" r="31.998"/>
	</g>
</g>
<g id="Blogger_Logo">
	<g>
		<path style="fill:#FFFFFF;" d="M47.915,29.288l-0.271-0.556l-0.451-0.353c-0.591-0.462-3.575,0.029-4.378-0.697
			c-0.571-0.523-0.659-1.465-0.831-2.735c-0.32-2.475-0.524-2.601-0.911-3.435c-1.405-2.974-5.219-5.209-7.838-5.519h-7.097
			c-5.582,0-10.146,4.555-10.146,10.114v11.798c0,5.549,4.563,10.095,10.146,10.095h11.659c5.582,0,10.117-4.546,10.148-10.095
			l0.063-8.172L47.915,29.288z M26.052,24.01h5.903c1.125,0,2.038,0.897,2.038,1.99c0,1.091-0.913,1.998-2.038,1.998h-5.903
			c-1.127,0-2.039-0.907-2.039-1.998C24.013,24.907,24.925,24.01,26.052,24.01z M37.988,39.994H26.044
			c-1.123,0-2.031-0.916-2.031-2.003c0-1.104,0.908-2.003,2.031-2.003h11.944c1.116,0,2.021,0.898,2.021,2.003
			C40.009,39.078,39.104,39.994,37.988,39.994z"/>
	</g>
</g>
<g>
</g>
<g>
</g>
<g>
</g>
<g>
</g>
<g>
</g>
<g>
</g>
<g>
</g>
<g>
</g>
<g>
</g>
<g>
</g>
<g>
</g>
<g>
</g>
<g>
</g>
<g>
</g>
<g>
</g>
</svg>
