<?xml version="1.0" encoding="iso-8859-1"?>
<!-- Generator: Adobe Illustrator 16.0.0, SVG Export Plug-In . SVG Version: 6.00 Build 0)  -->
<!DOCTYPE svg PUBLIC "-//W3C//DTD SVG 1.1//EN" "http://www.w3.org/Graphics/SVG/1.1/DTD/svg11.dtd">
<svg version="1.1" id="Layer_1" xmlns="http://www.w3.org/2000/svg" xmlns:xlink="http://www.w3.org/1999/xlink" x="0px" y="0px"
	 width="64px" height="64px" viewBox="0 0 64 64" style="enable-background:new 0 0 64 64;" xml:space="preserve">
<g id="Shape_7_">
	<g>
		<path style="fill:#FFCC66;" d="M60,0H4C1.791,0,0,1.791,0,4v56c0,2.209,1.791,4,4,4h56c2.209,0,4-1.791,4-4V4
			C64,1.791,62.209,0,60,0z"/>
	</g>
</g>
<g id="Bridge_Logo">
	<g>
		<path style="fill-rule:evenodd;clip-rule:evenodd;fill:#FFFFFF;" d="M29.293,30.939v-0.082c2.941-1.103,4.512-3.43,4.512-5.961
			c0-2.326-1.127-4.123-2.82-5.143c-1.852-1.307-4.108-1.756-7.773-1.756c-2.78,0-5.641,0.245-7.212,0.571v27.065
			c1.249,0.162,3.344,0.367,6.083,0.367c4.955,0,8.138-0.857,10.071-2.572c1.571-1.305,2.619-3.225,2.619-5.674
			C34.772,33.959,32.153,31.674,29.293,30.939z M20.914,21.916c0.524-0.122,1.37-0.203,2.82-0.203c3.142,0,5.075,1.184,5.075,3.755
			c0,2.327-1.934,3.961-5.357,3.961h-2.538V21.916z M23.533,42.205c-1.128,0-1.974,0-2.619-0.122v-8.981h2.457
			c3.425,0,6.164,1.307,6.164,4.491C29.535,40.981,26.716,42.205,23.533,42.205z M48.832,25.387c-2.096,0-4.391,1.43-5.357,4.246
			h-0.162l-0.161-3.797h-4.311c0.121,1.796,0.162,3.715,0.162,6.408v13.473h4.954V35.429c0-0.571,0.081-1.102,0.161-1.551
			c0.444-2.245,2.055-3.796,4.432-3.796c0.604,0,1.048,0.08,1.451,0.162V25.51C49.598,25.428,49.315,25.387,48.832,25.387z"/>
	</g>
</g>
<g>
</g>
<g>
</g>
<g>
</g>
<g>
</g>
<g>
</g>
<g>
</g>
<g>
</g>
<g>
</g>
<g>
</g>
<g>
</g>
<g>
</g>
<g>
</g>
<g>
</g>
<g>
</g>
<g>
</g>
</svg>
