<?xml version="1.0" encoding="iso-8859-1"?>
<!-- Generator: Adobe Illustrator 16.0.0, SVG Export Plug-In . SVG Version: 6.00 Build 0)  -->
<!DOCTYPE svg PUBLIC "-//W3C//DTD SVG 1.1//EN" "http://www.w3.org/Graphics/SVG/1.1/DTD/svg11.dtd">
<svg version="1.1" id="Layer_1" xmlns="http://www.w3.org/2000/svg" xmlns:xlink="http://www.w3.org/1999/xlink" x="0px" y="0px"
	 width="64.009px" height="63.978px" viewBox="0 0 64.009 63.978" style="enable-background:new 0 0 64.009 63.978;"
	 xml:space="preserve">
<g id="Chrome_shape">
	<g>
		<path style="fill:#ED7161;" d="M57.527,12.692c-0.084-0.109-0.175-0.213-0.259-0.322c-0.709-0.914-1.461-1.777-2.252-2.597
			c-0.177-0.185-0.354-0.367-0.536-0.548c-0.87-0.857-1.771-1.667-2.721-2.41c-0.072-0.057-0.136-0.119-0.208-0.175
			c-1.056-0.812-2.161-1.543-3.299-2.212c-0.08-0.047-0.147-0.106-0.228-0.152c-0.285-0.165-0.579-0.293-0.867-0.447
			c-0.501-0.269-0.999-0.54-1.513-0.78c-0.494-0.233-0.993-0.435-1.493-0.641c-0.417-0.169-0.831-0.349-1.254-0.501
			c-0.607-0.22-1.219-0.406-1.833-0.587c-0.341-0.101-0.678-0.21-1.022-0.302c-0.669-0.171-1.341-0.307-2.015-0.436
			c-0.318-0.062-0.633-0.133-0.953-0.187c-0.657-0.104-1.314-0.171-1.973-0.234c-0.359-0.035-0.717-0.085-1.079-0.106
			c-0.565-0.035-1.13-0.035-1.695-0.039c-0.463-0.006-0.924-0.026-1.389-0.011c-0.362,0.013-0.72,0.057-1.081,0.08
			c-2.393,0.16-4.78,0.584-7.128,1.297c-0.161,0.048-0.326,0.083-0.486,0.136c-0.595,0.19-1.182,0.424-1.77,0.652
			c-0.379,0.145-0.76,0.281-1.132,0.441C18.857,2.823,18.38,3.063,17.9,3.298c-0.466,0.23-0.932,0.459-1.388,0.711
			c-0.172,0.096-0.349,0.167-0.521,0.268c-0.267,0.154-0.507,0.335-0.768,0.496c-0.455,0.28-0.905,0.567-1.347,0.871
			c-0.436,0.298-0.861,0.607-1.278,0.924c-0.373,0.285-0.738,0.578-1.1,0.88c-0.454,0.379-0.898,0.763-1.326,1.161
			C9.893,8.868,9.624,9.14,9.354,9.41c-0.474,0.474-0.938,0.955-1.378,1.454c-0.103,0.117-0.202,0.24-0.301,0.36l9.156,15.853
			c1.18-3.632,3.6-6.876,7.169-8.936c2.528-1.459,5.285-2.081,8.008-2.079v-0.065h27.741C59.075,14.829,58.319,13.741,57.527,12.692
			z"/>
	</g>
</g>
<g id="Chrome_shape_5_">
	<g>
		<path style="fill:#88C057;" d="M18.972,39.015L5.116,15.022l-0.015-0.024c-0.148,0.254-1.094,1.52-1.233,1.777
			c-0.304,0.563-0.603,1.125-0.872,1.704c-0.213,0.455-0.4,0.915-0.591,1.377c-0.197,0.479-0.393,0.959-0.566,1.448
			c-0.194,0.549-0.364,1.099-0.527,1.651c-0.125,0.423-0.249,0.846-0.355,1.274c-0.148,0.593-0.274,1.186-0.388,1.783
			c-0.081,0.419-0.157,0.837-0.22,1.259c-0.087,0.584-0.154,1.168-0.208,1.752c-0.044,0.464-0.082,0.927-0.105,1.393
			C0.009,30.948,0,31.478,0,32.009c0,0.531,0.009,1.059,0.035,1.591c0.023,0.468,0.061,0.93,0.105,1.395
			c0.054,0.585,0.121,1.166,0.208,1.751c0.063,0.421,0.14,0.841,0.22,1.259c0.113,0.597,0.239,1.189,0.388,1.784
			c0.107,0.428,0.23,0.849,0.355,1.272c0.163,0.554,0.333,1.104,0.527,1.652c0.173,0.489,0.369,0.968,0.566,1.448
			c0.19,0.461,0.377,0.922,0.591,1.377c0.269,0.579,0.568,1.142,0.872,1.703c0.14,0.258,0.251,0.523,0.399,0.779
			c0.058,0.098,0.126,0.186,0.185,0.285c0.353,0.598,0.74,1.175,1.133,1.751c0.211,0.31,0.412,0.628,0.631,0.928
			c0.38,0.516,0.793,1.009,1.206,1.505c0.275,0.332,0.542,0.674,0.83,0.991c0.358,0.397,0.747,0.771,1.127,1.151
			c0.38,0.381,0.754,0.768,1.15,1.127c0.318,0.288,0.661,0.553,0.993,0.829c0.496,0.413,0.989,0.826,1.506,1.205
			c0.299,0.22,0.618,0.422,0.927,0.632c0.575,0.393,1.153,0.78,1.752,1.133c0.098,0.059,0.186,0.127,0.284,0.186
			c0.256,0.146,0.522,0.26,0.78,0.398c0.562,0.304,1.125,0.603,1.703,0.871c0.056,0.025,0.11,0.059,0.167,0.086
			c0.268,0.123,0.541,0.226,0.812,0.332c2.165,0.922,4.429,1.574,6.737,2.002l9.146-15.836
			C28.729,49.005,24.03,47.392,18.972,39.015z"/>
	</g>
</g>
<g id="Chrome_shape_2_">
	<g>
		<path style="fill:#FFCC66;" d="M63.933,29.786c-0.013-0.177-0.023-0.351-0.039-0.526c-0.228-2.669-1.006-6.706-1.918-9.304h-20
			c0.721,0.806,1.075,1.248,1.65,2.215c2.899,4.871,3.62,13.021,0.86,17.811l0.058,0.033L30.704,63.978
			c3.96,0,9.292-0.716,13.126-2.244c0.042-0.018,0.088-0.025,0.13-0.043c0.068-0.027,0.136-0.059,0.203-0.088
			c1.308-0.538,2.602-1.134,3.861-1.859c1.127-0.652,2.183-1.376,3.199-2.139c0.021-0.016,0.04-0.031,0.061-0.047
			c0.981-0.739,1.901-1.531,2.776-2.359c0.044-0.043,0.093-0.075,0.137-0.117c0.151-0.145,0.295-0.298,0.441-0.449
			c1.938-1.936,3.602-4.075,4.958-6.384c0.048-0.079,0.107-0.147,0.153-0.228c0.105-0.184,0.178-0.377,0.279-0.561
			c0.437-0.793,0.841-1.602,1.208-2.427c0.164-0.367,0.324-0.733,0.475-1.104c0.312-0.781,0.585-1.573,0.836-2.374
			c0.107-0.346,0.234-0.687,0.33-1.032c0.306-1.111,0.557-2.236,0.742-3.375c0.035-0.216,0.047-0.431,0.077-0.646
			c0.139-0.979,0.236-1.959,0.285-2.949c0.012-0.264,0.012-0.525,0.018-0.792C64.023,31.771,64.002,30.78,63.933,29.786z"/>
	</g>
</g>
<g id="Chrome_shape_3_">
	<g>
		<ellipse style="fill:#48A0DC;" cx="32.008" cy="31.967" rx="12.012" ry="11.993"/>
	</g>
</g>
<g>
</g>
<g>
</g>
<g>
</g>
<g>
</g>
<g>
</g>
<g>
</g>
<g>
</g>
<g>
</g>
<g>
</g>
<g>
</g>
<g>
</g>
<g>
</g>
<g>
</g>
<g>
</g>
<g>
</g>
</svg>
