<?xml version="1.0" encoding="iso-8859-1"?>
<!-- Generator: Adobe Illustrator 16.0.0, SVG Export Plug-In . SVG Version: 6.00 Build 0)  -->
<!DOCTYPE svg PUBLIC "-//W3C//DTD SVG 1.1//EN" "http://www.w3.org/Graphics/SVG/1.1/DTD/svg11.dtd">
<svg version="1.1" id="Layer_1" xmlns="http://www.w3.org/2000/svg" xmlns:xlink="http://www.w3.org/1999/xlink" x="0px" y="0px"
	 width="64px" height="64px" viewBox="0 0 64 64" style="enable-background:new 0 0 64 64;" xml:space="preserve">
<g id="Shape_65_">
	<g>
		<circle style="fill:#666666;" cx="32" cy="32" r="32"/>
	</g>
</g>
<g id="Deviantart_Logo">
	<g>
		<path style="fill:#FFFFFF;" d="M37.379,27.6c-1.857-0.308-3.974-0.404-6.224-0.062l4.667,8.576l20.164-5.253
			c0,0-7.313-9.473-29.125-7.032c-0.128,0.021-0.241,0.049-0.368,0.068l-2.117-3.891L18.1,20.653l2.56,4.733
			c-13.236,4.943-7.371,16.6-7.371,16.6l20.193-5.258L27.933,26.54c11.209-2.286,18.275,2.704,18.275,2.704l-6.854,1.674
			L37.379,27.6z M18.127,36.406c0,0-0.696-4.114,4.966-7.445l2.637,5.46L18.127,36.406z"/>
	</g>
</g>
<g>
</g>
<g>
</g>
<g>
</g>
<g>
</g>
<g>
</g>
<g>
</g>
<g>
</g>
<g>
</g>
<g>
</g>
<g>
</g>
<g>
</g>
<g>
</g>
<g>
</g>
<g>
</g>
<g>
</g>
</svg>
