<?xml version="1.0" encoding="iso-8859-1"?>
<!-- Generator: Adobe Illustrator 16.0.0, SVG Export Plug-In . SVG Version: 6.00 Build 0)  -->
<!DOCTYPE svg PUBLIC "-//W3C//DTD SVG 1.1//EN" "http://www.w3.org/Graphics/SVG/1.1/DTD/svg11.dtd">
<svg version="1.1" id="Layer_1" xmlns="http://www.w3.org/2000/svg" xmlns:xlink="http://www.w3.org/1999/xlink" x="0px" y="0px"
	 width="64px" height="63.977px" viewBox="0 0 64 63.977" style="enable-background:new 0 0 64 63.977;" xml:space="preserve">
<g id="Shape_51_">
	<g>
		<ellipse style="fill:#666666;" cx="32" cy="31.988" rx="32" ry="31.988"/>
	</g>
</g>
<g id="Digg_Logo">
	<g>
		<path style="fill-rule:evenodd;clip-rule:evenodd;fill:#FFFFFF;" d="M18,25.989h-2h-2h-2v11.996h2h2h2h4v-4V19.991h-4V25.989z
			 M18,33.985h-2v-3.997h2V33.985z M24,37.985h4V25.989h-4V37.985z M24,23.989h4v-3.998h-4V23.989z M30,29.988v3.997v2.001v1.999h6
			v2h-6v3.998h6h2h2V29.988v-1.999v-2H30V29.988z M34,29.988h2v3.997h-2V29.988z M42,25.989v3.999v3.997v2.001v1.999h6v2h-6v3.998h6
			h2h2V29.988v-1.999v-2H42z M48,33.985h-2v-3.997h2V33.985z"/>
	</g>
</g>
<g>
</g>
<g>
</g>
<g>
</g>
<g>
</g>
<g>
</g>
<g>
</g>
<g>
</g>
<g>
</g>
<g>
</g>
<g>
</g>
<g>
</g>
<g>
</g>
<g>
</g>
<g>
</g>
<g>
</g>
</svg>
