<?xml version="1.0" encoding="iso-8859-1"?>
<!-- Generator: Adobe Illustrator 16.0.0, SVG Export Plug-In . SVG Version: 6.00 Build 0)  -->
<!DOCTYPE svg PUBLIC "-//W3C//DTD SVG 1.1//EN" "http://www.w3.org/Graphics/SVG/1.1/DTD/svg11.dtd">
<svg version="1.1" id="Layer_1" xmlns="http://www.w3.org/2000/svg" xmlns:xlink="http://www.w3.org/1999/xlink" x="0px" y="0px"
	 width="64px" height="64px" viewBox="0 0 64 64" style="enable-background:new 0 0 64 64;" xml:space="preserve">
<g id="Shape_10_">
	<g>
		<path style="fill:#88C057;" d="M60,0H4C1.791,0,0,1.791,0,4v56c0,2.209,1.791,4,4,4h56c2.209,0,4-1.791,4-4V4
			C64,1.791,62.209,0,60,0z"/>
	</g>
</g>
<g id="Dreamweaver_Logo">
	<g>
		<path style="fill-rule:evenodd;clip-rule:evenodd;fill:#FFFFFF;" d="M16.997,18c-2.604,0-5.065,0.203-6.992,0.571v27.063
			c1.427,0.204,3.354,0.368,5.922,0.368c4.674,0,8.491-1.266,10.88-3.756c2.283-2.369,3.746-6.042,3.746-10.939
			c0-4.694-1.427-7.96-3.746-10.123C24.597,19.06,21.492,18,16.997,18z M16.818,42.001c-0.892,0-1.818,0-2.425-0.123V22.204
			c0.606-0.164,1.604-0.286,2.996-0.286c5.493,0,8.562,3.47,8.525,9.552C25.915,38.449,22.526,42.042,16.818,42.001z M51.813,25.837
			l-1.867,8.816c-0.449,2.326-0.83,4.49-1.105,6.653h-0.069c-0.381-2.163-0.829-4.327-1.349-6.653l-2.107-8.816h-3.458l-2.177,9.062
			c-0.484,2.041-1.037,4.245-1.383,6.408h-0.07c-0.311-2.163-0.69-4.327-1.071-6.449l-1.762-9.021h-4.355l4.978,19.878h3.975
			l2.144-8.081c0.483-1.96,0.933-3.919,1.278-6.369h0.069c0.381,2.409,0.762,4.287,1.279,6.369l2.005,8.081h3.94l5.289-19.878
			H51.813z"/>
	</g>
</g>
<g>
</g>
<g>
</g>
<g>
</g>
<g>
</g>
<g>
</g>
<g>
</g>
<g>
</g>
<g>
</g>
<g>
</g>
<g>
</g>
<g>
</g>
<g>
</g>
<g>
</g>
<g>
</g>
<g>
</g>
</svg>
