<?xml version="1.0" encoding="iso-8859-1"?>
<!-- Generator: Adobe Illustrator 16.0.0, SVG Export Plug-In . SVG Version: 6.00 Build 0)  -->
<!DOCTYPE svg PUBLIC "-//W3C//DTD SVG 1.1//EN" "http://www.w3.org/Graphics/SVG/1.1/DTD/svg11.dtd">
<svg version="1.1" id="Layer_1" xmlns="http://www.w3.org/2000/svg" xmlns:xlink="http://www.w3.org/1999/xlink" x="0px" y="0px"
	 width="64px" height="64.001px" viewBox="0 0 64 64.001" style="enable-background:new 0 0 64 64.001;" xml:space="preserve">
<g id="Shape_64_">
	<g>
		<circle style="fill:#ED7161;" cx="32" cy="32" r="32"/>
	</g>
</g>
<g id="Dribbble_Logo">
	<g>
		<path style="fill:#FFFFFF;" d="M32,16.001c-8.837,0-16,7.163-16,16c0,8.835,7.163,16,16,16s16-7.165,16-16
			C48,23.164,40.837,16.001,32,16.001z M42.499,23.745c1.72,2.184,2.773,4.911,2.856,7.88c-3.59-0.628-6.686-0.648-9.361-0.224
			c-0.339-0.778-0.688-1.533-1.046-2.267C37.817,27.955,40.39,26.234,42.499,23.745z M32,18.636c3.302,0,6.324,1.206,8.658,3.197
			c-1.884,2.287-4.249,3.861-6.925,4.931c-1.713-3.173-3.475-5.817-4.883-7.75C29.861,18.768,30.915,18.636,32,18.636z
			 M26.255,19.936c1.361,1.816,3.172,4.449,4.943,7.676c-3.754,1.032-7.953,1.31-12.203,1.321
			C19.933,24.958,22.647,21.66,26.255,19.936z M18.636,32.001c0-0.146,0.006-0.288,0.011-0.433c0.024,0,0.048,0,0.072,0
			c4.762,0,9.49-0.312,13.729-1.561c0.316,0.643,0.627,1.304,0.931,1.982c-5.577,1.636-9.054,5.305-11.437,8.798
			C19.886,38.436,18.636,35.361,18.636,32.001z M32,45.366c-3.048,0-5.86-1.027-8.11-2.754c2.256-3.398,5.4-6.761,10.516-8.172
			c1.195,3.063,2.17,6.404,2.686,9.913C35.521,45.007,33.802,45.366,32,45.366z M39.55,43.022c-0.547-3.208-1.443-6.266-2.522-9.102
			c2.338-0.297,5.026-0.225,8.142,0.347C44.547,37.89,42.465,41.018,39.55,43.022z"/>
	</g>
</g>
<g>
</g>
<g>
</g>
<g>
</g>
<g>
</g>
<g>
</g>
<g>
</g>
<g>
</g>
<g>
</g>
<g>
</g>
<g>
</g>
<g>
</g>
<g>
</g>
<g>
</g>
<g>
</g>
<g>
</g>
</svg>
