<?xml version="1.0" encoding="iso-8859-1"?>
<!-- Generator: Adobe Illustrator 16.0.0, SVG Export Plug-In . SVG Version: 6.00 Build 0)  -->
<!DOCTYPE svg PUBLIC "-//W3C//DTD SVG 1.1//EN" "http://www.w3.org/Graphics/SVG/1.1/DTD/svg11.dtd">
<svg version="1.1" id="Layer_1" xmlns="http://www.w3.org/2000/svg" xmlns:xlink="http://www.w3.org/1999/xlink" x="0px" y="0px"
	 width="55.999px" height="63.998px" viewBox="0 0 55.999 63.998" style="enable-background:new 0 0 55.999 63.998;"
	 xml:space="preserve">
<g id="Drupal_Logo">
	<g>
		<path style="fill-rule:evenodd;clip-rule:evenodd;fill:#48A0DC;" d="M41.938,11.9c-3.269-2.034-6.352-2.836-9.436-4.871
			C30.59,5.734,27.938,2.652,25.718,0c-0.432,4.256-1.727,5.982-3.206,7.215c-3.146,2.466-5.119,3.206-7.833,4.686
			C12.396,13.071,0,20.471,0,36.376c0,15.907,13.384,27.622,28.246,27.622c14.863,0,27.753-10.791,27.753-27.128
			C55.999,20.531,43.911,13.134,41.938,11.9z M42.294,58.195c-0.308,0.308-3.146,2.28-6.476,2.589s-7.832,0.493-10.546-1.973
			c-0.432-0.432-0.309-1.049,0-1.295c0.309-0.247,0.555-0.432,0.925-0.432s0.309,0,0.493,0.122c1.233,0.988,3.084,1.789,7.031,1.789
			s6.723-1.109,7.956-2.035c0.555-0.431,0.801-0.061,0.863,0.186C42.603,57.394,42.726,57.763,42.294,58.195z M31.502,52.585
			c0.678-0.617,1.788-1.604,2.836-2.035c1.049-0.432,1.604-0.37,2.591-0.37c0.986,0,2.035,0.062,2.775,0.555
			c0.74,0.494,1.172,1.604,1.418,2.221c0.247,0.616,0,0.986-0.493,1.232c-0.432,0.246-0.493,0.123-0.925-0.679
			c-0.433-0.802-0.802-1.603-2.961-1.603c-2.158,0-2.837,0.74-3.885,1.603c-1.049,0.863-1.419,1.171-1.789,0.679
			C30.699,53.693,30.823,53.201,31.502,52.585z M46.004,52.002c-2.221-0.186-4.82-6.015-7.656-6.138
			c-3.578-0.124-11.349,7.46-17.454,7.46c-3.7,0-4.81-0.556-6.044-1.356c-1.85-1.295-2.775-3.269-2.713-5.98
			c0.062-4.81,4.563-9.31,10.237-9.37c7.216-0.063,12.211,7.151,15.85,7.089c3.083-0.062,9.004-6.104,11.902-6.104
			c3.084,0,3.878,2.487,3.878,4.398s-2.521,5.842-4,7.999C48.523,52.159,47.73,52.124,46.004,52.002z"/>
	</g>
</g>
<g>
</g>
<g>
</g>
<g>
</g>
<g>
</g>
<g>
</g>
<g>
</g>
<g>
</g>
<g>
</g>
<g>
</g>
<g>
</g>
<g>
</g>
<g>
</g>
<g>
</g>
<g>
</g>
<g>
</g>
</svg>
