<?xml version="1.0" encoding="iso-8859-1"?>
<!-- Generator: Adobe Illustrator 16.0.0, SVG Export Plug-In . SVG Version: 6.00 Build 0)  -->
<!DOCTYPE svg PUBLIC "-//W3C//DTD SVG 1.1//EN" "http://www.w3.org/Graphics/SVG/1.1/DTD/svg11.dtd">
<svg version="1.1" id="Layer_1" xmlns="http://www.w3.org/2000/svg" xmlns:xlink="http://www.w3.org/1999/xlink" x="0px" y="0px"
	 width="64px" height="64px" viewBox="0 0 64 64" style="enable-background:new 0 0 64 64;" xml:space="preserve">
<g id="Shape_27_">
	<g>
		<circle style="fill:#48A0DC;" cx="32" cy="32" r="32"/>
	</g>
</g>
<g id="Ebay_Logo_4_">
	<g>
		<path style="fill-rule:evenodd;clip-rule:evenodd;fill:#FFFFFF;" d="M25.729,25.241c-3.481-0.021-4.979,2.196-4.979,2.196v-7.417
			h-2.791l0.036,11.908c-0.085-2.124-0.95-6.686-6.834-6.688c-6.924-0.002-7.192,5.741-7.157,7.23c0,0-0.339,6.714,6.988,6.714
			c6.296,0,6.606-4.212,6.606-4.212L14.7,34.979c0,0-0.563,2.32-3.697,2.258c-4.028-0.078-4.185-4.236-4.185-4.236h11.159
			c0,0,0.011-0.112,0.019-0.294l0.009,2.989c0,0-0.018,1.827-0.123,3.033h2.711l0.116-1.761c0,0,1.265,2.217,4.96,2.217
			s6.613-2.425,6.69-6.921C32.438,27.77,29.21,25.262,25.729,25.241z M6.911,30.965c0,0,0.198-3.76,4.181-3.761
			c3.969,0,3.969,3.761,3.969,3.761H6.911z M29.414,32.316c0,0,0.071,4.806-4.325,4.864c-4.396,0.06-4.325-4.967-4.325-4.967
			s-0.16-4.839,4.318-4.963C29.56,27.127,29.414,32.316,29.414,32.316z M45.256,30.519c-0.073-1.479,0.059-5.054-5.952-5.318
			c0,0-5.762-0.561-6.36,4.008h2.947c0,0,0.229-2.093,3.219-2.032c2.83,0.058,3.346,1.536,3.331,3.354c0,0-2.426,0.008-3.235,0.011
			c-1.458,0.008-6.563,0.181-7.039,3.493c-0.567,3.938,2.732,5.167,5.314,5.151s4.055-0.839,5.149-2.315l0.116,1.833l2.568-0.016
			c0,0-0.066-1.024-0.059-3.053C45.263,33.606,45.318,31.796,45.256,30.519z M37.962,37.289c0,0-2.798,0.003-2.962-2.377
			c-0.174-2.54,4.304-2.389,4.304-2.389l3.164-0.003C42.468,32.521,42.98,37.36,37.962,37.289z M57.034,25.813l-4.799,10.19
			l-4.789-10.19h-3.274l6.5,13.117l-2.508,5.049h3.166l8.664-18.166H57.034z"/>
	</g>
</g>
<g>
</g>
<g>
</g>
<g>
</g>
<g>
</g>
<g>
</g>
<g>
</g>
<g>
</g>
<g>
</g>
<g>
</g>
<g>
</g>
<g>
</g>
<g>
</g>
<g>
</g>
<g>
</g>
<g>
</g>
</svg>
