<?xml version="1.0" encoding="iso-8859-1"?>
<!-- Generator: Adobe Illustrator 16.0.0, SVG Export Plug-In . SVG Version: 6.00 Build 0)  -->
<!DOCTYPE svg PUBLIC "-//W3C//DTD SVG 1.1//EN" "http://www.w3.org/Graphics/SVG/1.1/DTD/svg11.dtd">
<svg version="1.1" id="Layer_1" xmlns="http://www.w3.org/2000/svg" xmlns:xlink="http://www.w3.org/1999/xlink" x="0px" y="0px"
	 width="64px" height="64px" viewBox="0 0 64 64" style="enable-background:new 0 0 64 64;" xml:space="preserve">
<g id="Shape_4_">
	<g>
		<path style="fill:#48A0DC;" d="M60,0H4C1.791,0,0,1.79,0,4v56c0,2.209,1.791,4,4,4h56c2.209,0,4-1.791,4-4V4
			C64,1.79,62.209,0,60,0z"/>
	</g>
</g>
<g id="Encore_Logo">
	<g>
		<path style="fill-rule:evenodd;clip-rule:evenodd;fill:#FFFFFF;" d="M19.116,33.578H29.67v-4.153H19.116v-7.229h11.177v-4.196
			H14.005v28.002h16.912v-4.196H19.116V33.578z M45.399,25.311c-3.087,0-5.107,1.912-5.908,3.49h-0.115l-0.229-3.032h-4.116
			c0.113,1.745,0.152,3.697,0.152,6.023v14.209h4.727V34.119c0-0.582,0.038-1.205,0.191-1.662c0.495-1.537,1.792-2.991,3.659-2.991
			c2.554,0,3.545,2.201,3.545,5.109v11.426h4.689V33.994C51.995,27.596,48.64,25.311,45.399,25.311z"/>
	</g>
</g>
<g>
</g>
<g>
</g>
<g>
</g>
<g>
</g>
<g>
</g>
<g>
</g>
<g>
</g>
<g>
</g>
<g>
</g>
<g>
</g>
<g>
</g>
<g>
</g>
<g>
</g>
<g>
</g>
<g>
</g>
</svg>
