<?xml version="1.0" encoding="iso-8859-1"?>
<!-- Generator: Adobe Illustrator 16.0.0, SVG Export Plug-In . SVG Version: 6.00 Build 0)  -->
<!DOCTYPE svg PUBLIC "-//W3C//DTD SVG 1.1//EN" "http://www.w3.org/Graphics/SVG/1.1/DTD/svg11.dtd">
<svg version="1.1" id="Layer_1" xmlns="http://www.w3.org/2000/svg" xmlns:xlink="http://www.w3.org/1999/xlink" x="0px" y="0px"
	 width="63.997px" height="63.977px" viewBox="0 0 63.997 63.977" style="enable-background:new 0 0 63.997 63.977;"
	 xml:space="preserve">
<g id="Shape_60_">
	<g>
		<ellipse style="fill:#88C057;" cx="31.999" cy="31.988" rx="31.999" ry="31.988"/>
	</g>
</g>
<g id="Envato_Logo">
	<g>
		<path style="fill:#FFFFFF;" d="M32.686,18.694c0.142-0.117,0.28-0.237,0.423-0.352C32.828,18.567,32.698,18.672,32.686,18.694z
			 M41.784,16.17c-3.759-1.08-9.185,2.674-9.099,2.524c-4.576,3.796-8.142,9.113-8.427,16.996c-0.061,0.22-0.615-0.029-0.725-0.098
			c-1.519-2.93-2.121-6.014-0.853-10.463c0.236-0.396-0.536-0.884-0.676-0.745c-0.278,0.282-1.438,1.525-2.209,2.87
			c-3.82,6.668-1.322,15.214,5.362,18.953c6.683,3.743,15.12,1.329,18.842-5.397C48.305,33.048,44.565,16.976,41.784,16.17z"/>
	</g>
</g>
<g>
</g>
<g>
</g>
<g>
</g>
<g>
</g>
<g>
</g>
<g>
</g>
<g>
</g>
<g>
</g>
<g>
</g>
<g>
</g>
<g>
</g>
<g>
</g>
<g>
</g>
<g>
</g>
<g>
</g>
</svg>
