<?xml version="1.0" encoding="iso-8859-1"?>
<!-- Generator: Adobe Illustrator 16.0.0, SVG Export Plug-In . SVG Version: 6.00 Build 0)  -->
<!DOCTYPE svg PUBLIC "-//W3C//DTD SVG 1.1//EN" "http://www.w3.org/Graphics/SVG/1.1/DTD/svg11.dtd">
<svg version="1.1" id="Layer_1" xmlns="http://www.w3.org/2000/svg" xmlns:xlink="http://www.w3.org/1999/xlink" x="0px" y="0px"
	 width="64px" height="64.001px" viewBox="0 0 64 64.001" style="enable-background:new 0 0 64 64.001;" xml:space="preserve">
<g id="Shape_33_">
	<g>
		<circle style="fill:#88C057;" cx="32" cy="32" r="32"/>
	</g>
</g>
<g id="Evernote_Logo">
	<g>
		<path style="fill:#FFFFFF;" d="M23.91,20.927c0-0.533,0.12-6.929,0.12-6.929l-7.995,8.005c0,0,5.516,0,6.616,0
			C23.736,22.003,23.91,21.463,23.91,20.927z M45.667,20.628c0-2.32-3.449-2.566-3.449-2.566l-8.149-0.508
			c0,0-0.179-2.228-1.81-2.984c-1.643-0.773-3.461-0.547-4.758-0.532c-1.297,0.012-1.606,1.678-1.606,3.231
			c0,1.583,0.023,3.384,0.023,4.504c0,2.047-0.884,2.914-3.12,2.914h-4.617c-1.289-0.098-2.299,0.113-2.299,1.152
			c0,1.052,1.518,9.949,3.597,12.012c1.224,1.191,8.603,2.023,10.179,2.023c1.561,0,1.027-4.597,1.465-4.597
			c0.428,0,0.918,2.593,3.365,3.198c2.453,0.625,5.741,0.5,5.904,2.246c0.23,2.301,0.434,5.292-1.086,5.5l-3.421,0.145
			c-2.351-0.172-1.726-2.738-0.694-2.738c1.039,0,1.564-0.039,1.564-0.039l0.116-2.816c0,0-5.382-0.642-5.609,2.992
			c-0.204,3.324,0.376,4.879,0.793,5.23c0.419,0.34,1.141,1.012,7.741,1.012C49.086,50.007,45.667,22.913,45.667,20.628z
			 M41.874,32.647c-0.353,0.391-1.68-0.645-2.931-0.645c-1.264,0-2.638,0.676-2.952,0.235c-0.318-0.442,0.288-4.001,2.662-4.001
			C41.04,28.237,42.239,32.257,41.874,32.647z"/>
	</g>
</g>
<g>
</g>
<g>
</g>
<g>
</g>
<g>
</g>
<g>
</g>
<g>
</g>
<g>
</g>
<g>
</g>
<g>
</g>
<g>
</g>
<g>
</g>
<g>
</g>
<g>
</g>
<g>
</g>
<g>
</g>
</svg>
