<?xml version="1.0" encoding="iso-8859-1"?>
<!-- Generator: Adobe Illustrator 16.0.0, SVG Export Plug-In . SVG Version: 6.00 Build 0)  -->
<!DOCTYPE svg PUBLIC "-//W3C//DTD SVG 1.1//EN" "http://www.w3.org/Graphics/SVG/1.1/DTD/svg11.dtd">
<svg version="1.1" id="Layer_1" xmlns="http://www.w3.org/2000/svg" xmlns:xlink="http://www.w3.org/1999/xlink" x="0px" y="0px"
	 width="63.94px" height="57.993px" viewBox="0 0 63.94 57.993" style="enable-background:new 0 0 63.94 57.993;"
	 xml:space="preserve">
<g id="Firefox_Logo">
	<g>
		<path style="fill:#ED7161;" d="M63.648,26.356c0.455-3.024,0.377-5.717-0.25-8.066c-0.225,1.741-0.468,2.795-0.715,3.214
			c-0.001-0.07-0.036-1.864-0.598-4.384c-0.275-1.885-0.679-3.658-1.246-5.291c0.144,0.767,0.226,1.41,0.263,1.982
			c-2.301-6.25-7.979-13.989-22.13-13.809c0,0,4.953,0.522,7.284,4.058c0,0-2.383-0.569-4.185,0.305
			c2.193,0.874,4.098,1.79,5.72,2.745c0.049,0.03,0.098,0.062,0.147,0.092c0.412,0.248,0.762,0.504,1.137,0.756
			c2.995,2.104,5.773,5.104,5.563,8.978c-0.647-1.018-1.506-1.688-2.604-2.021c1.354,5.32,1.49,9.712,0.392,13.179
			c-0.752-2.311-1.444-3.694-2.063-4.181c0.859,7.13-0.301,12.404-3.476,15.84c0.602-2.098,0.843-3.815,0.706-5.168
			c-3.73,5.64-7.975,8.557-12.731,8.739c-1.881-0.017-3.657-0.303-5.327-0.851c-0.004,0-0.009-0.001-0.014-0.001
			c0.004,0,0.009,0,0.013,0c-2.451-0.83-4.674-2.247-6.649-4.262c3.087,0.26,5.902-0.276,8.381-1.544l4.063-2.661l-0.015-0.013
			c0.526-0.198,1.023-0.184,1.506,0.042c0.992-0.136,1.338-0.667,1.007-1.563c-0.48-0.67-1.203-1.276-2.137-1.808
			c-2.032-1.066-4.153-0.899-6.366,0.515c-2.106,1.202-4.139,1.156-6.109-0.122c-4.381-3.03-6.104-6.246-2.382-6.822
			c-0.271-0.024-0.472-0.042-0.688-0.062c0.219,0.02,0.419,0.036,0.692,0.061c1.324,0.12,2.844,0.426,4.56,0.926
			c0.286-1.656-0.09-3.39-1.129-5.168c0-0.016,0-0.03,0-0.03c1.61-1.505,3.04-2.599,4.259-3.298
			c0.542-0.289,0.858-0.729,0.964-1.322c0.015-0.016,0.029-0.031,0.045-0.031l0.016-0.016c0.015-0.015,0.045-0.046,0.06-0.06
			c0.315-0.472,0.21-0.852-0.331-1.187c-1.129,0.061-2.258-0.015-3.387-0.243l-0.015,0.046c-0.466-0.138-1.054-0.548-1.775-1.246
			l-1.852-1.824l-0.557-0.441c0,0.014,0,0.031,0,0.062h-0.015l0.015-0.077l-0.105-0.107c0.061-0.028,0.105-0.074,0.15-0.104
			c0.256-1.386,0.678-2.57,1.279-3.589l0.136-0.121c0.602-1.004,1.761-2.082,3.461-3.237c-3.16,0.394-6.02,1.823-8.563,4.286
			c-2.107-0.775-4.605-0.608-7.48,0.501l-0.347,0.259c-0.006,0.003-0.013,0.007-0.019,0.01l0.365-0.269l0.015-0.016
			C8.782,7.103,7.563,4.715,6.977,0.809C4.674,3.089,3.56,7.162,3.635,13.044c-0.173,0.244-0.4,0.584-0.658,0.995
			c-0.054,0.043-0.119,0.074-0.172,0.118c-0.017,0-0.032,0.016-0.032,0.031c-0.016,0-0.016,0.017-0.016,0.017
			c-0.017,0.016-0.033,0.032-0.033,0.065c-0.352,0.548-0.832,1.373-1.439,2.488c-0.871,1.568-1.166,2.889-1.252,4.04
			c-0.003,0.005-0.006,0.008-0.009,0.013c-0.001,0.016,0.005,0.028,0.004,0.044c-0.007,0.098-0.022,0.202-0.026,0.298
			c0.017-0.027,0.033-0.047,0.049-0.074c0.008,0.264,0.012,0.529,0.078,0.768l1.867-1.535c-0.678,1.717-1.129,3.54-1.354,5.472
			c-0.032,0.296-0.032,0.589-0.055,0.885C0.39,26.442,0.192,26.217,0,25.997c0,6.858,2.176,13.198,5.848,18.406
			c0.037,0.057,0.067,0.111,0.105,0.166c0.055,0.074,0.115,0.134,0.171,0.205c2.636,3.628,6.005,6.676,9.902,8.928
			c2.802,1.66,5.813,2.827,9.024,3.518c0.227,0.05,0.45,0.108,0.679,0.153c0.658,0.126,1.33,0.221,2.005,0.307
			c0.517,0.068,1.033,0.134,1.559,0.178c0.225,0.018,0.438,0.062,0.664,0.075c0.322,0.02,0.629-0.005,0.948,0.006
			c0.356,0.012,0.705,0.055,1.065,0.055c0.283,0,0.559-0.035,0.84-0.043c0.461-0.013,0.919-0.036,1.374-0.069
			c0.813-0.056,1.616-0.145,2.412-0.261c0.167-0.026,0.336-0.048,0.502-0.077c15.213-2.46,26.842-15.627,26.842-31.546
			C63.842,26.125,63.747,26.231,63.648,26.356z M57.3,18.771c0.002-0.068,0.005-0.137,0.007-0.205l0.003,0.002
			C57.306,18.634,57.303,18.701,57.3,18.771z"/>
	</g>
</g>
<g>
</g>
<g>
</g>
<g>
</g>
<g>
</g>
<g>
</g>
<g>
</g>
<g>
</g>
<g>
</g>
<g>
</g>
<g>
</g>
<g>
</g>
<g>
</g>
<g>
</g>
<g>
</g>
<g>
</g>
</svg>
