<?xml version="1.0" encoding="iso-8859-1"?>
<!-- Generator: Adobe Illustrator 16.0.0, SVG Export Plug-In . SVG Version: 6.00 Build 0)  -->
<!DOCTYPE svg PUBLIC "-//W3C//DTD SVG 1.1//EN" "http://www.w3.org/Graphics/SVG/1.1/DTD/svg11.dtd">
<svg version="1.1" id="Layer_1" xmlns="http://www.w3.org/2000/svg" xmlns:xlink="http://www.w3.org/1999/xlink" x="0px" y="0px"
	 width="64px" height="64px" viewBox="0 0 64 64" style="enable-background:new 0 0 64 64;" xml:space="preserve">
<g id="Shape_3_">
	<g>
		<path style="fill:#FFCC66;" d="M60,0H4C1.791,0,0,1.791,0,4v56c0,2.209,1.791,4,4,4h56c2.209,0,4-1.791,4-4V4
			C64,1.791,62.209,0,60,0z"/>
	</g>
</g>
<g id="Fireworks_Logo">
	<g>
		<path style="fill-rule:evenodd;clip-rule:evenodd;fill:#FFFFFF;" d="M9.994,46.002h5.276V34.119h10.635v-4.197H15.271v-7.728
			h11.407v-4.196H9.994V46.002z M51.2,25.769l-2.145,8.974c-0.517,2.368-0.952,4.569-1.271,6.771h-0.08
			c-0.437-2.202-0.952-4.403-1.549-6.771l-2.422-8.974h-3.971l-2.503,9.224c-0.556,2.076-1.191,4.319-1.589,6.521h-0.079
			c-0.356-2.202-0.794-4.403-1.23-6.564l-2.026-9.181h-5.003l5.718,20.233h4.567l2.463-8.227c0.556-1.994,1.071-3.989,1.469-6.481
			h0.079c0.438,2.451,0.874,4.362,1.47,6.481l2.303,8.227h4.527l6.077-20.233H51.2z"/>
	</g>
</g>
<g>
</g>
<g>
</g>
<g>
</g>
<g>
</g>
<g>
</g>
<g>
</g>
<g>
</g>
<g>
</g>
<g>
</g>
<g>
</g>
<g>
</g>
<g>
</g>
<g>
</g>
<g>
</g>
<g>
</g>
</svg>
