<?xml version="1.0" encoding="iso-8859-1"?>
<!-- Generator: Adobe Illustrator 16.0.0, SVG Export Plug-In . SVG Version: 6.00 Build 0)  -->
<!DOCTYPE svg PUBLIC "-//W3C//DTD SVG 1.1//EN" "http://www.w3.org/Graphics/SVG/1.1/DTD/svg11.dtd">
<svg version="1.1" id="Layer_1" xmlns="http://www.w3.org/2000/svg" xmlns:xlink="http://www.w3.org/1999/xlink" x="0px" y="0px"
	 width="64px" height="64px" viewBox="0 0 64 64" style="enable-background:new 0 0 64 64;" xml:space="preserve">
<g id="Shape_8_">
	<g>
		<path style="fill:#CCD0D2;" d="M60,0H4C1.791,0,0,1.79,0,4v56c0,2.209,1.791,4,4,4h56c2.209,0,4-1.791,4-4V4
			C64,1.79,62.209,0,60,0z"/>
	</g>
</g>
<g id="Flash_Builder_Logo">
	<g>
		<path style="fill-rule:evenodd;clip-rule:evenodd;fill:#FFFFFF;" d="M15.996,45.401h4.645V34.29h9.367v-3.924h-9.367v-7.226
			h10.047v-3.924H15.996V45.401z M42.467,26.23c-2.316,0-3.976,1.088-4.736,2.487h-0.068V17.994h-4.253v22.262
			c0,1.942-0.069,4.04-0.139,5.322h3.804l0.172-2.992h0.069c1.004,2.099,3.042,3.42,5.498,3.42c4.01,0,7.19-3.847,7.19-9.674
			C50.039,29.998,46.513,26.23,42.467,26.23z M41.465,42.159c-1.729,0-3.25-1.321-3.665-3.379c-0.104-0.429-0.138-0.896-0.138-1.399
			v-2.836c0-0.389,0.034-0.854,0.104-1.243c0.381-1.866,1.729-3.381,3.665-3.381c2.73,0,4.252,2.72,4.252,6.256
			C45.683,39.635,44.161,42.159,41.465,42.159z"/>
	</g>
</g>
<g>
</g>
<g>
</g>
<g>
</g>
<g>
</g>
<g>
</g>
<g>
</g>
<g>
</g>
<g>
</g>
<g>
</g>
<g>
</g>
<g>
</g>
<g>
</g>
<g>
</g>
<g>
</g>
<g>
</g>
</svg>
