<?xml version="1.0" encoding="iso-8859-1"?>
<!-- Generator: Adobe Illustrator 16.0.0, SVG Export Plug-In . SVG Version: 6.00 Build 0)  -->
<!DOCTYPE svg PUBLIC "-//W3C//DTD SVG 1.1//EN" "http://www.w3.org/Graphics/SVG/1.1/DTD/svg11.dtd">
<svg version="1.1" id="Layer_1" xmlns="http://www.w3.org/2000/svg" xmlns:xlink="http://www.w3.org/1999/xlink" x="0px" y="0px"
	 width="63.938px" height="64.012px" viewBox="0 0 63.938 64.012" style="enable-background:new 0 0 63.938 64.012;"
	 xml:space="preserve">
<g id="Shape_67_">
	<g>
		<ellipse style="fill:#48A0DC;" cx="31.969" cy="32.006" rx="31.969" ry="32.006"/>
	</g>
</g>
<g id="Flickr_Logo">
	<g>
		<path style="fill-rule:evenodd;clip-rule:evenodd;fill:#FFFFFF;" d="M23.985,26.011c-3.316,0-6.003,2.683-6.003,5.987
			c0,3.306,2.687,5.988,6.003,5.988c3.315,0,6.003-2.683,6.003-5.988C29.988,28.693,27.301,26.011,23.985,26.011z M39.97,26.011
			c-3.316,0-6.003,2.683-6.003,5.987c0,3.306,2.687,5.988,6.003,5.988c3.315,0,6.003-2.683,6.003-5.988
			C45.973,28.693,43.285,26.011,39.97,26.011z"/>
	</g>
</g>
<g>
</g>
<g>
</g>
<g>
</g>
<g>
</g>
<g>
</g>
<g>
</g>
<g>
</g>
<g>
</g>
<g>
</g>
<g>
</g>
<g>
</g>
<g>
</g>
<g>
</g>
<g>
</g>
<g>
</g>
</svg>
