<?xml version="1.0" encoding="iso-8859-1"?>
<!-- Generator: Adobe Illustrator 16.0.0, SVG Export Plug-In . SVG Version: 6.00 Build 0)  -->
<!DOCTYPE svg PUBLIC "-//W3C//DTD SVG 1.1//EN" "http://www.w3.org/Graphics/SVG/1.1/DTD/svg11.dtd">
<svg version="1.1" id="Layer_1" xmlns="http://www.w3.org/2000/svg" xmlns:xlink="http://www.w3.org/1999/xlink" x="0px" y="0px"
	 width="64px" height="63.995px" viewBox="0 0 64 63.995" style="enable-background:new 0 0 64 63.995;" xml:space="preserve">
<g id="Shape_61_">
	<g>
		<circle style="fill:#88C057;" cx="32" cy="31.998" r="31.998"/>
	</g>
</g>
<g id="Forst_Logo">
	<g>
		<path style="fill-rule:evenodd;clip-rule:evenodd;fill:#FFFFFF;" d="M45.94,44.911L32.695,12.459
			c-0.116-0.284-0.381-0.468-0.673-0.468s-0.557,0.184-0.672,0.468l-13.29,32.45c-0.099,0.244-0.076,0.521,0.06,0.742
			c0.136,0.219,0.366,0.352,0.613,0.352h11.351v-5.58l-3.158-2.33l0.522-2.112l2.636,1.944v-5.9h3.752v2.756l2.748-1.474
			l0.413,2.121l-3.161,1.693v2.677l5.044-2.706l0.412,1.869l-5.456,2.927v4.115h11.432c0.247,0,0.477-0.133,0.613-0.352
			C46.016,45.431,46.038,45.153,45.94,44.911z M30,52.011h4v-6h-4V52.011z"/>
	</g>
</g>
<g>
</g>
<g>
</g>
<g>
</g>
<g>
</g>
<g>
</g>
<g>
</g>
<g>
</g>
<g>
</g>
<g>
</g>
<g>
</g>
<g>
</g>
<g>
</g>
<g>
</g>
<g>
</g>
<g>
</g>
</svg>
