<?xml version="1.0" encoding="iso-8859-1"?>
<!-- Generator: Adobe Illustrator 16.0.0, SVG Export Plug-In . SVG Version: 6.00 Build 0)  -->
<!DOCTYPE svg PUBLIC "-//W3C//DTD SVG 1.1//EN" "http://www.w3.org/Graphics/SVG/1.1/DTD/svg11.dtd">
<svg version="1.1" id="Layer_1" xmlns="http://www.w3.org/2000/svg" xmlns:xlink="http://www.w3.org/1999/xlink" x="0px" y="0px"
	 width="64px" height="64.001px" viewBox="0 0 64 64.001" style="enable-background:new 0 0 64 64.001;" xml:space="preserve">
<g id="Shape_44_">
	<g>
		<circle style="fill:#48A0DC;" cx="32" cy="32" r="32"/>
	</g>
</g>
<g id="Foursquare">
	<g>
		<path style="fill:#FFFFFF;" d="M37.266,30.347l-4.538-4.597c-1.245-1.214-3.175-1.214-4.421,0l-1.067,0.827
			c-1.396-1.061-3.103-1.718-5.001-1.718c-4.547,0-8.235,3.621-8.235,8.071s3.705,8.071,8.252,8.071c0.354,0,0.693-0.06,1.036-0.103
			l7.385,7.095l19.325-17.095V17.983L37.266,30.347z M22.549,39.134c-0.033,0-0.063,0.009-0.095,0.009
			c-3.413,0-6.365-2.882-6.365-6.212c0-3.331,2.952-5.869,6.365-5.869c1.33,0,2.557,0.422,3.567,1.123
			c1.58,1.095,2.62,2.887,2.62,4.919C28.642,36.401,25.915,39.084,22.549,39.134z M47.787,30.448l-16.89,14.862l-5.448-4.855
			c1.508-0.672,2.79-1.78,3.636-3.157l2.126,2.177l16.576-16.636V30.448z"/>
	</g>
</g>
<g>
</g>
<g>
</g>
<g>
</g>
<g>
</g>
<g>
</g>
<g>
</g>
<g>
</g>
<g>
</g>
<g>
</g>
<g>
</g>
<g>
</g>
<g>
</g>
<g>
</g>
<g>
</g>
<g>
</g>
</svg>
