<?xml version="1.0" encoding="iso-8859-1"?>
<!-- Generator: Adobe Illustrator 16.0.0, SVG Export Plug-In . SVG Version: 6.00 Build 0)  -->
<!DOCTYPE svg PUBLIC "-//W3C//DTD SVG 1.1//EN" "http://www.w3.org/Graphics/SVG/1.1/DTD/svg11.dtd">
<svg version="1.1" id="Layer_1" xmlns="http://www.w3.org/2000/svg" xmlns:xlink="http://www.w3.org/1999/xlink" x="0px" y="0px"
	 width="64px" height="63.999px" viewBox="0 0 64 63.999" style="enable-background:new 0 0 64 63.999;" xml:space="preserve">
<g id="Shape_72_">
	<g>
		<circle style="fill:#ED7161;" cx="32" cy="32" r="32"/>
	</g>
</g>
<g id="Google_x2B__Logo">
	<g>
		<path style="fill:#FFFFFF;" d="M38.399,36.365c-0.321-0.454-0.701-0.874-1.112-1.263c-0.414-0.389-0.824-0.751-1.222-1.066
			c-0.424-0.326-0.789-0.636-1.136-0.927c-0.336-0.292-0.617-0.597-0.836-0.927c-0.21-0.319-0.307-0.643-0.307-0.977
			c0-0.465,0.135-0.892,0.45-1.295c0.286-0.41,0.638-0.802,1.072-1.183c0.416-0.376,0.851-0.782,1.267-1.242
			c0.423-0.436,0.783-1.04,1.072-1.773c0.287-0.731,0.438-1.579,0.438-2.525c0-1.134-0.253-2.214-0.746-3.256
			c-0.496-1.042-1.202-1.835-2.119-2.413h2.606l2.596-1.52h-8.415c-1.18,0-2.388,0.12-3.591,0.385
			c-1.79,0.396-3.289,1.299-4.489,2.708c-1.22,1.42-1.826,3.029-1.826,4.834c0,1.89,0.68,3.462,2.038,4.72
			c1.356,1.259,3.01,1.887,4.911,1.887c0.394,0,0.828-0.027,1.344-0.095c-0.016,0.099-0.059,0.241-0.131,0.411
			c-0.064,0.171-0.106,0.315-0.145,0.421c-0.055,0.104-0.076,0.219-0.101,0.371c-0.036,0.143-0.05,0.302-0.05,0.447
			c0,0.848,0.41,1.796,1.241,2.868c-0.979,0.026-1.931,0.114-2.884,0.26c-0.953,0.148-1.957,0.378-2.991,0.689
			c-1.035,0.318-1.956,0.773-2.78,1.369c-0.813,0.599-1.448,1.297-1.848,2.127c-0.477,0.949-0.709,1.815-0.709,2.594
			c0,0.855,0.185,1.63,0.581,2.34c0.379,0.697,0.877,1.271,1.465,1.706c0.614,0.443,1.312,0.818,2.096,1.114
			c0.776,0.302,1.563,0.52,2.337,0.646c0.782,0.128,1.563,0.197,2.304,0.197c3.435,0,6.14-0.847,8.071-2.521
			c1.807-1.569,2.694-3.378,2.694-5.419c0-0.74-0.106-1.421-0.314-2.06C39.035,37.373,38.754,36.826,38.399,36.365z M31.008,29.38
			c-0.666,0-1.297-0.176-1.881-0.496c-0.59-0.34-1.082-0.771-1.506-1.306c-0.413-0.524-0.765-1.136-1.074-1.799
			c-0.302-0.663-0.535-1.333-0.684-2c-0.138-0.671-0.216-1.295-0.216-1.9c0-1.229,0.32-2.287,0.979-3.176
			c0.665-0.879,1.573-1.329,2.77-1.329c0.853,0,1.617,0.266,2.291,0.788c0.688,0.53,1.242,1.197,1.623,2.008
			c0.395,0.804,0.692,1.641,0.909,2.511c0.217,0.866,0.326,1.675,0.326,2.449c0,1.284-0.288,2.31-0.852,3.087
			C33.139,28.995,32.248,29.38,31.008,29.38z M36.32,43.817c-0.36,0.604-0.828,1.076-1.445,1.417
			c-0.596,0.341-1.247,0.583-1.939,0.753c-0.675,0.156-1.404,0.236-2.145,0.236c-0.822,0-1.648-0.101-2.445-0.292
			c-0.817-0.188-1.587-0.485-2.323-0.871c-0.736-0.396-1.321-0.927-1.781-1.618c-0.474-0.685-0.674-1.458-0.674-2.327
			c0-0.771,0.152-1.457,0.511-2.072c0.347-0.591,0.783-1.072,1.31-1.438c0.561-0.354,1.182-0.656,1.904-0.878
			c0.702-0.236,1.408-0.39,2.067-0.483c0.662-0.086,1.344-0.136,2.042-0.136c0.425,0,0.755,0.015,0.955,0.046
			c0.087,0.042,0.275,0.184,0.579,0.394c0.319,0.22,0.536,0.37,0.65,0.454c0.107,0.065,0.298,0.214,0.593,0.427
			c0.279,0.226,0.484,0.385,0.621,0.499c0.12,0.112,0.293,0.268,0.525,0.491c0.222,0.218,0.395,0.409,0.509,0.568
			c0.114,0.153,0.244,0.352,0.4,0.583c0.157,0.231,0.277,0.451,0.342,0.668c0.062,0.212,0.113,0.433,0.172,0.687
			c0.067,0.251,0.096,0.508,0.096,0.777C36.844,42.516,36.664,43.217,36.32,43.817z M46,19.998v-3.999h-2v3.999h-4v2h4v4h2v-4h4v-2
			H46z"/>
	</g>
</g>
<g>
</g>
<g>
</g>
<g>
</g>
<g>
</g>
<g>
</g>
<g>
</g>
<g>
</g>
<g>
</g>
<g>
</g>
<g>
</g>
<g>
</g>
<g>
</g>
<g>
</g>
<g>
</g>
<g>
</g>
</svg>
