<?xml version="1.0" encoding="iso-8859-1"?>
<!-- Generator: Adobe Illustrator 16.0.0, SVG Export Plug-In . SVG Version: 6.00 Build 0)  -->
<!DOCTYPE svg PUBLIC "-//W3C//DTD SVG 1.1//EN" "http://www.w3.org/Graphics/SVG/1.1/DTD/svg11.dtd">
<svg version="1.1" id="Layer_1" xmlns="http://www.w3.org/2000/svg" xmlns:xlink="http://www.w3.org/1999/xlink" x="0px" y="0px"
	 width="58.282px" height="63.725px" viewBox="0 0 58.282 63.725" style="enable-background:new 0 0 58.282 63.725;"
	 xml:space="preserve">
<g id="Google_Play_Shape">
	<g>
		<path style="fill:#48A0DC;" d="M0.257,3.012C0.106,3.547,0,4.121,0,4.779v54.172c0,0.649,0.102,1.22,0.25,1.748l30.378-28.805
			L0.257,3.012z"/>
	</g>
</g>
<g id="Google_Play_Shape_5_">
	<g>
		<path style="fill:#88C057;" d="M7.016,0.908C5.602,0.045,4.208-0.171,3.031,0.127l30.505,29.01l8.948-8.483L7.016,0.908z"/>
	</g>
</g>
<g id="Google_Play_Shape_2_">
	<g>
		<path style="fill:#FFCC66;" d="M55.56,27.934l-9.468-5.271l-9.696,9.194l9.878,9.396l9.213-5.063
			C59.98,33.627,58.339,29.497,55.56,27.934z"/>
	</g>
</g>
<g id="Google_Play_Shape_3_">
	<g>
		<path style="fill:#ED7161;" d="M33.487,34.613L2.944,63.571c1.195,0.335,2.621,0.136,4.071-0.749l35.579-19.549L33.487,34.613z"/>
	</g>
</g>
<g>
</g>
<g>
</g>
<g>
</g>
<g>
</g>
<g>
</g>
<g>
</g>
<g>
</g>
<g>
</g>
<g>
</g>
<g>
</g>
<g>
</g>
<g>
</g>
<g>
</g>
<g>
</g>
<g>
</g>
</svg>
