<?xml version="1.0" encoding="iso-8859-1"?>
<!-- Generator: Adobe Illustrator 16.0.0, SVG Export Plug-In . SVG Version: 6.00 Build 0)  -->
<!DOCTYPE svg PUBLIC "-//W3C//DTD SVG 1.1//EN" "http://www.w3.org/Graphics/SVG/1.1/DTD/svg11.dtd">
<svg version="1.1" id="Layer_1" xmlns="http://www.w3.org/2000/svg" xmlns:xlink="http://www.w3.org/1999/xlink" x="0px" y="0px"
	 width="64px" height="63.999px" viewBox="0 0 64 63.999" style="enable-background:new 0 0 64 63.999;" xml:space="preserve">
<g id="Shape_16_">
	<g>
		<circle style="fill:#ED7161;" cx="32" cy="32" r="32"/>
	</g>
</g>
<g id="Gowalla_Logo">
	<g>
		<path style="fill:#FFFFFF;" d="M46,30.214c-3.072,0-6.146,0-9.217,0c-0.203,2.227,0.405,5.25-0.307,6.969
			c-10.444,1.212-9.032-20.858,0-19.09c-1.551,7.104,6.871,6.754,7.066,1.817c0.145-3.703-4.096-5.423-6.453-5.757
			c-7.053-1.002-15.9,2.992-16.897,12.121c-0.99,9.065,2.63,11.924,9.523,15.151c-3.52,9.935,9.659,10.494,14.133,5.455
			C47.201,43.105,45.189,36.267,46,30.214z M34.017,45.063c-2.858-1.64-0.151-5.219,2.151-5.455c0.357-0.05,0.548,0.067,0.615,0.304
			C37.052,42.803,36.237,44.626,34.017,45.063z"/>
	</g>
</g>
<g>
</g>
<g>
</g>
<g>
</g>
<g>
</g>
<g>
</g>
<g>
</g>
<g>
</g>
<g>
</g>
<g>
</g>
<g>
</g>
<g>
</g>
<g>
</g>
<g>
</g>
<g>
</g>
<g>
</g>
</svg>
