<?xml version="1.0" encoding="iso-8859-1"?>
<!-- Generator: Adobe Illustrator 16.0.0, SVG Export Plug-In . SVG Version: 6.00 Build 0)  -->
<!DOCTYPE svg PUBLIC "-//W3C//DTD SVG 1.1//EN" "http://www.w3.org/Graphics/SVG/1.1/DTD/svg11.dtd">
<svg version="1.1" id="Layer_1" xmlns="http://www.w3.org/2000/svg" xmlns:xlink="http://www.w3.org/1999/xlink" x="0px" y="0px"
	 width="63.957px" height="63.914px" viewBox="0 0 63.957 63.914" style="enable-background:new 0 0 63.957 63.914;"
	 xml:space="preserve">
<g id="Grooveshark_Logo">
	<g>
		<path style="fill:#ED7161;" d="M55.185,9.98C49.068,3.318,39.942-1.045,28.137,0.218c-8.95,0.956-15.574,5.354-20.035,10.515
			C3.687,15.84-0.159,23.25,0.005,32.511c0.162,9.183,3.875,16.137,8.598,21.28c5.744,6.256,14.778,10.9,26.296,10.014
			c16.454-1.268,29.412-14.908,29.05-32.795C63.777,22.501,59.253,14.412,55.185,9.98z M45.824,34.493
			c-6.69-8.873-11.765-16.983-23.98-20.571c0.28,7.367,1.072,15.593-3.214,20.829c-1.922,2.349-7.542,4.304-10.536,2.938
			C5.06,36.305,5.916,30.271,6.81,26.275c2.446-10.94,11.434-19.41,23.379-20.234c10.651-0.732,19.832,5.463,23.894,12.192
			c2.089,3.461,3.99,9.379,3.854,14.269C57.641,43.117,50.031,40.075,45.824,34.493z"/>
	</g>
</g>
<g>
</g>
<g>
</g>
<g>
</g>
<g>
</g>
<g>
</g>
<g>
</g>
<g>
</g>
<g>
</g>
<g>
</g>
<g>
</g>
<g>
</g>
<g>
</g>
<g>
</g>
<g>
</g>
<g>
</g>
</svg>
