<?xml version="1.0" encoding="iso-8859-1"?>
<!-- Generator: Adobe Illustrator 16.0.0, SVG Export Plug-In . SVG Version: 6.00 Build 0)  -->
<!DOCTYPE svg PUBLIC "-//W3C//DTD SVG 1.1//EN" "http://www.w3.org/Graphics/SVG/1.1/DTD/svg11.dtd">
<svg version="1.1" id="Layer_1" xmlns="http://www.w3.org/2000/svg" xmlns:xlink="http://www.w3.org/1999/xlink" x="0px" y="0px"
	 width="64px" height="63.999px" viewBox="0 0 64 63.999" style="enable-background:new 0 0 64 63.999;" xml:space="preserve">
<g id="Shape_15_">
	<g>
		<circle style="fill:#88C057;" cx="32" cy="32" r="32"/>
	</g>
</g>
<g id="Icq_Logo">
	<g>
		<path style="fill:#FFFFFF;" d="M47.375,33.565l-0.23-0.361c-0.368-0.541-0.734-1.082-1.287-1.443
			c-0.458-0.316-1.01-0.541-1.514-0.768c1.423-0.678,2.041-1.624,2.501-2.842c0.323-0.994-0.621-1.805-0.621-2.617v-0.089
			c0-0.904-0.893-1.489-2.041-1.806c-0.69-0.136-1.274-0.136-1.964-0.092l-1.418,0.316l0.556-1.127
			c0.458-1.444,0.345-2.843-0.436-4.151l-0.126-0.224c-0.689-1.13-1.693-1.806-3.071-2.167c-1.423-0.361-2.278-0.226-3.563,0.45
			c-1.289,0.678-2.145,1.717-2.145,3.068v0.09l-0.517,0.316l-0.421-0.316L30.5,18.993c-0.736-1.129-1.713-1.806-2.861-2.123
			c-1.012-0.225-1.864-0.134-2.738,0.317c-0.963,0.586-1.53,1.49-1.761,2.753c-0.23,1.308-0.007,2.571,0.683,3.834l0.316,0.452
			l-1.103-0.362c-1.379-0.316-2.665-0.135-3.95,0.542c-1.334,0.676-2.16,1.624-2.713,2.933c-0.505,1.263-0.457,2.479,0.186,3.609
			c0.275,0.496,0.688,0.902,1.055,1.174c0.552,0.541,1.241,0.856,2.067,0.992l0.321,0.09l-0.688,0.588
			c-0.645,0.542-1.011,1.218-1.24,1.895c-0.229,0.813-0.138,1.625,0.32,2.393c0.231,0.359,0.46,0.673,0.828,0.902
			c0.367,0.313,0.826,0.54,1.377,0.586c1.011,0.227,2.067,0.227,3.215-0.137l-0.828,1.354l-0.228,0.587
			c-0.46,1.44-0.323,2.705,0.367,4.013c0.321,0.499,0.688,0.95,1.056,1.355c0.551,0.495,1.238,0.812,2.067,1.039
			c1.376,0.359,2.754,0.313,4.087-0.363c1.287-0.676,2.111-1.761,2.526-3.113l0.045-0.269c0.873,0.945,1.699,1.577,2.62,1.804
			c0.917,0.271,1.836,0.226,2.663-0.315c0.78-0.453,1.331-1.22,1.606-2.167c0.229-0.992,0.229-1.983,0-3.109
			c0.458,0.313,0.919,0.539,1.469,0.673c1.469,0.453,2.757,0.406,4.042-0.271c1.24-0.675,2.067-1.76,2.479-3.158
			C48.155,36.136,48.063,34.828,47.375,33.565z M40.716,26.03l0.55-0.226c0.828-0.359,1.607-0.451,2.437-0.359
			c0.778,0.089,1.331,0.448,1.605,0.991l0.183,0.586l-0.091,0.452c-0.321,0.813-1.011,1.443-2.159,1.939
			c-0.458,0.225-0.963,0.316-1.514,0.404l-5.65,0.68l-0.092-0.316l-0.092-0.137l0.184-0.227L40.716,26.03z M32.907,20.346
			c0.229-0.902,0.873-1.579,1.699-2.03c0.827-0.451,1.745-0.542,2.617-0.227c0.967,0.227,1.654,0.723,2.068,1.49
			c0.229,0.451,0.366,0.993,0.366,1.579l-0.137,0.992c-0.184,0.495-0.414,0.948-0.688,1.354l-4.134,4.963
			c-0.412-0.315-0.872-0.542-1.333-0.767l-0.459-5.098l-0.045-1.806L32.907,20.346z M31.714,29.279c0.826,0,1.606,0.316,2.113,0.813
			c0.641,0.632,0.918,1.308,0.918,2.12c0,0.812-0.277,1.58-0.918,2.122c-0.598,0.587-1.287,0.899-2.113,0.899
			c-0.872,0-1.608-0.313-2.159-0.899c-0.598-0.542-0.917-1.311-0.917-2.122c0-0.813,0.319-1.488,0.917-2.12
			C30.105,29.596,30.842,29.279,31.714,29.279z M25.056,20.479c0.045-0.811,0.364-1.352,0.917-1.668
			c0.276-0.226,0.689-0.226,1.056-0.045c0.828,0.227,1.518,0.813,2.066,1.939c0.23,0.452,0.46,0.903,0.553,1.444l0.917,5.324
			L29.877,27.7l-4.088-4.377l-0.23-0.451C25.191,22.06,24.963,21.293,25.056,20.479z M20.507,31.309l-0.458-0.089
			c-0.826-0.136-1.379-0.496-1.745-1.175c-0.367-0.676-0.367-1.352-0.091-2.028c0.32-0.859,0.917-1.535,1.789-1.896
			c0.828-0.452,1.652-0.587,2.572-0.361l1.24,0.496l4.042,2.888c-0.368,0.452-0.598,0.901-0.736,1.354L20.507,31.309z
			 M32.016,43.355l-0.517,0.452c-0.323,0.812-1.109,1.488-1.937,1.848c-0.827,0.453-1.82,0.542-2.645,0.319
			c-0.921-0.227-1.668-0.769-2.035-1.491c-0.229-0.449-0.439-0.992-0.439-1.534l0.211-1.036c0.093-0.452,0.316-0.904,0.684-1.265
			l3.854-4.513c0.459,0.227,1.388,0.452,1.895,0.499c0.091,1.531,0.93,3.159,0.93,4.916V43.355z M38.052,42.227
			c-0.091,0.814-0.367,1.401-0.92,1.627c-0.319,0.224-0.688,0.224-1.056,0.181c-0.871-0.227-1.562-0.902-2.065-1.987l-0.552-1.487
			l-0.688-3.925l0.779-0.272l0.599-0.313l1.928,1.938l1.194,1.444l0.229,0.45C37.913,40.648,38.145,41.372,38.052,42.227z
			 M45.951,36.948c-0.23,0.904-0.781,1.58-1.563,1.94c-0.825,0.452-1.654,0.542-2.571,0.227c-0.552-0.134-0.919-0.363-1.239-0.723
			l-4.823-3.925l0.321-0.676l0.14-0.543l5.189-0.451l1.835-0.044l0.462,0.044c0.687,0.226,1.331,0.632,1.697,1.309
			c0.458,0.498,0.689,1.174,0.689,1.942L45.951,36.948z"/>
	</g>
</g>
<g>
</g>
<g>
</g>
<g>
</g>
<g>
</g>
<g>
</g>
<g>
</g>
<g>
</g>
<g>
</g>
<g>
</g>
<g>
</g>
<g>
</g>
<g>
</g>
<g>
</g>
<g>
</g>
<g>
</g>
</svg>
