<?xml version="1.0" encoding="iso-8859-1"?>
<!-- Generator: Adobe Illustrator 16.0.0, SVG Export Plug-In . SVG Version: 6.00 Build 0)  -->
<!DOCTYPE svg PUBLIC "-//W3C//DTD SVG 1.1//EN" "http://www.w3.org/Graphics/SVG/1.1/DTD/svg11.dtd">
<svg version="1.1" id="Layer_1" xmlns="http://www.w3.org/2000/svg" xmlns:xlink="http://www.w3.org/1999/xlink" x="0px" y="0px"
	 width="64px" height="64px" viewBox="0 0 64 64" style="enable-background:new 0 0 64 64;" xml:space="preserve">
<g id="Shape_13_">
	<g>
		<path style="fill:#FFCC66;" d="M60,0H4C1.791,0,0,1.79,0,4v56c0,2.209,1.791,4,4,4h56c2.209,0,4-1.791,4-4V4
			C64,1.79,62.209,0,60,0z"/>
	</g>
</g>
<g id="Illustrator_Logo">
	<g>
		<path style="fill-rule:evenodd;clip-rule:evenodd;fill:#FFFFFF;" d="M22,18l-8.002,28.004h5.272l2.407-7.753h8.883l2.533,7.753
			h5.479L30,18H22z M22.508,34.477l2.159-6.738c0.498-1.623,0.913-3.531,1.328-5.113h0.083c0.415,1.582,0.872,3.449,1.411,5.113
			l2.2,6.738H22.508z M40.563,46.004h5.147V26.236h-5.147V46.004z M43.096,23.395c1.785,0,2.905-1.177,2.905-2.678
			c-0.041-1.543-1.12-2.721-2.864-2.721c-1.701,0-2.863,1.178-2.863,2.721C40.273,22.218,41.394,23.395,43.096,23.395z"/>
	</g>
</g>
<g>
</g>
<g>
</g>
<g>
</g>
<g>
</g>
<g>
</g>
<g>
</g>
<g>
</g>
<g>
</g>
<g>
</g>
<g>
</g>
<g>
</g>
<g>
</g>
<g>
</g>
<g>
</g>
<g>
</g>
</svg>
