<?xml version="1.0" encoding="iso-8859-1"?>
<!-- Generator: Adobe Illustrator 16.0.0, SVG Export Plug-In . SVG Version: 6.00 Build 0)  -->
<!DOCTYPE svg PUBLIC "-//W3C//DTD SVG 1.1//EN" "http://www.w3.org/Graphics/SVG/1.1/DTD/svg11.dtd">
<svg version="1.1" id="Layer_1" xmlns="http://www.w3.org/2000/svg" xmlns:xlink="http://www.w3.org/1999/xlink" x="0px" y="0px"
	 width="64px" height="64px" viewBox="0 0 64 64" style="enable-background:new 0 0 64 64;" xml:space="preserve">
<g id="Shape_12_">
	<g>
		<path style="fill:#ED7161;" d="M60,0H4C1.791,0,0,1.79,0,4v56c0,2.209,1.791,4,4,4h56c2.209,0,4-1.791,4-4V4
			C64,1.79,62.209,0,60,0z"/>
	</g>
</g>
<g id="InDesign_Logo">
	<g>
		<path style="fill-rule:evenodd;clip-rule:evenodd;fill:#FFFFFF;" d="M19.996,45.99L24,46V20l-4.004,0.024V45.99z M46,18h-4.875
			v10.354c-0.87-1.218-2.488-2.124-4.683-2.124c-4.206,0-7.872,3.768-7.836,10.101c0,5.828,3.307,9.675,7.476,9.675
			c1.999,0,3.821-0.735,5.043-2.044V46H46c-0.072-1.282,0-2.999,0-4.941V18z M41.125,39.412c-0.432,2.059-1.843,2.747-3.64,2.747
			c-2.805,0-4.387-2.524-4.387-5.982c0-3.536,1.582-6.255,4.422-6.255c2.013,0,3.208,1.037,3.604,2.901c0.071,0.389,0,1.259,0,1.647
			v3.295C41.125,38.27,41.232,38.983,41.125,39.412z"/>
	</g>
</g>
<g>
</g>
<g>
</g>
<g>
</g>
<g>
</g>
<g>
</g>
<g>
</g>
<g>
</g>
<g>
</g>
<g>
</g>
<g>
</g>
<g>
</g>
<g>
</g>
<g>
</g>
<g>
</g>
<g>
</g>
</svg>
