<?xml version="1.0" encoding="iso-8859-1"?>
<!-- Generator: Adobe Illustrator 16.0.0, SVG Export Plug-In . SVG Version: 6.00 Build 0)  -->
<!DOCTYPE svg PUBLIC "-//W3C//DTD SVG 1.1//EN" "http://www.w3.org/Graphics/SVG/1.1/DTD/svg11.dtd">
<svg version="1.1" id="Layer_1" xmlns="http://www.w3.org/2000/svg" xmlns:xlink="http://www.w3.org/1999/xlink" x="0px" y="0px"
	 width="64px" height="63.999px" viewBox="0 0 64 63.999" style="enable-background:new 0 0 64 63.999;" xml:space="preserve">
<g id="Shape_68_">
	<g>
		<circle style="fill:#48A0DC;" cx="32" cy="32" r="32"/>
	</g>
</g>
<g id="Instagram_Logo">
	<g>
		<path style="fill:#FFFFFF;" d="M41.818,15.995H22.182c-3.411,0-6.187,2.774-6.187,6.186v6.532v13.105
			c0,3.411,2.775,6.186,6.187,6.186h19.637c3.411,0,6.186-2.774,6.186-6.186V28.713v-6.532
			C48.004,18.77,45.229,15.995,41.818,15.995z M32,28.013c3.303,0,3.985,3.102,3.985,3.985c0,2.196-1.789,3.984-3.985,3.984
			c-2.197,0-3.985-1.788-3.985-3.984C28.015,31.114,28.696,28.013,32,28.013z M44,41.998c0,1.692-0.309,2-2,2H22
			c-1.691,0-2-0.308-2-2v-14h4c-0.412,1.016,0,2.837,0,4c0,4.825,3.173,8.753,8,8.753c4.826,0,8-3.928,8-8.753
			c0-1.163,0.412-2.984,0-4h4V41.998z M44.021,20.52v3.446l-4.029,0.012l-0.014-3.96l3.516-0.011l0.527-0.002V20.52z"/>
	</g>
</g>
<g>
</g>
<g>
</g>
<g>
</g>
<g>
</g>
<g>
</g>
<g>
</g>
<g>
</g>
<g>
</g>
<g>
</g>
<g>
</g>
<g>
</g>
<g>
</g>
<g>
</g>
<g>
</g>
<g>
</g>
</svg>
