<?xml version="1.0" encoding="iso-8859-1"?>
<!-- Generator: Adobe Illustrator 16.0.0, SVG Export Plug-In . SVG Version: 6.00 Build 0)  -->
<!DOCTYPE svg PUBLIC "-//W3C//DTD SVG 1.1//EN" "http://www.w3.org/Graphics/SVG/1.1/DTD/svg11.dtd">
<svg version="1.1" id="Layer_1" xmlns="http://www.w3.org/2000/svg" xmlns:xlink="http://www.w3.org/1999/xlink" x="0px" y="0px"
	 width="64px" height="63.977px" viewBox="0 0 64 63.977" style="enable-background:new 0 0 64 63.977;" xml:space="preserve">
<g id="Shape_50_">
	<g>
		<ellipse style="fill:#88C057;" cx="32" cy="31.988" rx="32" ry="31.988"/>
	</g>
</g>
<g id="Kickstarter_Logo">
	<g>
		<path style="fill:#FFFFFF;" d="M45.211,40.113c-0.253-0.318-7.269-8.158-7.269-8.158s5.835-7.955,5.937-8.099
			c0.102-0.147,2.36-3.774-1.281-6.67c-3.716-2.678-6.956,0.05-7.431,0.733c-0.452,0.643-6.432,8.092-7.016,8.907h-0.05V21.04
			c0,0,0.187-1.789-1.095-3.173c-1.281-1.39-2.386-1.976-4.081-1.976s-2.939,0.952-3.617,1.794
			c-0.677,0.838-1.281,2.042-1.281,4.563v19.873c0,2.337,0.954,5.877,5.023,5.877s5.05-2.993,5.05-6.134v-5.23h0.019
			c0.44,0.527,8.784,9.812,9.006,10.077c0.226,0.268,3.088,2.627,6.804,0.17C47.47,43.883,45.46,40.431,45.211,40.113z"/>
	</g>
</g>
<g>
</g>
<g>
</g>
<g>
</g>
<g>
</g>
<g>
</g>
<g>
</g>
<g>
</g>
<g>
</g>
<g>
</g>
<g>
</g>
<g>
</g>
<g>
</g>
<g>
</g>
<g>
</g>
<g>
</g>
</svg>
