<?xml version="1.0" encoding="iso-8859-1"?>
<!-- Generator: Adobe Illustrator 16.0.0, SVG Export Plug-In . SVG Version: 6.00 Build 0)  -->
<!DOCTYPE svg PUBLIC "-//W3C//DTD SVG 1.1//EN" "http://www.w3.org/Graphics/SVG/1.1/DTD/svg11.dtd">
<svg version="1.1" id="Layer_1" xmlns="http://www.w3.org/2000/svg" xmlns:xlink="http://www.w3.org/1999/xlink" x="0px" y="0px"
	 width="64.003px" height="64.027px" viewBox="0 0 64.003 64.027" style="enable-background:new 0 0 64.003 64.027;"
	 xml:space="preserve">
<g id="Shape_47_">
	<g>
		<ellipse style="fill:#ED7161;" cx="32.001" cy="32.014" rx="32.001" ry="32.014"/>
	</g>
</g>
<g id="Last_FM_Logo">
	<g>
		<path style="fill:#FFFFFF;" d="M44.444,30.22c-0.316-0.095-0.621-0.185-0.914-0.271c-2.24-0.649-3.592-1.042-3.592-2.652
			c0-1.307,1.092-2.252,2.596-2.252c1.152,0,2.011,0.442,2.78,1.437c0.073,0.093,0.208,0.125,0.319,0.071l2.262-1.064
			c0.061-0.028,0.106-0.08,0.125-0.142c0.021-0.061,0.013-0.125-0.021-0.181c-1.211-1.986-2.957-2.953-5.339-2.953
			c-3.625,0-5.967,2.025-5.967,5.158c0,3.204,2.266,4.501,6.445,5.771c2.421,0.745,3.492,1.141,3.492,2.732
			c0,1.788-1.747,3.074-4.132,2.999c-2.497-0.078-3.254-1.3-4.206-3.303c-1.609-3.393-3.442-7.353-3.46-7.391
			c-1.839-3.919-5.484-6.165-10.002-6.165c-5.969,0-10.824,4.485-10.824,9.999c0,5.511,4.855,9.997,10.824,9.997
			c3.256,0,6.307-1.334,8.371-3.659c0.061-0.067,0.074-0.157,0.036-0.239l-1.364-2.907c-0.038-0.081-0.126-0.135-0.222-0.14
			c-0.099-0.003-0.188,0.047-0.231,0.126c-1.288,2.272-3.813,3.684-6.59,3.684c-4.096,0-7.428-3.076-7.428-6.861
			c0-3.784,3.332-6.862,7.428-6.862c2.981,0,5.714,1.635,6.799,4.073l3.375,7.11l0.389,0.798c1.527,3.282,3.768,4.754,7.28,4.765
			c4.174,0,7.321-2.555,7.321-5.941C49.995,32.555,47.959,31.277,44.444,30.22z"/>
	</g>
</g>
<g>
</g>
<g>
</g>
<g>
</g>
<g>
</g>
<g>
</g>
<g>
</g>
<g>
</g>
<g>
</g>
<g>
</g>
<g>
</g>
<g>
</g>
<g>
</g>
<g>
</g>
<g>
</g>
<g>
</g>
</svg>
