<?xml version="1.0" encoding="iso-8859-1"?>
<!-- Generator: Adobe Illustrator 16.0.0, SVG Export Plug-In . SVG Version: 6.00 Build 0)  -->
<!DOCTYPE svg PUBLIC "-//W3C//DTD SVG 1.1//EN" "http://www.w3.org/Graphics/SVG/1.1/DTD/svg11.dtd">
<svg version="1.1" id="Layer_1" xmlns="http://www.w3.org/2000/svg" xmlns:xlink="http://www.w3.org/1999/xlink" x="0px" y="0px"
	 width="64px" height="63.999px" viewBox="0 0 64 63.999" style="enable-background:new 0 0 64 63.999;" xml:space="preserve">
<g id="Shape_66_">
	<g>
		<circle style="fill:#48A0DC;" cx="32" cy="32" r="32"/>
	</g>
</g>
<g id="Linked_IN_logo">
	<g>
		<path style="fill-rule:evenodd;clip-rule:evenodd;fill:#FFFFFF;" d="M18.031,43.968h5.993V23.993h-5.993V43.968z M41.375,23.304
			c-2.909,0-5.511,1.062-7.356,3.406v-2.779h-6.014v20.037h6.014V33.132c0-2.289,2.098-4.524,4.728-4.524
			c2.629,0,3.274,2.235,3.274,4.471v10.89h5.993V32.63C48.014,24.754,44.285,23.304,41.375,23.304z M21,21.999c1.657,0,3-1.344,3-3
			c0-1.657-1.343-3-3-3c-1.657,0-3,1.343-3,3C18,20.655,19.343,21.999,21,21.999z"/>
	</g>
</g>
<g>
</g>
<g>
</g>
<g>
</g>
<g>
</g>
<g>
</g>
<g>
</g>
<g>
</g>
<g>
</g>
<g>
</g>
<g>
</g>
<g>
</g>
<g>
</g>
<g>
</g>
<g>
</g>
<g>
</g>
</svg>
