<?xml version="1.0" encoding="iso-8859-1"?>
<!-- Generator: Adobe Illustrator 16.0.0, SVG Export Plug-In . SVG Version: 6.00 Build 0)  -->
<!DOCTYPE svg PUBLIC "-//W3C//DTD SVG 1.1//EN" "http://www.w3.org/Graphics/SVG/1.1/DTD/svg11.dtd">
<svg version="1.1" id="Layer_1" xmlns="http://www.w3.org/2000/svg" xmlns:xlink="http://www.w3.org/1999/xlink" x="0px" y="0px"
	 width="64px" height="63.979px" viewBox="0 0 64 63.979" style="enable-background:new 0 0 64 63.979;" xml:space="preserve">
<g id="Shape_49_">
	<g>
		<ellipse style="fill:#666666;" cx="32" cy="31.989" rx="32" ry="31.989"/>
	</g>
</g>
<g id="Medium_Logo">
	<g>
		<path style="fill:#FFFFFF;" d="M46.798,23.884h1.267v-3.899h-11.97l-3.979,15.08h-0.108l-3.941-15.08H16.061v3.899h1.229
			c0.506,0,0.772-0.346,0.772,0.1v18c0,0.446-0.267,0.249-0.772,0.249h-1.229v3.75h8.002v-3.999h-2l1.23-16.726h0.108l5.533,20.725
			h4.339l5.605-20.725h0.108l1.075,16.726h-2v3.999h10.002v-3.75h-1.267c-0.47,0-0.735,0.197-0.735-0.249v-16
			C46.063,25.538,46.328,23.884,46.798,23.884z"/>
	</g>
</g>
<g>
</g>
<g>
</g>
<g>
</g>
<g>
</g>
<g>
</g>
<g>
</g>
<g>
</g>
<g>
</g>
<g>
</g>
<g>
</g>
<g>
</g>
<g>
</g>
<g>
</g>
<g>
</g>
<g>
</g>
</svg>
