<?xml version="1.0" encoding="iso-8859-1"?>
<!-- Generator: Adobe Illustrator 16.0.0, SVG Export Plug-In . SVG Version: 6.00 Build 0)  -->
<!DOCTYPE svg PUBLIC "-//W3C//DTD SVG 1.1//EN" "http://www.w3.org/Graphics/SVG/1.1/DTD/svg11.dtd">
<svg version="1.1" id="Layer_1" xmlns="http://www.w3.org/2000/svg" xmlns:xlink="http://www.w3.org/1999/xlink" x="0px" y="0px"
	 width="64.003px" height="63.995px" viewBox="0 0 64.003 63.995" style="enable-background:new 0 0 64.003 63.995;"
	 xml:space="preserve">
<g id="Shape_46_">
	<g>
		<circle style="fill:#48A0DC;" cx="32.001" cy="31.998" r="31.998"/>
	</g>
</g>
<g id="My_Space_Logo">
	<g>
		<path style="fill-rule:evenodd;clip-rule:evenodd;fill:#FFFFFF;" d="M45.017,31.992c3.856,0,6.984-3.135,6.984-6.999
			c0-3.868-3.128-7.004-6.984-7.004c-3.859,0-6.987,3.136-6.987,7.004C38.029,28.857,41.157,31.992,45.017,31.992z M45.55,33.998
			c-0.046-0.006-0.095-0.01-0.143-0.013c-0.036-0.004-0.073-0.004-0.111-0.008c-0.102-0.005-0.203-0.006-0.305-0.006h-0.004h-0.006
			c-0.104,0-0.206,0.001-0.307,0.006c-0.039,0.004-0.076,0.004-0.112,0.008c-0.047,0.003-0.095,0.007-0.142,0.013
			c-3.606,0.302-6.444,3.423-6.444,6.987v2.396c0,0.341,0.285,0.619,0.638,0.619h0.226h12.291h0.226
			c0.352,0,0.638-0.278,0.638-0.619v-2.396C51.994,37.421,49.156,34.3,45.55,33.998z M29.996,31.993c3.306,0,5.988-2.68,5.988-5.982
			c0-3.305-2.683-5.984-5.988-5.984c-3.309,0-5.989,2.68-5.989,5.984C24.007,29.313,26.688,31.993,29.996,31.993z M30.479,34.027
			c-0.044-0.002-0.091-0.007-0.136-0.012c-0.037-0.002,0.052-0.003,0.016-0.006c-0.098-0.004-0.195-0.007-0.295-0.007h-0.007h-0.005
			c-0.1,0-0.197,0.003-0.296,0.007c-0.035,0.003-0.071,0.004-0.108,0.006c-0.045,0.005-0.092,0.01-0.137,0.012
			c-3.491,0.297-5.49,3.415-5.49,6.967v2.389v0.001c0,0.342,0.287,0.616,0.639,0.616h0.225h10.285h0.227
			c0.351,0,0.637-0.274,0.637-0.616v-0.001v-2.389C36.032,37.442,33.972,34.324,30.479,34.027z M15.983,33.992
			c3.312,0,5.995-2.685,5.995-5.997c0-3.314-2.684-6-5.995-6s-5.995,2.686-5.995,6C9.988,31.308,12.672,33.992,15.983,33.992z
			 M16.501,36.011c-0.042-0.004-0.082-0.007-0.122-0.009c-0.032-0.001-0.064-0.005-0.097-0.005
			c-0.088-0.006-0.174-0.006-0.261-0.006h-0.004h-0.007c-0.089,0-0.176,0-0.263,0.006c-0.032,0-0.063,0.004-0.097,0.005
			c-0.039,0.002-0.08,0.005-0.12,0.009c-3.095,0.241-5.529,2.734-5.529,5.58v1.915c0,0.271,0.245,0.494,0.546,0.494h0.194h10.547
			h0.192c0.303,0,0.548-0.224,0.548-0.494v-1.915C22.029,38.745,19.596,36.252,16.501,36.011z"/>
	</g>
</g>
<g>
</g>
<g>
</g>
<g>
</g>
<g>
</g>
<g>
</g>
<g>
</g>
<g>
</g>
<g>
</g>
<g>
</g>
<g>
</g>
<g>
</g>
<g>
</g>
<g>
</g>
<g>
</g>
<g>
</g>
</svg>
