<?xml version="1.0" encoding="iso-8859-1"?>
<!-- Generator: Adobe Illustrator 16.0.0, SVG Export Plug-In . SVG Version: 6.00 Build 0)  -->
<!DOCTYPE svg PUBLIC "-//W3C//DTD SVG 1.1//EN" "http://www.w3.org/Graphics/SVG/1.1/DTD/svg11.dtd">
<svg version="1.1" id="Layer_1" xmlns="http://www.w3.org/2000/svg" xmlns:xlink="http://www.w3.org/1999/xlink" x="0px" y="0px"
	 width="63.947px" height="64.001px" viewBox="0 0 63.947 64.001" style="enable-background:new 0 0 63.947 64.001;"
	 xml:space="preserve">
<g id="PayPal_Logo">
	<g>
		<path style="fill:#48A0DC;" d="M54.982,8.181c1.62,0.771,3.008,1.889,4.014,3.271c2.186,2.883,2.803,6.827,1.838,11.729
			c-0.995,4.917-3.184,9.083-6.313,12.11c-0.604,0.626-1.235,1.167-1.873,1.688c-3.428,2.688-7.941,5.022-12.648,5.022H26l-4,18
			l-9.035,0.006L14,56.001h2l4-18h12c11.253,0,20.919-6.758,23.451-18.557C58.274,6.083,48.697,0,40.459,0L14,0.001l-14,56h10l-2,8
			h16l4-18h12c11.257,0,20.896-7.868,23.433-19.668C65.542,16.493,60.855,10.584,54.982,8.181z M26,12.001h8
			c4.052,0,7.174,3.089,5.973,7.443c-0.999,4.342-5.789,8.557-9.973,8.557h-8L26,12.001z"/>
	</g>
</g>
<g>
</g>
<g>
</g>
<g>
</g>
<g>
</g>
<g>
</g>
<g>
</g>
<g>
</g>
<g>
</g>
<g>
</g>
<g>
</g>
<g>
</g>
<g>
</g>
<g>
</g>
<g>
</g>
<g>
</g>
</svg>
