<?xml version="1.0" encoding="iso-8859-1"?>
<!-- Generator: Adobe Illustrator 16.0.0, SVG Export Plug-In . SVG Version: 6.00 Build 0)  -->
<!DOCTYPE svg PUBLIC "-//W3C//DTD SVG 1.1//EN" "http://www.w3.org/Graphics/SVG/1.1/DTD/svg11.dtd">
<svg version="1.1" id="Layer_1" xmlns="http://www.w3.org/2000/svg" xmlns:xlink="http://www.w3.org/1999/xlink" x="0px" y="0px"
	 width="64px" height="64px" viewBox="0 0 64 64" style="enable-background:new 0 0 64 64;" xml:space="preserve">
<g id="Shape_14_">
	<g>
		<path style="fill:#48A0DC;" d="M60,0H4C1.791,0,0,1.79,0,4v56c0,2.209,1.791,4,4,4h56c2.209,0,4-1.791,4-4V4
			C64,1.79,62.209,0,60,0z"/>
	</g>
</g>
<g id="Photoshop_Logo">
	<g>
		<path style="fill-rule:evenodd;clip-rule:evenodd;fill:#FFFFFF;" d="M31.233,20.229c-1.693-1.461-4.292-2.232-7.835-2.232
			c-3.268,0-5.67,0.243-7.402,0.568L16,46h5V35.63c0.63,0.121,1.094,0,2,0c3.426,0,6.619-1.153,8.548-3.143
			C33.044,31.025,34,28.895,34,26.296C34,23.738,32.808,21.568,31.233,20.229z M23.162,31.513c-0.984,0-1.57,0.131-2.162-0.032
			v-9.332c0.512-0.123,1.662,0,3,0c3.347,0,4.989,1.286,4.989,4.331C28.989,29.687,26.784,31.513,23.162,31.513z M42.886,33.744
			c-2.442-0.893-3.347-1.501-3.347-2.76c0-1.217,0.945-2.07,2.678-2.07c1.692,0,3.229,0.649,4.056,1.138l0.944-3.532
			c-1.102-0.609-2.953-1.177-5.079-1.177c-4.449,0-7.246,2.72-7.246,6.21c-0.039,2.313,1.536,4.425,5.277,5.764
			c2.362,0.853,3.149,1.543,3.149,2.883c0,1.299-0.945,2.191-3.071,2.191c-1.732,0-3.819-0.729-4.922-1.42l-0.945,3.612
			c1.417,0.812,3.504,1.421,5.827,1.421c5.08,0,7.797-2.639,7.797-6.211C47.965,36.871,46.351,35.044,42.886,33.744z"/>
	</g>
</g>
<g>
</g>
<g>
</g>
<g>
</g>
<g>
</g>
<g>
</g>
<g>
</g>
<g>
</g>
<g>
</g>
<g>
</g>
<g>
</g>
<g>
</g>
<g>
</g>
<g>
</g>
<g>
</g>
<g>
</g>
</svg>
