<?xml version="1.0" encoding="iso-8859-1"?>
<!-- Generator: Adobe Illustrator 16.0.0, SVG Export Plug-In . SVG Version: 6.00 Build 0)  -->
<!DOCTYPE svg PUBLIC "-//W3C//DTD SVG 1.1//EN" "http://www.w3.org/Graphics/SVG/1.1/DTD/svg11.dtd">
<svg version="1.1" id="Layer_1" xmlns="http://www.w3.org/2000/svg" xmlns:xlink="http://www.w3.org/1999/xlink" x="0px" y="0px"
	 width="64px" height="63.999px" viewBox="0 0 64 63.999" style="enable-background:new 0 0 64 63.999;" xml:space="preserve">
<g id="Shape_20_">
	<g>
		<circle style="fill:#666666;" cx="32" cy="32" r="32"/>
	</g>
</g>
<g id="Picasa_Logo">
	<g>
		<path style="fill-rule:evenodd;clip-rule:evenodd;fill:#FFFFFF;" d="M40.016,18.25C37.742,17.017,34.766,16,32,16
			c-1.609,0-3.172,0.235-4.633,0.688l12.648,12.984V18.25z M26.023,17.172C20.148,19.531,16,25.281,16,32
			c0,0.97,0.102,1.905,0.266,2.828l15.117-11.985L26.023,17.172z M41.008,18.734v20.234h5.258C47.367,36.797,48,34.609,48,32
			C48,26.484,45.266,21.609,41.008,18.734z M23.992,45.578V30.922l-7.406,5.313C17.641,40.063,20.75,43.469,23.992,45.578z
			 M29.992,40.001h-1.68h-3.328v6.187C27.195,47.345,29.336,48,32,48c5.695,0,10.844-3.516,13.68-7.999h-5.305H29.992z"/>
	</g>
</g>
<g>
</g>
<g>
</g>
<g>
</g>
<g>
</g>
<g>
</g>
<g>
</g>
<g>
</g>
<g>
</g>
<g>
</g>
<g>
</g>
<g>
</g>
<g>
</g>
<g>
</g>
<g>
</g>
<g>
</g>
</svg>
