<?xml version="1.0" encoding="iso-8859-1"?>
<!-- Generator: Adobe Illustrator 16.0.0, SVG Export Plug-In . SVG Version: 6.00 Build 0)  -->
<!DOCTYPE svg PUBLIC "-//W3C//DTD SVG 1.1//EN" "http://www.w3.org/Graphics/SVG/1.1/DTD/svg11.dtd">
<svg version="1.1" id="Layer_1" xmlns="http://www.w3.org/2000/svg" xmlns:xlink="http://www.w3.org/1999/xlink" x="0px" y="0px"
	 width="64px" height="63.999px" viewBox="0 0 64 63.999" style="enable-background:new 0 0 64 63.999;" xml:space="preserve">
<g id="Shape_71_">
	<g>
		<circle style="fill:#ED7161;" cx="32" cy="32" r="32"/>
	</g>
</g>
<g id="Pinterest_Logo">
	<g>
		<path style="fill:#FFFFFF;" d="M33.787,18.009c-9.16,0-13.779,6.264-13.779,11.486c0,3.163,1.255,5.976,3.947,7.025
			c0.442,0.171,0.838,0.006,0.966-0.46c0.089-0.323,0.3-1.138,0.394-1.477c0.129-0.461,0.08-0.622-0.277-1.025
			c-0.776-0.872-1.272-2.003-1.272-3.605c0-4.646,3.646-8.807,9.492-8.807c5.178,0,8.022,3.017,8.022,7.046
			c0,5.303-2.461,9.778-6.112,9.778c-2.017,0-3.527-1.591-3.043-3.544c0.579-2.328,1.702-4.842,1.702-6.524
			c0-1.504-0.848-2.76-2.601-2.76c-2.062,0-3.718,2.035-3.718,4.76c0,1.735,0.614,2.909,0.614,2.909s-2.109,8.527-2.479,10.021
			c-0.736,2.974-0.11,6.619-0.058,6.986c0.031,0.219,0.325,0.271,0.458,0.105c0.189-0.236,2.646-3.128,3.48-6.018
			c0.236-0.818,1.356-5.056,1.356-5.056c0.67,1.22,2.628,2.292,4.71,2.292c6.197,0,10.402-5.388,10.402-12.602
			C45.992,23.089,41.148,18.009,33.787,18.009z"/>
	</g>
</g>
<g>
</g>
<g>
</g>
<g>
</g>
<g>
</g>
<g>
</g>
<g>
</g>
<g>
</g>
<g>
</g>
<g>
</g>
<g>
</g>
<g>
</g>
<g>
</g>
<g>
</g>
<g>
</g>
<g>
</g>
</svg>
