<?xml version="1.0" encoding="iso-8859-1"?>
<!-- Generator: Adobe Illustrator 16.0.0, SVG Export Plug-In . SVG Version: 6.00 Build 0)  -->
<!DOCTYPE svg PUBLIC "-//W3C//DTD SVG 1.1//EN" "http://www.w3.org/Graphics/SVG/1.1/DTD/svg11.dtd">
<svg version="1.1" id="Layer_1" xmlns="http://www.w3.org/2000/svg" xmlns:xlink="http://www.w3.org/1999/xlink" x="0px" y="0px"
	 width="64px" height="64.001px" viewBox="0 0 64 64.001" style="enable-background:new 0 0 64 64.001;" xml:space="preserve">
<g id="Shape_32_">
	<g>
		<circle style="fill:#666666;" cx="32" cy="32" r="32"/>
	</g>
</g>
<g id="Playstation_Logo">
	<g>
		<path style="fill:#FFFFFF;" d="M24,36.001l0.422-0.189L24,35.953V36.001z M14.584,35.338c0,0-2.379,0.767-3.779,1.784
			c-1.515,1.104-0.956,3.011,2.362,3.924c3.563,1.157,7.181,1.38,10.577,0.838c0.221-0.039,0.037,0.151,0.256,0.118v-4.001
			l-2.726,1.277c-1.251,0.446-3.095,0.537-4.111,0.208c-1.015-0.328-0.827-0.947,0.428-1.388L24,35.953v-3.952L14.584,35.338z
			 M36,24v8.001c4.552,2.031,8.129-0.802,8.129-6.175c0-5.508-2.106-7.313-8.304-9.276c-2.438-0.759-6.719-2.019-9.825-2.549v30l8,2
			v-24c0-1.178,0.048-1.88,0.953-1.608C36.154,20.698,36,22.828,36,24z M49.049,35.687c-2.694-1.042-5.51-1.398-8.53-1.085
			C37.502,34.918,36,36.001,36,36.001v4l5.781-2.628c1.17-0.433,2.901-0.531,3.855-0.209c0.953,0.323,0.772,0.934-0.402,1.357
			L36,42.002v3.999l12.992-5.177c0,0,1.891-0.71,2.667-1.705C52.43,38.12,52.086,36.674,49.049,35.687z"/>
	</g>
</g>
<g>
</g>
<g>
</g>
<g>
</g>
<g>
</g>
<g>
</g>
<g>
</g>
<g>
</g>
<g>
</g>
<g>
</g>
<g>
</g>
<g>
</g>
<g>
</g>
<g>
</g>
<g>
</g>
<g>
</g>
</svg>
