<?xml version="1.0" encoding="iso-8859-1"?>
<!-- Generator: Adobe Illustrator 16.0.0, SVG Export Plug-In . SVG Version: 6.00 Build 0)  -->
<!DOCTYPE svg PUBLIC "-//W3C//DTD SVG 1.1//EN" "http://www.w3.org/Graphics/SVG/1.1/DTD/svg11.dtd">
<svg version="1.1" id="Layer_1" xmlns="http://www.w3.org/2000/svg" xmlns:xlink="http://www.w3.org/1999/xlink" x="0px" y="0px"
	 width="64px" height="64px" viewBox="0 0 64 64" style="enable-background:new 0 0 64 64;" xml:space="preserve">
<g id="Shape">
	<g>
		<path style="fill:#48A0DC;" d="M60,0H4C1.791,0,0,1.791,0,4v56c0,2.209,1.791,4,4,4h56c2.209,0,4-1.791,4-4V4
			C64,1.791,62.209,0,60,0z"/>
	</g>
</g>
<g id="Prelude_Logo">
	<g>
		<path style="fill-rule:evenodd;clip-rule:evenodd;fill:#FFFFFF;" d="M34.052,21.39c-1.783-1.42-4.52-2.169-8.252-2.169
			c-3.442,0-5.972,0.236-7.797,0.551v26.23h5.06V35.984c0.664,0.119,1.535,0.157,2.488,0.157c3.608,0,6.801-0.906,8.833-2.84
			c1.576-1.42,2.405-3.511,2.405-6.036C36.789,24.782,35.711,22.69,34.052,21.39z M25.551,32.355c-1.037,0-1.865-0.04-2.488-0.198
			v-8.993c0.54-0.117,1.535-0.235,2.944-0.235c3.525,0,5.682,1.577,5.682,4.535C31.688,30.58,29.366,32.355,25.551,32.355z
			 M40.854,17.997v28.005h5.144V17.997H40.854z"/>
	</g>
</g>
<g>
</g>
<g>
</g>
<g>
</g>
<g>
</g>
<g>
</g>
<g>
</g>
<g>
</g>
<g>
</g>
<g>
</g>
<g>
</g>
<g>
</g>
<g>
</g>
<g>
</g>
<g>
</g>
<g>
</g>
</svg>
