<?xml version="1.0" encoding="iso-8859-1"?>
<!-- Generator: Adobe Illustrator 16.0.0, SVG Export Plug-In . SVG Version: 6.00 Build 0)  -->
<!DOCTYPE svg PUBLIC "-//W3C//DTD SVG 1.1//EN" "http://www.w3.org/Graphics/SVG/1.1/DTD/svg11.dtd">
<svg version="1.1" id="Layer_1" xmlns="http://www.w3.org/2000/svg" xmlns:xlink="http://www.w3.org/1999/xlink" x="0px" y="0px"
	 width="64px" height="64px" viewBox="0 0 64 64" style="enable-background:new 0 0 64 64;" xml:space="preserve">
<g id="Shape_6_">
	<g>
		<path style="fill:#9B7CAB;" d="M60,0H4C1.791,0,0,1.79,0,4v56c0,2.209,1.791,4,4,4h56c2.209,0,4-1.791,4-4V4
			C64,1.79,62.209,0,60,0z"/>
	</g>
</g>
<g id="Premier_Logo">
	<g>
		<path style="fill-rule:evenodd;clip-rule:evenodd;fill:#FFFFFF;" d="M32.144,20.268c-1.793-1.483-4.547-2.269-8.301-2.269
			c-3.462,0-6.007,0.249-7.843,0.577V46h5.089V35.526c0.668,0.124,1.543,0.165,2.504,0.165c3.628,0,6.841-0.949,8.885-2.97
			c1.585-1.485,2.42-3.671,2.42-6.31C34.898,23.814,33.813,21.629,32.144,20.268z M23.593,31.732c-1.044,0-1.878-0.042-2.504-0.207
			v-9.402c0.543-0.123,1.543-0.247,2.962-0.247c3.545,0,5.715,1.649,5.715,4.743C29.767,29.876,27.431,31.732,23.593,31.732z
			 M48.79,25.465c-2.169,0-4.547,1.443-5.548,4.287h-0.168l-0.166-3.834h-4.463c0.125,1.814,0.167,3.752,0.167,6.474V46h5.131
			V35.609c0-0.578,0.083-1.114,0.167-1.568c0.459-2.268,2.128-3.834,4.588-3.834c0.626,0,1.085,0.082,1.502,0.164v-4.785
			C49.583,25.506,49.291,25.465,48.79,25.465z"/>
	</g>
</g>
<g>
</g>
<g>
</g>
<g>
</g>
<g>
</g>
<g>
</g>
<g>
</g>
<g>
</g>
<g>
</g>
<g>
</g>
<g>
</g>
<g>
</g>
<g>
</g>
<g>
</g>
<g>
</g>
<g>
</g>
</svg>
