<?xml version="1.0" encoding="iso-8859-1"?>
<!-- Generator: Adobe Illustrator 16.0.0, SVG Export Plug-In . SVG Version: 6.00 Build 0)  -->
<!DOCTYPE svg PUBLIC "-//W3C//DTD SVG 1.1//EN" "http://www.w3.org/Graphics/SVG/1.1/DTD/svg11.dtd">
<svg version="1.1" id="Layer_1" xmlns="http://www.w3.org/2000/svg" xmlns:xlink="http://www.w3.org/1999/xlink" x="0px" y="0px"
	 width="64px" height="64px" viewBox="0 0 64 64" style="enable-background:new 0 0 64 64;" xml:space="preserve">
<g id="Shape_41_">
	<g>
		<circle style="fill:#48A0DC;" cx="32" cy="32" r="32"/>
	</g>
</g>
<g id="Rdio_Logo">
	<g>
		<path style="fill:#FFFFFF;" d="M47.284,25.869c-1.194-0.016-3.701-0.354-7.044-2.155c-1.983-1.068-2.994-1.712-3.49-1.98
			c-0.145-0.081-0.712-0.161-0.712-0.238L36.007,32.48c0,2.424-1.608,4.9-4.472,5.979c-3.527,1.328-7.244,0.037-8.263-2.875
			c-0.938-2.681,0.725-5.808,3.746-7.324c0.033-0.038,3.429-1.623,6.964-0.229l0.061-7.424c-1.087-0.339-2.958-0.614-4.299-0.614
			c-7.58,0-13.741,5.821-13.741,13.001c0,7.181,6.138,13.002,13.719,13.002c7.58,0,14.399-5.821,14.399-13.002
			c0-0.597,0.047-1.185,0.047-1.76v0.001c0,0,1.704-0.819,2.648-2.147c0.943-1.328,0.965-1.515,0.965-1.515
			S48.479,25.885,47.284,25.869z"/>
	</g>
</g>
<g>
</g>
<g>
</g>
<g>
</g>
<g>
</g>
<g>
</g>
<g>
</g>
<g>
</g>
<g>
</g>
<g>
</g>
<g>
</g>
<g>
</g>
<g>
</g>
<g>
</g>
<g>
</g>
<g>
</g>
</svg>
