<?xml version="1.0" encoding="iso-8859-1"?>
<!-- Generator: Adobe Illustrator 16.0.0, SVG Export Plug-In . SVG Version: 6.00 Build 0)  -->
<!DOCTYPE svg PUBLIC "-//W3C//DTD SVG 1.1//EN" "http://www.w3.org/Graphics/SVG/1.1/DTD/svg11.dtd">
<svg version="1.1" id="Layer_1" xmlns="http://www.w3.org/2000/svg" xmlns:xlink="http://www.w3.org/1999/xlink" x="0px" y="0px"
	 width="64px" height="64px" viewBox="0 0 64 64" style="enable-background:new 0 0 64 64;" xml:space="preserve">
<g id="Shape_23_">
	<g>
		<circle style="fill:#ED7161;" cx="32" cy="32" r="32"/>
	</g>
</g>
<g id="Reddit_Logo">
	<g>
		<path style="fill:#FFFFFF;" d="M27.5,34.272c0-1.264-1.008-2.286-2.249-2.286c-1.243,0-2.249,1.022-2.249,2.286
			c0,1.261,1.006,2.284,2.249,2.284C26.492,36.557,27.5,35.533,27.5,34.272z M36.603,39.156c-0.928,0.742-2.765,1.544-4.606,1.544
			c-1.841,0-3.678-0.802-4.605-1.544c-0.58-0.464-1.42-0.362-1.875,0.227c-0.457,0.588-0.357,1.441,0.221,1.904
			c1.613,1.291,4.07,2.127,6.26,2.127s4.646-0.836,6.26-2.127c0.578-0.463,0.679-1.316,0.223-1.904
			C38.021,38.794,37.182,38.692,36.603,39.156z M38.742,31.986c-1.243,0-2.248,1.022-2.248,2.286c0,1.261,1.005,2.284,2.248,2.284
			c1.241,0,2.248-1.023,2.248-2.284C40.99,33.009,39.983,31.986,38.742,31.986z M49.984,29.7c0-2.524-2.014-4.571-4.497-4.571
			c-1.689,0-3.161,0.949-3.929,2.35c-2.313-1.285-5.129-2.115-8.196-2.306l2.684-6.127l5.136,1.508
			c0.462,1.333,1.712,2.289,3.182,2.289c1.863,0,3.373-1.534,3.373-3.428c0-1.895-1.51-3.429-3.373-3.429
			c-1.284,0-2.401,0.729-2.971,1.804l-5.725-1.68c-0.639-0.187-1.317,0.134-1.59,0.751l-3.645,8.323
			c-2.991,0.214-5.736,1.037-7.998,2.294c-0.768-1.4-2.24-2.35-3.931-2.35c-2.483,0-4.497,2.047-4.497,4.571
			c0,1.867,1.104,3.474,2.684,4.182c-0.284,0.858-0.435,1.754-0.435,2.675c0,6.312,7.046,11.43,15.739,11.43
			c8.692,0,15.74-5.118,15.74-11.43c0-0.921-0.15-1.816-0.435-2.674C48.88,33.174,49.984,31.567,49.984,29.7z M44.363,18.13
			c0.698,0,1.265,0.573,1.265,1.285c0,0.709-0.566,1.285-1.265,1.285s-1.265-0.576-1.265-1.285
			C43.099,18.703,43.665,18.13,44.363,18.13z M16.257,29.7c0-1.26,1.009-2.285,2.248-2.285c0.896,0,1.673,0.535,2.031,1.308
			c-1.173,0.905-2.147,1.952-2.867,3.097C16.841,31.481,16.257,30.659,16.257,29.7z M31.996,45.271
			c-7.219,0-13.069-3.903-13.069-8.715c0-4.813,5.851-8.714,13.069-8.714s13.07,3.901,13.07,8.714
			C45.066,41.368,39.215,45.271,31.996,45.271z M46.324,31.819c-0.721-1.145-1.694-2.191-2.869-3.097
			c0.361-0.772,1.137-1.308,2.032-1.308c1.239,0,2.249,1.025,2.249,2.285C47.736,30.659,47.151,31.481,46.324,31.819z"/>
	</g>
</g>
<g>
</g>
<g>
</g>
<g>
</g>
<g>
</g>
<g>
</g>
<g>
</g>
<g>
</g>
<g>
</g>
<g>
</g>
<g>
</g>
<g>
</g>
<g>
</g>
<g>
</g>
<g>
</g>
<g>
</g>
</svg>
