<?xml version="1.0" encoding="iso-8859-1"?>
<!-- Generator: Adobe Illustrator 16.0.0, SVG Export Plug-In . SVG Version: 6.00 Build 0)  -->
<!DOCTYPE svg PUBLIC "-//W3C//DTD SVG 1.1//EN" "http://www.w3.org/Graphics/SVG/1.1/DTD/svg11.dtd">
<svg version="1.1" id="Layer_1" xmlns="http://www.w3.org/2000/svg" xmlns:xlink="http://www.w3.org/1999/xlink" x="0px" y="0px"
	 width="64.003px" height="63.995px" viewBox="0 0 64.003 63.995" style="enable-background:new 0 0 64.003 63.995;"
	 xml:space="preserve">
<g id="Shape_54_">
	<g>
		<circle style="fill:#FFCC66;" cx="32.002" cy="31.998" r="31.998"/>
	</g>
</g>
<g id="RSS_Icon">
	<g>
		<path style="fill-rule:evenodd;clip-rule:evenodd;fill:#FFFFFF;" d="M24.005,35.99c-2.211,0-4.004,1.791-4.004,4.003
			s1.793,4.004,4.004,4.004c2.212,0,4.004-1.792,4.004-4.004S26.217,35.99,24.005,35.99z M22.822,26
			c-1.554,0-2.813,1.26-2.813,2.813c0,1.554,1.259,2.813,2.813,2.813c5.272,0,9.562,4.29,9.562,9.562
			c0,1.554,1.26,2.813,2.813,2.813c1.554,0,2.813-1.259,2.813-2.813C38.009,32.813,31.196,26,22.822,26z M22.875,16
			c-1.589,0-2.877,1.288-2.877,2.876c0,1.589,1.288,2.877,2.877,2.877c10.683,0,19.372,8.689,19.372,19.37
			c0,1.589,1.288,2.876,2.877,2.876s2.878-1.287,2.878-2.876C48.002,27.269,36.729,16,22.875,16z"/>
	</g>
</g>
<g>
</g>
<g>
</g>
<g>
</g>
<g>
</g>
<g>
</g>
<g>
</g>
<g>
</g>
<g>
</g>
<g>
</g>
<g>
</g>
<g>
</g>
<g>
</g>
<g>
</g>
<g>
</g>
<g>
</g>
</svg>
