<?xml version="1.0" encoding="iso-8859-1"?>
<!-- Generator: Adobe Illustrator 16.0.0, SVG Export Plug-In . SVG Version: 6.00 Build 0)  -->
<!DOCTYPE svg PUBLIC "-//W3C//DTD SVG 1.1//EN" "http://www.w3.org/Graphics/SVG/1.1/DTD/svg11.dtd">
<svg version="1.1" id="Layer_1" xmlns="http://www.w3.org/2000/svg" xmlns:xlink="http://www.w3.org/1999/xlink" x="0px" y="0px"
	 width="64px" height="63.999px" viewBox="0 0 64 63.999" style="enable-background:new 0 0 64 63.999;" xml:space="preserve">
<g id="Shape_22_">
	<g>
		<circle style="fill:#88C057;" cx="32" cy="32" r="32"/>
	</g>
</g>
<g id="Shopify_Logo">
	<g>
		<path style="fill:#FFFFFF;" d="M44.049,19.47c0,0-0.029-0.171-0.122-0.233c-0.092-0.063-0.193-0.074-0.193-0.074l-2.909-0.228
			l-2.141-2.231C38.604,16.638,38.096,16.02,38,16l-0.034,0.569c-0.131,0.004-0.246,0.02-0.281,0.028l-1.11,0.36
			c-0.481-1.494-1.141-2.558-1.968-3.172c-0.542-0.403-1.132-0.604-1.763-0.604c-0.08,0-0.169,0.047-0.25,0.054
			c-0.154-0.218-0.31-0.432-0.497-0.59c-0.802-0.682-1.838-0.787-3.076-0.315c-3.715,1.415-5.291,6.463-5.858,8.985l-3.237,1.052
			c0,0-0.762,0.227-0.941,0.451c-0.196,0.248-0.234,0.914-0.234,0.914l-2.745,22.212l20.001,3.933L36,50l0.307-0.064l0.308,0.06
			l0.006-0.127l11.374-2.407L44.049,19.47z M32.444,18.301l-3.566,1.158c0.472-1.939,1.385-3.903,3.112-4.686
			C32.35,15.77,32.455,17.104,32.444,18.301z M29.445,13.556c0.756-0.288,1.323-0.248,1.76,0.061
			c-2.315,1.125-3.337,3.91-3.775,6.313l-2.864,0.93C25.206,18.434,26.629,14.629,29.445,13.556z M22.793,22.48
			c0.049-0.142,0.121-0.263,0.205-0.368c-0.066,0.355-0.102,0.597-0.109,0.649c-0.049,0.356,0.187,0.686,0.527,0.738
			c0.03,0.004,0.06,0.007,0.089,0.007c0.304,0,0.569-0.234,0.614-0.56c0.002-0.015,0.042-0.289,0.13-0.729
			c0.111,0.242,0.153,0.532,0.046,0.838c-0.186,0.533-0.673,0.836-1.087,0.677C22.793,23.573,22.607,23.013,22.793,22.48z
			 M31.449,29.927c-0.164-0.084-0.357-0.172-0.576-0.258c-0.217-0.084-0.458-0.166-0.721-0.232c-0.259-0.066-0.538-0.12-0.833-0.152
			c-0.291-0.031-0.597-0.041-0.914-0.022c-0.291,0.018-0.555,0.072-0.787,0.159c-0.23,0.086-0.429,0.205-0.594,0.353
			c-0.164,0.146-0.293,0.321-0.385,0.523c-0.091,0.2-0.144,0.426-0.154,0.679c-0.008,0.185,0.02,0.363,0.082,0.537
			s0.16,0.344,0.292,0.513c0.133,0.17,0.302,0.339,0.507,0.513c0.207,0.173,0.45,0.35,0.731,0.535
			c0.394,0.265,0.796,0.563,1.179,0.904c0.388,0.348,0.756,0.739,1.072,1.186c0.32,0.451,0.585,0.958,0.765,1.524
			c0.181,0.572,0.272,1.204,0.243,1.899c-0.047,1.136-0.284,2.116-0.677,2.928c-0.388,0.804-0.923,1.435-1.568,1.891
			c-0.63,0.447-1.361,0.725-2.155,0.835c-0.771,0.108-1.599,0.061-2.452-0.137l-0.02-0.005l-0.02-0.004l-0.021-0.006l-0.02-0.005
			c-0.4-0.102-0.786-0.233-1.149-0.387c-0.357-0.152-0.693-0.325-0.998-0.512c-0.301-0.184-0.574-0.382-0.81-0.586
			c-0.234-0.202-0.433-0.412-0.588-0.622l0.941-3.275c0.158,0.141,0.353,0.301,0.574,0.464c0.223,0.165,0.474,0.334,0.744,0.491
			c0.272,0.159,0.563,0.308,0.862,0.428c0.303,0.122,0.614,0.216,0.923,0.264c0.273,0.042,0.517,0.033,0.73-0.017
			c0.215-0.052,0.398-0.146,0.548-0.272c0.151-0.129,0.268-0.291,0.35-0.478c0.082-0.188,0.128-0.398,0.137-0.623
			c0.009-0.226-0.01-0.438-0.064-0.644c-0.054-0.206-0.142-0.405-0.269-0.605c-0.126-0.199-0.291-0.399-0.499-0.605
			c-0.206-0.205-0.453-0.417-0.746-0.642c-0.359-0.28-0.697-0.585-1-0.918c-0.298-0.327-0.563-0.683-0.78-1.067
			c-0.215-0.382-0.384-0.794-0.494-1.242c-0.108-0.446-0.159-0.929-0.138-1.455c0.037-0.879,0.205-1.688,0.485-2.419
			c0.283-0.737,0.685-1.399,1.188-1.969c0.514-0.58,1.138-1.07,1.858-1.448c0.74-0.389,1.587-0.66,2.525-0.789
			c0.435-0.061,0.853-0.089,1.248-0.09c0.401-0.002,0.778,0.022,1.125,0.069c0.351,0.048,0.671,0.116,0.955,0.199
			c0.287,0.085,0.534,0.187,0.739,0.296L31.449,29.927z M33.699,20.789c-0.186,0.534-0.673,0.837-1.087,0.678
			c-0.415-0.159-0.601-0.72-0.415-1.254c0.042-0.121,0.104-0.228,0.173-0.321c-0.019,0.205-0.038,0.401-0.058,0.556
			c-0.047,0.357,0.19,0.686,0.53,0.735s0.654-0.2,0.701-0.556c0.003-0.024,0.037-0.318,0.07-0.72
			C33.749,20.156,33.813,20.459,33.699,20.789z M33.68,17.898c-0.002-0.153,0.003-0.292-0.002-0.45
			c-0.041-1.147-0.191-2.109-0.441-2.898c0.27,0.033,0.533,0.084,0.758,0.25c0.647,0.48,1.106,1.452,1.434,2.531L33.68,17.898z"/>
	</g>
</g>
<g>
</g>
<g>
</g>
<g>
</g>
<g>
</g>
<g>
</g>
<g>
</g>
<g>
</g>
<g>
</g>
<g>
</g>
<g>
</g>
<g>
</g>
<g>
</g>
<g>
</g>
<g>
</g>
<g>
</g>
</svg>
