<?xml version="1.0" encoding="iso-8859-1"?>
<!-- Generator: Adobe Illustrator 16.0.0, SVG Export Plug-In . SVG Version: 6.00 Build 0)  -->
<!DOCTYPE svg PUBLIC "-//W3C//DTD SVG 1.1//EN" "http://www.w3.org/Graphics/SVG/1.1/DTD/svg11.dtd">
<svg version="1.1" id="Layer_1" xmlns="http://www.w3.org/2000/svg" xmlns:xlink="http://www.w3.org/1999/xlink" x="0px" y="0px"
	 width="64px" height="64px" viewBox="0 0 64 64" style="enable-background:new 0 0 64 64;" xml:space="preserve">
<g id="Shape_26_">
	<g>
		<circle style="fill:#48A0DC;" cx="32" cy="32" r="32"/>
	</g>
</g>
<g id="Skype_Logo">
	<g>
		<path style="fill-rule:evenodd;clip-rule:evenodd;fill:#FFFFFF;" d="M48.966,35.816c0.259-1.175,0.396-2.387,0.396-3.635
			c0-9.35-7.687-16.931-17.17-16.931c-1.001,0-1.981,0.087-2.937,0.247c-1.534-0.952-3.351-1.508-5.297-1.508
			c-5.5,0-9.958,4.397-9.958,9.821c0,1.812,0.5,3.508,1.368,4.967c-0.229,1.099-0.347,2.238-0.347,3.403
			c0,9.353,7.687,16.65,17.17,16.65c1.074,0,2.125-0.099,3.143-0.283c1.403,0.742,3.006,1.446,4.708,1.446
			c5.5,0,9.957-4.396,9.957-9.82C50,38.609,49.627,37.13,48.966,35.816z M39.073,39.005c-0.628,0.931-1.547,1.661-2.758,2.185
			c-1.21,0.53-2.645,0.792-4.304,0.792c-1.989,0-3.63-0.357-4.924-1.079c-0.915-0.518-1.66-1.211-2.233-2.076
			c-0.572-0.864-0.859-1.707-0.859-2.525c0-0.473,0.171-0.88,0.516-1.216c0.344-0.34,0.781-0.509,1.313-0.509
			c0.431,0,0.797,0.13,1.094,0.396c0.299,0.264,0.554,0.653,0.763,1.172c0.258,0.616,0.534,1.13,0.833,1.543
			c0.297,0.412,0.718,0.754,1.257,1.021c0.541,0.267,1.253,0.401,2.132,0.401c1.21,0,2.193-0.269,2.95-0.81
			c0.756-0.539,1.136-1.215,1.136-2.023c0-0.641-0.205-1.163-0.612-1.561c-0.408-0.4-0.936-0.705-1.582-0.916
			c-0.646-0.213-1.51-0.437-2.594-0.673c-1.447-0.324-2.66-0.706-3.636-1.14c-0.976-0.436-1.751-1.028-2.323-1.778
			c-0.574-0.753-0.859-1.688-0.859-2.802c0-1.064,0.301-2.008,0.907-2.834c0.604-0.825,1.479-1.461,2.627-1.904
			c1.146-0.444,2.493-0.665,4.042-0.665c1.237,0,2.309,0.147,3.211,0.44c0.903,0.296,1.651,0.687,2.247,1.174
			c0.597,0.488,1.033,1,1.307,1.536c0.275,0.533,0.413,1.06,0.413,1.565c0,0.467-0.172,0.889-0.516,1.262
			c-0.344,0.371-0.771,0.561-1.285,0.561c-0.469,0-0.824-0.114-1.066-0.337c-0.243-0.224-0.507-0.592-0.79-1.102
			c-0.368-0.729-0.806-1.298-1.321-1.706c-0.514-0.408-1.338-0.613-2.475-0.613c-1.053,0-1.904,0.221-2.55,0.666
			c-0.647,0.441-0.97,0.977-0.97,1.602c0,0.385,0.111,0.72,0.33,1.002c0.219,0.281,0.521,0.521,0.908,0.724
			c0.383,0.201,0.773,0.359,1.167,0.476c0.395,0.114,1.045,0.28,1.954,0.5c1.136,0.255,2.164,0.537,3.086,0.843
			c0.921,0.309,1.705,0.683,2.352,1.12c0.646,0.44,1.151,0.997,1.513,1.67c0.362,0.669,0.544,1.493,0.544,2.47
			C40.016,37.023,39.7,38.073,39.073,39.005z"/>
	</g>
</g>
<g>
</g>
<g>
</g>
<g>
</g>
<g>
</g>
<g>
</g>
<g>
</g>
<g>
</g>
<g>
</g>
<g>
</g>
<g>
</g>
<g>
</g>
<g>
</g>
<g>
</g>
<g>
</g>
<g>
</g>
</svg>
