<?xml version="1.0" encoding="iso-8859-1"?>
<!-- Generator: Adobe Illustrator 16.0.0, SVG Export Plug-In . SVG Version: 6.00 Build 0)  -->
<!DOCTYPE svg PUBLIC "-//W3C//DTD SVG 1.1//EN" "http://www.w3.org/Graphics/SVG/1.1/DTD/svg11.dtd">
<svg version="1.1" id="Layer_1" xmlns="http://www.w3.org/2000/svg" xmlns:xlink="http://www.w3.org/1999/xlink" x="0px" y="0px"
	 width="64px" height="63.999px" viewBox="0 0 64 63.999" style="enable-background:new 0 0 64 63.999;" xml:space="preserve">
<g id="Shape_21_">
	<g>
		<circle style="fill:#ED7161;" cx="32" cy="32" r="32"/>
	</g>
</g>
<g id="Smashing_Magazine_Logo">
	<g>
		<path style="fill:#FFFFFF;" d="M30.202,34.235c-4.251-1.605-7.821-4.472-8.059-8.206c-0.151-2.381,0.448-4.462,1.999-6.212
			l-6.325,1.51c-1.271,0.305-2.055,1.58-1.752,2.852l5.263,22.005c0.305,1.271,1.58,2.055,2.851,1.75l2.708-0.647
			c-1.049-0.348-2.867-1.012-4.609-1.941l2.525-5.727c0,0,2.969,2.646,7.235,2.646S38.202,37.259,30.202,34.235z M47.934,39.821
			l-5.26-22.005c-0.305-1.271-1.581-2.054-2.853-1.75L35.29,17.15c1.157,0.183,3.442,0.683,5.965,2.006l-1.974,5.471
			c0,0-1.643-1.834-6.046-2.058c-4.187-0.212-6.517,4.316,1.649,6.986c6.252,2.044,8.252,5.986,8.148,9.628
			c-0.055,1.896-0.719,3.438-1.486,4.599l4.639-1.107C47.454,42.369,48.238,41.093,47.934,39.821z"/>
	</g>
</g>
<g>
</g>
<g>
</g>
<g>
</g>
<g>
</g>
<g>
</g>
<g>
</g>
<g>
</g>
<g>
</g>
<g>
</g>
<g>
</g>
<g>
</g>
<g>
</g>
<g>
</g>
<g>
</g>
<g>
</g>
</svg>
