<?xml version="1.0" encoding="iso-8859-1"?>
<!-- Generator: Adobe Illustrator 16.0.0, SVG Export Plug-In . SVG Version: 6.00 Build 0)  -->
<!DOCTYPE svg PUBLIC "-//W3C//DTD SVG 1.1//EN" "http://www.w3.org/Graphics/SVG/1.1/DTD/svg11.dtd">
<svg version="1.1" id="Layer_1" xmlns="http://www.w3.org/2000/svg" xmlns:xlink="http://www.w3.org/1999/xlink" x="0px" y="0px"
	 width="64px" height="64.001px" viewBox="0 0 64 64.001" style="enable-background:new 0 0 64 64.001;" xml:space="preserve">
<g id="Shape_45_">
	<g>
		<circle style="fill:#ED7161;" cx="32" cy="32" r="32"/>
	</g>
</g>
<g id="Sound_Cloud_Logo">
	<g>
		<path style="fill-rule:evenodd;clip-rule:evenodd;fill:#FFFFFF;" d="M24,26v14h2V24C25.063,24.265,24.717,25.368,24,26z
			 M16,30.001V40c0.055,0.003,1.119,0.016,1.174,0.016L18,40v-9.999l-0.826-0.65C17.119,29.351,16.055,29.997,16,30.001z
			 M12.013,34.684c0,1.935,0.494,4.382,1.987,5.316v-9.999C12.507,30.935,12.013,32.748,12.013,34.684z M28,24v16h2V24
			C29.252,23.533,28.906,24.118,28,24z M46.853,29.351h-1.406c0.071-0.436,0.116-0.878,0.116-1.333c0-4.419-3.466-8.001-7.743-8.001
			c-2.321,0-4.388,1.071-5.806,2.743v17.256h14.839c2.851,0,5.161-2.388,5.161-5.332C52.014,31.737,49.703,29.351,46.853,29.351z
			 M20,28v12h2V26C21.063,26.265,20.717,27.368,20,28z"/>
	</g>
</g>
<g>
</g>
<g>
</g>
<g>
</g>
<g>
</g>
<g>
</g>
<g>
</g>
<g>
</g>
<g>
</g>
<g>
</g>
<g>
</g>
<g>
</g>
<g>
</g>
<g>
</g>
<g>
</g>
<g>
</g>
</svg>
