<?xml version="1.0" encoding="iso-8859-1"?>
<!-- Generator: Adobe Illustrator 16.0.0, SVG Export Plug-In . SVG Version: 6.00 Build 0)  -->
<!DOCTYPE svg PUBLIC "-//W3C//DTD SVG 1.1//EN" "http://www.w3.org/Graphics/SVG/1.1/DTD/svg11.dtd">
<svg version="1.1" id="Layer_1" xmlns="http://www.w3.org/2000/svg" xmlns:xlink="http://www.w3.org/1999/xlink" x="0px" y="0px"
	 width="64px" height="64px" viewBox="0 0 64 64" style="enable-background:new 0 0 64 64;" xml:space="preserve">
<g id="Shape_1_">
	<g>
		<path style="fill:#88C057;" d="M60,0H4C1.791,0,0,1.791,0,4v56c0,2.209,1.791,4,4,4h56c2.209,0,4-1.791,4-4V4
			C64,1.791,62.209,0,60,0z"/>
	</g>
</g>
<g id="SpeedGrade_Logo">
	<g>
		<path style="fill-rule:evenodd;clip-rule:evenodd;fill:#FFFFFF;" d="M24.541,27.177c-2.912-1.097-4.175-1.849-4.175-3.479
			c0-1.222,1.101-2.537,3.624-2.537c2.039,0,3.56,0.595,4.337,1.001l0.97-3.1c-1.132-0.564-2.879-1.066-5.241-1.066
			c-4.725,0-7.702,2.631-7.702,6.078c0,3.039,2.298,4.888,5.89,6.141c2.783,0.971,3.884,1.911,3.884,3.509
			c0,1.723-1.424,2.882-3.98,2.882c-2.039,0-3.98-0.627-5.275-1.348l-0.874,3.195c1.198,0.69,3.593,1.348,5.89,1.348
			c5.632,0,8.285-2.976,8.285-6.359C30.172,30.402,28.327,28.554,24.541,27.177z M44.54,24.2l-0.161,2.034h-0.065
			c-0.744-1.252-2.168-2.379-4.563-2.379c-3.786,0-7.152,3.038-7.152,8.051c0,4.322,2.783,7.456,6.699,7.456
			c2.071,0,3.688-0.909,4.595-2.255h0.064v1.314c0,3.29-1.941,4.606-4.53,4.606c-1.909,0-3.591-0.597-4.595-1.159l-0.874,2.912
			c1.359,0.815,3.495,1.223,5.501,1.223c2.169,0,4.434-0.438,6.084-1.848c1.65-1.441,2.33-3.729,2.33-6.924v-8.647
			c0-2.099,0.064-3.352,0.13-4.385H44.54z M43.893,32.783c0,0.438-0.064,0.971-0.161,1.379c-0.454,1.379-1.747,2.317-3.236,2.317
			c-2.492,0-3.851-2.099-3.851-4.698c0-3.102,1.65-4.981,3.883-4.981c1.683,0,2.815,1.065,3.235,2.476
			c0.098,0.313,0.13,0.688,0.13,1.033V32.783z"/>
	</g>
</g>
<g>
</g>
<g>
</g>
<g>
</g>
<g>
</g>
<g>
</g>
<g>
</g>
<g>
</g>
<g>
</g>
<g>
</g>
<g>
</g>
<g>
</g>
<g>
</g>
<g>
</g>
<g>
</g>
<g>
</g>
</svg>
