<?xml version="1.0" encoding="iso-8859-1"?>
<!-- Generator: Adobe Illustrator 16.0.0, SVG Export Plug-In . SVG Version: 6.00 Build 0)  -->
<!DOCTYPE svg PUBLIC "-//W3C//DTD SVG 1.1//EN" "http://www.w3.org/Graphics/SVG/1.1/DTD/svg11.dtd">
<svg version="1.1" id="Layer_1" xmlns="http://www.w3.org/2000/svg" xmlns:xlink="http://www.w3.org/1999/xlink" x="0px" y="0px"
	 width="64px" height="64px" viewBox="0 0 64 64" style="enable-background:new 0 0 64 64;" xml:space="preserve">
<g id="Shape_37_">
	<g>
		<circle style="fill:#666666;" cx="32" cy="32" r="32"/>
	</g>
</g>
<g id="Squarespace_Logo">
	<g>
		<path style="fill:#FFFFFF;" d="M18.265,30.606c-0.755,0.758-0.755,1.988,0,2.746c0.756,0.756,1.977,0.756,2.785,0.007
			l12.295-12.343c1.432-1.438,3.709-1.512,5.227-0.219l0.182,0.209c0.756,0.761,1.977,0.761,2.73,0
			c0.744-0.748,0.779-1.973,0.057-2.734c-3.016-3.027-7.907-3.027-10.929,0L18.59,30.348C18.474,30.421,18.365,30.508,18.265,30.606
			z M49.737,26.5c-3.018-3.027-7.911-3.027-10.929,0L26.783,38.575c-0.114,0.072-0.224,0.16-0.323,0.263
			c-0.755,0.754-0.755,1.988,0,2.742c0.754,0.757,1.977,0.757,2.787,0.007L41.54,29.245c1.507-1.515,3.954-1.515,5.464,0
			c1.511,1.515,1.511,3.976,0,5.487L35.347,46.491c1.509,1.516,3.955,1.516,5.462,0l8.929-9.018
			C52.75,34.442,52.75,29.534,49.737,26.5z M37.388,25.12c0.753-0.758,0.753-1.983,0-2.74c-0.756-0.758-1.977-0.758-2.732,0
			c-0.103,0.102-0.188,0.211-0.262,0.328L22.416,34.732c-1.508,1.514-3.955,1.514-5.462,0c-1.513-1.512-1.513-3.973,0-5.487
			l11.655-11.76c-1.508-1.516-3.953-1.516-5.464,0L14.223,26.5c-3.021,3.034-3.021,7.942,0,10.974c3.016,3.029,7.909,3.029,10.925,0
			L37.388,25.12z M45.583,30.606c-0.756-0.754-1.977-0.754-2.732,0c-0.099,0.103-0.19,0.212-0.262,0.33L30.611,42.96
			c-1.508,1.514-3.953,1.514-5.464,0l-0.054-0.009c-0.753-0.753-1.978-0.753-2.731,0c-0.753,0.758-0.753,1.984,0,2.742
			c0.096,0.099,0.196,0.183,0.309,0.252c3.034,2.782,7.738,2.701,10.674-0.241l12.238-12.352
			C46.338,32.595,46.338,31.364,45.583,30.606z"/>
	</g>
</g>
<g>
</g>
<g>
</g>
<g>
</g>
<g>
</g>
<g>
</g>
<g>
</g>
<g>
</g>
<g>
</g>
<g>
</g>
<g>
</g>
<g>
</g>
<g>
</g>
<g>
</g>
<g>
</g>
<g>
</g>
</svg>
