<?xml version="1.0" encoding="iso-8859-1"?>
<!-- Generator: Adobe Illustrator 16.0.0, SVG Export Plug-In . SVG Version: 6.00 Build 0)  -->
<!DOCTYPE svg PUBLIC "-//W3C//DTD SVG 1.1//EN" "http://www.w3.org/Graphics/SVG/1.1/DTD/svg11.dtd">
<svg version="1.1" id="Layer_1" xmlns="http://www.w3.org/2000/svg" xmlns:xlink="http://www.w3.org/1999/xlink" x="0px" y="0px"
	 width="64.003px" height="63.995px" viewBox="0 0 64.003 63.995" style="enable-background:new 0 0 64.003 63.995;"
	 xml:space="preserve">
<g id="Stumbleupon_Logo">
	<g>
		<path style="fill:#48A0DC;" d="M55.998,10.879v29.498c0,5.312-4.113,9.628-9.398,9.628h-1.256c-5.283,0-9.396-4.316-9.396-9.628
			V28.005c0-1.86-1.433-4.023-3.288-4.023H19.376c-1.855,0-3.443,2.048-3.443,3.769c0,1.781,1.613,3.746,3.518,3.842l1.6,0.104
			c5.244,0.276,9.381,4.506,9.217,9.43c-0.164,4.896-4.549,8.88-9.777,8.88H5.552c5.761,8.444,15.455,13.99,26.449,13.99
			c17.675,0,32.002-14.324,32.002-31.997C64.003,23.895,60.965,16.517,55.998,10.879z"/>
	</g>
</g>
<g id="Stumbleupon_Logo_1_">
	<g>
		<path style="fill:#88C057;" d="M32.001,0C14.326,0,0,14.327,0,31.998c0,4.225,0.839,8.248,2.326,11.939h18.163
			c1.877,0,3.51-1.48,3.561-3.02c0.051-1.52-1.473-2.882-3.326-2.977l-1.6-0.105c-5.188-0.27-9.226-5.004-9.226-10.086
			c0-5.172,4.114-9.755,9.401-9.755h12.594c5.287,0,10.087,4.697,10.087,10.01v12.372c0,1.862,1.51,3.375,3.363,3.375H46.6
			c1.855,0,3.363-1.513,3.363-3.375V5.518C44.842,2.038,38.66,0,32.001,0z"/>
	</g>
</g>
<g>
</g>
<g>
</g>
<g>
</g>
<g>
</g>
<g>
</g>
<g>
</g>
<g>
</g>
<g>
</g>
<g>
</g>
<g>
</g>
<g>
</g>
<g>
</g>
<g>
</g>
<g>
</g>
<g>
</g>
</svg>
