<?xml version="1.0" encoding="iso-8859-1"?>
<!-- Generator: Adobe Illustrator 16.0.0, SVG Export Plug-In . SVG Version: 6.00 Build 0)  -->
<!DOCTYPE svg PUBLIC "-//W3C//DTD SVG 1.1//EN" "http://www.w3.org/Graphics/SVG/1.1/DTD/svg11.dtd">
<svg version="1.1" id="Layer_1" xmlns="http://www.w3.org/2000/svg" xmlns:xlink="http://www.w3.org/1999/xlink" x="0px" y="0px"
	 width="64.003px" height="64.026px" viewBox="0 0 64.003 64.026" style="enable-background:new 0 0 64.003 64.026;"
	 xml:space="preserve">
<g id="Shape_58_">
	<g>
		<ellipse style="fill:#48A0DC;" cx="32.001" cy="32.013" rx="32.001" ry="32.013"/>
	</g>
</g>
<g id="Vimeo_Logo">
	<g>
		<path style="fill:#FFFFFF;" d="M41.271,19.947c-3.814,0-6.797,2.445-8.088,7.048c1.406-0.66,3.959-1.004,4.158,1.296
			c0.202,2.302-3.327,8.258-4.876,8.258c-1.545,0-2.696-6.733-3.099-9.811c-0.399-3.081-1.117-6.474-4.041-6.474
			c-2.928,0-6.682,4.546-9.322,6.619l1.377,1.866c0,0,1.948-1.521,2.639-1.407c1.778,0.459,3.298,7.624,4.074,10.356
			c0.772,2.733,1.718,8.259,5.534,8.259c6.167,0,16.377-15.162,16.377-20.113C46.005,22.595,45.086,19.947,41.271,19.947z"/>
	</g>
</g>
<g>
</g>
<g>
</g>
<g>
</g>
<g>
</g>
<g>
</g>
<g>
</g>
<g>
</g>
<g>
</g>
<g>
</g>
<g>
</g>
<g>
</g>
<g>
</g>
<g>
</g>
<g>
</g>
<g>
</g>
</svg>
