<?xml version="1.0" encoding="iso-8859-1"?>
<!-- Generator: Adobe Illustrator 16.0.0, SVG Export Plug-In . SVG Version: 6.00 Build 0)  -->
<!DOCTYPE svg PUBLIC "-//W3C//DTD SVG 1.1//EN" "http://www.w3.org/Graphics/SVG/1.1/DTD/svg11.dtd">
<svg version="1.1" id="Layer_1" xmlns="http://www.w3.org/2000/svg" xmlns:xlink="http://www.w3.org/1999/xlink" x="0px" y="0px"
	 width="63.997px" height="63.981px" viewBox="0 0 63.997 63.981" style="enable-background:new 0 0 63.997 63.981;"
	 xml:space="preserve">
<g id="Shape_43_">
	<g>
		<ellipse style="fill:#88C057;" cx="31.998" cy="31.991" rx="31.998" ry="31.991"/>
	</g>
</g>
<g id="Vine_Logo">
	<g>
		<path style="fill:#FFFFFF;" d="M36.502,24.423c0-2.402,0.928-3.652,2.241-3.652c1.244,0,2.077,1.124,2.077,3.397
			c0,1.294-0.348,2.71-0.602,3.55c0,0,1.243,2.167,4.637,1.505c0.723-1.606,1.113-3.681,1.113-5.502
			c0-4.902-2.494-7.753-7.066-7.753c-4.703,0-7.453,3.621-7.453,8.393c0,4.729,2.207,8.786,5.846,10.636
			c-1.53,3.065-3.478,5.769-5.506,7.801c-3.688-4.462-7.017-10.41-8.383-22.026h-5.436c2.51,19.344,9.994,25.501,11.974,26.685
			c1.118,0.673,2.083,0.641,3.106,0.063c1.607-0.915,6.431-5.746,9.105-11.403c1.121-0.004,2.471-0.134,3.813-0.437v-3.807
			c-0.822,0.187-1.619,0.273-2.333,0.273C39.605,32.146,36.502,29.325,36.502,24.423z"/>
	</g>
</g>
<g>
</g>
<g>
</g>
<g>
</g>
<g>
</g>
<g>
</g>
<g>
</g>
<g>
</g>
<g>
</g>
<g>
</g>
<g>
</g>
<g>
</g>
<g>
</g>
<g>
</g>
<g>
</g>
<g>
</g>
</svg>
