<?xml version="1.0" encoding="iso-8859-1"?>
<!-- Generator: Adobe Illustrator 16.0.0, SVG Export Plug-In . SVG Version: 6.00 Build 0)  -->
<!DOCTYPE svg PUBLIC "-//W3C//DTD SVG 1.1//EN" "http://www.w3.org/Graphics/SVG/1.1/DTD/svg11.dtd">
<svg version="1.1" id="Layer_1" xmlns="http://www.w3.org/2000/svg" xmlns:xlink="http://www.w3.org/1999/xlink" x="0px" y="0px"
	 width="64px" height="64.001px" viewBox="0 0 64 64.001" style="enable-background:new 0 0 64 64.001;" xml:space="preserve">
<g id="Shape_31_">
	<g>
		<circle style="fill:#CCCCCC;" cx="32" cy="32" r="32"/>
	</g>
</g>
<g id="Wii_Logo">
	<g>
		<path style="fill-rule:evenodd;clip-rule:evenodd;fill:#202020;" d="M39.927,41.789h3.757V28.962h-3.757V41.789z M41.806,22
			c-1.233,0-2.234,1.045-2.234,2.333s1.001,2.332,2.234,2.332s2.234-1.044,2.234-2.332S43.039,22,41.806,22z M47.882,41.789h3.757
			V28.962h-3.757V41.789z M49.76,26.665c1.234,0,2.234-1.044,2.234-2.332S50.994,22,49.76,22c-1.233,0-2.234,1.045-2.234,2.333
			S48.526,26.665,49.76,26.665z M30.348,37.055c0,0-2.133-8.376-2.776-11.203c-0.644-2.826-2.674-2.791-2.674-2.791
			s-2.03-0.035-2.674,2.791c-0.644,2.827-2.776,11.203-2.776,11.203l-3.452-13.817h-3.994l4.231,15.548c0,0,0.575,3.217,2.995,3.217
			c2.421,0,2.996-3.217,2.996-3.217l2.674-10.142l2.674,10.142c0,0,0.575,3.217,2.996,3.217c2.42,0,2.995-3.217,2.995-3.217
			l4.231-15.548H33.8L30.348,37.055z"/>
	</g>
</g>
<g>
</g>
<g>
</g>
<g>
</g>
<g>
</g>
<g>
</g>
<g>
</g>
<g>
</g>
<g>
</g>
<g>
</g>
<g>
</g>
<g>
</g>
<g>
</g>
<g>
</g>
<g>
</g>
<g>
</g>
</svg>
