<?xml version="1.0" encoding="iso-8859-1"?>
<!-- Generator: Adobe Illustrator 16.0.0, SVG Export Plug-In . SVG Version: 6.00 Build 0)  -->
<!DOCTYPE svg PUBLIC "-//W3C//DTD SVG 1.1//EN" "http://www.w3.org/Graphics/SVG/1.1/DTD/svg11.dtd">
<svg version="1.1" id="Layer_1" xmlns="http://www.w3.org/2000/svg" xmlns:xlink="http://www.w3.org/1999/xlink" x="0px" y="0px"
	 width="64px" height="63.977px" viewBox="0 0 64 63.977" style="enable-background:new 0 0 64 63.977;" xml:space="preserve">
<g id="Shape_48_">
	<g>
		<ellipse style="fill:#CCCCCC;" cx="32" cy="31.988" rx="32" ry="31.988"/>
	</g>
</g>
<g id="Wikipedia_Logo">
	<g>
		<path d="M51.903,20.021h-8.266l-0.103,0.083v0.799c0,0.098,0.037,0.054,0.117,0.118c0.067,0.059,0.149,0.093,0.233,0.093
			l0.688,0.041c0.852,0.039,1.075,0.226,1.404,0.544c0.33,0.323,0.367,0.874,0.115,1.649l-7.309,19.273l-0.284-0.082l-4.644-10.553
			c0.062-0.146,0.108-0.247,0.108-0.247l3.799-7.893c0.439-0.829,0.867-1.57,1.084-1.919c0.396-0.634,0.616-0.752,1.696-0.804
			c0.226,0,0.34,0.006,0.34-0.223v-0.792l-0.088-0.089c0,0-4.647-0.013-6.719,0l-0.102,0.082v0.799c0,0.102,0.041,0.057,0.114,0.116
			c0.082,0.063,0.159,0.094,0.243,0.094l0.328,0.046c0.849,0.033,1.237,0.28,1.352,0.435c0.201,0.279,0.302,0.576-0.188,1.759
			l-2.919,6.467l-2.64-6.001c-0.875-1.917-1.082-2.509,0.218-2.623l0.52-0.086c0.247,0,0.37,0.028,0.37-0.164v-0.841l-0.188-0.068
			h-7.124l-0.106,0.082v0.843c0,0.189,0.181,0.116,0.519,0.173c1.224,0.176,1.199,0.319,2.404,2.983
			c0.184,0.396,0.718,1.601,0.718,1.601l2.751,6.014c0,0,0.315,0.776,0.802,1.973l-4.003,8.868l-0.23-0.063
			c0,0-6.212-14.556-8.01-19.425c-0.188-0.498-0.273-0.876-0.273-1.106c0-0.498,0.396-0.76,1.206-0.799l0.938-0.042
			c0.247,0,0.366,0.015,0.366-0.208v-0.799l-0.08-0.082c0,0-7.443-0.01-8.978,0l-0.086,0.082v0.842c0,0.144,0.171,0.123,0.518,0.162
			c0.947,0.057,1.569,0.222,1.868,0.506c0.297,0.281,0.618,0.991,1.031,2.101c2.254,6.025,7.053,16.79,9.394,22.917
			c0.671,1.666,1.522,1.928,2.546-0.054c1.057-2.18,3.187-7.009,4.739-10.571c1.46,3.555,3.437,8.359,4.391,10.549
			c0.768,1.742,1.633,1.916,2.511,0.048c2.301-5.681,9.027-22.777,9.027-22.777c0.288-0.838,0.696-1.483,1.216-1.956
			c0.521-0.462,1.328-0.727,2.406-0.783c0.221,0,0.332,0.017,0.332-0.208h0.006v-0.799L51.903,20.021z"/>
	</g>
</g>
<g>
</g>
<g>
</g>
<g>
</g>
<g>
</g>
<g>
</g>
<g>
</g>
<g>
</g>
<g>
</g>
<g>
</g>
<g>
</g>
<g>
</g>
<g>
</g>
<g>
</g>
<g>
</g>
<g>
</g>
</svg>
