<?xml version="1.0" encoding="iso-8859-1"?>
<!-- Generator: Adobe Illustrator 16.0.0, SVG Export Plug-In . SVG Version: 6.00 Build 0)  -->
<!DOCTYPE svg PUBLIC "-//W3C//DTD SVG 1.1//EN" "http://www.w3.org/Graphics/SVG/1.1/DTD/svg11.dtd">
<svg version="1.1" id="Layer_1" xmlns="http://www.w3.org/2000/svg" xmlns:xlink="http://www.w3.org/1999/xlink" x="0px" y="0px"
	 width="63.99px" height="63.989px" viewBox="0 0 63.99 63.989" style="enable-background:new 0 0 63.99 63.989;"
	 xml:space="preserve">
<g id="Wordpress_Logo">
	<g>
		<path style="fill:#48A0DC;" d="M0,31.995c0,12.658,7.358,23.61,18.034,28.788L2.771,18.972C0.993,22.953,0,27.354,0,31.995z
			 M32.561,34.795l-9.603,27.895c2.865,0.843,5.895,1.3,9.04,1.3c3.724,0,7.3-0.645,10.625-1.818
			c-0.086-0.137-0.165-0.279-0.228-0.436L32.561,34.795z M60.071,16.642c0.143,1.022,0.221,2.114,0.221,3.295
			c0,3.243-0.608,6.893-2.437,11.458l-9.77,28.25c9.51-5.543,15.904-15.847,15.904-27.649C63.99,26.431,62.57,21.202,60.071,16.642z
			 M53.597,30.379c0-3.954-1.424-6.695-2.64-8.823c-1.62-2.637-3.14-4.865-3.14-7.505c0-2.941,2.225-5.678,5.375-5.678
			c0.136,0,0.274,0.02,0.411,0.028C47.912,3.188,40.328,0,31.998,0C21.009,0,11.321,5.542,5.563,13.975
			c2.404,0.049,10.288,0.076,10.288,0.076c1.721-0.097,1.925,2.431,0.2,2.64c0,0-1.731,0.2-3.661,0.304l11.655,34.65l7.001-20.994
			L26.06,16.994c-1.724-0.104-3.354-0.304-3.354-0.304c-1.726-0.104-1.521-2.736,0.204-2.64h16.957
			c1.72-0.097,1.924,2.431,0.199,2.64c0,0-1.729,0.2-3.66,0.304L47.97,51.382l3.193-10.659
			C52.782,36.563,53.597,33.119,53.597,30.379z"/>
	</g>
</g>
<g>
</g>
<g>
</g>
<g>
</g>
<g>
</g>
<g>
</g>
<g>
</g>
<g>
</g>
<g>
</g>
<g>
</g>
<g>
</g>
<g>
</g>
<g>
</g>
<g>
</g>
<g>
</g>
<g>
</g>
</svg>
