<?xml version="1.0" encoding="iso-8859-1"?>
<!-- Generator: Adobe Illustrator 16.0.0, SVG Export Plug-In . SVG Version: 6.00 Build 0)  -->
<!DOCTYPE svg PUBLIC "-//W3C//DTD SVG 1.1//EN" "http://www.w3.org/Graphics/SVG/1.1/DTD/svg11.dtd">
<svg version="1.1" id="Layer_1" xmlns="http://www.w3.org/2000/svg" xmlns:xlink="http://www.w3.org/1999/xlink" x="0px" y="0px"
	 width="64px" height="64px" viewBox="0 0 64 64" style="enable-background:new 0 0 64 64;" xml:space="preserve">
<g id="Shape_39_">
	<g>
		<circle style="fill:#ED7161;" cx="32" cy="32" r="32"/>
	</g>
</g>
<g id="Wunderlist_Logo">
	<g>
		<path style="fill-rule:evenodd;clip-rule:evenodd;fill:#FFFFFF;" d="M42,18H22c-1.104,0-2,0.896-2,2v27v5l5.969-3.979
			c2.161-1.254,4.481-2.695,5.031-3.02c1.014-0.599,1.03-0.566,2,0c0.521,0.304,2.801,1.718,4.95,2.966L44,52v-3.998
			c0-0.001,0-0.001,0-0.001V20C44,18.896,43.104,18,42,18z M36.485,34.41l1.017,5.589L32,37.426l-5.502,2.573l1.001-5.589
			l-3.502-4.365l5.229-0.39L32,24.001l2.743,5.654l5.26,0.39L36.485,34.41z"/>
	</g>
</g>
<g>
</g>
<g>
</g>
<g>
</g>
<g>
</g>
<g>
</g>
<g>
</g>
<g>
</g>
<g>
</g>
<g>
</g>
<g>
</g>
<g>
</g>
<g>
</g>
<g>
</g>
<g>
</g>
<g>
</g>
</svg>
