<?xml version="1.0" encoding="iso-8859-1"?>
<!-- Generator: Adobe Illustrator 16.0.0, SVG Export Plug-In . SVG Version: 6.00 Build 0)  -->
<!DOCTYPE svg PUBLIC "-//W3C//DTD SVG 1.1//EN" "http://www.w3.org/Graphics/SVG/1.1/DTD/svg11.dtd">
<svg version="1.1" id="Layer_1" xmlns="http://www.w3.org/2000/svg" xmlns:xlink="http://www.w3.org/1999/xlink" x="0px" y="0px"
	 width="63.989px" height="63.997px" viewBox="0 0 63.989 63.997" style="enable-background:new 0 0 63.989 63.997;"
	 xml:space="preserve">
<g id="X-Box_Logo">
	<g>
		<path style="fill:#88C057;" d="M24.756,17.677c-4.324-4.703-8.755-7.951-13.3-9.627c-0.161-0.054-0.328-0.107-0.482-0.165
			c-0.55,0.492-1.086,0.973-1.569,1.458v0.062c-1.836,1.78-3.404,3.73-4.705,5.779C1.729,19.949,0.161,25.294,0,31.185v1.622
			c0.161,7.037,2.323,13.194,6.543,18.548c0.107-2.327,0.479-4.713,1.072-7.086C9.888,35.461,15.619,26.591,24.756,17.677z
			 M31.995,11.952c4.022-4.024,13.024-7.627,18.326-6.223C45.184,2.049,39.346,0.161,32.813,0h-1.625
			C24.648,0.161,18.81,2.049,13.675,5.729C18.978,4.325,28.022,7.978,31.995,11.952z M55.346,51.999
			c-0.161-0.483-0.379-0.97-0.55-1.458c-0.047-0.058-0.047-0.157-0.047-0.219c-3.354-8.109-9.626-15.894-18.869-23.406v-0.051
			h-0.048c-1.239-1.029-2.486-2.004-3.84-2.977c-1.357,0.973-2.595,1.947-3.784,2.977c-9.895,7.949-16.376,16.317-19.514,25.086
			c-0.107,0.211-0.214,0.487-0.268,0.759c-0.051,0.207-0.165,0.429-0.212,0.646c0.376,0.432,0.805,0.861,1.188,1.24
			c6.053,6.102,13.292,9.239,21.785,9.4h1.625c8.473-0.161,15.719-3.299,21.772-9.4c0.382-0.379,0.812-0.809,1.183-1.243
			c-0.05-0.222-0.15-0.437-0.211-0.651C55.5,52.435,55.396,52.217,55.346,51.999z M59.291,15.187c-1.297-2.049-2.866-4-4.652-5.78
			l-0.054-0.061c-0.482-0.484-1.019-0.965-1.568-1.458c-0.161,0.055-0.322,0.11-0.483,0.165c-4.537,1.679-8.975,4.925-13.292,9.628
			l0.054,0.053c9.123,8.921,14.854,17.786,17.188,26.595c0.586,2.317,0.911,4.646,1.079,6.971
			c4.155-5.361,6.268-11.513,6.428-18.492v-1.619C63.829,25.297,62.26,19.953,59.291,15.187z"/>
	</g>
</g>
<g>
</g>
<g>
</g>
<g>
</g>
<g>
</g>
<g>
</g>
<g>
</g>
<g>
</g>
<g>
</g>
<g>
</g>
<g>
</g>
<g>
</g>
<g>
</g>
<g>
</g>
<g>
</g>
<g>
</g>
</svg>
