<?xml version="1.0" encoding="iso-8859-1"?>
<!-- Generator: Adobe Illustrator 16.0.0, SVG Export Plug-In . SVG Version: 6.00 Build 0)  -->
<!DOCTYPE svg PUBLIC "-//W3C//DTD SVG 1.1//EN" "http://www.w3.org/Graphics/SVG/1.1/DTD/svg11.dtd">
<svg version="1.1" id="Layer_1" xmlns="http://www.w3.org/2000/svg" xmlns:xlink="http://www.w3.org/1999/xlink" x="0px" y="0px"
	 width="64.003px" height="63.995px" viewBox="0 0 64.003 63.995" style="enable-background:new 0 0 64.003 63.995;"
	 xml:space="preserve">
<g id="Shape_53_">
	<g>
		<circle style="fill:#9B7CAB;" cx="32.002" cy="31.998" r="31.998"/>
	</g>
</g>
<g id="Yahoo_Logo">
	<g>
		<path style="fill-rule:evenodd;clip-rule:evenodd;fill:#FFFFFF;" d="M46.654,25.258c0.009-0.005,0.025-0.006,0.034-0.006
			l1.061-1.181c-0.015,0-0.041-0.003-0.053-0.003l0.111-0.176H32.957l0.571,2.029h4.054l-6.82,6.312
			c-1.393-2.029-4.655-6.694-6.93-10.194h4.229v-1.438l0.059-0.415c-0.016-0.002-0.044-0.007-0.059-0.007v-0.17H12.004v2.03h5.021
			c1.948,1.61,10.403,11.872,10.713,12.853c0.124,0.917,0.3,6.334-0.064,6.743c-0.437,0.63-5.013,0.29-5.819,0.349l-0.029,1.99
			c1.473,0.047,5.89-0.001,7.38-0.001c2.936,0,8.077-0.075,8.804-0.018l0.089-1.886c-0.741-0.133-5.352,0.047-5.911-0.087
			c-0.124-0.853-0.26-6.243-0.137-6.833c0.56-1.702,9.629-8.764,10.56-9.029c0.211-0.044,0.523-0.118,0.879-0.198h2.739
			L46.654,25.258z M44.438,39.339l2.569,0.195L50,28.555c-0.5-0.017-5.043-0.423-5.633-0.533L44.438,39.339z M43.993,41.099
			l0.015,2.681l1.301,0.107l1.405,0.099l0.412-2.624l-1.481-0.069L43.993,41.099z"/>
	</g>
</g>
<g>
</g>
<g>
</g>
<g>
</g>
<g>
</g>
<g>
</g>
<g>
</g>
<g>
</g>
<g>
</g>
<g>
</g>
<g>
</g>
<g>
</g>
<g>
</g>
<g>
</g>
<g>
</g>
<g>
</g>
</svg>
