<?xml version="1.0" encoding="iso-8859-1"?>
<!-- Generator: Adobe Illustrator 16.0.0, SVG Export Plug-In . SVG Version: 6.00 Build 0)  -->
<!DOCTYPE svg PUBLIC "-//W3C//DTD SVG 1.1//EN" "http://www.w3.org/Graphics/SVG/1.1/DTD/svg11.dtd">
<svg version="1.1" id="Layer_1" xmlns="http://www.w3.org/2000/svg" xmlns:xlink="http://www.w3.org/1999/xlink" x="0px" y="0px"
	 width="64.001px" height="39.959px" viewBox="0 0 64.001 39.959" style="enable-background:new 0 0 64.001 39.959;"
	 xml:space="preserve">
<g id="_x21_Yahoo_Logo">
	<g>
		<path style="fill:#9B7CAB;" d="M24.111,0C10.777,0,0,8.943,0,19.993c0,11.022,10.777,19.966,24.111,19.966
			c13.326,0,24.125-8.943,24.125-19.966C48.236,8.943,37.438,0,24.111,0z M40.188,15.988h-4.639l-7.396,7.348v4.642h6.018v4.012
			H18.063v-4.012h6.049v-4.642L12.688,11.982h-2.66V7.99h12.069v3.992h-2.659l6.681,6.643l2.034-1.987v-4.655h12.035V15.988z
			 M62.333,0h-8.052c-1.111,0-1.993,0.898-1.947,1.989l0.934,25.988h6.024l4.681-26.009C64.159,0.878,63.41,0,62.333,0z
			 M56.799,31.989h-1.028c-1.934,0-3.534,1.554-3.534,3.481v1c0,1.934,1.601,3.488,3.534,3.488h1.028
			c1.909,0,3.492-1.555,3.492-3.488v-1C60.291,33.543,58.708,31.989,56.799,31.989z"/>
	</g>
</g>
<g>
</g>
<g>
</g>
<g>
</g>
<g>
</g>
<g>
</g>
<g>
</g>
<g>
</g>
<g>
</g>
<g>
</g>
<g>
</g>
<g>
</g>
<g>
</g>
<g>
</g>
<g>
</g>
<g>
</g>
</svg>
