<?xml version="1.0" encoding="iso-8859-1"?>
<!-- Generator: Adobe Illustrator 16.0.0, SVG Export Plug-In . SVG Version: 6.00 Build 0)  -->
<!DOCTYPE svg PUBLIC "-//W3C//DTD SVG 1.1//EN" "http://www.w3.org/Graphics/SVG/1.1/DTD/svg11.dtd">
<svg version="1.1" id="Layer_1" xmlns="http://www.w3.org/2000/svg" xmlns:xlink="http://www.w3.org/1999/xlink" x="0px" y="0px"
	 width="64.002px" height="63.996px" viewBox="0 0 64.002 63.996" style="enable-background:new 0 0 64.002 63.996;"
	 xml:space="preserve">
<g id="Shape_57_">
	<g>
		<circle style="fill:#ED7161;" cx="32.001" cy="31.998" r="31.998"/>
	</g>
</g>
<g id="YouTube_Logo">
	<g>
		<path style="fill-rule:evenodd;clip-rule:evenodd;fill:#FFFFFF;" d="M37.925,25.993c0.354,0,0.72-0.204,1.096-0.409
			c0.379-0.208,0.742-0.511,1.088-0.907v1.077h1.89v-9.728h-1.89v7.385c-0.176,0.211-0.371,0.385-0.581,0.521
			c-0.215,0.137-0.391,0.205-0.529,0.205c-0.177,0-0.307-0.051-0.384-0.156c-0.078-0.103-0.122-0.268-0.122-0.496v-7.459h-1.887
			v8.13c0,0.58,0.111,1.013,0.331,1.3C37.159,25.749,37.486,25.993,37.925,25.993z M31.229,25.999c1.013,0,1.807-0.322,2.386-0.779
			c0.575-0.459,0.863-1.088,0.863-1.891v-4.851c0-0.716-0.295-1.304-0.88-1.759c-0.591-0.451-1.346-0.68-2.269-0.68
			c-1.012,0-1.819,0.216-2.418,0.646c-0.599,0.432-0.898,1.008-0.898,1.738v4.867c0,0.8,0.293,1.432,0.876,1.905
			C29.474,25.668,30.255,25.999,31.229,25.999z M30.172,18.657c0-0.184,0.095-0.332,0.283-0.449c0.193-0.113,0.44-0.168,0.745-0.168
			c0.331,0,0.599,0.055,0.803,0.168c0.203,0.117,0.306,0.266,0.306,0.449v4.611c0,0.228-0.102,0.406-0.301,0.537
			c-0.2,0.13-0.469,0.193-0.808,0.193c-0.33,0-0.585-0.062-0.763-0.191c-0.177-0.128-0.266-0.306-0.266-0.539V18.657z M22.845,26.02
			h2.387v-5.812l2.778-8.2h-2.425l-1.478,5.602h-0.15l-1.551-5.602h-2.403l2.842,8.462V26.02z M43.422,30.014H20.58
			c-3.631,0-6.574,2.83-6.574,6.315v5.342c0,3.487,2.943,6.316,6.574,6.316h22.842c3.63,0,6.574-2.829,6.574-6.316v-5.342
			C49.996,32.844,47.052,30.014,43.422,30.014z M23.98,35.433h-2.021v8.363h-1.953v-8.363h-2.021v-1.424h5.996V35.433z
			 M30.006,43.913H27.9v-0.865c-0.392,0.319-0.795,0.564-1.217,0.729c-0.42,0.172-0.827,0.253-1.224,0.253
			c-0.488,0-0.852-0.117-1.101-0.354c-0.244-0.234-0.369-0.586-0.369-1.059v-6.603h2.105v6.06c0,0.188,0.046,0.32,0.13,0.404
			c0.092,0.086,0.237,0.125,0.435,0.125c0.151,0,0.35-0.055,0.586-0.165c0.239-0.111,0.456-0.253,0.654-0.424v-6h2.105V43.913z
			 M37.979,42.41c0,0.517-0.163,0.913-0.489,1.19c-0.323,0.276-0.798,0.413-1.413,0.413c-0.409,0-0.772-0.052-1.089-0.16
			c-0.318-0.104-0.617-0.269-0.89-0.495v0.562h-2.103v-9.911h2.103V37.2c0.282-0.221,0.581-0.391,0.892-0.507
			c0.318-0.117,0.638-0.173,0.961-0.173c0.658,0,1.16,0.153,1.507,0.464c0.349,0.313,0.521,0.77,0.521,1.367V42.41z M45.993,40.181
			h-3.882v1.427c0,0.398,0.064,0.674,0.197,0.83c0.136,0.154,0.365,0.23,0.688,0.23c0.339,0,0.572-0.065,0.707-0.196
			c0.132-0.133,0.202-0.419,0.202-0.864v-0.345h2.088v0.389c0,0.775-0.253,1.361-0.767,1.756c-0.505,0.391-1.265,0.584-2.276,0.584
			c-0.909,0-1.627-0.206-2.147-0.623c-0.521-0.412-0.785-0.987-0.785-1.717v-3.403c0-0.654,0.289-1.192,0.864-1.604
			c0.574-0.415,1.312-0.62,2.222-0.62c0.929,0,1.643,0.19,2.142,0.573c0.499,0.385,0.748,0.934,0.748,1.651V40.181z M34.969,37.681
			c-0.148,0-0.297,0.023-0.441,0.071c-0.146,0.046-0.288,0.124-0.43,0.223v4.555c0.168,0.119,0.333,0.209,0.493,0.261
			c0.161,0.05,0.326,0.078,0.503,0.078c0.255,0,0.441-0.051,0.562-0.156c0.118-0.103,0.179-0.271,0.179-0.502v-3.777
			c0-0.248-0.07-0.435-0.217-0.562C35.465,37.745,35.248,37.681,34.969,37.681z"/>
	</g>
</g>
<g>
</g>
<g>
</g>
<g>
</g>
<g>
</g>
<g>
</g>
<g>
</g>
<g>
</g>
<g>
</g>
<g>
</g>
<g>
</g>
<g>
</g>
<g>
</g>
<g>
</g>
<g>
</g>
<g>
</g>
</svg>
