<?xml version="1.0" encoding="iso-8859-1"?>
<!-- Generator: Adobe Illustrator 16.0.0, SVG Export Plug-In . SVG Version: 6.00 Build 0)  -->
<!DOCTYPE svg PUBLIC "-//W3C//DTD SVG 1.1//EN" "http://www.w3.org/Graphics/SVG/1.1/DTD/svg11.dtd">
<svg version="1.1" id="Layer_1" xmlns="http://www.w3.org/2000/svg" xmlns:xlink="http://www.w3.org/1999/xlink" x="0px" y="0px"
	 width="64px" height="63.999px" viewBox="0 0 64 63.999" style="enable-background:new 0 0 64 63.999;" xml:space="preserve">
<g id="Shape_38_">
	<g>
		<circle style="fill:#88C057;" cx="32" cy="32" r="32"/>
	</g>
</g>
<g id="Zerply_Logo">
	<g>
		<path style="fill:#FFFFFF;" d="M43.814,40.996c-5.665,4.098-11.381-3.659-17.268-4.029c3.675-4.184,7.955-8.568,11.789-12.917
			c1.876-2.129,4.368-4.079,3.931-7.586c-4.594,0.822-11.831,1.354-15.72-0.474c-0.845,0.901-2.738,2.969-2.301,4.622
			c0.51,1.925,5.695,1.378,8.9,1.378c-2.828,3.886-6.063,7.758-9.22,11.303c-1.975,2.216-4.54,3.991-3.812,8.177
			c4.116-0.585,7.519,0.499,10.242,2.25c2.125,1.369,4.086,3.327,6.55,4.031C41.019,48.924,44.965,45.651,43.814,40.996z"/>
	</g>
</g>
<g>
</g>
<g>
</g>
<g>
</g>
<g>
</g>
<g>
</g>
<g>
</g>
<g>
</g>
<g>
</g>
<g>
</g>
<g>
</g>
<g>
</g>
<g>
</g>
<g>
</g>
<g>
</g>
<g>
</g>
</svg>
