<?xml version="1.0" encoding="iso-8859-1"?>
<!-- Generator: Adobe Illustrator 16.0.0, SVG Export Plug-In . SVG Version: 6.00 Build 0)  -->
<!DOCTYPE svg PUBLIC "-//W3C//DTD SVG 1.1//EN" "http://www.w3.org/Graphics/SVG/1.1/DTD/svg11.dtd">
<svg version="1.1" id="Layer_1" xmlns="http://www.w3.org/2000/svg" xmlns:xlink="http://www.w3.org/1999/xlink" x="0px" y="0px"
	 width="36px" height="64.001px" viewBox="0 0 36 64.001" style="enable-background:new 0 0 36 64.001;" xml:space="preserve">
<g id="Buckle_2_">
	<g>
		<path style="fill-rule:evenodd;clip-rule:evenodd;fill:#B3B3B3;" d="M31.892,11.991c0.046,0.004,0.108,0.01,0.108,0.01
			s-1.449-0.197-2-2L28.222,2c0-1.104-0.909-2-2.031-2H9.937C8.814,0,7.904,0.896,7.904,2L6,10.001c-0.534,2.302-2,2-2,2v16h28v-16
			C31.948,11.996,31.916,11.993,31.892,11.991z M4,52c0,0,1.448,0.197,2,2l1.777,8.001c0,1.104,0.909,2,2.031,2h16.254
			c1.122,0,2.032-0.896,2.032-2L30,54c0.533-2.302,2-2,2-2V34.001H4V52z"/>
	</g>
</g>
<g id="Buckle_Lines_1_">
	<g>
		<path style="fill-rule:evenodd;clip-rule:evenodd;fill:#E6E6E6;" d="M28.666,4H7.428L6.476,8.001h23.08L28.666,4z M7.333,60
			h21.238l0.952-4H6.444L7.333,60z"/>
	</g>
</g>
<g id="Frame_15_">
	<g>
		<path style="fill:#333333;" d="M30,12.001H6c-3.314,0-6,2.686-6,5.999v28.001C0,49.314,2.686,52,6,52h24c3.313,0,6-2.686,6-5.999
			V18C36,14.687,33.313,12.001,30,12.001z"/>
	</g>
</g>
<g id="Display_19_">
	<g>
		<rect x="4.02" y="18.005" style="fill:#4D4D4D;" width="27.967" height="27.99"/>
	</g>
</g>
<g id="App_Shape_7_">
	<g>
		<circle style="fill:#EAF1F6;" cx="18" cy="32" r="4"/>
	</g>
</g>
<g id="App_Shape_8_">
	<g>
		<circle style="fill:#48A0DC;" cx="22" cy="24" r="2"/>
	</g>
</g>
<g id="App_Shape_9_">
	<g>
		<circle style="fill:#FFCC66;" cx="22" cy="40" r="2"/>
	</g>
</g>
<g id="App_Shape_10_">
	<g>
		<circle style="fill:#88C057;" cx="26" cy="32" r="2"/>
	</g>
</g>
<g id="App_Shape_11_">
	<g>
		<circle style="fill:#9B7CAB;" cx="10" cy="32" r="2"/>
	</g>
</g>
<g id="App_Shape_12_">
	<g>
		<circle style="fill:#FF8833;" cx="14" cy="24" r="2"/>
	</g>
</g>
<g id="App_Shape_13_">
	<g>
		<circle style="fill:#F06EAA;" cx="14" cy="40" r="2"/>
	</g>
</g>
<g>
</g>
<g>
</g>
<g>
</g>
<g>
</g>
<g>
</g>
<g>
</g>
<g>
</g>
<g>
</g>
<g>
</g>
<g>
</g>
<g>
</g>
<g>
</g>
<g>
</g>
<g>
</g>
<g>
</g>
</svg>
