<?xml version="1.0" encoding="iso-8859-1"?>
<!-- Generator: Adobe Illustrator 16.0.0, SVG Export Plug-In . SVG Version: 6.00 Build 0)  -->
<!DOCTYPE svg PUBLIC "-//W3C//DTD SVG 1.1//EN" "http://www.w3.org/Graphics/SVG/1.1/DTD/svg11.dtd">
<svg version="1.1" id="Layer_1" xmlns="http://www.w3.org/2000/svg" xmlns:xlink="http://www.w3.org/1999/xlink" x="0px" y="0px"
	 width="36px" height="64.001px" viewBox="0 0 36 64.001" style="enable-background:new 0 0 36 64.001;" xml:space="preserve">
<g id="Buckle_1_">
	<g>
		<path style="fill-rule:evenodd;clip-rule:evenodd;fill:#FFFFFF;" d="M31.893,11.991c0.045,0.004,0.107,0.01,0.107,0.01
			s-1.449-0.197-2-2L28.222,2c0-1.104-0.909-2-2.031-2H9.937C8.814,0,7.904,0.896,7.904,2L6,10.001c-0.534,2.302-2,2-2,2v16h28v-16
			C31.949,11.996,31.916,11.993,31.893,11.991z M4,52c0,0,1.448,0.197,2,2l1.777,8.001c0,1.104,0.909,2,2.031,2h16.254
			c1.122,0,2.032-0.896,2.032-2L30,54c0.533-2.302,2-2,2-2V34.001H4V52z"/>
	</g>
</g>
<g id="Buckle_Lines">
	<g>
		<path style="fill-rule:evenodd;clip-rule:evenodd;fill:#B3B3B3;" d="M28.222,2c0-1.104-0.909-2-2.031-2H9.937
			C8.814,0,7.904,0.896,7.904,2L7.428,4h21.238L28.222,2z M6,54l0.444,2h23.079L30,54c0.367-1.585,1.178-1.936,1.646-2H4
			C4,52,5.448,52.197,6,54z M30,10l-0.444-1.999H6.476L6,10c-0.368,1.587-1.179,1.937-1.646,2.001H32C32,12.001,30.551,11.804,30,10
			z M7.777,62.001c0,1.104,0.909,2,2.031,2h16.254c1.122,0,2.032-0.896,2.032-2L28.571,60H7.333L7.777,62.001z"/>
	</g>
</g>
<g id="Frame_14_">
	<g>
		<path style="fill:#333333;" d="M30,12.001H6c-3.314,0-6,2.686-6,5.999v28.001C0,49.314,2.686,52,6,52h24c3.313,0,6-2.686,6-5.999
			V18C36,14.687,33.313,12.001,30,12.001z"/>
	</g>
</g>
<g id="Display_18_">
	<g>
		<rect x="4.02" y="18.005" style="fill:#4D4D4D;" width="27.967" height="27.99"/>
	</g>
</g>
<g id="App_Shape">
	<g>
		<circle style="fill:#EAF1F6;" cx="18" cy="32" r="4"/>
	</g>
</g>
<g id="App_Shape_60_">
	<g>
		<circle style="fill:#48A0DC;" cx="22" cy="24" r="2"/>
	</g>
</g>
<g id="App_Shape_58_">
	<g>
		<circle style="fill:#FFCC66;" cx="22" cy="40" r="2"/>
	</g>
</g>
<g id="App_Shape_56_">
	<g>
		<circle style="fill:#88C057;" cx="26" cy="32" r="2"/>
	</g>
</g>
<g id="App_Shape_4_">
	<g>
		<circle style="fill:#9B7CAB;" cx="10" cy="32" r="2"/>
	</g>
</g>
<g id="App_Shape_5_">
	<g>
		<circle style="fill:#FF8833;" cx="14" cy="24" r="2"/>
	</g>
</g>
<g id="App_Shape_6_">
	<g>
		<circle style="fill:#F06EAA;" cx="14" cy="40" r="2"/>
	</g>
</g>
<g>
</g>
<g>
</g>
<g>
</g>
<g>
</g>
<g>
</g>
<g>
</g>
<g>
</g>
<g>
</g>
<g>
</g>
<g>
</g>
<g>
</g>
<g>
</g>
<g>
</g>
<g>
</g>
<g>
</g>
</svg>
