<?xml version="1.0" encoding="iso-8859-1"?>
<!-- Generator: Adobe Illustrator 16.0.0, SVG Export Plug-In . SVG Version: 6.00 Build 0)  -->
<!DOCTYPE svg PUBLIC "-//W3C//DTD SVG 1.1//EN" "http://www.w3.org/Graphics/SVG/1.1/DTD/svg11.dtd">
<svg version="1.1" id="Layer_1" xmlns="http://www.w3.org/2000/svg" xmlns:xlink="http://www.w3.org/1999/xlink" x="0px" y="0px"
	 width="36px" height="70px" viewBox="0 0 36 70" style="enable-background:new 0 0 36 70;" xml:space="preserve">
<g id="Buckle_3_">
	<g>
		<path style="fill-rule:evenodd;clip-rule:evenodd;fill:#E6E6E6;" d="M31.892,13.99C31.938,13.994,32,14,32,14s-1.449-0.197-2-2
			l-1.777-8.001c0-1.104-0.91-2-2.032-2H9.937c-1.122,0-2.032,0.896-2.032,2L6,12c-0.534,2.302-2,2-2,2v16h28V14
			C31.948,13.995,31.916,13.992,31.892,13.99z M4,53.999c0,0,1.448,0.197,2,2L7.777,64c0,1.104,0.909,2,2.031,2h16.254
			c1.123,0,2.032-0.896,2.032-2L30,55.999c0.533-2.302,2-2,2-2V36H4V53.999z"/>
	</g>
</g>
<g id="Buckle_Dots">
	<g>
		<path style="fill-rule:evenodd;clip-rule:evenodd;fill:#999999;" d="M14,12c1.104,0,2-0.896,2-2c0-1.105-0.896-2.001-2-2.001
			S12,8.895,12,10C12,11.104,12.896,12,14,12z M26,12c-1.104,0-2,0.895-2,2c0,1.101,0.891,1.994,1.99,1.999h0.02
			C27.109,15.994,28,15.101,28,14C28,12.895,27.104,12,26,12z M10,12c-1.104,0-2,0.895-2,2c0,1.101,0.891,1.994,1.99,1.999h0.02
			C11.109,15.994,12,15.101,12,14C12,12.895,11.104,12,10,12z M30,12C30,12,30,12,30,12l-0.846-3.807C28.474,8.512,28,9.198,28,10
			C28,11.104,28.896,12,30,12z M22,12c1.104,0,2-0.896,2-2c0-1.105-0.896-2.001-2-2.001S20,8.895,20,10C20,11.104,20.896,12,22,12z
			 M18,12c-1.104,0-2,0.895-2,2c0,1.101,0.891,1.994,1.99,1.999h0.02C19.109,15.994,20,15.101,20,14C20,12.895,19.104,12,18,12z
			 M30,49.999c-1.104,0-2,0.896-2,2s0.896,2,2,2s2-0.896,2-2S31.104,49.999,30,49.999z M8,10c0-0.78-0.45-1.448-1.101-1.778
			L6,11.999C6,12,6,12,6,12C7.104,12,8,11.104,8,10z M10,7.999c1.104,0,2-0.896,2-2s-0.896-2-2-2s-2,0.896-2,2S8.896,7.999,10,7.999
			z M22,57.999c-1.104,0-2,0.896-2,2.001c0,1.104,0.896,1.999,2,1.999s2-0.896,2-1.999C24,58.895,23.104,57.999,22,57.999z
			 M14,57.999c-1.104,0-2,0.896-2,2.001c0,1.104,0.896,1.999,2,1.999s2-0.896,2-1.999C16,58.895,15.104,57.999,14,57.999z M26,7.999
			c1.104,0,2-0.896,2-2s-0.896-2-2-2s-2,0.896-2,2S24.896,7.999,26,7.999z M18,7.999c1.104,0,2-0.896,2-2s-0.896-2-2-2s-2,0.896-2,2
			S16.896,7.999,18,7.999z M8,51.999c0-1.104-0.896-2-2-2s-2,0.896-2,2s0.896,2,2,2S8,53.104,8,51.999z M14,3.999
			c1.104,0,2-0.896,2-2h-4C12,3.104,12.896,3.999,14,3.999z M28,60c0,0.601,0.271,1.133,0.69,1.5l0.817-3.432
			C28.643,58.288,28,59.065,28,60z M10,61.999c-1.104,0-2,0.896-2,2.001c0,1.104,0.896,2,2,2s2-0.896,2-2
			C12,62.895,11.104,61.999,10,61.999z M22,3.999c1.104,0,2-0.896,2-2h-4C20,3.104,20.896,3.999,22,3.999z M18,61.999
			c-1.104,0-2,0.896-2,2.001c0,1.104,0.896,2,2,2s2-0.896,2-2C20,62.895,19.104,61.999,18,61.999z M26,61.999
			c-1.104,0-2,0.896-2,2.001c0,1.104,0.896,2,2,2s2-0.896,2-2C28,62.895,27.104,61.999,26,61.999z M6.457,58.057l0.778,3.504
			C7.697,61.194,8,60.635,8,60C8,59.053,7.341,58.264,6.457,58.057z M14,53.999c1.104,0,2-0.896,2-2s-0.896-2-2-2s-2,0.896-2,2
			S12.896,53.999,14,53.999z M10,53.999c-1.104,0-2,0.896-2,2s0.896,2,2,2s2-0.896,2-2S11.104,53.999,10,53.999z M22,53.999
			c1.104,0,2-0.896,2-2s-0.896-2-2-2s-2,0.896-2,2S20.896,53.999,22,53.999z M26,57.999c1.104,0,2-0.896,2-2s-0.896-2-2-2
			s-2,0.896-2,2S24.896,57.999,26,57.999z M18,57.999c1.104,0,2-0.896,2-2s-0.896-2-2-2s-2,0.896-2,2S16.896,57.999,18,57.999z"/>
	</g>
</g>
<g id="Frame_16_">
	<g>
		<path style="fill:#333333;" d="M30,14H6c-3.313,0-6,2.686-6,5.999V48c0,3.313,2.687,5.999,6,5.999h24c3.313,0,6-2.686,6-5.999
			V19.999C36,16.686,33.313,14,30,14z"/>
	</g>
</g>
<g id="Display_20_">
	<g>
		<rect x="4.02" y="20.004" style="fill:#4D4D4D;" width="27.967" height="27.99"/>
	</g>
</g>
<g id="App_Shape_14_">
	<g>
		<circle style="fill:#EAF1F6;" cx="18" cy="33.999" r="4"/>
	</g>
</g>
<g id="App_Shape_15_">
	<g>
		<circle style="fill:#48A0DC;" cx="22" cy="25.999" r="2"/>
	</g>
</g>
<g id="App_Shape_16_">
	<g>
		<circle style="fill:#FFCC66;" cx="22" cy="41.999" r="2"/>
	</g>
</g>
<g id="App_Shape_17_">
	<g>
		<circle style="fill:#88C057;" cx="26" cy="33.999" r="2"/>
	</g>
</g>
<g id="App_Shape_18_">
	<g>
		<circle style="fill:#9B7CAB;" cx="10" cy="33.999" r="2"/>
	</g>
</g>
<g id="App_Shape_19_">
	<g>
		<circle style="fill:#FF8833;" cx="14" cy="25.999" r="2"/>
	</g>
</g>
<g id="App_Shape_20_">
	<g>
		<circle style="fill:#F06EAA;" cx="14" cy="41.999" r="2"/>
	</g>
</g>
<g>
</g>
<g>
</g>
<g>
</g>
<g>
</g>
<g>
</g>
<g>
</g>
<g>
</g>
<g>
</g>
<g>
</g>
<g>
</g>
<g>
</g>
<g>
</g>
<g>
</g>
<g>
</g>
<g>
</g>
</svg>
