<?xml version="1.0" encoding="iso-8859-1"?>
<!-- Generator: Adobe Illustrator 16.0.0, SVG Export Plug-In . SVG Version: 6.00 Build 0)  -->
<!DOCTYPE svg PUBLIC "-//W3C//DTD SVG 1.1//EN" "http://www.w3.org/Graphics/SVG/1.1/DTD/svg11.dtd">
<svg version="1.1" id="Layer_1" xmlns="http://www.w3.org/2000/svg" xmlns:xlink="http://www.w3.org/1999/xlink" x="0px" y="0px"
	 width="64px" height="44px" viewBox="0 0 64 44" style="enable-background:new 0 0 64 44;" xml:space="preserve">
<g id="Keys_1_">
	<g>
		<path style="fill-rule:evenodd;clip-rule:evenodd;fill:#CCCCCC;" d="M60,24H50c-2.209,0-4,1.791-4,4v12c0,2.209,1.791,4,4,4h10
			c2.209,0,4-1.791,4-4V28C64,25.791,62.209,24,60,24z M38,24H26c-2.209,0-4,1.791-4,4v12c0,2.209,1.791,4,4,4h12
			c2.209,0,4-1.791,4-4V28C42,25.791,40.209,24,38,24z M38,0H26c-2.209,0-4,1.791-4,4v12c0,2.209,1.791,4,4,4h12
			c2.209,0,4-1.791,4-4V4C42,1.791,40.209,0,38,0z M14,24H4c-2.209,0-4,1.791-4,4v12c0,2.209,1.791,4,4,4h10c2.209,0,4-1.791,4-4V28
			C18,25.791,16.209,24,14,24z"/>
	</g>
</g>
<g id="Arrows">
	<g>
		<path style="fill-rule:evenodd;clip-rule:evenodd;fill:#808080;" d="M28,16h8l-4-6L28,16z M32,36l4-6h-8L32,36z M50,28v8l6-4
			L50,28z M14,36v-8l-6,4L14,36z"/>
	</g>
</g>
<g>
</g>
<g>
</g>
<g>
</g>
<g>
</g>
<g>
</g>
<g>
</g>
<g>
</g>
<g>
</g>
<g>
</g>
<g>
</g>
<g>
</g>
<g>
</g>
<g>
</g>
<g>
</g>
<g>
</g>
</svg>
