<?xml version="1.0" encoding="iso-8859-1"?>
<!-- Generator: Adobe Illustrator 16.0.0, SVG Export Plug-In . SVG Version: 6.00 Build 0)  -->
<!DOCTYPE svg PUBLIC "-//W3C//DTD SVG 1.1//EN" "http://www.w3.org/Graphics/SVG/1.1/DTD/svg11.dtd">
<svg version="1.1" id="Layer_1" xmlns="http://www.w3.org/2000/svg" xmlns:xlink="http://www.w3.org/1999/xlink" x="0px" y="0px"
	 width="64px" height="56.001px" viewBox="0 0 64 56.001" style="enable-background:new 0 0 64 56.001;" xml:space="preserve">
<g id="Battery">
	<g>
		<path style="fill:#CCCCCC;" d="M0,12.001v32.001c0,2.208,1.791,3.999,4,3.999h10l2-3.999H6c-1.104,0-2-0.896-2-2.002V14.001
			c0-1.104,0.896-2,2-2h16l4-4H4C1.791,8.001,0,9.791,0,12.001z M60,20.002v-8.001c0-2.21-1.791-4-4-4H44l-2,4h12
			c1.104,0,2,0.896,2,2V42c0,1.105-0.896,2.002-2,2.002H32l-4,3.999h28c2.209,0,4-1.791,4-3.999v-8c2.209,0,4-1.791,4-4.002v-7.998
			C64,21.793,62.209,20.002,60,20.002z"/>
	</g>
</g>
<g id="Light">
	<g>
		<polygon style="fill:#FFCC66;" points="50,22.001 34,22.001 40,0 12,30.001 28,30.001 16,56.001 		"/>
	</g>
</g>
<g>
</g>
<g>
</g>
<g>
</g>
<g>
</g>
<g>
</g>
<g>
</g>
<g>
</g>
<g>
</g>
<g>
</g>
<g>
</g>
<g>
</g>
<g>
</g>
<g>
</g>
<g>
</g>
<g>
</g>
</svg>
