<?xml version="1.0" encoding="iso-8859-1"?>
<!-- Generator: Adobe Illustrator 16.0.0, SVG Export Plug-In . SVG Version: 6.00 Build 0)  -->
<!DOCTYPE svg PUBLIC "-//W3C//DTD SVG 1.1//EN" "http://www.w3.org/Graphics/SVG/1.1/DTD/svg11.dtd">
<svg version="1.1" id="Layer_1" xmlns="http://www.w3.org/2000/svg" xmlns:xlink="http://www.w3.org/1999/xlink" x="0px" y="0px"
	 width="64.001px" height="40px" viewBox="0 0 64.001 40" style="enable-background:new 0 0 64.001 40;" xml:space="preserve">
<g id="Battery_3_">
	<g>
		<path style="fill-rule:evenodd;clip-rule:evenodd;fill:#CCCCCC;" d="M60,12.001V4c0-2.21-1.79-4-4-4H4C1.791,0,0,1.79,0,4v31.999
			C0,38.209,1.791,40,4,40h52c2.21,0,4-1.791,4-4.001v-8c2.21,0,4.001-1.789,4.001-4v-7.998C64.001,13.79,62.21,12.001,60,12.001z
			 M56,33.999c0,1.105-0.896,2-2,2H6c-1.104,0-2-0.895-2-2V6c0-1.105,0.896-2,2-2h48c1.104,0,2,0.895,2,2V33.999z"/>
	</g>
</g>
<g id="Full_2_">
	<g>
		<path style="fill-rule:evenodd;clip-rule:evenodd;fill:#88C057;" d="M12,7.999c-2.209,0-4,1.792-4,4.002v15.998
			C8,30.209,9.791,32,12,32c2.21,0,4.001-1.791,4.001-4.001V12.001C16.001,9.791,14.21,7.999,12,7.999z M24,7.999
			c-2.209,0-4,1.792-4,4.002v15.998C20,30.209,21.791,32,24,32c2.21,0,4.001-1.791,4.001-4.001V12.001
			C28.001,9.791,26.21,7.999,24,7.999z M36,7.999c-2.209,0-3.999,1.792-3.999,4.002v15.998c0,2.21,1.79,4.001,3.999,4.001
			c2.21,0,4-1.791,4-4.001V12.001C40,9.791,38.21,7.999,36,7.999z"/>
	</g>
</g>
<g>
</g>
<g>
</g>
<g>
</g>
<g>
</g>
<g>
</g>
<g>
</g>
<g>
</g>
<g>
</g>
<g>
</g>
<g>
</g>
<g>
</g>
<g>
</g>
<g>
</g>
<g>
</g>
<g>
</g>
</svg>
