<?xml version="1.0" encoding="iso-8859-1"?>
<!-- Generator: Adobe Illustrator 16.0.0, SVG Export Plug-In . SVG Version: 6.00 Build 0)  -->
<!DOCTYPE svg PUBLIC "-//W3C//DTD SVG 1.1//EN" "http://www.w3.org/Graphics/SVG/1.1/DTD/svg11.dtd">
<svg version="1.1" id="Layer_1" xmlns="http://www.w3.org/2000/svg" xmlns:xlink="http://www.w3.org/1999/xlink" x="0px" y="0px"
	 width="36px" height="64px" viewBox="0 0 36 64" style="enable-background:new 0 0 36 64;" xml:space="preserve">
<g id="Bevel_19_">
	<g>
		<path style="fill:#666666;" d="M32,0H4C1.791,0,0,1.791,0,4v56c0,2.209,1.791,4,4,4h28c2.209,0,4-1.791,4-4V4
			C36,1.791,34.209,0,32,0z"/>
	</g>
</g>
<g id="Keyboard_BG">
	<g>
		<path style="fill-rule:evenodd;clip-rule:evenodd;fill:#4D4D4D;" d="M4,36v16v4c0,2.209,1.791,4,4,4h20c2.209,0,4-1.791,4-4v-4V36
			H4z"/>
	</g>
</g>
<g id="Keyboard_2_">
	<g>
		<path style="fill-rule:evenodd;clip-rule:evenodd;fill:#808080;" d="M10,60h4v-4h-4V60z M10,54h4v-4.001h-4V54z M16,60h4v-4h-4V60
			z M10,48h4v-4h-4V48z M8,60v-4H4C4,58.209,5.791,60,8,60z M4,54h4v-4.001H4V54z M4,48h4v-4H4V48z M22,54h4v-4.001h-4V54z M28,54h4
			v-4.001h-4V54z M28,60c2.209,0,4-1.791,4-4h-4V60z M16,54h4v-4.001h-4V54z M28,44v4h4v-4H28z M16,48h4v-4h-4V48z M22,60h4v-4h-4
			V60z M22,48h4v-4h-4V48z"/>
	</g>
</g>
<g id="Home_Btn_6_">
	<g>
		<circle style="fill:#999999;" cx="18" cy="40" r="2"/>
	</g>
</g>
<g id="Display_15_">
	<g>
		<rect x="4" y="7.997" style="fill:#333333;" width="28" height="28"/>
	</g>
</g>
<g>
</g>
<g>
</g>
<g>
</g>
<g>
</g>
<g>
</g>
<g>
</g>
<g>
</g>
<g>
</g>
<g>
</g>
<g>
</g>
<g>
</g>
<g>
</g>
<g>
</g>
<g>
</g>
<g>
</g>
</svg>
