<?xml version="1.0" encoding="iso-8859-1"?>
<!-- Generator: Adobe Illustrator 16.0.0, SVG Export Plug-In . SVG Version: 6.00 Build 0)  -->
<!DOCTYPE svg PUBLIC "-//W3C//DTD SVG 1.1//EN" "http://www.w3.org/Graphics/SVG/1.1/DTD/svg11.dtd">
<svg version="1.1" id="Layer_1" xmlns="http://www.w3.org/2000/svg" xmlns:xlink="http://www.w3.org/1999/xlink" x="0px" y="0px"
	 width="36px" height="64px" viewBox="0 0 36 64" style="enable-background:new 0 0 36 64;" xml:space="preserve">
<g id="Bevel_18_">
	<g>
		<path style="fill:#4D4D4D;" d="M32,0H4C1.791,0,0,1.791,0,4v56c0,2.209,1.791,4,4,4h28c2.209,0,4-1.791,4-4V4
			C36,1.791,34.209,0,32,0z"/>
	</g>
</g>
<g id="Antena_Line">
	<g>
		<rect y="12" style="fill:#666666;" width="36" height="4"/>
	</g>
</g>
<g id="Camera_Frame_1_">
	<g>
		<path style="fill:#333333;" d="M14,4H6C4.896,4,4,4.895,4,6c0,1.104,0.896,2,2,2h8c1.104,0,2-0.896,2-2C16,4.895,15.104,4,14,4z"
			/>
	</g>
</g>
<g id="Blitz_1_">
	<g>
		<circle style="fill:#999999;" cx="14" cy="6" r="2"/>
	</g>
</g>
<g>
</g>
<g>
</g>
<g>
</g>
<g>
</g>
<g>
</g>
<g>
</g>
<g>
</g>
<g>
</g>
<g>
</g>
<g>
</g>
<g>
</g>
<g>
</g>
<g>
</g>
<g>
</g>
<g>
</g>
</svg>
