<?xml version="1.0" encoding="iso-8859-1"?>
<!-- Generator: Adobe Illustrator 16.0.0, SVG Export Plug-In . SVG Version: 6.00 Build 0)  -->
<!DOCTYPE svg PUBLIC "-//W3C//DTD SVG 1.1//EN" "http://www.w3.org/Graphics/SVG/1.1/DTD/svg11.dtd">
<svg version="1.1" id="Layer_1" xmlns="http://www.w3.org/2000/svg" xmlns:xlink="http://www.w3.org/1999/xlink" x="0px" y="0px"
	 width="37.982px" height="63.993px" viewBox="0 0 37.982 63.993" style="enable-background:new 0 0 37.982 63.993;"
	 xml:space="preserve">
<g id="Bluetooth">
	<g>
		<path style="fill:#48A0DC;" d="M23.723,31.997l13.212-12.02c0.666-0.609,1.048-1.472,1.048-2.379c0-0.908-0.382-1.771-1.048-2.379
			L21.108,0.821c-0.928-0.845-2.264-1.06-3.404-0.545c-1.142,0.514-1.723,2.459-1.723,3.722v20L5.282,15.22
			c-1.297-1.181-3.3-1.076-4.47,0.237c-1.169,1.313-1.064,3.338,0.236,4.521l13.211,12.02L1.049,44.018
			c-1.3,1.182-1.405,3.205-0.235,4.518c1.169,1.316,3.171,1.422,4.47,0.238l10.698-8.775v20.001c0,1.264,0.581,3.204,1.723,3.719
			c0.413,0.186,0.852,0.275,1.287,0.275c0.767,0,1.525-0.282,2.117-0.82l15.826-14.399c0.666-0.606,1.048-1.471,1.048-2.378
			c0-0.906-0.382-1.771-1.049-2.381L23.723,31.997z M21.969,10.384l8.116,7.215l-8.116,7.214V10.384z M21.969,53.609V39.18
			l8.116,7.216L21.969,53.609z"/>
	</g>
</g>
<g>
</g>
<g>
</g>
<g>
</g>
<g>
</g>
<g>
</g>
<g>
</g>
<g>
</g>
<g>
</g>
<g>
</g>
<g>
</g>
<g>
</g>
<g>
</g>
<g>
</g>
<g>
</g>
<g>
</g>
</svg>
