<?xml version="1.0" encoding="iso-8859-1"?>
<!-- Generator: Adobe Illustrator 16.0.0, SVG Export Plug-In . SVG Version: 6.00 Build 0)  -->
<!DOCTYPE svg PUBLIC "-//W3C//DTD SVG 1.1//EN" "http://www.w3.org/Graphics/SVG/1.1/DTD/svg11.dtd">
<svg version="1.1" id="Layer_1" xmlns="http://www.w3.org/2000/svg" xmlns:xlink="http://www.w3.org/1999/xlink" x="0px" y="0px"
	 width="52px" height="64px" viewBox="0 0 52 64" style="enable-background:new 0 0 52 64;" xml:space="preserve">
<g id="Body_11_">
	<g>
		<path style="fill:#E6E6E6;" d="M46,0H6C4.896,0,4,0.896,4,2.001v40c0,1.104,0.896,2,2,2h40c1.104,0,2-0.896,2-2v-40
			C48,0.896,47.104,0,46,0z"/>
	</g>
</g>
<g id="Divider">
	<g>
		<path style="fill:#CCCCCC;" d="M50,20.001H2c-1.104,0-2,0.895-2,1.999s0.896,2.001,2,2.001h48c1.104,0,2-0.896,2-2.001
			S51.104,20.001,50,20.001z"/>
	</g>
</g>
<g id="Cable_21_">
	<g>
		<rect x="8" y="44.001" style="fill:#FFCC66;" width="4" height="19.999"/>
	</g>
</g>
<g id="Cable_4_">
	<g>
		<rect x="16" y="44.001" style="fill:#808080;" width="4" height="19.999"/>
	</g>
</g>
<g id="Cable_5_">
	<g>
		<rect x="24" y="44.001" style="fill:#88C057;" width="4" height="19.999"/>
	</g>
</g>
<g id="Cable_6_">
	<g>
		<rect x="32" y="44.001" style="fill:#48A0DC;" width="4" height="19.999"/>
	</g>
</g>
<g id="Cable_7_">
	<g>
		<rect x="40" y="44.001" style="fill:#9B7CAB;" width="4" height="19.999"/>
	</g>
</g>
<g>
</g>
<g>
</g>
<g>
</g>
<g>
</g>
<g>
</g>
<g>
</g>
<g>
</g>
<g>
</g>
<g>
</g>
<g>
</g>
<g>
</g>
<g>
</g>
<g>
</g>
<g>
</g>
<g>
</g>
</svg>
