<?xml version="1.0" encoding="iso-8859-1"?>
<!-- Generator: Adobe Illustrator 16.0.0, SVG Export Plug-In . SVG Version: 6.00 Build 0)  -->
<!DOCTYPE svg PUBLIC "-//W3C//DTD SVG 1.1//EN" "http://www.w3.org/Graphics/SVG/1.1/DTD/svg11.dtd">
<svg version="1.1" id="Layer_1" xmlns="http://www.w3.org/2000/svg" xmlns:xlink="http://www.w3.org/1999/xlink" x="0px" y="0px"
	 width="64px" height="64px" viewBox="0 0 64 64" style="enable-background:new 0 0 64 64;" xml:space="preserve">
<g id="Pins_11_">
	<g>
		<path style="fill-rule:evenodd;clip-rule:evenodd;fill:#FFCC66;" d="M48,0c-1.104,0-2,0.895-2,2v60c0,1.104,0.896,2,2,2
			s2-0.896,2-2V2C50,0.895,49.104,0,48,0z M56,0c-1.104,0-2,0.895-2,2v60c0,1.104,0.896,2,2,2s2-0.896,2-2V2C58,0.895,57.104,0,56,0
			z M8,0C6.896,0,6,0.895,6,2v60c0,1.104,0.896,2,2,2s2-0.896,2-2V2C10,0.895,9.104,0,8,0z M16,0c-1.104,0-2,0.895-2,2v60
			c0,1.104,0.896,2,2,2s2-0.896,2-2V2C18,0.895,17.104,0,16,0z M24,0c-1.104,0-2,0.895-2,2v60c0,1.104,0.896,2,2,2s2-0.896,2-2V2
			C26,0.895,25.104,0,24,0z M32,0c-1.105,0-2,0.895-2,2v60c0,1.104,0.895,2,2,2c1.104,0,2-0.896,2-2V2C34,0.895,33.104,0,32,0z
			 M40,0c-1.104,0-2,0.895-2,2v60c0,1.104,0.896,2,2,2s2-0.896,2-2V2C42,0.895,41.104,0,40,0z"/>
	</g>
</g>
<g id="Body_27_">
	<g>
		<path style="fill:#88C057;" d="M60,10H4c-2.209,0-4,1.791-4,4v36c0,2.209,1.791,4,4,4h56c2.209,0,4-1.791,4-4V14
			C64,11.791,62.209,10,60,10z"/>
	</g>
</g>
<g id="Shape_8_">
	<g>
		<path style="fill:#668A47;" d="M58,14H6c-1.104,0-2,0.895-2,2v32c0,1.104,0.896,2,2,2h52c1.104,0,2-0.896,2-2V16
			C60,14.895,59.104,14,58,14z"/>
	</g>
</g>
<g>
</g>
<g>
</g>
<g>
</g>
<g>
</g>
<g>
</g>
<g>
</g>
<g>
</g>
<g>
</g>
<g>
</g>
<g>
</g>
<g>
</g>
<g>
</g>
<g>
</g>
<g>
</g>
<g>
</g>
</svg>
