<?xml version="1.0" encoding="iso-8859-1"?>
<!-- Generator: Adobe Illustrator 16.0.0, SVG Export Plug-In . SVG Version: 6.00 Build 0)  -->
<!DOCTYPE svg PUBLIC "-//W3C//DTD SVG 1.1//EN" "http://www.w3.org/Graphics/SVG/1.1/DTD/svg11.dtd">
<svg version="1.1" id="Layer_1" xmlns="http://www.w3.org/2000/svg" xmlns:xlink="http://www.w3.org/1999/xlink" x="0px" y="0px"
	 width="64px" height="46px" viewBox="0 0 64 46" style="enable-background:new 0 0 64 46;" xml:space="preserve">
<g id="Cloud_3_">
	<g>
		<path style="fill-rule:evenodd;clip-rule:evenodd;fill:#9B7CAB;" d="M53.952,18.6c0.007-0.203,0.031-0.401,0.031-0.606
			C53.982,8.056,45.921,0,35.978,0c-7.438,0-13.82,4.509-16.565,10.941c-1.351-0.594-2.842-0.929-4.412-0.929
			c-6.071,0-10.992,4.926-10.992,11.001c0,0.387,0.021,0.769,0.06,1.145C1.554,24.686,0,28.167,0,32.013
			C0,39.738,6.266,46,13.995,46c0.01,0,0.02-0.001,0.03-0.001V46h35.948v-0.001c0.01,0,0.02,0.001,0.03,0.001
			C57.733,46,64,39.738,64,32.013C64,25.659,59.757,20.304,53.952,18.6z"/>
	</g>
</g>
<g id="Arrow">
	<g>
		<path style="fill-rule:evenodd;clip-rule:evenodd;fill:#FFFFFF;" d="M39.411,22.479l-5.841-5.86
			c-0.325-0.326-0.731-0.51-1.153-0.573c-0.135-0.028-0.274-0.045-0.417-0.045c-0.562,0-1.066,0.232-1.43,0.604
			c-0.017,0.016-0.038,0.025-0.055,0.042l-5.866,5.846c-0.81,0.808-0.81,2.115,0,2.923c0.81,0.807,2.123,0.807,2.933,0L30,23.005
			v10.996c0,1.104,0.895,2,2,2c1.104,0,2-0.896,2-2V22.912l2.49,2.499c0.807,0.81,2.114,0.81,2.921,0
			C40.218,24.602,40.218,23.289,39.411,22.479z"/>
	</g>
</g>
<g>
</g>
<g>
</g>
<g>
</g>
<g>
</g>
<g>
</g>
<g>
</g>
<g>
</g>
<g>
</g>
<g>
</g>
<g>
</g>
<g>
</g>
<g>
</g>
<g>
</g>
<g>
</g>
<g>
</g>
</svg>
