<?xml version="1.0" encoding="iso-8859-1"?>
<!-- Generator: Adobe Illustrator 16.0.0, SVG Export Plug-In . SVG Version: 6.00 Build 0)  -->
<!DOCTYPE svg PUBLIC "-//W3C//DTD SVG 1.1//EN" "http://www.w3.org/Graphics/SVG/1.1/DTD/svg11.dtd">
<svg version="1.1" id="Layer_1" xmlns="http://www.w3.org/2000/svg" xmlns:xlink="http://www.w3.org/1999/xlink" x="0px" y="0px"
	 width="64px" height="46px" viewBox="0 0 64 46" style="enable-background:new 0 0 64 46;" xml:space="preserve">
<g id="Cloud">
	<g>
		<path style="fill-rule:evenodd;clip-rule:evenodd;fill:#48A0DC;" d="M53.952,18.6c0.007-0.203,0.03-0.401,0.03-0.606
			C53.982,8.056,45.921,0,35.978,0c-7.438,0-13.82,4.509-16.565,10.941c-1.352-0.594-2.842-0.929-4.412-0.929
			c-6.07,0-10.992,4.926-10.992,11.001c0,0.387,0.021,0.769,0.06,1.145C1.555,24.686,0,28.167,0,32.013C0,39.738,6.266,46,13.995,46
			c0.011,0,0.021-0.001,0.031-0.001V46h35.947v-0.001c0.01,0,0.021,0.001,0.03,0.001C57.733,46,64,39.738,64,32.013
			C64,25.659,59.758,20.304,53.952,18.6z"/>
	</g>
</g>
<g id="Refresh">
	<g>
		<path style="fill-rule:evenodd;clip-rule:evenodd;fill:#FFFFFF;" d="M20.18,24H22h2.263H28c1.104,0,2-0.895,2-2
			c0-1.104-0.896-2-2-2h-1.275c1.406-1.242,3.25-2,5.275-2c3.726,0,6.848,2.552,7.737,6h4.083c-0.954-5.673-5.876-9.999-11.82-9.999
			c-3.078,0-5.88,1.16-8,3.065v-1.065c0-1.106-0.896-2-2-2s-2,0.894-2,2V22c0,0.193,0.036,0.377,0.087,0.554
			c0.011,0.035,0.021,0.069,0.032,0.103c0.061,0.175,0.14,0.34,0.244,0.488C20.294,23.427,20.229,23.71,20.18,24z M43.913,29.446
			c-0.011-0.035-0.021-0.069-0.032-0.103c-0.061-0.175-0.14-0.34-0.244-0.488c0.069-0.282,0.135-0.566,0.184-0.855H42h-2.263H36
			c-1.104,0-2,0.896-2,1.999C34,31.105,34.896,32,36,32h1.276c-1.407,1.243-3.25,2.001-5.276,2.001
			c-3.727,0-6.849-2.552-7.738-6.001H20.18c0.954,5.674,5.875,10,11.82,10c3.077,0,5.879-1.16,8-3.065V36c0,1.105,0.896,2,2,2
			s2-0.895,2-2v-6.001C44,29.806,43.964,29.623,43.913,29.446z"/>
	</g>
</g>
<g>
</g>
<g>
</g>
<g>
</g>
<g>
</g>
<g>
</g>
<g>
</g>
<g>
</g>
<g>
</g>
<g>
</g>
<g>
</g>
<g>
</g>
<g>
</g>
<g>
</g>
<g>
</g>
<g>
</g>
</svg>
