<?xml version="1.0" encoding="iso-8859-1"?>
<!-- Generator: Adobe Illustrator 16.0.0, SVG Export Plug-In . SVG Version: 6.00 Build 0)  -->
<!DOCTYPE svg PUBLIC "-//W3C//DTD SVG 1.1//EN" "http://www.w3.org/Graphics/SVG/1.1/DTD/svg11.dtd">
<svg version="1.1" id="Layer_1" xmlns="http://www.w3.org/2000/svg" xmlns:xlink="http://www.w3.org/1999/xlink" x="0px" y="0px"
	 width="64px" height="46px" viewBox="0 0 64 46" style="enable-background:new 0 0 64 46;" xml:space="preserve">
<g id="Cloud_1_">
	<g>
		<path style="fill-rule:evenodd;clip-rule:evenodd;fill:#ED7161;" d="M53.952,18.6c0.007-0.203,0.03-0.401,0.03-0.606
			C53.982,8.056,45.921,0,35.978,0c-7.438,0-13.821,4.509-16.566,10.94c-1.351-0.594-2.841-0.929-4.411-0.929
			c-6.071,0-10.992,4.926-10.992,11.001c0,0.387,0.021,0.769,0.06,1.145C1.555,24.686,0,28.167,0,32.013
			C0,39.738,6.266,46,13.995,46c0.01,0,0.021-0.001,0.03-0.001V46h35.948v-0.001c0.01,0,0.021,0.001,0.03,0.001
			C57.733,46,64,39.738,64,32.013C64,25.659,59.758,20.304,53.952,18.6z"/>
	</g>
</g>
<g id="Remove">
	<g>
		<path style="fill-rule:evenodd;clip-rule:evenodd;fill:#FFFFFF;" d="M39.43,32.729l-4.703-4.702l4.703-4.702
			c0.743-0.743,0.743-1.948,0-2.691c-0.743-0.742-1.948-0.742-2.691,0l-4.702,4.703l-4.763-4.762c-0.746-0.747-1.955-0.747-2.701,0
			c-0.746,0.745-0.746,1.953,0,2.701l4.763,4.762l-4.705,4.705c-0.743,0.743-0.743,1.947,0,2.69s1.947,0.743,2.69,0l4.705-4.705
			l4.703,4.702c0.746,0.747,1.955,0.747,2.701,0C40.176,34.686,40.176,33.475,39.43,32.729z"/>
	</g>
</g>
<g>
</g>
<g>
</g>
<g>
</g>
<g>
</g>
<g>
</g>
<g>
</g>
<g>
</g>
<g>
</g>
<g>
</g>
<g>
</g>
<g>
</g>
<g>
</g>
<g>
</g>
<g>
</g>
<g>
</g>
</svg>
