<?xml version="1.0" encoding="iso-8859-1"?>
<!-- Generator: Adobe Illustrator 16.0.0, SVG Export Plug-In . SVG Version: 6.00 Build 0)  -->
<!DOCTYPE svg PUBLIC "-//W3C//DTD SVG 1.1//EN" "http://www.w3.org/Graphics/SVG/1.1/DTD/svg11.dtd">
<svg version="1.1" id="Layer_1" xmlns="http://www.w3.org/2000/svg" xmlns:xlink="http://www.w3.org/1999/xlink" x="0px" y="0px"
	 width="64px" height="64px" viewBox="0 0 64 64" style="enable-background:new 0 0 64 64;" xml:space="preserve">
<g id="Pins_10_">
	<g>
		<path style="fill-rule:evenodd;clip-rule:evenodd;fill:#FFCC66;" d="M62,26c1.104,0,2-0.896,2-2c0-1.105-0.896-2-2-2H50v-4h12
			c1.104,0,2-0.896,2-2c0-1.105-0.896-2-2-2H50V2c0-1.105-0.896-2-2-2c-1.105,0-2,0.895-2,2v12h-4V2c0-1.105-0.896-2-2-2
			s-2,0.895-2,2v12h-4V2c0-1.105-0.896-2-2-2s-2,0.895-2,2v12h-4V2c0-1.105-0.896-2-2-2s-2,0.895-2,2v12h-4V2c0-1.105-0.896-2-2-2
			c-1.105,0-2,0.895-2,2v12H2c-1.104,0-2,0.895-2,2c0,1.104,0.896,2,2,2h12v4H2c-1.104,0-2,0.895-2,2c0,1.104,0.896,2,2,2h12v4H2
			c-1.104,0-2,0.895-2,2c0,1.104,0.896,2,2,2h12v4H2c-1.104,0-2,0.895-2,1.999C0,41.104,0.896,42,2,42h12v4H2c-1.104,0-2,0.895-2,2
			c0,1.104,0.896,2,2,2h12v12c0,1.104,0.895,2,2,2c1.104,0,2-0.896,2-2V50h4v12c0,1.104,0.896,2,2,2s2-0.896,2-2V50h4v12
			c0,1.104,0.896,2,2,2s2-0.896,2-2V50h4v12c0,1.104,0.896,2,2,2s2-0.896,2-2V50h4v12c0,1.104,0.895,2,2,2c1.104,0,2-0.896,2-2V50
			h12c1.104,0,2-0.896,2-2c0-1.105-0.896-2-2-2H50v-4h12c1.104,0,2-0.896,2-2.001C64,38.895,63.104,38,62,38H50v-4h12
			c1.104,0,2-0.896,2-2c0-1.105-0.896-2-2-2H50v-4H62z M46,18v4h-4v-4H46z M38,18v4h-4v-4H38z M30,34v4h-4v-4H30z M26,30v-4h4v4H26z
			 M34,34h4v4h-4V34z M34,30v-4h4v4H34z M30,18v4h-4v-4H30z M18,18h4v4h-4V18z M18,26h4v4h-4V26z M18,34h4v4h-4V34z M18,46v-4h4v4
			H18z M26,46v-4h4v4H26z M34,46v-4h4v4H34z M46,46h-4v-4h4V46z M46,38h-4v-4h4V38z M46,30h-4v-4h4V30z"/>
	</g>
</g>
<g id="Body_26_">
	<g>
		<path style="fill:#4D4D4D;" d="M50,10H14c-2.209,0-4,1.791-4,4v36c0,2.209,1.791,4,4,4h36c2.209,0,4-1.791,4-4V14
			C54,11.791,52.209,10,50,10z"/>
	</g>
</g>
<g id="Shape_7_">
	<g>
		<path style="fill:#808080;" d="M48,14H16c-1.105,0-2,0.895-2,2v32c0,1.104,0.895,2,2,2h32c1.104,0,2-0.896,2-2V16
			C50,14.895,49.104,14,48,14z"/>
	</g>
</g>
<g id="_x33_2">
	<g>
		<path style="fill-rule:evenodd;clip-rule:evenodd;fill:#FFFFFF;" d="M30,23.998c0-1.105-0.896-2-2.001-2h-8c-1.104,0-2,0.895-2,2
			c0,1.104,0.896,2,2,2h4.31l-1.724,2.586c-0.362,0.361-0.586,0.861-0.586,1.414c0,1.104,0.896,1.999,2,1.999s2,0.896,2,2.001
			s-0.896,2-2,2s-2-0.896-2-2s-0.896-2.001-2-2.001s-2,0.896-2,2.001c0,3.313,2.687,6,6,6s6.001-2.687,6.001-6
			c0-2.175-1.161-4.073-2.894-5.125l2.306-3.46C29.775,25.052,30,24.551,30,23.998z M44,36h-3.386l3.586-3.701l-0.023-0.018
			C45.296,31.193,46,29.684,46,28c0-3.314-2.687-6-6-6c-3.314,0-6,2.686-6,6c0,1.104,0.896,2,2,2c1.09,0,1.973-0.873,1.996-1.957
			c0.003,0,0.006,0,0.009,0C38.004,28.028,38,28.015,38,28c0-1.105,0.896-2,2-2s2,0.895,2,2c0,0.641-0.307,1.205-0.776,1.571
			l0.005,0.007c-0.112,0.084-0.201,0.189-0.292,0.293l-0.018-0.013l-6.239,6.64l0.006,0.004C34.269,36.869,34,37.4,34,38
			c0,1.105,0.896,2,2,2h8c1.104,0,2-0.895,2-2C46,36.896,45.104,36,44,36z"/>
	</g>
</g>
<g>
</g>
<g>
</g>
<g>
</g>
<g>
</g>
<g>
</g>
<g>
</g>
<g>
</g>
<g>
</g>
<g>
</g>
<g>
</g>
<g>
</g>
<g>
</g>
<g>
</g>
<g>
</g>
<g>
</g>
</svg>
