<?xml version="1.0" encoding="iso-8859-1"?>
<!-- Generator: Adobe Illustrator 16.0.0, SVG Export Plug-In . SVG Version: 6.00 Build 0)  -->
<!DOCTYPE svg PUBLIC "-//W3C//DTD SVG 1.1//EN" "http://www.w3.org/Graphics/SVG/1.1/DTD/svg11.dtd">
<svg version="1.1" id="Layer_1" xmlns="http://www.w3.org/2000/svg" xmlns:xlink="http://www.w3.org/1999/xlink" x="0px" y="0px"
	 width="64px" height="36px" viewBox="0 0 64 36" style="enable-background:new 0 0 64 36;" xml:space="preserve">
<g id="Frame_2_">
	<g>
		<path style="fill:#808080;" d="M60,0H4C1.791,0,0,1.791,0,4v28c0,2.209,1.791,4,4,4h56c2.209,0,4-1.791,4-4V4
			C64,1.791,62.209,0,60,0z"/>
	</g>
</g>
<g id="Body_9_">
	<g>
		<path style="fill:#E6E6E6;" d="M54,6.001h-4H14h-4c-2.209,0-4,1.79-4,3.999v4.001v4v4c0,4.418,3.581,8,8,8h36c4.418,0,8-3.582,8-8
			v-8c0-0.001,0-0.002,0-0.002V10C58,7.791,56.209,6.001,54,6.001z"/>
	</g>
</g>
<g id="Pins_2_">
	<g>
		<path style="fill-rule:evenodd;clip-rule:evenodd;fill:#808080;" d="M16,16.001h-4c-1.104,0-2,0.895-2,2c0,1.104,0.896,2,2,2h4
			c1.104,0,2-0.896,2-2C18,16.896,17.104,16.001,16,16.001z M24,12.001c-1.104,0-2,0.895-2,2c0,1.104,0.896,2,2,2s2-0.896,2-2
			C26,12.896,25.104,12.001,24,12.001z M24,20.001c-1.104,0-2,0.895-2,2c0,1.104,0.896,2,2,2s2-0.896,2-2
			C26,20.896,25.104,20.001,24,20.001z M32,12.001c-1.104,0-2,0.895-2,2c0,1.104,0.896,2,2,2s2-0.896,2-2
			C34,12.896,33.104,12.001,32,12.001z M32,20.001c-1.104,0-2,0.895-2,2c0,1.104,0.896,2,2,2s2-0.896,2-2
			C34,20.896,33.104,20.001,32,20.001z M40,12.001c-1.104,0-2,0.895-2,2c0,1.104,0.896,2,2,2s2-0.896,2-2
			C42,12.896,41.104,12.001,40,12.001z M40,20.001c-1.104,0-2,0.895-2,2c0,1.104,0.896,2,2,2s2-0.896,2-2
			C42,20.896,41.104,20.001,40,20.001z M48,16.001c1.104,0,2-0.896,2-2c0-1.105-0.896-2-2-2s-2,0.895-2,2
			C46,15.104,46.896,16.001,48,16.001z M48,20.001c-1.104,0-2,0.895-2,2c0,1.104,0.896,2,2,2s2-0.896,2-2
			C50,20.896,49.104,20.001,48,20.001z"/>
	</g>
</g>
<g>
</g>
<g>
</g>
<g>
</g>
<g>
</g>
<g>
</g>
<g>
</g>
<g>
</g>
<g>
</g>
<g>
</g>
<g>
</g>
<g>
</g>
<g>
</g>
<g>
</g>
<g>
</g>
<g>
</g>
</svg>
