<?xml version="1.0" encoding="iso-8859-1"?>
<!-- Generator: Adobe Illustrator 16.0.0, SVG Export Plug-In . SVG Version: 6.00 Build 0)  -->
<!DOCTYPE svg PUBLIC "-//W3C//DTD SVG 1.1//EN" "http://www.w3.org/Graphics/SVG/1.1/DTD/svg11.dtd">
<svg version="1.1" id="Layer_1" xmlns="http://www.w3.org/2000/svg" xmlns:xlink="http://www.w3.org/1999/xlink" x="0px" y="0px"
	 width="48px" height="64px" viewBox="0 0 48 64" style="enable-background:new 0 0 48 64;" xml:space="preserve">
<g id="Rounded_Rectangle_35">
	<g>
		<path style="fill:#666666;" d="M44,0H4C1.791,0,0,1.791,0,4v56c0,2.21,1.791,4,4,4h40c2.209,0,4-1.79,4-4V4
			C48,1.791,46.209,0,44,0z"/>
	</g>
</g>
<g id="Rounded_Rectangle_39">
	<g>
		<path style="fill:#4D4D4D;" d="M26,56h-4c-1.104,0-2,0.896-2,2.001C20,59.104,20.896,60,22,60h4c1.104,0,2-0.896,2-1.999
			C28,56.896,27.104,56,26,56z"/>
	</g>
</g>
<g id="Rounded_Rectangle_36">
	<g>
		<path style="fill:#E6E6E6;" d="M42,4H6C4.896,4,4,4.896,4,6v44c0,1.104,0.896,2,2,2h36c1.104,0,2-0.896,2-2V6
			C44,4.896,43.104,4,42,4z"/>
	</g>
</g>
<g id="Rounded_Rectangle_37">
	<g>
		<path style="fill-rule:evenodd;clip-rule:evenodd;fill:#999999;" d="M18,24.001h-8c-1.104,0-2,0.895-2,1.999s0.896,2.001,2,2.001
			h8c1.104,0,2-0.896,2-2.001S19.104,24.001,18,24.001z M18,32h-8c-1.104,0-2,0.896-2,2s0.896,2.001,2,2.001h8
			c1.104,0,2-0.896,2-2.001S19.104,32,18,32z M14,40.001h-4c-1.104,0-2,0.895-2,1.999s0.896,2,2,2h4c1.104,0,2-0.896,2-2
			S15.104,40.001,14,40.001z M26,28.001h12c1.104,0,2-0.896,2-2.001s-0.896-1.999-2-1.999H26c-1.104,0-2,0.895-2,1.999
			S24.896,28.001,26,28.001z M38,32H26c-1.104,0-2,0.896-2,2s0.896,2.001,2,2.001h12c1.104,0,2-0.896,2-2.001S39.104,32,38,32z
			 M30,40.001h-4c-1.104,0-2,0.895-2,1.999s0.896,2,2,2h4c1.104,0,2-0.896,2-2S31.104,40.001,30,40.001z"/>
	</g>
</g>
<g id="Rounded_Rectangle_38">
	<g>
		<path style="fill:#666666;" d="M30,10.001H18c-1.104,0-2,0.895-2,1.999s0.896,2.001,2,2.001h12c1.104,0,2-0.896,2-2.001
			S31.104,10.001,30,10.001z"/>
	</g>
</g>
<g>
</g>
<g>
</g>
<g>
</g>
<g>
</g>
<g>
</g>
<g>
</g>
<g>
</g>
<g>
</g>
<g>
</g>
<g>
</g>
<g>
</g>
<g>
</g>
<g>
</g>
<g>
</g>
<g>
</g>
</svg>
