<?xml version="1.0" encoding="iso-8859-1"?>
<!-- Generator: Adobe Illustrator 16.0.0, SVG Export Plug-In . SVG Version: 6.00 Build 0)  -->
<!DOCTYPE svg PUBLIC "-//W3C//DTD SVG 1.1//EN" "http://www.w3.org/Graphics/SVG/1.1/DTD/svg11.dtd">
<svg version="1.1" id="Layer_1" xmlns="http://www.w3.org/2000/svg" xmlns:xlink="http://www.w3.org/1999/xlink" x="0px" y="0px"
	 width="64px" height="64px" viewBox="0 0 64 64" style="enable-background:new 0 0 64 64;" xml:space="preserve">
<g id="Body_23_">
	<g>
		<path style="fill:#808080;" d="M60,0H4C1.791,0,0,1.79,0,4v56c0,2.209,1.791,4,4,4h56c2.209,0,4-1.791,4-4V4
			C64,1.79,62.209,0,60,0z"/>
	</g>
</g>
<g id="Screws_3_">
	<g>
		<path style="fill-rule:evenodd;clip-rule:evenodd;fill:#FFFFFF;" d="M6,4C4.896,4,4,4.895,4,6c0,1.104,0.896,2,2,2s2-0.896,2-2
			C8,4.895,7.104,4,6,4z M58,8c1.104,0,2-0.896,2-2c0-1.105-0.896-2-2-2s-2,0.895-2,2C56,7.104,56.896,8,58,8z M6,56
			c-1.104,0-2,0.895-2,2c0,1.104,0.896,2,2,2s2-0.896,2-2C8,56.895,7.104,56,6,56z M58,56c-1.104,0-2,0.895-2,2c0,1.104,0.896,2,2,2
			s2-0.896,2-2C60,56.895,59.104,56,58,56z"/>
	</g>
</g>
<g id="Container">
	<g>
		<circle style="fill:#FFFFFF;" cx="32" cy="32" r="24"/>
	</g>
</g>
<g id="Fan_Pallets">
	<g>
		<path style="fill-rule:evenodd;clip-rule:evenodd;fill:#808080;" d="M47.943,33.997H36.024C40.016,33.965,44,26,44,26
			s3.563-6.438,0-10c-4.063-4.063-8-4-8-4s-2,0-2,4v11.696c-0.293-4.048-7.96-8.021-7.96-8.021s-6.427-3.677-9.984,0
			c-4.056,4.192-3.993,8.256-3.993,8.256s0,2.064,3.993,2.064h15.976c0,0,1.822,0.038,1.969-1.841V32c0,0-0.059,1.98,1.977,1.997
			h-4.008c0,0-1.817-0.039-1.969,1.834v-3.837c0,0,0.064-1.994-2.076-1.994c-4.151,0-8.303,7.977-8.303,7.977s-3.697,6.42,0,9.972
			c4.217,4.052,8.303,3.989,8.303,3.989s2.076,0,2.076-3.989V36.307c0.303,4.048,7.959,8.018,7.959,8.018s6.428,3.68,9.984,0
			c4.057-4.195,3.994-8.262,3.994-8.262S51.938,33.997,47.943,33.997z"/>
	</g>
</g>
<g id="Shape_5_">
	<g>
		<circle style="fill:#4D4D4D;" cx="32" cy="32" r="6"/>
	</g>
</g>
<g>
</g>
<g>
</g>
<g>
</g>
<g>
</g>
<g>
</g>
<g>
</g>
<g>
</g>
<g>
</g>
<g>
</g>
<g>
</g>
<g>
</g>
<g>
</g>
<g>
</g>
<g>
</g>
<g>
</g>
</svg>
