<?xml version="1.0" encoding="iso-8859-1"?>
<!-- Generator: Adobe Illustrator 16.0.0, SVG Export Plug-In . SVG Version: 6.00 Build 0)  -->
<!DOCTYPE svg PUBLIC "-//W3C//DTD SVG 1.1//EN" "http://www.w3.org/Graphics/SVG/1.1/DTD/svg11.dtd">
<svg version="1.1" id="Layer_1" xmlns="http://www.w3.org/2000/svg" xmlns:xlink="http://www.w3.org/1999/xlink" x="0px" y="0px"
	 width="36px" height="64.001px" viewBox="0 0 36 64.001" style="enable-background:new 0 0 36 64.001;" xml:space="preserve">
<g id="Stand_Frame">
	<g>
		<path style="fill-rule:evenodd;clip-rule:evenodd;fill:#E6E6E6;" d="M28,0H8C3.582,0,0,3.582,0,8.001V56
			c0,4.419,3.582,8.001,8,8.001h20c4.418,0,8-3.582,8-8.001V8.001C36,3.582,32.418,0,28,0z M32,56c0,2.21-1.791,4.001-4,4.001H8
			c-2.209,0-4-1.791-4-4.001V8.001C4,5.791,5.791,4,8,4h20c2.209,0,4,1.791,4,4.001V56z"/>
	</g>
</g>
<g id="Body_43_">
	<g>
		<rect x="4" y="8.001" style="fill:#B3B3B3;" width="28" height="47.999"/>
	</g>
</g>
<g id="Shape_13_">
	<g>
		<path style="fill-rule:evenodd;clip-rule:evenodd;fill:#E6E6E6;" d="M10,16h16c1.104,0,2-0.896,2-1.999c0-1.105-0.896-2-2-2H10
			c-1.104,0-2,0.895-2,2C8,15.104,8.896,16,10,16z M26,20H10c-1.104,0-2,0.896-2,2c0,1.105,0.896,2.001,2,2.001h16
			c1.104,0,2-0.896,2-2.001C28,20.896,27.104,20,26,20z M10,40.001c-1.104,0-2,0.895-2,2v8C8,51.104,8.896,52,10,52s2-0.896,2-1.999
			v-8C12,40.896,11.104,40.001,10,40.001z"/>
	</g>
</g>
<g>
</g>
<g>
</g>
<g>
</g>
<g>
</g>
<g>
</g>
<g>
</g>
<g>
</g>
<g>
</g>
<g>
</g>
<g>
</g>
<g>
</g>
<g>
</g>
<g>
</g>
<g>
</g>
<g>
</g>
</svg>
