<?xml version="1.0" encoding="iso-8859-1"?>
<!-- Generator: Adobe Illustrator 16.0.0, SVG Export Plug-In . SVG Version: 6.00 Build 0)  -->
<!DOCTYPE svg PUBLIC "-//W3C//DTD SVG 1.1//EN" "http://www.w3.org/Graphics/SVG/1.1/DTD/svg11.dtd">
<svg version="1.1" id="Layer_1" xmlns="http://www.w3.org/2000/svg" xmlns:xlink="http://www.w3.org/1999/xlink" x="0px" y="0px"
	 width="64px" height="52px" viewBox="0 0 64 52" style="enable-background:new 0 0 64 52;" xml:space="preserve">
<g id="Leg_1_">
	<g>
		<path style="fill:#CCCCCC;" d="M44,40H20c-1.104,0-2,0.896-2,2v8c0,1.104,0.896,2,2,2h24c1.104,0,2-0.896,2-2v-8
			C46,40.896,45.104,40,44,40z"/>
	</g>
</g>
<g id="Stand">
	<g>
		<path style="fill:#B3B3B3;" d="M46,48H18c-1.104,0-2,0.895-2,2c0,1.104,0.896,2,2,2h28c1.104,0,2-0.896,2-2
			C48,48.895,47.104,48,46,48z"/>
	</g>
</g>
<g id="Frame_4_">
	<g>
		<path style="fill:#666666;" d="M62,4c-0.5-2.21-1.791-4-4-4H6C3.791,0,2.563,1.853,2,4c0,0-2,9.007-2,17.75C0,29.992,2,40,2,40
			c0.563,2.209,1.791,4,4,4h52c2.209,0,3.563-1.729,4-4c0,0,2-10.171,2-18.501C64,12.836,62,4,62,4z"/>
	</g>
</g>
<g id="Background_1_">
	<g>
		<path style="fill:#9B7CAB;" d="M54,6c-0.313-1.105-0.896-2-2-2H12c-1.104,0-1.625,0.895-2,2c0,0-2,7.999-2,16c0,8,2,16,2,16
			c0.313,1.229,0.896,2,2,2h40c1.104,0,1.625-0.834,2-2c0,0,2-7.508,2-15.25C56,14.508,54,6,54,6z"/>
	</g>
</g>
<g id="Lines_2_">
	<g>
		<path style="fill-rule:evenodd;clip-rule:evenodd;fill:#E6E6E6;" d="M20.86,4H20h-4h-0.86L16,4.86v17.098l-7.804-4.542
			C8.076,18.906,8,20.451,8,22c0,0.023,0.001,0.048,0.001,0.072L16,26.729V40h4V29.057L38.801,40h8.195L20,24.286V8.86L51.14,40H52
			c1.104,0,1.625-0.834,2-2c0,0,0.066-0.25,0.171-0.689L20.86,4z"/>
	</g>
</g>
<g>
</g>
<g>
</g>
<g>
</g>
<g>
</g>
<g>
</g>
<g>
</g>
<g>
</g>
<g>
</g>
<g>
</g>
<g>
</g>
<g>
</g>
<g>
</g>
<g>
</g>
<g>
</g>
<g>
</g>
</svg>
