<?xml version="1.0" encoding="iso-8859-1"?>
<!-- Generator: Adobe Illustrator 16.0.0, SVG Export Plug-In . SVG Version: 6.00 Build 0)  -->
<!DOCTYPE svg PUBLIC "-//W3C//DTD SVG 1.1//EN" "http://www.w3.org/Graphics/SVG/1.1/DTD/svg11.dtd">
<svg version="1.1" id="Layer_1" xmlns="http://www.w3.org/2000/svg" xmlns:xlink="http://www.w3.org/1999/xlink" x="0px" y="0px"
	 width="36px" height="64.001px" viewBox="0 0 36 64.001" style="enable-background:new 0 0 36 64.001;" xml:space="preserve">
<g id="Bevel_16_">
	<g>
		<path style="fill:#808080;" d="M32,0H4C2.207,0,0,2.084,0,4.001v2V8v48.001V58v2v0.001c0.001,1.815,2.087,4,4,4h28
			c1.9,0,3.999-2.048,4-4V60v-2v-1.999V8V6.001v-2C36,2.084,33.854,0,32,0z"/>
	</g>
</g>
<g id="Antena">
	<g>
		<path style="fill-rule:evenodd;clip-rule:evenodd;fill:#4D4D4D;" d="M0,12.001v4h36v-4H0z M0,58.002h36v-4.001H0V58.002z"/>
	</g>
</g>
<g id="Camera_8_">
	<g>
		<circle style="fill:#4D4D4D;" cx="18" cy="6.004" r="2"/>
	</g>
</g>
<g id="Camera_9_">
	<g>
		<circle style="fill:#4D4D4D;" cx="18" cy="24.003" r="4"/>
	</g>
</g>
<g>
</g>
<g>
</g>
<g>
</g>
<g>
</g>
<g>
</g>
<g>
</g>
<g>
</g>
<g>
</g>
<g>
</g>
<g>
</g>
<g>
</g>
<g>
</g>
<g>
</g>
<g>
</g>
<g>
</g>
</svg>
