<?xml version="1.0" encoding="iso-8859-1"?>
<!-- Generator: Adobe Illustrator 16.0.0, SVG Export Plug-In . SVG Version: 6.00 Build 0)  -->
<!DOCTYPE svg PUBLIC "-//W3C//DTD SVG 1.1//EN" "http://www.w3.org/Graphics/SVG/1.1/DTD/svg11.dtd">
<svg version="1.1" id="Layer_1" xmlns="http://www.w3.org/2000/svg" xmlns:xlink="http://www.w3.org/1999/xlink" x="0px" y="0px"
	 width="64px" height="68px" viewBox="0 0 64 68" style="enable-background:new 0 0 64 68;" xml:space="preserve">
<g id="Body_49_">
	<g>
		<path style="fill:#CCCCCC;" d="M60,0H4C1.791,0,0,1.79,0,4v44c0,2.209,1.791,4,4,4h56c2.209,0,4-1.791,4-4V4
			C64,1.79,62.209,0,60,0z"/>
	</g>
</g>
<g id="Frame_9_">
	<g>
		<path style="fill-rule:evenodd;clip-rule:evenodd;fill:#4D4D4D;" d="M60,0H4C1.791,0,0,1.79,0,4v34v2v4h4h56h4v-4v-2V4
			C64,1.79,62.209,0,60,0z"/>
	</g>
</g>
<g id="Display_3_">
	<g>
		<path style="fill:#808080;" d="M58,4H6C4.896,4,4,4.895,4,6v32c0,1.104,0.896,2,2,2h52c1.104,0,2-0.896,2-2V6
			C60,4.895,59.104,4,58,4z"/>
	</g>
</g>
<g id="Leg_4_">
	<g>
		<polygon style="fill-rule:evenodd;clip-rule:evenodd;fill:#B3B3B3;" points="40,52 32,52 24,52 22,64 32,64 42,64 		"/>
	</g>
</g>
<g id="Stand_5_">
	<g>
		<path style="fill-rule:evenodd;clip-rule:evenodd;fill:#CCCCCC;" d="M44,60H20c-2.209,0-4,1.79-4,4h32C48,61.79,46.209,60,44,60z"
			/>
	</g>
</g>
<g>
</g>
<g>
</g>
<g>
</g>
<g>
</g>
<g>
</g>
<g>
</g>
<g>
</g>
<g>
</g>
<g>
</g>
<g>
</g>
<g>
</g>
<g>
</g>
<g>
</g>
<g>
</g>
<g>
</g>
</svg>
