<?xml version="1.0" encoding="iso-8859-1"?>
<!-- Generator: Adobe Illustrator 16.0.0, SVG Export Plug-In . SVG Version: 6.00 Build 0)  -->
<!DOCTYPE svg PUBLIC "-//W3C//DTD SVG 1.1//EN" "http://www.w3.org/Graphics/SVG/1.1/DTD/svg11.dtd">
<svg version="1.1" id="Layer_1" xmlns="http://www.w3.org/2000/svg" xmlns:xlink="http://www.w3.org/1999/xlink" x="0px" y="0px"
	 width="40px" height="64px" viewBox="0 0 40 64" style="enable-background:new 0 0 40 64;" xml:space="preserve">
<g id="Pin">
	<g>
		<path style="fill:#F06EAA;" d="M20,0C8.954,0,0,8.954,0,19.999C0,41.712,19.954,64,20,64c0.379,0,20-22.621,20-44.001
			C40,8.954,31.045,0,20,0z"/>
	</g>
</g>
<g id="IP">
	<g>
		<path style="fill-rule:evenodd;clip-rule:evenodd;fill:#FFFFFF;" d="M25.964,13.998c-0.003,0-0.007,0.001-0.01,0.001h-5.963
			c-1.1,0-1.991,0.895-1.991,2v16c0,1.104,0.892,2,1.991,2s1.991-0.896,1.991-2v-2h-0.001v-4.001h3.982c3.3,0,5.974-2.686,5.974-6
			C31.938,16.685,29.264,13.998,25.964,13.998z M25.964,21.998L25.964,21.998l-3.982,0.001v-4h3.973c0.003,0,0.007-0.001,0.01-0.001
			c1.1,0,1.991,0.896,1.991,2S27.063,21.998,25.964,21.998z M11.965,13.999c-1.1,0-1.991,0.895-1.991,2v16c0,1.104,0.892,2,1.991,2
			s1.991-0.896,1.991-2v-16C13.956,14.894,13.064,13.999,11.965,13.999z"/>
	</g>
</g>
<g>
</g>
<g>
</g>
<g>
</g>
<g>
</g>
<g>
</g>
<g>
</g>
<g>
</g>
<g>
</g>
<g>
</g>
<g>
</g>
<g>
</g>
<g>
</g>
<g>
</g>
<g>
</g>
<g>
</g>
</svg>
