<?xml version="1.0" encoding="iso-8859-1"?>
<!-- Generator: Adobe Illustrator 16.0.0, SVG Export Plug-In . SVG Version: 6.00 Build 0)  -->
<!DOCTYPE svg PUBLIC "-//W3C//DTD SVG 1.1//EN" "http://www.w3.org/Graphics/SVG/1.1/DTD/svg11.dtd">
<svg version="1.1" id="Layer_1" xmlns="http://www.w3.org/2000/svg" xmlns:xlink="http://www.w3.org/1999/xlink" x="0px" y="0px"
	 width="36px" height="64.001px" viewBox="0 0 36 64.001" style="enable-background:new 0 0 36 64.001;" xml:space="preserve">
<g id="Bevel_5_">
	<g>
		<path style="fill:#88C057;" d="M32,0H4C2.208,0,0,2.084,0,4.001v2V8v48.001V58v2c0,1.814,2.087,4.001,4,4.001h28
			c1.9,0,4-2.049,4-4.001v-2V6.001v-2C36,2.084,33.854,0,32,0z"/>
	</g>
</g>
<g id="Apple_Logo_7_">
	<g>
		<path style="fill-rule:evenodd;clip-rule:evenodd;fill:#345D16;" d="M20.074,14c-0.557,0.021-1.23,0.318-1.629,0.722
			c-0.358,0.355-0.671,0.926-0.588,1.473c0.621,0.042,1.255-0.271,1.641-0.674S20.145,14.56,20.074,14z M20,20.001
			c0-2.375,1.697-2.479,1.743-2.509c-0.577-0.849-1.477-0.966-1.797-0.979c-0.766-0.079-1.493,0.453-1.882,0.453
			c-0.387,0-0.986-0.441-1.621-0.431c-0.834,0.014-1.604,0.487-2.032,1.238c-0.867,1.511-0.223,3.75,0.622,4.976
			c0.413,0.599,0.905,1.272,1.551,1.248c0.623-0.023,0.858-0.404,1.61-0.404s0.964,0.404,1.622,0.393
			c0.67-0.012,1.094-0.612,1.504-1.214c0.474-0.695,0.669-1.369,0.681-1.403C21.986,21.362,19.999,21.495,20,20.001z"/>
	</g>
</g>
<g id="Camera_3_">
	<g>
		<circle style="fill:#232323;" cx="8" cy="5.999" r="2"/>
	</g>
</g>
<g id="Flash_1_">
	<g>
		<circle style="fill:#FFFFFF;" cx="14" cy="5.999" r="2"/>
	</g>
</g>
<g>
</g>
<g>
</g>
<g>
</g>
<g>
</g>
<g>
</g>
<g>
</g>
<g>
</g>
<g>
</g>
<g>
</g>
<g>
</g>
<g>
</g>
<g>
</g>
<g>
</g>
<g>
</g>
<g>
</g>
</svg>
