<?xml version="1.0" encoding="iso-8859-1"?>
<!-- Generator: Adobe Illustrator 16.0.0, SVG Export Plug-In . SVG Version: 6.00 Build 0)  -->
<!DOCTYPE svg PUBLIC "-//W3C//DTD SVG 1.1//EN" "http://www.w3.org/Graphics/SVG/1.1/DTD/svg11.dtd">
<svg version="1.1" id="Layer_1" xmlns="http://www.w3.org/2000/svg" xmlns:xlink="http://www.w3.org/1999/xlink" x="0px" y="0px"
	 width="36px" height="64.001px" viewBox="0 0 36 64.001" style="enable-background:new 0 0 36 64.001;" xml:space="preserve">
<g id="Bevel_4_">
	<g>
		<path style="fill:#48A0DC;" d="M0,8v48v2v2c0,1.814,2.086,4.001,4,4.001h28c1.9,0,4-2.048,4-4.001v-1.999V6.002H0V8z M32,0H4
			C2.208,0,0,2.084,0,4.001v2h36v-2C36,2.084,33.854,0,32,0z"/>
	</g>
</g>
<g id="Apple_Logo_6_">
	<g>
		<path style="fill-rule:evenodd;clip-rule:evenodd;fill:#304A57;" d="M20.074,14.001c-0.557,0.02-1.23,0.317-1.629,0.721
			c-0.358,0.356-0.671,0.927-0.588,1.474c0.621,0.041,1.255-0.272,1.641-0.675S20.146,14.56,20.074,14.001z M20,20.001
			c0-2.374,1.697-2.479,1.743-2.509c-0.577-0.849-1.477-0.965-1.797-0.979c-0.765-0.078-1.493,0.453-1.882,0.453
			c-0.387,0-0.986-0.442-1.621-0.431c-0.834,0.014-1.604,0.487-2.032,1.239c-0.867,1.51-0.223,3.749,0.622,4.975
			c0.413,0.599,0.905,1.272,1.551,1.248c0.623-0.023,0.858-0.404,1.611-0.404c0.752,0,0.963,0.404,1.621,0.393
			c0.67-0.012,1.095-0.611,1.504-1.214c0.474-0.695,0.669-1.369,0.681-1.403C21.986,21.362,19.999,21.495,20,20.001z"/>
	</g>
</g>
<g id="Camera_2_">
	<g>
		<circle style="fill:#232323;" cx="8" cy="5.998" r="2"/>
	</g>
</g>
<g id="Flash">
	<g>
		<circle style="fill:#FFFFFF;" cx="14" cy="5.998" r="2"/>
	</g>
</g>
<g>
</g>
<g>
</g>
<g>
</g>
<g>
</g>
<g>
</g>
<g>
</g>
<g>
</g>
<g>
</g>
<g>
</g>
<g>
</g>
<g>
</g>
<g>
</g>
<g>
</g>
<g>
</g>
<g>
</g>
</svg>
