<?xml version="1.0" encoding="iso-8859-1"?>
<!-- Generator: Adobe Illustrator 16.0.0, SVG Export Plug-In . SVG Version: 6.00 Build 0)  -->
<!DOCTYPE svg PUBLIC "-//W3C//DTD SVG 1.1//EN" "http://www.w3.org/Graphics/SVG/1.1/DTD/svg11.dtd">
<svg version="1.1" id="Layer_1" xmlns="http://www.w3.org/2000/svg" xmlns:xlink="http://www.w3.org/1999/xlink" x="0px" y="0px"
	 width="16px" height="64px" viewBox="0 0 16 64" style="enable-background:new 0 0 16 64;" xml:space="preserve">
<g id="Buckle_9_">
	<g>
		<path style="fill-rule:evenodd;clip-rule:evenodd;fill:#75A64B;" d="M8,46.349V16c0-2.209-1.791-4-4-4s-4,1.791-4,4v36v6
			c0,3.313,2.686,6,6,6c3.313,0,6-2.687,6-6v-6C12,49.388,10.329,47.173,8,46.349z"/>
	</g>
</g>
<g id="Buckle_10_">
	<g>
		<path style="fill-rule:evenodd;clip-rule:evenodd;fill:#638C3F;" d="M8,46.349V58c0,1.104,0.896,2,2,2s2-0.896,2-2v-6
			C12,49.388,10.329,47.173,8,46.349z"/>
	</g>
</g>
<g id="Buckle_11_">
	<g>
		<path style="fill-rule:evenodd;clip-rule:evenodd;fill:#88C057;" d="M10,0C6.686,0,4,2.686,4,6v6c0,2.611,1.671,4.827,4,5.651
			v32.348c0,2.21,1.791,4,4,4s4-1.79,4-4V12V6C16,2.686,13.313,0,10,0z"/>
	</g>
</g>
<g id="Buckle_12_">
	<g>
		<path style="fill-rule:evenodd;clip-rule:evenodd;fill:#75A64B;" d="M8,17.651V6c0-1.105-0.896-2-2-2S4,4.895,4,6v6
			C4,14.611,5.671,16.827,8,17.651z"/>
	</g>
</g>
<g id="Connector">
	<g>
		<path style="fill-rule:evenodd;clip-rule:evenodd;fill:#CCCCCC;" d="M4,12c-2.209,0-4,1.791-4,4v14v2v4h8v-4v-2V16
			C8,13.791,6.209,12,4,12z"/>
	</g>
</g>
<g>
</g>
<g>
</g>
<g>
</g>
<g>
</g>
<g>
</g>
<g>
</g>
<g>
</g>
<g>
</g>
<g>
</g>
<g>
</g>
<g>
</g>
<g>
</g>
<g>
</g>
<g>
</g>
<g>
</g>
</svg>
