<?xml version="1.0" encoding="iso-8859-1"?>
<!-- Generator: Adobe Illustrator 16.0.0, SVG Export Plug-In . SVG Version: 6.00 Build 0)  -->
<!DOCTYPE svg PUBLIC "-//W3C//DTD SVG 1.1//EN" "http://www.w3.org/Graphics/SVG/1.1/DTD/svg11.dtd">
<svg version="1.1" id="Layer_1" xmlns="http://www.w3.org/2000/svg" xmlns:xlink="http://www.w3.org/1999/xlink" x="0px" y="0px"
	 width="64px" height="64.013px" viewBox="0 0 64 64.013" style="enable-background:new 0 0 64 64.013;" xml:space="preserve">
<g id="Frame_6_">
	<g>
		<path style="fill:#E6E6E6;" d="M60,0H4C1.791,0,0,1.79,0,4v36c0,2.209,1.791,4,4,4h56c2.209,0,4-1.791,4-4V4
			C64,1.79,62.209,0,60,0z"/>
	</g>
</g>
<g id="Frame_7_">
	<g>
		<path style="fill:#B3B3B3;" d="M58,4H6C4.896,4,4,4.895,4,6v32c0,1.104,0.896,2,2,2h52c1.104,0,2-0.896,2-2V6
			C60,4.895,59.104,4,58,4z"/>
	</g>
</g>
<g id="Display_1_">
	<g>
		<rect x="8" y="8" style="fill:#4D4D4D;" width="48" height="28"/>
	</g>
</g>
<g id="Leg_2_">
	<g>
		<rect x="30" y="44" style="fill:#CCCCCC;" width="4" height="8"/>
	</g>
</g>
<g id="Stand_3_">
	<g>
		<path style="fill:#E6E6E6;" d="M32,48c-7.732,0-14,6.268-14,13.999C18,64.232,32,64,32,64s14,0.295,14-2.001
			C46,54.268,39.731,48,32,48z"/>
	</g>
</g>
<g id="CD_Drive">
	<g>
		<path style="fill:#CCCCCC;" d="M38,56H26c-1.104,0-2,0.895-2,1.999S24.896,60,26,60h12c1.104,0,2-0.896,2-2.001S39.104,56,38,56z"
			/>
	</g>
</g>
<g>
</g>
<g>
</g>
<g>
</g>
<g>
</g>
<g>
</g>
<g>
</g>
<g>
</g>
<g>
</g>
<g>
</g>
<g>
</g>
<g>
</g>
<g>
</g>
<g>
</g>
<g>
</g>
<g>
</g>
</svg>
