<?xml version="1.0" encoding="iso-8859-1"?>
<!-- Generator: Adobe Illustrator 16.0.0, SVG Export Plug-In . SVG Version: 6.00 Build 0)  -->
<!DOCTYPE svg PUBLIC "-//W3C//DTD SVG 1.1//EN" "http://www.w3.org/Graphics/SVG/1.1/DTD/svg11.dtd">
<svg version="1.1" id="Layer_1" xmlns="http://www.w3.org/2000/svg" xmlns:xlink="http://www.w3.org/1999/xlink" x="0px" y="0px"
	 width="28px" height="64px" viewBox="0 0 28 64" style="enable-background:new 0 0 28 64;" xml:space="preserve">
<g id="Cable_8_">
	<g>
		<path style="fill:#CCCCCC;" d="M16,54h-4c-1.104,0-2,0.896-2,2v6c0,1.104,0.896,2,2,2h4c1.104,0,2-0.896,2-2v-6
			C18,54.896,17.104,54,16,54z"/>
	</g>
</g>
<g id="Cable_9_">
	<g>
		<path style="fill:#B3B3B3;" d="M18,46h-8c-1.104,0-2,0.896-2,2v6c0,1.104,0.896,2,2,2h8c1.104,0,2-0.896,2-2v-6
			C20,46.896,19.104,46,18,46z"/>
	</g>
</g>
<g id="Body_12_">
	<g>
		<path style="fill:#CCCCCC;" d="M24,16H4c-2.209,0-4,1.791-4,4v24c0,2.209,1.791,3.999,4,3.999h20c2.209,0,4-1.79,4-3.999V20
			C28,17.791,26.209,16,24,16z"/>
	</g>
</g>
<g id="Plug">
	<g>
		<path style="fill-rule:evenodd;clip-rule:evenodd;fill:#E6E6E6;" d="M22,0H6C4.896,0,4,0.896,4,2v14v0.001h20V16V2
			C24,0.896,23.104,0,22,0z"/>
	</g>
</g>
<g id="Pins_3_">
	<g>
		<path style="fill-rule:evenodd;clip-rule:evenodd;fill:#FFCC66;" d="M8,2.001v4V10c0,1.104,0.896,2,2,2s2-0.896,2-2V6.001v-4V0H8
			V2.001z M16,0v2.001v4V10c0,1.104,0.896,2,2,2s2-0.896,2-2V6.001v-4V0H16z"/>
	</g>
</g>
<g id="Leg">
	<g>
		<path style="fill:#E6E6E6;" d="M14,8.001c-1.104,0-2,0.895-2,1.999v16c0,1.104,0.896,2,2,2s2-0.896,2-2V10
			C16,8.896,15.104,8.001,14,8.001z"/>
	</g>
</g>
<g>
</g>
<g>
</g>
<g>
</g>
<g>
</g>
<g>
</g>
<g>
</g>
<g>
</g>
<g>
</g>
<g>
</g>
<g>
</g>
<g>
</g>
<g>
</g>
<g>
</g>
<g>
</g>
<g>
</g>
</svg>
