<?xml version="1.0" encoding="iso-8859-1"?>
<!-- Generator: Adobe Illustrator 16.0.0, SVG Export Plug-In . SVG Version: 6.00 Build 0)  -->
<!DOCTYPE svg PUBLIC "-//W3C//DTD SVG 1.1//EN" "http://www.w3.org/Graphics/SVG/1.1/DTD/svg11.dtd">
<svg version="1.1" id="Layer_1" xmlns="http://www.w3.org/2000/svg" xmlns:xlink="http://www.w3.org/1999/xlink" x="0px" y="0px"
	 width="64px" height="64px" viewBox="0 0 64 64" style="enable-background:new 0 0 64 64;" xml:space="preserve">
<g id="Body_13_">
	<g>
		<path style="fill:#CCCCCC;" d="M60,0H4C1.791,0,0,1.791,0,4.001V60c0,2.209,1.791,4,4,4h56c2.209,0,4-1.791,4-4V4.001
			C64,1.791,62.209,0,60,0z"/>
	</g>
</g>
<g id="Shape_3_">
	<g>
		<path style="fill:#E6E6E6;" d="M54,8.001H10c-1.104,0-2,0.895-2,1.999v44.001C8,55.104,8.896,56,10,56h44c1.104,0,2-0.896,2-1.999
			V10C56,8.896,55.104,8.001,54,8.001z"/>
	</g>
</g>
<g id="Socket_1_">
	<g>
		<path style="fill-rule:evenodd;clip-rule:evenodd;fill:#4D4D4D;" d="M50,12H14c-1.104,0-2,0.896-2,2v24
			c0,1.104,0.896,2.001,2,2.001h2V44c0,1.104,0.896,2.001,2,2.001h2v4c0,1.104,0.896,2,2,2h20c1.104,0,2-0.896,2-2v-4h2
			c1.104,0,2-0.896,2-2.001v-3.999h2c1.104,0,2-0.896,2-2.001V14C52,12.896,51.104,12,50,12z"/>
	</g>
</g>
<g id="Pins_4_">
	<g>
		<path style="fill-rule:evenodd;clip-rule:evenodd;fill:#FFCC66;" d="M16,16.001c-1.104,0-2,0.895-2,1.999v4
			c0,1.104,0.896,2.001,2,2.001s2-0.896,2-2.001v-4C18,16.896,17.104,16.001,16,16.001z M24,16.001c-1.104,0-2,0.895-2,1.999v4
			c0,1.104,0.896,2.001,2,2.001s2-0.896,2-2.001v-4C26,16.896,25.104,16.001,24,16.001z M32,16.001c-1.104,0-2,0.895-2,1.999v4
			c0,1.104,0.896,2.001,2,2.001s2-0.896,2-2.001v-4C34,16.896,33.104,16.001,32,16.001z M40,16.001c-1.104,0-2,0.895-2,1.999v4
			c0,1.104,0.896,2.001,2,2.001s2-0.896,2-2.001v-4C42,16.896,41.104,16.001,40,16.001z M48,16.001c-1.104,0-2,0.895-2,1.999v4
			c0,1.104,0.896,2.001,2,2.001s2-0.896,2-2.001v-4C50,16.896,49.104,16.001,48,16.001z"/>
	</g>
</g>
<g>
</g>
<g>
</g>
<g>
</g>
<g>
</g>
<g>
</g>
<g>
</g>
<g>
</g>
<g>
</g>
<g>
</g>
<g>
</g>
<g>
</g>
<g>
</g>
<g>
</g>
<g>
</g>
<g>
</g>
</svg>
