<?xml version="1.0" encoding="iso-8859-1"?>
<!-- Generator: Adobe Illustrator 16.0.0, SVG Export Plug-In . SVG Version: 6.00 Build 0)  -->
<!DOCTYPE svg PUBLIC "-//W3C//DTD SVG 1.1//EN" "http://www.w3.org/Graphics/SVG/1.1/DTD/svg11.dtd">
<svg version="1.1" id="Layer_1" xmlns="http://www.w3.org/2000/svg" xmlns:xlink="http://www.w3.org/1999/xlink" x="0px" y="0px"
	 width="64px" height="52.001px" viewBox="0 0 64 52.001" style="enable-background:new 0 0 64 52.001;" xml:space="preserve">
<g id="Stand_6_">
	<g>
		<path style="fill-rule:evenodd;clip-rule:evenodd;fill:#CCCCCC;" d="M48.356,9.618l-30.105,18l2,3.464l30.105-18
			C57.277,9.153,58.65,10.11,60,16.001v24c0,4.418-3.582,8-8,8H8v4h44c6.627,0,12-5.373,12-12v-24
			C61.545,5.963,60.285,2.865,48.356,9.618z"/>
	</g>
</g>
<g id="Laptop">
	<g>
		<path style="fill:#808080;" d="M55.467,2.001c-1.095-1.913-3.52-2.569-5.416-1.465l-48.068,28
			c-1.896,1.104-2.546,3.551-1.451,5.465c1.095,1.912,3.52,2.568,5.416,1.464l48.068-28C55.912,6.36,56.562,3.914,55.467,2.001z"/>
	</g>
</g>
<g>
</g>
<g>
</g>
<g>
</g>
<g>
</g>
<g>
</g>
<g>
</g>
<g>
</g>
<g>
</g>
<g>
</g>
<g>
</g>
<g>
</g>
<g>
</g>
<g>
</g>
<g>
</g>
<g>
</g>
</svg>
