<?xml version="1.0" encoding="iso-8859-1"?>
<!-- Generator: Adobe Illustrator 16.0.0, SVG Export Plug-In . SVG Version: 6.00 Build 0)  -->
<!DOCTYPE svg PUBLIC "-//W3C//DTD SVG 1.1//EN" "http://www.w3.org/Graphics/SVG/1.1/DTD/svg11.dtd">
<svg version="1.1" id="Layer_1" xmlns="http://www.w3.org/2000/svg" xmlns:xlink="http://www.w3.org/1999/xlink" x="0px" y="0px"
	 width="28px" height="64px" viewBox="0 0 28 64" style="enable-background:new 0 0 28 64;" xml:space="preserve">
<g id="Cable_14_">
	<g>
		<path style="fill:#CCCCCC;" d="M16,46h-4c-1.104,0-2,0.896-2,2v14c0,1.104,0.896,2,2,2h4c1.104,0,2-0.896,2-2V48
			C18,46.896,17.104,46,16,46z"/>
	</g>
</g>
<g id="Cable_15_">
	<g>
		<path style="fill:#B3B3B3;" d="M18,48h-8c-1.104,0-2,0.896-2,2v6c0,1.104,0.896,2,2,2h8c1.104,0,2-0.896,2-2v-6
			C20,48.896,19.104,48,18,48z"/>
	</g>
</g>
<g id="Body_17_">
	<g>
		<path style="fill:#CCCCCC;" d="M24,16H4c-2.209,0-4,1.791-4,4v28c0,2.209,1.791,4,4,4h20c2.209,0,4-1.791,4-4V20
			C28,17.791,26.209,16,24,16z"/>
	</g>
</g>
<g id="Body_18_">
	<g>
		<path style="fill:#FFFFFF;" d="M22,20H6c-1.104,0-2,0.896-2,2v24c0,1.104,0.896,2,2,2h16c1.104,0,2-0.896,2-2V22
			C24,20.896,23.104,20,22,20z"/>
	</g>
</g>
<g id="Plug_2_">
	<g>
		<path style="fill-rule:evenodd;clip-rule:evenodd;fill:#B3B3B3;" d="M22,0H6C4.896,0,4,0.896,4,2v14h20V2C24,0.896,23.104,0,22,0z
			"/>
	</g>
</g>
<g id="Shape_4_">
	<g>
		<path style="fill:#FFFFFF;" d="M18,4h-8C8.896,4,8,4.896,8,6v4c0,1.104,0.896,2,2,2h8c1.104,0,2-0.896,2-2V6
			C20,4.896,19.104,4,18,4z"/>
	</g>
</g>
<g id="Pins_5_">
	<g>
		<path style="fill-rule:evenodd;clip-rule:evenodd;fill:#FFCC66;" d="M12,6c-1.104,0-2,0.896-2,2s0.896,2,2,2s2-0.896,2-2
			S13.104,6,12,6z M16,6c-1.104,0-2,0.896-2,2s0.896,2,2,2s2-0.896,2-2S17.104,6,16,6z"/>
	</g>
</g>
<g>
</g>
<g>
</g>
<g>
</g>
<g>
</g>
<g>
</g>
<g>
</g>
<g>
</g>
<g>
</g>
<g>
</g>
<g>
</g>
<g>
</g>
<g>
</g>
<g>
</g>
<g>
</g>
<g>
</g>
</svg>
