<?xml version="1.0" encoding="iso-8859-1"?>
<!-- Generator: Adobe Illustrator 16.0.0, SVG Export Plug-In . SVG Version: 6.00 Build 0)  -->
<!DOCTYPE svg PUBLIC "-//W3C//DTD SVG 1.1//EN" "http://www.w3.org/Graphics/SVG/1.1/DTD/svg11.dtd">
<svg version="1.1" id="Layer_1" xmlns="http://www.w3.org/2000/svg" xmlns:xlink="http://www.w3.org/1999/xlink" x="0px" y="0px"
	 width="48px" height="60.001px" viewBox="0 0 48 60.001" style="enable-background:new 0 0 48 60.001;" xml:space="preserve">
<g id="Lock_1_">
	<g>
		<path style="fill-rule:evenodd;clip-rule:evenodd;fill:#CCCCCC;" d="M44,20.001C44,8.954,35.046,0,24,0C12.955,0,4,8.954,4,20.001
			V30h2.697C10.157,35.972,16.602,40,24,40c7.399,0,13.843-4.028,17.303-10H44L44,20.001z M36,30h-5.372c-1.9,1.262-4.177,2-6.628,2
			s-4.729-0.738-6.628-2H12v-9.999C12,13.373,17.373,8,24,8s12,5.373,12,12.001V30z"/>
	</g>
</g>
<g id="Body_53_">
	<g>
		<path style="fill:#FFCC66;" d="M44,30H4c-2.209,0-4,1.792-4,4.001V56c0,2.21,1.791,4.001,4,4.001h40c2.209,0,4-1.791,4-4.001
			V34.001C48,31.792,46.209,30,44,30z"/>
	</g>
</g>
<g id="Keyhole_1_">
	<g>
		<path style="fill-rule:evenodd;clip-rule:evenodd;fill:#666666;" d="M28,44.001C28,41.791,26.209,40,24,40
			c-2.209,0-4,1.791-4,4.001c0,1.476,0.81,2.751,2,3.444v4.556h4v-4.556C27.191,46.752,28,45.477,28,44.001z"/>
	</g>
</g>
<g>
</g>
<g>
</g>
<g>
</g>
<g>
</g>
<g>
</g>
<g>
</g>
<g>
</g>
<g>
</g>
<g>
</g>
<g>
</g>
<g>
</g>
<g>
</g>
<g>
</g>
<g>
</g>
<g>
</g>
</svg>
