<?xml version="1.0" encoding="iso-8859-1"?>
<!-- Generator: Adobe Illustrator 16.0.0, SVG Export Plug-In . SVG Version: 6.00 Build 0)  -->
<!DOCTYPE svg PUBLIC "-//W3C//DTD SVG 1.1//EN" "http://www.w3.org/Graphics/SVG/1.1/DTD/svg11.dtd">
<svg version="1.1" id="Layer_1" xmlns="http://www.w3.org/2000/svg" xmlns:xlink="http://www.w3.org/1999/xlink" x="0px" y="0px"
	 width="64px" height="48px" viewBox="0 0 64 48" style="enable-background:new 0 0 64 48;" xml:space="preserve">
<g id="Frame_11_">
	<g>
		<path style="fill:#333333;" d="M56,0H8C5.791,0,4,1.791,4,4v36c0,2.209,1.791,3.999,4,3.999h48c2.209,0,4-1.79,4-3.999V4
			C60,1.791,58.209,0,56,0z"/>
	</g>
</g>
<g id="Display_5_">
	<g>
		<path style="fill:#808080;" d="M54,4H10C8.896,4,8,4.895,8,5.999v28C8,35.104,8.896,36,10,36h44c1.104,0,2-0.896,2-2.001v-28
			C56,4.895,55.104,4,54,4z"/>
	</g>
</g>
<g id="Bottom_Part_1_">
	<g>
		<path style="fill-rule:evenodd;clip-rule:evenodd;fill:#CCCCCC;" d="M60,40H4H0v3.999C0,46.209,1.791,48,4,48h56
			c2.209,0,4-1.791,4-4.001V40H60z"/>
	</g>
</g>
<g id="Shape_14_">
	<g>
		<path style="fill-rule:evenodd;clip-rule:evenodd;fill:#999999;" d="M38,40H26h-2v2c0,1.104,0.895,1.999,2,1.999h12
			c1.104,0,2-0.896,2-1.999v-2H38z"/>
	</g>
</g>
<g>
</g>
<g>
</g>
<g>
</g>
<g>
</g>
<g>
</g>
<g>
</g>
<g>
</g>
<g>
</g>
<g>
</g>
<g>
</g>
<g>
</g>
<g>
</g>
<g>
</g>
<g>
</g>
<g>
</g>
</svg>
