<?xml version="1.0" encoding="iso-8859-1"?>
<!-- Generator: Adobe Illustrator 16.0.0, SVG Export Plug-In . SVG Version: 6.00 Build 0)  -->
<!DOCTYPE svg PUBLIC "-//W3C//DTD SVG 1.1//EN" "http://www.w3.org/Graphics/SVG/1.1/DTD/svg11.dtd">
<svg version="1.1" id="Layer_1" xmlns="http://www.w3.org/2000/svg" xmlns:xlink="http://www.w3.org/1999/xlink" x="0px" y="0px"
	 width="36px" height="64px" viewBox="0 0 36 64" style="enable-background:new 0 0 36 64;" xml:space="preserve">
<g id="Body_39_">
	<g>
		<path style="fill:#E6E6E6;" d="M24,0H12C5.372,0,0,5.372,0,12.001V52c0,6.628,5.372,12,12,12h12c6.627,0,12-5.372,12-12V12.001
			C36,5.372,30.627,0,24,0z"/>
	</g>
</g>
<g id="Apple_Logo">
	<g>
		<path style="fill-rule:evenodd;clip-rule:evenodd;fill:#B3B3B3;" d="M20.07,43.995c-0.556,0.02-1.229,0.318-1.628,0.722
			c-0.358,0.356-0.671,0.927-0.587,1.474c0.62,0.042,1.253-0.271,1.64-0.674C19.881,45.114,20.141,44.554,20.07,43.995z
			 M20.678,49.371c-0.012-1.251,1.015-1.852,1.061-1.882c-0.577-0.849-1.476-0.966-1.796-0.979c-0.765-0.078-1.492,0.453-1.88,0.453
			s-0.986-0.442-1.621-0.431c-0.834,0.013-1.602,0.487-2.031,1.239c-0.866,1.512-0.222,3.753,0.623,4.979
			c0.412,0.601,0.904,1.274,1.549,1.25c0.623-0.024,0.858-0.404,1.61-0.404c0.751,0,0.963,0.404,1.62,0.392
			c0.67-0.012,1.094-0.611,1.504-1.214c0.473-0.696,0.668-1.371,0.68-1.405C21.981,51.362,20.691,50.866,20.678,49.371z"/>
	</g>
</g>
<g>
</g>
<g>
</g>
<g>
</g>
<g>
</g>
<g>
</g>
<g>
</g>
<g>
</g>
<g>
</g>
<g>
</g>
<g>
</g>
<g>
</g>
<g>
</g>
<g>
</g>
<g>
</g>
<g>
</g>
</svg>
