<?xml version="1.0" encoding="iso-8859-1"?>
<!-- Generator: Adobe Illustrator 16.0.0, SVG Export Plug-In . SVG Version: 6.00 Build 0)  -->
<!DOCTYPE svg PUBLIC "-//W3C//DTD SVG 1.1//EN" "http://www.w3.org/Graphics/SVG/1.1/DTD/svg11.dtd">
<svg version="1.1" id="Layer_1" xmlns="http://www.w3.org/2000/svg" xmlns:xlink="http://www.w3.org/1999/xlink" x="0px" y="0px"
	 width="56px" height="64px" viewBox="0 0 56 64" style="enable-background:new 0 0 56 64;" xml:space="preserve">
<g id="Cable_12_">
	<g>
		<path style="fill:#CCCCCC;" d="M30,54h-4c-1.104,0-2,0.896-2,2v6c0,1.104,0.896,2,2,2h4c1.104,0,2-0.896,2-2v-6
			C32,54.896,31.104,54,30,54z"/>
	</g>
</g>
<g id="Cable_13_">
	<g>
		<path style="fill:#B3B3B3;" d="M32,46h-8c-1.104,0-2,0.896-2,2v6c0,1.104,0.896,2,2,2h8c1.104,0,2-0.896,2-2v-6
			C34,46.896,33.104,46,32,46z"/>
	</g>
</g>
<g id="Body_16_">
	<g>
		<path style="fill:#E6E6E6;" d="M52,8H4c-2.209,0-4,1.791-4,4v32c0,2.209,1.791,3.999,4,3.999h48c2.209,0,4-1.79,4-3.999V12
			C56,9.791,54.209,8,52,8z"/>
	</g>
</g>
<g id="Plug_1_">
	<g>
		<path style="fill-rule:evenodd;clip-rule:evenodd;fill:#B3B3B3;" d="M46,0H10C8.896,0,8,0.896,8,2v6h40V2C48,0.896,47.104,0,46,0z
			"/>
	</g>
</g>
<g id="Grey_Led_1_">
	<g>
		<circle style="fill:#999999;" cx="28" cy="28" r="2"/>
	</g>
</g>
<g>
</g>
<g>
</g>
<g>
</g>
<g>
</g>
<g>
</g>
<g>
</g>
<g>
</g>
<g>
</g>
<g>
</g>
<g>
</g>
<g>
</g>
<g>
</g>
<g>
</g>
<g>
</g>
<g>
</g>
</svg>
