<?xml version="1.0" encoding="iso-8859-1"?>
<!-- Generator: Adobe Illustrator 16.0.0, SVG Export Plug-In . SVG Version: 6.00 Build 0)  -->
<!DOCTYPE svg PUBLIC "-//W3C//DTD SVG 1.1//EN" "http://www.w3.org/Graphics/SVG/1.1/DTD/svg11.dtd">
<svg version="1.1" id="Layer_1" xmlns="http://www.w3.org/2000/svg" xmlns:xlink="http://www.w3.org/1999/xlink" x="0px" y="0px"
	 width="76px" height="64px" viewBox="0 0 76 64" style="enable-background:new 0 0 76 64;" xml:space="preserve">
<g id="Body_38_">
	<g>
		<path style="fill:#E6E6E6;" d="M38,0c-9.941,0-18,8.059-18,18v28c0,9.94,8.059,18,18,18s18-8.06,18-18V18C56,8.059,47.941,0,38,0z
			"/>
	</g>
</g>
<g id="Side_Btns">
	<g>
		<path style="fill-rule:evenodd;clip-rule:evenodd;fill:#B3B3B3;" d="M20,19.079v13.842c2.389-1.384,4-3.962,4-6.922
			C24,23.04,22.389,20.463,20,19.079z M52,25.999c0,2.96,1.611,5.538,4,6.922V19.078C53.611,20.462,52,23.04,52,25.999z"/>
	</g>
</g>
<g id="Btns">
	<g>
		<circle style="fill:#808080;" cx="38" cy="16" r="2"/>
	</g>
</g>
<g>
</g>
<g>
</g>
<g>
</g>
<g>
</g>
<g>
</g>
<g>
</g>
<g>
</g>
<g>
</g>
<g>
</g>
<g>
</g>
<g>
</g>
<g>
</g>
<g>
</g>
<g>
</g>
<g>
</g>
</svg>
