<?xml version="1.0" encoding="iso-8859-1"?>
<!-- Generator: Adobe Illustrator 16.0.0, SVG Export Plug-In . SVG Version: 6.00 Build 0)  -->
<!DOCTYPE svg PUBLIC "-//W3C//DTD SVG 1.1//EN" "http://www.w3.org/Graphics/SVG/1.1/DTD/svg11.dtd">
<svg version="1.1" id="Layer_1" xmlns="http://www.w3.org/2000/svg" xmlns:xlink="http://www.w3.org/1999/xlink" x="0px" y="0px"
	 width="64px" height="64px" viewBox="0 0 64 64" style="enable-background:new 0 0 64 64;" xml:space="preserve">
<g id="Line_5_">
	<g>
		<path style="fill:#CCCCCC;" d="M60,54H4c-2.209,0-4,1.79-4,4c0,2.209,1.791,4,4,4h56c2.209,0,4-1.791,4-4
			C64,55.79,62.209,54,60,54z"/>
	</g>
</g>
<g id="Dot">
	<g>
		<circle style="fill:#4D4D4D;" cx="32" cy="58" r="6"/>
	</g>
</g>
<g id="Shield">
	<g>
		<path style="fill:#ED7161;" d="M43.667,6.856C38.926,6.856,34.748,3.533,32,0c-2.749,3.533-6.925,6.856-11.667,6.856
			c-3.085,0-5.949-1.786-8.333-3.429v24.06c0,9.489,13.308,20.511,19.874,20.511c7.001,0,20.127-11.021,20.126-20.511V10.285V3.428
			C49.615,5.07,46.752,6.856,43.667,6.856z"/>
	</g>
</g>
<g id="Error">
	<g>
		<path style="fill-rule:evenodd;clip-rule:evenodd;fill:#FFFFFF;" d="M39.43,28.725l-4.703-4.702l4.703-4.702
			c0.742-0.743,0.742-1.948,0-2.691c-0.743-0.742-1.948-0.742-2.691,0l-4.703,4.703l-4.762-4.762c-0.746-0.747-1.955-0.747-2.701,0
			c-0.746,0.744-0.746,1.953,0,2.7l4.763,4.762l-4.705,4.706c-0.743,0.743-0.743,1.947,0,2.69s1.947,0.743,2.69,0l4.706-4.705
			l4.703,4.702c0.746,0.748,1.955,0.748,2.701,0C40.176,30.682,40.176,29.471,39.43,28.725z"/>
	</g>
</g>
<g>
</g>
<g>
</g>
<g>
</g>
<g>
</g>
<g>
</g>
<g>
</g>
<g>
</g>
<g>
</g>
<g>
</g>
<g>
</g>
<g>
</g>
<g>
</g>
<g>
</g>
<g>
</g>
<g>
</g>
</svg>
