<?xml version="1.0" encoding="iso-8859-1"?>
<!-- Generator: Adobe Illustrator 16.0.0, SVG Export Plug-In . SVG Version: 6.00 Build 0)  -->
<!DOCTYPE svg PUBLIC "-//W3C//DTD SVG 1.1//EN" "http://www.w3.org/Graphics/SVG/1.1/DTD/svg11.dtd">
<svg version="1.1" id="Layer_1" xmlns="http://www.w3.org/2000/svg" xmlns:xlink="http://www.w3.org/1999/xlink" x="0px" y="0px"
	 width="32px" height="64px" viewBox="0 0 32 64" style="enable-background:new 0 0 32 64;" xml:space="preserve">
<g id="Body_50_">
	<g>
		<path style="fill:#595959;" d="M30,4c0-2.209-1.791-4-4-4H6C3.791,0,2,1.791,2,4c0,0-2,9.668-2,23.5C0,41.664,2,60,2,60
			c0,2.209,1.791,4,4,4h20c2.209,0,4-1.791,4-4c0,0,2-18.336,2-32.5C32,13.668,30,4,30,4z"/>
	</g>
</g>
<g id="Back_Tray">
	<g>
		<path style="fill:#737373;" d="M26,16c0-2.209-1.791-4.001-4-4.001H10c-2.209,0-4,1.792-4,4.001c0,0-2,5.668-2,19.5
			C4,49.664,6,60,6,60c0,2.209,1.791,4,4,4h12c2.209,0,4-1.791,4-4c0,0,2-10.336,2-24.5C28,21.668,26,16,26,16z"/>
	</g>
</g>
<g id="Clip">
	<g>
		<path style="fill:#999999;" d="M20,56h-8c-1.104,0-2,0.895-2,2c0,1.104,0.896,2,2,2h8c1.104,0,2-0.896,2-2
			C22,56.895,21.104,56,20,56z"/>
	</g>
</g>
<g>
</g>
<g>
</g>
<g>
</g>
<g>
</g>
<g>
</g>
<g>
</g>
<g>
</g>
<g>
</g>
<g>
</g>
<g>
</g>
<g>
</g>
<g>
</g>
<g>
</g>
<g>
</g>
<g>
</g>
</svg>
