<?xml version="1.0" encoding="iso-8859-1"?>
<!-- Generator: Adobe Illustrator 16.0.0, SVG Export Plug-In . SVG Version: 6.00 Build 0)  -->
<!DOCTYPE svg PUBLIC "-//W3C//DTD SVG 1.1//EN" "http://www.w3.org/Graphics/SVG/1.1/DTD/svg11.dtd">
<svg version="1.1" id="Layer_1" xmlns="http://www.w3.org/2000/svg" xmlns:xlink="http://www.w3.org/1999/xlink" x="0px" y="0px"
	 width="32px" height="64px" viewBox="0 0 32 64" style="enable-background:new 0 0 32 64;" xml:space="preserve">
<g id="Body_51_">
	<g>
		<path style="fill:#595959;" d="M30,4c0-2.209-1.791-4-4-4H6C3.791,0,2,1.791,2,4c0,0-2,9.668-2,23.5C0,41.664,2,60,2,60
			c0,2.209,1.791,4,4,4h20c2.209,0,4-1.791,4-4c0,0,2-18.336,2-32.5C32,13.668,30,4,30,4z"/>
	</g>
</g>
<g id="Keyboard_1_">
	<g>
		<path style="fill-rule:evenodd;clip-rule:evenodd;fill:#B3B3B3;" d="M8,48c-1.104,0-2,0.896-2,2s0.896,2,2,2s2-0.896,2-2
			S9.104,48,8,48z M8,56c-1.104,0-2,0.895-2,2c0,1.104,0.896,2,2,2s2-0.896,2-2C10,56.895,9.104,56,8,56z M16,48
			c-1.104,0-2,0.896-2,2s0.896,2,2,2s2-0.896,2-2S17.104,48,16,48z M16,56c-1.104,0-2,0.895-2,2c0,1.104,0.896,2,2,2s2-0.896,2-2
			C18,56.895,17.104,56,16,56z M24,52c1.104,0,2-0.896,2-2s-0.896-2-2-2s-2,0.896-2,2S22.896,52,24,52z M24,56c-1.104,0-2,0.895-2,2
			c0,1.104,0.896,2,2,2s2-0.896,2-2C26,56.895,25.104,56,24,56z"/>
	</g>
</g>
<g id="Frame_12_">
	<g>
		<path style="fill-rule:evenodd;clip-rule:evenodd;fill:#B3B3B3;" d="M4.003,28.479C4.001,28.552,4,28.65,4,28.804
			C4,28.697,4.002,28.587,4.003,28.479z M27.995,28.128C27.996,28.231,28,28.338,28,28.439C28,28.13,28.002,28.041,27.995,28.128z
			 M26,6c0-1.105-0.896-2-2-2h-6h-4H8C6.896,4,6,4.895,6,6v5.999c0,0-1.938,9.441-1.997,16.48C4.044,26.766,4.776,46,16,46
			c11.053,0,11.928-17.039,11.995-17.872C27.938,21.13,26,11.999,26,11.999V6z"/>
	</g>
</g>
<g id="Shape_15_">
	<g>
		<path style="fill:#595959;" d="M22,8H10L8,36c0,0,5.333,6,8,6c2.666,0,8-6,8-6L22,8z"/>
	</g>
</g>
<g id="Display_11_">
	<g>
		<polygon style="fill-rule:evenodd;clip-rule:evenodd;fill:#88C057;" points="8.286,32 23.714,32 22.857,20 9.143,20 		"/>
	</g>
</g>
<g>
</g>
<g>
</g>
<g>
</g>
<g>
</g>
<g>
</g>
<g>
</g>
<g>
</g>
<g>
</g>
<g>
</g>
<g>
</g>
<g>
</g>
<g>
</g>
<g>
</g>
<g>
</g>
<g>
</g>
</svg>
