<?xml version="1.0" encoding="iso-8859-1"?>
<!-- Generator: Adobe Illustrator 16.0.0, SVG Export Plug-In . SVG Version: 6.00 Build 0)  -->
<!DOCTYPE svg PUBLIC "-//W3C//DTD SVG 1.1//EN" "http://www.w3.org/Graphics/SVG/1.1/DTD/svg11.dtd">
<svg version="1.1" id="Layer_1" xmlns="http://www.w3.org/2000/svg" xmlns:xlink="http://www.w3.org/1999/xlink" x="0px" y="0px"
	 width="44px" height="64px" viewBox="0 0 44 64" style="enable-background:new 0 0 44 64;" xml:space="preserve">
<g id="Stand_2_">
	<g>
		<path style="fill-rule:evenodd;clip-rule:evenodd;fill:#DBC69C;" d="M38,60H6H4v1.999c0,0,0,0,0,0.001c0,1.104,0.896,2,2,2h32
			c1.104,0,2-0.896,2-2c0-0.001,0-0.001,0-0.001V60H38z"/>
	</g>
</g>
<g id="Body_48_">
	<g>
		<path style="fill:#F4DDAE;" d="M40,0H4C1.791,0,0,1.79,0,4v52c0,2.209,1.791,4,4,4h36c2.209,0,4-1.791,4-4V4
			C44,1.79,42.209,0,40,0z"/>
	</g>
</g>
<g id="Disc_Socket">
	<g>
		<path style="fill-rule:evenodd;clip-rule:evenodd;fill:#80735B;" d="M38,44h-4c-1.104,0-2,0.895-2,2H22c-1.104,0-2,0.895-2,2
			c0,1.104,0.896,2,2,2h10c0,1.104,0.896,2,2,2h4c1.104,0,2-0.896,2-2v-4C40,44.895,39.104,44,38,44z"/>
	</g>
</g>
<g id="Frame_5_">
	<g>
		<path style="fill:#CCB891;" d="M38,4H6C4.896,4,4,4.895,4,6v28c0,1.104,0.896,2,2,2h32c1.104,0,2-0.896,2-2V6
			C40,4.895,39.104,4,38,4z"/>
	</g>
</g>
<g id="Display">
	<g>
		<rect x="8" y="8" style="fill:#4D4D4D;" width="28" height="24"/>
	</g>
</g>
<g>
</g>
<g>
</g>
<g>
</g>
<g>
</g>
<g>
</g>
<g>
</g>
<g>
</g>
<g>
</g>
<g>
</g>
<g>
</g>
<g>
</g>
<g>
</g>
<g>
</g>
<g>
</g>
<g>
</g>
</svg>
