<?xml version="1.0" encoding="iso-8859-1"?>
<!-- Generator: Adobe Illustrator 16.0.0, SVG Export Plug-In . SVG Version: 6.00 Build 0)  -->
<!DOCTYPE svg PUBLIC "-//W3C//DTD SVG 1.1//EN" "http://www.w3.org/Graphics/SVG/1.1/DTD/svg11.dtd">
<svg version="1.1" id="Layer_1" xmlns="http://www.w3.org/2000/svg" xmlns:xlink="http://www.w3.org/1999/xlink" x="0px" y="0px"
	 width="64px" height="80.001px" viewBox="0 0 64 80.001" style="enable-background:new 0 0 64 80.001;" xml:space="preserve">
<g id="Body_45_">
	<g>
		<path style="fill-rule:evenodd;clip-rule:evenodd;fill:#B3B3B3;" d="M60,8h-4c0,4.419-15.582,6.001-20,6.001h-8
			c-4.418,0-20-1.582-20-6.001H4c-2.209,0-4,1.791-4,4v56.001c0,2.209,1.791,4,4,4h4c0-4.419,15.582-6,20-6h8c4.418,0,20,1.581,20,6
			h4c2.209,0,4-1.791,4-4V12C64,9.791,62.209,8,60,8z"/>
	</g>
</g>
<g id="Body_46_">
	<g>
		<path style="fill-rule:evenodd;clip-rule:evenodd;fill:#CCCCCC;" d="M60,8h-4c0,4.419-3.582,8.001-8,8.001H16
			c-4.418,0-8-3.582-8-8.001H4c-2.209,0-4,1.791-4,4v56.001c0,2.209,1.791,4,4,4h4C8,67.582,11.582,64,16,64h32
			c4.418,0,8,3.582,8,8.001h4c2.209,0,4-1.791,4-4V12C64,9.791,62.209,8,60,8z"/>
	</g>
</g>
<g id="Apple_Logo_2_">
	<g>
		<path style="fill-rule:evenodd;clip-rule:evenodd;fill:#4D4D4D;" d="M34.99,33.022c0.771-0.808,1.292-1.929,1.15-3.048
			c-1.111,0.039-2.458,0.638-3.255,1.445c-0.716,0.715-1.341,1.857-1.174,2.953C32.952,34.456,34.217,33.828,34.99,33.022z
			 M37.356,40.745c-0.024-2.508,2.029-3.711,2.122-3.771c-1.154-1.702-2.952-1.935-3.592-1.961c-1.53-0.157-2.985,0.907-3.761,0.907
			c-0.774,0-1.972-0.886-3.241-0.862c-1.668,0.026-3.205,0.977-4.063,2.482c-1.733,3.03-0.444,7.519,1.245,9.976
			c0.826,1.203,1.809,2.553,3.1,2.503c1.245-0.048,1.715-0.811,3.219-0.811c1.503,0,1.926,0.811,3.242,0.786
			c1.338-0.023,2.187-1.226,3.006-2.432c0.947-1.395,1.336-2.746,1.36-2.814C39.962,44.733,37.383,43.739,37.356,40.745z"/>
	</g>
</g>
<g>
</g>
<g>
</g>
<g>
</g>
<g>
</g>
<g>
</g>
<g>
</g>
<g>
</g>
<g>
</g>
<g>
</g>
<g>
</g>
<g>
</g>
<g>
</g>
<g>
</g>
<g>
</g>
<g>
</g>
</svg>
