<?xml version="1.0" encoding="iso-8859-1"?>
<!-- Generator: Adobe Illustrator 16.0.0, SVG Export Plug-In . SVG Version: 6.00 Build 0)  -->
<!DOCTYPE svg PUBLIC "-//W3C//DTD SVG 1.1//EN" "http://www.w3.org/Graphics/SVG/1.1/DTD/svg11.dtd">
<svg version="1.1" id="Layer_1" xmlns="http://www.w3.org/2000/svg" xmlns:xlink="http://www.w3.org/1999/xlink" x="0px" y="0px"
	 width="36px" height="64.001px" viewBox="0 0 36 64.001" style="enable-background:new 0 0 36 64.001;" xml:space="preserve">
<g id="Body_42_">
	<g>
		<path style="fill:#666666;" d="M32,0H4C1.791,0,0,1.791,0,4v56.001c0,2.209,1.791,4,4,4h28c2.209,0,4-1.791,4-4V4
			C36,1.791,34.209,0,32,0z"/>
	</g>
</g>
<g id="Trays">
	<g>
		<path style="fill-rule:evenodd;clip-rule:evenodd;fill:#999999;" d="M30,4H6C4.896,4,4,4.896,4,6.001v4c0,1.104,0.896,2,2,2h24
			c1.104,0,2-0.896,2-2v-4C32,4.896,31.104,4,30,4z M30,16H6c-1.104,0-2,0.896-2,2v4c0,1.105,0.896,2.001,2,2.001h24
			c1.104,0,2-0.896,2-2.001v-4C32,16.896,31.104,16,30,16z"/>
	</g>
</g>
<g id="USB_Holes">
	<g>
		<path style="fill-rule:evenodd;clip-rule:evenodd;fill:#333333;" d="M6,52h4c1.104,0,2-0.896,2-1.999C12,48.896,11.104,48,10,48H6
			c-1.104,0-2,0.896-2,2.001C4,51.104,4.896,52,6,52z M10,56H6c-1.104,0-2,0.896-2,2.001c0,1.104,0.896,2,2,2h4c1.104,0,2-0.896,2-2
			C12,56.896,11.104,56,10,56z"/>
	</g>
</g>
<g id="Power_BTN">
	<g>
		<circle style="fill:#88C057;" cx="18" cy="36" r="4"/>
	</g>
</g>
<g>
</g>
<g>
</g>
<g>
</g>
<g>
</g>
<g>
</g>
<g>
</g>
<g>
</g>
<g>
</g>
<g>
</g>
<g>
</g>
<g>
</g>
<g>
</g>
<g>
</g>
<g>
</g>
<g>
</g>
</svg>
