<?xml version="1.0" encoding="iso-8859-1"?>
<!-- Generator: Adobe Illustrator 16.0.0, SVG Export Plug-In . SVG Version: 6.00 Build 0)  -->
<!DOCTYPE svg PUBLIC "-//W3C//DTD SVG 1.1//EN" "http://www.w3.org/Graphics/SVG/1.1/DTD/svg11.dtd">
<svg version="1.1" id="Layer_1" xmlns="http://www.w3.org/2000/svg" xmlns:xlink="http://www.w3.org/1999/xlink" x="0px" y="0px"
	 width="36px" height="64px" viewBox="0 0 36 64" style="enable-background:new 0 0 36 64;" xml:space="preserve">
<g id="Buclke">
	<g>
		<path style="fill:#CCCCCC;" d="M24,0H12C9.791,0,8,1.791,8,4v56c0,2.209,1.791,4,4,4h12c2.209,0,4-1.791,4-4V4
			C28,1.791,26.209,0,24,0z"/>
	</g>
</g>
<g id="Frame_22_">
	<g>
		<path style="fill-rule:evenodd;clip-rule:evenodd;fill:#48A0DC;" d="M32,10h-4v2c0,1.104-0.896,2-2,2H10c-1.104,0-2-0.896-2-2v-2
			H4c-2.209,0-4,1.791-4,4v36c0,2.209,1.791,4,4,4h4v-2c0-1.104,0.896-2,2-2h16c1.104,0,2,0.896,2,2v2h4c2.209,0,4-1.791,4-4V14
			C36,11.791,34.209,10,32,10z"/>
	</g>
</g>
<g id="Display_26_">
	<g>
		<path style="fill:#333333;" d="M26,20H10c-1.104,0-2,0.896-2,2v20c0,1.104,0.896,2,2,2h16c1.104,0,2-0.896,2-2V22
			C28,20.896,27.104,20,26,20z"/>
	</g>
</g>
<g>
</g>
<g>
</g>
<g>
</g>
<g>
</g>
<g>
</g>
<g>
</g>
<g>
</g>
<g>
</g>
<g>
</g>
<g>
</g>
<g>
</g>
<g>
</g>
<g>
</g>
<g>
</g>
<g>
</g>
</svg>
