<?xml version="1.0" encoding="iso-8859-1"?>
<!-- Generator: Adobe Illustrator 16.0.0, SVG Export Plug-In . SVG Version: 6.00 Build 0)  -->
<!DOCTYPE svg PUBLIC "-//W3C//DTD SVG 1.1//EN" "http://www.w3.org/Graphics/SVG/1.1/DTD/svg11.dtd">
<svg version="1.1" id="Layer_1" xmlns="http://www.w3.org/2000/svg" xmlns:xlink="http://www.w3.org/1999/xlink" x="0px" y="0px"
	 width="64px" height="64px" viewBox="0 0 64 64" style="enable-background:new 0 0 64 64;" xml:space="preserve">
<g id="Paper">
	<g>
		<path style="fill:#E6E6E6;" d="M58,0H6C4.896,0,4,0.896,4,2.001v52C4,55.105,4.896,56,6,56h52c1.104,0,2-0.895,2-1.999v-52
			C60,0.896,59.104,0,58,0z"/>
	</g>
</g>
<g id="Paper_1_">
	<g>
		<rect x="8" y="4" style="fill:#FFFFFF;" width="48" height="20"/>
	</g>
</g>
<g id="Body_32_">
	<g>
		<path style="fill:#4D4D4D;" d="M60,24H4c-2.209,0-4,1.791-4,4.001V60c0,2.21,1.791,4,4,4h56c2.209,0,4-1.79,4-4V28.001
			C64,25.791,62.209,24,60,24z"/>
	</g>
</g>
<g id="Band">
	<g>
		<rect x="8" y="24" style="fill:#999999;" width="8" height="40"/>
	</g>
</g>
<g id="Grey_Led_4_">
	<g>
		<circle style="fill:#808080;" cx="54" cy="42.001" r="2"/>
	</g>
</g>
<g id="Blue_Led_1_">
	<g>
		<circle style="fill:#48A0DC;" cx="54" cy="34.001" r="2"/>
	</g>
</g>
<g>
</g>
<g>
</g>
<g>
</g>
<g>
</g>
<g>
</g>
<g>
</g>
<g>
</g>
<g>
</g>
<g>
</g>
<g>
</g>
<g>
</g>
<g>
</g>
<g>
</g>
<g>
</g>
<g>
</g>
</svg>
