<?xml version="1.0" encoding="iso-8859-1"?>
<!-- Generator: Adobe Illustrator 16.0.0, SVG Export Plug-In . SVG Version: 6.00 Build 0)  -->
<!DOCTYPE svg PUBLIC "-//W3C//DTD SVG 1.1//EN" "http://www.w3.org/Graphics/SVG/1.1/DTD/svg11.dtd">
<svg version="1.1" id="Layer_1" xmlns="http://www.w3.org/2000/svg" xmlns:xlink="http://www.w3.org/1999/xlink" x="0px" y="0px"
	 width="64.055px" height="63.99px" viewBox="0 0 64.055 63.99" style="enable-background:new 0 0 64.055 63.99;"
	 xml:space="preserve">
<g id="Cable">
	<g>
		<path style="fill:#CCCCCC;" d="M34.854,29.138c-1.587-1.587-4.16-1.587-5.747,0L1.19,57.055c-1.587,1.586-1.587,4.159,0,5.746
			s4.159,1.587,5.746,0l27.917-27.916C36.44,33.298,36.44,30.725,34.854,29.138z"/>
	</g>
</g>
<g id="Socket">
	<g>
		<path style="fill-rule:evenodd;clip-rule:evenodd;fill:#FFCC66;" d="M51.482,0.572c-0.763-0.763-1.999-0.763-2.762,0
			L26.624,22.668c-0.763,0.764-0.763,2,0,2.763s2,0.763,2.763,0L51.482,3.334C52.245,2.571,52.245,1.335,51.482,0.572z
			 M63.482,10.572c-0.763-0.764-1.999-0.764-2.762,0L38.624,32.668c-0.763,0.763-0.763,2,0,2.762c0.763,0.764,2,0.764,2.763,0
			l22.096-22.096C64.245,12.571,64.245,11.334,63.482,10.572z"/>
	</g>
</g>
<g id="Body_2_">
	<g>
		<path style="fill:#808080;" d="M32.62,8.004L20.905,19.7c-6.471,6.46-6.471,16.933,0,23.393c6.47,6.459,16.96,6.459,23.43,0
			L56.05,31.396L32.62,8.004z"/>
	</g>
</g>
<g id="Body_3_">
	<g>
		<path style="fill:#999999;" d="M33.993,16.003l-7.029,7.029c-3.882,3.882-3.882,10.175,0,14.057
			c3.883,3.882,10.177,3.882,14.059,0l7.029-7.028L33.993,16.003z"/>
	</g>
</g>
<g id="Shape_1_">
	<g>
		<path style="fill:#4D4D4D;" d="M56.836,29.089L34.903,7.156c-1.572-1.573-4.122-1.573-5.695,0c-1.572,1.572-1.572,4.122,0,5.695
			l21.933,21.932c1.572,1.573,4.122,1.573,5.695,0C58.408,33.211,58.408,30.661,56.836,29.089z"/>
	</g>
</g>
<g>
</g>
<g>
</g>
<g>
</g>
<g>
</g>
<g>
</g>
<g>
</g>
<g>
</g>
<g>
</g>
<g>
</g>
<g>
</g>
<g>
</g>
<g>
</g>
<g>
</g>
<g>
</g>
<g>
</g>
</svg>
