<?xml version="1.0" encoding="iso-8859-1"?>
<!-- Generator: Adobe Illustrator 16.0.0, SVG Export Plug-In . SVG Version: 6.00 Build 0)  -->
<!DOCTYPE svg PUBLIC "-//W3C//DTD SVG 1.1//EN" "http://www.w3.org/Graphics/SVG/1.1/DTD/svg11.dtd">
<svg version="1.1" id="Layer_1" xmlns="http://www.w3.org/2000/svg" xmlns:xlink="http://www.w3.org/1999/xlink" x="0px" y="0px"
	 width="64px" height="48px" viewBox="0 0 64 48" style="enable-background:new 0 0 64 48;" xml:space="preserve">
<g id="Paper_Tray_3_">
	<g>
		<path style="fill:#4D4D4D;" d="M56,34H8c-2.209,0-4,1.791-4,4v6c0,2.209,1.791,4,4,4h48c2.209,0,4-1.791,4-4v-6
			C60,35.791,58.209,34,56,34z"/>
	</g>
</g>
<g id="Paper_Tray_2_">
	<g>
		<path style="fill:#999999;" d="M50,0H14c-1.104,0-2,0.895-2,2v30c0,1.104,0.896,2,2,2h36c1.104,0,2-0.896,2-2V2
			C52,0.895,51.104,0,50,0z"/>
	</g>
</g>
<g id="Body_31_">
	<g>
		<path style="fill-rule:evenodd;clip-rule:evenodd;fill:#E6E6E6;" d="M60,12H4c-2.209,0-4,1.79-4,4v24c0,2.209,1.791,4,4,4h4v-4
			c0-2.209,1.791-4,4-4h40c2.209,0,4,1.791,4,4v4h4c2.209,0,4-1.791,4-4V16C64,13.79,62.209,12,60,12z"/>
	</g>
</g>
<g id="Grey_Led_3_">
	<g>
		<circle style="fill:#808080;" cx="54" cy="30" r="2"/>
	</g>
</g>
<g id="Blue_Led">
	<g>
		<circle style="fill:#48A0DC;" cx="54" cy="22" r="2"/>
	</g>
</g>
<g>
</g>
<g>
</g>
<g>
</g>
<g>
</g>
<g>
</g>
<g>
</g>
<g>
</g>
<g>
</g>
<g>
</g>
<g>
</g>
<g>
</g>
<g>
</g>
<g>
</g>
<g>
</g>
<g>
</g>
</svg>
