<?xml version="1.0" encoding="iso-8859-1"?>
<!-- Generator: Adobe Illustrator 16.0.0, SVG Export Plug-In . SVG Version: 6.00 Build 0)  -->
<!DOCTYPE svg PUBLIC "-//W3C//DTD SVG 1.1//EN" "http://www.w3.org/Graphics/SVG/1.1/DTD/svg11.dtd">
<svg version="1.1" id="Layer_1" xmlns="http://www.w3.org/2000/svg" xmlns:xlink="http://www.w3.org/1999/xlink" x="0px" y="0px"
	 width="64.006px" height="64.006px" viewBox="0 0 64.006 64.006" style="enable-background:new 0 0 64.006 64.006;"
	 xml:space="preserve">
<g id="Card">
	<g>
		<path style="fill:#668A47;" d="M62.844,17.984l-7.192-7.191c-1.009,0.768-2.253,1.242-3.618,1.242c-3.313,0-6-2.687-6-6
			c0-1.366,0.474-2.61,1.242-3.619l-1.255-1.254c-1.548-1.549-4.059-1.549-5.607,0L1.16,40.415c-1.548,1.549-1.548,4.06,0,5.607
			l1.255,1.255c1.008-0.769,2.253-1.242,3.618-1.242c3.313,0,6,2.686,6,6c0,1.365-0.475,2.609-1.242,3.618l7.192,7.192
			c1.548,1.548,4.059,1.548,5.607,0l39.253-39.253C64.393,22.044,64.393,19.533,62.844,17.984z"/>
	</g>
</g>
<g id="Card_1_">
	<g>
		<path style="fill:#4B6A30;" d="M62.844,17.984l-3.38-3.38l-44.861,44.86l3.381,3.381c1.548,1.548,4.059,1.548,5.607,0
			l39.253-39.253C64.393,22.044,64.393,19.533,62.844,17.984z"/>
	</g>
</g>
<g id="Pins_8_">
	<g>
		<path style="fill:#FFCC66;" d="M32.63,44.632c-0.848,0.847-0.848,2.221,0,3.067l3.068,3.068l3.067-3.067l-3.067-3.068
			C34.851,43.784,33.477,43.784,32.63,44.632z M26.63,50.632c-0.847,0.847-0.847,2.221,0,3.067l3.068,3.068l3.067-3.068
			l-3.067-3.067C28.851,49.785,27.478,49.785,26.63,50.632z M20.63,56.632c-0.848,0.847-0.848,2.221,0,3.067l3.068,3.068
			l3.067-3.068l-3.067-3.067C22.851,55.784,21.478,55.784,20.63,56.632z M44.63,32.632c-0.847,0.847-0.847,2.221,0,3.067
			l3.068,3.068l3.067-3.068l-3.067-3.067C46.851,31.784,45.478,31.784,44.63,32.632z M59.698,20.632
			c-0.848-0.847-2.221-0.847-3.068,0s-0.848,2.221,0,3.068l3.068,3.067l3.067-3.068L59.698,20.632z M38.63,38.631
			c-0.848,0.849-0.848,2.222,0,3.069l3.068,3.067l3.067-3.068l-3.067-3.068C40.851,37.784,39.478,37.784,38.63,38.631z
			 M50.63,26.632c-0.848,0.847-0.848,2.221,0,3.067l3.068,3.068l3.067-3.068l-3.067-3.067C52.851,25.784,51.477,25.784,50.63,26.632
			z"/>
	</g>
</g>
<g id="Chips_1_">
	<g>
		<path style="fill-rule:evenodd;clip-rule:evenodd;fill:#4D4D4D;" d="M17.033,32.607c-0.775-0.775-2.033-0.775-2.809,0
			l-5.618,5.618c-0.776,0.775-0.776,2.033,0,2.81l8.427,8.426c0.775,0.776,2.033,0.776,2.809,0l5.618-5.617
			c0.775-0.775,0.775-2.033,0-2.809L17.033,32.607z M29.033,20.607c-0.775-0.775-2.033-0.775-2.809,0l-5.618,5.618
			c-0.775,0.776-0.775,2.034,0,2.81l8.427,8.427c0.775,0.775,2.033,0.775,2.809,0l5.618-5.618c0.775-0.775,0.775-2.033,0-2.809
			L29.033,20.607z M49.46,17.035l-8.427-8.428c-0.775-0.775-2.033-0.775-2.809,0l-5.618,5.618c-0.775,0.776-0.775,2.033,0,2.81
			l8.427,8.426c0.775,0.776,2.033,0.776,2.809,0l5.618-5.617C50.235,19.068,50.235,17.811,49.46,17.035z"/>
	</g>
</g>
<g>
</g>
<g>
</g>
<g>
</g>
<g>
</g>
<g>
</g>
<g>
</g>
<g>
</g>
<g>
</g>
<g>
</g>
<g>
</g>
<g>
</g>
<g>
</g>
<g>
</g>
<g>
</g>
<g>
</g>
</svg>
