<?xml version="1.0" encoding="iso-8859-1"?>
<!-- Generator: Adobe Illustrator 16.0.0, SVG Export Plug-In . SVG Version: 6.00 Build 0)  -->
<!DOCTYPE svg PUBLIC "-//W3C//DTD SVG 1.1//EN" "http://www.w3.org/Graphics/SVG/1.1/DTD/svg11.dtd">
<svg version="1.1" id="Layer_1" xmlns="http://www.w3.org/2000/svg" xmlns:xlink="http://www.w3.org/1999/xlink" x="0px" y="0px"
	 width="64px" height="56px" viewBox="0 0 64 56" style="enable-background:new 0 0 64 56;" xml:space="preserve">
<g id="Antenas">
	<g>
		<path style="fill-rule:evenodd;clip-rule:evenodd;fill:#999999;" d="M58.563,4.05c-1.045-0.278-2.119,0.339-2.399,1.379L44,34.001
			c-0.28,1.039,2.391,1.672,3.437,1.95c1.045,0.278,4.283-0.911,4.563-1.95l7.949-27.563C60.229,5.397,59.608,4.329,58.563,4.05z
			 M32,0c-1.104,0-2,0.896-2,2.001l-2,32c0,1.104,2.896,2,4,2s4-0.896,4-2l-2-32C34,0.896,33.104,0,32,0z M7.836,5.429
			c-0.28-1.04-1.354-1.657-2.399-1.379C4.391,4.329,3.771,5.397,4.051,6.438L12,34.001c0.28,1.039,3.519,2.229,4.563,1.95
			s3.716-0.911,3.437-1.95L7.836,5.429z"/>
	</g>
</g>
<g id="Body_33_">
	<g>
		<path style="fill:#CCCCCC;" d="M60,32.001H4c-2.209,0-4,1.79-4,4v16C0,54.21,1.791,56,4,56h56c2.209,0,4-1.79,4-3.999v-16
			C64,33.791,62.209,32.001,60,32.001z"/>
	</g>
</g>
<g id="Body_34_">
	<g>
		<rect y="36.001" style="fill:#4D4D4D;" width="64" height="16"/>
	</g>
</g>
<g id="Grey_Led_5_">
	<g>
		<path style="fill-rule:evenodd;clip-rule:evenodd;fill:#808080;" d="M20,42c-1.104,0-2,0.896-2,2.001C18,45.104,18.896,46,20,46
			s2-0.896,2-1.999C22,42.896,21.104,42,20,42z M32,42c-1.104,0-2,0.896-2,2.001C30,45.104,30.896,46,32,46s2-0.896,2-1.999
			C34,42.896,33.104,42,32,42z M44,42c-1.104,0-2,0.896-2,2.001C42,45.104,42.896,46,44,46s2-0.896,2-1.999
			C46,42.896,45.104,42,44,42z M56,42c-1.104,0-2,0.896-2,2.001C54,45.104,54.896,46,56,46s2-0.896,2-1.999
			C58,42.896,57.104,42,56,42z"/>
	</g>
</g>
<g id="Green_Led_1_">
	<g>
		<circle style="fill:#88C057;" cx="8" cy="44" r="2"/>
	</g>
</g>
<g>
</g>
<g>
</g>
<g>
</g>
<g>
</g>
<g>
</g>
<g>
</g>
<g>
</g>
<g>
</g>
<g>
</g>
<g>
</g>
<g>
</g>
<g>
</g>
<g>
</g>
<g>
</g>
<g>
</g>
</svg>
