<?xml version="1.0" encoding="iso-8859-1"?>
<!-- Generator: Adobe Illustrator 16.0.0, SVG Export Plug-In . SVG Version: 6.00 Build 0)  -->
<!DOCTYPE svg PUBLIC "-//W3C//DTD SVG 1.1//EN" "http://www.w3.org/Graphics/SVG/1.1/DTD/svg11.dtd">
<svg version="1.1" id="Layer_1" xmlns="http://www.w3.org/2000/svg" xmlns:xlink="http://www.w3.org/1999/xlink" x="0px" y="0px"
	 width="28px" height="64px" viewBox="0 0 28 64" style="enable-background:new 0 0 28 64;" xml:space="preserve">
<g id="Buclke_1_">
	<g>
		<path style="fill:#4D4D4D;" d="M20,0H8C5.791,0,4,1.791,4,4v56c0,2.209,1.791,4,4,4h12c2.209,0,4-1.791,4-4V4
			C24,1.791,22.209,0,20,0z"/>
	</g>
</g>
<g id="Frame_23_">
	<g>
		<path style="fill:#333333;" d="M24,10H4c-2.209,0-4,1.791-4,4v36c0,2.209,1.791,4,4,4h20c2.209,0,4-1.791,4-4V14
			C28,11.791,26.209,10,24,10z"/>
	</g>
</g>
<g id="Display_27_">
	<g>
		<path style="fill:#FFCC66;" d="M22,14H6c-1.104,0-2,0.895-2,2v32c0,1.104,0.896,2,2,2h16c1.104,0,2-0.896,2-2V16
			C24,14.895,23.104,14,22,14z"/>
	</g>
</g>
<g>
</g>
<g>
</g>
<g>
</g>
<g>
</g>
<g>
</g>
<g>
</g>
<g>
</g>
<g>
</g>
<g>
</g>
<g>
</g>
<g>
</g>
<g>
</g>
<g>
</g>
<g>
</g>
<g>
</g>
</svg>
