<?xml version="1.0" encoding="iso-8859-1"?>
<!-- Generator: Adobe Illustrator 16.0.0, SVG Export Plug-In . SVG Version: 6.00 Build 0)  -->
<!DOCTYPE svg PUBLIC "-//W3C//DTD SVG 1.1//EN" "http://www.w3.org/Graphics/SVG/1.1/DTD/svg11.dtd">
<svg version="1.1" id="Layer_1" xmlns="http://www.w3.org/2000/svg" xmlns:xlink="http://www.w3.org/1999/xlink" x="0px" y="0px"
	 width="36px" height="64px" viewBox="0 0 36 64" style="enable-background:new 0 0 36 64;" xml:space="preserve">
<g id="Bevel_12_">
	<g>
		<path style="fill:#E6E6E6;" d="M28,0H8C3.582,0,0,3.582,0,8.001v48C0,60.419,3.582,64,8,64h20c4.418,0,8-3.581,8-7.999v-48
			C36,3.582,32.418,0,28,0z"/>
	</g>
</g>
<g id="Home_Btn_5_">
	<g>
		<path style="fill:#B3B3B3;" d="M22,56.001h-8c-1.104,0-2,0.895-2,1.999s0.896,2.001,2,2.001h8c1.104,0,2-0.896,2-2.001
			S23.104,56.001,22,56.001z"/>
	</g>
</g>
<g id="Display_12_">
	<g>
		<rect x="4" y="7.998" style="fill:#333333;" width="28" height="44"/>
	</g>
</g>
<g>
</g>
<g>
</g>
<g>
</g>
<g>
</g>
<g>
</g>
<g>
</g>
<g>
</g>
<g>
</g>
<g>
</g>
<g>
</g>
<g>
</g>
<g>
</g>
<g>
</g>
<g>
</g>
<g>
</g>
</svg>
