<?xml version="1.0" encoding="iso-8859-1"?>
<!-- Generator: Adobe Illustrator 16.0.0, SVG Export Plug-In . SVG Version: 6.00 Build 0)  -->
<!DOCTYPE svg PUBLIC "-//W3C//DTD SVG 1.1//EN" "http://www.w3.org/Graphics/SVG/1.1/DTD/svg11.dtd">
<svg version="1.1" id="Layer_1" xmlns="http://www.w3.org/2000/svg" xmlns:xlink="http://www.w3.org/1999/xlink" x="0px" y="0px"
	 width="36px" height="64px" viewBox="0 0 36 64" style="enable-background:new 0 0 36 64;" xml:space="preserve">
<g id="Blitz">
	<g>
		<path style="fill:#E6E6E6;" d="M28,0H8C3.582,0,0,3.582,0,8v48.001C0,60.419,3.582,64,8,64h20c4.418,0,8-3.581,8-7.999V8
			C36,3.582,32.418,0,28,0z"/>
	</g>
</g>
<g id="Lens_Frame">
	<g>
		<path style="fill:#808080;" d="M20,8h-4c-1.105,0-2,0.896-2,2v4c0,1.105,0.895,2,2,2h4c1.104,0,2-0.895,2-2v-4
			C22,8.896,21.105,8,20,8z"/>
	</g>
</g>
<g id="Rounded_Rectangle_8">
	<g>
		<path style="fill:#808080;" d="M20,20h-4c-1.105,0-2,0.896-2,2.001C14,23.104,14.896,24,16,24h4c1.104,0,2-0.896,2-1.999
			C22,20.896,21.105,20,20,20z"/>
	</g>
</g>
<g id="Lens">
	<g>
		<circle style="fill:#333333;" cx="18" cy="12" r="2"/>
	</g>
</g>
<g id="Holes_5_">
	<g>
		<path style="fill:#CCCCCC;" d="M10,52.001H6c-1.104,0-2,0.895-2,1.999s0.896,2.001,2,2.001h4c1.104,0,2-0.896,2-2.001
			S11.105,52.001,10,52.001z"/>
	</g>
</g>
<g>
</g>
<g>
</g>
<g>
</g>
<g>
</g>
<g>
</g>
<g>
</g>
<g>
</g>
<g>
</g>
<g>
</g>
<g>
</g>
<g>
</g>
<g>
</g>
<g>
</g>
<g>
</g>
<g>
</g>
</svg>
