<?xml version="1.0" encoding="iso-8859-1"?>
<!-- Generator: Adobe Illustrator 16.0.0, SVG Export Plug-In . SVG Version: 6.00 Build 0)  -->
<!DOCTYPE svg PUBLIC "-//W3C//DTD SVG 1.1//EN" "http://www.w3.org/Graphics/SVG/1.1/DTD/svg11.dtd">
<svg version="1.1" id="Layer_1" xmlns="http://www.w3.org/2000/svg" xmlns:xlink="http://www.w3.org/1999/xlink" x="0px" y="0px"
	 width="64px" height="60px" viewBox="0 0 64 60" style="enable-background:new 0 0 64 60;" xml:space="preserve">
<g id="Body_41_">
	<g>
		<path style="fill-rule:evenodd;clip-rule:evenodd;fill:#666666;" d="M64,16V4c0-2.209-1.791-4-4-4H4C1.791,0,0,1.791,0,4v12
			c0,2.209,1.791,4,4,4c-2.209,0-4,1.79-4,4v12c0,2.209,1.791,4,4,4c-2.209,0-4,1.79-4,4v12c0,2.209,1.791,4,4,4h56
			c2.209,0,4-1.791,4-4V44c0-2.21-1.791-4-4-4c2.209,0,4-1.791,4-4V24c0-2.21-1.791-4-4-4C62.209,20,64,18.209,64,16z"/>
	</g>
</g>
<g id="Dividers">
	<g>
		<path style="fill-rule:evenodd;clip-rule:evenodd;fill:#333333;" d="M4,20h56c2.209,0,4-1.791,4-4H0C0,18.209,1.791,20,4,20z
			 M4,60h56c2.209,0,4-1.791,4-4H0C0,58.209,1.791,60,4,60z M4,40h56c2.209,0,4-1.791,4-4H0C0,38.209,1.791,40,4,40z"/>
	</g>
</g>
<g id="Fan_Holes">
	<g>
		<path style="fill-rule:evenodd;clip-rule:evenodd;fill:#333333;" d="M12.586,4.585c0.004-0.004-3.971,3.971-4,4
			c-0.781,0.781-0.781,2.048,0,2.829s2.047,0.781,2.828,0c-0.004,0.004,3.908-3.908,4-4c0.781-0.781,0.781-2.048,0-2.829
			C14.633,3.805,13.367,3.805,12.586,4.585z M22.586,4.585c0.004-0.004-3.971,3.971-4,4c-0.781,0.781-0.781,2.048,0,2.829
			c0.78,0.781,2.047,0.781,2.828,0c-0.004,0.004,3.908-3.908,4-4c0.781-0.781,0.781-2.048,0-2.829
			C24.633,3.805,23.367,3.805,22.586,4.585z M31.414,11.414c-0.004,0.004,3.908-3.908,4-4c0.781-0.781,0.781-2.048,0-2.829
			c-0.781-0.78-2.047-0.78-2.828,0c0.004-0.004-3.971,3.971-4,4c-0.781,0.781-0.781,2.048,0,2.829S30.633,12.195,31.414,11.414z
			 M12.586,24.586c0.004-0.004-3.971,3.97-4,4c-0.781,0.78-0.781,2.047,0,2.828s2.047,0.781,2.828,0c-0.004,0.004,3.908-3.908,4-4
			c0.781-0.781,0.781-2.048,0-2.828C14.633,23.805,13.367,23.805,12.586,24.586z M22.586,24.586c0.004-0.004-3.971,3.97-4,4
			c-0.781,0.78-0.781,2.047,0,2.828c0.78,0.781,2.047,0.781,2.828,0c-0.004,0.004,3.908-3.908,4-4c0.781-0.781,0.781-2.048,0-2.828
			C24.633,23.805,23.367,23.805,22.586,24.586z M32.586,24.586c0.004-0.004-3.971,3.97-4,4c-0.781,0.78-0.781,2.047,0,2.828
			s2.047,0.781,2.828,0c-0.004,0.004,3.908-3.908,4-4c0.781-0.781,0.781-2.048,0-2.828C34.633,23.805,33.367,23.805,32.586,24.586z
			 M12.586,44.586c0.004-0.005-3.971,3.97-4,4c-0.781,0.781-0.781,2.047,0,2.828s2.047,0.781,2.828,0c-0.004,0.004,3.908-3.908,4-4
			c0.781-0.781,0.781-2.048,0-2.828C14.633,43.805,13.367,43.805,12.586,44.586z M22.586,44.586c0.004-0.005-3.971,3.97-4,4
			c-0.781,0.781-0.781,2.047,0,2.828c0.78,0.781,2.047,0.781,2.828,0c-0.004,0.004,3.908-3.908,4-4c0.781-0.781,0.781-2.048,0-2.828
			C24.633,43.805,23.367,43.805,22.586,44.586z M32.586,44.586c0.004-0.005-3.971,3.97-4,4c-0.781,0.781-0.781,2.047,0,2.828
			s2.047,0.781,2.828,0c-0.004,0.004,3.908-3.908,4-4c0.781-0.781,0.781-2.048,0-2.828C34.633,43.805,33.367,43.805,32.586,44.586z"
			/>
	</g>
</g>
<g id="Orange_Led">
	<g>
		<path style="fill-rule:evenodd;clip-rule:evenodd;fill:#FFCC66;" d="M54,10c1.104,0,2-0.896,2-2c0-1.105-0.896-2-2-2s-2,0.895-2,2
			C52,9.104,52.896,10,54,10z M46,6c-1.104,0-2,0.895-2,2c0,1.104,0.896,2,2,2s2-0.896,2-2C48,6.895,47.104,6,46,6z M46,26
			c-1.104,0-2,0.895-2,1.999C44,29.104,44.896,30,46,30s2-0.896,2-2.001C48,26.895,47.104,26,46,26z M54,46c-1.104,0-2,0.895-2,2
			c0,1.104,0.896,2,2,2s2-0.896,2-2C56,46.895,55.104,46,54,46z M46,46c-1.104,0-2,0.895-2,2c0,1.104,0.896,2,2,2s2-0.896,2-2
			C48,46.895,47.104,46,46,46z"/>
	</g>
</g>
<g id="Green_Led_2_">
	<g>
		<circle style="fill:#88C057;" cx="54" cy="28" r="2"/>
	</g>
</g>
<g>
</g>
<g>
</g>
<g>
</g>
<g>
</g>
<g>
</g>
<g>
</g>
<g>
</g>
<g>
</g>
<g>
</g>
<g>
</g>
<g>
</g>
<g>
</g>
<g>
</g>
<g>
</g>
<g>
</g>
</svg>
