<?xml version="1.0" encoding="iso-8859-1"?>
<!-- Generator: Adobe Illustrator 16.0.0, SVG Export Plug-In . SVG Version: 6.00 Build 0)  -->
<!DOCTYPE svg PUBLIC "-//W3C//DTD SVG 1.1//EN" "http://www.w3.org/Graphics/SVG/1.1/DTD/svg11.dtd">
<svg version="1.1" id="Layer_1" xmlns="http://www.w3.org/2000/svg" xmlns:xlink="http://www.w3.org/1999/xlink" x="0px" y="0px"
	 width="48px" height="64px" viewBox="0 0 48 64" style="enable-background:new 0 0 48 64;" xml:space="preserve">
<g id="Body_29_">
	<g>
		<path style="fill:#CCCCCC;" d="M44,0H4C1.791,0,0,1.79,0,4v56c0,2.209,1.791,4,4,4h40c2.209,0,4-1.791,4-4V4
			C48,1.79,46.209,0,44,0z"/>
	</g>
</g>
<g id="Label">
	<g>
		<path style="fill:#FFFFFF;" d="M36,12H12c-1.105,0-2,0.895-2,2v36c0,1.104,0.895,2,2,2h24c1.104,0,2-0.896,2-2V14
			C38,12.895,37.105,12,36,12z"/>
	</g>
</g>
<g id="Label_1_">
	<g>
		<path style="fill-rule:evenodd;clip-rule:evenodd;fill:#48A0DC;" d="M36,12H12c-1.105,0-2,0.895-2,2v6v2v2h2h24h2v-2v-2v-6
			C38,12.895,37.105,12,36,12z"/>
	</g>
</g>
<g id="Screws_5_">
	<g>
		<path style="fill-rule:evenodd;clip-rule:evenodd;fill:#999999;" d="M42,8c1.104,0,2-0.896,2-2c0-1.105-0.896-2-2-2s-2,0.895-2,2
			C40,7.104,40.896,8,42,8z M42,56C42,56,42,56,42,56c-1.105,0-2,0.895-2,2c0,1.104,0.896,2,2,2c0,0,0,0,0,0
			c0.966,0,1.773-0.687,1.959-1.598C43.986,58.272,44,58.138,44,58c0-0.139-0.014-0.273-0.041-0.403C43.773,56.685,42.967,56,42,56z
			 M6,56c-1.104,0-2,0.895-2,2c0,1.104,0.896,2,2,2s2-0.896,2-2C8,56.895,7.105,56,6,56z M6,4C6,4,6,4,6,4C4.896,4,4,4.895,4,6
			c0,1.104,0.896,2,2,2c0,0,0,0,0,0C6.967,8,7.773,7.313,7.96,6.402C7.986,6.272,8,6.138,8,6C8,5.861,7.986,5.727,7.96,5.597
			C7.773,4.685,6.967,4,6,4z"/>
	</g>
</g>
<g>
</g>
<g>
</g>
<g>
</g>
<g>
</g>
<g>
</g>
<g>
</g>
<g>
</g>
<g>
</g>
<g>
</g>
<g>
</g>
<g>
</g>
<g>
</g>
<g>
</g>
<g>
</g>
<g>
</g>
</svg>
