<?xml version="1.0" encoding="iso-8859-1"?>
<!-- Generator: Adobe Illustrator 16.0.0, SVG Export Plug-In . SVG Version: 6.00 Build 0)  -->
<!DOCTYPE svg PUBLIC "-//W3C//DTD SVG 1.1//EN" "http://www.w3.org/Graphics/SVG/1.1/DTD/svg11.dtd">
<svg version="1.1" id="Layer_1" xmlns="http://www.w3.org/2000/svg" xmlns:xlink="http://www.w3.org/1999/xlink" x="0px" y="0px"
	 width="64px" height="44px" viewBox="0 0 64 44" style="enable-background:new 0 0 64 44;" xml:space="preserve">
<g id="Frame_10_">
	<g>
		<path style="fill:#CCCCCC;" d="M56,0H8C5.791,0,4,1.791,4,4v36c0,2.21,1.791,4,4,4h48c2.209,0,4-1.79,4-4V4
			C60,1.791,58.209,0,56,0z"/>
	</g>
</g>
<g id="Display_4_">
	<g>
		<path style="fill:#333333;" d="M54,4H10C8.896,4,8,4.896,8,6.001v28c0,1.104,0.896,2,2,2h44c1.104,0,2-0.896,2-2v-28
			C56,4.896,55.104,4,54,4z"/>
	</g>
</g>
<g id="Bottom_Part">
	<g>
		<path style="fill-rule:evenodd;clip-rule:evenodd;fill:#666666;" d="M62,40H2H0v2c0,1.104,0.896,2,2,2h60c1.104,0,2-0.896,2-2v-2
			H62z"/>
	</g>
</g>
<g>
</g>
<g>
</g>
<g>
</g>
<g>
</g>
<g>
</g>
<g>
</g>
<g>
</g>
<g>
</g>
<g>
</g>
<g>
</g>
<g>
</g>
<g>
</g>
<g>
</g>
<g>
</g>
<g>
</g>
</svg>
