<?xml version="1.0" encoding="iso-8859-1"?>
<!-- Generator: Adobe Illustrator 16.0.0, SVG Export Plug-In . SVG Version: 6.00 Build 0)  -->
<!DOCTYPE svg PUBLIC "-//W3C//DTD SVG 1.1//EN" "http://www.w3.org/Graphics/SVG/1.1/DTD/svg11.dtd">
<svg version="1.1" id="Layer_1" xmlns="http://www.w3.org/2000/svg" xmlns:xlink="http://www.w3.org/1999/xlink" x="0px" y="0px"
	 width="48px" height="64px" viewBox="0 0 48 64" style="enable-background:new 0 0 48 64;" xml:space="preserve">
<g id="Lock">
	<g>
		<path style="fill-rule:evenodd;clip-rule:evenodd;fill:#CCCCCC;" d="M24,0C12.954,0,4,8.955,4,20.001v4c0,2.209,1.79,4,4,4
			c2.209,0,4-1.791,4-4v-4C12,13.372,17.372,8,24,8c6.627,0,12,5.372,12,12.001V34h8V20.001C44,8.955,35.045,0,24,0z"/>
	</g>
</g>
<g id="Body_52_">
	<g>
		<path style="fill:#FFCC66;" d="M44,34H4c-2.209,0-4,1.791-4,4.001V60c0,2.209,1.791,4,4,4h40c2.209,0,4-1.791,4-4V38.001
			C48,35.791,46.209,34,44,34z"/>
	</g>
</g>
<g id="Keyhole">
	<g>
		<path style="fill-rule:evenodd;clip-rule:evenodd;fill:#666666;" d="M28,48c0-2.21-1.791-3.999-4-3.999c-2.21,0-4,1.789-4,3.999
			c0,1.478,0.809,2.753,2,3.445v4.556h4v-4.556C27.19,50.753,28,49.478,28,48z"/>
	</g>
</g>
<g>
</g>
<g>
</g>
<g>
</g>
<g>
</g>
<g>
</g>
<g>
</g>
<g>
</g>
<g>
</g>
<g>
</g>
<g>
</g>
<g>
</g>
<g>
</g>
<g>
</g>
<g>
</g>
<g>
</g>
</svg>
