<?xml version="1.0" encoding="iso-8859-1"?>
<!-- Generator: Adobe Illustrator 16.0.0, SVG Export Plug-In . SVG Version: 6.00 Build 0)  -->
<!DOCTYPE svg PUBLIC "-//W3C//DTD SVG 1.1//EN" "http://www.w3.org/Graphics/SVG/1.1/DTD/svg11.dtd">
<svg version="1.1" id="Layer_1" xmlns="http://www.w3.org/2000/svg" xmlns:xlink="http://www.w3.org/1999/xlink" x="0px" y="0px"
	 width="64.02px" height="64.02px" viewBox="0 0 64.02 64.02" style="enable-background:new 0 0 64.02 64.02;" xml:space="preserve"
	>
<g id="Cable_1_">
	<g>
		<path style="fill:#CCCCCC;" d="M26.853,37.166c-1.576-1.576-4.132-1.576-5.709,0L1.182,57.128c-1.576,1.576-1.576,4.133,0,5.709
			s4.133,1.576,5.709,0l19.962-19.962C28.43,41.298,28.43,38.742,26.853,37.166z"/>
	</g>
</g>
<g id="Body_4_">
	<g>
		<path style="fill:#CCCCCC;" d="M63.432,17.584L46.434,0.586c-0.782-0.782-2.051-0.782-2.833,0L26.603,17.584
			c-0.782,0.783-0.782,2.052,0,2.834l16.998,16.998c0.782,0.783,2.051,0.783,2.833,0l16.998-16.998
			C64.215,19.636,64.215,18.367,63.432,17.584z"/>
	</g>
</g>
<g id="Lines">
	<g>
		
			<rect x="31.026" y="16.976" transform="matrix(0.7071 -0.7071 0.7071 0.7071 -0.2641 37.4278)" style="fill:#B3B3B3;" width="28.046" height="4.113"/>
	</g>
</g>
<g id="Holes_2_">
	<g>
		<path style="fill-rule:evenodd;clip-rule:evenodd;fill:#808080;" d="M42.518,6.625l-1.877,1.877c-0.812,0.812-0.812,2.127,0,2.938
			s2.127,0.812,2.938,0l1.877-1.877c0.812-0.812,0.812-2.128,0-2.938C44.645,5.813,43.329,5.813,42.518,6.625z M57.456,18.625
			c-0.812-0.812-2.127-0.812-2.938,0l-1.877,1.877c-0.812,0.812-0.812,2.127,0,2.938s2.127,0.812,2.938,0l1.877-1.878
			C58.268,20.752,58.268,19.437,57.456,18.625z"/>
	</g>
</g>
<g id="Body_5_">
	<g>
		<path style="fill:#9B7CAB;" d="M27.569,10.908L17.313,21.163c-7.053,7.053-7.053,18.489,0,25.542
			c7.054,7.053,18.488,7.053,25.542,0L53.11,36.449L27.569,10.908z"/>
	</g>
</g>
<g>
</g>
<g>
</g>
<g>
</g>
<g>
</g>
<g>
</g>
<g>
</g>
<g>
</g>
<g>
</g>
<g>
</g>
<g>
</g>
<g>
</g>
<g>
</g>
<g>
</g>
<g>
</g>
<g>
</g>
</svg>
