<?xml version="1.0" encoding="iso-8859-1"?>
<!-- Generator: Adobe Illustrator 16.0.0, SVG Export Plug-In . SVG Version: 6.00 Build 0)  -->
<!DOCTYPE svg PUBLIC "-//W3C//DTD SVG 1.1//EN" "http://www.w3.org/Graphics/SVG/1.1/DTD/svg11.dtd">
<svg version="1.1" id="Layer_1" xmlns="http://www.w3.org/2000/svg" xmlns:xlink="http://www.w3.org/1999/xlink" x="0px" y="0px"
	 width="64px" height="36px" viewBox="0 0 64 36" style="enable-background:new 0 0 64 36;" xml:space="preserve">
<g id="Frame_1_">
	<g>
		<path style="fill:#CCCCCC;" d="M60,0H4C1.791,0,0,1.791,0,4v28c0,2.209,1.791,4,4,4h56c2.209,0,4-1.791,4-4V4
			C64,1.791,62.209,0,60,0z"/>
	</g>
</g>
<g id="Body_6_">
	<g>
		<path style="fill:#4D4D4D;" d="M58,4.001H6c-1.104,0-2,0.895-2,2v24c0,1.104,0.896,2,2,2h52c1.104,0,2-0.896,2-2v-24
			C60,4.896,59.104,4.001,58,4.001z"/>
	</g>
</g>
<g id="Pins_1_">
	<g>
		<path style="fill-rule:evenodd;clip-rule:evenodd;fill:#333333;" d="M16,12.001h-4c-1.104,0-2,0.895-2,2v12c0,1.104,0.896,2,2,2h4
			c1.104,0,2-0.896,2-2v-12C18,12.896,17.104,12.001,16,12.001z M28,12.001h-4c-1.104,0-2,0.895-2,2v12c0,1.104,0.896,2,2,2h4
			c1.104,0,2-0.896,2-2v-12C30,12.896,29.104,12.001,28,12.001z M40,12.001h-4c-1.104,0-2,0.895-2,2v12c0,1.104,0.896,2,2,2h4
			c1.104,0,2-0.896,2-2v-12C42,12.896,41.104,12.001,40,12.001z M52,12.001h-4c-1.104,0-2,0.895-2,2v12c0,1.104,0.896,2,2,2h4
			c1.104,0,2-0.896,2-2v-12C54,12.896,53.104,12.001,52,12.001z"/>
	</g>
</g>
<g id="USB_Shape">
	<g>
		<path style="fill:#E6E6E6;" d="M54,8.001H10c-1.104,0-2,0.895-2,2v2v2v2h2h44h2v-2v-2v-2C56,8.896,55.104,8.001,54,8.001z"/>
	</g>
</g>
<g>
</g>
<g>
</g>
<g>
</g>
<g>
</g>
<g>
</g>
<g>
</g>
<g>
</g>
<g>
</g>
<g>
</g>
<g>
</g>
<g>
</g>
<g>
</g>
<g>
</g>
<g>
</g>
<g>
</g>
</svg>
