<?xml version="1.0" encoding="iso-8859-1"?>
<!-- Generator: Adobe Illustrator 16.0.0, SVG Export Plug-In . SVG Version: 6.00 Build 0)  -->
<!DOCTYPE svg PUBLIC "-//W3C//DTD SVG 1.1//EN" "http://www.w3.org/Graphics/SVG/1.1/DTD/svg11.dtd">
<svg version="1.1" id="Layer_1" xmlns="http://www.w3.org/2000/svg" xmlns:xlink="http://www.w3.org/1999/xlink" x="0px" y="0px"
	 width="64px" height="36px" viewBox="0 0 64 36" style="enable-background:new 0 0 64 36;" xml:space="preserve">
<g id="Body_7_">
	<g>
		<path style="fill:#CCCCCC;" d="M60,0H4C1.791,0,0,1.791,0,4v28c0,2.209,1.791,4,4,4h56c2.209,0,4-1.791,4-4V4
			C64,1.791,62.209,0,60,0z"/>
	</g>
</g>
<g id="Shape_2_">
	<g>
		<path style="fill:#E6E6E6;" d="M56,10h-2.4L54,8c0-2.209-1.791-4-4-4H14c-2.209,0-4,1.791-4,4l0.399,2H8c-2.209,0-4,1.791-4,4
			v8.001c0,2.209,1.791,4,4,4h5.6L14,28c0.375,2.335,1.791,4,4,4h28c2.209,0,3.563-1.728,4-4l0.399-1.999H56c2.209,0,4-1.791,4-4V14
			C60,11.791,58.209,10,56,10z"/>
	</g>
</g>
<g id="Screw_Holes">
	<g>
		<path style="fill-rule:evenodd;clip-rule:evenodd;fill:#808080;" d="M10,16c-1.104,0-2,0.896-2,2s0.896,2,2,2s2-0.896,2-2
			S11.104,16,10,16z M54,16c-1.104,0-2,0.896-2,2s0.896,2,2,2s2-0.896,2-2S55.104,16,54,16z"/>
	</g>
</g>
<g id="Body_8_">
	<g>
		<path style="fill:#48A0DC;" d="M44,8H20c-2.209,0-4,1.791-4,4l2,12c0.375,2.335,1.791,4,4,4h20c2.209,0,3.563-1.728,4-4l2-12
			C48,9.791,46.209,8,44,8z"/>
	</g>
</g>
<g id="Pin_Holes">
	<g>
		<path style="fill-rule:evenodd;clip-rule:evenodd;fill:#4D4D4D;" d="M24,12c-1.104,0-2,0.896-2,2s0.896,2,2,2s2-0.896,2-2
			S25.104,12,24,12z M32,12c-1.105,0-2,0.896-2,2s0.895,2,2,2c1.104,0,2-0.896,2-2S33.104,12,32,12z M40,12c-1.104,0-2,0.896-2,2
			s0.896,2,2,2s2-0.896,2-2S41.104,12,40,12z M36,20c-1.104,0-2,0.896-2,2.001C34,23.104,34.896,24,36,24s2-0.896,2-1.999
			C38,20.896,37.104,20,36,20z M28,20c-1.104,0-2,0.896-2,2.001C26,23.104,26.896,24,28,24s2-0.896,2-1.999
			C30,20.896,29.104,20,28,20z"/>
	</g>
</g>
<g>
</g>
<g>
</g>
<g>
</g>
<g>
</g>
<g>
</g>
<g>
</g>
<g>
</g>
<g>
</g>
<g>
</g>
<g>
</g>
<g>
</g>
<g>
</g>
<g>
</g>
<g>
</g>
<g>
</g>
</svg>
