<?xml version="1.0" encoding="iso-8859-1"?>
<!-- Generator: Adobe Illustrator 16.0.0, SVG Export Plug-In . SVG Version: 6.00 Build 0)  -->
<!DOCTYPE svg PUBLIC "-//W3C//DTD SVG 1.1//EN" "http://www.w3.org/Graphics/SVG/1.1/DTD/svg11.dtd">
<svg version="1.1" id="Layer_1" xmlns="http://www.w3.org/2000/svg" xmlns:xlink="http://www.w3.org/1999/xlink" x="0px" y="0px"
	 width="64px" height="44px" viewBox="0 0 64 44" style="enable-background:new 0 0 64 44;" xml:space="preserve">
<g id="Frame_3_">
	<g>
		<path style="fill-rule:evenodd;clip-rule:evenodd;fill:#CCCCCC;" d="M10,0H2C0.896,0,0,0.895,0,2c0,1.104,0.896,2,2,2h6v38
			c0,1.104,0.896,2,2,2s2-0.896,2-2V2C12,0.895,11.104,0,10,0z"/>
	</g>
</g>
<g id="Body_24_">
	<g>
		<path style="fill-rule:evenodd;clip-rule:evenodd;fill:#48A0DC;" d="M60,4H32H16h-4v4v28v4h4h16h28c2.209,0,4-1.791,4-4V8
			C64,5.791,62.209,4,60,4z"/>
	</g>
</g>
<g id="Video_Out">
	<g>
		<path style="fill-rule:evenodd;clip-rule:evenodd;fill:#B3B3B3;" d="M6,12c-1.104,0-2,0.895-2,2v8c0,1.104,0.896,1.999,2,1.999h2
			V22v-8v-2H6z"/>
	</g>
</g>
<g id="Socket_2_">
	<g>
		<path style="fill-rule:evenodd;clip-rule:evenodd;fill:#FFCC66;" d="M22,40h-2v2c0,1.104,0.896,2,2,2h8c1.104,0,2-0.896,2-2v-2h-2
			H22z M54,40H38h-2v2c0,1.104,0.896,2,2,2h16c1.104,0,2-0.896,2-2v-2H54z"/>
	</g>
</g>
<g id="Chips">
	<g>
		<path style="fill-rule:evenodd;clip-rule:evenodd;fill:#4D4D4D;" d="M22,8h-4c-1.104,0-2,0.895-2,2v4c0,1.104,0.896,2,2,2h4
			c1.104,0,2-0.896,2-2v-4C24,8.895,23.104,8,22,8z M34,20h-4c-1.104,0-2,0.895-2,2v12c0,1.104,0.896,2,2,2h4c1.104,0,2-0.896,2-2
			V22C36,20.895,35.104,20,34,20z M22,27.999h-4c-1.104,0-2,0.896-2,2.001v4c0,1.104,0.896,2,2,2h4c1.104,0,2-0.896,2-2v-4
			C24,28.896,23.104,27.999,22,27.999z"/>
	</g>
</g>
<g id="Fan_Container">
	<g>
		<path style="fill-rule:evenodd;clip-rule:evenodd;fill:#CCCCCC;" d="M50,12h-2H34H22c-1.104,0-2,0.895-2,2v16c0,1.104,0.896,2,2,2
			h12h14h2c5.522,0,10-4.478,10-10C60,16.477,55.522,12,50,12z"/>
	</g>
</g>
<g id="Holes_3_">
	<g>
		<path style="fill-rule:evenodd;clip-rule:evenodd;fill:#FFFFFF;" d="M28,20h4c1.104,0,2-0.896,2-2c0-1.105-0.896-2-2-2h-4
			c-1.104,0-2,0.895-2,2C26,19.104,26.896,20,28,20z M32,23.999h-4c-1.104,0-2,0.896-2,2.001c0,1.104,0.896,1.999,2,1.999h4
			c1.104,0,2-0.895,2-1.999C34,24.895,33.104,23.999,32,23.999z"/>
	</g>
</g>
<g id="Fan_1_">
	<g>
		<circle style="fill:#4D4D4D;" cx="50" cy="22" r="6"/>
	</g>
</g>
<g>
</g>
<g>
</g>
<g>
</g>
<g>
</g>
<g>
</g>
<g>
</g>
<g>
</g>
<g>
</g>
<g>
</g>
<g>
</g>
<g>
</g>
<g>
</g>
<g>
</g>
<g>
</g>
<g>
</g>
</svg>
