<?xml version="1.0" encoding="iso-8859-1"?>
<!-- Generator: Adobe Illustrator 16.0.0, SVG Export Plug-In . SVG Version: 6.00 Build 0)  -->
<!DOCTYPE svg PUBLIC "-//W3C//DTD SVG 1.1//EN" "http://www.w3.org/Graphics/SVG/1.1/DTD/svg11.dtd">
<svg version="1.1" id="Layer_1" xmlns="http://www.w3.org/2000/svg" xmlns:xlink="http://www.w3.org/1999/xlink" x="0px" y="0px"
	 width="64px" height="64px" viewBox="0 0 64 64" style="enable-background:new 0 0 64 64;" xml:space="preserve">
<g id="Body">
	<g>
		<path style="fill:#E6E6E6;" d="M60,0H4C1.791,0,0,1.791,0,4v56c0,2.21,1.791,4,4,4h56c2.209,0,4-1.79,4-4V4
			C64,1.791,62.209,0,60,0z"/>
	</g>
</g>
<g id="Frame">
	<g>
		<path style="fill-rule:evenodd;clip-rule:evenodd;fill:#FFFFFF;" d="M58,4H6C4.896,4,4,4.896,4,6v52.001C4,59.104,4.896,60,6,60
			h52c1.104,0,2-0.896,2-1.999V6C60,4.896,59.104,4,58,4z M56,54c0,1.104-0.896,2-2,2H10c-1.104,0-2-0.896-2-2V10.001
			C8,8.896,8.896,8,10,8h44c1.104,0,2,0.896,2,2.001V54z"/>
	</g>
</g>
<g id="Holes">
	<g>
		<path style="fill-rule:evenodd;clip-rule:evenodd;fill:#666666;" d="M24,42h-8c-1.104,0-2,0.896-2,2.001
			C14,45.104,14.896,46,16,46h8c1.104,0,2-0.896,2-1.999C26,42.896,25.104,42,24,42z M48,42h-8c-1.104,0-2,0.896-2,2.001
			C38,45.104,38.896,46,40,46h8c1.104,0,2-0.896,2-1.999C50,42.896,49.104,42,48,42z M32,18c-1.104,0-2,0.896-2,2v12
			c0,1.104,0.896,2,2,2s2-0.896,2-2V20C34,18.896,33.104,18,32,18z"/>
	</g>
</g>
<g>
</g>
<g>
</g>
<g>
</g>
<g>
</g>
<g>
</g>
<g>
</g>
<g>
</g>
<g>
</g>
<g>
</g>
<g>
</g>
<g>
</g>
<g>
</g>
<g>
</g>
<g>
</g>
<g>
</g>
</svg>
