<?xml version="1.0" encoding="iso-8859-1"?>
<!-- Generator: Adobe Illustrator 16.0.0, SVG Export Plug-In . SVG Version: 6.00 Build 0)  -->
<!DOCTYPE svg PUBLIC "-//W3C//DTD SVG 1.1//EN" "http://www.w3.org/Graphics/SVG/1.1/DTD/svg11.dtd">
<svg version="1.1" id="Layer_1" xmlns="http://www.w3.org/2000/svg" xmlns:xlink="http://www.w3.org/1999/xlink" x="0px" y="0px"
	 width="64px" height="64px" viewBox="0 0 64 64" style="enable-background:new 0 0 64 64;" xml:space="preserve">
<g id="Body_1_">
	<g>
		<path style="fill:#E6E6E6;" d="M60,0H4C1.791,0,0,1.791,0,4v56c0,2.21,1.791,4,4,4h56c2.209,0,4-1.79,4-4V4
			C64,1.791,62.209,0,60,0z"/>
	</g>
</g>
<g id="Screws">
	<g>
		<path style="fill-rule:evenodd;clip-rule:evenodd;fill:#B3B3B3;" d="M6,4C4.896,4,4,4.896,4,6s0.896,2,2,2s2-0.896,2-2
			S7.104,4,6,4z M58,8c1.104,0,2-0.896,2-2s-0.896-2-2-2s-2,0.896-2,2S56.896,8,58,8z M6,56c-1.104,0-2,0.896-2,2.001
			C4,59.104,4.896,60,6,60s2-0.896,2-1.999C8,56.896,7.104,56,6,56z M58,56c-1.104,0-2,0.896-2,2.001C56,59.104,56.896,60,58,60
			s2-0.896,2-1.999C60,56.896,59.104,56,58,56z"/>
	</g>
</g>
<g id="Shape">
	<g>
		<circle style="fill:#B3B3B3;" cx="32" cy="32" r="18"/>
	</g>
</g>
<g id="Pins">
	<g>
		<path style="fill:#FFFFFF;" d="M32,14c-0.677,0-1.343,0.045-2,0.117V16c0,1.104,0.895,2,2,2c1.104,0,2-0.896,2-2v-1.883
			C33.342,14.045,32.677,14,32,14z M32,46c-1.105,0-2,0.896-2,2v1.883C30.657,49.956,31.323,50,32,50s1.342-0.044,2-0.117V48
			C34,46.896,33.104,46,32,46z"/>
	</g>
</g>
<g id="Screw">
	<g>
		<circle style="fill:#E6E6E6;" cx="32" cy="32" r="2"/>
	</g>
</g>
<g id="Holes_1_">
	<g>
		<path style="fill-rule:evenodd;clip-rule:evenodd;fill:#666666;" d="M24,30c-1.104,0-2,0.896-2,2s0.896,2,2,2s2-0.896,2-2
			S25.104,30,24,30z M40,30c-1.104,0-2,0.896-2,2s0.896,2,2,2s2-0.896,2-2S41.104,30,40,30z"/>
	</g>
</g>
<g>
</g>
<g>
</g>
<g>
</g>
<g>
</g>
<g>
</g>
<g>
</g>
<g>
</g>
<g>
</g>
<g>
</g>
<g>
</g>
<g>
</g>
<g>
</g>
<g>
</g>
<g>
</g>
<g>
</g>
</svg>
