<?xml version="1.0" encoding="iso-8859-1"?>
<!-- Generator: Adobe Illustrator 16.0.0, SVG Export Plug-In . SVG Version: 6.00 Build 0)  -->
<!DOCTYPE svg PUBLIC "-//W3C//DTD SVG 1.1//EN" "http://www.w3.org/Graphics/SVG/1.1/DTD/svg11.dtd">
<svg version="1.1" id="Layer_1" xmlns="http://www.w3.org/2000/svg" xmlns:xlink="http://www.w3.org/1999/xlink" x="0px" y="0px"
	 width="64.006px" height="52.005px" viewBox="0 0 64.006 52.005" style="enable-background:new 0 0 64.006 52.005;"
	 xml:space="preserve">
<g id="WiFi">
	<g>
		<path style="fill-rule:evenodd;clip-rule:evenodd;fill:#CCCCCC;" d="M62.913,13.328C54.656,4.734,43.679,0,32.004,0
			S9.35,4.734,1.094,13.331c-1.458,1.518-1.458,3.976,0,5.495c0.729,0.758,1.684,1.139,2.639,1.139c0.954,0,1.91-0.381,2.639-1.139
			c6.848-7.13,15.95-10.638,25.633-10.638s18.785,3.507,25.631,10.634c1.459,1.517,3.821,1.518,5.278,0S64.37,14.846,62.913,13.328z
			 M31.97,15.988c-8.628,0-16.739,3.335-22.841,9.393c-1.522,1.513-1.522,3.964,0,5.477c0.762,0.755,1.76,1.134,2.757,1.134
			c0.998,0,1.995-0.379,2.757-1.134c4.628-4.597,10.782-7.378,17.327-7.378c6.546,0,12.699,2.781,17.327,7.378
			c1.523,1.51,3.991,1.51,5.513-0.002c1.522-1.512,1.522-3.963,0-5.476C48.709,19.323,40.598,15.988,31.97,15.988z M32.005,29.98
			c-4.88,0-9.468,1.96-12.919,5.515c-1.429,1.475-1.429,3.862,0,5.335c0.715,0.735,1.651,1.104,2.588,1.104s1.873-0.368,2.588-1.104
			c2.068-2.133,4.818-3.432,7.743-3.432c2.924,0,5.675,1.299,7.742,3.429c1.43,1.474,3.747,1.474,5.177,0
			c1.428-1.472,1.428-3.861-0.002-5.334C41.472,31.938,36.884,29.98,32.005,29.98z"/>
	</g>
</g>
<g id="WiFi_1_">
	<g>
		<ellipse style="fill:#48A0DC;" cx="32.016" cy="48.01" rx="4.017" ry="3.995"/>
	</g>
</g>
<g>
</g>
<g>
</g>
<g>
</g>
<g>
</g>
<g>
</g>
<g>
</g>
<g>
</g>
<g>
</g>
<g>
</g>
<g>
</g>
<g>
</g>
<g>
</g>
<g>
</g>
<g>
</g>
<g>
</g>
</svg>
