<?xml version="1.0" encoding="utf-8"?>
<!-- Generator: Adobe Illustrator 18.0.0, SVG Export Plug-In . SVG Version: 6.00 Build 0)  -->
<!DOCTYPE svg PUBLIC "-//W3C//DTD SVG 1.1//EN" "http://www.w3.org/Graphics/SVG/1.1/DTD/svg11.dtd">
<svg version="1.1" xmlns="http://www.w3.org/2000/svg" xmlns:xlink="http://www.w3.org/1999/xlink" x="0px" y="0px"
	 viewBox="0 0 40 40" enable-background="new 0 0 40 40" xml:space="preserve">
<g id="Health__x26__Nutrition">
	<g id="Coffee_4_">
	</g>
	<g id="Donut_5_">
	</g>
	<g id="Bodum_5_">
		<g id="Bodum">
			<g>
				<path fill-rule="evenodd" clip-rule="evenodd" fill="#A46D4E" d="M9.5,31.4c0,1.7,1.4,3.1,3.1,3.1h12c1.7,0,2.8-1.4,2.8-3.1
					V19.5h-18V31.4z"/>
			</g>
		</g>
		<g id="Bodum_2_">
			<g>
				<polygon fill-rule="evenodd" clip-rule="evenodd" fill="#ECF0F1" points="6.5,12.5 9.5,17.5 9.5,19.5 27.5,19.5 27.5,12.5 				
					"/>
			</g>
		</g>
		<g id="Bodum_3_">
			<g>
				<path fill-rule="evenodd" clip-rule="evenodd" fill="#211F1F" d="M30,13.5c-1.9,0-3.5,1.6-3.5,3.5v7.5c0,0.6,0.4,1,1,1
					c0.6,0,1-0.4,1-1V17c0-0.8,0.7-1.5,1.5-1.5s1.5,0.7,1.5,1.5v5.5c0,0.6,0.4,1,1,1c0.6,0,1-0.4,1-1V17
					C33.5,15.1,31.9,13.5,30,13.5z"/>
			</g>
		</g>
		<rect x="17.5" y="7.5" fill="#BDC3C7" width="2" height="12"/>
		<rect x="17.5" y="19.5" fill="#845640" width="2" height="12.2"/>
		<path fill="#845640" d="M24.5,32.5h-12c-0.6,0-1-0.4-1-1c0-0.6,0.4-1,1-1h12c0.6,0,1,0.4,1,1C25.5,32.1,25.1,32.5,24.5,32.5z"/>
		<g id="Bodum_1_">
			<g>
				<rect x="9.5" y="10.5" fill-rule="evenodd" clip-rule="evenodd" fill="#201F1F" width="18" height="3"/>
			</g>
		</g>
		<circle fill="#211F1F" cx="18.5" cy="8.6" r="2"/>
	</g>
	<g id="Kettle_7_">
	</g>
	<g id="Wine_6_">
	</g>
	<g id="Cigarette_5_">
	</g>
	<g id="No_Smoking_8_">
	</g>
	<g id="Medicine_Bottle_12_">
	</g>
	<g id="Pill_Bottle_8_">
	</g>
	<g id="Aid">
	</g>
	<g id="Activity_1_">
	</g>
	<g id="Germs_3_">
	</g>
	<g id="Germ_3_">
	</g>
</g>
<g id="Lockup">
</g>
</svg>
