<?xml version="1.0" encoding="utf-8"?>
<!-- Generator: Adobe Illustrator 18.0.0, SVG Export Plug-In . SVG Version: 6.00 Build 0)  -->
<!DOCTYPE svg PUBLIC "-//W3C//DTD SVG 1.1//EN" "http://www.w3.org/Graphics/SVG/1.1/DTD/svg11.dtd">
<svg version="1.1" xmlns="http://www.w3.org/2000/svg" xmlns:xlink="http://www.w3.org/1999/xlink" x="0px" y="0px"
	 viewBox="0 0 40 40" enable-background="new 0 0 40 40" xml:space="preserve">
<g id="Health__x26__Nutrition">
	<g id="Coffee_4_">
	</g>
	<g id="Donut_5_">
	</g>
	<g id="Bodum_5_">
	</g>
	<g id="Kettle_7_">
	</g>
	<g id="Wine_6_">
	</g>
	<g id="Cigarette_5_">
		<g>
			<g id="Cigarette">
				<g>
					<path fill-rule="evenodd" clip-rule="evenodd" fill="#BDC3C7" d="M28.4,15.8h-4c-1.1,0-2-0.9-2-2c0-1.1,0.9-2,2-2
						c0.6,0,1-0.4,1-1c0-0.6-0.4-1-1-1c-1.1,0-2-0.9-2-2c0-1.1,0.9-2,2-2c0.6,0,1-0.4,1-1c0-0.6-0.4-1-1-1c-2.2,0-4,1.8-4,4
						c0,1.2,0.5,2.3,1.4,3c-0.8,0.7-1.4,1.8-1.4,3c0,2.2,1.8,4,4,4h4c1.1,0,2,0.9,2,2v5h2v-5C32.4,17.6,30.6,15.8,28.4,15.8z
						 M31.4,13.5c0.6-0.7,1-1.6,1-2.7c0-2.2-1.8-4-4-4c-0.6,0-1,0.4-1,1c0,0.6,0.4,1,1,1c1.1,0,2,0.9,2,2c0,1.1-0.9,2-2,2
						c-0.6,0-1,0.4-1,1c0,0.6,0.4,1,1,1c2.8,0,5,2.2,5,5v7h2v-7C35.4,17,33.8,14.6,31.4,13.5z"/>
				</g>
			</g>
			<g id="Cigarette_1_">
				<g>
					<polygon fill-rule="evenodd" clip-rule="evenodd" fill="#A46D4E" points="8.1,14.6 4.6,20.7 13.2,25.7 16.7,19.6 					"/>
				</g>
			</g>
			<g id="Cigarette_2_">
				<g>
					
						<rect x="27.1" y="28.6" transform="matrix(0.5 -0.866 0.866 0.5 -12.1065 42.3033)" fill-rule="evenodd" clip-rule="evenodd" fill="#E74C3C" width="7" height="6"/>
				</g>
			</g>
			<g id="Cigarette_3_">
				<g>
					<polygon fill-rule="evenodd" clip-rule="evenodd" fill="#ECF0F1" points="16.7,19.6 13.2,25.7 27.1,33.7 30.6,27.6 					"/>
				</g>
			</g>
		</g>
	</g>
	<g id="No_Smoking_8_">
	</g>
	<g id="Medicine_Bottle_12_">
	</g>
	<g id="Pill_Bottle_8_">
	</g>
	<g id="Aid">
	</g>
	<g id="Activity_1_">
	</g>
	<g id="Germs_3_">
	</g>
	<g id="Germ_3_">
	</g>
</g>
<g id="Lockup">
</g>
</svg>
