<?xml version="1.0" encoding="utf-8"?>
<!-- Generator: Adobe Illustrator 18.0.0, SVG Export Plug-In . SVG Version: 6.00 Build 0)  -->
<!DOCTYPE svg PUBLIC "-//W3C//DTD SVG 1.1//EN" "http://www.w3.org/Graphics/SVG/1.1/DTD/svg11.dtd">
<svg version="1.1" xmlns="http://www.w3.org/2000/svg" xmlns:xlink="http://www.w3.org/1999/xlink" x="0px" y="0px"
	 viewBox="0 0 40 40" enable-background="new 0 0 40 40" xml:space="preserve">
<g id="Health__x26__Nutrition">
	<g id="Coffee_4_">
		<g id="Coffee">
			<g>
				<polygon fill-rule="evenodd" clip-rule="evenodd" fill="#ECF0F1" points="12,13.5 13,32.5 27,32.5 28,13.5 				"/>
			</g>
		</g>
		<path fill-rule="evenodd" clip-rule="evenodd" fill="#BDC3C7" d="M27.5,9.5H27v-2c0-0.6-0.4-1-1-1H14c-0.6,0-1,0.4-1,1v2h-0.5
			c-0.8,0-1.5,0.7-1.5,1.5v2.5h18V11C29,10.2,28.3,9.5,27.5,9.5z"/>
		<g id="Coffee_2_">
			<g>
				<path fill-rule="evenodd" clip-rule="evenodd" fill="#302E2E" d="M21,8.5h-2c-0.6,0-1,0.4-1,1c0,0.6,0.4,1,1,1h2
					c0.6,0,1-0.4,1-1C22,8.9,21.6,8.5,21,8.5z"/>
			</g>
		</g>
		<circle fill-rule="evenodd" clip-rule="evenodd" fill="#2ECC71" cx="20" cy="22" r="5"/>
		<g>
			<defs>
				<polygon id="SVGID_1_" points="12,13.5 13,32.5 27,32.5 28,13.5 				"/>
			</defs>
			<clipPath id="SVGID_2_">
				<use xlink:href="#SVGID_1_"  overflow="visible"/>
			</clipPath>
			
				<rect x="11.8" y="30.5" clip-path="url(#SVGID_2_)" fill-rule="evenodd" clip-rule="evenodd" fill="#BDC3C7" width="16.2" height="2.4"/>
		</g>
	</g>
	<g id="Donut_5_">
	</g>
	<g id="Bodum_5_">
	</g>
	<g id="Kettle_7_">
	</g>
	<g id="Wine_6_">
	</g>
	<g id="Cigarette_5_">
	</g>
	<g id="No_Smoking_8_">
	</g>
	<g id="Medicine_Bottle_12_">
	</g>
	<g id="Pill_Bottle_8_">
	</g>
	<g id="Aid">
	</g>
	<g id="Activity_1_">
	</g>
	<g id="Germs_3_">
	</g>
	<g id="Germ_3_">
	</g>
</g>
<g id="Lockup">
</g>
</svg>
