<?xml version="1.0" encoding="utf-8"?>
<!-- Generator: Adobe Illustrator 18.0.0, SVG Export Plug-In . SVG Version: 6.00 Build 0)  -->
<!DOCTYPE svg PUBLIC "-//W3C//DTD SVG 1.1//EN" "http://www.w3.org/Graphics/SVG/1.1/DTD/svg11.dtd">
<svg version="1.1" xmlns="http://www.w3.org/2000/svg" xmlns:xlink="http://www.w3.org/1999/xlink" x="0px" y="0px"
	 viewBox="0 0 40 40" enable-background="new 0 0 40 40" xml:space="preserve">
<g id="Health__x26__Nutrition">
	<g id="Coffee_4_">
	</g>
	<g id="Donut_5_">
		<g>
			<g id="Donut">
				<g>
					<path fill-rule="evenodd" clip-rule="evenodd" fill="#DFD1C7" d="M31.8,18c-1,0.3-2.2,0.1-3.1-0.7c-0.6-0.6-0.9-1.4-0.9-2.2
						c-1.1,0.5-2.5,0.3-3.4-0.6c-0.9-0.9-1.1-2.3-0.6-3.4c-0.8,0-1.6-0.3-2.2-0.9c-0.7-0.7-1-1.7-0.8-2.7c-0.5,0-0.9-0.1-1.4-0.1
						C12.6,7.5,7,13.1,7,20s5.6,12.5,12.5,12.5S32,26.9,32,20C32,19.3,31.9,18.7,31.8,18z M19.5,22.5c-1.4,0-2.5-1.1-2.5-2.5
						c0-1.4,1.1-2.5,2.5-2.5c1.4,0,2.5,1.1,2.5,2.5C22,21.4,20.9,22.5,19.5,22.5z"/>
				</g>
			</g>
			<g id="Donut_1_">
				<g>
					<path fill-rule="evenodd" clip-rule="evenodd" fill="#E651A8" d="M29.8,18c-0.4-0.1-0.7-0.4-1-0.7c-0.6-0.6-0.9-1.4-0.9-2.2
						c-1.1,0.5-2.5,0.3-3.4-0.6c-0.9-0.9-1.1-2.3-0.6-3.4c-0.8,0-1.6-0.3-2.2-0.9c-0.2-0.2-0.3-0.4-0.4-0.6
						c-0.6-0.1-1.2-0.2-1.8-0.2C13.7,9.5,9,14.2,9,20c0,5.8,4.7,10.5,10.5,10.5C25.3,30.5,30,25.8,30,20C30,19.3,29.9,18.6,29.8,18z
						 M19.5,25.5c-3,0-5.5-2.5-5.5-5.5c0-3,2.5-5.5,5.5-5.5c3,0,5.5,2.5,5.5,5.5C25,23,22.5,25.5,19.5,25.5z"/>
				</g>
			</g>
			<g id="Donut_3_">
				<g>
					<path fill-rule="evenodd" clip-rule="evenodd" fill="#C7C7C7" d="M30.5,9.5C30.2,9.5,30,9.7,30,10s0.2,0.5,0.5,0.5
						c0.3,0,0.5-0.2,0.5-0.5S30.8,9.5,30.5,9.5z M32,11.5c-0.6,0-1,0.4-1,1s0.4,1,1,1c0.6,0,1-0.4,1-1S32.6,11.5,32,11.5z"/>
				</g>
			</g>
		</g>
		<path fill-rule="evenodd" clip-rule="evenodd" fill="#3498D8" d="M21.9,12.6c0.2,0.2,0.2,0.4,0,0.6l-1.2,1.2
			c-0.2,0.2-0.4,0.2-0.6,0s-0.2-0.4,0-0.6l1.2-1.2C21.4,12.4,21.7,12.4,21.9,12.6z"/>
		<path fill-rule="evenodd" clip-rule="evenodd" fill="#F1C40F" d="M16.5,9.5c0.3,0,0.5,0.2,0.5,0.5v2c0,0.3-0.2,0.5-0.5,0.5
			c-0.3,0-0.5-0.2-0.5-0.5v-2C16,9.7,16.2,9.5,16.5,9.5z"/>
		<path fill-rule="evenodd" clip-rule="evenodd" fill="#2ECC71" d="M28.5,18.5c0.3,0.1,0.4,0.3,0.3,0.6l-0.6,2
			c-0.1,0.3-0.4,0.5-0.7,0.4c-0.3-0.1-0.4-0.3-0.3-0.6l0.6-2C27.9,18.6,28.2,18.4,28.5,18.5z"/>
		<path fill-rule="evenodd" clip-rule="evenodd" fill="#2ECC71" d="M23,26c0-0.3,0.2-0.5,0.5-0.5h2c0.3,0,0.5,0.2,0.5,0.5
			s-0.2,0.5-0.5,0.5h-2C23.2,26.5,23,26.3,23,26z"/>
		<path fill-rule="evenodd" clip-rule="evenodd" fill="#3498D8" d="M19.5,30.5c-0.3,0-0.5-0.2-0.5-0.5v-1c0-0.3,0.2-0.5,0.5-0.5
			c0.3,0,0.5,0.2,0.5,0.5v1C20,30.3,19.8,30.5,19.5,30.5z"/>
		<path fill-rule="evenodd" clip-rule="evenodd" fill="#F1C40F" d="M14.1,28.4c-0.2-0.2-0.2-0.4,0-0.6l1.2-1.2
			c0.2-0.2,0.4-0.2,0.6,0c0.2,0.2,0.2,0.4,0,0.6l-1.2,1.2C14.5,28.5,14.3,28.5,14.1,28.4z"/>
		<path fill-rule="evenodd" clip-rule="evenodd" fill="#3498D8" d="M13.2,14.6c0.2-0.2,0.5-0.1,0.7,0.2l1,1.9
			c0.1,0.3,0.1,0.6-0.2,0.7c-0.2,0.2-0.5,0.1-0.7-0.2l-1-1.9C12.9,15.1,13,14.7,13.2,14.6z"/>
		<g id="Donut_2_">
			<g>
				<path fill-rule="evenodd" clip-rule="evenodd" fill="#2ECC71" d="M11.9,19.6c-0.2-0.2-0.4-0.2-0.6,0l-1.2,1.2
					c-0.2,0.2-0.2,0.4,0,0.6c0.2,0.2,0.4,0.2,0.6,0l1.2-1.2C12,20,12,19.8,11.9,19.6z"/>
			</g>
		</g>
	</g>
	<g id="Bodum_5_">
	</g>
	<g id="Kettle_7_">
	</g>
	<g id="Wine_6_">
	</g>
	<g id="Cigarette_5_">
	</g>
	<g id="No_Smoking_8_">
	</g>
	<g id="Medicine_Bottle_12_">
	</g>
	<g id="Pill_Bottle_8_">
	</g>
	<g id="Aid">
	</g>
	<g id="Activity_1_">
	</g>
	<g id="Germs_3_">
	</g>
	<g id="Germ_3_">
	</g>
</g>
<g id="Lockup">
</g>
</svg>
