<?xml version="1.0" encoding="utf-8"?>
<!-- Generator: Adobe Illustrator 18.0.0, SVG Export Plug-In . SVG Version: 6.00 Build 0)  -->
<!DOCTYPE svg PUBLIC "-//W3C//DTD SVG 1.1//EN" "http://www.w3.org/Graphics/SVG/1.1/DTD/svg11.dtd">
<svg version="1.1" xmlns="http://www.w3.org/2000/svg" xmlns:xlink="http://www.w3.org/1999/xlink" x="0px" y="0px"
	 viewBox="0 0 40 40" enable-background="new 0 0 40 40" xml:space="preserve">
<g id="Health__x26__Nutrition">
	<g id="Coffee_4_">
	</g>
	<g id="Donut_5_">
	</g>
	<g id="Bodum_5_">
	</g>
	<g id="Kettle_7_">
	</g>
	<g id="Wine_6_">
	</g>
	<g id="Cigarette_5_">
	</g>
	<g id="No_Smoking_8_">
	</g>
	<g id="Medicine_Bottle_12_">
	</g>
	<g id="Pill_Bottle_8_">
	</g>
	<g id="Aid">
	</g>
	<g id="Activity_1_">
	</g>
	<g id="Germs_3_">
		<g>
			<g id="Germs">
				<g>
					<path fill-rule="evenodd" clip-rule="evenodd" fill="#9B59B6" d="M20.5,8.8c0,0.2,0,0.4,0.1,0.5L21,9.3c0,0.2,0.1,0.3,0.1,0.5
						l-0.4,0.2c0.1,0.2,0.1,0.3,0.2,0.5l0.4-0.2c0.1,0.1,0.2,0.3,0.3,0.4l-0.4,0.3c0.1,0.1,0.2,0.3,0.4,0.4l0.3-0.4
						c0.1,0.1,0.2,0.2,0.3,0.3l-0.3,0.4c0.1,0.1,0.3,0.2,0.5,0.3l0.2-0.4c0.1,0.1,0.3,0.1,0.4,0.2l-0.2,0.5c0.1,0,0.2,0.1,0.3,0.1
						c0,0,0.1,0,0.1,0l0.2-0.4c0.2,0.1,0.3,0.1,0.4,0.2l-0.3,0.4c0.1,0.1,0.2,0.1,0.2,0.2l0.4-0.3c0.1,0.1,0.2,0.3,0.2,0.4L24.1,13
						c0,0.1,0.1,0.2,0.1,0.4l0.5-0.1c0,0.2,0,0.3,0,0.5l-0.5,0c0,0.2,0,0.3,0,0.4l0.5,0.1c0,0,0,0,0,0c0,0.1,0,0.2-0.1,0.4L24,14.6
						c0,0.1,0,0.2,0,0.4c0,0.1,0,0.1,0,0.2l0.5,0c0,0.2,0,0.3,0.1,0.5l-0.5,0.1c0.1,0.2,0.1,0.4,0.2,0.5l0.4-0.2
						c0.1,0.1,0.2,0.3,0.3,0.4l-0.4,0.3c0.1,0.1,0.2,0.3,0.4,0.4l0.3-0.4c0.1,0.1,0.2,0.2,0.4,0.3l-0.3,0.4c0.2,0.1,0.3,0.2,0.5,0.3
						l0.2-0.4c0.1,0.1,0.3,0.1,0.4,0.2l0,0L26.5,18c0.2,0,0.4,0.1,0.5,0.1l0-0.5c0.2,0,0.3,0,0.5,0l0,0.5c0.2,0,0.4,0,0.5-0.1
						l-0.1-0.5c0.2,0,0.3-0.1,0.5-0.1l0.2,0.5c0.2-0.1,0.3-0.2,0.5-0.3l-0.2-0.4c0.1-0.1,0.3-0.2,0.4-0.3l0.3,0.4
						c0.1-0.1,0.3-0.3,0.4-0.4l-0.4-0.3c0.1-0.1,0.2-0.3,0.3-0.4l0.4,0.3c0.1-0.2,0.2-0.3,0.2-0.5l-0.5-0.2c0-0.1,0.1-0.2,0.1-0.3
						c0,0,0-0.1,0-0.1l0.5,0.1c0-0.2,0.1-0.3,0.1-0.5l-0.5-0.1c0-0.2,0.1-0.3,0.1-0.5l0.5,0.1c0-0.2,0-0.3,0.1-0.5l-0.5,0
						c0-0.2,0-0.3,0-0.5l0.1,0l0.6,0v-0.1c0-0.1-0.1-0.3-0.1-0.4l-0.5,0c0-0.2,0-0.3-0.1-0.5l0.5-0.1c0-0.2,0-0.3-0.1-0.5l-0.5,0.1
						c0-0.2-0.1-0.3-0.1-0.5l0.5-0.1c0-0.2-0.1-0.3-0.1-0.5L30.2,11c0-0.2-0.1-0.3-0.1-0.5l0.5-0.2c-0.1-0.2-0.1-0.3-0.2-0.5
						l-0.4,0.2c-0.1-0.1-0.1-0.3-0.2-0.4l0.4-0.2C30,9.3,29.9,9.1,29.9,9l-0.4,0.2c-0.1-0.1-0.2-0.3-0.3-0.4l0.4-0.3
						c-0.1-0.1-0.2-0.3-0.3-0.4l-0.4,0.3c-0.1-0.1-0.2-0.3-0.3-0.4L29,7.7c-0.1-0.1-0.2-0.3-0.3-0.4l-0.3,0.3
						c-0.1-0.1-0.2-0.2-0.3-0.3L28.3,7c-0.1-0.1-0.3-0.2-0.4-0.3l-0.3,0.4c-0.1-0.1-0.3-0.2-0.4-0.3l0.3-0.4
						c-0.1-0.1-0.3-0.2-0.4-0.3l-0.2,0.4c-0.1-0.1-0.3-0.2-0.4-0.2l0.2-0.4c-0.1-0.1-0.3-0.2-0.4-0.2L26,6.1
						c-0.1-0.1-0.3-0.1-0.4-0.2l0.2-0.5c-0.2-0.1-0.3-0.1-0.5-0.2l-0.1,0.5c-0.1,0-0.2-0.1-0.4-0.1c0,0-0.1,0-0.1,0l0.1-0.5
						c-0.2,0-0.4-0.1-0.5-0.1l0,0.5c-0.2,0-0.3,0-0.5,0l0-0.5c-0.2,0-0.4,0-0.5,0.1l0.1,0.5c-0.2,0-0.3,0.1-0.4,0.2l-0.2-0.5
						c-0.2,0.1-0.3,0.2-0.5,0.3L22.4,6C22.3,6,22.1,6.1,22,6.2l-0.3-0.4c-0.1,0.1-0.3,0.2-0.4,0.4l0.4,0.3c-0.1,0.1-0.2,0.3-0.3,0.4
						L21,6.7c-0.1,0.2-0.2,0.3-0.3,0.5l0.4,0.2c0,0.1-0.1,0.2-0.1,0.4c0,0,0,0.1,0,0.1l-0.5-0.1c0,0.2-0.1,0.4-0.1,0.5l0.5,0
						c0,0.2,0,0.3,0,0.5L20.5,8.8z M23.8,24.3l-0.4-0.2c0.1-0.2,0.2-0.3,0.2-0.5l0.4,0.2c0.1-0.2,0.1-0.4,0.2-0.5l-0.5-0.1
						c0-0.2,0.1-0.3,0.1-0.5l0.5,0c0-0.1,0-0.2,0-0.2c0-0.1,0-0.2,0-0.3l-0.5,0.1c0-0.2,0-0.3-0.1-0.5l0.5-0.1
						c-0.1-0.2-0.1-0.4-0.2-0.5l-0.4,0.2c-0.1-0.1-0.2-0.3-0.3-0.4l0.4-0.3c-0.1-0.1-0.3-0.3-0.4-0.4l-0.3,0.4
						c-0.1-0.1-0.2-0.2-0.3-0.2c0,0,0,0,0,0l0.3-0.4c-0.1,0-0.2-0.1-0.3-0.2L22.2,20c-0.1-0.1-0.2-0.2-0.3-0.4l0.4-0.3
						c-0.1-0.1-0.1-0.2-0.2-0.3l-0.4,0.2c-0.1-0.1-0.1-0.3-0.1-0.5l0.5-0.1c0,0,0-0.1,0-0.1c0-0.1,0-0.1,0-0.2l-0.5-0.1
						c0-0.1,0.1-0.3,0.2-0.5l0.4,0.2l0.1-0.1c0.1-0.1,0.1-0.2,0.2-0.3l-0.4-0.2c0.1-0.1,0.1-0.3,0.2-0.4l0.5,0.1
						c0.1-0.2,0.1-0.4,0.1-0.5l-0.5,0.1c0-0.2,0-0.3,0-0.3h0.5c0,0,0-0.5,0-0.7l-0.5,0c0-0.2-0.1-0.4-0.1-0.5l0.5-0.2
						c-0.1-0.2-0.1-0.4-0.2-0.5l-0.4,0.2c-0.1-0.1-0.2-0.3-0.2-0.4l0.4-0.3c-0.1-0.2-0.2-0.3-0.3-0.4l-0.4,0.3
						c-0.1-0.1-0.2-0.2-0.3-0.3l0.3-0.4c-0.1-0.1-0.3-0.2-0.4-0.3l-0.3,0.4c0,0,0,0-0.1-0.1c-0.1-0.1-0.2-0.1-0.4-0.2l0.2-0.5
						c-0.2-0.1-0.3-0.1-0.5-0.2l-0.1,0.5c-0.2,0-0.3-0.1-0.5-0.1l0-0.5c-0.2,0-0.4,0-0.5,0l0,0.5c-0.2,0-0.3,0-0.5,0.1l-0.1-0.5
						c-0.2,0-0.3,0.1-0.5,0.2l0.2,0.5c-0.1,0.1-0.3,0.1-0.4,0.2l-0.2-0.4c-0.2,0.1-0.3,0.2-0.4,0.3l0.3,0.4
						c-0.1,0.1-0.2,0.2-0.3,0.3l-0.4-0.3c-0.1,0.1-0.2,0.3-0.3,0.5l0.4,0.3c0,0,0,0-0.1,0.1c-0.1,0.1-0.1,0.2-0.2,0.3l-0.4-0.2
						c-0.1,0.2-0.1,0.3-0.2,0.5l0.4,0.2c-0.1,0.1-0.1,0.3-0.2,0.4l-0.5-0.2c-0.1,0.2-0.1,0.3-0.2,0.5l0.5,0.1c0,0.2-0.1,0.3-0.1,0.5
						l-0.5-0.1c0,0.2-0.1,0.3-0.1,0.5l0.5,0.1c0,0.2-0.1,0.3-0.1,0.5L15,17.3c0,0.2,0,0.3,0,0.5l0.5,0c0,0.2,0,0.3,0,0.5l-0.5,0
						c0,0.2,0,0.3,0,0.5l0.5,0c0,0.2,0,0.3,0.1,0.5L15,19.4c0,0.2,0,0.3,0.1,0.5l0.5-0.1c0,0.2,0.1,0.3,0.1,0.5l-0.5,0.1
						c0,0.2,0.1,0.3,0.1,0.5l0.5-0.2c0,0.2,0.1,0.3,0.2,0.5l-0.4,0.2c0.1,0.2,0.1,0.3,0.2,0.5l0.4-0.2c0.1,0.1,0.1,0.3,0.2,0.4
						l-0.4,0.2c0.1,0.2,0.2,0.3,0.3,0.4l0.4-0.3c0.1,0.1,0.2,0.3,0.3,0.4l-0.4,0.3c0.1,0.1,0.2,0.3,0.3,0.4l0.4-0.3
						c0.1,0.1,0.2,0.2,0.3,0.4l-0.4,0.3c0.1,0.1,0.2,0.2,0.3,0.4l0.3-0.4c0.1,0.1,0.2,0.2,0.3,0.3l-0.3,0.4c0.1,0.1,0.3,0.2,0.4,0.3
						l0.3-0.4c0.1,0.1,0.3,0.2,0.4,0.3l-0.3,0.4c0.1,0.1,0.3,0.2,0.4,0.3l0.2-0.4c0,0,0.1,0,0.1,0.1c0.1,0.1,0.2,0.1,0.3,0.1
						l-0.2,0.5c0.2,0.1,0.3,0.1,0.5,0.2l0.1-0.5c0.2,0,0.3,0.1,0.5,0.1l0,0.7c0.1,0,0.2,0.2,0.3,0.2h0c0.1,0,0.2-0.2,0.2-0.2l0-0.6
						c0.2,0,0.3-0.1,0.5-0.1l0.1,0.5c0.2,0,0.4-0.1,0.5-0.2l-0.2-0.5c0.1-0.1,0.3-0.1,0.4-0.2l0.3,0.4c0.2-0.1,0.3-0.2,0.4-0.3
						l-0.3-0.4c0.1-0.1,0.2-0.2,0.3-0.3l0.4,0.3C23.6,24.7,23.7,24.5,23.8,24.3L23.8,24.3z M9.1,20.2c0.2,0.1,0.4,0.1,0.5,0.1
						l0.1-0.5c0.2,0,0.3,0,0.5,0l0,0.5c0.2,0,0.4,0,0.5-0.1l-0.1-0.5c0.2,0,0.3-0.1,0.5-0.1l0.2,0.5c0.2-0.1,0.3-0.1,0.5-0.2l0.1,0
						l-0.3-0.4c0.1-0.1,0.3-0.2,0.4-0.3l0.3,0.4c0.1-0.1,0.3-0.2,0.4-0.4l-0.4-0.3c0.1-0.1,0.2-0.2,0.3-0.4l0.4,0.3
						c0.1-0.2,0.2-0.3,0.3-0.5L12.8,18c0.1-0.1,0.1-0.3,0.1-0.5l0.5,0.1c0-0.2,0.1-0.4,0.1-0.6l-0.5,0c0-0.2,0-0.3,0-0.5l0.5-0.1
						c0-0.2-0.1-0.4-0.2-0.6l-0.5,0.2c0-0.1-0.1-0.2-0.2-0.3c0,0,0,0,0,0l0.4-0.2c0-0.1-0.1-0.2-0.1-0.4l-0.5,0.1
						c0-0.1-0.1-0.3-0.1-0.5l0.5-0.1c0-0.1,0-0.1,0-0.2c0-0.1,0-0.1,0-0.2l-0.5-0.1c0-0.2,0.1-0.3,0.1-0.5l0.4,0.2
						c0-0.1,0.1-0.2,0.2-0.3l-0.4-0.3c0.1-0.1,0.2-0.2,0.4-0.3l0.3,0.4c0,0,0.1,0,0.1-0.1c0.1-0.1,0.2-0.1,0.3-0.2l-0.3-0.4
						c0.1-0.1,0.3-0.2,0.4-0.3l0.3,0.4c0.1-0.1,0.3-0.3,0.4-0.4l-0.4-0.3c0.1-0.1,0.2-0.3,0.3-0.4l0.4,0.2c0.1-0.2,0.2-0.3,0.2-0.5
						l-0.5-0.2c0.1-0.2,0.1-0.3,0.1-0.5l0.5,0.1c0-0.2,0.1-0.4,0.1-0.5l-0.5,0c0-0.2,0-0.3,0-0.5l0.5,0c0-0.2,0-0.4-0.1-0.5
						l-0.5,0.1c0-0.2-0.1-0.3-0.1-0.5l0.5-0.2C15.1,8.7,15,8.6,15,8.4l-0.4,0.2c0,0,0-0.1,0-0.1c-0.1-0.1-0.1-0.2-0.2-0.3l0.4-0.3
						c-0.1-0.1-0.2-0.3-0.4-0.4L14,7.9c-0.1-0.1-0.2-0.2-0.4-0.3l0.3-0.4c-0.2-0.1-0.3-0.2-0.5-0.3l-0.2,0.4
						c-0.1-0.1-0.3-0.1-0.4-0.2l0.1-0.5c-0.2-0.1-0.3-0.1-0.5-0.1l-0.1,0.5c-0.2,0-0.3,0-0.5,0l0-0.5c-0.2,0-0.4,0-0.5,0l0.1,0.5
						c-0.2,0-0.3,0.1-0.5,0.1l-0.2-0.5c-0.2,0.1-0.3,0.1-0.5,0.2l0.2,0.4c0,0-0.1,0-0.1,0c-0.1,0.1-0.2,0.1-0.3,0.2L9.8,7.2
						C9.6,7.3,9.5,7.4,9.4,7.5l0.3,0.4C9.5,8,9.4,8.1,9.3,8.2L9,7.8C8.8,7.9,8.7,8,8.6,8.1l0.3,0.4C8.8,8.6,8.7,8.7,8.6,8.8L8.2,8.5
						C8.1,8.6,8,8.8,7.9,8.9l0.4,0.3C8.2,9.3,8.1,9.5,8,9.6L7.6,9.3C7.5,9.4,7.4,9.6,7.3,9.7L7.7,10c-0.1,0.1-0.2,0.3-0.2,0.4
						l-0.4-0.2c-0.1,0.1-0.2,0.3-0.2,0.5l0.4,0.2c-0.1,0.1-0.1,0.3-0.2,0.4l-0.4-0.2c-0.1,0.2-0.1,0.3-0.2,0.5l0.5,0.2
						c-0.1,0.2-0.1,0.3-0.1,0.5L6.3,12c0,0.2-0.1,0.3-0.1,0.5l0.5,0.1c0,0.2-0.1,0.3-0.1,0.5L6.1,13c0,0.2,0,0.3-0.1,0.5l0.5,0
						c0,0.2,0,0.3,0,0.5l-0.5,0l0,0.2l0,0.3l0.5,0c0,0.2,0,0.3,0,0.5l-0.5,0c0,0.2,0,0.3,0.1,0.5l0.5-0.1c0,0.2,0.1,0.3,0.1,0.5
						l-0.5,0.1c0,0.2,0.1,0.3,0.1,0.5l0.5-0.1c0,0.2,0.1,0.3,0.1,0.5l-0.4,0.2c0.1,0.2,0.1,0.3,0.2,0.5l0.4-0.2
						c0.1,0.1,0.1,0.3,0.2,0.4L6.8,18c0.1,0.2,0.1,0.3,0.2,0.5l0.4-0.2c0,0,0,0.1,0.1,0.1c0.1,0.1,0.1,0.2,0.2,0.3l-0.4,0.3
						c0.1,0.2,0.2,0.3,0.4,0.4L8.1,19c0.1,0.1,0.2,0.2,0.4,0.3l-0.3,0.4c0.2,0.1,0.3,0.2,0.5,0.3l0.2-0.4c0.1,0.1,0.3,0.1,0.4,0.2
						L9.1,20.2z M34,25.1c0-0.2,0-0.3,0-0.5l-0.5,0c0-0.2,0-0.3,0-0.5l0.5,0c0-0.2,0-0.3,0-0.5l-0.5,0c0-0.2,0-0.3-0.1-0.5l0.5-0.1
						c0-0.2-0.1-0.3-0.1-0.5l-0.5,0.1c0-0.1,0-0.3-0.1-0.4c0,0,0-0.1,0-0.1l0.5-0.1c-0.1-0.2-0.1-0.4-0.2-0.5l-0.4,0.2
						c-0.1-0.1-0.2-0.3-0.2-0.4l0.4-0.3c-0.1-0.2-0.2-0.3-0.3-0.4L32.5,21c-0.1-0.1-0.2-0.2-0.4-0.3l0.3-0.4
						c-0.1-0.1-0.2-0.2-0.4-0.2L32,20l-0.2,0.4c-0.1-0.1-0.3-0.1-0.4-0.2l0.2-0.5c-0.2-0.1-0.3-0.1-0.5-0.1l-0.1,0.5
						c-0.2,0-0.3,0-0.5,0l0-0.5c-0.2,0-0.4,0-0.5,0l0.1,0.5c-0.1,0-0.3,0-0.4,0.1c0,0-0.1,0-0.1,0l-0.1-0.5
						c-0.2,0.1-0.3,0.1-0.5,0.2l0.2,0.4c-0.1,0.1-0.3,0.1-0.4,0.2l-0.3-0.4c-0.2,0.1-0.3,0.2-0.4,0.3l0.3,0.4
						c-0.1,0.1-0.2,0.2-0.3,0.3l-0.4-0.3c-0.1,0.1-0.2,0.3-0.3,0.4l0.4,0.3c-0.1,0.1-0.2,0.3-0.2,0.4L27,21.8
						c-0.1,0.2-0.1,0.3-0.2,0.5l0.5,0.1c0,0.2-0.1,0.3-0.1,0.5l-0.5-0.1c0,0.2,0,0.4,0,0.6l0.5,0c0,0.2,0,0.3,0.1,0.5L26.7,24
						c0,0.1,0,0.2,0.1,0.4c0,0,0,0.1,0,0.1l0.5-0.1c0,0.2,0,0.3,0,0.5l-0.5,0c0,0.1,0,0.2-0.1,0.3l0.4,0.2c-0.1,0.2-0.1,0.3-0.2,0.4
						l-0.4-0.3c-0.1,0.1-0.2,0.2-0.3,0.3l0.3,0.4c-0.1,0.1-0.3,0.2-0.4,0.3L26,25.9C25.9,26,25.8,26,25.7,26l0.1,0.5
						c-0.1,0-0.1,0,0,0c-0.1,0-0.2,0.1-0.3,0.1l-0.2-0.5c-0.2,0.1-0.3,0.2-0.5,0.3l0.3,0.4c-0.1,0.1-0.3,0.2-0.4,0.3l-0.4-0.3
						c-0.1,0.1-0.2,0.3-0.3,0.5l0.4,0.3c-0.1,0.1-0.2,0.3-0.2,0.4l-0.5-0.2c-0.1,0.2-0.1,0.4-0.2,0.5l0.5,0.1c0,0.2,0,0.3-0.1,0.5
						l-0.5,0c0,0.2,0,0.4,0,0.6l0.5-0.1c0,0.2,0,0.3,0.1,0.5L23.6,30l0,0.1c0,0.2,0.1,0.4,0.2,0.5l0.4-0.2c0.1,0.1,0.1,0.3,0.2,0.4
						l-0.4,0.3c0.1,0.2,0.2,0.3,0.3,0.4l0.4-0.3c0.1,0.1,0.2,0.2,0.3,0.3l-0.3,0.4c0.1,0.1,0.3,0.2,0.4,0.3l0.1,0l0.2-0.4
						c0.1,0.1,0.3,0.1,0.4,0.2l-0.2,0.5c0.2,0.1,0.4,0.1,0.5,0.1l0.1-0.5c0.2,0,0.3,0,0.5,0l0,0.5c0.2,0,0.4,0,0.5,0l-0.1-0.5
						c0.1,0,0.2,0,0.3-0.1c0,0,0.1,0,0.1,0l0.1,0.5c0.2,0,0.3-0.1,0.5-0.2l-0.2-0.5c0.1-0.1,0.3-0.1,0.4-0.2l0.2,0.5
						c0.2-0.1,0.3-0.1,0.5-0.2l-0.2-0.4c0.1-0.1,0.3-0.2,0.4-0.2l0.2,0.4c0.1-0.1,0.3-0.2,0.4-0.3L30,31c0.1-0.1,0.3-0.2,0.4-0.3
						l0.3,0.4c0.1-0.1,0.3-0.2,0.4-0.3l-0.3-0.4c0.1-0.1,0.2-0.2,0.4-0.3l0.3,0.4c0.1-0.1,0.2-0.2,0.4-0.4l-0.3-0.3
						c0.1-0.1,0.2-0.2,0.3-0.4l0.4,0.3c0.1-0.1,0.2-0.3,0.3-0.4L32,29.1c0.1-0.1,0.2-0.3,0.3-0.4l0.4,0.3c0.1-0.1,0.2-0.3,0.2-0.4
						l0-0.1l-0.4-0.2c0.1-0.1,0.1-0.3,0.2-0.4l0.4,0.2c0.1-0.2,0.1-0.3,0.2-0.5l-0.4-0.2c0.1-0.1,0.1-0.3,0.2-0.4l0.4,0.2
						c0.1-0.2,0.1-0.3,0.1-0.5l-0.5-0.1c0-0.2,0.1-0.3,0.1-0.5l0.5,0.1c0-0.2,0.1-0.3,0.1-0.5l-0.5-0.1c0-0.2,0-0.3,0-0.5L34,25.1z
						 M20.5,30.9c0-0.2,0-0.4-0.1-0.5L20,30.5c0-0.2-0.1-0.3-0.2-0.4l0.4-0.2c-0.1-0.2-0.2-0.3-0.3-0.5l-0.4,0.3
						c-0.1-0.1-0.2-0.2-0.3-0.4l0.3-0.4c-0.1-0.1-0.3-0.3-0.5-0.4L18.9,29c-0.1-0.1-0.3-0.2-0.4-0.2l0.2-0.5
						c-0.2-0.1-0.4-0.1-0.5-0.1L18,28.7c-0.1,0-0.2,0-0.4,0c0,0,0,0,0,0l0-0.5c-0.1,0-0.2,0-0.4-0.1l-0.1,0.5
						c-0.1,0-0.3-0.1-0.4-0.2l0.2-0.4c-0.1-0.1-0.2-0.1-0.3-0.2l-0.3,0.4C16.2,28.1,16,28,16,27.8l0.4-0.3c-0.1-0.1-0.1-0.2-0.1-0.3
						l-0.5,0.2c0-0.1-0.1-0.3-0.1-0.5l0.5,0l0-0.1c0-0.1,0-0.2,0-0.4l-0.5,0c0-0.2,0-0.3-0.1-0.5l0.5-0.1c0-0.2-0.1-0.4-0.2-0.5
						l-0.4,0.2c-0.1-0.2-0.1-0.3-0.2-0.4l0.4-0.2c-0.1-0.2-0.2-0.3-0.3-0.5l-0.4,0.3c-0.1-0.1-0.2-0.2-0.3-0.4l0.3-0.4
						c-0.1-0.1-0.3-0.2-0.4-0.3L14.2,24c-0.1-0.1-0.3-0.2-0.4-0.2l0.2-0.4c-0.2-0.1-0.3-0.1-0.5-0.2l-0.1,0.5
						c-0.1,0-0.3-0.1-0.5-0.1L13,23c-0.2,0-0.4,0-0.5-0.1l0,0.5c0,0-0.1,0-0.1,0c-0.1,0-0.3,0-0.4,0L11.9,23c-0.2,0-0.4,0.1-0.5,0.1
						l0.1,0.5c-0.2,0-0.3,0.1-0.4,0.2l-0.2-0.4c-0.2,0.1-0.3,0.2-0.5,0.3l0.3,0.4c-0.1,0.1-0.2,0.2-0.4,0.3L10,24
						c-0.1,0.1-0.3,0.3-0.4,0.4l0.4,0.3c-0.1,0.1-0.2,0.3-0.3,0.4l-0.4-0.2c-0.1,0.2-0.2,0.3-0.2,0.5l0.5,0.2
						c-0.1,0.1-0.1,0.3-0.1,0.5L9,25.9c0,0.2-0.1,0.4-0.1,0.6l0.5,0c0,0,0,0.1,0,0.1c0,0.1,0,0.3,0,0.4l-0.5,0c0,0.2,0,0.3,0,0.5
						l0.5-0.1c0,0.2,0,0.3,0.1,0.5L9,28c0,0.2,0.1,0.3,0.1,0.5l0.5-0.1c0,0.2,0.1,0.3,0.1,0.5L9.2,29c0,0.2,0.1,0.3,0.2,0.5l0.5-0.2
						c0.1,0.2,0.1,0.3,0.2,0.4l-0.4,0.2c0.1,0.2,0.1,0.3,0.2,0.5l0.4-0.2c0.1,0.1,0.1,0.3,0.2,0.4L10,30.8c0.1,0.1,0.2,0.3,0.3,0.4
						l0.4-0.3c0.1,0.1,0.2,0.3,0.3,0.4l-0.4,0.3c0.1,0.1,0.2,0.3,0.3,0.4l0.4-0.3c0.1,0.1,0.2,0.2,0.3,0.4l-0.3,0.3
						c0.1,0.1,0.2,0.2,0.4,0.4l0.3-0.4c0.1,0.1,0.2,0.2,0.4,0.3L12,33.1c0.1,0.1,0.3,0.2,0.4,0.3l0.3-0.4c0.1,0.1,0.3,0.2,0.4,0.3
						l-0.3,0.4c0.1,0.1,0.3,0.2,0.4,0.3l0.2-0.4c0.1,0.1,0.3,0.1,0.4,0.2l-0.2,0.4c0.2,0.1,0.3,0.1,0.5,0.2l0.2-0.5
						c0.1,0.1,0.3,0.1,0.4,0.2l-0.1,0.5c0.2,0.1,0.3,0.1,0.5,0.1l0.1-0.5c0.2,0,0.3,0.1,0.5,0.1l-0.1,0.5c0.2,0,0.3,0.1,0.5,0.1
						l0.1-0.5c0.2,0,0.3,0,0.5,0.1l0,0.5c0.2,0,0.3,0,0.5,0l0-0.5c0,0,0.1,0,0.1,0c0.1,0,0.2,0,0.3,0l0.1,0.5c0.2,0,0.4-0.1,0.5-0.1
						L18,34.4c0.2,0,0.3-0.1,0.4-0.2l0.2,0.4c0.2-0.1,0.3-0.2,0.5-0.3L18.9,34c0.1-0.1,0.3-0.2,0.4-0.3l0.3,0.4
						c0.1-0.1,0.3-0.3,0.4-0.4l-0.4-0.3c0.1-0.1,0.2-0.3,0.2-0.4l0.4,0.2c0.1-0.2,0.2-0.3,0.2-0.5L20,32.5c0-0.2,0.1-0.3,0.1-0.5
						l0.3,0.1c0-0.2-0.1-0.4-0.1-0.6v-0.1l-0.3,0c0-0.2,0.1-0.3,0-0.5L20.5,30.9z"/>
				</g>
			</g>
			<g id="Germs_1_">
				<g>
					<path fill-rule="evenodd" clip-rule="evenodd" fill="#2ECC71" d="M23.2,7.6c-0.4,0.2-0.5,0.7-0.3,1c0.2,0.4,0.7,0.5,1,0.3
						c0.4-0.2,0.5-0.7,0.3-1C24,7.5,23.6,7.4,23.2,7.6z M18.9,14.6c-0.4,0.1-0.6,0.5-0.5,0.9c0.1,0.4,0.5,0.7,0.9,0.5
						c0.4-0.1,0.6-0.5,0.5-0.9C19.7,14.7,19.3,14.5,18.9,14.6z M12,10.4c0.4,0.1,0.8-0.1,0.9-0.5C13,9.5,12.7,9.1,12.3,9
						c-0.4-0.1-0.8,0.1-0.9,0.5C11.3,9.9,11.6,10.3,12,10.4z M30.8,22c-0.4-0.2-0.8-0.1-1,0.3c-0.2,0.4-0.1,0.8,0.3,1
						c0.4,0.2,0.8,0.1,1-0.3C31.3,22.6,31.2,22.2,30.8,22z M11.7,25.6c-0.3,0.3-0.3,0.8,0,1.1c0.3,0.3,0.8,0.3,1.1,0
						c0.3-0.3,0.3-0.8,0-1.1C12.4,25.3,12,25.3,11.7,25.6z"/>
				</g>
			</g>
		</g>
	</g>
	<g id="Germ_3_">
	</g>
</g>
<g id="Lockup">
</g>
</svg>
