<?xml version="1.0" encoding="utf-8"?>
<!-- Generator: Adobe Illustrator 18.0.0, SVG Export Plug-In . SVG Version: 6.00 Build 0)  -->
<!DOCTYPE svg PUBLIC "-//W3C//DTD SVG 1.1//EN" "http://www.w3.org/Graphics/SVG/1.1/DTD/svg11.dtd">
<svg version="1.1" xmlns="http://www.w3.org/2000/svg" xmlns:xlink="http://www.w3.org/1999/xlink" x="0px" y="0px"
	 viewBox="0 0 40 40" enable-background="new 0 0 40 40" xml:space="preserve">
<g id="Health__x26__Nutrition">
	<g id="Coffee_4_">
	</g>
	<g id="Donut_5_">
	</g>
	<g id="Bodum_5_">
	</g>
	<g id="Kettle_7_">
	</g>
	<g id="Wine_6_">
	</g>
	<g id="Cigarette_5_">
	</g>
	<g id="No_Smoking_8_">
	</g>
	<g id="Medicine_Bottle_12_">
	</g>
	<g id="Pill_Bottle_8_">
	</g>
	<g id="Aid">
	</g>
	<g id="Activity_1_">
	</g>
	<g id="Germs_3_">
	</g>
	<g id="Germ_3_">
		<g id="Germ">
			<g>
				<path fill-rule="evenodd" clip-rule="evenodd" fill="#9B59B6" d="M26.2,23.7C26.2,23.7,26.2,23.7,26.2,23.7
					C26.3,23.8,26.3,23.8,26.2,23.7z M28.7,15.2c0.1-0.4,0.2-0.7,0.2-1.1l-1-0.1c0-0.3,0-0.7,0-1l1,0c0-0.4-0.1-0.8-0.1-1.1l-1,0.2
					c-0.1-0.3-0.1-0.6-0.3-1l1-0.3c-0.1-0.4-0.3-0.7-0.4-1.1l-0.9,0.5c-0.2-0.3-0.3-0.6-0.5-0.8l0.8-0.6c-0.2-0.3-0.5-0.6-0.7-0.9
					l-0.7,0.7c0,0-0.1-0.1-0.1-0.1c-0.2-0.2-0.4-0.4-0.6-0.5L26,7c-0.3-0.2-0.6-0.4-1-0.6l-0.5,0.9c-0.3-0.2-0.6-0.3-0.9-0.4
					l0.3-0.9c-0.4-0.1-0.7-0.2-1.1-0.3l-0.2,1c-0.3-0.1-0.7-0.1-1-0.1l0-1l-0.2,0c-0.3,0-0.6,0-0.9,0.1l0.1,1c-0.3,0-0.7,0.1-1,0.2
					l-0.3-1C19,5.9,18.6,6,18.3,6.2l0.4,0.9c-0.3,0.1-0.6,0.3-0.9,0.5l-0.6-0.8c-0.3,0.2-0.6,0.5-0.9,0.7L17,8.2
					c0,0-0.1,0.1-0.1,0.1c-0.2,0.2-0.4,0.4-0.5,0.6l-0.8-0.7c-0.2,0.3-0.5,0.5-0.7,0.8l0.8,0.6c-0.2,0.3-0.4,0.5-0.6,0.8l-0.8-0.6
					c-0.2,0.3-0.4,0.6-0.6,0.9l0.9,0.5c-0.2,0.3-0.4,0.6-0.5,0.9l-0.9-0.5c-0.2,0.3-0.3,0.6-0.5,0.9l0.9,0.4
					c-0.1,0.3-0.3,0.6-0.4,0.9l-0.9-0.4c-0.1,0.3-0.2,0.7-0.4,1l1,0.3c-0.1,0.3-0.2,0.6-0.3,1l-1-0.3c-0.1,0.3-0.2,0.7-0.2,1l1,0.2
					c-0.1,0.3-0.1,0.7-0.1,1l-1-0.1c0,0.4-0.1,0.7-0.1,1l1,0.1c0,0.3,0,0.7,0,1l-1,0v0.1c0,0.3,0,0.6,0,0.9l1-0.1c0,0.3,0,0.7,0.1,1
					l-1,0.1c0,0.3,0.1,0.7,0.2,1l1-0.2c0.1,0.3,0.1,0.6,0.2,1l-1,0.2c0.1,0.3,0.2,0.7,0.3,1l1-0.3c0.1,0.3,0.2,0.6,0.3,0.9l-1,0.4
					c0.1,0.3,0.3,0.7,0.4,1l0.9-0.4c0.1,0.3,0.3,0.6,0.4,0.9L13,27.9c0.2,0.3,0.3,0.6,0.5,0.9l0.9-0.5c0.2,0.3,0.3,0.6,0.5,0.8
					l-0.8,0.6c0.2,0.3,0.4,0.6,0.6,0.9l0.8-0.6c0.2,0.3,0.4,0.5,0.6,0.8l-0.8,0.7c0.2,0.3,0.5,0.5,0.7,0.8l0.7-0.7
					c0.1,0.1,0.1,0.1,0.2,0.2c0.2,0.2,0.4,0.3,0.5,0.5l-0.6,0.8c0.3,0.2,0.6,0.5,1,0.6l0.5-0.9c0.3,0.2,0.6,0.3,0.9,0.4l-0.3,0.9
					c0.4,0.1,0.7,0.2,1.1,0.3l0.2-1c0.3,0.1,0.7,0.1,1,0.1l0,1l0.2,0c0.3,0,0.7,0,1-0.1l-0.1-1c0.3,0,0.7-0.1,1-0.2l0.3,1
					c0.4-0.1,0.7-0.3,1.1-0.4l-0.5-0.9c0.3-0.1,0.6-0.3,0.9-0.5l0.6,0.8c0.3-0.2,0.6-0.5,0.9-0.7l0.1-0.1l-0.7-0.7
					c0.2-0.2,0.5-0.5,0.6-0.8l0.8,0.6c0.2-0.3,0.4-0.6,0.6-1L27,30c0.2-0.3,0.3-0.6,0.4-0.9l1,0.3c0.1-0.4,0.2-0.8,0.3-1.1l-1-0.2
					c0.1-0.3,0.1-0.7,0.1-1l1,0c0-0.4-0.1-0.8-0.2-1.2l-1,0.2c-0.1-0.3-0.2-0.6-0.3-0.9l0.9-0.4c-0.2-0.4-0.4-0.7-0.6-1l-0.8,0.6
					c-0.2-0.2-0.3-0.4-0.5-0.6c0,0,0,0-0.1-0.1l0.7-0.7c-0.1-0.1-0.3-0.3-0.5-0.7l-0.8,0.5c-0.2-0.3-0.3-0.6-0.5-0.9l0.9-0.4
					c-0.1-0.3-0.2-0.5-0.2-0.7l-1,0.1c0-0.3-0.1-0.7,0-1l1,0.2c0-0.2,0.1-0.4,0.2-0.7l-0.9-0.4c0.1-0.3,0.3-0.5,0.6-0.8l0.7,0.7
					c0.1-0.1,0.1-0.1,0.2-0.2c0.2-0.2,0.3-0.4,0.5-0.5l-0.8-0.6c0.2-0.3,0.4-0.5,0.6-0.8l0.9,0.5c0.2-0.3,0.4-0.7,0.5-1l-0.9-0.4
					c0.1-0.3,0.2-0.6,0.3-0.9L28.7,15.2z"/>
			</g>
		</g>
		<g id="Germ_1_">
			<g>
				<ellipse fill-rule="evenodd" clip-rule="evenodd" fill="#2ECC71" cx="21.8" cy="11.9" rx="1.6" ry="1.6"/>
			</g>
		</g>
	</g>
</g>
<g id="Lockup">
</g>
</svg>
