<?xml version="1.0" encoding="utf-8"?>
<!-- Generator: Adobe Illustrator 18.0.0, SVG Export Plug-In . SVG Version: 6.00 Build 0)  -->
<!DOCTYPE svg PUBLIC "-//W3C//DTD SVG 1.1//EN" "http://www.w3.org/Graphics/SVG/1.1/DTD/svg11.dtd">
<svg version="1.1" xmlns="http://www.w3.org/2000/svg" xmlns:xlink="http://www.w3.org/1999/xlink" x="0px" y="0px"
	 viewBox="0 0 40 40" enable-background="new 0 0 40 40" xml:space="preserve">
<g id="Health__x26__Nutrition">
	<g id="Coffee_4_">
	</g>
	<g id="Donut_5_">
	</g>
	<g id="Bodum_5_">
	</g>
	<g id="Kettle_7_">
		<path d="M23.5,16.5h-4v-6c0-1.1,0.9-2,2-2c1.1,0,2,0.9,2,2V16.5z"/>
		<polygon fill="#302E2E" points="6.5,8 9,12.5 9,31 27,31 27,8 		"/>
		<path fill="#211F1F" d="M23,22.5c0,1.1-0.9,2-2,2c-1.1,0-2-0.9-2-2v-9c0-1.1,0.9-2,2-2c1.1,0,2,0.9,2,2V22.5z"/>
		<path fill="#16A085" d="M23,22.5c0,1.1-0.9,2-2,2c-1.1,0-2-0.9-2-2V15h4V22.5z"/>
		<path fill="#16A085" d="M27,23.5c-0.6,0-1-0.4-1-1V15c0-1.9,1.6-3.5,3.5-3.5c1.9,0,3.5,1.6,3.5,3.5v5.5c0,0.6-0.4,1-1,1
			c-0.6,0-1-0.4-1-1V15c0-0.8-0.7-1.5-1.5-1.5c-0.8,0-1.5,0.7-1.5,1.5v7.5C28,23.1,27.6,23.5,27,23.5z"/>
		<rect x="9" y="31" fill="#16A085" width="18" height="2"/>
		<path fill-rule="evenodd" clip-rule="evenodd" fill="#16A085" d="M16.5,11.5v1h-2v-1H16.5z M14.5,14.5v1h2v-1H14.5z M14.5,17.5v1
			h2v-1H14.5z M14.5,20.5v1h2v-1H14.5z M14.5,23.5v1h2v-1H14.5z"/>
	</g>
	<g id="Wine_6_">
	</g>
	<g id="Cigarette_5_">
	</g>
	<g id="No_Smoking_8_">
	</g>
	<g id="Medicine_Bottle_12_">
	</g>
	<g id="Pill_Bottle_8_">
	</g>
	<g id="Aid">
	</g>
	<g id="Activity_1_">
	</g>
	<g id="Germs_3_">
	</g>
	<g id="Germ_3_">
	</g>
</g>
<g id="Lockup">
</g>
</svg>
