<?xml version="1.0" encoding="utf-8"?>
<!-- Generator: Adobe Illustrator 18.0.0, SVG Export Plug-In . SVG Version: 6.00 Build 0)  -->
<!DOCTYPE svg PUBLIC "-//W3C//DTD SVG 1.1//EN" "http://www.w3.org/Graphics/SVG/1.1/DTD/svg11.dtd">
<svg version="1.1" xmlns="http://www.w3.org/2000/svg" xmlns:xlink="http://www.w3.org/1999/xlink" x="0px" y="0px"
	 viewBox="0 0 40 40" enable-background="new 0 0 40 40" xml:space="preserve">
<g id="Health__x26__Nutrition">
	<g id="Coffee_4_">
	</g>
	<g id="Donut_5_">
	</g>
	<g id="Bodum_5_">
	</g>
	<g id="Kettle_7_">
	</g>
	<g id="Wine_6_">
	</g>
	<g id="Cigarette_5_">
	</g>
	<g id="No_Smoking_8_">
	</g>
	<g id="Medicine_Bottle_12_">
		<g>
			<g id="Medicine_Bottle">
				<g>
					<path fill-rule="evenodd" clip-rule="evenodd" fill="#C0392B" d="M9.5,25.5V36c0,0.8,0.7,1.5,1.5,1.5h18c0.8,0,1.5-0.7,1.5-1.5
						l0-10.5H9.5z"/>
				</g>
			</g>
			<g id="Medicine_Bottle_1_">
				<g>
					<path fill-rule="evenodd" clip-rule="evenodd" fill="#ECF0F1" d="M26.5,16.9v-5.4h-13v5.4c-2.3,0.8-4,3-4,5.6v3h21v-3
						C30.5,19.9,28.8,17.7,26.5,16.9z"/>
				</g>
			</g>
			<g id="Medicine_Bottle_2_">
				<g>
					<rect x="18.5" y="11.5" fill-rule="evenodd" clip-rule="evenodd" fill="#BDC3C7" width="3" height="14"/>
				</g>
			</g>
			<g id="Medicine_Bottle_3_">
				<g>
					<path fill-rule="evenodd" clip-rule="evenodd" fill="#211F1F" d="M20,2.5c-1.4,0-2.5,1-2.5,2.3v5.7h5V4.8
						C22.5,3.5,21.4,2.5,20,2.5z"/>
				</g>
			</g>
			<g id="Medicine_Bottle_4_">
				<g>
					<rect x="13.5" y="9.5" fill-rule="evenodd" clip-rule="evenodd" fill="#302E2E" width="13" height="4"/>
				</g>
			</g>
			<g id="Medicine_Bottle_5_">
				<g>
					<polygon fill-rule="evenodd" clip-rule="evenodd" fill="#ECF0F1" points="25.5,30.5 25.5,28.5 23.5,28.5 23.5,30.5 21.5,30.5 
						21.5,32.5 23.5,32.5 23.5,34.5 25.5,34.5 25.5,32.5 27.5,32.5 27.5,30.5 					"/>
				</g>
			</g>
		</g>
	</g>
	<g id="Pill_Bottle_8_">
	</g>
	<g id="Aid">
	</g>
	<g id="Activity_1_">
	</g>
	<g id="Germs_3_">
	</g>
	<g id="Germ_3_">
	</g>
</g>
<g id="Lockup">
</g>
</svg>
