<?xml version="1.0" encoding="utf-8"?>
<!-- Generator: Adobe Illustrator 18.0.0, SVG Export Plug-In . SVG Version: 6.00 Build 0)  -->
<!DOCTYPE svg PUBLIC "-//W3C//DTD SVG 1.1//EN" "http://www.w3.org/Graphics/SVG/1.1/DTD/svg11.dtd">
<svg version="1.1" xmlns="http://www.w3.org/2000/svg" xmlns:xlink="http://www.w3.org/1999/xlink" x="0px" y="0px"
	 viewBox="0 0 40 40" enable-background="new 0 0 40 40" xml:space="preserve">
<g id="Health__x26__Nutrition">
	<g id="Coffee_4_">
	</g>
	<g id="Donut_5_">
	</g>
	<g id="Bodum_5_">
	</g>
	<g id="Kettle_7_">
	</g>
	<g id="Wine_6_">
	</g>
	<g id="Cigarette_5_">
	</g>
	<g id="No_Smoking_8_">
		<g id="No_Smoking">
			<g>
				<rect x="13" y="18" fill-rule="evenodd" clip-rule="evenodd" fill="#ECF0F1" width="10" height="4"/>
			</g>
		</g>
		<g id="No_Smoking_1_">
			<g>
				<polygon fill-rule="evenodd" clip-rule="evenodd" fill="#A46D4E" points="29,18 23,18 23,22 29,22 				"/>
			</g>
		</g>
		<g id="No_Smoking_2_">
			<g>
				<rect x="11" y="18" fill-rule="evenodd" clip-rule="evenodd" fill="#E74C3C" width="2" height="4"/>
			</g>
		</g>
		<g id="No_Smoking_3_">
			<g>
				<path fill-rule="evenodd" clip-rule="evenodd" fill="#E74C3C" d="M20,6C12.3,6,6,12.3,6,20c0,7.7,6.3,14,14,14
					c7.7,0,14-6.3,14-14C34,12.3,27.7,6,20,6z M9,20c0-6.1,4.9-11,11-11c2.5,0,4.8,0.8,6.6,2.2L11.2,26.6C9.8,24.8,9,22.5,9,20z
					 M20,31c-2.5,0-4.8-0.8-6.6-2.2l15.4-15.4c1.4,1.8,2.2,4.1,2.2,6.6C31,26.1,26.1,31,20,31z"/>
			</g>
		</g>
	</g>
	<g id="Medicine_Bottle_12_">
	</g>
	<g id="Pill_Bottle_8_">
	</g>
	<g id="Aid">
	</g>
	<g id="Activity_1_">
	</g>
	<g id="Germs_3_">
	</g>
	<g id="Germ_3_">
	</g>
</g>
<g id="Lockup">
</g>
</svg>
