<?xml version="1.0" encoding="utf-8"?>
<!-- Generator: Adobe Illustrator 18.0.0, SVG Export Plug-In . SVG Version: 6.00 Build 0)  -->
<!DOCTYPE svg PUBLIC "-//W3C//DTD SVG 1.1//EN" "http://www.w3.org/Graphics/SVG/1.1/DTD/svg11.dtd">
<svg version="1.1" xmlns="http://www.w3.org/2000/svg" xmlns:xlink="http://www.w3.org/1999/xlink" x="0px" y="0px"
	 viewBox="0 0 40 40" enable-background="new 0 0 40 40" xml:space="preserve">
<g id="Health__x26__Nutrition">
	<g id="Coffee_4_">
	</g>
	<g id="Donut_5_">
	</g>
	<g id="Bodum_5_">
	</g>
	<g id="Kettle_7_">
	</g>
	<g id="Wine_6_">
	</g>
	<g id="Cigarette_5_">
	</g>
	<g id="No_Smoking_8_">
	</g>
	<g id="Medicine_Bottle_12_">
	</g>
	<g id="Pill_Bottle_8_">
		<g>
			<g id="Pill_Bottle">
				<g>
					<path fill-rule="evenodd" clip-rule="evenodd" fill="#C0392B" d="M26.5,13.3V10h-13v3.3c-2.3,0.8-4,3-4,5.7v13.5
						c0,0.8,0.7,1.5,1.5,1.5h18c0.8,0,1.5-0.7,1.5-1.5l0-13.5C30.5,16.4,28.8,14.2,26.5,13.3z"/>
				</g>
			</g>
			<g id="Pill_Bottle_1_">
				<g>
					<polygon fill-rule="evenodd" clip-rule="evenodd" fill="#ECF0F1" points="25.5,27 25.5,25 23.5,25 23.5,27 21.5,27 21.5,29 
						23.5,29 23.5,31 25.5,31 25.5,29 27.5,29 27.5,27 					"/>
				</g>
			</g>
			<g id="Pill_Bottle_2_">
				<g>
					<rect x="12.5" y="6" fill-rule="evenodd" clip-rule="evenodd" fill="#E74C3C" width="15" height="4"/>
				</g>
			</g>
			<g id="Pill_Bottle_3_">
				<g>
					<path fill-rule="evenodd" clip-rule="evenodd" fill="#C0392B" d="M15.5,10h1V6h-1V10z M23.5,6v4h1V6H23.5z M19.5,10h1V6h-1V10z
						"/>
				</g>
			</g>
		</g>
	</g>
	<g id="Aid">
	</g>
	<g id="Activity_1_">
	</g>
	<g id="Germs_3_">
	</g>
	<g id="Germ_3_">
	</g>
</g>
<g id="Lockup">
</g>
</svg>
