<?xml version="1.0" encoding="utf-8"?>
<!-- Generator: Adobe Illustrator 18.0.0, SVG Export Plug-In . SVG Version: 6.00 Build 0)  -->
<!DOCTYPE svg PUBLIC "-//W3C//DTD SVG 1.1//EN" "http://www.w3.org/Graphics/SVG/1.1/DTD/svg11.dtd">
<svg version="1.1" xmlns="http://www.w3.org/2000/svg" xmlns:xlink="http://www.w3.org/1999/xlink" x="0px" y="0px"
	 viewBox="0 0 40 40" enable-background="new 0 0 40 40" xml:space="preserve">
<g id="Health__x26__Nutrition">
	<g id="Coffee_4_">
	</g>
	<g id="Donut_5_">
	</g>
	<g id="Bodum_5_">
	</g>
	<g id="Kettle_7_">
	</g>
	<g id="Wine_6_">
		<g>
			<g id="Wine">
				<g>
					<rect x="25.5" y="4" fill-rule="evenodd" clip-rule="evenodd" fill="#9B59B6" width="5" height="9"/>
				</g>
			</g>
			<g id="Wine_1_">
				<g>
					<path fill-rule="evenodd" clip-rule="evenodd" fill="#ECF0F1" d="M16.1,35h-2.6v-8h-2v8H8.9c-0.3,0-0.5,0.2-0.5,0.5
						c0,0.3,0.2,0.5,0.5,0.5h7.2c0.3,0,0.5-0.2,0.5-0.5C16.6,35.2,16.4,35,16.1,35z M7.7,15l-1.2,8h12l-1.2-8H7.7z M30.5,12h-5
						c-1.9,1.1-3,3.1-3,5.5V22h11v-4.5C33.5,15.1,32.4,13.1,30.5,12z"/>
				</g>
			</g>
			<g id="Wine_2_">
				<g>
					<path fill-rule="evenodd" clip-rule="evenodd" fill="#8E44AD" d="M12.5,28.3c2.9,0,6-1.3,6-5.3h-12C6.5,27,9.6,28.3,12.5,28.3z
						 M22.5,29v7h11v-7H22.5z"/>
				</g>
			</g>
			<g id="Wine_3_">
				<g>
					<rect x="22.5" y="21" fill-rule="evenodd" clip-rule="evenodd" fill="#9B59B6" width="11" height="9"/>
				</g>
			</g>
			<g id="Wine_4_">
				<g>
					<path fill-rule="evenodd" clip-rule="evenodd" fill="#BDC3C7" d="M27.4,13.3c-0.1-0.2-0.4-0.3-0.7-0.2c-2,0.8-3.2,2.4-3.2,4.5
						c0,0.3,0.2,0.5,0.5,0.5c0.3,0,0.5-0.2,0.5-0.5c0-1.7,0.9-3,2.6-3.6C27.4,13.8,27.6,13.5,27.4,13.3z"/>
				</g>
			</g>
		</g>
	</g>
	<g id="Cigarette_5_">
	</g>
	<g id="No_Smoking_8_">
	</g>
	<g id="Medicine_Bottle_12_">
	</g>
	<g id="Pill_Bottle_8_">
	</g>
	<g id="Aid">
	</g>
	<g id="Activity_1_">
	</g>
	<g id="Germs_3_">
	</g>
	<g id="Germ_3_">
	</g>
</g>
<g id="Lockup">
</g>
</svg>
