<?xml version="1.0" encoding="utf-8"?>
<!-- Generator: Adobe Illustrator 18.0.0, SVG Export Plug-In . SVG Version: 6.00 Build 0)  -->
<!DOCTYPE svg PUBLIC "-//W3C//DTD SVG 1.1//EN" "http://www.w3.org/Graphics/SVG/1.1/DTD/svg11.dtd">
<svg version="1.1" xmlns="http://www.w3.org/2000/svg" xmlns:xlink="http://www.w3.org/1999/xlink" x="0px" y="0px"
	 viewBox="0 0 40 40" enable-background="new 0 0 40 40" xml:space="preserve">
<g id="Outdoors">
	<g id="TNT_5_">
	</g>
	<g id="Bicycle_14_">
	</g>
	<g id="Globe_3_">
	</g>
	<g id="Direction_1_">
	</g>
	<g id="Pin_4_">
	</g>
	<g id="Location_2_">
	</g>
	<g id="Map_5_">
	</g>
	<g id="Cloud_2_">
	</g>
	<g id="Wind_3_">
	</g>
	<g id="Cloudy">
		<g>
			<g id="Cloudy_3_">
				<g>
					<path fill-rule="evenodd" clip-rule="evenodd" fill="#BDC3C7" d="M14.9,14.7c0-0.1,0-0.2,0-0.3c0-1.9-1.5-3.4-3.4-3.4
						c-1.3,0-2.4,0.8-3,1.9c-0.3-0.2-0.6-0.3-0.9-0.3c-0.9,0-1.6,0.7-1.6,1.6c0,0.2,0,0.4,0.1,0.6c0,0-0.1,0-0.1,0
						c-1.2,0-2.1,1-2.1,2.1C4,18.1,4.9,19,6.1,19h8.6c0,0,0,0,0.1,0c0,0,0.1,0,0.1,0c1.2,0,2.1-1,2.1-2.1
						C17,15.7,16.1,14.7,14.9,14.7z"/>
				</g>
			</g>
			<g id="Cloudy_2_">
				<g>
					<path fill-rule="evenodd" clip-rule="evenodd" fill="#BDC3C7" d="M33.1,15.1c0,0-0.1,0-0.1,0c0.1-0.3,0.2-0.5,0.2-0.8
						c0-1.2-1-2.2-2.2-2.2c-0.5,0-0.9,0.1-1.2,0.4C28.9,11,27.4,10,25.6,10c-2.6,0-4.7,2.1-4.7,4.7c0,0.1,0,0.3,0,0.4
						c-1.6,0-2.9,1.3-2.9,2.9c0,1.6,1.3,2.9,2.9,2.9c0.1,0,0.1,0,0.2,0c0,0,0.1,0,0.1,0h11.9c1.6,0,2.9-1.3,2.9-2.9
						C36,16.5,34.7,15.1,33.1,15.1z"/>
				</g>
			</g>
			<g id="Cloudy_1_">
				<g>
					<path fill-rule="evenodd" clip-rule="evenodd" fill="#ECF0F1" d="M29,20.9c0-0.2,0-0.4,0-0.7c0-4.1-3.2-7.4-7.2-7.4
						c-2.8,0-5.2,1.6-6.4,4c-0.5-0.4-1.2-0.6-1.9-0.6c-1.8,0-3.3,1.5-3.3,3.4c0,0.4,0.1,0.9,0.2,1.3c-0.1,0-0.1,0-0.2,0
						c-2.5,0-4.5,2-4.5,4.6c0,2.5,2,4.6,4.5,4.6h18.4c0.1,0,0.1,0,0.1,0c0.1,0,0.2,0,0.3,0c2.5,0,4.5-2,4.5-4.6
						C33.5,22.9,31.5,20.9,29,20.9z"/>
				</g>
			</g>
		</g>
	</g>
	<g id="Partly_Cloudy_2_">
	</g>
	<g id="Storm">
	</g>
	<g id="Snow_3_">
	</g>
	<g id="Rain_3_">
	</g>
	<g id="Radar_8_">
	</g>
	<g id="Helmet_04">
	</g>
	<g id="Helmet_03">
	</g>
	<g id="Helmet_02">
	</g>
	<g id="Helmet_01">
	</g>
	<g id="Rocket_6_">
	</g>
	<g id="Compass_3_">
	</g>
	<g id="Hatchet_5_">
	</g>
	<g id="Wigwam_6_">
	</g>
	<g id="Lifesaver">
	</g>
	<g id="Umbrella_4_">
	</g>
	<g id="Drops_4_">
	</g>
	<g id="Snowflake_10_">
	</g>
	<g id="Tree_Alt_3_">
	</g>
	<g id="Tree_3_">
	</g>
	<g id="Current_2_">
	</g>
	<g id="Electricity_2_">
	</g>
	<g id="Fire">
	</g>
	<g id="Moon_2_">
	</g>
	<g id="Sun_4_">
	</g>
</g>
<g id="Lockup">
</g>
</svg>
