<?xml version="1.0" encoding="utf-8"?>
<!-- Generator: Adobe Illustrator 18.0.0, SVG Export Plug-In . SVG Version: 6.00 Build 0)  -->
<!DOCTYPE svg PUBLIC "-//W3C//DTD SVG 1.1//EN" "http://www.w3.org/Graphics/SVG/1.1/DTD/svg11.dtd">
<svg version="1.1" xmlns="http://www.w3.org/2000/svg" xmlns:xlink="http://www.w3.org/1999/xlink" x="0px" y="0px"
	 viewBox="0 0 40 40" enable-background="new 0 0 40 40" xml:space="preserve">
<g id="Outdoors">
	<g id="TNT_5_">
	</g>
	<g id="Bicycle_14_">
	</g>
	<g id="Globe_3_">
	</g>
	<g id="Direction_1_">
	</g>
	<g id="Pin_4_">
	</g>
	<g id="Location_2_">
	</g>
	<g id="Map_5_">
	</g>
	<g id="Cloud_2_">
	</g>
	<g id="Wind_3_">
	</g>
	<g id="Cloudy">
	</g>
	<g id="Partly_Cloudy_2_">
	</g>
	<g id="Storm">
	</g>
	<g id="Snow_3_">
	</g>
	<g id="Rain_3_">
	</g>
	<g id="Radar_8_">
	</g>
	<g id="Helmet_04">
	</g>
	<g id="Helmet_03">
	</g>
	<g id="Helmet_02">
	</g>
	<g id="Helmet_01">
	</g>
	<g id="Rocket_6_">
	</g>
	<g id="Compass_3_">
		<polyline fill="#302E2E" points="18.5,19.5 26.3,16.7 23.5,24.5 		"/>
		<polyline fill="#302E2E" points="23.5,24.5 15.7,27.3 18.5,19.5 		"/>
		<g>
			<g id="Compass">
				<g>
					<circle fill-rule="evenodd" clip-rule="evenodd" fill="#E74C3C" cx="20" cy="20" r="12.5"/>
				</g>
			</g>
			<g id="Compass_1_">
				<g>
					<path fill-rule="evenodd" clip-rule="evenodd" fill="#F1C40F" d="M17.5,17.5l1.8,1.8c0.2-0.2,0.4-0.3,0.7-0.3c0.6,0,1,0.4,1,1
						c0,0.3-0.1,0.5-0.3,0.7l1.8,1.8l2.8-7.8L17.5,17.5z M19,20c0,0.6,0.4,1,1,1c0.3,0,0.5-0.1,0.7-0.3l-1.4-1.4
						C19.1,19.5,19,19.7,19,20z"/>
				</g>
			</g>
		</g>
		<polyline fill="#ECF0F1" points="22.5,22.5 14.7,25.3 17.5,17.5 		"/>
		<circle fill="#302E2E" cx="20" cy="20" r="1"/>
	</g>
	<g id="Hatchet_5_">
	</g>
	<g id="Wigwam_6_">
	</g>
	<g id="Lifesaver">
	</g>
	<g id="Umbrella_4_">
	</g>
	<g id="Drops_4_">
	</g>
	<g id="Snowflake_10_">
	</g>
	<g id="Tree_Alt_3_">
	</g>
	<g id="Tree_3_">
	</g>
	<g id="Current_2_">
	</g>
	<g id="Electricity_2_">
	</g>
	<g id="Fire">
	</g>
	<g id="Moon_2_">
	</g>
	<g id="Sun_4_">
	</g>
</g>
<g id="Lockup">
</g>
</svg>
