<?xml version="1.0" encoding="utf-8"?>
<!-- Generator: Adobe Illustrator 18.0.0, SVG Export Plug-In . SVG Version: 6.00 Build 0)  -->
<!DOCTYPE svg PUBLIC "-//W3C//DTD SVG 1.1//EN" "http://www.w3.org/Graphics/SVG/1.1/DTD/svg11.dtd">
<svg version="1.1" xmlns="http://www.w3.org/2000/svg" xmlns:xlink="http://www.w3.org/1999/xlink" x="0px" y="0px"
	 viewBox="0 0 40 40" enable-background="new 0 0 40 40" xml:space="preserve">
<g id="Outdoors">
	<g>
		<g id="Fire_1_">
			<g>
				<path fill-rule="evenodd" clip-rule="evenodd" fill="#F39C12" d="M28.7,11.6c-2.5,0.9-4.2,2.1-5.1,4.5c1.2-5-1.8-9.5-7.4-11.6
					c1.8,2.9,1.3,5.4-1.8,7.8c-3,2.3-3.9,6.1-2.3,9.7c-1.9-1.7-2.6-3.7-2-6.1c-1.7,1.9-2,3.8-2,5.2c0,8.3,6.7,10.4,9,10.4l4.9-0.1
					c1,0,8-0.4,8-8.3C30,18.4,26.1,18,28.7,11.6z"/>
			</g>
		</g>
	</g>
	<g id="TNT_5_">
	</g>
	<g id="Bicycle_14_">
	</g>
	<g id="Globe_3_">
	</g>
	<g id="Direction_1_">
	</g>
	<g id="Pin_4_">
	</g>
	<g id="Location_2_">
	</g>
	<g id="Map_5_">
	</g>
	<g id="Cloud_2_">
	</g>
	<g id="Wind_3_">
	</g>
	<g id="Cloudy">
	</g>
	<g id="Partly_Cloudy_2_">
	</g>
	<g id="Storm">
	</g>
	<g id="Snow_3_">
	</g>
	<g id="Rain_3_">
	</g>
	<g id="Radar_8_">
	</g>
	<g id="Helmet_04">
	</g>
	<g id="Helmet_03">
	</g>
	<g id="Helmet_02">
	</g>
	<g id="Helmet_01">
	</g>
	<g id="Rocket_6_">
	</g>
	<g id="Compass_3_">
	</g>
	<g id="Hatchet_5_">
	</g>
	<g id="Wigwam_6_">
	</g>
	<g id="Lifesaver">
	</g>
	<g id="Umbrella_4_">
	</g>
	<g id="Drops_4_">
	</g>
	<g id="Snowflake_10_">
	</g>
	<g id="Tree_Alt_3_">
	</g>
	<g id="Tree_3_">
	</g>
	<g id="Current_2_">
	</g>
	<g id="Electricity_2_">
	</g>
	<g id="Fire">
	</g>
	<g>
		<path fill="#E67E22" d="M15.4,13.3c3.1-2.4,3.7-4.9,1.8-7.8C18.9,6.1,20.4,7,21.5,8c-1.3-1.5-3.1-2.7-5.3-3.5
			c1.8,2.9,1.3,5.4-1.8,7.8c-2.9,2.3-3.9,5.9-2.4,9.5c0.3,0.4,0.7,0.8,1.1,1.2C11.4,19.4,12.4,15.6,15.4,13.3z"/>
	</g>
	<path fill-rule="evenodd" clip-rule="evenodd" fill="#E74C3C" d="M25.6,20.4c-1.5,0.6-3,1.3-3.5,2.7c0.7-3-1.1-5.8-4.5-7
		c3.5,6.6-8,6.3-0.6,15.4l4.9-0.1C26.8,26.8,22,24.2,25.6,20.4z"/>
	<g>
		<path fill="#C0392B" d="M18.9,16.6c-0.4-0.2-0.8-0.4-1.3-0.6c3.5,6.6-8,6.3-0.6,15.4l1,0C10.8,22.7,21.4,22.7,18.9,16.6z"/>
	</g>
	<g id="Moon_2_">
	</g>
	<g id="Sun_4_">
	</g>
	<rect x="8" y="29" fill-rule="evenodd" clip-rule="evenodd" fill="#A46D4E" width="23" height="6"/>
	<rect x="8" y="32" fill-rule="evenodd" clip-rule="evenodd" fill="#845640" width="23" height="3"/>
</g>
<g id="Lockup">
</g>
</svg>
