<?xml version="1.0" encoding="utf-8"?>
<!-- Generator: Adobe Illustrator 18.0.0, SVG Export Plug-In . SVG Version: 6.00 Build 0)  -->
<!DOCTYPE svg PUBLIC "-//W3C//DTD SVG 1.1//EN" "http://www.w3.org/Graphics/SVG/1.1/DTD/svg11.dtd">
<svg version="1.1" xmlns="http://www.w3.org/2000/svg" xmlns:xlink="http://www.w3.org/1999/xlink" x="0px" y="0px"
	 viewBox="0 0 40 40" enable-background="new 0 0 40 40" xml:space="preserve">
<g id="Outdoors">
	<g id="TNT_5_">
	</g>
	<g id="Bicycle_14_">
	</g>
	<g id="Globe_3_">
		<g id="Globe_1_">
			<g>
				<path fill-rule="evenodd" clip-rule="evenodd" fill="#F1C40F" d="M27.3,6.8c-0.4-0.4-1-0.4-1.4,0c-0.4,0.4-0.4,1,0,1.4
					c2,2,3.1,4.6,3.1,7.3c0,5.7-4.8,10.4-10.6,10.4c-2.8,0-5.5-1.1-7.5-3c-0.4-0.4-1-0.4-1.4,0c-0.4,0.4-0.4,1,0,1.4
					c2.2,2.2,5.1,3.4,8.2,3.6v1.7h2v-1.8C26,27.2,31,22,31,15.6C31,12.3,29.7,9.2,27.3,6.8z"/>
			</g>
		</g>
	</g>
	<g id="Direction_1_">
	</g>
	<g id="Pin_4_">
	</g>
	<g id="Location_2_">
	</g>
	<g id="Map_5_">
	</g>
	<g id="Cloud_2_">
	</g>
	<g id="Wind_3_">
	</g>
	<g id="Cloudy">
	</g>
	<g id="Partly_Cloudy_2_">
	</g>
	<g id="Storm">
	</g>
	<g id="Snow_3_">
	</g>
	<g id="Rain_3_">
	</g>
	<g id="Radar_8_">
	</g>
	<g id="Helmet_04">
	</g>
	<g id="Helmet_03">
	</g>
	<g id="Helmet_02">
	</g>
	<g id="Helmet_01">
	</g>
	<g id="Rocket_6_">
	</g>
	<g id="Compass_3_">
	</g>
	<g id="Hatchet_5_">
	</g>
	<g id="Wigwam_6_">
	</g>
	<g id="Lifesaver">
	</g>
	<g id="Umbrella_4_">
	</g>
	<g id="Drops_4_">
	</g>
	<g id="Snowflake_10_">
	</g>
	<g id="Tree_Alt_3_">
	</g>
	<g id="Tree_3_">
	</g>
	<g id="Current_2_">
	</g>
	<g id="Electricity_2_">
	</g>
	<g id="Fire">
	</g>
	<g id="Moon_2_">
	</g>
	<g id="Sun_4_">
	</g>
	<path fill="#F39C12" d="M12,35c0-3.3,2.9-6,6.5-6s6.5,2.7,6.5,6"/>
</g>
<g id="Lockup">
	<path fill="#3498D8" d="M23.7,9.3c-3.1-3.1-8.2-3.1-11.3,0c-3.1,3.1-3.1,8.2,0,11.3c3.1,3.1,8.2,3.1,11.3,0
		C26.8,17.5,26.8,12.5,23.7,9.3z"/>
	<path id="_x3C_Path_x3E__25_" fill="#2ECC71" d="M12.5,15.4c-0.2,0.2-0.6,0.5-0.6,0.5l-0.5,0.6c0,0,0,0.1,0,0.1c0,0,0,0,0,0.1
		c0,0,0,0,0,0c0,0,0,0.1,0,0.1l0.6,0.2c0,0,0-0.4,0.1-0.3c0,0,0.1,0,0.1,0l0.1-0.3l0.4,0.1l1.3-0.2c0.1,0,0.1-0.3,0.2-0.2
		c0.1,0,0.2,0,0.2,0c0,0,0,0,0,0c0,0,0.2,0,0.1,0c0,0,0.2,0.1,0.2,0.1c0,0,0.2-0.1,0.2,0c0.1-0.1,0.5-0.6,0.7-0.5
		c0,0,0.6-0.2,0.7-0.4c0,0,0,0,0,0c0,0,0,0,0,0c-0.1-0.1,0-0.1,0,0c-0.1-0.1-0.4-1.2-0.4-1.2c0-0.1,0-0.1,0-0.1c0,0,0.1-0.3,0.2-0.3
		c0-0.1,0-0.4-0.2-0.5l-0.3-1l-0.1-0.4l-0.6-0.2c0.1-0.1-0.2-0.2-0.2-0.2c-0.1-0.1,0.1-0.3,0.1-0.4c0,0,0.4-0.4,0.2-0.4
		c0,0-0.3-0.2-0.2-0.2l0.5-0.2c0,0,0.1,0,0.1,0c0,0,0-0.2,0-0.1c-0.3-0.3-0.4,0.1-0.7-0.2c-0.1-0.1-0.1-0.6,0.1-0.5
		c0-0.1,0.5-0.2,0.5-0.2L16,9.9c0,0,0.1,0.3,0,0.2c-0.1,0-0.1,0.3-0.1,0.3c0,0,0,0,0,0c0,0,0.6-0.6,0.9-0.4l1.4,0
		c0.1,0,0.2,0.1,0.3,0.1c0,0,0,0,0,0c0,0,0.1,0.1,0.1,0.1c-0.2-0.1-0.2,0.1-0.1,0.1l1.2,0.1c0,0,0.2,0,0.2,0c0,0,0-0.1,0-0.1
		c0.1,0.1-0.1-0.2,0-0.3c0,0,0,0,0,0c0.1,0,0.3-0.3,0.2-0.3c0,0,0,0,0,0c-0.1-0.1-0.2,0-0.3-0.2c0.1,0,0.1,0,0.2-0.1
		c0-0.1,0-0.2-0.1-0.3c0,0,0,0,0,0c-0.1,0-0.1-0.2-0.2-0.2c0,0-0.2,0-0.1,0c0,0-0.1,0-0.1,0c0,0,0,0.1,0,0.1c-0.1,0-0.1,0-0.2,0
		c0.1,0.2-0.2,0.2-0.3,0.1c-0.2,0-0.1,0-0.3,0c-0.1,0-0.1,0-0.2,0c-0.1,0.1,0-0.4,0-0.1c0.1,0,0-0.1,0-0.1c0,0,0.1,0,0.2-0.1
		c0,0-0.1-0.1-0.1-0.1c0,0,0,0,0,0c0,0,0,0,0,0l0,0c0-0.1-0.1-0.3-0.1-0.3c0,0,0,0,0,0c0,0.1-0.1-0.1-0.1-0.1c0,0,0.1-0.1,0.1-0.1
		c0,0,0,0,0,0c-0.3,0-1.1,0-1.1,0c-1.2,0.1-2.4,0.5-3.4,1.2c0.1,0.1,0.1,0.3,0.1,0.3c0.2,0.2,0.3,0.5,0.3,0.8c0.1,0,0,0.3,0,0.3
		c-0.1,0-0.1,0.2,0,0.1c0,0,0,0.2,0,0.3l0.1,0.2c0,0,0.1-0.1,0.2-0.1c0,0,0.1,0.2,0,0.1c-0.1,0-0.1,0.3-0.1,0.3
		C14.4,12,14.4,12,14.3,12c0,0-0.1,0-0.1,0c0,0-0.1,0.1-0.1,0.1c0,0-0.2,0-0.2,0c0,0-0.2,0.2-0.2,0.2c0.1,0,0,0,0.1,0
		c-0.1,0,0,0.1,0,0c-0.1,0.1-0.2,0-0.3,0.2c0,0,0,0.1,0,0.1c0,0-0.1,0.2,0,0.2c-0.2,0.3-0.1,0.7-0.3,0.9c0,0,0.1,0.1,0,0
		c0-0.1,0.3,0.5,0.2,0.6C13.3,14.4,12.7,15.2,12.5,15.4z"/>
	<path id="_x3C_Path_x3E__24_" fill="#2ECC71" d="M23.2,19.2c1.1-1.4,1.6-3.1,1.4-4.8c-0.1-0.1-0.2-0.1-0.3-0.2c0,0-0.1,0.1-0.1,0.1
		c0.1-0.2,0.2,0.3,0,0.1c0-0.1-0.1-0.1-0.1-0.1c0,0-0.3,0.1-0.3,0.1s-0.3-0.2-0.3-0.2c0,0,0-0.1,0,0l0.6-0.1c0.1-0.1,0-0.2,0.1-0.2
		c0,0,0,0,0,0c0,0,0.1,0,0.1,0c0,0,0.1,0,0.1,0c0-0.2-0.1-0.4-0.1-0.5c-0.2,0-0.4,0.1-0.5,0c-0.3-0.2-0.6,0.3-0.1,0.4
		c0,0-0.1,0.3-0.1,0.3c0,0-0.2,0-0.2-0.1c0,0,0.1,0,0.1,0c0,0,0-0.1,0.1-0.1c-0.2-0.2-0.3,0.1-0.4,0.2c0,0-0.1,0-0.1-0.1
		c0,0-0.1-0.1-0.1-0.1l-0.6-0.1c0,0,0,0.1-0.1,0.1c-0.3-0.3-0.1-0.1-0.2,0c0,0,0,0,0.1,0c0,0-0.1,0.2-0.1,0.2c0,0-0.2,0.1-0.2,0.1
		c-0.1,0-0.2-0.2-0.3-0.3c-0.2-0.2-0.3,0-0.5,0.1c-0.1,0.1,0,0.1-0.1,0.2c0.1,0,0.2,0.2,0.1,0.3c0,0.1-0.3,0-0.4,0
		c0,0-0.1,0.1-0.1,0c0,0-0.1,0-0.1,0c0,0-0.2,0.1-0.2,0.1c0,0-0.1,0,0,0c0,0-1.2,0-1.1,0.2c0.1,0-0.2,0.3-0.3,0.4
		c-0.1,0.1-0.5,0.5-0.3,0.6c0,0.2-0.2,0.5,0.1,0.8c0.2,0.1,0.8,0.5,0.8,0.7c-0.1,0.2,0.3,0.2,0.1,0.4c-0.1,0.1-0.2,0.2-0.2,0.2
		c-0.2,0.1-0.1,0.2-0.2,0.3c0.1,0-0.3,1-0.6,0.9c-0.2-0.2-0.7,1.1-0.8,1c0,0-0.1,0.4-0.1,0.4c0,0.1,0.1,0.7,0.2,0.8
		c0.3,0.2,0.7,0,0.7,0s0.6-0.1,0.8-0.2c0.1-0.1,0.5-0.2,0.5-0.2l0.7-0.4l0.3-0.3l0.5-0.1l0.6,0c0,0,0.3-0.1,0.5-0.1
		c0.1-0.1,0.1-0.2,0.2-0.2L23.2,19.2z M18.4,19.6L18.4,19.6L18.4,19.6z"/>
</g>
</svg>
