<?xml version="1.0" encoding="utf-8"?>
<!-- Generator: Adobe Illustrator 18.0.0, SVG Export Plug-In . SVG Version: 6.00 Build 0)  -->
<!DOCTYPE svg PUBLIC "-//W3C//DTD SVG 1.1//EN" "http://www.w3.org/Graphics/SVG/1.1/DTD/svg11.dtd">
<svg version="1.1" xmlns="http://www.w3.org/2000/svg" xmlns:xlink="http://www.w3.org/1999/xlink" x="0px" y="0px"
	 viewBox="0 0 40 40" enable-background="new 0 0 40 40" xml:space="preserve">
<g id="Outdoors">
	<g id="TNT_5_">
	</g>
	<g id="Bicycle_14_">
	</g>
	<g id="Globe_3_">
	</g>
	<g id="Direction_1_">
	</g>
	<g id="Pin_4_">
	</g>
	<g id="Location_2_">
	</g>
	<g id="Map_5_">
	</g>
	<g id="Cloud_2_">
	</g>
	<g id="Wind_3_">
	</g>
	<g id="Cloudy">
	</g>
	<g id="Partly_Cloudy_2_">
	</g>
	<g id="Storm">
	</g>
	<g id="Snow_3_">
	</g>
	<g id="Rain_3_">
	</g>
	<g id="Radar_8_">
	</g>
	<g id="Helmet_04">
	</g>
	<g id="Helmet_03">
	</g>
	<g id="Helmet_02">
	</g>
	<g id="Helmet_01">
	</g>
	<g id="Rocket_6_">
	</g>
	<g id="Compass_3_">
	</g>
	<g id="Hatchet_5_">
		<g id="Hatchet">
			<g>
				<path fill-rule="evenodd" clip-rule="evenodd" fill="#ECF0F1" d="M18.3,13.6l-9.2,9.2l3.5,3.5l9.2-9.2L18.3,13.6z M7.7,24.2
					l3.5,3.5l0.7-0.7l-3.5-3.5L7.7,24.2z"/>
			</g>
		</g>
		<g id="Hatchet_1_">
			<g>
				<path fill-rule="evenodd" clip-rule="evenodd" fill="#E74C3C" d="M9.1,22.8l-0.7,0.7l3.5,3.5l0.7-0.7L9.1,22.8z M7,24.9l3.5,3.5
					l0.7-0.7l-3.5-3.5L7,24.9z"/>
			</g>
		</g>
		<g id="Hatchet_2_">
			<g>
				<polygon fill-rule="evenodd" clip-rule="evenodd" fill="#211F1F" points="22.8,8.6 17.4,13.8 20.4,19.7 27.3,13.3 				"/>
			</g>
		</g>
		<g id="Hatchet_3_">
			<g>
				<polygon fill-rule="evenodd" clip-rule="evenodd" fill="#302E2E" points="22.6,6.6 18.3,10.8 27.6,26.3 36.6,18.3 				"/>
			</g>
		</g>
		<path fill="#1ABC9C" d="M8.4,33.4c-2.3-0.5-4.5-2.7-5-4.9L7,24.9l3.5,3.5L8.4,33.4L8.4,33.4z"/>
		<g>
			<path opacity="0.2" fill="#211F1F" d="M5.4,29.5L9,25.9l0.7-0.7l0.7-0.7l0.7-0.7l8.7-8.7l-1.5-1.5l-9.2,9.2l-0.7,0.7l-0.7,0.7
				L7,24.9l-3.6,3.6c0.4,2.1,2.4,4.2,4.6,4.8C6.7,32.4,5.7,30.9,5.4,29.5z"/>
		</g>
	</g>
	<g id="Wigwam_6_">
	</g>
	<g id="Lifesaver">
	</g>
	<g id="Umbrella_4_">
	</g>
	<g id="Drops_4_">
	</g>
	<g id="Snowflake_10_">
	</g>
	<g id="Tree_Alt_3_">
	</g>
	<g id="Tree_3_">
	</g>
	<g id="Current_2_">
	</g>
	<g id="Electricity_2_">
	</g>
	<g id="Fire">
	</g>
	<g id="Moon_2_">
	</g>
	<g id="Sun_4_">
	</g>
</g>
<g id="Lockup">
</g>
</svg>
