<?xml version="1.0" encoding="utf-8"?>
<!-- Generator: Adobe Illustrator 18.0.0, SVG Export Plug-In . SVG Version: 6.00 Build 0)  -->
<!DOCTYPE svg PUBLIC "-//W3C//DTD SVG 1.1//EN" "http://www.w3.org/Graphics/SVG/1.1/DTD/svg11.dtd">
<svg version="1.1" xmlns="http://www.w3.org/2000/svg" xmlns:xlink="http://www.w3.org/1999/xlink" x="0px" y="0px"
	 viewBox="0 0 40 40" enable-background="new 0 0 40 40" xml:space="preserve">
<g id="Outdoors">
	<g id="TNT_5_">
	</g>
	<g id="Bicycle_14_">
	</g>
	<g id="Globe_3_">
	</g>
	<g id="Direction_1_">
	</g>
	<g id="Pin_4_">
	</g>
	<g id="Location_2_">
	</g>
	<g id="Map_5_">
	</g>
	<g id="Cloud_2_">
	</g>
	<g id="Wind_3_">
	</g>
	<g id="Cloudy">
	</g>
	<g id="Partly_Cloudy_2_">
	</g>
	<g id="Storm">
	</g>
	<g id="Snow_3_">
	</g>
	<g id="Rain_3_">
	</g>
	<g id="Radar_8_">
	</g>
	<g id="Helmet_04">
	</g>
	<g id="Helmet_03">
	</g>
	<g id="Helmet_02">
		<g id="Astronaut_Alt">
			<g>
				<path fill-rule="evenodd" clip-rule="evenodd" fill="#BDC3C7" d="M34,16.8l-1-0.6c-0.1,0-0.2-0.1-0.3-0.1C31.3,10.3,26.2,6,20,6
					C13.8,6,8.7,10.3,7.3,16.1C6,16.4,5,17.6,5,19c0,1.4,1,2.6,2.3,2.9c0.5,2,1.4,3.8,2.7,5.4V30c0,0,2,4,10,4c8,0,10-4,10-4v-2.7
					c1.3-1.5,2.2-3.4,2.7-5.4C34,21.6,35,20.4,35,19C35,18.1,34.6,17.3,34,16.8z"/>
			</g>
		</g>
		<g id="Astronaut_Alt_8_">
			<g>
				<path fill-rule="evenodd" clip-rule="evenodd" fill="#302E2E" d="M34,9.2h-1v7.8c0,0,0.1,0.3,0.4,0.5c0.3,0.1,0.6,0.1,0.6,0.1
					L34,9.2z"/>
			</g>
		</g>
		<g id="Astronaut_Alt_1_">
			<g>
				<path fill-rule="evenodd" clip-rule="evenodd" fill="#ECF0F1" d="M31.1,16.1c-1.3-5-5.8-8.6-11.1-8.6c-5.4,0-9.9,3.7-11.1,8.6
					C8.6,17.1,8.5,18,8.5,19c0,1,0.1,1.9,0.4,2.9c0.5,2,1.5,3.7,2.9,5.1c2.1,2.2,5,3.5,8.2,3.5c3.2,0,6.2-1.3,8.2-3.5
					c1.4-1.4,2.4-3.2,2.9-5.1c0.2-0.9,0.4-1.9,0.4-2.9C31.5,18,31.4,17.1,31.1,16.1z"/>
			</g>
		</g>
		<g id="Astronaut_Alt_2_">
			<g>
				<path fill-rule="evenodd" clip-rule="evenodd" fill="#302E2E" d="M20,10c-5,0-9,4-9,9c0,0.9,0.1,1.7,0.4,2.5
					c2-1.7,5.4-3.7,10.1-3.7c-4.5,1.8-7.3,4.5-8.8,6.4C14.3,26.5,17,28,20,28c5,0,9-4,9-9C29,14,25,10,20,10z"/>
			</g>
		</g>
		<g id="Astronaut_9_">
			<g>
				<circle fill-rule="evenodd" clip-rule="evenodd" fill="#E74C3C" cx="34" cy="9" r="2"/>
			</g>
		</g>
		<g>
			<path fill="#C0392B" d="M33,8c0-0.3,0.1-0.6,0.2-0.8C32.5,7.5,32,8.2,32,9c0,1.1,0.9,2,2,2c0.8,0,1.5-0.5,1.8-1.2
				C35.6,9.9,35.3,10,35,10C33.9,10,33,9.1,33,8z"/>
		</g>
	</g>
	<g id="Helmet_01">
	</g>
	<g id="Rocket_6_">
	</g>
	<g id="Compass_3_">
	</g>
	<g id="Hatchet_5_">
	</g>
	<g id="Wigwam_6_">
	</g>
	<g id="Lifesaver">
	</g>
	<g id="Umbrella_4_">
	</g>
	<g id="Drops_4_">
	</g>
	<g id="Snowflake_10_">
	</g>
	<g id="Tree_Alt_3_">
	</g>
	<g id="Tree_3_">
	</g>
	<g id="Current_2_">
	</g>
	<g id="Electricity_2_">
	</g>
	<g id="Fire">
	</g>
	<g id="Moon_2_">
	</g>
	<g id="Sun_4_">
	</g>
</g>
<g id="Lockup">
</g>
</svg>
