<?xml version="1.0" encoding="utf-8"?>
<!-- Generator: Adobe Illustrator 18.0.0, SVG Export Plug-In . SVG Version: 6.00 Build 0)  -->
<!DOCTYPE svg PUBLIC "-//W3C//DTD SVG 1.1//EN" "http://www.w3.org/Graphics/SVG/1.1/DTD/svg11.dtd">
<svg version="1.1" xmlns="http://www.w3.org/2000/svg" xmlns:xlink="http://www.w3.org/1999/xlink" x="0px" y="0px"
	 viewBox="0 0 40 40" enable-background="new 0 0 40 40" xml:space="preserve">
<g id="Outdoors">
	<g id="TNT_5_">
	</g>
	<g id="Bicycle_14_">
	</g>
	<g id="Globe_3_">
	</g>
	<g id="Direction_1_">
	</g>
	<g id="Pin_4_">
	</g>
	<g id="Location_2_">
	</g>
	<g id="Map_5_">
	</g>
	<g id="Cloud_2_">
	</g>
	<g id="Wind_3_">
	</g>
	<g id="Cloudy">
	</g>
	<g id="Partly_Cloudy_2_">
	</g>
	<g id="Storm">
	</g>
	<g id="Snow_3_">
	</g>
	<g id="Rain_3_">
	</g>
	<g id="Radar_8_">
	</g>
	<g id="Helmet_04">
		<g>
			<g id="Cosmonaut_Alt">
				<g>
					<path fill-rule="evenodd" clip-rule="evenodd" fill="#9B59B6" d="M31.4,16.6C30.9,10.7,26,6,20,6c-5.7,0-10.4,4.2-11.2,9.8
						c-0.2,0.8-0.3,1.7-0.3,2.5v3.4c0.4,0.5,0.9,1,1.6,1.5l2.8,1.6c1.9,0.8,4.4,1.4,7.7,1.4c6.6,0,9.6-2.3,10.9-4l0-3.8
						C31.5,17.7,31.5,17.1,31.4,16.6z"/>
				</g>
			</g>
			<path id="Cosmonaut_Alt_7_" fill="#ECF0F1" d="M10.1,23.2c1.2-1.7,4.4-5.4,10.4-6.2c-5.1,2.9-7,6-7.7,7.8L10.1,23.2z"/>
			<g id="Cosmonaut_Alt_1_">
				<g>
					<path fill-rule="evenodd" clip-rule="evenodd" fill="#8E44AD" d="M20.5,25.1c-7.2,0-10.6-2.7-12-4.5v7.6l0.1,0.2
						C8.7,28.7,11,34,20.4,34c9.5,0,11-5.4,11.1-5.7l0-7.2C30.2,22.9,27.2,25.1,20.5,25.1z"/>
				</g>
			</g>
			<g id="Cosmonaut_Alt_2_">
				<g>
					<path fill-rule="evenodd" clip-rule="evenodd" fill="#F1C40F" d="M16,28.6c-0.6,0-1,0.5-1,1c0,0.6,0.5,1,1,1s1-0.5,1-1
						C17.1,29.1,16.6,28.6,16,28.6z M20,27.6c-1.1,0-2,0.9-2,2.1c0,1.1,0.9,2.1,2,2.1c1.1,0,2-0.9,2-2.1
						C22.1,28.5,21.2,27.6,20,27.6z M24,28.6c-0.6,0-1,0.5-1,1c0,0.6,0.5,1,1,1c0.6,0,1-0.5,1-1C25.1,29.1,24.6,28.6,24,28.6z"/>
				</g>
			</g>
		</g>
	</g>
	<g id="Helmet_03">
	</g>
	<g id="Helmet_02">
	</g>
	<g id="Helmet_01">
	</g>
	<g id="Rocket_6_">
	</g>
	<g id="Compass_3_">
	</g>
	<g id="Hatchet_5_">
	</g>
	<g id="Wigwam_6_">
	</g>
	<g id="Lifesaver">
	</g>
	<g id="Umbrella_4_">
	</g>
	<g id="Drops_4_">
	</g>
	<g id="Snowflake_10_">
	</g>
	<g id="Tree_Alt_3_">
	</g>
	<g id="Tree_3_">
	</g>
	<g id="Current_2_">
	</g>
	<g id="Electricity_2_">
	</g>
	<g id="Fire">
	</g>
	<g id="Moon_2_">
	</g>
	<g id="Sun_4_">
	</g>
</g>
<g id="Lockup">
</g>
</svg>
