<?xml version="1.0" encoding="utf-8"?>
<!-- Generator: Adobe Illustrator 18.0.0, SVG Export Plug-In . SVG Version: 6.00 Build 0)  -->
<!DOCTYPE svg PUBLIC "-//W3C//DTD SVG 1.1//EN" "http://www.w3.org/Graphics/SVG/1.1/DTD/svg11.dtd">
<svg version="1.1" xmlns="http://www.w3.org/2000/svg" xmlns:xlink="http://www.w3.org/1999/xlink" x="0px" y="0px"
	 viewBox="0 0 40 40" enable-background="new 0 0 40 40" xml:space="preserve">
<g id="Outdoors">
	<g id="TNT_5_">
	</g>
	<g id="Bicycle_14_">
	</g>
	<g id="Globe_3_">
	</g>
	<g id="Direction_1_">
	</g>
	<g id="Pin_4_">
	</g>
	<g id="Location_2_">
	</g>
	<g id="Map_5_">
	</g>
	<g id="Cloud_2_">
	</g>
	<g id="Wind_3_">
	</g>
	<g id="Cloudy">
	</g>
	<g id="Partly_Cloudy_2_">
	</g>
	<g id="Storm">
	</g>
	<g id="Snow_3_">
	</g>
	<g id="Rain_3_">
	</g>
	<g id="Radar_8_">
	</g>
	<g id="Helmet_04">
	</g>
	<g id="Helmet_03">
		<g>
			<g id="Cosmonaut">
				<g>
					<path fill-rule="evenodd" clip-rule="evenodd" fill="#302E2E" d="M31.4,16.5C30.8,10.6,26,6,20,6c-5.7,0-10.4,4.3-11.3,9.8
						c-0.2,0.8-0.3,1.6-0.3,2.4v10l0.1,0.2C8.7,28.7,11,34,20.4,34c9.5,0,11-5.4,11.1-5.7l0-10C31.5,17.6,31.5,17.1,31.4,16.5z"/>
				</g>
			</g>
			<g id="Cosmonaut_1_">
				<g>
					<path fill-rule="evenodd" clip-rule="evenodd" fill="#E74C3C" d="M20,31.7c0.9,0,1.7-0.6,1.9-1.5h-3.9
						C18.3,31.1,19.1,31.7,20,31.7z M20,27.6c-1,0-1.8,0.7-2,1.6h4C21.8,28.3,21,27.6,20,27.6z"/>
				</g>
			</g>
			<g id="Cosmonaut_2_">
				<g>
					<path fill-rule="evenodd" clip-rule="evenodd" fill="#ECF0F1" d="M20.4,10.1c-9.7,0-10.9,4.9-10.9,8.2v3.4
						c2,3,5.9,4.4,10.5,4.4c4.6,0,8.5-1.3,10.5-4.3v-3.5C30.5,15.8,30.1,10.1,20.4,10.1z"/>
				</g>
			</g>
			<g id="Cosmonaut_3_">
				<g>
					<path fill-rule="evenodd" clip-rule="evenodd" fill="#BDC3C7" d="M20.3,11.9c-7.5,0-8.8,3.8-8.8,6.4v2.7
						c0.2,0.3,0.5,0.6,0.8,0.9c1.1-1.7,3.8-4.9,9.7-4.9c-4.5,1.8-6.5,4.4-7.4,6.4c1.6,0.7,3.4,1,5.4,1c3.6,0,6.7-1,8.5-3.3v-2.7
						C28.5,16.3,27.9,11.9,20.3,11.9z"/>
				</g>
			</g>
		</g>
	</g>
	<g id="Helmet_02">
	</g>
	<g id="Helmet_01">
	</g>
	<g id="Rocket_6_">
	</g>
	<g id="Compass_3_">
	</g>
	<g id="Hatchet_5_">
	</g>
	<g id="Wigwam_6_">
	</g>
	<g id="Lifesaver">
	</g>
	<g id="Umbrella_4_">
	</g>
	<g id="Drops_4_">
	</g>
	<g id="Snowflake_10_">
	</g>
	<g id="Tree_Alt_3_">
	</g>
	<g id="Tree_3_">
	</g>
	<g id="Current_2_">
	</g>
	<g id="Electricity_2_">
	</g>
	<g id="Fire">
	</g>
	<g id="Moon_2_">
	</g>
	<g id="Sun_4_">
	</g>
</g>
<g id="Lockup">
</g>
</svg>
