<?xml version="1.0" encoding="utf-8"?>
<!-- Generator: Adobe Illustrator 18.0.0, SVG Export Plug-In . SVG Version: 6.00 Build 0)  -->
<!DOCTYPE svg PUBLIC "-//W3C//DTD SVG 1.1//EN" "http://www.w3.org/Graphics/SVG/1.1/DTD/svg11.dtd">
<svg version="1.1" xmlns="http://www.w3.org/2000/svg" xmlns:xlink="http://www.w3.org/1999/xlink" x="0px" y="0px"
	 viewBox="0 0 40 40" enable-background="new 0 0 40 40" xml:space="preserve">
<g id="Outdoors">
	<path fill="#ECF0F1" d="M31.2,24.4c1.2-3.1,1-6.3-0.2-9.1c-1.2-2.7-3.4-5.1-6.4-6.3l0,0c-3.1-1.3-6.5-1.2-9.4,0.1
		c-2.8,1.2-5.1,3.4-6.3,6.4c0,0.1-0.1,0.2-0.1,0.3c-1.2,3.1-1,6.3,0.2,9.2c1.2,2.7,3.4,5,6.4,6.3l0,0c3.1,1.3,6.5,1.2,9.4-0.1
		c2.7-1.2,5-3.4,6.3-6.4C31.1,24.5,31.1,24.4,31.2,24.4z M17.7,25.5L17.7,25.5c-1.5-0.6-2.6-1.8-3.2-3.1c-0.6-1.4-0.7-3-0.1-4.6
		c0,0,0-0.1,0-0.1c0.6-1.5,1.8-2.6,3.2-3.2c1.4-0.6,3.1-0.7,4.7,0c0,0,0,0,0,0c1.5,0.6,2.6,1.8,3.2,3.2c0.6,1.4,0.7,3,0.1,4.6
		c0,0,0,0.1,0,0.1c-0.6,1.5-1.8,2.6-3.1,3.2C21,26.1,19.3,26.2,17.7,25.5z"/>
	<g id="TNT_5_">
	</g>
	<g id="Bicycle_14_">
	</g>
	<g id="Globe_3_">
	</g>
	<g id="Direction_1_">
	</g>
	<g id="Pin_4_">
	</g>
	<g id="Location_2_">
	</g>
	<g id="Map_5_">
	</g>
	<g id="Cloud_2_">
	</g>
	<g id="Wind_3_">
	</g>
	<g id="Cloudy">
	</g>
	<g id="Partly_Cloudy_2_">
	</g>
	<g id="Storm">
	</g>
	<g id="Snow_3_">
	</g>
	<g id="Rain_3_">
	</g>
	<g id="Radar_8_">
	</g>
	<g id="Helmet_04">
	</g>
	<g id="Helmet_03">
	</g>
	<g id="Helmet_02">
	</g>
	<g id="Helmet_01">
	</g>
	<g id="Rocket_6_">
	</g>
	<g id="Compass_3_">
	</g>
	<g id="Hatchet_5_">
	</g>
	<g id="Wigwam_6_">
	</g>
	<g id="Lifesaver">
		<path fill="#E74C3C" d="M31.2,24.4l-5.6-2.2c0,0,0,0.1,0,0.1c-0.6,1.5-1.8,2.6-3.1,3.2l2.4,5.5c2.7-1.2,5-3.4,6.3-6.4
			C31.1,24.5,31.1,24.4,31.2,24.4z"/>
		<path fill="#E74C3C" d="M17.7,25.5c-1.5-0.6-2.6-1.8-3.2-3.1L9,24.8c1.2,2.7,3.4,5,6.4,6.3l0,0L17.7,25.5L17.7,25.5z"/>
		<path fill="#E74C3C" d="M14.5,17.7c0.6-1.5,1.8-2.6,3.2-3.2L15.2,9c-2.8,1.2-5.1,3.4-6.3,6.4c0,0.1-0.1,0.2-0.1,0.3l5.6,2.2
			C14.4,17.8,14.4,17.7,14.5,17.7z"/>
		<path fill="#E74C3C" d="M25.5,17.6l5.5-2.4c-1.2-2.7-3.4-5.1-6.4-6.3l-2.3,5.5C23.8,15.1,24.9,16.2,25.5,17.6z"/>
	</g>
	<g id="Umbrella_4_">
	</g>
	<g id="Drops_4_">
	</g>
	<g id="Snowflake_10_">
	</g>
	<g id="Tree_Alt_3_">
	</g>
	<g id="Tree_3_">
	</g>
	<g id="Current_2_">
	</g>
	<g id="Electricity_2_">
	</g>
	<g id="Fire">
	</g>
	<g id="Moon_2_">
	</g>
	<g id="Sun_4_">
	</g>
	<g opacity="0.2">
		<path fill="#302E2E" d="M31.2,22.4c0,0.1-0.1,0.2-0.1,0.3c-1.2,3-3.5,5.2-6.3,6.4c-2.9,1.3-6.3,1.4-9.4,0.1h0
			c-3-1.2-5.2-3.5-6.4-6.3c-0.5-1.2-0.8-2.5-1-3.8c-0.2,2,0.2,4,1,5.8c1.2,2.7,3.4,5,6.4,6.3h0c3.1,1.3,6.5,1.2,9.4-0.1
			c2.7-1.2,5-3.4,6.3-6.4c0-0.1,0.1-0.2,0.1-0.3c0.7-1.7,0.9-3.6,0.8-5.3C31.8,20.2,31.6,21.3,31.2,22.4z"/>
	</g>
</g>
<g id="Lockup">
</g>
</svg>
