<?xml version="1.0" encoding="utf-8"?>
<!-- Generator: Adobe Illustrator 18.0.0, SVG Export Plug-In . SVG Version: 6.00 Build 0)  -->
<!DOCTYPE svg PUBLIC "-//W3C//DTD SVG 1.1//EN" "http://www.w3.org/Graphics/SVG/1.1/DTD/svg11.dtd">
<svg version="1.1" xmlns="http://www.w3.org/2000/svg" xmlns:xlink="http://www.w3.org/1999/xlink" x="0px" y="0px"
	 viewBox="0 0 40 40" enable-background="new 0 0 40 40" xml:space="preserve">
<g id="Outdoors">
	<g id="TNT_5_">
	</g>
	<g id="Bicycle_14_">
	</g>
	<g id="Globe_3_">
	</g>
	<g id="Direction_1_">
	</g>
	<g id="Pin_4_">
	</g>
	<g id="Location_2_">
	</g>
	<g id="Map_5_">
		<g id="Map">
			<g>
				<polygon fill-rule="evenodd" clip-rule="evenodd" fill="#ECF0F1" points="33,24 7,24 1,34 39,34 				"/>
			</g>
		</g>
		<g id="Map_1_">
			<g>
				<polygon fill-rule="evenodd" clip-rule="evenodd" fill="#2ECC71" points="5.9,25.9 1,34 32,34 				"/>
			</g>
		</g>
		<polyline fill-rule="evenodd" clip-rule="evenodd" fill="#3498D8" points="39,34 33,24 7,24 		"/>
		<g id="Map_3_">
			<g>
				<path fill-rule="evenodd" clip-rule="evenodd" fill="#E74C3C" d="M20,7c-3.9,0-7,2.8-7,6.3c0,0.9,0.5,2.2,0.5,2.2
					c1.9,4.3,6.3,13.3,6.3,13.3C19.9,29,19.9,29,20,29s0.1-0.1,0.2-0.2c0,0,4.5-9,6.3-13.3c0,0,0.5-1.3,0.5-2.2C27,9.8,23.9,7,20,7z
					 M20,16c-1.1,0-2-0.9-2-2c0-1.1,0.9-2,2-2c1.1,0,2,0.9,2,2C22,15.1,21.1,16,20,16z"/>
			</g>
		</g>
	</g>
	<g id="Cloud_2_">
	</g>
	<g id="Wind_3_">
	</g>
	<g id="Cloudy">
	</g>
	<g id="Partly_Cloudy_2_">
	</g>
	<g id="Storm">
	</g>
	<g id="Snow_3_">
	</g>
	<g id="Rain_3_">
	</g>
	<g id="Radar_8_">
	</g>
	<g id="Helmet_04">
	</g>
	<g id="Helmet_03">
	</g>
	<g id="Helmet_02">
	</g>
	<g id="Helmet_01">
	</g>
	<g id="Rocket_6_">
	</g>
	<g id="Compass_3_">
	</g>
	<g id="Hatchet_5_">
	</g>
	<g id="Wigwam_6_">
	</g>
	<g id="Lifesaver">
	</g>
	<g id="Umbrella_4_">
	</g>
	<g id="Drops_4_">
	</g>
	<g id="Snowflake_10_">
	</g>
	<g id="Tree_Alt_3_">
	</g>
	<g id="Tree_3_">
	</g>
	<g id="Current_2_">
	</g>
	<g id="Electricity_2_">
	</g>
	<g id="Fire">
	</g>
	<g id="Moon_2_">
	</g>
	<g id="Sun_4_">
	</g>
</g>
<g id="Lockup">
</g>
</svg>
