<?xml version="1.0" encoding="utf-8"?>
<!-- Generator: Adobe Illustrator 18.0.0, SVG Export Plug-In . SVG Version: 6.00 Build 0)  -->
<!DOCTYPE svg PUBLIC "-//W3C//DTD SVG 1.1//EN" "http://www.w3.org/Graphics/SVG/1.1/DTD/svg11.dtd">
<svg version="1.1" xmlns="http://www.w3.org/2000/svg" xmlns:xlink="http://www.w3.org/1999/xlink" x="0px" y="0px"
	 viewBox="0 0 40 40" enable-background="new 0 0 40 40" xml:space="preserve">
<g id="Outdoors">
	<g id="TNT_5_">
	</g>
	<g id="Bicycle_14_">
	</g>
	<g id="Globe_3_">
	</g>
	<g id="Direction_1_">
	</g>
	<g id="Pin_4_">
	</g>
	<g id="Location_2_">
	</g>
	<g id="Map_5_">
	</g>
	<g id="Cloud_2_">
	</g>
	<g id="Wind_3_">
	</g>
	<g id="Cloudy">
	</g>
	<g id="Partly_Cloudy_2_">
		<g>
			<g id="Partly_Cloudy_3_">
				<g>
					<path fill-rule="evenodd" clip-rule="evenodd" fill="#F1C40F" d="M19.9,13.2c-1.5-2.1-4.5-2.6-6.6-1.1l-0.3,0.2
						c-2.1,1.5-2.6,4.5-1.1,6.6l0.2,0.3c1.5,2.1,4.5,2.6,6.6,1.1l0.3-0.2c2.1-1.5,2.6-4.5,1.1-6.6L19.9,13.2z M16,10.3
						c0.6,0,1-0.4,1-1v-2c0-0.6-0.4-1-1-1s-1,0.4-1,1v2C15,9.8,15.4,10.3,16,10.3z M9,15.3H7c-0.6,0-1,0.4-1,1s0.4,1,1,1h2
						c0.6,0,1-0.4,1-1S9.6,15.3,9,15.3z M23.1,9.2c-0.4-0.4-1-0.4-1.4,0l-1.4,1.4c-0.4,0.4-0.4,1,0,1.4c0.4,0.4,1,0.4,1.4,0l1.4-1.4
						C23.5,10.2,23.5,9.6,23.1,9.2z M11.2,11L9.8,9.5c-0.4-0.4-1-0.4-1.4,0c-0.4,0.4-0.4,1,0,1.4l1.4,1.4c0.4,0.4,1,0.4,1.4,0
						S11.6,11.4,11.2,11z"/>
				</g>
			</g>
			<g id="Partly_Cloudy">
				<g>
					<path fill-rule="evenodd" clip-rule="evenodd" fill="#ECF0F1" d="M30.5,23.6c0-0.2,0-0.5,0-0.7c0-4.5-3.6-8.1-8.1-8.1
						c-3.1,0-5.8,1.8-7.2,4.4c-0.6-0.4-1.3-0.7-2.1-0.7c-2.1,0-3.7,1.7-3.7,3.8c0,0.5,0.1,1,0.3,1.4c-0.1,0-0.2,0-0.2,0
						c-2.8,0-5,2.3-5,5s2.2,5,5,5H30c0.1,0,0.1,0,0.2,0c0.1,0,0.2,0,0.3,0c2.8,0,5-2.3,5-5C35.5,25.9,33.3,23.6,30.5,23.6z"/>
				</g>
			</g>
		</g>
	</g>
	<g id="Storm">
	</g>
	<g id="Snow_3_">
	</g>
	<g id="Rain_3_">
	</g>
	<g id="Radar_8_">
	</g>
	<g id="Helmet_04">
	</g>
	<g id="Helmet_03">
	</g>
	<g id="Helmet_02">
	</g>
	<g id="Helmet_01">
	</g>
	<g id="Rocket_6_">
	</g>
	<g id="Compass_3_">
	</g>
	<g id="Hatchet_5_">
	</g>
	<g id="Wigwam_6_">
	</g>
	<g id="Lifesaver">
	</g>
	<g id="Umbrella_4_">
	</g>
	<g id="Drops_4_">
	</g>
	<g id="Snowflake_10_">
	</g>
	<g id="Tree_Alt_3_">
	</g>
	<g id="Tree_3_">
	</g>
	<g id="Current_2_">
	</g>
	<g id="Electricity_2_">
	</g>
	<g id="Fire">
	</g>
	<g id="Moon_2_">
	</g>
	<g id="Sun_4_">
	</g>
</g>
<g id="Lockup">
</g>
</svg>
