<?xml version="1.0" encoding="utf-8"?>
<!-- Generator: Adobe Illustrator 18.0.0, SVG Export Plug-In . SVG Version: 6.00 Build 0)  -->
<!DOCTYPE svg PUBLIC "-//W3C//DTD SVG 1.1//EN" "http://www.w3.org/Graphics/SVG/1.1/DTD/svg11.dtd">
<svg version="1.1" xmlns="http://www.w3.org/2000/svg" xmlns:xlink="http://www.w3.org/1999/xlink" x="0px" y="0px"
	 viewBox="0 0 40 40" enable-background="new 0 0 40 40" xml:space="preserve">
<g id="Outdoors">
	<g id="TNT_5_">
	</g>
	<g id="Bicycle_14_">
	</g>
	<g id="Globe_3_">
	</g>
	<g id="Direction_1_">
	</g>
	<g id="Pin_4_">
	</g>
	<g id="Location_2_">
	</g>
	<g id="Map_5_">
	</g>
	<g id="Cloud_2_">
	</g>
	<g id="Wind_3_">
	</g>
	<g id="Cloudy">
	</g>
	<g id="Partly_Cloudy_2_">
	</g>
	<g id="Storm">
	</g>
	<g id="Snow_3_">
	</g>
	<g id="Rain_3_">
	</g>
	<g id="Radar_8_">
		<g>
			<g id="Radar">
				<g>
					<path fill-rule="evenodd" clip-rule="evenodd" fill="#95A5A6" d="M20,6C12.3,6,6,12.3,6,20c0,7.7,6.3,14,14,14
						c7.7,0,14-6.3,14-14C34,12.3,27.7,6,20,6z"/>
				</g>
			</g>
			<g id="Radar_1_">
				<g>
					<circle fill-rule="evenodd" clip-rule="evenodd" fill="#302E2E" cx="20" cy="20" r="12"/>
				</g>
			</g>
			<g id="Radar_2_">
				<g>
					<path fill-rule="evenodd" clip-rule="evenodd" fill="#211F1F" d="M20,11c-5,0-9,4-9,9c0,5,4,9,9,9c5,0,9-4,9-9
						C29,15,25,11,20,11z M20,24c-2.2,0-4-1.8-4-4c0-2.2,1.8-4,4-4c2.2,0,4,1.8,4,4C24,22.2,22.2,24,20,24z"/>
				</g>
			</g>
			<g id="Radar_3_">
				<g>
					<circle fill-rule="evenodd" clip-rule="evenodd" fill="#E74C3C" cx="15.5" cy="12.5" r="1.5"/>
				</g>
			</g>
			<g id="Radar_4_">
				<g>
					<circle fill-rule="evenodd" clip-rule="evenodd" fill="#E74C3C" cx="26.5" cy="23.5" r="1.5"/>
				</g>
			</g>
			<g id="Radar_5_">
				<g>
					<circle fill-rule="evenodd" clip-rule="evenodd" fill="#E74C3C" cx="15.5" cy="19.5" r="1.5"/>
				</g>
			</g>
			<g id="Radar_6_">
				<g>
					<path fill-rule="evenodd" clip-rule="evenodd" fill="#F1C40F" d="M27,12.9c-0.7-0.7-1.6-1.3-2.4-1.8l-5.4,8.2l1.5,1.5l8.2-5.4
						C28.3,14.4,27.7,13.6,27,12.9z"/>
				</g>
			</g>
		</g>
	</g>
	<g id="Helmet_04">
	</g>
	<g id="Helmet_03">
	</g>
	<g id="Helmet_02">
	</g>
	<g id="Helmet_01">
	</g>
	<g id="Rocket_6_">
	</g>
	<g id="Compass_3_">
	</g>
	<g id="Hatchet_5_">
	</g>
	<g id="Wigwam_6_">
	</g>
	<g id="Lifesaver">
	</g>
	<g id="Umbrella_4_">
	</g>
	<g id="Drops_4_">
	</g>
	<g id="Snowflake_10_">
	</g>
	<g id="Tree_Alt_3_">
	</g>
	<g id="Tree_3_">
	</g>
	<g id="Current_2_">
	</g>
	<g id="Electricity_2_">
	</g>
	<g id="Fire">
	</g>
	<g id="Moon_2_">
	</g>
	<g id="Sun_4_">
	</g>
</g>
<g id="Lockup">
</g>
</svg>
