<?xml version="1.0" encoding="utf-8"?>
<!-- Generator: Adobe Illustrator 18.0.0, SVG Export Plug-In . SVG Version: 6.00 Build 0)  -->
<!DOCTYPE svg PUBLIC "-//W3C//DTD SVG 1.1//EN" "http://www.w3.org/Graphics/SVG/1.1/DTD/svg11.dtd">
<svg version="1.1" xmlns="http://www.w3.org/2000/svg" xmlns:xlink="http://www.w3.org/1999/xlink" x="0px" y="0px"
	 viewBox="0 0 40 40" enable-background="new 0 0 40 40" xml:space="preserve">
<g id="Outdoors">
	<g id="TNT_5_">
	</g>
	<g id="Bicycle_14_">
	</g>
	<g id="Globe_3_">
	</g>
	<g id="Direction_1_">
	</g>
	<g id="Pin_4_">
	</g>
	<g id="Location_2_">
	</g>
	<g id="Map_5_">
	</g>
	<g id="Cloud_2_">
	</g>
	<g id="Wind_3_">
	</g>
	<g id="Cloudy">
	</g>
	<g id="Partly_Cloudy_2_">
	</g>
	<g id="Storm">
	</g>
	<g id="Snow_3_">
	</g>
	<g id="Rain_3_">
	</g>
	<g id="Radar_8_">
	</g>
	<g id="Helmet_04">
	</g>
	<g id="Helmet_03">
	</g>
	<g id="Helmet_02">
	</g>
	<g id="Helmet_01">
	</g>
	<g id="Rocket_6_">
		<g id="Rocket">
			<g>
				<polygon fill-rule="evenodd" clip-rule="evenodd" fill="#F1C40F" points="20.6,23.6 21.1,24.8 18.5,29.5 19.2,30.2 24.9,24.5 
					24.9,21 				"/>
			</g>
		</g>
		<g id="Rocket_1_">
			<g>
				<polygon fill-rule="evenodd" clip-rule="evenodd" fill="#F1C40F" points="15,14.6 9.3,20.3 10.1,21.1 14.9,18.6 16.1,19.1 
					18.8,14.7 				"/>
			</g>
		</g>
		<g id="Rocket_2_">
			<g>
				<path fill-rule="evenodd" clip-rule="evenodd" fill="#E74C3C" d="M36.2,3.4c-0.1-0.1-3.8,0.5-5.4,1l-0.6,0.2
					c-5.1,1.8-8.8,5.9-11.6,10c-1.5,2.2-2.7,4.3-2.7,4.3c-0.2,0.4-0.5,0.8-0.7,1.2l4.2,4.2c0.4-0.2,0.8-0.5,1.2-0.7
					c0,0,2.1-1.2,4.3-2.7c4.1-2.8,8.2-6.5,10-11.6l0.2-0.6C35.7,7.2,36.2,3.4,36.2,3.4z"/>
			</g>
		</g>
		<g id="Rocket_4_">
			<g>
				
					<ellipse transform="matrix(0.7071 -0.7071 0.7071 0.7071 2.6598 24.2365)" fill-rule="evenodd" clip-rule="evenodd" fill="#302E2E" cx="30.6" cy="8.9" rx="2" ry="2"/>
			</g>
		</g>
		<path fill="#BDC3C7" d="M16.4,28.8c-0.2-0.2-0.5-0.4-0.8-0.6l1.5-1.5c0.4-0.4,0.4-1,0-1.4c-0.4-0.4-1-0.4-1.4,0l-0.8,0.8
			c-0.2-0.3-0.4-0.6-0.6-0.8c-0.2-0.2-0.5-0.4-0.8-0.6l0.8-0.8c0.4-0.4,0.4-1,0-1.4c-0.4-0.4-1-0.4-1.4,0L11.3,24
			c-0.2-0.3-0.4-0.6-0.6-0.8c-1.5-1.5-4.1-1.5-5.7,0c-1.6,1.6-1.6,4.1,0,5.7c0.8,0.8,1.7,1.1,2.8,1.2c0.2,0.4,0.4,0.7,0.7,1
			s0.6,0.5,1,0.7c0,1.1,0.4,2.1,1.2,2.8c0.8,0.8,1.8,1.2,2.8,1.2c1.1,0,2.1-0.4,2.8-1.2C17.9,32.9,17.9,30.4,16.4,28.8z"/>
	</g>
	<g id="Compass_3_">
	</g>
	<g id="Hatchet_5_">
	</g>
	<g id="Wigwam_6_">
	</g>
	<g id="Lifesaver">
	</g>
	<g id="Umbrella_4_">
	</g>
	<g id="Drops_4_">
	</g>
	<g id="Snowflake_10_">
	</g>
	<g id="Tree_Alt_3_">
	</g>
	<g id="Tree_3_">
	</g>
	<g id="Current_2_">
	</g>
	<g id="Electricity_2_">
	</g>
	<g id="Fire">
	</g>
	<g id="Moon_2_">
	</g>
	<g id="Sun_4_">
	</g>
</g>
<g id="Lockup">
</g>
</svg>
