<?xml version="1.0" encoding="utf-8"?>
<!-- Generator: Adobe Illustrator 18.0.0, SVG Export Plug-In . SVG Version: 6.00 Build 0)  -->
<!DOCTYPE svg PUBLIC "-//W3C//DTD SVG 1.1//EN" "http://www.w3.org/Graphics/SVG/1.1/DTD/svg11.dtd">
<svg version="1.1" xmlns="http://www.w3.org/2000/svg" xmlns:xlink="http://www.w3.org/1999/xlink" x="0px" y="0px"
	 viewBox="0 0 40 40" enable-background="new 0 0 40 40" xml:space="preserve">
<g id="Outdoors">
	<g id="TNT_5_">
	</g>
	<g id="Bicycle_14_">
	</g>
	<g id="Globe_3_">
	</g>
	<g id="Direction_1_">
	</g>
	<g id="Pin_4_">
	</g>
	<g id="Location_2_">
	</g>
	<g id="Map_5_">
	</g>
	<g id="Cloud_2_">
	</g>
	<g id="Wind_3_">
	</g>
	<g id="Cloudy">
	</g>
	<g id="Partly_Cloudy_2_">
	</g>
	<g id="Storm">
	</g>
	<g id="Snow_3_">
	</g>
	<g id="Rain_3_">
	</g>
	<g id="Radar_8_">
	</g>
	<g id="Helmet_04">
	</g>
	<g id="Helmet_03">
	</g>
	<g id="Helmet_02">
	</g>
	<g id="Helmet_01">
	</g>
	<g id="Rocket_6_">
	</g>
	<g id="Compass_3_">
	</g>
	<g id="Hatchet_5_">
	</g>
	<g id="Wigwam_6_">
	</g>
	<g id="Lifesaver">
	</g>
	<g id="Umbrella_4_">
	</g>
	<g id="Drops_4_">
	</g>
	<g id="Snowflake_10_">
		<g>
			<g id="Snowflake">
				<g>
					<path fill-rule="evenodd" clip-rule="evenodd" fill="#BDC3C7" d="M12.8,19l-1.9-1.9c-0.4-0.4-1-0.4-1.4,0c-0.4,0.4-0.4,1,0,1.4
						L9.9,19H8c-0.6,0-1,0.4-1,1c0,0.6,0.4,1,1,1h1.9l-0.5,0.5c-0.4,0.4-0.4,1,0,1.4c0.2,0.2,0.5,0.3,0.7,0.3c0.3,0,0.5-0.1,0.7-0.3
						l1.9-1.9h4v-2H12.8z"/>
				</g>
			</g>
			<g id="Snowflake_1_">
				<g>
					<path fill-rule="evenodd" clip-rule="evenodd" fill="#BDC3C7" d="M32,19h-1.9l0.5-0.5c0.4-0.4,0.4-1,0-1.4s-1-0.4-1.4,0
						L27.2,19h-4v2h4l1.9,1.9c0.2,0.2,0.5,0.3,0.7,0.3c0.3,0,0.5-0.1,0.7-0.3c0.4-0.4,0.4-1,0-1.4L30.1,21H32c0.6,0,1-0.4,1-1
						C33,19.4,32.6,19,32,19z"/>
				</g>
			</g>
			<g id="Snowflake_2_">
				<g>
					<path fill-rule="evenodd" clip-rule="evenodd" fill="#BDC3C7" d="M22.9,30.2L21,28.3v-5.1h-2v5.1l-1.9,1.9
						c-0.4,0.4-0.4,1,0,1.4c0.2,0.2,0.5,0.3,0.7,0.3c0.3,0,0.5-0.1,0.7-0.3l0.5-0.5V32c0,0.6,0.4,1,1,1c0.6,0,1-0.4,1-1v-0.9
						l0.5,0.5c0.2,0.2,0.5,0.3,0.7,0.3c0.3,0,0.5-0.1,0.7-0.3C23.3,31.2,23.3,30.6,22.9,30.2z"/>
				</g>
			</g>
			<g id="Snowflake_3_">
				<g>
					<path fill-rule="evenodd" clip-rule="evenodd" fill="#BDC3C7" d="M22.9,9.5c-0.4-0.4-1-0.4-1.4,0L21,9.9V8c0-0.6-0.4-1-1-1
						c-0.6,0-1,0.4-1,1v1.9l-0.5-0.5c-0.4-0.4-1-0.4-1.4,0c-0.4,0.4-0.4,1,0,1.4l1.9,1.9v4h2v-4l1.9-1.9
						C23.3,10.5,23.3,9.9,22.9,9.5z"/>
				</g>
			</g>
			<g id="Snowflake_4_">
				<g>
					<path fill-rule="evenodd" clip-rule="evenodd" fill="#ECF0F1" d="M26.9,25.5l0.4-0.4c0.4-0.4,0.4-1,0-1.4c-0.4-0.4-1-0.4-1.4,0
						L25.5,24l-2-2L22,23.4l2,2l-0.4,0.4c-0.4,0.4-0.4,1,0,1.4c0.2,0.2,0.5,0.3,0.7,0.3c0.3,0,0.5-0.1,0.7-0.3l0.4-0.4l0.1,0.1
						c0.2,0.2,0.5,0.3,0.7,0.3c0.3,0,0.5-0.1,0.7-0.3c0.4-0.4,0.4-1,0-1.4L26.9,25.5z"/>
				</g>
			</g>
			<g id="Snowflake_5_">
				<g>
					<path fill-rule="evenodd" clip-rule="evenodd" fill="#ECF0F1" d="M16.6,18l-2-2l-0.4,0.4c-0.2,0.2-0.5,0.3-0.7,0.3
						c-0.3,0-0.5-0.1-0.7-0.3c-0.4-0.4-0.4-1,0-1.4l0.4-0.4L13,14.4c-0.4-0.4-0.4-1,0-1.4c0.4-0.4,1-0.4,1.4,0l0.1,0.1l0.4-0.4
						c0.4-0.4,1-0.4,1.4,0c0.4,0.4,0.4,1,0,1.4L16,14.5l2,2L16.6,18z"/>
				</g>
			</g>
			<g id="Snowflake_6_">
				<g>
					<path fill-rule="evenodd" clip-rule="evenodd" fill="#ECF0F1" d="M27.3,14.9l-0.4-0.4l0.1-0.1c0.4-0.4,0.4-1,0-1.4
						c-0.4-0.4-1-0.4-1.4,0l-0.1,0.1l-0.4-0.4c-0.4-0.4-1-0.4-1.4,0c-0.4,0.4-0.4,1,0,1.4l0.4,0.4l-2,2l1.4,1.4l2-2l0.4,0.4
						c0.2,0.2,0.5,0.3,0.7,0.3c0.3,0,0.5-0.1,0.7-0.3C27.6,16,27.6,15.3,27.3,14.9z"/>
				</g>
			</g>
			<g id="Snowflake_7_">
				<g>
					<path fill-rule="evenodd" clip-rule="evenodd" fill="#ECF0F1" d="M16,25.5l2-2L16.6,22l-2,2l-0.4-0.4c-0.4-0.4-1-0.4-1.4,0
						c-0.4,0.4-0.4,1,0,1.4l0.4,0.4L13,25.6c-0.4,0.4-0.4,1,0,1.4c0.2,0.2,0.5,0.3,0.7,0.3c0.3,0,0.5-0.1,0.7-0.3l0.1-0.1l0.4,0.4
						c0.2,0.2,0.5,0.3,0.7,0.3s0.5-0.1,0.7-0.3c0.4-0.4,0.4-1,0-1.4L16,25.5z"/>
				</g>
			</g>
			<g id="Snowflake_8_">
				<g>
					<path fill-rule="evenodd" clip-rule="evenodd" fill="#ECF0F1" d="M20,15c-2.8,0-5,2.2-5,5c0,2.8,2.2,5,5,5s5-2.2,5-5
						C25,17.2,22.8,15,20,15z M20,23c-1.7,0-3-1.3-3-3s1.3-3,3-3c1.7,0,3,1.3,3,3S21.7,23,20,23z"/>
				</g>
			</g>
		</g>
	</g>
	<g id="Tree_Alt_3_">
	</g>
	<g id="Tree_3_">
	</g>
	<g id="Current_2_">
	</g>
	<g id="Electricity_2_">
	</g>
	<g id="Fire">
	</g>
	<g id="Moon_2_">
	</g>
	<g id="Sun_4_">
	</g>
</g>
<g id="Lockup">
</g>
</svg>
