<?xml version="1.0" encoding="utf-8"?>
<!-- Generator: Adobe Illustrator 18.0.0, SVG Export Plug-In . SVG Version: 6.00 Build 0)  -->
<!DOCTYPE svg PUBLIC "-//W3C//DTD SVG 1.1//EN" "http://www.w3.org/Graphics/SVG/1.1/DTD/svg11.dtd">
<svg version="1.1" xmlns="http://www.w3.org/2000/svg" xmlns:xlink="http://www.w3.org/1999/xlink" x="0px" y="0px"
	 viewBox="0 0 40 40" enable-background="new 0 0 40 40" xml:space="preserve">
<g id="Outdoors">
	<g id="TNT_5_">
	</g>
	<g id="Bicycle_14_">
	</g>
	<g id="Globe_3_">
	</g>
	<g id="Direction_1_">
	</g>
	<g id="Pin_4_">
	</g>
	<g id="Location_2_">
	</g>
	<g id="Map_5_">
	</g>
	<g id="Cloud_2_">
	</g>
	<g id="Wind_3_">
	</g>
	<g id="Cloudy">
	</g>
	<g id="Partly_Cloudy_2_">
	</g>
	<g id="Storm">
		<g>
			<g id="Lightning">
				<g>
					<polygon fill-rule="evenodd" clip-rule="evenodd" fill="#F1C40F" points="21.4,20 25.5,11 17.5,11 13.5,22 17,22 15.5,28 
						18.1,28 16.5,35 23.5,26 21.5,26 24.5,20 					"/>
				</g>
			</g>
			<g id="Lightning_1_">
				<g>
					<path fill-rule="evenodd" clip-rule="evenodd" fill="#ECF0F1" d="M30.5,13.9c0-0.2,0-0.5,0-0.7c0-4.5-3.6-8.1-8.1-8.1
						c-3.1,0-5.8,1.8-7.2,4.4C14.7,9,14,8.8,13.2,8.8c-2.1,0-3.7,1.7-3.7,3.8c0,0.5,0.1,1,0.3,1.4c-0.1,0-0.2,0-0.2,0
						c-2.8,0-5,2.3-5,5c0,2.8,2.2,5,5,5H30c0.1,0,0.1,0,0.2,0c0.1,0,0.2,0,0.3,0c2.8,0,5-2.3,5-5C35.5,16.1,33.3,13.9,30.5,13.9z"/>
				</g>
			</g>
		</g>
	</g>
	<g id="Snow_3_">
	</g>
	<g id="Rain_3_">
	</g>
	<g id="Radar_8_">
	</g>
	<g id="Helmet_04">
	</g>
	<g id="Helmet_03">
	</g>
	<g id="Helmet_02">
	</g>
	<g id="Helmet_01">
	</g>
	<g id="Rocket_6_">
	</g>
	<g id="Compass_3_">
	</g>
	<g id="Hatchet_5_">
	</g>
	<g id="Wigwam_6_">
	</g>
	<g id="Lifesaver">
	</g>
	<g id="Umbrella_4_">
	</g>
	<g id="Drops_4_">
	</g>
	<g id="Snowflake_10_">
	</g>
	<g id="Tree_Alt_3_">
	</g>
	<g id="Tree_3_">
	</g>
	<g id="Current_2_">
	</g>
	<g id="Electricity_2_">
	</g>
	<g id="Fire">
	</g>
	<g id="Moon_2_">
	</g>
	<g id="Sun_4_">
	</g>
</g>
<g id="Lockup">
</g>
</svg>
