<?xml version="1.0" encoding="utf-8"?>
<!-- Generator: Adobe Illustrator 18.0.0, SVG Export Plug-In . SVG Version: 6.00 Build 0)  -->
<!DOCTYPE svg PUBLIC "-//W3C//DTD SVG 1.1//EN" "http://www.w3.org/Graphics/SVG/1.1/DTD/svg11.dtd">
<svg version="1.1" xmlns="http://www.w3.org/2000/svg" xmlns:xlink="http://www.w3.org/1999/xlink" x="0px" y="0px"
	 viewBox="0 0 40 40" enable-background="new 0 0 40 40" xml:space="preserve">
<g id="Outdoors">
	<g id="TNT_5_">
		<g>
			<g id="TNT">
				<g>
					<path fill-rule="evenodd" clip-rule="evenodd" fill="#E74C3C" d="M24.7,16.3L24,15.6c-1.5-1.4-3.3-2-4-1.2c0,0,0,0.1-0.1,0.1
						l0,0c0,0-4.7,4.7-15.1,15.1c-0.6,0.6,0.2,2.3,1.8,3.9c1.6,1.6,3.3,2.4,3.9,1.8C20.8,24.9,25.7,20,25.7,20
						C26.3,19.3,25.9,17.7,24.7,16.3z"/>
				</g>
			</g>
			<g id="TNT_1_">
				<g>
					<path fill-rule="evenodd" clip-rule="evenodd" fill="#C7C7C7" d="M20,20c-1.6-1.6-2.4-3.3-1.8-3.9c0,0-0.7,0.7-1.4,1.4
						c-0.6,0.6,0.2,2.3,1.8,3.9c1.6,1.6,3.3,2.4,3.9,1.8l1.4-1.4C23.3,22.4,21.6,21.6,20,20z M21.1,24.6c0.4-0.4,0.8-0.8,1.4-1.4
						l0,0L21.1,24.6z M20.5,25.2l0.6-0.6C20.8,24.8,20.6,25,20.5,25.2z M16.6,17.7c0.1-0.1,0.1-0.1,0.2-0.2l0,0L16.6,17.7z"/>
				</g>
			</g>
			<g id="TNT_2_">
				<g>
					
						<rect x="21.1" y="14.4" transform="matrix(0.7071 -0.7071 0.7071 0.7071 -3.6883 21.9037)" fill-rule="evenodd" clip-rule="evenodd" fill="#302E2E" width="7" height="2"/>
				</g>
			</g>
			<g id="TNT_3_">
				<g>
					<path fill-rule="evenodd" clip-rule="evenodd" fill="#F1C40F" d="M35.4,10.8l-3.3-1.2l1.5-3.2l-3.2,1.5l-1.2-3.3L28,7.9
						l-3.2-1.5l1.5,3.2L23,10.8l3.3,1.2l-1.5,3.2l3.2-1.5l1.2,3.3l1.2-3.3l3.2,1.5L32.1,12L35.4,10.8z M31.1,12.8l-1.4-0.7l-0.5,1.5
						l-0.5-1.5l-1.4,0.7l0.7-1.4l-1.5-0.5l1.5-0.5l-0.7-1.4l1.4,0.7l0.5-1.5l0.5,1.5l1.4-0.7l-0.7,1.4l1.5,0.5l-1.5,0.5L31.1,12.8z"
						/>
				</g>
			</g>
		</g>
	</g>
	<g id="Bicycle_14_">
	</g>
	<g id="Globe_3_">
	</g>
	<g id="Direction_1_">
	</g>
	<g id="Pin_4_">
	</g>
	<g id="Location_2_">
	</g>
	<g id="Map_5_">
	</g>
	<g id="Cloud_2_">
	</g>
	<g id="Wind_3_">
	</g>
	<g id="Cloudy">
	</g>
	<g id="Partly_Cloudy_2_">
	</g>
	<g id="Storm">
	</g>
	<g id="Snow_3_">
	</g>
	<g id="Rain_3_">
	</g>
	<g id="Radar_8_">
	</g>
	<g id="Helmet_04">
	</g>
	<g id="Helmet_03">
	</g>
	<g id="Helmet_02">
	</g>
	<g id="Helmet_01">
	</g>
	<g id="Rocket_6_">
	</g>
	<g id="Compass_3_">
	</g>
	<g id="Hatchet_5_">
	</g>
	<g id="Wigwam_6_">
	</g>
	<g id="Lifesaver">
	</g>
	<g id="Umbrella_4_">
	</g>
	<g id="Drops_4_">
	</g>
	<g id="Snowflake_10_">
	</g>
	<g id="Tree_Alt_3_">
	</g>
	<g id="Tree_3_">
	</g>
	<g id="Current_2_">
	</g>
	<g id="Electricity_2_">
	</g>
	<g id="Fire">
	</g>
	<g id="Moon_2_">
	</g>
	<g id="Sun_4_">
	</g>
</g>
<g id="Lockup">
</g>
</svg>
