<?xml version="1.0" encoding="utf-8"?>
<!-- Generator: Adobe Illustrator 18.0.0, SVG Export Plug-In . SVG Version: 6.00 Build 0)  -->
<!DOCTYPE svg PUBLIC "-//W3C//DTD SVG 1.1//EN" "http://www.w3.org/Graphics/SVG/1.1/DTD/svg11.dtd">
<svg version="1.1" xmlns="http://www.w3.org/2000/svg" xmlns:xlink="http://www.w3.org/1999/xlink" x="0px" y="0px"
	 viewBox="0 0 40 40" enable-background="new 0 0 40 40" xml:space="preserve">
<g id="Outdoors">
	<g id="TNT_5_">
	</g>
	<g id="Bicycle_14_">
	</g>
	<g id="Globe_3_">
	</g>
	<g id="Direction_1_">
	</g>
	<g id="Pin_4_">
	</g>
	<g id="Location_2_">
	</g>
	<g id="Map_5_">
	</g>
	<g id="Cloud_2_">
	</g>
	<g id="Wind_3_">
	</g>
	<g id="Cloudy">
	</g>
	<g id="Partly_Cloudy_2_">
	</g>
	<g id="Storm">
	</g>
	<g id="Snow_3_">
	</g>
	<g id="Rain_3_">
	</g>
	<g id="Radar_8_">
	</g>
	<g id="Helmet_04">
	</g>
	<g id="Helmet_03">
	</g>
	<g id="Helmet_02">
	</g>
	<g id="Helmet_01">
	</g>
	<g id="Rocket_6_">
	</g>
	<g id="Compass_3_">
	</g>
	<g id="Hatchet_5_">
	</g>
	<g id="Wigwam_6_">
	</g>
	<g id="Lifesaver">
	</g>
	<g id="Umbrella_4_">
	</g>
	<g id="Drops_4_">
	</g>
	<g id="Snowflake_10_">
	</g>
	<g id="Tree_Alt_3_">
	</g>
	<g id="Tree_3_">
		<g id="Tree">
			<g>
				<rect x="18" y="30" fill-rule="evenodd" clip-rule="evenodd" fill="#A46D4E" width="4" height="3"/>
			</g>
		</g>
		<g id="Tree_4_">
			<g>
				<rect x="18" y="30" fill-rule="evenodd" clip-rule="evenodd" fill="#845640" width="4" height="1"/>
			</g>
		</g>
		<g id="Tree_1_">
			<g>
				<polygon fill-rule="evenodd" clip-rule="evenodd" fill="#2ECC71" points="30,30 25,24 29,24 23.4,18 27,18 22.7,13 25,13 20,7 
					15,13 17.3,13 13,18 16.6,18 11,24 15,24 10,30 				"/>
			</g>
		</g>
		<g>
			<polygon fill="#27AE60" points="14,28 19,22 15,22 20.6,16 17,16 21.3,11 19,11 20,7 15,13 17.3,13 13,18 16.6,18 11,24 15,24 
				10,30 30,30 			"/>
		</g>
	</g>
	<g id="Current_2_">
	</g>
	<g id="Electricity_2_">
	</g>
	<g id="Fire">
	</g>
	<g id="Moon_2_">
	</g>
	<g id="Sun_4_">
	</g>
</g>
<g id="Lockup">
	<rect x="10" y="33" fill="#27AE60" width="20" height="1"/>
</g>
</svg>
