<?xml version="1.0" encoding="utf-8"?>
<!-- Generator: Adobe Illustrator 18.0.0, SVG Export Plug-In . SVG Version: 6.00 Build 0)  -->
<!DOCTYPE svg PUBLIC "-//W3C//DTD SVG 1.1//EN" "http://www.w3.org/Graphics/SVG/1.1/DTD/svg11.dtd">
<svg version="1.1" xmlns="http://www.w3.org/2000/svg" xmlns:xlink="http://www.w3.org/1999/xlink" x="0px" y="0px"
	 viewBox="0 0 40 40" enable-background="new 0 0 40 40" xml:space="preserve">
<g id="Outdoors">
	<g id="TNT_5_">
	</g>
	<g id="Bicycle_14_">
	</g>
	<g id="Globe_3_">
	</g>
	<g id="Direction_1_">
	</g>
	<g id="Pin_4_">
	</g>
	<g id="Location_2_">
	</g>
	<g id="Map_5_">
	</g>
	<g id="Cloud_2_">
	</g>
	<g id="Wind_3_">
	</g>
	<g id="Cloudy">
	</g>
	<g id="Partly_Cloudy_2_">
	</g>
	<g id="Storm">
	</g>
	<g id="Snow_3_">
	</g>
	<g id="Rain_3_">
	</g>
	<g id="Radar_8_">
	</g>
	<g id="Helmet_04">
	</g>
	<g id="Helmet_03">
	</g>
	<g id="Helmet_02">
	</g>
	<g id="Helmet_01">
	</g>
	<g id="Rocket_6_">
	</g>
	<g id="Compass_3_">
	</g>
	<g id="Hatchet_5_">
	</g>
	<g id="Wigwam_6_">
	</g>
	<g id="Lifesaver">
	</g>
	<g id="Umbrella_4_">
	</g>
	<g id="Drops_4_">
	</g>
	<g id="Snowflake_10_">
	</g>
	<g id="Tree_Alt_3_">
		<rect x="18" y="26" fill-rule="evenodd" clip-rule="evenodd" fill="#A46D4E" width="3" height="7"/>
		<rect x="13" y="33" fill="#27AE60" width="13" height="1"/>
		<rect x="18" y="26" fill-rule="evenodd" clip-rule="evenodd" fill="#845640" width="3" height="1"/>
		<g id="Tree_Alt_1_">
			<g>
				<path fill-rule="evenodd" clip-rule="evenodd" fill="#2ECC71" d="M26.6,16.5c0.4-0.6,0.7-1.4,0.7-2.2c0-2-1.5-3.6-3.4-3.9
					C23.6,8.5,22,7,20,7c-2,0-3.6,1.5-3.9,3.4c-1.9,0.3-3.4,1.9-3.4,3.9c0,0.8,0.2,1.6,0.7,2.2c-1.7,0.8-2.9,2.5-2.9,4.5
					c0,2.8,2.3,5,5.1,5h8.8c2.8,0,5.1-2.3,5.1-5C29.5,19,28.3,17.3,26.6,16.5z"/>
			</g>
		</g>
		<g>
			<path fill="#27AE60" d="M13.5,21c0-2,1.2-3.7,2.9-4.5c-0.4-0.6-0.7-1.4-0.7-2.2c0-2,1.5-3.6,3.4-3.9c0.2-1.4,1.1-2.6,2.4-3.1
				C21,7.1,20.5,7,20,7c-2,0-3.6,1.5-3.9,3.4c-1.9,0.3-3.4,1.9-3.4,3.9c0,0.8,0.2,1.6,0.7,2.2c-1.7,0.8-2.9,2.5-2.9,4.5
				c0,2.8,2.3,5,5.1,5h3C15.8,26,13.5,23.7,13.5,21z"/>
		</g>
	</g>
	<g id="Tree_3_">
	</g>
	<g id="Current_2_">
	</g>
	<g id="Electricity_2_">
	</g>
	<g id="Fire">
	</g>
	<g id="Moon_2_">
	</g>
	<g id="Sun_4_">
	</g>
</g>
<g id="Lockup">
</g>
</svg>
