<?xml version="1.0" encoding="utf-8"?>
<!-- Generator: Adobe Illustrator 18.0.0, SVG Export Plug-In . SVG Version: 6.00 Build 0)  -->
<!DOCTYPE svg PUBLIC "-//W3C//DTD SVG 1.1//EN" "http://www.w3.org/Graphics/SVG/1.1/DTD/svg11.dtd">
<svg version="1.1" xmlns="http://www.w3.org/2000/svg" xmlns:xlink="http://www.w3.org/1999/xlink" x="0px" y="0px"
	 viewBox="0 0 40 40" enable-background="new 0 0 40 40" xml:space="preserve">
<g id="Outdoors">
	<g id="TNT_5_">
	</g>
	<g id="Bicycle_14_">
	</g>
	<g id="Globe_3_">
	</g>
	<g id="Direction_1_">
	</g>
	<g id="Pin_4_">
	</g>
	<g id="Location_2_">
	</g>
	<g id="Map_5_">
	</g>
	<g id="Cloud_2_">
	</g>
	<g id="Wind_3_">
	</g>
	<g id="Cloudy">
	</g>
	<g id="Partly_Cloudy_2_">
	</g>
	<g id="Storm">
	</g>
	<g id="Snow_3_">
	</g>
	<g id="Rain_3_">
	</g>
	<g id="Radar_8_">
	</g>
	<g id="Helmet_04">
	</g>
	<g id="Helmet_03">
	</g>
	<g id="Helmet_02">
	</g>
	<g id="Helmet_01">
	</g>
	<g id="Rocket_6_">
	</g>
	<g id="Compass_3_">
	</g>
	<g id="Hatchet_5_">
	</g>
	<g id="Wigwam_6_">
	</g>
	<g id="Lifesaver">
	</g>
	<g id="Umbrella_4_">
		<g id="Umbrella">
			<g>
				<path fill-rule="evenodd" clip-rule="evenodd" fill="#302E2E" d="M19,25.5v4.7c0,1.3-1.1,2.4-2.5,2.4c-1.4,0-2.5-0.9-2.5-2.2
					c0-0.5-0.4-0.9-1-0.9s-1,0.4-1,0.9c0,2.3,2,4.1,4.5,4.1c2.4,0,4.5-2,4.5-4.3v-4.7H19z"/>
			</g>
		</g>
		<g id="Umbrella_1_">
			<g>
				<rect x="19" y="17.5" fill-rule="evenodd" clip-rule="evenodd" fill="#ECF0F1" width="2" height="10.5"/>
			</g>
		</g>
		<g id="Umbrella_2_">
			<g>
				<rect x="19" y="18" fill-rule="evenodd" clip-rule="evenodd" fill="#BDC3C7" width="2" height="3"/>
			</g>
		</g>
		<path fill-rule="evenodd" clip-rule="evenodd" fill="#E74C3C" d="M21.7,6.5l-1-0.9c-0.2-0.2-1.5-0.2-1.7,0l-0.8,0.8
			C11.5,7.1,6,13.4,6,20.7c0,0.3,0.2,0.4,0.5,0.5c0,0,0,0,0,0h0c0,0,0,0,0,0c0.2,0,0.3-0.1,0.4-0.2c0.8-1.6,2.1-2.3,4-2.3
			c1.5,0,2.9,0.7,3.9,2c0.2,0.2,0.6,0.2,0.8,0c0.7-1.5,2.5-2.3,4.3-2.3c1.9,0,3.7,0.7,4.4,2.3c0.2,0.2,0.6,0.2,0.8,0
			c1-1.2,2.4-1.9,3.9-1.9c1.9,0,3.2,0.7,4,2.3c0.1,0.2,0.3,0.3,0.4,0.3h0c0.3,0,0.5-0.2,0.5-0.5C34,13.4,28.5,7.1,21.7,6.5z"/>
		<path fill-rule="evenodd" clip-rule="evenodd" fill="#C0392B" d="M20,18.2c-1.8,0-3.7,0.8-4.3,2.3c-0.2,0.2-0.6,0.2-0.8,0
			c-1-1.3-2.4-2-3.9-2c-1.9,0-3.2,0.7-4,2.3c-0.1,0.2-0.2,0.2-0.4,0.2c0,0,0,0,0,0h0c0,0,0,0,0,0C6.2,21.1,6,21,6,20.7
			c0-7.3,5.5-13.6,12.3-14.2L19,5.7c0.1-0.1,0.6-0.2,1-0.2L20,18.2z"/>
	</g>
	<g id="Drops_4_">
	</g>
	<g id="Snowflake_10_">
	</g>
	<g id="Tree_Alt_3_">
	</g>
	<g id="Tree_3_">
	</g>
	<g id="Current_2_">
	</g>
	<g id="Electricity_2_">
	</g>
	<g id="Fire">
	</g>
	<g id="Moon_2_">
	</g>
	<g id="Sun_4_">
	</g>
</g>
<g id="Lockup">
</g>
</svg>
