<?xml version="1.0" encoding="utf-8"?>
<!-- Generator: Adobe Illustrator 18.0.0, SVG Export Plug-In . SVG Version: 6.00 Build 0)  -->
<!DOCTYPE svg PUBLIC "-//W3C//DTD SVG 1.1//EN" "http://www.w3.org/Graphics/SVG/1.1/DTD/svg11.dtd">
<svg version="1.1" xmlns="http://www.w3.org/2000/svg" xmlns:xlink="http://www.w3.org/1999/xlink" x="0px" y="0px"
	 viewBox="0 0 40 40" enable-background="new 0 0 40 40" xml:space="preserve">
<g id="Outdoors">
	<g id="TNT_5_">
	</g>
	<g id="Bicycle_14_">
	</g>
	<g id="Globe_3_">
	</g>
	<g id="Direction_1_">
	</g>
	<g id="Pin_4_">
	</g>
	<g id="Location_2_">
	</g>
	<g id="Map_5_">
	</g>
	<g id="Cloud_2_">
	</g>
	<g id="Wind_3_">
	</g>
	<g id="Cloudy">
	</g>
	<g id="Partly_Cloudy_2_">
	</g>
	<g id="Storm">
	</g>
	<g id="Snow_3_">
	</g>
	<g id="Rain_3_">
	</g>
	<g id="Radar_8_">
	</g>
	<g id="Helmet_04">
	</g>
	<g id="Helmet_03">
	</g>
	<g id="Helmet_02">
	</g>
	<g id="Helmet_01">
	</g>
	<g id="Rocket_6_">
	</g>
	<g id="Compass_3_">
	</g>
	<g id="Hatchet_5_">
	</g>
	<g id="Wigwam_6_">
		<g>
			<g id="Wigwam">
				<g>
					<polygon fill-rule="evenodd" clip-rule="evenodd" fill="#C4B8B1" points="17.5,28 17.5,29 23.5,35 24.5,35 24.5,28 					"/>
				</g>
			</g>
			<g id="Wigwam_1_">
				<g>
					<polygon fill-rule="evenodd" clip-rule="evenodd" fill="#DFD1C7" points="33.5,35 21.1,10 19.3,10 6.5,35 17.5,35 17.5,29 
						23.5,29 23.5,35 					"/>
				</g>
			</g>
			<g id="Wigwam_2_">
				<g>
					<path fill-rule="evenodd" clip-rule="evenodd" fill="#A46D4E" d="M22.3,6.5c-0.3-0.1-0.5,0.1-0.6,0.4l-0.5,2V6c0-0.5-0.4-1-1-1
						c-0.5,0-1,0.4-1,1v2.9l-0.5-2c-0.1-0.3-0.3-0.4-0.6-0.4c-0.3,0.1-0.4,0.3-0.4,0.6l1,4c0.1,0.2,0.3,0.4,0.5,0.4l0.1,0
						c0,0,0,0,0,0c0.2,0.3,0.5,0.5,0.8,0.5s0.7-0.2,0.8-0.5c0,0,0,0,0,0l0.1,0c0.2,0,0.4-0.2,0.5-0.4l1-4
						C22.7,6.8,22.6,6.6,22.3,6.5z"/>
				</g>
			</g>
			<g id="Wigwam_3_">
				<g>
					<polygon fill-rule="evenodd" clip-rule="evenodd" fill="#E74C3C" points="25.9,19.7 25.6,19.9 22.9,18 20.2,20 17.5,18.1 
						14.8,20.1 14.3,19.7 13.8,20.6 14.9,21.3 17.5,19.3 20.3,21.2 22.9,19.2 25.7,21.1 26.4,20.6 					"/>
				</g>
			</g>
			<g id="Wigwam_4_">
				<g>
					<polygon fill-rule="evenodd" clip-rule="evenodd" fill="#1ABC9C" points="27.2,22.1 25.6,23.3 22.9,21.3 20.2,23.4 17.5,21.4 
						14.8,23.5 13,22.2 12.1,24 14.9,25.9 17.5,23.9 20.3,25.8 22.9,23.8 25.7,25.7 28.1,23.9 					"/>
				</g>
			</g>
		</g>
	</g>
	<g id="Lifesaver">
	</g>
	<g id="Umbrella_4_">
	</g>
	<g id="Drops_4_">
	</g>
	<g id="Snowflake_10_">
	</g>
	<g id="Tree_Alt_3_">
	</g>
	<g id="Tree_3_">
	</g>
	<g id="Current_2_">
	</g>
	<g id="Electricity_2_">
	</g>
	<g id="Fire">
	</g>
	<g id="Moon_2_">
	</g>
	<g id="Sun_4_">
	</g>
</g>
<g id="Lockup">
</g>
</svg>
