<?xml version="1.0" encoding="utf-8"?>
<!-- Generator: Adobe Illustrator 18.0.0, SVG Export Plug-In . SVG Version: 6.00 Build 0)  -->
<!DOCTYPE svg PUBLIC "-//W3C//DTD SVG 1.1//EN" "http://www.w3.org/Graphics/SVG/1.1/DTD/svg11.dtd">
<svg version="1.1" xmlns="http://www.w3.org/2000/svg" xmlns:xlink="http://www.w3.org/1999/xlink" x="0px" y="0px"
	 viewBox="0 0 40 40" enable-background="new 0 0 40 40" xml:space="preserve">
<g id="Outdoors">
	<g id="TNT_5_">
	</g>
	<g id="Bicycle_14_">
	</g>
	<g id="Globe_3_">
	</g>
	<g id="Direction_1_">
	</g>
	<g id="Pin_4_">
	</g>
	<g id="Location_2_">
	</g>
	<g id="Map_5_">
	</g>
	<g id="Cloud_2_">
	</g>
	<g id="Wind_3_">
		<g>
			<g id="Wind">
				<g>
					<path fill-rule="evenodd" clip-rule="evenodd" fill="#2980B9" d="M23.1,22.1C23.1,22.1,23.1,22.1,23.1,22.1
						C23.1,22.1,23,22.1,23.1,22.1H10.5c-1.1,0-2.1-1-2.1-2.1c0-1.2,0.9-2.1,2.1-2.1H23c0,0,0,0,0,0c0,0,0,0,0,0
						c2.2,0,3.9-1.8,3.9-3.9S25.3,10,23.1,10c-0.8,0-1.4,0.6-1.4,1.4c0,0.8,0.6,1.4,1.4,1.4c0.6,0,1.1,0.5,1.1,1.1
						c0,0.6-0.5,1.1-1.1,1.1c0,0,0,0,0,0c0,0,0,0,0,0H10.5c-2.7,0-5,2.2-5,5c0,2.8,2.2,5,5,5H23c0,0,0,0,0,0c0,0,0,0,0,0
						c0.6,0,1.1,0.5,1.1,1.1c0,0.6-0.5,1.1-1.1,1.1c-0.8,0-1.4,0.6-1.4,1.4c0,0.8,0.6,1.4,1.4,1.4c2.2,0,3.9-1.8,3.9-3.9
						C27,23.9,25.3,22.1,23.1,22.1z"/>
				</g>
			</g>
			<g id="Wind_1_">
				<g>
					<path fill-rule="evenodd" clip-rule="evenodd" fill="#3498D8" d="M30.8,14c-0.7,0-1.3,0.6-1.3,1.5c0,0.8,0.6,1.5,1.3,1.5
						c0.6,0,1,0.5,1,1.1c0,0.6-0.4,1.1-1,1.1h-2c-0.7,0-1.3,0.6-1.3,1.5c0,0.8,0.6,1.5,1.3,1.5h2c2,0,3.7-1.8,3.7-4
						C34.5,15.8,32.9,14,30.8,14z"/>
				</g>
			</g>
		</g>
	</g>
	<g id="Cloudy">
	</g>
	<g id="Partly_Cloudy_2_">
	</g>
	<g id="Storm">
	</g>
	<g id="Snow_3_">
	</g>
	<g id="Rain_3_">
	</g>
	<g id="Radar_8_">
	</g>
	<g id="Helmet_04">
	</g>
	<g id="Helmet_03">
	</g>
	<g id="Helmet_02">
	</g>
	<g id="Helmet_01">
	</g>
	<g id="Rocket_6_">
	</g>
	<g id="Compass_3_">
	</g>
	<g id="Hatchet_5_">
	</g>
	<g id="Wigwam_6_">
	</g>
	<g id="Lifesaver">
	</g>
	<g id="Umbrella_4_">
	</g>
	<g id="Drops_4_">
	</g>
	<g id="Snowflake_10_">
	</g>
	<g id="Tree_Alt_3_">
	</g>
	<g id="Tree_3_">
	</g>
	<g id="Current_2_">
	</g>
	<g id="Electricity_2_">
	</g>
	<g id="Fire">
	</g>
	<g id="Moon_2_">
	</g>
	<g id="Sun_4_">
	</g>
</g>
<g id="Lockup">
</g>
</svg>
