<?xml version="1.0" encoding="utf-8"?>
<!-- Generator: Adobe Illustrator 18.0.0, SVG Export Plug-In . SVG Version: 6.00 Build 0)  -->
<!DOCTYPE svg PUBLIC "-//W3C//DTD SVG 1.1//EN" "http://www.w3.org/Graphics/SVG/1.1/DTD/svg11.dtd">
<svg version="1.1" xmlns="http://www.w3.org/2000/svg" xmlns:xlink="http://www.w3.org/1999/xlink" x="0px" y="0px"
	 viewBox="0 0 40 40" enable-background="new 0 0 40 40" xml:space="preserve">
<g id="Web">
	<g id="Tabs_3_">
	</g>
	<g id="Male_2_">
	</g>
	<g id="Female_1_">
	</g>
	<g id="Unshare_2_">
	</g>
	<g id="Share_2_">
	</g>
	<g id="More_4_">
	</g>
	<g id="New_Window_3_">
	</g>
	<g id="Edit_5_">
	</g>
	<g id="Checked_3_">
	</g>
	<g id="Unchecked_2_">
	</g>
	<g id="Menu_Alt_1_">
	</g>
	<g id="Menu_6_">
	</g>
	<g id="Hand_Cursor_2_">
	</g>
	<g id="Type_Cursor_2_">
	</g>
	<g id="Tag_Minus_4_">
	</g>
	<g id="Tag_Plus_4_">
	</g>
	<g id="Tag_2_">
	</g>
	<g id="Options_2_">
	</g>
	<g id="List_Alt_2_">
	</g>
	<g id="List_2_">
	</g>
	<g id="Grid_Small">
	</g>
	<g id="Grid_Big">
	</g>
	<g id="Log_Out_3_">
	</g>
	<g id="Log_In_3_">
	</g>
	<g id="Upload_8_">
	</g>
	<g id="Download_8_">
	</g>
	<g id="Export_1_">
	</g>
	<g id="Import_1_">
	</g>
	<g id="Userlist">
	</g>
	<g id="User_Star">
	</g>
	<g id="User_Down">
	</g>
	<g id="User_Up">
	</g>
	<g id="User_Minus">
	</g>
	<g id="User_Plus">
	</g>
	<g id="Like_3_">
	</g>
	<g id="Dislike_3_">
	</g>
	<g id="Unlock">
	</g>
	<g id="Lock">
	</g>
	<g id="More_Windows_9_">
	</g>
	<g id="External_Link_9_">
	</g>
	<g id="Grid_System">
	</g>
	<g id="Image_5_">
	</g>
	<g id="Table_3_">
	</g>
	<g id="Embed_Close_2_">
	</g>
	<g id="Embed_2_">
	</g>
	<g id="QR_2_">
	</g>
	<g id="Translate_6_">
	</g>
	<g id="Global_7_">
	</g>
	<g id="Trash_4_">
	</g>
	<g id="Nut_3_">
	</g>
	<g id="Gauge">
	</g>
	<g id="Sliders_3_">
	</g>
	<g id="Tools">
	</g>
	<g id="Gears_3_">
	</g>
	<g id="Gear_2_">
	</g>
	<g id="Arrow_Keys">
	</g>
	<g id="Ban_2_">
	</g>
	<g id="Warning">
	</g>
	<g id="Remove_2_">
	</g>
	<g id="OK_2_">
	</g>
	<g id="Search_4_">
	</g>
	<g id="Zoom_In_5_">
	</g>
	<g id="Zoom_Out_5_">
	</g>
	<g id="Social_Network_5_">
	</g>
	<g id="Anchor_2_">
	</g>
	<g id="Link_4_">
	</g>
	<g id="Cloud_Camera_6_">
	</g>
	<g id="Cloud_Up_4_">
		<g id="Cloud_Up">
			<path fill-rule="evenodd" clip-rule="evenodd" fill="#ECF0F1" d="M30.8,15.9c0-0.2,0-0.5,0-0.7c0-4.5-3.7-8.2-8.3-8.2
				c-3.2,0-6,1.8-7.4,4.4c-0.6-0.4-1.4-0.7-2.2-0.7c-2.1,0-3.8,1.7-3.8,3.8c0,0.5,0.1,1,0.3,1.4c-0.1,0-0.2,0-0.2,0
				c-2.9,0-5.2,2.3-5.2,5.1C4,23.7,6.3,26,9.2,26c0,0,21.6,0,21.7,0c2.9,0,5.2-2.3,5.2-5.1C36,18.2,33.7,15.9,30.8,15.9z"/>
		</g>
		<g id="Cloud_Up_1_">
			<circle fill-rule="evenodd" clip-rule="evenodd" fill="#1ABC9C" cx="20.5" cy="24.5" r="8.5"/>
		</g>
		<g id="Cloud_Up_2_">
			<polygon fill-rule="evenodd" clip-rule="evenodd" fill="#FFFFFF" points="20.5,19 16,25 19,25 19,29 22,29 22,25 25,25 			"/>
		</g>
	</g>
	<g id="Cloud_Down_4_">
	</g>
	<g id="Cloud_Tunes">
	</g>
	<g id="Broadcast_4_">
	</g>
	<g id="Filter_3_">
	</g>
	<g id="Paper_Plane_3_">
	</g>
	<g id="Star_Fill_2_">
	</g>
	<g id="Star_Stroke_3_">
	</g>
	<g id="Heart_Fill_2_">
	</g>
	<g id="Heart_Stroke_1_">
	</g>
	<g id="Chat_Convo_Alt">
	</g>
	<g id="Chat_Type_Alt">
	</g>
	<g id="Chat_Alert_Alt">
	</g>
	<g id="Chat_Alt">
	</g>
	<g id="Chat_Convo">
	</g>
	<g id="Chat_Type">
	</g>
	<g id="Chat_Alert">
	</g>
	<g id="Chat">
	</g>
	<g id="Home_3_">
	</g>
</g>
<g id="Lockup">
</g>
</svg>
