<?xml version="1.0" encoding="utf-8"?>
<!-- Generator: Adobe Illustrator 18.0.0, SVG Export Plug-In . SVG Version: 6.00 Build 0)  -->
<!DOCTYPE svg PUBLIC "-//W3C//DTD SVG 1.1//EN" "http://www.w3.org/Graphics/SVG/1.1/DTD/svg11.dtd">
<svg version="1.1" xmlns="http://www.w3.org/2000/svg" xmlns:xlink="http://www.w3.org/1999/xlink" x="0px" y="0px"
	 viewBox="0 0 40 40" enable-background="new 0 0 40 40" xml:space="preserve">
<g id="Web">
	<g id="Tabs_3_">
	</g>
	<g id="Male_2_">
	</g>
	<g id="Female_1_">
	</g>
	<g id="Unshare_2_">
	</g>
	<g id="Share_2_">
	</g>
	<g id="More_4_">
	</g>
	<g id="New_Window_3_">
	</g>
	<g id="Edit_5_">
	</g>
	<g id="Checked_3_">
	</g>
	<g id="Unchecked_2_">
	</g>
	<g id="Menu_Alt_1_">
	</g>
	<g id="Menu_6_">
	</g>
	<g id="Hand_Cursor_2_">
	</g>
	<g id="Type_Cursor_2_">
	</g>
	<g id="Tag_Minus_4_">
	</g>
	<g id="Tag_Plus_4_">
	</g>
	<g id="Tag_2_">
	</g>
	<g id="Options_2_">
	</g>
	<g id="List_Alt_2_">
	</g>
	<g id="List_2_">
	</g>
	<g id="Grid_Small">
	</g>
	<g id="Grid_Big">
	</g>
	<g id="Log_Out_3_">
	</g>
	<g id="Log_In_3_">
	</g>
	<g id="Upload_8_">
	</g>
	<g id="Download_8_">
	</g>
	<g id="Export_1_">
	</g>
	<g id="Import_1_">
	</g>
	<g id="Userlist">
	</g>
	<g id="User_Star">
	</g>
	<g id="User_Down">
	</g>
	<g id="User_Up">
	</g>
	<g id="User_Minus">
	</g>
	<g id="User_Plus">
	</g>
	<g id="Like_3_">
	</g>
	<g id="Dislike_3_">
	</g>
	<g id="Unlock">
	</g>
	<g id="Lock">
	</g>
	<g id="More_Windows_9_">
	</g>
	<g id="External_Link_9_">
	</g>
	<g id="Grid_System">
	</g>
	<g id="Image_5_">
	</g>
	<g id="Table_3_">
	</g>
	<g id="Embed_Close_2_">
	</g>
	<g id="Embed_2_">
	</g>
	<g id="QR_2_">
	</g>
	<g id="Translate_6_">
	</g>
	<g id="Global_7_">
	</g>
	<g id="Trash_4_">
	</g>
	<g id="Nut_3_">
	</g>
	<g id="Gauge">
		<g id="Ellipse_1">
			<g>
				<circle fill-rule="evenodd" clip-rule="evenodd" fill="#34495E" cx="20" cy="20" r="15.5"/>
			</g>
		</g>
		<g id="Dashboard">
			<g>
				<path fill-rule="evenodd" clip-rule="evenodd" fill="#2C3E50" d="M29.5,20c0,5.2-4.3,9.5-9.5,9.5c-5.2,0-9.5-4.3-9.5-9.5h-3
					c0,6.9,5.6,12.5,12.5,12.5c6.9,0,12.5-5.6,12.5-12.5H29.5z"/>
			</g>
		</g>
		<g id="Dashboard_1_">
			<g>
				<path fill-rule="evenodd" clip-rule="evenodd" fill="#C0392B" d="M25.3,8.6L24,11.3c0.5,0.2,1,0.5,1.4,0.8l1.7-2.5
					C26.6,9.3,25.9,8.9,25.3,8.6z M20.8,10.5c0.5,0,1.1,0.1,1.6,0.3l0.8-2.9c-0.7-0.2-1.4-0.3-2.1-0.4L20.8,10.5z M28.8,11.1
					l-2.1,2.1c0.4,0.4,0.7,0.8,1.1,1.3l2.5-1.7C29.8,12.2,29.3,11.6,28.8,11.1z M31.3,14.6l-2.7,1.3c0.2,0.5,0.4,1,0.6,1.5l2.9-0.8
					C31.9,16,31.6,15.3,31.3,14.6z"/>
			</g>
		</g>
		<g id="Dashboard_2_">
			<g>
				<path fill-rule="evenodd" clip-rule="evenodd" fill="#1ABC9C" d="M7.9,16.7l2.9,0.8c0.1-0.5,0.3-1.1,0.6-1.6l-2.7-1.3
					C8.4,15.3,8.1,16,7.9,16.7z M18.9,7.5c-0.7,0.1-1.4,0.2-2.1,0.4l0.8,2.9c0.5-0.1,1.1-0.2,1.6-0.3L18.9,7.5z M9.8,12.8l2.5,1.7
					c0.3-0.5,0.7-0.9,1.1-1.3l-2.1-2.1C10.7,11.6,10.2,12.2,9.8,12.8z M12.8,9.7l1.7,2.5c0.5-0.3,0.9-0.6,1.4-0.8l-1.3-2.7
					C14.1,8.9,13.4,9.3,12.8,9.7z"/>
			</g>
		</g>
		<path fill="#1ABC9C" d="M20,25c-1.6,0-3.1-0.8-4-2h-3.4c1.2,2.9,4.1,5,7.4,5s6.2-2.1,7.4-5H24C23.1,24.2,21.6,25,20,25z"/>
		<g>
			<path fill="#F1C40F" d="M20,24c-0.6,0-1-0.4-1-1V13c0-0.6,0.4-1,1-1s1,0.4,1,1v10C21,23.6,20.6,24,20,24z"/>
		</g>
		<ellipse fill="#F1C40F" cx="20" cy="20" rx="3" ry="3"/>
	</g>
	<g id="Sliders_3_">
	</g>
	<g id="Tools">
	</g>
	<g id="Gears_3_">
	</g>
	<g id="Gear_2_">
	</g>
	<g id="Arrow_Keys">
	</g>
	<g id="Ban_2_">
	</g>
	<g id="Warning">
	</g>
	<g id="Remove_2_">
	</g>
	<g id="OK_2_">
	</g>
	<g id="Search_4_">
	</g>
	<g id="Zoom_In_5_">
	</g>
	<g id="Zoom_Out_5_">
	</g>
	<g id="Social_Network_5_">
	</g>
	<g id="Anchor_2_">
	</g>
	<g id="Link_4_">
	</g>
	<g id="Cloud_Camera_6_">
	</g>
	<g id="Cloud_Up_4_">
	</g>
	<g id="Cloud_Down_4_">
	</g>
	<g id="Cloud_Tunes">
	</g>
	<g id="Broadcast_4_">
	</g>
	<g id="Filter_3_">
	</g>
	<g id="Paper_Plane_3_">
	</g>
	<g id="Star_Fill_2_">
	</g>
	<g id="Star_Stroke_3_">
	</g>
	<g id="Heart_Fill_2_">
	</g>
	<g id="Heart_Stroke_1_">
	</g>
	<g id="Chat_Convo_Alt">
	</g>
	<g id="Chat_Type_Alt">
	</g>
	<g id="Chat_Alert_Alt">
	</g>
	<g id="Chat_Alt">
	</g>
	<g id="Chat_Convo">
	</g>
	<g id="Chat_Type">
	</g>
	<g id="Chat_Alert">
	</g>
	<g id="Chat">
	</g>
	<g id="Home_3_">
	</g>
</g>
<g id="Lockup">
</g>
</svg>
