<?xml version="1.0" encoding="utf-8"?>
<!-- Generator: Adobe Illustrator 18.0.0, SVG Export Plug-In . SVG Version: 6.00 Build 0)  -->
<!DOCTYPE svg PUBLIC "-//W3C//DTD SVG 1.1//EN" "http://www.w3.org/Graphics/SVG/1.1/DTD/svg11.dtd">
<svg version="1.1" xmlns="http://www.w3.org/2000/svg" xmlns:xlink="http://www.w3.org/1999/xlink" x="0px" y="0px"
	 viewBox="0 0 40 40" enable-background="new 0 0 40 40" xml:space="preserve">
<g id="Web">
	<g id="Tabs_3_">
	</g>
	<g id="Male_2_">
	</g>
	<g id="Female_1_">
	</g>
	<g id="Unshare_2_">
	</g>
	<g id="Share_2_">
	</g>
	<g id="More_4_">
	</g>
	<g id="New_Window_3_">
	</g>
	<g id="Edit_5_">
	</g>
	<g id="Checked_3_">
	</g>
	<g id="Unchecked_2_">
	</g>
	<g id="Menu_Alt_1_">
	</g>
	<g id="Menu_6_">
	</g>
	<g id="Hand_Cursor_2_">
	</g>
	<g id="Type_Cursor_2_">
	</g>
	<g id="Tag_Minus_4_">
	</g>
	<g id="Tag_Plus_4_">
	</g>
	<g id="Tag_2_">
	</g>
	<g id="Options_2_">
	</g>
	<g id="List_Alt_2_">
	</g>
	<g id="List_2_">
	</g>
	<g id="Grid_Small">
	</g>
	<g id="Grid_Big">
	</g>
	<g id="Log_Out_3_">
	</g>
	<g id="Log_In_3_">
	</g>
	<g id="Upload_8_">
	</g>
	<g id="Download_8_">
	</g>
	<g id="Export_1_">
	</g>
	<g id="Import_1_">
	</g>
	<g id="Userlist">
	</g>
	<g id="User_Star">
	</g>
	<g id="User_Down">
	</g>
	<g id="User_Up">
	</g>
	<g id="User_Minus">
	</g>
	<g id="User_Plus">
	</g>
	<g id="Like_3_">
	</g>
	<g id="Dislike_3_">
	</g>
	<g id="Unlock">
	</g>
	<g id="Lock">
	</g>
	<g id="More_Windows_9_">
	</g>
	<g id="External_Link_9_">
	</g>
	<g id="Grid_System">
	</g>
	<g id="Image_5_">
	</g>
	<g id="Table_3_">
	</g>
	<g id="Embed_Close_2_">
	</g>
	<g id="Embed_2_">
	</g>
	<g id="QR_2_">
	</g>
	<g id="Translate_6_">
	</g>
	<g id="Global_7_">
	</g>
	<g id="Trash_4_">
	</g>
	<g id="Nut_3_">
	</g>
	<g id="Gauge">
	</g>
	<g id="Sliders_3_">
	</g>
	<g id="Tools">
	</g>
	<g id="Gears_3_">
		<g>
			<path fill="#E74C3C" d="M26,18v-4h-3.2c-0.2-1-0.6-2-1.2-2.8l2.3-2.3l-2.7-2.7l-2.3,2.3C18,7.9,17,7.5,16,7.2V4h-4v3.2
				c-1,0.2-2,0.7-2.9,1.2L6.9,6.2L4.1,8.9l2.3,2.3C5.9,12,5.5,13,5.2,14H2v4h3.2c0.2,1,0.6,2,1.2,2.9l-2.3,2.3l2.7,2.8l2.3-2.3
				c0.9,0.5,1.8,0.9,2.8,1.2V28h4v-3.2c1-0.2,2-0.6,2.8-1.2l2.3,2.3l2.7-2.8l-2.3-2.3c0.6-0.9,1-1.9,1.2-2.9H26z M14,19
				c-1.7,0-3-1.3-3-3s1.3-3,3-3s3,1.3,3,3S15.7,19,14,19z"/>
		</g>
		<g>
			<path fill="#F1C40F" d="M39,28v-2h-2.1c-0.2-0.9-0.5-1.8-1-2.5l1.5-1.5l-1.4-1.4l-1.5,1.5c-0.7-0.5-1.6-0.9-2.5-1V19h-2v2.1
				c-0.9,0.2-1.8,0.5-2.5,1l-1.5-1.5l-1.4,1.4l1.5,1.5c-0.5,0.7-0.9,1.6-1,2.5H23l0,2h2.1c0.2,0.9,0.5,1.8,1,2.5l-1.5,1.5l1.4,1.4
				l1.5-1.5c0.7,0.5,1.6,0.9,2.5,1V35h2v-2.1c0.9-0.2,1.8-0.5,2.5-1l1.5,1.5l1.4-1.4l-1.5-1.5c0.5-0.7,0.9-1.6,1-2.5H39z M31,29
				c-1.1,0-2-0.9-2-2s0.9-2,2-2s2,0.9,2,2S32.1,29,31,29z"/>
		</g>
		<circle fill="none" stroke="#C0392B" stroke-width="2" stroke-miterlimit="10" cx="14" cy="16" r="3"/>
		<circle fill="none" stroke="#F39C12" stroke-width="2" stroke-miterlimit="10" cx="31" cy="27" r="2"/>
	</g>
	<g id="Gear_2_">
	</g>
	<g id="Arrow_Keys">
	</g>
	<g id="Ban_2_">
	</g>
	<g id="Warning">
	</g>
	<g id="Remove_2_">
	</g>
	<g id="OK_2_">
	</g>
	<g id="Search_4_">
	</g>
	<g id="Zoom_In_5_">
	</g>
	<g id="Zoom_Out_5_">
	</g>
	<g id="Social_Network_5_">
	</g>
	<g id="Anchor_2_">
	</g>
	<g id="Link_4_">
	</g>
	<g id="Cloud_Camera_6_">
	</g>
	<g id="Cloud_Up_4_">
	</g>
	<g id="Cloud_Down_4_">
	</g>
	<g id="Cloud_Tunes">
	</g>
	<g id="Broadcast_4_">
	</g>
	<g id="Filter_3_">
	</g>
	<g id="Paper_Plane_3_">
	</g>
	<g id="Star_Fill_2_">
	</g>
	<g id="Star_Stroke_3_">
	</g>
	<g id="Heart_Fill_2_">
	</g>
	<g id="Heart_Stroke_1_">
	</g>
	<g id="Chat_Convo_Alt">
	</g>
	<g id="Chat_Type_Alt">
	</g>
	<g id="Chat_Alert_Alt">
	</g>
	<g id="Chat_Alt">
	</g>
	<g id="Chat_Convo">
	</g>
	<g id="Chat_Type">
	</g>
	<g id="Chat_Alert">
	</g>
	<g id="Chat">
	</g>
	<g id="Home_3_">
	</g>
</g>
<g id="Lockup">
</g>
</svg>
