<?xml version="1.0" encoding="utf-8"?>
<!-- Generator: Adobe Illustrator 18.0.0, SVG Export Plug-In . SVG Version: 6.00 Build 0)  -->
<!DOCTYPE svg PUBLIC "-//W3C//DTD SVG 1.1//EN" "http://www.w3.org/Graphics/SVG/1.1/DTD/svg11.dtd">
<svg version="1.1" xmlns="http://www.w3.org/2000/svg" xmlns:xlink="http://www.w3.org/1999/xlink" x="0px" y="0px"
	 viewBox="0 0 40 40" enable-background="new 0 0 40 40" xml:space="preserve">
<g id="Web">
	<g id="Tabs_3_">
	</g>
	<g id="Male_2_">
	</g>
	<g id="Female_1_">
	</g>
	<g id="Unshare_2_">
	</g>
	<g id="Share_2_">
	</g>
	<g id="More_4_">
	</g>
	<g id="New_Window_3_">
	</g>
	<g id="Edit_5_">
	</g>
	<g id="Checked_3_">
	</g>
	<g id="Unchecked_2_">
	</g>
	<g id="Menu_Alt_1_">
	</g>
	<g id="Menu_6_">
	</g>
	<g id="Hand_Cursor_2_">
	</g>
	<g id="Type_Cursor_2_">
	</g>
	<g id="Tag_Minus_4_">
	</g>
	<g id="Tag_Plus_4_">
	</g>
	<g id="Tag_2_">
	</g>
	<g id="Options_2_">
	</g>
	<g id="List_Alt_2_">
	</g>
	<g id="List_2_">
	</g>
	<g id="Grid_Small">
	</g>
	<g id="Grid_Big">
	</g>
	<g id="Log_Out_3_">
	</g>
	<g id="Log_In_3_">
	</g>
	<g id="Upload_8_">
	</g>
	<g id="Download_8_">
	</g>
	<g id="Export_1_">
	</g>
	<g id="Import_1_">
	</g>
	<g id="Userlist">
	</g>
	<g id="User_Star">
	</g>
	<g id="User_Down">
	</g>
	<g id="User_Up">
	</g>
	<g id="User_Minus">
	</g>
	<g id="User_Plus">
	</g>
	<g id="Like_3_">
	</g>
	<g id="Dislike_3_">
	</g>
	<g id="Unlock">
	</g>
	<g id="Lock">
	</g>
	<g id="More_Windows_9_">
	</g>
	<g id="External_Link_9_">
	</g>
	<g id="Grid_System">
	</g>
	<g id="Image_5_">
	</g>
	<g id="Table_3_">
	</g>
	<g id="Embed_Close_2_">
	</g>
	<g id="Embed_2_">
	</g>
	<g id="QR_2_">
	</g>
	<g id="Translate_6_">
	</g>
	<g id="Global_7_">
		<path fill-rule="evenodd" clip-rule="evenodd" fill="#1ABC9C" d="M20,10c-5.5,0-10,4.5-10,10c0,5.5,4.5,10,10,10
			c5.5,0,10-4.5,10-10C30,14.5,25.5,10,20,10z"/>
		<path fill-rule="evenodd" clip-rule="evenodd" fill="#2C3E50" d="M20,7C12.8,7,7,12.8,7,20c0,7.2,5.8,13,13,13s13-5.8,13-13
			C33,12.8,27.2,7,20,7z M21,14v-3.9c0.1,0,0.1,0,0.2,0c1.1,1.2,2,2.5,2.6,3.9H21z M24.5,16c0.3,1,0.4,2,0.5,3h-4v-3H24.5z M19,10.1
			V14h-2.7c0.6-1.4,1.5-2.7,2.6-3.9C18.9,10.1,19,10.1,19,10.1z M19,16v3h-4c0.1-1,0.2-2,0.5-3H19z M13,19h-3c0.1-1.1,0.4-2.1,0.8-3
			h2.6C13.2,17,13.1,18,13,19z M10.1,21H13c0.1,1,0.2,2,0.5,3h-2.6C10.4,23.1,10.2,22.1,10.1,21z M15,21h4v3h-3.5
			C15.2,23,15.1,22,15,21z M19,26v4c0,0-0.1,0-0.1,0c-1.1-1.2-2-2.5-2.6-4H19z M21,30v-4h2.8C23.1,27.4,22.2,28.8,21,30
			C21.1,30,21,30,21,30z M21,24v-3h4c-0.1,1-0.2,2-0.5,3H21z M27,21h3c-0.1,1.1-0.4,2.1-0.8,3h-2.6C26.8,23,27,22,27,21z M27,19
			c-0.1-1-0.2-2-0.5-3h2.6c0.4,0.9,0.7,1.9,0.8,3H27z M28,14h-2c-0.4-1-0.9-2-1.5-2.9C25.9,11.8,27.1,12.8,28,14z M15.6,11.1
			C15,12,14.5,13,14.1,14h-2.1C13,12.8,14.2,11.8,15.6,11.1z M12,26h2.1c0.4,1,0.9,2,1.5,3C14.2,28.3,13,27.3,12,26z M24.4,29
			c0.6-1,1.1-2,1.5-3H28C27.1,27.3,25.8,28.3,24.4,29z"/>
	</g>
	<g id="Trash_4_">
	</g>
	<g id="Nut_3_">
	</g>
	<g id="Gauge">
	</g>
	<g id="Sliders_3_">
	</g>
	<g id="Tools">
	</g>
	<g id="Gears_3_">
	</g>
	<g id="Gear_2_">
	</g>
	<g id="Arrow_Keys">
	</g>
	<g id="Ban_2_">
	</g>
	<g id="Warning">
	</g>
	<g id="Remove_2_">
	</g>
	<g id="OK_2_">
	</g>
	<g id="Search_4_">
	</g>
	<g id="Zoom_In_5_">
	</g>
	<g id="Zoom_Out_5_">
	</g>
	<g id="Social_Network_5_">
	</g>
	<g id="Anchor_2_">
	</g>
	<g id="Link_4_">
	</g>
	<g id="Cloud_Camera_6_">
	</g>
	<g id="Cloud_Up_4_">
	</g>
	<g id="Cloud_Down_4_">
	</g>
	<g id="Cloud_Tunes">
	</g>
	<g id="Broadcast_4_">
	</g>
	<g id="Filter_3_">
	</g>
	<g id="Paper_Plane_3_">
	</g>
	<g id="Star_Fill_2_">
	</g>
	<g id="Star_Stroke_3_">
	</g>
	<g id="Heart_Fill_2_">
	</g>
	<g id="Heart_Stroke_1_">
	</g>
	<g id="Chat_Convo_Alt">
	</g>
	<g id="Chat_Type_Alt">
	</g>
	<g id="Chat_Alert_Alt">
	</g>
	<g id="Chat_Alt">
	</g>
	<g id="Chat_Convo">
	</g>
	<g id="Chat_Type">
	</g>
	<g id="Chat_Alert">
	</g>
	<g id="Chat">
	</g>
	<g id="Home_3_">
	</g>
</g>
<g id="Lockup">
</g>
</svg>
