<?xml version="1.0" encoding="utf-8"?>
<!-- Generator: Adobe Illustrator 18.0.0, SVG Export Plug-In . SVG Version: 6.00 Build 0)  -->
<!DOCTYPE svg PUBLIC "-//W3C//DTD SVG 1.1//EN" "http://www.w3.org/Graphics/SVG/1.1/DTD/svg11.dtd">
<svg version="1.1" xmlns="http://www.w3.org/2000/svg" xmlns:xlink="http://www.w3.org/1999/xlink" x="0px" y="0px"
	 viewBox="0 0 40 40" enable-background="new 0 0 40 40" xml:space="preserve">
<g id="Web">
	<g id="Tabs_3_">
	</g>
	<g id="Male_2_">
		<g id="Male">
			<g>
				<path fill-rule="evenodd" clip-rule="evenodd" fill="#F1C40F" d="M20.5,11.7l2.8,2.8L21,16.8c-1.2-0.8-2.7-1.3-4.2-1.3
					c-2,0-3.9,0.8-5.4,2.2c-3,2.9-3,7.7,0,10.7c1.4,1.4,3.3,2.2,5.4,2.2s3.9-0.8,5.4-2.2c2.6-2.6,2.9-6.6,1-9.5l2.3-2.3l3.1,3.1
					l2.3-10.3L20.5,11.7z M19.5,25.7c-0.7,0.7-1.5,1-2.5,1c-0.9,0-1.8-0.4-2.5-1c-1.4-1.4-1.4-3.6,0-5c0.7-0.7,1.5-1,2.5-1
					c0.9,0,1.8,0.4,2.5,1C20.8,22.1,20.8,24.3,19.5,25.7z"/>
			</g>
		</g>
	</g>
	<g id="Female_1_">
	</g>
	<g id="Unshare_2_">
	</g>
	<g id="Share_2_">
	</g>
	<g id="More_4_">
	</g>
	<g id="New_Window_3_">
	</g>
	<g id="Edit_5_">
	</g>
	<g id="Checked_3_">
	</g>
	<g id="Unchecked_2_">
	</g>
	<g id="Menu_Alt_1_">
	</g>
	<g id="Menu_6_">
	</g>
	<g id="Hand_Cursor_2_">
	</g>
	<g id="Type_Cursor_2_">
	</g>
	<g id="Tag_Minus_4_">
	</g>
	<g id="Tag_Plus_4_">
	</g>
	<g id="Tag_2_">
	</g>
	<g id="Options_2_">
	</g>
	<g id="List_Alt_2_">
	</g>
	<g id="List_2_">
	</g>
	<g id="Grid_Small">
	</g>
	<g id="Grid_Big">
	</g>
	<g id="Log_Out_3_">
	</g>
	<g id="Log_In_3_">
	</g>
	<g id="Upload_8_">
	</g>
	<g id="Download_8_">
	</g>
	<g id="Export_1_">
	</g>
	<g id="Import_1_">
	</g>
	<g id="Userlist">
	</g>
	<g id="User_Star">
	</g>
	<g id="User_Down">
	</g>
	<g id="User_Up">
	</g>
	<g id="User_Minus">
	</g>
	<g id="User_Plus">
	</g>
	<g id="Like_3_">
	</g>
	<g id="Dislike_3_">
	</g>
	<g id="Unlock">
	</g>
	<g id="Lock">
	</g>
	<g id="More_Windows_9_">
	</g>
	<g id="External_Link_9_">
	</g>
	<g id="Grid_System">
	</g>
	<g id="Image_5_">
	</g>
	<g id="Table_3_">
	</g>
	<g id="Embed_Close_2_">
	</g>
	<g id="Embed_2_">
	</g>
	<g id="QR_2_">
	</g>
	<g id="Translate_6_">
	</g>
	<g id="Global_7_">
	</g>
	<g id="Trash_4_">
	</g>
	<g id="Nut_3_">
	</g>
	<g id="Gauge">
	</g>
	<g id="Sliders_3_">
	</g>
	<g id="Tools">
	</g>
	<g id="Gears_3_">
	</g>
	<g id="Gear_2_">
	</g>
	<g id="Arrow_Keys">
	</g>
	<g id="Ban_2_">
	</g>
	<g id="Warning">
	</g>
	<g id="Remove_2_">
	</g>
	<g id="OK_2_">
	</g>
	<g id="Search_4_">
	</g>
	<g id="Zoom_In_5_">
	</g>
	<g id="Zoom_Out_5_">
	</g>
	<g id="Social_Network_5_">
	</g>
	<g id="Anchor_2_">
	</g>
	<g id="Link_4_">
	</g>
	<g id="Cloud_Camera_6_">
	</g>
	<g id="Cloud_Up_4_">
	</g>
	<g id="Cloud_Down_4_">
	</g>
	<g id="Cloud_Tunes">
	</g>
	<g id="Broadcast_4_">
	</g>
	<g id="Filter_3_">
	</g>
	<g id="Paper_Plane_3_">
	</g>
	<g id="Star_Fill_2_">
	</g>
	<g id="Star_Stroke_3_">
	</g>
	<g id="Heart_Fill_2_">
	</g>
	<g id="Heart_Stroke_1_">
	</g>
	<g id="Chat_Convo_Alt">
	</g>
	<g id="Chat_Type_Alt">
	</g>
	<g id="Chat_Alert_Alt">
	</g>
	<g id="Chat_Alt">
	</g>
	<g id="Chat_Convo">
	</g>
	<g id="Chat_Type">
	</g>
	<g id="Chat_Alert">
	</g>
	<g id="Chat">
	</g>
	<g id="Home_3_">
	</g>
</g>
<g id="Lockup">
</g>
</svg>
