<?xml version="1.0" encoding="utf-8"?>
<!-- Generator: Adobe Illustrator 18.0.0, SVG Export Plug-In . SVG Version: 6.00 Build 0)  -->
<!DOCTYPE svg PUBLIC "-//W3C//DTD SVG 1.1//EN" "http://www.w3.org/Graphics/SVG/1.1/DTD/svg11.dtd">
<svg version="1.1" xmlns="http://www.w3.org/2000/svg" xmlns:xlink="http://www.w3.org/1999/xlink" x="0px" y="0px"
	 viewBox="0 0 40 40" enable-background="new 0 0 40 40" xml:space="preserve">
<g id="Web">
	<g id="Tabs_3_">
	</g>
	<g id="Male_2_">
	</g>
	<g id="Female_1_">
	</g>
	<g id="Unshare_2_">
	</g>
	<g id="Share_2_">
	</g>
	<g id="More_4_">
	</g>
	<g id="New_Window_3_">
	</g>
	<g id="Edit_5_">
	</g>
	<g id="Checked_3_">
	</g>
	<g id="Unchecked_2_">
	</g>
	<g id="Menu_Alt_1_">
	</g>
	<g id="Menu_6_">
	</g>
	<g id="Hand_Cursor_2_">
	</g>
	<g id="Type_Cursor_2_">
	</g>
	<g id="Tag_Minus_4_">
	</g>
	<g id="Tag_Plus_4_">
	</g>
	<g id="Tag_2_">
	</g>
	<g id="Options_2_">
	</g>
	<g id="List_Alt_2_">
	</g>
	<g id="List_2_">
	</g>
	<g id="Grid_Small">
	</g>
	<g id="Grid_Big">
	</g>
	<g id="Log_Out_3_">
	</g>
	<g id="Log_In_3_">
	</g>
	<g id="Upload_8_">
	</g>
	<g id="Download_8_">
	</g>
	<g id="Export_1_">
	</g>
	<g id="Import_1_">
	</g>
	<g id="Userlist">
	</g>
	<g id="User_Star">
	</g>
	<g id="User_Down">
	</g>
	<g id="User_Up">
	</g>
	<g id="User_Minus">
	</g>
	<g id="User_Plus">
	</g>
	<g id="Like_3_">
	</g>
	<g id="Dislike_3_">
	</g>
	<g id="Unlock">
	</g>
	<g id="Lock">
	</g>
	<g id="More_Windows_9_">
	</g>
	<g id="External_Link_9_">
	</g>
	<g id="Grid_System">
	</g>
	<g id="Image_5_">
	</g>
	<g id="Table_3_">
	</g>
	<g id="Embed_Close_2_">
	</g>
	<g id="Embed_2_">
	</g>
	<g id="QR_2_">
		<g>
			<g id="QR">
				<g>
					<path fill-rule="evenodd" clip-rule="evenodd" fill="#2C3E50" d="M21,8h-2v2h2V8z M8,18h10V8H8V18z M10,10h6v6h-6V10z M21,14
						h-2v4h2V14z M12,21h6v-2h-6V21z M21,11h-2v2h2V11z M8,32h10V22H8V32z M10,24h6v6h-6V24z M10,19H8v2h2V19z M23,28v2h2v-2H23z
						 M30,21h2v-2h-2V21z M30,25h2v-2h-2V25z M22,8v10h10V8H22z M30,16h-6v-6h6V16z M30,30h-1v-2h-2v2h-2v2h7v-5h-2V30z M23,21h2v-2
						h-2v1h-2v2h2V21z M23,23v2h6v-2h-2v-2h-2v2H23z M21,27h2v-2h-2v-3h-2v10h4v-2h-2V27z M27,26h-2v2h2V26z M29,19h-2v2h2V19z"/>
				</g>
			</g>
		</g>
	</g>
	<g id="Translate_6_">
	</g>
	<g id="Global_7_">
	</g>
	<g id="Trash_4_">
	</g>
	<g id="Nut_3_">
	</g>
	<g id="Gauge">
	</g>
	<g id="Sliders_3_">
	</g>
	<g id="Tools">
	</g>
	<g id="Gears_3_">
	</g>
	<g id="Gear_2_">
	</g>
	<g id="Arrow_Keys">
	</g>
	<g id="Ban_2_">
	</g>
	<g id="Warning">
	</g>
	<g id="Remove_2_">
	</g>
	<g id="OK_2_">
	</g>
	<g id="Search_4_">
	</g>
	<g id="Zoom_In_5_">
	</g>
	<g id="Zoom_Out_5_">
	</g>
	<g id="Social_Network_5_">
	</g>
	<g id="Anchor_2_">
	</g>
	<g id="Link_4_">
	</g>
	<g id="Cloud_Camera_6_">
	</g>
	<g id="Cloud_Up_4_">
	</g>
	<g id="Cloud_Down_4_">
	</g>
	<g id="Cloud_Tunes">
	</g>
	<g id="Broadcast_4_">
	</g>
	<g id="Filter_3_">
	</g>
	<g id="Paper_Plane_3_">
	</g>
	<g id="Star_Fill_2_">
	</g>
	<g id="Star_Stroke_3_">
	</g>
	<g id="Heart_Fill_2_">
	</g>
	<g id="Heart_Stroke_1_">
	</g>
	<g id="Chat_Convo_Alt">
	</g>
	<g id="Chat_Type_Alt">
	</g>
	<g id="Chat_Alert_Alt">
	</g>
	<g id="Chat_Alt">
	</g>
	<g id="Chat_Convo">
	</g>
	<g id="Chat_Type">
	</g>
	<g id="Chat_Alert">
	</g>
	<g id="Chat">
	</g>
	<g id="Home_3_">
	</g>
</g>
<g id="Lockup">
</g>
</svg>
