<?xml version="1.0" encoding="utf-8"?>
<!-- Generator: Adobe Illustrator 18.0.0, SVG Export Plug-In . SVG Version: 6.00 Build 0)  -->
<!DOCTYPE svg PUBLIC "-//W3C//DTD SVG 1.1//EN" "http://www.w3.org/Graphics/SVG/1.1/DTD/svg11.dtd">
<svg version="1.1" xmlns="http://www.w3.org/2000/svg" xmlns:xlink="http://www.w3.org/1999/xlink" x="0px" y="0px"
	 viewBox="0 0 40 40" enable-background="new 0 0 40 40" xml:space="preserve">
<g id="Web">
	<g id="Tabs_3_">
	</g>
	<g id="Male_2_">
	</g>
	<g id="Female_1_">
	</g>
	<g id="Unshare_2_">
	</g>
	<g id="Share_2_">
	</g>
	<g id="More_4_">
	</g>
	<g id="New_Window_3_">
	</g>
	<g id="Edit_5_">
	</g>
	<g id="Checked_3_">
	</g>
	<g id="Unchecked_2_">
	</g>
	<g id="Menu_Alt_1_">
	</g>
	<g id="Menu_6_">
	</g>
	<g id="Hand_Cursor_2_">
	</g>
	<g id="Type_Cursor_2_">
	</g>
	<g id="Tag_Minus_4_">
	</g>
	<g id="Tag_Plus_4_">
	</g>
	<g id="Tag_2_">
	</g>
	<g id="Options_2_">
	</g>
	<g id="List_Alt_2_">
	</g>
	<g id="List_2_">
	</g>
	<g id="Grid_Small">
	</g>
	<g id="Grid_Big">
	</g>
	<g id="Log_Out_3_">
	</g>
	<g id="Log_In_3_">
	</g>
	<g id="Upload_8_">
	</g>
	<g id="Download_8_">
	</g>
	<g id="Export_1_">
	</g>
	<g id="Import_1_">
	</g>
	<g id="Userlist">
	</g>
	<g id="User_Star">
	</g>
	<g id="User_Down">
	</g>
	<g id="User_Up">
	</g>
	<g id="User_Minus">
	</g>
	<g id="User_Plus">
	</g>
	<g id="Like_3_">
	</g>
	<g id="Dislike_3_">
	</g>
	<g id="Unlock">
	</g>
	<g id="Lock">
	</g>
	<g id="More_Windows_9_">
	</g>
	<g id="External_Link_9_">
	</g>
	<g id="Grid_System">
	</g>
	<g id="Image_5_">
	</g>
	<g id="Table_3_">
	</g>
	<g id="Embed_Close_2_">
	</g>
	<g id="Embed_2_">
	</g>
	<g id="QR_2_">
	</g>
	<g id="Translate_6_">
		<g id="Translate">
			<g>
				<polygon fill-rule="evenodd" clip-rule="evenodd" fill="#2C3E50" points="5,4.5 5,20.5 10,20.5 10,26.5 17,20.5 22,20.5 22,4.5 
									"/>
			</g>
		</g>
		<g id="Translate_1_">
			<g>
				<path fill-rule="evenodd" clip-rule="evenodd" fill="#1ABC9C" d="M16.5,11.2c0.1-0.2,0.1-0.3,0.1-0.5l-1-0.2
					c0,0.2-0.1,0.4-0.1,0.6c-0.2,0-0.4,0-0.6,0c-0.2,0-1.2,0-2.2,0.3c0-0.6,0-1.3,0-2c1.6,0,4.4-0.2,6-0.5l-0.1-0.9
					c-1.5,0.4-4.2,0.5-5.8,0.6c0-0.5,0.1-1.1,0.1-1.6c0.2,0,0.4-0.1,0.4-0.3l-1.4-0.1c0,0.6-0.1,1.4-0.1,2c-1.2,0-2.5,0-3.2,0l0,0.9
					c0.5,0,0.7,0,3.2,0c0,0.8,0,1.6,0,2.3C9.6,12.4,8,13.9,8,15.8c0,1,0.6,1.8,1.8,1.8c0.7,0,1.6-0.2,2.7-1c0.1,0.3,0.2,0.5,0.3,0.7
					l0.9-0.5c-0.1-0.2-0.3-0.4-0.4-0.7c1.2-1,2.3-2.4,2.9-4c1.5,0.2,2.7,1,2.7,2.6v0.1c0,1.7-1.9,2.7-4.9,3c0.1,0.2,0.3,0.6,0.4,0.8
					c3.6-0.4,5.6-1.7,5.6-3.8C20,13.1,19,11.6,16.5,11.2z M10,16.6c-0.5,0-1-0.2-1-1c0-1.3,1.2-2.4,2.8-3.1c0.1,1.3,0.2,2.3,0.4,3.2
					C11.4,16.3,10.7,16.6,10,16.6z M13.1,15c-0.2-0.8-0.3-1.7-0.3-2.8c1.1-0.4,2.2-0.3,2.4-0.3C14.7,13.1,13.9,14.2,13.1,15z"/>
			</g>
		</g>
		<g id="Translate_2_">
			<g>
				<polygon fill-rule="evenodd" clip-rule="evenodd" fill="#E74C3C" points="18,13.5 18,29.5 24,29.5 30,35.5 30,29.5 35,29.5 
					35,13.5 				"/>
			</g>
		</g>
		<g>
			<path fill="#F39C12" d="M31.5,26.5H29l-0.7-2.1h-3.7l-0.7,2.1h-2.5l3.5-10h3.2L31.5,26.5z M26.5,18.5l-1.3,3.9h2.6L26.5,18.5z"/>
		</g>
	</g>
	<g id="Global_7_">
	</g>
	<g id="Trash_4_">
	</g>
	<g id="Nut_3_">
	</g>
	<g id="Gauge">
	</g>
	<g id="Sliders_3_">
	</g>
	<g id="Tools">
	</g>
	<g id="Gears_3_">
	</g>
	<g id="Gear_2_">
	</g>
	<g id="Arrow_Keys">
	</g>
	<g id="Ban_2_">
	</g>
	<g id="Warning">
	</g>
	<g id="Remove_2_">
	</g>
	<g id="OK_2_">
	</g>
	<g id="Search_4_">
	</g>
	<g id="Zoom_In_5_">
	</g>
	<g id="Zoom_Out_5_">
	</g>
	<g id="Social_Network_5_">
	</g>
	<g id="Anchor_2_">
	</g>
	<g id="Link_4_">
	</g>
	<g id="Cloud_Camera_6_">
	</g>
	<g id="Cloud_Up_4_">
	</g>
	<g id="Cloud_Down_4_">
	</g>
	<g id="Cloud_Tunes">
	</g>
	<g id="Broadcast_4_">
	</g>
	<g id="Filter_3_">
	</g>
	<g id="Paper_Plane_3_">
	</g>
	<g id="Star_Fill_2_">
	</g>
	<g id="Star_Stroke_3_">
	</g>
	<g id="Heart_Fill_2_">
	</g>
	<g id="Heart_Stroke_1_">
	</g>
	<g id="Chat_Convo_Alt">
	</g>
	<g id="Chat_Type_Alt">
	</g>
	<g id="Chat_Alert_Alt">
	</g>
	<g id="Chat_Alt">
	</g>
	<g id="Chat_Convo">
	</g>
	<g id="Chat_Type">
	</g>
	<g id="Chat_Alert">
	</g>
	<g id="Chat">
	</g>
	<g id="Home_3_">
	</g>
</g>
<g id="Lockup">
</g>
</svg>
