<?xml version="1.0" encoding="iso-8859-1"?>
<!-- Generator: Adobe Illustrator 16.0.0, SVG Export Plug-In . SVG Version: 6.00 Build 0)  -->
<!DOCTYPE svg PUBLIC "-//W3C//DTD SVG 1.1//EN" "http://www.w3.org/Graphics/SVG/1.1/DTD/svg11.dtd">
<svg version="1.1" id="Layer_1" xmlns="http://www.w3.org/2000/svg" xmlns:xlink="http://www.w3.org/1999/xlink" x="0px" y="0px"
	 width="56px" height="64px" viewBox="0 0 56 64" style="enable-background:new 0 0 56 64;" xml:space="preserve">
<g id="Shield">
	<g>
		<path style="fill:#48A0DC;" d="M0,16l0,20c0,12.917,18.806,28,28,28c9.8,0,28.001-15.083,28-28V16H0z"/>
	</g>
</g>
<g id="Shield_3_">
	<g>
		<path style="fill:#FFFFFF;" d="M4,16v20c0,11.172,16.12,24,24,24c8.4,0,24.001-12.828,24-24V16H4z"/>
	</g>
</g>
<g id="Shield_2_">
	<g>
		<path style="fill:#4D4D4D;" d="M44,8c-7.013,0-12.186-2.778-16-8c-3.814,5.222-8.987,8-16,8C7.97,8,3.198,5.945,0,4v12h56v-2.74V4
			C52.803,5.945,48.031,8,44,8z"/>
	</g>
</g>
<g id="_x36_0">
	<g>
		<path style="fill-rule:evenodd;clip-rule:evenodd;fill:#48A0DC;" d="M44.024,25.274c-1.333-2.177-3.341-3.266-6.024-3.266
			c-2.684,0-4.691,1.089-6.023,3.266c-1.333,2.177-1.999,5.083-1.999,8.718c0,3.637,0.667,6.543,1.999,8.72
			c1.332,2.177,3.34,3.265,6.023,3.265c2.683,0,4.691-1.088,6.024-3.265s1.999-5.083,1.999-8.72
			C46.023,30.357,45.357,27.451,44.024,25.274z M41.042,39.784c-0.65,1.466-1.664,2.199-3.042,2.199s-2.392-0.733-3.041-2.199
			c-0.65-1.466-0.975-3.401-0.975-5.807s0.325-4.341,0.975-5.807c0.649-1.466,1.663-2.199,3.041-2.199s2.392,0.733,3.042,2.199
			c0.649,1.466,0.975,3.401,0.975,5.807S41.691,38.318,41.042,39.784z M18,29.999c-0.875,0-1.716,0.146-2.505,0.407
			c1.02-2.083,2.446-3.52,3.919-4.993c0.781-0.781,0.781-2.046,0-2.828c-0.781-0.781-2.047-0.781-2.828,0
			C13.652,25.519,10,29.171,10,37.999c0,4.412,3.588,8,8,8c4.412,0,8-3.588,8-8C26,33.588,22.413,29.999,18,29.999z M18,41.999
			c-2.206,0-4-1.795-4-4c0-2.206,1.794-4,4-4c2.205,0,4,1.794,4,4C22,40.204,20.206,41.999,18,41.999z"/>
	</g>
</g>
<g>
</g>
<g>
</g>
<g>
</g>
<g>
</g>
<g>
</g>
<g>
</g>
<g>
</g>
<g>
</g>
<g>
</g>
<g>
</g>
<g>
</g>
<g>
</g>
<g>
</g>
<g>
</g>
<g>
</g>
</svg>
