<?xml version="1.0" encoding="iso-8859-1"?>
<!-- Generator: Adobe Illustrator 16.0.0, SVG Export Plug-In . SVG Version: 6.00 Build 0)  -->
<!DOCTYPE svg PUBLIC "-//W3C//DTD SVG 1.1//EN" "http://www.w3.org/Graphics/SVG/1.1/DTD/svg11.dtd">
<svg version="1.1" id="Layer_1" xmlns="http://www.w3.org/2000/svg" xmlns:xlink="http://www.w3.org/1999/xlink" x="0px" y="0px"
	 width="52px" height="64px" viewBox="0 0 52 64" style="enable-background:new 0 0 52 64;" xml:space="preserve">
<g id="Head_3_">
	<g>
		<path style="fill:#88C057;" d="M26,0C11.641,0,0,10.536,0,26c0,11.971,13.942,38,26,38c12.086,0,26-26.029,26-38
			C52,10.536,40.36,0,26,0z"/>
	</g>
</g>
<g id="Mouth">
	<g>
		<path style="fill:#669D36;" d="M28,52.001h-4c-1.104,0-2,0.896-2,2s0.896,2,2,2h4c1.104,0,2-0.896,2-2S29.105,52.001,28,52.001z"
			/>
	</g>
</g>
<g id="Nose">
	<g>
		<path style="fill-rule:evenodd;clip-rule:evenodd;fill:#4D4D4D;" d="M22,42c-1.105,0-2,0.896-2,2s0.895,2.001,2,2.001
			c1.104,0,2-0.896,2-2.001S23.105,42,22,42z M30,42c-1.104,0-2,0.896-2,2s0.896,2.001,2,2.001s2-0.896,2-2.001S31.105,42,30,42z"/>
	</g>
</g>
<g id="Eyes">
	<g>
		<path style="fill-rule:evenodd;clip-rule:evenodd;fill:#343533;" d="M16,20.001c0,0-10-1.372-10,8s14,8,14,8s4-0.01,4-4
			S19.823,20.001,16,20.001z M36,20.063c-3.823,0-8,7.947-8,11.906s4,3.969,4,3.969s14,1.361,14-7.938
			C46,18.701,36,20.063,36,20.063z"/>
	</g>
</g>
<g>
</g>
<g>
</g>
<g>
</g>
<g>
</g>
<g>
</g>
<g>
</g>
<g>
</g>
<g>
</g>
<g>
</g>
<g>
</g>
<g>
</g>
<g>
</g>
<g>
</g>
<g>
</g>
<g>
</g>
</svg>
