<?xml version="1.0" encoding="iso-8859-1"?>
<!-- Generator: Adobe Illustrator 16.0.0, SVG Export Plug-In . SVG Version: 6.00 Build 0)  -->
<!DOCTYPE svg PUBLIC "-//W3C//DTD SVG 1.1//EN" "http://www.w3.org/Graphics/SVG/1.1/DTD/svg11.dtd">
<svg version="1.1" id="Layer_1" xmlns="http://www.w3.org/2000/svg" xmlns:xlink="http://www.w3.org/1999/xlink" x="0px" y="0px"
	 width="64px" height="63.995px" viewBox="0 0 64 63.995" style="enable-background:new 0 0 64 63.995;" xml:space="preserve">
<g id="Tail_2_">
	<g>
		<path style="fill:#A67C52;" d="M22,0v3.999c0,0,8,2.438,8,13.999h4C34,17.998,32.813,0,22,0z"/>
	</g>
</g>
<g id="Apple">
	<g>
		<path style="fill:#88C057;" d="M46,11.999c-5.068,0.031-9.752,0.808-13.928,2.173c-4.213-1.391-8.944-2.173-14.072-2.173
			c-14.359,0-18,11.64-18,25.997c0,14.359,11.641,25.999,26,25.999c2.068,0,4.07-0.268,6-0.724c1.929,0.456,3.932,0.724,6,0.724
			c14.359,0,26-11.64,26-25.999C64,23.639,60.359,11.908,46,11.999z"/>
	</g>
</g>
<g id="Apple_1_">
	<g>
		<path style="fill:#DCF4C7;" d="M44.25,15.998c-4.435,0.027-8.533,0.684-12.187,1.839c-3.687-1.177-7.826-1.839-12.313-1.839
			C7.186,15.998,4,25.848,4,37.996c0,12.15,10.186,21.999,22.75,21.999c1.811,0,3.562-0.226,5.25-0.612
			c1.688,0.387,3.439,0.612,5.25,0.612c12.564,0,22.75-9.849,22.75-21.999C60,25.848,56.814,15.922,44.25,15.998z"/>
	</g>
</g>
<g id="Seed_Holes">
	<g>
		<path style="fill-rule:evenodd;clip-rule:evenodd;fill:#AED090;" d="M26,23.998c-3.313,0-6,5.372-6,11.999s2.687,11.999,6,11.999
			s6-5.372,6-11.999S29.313,23.998,26,23.998z M38,23.998c-3.313,0-6,5.372-6,11.999s2.687,11.999,6,11.999s6-5.372,6-11.999
			S41.313,23.998,38,23.998z"/>
	</g>
</g>
<g id="Seeds_1_">
	<g>
		<path style="fill-rule:evenodd;clip-rule:evenodd;fill:#58694A;" d="M36,31.997c-1.104,0-2,1.791-2,4s0.896,3.999,2,3.999
			s2-1.79,2-3.999S37.104,31.997,36,31.997z M28,31.997c-1.104,0-2,1.791-2,4s0.896,3.999,2,3.999s2-1.79,2-3.999
			S29.104,31.997,28,31.997z"/>
	</g>
</g>
<g id="Mustache">
	<g>
		<path style="fill:#58694A;" d="M32,57.995c-1.896,0-4,5.87-4,6l2-2l2,2l2-2l2,2C36,63.995,33.896,57.995,32,57.995z"/>
	</g>
</g>
<g>
</g>
<g>
</g>
<g>
</g>
<g>
</g>
<g>
</g>
<g>
</g>
<g>
</g>
<g>
</g>
<g>
</g>
<g>
</g>
<g>
</g>
<g>
</g>
<g>
</g>
<g>
</g>
<g>
</g>
</svg>
