<?xml version="1.0" encoding="iso-8859-1"?>
<!-- Generator: Adobe Illustrator 16.0.0, SVG Export Plug-In . SVG Version: 6.00 Build 0)  -->
<!DOCTYPE svg PUBLIC "-//W3C//DTD SVG 1.1//EN" "http://www.w3.org/Graphics/SVG/1.1/DTD/svg11.dtd">
<svg version="1.1" id="Layer_1" xmlns="http://www.w3.org/2000/svg" xmlns:xlink="http://www.w3.org/1999/xlink" x="0px" y="0px"
	 width="64.001px" height="56px" viewBox="0 0 64.001 56" style="enable-background:new 0 0 64.001 56;" xml:space="preserve">
<g id="Arrow_1_">
	<g>
		<path style="fill-rule:evenodd;clip-rule:evenodd;fill:#48A0DC;" d="M42.001,12l-28.373,0.027l5.199-5.199
			C19.552,6.104,20,5.104,20,4c0-2.209-1.79-4-4-4c-1.105,0-2.104,0.448-2.829,1.171l-12,12C0.447,13.896,0,14.896,0,16
			c0,0,0,0,0,0.001l0,0c0,0.034,0.01,0.066,0.011,0.101c0.026,1.063,0.459,2.025,1.16,2.727l12,12.001
			c0.725,0.724,1.724,1.172,2.829,1.172c2.21,0,4-1.792,4-4.001c0-1.104-0.448-2.104-1.173-2.829l-5.197-5.197L42.001,20
			c7.731,0,14,6.269,14,14s-6.269,14-14,14L3.998,48.037C1.79,48.037,0,49.812,0,52.001s1.79,3.965,3.998,3.965L42.001,56
			c12.15,0,22-9.85,22-22S54.151,12,42.001,12z"/>
	</g>
</g>
<g>
</g>
<g>
</g>
<g>
</g>
<g>
</g>
<g>
</g>
<g>
</g>
<g>
</g>
<g>
</g>
<g>
</g>
<g>
</g>
<g>
</g>
<g>
</g>
<g>
</g>
<g>
</g>
<g>
</g>
</svg>
