<?xml version="1.0" encoding="iso-8859-1"?>
<!-- Generator: Adobe Illustrator 16.0.0, SVG Export Plug-In . SVG Version: 6.00 Build 0)  -->
<!DOCTYPE svg PUBLIC "-//W3C//DTD SVG 1.1//EN" "http://www.w3.org/Graphics/SVG/1.1/DTD/svg11.dtd">
<svg version="1.1" id="Layer_1" xmlns="http://www.w3.org/2000/svg" xmlns:xlink="http://www.w3.org/1999/xlink" x="0px" y="0px"
	 width="56.001px" height="60.001px" viewBox="0 0 56.001 60.001" style="enable-background:new 0 0 56.001 60.001;"
	 xml:space="preserve">
<g id="Arrow_3_">
	<g>
		<path style="fill-rule:evenodd;clip-rule:evenodd;fill:#48A0DC;" d="M34.001,12l-20.37,0.025l5.197-5.197
			C19.552,6.104,20,5.104,20,4c0-2.209-1.79-4-4-4c-1.104,0-2.104,0.448-2.829,1.171l-12,12C0.447,13.896,0,14.896,0,16
			c0,0,0,0,0,0.001l0,0c0,0.034,0.01,0.066,0.011,0.101c0.026,1.063,0.459,2.025,1.16,2.727l12,12.001
			C13.896,31.553,14.896,32,16,32c2.21,0,4-1.791,4-4c0-1.104-0.448-2.104-1.172-2.829l-5.195-5.194L34.001,20
			c7.731,0,14,6.269,14,14l0.037,22.003c0,2.207,1.774,3.998,3.964,3.998c2.188,0,3.964-1.791,3.964-3.998L56.001,34
			C56.001,21.85,46.151,12,34.001,12z"/>
	</g>
</g>
<g>
</g>
<g>
</g>
<g>
</g>
<g>
</g>
<g>
</g>
<g>
</g>
<g>
</g>
<g>
</g>
<g>
</g>
<g>
</g>
<g>
</g>
<g>
</g>
<g>
</g>
<g>
</g>
<g>
</g>
</svg>
