<?xml version="1.0" encoding="iso-8859-1"?>
<!-- Generator: Adobe Illustrator 16.0.0, SVG Export Plug-In . SVG Version: 6.00 Build 0)  -->
<!DOCTYPE svg PUBLIC "-//W3C//DTD SVG 1.1//EN" "http://www.w3.org/Graphics/SVG/1.1/DTD/svg11.dtd">
<svg version="1.1" id="Layer_1" xmlns="http://www.w3.org/2000/svg" xmlns:xlink="http://www.w3.org/1999/xlink" x="0px" y="0px"
	 width="56.001px" height="64px" viewBox="0 0 56.001 64" style="enable-background:new 0 0 56.001 64;" xml:space="preserve">
<g id="Arrow_7_">
	<g>
		<path style="fill-rule:evenodd;clip-rule:evenodd;fill:#48A0DC;" d="M54.829,33.173l-10-10.001C44.105,22.448,43.106,22,42.001,22
			c-2.21,0-4,1.792-4,4.001c0,1.104,0.448,2.104,1.172,2.829l3.171,3.171H32c-5.336,0-10.228,1.9-14.037,5.061V13.619l3.209,3.209
			C21.896,17.553,22.896,18,24,18c2.21,0,4-1.79,4-4c0-1.104-0.448-2.104-1.171-2.829l-10-9.999C16.105,0.447,15.104,0,14,0
			s-2.104,0.447-2.828,1.172L1.171,11.171C0.447,11.896,0,12.896,0,14c0,2.21,1.791,4,4,4c1.104,0,2.104-0.447,2.829-1.172
			l3.206-3.206v39.167C10.013,53.19,10,53.595,10,54.001h0.035V60c0,2.211,1.775,4,3.964,4s3.964-1.789,3.964-4v-5.999H18
			c0-7.732,6.268-14,14-14h10.345l-3.172,3.172C38.449,43.896,38,44.896,38,46.001c0,2.21,1.791,4,4,4
			c1.105,0,2.104-0.448,2.829-1.171l10-10.001c0.725-0.724,1.172-1.724,1.172-2.828S55.554,33.896,54.829,33.173z"/>
	</g>
</g>
<g>
</g>
<g>
</g>
<g>
</g>
<g>
</g>
<g>
</g>
<g>
</g>
<g>
</g>
<g>
</g>
<g>
</g>
<g>
</g>
<g>
</g>
<g>
</g>
<g>
</g>
<g>
</g>
<g>
</g>
</svg>
