<?xml version="1.0" encoding="iso-8859-1"?>
<!-- Generator: Adobe Illustrator 16.0.0, SVG Export Plug-In . SVG Version: 6.00 Build 0)  -->
<!DOCTYPE svg PUBLIC "-//W3C//DTD SVG 1.1//EN" "http://www.w3.org/Graphics/SVG/1.1/DTD/svg11.dtd">
<svg version="1.1" id="Layer_1" xmlns="http://www.w3.org/2000/svg" xmlns:xlink="http://www.w3.org/1999/xlink" x="0px" y="0px"
	 width="64px" height="64.001px" viewBox="0 0 64 64.001" style="enable-background:new 0 0 64 64.001;" xml:space="preserve">
<g id="Arrow_5_">
	<g>
		<path style="fill-rule:evenodd;clip-rule:evenodd;fill:#48A0DC;" d="M62.828,11.171l-10-9.999C52.104,0.447,51.104,0,50,0
			s-2.104,0.447-2.828,1.172l-10.001,9.999C36.447,11.896,36,12.896,36,14c0,2.21,1.791,4,4,4c1.104,0,2.104-0.447,2.828-1.172
			l3.195-3.195L46,26.001c0,7.731-6.269,14-14,14c-7.732,0-14-6.269-14-14l-0.025-12.37l3.197,3.197C21.896,17.553,22.896,18,24,18
			c2.209,0,4-1.79,4-4c0-1.104-0.448-2.104-1.172-2.829l-10-9.999C16.104,0.447,15.104,0,14,0s-2.104,0.447-2.828,1.172
			L1.171,11.171C0.447,11.896,0,12.896,0,14c0,2.21,1.791,4,4,4c1.104,0,2.104-0.447,2.828-1.172l3.195-3.195L10,26.001
			c0,10.783,7.761,19.749,18,21.631v12.369c0,2.21,1.791,4,4,4s4-1.79,4-4V47.632c10.239-1.882,18-10.848,18-21.631l-0.025-12.37
			l3.197,3.197C57.896,17.553,58.896,18,60,18c2.209,0,4-1.79,4-4C64,12.896,63.552,11.896,62.828,11.171z"/>
	</g>
</g>
<g>
</g>
<g>
</g>
<g>
</g>
<g>
</g>
<g>
</g>
<g>
</g>
<g>
</g>
<g>
</g>
<g>
</g>
<g>
</g>
<g>
</g>
<g>
</g>
<g>
</g>
<g>
</g>
<g>
</g>
</svg>
