<?xml version="1.0" encoding="iso-8859-1"?>
<!-- Generator: Adobe Illustrator 16.0.0, SVG Export Plug-In . SVG Version: 6.00 Build 0)  -->
<!DOCTYPE svg PUBLIC "-//W3C//DTD SVG 1.1//EN" "http://www.w3.org/Graphics/SVG/1.1/DTD/svg11.dtd">
<svg version="1.1" id="Layer_1" xmlns="http://www.w3.org/2000/svg" xmlns:xlink="http://www.w3.org/1999/xlink" x="0px" y="0px"
	 width="56.001px" height="64px" viewBox="0 0 56.001 64" style="enable-background:new 0 0 56.001 64;" xml:space="preserve">
<g id="Arrow_6_">
	<g>
		<path style="fill-rule:evenodd;clip-rule:evenodd;fill:#48A0DC;" d="M52.003,32.036L32,32.001c-7.732,0-14-6.268-14-14h-0.037
			v-4.382l3.209,3.209C21.896,17.553,22.896,18,24,18c2.209,0,4-1.79,4-4c0-1.104-0.448-2.104-1.172-2.829l-10-9.999
			C16.104,0.447,15.104,0,14,0s-2.104,0.447-2.828,1.172L1.171,11.171C0.447,11.896,0,12.896,0,14c0,2.21,1.791,4,4,4
			c1.104,0,2.104-0.447,2.828-1.172l3.207-3.207v4.38H10c0,0.409,0.013,0.814,0.035,1.218V60c0,2.211,1.774,4,3.964,4
			s3.964-1.789,3.964-4V34.94c3.809,3.16,8.701,5.061,14.037,5.061l20.003-0.037c2.207,0,3.998-1.774,3.998-3.964
			S54.21,32.036,52.003,32.036z"/>
	</g>
</g>
<g>
</g>
<g>
</g>
<g>
</g>
<g>
</g>
<g>
</g>
<g>
</g>
<g>
</g>
<g>
</g>
<g>
</g>
<g>
</g>
<g>
</g>
<g>
</g>
<g>
</g>
<g>
</g>
<g>
</g>
</svg>
