<?xml version="1.0" encoding="iso-8859-1"?>
<!-- Generator: Adobe Illustrator 16.0.0, SVG Export Plug-In . SVG Version: 6.00 Build 0)  -->
<!DOCTYPE svg PUBLIC "-//W3C//DTD SVG 1.1//EN" "http://www.w3.org/Graphics/SVG/1.1/DTD/svg11.dtd">
<svg version="1.1" id="Layer_1" xmlns="http://www.w3.org/2000/svg" xmlns:xlink="http://www.w3.org/1999/xlink" x="0px" y="0px"
	 width="64.001px" height="56px" viewBox="0 0 64.001 56" style="enable-background:new 0 0 64.001 56;" xml:space="preserve">
<g id="Arrow">
	<g>
		<path style="fill-rule:evenodd;clip-rule:evenodd;fill:#48A0DC;" d="M44.001,28c0,2.209,1.79,4.001,4,4.001
			c1.104,0,2.104-0.448,2.829-1.172l12-12.001c0.701-0.701,1.134-1.663,1.16-2.727c0.001-0.034,0.011-0.066,0.011-0.101l0,0
			c0-0.001,0-0.001,0-0.001c0-1.104-0.447-2.104-1.171-2.829l-12-12C50.105,0.448,49.105,0,48.001,0c-2.21,0-4,1.791-4,4
			c0,1.104,0.447,2.104,1.172,2.828l5.199,5.199L22,12C9.85,12,0,21.85,0,34s9.85,22,22,22l38.003-0.034
			c2.207,0,3.998-1.775,3.998-3.965s-1.791-3.964-3.998-3.964L22,48c-7.732,0-14-6.269-14-14s6.268-14,14-14l28.37-0.026
			l-5.197,5.197C44.448,25.896,44.001,26.896,44.001,28z"/>
	</g>
</g>
<g>
</g>
<g>
</g>
<g>
</g>
<g>
</g>
<g>
</g>
<g>
</g>
<g>
</g>
<g>
</g>
<g>
</g>
<g>
</g>
<g>
</g>
<g>
</g>
<g>
</g>
<g>
</g>
<g>
</g>
</svg>
