<?xml version="1.0" encoding="iso-8859-1"?>
<!-- Generator: Adobe Illustrator 16.0.0, SVG Export Plug-In . SVG Version: 6.00 Build 0)  -->
<!DOCTYPE svg PUBLIC "-//W3C//DTD SVG 1.1//EN" "http://www.w3.org/Graphics/SVG/1.1/DTD/svg11.dtd">
<svg version="1.1" id="Layer_1" xmlns="http://www.w3.org/2000/svg" xmlns:xlink="http://www.w3.org/1999/xlink" x="0px" y="0px"
	 width="56.001px" height="60.001px" viewBox="0 0 56.001 60.001" style="enable-background:new 0 0 56.001 60.001;"
	 xml:space="preserve">
<g id="Arrow_2_">
	<g>
		<path style="fill-rule:evenodd;clip-rule:evenodd;fill:#48A0DC;" d="M56.001,16.001C56.001,16,56.001,16,56.001,16.001
			c0-1.105-0.447-2.105-1.171-2.83l-12-12C42.105,0.448,41.105,0,40.001,0c-2.21,0-4,1.791-4,4c0,1.104,0.447,2.104,1.172,2.828
			l5.196,5.197L22,12C9.85,12,0,21.85,0,34l0.034,22.003c0,2.207,1.775,3.998,3.965,3.998s3.964-1.791,3.964-3.998L8,34
			c0-7.731,6.268-14,14-14l20.367-0.023l-5.194,5.194c-0.725,0.725-1.172,1.725-1.172,2.829c0,2.209,1.79,4,4,4
			c1.104,0,2.104-0.447,2.829-1.171l12-12.001c0.701-0.701,1.134-1.663,1.16-2.727C55.991,16.067,56.001,16.035,56.001,16.001
			L56.001,16.001z"/>
	</g>
</g>
<g>
</g>
<g>
</g>
<g>
</g>
<g>
</g>
<g>
</g>
<g>
</g>
<g>
</g>
<g>
</g>
<g>
</g>
<g>
</g>
<g>
</g>
<g>
</g>
<g>
</g>
<g>
</g>
<g>
</g>
</svg>
