<?xml version="1.0" encoding="iso-8859-1"?>
<!-- Generator: Adobe Illustrator 16.0.0, SVG Export Plug-In . SVG Version: 6.00 Build 0)  -->
<!DOCTYPE svg PUBLIC "-//W3C//DTD SVG 1.1//EN" "http://www.w3.org/Graphics/SVG/1.1/DTD/svg11.dtd">
<svg version="1.1" id="Layer_1" xmlns="http://www.w3.org/2000/svg" xmlns:xlink="http://www.w3.org/1999/xlink" x="0px" y="0px"
	 width="44px" height="64.002px" viewBox="0 0 44 64.002" style="enable-background:new 0 0 44 64.002;" xml:space="preserve">
<g id="Arrow_4_">
	<g>
		<path style="fill-rule:evenodd;clip-rule:evenodd;fill:#48A0DC;" d="M26,32.37V13.656l3.172,3.172C29.896,17.553,30.896,18,32,18
			c2.209,0,4-1.79,4-4c0-1.104-0.448-2.104-1.172-2.829l-10-9.999C24.104,0.447,23.104,0,22,0s-2.104,0.447-2.828,1.172
			L9.171,11.171C8.447,11.896,8,12.896,8,14c0,2.21,1.791,4,4,4c1.104,0,2.104-0.447,2.828-1.172L18,13.656V32.37
			C7.761,34.252,0,43.218,0,54.001l0.037,6.003c0,2.207,1.774,3.998,3.964,3.998c2.188,0,3.964-1.791,3.964-3.998L8,54.001
			c0-7.732,6.268-14,14-14c7.731,0,14,6.268,14,14l0.037,6.003c0,2.207,1.774,3.998,3.964,3.998c2.188,0,3.964-1.791,3.964-3.998
			L44,54.001C44,43.218,36.239,34.252,26,32.37z"/>
	</g>
</g>
<g>
</g>
<g>
</g>
<g>
</g>
<g>
</g>
<g>
</g>
<g>
</g>
<g>
</g>
<g>
</g>
<g>
</g>
<g>
</g>
<g>
</g>
<g>
</g>
<g>
</g>
<g>
</g>
<g>
</g>
</svg>
