<?xml version="1.0" encoding="iso-8859-1"?>
<!-- Generator: Adobe Illustrator 16.0.0, SVG Export Plug-In . SVG Version: 6.00 Build 0)  -->
<!DOCTYPE svg PUBLIC "-//W3C//DTD SVG 1.1//EN" "http://www.w3.org/Graphics/SVG/1.1/DTD/svg11.dtd">
<svg version="1.1" id="Layer_1" xmlns="http://www.w3.org/2000/svg" xmlns:xlink="http://www.w3.org/1999/xlink" x="0px" y="0px"
	 width="64px" height="64px" viewBox="0 0 64 64" style="enable-background:new 0 0 64 64;" xml:space="preserve">
<g id="Helmet_3_">
	<g>
		<path style="fill:#E6E6E6;" d="M54,6c-6-6-22-6-22-6S16,0,10,6S2,18.416,2,24c0,7.958,2.333,30.166,10,34
			c7.666,3.833,12.666,6,20,6c7.333,0,12.333-2.167,20-6c7.666-3.834,10-26.042,10-34C62,18.416,60,12,54,6z"/>
	</g>
</g>
<g id="Helmet_Shadow">
	<g>
		<path style="fill:#CCCCCC;" d="M32,42c-11.5,0-21.099,5.395-23.442,12.594C9.565,56.141,10.7,57.35,12,58
			c7.666,3.833,12.666,6,20,6c7.333,0,12.333-2.167,20-6c1.3-0.65,2.435-1.859,3.442-3.406C53.099,47.395,43.5,42,32,42z"/>
	</g>
</g>
<g id="Stripes_8_">
	<g>
		<path style="fill:#ED7161;" d="M16,24h4V1.378c-1.354,0.309-2.709,0.681-4,1.144V24z M44,1.378V24h4V2.521
			C46.709,2.059,45.354,1.687,44,1.378z"/>
	</g>
</g>
<g id="Light_Body">
	<g>
		<path style="fill-rule:evenodd;clip-rule:evenodd;fill:#B3B3B3;" d="M4,8c-2.209,0-4,1.791-4,4v12c0,2.209,1.791,4,4,4
			s4-1.791,4-4V12C8,9.791,6.209,8,4,8z M60,8c-2.209,0-4,1.791-4,4v12c0,2.209,1.791,4,4,4s4-1.791,4-4V12C64,9.791,62.209,8,60,8z
			"/>
	</g>
</g>
<g id="Lights_2_">
	<g>
		<path style="fill-rule:evenodd;clip-rule:evenodd;fill:#464646;" d="M4,12c-1.104,0-2,0.896-2,2s0.896,2,2,2s2-0.896,2-2
			S5.104,12,4,12z M4,20c-1.104,0-2,0.895-2,2c0,1.104,0.896,2,2,2s2-0.896,2-2C6,20.895,5.104,20,4,20z M60,16c1.104,0,2-0.896,2-2
			s-0.896-2-2-2s-2,0.896-2,2S58.896,16,60,16z M60,20c-1.104,0-2,0.895-2,2c0,1.104,0.896,2,2,2s2-0.896,2-2
			C62,20.895,61.104,20,60,20z"/>
	</g>
</g>
<g id="Glass_12_">
	<g>
		<path style="fill:#4D4D4D;" d="M50,18c-6.838-1.642-18-2-18-2s-11.163,0.356-18,1.99c-6.838,1.634-6,15.926-6,15.926
			s0.234,12.177,4,15.925C18.206,56.019,25.794,56,30,56c-0.763,0-0.515,0.041,2,0c2.515,0.041,2.763,0,2,0
			c4.206,0,11.794,0.206,18-6c3.766-3.766,4-16,4-16S56.837,19.641,50,18z"/>
	</g>
</g>
<g>
</g>
<g>
</g>
<g>
</g>
<g>
</g>
<g>
</g>
<g>
</g>
<g>
</g>
<g>
</g>
<g>
</g>
<g>
</g>
<g>
</g>
<g>
</g>
<g>
</g>
<g>
</g>
<g>
</g>
</svg>
