<?xml version="1.0" encoding="iso-8859-1"?>
<!-- Generator: Adobe Illustrator 16.0.0, SVG Export Plug-In . SVG Version: 6.00 Build 0)  -->
<!DOCTYPE svg PUBLIC "-//W3C//DTD SVG 1.1//EN" "http://www.w3.org/Graphics/SVG/1.1/DTD/svg11.dtd">
<svg version="1.1" id="Layer_1" xmlns="http://www.w3.org/2000/svg" xmlns:xlink="http://www.w3.org/1999/xlink" x="0px" y="0px"
	 width="63.999px" height="64px" viewBox="0 0 63.999 64" style="enable-background:new 0 0 63.999 64;" xml:space="preserve">
<g id="Backpack">
	<g>
		<path style="fill:#B3B3B3;" d="M48,12H16c-4.418,0-8,3.582-8,8v32c0,4.418,3.582,8,8,8h32c4.418,0,8-3.582,8-8V20
			C56,15.582,52.418,12,48,12z"/>
	</g>
</g>
<g id="Backpack_1_">
	<g>
		<path style="fill:#999999;" d="M48,32H16c-4.418,0-8,3.582-8,8v12c0,4.418,3.582,8,8,8h32c4.418,0,8-3.582,8-8V40
			C56,35.582,52.418,32,48,32z"/>
	</g>
</g>
<g id="Shirt_1_">
	<g>
		<path style="fill-rule:evenodd;clip-rule:evenodd;fill:#CCCCCC;" d="M60,45.999c-1.881-1.88-18-10-18-10h-2L38,30H26l-2,5.999h-2
			c0,0-16.12,8.12-18,10c-3.761,3.76-4,18-4,18h63.999C63.999,63.999,63.76,49.759,60,45.999z"/>
	</g>
</g>
<g id="Pack">
	<g>
		<path style="fill:#B3B3B3;" d="M44,44H20c-2.209,0-4,1.791-4,4v10v2v4h4h24h4v-4v-2V48C48,45.791,46.209,44,44,44z"/>
	</g>
</g>
<g id="Display_1_">
	<g>
		<path style="fill:#9B7CAB;" d="M26,48h-4c-1.104,0-2,0.896-2,2v8c0,1.104,0.896,2,2,2h4c1.104,0,2-0.896,2-2v-8
			C28,48.896,27.104,48,26,48z"/>
	</g>
</g>
<g id="BTNS">
	<g>
		<path style="fill-rule:evenodd;clip-rule:evenodd;fill:#808080;" d="M34,48c-1.104,0-2,0.896-2,2s0.896,2,2,2s2-0.896,2-2
			S35.104,48,34,48z M34,56c-1.104,0-2,0.896-2,2s0.896,2,2,2s2-0.896,2-2S35.104,56,34,56z M42,56c-1.104,0-2,0.896-2,2
			s0.896,2,2,2s2-0.896,2-2S43.104,56,42,56z M42,52c1.104,0,2-0.896,2-2s-0.896-2-2-2s-2,0.896-2,2S40.896,52,42,52z"/>
	</g>
</g>
<g id="Red_Strip">
	<g>
		<path style="fill:#ED7161;" d="M3.999,46c-0.87,0.87-1.545,2.313-2.078,4H10v-4H3.999z"/>
	</g>
</g>
<g id="Blue_Strip">
	<g>
		<path style="fill:#48A0DC;" d="M1.371,52c-0.303,1.302-0.538,2.668-0.723,4H10v-4H1.371z"/>
	</g>
</g>
<g id="Helmet_2_">
	<g>
		<path style="fill:#E6E6E6;" d="M32,0c-9.941,0-18,8.059-18,18v6c0,9.941,8.059,14,18,14s18-4.059,18-14v-6C50,8.059,41.941,0,32,0
			z"/>
	</g>
</g>
<g id="Glass_10_">
	<g>
		<path style="fill:#4D4D4D;" d="M38,10H26c-4.418,0-8,3.582-8,8v6c0,8,8.208,10,14,10c5.958,0,14-2,14-10v-6
			C46,13.582,42.418,10,38,10z"/>
	</g>
</g>
<g id="Glass_11_">
	<g>
		<path style="fill:#717171;" d="M43.841,12.565C42.38,10.996,40.313,10,38,10H26c-2.313,0-4.381,0.997-5.841,2.566
			C20.06,13.079,20,13.565,20,13.999c0,6.001,0,10,2,14c0.945,1.893,2.366,3.771,4.006,5.239C28.019,33.787,30.134,34,32,34
			c1.885,0,3.978-0.202,5.959-0.729c1.655-1.474,3.088-3.366,4.041-5.271c2-4,2-7.999,2-14C44,13.565,43.939,13.078,43.841,12.565z"
			/>
	</g>
</g>
<g>
</g>
<g>
</g>
<g>
</g>
<g>
</g>
<g>
</g>
<g>
</g>
<g>
</g>
<g>
</g>
<g>
</g>
<g>
</g>
<g>
</g>
<g>
</g>
<g>
</g>
<g>
</g>
<g>
</g>
</svg>
