<?xml version="1.0" encoding="iso-8859-1"?>
<!-- Generator: Adobe Illustrator 16.0.0, SVG Export Plug-In . SVG Version: 6.00 Build 0)  -->
<!DOCTYPE svg PUBLIC "-//W3C//DTD SVG 1.1//EN" "http://www.w3.org/Graphics/SVG/1.1/DTD/svg11.dtd">
<svg version="1.1" id="Layer_1" xmlns="http://www.w3.org/2000/svg" xmlns:xlink="http://www.w3.org/1999/xlink" x="0px" y="0px"
	 width="64px" height="64px" viewBox="0 0 64 64" style="enable-background:new 0 0 64 64;" xml:space="preserve">
<g id="Head_4_">
	<g>
		<path style="fill-rule:evenodd;clip-rule:evenodd;fill:#808080;" d="M62,24h-6h-2h-2v4h2h2h6c1.104,0,2-0.896,2-2S63.104,24,62,24
			z M60,22h2c1.104,0,2-0.896,2-2s-0.896-2-2-2h-2c-1.104,0-2,0.896-2,2S58.896,22,60,22z"/>
	</g>
</g>
<g id="Head_5_">
	<g>
		<path style="fill-rule:evenodd;clip-rule:evenodd;fill:#B3B3B3;" d="M56,8h-8c-2.209,0-4,1.791-4,4v4c0,2.209,1.791,4,4,4h4v4h8
			v-4v-4v-4C60,9.791,58.209,8,56,8z"/>
	</g>
</g>
<g id="Body_33_">
	<g>
		<path style="fill:#CCCCCC;" d="M42,8c0-2.209-1.791-4-4-4H6C3.791,4,2,5.791,2,8L0,24c0,2.209,1.791,4,4,4h36c2.209,0,4-1.791,4-4
			L42,8z"/>
	</g>
</g>
<g id="Body_34_">
	<g>
		<path style="fill:#E6E6E6;" d="M30,4c0-2.209-1.791-4-4-4h-8c-2.209,0-4,1.791-4,4l-2,20c0,2.209,1.791,4,4,4h12
			c2.209,0,4-1.791,4-4L30,4z"/>
	</g>
</g>
<g id="Legs_3_">
	<g>
		<path style="fill-rule:evenodd;clip-rule:evenodd;fill:#CCCCCC;" d="M20.428,43.576c-0.014-0.053-0.037-0.099-0.054-0.149
			c-0.005-0.017-0.013-0.034-0.019-0.051c-0.033-0.092-0.069-0.182-0.114-0.266c-0.011-0.022-0.017-0.046-0.029-0.068l-6.233-11.257
			C13.87,30.783,13.031,30,12,30c-0.026,0-0.051,0.007-0.077,0.008c-0.335-0.007-0.676,0.071-0.987,0.259
			c-0.688,0.414-1.033,1.208-0.936,1.98v12.939c-0.049,0.104-0.095,0.211-0.126,0.326L6.072,57.422
			c-0.301,1.098,0.364,2.226,1.483,2.52s2.271-0.357,2.57-1.454l3.802-11.91c0.014-0.052,0.016-0.104,0.025-0.155
			c0.005-0.02,0.007-0.04,0.011-0.061c0.015-0.096,0.027-0.19,0.028-0.286C13.993,46.05,14,46.026,14,46v-6.225l2.523,4.557
			c0.009,0.114,0.022,0.229,0.051,0.343l3.491,13.859c0.275,1.094,1.361,1.734,2.425,1.431c1.064-0.303,1.704-1.435,1.429-2.528
			L20.428,43.576z M47.905,56.446l-4.554-13.469c-0.017-0.049-0.043-0.092-0.063-0.139c-0.009-0.021-0.02-0.041-0.028-0.062
			c-0.039-0.084-0.08-0.167-0.13-0.244c-0.013-0.022-0.021-0.045-0.035-0.067l-7.057-10.634c-0.092-1.089-1.05-1.902-2.147-1.817
			c-0.998,0.077-1.761,0.872-1.832,1.835c-0.034,0.241-0.027,0.488,0.026,0.729l0.988,12.644c-0.041,0.107-0.078,0.216-0.101,0.332
			l-2.714,12.08c-0.214,1.11,0.536,2.178,1.675,2.383s2.235-0.529,2.45-1.64l2.713-12.08c0.01-0.053,0.008-0.104,0.014-0.157
			c0.003-0.019,0.003-0.039,0.005-0.058c0.008-0.097,0.013-0.192,0.007-0.287c-0.001-0.025,0.004-0.05,0.002-0.076l-0.469-6.005
			l2.86,4.31c0.019,0.113,0.04,0.226,0.078,0.338l4.554,13.469c0.359,1.063,1.492,1.614,2.529,1.231
			C47.715,58.681,48.265,57.509,47.905,56.446z"/>
	</g>
</g>
<g id="Shape_16_">
	<g>
		<path style="fill-rule:evenodd;clip-rule:evenodd;fill:#B3B3B3;" d="M12,22c-3.314,0-6,2.686-6,6c0,3.313,2.686,6,6,6
			c3.313,0,6-2.687,6-6C18,24.686,15.313,22,12,22z M32,22c-3.314,0-6,2.686-6,6c0,3.313,2.686,6,6,6c3.313,0,6-2.687,6-6
			C38,24.686,35.313,22,32,22z"/>
	</g>
</g>
<g id="Legs_4_">
	<g>
		<path style="fill-rule:evenodd;clip-rule:evenodd;fill:#B3B3B3;" d="M10,56H6c-1.104,0-2,0.896-2,2v4v2h2h4h2v-2v-4
			C12,56.896,11.104,56,10,56z M24,56h-4c-1.104,0-2,0.896-2,2v4v2h2h4h2v-2v-4C26,56.896,25.104,56,24,56z M34,56h-4
			c-1.105,0-2,0.896-2,2v4v2h2h4h2v-2v-4C36,56.896,35.104,56,34,56z M48,56h-4c-1.104,0-2,0.896-2,2v4v2h2h4h2v-2v-4
			C50,56.896,49.104,56,48,56z"/>
	</g>
</g>
<g>
</g>
<g>
</g>
<g>
</g>
<g>
</g>
<g>
</g>
<g>
</g>
<g>
</g>
<g>
</g>
<g>
</g>
<g>
</g>
<g>
</g>
<g>
</g>
<g>
</g>
<g>
</g>
<g>
</g>
</svg>
