<?xml version="1.0" encoding="iso-8859-1"?>
<!-- Generator: Adobe Illustrator 16.0.0, SVG Export Plug-In . SVG Version: 6.00 Build 0)  -->
<!DOCTYPE svg PUBLIC "-//W3C//DTD SVG 1.1//EN" "http://www.w3.org/Graphics/SVG/1.1/DTD/svg11.dtd">
<svg version="1.1" id="Layer_1" xmlns="http://www.w3.org/2000/svg" xmlns:xlink="http://www.w3.org/1999/xlink" x="0px" y="0px"
	 width="64px" height="64.003px" viewBox="0 0 64 64.003" style="enable-background:new 0 0 64 64.003;" xml:space="preserve">
<g id="Banana_Tail">
	<g>
		<polygon style="fill:#E6B85C;" points="54,0 48,2 56,16 60,16 		"/>
	</g>
</g>
<g id="Banana">
	<g>
		<path style="fill:#CCA352;" d="M54,14c-6.379,0-8.011,10.334-22,20C15.552,45.364,0,40.18,0,44c0,10.617,17.054,10,30,10
			C40.26,54,64.379,14,54,14z"/>
	</g>
</g>
<g id="Banana_3_">
	<g>
		<path style="fill:#E6B85C;" d="M57.987,13.256C51.302,13.256,49.501,31.963,34,42C14.777,54.445,4,50.454,4,54
			c0,11.432,26.089,7.066,38,0c6.96-4.13,19.906-24.271,20-34C62.025,17.342,60.441,13.256,57.987,13.256z"/>
	</g>
</g>
<g id="Banana_2_">
	<g>
		<path style="fill:#FFCC66;" d="M58,12c-8.42,0-1.52,21.694-13.779,32.273C26.99,59.142,18,55.858,18,60c0,2.656,7.287,4.083,12,4
			c8.373-0.147,17.906-3.652,24-10c5.238-5.457,10-18.273,10-28C64,19.754,62.382,12,58,12z"/>
	</g>
</g>
<g>
</g>
<g>
</g>
<g>
</g>
<g>
</g>
<g>
</g>
<g>
</g>
<g>
</g>
<g>
</g>
<g>
</g>
<g>
</g>
<g>
</g>
<g>
</g>
<g>
</g>
<g>
</g>
<g>
</g>
</svg>
