<?xml version="1.0" encoding="iso-8859-1"?>
<!-- Generator: Adobe Illustrator 16.0.0, SVG Export Plug-In . SVG Version: 6.00 Build 0)  -->
<!DOCTYPE svg PUBLIC "-//W3C//DTD SVG 1.1//EN" "http://www.w3.org/Graphics/SVG/1.1/DTD/svg11.dtd">
<svg version="1.1" id="Layer_1" xmlns="http://www.w3.org/2000/svg" xmlns:xlink="http://www.w3.org/1999/xlink" x="0px" y="0px"
	 width="75.969px" height="64px" viewBox="0 0 75.969 64" style="enable-background:new 0 0 75.969 64;" xml:space="preserve">
<g id="Bat">
	<g>
		<path style="fill:#D9AC80;" d="M54,0c-6,0-30,36-38,44L4,56c-2,0-4,0-4,2s4,6,6,6s2-2,2-4l12-12c8-8,44-32,44-38S60,0,54,0z"/>
	</g>
</g>
<g id="Grip_4_">
	<g>
		<path style="fill-rule:evenodd;clip-rule:evenodd;fill:#A67C52;" d="M4,56l4,4l2-2l-2-6L4,56z M14,46l-4,4l4,4l2-2L14,46z"/>
	</g>
</g>
<g id="Grip_2_">
	<g>
		<path style="fill-rule:evenodd;clip-rule:evenodd;fill:#8C6845;" d="M8,52l2,6l4-4l-4-4L8,52z M16,44l-2,2l2,6l4-4L16,44z"/>
	</g>
</g>
<g id="Ball_5_">
	<g>
		<circle style="fill:#E6E6E6;" cx="51.969" cy="32.013" r="12"/>
	</g>
</g>
<g id="Ball_6_">
	<g>
		<path style="fill-rule:evenodd;clip-rule:evenodd;fill:#ED7161;" d="M55.969,24.013c0-1.212-0.184-2.38-0.518-3.482
			c-1.103-0.334-2.271-0.518-3.482-0.518c-0.349,0-0.692,0.023-1.034,0.052c0.662,1.165,1.045,2.509,1.045,3.943
			c0,4.419-3.582,8-8,8c-1.441,0-2.79-0.386-3.957-1.053c-0.031,0.35-0.054,0.7-0.054,1.058c0,1.212,0.184,2.38,0.518,3.482
			c1.103,0.334,2.271,0.518,3.482,0.518C50.596,36.013,55.969,30.64,55.969,24.013z M51.969,44.013c1.422,0,2.78-0.261,4.047-0.715
			c0.339-3.848,3.397-6.91,7.244-7.254c0.451-1.262,0.709-2.614,0.709-4.031C57.342,32.013,51.969,37.385,51.969,44.013z"/>
	</g>
</g>
<g>
</g>
<g>
</g>
<g>
</g>
<g>
</g>
<g>
</g>
<g>
</g>
<g>
</g>
<g>
</g>
<g>
</g>
<g>
</g>
<g>
</g>
<g>
</g>
<g>
</g>
<g>
</g>
<g>
</g>
</svg>
