<?xml version="1.0" encoding="iso-8859-1"?>
<!-- Generator: Adobe Illustrator 16.0.0, SVG Export Plug-In . SVG Version: 6.00 Build 0)  -->
<!DOCTYPE svg PUBLIC "-//W3C//DTD SVG 1.1//EN" "http://www.w3.org/Graphics/SVG/1.1/DTD/svg11.dtd">
<svg version="1.1" id="Layer_1" xmlns="http://www.w3.org/2000/svg" xmlns:xlink="http://www.w3.org/1999/xlink" x="0px" y="0px"
	 width="64px" height="64px" viewBox="0 0 64 64" style="enable-background:new 0 0 64 64;" xml:space="preserve">
<g id="Ball">
	<g>
		<circle style="fill:#FF8833;" cx="32" cy="32" r="32"/>
	</g>
</g>
<g id="Lines">
	<g>
		<path style="fill-rule:evenodd;clip-rule:evenodd;fill:#666666;" d="M22,26.031C22.65,26.013,23.312,26,24,26
			c2.157,0,4.182,0.051,6.113,0.136c1.42,13.891,16.452,22.658,26.012,26.874c0.879-1.008,1.701-2.067,2.45-3.181
			c-8.102-3.61-22.608-11.638-24.377-23.444c21.424,1.704,27.494,8.689,29.175,11.938c0.292-1.455,0.483-2.945,0.57-4.464
			c-0.516-1.182-5.049-9.639-29.786-11.494C35.427,15.726,44.433,14,50,14c2.721,0,5.847,0,8.458,0
			c-0.969-1.421-2.053-2.756-3.232-4c-1.601,0-3.355,0-5.226,0c-7.48,0-18.455,3.498-19.85,12.127C28.209,22.046,26.166,22,24,22
			c-0.622,0-1.223,0.009-1.813,0.021C23.665,6.683,33.542,1.648,36.888,0.371C35.294,0.127,33.662,0,32,0
			c0,0-12.204,5.236-13.82,22.213c-1.53,0.117-2.937,0.278-4.224,0.476c-0.402-6.033-3.578-9.194-6.798-10.854
			c-0.859,1.058-1.652,2.171-2.373,3.334c2.479,1.179,5.027,3.548,5.198,8.325c-7.669,1.988-9.525,5.354-9.897,6.267
			C0.036,30.5,0,31.246,0,32c0,0.637,0.024,1.267,0.061,1.894C0.415,33.29,2.613,30,9.558,27.86
			c-1.29,5.979-5.104,12.038-7.506,15.42c0.505,1.342,1.095,2.642,1.769,3.89c3.658-4.982,8.786-13.031,9.937-20.32
			c1.296-0.238,2.712-0.434,4.248-0.578C18.084,58.028,32,64,32,64c1.689,0,3.348-0.133,4.966-0.386
			C33.428,62.041,22.009,54.739,22,26.031z"/>
	</g>
</g>
<g>
</g>
<g>
</g>
<g>
</g>
<g>
</g>
<g>
</g>
<g>
</g>
<g>
</g>
<g>
</g>
<g>
</g>
<g>
</g>
<g>
</g>
<g>
</g>
<g>
</g>
<g>
</g>
<g>
</g>
</svg>
