<?xml version="1.0" encoding="iso-8859-1"?>
<!-- Generator: Adobe Illustrator 16.0.0, SVG Export Plug-In . SVG Version: 6.00 Build 0)  -->
<!DOCTYPE svg PUBLIC "-//W3C//DTD SVG 1.1//EN" "http://www.w3.org/Graphics/SVG/1.1/DTD/svg11.dtd">
<svg version="1.1" id="Layer_1" xmlns="http://www.w3.org/2000/svg" xmlns:xlink="http://www.w3.org/1999/xlink" x="0px" y="0px"
	 width="60px" height="63.995px" viewBox="0 0 60 63.995" style="enable-background:new 0 0 60 63.995;" xml:space="preserve">
<g id="Handle_5_">
	<g>
		<path style="fill:#CCCCCC;" d="M52,15.999H42c-3.724,0-4.008,2.555-4.006,6c0.002,0,0.004-0.001,0.006-0.001h12
			c2.209,0,4,1.791,4,4v11.999c0,2.209-1.791,4-4,4H38c-0.002,0-0.004-0.001-0.006-0.001c-0.002,3.444,0.282,6,4.006,6h10
			c4.418,0,8-3.581,8-7.999V23.998C60,19.58,56.418,15.999,52,15.999z"/>
	</g>
</g>
<g id="Mug">
	<g>
		<path style="fill:#E6E6E6;" d="M46,7.999H2c-1.104,0-2,0.896-2,2v10v33.997v5.999c0,2.209,1.791,4,4,4h40c2.209,0,4-1.791,4-4
			v-5.999V19.999v-10C48,8.895,47.104,7.999,46,7.999z"/>
	</g>
</g>
<g id="Beer">
	<g>
		<path style="fill:#F6AE1D;" d="M42,15.999H6H4v2v9.999v7.999v9.999v6c0,2.209,1.791,3.999,4,3.999h32c2.209,0,4-1.79,4-3.999v-6
			v-9.999v-7.999v-9.999v-2H42z"/>
	</g>
</g>
<g id="Foam">
	<g>
		<path style="fill-rule:evenodd;clip-rule:evenodd;fill:#E6E6E6;" d="M16,47.996c0-1.104-0.896-2-2-2s-2,0.896-2,2s0.896,2,2,2
			S16,49.101,16,47.996z M22,49.996c-1.104,0-2,0.896-2,2s0.896,2,2,2s2-0.896,2-2S23.104,49.996,22,49.996z M30,51.996
			c-0.366,0-0.705,0.105-1,0.277c-0.295-0.172-0.634-0.277-1-0.277c-1.104,0-2,0.896-2,2s0.896,2,2,2c0.366,0,0.705-0.105,1-0.277
			c0.295,0.172,0.634,0.277,1,0.277c1.104,0,2-0.896,2-2S31.104,51.996,30,51.996z M16,53.996c-1.104,0-2,0.896-2,2
			s0.896,1.999,2,1.999s2-0.895,2-1.999S17.104,53.996,16,53.996z M42,2c-1.731,0-3.287,0.737-4.382,1.91
			C36.769,1.629,34.578,0,32,0c-1.856,0-3.515,0.844-4.615,2.167C26.939,2.062,26.478,2,26,2c-1.731,0-3.287,0.737-4.382,1.91
			C20.769,1.628,18.577,0,16,0c-2.088,0-3.925,1.068-5,2.686C9.925,1.068,8.088,0,6,0C2.687,0,0,2.687,0,5.999
			c0,2.618,1.68,4.838,4.018,5.658C4.011,11.771,4,11.883,4,11.999c0,3.313,2.687,6,6,6c1.539,0,2.938-0.584,4-1.537
			c1.062,0.953,2.461,1.537,4,1.537c0.478,0,0.94-0.062,1.385-0.167c0.684,0.823,1.586,1.454,2.615,1.818v18.347
			c0,1.104,0.896,2,2,2s2-0.896,2-2V19.65c0.917-0.325,1.731-0.865,2.382-1.562C29,19.748,30.328,21.058,32,21.65v6.348
			c0,1.104,0.896,1.999,2,1.999s2-0.895,2-1.999V21.65c1.788-0.634,3.188-2.085,3.741-3.91c1.913-0.58,3.42-2.087,4-4
			C46.205,12.994,48,10.707,48,7.999C48,4.686,45.313,2,42,2z"/>
	</g>
</g>
<g>
</g>
<g>
</g>
<g>
</g>
<g>
</g>
<g>
</g>
<g>
</g>
<g>
</g>
<g>
</g>
<g>
</g>
<g>
</g>
<g>
</g>
<g>
</g>
<g>
</g>
<g>
</g>
<g>
</g>
</svg>
