<?xml version="1.0" encoding="iso-8859-1"?>
<!-- Generator: Adobe Illustrator 16.0.0, SVG Export Plug-In . SVG Version: 6.00 Build 0)  -->
<!DOCTYPE svg PUBLIC "-//W3C//DTD SVG 1.1//EN" "http://www.w3.org/Graphics/SVG/1.1/DTD/svg11.dtd">
<svg version="1.1" id="Layer_1" xmlns="http://www.w3.org/2000/svg" xmlns:xlink="http://www.w3.org/1999/xlink" x="0px" y="0px"
	 width="64px" height="64px" viewBox="0 0 64 64" style="enable-background:new 0 0 64 64;" xml:space="preserve">
<g id="Lines_3_">
	<g>
		<path style="fill-rule:evenodd;clip-rule:evenodd;fill:#E6E6E6;" d="M61.992,38.616l-1.915-0.528l0.737-1.865l-19.23-7.782
			L30.019,8.938l-1.702,1.033l0.481-1.948L4.978,1.997L4.015,5.894l23.022,5.824l10.98,18.517l-7.574,19.158l1.843,0.746
			l-0.821,1.829l21.836,10.041l0.821-1.828l1.915,0.528L61.992,38.616z M41.332,32.665l16.364,6.622L52.82,57.375l-17.986-8.271
			L41.332,32.665z"/>
	</g>
</g>
<g id="Stars">
	<g>
		<path style="fill-rule:evenodd;clip-rule:evenodd;fill:#999999;" d="M4,0C1.791,0,0,1.791,0,4s1.791,4,4,4s4-1.791,4-4
			S6.209,0,4,0z M32,10c0-2.209-1.791-4-4-4s-4,1.791-4,4s1.791,4,4,4S32,12.209,32,10z M40,26c-2.209,0-4,1.791-4,4s1.791,4,4,4
			s4-1.791,4-4S42.209,26,40,26z M60,34c-2.209,0-4,1.791-4,4s1.791,4,4,4s4-1.791,4-4S62.209,34,60,34z M32,46
			c-2.209,0-4,1.791-4,4s1.791,4,4,4s4-1.791,4-4S34.209,46,32,46z M54,56c-2.209,0-4,1.791-4,4s1.791,4,4,4s4-1.791,4-4
			S56.209,56,54,56z"/>
	</g>
</g>
<g>
</g>
<g>
</g>
<g>
</g>
<g>
</g>
<g>
</g>
<g>
</g>
<g>
</g>
<g>
</g>
<g>
</g>
<g>
</g>
<g>
</g>
<g>
</g>
<g>
</g>
<g>
</g>
<g>
</g>
</svg>
