<?xml version="1.0" encoding="iso-8859-1"?>
<!-- Generator: Adobe Illustrator 16.0.0, SVG Export Plug-In . SVG Version: 6.00 Build 0)  -->
<!DOCTYPE svg PUBLIC "-//W3C//DTD SVG 1.1//EN" "http://www.w3.org/Graphics/SVG/1.1/DTD/svg11.dtd">
<svg version="1.1" id="Layer_1" xmlns="http://www.w3.org/2000/svg" xmlns:xlink="http://www.w3.org/1999/xlink" x="0px" y="0px"
	 width="60px" height="64.001px" viewBox="0 0 60 64.001" style="enable-background:new 0 0 60 64.001;" xml:space="preserve">
<g id="Green">
	<g>
		<path style="fill:#75A64B;" d="M32,14.002c-2.209,0-4,0.894-4,1.999v32c0,1.106,1.791,2.001,4,2.001c0.377,0,28-2.001,28-2.001
			v-36L32,14.002z"/>
	</g>
</g>
<g id="Yellow">
	<g>
		<polygon style="fill-rule:evenodd;clip-rule:evenodd;fill:#E6B85C;" points="34,42.002 50,30.002 34,20.001 		"/>
	</g>
</g>
<g id="Black">
	<g>
		<path style="fill-rule:evenodd;clip-rule:evenodd;fill:#1A1A1A;" d="M36,26.002v7.999c2.209,0,4-1.79,4-3.999
			S38.209,26.002,36,26.002z"/>
	</g>
</g>
<g id="Back_5_">
	<g>
		<path style="fill:#638C3F;" d="M28,36.001v8v4c0-1.104,1.791-2,4-2s4-0.896,4-2v-8H28z"/>
	</g>
</g>
<g id="Green_1_">
	<g>
		<path style="fill:#88C057;" d="M32,6.001c-0.543,0-20,2-20,2v36c0,0,19.457-1.999,20-1.999c2.209,0,4,0.894,4,1.999v-36
			C36,6.896,34.209,6.001,32,6.001z"/>
	</g>
</g>
<g id="Yellow_1_">
	<g>
		<polygon style="fill-rule:evenodd;clip-rule:evenodd;fill:#FFCC66;" points="36,36.001 36,14.002 20,26.002 		"/>
	</g>
</g>
<g id="Black_1_">
	<g>
		<path style="fill-rule:evenodd;clip-rule:evenodd;fill:#333333;" d="M36,22.001c-2.209,0-4,1.792-4,4.001s1.791,4,4,4V22.001z"/>
	</g>
</g>
<g id="Pole_5_">
	<g>
		<path style="fill-rule:evenodd;clip-rule:evenodd;fill:#CCCCCC;" d="M18,60h-6V7.446c1.19-0.693,2-1.969,2-3.445
			C14,1.792,12.209,0,10,0S6,1.792,6,4.001c0,1.477,0.81,2.752,2,3.445V60H2c-1.105,0-2,0.896-2,2.001s0.895,2,2,2h16
			c1.104,0,2-0.896,2-2S19.104,60,18,60z"/>
	</g>
</g>
<g>
</g>
<g>
</g>
<g>
</g>
<g>
</g>
<g>
</g>
<g>
</g>
<g>
</g>
<g>
</g>
<g>
</g>
<g>
</g>
<g>
</g>
<g>
</g>
<g>
</g>
<g>
</g>
<g>
</g>
</svg>
