<?xml version="1.0" encoding="iso-8859-1"?>
<!-- Generator: Adobe Illustrator 16.0.0, SVG Export Plug-In . SVG Version: 6.00 Build 0)  -->
<!DOCTYPE svg PUBLIC "-//W3C//DTD SVG 1.1//EN" "http://www.w3.org/Graphics/SVG/1.1/DTD/svg11.dtd">
<svg version="1.1" id="Layer_1" xmlns="http://www.w3.org/2000/svg" xmlns:xlink="http://www.w3.org/1999/xlink" x="0px" y="0px"
	 width="63.976px" height="63.995px" viewBox="0 0 63.976 63.995" style="enable-background:new 0 0 63.976 63.995;"
	 xml:space="preserve">
<g id="Bread_Crust">
	<g>
		<path style="fill:#A67C52;" d="M62.017,11.999C65.586,7.875,63.896,5.438,60.013,4c-4.806-1.779-19.741-4-28.057-4
			S8.751,2.221,3.955,4c-3.875,1.438-5.563,3.875-2,7.999c3.563,4.125,0.98,27.108,0,37.997s-0.321,13.999,8,13.999h22.001H54
			c8.339,0,8.999-3.11,8.017-13.999S58.447,16.124,62.017,11.999z"/>
	</g>
</g>
<g id="Bread">
	<g>
		<path style="fill:#ECD0B4;" d="M57.958,49.996c-0.768-8.507-4.306-33.399-1.517-36.622c2.788-3.223,1.467-5.127-1.566-6.25
			C51.121,5.734,37.453,4,30.956,4C24.46,4,12.827,5.734,9.08,7.124c-3.027,1.123-4.346,3.027-1.563,6.25S6.721,41.489,5.955,49.996
			s1.312,10,7.813,10h17.188h19.223C56.692,59.996,58.725,58.503,57.958,49.996z"/>
	</g>
</g>
<g id="Dots_1_">
	<g>
		<path style="fill-rule:evenodd;clip-rule:evenodd;fill:#CFB090;" d="M21.956,17.999c1.104,0,2-0.896,2-2s-0.896-2-2-2
			s-2,0.896-2,2S20.852,17.999,21.956,17.999z M29.956,33.997c-1.104,0-2,0.896-2,2s0.896,2,2,2s2-0.896,2-2
			S31.061,33.997,29.956,33.997z M41.957,41.997c-1.104,0-2,0.896-2,2s0.896,2,2,2s2-0.896,2-2S43.062,41.997,41.957,41.997z
			 M41.957,21.998c-2.209,0-4,1.791-4,4s1.791,4,4,4s4-1.791,4-4S44.166,21.998,41.957,21.998z M21.956,43.997c-2.209,0-4,1.79-4,4
			c0,2.208,1.791,3.999,4,3.999s4-1.791,4-3.999C25.956,45.787,24.165,43.997,21.956,43.997z M19.956,29.998c0-1.104-0.896-2-2-2
			s-2,0.896-2,2s0.896,2,2,2S19.956,31.103,19.956,29.998z M43.957,15.999c1.104,0,2-0.896,2-2s-0.896-2-2-2s-2,0.896-2,2
			S42.853,15.999,43.957,15.999z"/>
	</g>
</g>
<g>
</g>
<g>
</g>
<g>
</g>
<g>
</g>
<g>
</g>
<g>
</g>
<g>
</g>
<g>
</g>
<g>
</g>
<g>
</g>
<g>
</g>
<g>
</g>
<g>
</g>
<g>
</g>
<g>
</g>
</svg>
