<?xml version="1.0" encoding="iso-8859-1"?>
<!-- Generator: Adobe Illustrator 16.0.0, SVG Export Plug-In . SVG Version: 6.00 Build 0)  -->
<!DOCTYPE svg PUBLIC "-//W3C//DTD SVG 1.1//EN" "http://www.w3.org/Graphics/SVG/1.1/DTD/svg11.dtd">
<svg version="1.1" id="Layer_1" xmlns="http://www.w3.org/2000/svg" xmlns:xlink="http://www.w3.org/1999/xlink" x="0px" y="0px"
	 width="60px" height="64.001px" viewBox="0 0 60 64.001" style="enable-background:new 0 0 60 64.001;" xml:space="preserve">
<g id="Red_5_">
	<g>
		<path style="fill-rule:evenodd;clip-rule:evenodd;fill:#ED7161;" d="M50,12.716v36.008c5.439-0.393,10-0.723,10-0.723v-36
			L50,12.716z"/>
	</g>
</g>
<g id="White_2_">
	<g>
		<path style="fill-rule:evenodd;clip-rule:evenodd;fill:#CCCCCC;" d="M50,12.716l-18,1.286c-2.209,0-4,0.894-4,1.999v32
			c0,1.106,1.791,2.001,4,2.001c0.224,0,10.051-0.705,18-1.278V12.716z"/>
	</g>
</g>
<g id="Back_2_">
	<g>
		<path style="fill:#B3B3B3;" d="M28,36.001v8v4c0-1.104,1.791-2,4-2s4-0.896,4-2v-8H28z"/>
	</g>
</g>
<g id="White_3_">
	<g>
		<path style="fill-rule:evenodd;clip-rule:evenodd;fill:#E6E6E6;" d="M32,6.001c-0.305,0-6.564,0.63-12,1.183v36
			c5.436-0.553,11.695-1.182,12-1.182c2.209,0,4,0.894,4,1.999v-36C36,6.896,34.209,6.001,32,6.001z"/>
	</g>
</g>
<g id="Red_6_">
	<g>
		<path style="fill-rule:evenodd;clip-rule:evenodd;fill:#ED7161;" d="M20,7.184c-4.252,0.432-8,0.817-8,0.817v36
			c0,0,3.748-0.385,8-0.817V7.184z"/>
	</g>
</g>
<g id="Leaf">
	<g>
		<path style="fill:#ED7161;" d="M34.258,18.359c-0.295,0.297-2.172-0.436-2.172-0.436c-0.164,2.271,1.287,3.939,0.435,4.796
			c-0.492,0.494-2.784-1.743-5.212-1.743c0,3.654,1.476,4.622,0.869,5.23c-0.607,0.609-2.172,1.309-2.172,1.309
			s2.73,0.997,4.344,2.615c0.554,0.557,0.558,1.184-0.001,1.744c-0.807,0.811-1.737,0.872-1.737,0.872
			c1.502,1.507,4.441,1.646,5.646,0.437c0.761-0.764,0.839-1.744,1.737-1.744V14C35.995,14,35.144,17.471,34.258,18.359z"/>
	</g>
</g>
<g id="Leaf_1_">
	<g>
		<path style="fill:#D46557;" d="M41.65,34.182c1.613-1.624,4.343-2.623,4.343-2.623s-1.564-0.701-2.171-1.313
			c-0.607-0.611,0.868-1.582,0.868-5.248c-2.427,0-4.72,2.244-5.212,1.749c-0.853-0.858,0.599-2.532,0.435-4.811
			c0,0-1.876,0.734-2.172,0.437C36.855,21.482,36.004,18,36.004,18v17.494c0.898,0,0.977,0.983,1.737,1.749
			c1.205,1.214,4.145,1.075,5.646-0.438c0,0-0.931-0.062-1.737-0.874C41.092,35.369,41.096,34.74,41.65,34.182z"/>
	</g>
</g>
<g id="Pole_2_">
	<g>
		<path style="fill-rule:evenodd;clip-rule:evenodd;fill:#CCCCCC;" d="M18,60h-6V7.446c1.19-0.693,2-1.969,2-3.445
			C14,1.792,12.209,0,10,0S6,1.792,6,4.001c0,1.477,0.81,2.752,2,3.445V60H2c-1.105,0-2,0.896-2,2.001s0.895,2,2,2h16
			c1.104,0,2-0.896,2-2S19.104,60,18,60z"/>
	</g>
</g>
<g>
</g>
<g>
</g>
<g>
</g>
<g>
</g>
<g>
</g>
<g>
</g>
<g>
</g>
<g>
</g>
<g>
</g>
<g>
</g>
<g>
</g>
<g>
</g>
<g>
</g>
<g>
</g>
<g>
</g>
</svg>
