<?xml version="1.0" encoding="iso-8859-1"?>
<!-- Generator: Adobe Illustrator 16.0.0, SVG Export Plug-In . SVG Version: 6.00 Build 0)  -->
<!DOCTYPE svg PUBLIC "-//W3C//DTD SVG 1.1//EN" "http://www.w3.org/Graphics/SVG/1.1/DTD/svg11.dtd">
<svg version="1.1" id="Layer_1" xmlns="http://www.w3.org/2000/svg" xmlns:xlink="http://www.w3.org/1999/xlink" x="0px" y="0px"
	 width="64.004px" height="63.995px" viewBox="0 0 64.004 63.995" style="enable-background:new 0 0 64.004 63.995;"
	 xml:space="preserve">
<g id="Cheese">
	<g>
		<path style="fill:#FFCC66;" d="M64.004,21.998V4c0-2.209-1.791-4-4.001-4h-8c0,4.418-3.582,7.999-8,7.999
			c-4.419,0-8.001-3.581-8.001-7.999H4.001C1.792,0,0,1.791,0,4v7.999c4.419,0,8.001,3.582,8.001,7.999c0,4.419-3.582,8-8.001,8
			v31.998c0,2.209,1.792,3.999,4.001,3.999h40.535c-1.587-2.27-2.533-5.02-2.533-7.999c0-7.731,6.268-13.999,14-13.999
			c2.98,0,5.73,0.946,8.001,2.533V29.998c-2.21,0-4.001-1.791-4.001-4S61.794,21.998,64.004,21.998z M12.001,53.996
			c-1.104,0-2-0.896-2-2s0.896-2,2-2s2,0.896,2,2S13.105,53.996,12.001,53.996z M18.002,23.998c0-4.418,3.582-7.999,8-7.999
			s8,3.581,8,7.999s-3.582,8-8,8S18.002,28.416,18.002,23.998z M32.002,47.997c-2.209,0-4-1.791-4-4s1.791-4,4-4s4,1.791,4,4
			S34.211,47.997,32.002,47.997z"/>
	</g>
</g>
<g>
</g>
<g>
</g>
<g>
</g>
<g>
</g>
<g>
</g>
<g>
</g>
<g>
</g>
<g>
</g>
<g>
</g>
<g>
</g>
<g>
</g>
<g>
</g>
<g>
</g>
<g>
</g>
<g>
</g>
</svg>
