<?xml version="1.0" encoding="iso-8859-1"?>
<!-- Generator: Adobe Illustrator 16.0.0, SVG Export Plug-In . SVG Version: 6.00 Build 0)  -->
<!DOCTYPE svg PUBLIC "-//W3C//DTD SVG 1.1//EN" "http://www.w3.org/Graphics/SVG/1.1/DTD/svg11.dtd">
<svg version="1.1" id="Layer_1" xmlns="http://www.w3.org/2000/svg" xmlns:xlink="http://www.w3.org/1999/xlink" x="0px" y="0px"
	 width="64.01px" height="64.053px" viewBox="0 0 64.01 64.053" style="enable-background:new 0 0 64.01 64.053;"
	 xml:space="preserve">
<g id="Bone">
	<g>
		<path style="fill:#CCCCCC;" d="M62.289,7.278c-1.07-1.072-2.455-1.622-3.859-1.692c-0.07-1.406-0.62-2.792-1.691-3.864
			c-2.299-2.301-6.034-2.294-8.342,0.017c-2.309,2.311-2.316,6.049-0.017,8.351l-12.538,12.55c-1.539,1.54-1.544,4.032-0.012,5.567
			c1.533,1.533,4.023,1.528,5.563-0.012l12.538-12.55c2.299,2.302,6.034,2.294,8.343-0.017C64.582,13.318,64.589,9.579,62.289,7.278
			z"/>
	</g>
</g>
<g id="Meet">
	<g>
		<path style="fill:#D1975D;" d="M40.796,23.233c-2.743-2.746-5.31-1.919-9.729-1.373c-5.46,0.674-12.987,1.887-18.09,6.994
			C8.723,33.112,1.646,39.495,0.433,44.187c-1.42,5.493,0.835,11.991,4.142,15.301c3.29,3.293,9.83,5.537,15.287,4.146
			c4.713-1.203,11.04-8.272,15.319-12.556c5.145-5.15,6.349-12.606,6.987-18.105C42.676,28.602,43.511,25.95,40.796,23.233z"/>
	</g>
</g>
<g>
</g>
<g>
</g>
<g>
</g>
<g>
</g>
<g>
</g>
<g>
</g>
<g>
</g>
<g>
</g>
<g>
</g>
<g>
</g>
<g>
</g>
<g>
</g>
<g>
</g>
<g>
</g>
<g>
</g>
</svg>
