<?xml version="1.0" encoding="iso-8859-1"?>
<!-- Generator: Adobe Illustrator 16.0.0, SVG Export Plug-In . SVG Version: 6.00 Build 0)  -->
<!DOCTYPE svg PUBLIC "-//W3C//DTD SVG 1.1//EN" "http://www.w3.org/Graphics/SVG/1.1/DTD/svg11.dtd">
<svg version="1.1" id="Layer_1" xmlns="http://www.w3.org/2000/svg" xmlns:xlink="http://www.w3.org/1999/xlink" x="0px" y="0px"
	 width="60.001px" height="64px" viewBox="0 0 60.001 64" style="enable-background:new 0 0 60.001 64;" xml:space="preserve">
<g id="Red_11_">
	<g>
		<path style="fill:#D46557;" d="M32.001,14c-2.209,0-4,0.895-4,2v32c0,1.106,1.791,2,4,2c0.377,0,28-2,28-2V12L32.001,14z"/>
	</g>
</g>
<g id="Back_8_">
	<g>
		<path style="fill:#BA594C;" d="M28.001,36v8v4c0-1.104,1.791-2,4-2s4-0.896,4-2v-8H28.001z"/>
	</g>
</g>
<g id="Red_12_">
	<g>
		<path style="fill:#ED7161;" d="M32.001,6c-0.543,0-20,2.001-20,2.001V44c0,0,19.457-1.999,20-1.999c2.209,0,4,0.894,4,1.999V8.001
			C36.001,6.895,34.21,6,32.001,6z"/>
	</g>
</g>
<g id="Pole_8_">
	<g>
		<path style="fill-rule:evenodd;clip-rule:evenodd;fill:#CCCCCC;" d="M18,59.999h-5.999V7.445c1.19-0.693,2-1.969,2-3.445
			c0-2.209-1.791-4-4-4c-2.21,0-4,1.791-4,4c0,1.477,0.81,2.753,2,3.445v52.554h-6C0.896,59.999,0,60.896,0,62s0.896,2,2.001,2H18
			c1.105,0,2.001-0.896,2.001-2S19.105,59.999,18,59.999z"/>
	</g>
</g>
<g id="Star">
	<g>
		<path style="fill:#FFCC66;" d="M29.968,18.533c-0.075-0.246-0.271-0.429-0.511-0.477l-3.269-0.655l-1.606-3.04
			C24.465,14.139,24.242,14,24.001,14c-0.242,0-0.465,0.139-0.582,0.361l-1.606,3.04l-3.269,0.655
			c-0.24,0.048-0.436,0.23-0.511,0.477s-0.017,0.517,0.151,0.703l2.271,2.53l-0.412,3.438c-0.03,0.255,0.072,0.507,0.268,0.658
			C20.427,25.954,20.565,26,20.705,26c0.095,0,0.19-0.021,0.279-0.065l3.017-1.477l3.016,1.477C27.105,25.979,27.201,26,27.296,26
			c0.14,0,0.277-0.046,0.395-0.137c0.195-0.151,0.298-0.403,0.268-0.658l-0.412-3.438l2.271-2.53
			C29.984,19.05,30.042,18.779,29.968,18.533z"/>
	</g>
</g>
<g>
</g>
<g>
</g>
<g>
</g>
<g>
</g>
<g>
</g>
<g>
</g>
<g>
</g>
<g>
</g>
<g>
</g>
<g>
</g>
<g>
</g>
<g>
</g>
<g>
</g>
<g>
</g>
<g>
</g>
</svg>
