<?xml version="1.0" encoding="iso-8859-1"?>
<!-- Generator: Adobe Illustrator 16.0.0, SVG Export Plug-In . SVG Version: 6.00 Build 0)  -->
<!DOCTYPE svg PUBLIC "-//W3C//DTD SVG 1.1//EN" "http://www.w3.org/Graphics/SVG/1.1/DTD/svg11.dtd">
<svg version="1.1" id="Layer_1" xmlns="http://www.w3.org/2000/svg" xmlns:xlink="http://www.w3.org/1999/xlink" x="0px" y="0px"
	 width="48px" height="64px" viewBox="0 0 48 64" style="enable-background:new 0 0 48 64;" xml:space="preserve">
<g id="Upper_Helmet">
	<g>
		<path style="fill-rule:evenodd;clip-rule:evenodd;fill:#CCCCCC;" d="M30,4.835V4c0-2.209-1.791-4-4-4h-4c-2.209,0-4,1.791-4,4
			v0.835C8.767,7.448,2,15.931,2,26c0,12.149,9.85,22,22,22s22-9.851,22-22C46,15.931,39.233,7.448,30,4.835z"/>
	</g>
</g>
<g id="Lower_Helmet">
	<g>
		<path style="fill:#E6E6E6;" d="M46,46.555V24c0-2.209-1.791-3.438-4-4c0,0-6.97,0-18,0c-10.97,0-18,0-18,0c-2.334,0.5-4,1.791-4,4
			v22.555C0.81,47.247,0,48.523,0,50c0,2.209,1.791,4,4,4c0,0,7.894,10,19.84,10C35.894,64,44,54,44,54c2.209,0,4-1.791,4-4
			C48,48.523,47.19,47.247,46,46.555z"/>
	</g>
</g>
<g id="Red_Part">
	<g>
		<path style="fill-rule:evenodd;clip-rule:evenodd;fill:#ED7161;" d="M38,20v4H28V4c0-2.209-1.791-4-4-4s-4,1.791-4,4v20H10v-4H4
			v12h6c3.875,0,8,3.563,8,10c0,2.489,0.899,3.944,2,4.8V60c0,2.209,1.791,4,4,4s4-1.791,4-4V46.537c1.101-0.918,2-2.408,2-4.85
			C30,35.376,34.063,32,38,32h6v-4v-4v-4H38z"/>
	</g>
</g>
<g id="Divider_1_">
	<g>
		<path style="fill:#999999;" d="M44.552,20H3.379C2.524,21.229,2,22.775,2,24h44C46,22.767,45.43,21.228,44.552,20z"/>
	</g>
</g>
<g id="Eyes_and_Mouth">
	<g>
		<path style="fill:#464646;" d="M8,26v2c0,0,1.313,2,4,2c3.875,0,8,3.563,8,10c0,1.905,0.354,3.197,0.848,4.087
			C18.817,45.944,15.84,49.435,12,56c0,0,7.313-10,12-10s12,10,12,10c-3.866-6.609-6.86-10.107-8.892-11.954
			C27.618,43.156,28,41.905,28,40c0-6.313,4.063-10,8-10c2.688,0,4-2,4-2v-2H8z"/>
	</g>
</g>
<g>
</g>
<g>
</g>
<g>
</g>
<g>
</g>
<g>
</g>
<g>
</g>
<g>
</g>
<g>
</g>
<g>
</g>
<g>
</g>
<g>
</g>
<g>
</g>
<g>
</g>
<g>
</g>
<g>
</g>
</svg>
