<?xml version="1.0" encoding="iso-8859-1"?>
<!-- Generator: Adobe Illustrator 16.0.0, SVG Export Plug-In . SVG Version: 6.00 Build 0)  -->
<!DOCTYPE svg PUBLIC "-//W3C//DTD SVG 1.1//EN" "http://www.w3.org/Graphics/SVG/1.1/DTD/svg11.dtd">
<svg version="1.1" id="Layer_1" xmlns="http://www.w3.org/2000/svg" xmlns:xlink="http://www.w3.org/1999/xlink" x="0px" y="0px"
	 width="48px" height="64px" viewBox="0 0 48 64" style="enable-background:new 0 0 48 64;" xml:space="preserve">
<g id="Helmet_4_">
	<g>
		<path style="fill-rule:evenodd;clip-rule:evenodd;fill:#58694A;" d="M47.758,28.736C46.181,18.134,37.041,10,26,10
			C14.988,10,5.866,18.091,4.253,28.652C4.096,29.058,4,29.502,4,30v20v2v2v2l16,8h12l16-8v-2v-2v-2V30
			C48,29.533,47.905,29.119,47.758,28.736z"/>
	</g>
</g>
<g id="Eyes_and_Mouth_3_">
	<g>
		<path style="fill:#ED7161;" d="M26,26c-1.231,0.004-20,0.068-20,2c0,4,3.313,10,6,10c3.875,0,6,1.563,6,8s0,18,0,18h16
			c0,0,0-11.688,0-18c0-6.313,2.063-8,6-8c2.688,0,6-6.078,6-10C46,26.082,27.231,26.004,26,26z"/>
	</g>
</g>
<g id="Eyes_and_Mouth_2_">
	<g>
		<path style="fill-rule:evenodd;clip-rule:evenodd;fill:#464646;" d="M40,30H12c-1.104,0-2,0.895-2,2c0,1.104,0.896,2,2,2
			c5.875,0,10,3.563,10,10s0,20,0,20h8c0,0,0-13.688,0-20c0-6.313,4.063-10,10-10c1.104,0,2-0.896,2-2C42,30.895,41.104,30,40,30z"
			/>
	</g>
</g>
<g id="Antena_Shape">
	<g>
		<rect style="fill:#FFCC66;" width="4" height="56"/>
	</g>
</g>
<g id="Antena_2_">
	<g>
		<polygon style="fill:#464646;" points="0,0 0,6 12,2 12,0 		"/>
	</g>
</g>
<g>
</g>
<g>
</g>
<g>
</g>
<g>
</g>
<g>
</g>
<g>
</g>
<g>
</g>
<g>
</g>
<g>
</g>
<g>
</g>
<g>
</g>
<g>
</g>
<g>
</g>
<g>
</g>
<g>
</g>
</svg>
