<?xml version="1.0" encoding="iso-8859-1"?>
<!-- Generator: Adobe Illustrator 16.0.0, SVG Export Plug-In . SVG Version: 6.00 Build 0)  -->
<!DOCTYPE svg PUBLIC "-//W3C//DTD SVG 1.1//EN" "http://www.w3.org/Graphics/SVG/1.1/DTD/svg11.dtd">
<svg version="1.1" id="Layer_1" xmlns="http://www.w3.org/2000/svg" xmlns:xlink="http://www.w3.org/1999/xlink" x="0px" y="0px"
	 width="44px" height="63.995px" viewBox="0 0 44 63.995" style="enable-background:new 0 0 44 63.995;" xml:space="preserve">
<g id="Cup_2_">
	<g>
		<path style="fill:#D9D9D9;" d="M38,9.999H6c-1.104,0-2,0.896-2,2l2,49.996c0,1.104,0.896,2,2,2h28c1.104,0,2-0.896,2-2l2-49.996
			C40,10.895,39.104,9.999,38,9.999z"/>
	</g>
</g>
<g id="Hand_Protector">
	<g>
		<path style="fill:#A67C52;" d="M40,19.999H4c-1.104,0-2,0.895-2,2l2,23.997c0,1.104,0.896,2,2,2h32c1.104,0,2-0.896,2-2l2-23.997
			C42,20.894,41.104,19.999,40,19.999z"/>
	</g>
</g>
<g id="Label_2_">
	<g>
		<circle style="fill:#D0B499;" cx="22" cy="33.998" r="8"/>
	</g>
</g>
<g id="Cap">
	<g>
		<path style="fill:#B3B3B3;" d="M42,7.999H2c-1.104,0-2,0.896-2,2s0.896,2,2,2h40c1.104,0,2-0.896,2-2S43.104,7.999,42,7.999z"/>
	</g>
</g>
<g id="Cap_1_">
	<g>
		<path style="fill:#BFBFBF;" d="M38,4L6,0C4.896,0,4,0.896,4,2v2v3.999h36v-2C40,4.896,39.104,4,38,4z"/>
	</g>
</g>
<g>
</g>
<g>
</g>
<g>
</g>
<g>
</g>
<g>
</g>
<g>
</g>
<g>
</g>
<g>
</g>
<g>
</g>
<g>
</g>
<g>
</g>
<g>
</g>
<g>
</g>
<g>
</g>
<g>
</g>
</svg>
