<?xml version="1.0" encoding="iso-8859-1"?>
<!-- Generator: Adobe Illustrator 16.0.0, SVG Export Plug-In . SVG Version: 6.00 Build 0)  -->
<!DOCTYPE svg PUBLIC "-//W3C//DTD SVG 1.1//EN" "http://www.w3.org/Graphics/SVG/1.1/DTD/svg11.dtd">
<svg version="1.1" id="Layer_1" xmlns="http://www.w3.org/2000/svg" xmlns:xlink="http://www.w3.org/1999/xlink" x="0px" y="0px"
	 width="64px" height="44px" viewBox="0 0 64 44" style="enable-background:new 0 0 64 44;" xml:space="preserve">
<g id="Platform_1_">
	<g>
		<path style="fill:#999999;" d="M62,26L0,26.001v8c0,1.104,0.896,2,2,2L62,36c1.104,0,2-0.896,2-1.999V28
			C64,26.896,63.104,26,62,26z"/>
	</g>
</g>
<g id="Cabin_4_">
	<g>
		<path style="fill:#ED7161;" d="M18,4h-8C7.791,4,6.659,4.681,6,6c-4,8.001-6,12.001-6,12.001v12h8c0-4,6-4,6-4h8V8
			C22,5.791,20.209,4,18,4z"/>
	</g>
</g>
<g id="Window_4_">
	<g>
		<path style="fill:#E6E6E6;" d="M16,8h-6c-1.104,0-1.513,1.023-2,2c-4,8.001-4,8.001-4,8.001h12c1.104,0,2-0.896,2-2.001v-6
			C18,8.896,17.104,8,16,8z"/>
	</g>
</g>
<g id="Headlight_1_">
	<g>
		<path style="fill:#FFCC66;" d="M2,24H0v6h2c1.104,0,2-0.896,2-2v-1.999C4,24.896,3.104,24,2,24z"/>
	</g>
</g>
<g id="Tank_3_">
	<g>
		<path style="fill:#666666;" d="M36,28h-8c-1.105,0-2,0.896-2,2v4c0,1.104,0.895,2,2,2h8c1.104,0,2-0.896,2-2v-4
			C38,28.896,37.104,28,36,28z"/>
	</g>
</g>
<g id="Wheels_4_">
	<g>
		<path style="fill-rule:evenodd;clip-rule:evenodd;fill:#666666;" d="M48,28c-4.419,0-8,3.582-8,8s3.581,8,8,8c4.418,0,8-3.582,8-8
			S52.418,28,48,28z M16,28c-4.419,0-8,3.582-8,8s3.581,8,8,8c4.418,0,8-3.582,8-8S20.418,28,16,28z"/>
	</g>
</g>
<g id="Rims_3_">
	<g>
		<path style="fill-rule:evenodd;clip-rule:evenodd;fill:#B3B3B3;" d="M16,32c-2.21,0-4,1.791-4,4s1.79,3.999,4,3.999
			c2.209,0,4-1.79,4-3.999S18.209,32,16,32z M48,32c-2.21,0-4,1.791-4,4s1.79,3.999,4,3.999c2.209,0,4-1.79,4-3.999S50.209,32,48,32
			z"/>
	</g>
</g>
<g id="Support_1_">
	<g>
		<path style="fill:#CCCCCC;" d="M54,26.001h8v-20C58,6.001,54,26.001,54,26.001z"/>
	</g>
</g>
<g id="Tank_2_">
	<g>
		<path style="fill:#FFCC66;" d="M62,4.001C62,4.001,48,0,40,0C26,0,24,14.001,24,14.001l4,10c0,0,2,2,12,2s24-16,24-16L62,4.001z"
			/>
	</g>
</g>
<g>
</g>
<g>
</g>
<g>
</g>
<g>
</g>
<g>
</g>
<g>
</g>
<g>
</g>
<g>
</g>
<g>
</g>
<g>
</g>
<g>
</g>
<g>
</g>
<g>
</g>
<g>
</g>
<g>
</g>
</svg>
