<?xml version="1.0" encoding="iso-8859-1"?>
<!-- Generator: Adobe Illustrator 16.0.0, SVG Export Plug-In . SVG Version: 6.00 Build 0)  -->
<!DOCTYPE svg PUBLIC "-//W3C//DTD SVG 1.1//EN" "http://www.w3.org/Graphics/SVG/1.1/DTD/svg11.dtd">
<svg version="1.1" id="Layer_1" xmlns="http://www.w3.org/2000/svg" xmlns:xlink="http://www.w3.org/1999/xlink" x="0px" y="0px"
	 width="64px" height="64px" viewBox="0 0 64 64" style="enable-background:new 0 0 64 64;" xml:space="preserve">
<g id="Base_1_">
	<g>
		<path style="fill:#E67A2E;" d="M60,56H4c-2.209,0-4,1.791-4,4s1.791,4,4,4h56c2.209,0,4-1.791,4-4S62.209,56,60,56z"/>
	</g>
</g>
<g id="Cone">
	<g>
		<path style="fill:#FF8833;" d="M36,2c0,0-2-2-4-2s-4,2-4,2L12,56h40L36,2z"/>
	</g>
</g>
<g id="Stripes">
	<g>
		<path style="fill-rule:evenodd;clip-rule:evenodd;fill:#E6E6E6;" d="M46.074,36H17.926l-2.37,8h32.889L46.074,36z M40.148,16
			H23.852l-2.371,8h21.037L40.148,16z"/>
	</g>
</g>
<g>
</g>
<g>
</g>
<g>
</g>
<g>
</g>
<g>
</g>
<g>
</g>
<g>
</g>
<g>
</g>
<g>
</g>
<g>
</g>
<g>
</g>
<g>
</g>
<g>
</g>
<g>
</g>
<g>
</g>
</svg>
