<?xml version="1.0" encoding="iso-8859-1"?>
<!-- Generator: Adobe Illustrator 16.0.0, SVG Export Plug-In . SVG Version: 6.00 Build 0)  -->
<!DOCTYPE svg PUBLIC "-//W3C//DTD SVG 1.1//EN" "http://www.w3.org/Graphics/SVG/1.1/DTD/svg11.dtd">
<svg version="1.1" id="Layer_1" xmlns="http://www.w3.org/2000/svg" xmlns:xlink="http://www.w3.org/1999/xlink" x="0px" y="0px"
	 width="63.769px" height="63.996px" viewBox="0 0 63.769 63.996" style="enable-background:new 0 0 63.769 63.996;"
	 xml:space="preserve">
<g id="Cookie">
	<g>
		<path style="fill:#CA9A69;" d="M62,35.997c-2.698,0-4.953-1.792-5.708-4.242c-0.743,0.146-1.505,0.243-2.292,0.243
			c-6.628,0-12-5.372-12-11.999c0-1.892,0.477-3.656,1.256-5.248C40.14,13.058,38,9.796,38,6c0-1.87,0.546-3.599,1.438-5.096
			C37.048,0.335,34.565,0,32,0C14.326,0,0,14.326,0,31.998s14.326,31.998,32,31.998c16.418,0,29.93-12.37,31.769-28.294
			C63.206,35.876,62.62,35.997,62,35.997z M60,10c1.104,0,2-0.896,2-2c0-1.105-0.896-2-2-2s-2,0.895-2,2C58,9.104,58.896,10,60,10z
			 M48,19.999c0,2.209,1.791,4,4,4s4-1.791,4-4s-1.791-4-4-4S48,17.79,48,19.999z M50,10c2.209,0,4-1.791,4-4s-1.791-4-4-4
			s-4,1.791-4,4S47.791,10,50,10z"/>
	</g>
</g>
<g id="Flakes">
	<g>
		<path style="fill:#464646;" d="M24,41.997c-2.209,0-4,1.791-4,4s1.791,3.999,4,3.999s4-1.79,4-3.999S26.209,41.997,24,41.997z
			 M12,33.998c-1.104,0-2,0.896-2,1.999c0,1.104,0.896,2,2,2s2-0.896,2-2C14,34.894,13.104,33.998,12,33.998z M40,47.997
			c-1.104,0-2,0.895-2,1.999c0,1.105,0.896,2,2,2s2-0.895,2-2C42,48.892,41.104,47.997,40,47.997z M51.555,31.746
			c-2.51-0.52-4.704-1.846-6.372-3.665C42.259,28.482,40,30.965,40,33.998c0,3.313,2.686,5.999,6,5.999c3.313,0,6-2.686,6-5.999
			C52,33.2,51.837,32.441,51.555,31.746z M24,12c-5.523,0-10,4.477-10,9.998c0,5.523,4.477,10,10,10c5.522,0,10-4.477,10-10
			C34,16.477,29.522,12,24,12z"/>
	</g>
</g>
<g>
</g>
<g>
</g>
<g>
</g>
<g>
</g>
<g>
</g>
<g>
</g>
<g>
</g>
<g>
</g>
<g>
</g>
<g>
</g>
<g>
</g>
<g>
</g>
<g>
</g>
<g>
</g>
<g>
</g>
</svg>
