<?xml version="1.0" encoding="iso-8859-1"?>
<!-- Generator: Adobe Illustrator 16.0.0, SVG Export Plug-In . SVG Version: 6.00 Build 0)  -->
<!DOCTYPE svg PUBLIC "-//W3C//DTD SVG 1.1//EN" "http://www.w3.org/Graphics/SVG/1.1/DTD/svg11.dtd">
<svg version="1.1" id="Layer_1" xmlns="http://www.w3.org/2000/svg" xmlns:xlink="http://www.w3.org/1999/xlink" x="0px" y="0px"
	 width="64px" height="64px" viewBox="0 0 64 64" style="enable-background:new 0 0 64 64;" xml:space="preserve">
<g id="Base">
	<g>
		<path style="fill:#999999;" d="M30,56H10c-1.104,0-2,0.895-2,1.999v4C8,63.104,8.896,64,10,64h20c1.104,0,2-0.896,2-2.001v-4
			C32,56.895,31.104,56,30,56z"/>
	</g>
</g>
<g id="Crane">
	<g>
		<path style="fill-rule:evenodd;clip-rule:evenodd;fill:#ED7161;" d="M60,14c-2-2-2-2-4-2H26V1.999C26,0.895,25.104,0,24,0
			s-2,0.895-2,1.999v4l-4-4C18,0.895,17.104,0,16,0s-2,0.895-2,1.999V12H2c-1.104,0-2,0.895-2,2v4c0,1.104,0.896,2,2,2h12v35.999h4
			v-6l4,4v2h4V20h36c1,0,2-1.001,2-2C64,17,62,16,60,14z M18,8l4,4h-4V8z M22,48l-4-4v-6l4,4V48z M22,36l-4-4v-6l4,4V36z M22,24
			l-4-4h4V24z"/>
	</g>
</g>
<g id="Hook">
	<g>
		<path style="fill:#999999;" d="M56,36V20h-4v18c0,2,4,4,4,6c0,1.104-0.896,2-2,2s-2-0.896-2-2c0-1.105-0.896-2-2-2s-2,0.895-2,2
			c0,3.313,2.687,5.999,6,5.999s6-2.686,6-5.999C60,40,56,40,56,36z"/>
	</g>
</g>
<g id="Weight">
	<g>
		<path style="fill:#FFCC66;" d="M58,28h-8c-1.104,0-2,0.895-2,2v2l4,4h4l4-4v-2C60,28.895,59.104,28,58,28z"/>
	</g>
</g>
<g>
</g>
<g>
</g>
<g>
</g>
<g>
</g>
<g>
</g>
<g>
</g>
<g>
</g>
<g>
</g>
<g>
</g>
<g>
</g>
<g>
</g>
<g>
</g>
<g>
</g>
<g>
</g>
<g>
</g>
</svg>
