<?xml version="1.0" encoding="iso-8859-1"?>
<!-- Generator: Adobe Illustrator 16.0.0, SVG Export Plug-In . SVG Version: 6.00 Build 0)  -->
<!DOCTYPE svg PUBLIC "-//W3C//DTD SVG 1.1//EN" "http://www.w3.org/Graphics/SVG/1.1/DTD/svg11.dtd">
<svg version="1.1" id="Layer_1" xmlns="http://www.w3.org/2000/svg" xmlns:xlink="http://www.w3.org/1999/xlink" x="0px" y="0px"
	 width="64.009px" height="35.993px" viewBox="0 0 64.009 35.993" style="enable-background:new 0 0 64.009 35.993;"
	 xml:space="preserve">
<g id="Croissant">
	<g>
		<path style="fill-rule:evenodd;clip-rule:evenodd;fill:#CCA352;" d="M15.911,14.003c-7.471,1.639-20.896,10.013-14,19.963
			c3.245,4.052,5.378,0.788,8-1.996c3.183-3.379,4.291-2.197,10.693-3.603C33.146,25.615,28.453,11.25,15.911,14.003z
			 M48.062,14.372c-12.569-2.721-17.272,11.482-4.703,14.204c6.417,1.39,7.527,0.221,10.718,3.562
			c2.628,2.754,4.766,5.98,8.019,1.975C69.005,24.273,55.55,15.993,48.062,14.372z"/>
	</g>
</g>
<g id="Croissant_3_">
	<g>
		<path style="fill-rule:evenodd;clip-rule:evenodd;fill:#E6B85C;" d="M15.517,8.754c-4.025,1.716-9.371,6.397-9.718,11.261
			c0,5.223,7.561,9.972,11.998,9.972c7.442-1.454,12.197-4.336,13.182-11.854C31.9,11.096,22.423,5.812,15.517,8.754z M48.803,8.192
			c-6.827-3.015-16.197,2.4-15.286,9.608c0.973,7.702,6.563,10.949,13.92,12.439c4.387-3.437,8.113-6.233,12.294-10.307
			C59.387,14.951,52.782,9.951,48.803,8.192z"/>
	</g>
</g>
<g id="Croissant_2_">
	<g>
		<path style="fill:#FFCC66;" d="M44.531,5.098c-5.398-5.765-7.985-5.069-12.558-5.069c-3.765,0-7.821-0.715-12.313,5.069
			C17.883,7.2,24.358,30.193,29.136,30.24c1.102,0.011,4.82,0.011,5.922,0C39.835,30.193,45.561,6.577,44.531,5.098z"/>
	</g>
</g>
<g>
</g>
<g>
</g>
<g>
</g>
<g>
</g>
<g>
</g>
<g>
</g>
<g>
</g>
<g>
</g>
<g>
</g>
<g>
</g>
<g>
</g>
<g>
</g>
<g>
</g>
<g>
</g>
<g>
</g>
</svg>
