<?xml version="1.0" encoding="iso-8859-1"?>
<!-- Generator: Adobe Illustrator 16.0.0, SVG Export Plug-In . SVG Version: 6.00 Build 0)  -->
<!DOCTYPE svg PUBLIC "-//W3C//DTD SVG 1.1//EN" "http://www.w3.org/Graphics/SVG/1.1/DTD/svg11.dtd">
<svg version="1.1" id="Layer_1" xmlns="http://www.w3.org/2000/svg" xmlns:xlink="http://www.w3.org/1999/xlink" x="0px" y="0px"
	 width="64.003px" height="63.996px" viewBox="0 0 64.003 63.996" style="enable-background:new 0 0 64.003 63.996;"
	 xml:space="preserve">
<g id="Doughnut">
	<g>
		<path style="fill-rule:evenodd;clip-rule:evenodd;fill:#FFCC66;" d="M32.002,0C14.328,0,0,14.326,0,31.998
			s14.328,31.998,32.002,31.998S64.003,49.67,64.003,31.998S49.676,0,32.002,0z M32.002,41.997c-5.523,0-10.001-4.477-10.001-9.999
			s4.478-10,10.001-10c5.522,0,10,4.478,10,10S37.524,41.997,32.002,41.997z"/>
	</g>
</g>
<g id="Topping">
	<g>
		<path style="fill:#F06EAA;" d="M32.002,0C14.328,0,0,14.326,0,31.998c0,7.627,2.679,14.622,7.133,20.119
			c0.289-0.04,0.576-0.066,0.868-0.121c3.781-0.703,4.857-1.714,12-5.999c7.144-4.285,4,1.429,8.001,2c4,0.571,4.571-0.286,6-2
			s6-4.571,8,3.999c2,8.571,6.857,4.571,10.001,4c1.219-0.222,2.312-0.352,3.456-0.284c5.287-5.707,8.544-13.321,8.544-21.714
			C64.003,14.326,49.676,0,32.002,0z M32.002,41.997c-5.523,0-10.001-4.477-10.001-9.999s4.478-10,10.001-10c5.522,0,10,4.478,10,10
			S37.524,41.997,32.002,41.997z"/>
	</g>
</g>
<g id="Sprinkles">
	<g>
		<path style="fill-rule:evenodd;clip-rule:evenodd;fill:#BD4B80;" d="M16.181,38.594l-6.521-2.597
			c-0.975-0.041-1.728,0.688-1.683,1.628c0.045,0.939,0.871,1.735,1.845,1.776l6.521,2.597c0.975,0.041,1.728-0.688,1.683-1.628
			S17.154,38.635,16.181,38.594z M55.054,26.356l-4.49-6.036c-0.85-0.573-1.899-0.295-2.345,0.623
			c-0.444,0.916-0.117,2.124,0.733,2.697l4.489,6.036c0.85,0.573,1.899,0.294,2.345-0.623C56.231,28.138,55.903,26.93,55.054,26.356
			z M33.053,14.357l-2.49-2.037c-0.85-0.572-1.898-0.294-2.344,0.623s-0.117,2.125,0.732,2.697l2.489,2.037
			c0.85,0.573,1.899,0.294,2.345-0.623C34.23,16.139,33.902,14.931,33.053,14.357z M50.769,31.98
			c-0.942-0.205-1.96,0.466-2.274,1.499L44.1,39.771c-0.314,1.033,0.195,2.038,1.137,2.243c0.942,0.206,1.961-0.466,2.274-1.499
			l4.396-6.292C52.22,33.19,51.71,32.186,50.769,31.98z"/>
	</g>
</g>
<g id="Sprinkles_1_">
	<g>
		<path style="fill-rule:evenodd;clip-rule:evenodd;fill:#F5C9DD;" d="M11.001,26.209c-0.957-0.482-2.18-0.196-2.732,0.639l-2,2.556
			C5.716,30.238,6.044,31.306,7,31.787c0.957,0.482,2.181,0.196,2.732-0.639l2-2.556C12.285,27.759,11.957,26.69,11.001,26.209z
			 M53.003,44.208c-0.957-0.482-2.181-0.196-2.732,0.639l-2,2.556c-0.553,0.834-0.225,1.901,0.732,2.384
			c0.956,0.481,2.18,0.195,2.731-0.639l2-2.556C54.287,45.757,53.959,44.689,53.003,44.208z M41.002,6.211
			c-0.956-0.482-2.18-0.196-2.732,0.639l-2,2.555c-0.552,0.835-0.225,1.902,0.732,2.385c0.957,0.481,2.18,0.195,2.732-0.64l2-2.555
			C42.287,7.76,41.959,6.692,41.002,6.211z M21.151,12.268l-2.556-2c-0.834-0.552-1.902-0.225-2.384,0.732
			c-0.482,0.956-0.196,2.18,0.639,2.731l2.556,2c0.835,0.552,1.902,0.225,2.385-0.732C22.272,14.043,21.986,12.819,21.151,12.268z"
			/>
	</g>
</g>
<g>
</g>
<g>
</g>
<g>
</g>
<g>
</g>
<g>
</g>
<g>
</g>
<g>
</g>
<g>
</g>
<g>
</g>
<g>
</g>
<g>
</g>
<g>
</g>
<g>
</g>
<g>
</g>
<g>
</g>
</svg>
