<?xml version="1.0" encoding="iso-8859-1"?>
<!-- Generator: Adobe Illustrator 16.0.0, SVG Export Plug-In . SVG Version: 6.00 Build 0)  -->
<!DOCTYPE svg PUBLIC "-//W3C//DTD SVG 1.1//EN" "http://www.w3.org/Graphics/SVG/1.1/DTD/svg11.dtd">
<svg version="1.1" id="Layer_1" xmlns="http://www.w3.org/2000/svg" xmlns:xlink="http://www.w3.org/1999/xlink" x="0px" y="0px"
	 width="64px" height="51.999px" viewBox="0 0 64 51.999" style="enable-background:new 0 0 64 51.999;" xml:space="preserve">
<g id="Platform">
	<g>
		<path style="fill:#999999;" d="M58,33.999L0,34v8c0,1.104,0.896,1.999,2,1.999h56c1.104,0,2-0.896,2-1.999v-6.001
			C60,34.895,59.104,33.999,58,33.999z"/>
	</g>
</g>
<g id="Cabin_3_">
	<g>
		<path style="fill:#48A0DC;" d="M18,11.999h-8c-2.209,0-3.341,0.682-4,2C2,22,0,26,0,26v12h8c0-4,6-4,6-4h8V15.999
			C22,13.79,20.209,11.999,18,11.999z"/>
	</g>
</g>
<g id="Window_3_">
	<g>
		<path style="fill:#E6E6E6;" d="M16,15.999h-6c-1.105,0-1.512,1.024-2,2.001c-4,8-4,8-4,8h12c1.104,0,2-0.896,2-2.001V18
			C18,16.895,17.104,15.999,16,15.999z"/>
	</g>
</g>
<g id="Headlight">
	<g>
		<path style="fill:#FFCC66;" d="M2,31.999H0v6h2c1.104,0,2-0.896,2-2V34C4,32.895,3.104,31.999,2,31.999z"/>
	</g>
</g>
<g id="Tank">
	<g>
		<path style="fill:#666666;" d="M36,35.999h-8c-1.105,0-2,0.896-2,2.001v4c0,1.104,0.895,1.999,2,1.999h8c1.104,0,2-0.896,2-1.999
			v-4C38,36.895,37.104,35.999,36,35.999z"/>
	</g>
</g>
<g id="Wheels_3_">
	<g>
		<path style="fill-rule:evenodd;clip-rule:evenodd;fill:#666666;" d="M48,35.999c-4.419,0-8,3.582-8,8s3.581,8,8,8
			c4.418,0,8-3.582,8-8S52.418,35.999,48,35.999z M16,35.999c-4.419,0-8,3.582-8,8s3.581,8,8,8c4.418,0,8-3.582,8-8
			S20.418,35.999,16,35.999z"/>
	</g>
</g>
<g id="Rims_2_">
	<g>
		<path style="fill-rule:evenodd;clip-rule:evenodd;fill:#B3B3B3;" d="M16,39.999c-2.21,0-4,1.791-4,4s1.79,3.999,4,3.999
			c2.209,0,4-1.79,4-3.999S18.209,39.999,16,39.999z M48,39.999c-2.21,0-4,1.791-4,4s1.79,3.999,4,3.999
			c2.209,0,3.999-1.79,3.999-3.999S50.209,39.999,48,39.999z"/>
	</g>
</g>
<g id="Piston">
	<g>
		<rect x="30" y="26" style="fill:#CCCCCC;" width="4" height="8"/>
	</g>
</g>
<g id="Bed">
	<g>
		<polygon style="fill:#FFCC66;" points="20,0 18,4 26,8 26,28 60,36 64,20 		"/>
	</g>
</g>
<g id="Bed_1_">
	<g>
		<polygon style="fill:#E6B85C;" points="32,10 32,24 56,30 58,22 		"/>
	</g>
</g>
<g>
</g>
<g>
</g>
<g>
</g>
<g>
</g>
<g>
</g>
<g>
</g>
<g>
</g>
<g>
</g>
<g>
</g>
<g>
</g>
<g>
</g>
<g>
</g>
<g>
</g>
<g>
</g>
<g>
</g>
</svg>
