<?xml version="1.0" encoding="iso-8859-1"?>
<!-- Generator: Adobe Illustrator 16.0.0, SVG Export Plug-In . SVG Version: 6.00 Build 0)  -->
<!DOCTYPE svg PUBLIC "-//W3C//DTD SVG 1.1//EN" "http://www.w3.org/Graphics/SVG/1.1/DTD/svg11.dtd">
<svg version="1.1" id="Layer_1" xmlns="http://www.w3.org/2000/svg" xmlns:xlink="http://www.w3.org/1999/xlink" x="0px" y="0px"
	 width="64.011px" height="64.011px" viewBox="0 0 64.011 64.011" style="enable-background:new 0 0 64.011 64.011;"
	 xml:space="preserve">
<g id="Water">
	<g>
		<circle style="fill:#B4D4EA;" cx="32.005" cy="32.005" r="32"/>
	</g>
</g>
<g id="Land">
	<g>
		<path style="fill:#73A449;" d="M43.545,11.479c0.496,0.124,1.165-0.242,1.297,0.59c0.149,0.938,0.606,1.712,1.192,2.477
			c0.818,1.067,0.298,2.146-1.031,2.387c-0.209,0.039-0.42,0.074-0.632,0.09c-1.11,0.082-1.154,0.146-1.298,1.261
			c-0.097,0.763,0.327,1.168,0.865,1.575c0.497,0.376,0.896,0.083,1.232-0.159c0.347-0.249,0.635-0.625,0.852-1.001
			c0.613-1.061,1.32-2.088,2.51-2.451c1.026-0.313,2.169-0.742,3.16,0.048c0.438-0.247,0.965-0.564,1.336-0.436
			c0.822,0.286,1.506,0.813,1.942,1.674c0.274,0.542,0.851,0.932,1.206,1.301c0.506-0.47,0.813-0.98,1.22-1.081
			c0.727-0.179,1.518-0.168,2.273-0.114c0.271,0.019,0.647,0.347,0.734,0.613c0.084,0.255-0.124,0.621-0.247,0.921
			c-0.054,0.129-0.22,0.212-0.449,0.42c0.661,0.1,1.154,0.189,1.651,0.245c0.091,0.011,0.169,0.025,0.251,0.038
			c-0.539-1.313-1.163-2.606-1.893-3.87c-1.269-2.196-2.764-4.178-4.43-5.948c-0.355,0.47-0.887,0.832-1.543,0.97
			c-0.801,0.168-1.463,0.003-2.159-0.262c-0.498-0.189-0.83-0.058-1.278,0.282c-0.724,0.548-1.593,0.912-2.431,1.29
			c-0.191,0.087-0.575-0.006-0.744-0.157c-0.563-0.507-1.079-1.066-1.588-1.629c-0.184-0.202-0.296-0.469-0.47-0.753
			C44.529,10.398,44.055,10.919,43.545,11.479z M18.485,21.039c0.482-0.332,0.944-0.827,1.185-1.354
			c0.86-1.882,2.736-2.612,4.169-3.84c0.164-0.14,0.446-0.155,0.679-0.199c0.504-0.097,1.208-0.005,1.464-0.304
			c0.26-0.305,0.079-0.986,0.094-1.503c0.03-1.073,0.461-1.516,1.507-1.534c0.453-0.008,0.906-0.007,1.359,0.01
			c0.978,0.034,1.178,0.312,1.019,1.271c-0.031,0.185,0.079,0.476,0.224,0.582c0.122,0.09,0.389-0.02,0.591-0.041
			c-0.039-0.216-0.077-0.433-0.117-0.649c-0.085-0.473-0.253-0.948-0.236-1.418c0.019-0.545-0.067-0.955-0.479-1.358
			c-0.344-0.337-0.625-0.792-0.79-1.247c-0.161-0.44-0.387-0.619-0.815-0.557c-0.75,0.107-1.234-0.213-1.492-0.901
			c-0.2-0.533-0.602-0.67-1.13-0.702c-0.918-0.056-1.302,0.658-1.43,1.26c-0.321,1.514-1.562,2.316-2.38,3.435
			c-0.518,0.707-1.497,0.497-1.646-0.353c-0.128-0.729-0.496-1.054-1.118-1.281c-0.397-0.145-0.771-0.362-1.143-0.571
			c-1.017-0.57-1.222-1.698-0.352-2.451c1.277-1.105,2.693-1.886,4.515-1.528c0.348,0.067,1.013-0.183,1.126-0.455
			c0.45-1.084,1.471-1.523,2.258-2.21c0.585-0.512,1.596-0.378,2.144,0.116c0.665,0.6,0.517,1.18,0.059,1.831
			c-0.148,0.211-0.226,0.722-0.105,0.823c0.275,0.233,0.828,0.52,1.028,0.395c0.705-0.437,1.317-1.027,1.938-1.59
			c0.058-0.053-0.061-0.328-0.129-0.486c-0.447-1.019-1.297-1.471-2.325-1.758c-1.147-0.319-1.379-1.245-0.396-1.905
			c0.195-0.131,0.403-0.244,0.614-0.353c-1.104,0.125-2.205,0.305-3.3,0.549c-0.971,0.209-1.283,0.919-0.878,1.802
			c0.239,0.519,0.322,1.065-0.202,1.445c-0.529,0.385-1.059,0.127-1.426-0.277c-0.243-0.269-0.305-0.7-0.457-1.053
			c-0.112-0.257-0.24-0.506-0.36-0.76c-0.311,0.166-0.845,0.284-0.893,0.506c-0.248,1.168-1.262,1.354-2.089,1.779
			c-0.141,0.071-0.444,0.083-0.503,0.001c-0.1-0.143-0.126-0.394-0.08-0.573c0.046-0.181,0.094-0.362,0.146-0.546
			c-0.784,0.371-1.562,0.768-2.325,1.209C8.543,8.601,3.481,15.463,1.268,23.136c0.79,1.276,1.867,2.374,2.739,3.606
			c0.366,0.517,0.516,1.187,0.771,1.783c0.141,0.332,0.212,0.749,0.457,0.971c0.887,0.805,1.939,1.278,3.15,1.413
			c0.458,0.05,0.944,0.187,1.337,0.42c1.247,0.738,2.457,1.542,3.668,2.312c0.461-1.007,0.365-1.257-0.689-1.738
			c-0.701-0.32-0.957-0.89-0.815-1.643c0.052-0.274,0.104-0.548,0.2-1.053c-0.402,0.332-0.616,0.515-0.836,0.688
			c-1.371,1.085-2.835,0.636-3.411-1.007c-0.55-1.566,0.03-2.899,0.901-4.094c1.366-1.874,3.568-1.282,5.439-1.646
			c0.252-0.049,0.566,0.128,0.827,0.253c0.302,0.144,0.577,0.345,0.969,0.586C16.124,22.339,17.393,21.791,18.485,21.039z
			 M15.453,14.371c0.021-0.221,0.515-0.557,0.791-0.556c0.506,0.002,1.144,0.138,1.133,0.814c-0.004,0.229-0.494,0.45-0.762,0.675
			C15.993,15.079,15.384,15.059,15.453,14.371z M50.136,8.604c0.59,0.088,1.01,0.234,1.236,0.812
			c0.232,0.591,0.596,0.448,0.906,0.089C52.714,9,52.932,8.412,52.885,7.755c-0.721-0.62-1.467-1.204-2.234-1.753
			c-0.341,0.31-0.701,0.6-1.059,0.904c-0.261,0.224-0.597,0.769-0.503,0.918C49.31,8.177,49.744,8.545,50.136,8.604z M63.927,29.703
			c-0.025-0.044-0.053-0.088-0.078-0.132c-0.494-0.841-0.835-1.772-1.231-2.669c-0.117-0.266-0.261-0.548-0.268-0.825
			c-0.006-0.29,0.099-0.805,0.227-0.828c0.224-0.042,0.49-0.005,0.727,0.081c-0.18-0.842-0.397-1.679-0.647-2.512
			c-0.238,0.327-0.594,0.556-1.072,0.662c-1.357,0.301-2.702,0.206-4.001-0.301c-0.609-0.238-1.163-0.303-1.72,0.142
			c-0.611,0.488-1.288,0.437-1.957,0.117c-0.313-0.148-0.591-0.406-0.916-0.483c-1.095-0.263-1.788-0.849-1.989-2.013
			c-0.035-0.203-0.49-0.499-0.724-0.476c-1.609,0.158-3.208,0.533-4.814,0.561c-1.667,0.027-2.34,1.159-2.895,2.317
			c-0.387,0.807-0.861,1.425-1.51,1.993c-1.224,1.074-1.867,2.404-1.729,4.089c0.052,0.622-0.109,1.259-0.129,1.891
			c-0.017,0.548-0.171,1.229,0.085,1.622c0.836,1.279,1.82,2.464,2.778,3.661c0.148,0.187,0.465,0.362,0.687,0.345
			c1.182-0.097,2.392-0.129,3.527-0.43c1.167-0.311,2.217-0.592,3.182,0.403c0.139,0.143,0.367,0.211,0.565,0.281
			c1.458,0.517,1.586,0.646,1.534,2.178c-0.032,0.959,0.176,1.757,0.675,2.624c1.065,1.846,1.742,3.806,0.723,5.994
			c-0.265,0.567-0.273,1.471-0.004,2.027c0.665,1.374,0.884,2.82,1.189,4.278c0.046,0.22,0.108,0.436,0.171,0.652
			C61.147,48.32,64.591,39.01,63.927,29.703z M34.519,42.161c-1.238-0.236-2.28-0.849-3.416-1.272
			c-1.015-0.378-1.748-0.977-2.004-2.086c-0.198-0.863-0.809-1.283-1.631-1.578c-0.781-0.28-1.548-0.687-2.215-1.181
			c-0.904-0.669-1.699-1.442-2.979-1.211c-0.322,0.059-0.788-0.085-1.035-0.307c-0.811-0.729-1.698-0.798-2.45-0.134
			c-0.708,0.625-2.131,0.925-1.451,2.473c0.147,0.336-0.063,0.887-0.229,1.288c-0.201,0.487-0.516,0.932-0.811,1.376
			c-0.926,1.392-0.76,2.845-0.126,4.246c0.525,1.161,1.186,2.267,1.855,3.354c0.279,0.452,0.677,0.904,1.131,1.162
			c1.593,0.905,2.446,2.164,2.267,4.048c-0.05,0.529-0.045,1.07,0,1.601c0.11,1.293,0.291,2.581,0.378,3.875
			c0.043,0.627-0.057,1.266-0.104,1.898c-0.015,0.209-0.121,0.422-0.094,0.621c0.096,0.68,0.198,1.36,0.322,2.037
			c1.146,0.38,2.312,0.696,3.493,0.945c0.302-1.112,0.934-2.177,1.77-2.816c0.245-0.188,0.451-0.533,0.511-0.837
			c0.135-0.69,0.481-1.148,1.105-1.46c0.272-0.137,0.576-0.356,0.702-0.616c0.478-0.995,1.081-1.987,1.278-3.047
			c0.249-1.341,1.044-1.992,2.159-2.413c1.323-0.499,1.841-1.022,1.766-2.394c-0.095-1.729,0.408-3.18,1.505-4.492
			c0.396-0.475,0.688-1.154,0.192-1.683C35.873,42.987,35.218,42.295,34.519,42.161z M41.759,4.351
			c0.912-0.347,1.832-0.671,2.74-1.029c0.304-0.12,0.632-0.223,0.934-0.355c-3.977-1.835-8.299-2.85-12.688-2.956
			c0.354,0.088,0.725,0.111,1.113,0.111c1.75-0.002,2.285,0.762,1.99,2.486c-0.187,1.093-0.203,2.225-0.206,3.339
			c-0.001,0.665,0.409,1.146,1.068,1.346c0.609,0.185,0.913-0.233,1.25-0.634c0.799-0.95,1.67-1.796,2.994-1.969
			C41.233,4.654,41.486,4.454,41.759,4.351z"/>
	</g>
</g>
<g>
</g>
<g>
</g>
<g>
</g>
<g>
</g>
<g>
</g>
<g>
</g>
<g>
</g>
<g>
</g>
<g>
</g>
<g>
</g>
<g>
</g>
<g>
</g>
<g>
</g>
<g>
</g>
<g>
</g>
</svg>
