<?xml version="1.0" encoding="iso-8859-1"?>
<!-- Generator: Adobe Illustrator 16.0.0, SVG Export Plug-In . SVG Version: 6.00 Build 0)  -->
<!DOCTYPE svg PUBLIC "-//W3C//DTD SVG 1.1//EN" "http://www.w3.org/Graphics/SVG/1.1/DTD/svg11.dtd">
<svg version="1.1" id="Layer_1" xmlns="http://www.w3.org/2000/svg" xmlns:xlink="http://www.w3.org/1999/xlink" x="0px" y="0px"
	 width="64px" height="63.999px" viewBox="0 0 64 63.999" style="enable-background:new 0 0 64 63.999;" xml:space="preserve">
<g id="Shirt">
	<g>
		<path style="fill:#E6E6E6;" d="M60,47.999c-1.881-1.88-18-10-18-10H22c0,0-16.12,8.12-18,10c-3.761,3.76-4,16-4,16h64
			C64,63.999,63.76,51.759,60,47.999z"/>
	</g>
</g>
<g id="Collar">
	<g>
		<polygon style="fill:#FFFFFF;" points="40,35.999 24,35.999 22,37.999 24,47.999 32,39.999 40,47.999 42,37.999 		"/>
	</g>
</g>
<g id="Tie">
	<g>
		<path style="fill-rule:evenodd;clip-rule:evenodd;fill:#48A0DC;" d="M36,43.999c-2-2-4-4-4-4s-2,2-4,4c0,2,2,2,2,2l-2,18h8l-2-18
			C34,45.999,36,45.999,36,43.999z"/>
	</g>
</g>
<g id="Neck">
	<g>
		<path style="fill:#DBB59A;" d="M38,29.999H26l-2,6c0,1.104,4.895,4,6,4h4c1.104,0,6-2.896,6-4L38,29.999z"/>
	</g>
</g>
<g id="Head">
	<g>
		<path style="fill:#F6CBAD;" d="M32,1.999c-7.732,0-12,8-12,12c0,6.001,0,10,2,14s6.081,8,10,8c3.918,0,8-4,10-8s2-7.999,2-14
			C44,9.999,39.731,1.999,32,1.999z"/>
	</g>
</g>
<g id="Peak">
	<g>
		<path style="fill:#FFBB33;" d="M16,13.999C18,22,20.571,22,32,22s14,0,16-8.001H16z"/>
	</g>
</g>
<g id="Hat">
	<g>
		<path style="fill:#FFBB33;" d="M46,12L36,1.999C36,1.999,36,0,32,0s-4,1.999-4,1.999L18,12c0,0-2,0-2,1.999C16,16,18,18,32,18
			s16-2,16-4.001C48,12,46,12,46,12z"/>
	</g>
</g>
<g id="Hat_1_">
	<g>
		<path style="fill-rule:evenodd;clip-rule:evenodd;fill:#F2B230;" d="M18,13.999c4,0,10,0,10-12C28,1.999,18,4,18,13.999z
			 M36,1.999c0,12,6,12,10,12C46,4,36,1.999,36,1.999z"/>
	</g>
</g>
<g>
</g>
<g>
</g>
<g>
</g>
<g>
</g>
<g>
</g>
<g>
</g>
<g>
</g>
<g>
</g>
<g>
</g>
<g>
</g>
<g>
</g>
<g>
</g>
<g>
</g>
<g>
</g>
<g>
</g>
</svg>
