<?xml version="1.0" encoding="iso-8859-1"?>
<!-- Generator: Adobe Illustrator 16.0.0, SVG Export Plug-In . SVG Version: 6.00 Build 0)  -->
<!DOCTYPE svg PUBLIC "-//W3C//DTD SVG 1.1//EN" "http://www.w3.org/Graphics/SVG/1.1/DTD/svg11.dtd">
<svg version="1.1" id="Layer_1" xmlns="http://www.w3.org/2000/svg" xmlns:xlink="http://www.w3.org/1999/xlink" x="0px" y="0px"
	 width="64.025px" height="64.012px" viewBox="0 0 64.025 64.012" style="enable-background:new 0 0 64.025 64.012;"
	 xml:space="preserve">
<g id="Body_18_">
	<g>
		<path style="fill:#8DA7B8;" d="M61.31,0C50.562,0,12.012,3.181,12.012,48.028c0,0-8.842-0.999-12.012,1.997
			c0,0,9.676,6.161,14.014,13.986c0,0,1.668-3.83,2.002-11.987c0,0,48.01,0.345,48.01-49.451C64.025,1.042,61.366,0,61.31,0z"/>
	</g>
</g>
<g id="Head_2_">
	<g>
		<path style="fill:#6C8697;" d="M61.31,0C56.206,0,44.837,0.727,34.3,6.281c1.551,8.934,9.322,15.733,18.7,15.733
			c3.128,0,6.072-0.771,8.675-2.109c1.478-4.975,2.351-10.696,2.351-17.332C64.025,1.042,61.366,0,61.31,0z"/>
	</g>
</g>
<g id="Scales">
	<g>
		<path style="fill:#7D93A2;" d="M16.052,34.531c-0.597,0.338-1.099,0.822-1.457,1.408c-0.022,0.035-0.038,0.073-0.06,0.11
			c-0.135,0.237-0.244,0.488-0.328,0.753c-0.025,0.076-0.051,0.15-0.071,0.229C14.056,37.347,14,37.672,14,38.014
			c0,0.276,0.027,0.545,0.081,0.806c0.106,0.521,0.314,1.005,0.602,1.43c0.145,0.213,0.308,0.411,0.489,0.593
			c0.724,0.724,1.724,1.171,2.828,1.171c0.341,0,0.666-0.056,0.982-0.136c0.078-0.021,0.151-0.046,0.228-0.07
			c0.265-0.085,0.517-0.193,0.754-0.329c0.036-0.021,0.074-0.037,0.11-0.06c0.585-0.357,1.063-0.859,1.399-1.458
			C18.584,39.705,16.303,37.422,16.052,34.531z M24.052,26.531c-0.597,0.339-1.1,0.823-1.457,1.408
			c-0.021,0.036-0.038,0.074-0.06,0.11c-0.135,0.238-0.244,0.489-0.329,0.754c-0.024,0.076-0.05,0.149-0.07,0.228
			C22.056,29.348,22,29.673,22,30.014c0,0.276,0.027,0.546,0.081,0.807c0.106,0.521,0.314,1.004,0.602,1.43
			c0.144,0.213,0.308,0.411,0.489,0.592c0.724,0.724,1.724,1.172,2.828,1.172c0.341,0,0.666-0.056,0.982-0.136
			c0.078-0.021,0.151-0.046,0.228-0.071c0.265-0.084,0.517-0.193,0.754-0.328c0.036-0.021,0.074-0.038,0.11-0.06
			c0.585-0.357,1.063-0.859,1.399-1.458C26.584,31.706,24.303,29.423,24.052,26.531z M32.053,34.54
			C30.834,35.225,30,36.515,30,38.014c0,2.209,1.791,3.999,4,3.999c1.498,0,2.789-0.833,3.474-2.053
			C34.587,39.705,32.308,37.427,32.053,34.54z M32.053,42.539C30.834,43.225,30,44.515,30,46.013c0,1.38,0.698,2.595,1.761,3.313
			c1.454-0.457,2.952-0.996,4.473-1.624C33.958,46.998,32.27,44.995,32.053,42.539z M24.873,13.035
			c-0.861,0.83-1.687,1.728-2.489,2.665c0.638,1.363,2.011,2.314,3.616,2.314c1.498,0,2.789-0.833,3.474-2.053
			C27.498,15.787,25.825,14.652,24.873,13.035z M16.233,25.586c0.535,0.266,1.129,0.428,1.767,0.428
			c1.498,0,2.789-0.833,3.474-2.053c-1.413-0.124-2.677-0.739-3.633-1.669C17.269,23.339,16.734,24.44,16.233,25.586z M24.053,34.54
			C22.833,35.225,22,36.515,22,38.014c0,2.209,1.791,3.999,4,3.999c1.498,0,2.789-0.833,3.474-2.053
			C26.587,39.705,24.308,37.427,24.053,34.54z M16.052,26.531c-0.126,0.071-0.228,0.174-0.345,0.258
			c-0.554,1.382-1.038,2.854-1.479,4.38c0.117,0.38,0.237,0.76,0.454,1.081c0.145,0.213,0.308,0.411,0.489,0.592
			c0.724,0.724,1.724,1.172,2.828,1.172c0.341,0,0.666-0.056,0.982-0.136c0.078-0.021,0.151-0.046,0.228-0.071
			c0.265-0.084,0.517-0.193,0.754-0.328c0.036-0.021,0.074-0.038,0.11-0.06c0.585-0.357,1.063-0.859,1.399-1.458
			C18.584,31.706,16.303,29.423,16.052,26.531z M24.053,42.539C22.833,43.225,22,44.515,22,46.013c0,2.209,1.791,4,4,4
			c1.498,0,2.789-0.834,3.474-2.053C26.587,47.704,24.308,45.426,24.053,42.539z M24.053,18.541C22.833,19.226,22,20.516,22,22.015
			c0,2.209,1.791,3.999,4,3.999c1.498,0,2.789-0.833,3.474-2.053C26.587,23.707,24.308,21.428,24.053,18.541z M40.052,18.532
			c-0.597,0.338-1.1,0.822-1.457,1.408c-0.022,0.036-0.038,0.073-0.06,0.11c-0.135,0.237-0.244,0.488-0.328,0.754
			c-0.025,0.076-0.051,0.149-0.071,0.228C38.056,21.348,38,21.674,38,22.015c0,0.276,0.027,0.546,0.081,0.806
			c0.106,0.521,0.314,1.005,0.603,1.431c0.143,0.213,0.307,0.411,0.488,0.592c0.724,0.724,1.724,1.171,2.828,1.171
			c0.341,0,0.666-0.055,0.982-0.136c0.078-0.021,0.151-0.046,0.228-0.07c0.265-0.085,0.517-0.193,0.754-0.329
			c0.036-0.021,0.074-0.037,0.11-0.06c0.585-0.357,1.063-0.858,1.399-1.458C42.584,23.706,40.303,21.423,40.052,18.532z
			 M32.052,26.531c-0.597,0.339-1.1,0.823-1.457,1.408c-0.022,0.036-0.039,0.074-0.06,0.11c-0.135,0.238-0.244,0.489-0.328,0.754
			c-0.025,0.076-0.051,0.149-0.071,0.228C30.056,29.348,30,29.673,30,30.014c0,0.276,0.027,0.546,0.081,0.807
			c0.106,0.521,0.314,1.004,0.602,1.43c0.145,0.213,0.308,0.411,0.489,0.592c0.724,0.724,1.724,1.172,2.828,1.172
			c0.341,0,0.666-0.056,0.982-0.136c0.078-0.021,0.151-0.046,0.228-0.071c0.265-0.084,0.517-0.193,0.754-0.328
			c0.036-0.021,0.074-0.038,0.11-0.06c0.585-0.357,1.063-0.859,1.399-1.458C34.584,31.706,32.303,29.423,32.052,26.531z
			 M40.053,26.54C38.833,27.226,38,28.516,38,30.014c0,2.209,1.791,4,4,4c1.498,0,2.788-0.834,3.474-2.053
			C42.587,31.706,40.308,29.427,40.053,26.54z M48.053,26.54C46.833,27.226,46,28.516,46,30.014c0,2.209,1.791,4,4,4
			c1.498,0,2.789-0.834,3.474-2.053C50.587,31.706,48.308,29.427,48.053,26.54z M48.053,34.54C46.833,35.225,46,36.515,46,38.014
			c0,1.274,0.607,2.397,1.537,3.13c0.957-0.757,1.895-1.563,2.809-2.428C49.072,37.727,48.203,36.246,48.053,34.54z M40.053,34.54
			C38.833,35.225,38,36.515,38,38.014c0,2.209,1.791,3.999,4,3.999c1.498,0,2.788-0.833,3.474-2.053
			C42.587,39.705,40.308,37.427,40.053,34.54z M32.053,10.541C30.834,11.227,30,12.517,30,14.016c0,2.209,1.791,3.999,4,3.999
			c1.498,0,2.789-0.833,3.474-2.053C34.587,15.707,32.308,13.429,32.053,10.541z M32.052,18.532c-0.597,0.338-1.1,0.822-1.457,1.408
			c-0.022,0.036-0.039,0.073-0.06,0.11c-0.135,0.237-0.244,0.488-0.328,0.754c-0.025,0.076-0.051,0.149-0.071,0.228
			C30.056,21.348,30,21.674,30,22.015c0,0.276,0.027,0.546,0.081,0.806c0.106,0.521,0.314,1.005,0.602,1.431
			c0.145,0.213,0.308,0.411,0.489,0.592c0.724,0.724,1.724,1.171,2.828,1.171c0.341,0,0.666-0.055,0.982-0.136
			c0.078-0.021,0.151-0.046,0.228-0.07c0.265-0.085,0.517-0.193,0.754-0.329c0.036-0.021,0.074-0.037,0.11-0.06
			c0.585-0.357,1.063-0.858,1.399-1.458C34.584,23.706,32.303,21.423,32.052,18.532z M38,46.013c0,0.304,0.04,0.596,0.104,0.88
			c0.992-0.455,1.985-0.96,2.979-1.5c-0.566-0.824-0.936-1.797-1.029-2.854C38.833,43.225,38,44.515,38,46.013z"/>
	</g>
</g>
<g id="Eye">
	<g>
		<circle style="fill:#D9E1E7;" cx="51" cy="9.016" r="3"/>
	</g>
</g>
<g>
</g>
<g>
</g>
<g>
</g>
<g>
</g>
<g>
</g>
<g>
</g>
<g>
</g>
<g>
</g>
<g>
</g>
<g>
</g>
<g>
</g>
<g>
</g>
<g>
</g>
<g>
</g>
<g>
</g>
</svg>
