<?xml version="1.0" encoding="iso-8859-1"?>
<!-- Generator: Adobe Illustrator 16.0.0, SVG Export Plug-In . SVG Version: 6.00 Build 0)  -->
<!DOCTYPE svg PUBLIC "-//W3C//DTD SVG 1.1//EN" "http://www.w3.org/Graphics/SVG/1.1/DTD/svg11.dtd">
<svg version="1.1" id="Layer_1" xmlns="http://www.w3.org/2000/svg" xmlns:xlink="http://www.w3.org/1999/xlink" x="0px" y="0px"
	 width="64px" height="55.999px" viewBox="0 0 64 55.999" style="enable-background:new 0 0 64 55.999;" xml:space="preserve">
<g id="Seat">
	<g>
		<path style="fill:#4D4D4D;" d="M51,20c-1.657,0-3,1.343-3,2.999V33c0,1.656,1.343,3,3,3c1.656,0,3-1.344,3-3V22.999
			C54,21.343,52.656,20,51,20z"/>
	</g>
</g>
<g id="Cabin_5_">
	<g>
		<path style="fill:#666666;" d="M52,3.999L36,4L24,36v6h32V7.999C56,5.79,54.209,3.999,52,3.999z M52,34H36l-4-10l6-16h14V34z"/>
	</g>
</g>
<g id="Lift">
	<g>
		<rect x="14" style="fill:#666666;" width="6" height="47.999"/>
	</g>
</g>
<g id="Body_3_">
	<g>
		<path style="fill:#FFCC66;" d="M62,27.999L50,28L38,40h-4l-4-4h-8l-4,4v7.999h44c1.104,0,2-0.896,2-2v-16
			C64,28.895,63.104,27.999,62,27.999z"/>
	</g>
</g>
<g id="Wheels_5_">
	<g>
		<path style="fill-rule:evenodd;clip-rule:evenodd;fill:#666666;" d="M52,35.998c-5.523,0-10,4.479-10,10.001s4.477,10,10,10
			c5.522,0,10-4.478,10-10S57.522,35.998,52,35.998z M26,39.999c-4.419,0-8,3.582-8,8s3.581,8,8,8c4.418,0,8-3.582,8-8
			S30.418,39.999,26,39.999z"/>
	</g>
</g>
<g id="Rims_4_">
	<g>
		<path style="fill-rule:evenodd;clip-rule:evenodd;fill:#B3B3B3;" d="M26,43.999c-2.21,0-4.001,1.79-4.001,3.999
			c0,2.21,1.791,4,4.001,4c2.209,0,4-1.79,4-4C30,45.789,28.209,43.999,26,43.999z M52,41.999c-2.21,0-4,1.791-4,4
			s1.79,3.999,4,3.999c2.209,0,3.999-1.79,3.999-3.999S54.209,41.999,52,41.999z"/>
	</g>
</g>
<g id="Fork">
	<g>
		<path style="fill-rule:evenodd;clip-rule:evenodd;fill:#B3B3B3;" d="M12,26c-1.104,0-2,0.895-2,2v19.999H2c-1.104,0-2,0.896-2,2
			S0.896,52,2,52h10c1.104,0,2-0.896,2-2.001V28C14,26.895,13.104,26,12,26z"/>
	</g>
</g>
<g>
</g>
<g>
</g>
<g>
</g>
<g>
</g>
<g>
</g>
<g>
</g>
<g>
</g>
<g>
</g>
<g>
</g>
<g>
</g>
<g>
</g>
<g>
</g>
<g>
</g>
<g>
</g>
<g>
</g>
</svg>
