<?xml version="1.0" encoding="iso-8859-1"?>
<!-- Generator: Adobe Illustrator 16.0.0, SVG Export Plug-In . SVG Version: 6.00 Build 0)  -->
<!DOCTYPE svg PUBLIC "-//W3C//DTD SVG 1.1//EN" "http://www.w3.org/Graphics/SVG/1.1/DTD/svg11.dtd">
<svg version="1.1" id="Layer_1" xmlns="http://www.w3.org/2000/svg" xmlns:xlink="http://www.w3.org/1999/xlink" x="0px" y="0px"
	 width="63.95px" height="60.022px" viewBox="0 0 63.95 60.022" style="enable-background:new 0 0 63.95 60.022;"
	 xml:space="preserve">
<g id="Egg_white">
	<g>
		<path style="fill-rule:evenodd;clip-rule:evenodd;fill:#E6E6E6;" d="M59.549,17.782C53.114,7.119,42.439,1.521,35.042,3.06
			c-7.546,1.57-16.13-8.657-25.198,1.486C4.38,10.659,5.95,18.002,5.95,18.002c0,4.023-3.414,10.769-4,12
			c-4.694,9.853,0.369,13.633,1.883,16.15c2.502,4.16,5.506,1.545,10.117,7.869c3.718,5.1,6.665,4.818,12.363,4.338
			c2.99,1.075,6.217,1.662,9.583,1.662c15.494,0,28.055-12.419,28.055-27.737C63.95,26.786,62.332,21.853,59.549,17.782z"/>
	</g>
</g>
<g id="Yolk">
	<g>
		<ellipse style="fill:#FAB326;" cx="31.968" cy="32.014" rx="11.997" ry="12.013"/>
	</g>
</g>
<g>
</g>
<g>
</g>
<g>
</g>
<g>
</g>
<g>
</g>
<g>
</g>
<g>
</g>
<g>
</g>
<g>
</g>
<g>
</g>
<g>
</g>
<g>
</g>
<g>
</g>
<g>
</g>
<g>
</g>
</svg>
