<?xml version="1.0" encoding="iso-8859-1"?>
<!-- Generator: Adobe Illustrator 16.0.0, SVG Export Plug-In . SVG Version: 6.00 Build 0)  -->
<!DOCTYPE svg PUBLIC "-//W3C//DTD SVG 1.1//EN" "http://www.w3.org/Graphics/SVG/1.1/DTD/svg11.dtd">
<svg version="1.1" id="Layer_1" xmlns="http://www.w3.org/2000/svg" xmlns:xlink="http://www.w3.org/1999/xlink" x="0px" y="0px"
	 width="63.999px" height="60px" viewBox="0 0 63.999 60" style="enable-background:new 0 0 63.999 60;" xml:space="preserve">
<g id="Triangle">
	<g>
		<path style="fill:#ED7161;" d="M63.232,2.522C62.267,0.955,60.534,0,58.666,0H5.332C3.466,0,1.733,0.955,0.768,2.522
			C-0.199,4.086-0.256,6.03,0.614,7.647L27.28,57.214C28.202,58.927,30.019,60,31.999,60s3.797-1.073,4.721-2.786L63.386,7.647
			C64.256,6.03,64.197,4.086,63.232,2.522z"/>
	</g>
</g>
<g id="Triangle_1_">
	<g>
		<path style="fill:#FFFFFF;" d="M45.663,13.177C45.241,12.445,44.483,12,43.665,12H20.332c-0.816,0-1.574,0.445-1.997,1.177
			c-0.423,0.729-0.447,1.637-0.067,2.392l11.667,23.131c0.403,0.8,1.198,1.301,2.064,1.301s1.661-0.501,2.065-1.301L45.73,15.568
			C46.111,14.813,46.085,13.906,45.663,13.177z"/>
	</g>
</g>
<g>
</g>
<g>
</g>
<g>
</g>
<g>
</g>
<g>
</g>
<g>
</g>
<g>
</g>
<g>
</g>
<g>
</g>
<g>
</g>
<g>
</g>
<g>
</g>
<g>
</g>
<g>
</g>
<g>
</g>
</svg>
