<?xml version="1.0" encoding="iso-8859-1"?>
<!-- Generator: Adobe Illustrator 16.0.0, SVG Export Plug-In . SVG Version: 6.00 Build 0)  -->
<!DOCTYPE svg PUBLIC "-//W3C//DTD SVG 1.1//EN" "http://www.w3.org/Graphics/SVG/1.1/DTD/svg11.dtd">
<svg version="1.1" id="Layer_1" xmlns="http://www.w3.org/2000/svg" xmlns:xlink="http://www.w3.org/1999/xlink" x="0px" y="0px"
	 width="63.922px" height="63.982px" viewBox="0 0 63.922 63.982" style="enable-background:new 0 0 63.922 63.982;"
	 xml:space="preserve">
<g id="Tail_3_">
	<g>
		<path style="fill:#75A64B;" d="M63.36,0.561c-0.749-0.747-1.963-0.747-2.711,0l-22.201,22.19c-0.749,0.748-0.749,1.961,0,2.709
			s1.963,0.748,2.711,0L63.36,3.271C64.109,2.522,64.109,1.309,63.36,0.561z"/>
	</g>
</g>
<g id="Grapes">
	<g>
		<path style="fill-rule:evenodd;clip-rule:evenodd;fill:#71577F;" d="M6,51.983c-3.313,0-6,2.686-6,5.999s2.687,6,6,6s6-2.687,6-6
			S9.313,51.983,6,51.983z M56,27.985c0-3.313-2.687-6-6-6c-0.12,0-0.237,0.011-0.355,0.018C49.871,21.372,50,20.694,50,19.985
			c0-3.313-2.687-5.999-6-5.999c-2.578,0-4.77,1.628-5.619,3.909c-0.343-0.368-0.731-0.692-1.157-0.965
			C37.716,16.061,38,15.058,38,13.986c0-3.313-2.687-6-6-6c-2.125,0-3.989,1.108-5.055,2.776C26.075,10.271,25.071,9.986,24,9.986
			c-3.313,0-6,2.687-6,5.999c0,0.12,0.011,0.237,0.018,0.355c-0.632-0.226-1.309-0.355-2.018-0.355c-3.313,0-6,2.687-6,6
			c0,2.125,1.108,3.988,2.776,5.055C12.284,27.91,12,28.913,12,29.984c0,0.116,0.011,0.229,0.018,0.343
			C9.68,31.146,8,33.367,8,35.984c0,1.672,0.686,3.183,1.789,4.271C9.224,40.079,8.623,39.983,8,39.983c-3.314,0-6,2.687-6,6
			s2.686,6,6,6c0.478,0,0.94-0.062,1.385-0.167c0.777,0.935,1.835,1.624,3.042,1.952C12.154,54.454,12,55.199,12,55.982
			c0,3.313,2.687,6,6,6c2.577,0,4.769-1.628,5.618-3.91c1.095,1.173,2.651,1.91,4.382,1.91c3.313,0,6-2.686,6-5.999
			c0-0.116-0.011-0.229-0.018-0.343c0.335-0.117,0.658-0.261,0.963-0.434c1.066,1.667,2.929,2.775,5.055,2.775
			c3.313,0,6-2.686,6-5.999c3.313,0,6-2.687,6-6c0-1.094-0.298-2.117-0.809-3c0.511-0.883,0.809-1.906,0.809-3
			c0-1.549-0.593-2.957-1.557-4.021C53.549,33.734,56,31.148,56,27.985z M12.615,42.15c-0.127-0.153-0.262-0.299-0.404-0.438
			c0.565,0.176,1.167,0.271,1.79,0.271C13.522,41.983,13.06,42.045,12.615,42.15z M20.342,36.002
			c-0.114-0.007-0.227-0.018-0.342-0.018c0-0.116-0.011-0.229-0.018-0.343c0.006-0.002,0.012-0.004,0.018-0.006
			c0.14,0.05,0.283,0.094,0.427,0.133C20.397,35.846,20.37,35.924,20.342,36.002z M36,27.985c-0.116,0-0.229,0.011-0.342,0.018
			c-0.027-0.078-0.055-0.156-0.085-0.233c0.219-0.06,0.434-0.129,0.643-0.212c0.042,0.151,0.088,0.3,0.14,0.446
			C36.237,27.996,36.12,27.985,36,27.985z M40,43.983c0-1.731-0.737-3.286-1.91-4.381c0.72-0.268,1.374-0.669,1.933-1.175
			c0.068,0.927,0.345,1.794,0.787,2.557C40.298,41.867,40,42.89,40,43.983z M41.978,33.542c-0.04-0.549-0.155-1.077-0.333-1.575
			c0.118,0.007,0.235,0.018,0.355,0.018c1.071,0,2.075-0.284,2.945-0.776c0.182,0.284,0.387,0.55,0.612,0.799
			C44.183,32.107,42.939,32.67,41.978,33.542z"/>
	</g>
</g>
<g id="Grapes_1_">
	<g>
		<path style="fill-rule:evenodd;clip-rule:evenodd;fill:#8E68A2;" d="M38,27.985c2.209,0,4-1.791,4-4s-1.791-4-4-4s-4,1.791-4,4
			S35.791,27.985,38,27.985z M26,21.985c2.209,0,4-1.791,4-4s-1.791-3.999-4-3.999s-4,1.79-4,3.999S23.791,21.985,26,21.985z
			 M34,35.984c2.209,0,4-1.791,4-4s-1.791-3.999-4-3.999s-4,1.79-4,3.999S31.791,35.984,34,35.984z M34,43.983c-2.209,0-4,1.791-4,4
			s1.791,4,4,4s4-1.791,4-4S36.209,43.983,34,43.983z M32,39.983c0-2.209-1.791-3.999-4-3.999s-4,1.79-4,3.999s1.791,4,4,4
			S32,42.192,32,39.983z M20,45.983c-2.209,0-4,1.791-4,4s1.791,4,4,4s4-1.791,4-4S22.209,45.983,20,45.983z M8,49.983
			c-2.209,0-4,1.79-4,4c0,2.209,1.791,3.999,4,3.999s4-1.79,4-3.999C12,51.773,10.209,49.983,8,49.983z M20,39.983
			c0-2.209-1.791-3.999-4-3.999s-4,1.79-4,3.999s1.791,4,4,4S20,42.192,20,39.983z M48,23.985c-2.209,0-4,1.791-4,4
			c0,2.208,1.791,3.999,4,3.999s4-1.791,4-3.999C52,25.776,50.209,23.985,48,23.985z M42,33.984c-2.209,0-4,1.791-4,3.999
			c0,2.21,1.791,4,4,4s4-1.79,4-4C46,35.775,44.209,33.984,42,33.984z M24,33.984c2.209,0,4-1.791,4-4c0-2.208-1.791-4-4-4
			s-4,1.792-4,4C20,32.193,21.791,33.984,24,33.984z"/>
	</g>
</g>
<g>
</g>
<g>
</g>
<g>
</g>
<g>
</g>
<g>
</g>
<g>
</g>
<g>
</g>
<g>
</g>
<g>
</g>
<g>
</g>
<g>
</g>
<g>
</g>
<g>
</g>
<g>
</g>
<g>
</g>
</svg>
