<?xml version="1.0" encoding="iso-8859-1"?>
<!-- Generator: Adobe Illustrator 16.0.0, SVG Export Plug-In . SVG Version: 6.00 Build 0)  -->
<!DOCTYPE svg PUBLIC "-//W3C//DTD SVG 1.1//EN" "http://www.w3.org/Graphics/SVG/1.1/DTD/svg11.dtd">
<svg version="1.1" id="Layer_1" xmlns="http://www.w3.org/2000/svg" xmlns:xlink="http://www.w3.org/1999/xlink" x="0px" y="0px"
	 width="60px" height="64.001px" viewBox="0 0 60 64.001" style="enable-background:new 0 0 60 64.001;" xml:space="preserve">
<g id="Red_4_">
	<g>
		<path style="fill:#408EC2;" d="M32,14.001c-2.209,0-4,0.896-4,2.001v31.999c0,1.105,1.791,2,4,2c0.377,0,28-2,28-2V12.002
			L32,14.001z"/>
	</g>
</g>
<g id="Stripes_2_">
	<g>
		<path style="fill-rule:evenodd;clip-rule:evenodd;fill:#E6E6E6;" d="M28,44.001c0,1.105,1.791,2,4,2c0.377,0,28-2,28-2v-4l-28,2
			C29.791,42.001,28,42.896,28,44.001z M28,36.001c0,1.105,1.791,2.001,4,2.001c0.377,0,28-2.001,28-2.001v-3.999l-28,1.999
			C29.791,34.001,28,34.896,28,36.001z M28,28.002c0,1.104,1.791,1.999,4,1.999c0.377,0,28-1.999,28-1.999v-4.001l-28,2
			C29.791,26.001,28,26.896,28,28.002z M32,18.001c-2.209,0-4,0.895-4,2s1.791,2,4,2c0.377,0,28-2,28-2v-3.999L32,18.001z"/>
	</g>
</g>
<g id="Back_1_">
	<g>
		<path style="fill:#387BA8;" d="M28,36.001v8v4c0-1.104,1.791-2,4-2s4-0.896,4-2v-8H28z"/>
	</g>
</g>
<g id="Blue_2_">
	<g>
		<path style="fill:#48A0DC;" d="M32,6.001c-0.543,0-20,2-20,2v36.001c0,0,19.457-2.001,20-2.001c2.209,0,4,0.896,4,2.001V8.001
			C36,6.896,34.209,6.001,32,6.001z"/>
	</g>
</g>
<g id="Stripes_3_">
	<g>
		<path style="fill-rule:evenodd;clip-rule:evenodd;fill:#FFFFFF;" d="M32,34.001c-0.543,0-20,2-20,2v4c0,0,19.457-1.999,20-1.999
			c2.209,0,4,0.894,4,1.999v-4C36,34.896,34.209,34.001,32,34.001z M32,18.001c2.209,0,4,0.896,4,2.001v-4.001c0-1.105-1.791-2-4-2
			c-0.23,0-3.881,0.361-8,0.777v-8c-1.32,0.133-2.682,0.271-4,0.405v8c-4.252,0.432-8,0.817-8,0.817v4.001c0,0,3.748-0.386,8-0.818
			v8c-4.252,0.433-8,0.818-8,0.818v4c0,0,19.457-2.001,20-2.001c2.209,0,4,0.896,4,2.001v-4c0-1.106-1.791-2.001-4-2.001
			c-0.23,0-3.881,0.361-8,0.777v-8C28.119,18.362,31.77,18.001,32,18.001z"/>
	</g>
</g>
<g id="Pole_1_">
	<g>
		<path style="fill-rule:evenodd;clip-rule:evenodd;fill:#CCCCCC;" d="M18,60h-6V7.446c1.19-0.693,2-1.969,2-3.445
			C14,1.792,12.209,0,10,0C7.79,0,6,1.792,6,4.001c0,1.477,0.81,2.753,2,3.445V60H2c-1.105,0-2,0.896-2,2.001s0.895,2,2,2h16
			c1.104,0,2-0.896,2-2S19.104,60,18,60z"/>
	</g>
</g>
<g>
</g>
<g>
</g>
<g>
</g>
<g>
</g>
<g>
</g>
<g>
</g>
<g>
</g>
<g>
</g>
<g>
</g>
<g>
</g>
<g>
</g>
<g>
</g>
<g>
</g>
<g>
</g>
<g>
</g>
</svg>
