<?xml version="1.0" encoding="iso-8859-1"?>
<!-- Generator: Adobe Illustrator 16.0.0, SVG Export Plug-In . SVG Version: 6.00 Build 0)  -->
<!DOCTYPE svg PUBLIC "-//W3C//DTD SVG 1.1//EN" "http://www.w3.org/Graphics/SVG/1.1/DTD/svg11.dtd">
<svg version="1.1" id="Layer_1" xmlns="http://www.w3.org/2000/svg" xmlns:xlink="http://www.w3.org/1999/xlink" x="0px" y="0px"
	 width="64px" height="56px" viewBox="0 0 64 56" style="enable-background:new 0 0 64 56;" xml:space="preserve">
<g id="Hammer">
	<g>
		<path style="fill:#CCCCCC;" d="M58,14c0,0-2-6-8-10S35.875,0,32,0c-8,0-8,0-8,1.999C24,4,24,4,32,4c2,0,6,0,6,4c0,1.999,0,4-2,6
			l-8,8l6,6l8-8c2-2,4-4,8-4c2,0,4,2,4,2c0,2,2,6,4,6s6-4,6-6S60,14,58,14z"/>
	</g>
</g>
<g id="Handle_3_">
	<g>
		<path style="fill:#333333;" d="M28,22C26,22,6,42,4,44s-4,2-4,3.999C0,50,6,56,8,56s2-2,4-4.001C14,50,34,30,34,28S30,22,28,22z"
			/>
	</g>
</g>
<g>
</g>
<g>
</g>
<g>
</g>
<g>
</g>
<g>
</g>
<g>
</g>
<g>
</g>
<g>
</g>
<g>
</g>
<g>
</g>
<g>
</g>
<g>
</g>
<g>
</g>
<g>
</g>
<g>
</g>
</svg>
