<?xml version="1.0" encoding="iso-8859-1"?>
<!-- Generator: Adobe Illustrator 16.0.0, SVG Export Plug-In . SVG Version: 6.00 Build 0)  -->
<!DOCTYPE svg PUBLIC "-//W3C//DTD SVG 1.1//EN" "http://www.w3.org/Graphics/SVG/1.1/DTD/svg11.dtd">
<svg version="1.1" id="Layer_1" xmlns="http://www.w3.org/2000/svg" xmlns:xlink="http://www.w3.org/1999/xlink" x="0px" y="0px"
	 width="64px" height="39.999px" viewBox="0 0 64 39.999" style="enable-background:new 0 0 64 39.999;" xml:space="preserve">
<g id="Top">
	<g>
		<path style="fill:#E6B85C;" d="M32,0C22,0,18,4,16,6s-4,16-4,16h48C60,22,60,0,32,0z"/>
	</g>
</g>
<g id="Peak_1_">
	<g>
		<path style="fill:#E6B85C;" d="M62,30H8c0,0-8,2-8,4s10,4,20,4c4,0,18,1.999,30,1.999S64,36,64,34S62,30,62,30z"/>
	</g>
</g>
<g id="Hat_2_">
	<g>
		<path style="fill:#FFCC66;" d="M32,4C10,4,8,30,8,30s14,4,34,4c12.041,0,20-4,20-4S62,4,32,4z"/>
	</g>
</g>
<g id="Locks">
	<g>
		<path style="fill-rule:evenodd;clip-rule:evenodd;fill:#CCA352;" d="M40,28h-6c-1.104,0-2,0.895-2,2v4c0,1.104,0.896,2,2,2h6
			c1.104,0,2-0.896,2-2v-4C42,28.895,41.104,28,40,28z M56,28h-6c0,0-2,0-2,2v4c0,2,2,2,2,2s8,0,8-2S58,28,56,28z"/>
	</g>
</g>
<g>
</g>
<g>
</g>
<g>
</g>
<g>
</g>
<g>
</g>
<g>
</g>
<g>
</g>
<g>
</g>
<g>
</g>
<g>
</g>
<g>
</g>
<g>
</g>
<g>
</g>
<g>
</g>
<g>
</g>
</svg>
