<?xml version="1.0" encoding="iso-8859-1"?>
<!-- Generator: Adobe Illustrator 16.0.0, SVG Export Plug-In . SVG Version: 6.00 Build 0)  -->
<!DOCTYPE svg PUBLIC "-//W3C//DTD SVG 1.1//EN" "http://www.w3.org/Graphics/SVG/1.1/DTD/svg11.dtd">
<svg version="1.1" id="Layer_1" xmlns="http://www.w3.org/2000/svg" xmlns:xlink="http://www.w3.org/1999/xlink" x="0px" y="0px"
	 width="60px" height="64.001px" viewBox="0 0 60 64.001" style="enable-background:new 0 0 60 64.001;" xml:space="preserve">
<g id="Green_2_">
	<g>
		<path style="fill:#75A64B;" d="M32,38.001c-2.209,0-4-0.895-4-2v12c0,1.105,1.791,2,4,2c0.376,0,28-2,28-2v-12
			C60,36.001,32.377,38.001,32,38.001z"/>
	</g>
</g>
<g id="White_9_">
	<g>
		<path style="fill:#E6E6E6;" d="M32,26.001c-2.209,0-4-0.895-4-2v12c0,1.105,1.791,2,4,2c0.376,0,28-2,28-2v-12
			C60,24.001,32.377,26.001,32,26.001z"/>
	</g>
</g>
<g id="Yellow_2_">
	<g>
		<path style="fill:#E6B85C;" d="M32,14.001c-2.209,0-4-0.895-4-2v12c0,1.105,1.791,2,4,2c0.376,0,28-2,28-2v-12
			C60,12.001,32.377,14.001,32,14.001z"/>
	</g>
</g>
<g id="Back_7_">
	<g>
		<path style="fill:#638C3F;" d="M28,36.001v8v4c0-1.104,1.791-2,4-2c2.209,0,4-0.896,4-2v-8H28z"/>
	</g>
</g>
<g id="Green_3_">
	<g>
		<path style="fill:#88C057;" d="M32,30.001c-0.543,0-20,2.001-20,2.001v11.999c0,0,19.457-1.999,20-1.999c2.208,0,4,0.894,4,1.999
			V32.002C36,30.896,34.209,30.001,32,30.001z"/>
	</g>
</g>
<g id="White_10_">
	<g>
		<path style="fill:#FFFFFF;" d="M32,18.001c-0.543,0-20,2-20,2v12c0,0,19.457-2,20-2c2.208,0,4,0.895,4,2v-12
			C36,18.896,34.209,18.001,32,18.001z"/>
	</g>
</g>
<g id="Yellow_3_">
	<g>
		<path style="fill:#FFCC66;" d="M32,6.001c-0.543,0-20,2-20,2v12c0,0,19.457-2,20-2c2.208,0,4,0.895,4,2v-12
			C36,6.896,34.209,6.001,32,6.001z"/>
	</g>
</g>
<g id="Pole_7_">
	<g>
		<path style="fill-rule:evenodd;clip-rule:evenodd;fill:#CCCCCC;" d="M18,60h-6V7.446c1.191-0.692,2-1.969,2-3.445
			C14,1.792,12.209,0,10,0C7.791,0,6,1.792,6,4.001c0,1.477,0.81,2.752,2,3.445V60H2c-1.104,0-2,0.896-2,2.001s0.896,2,2,2h16
			c1.104,0,2-0.896,2-2S19.104,60,18,60z"/>
	</g>
</g>
<g>
</g>
<g>
</g>
<g>
</g>
<g>
</g>
<g>
</g>
<g>
</g>
<g>
</g>
<g>
</g>
<g>
</g>
<g>
</g>
<g>
</g>
<g>
</g>
<g>
</g>
<g>
</g>
<g>
</g>
</svg>
