<?xml version="1.0" encoding="iso-8859-1"?>
<!-- Generator: Adobe Illustrator 16.0.0, SVG Export Plug-In . SVG Version: 6.00 Build 0)  -->
<!DOCTYPE svg PUBLIC "-//W3C//DTD SVG 1.1//EN" "http://www.w3.org/Graphics/SVG/1.1/DTD/svg11.dtd">
<svg version="1.1" id="Layer_1" xmlns="http://www.w3.org/2000/svg" xmlns:xlink="http://www.w3.org/1999/xlink" x="0px" y="0px"
	 width="60.001px" height="64px" viewBox="0 0 60.001 64" style="enable-background:new 0 0 60.001 64;" xml:space="preserve">
<g id="Red_16_">
	<g>
		<path style="fill-rule:evenodd;clip-rule:evenodd;fill:#ED7161;" d="M42.001,13.286v36.012c8.041-0.577,18-1.298,18-1.298V12
			L42.001,13.286z"/>
	</g>
</g>
<g id="White_15_">
	<g>
		<path style="fill-rule:evenodd;clip-rule:evenodd;fill:#CCCCCC;" d="M42.001,13.286l-10,0.714c-2.209,0-4,0.895-4,2v32
			c0,1.106,1.791,2,4,2c0.15,0,4.651-0.319,10-0.702V13.286z"/>
	</g>
</g>
<g id="Back_11_">
	<g>
		<path style="fill:#B3B3B3;" d="M28.001,36v8v4c0-1.104,1.791-2,4-2s4-0.896,4-2v-8H28.001z"/>
	</g>
</g>
<g id="White_16_">
	<g>
		<path style="fill-rule:evenodd;clip-rule:evenodd;fill:#E6E6E6;" d="M32.001,6c-0.15,0-1.759,0.154-4,0.377v36
			c2.241-0.222,3.85-0.376,4-0.376c2.209,0,4,0.894,4,1.999V8.001C36.001,6.895,34.21,6,32.001,6z"/>
	</g>
</g>
<g id="Green_5_">
	<g>
		<path style="fill-rule:evenodd;clip-rule:evenodd;fill:#88C057;" d="M28.001,6.377c-5.841,0.579-16,1.624-16,1.624V44
			c0,0,10.159-1.044,16-1.623V6.377z"/>
	</g>
</g>
<g id="Pole_11_">
	<g>
		<path style="fill-rule:evenodd;clip-rule:evenodd;fill:#CCCCCC;" d="M18,59.999h-5.999V7.445c1.19-0.693,2-1.969,2-3.445
			c0-2.209-1.791-4-4-4c-2.21,0-4,1.791-4,4c0,1.477,0.81,2.753,2,3.445v52.554h-6C0.896,59.999,0,60.896,0,62s0.896,2,2.001,2H18
			c1.105,0,2.001-0.896,2.001-2S19.105,59.999,18,59.999z"/>
	</g>
</g>
<g>
</g>
<g>
</g>
<g>
</g>
<g>
</g>
<g>
</g>
<g>
</g>
<g>
</g>
<g>
</g>
<g>
</g>
<g>
</g>
<g>
</g>
<g>
</g>
<g>
</g>
<g>
</g>
<g>
</g>
</svg>
