<?xml version="1.0" encoding="iso-8859-1"?>
<!-- Generator: Adobe Illustrator 16.0.0, SVG Export Plug-In . SVG Version: 6.00 Build 0)  -->
<!DOCTYPE svg PUBLIC "-//W3C//DTD SVG 1.1//EN" "http://www.w3.org/Graphics/SVG/1.1/DTD/svg11.dtd">
<svg version="1.1" id="Layer_1" xmlns="http://www.w3.org/2000/svg" xmlns:xlink="http://www.w3.org/1999/xlink" x="0px" y="0px"
	 width="60px" height="64.001px" viewBox="0 0 60 64.001" style="enable-background:new 0 0 60 64.001;" xml:space="preserve">
<g id="White_6_">
	<g>
		<path style="fill:#CCCCCC;" d="M32,14.002c-2.209,0-4,0.894-4,1.999v32c0,1.106,1.791,2.001,4,2.001c0.377,0,28-2.001,28-2.001
			v-36L32,14.002z"/>
	</g>
</g>
<g id="Back_4_">
	<g>
		<path style="fill:#B3B3B3;" d="M28,36.001v8v4c0-1.104,1.791-2,4-2s4-0.896,4-2v-8H28z"/>
	</g>
</g>
<g id="White_7_">
	<g>
		<path style="fill:#E6E6E6;" d="M32,6.001c-0.543,0-20,2-20,2v36c0,0,19.457-1.999,20-1.999c2.209,0,4,0.894,4,1.999v-36
			C36,6.896,34.209,6.001,32,6.001z"/>
	</g>
</g>
<g id="Red_7_">
	<g>
		<path style="fill-rule:evenodd;clip-rule:evenodd;fill:#ED7161;" d="M36,18.002c-4.419,0-8,3.581-8,8c0,4.418,3.581,7.999,8,7.999
			V18.002z"/>
	</g>
</g>
<g id="Red_8_">
	<g>
		<path style="fill-rule:evenodd;clip-rule:evenodd;fill:#D46557;" d="M36,22.001v16.001c4.418,0,8-3.582,8-8
			C44,25.583,40.418,22.001,36,22.001z"/>
	</g>
</g>
<g id="Pole_4_">
	<g>
		<path style="fill-rule:evenodd;clip-rule:evenodd;fill:#CCCCCC;" d="M18,60h-6V7.446c1.19-0.693,2-1.969,2-3.445
			C14,1.792,12.209,0,10,0C7.79,0,6,1.792,6,4.001c0,1.477,0.809,2.753,2,3.445V60H2c-1.105,0-2,0.896-2,2.001s0.895,2,2,2h16
			c1.104,0,2-0.896,2-2S19.104,60,18,60z"/>
	</g>
</g>
<g>
</g>
<g>
</g>
<g>
</g>
<g>
</g>
<g>
</g>
<g>
</g>
<g>
</g>
<g>
</g>
<g>
</g>
<g>
</g>
<g>
</g>
<g>
</g>
<g>
</g>
<g>
</g>
<g>
</g>
</svg>
