<?xml version="1.0" encoding="iso-8859-1"?>
<!-- Generator: Adobe Illustrator 16.0.0, SVG Export Plug-In . SVG Version: 6.00 Build 0)  -->
<!DOCTYPE svg PUBLIC "-//W3C//DTD SVG 1.1//EN" "http://www.w3.org/Graphics/SVG/1.1/DTD/svg11.dtd">
<svg version="1.1" id="Layer_1" xmlns="http://www.w3.org/2000/svg" xmlns:xlink="http://www.w3.org/1999/xlink" x="0px" y="0px"
	 width="64px" height="64px" viewBox="0 0 64 64" style="enable-background:new 0 0 64 64;" xml:space="preserve">
<g id="Body_31_">
	<g>
		<circle style="fill:#E7CFB6;" cx="32" cy="32" r="32"/>
	</g>
</g>
<g id="Waves">
	<g>
		<path style="fill:#C5A788;" d="M61.652,20H2.348c-1.022,2.522-1.722,5.205-2.071,8h63.447C63.374,25.205,62.674,22.522,61.652,20z
			 M56.958,12H7.042c-1.008,1.257-1.913,2.598-2.726,4h55.368C58.871,14.598,57.967,13.257,56.958,12z M7.042,52h49.917
			c2.79-3.478,4.846-7.553,5.993-12H1.049C2.195,44.447,4.251,48.522,7.042,52z M0,32c0,1.357,0.112,2.687,0.276,4h63.447
			C63.888,34.687,64,33.357,64,32H0z M32,64c8.102,0,15.479-3.035,21.117-8H10.883C16.521,60.965,23.897,64,32,64z"/>
	</g>
</g>
<g id="Waves_3_">
	<g>
		<path style="fill:#FFFFFF;" d="M0.276,36c0.17,1.363,0.436,2.695,0.772,4h61.902c0.336-1.305,0.602-2.637,0.772-4H0.276z"/>
	</g>
</g>
<g id="Waves_2_">
	<g>
		<path style="fill:#9A7B5C;" d="M62.951,24H1.049C0.388,26.562,0,29.232,0,32h64C64,29.232,63.611,26.562,62.951,24z M4.316,48
			h55.368c0.743-1.282,1.406-2.613,1.969-4H2.348C2.91,45.387,3.573,46.718,4.316,48z"/>
	</g>
</g>
<g id="Crater">
	<g>
		<ellipse style="fill:#C5A788;" cx="20" cy="28" rx="12" ry="8"/>
	</g>
</g>
<g id="Crater_1_">
	<g>
		<ellipse style="fill:#E7CFB6;" cx="20" cy="28" rx="8" ry="4"/>
	</g>
</g>
<g>
</g>
<g>
</g>
<g>
</g>
<g>
</g>
<g>
</g>
<g>
</g>
<g>
</g>
<g>
</g>
<g>
</g>
<g>
</g>
<g>
</g>
<g>
</g>
<g>
</g>
<g>
</g>
<g>
</g>
</svg>
