<?xml version="1.0" encoding="iso-8859-1"?>
<!-- Generator: Adobe Illustrator 16.0.0, SVG Export Plug-In . SVG Version: 6.00 Build 0)  -->
<!DOCTYPE svg PUBLIC "-//W3C//DTD SVG 1.1//EN" "http://www.w3.org/Graphics/SVG/1.1/DTD/svg11.dtd">
<svg version="1.1" id="Layer_1" xmlns="http://www.w3.org/2000/svg" xmlns:xlink="http://www.w3.org/1999/xlink" x="0px" y="0px"
	 width="64px" height="64px" viewBox="0 0 64 64" style="enable-background:new 0 0 64 64;" xml:space="preserve">
<g id="Base_5_">
	<g>
		<path style="fill:#CCCCCC;" d="M60,0H4C1.791,0,0,1.791,0,4v56c0,2.209,1.791,4,4,4h56c2.209,0,4-1.791,4-4V4
			C64,1.791,62.209,0,60,0z"/>
	</g>
</g>
<g id="Round_Shape_Shadow">
	<g>
		<path style="fill-rule:evenodd;clip-rule:evenodd;fill:#999999;" d="M16,10c-5.523,0-10,4.477-10,10c0,5.522,4.477,10,10,10
			c5.522,0,10-4.478,10-10C26,14.477,21.522,10,16,10z M48,30c5.522,0,10-4.478,10-10c0-5.523-4.478-10-10-10
			c-5.523,0-10,4.477-10,10C38,25.522,42.477,30,48,30z M48,42c-5.523,0-10,4.477-10,10c0,5.522,4.477,10,10,10
			c5.522,0,10-4.478,10-10C58,46.477,53.522,42,48,42z M16,42c-5.523,0-10,4.477-10,10c0,5.522,4.477,10,10,10
			c5.522,0,10-4.478,10-10C26,46.477,21.522,42,16,42z"/>
	</g>
</g>
<g id="Round_Shape">
	<g>
		<path style="fill-rule:evenodd;clip-rule:evenodd;fill:#E6E6E6;" d="M16,6C10.477,6,6,10.477,6,16c0,5.522,4.477,10,10,10
			c5.522,0,10-4.478,10-10C26,10.477,21.522,6,16,6z M48,26c5.522,0,10-4.478,10-10c0-5.523-4.478-10-10-10c-5.523,0-10,4.477-10,10
			C38,21.522,42.477,26,48,26z M48,38c-5.523,0-10,4.477-10,10c0,5.522,4.477,10,10,10c5.522,0,10-4.478,10-10
			C58,42.477,53.522,38,48,38z M16,38c-5.523,0-10,4.477-10,10c0,5.522,4.477,10,10,10c5.522,0,10-4.478,10-10
			C26,42.477,21.522,38,16,38z"/>
	</g>
</g>
<g id="Lego_Logo">
	<g>
		<path style="fill-rule:evenodd;clip-rule:evenodd;fill:#999999;" d="M20,14h-8c-1.104,0-2,0.896-2,2s0.896,2,2,2h8
			c1.104,0,2-0.896,2-2S21.104,14,20,14z M44,18h8c1.104,0,2-0.896,2-2s-0.896-2-2-2h-8c-1.104,0-2,0.896-2,2S42.896,18,44,18z
			 M20,46h-8c-1.104,0-2,0.896-2,2s0.896,2,2,2h8c1.104,0,2-0.896,2-2S21.104,46,20,46z M52,46h-8c-1.104,0-2,0.896-2,2s0.896,2,2,2
			h8c1.104,0,2-0.896,2-2S53.104,46,52,46z"/>
	</g>
</g>
<g>
</g>
<g>
</g>
<g>
</g>
<g>
</g>
<g>
</g>
<g>
</g>
<g>
</g>
<g>
</g>
<g>
</g>
<g>
</g>
<g>
</g>
<g>
</g>
<g>
</g>
<g>
</g>
<g>
</g>
</svg>
