<?xml version="1.0" encoding="iso-8859-1"?>
<!-- Generator: Adobe Illustrator 16.0.0, SVG Export Plug-In . SVG Version: 6.00 Build 0)  -->
<!DOCTYPE svg PUBLIC "-//W3C//DTD SVG 1.1//EN" "http://www.w3.org/Graphics/SVG/1.1/DTD/svg11.dtd">
<svg version="1.1" id="Layer_1" xmlns="http://www.w3.org/2000/svg" xmlns:xlink="http://www.w3.org/1999/xlink" x="0px" y="0px"
	 width="58.024px" height="64px" viewBox="0 0 58.024 64" style="enable-background:new 0 0 58.024 64;" xml:space="preserve">
<g id="Neck_1_">
	<g>
		<rect x="14" y="58" style="fill:#F4CA22;" width="28" height="6"/>
	</g>
</g>
<g id="Head_8_">
	<g>
		<path style="fill:#FFD800;" d="M44,12H12C6.477,12,2,16.477,2,22v26c0,5.522,4.477,10,10,10h32c5.522,0,10-4.478,10-10V22
			C54,16.477,49.522,12,44,12z"/>
	</g>
</g>
<g id="Mouth_and_Eyes">
	<g>
		<path style="fill-rule:evenodd;clip-rule:evenodd;fill:#1B0000;" d="M22,35c0-1.657-1.344-3-3-3c-1.657,0-3,1.343-3,3
			c0,1.656,1.343,3,3,3C20.656,38,22,36.656,22,35z M37,32c-1.657,0-3,1.343-3,3c0,1.656,1.343,3,3,3c1.656,0,3-1.344,3-3
			C40,33.343,38.656,32,37,32z M37.353,44.016L37.335,44c0,0-3.077,2-9.335,2s-9.293-2-9.293-2s-0.873-0.125-0.666,0.571
			c0,0,2.184,3.429,9.979,3.429S38,44.571,38,44.571l-0.018-0.015C38.152,43.941,37.443,44.005,37.353,44.016z"/>
	</g>
</g>
<g id="Hair">
	<g>
		<path style="fill:#A67C52;" d="M28,0C28,0,0,0.75,0,18s4,14,4,14s2-0.375,4-12c0,0,25.875,9.938,46,6v6c0,0,4-0.283,4-6
			C58,26,60,0,28,0z"/>
	</g>
</g>
<g>
</g>
<g>
</g>
<g>
</g>
<g>
</g>
<g>
</g>
<g>
</g>
<g>
</g>
<g>
</g>
<g>
</g>
<g>
</g>
<g>
</g>
<g>
</g>
<g>
</g>
<g>
</g>
<g>
</g>
</svg>
