<?xml version="1.0" encoding="iso-8859-1"?>
<!-- Generator: Adobe Illustrator 16.0.0, SVG Export Plug-In . SVG Version: 6.00 Build 0)  -->
<!DOCTYPE svg PUBLIC "-//W3C//DTD SVG 1.1//EN" "http://www.w3.org/Graphics/SVG/1.1/DTD/svg11.dtd">
<svg version="1.1" id="Layer_1" xmlns="http://www.w3.org/2000/svg" xmlns:xlink="http://www.w3.org/1999/xlink" x="0px" y="0px"
	 width="64px" height="64px" viewBox="0 0 64 64" style="enable-background:new 0 0 64 64;" xml:space="preserve">
<g id="Base_10_">
	<g>
		<rect style="fill:#FFC600;" width="32" height="32"/>
	</g>
</g>
<g id="Round_Shape_15_">
	<g>
		<circle style="fill:#E6A900;" cx="16" cy="20" r="10"/>
	</g>
</g>
<g id="Round_Shape_13_">
	<g>
		<circle style="fill:#FFE557;" cx="16" cy="16" r="10"/>
	</g>
</g>
<g id="Base_11_">
	<g>
		<rect x="32" style="fill:#F54B4F;" width="32" height="32"/>
	</g>
</g>
<g id="Round_Shape_11_">
	<g>
		<circle style="fill:#AC2531;" cx="48" cy="20" r="10"/>
	</g>
</g>
<g id="Round_Shape_9_">
	<g>
		<circle style="fill:#FF6F6A;" cx="48" cy="16" r="10"/>
	</g>
</g>
<g id="Base_12_">
	<g>
		<rect x="32" y="32" style="fill:#87DF31;" width="32" height="32"/>
	</g>
</g>
<g id="Round_Shape_5_">
	<g>
		<circle style="fill:#5F9F20;" cx="48" cy="52" r="10"/>
	</g>
</g>
<g id="Round_Shape_6_">
	<g>
		<circle style="fill:#ADF369;" cx="48" cy="48" r="10"/>
	</g>
</g>
<g id="Base_13_">
	<g>
		<rect y="32" style="fill:#4BBBF5;" width="32" height="32"/>
	</g>
</g>
<g id="Round_Shape_7_">
	<g>
		<circle style="fill:#288BBE;" cx="16" cy="52" r="10"/>
	</g>
</g>
<g id="Round_Shape_8_">
	<g>
		<circle style="fill:#84D5FE;" cx="16" cy="48" r="10"/>
	</g>
</g>
<g id="Lego_Logo_7_">
	<g>
		<path style="fill:#E6A900;" d="M20,14h-8c-1.104,0-2,0.896-2,2s0.896,2,2,2h8c1.104,0,2-0.896,2-2S21.104,14,20,14z"/>
	</g>
</g>
<g id="Lego_Logo_5_">
	<g>
		<path style="fill:#AF2732;" d="M52,14h-8c-1.104,0-2,0.896-2,2s0.896,2,2,2h8c1.104,0,2-0.896,2-2S53.104,14,52,14z"/>
	</g>
</g>
<g id="Lego_Logo_3_">
	<g>
		<path style="fill:#5F9F20;" d="M52,46h-8c-1.104,0-2,0.896-2,2s0.896,2,2,2h8c1.104,0,2-0.896,2-2S53.104,46,52,46z"/>
	</g>
</g>
<g id="Lego_Logo_4_">
	<g>
		<path style="fill:#2A8DC0;" d="M20,46h-8c-1.104,0-2,0.896-2,2s0.896,2,2,2h8c1.104,0,2-0.896,2-2S21.104,46,20,46z"/>
	</g>
</g>
<g>
</g>
<g>
</g>
<g>
</g>
<g>
</g>
<g>
</g>
<g>
</g>
<g>
</g>
<g>
</g>
<g>
</g>
<g>
</g>
<g>
</g>
<g>
</g>
<g>
</g>
<g>
</g>
<g>
</g>
</svg>
