<?xml version="1.0" encoding="iso-8859-1"?>
<!-- Generator: Adobe Illustrator 16.0.0, SVG Export Plug-In . SVG Version: 6.00 Build 0)  -->
<!DOCTYPE svg PUBLIC "-//W3C//DTD SVG 1.1//EN" "http://www.w3.org/Graphics/SVG/1.1/DTD/svg11.dtd">
<svg version="1.1" id="Layer_1" xmlns="http://www.w3.org/2000/svg" xmlns:xlink="http://www.w3.org/1999/xlink" x="0px" y="0px"
	 width="64px" height="64px" viewBox="0 0 64 64" style="enable-background:new 0 0 64 64;" xml:space="preserve">
<g id="Shape_21_">
	<g>
		<path style="fill-rule:evenodd;clip-rule:evenodd;fill:#E6B85C;" d="M22.434,0H9.566C7.604,0,6.015,1.593,6.015,3.557v8.892
			c0,1.965,1.59,3.557,3.552,3.557h12.867c1.961,0,3.552-1.592,3.552-3.557V3.557C25.985,1.593,24.395,0,22.434,0z M54.434,0H41.566
			c-1.961,0-3.552,1.593-3.552,3.557v8.892c0,1.965,1.591,3.557,3.552,3.557h12.867c1.962,0,3.552-1.592,3.552-3.557V3.557
			C57.985,1.593,56.396,0,54.434,0z"/>
	</g>
</g>
<g id="Base_6_">
	<g>
		<rect y="5.983" style="fill:#FFCC66;" width="64" height="58.017"/>
	</g>
</g>
<g>
</g>
<g>
</g>
<g>
</g>
<g>
</g>
<g>
</g>
<g>
</g>
<g>
</g>
<g>
</g>
<g>
</g>
<g>
</g>
<g>
</g>
<g>
</g>
<g>
</g>
<g>
</g>
<g>
</g>
</svg>
