<?xml version="1.0" encoding="iso-8859-1"?>
<!-- Generator: Adobe Illustrator 16.0.0, SVG Export Plug-In . SVG Version: 6.00 Build 0)  -->
<!DOCTYPE svg PUBLIC "-//W3C//DTD SVG 1.1//EN" "http://www.w3.org/Graphics/SVG/1.1/DTD/svg11.dtd">
<svg version="1.1" id="Layer_1" xmlns="http://www.w3.org/2000/svg" xmlns:xlink="http://www.w3.org/1999/xlink" x="0px" y="0px"
	 width="56px" height="64px" viewBox="0 0 56 64" style="enable-background:new 0 0 56 64;" xml:space="preserve">
<g id="Neck_2_">
	<g>
		<rect x="12" y="58" style="fill:#F4CA22;" width="32" height="6"/>
	</g>
</g>
<g id="Head_9_">
	<g>
		<path style="fill:#FFD800;" d="M46,8H10C4.477,8,0,12.477,0,18v30c0,5.522,4.477,10,10,10h36c5.522,0,10-4.478,10-10V18
			C56,12.477,51.522,8,46,8z"/>
	</g>
</g>
<g id="Head_Shape">
	<g>
		<rect x="16" style="fill:#F4CA22;" width="24" height="8"/>
	</g>
</g>
<g id="Mouth_and_Eyes_1_">
	<g>
		<path style="fill-rule:evenodd;clip-rule:evenodd;fill:#333333;" d="M37.353,42.016L37.335,42c0,0-3.077,2-9.335,2
			s-9.293-2-9.293-2s-0.873-0.125-0.666,0.571c0,0,2.184,3.429,9.979,3.429C35.817,46,38,42.571,38,42.571l-0.018-0.016
			C38.152,41.941,37.443,42.005,37.353,42.016z M22,33c0-1.657-1.343-3-3-3s-3,1.343-3,3c0,1.656,1.343,3,3,3S22,34.656,22,33z
			 M37,30c-1.657,0-3,1.343-3,3c0,1.656,1.343,3,3,3s3-1.344,3-3C40,31.343,38.657,30,37,30z"/>
	</g>
</g>
<g>
</g>
<g>
</g>
<g>
</g>
<g>
</g>
<g>
</g>
<g>
</g>
<g>
</g>
<g>
</g>
<g>
</g>
<g>
</g>
<g>
</g>
<g>
</g>
<g>
</g>
<g>
</g>
<g>
</g>
</svg>
