<?xml version="1.0" encoding="iso-8859-1"?>
<!-- Generator: Adobe Illustrator 16.0.0, SVG Export Plug-In . SVG Version: 6.00 Build 0)  -->
<!DOCTYPE svg PUBLIC "-//W3C//DTD SVG 1.1//EN" "http://www.w3.org/Graphics/SVG/1.1/DTD/svg11.dtd">
<svg version="1.1" id="Layer_1" xmlns="http://www.w3.org/2000/svg" xmlns:xlink="http://www.w3.org/1999/xlink" x="0px" y="0px"
	 width="64.069px" height="64px" viewBox="0 0 64.069 64" style="enable-background:new 0 0 64.069 64;" xml:space="preserve">
<g id="Life_Star">
	<g>
		<path style="fill-rule:evenodd;clip-rule:evenodd;fill:#48A0DC;" d="M63.063,41.689L47.406,32l15.657-9.69
			c0.962-0.56,1.292-1.8,0.736-2.77L57.765,9.005c-0.556-0.97-1.786-1.302-2.748-0.742l-14.981,9.272V2c0-1.105-0.896-2-2-2h-12
			c-1.104,0-2,0.895-2,2v15.535L9.054,8.263c-0.962-0.56-2.192-0.228-2.748,0.742L0.271,19.54c-0.556,0.97-0.227,2.21,0.736,2.77
			L16.664,32L1.007,41.689c-0.963,0.56-1.292,1.8-0.736,2.77l6.035,10.536c0.556,0.97,1.786,1.302,2.748,0.741l14.981-9.271V62
			c0,1.104,0.896,2,2,2h12c1.104,0,2-0.896,2-2V46.465l14.981,9.271c0.962,0.561,2.192,0.229,2.748-0.741L63.8,44.459
			C64.355,43.489,64.025,42.249,63.063,41.689z"/>
	</g>
</g>
<g>
</g>
<g>
</g>
<g>
</g>
<g>
</g>
<g>
</g>
<g>
</g>
<g>
</g>
<g>
</g>
<g>
</g>
<g>
</g>
<g>
</g>
<g>
</g>
<g>
</g>
<g>
</g>
<g>
</g>
</svg>
