<?xml version="1.0" encoding="iso-8859-1"?>
<!-- Generator: Adobe Illustrator 16.0.0, SVG Export Plug-In . SVG Version: 6.00 Build 0)  -->
<!DOCTYPE svg PUBLIC "-//W3C//DTD SVG 1.1//EN" "http://www.w3.org/Graphics/SVG/1.1/DTD/svg11.dtd">
<svg version="1.1" id="Layer_1" xmlns="http://www.w3.org/2000/svg" xmlns:xlink="http://www.w3.org/1999/xlink" x="0px" y="0px"
	 width="64px" height="40px" viewBox="0 0 64 40" style="enable-background:new 0 0 64 40;" xml:space="preserve">
<g id="Arm_1_">
	<g>
		<path style="fill:#E6B85C;" d="M20,8c-4,0-8,0-8,0v2c0,0,6,2,8,4s4,8,4,8l4-2C28,20,22,8,20,8z"/>
	</g>
</g>
<g id="Bucket_1_">
	<g>
		<path style="fill:#666666;" d="M8,0L0,14l12-2c0,0,2-2,2-4S8,0,8,0z"/>
	</g>
</g>
<g id="Joint_1_">
	<g>
		<rect x="24" y="24.001" style="fill:#CCA352;" width="10" height="5.999"/>
	</g>
</g>
<g id="Cover_2_">
	<g>
		<path style="fill:#999999;" d="M54,12H44v4h18C60,12,56,12,54,12z"/>
	</g>
</g>
<g id="Body_2_">
	<g>
		<path style="fill:#FFCC66;" d="M62,16H48v0.001H28L20,24v6.001h8v-6c0,0,6,0,6,4V30c0,1.104,0.896,2,2,2h8c0,0,20,0,20-2v-4
			C64,24,64,20,62,16z"/>
	</g>
</g>
<g id="Cabin_2_">
	<g>
		<polygon style="fill:#B3B3B3;" points="30,4.001 26,20.001 40,20.001 46,14.001 46,4.001 		"/>
	</g>
</g>
<g id="Window_2_">
	<g>
		<polygon style="fill:#E6E6E6;" points="34,4.001 32,16.001 38,16.001 42,12.001 42,4.001 		"/>
	</g>
</g>
<g id="Roof_2_">
	<g>
		<path style="fill:#999999;" d="M32,0c-2,0.001-2,2-2,2v2.001L46,4V0H32z"/>
	</g>
</g>
<g id="Wheels_2_">
	<g>
		<path style="fill-rule:evenodd;clip-rule:evenodd;fill:#666666;" d="M48,19.999c-5.523,0-10,4.478-10,10
			C38,35.522,42.477,40,48,40c5.522,0,10-4.478,10-10.001C58,24.477,53.522,19.999,48,19.999z M18,19.999c-5.523,0-10,4.478-10,10
			C8,35.522,12.477,40,18,40c5.522,0,10-4.478,10-10.001C28,24.477,23.522,19.999,18,19.999z"/>
	</g>
</g>
<g id="Rims_1_">
	<g>
		<path style="fill-rule:evenodd;clip-rule:evenodd;fill:#B3B3B3;" d="M17.999,24c-3.313,0-6,2.686-6,5.999s2.687,6,6,6
			s6.001-2.687,6.001-6S21.313,24,17.999,24z M48,24c-3.314,0-6.001,2.686-6.001,5.999s2.687,6,6.001,6c3.313,0,5.999-2.687,5.999-6
			S51.313,24,48,24z"/>
	</g>
</g>
<g>
</g>
<g>
</g>
<g>
</g>
<g>
</g>
<g>
</g>
<g>
</g>
<g>
</g>
<g>
</g>
<g>
</g>
<g>
</g>
<g>
</g>
<g>
</g>
<g>
</g>
<g>
</g>
<g>
</g>
</svg>
