<?xml version="1.0" encoding="iso-8859-1"?>
<!-- Generator: Adobe Illustrator 16.0.0, SVG Export Plug-In . SVG Version: 6.00 Build 0)  -->
<!DOCTYPE svg PUBLIC "-//W3C//DTD SVG 1.1//EN" "http://www.w3.org/Graphics/SVG/1.1/DTD/svg11.dtd">
<svg version="1.1" id="Layer_1" xmlns="http://www.w3.org/2000/svg" xmlns:xlink="http://www.w3.org/1999/xlink" x="0px" y="0px"
	 width="64.045px" height="63.995px" viewBox="0 0 64.045 63.995" style="enable-background:new 0 0 64.045 63.995;"
	 xml:space="preserve">
<g id="Glass_4_">
	<g>
		<path style="fill:#B3B3B3;" d="M62.013,7.999c2.444-2.443,2-3.999,2-3.999c0-2.209-1.791-4-4-4h-56c-2.209,0-4,1.791-4,4
			c0,0-0.302,1.698,2,3.999c8.063,8.063,28,25.998,28,25.998v22.554c-1.19,0.692-2,1.968-2,3.444h-4c-2.209,0-4,1.791-4,4h24
			c0-2.209-1.791-4-4-4h-4c0-1.477-0.81-2.752-2-3.444V33.997C34.013,33.997,53.831,16.181,62.013,7.999z"/>
	</g>
</g>
<g id="Glass_5_">
	<g>
		<path style="fill-rule:evenodd;clip-rule:evenodd;fill:#E6E6E6;" d="M58.013,4V0h-52v4c0,0-0.243,0.692,1.625,2.588
			c6.546,6.64,22.728,21.41,22.728,21.41h3.247c0,0,16.085-14.673,22.727-21.41C58.323,4.575,58.013,4,58.013,4z"/>
	</g>
</g>
<g id="Martini">
	<g>
		<path style="fill:#88C057;" d="M46.013,9.999c-5.118-0.563-8.115-2.004-18,0c-7.478,1.516-13.926,0.74-16.632,0.271
			c7.532,7.272,18.984,17.728,18.984,17.728h3.247c0,0,11.876-10.835,19.432-18.159C51.298,10.003,49.064,10.335,46.013,9.999z"/>
	</g>
</g>
<g>
</g>
<g>
</g>
<g>
</g>
<g>
</g>
<g>
</g>
<g>
</g>
<g>
</g>
<g>
</g>
<g>
</g>
<g>
</g>
<g>
</g>
<g>
</g>
<g>
</g>
<g>
</g>
<g>
</g>
</svg>
