<?xml version="1.0" encoding="iso-8859-1"?>
<!-- Generator: Adobe Illustrator 16.0.0, SVG Export Plug-In . SVG Version: 6.00 Build 0)  -->
<!DOCTYPE svg PUBLIC "-//W3C//DTD SVG 1.1//EN" "http://www.w3.org/Graphics/SVG/1.1/DTD/svg11.dtd">
<svg version="1.1" id="Layer_1" xmlns="http://www.w3.org/2000/svg" xmlns:xlink="http://www.w3.org/1999/xlink" x="0px" y="0px"
	 width="64px" height="52px" viewBox="0 0 64 52" style="enable-background:new 0 0 64 52;" xml:space="preserve">
<g id="Body_8_">
	<g>
		<path style="fill:#CCCCCC;" d="M60,8H4c-2.209,0-4,1.791-4,4v36c0,2.209,1.791,4,4,4h56c2.209,0,4-1.791,4-4V12
			C64,9.791,62.209,8,60,8z"/>
	</g>
</g>
<g id="Front">
	<g>
		<path style="fill:#E6E6E6;" d="M58,12H6c-1.104,0-2,0.896-2,2v32c0,1.104,0.896,2,2,2h52c1.104,0,2-0.896,2-2V14
			C60,12.896,59.104,12,58,12z"/>
	</g>
</g>
<g id="Support_3_">
	<g>
		<path style="fill-rule:evenodd;clip-rule:evenodd;fill:#B3B3B3;" d="M46,4v4h6C52,6,50,4,46,4z M12,8h6V4C14,4,12,6,12,8z"/>
	</g>
</g>
<g id="Handle_4_">
	<g>
		<path style="fill:#666666;" d="M32,0c-6,0-10,4-14,4v4c4,0,10-4,14-4s10,4,14,4V4C42,4,38,0,32,0z"/>
	</g>
</g>
<g id="Red_Cross">
	<g>
		<path style="fill-rule:evenodd;clip-rule:evenodd;fill:#ED7161;" d="M42,26h-6v-6c0-1.105-0.896-2-2-2h-4c-1.104,0-2,0.895-2,2v6
			h-6c-1.104,0-2,0.896-2,2v4c0,1.104,0.896,2,2,2h6v6c0,1.104,0.896,2,2,2h4c1.104,0,2-0.896,2-2v-6h6c1.104,0,2-0.896,2-2v-4
			C44,26.896,43.104,26,42,26z"/>
	</g>
</g>
<g>
</g>
<g>
</g>
<g>
</g>
<g>
</g>
<g>
</g>
<g>
</g>
<g>
</g>
<g>
</g>
<g>
</g>
<g>
</g>
<g>
</g>
<g>
</g>
<g>
</g>
<g>
</g>
<g>
</g>
</svg>
