<?xml version="1.0" encoding="iso-8859-1"?>
<!-- Generator: Adobe Illustrator 16.0.0, SVG Export Plug-In . SVG Version: 6.00 Build 0)  -->
<!DOCTYPE svg PUBLIC "-//W3C//DTD SVG 1.1//EN" "http://www.w3.org/Graphics/SVG/1.1/DTD/svg11.dtd">
<svg version="1.1" id="Layer_1" xmlns="http://www.w3.org/2000/svg" xmlns:xlink="http://www.w3.org/1999/xlink" x="0px" y="0px"
	 width="63.998px" height="55.996px" viewBox="0 0 63.998 55.996" style="enable-background:new 0 0 63.998 55.996;"
	 xml:space="preserve">
<g id="Meet_3_">
	<g>
		<path style="fill:#ECD0B4;" d="M46.868,9.18c0,0-7.459,0.525-11.702,2.754c-4.244,2.229-9.902,1.705-11.703-1.836
			S18.962,0,12.66,0S0.058,8,0.058,20.195c0,0-2.701,35.801,28.807,35.801s35.108-23.998,35.108-26.621S65.388,9.18,46.868,9.18z"/>
	</g>
</g>
<g id="Meet_2_">
	<g>
		<path style="fill:#ED7161;" d="M45.01,13.865c0,0-6.526,2.449-10.24,4.359c-3.713,1.912-12.664-0.538-14.239-3.573
			c-1.576-3.034-1.938-10.655-7.453-10.655c-5.514,0-9.027,6.857-9.027,17.311c0,0-2.363,30.687,25.206,30.687
			s30.72-20.57,30.72-22.818S61.214,13.865,45.01,13.865z"/>
	</g>
</g>
<g id="Stripes_6_">
	<g>
		<path style="fill-rule:evenodd;clip-rule:evenodd;fill:#D46557;" d="M21.657,20.342c-0.78-0.781-2.047-0.781-2.828,0l-8.485,8.484
			c-0.781,0.781-0.781,2.048,0,2.828c0.781,0.781,2.048,0.781,2.829,0l8.484-8.484C22.438,22.389,22.438,21.123,21.657,20.342z
			 M25.657,28.341c-0.78-0.78-2.047-0.78-2.828,0l-8.485,8.485c-0.781,0.781-0.781,2.047,0,2.828s2.048,0.781,2.829,0l8.484-8.484
			C26.438,30.389,26.438,29.122,25.657,28.341z"/>
	</g>
</g>
<g id="Bone_1_">
	<g>
		<circle style="fill:#FFFFFF;" cx="46.001" cy="29.994" r="8"/>
	</g>
</g>
<g id="Bone_Marrow">
	<g>
		<circle style="fill:#C6B5CF;" cx="46.001" cy="29.991" r="4"/>
	</g>
</g>
<g>
</g>
<g>
</g>
<g>
</g>
<g>
</g>
<g>
</g>
<g>
</g>
<g>
</g>
<g>
</g>
<g>
</g>
<g>
</g>
<g>
</g>
<g>
</g>
<g>
</g>
<g>
</g>
<g>
</g>
</svg>
