<?xml version="1.0" encoding="iso-8859-1"?>
<!-- Generator: Adobe Illustrator 16.0.0, SVG Export Plug-In . SVG Version: 6.00 Build 0)  -->
<!DOCTYPE svg PUBLIC "-//W3C//DTD SVG 1.1//EN" "http://www.w3.org/Graphics/SVG/1.1/DTD/svg11.dtd">
<svg version="1.1" id="Layer_1" xmlns="http://www.w3.org/2000/svg" xmlns:xlink="http://www.w3.org/1999/xlink" x="0px" y="0px"
	 width="60px" height="64px" viewBox="0 0 60 64" style="enable-background:new 0 0 60 64;" xml:space="preserve">
<g id="Red_13_">
	<g>
		<path style="fill-rule:evenodd;clip-rule:evenodd;fill:#E85947;" d="M42,13.286v36.012C50.041,48.721,60,48,60,48V12L42,13.286z"
			/>
	</g>
</g>
<g id="White_11_">
	<g>
		<path style="fill-rule:evenodd;clip-rule:evenodd;fill:#CCCCCC;" d="M42,13.286L32,14c-2.209,0-4,0.895-4,2v32
			c0,1.106,1.791,2,4,2c0.15,0,4.651-0.319,10-0.702V13.286z"/>
	</g>
</g>
<g id="Back_9_">
	<g>
		<path style="fill:#B3B3B3;" d="M28,36v8v4c0-1.104,1.791-2,4-2s4-0.896,4-2v-8H28z"/>
	</g>
</g>
<g id="White_12_">
	<g>
		<path style="fill-rule:evenodd;clip-rule:evenodd;fill:#E6E6E6;" d="M32,6c-0.15,0-1.759,0.154-4,0.377v36
			c2.241-0.222,3.85-0.376,4-0.376c2.209,0,4,0.894,4,1.999V8.001C36,6.895,34.209,6,32,6z"/>
	</g>
</g>
<g id="Green_4_">
	<g>
		<path style="fill-rule:evenodd;clip-rule:evenodd;fill:#6C9945;" d="M28,6.377c-5.841,0.579-16,1.624-16,1.624V44
			c0,0,10.159-1.044,16-1.623V6.377z"/>
	</g>
</g>
<g id="Pole_9_">
	<g>
		<path style="fill-rule:evenodd;clip-rule:evenodd;fill:#CCCCCC;" d="M18,59.999h-6V7.445C13.19,6.752,14,5.477,14,4
			c0-2.209-1.791-4-4-4C7.79,0,6,1.791,6,4c0,1.477,0.81,2.753,2,3.445v52.554H2c-1.105,0-2,0.896-2,2.001s0.895,2,2,2h16
			c1.104,0,2-0.896,2-2S19.104,59.999,18,59.999z"/>
	</g>
</g>
<g>
</g>
<g>
</g>
<g>
</g>
<g>
</g>
<g>
</g>
<g>
</g>
<g>
</g>
<g>
</g>
<g>
</g>
<g>
</g>
<g>
</g>
<g>
</g>
<g>
</g>
<g>
</g>
<g>
</g>
</svg>
