<?xml version="1.0" encoding="iso-8859-1"?>
<!-- Generator: Adobe Illustrator 16.0.0, SVG Export Plug-In . SVG Version: 6.00 Build 0)  -->
<!DOCTYPE svg PUBLIC "-//W3C//DTD SVG 1.1//EN" "http://www.w3.org/Graphics/SVG/1.1/DTD/svg11.dtd">
<svg version="1.1" id="Layer_1" xmlns="http://www.w3.org/2000/svg" xmlns:xlink="http://www.w3.org/1999/xlink" x="0px" y="0px"
	 width="64.081px" height="64.019px" viewBox="0 0 64.081 64.019" style="enable-background:new 0 0 64.081 64.019;"
	 xml:space="preserve">
<g id="Shape_8_">
	<g>
		<polygon style="fill:#CCCCCC;" points="52.892,0 25.715,4.794 20.721,15.37 31.911,26.549 55.688,2.794 		"/>
	</g>
</g>
<g id="Shape_9_">
	<g>
		<polygon style="fill:#CCCCCC;" points="61.283,8.384 37.506,32.139 48.695,43.316 59.283,38.33 64.081,11.179 		"/>
	</g>
</g>
<g id="Shape_10_">
	<g>
		<path style="fill:#999999;" d="M43.898,50.905l-30.772-30.74c-1.545-1.544-4.05-1.544-5.595,0c-1.545,1.543-1.545,4.046,0,5.589
			l30.771,30.741c1.545,1.543,4.05,1.543,5.596,0C45.442,54.952,45.442,52.449,43.898,50.905z"/>
	</g>
</g>
<g id="Shape_11_">
	<g>
		<path style="fill:#B3B3B3;" d="M41.101,22.96c-8.497-8.489-22.274-8.489-30.771,0c-8.497,8.488-8.497,22.252,0,30.74
			c8.497,8.489,22.274,8.489,30.771,0C49.598,45.212,49.598,31.448,41.101,22.96z"/>
	</g>
</g>
<g id="Body_32_">
	<g>
		<path style="fill:#E6E6E6;" d="M43.898,56.495C43.898,56.495,43.898,56.494,43.898,56.495l-0.002,0.001
			C43.896,56.496,43.897,56.495,43.898,56.495z M2.941,26.384c-5.1,9.694-3.569,21.96,4.59,30.111
			c8.16,8.151,20.44,9.68,30.145,4.583L24.428,39.839L2.941,26.384z M43.898,20.165c-8.16-8.151-20.438-9.68-30.142-4.585
			L27.24,37.06l21.246,13.22C53.587,40.585,52.058,28.317,43.898,20.165z"/>
	</g>
</g>
<g id="Shape_12_">
	<g>
		<path style="fill:#F2F2F2;" d="M31.31,32.741c-3.09-3.087-8.1-3.087-11.189,0c-3.09,3.086-3.09,8.092,0,11.178
			c3.09,3.087,8.1,3.087,11.189,0C34.399,40.833,34.399,35.827,31.31,32.741z"/>
	</g>
</g>
<g id="Shape_13_">
	<g>
		<path style="fill-rule:evenodd;clip-rule:evenodd;fill:#ED7161;" d="M31.31,32.741c-3.09-3.087-8.1-3.087-11.189,0L31.31,43.919
			C34.399,40.833,34.399,35.827,31.31,32.741z"/>
	</g>
</g>
<g id="Shape_14_">
	<g>
		<polygon style="fill:#CCCCCC;" points="41.101,17.37 24.316,34.138 29.911,39.728 46.695,22.96 		"/>
	</g>
</g>
<g id="Canon_Arm">
	<g>
		<polygon style="fill:#999999;" points="49.492,39.728 46.695,42.521 35.506,39.728 32.708,36.933 29.911,39.728 32.708,42.521 
			49.492,50.905 55.088,45.316 		"/>
	</g>
</g>
<g id="Canon">
	<g>
		<path style="fill-rule:evenodd;clip-rule:evenodd;fill:#808080;" d="M49.492,45.316c0.001,0.001,0.002,0.001,0.003,0.002
			l-0.005-0.005C49.491,45.314,49.491,45.315,49.492,45.316z M57.885,36.933c-1.545-1.543-4.05-1.543-5.595,0l-2.798,2.795
			l5.596,5.589l2.797-2.795C59.43,40.979,59.43,38.477,57.885,36.933z"/>
	</g>
</g>
<g id="Shape_15_">
	<g>
		<circle style="fill:#F2F2F2;" cx="25.714" cy="38.33" r="3.954"/>
	</g>
</g>
<g>
</g>
<g>
</g>
<g>
</g>
<g>
</g>
<g>
</g>
<g>
</g>
<g>
</g>
<g>
</g>
<g>
</g>
<g>
</g>
<g>
</g>
<g>
</g>
<g>
</g>
<g>
</g>
<g>
</g>
</svg>
