<?xml version="1.0" encoding="iso-8859-1"?>
<!-- Generator: Adobe Illustrator 16.0.0, SVG Export Plug-In . SVG Version: 6.00 Build 0)  -->
<!DOCTYPE svg PUBLIC "-//W3C//DTD SVG 1.1//EN" "http://www.w3.org/Graphics/SVG/1.1/DTD/svg11.dtd">
<svg version="1.1" id="Layer_1" xmlns="http://www.w3.org/2000/svg" xmlns:xlink="http://www.w3.org/1999/xlink" x="0px" y="0px"
	 width="64px" height="64.001px" viewBox="0 0 64 64.001" style="enable-background:new 0 0 64 64.001;" xml:space="preserve">
<g id="Moon">
	<g>
		<circle style="fill:#CCCCCC;" cx="32" cy="32" r="32"/>
	</g>
</g>
<g id="Cratter">
	<g>
		<path style="fill-rule:evenodd;clip-rule:evenodd;fill:#B3B3B3;" d="M34,22c0-5.522-4.478-10-10-10c-5.523,0-10,4.478-10,10
			c0,5.523,4.477,10,10,10C29.522,32,34,27.523,34,22z M32,46c-2.209,0-4,1.791-4,4c0,2.21,1.791,4.001,4,4.001S36,52.21,36,50
			C36,47.791,34.209,46,32,46z M14,36.001c-1.104,0-2,0.895-2,2C12,39.104,12.896,40,14,40s2-0.896,2-1.999
			C16,36.896,15.104,36.001,14,36.001z M52,24c-3.314,0-6.001,2.687-6.001,6s2.687,6.001,6.001,6.001c3.313,0,6-2.688,6-6.001
			S55.313,24,52,24z"/>
	</g>
</g>
<g>
</g>
<g>
</g>
<g>
</g>
<g>
</g>
<g>
</g>
<g>
</g>
<g>
</g>
<g>
</g>
<g>
</g>
<g>
</g>
<g>
</g>
<g>
</g>
<g>
</g>
<g>
</g>
<g>
</g>
</svg>
