<?xml version="1.0" encoding="iso-8859-1"?>
<!-- Generator: Adobe Illustrator 16.0.0, SVG Export Plug-In . SVG Version: 6.00 Build 0)  -->
<!DOCTYPE svg PUBLIC "-//W3C//DTD SVG 1.1//EN" "http://www.w3.org/Graphics/SVG/1.1/DTD/svg11.dtd">
<svg version="1.1" id="Layer_1" xmlns="http://www.w3.org/2000/svg" xmlns:xlink="http://www.w3.org/1999/xlink" x="0px" y="0px"
	 width="64.016px" height="56.022px" viewBox="0 0 64.016 56.022" style="enable-background:new 0 0 64.016 56.022;"
	 xml:space="preserve">
<g id="Mushroom">
	<g>
		<path style="fill:#D1B08F;" d="M64.008,26.024c0-27.873-32-25.998-32-25.998s-32-1.875-32,25.998c0,0-0.75,19.999,12,19.999
			c0,0,6-0.125,6-4c0,0-0.625,13.999,6,13.999h8h8c6.625,0,6-13.999,6-13.999c0,3.875,6,4,6,4
			C64.758,46.023,64.008,26.024,64.008,26.024z"/>
	</g>
</g>
<g id="Mushroom_1_">
	<g>
		<path style="fill:#F0E0D1;" d="M60.008,28.057c0-26.404-28-23.968-28-23.968V4.026c0,0-28-2.439-28,23.998
			c0,0-0.508,13.999,8,13.999c0,0,6-0.083,6-4s-1.344-6-8-6c0,0,0.702-5.999,8-5.999c7.297,0,6,7.999,6,7.999s-2,10.346-2,14
			c0,3.653,2,3.999,2,3.999h6h2h2h6c0,0,2-0.351,2-3.999c0-3.649-2-13.975-2-13.975s-1.298-7.989,6-7.989c7.297,0,8,5.992,8,5.992
			c-6.656,0-8,2.079-8,5.992c0,3.912,6,3.994,6,3.994C60.516,42.038,60.008,28.057,60.008,28.057z"/>
	</g>
</g>
<g>
</g>
<g>
</g>
<g>
</g>
<g>
</g>
<g>
</g>
<g>
</g>
<g>
</g>
<g>
</g>
<g>
</g>
<g>
</g>
<g>
</g>
<g>
</g>
<g>
</g>
<g>
</g>
<g>
</g>
</svg>
