<?xml version="1.0" encoding="iso-8859-1"?>
<!-- Generator: Adobe Illustrator 16.0.0, SVG Export Plug-In . SVG Version: 6.00 Build 0)  -->
<!DOCTYPE svg PUBLIC "-//W3C//DTD SVG 1.1//EN" "http://www.w3.org/Graphics/SVG/1.1/DTD/svg11.dtd">
<svg version="1.1" id="Layer_1" xmlns="http://www.w3.org/2000/svg" xmlns:xlink="http://www.w3.org/1999/xlink" x="0px" y="0px"
	 width="64px" height="64px" viewBox="0 0 64 64" style="enable-background:new 0 0 64 64;" xml:space="preserve">
<g id="Body_30_">
	<g>
		<circle style="fill:#48A0DC;" cx="32" cy="32" r="32"/>
	</g>
</g>
<g id="Wave">
	<g>
		<path style="fill:#66B6ED;" d="M56.958,12H7.042C2.645,17.479,0,24.427,0,32c0,7.572,2.645,14.52,7.042,20h49.916
			C61.355,46.52,64,39.572,64,32C64,24.427,61.355,17.479,56.958,12z"/>
	</g>
</g>
<g id="Wave_3_">
	<g>
		<path style="fill:#8EC9F1;" d="M62.384,22H1.615C0.58,25.148,0,28.504,0,32c0,3.495,0.58,6.851,1.615,10h60.769
			C63.42,38.851,64,35.495,64,32C64,28.504,63.42,25.148,62.384,22z"/>
	</g>
</g>
<g id="Wave_2_">
	<g>
		<path style="fill:#D2E7F5;" d="M63.898,30H0.101C0.06,30.664,0,31.324,0,32c0,0.675,0.06,1.335,0.101,2h63.798
			C63.94,33.335,64,32.675,64,32C64,31.324,63.94,30.664,63.898,30z"/>
	</g>
</g>
<g>
</g>
<g>
</g>
<g>
</g>
<g>
</g>
<g>
</g>
<g>
</g>
<g>
</g>
<g>
</g>
<g>
</g>
<g>
</g>
<g>
</g>
<g>
</g>
<g>
</g>
<g>
</g>
<g>
</g>
</svg>
