<?xml version="1.0" encoding="iso-8859-1"?>
<!-- Generator: Adobe Illustrator 16.0.0, SVG Export Plug-In . SVG Version: 6.00 Build 0)  -->
<!DOCTYPE svg PUBLIC "-//W3C//DTD SVG 1.1//EN" "http://www.w3.org/Graphics/SVG/1.1/DTD/svg11.dtd">
<svg version="1.1" id="Layer_1" xmlns="http://www.w3.org/2000/svg" xmlns:xlink="http://www.w3.org/1999/xlink" x="0px" y="0px"
	 width="64px" height="64px" viewBox="0 0 64 64" style="enable-background:new 0 0 64 64;" xml:space="preserve">
<g id="Orbit">
	<g>
		<path style="fill-rule:evenodd;clip-rule:evenodd;fill:#E6E6E6;" d="M32,0C14.327,0,0,14.327,0,32s14.327,32,32,32
			s32-14.327,32-32S49.673,0,32,0z M32,59.991C16.541,59.991,4.009,47.459,4.009,32S16.541,4.009,32,4.009S59.99,16.541,59.99,32
			S47.459,59.991,32,59.991z"/>
	</g>
</g>
<g id="Planet">
	<g>
		<circle style="fill:#B3B3B3;" cx="52" cy="10" r="6"/>
	</g>
</g>
<g id="Sun">
	<g>
		<circle style="fill:#FFCC66;" cx="32" cy="32" r="10"/>
	</g>
</g>
<g id="Sun_1_">
	<g>
		<path style="fill-rule:evenodd;clip-rule:evenodd;fill:#F9DEA8;" d="M32,22c-1.392,0-2.717,0.286-3.921,0.8
			C28.031,23.194,28,23.593,28,24c0,5.522,4.478,10,10,10c1.392,0,2.717-0.286,3.921-0.8C41.969,32.806,42,32.407,42,32
			C42,26.477,37.522,22,32,22z"/>
	</g>
</g>
<g>
</g>
<g>
</g>
<g>
</g>
<g>
</g>
<g>
</g>
<g>
</g>
<g>
</g>
<g>
</g>
<g>
</g>
<g>
</g>
<g>
</g>
<g>
</g>
<g>
</g>
<g>
</g>
<g>
</g>
</svg>
