<?xml version="1.0" encoding="iso-8859-1"?>
<!-- Generator: Adobe Illustrator 16.0.0, SVG Export Plug-In . SVG Version: 6.00 Build 0)  -->
<!DOCTYPE svg PUBLIC "-//W3C//DTD SVG 1.1//EN" "http://www.w3.org/Graphics/SVG/1.1/DTD/svg11.dtd">
<svg version="1.1" id="Layer_1" xmlns="http://www.w3.org/2000/svg" xmlns:xlink="http://www.w3.org/1999/xlink" x="0px" y="0px"
	 width="64px" height="64.037px" viewBox="0 0 64 64.037" style="enable-background:new 0 0 64 64.037;" xml:space="preserve">
<g id="Body_20_">
	<g>
		<path style="fill:#ED7161;" d="M50.493,16.747c0,0-8.247-3.94-12.118,0c-3.871,3.941-1.852,26.729-12.119,26.729
			c-10.267,0-22.049-7.538-24.236-6.168c0,0-2.02,0.857-2.02,4.112c0,3.256,9.257,22.617,26.256,22.617
			c17,0,34.336-24.845,34.336-32.897S50.493,16.747,50.493,16.747z"/>
	</g>
</g>
<g id="Tail">
	<g>
		<path style="fill:#88C057;" d="M62.611,0.298c-0.763-0.671-4.039,0-4.039,0C52.49,2.247,52,10.041,52,10.041
			c-6.976,0.461-13.625,6.706-13.625,6.706c14.666-1.13,22.217,14.393,22.217,14.393c1.827-8.49-4.04-20.561-4.04-20.561
			c-0.327-3.957,6.06-6.169,6.06-6.169C64.485,2.968,64.44,1.906,62.611,0.298z"/>
	</g>
</g>
<g>
</g>
<g>
</g>
<g>
</g>
<g>
</g>
<g>
</g>
<g>
</g>
<g>
</g>
<g>
</g>
<g>
</g>
<g>
</g>
<g>
</g>
<g>
</g>
<g>
</g>
<g>
</g>
<g>
</g>
</svg>
