<?xml version="1.0" encoding="iso-8859-1"?>
<!-- Generator: Adobe Illustrator 16.0.0, SVG Export Plug-In . SVG Version: 6.00 Build 0)  -->
<!DOCTYPE svg PUBLIC "-//W3C//DTD SVG 1.1//EN" "http://www.w3.org/Graphics/SVG/1.1/DTD/svg11.dtd">
<svg version="1.1" id="Layer_1" xmlns="http://www.w3.org/2000/svg" xmlns:xlink="http://www.w3.org/1999/xlink" x="0px" y="0px"
	 width="66.001px" height="66px" viewBox="0 0 66.001 66" style="enable-background:new 0 0 66.001 66;" xml:space="preserve">
<g id="Red_9_">
	<g>
		<path style="fill-rule:evenodd;clip-rule:evenodd;fill:#D46557;" d="M28.001,34.001V50c0,1.106,1.791,2.001,4,2.001
			c0.377,0,28-2.001,28-2.001V32.316L28.001,34.001z"/>
	</g>
</g>
<g id="Blue_5_">
	<g>
		<path style="fill-rule:evenodd;clip-rule:evenodd;fill:#408EC2;" d="M60.001,14l-28,2.001c-2.209,0-4,0.894-4,1.999v16.001
			l32-1.685V14z"/>
	</g>
</g>
<g id="Back_6_">
	<g>
		<path style="fill:#BA594C;" d="M28.001,38v8v4c0-1.104,1.79-2,4-2c2.209,0,4-0.896,4-2v-8H28.001z"/>
	</g>
</g>
<g id="Red_10_">
	<g>
		<path style="fill-rule:evenodd;clip-rule:evenodd;fill:#ED7161;" d="M12.001,46c0,0,19.457-1.999,20-1.999
			c2.209,0,4,0.894,4,1.999V26l-24,1.501V46z"/>
	</g>
</g>
<g id="Blue_6_">
	<g>
		<path style="fill-rule:evenodd;clip-rule:evenodd;fill:#48A0DC;" d="M32.001,8c-0.543,0-20,2-20,2v17.501l24-1.501V10
			C36.001,8.895,34.21,8,32.001,8z"/>
	</g>
</g>
<g id="White_8_">
	<g>
		<polygon style="fill-rule:evenodd;clip-rule:evenodd;fill:#E6E6E6;" points="12.001,46 12.002,46 36.001,26 12.001,10 		"/>
	</g>
</g>
<g id="Pole_6_">
	<g>
		<path style="fill-rule:evenodd;clip-rule:evenodd;fill:#CCCCCC;" d="M18,61.999h-5.999V9.445c1.19-0.693,2-1.969,2-3.445
			c0-2.209-1.791-4.001-4-4.001c-2.21,0-4,1.792-4,4.001c0,1.477,0.809,2.753,2,3.445v52.554H2c-1.104,0-2,0.896-2,2.001
			s0.896,2,2,2h16c1.105,0,2-0.896,2-2S19.105,61.999,18,61.999z"/>
	</g>
</g>
<g>
</g>
<g>
</g>
<g>
</g>
<g>
</g>
<g>
</g>
<g>
</g>
<g>
</g>
<g>
</g>
<g>
</g>
<g>
</g>
<g>
</g>
<g>
</g>
<g>
</g>
<g>
</g>
<g>
</g>
</svg>
