<?xml version="1.0" encoding="iso-8859-1"?>
<!-- Generator: Adobe Illustrator 16.0.0, SVG Export Plug-In . SVG Version: 6.00 Build 0)  -->
<!DOCTYPE svg PUBLIC "-//W3C//DTD SVG 1.1//EN" "http://www.w3.org/Graphics/SVG/1.1/DTD/svg11.dtd">
<svg version="1.1" id="Layer_1" xmlns="http://www.w3.org/2000/svg" xmlns:xlink="http://www.w3.org/1999/xlink" x="0px" y="0px"
	 width="64px" height="64px" viewBox="0 0 64 64" style="enable-background:new 0 0 64 64;" xml:space="preserve">
<g id="Blister">
	<g>
		<path style="fill:#CCCCCC;" d="M60,14L50,4c-2-2-4-4-6-4s-4,2-6,4L4,38c-1.938,2-4,4-4,6s2,4,4,6l10,10c2,2,4,4,6,4s4-2,6-4l34-34
			c2-2,4-4,4-6S62,16,60,14z"/>
	</g>
</g>
<g id="Pills">
	<g>
		<path style="fill-rule:evenodd;clip-rule:evenodd;fill:#E6E6E6;" d="M12,40c-2.209,0-4,1.791-4,4s1.791,4,4,4s4-1.791,4-4
			S14.209,40,12,40z M20,48c-2.209,0-4,1.791-4,4s1.791,4,4,4s4-1.791,4-4S22.209,48,20,48z M20,40c2.209,0,4-1.791,4-4
			s-1.791-4-4-4s-4,1.791-4,4S17.791,40,20,40z M28,40c-2.209,0-4,1.791-4,4s1.791,4,4,4s4-1.791,4-4S30.209,40,28,40z M28,32
			c2.209,0,4-1.791,4-4s-1.791-4-4-4s-4,1.791-4,4S25.791,32,28,32z M36,32c-2.209,0-4,1.791-4,4s1.791,4,4,4s4-1.791,4-4
			S38.209,32,36,32z M44,24c-2.209,0-4,1.791-4,4s1.791,4,4,4s4-1.791,4-4S46.209,24,44,24z"/>
	</g>
</g>
<g id="Holes">
	<g>
		<path style="fill-rule:evenodd;clip-rule:evenodd;fill:#999999;" d="M36,16c-2.209,0-4,1.791-4,4s1.791,4,4,4s4-1.791,4-4
			S38.209,16,36,16z M44,8c-2.209,0-4,1.791-4,4s1.791,4,4,4s4-1.791,4-4S46.209,8,44,8z M52,16c-2.209,0-4,1.791-4,4s1.791,4,4,4
			s4-1.791,4-4S54.209,16,52,16z"/>
	</g>
</g>
<g>
</g>
<g>
</g>
<g>
</g>
<g>
</g>
<g>
</g>
<g>
</g>
<g>
</g>
<g>
</g>
<g>
</g>
<g>
</g>
<g>
</g>
<g>
</g>
<g>
</g>
<g>
</g>
<g>
</g>
</svg>
