<?xml version="1.0" encoding="iso-8859-1"?>
<!-- Generator: Adobe Illustrator 16.0.0, SVG Export Plug-In . SVG Version: 6.00 Build 0)  -->
<!DOCTYPE svg PUBLIC "-//W3C//DTD SVG 1.1//EN" "http://www.w3.org/Graphics/SVG/1.1/DTD/svg11.dtd">
<svg version="1.1" id="Layer_1" xmlns="http://www.w3.org/2000/svg" xmlns:xlink="http://www.w3.org/1999/xlink" x="0px" y="0px"
	 width="64px" height="64px" viewBox="0 0 64 64" style="enable-background:new 0 0 64 64;" xml:space="preserve">
<g id="Body_9_">
	<g>
		<path style="fill:#CCCCCC;" d="M48,0c-6,0-10,2-14,6L20,20l24,24l14-14c4-4,6-8,6-14C64,8,56,0,48,0z"/>
	</g>
</g>
<g id="Interior">
	<g>
		<path style="fill:#E6E6E6;" d="M48,4c-6,0-8,2-12,6L22,24l18,18l14-14c4-4,6-6,6-12S54,4,48,4z"/>
	</g>
</g>
<g id="Medicine">
	<g>
		<path style="fill-rule:evenodd;clip-rule:evenodd;fill:#FFFFFF;" d="M31,26c-0.475,0-0.918,0.12-1.316,0.316
			C29.88,25.918,30,25.475,30,25c0-1.657-1.344-3-3-3c-1.657,0-3,1.343-3,3c0,1.656,1.343,3,3,3c0.475,0,0.918-0.12,1.316-0.316
			C28.12,28.082,28,28.525,28,29c0,1.656,1.343,3,3,3c1.656,0,3-1.344,3-3C34,27.343,32.656,26,31,26z M45,30
			c-0.475,0-0.918,0.12-1.316,0.316C43.88,29.918,44,29.475,44,29c0-1.657-1.344-3-3-3c-0.396,0-0.771,0.081-1.115,0.22
			c-0.051-0.188-0.117-0.366-0.201-0.536C40.082,25.88,40.525,26,41,26c1.656,0,3-1.344,3-3c0-1.657-1.344-3-3-3
			c-1.657,0-3,1.343-3,3c0,0.475,0.12,0.918,0.316,1.316C37.918,24.12,37.475,24,37,24s-0.918,0.12-1.316,0.316
			C35.88,23.917,36,23.475,36,23c0-1.657-1.343-3-3-3s-3,1.343-3,3c0,1.656,1.343,3,3,3c0.475,0,0.917-0.12,1.316-0.316
			C34.12,26.082,34,26.525,34,27c0,1.656,1.343,3,3,3c0.395,0,0.771-0.081,1.115-0.22c0.051,0.187,0.117,0.366,0.201,0.536
			C37.918,30.12,37.475,30,37,30c-1.657,0-3,1.343-3,3c0,1.656,1.343,3,3,3c0.475,0,0.918-0.12,1.316-0.316
			C38.12,36.082,38,36.525,38,37c0,1.656,1.343,3,3,3c1.656,0,3-1.344,3-3c0-0.475-0.12-0.918-0.316-1.316
			C44.082,35.88,44.525,36,45,36c1.656,0,3-1.344,3-3C48,31.343,46.656,30,45,30z M42.316,34.316C41.918,34.12,41.475,34,41,34
			s-0.918,0.12-1.316,0.316C39.88,33.918,40,33.475,40,33s-0.12-0.918-0.316-1.316C40.082,31.88,40.525,32,41,32
			s0.918-0.12,1.316-0.316C42.12,32.082,42,32.525,42,33S42.12,33.918,42.316,34.316z M47,24c-1.657,0-3,1.343-3,3
			c0,1.656,1.343,3,3,3s3-1.344,3-3C50,25.343,48.657,24,47,24z M53,20c-1.657,0-3,1.343-3,3c0,1.656,1.343,3,3,3
			c1.656,0,3-1.344,3-3C56,21.343,54.656,20,53,20z M50,21c0-1.657-1.343-3-3-3s-3,1.343-3,3c0,1.656,1.343,3,3,3S50,22.656,50,21z
			 M35,14c-1.657,0-3,1.343-3,3c0,1.656,1.343,3,3,3c1.656,0,3-1.344,3-3C38,15.343,36.656,14,35,14z M44,17c0-1.657-1.344-3-3-3
			c-1.657,0-3,1.343-3,3c0,1.656,1.343,3,3,3C42.656,20,44,18.656,44,17z M56,17c0-1.657-1.344-3-3-3c-1.657,0-3,1.343-3,3
			c0,1.656,1.343,3,3,3C54.656,20,56,18.656,56,17z M50,15c0-1.657-1.343-3-3-3s-3,1.343-3,3c0,1.656,1.343,3,3,3S50,16.656,50,15z"
			/>
	</g>
</g>
<g id="Body_10_">
	<g>
		<path style="fill:#88C057;" d="M20,20L6,34c-4,4-6,8-6,14c0,8,8,16,16,16c6,0,10-2,14-6l14-14L20,20z"/>
	</g>
</g>
<g>
</g>
<g>
</g>
<g>
</g>
<g>
</g>
<g>
</g>
<g>
</g>
<g>
</g>
<g>
</g>
<g>
</g>
<g>
</g>
<g>
</g>
<g>
</g>
<g>
</g>
<g>
</g>
<g>
</g>
</svg>
