<?xml version="1.0" encoding="iso-8859-1"?>
<!-- Generator: Adobe Illustrator 16.0.0, SVG Export Plug-In . SVG Version: 6.00 Build 0)  -->
<!DOCTYPE svg PUBLIC "-//W3C//DTD SVG 1.1//EN" "http://www.w3.org/Graphics/SVG/1.1/DTD/svg11.dtd">
<svg version="1.1" id="Layer_1" xmlns="http://www.w3.org/2000/svg" xmlns:xlink="http://www.w3.org/1999/xlink" x="0px" y="0px"
	 width="63.079px" height="63.071px" viewBox="0 0 63.079 63.071" style="enable-background:new 0 0 63.079 63.071;"
	 xml:space="preserve">
<g id="Pizza">
	<g>
		<path style="fill:#FFCC66;" d="M59.079,25.805l-29.077,7.269L37.271,4c-2.332-0.582-4.758-0.924-7.27-0.924
			C13.433,3.076,0,16.507,0,33.073c0,16.567,13.433,29.998,30.002,29.998s30.001-13.431,30.001-29.998
			C60.003,30.563,59.66,28.137,59.079,25.805z"/>
	</g>
</g>
<g id="Pizza_1_">
	<g>
		<path style="fill:#FFE9BD;" d="M55.202,26.774l-25.2,6.299l6.3-25.197c-2.021-0.504-4.123-0.801-6.3-0.801
			c-14.36,0-26.001,11.641-26.001,25.998c0,14.358,11.641,25.999,26.001,25.999s26.001-11.641,26.001-25.999
			C56.003,30.897,55.706,28.795,55.202,26.774z"/>
	</g>
</g>
<g id="Leafs">
	<g>
		<path style="fill-rule:evenodd;clip-rule:evenodd;fill:#88C057;" d="M28.002,45.073c-1.104,0-2,1.79-2,3.999s0.896,4,2,4
			s2-1.791,2-4S29.106,45.073,28.002,45.073z M11.467,27.308c-2.203,0.523-3.749,1.737-3.454,2.713s2.32,1.342,4.522,0.819
			c2.203-0.522,3.749-1.737,3.454-2.713C15.694,27.152,13.67,26.785,11.467,27.308z M51.991,32.127
			c-0.295-0.976-2.32-1.342-4.522-0.819c-2.203,0.522-3.75,1.737-3.455,2.712c0.296,0.976,2.32,1.343,4.523,0.82
			S52.286,33.103,51.991,32.127z M26.245,29.375c-0.683,0.672-0.003,2.427,1.521,3.917c1.521,1.491,3.31,2.154,3.993,1.481
			c0.683-0.674,0.002-2.428-1.521-3.919C28.716,29.364,26.929,28.701,26.245,29.375z"/>
	</g>
</g>
<g id="Pizza_Slice">
	<g>
		<path style="fill:#FFCC66;" d="M41.271,0l-7.27,29.074l29.077-7.269C60.406,11.089,51.99,2.673,41.271,0z"/>
	</g>
</g>
<g id="Pizza_Slice_1_">
	<g>
		<path style="fill:#FFE9BD;" d="M40.303,3.877l-6.301,25.197l25.2-6.3C56.886,13.486,49.592,6.193,40.303,3.877z"/>
	</g>
</g>
<g id="Salami">
	<g>
		<path style="fill-rule:evenodd;clip-rule:evenodd;fill:#ED7161;" d="M22.002,13.075c-3.314,0-6.001,2.687-6.001,5.999
			c0,3.314,2.687,6,6.001,6c3.313,0,6-2.686,6-6C28.002,15.762,25.315,13.075,22.002,13.075z M18.001,33.073c-3.313,0-6,2.687-6,6
			s2.687,6,6,6c3.314,0,6.001-2.687,6.001-6S21.315,33.073,18.001,33.073z M40.002,37.073c-3.313,0-6,2.687-6,6s2.687,5.999,6,5.999
			c3.314,0,6.001-2.686,6.001-5.999S43.316,37.073,40.002,37.073z M46.003,11.075c-3.314,0-6.001,2.687-6.001,6
			s2.687,5.999,6.001,5.999c3.313,0,6-2.686,6-5.999S49.316,11.075,46.003,11.075z"/>
	</g>
</g>
<g>
</g>
<g>
</g>
<g>
</g>
<g>
</g>
<g>
</g>
<g>
</g>
<g>
</g>
<g>
</g>
<g>
</g>
<g>
</g>
<g>
</g>
<g>
</g>
<g>
</g>
<g>
</g>
<g>
</g>
</svg>
