<?xml version="1.0" encoding="iso-8859-1"?>
<!-- Generator: Adobe Illustrator 16.0.0, SVG Export Plug-In . SVG Version: 6.00 Build 0)  -->
<!DOCTYPE svg PUBLIC "-//W3C//DTD SVG 1.1//EN" "http://www.w3.org/Graphics/SVG/1.1/DTD/svg11.dtd">
<svg version="1.1" id="Layer_1" xmlns="http://www.w3.org/2000/svg" xmlns:xlink="http://www.w3.org/1999/xlink" x="0px" y="0px"
	 width="64px" height="64px" viewBox="0 0 64 64" style="enable-background:new 0 0 64 64;" xml:space="preserve">
<g id="Grey_Part">
	<g>
		<path style="fill:#E6E6E6;" d="M0,32c0,17.673,14.327,32,32,32c17.673,0,32-14.327,32-32H0z"/>
	</g>
</g>
<g id="Red_Part_1_">
	<g>
		<path style="fill:#ED7161;" d="M32,0C14.327,0,0,14.326,0,32h64C64,14.326,49.673,0,32,0z"/>
	</g>
</g>
<g id="Divider_2_">
	<g>
		<path style="fill-rule:evenodd;clip-rule:evenodd;fill:#4D4D4D;" d="M64,30H39.738c-0.889-3.449-4.011-6-7.738-6
			s-6.849,2.551-7.738,6H0v4h24.262c0.889,3.448,4.011,6,7.738,6s6.849-2.552,7.738-6H64V30z"/>
	</g>
</g>
<g id="Btn">
	<g>
		<circle style="fill:#FFFFFF;" cx="32" cy="32" r="4.025"/>
	</g>
</g>
<g>
</g>
<g>
</g>
<g>
</g>
<g>
</g>
<g>
</g>
<g>
</g>
<g>
</g>
<g>
</g>
<g>
</g>
<g>
</g>
<g>
</g>
<g>
</g>
<g>
</g>
<g>
</g>
<g>
</g>
</svg>
