<?xml version="1.0" encoding="iso-8859-1"?>
<!-- Generator: Adobe Illustrator 16.0.0, SVG Export Plug-In . SVG Version: 6.00 Build 0)  -->
<!DOCTYPE svg PUBLIC "-//W3C//DTD SVG 1.1//EN" "http://www.w3.org/Graphics/SVG/1.1/DTD/svg11.dtd">
<svg version="1.1" id="Layer_1" xmlns="http://www.w3.org/2000/svg" xmlns:xlink="http://www.w3.org/1999/xlink" x="0px" y="0px"
	 width="64px" height="28px" viewBox="0 0 64 28" style="enable-background:new 0 0 64 28;" xml:space="preserve">
<g id="Stand_2_">
	<g>
		<path style="fill:#999999;" d="M52,20H12c-2.209,0-4,1.791-4,4s1.791,4,4,4h40c2.209,0,4-1.791,4-4S54.209,20,52,20z"/>
	</g>
</g>
<g id="Body_13_">
	<g>
		<path style="fill:#666666;" d="M60,0H4C1.791,0,0,1.791,0,4v16c0,2.209,1.791,4,4,4h56c2.209,0,4-1.791,4-4V4
			C64,1.791,62.209,0,60,0z"/>
	</g>
</g>
<g id="White_21_">
	<g>
		<path style="fill:#FFFFFF;" d="M50,4H12C9.791,4,8,5.791,8,8v8c0,2.209,1.791,4,4,4h38c2.209,0,4-1.791,4-4V8
			C54,5.791,52.209,4,50,4z"/>
	</g>
</g>
<g id="Blue_12_">
	<g>
		<path style="fill:#48A0DC;" d="M8,4C5.791,4,4,5.791,4,8v8c0,2.209,1.791,4,4,4h16V4H8z"/>
	</g>
</g>
<g id="Red_26_">
	<g>
		<path style="fill:#ED7161;" d="M56,4H40v16h16c2.209,0,4-1.791,4-4V8C60,5.791,58.209,4,56,4z"/>
	</g>
</g>
<g>
</g>
<g>
</g>
<g>
</g>
<g>
</g>
<g>
</g>
<g>
</g>
<g>
</g>
<g>
</g>
<g>
</g>
<g>
</g>
<g>
</g>
<g>
</g>
<g>
</g>
<g>
</g>
<g>
</g>
</svg>
