<?xml version="1.0" encoding="iso-8859-1"?>
<!-- Generator: Adobe Illustrator 16.0.0, SVG Export Plug-In . SVG Version: 6.00 Build 0)  -->
<!DOCTYPE svg PUBLIC "-//W3C//DTD SVG 1.1//EN" "http://www.w3.org/Graphics/SVG/1.1/DTD/svg11.dtd">
<svg version="1.1" id="Layer_1" xmlns="http://www.w3.org/2000/svg" xmlns:xlink="http://www.w3.org/1999/xlink" x="0px" y="0px"
	 width="48px" height="64px" viewBox="0 0 48 64" style="enable-background:new 0 0 48 64;" xml:space="preserve">
<g id="Back_Leg">
	<g>
		<path style="fill-rule:evenodd;clip-rule:evenodd;fill:#B3B3B3;" d="M26,56V18c0-1.104-0.896-2-2-2s-2,0.896-2,2v38
			c-1.104,0-4,2.083-4,6c0,1.104,0.896,2,2,2h8c1.104,0,2-0.896,2-2C30,58.021,27.104,56,26,56z"/>
	</g>
</g>
<g id="Head_6_">
	<g>
		<path style="fill:#CCCCCC;" d="M24,0C15.163,0,8,7.163,8,16h32C40,7.163,32.836,0,24,0z"/>
	</g>
</g>
<g id="Head_7_">
	<g>
		<path style="fill:#48A0DC;" d="M39.476,12H28V4h-8v8H8.524C8.194,13.28,8,14.616,8,16h32C40,14.616,39.806,13.28,39.476,12z"/>
	</g>
</g>
<g id="Eye_1_">
	<g>
		<circle style="fill:#333333;" cx="24" cy="8" r="2"/>
	</g>
</g>
<g id="Body_35_">
	<g>
		<path style="fill:#E6E6E6;" d="M36,16H12H8v4v28c0,2.209,1.791,4,4,4h24c2.209,0,4-1.791,4-4V20v-4H36z"/>
	</g>
</g>
<g id="Fans_1_">
	<g>
		<path style="fill-rule:evenodd;clip-rule:evenodd;fill:#48A0DC;" d="M18,24h12c1.104,0,2-0.896,2-2s-0.896-2-2-2H18
			c-1.104,0-2,0.896-2,2S16.896,24,18,24z M30,28H18c-1.104,0-2,0.896-2,2s0.896,2,2,2h12c1.104,0,2-0.896,2-2S31.104,28,30,28z
			 M24,38c-2.209,0-4,1.791-4,4s1.791,4,4,4s4-1.791,4-4S26.209,38,24,38z"/>
	</g>
</g>
<g id="Legs_5_">
	<g>
		<path style="fill-rule:evenodd;clip-rule:evenodd;fill:#CCCCCC;" d="M8,58V18c0-1.104-0.896-2-2-2s-2,0.896-2,2v40
			c-1.104,0-4,2.896-4,4s0.896,2,2,2h8c1.104,0,2-0.896,2-2S9.104,58,8,58z M44,58V18c0-1.104-0.896-2-2-2s-2,0.896-2,2v40
			c-1.104,0-4,2.896-4,4s0.896,2,2,2h8c1.104,0,2-0.896,2-2S45.104,58,44,58z"/>
	</g>
</g>
<g>
</g>
<g>
</g>
<g>
</g>
<g>
</g>
<g>
</g>
<g>
</g>
<g>
</g>
<g>
</g>
<g>
</g>
<g>
</g>
<g>
</g>
<g>
</g>
<g>
</g>
<g>
</g>
<g>
</g>
</svg>
