<?xml version="1.0" encoding="iso-8859-1"?>
<!-- Generator: Adobe Illustrator 16.0.0, SVG Export Plug-In . SVG Version: 6.00 Build 0)  -->
<!DOCTYPE svg PUBLIC "-//W3C//DTD SVG 1.1//EN" "http://www.w3.org/Graphics/SVG/1.1/DTD/svg11.dtd">
<svg version="1.1" id="Layer_1" xmlns="http://www.w3.org/2000/svg" xmlns:xlink="http://www.w3.org/1999/xlink" x="0px" y="0px"
	 width="60px" height="64px" viewBox="0 0 60 64" style="enable-background:new 0 0 60 64;" xml:space="preserve">
<g id="Red_14_">
	<g>
		<path style="fill:#D46557;" d="M32,38c-2.209,0-4-0.894-4-2v12c0,1.106,1.791,2,4,2c0.377,0,28-2,28-2V36C60,36,32.377,38,32,38z"
			/>
	</g>
</g>
<g id="Blue_7_">
	<g>
		<path style="fill:#408EC2;" d="M32,26c-2.209,0-4-0.894-4-2v12c0,1.106,1.791,2,4,2c0.377,0,28-2,28-2V24C60,24,32.377,26,32,26z"
			/>
	</g>
</g>
<g id="White_13_">
	<g>
		<path style="fill:#E6E6E6;" d="M32,14c-2.209,0-4-0.894-4-2v12c0,1.106,1.791,2,4,2c0.377,0,28-2,28-2V12C60,12,32.377,14,32,14z"
			/>
	</g>
</g>
<g id="Back_10_">
	<g>
		<path style="fill:#BA594C;" d="M28,36v8v4c0-1.104,1.791-2,4-2s4-0.896,4-2v-8H28z"/>
	</g>
</g>
<g id="Red_15_">
	<g>
		<path style="fill:#ED7161;" d="M32,30c-0.543,0-20,2.001-20,2.001V44c0,0,19.457-1.999,20-1.999c2.209,0,4,0.894,4,1.999V32.001
			C36,30.895,34.209,30,32,30z"/>
	</g>
</g>
<g id="Blue_8_">
	<g>
		<path style="fill:#48A0DC;" d="M32,18c-0.543,0-20,2-20,2v12c0,0,19.457-2,20-2c2.209,0,4,0.895,4,2V20C36,18.895,34.209,18,32,18
			z"/>
	</g>
</g>
<g id="White_14_">
	<g>
		<path style="fill:#E6E6E6;" d="M32,6c-0.543,0-20,2-20,2v12c0,0,19.457-2,20-2c2.209,0,4,0.895,4,2V8C36,6.895,34.209,6,32,6z"/>
	</g>
</g>
<g id="Pole_10_">
	<g>
		<path style="fill-rule:evenodd;clip-rule:evenodd;fill:#CCCCCC;" d="M18,59.999h-6V7.445c1.19-0.693,2-1.969,2-3.446
			C14,1.79,12.209,0,10,0S6,1.79,6,3.999c0,1.478,0.81,2.753,2,3.446v52.554H2c-1.105,0-2,0.896-2,2.001s0.895,2,2,2h16
			c1.104,0,2-0.896,2-2S19.104,59.999,18,59.999z"/>
	</g>
</g>
<g>
</g>
<g>
</g>
<g>
</g>
<g>
</g>
<g>
</g>
<g>
</g>
<g>
</g>
<g>
</g>
<g>
</g>
<g>
</g>
<g>
</g>
<g>
</g>
<g>
</g>
<g>
</g>
<g>
</g>
</svg>
