<?xml version="1.0" encoding="iso-8859-1"?>
<!-- Generator: Adobe Illustrator 16.0.0, SVG Export Plug-In . SVG Version: 6.00 Build 0)  -->
<!DOCTYPE svg PUBLIC "-//W3C//DTD SVG 1.1//EN" "http://www.w3.org/Graphics/SVG/1.1/DTD/svg11.dtd">
<svg version="1.1" id="Layer_1" xmlns="http://www.w3.org/2000/svg" xmlns:xlink="http://www.w3.org/1999/xlink" x="0px" y="0px"
	 width="64px" height="64px" viewBox="0 0 64 64" style="enable-background:new 0 0 64 64;" xml:space="preserve">
<g id="Handle_1_">
	<g>
		<path style="fill-rule:evenodd;clip-rule:evenodd;fill:#48A0DC;" d="M50,0c-6,0-8,12-8,16c0,2-12,14-12,14l4,4c0,0,12-12,14-12
			c4,0,16-2,16-8.001C64,12,52,0,50,0z M46,18c0,0,0-12.001,4-12.001c1,0,8,7.001,8,8C58,18,46,18,46,18z"/>
	</g>
</g>
<g id="Blade">
	<g>
		<path style="fill:#CCCCCC;" d="M34,34c0-1-3-4-4-4s-7,6-8,6c-2,0-6-4-8-4S0,46,0,55.999C0,60,4,64,8,64c10,0,24-12.001,24-14
			c0-2-4-6-4-8C28,41,34,35,34,34z"/>
	</g>
</g>
<g>
</g>
<g>
</g>
<g>
</g>
<g>
</g>
<g>
</g>
<g>
</g>
<g>
</g>
<g>
</g>
<g>
</g>
<g>
</g>
<g>
</g>
<g>
</g>
<g>
</g>
<g>
</g>
<g>
</g>
</svg>
