<?xml version="1.0" encoding="iso-8859-1"?>
<!-- Generator: Adobe Illustrator 16.0.0, SVG Export Plug-In . SVG Version: 6.00 Build 0)  -->
<!DOCTYPE svg PUBLIC "-//W3C//DTD SVG 1.1//EN" "http://www.w3.org/Graphics/SVG/1.1/DTD/svg11.dtd">
<svg version="1.1" id="Layer_1" xmlns="http://www.w3.org/2000/svg" xmlns:xlink="http://www.w3.org/1999/xlink" x="0px" y="0px"
	 width="42px" height="64.001px" viewBox="0 0 42 64.001" style="enable-background:new 0 0 42 64.001;" xml:space="preserve">
<g id="Glass">
	<g>
		<path style="fill:#B3B3B3;" d="M34,12.005H2c-1.104,0-2,0.896-2,2v9.999v29.998v6c0,2.209,1.791,3.999,4,3.999h28
			c2.209,0,4-1.79,4-3.999v-6V24.004v-9.999C36,12.9,35.104,12.005,34,12.005z"/>
	</g>
</g>
<g id="Glass_1_">
	<g>
		<path style="fill:#E6E6E6;" d="M30,12.005H6H4v2v13.999v8v13.998v6c0,2.209,1.791,4,4,4h20c2.209,0,4-1.791,4-4v-6V36.004v-8
			V14.005v-2H30z"/>
	</g>
</g>
<g id="Soda">
	<g>
		<path style="fill:#F06EAA;" d="M22,28.001c-5.836,0.194-13.018-0.519-18-1.146v1.149v8v13.998v6c0,2.209,1.791,4,4,4h20
			c2.209,0,4-1.791,4-4v-6V36.004v-8v-0.771C30.199,27.616,27.762,27.809,22,28.001z"/>
	</g>
</g>
<g id="Straw">
	<g>
		<path style="fill:#48A0DC;" d="M26,8.001c-2.25,1.563-2,4-2,4v48h4c0,0,0-46.75,0-48s2-2,2-2l12-6V0C42,0,28.25,6.438,26,8.001z"
			/>
	</g>
</g>
<g id="Straw_1_">
	<g>
		<path style="fill:#B04F7C;" d="M24,27.901v32.1h4c0,0,0-18.57,0-32.617C26.917,27.605,25.63,27.788,24,27.901z"/>
	</g>
</g>
<g>
</g>
<g>
</g>
<g>
</g>
<g>
</g>
<g>
</g>
<g>
</g>
<g>
</g>
<g>
</g>
<g>
</g>
<g>
</g>
<g>
</g>
<g>
</g>
<g>
</g>
<g>
</g>
<g>
</g>
</svg>
