<?xml version="1.0" encoding="iso-8859-1"?>
<!-- Generator: Adobe Illustrator 16.0.0, SVG Export Plug-In . SVG Version: 6.00 Build 0)  -->
<!DOCTYPE svg PUBLIC "-//W3C//DTD SVG 1.1//EN" "http://www.w3.org/Graphics/SVG/1.1/DTD/svg11.dtd">
<svg version="1.1" id="Layer_1" xmlns="http://www.w3.org/2000/svg" xmlns:xlink="http://www.w3.org/1999/xlink" x="0px" y="0px"
	 width="36px" height="64.001px" viewBox="0 0 36 64.001" style="enable-background:new 0 0 36 64.001;" xml:space="preserve">
<g id="Aluminum_Bottom">
	<g>
		<path style="fill-rule:evenodd;clip-rule:evenodd;fill:#CCCCCC;" d="M2,58.001V62c0,1.105,0.896,2.001,2,2.001h28
			c1.104,0,2-0.896,2-2.001v-3.999H2z"/>
	</g>
</g>
<g id="Can">
	<g>
		<path style="fill:#88C057;" d="M32,4.001H4c0,4.013-4,6.189-4,10v42c0,2.209,1.791,4,4,4h28c2.209,0,4-1.791,4-4v-42
			C36,10.19,32,7.913,32,4.001z"/>
	</g>
</g>
<g id="Label">
	<g>
		<path style="fill-rule:evenodd;clip-rule:evenodd;fill:#675372;" d="M28,28.001h-0.838c-1.543-3.531-5.063-6-9.162-6
			c-4.101,0-7.619,2.469-9.162,6H8c-2.209,0-4,1.79-4,4c0,2.209,1.791,4,4,4h0.838c1.543,3.53,5.063,6,9.162,6s7.618-2.47,9.162-6
			H28c2.209,0,4-1.791,4-4C32,29.791,30.209,28.001,28,28.001z"/>
	</g>
</g>
<g id="Aluminum_Top">
	<g>
		<path style="fill-rule:evenodd;clip-rule:evenodd;fill:#CCCCCC;" d="M32,0H4C2.896,0,2,0.896,2,2.001v2h2h28h2v-2
			C34,0.896,33.104,0,32,0z"/>
	</g>
</g>
<g>
</g>
<g>
</g>
<g>
</g>
<g>
</g>
<g>
</g>
<g>
</g>
<g>
</g>
<g>
</g>
<g>
</g>
<g>
</g>
<g>
</g>
<g>
</g>
<g>
</g>
<g>
</g>
<g>
</g>
</svg>
