<?xml version="1.0" encoding="iso-8859-1"?>
<!-- Generator: Adobe Illustrator 16.0.0, SVG Export Plug-In . SVG Version: 6.00 Build 0)  -->
<!DOCTYPE svg PUBLIC "-//W3C//DTD SVG 1.1//EN" "http://www.w3.org/Graphics/SVG/1.1/DTD/svg11.dtd">
<svg version="1.1" id="Layer_1" xmlns="http://www.w3.org/2000/svg" xmlns:xlink="http://www.w3.org/1999/xlink" x="0px" y="0px"
	 width="64px" height="64px" viewBox="0 0 64 64" style="enable-background:new 0 0 64 64;" xml:space="preserve">
<g id="Body_24_">
	<g>
		<path style="fill:#808080;" d="M63.895,3.189c-0.129-0.776-0.412-1.37-0.798-1.811c-0.067-0.088-0.147-0.167-0.226-0.251
			c-0.084-0.078-0.162-0.157-0.25-0.226c-0.44-0.385-1.035-0.668-1.811-0.797C60.343,0.012,60,0,60,0c-4,0-10.25,0.25-14,4
			S30,20,30,20s-2.125,2-8,2c-2,0-2.154,0-8,0C8.153,22,0,26.021,0,38c0,2.25,2,4,2,4l10,10l10,10c0,0,1.75,2,4,2
			c12.044,0,16-8.125,16-14c0-4.063,0-6,0-8c0-5.625,2-8,2-8s12.25-12.25,16-16s4-10,4-14C64,4,63.988,3.657,63.895,3.189z"/>
	</g>
</g>
<g id="Wings">
	<g>
		<path style="fill:#666666;" d="M4.16,26.16C1.731,28.686,0,32.494,0,38c0,2.25,2,4,2,4l10,10l10,10c0,0,1.75,2,4,2
			c5.529,0,9.338-1.722,11.857-4.143L4.16,26.16z"/>
	</g>
</g>
<g id="Body_25_">
	<g>
		<path style="fill:#E6E6E6;" d="M54,4c-2,0-4,2-6,4L20,36l8,8l28-28c2-2,4-4,4-6C60,6,58,4,54,4z"/>
	</g>
</g>
<g id="Window_5_">
	<g>
		<path style="fill:#808080;" d="M52,8c-2,0-2,1-2,2s0,0,2,2s1,2,2,2s2,0,2-2S54,8,52,8z"/>
	</g>
</g>
<g id="Thrusters">
	<g>
		<path style="fill:#999999;" d="M29.899,41.758l-3.657-3.657c-0.061-0.062-0.14-0.086-0.206-0.137
			c-0.052-0.066-0.076-0.146-0.137-0.207l-3.657-3.656c-0.781-0.781-2.047-0.781-2.828,0L6.101,47.414
			c-0.781,0.781-0.781,2.047,0,2.828l3.656,3.657c0.062,0.061,0.141,0.085,0.206,0.137c0.052,0.066,0.076,0.146,0.138,0.206
			l3.656,3.657c0.781,0.78,2.048,0.78,2.829,0l13.313-13.313C30.681,43.805,30.681,42.538,29.899,41.758z"/>
	</g>
</g>
<g>
</g>
<g>
</g>
<g>
</g>
<g>
</g>
<g>
</g>
<g>
</g>
<g>
</g>
<g>
</g>
<g>
</g>
<g>
</g>
<g>
</g>
<g>
</g>
<g>
</g>
<g>
</g>
<g>
</g>
</svg>
