<?xml version="1.0" encoding="iso-8859-1"?>
<!-- Generator: Adobe Illustrator 16.0.0, SVG Export Plug-In . SVG Version: 6.00 Build 0)  -->
<!DOCTYPE svg PUBLIC "-//W3C//DTD SVG 1.1//EN" "http://www.w3.org/Graphics/SVG/1.1/DTD/svg11.dtd">
<svg version="1.1" id="Layer_1" xmlns="http://www.w3.org/2000/svg" xmlns:xlink="http://www.w3.org/1999/xlink" x="0px" y="0px"
	 width="64px" height="56px" viewBox="0 0 64 56" style="enable-background:new 0 0 64 56;" xml:space="preserve">
<g id="Trigger">
	<g>
		<path style="fill:#4D4D4D;" d="M20,30h-6c0,9.813,2,14,2,14h8v-4C20,40,20,30,20,30z"/>
	</g>
</g>
<g id="Handle_6_">
	<g>
		<path style="fill:#9B7CAB;" d="M4,6c0,0-4,0-4,4v12c0,0,0.063,4,4,4L2,46c0,0-0.688,10,6,10h6c0,0,4,0.063,4-4c0,0-0.188-1.75-2-4
			c-1.176-1.46,2.062-12.572,6-18c2.133-2.939,6-4,6-4V6H4z"/>
	</g>
</g>
<g id="Display">
	<g>
		<path style="fill:#6D5778;" d="M10,10H6c-1.104,0-2,0.896-2,2v8c0,1.104,0.896,2,2,2h4c1.104,0,2-0.896,2-2v-8
			C12,10.896,11.104,10,10,10z"/>
	</g>
</g>
<g id="Barrel">
	<g>
		<rect x="28" y="10" style="fill:#CCCCCC;" width="20" height="12"/>
	</g>
</g>
<g id="Barrel_1_">
	<g>
		<rect x="48" y="14" style="fill:#E6E6E6;" width="8" height="4"/>
	</g>
</g>
<g id="Shape_25_">
	<g>
		<circle style="fill:#F06EAA;" cx="58" cy="16" r="6"/>
	</g>
</g>
<g id="Shape_2_">
	<g>
		<path style="fill-rule:evenodd;clip-rule:evenodd;fill:#F06EAA;" d="M34,4c-1.104,0-2,0.896-2,2v20c0,1.104,0.896,2,2,2
			s2-0.896,2-2V6C36,4.896,35.104,4,34,4z M42,0c-1.104,0-2,0.896-2,2v28c0,1.104,0.896,2,2,2s2-0.896,2-2V2C44,0.896,43.104,0,42,0
			z"/>
	</g>
</g>
<g>
</g>
<g>
</g>
<g>
</g>
<g>
</g>
<g>
</g>
<g>
</g>
<g>
</g>
<g>
</g>
<g>
</g>
<g>
</g>
<g>
</g>
<g>
</g>
<g>
</g>
<g>
</g>
<g>
</g>
</svg>
