<?xml version="1.0" encoding="iso-8859-1"?>
<!-- Generator: Adobe Illustrator 16.0.0, SVG Export Plug-In . SVG Version: 6.00 Build 0)  -->
<!DOCTYPE svg PUBLIC "-//W3C//DTD SVG 1.1//EN" "http://www.w3.org/Graphics/SVG/1.1/DTD/svg11.dtd">
<svg version="1.1" id="Layer_1" xmlns="http://www.w3.org/2000/svg" xmlns:xlink="http://www.w3.org/1999/xlink" x="0px" y="0px"
	 width="64.02px" height="64.02px" viewBox="0 0 64.02 64.02" style="enable-background:new 0 0 64.02 64.02;" xml:space="preserve"
	>
<g id="Legs_2_">
	<g>
		<path style="fill-rule:evenodd;clip-rule:evenodd;fill:#CCCCCC;" d="M47.77,2.991c-0.555-0.96-1.784-1.289-2.745-0.734
			l-44.02,28.01c-0.961,0.554-1.29,1.782-0.735,2.742s1.784,1.289,2.744,0.734l44.021-28.01C47.994,5.179,48.324,3.951,47.77,2.991z
			 M61.028,16.25c-0.96-0.555-2.188-0.225-2.742,0.735l-28.01,44.02c-0.555,0.961-0.226,2.189,0.734,2.745
			c0.96,0.555,2.188,0.226,2.742-0.736l28.01-44.02C62.317,18.033,61.988,16.805,61.028,16.25z"/>
	</g>
</g>
<g id="Leg_2_">
	<g>
		<path style="fill:#E6E6E6;" d="M55.576,10.443c-0.781-0.781-2.048-0.781-2.829,0L22.463,40.729c-0.781,0.78-0.781,2.047,0,2.828
			c0.781,0.78,2.048,0.78,2.829,0l30.284-30.285C56.356,12.491,56.356,11.225,55.576,10.443z"/>
	</g>
</g>
<g id="Body_29_">
	<g>
		<circle style="fill:#ED7161;" cx="52.02" cy="12" r="12"/>
	</g>
</g>
<g>
</g>
<g>
</g>
<g>
</g>
<g>
</g>
<g>
</g>
<g>
</g>
<g>
</g>
<g>
</g>
<g>
</g>
<g>
</g>
<g>
</g>
<g>
</g>
<g>
</g>
<g>
</g>
<g>
</g>
</svg>
