<?xml version="1.0" encoding="iso-8859-1"?>
<!-- Generator: Adobe Illustrator 16.0.0, SVG Export Plug-In . SVG Version: 6.00 Build 0)  -->
<!DOCTYPE svg PUBLIC "-//W3C//DTD SVG 1.1//EN" "http://www.w3.org/Graphics/SVG/1.1/DTD/svg11.dtd">
<svg version="1.1" id="Layer_1" xmlns="http://www.w3.org/2000/svg" xmlns:xlink="http://www.w3.org/1999/xlink" x="0px" y="0px"
	 width="64.014px" height="64.014px" viewBox="0 0 64.014 64.014" style="enable-background:new 0 0 64.014 64.014;"
	 xml:space="preserve">
<g id="Body_17_">
	<g>
		<polygon style="fill:#ED7161;" points="63.958,18.693 45.186,0 18.693,0.055 0,18.827 0.056,45.319 18.827,64.014 45.32,63.958 
			64.014,45.186 		"/>
	</g>
</g>
<g id="STOP">
	<g>
		<path style="fill-rule:evenodd;clip-rule:evenodd;fill:#FFFFFF;" d="M30,22.005h-8c-1.104,0-2,0.896-2,2s0.896,1.999,2,1.999h2
			v13.998c0,1.104,0.895,1.999,2,1.999c1.104,0,2-0.896,2-1.999V26.004h2c1.104,0,2-0.895,2-1.999S31.104,22.005,30,22.005z
			 M10,26.004c2.209,0,4,0.896,4,2c0,1.104,0.895,2,2,2c1.104,0,2-0.896,2-2c0-3.313-3.582-5.999-8-5.999c-4.419,0-8,2.686-8,5.999
			c0,3.313,3.581,5.999,8,5.999v-0.001c2.208,0,4,0.896,4,2s-1.792,2-4,2c-2.21,0-4-0.896-4-2c0-1.104-0.896-1.999-2.001-1.999
			s-2,0.896-2,1.999c0,3.313,3.582,5.999,8.001,5.999c4.418,0,8-2.686,8-5.999c0-3.313-3.582-5.998-8-5.998c-2.209,0-4-0.896-4-2
			C6,26.9,7.791,26.004,10,26.004z M56,22c-0.046,0-0.09,0.006-0.136,0.007H52c-1.105,0-2,0.896-2,2v15.997
			c0,1.104,0.895,1.999,2,1.999c1.104,0,2-0.896,2-1.999v-5.999h2c0.033,0,0.064-0.008,0.097-0.01C59.365,33.942,62,31.28,62,28
			C62,24.686,59.313,22,56,22z M56,30h-2v-4h2c1.104,0,2,0.895,2,2C58,29.104,57.104,30,56,30z M41,22.007c-3.866,0-7,3.134-7,6.999
			v5.999c0,3.865,3.134,6.998,7,6.998c3.865,0,7-3.133,7-6.998v-5.999C48,25.141,44.865,22.007,41,22.007z M44,35.005
			c0,1.656-1.344,2.999-3,2.999c-1.657,0-3-1.343-3-2.999v-5.999c0-1.656,1.343-3,3-3c1.656,0,3,1.344,3,3V35.005z"/>
	</g>
</g>
<g>
</g>
<g>
</g>
<g>
</g>
<g>
</g>
<g>
</g>
<g>
</g>
<g>
</g>
<g>
</g>
<g>
</g>
<g>
</g>
<g>
</g>
<g>
</g>
<g>
</g>
<g>
</g>
<g>
</g>
</svg>
