<?xml version="1.0" encoding="iso-8859-1"?>
<!-- Generator: Adobe Illustrator 16.0.0, SVG Export Plug-In . SVG Version: 6.00 Build 0)  -->
<!DOCTYPE svg PUBLIC "-//W3C//DTD SVG 1.1//EN" "http://www.w3.org/Graphics/SVG/1.1/DTD/svg11.dtd">
<svg version="1.1" id="Layer_1" xmlns="http://www.w3.org/2000/svg" xmlns:xlink="http://www.w3.org/1999/xlink" x="0px" y="0px"
	 width="56px" height="63.999px" viewBox="0 0 56 63.999" style="enable-background:new 0 0 56 63.999;" xml:space="preserve">
<g id="Button">
	<g>
		<path style="fill-rule:evenodd;clip-rule:evenodd;fill:#999999;" d="M32,0h-8c-1.104,0-2,0.895-2,2v2c0,1.104,0.896,2,2,2h2v3.999
			h4V6h2c1.104,0,2-0.896,2-2V2C34,0.895,33.104,0,32,0z"/>
	</g>
</g>
<g id="Buttons">
	<g>
		<path style="fill-rule:evenodd;clip-rule:evenodd;fill:#999999;" d="M8,8c-1,0-4,3-4,4s7,8,8,8s4-3,4-4S9,8,8,8z M48,8
			c-1,0-8,7-8,8s3,4,4,4s8-7,8-8S49,8,48,8z"/>
	</g>
</g>
<g id="Body_6_">
	<g>
		<circle style="fill:#FF8833;" cx="28" cy="35.999" r="28"/>
	</g>
</g>
<g id="Dial">
	<g>
		<circle style="fill:#E6E6E6;" cx="28" cy="35.999" r="24"/>
	</g>
</g>
<g id="Numbers">
	<g>
		<path style="fill-rule:evenodd;clip-rule:evenodd;fill:#CCCCCC;" d="M28,14c-1.104,0-2,0.896-2,2s0.896,2,2,2s2-0.896,2-2
			S29.104,14,28,14z M28,54c-1.104,0-2,0.896-2,2s0.896,2,2,2s2-0.896,2-2S29.104,54,28,54z M48,34c-1.104,0-2,0.895-2,2
			c0,1.104,0.896,2,2,2s2-0.896,2-2C50,34.895,49.104,34,48,34z M10,36c0-1.105-0.896-2-2-2s-2,0.895-2,2c0,1.104,0.896,2,2,2
			S10,37.104,10,36z M10,24c-1.104,0-2,0.896-2,2s0.896,2,2,2s2-0.896,2-2S11.104,24,10,24z M38,52c-1.104,0-2,0.895-2,2
			c0,1.104,0.896,2,2,2s2-0.896,2-2C40,52.895,39.104,52,38,52z M38,16c-1.104,0-2,0.896-2,2s0.896,2,2,2s2-0.896,2-2
			S39.104,16,38,16z M10,44c-1.104,0-2,0.895-2,2c0,1.104,0.896,2,2,2s2-0.896,2-2C12,44.895,11.104,44,10,44z M18,16
			c-1.104,0-2,0.896-2,2s0.896,2,2,2s2-0.896,2-2S19.104,16,18,16z M46,44c-1.104,0-2,0.895-2,2c0,1.104,0.896,2,2,2s2-0.896,2-2
			C48,44.895,47.104,44,46,44z M46,28c1.104,0,2-0.896,2-2s-0.896-2-2-2s-2,0.896-2,2S44.896,28,46,28z M18,52c-1.104,0-2,0.895-2,2
			c0,1.104,0.896,2,2,2s2-0.896,2-2C20,52.895,19.104,52,18,52z"/>
	</g>
</g>
<g id="Hand">
	<g>
		<path style="fill:#48A0DC;" d="M40,46L29.433,34.578c-0.788-0.789-2.065-0.789-2.854-0.001s-0.788,2.066,0,2.854L38,48
			c0.788,0.788,4,2,4,2S40.788,46.787,40,46z"/>
	</g>
</g>
<g id="Dial_1_">
	<g>
		<circle style="fill:#CCCCCC;" cx="28" cy="26" r="6"/>
	</g>
</g>
<g>
</g>
<g>
</g>
<g>
</g>
<g>
</g>
<g>
</g>
<g>
</g>
<g>
</g>
<g>
</g>
<g>
</g>
<g>
</g>
<g>
</g>
<g>
</g>
<g>
</g>
<g>
</g>
<g>
</g>
</svg>
