<?xml version="1.0" encoding="iso-8859-1"?>
<!-- Generator: Adobe Illustrator 16.0.0, SVG Export Plug-In . SVG Version: 6.00 Build 0)  -->
<!DOCTYPE svg PUBLIC "-//W3C//DTD SVG 1.1//EN" "http://www.w3.org/Graphics/SVG/1.1/DTD/svg11.dtd">
<svg version="1.1" id="Layer_1" xmlns="http://www.w3.org/2000/svg" xmlns:xlink="http://www.w3.org/1999/xlink" x="0px" y="0px"
	 width="47.965px" height="61.969px" viewBox="0 0 47.965 61.969" style="enable-background:new 0 0 47.965 61.969;"
	 xml:space="preserve">
<g id="Body_23_">
	<g>
		<path style="fill:#ED7161;" d="M31.726,14.513C20.927,8.11,7.371,5.9,4.27,16.976c-5.611,20.038-6.139,41.766,1.114,44.384
			c11.765,4.245,32.381-14.862,37.992-21.201C50.925,31.631,42.524,20.915,31.726,14.513z"/>
	</g>
</g>
<g id="Tail_4_">
	<g>
		<path style="fill:#75A64B;" d="M47.403,0.561c-0.749-0.747-1.963-0.747-2.711,0L32.491,12.752c-0.749,0.748-0.749,1.96,0,2.709
			c0.749,0.748,1.963,0.748,2.711,0l12.201-12.19C48.152,2.522,48.152,1.309,47.403,0.561z"/>
	</g>
</g>
<g id="Leaf_2_">
	<g>
		<path style="fill:#88C057;" d="M33.606,13.98c-5.181-7.755-13.685-9.968-23.623-3.942c5.522,0,11.908-0.223,13.306,1.173
			c-4.486,0.495-5.646,3.59-9.315,8.683c10.331-3.313,14.399-1.679,18.036-1.528c5.252,6.198,3.248,12.91,4.107,16.397
			c2.629-0.938,6.027-4.451,6.73-6.979c3.252,0.794,2.567,6.23,3.128,6.23C48.726,31.41,50.999,13.98,33.606,13.98z"/>
	</g>
</g>
<g id="Dots_3_">
	<g>
		<path style="fill-rule:evenodd;clip-rule:evenodd;fill:#A14D42;" d="M24.858,30.392c-1.07-0.695-2.438-0.282-3.057,0.922
			L20.31,34.22c-0.617,1.204-0.251,2.742,0.819,3.438s2.439,0.283,3.057-0.921l1.492-2.906
			C26.296,32.626,25.929,31.087,24.858,30.392z M12.866,22.405c-1.082-0.695-2.465-0.283-3.089,0.921L8.27,26.232
			c-0.624,1.204-0.253,2.742,0.828,3.438s2.464,0.283,3.089-0.921l1.507-2.906C14.317,24.639,13.947,23.101,12.866,22.405z
			 M12.861,34.323c-1.07-0.7-2.438-0.284-3.057,0.93l-1.492,2.929c-0.618,1.213-0.251,2.764,0.819,3.465
			c1.07,0.7,2.439,0.284,3.057-0.929l1.493-2.929C14.299,36.575,13.933,35.024,12.861,34.323z M24.858,44.366
			c-1.07-0.694-2.438-0.282-3.057,0.922l-1.492,2.906c-0.617,1.203-0.251,2.742,0.819,3.438c1.07,0.694,2.439,0.282,3.057-0.922
			l1.492-2.906C26.296,46.602,25.929,45.062,24.858,44.366z M12.861,48.359c-1.07-0.694-2.438-0.282-3.057,0.921l-1.492,2.906
			c-0.618,1.203-0.251,2.743,0.819,3.438c1.07,0.694,2.439,0.282,3.057-0.922l1.493-2.905
			C14.299,50.594,13.933,49.055,12.861,48.359z M34.833,36.376c-1.07-0.694-2.438-0.282-3.057,0.922l-1.492,2.906
			c-0.618,1.203-0.251,2.742,0.819,3.438s2.439,0.282,3.057-0.921l1.492-2.906C36.271,38.611,35.903,37.071,34.833,36.376z"/>
	</g>
</g>
<g>
</g>
<g>
</g>
<g>
</g>
<g>
</g>
<g>
</g>
<g>
</g>
<g>
</g>
<g>
</g>
<g>
</g>
<g>
</g>
<g>
</g>
<g>
</g>
<g>
</g>
<g>
</g>
<g>
</g>
</svg>
