<?xml version="1.0" encoding="iso-8859-1"?>
<!-- Generator: Adobe Illustrator 16.0.0, SVG Export Plug-In . SVG Version: 6.00 Build 0)  -->
<!DOCTYPE svg PUBLIC "-//W3C//DTD SVG 1.1//EN" "http://www.w3.org/Graphics/SVG/1.1/DTD/svg11.dtd">
<svg version="1.1" id="Layer_1" xmlns="http://www.w3.org/2000/svg" xmlns:xlink="http://www.w3.org/1999/xlink" x="0px" y="0px"
	 width="64px" height="64px" viewBox="0 0 64 64" style="enable-background:new 0 0 64 64;" xml:space="preserve">
<g id="Needle">
	<g>
		<path style="fill:#48A0DC;" d="M20,40L2,60c-0.788,0.788-2,4-2,4s3.212-1.213,4-2l20-18L20,40z"/>
	</g>
</g>
<g id="Body_7_">
	<g>
		<path style="fill:#B3B3B3;" d="M40,14L18,36c-2,2-2,3-2,4s7,8,8,8s2,0,4-2l22-22L40,14z"/>
	</g>
</g>
<g id="Plunger">
	<g>
		<path style="fill-rule:evenodd;clip-rule:evenodd;fill:#CCCCCC;" d="M62,8l-6-6c-2-2-3-2-4-2s-2.031,1-2,2c0.063,1,0.063,2,2,4
			l-8,8v2L32,28l4,4l12-12h2l8-8c2,2,3,2,4,2s2-1,2-2S63.938,10,62,8z"/>
	</g>
</g>
<g id="Grip_3_">
	<g>
		<path style="fill:#999999;" d="M54,22L42,10c-2-2-3-2-4-2s-2,1-2,2s0,2,2,4l12,12c2.063,2,3,2,4,2s2-1,2-2S55.938,24,54,22z"/>
	</g>
</g>
<g>
</g>
<g>
</g>
<g>
</g>
<g>
</g>
<g>
</g>
<g>
</g>
<g>
</g>
<g>
</g>
<g>
</g>
<g>
</g>
<g>
</g>
<g>
</g>
<g>
</g>
<g>
</g>
<g>
</g>
</svg>
