<?xml version="1.0" encoding="iso-8859-1"?>
<!-- Generator: Adobe Illustrator 16.0.0, SVG Export Plug-In . SVG Version: 6.00 Build 0)  -->
<!DOCTYPE svg PUBLIC "-//W3C//DTD SVG 1.1//EN" "http://www.w3.org/Graphics/SVG/1.1/DTD/svg11.dtd">
<svg version="1.1" id="Layer_1" xmlns="http://www.w3.org/2000/svg" xmlns:xlink="http://www.w3.org/1999/xlink" x="0px" y="0px"
	 width="64px" height="27.998px" viewBox="0 0 64 27.998" style="enable-background:new 0 0 64 27.998;" xml:space="preserve">
<g id="Salad">
	<g>
		<path style="fill-rule:evenodd;clip-rule:evenodd;fill:#88C057;" d="M4,19.998c-2.209,0-4,1.791-4,4s1.791,4,4,4s4-1.791,4-4
			S6.209,19.998,4,19.998z M60,19.998c-2.209,0-4,1.791-4,4s1.791,4,4,4s4-1.791,4-4S62.209,19.998,60,19.998z M62,13.999
			c0-2.209-1.791-4-4-4s-4,1.791-4,4s1.791,3.999,4,3.999S62,16.208,62,13.999z"/>
	</g>
</g>
<g id="Cheese_3_">
	<g>
		<path style="fill-rule:evenodd;clip-rule:evenodd;fill:#FFCC66;" d="M8,7.999c-2.209,0-4,1.791-4,4s1.791,3.999,4,3.999
			s4-1.79,4-3.999S10.209,7.999,8,7.999z M54,3.999c-2.209,0-4,1.791-4,4s1.791,4,4,4s4-1.791,4-4S56.209,3.999,54,3.999z"/>
	</g>
</g>
<g id="Tomato_1_">
	<g>
		<path style="fill-rule:evenodd;clip-rule:evenodd;fill:#ED7161;" d="M60,13.999c-2.209,0-4,1.79-4,3.999s1.791,4,4,4s4-1.791,4-4
			S62.209,13.999,60,13.999z M6,13.999c-2.209,0-4,1.79-4,3.999s1.791,4,4,4s4-1.791,4-4S8.209,13.999,6,13.999z"/>
	</g>
</g>
<g id="Bread_3_">
	<g>
		<path style="fill:#ECD0B4;" d="M32,0C16.536,0,4,10.535,4,25.998c0,0.675,0.054,1.336,0.101,2h55.798
			c0.048-0.664,0.102-1.325,0.102-2C60,10.535,47.464,0,32,0z"/>
	</g>
</g>
<g id="Dots_2_">
	<g>
		<path style="fill-rule:evenodd;clip-rule:evenodd;fill:#CFB090;" d="M14,17.998c-1.104,0-2,0.896-2,2s0.896,2,2,2s2-0.896,2-2
			S15.104,17.998,14,17.998z M22,9.999c-1.104,0-2,0.896-2,2s0.896,2,2,2s2-0.896,2-2S23.104,9.999,22,9.999z M30,19.998
			c-1.104,0-2,0.896-2,2s0.896,2,2,2s2-0.896,2-2S31.104,19.998,30,19.998z M38,5.999c-1.104,0-2,0.896-2,2s0.896,2,2,2s2-0.896,2-2
			S39.104,5.999,38,5.999z M50,17.998c-1.104,0-2,0.896-2,2s0.896,2,2,2s2-0.896,2-2S51.104,17.998,50,17.998z"/>
	</g>
</g>
<g>
</g>
<g>
</g>
<g>
</g>
<g>
</g>
<g>
</g>
<g>
</g>
<g>
</g>
<g>
</g>
<g>
</g>
<g>
</g>
<g>
</g>
<g>
</g>
<g>
</g>
<g>
</g>
<g>
</g>
</svg>
