<?xml version="1.0" encoding="iso-8859-1"?>
<!-- Generator: Adobe Illustrator 16.0.0, SVG Export Plug-In . SVG Version: 6.00 Build 0)  -->
<!DOCTYPE svg PUBLIC "-//W3C//DTD SVG 1.1//EN" "http://www.w3.org/Graphics/SVG/1.1/DTD/svg11.dtd">
<svg version="1.1" id="Layer_1" xmlns="http://www.w3.org/2000/svg" xmlns:xlink="http://www.w3.org/1999/xlink" x="0px" y="0px"
	 width="64px" height="52px" viewBox="0 0 64 52" style="enable-background:new 0 0 64 52;" xml:space="preserve">
<g id="Locker">
	<g>
		<path style="fill:#B5B3B1;" d="M40,0h-2l-2,2l10,10l2-2V8C48,4,44,0,40,0z"/>
	</g>
</g>
<g id="Body_4_">
	<g>
		<path style="fill:#FFCC66;" d="M28,0.023h-8c-11.046,0-20,8.955-20,20.002v24.002c0,2.209,1.791,4.001,4,4.001h40
			c2.209,0,4-1.792,4-4.001V20.025C48,8.979,39.045,0.023,28,0.023z"/>
	</g>
</g>
<g id="Logo">
	<g>
		<path style="fill-rule:evenodd;clip-rule:evenodd;fill:#FFFFFF;" d="M24,7.971c-8.837,0-16,7.174-16,16.022
			c0,8.85,7.163,16.022,16,16.022c8.836,0,16-7.173,16-16.022C40,15.145,32.836,7.971,24,7.971z M24,23.993c0,0-12,0.065-12,0
			c0-6.637,5.372-12.017,12-12.017c6.627,0,12,5.38,12,12.017C36,23.934,24,23.993,24,23.993z"/>
	</g>
</g>
<g id="Tape">
	<g>
		<rect x="48" y="40.016" style="fill:#B5B3B1;" width="16" height="4.006"/>
	</g>
</g>
<g id="Head_1_">
	<g>
		<path style="fill:#666564;" d="M60,40v10c0,1.104,0.896,2,2,2s2-0.896,2-2V40H60z"/>
	</g>
</g>
<g>
</g>
<g>
</g>
<g>
</g>
<g>
</g>
<g>
</g>
<g>
</g>
<g>
</g>
<g>
</g>
<g>
</g>
<g>
</g>
<g>
</g>
<g>
</g>
<g>
</g>
<g>
</g>
<g>
</g>
</svg>
