<?xml version="1.0" encoding="iso-8859-1"?>
<!-- Generator: Adobe Illustrator 16.0.0, SVG Export Plug-In . SVG Version: 6.00 Build 0)  -->
<!DOCTYPE svg PUBLIC "-//W3C//DTD SVG 1.1//EN" "http://www.w3.org/Graphics/SVG/1.1/DTD/svg11.dtd">
<svg version="1.1" id="Layer_1" xmlns="http://www.w3.org/2000/svg" xmlns:xlink="http://www.w3.org/1999/xlink" x="0px" y="0px"
	 width="60px" height="34px" viewBox="0 0 60 34" style="enable-background:new 0 0 60 34;" xml:space="preserve">
<g id="Body_12_">
	<g>
		<path style="fill:#FFCC66;" d="M50,4c-0.625-2.521-1.791-4-4-4H14c-2.209,0-3.375,1.541-4,4L4,30c0,2.209,1.791,4,4,4h44
			c2.209,0,4-1.791,4-4L50,4z"/>
	</g>
</g>
<g id="Shape">
	<g>
		<path style="fill:#4D4D4D;" d="M56,26H4c-2.209,0-4,1.791-4,4s1.791,4,4,4h52c2.209,0,4-1.791,4-4S58.209,26,56,26z"/>
	</g>
</g>
<g id="Dots">
	<g>
		<path style="fill-rule:evenodd;clip-rule:evenodd;fill:#4D4D4D;" d="M16,14.001h-4c-1.104,0-2,0.895-2,1.999v4
			c0,1.104,0.896,2,2,2h4c1.104,0,2-0.896,2-2v-4C18,14.896,17.104,14.001,16,14.001z M26,8c0-1.104-0.896-2-2-2h-4
			c-1.104,0-2,0.896-2,2v4c0,1.104,0.896,2.001,2,2.001h4c1.104,0,2-0.896,2-2.001V8z M32,14.001h-4c-1.104,0-2,0.895-2,1.999v4
			c0,1.104,0.896,2,2,2h4c1.104,0,2-0.896,2-2v-4C34,14.896,33.104,14.001,32,14.001z M42,8c0-1.104-0.896-2-2-2h-4
			c-1.104,0-2,0.896-2,2v4c0,1.104,0.896,2.001,2,2.001h4c1.104,0,2-0.896,2-2.001V8z M48,14.001h-4c-1.104,0-2,0.895-2,1.999v4
			c0,1.104,0.896,2,2,2h4c1.104,0,2-0.896,2-2v-4C50,14.896,49.104,14.001,48,14.001z"/>
	</g>
</g>
<g>
</g>
<g>
</g>
<g>
</g>
<g>
</g>
<g>
</g>
<g>
</g>
<g>
</g>
<g>
</g>
<g>
</g>
<g>
</g>
<g>
</g>
<g>
</g>
<g>
</g>
<g>
</g>
<g>
</g>
</svg>
