<?xml version="1.0" encoding="iso-8859-1"?>
<!-- Generator: Adobe Illustrator 16.0.0, SVG Export Plug-In . SVG Version: 6.00 Build 0)  -->
<!DOCTYPE svg PUBLIC "-//W3C//DTD SVG 1.1//EN" "http://www.w3.org/Graphics/SVG/1.1/DTD/svg11.dtd">
<svg version="1.1" id="Layer_1" xmlns="http://www.w3.org/2000/svg" xmlns:xlink="http://www.w3.org/1999/xlink" x="0px" y="0px"
	 width="64px" height="64px" viewBox="0 0 64 64" style="enable-background:new 0 0 64 64;" xml:space="preserve">
<g id="Grip">
	<g>
		<path style="fill:#A67C52;" d="M14,46L4,56c-2,2-4,3-4,4s3,4,4,4s2-2,4-4l10-10L14,46z"/>
	</g>
</g>
<g id="Body_5_">
	<g>
		<path style="fill-rule:evenodd;clip-rule:evenodd;fill:#666666;" d="M44,0C32,0,18,16,18,28c0,10-2,16-4,18l4,4
			c2.01-1.99,8-4,18-4c12,0,28-14,28-26S56,0,44,0z M20,44c0,0,2-4,2-6c0,1,3,4,4,4C24,42,20,44,20,44z"/>
	</g>
</g>
<g id="Net">
	<g>
		<path style="fill:#E6E6E6;" d="M44,4C34,4,22,18,22,28c0,8,6,14,14,14c10,0,24-12,24-22S54,4,44,4z"/>
	</g>
</g>
<g id="Ball_2_">
	<g>
		<circle style="fill:#88C057;" cx="52" cy="36" r="12"/>
	</g>
</g>
<g id="Lines_1_">
	<g>
		<path style="fill-rule:evenodd;clip-rule:evenodd;fill:#E6E6E6;" d="M52,24h-0.005c-1.334,0.001-2.664,0.235-3.938,0.678
			C48.648,29.994,56,30.24,56,36c0,2-2,4-4,4c-5.76,0-6.006-7.352-11.322-7.942c-0.442,1.273-0.677,2.604-0.678,3.938V36
			c4,0,4,8,12,8c4,0,8-4,8-8C60,28,52,28,52,24z"/>
	</g>
</g>
<g>
</g>
<g>
</g>
<g>
</g>
<g>
</g>
<g>
</g>
<g>
</g>
<g>
</g>
<g>
</g>
<g>
</g>
<g>
</g>
<g>
</g>
<g>
</g>
<g>
</g>
<g>
</g>
<g>
</g>
</svg>
