<?xml version="1.0" encoding="iso-8859-1"?>
<!-- Generator: Adobe Illustrator 16.0.0, SVG Export Plug-In . SVG Version: 6.00 Build 0)  -->
<!DOCTYPE svg PUBLIC "-//W3C//DTD SVG 1.1//EN" "http://www.w3.org/Graphics/SVG/1.1/DTD/svg11.dtd">
<svg version="1.1" id="Layer_1" xmlns="http://www.w3.org/2000/svg" xmlns:xlink="http://www.w3.org/1999/xlink" x="0px" y="0px"
	 width="64px" height="64px" viewBox="0 0 64 64" style="enable-background:new 0 0 64 64;" xml:space="preserve">
<g id="Body_11_">
	<g>
		<path style="fill:#E6E6E6;" d="M54,0c-4,0-8,4-10,6L20,30c-2,2-6,6-6,10c0,2-2,6-4,8l6,6c2-2,6-4,8-4c4,0,8-4,10-6l24-24
			c2-2,6-6,6-10S58,0,54,0z"/>
	</g>
</g>
<g id="Tube">
	<g>
		<path style="fill:#88C057;" d="M54,8c-1,0-2,0-4,2L40,20l4,4l10-10c2-2,2-3,2-4S55,8,54,8z"/>
	</g>
</g>
<g id="Mercury">
	<g>
		
			<rect x="5.787" y="34.172" transform="matrix(0.7071 -0.7071 0.7071 0.7071 -18.2548 29.9289)" style="fill:#ED7161;" width="42.426" height="5.657"/>
	</g>
</g>
<g id="Bulb">
	<g>
		<path style="fill:#666666;" d="M10,48l-8,8c-2,2-2,3-2,4c0,2,2,4,4,4c1,0,2,0,4-2l8-8L10,48z"/>
	</g>
</g>
<g>
</g>
<g>
</g>
<g>
</g>
<g>
</g>
<g>
</g>
<g>
</g>
<g>
</g>
<g>
</g>
<g>
</g>
<g>
</g>
<g>
</g>
<g>
</g>
<g>
</g>
<g>
</g>
<g>
</g>
</svg>
