<?xml version="1.0" encoding="iso-8859-1"?>
<!-- Generator: Adobe Illustrator 16.0.0, SVG Export Plug-In . SVG Version: 6.00 Build 0)  -->
<!DOCTYPE svg PUBLIC "-//W3C//DTD SVG 1.1//EN" "http://www.w3.org/Graphics/SVG/1.1/DTD/svg11.dtd">
<svg version="1.1" id="Layer_1" xmlns="http://www.w3.org/2000/svg" xmlns:xlink="http://www.w3.org/1999/xlink" x="0px" y="0px"
	 width="64.018px" height="39.956px" viewBox="0 0 64.018 39.956" style="enable-background:new 0 0 64.018 39.956;"
	 xml:space="preserve">
<g id="Wing_Arm">
	<g>
		<path style="fill:#B3B3B3;" d="M56.009,15.978h-48c-2.209,0-4,1.791-4,4s1.791,4,4,4h48c2.209,0,4-1.791,4-4
			S58.218,15.978,56.009,15.978z"/>
	</g>
</g>
<g id="Wings_1_">
	<g>
		<path style="fill-rule:evenodd;clip-rule:evenodd;fill:#CCCCCC;" d="M9.082,0.14C6.971-0.444,4.8,0.849,4.233,3.029L0.136,18.812
			c-0.102,0.391-0.126,0.781-0.115,1.166c-0.011,0.385,0.014,0.774,0.115,1.165l4.098,15.784c0.566,2.179,2.737,3.472,4.849,2.889
			c2.112-0.584,3.365-2.824,2.8-5.004L8.029,19.978l3.853-14.835C12.447,2.964,11.194,0.724,9.082,0.14z M63.882,18.812
			L59.783,3.029c-0.565-2.18-2.736-3.473-4.849-2.889c-2.111,0.584-3.365,2.824-2.799,5.003l3.852,14.835l-3.852,14.834
			c-0.566,2.18,0.688,4.42,2.799,5.004c2.112,0.583,4.283-0.71,4.849-2.889l4.099-15.784c0.102-0.391,0.125-0.78,0.115-1.165
			C64.007,19.593,63.983,19.203,63.882,18.812z"/>
	</g>
</g>
<g id="Shape_19_">
	<g>
		<circle style="fill:#999999;" cx="32.009" cy="19.978" r="12"/>
	</g>
</g>
<g id="Shape_20_">
	<g>
		<circle style="fill:#666666;" cx="32.009" cy="19.978" r="4"/>
	</g>
</g>
<g>
</g>
<g>
</g>
<g>
</g>
<g>
</g>
<g>
</g>
<g>
</g>
<g>
</g>
<g>
</g>
<g>
</g>
<g>
</g>
<g>
</g>
<g>
</g>
<g>
</g>
<g>
</g>
<g>
</g>
</svg>
