<?xml version="1.0" encoding="iso-8859-1"?>
<!-- Generator: Adobe Illustrator 16.0.0, SVG Export Plug-In . SVG Version: 6.00 Build 0)  -->
<!DOCTYPE svg PUBLIC "-//W3C//DTD SVG 1.1//EN" "http://www.w3.org/Graphics/SVG/1.1/DTD/svg11.dtd">
<svg version="1.1" id="Layer_1" xmlns="http://www.w3.org/2000/svg" xmlns:xlink="http://www.w3.org/1999/xlink" x="0px" y="0px"
	 width="64px" height="63.995px" viewBox="0 0 64 63.995" style="enable-background:new 0 0 64 63.995;" xml:space="preserve">
<g id="Body_21_">
	<g>
		<path style="fill:#ED7161;" d="M42,11.999c-3.626,0.022-6.916,0.432-9.888,1.157c-3.028-0.751-6.398-1.157-10.112-1.157
			c-14.359,0-22,11.64-22,25.997c0,14.359,11.641,25.999,26,25.999c2.068,0,4.07-0.268,6-0.724c1.929,0.456,3.932,0.724,6,0.724
			c14.359,0,26-11.64,26-25.999C64,23.639,56.359,11.908,42,11.999z"/>
	</g>
</g>
<g id="Tail_1_">
	<g>
		<path style="fill:#94C668;" d="M44,15.998l-8-5.999h-1.589c1.622-7.148,7.589-6,7.589-6V0c-7.121,0-10.056,6.059-11.237,10.205
			L20,11.999l8,2l-4,5.999l8-4l6,4l-2-5.999L44,15.998z"/>
	</g>
</g>
<g>
</g>
<g>
</g>
<g>
</g>
<g>
</g>
<g>
</g>
<g>
</g>
<g>
</g>
<g>
</g>
<g>
</g>
<g>
</g>
<g>
</g>
<g>
</g>
<g>
</g>
<g>
</g>
<g>
</g>
</svg>
