<?xml version="1.0" encoding="iso-8859-1"?>
<!-- Generator: Adobe Illustrator 16.0.0, SVG Export Plug-In . SVG Version: 6.00 Build 0)  -->
<!DOCTYPE svg PUBLIC "-//W3C//DTD SVG 1.1//EN" "http://www.w3.org/Graphics/SVG/1.1/DTD/svg11.dtd">
<svg version="1.1" id="Layer_1" xmlns="http://www.w3.org/2000/svg" xmlns:xlink="http://www.w3.org/1999/xlink" x="0px" y="0px"
	 width="64px" height="44px" viewBox="0 0 64 44" style="enable-background:new 0 0 64 44;" xml:space="preserve">
<g id="Box">
	<g>
		<path style="fill:#D46557;" d="M2,20.001V40c0,2.21,1.791,4,4,4h52c2.209,0,4-1.79,4-4V20.001H2z"/>
	</g>
</g>
<g id="Cover_3_">
	<g>
		<path style="fill:#ED7161;" d="M62,8.001H2c-1.105,0-2,0.895-2,2v10h64v-10C64,8.896,63.104,8.001,62,8.001z"/>
	</g>
</g>
<g id="Support_2_">
	<g>
		<path style="fill-rule:evenodd;clip-rule:evenodd;fill:#B3B3B3;" d="M14,8.001h6v-4C20,4.001,14,4.001,14,8.001z M44,4.001v4h6
			C50,4.001,44,4.001,44,4.001z"/>
	</g>
</g>
<g id="Handle">
	<g>
		<path style="fill:#666666;" d="M32,0c-6,0-8,4.001-12,4.001v4c4,0,8-4,12-4s8,4,12,4v-4C40,4.001,38,0,32,0z"/>
	</g>
</g>
<g id="Lock">
	<g>
		<path style="fill-rule:evenodd;clip-rule:evenodd;fill:#B3B3B3;" d="M12,28.001c0,1.104,0.895,2,2,2h4c1.104,0,2-0.896,2-2v-8h-8
			V28.001z M44,20.001v8c0,1.104,0.896,2,2,2h4c1.104,0,2-0.896,2-2v-8H44z"/>
	</g>
</g>
<g id="Lock_3_">
	<g>
		<path style="fill-rule:evenodd;clip-rule:evenodd;fill:#CCCCCC;" d="M18,16.001h-4c-1.105,0-2,0.895-2,2v2h8v-2
			C20,16.896,19.104,16.001,18,16.001z M50,16.001h-4c-1.104,0-2,0.895-2,2v2h8v-2C52,16.896,51.104,16.001,50,16.001z"/>
	</g>
</g>
<g id="Lock_2_">
	<g>
		<path style="fill-rule:evenodd;clip-rule:evenodd;fill:#999999;" d="M14,24.001c0,1.104,0.895,2,2,2c1.104,0,2-0.896,2-2v-4h-4
			V24.001z M46,20.001v4c0,1.104,0.896,2,2,2s2-0.896,2-2v-4H46z"/>
	</g>
</g>
<g>
</g>
<g>
</g>
<g>
</g>
<g>
</g>
<g>
</g>
<g>
</g>
<g>
</g>
<g>
</g>
<g>
</g>
<g>
</g>
<g>
</g>
<g>
</g>
<g>
</g>
<g>
</g>
<g>
</g>
</svg>
