<?xml version="1.0" encoding="iso-8859-1"?>
<!-- Generator: Adobe Illustrator 16.0.0, SVG Export Plug-In . SVG Version: 6.00 Build 0)  -->
<!DOCTYPE svg PUBLIC "-//W3C//DTD SVG 1.1//EN" "http://www.w3.org/Graphics/SVG/1.1/DTD/svg11.dtd">
<svg version="1.1" id="Layer_1" xmlns="http://www.w3.org/2000/svg" xmlns:xlink="http://www.w3.org/1999/xlink" x="0px" y="0px"
	 width="64px" height="64.024px" viewBox="0 0 64 64.024" style="enable-background:new 0 0 64 64.024;" xml:space="preserve">
<g id="Beam">
	<g>
		<path style="fill:#FBE9C5;" d="M42,30H32H22c0,0-6,23.25-6,28c0,6.615,16,6,16,6s16,0.744,16-6C48,53.25,42,30,42,30z"/>
	</g>
</g>
<g id="Antenas">
	<g>
		<path style="fill-rule:evenodd;clip-rule:evenodd;fill:#E6E6E6;" d="M5.333,2.57c-0.763-0.763-1.999-0.763-2.763,0
			c-0.762,0.764-0.762,2,0,2.763l22.097,22.096c0.763,0.763,1.999,0.763,2.762,0s0.763-1.999,0-2.762L5.333,2.57z M61.429,2.57
			c-0.763-0.763-1.999-0.763-2.762,0L36.57,24.667c-0.762,0.763-0.762,1.999,0,2.762c0.764,0.763,2,0.763,2.763,0L61.429,5.333
			C62.191,4.57,62.191,3.334,61.429,2.57z"/>
	</g>
</g>
<g id="Ship">
	<g>
		<path style="fill:#4D4D4D;" d="M60,18H4c-2.209,0-4,1.791-4,4s1.791,4,4,4h56c2.209,0,4-1.791,4-4S62.209,18,60,18z"/>
	</g>
</g>
<g id="Lights_3_">
	<g>
		<path style="fill-rule:evenodd;clip-rule:evenodd;fill:#FFCC66;" d="M8,20c-1.104,0-2,0.896-2,2s0.896,2,2,2s2-0.896,2-2
			S9.104,20,8,20z M16,20c-1.104,0-2,0.896-2,2s0.896,2,2,2s2-0.896,2-2S17.104,20,16,20z M24,20c-1.104,0-2,0.896-2,2s0.896,2,2,2
			s2-0.896,2-2S25.104,20,24,20z M32,20c-1.104,0-2,0.896-2,2s0.896,2,2,2s2-0.896,2-2S33.104,20,32,20z M40,20
			c-1.104,0-2,0.896-2,2s0.896,2,2,2s2-0.896,2-2S41.104,20,40,20z M48,20c-1.104,0-2,0.896-2,2s0.896,2,2,2s2-0.896,2-2
			S49.104,20,48,20z M56,20c-1.104,0-2,0.896-2,2s0.896,2,2,2s2-0.896,2-2S57.104,20,56,20z"/>
	</g>
</g>
<g id="Upper_Part">
	<g>
		<path style="fill:#CCCCCC;" d="M32,6C16.5,6,4,18,4,18h28h28C60,18,47.5,6,32,6z"/>
	</g>
</g>
<g id="Base_Part">
	<g>
		<path style="fill:#999999;" d="M32,26H4c0,0,12.5,8,28,8s28-8,28-8H32z"/>
	</g>
</g>
<g id="Hole_1_">
	<g>
		<ellipse style="fill:#666666;" cx="32" cy="32" rx="10" ry="2"/>
	</g>
</g>
<g id="Antenas_1_">
	<g>
		<path style="fill-rule:evenodd;clip-rule:evenodd;fill:#B3B3B3;" d="M60,0c-2.209,0-4,1.791-4,4s1.791,4,4,4s4-1.791,4-4
			S62.209,0,60,0z M4,0C1.791,0,0,1.791,0,4s1.791,4,4,4s4-1.791,4-4S6.209,0,4,0z"/>
	</g>
</g>
<g>
</g>
<g>
</g>
<g>
</g>
<g>
</g>
<g>
</g>
<g>
</g>
<g>
</g>
<g>
</g>
<g>
</g>
<g>
</g>
<g>
</g>
<g>
</g>
<g>
</g>
<g>
</g>
<g>
</g>
</svg>
