<?xml version="1.0" encoding="iso-8859-1"?>
<!-- Generator: Adobe Illustrator 16.0.0, SVG Export Plug-In . SVG Version: 6.00 Build 0)  -->
<!DOCTYPE svg PUBLIC "-//W3C//DTD SVG 1.1//EN" "http://www.w3.org/Graphics/SVG/1.1/DTD/svg11.dtd">
<svg version="1.1" id="Layer_1" xmlns="http://www.w3.org/2000/svg" xmlns:xlink="http://www.w3.org/1999/xlink" x="0px" y="0px"
	 width="62.001px" height="64.001px" viewBox="0 0 62.001 64.001" style="enable-background:new 0 0 62.001 64.001;"
	 xml:space="preserve">
<g id="Blue_3_">
	<g>
		<path style="fill:#408EC2;" d="M32.001,14.001c-2.209,0-4,0.896-4,2.001v31.999c0,1.105,1.791,2,4,2c0.377,0,28-2,28-2V12.002
			L32.001,14.001z"/>
	</g>
</g>
<g id="White_4_">
	<g>
		<path style="fill-rule:evenodd;clip-rule:evenodd;fill:#E6E6E6;" d="M60.001,12.002l-10.299,0.735l-13.701,8.719v-7.74l-4,0.285
			c-2.209,0-4,0.896-4,2.001v7.999v12v12c0,0.124,0.029,0.245,0.073,0.363c0.009,0.023,0.017,0.047,0.027,0.07
			c0.05,0.114,0.117,0.226,0.205,0.331c0.013,0.015,0.028,0.029,0.041,0.044c0.087,0.099,0.189,0.192,0.306,0.281
			c0.017,0.013,0.032,0.027,0.05,0.04c0.129,0.094,0.275,0.182,0.434,0.263c0.03,0.016,0.062,0.03,0.093,0.045
			c0.17,0.083,0.353,0.159,0.55,0.226c0.279,0.093,0.59,0.162,0.912,0.219c0.082,0.014,0.164,0.026,0.248,0.038
			c0.34,0.047,0.692,0.08,1.062,0.08c0.012,0,0.05-0.002,0.109-0.006c0.016-0.001,0.043-0.003,0.062-0.004
			c0.461-0.028,1.87-0.126,3.829-0.265V35.501l0.544-0.034l16.909,13.008c3.785-0.273,6.547-0.474,6.547-0.474v-4.585l-11.32-8.707
			l11.32-0.708v-12l-8.279,0.518l8.279-4.517V12.002z"/>
	</g>
</g>
<g id="Stripes_4_">
	<g>
		<path style="fill-rule:evenodd;clip-rule:evenodd;fill:#D46557;" d="M60.001,15.079v-3.077l-3.906,0.279L36.001,24.002l-4,4v4
			l4.667-0.333L57.669,48.17c1.443-0.104,2.332-0.169,2.332-0.169v-1.999L40.522,31.394l19.479-1.392v-4l-23.389,1.671
			L60.001,15.079z"/>
	</g>
</g>
<g id="Blue_4_">
	<g>
		<path style="fill:#48A0DC;" d="M32.001,6.001c-0.543,0-20,2-20,2v36.001c0,0,19.457-2.001,20-2.001c2.209,0,4,0.896,4,2.001V8.001
			C36.001,6.896,34.21,6.001,32.001,6.001z"/>
	</g>
</g>
<g id="White_5_">
	<g>
		<path style="fill-rule:evenodd;clip-rule:evenodd;fill:#FFFFFF;" d="M32.005,6.001h-2.004v11.12L18.03,7.385
			c-3.372,0.344-6.029,0.616-6.029,0.616v4.896l7.701,6.462l-7.701,0.642v12.001l6.734-0.562l-6.734,6.861v5.7
			c0,0,2.835-0.292,6.367-0.652l11.633-11.421v10.073l2-0.001c2.209,0,4,0.896,4,2.001v-14v-12V8.001
			C36.001,6.896,34.212,6.003,32.005,6.001z"/>
	</g>
</g>
<g id="Stripes_5_">
	<g>
		<path style="fill-rule:evenodd;clip-rule:evenodd;fill:#ED7161;" d="M28.001,44.002v3.999c0,1.105,1.791,2,4,2v-8
			C29.792,42.001,28.001,42.896,28.001,44.002z M32.005,6.001h-0.004v16.223l-16-14.223h-4v2l14.399,12.8l-14.399,1.2v4.001
			l15.272-1.272L12.001,42.002v2h2l14-14.001v0.001l3.637-3.637l0.363-0.03v15.666c2.209,0,4,0.896,4,2.001v-18v-4.001V8.002
			C36.001,6.896,34.212,6.003,32.005,6.001z"/>
	</g>
</g>
<g id="Back_3_">
	<g>
		<path style="fill-rule:evenodd;clip-rule:evenodd;fill:#BA594C;" d="M32.001,42.001c-0.15,0-1.759,0.154-4,0.377v1.623v4
			c0-1.104,1.791-2,4-2s3.999-0.896,4-1.999C36,42.896,34.21,42.001,32.001,42.001z"/>
	</g>
</g>
<g id="Pole_3_">
	<g>
		<path style="fill-rule:evenodd;clip-rule:evenodd;fill:#CCCCCC;" d="M18,60h-5.999V7.446c1.19-0.693,2-1.969,2-3.445
			c0-2.209-1.791-4.001-4-4.001c-2.21,0-4,1.792-4,4.001c0,1.477,0.81,2.753,2,3.445V60h-6C0.896,60,0,60.896,0,62.001
			s0.896,2,2.001,2H18c1.105,0,2.001-0.896,2.001-2S19.105,60,18,60z"/>
	</g>
</g>
<g>
</g>
<g>
</g>
<g>
</g>
<g>
</g>
<g>
</g>
<g>
</g>
<g>
</g>
<g>
</g>
<g>
</g>
<g>
</g>
<g>
</g>
<g>
</g>
<g>
</g>
<g>
</g>
<g>
</g>
</svg>
