<?xml version="1.0" encoding="iso-8859-1"?>
<!-- Generator: Adobe Illustrator 16.0.0, SVG Export Plug-In . SVG Version: 6.00 Build 0)  -->
<!DOCTYPE svg PUBLIC "-//W3C//DTD SVG 1.1//EN" "http://www.w3.org/Graphics/SVG/1.1/DTD/svg11.dtd">
<svg version="1.1" id="Layer_1" xmlns="http://www.w3.org/2000/svg" xmlns:xlink="http://www.w3.org/1999/xlink" x="0px" y="0px"
	 width="64px" height="31.997px" viewBox="0 0 64 31.997" style="enable-background:new 0 0 64 31.997;" xml:space="preserve">
<g id="Watermelon">
	<g>
		<path style="fill:#6B9843;" d="M0,0c0,17.672,14.327,31.997,32,31.997c17.673,0,32-14.325,32-31.997H0z"/>
	</g>
</g>
<g id="Watermelon_3_">
	<g>
		<path style="fill:#FFCC66;" d="M4,0c0,15.463,12.536,27.998,28,27.998S60,15.463,60,0H4z"/>
	</g>
</g>
<g id="Watermelon_2_">
	<g>
		<path style="fill:#ED7161;" d="M6,0c0,14.358,11.641,25.998,26,25.998S58,14.358,58,0H6z"/>
	</g>
</g>
<g id="Seeds">
	<g>
		<path style="fill-rule:evenodd;clip-rule:evenodd;fill:#4D4D4D;" d="M18,5.999c-1.104,0-2,0.896-2,2s0.896,2,2,2s2-0.896,2-2
			S19.104,5.999,18,5.999z M28,5.999c-1.104,0-2,0.896-2,2s0.896,2,2,2s2-0.896,2-2S29.104,5.999,28,5.999z M36,5.999
			c-1.104,0-2,0.896-2,2s0.896,2,2,2s2-0.896,2-2S37.104,5.999,36,5.999z M46,5.999c-1.104,0-2,0.896-2,2s0.896,2,2,2s2-0.896,2-2
			S47.104,5.999,46,5.999z M24,13.999c-1.104,0-2,0.895-2,1.999s0.896,2,2,2s2-0.896,2-2S25.104,13.999,24,13.999z M32,13.999
			c-1.105,0-2,0.895-2,1.999s0.895,2,2,2c1.104,0,2-0.896,2-2S33.104,13.999,32,13.999z M40,13.999c-1.104,0-2,0.895-2,1.999
			s0.896,2,2,2s2-0.896,2-2S41.104,13.999,40,13.999z"/>
	</g>
</g>
<g>
</g>
<g>
</g>
<g>
</g>
<g>
</g>
<g>
</g>
<g>
</g>
<g>
</g>
<g>
</g>
<g>
</g>
<g>
</g>
<g>
</g>
<g>
</g>
<g>
</g>
<g>
</g>
<g>
</g>
</svg>
