<?xml version="1.0" encoding="iso-8859-1"?>
<!-- Generator: Adobe Illustrator 16.0.0, SVG Export Plug-In . SVG Version: 6.00 Build 0)  -->
<!DOCTYPE svg PUBLIC "-//W3C//DTD SVG 1.1//EN" "http://www.w3.org/Graphics/SVG/1.1/DTD/svg11.dtd">
<svg version="1.1" id="Layer_1" xmlns="http://www.w3.org/2000/svg" xmlns:xlink="http://www.w3.org/1999/xlink" x="0px" y="0px"
	 width="48px" height="47.997px" viewBox="0 0 48 47.997" style="enable-background:new 0 0 48 47.997;" xml:space="preserve">
<g id="Glass_2_">
	<g>
		<path style="fill:#B3B3B3;" d="M46,0H2C0.896,0,0,0.896,0,2v10v25.997v6c0,2.209,1.791,4,4,4h40c2.209,0,4-1.791,4-4v-6V12V2
			C48,0.896,47.104,0,46,0z"/>
	</g>
</g>
<g id="Glass_3_">
	<g>
		<path style="fill:#E6E6E6;" d="M42,0H6H4v2v10v7.999v13.999v5.999c0,2.209,1.791,4,4,4h32c2.209,0,4-1.791,4-4v-5.999V19.999V12V2
			V0H42z"/>
	</g>
</g>
<g id="Whisky">
	<g>
		<path style="fill:#D08B46;" d="M36,21.998c-4,1.334-4,1.667-14,2c-5.41,0.181-12.562-1.004-18-2.131v12.131v5.999
			c0,2.209,1.791,4,4,4h32c2.209,0,4-1.791,4-4v-5.999v-13.87C41.184,20.524,38.231,21.255,36,21.998z"/>
	</g>
</g>
<g id="Ice">
	<g>
		<path style="fill-rule:evenodd;clip-rule:evenodd;fill:#E5BF99;" d="M20.548,23.336l-5.149-2.973
			c-1.422-0.821-3.24-0.334-4.062,1.088L8.364,26.6c-0.821,1.422-0.334,3.24,1.088,4.062l5.149,2.973
			c1.422,0.821,3.24,0.334,4.062-1.088l2.973-5.149C22.457,25.975,21.97,24.156,20.548,23.336z M35,21.998h-6c-1.657,0-3,1.344-3,3
			v6c0,1.656,1.343,3,3,3h6c1.657,0,3-1.344,3-3v-6C38,23.342,36.657,21.998,35,21.998z"/>
	</g>
</g>
<g>
</g>
<g>
</g>
<g>
</g>
<g>
</g>
<g>
</g>
<g>
</g>
<g>
</g>
<g>
</g>
<g>
</g>
<g>
</g>
<g>
</g>
<g>
</g>
<g>
</g>
<g>
</g>
<g>
</g>
</svg>
