<?xml version="1.0" encoding="iso-8859-1"?>
<!-- Generator: Adobe Illustrator 16.0.0, SVG Export Plug-In . SVG Version: 6.00 Build 0)  -->
<!DOCTYPE svg PUBLIC "-//W3C//DTD SVG 1.1//EN" "http://www.w3.org/Graphics/SVG/1.1/DTD/svg11.dtd">
<svg version="1.1" id="Layer_1" xmlns="http://www.w3.org/2000/svg" xmlns:xlink="http://www.w3.org/1999/xlink" x="0px" y="0px"
	 width="32px" height="63.995px" viewBox="0 0 32 63.995" style="enable-background:new 0 0 32 63.995;" xml:space="preserve">
<g id="Glass_6_">
	<g>
		<path style="fill:#B3B3B3;" d="M32,17.999V4c0-2.209-1.791-4-4-4H4C1.791,0,0,1.791,0,4v13.999c0,8.836,7.163,15.998,16,15.998
			C24.836,33.997,32,26.835,32,17.999z M14,56.551c-1.191,0.692-2,1.968-2,3.444H8c-2.209,0-4,1.791-4,4h24c0-2.209-1.791-4-4-4h-4
			c0-1.477-0.81-2.752-2-3.444V33.997h-2h-2V56.551z"/>
	</g>
</g>
<g id="Glass_7_">
	<g>
		<path style="fill:#E6E6E6;" d="M26,0H6H4v2v2v15.999c0,0.513,0.207,0.969,0.525,1.323c1.449,4.999,6.009,8.675,11.475,8.675
			c5.466,0,10.026-3.676,11.475-8.675C27.792,20.968,28,20.512,28,19.999V4V2V0H26z"/>
	</g>
</g>
<g id="Wine">
	<g>
		<path style="fill:#ED7161;" d="M16,17.999c-5.754,0.17-4.336-1.291-10-2c-0.688-0.087-1.356-0.06-2,0.049v3.951
			c0,0.513,0.207,0.969,0.525,1.323c1.449,4.999,6.009,8.675,11.475,8.675c5.466,0,10.026-3.676,11.475-8.675
			C27.792,20.968,28,20.512,28,19.999V15.21C23.248,15.727,19.89,17.884,16,17.999z"/>
	</g>
</g>
<g>
</g>
<g>
</g>
<g>
</g>
<g>
</g>
<g>
</g>
<g>
</g>
<g>
</g>
<g>
</g>
<g>
</g>
<g>
</g>
<g>
</g>
<g>
</g>
<g>
</g>
<g>
</g>
<g>
</g>
</svg>
