<?xml version="1.0" encoding="iso-8859-1"?>
<!-- Generator: Adobe Illustrator 16.0.0, SVG Export Plug-In . SVG Version: 6.00 Build 0)  -->
<!DOCTYPE svg PUBLIC "-//W3C//DTD SVG 1.1//EN" "http://www.w3.org/Graphics/SVG/1.1/DTD/svg11.dtd">
<svg version="1.1" id="Layer_1" xmlns="http://www.w3.org/2000/svg" xmlns:xlink="http://www.w3.org/1999/xlink" x="0px" y="0px"
	 width="64.023px" height="64.034px" viewBox="0 0 64.023 64.034" style="enable-background:new 0 0 64.023 64.034;"
	 xml:space="preserve">
<g id="Bottle">
	<g>
		<path style="fill:#7C6688;" d="M59.323,8.117L55.916,4.71c-0.94-0.94-2.466-0.94-3.406,0l-9.235,9.235
			c-4.321-1.689-9.417-0.803-12.907,2.688L1.411,45.59c-1.882,1.881-1.882,4.932,0,6.813l10.22,10.22
			c1.881,1.882,4.932,1.882,6.813,0l28.956-28.956c0.235-0.235,0.441-0.488,0.618-0.756c2.925-3.441,3.603-8.116,2.051-12.133
			l9.255-9.254C60.264,10.583,60.264,9.058,59.323,8.117z"/>
	</g>
</g>
<g id="Bottle_Nose">
	<g>
		<path style="fill:#9B7CAB;" d="M61.268,9.786l-7.016-7.023c-0.969-0.97-2.539-0.97-3.508,0s-0.969,2.542,0,3.512l7.016,7.023
			c0.969,0.97,2.539,0.97,3.508,0S62.236,10.755,61.268,9.786z"/>
	</g>
</g>
<g id="Cork">
	<g>
		<path style="fill-rule:evenodd;clip-rule:evenodd;fill:#E6B85C;" d="M63.26,4.488L59.571,0.77c-1.019-1.026-2.67-1.026-3.688,0
			l-1.845,1.859l7.377,7.435l1.845-1.859C64.278,7.178,64.278,5.514,63.26,4.488z"/>
	</g>
</g>
<g id="Label_1_">
	<g>
		<polygon style="fill:#CCCCCC;" points="26.068,28.036 6.043,48.042 16.056,58.045 36.081,38.039 		"/>
	</g>
</g>
<g>
</g>
<g>
</g>
<g>
</g>
<g>
</g>
<g>
</g>
<g>
</g>
<g>
</g>
<g>
</g>
<g>
</g>
<g>
</g>
<g>
</g>
<g>
</g>
<g>
</g>
<g>
</g>
<g>
</g>
</svg>
