<?xml version="1.0" encoding="iso-8859-1"?>
<!-- Generator: Adobe Illustrator 16.0.0, SVG Export Plug-In . SVG Version: 6.00 Build 0)  -->
<!DOCTYPE svg PUBLIC "-//W3C//DTD SVG 1.1//EN" "http://www.w3.org/Graphics/SVG/1.1/DTD/svg11.dtd">
<svg version="1.1" id="Layer_1" xmlns="http://www.w3.org/2000/svg" xmlns:xlink="http://www.w3.org/1999/xlink" x="0px" y="0px"
	 width="58px" height="62.001px" viewBox="0 0 58 62.001" style="enable-background:new 0 0 58 62.001;" xml:space="preserve">
<g id="Jaw">
	<g>
		<path style="fill:#999999;" d="M50,12h-4l-6-1.999v6l4,6h4v-2c6,0,10-6,10-14L50,12z"/>
	</g>
</g>
<g id="Fixed_Jaw">
	<g>
		<path style="fill-rule:evenodd;clip-rule:evenodd;fill:#CCCCCC;" d="M48,8l8-5.999C56,2.001,54,0,50,0C40,0,36,6.001,36,12
			c0,8.001-4,12.001-4,12.001l6,6c0,0,6-6,10-6s6-2,6-2L46,12L48,8z M48,20.001c0,0-5,2-6,2s-2-1-2-2s4-6,4-6L48,20.001z"/>
	</g>
</g>
<g id="Handle_2_">
	<g>
		<path style="fill-rule:evenodd;clip-rule:evenodd;fill:#ED7161;" d="M32,24.001c0,0-26,24-28,25.999c-2,2.001-4,4-4,8.001
			c0,2,2,4,4,4c4,0,6-2,8-4s26-28,26-28L32,24.001z M6,58.001c-1.104,0-2-0.896-2-2C4,54.896,4.896,54,6,54s2,0.896,2,2.001
			C8,57.105,7.104,58.001,6,58.001z"/>
	</g>
</g>
<g>
</g>
<g>
</g>
<g>
</g>
<g>
</g>
<g>
</g>
<g>
</g>
<g>
</g>
<g>
</g>
<g>
</g>
<g>
</g>
<g>
</g>
<g>
</g>
<g>
</g>
<g>
</g>
<g>
</g>
</svg>
