<?xml version="1.0" encoding="utf-8"?>
<!-- Generator: Adobe Illustrator 18.0.0, SVG Export Plug-In . SVG Version: 6.00 Build 0)  -->
<!DOCTYPE svg PUBLIC "-//W3C//DTD SVG 1.1//EN" "http://www.w3.org/Graphics/SVG/1.1/DTD/svg11.dtd">
<svg version="1.1" xmlns="http://www.w3.org/2000/svg" xmlns:xlink="http://www.w3.org/1999/xlink" x="0px" y="0px"
	 viewBox="0 0 40 40" enable-background="new 0 0 40 40" xml:space="preserve">
<g id="Text_Editor">
	<g id="Notepad_3_">
	</g>
	<g id="Clipboard_5_">
	</g>
	<g id="Copy_7_">
	</g>
	<g id="Cut">
	</g>
	<g id="Right_Indent_3_">
	</g>
	<g id="Left_Indent_3_">
	</g>
	<g id="Number_List_2_">
	</g>
	<g id="Bullet_List_2_">
	</g>
	<g id="Align_Right_2_">
	</g>
	<g id="Align_Center_2_">
	</g>
	<g id="Align_Left_2_">
	</g>
	<g id="Quote_Sans_2_">
	</g>
	<g id="Highlight_Sans_3_">
	</g>
	<g id="Textbox_Sans_3_">
	</g>
	<g id="Text_Bigger_Sans_3_">
	</g>
	<g id="Text_Smaller_Sans_3_">
	</g>
	<g id="Text_Resize_Sans_3_">
	</g>
	<g id="Text_Height_Sans_3_">
	</g>
	<g id="Text_Width_Sans_3_">
	</g>
	<g id="Strikethrough_Sans_3_">
	</g>
	<g id="Underline_Sans_3_">
	</g>
	<g id="Bold_Sans_2_">
	</g>
	<g id="Italic_Sans_2_">
	</g>
	<g id="Font_Sans_3_">
	</g>
	<g id="Quote_Serif_2_">
	</g>
	<g id="Highlight_Serif_3_">
	</g>
	<g id="Textbox_Serif_3_">
	</g>
	<g id="Text_Bigger_Serif_3_">
	</g>
	<g id="Text_Smaller_Serif_3_">
	</g>
	<g id="Text_Resize_Serif_3_">
	</g>
	<g id="Text_Width_Serif_3_">
	</g>
	<g id="Text_Height_Serif_3_">
	</g>
	<g id="Strikethrough_Serif_3_">
	</g>
	<g id="Underline_Serif_3_">
	</g>
	<g id="Bold_Serif_2_">
		<g>
			<g id="Bold_Serif">
				<g>
					<path fill-rule="evenodd" clip-rule="evenodd" fill="#34495E" d="M28.5,21.5c-1.3-1.1-3.5-1.7-5.5-2v-0.2
						c1-0.1,1.8-0.4,2.6-0.7c0.8-0.3,1.5-0.8,2.1-1.3c0.6-0.5,1.1-1.1,1.4-1.8c0.4-0.7,0.5-1.4,0.5-2.2c0-1.7-0.7-3-2.2-3.9
						C26,8.5,23.6,8,20.2,8H9.5l0.1,1.5l1.2,0.2c0.6,0.1,0.9,0.2,1.1,0.3c0.2,0.1,0.1,0.2,0.1,0.4v19.2c0,0.2,0.1,0.4-0.1,0.5
						c-0.2,0.1-0.5,0.2-0.9,0.2l-1.3,0.2L9.5,32h10.2c3.7,0,6.5-0.6,8.2-1.7c1.7-1.1,2.6-2.7,2.6-4.7C30.5,23.9,29.8,22.6,28.5,21.5
						z M17,10h2c1.8,0,3.1,0.2,4,1.1c0.9,0.9,1.3,1.9,1.3,3.3c0,1.3-0.4,2.3-1.2,3.1c-0.8,0.9-2.2,1.3-3.7,1.3l-2.3,0V10z
						 M24.7,27.7c-0.3,0.6-0.6,1.1-1.1,1.5c-0.5,0.4-1,0.7-1.7,0.9c-0.6,0.2-1.3,0.3-2,0.3l-0.6,0L17,30.1V21h1.8
						c0.9,0,1.7-0.1,2.5,0.1c0.8,0.2,1.5,0.4,2,0.9c0.6,0.4,1,0.9,1.3,1.6c0.3,0.6,0.5,1.4,0.5,2.3C25.1,26.5,25,27.2,24.7,27.7z"/>
				</g>
			</g>
		</g>
	</g>
	<g id="Italic_Serif_2_">
	</g>
	<g id="Font_Serif_3_">
	</g>
</g>
<g id="Lockup">
</g>
</svg>
