<?xml version="1.0" encoding="utf-8"?>
<!-- Generator: Adobe Illustrator 18.0.0, SVG Export Plug-In . SVG Version: 6.00 Build 0)  -->
<!DOCTYPE svg PUBLIC "-//W3C//DTD SVG 1.1//EN" "http://www.w3.org/Graphics/SVG/1.1/DTD/svg11.dtd">
<svg version="1.1" xmlns="http://www.w3.org/2000/svg" xmlns:xlink="http://www.w3.org/1999/xlink" x="0px" y="0px"
	 viewBox="0 0 40 40" enable-background="new 0 0 40 40" xml:space="preserve">
<g id="Text_Editor">
	<g id="Notepad_3_">
	</g>
	<g id="Clipboard_5_">
		<path fill-rule="evenodd" clip-rule="evenodd" fill="#34495E" d="M29,34H10c-1.1,0-2-0.9-2-2V10c0-1.1,0.9-3,2-3h19
			c1.1,0,2,1.9,2,3v22C31,33.1,30.1,34,29,34z"/>
		<path fill-rule="evenodd" clip-rule="evenodd" fill="#ECF0F1" d="M26,31H13c-1.1,0-2-0.9-2-2V12c0-1.1,0.9-2,2-2h13
			c1.1,0,2,0.9,2,2v17C28,30.1,27.1,31,26,31z"/>
		<g id="Clipboard_9_">
			<path fill-rule="evenodd" clip-rule="evenodd" fill="#1ABC9C" d="M14,14v2h8v-2H14z"/>
		</g>
		<g id="Clipboard_1_">
			<path fill-rule="evenodd" clip-rule="evenodd" fill="#1ABC9C" d="M14,17v2h11v-2H14z"/>
		</g>
		<g id="Clipboard_2_">
			<path fill-rule="evenodd" clip-rule="evenodd" fill="#1ABC9C" d="M14,20v2h8v-2H14z"/>
		</g>
		<g id="Clipboard_3_">
			<path fill-rule="evenodd" clip-rule="evenodd" fill="#1ABC9C" d="M14,23v2h10v-2H14z"/>
		</g>
		<g id="Clipboard_4_">
			<path fill-rule="evenodd" clip-rule="evenodd" fill="#1ABC9C" d="M14,26v2h8v-2H14z"/>
		</g>
		<circle fill-rule="evenodd" clip-rule="evenodd" fill="#7F8C8D" cx="19.5" cy="5.5" r="2.5"/>
		<path fill-rule="evenodd" clip-rule="evenodd" fill="#7F8C8D" d="M26,11H13V7c0-1.1,0.9-2,2-2h9c1.1,0,2,0.9,2,2V11z"/>
	</g>
	<g id="Copy_7_">
	</g>
	<g id="Cut">
	</g>
	<g id="Right_Indent_3_">
	</g>
	<g id="Left_Indent_3_">
	</g>
	<g id="Number_List_2_">
	</g>
	<g id="Bullet_List_2_">
	</g>
	<g id="Align_Right_2_">
	</g>
	<g id="Align_Center_2_">
	</g>
	<g id="Align_Left_2_">
	</g>
	<g id="Quote_Sans_2_">
	</g>
	<g id="Highlight_Sans_3_">
	</g>
	<g id="Textbox_Sans_3_">
	</g>
	<g id="Text_Bigger_Sans_3_">
	</g>
	<g id="Text_Smaller_Sans_3_">
	</g>
	<g id="Text_Resize_Sans_3_">
	</g>
	<g id="Text_Height_Sans_3_">
	</g>
	<g id="Text_Width_Sans_3_">
	</g>
	<g id="Strikethrough_Sans_3_">
	</g>
	<g id="Underline_Sans_3_">
	</g>
	<g id="Bold_Sans_2_">
	</g>
	<g id="Italic_Sans_2_">
	</g>
	<g id="Font_Sans_3_">
	</g>
	<g id="Quote_Serif_2_">
	</g>
	<g id="Highlight_Serif_3_">
	</g>
	<g id="Textbox_Serif_3_">
	</g>
	<g id="Text_Bigger_Serif_3_">
	</g>
	<g id="Text_Smaller_Serif_3_">
	</g>
	<g id="Text_Resize_Serif_3_">
	</g>
	<g id="Text_Width_Serif_3_">
	</g>
	<g id="Text_Height_Serif_3_">
	</g>
	<g id="Strikethrough_Serif_3_">
	</g>
	<g id="Underline_Serif_3_">
	</g>
	<g id="Bold_Serif_2_">
	</g>
	<g id="Italic_Serif_2_">
	</g>
	<g id="Font_Serif_3_">
	</g>
</g>
<g id="Lockup">
</g>
</svg>
