<?xml version="1.0" encoding="utf-8"?>
<!-- Generator: Adobe Illustrator 18.0.0, SVG Export Plug-In . SVG Version: 6.00 Build 0)  -->
<!DOCTYPE svg PUBLIC "-//W3C//DTD SVG 1.1//EN" "http://www.w3.org/Graphics/SVG/1.1/DTD/svg11.dtd">
<svg version="1.1" xmlns="http://www.w3.org/2000/svg" xmlns:xlink="http://www.w3.org/1999/xlink" x="0px" y="0px"
	 viewBox="0 0 40 40" enable-background="new 0 0 40 40" xml:space="preserve">
<g id="Text_Editor">
	<g id="Notepad_3_">
	</g>
	<g id="Clipboard_5_">
	</g>
	<g id="Copy_7_">
		<path fill-rule="evenodd" clip-rule="evenodd" fill="#2C3E50" d="M33,30H18c-1.7,0-3-1.3-3-3V7c0-1.7,1.3-3,3-3h15
			c1.7,0,3,1.3,3,3v20C36,28.7,34.7,30,33,30z"/>
		<path fill-rule="evenodd" clip-rule="evenodd" fill="#1ABC9C" d="M19,10v2h10v-2H19z M19,15h13v-2H19V15z M19,21h12v-2H19V21z
			 M19,18h10v-2H19V18z M19,24h8v-2h-8V24z"/>
		<path fill-rule="evenodd" clip-rule="evenodd" fill="#ECF0F1" d="M21,35H6c-1.7,0-3-1.3-3-3V12c0-1.7,1.3-3,3-3h15
			c1.7,0,3,1.3,3,3v20C24,33.7,22.7,35,21,35z"/>
		<path fill-rule="evenodd" clip-rule="evenodd" fill="#1ABC9C" d="M7,15v2h10v-2H7z M7,20h13v-2H7V20z M7,26h12v-2H7V26z M7,23h10
			v-2H7V23z M7,29h8v-2H7V29z"/>
	</g>
	<g id="Cut">
	</g>
	<g id="Right_Indent_3_">
	</g>
	<g id="Left_Indent_3_">
	</g>
	<g id="Number_List_2_">
	</g>
	<g id="Bullet_List_2_">
	</g>
	<g id="Align_Right_2_">
	</g>
	<g id="Align_Center_2_">
	</g>
	<g id="Align_Left_2_">
	</g>
	<g id="Quote_Sans_2_">
	</g>
	<g id="Highlight_Sans_3_">
	</g>
	<g id="Textbox_Sans_3_">
	</g>
	<g id="Text_Bigger_Sans_3_">
	</g>
	<g id="Text_Smaller_Sans_3_">
	</g>
	<g id="Text_Resize_Sans_3_">
	</g>
	<g id="Text_Height_Sans_3_">
	</g>
	<g id="Text_Width_Sans_3_">
	</g>
	<g id="Strikethrough_Sans_3_">
	</g>
	<g id="Underline_Sans_3_">
	</g>
	<g id="Bold_Sans_2_">
	</g>
	<g id="Italic_Sans_2_">
	</g>
	<g id="Font_Sans_3_">
	</g>
	<g id="Quote_Serif_2_">
	</g>
	<g id="Highlight_Serif_3_">
	</g>
	<g id="Textbox_Serif_3_">
	</g>
	<g id="Text_Bigger_Serif_3_">
	</g>
	<g id="Text_Smaller_Serif_3_">
	</g>
	<g id="Text_Resize_Serif_3_">
	</g>
	<g id="Text_Width_Serif_3_">
	</g>
	<g id="Text_Height_Serif_3_">
	</g>
	<g id="Strikethrough_Serif_3_">
	</g>
	<g id="Underline_Serif_3_">
	</g>
	<g id="Bold_Serif_2_">
	</g>
	<g id="Italic_Serif_2_">
	</g>
	<g id="Font_Serif_3_">
	</g>
</g>
<g id="Lockup">
</g>
</svg>
