<?xml version="1.0" encoding="utf-8"?>
<!-- Generator: Adobe Illustrator 18.0.0, SVG Export Plug-In . SVG Version: 6.00 Build 0)  -->
<!DOCTYPE svg PUBLIC "-//W3C//DTD SVG 1.1//EN" "http://www.w3.org/Graphics/SVG/1.1/DTD/svg11.dtd">
<svg version="1.1" xmlns="http://www.w3.org/2000/svg" xmlns:xlink="http://www.w3.org/1999/xlink" x="0px" y="0px"
	 viewBox="0 0 40 40" enable-background="new 0 0 40 40" xml:space="preserve">
<g id="Text_Editor">
	<g id="Notepad_3_">
	</g>
	<g id="Clipboard_5_">
	</g>
	<g id="Copy_7_">
	</g>
	<g id="Cut">
		<path fill-rule="evenodd" clip-rule="evenodd" fill="#ECF0F1" d="M35,33H20c-1.7,0-3-1.3-3-3V10c0-1.7,1.3-3,3-3h15
			c1.7,0,3,1.3,3,3v20C38,31.7,36.7,33,35,33z"/>
		<path fill-rule="evenodd" clip-rule="evenodd" fill="#1ABC9C" d="M30,13v2h4v-2H30z M34,16h-8v2h8V16z M34,22h-8v2h8V22z M34,19
			H24v2h10V19z M34,25h-4v2h4V25z"/>
		<g id="Cut_10_">
			<g>
				<path fill-rule="evenodd" clip-rule="evenodd" fill="#34495E" d="M10.3,25.6c0-0.1-0.1-0.1-0.1-0.2l-1.8-1.1
					c-0.8-0.2-1.6-0.1-2.3,0.3l-0.6-0.8l-2.3,1.6l0.6,0.9c-0.3,0.4-0.5,0.9-0.6,1.4c-0.2,0.9,0,1.8,0.6,2.5l0.1,0.2
					c0.1,0.2,0.2,0.3,0.4,0.5c1.2,1.2,3,1.3,4.3,0.4l1-0.7c1.5-1.1,1.9-3.2,0.8-4.7L10.3,25.6z M8.4,28.9l-1,0.7
					C6.8,30,6,29.9,5.5,29.2L5.4,29c-0.2-0.3-0.3-0.7-0.2-1c0.1-0.4,0.3-0.7,0.6-0.9l1-0.7C7.3,26,8,26.1,8.5,26.6
					c0.1,0.1,0.1,0.1,0.2,0.2l0.1,0.2C9.2,27.6,9.1,28.4,8.4,28.9z M11.4,11.1L8.7,9.2C7.7,8.6,6.6,8.3,5.4,8.5
					c-1.1,0.2-2.1,0.8-2.8,1.8c-1.2,1.7-1,4,0.5,5.5c0.2,0.2,0.4,0.3,0.6,0.5l2.7,1.9c0.9,0.7,2.1,0.9,3.2,0.7
					c0.3-0.1,0.6-0.1,0.9-0.2l2-1.6C13.7,15.1,13.3,12.5,11.4,11.1z M10.8,16c-0.4,0.5-0.9,0.8-1.5,1c-0.6,0.1-1.2,0-1.7-0.4
					l-2.7-1.9c-1.1-0.7-1.3-2.2-0.6-3.2c0.4-0.5,0.9-0.8,1.5-1c0.6-0.1,1.2,0,1.7,0.4l2.7,1.9c0.1,0.1,0.2,0.2,0.3,0.3
					C11.3,13.8,11.4,15.1,10.8,16z"/>
			</g>
		</g>
		<g id="Cut_6_">
			<g>
				<path fill-rule="evenodd" clip-rule="evenodd" fill="#7F8C8D" d="M17.4,20.5l0.2-0.1L28,13.4l0,0c0,0-2.8-1.8-8.2,1.9l-4.7,3.4
					L12.5,17l-2,1.6l2.6,1.9l-4.7,3.8l1.8,1.1l5-3.4l4.7,3.4c5.3,3.6,8.2,1.7,8.2,1.7L17.4,20.5z"/>
			</g>
		</g>
		<g id="Cut_4_">
			<g>
				
					<ellipse transform="matrix(0.7071 -0.7071 0.7071 0.7071 -10.0231 16.5875)" fill-rule="evenodd" clip-rule="evenodd" fill="#201F1F" cx="15" cy="20.4" rx="1" ry="1"/>
			</g>
		</g>
	</g>
	<g id="Right_Indent_3_">
	</g>
	<g id="Left_Indent_3_">
	</g>
	<g id="Number_List_2_">
	</g>
	<g id="Bullet_List_2_">
	</g>
	<g id="Align_Right_2_">
	</g>
	<g id="Align_Center_2_">
	</g>
	<g id="Align_Left_2_">
	</g>
	<g id="Quote_Sans_2_">
	</g>
	<g id="Highlight_Sans_3_">
	</g>
	<g id="Textbox_Sans_3_">
	</g>
	<g id="Text_Bigger_Sans_3_">
	</g>
	<g id="Text_Smaller_Sans_3_">
	</g>
	<g id="Text_Resize_Sans_3_">
	</g>
	<g id="Text_Height_Sans_3_">
	</g>
	<g id="Text_Width_Sans_3_">
	</g>
	<g id="Strikethrough_Sans_3_">
	</g>
	<g id="Underline_Sans_3_">
	</g>
	<g id="Bold_Sans_2_">
	</g>
	<g id="Italic_Sans_2_">
	</g>
	<g id="Font_Sans_3_">
	</g>
	<g id="Quote_Serif_2_">
	</g>
	<g id="Highlight_Serif_3_">
	</g>
	<g id="Textbox_Serif_3_">
	</g>
	<g id="Text_Bigger_Serif_3_">
	</g>
	<g id="Text_Smaller_Serif_3_">
	</g>
	<g id="Text_Resize_Serif_3_">
	</g>
	<g id="Text_Width_Serif_3_">
	</g>
	<g id="Text_Height_Serif_3_">
	</g>
	<g id="Strikethrough_Serif_3_">
	</g>
	<g id="Underline_Serif_3_">
	</g>
	<g id="Bold_Serif_2_">
	</g>
	<g id="Italic_Serif_2_">
	</g>
	<g id="Font_Serif_3_">
	</g>
</g>
<g id="Lockup">
</g>
</svg>
