<?xml version="1.0" encoding="utf-8"?>
<!-- Generator: Adobe Illustrator 18.0.0, SVG Export Plug-In . SVG Version: 6.00 Build 0)  -->
<!DOCTYPE svg PUBLIC "-//W3C//DTD SVG 1.1//EN" "http://www.w3.org/Graphics/SVG/1.1/DTD/svg11.dtd">
<svg version="1.1" xmlns="http://www.w3.org/2000/svg" xmlns:xlink="http://www.w3.org/1999/xlink" x="0px" y="0px"
	 viewBox="0 0 40 40" enable-background="new 0 0 40 40" xml:space="preserve">
<g id="Text_Editor">
	<g id="Notepad_3_">
	</g>
	<g id="Clipboard_5_">
	</g>
	<g id="Copy_7_">
	</g>
	<g id="Cut">
	</g>
	<g id="Right_Indent_3_">
	</g>
	<g id="Left_Indent_3_">
	</g>
	<g id="Number_List_2_">
	</g>
	<g id="Bullet_List_2_">
	</g>
	<g id="Align_Right_2_">
	</g>
	<g id="Align_Center_2_">
	</g>
	<g id="Align_Left_2_">
	</g>
	<g id="Quote_Sans_2_">
	</g>
	<g id="Highlight_Sans_3_">
	</g>
	<g id="Textbox_Sans_3_">
	</g>
	<g id="Text_Bigger_Sans_3_">
	</g>
	<g id="Text_Smaller_Sans_3_">
	</g>
	<g id="Text_Resize_Sans_3_">
	</g>
	<g id="Text_Height_Sans_3_">
	</g>
	<g id="Text_Width_Sans_3_">
	</g>
	<g id="Strikethrough_Sans_3_">
	</g>
	<g id="Underline_Sans_3_">
	</g>
	<g id="Bold_Sans_2_">
	</g>
	<g id="Italic_Sans_2_">
	</g>
	<g id="Font_Sans_3_">
	</g>
	<g id="Quote_Serif_2_">
	</g>
	<g id="Highlight_Serif_3_">
	</g>
	<g id="Textbox_Serif_3_">
	</g>
	<g id="Text_Bigger_Serif_3_">
	</g>
	<g id="Text_Smaller_Serif_3_">
	</g>
	<g id="Text_Resize_Serif_3_">
	</g>
	<g id="Text_Width_Serif_3_">
	</g>
	<g id="Text_Height_Serif_3_">
	</g>
	<g id="Strikethrough_Serif_3_">
	</g>
	<g id="Underline_Serif_3_">
	</g>
	<g id="Bold_Serif_2_">
	</g>
	<g id="Italic_Serif_2_">
	</g>
	<g id="Font_Serif_3_">
		<g id="Font_Serif">
			<g>
				<path fill-rule="evenodd" clip-rule="evenodd" fill="#34495E" d="M21.2,29.8l-1.7,0.3l-0.1,1.2l9.7-0.1L28.9,30L27,29.6
					c-0.3,0-0.6-0.1-0.8-0.3c-0.2-0.1-0.3-0.3-0.4-0.5l-7-20.2L15.6,10l0,1.3l-4,11.5c-0.5,1.5-1,2.8-1.3,3.7
					c-0.4,0.9-0.7,1.6-1,2.1c-0.3,0.5-0.6,0.8-0.8,1c-0.3,0.2-0.6,0.3-1,0.4l-1,0.3l-0.1,1.2l7.4-0.1l-0.1-1.2l-1.4-0.3
					c-0.3,0-0.5-0.1-0.6-0.3c-0.1-0.1-0.2-0.3-0.2-0.6c0-0.3,0.1-0.7,0.2-1.1c0.1-0.5,0.3-1,0.5-1.7l0.8-2.7l7.3-0.1l0.9,2.7
					c0.2,0.7,0.4,1.3,0.6,1.8c0.1,0.4,0.2,0.8,0.2,1.1c0,0.3-0.1,0.5-0.2,0.6C21.7,29.6,21.5,29.7,21.2,29.8z M13.6,22l3.1-9.5
					l0.2,0l3.1,9.5L13.6,22z"/>
			</g>
		</g>
		<g id="Font_Serif_1_">
			<g>
				<path fill-rule="evenodd" clip-rule="evenodd" fill="#1ABC9C" d="M30.1,17.8l-0.8,0.1l0,0.5l4.2-0.1l-0.1-0.5l-0.8-0.2
					c-0.1,0-0.3-0.1-0.3-0.1c-0.1-0.1-0.1-0.1-0.2-0.2L29,8.5l-1.4,0.7l0,0.6l-1.7,5c-0.2,0.7-0.4,1.2-0.6,1.6
					c-0.2,0.4-0.3,0.7-0.4,0.9c-0.1,0.2-0.2,0.4-0.4,0.4c-0.1,0.1-0.3,0.1-0.4,0.2L23.7,18l0,0.5l3.3,0L26.8,18l-0.6-0.1
					c-0.1,0-0.2-0.1-0.3-0.1c-0.1-0.1-0.1-0.2-0.1-0.3c0-0.1,0-0.3,0.1-0.5c0.1-0.2,0.1-0.4,0.2-0.7l0.4-1.2l3.2,0l0.4,1.2
					c0.1,0.3,0.2,0.6,0.3,0.8c0.1,0.2,0.1,0.4,0.1,0.5c0,0.1,0,0.2-0.1,0.2C30.3,17.7,30.2,17.8,30.1,17.8z M26.7,14.4l1.3-4.2
					l0.1,0l1.4,4.1L26.7,14.4z"/>
			</g>
		</g>
	</g>
</g>
<g id="Lockup">
</g>
</svg>
