<?xml version="1.0" encoding="utf-8"?>
<!-- Generator: Adobe Illustrator 18.0.0, SVG Export Plug-In . SVG Version: 6.00 Build 0)  -->
<!DOCTYPE svg PUBLIC "-//W3C//DTD SVG 1.1//EN" "http://www.w3.org/Graphics/SVG/1.1/DTD/svg11.dtd">
<svg version="1.1" xmlns="http://www.w3.org/2000/svg" xmlns:xlink="http://www.w3.org/1999/xlink" x="0px" y="0px"
	 viewBox="0 0 40 40" enable-background="new 0 0 40 40" xml:space="preserve">
<g id="Text_Editor">
	<g id="Notepad_3_">
	</g>
	<g id="Clipboard_5_">
	</g>
	<g id="Copy_7_">
	</g>
	<g id="Cut">
	</g>
	<g id="Right_Indent_3_">
	</g>
	<g id="Left_Indent_3_">
	</g>
	<g id="Number_List_2_">
	</g>
	<g id="Bullet_List_2_">
	</g>
	<g id="Align_Right_2_">
	</g>
	<g id="Align_Center_2_">
	</g>
	<g id="Align_Left_2_">
	</g>
	<g id="Quote_Sans_2_">
	</g>
	<g id="Highlight_Sans_3_">
	</g>
	<g id="Textbox_Sans_3_">
	</g>
	<g id="Text_Bigger_Sans_3_">
	</g>
	<g id="Text_Smaller_Sans_3_">
	</g>
	<g id="Text_Resize_Sans_3_">
	</g>
	<g id="Text_Height_Sans_3_">
	</g>
	<g id="Text_Width_Sans_3_">
	</g>
	<g id="Strikethrough_Sans_3_">
	</g>
	<g id="Underline_Sans_3_">
	</g>
	<g id="Bold_Sans_2_">
	</g>
	<g id="Italic_Sans_2_">
	</g>
	<g id="Font_Sans_3_">
	</g>
	<g id="Quote_Serif_2_">
	</g>
	<g id="Highlight_Serif_3_">
		<g id="Highlight_Serif">
			<rect x="5" y="13" fill-rule="evenodd" clip-rule="evenodd" fill="#1ABC9C" width="19" height="15"/>
		</g>
		<path fill-rule="evenodd" clip-rule="evenodd" fill="#34495E" d="M15,16h2v4h-5v-4h2v-1H8v1h2v9H8v1h6v-1h-2v-4h5v4h-2v1h6v-1h-2
			v-9h2v-1h-6V16z"/>
		<path fill-rule="evenodd" clip-rule="evenodd" fill="#34495E" d="M34,28.8c-1.1,0-2-0.8-2-1.8h2v-2h-2V13.5c0-1.1,0.9-2,2-2
			c0.6,0,1-0.4,1-1c0-0.6-0.4-1-1-1c-1.2,0-2.3,0.5-3,1.4c-0.7-0.8-1.8-1.4-3-1.4c-0.6,0-1,0.4-1,1c0,0.6,0.4,1,1,1c1.1,0,2,0.9,2,2
			V25h-2v2h2c0,1-0.9,1.8-2,1.8c-0.6,0-1,0.3-1,0.9c0,0.6,0.4,0.9,1,0.9c1.2,0,2.3-0.6,3-1.4c0.7,0.8,1.8,1.4,3,1.4
			c0.6,0,1-0.3,1-0.9C35,29.1,34.6,28.8,34,28.8z"/>
	</g>
	<g id="Textbox_Serif_3_">
	</g>
	<g id="Text_Bigger_Serif_3_">
	</g>
	<g id="Text_Smaller_Serif_3_">
	</g>
	<g id="Text_Resize_Serif_3_">
	</g>
	<g id="Text_Width_Serif_3_">
	</g>
	<g id="Text_Height_Serif_3_">
	</g>
	<g id="Strikethrough_Serif_3_">
	</g>
	<g id="Underline_Serif_3_">
	</g>
	<g id="Bold_Serif_2_">
	</g>
	<g id="Italic_Serif_2_">
	</g>
	<g id="Font_Serif_3_">
	</g>
</g>
<g id="Lockup">
</g>
</svg>
