<?xml version="1.0" encoding="utf-8"?>
<!-- Generator: Adobe Illustrator 18.0.0, SVG Export Plug-In . SVG Version: 6.00 Build 0)  -->
<!DOCTYPE svg PUBLIC "-//W3C//DTD SVG 1.1//EN" "http://www.w3.org/Graphics/SVG/1.1/DTD/svg11.dtd">
<svg version="1.1" xmlns="http://www.w3.org/2000/svg" xmlns:xlink="http://www.w3.org/1999/xlink" x="0px" y="0px"
	 viewBox="0 0 40 40" enable-background="new 0 0 40 40" xml:space="preserve">
<g id="Text_Editor">
	<g id="Notepad_3_">
	</g>
	<g id="Clipboard_5_">
	</g>
	<g id="Copy_7_">
	</g>
	<g id="Cut">
	</g>
	<g id="Right_Indent_3_">
	</g>
	<g id="Left_Indent_3_">
	</g>
	<g id="Number_List_2_">
		<path fill-rule="evenodd" clip-rule="evenodd" fill="#1ABC9C" d="M14,10v3h19v-3H14z M14,19h19v-3H14V19z M14,25h19v-3H14V25z
			 M14,31h19v-3H14V31z"/>
		<g>
			<rect x="8" y="9" fill-rule="evenodd" clip-rule="evenodd" fill="#1ABC9C" width="1" height="5"/>
			<rect x="7" y="10" fill-rule="evenodd" clip-rule="evenodd" fill="#1ABC9C" width="5" height="1"/>
			<rect x="7" y="12" fill-rule="evenodd" clip-rule="evenodd" fill="#1ABC9C" width="5" height="1"/>
			<rect x="10" y="9" fill-rule="evenodd" clip-rule="evenodd" fill="#1ABC9C" width="1" height="5"/>
		</g>
		<g>
			<rect x="8" y="15" fill-rule="evenodd" clip-rule="evenodd" fill="#1ABC9C" width="1" height="5"/>
			<rect x="7" y="16" fill-rule="evenodd" clip-rule="evenodd" fill="#1ABC9C" width="5" height="1"/>
			<rect x="7" y="18" fill-rule="evenodd" clip-rule="evenodd" fill="#1ABC9C" width="5" height="1"/>
			<rect x="10" y="15" fill-rule="evenodd" clip-rule="evenodd" fill="#1ABC9C" width="1" height="5"/>
		</g>
		<g>
			<rect x="8" y="21" fill-rule="evenodd" clip-rule="evenodd" fill="#1ABC9C" width="1" height="5"/>
			<rect x="7" y="22" fill-rule="evenodd" clip-rule="evenodd" fill="#1ABC9C" width="5" height="1"/>
			<rect x="7" y="24" fill-rule="evenodd" clip-rule="evenodd" fill="#1ABC9C" width="5" height="1"/>
			<rect x="10" y="21" fill-rule="evenodd" clip-rule="evenodd" fill="#1ABC9C" width="1" height="5"/>
		</g>
		<g>
			<rect x="8" y="27" fill-rule="evenodd" clip-rule="evenodd" fill="#1ABC9C" width="1" height="5"/>
			<rect x="7" y="28" fill-rule="evenodd" clip-rule="evenodd" fill="#1ABC9C" width="5" height="1"/>
			<rect x="7" y="30" fill-rule="evenodd" clip-rule="evenodd" fill="#1ABC9C" width="5" height="1"/>
			<rect x="10" y="27" fill-rule="evenodd" clip-rule="evenodd" fill="#1ABC9C" width="1" height="5"/>
		</g>
	</g>
	<g id="Bullet_List_2_">
	</g>
	<g id="Align_Right_2_">
	</g>
	<g id="Align_Center_2_">
	</g>
	<g id="Align_Left_2_">
	</g>
	<g id="Quote_Sans_2_">
	</g>
	<g id="Highlight_Sans_3_">
	</g>
	<g id="Textbox_Sans_3_">
	</g>
	<g id="Text_Bigger_Sans_3_">
	</g>
	<g id="Text_Smaller_Sans_3_">
	</g>
	<g id="Text_Resize_Sans_3_">
	</g>
	<g id="Text_Height_Sans_3_">
	</g>
	<g id="Text_Width_Sans_3_">
	</g>
	<g id="Strikethrough_Sans_3_">
	</g>
	<g id="Underline_Sans_3_">
	</g>
	<g id="Bold_Sans_2_">
	</g>
	<g id="Italic_Sans_2_">
	</g>
	<g id="Font_Sans_3_">
	</g>
	<g id="Quote_Serif_2_">
	</g>
	<g id="Highlight_Serif_3_">
	</g>
	<g id="Textbox_Serif_3_">
	</g>
	<g id="Text_Bigger_Serif_3_">
	</g>
	<g id="Text_Smaller_Serif_3_">
	</g>
	<g id="Text_Resize_Serif_3_">
	</g>
	<g id="Text_Width_Serif_3_">
	</g>
	<g id="Text_Height_Serif_3_">
	</g>
	<g id="Strikethrough_Serif_3_">
	</g>
	<g id="Underline_Serif_3_">
	</g>
	<g id="Bold_Serif_2_">
	</g>
	<g id="Italic_Serif_2_">
	</g>
	<g id="Font_Serif_3_">
	</g>
</g>
<g id="Lockup">
</g>
</svg>
