<?xml version="1.0" encoding="utf-8"?>
<!-- Generator: Adobe Illustrator 18.0.0, SVG Export Plug-In . SVG Version: 6.00 Build 0)  -->
<!DOCTYPE svg PUBLIC "-//W3C//DTD SVG 1.1//EN" "http://www.w3.org/Graphics/SVG/1.1/DTD/svg11.dtd">
<svg version="1.1" xmlns="http://www.w3.org/2000/svg" xmlns:xlink="http://www.w3.org/1999/xlink" x="0px" y="0px"
	 viewBox="0 0 40 40" enable-background="new 0 0 40 40" xml:space="preserve">
<g id="Text_Editor">
	<g id="Notepad_3_">
	</g>
	<g id="Clipboard_5_">
	</g>
	<g id="Copy_7_">
	</g>
	<g id="Cut">
	</g>
	<g id="Right_Indent_3_">
	</g>
	<g id="Left_Indent_3_">
	</g>
	<g id="Number_List_2_">
	</g>
	<g id="Bullet_List_2_">
	</g>
	<g id="Align_Right_2_">
	</g>
	<g id="Align_Center_2_">
	</g>
	<g id="Align_Left_2_">
	</g>
	<g id="Quote_Sans_2_">
	</g>
	<g id="Highlight_Sans_3_">
	</g>
	<g id="Textbox_Sans_3_">
	</g>
	<g id="Text_Bigger_Sans_3_">
	</g>
	<g id="Text_Smaller_Sans_3_">
	</g>
	<g id="Text_Resize_Sans_3_">
	</g>
	<g id="Text_Height_Sans_3_">
	</g>
	<g id="Text_Width_Sans_3_">
	</g>
	<g id="Strikethrough_Sans_3_">
	</g>
	<g id="Underline_Sans_3_">
	</g>
	<g id="Bold_Sans_2_">
	</g>
	<g id="Italic_Sans_2_">
	</g>
	<g id="Font_Sans_3_">
	</g>
	<g id="Quote_Serif_2_">
	</g>
	<g id="Highlight_Serif_3_">
	</g>
	<g id="Textbox_Serif_3_">
	</g>
	<g id="Text_Bigger_Serif_3_">
	</g>
	<g id="Text_Smaller_Serif_3_">
	</g>
	<g id="Text_Resize_Serif_3_">
		<g id="Text_Resize_Serif">
			<g>
				<path fill-rule="evenodd" clip-rule="evenodd" fill="#1ABC9C" d="M7,11h4V7H7V11z M29,7v4h4V7H29z M7,33h4v-4H7V33z M29,33h4v-4
					h-4V33z"/>
			</g>
		</g>
		<g id="Text_Resize_Serif_1_">
			<g>
				<path fill-rule="evenodd" clip-rule="evenodd" fill="#16A085" d="M19,32h2v-2h-2V32z M14,10h2V8h-2V10z M14,32h2v-2h-2V32z
					 M8,21h2v-2H8V21z M8,26h2v-2H8V26z M8,16h2v-2H8V16z M30,21h2v-2h-2V21z M19,10h2V8h-2V10z M30,26h2v-2h-2V26z M30,14v2h2v-2
					H30z M24,32h2v-2h-2V32z M24,10h2V8h-2V10z"/>
			</g>
		</g>
		<g>
			<rect x="19" y="13" fill-rule="evenodd" clip-rule="evenodd" fill="#34495E" width="2" height="14"/>
			<polygon fill-rule="evenodd" clip-rule="evenodd" fill="#34495E" points="24,27 16,27 16,26 19,25 21,25 24,26 			"/>
			<rect x="14" y="13" fill-rule="evenodd" clip-rule="evenodd" fill="#34495E" width="12" height="2"/>
			<polygon fill-rule="evenodd" clip-rule="evenodd" fill="#34495E" points="15,17 14,17 14,13 16,13 			"/>
			<polygon fill-rule="evenodd" clip-rule="evenodd" fill="#34495E" points="25,17 26,17 26,13 24,13 			"/>
		</g>
	</g>
	<g id="Text_Width_Serif_3_">
	</g>
	<g id="Text_Height_Serif_3_">
	</g>
	<g id="Strikethrough_Serif_3_">
	</g>
	<g id="Underline_Serif_3_">
	</g>
	<g id="Bold_Serif_2_">
	</g>
	<g id="Italic_Serif_2_">
	</g>
	<g id="Font_Serif_3_">
	</g>
</g>
<g id="Lockup">
</g>
</svg>
