<?xml version="1.0" encoding="utf-8"?>
<!-- Generator: Adobe Illustrator 18.0.0, SVG Export Plug-In . SVG Version: 6.00 Build 0)  -->
<!DOCTYPE svg PUBLIC "-//W3C//DTD SVG 1.1//EN" "http://www.w3.org/Graphics/SVG/1.1/DTD/svg11.dtd">
<svg version="1.1" xmlns="http://www.w3.org/2000/svg" xmlns:xlink="http://www.w3.org/1999/xlink" x="0px" y="0px"
	 viewBox="0 0 40 40" enable-background="new 0 0 40 40" xml:space="preserve">
<g id="Text_Editor">
	<g id="Notepad_3_">
	</g>
	<g id="Clipboard_5_">
	</g>
	<g id="Copy_7_">
	</g>
	<g id="Cut">
	</g>
	<g id="Right_Indent_3_">
	</g>
	<g id="Left_Indent_3_">
	</g>
	<g id="Number_List_2_">
	</g>
	<g id="Bullet_List_2_">
	</g>
	<g id="Align_Right_2_">
	</g>
	<g id="Align_Center_2_">
	</g>
	<g id="Align_Left_2_">
	</g>
	<g id="Quote_Sans_2_">
	</g>
	<g id="Highlight_Sans_3_">
	</g>
	<g id="Textbox_Sans_3_">
	</g>
	<g id="Text_Bigger_Sans_3_">
	</g>
	<g id="Text_Smaller_Sans_3_">
	</g>
	<g id="Text_Resize_Sans_3_">
	</g>
	<g id="Text_Height_Sans_3_">
	</g>
	<g id="Text_Width_Sans_3_">
	</g>
	<g id="Strikethrough_Sans_3_">
	</g>
	<g id="Underline_Sans_3_">
	</g>
	<g id="Bold_Sans_2_">
	</g>
	<g id="Italic_Sans_2_">
	</g>
	<g id="Font_Sans_3_">
	</g>
	<g id="Quote_Serif_2_">
	</g>
	<g id="Highlight_Serif_3_">
	</g>
	<g id="Textbox_Serif_3_">
	</g>
	<g id="Text_Bigger_Serif_3_">
		<g id="Text_Bigger_Serif">
			<polygon fill-rule="evenodd" clip-rule="evenodd" fill="#1ABC9C" points="29,21 29,18 27,18 27,21 24,21 24,23 27,23 27,26 
				29,26 29,23 32,23 32,21 			"/>
		</g>
		<g>
			<rect x="15" y="9" fill-rule="evenodd" clip-rule="evenodd" fill="#34495E" width="3" height="22"/>
			<polygon fill-rule="evenodd" clip-rule="evenodd" fill="#34495E" points="22,31 11,31 11,30 15,29 18,29 22,30 			"/>
			<rect x="7" y="9" fill-rule="evenodd" clip-rule="evenodd" fill="#34495E" width="19" height="2"/>
			<polygon fill-rule="evenodd" clip-rule="evenodd" fill="#34495E" points="9,16 7,16 7,9 10,9 			"/>
			<polygon fill-rule="evenodd" clip-rule="evenodd" fill="#34495E" points="24,16 26,16 26,9 23,9 			"/>
		</g>
	</g>
	<g id="Text_Smaller_Serif_3_">
	</g>
	<g id="Text_Resize_Serif_3_">
	</g>
	<g id="Text_Width_Serif_3_">
	</g>
	<g id="Text_Height_Serif_3_">
	</g>
	<g id="Strikethrough_Serif_3_">
	</g>
	<g id="Underline_Serif_3_">
	</g>
	<g id="Bold_Serif_2_">
	</g>
	<g id="Italic_Serif_2_">
	</g>
	<g id="Font_Serif_3_">
	</g>
</g>
<g id="Lockup">
</g>
</svg>
