<?xml version="1.0" encoding="iso-8859-1"?>
<!-- Generator: Adobe Illustrator 16.0.0, SVG Export Plug-In . SVG Version: 6.00 Build 0)  -->
<!DOCTYPE svg PUBLIC "-//W3C//DTD SVG 1.1//EN" "http://www.w3.org/Graphics/SVG/1.1/DTD/svg11.dtd">
<svg version="1.1" id="Layer_1" xmlns="http://www.w3.org/2000/svg" xmlns:xlink="http://www.w3.org/1999/xlink" x="0px" y="0px"
	 width="64px" height="64px" viewBox="0 0 64 64" style="enable-background:new 0 0 64 64;" xml:space="preserve">
<g id="Body_4_">
	<g>
		<path style="fill:#CCCCCC;" d="M60,0H4C1.791,0,0,1.79,0,4v56c0,2.209,1.791,4,4,4h56c2.209,0,4-1.791,4-4V4
			C64,1.79,62.209,0,60,0z"/>
	</g>
</g>
<g id="Body_5_">
	<g>
		<path style="fill:#FFFFFF;" d="M58,14H6c-1.104,0-2,0.896-2,2v32c0,1.104,0.896,2,2,2h52c1.104,0,2-0.896,2-2V16
			C60,14.896,59.104,14,58,14z"/>
	</g>
</g>
<g id="_x39_">
	<g>
		<path style="fill-rule:evenodd;clip-rule:evenodd;fill:#4D4D4D;" d="M55.969,29.99c0-3.321-2.678-6.021-5.969-6.021
			c-3.292,0-5.97,2.699-5.97,6.021c0,3.319,2.678,6.021,5.97,6.021c0.294,0,0.581-0.028,0.864-0.07
			c-0.565,0.982-1.324,1.708-2.237,2.629c-0.004,0.004-0.006,0.012-0.01,0.016c-0.373,0.365-0.607,0.874-0.607,1.439
			c0,1.108,0.891,2.007,1.99,2.007c0.435,0,0.834-0.145,1.162-0.384c0.076-0.052,0.148-0.105,0.21-0.168
			C53.563,39.271,55.969,36.635,55.969,29.99z M50,31.997c-1.098,0-1.99-0.9-1.99-2.008c0-1.105,0.893-2.006,1.99-2.006
			c1.097,0,1.989,0.9,1.989,2.006C51.989,31.097,51.097,31.997,50,31.997z"/>
	</g>
</g>
<g id=":">
	<g>
		<path style="fill-rule:evenodd;clip-rule:evenodd;fill:#999999;" d="M38,30c1.104,0,2-0.896,2-2s-0.896-2-2-2s-2,0.896-2,2
			S36.896,30,38,30z M38,34c-1.104,0-2,0.896-2,2s0.896,2,2,2s2-0.896,2-2S39.104,34,38,34z"/>
	</g>
</g>
<g id="_x36_">
	<g>
		<path style="fill-rule:evenodd;clip-rule:evenodd;fill:#4D4D4D;" d="M26,29.989c-0.297,0-0.587,0.028-0.873,0.07
			c0.571-0.982,1.338-1.708,2.261-2.629c0.004-0.004,0.006-0.011,0.01-0.016c0.376-0.364,0.613-0.874,0.613-1.439
			c0-1.107-0.9-2.006-2.011-2.006c-0.427,0-0.821,0.135-1.146,0.361c-0.088,0.057-0.169,0.119-0.24,0.189
			c-2.213,2.208-4.645,4.846-4.645,11.49c0,3.32,2.705,6.021,6.031,6.021s6.031-2.7,6.031-6.021S29.326,29.989,26,29.989z
			 M26,38.018c-1.108,0-2.011-0.9-2.011-2.007c0-1.107,0.902-2.008,2.011-2.008s2.011,0.9,2.011,2.008
			C28.011,37.117,27.108,38.018,26,38.018z"/>
	</g>
</g>
<g id="_x31_">
	<g>
		<path style="fill-rule:evenodd;clip-rule:evenodd;fill:#4D4D4D;" d="M14,37.999v-12c0-1.104-0.896-2-2-2
			c-0.003,0-0.006,0.001-0.01,0.001H10c-1.104,0-2,0.896-2,1.999C8,27.104,8.896,28,10,28v9.999c-1.104,0-2,0.896-2,2
			C8,41.104,8.896,42,10,42h4c1.104,0,2-0.896,2-2.001C16,38.896,15.104,37.999,14,37.999z"/>
	</g>
</g>
<g>
</g>
<g>
</g>
<g>
</g>
<g>
</g>
<g>
</g>
<g>
</g>
<g>
</g>
<g>
</g>
<g>
</g>
<g>
</g>
<g>
</g>
<g>
</g>
<g>
</g>
<g>
</g>
<g>
</g>
</svg>
