<?xml version="1.0" encoding="iso-8859-1"?>
<!-- Generator: Adobe Illustrator 16.0.0, SVG Export Plug-In . SVG Version: 6.00 Build 0)  -->
<!DOCTYPE svg PUBLIC "-//W3C//DTD SVG 1.1//EN" "http://www.w3.org/Graphics/SVG/1.1/DTD/svg11.dtd">
<svg version="1.1" id="Layer_1" xmlns="http://www.w3.org/2000/svg" xmlns:xlink="http://www.w3.org/1999/xlink" x="0px" y="0px"
	 width="64px" height="48px" viewBox="0 0 64 48" style="enable-background:new 0 0 64 48;" xml:space="preserve">
<g id="Label_5_">
	<g>
		<path style="fill:#FFFFFF;" d="M60,0H4C1.791,0,0,1.79,0,3.999v40C0,46.208,1.791,48,4,48h56c2.209,0,4-1.792,4-4.001v-40
			C64,1.79,62.209,0,60,0z"/>
	</g>
</g>
<g id="Label_6_">
	<g>
		<path style="fill-rule:evenodd;clip-rule:evenodd;fill:#48A0DC;" d="M60,0H4C1.791,0,0,1.79,0,3.999v40C0,46.208,1.791,48,4,48h56
			c2.209,0,4-1.792,4-4.001v-40C64,1.79,62.209,0,60,0z M60,42c0,1.104-0.896,2-2,2H6c-1.104,0-2-0.896-2-2V6.001
			C4,4.896,4.896,4,6,4h52c1.104,0,2,0.896,2,2.001V42z"/>
	</g>
</g>
<g id="D">
	<g>
		<path style="fill-rule:evenodd;clip-rule:evenodd;fill:#ED7161;" d="M39.5,11.999L34,12.001c-1.104,0-2,0.893-2,1.994
			c0,0.001,0,0.002,0,0.003s0,0.002,0,0.003v20c0,1.104,0.896,2,2,2h2h4c3.677,0,5.258-0.887,7.591-2.793
			C50.359,30.942,52,27.498,52,23.97C52,16.89,47.183,11.999,39.5,11.999z M44.998,30.499C43.2,31.964,40,31.948,40,31.948h-4
			V15.976l4,0.015c0,0,3.112-0.222,4.998,1.317C46.966,18.888,48,21.339,48,23.866C48,26.397,46.966,28.925,44.998,30.499z"/>
	</g>
</g>
<g id="_x33_">
	<g>
		<path style="fill-rule:evenodd;clip-rule:evenodd;fill:#ED7161;" d="M28,13.999c0-0.011-0.003-0.021-0.003-0.031
			c0.009-0.503-0.176-1.008-0.56-1.392c-0.285-0.285-0.639-0.46-1.008-0.528c-0.139-0.03-0.282-0.049-0.43-0.049H14
			c-1.104,0-2,0.896-2,2s0.896,2,2,2h7.3l-4.724,4.724c-0.75,0.75-0.75,1.966,0,2.716c0.393,0.392,0.912,0.573,1.426,0.556
			L18,23.999h2c2.209,0,4,1.791,4,4s-1.791,4-4,4s-4-1.791-4-4c0-1.104-0.896-2-2-2s-2,0.896-2,2c0,4.418,3.582,8,8,8s8-3.582,8-8
			c0-3.592-2.367-6.631-5.627-7.642l4.645-4.646C27.604,15.363,28,14.73,28,13.999z"/>
	</g>
</g>
<g>
</g>
<g>
</g>
<g>
</g>
<g>
</g>
<g>
</g>
<g>
</g>
<g>
</g>
<g>
</g>
<g>
</g>
<g>
</g>
<g>
</g>
<g>
</g>
<g>
</g>
<g>
</g>
<g>
</g>
</svg>
