<?xml version="1.0" encoding="iso-8859-1"?>
<!-- Generator: Adobe Illustrator 16.0.0, SVG Export Plug-In . SVG Version: 6.00 Build 0)  -->
<!DOCTYPE svg PUBLIC "-//W3C//DTD SVG 1.1//EN" "http://www.w3.org/Graphics/SVG/1.1/DTD/svg11.dtd">
<svg version="1.1" id="Layer_1" xmlns="http://www.w3.org/2000/svg" xmlns:xlink="http://www.w3.org/1999/xlink" x="0px" y="0px"
	 width="64px" height="64px" viewBox="0 0 64 64" style="enable-background:new 0 0 64 64;" xml:space="preserve">
<g id="Body_6_">
	<g>
		<path style="fill:#CCCCCC;" d="M60,0H4C1.791,0,0,1.79,0,4v56c0,2.209,1.791,4,4,4h56c2.209,0,4-1.791,4-4V4
			C64,1.79,62.209,0,60,0z"/>
	</g>
</g>
<g id="Body_7_">
	<g>
		<path style="fill:#FFFFFF;" d="M58,10H6c-1.105,0-2,0.896-2,2v40c0,1.104,0.895,2,2,2h52c1.104,0,2-0.896,2-2V12
			C60,10.896,59.104,10,58,10z"/>
	</g>
</g>
<g id="_x33__1_">
	<g>
		<path style="fill-rule:evenodd;clip-rule:evenodd;fill:#4D4D4D;" d="M49.106,30.873l2.307-3.46C51.775,27.052,52,26.552,52,25.999
			c0-1.104-0.896-2-2-2h-8c-1.104,0-2,0.896-2,2s0.896,2,2,2h4.31l-1.724,2.586h0C44.224,30.947,44,31.447,44,31.999
			c0,1.104,0.896,2,2,2s2,0.896,2,2c0,1.105-0.896,2-2,2s-2-0.895-2-2c0-1.104-0.896-2-2-2s-2,0.896-2,2c0,3.314,2.686,6,6,6
			c3.313,0,6-2.686,6-6C52,33.824,50.838,31.926,49.106,30.873z"/>
	</g>
</g>
<g id=":_1_">
	<g>
		<path style="fill-rule:evenodd;clip-rule:evenodd;fill:#999999;" d="M32,30c1.104,0,2-0.896,2-2s-0.896-2-2-2
			c-1.105,0-2,0.896-2,2S30.895,30,32,30z M32,34c-1.105,0-2,0.896-2,2s0.895,2,2,2c1.104,0,2-0.896,2-2S33.104,34,32,34z"/>
	</g>
</g>
<g id="_x34__2_">
	<g>
		<path style="fill-rule:evenodd;clip-rule:evenodd;fill:#4D4D4D;" d="M24,36c0-1.104-0.896-2.001-2-2.001V26
			c0-1.01-0.75-1.835-1.723-1.971c-0.694-0.126-1.43,0.116-1.916,0.718l-7.878,9.759c-0.313,0.389-0.461,0.86-0.468,1.331
			C10.012,35.892,10,35.944,10,36c0,1.104,0.896,2,2,2h6v2c0,1.104,0.895,2,2,2c1.104,0,2-0.896,2-2v-2C23.104,38,24,37.104,24,36z
			 M16.228,33.999L18,31.803v2.196H16.228z"/>
	</g>
</g>
<g>
</g>
<g>
</g>
<g>
</g>
<g>
</g>
<g>
</g>
<g>
</g>
<g>
</g>
<g>
</g>
<g>
</g>
<g>
</g>
<g>
</g>
<g>
</g>
<g>
</g>
<g>
</g>
<g>
</g>
</svg>
