<?xml version="1.0" encoding="iso-8859-1"?>
<!-- Generator: Adobe Illustrator 16.0.0, SVG Export Plug-In . SVG Version: 6.00 Build 0)  -->
<!DOCTYPE svg PUBLIC "-//W3C//DTD SVG 1.1//EN" "http://www.w3.org/Graphics/SVG/1.1/DTD/svg11.dtd">
<svg version="1.1" id="Layer_1" xmlns="http://www.w3.org/2000/svg" xmlns:xlink="http://www.w3.org/1999/xlink" x="0px" y="0px"
	 width="64px" height="48px" viewBox="0 0 64 48" style="enable-background:new 0 0 64 48;" xml:space="preserve">
<g id="Label_13_">
	<g>
		<path style="fill:#4D4D4D;" d="M60,0H4C1.79,0,0,1.79,0,3.999v40C0,46.208,1.79,48,4,48h56c2.209,0,4-1.792,4-4.001v-40
			C64,1.79,62.209,0,60,0z"/>
	</g>
</g>
<g id="_x30_">
	<g>
		<path style="fill:#FFFFFF;" d="M54.518,18.456c-0.999-1.632-2.505-2.448-4.518-2.448s-3.519,0.816-4.518,2.448
			c-1,1.634-1.499,3.813-1.499,6.539s0.499,4.907,1.499,6.539c0.999,1.633,2.505,2.449,4.518,2.449s3.519-0.816,4.518-2.449
			c1-1.632,1.499-3.813,1.499-6.539S55.518,20.09,54.518,18.456z M51.521,28.616C51.196,29.532,50.688,29.99,50,29.99
			c-0.689,0-1.196-0.458-1.521-1.374c-0.325-0.916-0.487-2.126-0.487-3.63c0-1.503,0.162-2.713,0.487-3.629
			c0.324-0.916,0.831-1.374,1.521-1.374c0.688,0,1.196,0.458,1.521,1.374c0.325,0.916,0.487,2.126,0.487,3.629
			C52.008,26.49,51.846,27.7,51.521,28.616z"/>
	</g>
</g>
<g id="_x38_">
	<g>
		<path style="fill-rule:evenodd;clip-rule:evenodd;fill:#FFFFFF;" d="M37.174,23.701c0.503-0.781,0.803-1.707,0.803-2.706
			c0-2.759-2.229-4.994-4.978-4.994s-4.979,2.235-4.979,4.994c0,0.999,0.3,1.926,0.804,2.706C27.113,25.209,26,27.458,26,29.4
			c0,3.267,3.134,4.6,7,4.6s7-1.333,7-4.6C40,27.457,38.886,25.209,37.174,23.701z M33,19.999c0.55,0,0.996,0.446,0.996,0.998
			s-0.446,1-0.996,1s-0.996-0.448-0.996-1S32.45,19.999,33,19.999z M33,29.997c-1.291,0-2.337-0.119-2.337-1.502
			c0-1.382,1.046-2.503,2.337-2.503c1.29,0,2.337,1.121,2.337,2.503C35.337,29.878,34.29,29.997,33,29.997z"/>
	</g>
</g>
<g id="_x34__1_">
	<g>
		<path style="fill-rule:evenodd;clip-rule:evenodd;fill:#FFFFFF;" d="M20,25.999V18c0-1.009-0.75-1.835-1.722-1.971
			c-0.694-0.126-1.431,0.116-1.916,0.718l-7.878,9.759c-0.314,0.39-0.461,0.861-0.468,1.333C8.012,27.893,8,27.944,8,28
			c0,1.104,0.896,2,2,2h6v2c0,1.104,0.896,2,2,2s2-0.896,2-2v-2c1.104,0,2-0.896,2-2S21.104,25.999,20,25.999z M14.228,25.999
			L16,23.803v2.196H14.228z"/>
	</g>
</g>
<g>
</g>
<g>
</g>
<g>
</g>
<g>
</g>
<g>
</g>
<g>
</g>
<g>
</g>
<g>
</g>
<g>
</g>
<g>
</g>
<g>
</g>
<g>
</g>
<g>
</g>
<g>
</g>
<g>
</g>
</svg>
