<?xml version="1.0" encoding="iso-8859-1"?>
<!-- Generator: Adobe Illustrator 16.0.0, SVG Export Plug-In . SVG Version: 6.00 Build 0)  -->
<!DOCTYPE svg PUBLIC "-//W3C//DTD SVG 1.1//EN" "http://www.w3.org/Graphics/SVG/1.1/DTD/svg11.dtd">
<svg version="1.1" id="Layer_1" xmlns="http://www.w3.org/2000/svg" xmlns:xlink="http://www.w3.org/1999/xlink" x="0px" y="0px"
	 width="64px" height="48px" viewBox="0 0 64 48" style="enable-background:new 0 0 64 48;" xml:space="preserve">
<g id="Label_9_">
	<g>
		<path style="fill:#FFFFFF;" d="M60,0H4C1.791,0,0,1.79,0,3.999v40C0,46.208,1.791,48,4,48h56c2.209,0,4-1.792,4-4.001v-40
			C64,1.79,62.209,0,60,0z"/>
	</g>
</g>
<g id="Label_10_">
	<g>
		<path style="fill-rule:evenodd;clip-rule:evenodd;fill:#FFCC66;" d="M60,0H4C1.791,0,0,1.79,0,3.999v40C0,46.208,1.791,48,4,48h56
			c2.209,0,4-1.792,4-4.001v-40C64,1.79,62.209,0,60,0z M60,42c0,1.104-0.896,2-2,2H6c-1.104,0-2-0.896-2-2V6.001
			C4,4.896,4.896,4,6,4h52c1.104,0,2,0.896,2,2.001V42z"/>
	</g>
</g>
<g id="K_1_">
	<g>
		<path style="fill-rule:evenodd;clip-rule:evenodd;fill:#FF8833;" d="M40.715,24l8.716-8.715c0.749-0.75,0.749-1.966,0-2.716
			c-0.75-0.749-1.966-0.749-2.716,0L38,21.285V14c0-1.104-0.896-1.999-2-1.999S34,12.896,34,14v20c0,1.104,0.896,2,2,2s2-0.896,2-2
			v-7.284l8.715,8.715c0.75,0.75,1.966,0.75,2.716,0c0.749-0.75,0.749-1.966,0-2.715L40.715,24z"/>
	</g>
</g>
<g id="_x34_">
	<g>
		<path style="fill-rule:evenodd;clip-rule:evenodd;fill:#FF8833;" d="M28,26v-2c0-1.104-0.896-2-2-2s-2,0.896-2,2v2h-4.558
			l6.29-10.97c0.552-0.963,0.224-2.195-0.732-2.751c-0.957-0.556-2.18-0.226-2.732,0.737l-8,13.953
			c-0.107,0.188-0.172,0.387-0.215,0.588c-0.005,0.022-0.011,0.044-0.015,0.066c-0.017,0.092-0.024,0.183-0.028,0.275
			C14.009,27.934,14,27.966,14,28c0,0.021,0.006,0.039,0.006,0.06c0.003,0.057,0.01,0.112,0.018,0.168
			c0.01,0.087,0.021,0.173,0.042,0.256c0.005,0.017,0.011,0.033,0.016,0.05c0.213,0.766,0.864,1.341,1.67,1.442
			c0.001,0,0.003,0,0.005,0.001c0.081,0.01,0.16,0.024,0.244,0.024h8V34c0,1.104,0.896,2.001,2,2.001s2-0.896,2-2.001v-3.999
			c1.104,0,2-0.896,2-2.001S29.104,26,28,26z"/>
	</g>
</g>
<g>
</g>
<g>
</g>
<g>
</g>
<g>
</g>
<g>
</g>
<g>
</g>
<g>
</g>
<g>
</g>
<g>
</g>
<g>
</g>
<g>
</g>
<g>
</g>
<g>
</g>
<g>
</g>
<g>
</g>
</svg>
