<?xml version="1.0" encoding="iso-8859-1"?>
<!-- Generator: Adobe Illustrator 16.0.0, SVG Export Plug-In . SVG Version: 6.00 Build 0)  -->
<!DOCTYPE svg PUBLIC "-//W3C//DTD SVG 1.1//EN" "http://www.w3.org/Graphics/SVG/1.1/DTD/svg11.dtd">
<svg version="1.1" id="Layer_1" xmlns="http://www.w3.org/2000/svg" xmlns:xlink="http://www.w3.org/1999/xlink" x="0px" y="0px"
	 width="64px" height="48px" viewBox="0 0 64 48" style="enable-background:new 0 0 64 48;" xml:space="preserve">
<g id="Label_7_">
	<g>
		<path style="fill:#FFFFFF;" d="M60,0H4C1.791,0,0,1.79,0,3.999v40C0,46.208,1.791,48,4,48h56c2.209,0,4-1.792,4-4.001v-40
			C64,1.79,62.209,0,60,0z"/>
	</g>
</g>
<g id="Label_8_">
	<g>
		<path style="fill-rule:evenodd;clip-rule:evenodd;fill:#CCCCCC;" d="M60,0H4C1.791,0,0,1.79,0,3.999v40C0,46.208,1.791,48,4,48h56
			c2.209,0,4-1.792,4-4.001v-40C64,1.79,62.209,0,60,0z M60,42c0,1.104-0.896,2-2,2H6c-1.104,0-2-0.896-2-2V6.001
			C4,4.896,4.896,4,6,4h52c1.104,0,2,0.896,2,2.001V42z"/>
	</g>
</g>
<g id="K">
	<g>
		<path style="fill-rule:evenodd;clip-rule:evenodd;fill:#48A0DC;" d="M40.715,24l8.716-8.715c0.75-0.75,0.75-1.966,0-2.716
			c-0.75-0.749-1.966-0.749-2.716,0L38,21.285V14c0-1.104-0.896-1.999-2-1.999S34,12.896,34,14v20c0,1.104,0.896,2,2,2s2-0.896,2-2
			v-7.284l8.715,8.715c0.75,0.75,1.966,0.75,2.716,0s0.75-1.966,0-2.715L40.715,24z"/>
	</g>
</g>
<g id="_x35_">
	<g>
		<path style="fill-rule:evenodd;clip-rule:evenodd;fill:#48A0DC;" d="M22,20h-4v-4h8c1.104,0,2-0.896,2-2s-0.896-2-2-2H16
			c-1.104,0-2,0.896-2,2v0.408c0,0.01-0.003,0.019-0.003,0.028v7.613c0,0.802,0.499,1.489,1.212,1.786C15.452,23.94,15.719,24,16,24
			h4h2c2.209,0,4,1.79,4,4c0,2.209-1.791,4-4,4s-4-1.791-4-4c0-1.104-0.896-2-2-2s-2,0.896-2,2c0,4.418,3.582,8,8,8s8-3.582,8-8
			S26.418,20,22,20z"/>
	</g>
</g>
<g>
</g>
<g>
</g>
<g>
</g>
<g>
</g>
<g>
</g>
<g>
</g>
<g>
</g>
<g>
</g>
<g>
</g>
<g>
</g>
<g>
</g>
<g>
</g>
<g>
</g>
<g>
</g>
<g>
</g>
</svg>
