<?xml version="1.0" encoding="iso-8859-1"?>
<!-- Generator: Adobe Illustrator 16.0.0, SVG Export Plug-In . SVG Version: 6.00 Build 0)  -->
<!DOCTYPE svg PUBLIC "-//W3C//DTD SVG 1.1//EN" "http://www.w3.org/Graphics/SVG/1.1/DTD/svg11.dtd">
<svg version="1.1" id="Layer_1" xmlns="http://www.w3.org/2000/svg" xmlns:xlink="http://www.w3.org/1999/xlink" x="0px" y="0px"
	 width="72px" height="48px" viewBox="0 0 72 48" style="enable-background:new 0 0 72 48;" xml:space="preserve">
<g id="Lens_9_">
	<g>
		<path style="fill-rule:evenodd;clip-rule:evenodd;fill:#666666;" d="M60,6.001h-2h-4c-4.418,0-8,2.686-8,5.999s3.582,6,8,6h4h2h8
			V6.001H60z"/>
	</g>
</g>
<g id="Lens_10_">
	<g>
		<path style="fill-rule:evenodd;clip-rule:evenodd;fill:#4D4D4D;" d="M64,4v16c0,2.209,1.791,4,4,4V0C65.791,0,64,1.791,64,4z"/>
	</g>
</g>
<g id="Lens_11_">
	<g>
		<path style="fill-rule:evenodd;clip-rule:evenodd;fill:#595959;" d="M60,8v8c0,2.209,1.791,4,4,4V4C61.791,4,60,5.791,60,8z"/>
	</g>
</g>
<g id="Handle_1_">
	<g>
		<path style="fill-rule:evenodd;clip-rule:evenodd;fill:#666666;" d="M36,24c-2.209,0-4-0.209-4,2v2h-4c2.209,0,4,1.791,4,4v8.001
			v4v2C32,47.104,32.896,48,34,48h4c1.104,0,2-0.896,2-1.999v-2v-4V26C40,23.791,38.209,24,36,24z"/>
	</g>
</g>
<g id="Shape_19_">
	<g>
		<path style="fill-rule:evenodd;clip-rule:evenodd;fill:#4D4D4D;" d="M44,20H24c-2.209,0-4,1.791-4,4s1.791,4,4,4h18h2h4v-4
			C48,21.791,46.209,20,44,20z"/>
	</g>
</g>
<g id="Viewfinder_7_">
	<g>
		<path style="fill:#666666;" d="M12,4h-2C7.791,4,6,5.791,6,8s1.791,4,4,4h2c2.209,0,4-1.791,4-4S14.209,4,12,4z"/>
	</g>
</g>
<g id="Viewfinder_2_">
	<g>
		<path style="fill-rule:evenodd;clip-rule:evenodd;fill:#4D4D4D;" d="M4,0v16c2.209,0,4-1.791,4-4V4C8,1.791,6.209,0,4,0z"/>
	</g>
</g>
<g id="Body_25_">
	<g>
		<path style="fill-rule:evenodd;clip-rule:evenodd;fill:#CCCCCC;" d="M42,0H16c-2.209,0-4,1.791-4,4v16c0,2.209,1.791,4,4,4h26h6V0
			H42z"/>
	</g>
</g>
<g id="Knob_1_">
	<g>
		<circle style="fill:#999999;" cx="38" cy="8" r="4"/>
	</g>
</g>
<g id="Shape_20_">
	<g>
		<path style="fill-rule:evenodd;clip-rule:evenodd;fill:#B3B3B3;" d="M12,20c0,2.209,1.791,4,4,4h26h6v-8H12V20z"/>
	</g>
</g>
<g id="Btn_1_">
	<g>
		<circle style="fill:#ED7161;" cx="22" cy="8" r="2"/>
	</g>
</g>
<g>
</g>
<g>
</g>
<g>
</g>
<g>
</g>
<g>
</g>
<g>
</g>
<g>
</g>
<g>
</g>
<g>
</g>
<g>
</g>
<g>
</g>
<g>
</g>
<g>
</g>
<g>
</g>
<g>
</g>
</svg>
