<?xml version="1.0" encoding="iso-8859-1"?>
<!-- Generator: Adobe Illustrator 16.0.0, SVG Export Plug-In . SVG Version: 6.00 Build 0)  -->
<!DOCTYPE svg PUBLIC "-//W3C//DTD SVG 1.1//EN" "http://www.w3.org/Graphics/SVG/1.1/DTD/svg11.dtd">
<svg version="1.1" id="Layer_1" xmlns="http://www.w3.org/2000/svg" xmlns:xlink="http://www.w3.org/1999/xlink" x="0px" y="0px"
	 width="64px" height="63.999px" viewBox="0 0 64 63.999" style="enable-background:new 0 0 64 63.999;" xml:space="preserve">
<g id="Flash_2_">
	<g>
		<path style="fill-rule:evenodd;clip-rule:evenodd;fill:#FFCC66;" d="M27.146,40.096l6.748-15.05l-7.379,0.953l5.436-23.55
			c0.205-0.893-0.221-1.811-1.035-2.229c-0.809-0.417-1.807-0.23-2.414,0.455l-28,36.002c-0.52,0.587-0.646,1.427-0.323,2.144
			S1.214,39.999,2,39.999l15.292-2l-5.203,23.412c-0.274,0.889,0.102,1.85,0.905,2.316c0.314,0.184,0.661,0.271,1.005,0.271
			c0.538,0,1.068-0.217,1.457-0.629l9.74-12.521C24.459,50.123,24,49.115,24,48v-4C24,42.085,25.348,40.488,27.146,40.096z"/>
	</g>
</g>
<g id="A_2_">
	<g>
		<path style="fill-rule:evenodd;clip-rule:evenodd;fill:#ED7161;" d="M62,43.999c-1,0-1.642-1.066-2-2l-10-26
			c-0.793-2.062-1.791-4-4-4s-3.207,1.938-4,4l-10,26c-0.359,0.934-1,2-2,2c-1.104,0-2,0.895-2,2c0,1.104,0.896,2,2,2h8
			c1.104,0,2-0.896,2-2c0-1.105-0.896-2-2-2c-2,0-2.359-1.066-2-2l0.769-2h14.462l0.769,2c0.358,0.934,0,2-2,2c-1.104,0-2,0.895-2,2
			c0,1.104,0.896,2,2,2h12c1.104,0,2-0.896,2-2C64,44.894,63.104,43.999,62,43.999z M38.308,35.999L44,21.198l5.692,14.801H38.308z"
			/>
	</g>
</g>
<g>
</g>
<g>
</g>
<g>
</g>
<g>
</g>
<g>
</g>
<g>
</g>
<g>
</g>
<g>
</g>
<g>
</g>
<g>
</g>
<g>
</g>
<g>
</g>
<g>
</g>
<g>
</g>
<g>
</g>
</svg>
