<?xml version="1.0" encoding="iso-8859-1"?>
<!-- Generator: Adobe Illustrator 16.0.0, SVG Export Plug-In . SVG Version: 6.00 Build 0)  -->
<!DOCTYPE svg PUBLIC "-//W3C//DTD SVG 1.1//EN" "http://www.w3.org/Graphics/SVG/1.1/DTD/svg11.dtd">
<svg version="1.1" id="Layer_1" xmlns="http://www.w3.org/2000/svg" xmlns:xlink="http://www.w3.org/1999/xlink" x="0px" y="0px"
	 width="48px" height="64px" viewBox="0 0 48 64" style="enable-background:new 0 0 48 64;" xml:space="preserve">
<g id="Handle_4_">
	<g>
		<path style="fill:#808080;" d="M30,0H17.999c-2.209,0-4,1.791-4,4v8H18V6h-0.001c0-1.104,0.896-2,2-2h8C29.104,4,30,4.896,30,6v6
			h3.999V4C33.999,1.791,32.209,0,30,0z"/>
	</g>
</g>
<g id="Body_46_">
	<g>
		<path style="fill-rule:evenodd;clip-rule:evenodd;fill:#666666;" d="M32,8.001H16C7.163,8.001,0,15.164,0,24v20.001v4v12
			C0,62.21,1.791,64,4,64h12h16h12c2.209,0,4-1.79,4-3.999v-12v-4V24C48,15.164,40.836,8.001,32,8.001z"/>
	</g>
</g>
<g id="Body_47_">
	<g>
		<path style="fill-rule:evenodd;clip-rule:evenodd;fill:#808080;" d="M30,16.001H18c-8.837,0-16,7.163-16,16v12v4v12
			C2,62.21,3.791,64,6,64h12h12h12c2.209,0,4-1.79,4-3.999v-12v-4v-12C46,23.164,38.836,16.001,30,16.001z"/>
	</g>
</g>
<g id="Zipper">
	<g>
		<path style="fill:#FF8833;" d="M26,14.001h-4c-1.104,0-2,0.895-2,2C20,17.104,20.896,18,22,18h4c1.104,0,2-0.896,2-1.999
			C28,14.896,27.104,14.001,26,14.001z"/>
	</g>
</g>
<g id="Hinge">
	<g>
		<path style="fill-rule:evenodd;clip-rule:evenodd;fill:#666666;" d="M16,28v4.001h16V28H16z M16,44.001h16v-4H16V44.001z"/>
	</g>
</g>
<g id="Pocket">
	<g>
		<path style="fill:#999999;" d="M38,52.001H10c-2.209,0-4,1.79-4,4c0,2.208,1.791,4,4,4h28c2.209,0,4-1.792,4-4
			C42,53.791,40.209,52.001,38,52.001z"/>
	</g>
</g>
<g id="Pockets">
	<g>
		<path style="fill-rule:evenodd;clip-rule:evenodd;fill:#A6A6A6;" d="M6,29.526v15.866c0,5.267,12,1.382,12-1.986V27.539
			C18,21.737,6,23.563,6,29.526z M30,27.539v15.867c0,3.368,12,7.253,12,1.986V29.526C42,23.563,30,21.737,30,27.539z"/>
	</g>
</g>
<g>
</g>
<g>
</g>
<g>
</g>
<g>
</g>
<g>
</g>
<g>
</g>
<g>
</g>
<g>
</g>
<g>
</g>
<g>
</g>
<g>
</g>
<g>
</g>
<g>
</g>
<g>
</g>
<g>
</g>
</svg>
