<?xml version="1.0" encoding="iso-8859-1"?>
<!-- Generator: Adobe Illustrator 16.0.0, SVG Export Plug-In . SVG Version: 6.00 Build 0)  -->
<!DOCTYPE svg PUBLIC "-//W3C//DTD SVG 1.1//EN" "http://www.w3.org/Graphics/SVG/1.1/DTD/svg11.dtd">
<svg version="1.1" id="Layer_1" xmlns="http://www.w3.org/2000/svg" xmlns:xlink="http://www.w3.org/1999/xlink" x="0px" y="0px"
	 width="64px" height="47.999px" viewBox="0 0 64 47.999" style="enable-background:new 0 0 64 47.999;" xml:space="preserve">
<g id="Body_34_">
	<g>
		<path style="fill:#666666;" d="M60,0H4C1.791,0,0,1.791,0,3.999v40c0,2.21,1.791,4,4,4h56c2.209,0,4-1.79,4-4v-40
			C64,1.791,62.209,0,60,0z"/>
	</g>
</g>
<g id="Hole">
	<g>
		<path style="fill-rule:evenodd;clip-rule:evenodd;fill:#4D4D4D;" d="M56,32V12c0-1.105-0.896-2.001-2-2.001H30
			c-1.104,0-2,0.896-2,2.001v20c-1.104,0-2,0.895-2,2v4c0,1.104,0.896,2,2,2v6v1.999h2h24h2V46v-6c1.104,0,2-0.896,2-2v-4
			C58,32.895,57.104,32,56,32z"/>
	</g>
</g>
<g id="Pins_1_">
	<g>
		<path style="fill:#FFCC66;" d="M32,12c0,1.104,0.896,1.999,2,1.999s2-0.896,2-1.999v-2h-4V12z M48,10v2
			c0,1.104,0.896,1.999,2,1.999s2-0.896,2-1.999v-2H48z M40,12c0,1.104,0.896,1.999,2,1.999s2-0.896,2-1.999v-2h-4V12z"/>
	</g>
</g>
<g>
</g>
<g>
</g>
<g>
</g>
<g>
</g>
<g>
</g>
<g>
</g>
<g>
</g>
<g>
</g>
<g>
</g>
<g>
</g>
<g>
</g>
<g>
</g>
<g>
</g>
<g>
</g>
<g>
</g>
</svg>
