<?xml version="1.0" encoding="iso-8859-1"?>
<!-- Generator: Adobe Illustrator 16.0.0, SVG Export Plug-In . SVG Version: 6.00 Build 0)  -->
<!DOCTYPE svg PUBLIC "-//W3C//DTD SVG 1.1//EN" "http://www.w3.org/Graphics/SVG/1.1/DTD/svg11.dtd">
<svg version="1.1" id="Layer_1" xmlns="http://www.w3.org/2000/svg" xmlns:xlink="http://www.w3.org/1999/xlink" x="0px" y="0px"
	 width="64.001px" height="44.008px" viewBox="0 0 64.001 44.008" style="enable-background:new 0 0 64.001 44.008;"
	 xml:space="preserve">
<g id="Knob_2_">
	<g>
		<path style="fill:#333333;" d="M26.001,0h-12c-2.209,0-4,1.79-4,3.999V6c0,2.209,1.791,4,4,4h12c2.209,0,4-1.791,4-4V3.999
			C30.001,1.79,28.21,0,26.001,0z"/>
	</g>
</g>
<g id="Base_9_">
	<g>
		<path style="fill:#4D4D4D;" d="M60,4.048H4c-2.209,0-4,1.789-4,3.995v31.97c0,2.207,1.791,3.995,4,3.995h56
			c2.21,0,4.001-1.788,4.001-3.995V8.043C64.001,5.837,62.21,4.048,60,4.048z"/>
	</g>
</g>
<g id="Shape_83_">
	<g>
		<path style="fill-rule:evenodd;clip-rule:evenodd;fill:#48A0DC;" d="M46.001,7.999h-40c-1.104,0-2,0.896-2,2.001v24
			c0,1.104,0.896,1.999,2,1.999h28.208c-0.067,0-0.144,0.001-0.208,0.001h1.719c-0.078-0.001-0.151,0-0.228-0.001h4.509L35.72,36
			c2.04,0.033,4.281,0.301,4.281,2c0,1.104,0.896,2,2,2h4c1.104,0,2-0.896,2-2v-4v-4.001V10C48.001,8.895,47.105,7.999,46.001,7.999
			z"/>
	</g>
</g>
<g id="Blitz_3_">
	<g>
		<path style="fill:#2F698F;" d="M31,12.039h-3.999c-1.657,0-3,1.343-3,2.997c0,1.656,1.343,2.998,3,2.998H31
			c1.657,0,3.001-1.342,3.001-2.998C34.001,13.382,32.657,12.039,31,12.039z"/>
	</g>
</g>
<g id="Camera_Lens_13_">
	<g>
		<ellipse style="fill:#E6E6E6;" cx="44" cy="24.028" rx="11.999" ry="11.989"/>
	</g>
</g>
<g id="Camera_Lens_2_">
	<g>
		<ellipse style="fill:#B3B3B3;" cx="44" cy="23.998" rx="7.999" ry="8.013"/>
	</g>
</g>
<g id="Camera_Lens_3_">
	<g>
		<ellipse style="fill:#666666;" cx="44.001" cy="23.999" rx="4" ry="4.006"/>
	</g>
</g>
<g>
</g>
<g>
</g>
<g>
</g>
<g>
</g>
<g>
</g>
<g>
</g>
<g>
</g>
<g>
</g>
<g>
</g>
<g>
</g>
<g>
</g>
<g>
</g>
<g>
</g>
<g>
</g>
<g>
</g>
</svg>
