<?xml version="1.0" encoding="iso-8859-1"?>
<!-- Generator: Adobe Illustrator 16.0.0, SVG Export Plug-In . SVG Version: 6.00 Build 0)  -->
<!DOCTYPE svg PUBLIC "-//W3C//DTD SVG 1.1//EN" "http://www.w3.org/Graphics/SVG/1.1/DTD/svg11.dtd">
<svg version="1.1" id="Layer_1" xmlns="http://www.w3.org/2000/svg" xmlns:xlink="http://www.w3.org/1999/xlink" x="0px" y="0px"
	 width="44px" height="64.001px" viewBox="0 0 44 64.001" style="enable-background:new 0 0 44 64.001;" xml:space="preserve">
<g id="Frame_11_">
	<g>
		<path style="fill:#666666;" d="M40,0H4C1.791,0,0,1.791,0,4.001v20C0,26.209,1.791,28,4,28h36c2.209,0,4-1.791,4-3.999v-20
			C44,1.791,42.209,0,40,0z"/>
	</g>
</g>
<g id="Body_54_">
	<g>
		<path style="fill-rule:evenodd;clip-rule:evenodd;fill:#333333;" d="M41.446,32.001C40.753,30.81,39.478,30,38,30H6
			c-1.478,0-2.753,0.81-3.446,2.001H2v1.994C2,33.997,2,33.998,2,34l4,26.001c0,2.209,1.791,4,4,4h24c2.209,0,4-1.791,4-4L42,34
			v-1.999H41.446z"/>
	</g>
</g>
<g id="Shape_42_">
	<g>
		<path style="fill-rule:evenodd;clip-rule:evenodd;fill:#4D4D4D;" d="M38,28H6c-2.209,0-4,1.791-4,4.001c0,2.208,1.791,4,4,4h10V40
			c0,2.21,1.791,4.001,4,4.001h4c2.208,0,4-1.791,4-4.001v-3.999h10c2.209,0,4-1.792,4-4C42,29.791,40.209,28,38,28z"/>
	</g>
</g>
<g id="BTN_2_">
	<g>
		<path style="fill:#ED7161;" d="M24,50.001h-4c-2.209,0-4,1.79-4,4c0,2.209,1.791,4,4,4h4c2.208,0,4-1.791,4-4
			C28,51.791,26.209,50.001,24,50.001z"/>
	</g>
</g>
<g id="Shape_43_">
	<g>
		<path style="fill:#E6E6E6;" d="M38,4.001H6C4.896,4.001,4,4.896,4,6v16.001c0,1.104,0.896,2,2,2h32c1.105,0,2-0.896,2-2V6
			C40,4.896,39.105,4.001,38,4.001z"/>
	</g>
</g>
<g id="LEDs">
	<g>
		<path style="fill-rule:evenodd;clip-rule:evenodd;fill:#B3B3B3;" d="M6,8.001c1.104,0,2-0.896,2-2.001
			c0-1.104-0.895-1.999-2-1.999C4.896,4.001,4,4.896,4,6C4,7.105,4.896,8.001,6,8.001z M10,12c1.104,0,2-0.895,2-1.999
			c0-1.105-0.896-2-2-2s-2,0.895-2,2C8,11.105,8.896,12,10,12z M14,8.001c1.105,0,2-0.896,2-2.001c0-1.104-0.895-1.999-2-1.999
			c-1.104,0-2,0.895-2,1.999C12,7.105,12.896,8.001,14,8.001z M18,12c1.105,0,2-0.895,2-1.999c0-1.105-0.895-2-2-2
			c-1.104,0-2,0.895-2,2C16,11.105,16.896,12,18,12z M22,8.001c1.104,0,2-0.896,2-2.001c0-1.104-0.896-1.999-2-1.999S20,4.896,20,6
			C20,7.105,20.896,8.001,22,8.001z M26,12c1.105,0,2-0.895,2-1.999c0-1.105-0.895-2-2-2c-1.104,0-2,0.895-2,2
			C24,11.105,24.896,12,26,12z M30,8.001c1.104,0,2-0.896,2-2.001c0-1.104-0.896-1.999-2-1.999c-1.105,0-2,0.895-2,1.999
			C28,7.105,28.896,8.001,30,8.001z M34,12c1.104,0,2-0.895,2-1.999c0-1.105-0.896-2-2-2s-2,0.895-2,2C32,11.105,32.896,12,34,12z
			 M38,8.001c1.105,0,2-0.896,2-2.001c0-1.104-0.895-1.999-2-1.999c-1.104,0-2,0.895-2,1.999C36,7.105,36.896,8.001,38,8.001z
			 M6,16.001c1.104,0,2-0.896,2-2C8,12.896,7.105,12,6,12c-1.105,0-2,0.896-2,2.001C4,15.105,4.896,16.001,6,16.001z M10,16.001
			c-1.104,0-2,0.895-2,2c0,1.104,0.896,2,2,2s2-0.896,2-2C12,16.896,11.104,16.001,10,16.001z M14,12c-1.104,0-2,0.896-2,2.001
			c0,1.104,0.895,2,2,2c1.105,0,2-0.896,2-2C16,12.896,15.105,12,14,12z M18,16.001c-1.104,0-2,0.895-2,2c0,1.104,0.896,2,2,2
			c1.105,0,2-0.896,2-2C20,16.896,19.105,16.001,18,16.001z M22,12c-1.104,0-2,0.896-2,2.001c0,1.104,0.896,2,2,2s2-0.896,2-2
			C24,12.896,23.104,12,22,12z M26,16.001c-1.104,0-2,0.895-2,2c0,1.104,0.895,2,2,2c1.105,0,2-0.896,2-2
			C28,16.896,27.105,16.001,26,16.001z M30,12c-1.105,0-2,0.896-2,2.001c0,1.104,0.896,2,2,2c1.104,0,2-0.896,2-2
			C32,12.896,31.104,12,30,12z M34,16.001c-1.104,0-2,0.895-2,2c0,1.104,0.896,2,2,2s2-0.896,2-2C36,16.896,35.104,16.001,34,16.001
			z M38,12c-1.104,0-2,0.896-2,2.001c0,1.104,0.896,2,2,2c1.105,0,2-0.896,2-2C40,12.896,39.105,12,38,12z M6,20.001
			c-1.105,0-2,0.895-2,2c0,1.104,0.896,2,2,2c1.104,0,2-0.896,2-2C8,20.896,7.105,20.001,6,20.001z M14,20.001c-1.104,0-2,0.895-2,2
			c0,1.104,0.895,2,2,2c1.105,0,2-0.896,2-2C16,20.896,15.105,20.001,14,20.001z M22,20.001c-1.104,0-2,0.895-2,2
			c0,1.104,0.896,2,2,2s2-0.896,2-2C24,20.896,23.104,20.001,22,20.001z M30,20.001c-1.105,0-2,0.895-2,2c0,1.104,0.896,2,2,2
			c1.104,0,2-0.896,2-2C32,20.896,31.104,20.001,30,20.001z M38,20.001c-1.104,0-2,0.895-2,2c0,1.104,0.896,2,2,2
			c1.105,0,2-0.896,2-2C40,20.896,39.105,20.001,38,20.001z"/>
	</g>
</g>
<g>
</g>
<g>
</g>
<g>
</g>
<g>
</g>
<g>
</g>
<g>
</g>
<g>
</g>
<g>
</g>
<g>
</g>
<g>
</g>
<g>
</g>
<g>
</g>
<g>
</g>
<g>
</g>
<g>
</g>
</svg>
