<?xml version="1.0" encoding="iso-8859-1"?>
<!-- Generator: Adobe Illustrator 16.0.0, SVG Export Plug-In . SVG Version: 6.00 Build 0)  -->
<!DOCTYPE svg PUBLIC "-//W3C//DTD SVG 1.1//EN" "http://www.w3.org/Graphics/SVG/1.1/DTD/svg11.dtd">
<svg version="1.1" id="Layer_1" xmlns="http://www.w3.org/2000/svg" xmlns:xlink="http://www.w3.org/1999/xlink" x="0px" y="0px"
	 width="64.002px" height="64px" viewBox="0 0 64.002 64" style="enable-background:new 0 0 64.002 64;" xml:space="preserve">
<g id="Base_3_">
	<g>
		<path style="fill-rule:evenodd;clip-rule:evenodd;fill:#48A0DC;" d="M32.001,0C14.327,0,0,14.327,0,32s14.327,32,32.001,32
			s32.001-14.327,32.001-32S49.675,0,32.001,0z M32.001,36c-2.21,0-4-1.791-4-4s1.79-4,4-4c2.209,0,4,1.791,4,4S34.21,36,32.001,36z
			"/>
	</g>
</g>
<g id="Base_4_">
	<g>
		<path style="fill-rule:evenodd;clip-rule:evenodd;fill:#CCCCCC;" d="M32.001,22C26.478,22,22,26.477,22,32
			c0,5.522,4.478,10,10.001,10c5.522,0,10-4.478,10-10C42.001,26.477,37.523,22,32.001,22z M32.001,36c-2.21,0-4-1.791-4-4
			s1.79-4,4-4c2.209,0,4,1.791,4,4S34.21,36,32.001,36z"/>
	</g>
</g>
<g>
</g>
<g>
</g>
<g>
</g>
<g>
</g>
<g>
</g>
<g>
</g>
<g>
</g>
<g>
</g>
<g>
</g>
<g>
</g>
<g>
</g>
<g>
</g>
<g>
</g>
<g>
</g>
<g>
</g>
</svg>
