<?xml version="1.0" encoding="iso-8859-1"?>
<!-- Generator: Adobe Illustrator 16.0.0, SVG Export Plug-In . SVG Version: 6.00 Build 0)  -->
<!DOCTYPE svg PUBLIC "-//W3C//DTD SVG 1.1//EN" "http://www.w3.org/Graphics/SVG/1.1/DTD/svg11.dtd">
<svg version="1.1" id="Layer_1" xmlns="http://www.w3.org/2000/svg" xmlns:xlink="http://www.w3.org/1999/xlink" x="0px" y="0px"
	 width="64px" height="16px" viewBox="0 0 64 16" style="enable-background:new 0 0 64 16;" xml:space="preserve">
<g id="Stand_1_">
	<g>
		<path style="fill-rule:evenodd;clip-rule:evenodd;fill:#333333;" d="M14,8H6c-1.104,0-2,0.896-2,2v4c0,1.104,0.896,2,2,2h8
			c1.104,0,2-0.896,2-2v-4C16,8.896,15.104,8,14,8z M58,8h-8c-1.104,0-2,0.896-2,2v4c0,1.104,0.896,2,2,2h8c1.104,0,2-0.896,2-2v-4
			C60,8.896,59.104,8,58,8z"/>
	</g>
</g>
<g id="Body_16_">
	<g>
		<path style="fill:#666666;" d="M62,0H2C0.896,0,0,0.895,0,2v8c0,1.104,0.896,2,2,2h60c1.104,0,2-0.896,2-2V2
			C64,0.895,63.104,0,62,0z"/>
	</g>
</g>
<g id="Tray">
	<g>
		<path style="fill:#333333;" d="M30,4H6C4.896,4,4,4.895,4,6c0,1.104,0.896,2,2,2h24c1.104,0,2-0.896,2-2C32,4.895,31.104,4,30,4z"
			/>
	</g>
</g>
<g id="BTNs">
	<g>
		<path style="fill-rule:evenodd;clip-rule:evenodd;fill:#999999;" d="M38,4c-1.104,0-2,0.895-2,2c0,1.104,0.896,2,2,2s2-0.896,2-2
			C40,4.895,39.104,4,38,4z M46,4c-1.104,0-2,0.895-2,2c0,1.104,0.896,2,2,2s2-0.896,2-2C48,4.895,47.104,4,46,4z"/>
	</g>
</g>
<g id="ON_LED">
	<g>
		<circle style="fill:#88C057;" cx="58" cy="6" r="2"/>
	</g>
</g>
<g>
</g>
<g>
</g>
<g>
</g>
<g>
</g>
<g>
</g>
<g>
</g>
<g>
</g>
<g>
</g>
<g>
</g>
<g>
</g>
<g>
</g>
<g>
</g>
<g>
</g>
<g>
</g>
<g>
</g>
</svg>
