<?xml version="1.0" encoding="iso-8859-1"?>
<!-- Generator: Adobe Illustrator 16.0.0, SVG Export Plug-In . SVG Version: 6.00 Build 0)  -->
<!DOCTYPE svg PUBLIC "-//W3C//DTD SVG 1.1//EN" "http://www.w3.org/Graphics/SVG/1.1/DTD/svg11.dtd">
<svg version="1.1" id="Layer_1" xmlns="http://www.w3.org/2000/svg" xmlns:xlink="http://www.w3.org/1999/xlink" x="0px" y="0px"
	 width="64px" height="52px" viewBox="0 0 64 52" style="enable-background:new 0 0 64 52;" xml:space="preserve">
<g id="Body_31_">
	<g>
		<path style="fill-rule:evenodd;clip-rule:evenodd;fill:#88C057;" d="M60,8H47.333L46,4c-0.688-2.271-1.791-4-4-4H22
			c-2.209,0-3.25,1.729-4,4l-1.333,4H14c0-2.209-1.791-4-4-4S6,5.791,6,8H4c-2.209,0-4,1.791-4,4v36c0,2.21,1.791,4,4,4h56
			c2.209,0,4-1.79,4-4V12C64,9.791,62.209,8,60,8z"/>
	</g>
</g>
<g id="Rotate">
	<g>
		<path style="fill-rule:evenodd;clip-rule:evenodd;fill:#FFFFFF;" d="M44,32.999h-8c-1.104,0-2,0.896-2,2s0.896,2,2,2h4.467
			c-2.015,2.44-5.055,4-8.467,4c-4.662,0-8.636-2.904-10.238-6.998h-4.206C19.31,40.339,25.104,44.999,32,44.999
			c3.852,0,7.351-1.461,10-3.851v1.851c0,1.104,0.895,2,2,2c1.104,0,2-0.896,2-2v-8C46,33.895,45.104,32.999,44,32.999z M20,26.999
			h8c1.104,0,2-0.896,2-2.001c0-1.104-0.896-2-2-2h-4.466c2.015-2.439,5.054-3.999,8.466-3.999c4.663,0,8.639,2.906,10.24,7.002
			h4.204C44.692,19.66,38.897,14.999,32,14.999c-3.852,0-7.351,1.461-10,3.85v-1.85c0-1.105-0.896-2.001-2-2.001
			c-1.105,0-2,0.896-2,2.001v7.999C18,26.104,18.895,26.999,20,26.999z"/>
	</g>
</g>
<g>
</g>
<g>
</g>
<g>
</g>
<g>
</g>
<g>
</g>
<g>
</g>
<g>
</g>
<g>
</g>
<g>
</g>
<g>
</g>
<g>
</g>
<g>
</g>
<g>
</g>
<g>
</g>
<g>
</g>
</svg>
