<?xml version="1.0" encoding="iso-8859-1"?>
<!-- Generator: Adobe Illustrator 16.0.0, SVG Export Plug-In . SVG Version: 6.00 Build 0)  -->
<!DOCTYPE svg PUBLIC "-//W3C//DTD SVG 1.1//EN" "http://www.w3.org/Graphics/SVG/1.1/DTD/svg11.dtd">
<svg version="1.1" id="Layer_1" xmlns="http://www.w3.org/2000/svg" xmlns:xlink="http://www.w3.org/1999/xlink" x="0px" y="0px"
	 width="63.954px" height="64.001px" viewBox="0 0 63.954 64.001" style="enable-background:new 0 0 63.954 64.001;"
	 xml:space="preserve">
<g id="Leg_1_">
	<g>
		<path style="fill:#4D4D4D;" d="M33.978,0h-4c-1.105,0-2,0.896-2,2l2,44.001c0,1.104,0.896,2,2,2s2-0.896,2-2l2-44.001
			C35.978,0.896,35.082,0,33.978,0z"/>
	</g>
</g>
<g id="Shape_37_">
	<g>
		<polygon style="fill:#B3B3B3;" points="41.978,28 21.978,28 19.978,32.001 43.978,32.001 		"/>
	</g>
</g>
<g id="Legs_10_">
	<g>
		<path style="fill-rule:evenodd;clip-rule:evenodd;fill:#666666;" d="M63.791,61.286L35.672,1.265
			c-0.444-1.036-1.644-1.523-2.681-1.088l-1.014,0.427l-1.015-0.427c-1.036-0.436-2.236,0.052-2.681,1.088L0.163,61.286
			c-0.438,1.054,0.036,2.267,1.059,2.709l2.756,0.006c1.036,0,1.251-0.229,1.694-1.266l26.306-50.935l26.305,50.935
			c0.444,1.037,0.658,1.266,1.695,1.266l2.755-0.006C63.755,63.553,64.229,62.34,63.791,61.286z"/>
	</g>
</g>
<g id="Legs_11_">
	<g>
		<path style="fill-rule:evenodd;clip-rule:evenodd;fill:#B3B3B3;" d="M29.978,46.001c0,1.104,0.895,2,2,2c1.104,0,2-0.896,2-2
			L34.25,40h-4.546L29.978,46.001z M0.163,61.286c-0.438,1.054,0.036,2.267,1.059,2.709l2.756,0.006c1.036,0,1.25-0.229,1.694-1.266
			l5.544-10.734H4.514L0.163,61.286z M63.791,61.286l-4.351-9.285h-6.702l5.544,10.734c0.444,1.037,0.658,1.266,1.695,1.266
			l2.754-0.006C63.755,63.553,64.229,62.34,63.791,61.286z"/>
	</g>
</g>
<g id="Mount">
	<g>
		<path style="fill:#333333;" d="M37.978,0h-12c-1.104,0-2,0.896-2,2v4c0,1.105,0.896,2.001,2,2.001h12c1.104,0,2-0.896,2-2.001V2
			C39.978,0.896,39.082,0,37.978,0z"/>
	</g>
</g>
<g>
</g>
<g>
</g>
<g>
</g>
<g>
</g>
<g>
</g>
<g>
</g>
<g>
</g>
<g>
</g>
<g>
</g>
<g>
</g>
<g>
</g>
<g>
</g>
<g>
</g>
<g>
</g>
<g>
</g>
</svg>
