<?xml version="1.0" encoding="iso-8859-1"?>
<!-- Generator: Adobe Illustrator 16.0.0, SVG Export Plug-In . SVG Version: 6.00 Build 0)  -->
<!DOCTYPE svg PUBLIC "-//W3C//DTD SVG 1.1//EN" "http://www.w3.org/Graphics/SVG/1.1/DTD/svg11.dtd">
<svg version="1.1" id="Layer_1" xmlns="http://www.w3.org/2000/svg" xmlns:xlink="http://www.w3.org/1999/xlink" x="0px" y="0px"
	 width="64.018px" height="46.001px" viewBox="0 0 64.018 46.001" style="enable-background:new 0 0 64.018 46.001;"
	 xml:space="preserve">
<g id="Arms_3_">
	<g>
		<path style="fill-rule:evenodd;clip-rule:evenodd;fill:#4D4D4D;" d="M17.043,8.269l-14.121-8C1.99-0.284,0.799,0.044,0.261,1
			c-0.537,0.957-0.218,2.181,0.714,2.732l12.121,10c0.932,0.552,4.122,0.225,4.66-0.732S17.975,8.821,17.043,8.269z M63.756,1
			c-0.538-0.956-1.729-1.284-2.66-0.731l-14.122,8c-0.932,0.553-1.25,3.774-0.713,4.731c0.538,0.957,3.729,1.284,4.661,0.732
			l12.121-10C63.975,3.181,64.294,1.957,63.756,1z"/>
	</g>
</g>
<g id="Cord_1_">
	<g>
		<path style="fill:#4D4D4D;" d="M63.73,8.001h-3.722c0,15.463-12.536,28-28,28s-28-12.537-28-28H0.287
			C0.123,9.313,0.009,10.643,0.009,12c0,17.674,14.327,32.001,32,32.001s32-14.327,32-32.001
			C64.009,10.643,63.895,9.313,63.73,8.001z"/>
	</g>
</g>
<g id="Arms_2_">
	<g>
		<path style="fill-rule:evenodd;clip-rule:evenodd;fill:#ED7161;" d="M2.009,0.001c-1.104,0-2,0.896-2,2V10c0,1.105,0.896,2,2,2
			s2-0.895,2-2V2.001C4.009,0.896,3.113,0.001,2.009,0.001z M62.009,0.001c-1.104,0-2,0.896-2,2V10c0,1.105,0.896,2,2,2s2-0.895,2-2
			V2.001C64.009,0.896,63.113,0.001,62.009,0.001z"/>
	</g>
</g>
<g id="Body_43_">
	<g>
		<path style="fill:#595959;" d="M52.009,6.001h-40c-2.209,0-4,1.791-4,3.999v32.001c0,2.208,1.791,4,4,4h40c2.209,0,4-1.792,4-4V10
			C56.009,7.792,54.218,6.001,52.009,6.001z"/>
	</g>
</g>
<g id="Shape_34_">
	<g>
		<path style="fill:#666666;" d="M52.009,6.001h-40c-2.209,0-4,1.791-4,3.999v12.001c0,2.209,1.791,3.999,4,3.999h40
			c2.209,0,4-1.79,4-3.999V10C56.009,7.792,54.218,6.001,52.009,6.001z"/>
	</g>
</g>
<g id="Shape_35_">
	<g>
		<path style="fill-rule:evenodd;clip-rule:evenodd;fill:#808080;" d="M52.009,6.001h-40c-2.209,0-4,1.791-4,3.999v4.001h4h40h4V10
			C56.009,7.792,54.218,6.001,52.009,6.001z"/>
	</g>
</g>
<g id="Clipper">
	<g>
		<path style="fill:#ED7161;" d="M34.009,22.001h-4c-1.104,0-2,0.895-2,2v4c0,1.104,0.896,2,2,2h4c1.104,0,2-0.896,2-2v-4
			C36.009,22.896,35.113,22.001,34.009,22.001z"/>
	</g>
</g>
<g>
</g>
<g>
</g>
<g>
</g>
<g>
</g>
<g>
</g>
<g>
</g>
<g>
</g>
<g>
</g>
<g>
</g>
<g>
</g>
<g>
</g>
<g>
</g>
<g>
</g>
<g>
</g>
<g>
</g>
</svg>
