<?xml version="1.0" encoding="iso-8859-1"?>
<!-- Generator: Adobe Illustrator 16.0.0, SVG Export Plug-In . SVG Version: 6.00 Build 0)  -->
<!DOCTYPE svg PUBLIC "-//W3C//DTD SVG 1.1//EN" "http://www.w3.org/Graphics/SVG/1.1/DTD/svg11.dtd">
<svg version="1.1" id="Layer_1" xmlns="http://www.w3.org/2000/svg" xmlns:xlink="http://www.w3.org/1999/xlink" x="0px" y="0px"
	 width="64px" height="64px" viewBox="0 0 64 64" style="enable-background:new 0 0 64 64;" xml:space="preserve">
<g id="Base_13_">
	<g>
		<path style="fill:#666666;" d="M60,24H4c-2.21,0-4,1.791-4,4v32c0,2.209,1.79,4,4,4h56c2.209,0,4-1.791,4-4V28
			C64,25.791,62.209,24,60,24z"/>
	</g>
</g>
<g id="Background_3_">
	<g>
		<rect x="4" y="28" style="fill:#999999;" width="56" height="32"/>
	</g>
</g>
<g id="Divider_1_">
	<g>
		<rect x="2" y="42" style="fill:#666666;" width="60" height="4"/>
	</g>
</g>
<g id="Blitz_Base_1_">
	<g>
		<rect x="26" y="20" style="fill:#333333;" width="12" height="4"/>
	</g>
</g>
<g id="Blitz_7_">
	<g>
		<path style="fill:#666666;" d="M42,0H22c-2.21,0-4,1.791-4,4v12c0,2.21,1.79,4,4,4h20c2.209,0,4-1.79,4-4V4
			C46,1.791,44.209,0,42,0z"/>
	</g>
</g>
<g id="Blitz_8_">
	<g>
		<rect x="22" y="4" style="fill:#FFFFFF;" width="20" height="12"/>
	</g>
</g>
<g id="LEDs_1_">
	<g>
		<path style="fill-rule:evenodd;clip-rule:evenodd;fill:#9E9E9E;" d="M24,8c1.104,0,2-0.896,2-2c0-1.104-0.896-1.999-2-1.999
			S22,4.896,22,6C22,7.104,22.896,8,24,8z M32,8c1.104,0,2-0.896,2-2c0-1.104-0.896-1.999-2-1.999S30,4.896,30,6
			C30,7.104,30.896,8,32,8z M40,8c1.104,0,2-0.896,2-2c0-1.104-0.896-1.999-2-1.999S38,4.896,38,6C38,7.104,38.896,8,40,8z M24,12
			c-1.104,0-2,0.896-2,2c0,1.104,0.896,2.001,2,2.001s2-0.896,2-2.001C26,12.896,25.104,12,24,12z M32,12c-1.104,0-2,0.896-2,2
			c0,1.104,0.896,2.001,2,2.001s2-0.896,2-2.001C34,12.896,33.104,12,32,12z M40,12c-1.104,0-2,0.896-2,2
			c0,1.104,0.896,2.001,2,2.001s2-0.896,2-2.001C42,12.896,41.104,12,40,12z M28,8c-1.104,0-2,0.896-2,2s0.896,2,2,2s2-0.896,2-2
			S29.104,8,28,8z M36,8c-1.104,0-2,0.896-2,2s0.896,2,2,2s2-0.896,2-2S37.104,8,36,8z"/>
	</g>
</g>
<g id="Camera_Lens_7_">
	<g>
		<circle style="fill:#4D4D4D;" cx="32" cy="44" r="12"/>
	</g>
</g>
<g id="Camera_Lens_8_">
	<g>
		<circle style="fill:#333333;" cx="32" cy="44" r="4.007"/>
	</g>
</g>
<g>
</g>
<g>
</g>
<g>
</g>
<g>
</g>
<g>
</g>
<g>
</g>
<g>
</g>
<g>
</g>
<g>
</g>
<g>
</g>
<g>
</g>
<g>
</g>
<g>
</g>
<g>
</g>
<g>
</g>
</svg>
