<?xml version="1.0" encoding="iso-8859-1"?>
<!-- Generator: Adobe Illustrator 16.0.0, SVG Export Plug-In . SVG Version: 6.00 Build 0)  -->
<!DOCTYPE svg PUBLIC "-//W3C//DTD SVG 1.1//EN" "http://www.w3.org/Graphics/SVG/1.1/DTD/svg11.dtd">
<svg version="1.1" id="Layer_1" xmlns="http://www.w3.org/2000/svg" xmlns:xlink="http://www.w3.org/1999/xlink" x="0px" y="0px"
	 width="64px" height="59.999px" viewBox="0 0 64 59.999" style="enable-background:new 0 0 64 59.999;" xml:space="preserve">
<g id="Body_44_">
	<g>
		<path style="fill:#7F5B42;" d="M52,14H12c-4.418,0-8,3.581-8,7.999V52c0,4.418,3.582,7.999,8,7.999h40c4.418,0,8-3.581,8-7.999
			V21.999C60,17.581,56.418,14,52,14z"/>
	</g>
</g>
<g id="Divider">
	<g>
		<ellipse style="fill:#664935;" cx="32" cy="37.999" rx="4" ry="22"/>
	</g>
</g>
<g id="Body_45_">
	<g>
		<path style="fill-rule:evenodd;clip-rule:evenodd;fill:#FFA769;" d="M60,3.999H4C1.791,3.999,0,5.79,0,8v7.999v6v10
			C0,36.418,3.581,40,8,40h48c4.418,0,8-3.582,8-8.001v-10v-6V8C64,5.79,62.209,3.999,60,3.999z"/>
	</g>
</g>
<g id="Cords">
	<g>
		<path style="fill-rule:evenodd;clip-rule:evenodd;fill:#FDBC8E;" d="M18,0h-4c-1.104,0-2,0.895-2,2v4v2v40c0,2.208,1.791,8,4,8
			s4-5.792,4-8V8V6V2C20,0.895,19.104,0,18,0z M50,0h-4c-1.104,0-2,0.895-2,2v4v2v40c0,2.208,1.791,8,4,8s4-5.792,4-8V8V6V2
			C52,0.895,51.104,0,50,0z"/>
	</g>
</g>
<g id="Cord_2_">
	<g>
		<path style="fill-rule:evenodd;clip-rule:evenodd;fill:#D59D75;" d="M18,0h-4c-1.104,0-2,0.895-2,2v1.999h2h4h2V2
			C20,0.895,19.104,0,18,0z M50,0h-4c-1.104,0-2,0.895-2,2v1.999h2h4h2V2C52,0.895,51.104,0,50,0z"/>
	</g>
</g>
<g id="Buttons">
	<g>
		<path style="fill-rule:evenodd;clip-rule:evenodd;fill:#7F5B42;" d="M16,44c-1.104,0-2,0.895-2,2c0,1.104,0.896,2,2,2s2-0.896,2-2
			C18,44.895,17.104,44,16,44z M48,44c-1.104,0-2,0.895-2,2c0,1.104,0.896,2,2,2s2-0.896,2-2C50,44.895,49.104,44,48,44z"/>
	</g>
</g>
<g>
</g>
<g>
</g>
<g>
</g>
<g>
</g>
<g>
</g>
<g>
</g>
<g>
</g>
<g>
</g>
<g>
</g>
<g>
</g>
<g>
</g>
<g>
</g>
<g>
</g>
<g>
</g>
<g>
</g>
</svg>
