<?xml version="1.0" encoding="iso-8859-1"?>
<!-- Generator: Adobe Illustrator 16.0.0, SVG Export Plug-In . SVG Version: 6.00 Build 0)  -->
<!DOCTYPE svg PUBLIC "-//W3C//DTD SVG 1.1//EN" "http://www.w3.org/Graphics/SVG/1.1/DTD/svg11.dtd">
<svg version="1.1" id="Layer_1" xmlns="http://www.w3.org/2000/svg" xmlns:xlink="http://www.w3.org/1999/xlink" x="0px" y="0px"
	 width="64px" height="60px" viewBox="0 0 64 60" style="enable-background:new 0 0 64 60;" xml:space="preserve">
<g id="Handle_5_">
	<g>
		<path style="fill:#666666;" d="M40,0H24c-2.209,0-4,1.791-4,4v4h4.001V6H24c0-1.104,0.896-2,2-2h12c1.104,0,2,0.896,2,2v2h4V4
			C44,1.791,42.21,0,40,0z"/>
	</g>
</g>
<g id="Body_48_">
	<g>
		<path style="fill:#B3B3B3;" d="M60,8H4c-2.209,0-4,1.791-4,4v44c0,2.209,1.791,4,4,4h56c2.21,0,4-1.791,4-4V12
			C64,9.791,62.21,8,60,8z"/>
	</g>
</g>
<g id="Body_49_">
	<g>
		<rect x="8" y="16" style="fill:#CCCCCC;" width="48" height="36.001"/>
	</g>
</g>
<g id="Corners">
	<g>
		<path style="fill-rule:evenodd;clip-rule:evenodd;fill:#999999;" d="M56,60h4c2.21,0,4-1.791,4-4v-3.999h-8V60z M60,8H4
			c-2.209,0-4,1.791-4,4v44c0,2.209,1.791,4,4,4h4v-7.999H0.001V16H8V8.001h48V16h8v-4C64,9.791,62.21,8,60,8z"/>
	</g>
</g>
<g>
</g>
<g>
</g>
<g>
</g>
<g>
</g>
<g>
</g>
<g>
</g>
<g>
</g>
<g>
</g>
<g>
</g>
<g>
</g>
<g>
</g>
<g>
</g>
<g>
</g>
<g>
</g>
<g>
</g>
</svg>
