<?xml version="1.0" encoding="iso-8859-1"?>
<!-- Generator: Adobe Illustrator 16.0.0, SVG Export Plug-In . SVG Version: 6.00 Build 0)  -->
<!DOCTYPE svg PUBLIC "-//W3C//DTD SVG 1.1//EN" "http://www.w3.org/Graphics/SVG/1.1/DTD/svg11.dtd">
<svg version="1.1" id="Layer_1" xmlns="http://www.w3.org/2000/svg" xmlns:xlink="http://www.w3.org/1999/xlink" x="0px" y="0px"
	 width="64px" height="43.957px" viewBox="0 0 64 43.957" style="enable-background:new 0 0 64 43.957;" xml:space="preserve">
<g id="Shape_78_">
	<g>
		<path style="fill:#666666;" d="M22,0H10C7.791,0,6,1.79,6,3.996v7.992c0,2.208,1.791,3.997,4,3.997h12c2.209,0,4-1.789,4-3.997
			V3.996C26,1.79,24.209,0,22,0z"/>
	</g>
</g>
<g id="Shape_79_">
	<g>
		<path style="fill:#333333;" d="M60,0h-4c-2.209,0-4,1.79-4,3.996v31.97c0,2.206,1.791,3.995,4,3.995h4c2.209,0,4-1.789,4-3.995
			V3.996C64,1.79,62.209,0,60,0z"/>
	</g>
</g>
<g id="Shape_80_">
	<g>
		<path style="fill-rule:evenodd;clip-rule:evenodd;fill:#4D4D4D;" d="M48,3.996H38h-2c-1.104,0-2,0.895-2,1.998v1.998v23.977v1.998
			c0,1.104,0.896,1.999,2,1.999h2h10h4V3.996H48z"/>
	</g>
</g>
<g id="Shape_81_">
	<g>
		<path style="fill-rule:evenodd;clip-rule:evenodd;fill:#666666;" d="M30,9.99v19.98c0,2.208,1.791,3.996,4,3.996V5.994
			C31.791,5.994,30,7.783,30,9.99z"/>
	</g>
</g>
<g id="Grip_7_">
	<g>
		<path style="fill-rule:evenodd;clip-rule:evenodd;fill:#666666;" d="M42,9.99h4c1.104,0,2-0.894,2-1.998
			c0-1.104-0.896-1.998-2-1.998h-4c-1.104,0-2,0.895-2,1.998C40,9.097,40.896,9.99,42,9.99z M46,13.986h-4c-1.104,0-2,0.895-2,1.999
			c0,1.103,0.896,1.997,2,1.997h4c1.104,0,2-0.895,2-1.997C48,14.881,47.104,13.986,46,13.986z M46,21.979h-4
			c-1.104,0-2,0.896-2,1.998c0,1.104,0.896,1.998,2,1.998h4c1.104,0,2-0.895,2-1.998C48,22.874,47.104,21.979,46,21.979z M46,29.971
			h-4c-1.104,0-2,0.895-2,1.998s0.896,1.998,2,1.998h4c1.104,0,2-0.895,2-1.998S47.104,29.971,46,29.971z"/>
	</g>
</g>
<g id="Label_27_">
	<g>
		<rect x="56" style="fill:#9B7CAB;" width="4" height="39.961"/>
	</g>
</g>
<g id="Shape_82_">
	<g>
		<rect x="26" y="9.99" style="fill:#333333;" width="4" height="19.98"/>
	</g>
</g>
<g id="Viewfinder_5_">
	<g>
		<path style="fill:#333333;" d="M10,7.992H4c-2.209,0-4,1.789-4,3.996v5.994c0,2.207,1.791,3.996,4,3.996h6
			c2.209,0,4-1.789,4-3.996v-5.994C14,9.781,12.209,7.992,10,7.992z"/>
	</g>
</g>
<g id="Body_64_">
	<g>
		<path style="fill-rule:evenodd;clip-rule:evenodd;fill:#4D4D4D;" d="M22,7.992H8H4v3.996v1.998v25.975
			c0,2.208,1.791,3.996,4,3.996h14c2.209,0,4-1.788,4-3.996V13.986v-1.998V7.992H22z"/>
	</g>
</g>
<g id="Grip_8_">
	<g>
		<path style="fill-rule:evenodd;clip-rule:evenodd;fill:#666666;" d="M24,11.988h-2h-6c-1.104,0-2,0.896-2,1.998v23.977
			c0,1.104,0.896,1.998,2,1.998h6h2h2v-1.998V13.986v-1.998H24z"/>
	</g>
</g>
<g>
</g>
<g>
</g>
<g>
</g>
<g>
</g>
<g>
</g>
<g>
</g>
<g>
</g>
<g>
</g>
<g>
</g>
<g>
</g>
<g>
</g>
<g>
</g>
<g>
</g>
<g>
</g>
<g>
</g>
</svg>
