<?xml version="1.0" encoding="iso-8859-1"?>
<!-- Generator: Adobe Illustrator 16.0.0, SVG Export Plug-In . SVG Version: 6.00 Build 0)  -->
<!DOCTYPE svg PUBLIC "-//W3C//DTD SVG 1.1//EN" "http://www.w3.org/Graphics/SVG/1.1/DTD/svg11.dtd">
<svg version="1.1" id="Layer_1" xmlns="http://www.w3.org/2000/svg" xmlns:xlink="http://www.w3.org/1999/xlink" x="0px" y="0px"
	 width="64px" height="64px" viewBox="0 0 64 64" style="enable-background:new 0 0 64 64;" xml:space="preserve">
<g id="Film_Strip_2_">
	<g>
		<path style="fill-rule:evenodd;clip-rule:evenodd;fill:#CCCCCC;" d="M28,16.001h-2H4c-2.209,0-4,1.79-4,3.999v20.001
			c0,2.209,1.791,4,4,4h10h4c2.209,0,4,1.79,4,4v2c0,2.208,1.791,4,4,4h2h4v-4v-8v-2V20v-3.999H28z M8,28
			c0,1.105-0.896,2.001-2,2.001S4,29.105,4,28v-5.999C4,20.896,4.896,20,6,20s2,0.896,2,2.001V28z M16,28
			c0,1.105-0.896,2.001-2,2.001S12,29.105,12,28v-5.999C12,20.896,12.896,20,14,20s2,0.896,2,2.001V28z M24,28
			c0,1.105-0.896,2.001-2,2.001S20,29.105,20,28v-5.999C20,20.896,20.896,20,22,20s2,0.896,2,2.001V28z"/>
	</g>
</g>
<g id="Container_2_">
	<g>
		<path style="fill:#4D4D4D;" d="M58,8.001H30c-2.209,0-4,1.79-4,4v48C26,62.21,27.791,64,30,64h28c2.209,0,4-1.79,4-3.999v-48
			C62,9.791,60.209,8.001,58,8.001z"/>
	</g>
</g>
<g id="Caps">
	<g>
		<path style="fill-rule:evenodd;clip-rule:evenodd;fill:#808080;" d="M62,56.001H26c-1.104,0-2,0.895-2,2V62c0,1.104,0.896,2,2,2
			h36c1.104,0,2-0.896,2-2v-3.999C64,56.896,63.104,56.001,62,56.001z M62,6H26c-1.104,0-2,0.896-2,2.001v4c0,1.104,0.896,2,2,2h36
			c1.104,0,2-0.896,2-2v-4C64,6.896,63.104,6,62,6z"/>
	</g>
</g>
<g id="Shape_36_">
	<g>
		<path style="fill-rule:evenodd;clip-rule:evenodd;fill:#B3B3B3;" d="M48,0h-8c-2.209,0-4,1.791-4,4.001V6h16V4.001
			C52,1.791,50.209,0,48,0z"/>
	</g>
</g>
<g>
</g>
<g>
</g>
<g>
</g>
<g>
</g>
<g>
</g>
<g>
</g>
<g>
</g>
<g>
</g>
<g>
</g>
<g>
</g>
<g>
</g>
<g>
</g>
<g>
</g>
<g>
</g>
<g>
</g>
</svg>
