<?xml version="1.0" encoding="iso-8859-1"?>
<!-- Generator: Adobe Illustrator 16.0.0, SVG Export Plug-In . SVG Version: 6.00 Build 0)  -->
<!DOCTYPE svg PUBLIC "-//W3C//DTD SVG 1.1//EN" "http://www.w3.org/Graphics/SVG/1.1/DTD/svg11.dtd">
<svg version="1.1" id="Layer_1" xmlns="http://www.w3.org/2000/svg" xmlns:xlink="http://www.w3.org/1999/xlink" x="0px" y="0px"
	 width="48px" height="64px" viewBox="0 0 48 64" style="enable-background:new 0 0 48 64;" xml:space="preserve">
<g id="Body_42_">
	<g>
		<path style="fill:#614D6B;" d="M44,8.001H4c-2.209,0-4,1.79-4,4l4,48C4,62.21,5.791,64,8,64h32c2.209,0,4-1.79,4-3.999l4-48
			C48,9.791,46.209,8.001,44,8.001z"/>
	</g>
</g>
<g id="Shape_32_">
	<g>
		<rect x="16" y="8.001" style="fill:#786382;" width="16" height="55.999"/>
	</g>
</g>
<g id="handle">
	<g>
		<path style="fill-rule:evenodd;clip-rule:evenodd;fill:#999999;" d="M28,8.001v-6C28,0.896,27.104,0,26,0h-4
			c-1.104,0-2,0.896-2,2.001v6c-1.104,0-2,0.896-2,2v4c0,1.104,0.896,2,2,2h2h4h2c1.104,0,2-0.896,2-2v-4
			C30,8.896,29.104,8.001,28,8.001z"/>
	</g>
</g>
<g id="Shape_33_">
	<g>
		<polygon style="fill-rule:evenodd;clip-rule:evenodd;fill:#B3B3B3;" points="0.833,22.001 47.167,22.001 47.833,14.001 
			0.167,14.001 		"/>
	</g>
</g>
<g>
</g>
<g>
</g>
<g>
</g>
<g>
</g>
<g>
</g>
<g>
</g>
<g>
</g>
<g>
</g>
<g>
</g>
<g>
</g>
<g>
</g>
<g>
</g>
<g>
</g>
<g>
</g>
<g>
</g>
</svg>
