<?xml version="1.0" encoding="iso-8859-1"?>
<!-- Generator: Adobe Illustrator 16.0.0, SVG Export Plug-In . SVG Version: 6.00 Build 0)  -->
<!DOCTYPE svg PUBLIC "-//W3C//DTD SVG 1.1//EN" "http://www.w3.org/Graphics/SVG/1.1/DTD/svg11.dtd">
<svg version="1.1" id="Layer_1" xmlns="http://www.w3.org/2000/svg" xmlns:xlink="http://www.w3.org/1999/xlink" x="0px" y="0px"
	 width="64px" height="52px" viewBox="0 0 64 52" style="enable-background:new 0 0 64 52;" xml:space="preserve">
<g id="Body_32_">
	<g>
		<path style="fill-rule:evenodd;clip-rule:evenodd;fill:#9B7CAB;" d="M60,8H47.333L46,4.001C45.313,1.729,44.209,0,42,0H22
			c-2.209,0-3.25,1.729-4,4.001L16.667,8H14c0-2.209-1.791-3.999-4-3.999S6,5.791,6,8H4c-2.209,0-4,1.791-4,4v36c0,2.21,1.791,4,4,4
			h56c2.209,0,4-1.79,4-4V12C64,9.791,62.209,8,60,8z"/>
	</g>
</g>
<g id="Ring_15_">
	<g>
		<circle style="fill:#FFFFFF;" cx="32" cy="30" r="18"/>
	</g>
</g>
<g id="Ring_16_">
	<g>
		<circle style="fill:#9B7CAB;" cx="32" cy="30" r="14"/>
	</g>
</g>
<g id="Ring_17_">
	<g>
		<circle style="fill:#FFFFFF;" cx="32" cy="30" r="10"/>
	</g>
</g>
<g>
</g>
<g>
</g>
<g>
</g>
<g>
</g>
<g>
</g>
<g>
</g>
<g>
</g>
<g>
</g>
<g>
</g>
<g>
</g>
<g>
</g>
<g>
</g>
<g>
</g>
<g>
</g>
<g>
</g>
</svg>
