<?xml version="1.0" encoding="iso-8859-1"?>
<!-- Generator: Adobe Illustrator 16.0.0, SVG Export Plug-In . SVG Version: 6.00 Build 0)  -->
<!DOCTYPE svg PUBLIC "-//W3C//DTD SVG 1.1//EN" "http://www.w3.org/Graphics/SVG/1.1/DTD/svg11.dtd">
<svg version="1.1" id="Layer_1" xmlns="http://www.w3.org/2000/svg" xmlns:xlink="http://www.w3.org/1999/xlink" x="0px" y="0px"
	 width="64px" height="40.001px" viewBox="0 0 64 40.001" style="enable-background:new 0 0 64 40.001;" xml:space="preserve">
<g id="Mount_1_">
	<g>
		<path style="fill:#333333;" d="M4,6.001H2c-1.104,0-2,0.895-2,2V24c0,1.104,0.896,2.001,2,2.001h2c1.104,0,2-0.896,2-2.001V8.001
			C6,6.896,5.104,6.001,4,6.001z"/>
	</g>
</g>
<g id="Shape_44_">
	<g>
		<path style="fill-rule:evenodd;clip-rule:evenodd;fill:#B3B3B3;" d="M10,4.001H6c-1.104,0-2,0.895-2,2v20C4,27.104,4.896,28,6,28
			h4c1.104,0,2-0.896,2-1.999v-20C12,4.896,11.104,4.001,10,4.001z M16,2.001v28h8v-28H16z"/>
	</g>
</g>
<g id="Shape_45_">
	<g>
		<path style="fill-rule:evenodd;clip-rule:evenodd;fill:#333333;" d="M44,0h-2c-1.104,0-2,0.896-2,2.001v28c0,1.104,0.896,2,2,2h2
			h2h2v-2v-28V0h-2H44z M62,0h-2v2.001v28v2h2c1.104,0,2-0.896,2-2v-28C64,0.896,63.104,0,62,0z"/>
	</g>
</g>
<g id="Label_24_">
	<g>
		<rect x="56" style="fill:#ED7161;" width="4" height="32.001"/>
	</g>
</g>
<g id="Shape_46_">
	<g>
		<path style="fill-rule:evenodd;clip-rule:evenodd;fill:#CCCCCC;" d="M32,30.001h8v-28h-8V30.001z M48,0v32.001h8V0H48z"/>
	</g>
</g>
<g id="Shape_47_">
	<g>
		<rect x="24" y="2.001" style="fill:#4D4D4D;" width="8" height="28"/>
	</g>
</g>
<g id="Shape_48_">
	<g>
		<path style="fill-rule:evenodd;clip-rule:evenodd;fill:#CCCCCC;" d="M14,2.001h-2h-2c-1.104,0-2,0.895-2,2V28v2.001v2h2h4h2v-2V28
			V8.001v-4v-2H14z"/>
	</g>
</g>
<g id="Handle_6_">
	<g>
		<path style="fill-rule:evenodd;clip-rule:evenodd;fill:#B3B3B3;" d="M38,36.001H19l-3-4H8l6,8h4h4h16c1.104,0,2-0.896,2-2
			C40,36.896,39.104,36.001,38,36.001z"/>
	</g>
</g>
<g>
</g>
<g>
</g>
<g>
</g>
<g>
</g>
<g>
</g>
<g>
</g>
<g>
</g>
<g>
</g>
<g>
</g>
<g>
</g>
<g>
</g>
<g>
</g>
<g>
</g>
<g>
</g>
<g>
</g>
</svg>
