<?xml version="1.0" encoding="iso-8859-1"?>
<!-- Generator: Adobe Illustrator 16.0.0, SVG Export Plug-In . SVG Version: 6.00 Build 0)  -->
<!DOCTYPE svg PUBLIC "-//W3C//DTD SVG 1.1//EN" "http://www.w3.org/Graphics/SVG/1.1/DTD/svg11.dtd">
<svg version="1.1" id="Layer_1" xmlns="http://www.w3.org/2000/svg" xmlns:xlink="http://www.w3.org/1999/xlink" x="0px" y="0px"
	 width="64px" height="51.999px" viewBox="0 0 64 51.999" style="enable-background:new 0 0 64 51.999;" xml:space="preserve">
<g id="Body_36_">
	<g>
		<path style="fill:#666666;" d="M62,0H2C0.896,0,0,0.895,0,2v47.999c0,1.104,0.896,2,2,2h60c1.104,0,2-0.896,2-2V2
			C64,0.895,63.104,0,62,0z"/>
	</g>
</g>
<g id="Shape_29_">
	<g>
		<path style="fill-rule:evenodd;clip-rule:evenodd;fill:#CCCCCC;" d="M58,24c-1.104,0-2-0.896-2-2.001v-16C56,4.895,55.104,4,54,4
			H10C8.896,4,8,4.895,8,5.999v16C8,23.104,7.104,24,6,24s-2,0.895-2,2v19.999C4,47.104,4.896,48,6,48h52c1.104,0,2-0.896,2-2.001
			V26C60,24.895,59.104,24,58,24z"/>
	</g>
</g>
<g id="Label_18_">
	<g>
		<path style="fill-rule:evenodd;clip-rule:evenodd;fill:#FFFFFF;" d="M12,20v14v8c0,1.104,0.896,2,2,2h36c1.104,0,2-0.896,2-2v-8
			V20H12z"/>
	</g>
</g>
<g id="Label_19_">
	<g>
		<path style="fill-rule:evenodd;clip-rule:evenodd;fill:#48A0DC;" d="M50,7.999H14c-1.104,0-2,0.896-2,2.001v8v2h2h36h2v-2v-8
			C52,8.895,51.104,7.999,50,7.999z"/>
	</g>
</g>
<g>
</g>
<g>
</g>
<g>
</g>
<g>
</g>
<g>
</g>
<g>
</g>
<g>
</g>
<g>
</g>
<g>
</g>
<g>
</g>
<g>
</g>
<g>
</g>
<g>
</g>
<g>
</g>
<g>
</g>
</svg>
