<?xml version="1.0" encoding="iso-8859-1"?>
<!-- Generator: Adobe Illustrator 16.0.0, SVG Export Plug-In . SVG Version: 6.00 Build 0)  -->
<!DOCTYPE svg PUBLIC "-//W3C//DTD SVG 1.1//EN" "http://www.w3.org/Graphics/SVG/1.1/DTD/svg11.dtd">
<svg version="1.1" id="Layer_1" xmlns="http://www.w3.org/2000/svg" xmlns:xlink="http://www.w3.org/1999/xlink" x="0px" y="0px"
	 width="52px" height="64.001px" viewBox="0 0 52 64.001" style="enable-background:new 0 0 52 64.001;" xml:space="preserve">
<g id="Legs_6_">
	<g>
		<path style="fill:#4D4D4D;" d="M26,46.001c-1.104,0-2,0.896-2,2v14c0,1.104,0.896,2,2,2s2-0.896,2-2v-14
			C28,46.896,27.104,46.001,26,46.001z"/>
	</g>
</g>
<g id="Legs_7_">
	<g>
		<path style="fill:#4D4D4D;" d="M33.999,60.002H18c-1.104,0-2.001,0.895-2.001,2c0,1.104,0.896,1.999,2.001,1.999h15.999
			c1.104,0,2.001-0.896,2.001-1.999C36,60.896,35.104,60.002,33.999,60.002z"/>
	</g>
</g>
<g id="Back_2_">
	<g>
		<path style="fill:#ED7161;" d="M44,4.001C44,1.791,42.209,0,40,0H12C9.791,0,8,1.791,8,4.001c0,0,3.378,14.4,4,19.999
			c1.184,10.658,0,16,0,16c0,2.21,1.791,4,4,4h20c2.209,0,4-1.79,4-4c0,0-1.185-5.345,0-16C40.627,18.356,44,4.001,44,4.001z"/>
	</g>
</g>
<g id="Arm_2_">
	<g>
		<polygon style="fill-rule:evenodd;clip-rule:evenodd;fill:#808080;" points="46,32.001 46,42.001 6,42.001 6,32.001 2,32.001 
			2,42.001 2,44 2,46 50,46 50,44 50,42.001 50,32.001 		"/>
	</g>
</g>
<g id="Arm_Rest_1_">
	<g>
		<path style="fill-rule:evenodd;clip-rule:evenodd;fill:#4D4D4D;" d="M5,28H3c-1.657,0-3,1.344-3,3c0,1.657,1.343,3,3,3h2
			c1.656,0,3-1.343,3-3C8,29.344,6.656,28,5,28z M49,28h-2c-1.657,0-3,1.344-3,3c0,1.657,1.343,3,3,3h2c1.656,0,3-1.343,3-3
			C52,29.344,50.656,28,49,28z"/>
	</g>
</g>
<g id="Sitter_2_">
	<g>
		<path style="fill:#BA594C;" d="M42,40H10c-2.209,0-4,1.791-4,4s1.791,4,4,4h32c2.209,0,4-1.791,4-4S44.209,40,42,40z"/>
	</g>
</g>
<g>
</g>
<g>
</g>
<g>
</g>
<g>
</g>
<g>
</g>
<g>
</g>
<g>
</g>
<g>
</g>
<g>
</g>
<g>
</g>
<g>
</g>
<g>
</g>
<g>
</g>
<g>
</g>
<g>
</g>
</svg>
