<?xml version="1.0" encoding="iso-8859-1"?>
<!-- Generator: Adobe Illustrator 16.0.0, SVG Export Plug-In . SVG Version: 6.00 Build 0)  -->
<!DOCTYPE svg PUBLIC "-//W3C//DTD SVG 1.1//EN" "http://www.w3.org/Graphics/SVG/1.1/DTD/svg11.dtd">
<svg version="1.1" id="Layer_1" xmlns="http://www.w3.org/2000/svg" xmlns:xlink="http://www.w3.org/1999/xlink" x="0px" y="0px"
	 width="64px" height="46px" viewBox="0 0 64 46" style="enable-background:new 0 0 64 46;" xml:space="preserve">
<g id="Legs_5_">
	<g>
		<path style="fill-rule:evenodd;clip-rule:evenodd;fill:#4D4D4D;" d="M12,26c-1.104,0-2,0.896-2,2v15.999
			C10,45.104,10.896,46,12,46s2-0.896,2-2.001V28C14,26.896,13.104,26,12,26z M52,26c-1.104,0-2,0.896-2,2v15.999
			C50,45.104,50.896,46,52,46s2-0.896,2-2.001V28C54,26.896,53.104,26,52,26z"/>
	</g>
</g>
<g id="Back_1_">
	<g>
		<path style="fill:#BA594C;" d="M48,0H16c-4.419,0-8,3.581-8,7.999V28c0,4.418,3.581,8,8,8h32c4.418,0,8-3.582,8-8V7.999
			C56,3.581,52.418,0,48,0z"/>
	</g>
</g>
<g id="Arm_Rest">
	<g>
		<path style="fill-rule:evenodd;clip-rule:evenodd;fill:#ED7161;" d="M64,20c0-3.314-2.687-6.001-6-6.001c-3.314,0-6,2.687-6,6.001
			v8c0,2.209-1.791,4-4,4H16c-2.209,0-4-1.791-4-4v-8c0-3.314-2.687-6.001-6-6.001c-3.314,0-6,2.687-6,6.001
			c0,2.611,1.671,4.827,4,5.651V34c0,4.418,3.581,8,8,8h40c4.418,0,8-3.582,8-8v-8.349C62.329,24.826,64,22.611,64,20z"/>
	</g>
</g>
<g id="Sitter_1_">
	<g>
		<path style="fill:#ED7161;" d="M46,20.001H18c-1.104,0-2,0.895-2,2v4c0,1.104,0.896,2,2,2h28c1.104,0,2-0.896,2-2v-4
			C48,20.896,47.104,20.001,46,20.001z"/>
	</g>
</g>
<g>
</g>
<g>
</g>
<g>
</g>
<g>
</g>
<g>
</g>
<g>
</g>
<g>
</g>
<g>
</g>
<g>
</g>
<g>
</g>
<g>
</g>
<g>
</g>
<g>
</g>
<g>
</g>
<g>
</g>
</svg>
