<?xml version="1.0" encoding="iso-8859-1"?>
<!-- Generator: Adobe Illustrator 16.0.0, SVG Export Plug-In . SVG Version: 6.00 Build 0)  -->
<!DOCTYPE svg PUBLIC "-//W3C//DTD SVG 1.1//EN" "http://www.w3.org/Graphics/SVG/1.1/DTD/svg11.dtd">
<svg version="1.1" id="Layer_1" xmlns="http://www.w3.org/2000/svg" xmlns:xlink="http://www.w3.org/1999/xlink" x="0px" y="0px"
	 width="62.026px" height="69.999px" viewBox="0 0 62.026 69.999" style="enable-background:new 0 0 62.026 69.999;"
	 xml:space="preserve">
<g id="Body_20_">
	<g>
		<path style="fill:#666666;" d="M60.014,31.999h-56c-1.105,0-2,0.896-2,2v34c0,1.104,0.895,2,2,2h56c1.104,0,2-0.896,2-2v-34
			C62.014,32.895,61.118,31.999,60.014,31.999z"/>
	</g>
</g>
<g id="Shape_9_">
	<g>
		<path style="fill:#4D4D4D;" d="M61.958,15.459l-2.07-7.939c-0.286-1.097-1.383-1.747-2.449-1.454L1.482,28.022
			c-1.066,0.294-1.7,1.421-1.414,2.517l2.07,7.94c0.286,1.096,1.383,1.747,2.449,1.453l55.956-21.956
			C61.611,17.683,62.244,16.556,61.958,15.459z"/>
	</g>
</g>
<g id="Lines">
	<g>
		<path style="fill-rule:evenodd;clip-rule:evenodd;fill:#666666;" d="M12.014,34.857l4-1.572V24.5l-4,1.571V34.857z M20.014,31.714
			l4-1.571v-8.785l-4,1.571V31.714z M4.014,38l4-1.571v-8.786l-4,1.571V38z M28.014,28.571l4-1.571v-8.786l-4,1.572V28.571z
			 M52.014,10.357v8.784l4-1.571V8.786L52.014,10.357z M36.014,25.428l4-1.571v-8.785l-4,1.571V25.428z M44.014,22.285l4-1.571
			v-8.785l-4,1.571V22.285z"/>
	</g>
</g>
<g id="Shape_10_">
	<g>
		<path style="fill-rule:evenodd;clip-rule:evenodd;fill:#333333;" d="M60.014,31.999h-56c-1.105,0-2,0.896-2,2v2V38v1.999h2h56h2
			V38v-2.001v-2C62.014,32.895,61.118,31.999,60.014,31.999z"/>
	</g>
</g>
<g id="Writting">
	<g>
		<path style="fill-rule:evenodd;clip-rule:evenodd;fill:#B3B3B3;" d="M52.014,47.998h-40c-1.105,0-2,0.896-2,2.001s0.895,2,2,2h40
			c1.104,0,2-0.896,2-2S53.118,47.998,52.014,47.998z M40.014,55.999h-28c-1.105,0-2,0.895-2,2c0,1.104,0.895,2,2,2h28
			c1.104,0,2-0.896,2-2C42.014,56.894,41.118,55.999,40.014,55.999z"/>
	</g>
</g>
<g>
</g>
<g>
</g>
<g>
</g>
<g>
</g>
<g>
</g>
<g>
</g>
<g>
</g>
<g>
</g>
<g>
</g>
<g>
</g>
<g>
</g>
<g>
</g>
<g>
</g>
<g>
</g>
<g>
</g>
</svg>
