<?xml version="1.0" encoding="iso-8859-1"?>
<!-- Generator: Adobe Illustrator 16.0.0, SVG Export Plug-In . SVG Version: 6.00 Build 0)  -->
<!DOCTYPE svg PUBLIC "-//W3C//DTD SVG 1.1//EN" "http://www.w3.org/Graphics/SVG/1.1/DTD/svg11.dtd">
<svg version="1.1" id="Layer_1" xmlns="http://www.w3.org/2000/svg" xmlns:xlink="http://www.w3.org/1999/xlink" x="0px" y="0px"
	 width="64px" height="64px" viewBox="0 0 64 64" style="enable-background:new 0 0 64 64;" xml:space="preserve">
<g id="Black_Balance">
	<g>
		<path style="fill:#4D4D4D;" d="M60,0H4C1.791,0,0,1.791,0,4v56.001C0,62.21,1.791,64,4,64h56c2.209,0,4-1.79,4-3.999V4
			C64,1.791,62.209,0,60,0z"/>
	</g>
</g>
<g id="White_balance">
	<g>
		<path style="fill:#FFFFFF;" d="M58,4L4,58c0,1.104,0.896,2.001,2,2.001h52c1.104,0,2-0.896,2-2.001V6C60,4.896,59.104,4,58,4z"/>
	</g>
</g>
<g id="Minus">
	<g>
		<path style="fill:#4D4D4D;" d="M50,42H34c-1.104,0-2,0.896-2,2.001C32,45.104,32.896,46,34,46h16c1.105,0,2.001-0.896,2.001-1.999
			C52.001,42.896,51.105,42,50,42z"/>
	</g>
</g>
<g id="Plus">
	<g>
		<path style="fill-rule:evenodd;clip-rule:evenodd;fill:#FFFFFF;" d="M26,16h-6v-5.999c0-1.104-0.896-2-2-2s-2,0.896-2,2V16h-6
			c-1.104,0-2,0.896-2,2.001c0,1.104,0.896,2,2,2h6v6c0,1.105,0.896,2.001,2,2.001s2-0.896,2-2.001v-6h6
			c1.105,0,2.001-0.896,2.001-2C28.001,16.896,27.105,16,26,16z"/>
	</g>
</g>
<g>
</g>
<g>
</g>
<g>
</g>
<g>
</g>
<g>
</g>
<g>
</g>
<g>
</g>
<g>
</g>
<g>
</g>
<g>
</g>
<g>
</g>
<g>
</g>
<g>
</g>
<g>
</g>
<g>
</g>
</svg>
