<?xml version="1.0" encoding="iso-8859-1"?>
<!-- Generator: Adobe Illustrator 16.0.0, SVG Export Plug-In . SVG Version: 6.00 Build 0)  -->
<!DOCTYPE svg PUBLIC "-//W3C//DTD SVG 1.1//EN" "http://www.w3.org/Graphics/SVG/1.1/DTD/svg11.dtd">
<svg version="1.1" id="Layer_1" xmlns="http://www.w3.org/2000/svg" xmlns:xlink="http://www.w3.org/1999/xlink" x="0px" y="0px"
	 width="64.006px" height="63.987px" viewBox="0 0 64.006 63.987" style="enable-background:new 0 0 64.006 63.987;"
	 xml:space="preserve">
<g id="Screen_3_">
	<g>
		<path style="fill:#88C057;" d="M60.307,0.002C60.303,0.002,60.3,0,60.296,0H3.71C3.706,0,3.703,0.002,3.699,0.002
			C1.655,0.008,0,1.613,0,3.594v6.39v50.294c0,2.049,1.661,3.71,3.71,3.71h56.586c2.049,0,3.71-1.661,3.71-3.71V9.983v-6.39
			C64.006,1.613,62.351,0.008,60.307,0.002z"/>
	</g>
</g>
<g id="Screen_2_">
	<g>
		<path style="fill:#FFFFFF;" d="M58.006,3.999h-52c-1.104,0-2,0.896-2,1.999v52c0,1.105,0.896,2.001,2,2.001h52
			c1.104,0,2-0.896,2-2.001v-52C60.006,4.895,59.11,3.999,58.006,3.999z"/>
	</g>
</g>
<g id="Shape_25_">
	<g>
		<path style="fill-rule:evenodd;clip-rule:evenodd;fill:#CCCCCC;" d="M60.006,29.999h-6.095
			C52.96,19.446,44.56,11.044,34.006,10.093V3.999h-2h-2h-24c-1.104,0-2,0.896-2,1.999v24.001v2v2h6.095
			c0.952,10.553,9.353,18.953,19.905,19.904v6.096h4v-6.096c10.553-0.951,18.953-9.352,19.905-19.904h6.095V29.999z M49.889,29.999
			H34.006V14.115C42.347,15.039,48.966,21.657,49.889,29.999z M14.123,33.999h15.883v15.883
			C21.664,48.959,15.047,42.34,14.123,33.999z M34.006,49.882V33.999h15.883C48.965,42.34,42.347,48.958,34.006,49.882z"/>
	</g>
</g>
<g id="_x33__2_">
	<g>
		<path style="fill-rule:evenodd;clip-rule:evenodd;fill:#4D4D4D;" d="M40.006,21.999c0-0.011-0.003-0.021-0.003-0.031
			c0.009-0.503-0.176-1.008-0.56-1.392c-0.285-0.285-0.639-0.46-1.008-0.528c-0.139-0.03-0.282-0.049-0.43-0.049h-12
			c-1.104,0-2,0.896-2,2s0.896,2,2,2h7.3l-4.724,4.724c-0.75,0.75-0.75,1.965,0,2.715c0.393,0.393,0.912,0.574,1.426,0.556
			l-0.002,0.006h2c2.209,0,4,1.79,4,4c0,2.209-1.791,4-4,4s-4-1.791-4-4c0-1.104-0.896-2-2-2s-2,0.896-2,2c0,4.418,3.582,8,8,8
			s8-3.582,8-8c0-3.593-2.368-6.632-5.628-7.643l4.646-4.645C39.609,23.363,40.006,22.73,40.006,21.999z"/>
	</g>
</g>
<g>
</g>
<g>
</g>
<g>
</g>
<g>
</g>
<g>
</g>
<g>
</g>
<g>
</g>
<g>
</g>
<g>
</g>
<g>
</g>
<g>
</g>
<g>
</g>
<g>
</g>
<g>
</g>
<g>
</g>
</svg>
