<?xml version="1.0" encoding="iso-8859-1"?>
<!-- Generator: Adobe Illustrator 16.0.0, SVG Export Plug-In . SVG Version: 6.00 Build 0)  -->
<!DOCTYPE svg PUBLIC "-//W3C//DTD SVG 1.1//EN" "http://www.w3.org/Graphics/SVG/1.1/DTD/svg11.dtd">
<svg version="1.1" id="Layer_1" xmlns="http://www.w3.org/2000/svg" xmlns:xlink="http://www.w3.org/1999/xlink" x="0px" y="0px"
	 width="64px" height="56px" viewBox="0 0 64 56" style="enable-background:new 0 0 64 56;" xml:space="preserve">
<g id="Rounded_Rectangle_166">
	<g>
		<path style="fill:#FFFFFF;" d="M60,0H4C1.791,0,0,1.791,0,4v48c0,2.209,1.791,4,4,4h56c2.209,0,4-1.791,4-4V4
			C64,1.791,62.209,0,60,0z"/>
	</g>
</g>
<g id="Rounded_Rectangle_166_1_">
	<g>
		<path style="fill-rule:evenodd;clip-rule:evenodd;fill:#88C057;" d="M60,0H4C1.791,0,0,1.791,0,4v48c0,2.209,1.791,4,4,4h56
			c2.209,0,4-1.791,4-4V4C64,1.791,62.209,0,60,0z M60,50c0,1.104-0.896,2-2,2H6c-1.104,0-2-0.896-2-2V5.999C4,4.895,4.896,4,6,4h52
			c1.104,0,2,0.895,2,1.999V50z"/>
	</g>
</g>
<g id="Digits">
	<g>
		<path style="fill-rule:evenodd;clip-rule:evenodd;fill:#CCCCCC;" d="M8,10v16l2,2l2-2V10l-2-2L8,10z M8,46l2,2l2-2V29.999L10,28
			l-2,1.999V46z M40,10l-2-2l-2,2v16l2,2l2-2V10z M38,28l-2,1.999V46l2,2l2-2V29.999L38,28z M42,44l-2,2l2,2h8l2-2l-2-2H42z
			 M42,29.999h8L52,28l-2-2h-8l-2,2L42,29.999z"/>
	</g>
</g>
<g id="_x37_">
	<g>
		<path style="fill-rule:evenodd;clip-rule:evenodd;fill:#4D4D4D;" d="M56,10l-2-2l-2,2v16l2,2l2-2V10z M42,8l-2,2l2,2h8l2-2l-2-2
			H42z M52,46l2,2l2-2V29.999L54,28l-2,1.999V46z"/>
	</g>
</g>
<g id="_x33__3_">
	<g>
		<path style="fill-rule:evenodd;clip-rule:evenodd;fill:#4D4D4D;" d="M28,10l-2-2l-2,2v16l2,2l2-2V10z M14,8l-2,2l2,2h8l2-2l-2-2
			H14z M14,44l-2,2l2,2h8l2-2l-2-2H14z M22,29.999L24,28l-2-2h-8l-2,2l2,1.999H22z M24,46l2,2l2-2V29.999L26,28l-2,1.999V46z"/>
	</g>
</g>
<g>
</g>
<g>
</g>
<g>
</g>
<g>
</g>
<g>
</g>
<g>
</g>
<g>
</g>
<g>
</g>
<g>
</g>
<g>
</g>
<g>
</g>
<g>
</g>
<g>
</g>
<g>
</g>
<g>
</g>
</svg>
