<?xml version="1.0" encoding="iso-8859-1"?>
<!-- Generator: Adobe Illustrator 16.0.0, SVG Export Plug-In . SVG Version: 6.00 Build 0)  -->
<!DOCTYPE svg PUBLIC "-//W3C//DTD SVG 1.1//EN" "http://www.w3.org/Graphics/SVG/1.1/DTD/svg11.dtd">
<svg version="1.1" id="Layer_1" xmlns="http://www.w3.org/2000/svg" xmlns:xlink="http://www.w3.org/1999/xlink" x="0px" y="0px"
	 width="64.045px" height="64.046px" viewBox="0 0 64.045 64.046" style="enable-background:new 0 0 64.045 64.046;"
	 xml:space="preserve">
<g id="Handle">
	<g>
		<path style="fill-rule:evenodd;clip-rule:evenodd;fill:#BA594C;" d="M40.506,39.528c-4.679-4.68-12.265-4.68-16.943,0
			c-4.678,4.678-4.678,12.263,0,16.941c4.679,4.68,12.265,4.68,16.943,0C45.184,51.791,45.184,44.206,40.506,39.528z M37.682,53.646
			c-3.119,3.118-8.176,3.118-11.295,0c-3.119-3.119-3.119-8.177,0-11.295c3.119-3.119,8.176-3.119,11.295,0
			C40.801,45.47,40.801,50.527,37.682,53.646z"/>
	</g>
</g>
<g id="Tube">
	<g>
		<polygon style="fill:#ED7161;" points="36.617,2.066 4.066,48.718 15.379,60.042 62.042,27.484 		"/>
	</g>
</g>
<g id="Shape_8_">
	<g>
		<path style="fill-rule:evenodd;clip-rule:evenodd;fill:#CCCCCC;" d="M7.077,45.239c-1.619-1.619-4.244-1.619-5.863,0
			s-1.619,4.245,0,5.864l11.728,11.728c1.619,1.619,4.244,1.619,5.863,0s1.619-4.244,0-5.863L7.077,45.239z M62.873,26.653
			L37.394,1.173c-1.563-1.563-4.099-1.563-5.663,0c-1.563,1.564-1.563,4.099,0,5.662l25.48,25.479c1.563,1.564,4.099,1.564,5.662,0
			C64.437,30.751,64.437,28.216,62.873,26.653z"/>
	</g>
</g>
<g>
</g>
<g>
</g>
<g>
</g>
<g>
</g>
<g>
</g>
<g>
</g>
<g>
</g>
<g>
</g>
<g>
</g>
<g>
</g>
<g>
</g>
<g>
</g>
<g>
</g>
<g>
</g>
<g>
</g>
</svg>
