<?xml version="1.0" encoding="iso-8859-1"?>
<!-- Generator: Adobe Illustrator 16.0.0, SVG Export Plug-In . SVG Version: 6.00 Build 0)  -->
<!DOCTYPE svg PUBLIC "-//W3C//DTD SVG 1.1//EN" "http://www.w3.org/Graphics/SVG/1.1/DTD/svg11.dtd">
<svg version="1.1" id="Layer_1" xmlns="http://www.w3.org/2000/svg" xmlns:xlink="http://www.w3.org/1999/xlink" x="0px" y="0px"
	 width="72px" height="67.999px" viewBox="0 0 72 67.999" style="enable-background:new 0 0 72 67.999;" xml:space="preserve">
<g id="T-Shirt">
	<g>
		<path style="fill:#4D4D4D;" d="M60,51.999c-1.881-1.88-18-10-18-10H22c0,0-16.12,8.12-18,10c-3.76,3.761-4,16-4,16h64
			C64,67.999,63.76,55.76,60,51.999z"/>
	</g>
</g>
<g id="Shirt">
	<g>
		<path style="fill:#333333;" d="M40,39.999H24L22,42c0,0,3.372,5.999,10,5.999c6.627,0,10-5.999,10-5.999L40,39.999z"/>
	</g>
</g>
<g id="Neck">
	<g>
		<path style="fill:#DBB59A;" d="M38,33.999H26l-2,6c0,1.104,4.895,4,6,4h4c1.104,0,6-2.896,6-4L38,33.999z"/>
	</g>
</g>
<g id="Head">
	<g>
		<path style="fill:#F6CBAD;" d="M32,5.999c-7.732,0-14,4-14,12c0,6,2,10,4,14s6.081,8,10,8c3.918,0,8-4,10-8s4-8,4-14
			C46,9.999,39.731,5.999,32,5.999z"/>
	</g>
</g>
<g id="Beard">
	<g>
		<path style="fill-rule:evenodd;clip-rule:evenodd;fill:#4D4D4D;" d="M38,32c0,0-2-0.063-2-2s-4-2-4-2s-4,0.313-4,2s-2,2-2,2
			c-2.872,0-4.82-2.268-5.607-3.388c0.511,1.153,1.052,2.276,1.607,3.387c2,4,6.081,8,10,8c3.918,0,8-4,10-8
			c0.575-1.149,1.137-2.311,1.663-3.509C41.443,31.542,38,32,38,32z M32,34c-1.104,0-2,1.104-2,0c0-1.105,0.896-2,2-2s2,0.895,2,2
			C34,35.104,33.104,34,32,34z"/>
	</g>
</g>
<g id="Hair">
	<g>
		<path style="fill:#4D4D4D;" d="M32,3.999c-4.685,0-10,1.73-10,4.001c-2.958,0-4,6.617-4,11.999c0,0.898,0.08,1.843,0.205,2.804
			c0.515-2.646,2.105-6.804,5.795-6.804c3.453,0,2.108,0,8,0c3.063,0,8,0.503,8-2c2.596-0.034,6,1.66,6,6
			C46,12.135,44.715,3.999,32,3.999z"/>
	</g>
</g>
<g>
</g>
<g>
</g>
<g>
</g>
<g>
</g>
<g>
</g>
<g>
</g>
<g>
</g>
<g>
</g>
<g>
</g>
<g>
</g>
<g>
</g>
<g>
</g>
<g>
</g>
<g>
</g>
<g>
</g>
</svg>
