<?xml version="1.0" encoding="iso-8859-1"?>
<!-- Generator: Adobe Illustrator 16.0.0, SVG Export Plug-In . SVG Version: 6.00 Build 0)  -->
<!DOCTYPE svg PUBLIC "-//W3C//DTD SVG 1.1//EN" "http://www.w3.org/Graphics/SVG/1.1/DTD/svg11.dtd">
<svg version="1.1" id="Layer_1" xmlns="http://www.w3.org/2000/svg" xmlns:xlink="http://www.w3.org/1999/xlink" x="0px" y="0px"
	 width="56px" height="64.001px" viewBox="0 0 56 64.001" style="enable-background:new 0 0 56 64.001;" xml:space="preserve">
<g id="Legs_3_">
	<g>
		<path style="fill-rule:evenodd;clip-rule:evenodd;fill:#808080;" d="M49.774,37c-0.554-0.956-1.779-1.283-2.738-0.731L28,48.933
			L8.963,36.269C8.004,35.717,6.778,36.044,6.225,37C5.672,37.957,6,39.18,6.959,39.732l17.436,11.599l-13.436,8.938
			C10,60.82,9.671,62.044,10.225,63c0.554,0.957,1.779,1.285,2.738,0.732L28,53.729l15.036,10.003
			c0.959,0.553,2.185,0.225,2.738-0.732c0.554-0.956,0.226-2.18-0.733-2.731l-13.436-8.938l17.436-11.599
			C50,39.18,50.328,37.957,49.774,37z"/>
	</g>
</g>
<g id="Bar">
	<g>
		<path style="fill-rule:evenodd;clip-rule:evenodd;fill:#808080;" d="M4,18c-1.104,0-2,0.896-2,2v16c0,1.104,0.896,2,2,2
			s2-0.896,2-2V20C6,18.896,5.104,18,4,18z M52,18c-1.104,0-2,0.896-2,2v16c0,1.104,0.896,2,2,2s2-0.896,2-2V20
			C54,18.896,53.104,18,52,18z"/>
	</g>
</g>
<g id="Hans_Rest">
	<g>
		<path style="fill-rule:evenodd;clip-rule:evenodd;fill:#404040;" d="M6,18H2c-1.104,0-2,0.896-2,2c0,1.105,0.896,2,2,2h4
			c1.104,0,2-0.895,2-2C8,18.896,7.104,18,6,18z M54,18h-4c-1.105,0-2,0.896-2,2c0,1.105,0.895,2,2,2h4c1.104,0,2-0.895,2-2
			C56,18.896,55.104,18,54,18z"/>
	</g>
</g>
<g id="Sitter">
	<g>
		<path style="fill:#7EB350;" d="M52,32.001H4c-2.209,0-4,1.79-4,3.999s1.791,4.001,4,4.001h48c2.209,0,4-1.792,4-4.001
			S54.209,32.001,52,32.001z"/>
	</g>
</g>
<g id="Back_Bars">
	<g>
		<path style="fill-rule:evenodd;clip-rule:evenodd;fill:#666666;" d="M12,10c-1.105,0-2,0.896-2,2.001v20h4v-20
			C14,10.896,13.104,10,12,10z M44,10c-1.105,0-2,0.896-2,2.001v20h4v-20C46,10.896,45.104,10,44,10z"/>
	</g>
</g>
<g id="Back">
	<g>
		<path style="fill:#88C057;" d="M44,0H12c-1.105,0-2,0.896-2,2v12c0,1.105,0.895,2,2,2h32c1.104,0,2-0.895,2-2V2
			C46,0.896,45.104,0,44,0z"/>
	</g>
</g>
<g>
</g>
<g>
</g>
<g>
</g>
<g>
</g>
<g>
</g>
<g>
</g>
<g>
</g>
<g>
</g>
<g>
</g>
<g>
</g>
<g>
</g>
<g>
</g>
<g>
</g>
<g>
</g>
<g>
</g>
</svg>
