<?xml version="1.0" encoding="iso-8859-1"?>
<!-- Generator: Adobe Illustrator 16.0.0, SVG Export Plug-In . SVG Version: 6.00 Build 0)  -->
<!DOCTYPE svg PUBLIC "-//W3C//DTD SVG 1.1//EN" "http://www.w3.org/Graphics/SVG/1.1/DTD/svg11.dtd">
<svg version="1.1" id="Layer_1" xmlns="http://www.w3.org/2000/svg" xmlns:xlink="http://www.w3.org/1999/xlink" x="0px" y="0px"
	 width="72px" height="64px" viewBox="0 0 72 64" style="enable-background:new 0 0 72 64;" xml:space="preserve">
<g id="Base_10_">
	<g>
		<path style="fill:#FFCC66;" d="M60,19.999H4c-2.209,0-4,1.791-4,4v32c0,2.209,1.791,4,4,4h56c2.21,0,4.001-1.791,4.001-4v-32
			C64,21.79,62.209,19.999,60,19.999z"/>
	</g>
</g>
<g id="Grip_9_">
	<g>
		<path style="fill-rule:evenodd;clip-rule:evenodd;fill:#666666;" d="M0,23.999v32c0,2.209,1.791,4,4,4h10.986
			c-2.853-5.382-5.958-15.524,2.618-26.25c3.645-4.559,5.172-9.305,5.513-13.75H4C1.791,19.999,0,21.79,0,23.999z M60,19.999h-6h-2
			h-4V24v4c0,2.209,1.791,4,4,4h6h2h4v-4v-4C64,21.79,62.209,19.999,60,19.999z"/>
	</g>
</g>
<g id="Camera_Lens_4_">
	<g>
		<path style="fill-rule:evenodd;clip-rule:evenodd;fill:#4D4D4D;" d="M42,38.476V28c0-1.105-0.896-2.001-2-2.001h-8
			c-1.105,0-2,0.896-2,2.001v6.148c-5.673,0.795-10,4.897-10,9.85c0,5.523,5.373,10.001,12,10.001s12-4.478,12-10.001
			C44,41.956,43.262,40.059,42,38.476z"/>
	</g>
</g>
<g id="Viewfinder_6_">
	<g>
		<rect x="34" y="30" style="fill:#999999;" width="4" height="4"/>
	</g>
</g>
<g id="Lens_31_">
	<g>
		<path style="fill:#333333;" d="M34,39.999h-4c-2.209,0-4,1.791-4,4s1.791,4,4,4h4c2.209,0,4-1.791,4-4S36.209,39.999,34,39.999z"
			/>
	</g>
</g>
<g id="Blitz_4_">
	<g>
		<ellipse style="fill:#FFFFFF;" cx="56" cy="26" rx="4" ry="2"/>
	</g>
</g>
<g>
</g>
<g>
</g>
<g>
</g>
<g>
</g>
<g>
</g>
<g>
</g>
<g>
</g>
<g>
</g>
<g>
</g>
<g>
</g>
<g>
</g>
<g>
</g>
<g>
</g>
<g>
</g>
<g>
</g>
</svg>
