<?xml version="1.0" encoding="iso-8859-1"?>
<!-- Generator: Adobe Illustrator 16.0.0, SVG Export Plug-In . SVG Version: 6.00 Build 0)  -->
<!DOCTYPE svg PUBLIC "-//W3C//DTD SVG 1.1//EN" "http://www.w3.org/Graphics/SVG/1.1/DTD/svg11.dtd">
<svg version="1.1" id="Layer_1" xmlns="http://www.w3.org/2000/svg" xmlns:xlink="http://www.w3.org/1999/xlink" x="0px" y="0px"
	 width="52px" height="56px" viewBox="0 0 52 56" style="enable-background:new 0 0 52 56;" xml:space="preserve">
<g id="Mount_3_">
	<g>
		<path style="fill:#B3B3B3;" d="M34,48H18c-1.104,0-2,0.895-2,2v4c0,1.104,0.896,2,2,2h16c1.104,0,2-0.896,2-2v-4
			C36,48.895,35.104,48,34,48z"/>
	</g>
</g>
<g id="Shape_59_">
	<g>
		<path style="fill:#333333;" d="M48,0H4C1.791,0,0,1.79,0,3.999V6c0,2.209,1.791,4,4,4h44c2.209,0,4-1.791,4-4V3.999
			C52,1.79,50.209,0,48,0z"/>
	</g>
</g>
<g id="Body_55_">
	<g>
		<polygon style="fill-rule:evenodd;clip-rule:evenodd;fill:#4D4D4D;" points="48,3.999 4,3.999 0,3.999 0,12 6,28 46,28 52,12 
			52,3.999 		"/>
	</g>
</g>
<g id="Shape_60_">
	<g>
		<path style="fill-rule:evenodd;clip-rule:evenodd;fill:#666666;" d="M12,44v4c0,2.209,1.791,4,4,4h20c2.209,0,4-1.791,4-4v-4H12z"
			/>
	</g>
</g>
<g id="Shape_61_">
	<g>
		<path style="fill-rule:evenodd;clip-rule:evenodd;fill:#333333;" d="M40,35.999H12h-2V38v2v1.999C10,43.104,10.896,44,12,44h28
			c1.104,0,2-0.896,2-2.001V40v-2v-2.001H40z"/>
	</g>
</g>
<g id="Shape_62_">
	<g>
		<path style="fill-rule:evenodd;clip-rule:evenodd;fill:#666666;" d="M44,28H8H6v1.999v2V34c0,1.104,0.896,1.999,2,1.999h36
			c1.104,0,2-0.896,2-1.999v-2.001v-2V28H44z"/>
	</g>
</g>
<g id="Grip_1_">
	<g>
		<path style="fill-rule:evenodd;clip-rule:evenodd;fill:#333333;" d="M14,16c-1.104,0-2,0.895-2,2v4c0,1.104,0.896,2,2,2
			s2-0.896,2-2v-4C16,16.895,15.104,16,14,16z M22,16c-1.104,0-2,0.895-2,2v4c0,1.104,0.896,2,2,2s2-0.896,2-2v-4
			C24,16.895,23.104,16,22,16z M30,16c-1.104,0-2,0.895-2,2v4c0,1.104,0.896,2,2,2s2-0.896,2-2v-4C32,16.895,31.104,16,30,16z
			 M38,16c-1.104,0-2,0.895-2,2v4c0,1.104,0.896,2,2,2s2-0.896,2-2v-4C40,16.895,39.104,16,38,16z"/>
	</g>
</g>
<g id="Label_25_">
	<g>
		<rect y="7.999" style="fill:#48A0DC;" width="52" height="4.001"/>
	</g>
</g>
<g>
</g>
<g>
</g>
<g>
</g>
<g>
</g>
<g>
</g>
<g>
</g>
<g>
</g>
<g>
</g>
<g>
</g>
<g>
</g>
<g>
</g>
<g>
</g>
<g>
</g>
<g>
</g>
<g>
</g>
</svg>
