<?xml version="1.0" encoding="iso-8859-1"?>
<!-- Generator: Adobe Illustrator 16.0.0, SVG Export Plug-In . SVG Version: 6.00 Build 0)  -->
<!DOCTYPE svg PUBLIC "-//W3C//DTD SVG 1.1//EN" "http://www.w3.org/Graphics/SVG/1.1/DTD/svg11.dtd">
<svg version="1.1" id="Layer_1" xmlns="http://www.w3.org/2000/svg" xmlns:xlink="http://www.w3.org/1999/xlink" x="0px" y="0px"
	 width="64px" height="64.001px" viewBox="0 0 64 64.001" style="enable-background:new 0 0 64 64.001;" xml:space="preserve">
<g id="Head_1_">
	<g>
		<path style="fill-rule:evenodd;clip-rule:evenodd;fill:#CCCCCC;" d="M60,52.001c-1.88-1.88-20-10-20-10v-5.857v-1.028
			c0.785-0.989,1.468-2.051,2-3.116c2-3.999,4-7.999,4-13.999c0-0.714-0.018-1.408-0.046-2.091c0.002-0.07,0.015-0.146,0.017-0.217
			C45.975,15.798,46,15.896,46,16c0-0.198-0.006-0.396-0.008-0.596c0-0.03,0.008-0.064,0.008-0.095c0-0.048-0.01-0.099-0.011-0.146
			C45.89,7.57,44.264,0,32,0C19.285,0,18,7.785,18,15.31c0-0.563,0.072-1.11,0.187-1.644C18.074,14.455,18,15.239,18,16
			c0,0.122,0.024,0.258,0.027,0.382C18.01,16.913,18,17.45,18,17.995c0,0.002,0,0.004,0,0.006c0,6,2,10,3.999,13.999
			c0.532,1.064,1.216,2.127,2.001,3.116v1.027v5.857c0,0-18.12,8.12-20,10c-3.76,3.76-4,12-4,12h24h16h24
			C64,64.001,63.76,55.761,60,52.001z"/>
	</g>
</g>
<g id="Frame_8_">
	<g>
		<path style="fill-rule:evenodd;clip-rule:evenodd;fill:#ED7161;" d="M10,0.002H2c-1.104,0-2,0.895-2,1.999v8.001
			c0,1.104,0.896,1.999,2,1.999s2-0.896,2-1.999v-6h6c1.104,0,2-0.896,2-2.001S11.104,0.002,10,0.002z M62,0.002h-8
			c-1.104,0-2,0.895-2,1.999s0.896,2.001,2,2.001h6v6c0,1.104,0.896,1.999,2,1.999s2-0.896,2-1.999V2.001
			C64,0.896,63.104,0.002,62,0.002z M62,28.002c-1.104,0-2,0.896-2,2v6h-6c-1.104,0-2,0.895-2,2c0,1.104,0.896,2,2,2h8
			c1.104,0,2-0.896,2-2v-8C64,28.897,63.104,28.002,62,28.002z M10,36.002H4v-6c0-1.104-0.896-2-2-2s-2,0.896-2,2v8
			c0,1.104,0.896,2,2,2h8c1.104,0,2-0.896,2-2C12,36.896,11.104,36.002,10,36.002z"/>
	</g>
</g>
<g>
</g>
<g>
</g>
<g>
</g>
<g>
</g>
<g>
</g>
<g>
</g>
<g>
</g>
<g>
</g>
<g>
</g>
<g>
</g>
<g>
</g>
<g>
</g>
<g>
</g>
<g>
</g>
<g>
</g>
</svg>
