<?xml version="1.0" encoding="iso-8859-1"?>
<!-- Generator: Adobe Illustrator 16.0.0, SVG Export Plug-In . SVG Version: 6.00 Build 0)  -->
<!DOCTYPE svg PUBLIC "-//W3C//DTD SVG 1.1//EN" "http://www.w3.org/Graphics/SVG/1.1/DTD/svg11.dtd">
<svg version="1.1" id="Layer_1" xmlns="http://www.w3.org/2000/svg" xmlns:xlink="http://www.w3.org/1999/xlink" x="0px" y="0px"
	 width="52px" height="80px" viewBox="0 0 52 80" style="enable-background:new 0 0 52 80;" xml:space="preserve">
<g id="Body_15_">
	<g>
		<path style="fill-rule:evenodd;clip-rule:evenodd;fill:#735538;" d="M48,8v3.999c0,1.104-0.896,2-2,2s-2-0.896-2-2V8H8v3.999
			c0,1.104-0.896,2-2,2s-2-0.896-2-2V8c-2.209,0-4,1.791-4,3.999V68c0,2.209,1.791,4,4,4v-4c0-1.105,0.896-2,2-2s2,0.895,2,2v4h36
			v-4c0-1.105,0.896-2,2-2s2,0.895,2,2v4c2.209,0,4-1.791,4-4V11.999C52,9.791,50.209,8,48,8z M8,59.999C8,61.104,7.104,62,6,62
			s-2-0.896-2-2.001V56c0-1.105,0.896-2,2-2s2,0.895,2,2V59.999z M8,48c0,1.104-0.896,2-2,2s-2-0.896-2-2v-4c0-1.105,0.896-2,2-2
			s2,0.895,2,2V48z M8,36c0,1.104-0.896,2-2,2s-2-0.896-2-2v-4c0-1.105,0.896-2,2-2s2,0.895,2,2V36z M8,23.999
			C8,25.104,7.104,26,6,26s-2-0.896-2-2.001V20c0-1.105,0.896-2.001,2-2.001S8,18.895,8,20V23.999z M48,59.999
			C48,61.104,47.104,62,46,62s-2-0.896-2-2.001V56c0-1.105,0.896-2,2-2s2,0.895,2,2V59.999z M48,48c0,1.104-0.896,2-2,2
			s-2-0.896-2-2v-4c0-1.105,0.896-2,2-2s2,0.895,2,2V48z M48,36c0,1.104-0.896,2-2,2s-2-0.896-2-2v-4c0-1.105,0.896-2,2-2
			s2,0.895,2,2V36z M48,23.999C48,25.104,47.104,26,46,26s-2-0.896-2-2.001V20c0-1.105,0.896-2.001,2-2.001s2,0.896,2,2.001V23.999z
			"/>
	</g>
</g>
<g id="Strip">
	<g>
		<path style="fill-rule:evenodd;clip-rule:evenodd;fill:#FFCC66;" d="M38,69.999H14c-1.104,0-2,0.896-2,2.001h28
			C40,70.895,39.104,69.999,38,69.999z M14,10h24c1.104,0,2-0.896,2-2H12C12,9.104,12.896,10,14,10z M38,13.999H14
			c-1.104,0-2,0.896-2,2.001v20c0,1.104,0.896,2,2,2h24c1.104,0,2-0.896,2-2V16C40,14.895,39.104,13.999,38,13.999z M38,42H14
			c-1.104,0-2,0.895-2,2v19.999C12,65.104,12.896,66,14,66h24c1.104,0,2-0.896,2-2.001V44C40,42.895,39.104,42,38,42z"/>
	</g>
</g>
<g>
</g>
<g>
</g>
<g>
</g>
<g>
</g>
<g>
</g>
<g>
</g>
<g>
</g>
<g>
</g>
<g>
</g>
<g>
</g>
<g>
</g>
<g>
</g>
<g>
</g>
<g>
</g>
<g>
</g>
</svg>
