<?xml version="1.0" encoding="iso-8859-1"?>
<!-- Generator: Adobe Illustrator 16.0.0, SVG Export Plug-In . SVG Version: 6.00 Build 0)  -->
<!DOCTYPE svg PUBLIC "-//W3C//DTD SVG 1.1//EN" "http://www.w3.org/Graphics/SVG/1.1/DTD/svg11.dtd">
<svg version="1.1" id="Layer_1" xmlns="http://www.w3.org/2000/svg" xmlns:xlink="http://www.w3.org/1999/xlink" x="0px" y="0px"
	 width="56px" height="36px" viewBox="0 0 56 36" style="enable-background:new 0 0 56 36;" xml:space="preserve">
<g id="Lens_19_">
	<g>
		<path style="fill:#387BA8;" d="M52,6l-12,4.001c-2.209,0-4,1.79-4,4v8c0,2.209,1.791,4,4,4L52,30c2.209,0,4-1.791,4-3.999v-16
			C56,7.791,54.209,6,52,6z"/>
	</g>
</g>
<g id="Body_30_">
	<g>
		<path style="fill:#48A0DC;" d="M40,0H4C1.791,0,0,1.791,0,4v28c0,2.21,1.791,4,4,4h36c2.209,0,4-1.79,4-4V4
			C44,1.791,42.209,0,40,0z"/>
	</g>
</g>
<g>
</g>
<g>
</g>
<g>
</g>
<g>
</g>
<g>
</g>
<g>
</g>
<g>
</g>
<g>
</g>
<g>
</g>
<g>
</g>
<g>
</g>
<g>
</g>
<g>
</g>
<g>
</g>
<g>
</g>
</svg>
