<?xml version="1.0" encoding="iso-8859-1"?>
<!-- Generator: Adobe Illustrator 16.0.0, SVG Export Plug-In . SVG Version: 6.00 Build 0)  -->
<!DOCTYPE svg PUBLIC "-//W3C//DTD SVG 1.1//EN" "http://www.w3.org/Graphics/SVG/1.1/DTD/svg11.dtd">
<svg version="1.1" id="Layer_1" xmlns="http://www.w3.org/2000/svg" xmlns:xlink="http://www.w3.org/1999/xlink" x="0px" y="0px"
	 width="64px" height="44px" viewBox="0 0 64 44" style="enable-background:new 0 0 64 44;" xml:space="preserve">
<g id="Base_14_">
	<g>
		<path style="fill:#CCCCCC;" d="M60,0H4C1.791,0,0,1.791,0,4v36c0,2.209,1.791,4,4,4h56c2.209,0,4-1.791,4-4V4
			C64,1.791,62.209,0,60,0z"/>
	</g>
</g>
<g id="Rounded_Rectangle_28">
	<g>
		<path style="fill:#9B7CAB;" d="M58,4h-4c-1.104,0-2,0.896-2,2.001C52,7.104,52.896,8,54,8h4c1.104,0,2-0.896,2-1.999
			C60,4.896,59.104,4,58,4z"/>
	</g>
</g>
<g id="Base_15_">
	<g>
		<path style="fill-rule:evenodd;clip-rule:evenodd;fill:#666666;" d="M60.01,12.001C60.006,12.001,60.003,12,60,12H4
			c-0.003,0-0.006,0.001-0.01,0.001H0V16v4.001V40c0,2.209,1.791,4,4,4h56c2.209,0,4-1.791,4-4V20.001V16v-3.999H60.01z"/>
	</g>
</g>
<g id="Camera_Lens_9_">
	<g>
		<circle style="fill:#B3B3B3;" cx="32" cy="24" r="16"/>
	</g>
</g>
<g id="Camera_Lens_10_">
	<g>
		<circle style="fill:#4D4D4D;" cx="31.999" cy="23.999" r="12.021"/>
	</g>
</g>
<g id="Camera_Lens_11_">
	<g>
		<circle style="fill:#333333;" cx="32" cy="24" r="4.007"/>
	</g>
</g>
<g>
</g>
<g>
</g>
<g>
</g>
<g>
</g>
<g>
</g>
<g>
</g>
<g>
</g>
<g>
</g>
<g>
</g>
<g>
</g>
<g>
</g>
<g>
</g>
<g>
</g>
<g>
</g>
<g>
</g>
</svg>
