<?xml version="1.0" encoding="iso-8859-1"?>
<!-- Generator: Adobe Illustrator 16.0.0, SVG Export Plug-In . SVG Version: 6.00 Build 0)  -->
<!DOCTYPE svg PUBLIC "-//W3C//DTD SVG 1.1//EN" "http://www.w3.org/Graphics/SVG/1.1/DTD/svg11.dtd">
<svg version="1.1" id="Layer_1" xmlns="http://www.w3.org/2000/svg" xmlns:xlink="http://www.w3.org/1999/xlink" x="0px" y="0px"
	 width="64px" height="64px" viewBox="0 0 64 64" style="enable-background:new 0 0 64 64;" xml:space="preserve">
<g id="Film">
	<g>
		<path style="fill-rule:evenodd;clip-rule:evenodd;fill:#A67C52;" d="M12,24c-4.419,0-8,3.581-8,8c0,4.418,3.581,8,8,8
			c4.418,0,8-3.582,8-8C20,27.581,16.418,24,12,24z M48,9.999c-3.313,0-6,2.687-6,6C42,19.313,44.687,22,48,22s6-2.687,6-6.001
			C54,12.686,51.313,9.999,48,9.999z M44,3.999L42,2L6,22l2,2L44,3.999z"/>
	</g>
</g>
<g id="Reels">
	<g>
		<path style="fill-rule:evenodd;clip-rule:evenodd;fill:#B3B3B3;" d="M12,20C5.373,20,0,25.372,0,32c0,6.627,5.373,12,12,12
			s12-5.373,12-12C24,25.372,18.627,20,12,20z M9.3,38.886c-0.502,1.035-1.595,1.402-2.44,0.821
			c-0.846-0.582-1.124-1.893-0.622-2.927c0.502-1.035,2.503-3.275,3.35-2.694C10.433,34.668,9.803,37.852,9.3,38.886z M9.913,31.586
			c-0.581,0.847-3.765,0.216-4.8-0.286c-1.034-0.502-1.402-1.595-0.82-2.44c0.581-0.846,1.892-1.125,2.926-0.623
			C8.254,28.738,10.494,30.74,9.913,31.586z M12,28c-1.104,0-2-2.896-2-4c0-1.105,0.896-2,2-2s2,0.895,2,2
			C14,25.104,13.104,28,12,28z M17.141,39.766c-0.847,0.588-1.939,0.217-2.441-0.829c-0.502-1.045-1.132-4.262-0.286-4.85
			c0.846-0.587,2.848,1.677,3.35,2.722C18.265,37.854,17.986,39.179,17.141,39.766z M18.887,31.3
			c-1.035,0.502-4.219,1.133-4.8,0.286c-0.582-0.846,1.659-2.848,2.693-3.35c1.035-0.502,2.345-0.223,2.927,0.623
			C20.288,29.705,19.921,30.798,18.887,31.3z M59.313,4.686c-6.248-6.248-16.379-6.248-22.628,0c-6.248,6.249-6.248,16.38,0,22.628
			c6.249,6.248,16.38,6.248,22.628,0C65.563,21.065,65.563,10.935,59.313,4.686z M52.242,8.929c0.781-0.781,2.048-0.781,2.829,0
			c0.78,0.78,0.78,2.048,0,2.828c-0.781,0.781-3.462,2.195-4.243,1.415C50.047,12.391,51.461,9.709,52.242,8.929z M44.771,8.33
			c1.01-0.188,2.133,0.541,2.51,1.629c0.376,1.086,0.546,4.086-0.464,4.273c-1.01,0.187-2.814-2.511-3.191-3.598
			C43.248,9.549,43.762,8.517,44.771,8.33z M41.222,18.96c-1.087,0.376-2.119-0.136-2.307-1.146c-0.187-1.009,0.543-2.133,1.63-2.51
			c1.086-0.376,4.086-0.545,4.273,0.464C45.005,16.777,42.308,18.584,41.222,18.96z M48.674,23.476
			c-0.384,1.094-1.518,1.833-2.531,1.65s-1.523-1.218-1.139-2.312c0.384-1.095,2.213-3.814,3.227-3.633
			C49.244,19.364,49.058,22.381,48.674,23.476z M55.67,19.229c-0.187,1.01-1.219,1.522-2.306,1.146
			c-1.087-0.377-3.783-2.183-3.597-3.192c0.188-1.009,3.187-0.84,4.273-0.464C55.128,17.096,55.857,18.22,55.67,19.229z"/>
	</g>
</g>
<g id="Body_14_">
	<g>
		<path style="fill:#88C057;" d="M48,24H16c-2.209,0-4,1.79-4,4v32c0,2.209,1.791,4,4,4h32c2.209,0,4-1.791,4-4V28
			C52,25.79,50.209,24,48,24z"/>
	</g>
</g>
<g id="Lens_2_">
	<g>
		<path style="fill-rule:evenodd;clip-rule:evenodd;fill:#4D4D4D;" d="M62,36h-2h-2h-2v2v8v2h2h2h2c1.104,0,2-0.896,2-2v-8
			C64,36.895,63.104,36,62,36z"/>
	</g>
</g>
<g id="Lens_3_">
	<g>
		<rect x="52" y="38" style="fill:#333333;" width="4" height="8"/>
	</g>
</g>
<g id="Shape_6_">
	<g>
		<path style="fill-rule:evenodd;clip-rule:evenodd;fill:#638C3F;" d="M50,32h-2H26c-1.104,0-2,0.896-2,2v24v3.999V64h2h4h20
			c1.104,0,2-0.896,2-2.001V58V34v-2H50z"/>
	</g>
</g>
<g id="Knob">
	<g>
		<circle style="fill:#517334;" cx="34" cy="56" r="4"/>
	</g>
</g>
<g id="Btns">
	<g>
		<path style="fill-rule:evenodd;clip-rule:evenodd;fill:#FFFFFF;" d="M30,36c-1.104,0-2,0.895-2,2c0,1.104,0.896,2,2,2s2-0.896,2-2
			C32,36.895,31.104,36,30,36z M30,44c-1.104,0-2,0.895-2,2c0,1.104,0.896,2,2,2s2-0.896,2-2C32,44.895,31.104,44,30,44z M38,44
			c-1.104,0-2,0.895-2,2c0,1.104,0.896,2,2,2s2-0.896,2-2C40,44.895,39.104,44,38,44z M38,40c1.104,0,2-0.896,2-2
			c0-1.105-0.896-2-2-2s-2,0.895-2,2C36,39.104,36.896,40,38,40z"/>
	</g>
</g>
<g>
</g>
<g>
</g>
<g>
</g>
<g>
</g>
<g>
</g>
<g>
</g>
<g>
</g>
<g>
</g>
<g>
</g>
<g>
</g>
<g>
</g>
<g>
</g>
<g>
</g>
<g>
</g>
<g>
</g>
</svg>
