<?xml version="1.0" encoding="iso-8859-1"?>
<!-- Generator: Adobe Illustrator 16.0.0, SVG Export Plug-In . SVG Version: 6.00 Build 0)  -->
<!DOCTYPE svg PUBLIC "-//W3C//DTD SVG 1.1//EN" "http://www.w3.org/Graphics/SVG/1.1/DTD/svg11.dtd">
<svg version="1.1" id="Layer_1" xmlns="http://www.w3.org/2000/svg" xmlns:xlink="http://www.w3.org/1999/xlink" x="0px" y="0px"
	 width="64px" height="64.001px" viewBox="0 0 64 64.001" style="enable-background:new 0 0 64 64.001;" xml:space="preserve">
<g id="Film_Strip_1_">
	<g>
		<path style="fill:#A67C52;" d="M62,60.001H32c-1.104,0-2,0.896-2,2s0.896,2,2,2h30c1.104,0,2-0.896,2-2S63.104,60.001,62,60.001z"
			/>
	</g>
</g>
<g id="Reel_Frame">
	<g>
		<circle style="fill:#B3B3B3;" cx="32" cy="32" r="32"/>
	</g>
</g>
<g id="Shape_11_">
	<g>
		<circle style="fill:#FFFFFF;" cx="32" cy="32.001" r="26"/>
	</g>
</g>
<g id="Film_1_">
	<g>
		<circle style="fill:#A67C52;" cx="32" cy="32.001" r="18"/>
	</g>
</g>
<g id="Reel">
	<g>
		<path style="fill-rule:evenodd;clip-rule:evenodd;fill:#CCCCCC;" d="M32,4.001c-15.464,0-28,12.535-28,28
			c0,15.464,12.536,28,28,28s28-12.536,28-28C60,16.536,47.464,4.001,32,4.001z M14.497,33.842c-3.25-0.862-5.179-4.169-4.308-7.387
			c0.871-3.217,4.211-5.127,7.462-4.265c3.249,0.862,6.762,6.085,6.269,7.907C23.41,31.979,17.747,34.704,14.497,33.842z
			 M27.188,48.789c-1.653,3.047-5.314,4.09-8.178,2.331s-3.845-5.654-2.191-8.701c1.653-3.046,7.555-5.166,9.176-4.17
			C27.67,39.278,28.842,45.742,27.188,48.789z M32,24.001c-1.877,0-6-4.687-6-8s2.686-6,6-6c3.313,0,6,2.687,6,6
			S33.938,24.001,32,24.001z M45.009,51.12c-2.87,1.759-6.539,0.716-8.196-2.331c-1.656-3.047-0.482-9.511,1.196-10.54
			c1.625-0.996,7.539,1.124,9.196,4.17C48.861,45.466,47.879,49.361,45.009,51.12z M49.489,33.842
			c-3.259,0.862-8.938-1.862-9.449-3.744c-0.494-1.822,3.028-7.045,6.287-7.907s6.608,1.048,7.482,4.265
			C54.683,29.673,52.748,32.979,49.489,33.842z"/>
	</g>
</g>
<g id="Nit">
	<g>
		<circle style="fill:#666666;" cx="32" cy="32.001" r="4"/>
	</g>
</g>
<g>
</g>
<g>
</g>
<g>
</g>
<g>
</g>
<g>
</g>
<g>
</g>
<g>
</g>
<g>
</g>
<g>
</g>
<g>
</g>
<g>
</g>
<g>
</g>
<g>
</g>
<g>
</g>
<g>
</g>
</svg>
