<?xml version="1.0" encoding="iso-8859-1"?>
<!-- Generator: Adobe Illustrator 16.0.0, SVG Export Plug-In . SVG Version: 6.00 Build 0)  -->
<!DOCTYPE svg PUBLIC "-//W3C//DTD SVG 1.1//EN" "http://www.w3.org/Graphics/SVG/1.1/DTD/svg11.dtd">
<svg version="1.1" id="Layer_1" xmlns="http://www.w3.org/2000/svg" xmlns:xlink="http://www.w3.org/1999/xlink" x="0px" y="0px"
	 width="64.012px" height="64.012px" viewBox="0 0 64.012 64.012" style="enable-background:new 0 0 64.012 64.012;"
	 xml:space="preserve">
<g id="Legs_9_">
	<g>
		<path style="fill-rule:evenodd;clip-rule:evenodd;fill:#4D4D4D;" d="M31.435,60.622L17.634,46.821
			c-0.061-0.084-0.123-0.168-0.199-0.244c-0.394-0.394-0.911-0.585-1.427-0.579c-0.516-0.006-1.033,0.186-1.427,0.579
			c-0.074,0.074-0.135,0.156-0.195,0.239L0.581,60.622c-0.775,0.775-0.775,2.033,0,2.809c0.775,0.776,2.033,0.776,2.809,0
			l12.618-12.617L28.625,63.43c0.776,0.776,2.033,0.776,2.81,0C32.21,62.655,32.21,61.397,31.435,60.622z"/>
	</g>
</g>
<g id="Leg">
	<g>
		<path style="fill:#808080;" d="M16.008,24.004c-1.104,0-2,0.895-2,2v32c0,1.104,0.896,2,2,2s2-0.896,2-2v-32
			C18.008,24.899,17.112,24.004,16.008,24.004z"/>
	</g>
</g>
<g id="Lamp">
	<g>
		<path style="fill-rule:evenodd;clip-rule:evenodd;fill:#999999;" d="M20.692,25.467l-1.958-3.459
			c-0.001-0.001-0.001-0.002-0.002-0.003s-0.002-0.002-0.002-0.003l-1.96-3.462l-3.396,2l-1.698,1l-1.698,1
			c-1.876,1.104-2.519,3.551-1.436,5.464s3.481,2.569,5.357,1.464l3.397-2c0.002-0.001,0.002-0.002,0.004-0.003L20.692,25.467z"/>
	</g>
</g>
<g id="Light_Bulb">
	<g>
		<path style="fill:#FFCC66;" d="M25.525,18.004c-1.084-1.914-3.482-2.569-5.357-1.465c-1.877,1.105-2.52,3.551-1.436,5.465
			c1.082,1.912,3.481,2.568,5.357,1.463C25.965,22.363,26.608,19.917,25.525,18.004z"/>
	</g>
</g>
<g id="Lamp_1_">
	<g>
		<path style="fill-rule:evenodd;clip-rule:evenodd;fill:#808080;" d="M15.335,24.004c2.167,3.825,6.964,5.137,10.716,2.928
			l-7.845-13.856C14.455,15.285,13.169,20.177,15.335,24.004z"/>
	</g>
</g>
<g id="Pole">
	<g>
		<path style="fill:#808080;" d="M51.76,17.004c-0.566-0.957-1.82-1.285-2.801-0.732l-33.953,20c-0.98,0.552-1.316,1.775-0.75,2.731
			c0.565,0.957,1.819,1.285,2.8,0.732l33.954-20C51.99,19.184,52.326,17.96,51.76,17.004z"/>
	</g>
</g>
<g id="Umbrella">
	<g>
		<path style="fill-rule:evenodd;clip-rule:evenodd;fill:#4D4D4D;" d="M60.792,12.003C54.165,0.525,39.486-3.409,28.008,3.219
			c2.869-1.657,6.539-0.674,8.196,2.196c1.656,2.869,0.674,6.539-2.196,8.196c2.87-1.657,6.539-0.674,8.196,2.196
			c1.656,2.869,0.673,6.539-2.196,8.195c2.869-1.656,6.539-0.673,8.196,2.196c1.656,2.87,0.673,6.54-2.196,8.196
			c2.869-1.656,6.539-0.673,8.196,2.196c1.656,2.869,0.674,6.539-2.196,8.196C63.486,38.161,67.42,23.483,60.792,12.003z"/>
	</g>
</g>
<g>
</g>
<g>
</g>
<g>
</g>
<g>
</g>
<g>
</g>
<g>
</g>
<g>
</g>
<g>
</g>
<g>
</g>
<g>
</g>
<g>
</g>
<g>
</g>
<g>
</g>
<g>
</g>
<g>
</g>
</svg>
