<?xml version="1.0" encoding="iso-8859-1"?>
<!-- Generator: Adobe Illustrator 16.0.0, SVG Export Plug-In . SVG Version: 6.00 Build 0)  -->
<!DOCTYPE svg PUBLIC "-//W3C//DTD SVG 1.1//EN" "http://www.w3.org/Graphics/SVG/1.1/DTD/svg11.dtd">
<svg version="1.1" id="Layer_1" xmlns="http://www.w3.org/2000/svg" xmlns:xlink="http://www.w3.org/1999/xlink" x="0px" y="0px"
	 width="58.001px" height="63.999px" viewBox="0 0 58.001 63.999" style="enable-background:new 0 0 58.001 63.999;"
	 xml:space="preserve">
<g id="Flash">
	<g>
		<path style="fill-rule:evenodd;clip-rule:evenodd;fill:#FFCC66;" d="M42,26v-2.001l-15.486,2l5.436-23.55
			c0.205-0.893-0.221-1.811-1.035-2.229c-0.809-0.417-1.807-0.23-2.414,0.455l-28,36.002c-0.52,0.587-0.646,1.427-0.323,2.144
			S1.214,39.999,2,39.999l15.292-2l-5.203,23.412c-0.274,0.889,0.102,1.85,0.905,2.316c0.314,0.184,0.661,0.271,1.005,0.271
			c0.538,0,1.068-0.217,1.457-0.629l27.279-35.071C42.275,27.647,42,26.857,42,26z"/>
	</g>
</g>
<g id="Minus_1_">
	<g>
		<path style="fill:#4D4D4D;" d="M56,45.999H40c-1.104,0-2,0.896-2,2.001c0,1.104,0.896,2,2,2h16c1.105,0,2.001-0.896,2.001-2
			C58.001,46.895,57.105,45.999,56,45.999z"/>
	</g>
</g>
<g id="Plus_1_">
	<g>
		<path style="fill-rule:evenodd;clip-rule:evenodd;fill:#4D4D4D;" d="M56,13.999h-6V8c0-1.104-0.896-2-2-2s-2,0.896-2,2v5.999h-6
			c-1.104,0-2,0.896-2,2.001c0,1.104,0.896,2,2,2h6v6c0,1.105,0.896,2,2,2s2-0.895,2-2v-6h6c1.105,0,2.001-0.896,2.001-2
			C58.001,14.895,57.105,13.999,56,13.999z"/>
	</g>
</g>
<g>
</g>
<g>
</g>
<g>
</g>
<g>
</g>
<g>
</g>
<g>
</g>
<g>
</g>
<g>
</g>
<g>
</g>
<g>
</g>
<g>
</g>
<g>
</g>
<g>
</g>
<g>
</g>
<g>
</g>
</svg>
