<?xml version="1.0" encoding="iso-8859-1"?>
<!-- Generator: Adobe Illustrator 16.0.0, SVG Export Plug-In . SVG Version: 6.00 Build 0)  -->
<!DOCTYPE svg PUBLIC "-//W3C//DTD SVG 1.1//EN" "http://www.w3.org/Graphics/SVG/1.1/DTD/svg11.dtd">
<svg version="1.1" id="Layer_1" xmlns="http://www.w3.org/2000/svg" xmlns:xlink="http://www.w3.org/1999/xlink" x="0px" y="0px"
	 width="64px" height="39.961px" viewBox="0 0 64 39.961" style="enable-background:new 0 0 64 39.961;" xml:space="preserve">
<g id="BTN_5_">
	<g>
		<path style="fill:#999999;" d="M18,0h-4c-1.104,0-2,0.895-2,1.998v1.998c0,1.104,0.896,1.998,2,1.998h4c1.104,0,2-0.895,2-1.998
			V1.998C20,0.895,19.104,0,18,0z"/>
	</g>
</g>
<g id="BTN_6_">
	<g>
		<path style="fill:#ED7161;" d="M6,0C4.896,0,4,0.895,4,1.998v1.998C4,5.1,4.896,5.994,6,5.994S8,5.1,8,3.996V1.998
			C8,0.895,7.104,0,6,0z"/>
	</g>
</g>
<g id="Body_62_">
	<g>
		<path style="fill-rule:evenodd;clip-rule:evenodd;fill:#CCCCCC;" d="M60,0H24c0,2.207-1.791,3.996-4,3.996h-8v3.996H0v27.973
			c0,2.207,1.791,3.996,4,3.996h56c2.209,0,4-1.789,4-3.996V3.996C64,1.79,62.209,0,60,0z"/>
	</g>
</g>
<g id="Shape_76_">
	<g>
		<rect y="7.992" style="fill:#A67C52;" width="64" height="27.973"/>
	</g>
</g>
<g id="Grip_5_">
	<g>
		<path style="fill-rule:evenodd;clip-rule:evenodd;fill:#E6E6E6;" d="M8,3.996H6H4c-2.209,0-4,1.79-4,3.996v27.973
			c0,2.207,1.791,3.996,4,3.996h2h2h4v-3.996V7.992V3.996H8z"/>
	</g>
</g>
<g id="Grip_6_">
	<g>
		<rect y="7.992" style="fill:#BF8E5E;" width="12" height="27.973"/>
	</g>
</g>
<g id="Lens_24_">
	<g>
		<path style="fill-rule:evenodd;clip-rule:evenodd;fill:#B3B3B3;" d="M36,1.998c-9.941,0-18,8.052-18,17.982
			c0,2.148,0.396,4.199,1.088,6.108C17.32,26.503,16,28.079,16,29.971c0,2.208,1.791,3.997,4,3.997c1.248,0,2.35-0.583,3.083-1.479
			c3.271,3.372,7.846,5.475,12.917,5.475c9.941,0,18-8.051,18-17.982C54,10.05,45.941,1.998,36,1.998z"/>
	</g>
</g>
<g id="BTN_7_">
	<g>
		<circle style="fill:#666666;" cx="20" cy="29.971" r="1.998"/>
	</g>
</g>
<g id="Lens_25_">
	<g>
		<ellipse style="fill:#666666;" cx="36" cy="19.981" rx="14" ry="13.987"/>
	</g>
</g>
<g id="Lens_26_">
	<g>
		<path style="fill:#3B596E;" d="M42,13.987H30c-1.104,0-2,0.894-2,1.997v7.992c0,1.104,0.896,1.998,2,1.998h12
			c1.104,0,2-0.895,2-1.998v-7.992C44,14.881,43.104,13.987,42,13.987z"/>
	</g>
</g>
<g>
</g>
<g>
</g>
<g>
</g>
<g>
</g>
<g>
</g>
<g>
</g>
<g>
</g>
<g>
</g>
<g>
</g>
<g>
</g>
<g>
</g>
<g>
</g>
<g>
</g>
<g>
</g>
<g>
</g>
</svg>
