<?xml version="1.0" encoding="iso-8859-1"?>
<!-- Generator: Adobe Illustrator 16.0.0, SVG Export Plug-In . SVG Version: 6.00 Build 0)  -->
<!DOCTYPE svg PUBLIC "-//W3C//DTD SVG 1.1//EN" "http://www.w3.org/Graphics/SVG/1.1/DTD/svg11.dtd">
<svg version="1.1" id="Layer_1" xmlns="http://www.w3.org/2000/svg" xmlns:xlink="http://www.w3.org/1999/xlink" x="0px" y="0px"
	 width="52px" height="111.892px" viewBox="0 0 52 111.892" style="enable-background:new 0 0 52 111.892;" xml:space="preserve">
<g id="Body_63_">
	<g>
		<path style="fill:#FF8833;" d="M52,30.023c0-11.478-26-9.98-26-9.98V19.98c0,0-26-1.498-26,9.99s2,13.486,2,21.979
			S0,65.103,0,73.928s12.333,9.99,26,9.99c13.666,0,26-1.164,26-9.98c0-8.815-2-13.474-2-21.957S52,41.501,52,30.023z"/>
	</g>
</g>
<g id="Shape_77_">
	<g>
		<path style="fill-rule:evenodd;clip-rule:evenodd;fill:#E6E6E6;" d="M43.631,82.368C45.142,74.498,46,65.503,46,55.945
			c0-13.105-1.615-25.148-4.313-34.684C34.427,19.561,26,20.043,26,20.043V19.98c0,0-8.413-0.481-15.668,1.216
			C7.622,30.742,6,42.81,6,55.945c0,9.557,0.858,18.551,2.369,26.421c4.74,1.276,11.027,1.552,17.631,1.552
			S38.891,83.643,43.631,82.368z"/>
	</g>
</g>
<g id="Lens_27_">
	<g>
		<ellipse style="fill:#CCCCCC;" cx="26" cy="65.936" rx="14" ry="13.986"/>
	</g>
</g>
<g id="Lens_28_">
	<g>
		<ellipse style="fill:#808080;" cx="26" cy="65.936" rx="10" ry="9.99"/>
	</g>
</g>
<g id="Lens_29_">
	<g>
		<circle style="fill:#333333;" cx="26" cy="65.936" r="3.996"/>
	</g>
</g>
<g id="Blits">
	<g>
		<ellipse style="fill:#999999;" cx="26" cy="31.969" rx="8" ry="7.992"/>
	</g>
</g>
<g id="Blitz_1_">
	<g>
		<path style="fill:#FFCC66;" d="M26,27.973c-1.104,0-2,0.895-2,1.998v3.996c0,1.104,0.896,1.998,2,1.998s2-0.895,2-1.998v-3.996
			C28,28.867,27.104,27.973,26,27.973z"/>
	</g>
</g>
<g>
</g>
<g>
</g>
<g>
</g>
<g>
</g>
<g>
</g>
<g>
</g>
<g>
</g>
<g>
</g>
<g>
</g>
<g>
</g>
<g>
</g>
<g>
</g>
<g>
</g>
<g>
</g>
<g>
</g>
</svg>
