<?xml version="1.0" encoding="iso-8859-1"?>
<!-- Generator: Adobe Illustrator 16.0.0, SVG Export Plug-In . SVG Version: 6.00 Build 0)  -->
<!DOCTYPE svg PUBLIC "-//W3C//DTD SVG 1.1//EN" "http://www.w3.org/Graphics/SVG/1.1/DTD/svg11.dtd">
<svg version="1.1" id="Layer_1" xmlns="http://www.w3.org/2000/svg" xmlns:xlink="http://www.w3.org/1999/xlink" x="0px" y="0px"
	 width="64px" height="48px" viewBox="0 0 64 48" style="enable-background:new 0 0 64 48;" xml:space="preserve">
<g id="Label_11_">
	<g>
		<path style="fill:#FFCC66;" d="M60,0H4C1.791,0,0,1.791,0,4v40c0,2.209,1.791,4,4,4h56c2.209,0,4-1.791,4-4V4
			C64,1.791,62.209,0,60,0z"/>
	</g>
</g>
<g id="D_1_">
	<g>
		<path style="fill-rule:evenodd;clip-rule:evenodd;fill:#333333;" d="M41.5,12L36,12.001c-1.105,0-2,0.893-2,1.994
			c0,0.001,0,0.002,0,0.003s0,0.002,0,0.003v20c0,1.104,0.896,2,2,2h2h4c3.677,0,5.258-0.887,7.591-2.793
			C52.358,30.943,54,27.498,54,23.969C54,16.89,49.183,12,41.5,12z M46.998,30.499C45.2,31.964,42,31.948,42,31.948h-4V15.976
			l4,0.015c0,0,3.111-0.222,4.998,1.317C48.966,18.888,50,21.339,50,23.866C50,26.397,48.966,28.925,46.998,30.499z"/>
	</g>
</g>
<g id="H">
	<g>
		<path style="fill-rule:evenodd;clip-rule:evenodd;fill:#333333;" d="M28,12.001c-1.104,0-2,0.893-2,1.994v7.979H14v-7.979
			c0-1.102-0.896-1.994-2-1.994s-2,0.893-2,1.994v19.948c0,1.102,0.896,1.995,2,1.995s2-0.894,2-1.995v-7.979h12v7.979
			c0,1.102,0.896,1.995,2,1.995s2-0.894,2-1.995V13.995C30,12.894,29.104,12.001,28,12.001z"/>
	</g>
</g>
<g>
</g>
<g>
</g>
<g>
</g>
<g>
</g>
<g>
</g>
<g>
</g>
<g>
</g>
<g>
</g>
<g>
</g>
<g>
</g>
<g>
</g>
<g>
</g>
<g>
</g>
<g>
</g>
<g>
</g>
</svg>
