<?xml version="1.0" encoding="iso-8859-1"?>
<!-- Generator: Adobe Illustrator 16.0.0, SVG Export Plug-In . SVG Version: 6.00 Build 0)  -->
<!DOCTYPE svg PUBLIC "-//W3C//DTD SVG 1.1//EN" "http://www.w3.org/Graphics/SVG/1.1/DTD/svg11.dtd">
<svg version="1.1" id="Layer_1" xmlns="http://www.w3.org/2000/svg" xmlns:xlink="http://www.w3.org/1999/xlink" x="0px" y="0px"
	 width="24px" height="64px" viewBox="0 0 24 64" style="enable-background:new 0 0 24 64;" xml:space="preserve">
<g id="Cable_2_">
	<g>
		<path style="fill:#666666;" d="M14,44h-4c-1.104,0-2,0.896-2,2v16.001C8,63.104,8.896,64,10,64h4c1.104,0,2-0.896,2-1.999V46
			C16,44.896,15.104,44,14,44z"/>
	</g>
</g>
<g id="Cable_3_">
	<g>
		<path style="fill:#4D4D4D;" d="M16,38H8c-1.104,0-2,0.896-2,2v10.001C6,51.104,6.896,52,8,52h8c1.104,0,2-0.896,2-1.999V40
			C18,38.896,17.104,38,16,38z"/>
	</g>
</g>
<g id="Body_3_">
	<g>
		<path style="fill:#666666;" d="M20,10H4c-2.209,0-4,1.791-4,4.001V40c0,2.21,1.791,4,4,4h16c2.209,0,4-1.79,4-4V14.001
			C24,11.791,22.209,10,20,10z"/>
	</g>
</g>
<g id="Shape_3_">
	<g>
		<rect y="36.001" style="fill:#4D4D4D;" width="24" height="4"/>
	</g>
</g>
<g id="Shapes">
	<g>
		<path style="fill-rule:evenodd;clip-rule:evenodd;fill:#808080;" d="M6,22.001h12c1.104,0,2-0.896,2-2s-0.896-2-2-2H6
			c-1.104,0-2,0.896-2,2S4.896,22.001,6,22.001z M18,26H6c-1.104,0-2,0.896-2,2.001s0.896,2,2,2h12c1.104,0,2-0.896,2-2
			S19.104,26,18,26z"/>
	</g>
</g>
<g id="Plug_3_">
	<g>
		<path style="fill-rule:evenodd;clip-rule:evenodd;fill:#FFCC66;" d="M18,0H6C4.896,0,4,0.896,4,2v8h16V2C20,0.896,19.104,0,18,0z"
			/>
	</g>
</g>
<g id="Plug_2_">
	<g>
		<path style="fill-rule:evenodd;clip-rule:evenodd;fill:#997A3D;" d="M18,0H6C4.896,0,4,0.896,4,2v2.001h16V2
			C20,0.896,19.104,0,18,0z"/>
	</g>
</g>
<g>
</g>
<g>
</g>
<g>
</g>
<g>
</g>
<g>
</g>
<g>
</g>
<g>
</g>
<g>
</g>
<g>
</g>
<g>
</g>
<g>
</g>
<g>
</g>
<g>
</g>
<g>
</g>
<g>
</g>
</svg>
