<?xml version="1.0" encoding="iso-8859-1"?>
<!-- Generator: Adobe Illustrator 16.0.0, SVG Export Plug-In . SVG Version: 6.00 Build 0)  -->
<!DOCTYPE svg PUBLIC "-//W3C//DTD SVG 1.1//EN" "http://www.w3.org/Graphics/SVG/1.1/DTD/svg11.dtd">
<svg version="1.1" id="Layer_1" xmlns="http://www.w3.org/2000/svg" xmlns:xlink="http://www.w3.org/1999/xlink" x="0px" y="0px"
	 width="64px" height="23.999px" viewBox="0 0 64 23.999" style="enable-background:new 0 0 64 23.999;" xml:space="preserve">
<g id="Body_2_">
	<g>
		<path style="fill-rule:evenodd;clip-rule:evenodd;fill:#4D4D4D;" d="M62,0H2C0.896,0,0,0.896,0,2v12c0,1.104,0.896,2,2,2
			c2.209,0,4,1.79,4,4v2c0,1.104,0.896,1.999,2,1.999h48c1.104,0,2-0.895,2-1.999v-2c0-2.21,1.791-4,4-4c1.104,0,2-0.896,2-2V2
			C64,0.896,63.104,0,62,0z"/>
	</g>
</g>
<g id="Pins">
	<g>
		<path style="fill-rule:evenodd;clip-rule:evenodd;fill:#FFCC66;" d="M14,5.999c-1.104,0-2,0.896-2,2.001v2c0,1.104,0.896,2,2,2
			s2-0.896,2-2V8C16,6.896,15.104,5.999,14,5.999z M18,4c-1.104,0-2,0.896-2,1.999V8c0,1.104,0.896,2,2,2s2-0.896,2-2V5.999
			C20,4.896,19.104,4,18,4z M22,5.999c-1.104,0-2,0.896-2,2.001v2c0,1.104,0.896,2,2,2s2-0.896,2-2V8
			C24,6.896,23.104,5.999,22,5.999z M26,4c-1.104,0-2,0.896-2,1.999V8c0,1.104,0.896,2,2,2s2-0.896,2-2V5.999
			C28,4.896,27.104,4,26,4z M30,5.999c-1.104,0-2,0.896-2,2.001v2c0,1.104,0.896,2,2,2s2-0.896,2-2V8
			C32,6.896,31.104,5.999,30,5.999z M34,4c-1.104,0-2,0.896-2,1.999V8c0,1.104,0.896,2,2,2s2-0.896,2-2V5.999
			C36,4.896,35.104,4,34,4z M38,5.999c-1.104,0-2,0.896-2,2.001v2c0,1.104,0.896,2,2,2s2-0.896,2-2V8
			C40,6.896,39.104,5.999,38,5.999z M42,4c-1.104,0-2,0.896-2,1.999V8c0,1.104,0.896,2,2,2s2-0.896,2-2V5.999
			C44,4.896,43.104,4,42,4z M46,5.999c-1.104,0-2,0.896-2,2.001v2c0,1.104,0.896,2,2,2s2-0.896,2-2V8
			C48,6.896,47.104,5.999,46,5.999z M50,4c-1.104,0-2,0.896-2,1.999V8c0,1.104,0.896,2,2,2s2-0.896,2-2V5.999
			C52,4.896,51.104,4,50,4z"/>
	</g>
</g>
<g id="Socket">
	<g>
		<path style="fill:#808080;" d="M54,5.999H10C8.896,5.999,8,6.896,8,8s0.896,2,2,2h44c1.104,0,2-0.896,2-2S55.104,5.999,54,5.999z"
			/>
	</g>
</g>
<g>
</g>
<g>
</g>
<g>
</g>
<g>
</g>
<g>
</g>
<g>
</g>
<g>
</g>
<g>
</g>
<g>
</g>
<g>
</g>
<g>
</g>
<g>
</g>
<g>
</g>
<g>
</g>
<g>
</g>
</svg>
