<?xml version="1.0" encoding="iso-8859-1"?>
<!-- Generator: Adobe Illustrator 16.0.0, SVG Export Plug-In . SVG Version: 6.00 Build 0)  -->
<!DOCTYPE svg PUBLIC "-//W3C//DTD SVG 1.1//EN" "http://www.w3.org/Graphics/SVG/1.1/DTD/svg11.dtd">
<svg version="1.1" id="Layer_1" xmlns="http://www.w3.org/2000/svg" xmlns:xlink="http://www.w3.org/1999/xlink" x="0px" y="0px"
	 width="64px" height="40px" viewBox="0 0 64 40" style="enable-background:new 0 0 64 40;" xml:space="preserve">
<g id="Label_3_">
	<g>
		<path style="fill:#88C057;" d="M60,0H4C1.791,0,0,1.791,0,4v32c0,2.209,1.791,4,4,4h56c2.209,0,4-1.791,4-4V4
			C64,1.791,62.209,0,60,0z"/>
	</g>
</g>
<g id="X">
	<g>
		<path style="fill-rule:evenodd;clip-rule:evenodd;fill:#FFFFFF;" d="M56.236,20.001l3.495-6.97
			c0.553-0.963,0.225-2.194-0.731-2.751c-0.957-0.556-2.18-0.226-2.732,0.737L54,15.54l-2.268-4.522
			C51.18,10.055,49.956,9.725,49,10.28c-0.957,0.557-1.284,1.788-0.732,2.751l3.495,6.97l-3.495,6.97
			c-0.552,0.964-0.225,2.195,0.732,2.751c0.956,0.557,2.18,0.227,2.731-0.737L54,24.462l2.268,4.522
			c0.553,0.964,1.775,1.294,2.732,0.737c0.956-0.556,1.284-1.787,0.731-2.751L56.236,20.001z"/>
	</g>
</g>
<g id="A">
	<g>
		<path style="fill-rule:evenodd;clip-rule:evenodd;fill:#FFFFFF;" d="M45.836,27.244l-5.684-15.868
			c-0.335-0.879-1.22-1.402-2.134-1.354c-0.925-0.049-1.821,0.475-2.161,1.354l-5.754,15.868c-0.413,1.071,0.153,2.248,1.266,2.63
			c1.111,0.382,2.348-0.176,2.761-1.246l0.953-2.627h5.835l0.941,2.627c0.408,1.07,1.629,1.628,2.728,1.246
			S46.244,28.315,45.836,27.244z M36.533,22.001l1.485-4.096l1.467,4.096H36.533z"/>
	</g>
</g>
<g id="M">
	<g>
		<path style="fill-rule:evenodd;clip-rule:evenodd;fill:#FFFFFF;" d="M27.99,11.9c0.033-0.664-0.32-1.322-0.99-1.678
			c-0.956-0.508-2.18-0.206-2.731,0.674L20,16.852l-4.269-5.955c-0.553-0.88-1.775-1.182-2.732-0.674
			c-0.669,0.355-1.021,1.014-0.989,1.678C12.008,11.935,12,11.967,12,12.001v16c0,1.104,0.896,2,2,2s2-0.896,2-2V17.942l2.268,3.164
			c0.021,0.033,0.049,0.06,0.071,0.091c0.037,0.052,0.075,0.103,0.118,0.15c0.043,0.05,0.09,0.095,0.139,0.139
			c0.043,0.039,0.087,0.078,0.134,0.114c0.058,0.044,0.119,0.083,0.182,0.12c0.031,0.019,0.056,0.041,0.088,0.059
			c0.019,0.01,0.039,0.015,0.058,0.024c0.065,0.031,0.132,0.058,0.2,0.082c0.057,0.021,0.112,0.043,0.17,0.059
			c0.063,0.018,0.126,0.028,0.19,0.04c0.063,0.011,0.126,0.023,0.19,0.029c0.063,0.006,0.127,0.004,0.191,0.004
			s0.128,0.002,0.191-0.004c0.064-0.006,0.127-0.019,0.19-0.029c0.064-0.012,0.128-0.022,0.19-0.04
			c0.058-0.016,0.113-0.037,0.17-0.059c0.068-0.024,0.135-0.051,0.2-0.082c0.019-0.01,0.039-0.015,0.058-0.024
			c0.032-0.018,0.058-0.04,0.088-0.059c0.063-0.037,0.124-0.076,0.182-0.12c0.047-0.036,0.091-0.074,0.134-0.114
			c0.049-0.044,0.096-0.089,0.14-0.139c0.042-0.048,0.08-0.098,0.117-0.148c0.023-0.032,0.051-0.059,0.072-0.093L24,17.942v10.059
			c0,1.104,0.896,2,2,2s2-0.896,2-2v-16C28,11.967,27.992,11.935,27.99,11.9z"/>
	</g>
</g>
<g id="I">
	<g>
		<path style="fill:#FFFFFF;" d="M8,10.001c-1.104,0-2,0.896-2,2v16c0,1.104,0.896,2,2,2s2-0.896,2-2v-16
			C10,10.896,9.104,10.001,8,10.001z"/>
	</g>
</g>
<g>
</g>
<g>
</g>
<g>
</g>
<g>
</g>
<g>
</g>
<g>
</g>
<g>
</g>
<g>
</g>
<g>
</g>
<g>
</g>
<g>
</g>
<g>
</g>
<g>
</g>
<g>
</g>
<g>
</g>
</svg>
