<?xml version="1.0" encoding="iso-8859-1"?>
<!-- Generator: Adobe Illustrator 16.0.0, SVG Export Plug-In . SVG Version: 6.00 Build 0)  -->
<!DOCTYPE svg PUBLIC "-//W3C//DTD SVG 1.1//EN" "http://www.w3.org/Graphics/SVG/1.1/DTD/svg11.dtd">
<svg version="1.1" id="Layer_1" xmlns="http://www.w3.org/2000/svg" xmlns:xlink="http://www.w3.org/1999/xlink" x="0px" y="0px"
	 width="64px" height="52.025px" viewBox="0 0 64 52.025" style="enable-background:new 0 0 64 52.025;" xml:space="preserve">
<g id="Base">
	<g>
		<path style="fill-rule:evenodd;clip-rule:evenodd;fill:#4D4D4D;" d="M47.501,47.929l-13.884-5.675
			c-0.508-0.131-0.988-0.215-1.432-0.233c-0.061-0.004-0.123-0.006-0.186-0.007c-0.063,0.001-0.125,0.003-0.187,0.007
			c-0.443,0.019-0.924,0.103-1.431,0.233l-13.885,5.675c-1.648,0.428-2.893,1.104-2.451,2.7c0.442,1.594,1.869,1.578,3.518,1.15
			l13.884-5.674c0.19-0.05,0.374-0.104,0.552-0.16c0.178,0.057,0.36,0.11,0.551,0.16l13.885,5.674
			c1.647,0.428,3.075,0.443,3.517-1.15C50.395,49.033,49.149,48.356,47.501,47.929z"/>
	</g>
</g>
<g id="Frame_1_">
	<g>
		<path style="fill:#999999;" d="M62,0H2C0.896,0,0,0.896,0,2v40c0,1.104,0.896,2,2,2h60c1.104,0,2-0.896,2-2V2
			C64,0.896,63.104,0,62,0z"/>
	</g>
</g>
<g id="Display">
	<g>
		<rect x="4" y="4" style="fill:#4D4D4D;" width="56" height="36"/>
	</g>
</g>
<g>
</g>
<g>
</g>
<g>
</g>
<g>
</g>
<g>
</g>
<g>
</g>
<g>
</g>
<g>
</g>
<g>
</g>
<g>
</g>
<g>
</g>
<g>
</g>
<g>
</g>
<g>
</g>
<g>
</g>
</svg>
