<?xml version="1.0" encoding="iso-8859-1"?>
<!-- Generator: Adobe Illustrator 16.0.0, SVG Export Plug-In . SVG Version: 6.00 Build 0)  -->
<!DOCTYPE svg PUBLIC "-//W3C//DTD SVG 1.1//EN" "http://www.w3.org/Graphics/SVG/1.1/DTD/svg11.dtd">
<svg version="1.1" id="Layer_1" xmlns="http://www.w3.org/2000/svg" xmlns:xlink="http://www.w3.org/1999/xlink" x="0px" y="0px"
	 width="64px" height="48px" viewBox="0 0 64 48" style="enable-background:new 0 0 64 48;" xml:space="preserve">
<g id="Base_1_">
	<g>
		<path style="fill-rule:evenodd;clip-rule:evenodd;fill:#638C3F;" d="M45.552,44c-0.527-0.27-1.468,0-2.552,0H21
			c-1.084,0-2.025-0.27-2.553,0H18v2h0.184c0.413,1.163,1.512,2,2.816,2h22c1.304,0,2.403-0.837,2.816-2H46v-2H45.552z"/>
	</g>
</g>
<g id="Frame_2_">
	<g>
		<path style="fill:#88C057;" d="M62,0H2C0.896,0,0,0.896,0,2v40c0,1.105,0.896,2,2,2h60c1.104,0,2-0.895,2-2V2
			C64,0.896,63.104,0,62,0z"/>
	</g>
</g>
<g id="Display_2_">
	<g>
		<rect x="4" y="4" style="fill:#4D4D4D;" width="56" height="36"/>
	</g>
</g>
<g>
</g>
<g>
</g>
<g>
</g>
<g>
</g>
<g>
</g>
<g>
</g>
<g>
</g>
<g>
</g>
<g>
</g>
<g>
</g>
<g>
</g>
<g>
</g>
<g>
</g>
<g>
</g>
<g>
</g>
</svg>
