<?xml version="1.0" encoding="iso-8859-1"?>
<!-- Generator: Adobe Illustrator 16.0.0, SVG Export Plug-In . SVG Version: 6.00 Build 0)  -->
<!DOCTYPE svg PUBLIC "-//W3C//DTD SVG 1.1//EN" "http://www.w3.org/Graphics/SVG/1.1/DTD/svg11.dtd">
<svg version="1.1" id="Layer_1" xmlns="http://www.w3.org/2000/svg" xmlns:xlink="http://www.w3.org/1999/xlink" x="0px" y="0px"
	 width="71.956px" height="55.976px" viewBox="0 0 71.956 55.976" style="enable-background:new 0 0 71.956 55.976;"
	 xml:space="preserve">
<g id="Hood_Base">
	<g>
		<path style="fill-rule:evenodd;clip-rule:evenodd;fill:#4D4D4D;" d="M60,44v-1.357c0-3.415,2.304-6.226,5.271-6.616H6.686
			c2.967,0.391,5.271,3.201,5.271,6.616V44H60z"/>
	</g>
</g>
<g id="Hood_1_">
	<g>
		<path style="fill-rule:evenodd;clip-rule:evenodd;fill:#666666;" d="M67.987,28.492V12.576c0-1.438-1.122-2.605-2.506-2.605
			s-2.506,1.167-2.506,2.605L59.75,25.993h-0.431L49.298,2.498C48.632,1.196,48.105,0,46.634,0H25.322
			c-1.472,0-2.164,1.273-2.664,2.498L12.638,25.993h-0.432L8.98,12.577c0-1.439-1.122-2.606-2.506-2.606s-2.506,1.167-2.506,2.606
			v15.924v4.921v0.097c0,0.758,0.354,1.429,0.901,1.889c0.436,0.381,0.99,0.62,1.604,0.62h0.078h4.934h48.984h4.933h0.078
			c0.611,0,1.164-0.236,1.599-0.614c0.552-0.46,0.908-1.134,0.908-1.895v-5.018C67.988,28.498,67.987,28.495,67.987,28.492z"/>
	</g>
</g>
<g>
</g>
<g>
</g>
<g>
</g>
<g>
</g>
<g>
</g>
<g>
</g>
<g>
</g>
<g>
</g>
<g>
</g>
<g>
</g>
<g>
</g>
<g>
</g>
<g>
</g>
<g>
</g>
<g>
</g>
</svg>
