<?xml version="1.0" encoding="iso-8859-1"?>
<!-- Generator: Adobe Illustrator 16.0.0, SVG Export Plug-In . SVG Version: 6.00 Build 0)  -->
<!DOCTYPE svg PUBLIC "-//W3C//DTD SVG 1.1//EN" "http://www.w3.org/Graphics/SVG/1.1/DTD/svg11.dtd">
<svg version="1.1" id="Layer_1" xmlns="http://www.w3.org/2000/svg" xmlns:xlink="http://www.w3.org/1999/xlink" x="0px" y="0px"
	 width="48px" height="64.001px" viewBox="0 0 48 64.001" style="enable-background:new 0 0 48 64.001;" xml:space="preserve">
<g id="Mount_2_">
	<g>
		<path style="fill:#4D4D4D;" d="M34,56.001H14c-1.104,0-2,0.895-2,2v4c0,1.104,0.896,2,2,2h20c1.104,0,2-0.896,2-2v-4
			C36,56.896,35.104,56.001,34,56.001z"/>
	</g>
</g>
<g id="Shape_49_">
	<g>
		<path style="fill-rule:evenodd;clip-rule:evenodd;fill:#666666;" d="M4,48.001c0,2.209,1.791,4,4,4h32c2.209,0,4-1.791,4-4V36H4
			V48.001z"/>
	</g>
</g>
<g id="Shape_50_">
	<g>
		<path style="fill-rule:evenodd;clip-rule:evenodd;fill:#808080;" d="M8,52.001v4c0,2.209,1.791,4,4,4h24c2.209,0,4-1.791,4-4v-4H8
			z"/>
	</g>
</g>
<g id="Grip">
	<g>
		<path style="fill-rule:evenodd;clip-rule:evenodd;fill:#595959;" d="M12,40c-1.104,0-2,0.896-2,2.001V46
			c0,1.104,0.896,2.001,2,2.001s2-0.896,2-2.001v-3.999C14,40.896,13.104,40,12,40z M20,40c-1.104,0-2,0.896-2,2.001V46
			c0,1.104,0.896,2.001,2,2.001s2-0.896,2-2.001v-3.999C22,40.896,21.104,40,20,40z M28,40c-1.104,0-2,0.896-2,2.001V46
			c0,1.104,0.896,2.001,2,2.001s2-0.896,2-2.001v-3.999C30,40.896,29.104,40,28,40z M36,40c-1.104,0-2,0.896-2,2.001V46
			c0,1.104,0.896,2.001,2,2.001s2-0.896,2-2.001v-3.999C38,40.896,37.104,40,36,40z"/>
	</g>
</g>
<g id="Shape_51_">
	<g>
		<path style="fill-rule:evenodd;clip-rule:evenodd;fill:#4D4D4D;" d="M44,28.001H4H2v2V34c0,1.105,0.896,2,2,2h40
			c1.104,0,2-0.895,2-2v-3.999v-2H44z"/>
	</g>
</g>
<g id="Hood_2_">
	<g>
		<path style="fill-rule:evenodd;clip-rule:evenodd;fill:#333333;" d="M46,8c-1.104,0-2,0.896-2,2l-2.5,10.001h-0.3l-7.2-18
			C33.5,0.958,33.104,0,32,0H16c-1.104,0-1.625,1.021-2,2.001l-7.2,18H6.5l-2.5-10C4,8.896,3.104,8,2,8s-2,0.896-2,2.001v12v4
			c0,1.104,0.896,2,2,2h4h36h4c0.276,0,0.539-0.056,0.778-0.157C47.496,27.54,48,26.829,48,26.001V26v-3.999V10
			C48,8.896,47.104,8,46,8z"/>
	</g>
</g>
<g>
</g>
<g>
</g>
<g>
</g>
<g>
</g>
<g>
</g>
<g>
</g>
<g>
</g>
<g>
</g>
<g>
</g>
<g>
</g>
<g>
</g>
<g>
</g>
<g>
</g>
<g>
</g>
<g>
</g>
</svg>
