<?xml version="1.0" encoding="iso-8859-1"?>
<!-- Generator: Adobe Illustrator 16.0.0, SVG Export Plug-In . SVG Version: 6.00 Build 0)  -->
<!DOCTYPE svg PUBLIC "-//W3C//DTD SVG 1.1//EN" "http://www.w3.org/Graphics/SVG/1.1/DTD/svg11.dtd">
<svg version="1.1" id="Layer_1" xmlns="http://www.w3.org/2000/svg" xmlns:xlink="http://www.w3.org/1999/xlink" x="0px" y="0px"
	 width="64px" height="63.997px" viewBox="0 0 64 63.997" style="enable-background:new 0 0 64 63.997;" xml:space="preserve">
<g id="Filter">
	<g>
		<circle style="fill:#FFCC66;" cx="29" cy="29" r="27"/>
	</g>
</g>
<g id="Picture_3_">
	<g>
		<polygon style="fill:#75A64B;" points="45.538,39.999 36.308,54.769 28.923,45.538 16,63.997 64,63.997 		"/>
	</g>
</g>
<g id="Picture_2_">
	<g>
		<path style="fill-rule:evenodd;clip-rule:evenodd;fill:#4F732F;" d="M22.203,55.137c2.172,0.563,4.449,0.864,6.797,0.864
			c8.521,0,16.116-3.952,21.064-10.119l-4.526-5.883l-9.23,14.77l-7.385-9.23L22.203,55.137z"/>
	</g>
</g>
<g id="Sun_1_">
	<g>
		<circle style="fill:#FF8833;" cx="36" cy="29.992" r="5.996"/>
	</g>
</g>
<g id="Frame_10_">
	<g>
		<path style="fill-rule:evenodd;clip-rule:evenodd;fill:#4D4D4D;" d="M29,0C12.983,0,0,12.984,0,29
			c0,16.017,12.983,29.001,29,29.001c16.016,0,29-12.984,29-29.001C58,12.984,45.016,0,29,0z M29,54.001
			C15.192,54.001,4,42.808,4,29C4,15.193,15.192,4.001,29,4.001c13.807,0,25,11.192,25,24.999C54,42.808,42.807,54.001,29,54.001z"
			/>
	</g>
</g>
<g>
</g>
<g>
</g>
<g>
</g>
<g>
</g>
<g>
</g>
<g>
</g>
<g>
</g>
<g>
</g>
<g>
</g>
<g>
</g>
<g>
</g>
<g>
</g>
<g>
</g>
<g>
</g>
<g>
</g>
</svg>
