<?xml version="1.0" encoding="iso-8859-1"?>
<!-- Generator: Adobe Illustrator 16.0.0, SVG Export Plug-In . SVG Version: 6.00 Build 0)  -->
<!DOCTYPE svg PUBLIC "-//W3C//DTD SVG 1.1//EN" "http://www.w3.org/Graphics/SVG/1.1/DTD/svg11.dtd">
<svg version="1.1" id="Layer_1" xmlns="http://www.w3.org/2000/svg" xmlns:xlink="http://www.w3.org/1999/xlink" x="0px" y="0px"
	 width="44px" height="64px" viewBox="0 0 44 64" style="enable-background:new 0 0 44 64;" xml:space="preserve">
<g id="Body_33_">
	<g>
		<path style="fill:#666666;" d="M40,0H4C1.791,0,0,1.791,0,4.001V60c0,2.209,1.791,4,4,4h36c2.209,0,4-1.791,4-4V4.001
			C44,1.791,42.209,0,40,0z"/>
	</g>
</g>
<g id="Btn_2_">
	<g>
		<path style="fill-rule:evenodd;clip-rule:evenodd;fill:#FF8833;" d="M32,64h8c2.209,0,4-1.791,4-4v-8H32V64z"/>
	</g>
</g>
<g id="Shape_27_">
	<g>
		<path style="fill-rule:evenodd;clip-rule:evenodd;fill:#808080;" d="M28,48.001h8v-38c0-1.104-0.896-2-2-2H16l-8,8v38
			C8,55.104,8.896,56,10,56h18V48.001z"/>
	</g>
</g>
<g>
</g>
<g>
</g>
<g>
</g>
<g>
</g>
<g>
</g>
<g>
</g>
<g>
</g>
<g>
</g>
<g>
</g>
<g>
</g>
<g>
</g>
<g>
</g>
<g>
</g>
<g>
</g>
<g>
</g>
</svg>
