<?xml version="1.0" encoding="iso-8859-1"?>
<!-- Generator: Adobe Illustrator 16.0.0, SVG Export Plug-In . SVG Version: 6.00 Build 0)  -->
<!DOCTYPE svg PUBLIC "-//W3C//DTD SVG 1.1//EN" "http://www.w3.org/Graphics/SVG/1.1/DTD/svg11.dtd">
<svg version="1.1" id="Layer_1" xmlns="http://www.w3.org/2000/svg" xmlns:xlink="http://www.w3.org/1999/xlink" x="0px" y="0px"
	 width="64px" height="47.953px" viewBox="0 0 64 47.953" style="enable-background:new 0 0 64 47.953;" xml:space="preserve">
<g id="Body_60_">
	<g>
		<path style="fill-rule:evenodd;clip-rule:evenodd;fill:#59B7F7;" d="M62,11.988h-2V7.992c0-2.206-1.791-3.996-4-3.996H40V1.998
			C40,0.895,39.104,0,38,0H26c-1.104,0-2,0.895-2,1.998v1.998H8c-2.209,0-4,1.79-4,3.996v3.996H2c-1.104,0-2,0.895-2,1.998
			s0.896,1.998,2,1.998h2v27.974c0,2.206,1.791,3.995,4,3.995h48c2.209,0,4-1.789,4-3.995V15.984h2c1.104,0,2-0.895,2-1.998
			S63.104,11.988,62,11.988z"/>
	</g>
</g>
<g id="Viewfinder_3_">
	<g>
		<rect x="28" y="3.996" style="fill:#4D4D4D;" width="8" height="7.992"/>
	</g>
</g>
<g id="Viewfinder_4_">
	<g>
		<circle style="fill:#999999;" cx="32" cy="7.992" r="1.998"/>
	</g>
</g>
<g id="Body_61_">
	<g>
		<path style="fill-rule:evenodd;clip-rule:evenodd;fill:#4D4D4D;" d="M56,15.984H8H4v3.996v9.99v13.987
			c0,2.206,1.791,3.995,4,3.995h48c2.209,0,4-1.789,4-3.995V29.971v-9.99v-3.996H56z"/>
	</g>
</g>
<g id="Shape_75_">
	<g>
		<rect x="20" y="15.984" style="fill:#333333;" width="24" height="31.969"/>
	</g>
</g>
<g id="BTN_4_">
	<g>
		<circle style="fill:#333333;" cx="12" cy="23.977" r="3.996"/>
	</g>
</g>
<g id="Lens_21_">
	<g>
		<ellipse style="fill:#999999;" cx="32" cy="31.969" rx="12" ry="11.989"/>
	</g>
</g>
<g id="Lens_22_">
	<g>
		<ellipse style="fill:#333333;" cx="32" cy="31.969" rx="8" ry="7.992"/>
	</g>
</g>
<g id="Lens_23_">
	<g>
		<circle style="fill:#4D4D4D;" cx="32" cy="31.969" r="3.996"/>
	</g>
</g>
<g>
</g>
<g>
</g>
<g>
</g>
<g>
</g>
<g>
</g>
<g>
</g>
<g>
</g>
<g>
</g>
<g>
</g>
<g>
</g>
<g>
</g>
<g>
</g>
<g>
</g>
<g>
</g>
<g>
</g>
</svg>
