<?xml version="1.0" encoding="iso-8859-1"?>
<!-- Generator: Adobe Illustrator 16.0.0, SVG Export Plug-In . SVG Version: 6.00 Build 0)  -->
<!DOCTYPE svg PUBLIC "-//W3C//DTD SVG 1.1//EN" "http://www.w3.org/Graphics/SVG/1.1/DTD/svg11.dtd">
<svg version="1.1" id="Layer_1" xmlns="http://www.w3.org/2000/svg" xmlns:xlink="http://www.w3.org/1999/xlink" x="0px" y="0px"
	 width="64px" height="64px" viewBox="0 0 64 64" style="enable-background:new 0 0 64 64;" xml:space="preserve">
<g id="Frame_5_">
	<g>
		<path style="fill:#CCCCCC;" d="M48,0H4C1.791,0,0,1.791,0,4v32.001C0,38.21,1.791,40,4,40h44c2.209,0,4-1.79,4-3.999V4
			C52,1.791,50.209,0,48,0z"/>
	</g>
</g>
<g id="Frame_6_">
	<g>
		<path style="fill:#FFFFFF;" d="M60,24.001H16c-2.209,0-4,1.79-4,4v32C12,62.21,13.791,64,16,64h44c2.209,0,4-1.79,4-3.999v-32
			C64,25.791,62.209,24.001,60,24.001z"/>
	</g>
</g>
<g id="Frame_7_">
	<g>
		<path style="fill-rule:evenodd;clip-rule:evenodd;fill:#B3B3B3;" d="M60,24.001H16c-2.209,0-4,1.79-4,4v32
			C12,62.21,13.791,64,16,64h44c2.209,0,4-1.79,4-3.999v-32C64,25.791,62.209,24.001,60,24.001z M60,58c0,1.104-0.896,2.001-2,2.001
			H18c-1.104,0-2-0.896-2-2.001V30.001c0-1.105,0.896-2,2-2h40c1.104,0,2,0.895,2,2V58z"/>
	</g>
</g>
<g>
</g>
<g>
</g>
<g>
</g>
<g>
</g>
<g>
</g>
<g>
</g>
<g>
</g>
<g>
</g>
<g>
</g>
<g>
</g>
<g>
</g>
<g>
</g>
<g>
</g>
<g>
</g>
<g>
</g>
</svg>
