<?xml version="1.0" encoding="iso-8859-1"?>
<!-- Generator: Adobe Illustrator 16.0.0, SVG Export Plug-In . SVG Version: 6.00 Build 0)  -->
<!DOCTYPE svg PUBLIC "-//W3C//DTD SVG 1.1//EN" "http://www.w3.org/Graphics/SVG/1.1/DTD/svg11.dtd">
<svg version="1.1" id="Layer_1" xmlns="http://www.w3.org/2000/svg" xmlns:xlink="http://www.w3.org/1999/xlink" x="0px" y="0px"
	 width="44.045px" height="64.024px" viewBox="0 0 44.045 64.024" style="enable-background:new 0 0 44.045 64.024;"
	 xml:space="preserve">
<g id="Stem">
	<g>
		<path style="fill-rule:evenodd;clip-rule:evenodd;fill:#88C057;" d="M44.022,38.001c0,0-4,5.999-10,11.999c-5.099,5.099-10,2-10,6
			V18c0-1.104-0.896-2-2-2s-2,0.896-2,2v38c0-4-4.901-0.901-10-6c-6-6-10-11.999-10-11.999s-0.856,19.991,8,23.999
			c5.293,2.396,12,2,12,2h4c0,0,6.707,0.396,12-2C44.878,57.992,44.022,38.001,44.022,38.001z"/>
	</g>
</g>
<g id="Petals">
	<g>
		<path style="fill:#D46557;" d="M22.022,0c0,0-10,16.716-10,25.001c0,8.284,6.318,15,10,15s10-6.716,10-15
			C32.022,16.716,22.022,0,22.022,0z"/>
	</g>
</g>
<g id="Petals_1_">
	<g>
		<path style="fill-rule:evenodd;clip-rule:evenodd;fill:#ED7261;" d="M22.022,25.001c0-8.285-14-25-14-25s0,16.715,0,25
			c0,8.284,9.089,15,11.666,15c1.979,0,2.294-3.961,2.334-9.544c0.04,5.583,0.355,9.544,2.333,9.544c2.577,0,11.667-6.716,11.667-15
			c0-8.285,0-25,0-25S22.022,16.716,22.022,25.001z"/>
	</g>
</g>
<g>
</g>
<g>
</g>
<g>
</g>
<g>
</g>
<g>
</g>
<g>
</g>
<g>
</g>
<g>
</g>
<g>
</g>
<g>
</g>
<g>
</g>
<g>
</g>
<g>
</g>
<g>
</g>
<g>
</g>
</svg>
