<?xml version="1.0" encoding="iso-8859-1"?>
<!-- Generator: Adobe Illustrator 16.0.0, SVG Export Plug-In . SVG Version: 6.00 Build 0)  -->
<!DOCTYPE svg PUBLIC "-//W3C//DTD SVG 1.1//EN" "http://www.w3.org/Graphics/SVG/1.1/DTD/svg11.dtd">
<svg version="1.1" id="Layer_1" xmlns="http://www.w3.org/2000/svg" xmlns:xlink="http://www.w3.org/1999/xlink" x="0px" y="0px"
	 width="44px" height="48.001px" viewBox="0 0 44 48.001" style="enable-background:new 0 0 44 48.001;" xml:space="preserve">
<g id="Shape_52_">
	<g>
		<path style="fill:#666666;" d="M36,40.001H8c-2.209,0-4,1.79-4,4v4h4h28h4v-4C40,41.791,38.209,40.001,36,40.001z"/>
	</g>
</g>
<g id="Shape_53_">
	<g>
		<path style="fill:#333333;" d="M0,0v4c0,2.21,1.791,4,4,4h36c2.209,0,4-1.79,4-4V0H0z"/>
	</g>
</g>
<g id="Shape_54_">
	<g>
		<polygon style="fill:#4D4D4D;" points="32,36.001 12,36.001 8,40.001 36,40.001 		"/>
	</g>
</g>
<g id="Shape_55_">
	<g>
		<polygon style="fill:#666666;" points="4,8.001 14,16.001 30,16.001 40,8.001 		"/>
	</g>
</g>
<g id="Shape_56_">
	<g>
		<path style="fill:#333333;" d="M32,20.001H12c-2.209,0-4,1.79-4,4C8,26.21,9.791,28,12,28h20c2.209,0,4-1.79,4-3.999
			C36,21.791,34.209,20.001,32,20.001z"/>
	</g>
</g>
<g id="BTN_3_">
	<g>
		<rect x="20" y="22.001" style="fill:#FF8833;" width="4" height="3.999"/>
	</g>
</g>
<g id="Btns_1_">
	<g>
		<path style="fill-rule:evenodd;clip-rule:evenodd;fill:#666666;" d="M28,22.001V26h4v-3.999H28z M12,26h4v-3.999h-4V26z"/>
	</g>
</g>
<g id="Shape_57_">
	<g>
		<path style="fill-rule:evenodd;clip-rule:evenodd;fill:#4D4D4D;" d="M14,32h16v-4H14V32z M14,16.001v4h16v-4H14z"/>
	</g>
</g>
<g id="Shape_58_">
	<g>
		<rect x="12" y="32" style="fill:#333333;" width="20" height="4.001"/>
	</g>
</g>
<g>
</g>
<g>
</g>
<g>
</g>
<g>
</g>
<g>
</g>
<g>
</g>
<g>
</g>
<g>
</g>
<g>
</g>
<g>
</g>
<g>
</g>
<g>
</g>
<g>
</g>
<g>
</g>
<g>
</g>
</svg>
