<?xml version="1.0" encoding="iso-8859-1"?>
<!-- Generator: Adobe Illustrator 16.0.0, SVG Export Plug-In . SVG Version: 6.00 Build 0)  -->
<!DOCTYPE svg PUBLIC "-//W3C//DTD SVG 1.1//EN" "http://www.w3.org/Graphics/SVG/1.1/DTD/svg11.dtd">
<svg version="1.1" id="Layer_1" xmlns="http://www.w3.org/2000/svg" xmlns:xlink="http://www.w3.org/1999/xlink" x="0px" y="0px"
	 width="36px" height="44px" viewBox="0 0 36 44" style="enable-background:new 0 0 36 44;" xml:space="preserve">
<g id="Mount_5_">
	<g>
		<path style="fill:#8C8C8C;" d="M28,35.999H8c-1.104,0-2,0.896-2,2.001v4c0,1.104,0.896,2,2,2h20c1.104,0,2-0.896,2-2v-4
			C30,36.895,29.104,35.999,28,35.999z"/>
	</g>
</g>
<g id="Body_57_">
	<g>
		<path style="fill-rule:evenodd;clip-rule:evenodd;fill:#333333;" d="M30,0H6C3.791,0,2,1.79,2,4v8c0,2.208,1.791,4,4,4h24
			c2.209,0,4-1.792,4-4V4C34,1.79,32.209,0,30,0z M2,32h32v-4H2V32z"/>
	</g>
</g>
<g id="Shape_66_">
	<g>
		<path style="fill-rule:evenodd;clip-rule:evenodd;fill:#4D4D4D;" d="M34,4H2C0.896,4,0,4.895,0,6v17.999v2V28h2h32h2v-2.001v-2V6
			C36,4.895,35.104,4,34,4z M2,32H0v2v1.999V38c0,1.104,0.896,2,2,2h32c1.104,0,2-0.896,2-2v-2.001V34v-2h-2H2z"/>
	</g>
</g>
<g>
</g>
<g>
</g>
<g>
</g>
<g>
</g>
<g>
</g>
<g>
</g>
<g>
</g>
<g>
</g>
<g>
</g>
<g>
</g>
<g>
</g>
<g>
</g>
<g>
</g>
<g>
</g>
<g>
</g>
</svg>
