<?xml version="1.0" encoding="iso-8859-1"?>
<!-- Generator: Adobe Illustrator 16.0.0, SVG Export Plug-In . SVG Version: 6.00 Build 0)  -->
<!DOCTYPE svg PUBLIC "-//W3C//DTD SVG 1.1//EN" "http://www.w3.org/Graphics/SVG/1.1/DTD/svg11.dtd">
<svg version="1.1" id="Layer_1" xmlns="http://www.w3.org/2000/svg" xmlns:xlink="http://www.w3.org/1999/xlink" x="0px" y="0px"
	 width="64px" height="60.001px" viewBox="0 0 64 60.001" style="enable-background:new 0 0 64 60.001;" xml:space="preserve">
<g id="Shape_26_">
	<g>
		<path style="fill:#FFFFFF;" d="M60,0H4C1.791,0,0,1.791,0,4v52c0,2.21,1.791,4,4,4h56c2.209,0,4-1.79,4-4V4
			C64,1.791,62.209,0,60,0z"/>
	</g>
</g>
<g id="Frame_9_">
	<g>
		<path style="fill-rule:evenodd;clip-rule:evenodd;fill:#CCCCCC;" d="M60,54c0,1.104-0.896,2-2,2h-8v4h10c2.209,0,4-1.79,4-4
			v-7.999h-4V54z M4,54v-5.999H0V56c0,2.21,1.791,4,4,4h10v-4H6C4.896,56,4,55.104,4,54z M60,0H4C1.791,0,0,1.791,0,4v8.001h4V6
			c0-1.104,0.896-2,2-2h8V0.001h36V4h8c1.104,0,2,0.896,2,2v6.001h4V4C64,1.791,62.209,0,60,0z"/>
	</g>
</g>
<g id="Focus">
	<g>
		<path style="fill-rule:evenodd;clip-rule:evenodd;fill:#B3B3B3;" d="M36,14.524v4.173c4.657,1.649,8,6.08,8,11.303
			c0,5.222-3.343,9.653-8,11.302v4.174c6.896-1.779,12-8.023,12-15.476C48,22.548,42.896,16.304,36,14.524z M16,30.001
			c0,7.452,5.103,13.697,12,15.476v-4.174c-4.658-1.649-8-6.08-8-11.302c0-5.223,3.342-9.654,8-11.304v-4.173
			C21.103,16.303,16,22.548,16,30.001z"/>
	</g>
</g>
<g id="Focus_1_">
	<g>
		<circle style="fill:#ED7161;" cx="32" cy="30.001" r="4"/>
	</g>
</g>
<g>
</g>
<g>
</g>
<g>
</g>
<g>
</g>
<g>
</g>
<g>
</g>
<g>
</g>
<g>
</g>
<g>
</g>
<g>
</g>
<g>
</g>
<g>
</g>
<g>
</g>
<g>
</g>
<g>
</g>
</svg>
