<?xml version="1.0" encoding="iso-8859-1"?>
<!-- Generator: Adobe Illustrator 16.0.0, SVG Export Plug-In . SVG Version: 6.00 Build 0)  -->
<!DOCTYPE svg PUBLIC "-//W3C//DTD SVG 1.1//EN" "http://www.w3.org/Graphics/SVG/1.1/DTD/svg11.dtd">
<svg version="1.1" id="Layer_1" xmlns="http://www.w3.org/2000/svg" xmlns:xlink="http://www.w3.org/1999/xlink" x="0px" y="0px"
	 width="64px" height="64px" viewBox="0 0 64 64" style="enable-background:new 0 0 64 64;" xml:space="preserve">
<g id="Flash_1_">
	<g>
		<path style="fill:#B3B3B3;" d="M45.896,26.735c-0.199-0.446-0.653-0.734-1.156-0.734l-9.868,2.25l3.146-14.719
			c0.131-0.559-0.141-1.132-0.658-1.394c-0.515-0.261-1.15-0.144-1.536,0.284L18.316,35.972c-0.329,0.359-0.409,0.872-0.205,1.31
			c0.205,0.438,0.656,0.72,1.152,0.72l9.74-2.25l-2.937,14.628c-0.174,0.557,0.064,1.159,0.574,1.451
			c0.2,0.115,0.42,0.17,0.638,0.17c0.342,0,0.678-0.136,0.925-0.394l17.454-23.553C46.002,27.7,46.096,27.182,45.896,26.735z"/>
	</g>
</g>
<g id="Stop">
	<g>
		<path style="fill-rule:evenodd;clip-rule:evenodd;fill:#ED7161;" d="M32,0C14.327,0,0,14.327,0,32.001C0,49.674,14.327,64,32,64
			s32-14.326,32-31.999C64,14.327,49.673,0,32,0z M4,32.001c0-6.508,2.227-12.493,5.951-17.248L49.247,54.05
			C44.492,57.773,38.508,60,32,60C16.536,60,4,47.464,4,32.001z M52.19,51.389L12.611,11.81C17.643,6.977,24.472,4,32,4
			c15.464,0,28,12.536,28,28.001C60,39.528,57.023,46.357,52.19,51.389z"/>
	</g>
</g>
<g>
</g>
<g>
</g>
<g>
</g>
<g>
</g>
<g>
</g>
<g>
</g>
<g>
</g>
<g>
</g>
<g>
</g>
<g>
</g>
<g>
</g>
<g>
</g>
<g>
</g>
<g>
</g>
<g>
</g>
</svg>
