<?xml version="1.0" encoding="iso-8859-1"?>
<!-- Generator: Adobe Illustrator 16.0.0, SVG Export Plug-In . SVG Version: 6.00 Build 0)  -->
<!DOCTYPE svg PUBLIC "-//W3C//DTD SVG 1.1//EN" "http://www.w3.org/Graphics/SVG/1.1/DTD/svg11.dtd">
<svg version="1.1" id="Layer_1" xmlns="http://www.w3.org/2000/svg" xmlns:xlink="http://www.w3.org/1999/xlink" x="0px" y="0px"
	 width="48px" height="63.999px" viewBox="0 0 48 63.999" style="enable-background:new 0 0 48 63.999;" xml:space="preserve">
<g id="Shape_90_">
	<g>
		<path style="fill:#333333;" d="M36,0H16c-2.209,0-4,1.79-4,4v47.999C12,54.209,13.791,56,16,56h20c2.209,0,4-1.791,4-4.001V4
			C40,1.79,38.209,0,36,0z"/>
	</g>
</g>
<g id="Knob_3_">
	<g>
		<path style="fill-rule:evenodd;clip-rule:evenodd;fill:#4D4D4D;" d="M2,16c-1.104,0-2,0.895-2,1.999V26c0,1.104,0.896,2,2,2h2v-2
			v-8.001V16H2z"/>
	</g>
</g>
<g id="Body_69_">
	<g>
		<path style="fill:#666666;" d="M44,7.999H8c-2.209,0-4,1.791-4,4V60c0,2.209,1.791,3.999,4,3.999h36c2.209,0,4-1.79,4-3.999
			V11.999C48,9.79,46.209,7.999,44,7.999z"/>
	</g>
</g>
<g id="Shape_91_">
	<g>
		<rect x="12" y="7.999" style="fill:#4D4D4D;" width="28" height="56"/>
	</g>
</g>
<g id="Shape_92_">
	<g>
		<path style="fill-rule:evenodd;clip-rule:evenodd;fill:#B3B3B3;" d="M26,34c-5.523,0-10,4.477-10,10c0,5.522,4.477,10,10,10
			c5.522,0,10-4.478,10-10C36,38.477,31.522,34,26,34z M26,26c3.313,0,6-2.687,6-6.001c0-3.313-2.687-6-6-6s-6,2.687-6,6
			C20,23.313,22.687,26,26,26z"/>
	</g>
</g>
<g id="Shape_93_">
	<g>
		<path style="fill-rule:evenodd;clip-rule:evenodd;fill:#666666;" d="M26,38c-3.313,0-6,2.686-6,6c0,3.313,2.687,6,6,6
			c3.314,0,6-2.687,6-6C32,40.686,29.314,38,26,38z M26,22c1.104,0,2-0.896,2-2.001c0-1.104-0.896-2-2-2s-2,0.896-2,2
			C24,21.104,24.896,22,26,22z"/>
	</g>
</g>
<g>
</g>
<g>
</g>
<g>
</g>
<g>
</g>
<g>
</g>
<g>
</g>
<g>
</g>
<g>
</g>
<g>
</g>
<g>
</g>
<g>
</g>
<g>
</g>
<g>
</g>
<g>
</g>
<g>
</g>
</svg>
