<?xml version="1.0" encoding="iso-8859-1"?>
<!-- Generator: Adobe Illustrator 16.0.0, SVG Export Plug-In . SVG Version: 6.00 Build 0)  -->
<!DOCTYPE svg PUBLIC "-//W3C//DTD SVG 1.1//EN" "http://www.w3.org/Graphics/SVG/1.1/DTD/svg11.dtd">
<svg version="1.1" id="Layer_1" xmlns="http://www.w3.org/2000/svg" xmlns:xlink="http://www.w3.org/1999/xlink" x="0px" y="0px"
	 width="64px" height="64px" viewBox="0 0 64 64" style="enable-background:new 0 0 64 64;" xml:space="preserve">
<g id="Legs">
	<g>
		<path style="fill-rule:evenodd;clip-rule:evenodd;fill:#745C80;" d="M10,60H8v2c0,1.104,0.896,2,2,2h4c1.104,0,2-0.896,2-2v-2h-2
			H10z M54,60h-4h-2v2c0,1.104,0.896,2,2,2h4c1.104,0,2-0.896,2-2v-2H54z"/>
	</g>
</g>
<g id="Body_8_">
	<g>
		<path style="fill:#9B7CAB;" d="M60,0H4C1.791,0,0,1.791,0,4v52c0,2.209,1.791,4,4,4h56c2.209,0,4-1.791,4-4V4
			C64,1.791,62.209,0,60,0z"/>
	</g>
</g>
<g id="Display_1_">
	<g>
		<path style="fill:#FFFFFF;" d="M38.857,4H25.143C15.675,4,8,11.462,8,20.667v6.666C8,36.538,15.675,44,25.143,44h13.715
			C48.324,44,56,36.538,56,27.333v-6.666C56,11.462,48.324,4,38.857,4z"/>
	</g>
</g>
<g id="Holes_1_">
	<g>
		<path style="fill-rule:evenodd;clip-rule:evenodd;fill:#6D5778;" d="M28,50h-4c-1.104,0-2,0.896-2,2s0.896,2,2,2h4
			c1.104,0,2-0.896,2-2S29.104,50,28,50z M40,50h-4c-1.104,0-2,0.896-2,2s0.896,2,2,2h4c1.104,0,2-0.896,2-2S41.104,50,40,50z"/>
	</g>
</g>
<g id="Knobs">
	<g>
		<path style="fill-rule:evenodd;clip-rule:evenodd;fill:#FFFFFF;" d="M12,48c-2.209,0-4,1.791-4,4s1.791,4,4,4s4-1.791,4-4
			S14.209,48,12,48z M52,48c-2.209,0-4,1.791-4,4s1.791,4,4,4s4-1.791,4-4S54.209,48,52,48z"/>
	</g>
</g>
<g>
</g>
<g>
</g>
<g>
</g>
<g>
</g>
<g>
</g>
<g>
</g>
<g>
</g>
<g>
</g>
<g>
</g>
<g>
</g>
<g>
</g>
<g>
</g>
<g>
</g>
<g>
</g>
<g>
</g>
</svg>
