<?xml version="1.0" encoding="iso-8859-1"?>
<!-- Generator: Adobe Illustrator 16.0.0, SVG Export Plug-In . SVG Version: 6.00 Build 0)  -->
<!DOCTYPE svg PUBLIC "-//W3C//DTD SVG 1.1//EN" "http://www.w3.org/Graphics/SVG/1.1/DTD/svg11.dtd">
<svg version="1.1" id="Layer_1" xmlns="http://www.w3.org/2000/svg" xmlns:xlink="http://www.w3.org/1999/xlink" x="0px" y="0px"
	 width="24px" height="64.005px" viewBox="0 0 24 64.005" style="enable-background:new 0 0 24 64.005;" xml:space="preserve">
<g id="Body_17_">
	<g>
		<path style="fill-rule:evenodd;clip-rule:evenodd;fill:#FFCC66;" d="M22,20.212c0,0,0-1.773,0-4.759c0-2.986-8-5.449-8-5.449
			V8.005c1.798-0.625,1.333-5.104,1.333-5.104C15.333-0.254,12,0.005,12,0.005S8.666-0.254,8.666,2.901c0,0-0.464,3.729,1.334,5.104
			v1.999c0,0-8,2.463-8,5.449c0,2.985,0,4.759,0,4.759s-0.183,3.793,4,3.793v4c0,0,0.401,3.01,1.556,4.689
			c0,0,1.909,3.184,0.444,5.311c0,0-0.265,4.459,0.95,6.014c1.214,1.555,1.05,4.646,1.05,5.986c0,0-2,0.252-2,1.999h4h4
			c0-1.747-2-1.999-2-1.999c0-1.34-0.164-4.432,1.05-5.986S16,38.005,16,38.005c-1.466-2.127,0.444-5.311,0.444-5.311
			C17.599,31.015,18,28.005,18,28.005s-0.313-4.119,0-4C22.203,24.013,22.004,20.213,22,20.212z"/>
	</g>
</g>
<g id="Stand_2_">
	<g>
		<path style="fill:#927335;" d="M20,52.004H4c-1.104,0-2,0.896-2,2.001v7.999c0,1.104,0.896,2.001,2,2.001h16
			c1.104,0,2-0.896,2-2.001v-7.999C22,52.899,21.104,52.004,20,52.004z"/>
	</g>
</g>
<g id="Stand_3_">
	<g>
		<path style="fill:#4D4D4D;" d="M22,60.005H2c-1.104,0-2,0.895-2,1.999s0.896,2.001,2,2.001h20c1.104,0,2-0.896,2-2.001
			S23.104,60.005,22,60.005z"/>
	</g>
</g>
<g>
</g>
<g>
</g>
<g>
</g>
<g>
</g>
<g>
</g>
<g>
</g>
<g>
</g>
<g>
</g>
<g>
</g>
<g>
</g>
<g>
</g>
<g>
</g>
<g>
</g>
<g>
</g>
<g>
</g>
</svg>
