<?xml version="1.0" encoding="iso-8859-1"?>
<!-- Generator: Adobe Illustrator 16.0.0, SVG Export Plug-In . SVG Version: 6.00 Build 0)  -->
<!DOCTYPE svg PUBLIC "-//W3C//DTD SVG 1.1//EN" "http://www.w3.org/Graphics/SVG/1.1/DTD/svg11.dtd">
<svg version="1.1" id="Layer_1" xmlns="http://www.w3.org/2000/svg" xmlns:xlink="http://www.w3.org/1999/xlink" x="0px" y="0px"
	 width="64px" height="54px" viewBox="0 0 64 54" style="enable-background:new 0 0 64 54;" xml:space="preserve">
<g id="Body_21_">
	<g>
		<path style="fill-rule:evenodd;clip-rule:evenodd;fill:#666666;" d="M48,29.999h-4.01C41.786,29.994,40,28.206,40,26
			c0-2.209-1.791-4-4-4H8c-2.209,0-4,1.791-4,4v7.999V34v16c0,2.208,1.791,3.999,4,3.999h40c2.209,0,4-1.791,4-3.999V33.999
			C52,31.79,50.209,29.999,48,29.999z"/>
	</g>
</g>
<g id="Lens_4_">
	<g>
		<path style="fill-rule:evenodd;clip-rule:evenodd;fill:#4D4D4D;" d="M62,34h-2h-2h-2v2v8v2h2h2h2c1.104,0,2-0.896,2-2v-8
			C64,34.895,63.104,34,62,34z"/>
	</g>
</g>
<g id="Label_16_">
	<g>
		<rect x="62" y="34" style="fill:#FFCC66;" width="2" height="12"/>
	</g>
</g>
<g id="Shape_13_">
	<g>
		<path style="fill:#666666;" d="M54,30h-4c-1.104,0-2,0.895-2,2v16c0,1.104,0.896,2,2,2h4c1.104,0,2-0.896,2-2V32
			C56,30.895,55.104,30,54,30z"/>
	</g>
</g>
<g id="Body_22_">
	<g>
		<path style="fill-rule:evenodd;clip-rule:evenodd;fill:#808080;" d="M48,30H8H4v4v4v12c0,2.209,1.791,4,4,4h40
			c2.209,0,4-1.791,4-4V38v-4v-4H48z"/>
	</g>
</g>
<g id="Shape_14_">
	<g>
		<path style="fill-rule:evenodd;clip-rule:evenodd;fill:#666666;" d="M18,36c-3.313,0-6,2.686-6,6c0,3.313,2.687,6,6,6s6-2.687,6-6
			C24,38.686,21.313,36,18,36z M30,44c-1.104,0-2,0.895-2,2c0,1.104,0.896,2,2,2s2-0.896,2-2C32,44.895,31.104,44,30,44z M38,44
			c-1.104,0-2,0.895-2,2c0,1.104,0.896,2,2,2s2-0.896,2-2C40,44.895,39.104,44,38,44z M38,42c1.104,0,2-0.896,2-2
			c0-1.105-0.896-2-2-2s-2,0.895-2,2C36,41.104,36.896,42,38,42z M30,38c-1.104,0-2,0.895-2,2c0,1.104,0.896,2,2,2s2-0.896,2-2
			C32,38.895,31.104,38,30,38z"/>
	</g>
</g>
<g id="Btn">
	<g>
		<circle style="fill:#9A9A9A;" cx="18" cy="42" r="2"/>
	</g>
</g>
<g id="Arm">
	<g>
		<path style="fill:#999999;" d="M32.782,27.087L12.85,7.154c-1.572-1.572-4.122-1.572-5.695,0c-1.572,1.572-1.572,4.122,0,5.695
			l19.933,19.933c1.573,1.572,4.123,1.572,5.695,0C34.354,31.209,34.354,28.66,32.782,27.087z"/>
	</g>
</g>
<g id="Viewfinder">
	<g>
		<polygon style="fill:#666666;" points="12,0 0,12 8,14 14,8 		"/>
	</g>
</g>
<g>
</g>
<g>
</g>
<g>
</g>
<g>
</g>
<g>
</g>
<g>
</g>
<g>
</g>
<g>
</g>
<g>
</g>
<g>
</g>
<g>
</g>
<g>
</g>
<g>
</g>
<g>
</g>
<g>
</g>
</svg>
