<?xml version="1.0" encoding="iso-8859-1"?>
<!-- Generator: Adobe Illustrator 16.0.0, SVG Export Plug-In . SVG Version: 6.00 Build 0)  -->
<!DOCTYPE svg PUBLIC "-//W3C//DTD SVG 1.1//EN" "http://www.w3.org/Graphics/SVG/1.1/DTD/svg11.dtd">
<svg version="1.1" id="Layer_1" xmlns="http://www.w3.org/2000/svg" xmlns:xlink="http://www.w3.org/1999/xlink" x="0px" y="0px"
	 width="47.999px" height="64px" viewBox="0 0 47.999 64" style="enable-background:new 0 0 47.999 64;" xml:space="preserve">
<g id="Sign">
	<g>
		<path style="fill:#ED7161;" d="M8,56c-1.105,0-2,0.896-2,2v4c0,1.105,0.895,2,2,2c1.104,0,2-0.895,2-2v-4C10,56.896,9.104,56,8,56
			z"/>
	</g>
</g>
<g id="Cover">
	<g>
		<path style="fill:#CCCCCC;" d="M43.999,0H0v60h43.999c2.209,0,4-1.79,4-4V4C47.999,1.791,46.208,0,43.999,0z"/>
	</g>
</g>
<g id="Text">
	<g>
		<path style="fill:#FFFFFF;" d="M32,48.001H8c-1.104,0-2,0.896-2,2.001c0,1.104,0.896,1.999,2,1.999h24c1.104,0,2-0.896,2-1.999
			C34,48.896,33.104,48.001,32,48.001z"/>
	</g>
</g>
<g id="Text_1_">
	<g>
		<path style="fill:#FFFFFF;" d="M20,40.001H8c-1.104,0-2,0.896-2,2s0.896,2,2,2h12c1.104,0,2-0.896,2-2S21.104,40.001,20,40.001z"
			/>
	</g>
</g>
<g id="Rounded_Rectangle_168">
	<g>
		<path style="fill:#FFFFFF;" d="M40,6.001H8c-1.104,0-2,0.896-2,2.001v24c0,1.104,0.896,1.999,2,1.999h32c1.104,0,2-0.896,2-1.999
			v-24C42,6.896,41.104,6.001,40,6.001z"/>
	</g>
</g>
<g id="Picture">
	<g>
		<polygon style="fill:#75A64B;" points="28,16.002 20,28.002 14,20.002 6,34.001 42,33.999 		"/>
	</g>
</g>
<g id="Sun">
	<g>
		<circle style="fill:#FFCC66;" cx="14" cy="13.996" r="3.997"/>
	</g>
</g>
<g>
</g>
<g>
</g>
<g>
</g>
<g>
</g>
<g>
</g>
<g>
</g>
<g>
</g>
<g>
</g>
<g>
</g>
<g>
</g>
<g>
</g>
<g>
</g>
<g>
</g>
<g>
</g>
<g>
</g>
</svg>
