<?xml version="1.0" encoding="iso-8859-1"?>
<!-- Generator: Adobe Illustrator 16.0.0, SVG Export Plug-In . SVG Version: 6.00 Build 0)  -->
<!DOCTYPE svg PUBLIC "-//W3C//DTD SVG 1.1//EN" "http://www.w3.org/Graphics/SVG/1.1/DTD/svg11.dtd">
<svg version="1.1" id="Layer_1" xmlns="http://www.w3.org/2000/svg" xmlns:xlink="http://www.w3.org/1999/xlink" x="0px" y="0px"
	 width="64px" height="43.957px" viewBox="0 0 64 43.957" style="enable-background:new 0 0 64 43.957;" xml:space="preserve">
<g id="Btn_3_">
	<g>
		<path style="fill:#CCCCCC;" d="M13,0c-1.656,0-3,1.342-3,2.998v1.998c0,1.654,1.344,2.996,3,2.996
			c1.657,0,3.001-1.342,3.001-2.996V2.998C16.001,1.342,14.657,0,13,0z"/>
	</g>
</g>
<g id="Base_8_">
	<g>
		<path style="fill:#88C057;" d="M60,3.997H4c-2.209,0-4,1.789-4,3.995v31.97c0,2.207,1.791,3.995,4,3.995h56
			c2.21,0,4-1.788,4-3.995V7.992C64,5.786,62.21,3.997,60,3.997z"/>
	</g>
</g>
<g id="Camera_Lens">
	<g>
		<ellipse style="fill:#48662E;" cx="44" cy="23.977" rx="12" ry="11.989"/>
	</g>
</g>
<g id="Lens_30_">
	<g>
		<path style="fill:#243317;" d="M46,19.981h-3.999c-2.21,0-4,1.789-4,3.996s1.79,3.996,4,3.996H46c2.21,0,4.001-1.789,4.001-3.996
			S48.21,19.981,46,19.981z"/>
	</g>
</g>
<g id="Blitz_2_">
	<g>
		<path style="fill:#FFFFFF;" d="M15.001,11.988h-4c-1.657,0-3,1.343-3,2.997c0,1.656,1.343,2.998,3,2.998h4
			c1.656,0,3-1.342,3-2.998C18.001,13.331,16.657,11.988,15.001,11.988z"/>
	</g>
</g>
<g>
</g>
<g>
</g>
<g>
</g>
<g>
</g>
<g>
</g>
<g>
</g>
<g>
</g>
<g>
</g>
<g>
</g>
<g>
</g>
<g>
</g>
<g>
</g>
<g>
</g>
<g>
</g>
<g>
</g>
</svg>
