<?xml version="1.0" encoding="iso-8859-1"?>
<!-- Generator: Adobe Illustrator 16.0.0, SVG Export Plug-In . SVG Version: 6.00 Build 0)  -->
<!DOCTYPE svg PUBLIC "-//W3C//DTD SVG 1.1//EN" "http://www.w3.org/Graphics/SVG/1.1/DTD/svg11.dtd">
<svg version="1.1" id="Layer_1" xmlns="http://www.w3.org/2000/svg" xmlns:xlink="http://www.w3.org/1999/xlink" x="0px" y="0px"
	 width="64px" height="64px" viewBox="0 0 64 64" style="enable-background:new 0 0 64 64;" xml:space="preserve">
<g id="Base_11_">
	<g>
		<path style="fill:#CCCCCC;" d="M60,0H4C1.79,0,0,1.791,0,4v56c0,2.209,1.79,4,4,4h56c2.209,0,4-1.791,4-4V4
			C64,1.791,62.209,0,60,0z"/>
	</g>
</g>
<g id="Base_12_">
	<g>
		<path style="fill:#999999;" d="M60,44H4H0v4v4v8c0,2.209,1.79,4,4,4h56c2.209,0,4-1.791,4-4v-8v-4v-4H60z"/>
	</g>
</g>
<g id="Tray_2_">
	<g>
		<path style="fill:#666666;" d="M54,52H10c-1.105,0-2,0.896-2,2s0.895,2,2,2h44c1.104,0,2-0.896,2-2S55.104,52,54,52z"/>
	</g>
</g>
<g id="Background_2_">
	<g>
		<rect x="4" y="4" style="fill:#E6E6E6;" width="56" height="40"/>
	</g>
</g>
<g id="Strip_7_">
	<g>
		<rect x="26" y="34" style="fill:#ED7161;" width="4" height="10"/>
	</g>
</g>
<g id="Strip_8_">
	<g>
		<rect x="30" y="34" style="fill:#FFCC66;" width="4" height="10"/>
	</g>
</g>
<g id="Strip_9_">
	<g>
		<rect x="34" y="34" style="fill:#88C057;" width="4" height="10"/>
	</g>
</g>
<g id="Camera_Lens_5_">
	<g>
		<circle style="fill:#536A79;" cx="32" cy="24" r="12"/>
	</g>
</g>
<g id="Camera_Lens_6_">
	<g>
		<circle style="fill:#CCCCCC;" cx="32" cy="24" r="4.007"/>
	</g>
</g>
<g id="Blitz_Base">
	<g>
		<path style="fill:#999999;" d="M54,6h-4c-2.21,0-4,1.791-4,4v4c0,2.209,1.79,4,4,4h4c2.209,0,4-1.791,4-4v-4
			C58,7.791,56.209,6,54,6z"/>
	</g>
</g>
<g>
</g>
<g>
</g>
<g>
</g>
<g>
</g>
<g>
</g>
<g>
</g>
<g>
</g>
<g>
</g>
<g>
</g>
<g>
</g>
<g>
</g>
<g>
</g>
<g>
</g>
<g>
</g>
<g>
</g>
</svg>
