<?xml version="1.0" encoding="iso-8859-1"?>
<!-- Generator: Adobe Illustrator 16.0.0, SVG Export Plug-In . SVG Version: 6.00 Build 0)  -->
<!DOCTYPE svg PUBLIC "-//W3C//DTD SVG 1.1//EN" "http://www.w3.org/Graphics/SVG/1.1/DTD/svg11.dtd">
<svg version="1.1" id="Layer_1" xmlns="http://www.w3.org/2000/svg" xmlns:xlink="http://www.w3.org/1999/xlink" x="0px" y="0px"
	 width="64px" height="63.999px" viewBox="0 0 64 63.999" style="enable-background:new 0 0 64 63.999;" xml:space="preserve">
<g id="BTN_8_">
	<g>
		<path style="fill-rule:evenodd;clip-rule:evenodd;fill:#ED7161;" d="M2,45.999c-1.104,0-2,0.896-2,2v4C0,53.104,0.896,54,2,54h2
			v-2.001v-4v-2H2z"/>
	</g>
</g>
<g id="Body_66_">
	<g>
		<path style="fill:#4D4D4D;" d="M60,40H8c-2.209,0-4,1.79-4,4v16c0,2.209,1.791,3.999,4,3.999h52c2.209,0,4-1.79,4-3.999V44
			C64,41.79,62.209,40,60,40z"/>
	</g>
</g>
<g id="Shape_84_">
	<g>
		<rect x="32" y="19.999" style="fill:#4D4D4D;" width="4" height="4"/>
	</g>
</g>
<g id="Body_67_">
	<g>
		<path style="fill-rule:evenodd;clip-rule:evenodd;fill:#666666;" d="M60,0H8C5.791,0,4,1.79,4,4v28c0,2.209,1.791,4,4,4h4
			c-2.209,0-4-1.791-4-4v-4v-4.001v-4h4h44h4v4V28v4c0,2.209-1.791,4-4,4h4c2.209,0,4-1.791,4-4V4C64,1.79,62.209,0,60,0z"/>
	</g>
</g>
<g id="Shape_85_">
	<g>
		<path style="fill:#999999;" d="M58,4H10C8.896,4,8,4.895,8,5.999v8C8,15.104,8.896,16,10,16h48c1.104,0,2-0.896,2-2.001v-8
			C60,4.895,59.104,4,58,4z"/>
	</g>
</g>
<g id="Tray_1_">
	<g>
		<path style="fill:#666666;" d="M54,7.999H14c-1.104,0-2,0.896-2,2s0.896,2,2,2h40c1.104,0,2-0.896,2-2S55.104,7.999,54,7.999z"/>
	</g>
</g>
<g id="Blitz_6_">
	<g>
		<path style="fill:#FFCC66;" d="M54,7.999H42c-1.104,0-2,0.896-2,2s0.896,2,2,2h12c1.104,0,2-0.896,2-2S55.104,7.999,54,7.999z"/>
	</g>
</g>
<g id="Shape_86_">
	<g>
		<path style="fill:#E6E6E6;" d="M58,23.999H10c-1.104,0-2,0.896-2,2.001v24c0,1.104,0.896,1.999,2,1.999h48
			c1.104,0,2-0.896,2-1.999V26C60,24.895,59.104,23.999,58,23.999z"/>
	</g>
</g>
<g id="Shape_87_">
	<g>
		<path style="fill-rule:evenodd;clip-rule:evenodd;fill:#999999;" d="M54,28h-8c-1.104,0-2,0.895-2,2v15.999c0,1.105,0.896,2,2,2h8
			c1.104,0,2-0.895,2-2V30C56,28.895,55.104,28,54,28z M38,44h-8c-1.104,0-2,0.895-2,1.999c0,1.105,0.896,2,2,2h8
			c1.104,0,2-0.895,2-2C40,44.895,39.104,44,38,44z"/>
	</g>
</g>
<g id="Shape_88_">
	<g>
		<rect x="48" y="32" style="fill:#E6E6E6;" width="4" height="8"/>
	</g>
</g>
<g id="Shape_89_">
	<g>
		<path style="fill-rule:evenodd;clip-rule:evenodd;fill:#4D4D4D;" d="M22,28h-8c-1.104,0-2,0.895-2,2c0,1.104,0.896,2,2,2h8
			c1.104,0,2-0.896,2-2C24,28.895,23.104,28,22,28z M22,36h-8c-1.104,0-2,0.895-2,2c0,1.104,0.896,2,2,2h8c1.104,0,2-0.896,2-2
			C24,36.895,23.104,36,22,36z M34,28c-3.313,0-6,2.686-6,6c0,3.313,2.687,6,6,6s6-2.688,6-6C40,30.686,37.313,28,34,28z"/>
	</g>
</g>
<g id="Lens_35_">
	<g>
		<circle style="fill:#1A1A1A;" cx="34" cy="34" r="2"/>
	</g>
</g>
<g>
</g>
<g>
</g>
<g>
</g>
<g>
</g>
<g>
</g>
<g>
</g>
<g>
</g>
<g>
</g>
<g>
</g>
<g>
</g>
<g>
</g>
<g>
</g>
<g>
</g>
<g>
</g>
<g>
</g>
</svg>
