<?xml version="1.0" encoding="iso-8859-1"?>
<!-- Generator: Adobe Illustrator 16.0.0, SVG Export Plug-In . SVG Version: 6.00 Build 0)  -->
<!DOCTYPE svg PUBLIC "-//W3C//DTD SVG 1.1//EN" "http://www.w3.org/Graphics/SVG/1.1/DTD/svg11.dtd">
<svg version="1.1" id="Layer_1" xmlns="http://www.w3.org/2000/svg" xmlns:xlink="http://www.w3.org/1999/xlink" x="0px" y="0px"
	 width="64.003px" height="63.999px" viewBox="0 0 64.003 63.999" style="enable-background:new 0 0 64.003 63.999;"
	 xml:space="preserve">
<g id="Rounded_Rectangle_101">
	<g>
		<path style="fill:#4D4D4D;" d="M60,0H4C1.791,0,0,1.79,0,4v56c0,2.209,1.791,3.999,4,3.999h56c2.209,0,4-1.79,4-3.999V4
			C64,1.79,62.209,0,60,0z"/>
	</g>
</g>
<g id="Strip_11_">
	<g>
		<rect x="0.002" y="25.999" style="fill:#ED7161;" width="64.001" height="4"/>
	</g>
</g>
<g id="Strip_2_">
	<g>
		<rect x="0.002" y="29.999" style="fill:#FFCC66;" width="64.001" height="4"/>
	</g>
</g>
<g id="Strip_3_">
	<g>
		<rect x="0.002" y="33.999" style="fill:#88C057;" width="64.001" height="4"/>
	</g>
</g>
<g id="Rounded_Rectangle_103">
	<g>
		<path style="fill:#333333;" d="M50,5.999H14c-4.418,0-8,3.582-8,8V50c0,4.418,3.582,8,8,8h36c4.418,0,8-3.582,8-8V13.999
			C58,9.581,54.418,5.999,50,5.999z"/>
	</g>
</g>
<g id="Ellipse_26">
	<g>
		<circle style="fill:#737373;" cx="32" cy="32" r="12"/>
	</g>
</g>
<g id="Ellipse_26_3_">
	<g>
		<circle style="fill:#4D4D4D;" cx="32" cy="32" r="8"/>
	</g>
</g>
<g id="Ellipse_26_2_">
	<g>
		<circle style="fill:#1A1A1A;" cx="32" cy="32" r="4"/>
	</g>
</g>
<g>
</g>
<g>
</g>
<g>
</g>
<g>
</g>
<g>
</g>
<g>
</g>
<g>
</g>
<g>
</g>
<g>
</g>
<g>
</g>
<g>
</g>
<g>
</g>
<g>
</g>
<g>
</g>
<g>
</g>
</svg>
