<?xml version="1.0" encoding="iso-8859-1"?>
<!-- Generator: Adobe Illustrator 16.0.0, SVG Export Plug-In . SVG Version: 6.00 Build 0)  -->
<!DOCTYPE svg PUBLIC "-//W3C//DTD SVG 1.1//EN" "http://www.w3.org/Graphics/SVG/1.1/DTD/svg11.dtd">
<svg version="1.1" id="Layer_1" xmlns="http://www.w3.org/2000/svg" xmlns:xlink="http://www.w3.org/1999/xlink" x="0px" y="0px"
	 width="48px" height="64.003px" viewBox="0 0 48 64.003" style="enable-background:new 0 0 48 64.003;" xml:space="preserve">
<g id="Popcorn">
	<g>
		<path style="fill-rule:evenodd;clip-rule:evenodd;fill:#FFCC66;" d="M44.681,13C45.482,12.267,46,11.202,46,10
			c0-1.498-0.797-2.789-1.964-3.474C44.059,6.353,44.087,6.181,44.087,6c0-2.21-1.713-4-3.826-4s-3.826,1.79-3.826,4
			c0,0.181,0.028,0.353,0.051,0.526C35.318,7.211,34.521,8.502,34.521,10c0,0.181,0.028,0.353,0.051,0.526
			c-0.017,0.01-0.034,0.019-0.051,0.028c-0.017-0.01-0.034-0.019-0.051-0.028c0.022-0.174,0.051-0.346,0.051-0.526
			c0-0.83-0.242-1.601-0.655-2.239c1.491-0.546,2.568-2.015,2.568-3.762C36.435,1.79,34.722,0,32.608,0
			c-1.67,0-3.075,1.125-3.598,2.685C28.399,2.253,27.663,2,26.869,2c-1.434,0-2.667,0.833-3.322,2.052
			c-0.167-0.022-0.331-0.053-0.504-0.053c-0.332,0-0.648,0.059-0.956,0.142c-0.308-0.083-0.624-0.142-0.956-0.142
			s-0.649,0.059-0.957,0.142c-0.308-0.083-0.625-0.142-0.957-0.142s-0.648,0.059-0.956,0.142c-0.308-0.083-0.625-0.142-0.957-0.142
			c-1.67,0-3.075,1.126-3.597,2.687C13.096,6.253,12.358,6,11.564,6c-0.332,0-0.648,0.059-0.956,0.142C10.301,6.059,9.984,6,9.652,6
			C8.1,6,6.771,6.971,6.17,8.359C4.842,8.987,3.913,10.377,3.913,12c0,0.181,0.028,0.353,0.051,0.526
			C2.797,13.211,2,14.502,2,16.001c0,2.209,1.713,4,3.826,4c1.434,0,2.668-0.834,3.323-2.054C9.315,17.97,9.48,18,9.652,18
			c1.434,0,2.667-0.833,3.322-2.052c0.167,0.022,0.331,0.053,0.504,0.053c0.332,0,0.649-0.059,0.956-0.142
			c0.308,0.083,0.625,0.142,0.957,0.142s0.648-0.059,0.956-0.142c0.308,0.083,0.624,0.142,0.956,0.142
			c0.7,0,1.349-0.211,1.913-0.555c0.113,0.068,0.225,0.139,0.344,0.194C20.161,17.03,21.49,18,23.043,18
			c1.434,0,2.667-0.833,3.322-2.052c0.167,0.022,0.331,0.053,0.504,0.053c0.794,0,1.531-0.253,2.142-0.686
			C29.533,16.875,30.938,18,32.608,18c0.7,0,1.349-0.211,1.913-0.555C35.086,17.789,35.734,18,36.435,18
			c0.794,0,1.53-0.253,2.142-0.685c0.522,1.56,1.928,2.686,3.598,2.686c2.113,0,3.826-1.791,3.826-4
			C46,14.799,45.482,13.733,44.681,13z"/>
	</g>
</g>
<g id="Popcorn_5_">
	<g>
		<path style="fill-rule:evenodd;clip-rule:evenodd;fill:#CCA352;" d="M23.043,12c-2.113,0-3.826,1.791-3.826,4.001
			c0,2.209,1.713,4,3.826,4s3.826-1.791,3.826-4C26.869,13.791,25.156,12,23.043,12z M15.392,6c-2.113,0-3.827,1.791-3.827,4
			c0,2.21,1.714,4,3.827,4c2.112,0,3.825-1.79,3.825-4C19.217,7.791,17.504,6,15.392,6z M40.261,12c-0.192,0-0.377,0.03-0.562,0.06
			c0.35-0.604,0.562-1.303,0.562-2.06c0-2.209-1.713-4-3.826-4s-3.826,1.791-3.826,4c0,2.21,1.713,4,3.826,4
			c0.192,0,0.377-0.03,0.562-0.06c-0.349,0.604-0.562,1.304-0.562,2.061c0,2.209,1.713,4,3.826,4s3.826-1.791,3.826-4
			C44.087,13.791,42.374,12,40.261,12z M28.782,6c-2.112,0-3.826,1.791-3.826,4c0,2.21,1.714,4,3.826,4c2.113,0,3.826-1.79,3.826-4
			C32.608,7.791,30.896,6,28.782,6z"/>
	</g>
</g>
<g id="Popcorn_2_">
	<g>
		<path style="fill-rule:evenodd;clip-rule:evenodd;fill:#FFCC66;" d="M38.348,8c-0.794,0-1.53,0.253-2.142,0.686
			C35.684,7.126,34.278,6,32.608,6c-2.113,0-3.826,1.791-3.826,4c0,2.21,1.713,4,3.826,4c0.794,0,1.53-0.253,2.142-0.685
			c0.522,1.56,1.928,2.686,3.598,2.686c2.113,0,3.826-1.791,3.826-4.001C42.174,9.791,40.461,8,38.348,8z M21.131,6
			c-2.113,0-3.827,1.791-3.827,4c0,2.21,1.714,4,3.827,4c2.112,0,3.825-1.79,3.825-4C24.956,7.791,23.243,6,21.131,6z M11.564,8
			c-2.112,0-3.825,1.791-3.825,4c0,2.21,1.713,4.001,3.825,4.001c2.113,0,3.827-1.791,3.827-4.001C15.392,9.791,13.678,8,11.564,8z"
			/>
	</g>
</g>
<g id="Popcorn_3_">
	<g>
		<path style="fill-rule:evenodd;clip-rule:evenodd;fill:#FFE1A5;" d="M40.261,14c-0.794,0-1.53,0.253-2.142,0.686
			C37.597,13.126,36.191,12,34.521,12c-2.113,0-3.826,1.791-3.826,4.001c0,2.209,1.713,4,3.826,4c0.794,0,1.531-0.253,2.142-0.686
			c0.522,1.561,1.928,2.686,3.598,2.686c2.113,0,3.826-1.791,3.826-4.001C44.087,15.792,42.374,14,40.261,14z M23.043,12
			c-2.113,0-3.826,1.791-3.826,4.001c0,2.209,1.713,4,3.826,4s3.826-1.791,3.826-4C26.869,13.791,25.156,12,23.043,12z M13.479,14
			c-2.113,0-3.826,1.792-3.826,4c0,2.21,1.713,4.001,3.826,4.001S17.304,20.21,17.304,18C17.304,15.792,15.592,14,13.479,14z"/>
	</g>
</g>
<g id="Box">
	<g>
		<path style="fill:#ED7161;" d="M44,16.001H4c-2.21,0-4,1.791-4,4l4,40.002c0,2.21,1.791,4,4,4h32c2.209,0,4-1.79,4-4l4-40.002
			C48,17.792,46.209,16.001,44,16.001z"/>
	</g>
</g>
<g id="Label_17_">
	<g>
		<path style="fill-rule:evenodd;clip-rule:evenodd;fill:#FFFFFF;" d="M9.459,43.055l0.919,16.948h9.412l-0.676-12.461
			C15.182,46.804,11.805,45.2,9.459,43.055z M17.621,20H8.209l0.524,9.666c2.117-2.263,5.326-4.016,9.144-4.938L17.621,20z
			 M28.209,60.003h9.412l0.919-16.948c-2.346,2.146-5.724,3.749-9.655,4.487L28.209,60.003z M30.378,20l-0.256,4.729
			c3.817,0.922,7.026,2.674,9.144,4.937L39.79,20H30.378z M36,36.001c0-4.418-5.373-8-12-8c-6.628,0-12,3.582-12,8
			c0,4.419,5.372,8.002,12,8.002C30.627,44.003,36,40.42,36,36.001z"/>
	</g>
</g>
<g>
</g>
<g>
</g>
<g>
</g>
<g>
</g>
<g>
</g>
<g>
</g>
<g>
</g>
<g>
</g>
<g>
</g>
<g>
</g>
<g>
</g>
<g>
</g>
<g>
</g>
<g>
</g>
<g>
</g>
</svg>
