<?xml version="1.0" encoding="iso-8859-1"?>
<!-- Generator: Adobe Illustrator 16.0.0, SVG Export Plug-In . SVG Version: 6.00 Build 0)  -->
<!DOCTYPE svg PUBLIC "-//W3C//DTD SVG 1.1//EN" "http://www.w3.org/Graphics/SVG/1.1/DTD/svg11.dtd">
<svg version="1.1" id="Layer_1" xmlns="http://www.w3.org/2000/svg" xmlns:xlink="http://www.w3.org/1999/xlink" x="0px" y="0px"
	 width="64px" height="40px" viewBox="0 0 64 40" style="enable-background:new 0 0 64 40;" xml:space="preserve">
<g id="Stand">
	<g>
		<path style="fill-rule:evenodd;clip-rule:evenodd;fill:#999999;" d="M8,40h4c2.209,0,4-1.791,4-4H4C4,38.209,5.791,40,8,40z
			 M48,36c0,2.209,1.791,4,4,4h4c2.209,0,4-1.791,4-4H48z"/>
	</g>
</g>
<g id="Body_13_">
	<g>
		<path style="fill-rule:evenodd;clip-rule:evenodd;fill:#CCCCCC;" d="M60,4h-2.698C54.212,1.502,50.283,0,46,0
			s-8.212,1.502-11.302,4H4C1.791,4,0,5.791,0,8v24c0,2.209,1.791,4,4,4h56c2.209,0,4-1.791,4-4V8C64,5.791,62.209,4,60,4z"/>
	</g>
</g>
<g id="Air_Holes">
	<g>
		<path style="fill-rule:evenodd;clip-rule:evenodd;fill:#B3B3B3;" d="M8,14.001h16c1.104,0,2-0.896,2-2.001s-0.896-2-2-2H8
			c-1.104,0-2,0.896-2,2S6.896,14.001,8,14.001z M24,18H8c-1.104,0-2,0.896-2,2.001C6,21.104,6.896,22,8,22h16
			c1.104,0,2-0.896,2-1.999C26,18.896,25.104,18,24,18z M24,26H8c-1.104,0-2,0.896-2,2s0.896,2,2,2h16c1.104,0,2-0.896,2-2
			S25.104,26,24,26z"/>
	</g>
</g>
<g id="lens">
	<g>
		<circle style="fill:#4D4D4D;" cx="46" cy="20" r="14"/>
	</g>
</g>
<g id="Lens">
	<g>
		<circle style="fill:#1A1A1A;" cx="46" cy="20" r="8"/>
	</g>
</g>
<g id="Lens_1_">
	<g>
		<circle style="fill:#48A0DC;" cx="46" cy="20" r="4"/>
	</g>
</g>
<g>
</g>
<g>
</g>
<g>
</g>
<g>
</g>
<g>
</g>
<g>
</g>
<g>
</g>
<g>
</g>
<g>
</g>
<g>
</g>
<g>
</g>
<g>
</g>
<g>
</g>
<g>
</g>
<g>
</g>
</svg>
