<?xml version="1.0" encoding="iso-8859-1"?>
<!-- Generator: Adobe Illustrator 16.0.0, SVG Export Plug-In . SVG Version: 6.00 Build 0)  -->
<!DOCTYPE svg PUBLIC "-//W3C//DTD SVG 1.1//EN" "http://www.w3.org/Graphics/SVG/1.1/DTD/svg11.dtd">
<svg version="1.1" id="Layer_1" xmlns="http://www.w3.org/2000/svg" xmlns:xlink="http://www.w3.org/1999/xlink" x="0px" y="0px"
	 width="72px" height="64.004px" viewBox="0 0 72 64.004" style="enable-background:new 0 0 72 64.004;" xml:space="preserve">
<g id="Background_1_">
	<g>
		<polygon style="fill-rule:evenodd;clip-rule:evenodd;fill:#FFFFFF;" points="68,0.001 68,0 4,0 4,0.001 8,0.001 8,4.001 4,4.001 
			4,60.004 8,60.004 8,64.004 64,64.004 64,60.004 68,60.004 68,4.001 64,4.001 64,0.001 		"/>
	</g>
</g>
<g id="Stage">
	<g>
		<polygon style="fill:#CCCCCC;" points="4,52.004 8,64.004 64,64.004 68,52.004 		"/>
	</g>
</g>
<g id="Courtain">
	<g>
		<path style="fill-rule:evenodd;clip-rule:evenodd;fill:#ED7161;" d="M64,0.001h-4C56.563,0.001,49.469,0,46,0l0,0h-1.716H44H28
			h-0.285H26l0,0c-3.469,0-10.564,0.001-14,0.001H8c-2.21,0-4,1.79-4,4v4c0,4.053,0,14.305,0,20.001H3.999v32.002h0.185
			C4.072,60.318,4,60.651,4,61.004c0,1.657,1.343,3,3,3c0.353,0,0.686-0.072,1-0.184v0.184h4c0,0-2.001-6.514-2.001-14.001
			c0-6.43-2.279-15.69-3.396-19.842c11.245-3.95,19.624-13.98,21.146-26.16H44.25c1.522,12.18,9.9,22.21,21.146,26.16
			C64.28,34.313,62,43.573,62,50.003c0,7.487-2,14.001-2,14.001h4V63.82c0.313,0.111,0.647,0.184,1,0.184c1.656,0,3-1.343,3-3
			c0-0.353-0.072-0.686-0.184-1H68V30.953c0-0.696,0-1.72,0-2.951c0-5.696,0-15.948,0-20.001v-4C68,1.791,66.209,0.001,64,0.001z"/>
	</g>
</g>
<g id="Courtain_Clip">
	<g>
		<path style="fill-rule:evenodd;clip-rule:evenodd;fill:#FFCC66;" d="M8,28.002H4v8h4c2.209,0,4-1.79,4-3.999
			C12,29.793,10.209,28.002,8,28.002z M64,28.002c-2.209,0-4,1.791-4,4.001c0,2.209,1.791,3.999,4,3.999h4v-8H64z"/>
	</g>
</g>
<g>
</g>
<g>
</g>
<g>
</g>
<g>
</g>
<g>
</g>
<g>
</g>
<g>
</g>
<g>
</g>
<g>
</g>
<g>
</g>
<g>
</g>
<g>
</g>
<g>
</g>
<g>
</g>
<g>
</g>
</svg>
