<?xml version="1.0" encoding="iso-8859-1"?>
<!-- Generator: Adobe Illustrator 16.0.0, SVG Export Plug-In . SVG Version: 6.00 Build 0)  -->
<!DOCTYPE svg PUBLIC "-//W3C//DTD SVG 1.1//EN" "http://www.w3.org/Graphics/SVG/1.1/DTD/svg11.dtd">
<svg version="1.1" id="Layer_1" xmlns="http://www.w3.org/2000/svg" xmlns:xlink="http://www.w3.org/1999/xlink" x="0px" y="0px"
	 width="64px" height="52.001px" viewBox="0 0 64 52.001" style="enable-background:new 0 0 64 52.001;" xml:space="preserve">
<g id="Grid">
	<g>
		<path style="fill-rule:evenodd;clip-rule:evenodd;fill:#B3B3B3;" d="M60,20.001v-4H44V4h-4v12.001H24V4h-4v12.001H4v4h16v12H4v4
			h16v12h4v-12h16v12h4v-12h16v-4H44v-12H60z M40,32.001H24v-12h16V32.001z"/>
	</g>
</g>
<g id="Frame_4_">
	<g>
		<path style="fill-rule:evenodd;clip-rule:evenodd;fill:#CCCCCC;" d="M60,0H4C1.791,0,0,1.791,0,4v44.001c0,2.209,1.791,4,4,4h56
			c2.209,0,4-1.791,4-4V4C64,1.791,62.209,0,60,0z M60,46.001c0,1.104-0.896,2-2,2H6c-1.104,0-2-0.896-2-2v-40C4,4.896,4.896,4,6,4
			h52c1.104,0,2,0.896,2,2.001V46.001z"/>
	</g>
</g>
<g>
</g>
<g>
</g>
<g>
</g>
<g>
</g>
<g>
</g>
<g>
</g>
<g>
</g>
<g>
</g>
<g>
</g>
<g>
</g>
<g>
</g>
<g>
</g>
<g>
</g>
<g>
</g>
<g>
</g>
</svg>
