<?xml version="1.0" encoding="iso-8859-1"?>
<!-- Generator: Adobe Illustrator 16.0.0, SVG Export Plug-In . SVG Version: 6.00 Build 0)  -->
<!DOCTYPE svg PUBLIC "-//W3C//DTD SVG 1.1//EN" "http://www.w3.org/Graphics/SVG/1.1/DTD/svg11.dtd">
<svg version="1.1" id="Layer_1" xmlns="http://www.w3.org/2000/svg" xmlns:xlink="http://www.w3.org/1999/xlink" x="0px" y="0px"
	 width="36px" height="44px" viewBox="0 0 36 44" style="enable-background:new 0 0 36 44;" xml:space="preserve">
<g id="Mount_4_">
	<g>
		<path style="fill:#4D4D4D;" d="M26,35.999H10c-1.104,0-2,0.896-2,2.001v4c0,1.104,0.896,2,2,2h16c1.104,0,2-0.896,2-2v-4
			C28,36.895,27.104,35.999,26,35.999z"/>
	</g>
</g>
<g id="Body_56_">
	<g>
		<path style="fill-rule:evenodd;clip-rule:evenodd;fill:#999999;" d="M6,22h24c2.209,0,4-1.792,4-4V4c0-2.21-1.791-4-4-4H6
			C3.791,0,2,1.79,2,4v14C2,20.208,3.791,22,6,22z M34,28H2H0v1.999C0,31.104,0.896,32,2,32h32c1.104,0,2-0.896,2-2.001V28H34z"/>
	</g>
</g>
<g id="Shape_63_">
	<g>
		<path style="fill-rule:evenodd;clip-rule:evenodd;fill:#CCCCCC;" d="M6,32H4v2v1.999V38c0,1.104,0.896,2,2,2h24
			c1.104,0,2-0.896,2-2v-2.001V34v-2h-2H6z M0,16v12h36V16H0z"/>
	</g>
</g>
<g id="Grip_2_">
	<g>
		<path style="fill-rule:evenodd;clip-rule:evenodd;fill:#999999;" d="M6,18c-1.104,0-2,0.896-2,2v3.999c0,1.105,0.896,2,2,2
			s2-0.895,2-2V20C8,18.896,7.104,18,6,18z M14,18c-1.104,0-2,0.896-2,2v3.999c0,1.105,0.896,2,2,2s2-0.895,2-2V20
			C16,18.896,15.104,18,14,18z M22,18c-1.104,0-2,0.896-2,2v3.999c0,1.105,0.896,2,2,2s2-0.895,2-2V20C24,18.896,23.104,18,22,18z
			 M30,18c-1.104,0-2,0.896-2,2v3.999c0,1.105,0.896,2,2,2s2-0.895,2-2V20C32,18.896,31.104,18,30,18z"/>
	</g>
</g>
<g id="Shape_64_">
	<g>
		<rect y="10" style="fill:#E6E6E6;" width="36" height="6"/>
	</g>
</g>
<g id="Shape_65_">
	<g>
		<path style="fill-rule:evenodd;clip-rule:evenodd;fill:#CCCCCC;" d="M34,4H2C0.896,4,0,4.895,0,6v4h36V6C36,4.895,35.104,4,34,4z"
			/>
	</g>
</g>
<g>
</g>
<g>
</g>
<g>
</g>
<g>
</g>
<g>
</g>
<g>
</g>
<g>
</g>
<g>
</g>
<g>
</g>
<g>
</g>
<g>
</g>
<g>
</g>
<g>
</g>
<g>
</g>
<g>
</g>
</svg>
