<?xml version="1.0" encoding="iso-8859-1"?>
<!-- Generator: Adobe Illustrator 16.0.0, SVG Export Plug-In . SVG Version: 6.00 Build 0)  -->
<!DOCTYPE svg PUBLIC "-//W3C//DTD SVG 1.1//EN" "http://www.w3.org/Graphics/SVG/1.1/DTD/svg11.dtd">
<svg version="1.1" id="Layer_1" xmlns="http://www.w3.org/2000/svg" xmlns:xlink="http://www.w3.org/1999/xlink" x="0px" y="0px"
	 width="64px" height="40px" viewBox="0 0 64 40" style="enable-background:new 0 0 64 40;" xml:space="preserve">
<g id="Label_4_">
	<g>
		<path style="fill:#9B7CAB;" d="M60,0H4C1.791,0,0,1.791,0,4v32c0,2.209,1.791,4,4,4h56C62.209,40,64,38.209,64,36V4
			C64,1.791,62.209,0,60,0z"/>
	</g>
</g>
<g id="W">
	<g>
		<path style="fill-rule:evenodd;clip-rule:evenodd;fill:#FFFFFF;" d="M58.62,10.13c-1.112-0.382-2.349,0.177-2.762,1.246
			l-4.125,11.376l-1.58-3.375c-0.338-0.886-1.232-1.411-2.153-1.354c-0.92-0.058-1.815,0.468-2.152,1.354l-1.603,3.424
			l-4.092-11.425c-0.408-1.069-1.629-1.628-2.727-1.246c-1.099,0.382-1.658,1.56-1.25,2.63l5.683,15.868
			c0.336,0.882,1.225,1.405,2.141,1.353c0.917,0.053,1.805-0.471,2.141-1.353L48,24.657l1.859,3.971
			c0.334,0.876,1.213,1.398,2.123,1.354c0.921,0.045,1.811-0.478,2.149-1.354l5.755-15.868C60.298,11.689,59.731,10.512,58.62,10.13
			z"/>
	</g>
</g>
<g id="A_1_">
	<g>
		<path style="fill-rule:evenodd;clip-rule:evenodd;fill:#FFFFFF;" d="M35.836,27.244l-5.683-15.868
			c-0.335-0.879-1.22-1.402-2.134-1.354c-0.926-0.049-1.822,0.475-2.161,1.354l-5.754,15.868c-0.413,1.071,0.153,2.248,1.265,2.63
			s2.349-0.176,2.762-1.246l0.953-2.627h5.834l0.941,2.627c0.408,1.07,1.629,1.628,2.728,1.246S36.244,28.315,35.836,27.244z
			 M26.534,22.001l1.485-4.095l1.466,4.095H26.534z"/>
	</g>
</g>
<g id="R_2_">
	<g>
		<path style="fill-rule:evenodd;clip-rule:evenodd;fill:#FFFFFF;" d="M17.408,26.471l-5.991-4.47H12c3.313,0,6-2.687,6-6.001
			c0-3.313-2.687-6-6-6c-0.003,0-0.007,0.001-0.01,0.001H6c-1.104,0-2,0.896-2,2v16c0,1.104,0.895,2,2,2c1.105,0,2-0.896,2-2v-2H8
			v-1.419l6.469,4.827c0.812,0.812,2.127,0.812,2.939,0S18.22,27.281,17.408,26.471z M8,14.001h4c1.104,0,2,0.896,2,1.999
			c0,1.105-0.895,2-2,2v0.001H8V14.001z"/>
	</g>
</g>
<g>
</g>
<g>
</g>
<g>
</g>
<g>
</g>
<g>
</g>
<g>
</g>
<g>
</g>
<g>
</g>
<g>
</g>
<g>
</g>
<g>
</g>
<g>
</g>
<g>
</g>
<g>
</g>
<g>
</g>
</svg>
