<?xml version="1.0" encoding="iso-8859-1"?>
<!-- Generator: Adobe Illustrator 16.0.0, SVG Export Plug-In . SVG Version: 6.00 Build 0)  -->
<!DOCTYPE svg PUBLIC "-//W3C//DTD SVG 1.1//EN" "http://www.w3.org/Graphics/SVG/1.1/DTD/svg11.dtd">
<svg version="1.1" id="Layer_1" xmlns="http://www.w3.org/2000/svg" xmlns:xlink="http://www.w3.org/1999/xlink" x="0px" y="0px"
	 width="64.001px" height="60px" viewBox="0 0 64.001 60" style="enable-background:new 0 0 64.001 60;" xml:space="preserve">
<g id="Label">
	<g>
		<path style="fill:#FFFFFF;" d="M60,0H4.001C1.791,0,0,1.79,0,3.999v52C0,58.209,1.791,60,4.001,60H60
			c2.21,0,4.001-1.791,4.001-4.001v-52C64.001,1.79,62.21,0,60,0z"/>
	</g>
</g>
<g id="Label_1_">
	<g>
		<path style="fill-rule:evenodd;clip-rule:evenodd;fill:#CCCCCC;" d="M60,0H4.001C1.791,0,0,1.79,0,3.999v52
			C0,58.209,1.791,60,4.001,60H60c2.21,0,4.001-1.791,4.001-4.001v-52C64.001,1.79,62.21,0,60,0z M60.001,54.001
			c0,1.104-0.896,2-2,2h-52c-1.104,0-2-0.896-2-2v-48c0-1.105,0.896-2,2-2h52c1.104,0,2,0.895,2,2V54.001z"/>
	</g>
</g>
<g id="C">
	<g>
		<path style="fill-rule:evenodd;clip-rule:evenodd;fill:#ED7161;" d="M54.001,43.938c-0.608,0-1.146,0.277-1.514,0.706
			l-0.007-0.006c0,0-0.968,1.3-3.08,1.3c-2.013,0-5.399-2.122-5.399-6c0-3.674,3.274-6,5.399-6c2.14,0,3.08,1.3,3.08,1.3
			l0.007-0.006c0.367,0.429,0.905,0.706,1.514,0.706c1.104,0,2-0.895,2-2c0-0.45-0.154-0.861-0.405-1.195l0.005-0.004
			c0,0-2.138-2.801-6.2-2.801s-9.399,3.188-9.399,10s5.486,10,9.399,10c3.93,0,6.12-2.7,6.12-2.7l-0.006-0.005
			c0.299-0.35,0.487-0.799,0.487-1.295C56.001,44.834,55.105,43.938,54.001,43.938z"/>
	</g>
</g>
<g id="E">
	<g>
		<path style="fill-rule:evenodd;clip-rule:evenodd;fill:#ED7161;" d="M36.001,46.001h-6V42h2c1.104,0,2-0.895,2-1.999
			c0-1.105-0.896-2-2-2h-2v-4h6c1.104,0,2-0.896,2-2c0-1.105-0.896-2-2-2h-8c-1.104,0-2,0.895-2,2v16c0,1.104,0.896,2,2,2h8
			c1.104,0,2-0.896,2-2C38.001,46.896,37.105,46.001,36.001,46.001z"/>
	</g>
</g>
<g id="R">
	<g>
		<path style="fill-rule:evenodd;clip-rule:evenodd;fill:#ED7161;" d="M21.409,46.47L15.417,42h0.583c3.313,0,6-2.687,6-6
			s-2.687-6-6-6c-0.003,0-0.007,0.001-0.01,0.001h-5.99c-1.104,0-2,0.895-2,1.999v16.001c0,1.104,0.896,1.999,2,1.999
			c1.105,0,2.001-0.896,2.001-1.999V46h-0.001v-1.418l6.469,4.827c0.812,0.811,2.128,0.811,2.939,0
			C22.22,48.597,22.22,47.281,21.409,46.47z M12.001,34h4c1.104,0,2,0.896,2,2s-0.896,2-2,2h-4V34z"/>
	</g>
</g>
<g id="Circle">
	<g>
		<circle style="fill:#ED7161;" cx="32.001" cy="16" r="8"/>
	</g>
</g>
<g>
</g>
<g>
</g>
<g>
</g>
<g>
</g>
<g>
</g>
<g>
</g>
<g>
</g>
<g>
</g>
<g>
</g>
<g>
</g>
<g>
</g>
<g>
</g>
<g>
</g>
<g>
</g>
<g>
</g>
</svg>
