<?xml version="1.0" encoding="iso-8859-1"?>
<!-- Generator: Adobe Illustrator 16.0.0, SVG Export Plug-In . SVG Version: 6.00 Build 0)  -->
<!DOCTYPE svg PUBLIC "-//W3C//DTD SVG 1.1//EN" "http://www.w3.org/Graphics/SVG/1.1/DTD/svg11.dtd">
<svg version="1.1" id="Layer_1" xmlns="http://www.w3.org/2000/svg" xmlns:xlink="http://www.w3.org/1999/xlink" x="0px" y="0px"
	 width="64px" height="40px" viewBox="0 0 64 40" style="enable-background:new 0 0 64 40;" xml:space="preserve">
<g id="Label_2_">
	<g>
		<path style="fill:#ED7161;" d="M60,0H4C1.79,0,0,1.791,0,4v32c0,2.209,1.79,4,4,4h56c2.209,0,4-1.791,4-4V4
			C64,1.791,62.209,0,60,0z"/>
	</g>
</g>
<g id="C_1_">
	<g>
		<path style="fill-rule:evenodd;clip-rule:evenodd;fill:#FFFFFF;" d="M54,23.939c-0.608,0-1.146,0.277-1.514,0.706l-0.007-0.006
			c0,0-0.968,1.3-3.079,1.3c-2.014,0-5.4-2.121-5.4-6c0-3.674,3.274-6,5.4-6c2.139,0,3.079,1.3,3.079,1.3l0.007-0.006
			c0.367,0.429,0.905,0.706,1.513,0.706c1.104,0,2-0.896,2-2c0-0.45-0.154-0.861-0.406-1.196l0.005-0.004c0,0-2.138-2.8-6.199-2.8
			c-4.063,0-9.4,3.188-9.4,10s5.486,10,9.4,10c3.929,0,6.119-2.699,6.119-2.699l-0.007-0.006c0.3-0.35,0.487-0.799,0.487-1.295
			C56,24.835,55.104,23.939,54,23.939z"/>
	</g>
</g>
<g id="E_1_">
	<g>
		<path style="fill-rule:evenodd;clip-rule:evenodd;fill:#FFFFFF;" d="M36,26.002h-6v-4h2c1.104,0,2-0.896,2-2c0-1.105-0.896-2-2-2
			h-2v-4.001h6c1.104,0,2-0.896,2-1.999c0-1.105-0.896-2-2-2h-8c-1.104,0-2,0.895-2,2v16c0,1.104,0.896,2,2,2h8c1.104,0,2-0.896,2-2
			C38,26.896,37.104,26.002,36,26.002z"/>
	</g>
</g>
<g id="R_1_">
	<g>
		<path style="fill-rule:evenodd;clip-rule:evenodd;fill:#FFFFFF;" d="M21.407,26.471l-5.991-4.47H16c3.313,0,6-2.687,6-6.001
			c0-3.313-2.687-6-6-6c-0.003,0-0.007,0.001-0.01,0.001H10c-1.104,0-2,0.896-2,2v16c0,1.104,0.896,2,2,2s2-0.896,2-2v-2v-1.419
			l6.469,4.827c0.812,0.812,2.127,0.812,2.938,0S22.219,27.281,21.407,26.471z M12,14.001h4c1.104,0,2,0.896,2,1.999
			c0,1.105-0.896,2-2,2v0.001h-4V14.001z"/>
	</g>
</g>
<g>
</g>
<g>
</g>
<g>
</g>
<g>
</g>
<g>
</g>
<g>
</g>
<g>
</g>
<g>
</g>
<g>
</g>
<g>
</g>
<g>
</g>
<g>
</g>
<g>
</g>
<g>
</g>
<g>
</g>
</svg>
