<?xml version="1.0" encoding="iso-8859-1"?>
<!-- Generator: Adobe Illustrator 16.0.0, SVG Export Plug-In . SVG Version: 6.00 Build 0)  -->
<!DOCTYPE svg PUBLIC "-//W3C//DTD SVG 1.1//EN" "http://www.w3.org/Graphics/SVG/1.1/DTD/svg11.dtd">
<svg version="1.1" id="Layer_1" xmlns="http://www.w3.org/2000/svg" xmlns:xlink="http://www.w3.org/1999/xlink" x="0px" y="0px"
	 width="56px" height="63.987px" viewBox="0 0 56 63.987" style="enable-background:new 0 0 56 63.987;" xml:space="preserve">
<g id="Reel_Cartridge">
	<g>
		<path style="fill-rule:evenodd;clip-rule:evenodd;fill:#808080;" d="M44,11.942C44,5.347,38.627,0,32,0
			c-4.183,0-7.861,2.132-10.009,5.36C19.841,2.13,16.17,0,12,0C5.372,0,0,5.375,0,12.005c0,3.335,1.36,6.35,3.555,8.525L8,25.975h28
			l5.199-6.369h0C42.945,17.531,44,14.86,44,11.942z"/>
	</g>
</g>
<g id="Shape_21_">
	<g>
		<path style="fill-rule:evenodd;clip-rule:evenodd;fill:#B3B3B3;" d="M12,3.987c-4.419,0-8,3.581-8,8s3.581,8,8,8
			c4.418,0,8-3.581,8-8S16.418,3.987,12,3.987z M32,3.987c-4.419,0-8,3.581-8,8s3.581,8,8,8c4.418,0,8-3.581,8-8
			S36.418,3.987,32,3.987z"/>
	</g>
</g>
<g id="Holes_2_">
	<g>
		<path style="fill-rule:evenodd;clip-rule:evenodd;fill:#808080;" d="M12,9.987c-1.105,0-2.001,0.896-2.001,2
			s0.896,2.001,2.001,2.001c1.104,0,2-0.896,2-2.001S13.104,9.987,12,9.987z M32,9.987c-1.105,0-2,0.896-2,2s0.895,2.001,2,2.001
			c1.104,0,2-0.896,2-2.001S33.104,9.987,32,9.987z"/>
	</g>
</g>
<g id="Lens_14_">
	<g>
		<path style="fill:#999999;" d="M54,29.987c-1.105,0-14,8.896-14,10v4c0,1.104,12.895,10,14,10c1.104,0,2-0.896,2-2v-20
			C56,30.883,55.104,29.987,54,29.987z"/>
	</g>
</g>
<g id="Body_27_">
	<g>
		<path style="fill:#4D4D4D;" d="M40,25.987H4c-2.21,0-4,1.791-4,4v24c0,2.209,1.79,4,4,4h36c2.209,0,4-1.791,4-4v-24
			C44,27.778,42.209,25.987,40,25.987z"/>
	</g>
</g>
<g id="Shape_22_">
	<g>
		<path style="fill-rule:evenodd;clip-rule:evenodd;fill:#666666;" d="M42,37.988h-2H26c-1.105,0-2,0.895-2,1.999v4
			c0,1.104,0.895,2,2,2h14h2h2v-2v-4v-1.999H42z"/>
	</g>
</g>
<g id="Shape_23_">
	<g>
		<circle style="fill:#333333;" cx="14" cy="43.988" r="6"/>
	</g>
</g>
<g id="Handle_3_">
	<g>
		<path style="fill:#808080;" d="M14,41.988c-1.105,0-2,0.895-2,1.999v18c0,1.104,0.895,2,2,2c1.104,0,2-0.896,2-2v-18
			C16,42.883,15.104,41.988,14,41.988z"/>
	</g>
</g>
<g>
</g>
<g>
</g>
<g>
</g>
<g>
</g>
<g>
</g>
<g>
</g>
<g>
</g>
<g>
</g>
<g>
</g>
<g>
</g>
<g>
</g>
<g>
</g>
<g>
</g>
<g>
</g>
<g>
</g>
</svg>
