<?xml version="1.0" encoding="iso-8859-1"?>
<!-- Generator: Adobe Illustrator 16.0.0, SVG Export Plug-In . SVG Version: 6.00 Build 0)  -->
<!DOCTYPE svg PUBLIC "-//W3C//DTD SVG 1.1//EN" "http://www.w3.org/Graphics/SVG/1.1/DTD/svg11.dtd">
<svg version="1.1" id="Layer_1" xmlns="http://www.w3.org/2000/svg" xmlns:xlink="http://www.w3.org/1999/xlink" x="0px" y="0px"
	 width="32px" height="64.009px" viewBox="0 0 32 64.009" style="enable-background:new 0 0 32 64.009;" xml:space="preserve">
<g id="Legs_12_">
	<g>
		<path style="fill-rule:evenodd;clip-rule:evenodd;fill:#4D4D4D;" d="M16,52.001c-2.209,0-4,1.79-4,4v4c0,2.209,1.791,4,4,4
			s4-1.791,4-4v-4C20,53.791,18.209,52.001,16,52.001z M13,48.208l-3.626-1.954c-1.002-0.54-2.282-0.22-2.86,0.715L0,56.001v6
			l2.626,1.746c1.001,0.539,2.281,0.22,2.859-0.716l8.28-12.153C14.344,49.942,14.001,48.748,13,48.208z M25.515,46.969
			c-0.575-0.935-1.851-1.255-2.847-0.715l-3.61,1.954c-0.997,0.54-1.338,1.734-0.763,2.67l8.243,12.153
			c0.576,0.936,1.851,1.255,2.848,0.716L32,62.001v-6L25.515,46.969z"/>
	</g>
</g>
<g id="Nose">
	<g>
		<path style="fill:#ED7161;" d="M16,0c-1.104,0-2,0.896-2,2v24.001C14,27.104,14.896,28,16,28s2-0.896,2-1.999V2
			C18,0.896,17.104,0,16,0z"/>
	</g>
</g>
<g id="Body_53_">
	<g>
		<ellipse style="fill:#666666;" cx="16" cy="40.001" rx="14" ry="18"/>
	</g>
</g>
<g id="Shape_41_">
	<g>
		<path style="fill:#737373;" d="M18,16.001h-4c-2.21,0-4,1.79-4,4v2C10,25.314,12.686,28,16,28c3.313,0,6-2.686,6-5.999v-2
			C22,17.791,20.209,16.001,18,16.001z"/>
	</g>
</g>
<g>
</g>
<g>
</g>
<g>
</g>
<g>
</g>
<g>
</g>
<g>
</g>
<g>
</g>
<g>
</g>
<g>
</g>
<g>
</g>
<g>
</g>
<g>
</g>
<g>
</g>
<g>
</g>
<g>
</g>
</svg>
