<?xml version="1.0" encoding="iso-8859-1"?>
<!-- Generator: Adobe Illustrator 16.0.0, SVG Export Plug-In . SVG Version: 6.00 Build 0)  -->
<!DOCTYPE svg PUBLIC "-//W3C//DTD SVG 1.1//EN" "http://www.w3.org/Graphics/SVG/1.1/DTD/svg11.dtd">
<svg version="1.1" id="Layer_1" xmlns="http://www.w3.org/2000/svg" xmlns:xlink="http://www.w3.org/1999/xlink" x="0px" y="0px"
	 width="64px" height="36px" viewBox="0 0 64 36" style="enable-background:new 0 0 64 36;" xml:space="preserve">
<g id="Frame">
	<g>
		<path style="fill:#CCCCCC;" d="M60,0H4C1.791,0,0,1.791,0,4l8,28c0.5,2.021,1.791,4,4,4h48c2.209,0,4-1.791,4-4V4
			C64,1.791,62.209,0,60,0z"/>
	</g>
</g>
<g id="Body">
	<g>
		<path style="fill:#666666;" d="M56,4H10C7.791,4,6,5.79,6,8l6,20c0.5,2.021,1.791,4,4,4h40c2.209,0,4-1.791,4-4V8
			C60,5.79,58.209,4,56,4z"/>
	</g>
</g>
<g id="Shape">
	<g>
		<path style="fill:#333333;" d="M52,8H16c-2.209,0-4,1.79-4,3.999L16,24c1.037,2.021,1.791,4,4,4h32c2.209,0,4-1.791,4-4V11.999
			C56,9.79,54.209,8,52,8z"/>
	</g>
</g>
<g id="Shape_1_">
	<g>
		<path style="fill-rule:evenodd;clip-rule:evenodd;fill:#666666;" d="M50,12h-1.99c-0.004,0-0.007-0.001-0.01-0.001H20
			c-2.209,0-2-0.208-2,2.001l2,8c1.037,2.021,1.791,2,4,2h24c2.209,0,4,0.209,4-2v-4v-2v-2C52,12.896,51.104,12,50,12z"/>
	</g>
</g>
<g id="Holes">
	<g>
		<path style="fill-rule:evenodd;clip-rule:evenodd;fill:#333333;" d="M24,16c-1.104,0-2,0.895-2,2c0,1.104,0.896,2,2,2s2-0.896,2-2
			C26,16.895,25.104,16,24,16z M32,16c-1.104,0-2,0.895-2,2c0,1.104,0.896,2,2,2s2-0.896,2-2C34,16.895,33.104,16,32,16z M40,16
			c-1.104,0-2,0.895-2,2c0,1.104,0.896,2,2,2s2-0.896,2-2C42,16.895,41.104,16,40,16z M48,16c-1.104,0-2,0.895-2,2
			c0,1.104,0.896,2,2,2s2-0.896,2-2C50,16.895,49.104,16,48,16z"/>
	</g>
</g>
<g>
</g>
<g>
</g>
<g>
</g>
<g>
</g>
<g>
</g>
<g>
</g>
<g>
</g>
<g>
</g>
<g>
</g>
<g>
</g>
<g>
</g>
<g>
</g>
<g>
</g>
<g>
</g>
<g>
</g>
</svg>
