<?xml version="1.0" encoding="iso-8859-1"?>
<!-- Generator: Adobe Illustrator 16.0.0, SVG Export Plug-In . SVG Version: 6.00 Build 0)  -->
<!DOCTYPE svg PUBLIC "-//W3C//DTD SVG 1.1//EN" "http://www.w3.org/Graphics/SVG/1.1/DTD/svg11.dtd">
<svg version="1.1" id="Layer_1" xmlns="http://www.w3.org/2000/svg" xmlns:xlink="http://www.w3.org/1999/xlink" x="0px" y="0px"
	 width="48.006px" height="67.999px" viewBox="0 0 48.006 67.999" style="enable-background:new 0 0 48.006 67.999;"
	 xml:space="preserve">
<g id="Cable">
	<g>
		<path style="fill:#666666;" d="M30.499,51.991h-0.976c-0.821,0-1.487,0.598-1.487,1.335v13.34c0,0.736,0.666,1.333,1.487,1.333
			h0.976c0.822,0,1.488-0.597,1.488-1.333v-13.34C31.987,52.589,31.321,51.991,30.499,51.991z"/>
	</g>
</g>
<g id="Plug">
	<g>
		<path style="fill:#FFCC66;" d="M27.339,15.716L12.697,4.214c-0.668-0.377-1.523-0.153-1.91,0.5l-10.6,16.921
			c-0.387,0.653-0.157,1.488,0.512,1.865l9.038,6.343c0.65,0.38,1.48,0.154,1.856-0.505L27.836,17.6
			C28.211,16.94,27.988,16.098,27.339,15.716z"/>
	</g>
</g>
<g id="Body_1_">
	<g>
		<path style="fill-rule:evenodd;clip-rule:evenodd;fill:#666666;" d="M35.944,15.813L21.152,6.171
			c-0.654-0.383-1.49-0.155-1.868,0.507L4.195,29.988c-0.377,0.662-0.152,1.51,0.501,1.893l16.177,11.014
			c0.229,0.135,0.658,0.444,1.133,0.762V52c0,1.104,0.896,2,2,2h12c1.104,0,2-0.896,2-2V26.59V20v-0.268
			C38.006,16.798,36.598,16.195,35.944,15.813z"/>
	</g>
</g>
<g id="Shape_2_">
	<g>
		<path style="fill-rule:evenodd;clip-rule:evenodd;fill:#808080;" d="M4.696,31.881l2.386,1.624L24.355,8.259l-3.203-2.088
			c-0.654-0.383-1.49-0.155-1.868,0.507L4.195,29.988C3.818,30.65,4.043,31.498,4.696,31.881z"/>
	</g>
</g>
<g id="Cable_1_">
	<g>
		<path style="fill-rule:evenodd;clip-rule:evenodd;fill:#4D4D4D;" d="M36.682,39.986c-0.003,0-0.006-0.001-0.009-0.001H23.349
			c-0.003,0-0.006,0.001-0.009,0.001h-1.324v1.403v2.808v8.423c0,0.775,0.597,1.404,1.333,1.404h13.324
			c0.736,0,1.333-0.629,1.333-1.404v-8.423V41.39v-1.403H36.682z"/>
	</g>
</g>
<g>
</g>
<g>
</g>
<g>
</g>
<g>
</g>
<g>
</g>
<g>
</g>
<g>
</g>
<g>
</g>
<g>
</g>
<g>
</g>
<g>
</g>
<g>
</g>
<g>
</g>
<g>
</g>
<g>
</g>
</svg>
