<?xml version="1.0" encoding="iso-8859-1"?>
<!-- Generator: Adobe Illustrator 16.0.0, SVG Export Plug-In . SVG Version: 6.00 Build 0)  -->
<!DOCTYPE svg PUBLIC "-//W3C//DTD SVG 1.1//EN" "http://www.w3.org/Graphics/SVG/1.1/DTD/svg11.dtd">
<svg version="1.1" id="Layer_1" xmlns="http://www.w3.org/2000/svg" xmlns:xlink="http://www.w3.org/1999/xlink" x="0px" y="0px"
	 width="56px" height="64px" viewBox="0 0 56 64" style="enable-background:new 0 0 56 64;" xml:space="preserve">
<g id="Container_1_">
	<g>
		<path style="fill:#CCCCCC;" d="M48,0H8C3.582,0,0,3.582,0,8.001V56c0,4.419,3.582,8,8,8h40c4.418,0,8-3.581,8-8V8.001
			C56,3.582,52.418,0,48,0z"/>
	</g>
</g>
<g id="Body_40_">
	<g>
		<path style="fill-rule:evenodd;clip-rule:evenodd;fill:#E6E6E6;" d="M48,4.001H8c-2.209,0-4,1.791-4,4V56c0,2.21,1.791,4,4,4h10v2
			c0,1.104,0.896,2,2,2h16c1.104,0,2-0.896,2-2v-2h10c2.209,0,4-1.79,4-4V8.001C52,5.792,50.209,4.001,48,4.001z"/>
	</g>
</g>
<g id="RoundBodyed_Rectangle_106">
	<g>
		<path style="fill:#595959;" d="M36,12H14c-1.104,0-2,0.896-2,2v36.001C12,51.104,12.896,52,14,52h28c1.104,0,2-0.896,2-1.999v-30
			L36,12z"/>
	</g>
</g>
<g id="Label_22_">
	<g>
		<path style="fill:#4384B0;" d="M38,24.001H18c-1.104,0-2,0.895-2,2v20c0,1.104,0.896,2,2,2h20c1.104,0,2-0.896,2-2v-20
			C40,24.896,39.104,24.001,38,24.001z"/>
	</g>
</g>
<g id="Label_23_">
	<g>
		<path style="fill-rule:evenodd;clip-rule:evenodd;fill:#D56556;" d="M38,24.001H18c-1.104,0-2,0.895-2,2V28v4.001h24V28v-1.999
			C40,24.896,39.104,24.001,38,24.001z"/>
	</g>
</g>
<g>
</g>
<g>
</g>
<g>
</g>
<g>
</g>
<g>
</g>
<g>
</g>
<g>
</g>
<g>
</g>
<g>
</g>
<g>
</g>
<g>
</g>
<g>
</g>
<g>
</g>
<g>
</g>
<g>
</g>
</svg>
