<?xml version="1.0" encoding="iso-8859-1"?>
<!-- Generator: Adobe Illustrator 16.0.0, SVG Export Plug-In . SVG Version: 6.00 Build 0)  -->
<!DOCTYPE svg PUBLIC "-//W3C//DTD SVG 1.1//EN" "http://www.w3.org/Graphics/SVG/1.1/DTD/svg11.dtd">
<svg version="1.1" id="Layer_1" xmlns="http://www.w3.org/2000/svg" xmlns:xlink="http://www.w3.org/1999/xlink" x="0px" y="0px"
	 width="58px" height="64px" viewBox="0 0 58 64" style="enable-background:new 0 0 58 64;" xml:space="preserve">
<g id="Body_39_">
	<g>
		<path style="fill-rule:evenodd;clip-rule:evenodd;fill:#48A0DC;" d="M52,22c0-1.104,0.896-1.999,2-1.999v-7.2L41,0H5.25
			C3.455,0,2,1.434,2,3.2v16.801c1.104,0,2,0.895,2,1.999v8.001c0,1.104-0.896,2-2,2V60.8C2,62.567,3.455,64,5.25,64h45.5
			c1.795,0,3.25-1.433,3.25-3.2V24.001C52.896,24.001,52,23.105,52,22z"/>
	</g>
</g>
<g id="Label_20_">
	<g>
		<path style="fill:#CCCCCC;" d="M42.666,20.013H13.333c-1.841,0-3.333,1.416-3.333,3.164v31.636c0,1.747,1.492,3.163,3.333,3.163
			h29.333c1.842,0,3.334-1.416,3.334-3.163V23.177C46,21.429,44.508,20.013,42.666,20.013z"/>
	</g>
</g>
<g id="Label_21_">
	<g>
		<rect x="10" y="28" style="fill:#595959;" width="36" height="4.001"/>
	</g>
</g>
<g>
</g>
<g>
</g>
<g>
</g>
<g>
</g>
<g>
</g>
<g>
</g>
<g>
</g>
<g>
</g>
<g>
</g>
<g>
</g>
<g>
</g>
<g>
</g>
<g>
</g>
<g>
</g>
<g>
</g>
</svg>
