<?xml version="1.0" encoding="iso-8859-1"?>
<!-- Generator: Adobe Illustrator 16.0.0, SVG Export Plug-In . SVG Version: 6.00 Build 0)  -->
<!DOCTYPE svg PUBLIC "-//W3C//DTD SVG 1.1//EN" "http://www.w3.org/Graphics/SVG/1.1/DTD/svg11.dtd">
<svg version="1.1" id="Layer_1" xmlns="http://www.w3.org/2000/svg" xmlns:xlink="http://www.w3.org/1999/xlink" x="0px" y="0px"
	 width="58px" height="72.001px" viewBox="0 0 58 72.001" style="enable-background:new 0 0 58 72.001;" xml:space="preserve">
<g id="Body_38_">
	<g>
		<path style="fill-rule:evenodd;clip-rule:evenodd;fill:#666666;" d="M56,20.001V3.2C56,1.434,54.545,0,52.75,0H17L4,12.801v7.2
			c1.104,0,2,0.895,2,1.999c0,1.105-0.896,2.001-2,2.001V60.8C4,62.567,5.455,64,7.25,64H16v-4c0-2.666,6-5.999,14-5.999
			S44,57.334,44,60v4h8.75c1.795,0,3.25-1.433,3.25-3.2V32.001c-1.104,0-2-0.896-2-2V22C54,20.896,54.896,20.001,56,20.001z"/>
	</g>
</g>
<g id="Pins_2_">
	<g>
		<path style="fill-rule:evenodd;clip-rule:evenodd;fill:#FFCC66;" d="M46,4.001c-1.104,0-2,0.895-2,2V14
			c0,1.104,0.896,2.001,2,2.001s2-0.896,2-2.001V6.001C48,4.896,47.104,4.001,46,4.001z M38,4.001c-1.104,0-2,0.895-2,2V14
			c0,1.104,0.896,2.001,2,2.001s2-0.896,2-2.001V6.001C40,4.896,39.104,4.001,38,4.001z M30,4.001c-1.104,0-2,0.895-2,2V14
			c0,1.104,0.896,2.001,2,2.001s2-0.896,2-2.001V6.001C32,4.896,31.104,4.001,30,4.001z M22,4.001c-1.104,0-2,0.895-2,2V14
			c0,1.104,0.896,2.001,2,2.001s2-0.896,2-2.001V6.001C24,4.896,23.104,4.001,22,4.001z M14,10.001c-1.104,0-2,0.895-2,1.999v8.001
			C12,21.104,12.896,22,14,22s2-0.896,2-1.999V12C16,10.896,15.104,10.001,14,10.001z"/>
	</g>
</g>
<g>
</g>
<g>
</g>
<g>
</g>
<g>
</g>
<g>
</g>
<g>
</g>
<g>
</g>
<g>
</g>
<g>
</g>
<g>
</g>
<g>
</g>
<g>
</g>
<g>
</g>
<g>
</g>
<g>
</g>
</svg>
