<?xml version="1.0" encoding="iso-8859-1"?>
<!-- Generator: Adobe Illustrator 16.0.0, SVG Export Plug-In . SVG Version: 6.00 Build 0)  -->
<!DOCTYPE svg PUBLIC "-//W3C//DTD SVG 1.1//EN" "http://www.w3.org/Graphics/SVG/1.1/DTD/svg11.dtd">
<svg version="1.1" id="Layer_1" xmlns="http://www.w3.org/2000/svg" xmlns:xlink="http://www.w3.org/1999/xlink" x="0px" y="0px"
	 width="64px" height="48px" viewBox="0 0 64 48" style="enable-background:new 0 0 64 48;" xml:space="preserve">
<g id="Label_12_">
	<g>
		<path style="fill:#CCCCCC;" d="M60,0H4C1.791,0,0,1.79,0,3.999v40C0,46.208,1.791,48,4,48h56c2.209,0,4-1.792,4-4.001v-40
			C64,1.79,62.209,0,60,0z"/>
	</g>
</g>
<g id="D_2_">
	<g>
		<path style="fill-rule:evenodd;clip-rule:evenodd;fill:#333333;" d="M41.5,11.999L36,12.001c-1.104,0-2,0.893-2,1.994
			c0,0.001,0,0.002,0,0.003s0,0.002,0,0.003v20c0,1.104,0.896,2,2,2h2h4c3.677,0,5.258-0.887,7.591-2.793
			C52.359,30.942,54,27.498,54,23.97C54,16.89,49.183,11.999,41.5,11.999z M46.998,30.499C45.2,31.964,42,31.948,42,31.948h-4
			V15.976l4,0.015c0,0,3.111-0.222,4.998,1.317C48.966,18.888,50,21.339,50,23.866C50,26.397,48.966,28.925,46.998,30.499z"/>
	</g>
</g>
<g id="S">
	<g>
		<path style="fill:#333333;" d="M21,22.154c-2.945-0.446-5.4-0.458-5.4-2.77c0-1.534,0.75-3.692,5.4-3.692
			c5.038,0,5.506,2.77,7.199,2.77c1.041,0,1.801-0.895,1.801-1.847C30,14.692,26.887,12,21,12c-4.969,0-9,2.405-9,7.385
			c0,5.164,4.645,5.814,9,6.462c3.847,0.571,5.399,1.36,5.399,2.769c0,2.073-1.916,3.692-5.399,3.692c-4.703,0-5.351-2.77-7.2-2.77
			c-1.153,0-1.8,0.905-1.8,1.847C12,33,14.957,36,21,36c6.393,0,9-3.027,9-7.385C30,23.94,26.466,22.981,21,22.154z"/>
	</g>
</g>
<g>
</g>
<g>
</g>
<g>
</g>
<g>
</g>
<g>
</g>
<g>
</g>
<g>
</g>
<g>
</g>
<g>
</g>
<g>
</g>
<g>
</g>
<g>
</g>
<g>
</g>
<g>
</g>
<g>
</g>
</svg>
