<?xml version="1.0" encoding="iso-8859-1"?>
<!-- Generator: Adobe Illustrator 16.0.0, SVG Export Plug-In . SVG Version: 6.00 Build 0)  -->
<!DOCTYPE svg PUBLIC "-//W3C//DTD SVG 1.1//EN" "http://www.w3.org/Graphics/SVG/1.1/DTD/svg11.dtd">
<svg version="1.1" id="Layer_1" xmlns="http://www.w3.org/2000/svg" xmlns:xlink="http://www.w3.org/1999/xlink" x="0px" y="0px"
	 width="108.516px" height="108.045px" viewBox="0 0 108.516 108.045" style="enable-background:new 0 0 108.516 108.045;"
	 xml:space="preserve">
<g id="Shutter">
	<g>
		<path style="fill-rule:evenodd;clip-rule:evenodd;fill:#B3B3B3;" d="M25.478,40.022h36.78l-10.269-17.91
			C40.309,22.931,30.358,30.01,25.478,40.022z"/>
	</g>
</g>
<g id="Shutter_9_">
	<g>
		<path style="fill-rule:evenodd;clip-rule:evenodd;fill:#CCCCCC;" d="M56.526,85.934c11.68-0.819,21.631-7.898,26.511-17.911
			h-36.78L56.526,85.934z"/>
	</g>
</g>
<g id="Shutter_7_">
	<g>
		<path style="fill-rule:evenodd;clip-rule:evenodd;fill:#CCCCCC;" d="M46.258,40.023l-20.764-0.031
			c-2.071,4.237-3.236,8.997-3.236,14.03c0,6.646,2.027,12.819,5.496,17.935L46.258,40.023z"/>
	</g>
</g>
<g id="Shutter_3_">
	<g>
		<path style="fill-rule:evenodd;clip-rule:evenodd;fill:#B3B3B3;" d="M62.382,67.951l20.66,0.063
			c2.059-4.227,3.216-8.974,3.216-13.991c0-6.641-2.024-12.809-5.487-17.922L62.382,67.951z"/>
	</g>
</g>
<g id="Shutter_4_">
	<g>
		<path style="fill-rule:evenodd;clip-rule:evenodd;fill:#B3B3B3;" d="M38.133,54.095L27.75,71.953
			c5.754,8.49,15.479,14.069,26.508,14.069c0.76,0,1.511-0.036,2.258-0.088L38.133,54.095z"/>
	</g>
</g>
<g id="Shutter_5_">
	<g>
		<path style="fill-rule:evenodd;clip-rule:evenodd;fill:#CCCCCC;" d="M70.382,53.951l10.383-17.859
			c-5.754-8.489-15.479-14.069-26.507-14.069c-0.76,0-1.511,0.036-2.258,0.088L70.382,53.951z"/>
	</g>
</g>
<g id="Lines_1_">
	<g>
		<path style="fill-rule:evenodd;clip-rule:evenodd;fill:#FFFFFF;" d="M58.695,36.022H27.8c-0.866,1.271-1.643,2.607-2.322,4h17.313
			l-16.785,29.03c0.712,1.336,1.517,2.614,2.405,3.829l9.8-16.95L55.59,85.989c1.476-0.061,2.924-0.224,4.342-0.478L49.82,68.022
			h33.217c0.627-1.287,1.165-2.623,1.618-3.999H65.724L81.35,37c-0.779-1.238-1.638-2.419-2.575-3.535l-8.47,14.649L55.233,22.048
			c-0.325-0.01-0.648-0.024-0.976-0.024c-1.198,0-2.378,0.071-3.542,0.2L58.695,36.022z M60.936,39.896l7.06,12.211l-6.89,11.916
			H47.508L40.52,51.938l6.89-11.916h12.848C60.497,40.022,60.723,39.974,60.936,39.896z"/>
	</g>
</g>
<g id="Center">
	<g>
		<polygon style="fill:#FFFFFF;" points="62.258,38.023 46.258,38.023 38.249,54.022 46.251,68.002 62.256,68.002 70.258,54.022 		
			"/>
	</g>
</g>
<g>
</g>
<g>
</g>
<g>
</g>
<g>
</g>
<g>
</g>
<g>
</g>
<g>
</g>
<g>
</g>
<g>
</g>
<g>
</g>
<g>
</g>
<g>
</g>
<g>
</g>
<g>
</g>
<g>
</g>
</svg>
