<?xml version="1.0" encoding="iso-8859-1"?>
<!-- Generator: Adobe Illustrator 16.0.0, SVG Export Plug-In . SVG Version: 6.00 Build 0)  -->
<!DOCTYPE svg PUBLIC "-//W3C//DTD SVG 1.1//EN" "http://www.w3.org/Graphics/SVG/1.1/DTD/svg11.dtd">
<svg version="1.1" id="Layer_1" xmlns="http://www.w3.org/2000/svg" xmlns:xlink="http://www.w3.org/1999/xlink" x="0px" y="0px"
	 width="36px" height="52.001px" viewBox="0 0 36 52.001" style="enable-background:new 0 0 36 52.001;" xml:space="preserve">
<g id="Mount_6_">
	<g>
		<path style="fill:#4D4D4D;" d="M28,44.001H8c-1.104,0-2,0.895-2,2v4c0,1.104,0.896,2,2,2h20c1.104,0,2-0.896,2-2v-4
			C30,44.896,29.104,44.001,28,44.001z"/>
	</g>
</g>
<g id="Shape_67_">
	<g>
		<path style="fill:#4D4D4D;" d="M30,0H6C3.791,0,2,1.791,2,4.001v8c0,2.209,1.791,4,4,4h24c2.209,0,4-1.791,4-4v-8
			C34,1.791,32.209,0,30,0z"/>
	</g>
</g>
<g id="Body_58_">
	<g>
		<path style="fill-rule:evenodd;clip-rule:evenodd;fill:#737373;" d="M32,4.001H4c-2.209,0-4,1.79-4,4v24V34v2.001v2
			C0,39.105,0.896,40,2,40h2h28h2c1.104,0,2-0.895,2-1.999v-2V34v-1.999v-24C36,5.791,34.209,4.001,32,4.001z"/>
	</g>
</g>
<g id="Shape_68_">
	<g>
		<path style="fill-rule:evenodd;clip-rule:evenodd;fill:#8C8C8C;" d="M2,40v4.001c0,2.209,1.791,4,4,4h24c2.209,0,4-1.791,4-4V40H2
			z"/>
	</g>
</g>
<g id="Grip_3_">
	<g>
		<path style="fill-rule:evenodd;clip-rule:evenodd;fill:#595959;" d="M6,12.001c-1.104,0-2,0.895-2,2v4c0,1.104,0.896,2,2,2
			s2-0.896,2-2v-4C8,12.896,7.104,12.001,6,12.001z M14,12.001c-1.104,0-2,0.895-2,2v4c0,1.104,0.896,2,2,2s2-0.896,2-2v-4
			C16,12.896,15.104,12.001,14,12.001z M22,12.001c-1.104,0-2,0.895-2,2v4c0,1.104,0.896,2,2,2s2-0.896,2-2v-4
			C24,12.896,23.104,12.001,22,12.001z M30,12.001c-1.104,0-2,0.895-2,2v4c0,1.104,0.896,2,2,2s2-0.896,2-2v-4
			C32,12.896,31.104,12.001,30,12.001z"/>
	</g>
</g>
<g id="Switch">
	<g>
		<path style="fill:#4D4D4D;" d="M14,28H6c-1.104,0-2,0.896-2,2v4c0,1.105,0.896,2.001,2,2.001h8c1.104,0,2-0.896,2-2.001v-4
			C16,28.896,15.104,28,14,28z"/>
	</g>
</g>
<g id="Switch_1_">
	<g>
		<path style="fill:#ED7161;" d="M6,28c-1.104,0-2,0.896-2,2v4c0,1.105,0.896,2.001,2,2.001S8,35.105,8,34v-4
			C8,28.896,7.104,28,6,28z"/>
	</g>
</g>
<g>
</g>
<g>
</g>
<g>
</g>
<g>
</g>
<g>
</g>
<g>
</g>
<g>
</g>
<g>
</g>
<g>
</g>
<g>
</g>
<g>
</g>
<g>
</g>
<g>
</g>
<g>
</g>
<g>
</g>
</svg>
