<?xml version="1.0" encoding="iso-8859-1"?>
<!-- Generator: Adobe Illustrator 16.0.0, SVG Export Plug-In . SVG Version: 6.00 Build 0)  -->
<!DOCTYPE svg PUBLIC "-//W3C//DTD SVG 1.1//EN" "http://www.w3.org/Graphics/SVG/1.1/DTD/svg11.dtd">
<svg version="1.1" id="Layer_1" xmlns="http://www.w3.org/2000/svg" xmlns:xlink="http://www.w3.org/1999/xlink" x="0px" y="0px"
	 width="44px" height="56px" viewBox="0 0 44 56" style="enable-background:new 0 0 44 56;" xml:space="preserve">
<g id="Mount_7_">
	<g>
		<path style="fill:#4D4D4D;" d="M32,48H12c-1.104,0-2,0.895-2,2v4c0,1.104,0.896,2,2,2h20c1.104,0,2-0.896,2-2v-4
			C34,48.895,33.104,48,32,48z"/>
	</g>
</g>
<g id="Shape_69_">
	<g>
		<path style="fill-rule:evenodd;clip-rule:evenodd;fill:#333333;" d="M40,0H4C1.791,0,0,1.79,0,3.999V6v1.999V10
			c0,1.104,0.896,2,2,2h2h36h2c1.104,0,2-0.896,2-2V7.999V6V3.999C44,1.79,42.209,0,40,0z"/>
	</g>
</g>
<g id="Body_59_">
	<g>
		<path style="fill-rule:evenodd;clip-rule:evenodd;fill:#4D4D4D;" d="M2,38c0,2.209,1.791,3.999,4,3.999h32c2.209,0,4-1.79,4-3.999
			V12H2V38z"/>
	</g>
</g>
<g id="Shape_70_">
	<g>
		<path style="fill-rule:evenodd;clip-rule:evenodd;fill:#666666;" d="M6,41.999V46c0,2.209,1.791,4,4,4h24c2.209,0,4-1.791,4-4
			v-4.001H6z"/>
	</g>
</g>
<g id="Grip_4_">
	<g>
		<path style="fill-rule:evenodd;clip-rule:evenodd;fill:#595959;" d="M10,14c-1.105,0-2,0.895-2,2v4c0,1.104,0.895,2,2,2
			c1.104,0,2-0.896,2-2v-4C12,14.895,11.104,14,10,14z M18,14c-1.104,0-2,0.895-2,2v4c0,1.104,0.896,2,2,2s2-0.896,2-2v-4
			C20,14.895,19.104,14,18,14z M26,14c-1.104,0-2,0.895-2,2v4c0,1.104,0.896,2,2,2s2-0.896,2-2v-4C28,14.895,27.104,14,26,14z
			 M34,14c-1.105,0-2,0.895-2,2v4c0,1.104,0.895,2,2,2c1.104,0,2-0.896,2-2v-4C36,14.895,35.104,14,34,14z"/>
	</g>
</g>
<g id="Shape_71_">
	<g>
		<path style="fill-rule:evenodd;clip-rule:evenodd;fill:#333333;" d="M26,28h-8c-1.104,0-2,0.895-2,1.999V34
			c0,1.104,0.896,1.999,2,1.999h8c1.104,0,2-0.896,2-1.999v-4.001C28,28.895,27.104,28,26,28z M8,28c-1.104,0-2,0.895-2,1.999V34
			c0,1.104,0.896,1.999,2,1.999s2-0.896,2-1.999v-4.001C10,28.895,9.104,28,8,28z M36,28c-1.104,0-2,0.895-2,1.999V34
			c0,1.104,0.896,1.999,2,1.999s2-0.896,2-1.999v-4.001C38,28.895,37.104,28,36,28z"/>
	</g>
</g>
<g id="Display_8_">
	<g>
		<rect x="20" y="29.999" style="fill:#666666;" width="4" height="4.001"/>
	</g>
</g>
<g id="Label_26_">
	<g>
		<rect y="3.999" style="fill:#ED7161;" width="44" height="4"/>
	</g>
</g>
<g>
</g>
<g>
</g>
<g>
</g>
<g>
</g>
<g>
</g>
<g>
</g>
<g>
</g>
<g>
</g>
<g>
</g>
<g>
</g>
<g>
</g>
<g>
</g>
<g>
</g>
<g>
</g>
<g>
</g>
</svg>
