<?xml version="1.0" encoding="iso-8859-1"?>
<!-- Generator: Adobe Illustrator 16.0.0, SVG Export Plug-In . SVG Version: 6.00 Build 0)  -->
<!DOCTYPE svg PUBLIC "-//W3C//DTD SVG 1.1//EN" "http://www.w3.org/Graphics/SVG/1.1/DTD/svg11.dtd">
<svg version="1.1" id="Layer_1" xmlns="http://www.w3.org/2000/svg" xmlns:xlink="http://www.w3.org/1999/xlink" x="0px" y="0px"
	 width="31.997px" height="64.039px" viewBox="0 0 31.997 64.039" style="enable-background:new 0 0 31.997 64.039;"
	 xml:space="preserve">
<g id="Legs_8_">
	<g>
		<path style="fill-rule:evenodd;clip-rule:evenodd;fill:#CCCCCC;" d="M31.728,61.009L24,47.535V8.001C24,6.896,23.104,6,22,6
			s-2,0.896-2,2.001v39.533l-7.728,13.475c-0.554,0.966-0.225,2.201,0.735,2.759c0.959,0.558,2.186,0.228,2.74-0.739L22,52.126
			l6.253,10.902c0.554,0.967,1.781,1.297,2.74,0.739S32.282,61.975,31.728,61.009z"/>
	</g>
</g>
<g id="Pivots">
	<g>
		<path style="fill-rule:evenodd;clip-rule:evenodd;fill:#B3B3B3;" d="M22,48.001c-1.104,0-2,0.895-2,2c0,1.104,0.896,2,2,2
			s2-0.896,2-2C24,48.896,23.104,48.001,22,48.001z M22,40.001c1.104,0,2-0.896,2-2c0-1.105-0.896-2-2-2s-2,0.895-2,2
			C20,39.105,20.896,40.001,22,40.001z"/>
	</g>
</g>
<g id="Hood">
	<g>
		<path style="fill:#4D4D4D;" d="M0,0v36.001c0,0,20-5.938,20-12.001c0-6.062,0-6.125,0-11.999C20,6.126,0,0,0,0z"/>
	</g>
</g>
<g>
</g>
<g>
</g>
<g>
</g>
<g>
</g>
<g>
</g>
<g>
</g>
<g>
</g>
<g>
</g>
<g>
</g>
<g>
</g>
<g>
</g>
<g>
</g>
<g>
</g>
<g>
</g>
<g>
</g>
</svg>
