<?xml version="1.0" encoding="iso-8859-1"?>
<!-- Generator: Adobe Illustrator 16.0.0, SVG Export Plug-In . SVG Version: 6.00 Build 0)  -->
<!DOCTYPE svg PUBLIC "-//W3C//DTD SVG 1.1//EN" "http://www.w3.org/Graphics/SVG/1.1/DTD/svg11.dtd">
<svg version="1.1" id="Layer_1" xmlns="http://www.w3.org/2000/svg" xmlns:xlink="http://www.w3.org/1999/xlink" x="0px" y="0px"
	 width="64px" height="64.001px" viewBox="0 0 64 64.001" style="enable-background:new 0 0 64 64.001;" xml:space="preserve">
<g id="Arms">
	<g>
		<polygon style="fill-rule:evenodd;clip-rule:evenodd;fill:#999999;" points="56,28 36,28 36,8 28,8 28,28 8,28 8,36 28,36 
			28,56.001 36,56.001 36,36 56,36 		"/>
	</g>
</g>
<g id="Container">
	<g>
		<path style="fill:#4D4D4D;" d="M38,22.001H26c-2.209,0-4,1.791-4,3.999v12c0,2.21,1.791,4,4,4h12c2.209,0,4-1.79,4-4V26
			C42,23.792,40.209,22.001,38,22.001z"/>
	</g>
</g>
<g id="LightBulb">
	<g>
		<circle style="fill:#FFCC66;" cx="32" cy="32" r="6"/>
	</g>
</g>
<g id="Light">
	<g>
		<circle style="fill:#FFFFFF;" cx="32" cy="32" r="2"/>
	</g>
</g>
<g id="Shape_24_">
	<g>
		<path style="fill-rule:evenodd;clip-rule:evenodd;fill:#666666;" d="M36,0h-8c-2.209,0-3.688,1.791-4,4l-2,12.001
			c0,2.209,1.791,4,4,4h12c2.209,0,4-1.791,4-4L40,4C39.5,1.666,38.209,0,36,0z M38,44.001H26c-2.209,0-4,1.79-4,4l2,12
			c0.5,2.334,1.791,4,4,4h8c2.209,0,3.688-1.792,4-4l2-12C42,45.791,40.209,44.001,38,44.001z M60,22.001l-12,2
			C45.666,24.5,44,25.792,44,28v8c0,2.21,1.791,3.688,4,4.001L60,42c2.209,0,4-1.79,4-4V26C64,23.792,62.209,22.001,60,22.001z
			 M16,24.001l-12-2c-2.209,0-4,1.791-4,3.999v12c0,2.21,1.791,4,4,4l12-1.999c2.334-0.5,4-1.791,4-4.001v-8
			C20,25.792,18.209,24.313,16,24.001z"/>
	</g>
</g>
<g>
</g>
<g>
</g>
<g>
</g>
<g>
</g>
<g>
</g>
<g>
</g>
<g>
</g>
<g>
</g>
<g>
</g>
<g>
</g>
<g>
</g>
<g>
</g>
<g>
</g>
<g>
</g>
<g>
</g>
</svg>
