<?xml version="1.0" encoding="iso-8859-1"?>
<!-- Generator: Adobe Illustrator 16.0.0, SVG Export Plug-In . SVG Version: 6.00 Build 0)  -->
<!DOCTYPE svg PUBLIC "-//W3C//DTD SVG 1.1//EN" "http://www.w3.org/Graphics/SVG/1.1/DTD/svg11.dtd">
<svg version="1.1" id="Layer_1" xmlns="http://www.w3.org/2000/svg" xmlns:xlink="http://www.w3.org/1999/xlink" x="0px" y="0px"
	 width="79.264px" height="79.263px" viewBox="0 0 79.264 79.263" style="enable-background:new 0 0 79.264 79.263;"
	 xml:space="preserve">
<g id="Base_6_">
	<g>
		<path style="fill-rule:evenodd;clip-rule:evenodd;fill:#ED7161;" d="M69.092,24.204L55.059,10.17
			c-2.325,2.317-6.089,2.315-8.411-0.007c-0.005-0.005-0.009-0.012-0.014-0.017L10.147,46.635c0.005,0.005,0.011,0.008,0.016,0.013
			c2.322,2.322,2.324,6.085,0.008,8.411l14.033,14.033c2.325-2.315,6.085-2.314,8.407,0.005l36.485-36.485
			C66.777,30.289,66.776,26.529,69.092,24.204z"/>
	</g>
</g>
<g id="Base_7_">
	<g>
		<path style="fill-rule:evenodd;clip-rule:evenodd;fill:#A64F44;" d="M64.882,25.607c-0.001-0.001-0.002-0.003-0.004-0.005
			L53.655,14.38c-1.55,1.542-4.058,1.54-5.604-0.007c-0.004-0.004-0.006-0.008-0.01-0.012c-0.018,0.017-0.037,0.027-0.055,0.045
			L14.406,47.987c-0.017,0.017-0.028,0.037-0.044,0.055c0.003,0.003,0.007,0.005,0.011,0.009c1.547,1.547,1.549,4.053,0.008,5.604
			l11.222,11.222c0.002,0.002,0.004,0.003,0.006,0.005c1.549-1.538,4.047-1.538,5.595,0c0.017-0.017,0.037-0.027,0.054-0.044
			l33.582-33.581c0.017-0.017,0.027-0.036,0.044-0.054C63.344,29.656,63.344,27.155,64.882,25.607z"/>
	</g>
</g>
<g id="Star_2_">
	<g>
		<path style="fill-rule:evenodd;clip-rule:evenodd;fill:#ED7161;" d="M48.052,19.985l-2.808,2.807l11.227,11.227l2.807-2.807
			L48.052,19.985z M19.986,48.051l11.226,11.227l2.807-2.807L22.793,45.244L19.986,48.051z M44.11,39.246l1.341-4.346
			c0.099-0.318,0.02-0.657-0.207-0.883c-0.226-0.225-0.563-0.304-0.882-0.205l-4.346,1.341l-3.672-2.444
			c-0.27-0.18-0.623-0.191-0.924-0.032c-0.3,0.16-0.498,0.467-0.516,0.8l-0.243,4.491l-3.602,2.83
			c-0.267,0.21-0.407,0.542-0.366,0.866c0.025,0.193,0.111,0.366,0.241,0.496c0.089,0.09,0.198,0.158,0.323,0.201l4.203,1.439
			l1.439,4.203c0.043,0.125,0.111,0.234,0.2,0.323c0.131,0.13,0.303,0.217,0.496,0.241c0.325,0.041,0.657-0.1,0.866-0.366
			l2.832-3.602l4.491-0.242c0.332-0.019,0.639-0.216,0.799-0.517s0.147-0.654-0.032-0.924L44.11,39.246z"/>
	</g>
</g>
<g>
</g>
<g>
</g>
<g>
</g>
<g>
</g>
<g>
</g>
<g>
</g>
<g>
</g>
<g>
</g>
<g>
</g>
<g>
</g>
<g>
</g>
<g>
</g>
<g>
</g>
<g>
</g>
<g>
</g>
</svg>
