<?xml version="1.0" encoding="iso-8859-1"?>
<!-- Generator: Adobe Illustrator 16.0.0, SVG Export Plug-In . SVG Version: 6.00 Build 0)  -->
<!DOCTYPE svg PUBLIC "-//W3C//DTD SVG 1.1//EN" "http://www.w3.org/Graphics/SVG/1.1/DTD/svg11.dtd">
<svg version="1.1" id="Layer_1" xmlns="http://www.w3.org/2000/svg" xmlns:xlink="http://www.w3.org/1999/xlink" x="0px" y="0px"
	 width="74px" height="68.001px" viewBox="0 0 74 68.001" style="enable-background:new 0 0 74 68.001;" xml:space="preserve">
<g id="Ring_7_">
	<g>
		<circle style="fill:#FFFFFF;" cx="32" cy="32" r="32"/>
	</g>
</g>
<g id="Ring_8_">
	<g>
		<path style="fill-rule:evenodd;clip-rule:evenodd;fill:#CCCCCC;" d="M32,32.001h32C64,14.327,49.673,0,32,0
			c-0.013,0-0.026,0.001-0.039,0.001H32V32.001z"/>
	</g>
</g>
<g id="Ring_9_">
	<g>
		<path style="fill-rule:evenodd;clip-rule:evenodd;fill:#48A0DC;" d="M32,0C14.326,0,0,14.327,0,32.001c0,17.672,14.326,32,32,32
			c17.673,0,32-14.328,32-32C64,14.327,49.673,0,32,0z M32,60.001c-15.464,0-28-12.537-28-28c0-15.465,12.536-28,28-28
			s28,12.535,28,28C60,47.464,47.464,60.001,32,60.001z"/>
	</g>
</g>
<g id="_x35__2_">
	<g>
		<path style="fill-rule:evenodd;clip-rule:evenodd;fill:#4D4D4D;" d="M40,28.001h-4V24h8c1.104,0,2-0.896,2-1.999
			C46,20.896,45.104,20,44,20H34c-1.104,0-2,0.896-2,2.001v0.407c0,0.01-0.003,0.019-0.003,0.028v7.613
			c0,0.806,0.503,1.496,1.22,1.791C33.458,31.942,33.722,32,34,32h4h2c2.209,0,4,1.791,4,4s-1.791,4.001-4,4.001S36,38.209,36,36
			c0-1.104-0.896-2-2-2s-2,0.896-2,2c0,4.419,3.582,8,8,8s8-3.581,8-8C48,31.582,44.418,28.001,40,28.001z"/>
	</g>
</g>
<g id="_x31__1_">
	<g>
		<path style="fill-rule:evenodd;clip-rule:evenodd;fill:#4D4D4D;" d="M26,20c-0.023,0-0.045,0.006-0.069,0.007
			c-0.406-0.024-0.823,0.069-1.201,0.3l-5.624,3.429c-1.035,0.631-1.391,2.029-0.793,3.123c0.599,1.093,1.922,1.467,2.958,0.836
			L24,26.03v15.971c0,1.104,0.896,2,2,2s2-0.896,2-2v-20C28,20.896,27.104,20,26,20z"/>
	</g>
</g>
<g>
</g>
<g>
</g>
<g>
</g>
<g>
</g>
<g>
</g>
<g>
</g>
<g>
</g>
<g>
</g>
<g>
</g>
<g>
</g>
<g>
</g>
<g>
</g>
<g>
</g>
<g>
</g>
<g>
</g>
</svg>
