<?xml version="1.0" encoding="iso-8859-1"?>
<!-- Generator: Adobe Illustrator 16.0.0, SVG Export Plug-In . SVG Version: 6.00 Build 0)  -->
<!DOCTYPE svg PUBLIC "-//W3C//DTD SVG 1.1//EN" "http://www.w3.org/Graphics/SVG/1.1/DTD/svg11.dtd">
<svg version="1.1" id="Layer_1" xmlns="http://www.w3.org/2000/svg" xmlns:xlink="http://www.w3.org/1999/xlink" x="0px" y="0px"
	 width="62px" height="68px" viewBox="0 0 62 68" style="enable-background:new 0 0 62 68;" xml:space="preserve">
<g id="Ring_13_">
	<g>
		<path style="fill-rule:evenodd;clip-rule:evenodd;fill:#CCCCCC;" d="M37.992,9.842C37.993,9.895,38,9.946,38,9.999
			c0,1.362-0.274,2.66-0.768,3.844C45.904,17.46,52,26.017,52,36c0,1.363-0.119,2.698-0.338,4h4.049C55.898,38.693,56,37.358,56,36
			C56,24.057,48.52,13.866,37.992,9.842z M4,36c0-3.323,0.688-6.48,1.908-9.357c-0.868-1.561-1.6-3.111-2.169-4.604
			C1.367,26.149,0,30.912,0,36c0,15.463,12.536,28,28,28c4.295,0,8.362-0.97,12-2.698V56.78c-3.531,2.043-7.627,3.219-12,3.219
			C14.745,59.999,4,49.254,4,36z"/>
	</g>
</g>
<g id="Hand_2_">
	<g>
		<path style="fill:#48A0DC;" d="M30.824,33.325C29.306,31.807,7.601,12.563,6.082,14.082s17.726,23.224,19.244,24.741
			c1.518,1.519,3.979,1.519,5.498,0C32.343,37.306,32.343,34.844,30.824,33.325z"/>
	</g>
</g>
<g id="Dot">
	<g>
		<circle style="fill:#CCCCCC;" cx="28" cy="9.999" r="4"/>
	</g>
</g>
<g id="_x35__3_">
	<g>
		<path style="fill-rule:evenodd;clip-rule:evenodd;fill:#FF8833;" d="M52,52h-4v-4h8c1.104,0,2-0.896,2-2c0-1.105-0.896-2-2-2H46
			c-1.104,0-2,0.895-2,2v0.407c0,0.01-0.003,0.019-0.003,0.028v7.613c0,0.781,0.477,1.45,1.159,1.759C45.414,55.928,45.697,56,46,56
			h4h2c2.209,0,4,1.79,4,3.999C56,62.209,54.209,64,52,64s-4-1.791-4-4.001c0-1.104-0.896-2-2-2s-2,0.896-2,2
			C44,64.418,47.582,68,52,68s8-3.582,8-8.001C60,55.582,56.418,52,52,52z"/>
	</g>
</g>
<g>
</g>
<g>
</g>
<g>
</g>
<g>
</g>
<g>
</g>
<g>
</g>
<g>
</g>
<g>
</g>
<g>
</g>
<g>
</g>
<g>
</g>
<g>
</g>
<g>
</g>
<g>
</g>
<g>
</g>
</svg>
