<?xml version="1.0" encoding="iso-8859-1"?>
<!-- Generator: Adobe Illustrator 16.0.0, SVG Export Plug-In . SVG Version: 6.00 Build 0)  -->
<!DOCTYPE svg PUBLIC "-//W3C//DTD SVG 1.1//EN" "http://www.w3.org/Graphics/SVG/1.1/DTD/svg11.dtd">
<svg version="1.1" id="Layer_1" xmlns="http://www.w3.org/2000/svg" xmlns:xlink="http://www.w3.org/1999/xlink" x="0px" y="0px"
	 width="56px" height="64px" viewBox="0 0 56 64" style="enable-background:new 0 0 56 64;" xml:space="preserve">
<g id="Ring_14_">
	<g>
		<path style="fill-rule:evenodd;clip-rule:evenodd;fill:#CCCCCC;" d="M37.992,9.842C37.993,9.895,38,9.946,38,9.999
			c0,1.362-0.274,2.66-0.768,3.844C45.904,17.46,52,26.017,52,36c0,13.254-10.745,23.999-24,23.999S4,49.254,4,36
			c0-3.323,0.688-6.48,1.908-9.358c-0.868-1.561-1.601-3.111-2.169-4.604C1.367,26.149,0,30.912,0,36c0,15.463,12.536,28,28,28
			s28-12.537,28-28C56,24.057,48.521,13.866,37.992,9.842z"/>
	</g>
</g>
<g id="Hand_3_">
	<g>
		<path style="fill:#48A0DC;" d="M30.824,33.325C29.306,31.807,7.601,12.563,6.082,14.082s17.726,23.224,19.244,24.741
			c1.519,1.519,3.979,1.519,5.498,0C32.343,37.306,32.343,34.844,30.824,33.325z"/>
	</g>
</g>
<g id="Dot_1_">
	<g>
		<circle style="fill:#CCCCCC;" cx="28" cy="9.999" r="4"/>
	</g>
</g>
<g>
</g>
<g>
</g>
<g>
</g>
<g>
</g>
<g>
</g>
<g>
</g>
<g>
</g>
<g>
</g>
<g>
</g>
<g>
</g>
<g>
</g>
<g>
</g>
<g>
</g>
<g>
</g>
<g>
</g>
</svg>
