<?xml version="1.0" encoding="iso-8859-1"?>
<!-- Generator: Adobe Illustrator 16.0.0, SVG Export Plug-In . SVG Version: 6.00 Build 0)  -->
<!DOCTYPE svg PUBLIC "-//W3C//DTD SVG 1.1//EN" "http://www.w3.org/Graphics/SVG/1.1/DTD/svg11.dtd">
<svg version="1.1" id="Layer_1" xmlns="http://www.w3.org/2000/svg" xmlns:xlink="http://www.w3.org/1999/xlink" x="0px" y="0px"
	 width="64px" height="68.001px" viewBox="0 0 64 68.001" style="enable-background:new 0 0 64 68.001;" xml:space="preserve">
<g id="Ring_4_">
	<g>
		<circle style="fill:#FFFFFF;" cx="32" cy="32" r="32"/>
	</g>
</g>
<g id="Ring_5_">
	<g>
		<path style="fill-rule:evenodd;clip-rule:evenodd;fill:#CCCCCC;" d="M32,0c-0.013,0-0.026,0.001-0.039,0.001L32,0v64.001
			c17.673,0,32-14.328,32-32C64,14.327,49.673,0,32,0z"/>
	</g>
</g>
<g id="Ring_6_">
	<g>
		<path style="fill-rule:evenodd;clip-rule:evenodd;fill:#FFCC66;" d="M32,0C14.326,0,0,14.327,0,32.001c0,17.672,14.326,32,32,32
			c17.673,0,32-14.328,32-32C64,14.327,49.673,0,32,0z M32,60.001c-15.464,0-28-12.537-28-28c0-15.465,12.536-28,28-28
			s28,12.535,28,28C60,47.464,47.464,60.001,32,60.001z"/>
	</g>
</g>
<g id="_x30__2_">
	<g>
		<path style="fill:#4D4D4D;" d="M48.023,23.275c-1.332-2.177-3.34-3.266-6.023-3.266s-4.691,1.089-6.023,3.266
			c-1.333,2.177-1.999,5.083-1.999,8.718c0,3.637,0.666,6.543,1.999,8.72c1.332,2.177,3.34,3.265,6.023,3.265
			s4.691-1.088,6.023-3.265c1.333-2.177,1.999-5.083,1.999-8.72C50.022,28.358,49.356,25.452,48.023,23.275z M45.041,37.785
			c-0.649,1.467-1.663,2.199-3.041,2.199s-2.392-0.732-3.041-2.199c-0.65-1.466-0.975-3.401-0.975-5.807s0.324-4.341,0.975-5.807
			c0.649-1.466,1.663-2.199,3.041-2.199s2.392,0.733,3.041,2.199c0.65,1.466,0.975,3.401,0.975,5.807S45.691,36.319,45.041,37.785z"
			/>
	</g>
</g>
<g id="_x33__4_">
	<g>
		<path style="fill-rule:evenodd;clip-rule:evenodd;fill:#4D4D4D;" d="M30,22.001c0-0.011-0.003-0.021-0.003-0.031
			c0.008-0.503-0.176-1.008-0.56-1.392c-0.286-0.286-0.641-0.462-1.011-0.529c-0.138-0.03-0.28-0.048-0.427-0.048H16
			c-1.104,0-2,0.895-2,2c0,1.104,0.896,2,2,2h7.299l-4.723,4.723c-0.75,0.75-0.75,1.966,0,2.716
			c0.393,0.393,0.912,0.574,1.426,0.556L20,32.001h2c2.209,0,4,1.791,4,4s-1.791,4-4,4s-4-1.791-4-4C18,34.896,17.104,34,16,34
			s-2,0.896-2,2.001c0,4.418,3.582,8,8,8s8-3.582,8-8c0-3.593-2.368-6.631-5.627-7.642l4.645-4.646
			C29.603,23.365,30,22.732,30,22.001z"/>
	</g>
</g>
<g>
</g>
<g>
</g>
<g>
</g>
<g>
</g>
<g>
</g>
<g>
</g>
<g>
</g>
<g>
</g>
<g>
</g>
<g>
</g>
<g>
</g>
<g>
</g>
<g>
</g>
<g>
</g>
<g>
</g>
</svg>
