<?xml version="1.0" encoding="iso-8859-1"?>
<!-- Generator: Adobe Illustrator 16.0.0, SVG Export Plug-In . SVG Version: 6.00 Build 0)  -->
<!DOCTYPE svg PUBLIC "-//W3C//DTD SVG 1.1//EN" "http://www.w3.org/Graphics/SVG/1.1/DTD/svg11.dtd">
<svg version="1.1" id="Layer_1" xmlns="http://www.w3.org/2000/svg" xmlns:xlink="http://www.w3.org/1999/xlink" x="0px" y="0px"
	 width="64px" height="68px" viewBox="0 0 64 68" style="enable-background:new 0 0 64 68;" xml:space="preserve">
<g id="Ring_19_">
	<g>
		<circle style="fill:#FFFFFF;" cx="32" cy="36" r="32"/>
	</g>
</g>
<g id="Ring_2_">
	<g>
		<path style="fill-rule:evenodd;clip-rule:evenodd;fill:#CCCCCC;" d="M32,3.999V36H0c0,17.672,14.326,32,32,32
			c17.673,0,32-14.328,32-32C64,18.326,49.673,3.999,32,3.999z"/>
	</g>
</g>
<g id="Ring_3_">
	<g>
		<path style="fill-rule:evenodd;clip-rule:evenodd;fill:#ED7161;" d="M32,3.999C14.326,3.999,0,18.326,0,36
			c0,17.672,14.326,32,32,32c17.673,0,32-14.328,32-32C64,18.326,49.673,3.999,32,3.999z M32,64C16.536,64,4,51.463,4,36
			C4,20.535,16.536,8,32,8s28,12.535,28,28C60,51.463,47.464,64,32,64z"/>
	</g>
</g>
<g id="_x35__1_">
	<g>
		<path style="fill-rule:evenodd;clip-rule:evenodd;fill:#4D4D4D;" d="M42,32h-4v-4.001h8c1.104,0,2-0.896,2-1.999
			c0-1.105-0.896-2.001-2-2.001H36c-1.104,0-2,0.896-2,2.001v0.407c0,0.01-0.003,0.019-0.003,0.028v7.613
			c0,0.806,0.503,1.496,1.22,1.791c0.24,0.102,0.505,0.159,0.783,0.159h4h2c2.209,0,4,1.791,4,4S44.209,44,42,44s-4-1.792-4-4.001
			c0-1.104-0.896-2-2-2s-2,0.896-2,2c0,4.419,3.582,8,8,8s8-3.581,8-8C50,35.581,46.418,32,42,32z"/>
	</g>
</g>
<g id="_x34__3_">
	<g>
		<path style="fill-rule:evenodd;clip-rule:evenodd;fill:#4D4D4D;" d="M28,37.999V36c0-1.105-0.896-2-2-2s-2,0.895-2,2v1.999h-4.557
			l6.289-10.969c0.552-0.964,0.225-2.195-0.732-2.752c-0.957-0.556-2.18-0.226-2.732,0.737l-8,13.953
			c-0.108,0.188-0.173,0.389-0.215,0.592c-0.005,0.021-0.01,0.041-0.014,0.062c-0.017,0.093-0.024,0.185-0.028,0.277
			C14.008,39.934,14,39.966,14,40c0,0.021,0.005,0.039,0.006,0.06c0.002,0.056,0.01,0.11,0.017,0.165
			c0.01,0.089,0.022,0.176,0.043,0.26c0.004,0.015,0.009,0.028,0.013,0.043c0.211,0.769,0.864,1.346,1.672,1.447
			c0.002,0.001,0.003,0.001,0.005,0.001C15.837,41.985,15.917,42,16,42h8v4c0,1.104,0.896,2,2,2s2-0.896,2-2v-4c1.104,0,2-0.896,2-2
			S29.104,37.999,28,37.999z"/>
	</g>
</g>
<g>
</g>
<g>
</g>
<g>
</g>
<g>
</g>
<g>
</g>
<g>
</g>
<g>
</g>
<g>
</g>
<g>
</g>
<g>
</g>
<g>
</g>
<g>
</g>
<g>
</g>
<g>
</g>
<g>
</g>
</svg>
