<?xml version="1.0" encoding="iso-8859-1"?>
<!-- Generator: Adobe Illustrator 16.0.0, SVG Export Plug-In . SVG Version: 6.00 Build 0)  -->
<!DOCTYPE svg PUBLIC "-//W3C//DTD SVG 1.1//EN" "http://www.w3.org/Graphics/SVG/1.1/DTD/svg11.dtd">
<svg version="1.1" id="Layer_1" xmlns="http://www.w3.org/2000/svg" xmlns:xlink="http://www.w3.org/1999/xlink" x="0px" y="0px"
	 width="64px" height="64.001px" viewBox="0 0 64 64.001" style="enable-background:new 0 0 64 64.001;" xml:space="preserve">
<g id="Ring">
	<g>
		<circle style="fill:#ED7161;" cx="32" cy="32" r="32"/>
	</g>
</g>
<g id="_x30__1_">
	<g>
		<path style="fill:#FFFFFF;" d="M48.023,23.275c-1.332-2.177-3.34-3.266-6.023-3.266s-4.691,1.089-6.023,3.266
			s-1.999,5.083-1.999,8.718c0,3.637,0.667,6.543,1.999,8.72s3.34,3.265,6.023,3.265s4.691-1.088,6.023-3.265
			c1.333-2.177,1.999-5.083,1.999-8.72C50.022,28.358,49.356,25.452,48.023,23.275z M45.041,37.785
			c-0.649,1.467-1.663,2.199-3.041,2.199s-2.392-0.732-3.041-2.199c-0.65-1.466-0.975-3.401-0.975-5.807s0.324-4.341,0.975-5.807
			c0.649-1.466,1.663-2.199,3.041-2.199s2.392,0.733,3.041,2.199c0.65,1.466,0.975,3.401,0.975,5.807S45.691,36.319,45.041,37.785z"
			/>
	</g>
</g>
<g id="_x36__1_">
	<g>
		<path style="fill-rule:evenodd;clip-rule:evenodd;fill:#FFFFFF;" d="M22,28c-0.876,0-1.717,0.146-2.506,0.407
			c1.021-2.083,2.446-3.52,3.92-4.993c0.781-0.781,0.781-2.047,0-2.828s-2.047-0.781-2.828,0C17.651,23.52,14,27.172,14,36
			c0,4.412,3.589,8,8,8c4.412,0,8-3.588,8-8C30,31.589,26.412,28,22,28z M22,40.001c-2.206,0-4-1.796-4-4.001c0-2.206,1.794-4,4-4
			c2.205,0,4,1.794,4,4C26,38.205,24.205,40.001,22,40.001z"/>
	</g>
</g>
<g>
</g>
<g>
</g>
<g>
</g>
<g>
</g>
<g>
</g>
<g>
</g>
<g>
</g>
<g>
</g>
<g>
</g>
<g>
</g>
<g>
</g>
<g>
</g>
<g>
</g>
<g>
</g>
<g>
</g>
</svg>
