<?xml version="1.0" encoding="iso-8859-1"?>
<!-- Generator: Adobe Illustrator 16.0.0, SVG Export Plug-In . SVG Version: 6.00 Build 0)  -->
<!DOCTYPE svg PUBLIC "-//W3C//DTD SVG 1.1//EN" "http://www.w3.org/Graphics/SVG/1.1/DTD/svg11.dtd">
<svg version="1.1" id="Layer_1" xmlns="http://www.w3.org/2000/svg" xmlns:xlink="http://www.w3.org/1999/xlink" x="0px" y="0px"
	 width="74px" height="68.001px" viewBox="0 0 74 68.001" style="enable-background:new 0 0 74 68.001;" xml:space="preserve">
<g id="Ring_10_">
	<g>
		<circle style="fill:#FFFFFF;" cx="32" cy="32" r="32"/>
	</g>
</g>
<g id="Ring_11_">
	<g>
		<path style="fill-rule:evenodd;clip-rule:evenodd;fill:#CCCCCC;" d="M32,0C14.327,0,0,14.327,0,32.001c0,17.672,14.327,32,32,32
			c17.673,0,32-14.328,32-32C64,14.327,49.673,0,32,0z M32,60.001c-15.463,0-28-12.537-28-28c0-15.465,12.536-28,28-28
			c15.464,0,28,12.535,28,28C60,47.464,47.464,60.001,32,60.001z"/>
	</g>
</g>
<g id="Ring_12_">
	<g>
		<path style="fill-rule:evenodd;clip-rule:evenodd;fill:#FF8833;" d="M32,32.001h32C64,14.327,49.673,0,32,0
			c-0.013,0-0.026,0.001-0.039,0.001H32V32.001z"/>
	</g>
</g>
<g id="Hand">
	<g>
		<path style="fill:#7F7F7F;" d="M31.996,27.991c-2.21,0-4.001,1.795-4.001,4.009s1.792,4.009,4.001,4.009S64,34.214,64,32.001
			C64,29.787,34.206,27.991,31.996,27.991z"/>
	</g>
</g>
<g id="Hand_1_">
	<g>
		<path style="fill:#4D4D4D;" d="M32,0.001c-2.205,0-3.81,29.775-3.81,31.982c0,2.209,1.787,4,3.992,4s3.992-1.791,3.992-4
			C36.174,29.776,34.205,0.001,32,0.001z"/>
	</g>
</g>
<g>
</g>
<g>
</g>
<g>
</g>
<g>
</g>
<g>
</g>
<g>
</g>
<g>
</g>
<g>
</g>
<g>
</g>
<g>
</g>
<g>
</g>
<g>
</g>
<g>
</g>
<g>
</g>
<g>
</g>
</svg>
