<?xml version="1.0" encoding="iso-8859-1"?>
<!-- Generator: Adobe Illustrator 16.0.0, SVG Export Plug-In . SVG Version: 6.00 Build 0)  -->
<!DOCTYPE svg PUBLIC "-//W3C//DTD SVG 1.1//EN" "http://www.w3.org/Graphics/SVG/1.1/DTD/svg11.dtd">
<svg version="1.1" id="Layer_1" xmlns="http://www.w3.org/2000/svg" xmlns:xlink="http://www.w3.org/1999/xlink" x="0px" y="0px"
	 width="64.007px" height="64.021px" viewBox="0 0 64.007 64.021" style="enable-background:new 0 0 64.007 64.021;"
	 xml:space="preserve">
<g id="Antena_2_">
	<g>
		<path style="fill-rule:evenodd;clip-rule:evenodd;fill:#B3B3B3;" d="M45.428,0.611c-0.816-0.814-2.14-0.814-2.956,0L32.006,18.16
			L21.54,0.611c-0.815-0.814-2.139-0.814-2.955,0c-0.815,0.816-0.815,2.14,0,2.956l11.822,19.821
			c0.439,0.439,1.024,0.634,1.599,0.601c0.575,0.033,1.161-0.161,1.6-0.601L45.428,3.567C46.243,2.751,46.243,1.428,45.428,0.611z"
			/>
	</g>
</g>
<g id="Body_11_">
	<g>
		<path style="fill:#FFCC66;" d="M60.308,20.039c-0.004,0-0.008-0.002-0.012-0.002H3.711c-0.004,0-0.007,0.002-0.011,0.002
			C1.656,20.045,0,21.65,0,23.631v6.389v30.291c0,2.049,1.662,3.71,3.711,3.71h56.585c2.05,0,3.711-1.661,3.711-3.71V30.02v-6.389
			C64.007,21.65,62.352,20.045,60.308,20.039z"/>
	</g>
</g>
<g id="BTN">
	<g>
		<circle style="fill:#997A3D;" cx="56.007" cy="58.033" r="2"/>
	</g>
</g>
<g id="BTN_1_">
	<g>
		<circle style="fill:#ED7161;" cx="56.007" cy="50.033" r="2"/>
	</g>
</g>
<g id="Display_4_">
	<g>
		<path style="fill:#4D4D4D;" d="M46.007,24.033h-40c-1.105,0-2.001,0.896-2.001,1.999v32c0,1.105,0.896,2.001,2.001,2.001h40
			c1.104,0,2-0.896,2-2.001v-32C48.007,24.929,47.111,24.033,46.007,24.033z"/>
	</g>
</g>
<g>
</g>
<g>
</g>
<g>
</g>
<g>
</g>
<g>
</g>
<g>
</g>
<g>
</g>
<g>
</g>
<g>
</g>
<g>
</g>
<g>
</g>
<g>
</g>
<g>
</g>
<g>
</g>
<g>
</g>
</svg>
