<?xml version="1.0" encoding="iso-8859-1"?>
<!-- Generator: Adobe Illustrator 16.0.0, SVG Export Plug-In . SVG Version: 6.00 Build 0)  -->
<!DOCTYPE svg PUBLIC "-//W3C//DTD SVG 1.1//EN" "http://www.w3.org/Graphics/SVG/1.1/DTD/svg11.dtd">
<svg version="1.1" id="Layer_1" xmlns="http://www.w3.org/2000/svg" xmlns:xlink="http://www.w3.org/1999/xlink" x="0px" y="0px"
	 width="64px" height="56.014px" viewBox="0 0 64 56.014" style="enable-background:new 0 0 64 56.014;" xml:space="preserve">
<g id="Antena_1_">
	<g>
		<path style="fill-rule:evenodd;clip-rule:evenodd;fill:#CCCCCC;" d="M45.421,0.611c-0.816-0.815-2.14-0.815-2.956,0L32,11.077
			L21.534,0.611c-0.816-0.815-2.14-0.815-2.956,0c-0.815,0.816-0.815,2.14,0,2.955L30.4,15.389c0.439,0.439,1.024,0.634,1.599,0.601
			c0.575,0.033,1.161-0.161,1.6-0.601L45.421,3.566C46.237,2.751,46.237,1.428,45.421,0.611z"/>
	</g>
</g>
<g id="Legs_2_">
	<g>
		<path style="fill-rule:evenodd;clip-rule:evenodd;fill:#BA594C;" d="M22.934,48.393c-1.014-0.643-2.269-0.348-2.803,0.658
			l-1.934,3.641c-0.534,1.004-0.146,2.34,0.868,2.982c1.014,0.642,2.269,0.348,2.803-0.658l1.934-3.641
			C24.336,50.37,23.947,49.034,22.934,48.393z M45.802,52.691l-1.934-3.641c-0.534-1.006-1.789-1.301-2.803-0.658
			c-1.014,0.642-1.402,1.978-0.868,2.982l1.934,3.641c0.534,1.006,1.789,1.3,2.803,0.658C45.947,55.031,46.336,53.695,45.802,52.691
			z"/>
	</g>
</g>
<g id="Body_10_">
	<g>
		<path style="fill:#ED7161;" d="M42,12.033H22c-12.15,0-22,8.954-22,20c0,11.045,9.85,20,22,20h20c12.149,0,22-8.955,22-20
			C64,20.987,54.149,12.033,42,12.033z"/>
	</g>
</g>
<g id="Display_3_">
	<g>
		<path style="fill:#E6E6E6;" d="M42,16.032H22c-9.941,0-18,7.164-18,16.001c0,8.836,8.059,16,18,16h20c9.94,0,18-7.164,18-16
			C60,23.196,51.94,16.032,42,16.032z"/>
	</g>
</g>
<g>
</g>
<g>
</g>
<g>
</g>
<g>
</g>
<g>
</g>
<g>
</g>
<g>
</g>
<g>
</g>
<g>
</g>
<g>
</g>
<g>
</g>
<g>
</g>
<g>
</g>
<g>
</g>
<g>
</g>
</svg>
