<?xml version="1.0" encoding="iso-8859-1"?>
<!-- Generator: Adobe Illustrator 16.0.0, SVG Export Plug-In . SVG Version: 6.00 Build 0)  -->
<!DOCTYPE svg PUBLIC "-//W3C//DTD SVG 1.1//EN" "http://www.w3.org/Graphics/SVG/1.1/DTD/svg11.dtd">
<svg version="1.1" id="Layer_1" xmlns="http://www.w3.org/2000/svg" xmlns:xlink="http://www.w3.org/1999/xlink" x="0px" y="0px"
	 width="48px" height="64.015px" viewBox="0 0 48 64.015" style="enable-background:new 0 0 48 64.015;" xml:space="preserve">
<g id="Legs_1_">
	<g>
		<path style="fill-rule:evenodd;clip-rule:evenodd;fill:#666666;" d="M14.934,56.394c-1.014-0.643-2.269-0.348-2.803,0.658
			l-1.934,3.64c-0.534,1.005-0.146,2.341,0.869,2.983c1.013,0.642,2.268,0.348,2.802-0.658l1.934-3.641
			C16.336,58.371,15.947,57.035,14.934,56.394z M37.802,60.691l-1.934-3.64c-0.534-1.006-1.789-1.301-2.803-0.658
			c-1.014,0.642-1.402,1.978-0.868,2.982l1.934,3.641c0.534,1.006,1.789,1.3,2.803,0.658C37.947,63.032,38.336,61.696,37.802,60.691
			z"/>
	</g>
</g>
<g id="Antena">
	<g>
		<path style="fill-rule:evenodd;clip-rule:evenodd;fill:#666666;" d="M37.421,0.612c-0.816-0.816-2.14-0.816-2.956,0L24,11.078
			L13.534,0.612c-0.816-0.816-2.14-0.816-2.956,0c-0.815,0.816-0.815,2.14,0,2.956L22.4,15.39c0.439,0.439,1.024,0.634,1.599,0.601
			c0.575,0.033,1.161-0.161,1.6-0.601L37.421,3.568C38.237,2.752,38.237,1.429,37.421,0.612z"/>
	</g>
</g>
<g id="Body_9_">
	<g>
		<path style="fill:#666666;" d="M44,12.034H4c-2.21,0-4,1.791-4,3.999v40.001c0,2.209,1.79,4,4,4h40c2.209,0,4-1.791,4-4V16.033
			C48,13.825,46.209,12.034,44,12.034z"/>
	</g>
</g>
<g id="Background">
	<g>
		<path style="fill:#CCCCCC;" d="M24,16.033c-14.729,0-20,5.272-20,20.001c0,14.728,5.271,20,20,20c14.728,0,19.999-5.272,19.999-20
			C43.999,21.306,38.728,16.033,24,16.033z"/>
	</g>
</g>
<g>
</g>
<g>
</g>
<g>
</g>
<g>
</g>
<g>
</g>
<g>
</g>
<g>
</g>
<g>
</g>
<g>
</g>
<g>
</g>
<g>
</g>
<g>
</g>
<g>
</g>
<g>
</g>
<g>
</g>
</svg>
