<?xml version="1.0" encoding="iso-8859-1"?>
<!-- Generator: Adobe Illustrator 16.0.0, SVG Export Plug-In . SVG Version: 6.00 Build 0)  -->
<!DOCTYPE svg PUBLIC "-//W3C//DTD SVG 1.1//EN" "http://www.w3.org/Graphics/SVG/1.1/DTD/svg11.dtd">
<svg version="1.1" id="Layer_1" xmlns="http://www.w3.org/2000/svg" xmlns:xlink="http://www.w3.org/1999/xlink" x="0px" y="0px"
	 width="63.98px" height="47.998px" viewBox="0 0 63.98 47.998" style="enable-background:new 0 0 63.98 47.998;"
	 xml:space="preserve">
<g id="Base_2_">
	<g>
		<path style="fill:#666666;" d="M62.699,7.578c-0.604-2.784-3.609-5.957-6.398-6.314C48.307,0.291,39.984,0.01,31.99,0
			C24.006,0.01,15.693,0.291,7.709,1.264c-2.785,0.357-5.787,3.53-6.39,6.314C0.34,12.295-0.028,19.166,0.002,23.999
			c0.04,6.438,0.013,10.137,1.317,16.42c0.603,2.785,3.604,5.958,6.39,6.316c8.041,0.979,16.24,1.26,24.281,1.263
			c8.051-0.003,16.26-0.283,24.311-1.263c2.789-0.358,5.795-3.531,6.398-6.316c1.306-6.283,1.239-9.982,1.279-16.42
			C64.009,19.166,63.68,12.295,62.699,7.578z"/>
	</g>
</g>
<g id="Shape_4_">
	<g>
		<path style="fill:#E6E6E6;" d="M58.829,10.342c-0.527-2.321-3.156-4.965-5.595-5.264c-6.992-0.811-14.27-1.046-21.262-1.054
			C24.99,4.032,17.722,4.268,10.738,5.078C8.303,5.377,5.678,8.021,5.15,10.342C4.295,14.273,3.972,20,3.998,24.028
			c0.035,5.366,0.012,8.45,1.152,13.688c0.527,2.321,3.152,4.966,5.588,5.264c7.032,0.815,14.203,1.051,21.234,1.054
			c7.041-0.003,14.221-0.238,21.262-1.054c2.438-0.298,5.067-2.942,5.595-5.264c1.142-5.237,1.118-8.321,1.153-13.688
			C60.009,20,59.687,14.273,58.829,10.342z"/>
	</g>
</g>
<g id="Controls">
	<g>
		<path style="fill-rule:evenodd;clip-rule:evenodd;fill:#999999;" d="M50.029,26.035h5.992v-2.021h-5.992V26.035z M50.029,21.994
			h5.992v-2.021h-5.992V21.994z M53.025,17.994c1.654,0,2.996-1.341,2.996-2.994c0-1.654-1.342-2.994-2.996-2.994
			c-1.655,0-2.996,1.34-2.996,2.994C50.029,16.653,51.37,17.994,53.025,17.994z M53.025,28.018c-1.655,0-2.996,1.34-2.996,2.993
			s1.341,2.994,2.996,2.994c1.654,0,2.996-1.341,2.996-2.994S54.68,28.018,53.025,28.018z"/>
	</g>
</g>
<g id="Shape_5_">
	<g>
		<path style="fill:#ED7161;" d="M47.092,13.063c-0.414-1.854-2.48-3.968-4.397-4.206c-5.495-0.647-9.216-0.835-14.712-0.842
			c-5.487,0.007-9.201,0.194-14.689,0.842c-1.914,0.238-3.979,2.352-4.393,4.206c-0.673,3.142-0.927,7.718-0.906,10.936
			c0.028,4.288,0.01,6.751,0.906,10.937c0.414,1.854,2.479,3.968,4.393,4.206c5.527,0.652,9.163,0.84,14.689,0.842
			c5.535-0.002,9.178-0.189,14.712-0.842c1.917-0.238,3.983-2.352,4.397-4.206c0.897-4.186,0.879-6.648,0.907-10.937
			C48.02,20.781,47.766,16.205,47.092,13.063z"/>
	</g>
</g>
<g id="Play">
	<g>
		<polygon style="fill:#FFFFFF;" points="22.031,15.981 22.031,32.016 33.986,23.998 		"/>
	</g>
</g>
<g>
</g>
<g>
</g>
<g>
</g>
<g>
</g>
<g>
</g>
<g>
</g>
<g>
</g>
<g>
</g>
<g>
</g>
<g>
</g>
<g>
</g>
<g>
</g>
<g>
</g>
<g>
</g>
<g>
</g>
</svg>
