<?xml version="1.0" encoding="iso-8859-1"?>
<!-- Generator: Adobe Illustrator 16.0.0, SVG Export Plug-In . SVG Version: 6.00 Build 0)  -->
<!DOCTYPE svg PUBLIC "-//W3C//DTD SVG 1.1//EN" "http://www.w3.org/Graphics/SVG/1.1/DTD/svg11.dtd">
<svg version="1.1" id="Layer_1" xmlns="http://www.w3.org/2000/svg" xmlns:xlink="http://www.w3.org/1999/xlink" x="0px" y="0px"
	 width="64.006px" height="64.006px" viewBox="0 0 64.006 64.006" style="enable-background:new 0 0 64.006 64.006;"
	 xml:space="preserve">
<g id="Body_19_">
	<g>
		<path style="fill:#4D4D4D;" d="M62.846,17.984L46.022,1.161c-1.548-1.548-4.059-1.548-5.607,0L1.162,40.415
			c-1.549,1.548-1.549,4.059,0,5.606l16.822,16.823c1.549,1.549,4.06,1.549,5.608,0l39.253-39.253
			C64.394,22.043,64.394,19.533,62.846,17.984z"/>
	</g>
</g>
<g id="LED">
	<g>
		<circle style="fill:#ED7161;" cx="50.035" cy="14.034" r="2"/>
	</g>
</g>
<g id="BTNs_1_">
	<g>
		<path style="fill-rule:evenodd;clip-rule:evenodd;fill:#808080;" d="M39.008,19.497c0.688,0.688,1.803,0.688,2.49,0
			c0.688-0.687,0.688-1.803,0-2.49l-2.49-2.491c-0.688-0.688-1.804-0.688-2.491,0c-0.688,0.688-0.688,1.803,0,2.491L39.008,19.497z
			 M49.498,25.007l-2.49-2.491c-0.688-0.688-1.804-0.688-2.491,0c-0.688,0.688-0.688,1.803,0,2.491l2.491,2.491
			c0.688,0.688,1.803,0.688,2.49,0C50.187,26.81,50.187,25.694,49.498,25.007z M35.498,25.497c0.688-0.687,0.688-1.803,0-2.49
			l-2.491-2.491c-0.688-0.688-1.803-0.688-2.49,0c-0.688,0.688-0.688,1.803,0,2.491l2.49,2.49
			C33.695,26.186,34.811,26.186,35.498,25.497z M41.008,28.516c-0.688-0.688-1.804-0.688-2.492,0c-0.688,0.688-0.688,1.803,0,2.491
			l2.492,2.491c0.688,0.688,1.803,0.688,2.49,0c0.688-0.688,0.688-1.804,0-2.491L41.008,28.516z M27.008,26.516
			c-0.688-0.688-1.804-0.688-2.491,0c-0.688,0.688-0.688,1.803,0,2.491l2.491,2.491c0.688,0.688,1.803,0.688,2.49,0
			c0.688-0.688,0.688-1.804,0-2.491L27.008,26.516z M35.008,34.516c-0.688-0.688-1.804-0.688-2.492,0
			c-0.688,0.688-0.688,1.803,0,2.491l2.492,2.491c0.688,0.688,1.803,0.688,2.49,0c0.688-0.688,0.688-1.804,0-2.491L35.008,34.516z
			 M17.008,44.508l-2.492,2.491c-0.688,0.688-0.688,1.804,0,2.491c0.688,0.688,1.804,0.688,2.492,0l2.49-2.491
			c0.688-0.688,0.688-1.804,0-2.491C18.811,43.82,17.695,43.82,17.008,44.508z M25.008,36.508l-2.491,2.491
			c-0.688,0.688-0.688,1.804,0,2.491c0.688,0.688,1.803,0.688,2.491,0l2.49-2.491c0.688-0.688,0.688-1.804,0-2.491
			C26.811,35.82,25.695,35.82,25.008,36.508z M25,44.57c-0.688-0.688-1.804-0.688-2.491,0c-0.688,0.688-0.688,1.803,0,2.491
			L25,49.553c0.688,0.688,1.803,0.688,2.491,0c0.688-0.688,0.688-1.804,0-2.491L25,44.57z M17,41.553
			c0.688,0.688,1.803,0.688,2.491,0c0.688-0.688,0.688-1.803,0-2.491L17,36.57c-0.688-0.688-1.804-0.688-2.491,0
			s-0.688,1.804,0,2.491L17,41.553z"/>
	</g>
</g>
<g>
</g>
<g>
</g>
<g>
</g>
<g>
</g>
<g>
</g>
<g>
</g>
<g>
</g>
<g>
</g>
<g>
</g>
<g>
</g>
<g>
</g>
<g>
</g>
<g>
</g>
<g>
</g>
<g>
</g>
</svg>
