<?xml version="1.0" encoding="iso-8859-1"?>
<!-- Generator: Adobe Illustrator 16.0.0, SVG Export Plug-In . SVG Version: 6.00 Build 0)  -->
<!DOCTYPE svg PUBLIC "-//W3C//DTD SVG 1.1//EN" "http://www.w3.org/Graphics/SVG/1.1/DTD/svg11.dtd">
<svg version="1.1" id="Layer_1" xmlns="http://www.w3.org/2000/svg" xmlns:xlink="http://www.w3.org/1999/xlink" x="0px" y="0px"
	 width="64.006px" height="64.021px" viewBox="0 0 64.006 64.021" style="enable-background:new 0 0 64.006 64.021;"
	 xml:space="preserve">
<g id="Antena_3_">
	<g>
		<path style="fill-rule:evenodd;clip-rule:evenodd;fill:#666666;" d="M45.427,0.611c-0.816-0.814-2.139-0.814-2.956,0
			L32.006,11.078L21.541,0.611c-0.816-0.814-2.14-0.814-2.956,0c-0.816,0.816-0.816,2.14,0,2.956l11.822,11.821
			c0.439,0.439,1.025,0.634,1.6,0.601c0.575,0.033,1.16-0.161,1.599-0.601L45.427,3.567C46.243,2.751,46.243,1.428,45.427,0.611z"/>
	</g>
</g>
<g id="Body_12_">
	<g>
		<path style="fill:#48A0DC;" d="M60.307,12.039c-0.004,0-0.008-0.002-0.011-0.002H3.71c-0.004,0-0.007,0.002-0.011,0.002
			C1.656,12.046,0,13.65,0,15.631v6.39v38.29c0,2.049,1.662,3.71,3.71,3.71h56.586c2.049,0,3.71-1.661,3.71-3.71v-38.29v-6.39
			C64.006,13.65,62.351,12.046,60.307,12.039z"/>
	</g>
</g>
<g id="Display_5_">
	<g>
		<path style="fill:#E6E6E6;" d="M58.006,16.033h-52c-1.104,0-2,0.895-2,1.999v40c0,1.105,0.895,2.001,2,2.001h52
			c1.104,0,2-0.896,2-2.001v-40C60.006,16.928,59.111,16.033,58.006,16.033z"/>
	</g>
</g>
<g>
</g>
<g>
</g>
<g>
</g>
<g>
</g>
<g>
</g>
<g>
</g>
<g>
</g>
<g>
</g>
<g>
</g>
<g>
</g>
<g>
</g>
<g>
</g>
<g>
</g>
<g>
</g>
<g>
</g>
</svg>
