<?xml version="1.0" encoding="iso-8859-1"?>
<!-- Generator: Adobe Illustrator 16.0.0, SVG Export Plug-In . SVG Version: 6.00 Build 0)  -->
<!DOCTYPE svg PUBLIC "-//W3C//DTD SVG 1.1//EN" "http://www.w3.org/Graphics/SVG/1.1/DTD/svg11.dtd">
<svg version="1.1" id="Layer_1" xmlns="http://www.w3.org/2000/svg" xmlns:xlink="http://www.w3.org/1999/xlink" x="0px" y="0px"
	 width="54px" height="64.001px" viewBox="0 0 54 64.001" style="enable-background:new 0 0 54 64.001;" xml:space="preserve">
<g id="Cord_3_">
	<g>
		<path style="fill:#808080;" d="M50,12c0-6.627-5.373-12-12-12c-6.628,0-12,5.373-12,12v2.001v29.113v6.887v2c0,4.418-3.582,8-8,8
			s-8-3.582-8-8v-2v-6.887V12c0-1.104-0.896-1.999-2.001-1.999C6.895,10.001,6,10.896,6,12v38.001c0,0.18,0.058,0.341,0.102,0.508
			C6.04,50.997,6,51.493,6,52.001c0,6.627,5.372,12,12,12c6.627,0,12-5.373,12-12v-2V20.886v-6.885V12c0-4.418,3.581-7.999,8-7.999
			c4.418,0,8,3.581,8,7.999v2.001v6.885v31.115c0,1.104,0.896,2,1.999,2c1.104,0,2.001-0.896,2.001-2v-38
			c0-0.181-0.059-0.342-0.103-0.508C49.959,13.003,50,12.508,50,12z"/>
	</g>
</g>
<g id="Connector">
	<g>
		<path style="fill-rule:evenodd;clip-rule:evenodd;fill:#CCCCCC;" d="M50,48.001h-4c-1.104,0-2,0.895-2,2v8c0,1.104,0.896,2,2,2h4
			c1.104,0,2-0.896,2-2v-8C52,48.896,51.104,48.001,50,48.001z M12,0H4C2.896,0,2,0.896,2,2v12.001c0,1.104,0.896,2,2,2h8
			c1.104,0,2-0.896,2-2V2C14,0.896,13.104,0,12,0z"/>
	</g>
</g>
<g id="Pin">
	<g>
		<path style="fill-rule:evenodd;clip-rule:evenodd;fill:#666666;" d="M48,56.001c-1.104,0-2,0.895-2,2v2h4v-2
			C50,56.896,49.104,56.001,48,56.001z M11,2H5C4.447,2,4,2.448,4,3.001c0,0.552,0.447,1,1,1h6c0.552,0,1-0.448,1-1
			C12,2.448,11.552,2,11,2z"/>
	</g>
</g>
<g id="Cable_4_">
	<g>
		<path style="fill:#4D4D4D;" d="M10,28H6c-1.104,0-2,0.896-2,2v4c0,1.105,0.896,2.001,2,2.001h4c1.104,0,2-0.896,2-2.001v-4
			C12,28.896,11.104,28,10,28z"/>
	</g>
</g>
<g id="Body_52_">
	<g>
		<path style="fill-rule:evenodd;clip-rule:evenodd;fill:#666666;" d="M50,32.001h-4c-2.21,0-4,1.79-4,4v10v2v4h4h4h4v-4v-2v-10
			C54,33.791,52.209,32.001,50,32.001z M4,12H0v4.001v2V28c0,2.21,1.791,4.001,4,4.001h8c2.209,0,4-1.791,4-4.001v-9.999v-2V12h-4H4
			z"/>
	</g>
</g>
<g id="Shape_40_">
	<g>
		<path style="fill-rule:evenodd;clip-rule:evenodd;fill:#4D4D4D;" d="M42,48.001v4h12v-4H42z M0,16.001h16V12H0V16.001z"/>
	</g>
</g>
<g>
</g>
<g>
</g>
<g>
</g>
<g>
</g>
<g>
</g>
<g>
</g>
<g>
</g>
<g>
</g>
<g>
</g>
<g>
</g>
<g>
</g>
<g>
</g>
<g>
</g>
<g>
</g>
<g>
</g>
</svg>
