<?xml version="1.0" encoding="iso-8859-1"?>
<!-- Generator: Adobe Illustrator 16.0.0, SVG Export Plug-In . SVG Version: 6.00 Build 0)  -->
<!DOCTYPE svg PUBLIC "-//W3C//DTD SVG 1.1//EN" "http://www.w3.org/Graphics/SVG/1.1/DTD/svg11.dtd">
<svg version="1.1" id="Layer_1" xmlns="http://www.w3.org/2000/svg" xmlns:xlink="http://www.w3.org/1999/xlink" x="0px" y="0px"
	 width="64.003px" height="40.001px" viewBox="0 0 64.003 40.001" style="enable-background:new 0 0 64.003 40.001;"
	 xml:space="preserve">
<g id="Base_5_">
	<g>
		<path style="fill:#666666;" d="M60.003,0H4.001C1.792,0,0,1.791,0,4.001v32c0,2.209,1.792,4,4.001,4h56.002c2.209,0,4-1.791,4-4
			v-32C64.003,1.791,62.212,0,60.003,0z"/>
	</g>
</g>
<g id="Sep">
	<g>
		<rect x="0.003" y="6.001" style="fill:#4D4D4D;" width="64" height="2"/>
	</g>
</g>
<g id="Glass">
	<g>
		<path style="fill-rule:evenodd;clip-rule:evenodd;fill:#999999;" d="M10.003,12h-2c-2.209,0-4,1.791-4,4v12c0,2.209,1.791,4,4,4h2
			h2h4v-4V16v-4h-4H10.003z M56.003,12h-2h-2h-4v4v12v4h4h2h2c2.209,0,4-1.791,4-4V16C60.003,13.791,58.212,12,56.003,12z"/>
	</g>
</g>
<g id="Tape">
	<g>
		<path style="fill-rule:evenodd;clip-rule:evenodd;fill:#333333;" d="M8.003,22c0,4.398,3.57,7.963,7.979,7.979V14.021
			C11.573,14.037,8.003,17.602,8.003,22z M48.022,14.021v15.957c4.409-0.016,7.98-3.58,7.98-7.979S52.432,14.037,48.022,14.021z"/>
	</g>
</g>
<g id="Tape_1_">
	<g>
		<path style="fill-rule:evenodd;clip-rule:evenodd;fill:#999999;" d="M12.003,22c0,2.203,1.782,3.989,3.983,3.998v-7.974h0.259
			C16.163,18.02,16.086,18,16.003,18C13.794,18,12.003,19.791,12.003,22z M48.019,18.002v7.975h-0.248
			C47.849,25.981,47.923,26,48.003,26c2.209,0,4-1.791,4-4C52.003,19.797,50.22,18.01,48.019,18.002z"/>
	</g>
</g>
<g id="Label_14_">
	<g>
		<rect x="20.003" y="12" style="fill:#CCCCCC;" width="24" height="20"/>
	</g>
</g>
<g id="Label_15_">
	<g>
		<path style="fill:#9B7CAB;" d="M38.003,16h-12c-1.104,0-2,0.896-2,2s0.896,2,2,2h12c1.104,0,2-0.896,2-2S39.107,16,38.003,16z"/>
	</g>
</g>
<g>
</g>
<g>
</g>
<g>
</g>
<g>
</g>
<g>
</g>
<g>
</g>
<g>
</g>
<g>
</g>
<g>
</g>
<g>
</g>
<g>
</g>
<g>
</g>
<g>
</g>
<g>
</g>
<g>
</g>
</svg>
