<?xml version="1.0" encoding="iso-8859-1"?>
<!-- Generator: Adobe Illustrator 16.0.0, SVG Export Plug-In . SVG Version: 6.00 Build 0)  -->
<!DOCTYPE svg PUBLIC "-//W3C//DTD SVG 1.1//EN" "http://www.w3.org/Graphics/SVG/1.1/DTD/svg11.dtd">
<svg version="1.1" id="Layer_1" xmlns="http://www.w3.org/2000/svg" xmlns:xlink="http://www.w3.org/1999/xlink" x="0px" y="0px"
	 width="64px" height="52px" viewBox="0 0 64 52" style="enable-background:new 0 0 64 52;" xml:space="preserve">
<g id="Handle_2_">
	<g>
		<path style="fill-rule:evenodd;clip-rule:evenodd;fill:#CCCCCC;" d="M43.733,21.069L31.755,0.981
			c-0.227-0.381-0.568-0.652-0.955-0.813c-0.031-0.014-0.064-0.022-0.096-0.035c-0.077-0.027-0.153-0.054-0.232-0.072
			c-0.076-0.018-0.153-0.027-0.232-0.037c-0.044-0.005-0.087-0.012-0.132-0.014C30.071,0.009,30.037,0,30,0H2C0.896,0,0,0.896,0,2
			s0.896,2,2,2h26.903l11.341,19.02c0.557,0.933,1.788,1.253,2.752,0.714C43.959,23.194,44.29,22.002,43.733,21.069z"/>
	</g>
</g>
<g id="Lens_12_">
	<g>
		<path style="fill:#666666;" d="M60,18c-2.209,0-14,5.791-14,8v12c0,2.209,11.791,8.001,14,8.001s4-1.792,4-4V22
			C64,19.791,62.209,18,60,18z"/>
	</g>
</g>
<g id="Lens_13_">
	<g>
		<path style="fill-rule:evenodd;clip-rule:evenodd;fill:#4D4D4D;" d="M62,18h-2v2v24v2.001h2c1.104,0,2-0.896,2-2.001V20
			C64,18.896,63.104,18,62,18z"/>
	</g>
</g>
<g id="Body_26_">
	<g>
		<path style="fill:#4D4D4D;" d="M44,12H4c-2.209,0-4,1.791-4,4v32.001C0,50.209,1.791,52,4,52h40c2.209,0,4-1.791,4-3.999V16
			C48,13.791,46.209,12,44,12z"/>
	</g>
</g>
<g id="Cassette_Tray_3_">
	<g>
		<path style="fill:#333333;" d="M38,28H10c-1.104,0-2,0.896-2,2v12.001C8,43.104,8.896,44,10,44h28c1.104,0,2-0.896,2-1.999V30
			C40,28.896,39.104,28,38,28z"/>
	</g>
</g>
<g id="Cassette_2_">
	<g>
		<path style="fill:#999999;" d="M30,34H18c-1.104,0-2,0.896-2,2.001C16,37.104,16.896,38,18,38h12c1.104,0,2-0.896,2-1.999
			C32,34.896,31.104,34,30,34z"/>
	</g>
</g>
<g id="BTNs_2_">
	<g>
		<path style="fill-rule:evenodd;clip-rule:evenodd;fill:#808080;" d="M18,18c-1.104,0-2,0.896-2,2s0.896,2,2,2s2-0.896,2-2
			S19.104,18,18,18z M26,18c-1.104,0-2,0.896-2,2s0.896,2,2,2s2-0.896,2-2S27.104,18,26,18z"/>
	</g>
</g>
<g id="Rec_LED_2_">
	<g>
		<circle style="fill:#ED7161;" cx="10" cy="20" r="2"/>
	</g>
</g>
<g>
</g>
<g>
</g>
<g>
</g>
<g>
</g>
<g>
</g>
<g>
</g>
<g>
</g>
<g>
</g>
<g>
</g>
<g>
</g>
<g>
</g>
<g>
</g>
<g>
</g>
<g>
</g>
<g>
</g>
</svg>
