<?xml version="1.0" encoding="iso-8859-1"?>
<!-- Generator: Adobe Illustrator 16.0.0, SVG Export Plug-In . SVG Version: 6.00 Build 0)  -->
<!DOCTYPE svg PUBLIC "-//W3C//DTD SVG 1.1//EN" "http://www.w3.org/Graphics/SVG/1.1/DTD/svg11.dtd">
<svg version="1.1" id="Layer_1" xmlns="http://www.w3.org/2000/svg" xmlns:xlink="http://www.w3.org/1999/xlink" x="0px" y="0px"
	 width="64px" height="60px" viewBox="0 0 64 60" style="enable-background:new 0 0 64 60;" xml:space="preserve">
<g id="Body_29_">
	<g>
		<path style="fill:#CCCCCC;" d="M26,18H8c-2.209,0-4,1.791-4,4.001V56c0,2.21,1.791,4,4,4h18c2.209,0,4-1.79,4-4V22.001
			C30,19.791,28.209,18,26,18z"/>
	</g>
</g>
<g id="Rec_LED_4_">
	<g>
		<circle style="fill:#ED7161;" cx="10" cy="44" r="2"/>
	</g>
</g>
<g id="Speaker">
	<g>
		<path style="fill:#A7A7A7;" d="M24,52H10c-1.104,0-2,0.896-2,2.001c0,1.104,0.896,2,2,2h14c1.105,0,2-0.896,2-2
			C26,52.896,25.105,52,24,52z"/>
	</g>
</g>
<g id="Lens_Frame_1_">
	<g>
		<circle style="fill:#999999;" cx="18" cy="18" r="18"/>
	</g>
</g>
<g id="Lens_17_">
	<g>
		<circle style="fill:#4D4D4D;" cx="18" cy="18" r="14.021"/>
	</g>
</g>
<g id="Lens_18_">
	<g>
		<circle style="fill:#1A1A1A;" cx="18" cy="18.001" r="4.006"/>
	</g>
</g>
<g id="Arm_1_">
	<g>
		<rect x="30" y="52" style="fill:#A6A6A6;" width="4" height="4.001"/>
	</g>
</g>
<g id="Display_7_">
	<g>
		<path style="fill:#CCCCCC;" d="M60,34.001H38c-2.209,0-4,1.79-4,3.999v18c0,2.21,1.791,4,4,4h22C62.209,60,64,58.21,64,56V38
			C64,35.791,62.209,34.001,60,34.001z"/>
	</g>
</g>
<g>
</g>
<g>
</g>
<g>
</g>
<g>
</g>
<g>
</g>
<g>
</g>
<g>
</g>
<g>
</g>
<g>
</g>
<g>
</g>
<g>
</g>
<g>
</g>
<g>
</g>
<g>
</g>
<g>
</g>
</svg>
