<?xml version="1.0" encoding="iso-8859-1"?>
<!-- Generator: Adobe Illustrator 16.0.0, SVG Export Plug-In . SVG Version: 6.00 Build 0)  -->
<!DOCTYPE svg PUBLIC "-//W3C//DTD SVG 1.1//EN" "http://www.w3.org/Graphics/SVG/1.1/DTD/svg11.dtd">
<svg version="1.1" id="Layer_1" xmlns="http://www.w3.org/2000/svg" xmlns:xlink="http://www.w3.org/1999/xlink" x="0px" y="0px"
	 width="64px" height="46.001px" viewBox="0 0 64 46.001" style="enable-background:new 0 0 64 46.001;" xml:space="preserve">
<g id="Lens_7_">
	<g>
		<path style="fill-rule:evenodd;clip-rule:evenodd;fill:#4D4D4D;" d="M60,20c-1.278,0-5.761,1.938-9.314,4H44v12h6.686
			c3.554,2.062,8.036,4,9.314,4c2.209,0,4-1.791,4-4V24C64,21.791,62.209,20,60,20z"/>
	</g>
</g>
<g id="Shape_17_">
	<g>
		<path style="fill-rule:evenodd;clip-rule:evenodd;fill:#808080;" d="M40,2H12c-1.104,0-2,0.896-2,2v4c0,1.104,0.896,2,2,2
			s2-0.896,2-2V6.001h26c1.104,0,2-0.896,2-2.001S41.104,2,40,2z"/>
	</g>
</g>
<g id="Microphone">
	<g>
		<path style="fill:#333333;" d="M38,0h-4c-2.209,0-4,1.791-4,4s1.791,4,4,4h4c2.209,0,4-1.791,4-4S40.209,0,38,0z"/>
	</g>
</g>
<g id="Shape_18_">
	<g>
		<path style="fill-rule:evenodd;clip-rule:evenodd;fill:#4D4D4D;" d="M16,8c-0.563-1.104-0.896-1.999-2-1.999h-4
			c-1.104,0-1.563,1.02-2,1.999l-2,4v6h12v-6L16,8z"/>
	</g>
</g>
<g id="Lens_8_">
	<g>
		<path style="fill-rule:evenodd;clip-rule:evenodd;fill:#333333;" d="M62,20h-2v2v16v2h2c1.104,0,2-0.896,2-2V22
			C64,20.896,63.104,20,62,20z"/>
	</g>
</g>
<g id="Body_24_">
	<g>
		<path style="fill:#666666;" d="M44,14H4c-2.209,0-4,1.791-4,4v24c0,2.209,1.791,4,4,4h40c2.209,0,4-1.791,4-4V18
			C48,15.791,46.209,14,44,14z"/>
	</g>
</g>
<g id="Cassette_Tray_4_">
	<g>
		<path style="fill-rule:evenodd;clip-rule:evenodd;fill:#808080;" d="M42,26H6c-1.104,0-2,0.896-2,2v8v4.001v6h40v-6V36v-8
			C44,26.896,43.104,26,42,26z"/>
	</g>
</g>
<g id="Cassette_Tray_2_">
	<g>
		<rect x="8" y="30.001" style="fill:#999999;" width="32" height="11.999"/>
	</g>
</g>
<g id="Cassette_1_">
	<g>
		<path style="fill:#4D4D4D;" d="M34,34H14c-1.105,0-2,0.896-2,2s0.895,2,2,2h20c1.104,0,2-0.896,2-2S35.104,34,34,34z"/>
	</g>
</g>
<g id="Rec_LED_1_">
	<g>
		<circle style="fill:#ED7161;" cx="42" cy="20" r="2"/>
	</g>
</g>
<g>
</g>
<g>
</g>
<g>
</g>
<g>
</g>
<g>
</g>
<g>
</g>
<g>
</g>
<g>
</g>
<g>
</g>
<g>
</g>
<g>
</g>
<g>
</g>
<g>
</g>
<g>
</g>
<g>
</g>
</svg>
