<?xml version="1.0" encoding="iso-8859-1"?>
<!-- Generator: Adobe Illustrator 16.0.0, SVG Export Plug-In . SVG Version: 6.00 Build 0)  -->
<!DOCTYPE svg PUBLIC "-//W3C//DTD SVG 1.1//EN" "http://www.w3.org/Graphics/SVG/1.1/DTD/svg11.dtd">
<svg version="1.1" id="Layer_1" xmlns="http://www.w3.org/2000/svg" xmlns:xlink="http://www.w3.org/1999/xlink" x="0px" y="0px"
	 width="64px" height="41.999px" viewBox="0 0 64 41.999" style="enable-background:new 0 0 64 41.999;" xml:space="preserve">
<g id="Lens_5_">
	<g>
		<path style="fill-rule:evenodd;clip-rule:evenodd;fill:#4D4D4D;" d="M60,15.999c-1.278,0-5.762,1.938-9.315,4H44v12h6.686
			c3.554,2.062,8.036,4,9.314,4c2.209,0,4-1.791,4-4v-12C64,17.79,62.209,15.999,60,15.999z"/>
	</g>
</g>
<g id="Shape_15_">
	<g>
		<path style="fill:#999999;" d="M46,1.999H18c-1.104,0-2,0.896-2,2s0.896,2,2,2h28c1.104,0,2-0.896,2-2S47.104,1.999,46,1.999z"/>
	</g>
</g>
<g id="Micropphone">
	<g>
		<path style="fill:#333333;" d="M52,0H40c-2.209,0-4,1.79-4,3.999s1.791,4,4,4h12c2.209,0,4-1.791,4-4S54.209,0,52,0z"/>
	</g>
</g>
<g id="Lens_6_">
	<g>
		<path style="fill-rule:evenodd;clip-rule:evenodd;fill:#333333;" d="M62,15.999h-2v2v16v2h2c1.104,0,2-0.896,2-2v-16
			C64,16.895,63.104,15.999,62,15.999z"/>
	</g>
</g>
<g id="Body_23_">
	<g>
		<path style="fill-rule:evenodd;clip-rule:evenodd;fill:#666666;" d="M44,9.999H28v-2v-2V4V2h-2h-2h-4H4H2C0.896,2,0,2.895,0,4
			v1.999v4v4v2V38c0,2.208,1.791,3.999,4,3.999h40c2.209,0,4-1.791,4-3.999V13.999C48,11.79,46.209,9.999,44,9.999z"/>
	</g>
</g>
<g id="Shape_16_">
	<g>
		<path style="fill-rule:evenodd;clip-rule:evenodd;fill:#808080;" d="M26,2h-6H2C0.896,2,0,2.895,0,4v3.999V10h2h24h2V7.999V4V2H26
			z"/>
	</g>
</g>
<g id="Cassette_Tray">
	<g>
		<path style="fill:#333333;" d="M30,26H6c-1.104,0-2,0.895-2,2v8c0,1.104,0.896,2,2,2h24c1.104,0,2-0.896,2-2v-8
			C32,26.895,31.104,26,30,26z"/>
	</g>
</g>
<g id="Cassette">
	<g>
		<path style="fill:#7A7A7A;" d="M26,29.999H10c-1.105,0-2,0.896-2,2s0.895,2,2,2h16c1.104,0,2-0.896,2-2S27.104,29.999,26,29.999z"
			/>
	</g>
</g>
<g id="LED_1_">
	<g>
		<circle style="fill:#999999;" cx="40" cy="36" r="2"/>
	</g>
</g>
<g id="Rec_LED">
	<g>
		<circle style="fill:#ED7161;" cx="40" cy="27.999" r="2"/>
	</g>
</g>
<g>
</g>
<g>
</g>
<g>
</g>
<g>
</g>
<g>
</g>
<g>
</g>
<g>
</g>
<g>
</g>
<g>
</g>
<g>
</g>
<g>
</g>
<g>
</g>
<g>
</g>
<g>
</g>
<g>
</g>
</svg>
