<?xml version="1.0" encoding="iso-8859-1"?>
<!-- Generator: Adobe Illustrator 16.0.0, SVG Export Plug-In . SVG Version: 6.00 Build 0)  -->
<!DOCTYPE svg PUBLIC "-//W3C//DTD SVG 1.1//EN" "http://www.w3.org/Graphics/SVG/1.1/DTD/svg11.dtd">
<svg version="1.1" id="Layer_1" xmlns="http://www.w3.org/2000/svg" xmlns:xlink="http://www.w3.org/1999/xlink" x="0px" y="0px"
	 width="64px" height="64px" viewBox="0 0 64 64" style="enable-background:new 0 0 64 64;" xml:space="preserve">
<g id="Body_18_">
	<g>
		<path style="fill:#4D4D4D;" d="M60,0H4C1.791,0,0,1.791,0,3.999V60c0,2.209,1.791,4,4,4h56c2.209,0,4-1.791,4-4V3.999
			C64,1.791,62.209,0,60,0z"/>
	</g>
</g>
<g id="Star">
	<g>
		<polygon style="fill:#FFCC66;" points="60,24 40,24 32,3.999 24,24 4,24 20,38 16,58 32,46 48,58 44,38 		"/>
	</g>
</g>
<g id="Star_1_">
	<g>
		<polygon style="fill:#D56455;" points="52,26 38,26 32,12 26,26 12,26 23.428,35.926 20.571,50 32,41.555 43.428,50 
			40.571,35.926 		"/>
	</g>
</g>
<g>
</g>
<g>
</g>
<g>
</g>
<g>
</g>
<g>
</g>
<g>
</g>
<g>
</g>
<g>
</g>
<g>
</g>
<g>
</g>
<g>
</g>
<g>
</g>
<g>
</g>
<g>
</g>
<g>
</g>
</svg>
