<?xml version="1.0" encoding="iso-8859-1"?>
<!-- Generator: Adobe Illustrator 16.0.0, SVG Export Plug-In . SVG Version: 6.00 Build 0)  -->
<!DOCTYPE svg PUBLIC "-//W3C//DTD SVG 1.1//EN" "http://www.w3.org/Graphics/SVG/1.1/DTD/svg11.dtd">
<svg version="1.1" id="Layer_1" xmlns="http://www.w3.org/2000/svg" xmlns:xlink="http://www.w3.org/1999/xlink" x="0px" y="0px"
	 width="66px" height="47.999px" viewBox="0 0 66 47.999" style="enable-background:new 0 0 66 47.999;" xml:space="preserve">
<g id="Body_35_">
	<g>
		<path style="fill-rule:evenodd;clip-rule:evenodd;fill:#666666;" d="M64,0H4C2.896,0,2,0.896,2,2v7.999h2c1.104,0,2,0.896,2,2.001
			c0,1.104-0.896,1.999-2,1.999H2V42c0-0.087,3.967,5.999,32,5.999c27.988,0,32-6.01,32-5.999V2C66,0.896,65.104,0,64,0z"/>
	</g>
</g>
<g id="Shape_28_">
	<g>
		<path style="fill:#4D4D4D;" d="M50,38H18c-1.104,0-2,0.895-2,2c0,1.104,0.896,2,2,2h32c1.104,0,2-0.896,2-2
			C52,38.895,51.104,38,50,38z"/>
	</g>
</g>
<g>
</g>
<g>
</g>
<g>
</g>
<g>
</g>
<g>
</g>
<g>
</g>
<g>
</g>
<g>
</g>
<g>
</g>
<g>
</g>
<g>
</g>
<g>
</g>
<g>
</g>
<g>
</g>
<g>
</g>
</svg>
