<?xml version="1.0" encoding="UTF-8" standalone="no"?>
<svg width="60px" height="51px" viewBox="0 0 60 51" version="1.1" xmlns="http://www.w3.org/2000/svg" xmlns:xlink="http://www.w3.org/1999/xlink" xmlns:sketch="http://www.bohemiancoding.com/sketch/ns">
    <!-- Generator: Sketch 3.2.2 (9983) - http://www.bohemiancoding.com/sketch -->
    <title>1 - Briefcase (Solid)</title>
    <desc>Created with Sketch.</desc>
    <defs></defs>
    <g id="Page-1" stroke="none" stroke-width="1" fill="none" fill-rule="evenodd" sketch:type="MSPage">
        <g id="1---Briefcase-(Solid)" sketch:type="MSLayerGroup" fill="#1A1718">
            <path d="M56.99,9 L55,9 L55,6 L45,6 L45,9 L41,9 L41,3.206 C41,1.438 39.562,0 37.794,0 L22.206,0 C20.438,0 19,1.438 19,3.206 L19,9 L15,9 L15,6 L5,6 L5,9 L3.01,9 C1.351,9 0,10.351 0,12.01 L0,47.99 C0,49.649 1.351,51 3.01,51 L56.99,51 C58.649,51 60,49.649 60,47.99 L60,12.01 C60,10.351 58.649,9 56.99,9 L56.99,9 Z M21,3.206 C21,2.541 21.541,2 22.206,2 L37.794,2 C38.459,2 39,2.541 39,3.206 L39,9 L21,9 L21,3.206 L21,3.206 Z M8,11 L10,11 L10,49 L8,49 L8,11 Z M50,11 L52,11 L52,49 L50,49 L50,11 Z" id="Fill-1348" sketch:type="MSShapeGroup"></path>
        </g>
    </g>
</svg>