<?xml version="1.0" encoding="UTF-8" standalone="no"?>
<svg width="52px" height="60px" viewBox="0 0 52 60" version="1.1" xmlns="http://www.w3.org/2000/svg" xmlns:xlink="http://www.w3.org/1999/xlink" xmlns:sketch="http://www.bohemiancoding.com/sketch/ns">
    <!-- Generator: Sketch 3.2.2 (9983) - http://www.bohemiancoding.com/sketch -->
    <title>10 - Phone Message (Solid)</title>
    <desc>Created with Sketch.</desc>
    <defs></defs>
    <g id="Page-1" stroke="none" stroke-width="1" fill="none" fill-rule="evenodd" sketch:type="MSPage">
        <g id="10---Phone-Message-(Solid)" sketch:type="MSLayerGroup" fill="#000000">
            <path d="M17,51 C15.897,51 15,51.897 15,53 C15,54.102 15.897,55 17,55 C18.103,55 19,54.102 19,53 C19,51.897 18.103,51 17,51" id="Fill-1332" sketch:type="MSShapeGroup"></path>
            <path d="M34,12 L34,4.406 C34,1.977 32.024,0 29.595,0 L4.405,0 C1.976,0 0,1.977 0,4.406 L0,55.595 C0,58.023 1.976,60 4.405,60 L29.595,60 C32.024,60 34,58.023 34,55.595 L34,33 L52,33 L52,12 L34,12 L34,12 Z M20,3 L21,3 C21.552,3 22,3.448 22,4 C22,4.553 21.552,5 21,5 L20,5 C19.448,5 19,4.553 19,4 C19,3.448 19.448,3 20,3 L20,3 Z M13,3 L17,3 C17.552,3 18,3.448 18,4 C18,4.553 17.552,5 17,5 L13,5 C12.448,5 12,4.553 12,4 C12,3.448 12.448,3 13,3 L13,3 Z M17,57 C14.794,57 13,55.206 13,53 C13,50.794 14.794,49 17,49 C19.206,49 21,50.794 21,53 C21,55.206 19.206,57 17,57 L17,57 Z M32,46 L2,46 L2,8 L32,8 L32,12 L14,12 L14,33 L18,33 L18,40 L27.334,33 L32,33 L32,46 L32,46 Z M32,20 C32,20.552 31.552,21 31,21 L21,21 C20.448,21 20,20.552 20,20 C20,19.447 20.448,19 21,19 L31,19 C31.552,19 32,19.447 32,20 L32,20 Z M45,26 L21,26 C20.448,26 20,25.553 20,25 C20,24.448 20.448,24 21,24 L45,24 C45.552,24 46,24.448 46,25 C46,25.553 45.552,26 45,26 L45,26 Z" id="Fill-1333" sketch:type="MSShapeGroup"></path>
        </g>
    </g>
</svg>