<?xml version="1.0" encoding="UTF-8" standalone="no"?>
<svg width="60px" height="60px" viewBox="0 0 60 60" version="1.1" xmlns="http://www.w3.org/2000/svg" xmlns:xlink="http://www.w3.org/1999/xlink" xmlns:sketch="http://www.bohemiancoding.com/sketch/ns">
    <!-- Generator: Sketch 3.2.2 (9983) - http://www.bohemiancoding.com/sketch -->
    <title>100 - Settings (Solid)</title>
    <desc>Created with Sketch.</desc>
    <defs></defs>
    <g id="Page-1" stroke="none" stroke-width="1" fill="none" fill-rule="evenodd" sketch:type="MSPage">
        <g id="100---Settings-(Solid)" sketch:type="MSLayerGroup" fill="#000000">
            <path d="M19,45 C21.206,45 23,43.206 23,41 C23,38.794 21.206,37 19,37 C16.794,37 15,38.794 15,41 C15,43.206 16.794,45 19,45 L19,45 Z M19,39 C20.103,39 21,39.898 21,41 C21,42.103 20.103,43 19,43 C17.897,43 17,42.103 17,41 C17,39.898 17.897,39 19,39 L19,39 Z" id="Fill-299" sketch:type="MSShapeGroup"></path>
            <path d="M44,12 C41.794,12 40,13.794 40,16 C40,18.206 41.794,20 44,20 C46.206,20 48,18.206 48,16 C48,13.794 46.206,12 44,12 L44,12 Z M44,18 C42.897,18 42,17.103 42,16 C42,14.897 42.897,14 44,14 C45.103,14 46,14.897 46,16 C46,17.103 45.103,18 44,18 L44,18 Z" id="Fill-300" sketch:type="MSShapeGroup"></path>
            <path d="M19,49 C23.411,49 27,45.411 27,41 C27,36.589 23.411,33 19,33 C14.589,33 11,36.589 11,41 C11,45.411 14.589,49 19,49 L19,49 Z M19,35 C22.309,35 25,37.691 25,41 C25,44.308 22.309,47 19,47 C15.691,47 13,44.308 13,41 C13,37.691 15.691,35 19,35 L19,35 Z" id="Fill-301" sketch:type="MSShapeGroup"></path>
            <path d="M35.529,24.491 L35.509,24.471 L35.515,24.485 L35.529,24.491" id="Fill-302" sketch:type="MSShapeGroup"></path>
            <path d="M35.516,7.546 L35.564,7.499 L35.515,7.515 L35.516,7.546" id="Fill-303" sketch:type="MSShapeGroup"></path>
            <path d="M52.503,24.434 L52.435,24.502 L52.485,24.485 L52.503,24.434" id="Fill-304" sketch:type="MSShapeGroup"></path>
            <path d="M57.649,18.36 L57.636,18.31 C56.476,15.569 54.898,13.026 52.994,10.758 C51.874,9.422 50.64,8.187 49.307,7.063 C47.023,5.134 44.457,3.536 41.69,2.364 L41.642,2.352 C38.061,0.838 34.127,0 30,0 C28.262,0 26.56,0.157 24.902,0.442 L24.894,0.442 L24.809,0.459 C24.404,0.53 24.001,0.607 23.602,0.694 L23.532,0.71 C21.941,1.061 20.398,1.54 18.911,2.133 C18.769,2.19 18.625,2.243 18.484,2.302 C18.264,2.394 18.048,2.492 17.83,2.589 C17.611,2.687 17.391,2.784 17.173,2.887 C17.002,2.968 16.833,3.054 16.663,3.138 L16.513,3.213 L16.472,3.225 L16.298,3.319 C16.156,3.391 16.016,3.467 15.875,3.542 C15.753,3.608 15.632,3.675 15.511,3.742 C15.37,3.82 15.226,3.895 15.086,3.976 C14.917,4.072 14.752,4.175 14.585,4.275 L14.336,4.426 C13.985,4.641 13.64,4.863 13.298,5.092 L13.2,5.158 C13.021,5.279 12.841,5.399 12.664,5.524 L12.603,5.569 C12.227,5.836 11.858,6.113 11.495,6.398 L11.461,6.424 L11.455,6.431 C9.811,7.724 8.293,9.19 6.937,10.818 L6.894,10.888 C2.591,16.082 0,22.744 0,30 C0,32.995 0.447,35.887 1.268,38.618 L1.269,38.64 L1.3,38.733 C1.466,39.277 1.645,39.816 1.84,40.347 C1.909,40.536 1.988,40.719 2.061,40.906 C2.182,41.216 2.304,41.525 2.435,41.829 C2.569,42.142 2.711,42.449 2.855,42.756 C2.922,42.899 2.99,43.042 3.06,43.183 C5.987,49.186 10.822,54.019 16.826,56.945 C16.961,57.011 17.096,57.075 17.231,57.14 C17.545,57.286 17.858,57.432 18.178,57.568 C18.468,57.693 18.762,57.808 19.057,57.924 C19.258,58.003 19.456,58.088 19.66,58.163 C20.185,58.356 20.718,58.532 21.257,58.697 L21.36,58.731 L21.398,58.737 C24.124,59.555 27.011,60 30,60 C34.995,60 39.705,58.766 43.852,56.598 L43.934,56.566 L44.147,56.446 C44.39,56.316 44.628,56.177 44.867,56.04 C45.091,55.912 45.318,55.788 45.538,55.654 C45.96,55.398 46.375,55.13 46.783,54.854 C46.958,54.736 47.126,54.609 47.298,54.488 C47.57,54.295 47.841,54.101 48.106,53.9 C48.255,53.786 48.401,53.669 48.548,53.553 C48.842,53.32 49.133,53.083 49.419,52.84 C49.526,52.749 49.631,52.657 49.737,52.565 C50.085,52.26 50.425,51.948 50.758,51.628 L50.876,51.515 C51.359,51.047 51.828,50.566 52.279,50.067 L52.33,50.029 C54.552,47.554 56.324,44.762 57.614,41.72 C57.661,41.61 57.703,41.498 57.749,41.388 C57.856,41.126 57.967,40.865 58.067,40.599 L58.072,40.568 C58.508,39.416 58.871,38.23 59.163,37.016 L59.187,36.913 C59.307,36.406 59.414,35.894 59.508,35.378 L59.524,35.298 L59.525,35.28 C59.831,33.565 60,31.802 60,30 C60,25.874 59.162,21.941 57.649,18.36 L57.649,18.36 Z M29,15 L32.043,15 C32.257,12.473 33.276,10.136 34.854,8.269 L32.687,6.101 C32.296,5.71 32.296,5.077 32.687,4.687 C33.077,4.296 33.71,4.296 34.101,4.687 L36.267,6.853 C37.662,5.668 39.329,4.784 41.184,4.338 C43.132,5.19 44.966,6.254 46.654,7.507 L46.755,7.58 C47.029,7.785 47.297,8 47.564,8.216 L47.824,8.422 C48.024,8.588 48.218,8.762 48.413,8.933 C48.555,9.057 48.7,9.177 48.839,9.304 L49.058,9.512 C49.566,9.985 50.056,10.476 50.528,10.984 L50.694,11.159 C50.827,11.304 50.952,11.455 51.082,11.604 C51.248,11.793 51.417,11.981 51.577,12.175 L51.791,12.445 C52.004,12.708 52.216,12.972 52.419,13.244 L52.501,13.357 C53.751,15.042 54.812,16.873 55.663,18.817 C55.217,20.67 54.333,22.337 53.149,23.732 L55.314,25.9 C55.704,26.29 55.704,26.923 55.314,27.313 C55.118,27.509 54.862,27.606 54.606,27.606 C54.351,27.606 54.095,27.509 53.899,27.313 L51.733,25.144 C49.865,26.723 47.528,27.743 45,27.957 L45,31 C45,31.553 44.552,32 44,32 C43.448,32 43,31.553 43,31 L43,27.949 C40.442,27.737 38.11,26.723 36.257,25.153 L34.101,27.313 C33.905,27.509 33.649,27.606 33.394,27.606 C33.138,27.606 32.882,27.509 32.687,27.313 C32.296,26.923 32.296,26.29 32.687,25.9 L34.844,23.739 C33.276,21.887 32.263,19.557 32.051,17 L29,17 C28.448,17 28,16.553 28,16 C28,15.447 28.448,15 29,15 L29,15 Z M13.01,7.772 L13.25,7.585 C13.651,7.284 14.065,7.001 14.483,6.722 C14.686,6.587 14.885,6.446 15.092,6.316 L15.172,6.265 C15.594,6 16.028,5.757 16.463,5.516 C16.655,5.41 16.842,5.296 17.036,5.194 C18.208,5.623 19,6.73 19,8 C19,9.654 17.654,11 16,11 C14.346,11 13,9.654 13,8 L13.01,7.772 L13.01,7.772 Z M8.352,15.013 C9.029,14.012 9.203,12.804 8.86,11.67 C8.96,11.556 9.058,11.439 9.159,11.325 C9.415,11.04 9.677,10.763 9.943,10.49 C10.218,10.207 10.5,9.932 10.787,9.661 C10.919,9.535 11.055,9.414 11.19,9.292 C11.764,11.42 13.693,13 16,13 C18.757,13 21,10.757 21,8 C21,6.473 20.307,5.096 19.193,4.173 C19.805,3.917 20.428,3.685 21.058,3.473 L21.253,3.407 C21.903,3.193 22.561,3 23.228,2.834 C23.071,3.579 23.131,4.364 23.42,5.102 C23.921,6.376 25.023,7.292 26.368,7.551 L27,7.672 L27,8.758 L26.333,8.86 C24.98,9.068 23.845,9.941 23.297,11.196 C22.749,12.452 22.88,13.879 23.648,15.013 L24.01,15.547 L23.242,16.314 L23.065,16.183 C22.377,15.679 21.567,15.412 20.726,15.412 C18.746,15.412 17.091,16.829 16.791,18.782 L16.757,19 L15.672,19 L15.55,18.368 C15.191,16.499 13.547,15.143 11.641,15.143 C10.799,15.143 9.99,15.41 9.302,15.914 L8.757,16.314 L7.99,15.547 L8.352,15.013 L8.352,15.013 Z M37.914,49.406 C37.748,49.778 37.383,50 37,50 C36.864,50 36.726,49.973 36.594,49.914 L33.188,48.409 C31.882,50.92 29.913,53.025 27.501,54.531 L28.65,56.302 C28.951,56.766 28.819,57.385 28.356,57.685 C28.188,57.795 27.999,57.847 27.812,57.847 C27.485,57.847 27.165,57.687 26.973,57.392 L25.736,55.488 C24.481,56.065 23.141,56.506 21.717,56.749 L21.71,56.747 C21.217,56.594 20.732,56.425 20.252,56.247 C20.027,56.163 19.806,56.072 19.584,55.983 C19.354,55.891 19.125,55.797 18.898,55.7 C18.601,55.57 18.306,55.438 18.013,55.299 C17.906,55.248 17.8,55.195 17.694,55.144 C12.123,52.406 7.591,47.873 4.854,42.302 C4.804,42.198 4.752,42.094 4.702,41.989 C4.563,41.696 4.429,41.399 4.3,41.1 C4.202,40.874 4.109,40.645 4.017,40.415 C3.928,40.194 3.837,39.973 3.754,39.749 C3.575,39.268 3.405,38.782 3.253,38.288 L3.251,38.283 C3.522,36.695 4.022,35.202 4.706,33.828 L2.294,32.435 C1.815,32.158 1.651,31.547 1.927,31.068 C2.203,30.591 2.813,30.425 3.294,30.702 L5.707,32.095 C7.334,29.654 9.605,27.709 12.27,26.481 L11.068,23.362 C10.868,22.848 11.123,22.268 11.638,22.068 C12.151,21.866 12.732,22.123 12.932,22.638 L14.138,25.765 C15.675,25.277 17.304,25 19,25 C20.963,25 22.837,25.373 24.576,26.023 C24.779,25.541 24.937,25.18 24.987,25.066 L26.086,22.594 C26.312,22.09 26.901,21.863 27.406,22.086 C27.911,22.311 28.138,22.901 27.914,23.406 L26.815,25.879 C26.776,25.968 26.581,26.313 26.306,26.782 C29.471,28.416 32.008,31.081 33.509,34.32 L36.638,33.068 C37.155,32.865 37.732,33.123 37.932,33.638 C38.132,34.152 37.877,34.731 37.362,34.932 L34.236,36.182 C34.721,37.705 35,39.318 35,41 C35,42.961 34.625,44.831 33.979,46.571 L37.406,48.086 C37.911,48.31 38.138,48.901 37.914,49.406 L37.914,49.406 Z M55.381,41.789 L55.327,41.904 C54.334,44.001 53.081,45.968 51.61,47.76 C51.213,47.08 51,46.306 51,45.5 C51,43.019 53.019,41 55.5,41 L55.726,41.006 C55.613,41.268 55.501,41.531 55.381,41.789 L55.381,41.789 Z M56.476,39.073 C56.154,39.025 55.828,39 55.5,39 C51.916,39 49,41.916 49,45.5 C49,46.886 49.44,48.205 50.242,49.308 C49.887,49.681 49.525,50.047 49.149,50.4 L49.04,50.505 C48.79,50.738 48.533,50.964 48.274,51.188 C48.175,51.273 48.079,51.36 47.979,51.444 C47.775,51.615 47.567,51.78 47.358,51.946 C47.198,52.073 47.04,52.201 46.877,52.324 C46.718,52.445 46.554,52.562 46.391,52.68 C46.24,52.79 46.087,52.899 45.933,53.006 C46.148,52.047 46.058,51.032 45.65,50.097 C45,48.606 43.653,47.569 42.046,47.322 L41,47.161 L41,45.384 L41.994,45.193 C43.59,44.886 44.898,43.799 45.492,42.285 C46.086,40.772 45.867,39.086 44.905,37.774 L44.279,36.922 L45.536,35.664 L46.817,36.533 C47.604,37.065 48.515,37.348 49.452,37.348 C51.713,37.348 53.665,35.737 54.091,33.52 L54.384,32 L56.161,32 L56.322,33.046 C56.463,33.961 56.852,34.785 57.459,35.46 C57.215,36.69 56.882,37.896 56.476,39.073 L56.476,39.073 Z" id="Fill-305" sketch:type="MSShapeGroup"></path>
            <path d="M33.91,35.222 L33.898,35.193 L33.9,35.205 L33.91,35.222" id="Fill-306" sketch:type="MSShapeGroup"></path>
        </g>
    </g>
</svg>