<?xml version="1.0" encoding="UTF-8" standalone="no"?>
<svg width="53px" height="53px" viewBox="0 0 53 53" version="1.1" xmlns="http://www.w3.org/2000/svg" xmlns:xlink="http://www.w3.org/1999/xlink" xmlns:sketch="http://www.bohemiancoding.com/sketch/ns">
    <!-- Generator: Sketch 3.2.2 (9983) - http://www.bohemiancoding.com/sketch -->
    <title>101 - Pin (Solid)</title>
    <desc>Created with Sketch.</desc>
    <defs></defs>
    <g id="Page-1" stroke="none" stroke-width="1" fill="none" fill-rule="evenodd" sketch:type="MSPage">
        <g id="101---Pin-(Solid)" sketch:type="MSLayerGroup" fill="#161819">
            <path d="M52.937,21.298 C52.868,20.969 52.64,20.695 52.327,20.571 C49.575,19.475 46.657,18.918 43.654,18.918 C38.974,18.918 35.361,20.256 33.967,20.86 L19.087,8.201 C19.606,3.633 17.143,0.509 17.033,0.373 C16.854,0.151 16.591,0.017 16.308,0.001 C16.025,-0.005 15.747,0.092 15.547,0.293 L0.293,15.547 C0.091,15.748 -0.015,16.026 0.002,16.312 C0.018,16.596 0.155,16.86 0.378,17.037 C2.559,18.768 5.221,19.131 7.069,19.131 C7.481,19.131 7.833,19.112 8.103,19.091 L20.824,34.045 C19.956,36.276 17.305,44.315 20.518,52.382 C20.642,52.694 20.915,52.923 21.244,52.991 L21.446,53.012 C21.709,53.012 21.964,52.908 22.153,52.719 L36.723,38.149 L50.293,51.719 C50.488,51.914 50.744,52.012 51,52.012 C51.256,52.012 51.512,51.914 51.707,51.719 C52.098,51.328 52.098,50.695 51.707,50.305 L38.137,36.735 L52.664,22.207 C52.902,21.97 53.004,21.628 52.937,21.298" id="Fill-352" sketch:type="MSShapeGroup"></path>
        </g>
    </g>
</svg>