<?xml version="1.0" encoding="UTF-8" standalone="no"?>
<svg width="49px" height="60px" viewBox="0 0 49 60" version="1.1" xmlns="http://www.w3.org/2000/svg" xmlns:xlink="http://www.w3.org/1999/xlink" xmlns:sketch="http://www.bohemiancoding.com/sketch/ns">
    <!-- Generator: Sketch 3.2.2 (9983) - http://www.bohemiancoding.com/sketch -->
    <title>103 - Privacy (Solid)</title>
    <desc>Created with Sketch.</desc>
    <defs></defs>
    <g id="Page-1" stroke="none" stroke-width="1" fill="none" fill-rule="evenodd" sketch:type="MSPage">
        <g id="103---Privacy-(Solid)" sketch:type="MSLayerGroup" fill="#000000">
            <path d="M48.049,27.12 C47.618,26.398 46.894,26 45.996,26 C44.329,26.006 42.323,26.667 40.761,27.724 C39.319,28.698 37.231,30.506 35.468,33.587 C35.137,34.165 34.594,34.557 34.013,34.651 C34.011,34.517 34.012,34.363 34.012,34.22 C34.012,33.91 34.013,33.542 34,33.136 L34,11 C34,8.794 32.206,7 30,7 C27.794,7 26,8.794 26,11 L26,26.5 C26,26.775 25.775,27 25.5,27 C25.225,27 25,26.775 25,26.5 L25,4 C25,1.794 23.206,0 21,0 C18.794,0 17,1.794 17,4 L17,26.5 C17,26.775 16.775,27 16.5,27 C16.225,27 16,26.775 16,26.5 L16,8.5 C16,6.57 14.43,5 12.5,5 C10.57,5 9,6.57 9,8.5 L9,28.5 C9,28.775 8.775,29 8.5,29 C8.225,29 8,28.775 8,28.5 L8,16 C8,14.07 6.43,12.5 4.49,12.5 C2.561,12.5 0.99,14.07 0.99,16 L0.992,43.197 C1.96,57.181 10.537,59.067 18.8,59.067 C25.646,59.067 31.795,55.67 34.827,50.242 C35.217,49.612 36.273,47.954 37.523,45.988 C40.651,41.075 43.271,36.947 43.658,36.213 C44.521,34.579 45.484,33.302 46.442,32.52 C47.31,31.812 47.84,30.908 48.271,30.115 C48.492,29.704 48.686,28.189 48.049,27.12 L48.049,27.12 Z M33.78,34.718 L33.742,35.668 L33.654,34.669 L33.78,34.718 L33.78,34.718 Z" id="Fill-351" sketch:type="MSShapeGroup"></path>
        </g>
    </g>
</svg>