<?xml version="1.0" encoding="UTF-8" standalone="no"?>
<svg width="51px" height="54px" viewBox="0 0 51 54" version="1.1" xmlns="http://www.w3.org/2000/svg" xmlns:xlink="http://www.w3.org/1999/xlink" xmlns:sketch="http://www.bohemiancoding.com/sketch/ns">
    <!-- Generator: Sketch 3.2.2 (9983) - http://www.bohemiancoding.com/sketch -->
    <title>104 - Attach (Solid)</title>
    <desc>Created with Sketch.</desc>
    <defs></defs>
    <g id="Page-1" stroke="none" stroke-width="1" fill="none" fill-rule="evenodd" sketch:type="MSPage">
        <g id="104---Attach-(Solid)" sketch:type="MSLayerGroup" fill="#1A1718">
            <path d="M13.684,53.5 C10.148,53.5 6.835,52.132 4.352,49.648 C1.868,47.165 0.5,43.852 0.5,40.316 C0.5,36.782 1.868,33.469 4.352,30.985 L31.646,3.691 C35.551,-0.212 41.618,-0.036 45.76,4.104 C49.9,8.245 50.079,14.312 46.174,18.219 L20.533,43.859 C18.126,46.267 14.206,46.271 11.795,43.859 C9.386,41.449 9.387,37.529 11.795,35.121 L29.164,17.752 C29.75,17.166 30.699,17.166 31.285,17.752 C31.871,18.338 31.871,19.287 31.285,19.873 L13.916,37.242 C12.677,38.481 12.677,40.498 13.916,41.738 C15.157,42.978 17.173,42.976 18.412,41.738 L44.053,16.098 C46.748,13.401 46.57,9.157 43.639,6.226 C40.707,3.294 36.463,3.116 33.767,5.813 L6.473,33.106 C4.556,35.023 3.5,37.584 3.5,40.316 C3.5,43.05 4.556,45.61 6.473,47.527 C8.39,49.444 10.95,50.5 13.684,50.5 C16.416,50.5 18.977,49.444 20.894,47.527 L48.187,20.233 C48.773,19.647 49.723,19.647 50.309,20.233 C50.895,20.819 50.895,21.769 50.309,22.354 L23.015,49.648 C20.531,52.132 17.218,53.5 13.684,53.5" id="Fill-1131" sketch:type="MSShapeGroup"></path>
        </g>
    </g>
</svg>