<?xml version="1.0" encoding="UTF-8" standalone="no"?>
<svg width="57px" height="59px" viewBox="0 0 57 59" version="1.1" xmlns="http://www.w3.org/2000/svg" xmlns:xlink="http://www.w3.org/1999/xlink" xmlns:sketch="http://www.bohemiancoding.com/sketch/ns">
    <!-- Generator: Sketch 3.2.2 (9983) - http://www.bohemiancoding.com/sketch -->
    <title>105 - Fingerprint (Solid)</title>
    <desc>Created with Sketch.</desc>
    <defs></defs>
    <g id="Page-1" stroke="none" stroke-width="1" fill="none" fill-rule="evenodd" sketch:type="MSPage">
        <g id="105---Fingerprint-(Solid)" sketch:type="MSLayerGroup" fill="#000000">
            <path d="M55.995,31.902 C55.518,27.016 54.604,20.374 52.956,16.48 C48.721,6.47 38.961,0.001 28.091,0.001 C24.504,0.001 21.006,0.702 17.695,2.084 C16.747,2.479 15.818,2.917 14.935,3.385 C13.655,4.062 12.359,4.931 10.972,6.042 C4.807,10.979 1.002,18.12 0.534,25.636 C0.254,30.13 0.901,35.058 2.477,40.343 C2.851,41.364 4.628,46.561 8.997,51.213 C8.984,44.834 8.921,37.929 8.623,35.895 C8.464,34.812 8.168,33.726 7.879,32.705 C4.985,22.495 10.199,11.712 20.006,7.621 C22.82,6.446 25.799,5.896 28.858,6.015 C36.852,6.301 45.566,13.05 48.284,21.059 C50.253,26.859 50.485,43.24 50.323,53.583 L50.34,53.566 C57.37,45.753 56.054,32.457 55.995,31.902" id="Fill-1119" sketch:type="MSShapeGroup"></path>
            <path d="M46.307,21.701 C43.876,14.536 35.815,8.268 28.704,8.013 C25.951,7.921 23.24,8.404 20.692,9.467 C11.819,13.168 7.102,22.924 9.72,32.16 C10.027,33.244 10.343,34.402 10.518,35.605 C10.867,37.983 10.911,46.047 10.916,53.123 C12.357,54.363 14.013,55.506 15.916,56.448 C15.915,53.502 15.914,50.182 15.912,49.996 C15.8,39.031 13.886,32.067 13.866,31.996 C12.044,25.264 14.281,18.317 19.432,14.701 C19.883,14.383 20.508,14.493 20.824,14.945 C21.141,15.396 21.032,16.021 20.58,16.338 C16.117,19.472 14.193,25.551 15.794,31.465 C15.876,31.759 17.802,38.769 17.912,49.999 C17.914,50.202 17.916,54.202 17.916,57.323 C19.156,57.8 20.489,58.188 21.916,58.473 C21.898,46.667 21.269,32.089 20.526,29.833 C19.143,25.634 21.035,21.243 24.927,19.619 C25.91,19.209 26.946,19.001 28.008,19.001 C31.229,19.001 34.12,20.918 35.375,23.884 C37.369,28.602 37.954,36.87 38.095,42.977 C38.107,43.529 37.67,43.987 37.118,44 L37.095,44 C36.553,44 36.107,43.568 36.095,43.024 C35.959,37.09 35.404,29.09 33.537,24.671 C32.592,22.439 30.423,21.001 28.008,21.001 C27.212,21.001 26.435,21.157 25.696,21.465 C22.779,22.682 21.373,26.011 22.427,29.208 C23.341,31.988 23.91,48.09 23.917,58.799 C24.958,58.925 26.048,58.992 27.185,59 L29.065,59 C29.574,39.1 27.072,27.368 27.046,27.278 C26.893,26.747 27.198,26.193 27.729,26.039 C28.262,25.889 28.814,26.191 28.968,26.722 C29.077,27.104 31.584,38.831 31.067,59 L36.018,59 C36.032,56.843 35.996,52.464 35.964,51.029 C35.937,49.843 35.912,48.745 35.917,47.993 C35.921,47.443 36.368,47 36.917,47 L36.924,47 C37.477,47.004 37.921,47.454 37.917,48.007 C37.912,48.744 37.937,49.821 37.963,50.983 C37.996,52.421 38.032,56.728 38.018,58.954 C39.443,58.89 40.792,58.703 42.061,58.391 C42.555,42.851 42.328,27.484 39.979,21.936 C37.94,17.115 33.241,14.001 28.008,14.001 C27.066,14.001 26.129,14.103 25.222,14.303 C24.675,14.415 24.148,14.081 24.029,13.542 C23.91,13.002 24.251,12.469 24.79,12.35 C25.839,12.118 26.921,12.001 28.008,12.001 C34.047,12.001 39.469,15.595 41.821,21.156 C44.293,26.996 44.568,41.893 44.081,57.771 C45.589,57.199 46.963,56.422 48.205,55.451 C48.421,45.513 48.305,27.587 46.307,21.701" id="Fill-1120" sketch:type="MSShapeGroup"></path>
        </g>
    </g>
</svg>