<?xml version="1.0" encoding="UTF-8" standalone="no"?>
<svg width="60px" height="54px" viewBox="0 0 60 54" version="1.1" xmlns="http://www.w3.org/2000/svg" xmlns:xlink="http://www.w3.org/1999/xlink" xmlns:sketch="http://www.bohemiancoding.com/sketch/ns">
    <!-- Generator: Sketch 3.2.2 (9983) - http://www.bohemiancoding.com/sketch -->
    <title>106 - Magnet (Solid)</title>
    <desc>Created with Sketch.</desc>
    <defs></defs>
    <g id="Page-1" stroke="none" stroke-width="1" fill="none" fill-rule="evenodd" sketch:type="MSPage">
        <g id="106---Magnet-(Solid)" sketch:type="MSLayerGroup" fill="#1A1718">
            <path d="M27,16 L60,16 L60,0 L27,0 C12.112,0 0,12.112 0,27 C0,41.888 12.112,54 27,54 L60,54 L60,38 L27,38 C20.935,38 16,33.066 16,27 C16,20.935 20.935,16 27,16 L27,16 Z M46,2 L58,2 L58,14 L46,14 L46,2 Z M46,40 L58,40 L58,52 L46,52 L46,40 Z" id="Fill-348" sketch:type="MSShapeGroup"></path>
            <path d="M49,9 L51,9 L51,11 C51,11.553 51.447,12 52,12 C52.553,12 53,11.553 53,11 L53,9 L55,9 C55.553,9 56,8.553 56,8 C56,7.447 55.553,7 55,7 L53,7 L53,5 C53,4.447 52.553,4 52,4 C51.447,4 51,4.447 51,5 L51,7 L49,7 C48.447,7 48,7.447 48,8 C48,8.553 48.447,9 49,9" id="Fill-349" sketch:type="MSShapeGroup"></path>
            <path d="M49,47 L55,47 C55.553,47 56,46.553 56,46 C56,45.447 55.553,45 55,45 L49,45 C48.447,45 48,45.447 48,46 C48,46.553 48.447,47 49,47" id="Fill-350" sketch:type="MSShapeGroup"></path>
        </g>
    </g>
</svg>