<?xml version="1.0" encoding="UTF-8" standalone="no"?>
<svg width="60px" height="54px" viewBox="0 0 60 54" version="1.1" xmlns="http://www.w3.org/2000/svg" xmlns:xlink="http://www.w3.org/1999/xlink" xmlns:sketch="http://www.bohemiancoding.com/sketch/ns">
    <!-- Generator: Sketch 3.2.2 (9983) - http://www.bohemiancoding.com/sketch -->
    <title>107 - Magnet (Solid)</title>
    <desc>Created with Sketch.</desc>
    <defs></defs>
    <g id="Page-1" stroke="none" stroke-width="1" fill="none" fill-rule="evenodd" sketch:type="MSPage">
        <g id="107---Magnet-(Solid)" sketch:type="MSLayerGroup" fill="#1A1718">
            <path d="M54,5 L55,5 C55.552,5 56,4.553 56,4 C56,3.447 55.552,3 55,3 L54,3 C53.448,3 53,3.447 53,4 C53,4.553 53.448,5 54,5" id="Fill-1099" sketch:type="MSShapeGroup"></path>
            <path d="M50,5 L51,5 C51.552,5 52,4.553 52,4 C52,3.447 51.552,3 51,3 L50,3 C49.448,3 49,3.447 49,4 C49,4.553 49.448,5 50,5" id="Fill-1100" sketch:type="MSShapeGroup"></path>
            <path d="M58,5 L59,5 C59.552,5 60,4.553 60,4 C60,3.447 59.552,3 59,3 L58,3 C57.448,3 57,3.447 57,4 C57,4.553 57.448,5 58,5" id="Fill-1101" sketch:type="MSShapeGroup"></path>
            <path d="M55,11 L54,11 C53.448,11 53,11.447 53,12 C53,12.553 53.448,13 54,13 L55,13 C55.552,13 56,12.553 56,12 C56,11.447 55.552,11 55,11" id="Fill-1102" sketch:type="MSShapeGroup"></path>
            <path d="M50,13 L51,13 C51.552,13 52,12.553 52,12 C52,11.447 51.552,11 51,11 L50,11 C49.448,11 49,11.447 49,12 C49,12.553 49.448,13 50,13" id="Fill-1103" sketch:type="MSShapeGroup"></path>
            <path d="M59,11 L58,11 C57.448,11 57,11.447 57,12 C57,12.553 57.448,13 58,13 L59,13 C59.552,13 60,12.553 60,12 C60,11.447 59.552,11 59,11" id="Fill-1104" sketch:type="MSShapeGroup"></path>
            <path d="M51,8 C51,8.553 51.448,9 52,9 L53,9 C53.552,9 54,8.553 54,8 C54,7.447 53.552,7 53,7 L52,7 C51.448,7 51,7.447 51,8" id="Fill-1105" sketch:type="MSShapeGroup"></path>
            <path d="M55,8 C55,8.553 55.448,9 56,9 L57,9 C57.552,9 58,8.553 58,8 C58,7.447 57.552,7 57,7 L56,7 C55.448,7 55,7.447 55,8" id="Fill-1106" sketch:type="MSShapeGroup"></path>
            <path d="M55,42 L54,42 C53.448,42 53,42.447 53,43 C53,43.553 53.448,44 54,44 L55,44 C55.552,44 56,43.553 56,43 C56,42.447 55.552,42 55,42" id="Fill-1107" sketch:type="MSShapeGroup"></path>
            <path d="M50,44 L51,44 C51.552,44 52,43.553 52,43 C52,42.447 51.552,42 51,42 L50,42 C49.448,42 49,42.447 49,43 C49,43.553 49.448,44 50,44" id="Fill-1108" sketch:type="MSShapeGroup"></path>
            <path d="M59,42 L58,42 C57.448,42 57,42.447 57,43 C57,43.553 57.448,44 58,44 L59,44 C59.552,44 60,43.553 60,43 C60,42.447 59.552,42 59,42" id="Fill-1109" sketch:type="MSShapeGroup"></path>
            <path d="M55,50 L54,50 C53.448,50 53,50.447 53,51 C53,51.553 53.448,52 54,52 L55,52 C55.552,52 56,51.553 56,51 C56,50.447 55.552,50 55,50" id="Fill-1110" sketch:type="MSShapeGroup"></path>
            <path d="M51,50 L50,50 C49.448,50 49,50.447 49,51 C49,51.553 49.448,52 50,52 L51,52 C51.552,52 52,51.553 52,51 C52,50.447 51.552,50 51,50" id="Fill-1111" sketch:type="MSShapeGroup"></path>
            <path d="M59,50 L58,50 C57.448,50 57,50.447 57,51 C57,51.553 57.448,52 58,52 L59,52 C59.552,52 60,51.553 60,51 C60,50.447 59.552,50 59,50" id="Fill-1112" sketch:type="MSShapeGroup"></path>
            <path d="M54,47 C54,46.447 53.552,46 53,46 L52,46 C51.448,46 51,46.447 51,47 C51,47.553 51.448,48 52,48 L53,48 C53.552,48 54,47.553 54,47" id="Fill-1113" sketch:type="MSShapeGroup"></path>
            <path d="M58,47 C58,46.447 57.552,46 57,46 L56,46 C55.448,46 55,46.447 55,47 C55,47.553 55.448,48 56,48 L57,48 C57.552,48 58,47.553 58,47" id="Fill-1114" sketch:type="MSShapeGroup"></path>
            <path d="M37,0 L27,0 C12.112,0 0,12.112 0,27 C0,41.888 12.112,54 27,54 L48,54 L48,38 L27,38 C20.935,38 16,33.066 16,27 C16,20.935 20.935,16 27,16 L48,16 L48,0 L37,0 L37,0 Z M39,40 L46,40 L46,52 L39,52 L39,40 Z M39,2 L46,2 L46,14 L39,14 L39,2 Z" id="Fill-1115" sketch:type="MSShapeGroup"></path>
        </g>
    </g>
</svg>