<?xml version="1.0" encoding="UTF-8" standalone="no"?>
<svg width="60px" height="54px" viewBox="0 0 60 54" version="1.1" xmlns="http://www.w3.org/2000/svg" xmlns:xlink="http://www.w3.org/1999/xlink" xmlns:sketch="http://www.bohemiancoding.com/sketch/ns">
    <!-- Generator: Sketch 3.2.2 (9983) - http://www.bohemiancoding.com/sketch -->
    <title>108 - Magnet (Solid)</title>
    <desc>Created with Sketch.</desc>
    <defs></defs>
    <g id="Page-1" stroke="none" stroke-width="1" fill="none" fill-rule="evenodd" sketch:type="MSPage">
        <g id="108---Magnet-(Solid)" sketch:type="MSLayerGroup" fill="#1A1718">
            <path d="M42,38 L27,38 C20.935,38 16,33.066 16,27 C16,20.935 20.935,16 27,16 L42,16 L42,0 L27,0 C12.112,0 0,12.112 0,27 C0,41.888 12.112,54 27,54 L42,54 L42,38" id="Fill-1116" sketch:type="MSShapeGroup"></path>
            <path d="M46,38 L60,38 L60,54 L46,54 L46,38 Z" id="Fill-1117" sketch:type="MSShapeGroup"></path>
            <path d="M46,0 L60,0 L60,16 L46,16 L46,0 Z" id="Fill-1118" sketch:type="MSShapeGroup"></path>
        </g>
    </g>
</svg>