<?xml version="1.0" encoding="UTF-8" standalone="no"?>
<svg width="58px" height="58px" viewBox="0 0 58 58" version="1.1" xmlns="http://www.w3.org/2000/svg" xmlns:xlink="http://www.w3.org/1999/xlink" xmlns:sketch="http://www.bohemiancoding.com/sketch/ns">
    <!-- Generator: Sketch 3.2.2 (9983) - http://www.bohemiancoding.com/sketch -->
    <title>109 - Help (Solid)</title>
    <desc>Created with Sketch.</desc>
    <defs></defs>
    <g id="Page-1" stroke="none" stroke-width="1" fill="none" fill-rule="evenodd" sketch:type="MSPage">
        <g id="109---Help-(Solid)" sketch:type="MSLayerGroup" fill="#1A1718">
            <path d="M56.925,21.196 L56.924,21.18 L56.914,21.159 C56.297,18.965 55.416,16.883 54.328,14.932 C54.506,15.096 54.739,15.201 55,15.201 C55.552,15.201 56,14.754 56,14.201 L56,13.225 C56,12.672 55.552,12.225 55,12.225 C54.448,12.225 54,12.672 54,13.225 L54,14.201 L54.034,14.369 C53.883,14.113 53.73,13.856 53.571,13.604 L53.479,13.508 C52.858,12.53 52.181,11.592 51.451,10.698 L51.384,10.572 C51.185,10.331 50.983,10.094 50.777,9.859 L50.712,9.811 C49.92,8.915 49.073,8.067 48.177,7.275 L48.132,7.217 C47.898,7.012 47.661,6.81 47.42,6.612 L47.301,6.549 C46.405,5.817 45.466,5.139 44.486,4.517 L44.389,4.425 C44.136,4.267 43.881,4.112 43.624,3.962 L43.811,4 L44.789,4 C45.341,4 45.789,3.553 45.789,3 C45.789,2.447 45.341,2 44.789,2 L43.811,2 C43.259,2 42.812,2.447 42.812,3 C42.812,3.266 42.919,3.504 43.088,3.683 C41.13,2.589 39.041,1.704 36.838,1.085 L36.821,1.077 L36.808,1.077 C34.322,0.38 31.705,0 29,0 C26.295,0 23.678,0.38 21.192,1.077 L21.179,1.077 L21.162,1.085 C18.967,1.702 16.884,2.583 14.932,3.672 C15.096,3.494 15.201,3.261 15.201,3 C15.201,2.447 14.753,2 14.201,2 L13.224,2 C12.672,2 12.224,2.447 12.224,3 C12.224,3.553 12.672,4 13.224,4 L14.201,4 L14.37,3.966 C14.112,4.117 13.857,4.271 13.604,4.43 L13.508,4.521 C12.529,5.143 11.59,5.82 10.695,6.551 L10.574,6.616 C10.333,6.814 10.095,7.017 9.86,7.224 L9.815,7.283 C8.918,8.076 8.07,8.924 7.277,9.821 L7.218,9.866 C7.012,10.101 6.81,10.338 6.611,10.579 L6.546,10.702 C5.816,11.596 5.14,12.534 4.519,13.512 L4.425,13.61 C4.267,13.863 4.113,14.118 3.962,14.376 L4,14.189 L4,13.212 C4,12.659 3.552,12.212 3,12.212 C2.448,12.212 2,12.659 2,13.212 L2,14.189 C2,14.741 2.448,15.188 3,15.188 C3.266,15.188 3.504,15.081 3.683,14.912 C2.59,16.869 1.705,18.958 1.086,21.159 L1.076,21.18 L1.075,21.196 C0.38,23.681 0,26.296 0,29 C0,31.704 0.38,34.319 1.075,36.804 L1.076,36.82 L1.087,36.845 C1.704,39.038 2.585,41.118 3.672,43.068 C3.494,42.904 3.261,42.799 3,42.799 C2.448,42.799 2,43.246 2,43.799 L2,44.776 C2,45.328 2.448,45.775 3,45.775 C3.552,45.775 4,45.328 4,44.776 L4,43.799 L3.966,43.632 C4.117,43.888 4.27,44.144 4.429,44.396 L4.563,44.557 C5.173,45.512 5.835,46.428 6.549,47.302 L6.616,47.428 C6.815,47.669 7.017,47.906 7.223,48.141 L7.282,48.184 C8.076,49.082 8.925,49.931 9.823,50.724 L9.868,50.783 C10.102,50.988 10.339,51.191 10.58,51.388 L10.713,51.464 C11.605,52.19 12.54,52.864 13.514,53.483 L13.611,53.575 C13.864,53.734 14.119,53.888 14.376,54.038 L14.189,54 L13.211,54 C12.659,54 12.211,54.447 12.211,55 C12.211,55.553 12.659,56 13.211,56 L14.189,56 C14.741,56 15.189,55.553 15.189,55 C15.189,54.734 15.081,54.496 14.912,54.317 C16.87,55.411 18.959,56.296 21.162,56.915 L21.179,56.923 L21.199,56.925 C23.683,57.62 26.297,58 29,58 C31.703,58 34.317,57.62 36.801,56.925 L36.821,56.923 L36.838,56.915 C39.033,56.298 41.116,55.417 43.068,54.328 C42.904,54.506 42.799,54.739 42.799,55 C42.799,55.553 43.247,56 43.799,56 L44.776,56 C45.328,56 45.776,55.553 45.776,55 C45.776,54.447 45.328,54 44.776,54 L43.799,54 L43.63,54.034 C43.888,53.884 44.143,53.729 44.396,53.57 L44.492,53.479 C45.466,52.861 46.399,52.188 47.289,51.461 L47.426,51.384 C47.668,51.186 47.905,50.983 48.14,50.776 L48.185,50.716 C49.084,49.922 49.933,49.073 50.728,48.173 L50.782,48.134 C50.988,47.899 51.19,47.662 51.389,47.421 L51.454,47.298 C52.168,46.423 52.831,45.507 53.44,44.553 L53.575,44.39 C53.733,44.137 53.887,43.882 54.038,43.625 L54,43.812 L54,44.788 C54,45.341 54.448,45.788 55,45.788 C55.552,45.788 56,45.341 56,44.788 L56,43.812 C56,43.259 55.552,42.812 55,42.812 C54.734,42.812 54.496,42.919 54.317,43.088 C55.409,41.133 56.294,39.045 56.913,36.845 L56.924,36.82 L56.925,36.804 C57.62,34.319 58,31.704 58,29 C58,26.296 57.62,23.681 56.925,21.196 L56.925,21.196 Z M29,2 C31.194,2 33.325,2.27 35.368,2.766 L32.591,13.875 C31.436,13.601 30.238,13.44 29,13.44 C27.762,13.44 26.564,13.601 25.409,13.875 L22.632,2.766 C24.675,2.27 26.806,2 29,2 L29,2 Z M2,29 C2,26.806 2.269,24.675 2.766,22.632 L13.875,25.409 C13.601,26.564 13.44,27.762 13.44,29 C13.44,30.238 13.601,31.436 13.875,32.591 L2.766,35.368 C2.269,33.325 2,31.194 2,29 L2,29 Z M29,56 C26.806,56 24.675,55.73 22.632,55.234 L25.409,44.125 C26.564,44.399 27.762,44.56 29,44.56 C30.238,44.56 31.436,44.399 32.591,44.125 L35.368,55.234 C33.325,55.73 31.194,56 29,56 L29,56 Z M29,42.56 C21.523,42.56 15.44,36.476 15.44,29 C15.44,21.523 21.523,15.44 29,15.44 C36.477,15.44 42.56,21.523 42.56,29 C42.56,36.476 36.477,42.56 29,42.56 L29,42.56 Z M55.234,35.368 L44.125,32.591 C44.399,31.436 44.56,30.238 44.56,29 C44.56,27.762 44.399,26.564 44.125,25.409 L55.234,22.632 C55.731,24.675 56,26.806 56,29 C56,31.194 55.731,33.325 55.234,35.368 L55.234,35.368 Z" id="Fill-281" sketch:type="MSShapeGroup"></path>
            <path d="M3.958,5.639 C4.25,5.639 4.54,5.511 4.737,5.266 C4.897,5.067 5.076,4.888 5.272,4.732 C5.704,4.388 5.775,3.759 5.431,3.327 C5.086,2.895 4.457,2.824 4.025,3.168 C3.715,3.416 3.43,3.699 3.179,4.012 C2.833,4.442 2.901,5.072 3.332,5.418 C3.516,5.566 3.737,5.639 3.958,5.639" id="Fill-282" sketch:type="MSShapeGroup"></path>
            <path d="M8.339,4 L9.316,4 C9.868,4 10.316,3.553 10.316,3 C10.316,2.447 9.868,2 9.316,2 L8.339,2 C7.787,2 7.339,2.447 7.339,3 C7.339,3.553 7.787,4 8.339,4" id="Fill-283" sketch:type="MSShapeGroup"></path>
            <path d="M3,10.304 C3.552,10.304 4,9.856 4,9.304 L4,8.326 C4,7.773 3.552,7.326 3,7.326 C2.448,7.326 2,7.773 2,8.326 L2,9.304 C2,9.856 2.448,10.304 3,10.304" id="Fill-284" sketch:type="MSShapeGroup"></path>
            <path d="M48.696,4 L49.673,4 C50.226,4 50.673,3.553 50.673,3 C50.673,2.447 50.226,2 49.673,2 L48.696,2 C48.144,2 47.696,2.447 47.696,3 C47.696,3.553 48.144,4 48.696,4" id="Fill-285" sketch:type="MSShapeGroup"></path>
            <path d="M53.268,5.271 C53.465,5.52 53.756,5.648 54.05,5.648 C54.269,5.648 54.489,5.577 54.673,5.431 C55.105,5.086 55.176,4.457 54.832,4.025 C54.584,3.714 54.299,3.429 53.987,3.178 C53.558,2.834 52.928,2.901 52.582,3.332 C52.236,3.763 52.305,4.393 52.735,4.738 C52.932,4.896 53.111,5.075 53.268,5.271" id="Fill-286" sketch:type="MSShapeGroup"></path>
            <path d="M54,8.339 L54,9.316 C54,9.869 54.448,10.316 55,10.316 C55.552,10.316 56,9.869 56,9.316 L56,8.339 C56,7.786 55.552,7.339 55,7.339 C54.448,7.339 54,7.786 54,8.339" id="Fill-287" sketch:type="MSShapeGroup"></path>
            <path d="M55,47.696 C54.448,47.696 54,48.144 54,48.696 L54,49.674 C54,50.227 54.448,50.674 55,50.674 C55.552,50.674 56,50.227 56,49.674 L56,48.696 C56,48.144 55.552,47.696 55,47.696" id="Fill-288" sketch:type="MSShapeGroup"></path>
            <path d="M49.661,54 L48.684,54 C48.132,54 47.684,54.447 47.684,55 C47.684,55.553 48.132,56 48.684,56 L49.661,56 C50.213,56 50.661,55.553 50.661,55 C50.661,54.447 50.213,54 49.661,54" id="Fill-289" sketch:type="MSShapeGroup"></path>
            <path d="M53.263,52.734 C53.104,52.933 52.924,53.112 52.729,53.268 C52.296,53.612 52.225,54.241 52.569,54.673 C52.767,54.921 53.058,55.05 53.352,55.05 C53.571,55.05 53.791,54.979 53.975,54.832 C54.285,54.584 54.57,54.301 54.821,53.988 C55.168,53.558 55.099,52.928 54.669,52.582 C54.239,52.237 53.609,52.306 53.263,52.734" id="Fill-290" sketch:type="MSShapeGroup"></path>
            <path d="M9.304,54 L8.327,54 C7.774,54 7.327,54.447 7.327,55 C7.327,55.553 7.774,56 8.327,56 L9.304,56 C9.856,56 10.304,55.553 10.304,55 C10.304,54.447 9.856,54 9.304,54" id="Fill-291" sketch:type="MSShapeGroup"></path>
            <path d="M4,49.661 L4,48.684 C4,48.131 3.552,47.684 3,47.684 C2.448,47.684 2,48.131 2,48.684 L2,49.661 C2,50.214 2.448,50.661 3,50.661 C3.552,50.661 4,50.214 4,49.661" id="Fill-292" sketch:type="MSShapeGroup"></path>
            <path d="M4.732,52.729 C4.388,52.296 3.758,52.226 3.327,52.569 C2.895,52.914 2.824,53.543 3.168,53.975 C3.417,54.286 3.701,54.571 4.013,54.822 C4.197,54.97 4.419,55.042 4.638,55.042 C4.931,55.042 5.221,54.914 5.419,54.668 C5.764,54.237 5.695,53.607 5.265,53.262 C5.068,53.104 4.889,52.925 4.732,52.729" id="Fill-293" sketch:type="MSShapeGroup"></path>
        </g>
    </g>
</svg>