<?xml version="1.0" encoding="UTF-8" standalone="no"?>
<svg width="34px" height="60px" viewBox="0 0 34 60" version="1.1" xmlns="http://www.w3.org/2000/svg" xmlns:xlink="http://www.w3.org/1999/xlink" xmlns:sketch="http://www.bohemiancoding.com/sketch/ns">
    <!-- Generator: Sketch 3.2.2 (9983) - http://www.bohemiancoding.com/sketch -->
    <title>11 - Phone Chat (Solid)</title>
    <desc>Created with Sketch.</desc>
    <defs></defs>
    <g id="Page-1" stroke="none" stroke-width="1" fill="none" fill-rule="evenodd" sketch:type="MSPage">
        <g id="11---Phone-Chat-(Solid)" sketch:type="MSLayerGroup" fill="#000000">
            <path d="M25,21 C27.757,21 30,18.757 30,16 C30,13.243 27.757,11 25,11 L9,11 C6.243,11 4,13.243 4,16 L4,26.414 L9.414,21 L25,21" id="Fill-1321" sketch:type="MSShapeGroup"></path>
            <path d="M9,38 L24.586,38 L30,43.414 L30,33 C30,30.243 27.757,28 25,28 L9,28 C6.243,28 4,30.243 4,33 C4,35.757 6.243,38 9,38" id="Fill-1322" sketch:type="MSShapeGroup"></path>
            <path d="M17,51 C15.897,51 15,51.897 15,53 C15,54.102 15.897,55 17,55 C18.103,55 19,54.102 19,53 C19,51.897 18.103,51 17,51" id="Fill-1323" sketch:type="MSShapeGroup"></path>
            <path d="M29.595,0 L4.405,0 C1.976,0 0,1.977 0,4.406 L0,55.595 C0,58.023 1.976,60 4.405,60 L29.595,60 C32.024,60 34,58.023 34,55.595 L34,4.406 C34,1.977 32.024,0 29.595,0 L29.595,0 Z M20,3 L21,3 C21.552,3 22,3.447 22,4 C22,4.553 21.552,5 21,5 L20,5 C19.448,5 19,4.553 19,4 C19,3.447 19.448,3 20,3 L20,3 Z M13,3 L17,3 C17.552,3 18,3.447 18,4 C18,4.553 17.552,5 17,5 L13,5 C12.448,5 12,4.553 12,4 C12,3.447 12.448,3 13,3 L13,3 Z M17,57 C14.794,57 13,55.206 13,53 C13,50.794 14.794,49 17,49 C19.206,49 21,50.794 21,53 C21,55.206 19.206,57 17,57 L17,57 Z M2,8 L32,8 L32,46 L2,46 L2,8 Z" id="Fill-1324" sketch:type="MSShapeGroup"></path>
        </g>
    </g>
</svg>