<?xml version="1.0" encoding="UTF-8" standalone="no"?>
<svg width="50px" height="59px" viewBox="0 0 50 59" version="1.1" xmlns="http://www.w3.org/2000/svg" xmlns:xlink="http://www.w3.org/1999/xlink" xmlns:sketch="http://www.bohemiancoding.com/sketch/ns">
    <!-- Generator: Sketch 3.2.2 (9983) - http://www.bohemiancoding.com/sketch -->
    <title>110 - Safety (Solid)</title>
    <desc>Created with Sketch.</desc>
    <defs></defs>
    <g id="Page-1" stroke="none" stroke-width="1" fill="none" fill-rule="evenodd" sketch:type="MSPage">
        <g id="110---Safety-(Solid)" sketch:type="MSLayerGroup" fill="#000000">
            <path d="M26,3.025 L26,1 C26,0.447 25.552,0 25,0 C24.448,0 24,0.447 24,1 L24,3.025 C10.863,3.552 0.19,14.388 0.002,27.64 C-0.001,27.907 0.138,28.254 0.326,28.444 C0.763,28.886 1.561,28.865 1.974,28.401 C3.355,26.853 5.14,26 7,26 C8.962,26 10.82,26.937 12.23,28.639 C12.42,28.867 12.702,29 13,29 C13.298,29 13.58,28.867 13.77,28.639 C15.18,26.937 17.038,26 19,26 C20.86,26 22.62,26.85 24,28.386 L24,54 C24,55.654 22.654,57 21,57 C19.346,57 18,55.654 18,54 C18,53.447 17.552,53 17,53 C16.448,53 16,53.447 16,54 C16,56.757 18.243,59 21,59 C23.757,59 26,56.757 26,54 L26,28.386 C27.38,26.85 29.14,26 31,26 C32.962,26 34.82,26.937 36.23,28.639 C36.42,28.867 36.702,29 37,29 C37.298,29 37.58,28.867 37.77,28.639 C39.18,26.937 41.038,26 43,26 C44.86,26 46.645,26.853 48.025,28.4 C48.441,28.867 49.238,28.887 49.674,28.444 C49.862,28.254 50.002,27.906 49.998,27.638 C49.81,14.388 39.137,3.552 26,3.025" id="Fill-280" sketch:type="MSShapeGroup"></path>
        </g>
    </g>
</svg>