<?xml version="1.0" encoding="UTF-8" standalone="no"?>
<svg width="60px" height="54px" viewBox="0 0 60 54" version="1.1" xmlns="http://www.w3.org/2000/svg" xmlns:xlink="http://www.w3.org/1999/xlink" xmlns:sketch="http://www.bohemiancoding.com/sketch/ns">
    <!-- Generator: Sketch 3.2.2 (9983) - http://www.bohemiancoding.com/sketch -->
    <title>111 - Controls (Solid)</title>
    <desc>Created with Sketch.</desc>
    <defs></defs>
    <g id="Page-1" stroke="none" stroke-width="1" fill="none" fill-rule="evenodd" sketch:type="MSPage">
        <g id="111---Controls-(Solid)" sketch:type="MSLayerGroup" fill="#000000">
            <path d="M7,1 C7,0.447 6.553,0 6,0 C5.447,0 5,0.447 5,1 L5,36 L0,36 L0,50 L5,50 L5,53 C5,53.553 5.447,54 6,54 C6.553,54 7,53.553 7,53 L7,50 L12,50 L12,36 L7,36 L7,1 L7,1 Z M7,46 L5,46 C4.447,46 4,45.553 4,45 C4,44.447 4.447,44 5,44 L7,44 C7.553,44 8,44.447 8,45 C8,45.553 7.553,46 7,46 L7,46 Z M8,41 C8,41.553 7.553,42 7,42 L5,42 C4.447,42 4,41.553 4,41 C4,40.447 4.447,40 5,40 L7,40 C7.553,40 8,40.447 8,41 L8,41 Z" id="Fill-320" sketch:type="MSShapeGroup"></path>
            <path d="M23,1 C23,0.447 22.553,0 22,0 C21.447,0 21,0.447 21,1 L21,26 L16,26 L16,40 L21,40 L21,53 C21,53.553 21.447,54 22,54 C22.553,54 23,53.553 23,53 L23,40 L28,40 L28,26 L23,26 L23,1 L23,1 Z M23,36 L21,36 C20.447,36 20,35.553 20,35 C20,34.447 20.447,34 21,34 L23,34 C23.553,34 24,34.447 24,35 C24,35.553 23.553,36 23,36 L23,36 Z M24,31 C24,31.553 23.553,32 23,32 L21,32 C20.447,32 20,31.553 20,31 C20,30.447 20.447,30 21,30 L23,30 C23.553,30 24,30.447 24,31 L24,31 Z" id="Fill-321" sketch:type="MSShapeGroup"></path>
            <path d="M39,1 C39,0.447 38.553,0 38,0 C37.447,0 37,0.447 37,1 L37,16 L32,16 L32,30 L37,30 L37,53 C37,53.553 37.447,54 38,54 C38.553,54 39,53.553 39,53 L39,30 L44,30 L44,16 L39,16 L39,1 L39,1 Z M39,26 L37,26 C36.447,26 36,25.553 36,25 C36,24.447 36.447,24 37,24 L39,24 C39.553,24 40,24.447 40,25 C40,25.553 39.553,26 39,26 L39,26 Z M40,21 C40,21.553 39.553,22 39,22 L37,22 C36.447,22 36,21.553 36,21 C36,20.447 36.447,20 37,20 L39,20 C39.553,20 40,20.447 40,21 L40,21 Z" id="Fill-322" sketch:type="MSShapeGroup"></path>
            <path d="M60,4 L55,4 L55,1 C55,0.447 54.553,0 54,0 C53.447,0 53,0.447 53,1 L53,4 L48,4 L48,18 L53,18 L53,53 C53,53.553 53.447,54 54,54 C54.553,54 55,53.553 55,53 L55,18 L60,18 L60,4 L60,4 Z M55,14 L53,14 C52.447,14 52,13.553 52,13 C52,12.447 52.447,12 53,12 L55,12 C55.553,12 56,12.447 56,13 C56,13.553 55.553,14 55,14 L55,14 Z M55,10 L53,10 C52.447,10 52,9.553 52,9 C52,8.447 52.447,8 53,8 L55,8 C55.553,8 56,8.447 56,9 C56,9.553 55.553,10 55,10 L55,10 Z" id="Fill-323" sketch:type="MSShapeGroup"></path>
        </g>
    </g>
</svg>