<?xml version="1.0" encoding="UTF-8" standalone="no"?>
<svg width="59px" height="54px" viewBox="0 0 59 54" version="1.1" xmlns="http://www.w3.org/2000/svg" xmlns:xlink="http://www.w3.org/1999/xlink" xmlns:sketch="http://www.bohemiancoding.com/sketch/ns">
    <!-- Generator: Sketch 3.2.2 (9983) - http://www.bohemiancoding.com/sketch -->
    <title>112 - Controls (Solid)</title>
    <desc>Created with Sketch.</desc>
    <defs></defs>
    <g id="Page-1" stroke="none" stroke-width="1" fill="none" fill-rule="evenodd" sketch:type="MSPage">
        <g id="112---Controls-(Solid)" sketch:type="MSLayerGroup" fill="#000000">
            <path d="M38,16.08 L38,1 C38,0.447 37.553,0 37,0 C36.447,0 36,0.447 36,1 L36,16.08 C32.614,16.568 30,19.481 30,23 C30,26.519 32.614,29.432 36,29.92 L36,53 C36,53.553 36.447,54 37,54 C37.553,54 38,53.553 38,53 L38,29.92 C41.386,29.432 44,26.519 44,23 C44,19.481 41.386,16.568 38,16.08 L38,16.08 Z M38,26 L36,26 C35.447,26 35,25.553 35,25 C35,24.447 35.447,24 36,24 L38,24 C38.553,24 39,24.447 39,25 C39,25.553 38.553,26 38,26 L38,26 Z M38,22 L36,22 C35.447,22 35,21.553 35,21 C35,20.447 35.447,20 36,20 L38,20 C38.553,20 39,20.447 39,21 C39,21.553 38.553,22 38,22 L38,22 Z" id="Fill-316" sketch:type="MSShapeGroup"></path>
            <path d="M23,28.08 L23,1 C23,0.447 22.553,0 22,0 C21.447,0 21,0.447 21,1 L21,28.08 C17.614,28.568 15,31.481 15,35 C15,38.519 17.614,41.432 21,41.92 L21,53 C21,53.553 21.447,54 22,54 C22.553,54 23,53.553 23,53 L23,41.92 C26.386,41.432 29,38.519 29,35 C29,31.481 26.386,28.568 23,28.08 L23,28.08 Z M23,38 L21,38 C20.447,38 20,37.553 20,37 C20,36.447 20.447,36 21,36 L23,36 C23.553,36 24,36.447 24,37 C24,37.553 23.553,38 23,38 L23,38 Z M23,34 L21,34 C20.447,34 20,33.553 20,33 C20,32.447 20.447,32 21,32 L23,32 C23.553,32 24,32.447 24,33 C24,33.553 23.553,34 23,34 L23,34 Z" id="Fill-317" sketch:type="MSShapeGroup"></path>
            <path d="M8,40.08 L8,1 C8,0.447 7.553,0 7,0 C6.447,0 6,0.447 6,1 L6,40.08 C2.614,40.568 0,43.481 0,47 C0,50.859 3.141,54 7,54 C10.859,54 14,50.859 14,47 C14,43.481 11.386,40.568 8,40.08 L8,40.08 Z M8,50 L6,50 C5.447,50 5,49.553 5,49 C5,48.447 5.447,48 6,48 L8,48 C8.553,48 9,48.447 9,49 C9,49.553 8.553,50 8,50 L8,50 Z M8,46 L6,46 C5.447,46 5,45.553 5,45 C5,44.447 5.447,44 6,44 L8,44 C8.553,44 9,44.447 9,45 C9,45.553 8.553,46 8,46 L8,46 Z" id="Fill-318" sketch:type="MSShapeGroup"></path>
            <path d="M59,11 C59,7.481 56.386,4.568 53,4.08 L53,1 C53,0.447 52.553,0 52,0 C51.447,0 51,0.447 51,1 L51,4.08 C47.614,4.568 45,7.481 45,11 C45,14.519 47.614,17.432 51,17.92 L51,53 C51,53.553 51.447,54 52,54 C52.553,54 53,53.553 53,53 L53,17.92 C56.386,17.432 59,14.519 59,11 L59,11 Z M53,14 L51,14 C50.447,14 50,13.553 50,13 C50,12.447 50.447,12 51,12 L53,12 C53.553,12 54,12.447 54,13 C54,13.553 53.553,14 53,14 L53,14 Z M53,10 L51,10 C50.447,10 50,9.553 50,9 C50,8.447 50.447,8 51,8 L53,8 C53.553,8 54,8.447 54,9 C54,9.553 53.553,10 53,10 L53,10 Z" id="Fill-319" sketch:type="MSShapeGroup"></path>
        </g>
    </g>
</svg>