<?xml version="1.0" encoding="UTF-8" standalone="no"?>
<svg width="60px" height="60px" viewBox="0 0 60 60" version="1.1" xmlns="http://www.w3.org/2000/svg" xmlns:xlink="http://www.w3.org/1999/xlink" xmlns:sketch="http://www.bohemiancoding.com/sketch/ns">
    <!-- Generator: Sketch 3.2.2 (9983) - http://www.bohemiancoding.com/sketch -->
    <title>113 - Controls (Solid)</title>
    <desc>Created with Sketch.</desc>
    <defs></defs>
    <g id="Page-1" stroke="none" stroke-width="1" fill="none" fill-rule="evenodd" sketch:type="MSPage">
        <g id="113---Controls-(Solid)" sketch:type="MSLayerGroup" fill="#000000">
            <path d="M0,1 L0,59 C0,59.552 0.447,60 1,60 L59,60 C59.553,60 60,59.552 60,59 L60,1 C60,0.448 59.553,0 59,0 L1,0 C0.447,0 0,0.448 0,1 L0,1 Z M50,43 C50.553,43 51,43.448 51,44 L51,48 L54,48 C54.553,48 55,48.448 55,49 C55,49.552 54.553,50 54,50 L51,50 L51,54 C51,54.552 50.553,55 50,55 L38,55 C37.447,55 37,54.552 37,54 L37,50 L6,50 C5.447,50 5,49.552 5,49 C5,48.448 5.447,48 6,48 L37,48 L37,44 C37,43.448 37.447,43 38,43 L50,43 L50,43 Z M36,24 C36.553,24 37,24.448 37,25 L37,29 L54,29 C54.553,29 55,29.448 55,30 C55,30.552 54.553,31 54,31 L37,31 L37,35 C37,35.552 36.553,36 36,36 L24,36 C23.447,36 23,35.552 23,35 L23,31 L6,31 C5.447,31 5,30.552 5,30 C5,29.448 5.447,29 6,29 L23,29 L23,25 C23,24.448 23.447,24 24,24 L36,24 L36,24 Z M22,5 C22.553,5 23,5.448 23,6 L23,10 L54,10 C54.553,10 55,10.448 55,11 C55,11.552 54.553,12 54,12 L23,12 L23,16 C23,16.552 22.553,17 22,17 L10,17 C9.447,17 9,16.552 9,16 L9,12 L6,12 C5.447,12 5,11.552 5,11 C5,10.448 5.447,10 6,10 L9,10 L9,6 C9,5.448 9.447,5 10,5 L22,5 L22,5 Z" id="Fill-1076" sketch:type="MSShapeGroup"></path>
        </g>
    </g>
</svg>