<?xml version="1.0" encoding="UTF-8" standalone="no"?>
<svg width="54px" height="50px" viewBox="0 0 54 50" version="1.1" xmlns="http://www.w3.org/2000/svg" xmlns:xlink="http://www.w3.org/1999/xlink" xmlns:sketch="http://www.bohemiancoding.com/sketch/ns">
    <!-- Generator: Sketch 3.2.2 (9983) - http://www.bohemiancoding.com/sketch -->
    <title>114 - Controls (Solid)</title>
    <desc>Created with Sketch.</desc>
    <defs></defs>
    <g id="Page-1" stroke="none" stroke-width="1" fill="none" fill-rule="evenodd" sketch:type="MSPage">
        <g id="114---Controls-(Solid)" sketch:type="MSLayerGroup" fill="#000000">
            <path d="M36,39 L36,43 L1,43 C0.447,43 0,43.448 0,44 C0,44.552 0.447,45 1,45 L36,45 L36,49 C36,49.552 36.447,50 37,50 L49,50 C49.553,50 50,49.552 50,49 L50,45 L53,45 C53.553,45 54,44.552 54,44 C54,43.448 53.553,43 53,43 L50,43 L50,39 C50,38.448 49.553,38 49,38 L37,38 C36.447,38 36,38.448 36,39" id="Fill-1073" sketch:type="MSShapeGroup"></path>
            <path d="M20,20 L20,24 L1,24 C0.447,24 0,24.448 0,25 C0,25.552 0.447,26 1,26 L20,26 L20,30 C20,30.552 20.447,31 21,31 L33,31 C33.553,31 34,30.552 34,30 L34,26 L53,26 C53.553,26 54,25.552 54,25 C54,24.448 53.553,24 53,24 L34,24 L34,20 C34,19.448 33.553,19 33,19 L21,19 C20.447,19 20,19.448 20,20" id="Fill-1074" sketch:type="MSShapeGroup"></path>
            <path d="M4,1 L4,5 L1,5 C0.447,5 0,5.448 0,6 C0,6.552 0.447,7 1,7 L4,7 L4,11 C4,11.552 4.447,12 5,12 L17,12 C17.553,12 18,11.552 18,11 L18,7 L53,7 C53.553,7 54,6.552 54,6 C54,5.448 53.553,5 53,5 L18,5 L18,1 C18,0.448 17.553,0 17,0 L5,0 C4.447,0 4,0.448 4,1" id="Fill-1075" sketch:type="MSShapeGroup"></path>
        </g>
    </g>
</svg>