<?xml version="1.0" encoding="UTF-8" standalone="no"?>
<svg width="60px" height="60px" viewBox="0 0 60 60" version="1.1" xmlns="http://www.w3.org/2000/svg" xmlns:xlink="http://www.w3.org/1999/xlink" xmlns:sketch="http://www.bohemiancoding.com/sketch/ns">
    <!-- Generator: Sketch 3.2.2 (9983) - http://www.bohemiancoding.com/sketch -->
    <title>115 - Controls (Solid)</title>
    <desc>Created with Sketch.</desc>
    <defs></defs>
    <g id="Page-1" stroke="none" stroke-width="1" fill="none" fill-rule="evenodd" sketch:type="MSPage">
        <g id="115---Controls-(Solid)" sketch:type="MSLayerGroup" fill="#000000">
            <path d="M0,1 L0,59 C0,59.552 0.447,60 1,60 L59,60 C59.553,60 60,59.552 60,59 L60,1 C60,0.448 59.553,0 59,0 L1,0 C0.447,0 0,0.448 0,1 L0,1 Z M53,48 C53,51.86 49.859,55 46,55 C42.481,55 39.568,52.387 39.08,49 L8,49 C7.447,49 7,48.552 7,48 C7,47.448 7.447,47 8,47 L39.08,47 C39.568,43.614 42.481,41 46,41 C49.859,41 53,44.14 53,48 L53,48 Z M35.92,29 L52,29 C52.553,29 53,29.448 53,30 C53,30.552 52.553,31 52,31 L35.92,31 C35.432,34.387 32.519,37 29,37 C25.481,37 22.568,34.386 22.08,31 L8,31 C7.447,31 7,30.552 7,30 C7,29.448 7.447,29 8,29 L22.08,29 C22.568,25.613 25.481,23 29,23 C32.519,23 35.432,25.614 35.92,29 L35.92,29 Z M20.92,11 L52,11 C52.553,11 53,11.448 53,12 C53,12.552 52.553,13 52,13 L20.92,13 C20.432,16.386 17.519,19 14,19 C10.141,19 7,15.86 7,12 C7,8.14 10.141,5 14,5 C17.519,5 20.432,7.613 20.92,11 L20.92,11 Z" id="Fill-1068" sketch:type="MSShapeGroup"></path>
        </g>
    </g>
</svg>