<?xml version="1.0" encoding="UTF-8" standalone="no"?>
<svg width="50px" height="54px" viewBox="0 0 50 54" version="1.1" xmlns="http://www.w3.org/2000/svg" xmlns:xlink="http://www.w3.org/1999/xlink" xmlns:sketch="http://www.bohemiancoding.com/sketch/ns">
    <!-- Generator: Sketch 3.2.2 (9983) - http://www.bohemiancoding.com/sketch -->
    <title>118 - Controls (Solid)</title>
    <desc>Created with Sketch.</desc>
    <defs></defs>
    <g id="Page-1" stroke="none" stroke-width="1" fill="none" fill-rule="evenodd" sketch:type="MSPage">
        <g id="118---Controls-(Solid)" sketch:type="MSLayerGroup" fill="#000000">
            <path d="M11,36 L7,36 L7,1 C7,0.447 6.552,0 6,0 C5.448,0 5,0.447 5,1 L5,36 L1,36 C0.448,36 0,36.447 0,37 L0,49 C0,49.553 0.448,50 1,50 L5,50 L5,53 C5,53.553 5.448,54 6,54 C6.552,54 7,53.553 7,53 L7,50 L11,50 C11.552,50 12,49.553 12,49 L12,37 C12,36.447 11.552,36 11,36" id="Fill-275" sketch:type="MSShapeGroup"></path>
            <path d="M30,20 L26,20 L26,1 C26,0.447 25.552,0 25,0 C24.448,0 24,0.447 24,1 L24,20 L20,20 C19.448,20 19,20.447 19,21 L19,33 C19,33.553 19.448,34 20,34 L24,34 L24,53 C24,53.553 24.448,54 25,54 C25.552,54 26,53.553 26,53 L26,34 L30,34 C30.552,34 31,33.553 31,33 L31,21 C31,20.447 30.552,20 30,20" id="Fill-276" sketch:type="MSShapeGroup"></path>
            <path d="M49,4 L45,4 L45,1 C45,0.447 44.552,0 44,0 C43.448,0 43,0.447 43,1 L43,4 L39,4 C38.448,4 38,4.447 38,5 L38,17 C38,17.553 38.448,18 39,18 L43,18 L43,53 C43,53.553 43.448,54 44,54 C44.552,54 45,53.553 45,53 L45,18 L49,18 C49.552,18 50,17.553 50,17 L50,5 C50,4.447 49.552,4 49,4" id="Fill-277" sketch:type="MSShapeGroup"></path>
        </g>
    </g>
</svg>