<?xml version="1.0" encoding="UTF-8" standalone="no"?>
<svg width="60px" height="60px" viewBox="0 0 60 60" version="1.1" xmlns="http://www.w3.org/2000/svg" xmlns:xlink="http://www.w3.org/1999/xlink" xmlns:sketch="http://www.bohemiancoding.com/sketch/ns">
    <!-- Generator: Sketch 3.2.2 (9983) - http://www.bohemiancoding.com/sketch -->
    <title>119 - Controls (Solid)</title>
    <desc>Created with Sketch.</desc>
    <defs></defs>
    <g id="Page-1" stroke="none" stroke-width="1" fill="none" fill-rule="evenodd" sketch:type="MSPage">
        <g id="119---Controls-(Solid)" sketch:type="MSLayerGroup" fill="#000000">
            <path d="M59,0 L1,0 C0.448,0 0,0.447 0,1 L0,59 C0,59.553 0.448,60 1,60 L59,60 C59.552,60 60,59.553 60,59 L60,1 C60,0.447 59.552,0 59,0 L59,0 Z M12,53 C8.14,53 5,49.859 5,46 C5,42.481 7.613,39.568 11,39.08 L11,8 C11,7.447 11.448,7 12,7 C12.552,7 13,7.447 13,8 L13,39.08 C16.387,39.568 19,42.481 19,46 C19,49.859 15.86,53 12,53 L12,53 Z M31,35.92 L31,52 C31,52.553 30.552,53 30,53 C29.448,53 29,52.553 29,52 L29,35.92 C25.613,35.432 23,32.519 23,29 C23,25.481 25.613,22.568 29,22.08 L29,8 C29,7.447 29.448,7 30,7 C30.552,7 31,7.447 31,8 L31,22.08 C34.387,22.568 37,25.481 37,29 C37,32.519 34.387,35.432 31,35.92 L31,35.92 Z M49,20.92 L49,52 C49,52.553 48.552,53 48,53 C47.448,53 47,52.553 47,52 L47,20.92 C43.613,20.432 41,17.519 41,14 C41,10.141 44.14,7 48,7 C51.86,7 55,10.141 55,14 C55,17.519 52.387,20.432 49,20.92 L49,20.92 Z" id="Fill-1067" sketch:type="MSShapeGroup"></path>
        </g>
    </g>
</svg>