<?xml version="1.0" encoding="UTF-8" standalone="no"?>
<svg width="34px" height="60px" viewBox="0 0 34 60" version="1.1" xmlns="http://www.w3.org/2000/svg" xmlns:xlink="http://www.w3.org/1999/xlink" xmlns:sketch="http://www.bohemiancoding.com/sketch/ns">
    <!-- Generator: Sketch 3.2.2 (9983) - http://www.bohemiancoding.com/sketch -->
    <title>12 - Phone Profile (Solid)</title>
    <desc>Created with Sketch.</desc>
    <defs></defs>
    <g id="Page-1" stroke="none" stroke-width="1" fill="none" fill-rule="evenodd" sketch:type="MSPage">
        <g id="12---Phone-Profile-(Solid)" sketch:type="MSLayerGroup" fill="#000000">
            <path d="M17,51 C15.897,51 15,51.897 15,53 C15,54.102 15.897,55 17,55 C18.103,55 19,54.102 19,53 C19,51.897 18.103,51 17,51" id="Fill-1328" sketch:type="MSShapeGroup"></path>
            <path d="M29.595,0 L4.405,0 C1.976,0 0,1.977 0,4.406 L0,55.595 C0,58.023 1.976,60 4.405,60 L29.595,60 C32.024,60 34,58.023 34,55.595 L34,4.406 C34,1.977 32.024,0 29.595,0 L29.595,0 Z M20,3 L21,3 C21.552,3 22,3.447 22,4 C22,4.553 21.552,5 21,5 L20,5 C19.448,5 19,4.553 19,4 C19,3.447 19.448,3 20,3 L20,3 Z M13,3 L17,3 C17.552,3 18,3.447 18,4 C18,4.553 17.552,5 17,5 L13,5 C12.448,5 12,4.553 12,4 C12,3.447 12.448,3 13,3 L13,3 Z M17,57 C14.794,57 13,55.206 13,53 C13,50.794 14.794,49 17,49 C19.206,49 21,50.794 21,53 C21,55.206 19.206,57 17,57 L17,57 Z M2,8 L32,8 L32,46 L2,46 L2,8 Z" id="Fill-1329" sketch:type="MSShapeGroup"></path>
            <path d="M3.999,38 L9.999,38 L9.999,44 L3.999,44 L3.999,38 Z" id="Fill-1330" sketch:type="MSShapeGroup"></path>
            <path d="M11.999,38 L29.999,38 L29.999,44 L11.999,44 L11.999,38 Z" id="Fill-1331" sketch:type="MSShapeGroup"></path>
            <path d="M8.455,31.773 L8.41,31.816 L9.387,32.523 L9.484,32.589 C9.678,32.727 9.876,32.857 10.077,32.984 C10.2,33.062 10.324,33.137 10.449,33.211 C10.64,33.322 10.831,33.433 11.028,33.535 C11.193,33.621 11.362,33.698 11.53,33.777 C11.698,33.856 11.863,33.939 12.034,34.01 C12.369,34.15 12.71,34.274 13.055,34.385 C13.176,34.423 13.299,34.453 13.421,34.488 C13.68,34.562 13.94,34.631 14.203,34.69 C14.339,34.719 14.476,34.745 14.613,34.771 C14.882,34.821 15.154,34.863 15.428,34.895 C15.551,34.91 15.674,34.928 15.799,34.939 C16.196,34.976 16.596,35 16.999,35 C17.402,35 17.801,34.976 18.198,34.939 C18.323,34.928 18.446,34.911 18.569,34.895 C18.844,34.863 19.115,34.821 19.386,34.771 C19.522,34.745 19.657,34.719 19.791,34.69 C20.058,34.631 20.322,34.562 20.584,34.486 C20.702,34.452 20.822,34.423 20.939,34.386 C21.285,34.275 21.627,34.151 21.963,34.01 C22.128,33.942 22.286,33.862 22.448,33.787 C22.624,33.705 22.799,33.624 22.972,33.534 C23.162,33.435 23.347,33.329 23.531,33.222 C23.664,33.144 23.797,33.063 23.928,32.98 C24.12,32.859 24.31,32.733 24.496,32.602 L24.601,32.532 L25.612,31.801 L25.562,31.756 C28.275,29.372 29.999,25.887 29.999,22 C29.999,14.832 24.167,9 16.999,9 C9.831,9 3.999,14.832 3.999,22 C3.999,25.896 5.731,29.388 8.455,31.773 L8.455,31.773 Z M16.999,11 C23.064,11 27.999,15.934 27.999,22 C27.999,25.414 26.435,28.47 23.986,30.489 L23.84,30.403 L20.379,28.674 C20.271,28.619 20.201,28.507 20.201,28.387 L20.201,27.382 L20.344,27.187 C20.781,26.569 21.141,25.889 21.413,25.158 C22.005,24.783 22.376,24.131 22.376,23.405 L22.376,21.955 C22.376,21.538 22.247,21.131 22.013,20.788 L22.013,19.108 C22.045,18.746 22.084,17.419 21.097,16.292 C20.227,15.3 18.857,14.796 17.027,14.796 C15.197,14.796 13.828,15.3 12.958,16.292 C11.971,17.419 12.01,18.746 12.042,19.108 L12.042,20.788 C11.808,21.131 11.679,21.538 11.679,21.955 L11.679,23.405 C11.679,23.966 11.902,24.491 12.292,24.879 C12.614,26.018 13.175,26.915 13.491,27.361 L13.491,28.353 C13.491,28.47 13.427,28.577 13.324,28.634 L10.092,30.398 L9.985,30.466 C7.552,28.446 5.999,25.401 5.999,22 C5.999,15.934 10.934,11 16.999,11 L16.999,11 Z" id="Fill-1327" sketch:type="MSShapeGroup"></path>
        </g>
    </g>
</svg>