<?xml version="1.0" encoding="UTF-8" standalone="no"?>
<svg width="45px" height="60px" viewBox="0 0 45 60" version="1.1" xmlns="http://www.w3.org/2000/svg" xmlns:xlink="http://www.w3.org/1999/xlink" xmlns:sketch="http://www.bohemiancoding.com/sketch/ns">
    <!-- Generator: Sketch 3.2.2 (9983) - http://www.bohemiancoding.com/sketch -->
    <title>121 - Bookmark (Solid)</title>
    <desc>Created with Sketch.</desc>
    <defs></defs>
    <g id="Page-1" stroke="none" stroke-width="1" fill="none" fill-rule="evenodd" sketch:type="MSPage">
        <g id="121---Bookmark-(Solid)" sketch:type="MSLayerGroup" fill="#000000">
            <path d="M5.5,0 C3.953,0 2.467,0.662 1.422,1.818 C0.395,2.954 -0.111,4.476 0.025,6 L0,6 L0,54.958 C0,57.738 2.262,60 5.042,60 L45,60 L45,0 L5.5,0 L5.5,0 Z M2,54.958 L2,9.998 C2.836,10.627 3.875,11 5,11 L5,57.996 C3.342,57.973 2,56.621 2,54.958 L2,54.958 Z M43,58 L7,58 L7,11 L10,11 L10,36.201 C10,36.308 10.011,36.412 10.031,36.512 L10.044,36.553 L10.124,36.804 L10.139,36.833 L10.275,37.071 L10.286,37.084 L10.478,37.301 L10.482,37.306 L10.494,37.314 C10.76,37.552 11.11,37.7 11.504,37.7 C11.916,37.7 12.295,37.529 12.573,37.239 C12.652,37.16 12.723,37.071 12.783,36.972 L17,29.943 L21.217,36.973 C21.326,37.153 21.473,37.295 21.636,37.413 C21.885,37.591 22.178,37.7 22.496,37.7 C22.687,37.7 22.866,37.663 23.032,37.601 L23.049,37.596 C23.222,37.529 23.377,37.431 23.511,37.31 L23.518,37.306 L23.522,37.301 L23.714,37.085 L23.726,37.07 L23.861,36.833 L23.876,36.804 L23.955,36.557 L23.969,36.511 C23.989,36.412 24,36.308 24,36.201 L24,11 L43,11 L43,58 L43,58 Z M24.618,9 L26.618,5 L12.382,5 L10.382,9 L5.712,9 C3.818,9 2.196,7.621 2.019,5.86 C1.918,4.862 2.232,3.903 2.905,3.159 C3.571,2.422 4.517,2 5.5,2 L43,2 L43,3 L38,3 C37.447,3 37,3.447 37,4 C37,4.553 37.447,5 38,5 L43,5 L43,6 L39,6 C38.447,6 38,6.447 38,7 C38,7.553 38.447,8 39,8 L43,8 L43,9 L24.618,9 L24.618,9 Z" id="Fill-271" sketch:type="MSShapeGroup"></path>
        </g>
    </g>
</svg>