<?xml version="1.0" encoding="UTF-8" standalone="no"?>
<svg width="55px" height="60px" viewBox="0 0 55 60" version="1.1" xmlns="http://www.w3.org/2000/svg" xmlns:xlink="http://www.w3.org/1999/xlink" xmlns:sketch="http://www.bohemiancoding.com/sketch/ns">
    <!-- Generator: Sketch 3.2.2 (9983) - http://www.bohemiancoding.com/sketch -->
    <title>123 - Flag (Solid)</title>
    <desc>Created with Sketch.</desc>
    <defs></defs>
    <g id="Page-1" stroke="none" stroke-width="1" fill="none" fill-rule="evenodd" sketch:type="MSPage">
        <g id="123---Flag-(Solid)" sketch:type="MSLayerGroup" fill="#000000">
            <path d="M44.214,25 L54.824,9.566 C55.034,9.261 55.058,8.863 54.885,8.534 C54.712,8.206 54.371,8 54,8 L24,8 L24,4 C24,3.447 23.553,3 23,3 L2,3 L2,1 C2,0.447 1.553,0 1,0 C0.447,0 0,0.447 0,1 L0,59 C0,59.553 0.447,60 1,60 C1.553,60 2,59.553 2,59 L2,34 L13.026,34 C12.391,34.838 12,35.87 12,37 C12,39.757 14.243,42 17,42 L54,42 C54.371,42 54.712,41.794 54.885,41.466 C55.058,41.137 55.034,40.739 54.824,40.434 L44.214,25" id="Fill-270" sketch:type="MSShapeGroup"></path>
        </g>
    </g>
</svg>