<?xml version="1.0" encoding="UTF-8" standalone="no"?>
<svg width="48px" height="60px" viewBox="0 0 48 60" version="1.1" xmlns="http://www.w3.org/2000/svg" xmlns:xlink="http://www.w3.org/1999/xlink" xmlns:sketch="http://www.bohemiancoding.com/sketch/ns">
    <!-- Generator: Sketch 3.2.2 (9983) - http://www.bohemiancoding.com/sketch -->
    <title>124 - Flag (Solid)</title>
    <desc>Created with Sketch.</desc>
    <defs></defs>
    <g id="Page-1" stroke="none" stroke-width="1" fill="none" fill-rule="evenodd" sketch:type="MSPage">
        <g id="124---Flag-(Solid)" sketch:type="MSLayerGroup" fill="#000000">
            <path d="M47.757,35.323 L38.18,20 L47.848,4.53 C48.041,4.222 48.051,3.833 47.875,3.516 C47.698,3.197 47.363,3 47,3 L2,3 L2,1 C2,0.447 1.553,0 1,0 C0.447,0 0,0.447 0,1 L0,59 C0,59.553 0.447,60 1,60 C1.553,60 2,59.553 2,59 L2,37 L47.019,37 C47.572,37 48.02,36.553 48.02,36 C48.02,35.739 47.92,35.502 47.757,35.323" id="Fill-266" sketch:type="MSShapeGroup"></path>
        </g>
    </g>
</svg>