<?xml version="1.0" encoding="UTF-8" standalone="no"?>
<svg width="60px" height="51px" viewBox="0 0 60 51" version="1.1" xmlns="http://www.w3.org/2000/svg" xmlns:xlink="http://www.w3.org/1999/xlink" xmlns:sketch="http://www.bohemiancoding.com/sketch/ns">
    <!-- Generator: Sketch 3.2.2 (9983) - http://www.bohemiancoding.com/sketch -->
    <title>128 - Reading List (Solid)</title>
    <desc>Created with Sketch.</desc>
    <defs></defs>
    <g id="Page-1" stroke="none" stroke-width="1" fill="none" fill-rule="evenodd" sketch:type="MSPage">
        <g id="128---Reading-List-(Solid)" sketch:type="MSLayerGroup" fill="#1A1718">
            <path d="M56,0 L33,0 C32.264,0 31.59,0.222 31,0.574 L31,46 L29,46 L29,0.574 C28.41,0.222 27.737,0 27,0 L4,0 C1.794,0 0,1.794 0,4 L0,43 C0,45.206 1.794,47 4,47 L26,47 C27.157,47 29,48.373 29,50 C29,50.553 29.448,51 30,51 C30.552,51 31,50.553 31,50 C31,48.373 32.843,47 34,47 L56,47 C58.206,47 60,45.206 60,43 L60,4 C60,1.794 58.206,0 56,0" id="Fill-1066" sketch:type="MSShapeGroup"></path>
        </g>
    </g>
</svg>