<?xml version="1.0" encoding="UTF-8" standalone="no"?>
<svg width="60px" height="60px" viewBox="0 0 60 60" version="1.1" xmlns="http://www.w3.org/2000/svg" xmlns:xlink="http://www.w3.org/1999/xlink" xmlns:sketch="http://www.bohemiancoding.com/sketch/ns">
    <!-- Generator: Sketch 3.2.2 (9983) - http://www.bohemiancoding.com/sketch -->
    <title>129 - Compose (Solid)</title>
    <desc>Created with Sketch.</desc>
    <defs></defs>
    <g id="Page-1" stroke="none" stroke-width="1" fill="none" fill-rule="evenodd" sketch:type="MSPage">
        <g id="Icons" sketch:type="MSArtboardGroup" transform="translate(-240.000000, -3357.000000)" fill="#000000">
            <g id="129---Compose-(Solid)" sketch:type="MSLayerGroup" transform="translate(240.000000, 3357.000000)">
                <path d="M50.73,8.345 L50.69,8.288 C50.548,8.153 50.401,8.026 50.256,7.894 L50.061,7.717 C49.763,7.448 49.461,7.186 49.154,6.93 L48.988,6.793 C48.664,6.527 48.335,6.269 48.001,6.017 L47.875,5.923 C47.523,5.661 47.167,5.407 46.806,5.162 L46.719,5.103 C46.345,4.851 45.966,4.608 45.582,4.374 L45.509,4.329 C45.121,4.094 44.728,3.868 44.331,3.651 L44.25,3.607 C43.857,3.394 43.459,3.19 43.057,2.995 L42.945,2.94 C42.554,2.753 42.159,2.574 41.761,2.404 L41.597,2.334 C41.217,2.175 40.834,2.024 40.448,1.88 L40.213,1.792 C39.849,1.661 39.482,1.537 39.114,1.42 C39.009,1.386 38.906,1.352 38.801,1.32 C38.456,1.214 38.108,1.116 37.758,1.023 C37.628,0.988 37.498,0.951 37.367,0.918 C37.039,0.835 36.709,0.761 36.378,0.689 C36.224,0.656 36.072,0.62 35.918,0.589 C35.603,0.526 35.286,0.472 34.968,0.419 C34.797,0.39 34.626,0.358 34.454,0.333 C34.143,0.286 33.831,0.25 33.518,0.213 C33.339,0.192 33.161,0.167 32.98,0.149 C32.647,0.116 32.312,0.094 31.977,0.072 C31.817,0.062 31.658,0.046 31.496,0.038 C30.999,0.013 30.5,0 30,0 C29.5,0 29.001,0.013 28.504,0.038 C28.343,0.046 28.183,0.062 28.023,0.072 C27.688,0.094 27.353,0.116 27.02,0.149 C26.84,0.167 26.661,0.192 26.482,0.213 C26.169,0.25 25.857,0.286 25.546,0.333 C25.374,0.358 25.203,0.39 25.032,0.419 C24.714,0.472 24.397,0.526 24.082,0.589 C23.928,0.62 23.776,0.656 23.622,0.689 C23.291,0.761 22.961,0.835 22.633,0.918 C22.502,0.951 22.372,0.988 22.242,1.023 C21.892,1.116 21.544,1.214 21.199,1.32 C21.094,1.352 20.991,1.386 20.886,1.42 C20.518,1.537 20.151,1.661 19.787,1.792 L19.552,1.88 C19.166,2.024 18.783,2.175 18.403,2.334 L18.239,2.404 C17.841,2.574 17.446,2.753 17.055,2.94 L16.943,2.995 C16.541,3.19 16.143,3.394 15.75,3.607 L15.669,3.651 C15.272,3.868 14.879,4.094 14.491,4.329 L14.418,4.374 C14.034,4.608 13.655,4.851 13.281,5.103 L13.194,5.162 C12.833,5.407 12.477,5.661 12.125,5.923 L11.999,6.017 C11.665,6.269 11.337,6.527 11.012,6.793 L10.846,6.93 C10.539,7.186 10.237,7.448 9.939,7.717 L9.744,7.894 C9.6,8.026 9.452,8.153 9.31,8.288 L9.27,8.345 C3.564,13.81 0,21.494 0,30 C0,46.542 13.458,60 30,60 C46.542,60 60,46.542 60,30 C60,21.494 56.436,13.81 50.73,8.345 L50.73,8.345 Z M39.241,38.875 C36.806,36.404 33.505,35 30,35 C26.495,35 23.195,36.404 20.759,38.875 L11.421,27.177 L20,20.313 L29.335,27.781 C29.511,27.919 29.747,28 29.97,28 L30.03,28 C30.257,28 30.497,27.916 30.674,27.775 L40,20.313 L48.58,27.176 L39.241,38.875 L39.241,38.875 Z M31,3 L31,23.032 C31,23.585 30.552,24.032 30,24.032 C29.448,24.032 29,23.585 29,23.032 L29,3 C29,2.447 29.448,2 30,2 C30.552,2 31,2.447 31,3 L31,3 Z M19,6 C19,5.447 19.448,5 20,5 C20.552,5 21,5.447 21,6 L21,16.032 C21,16.585 20.552,17.032 20,17.032 C19.448,17.032 19,16.585 19,16.032 L19,6 L19,6 Z M39,6 C39,5.447 39.448,5 40,5 C40.552,5 41,5.447 41,6 L41,16.032 C41,16.585 40.552,17.032 40,17.032 C39.448,17.032 39,16.585 39,16.032 L39,6 L39,6 Z M30,58 C14.561,58 2,45.439 2,30 C2,22.917 4.648,16.445 9,11.509 L9,27 C9,27.227 9.077,27.446 9.218,27.624 L29.169,52.617 L29.313,52.763 L29.322,52.768 L29.335,52.781 L29.531,52.886 L29.628,52.939 C29.739,52.978 29.856,53 29.97,53 L30.03,53 C30.144,53 30.261,52.978 30.372,52.939 L30.469,52.886 L30.665,52.781 L30.678,52.768 L30.687,52.763 L30.831,52.617 L50.782,27.624 C50.923,27.446 51,27.227 51,27 L51,11.509 C55.352,16.445 58,22.917 58,30 C58,45.439 45.44,58 30,58 L30,58 Z" id="Fill-1065" sketch:type="MSShapeGroup"></path>
            </g>
        </g>
    </g>
</svg>