<?xml version="1.0" encoding="UTF-8" standalone="no"?>
<svg width="46px" height="60px" viewBox="0 0 46 60" version="1.1" xmlns="http://www.w3.org/2000/svg" xmlns:xlink="http://www.w3.org/1999/xlink" xmlns:sketch="http://www.bohemiancoding.com/sketch/ns">
    <!-- Generator: Sketch 3.2.2 (9983) - http://www.bohemiancoding.com/sketch -->
    <title>13 - Tech Power (Solid)</title>
    <desc>Created with Sketch.</desc>
    <defs></defs>
    <g id="Page-1" stroke="none" stroke-width="1" fill="none" fill-rule="evenodd" sketch:type="MSPage">
        <g id="Icons" sketch:type="MSArtboardGroup" transform="translate(-961.000000, -4677.000000)" fill="#000000">
            <g id="13---Tech-Power-(Solid)" sketch:type="MSLayerGroup" transform="translate(961.000000, 4677.000000)">
                <path d="M46,29.748 C46,28.868 45.657,28.041 45.035,27.419 L44.479,26.862 C45.427,26.022 46,24.808 46,23.5 C46,21.019 43.981,19 41.5,19 C41.318,19 41.138,19.018 40.96,19.04 C40.982,18.861 41,18.683 41,18.5 C41,16.019 38.981,14 36.5,14 C36.318,14 36.138,14.018 35.96,14.04 C35.982,13.861 36,13.683 36,13.5 C36,11.019 33.981,9 31.5,9 C31.318,9 31.138,9.018 30.96,9.04 C30.982,8.861 31,8.683 31,8.5 C31,6.019 28.981,4 26.5,4 C25.192,4 23.978,4.573 23.138,5.521 L23.015,5.399 L6.044,22.369 L10.283,26.608 C8.927,27.384 8,28.829 8,30.5 C8,32.066 8.806,33.445 10.023,34.25 L10.244,34.49 L21,45.204 L21,47 L19,47 L19,60 L45,60 L45,47 L43,47 L43,43.971 C44.913,42.349 46,40.019 46,37.5 C46,35.76 45.457,34.07 44.464,32.649 L45.035,32.077 C45.657,31.455 46,30.628 46,29.748 L46,29.748 Z M30,33 C30,30.794 31.794,29 34,29 C36.206,29 38,30.794 38,33 C38,35.206 36.206,37 34,37 C31.794,37 30,35.206 30,33 L30,33 Z M44,23.5 C44,24.267 43.646,24.979 43.063,25.447 L39.553,21.937 C40.021,21.354 40.732,21 41.5,21 C42.879,21 44,22.121 44,23.5 L44,23.5 Z M39,18.5 C39,19.268 38.646,19.98 38.063,20.447 L34.553,16.937 C35.021,16.354 35.732,16 36.5,16 C37.879,16 39,17.121 39,18.5 L39,18.5 Z M34,13.5 C34,14.268 33.647,14.979 33.064,15.447 L29.553,11.937 C30.021,11.353 30.732,11 31.5,11 C32.879,11 34,12.121 34,13.5 L34,13.5 Z M26.5,6 C27.879,6 29,7.121 29,8.5 C29,9.267 28.646,9.979 28.063,10.447 L24.553,6.937 C25.021,6.354 25.732,6 26.5,6 L26.5,6 Z M11.961,28.062 L12.376,28.015 L12.5,28 L22.5,28 C23.879,28 25,29.121 25,30.5 C25,31.879 23.879,33 22.5,33 L12.5,33 C11.121,33 10,31.879 10,30.5 C10,29.306 10.841,28.309 11.961,28.062 L11.961,28.062 Z M29.5,57 C27.57,57 26,55.43 26,53.5 C26,51.57 27.57,50 29.5,50 C31.43,50 33,51.57 33,53.5 C33,55.43 31.43,57 29.5,57 L29.5,57 Z M43,58 L37,58 L37,54.574 C37,52.368 36.046,50.386 34.536,49 L43,49 L43,58 L43,58 Z M43.025,34.088 C43.659,35.11 44,36.29 44,37.5 C44,39.555 43.052,41.446 41.398,42.692 L41,42.991 L41,47 L23,47 L23,44.282 L22.648,43.983 L22.468,43.844 L13.591,35 L18.676,35 L28.065,44.39 C28.688,45.012 29.515,45.354 30.394,45.354 C31.273,45.354 32.101,45.012 32.724,44.39 L43.025,34.088 L43.025,34.088 Z" id="Fill-1325" sketch:type="MSShapeGroup"></path>
                <path d="M18.581,0.965 C17.337,-0.279 15.167,-0.279 13.923,0.965 L1.61,13.277 C0.327,14.562 0.327,16.65 1.61,17.936 L4.63,20.956 L21.601,3.985 L18.581,0.965 L18.581,0.965 Z M12.707,9.707 L10.707,11.707 C10.512,11.902 10.256,12 10,12 C9.744,12 9.488,11.902 9.293,11.707 C8.902,11.316 8.902,10.684 9.293,10.293 L11.293,8.293 C11.684,7.902 12.316,7.902 12.707,8.293 C13.098,8.684 13.098,9.317 12.707,9.707 L12.707,9.707 Z" id="Fill-1326" sketch:type="MSShapeGroup"></path>
            </g>
        </g>
    </g>
</svg>