<?xml version="1.0" encoding="UTF-8" standalone="no"?>
<svg width="46px" height="60px" viewBox="0 0 46 60" version="1.1" xmlns="http://www.w3.org/2000/svg" xmlns:xlink="http://www.w3.org/1999/xlink" xmlns:sketch="http://www.bohemiancoding.com/sketch/ns">
    <!-- Generator: Sketch 3.2.2 (9983) - http://www.bohemiancoding.com/sketch -->
    <title>131 - Leaking Battery (Solid)</title>
    <desc>Created with Sketch.</desc>
    <defs></defs>
    <g id="Page-1" stroke="none" stroke-width="1" fill="none" fill-rule="evenodd" sketch:type="MSPage">
        <g id="Icons" sketch:type="MSArtboardGroup" transform="translate(-1205.000000, -3237.000000)" fill="#000000">
            <g id="131---Leaking-Battery-(Solid)" sketch:type="MSLayerGroup" transform="translate(1205.000000, 3237.000000)">
                <path d="M5,22 C4.448,22 4,22.448 4,23 C4,23.552 4.448,24 5,24 C5.552,24 6,23.552 6,23 C6,22.448 5.552,22 5,22" id="Fill-212" sketch:type="MSShapeGroup"></path>
                <path d="M8,19 C7.448,19 7,19.448 7,20 C7,20.552 7.448,21 8,21 C8.552,21 9,20.552 9,20 C9,19.448 8.552,19 8,19" id="Fill-213" sketch:type="MSShapeGroup"></path>
                <path d="M8,25 C7.448,25 7,25.448 7,26 C7,26.552 7.448,27 8,27 C8.552,27 9,26.552 9,26 C9,25.448 8.552,25 8,25" id="Fill-214" sketch:type="MSShapeGroup"></path>
                <path d="M11,22 C10.448,22 10,22.448 10,23 C10,23.552 10.448,24 11,24 C11.552,24 12,23.552 12,23 C12,22.448 11.552,22 11,22" id="Fill-215" sketch:type="MSShapeGroup"></path>
                <path d="M14,25 C13.448,25 13,25.448 13,26 C13,26.552 13.448,27 14,27 C14.552,27 15,26.552 15,26 C15,25.448 14.552,25 14,25" id="Fill-216" sketch:type="MSShapeGroup"></path>
                <path d="M5,28 C4.448,28 4,28.448 4,29 C4,29.552 4.448,30 5,30 C5.552,30 6,29.552 6,29 C6,28.448 5.552,28 5,28" id="Fill-217" sketch:type="MSShapeGroup"></path>
                <path d="M5,34 C4.448,34 4,34.448 4,35 C4,35.552 4.448,36 5,36 C5.552,36 6,35.552 6,35 C6,34.448 5.552,34 5,34" id="Fill-218" sketch:type="MSShapeGroup"></path>
                <path d="M8,31 C7.448,31 7,31.448 7,32 C7,32.552 7.448,33 8,33 C8.552,33 9,32.552 9,32 C9,31.448 8.552,31 8,31" id="Fill-219" sketch:type="MSShapeGroup"></path>
                <path d="M8,37 C7.448,37 7,37.448 7,38 C7,38.552 7.448,39 8,39 C8.552,39 9,38.552 9,38 C9,37.448 8.552,37 8,37" id="Fill-220" sketch:type="MSShapeGroup"></path>
                <path d="M11,28 C10.448,28 10,28.448 10,29 C10,29.552 10.448,30 11,30 C11.552,30 12,29.552 12,29 C12,28.448 11.552,28 11,28" id="Fill-221" sketch:type="MSShapeGroup"></path>
                <path d="M11,34 C10.448,34 10,34.448 10,35 C10,35.552 10.448,36 11,36 C11.552,36 12,35.552 12,35 C12,34.448 11.552,34 11,34" id="Fill-222" sketch:type="MSShapeGroup"></path>
                <path d="M17,34 C16.448,34 16,34.448 16,35 C16,35.552 16.448,36 17,36 C17.552,36 18,35.552 18,35 C18,34.448 17.552,34 17,34" id="Fill-223" sketch:type="MSShapeGroup"></path>
                <path d="M14,31 C13.448,31 13,31.448 13,32 C13,32.552 13.448,33 14,33 C14.552,33 15,32.552 15,32 C15,31.448 14.552,31 14,31" id="Fill-224" sketch:type="MSShapeGroup"></path>
                <path d="M35,36 C34.448,36 34,36.448 34,37 C34,37.552 34.448,38 35,38 C35.552,38 36,37.552 36,37 C36,36.448 35.552,36 35,36" id="Fill-225" sketch:type="MSShapeGroup"></path>
                <path d="M37,43 C36.448,43 36,43.448 36,44 C36,44.552 36.448,45 37,45 C37.552,45 38,44.552 38,44 C38,43.448 37.552,43 37,43" id="Fill-226" sketch:type="MSShapeGroup"></path>
                <path d="M37,41 C37.552,41 38,40.552 38,40 C38,39.448 37.552,39 37,39 C36.448,39 36,39.448 36,40 C36,40.552 36.448,41 37,41" id="Fill-227" sketch:type="MSShapeGroup"></path>
                <path d="M40,47 C40,46.448 39.552,46 39,46 C38.448,46 38,46.448 38,47 C38,47.552 38.448,48 39,48 C39.552,48 40,47.552 40,47" id="Fill-228" sketch:type="MSShapeGroup"></path>
                <path d="M40,49 C39.448,49 39,49.448 39,50 C39,50.552 39.448,51 40,51 C40.552,51 41,50.552 41,50 C41,49.448 40.552,49 40,49" id="Fill-229" sketch:type="MSShapeGroup"></path>
                <path d="M44,54 C44,53.448 43.552,53 43,53 C42.448,53 42,53.448 42,54 C42,54.552 42.448,55 43,55 C43.552,55 44,54.552 44,54" id="Fill-230" sketch:type="MSShapeGroup"></path>
                <path d="M41,43 C40.448,43 40,43.448 40,44 C40,44.552 40.448,45 41,45 C41.552,45 42,44.552 42,44 C42,43.448 41.552,43 41,43" id="Fill-231" sketch:type="MSShapeGroup"></path>
                <path d="M41,41 C41.552,41 42,40.552 42,40 C42,39.448 41.552,39 41,39 C40.448,39 40,39.448 40,40 C40,40.552 40.448,41 41,41" id="Fill-232" sketch:type="MSShapeGroup"></path>
                <path d="M43,49 C43.552,49 44,48.552 44,48 C44,47.448 43.552,47 43,47 C42.448,47 42,47.448 42,48 C42,48.552 42.448,49 43,49" id="Fill-233" sketch:type="MSShapeGroup"></path>
                <path d="M40,53 C39.448,53 39,53.448 39,54 C39,54.552 39.448,55 40,55 C40.552,55 41,54.552 41,54 C41,53.448 40.552,53 40,53" id="Fill-234" sketch:type="MSShapeGroup"></path>
                <path d="M45,50 C44.448,50 44,50.448 44,51 C44,51.552 44.448,52 45,52 C45.552,52 46,51.552 46,51 C46,50.448 45.552,50 45,50" id="Fill-235" sketch:type="MSShapeGroup"></path>
                <path d="M44,57 C43.448,57 43,57.448 43,58 C43,58.552 43.448,59 44,59 C44.552,59 45,58.552 45,58 C45,57.448 44.552,57 44,57" id="Fill-236" sketch:type="MSShapeGroup"></path>
                <path d="M14,37 C13.448,37 13,37.448 13,38 C13,38.552 13.448,39 14,39 C14.552,39 15,38.552 15,38 C15,37.448 14.552,37 14,37" id="Fill-237" sketch:type="MSShapeGroup"></path>
                <path d="M5,40 C4.448,40 4,40.448 4,41 C4,41.552 4.448,42 5,42 C5.552,42 6,41.552 6,41 C6,40.448 5.552,40 5,40" id="Fill-238" sketch:type="MSShapeGroup"></path>
                <path d="M5,46 C4.448,46 4,46.448 4,47 C4,47.552 4.448,48 5,48 C5.552,48 6,47.552 6,47 C6,46.448 5.552,46 5,46" id="Fill-239" sketch:type="MSShapeGroup"></path>
                <path d="M8,43 C7.448,43 7,43.448 7,44 C7,44.552 7.448,45 8,45 C8.552,45 9,44.552 9,44 C9,43.448 8.552,43 8,43" id="Fill-240" sketch:type="MSShapeGroup"></path>
                <path d="M8,49 C7.448,49 7,49.448 7,50 C7,50.552 7.448,51 8,51 C8.552,51 9,50.552 9,50 C9,49.448 8.552,49 8,49" id="Fill-241" sketch:type="MSShapeGroup"></path>
                <path d="M11,40 C10.448,40 10,40.448 10,41 C10,41.552 10.448,42 11,42 C11.552,42 12,41.552 12,41 C12,40.448 11.552,40 11,40" id="Fill-242" sketch:type="MSShapeGroup"></path>
                <path d="M17,40 C16.448,40 16,40.448 16,41 C16,41.552 16.448,42 17,42 C17.552,42 18,41.552 18,41 C18,40.448 17.552,40 17,40" id="Fill-243" sketch:type="MSShapeGroup"></path>
                <path d="M11,46 C10.448,46 10,46.448 10,47 C10,47.552 10.448,48 11,48 C11.552,48 12,47.552 12,47 C12,46.448 11.552,46 11,46" id="Fill-244" sketch:type="MSShapeGroup"></path>
                <path d="M17,46 C16.448,46 16,46.448 16,47 C16,47.552 16.448,48 17,48 C17.552,48 18,47.552 18,47 C18,46.448 17.552,46 17,46" id="Fill-245" sketch:type="MSShapeGroup"></path>
                <path d="M14,43 C13.448,43 13,43.448 13,44 C13,44.552 13.448,45 14,45 C14.552,45 15,44.552 15,44 C15,43.448 14.552,43 14,43" id="Fill-246" sketch:type="MSShapeGroup"></path>
                <path d="M20,45 C20.552,45 21,44.552 21,44 C21,43.448 20.552,43 20,43 C19.448,43 19,43.448 19,44 C19,44.552 19.448,45 20,45" id="Fill-247" sketch:type="MSShapeGroup"></path>
                <path d="M14,49 C13.448,49 13,49.448 13,50 C13,50.552 13.448,51 14,51 C14.552,51 15,50.552 15,50 C15,49.448 14.552,49 14,49" id="Fill-248" sketch:type="MSShapeGroup"></path>
                <path d="M20,49 C19.448,49 19,49.448 19,50 C19,50.552 19.448,51 20,51 C20.552,51 21,50.552 21,50 C21,49.448 20.552,49 20,49" id="Fill-249" sketch:type="MSShapeGroup"></path>
                <path d="M28.536,4 L22,4 L22,0 L10,0 L10,4 L3.464,4 C1.554,4 0,5.554 0,7.464 L0,56.535 C0,58.445 1.554,60 3.464,60 L28.536,60 C30.446,60 32,58.445 32,56.535 L32,38.196 L30.154,35 L32,31.804 L32,7.464 C32,5.554 30.446,4 28.536,4 L28.536,4 Z M30,31.269 L28.423,34 L26.414,34 L24,31.586 L24,29 C24,28.447 23.553,28 23,28 C22.447,28 22,28.447 22,29 L22,31 L20,31 C19.447,31 19,31.447 19,32 C19,32.553 19.447,33 20,33 L22.586,33 L24.741,35.155 L22.434,39 L21,39 C20.447,39 20,39.447 20,40 C20,40.553 20.447,41 21,41 L22,41 L22,42 C22,42.553 22.447,43 23,43 C23.553,43 24,42.553 24,42 L24,40.277 L26.566,36 L28.423,36 L30,38.732 L30,56.535 C30,57.343 29.344,58 28.536,58 L3.464,58 C2.814,58 2.269,57.572 2.078,56.984 C2.592,56.943 3,56.525 3,56 C3,55.448 2.552,55 2,55 L2,51 C2.552,51 3,50.552 3,50 C3,49.448 2.552,49 2,49 L2,45 C2.552,45 3,44.552 3,44 C3,43.448 2.552,43 2,43 L2,39 C2.552,39 3,38.552 3,38 C3,37.448 2.552,37 2,37 L2,33 C2.552,33 3,32.552 3,32 C3,31.448 2.552,31 2,31 L2,27 C2.552,27 3,26.552 3,26 C3,25.448 2.552,25 2,25 L2,21 C2.552,21 3,20.552 3,20 C3,19.448 2.552,19 2,19 L2,7.464 C2,6.656 2.656,6 3.464,6 L28.536,6 C29.344,6 30,6.656 30,7.464 L30,31.269 L30,31.269 Z" id="Fill-250" sketch:type="MSShapeGroup"></path>
                <path d="M29,40 C28.448,40 28,40.448 28,41 C28,41.552 28.448,42 29,42 C29.552,42 30,41.552 30,41 C30,40.448 29.552,40 29,40" id="Fill-251" sketch:type="MSShapeGroup"></path>
                <path d="M23,48 C23.552,48 24,47.552 24,47 C24,46.448 23.552,46 23,46 C22.448,46 22,46.448 22,47 C22,47.552 22.448,48 23,48" id="Fill-252" sketch:type="MSShapeGroup"></path>
                <path d="M29,46 C28.448,46 28,46.448 28,47 C28,47.552 28.448,48 29,48 C29.552,48 30,47.552 30,47 C30,46.448 29.552,46 29,46" id="Fill-253" sketch:type="MSShapeGroup"></path>
                <path d="M26,45 C26.552,45 27,44.552 27,44 C27,43.448 26.552,43 26,43 C25.448,43 25,43.448 25,44 C25,44.552 25.448,45 26,45" id="Fill-254" sketch:type="MSShapeGroup"></path>
                <path d="M26,51 C26.552,51 27,50.552 27,50 C27,49.448 26.552,49 26,49 C25.448,49 25,49.448 25,50 C25,50.552 25.448,51 26,51" id="Fill-255" sketch:type="MSShapeGroup"></path>
                <path d="M5,52 C4.448,52 4,52.448 4,53 C4,53.552 4.448,54 5,54 C5.552,54 6,53.552 6,53 C6,52.448 5.552,52 5,52" id="Fill-256" sketch:type="MSShapeGroup"></path>
                <path d="M8,55 C7.448,55 7,55.448 7,56 C7,56.552 7.448,57 8,57 C8.552,57 9,56.552 9,56 C9,55.448 8.552,55 8,55" id="Fill-257" sketch:type="MSShapeGroup"></path>
                <path d="M11,52 C10.448,52 10,52.448 10,53 C10,53.552 10.448,54 11,54 C11.552,54 12,53.552 12,53 C12,52.448 11.552,52 11,52" id="Fill-258" sketch:type="MSShapeGroup"></path>
                <path d="M17,52 C16.448,52 16,52.448 16,53 C16,53.552 16.448,54 17,54 C17.552,54 18,53.552 18,53 C18,52.448 17.552,52 17,52" id="Fill-259" sketch:type="MSShapeGroup"></path>
                <path d="M14,55 C13.448,55 13,55.448 13,56 C13,56.552 13.448,57 14,57 C14.552,57 15,56.552 15,56 C15,55.448 14.552,55 14,55" id="Fill-260" sketch:type="MSShapeGroup"></path>
                <path d="M20,55 C19.448,55 19,55.448 19,56 C19,56.552 19.448,57 20,57 C20.552,57 21,56.552 21,56 C21,55.448 20.552,55 20,55" id="Fill-261" sketch:type="MSShapeGroup"></path>
                <path d="M23,54 C23.552,54 24,53.552 24,53 C24,52.448 23.552,52 23,52 C22.448,52 22,52.448 22,53 C22,53.552 22.448,54 23,54" id="Fill-262" sketch:type="MSShapeGroup"></path>
                <path d="M29,52 C28.448,52 28,52.448 28,53 C28,53.552 28.448,54 29,54 C29.552,54 30,53.552 30,53 C30,52.448 29.552,52 29,52" id="Fill-263" sketch:type="MSShapeGroup"></path>
                <path d="M26,57 C26.552,57 27,56.552 27,56 C27,55.448 26.552,55 26,55 C25.448,55 25,55.448 25,56 C25,56.552 25.448,57 26,57" id="Fill-264" sketch:type="MSShapeGroup"></path>
            </g>
        </g>
    </g>
</svg>