<?xml version="1.0" encoding="UTF-8" standalone="no"?>
<svg width="32px" height="60px" viewBox="0 0 32 60" version="1.1" xmlns="http://www.w3.org/2000/svg" xmlns:xlink="http://www.w3.org/1999/xlink" xmlns:sketch="http://www.bohemiancoding.com/sketch/ns">
    <!-- Generator: Sketch 3.2.2 (9983) - http://www.bohemiancoding.com/sketch -->
    <title>132 - Empty Battery (Solid)</title>
    <desc>Created with Sketch.</desc>
    <defs></defs>
    <g id="Page-1" stroke="none" stroke-width="1" fill="none" fill-rule="evenodd" sketch:type="MSPage">
        <g id="Icons" sketch:type="MSArtboardGroup" transform="translate(-1095.000000, -3237.000000)" fill="#000000">
            <g id="132---Empty-Battery-(Solid)" sketch:type="MSLayerGroup" transform="translate(1095.000000, 3237.000000)">
                <path d="M28.536,4 L22,4 L22,0 L10,0 L10,4 L3.464,4 C1.554,4 0,5.554 0,7.464 L0,56.536 C0,58.446 1.554,60 3.464,60 L28.536,60 C30.446,60 32,58.446 32,56.536 L32,7.464 C32,5.554 30.446,4 28.536,4 L28.536,4 Z M30,56.536 C30,57.344 29.344,58 28.536,58 L3.464,58 C2.656,58 2,57.344 2,56.536 L2,7.464 C2,6.656 2.656,6 3.464,6 L28.536,6 C29.344,6 30,6.656 30,7.464 L30,56.536 L30,56.536 Z" id="Fill-211" sketch:type="MSShapeGroup"></path>
            </g>
        </g>
    </g>
</svg>