<?xml version="1.0" encoding="UTF-8" standalone="no"?>
<svg width="32px" height="60px" viewBox="0 0 32 60" version="1.1" xmlns="http://www.w3.org/2000/svg" xmlns:xlink="http://www.w3.org/1999/xlink" xmlns:sketch="http://www.bohemiancoding.com/sketch/ns">
    <!-- Generator: Sketch 3.2.2 (9983) - http://www.bohemiancoding.com/sketch -->
    <title>135 - Full Battery (Solid)</title>
    <desc>Created with Sketch.</desc>
    <defs></defs>
    <g id="Page-1" stroke="none" stroke-width="1" fill="none" fill-rule="evenodd" sketch:type="MSPage">
        <g id="Icons" sketch:type="MSArtboardGroup" transform="translate(-734.000000, -3237.000000)" fill="#000000">
            <g id="135---Full-Battery-(Solid)" sketch:type="MSLayerGroup" transform="translate(734.000000, 3237.000000)">
                <path d="M0,19 L32,19 L32,31 L0,31 L0,19 Z" id="Fill-198" sketch:type="MSShapeGroup"></path>
                <path d="M0,33 L32,33 L32,45 L0,45 L0,33 Z" id="Fill-199" sketch:type="MSShapeGroup"></path>
                <path d="M28.536,4 L22,4 L22,0 L10,0 L10,4 L3.464,4 C1.554,4 0,5.554 0,7.464 L0,17 L32,17 L32,7.464 C32,5.554 30.446,4 28.536,4" id="Fill-200" sketch:type="MSShapeGroup"></path>
                <path d="M0,56.536 C0,58.446 1.554,60 3.464,60 L28.536,60 C30.446,60 32,58.446 32,56.536 L32,47 L0,47 L0,56.536" id="Fill-201" sketch:type="MSShapeGroup"></path>
            </g>
        </g>
    </g>
</svg>