<?xml version="1.0" encoding="UTF-8" standalone="no"?>
<svg width="60px" height="60px" viewBox="0 0 60 60" version="1.1" xmlns="http://www.w3.org/2000/svg" xmlns:xlink="http://www.w3.org/1999/xlink" xmlns:sketch="http://www.bohemiancoding.com/sketch/ns">
    <!-- Generator: Sketch 3.2.2 (9983) - http://www.bohemiancoding.com/sketch -->
    <title>14 - Ringing Phone (Solid)</title>
    <desc>Created with Sketch.</desc>
    <defs></defs>
    <g id="Page-1" stroke="none" stroke-width="1" fill="none" fill-rule="evenodd" sketch:type="MSPage">
        <g id="Icons" sketch:type="MSArtboardGroup" transform="translate(-840.000000, -4677.000000)" fill="#000000">
            <g id="14---Ringing-Phone-(Solid)" sketch:type="MSLayerGroup" transform="translate(840.000000, 4677.000000)">
                <path d="M56.612,4.57 C56.222,4.179 55.589,4.179 55.198,4.57 C54.808,4.96 54.808,5.593 55.198,5.983 C58.935,9.72 58.935,15.799 55.198,19.535 C54.808,19.926 54.808,20.559 55.198,20.949 C55.394,21.145 55.649,21.242 55.905,21.242 C56.161,21.242 56.417,21.145 56.612,20.949 C61.128,16.434 61.128,9.085 56.612,4.57" id="Fill-1315" sketch:type="MSShapeGroup"></path>
                <path d="M52.401,6.845 C52.011,6.454 51.378,6.454 50.987,6.845 C50.597,7.235 50.597,7.868 50.987,8.259 C52.225,9.496 52.905,11.144 52.905,12.897 C52.905,14.651 52.225,16.299 50.987,17.535 C50.597,17.926 50.597,18.559 50.987,18.949 C51.183,19.145 51.438,19.242 51.694,19.242 C51.95,19.242 52.206,19.145 52.401,18.949 C54.017,17.335 54.905,15.185 54.905,12.897 C54.905,10.609 54.017,8.459 52.401,6.845" id="Fill-1316" sketch:type="MSShapeGroup"></path>
                <path d="M4.802,5.983 C5.192,5.593 5.192,4.96 4.802,4.57 C4.411,4.179 3.778,4.179 3.388,4.57 C-1.128,9.085 -1.128,16.434 3.388,20.949 C3.583,21.145 3.839,21.242 4.095,21.242 C4.351,21.242 4.606,21.145 4.802,20.949 C5.192,20.559 5.192,19.926 4.802,19.535 C1.065,15.799 1.065,9.72 4.802,5.983" id="Fill-1317" sketch:type="MSShapeGroup"></path>
                <path d="M9.013,6.569 C8.622,6.179 7.989,6.179 7.599,6.569 C5.983,8.184 5.095,10.333 5.095,12.621 C5.095,14.909 5.983,17.059 7.599,18.674 C7.794,18.869 8.05,18.967 8.306,18.967 C8.562,18.967 8.817,18.869 9.013,18.674 C9.403,18.283 9.403,17.65 9.013,17.26 C7.775,16.022 7.095,14.375 7.095,12.621 C7.095,10.867 7.775,9.219 9.013,7.983 C9.403,7.593 9.403,6.96 9.013,6.569" id="Fill-1318" sketch:type="MSShapeGroup"></path>
                <path d="M30,51 C28.897,51 28,51.897 28,53 C28,54.102 28.897,55 30,55 C31.103,55 32,54.102 32,53 C32,51.897 31.103,51 30,51" id="Fill-1319" sketch:type="MSShapeGroup"></path>
                <path d="M42.595,0 L17.405,0 C14.976,0 13,1.977 13,4.406 L13,55.595 C13,58.023 14.976,60 17.405,60 L42.595,60 C45.024,60 47,58.023 47,55.595 L47,4.406 C47,1.977 45.024,0 42.595,0 L42.595,0 Z M33,3 L34,3 C34.552,3 35,3.447 35,4 C35,4.553 34.552,5 34,5 L33,5 C32.448,5 32,4.553 32,4 C32,3.447 32.448,3 33,3 L33,3 Z M26,3 L30,3 C30.552,3 31,3.447 31,4 C31,4.553 30.552,5 30,5 L26,5 C25.448,5 25,4.553 25,4 C25,3.447 25.448,3 26,3 L26,3 Z M30,57 C27.794,57 26,55.206 26,53 C26,50.794 27.794,49 30,49 C32.206,49 34,50.794 34,53 C34,55.206 32.206,57 30,57 L30,57 Z M15,8 L45,8 L45,46 L15,46 L15,8 Z" id="Fill-1320" sketch:type="MSShapeGroup"></path>
            </g>
        </g>
    </g>
</svg>