<?xml version="1.0" encoding="UTF-8" standalone="no"?>
<svg width="32px" height="60px" viewBox="0 0 32 60" version="1.1" xmlns="http://www.w3.org/2000/svg" xmlns:xlink="http://www.w3.org/1999/xlink" xmlns:sketch="http://www.bohemiancoding.com/sketch/ns">
    <!-- Generator: Sketch 3.2.2 (9983) - http://www.bohemiancoding.com/sketch -->
    <title>140 - Charging Battery (Solid)</title>
    <desc>Created with Sketch.</desc>
    <defs></defs>
    <g id="Page-1" stroke="none" stroke-width="1" fill="none" fill-rule="evenodd" sketch:type="MSPage">
        <g id="Icons" sketch:type="MSArtboardGroup" transform="translate(-131.000000, -3237.000000)" fill="#000000">
            <g id="140---Charging-Battery-(Solid)" sketch:type="MSLayerGroup" transform="translate(131.000000, 3237.000000)">
                <path d="M28.536,4 L22,4 L22,0 L10,0 L10,4 L3.464,4 C1.554,4 0,5.554 0,7.464 L0,56.536 C0,58.446 1.554,60 3.464,60 L28.536,60 C30.446,60 32,58.446 32,56.536 L32,7.464 C32,5.554 30.446,4 28.536,4 L28.536,4 Z M30,56.536 C30,57.344 29.343,58 28.536,58 L3.464,58 C2.657,58 2,57.344 2,56.536 L2,7.464 C2,6.656 2.657,6 3.464,6 L28.536,6 C29.343,6 30,6.656 30,7.464 L30,56.536 L30,56.536 Z" id="Fill-195" sketch:type="MSShapeGroup"></path>
                <path d="M23,29 L20,29 L20,17.108 C20.013,16.849 19.931,16.594 19.764,16.389 C19.382,15.922 18.5,15.926 18.122,16.393 L18.049,16.495 L8.15,32.474 C7.959,32.782 7.95,33.17 8.127,33.486 C8.303,33.804 8.637,34 9,34 L13,34 L13.002,46.929 L13.003,46.929 C13.004,47.164 13.081,47.407 13.218,47.586 C13.407,47.833 13.747,48 14.058,48 C14.362,48 14.693,47.84 14.883,47.602 L14.986,47.442 L23.886,30.464 C24.048,30.154 24.037,29.782 23.856,29.482 C23.674,29.183 23.35,29 23,29" id="Fill-196" sketch:type="MSShapeGroup"></path>
            </g>
        </g>
    </g>
</svg>