<?xml version="1.0" encoding="UTF-8" standalone="no"?>
<svg width="60px" height="44px" viewBox="0 0 60 44" version="1.1" xmlns="http://www.w3.org/2000/svg" xmlns:xlink="http://www.w3.org/1999/xlink" xmlns:sketch="http://www.bohemiancoding.com/sketch/ns">
    <!-- Generator: Sketch 3.2.2 (9983) - http://www.bohemiancoding.com/sketch -->
    <title>141 - ID (Solid)</title>
    <desc>Created with Sketch.</desc>
    <defs></defs>
    <g id="Page-1" stroke="none" stroke-width="1" fill="none" fill-rule="evenodd" sketch:type="MSPage">
        <g id="Icons" sketch:type="MSArtboardGroup" transform="translate(-1200.000000, -3129.000000)" fill="#000000">
            <g id="141---ID-(Solid)" sketch:type="MSLayerGroup" transform="translate(1200.000000, 3129.000000)">
                <path d="M55.783,0 L4.217,0 C1.892,0 0,1.892 0,4.217 L0,39.783 C0,42.108 1.892,44 4.217,44 L55.783,44 C58.108,44 60,42.108 60,39.783 L60,4.217 C60,1.892 58.108,0 55.783,0 L55.783,0 Z M58,39.783 C58,41.006 57.006,42 55.783,42 L4.217,42 C2.994,42 2,41.006 2,39.783 L2,15 L58,15 L58,39.783 L58,39.783 Z M2,5 L2,4.217 C2,2.994 2.994,2 4.217,2 L55.783,2 C57.006,2 58,2.994 58,4.217 L58,5 L2,5 L2,5 Z" id="Fill-570" sketch:type="MSShapeGroup"></path>
                <path d="M50.649,39 L55,39 L55,17 L33,17 L33,39 L50.649,39 L50.649,39 Z M35,19 L53,19 L53,37 L50.997,37 C50.979,35.805 50.311,34.734 49.246,34.201 L47.124,33.118 C48.098,32.495 48.8,31.558 49.218,30.318 C49.902,29.901 50.333,29.159 50.333,28.333 L50.333,27.666 C50.333,26.989 50.038,26.358 49.54,25.921 C49.183,24.022 47.896,21.97 44,21.97 C43.847,21.97 43.696,21.976 43.55,21.987 C42.821,22.05 42.125,21.895 41.613,21.549 C41.309,21.345 41.155,21.187 41.077,21.088 C40.658,20.556 39.785,20.535 39.34,21.035 C39.126,21.274 39.024,21.597 39.061,21.917 C39.09,22.174 39.134,22.474 39.199,22.803 C39.283,23.224 39.289,23.344 39.285,23.376 C39.276,23.411 39.219,23.535 39.173,23.635 C39.103,23.785 39.017,23.97 38.916,24.217 C38.698,24.745 38.541,25.321 38.445,25.937 C37.955,26.373 37.667,26.998 37.667,27.666 L37.667,28.333 C37.667,29.159 38.098,29.901 38.782,30.318 C39.199,31.553 39.897,32.488 40.865,33.11 L38.66,34.197 C37.636,34.758 37,35.829 37,36.995 L37,37 L35,37 L35,19 L35,19 Z" id="Fill-571" sketch:type="MSShapeGroup"></path>
                <path d="M6,21 L15,21 C15.553,21 16,20.553 16,20 C16,19.447 15.553,19 15,19 L6,19 C5.447,19 5,19.447 5,20 C5,20.553 5.447,21 6,21" id="Fill-572" sketch:type="MSShapeGroup"></path>
                <path d="M19,21 L28,21 C28.553,21 29,20.553 29,20 C29,19.447 28.553,19 28,19 L19,19 C18.447,19 18,19.447 18,20 C18,20.553 18.447,21 19,21" id="Fill-573" sketch:type="MSShapeGroup"></path>
                <path d="M6,26 L7,26 C7.553,26 8,25.553 8,25 C8,24.447 7.553,24 7,24 L6,24 C5.447,24 5,24.447 5,25 C5,25.553 5.447,26 6,26" id="Fill-574" sketch:type="MSShapeGroup"></path>
                <path d="M13,26 C13.553,26 14,25.553 14,25 C14,24.447 13.553,24 13,24 L11,24 C10.447,24 10,24.447 10,25 C10,25.553 10.447,26 11,26 L13,26" id="Fill-575" sketch:type="MSShapeGroup"></path>
                <path d="M17,26 L18,26 C18.553,26 19,25.553 19,25 C19,24.447 18.553,24 18,24 L17,24 C16.447,24 16,24.447 16,25 C16,25.553 16.447,26 17,26" id="Fill-576" sketch:type="MSShapeGroup"></path>
                <path d="M24,26 C24.553,26 25,25.553 25,25 C25,24.447 24.553,24 24,24 L22,24 C21.447,24 21,24.447 21,25 C21,25.553 21.447,26 22,26 L24,26" id="Fill-577" sketch:type="MSShapeGroup"></path>
                <path d="M27.29,24.29 C27.109,24.479 27,24.729 27,25 C27,25.27 27.109,25.52 27.29,25.71 C27.479,25.89 27.74,26 28,26 C28.26,26 28.52,25.89 28.71,25.71 C28.89,25.52 29,25.26 29,25 C29,24.74 28.89,24.479 28.71,24.29 C28.34,23.92 27.66,23.92 27.29,24.29" id="Fill-578" sketch:type="MSShapeGroup"></path>
                <path d="M11.651,29.4 C9.46,30.541 8.723,32.721 8.455,34.982 C8.041,34.636 7.627,34.289 7.214,33.942 C6.232,33.12 4.81,34.527 5.799,35.357 C6.735,36.14 7.67,36.924 8.605,37.707 C9.267,38.262 10.282,37.918 10.313,37 C10.385,34.833 10.49,32.257 12.661,31.127 C13.805,30.532 12.794,28.806 11.651,29.4" id="Fill-579" sketch:type="MSShapeGroup"></path>
                <path d="M25.181,32.392 C23.724,32.283 21.224,34.367 20.189,32.524 C19.927,32.057 19.28,31.884 18.821,32.166 C17.405,33.035 15.555,34.284 14.065,32.666 C13.19,31.715 11.78,33.133 12.651,34.08 C14.522,36.113 16.935,35.49 19.058,34.339 C19.506,34.82 20.041,35.148 20.754,35.406 C21.663,35.734 24.841,34.186 25.087,34.523 C25.839,35.553 27.576,34.557 26.814,33.513 C26.391,32.934 25.955,32.451 25.181,32.392" id="Fill-580" sketch:type="MSShapeGroup"></path>
            </g>
        </g>
    </g>
</svg>