<?xml version="1.0" encoding="UTF-8" standalone="no"?>
<svg width="60px" height="44px" viewBox="0 0 60 44" version="1.1" xmlns="http://www.w3.org/2000/svg" xmlns:xlink="http://www.w3.org/1999/xlink" xmlns:sketch="http://www.bohemiancoding.com/sketch/ns">
    <!-- Generator: Sketch 3.2.2 (9983) - http://www.bohemiancoding.com/sketch -->
    <title>142 - Driver License (Solid)</title>
    <desc>Created with Sketch.</desc>
    <defs></defs>
    <g id="Page-1" stroke="none" stroke-width="1" fill="none" fill-rule="evenodd" sketch:type="MSPage">
        <g id="Icons" sketch:type="MSArtboardGroup" transform="translate(-1080.000000, -3129.000000)" fill="#000000">
            <g id="142---Driver-License-(Solid)" sketch:type="MSLayerGroup" transform="translate(1080.000000, 3129.000000)">
                <path d="M55.783,0 L4.217,0 C1.892,0 0,1.892 0,4.217 L0,39.783 C0,42.108 1.892,44 4.217,44 L55.783,44 C58.108,44 60,42.108 60,39.783 L60,4.217 C60,1.892 58.108,0 55.783,0 L55.783,0 Z M58,39.783 C58,41.006 57.006,42 55.783,42 L4.217,42 C2.994,42 2,41.006 2,39.783 L2,4.217 C2,2.994 2.994,2 4.217,2 L55.783,2 C57.006,2 58,2.994 58,4.217 L58,39.783 L58,39.783 Z" id="Fill-1078" sketch:type="MSShapeGroup"></path>
                <path d="M22.642,28.248 L19,26.388 L19,26.001 C20.628,25.112 21.773,23.648 22.412,21.637 C23.381,21.123 24,20.122 24,19 L24,18 C24,17.074 23.569,16.215 22.849,15.651 C22.225,11.871 19.587,9.955 15,9.955 C14.783,9.955 14.571,9.963 14.364,9.98 C13.162,10.076 12.001,9.817 11.141,9.239 C10.732,8.963 10.423,8.695 10.226,8.446 C9.781,7.878 8.857,7.854 8.383,8.385 C8.156,8.639 8.049,8.98 8.089,9.32 C8.131,9.694 8.194,10.129 8.289,10.607 C8.482,11.581 8.482,11.581 8.211,12.164 C8.109,12.385 7.983,12.654 7.835,13.017 C7.504,13.827 7.269,14.716 7.134,15.664 C6.424,16.229 6,17.083 6,18 L6,19 C6,20.122 6.619,21.123 7.588,21.637 C8.227,23.648 9.372,25.112 11,26.001 L11,26.377 L7.231,28.235 C5.855,28.985 5,30.425 5,31.993 L5,33.318 C5,34.121 5,36 15,36 C25,36 25,34.121 25,33.318 L25,32.073 C25,30.441 24.094,28.974 22.642,28.248" id="Fill-1079" sketch:type="MSShapeGroup"></path>
                <path d="M30,15 L40,15 C40.553,15 41,14.553 41,14 C41,13.447 40.553,13 40,13 L30,13 C29.447,13 29,13.447 29,14 C29,14.553 29.447,15 30,15" id="Fill-1080" sketch:type="MSShapeGroup"></path>
                <path d="M44,15 L45,15 C45.553,15 46,14.553 46,14 C46,13.447 45.553,13 45,13 L44,13 C43.447,13 43,13.447 43,14 C43,14.553 43.447,15 44,15" id="Fill-1081" sketch:type="MSShapeGroup"></path>
                <path d="M31,30 L30,30 C29.447,30 29,30.447 29,31 C29,31.553 29.447,32 30,32 L31,32 C31.553,32 32,31.553 32,31 C32,30.447 31.553,30 31,30" id="Fill-1082" sketch:type="MSShapeGroup"></path>
                <path d="M37,30 L35,30 C34.447,30 34,30.447 34,31 C34,31.553 34.447,32 35,32 L37,32 C37.553,32 38,31.553 38,31 C38,30.447 37.553,30 37,30" id="Fill-1083" sketch:type="MSShapeGroup"></path>
                <path d="M42,30 L41,30 C40.447,30 40,30.447 40,31 C40,31.553 40.447,32 41,32 L42,32 C42.553,32 43,31.553 43,31 C43,30.447 42.553,30 42,30" id="Fill-1084" sketch:type="MSShapeGroup"></path>
                <path d="M48,30 L46,30 C45.447,30 45,30.447 45,31 C45,31.553 45.447,32 46,32 L48,32 C48.553,32 49,31.553 49,31 C49,30.447 48.553,30 48,30" id="Fill-1085" sketch:type="MSShapeGroup"></path>
                <path d="M51.29,30.29 C51.109,30.479 51,30.74 51,31 C51,31.26 51.109,31.52 51.29,31.71 C51.479,31.89 51.74,32 52,32 C52.26,32 52.52,31.89 52.71,31.71 C52.89,31.52 53,31.26 53,31 C53,30.74 52.89,30.479 52.71,30.29 C52.33,29.92 51.66,29.92 51.29,30.29" id="Fill-1086" sketch:type="MSShapeGroup"></path>
                <path d="M52,19 L30,19 C29.447,19 29,19.447 29,20 C29,20.553 29.447,21 30,21 L52,21 C52.553,21 53,20.553 53,20 C53,19.447 52.553,19 52,19" id="Fill-1087" sketch:type="MSShapeGroup"></path>
                <path d="M52,25 L30,25 C29.447,25 29,25.447 29,26 C29,26.553 29.447,27 30,27 L52,27 C52.553,27 53,26.553 53,26 C53,25.447 52.553,25 52,25" id="Fill-1088" sketch:type="MSShapeGroup"></path>
            </g>
        </g>
    </g>
</svg>