<?xml version="1.0" encoding="UTF-8" standalone="no"?>
<svg width="46px" height="54px" viewBox="0 0 46 54" version="1.1" xmlns="http://www.w3.org/2000/svg" xmlns:xlink="http://www.w3.org/1999/xlink" xmlns:sketch="http://www.bohemiancoding.com/sketch/ns">
    <!-- Generator: Sketch 3.2.2 (9983) - http://www.bohemiancoding.com/sketch -->
    <title>147 - Time Flies (Solid)</title>
    <desc>Created with Sketch.</desc>
    <defs></defs>
    <g id="Page-1" stroke="none" stroke-width="1" fill="none" fill-rule="evenodd" sketch:type="MSPage">
        <g id="Icons" sketch:type="MSArtboardGroup" transform="translate(-483.000000, -3119.000000)" fill="#000000">
            <g id="147---Time-Flies-(Solid)" sketch:type="MSLayerGroup" transform="translate(483.000000, 3119.000000)">
                <path d="M30,31 C30.552,31 31,30.552 31,30 C31,29.448 30.552,29 30,29 C29.448,29 29,29.448 29,30 C29,30.552 29.448,31 30,31" id="Fill-530" sketch:type="MSShapeGroup"></path>
                <path d="M32,18 C31.448,18 31,18.448 31,19 C31,19.552 31.448,20 32,20 C32.552,20 33,19.552 33,19 C33,18.448 32.552,18 32,18" id="Fill-531" sketch:type="MSShapeGroup"></path>
                <path d="M36,20 C36.552,20 37,19.552 37,19 C37,18.448 36.552,18 36,18 C35.448,18 35,18.448 35,19 C35,19.552 35.448,20 36,20" id="Fill-532" sketch:type="MSShapeGroup"></path>
                <path d="M34,16 C33.448,16 33,16.448 33,17 C33,17.552 33.448,18 34,18 C34.552,18 35,17.552 35,17 C35,16.448 34.552,16 34,16" id="Fill-533" sketch:type="MSShapeGroup"></path>
                <path d="M36,16 C36.552,16 37,15.552 37,15 C37,14.448 36.552,14 36,14 C35.448,14 35,14.448 35,15 C35,15.552 35.448,16 36,16" id="Fill-534" sketch:type="MSShapeGroup"></path>
                <path d="M32,24 C32.552,24 33,23.552 33,23 C33,22.448 32.552,22 32,22 C31.448,22 31,22.448 31,23 C31,23.552 31.448,24 32,24" id="Fill-535" sketch:type="MSShapeGroup"></path>
                <path d="M30,20 C29.448,20 29,20.448 29,21 C29,21.552 29.448,22 30,22 C30.552,22 31,21.552 31,21 C31,20.448 30.552,20 30,20" id="Fill-536" sketch:type="MSShapeGroup"></path>
                <path d="M34,22 C34.552,22 35,21.552 35,21 C35,20.448 34.552,20 34,20 C33.448,20 33,20.448 33,21 C33,21.552 33.448,22 34,22" id="Fill-537" sketch:type="MSShapeGroup"></path>
                <path d="M30,34 C30.552,34 31,33.552 31,33 C31,32.448 30.552,32 30,32 C29.448,32 29,32.448 29,33 C29,33.552 29.448,34 30,34" id="Fill-538" sketch:type="MSShapeGroup"></path>
                <path d="M30,37 C30.552,37 31,36.552 31,36 C31,35.448 30.552,35 30,35 C29.448,35 29,35.448 29,36 C29,36.552 29.448,37 30,37" id="Fill-539" sketch:type="MSShapeGroup"></path>
                <path d="M30,40 C30.552,40 31,39.552 31,39 C31,38.448 30.552,38 30,38 C29.448,38 29,38.448 29,39 C29,39.552 29.448,40 30,40" id="Fill-540" sketch:type="MSShapeGroup"></path>
                <path d="M30,43 C30.552,43 31,42.552 31,42 C31,41.448 30.552,41 30,41 C29.448,41 29,41.448 29,42 C29,42.552 29.448,43 30,43" id="Fill-541" sketch:type="MSShapeGroup"></path>
                <path d="M30,46 C30.552,46 31,45.552 31,45 C31,44.448 30.552,44 30,44 C29.448,44 29,44.448 29,45 C29,45.552 29.448,46 30,46" id="Fill-542" sketch:type="MSShapeGroup"></path>
                <path d="M21,7 L16,7 C14.896,7 14,7.896 14,9 C14,10.104 14.896,11 16,11 L21,11 C22.105,11 23,10.104 23,9 C23,7.896 22.105,7 21,7" id="Fill-543" sketch:type="MSShapeGroup"></path>
                <path d="M21,14 L11,14 C9.896,14 9,14.896 9,16 C9,17.104 9.896,18 11,18 L21,18 C22.105,18 23,17.104 23,16 C23,14.896 22.105,14 21,14" id="Fill-544" sketch:type="MSShapeGroup"></path>
                <path d="M21,21 L6,21 C4.896,21 4,21.896 4,23 C4,24.105 4.896,25 6,25 L21,25 C22.105,25 23,24.105 23,23 C23,21.896 22.105,21 21,21" id="Fill-545" sketch:type="MSShapeGroup"></path>
                <path d="M21,28 L2,28 C0.896,28 0,28.896 0,30 C0,31.104 0.896,32 2,32 L21,32 C22.105,32 23,31.104 23,30 C23,28.896 22.105,28 21,28" id="Fill-546" sketch:type="MSShapeGroup"></path>
                <path d="M21,35 L8,35 C6.896,35 6,35.896 6,37 C6,38.104 6.896,39 8,39 L21,39 C22.105,39 23,38.104 23,37 C23,35.896 22.105,35 21,35" id="Fill-547" sketch:type="MSShapeGroup"></path>
                <path d="M21,42 L14,42 C12.896,42 12,42.896 12,44 C12,45.105 12.896,46 14,46 L21,46 C22.105,46 23,45.105 23,44 C23,42.896 22.105,42 21,42" id="Fill-548" sketch:type="MSShapeGroup"></path>
                <path d="M46,9 L46,0 L27,0 C25.896,0 25,0.896 25,2 C25,3.105 25.896,4 27,4 L42,4 L42,9 C42,16.082 37.78,22.417 31.248,25.147 C31.12,25.199 30.998,25.265 30.883,25.342 L30.792,25.416 L30.584,25.589 L30.472,25.723 L30.338,25.89 L30.211,26.124 L30.154,26.23 L30.152,26.236 C30.102,26.356 30.064,26.482 30.039,26.611 L30.02,26.789 L30,27 L30.02,27.211 L30.039,27.389 C30.064,27.518 30.102,27.644 30.152,27.764 L30.154,27.77 L30.163,27.785 C30.231,27.943 30.324,28.089 30.431,28.226 L30.51,28.323 C30.622,28.45 30.747,28.567 30.892,28.663 L30.957,28.698 C31.045,28.752 31.133,28.805 31.231,28.846 C37.773,31.571 42,37.912 42,45 L42,50 L27,50 C25.896,50 25,50.896 25,52 C25,53.104 25.896,54 27,54 L46,54 L46,45 C46,37.623 42.264,30.917 36.239,27 C42.264,23.083 46,16.377 46,9" id="Fill-549" sketch:type="MSShapeGroup"></path>
            </g>
        </g>
    </g>
</svg>