<?xml version="1.0" encoding="UTF-8" standalone="no"?>
<svg width="50px" height="60px" viewBox="0 0 50 60" version="1.1" xmlns="http://www.w3.org/2000/svg" xmlns:xlink="http://www.w3.org/1999/xlink" xmlns:sketch="http://www.bohemiancoding.com/sketch/ns">
    <!-- Generator: Sketch 3.2.2 (9983) - http://www.bohemiancoding.com/sketch -->
    <title>148 - Time-Tracking (Solid)</title>
    <desc>Created with Sketch.</desc>
    <defs></defs>
    <g id="Page-1" stroke="none" stroke-width="1" fill="none" fill-rule="evenodd" sketch:type="MSPage">
        <g id="Icons" sketch:type="MSArtboardGroup" transform="translate(-365.000000, -3117.000000)" fill="#1A1718">
            <g id="148---Time-Tracking-(Solid)" sketch:type="MSLayerGroup" transform="translate(365.000000, 3117.000000)">
                <path d="M25,25 C24.448,25 24,25.448 24,26 C24,26.552 24.448,27 25,27 C25.552,27 26,26.552 26,26 C26,25.448 25.552,25 25,25" id="Fill-512" sketch:type="MSShapeGroup"></path>
                <path d="M28,23 C27.448,23 27,23.448 27,24 C27,24.552 27.448,25 28,25 C28.552,25 29,24.552 29,24 C29,23.448 28.552,23 28,23" id="Fill-513" sketch:type="MSShapeGroup"></path>
                <path d="M22,23 C21.448,23 21,23.448 21,24 C21,24.552 21.448,25 22,25 C22.552,25 23,24.552 23,24 C23,23.448 22.552,23 22,23" id="Fill-514" sketch:type="MSShapeGroup"></path>
                <path d="M19,21 C18.448,21 18,21.448 18,22 C18,22.552 18.448,23 19,23 C19.552,23 20,22.552 20,22 C20,21.448 19.552,21 19,21" id="Fill-515" sketch:type="MSShapeGroup"></path>
                <path d="M31,21 C30.448,21 30,21.448 30,22 C30,22.552 30.448,23 31,23 C31.552,23 32,22.552 32,22 C32,21.448 31.552,21 31,21" id="Fill-516" sketch:type="MSShapeGroup"></path>
                <path d="M34,19 C33.448,19 33,19.448 33,20 C33,20.552 33.448,21 34,21 C34.552,21 35,20.552 35,20 C35,19.448 34.552,19 34,19" id="Fill-517" sketch:type="MSShapeGroup"></path>
                <path d="M16,19 C15.448,19 15,19.448 15,20 C15,20.552 15.448,21 16,21 C16.552,21 17,20.552 17,20 C17,19.448 16.552,19 16,19" id="Fill-518" sketch:type="MSShapeGroup"></path>
                <path d="M25,21 C24.448,21 24,21.448 24,22 C24,22.552 24.448,23 25,23 C25.552,23 26,22.552 26,22 C26,21.448 25.552,21 25,21" id="Fill-519" sketch:type="MSShapeGroup"></path>
                <path d="M25,33 C24.448,33 24,33.448 24,34 C24,34.552 24.448,35 25,35 C25.552,35 26,34.552 26,34 C26,33.448 25.552,33 25,33" id="Fill-520" sketch:type="MSShapeGroup"></path>
                <path d="M25,36 C24.448,36 24,36.448 24,37 C24,37.552 24.448,38 25,38 C25.552,38 26,37.552 26,37 C26,36.448 25.552,36 25,36" id="Fill-521" sketch:type="MSShapeGroup"></path>
                <path d="M25,39 C24.448,39 24,39.448 24,40 C24,40.552 24.448,41 25,41 C25.552,41 26,40.552 26,40 C26,39.448 25.552,39 25,39" id="Fill-522" sketch:type="MSShapeGroup"></path>
                <path d="M25,42 C24.448,42 24,42.448 24,43 C24,43.552 24.448,44 25,44 C25.552,44 26,43.552 26,43 C26,42.448 25.552,42 25,42" id="Fill-523" sketch:type="MSShapeGroup"></path>
                <path d="M25,45 C24.448,45 24,45.448 24,46 C24,46.552 24.448,47 25,47 C25.552,47 26,46.552 26,46 C26,45.448 25.552,45 25,45" id="Fill-524" sketch:type="MSShapeGroup"></path>
                <path d="M25,48 C24.448,48 24,48.448 24,49 C24,49.552 24.448,50 25,50 C25.552,50 26,49.552 26,49 C26,48.448 25.552,48 25,48" id="Fill-525" sketch:type="MSShapeGroup"></path>
                <path d="M49,58 L46,58 L46,54 L41,54 L41,43.778 C41,41.078 39.658,38.57 37.411,37.072 L26.803,30 L37.411,22.928 C39.658,21.43 41,18.922 41,16.222 L41,6 L46,6 L46,2 L49,2 C49.552,2 50,1.553 50,1 C50,0.447 49.552,0 49,0 L1,0 C0.448,0 0,0.447 0,1 C0,1.553 0.448,2 1,2 L4,2 L4,6 L9,6 L9,16.222 C9,18.922 10.342,21.43 12.589,22.928 L23.197,30 L12.589,37.072 C10.342,38.57 9,41.078 9,43.778 L9,54 L4,54 L4,58 L1,58 C0.448,58 0,58.447 0,59 C0,59.553 0.448,60 1,60 L49,60 C49.552,60 50,59.553 50,59 C50,58.447 49.552,58 49,58 L49,58 Z M13.698,21.264 C12.009,20.137 11,18.252 11,16.222 L11,6 L39,6 L39,16.222 C39,18.252 37.991,20.137 36.302,21.264 L25,28.798 L13.698,21.264 L13.698,21.264 Z M11,43.778 C11,41.748 12.009,39.863 13.698,38.736 L25,31.202 L36.302,38.736 C37.991,39.863 39,41.748 39,43.778 L39,54 L11,54 L11,43.778 L11,43.778 Z" id="Fill-526" sketch:type="MSShapeGroup"></path>
            </g>
        </g>
    </g>
</svg>