<?xml version="1.0" encoding="UTF-8" standalone="no"?>
<svg width="55px" height="60px" viewBox="0 0 55 60" version="1.1" xmlns="http://www.w3.org/2000/svg" xmlns:xlink="http://www.w3.org/1999/xlink" xmlns:sketch="http://www.bohemiancoding.com/sketch/ns">
    <!-- Generator: Sketch 3.2.2 (9983) - http://www.bohemiancoding.com/sketch -->
    <title>15 - Phone Transfer In (Solid)</title>
    <desc>Created with Sketch.</desc>
    <defs></defs>
    <g id="Page-1" stroke="none" stroke-width="1" fill="none" fill-rule="evenodd" sketch:type="MSPage">
        <g id="Icons" sketch:type="MSArtboardGroup" transform="translate(-722.000000, -4677.000000)" fill="#000000">
            <g id="15---Phone-Transfer-In-(Solid)" sketch:type="MSLayerGroup" transform="translate(722.000000, 4677.000000)">
                <path d="M17,51 C15.897,51 15,51.897 15,53 C15,54.102 15.897,55 17,55 C18.103,55 19,54.102 19,53 C19,51.897 18.103,51 17,51" id="Fill-471" sketch:type="MSShapeGroup"></path>
                <path d="M32,32 L32,46 L2,46 L2,8 L32,8 L32,21 L34,21 L34,4.406 C34,1.977 32.024,0 29.595,0 L4.405,0 C1.976,0 0,1.977 0,4.406 L0,55.595 C0,58.023 1.976,60 4.405,60 L29.595,60 C32.024,60 34,58.023 34,55.595 L34,32 L32,32 L32,32 Z M20,3 L21,3 C21.552,3 22,3.447 22,4 C22,4.553 21.552,5 21,5 L20,5 C19.448,5 19,4.553 19,4 C19,3.447 19.448,3 20,3 L20,3 Z M13,3 L17,3 C17.552,3 18,3.447 18,4 C18,4.553 17.552,5 17,5 L13,5 C12.448,5 12,4.553 12,4 C12,3.447 12.448,3 13,3 L13,3 Z M17,57 C14.794,57 13,55.206 13,53 C13,50.794 14.794,49 17,49 C19.206,49 21,50.794 21,53 C21,55.206 19.206,57 17,57 L17,57 Z" id="Fill-472" sketch:type="MSShapeGroup"></path>
                <path d="M15,25 L53,25 C54.104,25 55,25.895 55,27 C55,28.104 54.104,29 53,29 L15,29 C13.896,29 13,28.104 13,27 C13,25.895 13.896,25 15,25" id="Fill-473" sketch:type="MSShapeGroup"></path>
                <path d="M15,25 C15.512,25 16.023,25.196 16.414,25.586 L28.414,37.586 C29.195,38.367 29.195,39.633 28.414,40.414 C27.634,41.195 26.366,41.195 25.586,40.414 L13.586,28.414 C12.805,27.633 12.805,26.367 13.586,25.586 C13.977,25.196 14.488,25 15,25" id="Fill-474" sketch:type="MSShapeGroup"></path>
                <path d="M27,13 C27.512,13 28.024,13.196 28.414,13.586 C29.195,14.367 29.195,15.633 28.414,16.414 L16.414,28.414 C15.633,29.195 14.367,29.195 13.586,28.414 C12.805,27.633 12.805,26.367 13.586,25.586 L25.586,13.586 C25.976,13.196 26.488,13 27,13" id="Fill-475" sketch:type="MSShapeGroup"></path>
                <path d="M15,25 L53,25 C54.104,25 55,25.895 55,27 C55,28.104 54.104,29 53,29 L15,29 C13.896,29 13,28.104 13,27 C13,25.895 13.896,25 15,25" id="Fill-476" sketch:type="MSShapeGroup"></path>
                <path d="M15,25 C15.512,25 16.023,25.196 16.414,25.586 L28.414,37.586 C29.195,38.367 29.195,39.633 28.414,40.414 C27.634,41.195 26.366,41.195 25.586,40.414 L13.586,28.414 C12.805,27.633 12.805,26.367 13.586,25.586 C13.977,25.196 14.488,25 15,25" id="Fill-477" sketch:type="MSShapeGroup"></path>
                <path d="M27,13 C27.512,13 28.024,13.196 28.414,13.586 C29.195,14.367 29.195,15.633 28.414,16.414 L16.414,28.414 C15.633,29.195 14.367,29.195 13.586,28.414 C12.805,27.633 12.805,26.367 13.586,25.586 L25.586,13.586 C25.976,13.196 26.488,13 27,13" id="Fill-478" sketch:type="MSShapeGroup"></path>
            </g>
        </g>
    </g>
</svg>