<?xml version="1.0" encoding="UTF-8" standalone="no"?>
<svg width="46px" height="60px" viewBox="0 0 46 60" version="1.1" xmlns="http://www.w3.org/2000/svg" xmlns:xlink="http://www.w3.org/1999/xlink" xmlns:sketch="http://www.bohemiancoding.com/sketch/ns">
    <!-- Generator: Sketch 3.2.2 (9983) - http://www.bohemiancoding.com/sketch -->
    <title>150 - Time-Tracking (Solid)</title>
    <desc>Created with Sketch.</desc>
    <defs></defs>
    <g id="Page-1" stroke="none" stroke-width="1" fill="none" fill-rule="evenodd" sketch:type="MSPage">
        <g id="Icons" sketch:type="MSArtboardGroup" transform="translate(-128.000000, -3117.000000)" fill="#000000">
            <g id="150---Time-Tracking-(Solid)" sketch:type="MSLayerGroup" transform="translate(128.000000, 3117.000000)">
                <path d="M43,54 L38,54 L38,48 C38,40.409 33.853,33.56 27.286,30 C33.853,26.44 38,19.591 38,12 L38,6 L43,6 C44.654,6 46,4.654 46,3 C46,1.346 44.654,0 43,0 L3,0 C1.346,0 0,1.346 0,3 C0,4.654 1.346,6 3,6 L8,6 L8,12 C8,19.591 12.147,26.44 18.714,30 C12.147,33.56 8,40.409 8,48 L8,54 L3,54 C1.346,54 0,55.346 0,57 C0,58.654 1.346,60 3,60 L43,60 C44.654,60 46,58.654 46,57 C46,55.346 44.654,54 43,54 L43,54 Z M10,12 L10,6 L36,6 L36,12 C36,19.427 31.609,26.078 24.797,29 L21.203,29 C14.391,26.078 10,19.427 10,12 L10,12 Z M10,48 C10,40.573 14.391,33.922 21.203,31 L24.797,31 C31.609,33.922 36,40.573 36,48 L36,54 C36,53.448 35.552,53 35,53 C34.448,53 34,53.448 34,54 L32,54 C32,53.448 31.552,53 31,53 C30.448,53 30,53.448 30,54 L28,54 C28,53.448 27.552,53 27,53 C26.448,53 26,53.448 26,54 L24,54 C24,53.448 23.552,53 23,53 C22.448,53 22,53.448 22,54 L20,54 C20,53.448 19.552,53 19,53 C18.448,53 18,53.448 18,54 L16,54 C16,53.448 15.552,53 15,53 C14.448,53 14,53.448 14,54 L12,54 C12,53.448 11.552,53 11,53 C10.448,53 10,53.448 10,54 L10,48 L10,48 Z" id="Fill-481" sketch:type="MSShapeGroup"></path>
                <path d="M13,53 C13.552,53 14,52.552 14,52 C14,51.448 13.552,51 13,51 C12.448,51 12,51.448 12,52 C12,52.552 12.448,53 13,53" id="Fill-482" sketch:type="MSShapeGroup"></path>
                <path d="M17,53 C17.552,53 18,52.552 18,52 C18,51.448 17.552,51 17,51 C16.448,51 16,51.448 16,52 C16,52.552 16.448,53 17,53" id="Fill-483" sketch:type="MSShapeGroup"></path>
                <path d="M21,53 C21.552,53 22,52.552 22,52 C22,51.448 21.552,51 21,51 C20.448,51 20,51.448 20,52 C20,52.552 20.448,53 21,53" id="Fill-484" sketch:type="MSShapeGroup"></path>
                <path d="M25,53 C25.552,53 26,52.552 26,52 C26,51.448 25.552,51 25,51 C24.448,51 24,51.448 24,52 C24,52.552 24.448,53 25,53" id="Fill-485" sketch:type="MSShapeGroup"></path>
                <path d="M29,53 C29.552,53 30,52.552 30,52 C30,51.448 29.552,51 29,51 C28.448,51 28,51.448 28,52 C28,52.552 28.448,53 29,53" id="Fill-486" sketch:type="MSShapeGroup"></path>
                <path d="M33,53 C33.552,53 34,52.552 34,52 C34,51.448 33.552,51 33,51 C32.448,51 32,51.448 32,52 C32,52.552 32.448,53 33,53" id="Fill-487" sketch:type="MSShapeGroup"></path>
                <path d="M15,51 C15.552,51 16,50.552 16,50 C16,49.448 15.552,49 15,49 C14.448,49 14,49.448 14,50 C14,50.552 14.448,51 15,51" id="Fill-488" sketch:type="MSShapeGroup"></path>
                <path d="M19,51 C19.552,51 20,50.552 20,50 C20,49.448 19.552,49 19,49 C18.448,49 18,49.448 18,50 C18,50.552 18.448,51 19,51" id="Fill-489" sketch:type="MSShapeGroup"></path>
                <path d="M23,34 C23.552,34 24,33.552 24,33 C24,32.448 23.552,32 23,32 C22.448,32 22,32.448 22,33 C22,33.552 22.448,34 23,34" id="Fill-490" sketch:type="MSShapeGroup"></path>
                <path d="M17,21 C16.448,21 16,21.448 16,22 C16,22.552 16.448,23 17,23 C17.552,23 18,22.552 18,22 C18,21.448 17.552,21 17,21" id="Fill-491" sketch:type="MSShapeGroup"></path>
                <path d="M21,23 C21.552,23 22,22.552 22,22 C22,21.448 21.552,21 21,21 C20.448,21 20,21.448 20,22 C20,22.552 20.448,23 21,23" id="Fill-492" sketch:type="MSShapeGroup"></path>
                <path d="M25,23 C25.552,23 26,22.552 26,22 C26,21.448 25.552,21 25,21 C24.448,21 24,21.448 24,22 C24,22.552 24.448,23 25,23" id="Fill-493" sketch:type="MSShapeGroup"></path>
                <path d="M29,21 C28.448,21 28,21.448 28,22 C28,22.552 28.448,23 29,23 C29.552,23 30,22.552 30,22 C30,21.448 29.552,21 29,21" id="Fill-494" sketch:type="MSShapeGroup"></path>
                <path d="M27,21 C27.552,21 28,20.552 28,20 C28,19.448 27.552,19 27,19 C26.448,19 26,19.448 26,20 C26,20.552 26.448,21 27,21" id="Fill-495" sketch:type="MSShapeGroup"></path>
                <path d="M29,19 C29.552,19 30,18.552 30,18 C30,17.448 29.552,17 29,17 C28.448,17 28,17.448 28,18 C28,18.552 28.448,19 29,19" id="Fill-496" sketch:type="MSShapeGroup"></path>
                <path d="M19,21 C19.552,21 20,20.552 20,20 C20,19.448 19.552,19 19,19 C18.448,19 18,19.448 18,20 C18,20.552 18.448,21 19,21" id="Fill-497" sketch:type="MSShapeGroup"></path>
                <path d="M23,21 C23.552,21 24,20.552 24,20 C24,19.448 23.552,19 23,19 C22.448,19 22,19.448 22,20 C22,20.552 22.448,21 23,21" id="Fill-498" sketch:type="MSShapeGroup"></path>
                <path d="M17,19 C17.552,19 18,18.552 18,18 C18,17.448 17.552,17 17,17 C16.448,17 16,17.448 16,18 C16,18.552 16.448,19 17,19" id="Fill-499" sketch:type="MSShapeGroup"></path>
                <path d="M19,23 C18.448,23 18,23.448 18,24 C18,24.552 18.448,25 19,25 C19.552,25 20,24.552 20,24 C20,23.448 19.552,23 19,23" id="Fill-500" sketch:type="MSShapeGroup"></path>
                <path d="M22,26 C22,25.448 21.552,25 21,25 C20.448,25 20,25.448 20,26 C20,26.552 20.448,27 21,27 C21.552,27 22,26.552 22,26" id="Fill-501" sketch:type="MSShapeGroup"></path>
                <path d="M25,25 C24.448,25 24,25.448 24,26 C24,26.552 24.448,27 25,27 C25.552,27 26,26.552 26,26 C26,25.448 25.552,25 25,25" id="Fill-502" sketch:type="MSShapeGroup"></path>
                <path d="M23,23 C22.448,23 22,23.448 22,24 C22,24.552 22.448,25 23,25 C23.552,25 24,24.552 24,24 C24,23.448 23.552,23 23,23" id="Fill-503" sketch:type="MSShapeGroup"></path>
                <path d="M27,23 C26.448,23 26,23.448 26,24 C26,24.552 26.448,25 27,25 C27.552,25 28,24.552 28,24 C28,23.448 27.552,23 27,23" id="Fill-504" sketch:type="MSShapeGroup"></path>
                <path d="M23,37 C23.552,37 24,36.552 24,36 C24,35.448 23.552,35 23,35 C22.448,35 22,35.448 22,36 C22,36.552 22.448,37 23,37" id="Fill-505" sketch:type="MSShapeGroup"></path>
                <path d="M23,40 C23.552,40 24,39.552 24,39 C24,38.448 23.552,38 23,38 C22.448,38 22,38.448 22,39 C22,39.552 22.448,40 23,40" id="Fill-506" sketch:type="MSShapeGroup"></path>
                <path d="M23,43 C23.552,43 24,42.552 24,42 C24,41.448 23.552,41 23,41 C22.448,41 22,41.448 22,42 C22,42.552 22.448,43 23,43" id="Fill-507" sketch:type="MSShapeGroup"></path>
                <path d="M23,46 C23.552,46 24,45.552 24,45 C24,44.448 23.552,44 23,44 C22.448,44 22,44.448 22,45 C22,45.552 22.448,46 23,46" id="Fill-508" sketch:type="MSShapeGroup"></path>
                <path d="M23,49 C23.552,49 24,48.552 24,48 C24,47.448 23.552,47 23,47 C22.448,47 22,47.448 22,48 C22,48.552 22.448,49 23,49" id="Fill-509" sketch:type="MSShapeGroup"></path>
                <path d="M27,51 C27.552,51 28,50.552 28,50 C28,49.448 27.552,49 27,49 C26.448,49 26,49.448 26,50 C26,50.552 26.448,51 27,51" id="Fill-510" sketch:type="MSShapeGroup"></path>
                <path d="M31,51 C31.552,51 32,50.552 32,50 C32,49.448 31.552,49 31,49 C30.448,49 30,49.448 30,50 C30,50.552 30.448,51 31,51" id="Fill-511" sketch:type="MSShapeGroup"></path>
            </g>
        </g>
    </g>
</svg>