<?xml version="1.0" encoding="UTF-8" standalone="no"?>
<svg width="60px" height="48px" viewBox="0 0 60 48" version="1.1" xmlns="http://www.w3.org/2000/svg" xmlns:xlink="http://www.w3.org/1999/xlink" xmlns:sketch="http://www.bohemiancoding.com/sketch/ns">
    <!-- Generator: Sketch 3.2.2 (9983) - http://www.bohemiancoding.com/sketch -->
    <title>151 - Live News (Solid)</title>
    <desc>Created with Sketch.</desc>
    <defs></defs>
    <g id="Page-1" stroke="none" stroke-width="1" fill="none" fill-rule="evenodd" sketch:type="MSPage">
        <g id="Icons" sketch:type="MSArtboardGroup" transform="translate(-1200.000000, -3005.000000)" fill="#161819">
            <g id="151---Live-News-(Solid)" sketch:type="MSLayerGroup" transform="translate(1200.000000, 3005.000000)">
                <path d="M59,0 L1,0 C0.447,0 0,0.447 0,1 L0,39 C0,39.553 0.447,40 1,40 L27,40 L27,43 L22,43 L22,48 L38,48 L38,43 L33,43 L33,40 L59,40 C59.553,40 60,39.553 60,39 L60,1 C60,0.447 59.553,0 59,0 L59,0 Z M19.188,27.936 C19.542,27.602 19.923,27.321 20.319,27.105 L25.004,24.386 C25.17,24.295 25.364,24.202 25.584,24.097 C25.941,23.927 26.739,23.548 27,23.294 L27,21.967 C26.034,21.344 24.019,19.845 23.353,17.829 C22.793,17.437 22,16.753 22,15.789 L22,13.544 C22,13.131 22.162,12.728 22.481,12.347 C22.718,12.064 23,11.604 23,11.027 L23,10 C23.063,7.562 24.817,3 31,3 C37.183,3 38.937,7.562 39,9.974 L39,11.027 C39,11.604 39.282,12.064 39.52,12.348 C39.838,12.728 40,13.131 40,13.544 L40,15.789 C40,16.868 39.115,17.718 38.154,18.158 C37.711,19.292 37.018,20.348 36.324,21.329 C36.134,21.598 35.816,21.831 35.14,22.297 L35,22.393 L35,23.694 C35.116,23.725 35.258,23.755 35.367,23.777 C35.709,23.85 36.098,23.931 36.447,24.105 L36.543,24.16 L41.164,27.149 C41.559,27.354 41.937,27.613 42.289,27.925 L42.374,28 L19.119,28 L19.188,27.936 L19.188,27.936 Z M5,31 L12,31 L12,35 L5,35 L5,31 Z M14,31 L55,31 L55,35 L14,35 L14,31 Z M49,4 L55,4 L55,10 L49,10 L49,4 Z" id="Fill-1077" sketch:type="MSShapeGroup"></path>
            </g>
        </g>
    </g>
</svg>