<?xml version="1.0" encoding="UTF-8" standalone="no"?>
<svg width="60px" height="60px" viewBox="0 0 60 60" version="1.1" xmlns="http://www.w3.org/2000/svg" xmlns:xlink="http://www.w3.org/1999/xlink" xmlns:sketch="http://www.bohemiancoding.com/sketch/ns">
    <!-- Generator: Sketch 3.2.2 (9983) - http://www.bohemiancoding.com/sketch -->
    <title>152 - Target (Solid)</title>
    <desc>Created with Sketch.</desc>
    <defs></defs>
    <g id="Page-1" stroke="none" stroke-width="1" fill="none" fill-rule="evenodd" sketch:type="MSPage">
        <g id="Icons" sketch:type="MSArtboardGroup" transform="translate(-1080.000000, -2997.000000)" fill="#1A1718">
            <g id="152---Target-(Solid)" sketch:type="MSLayerGroup" transform="translate(1080.000000, 2997.000000)">
                <path d="M59,29 L56.975,29 C56.458,14.907 45.093,3.542 31,3.025 L31,1 C31,0.447 30.553,0 30,0 C29.447,0 29,0.447 29,1 L29,3.025 C14.907,3.542 3.542,14.907 3.025,29 L1,29 C0.447,29 0,29.447 0,30 C0,30.553 0.447,31 1,31 L3.025,31 C3.542,45.093 14.907,56.458 29,56.975 L29,59 C29,59.553 29.447,60 30,60 C30.553,60 31,59.553 31,59 L31,56.975 C45.093,56.458 56.458,45.093 56.975,31 L59,31 C59.553,31 60,30.553 60,30 C60,29.447 59.553,29 59,29 L59,29 Z M31,54.975 L31,53 C31,52.447 30.553,52 30,52 C29.447,52 29,52.447 29,53 L29,54.975 C16.01,54.46 5.54,43.99 5.025,31 L7,31 C7.553,31 8,30.553 8,30 C8,29.447 7.553,29 7,29 L5.025,29 C5.54,16.01 16.01,5.54 29,5.025 L29,7 C29,7.553 29.447,8 30,8 C30.553,8 31,7.553 31,7 L31,5.025 C43.99,5.54 54.46,16.01 54.975,29 L53,29 C52.447,29 52,29.447 52,30 C52,30.553 52.447,31 53,31 L54.975,31 C54.46,43.99 43.99,54.46 31,54.975 L31,54.975 Z" id="Fill-193" sketch:type="MSShapeGroup"></path>
                <path d="M42,29 L36.92,29 C36.479,25.941 34.059,23.521 31,23.08 L31,18 C31,17.447 30.553,17 30,17 C29.447,17 29,17.447 29,18 L29,23.08 C25.941,23.521 23.521,25.941 23.08,29 L18,29 C17.447,29 17,29.447 17,30 C17,30.553 17.447,31 18,31 L23.08,31 C23.521,34.059 25.941,36.479 29,36.92 L29,42 C29,42.553 29.447,43 30,43 C30.553,43 31,42.553 31,42 L31,36.92 C34.059,36.479 36.479,34.059 36.92,31 L42,31 C42.553,31 43,30.553 43,30 C43,29.447 42.553,29 42,29" id="Fill-194" sketch:type="MSShapeGroup"></path>
            </g>
        </g>
    </g>
</svg>