<?xml version="1.0" encoding="UTF-8" standalone="no"?>
<svg width="58px" height="58px" viewBox="0 0 58 58" version="1.1" xmlns="http://www.w3.org/2000/svg" xmlns:xlink="http://www.w3.org/1999/xlink" xmlns:sketch="http://www.bohemiancoding.com/sketch/ns">
    <!-- Generator: Sketch 3.2.2 (9983) - http://www.bohemiancoding.com/sketch -->
    <title>153 - Radar (Solid)</title>
    <desc>Created with Sketch.</desc>
    <defs></defs>
    <g id="Page-1" stroke="none" stroke-width="1" fill="none" fill-rule="evenodd" sketch:type="MSPage">
        <g id="Icons" sketch:type="MSArtboardGroup" transform="translate(-961.000000, -2998.000000)" fill="#000000">
            <g id="153---Radar-(Solid)" sketch:type="MSLayerGroup" transform="translate(961.000000, 2998.000000)">
                <path d="M50.197,9.217 L52.707,6.707 C53.098,6.316 53.098,5.684 52.707,5.293 C52.316,4.902 51.684,4.902 51.293,5.293 L48.783,7.802 C43.398,2.767 36.417,0 29.009,0 C22.965,0 17.226,1.84 12.333,5.294 C11.413,4.466 10.247,3.997 9,3.997 C7.664,3.997 6.409,4.517 5.465,5.461 C3.583,7.343 3.536,10.356 5.289,12.316 C-2.757,23.73 -1.449,39.559 8.494,49.503 C13.972,54.981 21.254,57.997 29,57.997 C36.746,57.997 44.028,54.981 49.506,49.503 C60.575,38.434 60.8,20.573 50.197,9.217 L50.197,9.217 Z M48.092,48.089 C42.992,53.189 36.212,55.997 29,55.997 C21.788,55.997 15.008,53.189 9.908,48.089 C0.665,38.844 -0.568,24.133 6.885,13.511 C7.042,13.585 7.203,13.647 7.367,13.704 L7.543,13.758 C7.79,13.833 8.04,13.892 8.298,13.928 C8.452,13.951 8.606,13.965 8.761,13.974 L9,13.997 C10.336,13.997 11.592,13.477 12.535,12.532 C12.752,12.315 12.938,12.079 13.106,11.833 C13.171,11.739 13.225,11.641 13.282,11.543 C13.371,11.393 13.454,11.24 13.525,11.081 C13.585,10.952 13.64,10.823 13.688,10.689 C13.731,10.567 13.764,10.443 13.797,10.318 C13.963,9.712 14.012,9.088 13.946,8.467 L13.931,8.302 C13.902,8.095 13.857,7.893 13.802,7.69 L13.748,7.506 C13.683,7.3 13.611,7.098 13.519,6.9 L13.513,6.883 C18.06,3.686 23.398,2 29.009,2 C35.883,2 42.362,4.559 47.369,9.216 L43.816,12.769 C39.759,9.06 34.546,7.007 29,7.007 C23.117,7.007 17.593,9.292 13.443,13.44 C4.865,22.019 4.865,35.975 13.443,44.553 C17.593,48.702 23.117,50.987 29,50.987 C34.883,50.987 40.407,48.702 44.557,44.553 C48.016,41.093 50.202,36.546 50.798,31.686 C51.636,31.462 52.412,31.041 53.042,30.411 C54.99,28.462 54.99,25.289 53.042,23.34 C52.17,22.468 51.028,21.979 49.808,21.905 C48.837,19.047 47.278,16.402 45.243,14.171 L48.782,10.631 C58.608,21.206 58.382,37.799 48.092,48.089 L48.092,48.089 Z M47.771,22.2 C47.485,22.305 47.213,22.44 46.951,22.597 L46.797,22.679 C46.503,22.869 46.224,23.086 45.971,23.34 C45.73,23.58 45.519,23.842 45.335,24.118 L45.257,24.264 C45.113,24.499 44.978,24.738 44.875,24.992 L44.865,25.025 C44.633,25.607 44.506,26.231 44.506,26.876 C44.506,27.523 44.633,28.15 44.867,28.734 L44.875,28.759 C44.978,29.013 45.113,29.254 45.258,29.489 L45.335,29.632 C45.519,29.91 45.73,30.171 45.971,30.411 C46.184,30.625 46.418,30.811 46.662,30.979 C46.761,31.048 46.867,31.104 46.971,31.165 C47.114,31.249 47.258,31.331 47.41,31.4 C47.554,31.466 47.7,31.523 47.85,31.575 C47.96,31.613 48.071,31.646 48.184,31.676 C48.369,31.727 48.554,31.772 48.745,31.801 L48.785,31.81 C48.181,36.091 46.2,40.081 43.143,43.139 C39.371,46.91 34.349,48.987 29,48.987 C23.651,48.987 18.629,46.91 14.857,43.139 C7.06,35.341 7.06,22.652 14.857,14.854 C18.629,11.084 23.651,9.007 29,9.007 C34.012,9.007 38.724,10.851 42.402,14.183 L28.293,28.29 C27.902,28.681 27.902,29.313 28.293,29.704 C28.488,29.899 28.744,29.997 29,29.997 C29.256,29.997 29.512,29.899 29.707,29.704 L43.811,15.602 C45.546,17.522 46.92,19.755 47.798,22.187 L47.771,22.2 L47.771,22.2 Z" id="Fill-1058" sketch:type="MSShapeGroup"></path>
                <path d="M31.121,31.118 C30.535,31.704 29.768,31.997 29,31.997 C28.232,31.997 27.465,31.704 26.879,31.118 C25.707,29.946 25.707,28.047 26.879,26.876 L36.544,17.212 C34.314,15.78 31.72,15.004 29,15.004 C25.256,15.004 21.74,16.458 19.101,19.098 C16.461,21.737 15.007,25.253 15.007,28.997 C15.007,32.741 16.461,36.257 19.101,38.897 C21.74,41.536 25.256,42.99 29,42.99 C32.744,42.99 36.26,41.536 38.899,38.897 C41.539,36.257 42.993,32.741 42.993,28.997 C42.993,26.278 42.217,23.684 40.786,21.454 L31.121,31.118" id="Fill-1059" sketch:type="MSShapeGroup"></path>
            </g>
        </g>
    </g>
</svg>