<?xml version="1.0" encoding="UTF-8" standalone="no"?>
<svg width="58px" height="58px" viewBox="0 0 58 58" version="1.1" xmlns="http://www.w3.org/2000/svg" xmlns:xlink="http://www.w3.org/1999/xlink" xmlns:sketch="http://www.bohemiancoding.com/sketch/ns">
    <!-- Generator: Sketch 3.2.2 (9983) - http://www.bohemiancoding.com/sketch -->
    <title>154 - Internet (Solid)</title>
    <desc>Created with Sketch.</desc>
    <defs></defs>
    <g id="Page-1" stroke="none" stroke-width="1" fill="none" fill-rule="evenodd" sketch:type="MSPage">
        <g id="Icons" sketch:type="MSArtboardGroup" transform="translate(-841.000000, -2998.000000)" fill="#000000">
            <g id="154---Internet-(Solid)" sketch:type="MSLayerGroup" transform="translate(841.000000, 2998.000000)">
                <path d="M30,28 L41.972,28 C41.849,23.652 40.94,19.433 39.308,15.523 C36.298,16.397 33.177,16.878 30,16.963 L30,28" id="Fill-956" sketch:type="MSShapeGroup"></path>
                <path d="M40.409,13.072 C43.337,12.062 46.14,10.68 48.737,8.903 L49.391,8.403 C44.614,3.673 38.205,0.595 31.096,0.084 L30.578,0.505 C34.793,3.994 38.124,8.283 40.409,13.072" id="Fill-957" sketch:type="MSShapeGroup"></path>
                <path d="M30,2.643 L30,14.963 C32.891,14.881 35.731,14.449 38.473,13.679 C36.446,9.521 33.583,5.768 30,2.643" id="Fill-958" sketch:type="MSShapeGroup"></path>
                <path d="M41.557,42.217 C44.687,43.349 47.677,44.885 50.441,46.855 L51.309,47.505 C55.286,42.72 57.748,36.639 57.975,30 L43.972,30 C43.859,34.239 43.032,38.358 41.557,42.217" id="Fill-959" sketch:type="MSShapeGroup"></path>
                <path d="M9.263,8.903 C11.86,10.681 14.663,12.062 17.591,13.072 C19.876,8.284 23.208,3.995 27.423,0.505 L26.904,0.084 C19.779,0.596 13.357,3.687 8.576,8.434 L9.263,8.903" id="Fill-960" sketch:type="MSShapeGroup"></path>
                <path d="M28,2.643 C24.417,5.769 21.554,9.521 19.527,13.679 C22.269,14.449 25.109,14.881 28,14.963 L28,2.643" id="Fill-961" sketch:type="MSShapeGroup"></path>
                <path d="M14.028,30 L0.025,30 C0.252,36.639 2.714,42.719 6.69,47.505 L7.54,46.869 C10.315,44.892 13.311,43.352 16.446,42.217 C14.968,38.356 14.141,34.238 14.028,30" id="Fill-962" sketch:type="MSShapeGroup"></path>
                <path d="M16.778,14.905 C13.741,13.841 10.832,12.4 8.134,10.554 L7.195,9.912 C2.927,14.783 0.261,21.087 0.025,28 L14.028,28 C14.149,23.44 15.086,19.012 16.778,14.905" id="Fill-963" sketch:type="MSShapeGroup"></path>
                <path d="M16.028,28 L28,28 L28,16.963 C24.821,16.878 21.699,16.397 18.691,15.525 C17.06,19.435 16.151,23.652 16.028,28" id="Fill-964" sketch:type="MSShapeGroup"></path>
                <path d="M27.322,57.406 C22.904,53.711 19.481,49.147 17.211,44.065 C14.219,45.138 11.36,46.602 8.719,48.484 L8.03,49 C12.804,54.003 19.34,57.303 26.635,57.896 L27.322,57.406" id="Fill-965" sketch:type="MSShapeGroup"></path>
                <path d="M28,40.038 L28,30 L16.028,30 C16.141,34.019 16.933,37.924 18.341,41.58 C21.455,40.642 24.694,40.126 28,40.038" id="Fill-966" sketch:type="MSShapeGroup"></path>
                <path d="M49.262,48.471 C46.631,46.596 43.78,45.136 40.792,44.065 C38.52,49.158 35.094,53.726 30.679,57.408 L31.364,57.896 C38.658,57.304 45.195,54.003 49.969,49 L49.262,48.471" id="Fill-967" sketch:type="MSShapeGroup"></path>
                <path d="M49.91,10.522 C47.19,12.384 44.267,13.834 41.221,14.902 C42.914,19.011 43.851,23.439 43.972,28 L57.975,28 C57.738,21.065 55.057,14.744 50.766,9.867 L49.91,10.522" id="Fill-968" sketch:type="MSShapeGroup"></path>
                <path d="M28,55.357 L28,42.038 C24.961,42.124 21.984,42.594 19.118,43.438 C21.161,47.947 24.166,52.013 28,55.357" id="Fill-969" sketch:type="MSShapeGroup"></path>
                <path d="M41.972,30 L30,30 L30,40.038 C33.307,40.126 36.548,40.642 39.662,41.58 C41.067,37.925 41.859,34.02 41.972,30" id="Fill-970" sketch:type="MSShapeGroup"></path>
                <path d="M38.885,43.438 C36.019,42.594 33.04,42.124 30,42.038 L30,55.362 C33.831,52.028 36.839,47.958 38.885,43.438" id="Fill-971" sketch:type="MSShapeGroup"></path>
            </g>
        </g>
    </g>
</svg>