<?xml version="1.0" encoding="UTF-8" standalone="no"?>
<svg width="62px" height="60px" viewBox="0 0 62 60" version="1.1" xmlns="http://www.w3.org/2000/svg" xmlns:xlink="http://www.w3.org/1999/xlink" xmlns:sketch="http://www.bohemiancoding.com/sketch/ns">
    <!-- Generator: Sketch 3.2.2 (9983) - http://www.bohemiancoding.com/sketch -->
    <title>155 - Location Pin (Solid)</title>
    <desc>Created with Sketch.</desc>
    <defs></defs>
    <g id="Page-1" stroke="none" stroke-width="1" fill="none" fill-rule="evenodd" sketch:type="MSPage">
        <g id="Icons" sketch:type="MSArtboardGroup" transform="translate(-719.000000, -2997.000000)" fill="#1A1718">
            <g id="155---Location-Pin-(Solid)" sketch:type="MSLayerGroup" transform="translate(719.000000, 2997.000000)">
                <path d="M50.632,37 L43.471,37 L46.518,32.6 C52.273,24.929 51.44,12.319 44.736,5.617 C41.115,1.995 36.3,0 31.177,0 C26.055,0 21.239,1.995 17.617,5.617 C10.914,12.319 10.081,24.929 15.813,32.569 L18.881,37 L11.368,37 L0.416,60 L61.584,60 L50.632,37 L50.632,37 Z M31.354,12 C35.213,12 38.354,15.141 38.354,19 C38.354,22.859 35.213,26 31.354,26 C27.494,26 24.354,22.859 24.354,19 C24.354,15.141 27.494,12 31.354,12 L31.354,12 Z M12.632,39 L20.266,39 L31.177,54.757 L42.087,39 L49.368,39 L58.416,58 L3.584,58 L12.632,39 L12.632,39 Z" id="Fill-1057" sketch:type="MSShapeGroup"></path>
            </g>
        </g>
    </g>
</svg>