<?xml version="1.0" encoding="UTF-8" standalone="no"?>
<svg width="60px" height="60px" viewBox="0 0 60 60" version="1.1" xmlns="http://www.w3.org/2000/svg" xmlns:xlink="http://www.w3.org/1999/xlink" xmlns:sketch="http://www.bohemiancoding.com/sketch/ns">
    <!-- Generator: Sketch 3.2.2 (9983) - http://www.bohemiancoding.com/sketch -->
    <title>156 - Street Location (Solid)</title>
    <desc>Created with Sketch.</desc>
    <defs></defs>
    <g id="Page-1" stroke="none" stroke-width="1" fill="none" fill-rule="evenodd" sketch:type="MSPage">
        <g id="Icons" sketch:type="MSArtboardGroup" transform="translate(-600.000000, -2997.000000)" fill="#1A1718">
            <g id="156---Street-Location-(Solid)" sketch:type="MSLayerGroup" transform="translate(599.000000, 2997.000000)">
                <path d="M2,57.586 L1.293,58.293 C0.902,58.684 0.902,59.316 1.293,59.707 C1.488,59.902 1.744,60 2,60 C2.256,60 2.512,59.902 2.707,59.707 L3.414,59 C3.805,58.609 3.805,57.977 3.414,57.586 C3.023,57.195 2.391,57.195 2,57.586" id="Fill-1042" sketch:type="MSShapeGroup"></path>
                <path d="M15.077,52 C14.525,52 14.077,52.447 14.077,53 C14.077,53.553 14.525,54 15.077,54 L16.898,54 C17.45,54 17.898,53.553 17.898,53 C17.898,52.447 17.45,52 16.898,52 L15.077,52" id="Fill-1043" sketch:type="MSShapeGroup"></path>
                <path d="M20.539,52 C19.986,52 19.539,52.447 19.539,53 C19.539,53.553 19.986,54 20.539,54 L22.359,54 C22.911,54 23.359,53.553 23.359,53 C23.359,52.447 22.911,52 22.359,52 L20.539,52" id="Fill-1044" sketch:type="MSShapeGroup"></path>
                <path d="M9.616,52 C9.064,52 8.616,52.447 8.616,53 C8.616,53.553 9.064,54 9.616,54 L11.437,54 C11.989,54 12.437,53.553 12.437,53 C12.437,52.447 11.989,52 11.437,52 L9.616,52" id="Fill-1045" sketch:type="MSShapeGroup"></path>
                <path d="M7.275,53.725 C6.885,53.334 6.252,53.334 5.861,53.725 L4.574,55.012 C4.184,55.402 4.184,56.035 4.574,56.426 C4.77,56.621 5.025,56.719 5.281,56.719 C5.537,56.719 5.793,56.621 5.988,56.426 L7.275,55.139 C7.666,54.748 7.666,54.115 7.275,53.725" id="Fill-1046" sketch:type="MSShapeGroup"></path>
                <path d="M26,52 C25.448,52 25,52.447 25,53 C25,53.553 25.448,54 26,54 L27,54 C27.552,54 28,53.553 28,53 C28,52.447 27.552,52 27,52 L26,52" id="Fill-1047" sketch:type="MSShapeGroup"></path>
                <path d="M2,53.758 C2.256,53.758 2.512,53.66 2.707,53.465 L6.583,49.589 C6.678,49.494 6.782,49.409 6.932,49.316 L7.125,49.213 L7.231,49.155 L7.606,49.04 C7.736,49.015 7.868,49 8,49 L23,49 C23.552,49 24,48.553 24,48 C24,47.447 23.552,47 23,47 L8,47 C7.744,47 7.481,47.026 7.21,47.079 C7.113,47.1 7.021,47.128 6.93,47.158 L6.799,47.197 C6.687,47.228 6.576,47.262 6.474,47.304 C6.355,47.353 6.243,47.413 6.132,47.477 L6.037,47.528 L5.78,47.674 C5.559,47.821 5.354,47.99 5.169,48.175 L1.293,52.051 C0.902,52.442 0.902,53.074 1.293,53.465 C1.488,53.66 1.744,53.758 2,53.758" id="Fill-1048" sketch:type="MSShapeGroup"></path>
                <path d="M59.293,48.707 C59.549,48.707 59.805,48.609 60,48.414 L60.707,47.707 C61.098,47.316 61.098,46.684 60.707,46.293 C60.316,45.902 59.684,45.902 59.293,46.293 L58.586,47 C58.195,47.391 58.195,48.024 58.586,48.414 C58.781,48.609 59.037,48.707 59.293,48.707" id="Fill-1049" sketch:type="MSShapeGroup"></path>
                <path d="M55.566,50.02 L54.057,51.529 C53.666,51.92 53.666,52.553 54.057,52.943 C54.252,53.139 54.508,53.236 54.764,53.236 C55.019,53.236 55.275,53.139 55.471,52.943 L56.981,51.434 C57.371,51.043 57.371,50.41 56.981,50.02 C56.59,49.629 55.957,49.629 55.566,50.02" id="Fill-1050" sketch:type="MSShapeGroup"></path>
                <path d="M42.27,52 C41.718,52 41.27,52.447 41.27,53 C41.27,53.553 41.718,54 42.27,54 L44.405,54 C44.957,54 45.405,53.553 45.405,53 C45.405,52.447 44.957,52 44.405,52 L42.27,52" id="Fill-1051" sketch:type="MSShapeGroup"></path>
                <path d="M48.675,52 C48.122,52 47.675,52.447 47.675,53 C47.675,53.553 48.122,54 48.675,54 L50.81,54 C51.362,54 51.81,53.553 51.81,53 C51.81,52.447 51.362,52 50.81,52 L48.675,52" id="Fill-1052" sketch:type="MSShapeGroup"></path>
                <path d="M37,52 C36.448,52 36,52.447 36,53 C36,53.553 36.448,54 37,54 L38,54 C38.552,54 39,53.553 39,53 C39,52.447 38.552,52 38,52 L37,52" id="Fill-1053" sketch:type="MSShapeGroup"></path>
                <path d="M59.293,52.535 L55.417,56.411 C55.323,56.505 55.22,56.589 55.07,56.682 L54.883,56.783 L54.764,56.847 L54.667,56.876 L54.389,56.96 C54.261,56.986 54.131,57 54,57 L8.89,57 L7.373,58.221 C6.943,58.567 6.875,59.197 7.221,59.627 C7.419,59.872 7.708,60 8.001,60 C8.221,60 8.442,59.928 8.627,59.779 L9.595,59 L54,59 C54.26,59 54.524,58.974 54.779,58.922 C54.881,58.902 54.977,58.873 55.074,58.841 L55.199,58.804 C55.312,58.772 55.422,58.739 55.534,58.692 C55.651,58.644 55.761,58.584 55.871,58.521 L55.97,58.468 L56.217,58.328 C56.437,58.181 56.644,58.012 56.831,57.825 L60.707,53.949 C61.098,53.559 61.098,52.926 60.707,52.535 C60.316,52.145 59.684,52.145 59.293,52.535" id="Fill-1054" sketch:type="MSShapeGroup"></path>
                <path d="M40,48 C40,48.553 40.448,49 41,49 L53.172,49 L56.465,45.707 C56.856,45.317 56.856,44.684 56.465,44.293 C56.074,43.902 55.441,43.902 55.051,44.293 L52.344,47 L41,47 C40.448,47 40,47.447 40,48" id="Fill-1055" sketch:type="MSShapeGroup"></path>
                <path d="M32.177,54.757 L47.518,32.6 C53.273,24.928 52.44,12.319 45.737,5.617 C42.115,1.995 37.299,0 32.177,0 C27.055,0 22.239,1.995 18.617,5.617 C11.914,12.319 11.082,24.929 16.813,32.569 L32.177,54.757 L32.177,54.757 Z M32.354,12 C36.213,12 39.354,15.141 39.354,19 C39.354,22.859 36.213,26 32.354,26 C28.494,26 25.354,22.859 25.354,19 C25.354,15.141 28.494,12 32.354,12 L32.354,12 Z" id="Fill-1056" sketch:type="MSShapeGroup"></path>
            </g>
        </g>
    </g>
</svg>