<?xml version="1.0" encoding="UTF-8" standalone="no"?>
<svg width="60px" height="51px" viewBox="0 0 60 51" version="1.1" xmlns="http://www.w3.org/2000/svg" xmlns:xlink="http://www.w3.org/1999/xlink" xmlns:sketch="http://www.bohemiancoding.com/sketch/ns">
    <!-- Generator: Sketch 3.2.2 (9983) - http://www.bohemiancoding.com/sketch -->
    <title>158 - Maps (Solid)</title>
    <desc>Created with Sketch.</desc>
    <defs></defs>
    <g id="Page-1" stroke="none" stroke-width="1" fill="none" fill-rule="evenodd" sketch:type="MSPage">
        <g id="Icons" sketch:type="MSArtboardGroup" transform="translate(-360.000000, -3003.000000)" fill="#000000">
            <g id="158---Maps-(Solid)" sketch:type="MSLayerGroup" transform="translate(360.000000, 3003.000000)">
                <path d="M59.423,7.094 L44.423,0.094 C44.413,0.089 44.402,0.091 44.393,0.087 C44.275,0.036 44.151,0.009 44.025,0.006 C44.016,0.006 44.008,0 43.999,0 C43.979,0 43.96,0.007 43.94,0.009 C43.885,0.012 43.831,0.019 43.777,0.032 C43.741,0.04 43.706,0.05 43.671,0.062 C43.65,0.07 43.627,0.072 43.606,0.081 L30,5.912 L16.394,0.081 C16.388,0.079 16.381,0.08 16.374,0.077 C16.265,0.033 16.151,0.011 16.034,0.007 C16.023,0.006 16.012,0 16.001,0 C15.982,0 15.965,0.007 15.946,0.008 C15.888,0.011 15.832,0.02 15.774,0.033 C15.743,0.04 15.712,0.047 15.681,0.058 C15.664,0.063 15.646,0.065 15.628,0.071 L0.628,6.071 C0.249,6.224 0,6.591 0,7 L0,50 C0,50.332 0.165,50.642 0.44,50.828 C0.607,50.941 0.803,51 1,51 C1.125,51 1.251,50.977 1.372,50.929 L15.987,45.083 L29.606,50.919 C29.62,50.925 29.635,50.923 29.649,50.928 C29.762,50.971 29.879,51 30,51 C30.121,51 30.238,50.971 30.351,50.928 C30.365,50.923 30.38,50.925 30.394,50.919 L44.013,45.083 L58.628,50.929 C58.749,50.977 58.875,51 59,51 C59.197,51 59.393,50.941 59.56,50.828 C59.835,50.642 60,50.332 60,50 L60,8 C60,7.611 59.775,7.258 59.423,7.094 L59.423,7.094 Z M17,2.517 L29,7.659 L29,48.484 L17,43.34 L17,2.517 L17,2.517 Z M58,48.523 L45,43.323 L45,2.57 L58,8.637 L58,48.523 L58,48.523 Z" id="Fill-16" sketch:type="MSShapeGroup"></path>
            </g>
        </g>
    </g>
</svg>