<?xml version="1.0" encoding="UTF-8" standalone="no"?>
<svg width="54px" height="53px" viewBox="0 0 54 53" version="1.1" xmlns="http://www.w3.org/2000/svg" xmlns:xlink="http://www.w3.org/1999/xlink" xmlns:sketch="http://www.bohemiancoding.com/sketch/ns">
    <!-- Generator: Sketch 3.2.2 (9983) - http://www.bohemiancoding.com/sketch -->
    <title>159 - Track (Solid)</title>
    <desc>Created with Sketch.</desc>
    <defs></defs>
    <g id="Page-1" stroke="none" stroke-width="1" fill="none" fill-rule="evenodd" sketch:type="MSPage">
        <g id="Icons" sketch:type="MSArtboardGroup" transform="translate(-243.000000, -3002.000000)" fill="#000000">
            <g id="159---Track-(Solid)" sketch:type="MSLayerGroup" transform="translate(243.000000, 3002.000000)">
                <path d="M0,8 L0,51 C0,51.321 0.154,51.623 0.415,51.812 C0.588,51.936 0.793,52 1,52 C1.106,52 1.213,51.983 1.316,51.948 L18,46.387 L18,32.439 C17.751,32.491 17.489,32.523 17.249,32.587 C17.163,32.61 17.077,32.62 16.992,32.62 C16.549,32.62 16.145,32.324 16.026,31.876 C15.885,31.343 16.203,30.795 16.736,30.653 C17.146,30.545 17.57,30.457 18,30.379 L18,1.28 L0.684,7.052 C0.275,7.188 0,7.569 0,8 L0,8 Z M9.116,39.604 C8.222,41.541 7.993,43.122 7.991,43.138 C7.92,43.637 7.492,43.999 7.001,43.999 C6.956,43.999 6.909,43.996 6.863,43.989 C6.316,43.914 5.935,43.411 6.009,42.864 C6.02,42.789 6.273,40.991 7.3,38.766 C7.531,38.264 8.125,38.046 8.627,38.276 C9.128,38.508 9.347,39.102 9.116,39.604 L9.116,39.604 Z M8.293,24.707 C7.902,24.317 7.902,23.684 8.293,23.293 C8.684,22.902 9.316,22.902 9.707,23.293 L11,24.586 L12.293,23.293 C12.684,22.902 13.316,22.902 13.707,23.293 C14.098,23.684 14.098,24.317 13.707,24.707 L12.414,26 L13.707,27.293 C14.098,27.684 14.098,28.316 13.707,28.707 C13.512,28.902 13.256,29 13,29 C12.744,29 12.488,28.902 12.293,28.707 L11,27.414 L9.707,28.707 C9.512,28.902 9.256,29 9,29 C8.744,29 8.488,28.902 8.293,28.707 C7.902,28.316 7.902,27.684 8.293,27.293 L9.586,26 L8.293,24.707 L8.293,24.707 Z M13.868,34.037 C12.837,34.683 11.906,35.495 11.1,36.451 C10.902,36.686 10.619,36.807 10.335,36.807 C10.107,36.807 9.878,36.73 9.69,36.571 C9.268,36.215 9.214,35.584 9.57,35.162 C10.51,34.047 11.599,33.099 12.805,32.342 C13.272,32.048 13.89,32.19 14.184,32.658 C14.477,33.126 14.335,33.743 13.868,34.037 L13.868,34.037 Z M11,9 C13.757,9 16,11.243 16,14 C16,16.415 14.279,18.435 12,18.899 L12,21 C12,21.553 11.552,22 11,22 C10.448,22 10,21.553 10,21 L10,18.899 C7.721,18.435 6,16.415 6,14 C6,11.243 8.243,9 11,9 L11,9 Z" id="Fill-17" sketch:type="MSShapeGroup"></path>
                <path d="M11,17 C12.654,17 14,15.654 14,14 C14,12.346 12.654,11 11,11 C9.346,11 8,12.346 8,14 C8,15.654 9.346,17 11,17" id="Fill-18" sketch:type="MSShapeGroup"></path>
                <path d="M29.17,31.432 C28.729,31.247 28.471,31.118 28.454,31.11 C28.389,31.076 28.32,31.05 28.249,31.031 C27.167,30.753 26.099,30.533 25.076,30.377 C24.531,30.291 24.02,30.668 23.936,31.214 C23.854,31.76 24.229,32.271 24.774,32.354 C25.7,32.495 26.668,32.693 27.651,32.944 C27.785,33.008 28.042,33.128 28.399,33.277 C28.525,33.33 28.656,33.355 28.784,33.355 C29.175,33.355 29.547,33.124 29.707,32.74 C29.92,32.231 29.68,31.645 29.17,31.432" id="Fill-19" sketch:type="MSShapeGroup"></path>
                <path d="M45.07,27.673 C45.19,27.72 45.314,27.741 45.435,27.741 C45.835,27.741 46.212,27.5 46.366,27.106 C46.836,25.906 47.213,24.553 47.489,23.081 C47.59,22.539 47.233,22.017 46.69,21.914 C46.144,21.824 45.625,22.171 45.523,22.714 C45.271,24.062 44.928,25.294 44.504,26.377 C44.303,26.891 44.556,27.471 45.07,27.673" id="Fill-20" sketch:type="MSShapeGroup"></path>
                <path d="M40.423,33.73 C40.576,33.73 40.732,33.694 40.877,33.62 C42.17,32.959 43.309,32.022 44.262,30.834 C44.607,30.403 44.539,29.774 44.108,29.428 C43.678,29.085 43.048,29.152 42.702,29.582 C41.926,30.549 41.006,31.308 39.967,31.839 C39.476,32.091 39.281,32.693 39.532,33.185 C39.709,33.53 40.06,33.73 40.423,33.73" id="Fill-21" sketch:type="MSShapeGroup"></path>
                <path d="M46.923,19.931 C46.945,19.932 46.967,19.933 46.988,19.933 C47.511,19.933 47.951,19.526 47.985,18.996 C48.047,18.035 48.078,17.019 48.078,15.977 C48.078,15.63 48.075,15.277 48.068,14.919 C48.058,14.366 47.579,13.946 47.05,13.937 C46.498,13.946 46.059,14.403 46.068,14.954 C46.075,15.301 46.078,15.642 46.078,15.977 C46.078,16.977 46.048,17.949 45.989,18.869 C45.954,19.42 46.372,19.896 46.923,19.931" id="Fill-22" sketch:type="MSShapeGroup"></path>
                <path d="M20,46.493 L35,52.67 L35,9.339 L20,1.398 L20,46.493 L20,46.493 Z M22,4.72 L33,10.544 L33,49.684 L22,45.154 L22,4.72 L22,4.72 Z" id="Fill-23" sketch:type="MSShapeGroup"></path>
                <path d="M37,9.339 L37,52.67 L54,45.494 L54,0.398 L37,9.339 L37,9.339 Z M52,44.167 L39,49.655 L39,10.547 L52,3.71 L52,44.167 L52,44.167 Z" id="Fill-24" sketch:type="MSShapeGroup"></path>
            </g>
        </g>
    </g>
</svg>