<?xml version="1.0" encoding="UTF-8" standalone="no"?>
<svg width="57px" height="60px" viewBox="0 0 57 60" version="1.1" xmlns="http://www.w3.org/2000/svg" xmlns:xlink="http://www.w3.org/1999/xlink" xmlns:sketch="http://www.bohemiancoding.com/sketch/ns">
    <!-- Generator: Sketch 3.2.2 (9983) - http://www.bohemiancoding.com/sketch -->
    <title>16 - Phone Transfer Out (Solid)</title>
    <desc>Created with Sketch.</desc>
    <defs></defs>
    <g id="Page-1" stroke="none" stroke-width="1" fill="none" fill-rule="evenodd" sketch:type="MSPage">
        <g id="Icons" sketch:type="MSArtboardGroup" transform="translate(-602.000000, -4677.000000)" fill="#000000">
            <g id="16---Phone-Transfer-Out-(Solid)" sketch:type="MSLayerGroup" transform="translate(602.000000, 4677.000000)">
                <path d="M17,51 C15.897,51 15,51.897 15,53 C15,54.102 15.897,55 17,55 C18.103,55 19,54.102 19,53 C19,51.897 18.103,51 17,51" id="Fill-463" sketch:type="MSShapeGroup"></path>
                <path d="M32,32 L32,46 L2,46 L2,8 L32,8 L32,21 L34,21 L34,4.406 C34,1.977 32.024,0 29.595,0 L4.405,0 C1.976,0 0,1.977 0,4.406 L0,55.595 C0,58.023 1.976,60 4.405,60 L29.595,60 C32.024,60 34,58.023 34,55.595 L34,32 L32,32 L32,32 Z M20,3 L21,3 C21.552,3 22,3.447 22,4 C22,4.553 21.552,5 21,5 L20,5 C19.448,5 19,4.553 19,4 C19,3.447 19.448,3 20,3 L20,3 Z M13,3 L17,3 C17.552,3 18,3.447 18,4 C18,4.553 17.552,5 17,5 L13,5 C12.448,5 12,4.553 12,4 C12,3.447 12.448,3 13,3 L13,3 Z M17,57 C14.794,57 13,55.206 13,53 C13,50.794 14.794,49 17,49 C19.206,49 21,50.794 21,53 C21,55.206 19.206,57 17,57 L17,57 Z" id="Fill-464" sketch:type="MSShapeGroup"></path>
                <path d="M55,29 L17,29 C15.896,29 15,28.104 15,27 C15,25.895 15.896,25 17,25 L55,25 C56.105,25 57,25.895 57,27 C57,28.104 56.105,29 55,29" id="Fill-465" sketch:type="MSShapeGroup"></path>
                <path d="M55,29 C54.488,29 53.977,28.805 53.586,28.414 L41.586,16.414 C40.805,15.633 40.805,14.367 41.586,13.586 C42.366,12.805 43.634,12.805 44.414,13.586 L56.414,25.586 C57.195,26.367 57.195,27.633 56.414,28.414 C56.023,28.805 55.512,29 55,29" id="Fill-466" sketch:type="MSShapeGroup"></path>
                <path d="M43,41 C42.488,41 41.976,40.805 41.586,40.414 C40.805,39.633 40.805,38.367 41.586,37.586 L53.586,25.586 C54.367,24.805 55.633,24.805 56.414,25.586 C57.195,26.367 57.195,27.633 56.414,28.414 L44.414,40.414 C44.024,40.805 43.512,41 43,41" id="Fill-467" sketch:type="MSShapeGroup"></path>
                <path d="M55,29 L17,29 C15.896,29 15,28.104 15,27 C15,25.895 15.896,25 17,25 L55,25 C56.105,25 57,25.895 57,27 C57,28.104 56.105,29 55,29" id="Fill-468" sketch:type="MSShapeGroup"></path>
                <path d="M55,29 C54.488,29 53.977,28.805 53.586,28.414 L41.586,16.414 C40.805,15.633 40.805,14.367 41.586,13.586 C42.366,12.805 43.634,12.805 44.414,13.586 L56.414,25.586 C57.195,26.367 57.195,27.633 56.414,28.414 C56.023,28.805 55.512,29 55,29" id="Fill-469" sketch:type="MSShapeGroup"></path>
                <path d="M43,41 C42.488,41 41.976,40.805 41.586,40.414 C40.805,39.633 40.805,38.367 41.586,37.586 L53.586,25.586 C54.367,24.805 55.633,24.805 56.414,25.586 C57.195,26.367 57.195,27.633 56.414,28.414 L44.414,40.414 C44.024,40.805 43.512,41 43,41" id="Fill-470" sketch:type="MSShapeGroup"></path>
            </g>
        </g>
    </g>
</svg>