<?xml version="1.0" encoding="UTF-8" standalone="no"?>
<svg width="55px" height="51px" viewBox="0 0 55 51" version="1.1" xmlns="http://www.w3.org/2000/svg" xmlns:xlink="http://www.w3.org/1999/xlink" xmlns:sketch="http://www.bohemiancoding.com/sketch/ns">
    <!-- Generator: Sketch 3.2.2 (9983) - http://www.bohemiancoding.com/sketch -->
    <title>160 - Map (Solid)</title>
    <desc>Created with Sketch.</desc>
    <defs></defs>
    <g id="Page-1" stroke="none" stroke-width="1" fill="none" fill-rule="evenodd" sketch:type="MSPage">
        <g id="Icons" sketch:type="MSArtboardGroup" transform="translate(-122.000000, -3003.000000)" fill="#000000">
            <g id="160---Map-(Solid)" sketch:type="MSLayerGroup" transform="translate(122.000000, 3002.000000)">
                <path d="M20,5.263 L35,8.792 L35,48.808 L20,46.161 L20,5.263 M19.001,3 C18.777,3 18.558,3.075 18.379,3.216 C18.14,3.405 18,3.694 18,4 L18,47 C18,47.486 18.348,47.901 18.826,47.985 L35.826,50.985 C35.884,50.995 35.942,51 36,51 C36.233,51 36.461,50.918 36.643,50.766 C36.869,50.576 37,50.296 37,50 L37,8 C37,7.536 36.681,7.133 36.229,7.027 L19.229,3.026 C19.154,3.009 19.077,3 19.001,3" id="Fill-1" sketch:type="MSShapeGroup"></path>
                <path d="M54.585,1.189 C54.323,1 53.988,0.947 53.684,1.052 L35.684,7.052 C35.275,7.188 35,7.569 35,8 L35,50 C35,50.33 35.163,50.639 35.436,50.825 C35.604,50.94 35.801,51 36,51 C36.123,51 36.245,50.978 36.362,50.932 L54.362,43.932 C54.747,43.782 55,43.412 55,43 L55,2 C55,1.679 54.846,1.377 54.585,1.189" id="Fill-2" sketch:type="MSShapeGroup"></path>
                <path d="M18.783,3.024 L0.783,7.024 C0.326,7.126 0,7.531 0,8 L0,51 C0,51.304 0.138,51.59 0.374,51.78 C0.553,51.924 0.774,52 1,52 C1.072,52 1.145,51.992 1.217,51.977 L19.217,47.977 C19.674,47.874 20,47.469 20,47 L20,4 C20,3.696 19.862,3.41 19.626,3.22 C19.39,3.03 19.08,2.96 18.783,3.024" id="Fill-3" sketch:type="MSShapeGroup"></path>
            </g>
        </g>
    </g>
</svg>