<?xml version="1.0" encoding="UTF-8" standalone="no"?>
<svg width="56px" height="54px" viewBox="0 0 56 54" version="1.1" xmlns="http://www.w3.org/2000/svg" xmlns:xlink="http://www.w3.org/1999/xlink" xmlns:sketch="http://www.bohemiancoding.com/sketch/ns">
    <!-- Generator: Sketch 3.2.2 (9983) - http://www.bohemiancoding.com/sketch -->
    <title>161 - Favorite (Solid)</title>
    <desc>Created with Sketch.</desc>
    <defs></defs>
    <g id="Page-1" stroke="none" stroke-width="1" fill="none" fill-rule="evenodd" sketch:type="MSPage">
        <g id="Icons" sketch:type="MSArtboardGroup" transform="translate(-1203.000000, -2879.000000)" fill="#1A1718">
            <g id="161---Favorite-(Solid)" sketch:type="MSLayerGroup" transform="translate(1203.000000, 2879.000000)">
                <path d="M55.915,20.26 C55.797,19.898 55.484,19.634 55.107,19.579 L37.017,16.95 L28.927,0.558 C28.759,0.216 28.411,0 28.03,0 C27.649,0 27.302,0.216 27.134,0.558 L19.043,16.95 L0.953,19.579 C0.576,19.634 0.264,19.898 0.146,20.26 C0.028,20.621 0.126,21.019 0.398,21.284 L13.489,34.044 L10.398,52.062 C10.334,52.437 10.488,52.816 10.796,53.039 C11.104,53.265 11.514,53.294 11.849,53.115 L28.03,44.609 L44.21,53.115 C44.356,53.192 44.517,53.231 44.676,53.231 C44.883,53.231 45.089,53.166 45.264,53.039 C45.571,52.816 45.726,52.437 45.661,52.062 L42.571,34.045 L55.662,21.284 C55.935,21.019 56.032,20.621 55.915,20.26" id="Fill-189" sketch:type="MSShapeGroup"></path>
            </g>
        </g>
    </g>
</svg>