<?xml version="1.0" encoding="UTF-8" standalone="no"?>
<svg width="50px" height="47px" viewBox="0 0 50 47" version="1.1" xmlns="http://www.w3.org/2000/svg" xmlns:xlink="http://www.w3.org/1999/xlink" xmlns:sketch="http://www.bohemiancoding.com/sketch/ns">
    <!-- Generator: Sketch 3.2.2 (9983) - http://www.bohemiancoding.com/sketch -->
    <title>164 - Dislike (Solid)</title>
    <desc>Created with Sketch.</desc>
    <defs></defs>
    <g id="Page-1" stroke="none" stroke-width="1" fill="none" fill-rule="evenodd" sketch:type="MSPage">
        <g id="Icons" sketch:type="MSArtboardGroup" transform="translate(-845.000000, -2884.000000)" fill="#1A1718">
            <g id="164---Dislike-(Solid)" sketch:type="MSLayerGroup" transform="translate(844.000000, 2884.000000)">
                <path d="M8.402,31.087 C5.049,28.049 2.562,24.067 1.504,19.585 C0.727,16.293 1.08,14.465 1.08,14.465 C1.734,7.101 6.936,0.922 14.159,0.922 C18.669,0.922 22.43,3.291 24.714,6.888 L24.694,6.874 L17.26,17.776 L31.747,19.708 L20.356,30.151 L28.803,35.431 L25.176,46.31 L8.402,31.087 L8.402,31.087 Z M50.496,19.586 C49.438,24.068 46.951,28.05 43.598,31.088 L27.6,45.361 L31.197,34.569 L23.644,29.849 L36.253,18.292 L20.74,16.224 L26.102,8.36 L26.234,8.217 C28.415,3.883 32.794,0.923 37.841,0.923 C45.064,0.923 50.266,7.102 50.92,14.466 C50.92,14.466 51.273,16.295 50.496,19.586 L50.496,19.586 Z" id="Fill-1159" sketch:type="MSShapeGroup"></path>
            </g>
        </g>
    </g>
</svg>