<?xml version="1.0" encoding="UTF-8" standalone="no"?>
<svg width="52px" height="50px" viewBox="0 0 52 50" version="1.1" xmlns="http://www.w3.org/2000/svg" xmlns:xlink="http://www.w3.org/1999/xlink" xmlns:sketch="http://www.bohemiancoding.com/sketch/ns">
    <!-- Generator: Sketch 3.2.2 (9983) - http://www.bohemiancoding.com/sketch -->
    <title>165 - Like (Solid)</title>
    <desc>Created with Sketch.</desc>
    <defs></defs>
    <g id="Page-1" stroke="none" stroke-width="1" fill="none" fill-rule="evenodd" sketch:type="MSPage">
        <g id="Icons" sketch:type="MSArtboardGroup" transform="translate(-725.000000, -2883.000000)" fill="#1A1718">
            <g id="165---Like-(Solid)" sketch:type="MSLayerGroup" transform="translate(725.000000, 2883.000000)">
                <path d="M51.912,15.338 C51.153,6.983 45.24,0.923 37.841,0.923 C32.911,0.923 28.396,3.576 25.856,7.828 C23.34,3.522 19.011,0.922 14.159,0.922 C6.76,0.922 0.847,6.982 0.088,15.337 C0.028,15.706 -0.218,17.647 0.53,20.814 C1.608,25.383 4.099,29.537 7.73,32.827 L25.845,49.267 L44.271,32.829 C47.901,29.538 50.392,25.384 51.47,20.815 C52.218,17.649 51.972,15.707 51.912,15.338" id="Fill-187" sketch:type="MSShapeGroup"></path>
            </g>
        </g>
    </g>
</svg>