<?xml version="1.0" encoding="UTF-8" standalone="no"?>
<svg width="56px" height="51px" viewBox="0 0 56 51" version="1.1" xmlns="http://www.w3.org/2000/svg" xmlns:xlink="http://www.w3.org/1999/xlink" xmlns:sketch="http://www.bohemiancoding.com/sketch/ns">
    <!-- Generator: Sketch 3.2.2 (9983) - http://www.bohemiancoding.com/sketch -->
    <title>167 - Cloud Search (Solid)</title>
    <desc>Created with Sketch.</desc>
    <defs></defs>
    <g id="Page-1" stroke="none" stroke-width="1" fill="none" fill-rule="evenodd" sketch:type="MSPage">
        <g id="Icons" sketch:type="MSArtboardGroup" transform="translate(-482.000000, -2881.000000)" fill="#000000">
            <g id="167---Cloud-Search-(Solid)" sketch:type="MSLayerGroup" transform="translate(482.000000, 2881.000000)">
                <path d="M37.448,40.034 C39.039,38.126 40,35.673 40,33 C40,26.935 35.065,22 29,22 C22.935,22 18,26.935 18,33 C18,39.065 22.935,44 29,44 C31.673,44 34.125,43.04 36.034,41.448 L45.293,50.707 C45.488,50.902 45.744,51 46,51 C46.256,51 46.512,50.902 46.707,50.707 C47.098,50.317 47.098,49.684 46.707,49.293 L37.448,40.034 L37.448,40.034 Z M20,33 C20,28.037 24.038,24 29,24 C33.962,24 38,28.037 38,33 C38,37.963 33.962,42 29,42 C24.038,42 20,37.963 20,33 L20,33 Z" id="Fill-1033" sketch:type="MSShapeGroup"></path>
                <path d="M47.835,15.986 C47.698,15.968 45.378,15.651 43.15,15.988 L42.999,16 C42.513,16 42.087,15.646 42.012,15.15 C41.929,14.605 42.304,14.095 42.85,14.012 C44.381,13.779 45.911,13.816 46.933,13.888 C46.263,6.135 39.83,0 32.085,0 C27.388,0 22.667,2.379 19.8,6.129 C21.754,7.781 23,10.246 23,13 C23,13.553 22.553,14 22,14 C21.447,14 21,13.553 21,13 C21,10.538 19.719,8.373 17.791,7.124 C17.564,6.978 17.329,6.847 17.089,6.728 L16.88,6.627 C16.607,6.504 16.33,6.394 16.045,6.306 L15.939,6.279 C15.68,6.204 15.417,6.147 15.15,6.103 L14.917,6.067 C14.614,6.027 14.309,6 14,6 C10.141,6 7,9.141 7,13 L7.012,13.244 L7.023,13.454 L7.015,13.614 C7.008,13.744 7,13.873 7,14 L7,14.63 L6.433,14.901 C2.705,16.688 0,21 0,25.154 C0,31.135 4.865,36 10.845,36 L16.363,36 C16.134,35.035 16,34.034 16,33 C16,25.832 21.832,20 29,20 C36.169,20 42,25.832 42,33 C42,34.034 41.866,35.035 41.637,36 L45.972,36 C51.501,36 56,31.501 56,25.972 C56,21.161 52.49,16.872 47.835,15.986" id="Fill-1034" sketch:type="MSShapeGroup"></path>
            </g>
        </g>
    </g>
</svg>