<?xml version="1.0" encoding="UTF-8" standalone="no"?>
<svg width="56px" height="48px" viewBox="0 0 56 48" version="1.1" xmlns="http://www.w3.org/2000/svg" xmlns:xlink="http://www.w3.org/1999/xlink" xmlns:sketch="http://www.bohemiancoding.com/sketch/ns">
    <!-- Generator: Sketch 3.2.2 (9983) - http://www.bohemiancoding.com/sketch -->
    <title>168 - Cloud Sync (Solid)</title>
    <desc>Created with Sketch.</desc>
    <defs></defs>
    <g id="Page-1" stroke="none" stroke-width="1" fill="none" fill-rule="evenodd" sketch:type="MSPage">
        <g id="Icons" sketch:type="MSArtboardGroup" transform="translate(-362.000000, -2886.000000)" fill="#000000">
            <g id="168---Cloud-Sync-(Solid)" sketch:type="MSLayerGroup" transform="translate(362.000000, 2886.000000)">
                <path d="M39,36 C38.448,36 38,36.447 38,37 C38,41.963 33.962,46 29,46 C24.038,46 20,41.963 20,37 C20,32.037 24.038,28 29,28 C32,28 34.677,29.506 36.311,32 L30,32 C29.448,32 29,32.447 29,33 C29,33.553 29.448,34 30,34 L38,34 L38.005,33.999 L38.215,33.957 L38.396,33.917 L38.401,33.916 L38.488,33.855 L38.715,33.696 L38.819,33.541 L38.924,33.376 C38.958,33.292 38.967,33.201 38.978,33.11 L39,33 L39,25 C39,24.447 38.552,24 38,24 C37.448,24 37,24.447 37,25 L37,29.6 C34.986,27.328 32.136,26 29,26 C22.935,26 18,30.935 18,37 C18,43.065 22.935,48 29,48 C35.065,48 40,43.065 40,37 C40,36.447 39.552,36 39,36" id="Fill-1031" sketch:type="MSShapeGroup"></path>
                <path d="M47.835,15.986 C47.698,15.968 45.378,15.651 43.15,15.988 L42.999,16 C42.513,16 42.087,15.646 42.012,15.15 C41.929,14.604 42.304,14.095 42.85,14.012 C44.381,13.779 45.911,13.816 46.933,13.888 C46.263,6.135 39.83,0 32.085,0 C27.388,0 22.667,2.38 19.8,6.129 C21.754,7.781 23,10.246 23,13 C23,13.553 22.553,14 22,14 C21.447,14 21,13.553 21,13 C21,10.538 19.719,8.372 17.791,7.124 C17.564,6.978 17.329,6.847 17.089,6.728 L16.88,6.627 C16.607,6.504 16.33,6.394 16.045,6.306 L15.939,6.279 C15.68,6.204 15.417,6.147 15.15,6.103 L14.917,6.067 C14.614,6.027 14.309,6 14,6 C10.141,6 7,9.141 7,13 L7.012,13.244 L7.023,13.454 L7.015,13.614 C7.008,13.744 7,13.873 7,14 L7,14.63 L6.433,14.901 C2.705,16.689 0,21 0,25.154 C0,31.135 4.865,36 10.845,36 L16.051,36 C16.565,29.299 22.169,24 29,24 C31.157,24 33.198,24.532 35,25.497 L35,25 C35,23.343 36.343,22 38,22 C39.657,22 41,23.343 41,25 L41,33 L40.965,33.35 C40.949,33.484 40.929,33.615 40.896,33.742 L40.825,33.971 C40.78,34.102 40.728,34.227 40.667,34.348 L40.615,34.471 C41.17,34.826 41.582,35.369 41.807,36 L45.972,36 C51.501,36 56,31.501 56,25.972 C56,21.161 52.491,16.872 47.835,15.986" id="Fill-1032" sketch:type="MSShapeGroup"></path>
            </g>
        </g>
    </g>
</svg>