<?xml version="1.0" encoding="UTF-8" standalone="no"?>
<svg width="56px" height="47px" viewBox="0 0 56 47" version="1.1" xmlns="http://www.w3.org/2000/svg" xmlns:xlink="http://www.w3.org/1999/xlink" xmlns:sketch="http://www.bohemiancoding.com/sketch/ns">
    <!-- Generator: Sketch 3.2.2 (9983) - http://www.bohemiancoding.com/sketch -->
    <title>169 - Cloud Upload (Solid)</title>
    <desc>Created with Sketch.</desc>
    <defs></defs>
    <g id="Page-1" stroke="none" stroke-width="1" fill="none" fill-rule="evenodd" sketch:type="MSPage">
        <g id="Icons" sketch:type="MSArtboardGroup" transform="translate(-242.000000, -2886.000000)" fill="#000000">
            <g id="169---Cloud-Upload-(Solid)" sketch:type="MSLayerGroup" transform="translate(242.000000, 2886.000000)">
                <path d="M35.586,31.414 C35.976,31.805 36.488,32 37,32 C37.512,32 38.024,31.805 38.414,31.414 C39.195,30.633 39.195,29.367 38.414,28.586 L30.415,20.587 C30.322,20.494 30.22,20.41 30.109,20.337 L29.952,20.251 L29.765,20.153 L29.56,20.089 L29.392,20.04 C29.133,19.988 28.867,19.988 28.608,20.04 L28.44,20.089 L28.235,20.153 L28.047,20.252 L27.891,20.337 C27.781,20.41 27.678,20.494 27.585,20.587 L19.586,28.586 C18.805,29.367 18.805,30.633 19.586,31.414 C19.976,31.805 20.488,32 21,32 C21.512,32 22.024,31.805 22.414,31.414 L27,26.828 L27,45 C27,46.104 27.896,47 29,47 C30.104,47 31,46.104 31,45 L31,26.828 L35.586,31.414" id="Fill-1027" sketch:type="MSShapeGroup"></path>
                <path d="M47.835,15.986 C47.698,15.968 45.378,15.651 43.15,15.988 L42.999,16 C42.513,16 42.087,15.646 42.012,15.15 C41.929,14.604 42.304,14.095 42.85,14.012 C44.381,13.779 45.911,13.816 46.933,13.888 C46.263,6.135 39.83,0 32.085,0 C27.388,0 22.667,2.38 19.8,6.129 C21.754,7.781 23,10.246 23,13 C23,13.553 22.553,14 22,14 C21.447,14 21,13.553 21,13 C21,10.538 19.719,8.372 17.791,7.124 C17.564,6.978 17.329,6.847 17.089,6.728 L16.88,6.627 C16.607,6.504 16.33,6.394 16.045,6.306 L15.939,6.279 C15.68,6.204 15.417,6.147 15.15,6.103 L14.917,6.067 C14.614,6.027 14.309,6 14,6 C10.141,6 7,9.141 7,13 L7.012,13.244 L7.023,13.454 L7.015,13.614 C7.008,13.744 7,13.873 7,14 L7,14.63 L6.433,14.901 C2.705,16.689 0,21 0,25.154 C0,31.135 4.865,36 10.845,36 L25.028,36 L25.028,31.657 L23.857,32.828 C23.076,33.609 22.052,34 21.028,34 C20.004,34 18.981,33.609 18.2,32.828 C16.638,31.267 16.638,28.733 18.2,27.172 L26.2,19.172 C26.386,18.986 26.591,18.82 26.81,18.673 C26.908,18.608 27.014,18.563 27.117,18.507 C27.243,18.437 27.365,18.361 27.499,18.306 C27.631,18.251 27.768,18.22 27.905,18.18 C28.018,18.147 28.127,18.103 28.245,18.079 C28.762,17.976 29.295,17.976 29.812,18.079 C29.93,18.103 30.038,18.147 30.152,18.18 C30.288,18.22 30.426,18.251 30.558,18.306 C30.692,18.362 30.814,18.437 30.94,18.507 C31.042,18.563 31.149,18.608 31.247,18.673 C31.466,18.82 31.671,18.986 31.857,19.172 L39.857,27.172 C41.419,28.733 41.419,31.267 39.857,32.828 C39.076,33.609 38.052,34 37.028,34 C36.004,34 34.981,33.609 34.2,32.828 L33.028,31.657 L33.028,36 L35.353,36 L35.526,35.991 L35.725,35.98 L35.995,35.991 L36.169,36 L45.972,36 C51.501,36 56,31.501 56,25.972 C56,21.161 52.491,16.872 47.835,15.986" id="Fill-1028" sketch:type="MSShapeGroup"></path>
            </g>
        </g>
    </g>
</svg>