<?xml version="1.0" encoding="UTF-8" standalone="no"?>
<svg width="60px" height="60px" viewBox="0 0 60 60" version="1.1" xmlns="http://www.w3.org/2000/svg" xmlns:xlink="http://www.w3.org/1999/xlink" xmlns:sketch="http://www.bohemiancoding.com/sketch/ns">
    <!-- Generator: Sketch 3.2.2 (9983) - http://www.bohemiancoding.com/sketch -->
    <title>17 - Rotate Portrait (Solid)</title>
    <desc>Created with Sketch.</desc>
    <defs></defs>
    <g id="Page-1" stroke="none" stroke-width="1" fill="none" fill-rule="evenodd" sketch:type="MSPage">
        <g id="Icons" sketch:type="MSArtboardGroup" transform="translate(-480.000000, -4677.000000)" fill="#000000">
            <g id="17---Rotate-Portrait-(Solid)" sketch:type="MSLayerGroup" transform="translate(480.000000, 4677.000000)">
                <path d="M7,41 C5.897,41 5,41.897 5,43 C5,44.103 5.897,45 7,45 C8.103,45 9,44.103 9,43 C9,41.897 8.103,41 7,41" id="Fill-434" sketch:type="MSShapeGroup"></path>
                <path d="M51,6 C50.448,6 50,6.447 50,7 C50,7.553 50.448,8 51,8 L52,8 C52.552,8 53,7.553 53,7 C53,6.447 52.552,6 52,6 L51,6" id="Fill-435" sketch:type="MSShapeGroup"></path>
                <path d="M44,6 L43,6 C42.448,6 42,6.447 42,7 C42,7.553 42.448,8 43,8 L44,8 C44.552,8 45,7.553 45,7 C45,6.447 44.552,6 44,6" id="Fill-436" sketch:type="MSShapeGroup"></path>
                <path d="M36,6 L35,6 C34.448,6 34,6.447 34,7 C34,7.553 34.448,8 35,8 L36,8 C36.552,8 37,7.553 37,7 C37,6.447 36.552,6 36,6" id="Fill-437" sketch:type="MSShapeGroup"></path>
                <path d="M32,6 L31,6 C30.448,6 30,6.447 30,7 C30,7.553 30.448,8 31,8 L32,8 C32.552,8 33,7.553 33,7 C33,6.447 32.552,6 32,6" id="Fill-438" sketch:type="MSShapeGroup"></path>
                <path d="M55,6 C54.448,6 54,6.447 54,7 C54,7.553 54.448,8 55,8 L56,8 C56.552,8 57,7.553 57,7 C57,6.447 56.552,6 56,6 L55,6" id="Fill-439" sketch:type="MSShapeGroup"></path>
                <path d="M47,6 C46.448,6 46,6.447 46,7 C46,7.553 46.448,8 47,8 L48,8 C48.552,8 49,7.553 49,7 C49,6.447 48.552,6 48,6 L47,6" id="Fill-440" sketch:type="MSShapeGroup"></path>
                <path d="M40,6 L39,6 C38.448,6 38,6.447 38,7 C38,7.553 38.448,8 39,8 L40,8 C40.552,8 41,7.553 41,7 C41,6.447 40.552,6 40,6" id="Fill-441" sketch:type="MSShapeGroup"></path>
                <path d="M59,20.957 C58.448,20.957 58,21.404 58,21.957 L58,22.95 C58,23.503 58.448,23.95 59,23.95 C59.552,23.95 60,23.503 60,22.95 L60,21.957 C60,21.404 59.552,20.957 59,20.957" id="Fill-442" sketch:type="MSShapeGroup"></path>
                <path d="M59,24.932 C58.448,24.932 58,25.379 58,25.931 L58,26.723 L57.963,26.703 C57.785,26.588 57.6,26.488 57.407,26.401 L57.234,26.324 L57.106,26.267 L56.997,26.25 C56.554,26.1 56.088,26 55.595,26 L28.856,26 C28.682,25.704 28.368,25.5 28,25.5 C27.634,25.5 27.327,25.707 27.153,26 L4.405,26 C1.977,26 0,27.976 0,30.405 L0,55.595 C0,58.024 1.977,60 4.405,60 L55.595,60 C58.023,60 60,58.024 60,55.595 L60,29.906 C60,29.753 59.96,29.613 59.899,29.483 C59.774,28.898 59.531,28.359 59.198,27.885 C59.652,27.791 60,27.407 60,26.925 L60,25.931 C60,25.379 59.552,24.932 59,24.932 L59,24.932 Z M7,47 C4.794,47 3,45.206 3,43 C3,40.795 4.794,39 7,39 C9.206,39 11,40.795 11,43 C11,45.206 9.206,47 7,47 L7,47 Z M14,28 L52,28 L52,58 L14,58 L14,28 Z M57,47 C57,47.552 56.553,48 56,48 C55.447,48 55,47.552 55,47 L55,46 C55,45.448 55.447,45 56,45 C56.553,45 57,45.448 57,46 L57,47 L57,47 Z M57,43 C57,43.552 56.553,44 56,44 C55.447,44 55,43.552 55,43 L55,39 C55,38.448 55.447,38 56,38 C56.553,38 57,38.448 57,39 L57,43 L57,43 Z" id="Fill-443" sketch:type="MSShapeGroup"></path>
                <path d="M34.78,2 L35.774,2 C36.326,2 36.774,1.553 36.774,1 C36.774,0.447 36.326,0 35.774,0 L34.78,0 C34.228,0 33.78,0.447 33.78,1 C33.78,1.553 34.228,2 34.78,2" id="Fill-444" sketch:type="MSShapeGroup"></path>
                <path d="M57.82,3.492 C57.979,3.879 58.352,4.113 58.746,4.113 C58.873,4.113 59.001,4.089 59.125,4.037 C59.636,3.828 59.88,3.244 59.671,2.732 C59.508,2.336 59.288,1.965 59.017,1.631 C58.669,1.2 58.039,1.136 57.61,1.484 C57.181,1.832 57.116,2.462 57.463,2.891 C57.612,3.073 57.732,3.275 57.82,3.492" id="Fill-445" sketch:type="MSShapeGroup"></path>
                <path d="M42.729,2 L43.723,2 C44.275,2 44.723,1.553 44.723,1 C44.723,0.447 44.275,0 43.723,0 L42.729,0 C42.177,0 41.729,0.447 41.729,1 C41.729,1.553 42.177,2 42.729,2" id="Fill-446" sketch:type="MSShapeGroup"></path>
                <path d="M50.678,2 L51.671,2 C52.223,2 52.671,1.553 52.671,1 C52.671,0.447 52.223,0 51.671,0 L50.678,0 C50.126,0 49.678,0.447 49.678,1 C49.678,1.553 50.126,2 50.678,2" id="Fill-447" sketch:type="MSShapeGroup"></path>
                <path d="M38.755,2 L39.748,2 C40.3,2 40.748,1.553 40.748,1 C40.748,0.447 40.3,0 39.748,0 L38.755,0 C38.203,0 37.755,0.447 37.755,1 C37.755,1.553 38.203,2 38.755,2" id="Fill-448" sketch:type="MSShapeGroup"></path>
                <path d="M54.652,2 L55.646,2 C56.198,2 56.62,1.553 56.62,1 C56.62,0.447 56.147,0 55.595,0 L54.652,0 C54.1,0 53.652,0.447 53.652,1 C53.652,1.553 54.1,2 54.652,2" id="Fill-449" sketch:type="MSShapeGroup"></path>
                <path d="M46.703,2 L47.697,2 C48.249,2 48.697,1.553 48.697,1 C48.697,0.447 48.249,0 47.697,0 L46.703,0 C46.151,0 45.703,0.447 45.703,1 C45.703,1.553 46.151,2 46.703,2" id="Fill-450" sketch:type="MSShapeGroup"></path>
                <path d="M59,9.034 C58.448,9.034 58,9.482 58,10.034 L58,11.029 C58,11.581 58.448,12.028 59,12.028 C59.552,12.028 60,11.581 60,11.029 L60,10.034 C60,9.482 59.552,9.034 59,9.034" id="Fill-451" sketch:type="MSShapeGroup"></path>
                <path d="M59,5.06 C58.448,5.06 58,5.508 58,6.061 L58,7.054 C58,7.607 58.448,8.054 59,8.054 C59.552,8.054 60,7.607 60,7.054 L60,6.061 C60,5.508 59.552,5.06 59,5.06" id="Fill-452" sketch:type="MSShapeGroup"></path>
                <path d="M59,16.983 C58.448,16.983 58,17.431 58,17.983 L58,18.977 C58,19.529 58.448,19.977 59,19.977 C59.552,19.977 60,19.529 60,18.977 L60,17.983 C60,17.431 59.552,16.983 59,16.983" id="Fill-453" sketch:type="MSShapeGroup"></path>
                <path d="M59,13.009 C58.448,13.009 58,13.456 58,14.009 L58,15.002 C58,15.555 58.448,16.002 59,16.002 C59.552,16.002 60,15.555 60,15.002 L60,14.009 C60,13.456 59.552,13.009 59,13.009" id="Fill-454" sketch:type="MSShapeGroup"></path>
                <path d="M28,24.499 C28.552,24.499 29,24.052 29,23.499 L29,22.506 C29,21.953 28.552,21.506 28,21.506 C27.448,21.506 27,21.953 27,22.506 L27,23.499 C27,24.052 27.448,24.499 28,24.499" id="Fill-455" sketch:type="MSShapeGroup"></path>
                <path d="M28,12.576 C28.552,12.576 29,12.129 29,11.576 L29,10.583 C29,10.031 28.552,9.583 28,9.583 C27.448,9.583 27,10.031 27,10.583 L27,11.576 C27,12.129 27.448,12.576 28,12.576" id="Fill-456" sketch:type="MSShapeGroup"></path>
                <path d="M28,8.602 C28.552,8.602 29,8.154 29,7.602 L29,6.609 C29,6.055 28.552,5.608 28,5.608 C27.448,5.608 27,6.055 27,6.609 L27,7.602 C27,8.154 27.448,8.602 28,8.602" id="Fill-457" sketch:type="MSShapeGroup"></path>
                <path d="M27.862,4.608 L28.088,4.634 C28.544,4.634 28.955,4.321 29.061,3.859 C29.114,3.632 29.2,3.414 29.316,3.211 C29.591,2.732 29.426,2.12 28.947,1.846 C28.467,1.571 27.856,1.737 27.582,2.215 C27.368,2.589 27.21,2.99 27.113,3.408 C26.989,3.946 27.324,4.483 27.862,4.608" id="Fill-458" sketch:type="MSShapeGroup"></path>
                <path d="M30.809,2.052 L30.983,2.036 C31.121,2.012 31.262,2 31.405,2 L31.8,2 C32.352,2 32.8,1.553 32.8,1 C32.8,0.447 32.352,0 31.8,0 L31.405,0 C31.146,0 30.887,0.023 30.636,0.067 C30.092,0.163 29.729,0.682 29.825,1.226 C29.911,1.711 30.332,2.052 30.809,2.052" id="Fill-459" sketch:type="MSShapeGroup"></path>
                <path d="M28,20.525 C28.552,20.525 29,20.078 29,19.526 L29,18.531 C29,17.979 28.552,17.531 28,17.531 C27.448,17.531 27,17.979 27,18.531 L27,19.526 C27,20.078 27.448,20.525 28,20.525" id="Fill-460" sketch:type="MSShapeGroup"></path>
                <path d="M28,16.551 C28.552,16.551 29,16.104 29,15.551 L29,14.557 C29,14.004 28.552,13.556 28,13.556 C27.448,13.556 27,14.004 27,14.557 L27,15.551 C27,16.104 27.448,16.551 28,16.551" id="Fill-461" sketch:type="MSShapeGroup"></path>
                <path d="M4,22 C4.552,22 5,21.553 5,21 C5,14.935 9.935,10 16,10 L18.586,10 L14.293,14.293 C13.902,14.684 13.902,15.317 14.293,15.707 C14.488,15.903 14.744,16 15,16 C15.256,16 15.512,15.903 15.707,15.707 L21.706,9.708 C21.799,9.616 21.872,9.505 21.923,9.382 C22.024,9.137 22.024,8.862 21.923,8.618 C21.872,8.495 21.799,8.384 21.706,8.292 L15.707,2.293 C15.316,1.902 14.684,1.902 14.293,2.293 C13.902,2.684 13.902,3.317 14.293,3.707 L18.586,8 L16,8 C8.832,8 3,13.832 3,21 C3,21.553 3.448,22 4,22" id="Fill-462" sketch:type="MSShapeGroup"></path>
            </g>
        </g>
    </g>
</svg>