<?xml version="1.0" encoding="UTF-8" standalone="no"?>
<svg width="56px" height="50px" viewBox="0 0 56 50" version="1.1" xmlns="http://www.w3.org/2000/svg" xmlns:xlink="http://www.w3.org/1999/xlink" xmlns:sketch="http://www.bohemiancoding.com/sketch/ns">
    <!-- Generator: Sketch 3.2.2 (9983) - http://www.bohemiancoding.com/sketch -->
    <title>171 - Cloud Download (Solid)</title>
    <desc>Created with Sketch.</desc>
    <defs></defs>
    <g id="Page-1" stroke="none" stroke-width="1" fill="none" fill-rule="evenodd" sketch:type="MSPage">
        <g id="Icons" sketch:type="MSArtboardGroup" transform="translate(-1202.000000, -2767.000000)" fill="#000000">
            <g id="171---Cloud-Download-(Solid)" sketch:type="MSLayerGroup" transform="translate(1202.000000, 2767.000000)">
                <path d="M35.586,38.586 L31,43.172 L31,25 C31,23.896 30.104,23 29,23 C27.896,23 27,23.896 27,25 L27,43.172 L22.414,38.586 C21.633,37.805 20.367,37.805 19.586,38.586 C18.805,39.367 18.805,40.633 19.586,41.414 L27.585,49.413 C27.678,49.506 27.781,49.59 27.891,49.664 L28.04,49.744 L28.235,49.847 L28.435,49.909 L28.608,49.96 C28.738,49.986 28.869,50 29,50 C29.131,50 29.262,49.986 29.392,49.96 L29.565,49.909 L29.765,49.847 L29.96,49.744 L30.109,49.664 C30.219,49.59 30.322,49.506 30.415,49.413 L38.414,41.414 C39.195,40.633 39.195,39.367 38.414,38.586 C37.633,37.805 36.367,37.805 35.586,38.586" id="Fill-1024" sketch:type="MSShapeGroup"></path>
                <path d="M47.835,15.986 C47.698,15.968 45.378,15.651 43.15,15.988 L42.999,16 C42.513,16 42.087,15.646 42.012,15.15 C41.929,14.604 42.304,14.095 42.85,14.012 C44.381,13.779 45.911,13.816 46.933,13.888 C46.262,6.135 39.83,0 32.085,0 C27.388,0 22.667,2.379 19.8,6.129 C21.754,7.781 23,10.246 23,13 C23,13.553 22.553,14 22,14 C21.447,14 21,13.553 21,13 C21,10.538 19.719,8.373 17.791,7.124 C17.564,6.978 17.329,6.847 17.089,6.729 L16.88,6.627 C16.607,6.504 16.33,6.394 16.045,6.307 L15.939,6.279 C15.68,6.204 15.417,6.147 15.15,6.103 L14.917,6.067 C14.614,6.027 14.309,6 14,6 C10.141,6 7,9.141 7,13 L7.012,13.244 L7.023,13.454 L7.015,13.614 C7.008,13.744 7,13.873 7,14 L7,14.63 L6.433,14.901 C2.705,16.688 0,21 0,25.154 C0,31.135 4.865,36 10.845,36 L25,36 L25,25 C25,22.791 26.791,21 29,21 C31.209,21 33,22.791 33,25 L33,36 L35.353,36 L35.526,35.991 L35.725,35.98 L35.995,35.991 L36.169,36 L45.972,36 C51.501,36 56,31.501 56,25.972 C56,21.161 52.49,16.872 47.835,15.986" id="Fill-1025" sketch:type="MSShapeGroup"></path>
            </g>
        </g>
    </g>
</svg>