<?xml version="1.0" encoding="UTF-8" standalone="no"?>
<svg width="60px" height="60px" viewBox="0 0 60 60" version="1.1" xmlns="http://www.w3.org/2000/svg" xmlns:xlink="http://www.w3.org/1999/xlink" xmlns:sketch="http://www.bohemiancoding.com/sketch/ns">
    <!-- Generator: Sketch 3.2.2 (9983) - http://www.bohemiancoding.com/sketch -->
    <title>173 - Databases (Solid)</title>
    <desc>Created with Sketch.</desc>
    <defs></defs>
    <g id="Page-1" stroke="none" stroke-width="1" fill="none" fill-rule="evenodd" sketch:type="MSPage">
        <g id="Icons" sketch:type="MSArtboardGroup" transform="translate(-960.000000, -2757.000000)" fill="#000000">
            <g id="173---Databases-(Solid)" sketch:type="MSLayerGroup" transform="translate(960.000000, 2757.000000)">
                <path d="M0,42.799 L0,51 C0,51.162 0.043,51.315 0.117,51.451 C1.298,56.346 11.864,60 25,60 C38.106,60 48.655,56.361 49.875,51.484 C49.955,51.341 50,51.176 50,51 L50,42.801 C45.865,45.711 37.345,48 25,48 C12.654,48 4.134,45.71 0,42.799" id="Fill-1016" sketch:type="MSShapeGroup"></path>
                <path d="M53,49.954 C53,50.15 52.952,50.334 52.868,50.494 C52.728,51.081 52.468,51.65 52.108,52.201 C56.412,50.687 59.275,48.592 59.875,46.194 C59.955,46.051 60,45.885 60,45.71 L60,37.51 L53,40.801 L53,49.954" id="Fill-1017" sketch:type="MSShapeGroup"></path>
                <path d="M27.606,35.958 C26.737,35.986 25.867,36 25,36 C24.131,36 23.258,35.986 22.386,35.958 C15.045,35.757 9.195,34.72 4.983,33.241 C3.004,32.574 1.309,31.788 0,30.889 L0,40.289 C2.846,43.26 12.394,46 25,46 C37.606,46 47.154,43.26 50,40.289 L50,30.889 C48.682,31.794 46.972,32.586 44.975,33.256 C40.765,34.728 34.927,35.759 27.606,35.958" id="Fill-1018" sketch:type="MSShapeGroup"></path>
                <path d="M52,29 L52,38.746 C55.873,37.715 58.673,36.384 60,34.999 L60,25.599 C58.682,26.504 56.972,27.295 54.975,27.966 L52,29" id="Fill-1019" sketch:type="MSShapeGroup"></path>
                <path d="M0,18.979 L0,28.378 C2.638,31.132 11.033,33.688 22.286,34.047 C22.402,34.05 22.52,34.052 22.636,34.055 C22.961,34.064 23.287,34.073 23.617,34.079 C24.074,34.086 24.535,34.09 25,34.09 C25.465,34.09 25.926,34.086 26.383,34.079 C26.713,34.073 27.039,34.064 27.364,34.055 C27.48,34.052 27.598,34.05 27.714,34.047 C38.967,33.688 47.362,31.132 50,28.378 L50,18.979 C45.132,22.322 34.844,24.09 25,24.09 C15.156,24.09 4.867,22.322 0,18.979" id="Fill-1020" sketch:type="MSShapeGroup"></path>
                <path d="M25,5.29 C9.923,5.29 1.304,9.51 0.146,13.8 C0.062,13.947 0,14.108 0,14.29 L0,16.596 C2.836,19.557 12.316,22.29 25,22.29 C37.684,22.29 47.164,19.557 50,16.596 L50,14.29 C50,14.122 49.944,13.971 49.865,13.832 C48.743,9.531 40.115,5.29 25,5.29" id="Fill-1021" sketch:type="MSShapeGroup"></path>
                <path d="M52,24.501 L52,26.842 C55.879,25.811 58.671,24.475 60,23.088 L60,13.688 C58.068,15.015 55.274,16.09 52,16.908 L52,24.501" id="Fill-1022" sketch:type="MSShapeGroup"></path>
                <path d="M59.865,8.542 C58.743,4.241 50.115,0 35,0 C24.873,0 17.676,1.907 13.68,4.457 C17.16,3.725 21.268,3.29 26,3.29 C41.72,3.29 50.692,8.03 51.86,12.837 C51.942,12.992 52,13.161 52,13.349 L52,15.05 C55.88,14.021 58.674,12.691 60,11.306 L60,9 C60,8.832 59.944,8.681 59.865,8.542" id="Fill-1023" sketch:type="MSShapeGroup"></path>
            </g>
        </g>
    </g>
</svg>