<?xml version="1.0" encoding="UTF-8" standalone="no"?>
<svg width="50px" height="59px" viewBox="0 0 50 59" version="1.1" xmlns="http://www.w3.org/2000/svg" xmlns:xlink="http://www.w3.org/1999/xlink" xmlns:sketch="http://www.bohemiancoding.com/sketch/ns">
    <!-- Generator: Sketch 3.2.2 (9983) - http://www.bohemiancoding.com/sketch -->
    <title>174 - Database (Solid)</title>
    <desc>Created with Sketch.</desc>
    <defs></defs>
    <g id="Page-1" stroke="none" stroke-width="1" fill="none" fill-rule="evenodd" sketch:type="MSPage">
        <g id="Icons" sketch:type="MSArtboardGroup" transform="translate(-845.000000, -2757.000000)" fill="#000000">
            <g id="174---Database-(Solid)" sketch:type="MSLayerGroup" transform="translate(845.000000, 2757.000000)">
                <path d="M27.606,33.869 C26.737,33.896 25.867,33.91 25,33.91 C24.131,33.91 23.258,33.896 22.386,33.869 C15.045,33.668 9.195,32.631 4.983,31.152 C3.004,30.485 1.309,29.698 0,28.799 L0,38.199 C2.846,41.17 12.394,43.91 25,43.91 C37.606,43.91 47.154,41.17 50,38.199 L50,28.799 C48.682,29.705 46.972,30.496 44.975,31.167 C40.765,32.638 34.927,33.669 27.606,33.869 L27.606,33.869 Z M48,32.149 L48,37.306 C44.979,39.621 36.328,41.91 25,41.91 C13.672,41.91 5.021,39.621 2,37.306 L2,32.149 C2.722,32.464 3.497,32.761 4.32,33.039 C9.04,34.696 15.268,35.675 22.323,35.868 C23.219,35.896 24.12,35.91 25,35.91 C25.874,35.91 26.772,35.896 27.661,35.868 C34.703,35.676 40.918,34.703 45.611,33.062 C46.462,32.777 47.259,32.472 48,32.149 L48,32.149 Z" id="Fill-1" sketch:type="MSShapeGroup"></path>
                <path d="M0,15.688 L0,25.088 C2.638,27.842 11.033,30.397 22.286,30.756 C22.402,30.76 22.52,30.762 22.636,30.765 C22.961,30.774 23.287,30.783 23.617,30.788 C24.074,30.795 24.535,30.799 25,30.799 C25.465,30.799 25.926,30.795 26.383,30.788 C26.713,30.783 27.039,30.774 27.364,30.765 C27.48,30.762 27.598,30.76 27.714,30.756 C38.967,30.397 47.362,27.842 50,25.088 L50,15.688 C45.132,19.032 34.844,20.799 25,20.799 C15.156,20.799 4.867,19.032 0,15.688" id="Fill-2" sketch:type="MSShapeGroup"></path>
                <path d="M49.865,9.341 C48.743,5.04 40.115,0.799 25,0.799 C9.923,0.799 1.304,5.019 0.146,9.309 C0.062,9.456 0,9.617 0,9.799 L0,12.106 C2.836,15.066 12.316,17.799 25,17.799 C37.684,17.799 47.164,15.066 50,12.106 L50,9.799 C50,9.631 49.944,9.48 49.865,9.341" id="Fill-3" sketch:type="MSShapeGroup"></path>
                <path d="M0,41.799 L0,50 C0,50.162 0.043,50.315 0.117,50.451 C1.298,55.346 11.864,59 25,59 C38.106,59 48.655,55.361 49.875,50.484 C49.955,50.341 50,50.176 50,50 L50,41.801 C45.865,44.711 37.345,47 25,47 C12.653,47 4.134,44.71 0,41.799" id="Fill-4" sketch:type="MSShapeGroup"></path>
            </g>
        </g>
    </g>
</svg>