<?xml version="1.0" encoding="UTF-8" standalone="no"?>
<svg width="60px" height="60px" viewBox="0 0 60 60" version="1.1" xmlns="http://www.w3.org/2000/svg" xmlns:xlink="http://www.w3.org/1999/xlink" xmlns:sketch="http://www.bohemiancoding.com/sketch/ns">
    <!-- Generator: Sketch 3.2.2 (9983) - http://www.bohemiancoding.com/sketch -->
    <title>176 - Network Database (Solid)</title>
    <desc>Created with Sketch.</desc>
    <defs></defs>
    <g id="Page-1" stroke="none" stroke-width="1" fill="none" fill-rule="evenodd" sketch:type="MSPage">
        <g id="Icons" sketch:type="MSArtboardGroup" transform="translate(-600.000000, -2757.000000)" fill="#1A1718">
            <g id="176---Network-Database-(Solid)" sketch:type="MSLayerGroup" transform="translate(600.000000, 2757.000000)">
                <path d="M43.534,43.22 C43.247,43.229 42.96,43.234 42.673,43.239 L42.507,43.243 C42.171,43.247 41.835,43.25 41.5,43.25 C41.164,43.25 40.827,43.247 40.49,43.243 L40.353,43.24 C40.055,43.235 39.758,43.229 39.46,43.22 L39.398,43.218 C32.549,43.015 25.761,41.822 22,39.699 L22,46.091 C24.138,48.248 31.602,50.25 41.5,50.25 C50.208,50.25 57.027,48.699 60,46.859 L60,40.209 C56.114,42.011 49.897,43.029 43.627,43.217 L43.534,43.22" id="Fill-1009" sketch:type="MSShapeGroup"></path>
                <path d="M22,30.695 L22,37.074 L22.157,37.231 L22.293,37.352 C24.8,39.4 32.198,41.25 41.5,41.25 C50.048,41.25 56.985,39.687 60,37.845 L60,31.2 C55.669,33.2 48.448,34.25 41.5,34.25 C33.987,34.25 26.151,33.023 22,30.695" id="Fill-1010" sketch:type="MSShapeGroup"></path>
                <path d="M22,48.699 L22,53 C22,53.151 22.036,53.294 22.1,53.422 C23.148,57.742 32.312,60 41,60 C49.672,60 58.816,57.751 59.895,53.447 C59.962,53.313 60,53.161 60,53 L60,49.209 C55.674,51.215 48.46,52.25 41.5,52.25 C33.971,52.25 26.146,51.04 22,48.699" id="Fill-1011" sketch:type="MSShapeGroup"></path>
                <path d="M41,18.25 C32.31,18.25 23.11,20.552 22.096,24.834 C22.038,24.962 22,25.1 22,25.25 L22,28.074 C24.153,30.229 31.779,32.25 41.5,32.25 C50.048,32.25 56.985,30.687 60,28.845 L60,25.25 C60,25.105 59.964,24.97 59.906,24.846 C58.906,20.556 49.698,18.25 41,18.25" id="Fill-1012" sketch:type="MSShapeGroup"></path>
                <path d="M55.392,0 L4.608,0 C2.067,0 0,2.067 0,4.608 L0,16.392 C0,17.365 0.314,18.26 0.835,19 L24.851,19 C28.825,17.195 34.787,16.25 40.545,16.25 C46.303,16.25 52.263,17.196 56.237,19 L59.165,19 C59.686,18.26 60,17.365 60,16.392 L60,4.608 C60,2.067 57.933,0 55.392,0 L55.392,0 Z M10.5,15 C8.019,15 6,12.981 6,10.5 C6,8.019 8.019,6 10.5,6 C12.981,6 15,8.019 15,10.5 C15,12.981 12.981,15 10.5,15 L10.5,15 Z M34,10 C33.448,10 33,9.552 33,9 C33,8.448 33.448,8 34,8 C34.552,8 35,8.448 35,9 C35,9.552 34.552,10 34,10 L34,10 Z M36,13 C35.448,13 35,12.552 35,12 C35,11.448 35.448,11 36,11 C36.552,11 37,11.448 37,12 C37,12.552 36.552,13 36,13 L36,13 Z M38,10 C37.448,10 37,9.552 37,9 C37,8.448 37.448,8 38,8 C38.552,8 39,8.448 39,9 C39,9.552 38.552,10 38,10 L38,10 Z M40,13 C39.448,13 39,12.552 39,12 C39,11.448 39.448,11 40,11 C40.552,11 41,11.448 41,12 C41,12.552 40.552,13 40,13 L40,13 Z M42,10 C41.448,10 41,9.552 41,9 C41,8.448 41.448,8 42,8 C42.552,8 43,8.448 43,9 C43,9.552 42.552,10 42,10 L42,10 Z M44,13 C43.448,13 43,12.552 43,12 C43,11.448 43.448,11 44,11 C44.552,11 45,11.448 45,12 C45,12.552 44.552,13 44,13 L44,13 Z M46,10 C45.448,10 45,9.552 45,9 C45,8.448 45.448,8 46,8 C46.552,8 47,8.448 47,9 C47,9.552 46.552,10 46,10 L46,10 Z M48,13 C47.448,13 47,12.552 47,12 C47,11.448 47.448,11 48,11 C48.552,11 49,11.448 49,12 C49,12.552 48.552,13 48,13 L48,13 Z M50,10 C49.448,10 49,9.552 49,9 C49,8.448 49.448,8 50,8 C50.552,8 51,8.448 51,9 C51,9.552 50.552,10 50,10 L50,10 Z M52,13 C51.448,13 51,12.552 51,12 C51,11.448 51.448,11 52,11 C52.552,11 53,11.448 53,12 C53,12.552 52.552,13 52,13 L52,13 Z" id="Fill-1013" sketch:type="MSShapeGroup"></path>
                <path d="M20,38 L20,35 L20,25.25 C20,25.1 20.038,24.962 20.096,24.834 C20.461,23.293 21.897,22.013 23.977,21 L0.835,21 C0.314,21.74 0,22.635 0,23.608 L0,35.392 C0,36.365 0.314,37.26 0.835,38 L20,38 L20,38 Z M10.5,25 C12.981,25 15,27.019 15,29.5 C15,31.981 12.981,34 10.5,34 C8.019,34 6,31.981 6,29.5 C6,27.019 8.019,25 10.5,25 L10.5,25 Z" id="Fill-1014" sketch:type="MSShapeGroup"></path>
                <path d="M22.718,56.569 C21.332,55.686 20.394,54.636 20.1,53.422 C20.036,53.294 20,53.151 20,53 L20,40 L0.835,40 C0.314,40.741 0,41.635 0,42.608 L0,54.391 C0,56.937 2.063,59 4.608,59 L22.11,59 C23.376,58.982 23.786,57.249 22.718,56.569 L22.718,56.569 Z M10.5,53 C8.019,53 6,50.981 6,48.5 C6,46.019 8.019,44 10.5,44 C12.981,44 15,46.019 15,48.5 C15,50.981 12.981,53 10.5,53 L10.5,53 Z" id="Fill-1015" sketch:type="MSShapeGroup"></path>
            </g>
        </g>
    </g>
</svg>