<?xml version="1.0" encoding="UTF-8" standalone="no"?>
<svg width="60px" height="58px" viewBox="0 0 60 58" version="1.1" xmlns="http://www.w3.org/2000/svg" xmlns:xlink="http://www.w3.org/1999/xlink" xmlns:sketch="http://www.bohemiancoding.com/sketch/ns">
    <!-- Generator: Sketch 3.2.2 (9983) - http://www.bohemiancoding.com/sketch -->
    <title>177 - Connected Network (Solid)</title>
    <desc>Created with Sketch.</desc>
    <defs></defs>
    <g id="Page-1" stroke="none" stroke-width="1" fill="none" fill-rule="evenodd" sketch:type="MSPage">
        <g id="Icons" sketch:type="MSArtboardGroup" transform="translate(-480.000000, -2757.000000)" fill="#1A1718">
            <g id="177---Connected-Network-(Solid)" sketch:type="MSLayerGroup" transform="translate(480.000000, 2757.000000)">
                <path d="M34,51.977 C33.448,51.977 33,52.447 33,53 C33,53.264 32.966,53.524 32.899,53.775 C32.756,54.309 33.074,54.857 33.607,54.999 L33.866,55.033 C34.308,55.033 34.712,54.738 34.831,54.291 C34.943,53.872 35,53.438 35,53 L35,52.953 C35,52.4 34.552,51.977 34,51.977" id="Fill-982" sketch:type="MSShapeGroup"></path>
                <path d="M27,53 C27,52.742 27.033,52.487 27.097,52.241 C27.236,51.707 26.915,51.161 26.381,51.021 C25.846,50.884 25.3,51.202 25.161,51.737 C25.054,52.147 25,52.572 25.001,53.022 L26,53.023 L25.001,53.023 C25.001,53.576 25.448,54.012 26,54.012 C26.553,54.012 27,53.553 27,53" id="Fill-983" sketch:type="MSShapeGroup"></path>
                <path d="M31.504,55.597 C31.279,55.729 31.037,55.829 30.785,55.896 C30.252,56.04 29.936,56.589 30.08,57.122 C30.2,57.568 30.603,57.862 31.045,57.862 L31.306,57.828 C31.727,57.714 32.133,57.545 32.511,57.325 C32.988,57.047 33.149,56.435 32.872,55.957 C32.593,55.48 31.981,55.32 31.504,55.597" id="Fill-984" sketch:type="MSShapeGroup"></path>
                <path d="M28.51,55.604 C28.283,55.474 28.074,55.314 27.889,55.131 C27.498,54.741 26.865,54.745 26.475,55.135 C26.085,55.526 26.087,56.16 26.479,56.549 C26.789,56.856 27.138,57.123 27.517,57.34 C27.673,57.43 27.844,57.472 28.012,57.472 C28.359,57.472 28.696,57.291 28.881,56.969 C29.155,56.489 28.989,55.878 28.51,55.604" id="Fill-985" sketch:type="MSShapeGroup"></path>
                <path d="M31.473,50.386 C31.702,50.515 31.913,50.674 32.099,50.856 C32.294,51.048 32.547,51.143 32.799,51.143 C33.059,51.143 33.317,51.042 33.513,50.843 C33.9,50.448 33.894,49.815 33.5,49.429 C33.189,49.124 32.839,48.861 32.46,48.646 C31.978,48.374 31.37,48.54 31.097,49.022 C30.825,49.503 30.993,50.113 31.473,50.386" id="Fill-986" sketch:type="MSShapeGroup"></path>
                <path d="M28.667,48.181 C28.247,48.296 27.843,48.468 27.466,48.688 C26.99,48.969 26.831,49.581 27.111,50.058 C27.297,50.374 27.631,50.551 27.974,50.551 C28.147,50.551 28.321,50.507 28.48,50.413 C28.706,50.28 28.947,50.178 29.199,50.108 C29.731,49.962 30.044,49.411 29.897,48.879 C29.75,48.347 29.2,48.036 28.667,48.181" id="Fill-987" sketch:type="MSShapeGroup"></path>
                <path d="M6,52 L5,52 C4.448,52 4,52.447 4,53 C4,53.553 4.448,54 5,54 L6,54 C6.552,54 7,53.553 7,53 C7,52.447 6.552,52 6,52" id="Fill-988" sketch:type="MSShapeGroup"></path>
                <path d="M10,52 L9,52 C8.448,52 8,52.447 8,53 C8,53.553 8.448,54 9,54 L10,54 C10.552,54 11,53.553 11,53 C11,52.447 10.552,52 10,52" id="Fill-989" sketch:type="MSShapeGroup"></path>
                <path d="M2,52 L1,52 C0.448,52 0,52.447 0,53 C0,53.553 0.448,54 1,54 L2,54 C2.552,54 3,53.553 3,53 C3,52.447 2.552,52 2,52" id="Fill-990" sketch:type="MSShapeGroup"></path>
                <path d="M14,52 L13,52 C12.448,52 12,52.447 12,53 C12,53.553 12.448,54 13,54 L14,54 C14.552,54 15,53.553 15,53 C15,52.447 14.552,52 14,52" id="Fill-991" sketch:type="MSShapeGroup"></path>
                <path d="M18,52 L17,52 C16.448,52 16,52.447 16,53 C16,53.553 16.448,54 17,54 L18,54 C18.552,54 19,53.553 19,53 C19,52.447 18.552,52 18,52" id="Fill-992" sketch:type="MSShapeGroup"></path>
                <path d="M22,52 L21,52 C20.448,52 20,52.447 20,53 C20,53.553 20.448,54 21,54 L22,54 C22.552,54 23,53.553 23,53 C23,52.447 22.552,52 22,52" id="Fill-993" sketch:type="MSShapeGroup"></path>
                <path d="M43,52 L42,52 C41.448,52 41,52.447 41,53 C41,53.553 41.448,54 42,54 L43,54 C43.552,54 44,53.553 44,53 C44,52.447 43.552,52 43,52" id="Fill-994" sketch:type="MSShapeGroup"></path>
                <path d="M59,52 L58,52 C57.448,52 57,52.447 57,53 C57,53.553 57.448,54 58,54 L59,54 C59.552,54 60,53.553 60,53 C60,52.447 59.552,52 59,52" id="Fill-995" sketch:type="MSShapeGroup"></path>
                <path d="M55,52 L54,52 C53.448,52 53,52.447 53,53 C53,53.553 53.448,54 54,54 L55,54 C55.552,54 56,53.553 56,53 C56,52.447 55.552,52 55,52" id="Fill-996" sketch:type="MSShapeGroup"></path>
                <path d="M51,52 L50,52 C49.448,52 49,52.447 49,53 C49,53.553 49.448,54 50,54 L51,54 C51.552,54 52,53.553 52,53 C52,52.447 51.552,52 51,52" id="Fill-997" sketch:type="MSShapeGroup"></path>
                <path d="M47,52 L46,52 C45.448,52 45,52.447 45,53 C45,53.553 45.448,54 46,54 L47,54 C47.552,54 48,53.553 48,53 C48,52.447 47.552,52 47,52" id="Fill-998" sketch:type="MSShapeGroup"></path>
                <path d="M39,52 L38,52 C37.448,52 37,52.447 37,53 C37,53.553 37.448,54 38,54 L39,54 C39.552,54 40,53.553 40,53 C40,52.447 39.552,52 39,52" id="Fill-999" sketch:type="MSShapeGroup"></path>
                <path d="M29,41 L29,42 C29,42.553 29.448,43 30,43 C30.552,43 31,42.553 31,42 L31,41 C31,40.447 30.552,40 30,40 C29.448,40 29,40.447 29,41" id="Fill-1000" sketch:type="MSShapeGroup"></path>
                <path d="M31,46 L31,45 C31,44.447 30.552,44 30,44 C29.448,44 29,44.447 29,45 L29,46 C29,46.553 29.448,47 30,47 C30.552,47 31,46.553 31,46" id="Fill-1001" sketch:type="MSShapeGroup"></path>
                <path d="M0.835,21 C0.314,21.74 0,22.635 0,23.608 L0,35.392 C0,37.933 2.067,40 4.608,40 L55.392,40 C57.933,40 60,37.933 60,35.392 L60,23.608 C60,22.635 59.686,21.74 59.165,21 L0.835,21 L0.835,21 Z M10.5,34 C8.019,34 6,31.981 6,29.5 C6,27.019 8.019,25 10.5,25 C12.981,25 15,27.019 15,29.5 C15,31.981 12.981,34 10.5,34 L10.5,34 Z M34,29 C33.448,29 33,28.552 33,28 C33,27.448 33.448,27 34,27 C34.552,27 35,27.448 35,28 C35,28.552 34.552,29 34,29 L34,29 Z M36,32 C35.448,32 35,31.552 35,31 C35,30.448 35.448,30 36,30 C36.552,30 37,30.448 37,31 C37,31.552 36.552,32 36,32 L36,32 Z M38,29 C37.448,29 37,28.552 37,28 C37,27.448 37.448,27 38,27 C38.552,27 39,27.448 39,28 C39,28.552 38.552,29 38,29 L38,29 Z M40,32 C39.448,32 39,31.552 39,31 C39,30.448 39.448,30 40,30 C40.552,30 41,30.448 41,31 C41,31.552 40.552,32 40,32 L40,32 Z M42,29 C41.448,29 41,28.552 41,28 C41,27.448 41.448,27 42,27 C42.552,27 43,27.448 43,28 C43,28.552 42.552,29 42,29 L42,29 Z M44,32 C43.448,32 43,31.552 43,31 C43,30.448 43.448,30 44,30 C44.552,30 45,30.448 45,31 C45,31.552 44.552,32 44,32 L44,32 Z M46,29 C45.448,29 45,28.552 45,28 C45,27.448 45.448,27 46,27 C46.552,27 47,27.448 47,28 C47,28.552 46.552,29 46,29 L46,29 Z M48,32 C47.448,32 47,31.552 47,31 C47,30.448 47.448,30 48,30 C48.552,30 49,30.448 49,31 C49,31.552 48.552,32 48,32 L48,32 Z M50,29 C49.448,29 49,28.552 49,28 C49,27.448 49.448,27 50,27 C50.552,27 51,27.448 51,28 C51,28.552 50.552,29 50,29 L50,29 Z M52,32 C51.448,32 51,31.552 51,31 C51,30.448 51.448,30 52,30 C52.552,30 53,30.448 53,31 C53,31.552 52.552,32 52,32 L52,32 Z" id="Fill-1002" sketch:type="MSShapeGroup"></path>
                <path d="M55.392,0 L4.608,0 C2.067,0 0,2.067 0,4.608 L0,16.392 C0,17.365 0.314,18.26 0.835,19 L59.165,19 C59.686,18.26 60,17.365 60,16.392 L60,4.608 C60,2.067 57.933,0 55.392,0 L55.392,0 Z M10.5,15 C8.019,15 6,12.981 6,10.5 C6,8.019 8.019,6 10.5,6 C12.981,6 15,8.019 15,10.5 C15,12.981 12.981,15 10.5,15 L10.5,15 Z M34,10 C33.448,10 33,9.552 33,9 C33,8.448 33.448,8 34,8 C34.552,8 35,8.448 35,9 C35,9.552 34.552,10 34,10 L34,10 Z M36,13 C35.448,13 35,12.552 35,12 C35,11.448 35.448,11 36,11 C36.552,11 37,11.448 37,12 C37,12.552 36.552,13 36,13 L36,13 Z M38,10 C37.448,10 37,9.552 37,9 C37,8.448 37.448,8 38,8 C38.552,8 39,8.448 39,9 C39,9.552 38.552,10 38,10 L38,10 Z M40,13 C39.448,13 39,12.552 39,12 C39,11.448 39.448,11 40,11 C40.552,11 41,11.448 41,12 C41,12.552 40.552,13 40,13 L40,13 Z M42,10 C41.448,10 41,9.552 41,9 C41,8.448 41.448,8 42,8 C42.552,8 43,8.448 43,9 C43,9.552 42.552,10 42,10 L42,10 Z M44,13 C43.448,13 43,12.552 43,12 C43,11.448 43.448,11 44,11 C44.552,11 45,11.448 45,12 C45,12.552 44.552,13 44,13 L44,13 Z M46,10 C45.448,10 45,9.552 45,9 C45,8.448 45.448,8 46,8 C46.552,8 47,8.448 47,9 C47,9.552 46.552,10 46,10 L46,10 Z M48,13 C47.448,13 47,12.552 47,12 C47,11.448 47.448,11 48,11 C48.552,11 49,11.448 49,12 C49,12.552 48.552,13 48,13 L48,13 Z M50,10 C49.448,10 49,9.552 49,9 C49,8.448 49.448,8 50,8 C50.552,8 51,8.448 51,9 C51,9.552 50.552,10 50,10 L50,10 Z M52,13 C51.448,13 51,12.552 51,12 C51,11.448 51.448,11 52,11 C52.552,11 53,11.448 53,12 C53,12.552 52.552,13 52,13 L52,13 Z" id="Fill-1003" sketch:type="MSShapeGroup"></path>
            </g>
        </g>
    </g>
</svg>