<?xml version="1.0" encoding="UTF-8" standalone="no"?>
<svg width="60px" height="60px" viewBox="0 0 60 60" version="1.1" xmlns="http://www.w3.org/2000/svg" xmlns:xlink="http://www.w3.org/1999/xlink" xmlns:sketch="http://www.bohemiancoding.com/sketch/ns">
    <!-- Generator: Sketch 3.2.2 (9983) - http://www.bohemiancoding.com/sketch -->
    <title>18 - Rotate Landscape (Solid)</title>
    <desc>Created with Sketch.</desc>
    <defs></defs>
    <g id="Page-1" stroke="none" stroke-width="1" fill="none" fill-rule="evenodd" sketch:type="MSPage">
        <g id="Icons" sketch:type="MSArtboardGroup" transform="translate(-360.000000, -4677.000000)" fill="#000000">
            <g id="18---Rotate-Landscape-(Solid)" sketch:type="MSLayerGroup" transform="translate(360.000000, 4677.000000)">
                <path d="M17,51 C15.897,51 15,51.897 15,53 C15,54.102 15.897,55 17,55 C18.103,55 19,54.102 19,53 C19,51.897 18.103,51 17,51" id="Fill-405" sketch:type="MSShapeGroup"></path>
                <path d="M54,39 C54,38.447 53.552,38 53,38 C52.448,38 52,38.447 52,39 L52,40 C52,40.553 52.448,41 53,41 C53.552,41 54,40.553 54,40 L54,39" id="Fill-406" sketch:type="MSShapeGroup"></path>
                <path d="M54,43 C54,42.448 53.552,42 53,42 C52.448,42 52,42.448 52,43 L52,44 C52,44.552 52.448,45 53,45 C53.552,45 54,44.552 54,44 L54,43" id="Fill-407" sketch:type="MSShapeGroup"></path>
                <path d="M54,47 C54,46.447 53.552,46 53,46 C52.448,46 52,46.447 52,47 L52,48 C52,48.553 52.448,49 53,49 C53.552,49 54,48.553 54,48 L54,47" id="Fill-408" sketch:type="MSShapeGroup"></path>
                <path d="M54,35 C54,34.447 53.552,34 53,34 C52.448,34 52,34.447 52,35 L52,36 C52,36.553 52.448,37 53,37 C53.552,37 54,36.553 54,36 L54,35" id="Fill-409" sketch:type="MSShapeGroup"></path>
                <path d="M53,54 C52.448,54 52,54.448 52,55 L52,56 C52,56.552 52.448,57 53,57 C53.552,57 54,56.552 54,56 L54,55 C54,54.448 53.552,54 53,54" id="Fill-410" sketch:type="MSShapeGroup"></path>
                <path d="M54,51 C54,50.447 53.552,50 53,50 C52.448,50 52,50.447 52,51 L52,52 C52,52.553 52.448,53 53,53 C53.552,53 54,52.553 54,52 L54,51" id="Fill-411" sketch:type="MSShapeGroup"></path>
                <path d="M54,31 C54,30.448 53.552,30 53,30 C52.448,30 52,30.448 52,31 L52,32 C52,32.552 52.448,33 53,33 C53.552,33 54,32.552 54,32 L54,31" id="Fill-412" sketch:type="MSShapeGroup"></path>
                <path d="M38.043,58 L37.049,58 C36.497,58 36.049,58.447 36.049,59 C36.049,59.552 36.497,60 37.049,60 L38.043,60 C38.595,60 39.043,59.552 39.043,59 C39.043,58.447 38.595,58 38.043,58" id="Fill-413" sketch:type="MSShapeGroup"></path>
                <path d="M34.069,58 L33.277,58 L33.282,57.991 C33.406,57.801 33.513,57.602 33.606,57.395 L33.673,57.242 L33.734,57.107 L33.751,56.992 C33.901,56.551 34,56.086 34,55.595 L34,28.856 C34.296,28.682 34.5,28.367 34.5,28 C34.5,27.634 34.294,27.327 34,27.154 L34,4.406 C34,1.977 32.024,0 29.595,0 L4.405,0 C1.976,0 0,1.977 0,4.406 L0,55.595 C0,58.023 1.976,60 4.405,60 L30.095,60 C30.247,60 30.388,59.96 30.517,59.899 C31.102,59.774 31.641,59.531 32.115,59.198 C32.21,59.652 32.593,60 33.075,60 L34.069,60 C34.621,60 35.069,59.552 35.069,59 C35.069,58.447 34.621,58 34.069,58 L34.069,58 Z M20,3 L21,3 C21.552,3 22,3.447 22,4 C22,4.553 21.552,5 21,5 L20,5 C19.448,5 19,4.553 19,4 C19,3.447 19.448,3 20,3 L20,3 Z M13,3 L17,3 C17.552,3 18,3.447 18,4 C18,4.553 17.552,5 17,5 L13,5 C12.448,5 12,4.553 12,4 C12,3.447 12.448,3 13,3 L13,3 Z M17,57 C14.794,57 13,55.206 13,53 C13,50.794 14.794,49 17,49 C19.206,49 21,50.794 21,53 C21,55.206 19.206,57 17,57 L17,57 Z M32,27 L32,46 L2,46 L2,8 L32,8 L32,27 L32,27 Z" id="Fill-414" sketch:type="MSShapeGroup"></path>
                <path d="M42.018,58 L41.024,58 C40.472,58 40.024,58.447 40.024,59 C40.024,59.552 40.472,60 41.024,60 L42.018,60 C42.57,60 43.018,59.552 43.018,59 C43.018,58.447 42.57,58 42.018,58" id="Fill-415" sketch:type="MSShapeGroup"></path>
                <path d="M45.443,29 C45.995,29 46.443,28.553 46.443,28 C46.443,27.448 45.995,27 45.443,27 L44.449,27 C43.897,27 43.449,27.448 43.449,28 C43.449,28.553 43.897,29 44.449,29 L45.443,29" id="Fill-416" sketch:type="MSShapeGroup"></path>
                <path d="M45.992,58 L44.998,58 C44.446,58 43.998,58.447 43.998,59 C43.998,59.552 44.446,60 44.998,60 L45.992,60 C46.544,60 46.992,59.552 46.992,59 C46.992,58.447 46.544,58 45.992,58" id="Fill-417" sketch:type="MSShapeGroup"></path>
                <path d="M41.468,29 C42.021,29 42.468,28.553 42.468,28 C42.468,27.448 42.021,27 41.468,27 L40.475,27 C39.922,27 39.475,27.448 39.475,28 C39.475,28.553 39.922,29 40.475,29 L41.468,29" id="Fill-418" sketch:type="MSShapeGroup"></path>
                <path d="M49.417,29 C49.969,29 50.417,28.553 50.417,28 C50.417,27.448 49.969,27 49.417,27 L48.423,27 C47.871,27 47.423,27.448 47.423,28 C47.423,28.553 47.871,29 48.423,29 L49.417,29" id="Fill-419" sketch:type="MSShapeGroup"></path>
                <path d="M37.494,29 C38.046,29 38.494,28.553 38.494,28 C38.494,27.448 38.046,27 37.494,27 L36.501,27 C35.948,27 35.5,27.448 35.5,28 C35.5,28.553 35.948,29 36.501,29 L37.494,29" id="Fill-420" sketch:type="MSShapeGroup"></path>
                <path d="M59,45.703 C58.448,45.703 58,46.151 58,46.703 L58,47.697 C58,48.249 58.448,48.696 59,48.696 C59.552,48.696 60,48.249 60,47.697 L60,46.703 C60,46.151 59.552,45.703 59,45.703" id="Fill-421" sketch:type="MSShapeGroup"></path>
                <path d="M59,41.728 C58.448,41.728 58,42.176 58,42.729 L58,43.723 C58,44.276 58.448,44.723 59,44.723 C59.552,44.723 60,44.276 60,43.723 L60,42.729 C60,42.176 59.552,41.728 59,41.728" id="Fill-422" sketch:type="MSShapeGroup"></path>
                <path d="M59,49.678 C58.448,49.678 58,50.125 58,50.678 L58,51.671 C58,52.224 58.448,52.671 59,52.671 C59.552,52.671 60,52.224 60,51.671 L60,50.678 C60,50.125 59.552,49.678 59,49.678" id="Fill-423" sketch:type="MSShapeGroup"></path>
                <path d="M59,53.651 C58.448,53.651 58,54.099 58,54.651 L58,55.645 C58,56.197 58.448,56.62 59,56.62 C59.552,56.62 60,56.147 60,55.595 L60,54.651 C60,54.099 59.552,53.651 59,53.651" id="Fill-424" sketch:type="MSShapeGroup"></path>
                <path d="M59.933,30.636 C59.836,30.092 59.322,29.723 58.773,29.825 C58.23,29.921 57.867,30.439 57.963,30.984 C57.987,31.12 58,31.262 58,31.406 L58,31.8 C58,32.352 58.448,32.8 59,32.8 C59.552,32.8 60,32.352 60,31.8 L60,31.406 C60,31.148 59.977,30.888 59.933,30.636" id="Fill-425" sketch:type="MSShapeGroup"></path>
                <path d="M59,33.78 C58.448,33.78 58,34.227 58,34.781 L58,35.773 C58,36.326 58.448,36.774 59,36.774 C59.552,36.774 60,36.326 60,35.773 L60,34.781 C60,34.227 59.552,33.78 59,33.78" id="Fill-426" sketch:type="MSShapeGroup"></path>
                <path d="M59,37.754 C58.448,37.754 58,38.201 58,38.754 L58,39.748 C58,40.301 58.448,40.748 59,40.748 C59.552,40.748 60,40.301 60,39.748 L60,38.754 C60,38.201 59.552,37.754 59,37.754" id="Fill-427" sketch:type="MSShapeGroup"></path>
                <path d="M53.391,29 C53.943,29 54.391,28.553 54.391,28 C54.391,27.448 53.943,27 53.391,27 L52.398,27 C51.845,27 51.397,27.448 51.397,28 C51.397,28.553 51.845,29 52.398,29 L53.391,29" id="Fill-428" sketch:type="MSShapeGroup"></path>
                <path d="M57.108,57.464 C56.926,57.612 56.724,57.732 56.508,57.822 C55.997,58.031 55.753,58.615 55.963,59.126 C56.122,59.513 56.495,59.746 56.888,59.746 C57.015,59.746 57.144,59.722 57.268,59.671 C57.665,59.508 58.036,59.287 58.37,59.017 C58.798,58.668 58.863,58.038 58.515,57.61 C58.167,57.181 57.537,57.116 57.108,57.464" id="Fill-429" sketch:type="MSShapeGroup"></path>
                <path d="M49.966,58 L48.973,58 C48.42,58 47.973,58.447 47.973,59 C47.973,59.552 48.42,60 48.973,60 L49.966,60 C50.519,60 50.966,59.552 50.966,59 C50.966,58.447 50.519,58 49.966,58" id="Fill-430" sketch:type="MSShapeGroup"></path>
                <path d="M53.94,58 L52.947,58 C52.395,58 51.947,58.447 51.947,59 C51.947,59.552 52.395,60 52.947,60 L53.94,60 C54.493,60 54.94,59.552 54.94,59 C54.94,58.447 54.493,58 53.94,58" id="Fill-431" sketch:type="MSShapeGroup"></path>
                <path d="M56.788,29.317 C56.945,29.407 57.116,29.45 57.285,29.45 C57.631,29.45 57.968,29.27 58.153,28.948 C58.428,28.47 58.263,27.858 57.785,27.583 C57.411,27.368 57.008,27.211 56.589,27.114 C56.053,26.991 55.515,27.327 55.391,27.865 C55.267,28.403 55.603,28.94 56.142,29.064 C56.368,29.115 56.585,29.201 56.788,29.317" id="Fill-432" sketch:type="MSShapeGroup"></path>
                <path d="M52,21 C52.13,21 52.26,20.973 52.382,20.923 C52.505,20.872 52.615,20.799 52.708,20.707 L58.707,14.707 C59.098,14.316 59.098,13.684 58.707,13.293 C58.316,12.903 57.684,12.903 57.293,13.293 L53,17.586 L53,15 C53,7.832 47.168,2 40,2 C39.448,2 39,2.447 39,3 C39,3.553 39.448,4 40,4 C46.065,4 51,8.935 51,15 L51,17.586 L46.707,13.293 C46.316,12.903 45.684,12.903 45.293,13.293 C44.902,13.684 44.902,14.316 45.293,14.707 L51.292,20.707 C51.385,20.799 51.495,20.872 51.618,20.923 C51.74,20.973 51.87,21 52,21" id="Fill-433" sketch:type="MSShapeGroup"></path>
            </g>
        </g>
    </g>
</svg>