<?xml version="1.0" encoding="UTF-8" standalone="no"?>
<svg width="60px" height="59px" viewBox="0 0 60 59" version="1.1" xmlns="http://www.w3.org/2000/svg" xmlns:xlink="http://www.w3.org/1999/xlink" xmlns:sketch="http://www.bohemiancoding.com/sketch/ns">
    <!-- Generator: Sketch 3.2.2 (9983) - http://www.bohemiancoding.com/sketch -->
    <title>180 - Network (Solid)</title>
    <desc>Created with Sketch.</desc>
    <defs></defs>
    <g id="Page-1" stroke="none" stroke-width="1" fill="none" fill-rule="evenodd" sketch:type="MSPage">
        <g id="Icons" sketch:type="MSArtboardGroup" transform="translate(-120.000000, -2757.000000)" fill="#1A1718">
            <g id="180---Network-(Solid)" sketch:type="MSLayerGroup" transform="translate(120.000000, 2757.000000)">
                <path d="M0,23.608 L0,35.392 C0,36.365 0.314,37.26 0.835,38 L59.165,38 C59.686,37.26 60,36.365 60,35.392 L60,23.608 C60,22.635 59.686,21.74 59.165,21 L0.835,21 C0.314,21.74 0,22.635 0,23.608 L0,23.608 Z M52,30 C52.552,30 53,30.448 53,31 C53,31.552 52.552,32 52,32 C51.448,32 51,31.552 51,31 C51,30.448 51.448,30 52,30 L52,30 Z M50,27 C50.552,27 51,27.448 51,28 C51,28.552 50.552,29 50,29 C49.448,29 49,28.552 49,28 C49,27.448 49.448,27 50,27 L50,27 Z M48,30 C48.552,30 49,30.448 49,31 C49,31.552 48.552,32 48,32 C47.448,32 47,31.552 47,31 C47,30.448 47.448,30 48,30 L48,30 Z M46,27 C46.552,27 47,27.448 47,28 C47,28.552 46.552,29 46,29 C45.448,29 45,28.552 45,28 C45,27.448 45.448,27 46,27 L46,27 Z M44,30 C44.552,30 45,30.448 45,31 C45,31.552 44.552,32 44,32 C43.448,32 43,31.552 43,31 C43,30.448 43.448,30 44,30 L44,30 Z M42,27 C42.552,27 43,27.448 43,28 C43,28.552 42.552,29 42,29 C41.448,29 41,28.552 41,28 C41,27.448 41.448,27 42,27 L42,27 Z M40,30 C40.552,30 41,30.448 41,31 C41,31.552 40.552,32 40,32 C39.448,32 39,31.552 39,31 C39,30.448 39.448,30 40,30 L40,30 Z M38,27 C38.552,27 39,27.448 39,28 C39,28.552 38.552,29 38,29 C37.448,29 37,28.552 37,28 C37,27.448 37.448,27 38,27 L38,27 Z M36,30 C36.552,30 37,30.448 37,31 C37,31.552 36.552,32 36,32 C35.448,32 35,31.552 35,31 C35,30.448 35.448,30 36,30 L36,30 Z M34,27 C34.552,27 35,27.448 35,28 C35,28.552 34.552,29 34,29 C33.448,29 33,28.552 33,28 C33,27.448 33.448,27 34,27 L34,27 Z M10.5,25 C12.981,25 15,27.019 15,29.5 C15,31.981 12.981,34 10.5,34 C8.019,34 6,31.981 6,29.5 C6,27.019 8.019,25 10.5,25 L10.5,25 Z" id="Fill-977" sketch:type="MSShapeGroup"></path>
                <path d="M59.165,19 C59.686,18.26 60,17.365 60,16.392 L60,4.608 C60,2.067 57.933,0 55.392,0 L4.608,0 C2.067,0 0,2.067 0,4.608 L0,16.392 C0,17.365 0.314,18.26 0.835,19 L59.165,19 L59.165,19 Z M52,11 C52.552,11 53,11.448 53,12 C53,12.552 52.552,13 52,13 C51.448,13 51,12.552 51,12 C51,11.448 51.448,11 52,11 L52,11 Z M50,8 C50.552,8 51,8.448 51,9 C51,9.552 50.552,10 50,10 C49.448,10 49,9.552 49,9 C49,8.448 49.448,8 50,8 L50,8 Z M48,11 C48.552,11 49,11.448 49,12 C49,12.552 48.552,13 48,13 C47.448,13 47,12.552 47,12 C47,11.448 47.448,11 48,11 L48,11 Z M46,8 C46.552,8 47,8.448 47,9 C47,9.552 46.552,10 46,10 C45.448,10 45,9.552 45,9 C45,8.448 45.448,8 46,8 L46,8 Z M44,11 C44.552,11 45,11.448 45,12 C45,12.552 44.552,13 44,13 C43.448,13 43,12.552 43,12 C43,11.448 43.448,11 44,11 L44,11 Z M42,8 C42.552,8 43,8.448 43,9 C43,9.552 42.552,10 42,10 C41.448,10 41,9.552 41,9 C41,8.448 41.448,8 42,8 L42,8 Z M40,11 C40.552,11 41,11.448 41,12 C41,12.552 40.552,13 40,13 C39.448,13 39,12.552 39,12 C39,11.448 39.448,11 40,11 L40,11 Z M38,8 C38.552,8 39,8.448 39,9 C39,9.552 38.552,10 38,10 C37.448,10 37,9.552 37,9 C37,8.448 37.448,8 38,8 L38,8 Z M36,11 C36.552,11 37,11.448 37,12 C37,12.552 36.552,13 36,13 C35.448,13 35,12.552 35,12 C35,11.448 35.448,11 36,11 L36,11 Z M34,8 C34.552,8 35,8.448 35,9 C35,9.552 34.552,10 34,10 C33.448,10 33,9.552 33,9 C33,8.448 33.448,8 34,8 L34,8 Z M10.5,6 C12.981,6 15,8.019 15,10.5 C15,12.981 12.981,15 10.5,15 C8.019,15 6,12.981 6,10.5 C6,8.019 8.019,6 10.5,6 L10.5,6 Z" id="Fill-978" sketch:type="MSShapeGroup"></path>
                <path d="M0.835,40 C0.314,40.741 0,41.635 0,42.608 L0,54.391 C0,56.933 2.067,59 4.608,59 L55.392,59 C57.933,59 60,56.933 60,54.391 L60,42.608 C60,41.635 59.686,40.741 59.165,40 L0.835,40 L0.835,40 Z M10.5,53 C8.019,53 6,50.981 6,48.5 C6,46.019 8.019,44 10.5,44 C12.981,44 15,46.019 15,48.5 C15,50.981 12.981,53 10.5,53 L10.5,53 Z M34,48 C33.448,48 33,47.552 33,47 C33,46.448 33.448,46 34,46 C34.552,46 35,46.448 35,47 C35,47.552 34.552,48 34,48 L34,48 Z M36,51 C35.448,51 35,50.552 35,50 C35,49.448 35.448,49 36,49 C36.552,49 37,49.448 37,50 C37,50.552 36.552,51 36,51 L36,51 Z M38,48 C37.448,48 37,47.552 37,47 C37,46.448 37.448,46 38,46 C38.552,46 39,46.448 39,47 C39,47.552 38.552,48 38,48 L38,48 Z M40,51 C39.448,51 39,50.552 39,50 C39,49.448 39.448,49 40,49 C40.552,49 41,49.448 41,50 C41,50.552 40.552,51 40,51 L40,51 Z M42,48 C41.448,48 41,47.552 41,47 C41,46.448 41.448,46 42,46 C42.552,46 43,46.448 43,47 C43,47.552 42.552,48 42,48 L42,48 Z M44,51 C43.448,51 43,50.552 43,50 C43,49.448 43.448,49 44,49 C44.552,49 45,49.448 45,50 C45,50.552 44.552,51 44,51 L44,51 Z M46,48 C45.448,48 45,47.552 45,47 C45,46.448 45.448,46 46,46 C46.552,46 47,46.448 47,47 C47,47.552 46.552,48 46,48 L46,48 Z M48,51 C47.448,51 47,50.552 47,50 C47,49.448 47.448,49 48,49 C48.552,49 49,49.448 49,50 C49,50.552 48.552,51 48,51 L48,51 Z M50,48 C49.448,48 49,47.552 49,47 C49,46.448 49.448,46 50,46 C50.552,46 51,46.448 51,47 C51,47.552 50.552,48 50,48 L50,48 Z M52,51 C51.448,51 51,50.552 51,50 C51,49.448 51.448,49 52,49 C52.552,49 53,49.448 53,50 C53,50.552 52.552,51 52,51 L52,51 Z" id="Fill-979" sketch:type="MSShapeGroup"></path>
            </g>
        </g>
    </g>
</svg>