<?xml version="1.0" encoding="UTF-8" standalone="no"?>
<svg width="60px" height="40px" viewBox="0 0 60 40" version="1.1" xmlns="http://www.w3.org/2000/svg" xmlns:xlink="http://www.w3.org/1999/xlink" xmlns:sketch="http://www.bohemiancoding.com/sketch/ns">
    <!-- Generator: Sketch 3.2.2 (9983) - http://www.bohemiancoding.com/sketch -->
    <title>182 - Promote (Solid)</title>
    <desc>Created with Sketch.</desc>
    <defs></defs>
    <g id="Page-1" stroke="none" stroke-width="1" fill="none" fill-rule="evenodd" sketch:type="MSPage">
        <g id="Icons" sketch:type="MSArtboardGroup" transform="translate(-1080.000000, -2647.000000)" fill="#000000">
            <g id="182---Promote-(Solid)" sketch:type="MSLayerGroup" transform="translate(1080.000000, 2647.000000)">
                <path d="M42,0 C39.794,0 38,1.794 38,4 L38,5.267 L6.955,15.051 C6.731,13.335 5.276,12 3.5,12 C1.57,12 0,13.57 0,15.5 L0,24.5 C0,26.43 1.57,28 3.5,28 C5.276,28 6.731,26.665 6.955,24.949 L9.089,25.622 C8.772,25.971 8.518,26.383 8.365,26.854 C7.787,28.637 8.768,30.559 10.552,31.137 L21.968,34.835 C22.306,34.944 22.656,35 23.01,35 C24.491,35 25.794,34.055 26.25,32.647 C26.418,32.128 26.442,31.589 26.356,31.063 L38,34.733 L38,36 C38,38.206 39.794,40 42,40 C44.206,40 46,38.206 46,36 L46,4 C46,1.794 44.206,0 42,0 L42,0 Z M24.348,32.031 C24.118,32.738 23.295,33.162 22.584,32.933 L11.169,29.234 C10.434,28.996 10.029,28.205 10.268,27.471 C10.452,26.9 11.002,26.503 11.605,26.503 C11.748,26.503 11.892,26.525 12.03,26.57 L23.447,30.269 C23.8,30.383 24.089,30.63 24.26,30.965 C24.431,31.3 24.462,31.679 24.348,32.031 L24.348,32.031 Z M5,24.5 C5,25.327 4.327,26 3.5,26 C2.673,26 2,25.327 2,24.5 L2,15.5 C2,14.673 2.673,14 3.5,14 C4.327,14 5,14.673 5,15.5 L5,24.5 L5,24.5 Z M44,36 C44,37.103 43.103,38 42,38 C40.897,38 40,37.103 40,36 L40,4 C40,2.897 40.897,2 42,2 C43.103,2 44,2.897 44,4 L44,36 L44,36 Z" id="Fill-160" sketch:type="MSShapeGroup"></path>
                <path d="M50,21 L51,21 C51.553,21 52,20.553 52,20 C52,19.447 51.553,19 51,19 L50,19 C49.447,19 49,19.447 49,20 C49,20.553 49.447,21 50,21" id="Fill-161" sketch:type="MSShapeGroup"></path>
                <path d="M55,19 L54,19 C53.447,19 53,19.447 53,20 C53,20.553 53.447,21 54,21 L55,21 C55.553,21 56,20.553 56,20 C56,19.447 55.553,19 55,19" id="Fill-162" sketch:type="MSShapeGroup"></path>
                <path d="M59,19 L58,19 C57.447,19 57,19.447 57,20 C57,20.553 57.447,21 58,21 L59,21 C59.553,21 60,20.553 60,20 C60,19.447 59.553,19 59,19" id="Fill-163" sketch:type="MSShapeGroup"></path>
                <path d="M55.657,3.707 C55.913,3.707 56.169,3.609 56.364,3.414 L57.071,2.707 C57.462,2.316 57.462,1.684 57.071,1.293 C56.681,0.902 56.048,0.902 55.657,1.293 L54.95,2 C54.56,2.391 54.56,3.023 54.95,3.414 C55.146,3.609 55.401,3.707 55.657,3.707" id="Fill-164" sketch:type="MSShapeGroup"></path>
                <path d="M52.828,6.536 C53.084,6.536 53.34,6.438 53.535,6.243 L54.242,5.536 C54.633,5.146 54.633,4.513 54.242,4.122 C53.852,3.731 53.219,3.731 52.828,4.122 L52.121,4.829 C51.73,5.22 51.73,5.853 52.121,6.243 C52.316,6.438 52.572,6.536 52.828,6.536" id="Fill-165" sketch:type="MSShapeGroup"></path>
                <path d="M50,9.364 C50.256,9.364 50.512,9.267 50.707,9.071 L51.414,8.364 C51.805,7.974 51.805,7.341 51.414,6.95 C51.023,6.56 50.391,6.56 50,6.95 L49.293,7.657 C48.902,8.048 48.902,8.681 49.293,9.071 C49.488,9.267 49.744,9.364 50,9.364" id="Fill-166" sketch:type="MSShapeGroup"></path>
                <path d="M53.795,14.1 C53.899,14.1 54.007,14.083 54.111,14.048 L55.06,13.731 C55.584,13.557 55.866,12.99 55.691,12.467 C55.517,11.943 54.951,11.659 54.427,11.835 L53.479,12.151 C52.954,12.326 52.672,12.893 52.847,13.416 C52.986,13.835 53.376,14.1 53.795,14.1" id="Fill-167" sketch:type="MSShapeGroup"></path>
                <path d="M50.632,13.1 L49.684,13.416 C49.159,13.591 48.877,14.157 49.052,14.681 C49.191,15.1 49.581,15.364 50,15.364 C50.104,15.364 50.212,15.348 50.316,15.312 L51.265,14.996 C51.789,14.821 52.071,14.255 51.897,13.731 C51.722,13.208 51.155,12.924 50.632,13.1" id="Fill-168" sketch:type="MSShapeGroup"></path>
                <path d="M56.641,12.149 C56.78,12.569 57.171,12.834 57.59,12.834 C57.694,12.834 57.801,12.817 57.905,12.783 L58.854,12.468 C59.378,12.293 59.661,11.727 59.487,11.203 C59.313,10.679 58.745,10.397 58.223,10.569 L57.274,10.885 C56.75,11.06 56.467,11.626 56.641,12.149" id="Fill-169" sketch:type="MSShapeGroup"></path>
                <path d="M50.707,30.929 C50.316,30.538 49.684,30.538 49.293,30.929 C48.902,31.319 48.902,31.952 49.293,32.343 L50,33.05 C50.195,33.245 50.451,33.343 50.707,33.343 C50.963,33.343 51.219,33.245 51.414,33.05 C51.805,32.659 51.805,32.026 51.414,31.636 L50.707,30.929" id="Fill-170" sketch:type="MSShapeGroup"></path>
                <path d="M53.535,33.757 C53.145,33.366 52.512,33.366 52.121,33.757 C51.73,34.147 51.73,34.78 52.121,35.171 L52.828,35.878 C53.023,36.073 53.279,36.171 53.535,36.171 C53.791,36.171 54.047,36.073 54.242,35.878 C54.633,35.487 54.633,34.854 54.242,34.464 L53.535,33.757" id="Fill-171" sketch:type="MSShapeGroup"></path>
                <path d="M56.364,36.586 C55.974,36.195 55.341,36.195 54.95,36.586 C54.56,36.977 54.56,37.609 54.95,38 L55.657,38.707 C55.853,38.902 56.108,39 56.364,39 C56.62,39 56.876,38.902 57.071,38.707 C57.462,38.316 57.462,37.684 57.071,37.293 L56.364,36.586" id="Fill-172" sketch:type="MSShapeGroup"></path>
                <path d="M51.265,25.004 L50.316,24.687 C49.793,24.511 49.227,24.796 49.052,25.319 C48.877,25.843 49.159,26.409 49.684,26.584 L50.632,26.9 C50.736,26.936 50.844,26.952 50.948,26.952 C51.367,26.952 51.757,26.688 51.897,26.269 C52.071,25.745 51.789,25.179 51.265,25.004" id="Fill-173" sketch:type="MSShapeGroup"></path>
                <path d="M53.479,27.849 L54.427,28.165 C54.531,28.2 54.639,28.217 54.743,28.217 C55.162,28.217 55.552,27.952 55.691,27.533 C55.866,27.01 55.584,26.443 55.06,26.269 L54.111,25.952 C53.589,25.775 53.022,26.061 52.847,26.584 C52.672,27.107 52.954,27.674 53.479,27.849" id="Fill-174" sketch:type="MSShapeGroup"></path>
                <path d="M58.854,27.532 L57.905,27.217 C57.383,27.044 56.814,27.326 56.641,27.851 C56.467,28.374 56.75,28.94 57.274,29.115 L58.223,29.431 C58.327,29.465 58.434,29.481 58.538,29.481 C58.957,29.481 59.348,29.217 59.487,28.797 C59.661,28.273 59.378,27.707 58.854,27.532" id="Fill-175" sketch:type="MSShapeGroup"></path>
            </g>
        </g>
    </g>
</svg>