<?xml version="1.0" encoding="UTF-8" standalone="no"?>
<svg width="58px" height="59px" viewBox="0 0 58 59" version="1.1" xmlns="http://www.w3.org/2000/svg" xmlns:xlink="http://www.w3.org/1999/xlink" xmlns:sketch="http://www.bohemiancoding.com/sketch/ns">
    <!-- Generator: Sketch 3.2.2 (9983) - http://www.bohemiancoding.com/sketch -->
    <title>184 - Wi-Fi Signal (Solid)</title>
    <desc>Created with Sketch.</desc>
    <defs></defs>
    <g id="Page-1" stroke="none" stroke-width="1" fill="none" fill-rule="evenodd" sketch:type="MSPage">
        <g id="Icons" sketch:type="MSArtboardGroup" transform="translate(-841.000000, -2638.000000)" fill="#000000">
            <g id="184---Wi-Fi-Signal-(Solid)" sketch:type="MSLayerGroup" transform="translate(841.000000, 2637.000000)">
                <path d="M9.921,2.707 C10.312,2.316 10.312,1.684 9.921,1.293 C9.53,0.902 8.898,0.902 8.507,1.293 C-2.8,12.6 -2.8,30.998 8.507,42.305 C8.702,42.5 8.958,42.598 9.214,42.598 C9.47,42.598 9.726,42.5 9.921,42.305 C10.312,41.914 10.312,41.281 9.921,40.891 C-0.606,30.363 -0.606,13.234 9.921,2.707" id="Fill-153" sketch:type="MSShapeGroup"></path>
                <path d="M49.519,1.293 C49.128,0.902 48.495,0.902 48.104,1.293 C47.714,1.684 47.714,2.316 48.104,2.707 C53.196,7.798 56,14.578 56,21.799 C56,29.02 53.196,35.8 48.104,40.891 C47.714,41.281 47.714,41.914 48.104,42.305 C48.3,42.5 48.556,42.598 48.812,42.598 C49.067,42.598 49.323,42.5 49.519,42.305 C54.988,36.836 58,29.554 58,21.799 C58,14.044 54.988,6.762 49.519,1.293" id="Fill-154" sketch:type="MSShapeGroup"></path>
                <path d="M14.164,6.949 C14.555,6.559 14.555,5.926 14.164,5.535 C13.773,5.145 13.141,5.145 12.75,5.535 C3.782,14.503 3.782,29.095 12.75,38.062 C12.945,38.258 13.201,38.355 13.457,38.355 C13.713,38.355 13.969,38.258 14.164,38.062 C14.555,37.672 14.555,37.039 14.164,36.648 C5.977,28.46 5.977,15.138 14.164,6.949" id="Fill-155" sketch:type="MSShapeGroup"></path>
                <path d="M45.276,5.535 C44.886,5.145 44.253,5.145 43.862,5.535 C43.472,5.926 43.472,6.559 43.862,6.949 C52.05,15.138 52.05,28.46 43.862,36.648 C43.472,37.039 43.472,37.672 43.862,38.062 C44.058,38.258 44.313,38.355 44.569,38.355 C44.825,38.355 45.081,38.258 45.276,38.062 C54.244,29.095 54.244,14.503 45.276,5.535" id="Fill-156" sketch:type="MSShapeGroup"></path>
                <path d="M18.406,9.778 C18.016,9.388 17.383,9.388 16.992,9.778 C13.786,12.984 12.021,17.253 12.021,21.799 C12.021,26.345 13.786,30.613 16.992,33.819 C17.187,34.015 17.443,34.112 17.699,34.112 C17.955,34.112 18.211,34.015 18.406,33.819 C18.797,33.429 18.797,32.796 18.406,32.405 C12.558,26.557 12.558,17.041 18.406,11.192 C18.797,10.802 18.797,10.169 18.406,9.778" id="Fill-157" sketch:type="MSShapeGroup"></path>
                <path d="M41.034,9.778 C40.644,9.388 40.011,9.388 39.62,9.778 C39.229,10.169 39.229,10.802 39.62,11.192 C45.469,17.041 45.469,26.557 39.62,32.405 C39.229,32.796 39.229,33.429 39.62,33.819 C39.815,34.015 40.071,34.112 40.327,34.112 C40.583,34.112 40.839,34.015 41.034,33.819 C44.24,30.613 46.006,26.345 46.006,21.799 C46.006,17.253 44.24,12.984 41.034,9.778" id="Fill-158" sketch:type="MSShapeGroup"></path>
                <path d="M29.013,15 C25.153,15 22.013,18.141 22.013,22 C22.013,25.519 24.627,28.432 28.013,28.92 L28.013,59 C28.013,59.553 28.46,60 29.013,60 C29.565,60 30.013,59.553 30.013,59 L30.013,28.92 C33.399,28.432 36.013,25.519 36.013,22 C36.013,18.141 32.872,15 29.013,15" id="Fill-159" sketch:type="MSShapeGroup"></path>
            </g>
        </g>
    </g>
</svg>