<?xml version="1.0" encoding="UTF-8" standalone="no"?>
<svg width="60px" height="60px" viewBox="0 0 60 60" version="1.1" xmlns="http://www.w3.org/2000/svg" xmlns:xlink="http://www.w3.org/1999/xlink" xmlns:sketch="http://www.bohemiancoding.com/sketch/ns">
    <!-- Generator: Sketch 3.2.2 (9983) - http://www.bohemiancoding.com/sketch -->
    <title>185 - Photos (Solid)</title>
    <desc>Created with Sketch.</desc>
    <defs></defs>
    <g id="Page-1" stroke="none" stroke-width="1" fill="none" fill-rule="evenodd" sketch:type="MSPage">
        <g id="Icons" sketch:type="MSArtboardGroup" transform="translate(-720.000000, -2637.000000)" fill="#000000">
            <g id="185---Photos-(Solid)" sketch:type="MSLayerGroup" transform="translate(720.000000, 2637.000000)">
                <path d="M60.013,30 C60.013,25.536 57.071,21.748 53.026,20.466 C53.754,19.062 54.144,17.492 54.144,15.857 C54.144,13.18 53.108,10.669 51.227,8.787 C49.345,6.905 46.833,5.869 44.155,5.869 C42.521,5.869 40.951,6.259 39.547,6.987 C38.265,2.942 34.477,0 30.013,0 C25.549,0 21.76,2.942 20.479,6.987 C19.074,6.259 17.504,5.869 15.87,5.869 C13.192,5.869 10.682,6.905 8.8,8.787 C5.643,11.943 5.044,16.7 6.998,20.467 C2.953,21.749 0.013,25.537 0.013,30 C0.013,34.463 2.953,38.251 6.998,39.533 C5.044,43.299 5.643,48.057 8.8,51.213 C10.682,53.095 13.192,54.131 15.87,54.131 C17.504,54.131 19.074,53.741 20.479,53.012 C21.76,57.058 25.549,60 30.013,60 C34.477,60 38.265,57.058 39.547,53.012 C40.951,53.741 42.521,54.131 44.155,54.131 C46.833,54.131 49.345,53.095 51.227,51.213 C53.108,49.331 54.144,46.82 54.144,44.143 C54.144,42.508 53.754,40.938 53.026,39.534 C57.071,38.252 60.013,34.464 60.013,30 L60.013,30 Z M30.013,2 C33.786,2 36.949,4.629 37.788,8.149 C37.545,8.35 37.309,8.562 37.084,8.787 L30.013,15.858 L22.941,8.787 C22.716,8.562 22.48,8.35 22.238,8.149 C23.076,4.629 26.24,2 30.013,2 L30.013,2 Z M2.013,30 C2.013,26.226 4.642,23.063 8.163,22.225 C8.363,22.466 8.573,22.702 8.8,22.929 L15.871,30 L8.8,37.071 C8.573,37.298 8.363,37.534 8.163,37.775 C4.642,36.938 2.013,33.774 2.013,30 L2.013,30 Z M30.013,58 C26.24,58 23.076,55.371 22.238,51.851 C22.48,51.65 22.716,51.438 22.941,51.213 L30.013,44.142 L37.084,51.213 C37.309,51.438 37.545,51.65 37.788,51.851 C36.949,55.371 33.786,58 30.013,58 L30.013,58 Z M51.864,37.775 C51.664,37.532 51.452,37.297 51.227,37.071 L44.155,30 L51.227,22.929 C51.452,22.703 51.664,22.468 51.864,22.225 C55.384,23.064 58.013,26.227 58.013,30 C58.013,33.773 55.384,36.936 51.864,37.775 L51.864,37.775 Z" id="Fill-9" sketch:type="MSShapeGroup"></path>
            </g>
        </g>
    </g>
</svg>