<?xml version="1.0" encoding="UTF-8" standalone="no"?>
<svg width="55px" height="40px" viewBox="0 0 55 40" version="1.1" xmlns="http://www.w3.org/2000/svg" xmlns:xlink="http://www.w3.org/1999/xlink" xmlns:sketch="http://www.bohemiancoding.com/sketch/ns">
    <!-- Generator: Sketch 3.2.2 (9983) - http://www.bohemiancoding.com/sketch -->
    <title>186 - Wi-Fi (Solid)</title>
    <desc>Created with Sketch.</desc>
    <defs></defs>
    <g id="Page-1" stroke="none" stroke-width="1" fill="none" fill-rule="evenodd" sketch:type="MSPage">
        <g id="Icons" sketch:type="MSArtboardGroup" transform="translate(-603.000000, -2648.000000)" fill="#000000">
            <g id="186---Wi-Fi-(Solid)" sketch:type="MSLayerGroup" transform="translate(603.000000, 2648.000000)">
                <path d="M54.72,12.104 C47.477,4.859 37.83,0.87 27.559,0.87 C17.287,0.87 7.641,4.859 0.398,12.104 C0.007,12.494 0.007,13.127 0.398,13.518 C0.788,13.908 1.421,13.908 1.812,13.518 C8.677,6.651 17.821,2.87 27.559,2.87 C37.296,2.87 46.44,6.651 53.306,13.518 C53.501,13.713 53.757,13.811 54.013,13.811 C54.269,13.811 54.524,13.713 54.72,13.518 C55.11,13.127 55.11,12.494 54.72,12.104" id="Fill-149" sketch:type="MSShapeGroup"></path>
                <path d="M6.276,17.981 C5.885,18.372 5.885,19.005 6.276,19.396 C6.471,19.591 6.727,19.688 6.983,19.688 C7.239,19.688 7.495,19.591 7.69,19.396 C18.645,8.439 36.471,8.439 47.427,19.396 C47.817,19.786 48.45,19.786 48.841,19.396 C49.231,19.005 49.231,18.372 48.841,17.981 C37.106,6.247 18.012,6.245 6.276,17.981" id="Fill-150" sketch:type="MSShapeGroup"></path>
                <path d="M27.559,17.489 C21.734,17.489 16.263,19.752 12.155,23.86 C11.764,24.251 11.764,24.884 12.155,25.274 C12.545,25.665 13.178,25.665 13.569,25.274 C17.3,21.544 22.268,19.489 27.559,19.489 C32.85,19.489 37.818,21.544 41.548,25.274 C41.744,25.47 42,25.567 42.255,25.567 C42.511,25.567 42.767,25.47 42.962,25.274 C43.353,24.884 43.353,24.251 42.962,23.86 C38.854,19.752 33.384,17.489 27.559,17.489" id="Fill-151" sketch:type="MSShapeGroup"></path>
                <path d="M27.559,26.896 C23.946,26.896 21.007,29.836 21.007,33.448 C21.007,37.061 23.946,40 27.559,40 C31.171,40 34.11,37.061 34.11,33.448 C34.11,29.836 31.171,26.896 27.559,26.896" id="Fill-152" sketch:type="MSShapeGroup"></path>
            </g>
        </g>
    </g>
</svg>