<?xml version="1.0" encoding="UTF-8" standalone="no"?>
<svg width="60px" height="56px" viewBox="0 0 60 56" version="1.1" xmlns="http://www.w3.org/2000/svg" xmlns:xlink="http://www.w3.org/1999/xlink" xmlns:sketch="http://www.bohemiancoding.com/sketch/ns">
    <!-- Generator: Sketch 3.2.2 (9983) - http://www.bohemiancoding.com/sketch -->
    <title>187 - Airdrop (Solid)</title>
    <desc>Created with Sketch.</desc>
    <defs></defs>
    <g id="Page-1" stroke="none" stroke-width="1" fill="none" fill-rule="evenodd" sketch:type="MSPage">
        <g id="Icons" sketch:type="MSArtboardGroup" transform="translate(-480.000000, -2637.000000)" fill="#000000">
            <g id="187---Airdrop-(Solid)" sketch:type="MSLayerGroup" transform="translate(480.000000, 2637.000000)">
                <path d="M33.875,29.931 C33.875,27.801 32.143,26.069 30.013,26.069 C27.884,26.069 26.151,27.801 26.151,29.931 C26.151,32.061 27.884,33.793 30.013,33.793 C32.143,33.793 33.875,32.061 33.875,29.931" id="Fill-144" sketch:type="MSShapeGroup"></path>
                <path d="M39.668,29.931 C39.668,24.607 35.337,20.276 30.013,20.276 C24.689,20.276 20.358,24.607 20.358,29.931 C20.358,33.321 22.181,36.504 25.115,38.24 C26.035,38.782 27.218,38.48 27.76,37.562 C28.303,36.643 28,35.459 27.082,34.916 C25.317,33.872 24.22,31.962 24.22,29.931 C24.22,26.736 26.819,24.138 30.013,24.138 C33.208,24.138 35.806,26.736 35.806,29.931 C35.806,31.962 34.71,33.872 32.945,34.917 C32.027,35.46 31.723,36.644 32.266,37.562 C32.627,38.171 33.27,38.509 33.93,38.509 C34.264,38.509 34.603,38.422 34.911,38.24 C37.846,36.504 39.668,33.32 39.668,29.931" id="Fill-145" sketch:type="MSShapeGroup"></path>
                <path d="M30.013,0 C13.51,0 0.082,13.427 0.082,29.931 C0.082,40.47 5.73,50.352 14.822,55.719 C15.739,56.262 16.925,55.955 17.467,55.037 C18.009,54.118 17.704,52.934 16.786,52.392 C8.865,47.717 3.944,39.11 3.944,29.931 C3.944,15.557 15.639,3.862 30.013,3.862 C44.387,3.862 56.082,15.557 56.082,29.931 C56.082,39.11 51.161,47.717 43.24,52.392 C42.322,52.934 42.017,54.118 42.559,55.037 C42.919,55.647 43.563,55.986 44.224,55.986 C44.557,55.986 44.896,55.901 45.204,55.719 C54.296,50.352 59.944,40.47 59.944,29.931 C59.944,13.427 46.517,0 30.013,0" id="Fill-146" sketch:type="MSShapeGroup"></path>
                <path d="M53.185,29.931 C53.185,17.154 42.791,6.759 30.013,6.759 C17.236,6.759 6.841,17.154 6.841,29.931 C6.841,38.078 11.215,45.725 18.255,49.888 C18.564,50.07 18.902,50.156 19.236,50.156 C19.897,50.156 20.54,49.818 20.9,49.208 C21.443,48.291 21.139,47.106 20.221,46.563 C14.35,43.093 10.703,36.719 10.703,29.931 C10.703,19.283 19.366,10.621 30.013,10.621 C40.661,10.621 49.323,19.283 49.323,29.931 C49.323,36.719 45.676,43.093 39.806,46.563 C38.888,47.106 38.583,48.291 39.126,49.208 C39.67,50.127 40.853,50.43 41.771,49.888 C48.812,45.725 53.185,38.078 53.185,29.931" id="Fill-147" sketch:type="MSShapeGroup"></path>
                <path d="M46.427,29.931 C46.427,20.88 39.064,13.517 30.013,13.517 C20.963,13.517 13.6,20.88 13.6,29.931 C13.6,35.692 16.699,41.105 21.689,44.056 C22.607,44.598 23.792,44.295 24.335,43.377 C24.877,42.459 24.573,41.275 23.655,40.731 C19.835,38.473 17.461,34.333 17.461,29.931 C17.461,23.01 23.092,17.379 30.013,17.379 C36.934,17.379 42.565,23.01 42.565,29.931 C42.565,34.333 40.191,38.473 36.371,40.731 C35.453,41.275 35.149,42.459 35.691,43.377 C36.052,43.986 36.695,44.325 37.355,44.325 C37.69,44.325 38.028,44.238 38.337,44.056 C43.327,41.104 46.427,35.692 46.427,29.931" id="Fill-148" sketch:type="MSShapeGroup"></path>
            </g>
        </g>
    </g>
</svg>