<?xml version="1.0" encoding="UTF-8" standalone="no"?>
<svg width="60px" height="35px" viewBox="0 0 60 35" version="1.1" xmlns="http://www.w3.org/2000/svg" xmlns:xlink="http://www.w3.org/1999/xlink" xmlns:sketch="http://www.bohemiancoding.com/sketch/ns">
    <!-- Generator: Sketch 3.2.2 (9983) - http://www.bohemiancoding.com/sketch -->
    <title>188 - Infinity (Solid)</title>
    <desc>Created with Sketch.</desc>
    <defs></defs>
    <g id="Page-1" stroke="none" stroke-width="1" fill="none" fill-rule="evenodd" sketch:type="MSPage">
        <g id="Icons" sketch:type="MSArtboardGroup" transform="translate(-360.000000, -2651.000000)" fill="#000000">
            <g id="188---Infinity-(Solid)" sketch:type="MSLayerGroup" transform="translate(360.000000, 2651.000000)">
                <path d="M43.594,0 C34.547,0 27.187,7.851 27.187,17.5 C27.187,23.841 22.351,29 16.406,29 C10.461,29 5.625,23.841 5.625,17.5 C5.625,11.159 10.461,6 16.406,6 C18.553,6 20.625,6.67 22.398,7.937 C22.991,8.362 23.545,8.849 24.043,9.383 C25.104,10.519 26.957,10.522 28.02,9.392 C29.119,8.225 29.123,6.321 28.029,5.148 C27.268,4.335 26.428,3.597 25.53,2.954 C22.826,1.021 19.672,0 16.406,0 C7.36,0 0,7.851 0,17.5 C0,27.149 7.36,35 16.406,35 C25.453,35 32.812,27.149 32.812,17.5 C32.812,11.159 37.649,6 43.594,6 C49.539,6 54.375,11.159 54.375,17.5 C54.375,23.841 49.539,29 43.594,29 C40.715,29 38.008,27.805 35.972,25.634 C34.91,24.501 33.057,24.501 31.994,25.634 C31.463,26.201 31.171,26.954 31.171,27.755 C31.171,28.557 31.464,29.311 31.995,29.876 C35.093,33.181 39.213,35 43.594,35 C52.64,35 60,27.149 60,17.5 C60,7.851 52.64,0 43.594,0" id="Fill-135" sketch:type="MSShapeGroup"></path>
            </g>
        </g>
    </g>
</svg>