<?xml version="1.0" encoding="UTF-8" standalone="no"?>
<svg width="34px" height="60px" viewBox="0 0 34 60" version="1.1" xmlns="http://www.w3.org/2000/svg" xmlns:xlink="http://www.w3.org/1999/xlink" xmlns:sketch="http://www.bohemiancoding.com/sketch/ns">
    <!-- Generator: Sketch 3.2.2 (9983) - http://www.bohemiancoding.com/sketch -->
    <title>19 - Phone Apps (Solid)</title>
    <desc>Created with Sketch.</desc>
    <defs></defs>
    <g id="Page-1" stroke="none" stroke-width="1" fill="none" fill-rule="evenodd" sketch:type="MSPage">
        <g id="Icons" sketch:type="MSArtboardGroup" transform="translate(-254.000000, -4677.000000)" fill="#000000">
            <g id="19---Phone-Apps-(Solid)" sketch:type="MSLayerGroup" transform="translate(254.000000, 4677.000000)">
                <path d="M18.962,11.02 L15.038,11.02 C13.914,11.02 13,11.934 13,13.058 L13,16.982 C13,18.106 13.914,19.02 15.038,19.02 L18.962,19.02 C20.086,19.02 21,18.106 21,16.982 L21,13.058 C21,11.934 20.086,11.02 18.962,11.02" id="Fill-394" sketch:type="MSShapeGroup"></path>
                <path d="M9.962,11.02 L6.038,11.02 C4.914,11.02 4,11.934 4,13.058 L4,16.982 C4,18.106 4.914,19.02 6.038,19.02 L9.962,19.02 C11.086,19.02 12,18.106 12,16.982 L12,13.058 C12,11.934 11.086,11.02 9.962,11.02" id="Fill-395" sketch:type="MSShapeGroup"></path>
                <path d="M27.962,11.02 L24.038,11.02 C22.914,11.02 22,11.934 22,13.058 L22,16.982 C22,18.106 22.914,19.02 24.038,19.02 L27.962,19.02 C29.086,19.02 30,18.106 30,16.982 L30,13.058 C30,11.934 29.086,11.02 27.962,11.02" id="Fill-396" sketch:type="MSShapeGroup"></path>
                <path d="M18.962,20 L15.038,20 C13.914,20 13,20.914 13,22.038 L13,25.962 C13,27.086 13.914,28 15.038,28 L18.962,28 C20.086,28 21,27.086 21,25.962 L21,22.038 C21,20.914 20.086,20 18.962,20" id="Fill-397" sketch:type="MSShapeGroup"></path>
                <path d="M9.962,20 L6.038,20 C4.914,20 4,20.914 4,22.038 L4,25.962 C4,27.086 4.914,28 6.038,28 L9.962,28 C11.086,28 12,27.086 12,25.962 L12,22.038 C12,20.914 11.086,20 9.962,20" id="Fill-398" sketch:type="MSShapeGroup"></path>
                <path d="M27.962,20 L24.038,20 C22.914,20 22,20.914 22,22.038 L22,25.962 C22,27.086 22.914,28 24.038,28 L27.962,28 C29.086,28 30,27.086 30,25.962 L30,22.038 C30,20.914 29.086,20 27.962,20" id="Fill-399" sketch:type="MSShapeGroup"></path>
                <path d="M18.962,29 L15.038,29 C13.914,29 13,29.914 13,31.038 L13,34.962 C13,36.086 13.914,37 15.038,37 L18.962,37 C20.086,37 21,36.086 21,34.962 L21,31.038 C21,29.914 20.086,29 18.962,29" id="Fill-400" sketch:type="MSShapeGroup"></path>
                <path d="M9.962,29 L6.038,29 C4.914,29 4,29.914 4,31.038 L4,34.962 C4,36.086 4.914,37 6.038,37 L9.962,37 C11.086,37 12,36.086 12,34.962 L12,31.038 C12,29.914 11.086,29 9.962,29" id="Fill-401" sketch:type="MSShapeGroup"></path>
                <path d="M27.962,29 L24.038,29 C22.914,29 22,29.914 22,31.038 L22,34.962 C22,36.086 22.914,37 24.038,37 L27.962,37 C29.086,37 30,36.086 30,34.962 L30,31.038 C30,29.914 29.086,29 27.962,29" id="Fill-402" sketch:type="MSShapeGroup"></path>
                <path d="M17,51 C15.897,51 15,51.897 15,53 C15,54.102 15.897,55 17,55 C18.103,55 19,54.102 19,53 C19,51.897 18.103,51 17,51" id="Fill-403" sketch:type="MSShapeGroup"></path>
                <path d="M29.595,0 L4.405,0 C1.976,0 0,1.977 0,4.406 L0,55.595 C0,58.023 1.976,60 4.405,60 L29.595,60 C32.024,60 34,58.023 34,55.595 L34,4.406 C34,1.977 32.024,0 29.595,0 L29.595,0 Z M20,3 L21,3 C21.552,3 22,3.447 22,4 C22,4.553 21.552,5 21,5 L20,5 C19.448,5 19,4.553 19,4 C19,3.447 19.448,3 20,3 L20,3 Z M13,3 L17,3 C17.552,3 18,3.447 18,4 C18,4.553 17.552,5 17,5 L13,5 C12.448,5 12,4.553 12,4 C12,3.447 12.448,3 13,3 L13,3 Z M17,57 C14.794,57 13,55.206 13,53 C13,50.794 14.794,49 17,49 C19.206,49 21,50.794 21,53 C21,55.206 19.206,57 17,57 L17,57 Z M2,8 L32,8 L32,46 L2,46 L2,8 Z" id="Fill-404" sketch:type="MSShapeGroup"></path>
            </g>
        </g>
    </g>
</svg>