<?xml version="1.0" encoding="UTF-8" standalone="no"?>
<svg width="55px" height="58px" viewBox="0 0 55 58" version="1.1" xmlns="http://www.w3.org/2000/svg" xmlns:xlink="http://www.w3.org/1999/xlink" xmlns:sketch="http://www.bohemiancoding.com/sketch/ns">
    <!-- Generator: Sketch 3.2.2 (9983) - http://www.bohemiancoding.com/sketch -->
    <title>190 - Thumbs Up (Solid)</title>
    <desc>Created with Sketch.</desc>
    <defs></defs>
    <g id="Page-1" stroke="none" stroke-width="1" fill="none" fill-rule="evenodd" sketch:type="MSPage">
        <g id="Icons" sketch:type="MSArtboardGroup" transform="translate(-122.000000, -2638.000000)" fill="#000000">
            <g id="190---Thumbs-Up-(Solid)" sketch:type="MSLayerGroup" transform="translate(122.000000, 2638.000000)">
                <path d="M8,43 C5.243,43 3,45.243 3,48 C3,50.757 5.243,53 8,53 C10.757,53 13,50.757 13,48 C13,45.243 10.757,43 8,43" id="Fill-131" sketch:type="MSShapeGroup"></path>
                <path d="M55,35 C55,32.505 53.625,31.338 52.285,30.767 C53.335,29.85 54,28.501 54,27 C54,24.243 51.757,22 49,22 L34.634,22 L35.363,18.59 C36.336,14.041 35.698,8.874 35.479,7.398 C34.961,3.906 31.872,0 28.513,0 L28.274,0 C26.678,0 24,0.909 24,7 C24,21.821 17.314,22 17,22 L16,22 L16,20 L0,20 L0,58 L16,58 L16,56 L44,56 C46.757,56 49,53.757 49,51 C49,49.836 48.6,48.764 47.931,47.913 C50.245,47.476 52,45.439 52,43 C52,41.836 51.6,40.764 50.931,39.913 C53.245,39.476 55,37.439 55,35 L55,35 Z M2,22 L14,22 L14,56 L2,56 L2,22 Z" id="Fill-132" sketch:type="MSShapeGroup"></path>
            </g>
        </g>
    </g>
</svg>