<?xml version="1.0" encoding="UTF-8" standalone="no"?>
<svg width="58px" height="48px" viewBox="0 0 58 48" version="1.1" xmlns="http://www.w3.org/2000/svg" xmlns:xlink="http://www.w3.org/1999/xlink" xmlns:sketch="http://www.bohemiancoding.com/sketch/ns">
    <!-- Generator: Sketch 3.2.2 (9983) - http://www.bohemiancoding.com/sketch -->
    <title>191 - Receive (Solid)</title>
    <desc>Created with Sketch.</desc>
    <defs></defs>
    <g id="Page-1" stroke="none" stroke-width="1" fill="none" fill-rule="evenodd" sketch:type="MSPage">
        <g id="Icons" sketch:type="MSArtboardGroup" transform="translate(-1200.000000, -2523.000000)" fill="#000000">
            <g id="191---Receive-(Solid)" sketch:type="MSLayerGroup" transform="translate(1200.000000, 2523.000000)">
                <path d="M56.28,10.441 C56.128,10.217 53.381,6.25 48,4.204 L48,0 L0,0 L0,48 L48,48 L48,11.283 C48.491,11.244 48.995,11.217 49.521,11.217 C51.322,11.217 53.235,11.47 55.205,11.971 L57.746,12.615 L56.28,10.441 L56.28,10.441 Z M49.521,9.217 C48.996,9.217 48.494,9.246 48,9.282 L48,9.244 L46.869,9.394 L46.622,9.436 C46.251,9.49 45.889,9.551 45.537,9.622 C45.429,9.645 45.323,9.669 45.217,9.692 C44.826,9.78 44.445,9.873 44.079,9.98 L43.964,10.016 C40.531,11.045 38.178,12.866 36.764,14.299 L36.733,14.331 C36.569,14.498 36.419,14.656 36.281,14.81 L36.228,14.868 C36.099,15.013 35.98,15.149 35.874,15.279 L35.819,15.345 C35.719,15.468 35.627,15.582 35.549,15.686 L35.509,15.739 C35.432,15.841 35.363,15.934 35.308,16.012 L35.305,16.017 C35.187,16.185 35.11,16.304 35.091,16.336 L34.681,17.008 L38.642,20.97 L25.043,20.934 L25.007,7.335 L29.141,11.469 L29.848,10.719 C34.901,5.35 39.594,5.083 39.692,5.078 C42.116,4.857 44.464,5.122 46.68,5.872 L46.9,5.946 C49.454,6.856 51.389,8.261 52.682,9.439 C51.604,9.291 50.547,9.217 49.521,9.217 L49.521,9.217 Z" id="Fill-130" sketch:type="MSShapeGroup"></path>
            </g>
        </g>
    </g>
</svg>