<?xml version="1.0" encoding="UTF-8" standalone="no"?>
<svg width="57px" height="59px" viewBox="0 0 57 59" version="1.1" xmlns="http://www.w3.org/2000/svg" xmlns:xlink="http://www.w3.org/1999/xlink" xmlns:sketch="http://www.bohemiancoding.com/sketch/ns">
    <!-- Generator: Sketch 3.2.2 (9983) - http://www.bohemiancoding.com/sketch -->
    <title>192 - Send (Solid)</title>
    <desc>Created with Sketch.</desc>
    <defs></defs>
    <g id="Page-1" stroke="none" stroke-width="1" fill="none" fill-rule="evenodd" sketch:type="MSPage">
        <g id="Icons" sketch:type="MSArtboardGroup" transform="translate(-1083.000000, -2517.000000)" fill="#000000">
            <g id="192---Send-(Solid)" sketch:type="MSLayerGroup" transform="translate(1083.000000, 2517.000000)">
                <path d="M56.41,15.065 L42,0.576 L42,9.229 C38.126,9.26 35.3,10.138 33.444,11 L0,11 L0,59 L48,59 L48,23.521 L56.41,15.065 L56.41,15.065 Z M42.215,11.228 C42.462,11.228 42.713,11.231 42.97,11.239 L44,11.27 L44,5.424 L53.59,15.065 L48,20.685 L44,24.706 L44,19.104 L43.235,18.919 C43.2,18.91 42.48,18.74 41.307,18.682 C38.086,18.521 31.42,19.214 25.914,26.484 C26.042,23.705 26.921,19.364 30.586,15.554 C31.036,15.088 31.519,14.627 32.056,14.181 L32.179,14.078 L32.19,14.069 L32.304,13.982 L32.371,13.931 L32.495,13.843 L32.639,13.743 L32.752,13.668 C32.829,13.617 32.913,13.564 33.004,13.508 L33.078,13.463 C34.525,12.59 37.533,11.228 42.215,11.228 L42.215,11.228 Z" id="Fill-129" sketch:type="MSShapeGroup"></path>
            </g>
        </g>
    </g>
</svg>