<?xml version="1.0" encoding="UTF-8" standalone="no"?>
<svg width="44px" height="59px" viewBox="0 0 44 59" version="1.1" xmlns="http://www.w3.org/2000/svg" xmlns:xlink="http://www.w3.org/1999/xlink" xmlns:sketch="http://www.bohemiancoding.com/sketch/ns">
    <!-- Generator: Sketch 3.2.2 (9983) - http://www.bohemiancoding.com/sketch -->
    <title>193 - Upload (Solid)</title>
    <desc>Created with Sketch.</desc>
    <defs></defs>
    <g id="Page-1" stroke="none" stroke-width="1" fill="none" fill-rule="evenodd" sketch:type="MSPage">
        <g id="Icons" sketch:type="MSArtboardGroup" transform="translate(-967.000000, -2517.000000)" fill="#1A1718">
            <g id="193---Upload-(Solid)" sketch:type="MSLayerGroup" transform="translate(967.000000, 2517.000000)">
                <path d="M12,14.021 C12.512,14.021 13.023,13.825 13.414,13.435 L20.021,6.828 L20.021,40 C20.021,41.104 20.916,42 22.021,42 C23.125,42 24.021,41.104 24.021,40 L24.021,6.828 L30.586,13.394 C31.367,14.175 32.633,14.175 33.414,13.394 C34.195,12.612 34.195,11.347 33.414,10.565 L23.436,0.587 C23.343,0.494 23.24,0.41 23.129,0.336 L22.981,0.256 L22.785,0.153 L22.585,0.091 L22.412,0.04 C22.154,-0.012 21.887,-0.012 21.629,0.04 L21.456,0.091 L21.256,0.153 L21.06,0.256 L20.912,0.336 C20.802,0.41 20.698,0.494 20.605,0.587 L10.586,10.606 C9.805,11.388 9.805,12.653 10.586,13.435 C10.977,13.825 11.488,14.021 12,14.021" id="Fill-954" sketch:type="MSShapeGroup"></path>
                <path d="M26,16 L26,39 C26,41.209 24.209,43 22,43 C19.791,43 18,41.209 18,39 L18,16 L0,16 L0,59 L44,59 L44,16 L26,16" id="Fill-955" sketch:type="MSShapeGroup"></path>
            </g>
        </g>
    </g>
</svg>