<?xml version="1.0" encoding="UTF-8" standalone="no"?>
<svg width="54px" height="49px" viewBox="0 0 54 49" version="1.1" xmlns="http://www.w3.org/2000/svg" xmlns:xlink="http://www.w3.org/1999/xlink" xmlns:sketch="http://www.bohemiancoding.com/sketch/ns">
    <!-- Generator: Sketch 3.2.2 (9983) - http://www.bohemiancoding.com/sketch -->
    <title>196 - Search (Solid)</title>
    <desc>Created with Sketch.</desc>
    <defs></defs>
    <g id="Page-1" stroke="none" stroke-width="1" fill="none" fill-rule="evenodd" sketch:type="MSPage">
        <g id="Icons" sketch:type="MSArtboardGroup" transform="translate(-603.000000, -2522.000000)" fill="#000000">
            <g id="196---Search-(Solid)" sketch:type="MSLayerGroup" transform="translate(603.000000, 2522.000000)">
                <path d="M52.513,31.225 L46.616,7.046 C45.697,3.281 42.476,0.535 38.781,0.369 C33.977,0.144 30,3.996 30,8.753 L30,13 L24,13 L24,8.753 C24,3.996 20.01,0.141 15.219,0.369 C11.524,0.535 8.302,3.281 7.384,7.046 L1.486,31.227 C0.541,32.941 0,34.908 0,37 C0,43.617 5.383,49 12,49 C18.418,49 23.661,43.931 23.97,37.588 L24,37.44 L24,28 L30,28 L30,37.44 L30.03,37.588 C30.339,43.931 35.582,49 42,49 C48.617,49 54,43.617 54,37 C54,34.907 53.459,32.939 52.513,31.225 L52.513,31.225 Z M12,47 C6.486,47 2,42.514 2,37 C2,35.179 2.497,33.475 3.352,32.002 C3.536,31.685 3.737,31.382 3.952,31.09 L4.112,30.876 C4.614,30.23 5.188,29.651 5.822,29.152 L5.996,29.022 C6.276,28.812 6.566,28.615 6.866,28.435 L7.028,28.336 C7.736,27.929 8.493,27.61 9.282,27.385 L9.524,27.323 C9.838,27.242 10.156,27.178 10.479,27.128 C10.579,27.113 10.678,27.095 10.779,27.082 C11.182,27.032 11.589,27 12,27 C17.514,27 22,31.486 22,37 L21.988,37.235 L21.979,37.4 L21.979,37.406 C21.764,42.731 17.377,47 12,47 L12,47 Z M42,47 C36.661,47 32.3,42.792 32.026,37.52 L32.042,37.44 L32.01,37.187 L32,37 C32,31.486 36.486,27 42,27 C42.411,27 42.818,27.032 43.221,27.083 C43.322,27.095 43.421,27.113 43.521,27.128 C43.843,27.178 44.163,27.242 44.477,27.323 L44.717,27.385 C45.507,27.61 46.265,27.929 46.973,28.337 L47.13,28.432 C47.433,28.614 47.726,28.812 48.008,29.026 L48.175,29.15 C48.811,29.65 49.387,30.231 49.891,30.88 L50.044,31.085 C50.262,31.381 50.467,31.688 50.653,32.01 C51.504,33.48 52,35.182 52,37 C52,42.514 47.514,47 42,47 L42,47 Z" id="Fill-178" sketch:type="MSShapeGroup"></path>
            </g>
        </g>
    </g>
</svg>