<?xml version="1.0" encoding="UTF-8" standalone="no"?>
<svg width="55px" height="55px" viewBox="0 0 55 55" version="1.1" xmlns="http://www.w3.org/2000/svg" xmlns:xlink="http://www.w3.org/1999/xlink" xmlns:sketch="http://www.bohemiancoding.com/sketch/ns">
    <!-- Generator: Sketch 3.2.2 (9983) - http://www.bohemiancoding.com/sketch -->
    <title>197 - Network (Solid)</title>
    <desc>Created with Sketch.</desc>
    <defs></defs>
    <g id="Page-1" stroke="none" stroke-width="1" fill="none" fill-rule="evenodd" sketch:type="MSPage">
        <g id="Icons" sketch:type="MSArtboardGroup" transform="translate(-482.000000, -2521.000000)" fill="#000000">
            <g id="197---Network-(Solid)" sketch:type="MSLayerGroup" transform="translate(482.000000, 2521.000000)">
                <path d="M49,0 C45.691,0 43,2.691 43,6 C43,7.035 43.263,8.009 43.726,8.86 L33.898,18.688 C32.543,17.634 30.846,17 29,17 C27.154,17 25.457,17.634 24.102,18.688 L16.433,11.019 C16.785,10.424 17,9.74 17,9 C17,6.794 15.206,5 13,5 C10.794,5 9,6.794 9,9 C9,11.206 10.794,13 13,13 C13.74,13 14.424,12.785 15.019,12.433 L22.688,20.103 C21.634,21.458 21,23.154 21,25 C21,26.846 21.634,28.543 22.688,29.897 L10.024,42.562 C8.958,41.595 7.549,41 6,41 C2.691,41 0,43.691 0,47 C0,50.309 2.691,53 6,53 C9.309,53 12,50.309 12,47 C12,45.965 11.737,44.991 11.274,44.141 L24.102,31.312 C25.208,32.172 26.543,32.748 28,32.931 L28,43.09 C25.167,43.569 23,46.033 23,49 C23,52.309 25.691,55 29,55 C32.309,55 35,52.309 35,49 C35,46.033 32.833,43.569 30,43.09 L30,32.931 C31.458,32.748 32.792,32.172 33.898,31.312 L41.567,38.981 C41.215,39.576 41,40.26 41,41 C41,43.206 42.794,45 45,45 C47.206,45 49,43.206 49,41 C49,38.794 47.206,37 45,37 C44.26,37 43.576,37.215 42.981,37.567 L35.312,29.897 C36.366,28.543 37,26.846 37,25 C37,23.154 36.366,21.458 35.312,20.103 L44.976,10.438 C46.042,11.405 47.451,12 49,12 C52.309,12 55,9.309 55,6 C55,2.691 52.309,0 49,0" id="Fill-176" sketch:type="MSShapeGroup"></path>
            </g>
        </g>
    </g>
</svg>