<?xml version="1.0" encoding="UTF-8" standalone="no"?>
<svg width="57px" height="57px" viewBox="0 0 57 57" version="1.1" xmlns="http://www.w3.org/2000/svg" xmlns:xlink="http://www.w3.org/1999/xlink" xmlns:sketch="http://www.bohemiancoding.com/sketch/ns">
    <!-- Generator: Sketch 3.2.2 (9983) - http://www.bohemiancoding.com/sketch -->
    <title>2 - Price Tag (Solid)</title>
    <desc>Created with Sketch.</desc>
    <defs></defs>
    <g id="Page-1" stroke="none" stroke-width="1" fill="none" fill-rule="evenodd" sketch:type="MSPage">
        <g id="Icons" sketch:type="MSArtboardGroup" transform="translate(-1081.000000, -4799.000000)" fill="#000000">
            <g id="2---Price-Tag-(Solid)" sketch:type="MSLayerGroup" transform="translate(1081.000000, 4799.000000)">
                <path d="M2.001,14 C2.202,14 2.405,13.94 2.581,13.813 C2.785,13.669 23.207,-0.591 42.4,13.8 C42.843,14.132 43.47,14.043 43.8,13.6 C44.132,13.158 44.042,12.531 43.6,12.2 C23.251,-3.062 1.636,12.032 1.419,12.187 C0.97,12.507 0.865,13.132 1.187,13.581 C1.382,13.855 1.688,14 2.001,14" id="Fill-1349" sketch:type="MSShapeGroup"></path>
                <path d="M53.503,26.134 C53.024,26.408 52.859,27.02 53.133,27.498 C53.325,27.835 57.755,35.83 50.293,43.293 C47.552,46.032 41.165,47.187 36.381,44.465 C31.569,41.727 30.003,35.968 31.969,28.247 C32.106,27.712 31.782,27.167 31.247,27.031 C30.71,26.889 30.168,27.218 30.031,27.753 C27.051,39.456 32.11,44.336 35.392,46.203 C37.534,47.422 40.087,48.012 42.606,48.011 C46.107,48.011 49.541,46.873 51.707,44.707 C60.275,36.139 54.921,26.596 54.866,26.5 C54.59,26.023 53.982,25.859 53.503,26.134" id="Fill-1350" sketch:type="MSShapeGroup"></path>
                <path d="M45.885,0 L31.881,0 L28.178,3.691 C32.479,4.253 36.992,5.67 41.503,8.383 C42.208,8.806 43.023,9.048 43.844,9.005 C44.563,8.966 45.348,9.162 46.231,9.82 C47.232,10.566 47.952,11.695 47.95,12.943 C47.947,15.11 46.182,16.87 44.015,16.87 C42.854,16.87 41.813,16.361 41.094,15.558 C40.724,15.145 40.314,14.762 39.855,14.451 C33.887,10.42 27.849,9.216 22.458,9.392 L6.585,25.213 L6.593,25.221 L0.586,31.213 L25.732,56.414 L34.292,47.877 C31.216,46.086 24.747,40.613 28.058,27.397 C28.415,25.974 29.708,24.905 31.172,25.003 C33.109,25.132 34.363,26.953 33.907,28.74 C32.159,35.607 33.357,40.442 37.37,42.727 C37.828,42.988 38.308,43.202 38.8,43.381 L52.069,30.147 C51.755,29.133 51.414,28.521 51.402,28.5 C50.573,27.065 51.065,25.23 52.5,24.403 C53.937,23.574 55.77,24.065 56.598,25.5 L56.644,25.584 L57,25.229 L57,11.089 L45.885,0" id="Fill-1351" sketch:type="MSShapeGroup"></path>
            </g>
        </g>
    </g>
</svg>