<?xml version="1.0" encoding="UTF-8" standalone="no"?>
<svg width="56px" height="60px" viewBox="0 0 56 60" version="1.1" xmlns="http://www.w3.org/2000/svg" xmlns:xlink="http://www.w3.org/1999/xlink" xmlns:sketch="http://www.bohemiancoding.com/sketch/ns">
    <!-- Generator: Sketch 3.2.2 (9983) - http://www.bohemiancoding.com/sketch -->
    <title>20 - Phone Vibration (Solid)</title>
    <desc>Created with Sketch.</desc>
    <defs></defs>
    <g id="Page-1" stroke="none" stroke-width="1" fill="none" fill-rule="evenodd" sketch:type="MSPage">
        <g id="Icons" sketch:type="MSArtboardGroup" transform="translate(-122.000000, -4677.000000)" fill="#000000">
            <g id="20---Phone-Vibration-(Solid)" sketch:type="MSLayerGroup" transform="translate(122.000000, 4677.000000)">
                <path d="M12,48 L44,48 C44.552,48 45,47.552 45,47 C45,46.447 44.552,46 44,46 L12,46 C11.448,46 11,46.447 11,47 C11,47.552 11.448,48 12,48" id="Fill-393" sketch:type="MSShapeGroup"></path>
                <path d="M28,51 C26.897,51 26,51.897 26,53 C26,54.102 26.897,55 28,55 C29.103,55 30,54.102 30,53 C30,51.897 29.103,51 28,51" id="Fill-1359" sketch:type="MSShapeGroup"></path>
                <path d="M47.725,4.117 L49.713,4.576 L49.939,4.602 C50.394,4.602 50.806,4.289 50.912,3.826 C51.037,3.288 50.701,2.751 50.163,2.627 L48.175,2.168 C47.64,2.046 47.1,2.379 46.976,2.918 C46.852,3.456 47.187,3.993 47.725,4.117" id="Fill-1360" sketch:type="MSShapeGroup"></path>
                <path d="M47.705,33.44 C47.173,33.284 46.62,33.59 46.465,34.12 L45.894,36.078 C45.739,36.609 46.044,37.164 46.573,37.318 C46.667,37.345 46.761,37.359 46.854,37.359 C47.287,37.359 47.686,37.075 47.813,36.639 L48.385,34.681 C48.54,34.151 48.235,33.594 47.705,33.44" id="Fill-1361" sketch:type="MSShapeGroup"></path>
                <path d="M54.56,9.938 C54.032,9.786 53.475,10.088 53.32,10.617 L52.749,12.575 C52.594,13.105 52.899,13.661 53.429,13.816 C53.523,13.843 53.617,13.855 53.71,13.855 C54.143,13.855 54.542,13.572 54.669,13.136 L55.24,11.177 C55.395,10.647 55.09,10.092 54.56,9.938" id="Fill-1362" sketch:type="MSShapeGroup"></path>
                <path d="M52.847,15.813 C52.316,15.659 51.761,15.963 51.606,16.493 L51.035,18.451 C50.88,18.981 51.185,19.537 51.715,19.691 C51.809,19.719 51.903,19.731 51.996,19.731 C52.429,19.731 52.828,19.448 52.955,19.012 L53.526,17.054 C53.681,16.524 53.377,15.968 52.847,15.813" id="Fill-1363" sketch:type="MSShapeGroup"></path>
                <path d="M45.991,39.316 C45.623,39.209 45.25,39.333 45,39.591 L45,4.406 C45,3.867 44.889,3.357 44.712,2.88 C44.82,2.759 44.91,2.619 44.949,2.449 C45.073,1.911 44.737,1.374 44.199,1.25 L43.448,1.076 C42.677,0.415 41.688,0 40.595,0 L15.405,0 C14.312,0 13.323,0.415 12.552,1.076 L11.801,1.25 C11.263,1.374 10.927,1.911 11.051,2.449 C11.09,2.619 11.18,2.759 11.288,2.88 C11.111,3.357 11,3.867 11,4.406 L11,39.591 C10.75,39.333 10.378,39.209 10.009,39.316 C9.479,39.47 9.174,40.025 9.329,40.555 L9.9,42.515 C10.027,42.951 10.426,43.234 10.859,43.234 L11,43.214 L11,55.595 C11,58.023 12.976,60 15.405,60 L40.595,60 C43.024,60 45,58.023 45,55.595 L45,43.214 L45.141,43.234 C45.574,43.234 45.973,42.951 46.1,42.515 L46.671,40.555 C46.826,40.025 46.521,39.47 45.991,39.316 L45.991,39.316 Z M31,3 L32,3 C32.552,3 33,3.447 33,4 C33,4.553 32.552,5 32,5 L31,5 C30.448,5 30,4.553 30,4 C30,3.447 30.448,3 31,3 L31,3 Z M24,3 L28,3 C28.552,3 29,3.447 29,4 C29,4.553 28.552,5 28,5 L24,5 C23.448,5 23,4.553 23,4 C23,3.447 23.448,3 24,3 L24,3 Z M28,57 C25.794,57 24,55.206 24,53 C24,50.794 25.794,49 28,49 C30.206,49 32,50.794 32,53 C32,55.206 30.206,57 28,57 L28,57 Z M13,8 L43,8 L43,46 L13,46 L13,8 Z" id="Fill-1364" sketch:type="MSShapeGroup"></path>
                <path d="M55.61,6.612 C55.358,5.82 54.919,5.085 54.34,4.485 C53.957,4.089 53.323,4.077 52.926,4.46 C52.528,4.844 52.517,5.477 52.9,5.874 C53.267,6.254 53.545,6.72 53.705,7.22 C53.841,7.646 54.234,7.916 54.657,7.916 C54.758,7.916 54.861,7.901 54.962,7.869 C55.488,7.701 55.778,7.139 55.61,6.612" id="Fill-1365" sketch:type="MSShapeGroup"></path>
                <path d="M49.419,27.565 C48.889,27.411 48.334,27.715 48.179,28.244 L47.607,30.203 C47.453,30.733 47.757,31.289 48.288,31.444 C48.381,31.471 48.475,31.483 48.568,31.483 C49.001,31.483 49.4,31.2 49.527,30.764 L50.099,28.805 C50.253,28.274 49.949,27.719 49.419,27.565" id="Fill-1366" sketch:type="MSShapeGroup"></path>
                <path d="M51.132,21.688 C50.605,21.532 50.047,21.838 49.893,22.368 L49.321,24.327 C49.167,24.858 49.471,25.413 50.002,25.567 C50.095,25.595 50.189,25.608 50.282,25.608 C50.715,25.608 51.114,25.324 51.241,24.887 L51.812,22.929 C51.967,22.398 51.663,21.843 51.132,21.688" id="Fill-1367" sketch:type="MSShapeGroup"></path>
                <path d="M1.343,7.916 C1.766,7.916 2.159,7.646 2.295,7.22 C2.455,6.72 2.733,6.254 3.1,5.874 C3.483,5.477 3.472,4.844 3.074,4.46 C2.678,4.077 2.044,4.089 1.66,4.485 C1.082,5.085 0.642,5.82 0.39,6.612 C0.222,7.139 0.512,7.701 1.038,7.869 C1.14,7.901 1.242,7.916 1.343,7.916" id="Fill-1368" sketch:type="MSShapeGroup"></path>
                <path d="M6.061,4.602 L6.287,4.576 L8.275,4.117 C8.813,3.993 9.148,3.456 9.024,2.918 C8.9,2.378 8.361,2.04 7.825,2.168 L5.837,2.627 C5.299,2.751 4.963,3.288 5.088,3.826 C5.194,4.289 5.606,4.602 6.061,4.602" id="Fill-1369" sketch:type="MSShapeGroup"></path>
                <path d="M3.251,12.575 L2.68,10.617 C2.525,10.088 1.97,9.786 1.44,9.938 C0.91,10.092 0.606,10.647 0.76,11.177 L1.331,13.136 C1.458,13.572 1.857,13.855 2.29,13.855 C2.383,13.855 2.478,13.843 2.571,13.816 C3.101,13.661 3.406,13.105 3.251,12.575" id="Fill-1370" sketch:type="MSShapeGroup"></path>
                <path d="M10.106,36.078 L9.535,34.12 C9.381,33.59 8.826,33.284 8.295,33.44 C7.765,33.594 7.46,34.151 7.615,34.681 L8.187,36.639 C8.314,37.075 8.713,37.359 9.146,37.359 C9.239,37.359 9.333,37.345 9.427,37.318 C9.957,37.164 10.261,36.609 10.106,36.078" id="Fill-1371" sketch:type="MSShapeGroup"></path>
                <path d="M8.393,30.203 L7.821,28.244 C7.667,27.715 7.109,27.411 6.582,27.565 C6.051,27.719 5.747,28.274 5.901,28.805 L6.473,30.764 C6.6,31.2 6.999,31.483 7.432,31.483 C7.525,31.483 7.619,31.471 7.712,31.444 C8.243,31.289 8.547,30.733 8.393,30.203" id="Fill-1372" sketch:type="MSShapeGroup"></path>
                <path d="M4.965,18.451 L4.394,16.493 C4.239,15.963 3.686,15.659 3.153,15.813 C2.624,15.968 2.319,16.524 2.474,17.054 L3.045,19.012 C3.172,19.448 3.571,19.731 4.004,19.731 C4.097,19.731 4.191,19.719 4.285,19.691 C4.815,19.537 5.12,18.981 4.965,18.451" id="Fill-1373" sketch:type="MSShapeGroup"></path>
                <path d="M6.679,24.327 L6.107,22.368 C5.953,21.838 5.397,21.532 4.868,21.688 C4.337,21.843 4.033,22.398 4.187,22.929 L4.759,24.887 C4.886,25.324 5.285,25.608 5.718,25.608 C5.811,25.608 5.905,25.595 5.999,25.567 C6.529,25.413 6.833,24.858 6.679,24.327" id="Fill-1374" sketch:type="MSShapeGroup"></path>
            </g>
        </g>
    </g>
</svg>