<?xml version="1.0" encoding="UTF-8" standalone="no"?>
<svg width="60px" height="60px" viewBox="0 0 60 60" version="1.1" xmlns="http://www.w3.org/2000/svg" xmlns:xlink="http://www.w3.org/1999/xlink" xmlns:sketch="http://www.bohemiancoding.com/sketch/ns">
    <!-- Generator: Sketch 3.2.2 (9983) - http://www.bohemiancoding.com/sketch -->
    <title>207 - Success (Solid)</title>
    <desc>Created with Sketch.</desc>
    <defs></defs>
    <g id="Page-1" stroke="none" stroke-width="1" fill="none" fill-rule="evenodd" sketch:type="MSPage">
        <g id="Icons" sketch:type="MSArtboardGroup" transform="translate(-480.000000, -2397.000000)" fill="#000000">
            <g id="207---Success-(Solid)" sketch:type="MSLayerGroup" transform="translate(480.000000, 2397.000000)">
                <path d="M0,60 L60,60 L60,0 L0,0 L0,60 Z M44.495,22.329 L28.495,40.329 C28.101,40.772 27.552,41 26.999,41 C26.56,41 26.119,40.856 25.751,40.562 L15.75,32.562 C14.888,31.872 14.748,30.613 15.439,29.751 C16.128,28.889 17.387,28.748 18.25,29.438 L26.767,36.252 L41.505,19.671 C42.238,18.845 43.503,18.77 44.329,19.505 C45.154,20.239 45.229,21.503 44.495,22.329 L44.495,22.329 Z" id="Fill-943" sketch:type="MSShapeGroup"></path>
            </g>
        </g>
    </g>
</svg>