<?xml version="1.0" encoding="UTF-8" standalone="no"?>
<svg width="47px" height="60px" viewBox="0 0 47 60" version="1.1" xmlns="http://www.w3.org/2000/svg" xmlns:xlink="http://www.w3.org/1999/xlink" xmlns:sketch="http://www.bohemiancoding.com/sketch/ns">
    <!-- Generator: Sketch 3.2.2 (9983) - http://www.bohemiancoding.com/sketch -->
    <title>208 - Calculator (Solid)</title>
    <desc>Created with Sketch.</desc>
    <defs></defs>
    <g id="Page-1" stroke="none" stroke-width="1" fill="none" fill-rule="evenodd" sketch:type="MSPage">
        <g id="Icons" sketch:type="MSArtboardGroup" transform="translate(-367.000000, -2397.000000)" fill="#000000">
            <g id="208---Calculator-(Solid)" sketch:type="MSLayerGroup" transform="translate(367.000000, 2397.000000)">
                <path d="M44.086,0 L2.914,0 C1.307,0 0,1.308 0,2.914 L0,57.086 C0,58.692 1.307,60 2.914,60 L44.086,60 C45.693,60 47,58.692 47,57.086 L47,2.914 C47,1.308 45.693,0 44.086,0 L44.086,0 Z M5,44 L16,44 L16,55 L5,55 L5,44 Z M5,31 L16,31 L16,42 L5,42 L5,31 Z M5,18 L16,18 L16,29 L5,29 L5,18 Z M18,44 L29,44 L29,55 L18,55 L18,44 Z M18,31 L29,31 L29,42 L18,42 L18,31 Z M18,18 L29,18 L29,29 L18,29 L18,18 Z M31,31 L42,31 L42,55 L31,55 L31,31 Z M31,18 L42,18 L42,29 L31,29 L31,18 Z M5,5 L42,5 L42,15 L5,15 L5,5 Z" id="Fill-177" sketch:type="MSShapeGroup"></path>
            </g>
        </g>
    </g>
</svg>