<?xml version="1.0" encoding="UTF-8" standalone="no"?>
<svg width="60px" height="60px" viewBox="0 0 60 60" version="1.1" xmlns="http://www.w3.org/2000/svg" xmlns:xlink="http://www.w3.org/1999/xlink" xmlns:sketch="http://www.bohemiancoding.com/sketch/ns">
    <!-- Generator: Sketch 3.2.2 (9983) - http://www.bohemiancoding.com/sketch -->
    <title>21 - Calendar (Solid)</title>
    <desc>Created with Sketch.</desc>
    <defs></defs>
    <g id="Page-1" stroke="none" stroke-width="1" fill="none" fill-rule="evenodd" sketch:type="MSPage">
        <g id="Icons" sketch:type="MSArtboardGroup" transform="translate(-1200.000000, -4557.000000)" fill="#000000">
            <g id="21---Calendar-(Solid)" sketch:type="MSLayerGroup" transform="translate(1200.000000, 4557.000000)">
                <path d="M50.25,11 C48.687,10.162 38.969,4.93 33.627,1.579 C32.715,0.612 31.431,0 30,0 C28.569,0 27.285,0.612 26.373,1.579 C21.031,4.929 11.313,10.162 9.75,11 L0,11 L0,60 L60,60 L60,11 L50.25,11 L50.25,11 Z M25.006,4.754 L25,5 C25,7.757 27.243,10 30,10 C32.757,10 35,7.757 35,5 L34.994,4.754 C38.587,6.89 43.029,9.351 46.051,11 L13.949,11 C16.971,9.351 21.413,6.89 25.006,4.754 L25.006,4.754 Z M2,20 L58,20 L58,58 L2,58 L2,20 Z" id="Fill-649" sketch:type="MSShapeGroup"></path>
                <path d="M23,27 C22.448,27 22,27.448 22,28 C22,28.552 22.448,29 23,29 C23.552,29 24,28.552 24,28 C24,27.448 23.552,27 23,27" id="Fill-650" sketch:type="MSShapeGroup"></path>
                <path d="M30,27 C29.448,27 29,27.448 29,28 C29,28.552 29.448,29 30,29 C30.552,29 31,28.552 31,28 C31,27.448 30.552,27 30,27" id="Fill-651" sketch:type="MSShapeGroup"></path>
                <path d="M37,27 C36.448,27 36,27.448 36,28 C36,28.552 36.448,29 37,29 C37.552,29 38,28.552 38,28 C38,27.448 37.552,27 37,27" id="Fill-652" sketch:type="MSShapeGroup"></path>
                <path d="M44,27 C43.448,27 43,27.448 43,28 C43,28.552 43.448,29 44,29 C44.552,29 45,28.552 45,28 C45,27.448 44.552,27 44,27" id="Fill-653" sketch:type="MSShapeGroup"></path>
                <path d="M51,27 C50.448,27 50,27.448 50,28 C50,28.552 50.448,29 51,29 C51.552,29 52,28.552 52,28 C52,27.448 51.552,27 51,27" id="Fill-654" sketch:type="MSShapeGroup"></path>
                <path d="M9,35 C8.448,35 8,35.448 8,36 C8,36.552 8.448,37 9,37 C9.552,37 10,36.552 10,36 C10,35.448 9.552,35 9,35" id="Fill-655" sketch:type="MSShapeGroup"></path>
                <path d="M16,35 C15.448,35 15,35.448 15,36 C15,36.552 15.448,37 16,37 C16.552,37 17,36.552 17,36 C17,35.448 16.552,35 16,35" id="Fill-656" sketch:type="MSShapeGroup"></path>
                <path d="M23,35 C22.448,35 22,35.448 22,36 C22,36.552 22.448,37 23,37 C23.552,37 24,36.552 24,36 C24,35.448 23.552,35 23,35" id="Fill-657" sketch:type="MSShapeGroup"></path>
                <path d="M30,35 C29.448,35 29,35.448 29,36 C29,36.552 29.448,37 30,37 C30.552,37 31,36.552 31,36 C31,35.448 30.552,35 30,35" id="Fill-658" sketch:type="MSShapeGroup"></path>
                <path d="M37,35 C36.448,35 36,35.448 36,36 C36,36.552 36.448,37 37,37 C37.552,37 38,36.552 38,36 C38,35.448 37.552,35 37,35" id="Fill-659" sketch:type="MSShapeGroup"></path>
                <path d="M44,35 C43.448,35 43,35.448 43,36 C43,36.552 43.448,37 44,37 C44.552,37 45,36.552 45,36 C45,35.448 44.552,35 44,35" id="Fill-660" sketch:type="MSShapeGroup"></path>
                <path d="M51,35 C50.448,35 50,35.448 50,36 C50,36.552 50.448,37 51,37 C51.552,37 52,36.552 52,36 C52,35.448 51.552,35 51,35" id="Fill-661" sketch:type="MSShapeGroup"></path>
                <path d="M9,42 C8.448,42 8,42.448 8,43 C8,43.552 8.448,44 9,44 C9.552,44 10,43.552 10,43 C10,42.448 9.552,42 9,42" id="Fill-662" sketch:type="MSShapeGroup"></path>
                <path d="M16,42 C15.448,42 15,42.448 15,43 C15,43.552 15.448,44 16,44 C16.552,44 17,43.552 17,43 C17,42.448 16.552,42 16,42" id="Fill-663" sketch:type="MSShapeGroup"></path>
                <path d="M23,42 C22.448,42 22,42.448 22,43 C22,43.552 22.448,44 23,44 C23.552,44 24,43.552 24,43 C24,42.448 23.552,42 23,42" id="Fill-664" sketch:type="MSShapeGroup"></path>
                <path d="M30,42 C29.448,42 29,42.448 29,43 C29,43.552 29.448,44 30,44 C30.552,44 31,43.552 31,43 C31,42.448 30.552,42 30,42" id="Fill-665" sketch:type="MSShapeGroup"></path>
                <path d="M37,42 C36.448,42 36,42.448 36,43 C36,43.552 36.448,44 37,44 C37.552,44 38,43.552 38,43 C38,42.448 37.552,42 37,42" id="Fill-666" sketch:type="MSShapeGroup"></path>
                <path d="M44,42 C43.448,42 43,42.448 43,43 C43,43.552 43.448,44 44,44 C44.552,44 45,43.552 45,43 C45,42.448 44.552,42 44,42" id="Fill-667" sketch:type="MSShapeGroup"></path>
                <path d="M51,42 C50.448,42 50,42.448 50,43 C50,43.552 50.448,44 51,44 C51.552,44 52,43.552 52,43 C52,42.448 51.552,42 51,42" id="Fill-668" sketch:type="MSShapeGroup"></path>
                <path d="M9,50 C8.448,50 8,50.448 8,51 C8,51.552 8.448,52 9,52 C9.552,52 10,51.552 10,51 C10,50.448 9.552,50 9,50" id="Fill-669" sketch:type="MSShapeGroup"></path>
                <path d="M16,50 C15.448,50 15,50.448 15,51 C15,51.552 15.448,52 16,52 C16.552,52 17,51.552 17,51 C17,50.448 16.552,50 16,50" id="Fill-670" sketch:type="MSShapeGroup"></path>
                <path d="M23,50 C22.448,50 22,50.448 22,51 C22,51.552 22.448,52 23,52 C23.552,52 24,51.552 24,51 C24,50.448 23.552,50 23,50" id="Fill-671" sketch:type="MSShapeGroup"></path>
                <path d="M30,50 C29.448,50 29,50.448 29,51 C29,51.552 29.448,52 30,52 C30.552,52 31,51.552 31,51 C31,50.448 30.552,50 30,50" id="Fill-672" sketch:type="MSShapeGroup"></path>
                <path d="M37,50 C36.448,50 36,50.448 36,51 C36,51.552 36.448,52 37,52 C37.552,52 38,51.552 38,51 C38,50.448 37.552,50 37,50" id="Fill-673" sketch:type="MSShapeGroup"></path>
            </g>
        </g>
    </g>
</svg>