<?xml version="1.0" encoding="UTF-8" standalone="no"?>
<svg width="42px" height="26px" viewBox="0 0 42 26" version="1.1" xmlns="http://www.w3.org/2000/svg" xmlns:xlink="http://www.w3.org/1999/xlink" xmlns:sketch="http://www.bohemiancoding.com/sketch/ns">
    <!-- Generator: Sketch 3.2.2 (9983) - http://www.bohemiancoding.com/sketch -->
    <title>212 - Equal (Solid)</title>
    <desc>Created with Sketch.</desc>
    <defs></defs>
    <g id="Page-1" stroke="none" stroke-width="1" fill="none" fill-rule="evenodd" sketch:type="MSPage">
        <g id="Icons" sketch:type="MSArtboardGroup" transform="translate(-1089.000000, -2294.000000)" fill="#000000">
            <g id="212---Equal-(Solid)" sketch:type="MSLayerGroup" transform="translate(1089.000000, 2294.000000)">
                <path d="M4.941,10 L37.059,10 C39.777,10 42,7.718 42,5 C42,2.282 39.777,0 37.059,0 L4.941,0 C2.224,0 0,2.282 0,5 C0,7.718 2.224,10 4.941,10" id="Fill-901" sketch:type="MSShapeGroup"></path>
                <path d="M37.059,16 L4.941,16 C2.224,16 0,18.282 0,21 C0,23.718 2.224,26 4.941,26 L37.059,26 C39.777,26 42,23.718 42,21 C42,18.282 39.777,16 37.059,16" id="Fill-902" sketch:type="MSShapeGroup"></path>
            </g>
        </g>
    </g>
</svg>