<?xml version="1.0" encoding="UTF-8" standalone="no"?>
<svg width="42px" height="42px" viewBox="0 0 42 42" version="1.1" xmlns="http://www.w3.org/2000/svg" xmlns:xlink="http://www.w3.org/1999/xlink" xmlns:sketch="http://www.bohemiancoding.com/sketch/ns">
    <!-- Generator: Sketch 3.2.2 (9983) - http://www.bohemiancoding.com/sketch -->
    <title>214 - Add (Solid)</title>
    <desc>Created with Sketch.</desc>
    <defs></defs>
    <g id="Page-1" stroke="none" stroke-width="1" fill="none" fill-rule="evenodd" sketch:type="MSPage">
        <g id="Icons" sketch:type="MSArtboardGroup" transform="translate(-850.000000, -2287.000000)" fill="#000000">
            <g id="214---Add-(Solid)" sketch:type="MSLayerGroup" transform="translate(850.000000, 2287.000000)">
                <path d="M37.059,16 L26,16 L26,4.941 C26,2.224 23.718,0 21,0 C18.282,0 16,2.224 16,4.941 L16,16 L4.941,16 C2.224,16 0,18.282 0,21 C0,23.718 2.224,26 4.941,26 L16,26 L16,37.059 C16,39.776 18.282,42 21,42 C23.718,42 26,39.776 26,37.059 L26,26 L37.059,26 C39.776,26 42,23.718 42,21 C42,18.282 39.776,16 37.059,16" id="Fill-899" sketch:type="MSShapeGroup"></path>
            </g>
        </g>
    </g>
</svg>