<?xml version="1.0" encoding="UTF-8" standalone="no"?>
<svg width="58px" height="57px" viewBox="0 0 58 57" version="1.1" xmlns="http://www.w3.org/2000/svg" xmlns:xlink="http://www.w3.org/1999/xlink" xmlns:sketch="http://www.bohemiancoding.com/sketch/ns">
    <!-- Generator: Sketch 3.2.2 (9983) - http://www.bohemiancoding.com/sketch -->
    <title>22 - Calendar (Solid)</title>
    <desc>Created with Sketch.</desc>
    <defs></defs>
    <g id="Page-1" stroke="none" stroke-width="1" fill="none" fill-rule="evenodd" sketch:type="MSPage">
        <g id="Icons" sketch:type="MSArtboardGroup" transform="translate(-1081.000000, -4558.000000)" fill="#000000">
            <g id="22---Calendar-(Solid)" sketch:type="MSLayerGroup" transform="translate(1081.000000, 4558.000000)">
                <path d="M22,25 C22.552,25 23,24.552 23,24 C23,23.448 22.552,23 22,23 C21.448,23 21,23.448 21,24 C21,24.552 21.448,25 22,25" id="Fill-1287" sketch:type="MSShapeGroup"></path>
                <path d="M29,25 C29.552,25 30,24.552 30,24 C30,23.448 29.552,23 29,23 C28.448,23 28,23.448 28,24 C28,24.552 28.448,25 29,25" id="Fill-1288" sketch:type="MSShapeGroup"></path>
                <path d="M36,25 C36.552,25 37,24.552 37,24 C37,23.448 36.552,23 36,23 C35.448,23 35,23.448 35,24 C35,24.552 35.448,25 36,25" id="Fill-1289" sketch:type="MSShapeGroup"></path>
                <path d="M43,25 C43.552,25 44,24.552 44,24 C44,23.448 43.552,23 43,23 C42.448,23 42,23.448 42,24 C42,24.552 42.448,25 43,25" id="Fill-1290" sketch:type="MSShapeGroup"></path>
                <path d="M50,25 C50.552,25 51,24.552 51,24 C51,23.448 50.552,23 50,23 C49.448,23 49,23.448 49,24 C49,24.552 49.448,25 50,25" id="Fill-1291" sketch:type="MSShapeGroup"></path>
                <path d="M8,33 C8.552,33 9,32.552 9,32 C9,31.448 8.552,31 8,31 C7.448,31 7,31.448 7,32 C7,32.552 7.448,33 8,33" id="Fill-1292" sketch:type="MSShapeGroup"></path>
                <path d="M15,33 C15.552,33 16,32.552 16,32 C16,31.448 15.552,31 15,31 C14.448,31 14,31.448 14,32 C14,32.552 14.448,33 15,33" id="Fill-1293" sketch:type="MSShapeGroup"></path>
                <path d="M22,33 C22.552,33 23,32.552 23,32 C23,31.448 22.552,31 22,31 C21.448,31 21,31.448 21,32 C21,32.552 21.448,33 22,33" id="Fill-1294" sketch:type="MSShapeGroup"></path>
                <path d="M29,33 C29.552,33 30,32.552 30,32 C30,31.448 29.552,31 29,31 C28.448,31 28,31.448 28,32 C28,32.552 28.448,33 29,33" id="Fill-1295" sketch:type="MSShapeGroup"></path>
                <path d="M36,33 C36.552,33 37,32.552 37,32 C37,31.448 36.552,31 36,31 C35.448,31 35,31.448 35,32 C35,32.552 35.448,33 36,33" id="Fill-1296" sketch:type="MSShapeGroup"></path>
                <path d="M43,33 C43.552,33 44,32.552 44,32 C44,31.448 43.552,31 43,31 C42.448,31 42,31.448 42,32 C42,32.552 42.448,33 43,33" id="Fill-1297" sketch:type="MSShapeGroup"></path>
                <path d="M50,33 C50.552,33 51,32.552 51,32 C51,31.448 50.552,31 50,31 C49.448,31 49,31.448 49,32 C49,32.552 49.448,33 50,33" id="Fill-1298" sketch:type="MSShapeGroup"></path>
                <path d="M8,40 C8.552,40 9,39.552 9,39 C9,38.448 8.552,38 8,38 C7.448,38 7,38.448 7,39 C7,39.552 7.448,40 8,40" id="Fill-1299" sketch:type="MSShapeGroup"></path>
                <path d="M15,40 C15.552,40 16,39.552 16,39 C16,38.448 15.552,38 15,38 C14.448,38 14,38.448 14,39 C14,39.552 14.448,40 15,40" id="Fill-1300" sketch:type="MSShapeGroup"></path>
                <path d="M22,40 C22.552,40 23,39.552 23,39 C23,38.448 22.552,38 22,38 C21.448,38 21,38.448 21,39 C21,39.552 21.448,40 22,40" id="Fill-1301" sketch:type="MSShapeGroup"></path>
                <path d="M29,40 C29.552,40 30,39.552 30,39 C30,38.448 29.552,38 29,38 C28.448,38 28,38.448 28,39 C28,39.552 28.448,40 29,40" id="Fill-1302" sketch:type="MSShapeGroup"></path>
                <path d="M36,40 C36.552,40 37,39.552 37,39 C37,38.448 36.552,38 36,38 C35.448,38 35,38.448 35,39 C35,39.552 35.448,40 36,40" id="Fill-1303" sketch:type="MSShapeGroup"></path>
                <path d="M43,40 C43.552,40 44,39.552 44,39 C44,38.448 43.552,38 43,38 C42.448,38 42,38.448 42,39 C42,39.552 42.448,40 43,40" id="Fill-1304" sketch:type="MSShapeGroup"></path>
                <path d="M50,40 C50.552,40 51,39.552 51,39 C51,38.448 50.552,38 50,38 C49.448,38 49,38.448 49,39 C49,39.552 49.448,40 50,40" id="Fill-1305" sketch:type="MSShapeGroup"></path>
                <path d="M8,48 C8.552,48 9,47.552 9,47 C9,46.448 8.552,46 8,46 C7.448,46 7,46.448 7,47 C7,47.552 7.448,48 8,48" id="Fill-1306" sketch:type="MSShapeGroup"></path>
                <path d="M15,48 C15.552,48 16,47.552 16,47 C16,46.448 15.552,46 15,46 C14.448,46 14,46.448 14,47 C14,47.552 14.448,48 15,48" id="Fill-1307" sketch:type="MSShapeGroup"></path>
                <path d="M22,48 C22.552,48 23,47.552 23,47 C23,46.448 22.552,46 22,46 C21.448,46 21,46.448 21,47 C21,47.552 21.448,48 22,48" id="Fill-1308" sketch:type="MSShapeGroup"></path>
                <path d="M29,48 C29.552,48 30,47.552 30,47 C30,46.448 29.552,46 29,46 C28.448,46 28,46.448 28,47 C28,47.552 28.448,48 29,48" id="Fill-1309" sketch:type="MSShapeGroup"></path>
                <path d="M36,48 C36.552,48 37,47.552 37,47 C37,46.448 36.552,46 36,46 C35.448,46 35,46.448 35,47 C35,47.552 35.448,48 36,48" id="Fill-1310" sketch:type="MSShapeGroup"></path>
                <path d="M26,0 C25.447,0 25,0.447 25,1 C25,1.552 25.447,2 26,2 C27.302,2 28.402,2.838 28.816,4 L30.899,4 C30.434,1.721 28.414,0 26,0" id="Fill-1311" sketch:type="MSShapeGroup"></path>
                <path d="M32,0 C31.447,0 31,0.447 31,1 C31,1.552 31.447,2 32,2 C33.302,2 34.402,2.838 34.816,4 L36.899,4 C36.434,1.721 34.414,0 32,0" id="Fill-1312" sketch:type="MSShapeGroup"></path>
                <path d="M38,0 C37.447,0 37,0.447 37,1 C37,1.552 37.447,2 38,2 C39.302,2 40.402,2.838 40.816,4 L42.899,4 C42.434,1.721 40.414,0 38,0" id="Fill-1313" sketch:type="MSShapeGroup"></path>
                <path d="M42.899,4 C42.965,4.323 43,4.658 43,5 C43,7.757 40.757,10 38,10 C37.447,10 37,9.553 37,9 C37,8.447 37.447,8 38,8 C39.654,8 41,6.654 41,5 C41,4.648 40.928,4.314 40.816,4 L36.899,4 C36.965,4.323 37,4.658 37,5 C37,7.757 34.757,10 32,10 C31.447,10 31,9.553 31,9 C31,8.447 31.447,8 32,8 C33.654,8 35,6.654 35,5 C35,4.648 34.928,4.314 34.816,4 L30.899,4 C30.965,4.323 31,4.658 31,5 C31,7.757 28.757,10 26,10 C25.447,10 25,9.553 25,9 C25,8.447 25.447,8 26,8 C27.654,8 29,6.654 29,5 C29,4.648 28.928,4.314 28.816,4 L24.899,4 C24.965,4.323 25,4.658 25,5 C25,7.757 22.757,10 20,10 C19.447,10 19,9.553 19,9 C19,8.447 19.447,8 20,8 C21.654,8 23,6.654 23,5 C23,4.648 22.928,4.314 22.816,4 L17.184,4 C17.598,2.838 18.698,2 20,2 C21.302,2 22.402,2.838 22.816,4 L24.899,4 C24.434,1.721 22.414,0 20,0 C17.586,0 15.566,1.721 15.101,4 L0,4 L0,57 L58,57 L58,4 L42.899,4 L42.899,4 Z M2,17 L56,17 L56,55 L2,55 L2,17 Z" id="Fill-1314" sketch:type="MSShapeGroup"></path>
            </g>
        </g>
    </g>
</svg>