<?xml version="1.0" encoding="UTF-8" standalone="no"?>
<svg width="52px" height="57px" viewBox="0 0 52 57" version="1.1" xmlns="http://www.w3.org/2000/svg" xmlns:xlink="http://www.w3.org/1999/xlink" xmlns:sketch="http://www.bohemiancoding.com/sketch/ns">
    <!-- Generator: Sketch 3.2.2 (9983) - http://www.bohemiancoding.com/sketch -->
    <title>221 - Turn Off  (Solid)</title>
    <desc>Created with Sketch.</desc>
    <defs></defs>
    <g id="Page-1" stroke="none" stroke-width="1" fill="none" fill-rule="evenodd" sketch:type="MSPage">
        <g id="Icons" sketch:type="MSArtboardGroup" transform="translate(-1203.000000, -2158.000000)" fill="#000000">
            <g id="221---Turn-Off--(Solid)" sketch:type="MSLayerGroup" transform="translate(1203.000000, 2158.000000)">
                <path d="M26,29 C27.104,29 28,28.104 28,27 L28,2 C28,0.896 27.104,0 26,0 C24.896,0 24,0.896 24,2 L24,27 C24,28.104 24.896,29 26,29" id="Fill-897" sketch:type="MSShapeGroup"></path>
                <path d="M51.918,29.025 C51.911,28.933 51.905,28.842 51.897,28.751 C51.037,18.724 44.49,10.328 35.494,6.796 C35.402,6.76 35.312,6.723 35.22,6.688 C34.636,6.467 34.042,6.266 33.44,6.086 L33.31,6.042 L33.274,6.039 C32.051,5.683 30.79,5.419 29.5,5.244 L29.5,9.281 C39.973,10.963 48,20.06 48,31 C48,43.131 38.131,53 26,53 C13.869,53 4,43.131 4,31 C4,20.06 12.027,10.963 22.5,9.281 L22.5,5.243 C21.222,5.417 19.971,5.679 18.758,6.03 L18.721,6.033 L18.584,6.079 C17.98,6.259 17.385,6.459 16.801,6.68 L16.533,6.786 C15.278,7.277 14.07,7.862 12.919,8.534 L12.888,8.551 C5.792,12.705 0.844,20.123 0.103,28.748 C0.095,28.839 0.09,28.931 0.083,29.023 C0.033,29.676 0,30.334 0,31 C0,45.359 11.641,57 26,57 C40.359,57 52,45.359 52,31 C52,30.335 51.967,29.677 51.918,29.025" id="Fill-898" sketch:type="MSShapeGroup"></path>
            </g>
        </g>
    </g>
</svg>