<?xml version="1.0" encoding="UTF-8" standalone="no"?>
<svg width="52px" height="52px" viewBox="0 0 52 52" version="1.1" xmlns="http://www.w3.org/2000/svg" xmlns:xlink="http://www.w3.org/1999/xlink" xmlns:sketch="http://www.bohemiancoding.com/sketch/ns">
    <!-- Generator: Sketch 3.2.2 (9983) - http://www.bohemiancoding.com/sketch -->
    <title>224 - Forbidden (Solid)</title>
    <desc>Created with Sketch.</desc>
    <defs></defs>
    <g id="Page-1" stroke="none" stroke-width="1" fill="none" fill-rule="evenodd" sketch:type="MSPage">
        <g id="Icons" sketch:type="MSArtboardGroup" transform="translate(-844.000000, -2161.000000)" fill="#1A1718">
            <g id="224---Forbidden-(Solid)" sketch:type="MSLayerGroup" transform="translate(844.000000, 2161.000000)">
                <path d="M44.385,7.615 C39.475,2.705 32.945,0 26,0 C19.055,0 12.525,2.705 7.615,7.615 C2.705,12.525 0,19.055 0,26 C0,32.945 2.705,39.475 7.615,44.385 C12.525,49.295 19.055,52 26,52 C32.945,52 39.475,49.295 44.385,44.385 C49.295,39.475 52,32.945 52,26 C52,19.055 49.295,12.525 44.385,7.615 L44.385,7.615 Z M9.029,9.029 C13.563,4.496 19.589,2 26,2 C31.739,2 37.167,4.006 41.494,7.678 L7.677,41.494 C4.006,37.167 2,31.74 2,26 C2,19.589 4.496,13.562 9.029,9.029 L9.029,9.029 Z M42.971,42.971 C38.437,47.504 32.411,50 26,50 C20.261,50 14.833,47.994 10.506,44.323 L44.323,10.506 C47.994,14.833 50,20.26 50,26 C50,32.411 47.504,38.437 42.971,42.971 L42.971,42.971 Z" id="Fill-896" sketch:type="MSShapeGroup"></path>
            </g>
        </g>
    </g>
</svg>