<?xml version="1.0" encoding="UTF-8" standalone="no"?>
<svg width="46px" height="60px" viewBox="0 0 46 60" version="1.1" xmlns="http://www.w3.org/2000/svg" xmlns:xlink="http://www.w3.org/1999/xlink" xmlns:sketch="http://www.bohemiancoding.com/sketch/ns">
    <!-- Generator: Sketch 3.2.2 (9983) - http://www.bohemiancoding.com/sketch -->
    <title>23 - Notebook (Solid)</title>
    <desc>Created with Sketch.</desc>
    <defs></defs>
    <g id="Page-1" stroke="none" stroke-width="1" fill="none" fill-rule="evenodd" sketch:type="MSPage">
        <g id="Icons" sketch:type="MSArtboardGroup" transform="translate(-967.000000, -4557.000000)" fill="#000000">
            <g id="23---Notebook-(Solid)" sketch:type="MSLayerGroup" transform="translate(967.000000, 4557.000000)">
                <path d="M17,22 L37,22 L37,12 L17,12 L17,22 Z M20,18 L34,18 L34,20 L20,20 L20,18 Z M20,14 L34,14 L34,16 L20,16 L20,14 Z" id="Fill-1285" sketch:type="MSShapeGroup"></path>
                <path d="M10,0 L0,0 L0,60 L46,60 L46,0 L10,0 L10,0 Z M2,2 L8,2 L8,58 L2,58 L2,2 Z M15,10 L39,10 L39,24 L15,24 L15,10 Z" id="Fill-1286" sketch:type="MSShapeGroup"></path>
            </g>
        </g>
    </g>
</svg>