<?xml version="1.0" encoding="UTF-8" standalone="no"?>
<svg width="52px" height="52px" viewBox="0 0 52 52" version="1.1" xmlns="http://www.w3.org/2000/svg" xmlns:xlink="http://www.w3.org/1999/xlink" xmlns:sketch="http://www.bohemiancoding.com/sketch/ns">
    <!-- Generator: Sketch 3.2.2 (9983) - http://www.bohemiancoding.com/sketch -->
    <title>230 - Volume Up (Solid)</title>
    <desc>Created with Sketch.</desc>
    <defs></defs>
    <g id="Page-1" stroke="none" stroke-width="1" fill="none" fill-rule="evenodd" sketch:type="MSPage">
        <g id="Icons" sketch:type="MSArtboardGroup" transform="translate(-124.000000, -2162.000000)" fill="#1A1718">
            <g id="230---Volume-Up-(Solid)" sketch:type="MSLayerGroup" transform="translate(124.000000, 2162.000000)">
                <path d="M26,0 C11.664,0 0,11.663 0,26 C0,40.337 11.664,52 26,52 C40.336,52 52,40.337 52,26 C52,11.663 40.336,0 26,0 L26,0 Z M38.5,28 L28,28 L28,39 C28,40.104 27.104,41 26,41 C24.896,41 24,40.104 24,39 L24,28 L13.5,28 C12.396,28 11.5,27.104 11.5,26 C11.5,24.896 12.396,24 13.5,24 L24,24 L24,14 C24,12.896 24.896,12 26,12 C27.104,12 28,12.896 28,14 L28,24 L38.5,24 C39.605,24 40.5,24.896 40.5,26 C40.5,27.104 39.605,28 38.5,28 L38.5,28 Z" id="Fill-90" sketch:type="MSShapeGroup"></path>
            </g>
        </g>
    </g>
</svg>