<?xml version="1.0" encoding="UTF-8" standalone="no"?>
<svg width="30px" height="46px" viewBox="0 0 30 46" version="1.1" xmlns="http://www.w3.org/2000/svg" xmlns:xlink="http://www.w3.org/1999/xlink" xmlns:sketch="http://www.bohemiancoding.com/sketch/ns">
    <!-- Generator: Sketch 3.2.2 (9983) - http://www.bohemiancoding.com/sketch -->
    <title>232 - Silent (Solid)</title>
    <desc>Created with Sketch.</desc>
    <defs></defs>
    <g id="Page-1" stroke="none" stroke-width="1" fill="none" fill-rule="evenodd" sketch:type="MSPage">
        <g id="Icons" sketch:type="MSArtboardGroup" transform="translate(-1094.000000, -2045.000000)" fill="#000000">
            <g id="232---Silent-(Solid)" sketch:type="MSLayerGroup" transform="translate(1094.000000, 2045.000000)">
                <path d="M26.894,0 C26.343,0 25.797,0.153 25.314,0.444 L25.185,0.537 L11.634,12 L1,12 C0.447,12 0,12.447 0,13 L0,32 C0,32.553 0.447,33 1,33 L11.61,33 L25.153,45.436 L25.314,45.556 C25.797,45.847 26.343,46 26.894,46 C28.607,46 30,44.584 30,42.844 L30,3.156 C30,1.416 28.607,0 26.894,0 L26.894,0 Z M13,31 C13,31.553 12.553,32 12,32 C11.447,32 11,31.553 11,31 L11,27 C11,26.447 11.447,26 12,26 C12.553,26 13,26.447 13,27 L13,31 L13,31 Z M13,18 C13,18.553 12.553,19 12,19 C11.447,19 11,18.553 11,18 L11,14 C11,13.447 11.447,13 12,13 C12.553,13 13,13.447 13,14 L13,18 L13,18 Z" id="Fill-141" sketch:type="MSShapeGroup"></path>
            </g>
        </g>
    </g>
</svg>