<?xml version="1.0" encoding="UTF-8" standalone="no"?>
<svg width="44px" height="46px" viewBox="0 0 44 46" version="1.1" xmlns="http://www.w3.org/2000/svg" xmlns:xlink="http://www.w3.org/1999/xlink" xmlns:sketch="http://www.bohemiancoding.com/sketch/ns">
    <!-- Generator: Sketch 3.2.2 (9983) - http://www.bohemiancoding.com/sketch -->
    <title>233 - Low Volume (Solid)</title>
    <desc>Created with Sketch.</desc>
    <defs></defs>
    <g id="Page-1" stroke="none" stroke-width="1" fill="none" fill-rule="evenodd" sketch:type="MSPage">
        <g id="Icons" sketch:type="MSArtboardGroup" transform="translate(-960.000000, -2045.000000)" fill="#000000">
            <g id="233---Low-Volume-(Solid)" sketch:type="MSLayerGroup" transform="translate(960.000000, 2045.000000)">
                <path d="M26.894,0 C26.343,0 25.797,0.153 25.315,0.444 L25.185,0.537 L11.634,12 L1,12 C0.447,12 0,12.447 0,13 L0,32 C0,32.553 0.447,33 1,33 L11.61,33 L25.153,45.436 L25.315,45.556 C25.797,45.847 26.343,46 26.894,46 C28.606,46 30,44.584 30,42.844 L30,3.156 C30,1.416 28.606,0 26.894,0 L26.894,0 Z M13,31 C13,31.553 12.553,32 12,32 C11.447,32 11,31.553 11,31 L11,27 C11,26.447 11.447,26 12,26 C12.553,26 13,26.447 13,27 L13,31 L13,31 Z M13,18 C13,18.553 12.553,19 12,19 C11.447,19 11,18.553 11,18 L11,14 C11,13.447 11.447,13 12,13 C12.553,13 13,13.447 13,14 L13,18 L13,18 Z" id="Fill-139" sketch:type="MSShapeGroup"></path>
                <path d="M43.026,22.5 C43.026,16.528 39.018,11.198 33.277,9.538 C32.744,9.387 32.193,9.69 32.039,10.222 C31.886,10.752 32.191,11.307 32.723,11.46 C37.611,12.873 41.026,17.413 41.026,22.5 C41.026,27.587 37.611,32.127 32.723,33.54 C32.191,33.693 31.886,34.248 32.039,34.778 C32.166,35.217 32.565,35.501 33,35.501 C33.092,35.501 33.185,35.488 33.277,35.462 C39.018,33.802 43.026,28.472 43.026,22.5" id="Fill-140" sketch:type="MSShapeGroup"></path>
            </g>
        </g>
    </g>
</svg>