<?xml version="1.0" encoding="UTF-8" standalone="no"?>
<svg width="60px" height="48px" viewBox="0 0 60 48" version="1.1" xmlns="http://www.w3.org/2000/svg" xmlns:xlink="http://www.w3.org/1999/xlink" xmlns:sketch="http://www.bohemiancoding.com/sketch/ns">
    <!-- Generator: Sketch 3.2.2 (9983) - http://www.bohemiancoding.com/sketch -->
    <title>235 - High Volume (Solid)</title>
    <desc>Created with Sketch.</desc>
    <defs></defs>
    <g id="Page-1" stroke="none" stroke-width="1" fill="none" fill-rule="evenodd" sketch:type="MSPage">
        <g id="Icons" sketch:type="MSArtboardGroup" transform="translate(-720.000000, -2044.000000)" fill="#000000">
            <g id="235---High-Volume-(Solid)" sketch:type="MSLayerGroup" transform="translate(720.000000, 2043.000000)">
                <path d="M26.894,2 C26.343,2 25.797,2.153 25.315,2.444 L25.185,2.537 L11.634,14 L1,14 C0.447,14 0,14.447 0,15 L0,34 C0,34.266 0.106,34.52 0.293,34.707 C0.481,34.895 0.734,35 1,35 L11.61,34.995 L25.153,47.436 L25.315,47.556 C25.797,47.847 26.343,48 26.894,48 C28.606,48 30,46.584 30,44.844 L30,5.156 C30,3.416 28.606,2 26.894,2 L26.894,2 Z M13,33 C13,33.553 12.553,34 12,34 C11.447,34 11,33.553 11,33 L11,29 C11,28.447 11.447,28 12,28 C12.553,28 13,28.447 13,29 L13,33 L13,33 Z M13,20 C13,20.553 12.553,21 12,21 C11.447,21 11,20.553 11,20 L11,16 C11,15.447 11.447,15 12,15 C12.553,15 13,15.447 13,16 L13,20 L13,20 Z" id="Fill-875" sketch:type="MSShapeGroup"></path>
                <path d="M52.026,24.5 C52.026,16.153 46.71,8.74 38.797,6.053 C38.274,5.876 37.706,6.155 37.528,6.679 C37.352,7.201 37.631,7.77 38.154,7.947 C45.255,10.358 50.026,17.011 50.026,24.5 C50.026,31.983 45.265,38.636 38.178,41.054 C37.655,41.231 37.376,41.8 37.555,42.323 C37.696,42.738 38.085,43 38.501,43 C38.608,43 38.717,42.983 38.824,42.946 C46.721,40.253 52.026,32.84 52.026,24.5" id="Fill-876" sketch:type="MSShapeGroup"></path>
                <path d="M44.453,1.017 C43.945,0.804 43.358,1.037 43.142,1.547 C42.926,2.056 43.163,2.643 43.672,2.858 C52.376,6.552 58,15.047 58,24.5 C58,34.277 52.106,42.88 42.985,46.414 C42.471,46.614 42.215,47.193 42.414,47.708 C42.567,48.104 42.946,48.347 43.347,48.347 C43.467,48.347 43.589,48.325 43.708,48.279 C53.606,44.443 60,35.109 60,24.5 C60,14.242 53.898,5.024 44.453,1.017" id="Fill-877" sketch:type="MSShapeGroup"></path>
                <path d="M43.026,24.5 C43.026,18.528 39.018,13.198 33.277,11.538 C32.747,11.387 32.193,11.69 32.039,12.222 C31.886,12.752 32.191,13.307 32.723,13.46 C37.611,14.873 41.026,19.413 41.026,24.5 C41.026,29.587 37.611,34.127 32.723,35.54 C32.191,35.693 31.886,36.248 32.039,36.778 C32.166,37.217 32.565,37.501 33,37.501 C33.092,37.501 33.185,37.488 33.277,37.462 C39.018,35.802 43.026,30.472 43.026,24.5" id="Fill-878" sketch:type="MSShapeGroup"></path>
            </g>
        </g>
    </g>
</svg>