<?xml version="1.0" encoding="UTF-8" standalone="no"?>
<svg width="60px" height="60px" viewBox="0 0 60 60" version="1.1" xmlns="http://www.w3.org/2000/svg" xmlns:xlink="http://www.w3.org/1999/xlink" xmlns:sketch="http://www.bohemiancoding.com/sketch/ns">
    <!-- Generator: Sketch 3.2.2 (9983) - http://www.bohemiancoding.com/sketch -->
    <title>236 - Mute (Solid)</title>
    <desc>Created with Sketch.</desc>
    <defs></defs>
    <g id="Page-1" stroke="none" stroke-width="1" fill="none" fill-rule="evenodd" sketch:type="MSPage">
        <g id="Icons" sketch:type="MSArtboardGroup" transform="translate(-600.000000, -2037.000000)" fill="#000000">
            <g id="236---Mute-(Solid)" sketch:type="MSLayerGroup" transform="translate(600.000000, 2037.000000)">
                <path d="M51.707,8.293 C51.316,7.902 50.684,7.902 50.293,8.293 L8.293,50.293 C7.902,50.684 7.902,51.316 8.293,51.707 C8.488,51.902 8.744,52 9,52 C9.256,52 9.512,51.902 9.707,51.707 L51.707,9.707 C52.098,9.316 52.098,8.684 51.707,8.293" id="Fill-872" sketch:type="MSShapeGroup"></path>
                <path d="M52.841,10.561 L42,21.402 L42,48.894 C42,50.606 40.606,52 38.893,52 C38.346,52 37.803,51.851 37.322,51.568 L37.148,51.437 L24.106,39.296 L10.561,52.841 C15.982,57.469 22.795,60 30,60 C38.013,60 45.547,56.879 51.213,51.213 C56.879,45.547 60,38.013 60,30 C60,22.795 57.469,15.982 52.841,10.561" id="Fill-873" sketch:type="MSShapeGroup"></path>
                <path d="M15.104,39 C13.392,39 12,37.607 12,35.896 L12,23.104 C12,21.393 13.392,20 15.104,20 L23.427,20 C23.593,20 23.756,19.963 23.906,19.891 L37.148,7.562 L37.322,7.432 C37.803,7.149 38.346,7 38.893,7 C40.606,7 42,8.394 42,10.106 L42,14.586 L49.433,7.153 C44.013,2.529 37.203,0 30,0 C21.987,0 14.453,3.121 8.787,8.787 C3.121,14.453 0,21.987 0,30 C0,37.202 2.528,44.013 7.153,49.432 L17.586,39 L15.104,39" id="Fill-874" sketch:type="MSShapeGroup"></path>
            </g>
        </g>
    </g>
</svg>