<?xml version="1.0" encoding="UTF-8" standalone="no"?>
<svg width="60px" height="60px" viewBox="0 0 60 60" version="1.1" xmlns="http://www.w3.org/2000/svg" xmlns:xlink="http://www.w3.org/1999/xlink" xmlns:sketch="http://www.bohemiancoding.com/sketch/ns">
    <!-- Generator: Sketch 3.2.2 (9983) - http://www.bohemiancoding.com/sketch -->
    <title>237 - Silent (Solid)</title>
    <desc>Created with Sketch.</desc>
    <defs></defs>
    <g id="Page-1" stroke="none" stroke-width="1" fill="none" fill-rule="evenodd" sketch:type="MSPage">
        <g id="Icons" sketch:type="MSArtboardGroup" transform="translate(-480.000000, -2037.000000)" fill="#000000">
            <g id="237---Silent-(Solid)" sketch:type="MSLayerGroup" transform="translate(480.000000, 2037.000000)">
                <path d="M30,0 C13.458,0 0,13.458 0,30 C0,46.542 13.458,60 30,60 C46.542,60 60,46.542 60,30 C60,13.458 46.542,0 30,0 L30,0 Z M42,48.894 C42,50.606 40.606,52 38.893,52 C38.346,52 37.803,51.851 37.322,51.568 L37.148,51.437 L23.906,39.109 C23.756,39.037 23.593,39 23.427,39 L15.104,39 C13.392,39 12,37.607 12,35.896 L12,23.104 C12,21.393 13.392,20 15.104,20 L23.427,20 C23.593,20 23.756,19.963 23.906,19.891 L37.148,7.562 L37.322,7.432 C37.803,7.149 38.346,7 38.893,7 C40.606,7 42,8.394 42,10.106 L42,48.894 L42,48.894 Z" id="Fill-871" sketch:type="MSShapeGroup"></path>
            </g>
        </g>
    </g>
</svg>