<?xml version="1.0" encoding="UTF-8" standalone="no"?>
<svg width="60px" height="60px" viewBox="0 0 60 60" version="1.1" xmlns="http://www.w3.org/2000/svg" xmlns:xlink="http://www.w3.org/1999/xlink" xmlns:sketch="http://www.bohemiancoding.com/sketch/ns">
    <!-- Generator: Sketch 3.2.2 (9983) - http://www.bohemiancoding.com/sketch -->
    <title>239 - Medium Volume (Solid)</title>
    <desc>Created with Sketch.</desc>
    <defs></defs>
    <g id="Page-1" stroke="none" stroke-width="1" fill="none" fill-rule="evenodd" sketch:type="MSPage">
        <g id="Icons" sketch:type="MSArtboardGroup" transform="translate(-240.000000, -2037.000000)" fill="#000000">
            <g id="239---Medium-Volume-(Solid)" sketch:type="MSLayerGroup" transform="translate(240.000000, 2037.000000)">
                <path d="M30,0 C13.458,0 0,13.458 0,30 C0,46.542 13.458,60 30,60 C46.542,60 60,46.542 60,30 C60,13.458 46.542,0 30,0 L30,0 Z M36,48.894 C36,50.606 34.606,52 32.893,52 C32.346,52 31.803,51.851 31.322,51.568 L31.148,51.437 L17.906,39.109 C17.756,39.037 17.593,39 17.427,39 L9.104,39 C7.392,39 6,37.607 6,35.896 L6,23.104 C6,21.393 7.392,20 9.104,20 L17.427,20 C17.593,20 17.756,19.963 17.906,19.891 L31.148,7.562 L31.322,7.432 C31.803,7.149 32.346,7 32.893,7 C34.606,7 36,8.394 36,10.106 L36,48.894 L36,48.894 Z M39,39 C38.744,39 38.488,38.902 38.293,38.707 C37.902,38.316 37.902,37.684 38.293,37.293 C42.59,32.996 42.59,26.004 38.293,21.707 C37.902,21.316 37.902,20.684 38.293,20.293 C38.684,19.902 39.316,19.902 39.707,20.293 C44.784,25.37 44.784,33.63 39.707,38.707 C39.512,38.902 39.256,39 39,39 L39,39 Z M43.248,42.749 C43.052,42.944 42.796,43.042 42.541,43.042 C42.285,43.042 42.029,42.944 41.833,42.749 C41.443,42.358 41.443,41.726 41.833,41.335 C48.071,35.097 48.071,24.945 41.833,18.707 C41.443,18.316 41.443,17.684 41.833,17.293 C42.224,16.902 42.857,16.902 43.248,17.293 C50.266,24.312 50.266,35.73 43.248,42.749 L43.248,42.749 Z" id="Fill-869" sketch:type="MSShapeGroup"></path>
            </g>
        </g>
    </g>
</svg>