<?xml version="1.0" encoding="UTF-8" standalone="no"?>
<svg width="60px" height="60px" viewBox="0 0 60 60" version="1.1" xmlns="http://www.w3.org/2000/svg" xmlns:xlink="http://www.w3.org/1999/xlink" xmlns:sketch="http://www.bohemiancoding.com/sketch/ns">
    <!-- Generator: Sketch 3.2.2 (9983) - http://www.bohemiancoding.com/sketch -->
    <title>240 - Low Volume (Solid)</title>
    <desc>Created with Sketch.</desc>
    <defs></defs>
    <g id="Page-1" stroke="none" stroke-width="1" fill="none" fill-rule="evenodd" sketch:type="MSPage">
        <g id="Icons" sketch:type="MSArtboardGroup" transform="translate(-120.000000, -2037.000000)" fill="#000000">
            <g id="240---Low-Volume-(Solid)" sketch:type="MSLayerGroup" transform="translate(120.000000, 2037.000000)">
                <path d="M30,0 C13.458,0 0,13.458 0,30 C0,46.542 13.458,60 30,60 C46.542,60 60,46.542 60,30 C60,13.458 46.542,0 30,0 L30,0 Z M38,48.893 C38,49.748 37.663,50.543 37.05,51.13 C36.473,51.683 35.687,52 34.893,52 C34.346,52 33.803,51.851 33.322,51.568 L33.148,51.437 L19.905,39.109 C19.756,39.037 19.593,39 19.427,39 L11.104,39 C9.392,39 8,37.607 8,35.896 L8,23.104 C8,21.393 9.392,20 11.104,20 L19.427,20 C19.593,20 19.756,19.963 19.905,19.891 L33.148,7.562 L33.322,7.432 C33.803,7.149 34.346,7 34.893,7 C36.606,7 38,8.394 38,10.107 L38,48.893 L38,48.893 Z M41.707,38.707 C41.512,38.902 41.256,39 41,39 C40.744,39 40.488,38.902 40.293,38.707 C39.902,38.316 39.902,37.684 40.293,37.293 C44.59,32.996 44.59,26.004 40.293,21.707 C39.902,21.316 39.902,20.684 40.293,20.293 C40.684,19.902 41.316,19.902 41.707,20.293 C46.784,25.37 46.784,33.63 41.707,38.707 L41.707,38.707 Z" id="Fill-868" sketch:type="MSShapeGroup"></path>
            </g>
        </g>
    </g>
</svg>