<?xml version="1.0" encoding="UTF-8" standalone="no"?>
<svg width="60px" height="60px" viewBox="0 0 60 60" version="1.1" xmlns="http://www.w3.org/2000/svg" xmlns:xlink="http://www.w3.org/1999/xlink" xmlns:sketch="http://www.bohemiancoding.com/sketch/ns">
    <!-- Generator: Sketch 3.2.2 (9983) - http://www.bohemiancoding.com/sketch -->
    <title>241 - Repeat (Solid)</title>
    <desc>Created with Sketch.</desc>
    <defs></defs>
    <g id="Page-1" stroke="none" stroke-width="1" fill="none" fill-rule="evenodd" sketch:type="MSPage">
        <g id="Icons" sketch:type="MSArtboardGroup" transform="translate(-1200.000000, -1917.000000)" fill="#000000">
            <g id="241---Repeat-(Solid)" sketch:type="MSLayerGroup" transform="translate(1200.000000, 1917.000000)">
                <path d="M30,0 C13.458,0 0,13.458 0,30 C0,46.542 13.458,60 30,60 C46.542,60 60,46.542 60,30 C60,13.458 46.542,0 30,0 L30,0 Z M12,31 C12,31.553 11.553,32 11,32 C10.447,32 10,31.553 10,31 C10,23.832 15.832,18 23,18 L34.925,18 L26.412,11.809 C25.965,11.484 25.866,10.858 26.191,10.412 C26.515,9.965 27.14,9.866 27.588,10.191 L39.7,19 L27.588,27.809 C27.41,27.937 27.205,28 27.001,28 C26.691,28 26.387,27.857 26.191,27.588 C25.866,27.142 25.965,26.516 26.412,26.191 L34.925,20 L23,20 C16.935,20 12,24.935 12,31 L12,31 Z M36,42 L24.075,42 L32.588,48.191 C33.035,48.516 33.134,49.142 32.809,49.588 C32.613,49.857 32.309,50 31.999,50 C31.795,50 31.59,49.938 31.412,49.809 L19.3,41 L31.412,32.191 C31.859,31.866 32.484,31.965 32.809,32.412 C33.134,32.858 33.035,33.484 32.588,33.809 L24.075,40 L36,40 C42.065,40 47,35.065 47,29 C47,28.447 47.447,28 48,28 C48.553,28 49,28.447 49,29 C49,36.168 43.168,42 36,42 L36,42 Z" id="Fill-867" sketch:type="MSShapeGroup"></path>
            </g>
        </g>
    </g>
</svg>