<?xml version="1.0" encoding="UTF-8" standalone="no"?>
<svg width="60px" height="60px" viewBox="0 0 60 60" version="1.1" xmlns="http://www.w3.org/2000/svg" xmlns:xlink="http://www.w3.org/1999/xlink" xmlns:sketch="http://www.bohemiancoding.com/sketch/ns">
    <!-- Generator: Sketch 3.2.2 (9983) - http://www.bohemiancoding.com/sketch -->
    <title>242 - Shuffle (Solid)</title>
    <desc>Created with Sketch.</desc>
    <defs></defs>
    <g id="Page-1" stroke="none" stroke-width="1" fill="none" fill-rule="evenodd" sketch:type="MSPage">
        <g id="Icons" sketch:type="MSArtboardGroup" transform="translate(-1080.000000, -1917.000000)" fill="#000000">
            <g id="242---Shuffle-(Solid)" sketch:type="MSLayerGroup" transform="translate(1080.000000, 1917.000000)">
                <path d="M30,0 C13.458,0 0,13.458 0,30 C0,46.542 13.458,60 30,60 C46.542,60 60,46.542 60,30 C60,13.458 46.542,0 30,0 L30,0 Z M11,17 L13,17 C16.206,17 19.285,18.175 21.67,20.309 C22.081,20.677 22.116,21.309 21.748,21.721 C21.551,21.941 21.277,22.054 21.003,22.054 C20.766,22.054 20.527,21.97 20.336,21.799 C18.318,19.994 15.713,19 13,19 L11,19 C10.447,19 10,18.553 10,18 C10,17.447 10.447,17 11,17 L11,17 Z M37.588,50.809 C37.41,50.938 37.205,51 37.001,51 C36.691,51 36.387,50.857 36.191,50.588 C35.866,50.142 35.965,49.516 36.412,49.191 L44.925,43 L37,43 C33.828,43 30.773,41.847 28.399,39.752 C27.984,39.387 27.945,38.755 28.311,38.341 C28.678,37.926 29.311,37.887 29.722,38.252 C31.73,40.024 34.315,41 37,41 L44.925,41 L36.412,34.809 C35.965,34.484 35.866,33.858 36.191,33.412 C36.516,32.964 37.14,32.866 37.588,33.191 L49.7,42 L37.588,50.809 L37.588,50.809 Z M37.588,26.809 C37.41,26.937 37.205,27 37.001,27 C36.691,27 36.387,26.857 36.191,26.588 C35.866,26.142 35.965,25.516 36.412,25.191 L44.925,19 L37,19 C30.935,19 26,23.935 26,30 C26,37.168 20.168,43 13,43 L11,43 C10.447,43 10,42.553 10,42 C10,41.447 10.447,41 11,41 L13,41 C19.065,41 24,36.065 24,30 C24,22.832 29.832,17 37,17 L44.925,17 L36.412,10.809 C35.965,10.484 35.866,9.858 36.191,9.412 C36.516,8.964 37.14,8.866 37.588,9.191 L49.7,18 L37.588,26.809 L37.588,26.809 Z" id="Fill-866" sketch:type="MSShapeGroup"></path>
            </g>
        </g>
    </g>
</svg>