<?xml version="1.0" encoding="UTF-8" standalone="no"?>
<svg width="60px" height="60px" viewBox="0 0 60 60" version="1.1" xmlns="http://www.w3.org/2000/svg" xmlns:xlink="http://www.w3.org/1999/xlink" xmlns:sketch="http://www.bohemiancoding.com/sketch/ns">
    <!-- Generator: Sketch 3.2.2 (9983) - http://www.bohemiancoding.com/sketch -->
    <title>243 - Eject (Solid)</title>
    <desc>Created with Sketch.</desc>
    <defs></defs>
    <g id="Page-1" stroke="none" stroke-width="1" fill="none" fill-rule="evenodd" sketch:type="MSPage">
        <g id="Icons" sketch:type="MSArtboardGroup" transform="translate(-960.000000, -1917.000000)" fill="#000000">
            <g id="243---Eject-(Solid)" sketch:type="MSLayerGroup" transform="translate(960.000000, 1917.000000)">
                <path d="M30,0 C13.458,0 0,13.458 0,30 C0,46.542 13.458,60 30,60 C46.542,60 60,46.542 60,30 C60,13.458 46.542,0 30,0 L30,0 Z M14,38 L46,38 L46,45 L14,45 L14,38 Z M45.02,35 L15,35 C14.629,35 14.289,34.795 14.116,34.467 C13.942,34.14 13.965,33.743 14.174,33.437 L29.174,11.437 C29.547,10.89 30.453,10.89 30.826,11.437 L45.731,33.297 C45.909,33.478 46.019,33.726 46.019,34 C46.019,34.553 45.572,35 45.02,35 L45.02,35 Z" id="Fill-865" sketch:type="MSShapeGroup"></path>
            </g>
        </g>
    </g>
</svg>