<?xml version="1.0" encoding="UTF-8" standalone="no"?>
<svg width="60px" height="60px" viewBox="0 0 60 60" version="1.1" xmlns="http://www.w3.org/2000/svg" xmlns:xlink="http://www.w3.org/1999/xlink" xmlns:sketch="http://www.bohemiancoding.com/sketch/ns">
    <!-- Generator: Sketch 3.2.2 (9983) - http://www.bohemiancoding.com/sketch -->
    <title>244 - Fast Backward (Solid)</title>
    <desc>Created with Sketch.</desc>
    <defs></defs>
    <g id="Page-1" stroke="none" stroke-width="1" fill="none" fill-rule="evenodd" sketch:type="MSPage">
        <g id="Icons" sketch:type="MSArtboardGroup" transform="translate(-840.000000, -1917.000000)" fill="#000000">
            <g id="244---Fast-Backward-(Solid)" sketch:type="MSLayerGroup" transform="translate(840.000000, 1917.000000)">
                <path d="M30,60 C46.542,60 60,46.542 60,30 C60,13.458 46.542,0 30,0 C13.458,0 0,13.458 0,30 C0,46.542 13.458,60 30,60 L30,60 Z M4.437,29.174 L26.437,14.174 C26.606,14.059 26.803,14 27,14 C27.16,14 27.32,14.038 27.467,14.116 C27.795,14.289 28,14.629 28,15 L28,28.108 L48.437,14.174 C48.606,14.059 48.803,14 49,14 C49.16,14 49.32,14.038 49.467,14.116 C49.795,14.289 50,14.629 50,15 L50,45 C50,45.371 49.795,45.711 49.467,45.884 C49.14,46.058 48.742,46.034 48.437,45.826 L28,31.892 L28,45 C28,45.371 27.795,45.711 27.467,45.884 C27.14,46.058 26.742,46.034 26.437,45.826 L4.437,30.826 C4.163,30.64 4,30.331 4,30 C4,29.669 4.163,29.36 4.437,29.174 L4.437,29.174 Z" id="Fill-864" sketch:type="MSShapeGroup"></path>
            </g>
        </g>
    </g>
</svg>