<?xml version="1.0" encoding="UTF-8" standalone="no"?>
<svg width="60px" height="60px" viewBox="0 0 60 60" version="1.1" xmlns="http://www.w3.org/2000/svg" xmlns:xlink="http://www.w3.org/1999/xlink" xmlns:sketch="http://www.bohemiancoding.com/sketch/ns">
    <!-- Generator: Sketch 3.2.2 (9983) - http://www.bohemiancoding.com/sketch -->
    <title>248 - Play (Solid)</title>
    <desc>Created with Sketch.</desc>
    <defs></defs>
    <g id="Page-1" stroke="none" stroke-width="1" fill="none" fill-rule="evenodd" sketch:type="MSPage">
        <g id="Icons" sketch:type="MSArtboardGroup" transform="translate(-360.000000, -1917.000000)" fill="#000000">
            <g id="248---Play-(Solid)" sketch:type="MSLayerGroup" transform="translate(360.000000, 1917.000000)">
                <path d="M30,0 C13.458,0 0,13.458 0,30 C0,46.542 13.458,60 30,60 C46.542,60 60,46.542 60,30 C60,13.458 46.542,0 30,0 L30,0 Z M45.564,30.826 L23.564,45.826 C23.394,45.941 23.197,46 23,46 C22.84,46 22.679,45.962 22.533,45.884 C22.205,45.711 22,45.371 22,45 L22,15 C22,14.629 22.205,14.289 22.533,14.116 C22.86,13.942 23.256,13.966 23.564,14.174 L45.564,29.174 C45.836,29.36 46,29.669 46,30 C46,30.331 45.836,30.64 45.564,30.826 L45.564,30.826 Z" id="Fill-861" sketch:type="MSShapeGroup"></path>
            </g>
        </g>
    </g>
</svg>