<?xml version="1.0" encoding="UTF-8" standalone="no"?>
<svg width="60px" height="60px" viewBox="0 0 60 60" version="1.1" xmlns="http://www.w3.org/2000/svg" xmlns:xlink="http://www.w3.org/1999/xlink" xmlns:sketch="http://www.bohemiancoding.com/sketch/ns">
    <!-- Generator: Sketch 3.2.2 (9983) - http://www.bohemiancoding.com/sketch -->
    <title>250 - Forward (Solid)</title>
    <desc>Created with Sketch.</desc>
    <defs></defs>
    <g id="Page-1" stroke="none" stroke-width="1" fill="none" fill-rule="evenodd" sketch:type="MSPage">
        <g id="Icons" sketch:type="MSArtboardGroup" transform="translate(-120.000000, -1917.000000)" fill="#000000">
            <g id="250---Forward-(Solid)" sketch:type="MSLayerGroup" transform="translate(120.000000, 1917.000000)">
                <path d="M30,0 C13.458,0 0,13.458 0,30 C0,46.542 13.458,60 30,60 C46.542,60 60,46.542 60,30 C60,13.458 46.542,0 30,0 L30,0 Z M37.564,30.826 L15.564,45.826 C15.394,45.941 15.197,46 15,46 C14.84,46 14.679,45.962 14.533,45.884 C14.205,45.711 14,45.371 14,45 L14,15 C14,14.629 14.205,14.289 14.533,14.116 C14.86,13.942 15.257,13.966 15.564,14.174 L37.564,29.174 C37.836,29.36 38,29.669 38,30 C38,30.331 37.836,30.64 37.564,30.826 L37.564,30.826 Z M40,14 L47,14 L47,46 L40,46 L40,14 Z" id="Fill-859" sketch:type="MSShapeGroup"></path>
            </g>
        </g>
    </g>
</svg>