<?xml version="1.0" encoding="UTF-8" standalone="no"?>
<svg width="57px" height="40px" viewBox="0 0 57 40" version="1.1" xmlns="http://www.w3.org/2000/svg" xmlns:xlink="http://www.w3.org/1999/xlink" xmlns:sketch="http://www.bohemiancoding.com/sketch/ns">
    <!-- Generator: Sketch 3.2.2 (9983) - http://www.bohemiancoding.com/sketch -->
    <title>254 - Fast Backward (Solid)</title>
    <desc>Created with Sketch.</desc>
    <defs></defs>
    <g id="Page-1" stroke="none" stroke-width="1" fill="none" fill-rule="evenodd" sketch:type="MSPage">
        <g id="Icons" sketch:type="MSArtboardGroup" transform="translate(-843.000000, -1808.000000)" fill="#1A1718">
            <g id="254---Fast-Backward-(Solid)" sketch:type="MSLayerGroup" transform="translate(843.000000, 1807.000000)">
                <path d="M56.461,1.125 C56.128,0.953 55.731,0.98 55.425,1.194 L29,19.777 L29,2 C29,1.627 28.792,1.284 28.461,1.112 C28.128,0.94 27.729,0.967 27.425,1.183 L0.425,20.183 C0.158,20.369 0,20.675 0,21 C0,21.325 0.158,21.631 0.425,21.817 L27.425,40.817 C27.597,40.938 27.798,41 28,41 C28.157,41 28.315,40.963 28.461,40.888 C28.792,40.716 29,40.373 29,40 L29,22.223 L55.425,40.806 C55.597,40.926 55.798,40.987 56,40.987 C56.157,40.987 56.315,40.95 56.461,40.875 C56.792,40.703 57,40.36 57,39.987 L57,2.013 C57,1.64 56.792,1.297 56.461,1.125" id="Fill-106" sketch:type="MSShapeGroup"></path>
            </g>
        </g>
    </g>
</svg>