<?xml version="1.0" encoding="UTF-8" standalone="no"?>
<svg width="57px" height="40px" viewBox="0 0 57 40" version="1.1" xmlns="http://www.w3.org/2000/svg" xmlns:xlink="http://www.w3.org/1999/xlink" xmlns:sketch="http://www.bohemiancoding.com/sketch/ns">
    <!-- Generator: Sketch 3.2.2 (9983) - http://www.bohemiancoding.com/sketch -->
    <title>255 - Fast Forward (Solid)</title>
    <desc>Created with Sketch.</desc>
    <defs></defs>
    <g id="Page-1" stroke="none" stroke-width="1" fill="none" fill-rule="evenodd" sketch:type="MSPage">
        <g id="Icons" sketch:type="MSArtboardGroup" transform="translate(-723.000000, -1808.000000)" fill="#1A1718">
            <g id="255---Fast-Forward-(Solid)" sketch:type="MSLayerGroup" transform="translate(723.000000, 1807.000000)">
                <path d="M56.575,20.183 L29.575,1.183 C29.269,0.967 28.872,0.94 28.539,1.112 C28.208,1.284 28,1.627 28,2 L28,19.777 L1.575,1.194 C1.269,0.98 0.872,0.953 0.539,1.125 C0.208,1.297 0,1.64 0,2.013 L0,39.987 C0,40.36 0.208,40.703 0.539,40.875 C0.685,40.95 0.843,40.987 1,40.987 C1.202,40.987 1.403,40.926 1.575,40.806 L28,22.223 L28,40 C28,40.373 28.208,40.716 28.539,40.888 C28.685,40.963 28.843,41 29,41 C29.202,41 29.404,40.938 29.575,40.817 L56.575,21.817 C56.842,21.631 57,21.325 57,21 C57,20.675 56.842,20.369 56.575,20.183" id="Fill-105" sketch:type="MSShapeGroup"></path>
            </g>
        </g>
    </g>
</svg>