<?xml version="1.0" encoding="UTF-8" standalone="no"?>
<svg width="17px" height="44px" viewBox="0 0 17 44" version="1.1" xmlns="http://www.w3.org/2000/svg" xmlns:xlink="http://www.w3.org/1999/xlink" xmlns:sketch="http://www.bohemiancoding.com/sketch/ns">
    <!-- Generator: Sketch 3.2.2 (9983) - http://www.bohemiancoding.com/sketch -->
    <title>256 - Pause (Solid)</title>
    <desc>Created with Sketch.</desc>
    <defs></defs>
    <g id="Page-1" stroke="none" stroke-width="1" fill="none" fill-rule="evenodd" sketch:type="MSPage">
        <g id="Icons" sketch:type="MSArtboardGroup" transform="translate(-622.000000, -1805.000000)" fill="#000000">
            <g id="256---Pause-(Solid)" sketch:type="MSLayerGroup" transform="translate(622.000000, 1805.000000)">
                <path d="M2,0 C0.897,0 0,0.897 0,2 L0,42 C0,43.103 0.897,44 2,44 C3.103,44 4,43.103 4,42 L4,2 C4,0.897 3.103,0 2,0" id="Fill-102" sketch:type="MSShapeGroup"></path>
                <path d="M15,0 C13.897,0 13,0.897 13,2 L13,42 C13,43.103 13.897,44 15,44 C16.103,44 17,43.103 17,42 L17,2 C17,0.897 16.103,0 15,0" id="Fill-103" sketch:type="MSShapeGroup"></path>
            </g>
        </g>
    </g>
</svg>