<?xml version="1.0" encoding="UTF-8" standalone="no"?>
<svg width="43px" height="60px" viewBox="0 0 43 60" version="1.1" xmlns="http://www.w3.org/2000/svg" xmlns:xlink="http://www.w3.org/1999/xlink" xmlns:sketch="http://www.bohemiancoding.com/sketch/ns">
    <!-- Generator: Sketch 3.2.2 (9983) - http://www.bohemiancoding.com/sketch -->
    <title>26 - Notebook (Solid)</title>
    <desc>Created with Sketch.</desc>
    <defs></defs>
    <g id="Page-1" stroke="none" stroke-width="1" fill="none" fill-rule="evenodd" sketch:type="MSPage">
        <g id="Icons" sketch:type="MSArtboardGroup" transform="translate(-609.000000, -4557.000000)" fill="#000000">
            <g id="26---Notebook-(Solid)" sketch:type="MSLayerGroup" transform="translate(609.000000, 4557.000000)">
                <path d="M43,17 L43,3.996 C43,1.793 41.207,0 39.004,0 L36,0 L36,54 L38,54 L38,53.996 L39.004,53.996 C41.207,53.996 43,52.203 43,50 L43,37.007 L38,37.007 L38,17 L43,17" id="Fill-1148" sketch:type="MSShapeGroup"></path>
                <path d="M29,0 L0,0 L0,17 L29,17 L29,37.007 L0,37.007 L0,53.996 L4,53.996 L4,54 L12,54 L12,53.996 L29,53.996 L29,54 L31,54 L31,0 L29,0" id="Fill-1149" sketch:type="MSShapeGroup"></path>
                <path d="M4,59.864 L8,57.198 L12,59.864 L12,55 L4,55 L4,59.864" id="Fill-1150" sketch:type="MSShapeGroup"></path>
            </g>
        </g>
    </g>
</svg>