<?xml version="1.0" encoding="UTF-8" standalone="no"?>
<svg width="31px" height="42px" viewBox="0 0 31 42" version="1.1" xmlns="http://www.w3.org/2000/svg" xmlns:xlink="http://www.w3.org/1999/xlink" xmlns:sketch="http://www.bohemiancoding.com/sketch/ns">
    <!-- Generator: Sketch 3.2.2 (9983) - http://www.bohemiancoding.com/sketch -->
    <title>260 - Forward (Solid)</title>
    <desc>Created with Sketch.</desc>
    <defs></defs>
    <g id="Page-1" stroke="none" stroke-width="1" fill="none" fill-rule="evenodd" sketch:type="MSPage">
        <g id="Icons" sketch:type="MSArtboardGroup" transform="translate(-134.000000, -1806.000000)" fill="#1A1718">
            <g id="260---Forward-(Solid)" sketch:type="MSLayerGroup" transform="translate(134.000000, 1806.000000)">
                <path d="M30,0 C29.448,0 29,0.447 29,1 L29,19.095 L1.568,0.177 C1.262,-0.034 0.864,-0.057 0.535,0.114 C0.206,0.287 0,0.628 0,1 L0,41 C0,41.372 0.206,41.713 0.535,41.886 C0.681,41.962 0.841,42 1,42 C1.199,42 1.398,41.94 1.568,41.823 L29,22.905 L29,41 C29,41.553 29.448,42 30,42 C30.552,42 31,41.553 31,41 L31,1 C31,0.447 30.552,0 30,0" id="Fill-98" sketch:type="MSShapeGroup"></path>
            </g>
        </g>
    </g>
</svg>