<?xml version="1.0" encoding="UTF-8" standalone="no"?>
<svg width="48px" height="49px" viewBox="0 0 48 49" version="1.1" xmlns="http://www.w3.org/2000/svg" xmlns:xlink="http://www.w3.org/1999/xlink" xmlns:sketch="http://www.bohemiancoding.com/sketch/ns">
    <!-- Generator: Sketch 3.2.2 (9983) - http://www.bohemiancoding.com/sketch -->
    <title>261 - Save (Solid)</title>
    <desc>Created with Sketch.</desc>
    <defs></defs>
    <g id="Page-1" stroke="none" stroke-width="1" fill="none" fill-rule="evenodd" sketch:type="MSPage">
        <g id="Icons" sketch:type="MSArtboardGroup" transform="translate(-1206.000000, -1682.000000)" fill="#1A1718">
            <g id="261---Save-(Solid)" sketch:type="MSLayerGroup" transform="translate(1206.000000, 1682.000000)">
                <path d="M27,5 L33,5 L33,15 L27,15 L27,5 Z" id="Fill-852" sketch:type="MSShapeGroup"></path>
                <path d="M39.414,0 L0,0 L0,49 L48,49 L48,8.586 L39.414,0 L39.414,0 Z M10,2 L36,2 L36,18 L10,18 L10,2 Z M8,26 L39,26 L39,47 L8,47 L8,26 Z" id="Fill-853" sketch:type="MSShapeGroup"></path>
                <path d="M13,32 L20,32 C20.553,32 21,31.553 21,31 C21,30.447 20.553,30 20,30 L13,30 C12.447,30 12,30.447 12,31 C12,31.553 12.447,32 13,32" id="Fill-854" sketch:type="MSShapeGroup"></path>
                <path d="M13,36 L23,36 C23.553,36 24,35.553 24,35 C24,34.447 23.553,34 23,34 L13,34 C12.447,34 12,34.447 12,35 C12,35.553 12.447,36 13,36" id="Fill-855" sketch:type="MSShapeGroup"></path>
                <path d="M26,36 C26.27,36 26.52,35.89 26.71,35.71 C26.89,35.52 27,35.26 27,35 C27,34.74 26.89,34.479 26.71,34.29 C26.34,33.92 25.67,33.92 25.3,34.29 C25.109,34.479 25,34.729 25,35 C25,35.27 25.109,35.52 25.29,35.71 C25.479,35.89 25.729,36 26,36" id="Fill-856" sketch:type="MSShapeGroup"></path>
            </g>
        </g>
    </g>
</svg>