<?xml version="1.0" encoding="UTF-8" standalone="no"?>
<svg width="60px" height="52px" viewBox="0 0 60 52" version="1.1" xmlns="http://www.w3.org/2000/svg" xmlns:xlink="http://www.w3.org/1999/xlink" xmlns:sketch="http://www.bohemiancoding.com/sketch/ns">
    <!-- Generator: Sketch 3.2.2 (9983) - http://www.bohemiancoding.com/sketch -->
    <title>262 - Album (Solid)</title>
    <desc>Created with Sketch.</desc>
    <defs></defs>
    <g id="Page-1" stroke="none" stroke-width="1" fill="none" fill-rule="evenodd" sketch:type="MSPage">
        <g id="Icons" sketch:type="MSArtboardGroup" transform="translate(-1080.000000, -1681.000000)" fill="#000000">
            <g id="262---Album-(Solid)" sketch:type="MSLayerGroup" transform="translate(1080.000000, 1681.000000)">
                <path d="M0,0 L10,0 L10,52 L0,52 L0,0 Z" id="Fill-95" sketch:type="MSShapeGroup"></path>
                <path d="M12,52 L60,52 L60,0 L12,0 L12,52 Z M51,11 L51,31 C51,34.309 48.084,37 44.5,37 C40.916,37 38,34.309 38,31 C38,27.691 40.916,25 44.5,25 C46.246,25 47.831,25.642 49,26.68 L49,17.17 L32,19.854 L32,37.102 L31.992,37.14 C31.911,40.383 29.033,43 25.5,43 C21.916,43 19,40.309 19,37 C19,33.691 21.916,31 25.5,31 C27.246,31 28.831,31.642 30,32.68 L30,13 C30,12.508 30.358,12.089 30.844,12.013 L49.844,9.013 C50.138,8.966 50.427,9.05 50.649,9.24 C50.872,9.43 51,9.708 51,10 L51,11 L51,11 Z" id="Fill-96" sketch:type="MSShapeGroup"></path>
            </g>
        </g>
    </g>
</svg>