<?xml version="1.0" encoding="UTF-8" standalone="no"?>
<svg width="60px" height="60px" viewBox="0 0 60 60" version="1.1" xmlns="http://www.w3.org/2000/svg" xmlns:xlink="http://www.w3.org/1999/xlink" xmlns:sketch="http://www.bohemiancoding.com/sketch/ns">
    <!-- Generator: Sketch 3.2.2 (9983) - http://www.bohemiancoding.com/sketch -->
    <title>263 - CD (Solid)</title>
    <desc>Created with Sketch.</desc>
    <defs></defs>
    <g id="Page-1" stroke="none" stroke-width="1" fill="none" fill-rule="evenodd" sketch:type="MSPage">
        <g id="Icons" sketch:type="MSArtboardGroup" transform="translate(-960.000000, -1677.000000)" fill="#000000">
            <g id="263---CD-(Solid)" sketch:type="MSLayerGroup" transform="translate(960.000000, 1677.000000)">
                <path d="M30,0 C13.458,0 0,13.458 0,30 C0,46.542 13.458,60 30,60 C46.542,60 60,46.542 60,30 C60,13.458 46.542,0 30,0 L30,0 Z M30,44 C22.28,44 16,37.72 16,30 C16,22.28 22.28,16 30,16 C37.72,16 44,22.28 44,30 C44,37.72 37.72,44 30,44 L30,44 Z" id="Fill-850" sketch:type="MSShapeGroup"></path>
                <path d="M30,22 C25.589,22 22,25.589 22,30 C22,34.411 25.589,38 30,38 C34.411,38 38,34.411 38,30 C38,25.589 34.411,22 30,22" id="Fill-851" sketch:type="MSShapeGroup"></path>
            </g>
        </g>
    </g>
</svg>