<?xml version="1.0" encoding="UTF-8" standalone="no"?>
<svg width="60px" height="60px" viewBox="0 0 60 60" version="1.1" xmlns="http://www.w3.org/2000/svg" xmlns:xlink="http://www.w3.org/1999/xlink" xmlns:sketch="http://www.bohemiancoding.com/sketch/ns">
    <!-- Generator: Sketch 3.2.2 (9983) - http://www.bohemiancoding.com/sketch -->
    <title>264 - Album CD (Solid)</title>
    <desc>Created with Sketch.</desc>
    <defs></defs>
    <g id="Page-1" stroke="none" stroke-width="1" fill="none" fill-rule="evenodd" sketch:type="MSPage">
        <g id="Icons" sketch:type="MSArtboardGroup" transform="translate(-840.000000, -1677.000000)" fill="#000000">
            <g id="264---Album-CD-(Solid)" sketch:type="MSLayerGroup" transform="translate(840.000000, 1677.000000)">
                <path d="M30,0 C13.458,0 0,13.458 0,30 C0,46.542 13.458,60 30,60 C46.542,60 60,46.542 60,30 C60,13.458 46.542,0 30,0 L30,0 Z M8.459,23.165 C8.349,23.624 7.938,23.932 7.487,23.932 L7.253,23.904 C6.716,23.774 6.385,23.234 6.514,22.698 C7.46,18.764 9.469,15.176 12.322,12.322 C15.176,9.469 18.764,7.46 22.698,6.514 C23.234,6.387 23.775,6.716 23.904,7.253 C24.033,7.789 23.702,8.329 23.165,8.459 C19.59,9.318 16.329,11.144 13.736,13.736 C11.144,16.329 9.318,19.59 8.459,23.165 L8.459,23.165 Z M12.313,25.226 L12.086,25.199 C11.548,25.074 11.213,24.536 11.339,23.999 C12.059,20.909 13.621,18.095 15.858,15.858 C18.095,13.621 20.909,12.059 23.999,11.339 C24.534,11.208 25.074,11.548 25.199,12.086 C25.325,12.623 24.99,13.161 24.452,13.286 C21.727,13.921 19.245,15.3 17.273,17.272 C15.3,19.245 13.921,21.728 13.286,24.452 C13.179,24.914 12.768,25.226 12.313,25.226 L12.313,25.226 Z M18.115,25.732 C18.013,26.2 17.6,26.519 17.14,26.519 L16.925,26.495 C16.386,26.377 16.044,25.844 16.162,25.305 C17.159,20.748 20.748,17.159 25.305,16.162 C25.842,16.046 26.376,16.384 26.495,16.925 C26.613,17.464 26.271,17.997 25.732,18.115 C21.937,18.946 18.946,21.937 18.115,25.732 L18.115,25.732 Z M21.92,30 C21.92,25.545 25.545,21.92 30,21.92 C34.455,21.92 38.08,25.545 38.08,30 C38.08,34.455 34.455,38.08 30,38.08 C25.545,38.08 21.92,34.455 21.92,30 L21.92,30 Z M34.481,43.861 C34.021,43.861 33.607,43.543 33.505,43.075 C33.387,42.536 33.729,42.003 34.268,41.885 C38.063,41.054 41.054,38.063 41.885,34.268 C42.003,33.727 42.535,33.387 43.075,33.505 C43.614,33.623 43.956,34.156 43.838,34.695 C42.841,39.252 39.252,42.841 34.695,43.838 L34.481,43.861 L34.481,43.861 Z M35.773,48.688 C35.319,48.688 34.908,48.376 34.801,47.914 C34.675,47.377 35.01,46.839 35.548,46.714 C38.273,46.079 40.755,44.7 42.727,42.728 C44.7,40.755 46.079,38.272 46.714,35.548 C46.839,35.01 47.376,34.668 47.914,34.801 C48.452,34.926 48.787,35.464 48.661,36.001 C47.941,39.091 46.379,41.905 44.142,44.142 C41.905,46.379 39.091,47.941 36.001,48.661 L35.773,48.688 L35.773,48.688 Z M47.678,47.678 C44.824,50.531 41.236,52.54 37.301,53.486 L37.066,53.514 C36.615,53.514 36.205,53.206 36.095,52.747 C35.966,52.211 36.297,51.671 36.834,51.541 C40.41,50.682 43.671,48.856 46.264,46.264 C48.856,43.671 50.682,40.41 51.541,36.835 C51.67,36.297 52.209,35.967 52.747,36.096 C53.284,36.226 53.615,36.766 53.486,37.302 C52.54,41.236 50.531,44.824 47.678,47.678 L47.678,47.678 Z" id="Fill-849" sketch:type="MSShapeGroup"></path>
            </g>
        </g>
    </g>
</svg>