<?xml version="1.0" encoding="UTF-8" standalone="no"?>
<svg width="58px" height="58px" viewBox="0 0 58 58" version="1.1" xmlns="http://www.w3.org/2000/svg" xmlns:xlink="http://www.w3.org/1999/xlink" xmlns:sketch="http://www.bohemiancoding.com/sketch/ns">
    <!-- Generator: Sketch 3.2.2 (9983) - http://www.bohemiancoding.com/sketch -->
    <title>265 - CD (Solid)</title>
    <desc>Created with Sketch.</desc>
    <defs></defs>
    <g id="Page-1" stroke="none" stroke-width="1" fill="none" fill-rule="evenodd" sketch:type="MSPage">
        <g id="Icons" sketch:type="MSArtboardGroup" transform="translate(-721.000000, -1678.000000)" fill="#000000">
            <g id="265---CD-(Solid)" sketch:type="MSLayerGroup" transform="translate(721.000000, 1678.000000)">
                <path d="M26.172,26.172 C25.416,26.927 25,27.932 25,29 C25,30.068 25.416,31.073 26.172,31.828 C26.927,32.584 27.932,33 29,33 C30.068,33 31.073,32.584 31.828,31.828 C32.584,31.073 33,30.068 33,29 C33,27.932 32.584,26.927 31.828,26.172 C30.318,24.66 27.682,24.66 26.172,26.172" id="Fill-847" sketch:type="MSShapeGroup"></path>
                <path d="M49.506,8.494 C44.028,3.017 36.746,0 29,0 C21.254,0 13.972,3.017 8.494,8.494 C-2.813,19.801 -2.813,38.199 8.494,49.506 C13.972,54.983 21.254,58 29,58 C36.746,58 44.028,54.983 49.506,49.506 C60.812,38.199 60.812,19.801 49.506,8.494 L49.506,8.494 Z M48.799,48.799 C46.865,50.733 44.715,52.318 42.431,53.568 L34.756,39.53 C33.011,40.487 31.046,41 29,41 C25.795,41 22.781,39.752 20.515,37.485 C16.665,33.635 15.99,27.801 18.477,23.247 L4.432,15.569 C5.682,13.285 7.267,11.135 9.201,9.201 C11.135,7.267 13.285,5.682 15.569,4.432 L23.244,18.47 C24.989,17.513 26.954,17 29,17 C32.205,17 35.219,18.248 37.485,20.515 C41.335,24.365 42.01,30.199 39.523,34.753 L53.568,42.431 C52.318,44.715 50.733,46.865 48.799,48.799 L48.799,48.799 Z" id="Fill-848" sketch:type="MSShapeGroup"></path>
            </g>
        </g>
    </g>
</svg>