<?xml version="1.0" encoding="UTF-8" standalone="no"?>
<svg width="57px" height="49px" viewBox="0 0 57 49" version="1.1" xmlns="http://www.w3.org/2000/svg" xmlns:xlink="http://www.w3.org/1999/xlink" xmlns:sketch="http://www.bohemiancoding.com/sketch/ns">
    <!-- Generator: Sketch 3.2.2 (9983) - http://www.bohemiancoding.com/sketch -->
    <title>267 - Movie Camera (Solid)</title>
    <desc>Created with Sketch.</desc>
    <defs></defs>
    <g id="Page-1" stroke="none" stroke-width="1" fill="none" fill-rule="evenodd" sketch:type="MSPage">
        <g id="Icons" sketch:type="MSArtboardGroup" transform="translate(-482.000000, -1684.000000)" fill="#000000">
            <g id="267---Movie-Camera-(Solid)" sketch:type="MSLayerGroup" transform="translate(482.000000, 1684.000000)">
                <path d="M54.243,2.418 C53.549,2.418 52.883,2.687 52.38,3.166 L41,13.669 L41,4.944 C41,2.218 38.782,0 36.056,0 L4.944,0 C2.218,0 0,2.218 0,4.944 L0,28.209 C0,30.851 2.149,33 4.791,33 L19.565,33 L12.803,47.579 C12.571,48.08 12.789,48.675 13.29,48.907 C13.426,48.971 13.569,49 13.71,49 C14.087,49 14.448,48.785 14.618,48.421 L21.131,34.377 L27.646,48.421 C27.815,48.785 28.176,49 28.553,49 C28.694,49 28.837,48.971 28.974,48.907 C29.475,48.675 29.692,48.08 29.46,47.579 L22.698,33 L35.827,33 C38.679,33 41,30.679 41,27.826 L41,19.824 L52.31,30.632 C52.831,31.157 53.517,31.447 54.242,31.447 C55.763,31.447 57,30.207 57,28.683 L57,5.183 C57,3.658 55.763,2.418 54.243,2.418 L54.243,2.418 Z M6,12.5 C6,8.916 8.916,6 12.5,6 C16.084,6 19,8.916 19,12.5 C19,13.673 18.683,14.772 18.137,15.723 L14.707,12.293 C14.316,11.902 13.684,11.902 13.293,12.293 C12.902,12.684 12.902,13.316 13.293,13.707 L16.877,17.291 C15.721,18.349 14.187,19 12.5,19 C8.916,19 6,16.084 6,12.5 L6,12.5 Z" id="Fill-841" sketch:type="MSShapeGroup"></path>
            </g>
        </g>
    </g>
</svg>