<?xml version="1.0" encoding="UTF-8" standalone="no"?>
<svg width="51px" height="55px" viewBox="0 0 51 55" version="1.1" xmlns="http://www.w3.org/2000/svg" xmlns:xlink="http://www.w3.org/1999/xlink" xmlns:sketch="http://www.bohemiancoding.com/sketch/ns">
    <!-- Generator: Sketch 3.2.2 (9983) - http://www.bohemiancoding.com/sketch -->
    <title>268 - Musical Note (Solid)</title>
    <desc>Created with Sketch.</desc>
    <defs></defs>
    <g id="Page-1" stroke="none" stroke-width="1" fill="none" fill-rule="evenodd" sketch:type="MSPage">
        <g id="Icons" sketch:type="MSArtboardGroup" transform="translate(-362.000000, -1681.000000)" fill="#1A1718">
            <g id="268---Musical-Note-(Solid)" sketch:type="MSLayerGroup" transform="translate(362.000000, 1681.000000)">
                <path d="M50.66,0.249 C50.444,0.06 50.159,-0.026 49.872,0.008 L18.872,4.019 C18.373,4.084 18,4.508 18,5.011 L18,40.623 C16.175,38.429 13.273,37 10,37 C4.486,37 0,41.037 0,46 C0,50.963 4.486,55 10,55 C15.514,55 20,50.963 20,46 C20,45.768 19.98,45.54 19.961,45.312 L20,45.121 L20,16.119 L49,12.366 L49,30.623 C47.175,28.429 44.273,27 41,27 C35.486,27 31,31.037 31,36 C31,40.963 35.486,45 41,45 C46.464,45 50.913,41.034 50.993,36.133 L51,36.096 L51,1 C51,0.713 50.876,0.438 50.66,0.249" id="Fill-89" sketch:type="MSShapeGroup"></path>
            </g>
        </g>
    </g>
</svg>