<?xml version="1.0" encoding="UTF-8" standalone="no"?>
<svg width="43px" height="60px" viewBox="0 0 43 60" version="1.1" xmlns="http://www.w3.org/2000/svg" xmlns:xlink="http://www.w3.org/1999/xlink" xmlns:sketch="http://www.bohemiancoding.com/sketch/ns">
    <!-- Generator: Sketch 3.2.2 (9983) - http://www.bohemiancoding.com/sketch -->
    <title>27 - Notebook (Solid)</title>
    <desc>Created with Sketch.</desc>
    <defs></defs>
    <g id="Page-1" stroke="none" stroke-width="1" fill="none" fill-rule="evenodd" sketch:type="MSPage">
        <g id="Icons" sketch:type="MSArtboardGroup" transform="translate(-488.000000, -4557.000000)" fill="#000000">
            <g id="27---Notebook-(Solid)" sketch:type="MSLayerGroup" transform="translate(488.000000, 4557.000000)">
                <path d="M39.003,0 L0,0 L0,53.996 L4,53.996 L4,59.864 L8,57.198 L12,59.864 L12,53.996 L39.003,53.996 C41.207,53.996 43,52.203 43,50 L43,3.996 C43,1.793 41.207,0 39.003,0 L39.003,0 Z M10,56.128 L8,54.794 L6,56.128 L6,53.996 L10,53.996 L10,56.128 L10,56.128 Z M31,14 L31,51.996 L2,51.996 L2,37.007 L30,37.007 L30,17.007 L2,17.007 L2,2 L31,2 L31,14 L31,14 Z M41,17.007 L37,17.007 L37,37.007 L41,37.007 L41,50 C41,51.1 40.104,51.996 39.003,51.996 L36,51.996 L36,2 L39.003,2 C40.104,2 41,2.896 41,3.996 L41,17.007 L41,17.007 Z" id="Fill-1284" sketch:type="MSShapeGroup"></path>
            </g>
        </g>
    </g>
</svg>