<?xml version="1.0" encoding="UTF-8" standalone="no"?>
<svg width="60px" height="41px" viewBox="0 0 60 41" version="1.1" xmlns="http://www.w3.org/2000/svg" xmlns:xlink="http://www.w3.org/1999/xlink" xmlns:sketch="http://www.bohemiancoding.com/sketch/ns">
    <!-- Generator: Sketch 3.2.2 (9983) - http://www.bohemiancoding.com/sketch -->
    <title>270 - Movie Camera (Solid)</title>
    <desc>Created with Sketch.</desc>
    <defs></defs>
    <g id="Page-1" stroke="none" stroke-width="1" fill="none" fill-rule="evenodd" sketch:type="MSPage">
        <g id="Icons" sketch:type="MSArtboardGroup" transform="translate(-120.000000, -1687.000000)" fill="#000000">
            <g id="270---Movie-Camera-(Solid)" sketch:type="MSLayerGroup" transform="translate(120.000000, 1687.000000)">
                <path d="M40.693,8 L36,8 L36,3 C36,1.346 34.654,0 33,0 L1,0 C0.448,0 0,0.447 0,1 C0,1.553 0.448,2 1,2 L33,2 C33.551,2 34,2.448 34,3 L34,8 L3.307,8 C1.483,8 0,9.483 0,11.307 L0,36.693 C0,38.517 1.483,40 3.307,40 L40.693,40 C42.517,40 44,38.517 44,36.693 L44,11.307 C44,9.483 42.517,8 40.693,8" id="Fill-87" sketch:type="MSShapeGroup"></path>
                <path d="M56.234,7.555 C55.69,7.555 55.158,7.672 54.655,7.904 L46,12.36 L46,35.64 L54.654,40.096 C55.158,40.328 55.69,40.445 56.234,40.445 C58.311,40.445 60,38.755 60,36.676 L60,11.324 C60,9.245 58.311,7.555 56.234,7.555" id="Fill-88" sketch:type="MSShapeGroup"></path>
            </g>
        </g>
    </g>
</svg>