<?xml version="1.0" encoding="UTF-8" standalone="no"?>
<svg width="58px" height="46px" viewBox="0 0 58 46" version="1.1" xmlns="http://www.w3.org/2000/svg" xmlns:xlink="http://www.w3.org/1999/xlink" xmlns:sketch="http://www.bohemiancoding.com/sketch/ns">
    <!-- Generator: Sketch 3.2.2 (9983) - http://www.bohemiancoding.com/sketch -->
    <title>271 - Camera (Solid)</title>
    <desc>Created with Sketch.</desc>
    <defs></defs>
    <g id="Page-1" stroke="none" stroke-width="1" fill="none" fill-rule="evenodd" sketch:type="MSPage">
        <g id="Icons" sketch:type="MSArtboardGroup" transform="translate(-1201.000000, -1563.000000)" fill="#000000">
            <g id="271---Camera-(Solid)" sketch:type="MSLayerGroup" transform="translate(1201.000000, 1563.000000)">
                <path d="M20,2 L39,2 C39.553,2 40,1.553 40,1 C40,0.447 39.553,0 39,0 L20,0 C19.447,0 19,0.447 19,1 C19,1.553 19.447,2 20,2" id="Fill-837" sketch:type="MSShapeGroup"></path>
                <path d="M54.63,4 L3.37,4 C1.512,4 0,5.512 0,7.37 L0,42.63 C0,44.488 1.512,46 3.37,46 L54.63,46 C56.488,46 58,44.488 58,42.63 L58,7.37 C58,5.512 56.488,4 54.63,4 L54.63,4 Z M30,42 C20.626,42 13,34.374 13,25 C13,15.626 20.626,8 30,8 C39.374,8 47,15.626 47,25 C47,34.374 39.374,42 30,42 L30,42 Z" id="Fill-838" sketch:type="MSShapeGroup"></path>
            </g>
        </g>
    </g>
</svg>