<?xml version="1.0" encoding="UTF-8" standalone="no"?>
<svg width="59px" height="59px" viewBox="0 0 59 59" version="1.1" xmlns="http://www.w3.org/2000/svg" xmlns:xlink="http://www.w3.org/1999/xlink" xmlns:sketch="http://www.bohemiancoding.com/sketch/ns">
    <!-- Generator: Sketch 3.2.2 (9983) - http://www.bohemiancoding.com/sketch -->
    <title>273 - Movie (Solid)</title>
    <desc>Created with Sketch.</desc>
    <defs></defs>
    <g id="Page-1" stroke="none" stroke-width="1" fill="none" fill-rule="evenodd" sketch:type="MSPage">
        <g id="Icons" sketch:type="MSArtboardGroup" transform="translate(-961.000000, -1558.000000)" fill="#000000">
            <g id="273---Movie-(Solid)" sketch:type="MSLayerGroup" transform="translate(961.000000, 1558.000000)">
                <path d="M58,57 C53.589,57 50,53.411 50,49 L49.995,48.974 C54.949,43.769 58,36.736 58,29 C58,13.01 44.99,0 29,0 C13.01,0 0,13.01 0,29 C0,44.99 13.01,58 29,58 C36.34,58 43.048,55.253 48.162,50.74 C48.989,55.426 53.081,59 58,59 C58.553,59 59,58.553 59,58 C59,57.447 58.553,57 58,57 L58,57 Z M2,29 C2,14.112 14.112,2 29,2 C43.888,2 56,14.112 56,29 C56,43.888 43.888,56 29,56 C14.112,56 2,43.888 2,29 L2,29 Z" id="Fill-829" sketch:type="MSShapeGroup"></path>
                <path d="M29,4 C15.215,4 4,15.215 4,29 C4,42.785 15.215,54 29,54 C42.785,54 54,42.785 54,29 C54,15.215 42.785,4 29,4 L29,4 Z M29,10 C32.859,10 36,13.141 36,17 C36,20.859 32.859,24 29,24 C25.141,24 22,20.859 22,17 C22,13.141 25.141,10 29,10 L29,10 Z M17,36 C13.141,36 10,32.859 10,29 C10,25.141 13.141,22 17,22 C20.859,22 24,25.141 24,29 C24,32.859 20.859,36 17,36 L17,36 Z M29,48 C25.141,48 22,44.859 22,41 C22,37.141 25.141,34 29,34 C32.859,34 36,37.141 36,41 C36,44.859 32.859,48 29,48 L29,48 Z M41,36 C37.141,36 34,32.859 34,29 C34,25.141 37.141,22 41,22 C44.859,22 48,25.141 48,29 C48,32.859 44.859,36 41,36 L41,36 Z" id="Fill-830" sketch:type="MSShapeGroup"></path>
                <path d="M29,22 C31.795,22 34.137,20.086 34.804,17.499 C33.083,16.546 31.106,16 29,16 C26.894,16 24.917,16.546 23.196,17.499 C23.863,20.086 26.205,22 29,22" id="Fill-831" sketch:type="MSShapeGroup"></path>
                <path d="M29,36 C26.205,36 23.863,37.914 23.196,40.501 C24.917,41.454 26.894,42 29,42 C31.106,42 33.083,41.454 34.804,40.501 C34.137,37.914 31.795,36 29,36" id="Fill-832" sketch:type="MSShapeGroup"></path>
                <path d="M36,29 C36,31.795 37.914,34.137 40.501,34.803 C41.454,33.083 42,31.106 42,29 C42,26.894 41.454,24.917 40.501,23.197 C37.914,23.863 36,26.205 36,29" id="Fill-833" sketch:type="MSShapeGroup"></path>
                <path d="M17.499,23.197 C16.546,24.917 16,26.894 16,29 C16,31.106 16.546,33.083 17.499,34.803 C20.086,34.137 22,31.795 22,29 C22,26.205 20.086,23.863 17.499,23.197" id="Fill-834" sketch:type="MSShapeGroup"></path>
            </g>
        </g>
    </g>
</svg>