<?xml version="1.0" encoding="UTF-8" standalone="no"?>
<svg width="54px" height="55px" viewBox="0 0 54 55" version="1.1" xmlns="http://www.w3.org/2000/svg" xmlns:xlink="http://www.w3.org/1999/xlink" xmlns:sketch="http://www.bohemiancoding.com/sketch/ns">
    <!-- Generator: Sketch 3.2.2 (9983) - http://www.bohemiancoding.com/sketch -->
    <title>275 - Video Clip (Solid)</title>
    <desc>Created with Sketch.</desc>
    <defs></defs>
    <g id="Page-1" stroke="none" stroke-width="1" fill="none" fill-rule="evenodd" sketch:type="MSPage">
        <g id="Icons" sketch:type="MSArtboardGroup" transform="translate(-723.000000, -1560.000000)" fill="#000000">
            <g id="275---Video-Clip-(Solid)" sketch:type="MSLayerGroup" transform="translate(723.000000, 1560.000000)">
                <path d="M0,55 L54,55 L54,37 L0,37 L0,55 Z M17,44 L21,44 L21,42 C21,41.447 21.447,41 22,41 C22.553,41 23,41.447 23,42 L23,44 L47,44 C47.553,44 48,44.447 48,45 C48,45.553 47.553,46 47,46 L23,46 L23,48 C23,48.553 22.553,49 22,49 C21.447,49 21,48.553 21,48 L21,46 L17,46 C16.447,46 16,45.553 16,45 C16,44.447 16.447,44 17,44 L17,44 Z M10,42 C10,41.447 10.447,41 11,41 C11.553,41 12,41.447 12,42 L12,48 C12,48.553 11.553,49 11,49 C10.447,49 10,48.553 10,48 L10,42 L10,42 Z M6,42 C6,41.447 6.447,41 7,41 C7.553,41 8,41.447 8,42 L8,48 C8,48.553 7.553,49 7,49 C6.447,49 6,48.553 6,48 L6,42 L6,42 Z" id="Fill-825" sketch:type="MSShapeGroup"></path>
                <path d="M0,35 L54,35 L54,0 L0,0 L0,35 Z M33.537,18.844 L22.537,25.844 C22.373,25.947 22.187,26 22,26 C21.835,26 21.669,25.959 21.519,25.877 C21.199,25.701 21,25.365 21,25 L21,11 C21,10.635 21.199,10.299 21.519,10.123 C21.84,9.948 22.227,9.961 22.537,10.156 L33.537,17.156 C33.825,17.34 34,17.658 34,18 C34,18.342 33.825,18.66 33.537,18.844 L33.537,18.844 Z" id="Fill-826" sketch:type="MSShapeGroup"></path>
            </g>
        </g>
    </g>
</svg>