<?xml version="1.0" encoding="UTF-8" standalone="no"?>
<svg width="55px" height="57px" viewBox="0 0 55 57" version="1.1" xmlns="http://www.w3.org/2000/svg" xmlns:xlink="http://www.w3.org/1999/xlink" xmlns:sketch="http://www.bohemiancoding.com/sketch/ns">
    <!-- Generator: Sketch 3.2.2 (9983) - http://www.bohemiancoding.com/sketch -->
    <title>277 - Frame Picture (Solid)</title>
    <desc>Created with Sketch.</desc>
    <defs></defs>
    <g id="Page-1" stroke="none" stroke-width="1" fill="none" fill-rule="evenodd" sketch:type="MSPage">
        <g id="Icons" sketch:type="MSArtboardGroup" transform="translate(-483.000000, -1558.000000)" fill="#000000">
            <g id="277---Frame-Picture-(Solid)" sketch:type="MSLayerGroup" transform="translate(483.000000, 1558.000000)">
                <path d="M48.38,15 C46.59,13.414 37.067,5.042 31.632,1.585 C30.72,0.615 29.434,0 28,0 C26.566,0 25.28,0.615 24.368,1.585 C18.933,5.042 9.41,13.414 7.62,15 L0,15 L0,57 L55,57 L55,15 L48.38,15 L48.38,15 Z M30.221,3.002 L30.232,3.02 C30.477,3.294 30.747,3.709 30.892,4.245 L30.931,4.369 C30.974,4.564 31,4.774 31,5 C31,6.654 29.654,8 28,8 C26.346,8 25,6.654 25,5 C25,4.774 25.026,4.564 25.069,4.369 L25.108,4.244 C25.254,3.709 25.524,3.294 25.768,3.02 L25.779,3.002 C26.328,2.391 27.116,2 28,2 C28.884,2 29.672,2.391 30.221,3.002 L30.221,3.002 Z M23,4.95 L23,5 C23,7.757 25.243,10 28,10 C30.757,10 33,7.757 33,5 L33,4.95 C37.169,7.983 42.504,12.531 45.345,15 L10.655,15 C13.496,12.531 18.831,7.983 23,4.95 L23,4.95 Z M4,19 L51,19 L51,53 L4,53 L4,19 Z" id="Fill-822" sketch:type="MSShapeGroup"></path>
                <path d="M28.882,42.468 L33.69,47.275 C34.081,47.666 34.081,48.299 33.69,48.689 C33.299,49.08 32.667,49.08 32.276,48.689 L21.974,38.389 L7.649,51 L49,51 L49,42.44 L38.063,32.414 L28.882,42.468" id="Fill-823" sketch:type="MSShapeGroup"></path>
                <path d="M22.724,36.311 L27.467,41.053 L37.262,30.326 C37.44,30.13 37.69,30.013 37.956,30.001 C38.218,29.982 38.48,30.084 38.676,30.263 L49,39.727 L49,21 L6,21 L6,49.787 L21.356,36.267 C21.752,35.92 22.351,35.937 22.724,36.311 L22.724,36.311 Z M14,35.138 C10.929,35.138 8.431,32.64 8.431,29.569 C8.431,26.498 10.929,24 14,24 C17.071,24 19.569,26.498 19.569,29.569 C19.569,32.64 17.071,35.138 14,35.138 L14,35.138 Z" id="Fill-824" sketch:type="MSShapeGroup"></path>
            </g>
        </g>
    </g>
</svg>