<?xml version="1.0" encoding="UTF-8" standalone="no"?>
<svg width="58px" height="46px" viewBox="0 0 58 46" version="1.1" xmlns="http://www.w3.org/2000/svg" xmlns:xlink="http://www.w3.org/1999/xlink" xmlns:sketch="http://www.bohemiancoding.com/sketch/ns">
    <!-- Generator: Sketch 3.2.2 (9983) - http://www.bohemiancoding.com/sketch -->
    <title>278 - Picture (Solid)</title>
    <desc>Created with Sketch.</desc>
    <defs></defs>
    <g id="Page-1" stroke="none" stroke-width="1" fill="none" fill-rule="evenodd" sketch:type="MSPage">
        <g id="Icons" sketch:type="MSArtboardGroup" transform="translate(-361.000000, -1565.000000)" fill="#161819">
            <g id="278---Picture-(Solid)" sketch:type="MSLayerGroup" transform="translate(361.000000, 1565.000000)">
                <path d="M57,0 L1,0 C0.448,0 0,0.447 0,1 L0,45 C0,45.553 0.448,46 1,46 L57,46 C57.552,46 58,45.553 58,45 L58,1 C58,0.447 57.552,0 57,0 L57,0 Z M16,11 C19.071,11 21.569,13.498 21.569,16.569 C21.569,19.64 19.071,22.138 16,22.138 C12.929,22.138 10.431,19.64 10.431,16.569 C10.431,13.498 12.929,11 16,11 L16,11 Z M52.737,29.676 C52.364,30.082 51.731,30.11 51.324,29.737 L40.063,19.414 L30.882,29.468 L35.69,34.275 C36.081,34.666 36.081,35.299 35.69,35.689 C35.299,36.08 34.667,36.08 34.276,35.689 L23.974,25.389 L7.661,39.751 C7.471,39.918 7.235,40 7.001,40 C6.723,40 6.447,39.886 6.25,39.661 C5.884,39.246 5.925,38.614 6.339,38.249 L23.356,23.267 C23.752,22.919 24.351,22.938 24.724,23.311 L29.467,28.053 L39.262,17.326 C39.44,17.13 39.69,17.013 39.956,17.001 C40.219,16.995 40.48,17.084 40.676,17.263 L52.676,28.263 C53.083,28.636 53.11,29.269 52.737,29.676 L52.737,29.676 Z" id="Fill-821" sketch:type="MSShapeGroup"></path>
            </g>
        </g>
    </g>
</svg>