<?xml version="1.0" encoding="UTF-8" standalone="no"?>
<svg width="58px" height="46px" viewBox="0 0 58 46" version="1.1" xmlns="http://www.w3.org/2000/svg" xmlns:xlink="http://www.w3.org/1999/xlink" xmlns:sketch="http://www.bohemiancoding.com/sketch/ns">
    <!-- Generator: Sketch 3.2.2 (9983) - http://www.bohemiancoding.com/sketch -->
    <title>279 - Videos (Solid)</title>
    <desc>Created with Sketch.</desc>
    <defs></defs>
    <g id="Page-1" stroke="none" stroke-width="1" fill="none" fill-rule="evenodd" sketch:type="MSPage">
        <g id="Icons" sketch:type="MSArtboardGroup" transform="translate(-241.000000, -1565.000000)" fill="#000000">
            <g id="279---Videos-(Solid)" sketch:type="MSLayerGroup" transform="translate(241.000000, 1565.000000)">
                <path d="M57,0 L1,0 C0.448,0 0,0.447 0,1 L0,45 C0,45.553 0.448,46 1,46 L57,46 C57.552,46 58,45.553 58,45 L58,1 C58,0.447 57.552,0 57,0 L57,0 Z M2,2 L10,2 L10,11 L2,11 L2,2 Z M2,35 L10,35 L10,44 L2,44 L2,35 Z M48,35 L56,35 L56,44 L48,44 L48,35 Z M56,22 L48,22 L48,24 L56,24 L56,33 L48,33 L48,24 L10,24 L10,33 L2,33 L2,24 L10,24 L10,22 L2,22 L2,13 L10,13 L10,22 L48,22 L48,13 L56,13 L56,22 L56,22 Z M48,2 L56,2 L56,11 L48,11 L48,2 Z" id="Fill-820" sketch:type="MSShapeGroup"></path>
            </g>
        </g>
    </g>
</svg>