<?xml version="1.0" encoding="UTF-8" standalone="no"?>
<svg width="54px" height="58px" viewBox="0 0 54 58" version="1.1" xmlns="http://www.w3.org/2000/svg" xmlns:xlink="http://www.w3.org/1999/xlink" xmlns:sketch="http://www.bohemiancoding.com/sketch/ns">
    <!-- Generator: Sketch 3.2.2 (9983) - http://www.bohemiancoding.com/sketch -->
    <title>28 - Notebook (Solid)</title>
    <desc>Created with Sketch.</desc>
    <defs></defs>
    <g id="Page-1" stroke="none" stroke-width="1" fill="none" fill-rule="evenodd" sketch:type="MSPage">
        <g id="Icons" sketch:type="MSArtboardGroup" transform="translate(-361.000000, -4558.000000)" fill="#000000">
            <g id="28---Notebook-(Solid)" sketch:type="MSLayerGroup" transform="translate(361.000000, 4558.000000)">
                <path d="M50.003,0.004 L17,0.004 L17,0 L4,0 L4,7.101 C4.323,7.035 4.658,7 5,7 C7.757,7 10,9.243 10,12 C10,12.553 9.552,13 9,13 C8.448,13 8,12.553 8,12 C8,10.346 6.654,9 5,9 C4.648,9 4.314,9.072 4,9.184 L4,13.101 C4.323,13.035 4.658,13 5,13 C7.757,13 10,15.243 10,18 C10,18.553 9.552,19 9,19 C8.448,19 8,18.553 8,18 C8,16.346 6.654,15 5,15 C4.648,15 4.314,15.072 4,15.184 L4,19.101 C4.323,19.035 4.658,19 5,19 C7.757,19 10,21.243 10,24 C10,24.553 9.552,25 9,25 C8.448,25 8,24.553 8,24 C8,22.346 6.654,21 5,21 C4.648,21 4.314,21.072 4,21.184 L4,25.101 C4.323,25.035 4.658,25 5,25 C7.757,25 10,27.243 10,30 C10,30.553 9.552,31 9,31 C8.448,31 8,30.553 8,30 C8,28.346 6.654,27 5,27 C4.648,27 4.314,27.072 4,27.184 L4,31.101 C4.323,31.035 4.658,31 5,31 C7.757,31 10,33.243 10,36 C10,36.553 9.552,37 9,37 C8.448,37 8,36.553 8,36 C8,34.346 6.654,33 5,33 C4.648,33 4.314,33.072 4,33.184 L4,37.101 C4.323,37.035 4.658,37 5,37 C7.757,37 10,39.243 10,42 C10,42.553 9.552,43 9,43 C8.448,43 8,42.553 8,42 C8,40.346 6.654,39 5,39 C4.648,39 4.314,39.072 4,39.184 L4,43.101 C4.323,43.035 4.658,43 5,43 C7.757,43 10,45.243 10,48 C10,48.553 9.552,49 9,49 C8.448,49 8,48.553 8,48 C8,46.346 6.654,45 5,45 C4.648,45 4.314,45.072 4,45.184 L4,50.815 C2.839,50.401 2,49.302 2,48 C2,46.698 2.839,45.599 4,45.184 L4,43.101 C1.721,43.566 0,45.585 0,48 C0,50.415 1.721,52.434 4,52.899 L4,58 L50.003,58 C52.207,58 54,56.207 54,54.004 L54,4 C54,1.797 52.207,0.004 50.003,0.004 L50.003,0.004 Z M17,2.004 L43,2.004 L43,56 L17,56 L17,2.004 Z M52,54.004 C52,55.104 51.104,56 50.003,56 L46,56 L46,2.004 L50.003,2.004 C51.104,2.004 52,2.899 52,4 L52,54.004 L52,54.004 Z" id="Fill-1277" sketch:type="MSShapeGroup"></path>
                <path d="M0,12 C0,12.553 0.448,13 1,13 C1.552,13 2,12.553 2,12 C2,10.698 2.839,9.599 4,9.184 L4,7.101 C1.721,7.566 0,9.585 0,12" id="Fill-1278" sketch:type="MSShapeGroup"></path>
                <path d="M0,18 C0,18.553 0.448,19 1,19 C1.552,19 2,18.553 2,18 C2,16.698 2.839,15.599 4,15.184 L4,13.101 C1.721,13.566 0,15.585 0,18" id="Fill-1279" sketch:type="MSShapeGroup"></path>
                <path d="M0,24 C0,24.553 0.448,25 1,25 C1.552,25 2,24.553 2,24 C2,22.698 2.839,21.599 4,21.184 L4,19.101 C1.721,19.566 0,21.585 0,24" id="Fill-1280" sketch:type="MSShapeGroup"></path>
                <path d="M0,30 C0,30.553 0.448,31 1,31 C1.552,31 2,30.553 2,30 C2,28.698 2.839,27.599 4,27.184 L4,25.101 C1.721,25.566 0,27.585 0,30" id="Fill-1281" sketch:type="MSShapeGroup"></path>
                <path d="M0,36 C0,36.553 0.448,37 1,37 C1.552,37 2,36.553 2,36 C2,34.698 2.839,33.599 4,33.184 L4,31.101 C1.721,31.566 0,33.585 0,36" id="Fill-1282" sketch:type="MSShapeGroup"></path>
                <path d="M0,42 C0,42.553 0.448,43 1,43 C1.552,43 2,42.553 2,42 C2,40.698 2.839,39.599 4,39.184 L4,37.101 C1.721,37.566 0,39.585 0,42" id="Fill-1283" sketch:type="MSShapeGroup"></path>
            </g>
        </g>
    </g>
</svg>