<?xml version="1.0" encoding="UTF-8" standalone="no"?>
<svg width="58px" height="46px" viewBox="0 0 58 46" version="1.1" xmlns="http://www.w3.org/2000/svg" xmlns:xlink="http://www.w3.org/1999/xlink" xmlns:sketch="http://www.bohemiancoding.com/sketch/ns">
    <!-- Generator: Sketch 3.2.2 (9983) - http://www.bohemiancoding.com/sketch -->
    <title>280 - Video (Solid)</title>
    <desc>Created with Sketch.</desc>
    <defs></defs>
    <g id="Page-1" stroke="none" stroke-width="1" fill="none" fill-rule="evenodd" sketch:type="MSPage">
        <g id="Icons" sketch:type="MSArtboardGroup" transform="translate(-121.000000, -1565.000000)" fill="#000000">
            <g id="280---Video-(Solid)" sketch:type="MSLayerGroup" transform="translate(121.000000, 1565.000000)">
                <path d="M57,0 L1,0 C0.448,0 0,0.447 0,1 L0,45 C0,45.553 0.448,46 1,46 L57,46 C57.552,46 58,45.553 58,45 L58,1 C58,0.447 57.552,0 57,0 L57,0 Z M2,35 L10,35 L10,44 L2,44 L2,35 Z M2,24 L10,24 L10,33 L2,33 L2,24 Z M2,13 L10,13 L10,22 L2,22 L2,13 Z M2,2 L10,2 L10,11 L2,11 L2,2 Z M36.537,23.844 L25.537,30.844 C25.374,30.947 25.187,31 25,31 C24.835,31 24.669,30.959 24.519,30.877 C24.199,30.701 24,30.365 24,30 L24,16 C24,15.635 24.199,15.299 24.519,15.123 C24.839,14.948 25.229,14.961 25.537,15.156 L36.537,22.156 C36.825,22.34 37,22.658 37,23 C37,23.342 36.825,23.66 36.537,23.844 L36.537,23.844 Z M48,35 L56,35 L56,44 L48,44 L48,35 Z M48,24 L56,24 L56,33 L48,33 L48,24 Z M48,13 L56,13 L56,22 L48,22 L48,13 Z M48,2 L56,2 L56,11 L48,11 L48,2 Z" id="Fill-819" sketch:type="MSShapeGroup"></path>
            </g>
        </g>
    </g>
</svg>