<?xml version="1.0" encoding="UTF-8" standalone="no"?>
<svg width="40px" height="58px" viewBox="0 0 40 58" version="1.1" xmlns="http://www.w3.org/2000/svg" xmlns:xlink="http://www.w3.org/1999/xlink" xmlns:sketch="http://www.bohemiancoding.com/sketch/ns">
    <!-- Generator: Sketch 3.2.2 (9983) - http://www.bohemiancoding.com/sketch -->
    <title>282 - Locked (Solid)</title>
    <desc>Created with Sketch.</desc>
    <defs></defs>
    <g id="Page-1" stroke="none" stroke-width="1" fill="none" fill-rule="evenodd" sketch:type="MSPage">
        <g id="Icons" sketch:type="MSArtboardGroup" transform="translate(-1091.000000, -1438.000000)" fill="#1A1718">
            <g id="282---Locked-(Solid)" sketch:type="MSLayerGroup" transform="translate(1091.000000, 1438.000000)">
                <path d="M31,21.314 L31,10.22 C31,4.585 26.065,0 20,0 C13.935,0 9,4.585 9,10.22 L9,21.314 C3.584,24.896 0,31.034 0,38 C0,49.028 8.972,58 20,58 C31.028,58 40,49.028 40,38 C40,31.034 36.416,24.896 31,21.314 L31,21.314 Z M31.314,28.101 L28.485,30.929 C28.29,31.124 28.034,31.222 27.778,31.222 C27.523,31.222 27.267,31.124 27.071,30.929 C26.681,30.538 26.681,29.905 27.071,29.515 L29.899,26.687 C30.29,26.296 30.923,26.296 31.314,26.687 C31.704,27.077 31.704,27.71 31.314,28.101 L31.314,28.101 Z M19,23 C19,22.447 19.447,22 20,22 C20.553,22 21,22.447 21,23 L21,27 C21,27.553 20.553,28 20,28 C19.447,28 19,27.553 19,27 L19,23 L19,23 Z M11,20.157 L11,10.22 C11,5.688 15.037,2 20,2 C24.963,2 29,5.688 29,10.22 L29,20.157 C28.812,20.062 28.62,19.978 28.43,19.889 C28.037,19.705 27.639,19.532 27.232,19.374 C26.971,19.272 26.709,19.176 26.444,19.085 C26.185,18.997 25.926,18.907 25.662,18.829 C25.225,18.698 24.783,18.587 24.338,18.488 C24.145,18.445 23.951,18.403 23.756,18.366 C23.233,18.265 22.707,18.183 22.177,18.124 C22.057,18.111 21.936,18.103 21.816,18.092 C21.213,18.037 20.608,18 20,18 C19.392,18 18.787,18.037 18.184,18.092 C18.064,18.103 17.943,18.111 17.823,18.124 C17.293,18.183 16.767,18.265 16.244,18.366 C16.049,18.403 15.855,18.445 15.662,18.488 C15.217,18.587 14.775,18.698 14.338,18.829 C14.074,18.907 13.815,18.997 13.556,19.085 C13.291,19.176 13.029,19.272 12.768,19.374 C12.362,19.532 11.963,19.705 11.57,19.889 C11.38,19.978 11.188,20.062 11,20.157 L11,20.157 Z M8.687,26.687 C9.077,26.296 9.71,26.296 10.101,26.687 L12.929,29.515 C13.319,29.905 13.319,30.538 12.929,30.929 C12.733,31.124 12.478,31.222 12.222,31.222 C11.966,31.222 11.71,31.124 11.515,30.929 L8.687,28.101 C8.296,27.71 8.296,27.077 8.687,26.687 L8.687,26.687 Z M5,39 C4.447,39 4,38.553 4,38 C4,37.447 4.447,37 5,37 L9,37 C9.553,37 10,37.447 10,38 C10,38.553 9.553,39 9,39 L5,39 L5,39 Z M12.929,46.485 L10.101,49.313 C9.905,49.509 9.649,49.606 9.394,49.606 C9.138,49.606 8.882,49.509 8.687,49.313 C8.296,48.923 8.296,48.29 8.687,47.899 L11.515,45.071 C11.905,44.681 12.538,44.681 12.929,45.071 C13.319,45.462 13.319,46.095 12.929,46.485 L12.929,46.485 Z M21,53 C21,53.553 20.553,54 20,54 C19.447,54 19,53.553 19,53 L19,49 C19,48.447 19.447,48 20,48 C20.553,48 21,48.447 21,49 L21,53 L21,53 Z M20,47 C15.037,47 11,42.963 11,38 C11,33.037 15.037,29 20,29 C24.963,29 29,33.037 29,38 C29,42.963 24.963,47 20,47 L20,47 Z M31.314,49.313 C31.118,49.509 30.862,49.606 30.606,49.606 C30.351,49.606 30.095,49.509 29.899,49.313 L27.071,46.485 C26.681,46.095 26.681,45.462 27.071,45.071 C27.462,44.681 28.095,44.681 28.485,45.071 L31.314,47.899 C31.704,48.29 31.704,48.923 31.314,49.313 L31.314,49.313 Z M35,39 L31,39 C30.447,39 30,38.553 30,38 C30,37.447 30.447,37 31,37 L35,37 C35.553,37 36,37.447 36,38 C36,38.553 35.553,39 35,39 L35,39 Z" id="Fill-817" sketch:type="MSShapeGroup"></path>
            </g>
        </g>
    </g>
</svg>