<?xml version="1.0" encoding="UTF-8" standalone="no"?>
<svg width="40px" height="58px" viewBox="0 0 40 58" version="1.1" xmlns="http://www.w3.org/2000/svg" xmlns:xlink="http://www.w3.org/1999/xlink" xmlns:sketch="http://www.bohemiancoding.com/sketch/ns">
    <!-- Generator: Sketch 3.2.2 (9983) - http://www.bohemiancoding.com/sketch -->
    <title>283 - Unlocked (Solid)</title>
    <desc>Created with Sketch.</desc>
    <defs></defs>
    <g id="Page-1" stroke="none" stroke-width="1" fill="none" fill-rule="evenodd" sketch:type="MSPage">
        <g id="Icons" sketch:type="MSArtboardGroup" transform="translate(-970.000000, -1438.000000)" fill="#1A1718">
            <g id="283---Unlocked-(Solid)" sketch:type="MSLayerGroup" transform="translate(970.000000, 1438.000000)">
                <path d="M31,21.314 L31,10.22 C31,4.585 26.065,0 20,0 C13.935,0 9,4.585 9,10.22 C9,10.772 9.447,11.22 10,11.22 C10.553,11.22 11,10.772 11,10.22 C11,5.688 15.037,2 20,2 C24.963,2 29,5.688 29,10.22 L29,20.157 L29.001,20.165 C26.292,18.792 23.24,18 20,18 C8.972,18 0,26.972 0,38 C0,49.028 8.972,58 20,58 C31.028,58 40,49.028 40,38 C40,31.034 36.416,24.896 31,21.314 L31,21.314 Z M24,40 C24,42.206 22.206,44 20,44 C17.794,44 16,42.206 16,40 L16,34 C16,31.794 17.794,30 20,30 C22.206,30 24,31.794 24,34 L24,40 L24,40 Z" id="Fill-816" sketch:type="MSShapeGroup"></path>
            </g>
        </g>
    </g>
</svg>