<?xml version="1.0" encoding="UTF-8" standalone="no"?>
<svg width="40px" height="58px" viewBox="0 0 40 58" version="1.1" xmlns="http://www.w3.org/2000/svg" xmlns:xlink="http://www.w3.org/1999/xlink" xmlns:sketch="http://www.bohemiancoding.com/sketch/ns">
    <!-- Generator: Sketch 3.2.2 (9983) - http://www.bohemiancoding.com/sketch -->
    <title>284 - Locked (Solid)</title>
    <desc>Created with Sketch.</desc>
    <defs></defs>
    <g id="Page-1" stroke="none" stroke-width="1" fill="none" fill-rule="evenodd" sketch:type="MSPage">
        <g id="Icons" sketch:type="MSArtboardGroup" transform="translate(-851.000000, -1438.000000)" fill="#1A1718">
            <g id="284---Locked-(Solid)" sketch:type="MSLayerGroup" transform="translate(851.000000, 1438.000000)">
                <path d="M31,21.314 L31,10.22 C31,4.585 26.065,0 20,0 C13.935,0 9,4.585 9,10.22 L9,21.314 C3.584,24.896 0,31.034 0,38 C0,49.028 8.972,58 20,58 C31.028,58 40,49.028 40,38 C40,31.034 36.416,24.896 31,21.314 L31,21.314 Z M11,20.157 L11,10.22 C11,5.688 15.037,2 20,2 C24.963,2 29,5.688 29,10.22 L29,20.157 C28.812,20.062 28.62,19.978 28.43,19.889 C28.037,19.705 27.639,19.532 27.232,19.374 C26.971,19.272 26.709,19.176 26.444,19.085 C26.185,18.997 25.926,18.907 25.662,18.829 C25.225,18.698 24.783,18.587 24.338,18.488 C24.144,18.445 23.951,18.403 23.756,18.366 C23.233,18.265 22.707,18.183 22.177,18.124 C22.057,18.111 21.936,18.103 21.816,18.092 C21.213,18.037 20.608,18 20,18 C19.392,18 18.787,18.037 18.184,18.092 C18.064,18.103 17.943,18.111 17.823,18.124 C17.293,18.183 16.767,18.265 16.244,18.366 C16.049,18.403 15.856,18.445 15.662,18.488 C15.217,18.587 14.775,18.698 14.338,18.829 C14.074,18.907 13.815,18.997 13.556,19.085 C13.291,19.176 13.029,19.272 12.768,19.374 C12.362,19.532 11.963,19.705 11.57,19.889 C11.38,19.978 11.188,20.062 11,20.157 L11,20.157 Z M24,40 C24,42.206 22.206,44 20,44 C17.794,44 16,42.206 16,40 L16,34 C16,31.794 17.794,30 20,30 C22.206,30 24,31.794 24,34 L24,40 L24,40 Z" id="Fill-815" sketch:type="MSShapeGroup"></path>
            </g>
        </g>
    </g>
</svg>