<?xml version="1.0" encoding="UTF-8" standalone="no"?>
<svg width="44px" height="54px" viewBox="0 0 44 54" version="1.1" xmlns="http://www.w3.org/2000/svg" xmlns:xlink="http://www.w3.org/1999/xlink" xmlns:sketch="http://www.bohemiancoding.com/sketch/ns">
    <!-- Generator: Sketch 3.2.2 (9983) - http://www.bohemiancoding.com/sketch -->
    <title>285 - Unlocked (Solid)</title>
    <desc>Created with Sketch.</desc>
    <defs></defs>
    <g id="Page-1" stroke="none" stroke-width="1" fill="none" fill-rule="evenodd" sketch:type="MSPage">
        <g id="Icons" sketch:type="MSArtboardGroup" transform="translate(-729.000000, -1439.000000)" fill="#1A1718">
            <g id="285---Unlocked-(Solid)" sketch:type="MSLayerGroup" transform="translate(729.000000, 1439.000000)">
                <path d="M38,20.113 L38,14.5 C38,6.505 30.822,0 22,0 C13.178,0 6,6.505 6,14.5 C6,15.053 6.447,15.5 7,15.5 C7.553,15.5 8,15.053 8,14.5 C8,7.607 14.28,2 22,2 C29.72,2 36,7.607 36,14.5 L36,20 L7.229,20 C3.243,20 0,23.243 0,27.229 L0,46.771 C0,50.757 3.243,54 7.229,54 L36.771,54 C40.757,54 44,50.757 44,46.771 L44,27.229 C44,23.663 41.401,20.699 38,20.113 L38,20.113 Z M26,38 C26,40.206 24.206,42 22,42 C19.794,42 18,40.206 18,38 L18,32 C18,29.794 19.794,28 22,28 C24.206,28 26,29.794 26,32 L26,38 L26,38 Z" id="Fill-814" sketch:type="MSShapeGroup"></path>
            </g>
        </g>
    </g>
</svg>