<?xml version="1.0" encoding="UTF-8" standalone="no"?>
<svg width="44px" height="57px" viewBox="0 0 44 57" version="1.1" xmlns="http://www.w3.org/2000/svg" xmlns:xlink="http://www.w3.org/1999/xlink" xmlns:sketch="http://www.bohemiancoding.com/sketch/ns">
    <!-- Generator: Sketch 3.2.2 (9983) - http://www.bohemiancoding.com/sketch -->
    <title>288 - Locked (Solid)</title>
    <desc>Created with Sketch.</desc>
    <defs></defs>
    <g id="Page-1" stroke="none" stroke-width="1" fill="none" fill-rule="evenodd" sketch:type="MSPage">
        <g id="Icons" sketch:type="MSArtboardGroup" transform="translate(-367.000000, -1438.000000)" fill="#000000">
            <g id="288---Locked-(Solid)" sketch:type="MSLayerGroup" transform="translate(367.000000, 1438.000000)">
                <path d="M34,23 L34,11.601 C34,5.204 28.393,0 21.5,0 C14.607,0 9,5.204 9,11.601 L9,23 L0,23 L0,57 L44,57 L44,23 L34,23 L34,23 Z M11,11.601 C11,6.307 15.71,2 21.5,2 C27.29,2 32,6.307 32,11.601 L32,23 L11,23 L11,11.601 L11,11.601 Z M2,45 L12,45 L2,55 L2,45 L2,45 Z M12,55 L22,45 L35,45 L25,55 L12,55 L12,55 Z M42,55 L35,55 L42,48 L42,55 L42,55 Z" id="Fill-1" sketch:type="MSShapeGroup"></path>
            </g>
        </g>
    </g>
</svg>