<?xml version="1.0" encoding="UTF-8" standalone="no"?>
<svg width="44px" height="57px" viewBox="0 0 44 57" version="1.1" xmlns="http://www.w3.org/2000/svg" xmlns:xlink="http://www.w3.org/1999/xlink" xmlns:sketch="http://www.bohemiancoding.com/sketch/ns">
    <!-- Generator: Sketch 3.2.2 (9983) - http://www.bohemiancoding.com/sketch -->
    <title>289 - Unlocked (Solid)</title>
    <desc>Created with Sketch.</desc>
    <defs></defs>
    <g id="Page-1" stroke="none" stroke-width="1" fill="none" fill-rule="evenodd" sketch:type="MSPage">
        <g id="Icons" sketch:type="MSArtboardGroup" transform="translate(-249.000000, -1440.000000)" fill="#1A1718">
            <g id="289---Unlocked-(Solid)" sketch:type="MSLayerGroup" transform="translate(249.000000, 1440.000000)">
                <path d="M0,51 L44,51 L44,57 L0,57 L0,51 Z" id="Fill-809" sketch:type="MSShapeGroup"></path>
                <path d="M34,23 L34,11.601 C34,5.204 28.393,0 21.5,0 C14.607,0 9,5.204 9,11.601 L9,14.82 C9,15.373 9.448,15.82 10,15.82 C10.552,15.82 11,15.373 11,14.82 L11,11.601 C11,6.307 15.71,2 21.5,2 C27.29,2 32,6.307 32,11.601 L32,23 L0,23 L0,49 L44,49 L44,23 L34,23 L34,23 Z M26,41 C26,43.206 24.206,45 22,45 C19.794,45 18,43.206 18,41 L18,35 C18,32.794 19.794,31 22,31 C24.206,31 26,32.794 26,35 L26,41 L26,41 Z" id="Fill-810" sketch:type="MSShapeGroup"></path>
            </g>
        </g>
    </g>
</svg>