<?xml version="1.0" encoding="UTF-8" standalone="no"?>
<svg width="60px" height="60px" viewBox="0 0 60 60" version="1.1" xmlns="http://www.w3.org/2000/svg" xmlns:xlink="http://www.w3.org/1999/xlink" xmlns:sketch="http://www.bohemiancoding.com/sketch/ns">
    <!-- Generator: Sketch 3.2.2 (9983) - http://www.bohemiancoding.com/sketch -->
    <title>29 - Compose (Solid)</title>
    <desc>Created with Sketch.</desc>
    <defs></defs>
    <g id="Page-1" stroke="none" stroke-width="1" fill="none" fill-rule="evenodd" sketch:type="MSPage">
        <g id="Icons" sketch:type="MSArtboardGroup" transform="translate(-240.000000, -4557.000000)" fill="#000000">
            <g id="29---Compose-(Solid)" sketch:type="MSLayerGroup" transform="translate(240.000000, 4557.000000)">
                <path d="M59.144,3.724 L56.294,0.873 C55.167,-0.252 53.201,-0.253 52.073,0.874 L48.947,4 L0,4 L0,60 L56,60 L56,11.089 L59.144,7.946 C60.308,6.781 60.308,4.888 59.144,3.724 L59.144,3.724 Z M20.047,36.752 L23.267,39.971 L18.839,41.179 L20.047,36.752 L20.047,36.752 Z M52.062,12.199 L47.82,7.956 L49.234,6.542 L53.477,10.784 L52.062,12.199 L52.062,12.199 Z M50.648,13.613 L25.192,39.068 L20.95,34.826 L46.406,9.37 L50.648,13.613 L50.648,13.613 Z M57.73,6.531 L54.891,9.37 L50.648,5.127 L53.487,2.288 C53.858,1.917 54.508,1.917 54.88,2.288 L57.73,5.138 C58.114,5.522 58.114,6.147 57.73,6.531 L57.73,6.531 Z" id="Fill-640" sketch:type="MSShapeGroup"></path>
            </g>
        </g>
    </g>
</svg>