<?xml version="1.0" encoding="UTF-8" standalone="no"?>
<svg width="60px" height="60px" viewBox="0 0 60 60" version="1.1" xmlns="http://www.w3.org/2000/svg" xmlns:xlink="http://www.w3.org/1999/xlink" xmlns:sketch="http://www.bohemiancoding.com/sketch/ns">
    <!-- Generator: Sketch 3.2.2 (9983) - http://www.bohemiancoding.com/sketch -->
    <title>291 - Profile (Solid)</title>
    <desc>Created with Sketch.</desc>
    <defs></defs>
    <g id="Page-1" stroke="none" stroke-width="1" fill="none" fill-rule="evenodd" sketch:type="MSPage">
        <g id="Icons" sketch:type="MSArtboardGroup" transform="translate(-1200.000000, -1317.000000)" fill="#000000">
            <g id="291---Profile-(Solid)" sketch:type="MSLayerGroup" transform="translate(1200.000000, 1317.000000)">
                <path d="M60,30 C60,13.458 46.542,0 30,0 C13.458,0 0,13.458 0,30 C0,36.142 1.858,41.857 5.038,46.618 L5.036,46.636 L5.051,46.637 C7.389,50.132 10.444,53.106 14,55.358 C23.524,61.507 36.473,61.496 46,55.358 C48.599,53.713 50.928,51.681 52.907,49.341 L52.91,49.344 L52.978,49.26 C53.155,49.049 53.327,48.833 53.499,48.616 C53.667,48.407 53.833,48.198 53.996,47.984 L54.136,47.792 C54.346,47.511 54.557,47.232 54.757,46.941 L54.964,46.639 L54.962,46.618 C58.142,41.857 60,36.142 60,30 L60,30 Z M58,30 C58,34.972 56.691,39.642 54.409,43.694 C52.762,38.234 47.846,34.321 42,34.032 L42,34 L35.365,34 C35.164,34 35,33.836 35,33.635 L35,32.99 C35,32.808 35.149,32.687 35.276,32.639 C41.716,30.218 45.731,20.175 44.89,13.15 C44.451,9.493 42.639,6.223 40.007,3.855 C50.517,7.892 58,18.086 58,30 L58,30 Z M25.491,30.791 C20.709,29.022 17,20.85 17,15 C17,14.872 17.016,14.747 17.019,14.62 L17.751,13.718 C19.402,11.754 22.221,11.191 24.763,12.317 C25.785,12.771 26.874,13 28,13 C30.971,13 33.64,11.385 35.028,8.816 C38.21,9.861 41.05,11.831 42.971,14.315 C43.264,20.415 39.677,28.848 34.573,30.767 C33.617,31.126 33,31.999 33,32.99 L33,33.635 C33,34.938 34.062,36 35.365,36 L36,36 L36,42 L24,42 L24,36 L24.635,36 C25.938,36 27,34.938 27,33.635 L27,33 C27,32.014 26.395,31.126 25.491,30.791 L25.491,30.791 Z M19.999,3.853 C16.939,6.601 15,10.573 15,15 C15,21.629 19.19,30.593 24.797,32.666 C24.916,32.711 25,32.848 25,33 L25,33.635 C25,33.836 24.836,34 24.635,34 L18,34 L18,34.032 C12.154,34.321 7.238,38.234 5.591,43.694 C3.309,39.642 2,34.972 2,30 C2,18.083 9.486,7.888 19.999,3.853 L19.999,3.853 Z M7.544,46.707 L7.553,46.707 L7.416,46.526 C7.312,46.384 7.211,46.239 7.109,46.095 C7.862,40.541 12.426,36.354 18,36.031 L18,42 L14,42 L14,52.958 C11.529,51.231 9.345,49.121 7.544,46.707 L7.544,46.707 Z M46,52.958 L46,42 L42,42 L42,36.031 C47.574,36.354 52.138,40.541 52.891,46.095 C52.818,46.199 52.745,46.302 52.67,46.405 C52.288,46.928 51.896,47.44 51.483,47.933 C49.888,49.841 48.042,51.531 46,52.958 L46,52.958 Z" id="Fill-802" sketch:type="MSShapeGroup"></path>
            </g>
        </g>
    </g>
</svg>