<?xml version="1.0" encoding="UTF-8" standalone="no"?>
<svg width="60px" height="60px" viewBox="0 0 60 60" version="1.1" xmlns="http://www.w3.org/2000/svg" xmlns:xlink="http://www.w3.org/1999/xlink" xmlns:sketch="http://www.bohemiancoding.com/sketch/ns">
    <!-- Generator: Sketch 3.2.2 (9983) - http://www.bohemiancoding.com/sketch -->
    <title>292 - Profile (Solid)</title>
    <desc>Created with Sketch.</desc>
    <defs></defs>
    <g id="Page-1" stroke="none" stroke-width="1" fill="none" fill-rule="evenodd" sketch:type="MSPage">
        <g id="Icons" sketch:type="MSArtboardGroup" transform="translate(-1080.000000, -1317.000000)" fill="#000000">
            <g id="292---Profile-(Solid)" sketch:type="MSLayerGroup" transform="translate(1080.000000, 1317.000000)">
                <path d="M30,0 C13.458,0 0,13.458 0,30 C0,46.542 13.458,60 30,60 C46.542,60 60,46.542 60,30 C60,13.458 46.542,0 30,0 L30,0 Z M58,30 C58,34.978 56.688,39.652 54.402,43.707 C52.799,38.375 48.087,34.506 42.426,34.052 L42.386,34 L35.365,34 C35.164,34 35,33.836 35,33.635 L35,32.99 C35,32.808 35.149,32.687 35.276,32.639 C41.716,30.218 45.731,20.175 44.89,13.15 C44.451,9.493 42.639,6.223 40.007,3.855 C50.517,7.892 58,18.086 58,30 L58,30 Z M28,39 L28,39.438 L25.096,35.953 C26.18,35.738 27,34.78 27,33.635 L27,33 C27,32.014 26.395,31.126 25.491,30.791 C20.709,29.022 17,20.85 17,15 C17,14.872 17.016,14.747 17.019,14.62 L17.751,13.718 C19.402,11.754 22.22,11.191 24.763,12.317 C25.785,12.771 26.874,13 28,13 C30.971,13 33.64,11.385 35.028,8.816 C38.21,9.861 41.05,11.831 42.971,14.315 C43.264,20.415 39.677,28.848 34.573,30.767 C33.617,31.126 33,31.999 33,32.99 L33,33.635 C33,34.78 33.82,35.738 34.904,35.953 L32,39.438 L32,39 L28,39 L28,39 Z M26,40.162 L26,41.132 L22.471,43.484 L19.478,36 L22.531,36 L26,40.162 L26,40.162 Z M34,40.162 L37.469,36 L40.522,36 L37.529,43.484 L34,41.132 L34,40.162 L34,40.162 Z M19.999,3.853 C16.939,6.601 15,10.573 15,15 C15,21.629 19.19,30.593 24.797,32.666 C24.916,32.711 25,32.848 25,33 L25,33.635 C25,33.836 24.836,34 24.635,34 L18.145,34 C18.049,34 17.956,34.014 17.866,34.037 C12.073,34.38 7.235,38.295 5.609,43.726 C3.316,39.667 2,34.985 2,30 C2,18.083 9.486,7.888 19.999,3.853 L19.999,3.853 Z M16,54.233 L16,48 L14,48 L14,52.958 C11.601,51.281 9.475,49.241 7.705,46.914 C7.623,46.807 7.543,46.699 7.462,46.591 C7.342,46.428 7.226,46.261 7.109,46.095 C7.833,40.757 12.077,36.679 17.356,36.083 L21.529,46.516 L28,42.202 L28,44 L28.862,44 L27.101,57.846 C28.079,57.949 29.043,58 30.007,58 L30,58 C24.902,58 20.122,56.624 16,54.233 L16,54.233 Z M46,52.958 L46,48 L44,48 L44,54.233 C39.899,56.612 35.146,57.984 30.076,57.998 C31.02,57.995 31.964,57.945 32.927,57.843 L31.14,44 L32,44 L32,42.202 L38.471,46.516 L42.644,36.083 C47.923,36.679 52.167,40.757 52.891,46.095 C51.009,48.763 48.676,51.088 46,52.958 L46,52.958 Z" id="Fill-800" sketch:type="MSShapeGroup"></path>
            </g>
        </g>
    </g>
</svg>