<?xml version="1.0" encoding="UTF-8" standalone="no"?>
<svg width="60px" height="60px" viewBox="0 0 60 60" version="1.1" xmlns="http://www.w3.org/2000/svg" xmlns:xlink="http://www.w3.org/1999/xlink" xmlns:sketch="http://www.bohemiancoding.com/sketch/ns">
    <!-- Generator: Sketch 3.2.2 (9983) - http://www.bohemiancoding.com/sketch -->
    <title>293 - Profile (Solid)</title>
    <desc>Created with Sketch.</desc>
    <defs></defs>
    <g id="Page-1" stroke="none" stroke-width="1" fill="none" fill-rule="evenodd" sketch:type="MSPage">
        <g id="Icons" sketch:type="MSArtboardGroup" transform="translate(-960.000000, -1317.000000)" fill="#000000">
            <g id="293---Profile-(Solid)" sketch:type="MSLayerGroup" transform="translate(960.000000, 1317.000000)">
                <path d="M60,30 C60,13.458 46.542,0 30,0 C29.774,0 29.551,0.012 29.327,0.017 L29.313,0.017 L29.254,0.019 C28.881,0.028 28.508,0.041 28.139,0.063 C27.846,0.08 27.568,0.104 27.291,0.128 C12.015,1.503 0,14.372 0,30 C0,35.583 1.537,40.811 4.204,45.292 L4.199,45.317 L4.405,45.653 C4.5,45.808 4.606,45.954 4.703,46.106 L4.708,46.104 C10.041,54.45 19.382,60 30,60 C39.641,60 48.229,55.423 53.721,48.334 L53.734,48.336 L53.791,48.267 L53.999,47.996 L53.999,47.98 C57.765,42.966 60,36.74 60,30 L60,30 Z M15.362,36.245 C15.667,36.183 15.974,36.134 16.28,36.096 L16.529,36.063 C16.918,36.024 17.306,36 17.69,36 L23.635,36 C24.938,36 26,34.938 26,33.635 L26,33 C26,32.014 25.394,31.126 24.491,30.791 C19.709,29.022 16,20.85 16,15 C16,14.772 16.02,14.549 16.031,14.324 L16.523,13.718 C18.175,11.754 20.992,11.191 23.535,12.317 C24.558,12.771 25.647,13 26.773,13 C29.743,13 32.412,11.385 33.801,8.816 C37.102,9.9 40.046,11.975 41.966,14.592 L41.987,14.576 L41.988,14.769 C41.99,14.886 41.985,15.007 41.984,15.125 C41.953,20.303 39.224,26.984 35.338,29.799 L35.186,29.898 C34.958,30.056 34.728,30.207 34.493,30.337 C34.192,30.502 33.886,30.649 33.573,30.767 C32.617,31.126 32,31.999 32,32.99 L32,33.635 C32,34.938 33.062,36 34.365,36 L40.31,36 C40.718,36 41.13,36.023 41.542,36.068 L41.576,36.073 C41.969,36.116 42.364,36.18 42.756,36.264 C43.907,36.511 44.994,36.93 45.993,37.489 L30,51.767 L30,51 C30,46.589 33.589,43 38,43 C38.553,43 39,42.553 39,42 C39,41.447 38.553,41 38,41 C34.039,41 30.618,43.322 29,46.67 C27.382,43.322 23.961,41 20,41 C19.447,41 19,41.447 19,42 C19,42.553 19.447,43 20,43 C24.411,43 28,46.589 28,51 L28,51.768 L11.994,37.493 C13.034,36.91 14.169,36.489 15.362,36.245 L15.362,36.245 Z M13,49 L15,49 L15,53.625 C14.313,53.187 13.645,52.722 13,52.228 L13,49 L13,49 Z M43,49 L45,49 L45,53.625 C44.351,54.039 43.684,54.427 43,54.788 L43,49 L43,49 Z M58,30 C58,35.463 56.422,40.562 53.705,44.875 C53.306,42.973 52.5,41.222 51.399,39.698 L51.262,39.517 C51.036,39.214 50.798,38.92 50.548,38.637 C50.463,38.541 50.376,38.446 50.287,38.351 C50.059,38.107 49.822,37.873 49.576,37.646 C49.467,37.545 49.359,37.445 49.247,37.347 C48.988,37.124 48.72,36.913 48.446,36.709 L48.229,36.536 L47.579,36.073 L47.553,36.097 C46.461,35.412 45.269,34.877 44,34.52 L44,15 L43.988,14 L43.954,14 C43.935,13.715 43.923,13.427 43.89,13.15 C43.412,9.172 41.314,5.652 38.297,3.255 C49.698,6.8 58,17.448 58,30 L58,30 Z M18.247,4.595 C15.616,7.314 14,10.998 14,15 L14,34.516 C12.732,34.874 11.536,35.415 10.437,36.104 L10.405,36.076 L9.756,36.539 C9.598,36.652 9.453,36.778 9.301,36.896 C9.182,36.989 9.062,37.079 8.947,37.175 C8.753,37.335 8.568,37.503 8.384,37.674 C8.273,37.777 8.162,37.88 8.054,37.987 C7.875,38.164 7.703,38.345 7.535,38.531 C7.433,38.642 7.335,38.756 7.237,38.871 C7.076,39.062 6.919,39.254 6.769,39.453 C6.674,39.577 6.585,39.705 6.495,39.832 C6.355,40.031 6.217,40.229 6.088,40.434 C5.998,40.579 5.914,40.728 5.828,40.876 C5.714,41.074 5.599,41.271 5.495,41.475 C5.405,41.651 5.326,41.833 5.243,42.014 C5.159,42.199 5.069,42.382 4.993,42.572 L4.993,42.572 C3.083,38.789 2,34.52 2,30 C2,18.757 8.664,9.046 18.247,4.595 L18.247,4.595 Z" id="Fill-801" sketch:type="MSShapeGroup"></path>
            </g>
        </g>
    </g>
</svg>