<?xml version="1.0" encoding="UTF-8" standalone="no"?>
<svg width="60px" height="60px" viewBox="0 0 60 60" version="1.1" xmlns="http://www.w3.org/2000/svg" xmlns:xlink="http://www.w3.org/1999/xlink" xmlns:sketch="http://www.bohemiancoding.com/sketch/ns">
    <!-- Generator: Sketch 3.2.2 (9983) - http://www.bohemiancoding.com/sketch -->
    <title>294 - Profile (Solid)</title>
    <desc>Created with Sketch.</desc>
    <defs></defs>
    <g id="Page-1" stroke="none" stroke-width="1" fill="none" fill-rule="evenodd" sketch:type="MSPage">
        <g id="Icons" sketch:type="MSArtboardGroup" transform="translate(-840.000000, -1317.000000)" fill="#000000">
            <g id="294---Profile-(Solid)" sketch:type="MSLayerGroup" transform="translate(840.000000, 1317.000000)">
                <path d="M60,30 C60,13.458 46.542,0 30,0 C13.458,0 0,13.458 0,30 C0,36.142 1.859,41.857 5.038,46.618 L5.036,46.639 L5.243,46.941 C10.845,55.114 20.429,60.133 30.347,59.998 C40.058,59.865 49.311,54.918 54.79,46.893 L54.964,46.639 L54.962,46.618 C58.141,41.857 60,36.142 60,30 L60,30 Z M58,30 C58,34.972 56.691,39.642 54.409,43.694 C52.697,38.02 47.458,34 41.311,34 L35.365,34 C35.164,34 35,33.836 35,33.635 L35,32.99 C35,32.808 35.149,32.687 35.276,32.639 C41.716,30.218 45.731,20.175 44.89,13.15 C44.451,9.493 42.639,6.223 40.007,3.855 C50.517,7.892 58,18.086 58,30 L58,30 Z M25.491,30.791 C20.709,29.022 17,20.85 17,15 C17,14.273 17.075,13.565 17.19,12.87 C19.208,10.678 22.416,10.184 25.168,11.403 C26.034,11.787 26.992,12 28,12 C30.942,12 33.456,10.182 34.492,7.61 C37.612,8.468 40.568,10.224 42.765,12.548 C42.818,12.826 42.869,13.105 42.903,13.389 C43.639,19.524 39.94,28.749 34.573,30.767 C33.617,31.126 33,31.999 33,32.99 L33,33.635 C33,34.938 34.062,36 35.365,36 L35.586,36 L30,41.586 L24.414,36 L24.635,36 C25.938,36 27,34.938 27,33.635 L27,33 C27,32.014 26.394,31.126 25.491,30.791 L25.491,30.791 Z M19.999,3.853 C16.939,6.601 15,10.573 15,15 C15,21.629 19.19,30.593 24.797,32.666 C24.916,32.711 25,32.848 25,33 L25,33.635 C25,33.836 24.836,34 24.635,34 L18.69,34 C15.326,34 12.026,35.264 9.519,37.505 C7.7,39.141 6.323,41.266 5.591,43.694 C3.309,39.642 2,34.972 2,30 C2,18.083 9.486,7.888 19.999,3.853 C16.939,6.601 9.486,7.888 19.999,3.853 L19.999,3.853 Z M14,52.958 L14,49.344 L14,48.01 C14,47.99 15.633,48 15.792,48 C16.138,48 16,48.283 16,48.598 L16,50.819 L16,54.233 C15.316,53.836 14.648,53.412 14,52.958 L14,52.958 Z M44,54.233 L44,50.621 L44,48.48 C44,47.861 44.054,48 44.704,48 C44.982,48 46,47.813 46,48.153 L46,50.284 L46,52.516 C46,53.418 44.712,53.82 44,54.233 L44,54.233 Z" id="Fill-799" sketch:type="MSShapeGroup"></path>
            </g>
        </g>
    </g>
</svg>