<?xml version="1.0" encoding="UTF-8" standalone="no"?>
<svg width="55px" height="55px" viewBox="0 0 55 55" version="1.1" xmlns="http://www.w3.org/2000/svg" xmlns:xlink="http://www.w3.org/1999/xlink" xmlns:sketch="http://www.bohemiancoding.com/sketch/ns">
    <!-- Generator: Sketch 3.2.2 (9983) - http://www.bohemiancoding.com/sketch -->
    <title>295 - Profile (Solid)</title>
    <desc>Created with Sketch.</desc>
    <defs></defs>
    <g id="Page-1" stroke="none" stroke-width="1" fill="none" fill-rule="evenodd" sketch:type="MSPage">
        <g id="Icons" sketch:type="MSArtboardGroup" transform="translate(-723.000000, -1319.000000)" fill="#161819">
            <g id="295---Profile-(Solid)" sketch:type="MSLayerGroup" transform="translate(723.000000, 1319.000000)">
                <path d="M55,27.5 C55,12.337 42.663,0 27.5,0 C12.337,0 0,12.337 0,27.5 C0,35.509 3.444,42.728 8.926,47.758 L8.899,47.781 L9.791,48.533 L9.969,48.671 C10.444,49.064 10.935,49.437 11.435,49.798 C11.597,49.915 11.758,50.033 11.923,50.146 C12.457,50.514 13.005,50.863 13.565,51.194 C13.687,51.266 13.81,51.336 13.933,51.406 C14.546,51.755 15.172,52.083 15.813,52.386 L15.955,52.45 C18.044,53.42 20.274,54.134 22.605,54.555 L22.789,54.588 C23.513,54.713 24.245,54.813 24.986,54.88 C25.076,54.888 25.167,54.894 25.257,54.901 C25.998,54.961 26.744,55 27.5,55 C28.249,55 28.989,54.961 29.722,54.902 C29.815,54.895 29.908,54.89 30.001,54.881 C30.736,54.814 31.462,54.717 32.179,54.594 L32.366,54.56 C34.663,54.148 36.86,53.451 38.923,52.505 L39.151,52.402 C39.768,52.112 40.371,51.799 40.962,51.466 C41.109,51.383 41.255,51.299 41.401,51.213 C41.94,50.896 42.468,50.565 42.982,50.213 C43.168,50.087 43.348,49.954 43.531,49.823 C43.97,49.507 44.401,49.181 44.82,48.84 C44.913,48.764 45.013,48.7 45.104,48.623 L46.019,47.859 L45.992,47.836 C51.523,42.802 55,35.55 55,27.5 L55,27.5 Z M2,27.5 C2,13.439 13.44,2 27.5,2 C41.56,2 53,13.439 53,27.5 C53,35.077 49.675,41.889 44.411,46.563 C44.117,46.36 43.821,46.178 43.518,46.026 L35.051,41.793 C34.291,41.413 33.818,40.649 33.818,39.8 L33.818,36.843 C34.015,36.601 34.222,36.327 34.435,36.025 C35.531,34.478 36.41,32.756 37.052,30.902 C38.318,30.301 39.137,29.038 39.137,27.613 L39.137,24.068 C39.137,23.201 38.818,22.36 38.25,21.699 L38.25,17.032 C38.302,16.513 38.486,13.584 36.367,11.168 C34.524,9.065 31.541,8 27.5,8 C23.459,8 20.476,9.065 18.633,11.168 C16.514,13.584 16.698,16.514 16.75,17.032 L16.75,21.699 C16.182,22.36 15.863,23.201 15.863,24.068 L15.863,27.613 C15.863,28.714 16.357,29.741 17.203,30.435 C18.013,33.607 19.68,36.01 20.296,36.823 L20.296,39.717 C20.296,40.533 19.851,41.283 19.134,41.675 L11.227,45.987 C10.974,46.125 10.725,46.284 10.474,46.464 C5.276,41.792 2,35.022 2,27.5 L2,27.5 Z" id="Fill-81" sketch:type="MSShapeGroup"></path>
            </g>
        </g>
    </g>
</svg>