<?xml version="1.0" encoding="UTF-8" standalone="no"?>
<svg width="55px" height="55px" viewBox="0 0 55 55" version="1.1" xmlns="http://www.w3.org/2000/svg" xmlns:xlink="http://www.w3.org/1999/xlink" xmlns:sketch="http://www.bohemiancoding.com/sketch/ns">
    <!-- Generator: Sketch 3.2.2 (9983) - http://www.bohemiancoding.com/sketch -->
    <title>296 - Profile (Solid)</title>
    <desc>Created with Sketch.</desc>
    <defs></defs>
    <g id="Page-1" stroke="none" stroke-width="1" fill="none" fill-rule="evenodd" sketch:type="MSPage">
        <g id="Icons" sketch:type="MSArtboardGroup" transform="translate(-602.000000, -1319.000000)" fill="#161819">
            <g id="296---Profile-(Solid)" sketch:type="MSLayerGroup" transform="translate(602.000000, 1319.000000)">
                <path d="M27.5,0 C12.336,0 0,12.337 0,27.5 C0,35.476 3.417,42.667 8.86,47.695 L8.788,47.793 L9.493,48.396 C13.397,51.738 18.148,53.88 23.174,54.657 C23.529,54.713 23.888,54.759 24.248,54.801 C24.64,54.846 25.031,54.886 25.424,54.914 C26.003,54.957 26.586,54.985 27.175,54.992 L27.359,55 L27.412,54.998 L27.5,55 C42.664,55 55,42.663 55,27.5 C55,12.337 42.664,0 27.5,0 L27.5,0 Z M44.25,46.702 C43.618,45.887 42.835,45.211 41.957,44.733 L34.338,40.124 C34.322,40.115 34.268,40.084 34.148,40 L39.687,40 C40.121,40.061 41.849,40.229 43.357,39.327 C43.985,38.953 44.429,38.351 44.608,37.632 C44.789,36.905 44.669,36.121 44.281,35.48 C42.192,32.042 39.626,26.789 39.263,21.291 C39.12,19.144 38.715,17.354 38.025,15.818 C36.602,12.654 33.556,8.871 27.115,8.818 C16.151,8.908 15.786,20.024 15.783,20.139 C15.658,26.608 11.649,32.994 9.932,35.438 C9.465,36.104 9.316,36.75 9.488,37.359 C9.676,38.02 10.207,38.53 11.113,38.919 C13.03,39.742 15.435,39.985 15.634,40 L21.718,40 C21.551,40.324 21.323,40.735 21.206,40.813 L12.041,44.746 C11.328,45.102 10.692,45.576 10.126,46.141 C5.131,41.483 2,34.852 2,27.5 C2,13.439 13.44,2 27.5,2 C41.56,2 53,13.439 53,27.5 C53,35.153 49.606,42.024 44.25,46.702 L44.25,46.702 Z" id="Fill-80" sketch:type="MSShapeGroup"></path>
            </g>
        </g>
    </g>
</svg>