<?xml version="1.0" encoding="UTF-8" standalone="no"?>
<svg width="46px" height="60px" viewBox="0 0 46 60" version="1.1" xmlns="http://www.w3.org/2000/svg" xmlns:xlink="http://www.w3.org/1999/xlink" xmlns:sketch="http://www.bohemiancoding.com/sketch/ns">
    <!-- Generator: Sketch 3.2.2 (9983) - http://www.bohemiancoding.com/sketch -->
    <title>297 - User (Solid)</title>
    <desc>Created with Sketch.</desc>
    <defs></defs>
    <g id="Page-1" stroke="none" stroke-width="1" fill="none" fill-rule="evenodd" sketch:type="MSPage">
        <g id="Icons" sketch:type="MSArtboardGroup" transform="translate(-489.000000, -1317.000000)" fill="#000000">
            <g id="297---User-(Solid)" sketch:type="MSLayerGroup" transform="translate(489.000000, 1317.000000)">
                <path d="M40.964,43.865 L29.987,39.112 C29.647,38.942 29.286,38.509 28.955,38 L36.625,37.995 C36.625,37.995 37.045,38.036 37.695,38.036 C38.894,38.036 40.642,37.9 42.158,37.249 C43.044,36.868 43.705,36.114 43.969,35.181 C44.236,34.238 44.068,33.24 43.507,32.441 C41.397,29.437 36.47,21.588 36.316,13.617 C36.313,13.482 35.872,0.108 22.669,0 C14.934,0.063 11.269,4.617 9.556,8.425 C8.723,10.276 8.234,12.44 8.063,15.037 C7.559,22.652 3.583,29.934 1.897,32.711 C1.453,33.441 1.317,34.337 1.523,35.169 C1.727,35.989 2.233,36.677 2.95,37.105 C4.229,37.869 5.647,38.03 6.611,38.03 C6.935,38.03 7.173,38.011 7.285,38 L14.648,38 C14.206,38.336 14.028,38.442 13.962,38.479 L4.701,43.842 C1.801,45.424 0,48.458 0,51.762 L0,54 C0,58.746 15.045,60 23,60 C30.955,60 46,58.746 46,54 L46,51.957 C46,48.519 44.089,45.427 40.964,43.865" id="Fill-84" sketch:type="MSShapeGroup"></path>
            </g>
        </g>
    </g>
</svg>