<?xml version="1.0" encoding="UTF-8" standalone="no"?>
<svg width="46px" height="60px" viewBox="0 0 46 60" version="1.1" xmlns="http://www.w3.org/2000/svg" xmlns:xlink="http://www.w3.org/1999/xlink" xmlns:sketch="http://www.bohemiancoding.com/sketch/ns">
    <!-- Generator: Sketch 3.2.2 (9983) - http://www.bohemiancoding.com/sketch -->
    <title>298 - User (Solid)</title>
    <desc>Created with Sketch.</desc>
    <defs></defs>
    <g id="Page-1" stroke="none" stroke-width="1" fill="none" fill-rule="evenodd" sketch:type="MSPage">
        <g id="Icons" sketch:type="MSArtboardGroup" transform="translate(-367.000000, -1317.000000)" fill="#000000">
            <g id="298---User-(Solid)" sketch:type="MSLayerGroup" transform="translate(367.000000, 1317.000000)">
                <path d="M41.014,42.889 L31.461,38.112 C30.56,37.662 30,36.756 30,35.748 L30,32.367 C30.229,32.087 30.47,31.769 30.719,31.416 C31.959,29.666 32.951,27.718 33.673,25.617 C35.084,24.97 36,23.575 36,22 L36,18 C36,17.037 35.64,16.104 35,15.375 L35,10.056 C35.056,9.506 35.276,6.231 32.908,3.53 C30.854,1.187 27.521,0 23,0 C18.479,0 15.146,1.187 13.092,3.53 C10.724,6.231 10.944,9.506 11,10.056 L11,15.375 C10.36,16.104 10,17.037 10,18 L10,22 C10,23.217 10.553,24.352 11.497,25.109 C12.413,28.736 14.331,31.47 15,32.347 L15,35.655 C15,36.623 14.472,37.512 13.623,37.976 L4.701,42.842 C1.801,44.424 0,47.458 0,50.762 L0,54 C0,58.746 15.045,60 23,60 C30.955,60 46,58.746 46,54 L46,50.957 C46,47.519 44.089,44.427 41.014,42.889" id="Fill-83" sketch:type="MSShapeGroup"></path>
            </g>
        </g>
    </g>
</svg>