<?xml version="1.0" encoding="UTF-8" standalone="no"?>
<svg width="60px" height="55px" viewBox="0 0 60 55" version="1.1" xmlns="http://www.w3.org/2000/svg" xmlns:xlink="http://www.w3.org/1999/xlink" xmlns:sketch="http://www.bohemiancoding.com/sketch/ns">
    <!-- Generator: Sketch 3.2.2 (9983) - http://www.bohemiancoding.com/sketch -->
    <title>299 - Users (Solid)</title>
    <desc>Created with Sketch.</desc>
    <defs></defs>
    <g id="Page-1" stroke="none" stroke-width="1" fill="none" fill-rule="evenodd" sketch:type="MSPage">
        <g id="Icons" sketch:type="MSArtboardGroup" transform="translate(-240.000000, -1319.000000)" fill="#000000">
            <g id="299---Users-(Solid)" sketch:type="MSLayerGroup" transform="translate(240.000000, 1319.000000)">
                <path d="M41.014,42.889 L31.461,38.112 C30.56,37.662 30,36.756 30,35.748 L30,32.367 C30.229,32.087 30.47,31.769 30.719,31.416 C31.958,29.666 32.951,27.718 33.673,25.617 C35.084,24.97 36,23.575 36,22 L36,18 C36,17.037 35.64,16.104 35,15.375 L35,10.056 C35.056,9.506 35.276,6.231 32.908,3.53 C30.854,1.187 27.52,0 23,0 C18.479,0 15.146,1.187 13.092,3.53 C10.724,6.231 10.944,9.506 11,10.056 L11,15.375 C10.36,16.104 10,17.037 10,18 L10,22 C10,23.217 10.553,24.352 11.497,25.109 C12.413,28.736 14.331,31.47 15,32.347 L15,35.655 C15,36.623 14.472,37.512 13.623,37.975 L4.701,42.842 C1.801,44.424 0,47.458 0,50.762 L0,55 L46,55 L46,50.957 C46,47.517 44.089,44.427 41.014,42.889" id="Fill-5" sketch:type="MSShapeGroup"></path>
                <path d="M55.467,44.026 L45.744,39.816 C45.514,39.701 45.259,39.42 45.04,39.045 L51.565,39.04 C51.565,39.04 51.943,39.077 52.527,39.077 C53.6,39.077 55.165,38.955 56.527,38.37 C57.344,38.019 57.952,37.323 58.196,36.463 C58.442,35.595 58.287,34.676 57.77,33.939 C55.905,31.285 51.552,24.351 51.416,17.316 C51.414,17.195 51.019,5.233 39.207,5.137 C38.02,5.146 36.897,5.292 35.835,5.55 C36.627,7.644 36.553,9.518 36.5,10.126 L36.5,14.859 C37.148,15.781 37.5,16.876 37.5,18 L37.5,22 C37.5,23.907 36.496,25.672 34.893,26.662 C34.145,28.685 33.154,30.573 31.943,32.283 C31.793,32.496 31.645,32.697 31.5,32.888 L31.5,35.748 C31.5,36.19 31.736,36.573 32.131,36.77 L41.685,41.547 C45.271,43.341 47.5,46.946 47.5,50.957 L47.5,55 L60,55 L60,51.303 C60,48.211 58.282,45.433 55.467,44.026" id="Fill-6" sketch:type="MSShapeGroup"></path>
            </g>
        </g>
    </g>
</svg>