<?xml version="1.0" encoding="UTF-8" standalone="no"?>
<svg width="60px" height="60px" viewBox="0 0 60 60" version="1.1" xmlns="http://www.w3.org/2000/svg" xmlns:xlink="http://www.w3.org/1999/xlink" xmlns:sketch="http://www.bohemiancoding.com/sketch/ns">
    <!-- Generator: Sketch 3.2.2 (9983) - http://www.bohemiancoding.com/sketch -->
    <title>3 - Box (Solid)</title>
    <desc>Created with Sketch.</desc>
    <defs></defs>
    <g id="Page-1" stroke="none" stroke-width="1" fill="none" fill-rule="evenodd" sketch:type="MSPage">
        <g id="Icons" sketch:type="MSArtboardGroup" transform="translate(-960.000000, -4797.000000)" fill="#000000">
            <g id="3---Box-(Solid)" sketch:type="MSLayerGroup" transform="translate(960.000000, 4797.000000)">
                <path d="M57.588,0 L2.412,0 C1.082,0 0,1.082 0,2.412 L0,14 L60,14 L60,2.412 C60,1.082 58.918,0 57.588,0" id="Fill-1346" sketch:type="MSShapeGroup"></path>
                <path d="M3,55.59 C3,58.022 4.979,60 7.41,60 L52.59,60 C55.021,60 57,58.022 57,55.59 L57,16 L3,16 L3,55.59 L3,55.59 Z M55,48 L55,54.59 C55,56.473 53.473,58 51.59,58 L45,58 C45,52.477 49.477,48 55,48 L55,48 Z M21,28 C21,27.448 21.447,27 22,27 C22.553,27 23,27.448 23,28 L23,29.495 C23,30.325 23.675,31 24.505,31 L35.495,31 C36.325,31 37,30.325 37,29.495 L37,28 C37,27.448 37.447,27 38,27 C38.553,27 39,27.448 39,28 L39,29.495 C39,31.427 37.428,33 35.495,33 L24.505,33 C22.572,33 21,31.427 21,29.495 L21,28 L21,28 Z M5,48 C10.523,48 15,52.477 15,58 L8.41,58 C6.527,58 5,56.473 5,54.59 L5,48 L5,48 Z" id="Fill-1347" sketch:type="MSShapeGroup"></path>
            </g>
        </g>
    </g>
</svg>