<?xml version="1.0" encoding="UTF-8" standalone="no"?>
<svg width="60px" height="60px" viewBox="0 0 60 60" version="1.1" xmlns="http://www.w3.org/2000/svg" xmlns:xlink="http://www.w3.org/1999/xlink" xmlns:sketch="http://www.bohemiancoding.com/sketch/ns">
    <!-- Generator: Sketch 3.2.2 (9983) - http://www.bohemiancoding.com/sketch -->
    <title>30 - Favorite List (Solid)</title>
    <desc>Created with Sketch.</desc>
    <defs></defs>
    <g id="Page-1" stroke="none" stroke-width="1" fill="none" fill-rule="evenodd" sketch:type="MSPage">
        <g id="Icons" sketch:type="MSArtboardGroup" transform="translate(-120.000000, -4557.000000)" fill="#1A1718">
            <g id="30---Favorite-List-(Solid)" sketch:type="MSLayerGroup" transform="translate(120.000000, 4557.000000)">
                <path d="M59,0 L1,0 C0.448,0 0,0.447 0,1 L0,59 C0,59.552 0.448,60 1,60 L59,60 C59.552,60 60,59.552 60,59 L60,1 C60,0.447 59.552,0 59,0 L59,0 Z M18.685,50.828 L14.929,48.853 L11.173,50.828 L11.89,46.646 L8.851,43.682 L13.051,43.072 L14.929,39.266 L16.807,43.072 L21.007,43.682 L17.968,46.646 L18.685,50.828 L18.685,50.828 Z M17.968,31.202 L18.685,35.385 L14.929,33.41 L11.173,35.385 L11.89,31.202 L8.851,28.239 L13.051,27.629 L14.929,23.823 L16.807,27.629 L21.007,28.239 L17.968,31.202 L17.968,31.202 Z M17.968,16.119 L18.685,20.302 L14.929,18.327 L11.173,20.302 L11.89,16.119 L8.851,13.156 L13.051,12.546 L14.929,8.74 L16.807,12.546 L21.007,13.156 L17.968,16.119 L17.968,16.119 Z M23,44 L47,44 L47,48 L23,48 L23,44 Z M23,29 L47,29 L47,33 L23,33 L23,29 Z M23,14 L47,14 L47,18 L23,18 L23,14 Z" id="Fill-1345" sketch:type="MSShapeGroup"></path>
            </g>
        </g>
    </g>
</svg>