<?xml version="1.0" encoding="UTF-8" standalone="no"?>
<svg width="60px" height="55px" viewBox="0 0 60 55" version="1.1" xmlns="http://www.w3.org/2000/svg" xmlns:xlink="http://www.w3.org/1999/xlink" xmlns:sketch="http://www.bohemiancoding.com/sketch/ns">
    <!-- Generator: Sketch 3.2.2 (9983) - http://www.bohemiancoding.com/sketch -->
    <title>300 - Users (Solid)</title>
    <desc>Created with Sketch.</desc>
    <defs></defs>
    <g id="Page-1" stroke="none" stroke-width="1" fill="none" fill-rule="evenodd" sketch:type="MSPage">
        <g id="Icons" sketch:type="MSArtboardGroup" transform="translate(-120.000000, -1318.000000)" fill="#000000">
            <g id="300---Users-(Solid)" sketch:type="MSLayerGroup" transform="translate(120.000000, 1318.000000)">
                <path d="M55.014,42.889 L45.461,38.112 C44.56,37.662 44,36.756 44,35.748 L44,32.367 C44.229,32.087 44.47,31.768 44.719,31.416 C45.958,29.666 46.951,27.718 47.673,25.617 C49.084,24.97 50,23.575 50,22 L50,18 C50,17.037 49.64,16.103 49,15.375 L49,10.056 C49.056,9.506 49.276,6.231 46.908,3.53 C44.854,1.187 41.52,0 37,0 C32.479,0 29.146,1.187 27.092,3.53 C24.724,6.231 24.944,9.506 25,10.056 L25,15.375 C24.36,16.103 24,17.037 24,18 L24,22 C24,23.217 24.553,24.352 25.497,25.109 C26.413,28.736 28.331,31.47 29,32.347 L29,35.655 C29,36.623 28.472,37.512 27.623,37.976 L18.701,42.842 C15.801,44.424 14,47.458 14,50.762 L14,55 L60,55 L60,50.957 C60,47.518 58.089,44.427 55.014,42.889" id="Fill-3" sketch:type="MSShapeGroup"></path>
                <path d="M17.983,41.525 L26.904,36.659 C27.271,36.458 27.5,36.073 27.5,35.655 L27.5,32.841 C26.615,31.608 25.054,29.129 24.163,25.931 C23.1,24.899 22.5,23.494 22.5,22 L22.5,18 C22.5,16.876 22.852,15.781 23.5,14.859 L23.5,10.126 C23.466,9.743 23.426,8.857 23.596,7.731 C22.219,7.251 20.687,7 19,7 C8.611,7 8.006,15.855 8,16 L8,20.579 C7.352,21.285 7,22.1 7,22.909 L7,26.363 C7,27.442 7.483,28.448 8.311,29.128 C9.135,32.238 11.165,34.588 11.955,35.413 L11.955,38.156 C11.955,38.943 11.526,39.665 10.784,40.071 L4.131,44.244 C1.583,45.634 0,48.301 0,51.203 L0,55 L12.5,55 L12.5,50.762 C12.5,46.909 14.601,43.37 17.983,41.525" id="Fill-4" sketch:type="MSShapeGroup"></path>
            </g>
        </g>
    </g>
</svg>