<?xml version="1.0" encoding="UTF-8" standalone="no"?>
<svg width="61px" height="40px" viewBox="0 0 61 40" version="1.1" xmlns="http://www.w3.org/2000/svg" xmlns:xlink="http://www.w3.org/1999/xlink" xmlns:sketch="http://www.bohemiancoding.com/sketch/ns">
    <!-- Generator: Sketch 3.2.2 (9983) - http://www.bohemiancoding.com/sketch -->
    <title>301 - Send (Solid)</title>
    <desc>Created with Sketch.</desc>
    <defs></defs>
    <g id="Page-1" stroke="none" stroke-width="1" fill="none" fill-rule="evenodd" sketch:type="MSPage">
        <g id="Icons" sketch:type="MSArtboardGroup" transform="translate(-1199.000000, -1208.000000)" fill="#1A1718">
            <g id="301---Send-(Solid)" sketch:type="MSLayerGroup" transform="translate(1199.000000, 1208.000000)">
                <path d="M60.985,0.829 L60.984,0.822 C60.96,0.697 60.918,0.583 60.852,0.479 L60.851,0.475 L60.846,0.47 C60.783,0.372 60.708,0.288 60.615,0.217 L60.555,0.177 L60.316,0.06 L60.148,0.026 L60.02,0 L60.017,0 L59.922,0.006 L59.896,0.007 L59.867,0.009 L59.787,0.022 L1.734,12.021 C1.321,12.106 1.006,12.441 0.946,12.859 C0.887,13.277 1.097,13.688 1.47,13.885 L18.102,22.657 L21.019,38.844 L21.019,38.881 L21.018,39.118 L21.037,39.235 C21.06,39.33 21.097,39.419 21.147,39.504 L21.168,39.555 L21.18,39.568 L21.225,39.621 L21.378,39.777 L21.402,39.802 L21.449,39.826 L21.64,39.925 L21.72,39.955 C21.81,39.982 21.903,39.999 21.997,40 L22,40 L22.013,39.998 L22.063,40 C22.341,40 22.591,39.876 22.775,39.685 L33.855,32.299 L45.455,39.839 C45.619,39.945 45.809,40 46,40 C46.105,40 46.212,39.983 46.315,39.949 C46.604,39.854 46.833,39.631 46.938,39.346 L60.874,1.521 C60.967,1.369 61.02,1.19 61.02,1 L60.985,0.829 L60.985,0.829 Z M49.4,7.553 L25.407,25.194 L25.303,25.293 L25.265,25.328 L25.206,25.399 L25.159,25.473 L25.067,25.661 L25.05,25.697 L25.044,25.706 L22.294,34.643 L20.115,22.552 L49.4,7.553 L49.4,7.553 Z M23.845,36.568 L26.571,27.564 L32.029,31.112 L23.845,36.568 L23.845,36.568 Z" id="Fill-82" sketch:type="MSShapeGroup"></path>
            </g>
        </g>
    </g>
</svg>