<?xml version="1.0" encoding="UTF-8" standalone="no"?>
<svg width="52px" height="55px" viewBox="0 0 52 55" version="1.1" xmlns="http://www.w3.org/2000/svg" xmlns:xlink="http://www.w3.org/1999/xlink" xmlns:sketch="http://www.bohemiancoding.com/sketch/ns">
    <!-- Generator: Sketch 3.2.2 (9983) - http://www.bohemiancoding.com/sketch -->
    <title>303 - Locations (Solid)</title>
    <desc>Created with Sketch.</desc>
    <defs></defs>
    <g id="Page-1" stroke="none" stroke-width="1" fill="none" fill-rule="evenodd" sketch:type="MSPage">
        <g id="Icons" sketch:type="MSArtboardGroup" transform="translate(-963.000000, -1199.000000)" fill="#000000">
            <g id="303---Locations-(Solid)" sketch:type="MSLayerGroup" transform="translate(963.000000, 1199.000000)">
                <path d="M14.421,8 C6.516,8 2.009,11.814 1.022,19.338 C0.678,21.954 0.822,24.785 1.448,27.754 C4.588,42.641 12.238,51.899 14.42,54.301 C16.603,51.899 24.252,42.641 27.392,27.754 C28.018,24.785 28.162,21.954 27.818,19.338 C26.831,11.814 22.324,8 14.421,8 L14.421,8 Z M14.421,29 C9.768,29 5.983,25.215 5.983,20.562 C5.983,15.91 9.768,12.125 14.421,12.125 C19.073,12.125 22.858,15.91 22.858,20.562 C22.858,25.215 19.073,29 14.421,29 L14.421,29 Z" id="Fill-1" sketch:type="MSShapeGroup"></path>
                <path d="M51.818,12.037 C50.831,4.514 46.324,0.699 38.421,0.699 C31.146,0.699 26.757,3.939 25.333,10.318 C27.463,12.423 28.811,15.373 29.306,19.142 C29.671,21.926 29.522,24.928 28.86,28.063 C28.707,28.79 28.534,29.492 28.361,30.192 C31.955,39.388 36.763,45.176 38.42,47 C40.603,44.599 48.252,35.34 51.392,20.453 C52.018,17.484 52.162,14.653 51.818,12.037 L51.818,12.037 Z M38.421,21.699 C33.768,21.699 29.983,17.914 29.983,13.262 C29.983,8.609 33.768,4.824 38.421,4.824 C43.073,4.824 46.858,8.609 46.858,13.262 C46.858,17.914 43.073,21.699 38.421,21.699 L38.421,21.699 Z" id="Fill-2" sketch:type="MSShapeGroup"></path>
            </g>
        </g>
    </g>
</svg>