<?xml version="1.0" encoding="UTF-8" standalone="no"?>
<svg width="56px" height="53px" viewBox="0 0 56 53" version="1.1" xmlns="http://www.w3.org/2000/svg" xmlns:xlink="http://www.w3.org/1999/xlink" xmlns:sketch="http://www.bohemiancoding.com/sketch/ns">
    <!-- Generator: Sketch 3.2.2 (9983) - http://www.bohemiancoding.com/sketch -->
    <title>304 - Map Location (Solid)</title>
    <desc>Created with Sketch.</desc>
    <defs></defs>
    <g id="Page-1" stroke="none" stroke-width="1" fill="none" fill-rule="evenodd" sketch:type="MSPage">
        <g id="Icons" sketch:type="MSArtboardGroup" transform="translate(-843.000000, -1202.000000)" fill="#1A1718">
            <g id="304---Map-Location-(Solid)" sketch:type="MSLayerGroup" transform="translate(843.000000, 1201.000000)">
                <path d="M51.898,23 L41,23 C40.447,23 40,23.447 40,24 C40,24.553 40.447,25 41,25 L50.102,25 L53.001,52 L2.479,52 L5.882,25 L15,25 C15.553,25 16,24.553 16,24 C16,23.447 15.553,23 15,23 L4.118,23 L0.211,54 L55.227,54 L51.898,23" id="Fill-781" sketch:type="MSShapeGroup"></path>
                <path d="M17.691,45.15 C17.106,45.426 16.509,45.681 15.917,45.909 C15.402,46.107 15.146,46.687 15.345,47.202 C15.498,47.599 15.876,47.842 16.277,47.842 C16.398,47.842 16.52,47.82 16.638,47.774 C17.273,47.529 17.913,47.256 18.541,46.961 C19.041,46.727 19.256,46.131 19.021,45.631 C18.787,45.132 18.195,44.915 17.691,45.15" id="Fill-782" sketch:type="MSShapeGroup"></path>
                <path d="M36.809,37.56 C36.83,38.098 37.273,38.519 37.807,38.519 L37.849,38.518 L39.851,38.436 C40.402,38.41 40.83,37.942 40.805,37.392 C40.779,36.839 40.301,36.388 39.76,36.437 L37.767,36.52 C37.215,36.542 36.786,37.008 36.809,37.56" id="Fill-783" sketch:type="MSShapeGroup"></path>
                <path d="M31.638,37.158 C31.098,37.272 30.754,37.804 30.869,38.345 C30.969,38.814 31.384,39.136 31.846,39.136 L32.056,39.113 C32.642,38.989 33.276,38.884 33.941,38.801 C34.489,38.733 34.879,38.233 34.81,37.686 C34.742,37.137 34.249,36.735 33.695,36.816 C32.973,36.906 32.28,37.021 31.638,37.158" id="Fill-784" sketch:type="MSShapeGroup"></path>
                <path d="M22.644,42.164 C22.13,42.552 21.599,42.925 21.063,43.271 C20.601,43.572 20.469,44.191 20.769,44.655 C20.961,44.95 21.282,45.11 21.609,45.11 C21.796,45.11 21.984,45.059 22.153,44.949 C22.727,44.577 23.297,44.177 23.849,43.762 C24.289,43.429 24.377,42.802 24.045,42.36 C23.712,41.923 23.087,41.832 22.644,42.164" id="Fill-785" sketch:type="MSShapeGroup"></path>
                <path d="M10.205,48.829 C10.421,48.886 10.641,48.927 10.858,48.953 C11.114,48.984 11.37,49 11.627,49 C11.938,49 12.253,48.978 12.566,48.938 C13.114,48.869 13.503,48.369 13.434,47.821 C13.365,47.273 12.867,46.889 12.316,46.954 C11.913,47.006 11.506,47.019 11.102,46.969 C10.969,46.952 10.837,46.927 10.705,46.894 C10.172,46.751 9.625,47.076 9.487,47.611 C9.349,48.146 9.67,48.691 10.205,48.829" id="Fill-786" sketch:type="MSShapeGroup"></path>
                <path d="M46.899,32.75 C46.735,33.277 47.031,33.838 47.559,34.001 C47.657,34.031 47.757,34.046 47.854,34.046 C48.281,34.046 48.677,33.771 48.81,33.342 C48.908,33.024 48.97,32.702 48.992,32.378 L49,32.128 C49,31.661 48.914,31.193 48.745,30.738 C48.553,30.22 47.975,29.957 47.46,30.148 C46.941,30.341 46.678,30.916 46.87,31.434 C46.956,31.666 47,31.899 47,32.128 L46.996,32.244 C46.985,32.409 46.952,32.579 46.899,32.75" id="Fill-787" sketch:type="MSShapeGroup"></path>
                <path d="M10.412,40.987 C10.573,40.987 10.736,40.948 10.888,40.866 C11.178,40.709 11.484,40.611 11.801,40.577 C11.935,40.562 12.074,40.562 12.207,40.579 C12.77,40.649 13.257,40.265 13.329,39.719 C13.401,39.171 13.016,38.669 12.469,38.597 C12.171,38.557 11.868,38.556 11.578,38.589 C11.006,38.652 10.452,38.827 9.935,39.108 C9.449,39.372 9.269,39.979 9.532,40.464 C9.713,40.798 10.057,40.987 10.412,40.987" id="Fill-788" sketch:type="MSShapeGroup"></path>
                <path d="M43.584,36.096 C43.043,36.207 42.695,36.736 42.807,37.277 C42.904,37.75 43.32,38.075 43.785,38.075 L43.988,38.055 C44.832,37.881 45.517,37.604 46.06,37.22 L46.229,37.098 C46.665,36.759 46.708,36.156 46.369,35.72 C46.032,35.285 45.367,35.229 44.931,35.57 C44.59,35.81 44.162,35.977 43.584,36.096" id="Fill-789" sketch:type="MSShapeGroup"></path>
                <path d="M9.071,43.388 C9.216,42.854 8.9,42.306 8.367,42.162 C7.838,42.014 7.285,42.331 7.142,42.866 C7.016,43.33 6.94,43.804 6.917,44.272 C6.911,44.387 6.908,44.503 6.908,44.619 C6.908,44.816 6.917,45.014 6.937,45.211 C6.989,45.726 7.424,46.109 7.931,46.109 L8.033,46.104 C8.582,46.048 8.982,45.558 8.927,45.008 C8.913,44.879 8.908,44.748 8.908,44.619 L8.915,44.371 C8.931,44.045 8.983,43.714 9.071,43.388" id="Fill-790" sketch:type="MSShapeGroup"></path>
                <path d="M44.909,27.797 C44.12,27.69 43.302,27.757 42.523,27.977 C41.991,28.126 41.683,28.679 41.833,29.21 C41.957,29.651 42.358,29.938 42.794,29.938 C42.885,29.938 42.976,29.927 43.066,29.9 C43.583,29.756 44.121,29.71 44.642,29.779 C45.203,29.853 45.693,29.469 45.767,28.922 C45.84,28.374 45.456,27.871 44.909,27.797" id="Fill-791" sketch:type="MSShapeGroup"></path>
                <path d="M26.866,38.955 C26.719,39.042 26.559,39.12 26.419,39.211 C26.2,39.353 25.987,39.501 25.778,39.652 C25.332,39.978 25.233,40.604 25.559,41.05 C25.755,41.318 26.06,41.461 26.368,41.461 C26.572,41.461 26.778,41.398 26.956,41.27 C27.136,41.138 27.319,41.011 27.508,40.888 C27.824,40.683 28.164,40.488 28.518,40.311 C28.988,40.074 29.178,39.518 28.981,39.039 L29.008,39.017 C30.816,37.101 36.913,29.921 39.437,17.959 C39.948,15.533 40.063,13.205 39.778,11.041 C38.918,4.466 34.833,0.99 27.966,0.99 C21.1,0.99 17.015,4.466 16.152,11.041 C15.868,13.207 15.983,15.534 16.495,17.959 C18.995,29.808 24.999,36.962 26.866,38.955 L26.866,38.955 Z M27.966,5.22 C32.017,5.22 35.312,8.515 35.312,12.565 C35.312,16.616 32.017,19.911 27.966,19.911 C23.915,19.911 20.62,16.616 20.62,12.565 C20.62,8.515 23.915,5.22 27.966,5.22 L27.966,5.22 Z" id="Fill-792" sketch:type="MSShapeGroup"></path>
            </g>
        </g>
    </g>
</svg>