<?xml version="1.0" encoding="UTF-8" standalone="no"?>
<svg width="57px" height="60px" viewBox="0 0 57 60" version="1.1" xmlns="http://www.w3.org/2000/svg" xmlns:xlink="http://www.w3.org/1999/xlink" xmlns:sketch="http://www.bohemiancoding.com/sketch/ns">
    <!-- Generator: Sketch 3.2.2 (9983) - http://www.bohemiancoding.com/sketch -->
    <title>307 - Signpost (Solid)</title>
    <desc>Created with Sketch.</desc>
    <defs></defs>
    <g id="Page-1" stroke="none" stroke-width="1" fill="none" fill-rule="evenodd" sketch:type="MSPage">
        <g id="Icons" sketch:type="MSArtboardGroup" transform="translate(-482.000000, -1197.000000)" fill="#000000">
            <g id="307---Signpost-(Solid)" sketch:type="MSLayerGroup" transform="translate(482.000000, 1197.000000)">
                <path d="M47.273,21.001 L56.266,12.906 C56.523,12.677 56.671,12.346 56.671,12 C56.671,11.655 56.523,11.324 56.269,11.098 L47.273,3.001 L28,3.001 L28,1 C28,0.447 27.552,0 27,0 C26.448,0 26,0.447 26,1 L26,3.001 L8.397,3.001 C6.523,3.001 5,4.524 5,6.397 L5,17.604 C5,19.477 6.523,21.001 8.397,21.001 L26,21.001 L26,23 L9.399,23 L0.401,31.098 C0.146,31.328 0,31.656 0,32 C0,32.344 0.146,32.672 0.402,32.903 L9.399,41 L26,41 L26,59 C26,59.553 26.448,60 27,60 C27.552,60 28,59.553 28,59 L28,41 L48.604,41 C50.477,41 52,39.477 52,37.604 L52,26.396 C52,24.523 50.477,23 48.604,23 L28,23 L28,21.001 L47.273,21.001" id="Fill-79" sketch:type="MSShapeGroup"></path>
            </g>
        </g>
    </g>
</svg>