<?xml version="1.0" encoding="UTF-8" standalone="no"?>
<svg width="58px" height="56px" viewBox="0 0 58 56" version="1.1" xmlns="http://www.w3.org/2000/svg" xmlns:xlink="http://www.w3.org/1999/xlink" xmlns:sketch="http://www.bohemiancoding.com/sketch/ns">
    <!-- Generator: Sketch 3.2.2 (9983) - http://www.bohemiancoding.com/sketch -->
    <title>308 - Sign (Solid)</title>
    <desc>Created with Sketch.</desc>
    <defs></defs>
    <g id="Page-1" stroke="none" stroke-width="1" fill="none" fill-rule="evenodd" sketch:type="MSPage">
        <g id="Icons" sketch:type="MSArtboardGroup" transform="translate(-362.000000, -1198.000000)" fill="#000000">
            <g id="308---Sign-(Solid)" sketch:type="MSLayerGroup" transform="translate(362.000000, 1198.000000)">
                <path d="M57.469,14.077 L47.384,5 L26,5 L26,1 C26,0.447 25.552,0 25,0 C24.448,0 24,0.447 24,1 L24,5 L0,5 L0,25 L24,25 L24,55 C24,55.553 24.448,56 25,56 C25.552,56 26,55.553 26,55 L26,25 L47.384,25 L57.467,15.925 C57.73,15.689 57.88,15.353 57.88,15 C57.88,14.647 57.73,14.311 57.469,14.077" id="Fill-78" sketch:type="MSShapeGroup"></path>
            </g>
        </g>
    </g>
</svg>