<?xml version="1.0" encoding="UTF-8" standalone="no"?>
<svg width="58px" height="60px" viewBox="0 0 58 60" version="1.1" xmlns="http://www.w3.org/2000/svg" xmlns:xlink="http://www.w3.org/1999/xlink" xmlns:sketch="http://www.bohemiancoding.com/sketch/ns">
    <!-- Generator: Sketch 3.2.2 (9983) - http://www.bohemiancoding.com/sketch -->
    <title>31 - Newspaper (Solid)</title>
    <desc>Created with Sketch.</desc>
    <defs></defs>
    <g id="Page-1" stroke="none" stroke-width="1" fill="none" fill-rule="evenodd" sketch:type="MSPage">
        <g id="Icons" sketch:type="MSArtboardGroup" transform="translate(-1201.000000, -4437.000000)" fill="#000000">
            <g id="31---Newspaper-(Solid)" sketch:type="MSLayerGroup" transform="translate(1201.000000, 4437.000000)">
                <path d="M22,10 L46,10 L46,4 L22,4 L22,10 Z M24,6 L44,6 L44,8 L24,8 L24,6 Z" id="Fill-590" sketch:type="MSShapeGroup"></path>
                <path d="M18,18 L28,18 L28,28 L18,28 L18,18 Z" id="Fill-591" sketch:type="MSShapeGroup"></path>
                <path d="M40,42 L50,42 L50,52 L40,52 L40,42 Z" id="Fill-592" sketch:type="MSShapeGroup"></path>
                <path d="M57.99,12.952 L57.99,0 L10,0 L10,30 L0,30 L0,54 C0,57.309 2.691,60 6,60 L52,60 C55.303,60 57.99,57.312 57.99,54.01 L57.99,13.048 L58,13 L57.99,12.952 L57.99,12.952 Z M10,54 C10,56.206 8.206,58 6,58 C3.794,58 2,56.206 2,54 L2,32 L10,32 L10,54 L10,54 Z M33,54 L18,54 C17.447,54 17,53.552 17,53 C17,52.447 17.447,52 18,52 L33,52 C33.553,52 34,52.447 34,53 C34,53.552 33.553,54 33,54 L33,54 Z M16,16 L30,16 L30,30 L16,30 L16,16 Z M33,48 L18,48 C17.447,48 17,47.552 17,47 C17,46.447 17.447,46 18,46 L33,46 C33.553,46 34,46.447 34,47 C34,47.552 33.553,48 33,48 L33,48 Z M33,42 L18,42 C17.447,42 17,41.552 17,41 C17,40.447 17.447,40 18,40 L33,40 C33.553,40 34,40.447 34,41 C34,41.552 33.553,42 33,42 L33,42 Z M38,40 L52,40 L52,54 L38,54 L38,40 Z M51,36 L18,36 C17.447,36 17,35.552 17,35 C17,34.447 17.447,34 18,34 L51,34 C51.553,34 52,34.447 52,35 C52,35.552 51.553,36 51,36 L51,36 Z M51,30 L35,30 C34.447,30 34,29.552 34,29 C34,28.447 34.447,28 35,28 L51,28 C51.553,28 52,28.447 52,29 C52,29.552 51.553,30 51,30 L51,30 Z M51,24 L35,24 C34.447,24 34,23.552 34,23 C34,22.447 34.447,22 35,22 L51,22 C51.553,22 52,22.447 52,23 C52,23.552 51.553,24 51,24 L51,24 Z M51,18 L35,18 C34.447,18 34,17.552 34,17 C34,16.447 34.447,16 35,16 L51,16 C51.553,16 52,16.447 52,17 C52,17.552 51.553,18 51,18 L51,18 Z M12,2 L55.99,2 L55.99,12 L12,12 L12,2 Z" id="Fill-593" sketch:type="MSShapeGroup"></path>
            </g>
        </g>
    </g>
</svg>