<?xml version="1.0" encoding="UTF-8" standalone="no"?>
<svg width="40px" height="60px" viewBox="0 0 40 60" version="1.1" xmlns="http://www.w3.org/2000/svg" xmlns:xlink="http://www.w3.org/1999/xlink" xmlns:sketch="http://www.bohemiancoding.com/sketch/ns">
    <!-- Generator: Sketch 3.2.2 (9983) - http://www.bohemiancoding.com/sketch -->
    <title>310 - Street Name (Solid)</title>
    <desc>Created with Sketch.</desc>
    <defs></defs>
    <g id="Page-1" stroke="none" stroke-width="1" fill="none" fill-rule="evenodd" sketch:type="MSPage">
        <g id="Icons" sketch:type="MSArtboardGroup" transform="translate(-128.000000, -1197.000000)" fill="#000000">
            <g id="310---Street-Name-(Solid)" sketch:type="MSLayerGroup" transform="translate(128.000000, 1197.000000)">
                <path d="M33,12 L21,12 L21,9.899 C23.279,9.434 25,7.415 25,5 C25,2.243 22.757,0 20,0 C17.243,0 15,2.243 15,5 C15,7.415 16.721,9.434 19,9.899 L19,12 L7,12 C3.14,12 0,15.141 0,19 C0,22.859 3.14,26 7,26 L19,26 L19,50 L14,50 L14,54 L11,54 L11,60 L29,60 L29,54 L26,54 L26,50 L21,50 L21,26 L33,26 C36.86,26 40,22.859 40,19 C40,15.141 36.86,12 33,12 L33,12 Z M17,5 C17,3.346 18.346,2 20,2 C21.654,2 23,3.346 23,5 C23,6.654 21.654,8 20,8 C18.346,8 17,6.654 17,5 L17,5 Z M16,52 L24,52 L24,54 L16,54 L16,52 Z M15,16 L25,16 C25.552,16 26,16.447 26,17 C26,17.553 25.552,18 25,18 L15,18 C14.448,18 14,17.553 14,17 C14,16.447 14.448,16 15,16 L15,16 Z M34,22 L7,22 C6.448,22 6,21.553 6,21 C6,20.447 6.448,20 7,20 L34,20 C34.552,20 35,20.447 35,21 C35,21.553 34.552,22 34,22 L34,22 Z" id="Fill-778" sketch:type="MSShapeGroup"></path>
            </g>
        </g>
    </g>
</svg>