<?xml version="1.0" encoding="UTF-8" standalone="no"?>
<svg width="59px" height="60px" viewBox="0 0 59 60" version="1.1" xmlns="http://www.w3.org/2000/svg" xmlns:xlink="http://www.w3.org/1999/xlink" xmlns:sketch="http://www.bohemiancoding.com/sketch/ns">
    <!-- Generator: Sketch 3.2.2 (9983) - http://www.bohemiancoding.com/sketch -->
    <title>311 - Roadmap (Solid)</title>
    <desc>Created with Sketch.</desc>
    <defs></defs>
    <g id="Page-1" stroke="none" stroke-width="1" fill="none" fill-rule="evenodd" sketch:type="MSPage">
        <g id="Icons" sketch:type="MSArtboardGroup" transform="translate(-1200.000000, -1077.000000)" fill="#000000">
            <g id="311---Roadmap-(Solid)" sketch:type="MSLayerGroup" transform="translate(1200.000000, 1077.000000)">
                <path d="M35,24 L37,24 C37.553,24 38,23.553 38,23 C38,22.447 37.553,22 37,22 L35,22 C34.447,22 34,22.447 34,23 C34,23.553 34.447,24 35,24" id="Fill-750" sketch:type="MSShapeGroup"></path>
                <path d="M31.502,31 C31.069,30.999 30.648,30.922 30.25,30.77 C29.738,30.574 29.157,30.831 28.959,31.348 C28.763,31.863 29.021,32.441 29.537,32.639 C30.163,32.877 30.822,32.999 31.5,33 L31.857,33 C32.41,33 32.857,32.553 32.857,32 C32.857,31.447 32.41,31 31.857,31 L31.502,31" id="Fill-751" sketch:type="MSShapeGroup"></path>
                <path d="M29.128,24.676 C29.309,24.676 29.491,24.627 29.656,24.524 C30.1,24.248 30.589,24.079 31.11,24.021 C31.659,23.961 32.056,23.467 31.995,22.918 C31.935,22.369 31.444,21.977 30.892,22.033 C30.069,22.124 29.298,22.391 28.598,22.827 C28.129,23.119 27.986,23.736 28.278,24.205 C28.468,24.509 28.794,24.676 29.128,24.676" id="Fill-752" sketch:type="MSShapeGroup"></path>
                <path d="M35.5,40 L35.244,40.006 C34.692,40.028 34.264,40.494 34.286,41.046 C34.308,41.584 34.751,42.005 35.284,42.005 L35.326,42.004 L37.285,42 C37.838,42 38.285,41.553 38.285,41 C38.285,40.447 37.838,40 37.285,40 L35.5,40" id="Fill-753" sketch:type="MSShapeGroup"></path>
                <path d="M43,24 C43.553,24 44,23.553 44,23 C44,22.447 43.553,22 43,22 L41,22 C40.447,22 40,22.447 40,23 C40,23.553 40.447,24 41,24 L43,24" id="Fill-754" sketch:type="MSShapeGroup"></path>
                <path d="M47.285,40 C46.732,40 46.285,40.447 46.285,41 C46.285,41.553 46.732,42 47.285,42 L49.285,42 C49.838,42 50.285,41.553 50.285,41 C50.285,40.447 49.838,40 49.285,40 L47.285,40" id="Fill-755" sketch:type="MSShapeGroup"></path>
                <path d="M50.857,32 C50.857,31.447 50.41,31 49.857,31 L47.857,31 C47.305,31 46.857,31.447 46.857,32 C46.857,32.553 47.305,33 47.857,33 L49.857,33 C50.41,33 50.857,32.553 50.857,32" id="Fill-756" sketch:type="MSShapeGroup"></path>
                <path d="M41.285,42 L43.285,42 C43.838,42 44.285,41.553 44.285,41 C44.285,40.447 43.838,40 43.285,40 L41.285,40 C40.732,40 40.285,40.447 40.285,41 C40.285,41.553 40.732,42 41.285,42" id="Fill-757" sketch:type="MSShapeGroup"></path>
                <path d="M44.857,32 C44.857,31.447 44.41,31 43.857,31 L41.857,31 C41.305,31 40.857,31.447 40.857,32 C40.857,32.553 41.305,33 41.857,33 L43.857,33 C44.41,33 44.857,32.553 44.857,32" id="Fill-758" sketch:type="MSShapeGroup"></path>
                <path d="M35.857,31 C35.305,31 34.857,31.447 34.857,32 C34.857,32.553 35.305,33 35.857,33 L37.857,33 C38.41,33 38.857,32.553 38.857,32 C38.857,31.447 38.41,31 37.857,31 L35.857,31" id="Fill-759" sketch:type="MSShapeGroup"></path>
                <path d="M23.57,58 L21.57,58 C21.018,58 20.57,58.447 20.57,59 C20.57,59.553 21.018,60 21.57,60 L23.57,60 C24.123,60 24.57,59.553 24.57,59 C24.57,58.447 24.123,58 23.57,58" id="Fill-760" sketch:type="MSShapeGroup"></path>
                <path d="M17.57,58 L15.57,58 C15.018,58 14.57,58.447 14.57,59 C14.57,59.553 15.018,60 15.57,60 L17.57,60 C18.123,60 18.57,59.553 18.57,59 C18.57,58.447 18.123,58 17.57,58" id="Fill-761" sketch:type="MSShapeGroup"></path>
                <path d="M52.11,54.517 C51.571,54.396 51.036,54.733 50.915,55.272 C50.8,55.782 50.577,56.251 50.252,56.664 C49.911,57.098 49.985,57.727 50.42,58.068 C50.604,58.212 50.821,58.282 51.037,58.282 C51.334,58.282 51.627,58.151 51.824,57.9 C52.328,57.261 52.688,56.504 52.866,55.712 C52.987,55.173 52.649,54.638 52.11,54.517" id="Fill-762" sketch:type="MSShapeGroup"></path>
                <path d="M51.038,52.719 C51.254,52.719 51.473,52.648 51.655,52.505 C52.09,52.163 52.164,51.534 51.823,51.101 C51.32,50.462 50.671,49.934 49.944,49.572 C49.447,49.325 48.85,49.528 48.604,50.022 C48.357,50.518 48.56,51.117 49.054,51.363 C49.517,51.593 49.931,51.93 50.251,52.337 C50.448,52.588 50.741,52.719 51.038,52.719" id="Fill-763" sketch:type="MSShapeGroup"></path>
                <path d="M46.571,50 C46.571,49.447 46.124,49 45.571,49 L43.571,49 C43.019,49 42.571,49.447 42.571,50 C42.571,50.553 43.019,51 43.571,51 L45.571,51 C46.124,51 46.571,50.553 46.571,50" id="Fill-764" sketch:type="MSShapeGroup"></path>
                <path d="M47.5,58 L45.57,58 C45.018,58 44.57,58.447 44.57,59 C44.57,59.553 45.018,60 45.57,60 L47.541,59.999 L47.57,58.999 L47.57,59.999 C48.123,59.999 48.535,59.552 48.535,58.999 C48.535,58.447 48.053,58 47.5,58" id="Fill-765" sketch:type="MSShapeGroup"></path>
                <path d="M58.933,35.632 C58.845,35.086 58.33,34.713 57.787,34.803 C57.241,34.89 56.87,35.403 56.958,35.948 C56.986,36.126 57.002,36.308 57,36.5 C57,36.836 56.952,37.168 56.858,37.488 C56.703,38.019 57.007,38.574 57.537,38.729 C57.631,38.757 57.726,38.77 57.818,38.77 C58.251,38.77 58.65,38.487 58.778,38.051 C58.926,37.548 59,37.026 59,36.508 C59.002,36.22 58.979,35.925 58.933,35.632" id="Fill-766" sketch:type="MSShapeGroup"></path>
                <path d="M27.536,29.855 C28.061,29.683 28.346,29.117 28.174,28.593 C28.059,28.242 28,27.875 28,27.505 C28.001,27.354 28.01,27.203 28.028,27.056 C28.098,26.508 27.709,26.007 27.161,25.938 C26.596,25.875 26.112,26.26 26.044,26.806 C26.016,27.031 26.001,27.262 26,27.5 C26,28.088 26.092,28.666 26.273,29.218 C26.412,29.639 26.804,29.905 27.224,29.905 C27.327,29.905 27.433,29.89 27.536,29.855" id="Fill-767" sketch:type="MSShapeGroup"></path>
                <path d="M56.253,31.738 C55.539,31.324 54.759,31.081 53.936,31.017 C53.387,30.977 52.903,31.384 52.86,31.936 C52.817,32.486 53.229,32.968 53.779,33.011 C54.302,33.052 54.796,33.206 55.249,33.469 C55.407,33.561 55.58,33.604 55.75,33.604 C56.095,33.604 56.431,33.425 56.616,33.105 C56.894,32.628 56.73,32.016 56.253,31.738" id="Fill-768" sketch:type="MSShapeGroup"></path>
                <path d="M54.852,39.729 C54.423,39.909 53.969,40 53.5,40 L53.285,40 C52.732,40 52.285,40.447 52.285,41 C52.285,41.553 52.732,42 53.285,42 L53.5,42 C54.236,42 54.951,41.856 55.625,41.573 C56.135,41.359 56.374,40.773 56.16,40.265 C55.946,39.755 55.356,39.515 54.852,39.729" id="Fill-769" sketch:type="MSShapeGroup"></path>
                <path d="M32.062,44.839 C32.16,44.325 32.368,43.85 32.681,43.426 C33.008,42.981 32.913,42.355 32.468,42.027 C32.022,41.701 31.397,41.795 31.069,42.24 C30.58,42.906 30.252,43.653 30.097,44.462 C29.993,45.004 30.348,45.528 30.891,45.633 L31.08,45.65 C31.55,45.65 31.969,45.317 32.062,44.839" id="Fill-770" sketch:type="MSShapeGroup"></path>
                <path d="M33.629,50.594 C34.009,50.594 34.371,50.377 34.539,50.01 C34.769,49.507 34.548,48.914 34.046,48.685 C33.577,48.47 33.152,48.146 32.818,47.749 C32.462,47.326 31.832,47.271 31.409,47.627 C30.986,47.982 30.932,48.613 31.287,49.036 C31.812,49.659 32.478,50.167 33.214,50.503 C33.349,50.564 33.49,50.594 33.629,50.594" id="Fill-771" sketch:type="MSShapeGroup"></path>
                <path d="M29.57,58 L27.57,58 C27.018,58 26.57,58.447 26.57,59 C26.57,59.553 27.018,60 27.57,60 L29.57,60 C30.123,60 30.57,59.553 30.57,59 C30.57,58.447 30.123,58 29.57,58" id="Fill-772" sketch:type="MSShapeGroup"></path>
                <path d="M35.57,58 L33.57,58 C33.018,58 32.57,58.447 32.57,59 C32.57,59.553 33.018,60 33.57,60 L35.57,60 C36.123,60 36.57,59.553 36.57,59 C36.57,58.447 36.123,58 35.57,58" id="Fill-773" sketch:type="MSShapeGroup"></path>
                <path d="M40.571,50 C40.571,49.447 40.124,49 39.571,49 L37.571,49 C37.019,49 36.571,49.447 36.571,50 C36.571,50.553 37.019,51 37.571,51 L39.571,51 C40.124,51 40.571,50.553 40.571,50" id="Fill-774" sketch:type="MSShapeGroup"></path>
                <path d="M41.57,58 L39.57,58 C39.018,58 38.57,58.447 38.57,59 C38.57,59.553 39.018,60 39.57,60 L41.57,60 C42.123,60 42.57,59.553 42.57,59 C42.57,58.447 42.123,58 41.57,58" id="Fill-775" sketch:type="MSShapeGroup"></path>
                <path d="M20.527,28.977 C18.257,26.412 15.229,25 12,25 C8.771,25 5.743,26.412 3.473,28.977 C-1.14,34.188 -1.14,42.665 3.473,47.876 L12,57.509 L20.527,47.876 C25.14,42.665 25.14,34.188 20.527,28.977 L20.527,28.977 Z M12,43 C8.691,43 6,40.309 6,37 C6,33.691 8.691,31 12,31 C15.309,31 18,33.691 18,37 C18,40.309 15.309,43 12,43 L12,43 Z" id="Fill-776" sketch:type="MSShapeGroup"></path>
                <path d="M48.254,24.507 L54.718,17.221 C58.195,13.301 58.195,6.925 54.718,3.005 C52.998,1.067 50.702,0 48.253,0 C45.805,0 43.509,1.067 41.789,3.005 C38.313,6.925 38.313,13.301 41.789,17.221 L48.254,24.507 L48.254,24.507 Z M48.5,4 C51.532,4 54,6.468 54,9.5 C54,12.532 51.532,15 48.5,15 C45.468,15 43,12.532 43,9.5 C43,6.468 45.468,4 48.5,4 L48.5,4 Z" id="Fill-777" sketch:type="MSShapeGroup"></path>
            </g>
        </g>
    </g>
</svg>