<?xml version="1.0" encoding="UTF-8" standalone="no"?>
<svg width="60px" height="30px" viewBox="0 0 60 30" version="1.1" xmlns="http://www.w3.org/2000/svg" xmlns:xlink="http://www.w3.org/1999/xlink" xmlns:sketch="http://www.bohemiancoding.com/sketch/ns">
    <!-- Generator: Sketch 3.2.2 (9983) - http://www.bohemiancoding.com/sketch -->
    <title>312 - More (Solid)</title>
    <desc>Created with Sketch.</desc>
    <defs></defs>
    <g id="Page-1" stroke="none" stroke-width="1" fill="none" fill-rule="evenodd" sketch:type="MSPage">
        <g id="Icons" sketch:type="MSArtboardGroup" transform="translate(-1080.000000, -1092.000000)" fill="#000000">
            <g id="312---More-(Solid)" sketch:type="MSLayerGroup" transform="translate(1079.000000, 1091.000000)">
                <path d="M19,12 C16.794,12 15,13.794 15,16 C15,18.206 16.794,20 19,20 C21.206,20 23,18.206 23,16 C23,13.794 21.206,12 19,12" id="Fill-71" sketch:type="MSShapeGroup"></path>
                <path d="M31,12 C28.794,12 27,13.794 27,16 C27,18.206 28.794,20 31,20 C33.206,20 35,18.206 35,16 C35,13.794 33.206,12 31,12" id="Fill-72" sketch:type="MSShapeGroup"></path>
                <path d="M47,16 C47,13.794 45.206,12 43,12 C40.794,12 39,13.794 39,16 C39,18.206 40.794,20 43,20 C45.206,20 47,18.206 47,16" id="Fill-73" sketch:type="MSShapeGroup"></path>
                <path d="M3.414,16 L16.707,2.707 C17.098,2.316 17.098,1.684 16.707,1.293 C16.316,0.902 15.684,0.902 15.293,1.293 L1.293,15.293 C0.902,15.684 0.902,16.316 1.293,16.707 L15.293,30.707 C15.488,30.902 15.744,31 16,31 C16.256,31 16.512,30.902 16.707,30.707 C17.098,30.316 17.098,29.684 16.707,29.293 L3.414,16" id="Fill-74" sketch:type="MSShapeGroup"></path>
                <path d="M60.707,15.293 L46.707,1.293 C46.316,0.902 45.684,0.902 45.293,1.293 C44.902,1.684 44.902,2.316 45.293,2.707 L58.586,16 L45.293,29.293 C44.902,29.684 44.902,30.316 45.293,30.707 C45.488,30.902 45.744,31 46,31 C46.256,31 46.512,30.902 46.707,30.707 L60.707,16.707 C61.098,16.316 61.098,15.684 60.707,15.293" id="Fill-75" sketch:type="MSShapeGroup"></path>
            </g>
        </g>
    </g>
</svg>