<?xml version="1.0" encoding="UTF-8" standalone="no"?>
<svg width="60px" height="60px" viewBox="0 0 60 60" version="1.1" xmlns="http://www.w3.org/2000/svg" xmlns:xlink="http://www.w3.org/1999/xlink" xmlns:sketch="http://www.bohemiancoding.com/sketch/ns">
    <!-- Generator: Sketch 3.2.2 (9983) - http://www.bohemiancoding.com/sketch -->
    <title>314 - Compass (Solid)</title>
    <desc>Created with Sketch.</desc>
    <defs></defs>
    <g id="Page-1" stroke="none" stroke-width="1" fill="none" fill-rule="evenodd" sketch:type="MSPage">
        <g id="Icons" sketch:type="MSArtboardGroup" transform="translate(-840.000000, -1077.000000)" fill="#000000">
            <g id="314---Compass-(Solid)" sketch:type="MSLayerGroup" transform="translate(840.000000, 1077.000000)">
                <path d="M30,0 C13.458,0 0,13.458 0,30 C0,46.542 13.458,60 30,60 C46.542,60 60,46.542 60,30 C60,13.458 46.542,0 30,0 L30,0 Z M45.706,14.444 L28.415,49.326 C28.245,49.671 27.894,49.882 27.519,49.882 L27.351,49.867 C26.915,49.793 26.58,49.44 26.526,49.002 L24.718,34.052 L8.885,31.398 C8.451,31.326 8.116,30.979 8.059,30.544 C8.001,30.108 8.233,29.687 8.633,29.503 L44.394,13.091 C44.776,12.914 45.233,13 45.528,13.304 C45.823,13.607 45.894,14.064 45.706,14.444 L45.706,14.444 Z" id="Fill-748" sketch:type="MSShapeGroup"></path>
            </g>
        </g>
    </g>
</svg>