<?xml version="1.0" encoding="UTF-8" standalone="no"?>
<svg width="32px" height="59px" viewBox="0 0 32 59" version="1.1" xmlns="http://www.w3.org/2000/svg" xmlns:xlink="http://www.w3.org/1999/xlink" xmlns:sketch="http://www.bohemiancoding.com/sketch/ns">
    <!-- Generator: Sketch 3.2.2 (9983) - http://www.bohemiancoding.com/sketch -->
    <title>316 - Siri (Solid)</title>
    <desc>Created with Sketch.</desc>
    <defs></defs>
    <g id="Page-1" stroke="none" stroke-width="1" fill="none" fill-rule="evenodd" sketch:type="MSPage">
        <g id="Icons" sketch:type="MSArtboardGroup" transform="translate(-613.000000, -1078.000000)" fill="#000000">
            <g id="316---Siri-(Solid)" sketch:type="MSLayerGroup" transform="translate(613.000000, 1078.000000)">
                <path d="M31,29 C30.448,29 30,29.447 30,30 L30,36 C30,43.72 23.72,50 16,50 C8.28,50 2,43.72 2,36 L2,30 C2,29.447 1.552,29 1,29 C0.448,29 0,29.447 0,30 L0,36 C0,44.485 6.644,51.429 15,51.949 L15,57 L10,57 C9.448,57 9,57.447 9,58 C9,58.553 9.448,59 10,59 L22,59 C22.552,59 23,58.553 23,58 C23,57.447 22.552,57 22,57 L17,57 L17,51.949 C25.356,51.429 32,44.485 32,36 L32,30 C32,29.447 31.552,29 31,29" id="Fill-1" sketch:type="MSShapeGroup"></path>
                <path d="M16,0 C9.383,0 4,5.383 4,12 L4,36 C4,42.617 9.383,48 16,48 C15.448,48 15,47.552 15,47 C15,46.448 15.448,46 16,46 C16.552,46 17,46.448 17,47 C17,47.552 16.552,48 16,48 C22.617,48 28,42.617 28,36 L28,12 C28,5.383 22.617,0 16,0 L16,0 Z M7,39 C6.448,39 6,38.552 6,38 C6,37.448 6.448,37 7,37 C7.552,37 8,37.448 8,38 C8,38.552 7.552,39 7,39 L7,39 Z M7,33 C6.448,33 6,32.552 6,32 C6,31.448 6.448,31 7,31 C7.552,31 8,31.448 8,32 C8,32.552 7.552,33 7,33 L7,33 Z M7,27 C6.448,27 6,26.552 6,26 C6,25.448 6.448,25 7,25 C7.552,25 8,25.448 8,26 C8,26.552 7.552,27 7,27 L7,27 Z M7,21 C6.448,21 6,20.552 6,20 C6,19.448 6.448,19 7,19 C7.552,19 8,19.448 8,20 C8,20.552 7.552,21 7,21 L7,21 Z M7,15 C6.448,15 6,14.552 6,14 C6,13.448 6.448,13 7,13 C7.552,13 8,13.448 8,14 C8,14.552 7.552,15 7,15 L7,15 Z M7,9 C6.448,9 6,8.552 6,8 C6,7.448 6.448,7 7,7 C7.552,7 8,7.448 8,8 C8,8.552 7.552,9 7,9 L7,9 Z M10,42 C9.448,42 9,41.552 9,41 C9,40.448 9.448,40 10,40 C10.552,40 11,40.448 11,41 C11,41.552 10.552,42 10,42 L10,42 Z M10,36 C9.448,36 9,35.552 9,35 C9,34.448 9.448,34 10,34 C10.552,34 11,34.448 11,35 C11,35.552 10.552,36 10,36 L10,36 Z M10,30 C9.448,30 9,29.552 9,29 C9,28.448 9.448,28 10,28 C10.552,28 11,28.448 11,29 C11,29.552 10.552,30 10,30 L10,30 Z M10,24 C9.448,24 9,23.552 9,23 C9,22.448 9.448,22 10,22 C10.552,22 11,22.448 11,23 C11,23.552 10.552,24 10,24 L10,24 Z M10,18 C9.448,18 9,17.552 9,17 C9,16.448 9.448,16 10,16 C10.552,16 11,16.448 11,17 C11,17.552 10.552,18 10,18 L10,18 Z M10,12 C9.448,12 9,11.552 9,11 C9,10.448 9.448,10 10,10 C10.552,10 11,10.448 11,11 C11,11.552 10.552,12 10,12 L10,12 Z M10,6 C9.448,6 9,5.552 9,5 C9,4.448 9.448,4 10,4 C10.552,4 11,4.448 11,5 C11,5.552 10.552,6 10,6 L10,6 Z M13,45 C12.448,45 12,44.552 12,44 C12,43.448 12.448,43 13,43 C13.552,43 14,43.448 14,44 C14,44.552 13.552,45 13,45 L13,45 Z M13,39 C12.448,39 12,38.552 12,38 C12,37.448 12.448,37 13,37 C13.552,37 14,37.448 14,38 C14,38.552 13.552,39 13,39 L13,39 Z M13,33 C12.448,33 12,32.552 12,32 C12,31.448 12.448,31 13,31 C13.552,31 14,31.448 14,32 C14,32.552 13.552,33 13,33 L13,33 Z M13,27 C12.448,27 12,26.552 12,26 C12,25.448 12.448,25 13,25 C13.552,25 14,25.448 14,26 C14,26.552 13.552,27 13,27 L13,27 Z M13,21 C12.448,21 12,20.552 12,20 C12,19.448 12.448,19 13,19 C13.552,19 14,19.448 14,20 C14,20.552 13.552,21 13,21 L13,21 Z M13,15 C12.448,15 12,14.552 12,14 C12,13.448 12.448,13 13,13 C13.552,13 14,13.448 14,14 C14,14.552 13.552,15 13,15 L13,15 Z M13,9 C12.448,9 12,8.552 12,8 C12,7.448 12.448,7 13,7 C13.552,7 14,7.448 14,8 C14,8.552 13.552,9 13,9 L13,9 Z M13,3 C12.448,3 12,2.552 12,2 C12,1.448 12.448,1 13,1 C13.552,1 14,1.448 14,2 C14,2.552 13.552,3 13,3 L13,3 Z M16,42 C15.448,42 15,41.552 15,41 C15,40.448 15.448,40 16,40 C16.552,40 17,40.448 17,41 C17,41.552 16.552,42 16,42 L16,42 Z M16,36 C15.448,36 15,35.552 15,35 C15,34.448 15.448,34 16,34 C16.552,34 17,34.448 17,35 C17,35.552 16.552,36 16,36 L16,36 Z M16,30 C15.448,30 15,29.552 15,29 C15,28.448 15.448,28 16,28 C16.552,28 17,28.448 17,29 C17,29.552 16.552,30 16,30 L16,30 Z M16,24 C15.448,24 15,23.552 15,23 C15,22.448 15.448,22 16,22 C16.552,22 17,22.448 17,23 C17,23.552 16.552,24 16,24 L16,24 Z M16,18 C15.448,18 15,17.552 15,17 C15,16.448 15.448,16 16,16 C16.552,16 17,16.448 17,17 C17,17.552 16.552,18 16,18 L16,18 Z M16,12 C15.448,12 15,11.552 15,11 C15,10.448 15.448,10 16,10 C16.552,10 17,10.448 17,11 C17,11.552 16.552,12 16,12 L16,12 Z M16,6 C15.448,6 15,5.552 15,5 C15,4.448 15.448,4 16,4 C16.552,4 17,4.448 17,5 C17,5.552 16.552,6 16,6 L16,6 Z M19,45 C18.448,45 18,44.552 18,44 C18,43.448 18.448,43 19,43 C19.552,43 20,43.448 20,44 C20,44.552 19.552,45 19,45 L19,45 Z M19,39 C18.448,39 18,38.552 18,38 C18,37.448 18.448,37 19,37 C19.552,37 20,37.448 20,38 C20,38.552 19.552,39 19,39 L19,39 Z M19,33 C18.448,33 18,32.552 18,32 C18,31.448 18.448,31 19,31 C19.552,31 20,31.448 20,32 C20,32.552 19.552,33 19,33 L19,33 Z M19,27 C18.448,27 18,26.552 18,26 C18,25.448 18.448,25 19,25 C19.552,25 20,25.448 20,26 C20,26.552 19.552,27 19,27 L19,27 Z M19,21 C18.448,21 18,20.552 18,20 C18,19.448 18.448,19 19,19 C19.552,19 20,19.448 20,20 C20,20.552 19.552,21 19,21 L19,21 Z M19,15 C18.448,15 18,14.552 18,14 C18,13.448 18.448,13 19,13 C19.552,13 20,13.448 20,14 C20,14.552 19.552,15 19,15 L19,15 Z M19,9 C18.448,9 18,8.552 18,8 C18,7.448 18.448,7 19,7 C19.552,7 20,7.448 20,8 C20,8.552 19.552,9 19,9 L19,9 Z M19,3 C18.448,3 18,2.552 18,2 C18,1.448 18.448,1 19,1 C19.552,1 20,1.448 20,2 C20,2.552 19.552,3 19,3 L19,3 Z M22,42 C21.448,42 21,41.552 21,41 C21,40.448 21.448,40 22,40 C22.552,40 23,40.448 23,41 C23,41.552 22.552,42 22,42 L22,42 Z M22,36 C21.448,36 21,35.552 21,35 C21,34.448 21.448,34 22,34 C22.552,34 23,34.448 23,35 C23,35.552 22.552,36 22,36 L22,36 Z M22,30 C21.448,30 21,29.552 21,29 C21,28.448 21.448,28 22,28 C22.552,28 23,28.448 23,29 C23,29.552 22.552,30 22,30 L22,30 Z M22,24 C21.448,24 21,23.552 21,23 C21,22.448 21.448,22 22,22 C22.552,22 23,22.448 23,23 C23,23.552 22.552,24 22,24 L22,24 Z M22,18 C21.448,18 21,17.552 21,17 C21,16.448 21.448,16 22,16 C22.552,16 23,16.448 23,17 C23,17.552 22.552,18 22,18 L22,18 Z M22,12 C21.448,12 21,11.552 21,11 C21,10.448 21.448,10 22,10 C22.552,10 23,10.448 23,11 C23,11.552 22.552,12 22,12 L22,12 Z M22,6 C21.448,6 21,5.552 21,5 C21,4.448 21.448,4 22,4 C22.552,4 23,4.448 23,5 C23,5.552 22.552,6 22,6 L22,6 Z M25,39 C24.448,39 24,38.552 24,38 C24,37.448 24.448,37 25,37 C25.552,37 26,37.448 26,38 C26,38.552 25.552,39 25,39 L25,39 Z M25,33 C24.448,33 24,32.552 24,32 C24,31.448 24.448,31 25,31 C25.552,31 26,31.448 26,32 C26,32.552 25.552,33 25,33 L25,33 Z M25,27 C24.448,27 24,26.552 24,26 C24,25.448 24.448,25 25,25 C25.552,25 26,25.448 26,26 C26,26.552 25.552,27 25,27 L25,27 Z M25,21 C24.448,21 24,20.552 24,20 C24,19.448 24.448,19 25,19 C25.552,19 26,19.448 26,20 C26,20.552 25.552,21 25,21 L25,21 Z M25,15 C24.448,15 24,14.552 24,14 C24,13.448 24.448,13 25,13 C25.552,13 26,13.448 26,14 C26,14.552 25.552,15 25,15 L25,15 Z M25,9 C24.448,9 24,8.552 24,8 C24,7.448 24.448,7 25,7 C25.552,7 26,7.448 26,8 C26,8.552 25.552,9 25,9 L25,9 Z" id="Fill-2" sketch:type="MSShapeGroup"></path>
            </g>
        </g>
    </g>
</svg>