<?xml version="1.0" encoding="UTF-8" standalone="no"?>
<svg width="47px" height="58px" viewBox="0 0 47 58" version="1.1" xmlns="http://www.w3.org/2000/svg" xmlns:xlink="http://www.w3.org/1999/xlink" xmlns:sketch="http://www.bohemiancoding.com/sketch/ns">
    <!-- Generator: Sketch 3.2.2 (9983) - http://www.bohemiancoding.com/sketch -->
    <title>317 - Mute (Solid)</title>
    <desc>Created with Sketch.</desc>
    <defs></defs>
    <g id="Page-1" stroke="none" stroke-width="1" fill="none" fill-rule="evenodd" sketch:type="MSPage">
        <g id="Icons" sketch:type="MSArtboardGroup" transform="translate(-487.000000, -1078.000000)" fill="#000000">
            <g id="317---Mute-(Solid)" sketch:type="MSLayerGroup" transform="translate(486.000000, 1078.000000)">
                <path d="M25,46 C31.065,46 36,41.065 36,35 L36,20.414 L15.649,40.765 C17.59,43.9 21.05,46 25,46" id="Fill-745" sketch:type="MSShapeGroup"></path>
                <path d="M36,11 C36,4.935 31.065,0 25,0 C18.935,0 14,4.935 14,11 L14,33.586 L36,11.586 L36,11" id="Fill-746" sketch:type="MSShapeGroup"></path>
                <path d="M47.707,4.293 C47.316,3.902 46.684,3.902 46.293,4.293 L11.589,38.997 C11.21,37.729 11,36.389 11,35 L11,29 C11,28.447 10.552,28 10,28 C9.448,28 9,28.447 9,29 L9,35 C9,36.96 9.372,38.83 10.019,40.567 L1.293,49.293 C0.902,49.684 0.902,50.316 1.293,50.707 C1.488,50.902 1.744,51 2,51 C2.256,51 2.512,50.902 2.707,50.707 L10.888,42.526 C13.437,47.285 18.322,50.596 24,50.949 L24,56 L19,56 C18.448,56 18,56.447 18,57 C18,57.553 18.448,58 19,58 L31,58 C31.552,58 32,57.553 32,57 C32,56.447 31.552,56 31,56 L26,56 L26,50.949 C34.356,50.429 41,43.485 41,35 L41,29 C41,28.447 40.552,28 40,28 C39.448,28 39,28.447 39,29 L39,35 C39,42.72 32.72,49 25,49 C19.441,49 14.643,45.735 12.384,41.03 L47.707,5.707 C48.098,5.316 48.098,4.684 47.707,4.293" id="Fill-747" sketch:type="MSShapeGroup"></path>
            </g>
        </g>
    </g>
</svg>