<?xml version="1.0" encoding="UTF-8" standalone="no"?>
<svg width="60px" height="36px" viewBox="0 0 60 36" version="1.1" xmlns="http://www.w3.org/2000/svg" xmlns:xlink="http://www.w3.org/1999/xlink" xmlns:sketch="http://www.bohemiancoding.com/sketch/ns">
    <!-- Generator: Sketch 3.2.2 (9983) - http://www.bohemiancoding.com/sketch -->
    <title>321 - ON (Solid)</title>
    <desc>Created with Sketch.</desc>
    <defs></defs>
    <g id="Page-1" stroke="none" stroke-width="1" fill="none" fill-rule="evenodd" sketch:type="MSPage">
        <g id="Icons" sketch:type="MSArtboardGroup" transform="translate(-1200.000000, -970.000000)" fill="#000000">
            <g id="321---ON-(Solid)" sketch:type="MSLayerGroup" transform="translate(1200.000000, 970.000000)">
                <path d="M42,0 L18,0 C8.075,0 0,8.075 0,18 C0,27.925 8.075,36 18,36 L42,36 C51.925,36 60,27.925 60,18 C60,8.075 51.925,0 42,0 L42,0 Z M18,31 C10.832,31 5,25.168 5,18 C5,10.832 10.832,5 18,5 C25.168,5 31,10.832 31,18 C31,25.168 25.168,31 18,31 L18,31 Z M49.707,14.707 L41.707,22.707 C41.512,22.902 41.256,23 41,23 C40.744,23 40.488,22.902 40.293,22.707 L36.293,18.707 C35.902,18.316 35.902,17.684 36.293,17.293 C36.684,16.902 37.316,16.902 37.707,17.293 L41,20.586 L48.293,13.293 C48.684,12.902 49.316,12.902 49.707,13.293 C50.098,13.684 50.098,14.316 49.707,14.707 L49.707,14.707 Z" id="Fill-741" sketch:type="MSShapeGroup"></path>
            </g>
        </g>
    </g>
</svg>