<?xml version="1.0" encoding="UTF-8" standalone="no"?>
<svg width="60px" height="36px" viewBox="0 0 60 36" version="1.1" xmlns="http://www.w3.org/2000/svg" xmlns:xlink="http://www.w3.org/1999/xlink" xmlns:sketch="http://www.bohemiancoding.com/sketch/ns">
    <!-- Generator: Sketch 3.2.2 (9983) - http://www.bohemiancoding.com/sketch -->
    <title>322 - OFF (Solid)</title>
    <desc>Created with Sketch.</desc>
    <defs></defs>
    <g id="Page-1" stroke="none" stroke-width="1" fill="none" fill-rule="evenodd" sketch:type="MSPage">
        <g id="Icons" sketch:type="MSArtboardGroup" transform="translate(-1080.000000, -970.000000)" fill="#000000">
            <g id="322---OFF-(Solid)" sketch:type="MSLayerGroup" transform="translate(1080.000000, 970.000000)">
                <path d="M42,0 L18,0 C8.075,0 0,8.075 0,18 C0,27.925 8.075,36 18,36 L42,36 C51.925,36 60,27.925 60,18 C60,8.075 51.925,0 42,0 L42,0 Z M18,26 C18,26.553 17.553,27 17,27 C16.447,27 16,26.553 16,26 L16,10 C16,9.447 16.447,9 17,9 C17.553,9 18,9.447 18,10 L18,26 L18,26 Z M42,31 C34.832,31 29,25.168 29,18 C29,10.832 34.832,5 42,5 C49.168,5 55,10.832 55,18 C55,25.168 49.168,31 42,31 L42,31 Z" id="Fill-740" sketch:type="MSShapeGroup"></path>
            </g>
        </g>
    </g>
</svg>