<?xml version="1.0" encoding="UTF-8" standalone="no"?>
<svg width="60px" height="60px" viewBox="0 0 60 60" version="1.1" xmlns="http://www.w3.org/2000/svg" xmlns:xlink="http://www.w3.org/1999/xlink" xmlns:sketch="http://www.bohemiancoding.com/sketch/ns">
    <!-- Generator: Sketch 3.2.2 (9983) - http://www.bohemiancoding.com/sketch -->
    <title>323 - ON OFF Switch (Solid)</title>
    <desc>Created with Sketch.</desc>
    <defs></defs>
    <g id="Page-1" stroke="none" stroke-width="1" fill="none" fill-rule="evenodd" sketch:type="MSPage">
        <g id="Icons" sketch:type="MSArtboardGroup" transform="translate(-960.000000, -957.000000)">
            <g id="323---ON-OFF-Switch-(Solid)" sketch:type="MSLayerGroup" transform="translate(960.000000, 957.000000)">
                <path d="M52.472,0 L7.528,0 C3.377,0 0,3.377 0,7.528 L0,52.472 C0,56.623 3.377,60 7.528,60 L52.472,60 C56.623,60 60,56.623 60,52.472 L60,7.528 C60,3.377 56.623,0 52.472,0 L52.472,0 Z M58,52.472 C58,55.52 55.52,58 52.472,58 L7.528,58 C4.481,58 2,55.52 2,52.472 L2,7.528 C2,4.481 4.481,2 7.528,2 L52.472,2 C55.52,2 58,4.481 58,7.528 L58,52.472 L58,52.472 Z" id="Fill-3" fill="#000000" sketch:type="MSShapeGroup"></path>
                <path d="M44,6 L16,6 C9.935,6 5,10.935 5,17 C5,23.065 9.935,28 16,28 L44,28 C50.065,28 55,23.065 55,17 C55,10.935 50.065,6 44,6 L44,6 Z M44,24 C40.134,24 37,20.866 37,17 C37,13.134 40.134,10 44,10 C47.866,10 51,13.134 51,17 C51,20.866 47.866,24 44,24 L44,24 Z" id="Fill-4" fill="#000000" sketch:type="MSShapeGroup"></path>
                <path d="M44,55 L16,55 C9.383,55 4,49.617 4,43 C4,36.383 9.383,31 16,31 L44,31 C50.617,31 56,36.383 56,43 C56,49.617 50.617,55 44,55 L44,55 Z M16,33 C10.486,33 6,37.486 6,43 C6,48.514 10.486,53 16,53 L44,53 C49.514,53 54,48.514 54,43 C54,37.486 49.514,33 44,33 L16,33 L16,33 Z M16,51 C11.589,51 8,47.411 8,43 C8,38.589 11.589,35 16,35 C20.411,35 24,38.589 24,43 C24,47.411 20.411,51 16,51 L16,51 Z M16,37 C12.691,37 10,39.691 10,43 C10,46.309 12.691,49 16,49 C19.309,49 22,46.309 22,43 C22,39.691 19.309,37 16,37 L16,37 Z" id="Fill-5" fill="#231F1F" sketch:type="MSShapeGroup"></path>
            </g>
        </g>
    </g>
</svg>