<?xml version="1.0" encoding="UTF-8" standalone="no"?>
<svg width="60px" height="60px" viewBox="0 0 60 60" version="1.1" xmlns="http://www.w3.org/2000/svg" xmlns:xlink="http://www.w3.org/1999/xlink" xmlns:sketch="http://www.bohemiancoding.com/sketch/ns">
    <!-- Generator: Sketch 3.2.2 (9983) - http://www.bohemiancoding.com/sketch -->
    <title>324 - ON OFF Switch (Solid)</title>
    <desc>Created with Sketch.</desc>
    <defs></defs>
    <g id="Page-1" stroke="none" stroke-width="1" fill="none" fill-rule="evenodd" sketch:type="MSPage">
        <g id="Icons" sketch:type="MSArtboardGroup" transform="translate(-840.000000, -957.000000)">
            <g id="324---ON-OFF-Switch-(Solid)" sketch:type="MSLayerGroup" transform="translate(840.000000, 957.000000)">
                <path d="M46,34 C52.617,34 58,39.383 58,46 C58,52.617 52.617,58 46,58 L14,58 C7.383,58 2,52.617 2,46 C2,39.383 7.383,34 14,34 L46,34 L46,34 Z M14,56 C19.514,56 24,51.514 24,46 C24,40.486 19.514,36 14,36 C8.486,36 4,40.486 4,46 C4,51.514 8.486,56 14,56 L14,56 Z M46,32 L14,32 C6.28,32 0,38.28 0,46 C0,53.72 6.28,60 14,60 L46,60 C53.72,60 60,53.72 60,46 C60,38.28 53.72,32 46,32 L46,32 Z M14,54 C9.589,54 6,50.411 6,46 C6,41.589 9.589,38 14,38 C18.411,38 22,41.589 22,46 C22,50.411 18.411,54 14,54 L14,54 Z" id="Fill-1" fill="#231F1F" sketch:type="MSShapeGroup"></path>
                <path d="M14,28 L46,28 C53.72,28 60,21.72 60,14 C60,6.28 53.72,0 46,0 L14,0 C6.28,0 0,6.28 0,14 C0,21.72 6.28,28 14,28 L14,28 Z M46,4 C51.514,4 56,8.486 56,14 C56,19.514 51.514,24 46,24 C40.486,24 36,19.514 36,14 C36,8.486 40.486,4 46,4 L46,4 Z" id="Fill-2" fill="#000000" sketch:type="MSShapeGroup"></path>
            </g>
        </g>
    </g>
</svg>