<?xml version="1.0" encoding="UTF-8" standalone="no"?>
<svg width="52px" height="51px" viewBox="0 0 52 51" version="1.1" xmlns="http://www.w3.org/2000/svg" xmlns:xlink="http://www.w3.org/1999/xlink" xmlns:sketch="http://www.bohemiancoding.com/sketch/ns">
    <!-- Generator: Sketch 3.2.2 (9983) - http://www.bohemiancoding.com/sketch -->
    <title>325 - Knob (Solid)</title>
    <desc>Created with Sketch.</desc>
    <defs></defs>
    <g id="Page-1" stroke="none" stroke-width="1" fill="none" fill-rule="evenodd" sketch:type="MSPage">
        <g id="Icons" sketch:type="MSArtboardGroup" transform="translate(-724.000000, -961.000000)" fill="#000000">
            <g id="325---Knob-(Solid)" sketch:type="MSLayerGroup" transform="translate(724.000000, 961.000000)">
                <path d="M26.707,34.707 C26.512,34.902 26.256,35 26,35 C25.744,35 25.488,34.902 25.293,34.707 C24.902,34.316 24.902,33.684 25.293,33.293 L37.279,21.307 C34.165,18.533 30.205,17 26,17 C21.459,17 17.19,18.769 13.98,21.979 C10.769,25.19 9,29.459 9,34 C9,38.541 10.769,42.81 13.98,46.021 C17.19,49.231 21.459,51 26,51 C30.541,51 34.81,49.231 38.021,46.021 C41.232,42.81 43,38.541 43,34 C43,29.795 41.467,25.835 38.693,22.721 L26.707,34.707" id="Fill-326" sketch:type="MSShapeGroup"></path>
                <path d="M26,8 C26.553,8 27,7.553 27,7 L27,1 C27,0.447 26.553,0 26,0 C25.447,0 25,0.447 25,1 L25,7 C25,7.553 25.447,8 26,8" id="Fill-327" sketch:type="MSShapeGroup"></path>
                <path d="M51.456,10.544 C51.065,10.153 50.433,10.153 50.042,10.544 L45.799,14.787 C45.408,15.178 45.408,15.811 45.799,16.201 C45.994,16.396 46.25,16.494 46.506,16.494 C46.762,16.494 47.018,16.396 47.213,16.201 L51.456,11.958 C51.847,11.567 51.847,10.935 51.456,10.544" id="Fill-328" sketch:type="MSShapeGroup"></path>
                <path d="M1.958,10.544 C1.567,10.153 0.935,10.153 0.544,10.544 C0.153,10.935 0.153,11.567 0.544,11.958 L4.787,16.201 C4.982,16.396 5.238,16.494 5.494,16.494 C5.75,16.494 6.006,16.396 6.201,16.201 C6.592,15.811 6.592,15.178 6.201,14.787 L1.958,10.544" id="Fill-329" sketch:type="MSShapeGroup"></path>
                <path d="M33.247,8.954 L33.507,8.988 C33.948,8.988 34.352,8.693 34.472,8.247 L36.024,2.451 C36.167,1.918 35.851,1.369 35.317,1.227 C34.786,1.085 34.235,1.4 34.093,1.934 L32.54,7.729 C32.398,8.263 32.714,8.812 33.247,8.954" id="Fill-330" sketch:type="MSShapeGroup"></path>
                <path d="M17.528,8.247 C17.648,8.694 18.052,8.988 18.493,8.988 L18.753,8.954 C19.286,8.812 19.602,8.263 19.46,7.729 L17.907,1.934 C17.765,1.399 17.216,1.084 16.683,1.227 C16.149,1.369 15.833,1.918 15.976,2.451 L17.528,8.247" id="Fill-331" sketch:type="MSShapeGroup"></path>
                <path d="M44,4.823 C43.523,4.548 42.91,4.712 42.634,5.189 L39.634,10.386 C39.357,10.864 39.521,11.476 40,11.752 C40.157,11.843 40.329,11.886 40.499,11.886 C40.845,11.886 41.181,11.706 41.366,11.386 L44.366,6.189 C44.643,5.711 44.479,5.1 44,4.823" id="Fill-332" sketch:type="MSShapeGroup"></path>
                <path d="M11.501,11.886 C11.671,11.886 11.843,11.843 12,11.752 C12.479,11.476 12.643,10.864 12.366,10.386 L9.366,5.189 C9.089,4.71 8.476,4.548 8,4.823 C7.521,5.1 7.357,5.711 7.634,6.189 L10.634,11.386 C10.819,11.707 11.155,11.886 11.501,11.886" id="Fill-333" sketch:type="MSShapeGroup"></path>
            </g>
        </g>
    </g>
</svg>