<?xml version="1.0" encoding="UTF-8" standalone="no"?>
<svg width="60px" height="48px" viewBox="0 0 60 48" version="1.1" xmlns="http://www.w3.org/2000/svg" xmlns:xlink="http://www.w3.org/1999/xlink" xmlns:sketch="http://www.bohemiancoding.com/sketch/ns">
    <!-- Generator: Sketch 3.2.2 (9983) - http://www.bohemiancoding.com/sketch -->
    <title>326 - Knob (Solid)</title>
    <desc>Created with Sketch.</desc>
    <defs></defs>
    <g id="Page-1" stroke="none" stroke-width="1" fill="none" fill-rule="evenodd" sketch:type="MSPage">
        <g id="Icons" sketch:type="MSArtboardGroup" transform="translate(-600.000000, -964.000000)" fill="#000000">
            <g id="326---Knob-(Solid)" sketch:type="MSLayerGroup" transform="translate(600.000000, 964.000000)">
                <path d="M30,0 C13.458,0 0,13.458 0,30 C0,30.553 0.448,31 1,31 C1.552,31 2,30.553 2,30 C2,14.561 14.561,2 30,2 C45.44,2 58,14.561 58,30 C58,30.553 58.447,31 59,31 C59.553,31 60,30.553 60,30 C60,13.458 46.542,0 30,0" id="Fill-324" sketch:type="MSShapeGroup"></path>
                <path d="M30.707,31.707 C30.512,31.902 30.256,32 30,32 C29.744,32 29.488,31.902 29.293,31.707 C28.902,31.316 28.902,30.684 29.293,30.293 L41.279,18.307 C38.165,15.533 34.205,14 30,14 C25.459,14 21.19,15.769 17.98,18.979 C14.769,22.19 13,26.459 13,31 C13,35.541 14.769,39.81 17.98,43.021 C21.19,46.231 25.459,48 30,48 C34.541,48 38.81,46.231 42.021,43.021 C45.232,39.81 47,35.541 47,31 C47,26.795 45.467,22.835 42.693,19.721 L30.707,31.707" id="Fill-325" sketch:type="MSShapeGroup"></path>
            </g>
        </g>
    </g>
</svg>