<?xml version="1.0" encoding="UTF-8" standalone="no"?>
<svg width="60px" height="32px" viewBox="0 0 60 32" version="1.1" xmlns="http://www.w3.org/2000/svg" xmlns:xlink="http://www.w3.org/1999/xlink" xmlns:sketch="http://www.bohemiancoding.com/sketch/ns">
    <!-- Generator: Sketch 3.2.2 (9983) - http://www.bohemiancoding.com/sketch -->
    <title>327 - ON Trigger (Solid)</title>
    <desc>Created with Sketch.</desc>
    <defs></defs>
    <g id="Page-1" stroke="none" stroke-width="1" fill="none" fill-rule="evenodd" sketch:type="MSPage">
        <g id="Icons" sketch:type="MSArtboardGroup" transform="translate(-480.000000, -971.000000)" fill="#000000">
            <g id="327---ON-Trigger-(Solid)" sketch:type="MSLayerGroup" transform="translate(480.000000, 971.000000)">
                <path d="M56.008,0 L3.992,0 C1.791,0 0,1.791 0,3.992 L0,28.008 C0,30.209 1.791,32 3.992,32 L56.008,32 C58.209,32 60,30.209 60,28.008 L60,3.992 C60,1.791 58.209,0 56.008,0 L56.008,0 Z M28.553,30 L3.992,30 C2.894,30 2,29.106 2,28.008 L2,3.992 C2,2.894 2.894,2 3.992,2 L28.553,2 C28.211,2.589 28,3.263 28,3.992 L28,28.008 C28,28.737 28.211,29.411 28.553,30 L28.553,30 Z M42,19 C42,19.553 41.552,20 41,20 C40.448,20 40,19.553 40,19 L40,13 C40,12.447 40.448,12 41,12 C41.552,12 42,12.447 42,13 L42,19 L42,19 Z M45,19 C45,19.553 44.552,20 44,20 C43.448,20 43,19.553 43,19 L43,13 C43,12.447 43.448,12 44,12 C44.552,12 45,12.447 45,13 L45,19 L45,19 Z M48,19 C48,19.553 47.552,20 47,20 C46.448,20 46,19.553 46,19 L46,13 C46,12.447 46.448,12 47,12 C47.552,12 48,12.447 48,13 L48,19 L48,19 Z" id="Fill-734" sketch:type="MSShapeGroup"></path>
            </g>
        </g>
    </g>
</svg>