<?xml version="1.0" encoding="UTF-8" standalone="no"?>
<svg width="60px" height="32px" viewBox="0 0 60 32" version="1.1" xmlns="http://www.w3.org/2000/svg" xmlns:xlink="http://www.w3.org/1999/xlink" xmlns:sketch="http://www.bohemiancoding.com/sketch/ns">
    <!-- Generator: Sketch 3.2.2 (9983) - http://www.bohemiancoding.com/sketch -->
    <title>328 - OFF Trigger (Solid)</title>
    <desc>Created with Sketch.</desc>
    <defs></defs>
    <g id="Page-1" stroke="none" stroke-width="1" fill="none" fill-rule="evenodd" sketch:type="MSPage">
        <g id="Icons" sketch:type="MSArtboardGroup" transform="translate(-360.000000, -971.000000)" fill="#000000">
            <g id="328---OFF-Trigger-(Solid)" sketch:type="MSLayerGroup" transform="translate(360.000000, 971.000000)">
                <path d="M56.008,0 L3.992,0 C1.791,0 0,1.791 0,3.992 L0,28.008 C0,30.209 1.791,32 3.992,32 L56.008,32 C58.209,32 60,30.209 60,28.008 L60,3.992 C60,1.791 58.209,0 56.008,0 L56.008,0 Z M14,19 C14,19.553 13.552,20 13,20 C12.448,20 12,19.553 12,19 L12,13 C12,12.447 12.448,12 13,12 C13.552,12 14,12.447 14,13 L14,19 L14,19 Z M17,19 C17,19.553 16.552,20 16,20 C15.448,20 15,19.553 15,19 L15,13 C15,12.447 15.448,12 16,12 C16.552,12 17,12.447 17,13 L17,19 L17,19 Z M20,19 C20,19.553 19.552,20 19,20 C18.448,20 18,19.553 18,19 L18,13 C18,12.447 18.448,12 19,12 C19.552,12 20,12.447 20,13 L20,19 L20,19 Z M58,28.008 C58,29.106 57.106,30 56.008,30 L31.447,30 C31.789,29.411 32,28.737 32,28.008 L32,3.992 C32,3.263 31.789,2.589 31.447,2 L56.008,2 C57.106,2 58,2.894 58,3.992 L58,28.008 L58,28.008 Z" id="Fill-733" sketch:type="MSShapeGroup"></path>
            </g>
        </g>
    </g>
</svg>