<?xml version="1.0" encoding="UTF-8" standalone="no"?>
<svg width="51px" height="50px" viewBox="0 0 51 50" version="1.1" xmlns="http://www.w3.org/2000/svg" xmlns:xlink="http://www.w3.org/1999/xlink" xmlns:sketch="http://www.bohemiancoding.com/sketch/ns">
    <!-- Generator: Sketch 3.2.2 (9983) - http://www.bohemiancoding.com/sketch -->
    <title>331 - Exit Window (Solid)</title>
    <desc>Created with Sketch.</desc>
    <defs></defs>
    <g id="Page-1" stroke="none" stroke-width="1" fill="none" fill-rule="evenodd" sketch:type="MSPage">
        <g id="Icons" sketch:type="MSArtboardGroup" transform="translate(-1205.000000, -841.000000)" fill="#000000">
            <g id="331---Exit-Window-(Solid)" sketch:type="MSLayerGroup" transform="translate(1205.000000, 841.000000)">
                <path d="M45,0 L0,0 L0,43 L5,43 L5,6 L45,6 L45,0" id="Fill-726" sketch:type="MSShapeGroup"></path>
                <path d="M7,50 L51,50 L51,8 L7,8 L7,50 Z M37.485,36.071 C37.876,36.462 37.876,37.094 37.485,37.485 C37.094,37.876 36.462,37.876 36.071,37.485 L29,30.414 L21.929,37.485 C21.538,37.876 20.906,37.876 20.515,37.485 C20.124,37.094 20.124,36.462 20.515,36.071 L27.586,29 L20.515,21.929 C20.124,21.538 20.124,20.906 20.515,20.515 C20.906,20.124 21.538,20.124 21.929,20.515 L29,27.586 L36.071,20.515 C36.462,20.124 37.094,20.124 37.485,20.515 C37.876,20.906 37.876,21.538 37.485,21.929 L30.414,29 L37.485,36.071 L37.485,36.071 Z" id="Fill-727" sketch:type="MSShapeGroup"></path>
            </g>
        </g>
    </g>
</svg>