<?xml version="1.0" encoding="UTF-8" standalone="no"?>
<svg width="51px" height="50px" viewBox="0 0 51 50" version="1.1" xmlns="http://www.w3.org/2000/svg" xmlns:xlink="http://www.w3.org/1999/xlink" xmlns:sketch="http://www.bohemiancoding.com/sketch/ns">
    <!-- Generator: Sketch 3.2.2 (9983) - http://www.bohemiancoding.com/sketch -->
    <title>332 - Add Window (Solid)</title>
    <desc>Created with Sketch.</desc>
    <defs></defs>
    <g id="Page-1" stroke="none" stroke-width="1" fill="none" fill-rule="evenodd" sketch:type="MSPage">
        <g id="Icons" sketch:type="MSArtboardGroup" transform="translate(-1085.000000, -841.000000)" fill="#000000">
            <g id="332---Add-Window-(Solid)" sketch:type="MSLayerGroup" transform="translate(1085.000000, 841.000000)">
                <path d="M45,0 L0,0 L0,43 L5,43 L5,6 L45,6 L45,0" id="Fill-724" sketch:type="MSShapeGroup"></path>
                <path d="M7,50 L51,50 L51,8 L7,8 L7,50 Z M40,30 L30,30 L30,40 C30,40.553 29.553,41 29,41 C28.447,41 28,40.553 28,40 L28,30 L18,30 C17.447,30 17,29.553 17,29 C17,28.447 17.447,28 18,28 L28,28 L28,18 C28,17.447 28.447,17 29,17 C29.553,17 30,17.447 30,18 L30,28 L40,28 C40.553,28 41,28.447 41,29 C41,29.553 40.553,30 40,30 L40,30 Z" id="Fill-725" sketch:type="MSShapeGroup"></path>
            </g>
        </g>
    </g>
</svg>