<?xml version="1.0" encoding="UTF-8" standalone="no"?>
<svg width="55px" height="55px" viewBox="0 0 55 55" version="1.1" xmlns="http://www.w3.org/2000/svg" xmlns:xlink="http://www.w3.org/1999/xlink" xmlns:sketch="http://www.bohemiancoding.com/sketch/ns">
    <!-- Generator: Sketch 3.2.2 (9983) - http://www.bohemiancoding.com/sketch -->
    <title>333 - Exit (Solid)</title>
    <desc>Created with Sketch.</desc>
    <defs></defs>
    <g id="Page-1" stroke="none" stroke-width="1" fill="none" fill-rule="evenodd" sketch:type="MSPage">
        <g id="Icons" sketch:type="MSArtboardGroup" transform="translate(-963.000000, -841.000000)" fill="#1A1718">
            <g id="333---Exit-(Solid)" sketch:type="MSLayerGroup" transform="translate(963.000000, 841.000000)">
                <path d="M54.923,23.618 C54.872,23.495 54.799,23.384 54.706,23.292 L42.707,11.293 C42.316,10.902 41.684,10.902 41.293,11.293 C40.902,11.684 40.902,12.316 41.293,12.707 L51.586,23 L36,23 L36,1 C36,0.447 35.553,0 35,0 L1,0 L0.909,0.019 L0.751,0.05 C0.658,0.075 0.573,0.109 0.493,0.158 L0.41,0.192 L0.327,0.269 L0.277,0.316 C0.2,0.397 0.138,0.489 0.093,0.589 L0.071,0.649 C0.029,0.761 0,0.878 0,1 L0,47 C0,47.125 0.029,47.243 0.072,47.355 L0.125,47.458 L0.257,47.654 L0.347,47.744 L0.539,47.874 L0.65,47.93 L0.697,47.953 L22.697,54.953 C22.796,54.984 22.898,55 23,55 C23.21,55 23.417,54.934 23.59,54.808 C23.848,54.619 24,54.319 24,54 L24,48 L35,48 C35.553,48 36,47.553 36,47 L36,25 L51.586,25 L41.293,35.293 C40.902,35.684 40.902,36.316 41.293,36.707 C41.488,36.902 41.744,37 42,37 C42.256,37 42.512,36.902 42.707,36.707 L54.706,24.708 C54.799,24.616 54.872,24.505 54.923,24.382 C55.024,24.138 55.024,23.863 54.923,23.618 L54.923,23.618 Z M20.929,32.371 C20.773,32.763 20.397,33 20,33 C19.876,33 19.75,32.978 19.629,32.929 L14.629,30.929 C14.116,30.724 13.866,30.142 14.071,29.629 C14.276,29.114 14.862,28.866 15.371,29.071 L20.371,31.071 C20.884,31.276 21.134,31.858 20.929,32.371 L20.929,32.371 Z M34,46 L24,46 L24,8 C24,7.564 23.718,7.179 23.303,7.047 L7.441,2 L34,2 L34,46 L34,46 Z" id="Fill-728" sketch:type="MSShapeGroup"></path>
            </g>
        </g>
    </g>
</svg>