<?xml version="1.0" encoding="UTF-8" standalone="no"?>
<svg width="53px" height="55px" viewBox="0 0 53 55" version="1.1" xmlns="http://www.w3.org/2000/svg" xmlns:xlink="http://www.w3.org/1999/xlink" xmlns:sketch="http://www.bohemiancoding.com/sketch/ns">
    <!-- Generator: Sketch 3.2.2 (9983) - http://www.bohemiancoding.com/sketch -->
    <title>334 - Exit (Solid)</title>
    <desc>Created with Sketch.</desc>
    <defs></defs>
    <g id="Page-1" stroke="none" stroke-width="1" fill="none" fill-rule="evenodd" sketch:type="MSPage">
        <g id="Icons" sketch:type="MSArtboardGroup" transform="translate(-844.000000, -841.000000)" fill="#1A1718">
            <g id="334---Exit-(Solid)" sketch:type="MSLayerGroup" transform="translate(844.000000, 841.000000)">
                <path d="M52.923,23.618 C52.872,23.495 52.799,23.384 52.706,23.292 L40.707,11.293 C40.316,10.902 39.684,10.902 39.293,11.293 C38.902,11.684 38.902,12.316 39.293,12.707 L49.586,23 L28,23 C27.447,23 27,23.447 27,24 C27,24.553 27.447,25 28,25 L49.586,25 L39.293,35.293 C38.902,35.684 38.902,36.316 39.293,36.707 C39.488,36.902 39.744,37 40,37 C40.256,37 40.512,36.902 40.707,36.707 L52.706,24.708 C52.799,24.616 52.872,24.505 52.923,24.382 C53.024,24.138 53.024,23.863 52.923,23.618" id="Fill-85" sketch:type="MSShapeGroup"></path>
                <path d="M35,29 C34.447,29 34,29.447 34,30 L34,46 L24,46 L24,8 C24,7.564 23.718,7.179 23.303,7.047 L7.441,2 L34,2 L34,18 C34,18.553 34.447,19 35,19 C35.553,19 36,18.553 36,18 L36,1 C36,0.447 35.553,0 35,0 L1,0 L0.909,0.019 L0.751,0.05 C0.658,0.075 0.573,0.109 0.493,0.158 L0.41,0.192 L0.327,0.269 L0.277,0.316 C0.2,0.397 0.138,0.489 0.093,0.589 L0.071,0.649 C0.029,0.761 0,0.878 0,1 L0,47 C0,47.125 0.029,47.243 0.072,47.355 L0.125,47.458 L0.257,47.654 L0.347,47.744 L0.539,47.874 L0.65,47.93 L0.697,47.953 L22.697,54.953 C22.796,54.984 22.898,55 23,55 C23.21,55 23.417,54.934 23.59,54.808 C23.848,54.619 24,54.319 24,54 L24,48 L35,48 C35.553,48 36,47.553 36,47 L36,30 C36,29.447 35.553,29 35,29" id="Fill-86" sketch:type="MSShapeGroup"></path>
            </g>
        </g>
    </g>
</svg>