<?xml version="1.0" encoding="UTF-8" standalone="no"?>
<svg width="48px" height="56px" viewBox="0 0 48 56" version="1.1" xmlns="http://www.w3.org/2000/svg" xmlns:xlink="http://www.w3.org/1999/xlink" xmlns:sketch="http://www.bohemiancoding.com/sketch/ns">
    <!-- Generator: Sketch 3.2.2 (9983) - http://www.bohemiancoding.com/sketch -->
    <title>335 - Enter (Solid)</title>
    <desc>Created with Sketch.</desc>
    <defs></defs>
    <g id="Page-1" stroke="none" stroke-width="1" fill="none" fill-rule="evenodd" sketch:type="MSPage">
        <g id="Icons" sketch:type="MSArtboardGroup" transform="translate(-724.000000, -839.000000)" fill="#1A1718">
            <g id="335---Enter-(Solid)" sketch:type="MSLayerGroup" transform="translate(724.000000, 839.000000)">
                <path d="M21.293,39.293 C20.902,39.684 20.902,40.316 21.293,40.707 C21.488,40.902 21.744,41 22,41 C22.256,41 22.512,40.902 22.707,40.707 L34.706,28.708 C34.799,28.616 34.872,28.505 34.923,28.382 C35.024,28.138 35.024,27.862 34.923,27.618 C34.872,27.495 34.799,27.384 34.706,27.292 L22.707,15.293 C22.316,14.902 21.684,14.902 21.293,15.293 C20.902,15.684 20.902,16.316 21.293,16.707 L31.586,27 L1,27 C0.447,27 0,27.447 0,28 C0,28.553 0.447,29 1,29 L31.586,29 L21.293,39.293" id="Fill-722" sketch:type="MSShapeGroup"></path>
                <path d="M47,0 L10,0 C9.447,0 9,0.447 9,1 L9,23 L21.93,23 L18.465,19.535 C17.521,18.592 17,17.336 17,16 C17,14.664 17.521,13.408 18.465,12.465 C19.408,11.521 20.664,11 22,11 C23.336,11 24.592,11.521 25.536,12.465 L37.532,24.462 C37.76,24.688 37.971,24.946 38.158,25.227 C38.224,25.323 38.276,25.423 38.327,25.524 L38.421,25.697 C38.492,25.823 38.56,25.95 38.617,26.086 C38.674,26.222 38.715,26.36 38.753,26.499 L38.807,26.678 C38.844,26.79 38.878,26.903 38.901,27.022 C39.03,27.671 39.03,28.329 38.901,28.978 C38.878,29.097 38.844,29.21 38.807,29.322 L38.753,29.501 C38.715,29.64 38.674,29.778 38.618,29.912 C38.559,30.054 38.487,30.186 38.414,30.315 L38.327,30.476 C38.276,30.577 38.224,30.677 38.159,30.772 C37.972,31.054 37.76,31.312 37.53,31.54 L25.535,43.535 C24.592,44.479 23.336,45 22,45 C20.664,45 19.408,44.479 18.464,43.535 C17.521,42.592 17,41.336 17,40 C17,38.664 17.521,37.408 18.465,36.465 L21.93,33 L9,33 L9,55 C9,55.553 9.447,56 10,56 L47,56 C47.553,56 48,55.553 48,55 L48,1 C48,0.447 47.553,0 47,0" id="Fill-723" sketch:type="MSShapeGroup"></path>
            </g>
        </g>
    </g>
</svg>