<?xml version="1.0" encoding="UTF-8" standalone="no"?>
<svg width="16px" height="60px" viewBox="0 0 16 60" version="1.1" xmlns="http://www.w3.org/2000/svg" xmlns:xlink="http://www.w3.org/1999/xlink" xmlns:sketch="http://www.bohemiancoding.com/sketch/ns">
    <!-- Generator: Sketch 3.2.2 (9983) - http://www.bohemiancoding.com/sketch -->
    <title>339 - More (Solid)</title>
    <desc>Created with Sketch.</desc>
    <defs></defs>
    <g id="Page-1" stroke="none" stroke-width="1" fill="none" fill-rule="evenodd" sketch:type="MSPage">
        <g id="Icons" sketch:type="MSArtboardGroup" transform="translate(-264.000000, -837.000000)" fill="#000000">
            <g id="339---More-(Solid)" sketch:type="MSLayerGroup" transform="translate(264.000000, 837.000000)">
                <path d="M8,16 C12.411,16 16,12.411 16,8 C16,3.589 12.411,0 8,0 C3.589,0 0,3.589 0,8 C0,12.411 3.589,16 8,16" id="Fill-54" sketch:type="MSShapeGroup"></path>
                <path d="M8,44 C3.589,44 0,47.589 0,52 C0,56.411 3.589,60 8,60 C12.411,60 16,56.411 16,52 C16,47.589 12.411,44 8,44" id="Fill-55" sketch:type="MSShapeGroup"></path>
                <path d="M8,22 C3.589,22 0,25.589 0,30 C0,34.411 3.589,38 8,38 C12.411,38 16,34.411 16,30 C16,25.589 12.411,22 8,22" id="Fill-56" sketch:type="MSShapeGroup"></path>
            </g>
        </g>
    </g>
</svg>