<?xml version="1.0" encoding="UTF-8" standalone="no"?>
<svg width="58px" height="57px" viewBox="0 0 58 57" version="1.1" xmlns="http://www.w3.org/2000/svg" xmlns:xlink="http://www.w3.org/1999/xlink" xmlns:sketch="http://www.bohemiancoding.com/sketch/ns">
    <!-- Generator: Sketch 3.2.2 (9983) - http://www.bohemiancoding.com/sketch -->
    <title>34 - Calendar Date (Solid)</title>
    <desc>Created with Sketch.</desc>
    <defs></defs>
    <g id="Page-1" stroke="none" stroke-width="1" fill="none" fill-rule="evenodd" sketch:type="MSPage">
        <g id="Icons" sketch:type="MSArtboardGroup" transform="translate(-841.000000, -4440.000000)" fill="#000000">
            <g id="34---Calendar-Date-(Solid)" sketch:type="MSLayerGroup" transform="translate(841.000000, 4440.000000)">
                <path d="M13,31 C13.256,31 13.512,30.903 13.707,30.707 L18,26.414 L18,49 L15,49 C14.447,49 14,49.447 14,50 C14,50.552 14.447,51 15,51 L23,51 C23.553,51 24,50.552 24,50 C24,49.447 23.553,49 23,49 L20,49 L20,24 C20,23.87 19.974,23.74 19.923,23.618 C19.822,23.373 19.627,23.178 19.382,23.077 C19.138,22.976 18.862,22.976 18.618,23.077 C18.495,23.128 18.384,23.202 18.292,23.294 L12.293,29.293 C11.902,29.684 11.902,30.317 12.293,30.707 C12.488,30.903 12.744,31 13,31" id="Fill-1231" sketch:type="MSShapeGroup"></path>
                <path d="M30,43 C30,47.411 33.589,51 38,51 C42.411,51 46,47.411 46,43 C46,39.93 44.26,37.262 41.716,35.921 C43.685,34.681 45,32.494 45,30 C45,26.141 41.859,23 38,23 C34.141,23 31,26.141 31,30 C31,32.494 32.315,34.681 34.284,35.921 C31.74,37.262 30,39.93 30,43 L30,43 Z M33,30 C33,27.243 35.243,25 38,25 C40.757,25 43,27.243 43,30 C43,32.757 40.757,35 38,35 C35.243,35 33,32.757 33,30 L33,30 Z M38,37 C41.309,37 44,39.692 44,43 C44,46.308 41.309,49 38,49 C34.691,49 32,46.308 32,43 C32,39.692 34.691,37 38,37 L38,37 Z" id="Fill-1232" sketch:type="MSShapeGroup"></path>
                <path d="M26,0 C25.447,0 25,0.447 25,1 C25,1.553 25.447,2 26,2 C27.302,2 28.402,2.839 28.816,4 L30.899,4 C30.434,1.72 28.414,0 26,0" id="Fill-1233" sketch:type="MSShapeGroup"></path>
                <path d="M32,0 C31.447,0 31,0.447 31,1 C31,1.553 31.447,2 32,2 C33.302,2 34.402,2.839 34.816,4 L36.899,4 C36.434,1.72 34.414,0 32,0" id="Fill-1234" sketch:type="MSShapeGroup"></path>
                <path d="M38,0 C37.447,0 37,0.447 37,1 C37,1.553 37.447,2 38,2 C39.302,2 40.402,2.839 40.816,4 L42.899,4 C42.434,1.72 40.414,0 38,0" id="Fill-1235" sketch:type="MSShapeGroup"></path>
                <path d="M42.899,4 C42.965,4.323 43,4.658 43,5 C43,7.757 40.757,10 38,10 C37.447,10 37,9.553 37,9 C37,8.447 37.447,8 38,8 C39.654,8 41,6.654 41,5 C41,4.647 40.928,4.315 40.816,4 L36.899,4 C36.965,4.323 37,4.658 37,5 C37,7.757 34.757,10 32,10 C31.447,10 31,9.553 31,9 C31,8.447 31.447,8 32,8 C33.654,8 35,6.654 35,5 C35,4.647 34.928,4.315 34.816,4 L30.899,4 C30.965,4.323 31,4.658 31,5 C31,7.757 28.757,10 26,10 C25.447,10 25,9.553 25,9 C25,8.447 25.447,8 26,8 C27.654,8 29,6.654 29,5 C29,4.647 28.928,4.315 28.816,4 L24.899,4 C24.965,4.323 25,4.658 25,5 C25,7.757 22.757,10 20,10 C19.447,10 19,9.553 19,9 C19,8.447 19.447,8 20,8 C21.654,8 23,6.654 23,5 C23,4.647 22.928,4.315 22.816,4 L17.184,4 C17.598,2.839 18.698,2 20,2 C21.302,2 22.402,2.839 22.816,4 L24.899,4 C24.434,1.72 22.414,0 20,0 C17.586,0 15.566,1.72 15.101,4 L0,4 L0,57 L58,57 L58,4 L42.899,4 L42.899,4 Z M2,18 L56,18 L56,55 L2,55 L2,18 Z" id="Fill-1236" sketch:type="MSShapeGroup"></path>
            </g>
        </g>
    </g>
</svg>