<?xml version="1.0" encoding="UTF-8" standalone="no"?>
<svg width="54px" height="55px" viewBox="0 0 54 55" version="1.1" xmlns="http://www.w3.org/2000/svg" xmlns:xlink="http://www.w3.org/1999/xlink" xmlns:sketch="http://www.bohemiancoding.com/sketch/ns">
    <!-- Generator: Sketch 3.2.2 (9983) - http://www.bohemiancoding.com/sketch -->
    <title>342 - Notification (Solid)</title>
    <desc>Created with Sketch.</desc>
    <defs></defs>
    <g id="Page-1" stroke="none" stroke-width="1" fill="none" fill-rule="evenodd" sketch:type="MSPage">
        <g id="Icons" sketch:type="MSArtboardGroup" transform="translate(-1086.000000, -717.000000)" fill="#000000">
            <g id="342---Notification-(Solid)" sketch:type="MSLayerGroup" transform="translate(1086.000000, 717.000000)">
                <path d="M54,10 C54,4.486 49.514,0 44,0 C39.531,0 35.739,2.947 34.461,7 L5.235,7 C2.349,7 0,9.349 0,12.235 L0,49.765 C0,52.651 2.349,55 5.235,55 L42.765,55 C45.651,55 48,52.651 48,49.765 L48,19.159 C51.527,17.612 54,14.091 54,10 L54,10 Z M46.654,17.538 C46.455,17.608 46.256,17.668 46.055,17.723 L45.946,17.75 C45.769,17.796 45.591,17.834 45.412,17.867 C45.32,17.884 45.226,17.897 45.133,17.91 C44.999,17.93 44.865,17.95 44.73,17.963 C44.489,17.985 44.246,18 44,18 C39.589,18 36,14.411 36,10 C36,9.42 36.069,8.823 36.206,8.223 C37.017,4.666 40.2,2 44,2 C48.411,2 52,5.589 52,10 C52,13.48 49.762,16.44 46.654,17.538 L46.654,17.538 Z" id="Fill-41" sketch:type="MSShapeGroup"></path>
            </g>
        </g>
    </g>
</svg>