<?xml version="1.0" encoding="UTF-8" standalone="no"?>
<svg width="57px" height="57px" viewBox="0 0 57 57" version="1.1" xmlns="http://www.w3.org/2000/svg" xmlns:xlink="http://www.w3.org/1999/xlink" xmlns:sketch="http://www.bohemiancoding.com/sketch/ns">
    <!-- Generator: Sketch 3.2.2 (9983) - http://www.bohemiancoding.com/sketch -->
    <title>343 - Add Application (Solid)</title>
    <desc>Created with Sketch.</desc>
    <defs></defs>
    <g id="Page-1" stroke="none" stroke-width="1" fill="none" fill-rule="evenodd" sketch:type="MSPage">
        <g id="Icons" sketch:type="MSArtboardGroup" transform="translate(-962.000000, -719.000000)" fill="#000000">
            <g id="343---Add-Application-(Solid)" sketch:type="MSLayerGroup" transform="translate(962.000000, 719.000000)">
                <path d="M22.66,0 L3.34,0 C1.498,0 0,1.498 0,3.34 L0,22.66 C0,24.502 1.498,26 3.34,26 L22.66,26 C24.502,26 26,24.502 26,22.66 L26,3.34 C26,1.498 24.502,0 22.66,0" id="Fill-37" sketch:type="MSShapeGroup"></path>
                <path d="M33.34,26 L52.66,26 C54.502,26 56,24.502 56,22.66 L56,3.34 C56,1.498 54.502,0 52.66,0 L33.34,0 C31.498,0 30,1.498 30,3.34 L30,22.66 C30,24.502 31.498,26 33.34,26" id="Fill-38" sketch:type="MSShapeGroup"></path>
                <path d="M22.66,30 L3.34,30 C1.498,30 0,31.498 0,33.34 L0,52.66 C0,54.502 1.498,56 3.34,56 L22.66,56 C24.502,56 26,54.502 26,52.66 L26,33.34 C26,31.498 24.502,30 22.66,30" id="Fill-39" sketch:type="MSShapeGroup"></path>
                <path d="M55,41 L45,41 L45,31 C45,29.896 44.105,29 43,29 C41.896,29 41,29.896 41,31 L41,41 L31,41 C29.896,41 29,41.896 29,43 C29,44.104 29.896,45 31,45 L41,45 L41,55 C41,56.104 41.896,57 43,57 C44.105,57 45,56.104 45,55 L45,45 L55,45 C56.105,45 57,44.104 57,43 C57,41.896 56.105,41 55,41" id="Fill-40" sketch:type="MSShapeGroup"></path>
            </g>
        </g>
    </g>
</svg>