<?xml version="1.0" encoding="UTF-8" standalone="no"?>
<svg width="55px" height="55px" viewBox="0 0 55 55" version="1.1" xmlns="http://www.w3.org/2000/svg" xmlns:xlink="http://www.w3.org/1999/xlink" xmlns:sketch="http://www.bohemiancoding.com/sketch/ns">
    <!-- Generator: Sketch 3.2.2 (9983) - http://www.bohemiancoding.com/sketch -->
    <title>344 - Broken Link (Solid)</title>
    <desc>Created with Sketch.</desc>
    <defs></defs>
    <g id="Page-1" stroke="none" stroke-width="1" fill="none" fill-rule="evenodd" sketch:type="MSPage">
        <g id="Icons" sketch:type="MSArtboardGroup" transform="translate(-843.000000, -721.000000)" fill="#1A1718">
            <g id="344---Broken-Link-(Solid)" sketch:type="MSLayerGroup" transform="translate(843.000000, 720.000000)">
                <path d="M51.17,4.794 C46.102,-0.274 37.854,-0.272 32.786,4.794 L23.594,13.986 C22.812,14.768 22.812,16.033 23.594,16.814 C24.375,17.596 25.641,17.596 26.422,16.814 L35.614,7.622 C37.306,5.932 39.565,5 41.977,5 C44.391,5 46.65,5.932 48.342,7.623 C50.033,9.314 50.965,11.574 50.965,13.987 C50.965,16.399 50.033,18.659 48.342,20.351 L36.321,32.372 C32.812,35.88 27.102,35.88 23.593,32.372 C22.812,31.591 21.546,31.591 20.765,32.372 C19.983,33.153 19.983,34.42 20.765,35.2 C23.299,37.734 26.628,39.001 29.957,39.001 C33.286,39.001 36.615,37.734 39.149,35.2 L51.17,23.179 C53.617,20.732 54.965,17.468 54.965,13.986 C54.965,10.506 53.617,7.241 51.17,4.794" id="Fill-29" sketch:type="MSShapeGroup"></path>
                <path d="M27.129,41.563 L19.351,49.342 C17.659,51.033 15.399,51.965 12.986,51.965 C10.574,51.965 8.313,51.033 6.622,49.342 C3.113,45.833 3.113,40.123 6.622,36.614 L17.937,25.3 C19.628,23.609 21.888,22.678 24.301,22.678 C26.713,22.678 28.973,23.609 30.664,25.3 C31.445,26.081 32.711,26.081 33.492,25.3 C34.273,24.519 34.273,23.253 33.492,22.472 C28.425,17.404 20.178,17.403 15.108,22.472 L3.794,33.786 C1.348,36.232 0,39.497 0,42.979 C0,46.459 1.348,49.724 3.795,52.17 C6.241,54.617 9.506,55.965 12.986,55.965 C16.468,55.965 19.732,54.617 22.179,52.17 L29.957,44.392 C30.738,43.61 30.738,42.345 29.957,41.563 C29.176,40.782 27.91,40.782 27.129,41.563" id="Fill-30" sketch:type="MSShapeGroup"></path>
                <path d="M34,45 C32.896,45 32,45.896 32,47 L32,53 C32,54.104 32.896,55 34,55 C35.104,55 36,54.104 36,53 L36,47 C36,45.896 35.104,45 34,45" id="Fill-31" sketch:type="MSShapeGroup"></path>
                <path d="M41.172,43.586 C40.391,42.805 39.125,42.805 38.344,43.586 C37.562,44.367 37.562,45.633 38.344,46.414 L42.586,50.656 C42.977,51.047 43.488,51.242 44,51.242 C44.512,51.242 45.023,51.047 45.414,50.656 C46.195,49.875 46.195,48.609 45.414,47.828 L41.172,43.586" id="Fill-32" sketch:type="MSShapeGroup"></path>
                <path d="M45.965,37 L39.965,37 C38.86,37 37.965,37.896 37.965,39 C37.965,40.104 38.86,41 39.965,41 L45.965,41 C47.069,41 47.965,40.104 47.965,39 C47.965,37.896 47.069,37 45.965,37" id="Fill-33" sketch:type="MSShapeGroup"></path>
                <path d="M18,14 C19.104,14 20,13.104 20,12 L20,6 C20,4.896 19.104,4 18,4 C16.896,4 16,4.896 16,6 L16,12 C16,13.104 16.896,14 18,14" id="Fill-34" sketch:type="MSShapeGroup"></path>
                <path d="M10.586,15.414 C10.977,15.805 11.488,16 12,16 C12.512,16 13.023,15.805 13.414,15.414 C14.195,14.633 14.195,13.367 13.414,12.586 L9.172,8.344 C8.391,7.563 7.125,7.563 6.344,8.344 C5.562,9.125 5.562,10.391 6.344,11.172 L10.586,15.414" id="Fill-35" sketch:type="MSShapeGroup"></path>
                <path d="M5.965,22 L11.965,22 C13.069,22 13.965,21.104 13.965,20 C13.965,18.896 13.069,18 11.965,18 L5.965,18 C4.86,18 3.965,18.896 3.965,20 C3.965,21.104 4.86,22 5.965,22" id="Fill-36" sketch:type="MSShapeGroup"></path>
            </g>
        </g>
    </g>
</svg>