<?xml version="1.0" encoding="UTF-8" standalone="no"?>
<svg width="60px" height="60px" viewBox="0 0 60 60" version="1.1" xmlns="http://www.w3.org/2000/svg" xmlns:xlink="http://www.w3.org/1999/xlink" xmlns:sketch="http://www.bohemiancoding.com/sketch/ns">
    <!-- Generator: Sketch 3.2.2 (9983) - http://www.bohemiancoding.com/sketch -->
    <title>346 - Link (Solid)</title>
    <desc>Created with Sketch.</desc>
    <defs></defs>
    <g id="Page-1" stroke="none" stroke-width="1" fill="none" fill-rule="evenodd" sketch:type="MSPage">
        <g id="Icons" sketch:type="MSArtboardGroup" transform="translate(-600.000000, -717.000000)" fill="#1A1718">
            <g id="346---Link-(Solid)" sketch:type="MSLayerGroup" transform="translate(599.000000, 717.000000)">
                <path d="M56.861,3.793 C54.415,1.347 51.152,0 47.672,0 C44.193,0 40.929,1.347 38.483,3.793 L29.413,12.863 C26.138,16.139 24.993,20.739 25.953,24.954 C25.011,24.741 24.042,24.62 23.052,24.62 C19.573,24.62 16.309,25.967 13.864,28.413 L4.793,37.483 C-0.273,42.55 -0.273,50.795 4.793,55.861 C7.239,58.308 10.502,59.654 13.982,59.654 C17.461,59.654 20.725,58.308 23.171,55.861 L32.241,46.791 C35.516,43.516 36.661,38.915 35.702,34.701 C36.643,34.913 37.612,35.034 38.602,35.034 C42.082,35.034 45.345,33.688 47.791,31.241 L56.861,22.171 C61.929,17.104 61.929,8.859 56.861,3.793 L56.861,3.793 Z M29.413,43.963 L20.343,53.033 C18.652,54.724 16.393,55.654 13.982,55.654 C11.571,55.654 9.312,54.724 7.621,53.033 C4.114,49.525 4.114,43.819 7.621,40.312 L16.692,31.241 C18.382,29.551 20.641,28.62 23.052,28.62 C24.776,28.62 26.418,29.104 27.834,29.992 L20.082,37.744 C19.301,38.525 19.301,39.791 20.082,40.572 C20.472,40.963 20.984,41.158 21.496,41.158 C22.008,41.158 22.52,40.963 22.91,40.572 L30.663,32.819 C32.845,36.293 32.433,40.942 29.413,43.963 L29.413,43.963 Z M54.033,19.343 L44.962,28.413 C43.272,30.104 41.013,31.034 38.602,31.034 C36.878,31.034 35.236,30.551 33.82,29.662 L41.572,21.91 C42.354,21.129 42.354,19.863 41.572,19.082 C40.792,18.301 39.524,18.301 38.744,19.082 L30.991,26.835 C28.809,23.361 29.221,18.712 32.241,15.691 L41.312,6.621 C43.002,4.931 45.261,4 47.672,4 C50.084,4 52.343,4.931 54.033,6.621 C55.724,8.312 56.654,10.57 56.654,12.982 C56.654,15.394 55.724,17.652 54.033,19.343 L54.033,19.343 Z" id="Fill-26" sketch:type="MSShapeGroup"></path>
            </g>
        </g>
    </g>
</svg>