<?xml version="1.0" encoding="UTF-8" standalone="no"?>
<svg width="48px" height="59px" viewBox="0 0 48 59" version="1.1" xmlns="http://www.w3.org/2000/svg" xmlns:xlink="http://www.w3.org/1999/xlink" xmlns:sketch="http://www.bohemiancoding.com/sketch/ns">
    <!-- Generator: Sketch 3.2.2 (9983) - http://www.bohemiancoding.com/sketch -->
    <title>347 - Trash Bin (Solid)</title>
    <desc>Created with Sketch.</desc>
    <defs></defs>
    <g id="Page-1" stroke="none" stroke-width="1" fill="none" fill-rule="evenodd" sketch:type="MSPage">
        <g id="Icons" sketch:type="MSArtboardGroup" transform="translate(-486.000000, -717.000000)" fill="#000000">
            <g id="347---Trash-Bin-(Solid)" sketch:type="MSLayerGroup" transform="translate(486.000000, 717.000000)">
                <path d="M47,6 L32.956,6 C32.846,4.75 32.461,2.642 31.143,1.289 C30.309,0.434 29.252,0 27.999,0 L18,0 C16.748,0 15.69,0.434 14.856,1.289 C13.538,2.642 13.153,4.75 13.043,6 L1,6 C0.448,6 0,6.447 0,7 C0,7.553 0.448,8 1,8 L47,8 C47.552,8 48,7.553 48,7 C48,6.447 47.552,6 47,6 L47,6 Z M15.053,6 C15.165,4.952 15.487,3.504 16.293,2.681 C16.74,2.223 17.299,2 18,2 L27.999,2 C28.7,2 29.259,2.223 29.706,2.681 C30.512,3.504 30.834,4.952 30.946,6 L15.053,6 L15.053,6 Z" id="Fill-705" sketch:type="MSShapeGroup"></path>
                <path d="M4.956,54.021 C4.993,55.743 6.065,59 9.864,59 L38.136,59 C41.935,59 43.007,55.743 43.043,54.042 L44.876,10 L3.124,10 L4.956,54.021 L4.956,54.021 Z M12,42 L36,42 C36.552,42 37,42.447 37,43 C37,43.553 36.552,44 36,44 L12,44 C11.448,44 11,43.553 11,43 C11,42.447 11.448,42 12,42 L12,42 Z M12,47 L36,47 C36.552,47 37,47.447 37,48 C37,48.553 36.552,49 36,49 L12,49 C11.448,49 11,48.553 11,48 C11,47.447 11.448,47 12,47 L12,47 Z M12,52 L36,52 C36.552,52 37,52.447 37,53 C37,53.553 36.552,54 36,54 L12,54 C11.448,54 11,53.553 11,53 C11,52.447 11.448,52 12,52 L12,52 Z" id="Fill-706" sketch:type="MSShapeGroup"></path>
            </g>
        </g>
    </g>
</svg>