<?xml version="1.0" encoding="UTF-8" standalone="no"?>
<svg width="41px" height="60px" viewBox="0 0 41 60" version="1.1" xmlns="http://www.w3.org/2000/svg" xmlns:xlink="http://www.w3.org/1999/xlink" xmlns:sketch="http://www.bohemiancoding.com/sketch/ns">
    <!-- Generator: Sketch 3.2.2 (9983) - http://www.bohemiancoding.com/sketch -->
    <title>349 - Trash Bin (Solid)</title>
    <desc>Created with Sketch.</desc>
    <defs></defs>
    <g id="Page-1" stroke="none" stroke-width="1" fill="none" fill-rule="evenodd" sketch:type="MSPage">
        <g id="Icons" sketch:type="MSArtboardGroup" transform="translate(-251.000000, -717.000000)" fill="#000000">
            <g id="349---Trash-Bin-(Solid)" sketch:type="MSLayerGroup" transform="translate(251.000000, 716.000000)">
                <path d="M40.284,11.198 C39.712,10.439 38.879,9.948 37.938,9.816 L28.586,8.502 L29.004,5.531 C29.115,4.74 28.911,3.951 28.427,3.31 C27.944,2.668 27.242,2.254 26.451,2.143 L18.529,1.029 C16.872,0.795 15.366,1.974 15.141,3.582 L14.723,6.554 L5.372,5.239 C3.408,4.961 1.622,6.357 1.355,8.266 L0.736,12.667 L9.088,13.841 L3.233,19.695 C3.144,19.785 3.091,19.895 3.032,20 L2,20 L2,57.271 C2,59.327 3.673,61 5.729,61 L34.271,61 C36.327,61 38,59.327 38,57.271 L38,20 L33,20 L33,17.201 L40.347,18.233 L40.965,13.834 C41.097,12.893 40.856,11.957 40.284,11.198 L40.284,11.198 Z M17.121,3.86 C17.196,3.325 17.692,2.929 18.25,3.01 L26.172,4.123 C26.435,4.16 26.669,4.299 26.83,4.514 C26.992,4.728 27.061,4.99 27.023,5.252 L26.606,8.223 L16.703,6.831 L17.121,3.86 L17.121,3.86 Z M5.757,20 L9.343,16.414 L12.929,20 L5.757,20 L5.757,20 Z M17,19 L23,19 L23,20 L17,20 L17,19 Z M28,19 L31,19 L31,20 L28,20 L28,19 Z M26,17 L26,20 L25,20 L25,17 L15,17 L15,19.244 L9.681,13.924 L31.57,17 L26,17 L26,17 Z" id="Fill-699" sketch:type="MSShapeGroup"></path>
            </g>
        </g>
    </g>
</svg>