<?xml version="1.0" encoding="UTF-8" standalone="no"?>
<svg width="59px" height="59px" viewBox="0 0 59 59" version="1.1" xmlns="http://www.w3.org/2000/svg" xmlns:xlink="http://www.w3.org/1999/xlink" xmlns:sketch="http://www.bohemiancoding.com/sketch/ns">
    <!-- Generator: Sketch 3.2.2 (9983) - http://www.bohemiancoding.com/sketch -->
    <title>35 - Blueprint (Solid)</title>
    <desc>Created with Sketch.</desc>
    <defs></defs>
    <g id="Page-1" stroke="none" stroke-width="1" fill="none" fill-rule="evenodd" sketch:type="MSPage">
        <g id="Icons" sketch:type="MSArtboardGroup" transform="translate(-720.000000, -4438.000000)" fill="#000000">
            <g id="35---Blueprint-(Solid)" sketch:type="MSLayerGroup" transform="translate(720.000000, 4438.000000)">
                <path d="M14,7 C14,3.141 10.859,0 7,0 C3.141,0 0,3.141 0,7 L0,52 L0.003,52 L0,52.059 C0,55.887 3.113,59 6.94,59 L59,59 L59,7 L14,7 L14,7 Z M57,57 L6.94,57 C4.216,57 2,54.784 2,52 C2,49.243 4.243,47 7,47 C9.757,47 12,49.243 12,52 L14,52 L14,9 L57,9 L57,57 L57,57 Z" id="Fill-594" sketch:type="MSShapeGroup"></path>
                <path d="M41.115,17.541 C41.291,17.664 41.492,17.724 41.691,17.724 C42.006,17.724 42.315,17.576 42.51,17.301 C42.828,16.85 42.721,16.226 42.269,15.906 L40.636,14.753 C40.183,14.436 39.56,14.543 39.241,14.993 C38.923,15.444 39.03,16.068 39.481,16.388 L41.115,17.541" id="Fill-595" sketch:type="MSShapeGroup"></path>
                <path d="M37,41 C37,41.553 37.447,42 38,42 L40,42 C40.553,42 41,41.553 41,41 C41,40.447 40.553,40 40,40 L38,40 C37.447,40 37,40.447 37,41" id="Fill-596" sketch:type="MSShapeGroup"></path>
                <path d="M46.017,21.001 C46.192,21.124 46.394,21.184 46.593,21.184 C46.907,21.184 47.216,21.036 47.411,20.761 C47.729,20.31 47.622,19.686 47.171,19.366 L45.537,18.213 C45.084,17.896 44.462,18.003 44.143,18.453 C43.824,18.904 43.932,19.528 44.383,19.848 L46.017,21.001" id="Fill-597" sketch:type="MSShapeGroup"></path>
                <path d="M36.213,14.081 C36.389,14.204 36.59,14.264 36.789,14.264 C37.104,14.264 37.412,14.116 37.607,13.841 C37.926,13.39 37.818,12.766 37.367,12.446 L35.733,11.293 C35.28,10.977 34.658,11.084 34.339,11.533 C34.021,11.985 34.128,12.609 34.579,12.928 L36.213,14.081" id="Fill-598" sketch:type="MSShapeGroup"></path>
                <path d="M50.92,24.461 C51.095,24.584 51.296,24.644 51.495,24.644 C51.81,24.644 52.118,24.496 52.313,24.22 C52.632,23.768 52.523,23.145 52.072,22.826 L50.437,21.673 C49.986,21.355 49.363,21.463 49.044,21.914 C48.726,22.365 48.834,22.989 49.285,23.308 L50.92,24.461" id="Fill-599" sketch:type="MSShapeGroup"></path>
                <path d="M29,41 C29,40.447 28.553,40 28,40 L26,40 C25.447,40 25,40.447 25,41 C25,41.553 25.447,42 26,42 L28,42 C28.553,42 29,41.553 29,41" id="Fill-600" sketch:type="MSShapeGroup"></path>
                <path d="M51,27.383 L51,29.383 C51,29.935 51.447,30.383 52,30.383 C52.553,30.383 53,29.935 53,29.383 L53,27.383 C53,26.83 52.553,26.383 52,26.383 C51.447,26.383 51,26.83 51,27.383" id="Fill-601" sketch:type="MSShapeGroup"></path>
                <path d="M43,41 C43,41.553 43.447,42 44,42 L46,42 C46.553,42 47,41.553 47,41 C47,40.447 46.553,40 46,40 L44,40 C43.447,40 43,40.447 43,41" id="Fill-602" sketch:type="MSShapeGroup"></path>
                <path d="M31,41 C31,41.553 31.447,42 32,42 L34,42 C34.553,42 35,41.553 35,41 C35,40.447 34.553,40 34,40 L32,40 C31.447,40 31,40.447 31,41" id="Fill-603" sketch:type="MSShapeGroup"></path>
                <path d="M52,36.383 C52.553,36.383 53,35.935 53,35.383 L53,33.383 C53,32.83 52.553,32.383 52,32.383 C51.447,32.383 51,32.83 51,33.383 L51,35.383 C51,35.935 51.447,36.383 52,36.383" id="Fill-604" sketch:type="MSShapeGroup"></path>
                <path d="M51,40 L50,40 C49.447,40 49,40.447 49,41 C49,41.553 49.447,42 50,42 L53,42 L53,39.383 C53,38.83 52.553,38.383 52,38.383 C51.447,38.383 51,38.83 51,39.383 L51,40" id="Fill-605" sketch:type="MSShapeGroup"></path>
                <path d="M30.256,16.35 C30.455,16.35 30.656,16.29 30.832,16.167 L32.466,15.014 C32.917,14.694 33.024,14.071 32.706,13.619 C32.387,13.17 31.766,13.06 31.312,13.379 L29.678,14.532 C29.227,14.851 29.119,15.476 29.438,15.927 C29.633,16.202 29.941,16.35 30.256,16.35" id="Fill-606" sketch:type="MSShapeGroup"></path>
                <path d="M20,42 L22,42 C22.553,42 23,41.553 23,41 C23,40.447 22.553,40 22,40 L20,40 C19.447,40 19,40.447 19,41 C19,41.553 19.447,42 20,42" id="Fill-607" sketch:type="MSShapeGroup"></path>
                <path d="M18,34 C18.553,34 19,33.553 19,33 L19,31 C19,30.447 18.553,30 18,30 C17.447,30 17,30.447 17,31 L17,33 C17,33.553 17.447,34 18,34" id="Fill-608" sketch:type="MSShapeGroup"></path>
                <path d="M20.452,23.27 C20.651,23.27 20.852,23.21 21.028,23.087 L22.662,21.934 C23.113,21.614 23.221,20.99 22.902,20.539 C22.584,20.089 21.961,19.981 21.508,20.299 L19.874,21.452 C19.423,21.772 19.315,22.396 19.634,22.847 C19.829,23.122 20.138,23.27 20.452,23.27" id="Fill-609" sketch:type="MSShapeGroup"></path>
                <path d="M18,40 C18.553,40 19,39.553 19,39 L19,37 C19,36.447 18.553,36 18,36 C17.447,36 17,36.447 17,37 L17,39 C17,39.553 17.447,40 18,40" id="Fill-610" sketch:type="MSShapeGroup"></path>
                <path d="M18,28 C18.553,28 19,27.553 19,27 L19,25 C19,24.447 18.553,24 18,24 C17.447,24 17,24.447 17,25 L17,27 C17,27.553 17.447,28 18,28" id="Fill-611" sketch:type="MSShapeGroup"></path>
                <path d="M25.354,19.809 C25.553,19.809 25.754,19.75 25.93,19.627 L27.563,18.474 C28.015,18.154 28.122,17.53 27.804,17.079 C27.484,16.63 26.862,16.523 26.409,16.839 L24.775,17.992 C24.324,18.312 24.217,18.936 24.535,19.387 C24.731,19.662 25.039,19.809 25.354,19.809" id="Fill-612" sketch:type="MSShapeGroup"></path>
                <path d="M41,46 L54,46 L54,54 L41,54 L41,46 Z" id="Fill-613" sketch:type="MSShapeGroup"></path>
                <path d="M26,36 C26,35.447 25.553,35 25,35 L23,35 C22.447,35 22,35.447 22,36 C22,36.553 22.447,37 23,37 L25,37 C25.553,37 26,36.553 26,36" id="Fill-614" sketch:type="MSShapeGroup"></path>
                <path d="M31,27 C30.447,27 30,27.447 30,28 L30,30 C30,30.553 30.447,31 31,31 C31.553,31 32,30.553 32,30 L32,28 C32,27.447 31.553,27 31,27" id="Fill-615" sketch:type="MSShapeGroup"></path>
                <path d="M22,30 L22,32 C22,32.553 22.447,33 23,33 C23.553,33 24,32.553 24,32 L24,30 C24,29.447 23.553,29 23,29 C22.447,29 22,29.447 22,30" id="Fill-616" sketch:type="MSShapeGroup"></path>
                <path d="M29,37 L31,37 C31.553,37 32,36.553 32,36 L32,34 C32,33.447 31.553,33 31,33 C30.447,33 30,33.447 30,34 L30,35 L29,35 C28.447,35 28,35.447 28,36 C28,36.553 28.447,37 29,37" id="Fill-617" sketch:type="MSShapeGroup"></path>
                <path d="M25,29 L27,29 C27.553,29 28,28.552 28,28 C28,27.447 27.553,27 27,27 L25,27 C24.447,27 24,27.447 24,28 C24,28.552 24.447,29 25,29" id="Fill-618" sketch:type="MSShapeGroup"></path>
                <path d="M39,37 L41,37 C41.553,37 42,36.553 42,36 C42,35.447 41.553,35 41,35 L39,35 C38.447,35 38,35.447 38,36 C38,36.553 38.447,37 39,37" id="Fill-619" sketch:type="MSShapeGroup"></path>
                <path d="M46,28 L46,30 C46,30.553 46.447,31 47,31 C47.553,31 48,30.553 48,30 L48,28 C48,27.447 47.553,27 47,27 C46.447,27 46,27.447 46,28" id="Fill-620" sketch:type="MSShapeGroup"></path>
                <path d="M40,28 C40,28.552 40.447,29 41,29 L43,29 C43.553,29 44,28.552 44,28 C44,27.447 43.553,27 43,27 L41,27 C40.447,27 40,27.447 40,28" id="Fill-621" sketch:type="MSShapeGroup"></path>
                <path d="M47,37 C47.553,37 48,36.553 48,36 L48,34 C48,33.447 47.553,33 47,33 C46.447,33 46,33.447 46,34 L46,35 L45,35 C44.447,35 44,35.447 44,36 C44,36.553 44.447,37 45,37 L47,37" id="Fill-622" sketch:type="MSShapeGroup"></path>
                <path d="M39,33 C39.553,33 40,32.553 40,32 L40,30 C40,29.447 39.553,29 39,29 C38.447,29 38,29.447 38,30 L38,32 C38,32.553 38.447,33 39,33" id="Fill-623" sketch:type="MSShapeGroup"></path>
                <path d="M38,46 L33,46 C32.447,46 32,46.447 32,47 C32,47.553 32.447,48 33,48 L38,48 C38.553,48 39,47.553 39,47 C39,46.447 38.553,46 38,46" id="Fill-624" sketch:type="MSShapeGroup"></path>
                <path d="M38,49 L31,49 C30.447,49 30,49.447 30,50 C30,50.553 30.447,51 31,51 L38,51 C38.553,51 39,50.553 39,50 C39,49.447 38.553,49 38,49" id="Fill-625" sketch:type="MSShapeGroup"></path>
                <path d="M38,52 L28,52 C27.447,52 27,52.447 27,53 C27,53.553 27.447,54 28,54 L38,54 C38.553,54 39,53.553 39,53 C39,52.447 38.553,52 38,52" id="Fill-626" sketch:type="MSShapeGroup"></path>
            </g>
        </g>
    </g>
</svg>