<?xml version="1.0" encoding="UTF-8" standalone="no"?>
<svg width="40px" height="53px" viewBox="0 0 40 53" version="1.1" xmlns="http://www.w3.org/2000/svg" xmlns:xlink="http://www.w3.org/1999/xlink" xmlns:sketch="http://www.bohemiancoding.com/sketch/ns">
    <!-- Generator: Sketch 3.2.2 (9983) - http://www.bohemiancoding.com/sketch -->
    <title>350 - Trash Bin (Solid)</title>
    <desc>Created with Sketch.</desc>
    <defs></defs>
    <g id="Page-1" stroke="none" stroke-width="1" fill="none" fill-rule="evenodd" sketch:type="MSPage">
        <g id="Icons" sketch:type="MSArtboardGroup" transform="translate(-128.000000, -721.000000)" fill="#000000">
            <g id="350---Trash-Bin-(Solid)" sketch:type="MSLayerGroup" transform="translate(128.000000, 721.000000)">
                <path d="M36.443,6 L27,6 L27,3 C27,1.346 25.654,0 24,0 L16,0 C14.346,0 13,1.346 13,3 L13,6 L3.557,6 C1.596,6 0,7.596 0,9.557 L0,14 L40,14 L40,9.557 C40,7.596 38.404,6 36.443,6 L36.443,6 Z M25,6 L15,6 L15,3 C15,2.448 15.449,2 16,2 L24,2 C24.551,2 25,2.448 25,3 L25,6 L25,6 Z" id="Fill-700" sketch:type="MSShapeGroup"></path>
                <path d="M2,49.271 C2,51.327 3.673,53 5.73,53 L34.271,53 C36.327,53 38,51.327 38,49.271 L38,16 L2,16 L2,49.271" id="Fill-701" sketch:type="MSShapeGroup"></path>
            </g>
        </g>
    </g>
</svg>