<?xml version="1.0" encoding="UTF-8" standalone="no"?>
<svg width="58px" height="58px" viewBox="0 0 58 58" version="1.1" xmlns="http://www.w3.org/2000/svg" xmlns:xlink="http://www.w3.org/1999/xlink" xmlns:sketch="http://www.bohemiancoding.com/sketch/ns">
    <!-- Generator: Sketch 3.2.2 (9983) - http://www.bohemiancoding.com/sketch -->
    <title>36 - Calendar Date (Solid)</title>
    <desc>Created with Sketch.</desc>
    <defs></defs>
    <g id="Page-1" stroke="none" stroke-width="1" fill="none" fill-rule="evenodd" sketch:type="MSPage">
        <g id="Icons" sketch:type="MSArtboardGroup" transform="translate(-601.000000, -4438.000000)" fill="#000000">
            <g id="36---Calendar-Date-(Solid)" sketch:type="MSLayerGroup" transform="translate(601.000000, 4438.000000)">
                <path d="M26,0 C25.447,0 25,0.447 25,1 C25,1.552 25.447,2 26,2 C27.302,2 28.402,2.838 28.816,4 L30.899,4 C30.434,1.721 28.414,0 26,0" id="Fill-1237" sketch:type="MSShapeGroup"></path>
                <path d="M32,0 C31.447,0 31,0.447 31,1 C31,1.552 31.447,2 32,2 C33.302,2 34.402,2.838 34.816,4 L36.899,4 C36.434,1.721 34.414,0 32,0" id="Fill-1238" sketch:type="MSShapeGroup"></path>
                <path d="M38,0 C37.447,0 37,0.447 37,1 C37,1.552 37.447,2 38,2 C39.302,2 40.402,2.838 40.816,4 L42.899,4 C42.434,1.721 40.414,0 38,0" id="Fill-1239" sketch:type="MSShapeGroup"></path>
                <path d="M38,25 C35.243,25 33,27.243 33,30 C33,32.757 35.243,35 38,35 C40.757,35 43,32.757 43,30 C43,27.243 40.757,25 38,25" id="Fill-1240" sketch:type="MSShapeGroup"></path>
                <path d="M58,17 L58,4 L42.899,4 C42.965,4.323 43,4.658 43,5 C43,7.757 40.757,10 38,10 C37.447,10 37,9.553 37,9 C37,8.447 37.447,8 38,8 C39.654,8 41,6.654 41,5 C41,4.648 40.928,4.314 40.816,4 L36.899,4 C36.965,4.323 37,4.658 37,5 C37,7.757 34.757,10 32,10 C31.447,10 31,9.553 31,9 C31,8.447 31.447,8 32,8 C33.654,8 35,6.654 35,5 C35,4.648 34.928,4.314 34.816,4 L30.899,4 C30.965,4.323 31,4.658 31,5 C31,7.757 28.757,10 26,10 C25.447,10 25,9.553 25,9 C25,8.447 25.447,8 26,8 C27.654,8 29,6.654 29,5 C29,4.648 28.928,4.314 28.816,4 L24.899,4 C24.965,4.323 25,4.658 25,5 C25,7.757 22.757,10 20,10 C19.447,10 19,9.553 19,9 C19,8.447 19.447,8 20,8 C21.654,8 23,6.654 23,5 C23,4.648 22.928,4.314 22.816,4 L17.184,4 C17.598,2.838 18.698,2 20,2 C21.302,2 22.402,2.838 22.816,4 L24.899,4 C24.434,1.721 22.414,0 20,0 C17.586,0 15.566,1.721 15.101,4 L0,4 L0,17 L58,17" id="Fill-1241" sketch:type="MSShapeGroup"></path>
                <path d="M0,58 L58,58 L58,19 L0,19 L0,58 Z M23,51 L15,51 C14.448,51 14,50.553 14,50 C14,49.447 14.448,49 15,49 L18,49 L18,26.414 L13.707,30.707 C13.512,30.902 13.256,31 13,31 C12.744,31 12.488,30.902 12.293,30.707 C11.902,30.316 11.902,29.684 12.293,29.293 L18.292,23.294 C18.385,23.201 18.495,23.128 18.618,23.077 C18.862,22.976 19.138,22.976 19.382,23.077 C19.627,23.178 19.822,23.373 19.923,23.618 C19.973,23.74 20,23.87 20,24 L20,49 L23,49 C23.552,49 24,49.447 24,50 C24,50.553 23.552,51 23,51 L23,51 Z M45,44 C45,47.859 41.86,51 38,51 C34.14,51 31,47.859 31,44 C31,43.447 31.448,43 32,43 C32.552,43 33,43.447 33,44 C33,46.757 35.243,49 38,49 C40.757,49 43,46.757 43,44 L43,34.89 C41.728,36.189 39.958,37 38,37 C34.14,37 31,33.859 31,30 C31,26.141 34.14,23 38,23 C41.86,23 45,26.141 45,30 L45,44 L45,44 Z" id="Fill-1242" sketch:type="MSShapeGroup"></path>
            </g>
        </g>
    </g>
</svg>