<?xml version="1.0" encoding="UTF-8" standalone="no"?>
<svg width="56px" height="56px" viewBox="0 0 56 56" version="1.1" xmlns="http://www.w3.org/2000/svg" xmlns:xlink="http://www.w3.org/1999/xlink" xmlns:sketch="http://www.bohemiancoding.com/sketch/ns">
    <!-- Generator: Sketch 3.2.2 (9983) - http://www.bohemiancoding.com/sketch -->
    <title>364 - Menu (Solid)</title>
    <desc>Created with Sketch.</desc>
    <defs></defs>
    <g id="Page-1" stroke="none" stroke-width="1" fill="none" fill-rule="evenodd" sketch:type="MSPage">
        <g id="Icons" sketch:type="MSArtboardGroup" transform="translate(-842.000000, -479.000000)" fill="#000000">
            <g id="364---Menu-(Solid)" sketch:type="MSLayerGroup" transform="translate(842.000000, 479.000000)">
                <path d="M28,0 C12.56,0 0,12.561 0,28 C0,43.439 12.56,56 28,56 C43.44,56 56,43.439 56,28 C56,12.561 43.44,0 28,0 L28,0 Z M15,15 L41,15 C41.553,15 42,15.448 42,16 C42,16.552 41.553,17 41,17 L15,17 C14.447,17 14,16.552 14,16 C14,15.448 14.447,15 15,15 L15,15 Z M41,41 L15,41 C14.447,41 14,40.552 14,40 C14,39.448 14.447,39 15,39 L41,39 C41.553,39 42,39.448 42,40 C42,40.552 41.553,41 41,41 L41,41 Z M45,33 L11,33 C10.447,33 10,32.552 10,32 C10,31.448 10.447,31 11,31 L45,31 C45.553,31 46,31.448 46,32 C46,32.552 45.553,33 45,33 L45,33 Z M45,25 L11,25 C10.447,25 10,24.552 10,24 C10,23.448 10.447,23 11,23 L45,23 C45.553,23 46,23.448 46,24 C46,24.552 45.553,25 45,25 L45,25 Z" id="Fill-685" sketch:type="MSShapeGroup"></path>
            </g>
        </g>
    </g>
</svg>