<?xml version="1.0" encoding="UTF-8" standalone="no"?>
<svg width="60px" height="60px" viewBox="0 0 60 60" version="1.1" xmlns="http://www.w3.org/2000/svg" xmlns:xlink="http://www.w3.org/1999/xlink" xmlns:sketch="http://www.bohemiancoding.com/sketch/ns">
    <!-- Generator: Sketch 3.2.2 (9983) - http://www.bohemiancoding.com/sketch -->
    <title>365 - Focus View (Solid)</title>
    <desc>Created with Sketch.</desc>
    <defs></defs>
    <g id="Page-1" stroke="none" stroke-width="1" fill="none" fill-rule="evenodd" sketch:type="MSPage">
        <g id="Icons" sketch:type="MSArtboardGroup" transform="translate(-720.000000, -477.000000)" fill="#000000">
            <g id="365---Focus-View-(Solid)" sketch:type="MSLayerGroup" transform="translate(720.000000, 477.000000)">
                <path d="M30.187,16.97 C23.122,16.97 17.374,22.718 17.374,29.783 C17.374,36.848 23.122,42.596 30.187,42.596 C37.252,42.596 43,36.848 43,29.783 C43,22.718 37.252,16.97 30.187,16.97" id="Fill-61" sketch:type="MSShapeGroup"></path>
                <path d="M51.703,21.931 C45.944,16.171 38.287,13 30.143,13 C21.998,13 14.341,16.171 8.582,21.931 L0.641,29.872 L8.352,37.583 C14.11,43.342 21.768,46.513 29.912,46.513 C38.057,46.513 45.714,43.342 51.473,37.583 L59.414,29.642 L51.703,21.931 L51.703,21.931 Z M50.059,36.168 C44.678,41.55 37.523,44.513 29.912,44.513 C22.302,44.513 15.148,41.55 9.766,36.168 L3.469,29.872 L9.996,23.345 C15.377,17.963 22.532,15 30.143,15 C37.753,15 44.907,17.963 50.289,23.345 L56.586,29.642 L50.059,36.168 L50.059,36.168 Z" id="Fill-62" sketch:type="MSShapeGroup"></path>
                <path d="M29.292,11.706 C29.385,11.799 29.495,11.872 29.618,11.923 C29.74,11.974 29.87,12 30,12 C30.13,12 30.26,11.974 30.382,11.923 C30.505,11.872 30.616,11.799 30.708,11.706 L34.707,7.707 C35.098,7.316 35.098,6.684 34.707,6.293 C34.316,5.902 33.684,5.902 33.293,6.293 L31,8.586 L31,1 C31,0.448 30.553,0 30,0 C29.447,0 29,0.448 29,1 L29,8.586 L26.707,6.293 C26.316,5.902 25.684,5.902 25.293,6.293 C24.902,6.684 24.902,7.316 25.293,7.707 L29.292,11.706" id="Fill-63" sketch:type="MSShapeGroup"></path>
                <path d="M30.708,48.294 C30.616,48.201 30.505,48.128 30.382,48.077 C30.138,47.976 29.862,47.976 29.618,48.077 C29.495,48.128 29.385,48.201 29.292,48.294 L25.293,52.293 C24.902,52.684 24.902,53.316 25.293,53.707 C25.488,53.902 25.744,54 26,54 C26.256,54 26.512,53.902 26.707,53.707 L29,51.414 L29,59 C29,59.552 29.447,60 30,60 C30.553,60 31,59.552 31,59 L31,51.414 L33.293,53.707 C33.488,53.902 33.744,54 34,54 C34.256,54 34.512,53.902 34.707,53.707 C35.098,53.316 35.098,52.684 34.707,52.293 L30.708,48.294" id="Fill-64" sketch:type="MSShapeGroup"></path>
            </g>
        </g>
    </g>
</svg>