<?xml version="1.0" encoding="UTF-8" standalone="no"?>
<svg width="60px" height="60px" viewBox="0 0 60 60" version="1.1" xmlns="http://www.w3.org/2000/svg" xmlns:xlink="http://www.w3.org/1999/xlink" xmlns:sketch="http://www.bohemiancoding.com/sketch/ns">
    <!-- Generator: Sketch 3.2.2 (9983) - http://www.bohemiancoding.com/sketch -->
    <title>366 - Perspective View (Solid)</title>
    <desc>Created with Sketch.</desc>
    <defs></defs>
    <g id="Page-1" stroke="none" stroke-width="1" fill="none" fill-rule="evenodd" sketch:type="MSPage">
        <g id="Icons" sketch:type="MSArtboardGroup" transform="translate(-600.000000, -477.000000)" fill="#000000">
            <g id="366---Perspective-View-(Solid)" sketch:type="MSLayerGroup" transform="translate(600.000000, 477.000000)">
                <path d="M51.818,21.931 C46.059,16.171 38.402,13 30.257,13 C22.113,13 14.456,16.171 8.697,21.931 L0.756,29.872 L8.467,37.583 C14.226,43.342 21.883,46.513 30.028,46.513 C38.172,46.513 45.829,43.342 51.588,37.583 L59.529,29.642 L51.818,21.931 L51.818,21.931 Z M50.174,36.168 C44.792,41.55 37.638,44.513 30.028,44.513 C22.417,44.513 15.263,41.55 9.881,36.168 L3.584,29.872 L10.111,23.345 C15.492,17.963 22.647,15 30.257,15 C37.868,15 45.023,17.963 50.404,23.345 L56.701,29.642 L50.174,36.168 L50.174,36.168 Z" id="Fill-57" sketch:type="MSShapeGroup"></path>
                <path d="M29.813,16.97 C22.748,16.97 17,22.718 17,29.783 C17,36.848 22.748,42.596 29.813,42.596 C36.878,42.596 42.626,36.848 42.626,29.783 C42.626,22.718 36.878,16.97 29.813,16.97" id="Fill-58" sketch:type="MSShapeGroup"></path>
                <path d="M26,6 C26.256,6 26.512,5.902 26.707,5.707 L29,3.414 L29,11 C29,11.552 29.448,12 30,12 C30.552,12 31,11.552 31,11 L31,3.414 L33.293,5.707 C33.488,5.902 33.744,6 34,6 C34.256,6 34.512,5.902 34.707,5.707 C35.098,5.316 35.098,4.684 34.707,4.293 L30.707,0.293 C30.615,0.201 30.505,0.128 30.382,0.077 C30.138,-0.024 29.862,-0.024 29.618,0.077 C29.495,0.128 29.385,0.201 29.293,0.293 L25.293,4.293 C24.902,4.684 24.902,5.316 25.293,5.707 C25.488,5.902 25.744,6 26,6" id="Fill-59" sketch:type="MSShapeGroup"></path>
                <path d="M33.293,54.293 L31,56.586 L31,49 C31,48.448 30.552,48 30,48 C29.448,48 29,48.448 29,49 L29,56.586 L26.707,54.293 C26.316,53.902 25.684,53.902 25.293,54.293 C24.902,54.684 24.902,55.316 25.293,55.707 L29.293,59.707 C29.385,59.799 29.495,59.872 29.618,59.923 C29.74,59.974 29.87,60 30,60 C30.13,60 30.26,59.974 30.382,59.923 C30.505,59.872 30.615,59.799 30.707,59.707 L34.707,55.707 C35.098,55.316 35.098,54.684 34.707,54.293 C34.316,53.902 33.684,53.902 33.293,54.293" id="Fill-60" sketch:type="MSShapeGroup"></path>
            </g>
        </g>
    </g>
</svg>