<?xml version="1.0" encoding="UTF-8" standalone="no"?>
<svg width="58px" height="26px" viewBox="0 0 58 26" version="1.1" xmlns="http://www.w3.org/2000/svg" xmlns:xlink="http://www.w3.org/1999/xlink" xmlns:sketch="http://www.bohemiancoding.com/sketch/ns">
    <!-- Generator: Sketch 3.2.2 (9983) - http://www.bohemiancoding.com/sketch -->
    <title>367 - Views (Solid)</title>
    <desc>Created with Sketch.</desc>
    <defs></defs>
    <g id="Page-1" stroke="none" stroke-width="1" fill="none" fill-rule="evenodd" sketch:type="MSPage">
        <g id="Icons" sketch:type="MSArtboardGroup" transform="translate(-481.000000, -494.000000)" fill="#000000">
            <g id="367---Views-(Solid)" sketch:type="MSLayerGroup" transform="translate(481.000000, 494.000000)">
                <path d="M57.71,11.9 C50.097,4.227 39.952,0 29.142,0 L29.065,0.002 L29.028,0 L28.921,0.005 C18.195,0.063 8.135,4.279 0.575,11.9 L0.345,12.132 C-0.044,12.524 -0.041,13.158 0.351,13.546 C0.546,13.74 0.801,13.836 1.055,13.836 C1.313,13.836 1.57,13.738 1.765,13.541 L1.995,13.309 C7.24,8.021 13.753,4.467 20.851,2.906 C17.912,5.292 16.028,8.928 16.028,13 C16.028,20.169 21.859,26 29.028,26 C36.196,26 42.028,20.169 42.028,13 C42.028,8.885 40.1,5.217 37.106,2.833 C44.332,4.355 50.964,7.94 56.29,13.309 C56.679,13.702 57.313,13.704 57.704,13.314 C58.096,12.925 58.099,12.292 57.71,11.9 L57.71,11.9 Z M29.055,21 C24.644,21 21.055,17.411 21.055,13 C21.055,8.589 24.644,5 29.055,5 C29.607,5 30.055,5.448 30.055,6 C30.055,6.552 29.607,7 29.055,7 C25.747,7 23.055,9.691 23.055,13 C23.055,16.309 25.747,19 29.055,19 C32.364,19 35.055,16.309 35.055,13 C35.055,12.448 35.503,12 36.055,12 C36.607,12 37.055,12.448 37.055,13 C37.055,17.411 33.466,21 29.055,21 L29.055,21 Z" id="Fill-684" sketch:type="MSShapeGroup"></path>
            </g>
        </g>
    </g>
</svg>