<?xml version="1.0" encoding="UTF-8" standalone="no"?>
<svg width="60px" height="49px" viewBox="0 0 60 49" version="1.1" xmlns="http://www.w3.org/2000/svg" xmlns:xlink="http://www.w3.org/1999/xlink" xmlns:sketch="http://www.bohemiancoding.com/sketch/ns">
    <!-- Generator: Sketch 3.2.2 (9983) - http://www.bohemiancoding.com/sketch -->
    <title>369 - Hide (Solid)</title>
    <desc>Created with Sketch.</desc>
    <defs></defs>
    <g id="Page-1" stroke="none" stroke-width="1" fill="none" fill-rule="evenodd" sketch:type="MSPage">
        <g id="Icons" sketch:type="MSArtboardGroup" transform="translate(-240.000000, -482.000000)" fill="#000000">
            <g id="369---Hide-(Solid)" sketch:type="MSLayerGroup" transform="translate(240.000000, 482.000000)">
                <path d="M51.276,16.991 C49.177,14.891 46.822,13.14 44.286,11.756 L53.835,2.207 C54.226,1.816 54.226,1.184 53.835,0.793 C53.445,0.402 52.812,0.402 52.421,0.793 L42.401,10.813 C38.471,9.014 34.167,8.06 29.716,8.06 C21.571,8.06 13.914,11.231 8.155,16.991 L0.214,24.932 L8.352,33.069 C10.375,35.093 12.636,36.789 15.066,38.147 L5.921,47.293 C5.531,47.684 5.531,48.316 5.921,48.707 C6.117,48.902 6.372,49 6.628,49 C6.884,49 7.14,48.902 7.335,48.707 L16.928,39.114 C20.938,41.003 25.349,42 29.913,42 C38.057,42 45.714,38.829 51.473,33.069 L59.414,25.128 L51.276,16.991 L51.276,16.991 Z M9.766,31.655 L3.043,24.932 L9.569,18.405 C14.951,13.023 22.105,10.06 29.716,10.06 C33.618,10.06 37.399,10.845 40.885,12.33 L16.535,36.679 C14.074,35.367 11.794,33.683 9.766,31.655 L9.766,31.655 Z M50.059,31.655 C44.678,37.037 37.523,40 29.913,40 C25.897,40 22.013,39.167 18.445,37.598 L42.806,13.236 C45.376,14.569 47.756,16.299 49.862,18.405 L56.586,25.128 L50.059,31.655 L50.059,31.655 Z" id="Fill-681" sketch:type="MSShapeGroup"></path>
                <path d="M29.787,12 C22.618,12 16.787,17.832 16.787,25 C16.787,27.543 17.531,29.91 18.798,31.916 L36.703,14.012 C34.697,12.745 32.329,12 29.787,12" id="Fill-682" sketch:type="MSShapeGroup"></path>
                <path d="M22.674,35.868 C24.72,37.212 27.161,38 29.787,38 C36.955,38 42.787,32.169 42.787,25 C42.787,22.375 41.999,19.933 40.655,17.887 L22.674,35.868" id="Fill-683" sketch:type="MSShapeGroup"></path>
            </g>
        </g>
    </g>
</svg>