<?xml version="1.0" encoding="UTF-8" standalone="no"?>
<svg width="58px" height="60px" viewBox="0 0 58 60" version="1.1" xmlns="http://www.w3.org/2000/svg" xmlns:xlink="http://www.w3.org/1999/xlink" xmlns:sketch="http://www.bohemiancoding.com/sketch/ns">
    <!-- Generator: Sketch 3.2.2 (9983) - http://www.bohemiancoding.com/sketch -->
    <title>37 - Event Date (Solid)</title>
    <desc>Created with Sketch.</desc>
    <defs></defs>
    <g id="Page-1" stroke="none" stroke-width="1" fill="none" fill-rule="evenodd" sketch:type="MSPage">
        <g id="Icons" sketch:type="MSArtboardGroup" transform="translate(-481.000000, -4437.000000)" fill="#000000">
            <g id="37---Event-Date-(Solid)" sketch:type="MSLayerGroup" transform="translate(481.000000, 4437.000000)">
                <path d="M9,28 L31,28 C31.552,28 32,27.553 32,27 C32,26.447 31.552,26 31,26 L9,26 C8.448,26 8,26.447 8,27 C8,27.553 8.448,28 9,28" id="Fill-1248" sketch:type="MSShapeGroup"></path>
                <path d="M49,42 L34,42 C33.448,42 33,42.447 33,43 C33,43.553 33.448,44 34,44 L49,44 C49.552,44 50,43.553 50,43 C50,42.447 49.552,42 49,42" id="Fill-1249" sketch:type="MSShapeGroup"></path>
                <path d="M9,36 L19,36 C19.552,36 20,35.552 20,35 C20,34.447 19.552,34 19,34 L9,34 C8.448,34 8,34.447 8,35 C8,35.552 8.448,36 9,36" id="Fill-1250" sketch:type="MSShapeGroup"></path>
                <path d="M49,50 L39,50 C38.448,50 38,50.447 38,51 C38,51.553 38.448,52 39,52 L49,52 C49.552,52 50,51.553 50,51 C50,50.447 49.552,50 49,50" id="Fill-1251" sketch:type="MSShapeGroup"></path>
                <path d="M28,35 C28,35.552 28.448,36 29,36 L44,36 C44.552,36 45,35.552 45,35 C45,34.447 44.552,34 44,34 L29,34 C28.448,34 28,34.447 28,35" id="Fill-1252" sketch:type="MSShapeGroup"></path>
                <path d="M24.71,35.71 C24.89,35.52 25,35.26 25,35 C25,34.739 24.89,34.48 24.71,34.29 C24.34,33.92 23.66,33.92 23.29,34.29 C23.11,34.48 23,34.739 23,35 C23,35.26 23.11,35.52 23.29,35.71 C23.48,35.899 23.74,36 24,36 C24.26,36 24.52,35.899 24.71,35.71" id="Fill-1253" sketch:type="MSShapeGroup"></path>
                <path d="M13,43 C13,43.553 13.448,44 14,44 L29,44 C29.552,44 30,43.553 30,43 C30,42.447 29.552,42 29,42 L14,42 C13.448,42 13,42.447 13,43" id="Fill-1254" sketch:type="MSShapeGroup"></path>
                <path d="M9,44 C9.26,44 9.52,43.89 9.71,43.71 C9.89,43.519 10,43.26 10,43 C10,42.739 9.89,42.48 9.71,42.3 C9.34,41.92 8.66,41.92 8.29,42.29 C8.11,42.48 8,42.739 8,43 C8,43.26 8.11,43.519 8.29,43.71 C8.48,43.89 8.73,44 9,44" id="Fill-1255" sketch:type="MSShapeGroup"></path>
                <path d="M49,36 C49.26,36 49.52,35.899 49.71,35.71 C49.9,35.52 50,35.26 50,35 C50,34.739 49.9,34.48 49.71,34.29 C49.33,33.92 48.66,33.92 48.29,34.29 C48.11,34.48 48,34.739 48,35 C48,35.26 48.11,35.52 48.29,35.71 C48.48,35.899 48.74,36 49,36" id="Fill-1256" sketch:type="MSShapeGroup"></path>
                <path d="M9,52 L34,52 C34.552,52 35,51.553 35,51 C35,50.447 34.552,50 34,50 L9,50 C8.448,50 8,50.447 8,51 C8,51.553 8.448,52 9,52" id="Fill-1257" sketch:type="MSShapeGroup"></path>
                <path d="M26,0 C25.447,0 25,0.447 25,1 C25,1.553 25.447,2 26,2 C27.302,2 28.402,2.839 28.816,4 L30.899,4 C30.434,1.72 28.414,0 26,0" id="Fill-1258" sketch:type="MSShapeGroup"></path>
                <path d="M32,0 C31.447,0 31,0.447 31,1 C31,1.553 31.447,2 32,2 C33.302,2 34.402,2.839 34.816,4 L36.899,4 C36.434,1.72 34.414,0 32,0" id="Fill-1259" sketch:type="MSShapeGroup"></path>
                <path d="M38,0 C37.447,0 37,0.447 37,1 C37,1.553 37.447,2 38,2 C39.302,2 40.402,2.839 40.816,4 L42.899,4 C42.434,1.72 40.414,0 38,0" id="Fill-1260" sketch:type="MSShapeGroup"></path>
                <path d="M42.899,4 C42.965,4.323 43,4.658 43,5 C43,7.757 40.757,10 38,10 C37.447,10 37,9.553 37,9 C37,8.447 37.447,8 38,8 C39.654,8 41,6.654 41,5 C41,4.647 40.928,4.315 40.816,4 L36.899,4 C36.965,4.323 37,4.658 37,5 C37,7.757 34.757,10 32,10 C31.447,10 31,9.553 31,9 C31,8.447 31.447,8 32,8 C33.654,8 35,6.654 35,5 C35,4.647 34.928,4.315 34.816,4 L30.899,4 C30.965,4.323 31,4.658 31,5 C31,7.757 28.757,10 26,10 C25.447,10 25,9.553 25,9 C25,8.447 25.447,8 26,8 C27.654,8 29,6.654 29,5 C29,4.647 28.928,4.315 28.816,4 L24.899,4 C24.965,4.323 25,4.658 25,5 C25,7.757 22.757,10 20,10 C19.447,10 19,9.553 19,9 C19,8.447 19.447,8 20,8 C21.654,8 23,6.654 23,5 C23,4.647 22.928,4.315 22.816,4 L17.184,4 C17.598,2.839 18.698,2 20,2 C21.302,2 22.402,2.839 22.816,4 L24.899,4 C24.434,1.72 22.414,0 20,0 C17.586,0 15.566,1.72 15.101,4 L0,4 L0,60 L58,60 L58,4 L42.899,4 L42.899,4 Z M2,20 L56,20 L56,58 L2,58 L2,20 Z" id="Fill-1261" sketch:type="MSShapeGroup"></path>
            </g>
        </g>
    </g>
</svg>