<?xml version="1.0" encoding="UTF-8" standalone="no"?>
<svg width="60px" height="34px" viewBox="0 0 60 34" version="1.1" xmlns="http://www.w3.org/2000/svg" xmlns:xlink="http://www.w3.org/1999/xlink" xmlns:sketch="http://www.bohemiancoding.com/sketch/ns">
    <!-- Generator: Sketch 3.2.2 (9983) - http://www.bohemiancoding.com/sketch -->
    <title>370 - View (Solid)</title>
    <desc>Created with Sketch.</desc>
    <defs></defs>
    <g id="Page-1" stroke="none" stroke-width="1" fill="none" fill-rule="evenodd" sketch:type="MSPage">
        <g id="Icons" sketch:type="MSArtboardGroup" transform="translate(-120.000000, -490.000000)" fill="#000000">
            <g id="370---View-(Solid)" sketch:type="MSLayerGroup" transform="translate(120.000000, 490.000000)">
                <path d="M51.49,8.991 C45.731,3.231 38.074,0.06 29.929,0.06 C21.785,0.06 14.127,3.231 8.369,8.991 L0.428,16.932 L8.565,25.069 C14.324,30.829 21.981,34 30.126,34 C38.271,34 45.928,30.829 51.687,25.069 L59.627,17.128 L51.49,8.991 L51.49,8.991 Z M50.273,23.655 C44.891,29.037 37.736,32 30.126,32 C22.516,32 15.361,29.037 9.98,23.655 L3.256,16.932 L9.783,10.405 C15.164,5.023 22.319,2.06 29.929,2.06 C37.54,2.06 44.694,5.023 50.076,10.405 L56.799,17.128 L50.273,23.655 L50.273,23.655 Z" id="Fill-679" sketch:type="MSShapeGroup"></path>
                <path d="M30,4 C22.832,4 17,9.832 17,17 C17,24.169 22.832,30 30,30 C37.169,30 43,24.169 43,17 C43,9.832 37.169,4 30,4 L30,4 Z M30,12 C27.243,12 25,14.243 25,17 C25,17.552 24.552,18 24,18 C23.448,18 23,17.552 23,17 C23,13.14 26.14,10 30,10 C30.552,10 31,10.448 31,11 C31,11.552 30.552,12 30,12 L30,12 Z" id="Fill-680" sketch:type="MSShapeGroup"></path>
            </g>
        </g>
    </g>
</svg>