<?xml version="1.0" encoding="UTF-8" standalone="no"?>
<svg width="58px" height="24px" viewBox="0 0 58 24" version="1.1" xmlns="http://www.w3.org/2000/svg" xmlns:xlink="http://www.w3.org/1999/xlink" xmlns:sketch="http://www.bohemiancoding.com/sketch/ns">
    <!-- Generator: Sketch 3.2.2 (9983) - http://www.bohemiancoding.com/sketch -->
    <title>371 - Record (Solid)</title>
    <desc>Created with Sketch.</desc>
    <defs></defs>
    <g id="Page-1" stroke="none" stroke-width="1" fill="none" fill-rule="evenodd" sketch:type="MSPage">
        <g id="Icons" sketch:type="MSArtboardGroup" transform="translate(-1201.000000, -374.000000)" fill="#1A1718">
            <g id="371---Record-(Solid)" sketch:type="MSLayerGroup" transform="translate(1201.000000, 374.000000)">
                <path d="M46,0 C39.373,0 34,5.373 34,12 C34,16.176 36.136,19.851 39.372,22 L18.628,22 C21.864,19.851 24,16.176 24,12 C24,5.373 18.627,0 12,0 C5.373,0 0,5.373 0,12 C0,18.627 5.373,24 12,24 L46,24 C52.627,24 58,18.627 58,12 C58,5.373 52.627,0 46,0" id="Fill-25" sketch:type="MSShapeGroup"></path>
            </g>
        </g>
    </g>
</svg>