<?xml version="1.0" encoding="UTF-8" standalone="no"?>
<svg width="60px" height="22px" viewBox="0 0 60 22" version="1.1" xmlns="http://www.w3.org/2000/svg" xmlns:xlink="http://www.w3.org/1999/xlink" xmlns:sketch="http://www.bohemiancoding.com/sketch/ns">
    <!-- Generator: Sketch 3.2.2 (9983) - http://www.bohemiancoding.com/sketch -->
    <title>372 - Reading List (Solid)</title>
    <desc>Created with Sketch.</desc>
    <defs></defs>
    <g id="Page-1" stroke="none" stroke-width="1" fill="none" fill-rule="evenodd" sketch:type="MSPage">
        <g id="Icons" sketch:type="MSArtboardGroup" transform="translate(-1080.000000, -377.000000)" fill="#000000">
            <g id="372---Reading-List-(Solid)" sketch:type="MSLayerGroup" transform="translate(1080.000000, 377.000000)">
                <path d="M59,9 L56,9 L55.819,9.037 C54.911,3.899 50.512,0 45.072,0 C39.729,0 35.27,3.761 34.23,8.764 C32.892,7.609 31.501,7.011 30.077,7 L30.038,7 C28.593,7 27.168,7.604 25.782,8.785 C24.777,3.771 20.424,0 15.072,0 C9.294,0 4.555,4.399 4.05,10.01 L4,10 L1,10 C0.447,10 0,10.448 0,11 C0,11.552 0.447,12 1,12 L4,12 L4.05,11.99 C4.555,17.601 9.294,22 15.072,22 C21.051,22 25.772,17.289 25.98,11.402 C27.371,9.814 28.735,9 30.038,9 L30.062,9 C31.352,9.01 32.683,9.821 34.02,11.395 C34.231,17.286 39.092,22 45.072,22 C51.188,22 56,17.075 56,11 L59,11 C59.553,11 60,10.552 60,10 C60,9.448 59.553,9 59,9" id="Fill-3" sketch:type="MSShapeGroup"></path>
            </g>
        </g>
    </g>
</svg>