<?xml version="1.0" encoding="UTF-8" standalone="no"?>
<svg width="60px" height="56px" viewBox="0 0 60 56" version="1.1" xmlns="http://www.w3.org/2000/svg" xmlns:xlink="http://www.w3.org/1999/xlink" xmlns:sketch="http://www.bohemiancoding.com/sketch/ns">
    <!-- Generator: Sketch 3.2.2 (9983) - http://www.bohemiancoding.com/sketch -->
    <title>373 - Home (Solid)</title>
    <desc>Created with Sketch.</desc>
    <defs></defs>
    <g id="Page-1" stroke="none" stroke-width="1" fill="none" fill-rule="evenodd" sketch:type="MSPage">
        <g id="Icons" sketch:type="MSArtboardGroup" transform="translate(-960.000000, -361.000000)" fill="#000000">
            <g id="373---Home-(Solid)" sketch:type="MSLayerGroup" transform="translate(960.000000, 361.000000)">
                <path d="M57.821,26.193 C59.015,24.906 58.854,22.873 57.471,21.791 L32.041,1.896 L30,0 L27.959,1.896 L2.529,21.791 C1.146,22.873 0.985,24.906 2.179,26.193 C3.234,27.329 4.98,27.474 6.208,26.528 L30,8.188 L53.792,26.528 C55.02,27.474 56.766,27.329 57.821,26.193" id="Fill-676" sketch:type="MSShapeGroup"></path>
                <path d="M59,45 C58.447,45 58,45.448 58,46 L58,47 L57,47 L57,46 C57,45.448 56.553,45 56,45 C55.447,45 55,45.448 55,46 L55,47 L53,47 L53,24.917 L30,7.188 L7,24.917 L7,47 L5,47 L5,46 C5,45.448 4.553,45 4,45 C3.447,45 3,45.448 3,46 L3,47 L2,47 L2,46 C2,45.448 1.553,45 1,45 C0.447,45 0,45.448 0,46 L0,55 C0,55.552 0.447,56 1,56 C1.553,56 2,55.552 2,55 L2,54 L3,54 L3,55 C3,55.552 3.447,56 4,56 C4.553,56 5,55.552 5,55 L5,54 L7,54 L7,56 L33,56 L33,38 L45,38 L45,56 L53,56 L53,54 L55,54 L55,55 C55,55.552 55.447,56 56,56 C56.553,56 57,55.552 57,55 L57,54 L58,54 L58,55 C58,55.552 58.447,56 59,56 C59.553,56 60,55.552 60,55 L60,46 C60,45.448 59.553,45 59,45 L59,45 Z M15,28 L27,28 L27,32 L15,32 L15,28 Z M15,38 L20,38 L20,42 L15,42 L15,38 Z M22,38 L27,38 L27,42 L22,42 L22,38 Z M15,24 L27,24 L27,26 L15,26 L15,24 Z M2,49 L3,49 L3,52 L2,52 L2,49 Z M5,49 L7,49 L7,52 L5,52 L5,49 Z M15,44 L20,44 L20,48 L15,48 L15,44 Z M22,44 L27,44 L27,48 L22,48 L22,44 Z M33,24 L45,24 L45,28 L33,28 L33,24 Z M33,30 L45,30 L45,32 L33,32 L33,30 Z M53,49 L55,49 L55,52 L53,52 L53,49 Z M57,49 L58,49 L58,52 L57,52 L57,49 Z" id="Fill-677" sketch:type="MSShapeGroup"></path>
            </g>
        </g>
    </g>
</svg>