<?xml version="1.0" encoding="UTF-8" standalone="no"?>
<svg width="58px" height="59px" viewBox="0 0 58 59" version="1.1" xmlns="http://www.w3.org/2000/svg" xmlns:xlink="http://www.w3.org/1999/xlink" xmlns:sketch="http://www.bohemiancoding.com/sketch/ns">
    <!-- Generator: Sketch 3.2.2 (9983) - http://www.bohemiancoding.com/sketch -->
    <title>374 - Home (Solid)</title>
    <desc>Created with Sketch.</desc>
    <defs></defs>
    <g id="Page-1" stroke="none" stroke-width="1" fill="none" fill-rule="evenodd" sketch:type="MSPage">
        <g id="Icons" sketch:type="MSArtboardGroup" transform="translate(-841.000000, -357.000000)" fill="#000000">
            <g id="374---Home-(Solid)" sketch:type="MSLayerGroup" transform="translate(841.000000, 357.000000)">
                <path d="M57.681,27.268 L29,0.636 L0.319,27.268 C-0.085,27.643 -0.108,28.276 0.268,28.681 C0.642,29.084 1.276,29.108 1.681,28.733 L6,24.722 L6,59 L52,59 L52,24.722 L56.319,28.733 C56.512,28.912 56.756,29 57,29 C57.269,29 57.536,28.893 57.732,28.681 C58.108,28.276 58.085,27.643 57.681,27.268 L57.681,27.268 Z M14,41 L26,41 L26,53 L14,53 L14,41 Z M14,23 L26,23 L26,35 L14,35 L14,23 Z M32,41 L44,41 L44,53 L32,53 L32,41 Z M32,23 L44,23 L44,35 L32,35 L32,23 Z" id="Fill-675" sketch:type="MSShapeGroup"></path>
            </g>
        </g>
    </g>
</svg>