<?xml version="1.0" encoding="UTF-8" standalone="no"?>
<svg width="58px" height="60px" viewBox="0 0 58 60" version="1.1" xmlns="http://www.w3.org/2000/svg" xmlns:xlink="http://www.w3.org/1999/xlink" xmlns:sketch="http://www.bohemiancoding.com/sketch/ns">
    <!-- Generator: Sketch 3.2.2 (9983) - http://www.bohemiancoding.com/sketch -->
    <title>376 - Home (Solid)</title>
    <desc>Created with Sketch.</desc>
    <defs></defs>
    <g id="Page-1" stroke="none" stroke-width="1" fill="none" fill-rule="evenodd" sketch:type="MSPage">
        <g id="Icons" sketch:type="MSArtboardGroup" transform="translate(-601.000000, -357.000000)" fill="#000000">
            <g id="376---Home-(Solid)" sketch:type="MSLayerGroup" transform="translate(601.000000, 357.000000)">
                <path d="M57.681,27.268 L48,18.278 L48,7 L40,7 L40,10.85 L29,0.636 L0.319,27.268 C-0.085,27.643 -0.108,28.276 0.267,28.681 C0.643,29.084 1.275,29.107 1.681,28.733 L6,24.722 L6,60 L22,60 L22,35.937 C22,34.867 22.867,34 23.937,34 L34.063,34 C35.133,34 36,34.867 36,35.937 L36,60 L52,60 L52,24.722 L56.319,28.733 C56.512,28.912 56.756,29 57,29 C57.269,29 57.536,28.893 57.732,28.681 C58.108,28.276 58.085,27.643 57.681,27.268" id="Fill-1" sketch:type="MSShapeGroup"></path>
            </g>
        </g>
    </g>
</svg>