<?xml version="1.0" encoding="UTF-8" standalone="no"?>
<svg width="54px" height="54px" viewBox="0 0 54 54" version="1.1" xmlns="http://www.w3.org/2000/svg" xmlns:xlink="http://www.w3.org/1999/xlink" xmlns:sketch="http://www.bohemiancoding.com/sketch/ns">
    <!-- Generator: Sketch 3.2.2 (9983) - http://www.bohemiancoding.com/sketch -->
    <title>377 - Search (Solid)</title>
    <desc>Created with Sketch.</desc>
    <defs></defs>
    <g id="Page-1" stroke="none" stroke-width="1" fill="none" fill-rule="evenodd" sketch:type="MSPage">
        <g id="Icons" sketch:type="MSArtboardGroup" transform="translate(-485.000000, -361.000000)" fill="#1A1718">
            <g id="377---Search-(Solid)" sketch:type="MSLayerGroup" transform="translate(485.000000, 361.000000)">
                <path d="M53.627,49.385 L37.796,33.553 C40.423,30.046 42,25.709 42,21 C42,9.42 32.58,0 21,0 C9.42,0 0,9.42 0,21 C0,32.58 9.42,42 21,42 C25.709,42 30.046,40.423 33.553,37.795 L49.385,53.627 L53.627,49.385 L53.627,49.385 Z M2,21 C2,10.523 10.523,2 21,2 C31.477,2 40,10.523 40,21 C40,31.477 31.477,40 21,40 C10.523,40 2,31.477 2,21 L2,21 Z" id="Fill-709" sketch:type="MSShapeGroup"></path>
            </g>
        </g>
    </g>
</svg>