<?xml version="1.0" encoding="UTF-8" standalone="no"?>
<svg width="55px" height="57px" viewBox="0 0 55 57" version="1.1" xmlns="http://www.w3.org/2000/svg" xmlns:xlink="http://www.w3.org/1999/xlink" xmlns:sketch="http://www.bohemiancoding.com/sketch/ns">
    <!-- Generator: Sketch 3.2.2 (9983) - http://www.bohemiancoding.com/sketch -->
    <title>378 - Search (Solid)</title>
    <desc>Created with Sketch.</desc>
    <defs></defs>
    <g id="Page-1" stroke="none" stroke-width="1" fill="none" fill-rule="evenodd" sketch:type="MSPage">
        <g id="Icons" sketch:type="MSArtboardGroup" transform="translate(-363.000000, -359.000000)" fill="#1A1718">
            <g id="378---Search-(Solid)" sketch:type="MSLayerGroup" transform="translate(363.000000, 359.000000)">
                <path d="M54.163,51.887 L40.604,37.786 C44.09,33.642 46,28.428 46,23 C46,10.318 35.682,0 23,0 C10.318,0 0,10.318 0,23 C0,35.682 10.318,46 23,46 C27.761,46 32.298,44.564 36.177,41.838 L49.838,56.046 C50.409,56.639 51.177,56.966 52,56.966 C52.779,56.966 53.518,56.668 54.079,56.128 C55.272,54.982 55.309,53.08 54.163,51.887 L54.163,51.887 Z M23,6 C32.374,6 40,13.626 40,23 C40,32.374 32.374,40 23,40 C13.626,40 6,32.374 6,23 C6,13.626 13.626,6 23,6 L23,6 Z" id="Fill-708" sketch:type="MSShapeGroup"></path>
            </g>
        </g>
    </g>
</svg>