<?xml version="1.0" encoding="UTF-8" standalone="no"?>
<svg width="51px" height="53px" viewBox="0 0 51 53" version="1.1" xmlns="http://www.w3.org/2000/svg" xmlns:xlink="http://www.w3.org/1999/xlink" xmlns:sketch="http://www.bohemiancoding.com/sketch/ns">
    <!-- Generator: Sketch 3.2.2 (9983) - http://www.bohemiancoding.com/sketch -->
    <title>379 - Zoom Out (Solid)</title>
    <desc>Created with Sketch.</desc>
    <defs></defs>
    <g id="Page-1" stroke="none" stroke-width="1" fill="none" fill-rule="evenodd" sketch:type="MSPage">
        <g id="Icons" sketch:type="MSArtboardGroup" transform="translate(-245.000000, -361.000000)" fill="#1A1718">
            <g id="379---Zoom-Out-(Solid)" sketch:type="MSLayerGroup" transform="translate(245.000000, 361.000000)">
                <path d="M50.721,51.273 L35.863,35.82 C39.653,32.02 42,26.779 42,21 C42,9.42 32.58,0 21,0 C9.42,0 0,9.42 0,21 C0,32.58 9.42,42 21,42 C26.083,42 30.748,40.184 34.384,37.168 L49.279,52.659 C49.476,52.863 49.738,52.966 50,52.966 C50.25,52.966 50.499,52.873 50.693,52.687 C51.091,52.304 51.104,51.671 50.721,51.273 L50.721,51.273 Z M28,23 L14,23 C12.896,23 12,22.104 12,21 C12,19.896 12.896,19 14,19 L28,19 C29.105,19 30,19.896 30,21 C30,22.104 29.105,23 28,23 L28,23 Z" id="Fill-707" sketch:type="MSShapeGroup"></path>
            </g>
        </g>
    </g>
</svg>