<?xml version="1.0" encoding="UTF-8" standalone="no"?>
<svg width="58px" height="59px" viewBox="0 0 58 59" version="1.1" xmlns="http://www.w3.org/2000/svg" xmlns:xlink="http://www.w3.org/1999/xlink" xmlns:sketch="http://www.bohemiancoding.com/sketch/ns">
    <!-- Generator: Sketch 3.2.2 (9983) - http://www.bohemiancoding.com/sketch -->
    <title>38 - Calendar Event (Solid)</title>
    <desc>Created with Sketch.</desc>
    <defs></defs>
    <g id="Page-1" stroke="none" stroke-width="1" fill="none" fill-rule="evenodd" sketch:type="MSPage">
        <g id="Icons" sketch:type="MSArtboardGroup" transform="translate(-361.000000, -4438.000000)" fill="#000000">
            <g id="38---Calendar-Event-(Solid)" sketch:type="MSLayerGroup" transform="translate(361.000000, 4438.000000)">
                <path d="M31.293,41.707 C31.488,41.903 31.744,42 32,42 C32.256,42 32.512,41.903 32.707,41.707 L36,38.414 L39.293,41.707 C39.488,41.903 39.744,42 40,42 C40.256,42 40.512,41.903 40.707,41.707 C41.098,41.317 41.098,40.684 40.707,40.293 L37.414,37 L40.707,33.707 C41.098,33.316 41.098,32.684 40.707,32.293 C40.316,31.902 39.684,31.902 39.293,32.293 L36,35.586 L32.707,32.293 C32.316,31.902 31.684,31.902 31.293,32.293 C30.902,32.684 30.902,33.316 31.293,33.707 L34.586,37 L31.293,40.293 C30.902,40.684 30.902,41.317 31.293,41.707" id="Fill-1243" sketch:type="MSShapeGroup"></path>
                <path d="M26,0 C25.447,0 25,0.447 25,1 C25,1.552 25.447,2 26,2 C27.302,2 28.402,2.838 28.816,4 L30.899,4 C30.434,1.721 28.414,0 26,0" id="Fill-1244" sketch:type="MSShapeGroup"></path>
                <path d="M32,0 C31.447,0 31,0.447 31,1 C31,1.552 31.447,2 32,2 C33.302,2 34.402,2.838 34.816,4 L36.899,4 C36.434,1.721 34.414,0 32,0" id="Fill-1245" sketch:type="MSShapeGroup"></path>
                <path d="M38,0 C37.447,0 37,0.447 37,1 C37,1.552 37.447,2 38,2 C39.302,2 40.402,2.838 40.816,4 L42.899,4 C42.434,1.721 40.414,0 38,0" id="Fill-1246" sketch:type="MSShapeGroup"></path>
                <path d="M42.899,4 C42.965,4.323 43,4.658 43,5 C43,7.757 40.757,10 38,10 C37.447,10 37,9.553 37,9 C37,8.447 37.447,8 38,8 C39.654,8 41,6.654 41,5 C41,4.648 40.928,4.314 40.816,4 L36.899,4 C36.965,4.323 37,4.658 37,5 C37,7.757 34.757,10 32,10 C31.447,10 31,9.553 31,9 C31,8.447 31.447,8 32,8 C33.654,8 35,6.654 35,5 C35,4.648 34.928,4.314 34.816,4 L30.899,4 C30.965,4.323 31,4.658 31,5 C31,7.757 28.757,10 26,10 C25.447,10 25,9.553 25,9 C25,8.447 25.447,8 26,8 C27.654,8 29,6.654 29,5 C29,4.648 28.928,4.314 28.816,4 L24.899,4 C24.965,4.323 25,4.658 25,5 C25,7.757 22.757,10 20,10 C19.447,10 19,9.553 19,9 C19,8.447 19.447,8 20,8 C21.654,8 23,6.654 23,5 C23,4.648 22.928,4.314 22.816,4 L17.184,4 C17.598,2.838 18.698,2 20,2 C21.302,2 22.402,2.838 22.816,4 L24.899,4 C24.434,1.721 22.414,0 20,0 C17.586,0 15.566,1.721 15.101,4 L0,4 L0,59 L58,59 L58,4 L42.899,4 L42.899,4 Z M30,31 L42,31 L42,43 L30,43 L30,31 Z M16,31 L28,31 L28,43 L16,43 L16,31 Z M16,17 L28,17 L28,29 L16,29 L16,17 Z M30,17 L42,17 L42,29 L30,29 L30,17 Z M2,17 L14,17 L14,29 L2,29 L2,17 Z M2,31 L14,31 L14,43 L2,43 L2,31 Z M2,45 L14,45 L14,57 L2,57 L2,45 Z M16,45 L28,45 L28,57 L16,57 L16,45 Z M30,45 L42,45 L42,57 L30,57 L30,45 Z M44,45 L56,45 L56,57 L44,57 L44,45 Z M44,31 L56,31 L56,43 L44,43 L44,31 Z M44,17 L56,17 L56,29 L44,29 L44,17 Z" id="Fill-1247" sketch:type="MSShapeGroup"></path>
            </g>
        </g>
    </g>
</svg>