<?xml version="1.0" encoding="UTF-8" standalone="no"?>
<svg width="58px" height="58px" viewBox="0 0 58 58" version="1.1" xmlns="http://www.w3.org/2000/svg" xmlns:xlink="http://www.w3.org/1999/xlink" xmlns:sketch="http://www.bohemiancoding.com/sketch/ns">
    <!-- Generator: Sketch 3.2.2 (9983) - http://www.bohemiancoding.com/sketch -->
    <title>39 - Calendar (Solid)</title>
    <desc>Created with Sketch.</desc>
    <defs></defs>
    <g id="Page-1" stroke="none" stroke-width="1" fill="none" fill-rule="evenodd" sketch:type="MSPage">
        <g id="Icons" sketch:type="MSArtboardGroup" transform="translate(-241.000000, -4439.000000)" fill="#000000">
            <g id="39---Calendar-(Solid)" sketch:type="MSLayerGroup" transform="translate(241.000000, 4439.000000)">
                <path d="M13,34 C16.309,34 19,31.309 19,28 C19,24.691 16.309,22 13,22 C9.691,22 7,24.691 7,28 C7,31.309 9.691,34 13,34 L13,34 Z M13,24 C15.206,24 17,25.794 17,28 C17,30.206 15.206,32 13,32 C10.794,32 9,30.206 9,28 C9,25.794 10.794,24 13,24 L13,24 Z" id="Fill-1262" sketch:type="MSShapeGroup"></path>
                <path d="M29,34 C32.309,34 35,31.309 35,28 C35,24.691 32.309,22 29,22 C25.691,22 23,24.691 23,28 C23,31.309 25.691,34 29,34 L29,34 Z M29,24 C31.206,24 33,25.794 33,28 C33,30.206 31.206,32 29,32 C26.794,32 25,30.206 25,28 C25,25.794 26.794,24 29,24 L29,24 Z" id="Fill-1263" sketch:type="MSShapeGroup"></path>
                <path d="M45,34 C48.309,34 51,31.309 51,28 C51,24.691 48.309,22 45,22 C41.691,22 39,24.691 39,28 C39,31.309 41.691,34 45,34 L45,34 Z M45,24 C47.206,24 49,25.794 49,28 C49,30.206 47.206,32 45,32 C42.794,32 41,30.206 41,28 C41,25.794 42.794,24 45,24 L45,24 Z" id="Fill-1264" sketch:type="MSShapeGroup"></path>
                <path d="M13,50 C16.309,50 19,47.308 19,44 C19,40.692 16.309,38 13,38 C9.691,38 7,40.692 7,44 C7,47.308 9.691,50 13,50 L13,50 Z M13,40 C15.206,40 17,41.794 17,44 C17,46.206 15.206,48 13,48 C10.794,48 9,46.206 9,44 C9,41.794 10.794,40 13,40 L13,40 Z" id="Fill-1265" sketch:type="MSShapeGroup"></path>
                <path d="M29,50 C32.309,50 35,47.308 35,44 C35,40.692 32.309,38 29,38 C25.691,38 23,40.692 23,44 C23,47.308 25.691,50 29,50 L29,50 Z M29,40 C31.206,40 33,41.794 33,44 C33,46.206 31.206,48 29,48 C26.794,48 25,46.206 25,44 C25,41.794 26.794,40 29,40 L29,40 Z" id="Fill-1266" sketch:type="MSShapeGroup"></path>
                <path d="M45,50 C48.309,50 51,47.308 51,44 C51,40.692 48.309,38 45,38 C41.691,38 39,40.692 39,44 C39,47.308 41.691,50 45,50" id="Fill-1267" sketch:type="MSShapeGroup"></path>
                <path d="M26,0 C25.447,0 25,0.447 25,1 C25,1.553 25.447,2 26,2 C27.302,2 28.402,2.839 28.816,4 L30.899,4 C30.434,1.721 28.414,0 26,0" id="Fill-1268" sketch:type="MSShapeGroup"></path>
                <path d="M32,0 C31.447,0 31,0.447 31,1 C31,1.553 31.447,2 32,2 C33.302,2 34.402,2.839 34.816,4 L36.899,4 C36.434,1.721 34.414,0 32,0" id="Fill-1269" sketch:type="MSShapeGroup"></path>
                <path d="M38,0 C37.447,0 37,0.447 37,1 C37,1.553 37.447,2 38,2 C39.302,2 40.402,2.839 40.816,4 L42.899,4 C42.434,1.721 40.414,0 38,0" id="Fill-1270" sketch:type="MSShapeGroup"></path>
                <path d="M42.899,4 C42.965,4.323 43,4.658 43,5 C43,7.757 40.757,10 38,10 C37.447,10 37,9.552 37,9 C37,8.447 37.447,8 38,8 C39.654,8 41,6.654 41,5 C41,4.648 40.928,4.314 40.816,4 L36.899,4 C36.965,4.323 37,4.658 37,5 C37,7.757 34.757,10 32,10 C31.447,10 31,9.552 31,9 C31,8.447 31.447,8 32,8 C33.654,8 35,6.654 35,5 C35,4.648 34.928,4.314 34.816,4 L30.899,4 C30.965,4.323 31,4.658 31,5 C31,7.757 28.757,10 26,10 C25.447,10 25,9.552 25,9 C25,8.447 25.447,8 26,8 C27.654,8 29,6.654 29,5 C29,4.648 28.928,4.314 28.816,4 L24.899,4 C24.965,4.323 25,4.658 25,5 C25,7.757 22.757,10 20,10 C19.447,10 19,9.552 19,9 C19,8.447 19.447,8 20,8 C21.654,8 23,6.654 23,5 C23,4.648 22.928,4.314 22.816,4 L17.184,4 C17.598,2.839 18.698,2 20,2 C21.302,2 22.402,2.839 22.816,4 L24.899,4 C24.434,1.721 22.414,0 20,0 C17.586,0 15.566,1.721 15.101,4 L0,4 L0,58 L58,58 L58,4 L42.899,4 L42.899,4 Z M2,17 L56,17 L56,56 L2,56 L2,17 Z" id="Fill-1271" sketch:type="MSShapeGroup"></path>
            </g>
        </g>
    </g>
</svg>