<?xml version="1.0" encoding="UTF-8" standalone="no"?>
<svg width="60px" height="60px" viewBox="0 0 60 60" version="1.1" xmlns="http://www.w3.org/2000/svg" xmlns:xlink="http://www.w3.org/1999/xlink" xmlns:sketch="http://www.bohemiancoding.com/sketch/ns">
    <!-- Generator: Sketch 3.2.2 (9983) - http://www.bohemiancoding.com/sketch -->
    <title>4 - Box Archive (Solid)</title>
    <desc>Created with Sketch.</desc>
    <defs></defs>
    <g id="Page-1" stroke="none" stroke-width="1" fill="none" fill-rule="evenodd" sketch:type="MSPage">
        <g id="Icons" sketch:type="MSArtboardGroup" transform="translate(-840.000000, -4797.000000)" fill="#1A1718">
            <g id="4---Box-Archive-(Solid)" sketch:type="MSLayerGroup" transform="translate(840.000000, 4797.000000)">
                <path d="M17,40 L43,40 L43,28 L17,28 L17,40 Z M41,36 C41,36.553 40.553,37 40,37 L24,37 C23.447,37 23,36.553 23,36 C23,35.447 23.447,35 24,35 L40,35 C40.553,35 41,35.447 41,36 L41,36 Z M29.29,31.29 C29.66,30.92 30.33,30.92 30.71,31.29 C30.89,31.479 31,31.739 31,32 C31,32.26 30.89,32.52 30.71,32.71 C30.519,32.89 30.26,33 30,33 C29.729,33 29.479,32.89 29.29,32.71 C29.109,32.52 29,32.27 29,32 C29,31.739 29.109,31.479 29.29,31.29 L29.29,31.29 Z M20,31 L26,31 C26.553,31 27,31.447 27,32 C27,32.552 26.553,33 26,33 L20,33 C19.447,33 19,32.552 19,32 C19,31.447 19.447,31 20,31 L20,31 Z M19.29,35.29 C19.67,34.92 20.34,34.92 20.71,35.29 C20.89,35.479 21,35.739 21,36 C21,36.26 20.89,36.52 20.71,36.71 C20.519,36.89 20.27,37 20,37 C19.729,37 19.479,36.89 19.29,36.71 C19.109,36.52 19,36.26 19,36 C19,35.739 19.109,35.479 19.29,35.29 L19.29,35.29 Z" id="Fill-1341" sketch:type="MSShapeGroup"></path>
                <path d="M3,59 C3,59.552 3.447,60 4,60 L56,60 C56.553,60 57,59.552 57,59 L57,55 L3,55 L3,59" id="Fill-1342" sketch:type="MSShapeGroup"></path>
                <path d="M56,21 L4,21 C3.447,21 3,21.448 3,22 L3,53 L57,53 L57,22 C57,21.448 56.553,21 56,21 L56,21 Z M45,41 C45,41.552 44.553,42 44,42 L16,42 C15.447,42 15,41.552 15,41 L15,27 C15,26.447 15.447,26 16,26 L44,26 C44.553,26 45,26.447 45,27 L45,41 L45,41 Z" id="Fill-1343" sketch:type="MSShapeGroup"></path>
                <path d="M56.954,0.99 L3.046,0.99 C1.366,0.99 0,2.357 0,4.036 L0,18 C0,18.553 0.447,19 1,19 L59,19 C59.553,19 60,18.553 60,18 L60,4.036 C60,2.357 58.634,0.99 56.954,0.99 L56.954,0.99 Z M39,15 L21,15 C18.243,15 16,12.757 16,10 C16,7.243 18.243,5 21,5 L39,5 C41.757,5 44,7.243 44,10 C44,12.757 41.757,15 39,15 L39,15 Z" id="Fill-1344" sketch:type="MSShapeGroup"></path>
            </g>
        </g>
    </g>
</svg>