<?xml version="1.0" encoding="UTF-8" standalone="no"?>
<svg width="52px" height="59px" viewBox="0 0 52 59" version="1.1" xmlns="http://www.w3.org/2000/svg" xmlns:xlink="http://www.w3.org/1999/xlink" xmlns:sketch="http://www.bohemiancoding.com/sketch/ns">
    <!-- Generator: Sketch 3.2.2 (9983) - http://www.bohemiancoding.com/sketch -->
    <title>40 - Note (Solid)</title>
    <desc>Created with Sketch.</desc>
    <defs></defs>
    <g id="Page-1" stroke="none" stroke-width="1" fill="none" fill-rule="evenodd" sketch:type="MSPage">
        <g id="Icons" sketch:type="MSArtboardGroup" transform="translate(-124.000000, -4438.000000)" fill="#000000">
            <g id="40---Note-(Solid)" sketch:type="MSLayerGroup" transform="translate(124.000000, 4438.000000)">
                <path d="M23,0 C22.447,0 22,0.447 22,1 C22,1.552 22.447,2 23,2 C24.302,2 25.402,2.838 25.816,4 L27.899,4 C27.434,1.721 25.414,0 23,0" id="Fill-4" sketch:type="MSShapeGroup"></path>
                <path d="M29,0 C28.447,0 28,0.447 28,1 C28,1.552 28.447,2 29,2 C30.302,2 31.402,2.838 31.816,4 L33.899,4 C33.434,1.721 31.414,0 29,0" id="Fill-5" sketch:type="MSShapeGroup"></path>
                <path d="M35,0 C34.447,0 34,0.447 34,1 C34,1.552 34.447,2 35,2 C36.302,2 37.402,2.838 37.816,4 L39.899,4 C39.434,1.721 37.414,0 35,0" id="Fill-6" sketch:type="MSShapeGroup"></path>
                <path d="M39.899,4 C39.965,4.323 40,4.657 40,5 C40,7.757 37.757,10 35,10 C34.447,10 34,9.553 34,9 C34,8.447 34.447,8 35,8 C36.654,8 38,6.654 38,5 C38,4.648 37.928,4.314 37.816,4 L33.899,4 C33.965,4.323 34,4.657 34,5 C34,7.757 31.757,10 29,10 C28.447,10 28,9.553 28,9 C28,8.447 28.447,8 29,8 C30.654,8 32,6.654 32,5 C32,4.648 31.928,4.314 31.816,4 L27.899,4 C27.965,4.323 28,4.657 28,5 C28,7.757 25.757,10 23,10 C22.447,10 22,9.553 22,9 C22,8.447 22.447,8 23,8 C24.654,8 26,6.654 26,5 C26,4.648 25.928,4.314 25.816,4 L21.899,4 C21.965,4.323 22,4.657 22,5 C22,7.757 19.757,10 17,10 C16.447,10 16,9.553 16,9 C16,8.447 16.447,8 17,8 C18.654,8 20,6.654 20,5 C20,4.648 19.928,4.314 19.816,4 L14.184,4 C14.598,2.838 15.698,2 17,2 C18.302,2 19.402,2.838 19.816,4 L21.899,4 C21.434,1.721 19.414,0 17,0 C14.586,0 12.566,1.721 12.101,4 L0,4 L0,59 L38,59 L38,45 L52,45 L52,4 L39.899,4 L39.899,4 Z M10,27 C10,27.553 9.552,28 9,28 L9,36 C9.552,36 10,36.447 10,37 C10,37.552 9.552,38 9,38 L9,46 C9.552,46 10,46.447 10,47 C10,47.553 9.552,48 9,48 L9,53 C9,53.553 8.552,54 8,54 C7.448,54 7,53.553 7,53 L7,48 C6.448,48 6,47.553 6,47 C6,46.447 6.448,46 7,46 L7,38 C6.448,38 6,37.552 6,37 C6,36.447 6.448,36 7,36 L7,28 C6.448,28 6,27.553 6,27 C6,26.447 6.448,26 7,26 L7,18 C6.448,18 6,17.553 6,17 C6,16.447 6.448,16 7,16 L7,12 C7,11.447 7.448,11 8,11 C8.552,11 9,11.447 9,12 L9,16 C9.552,16 10,16.447 10,17 C10,17.553 9.552,18 9,18 L9,26 C9.552,26 10,26.447 10,27 L10,27 Z M15,48 L13,48 C12.448,48 12,47.553 12,47 C12,46.447 12.448,46 13,46 L15,46 C15.552,46 16,46.447 16,47 C16,47.553 15.552,48 15,48 L15,48 Z M15,38 L13,38 C12.448,38 12,37.552 12,37 C12,36.447 12.448,36 13,36 L15,36 C15.552,36 16,36.447 16,37 C16,37.552 15.552,38 15,38 L15,38 Z M15,28 L13,28 C12.448,28 12,27.553 12,27 C12,26.447 12.448,26 13,26 L15,26 C15.552,26 16,26.447 16,27 C16,27.553 15.552,28 15,28 L15,28 Z M15,18 L13,18 C12.448,18 12,17.553 12,17 C12,16.447 12.448,16 13,16 L15,16 C15.552,16 16,16.447 16,17 C16,17.553 15.552,18 15,18 L15,18 Z M21,48 L19,48 C18.448,48 18,47.553 18,47 C18,46.447 18.448,46 19,46 L21,46 C21.552,46 22,46.447 22,47 C22,47.553 21.552,48 21,48 L21,48 Z M21,38 L19,38 C18.448,38 18,37.552 18,37 C18,36.447 18.448,36 19,36 L21,36 C21.552,36 22,36.447 22,37 C22,37.552 21.552,38 21,38 L21,38 Z M21,28 L19,28 C18.448,28 18,27.553 18,27 C18,26.447 18.448,26 19,26 L21,26 C21.552,26 22,26.447 22,27 C22,27.553 21.552,28 21,28 L21,28 Z M21,18 L19,18 C18.448,18 18,17.553 18,17 C18,16.447 18.448,16 19,16 L21,16 C21.552,16 22,16.447 22,17 C22,17.553 21.552,18 21,18 L21,18 Z M27,48 L25,48 C24.448,48 24,47.553 24,47 C24,46.447 24.448,46 25,46 L27,46 C27.552,46 28,46.447 28,47 C28,47.553 27.552,48 27,48 L27,48 Z M27,38 L25,38 C24.448,38 24,37.552 24,37 C24,36.447 24.448,36 25,36 L27,36 C27.552,36 28,36.447 28,37 C28,37.552 27.552,38 27,38 L27,38 Z M27,28 L25,28 C24.448,28 24,27.553 24,27 C24,26.447 24.448,26 25,26 L27,26 C27.552,26 28,26.447 28,27 C28,27.553 27.552,28 27,28 L27,28 Z M27,18 L25,18 C24.448,18 24,17.553 24,17 C24,16.447 24.448,16 25,16 L27,16 C27.552,16 28,16.447 28,17 C28,17.553 27.552,18 27,18 L27,18 Z M33,48 L31,48 C30.448,48 30,47.553 30,47 C30,46.447 30.448,46 31,46 L33,46 C33.552,46 34,46.447 34,47 C34,47.553 33.552,48 33,48 L33,48 Z M33,38 L31,38 C30.448,38 30,37.552 30,37 C30,36.447 30.448,36 31,36 L33,36 C33.552,36 34,36.447 34,37 C34,37.552 33.552,38 33,38 L33,38 Z M33,28 L31,28 C30.448,28 30,27.553 30,27 C30,26.447 30.448,26 31,26 L33,26 C33.552,26 34,26.447 34,27 C34,27.553 33.552,28 33,28 L33,28 Z M33,18 L31,18 C30.448,18 30,17.553 30,17 C30,16.447 30.448,16 31,16 L33,16 C33.552,16 34,16.447 34,17 C34,17.553 33.552,18 33,18 L33,18 Z M39,38 L37,38 C36.448,38 36,37.552 36,37 C36,36.447 36.448,36 37,36 L39,36 C39.552,36 40,36.447 40,37 C40,37.552 39.552,38 39,38 L39,38 Z M39,28 L37,28 C36.448,28 36,27.553 36,27 C36,26.447 36.448,26 37,26 L39,26 C39.552,26 40,26.447 40,27 C40,27.553 39.552,28 39,28 L39,28 Z M39,18 L37,18 C36.448,18 36,17.553 36,17 C36,16.447 36.448,16 37,16 L39,16 C39.552,16 40,16.447 40,17 C40,17.553 39.552,18 39,18 L39,18 Z M45,38 L43,38 C42.448,38 42,37.552 42,37 C42,36.447 42.448,36 43,36 L45,36 C45.552,36 46,36.447 46,37 C46,37.552 45.552,38 45,38 L45,38 Z M45,28 L43,28 C42.448,28 42,27.553 42,27 C42,26.447 42.448,26 43,26 L45,26 C45.552,26 46,26.447 46,27 C46,27.553 45.552,28 45,28 L45,28 Z M45,18 L43,18 C42.448,18 42,17.553 42,17 C42,16.447 42.448,16 43,16 L45,16 C45.552,16 46,16.447 46,17 C46,17.553 45.552,18 45,18 L45,18 Z" id="Fill-7" sketch:type="MSShapeGroup"></path>
                <path d="M52,45 L52,45 L38,59 L52,59 L52,45" id="Fill-8" sketch:type="MSShapeGroup"></path>
            </g>
        </g>
    </g>
</svg>