<?xml version="1.0" encoding="UTF-8" standalone="no"?>
<svg width="49px" height="60px" viewBox="0 0 49 60" version="1.1" xmlns="http://www.w3.org/2000/svg" xmlns:xlink="http://www.w3.org/1999/xlink" xmlns:sketch="http://www.bohemiancoding.com/sketch/ns">
    <!-- Generator: Sketch 3.2.2 (9983) - http://www.bohemiancoding.com/sketch -->
    <title>42 - Flipboard Document (Solid)</title>
    <desc>Created with Sketch.</desc>
    <defs></defs>
    <g id="Page-1" stroke="none" stroke-width="1" fill="none" fill-rule="evenodd" sketch:type="MSPage">
        <g id="Icons" sketch:type="MSArtboardGroup" transform="translate(-1085.000000, -4317.000000)" fill="#1A1718">
            <g id="42---Flipboard-Document-(Solid)" sketch:type="MSLayerGroup" transform="translate(1085.000000, 4317.000000)">
                <path d="M20,7 L29,7 C29.553,7 30,6.553 30,6 L30,1 C30,0.447 29.553,0 29,0 L20,0 C19.447,0 19,0.447 19,1 L19,6 C19,6.553 19.447,7 20,7" id="Fill-1220" sketch:type="MSShapeGroup"></path>
                <path d="M33,2 C32.447,2 32,2.447 32,3 C32,3.553 32.447,4 33,4 L47,4 L47,58 L2,58 L2,4 L16,4 C16.553,4 17,3.553 17,3 C17,2.447 16.553,2 16,2 L0,2 L0,60 L49,60 L49,2 L33,2" id="Fill-1221" sketch:type="MSShapeGroup"></path>
                <path d="M46,5 L35,5 L35,8 L14,8 L14,5 L3,5 L3,57 L28.586,57 L46,39.586 L46,5 L46,5 Z M22,25 C22,25.26 21.89,25.519 21.71,25.71 C21.52,25.89 21.27,26 21,26 C20.729,26 20.48,25.89 20.29,25.71 C20.1,25.519 20,25.26 20,25 C20,24.739 20.1,24.48 20.29,24.3 C20.66,23.92 21.33,23.92 21.71,24.29 C21.89,24.48 22,24.739 22,25 L22,25 Z M11,16 L20,16 C20.553,16 21,16.447 21,17 C21,17.552 20.553,18 20,18 L11,18 C10.447,18 10,17.552 10,17 C10,16.447 10.447,16 11,16 L11,16 Z M11,24 L16,24 C16.553,24 17,24.447 17,25 C17,25.553 16.553,26 16,26 L11,26 C10.447,26 10,25.553 10,25 C10,24.447 10.447,24 11,24 L11,24 Z M10.29,32.29 C10.66,31.93 11.34,31.92 11.71,32.29 C11.89,32.479 12,32.739 12,33 C12,33.26 11.89,33.52 11.71,33.71 C11.52,33.89 11.26,34 11,34 C10.73,34 10.479,33.89 10.29,33.71 C10.109,33.52 10,33.27 10,33 C10,32.73 10.109,32.479 10.29,32.29 L10.29,32.29 Z M12.806,48.766 C12.775,49.684 11.761,50.028 11.099,49.473 C10.164,48.689 9.228,47.906 8.293,47.123 C7.303,46.293 8.726,44.886 9.707,45.708 C10.121,46.055 10.535,46.401 10.948,46.748 C11.217,44.487 11.953,42.307 14.145,41.166 C15.287,40.572 16.299,42.298 15.154,42.893 C12.983,44.023 12.879,46.599 12.806,48.766 L12.806,48.766 Z M21.756,47.259 C21.413,46.644 19.896,47.824 19.49,47.976 C18.918,48.189 18.409,48.271 17.801,48.202 C16.632,48.068 15.646,47.312 15.132,46.27 C14.564,45.118 16.288,44.104 16.859,45.261 C17.814,47.196 19.43,45.541 20.795,45.155 C21.841,44.859 22.963,45.319 23.483,46.249 C24.113,47.376 22.385,48.385 21.756,47.259 L21.756,47.259 Z M23,34 L16,34 C15.447,34 15,33.553 15,33 C15,32.447 15.447,32 16,32 L23,32 C23.553,32 24,32.447 24,33 C24,33.553 23.553,34 23,34 L23,34 Z M33,26 L26,26 C25.447,26 25,25.553 25,25 C25,24.447 25.447,24 26,24 L33,24 C33.553,24 34,24.447 34,25 C34,25.553 33.553,26 33,26 L33,26 Z M38.71,25.71 C38.52,25.89 38.27,26 38,26 C37.73,26 37.479,25.89 37.29,25.71 C37.1,25.519 37,25.26 37,25 C37,24.739 37.1,24.48 37.29,24.3 C37.66,23.92 38.34,23.92 38.71,24.29 C38.89,24.48 39,24.739 39,25 C39,25.26 38.89,25.519 38.71,25.71 L38.71,25.71 Z" id="Fill-1222" sketch:type="MSShapeGroup"></path>
                <path d="M46,42.414 L31.414,57 L46,57 L46,42.414" id="Fill-1223" sketch:type="MSShapeGroup"></path>
            </g>
        </g>
    </g>
</svg>