<?xml version="1.0" encoding="UTF-8" standalone="no"?>
<svg width="49px" height="60px" viewBox="0 0 49 60" version="1.1" xmlns="http://www.w3.org/2000/svg" xmlns:xlink="http://www.w3.org/1999/xlink" xmlns:sketch="http://www.bohemiancoding.com/sketch/ns">
    <!-- Generator: Sketch 3.2.2 (9983) - http://www.bohemiancoding.com/sketch -->
    <title>43 - Flipboard (Solid)</title>
    <desc>Created with Sketch.</desc>
    <defs></defs>
    <g id="Page-1" stroke="none" stroke-width="1" fill="none" fill-rule="evenodd" sketch:type="MSPage">
        <g id="Icons" sketch:type="MSArtboardGroup" transform="translate(-965.000000, -4317.000000)" fill="#1A1718">
            <g id="43---Flipboard-(Solid)" sketch:type="MSLayerGroup" transform="translate(965.000000, 4317.000000)">
                <path d="M20,7 L29,7 C29.553,7 30,6.553 30,6 L30,1 C30,0.447 29.553,0 29,0 L20,0 C19.447,0 19,0.447 19,1 L19,6 C19,6.553 19.447,7 20,7" id="Fill-1217" sketch:type="MSShapeGroup"></path>
                <path d="M33,2 C32.447,2 32,2.447 32,3 C32,3.553 32.447,4 33,4 L47,4 L47,58 L2,58 L2,4 L16,4 C16.553,4 17,3.553 17,3 C17,2.447 16.553,2 16,2 L0,2 L0,60 L49,60 L49,2 L33,2" id="Fill-1218" sketch:type="MSShapeGroup"></path>
                <path d="M3,5 L3,57 L46,57 L46,5 L35,5 L35,8 L14,8 L14,5 L3,5 L3,5 Z M23,48 L10,48 C9.447,48 9,47.552 9,47 C9,46.447 9.447,46 10,46 L23,46 C23.553,46 24,46.447 24,47 C24,47.552 23.553,48 23,48 L23,48 Z M39,42 L10,42 C9.447,42 9,41.552 9,41 C9,40.447 9.447,40 10,40 L39,40 C39.553,40 40,40.447 40,41 C40,41.552 39.553,42 39,42 L39,42 Z M39,35 L10,35 C9.447,35 9,34.553 9,34 C9,33.447 9.447,33 10,33 L39,33 C39.553,33 40,33.447 40,34 C40,34.553 39.553,35 39,35 L39,35 Z M9,28 C9,27.447 9.447,27 10,27 L24,27 C24.553,27 25,27.447 25,28 C25,28.553 24.553,29 24,29 L10,29 C9.447,29 9,28.553 9,28 L9,28 Z M27,28 C27,27.73 27.1,27.48 27.29,27.29 C27.67,26.91 28.33,26.92 28.71,27.29 C28.899,27.48 29,27.73 29,28 C29,28.27 28.89,28.519 28.71,28.71 C28.519,28.89 28.269,29 28,29 C27.729,29 27.479,28.9 27.29,28.71 C27.109,28.519 27,28.26 27,28 L27,28 Z M39,29 L32,29 C31.447,29 31,28.553 31,28 C31,27.447 31.447,27 32,27 L39,27 C39.553,27 40,27.447 40,28 C40,28.553 39.553,29 39,29 L39,29 Z M39,21 C39.553,21 40,21.447 40,22 C40,22.553 39.553,23 39,23 L10,23 C9.447,23 9,22.553 9,22 C9,21.447 9.447,21 10,21 L39,21 L39,21 Z M23,15 C23.553,15 24,15.447 24,16 C24,16.553 23.553,17 23,17 L10,17 C9.447,17 9,16.553 9,16 C9,15.447 9.447,15 10,15 L23,15 L23,15 Z" id="Fill-1219" sketch:type="MSShapeGroup"></path>
            </g>
        </g>
    </g>
</svg>