<?xml version="1.0" encoding="UTF-8" standalone="no"?>
<svg width="48px" height="60px" viewBox="0 0 48 60" version="1.1" xmlns="http://www.w3.org/2000/svg" xmlns:xlink="http://www.w3.org/1999/xlink" xmlns:sketch="http://www.bohemiancoding.com/sketch/ns">
    <!-- Generator: Sketch 3.2.2 (9983) - http://www.bohemiancoding.com/sketch -->
    <title>44 - Search File (Solid)</title>
    <desc>Created with Sketch.</desc>
    <defs></defs>
    <g id="Page-1" stroke="none" stroke-width="1" fill="none" fill-rule="evenodd" sketch:type="MSPage">
        <g id="Icons" sketch:type="MSArtboardGroup" transform="translate(-847.000000, -4317.000000)" fill="#000000">
            <g id="44---Search-File-(Solid)" sketch:type="MSLayerGroup" transform="translate(847.000000, 4317.000000)">
                <path d="M40,13 L40,0 L0,0 L0,52 L3,52 L3,3 L30,3 L40,13" id="Fill-1212" sketch:type="MSShapeGroup"></path>
                <path d="M47.707,58.293 L35.487,46.072 C37.227,44.012 38.281,41.355 38.281,38.453 C38.281,31.931 32.976,26.625 26.453,26.625 C19.931,26.625 14.625,31.931 14.625,38.453 C14.625,44.976 19.931,50.281 26.453,50.281 C29.355,50.281 32.012,49.226 34.072,47.486 L46.293,59.707 C46.488,59.902 46.744,60 47,60 C47.256,60 47.512,59.902 47.707,59.707 C48.098,59.316 48.098,58.683 47.707,58.293 L47.707,58.293 Z M16.625,38.453 C16.625,33.034 21.034,28.625 26.453,28.625 C31.872,28.625 36.281,33.034 36.281,38.453 C36.281,43.872 31.872,48.281 26.453,48.281 C21.034,48.281 16.625,43.872 16.625,38.453 L16.625,38.453 Z" id="Fill-1213" sketch:type="MSShapeGroup"></path>
                <path d="M32,40 L21,40 C20.447,40 20,40.447 20,41 C20,41.552 20.447,42 21,42 L32,42 C32.553,42 33,41.552 33,41 C33,40.447 32.553,40 32,40" id="Fill-1214" sketch:type="MSShapeGroup"></path>
                <path d="M21,36 L27,36 C27.553,36 28,35.552 28,35 C28,34.447 27.553,34 27,34 L21,34 C20.447,34 20,34.447 20,35 C20,35.552 20.447,36 21,36" id="Fill-1215" sketch:type="MSShapeGroup"></path>
                <path d="M26.453,52.281 C18.828,52.281 12.625,46.078 12.625,38.453 C12.625,30.828 18.828,24.625 26.453,24.625 C34.078,24.625 40.281,30.828 40.281,38.453 C40.281,41.181 39.477,43.72 38.107,45.865 L45,52.758 L45,20.586 L29.414,5 L5,5 L5,57 L40.758,57 L33.865,50.107 C31.72,51.476 29.181,52.281 26.453,52.281 L26.453,52.281 Z M28,7.288 C28,7.181 28.129,7.128 28.204,7.203 L42.796,21.797 C42.871,21.872 42.818,22 42.712,22 L28,22 L28,7.288 L28,7.288 Z" id="Fill-1216" sketch:type="MSShapeGroup"></path>
            </g>
        </g>
    </g>
</svg>