<?xml version="1.0" encoding="UTF-8" standalone="no"?>
<svg width="47px" height="60px" viewBox="0 0 47 60" version="1.1" xmlns="http://www.w3.org/2000/svg" xmlns:xlink="http://www.w3.org/1999/xlink" xmlns:sketch="http://www.bohemiancoding.com/sketch/ns">
    <!-- Generator: Sketch 3.2.2 (9983) - http://www.bohemiancoding.com/sketch -->
    <title>45 - Diploma (Solid)</title>
    <desc>Created with Sketch.</desc>
    <defs></defs>
    <g id="Page-1" stroke="none" stroke-width="1" fill="none" fill-rule="evenodd" sketch:type="MSPage">
        <g id="Icons" sketch:type="MSArtboardGroup" transform="translate(-727.000000, -4317.000000)" fill="#000000">
            <g id="45---Diploma-(Solid)" sketch:type="MSLayerGroup" transform="translate(727.000000, 4317.000000)">
                <path d="M35.741,43.934 L35.692,43.965 C35.606,44.033 35.531,44.123 35.487,44.245 C35.108,45.311 34.132,46 33,46 C31.868,46 30.892,45.311 30.513,44.245 C30.469,44.122 30.394,44.031 30.307,43.962 L30.267,43.938 L30.036,43.841 L30,43.836 L30,51.586 L33,48.586 L36,51.586 L36,43.837 L35.959,43.842 L35.741,43.934" id="Fill-1352" sketch:type="MSShapeGroup"></path>
                <path d="M32.414,0 L0,0 L0,60 L47,60 L47,14.586 L32.414,0 L32.414,0 Z M25,23 L32,23 C32.553,23 33,23.447 33,24 C33,24.553 32.553,25 32,25 L25,25 C24.447,25 24,24.553 24,24 C24,23.447 24.447,23 25,23 L25,23 Z M21,24 C21,24.26 20.89,24.52 20.71,24.7 C20.519,24.899 20.26,25 20,25 C19.74,25 19.479,24.89 19.29,24.71 C19.1,24.52 19,24.26 19,24 C19,23.739 19.1,23.479 19.29,23.3 C19.66,22.92 20.33,22.92 20.71,23.29 C20.89,23.479 21,23.739 21,24 L21,24 Z M10,15 L19,15 C19.553,15 20,15.447 20,16 C20,16.553 19.553,17 19,17 L10,17 C9.447,17 9,16.553 9,16 C9,15.447 9.447,15 10,15 L10,15 Z M10,23 L15,23 C15.553,23 16,23.447 16,24 C16,24.553 15.553,25 15,25 L10,25 C9.447,25 9,24.553 9,24 C9,23.447 9.447,23 10,23 L10,23 Z M9.29,31.29 C9.67,30.92 10.33,30.92 10.71,31.29 C10.899,31.48 11,31.739 11,32 C11,32.26 10.899,32.52 10.71,32.71 C10.519,32.89 10.26,33 10,33 C9.74,33 9.48,32.89 9.29,32.71 C9.109,32.52 9,32.26 9,32 C9,31.729 9.1,31.48 9.29,31.29 L9.29,31.29 Z M11.806,47.766 C11.775,48.685 10.761,49.028 10.099,48.473 C9.164,47.689 8.228,46.906 7.293,46.122 C6.303,45.293 7.726,43.886 8.707,44.708 C9.121,45.055 9.535,45.401 9.948,45.748 C10.217,43.487 10.953,41.306 13.145,40.166 C14.287,39.572 15.299,41.298 14.154,41.893 C11.983,43.023 11.879,45.599 11.806,47.766 L11.806,47.766 Z M20.756,46.259 C20.412,45.644 18.896,46.824 18.489,46.975 C17.918,47.189 17.409,47.271 16.801,47.202 C15.632,47.068 14.646,46.312 14.132,45.27 C13.564,44.118 15.288,43.104 15.859,44.261 C16.814,46.196 18.43,44.541 19.795,44.155 C20.841,43.858 21.963,44.32 22.483,45.25 C23.113,46.376 21.385,47.385 20.756,46.259 L20.756,46.259 Z M22,33 L15,33 C14.447,33 14,32.552 14,32 C14,31.447 14.447,31 15,31 L22,31 C22.553,31 23,31.447 23,32 C23,32.552 22.553,33 22,33 L22,33 Z M40.245,39.487 C40.012,39.57 39.909,39.746 39.868,39.845 C39.828,39.942 39.775,40.141 39.882,40.365 C40.273,41.187 40.219,42.135 39.737,42.896 C39.343,43.521 38.7,43.927 38,44.068 L38,56.414 L33,51.414 L28,56.414 L28,44.066 C27.301,43.925 26.657,43.521 26.263,42.897 C25.781,42.135 25.727,41.187 26.118,40.364 C26.225,40.141 26.172,39.942 26.132,39.845 C26.091,39.746 25.988,39.57 25.755,39.487 C24.688,39.109 24,38.132 24,37 C24,35.868 24.688,34.892 25.755,34.513 C25.988,34.43 26.091,34.254 26.132,34.155 C26.172,34.058 26.225,33.859 26.118,33.635 C25.727,32.813 25.781,31.865 26.263,31.103 C26.962,29.997 28.438,29.546 29.636,30.118 C29.931,30.26 30.364,30.173 30.513,29.755 C30.892,28.689 31.868,28 33,28 C34.132,28 35.108,28.689 35.487,29.755 C35.636,30.173 36.068,30.259 36.365,30.118 C37.56,29.549 39.038,29.998 39.737,31.103 C40.219,31.865 40.273,32.813 39.882,33.636 C39.775,33.859 39.828,34.058 39.868,34.155 C39.909,34.254 40.012,34.43 40.245,34.513 C41.312,34.892 42,35.868 42,37 C42,38.132 41.312,39.109 40.245,39.487 L40.245,39.487 Z M36,24 C36,23.739 36.109,23.479 36.29,23.29 C36.67,22.92 37.33,22.92 37.71,23.29 C37.89,23.479 38,23.739 38,24 C38,24.26 37.89,24.52 37.71,24.71 C37.519,24.89 37.26,25 37,25 C36.74,25 36.48,24.89 36.29,24.71 C36.109,24.52 36,24.26 36,24 L36,24 Z M30,15 L30,1 L44,15 L30,15 L30,15 Z" id="Fill-1353" sketch:type="MSShapeGroup"></path>
                <path d="M39.575,36.398 C38.873,36.148 38.307,35.61 38.021,34.922 C37.735,34.233 37.755,33.451 38.075,32.778 C38.201,32.513 38.129,32.302 38.046,32.171 C37.871,31.894 37.538,31.776 37.224,31.925 C36.865,32.095 36.484,32.181 36.091,32.181 C34.976,32.181 33.976,31.474 33.602,30.425 C33.467,30.041 33.136,30 33,30 C32.864,30 32.533,30.041 32.398,30.425 C32.024,31.474 31.024,32.181 29.909,32.181 C29.516,32.181 29.135,32.095 28.777,31.925 C28.46,31.776 28.129,31.894 27.954,32.171 C27.871,32.302 27.799,32.513 27.925,32.777 C28.245,33.451 28.265,34.233 27.979,34.922 C27.693,35.61 27.127,36.148 26.425,36.398 C26.041,36.533 26,36.864 26,37 C26,37.136 26.041,37.467 26.425,37.602 C27.127,37.852 27.693,38.39 27.979,39.078 C28.265,39.768 28.245,40.549 27.925,41.223 C27.799,41.487 27.871,41.698 27.954,41.829 C28.101,42.062 28.36,42.172 28.625,42.116 L28.856,42.044 C29.134,41.906 29.516,41.818 29.909,41.818 C31.024,41.818 32.024,42.524 32.398,43.575 C32.533,43.959 32.864,44 33,44 C33.136,44 33.467,43.959 33.602,43.575 C33.976,42.524 34.976,41.818 36.091,41.818 C36.284,41.818 36.473,41.841 36.659,41.883 L36.822,41.936 C36.938,41.97 37.056,42 37.169,42.051 L37.387,42.119 C37.649,42.169 37.901,42.059 38.046,41.829 C38.129,41.698 38.201,41.487 38.075,41.224 C37.755,40.549 37.735,39.768 38.021,39.078 C38.307,38.39 38.873,37.852 39.575,37.602 C39.959,37.467 40,37.136 40,37 C40,36.864 39.959,36.533 39.575,36.398" id="Fill-1354" sketch:type="MSShapeGroup"></path>
            </g>
        </g>
    </g>
</svg>