<?xml version="1.0" encoding="UTF-8" standalone="no"?>
<svg width="47px" height="60px" viewBox="0 0 47 60" version="1.1" xmlns="http://www.w3.org/2000/svg" xmlns:xlink="http://www.w3.org/1999/xlink" xmlns:sketch="http://www.bohemiancoding.com/sketch/ns">
    <!-- Generator: Sketch 3.2.2 (9983) - http://www.bohemiancoding.com/sketch -->
    <title>46 - Resumee (Solid)</title>
    <desc>Created with Sketch.</desc>
    <defs></defs>
    <g id="Page-1" stroke="none" stroke-width="1" fill="none" fill-rule="evenodd" sketch:type="MSPage">
        <g id="Icons" sketch:type="MSArtboardGroup" transform="translate(-606.000000, -4317.000000)" fill="#000000">
            <g id="46---Resumee-(Solid)" sketch:type="MSLayerGroup" transform="translate(606.000000, 4317.000000)">
                <path d="M32.414,0 L0,0 L0,60 L47,60 L47,14.586 L32.414,0 L32.414,0 Z M28,31 C28,31.553 27.552,32 27,32 L17,32 C16.448,32 16,31.553 16,31 C16,30.447 16.448,30 17,30 L27,30 C27.552,30 28,30.447 28,31 L28,31 Z M9.762,23.479 L10.082,22.738 C10.373,22.064 10.851,21.531 11.464,21.197 L13.668,20.11 C12.699,19.489 12.001,18.553 11.585,17.317 C10.9,16.901 10.469,16.159 10.469,15.333 L10.469,14.666 C10.469,13.998 10.758,13.373 11.247,12.935 C11.343,12.322 11.501,11.746 11.718,11.217 C11.819,10.97 11.905,10.785 11.975,10.635 C12.021,10.535 12.079,10.411 12.087,10.376 C12.091,10.344 12.085,10.223 12.002,9.803 C11.937,9.475 11.893,9.176 11.863,8.919 C11.827,8.597 11.928,8.275 12.142,8.034 C12.59,7.534 13.463,7.558 13.881,8.09 C13.957,8.186 14.112,8.345 14.415,8.549 C14.927,8.895 15.623,9.051 16.352,8.988 C16.499,8.976 16.649,8.97 16.802,8.97 C20.698,8.97 21.985,11.022 22.342,12.921 C22.841,13.359 23.136,13.989 23.136,14.666 L23.136,15.333 C23.136,16.159 22.705,16.901 22.021,17.317 C21.602,18.557 20.9,19.495 19.926,20.118 L22.048,21.201 C22.68,21.519 23.183,22.049 23.495,22.732 L23.839,23.485 L23.166,23.963 C21.292,25.296 19.092,26 16.802,26 C14.504,26 12.297,25.291 10.419,23.948 L9.762,23.479 L9.762,23.479 Z M13,31 C13,31.26 12.89,31.519 12.71,31.71 C12.52,31.89 12.27,32 12,32 C11.73,32 11.47,31.89 11.29,31.7 C11.11,31.519 11,31.26 11,31 C11,30.739 11.11,30.48 11.29,30.29 C11.65,29.93 12.34,29.92 12.71,30.29 C12.89,30.48 13,30.739 13,31 L13,31 Z M11,36 C11,35.447 11.448,35 12,35 L29,35 C29.552,35 30,35.447 30,36 C30,36.553 29.552,37 29,37 L12,37 C11.448,37 11,36.553 11,36 L11,36 Z M16.186,47.766 C16.155,48.685 15.141,49.028 14.479,48.473 C13.544,47.689 12.609,46.906 11.673,46.122 C10.683,45.293 12.106,43.886 13.087,44.708 C13.501,45.055 13.915,45.401 14.329,45.748 C14.597,43.487 15.334,41.306 17.525,40.166 C18.667,39.572 19.679,41.298 18.534,41.893 C16.364,43.023 16.259,45.599 16.186,47.766 L16.186,47.766 Z M31.136,46.259 C30.891,45.922 27.713,47.47 26.804,47.142 C26.091,46.885 25.556,46.556 25.107,46.075 C22.985,47.227 20.572,47.85 18.701,45.816 C17.829,44.868 19.24,43.45 20.115,44.402 C21.604,46.021 23.455,44.771 24.871,43.902 C25.33,43.621 25.977,43.793 26.239,44.261 C27.273,46.104 29.774,44.019 31.231,44.128 C32.004,44.187 32.44,44.67 32.864,45.25 C33.626,46.293 31.889,47.289 31.136,46.259 L31.136,46.259 Z M34.71,36.71 C34.52,36.89 34.26,37 34,37 C33.74,37 33.48,36.89 33.29,36.71 C33.1,36.52 33,36.27 33,36 C33,35.73 33.11,35.479 33.29,35.29 C33.67,34.92 34.33,34.92 34.71,35.29 C34.89,35.479 35,35.739 35,36 C35,36.27 34.9,36.52 34.71,36.71 L34.71,36.71 Z M39.71,36.7 C39.52,36.89 39.26,37 39,37 C38.74,37 38.48,36.89 38.29,36.71 C38.1,36.52 38,36.27 38,36 C38,35.73 38.11,35.479 38.29,35.29 C38.67,34.92 39.33,34.92 39.71,35.29 C39.89,35.479 40,35.739 40,36 C40,36.26 39.9,36.51 39.71,36.7 L39.71,36.7 Z M39,32 L32,32 C31.448,32 31,31.553 31,31 C31,30.447 31.448,30 32,30 L39,30 C39.552,30 40,30.447 40,31 C40,31.553 39.552,32 39,32 L39,32 Z M31,16 L31,2 L45,16 L31,16 L31,16 Z" id="Fill-1211" sketch:type="MSShapeGroup"></path>
            </g>
        </g>
    </g>
</svg>