<?xml version="1.0" encoding="UTF-8" standalone="no"?>
<svg width="47px" height="60px" viewBox="0 0 47 60" version="1.1" xmlns="http://www.w3.org/2000/svg" xmlns:xlink="http://www.w3.org/1999/xlink" xmlns:sketch="http://www.bohemiancoding.com/sketch/ns">
    <!-- Generator: Sketch 3.2.2 (9983) - http://www.bohemiancoding.com/sketch -->
    <title>47 - Document (Solid)</title>
    <desc>Created with Sketch.</desc>
    <defs></defs>
    <g id="Page-1" stroke="none" stroke-width="1" fill="none" fill-rule="evenodd" sketch:type="MSPage">
        <g id="Icons" sketch:type="MSArtboardGroup" transform="translate(-487.000000, -4317.000000)" fill="#000000">
            <g id="47---Document-(Solid)" sketch:type="MSLayerGroup" transform="translate(487.000000, 4317.000000)">
                <path d="M32.414,0 L0,0 L0,60 L47,60 L47,14.586 L32.414,0 L32.414,0 Z M26,23 L33,23 C33.552,23 34,23.447 34,24 C34,24.553 33.552,25 33,25 L26,25 C25.448,25 25,24.553 25,24 C25,23.447 25.448,23 26,23 L26,23 Z M27,31 C27,31.553 26.552,32 26,32 L16,32 C15.448,32 15,31.553 15,31 C15,30.447 15.448,30 16,30 L26,30 C26.552,30 27,30.447 27,31 L27,31 Z M21.71,23.29 C21.89,23.479 22,23.739 22,24 C22,24.26 21.89,24.52 21.71,24.71 C21.52,24.89 21.26,25 21,25 C20.74,25 20.48,24.89 20.29,24.71 C20.11,24.52 20,24.26 20,24 C20,23.739 20.11,23.479 20.29,23.29 C20.67,22.92 21.34,22.92 21.71,23.29 L21.71,23.29 Z M11,15 L20,15 C20.552,15 21,15.447 21,16 C21,16.553 20.552,17 20,17 L11,17 C10.448,17 10,16.553 10,16 C10,15.447 10.448,15 11,15 L11,15 Z M11,23 L16,23 C16.552,23 17,23.447 17,24 C17,24.553 16.552,25 16,25 L11,25 C10.448,25 10,24.553 10,24 C10,23.447 10.448,23 11,23 L11,23 Z M10.29,30.29 C10.66,29.92 11.34,29.92 11.71,30.29 C11.89,30.48 12,30.739 12,31 C12,31.26 11.89,31.519 11.71,31.71 C11.52,31.89 11.26,32 11,32 C10.74,32 10.48,31.89 10.29,31.71 C10.11,31.519 10,31.26 10,31 C10,30.73 10.11,30.48 10.29,30.29 L10.29,30.29 Z M11.71,45.71 C11.52,45.89 11.27,46 11,46 C10.74,46 10.48,45.89 10.29,45.71 C10.1,45.52 10,45.27 10,45 C10,44.73 10.11,44.47 10.29,44.29 C10.67,43.92 11.34,43.92 11.71,44.3 C11.89,44.479 12,44.73 12,45 C12,45.26 11.89,45.52 11.71,45.71 L11.71,45.71 Z M26,46 L16,46 C15.448,46 15,45.553 15,45 C15,44.447 15.448,44 16,44 L26,44 C26.552,44 27,44.447 27,45 C27,45.553 26.552,46 26,46 L26,46 Z M28,39 L11,39 C10.448,39 10,38.552 10,38 C10,37.447 10.448,37 11,37 L28,37 C28.552,37 29,37.447 29,38 C29,38.552 28.552,39 28,39 L28,39 Z M38,46 L31,46 C30.448,46 30,45.553 30,45 C30,44.447 30.448,44 31,44 L38,44 C38.552,44 39,44.447 39,45 C39,45.553 38.552,46 38,46 L38,46 Z M32,38 C32,37.739 32.11,37.48 32.29,37.29 C32.66,36.92 33.33,36.92 33.71,37.29 C33.89,37.48 34,37.739 34,38 C34,38.26 33.89,38.52 33.71,38.71 C33.52,38.89 33.27,39 33,39 C32.73,39 32.48,38.899 32.29,38.71 C32.11,38.52 32,38.26 32,38 L32,38 Z M38.71,38.71 C38.52,38.89 38.27,39 38,39 C37.73,39 37.48,38.89 37.29,38.71 C37.11,38.52 37,38.26 37,38 C37,37.739 37.11,37.48 37.29,37.29 C37.66,36.92 38.34,36.92 38.71,37.29 C38.89,37.48 39,37.739 39,38 C39,38.26 38.89,38.52 38.71,38.71 L38.71,38.71 Z M38,32 L31,32 C30.448,32 30,31.553 30,31 C30,30.447 30.448,30 31,30 L38,30 C38.552,30 39,30.447 39,31 C39,31.553 38.552,32 38,32 L38,32 Z M38.71,24.71 C38.52,24.89 38.26,25 38,25 C37.74,25 37.48,24.89 37.29,24.71 C37.11,24.52 37,24.26 37,24 C37,23.739 37.11,23.479 37.29,23.29 C37.67,22.92 38.33,22.92 38.71,23.29 C38.9,23.479 39,23.739 39,24 C39,24.26 38.9,24.52 38.71,24.71 L38.71,24.71 Z M31,16 L31,2 L45,16 L31,16 L31,16 Z" id="Fill-1210" sketch:type="MSShapeGroup"></path>
            </g>
        </g>
    </g>
</svg>