<?xml version="1.0" encoding="UTF-8" standalone="no"?>
<svg width="47px" height="60px" viewBox="0 0 47 60" version="1.1" xmlns="http://www.w3.org/2000/svg" xmlns:xlink="http://www.w3.org/1999/xlink" xmlns:sketch="http://www.bohemiancoding.com/sketch/ns">
    <!-- Generator: Sketch 3.2.2 (9983) - http://www.bohemiancoding.com/sketch -->
    <title>48 - Checklist (Solid)</title>
    <desc>Created with Sketch.</desc>
    <defs></defs>
    <g id="Page-1" stroke="none" stroke-width="1" fill="none" fill-rule="evenodd" sketch:type="MSPage">
        <g id="Icons" sketch:type="MSArtboardGroup" transform="translate(-367.000000, -4317.000000)" fill="#000000">
            <g id="48---Checklist-(Solid)" sketch:type="MSLayerGroup" transform="translate(367.000000, 4317.000000)">
                <path d="M32.414,0 L0,0 L0,60 L47,60 L47,14.586 L32.414,0 L32.414,0 Z M17.625,41.781 L12.625,45.781 C12.441,45.928 12.22,46 12.001,46 C11.743,46 11.487,45.902 11.293,45.707 L9.293,43.707 C8.902,43.316 8.902,42.684 9.293,42.293 C9.684,41.902 10.316,41.902 10.707,42.293 L12.074,43.66 L16.376,40.219 C16.806,39.874 17.436,39.943 17.781,40.375 C18.126,40.807 18.056,41.435 17.625,41.781 L17.625,41.781 Z M17.625,30.781 L12.625,34.781 C12.441,34.928 12.22,35 12.001,35 C11.743,35 11.487,34.901 11.293,34.707 L9.293,32.707 C8.902,32.316 8.902,31.683 9.293,31.293 C9.684,30.903 10.316,30.903 10.707,31.293 L12.074,32.66 L16.376,29.219 C16.806,28.874 17.436,28.943 17.781,29.375 C18.126,29.807 18.056,30.436 17.625,30.781 L17.625,30.781 Z M17.625,19.781 L12.625,23.781 C12.441,23.927 12.22,24 12.001,24 C11.743,24 11.487,23.901 11.293,23.707 L9.293,21.707 C8.902,21.317 8.902,20.684 9.293,20.293 C9.684,19.902 10.316,19.902 10.707,20.293 L12.074,21.66 L16.376,18.219 C16.806,17.874 17.436,17.943 17.781,18.375 C18.126,18.806 18.056,19.436 17.625,19.781 L17.625,19.781 Z M36,45 L20,45 C19.448,45 19,44.552 19,44 C19,43.447 19.448,43 20,43 L36,43 C36.552,43 37,43.447 37,44 C37,44.552 36.552,45 36,45 L36,45 Z M36,34 L20,34 C19.448,34 19,33.553 19,33 C19,32.447 19.448,32 20,32 L36,32 C36.552,32 37,32.447 37,33 C37,33.553 36.552,34 36,34 L36,34 Z M36,23 L20,23 C19.448,23 19,22.553 19,22 C19,21.447 19.448,21 20,21 L36,21 C36.552,21 37,21.447 37,22 C37,22.553 36.552,23 36,23 L36,23 Z M31,16 L31,2 L45,16 L31,16 L31,16 Z" id="Fill-1209" sketch:type="MSShapeGroup"></path>
            </g>
        </g>
    </g>
</svg>