<?xml version="1.0" encoding="UTF-8" standalone="no"?>
<svg width="48px" height="60px" viewBox="0 0 48 60" version="1.1" xmlns="http://www.w3.org/2000/svg" xmlns:xlink="http://www.w3.org/1999/xlink" xmlns:sketch="http://www.bohemiancoding.com/sketch/ns">
    <!-- Generator: Sketch 3.2.2 (9983) - http://www.bohemiancoding.com/sketch -->
    <title>49 - Files (Solid)</title>
    <desc>Created with Sketch.</desc>
    <defs></defs>
    <g id="Page-1" stroke="none" stroke-width="1" fill="none" fill-rule="evenodd" sketch:type="MSPage">
        <g id="Icons" sketch:type="MSArtboardGroup" transform="translate(-246.000000, -4317.000000)" fill="#000000">
            <g id="49---Files-(Solid)" sketch:type="MSLayerGroup" transform="translate(246.000000, 4317.000000)">
                <path d="M43,12 L43,0 L0,0 L0,55 L3,55 L3,3 L34,3 L43,12" id="Fill-1207" sketch:type="MSShapeGroup"></path>
                <path d="M33.414,5 L5,5 L5,60 L48,60 L48,19.586 L33.414,5 L33.414,5 Z M14,17 L24,17 C24.552,17 25,17.447 25,18 C25,18.553 24.552,19 24,19 L14,19 C13.448,19 13,18.553 13,18 C13,17.447 13.448,17 14,17 L14,17 Z M39,51 L14,51 C13.448,51 13,50.552 13,50 C13,49.447 13.448,49 14,49 L39,49 C39.552,49 40,49.447 40,50 C40,50.552 39.552,51 39,51 L39,51 Z M39,43 L14,43 C13.448,43 13,42.553 13,42 C13,41.447 13.448,41 14,41 L39,41 C39.552,41 40,41.447 40,42 C40,42.553 39.552,43 39,43 L39,43 Z M39,35 L14,35 C13.448,35 13,34.553 13,34 C13,33.447 13.448,33 14,33 L39,33 C39.552,33 40,33.447 40,34 C40,34.553 39.552,35 39,35 L39,35 Z M39,27 L14,27 C13.448,27 13,26.552 13,26 C13,25.447 13.448,25 14,25 L39,25 C39.552,25 40,25.447 40,26 C40,26.552 39.552,27 39,27 L39,27 Z M32,21 L32,7 L46,21 L32,21 L32,21 Z" id="Fill-1208" sketch:type="MSShapeGroup"></path>
            </g>
        </g>
    </g>
</svg>