<?xml version="1.0" encoding="UTF-8" standalone="no"?>
<svg width="54px" height="60px" viewBox="0 0 54 60" version="1.1" xmlns="http://www.w3.org/2000/svg" xmlns:xlink="http://www.w3.org/1999/xlink" xmlns:sketch="http://www.bohemiancoding.com/sketch/ns">
    <!-- Generator: Sketch 3.2.2 (9983) - http://www.bohemiancoding.com/sketch -->
    <title>5 - Archive (Solid)</title>
    <desc>Created with Sketch.</desc>
    <defs></defs>
    <g id="Page-1" stroke="none" stroke-width="1" fill="none" fill-rule="evenodd" sketch:type="MSPage">
        <g id="Icons" sketch:type="MSArtboardGroup" transform="translate(-723.000000, -4797.000000)" fill="#000000">
            <g id="5---Archive-(Solid)" sketch:type="MSLayerGroup" transform="translate(723.000000, 4797.000000)">
                <path d="M51.168,0 L2.832,0 C1.271,0 0,1.271 0,2.832 L0,29 L54,29 L54,2.832 C54,1.271 52.729,0 51.168,0 L51.168,0 Z M36,14.495 C36,16.427 34.428,18 32.495,18 L21.505,18 C19.572,18 18,16.427 18,14.495 L18,13 C18,12.448 18.447,12 19,12 C19.553,12 20,12.448 20,13 L20,14.495 C20,15.325 20.675,16 21.505,16 L32.495,16 C33.325,16 34,15.325 34,14.495 L34,13 C34,12.448 34.447,12 35,12 C35.553,12 36,12.448 36,13 L36,14.495 L36,14.495 Z" id="Fill-1339" sketch:type="MSShapeGroup"></path>
                <path d="M0,57.168 C0,58.729 1.271,60 2.832,60 L51.168,60 C52.729,60 54,58.729 54,57.168 L54,31 L0,31 L0,57.168 L0,57.168 Z M18,42 C18,41.447 18.447,41 19,41 C19.553,41 20,41.447 20,42 L20,43.495 C20,44.325 20.675,45 21.505,45 L32.495,45 C33.325,45 34,44.325 34,43.495 L34,42 C34,41.447 34.447,41 35,41 C35.553,41 36,41.447 36,42 L36,43.495 C36,45.428 34.428,47 32.495,47 L21.505,47 C19.572,47 18,45.428 18,43.495 L18,42 L18,42 Z" id="Fill-1340" sketch:type="MSShapeGroup"></path>
            </g>
        </g>
    </g>
</svg>