<?xml version="1.0" encoding="UTF-8" standalone="no"?>
<svg width="47px" height="60px" viewBox="0 0 47 60" version="1.1" xmlns="http://www.w3.org/2000/svg" xmlns:xlink="http://www.w3.org/1999/xlink" xmlns:sketch="http://www.bohemiancoding.com/sketch/ns">
    <!-- Generator: Sketch 3.2.2 (9983) - http://www.bohemiancoding.com/sketch -->
    <title>50 - File (Solid)</title>
    <desc>Created with Sketch.</desc>
    <defs></defs>
    <g id="Page-1" stroke="none" stroke-width="1" fill="none" fill-rule="evenodd" sketch:type="MSPage">
        <g id="Icons" sketch:type="MSArtboardGroup" transform="translate(-127.000000, -4317.000000)" fill="#1A1718">
            <g id="50---File-(Solid)" sketch:type="MSLayerGroup" transform="translate(127.000000, 4317.000000)">
                <path d="M32.414,0 L0,0 L0,60 L47,60 L47,14.586 L32.414,0 L32.414,0 Z M11,14 L21,14 C21.552,14 22,14.447 22,15 C22,15.553 21.552,16 21,16 L11,16 C10.448,16 10,15.553 10,15 C10,14.447 10.448,14 11,14 L11,14 Z M36,48 L11,48 C10.448,48 10,47.552 10,47 C10,46.447 10.448,46 11,46 L36,46 C36.552,46 37,46.447 37,47 C37,47.552 36.552,48 36,48 L36,48 Z M36,40 L11,40 C10.448,40 10,39.553 10,39 C10,38.447 10.448,38 11,38 L36,38 C36.552,38 37,38.447 37,39 C37,39.553 36.552,40 36,40 L36,40 Z M36,32 L11,32 C10.448,32 10,31.553 10,31 C10,30.447 10.448,30 11,30 L36,30 C36.552,30 37,30.447 37,31 C37,31.553 36.552,32 36,32 L36,32 Z M36,24 L11,24 C10.448,24 10,23.552 10,23 C10,22.447 10.448,22 11,22 L36,22 C36.552,22 37,22.447 37,23 C37,23.552 36.552,24 36,24 L36,24 Z M31,16 L31,2 L45,16 L31,16 L31,16 Z" id="Fill-1206" sketch:type="MSShapeGroup"></path>
            </g>
        </g>
    </g>
</svg>