<?xml version="1.0" encoding="UTF-8" standalone="no"?>
<svg width="60px" height="58px" viewBox="0 0 60 58" version="1.1" xmlns="http://www.w3.org/2000/svg" xmlns:xlink="http://www.w3.org/1999/xlink" xmlns:sketch="http://www.bohemiancoding.com/sketch/ns">
    <!-- Generator: Sketch 3.2.2 (9983) - http://www.bohemiancoding.com/sketch -->
    <title>51 - Folders (Solid)</title>
    <desc>Created with Sketch.</desc>
    <defs></defs>
    <g id="Page-1" stroke="none" stroke-width="1" fill="none" fill-rule="evenodd" sketch:type="MSPage">
        <g id="Icons" sketch:type="MSArtboardGroup" transform="translate(-1200.000000, -4199.000000)" fill="#000000">
            <g id="51---Folders-(Solid)" sketch:type="MSLayerGroup" transform="translate(1200.000000, 4199.000000)">
                <path d="M31,53 L55,53 L55,37 L31,37 L31,53 Z M35,40 L45,40 L45,42 L35,42 L35,40 Z M35,48 L51,48 L51,50 L35,50 L35,48 Z M35,44 L51,44 L51,46 L35,46 L35,44 Z" id="Fill-1204" sketch:type="MSShapeGroup"></path>
                <path d="M29,6 L25,0 L4,0 L4,4 L2,4 L2,8 L0,8 L0,58 L60,58 L60,6 L29,6 L29,6 Z M29,35 L57,35 L57,55 L29,55 L29,35 Z M58,21 L31.515,21 L27.943,16 L58,16 L58,21 L58,21 Z M58,14 L25,14 L21,8 L4,8 L4,6 L22,6 L26,12 L58,12 L58,14 L58,14 Z M58,10 L27,10 L23,4 L6,4 L6,2 L24,2 L28,8 L58,8 L58,10 L58,10 Z" id="Fill-1205" sketch:type="MSShapeGroup"></path>
            </g>
        </g>
    </g>
</svg>