<?xml version="1.0" encoding="UTF-8" standalone="no"?>
<svg width="60px" height="60px" viewBox="0 0 60 60" version="1.1" xmlns="http://www.w3.org/2000/svg" xmlns:xlink="http://www.w3.org/1999/xlink" xmlns:sketch="http://www.bohemiancoding.com/sketch/ns">
    <!-- Generator: Sketch 3.2.2 (9983) - http://www.bohemiancoding.com/sketch -->
    <title>56 - Document Folder (Solid)</title>
    <desc>Created with Sketch.</desc>
    <defs></defs>
    <g id="Page-1" stroke="none" stroke-width="1" fill="none" fill-rule="evenodd" sketch:type="MSPage">
        <g id="Icons" sketch:type="MSArtboardGroup" transform="translate(-600.000000, -4197.000000)" fill="#000000">
            <g id="56---Document-Folder-(Solid)" sketch:type="MSLayerGroup" transform="translate(600.000000, 4197.000000)">
                <path d="M57.49,27 L54,27 L54,19.732 C54,18.226 52.774,17 51.268,17 L50,17 L50,0 L10,0 L10,2 L7,2 L7,4 L4,4 L4,10 L2.732,10 C1.226,10 0,11.226 0,12.732 L0,57.963 L0.058,57.965 C0.136,58.332 0.292,58.684 0.529,58.994 C1.018,59.634 1.76,60 2.565,60 L47.324,60 C48.48,60 49.498,59.221 49.774,58.187 L60,30.149 L60,29.973 C60,28.25 58.944,27 57.49,27 L57.49,27 Z M18,5 L28,5 C28.552,5 29,5.447 29,6 C29,6.553 28.552,7 28,7 L18,7 C17.448,7 17,6.553 17,6 C17,5.447 17.448,5 18,5 L18,5 Z M18,12 L42,12 C42.552,12 43,12.447 43,13 C43,13.553 42.552,14 42,14 L18,14 C17.448,14 17,13.553 17,13 C17,12.447 17.448,12 18,12 L18,12 Z M18,19 L42,19 C42.552,19 43,19.447 43,20 C43,20.552 42.552,21 42,21 L18,21 C17.448,21 17,20.552 17,20 C17,19.447 17.448,19 18,19 L18,19 Z M2,51.527 L2,12.732 C2,12.328 2.329,12 2.732,12 L4,12 L4,46.041 L2,51.527 L2,51.527 Z M6,6 L7,6 L7,37.813 L6,40.556 L6,6 L6,6 Z M52,27 L12.731,27 C11.575,27 10.557,27.779 10.281,28.813 L9,32.328 L9,4 L10,4 L10,26 L50,26 L50,19 L51.268,19 C51.671,19 52,19.328 52,19.732 L52,27 L52,27 Z" id="Fill-1196" sketch:type="MSShapeGroup"></path>
            </g>
        </g>
    </g>
</svg>