<?xml version="1.0" encoding="UTF-8" standalone="no"?>
<svg width="60px" height="60px" viewBox="0 0 60 60" version="1.1" xmlns="http://www.w3.org/2000/svg" xmlns:xlink="http://www.w3.org/1999/xlink" xmlns:sketch="http://www.bohemiancoding.com/sketch/ns">
    <!-- Generator: Sketch 3.2.2 (9983) - http://www.bohemiancoding.com/sketch -->
    <title>57 - Document Folder (Solid)</title>
    <desc>Created with Sketch.</desc>
    <defs></defs>
    <g id="Page-1" stroke="none" stroke-width="1" fill="none" fill-rule="evenodd" sketch:type="MSPage">
        <g id="Icons" sketch:type="MSArtboardGroup" transform="translate(-480.000000, -4197.000000)" fill="#000000">
            <g id="57---Document-Folder-(Solid)" sketch:type="MSLayerGroup" transform="translate(480.000000, 4197.000000)">
                <path d="M57.49,27 L54,27 L54,19.732 C54,18.226 52.774,17 51.268,17 L48,17 L48,14.586 L32.414,0 L8,0 L8,10 L2.732,10 C1.226,10 0,11.226 0,12.732 L0,57.963 L0.058,57.965 C0.136,58.332 0.292,58.684 0.529,58.994 C1.018,59.634 1.76,60 2.565,60 L47.324,60 C48.48,60 49.498,59.221 49.774,58.187 L60,30.149 L60,29.973 C60,28.25 58.944,27 57.49,27 L57.49,27 Z M31,2.288 C31,2.182 31.129,2.128 31.204,2.204 L45.796,15.797 C45.871,15.872 45.818,16 45.712,16 L31,16 L31,2.288 L31,2.288 Z M16,5 L26,5 C26.552,5 27,5.447 27,6 C27,6.553 26.552,7 26,7 L16,7 C15.448,7 15,6.553 15,6 C15,5.447 15.448,5 16,5 L16,5 Z M16,12 L26,12 C26.552,12 27,12.447 27,13 C27,13.553 26.552,14 26,14 L16,14 C15.448,14 15,13.553 15,13 C15,12.447 15.448,12 16,12 L16,12 Z M16,19 L40,19 C40.552,19 41,19.447 41,20 C41,20.552 40.552,21 40,21 L16,21 C15.448,21 15,20.552 15,20 C15,19.447 15.448,19 16,19 L16,19 Z M10.281,28.813 L2,51.527 L2,12.732 C2,12.328 2.328,12 2.732,12 L8,12 L8,31 L9.666,26.836 C9.868,26.331 10.356,26 10.9,26 L48,26 L48,19 L51.268,19 C51.672,19 52,19.328 52,19.732 L52,27 L12.731,27 C11.575,27 10.557,27.779 10.281,28.813 L10.281,28.813 Z" id="Fill-1195" sketch:type="MSShapeGroup"></path>
            </g>
        </g>
    </g>
</svg>