<?xml version="1.0" encoding="UTF-8" standalone="no"?>
<svg width="58px" height="49px" viewBox="0 0 58 49" version="1.1" xmlns="http://www.w3.org/2000/svg" xmlns:xlink="http://www.w3.org/1999/xlink" xmlns:sketch="http://www.bohemiancoding.com/sketch/ns">
    <!-- Generator: Sketch 3.2.2 (9983) - http://www.bohemiancoding.com/sketch -->
    <title>58 - Document Folder (Solid)</title>
    <desc>Created with Sketch.</desc>
    <defs></defs>
    <g id="Page-1" stroke="none" stroke-width="1" fill="none" fill-rule="evenodd" sketch:type="MSPage">
        <g id="Icons" sketch:type="MSArtboardGroup" transform="translate(-361.000000, -4201.000000)" fill="#000000">
            <g id="58---Document-Folder-(Solid)" sketch:type="MSLayerGroup" transform="translate(361.000000, 4201.000000)">
                <path d="M54.001,18 L54.001,8 L52,8 L52,4 L25,4 L23,0 L2.732,0 C1.226,0 0,1.226 0,2.732 L0,48 L0.001,47.998 L0.001,48 C0.001,48.734 -0.046,49 0.566,49 L45.325,49 C46.481,49 47.499,48.221 47.775,47.187 L58.001,19 L58.001,18 L54.001,18 L54.001,18 Z M50,6 L50,8 L7,8 L7,10 L5,10 L5,6 L50,6 L50,6 Z M8.001,11.414 L8.001,14 L5.415,14 L8.001,11.414 L8.001,11.414 Z M52.001,17 L44.001,17 L44.001,14 C44.001,13.447 43.553,13 43.001,13 C42.449,13 42.001,13.447 42.001,14 L42.001,17 L37.001,17 L37.001,14 C37.001,13.447 36.553,13 36.001,13 C35.449,13 35.001,13.447 35.001,14 L35.001,17 L30.001,17 L30.001,14 C30.001,13.447 29.553,13 29.001,13 C28.449,13 28.001,13.447 28.001,14 L28.001,17 L23.001,17 L23.001,14 C23.001,13.447 22.553,13 22.001,13 C21.449,13 21.001,13.447 21.001,14 L21.001,17 L16.001,17 L16.001,14 C16.001,13.447 15.553,13 15.001,13 C14.449,13 14.001,13.447 14.001,14 L14.001,17 L11.732,17 C10.575,17 9.557,17.779 9.282,18.813 L4.001,33.293 L4.001,16 L10.001,16 L10.001,10 L52.001,10 L52.001,17 L52.001,17 Z" id="Fill-1194" sketch:type="MSShapeGroup"></path>
            </g>
        </g>
    </g>
</svg>