<?xml version="1.0" encoding="UTF-8" standalone="no"?>
<svg width="58px" height="48px" viewBox="0 0 58 48" version="1.1" xmlns="http://www.w3.org/2000/svg" xmlns:xlink="http://www.w3.org/1999/xlink" xmlns:sketch="http://www.bohemiancoding.com/sketch/ns">
    <!-- Generator: Sketch 3.2.2 (9983) - http://www.bohemiancoding.com/sketch -->
    <title>59 - Document Folder (Solid)</title>
    <desc>Created with Sketch.</desc>
    <defs></defs>
    <g id="Page-1" stroke="none" stroke-width="1" fill="none" fill-rule="evenodd" sketch:type="MSPage">
        <g id="Icons" sketch:type="MSArtboardGroup" transform="translate(-241.000000, -4201.000000)" fill="#000000">
            <g id="59---Document-Folder-(Solid)" sketch:type="MSLayerGroup" transform="translate(241.000000, 4201.000000)">
                <path d="M54.001,17 L54.001,7 L26.001,7 L21.515,0 L2.732,0 C1.226,0 0,1.226 0,2.732 L0,47 L0.001,46.998 L0.001,47 C0.001,47.734 -0.046,48 0.566,48 L45.325,48 C46.481,48 47.499,47.22 47.775,46.186 L58.001,18 L58.001,17 L54.001,17 L54.001,17 Z M8.001,10.414 L8.001,13 L5.415,13 L8.001,10.414 L8.001,10.414 Z M52.001,16 L44.001,16 L44.001,13 C44.001,12.447 43.553,12 43.001,12 C42.449,12 42.001,12.447 42.001,13 L42.001,16 L37.001,16 L37.001,13 C37.001,12.447 36.553,12 36.001,12 C35.449,12 35.001,12.447 35.001,13 L35.001,16 L30.001,16 L30.001,13 C30.001,12.447 29.553,12 29.001,12 C28.449,12 28.001,12.447 28.001,13 L28.001,16 L23.001,16 L23.001,13 C23.001,12.447 22.553,12 22.001,12 C21.449,12 21.001,12.447 21.001,13 L21.001,16 L16.001,16 L16.001,13 C16.001,12.447 15.553,12 15.001,12 C14.449,12 14.001,12.447 14.001,13 L14.001,16 L11.732,16 C10.575,16 9.557,16.779 9.282,17.813 L4.001,32.293 L4.001,15 L10.001,15 L10.001,9 L52.001,9 L52.001,16 L52.001,16 Z" id="Fill-1193" sketch:type="MSShapeGroup"></path>
            </g>
        </g>
    </g>
</svg>