<?xml version="1.0" encoding="UTF-8" standalone="no"?>
<svg width="60px" height="60px" viewBox="0 0 60 60" version="1.1" xmlns="http://www.w3.org/2000/svg" xmlns:xlink="http://www.w3.org/1999/xlink" xmlns:sketch="http://www.bohemiancoding.com/sketch/ns">
    <!-- Generator: Sketch 3.2.2 (9983) - http://www.bohemiancoding.com/sketch -->
    <title>6 - Archive (Solid)</title>
    <desc>Created with Sketch.</desc>
    <defs></defs>
    <g id="Page-1" stroke="none" stroke-width="1" fill="none" fill-rule="evenodd" sketch:type="MSPage">
        <g id="Icons" sketch:type="MSArtboardGroup" transform="translate(-600.000000, -4797.000000)" fill="#000000">
            <g id="6---Archive-(Solid)" sketch:type="MSLayerGroup" transform="translate(599.000000, 4797.000000)">
                <path d="M59.69,8 L2.311,8 C1.588,8 1,8.588 1,9.311 L1,17 L61,17 L61,9.311 C61,8.588 60.412,8 59.69,8" id="Fill-1334" sketch:type="MSShapeGroup"></path>
                <path d="M2.102,7 L59.657,7 C60.085,7 60.478,6.749 60.658,6.359 C60.837,5.971 60.774,5.508 60.494,5.181 L54.46,0 L7.54,0 L1.263,5.183 C0.985,5.508 0.921,5.971 1.101,6.359 C1.28,6.749 1.673,7 2.102,7" id="Fill-1335" sketch:type="MSShapeGroup"></path>
                <path d="M18,50 L44,50 L44,40 L18,40 L18,50 Z M33.71,47.71 C33.52,47.89 33.26,48 33,48 C32.74,48 32.48,47.89 32.29,47.71 C32.11,47.52 32,47.26 32,47 C32,46.739 32.11,46.479 32.29,46.29 C32.66,45.92 33.34,45.92 33.71,46.29 C33.89,46.479 34,46.739 34,47 C34,47.26 33.89,47.52 33.71,47.71 L33.71,47.71 Z M39,48 L38,48 C37.448,48 37,47.552 37,47 C37,46.447 37.448,46 38,46 L39,46 C39.552,46 40,46.447 40,47 C40,47.552 39.552,48 39,48 L39,48 Z M28,42 L39,42 C39.552,42 40,42.448 40,43 C40,43.553 39.552,44 39,44 L28,44 C27.448,44 27,43.553 27,43 C27,42.448 27.448,42 28,42 L28,42 Z M22.29,42.29 C22.67,41.92 23.33,41.92 23.71,42.29 C23.89,42.48 24,42.74 24,43 C24,43.26 23.89,43.52 23.71,43.71 C23.52,43.89 23.26,44 23,44 C22.73,44 22.48,43.89 22.29,43.71 C22.11,43.52 22,43.27 22,43 C22,42.74 22.11,42.48 22.29,42.29 L22.29,42.29 Z M23,46 L28,46 C28.552,46 29,46.447 29,47 C29,47.552 28.552,48 28,48 L23,48 C22.448,48 22,47.552 22,47 C22,46.447 22.448,46 23,46 L23,46 Z" id="Fill-1336" sketch:type="MSShapeGroup"></path>
                <path d="M21,25 L41,25 L41,31 L21,31 L21,25 Z" id="Fill-1337" sketch:type="MSShapeGroup"></path>
                <path d="M4,60 L58,60 L58,18 L4,18 L4,60 Z M19,23 L43,23 L43,33 L19,33 L19,23 Z M16,38 L46,38 L46,52 L16,52 L16,38 Z" id="Fill-1338" sketch:type="MSShapeGroup"></path>
            </g>
        </g>
    </g>
</svg>