<?xml version="1.0" encoding="UTF-8" standalone="no"?>
<svg width="60px" height="49px" viewBox="0 0 60 49" version="1.1" xmlns="http://www.w3.org/2000/svg" xmlns:xlink="http://www.w3.org/1999/xlink" xmlns:sketch="http://www.bohemiancoding.com/sketch/ns">
    <!-- Generator: Sketch 3.2.2 (9983) - http://www.bohemiancoding.com/sketch -->
    <title>60 - Open Folder (Solid)</title>
    <desc>Created with Sketch.</desc>
    <defs></defs>
    <g id="Page-1" stroke="none" stroke-width="1" fill="none" fill-rule="evenodd" sketch:type="MSPage">
        <g id="Icons" sketch:type="MSArtboardGroup" transform="translate(-120.000000, -4201.000000)" fill="#000000">
            <g id="60---Open-Folder-(Solid)" sketch:type="MSLayerGroup" transform="translate(120.000000, 4201.000000)">
                <path d="M14,18 C13.746,18 13.522,18.172 13.455,18.417 L2,47 L2,48 C2,48.734 1.953,49 2.565,49 L47.324,49 C48.48,49 49.498,48.221 49.774,47.187 L60,19 L60,18 L14,18" id="Fill-1191" sketch:type="MSShapeGroup"></path>
                <path d="M12.731,16 L54,16 L54,9.732 C54,8.226 52.774,7 51.268,7 L26.515,7 L21.515,0 L2.732,0 C1.226,0 0,1.226 0,2.732 L0,44.529 L10.282,17.812 C10.557,16.779 11.575,16 12.731,16" id="Fill-1192" sketch:type="MSShapeGroup"></path>
            </g>
        </g>
    </g>
</svg>