<?xml version="1.0" encoding="UTF-8" standalone="no"?>
<svg width="60px" height="60px" viewBox="0 0 60 60" version="1.1" xmlns="http://www.w3.org/2000/svg" xmlns:xlink="http://www.w3.org/1999/xlink" xmlns:sketch="http://www.bohemiancoding.com/sketch/ns">
    <!-- Generator: Sketch 3.2.2 (9983) - http://www.bohemiancoding.com/sketch -->
    <title>61 - Archive (Solid)</title>
    <desc>Created with Sketch.</desc>
    <defs></defs>
    <g id="Page-1" stroke="none" stroke-width="1" fill="none" fill-rule="evenodd" sketch:type="MSPage">
        <g id="Icons" sketch:type="MSArtboardGroup" transform="translate(-1200.000000, -4077.000000)" fill="#000000">
            <g id="61---Archive-(Solid)" sketch:type="MSLayerGroup" transform="translate(1199.000000, 4077.000000)">
                <path d="M9,11 L53,11 L53,25 L57,25 L57,6.768 C57,5.793 56.207,5 55.232,5 L24.566,5 L22.081,0.859 C21.764,0.329 21.183,0 20.565,0 L6.768,0 C5.793,0 5,0.793 5,1.768 L5,25 L9,25 L9,11" id="Fill-387" sketch:type="MSShapeGroup"></path>
                <path d="M11,21 L51,21 L51,25 L11,25 L11,21 Z" id="Fill-388" sketch:type="MSShapeGroup"></path>
                <path d="M12,17 L50,17 L50,20 L12,20 L12,17 Z" id="Fill-389" sketch:type="MSShapeGroup"></path>
                <path d="M13,13 L49,13 L49,16 L13,16 L13,13 Z" id="Fill-390" sketch:type="MSShapeGroup"></path>
                <path d="M29,51 L46,51 L46,41 L29,41 L29,51 Z M40,43 L41,43 C41.553,43 42,43.447 42,44 C42,44.553 41.553,45 41,45 L40,45 C39.447,45 39,44.553 39,44 C39,43.447 39.447,43 40,43 L40,43 Z M32,43 L36,43 C36.553,43 37,43.447 37,44 C37,44.553 36.553,45 36,45 L32,45 C31.447,45 31,44.553 31,44 C31,43.447 31.447,43 32,43 L32,43 Z M43,49 L32,49 C31.447,49 31,48.553 31,48 C31,47.448 31.447,47 32,47 L43,47 C43.553,47 44,47.448 44,48 C44,48.553 43.553,49 43,49 L43,49 Z" id="Fill-391" sketch:type="MSShapeGroup"></path>
                <path d="M60.605,27.444 C60.364,27.162 60.012,27 59.64,27 L2.271,27 C1.901,27 1.55,27.161 1.308,27.441 C1.066,27.722 0.959,28.093 1.014,28.461 L5.933,58.922 C6.029,59.547 6.558,60 7.188,60 L54.723,60 C55.354,60 55.883,59.547 55.979,58.919 L60.896,28.465 C60.953,28.098 60.847,27.726 60.605,27.444 L60.605,27.444 Z M27,39 L48,39 L48,53 L27,53 L27,39 Z" id="Fill-392" sketch:type="MSShapeGroup"></path>
            </g>
        </g>
    </g>
</svg>