<?xml version="1.0" encoding="UTF-8" standalone="no"?>
<svg width="60px" height="60px" viewBox="0 0 60 60" version="1.1" xmlns="http://www.w3.org/2000/svg" xmlns:xlink="http://www.w3.org/1999/xlink" xmlns:sketch="http://www.bohemiancoding.com/sketch/ns">
    <!-- Generator: Sketch 3.2.2 (9983) - http://www.bohemiancoding.com/sketch -->
    <title>62 - Important Archive (Solid)</title>
    <desc>Created with Sketch.</desc>
    <defs></defs>
    <g id="Page-1" stroke="none" stroke-width="1" fill="none" fill-rule="evenodd" sketch:type="MSPage">
        <g id="Icons" sketch:type="MSArtboardGroup" transform="translate(-1080.000000, -4077.000000)" fill="#000000">
            <g id="62---Important-Archive-(Solid)" sketch:type="MSLayerGroup" transform="translate(1079.000000, 4077.000000)">
                <path d="M11,21 L51,21 L51,25 L11,25 L11,21 Z" id="Fill-1" sketch:type="MSShapeGroup"></path>
                <path d="M12,17 L50,17 L50,20 L12,20 L12,17 Z" id="Fill-2" sketch:type="MSShapeGroup"></path>
                <path d="M13,13 L49,13 L49,16 L13,16 L13,13 Z" id="Fill-3" sketch:type="MSShapeGroup"></path>
                <path d="M9,11 L53,11 L53,25 L57,25 L57,6.767 C57,5.793 56.207,5 55.232,5 L24.566,5 L22.081,0.859 C21.764,0.329 21.183,0 20.565,0 L6.768,0 C5.793,0 5,0.793 5,1.768 L5,25 L9,25 L9,11" id="Fill-4" sketch:type="MSShapeGroup"></path>
                <path d="M60.605,27.443 C60.364,27.162 60.012,27 59.64,27 L2.271,27 C1.901,27 1.549,27.161 1.308,27.441 C1.066,27.721 0.959,28.093 1.014,28.461 L2.716,39 L59.195,39 L60.896,28.465 C60.953,28.097 60.847,27.726 60.605,27.443" id="Fill-5" sketch:type="MSShapeGroup"></path>
                <path d="M5.933,58.922 C6.029,59.547 6.558,60 7.188,60 L54.723,60 C55.354,60 55.883,59.547 55.979,58.919 L56.935,53 L4.977,53 L5.933,58.922" id="Fill-6" sketch:type="MSShapeGroup"></path>
                <path d="M17.523,51 L22.695,51 L32.695,41 L27.523,41 L17.523,51" id="Fill-7" sketch:type="MSShapeGroup"></path>
                <path d="M25.523,51 L30.695,51 L40.695,41 L35.523,41 L25.523,51" id="Fill-8" sketch:type="MSShapeGroup"></path>
                <path d="M33.523,51 L38.695,51 L48.695,41 L43.523,41 L33.523,51" id="Fill-9" sketch:type="MSShapeGroup"></path>
                <path d="M9.523,51 L14.695,51 L24.695,41 L19.523,41 L9.523,51" id="Fill-10" sketch:type="MSShapeGroup"></path>
                <path d="M56.695,41 L51.523,41 L41.523,51 L46.695,51 L56.695,41" id="Fill-11" sketch:type="MSShapeGroup"></path>
                <path d="M57.258,51 L58.747,41.776 L49.523,51 L57.258,51" id="Fill-12" sketch:type="MSShapeGroup"></path>
                <path d="M3.237,41 L4.087,46.608 L9.695,41 L3.237,41" id="Fill-13" sketch:type="MSShapeGroup"></path>
                <path d="M16.695,41 L12.523,41 L4.459,49.065 L4.752,51 L6.695,51 L16.695,41" id="Fill-14" sketch:type="MSShapeGroup"></path>
            </g>
        </g>
    </g>
</svg>