<?xml version="1.0" encoding="UTF-8" standalone="no"?>
<svg width="60px" height="60px" viewBox="0 0 60 60" version="1.1" xmlns="http://www.w3.org/2000/svg" xmlns:xlink="http://www.w3.org/1999/xlink" xmlns:sketch="http://www.bohemiancoding.com/sketch/ns">
    <!-- Generator: Sketch 3.2.2 (9983) - http://www.bohemiancoding.com/sketch -->
    <title>63 - Archive (Solid)</title>
    <desc>Created with Sketch.</desc>
    <defs></defs>
    <g id="Page-1" stroke="none" stroke-width="1" fill="none" fill-rule="evenodd" sketch:type="MSPage">
        <g id="Icons" sketch:type="MSArtboardGroup" transform="translate(-960.000000, -4077.000000)" fill="#000000">
            <g id="63---Archive-(Solid)" sketch:type="MSLayerGroup" transform="translate(959.000000, 4077.000000)">
                <path d="M60.605,27.444 C60.364,27.162 60.013,27 59.64,27 L2.271,27 C1.901,27 1.55,27.161 1.308,27.441 C1.066,27.722 0.959,28.093 1.014,28.461 L5.933,58.922 C6.029,59.547 6.558,60 7.188,60 L54.723,60 C55.355,60 55.883,59.547 55.979,58.919 L60.896,28.465 C60.953,28.098 60.847,27.726 60.605,27.444" id="Fill-368" sketch:type="MSShapeGroup"></path>
                <path d="M9.089,11 L53.089,11 L53.089,25 L57.089,25 L57.089,6.768 C57.089,5.793 56.296,5 55.321,5 L24.655,5 L22.17,0.859 C21.853,0.329 21.271,0 20.654,0 L6.856,0 C5.882,0 5.089,0.793 5.089,1.768 L5.089,25 L9.089,25 L9.089,11" id="Fill-369" sketch:type="MSShapeGroup"></path>
                <path d="M11,21 L51,21 L51,25 L11,25 L11,21 Z" id="Fill-370" sketch:type="MSShapeGroup"></path>
                <path d="M12,17 L50,17 L50,20 L12,20 L12,17 Z" id="Fill-371" sketch:type="MSShapeGroup"></path>
                <path d="M13,13 L49,13 L49,16 L13,16 L13,13 Z" id="Fill-372" sketch:type="MSShapeGroup"></path>
            </g>
        </g>
    </g>
</svg>