<?xml version="1.0" encoding="UTF-8" standalone="no"?>
<svg width="60px" height="58px" viewBox="0 0 60 58" version="1.1" xmlns="http://www.w3.org/2000/svg" xmlns:xlink="http://www.w3.org/1999/xlink" xmlns:sketch="http://www.bohemiancoding.com/sketch/ns">
    <!-- Generator: Sketch 3.2.2 (9983) - http://www.bohemiancoding.com/sketch -->
    <title>64 - Open Folder (Solid)</title>
    <desc>Created with Sketch.</desc>
    <defs></defs>
    <g id="Page-1" stroke="none" stroke-width="1" fill="none" fill-rule="evenodd" sketch:type="MSPage">
        <g id="Icons" sketch:type="MSArtboardGroup" transform="translate(-840.000000, -4077.000000)" fill="#000000">
            <g id="64---Open-Folder-(Solid)" sketch:type="MSLayerGroup" transform="translate(839.000000, 4077.000000)">
                <path d="M60.605,25.443 C60.364,25.162 60.013,25 59.64,25 L2.271,25 C1.901,25 1.55,25.161 1.308,25.442 C1.066,25.722 0.959,26.093 1.014,26.461 L5.933,56.922 C6.029,57.547 6.558,58 7.188,58 L54.723,58 C55.354,58 55.883,57.547 55.979,56.919 L60.896,26.465 C60.953,26.098 60.847,25.726 60.605,25.443" id="Fill-366" sketch:type="MSShapeGroup"></path>
                <path d="M9,14 L53,14 L53,23 L57,23 L57,6.768 C57,5.793 56.207,5 55.232,5 L24.566,5 L22.081,0.859 C21.764,0.329 21.183,0 20.565,0 L6.768,0 C5.793,0 5,0.793 5,1.768 L5,23 L9,23 L9,14" id="Fill-367" sketch:type="MSShapeGroup"></path>
            </g>
        </g>
    </g>
</svg>