<?xml version="1.0" encoding="UTF-8" standalone="no"?>
<svg width="60px" height="53px" viewBox="0 0 60 53" version="1.1" xmlns="http://www.w3.org/2000/svg" xmlns:xlink="http://www.w3.org/1999/xlink" xmlns:sketch="http://www.bohemiancoding.com/sketch/ns">
    <!-- Generator: Sketch 3.2.2 (9983) - http://www.bohemiancoding.com/sketch -->
    <title>67 - Folder (Solid)</title>
    <desc>Created with Sketch.</desc>
    <defs></defs>
    <g id="Page-1" stroke="none" stroke-width="1" fill="none" fill-rule="evenodd" sketch:type="MSPage">
        <g id="Icons" sketch:type="MSArtboardGroup" transform="translate(-480.000000, -4080.000000)" fill="#000000">
            <g id="67---Folder-(Solid)" sketch:type="MSLayerGroup" transform="translate(480.000000, 4080.000000)">
                <path d="M36,46 L53,46 L53,36 L36,36 L36,46 Z M47,38 L48,38 C48.552,38 49,38.448 49,39 C49,39.553 48.552,40 48,40 L47,40 C46.448,40 46,39.553 46,39 C46,38.448 46.448,38 47,38 L47,38 Z M39,38 L43,38 C43.552,38 44,38.448 44,39 C44,39.553 43.552,40 43,40 L39,40 C38.448,40 38,39.553 38,39 C38,38.448 38.448,38 39,38 L39,38 Z M39,42 L50,42 C50.552,42 51,42.447 51,43 C51,43.553 50.552,44 50,44 L39,44 C38.448,44 38,43.553 38,43 C38,42.447 38.448,42 39,42 L39,42 Z" id="Fill-1184" sketch:type="MSShapeGroup"></path>
                <path d="M56.981,8 L28.019,8 L28.019,3.019 C28.019,1.354 26.665,0 25,0 L3.019,0 C1.355,0 0,1.354 0,3.019 L0,17 L60,17 L60,11.02 C60,9.354 58.646,8 56.981,8" id="Fill-1185" sketch:type="MSShapeGroup"></path>
                <path d="M0,49.981 C0,51.646 1.355,53 3.019,53 L56.981,53 C58.646,53 60,51.646 60,49.981 L60,19 L0,19 L0,49.981 L0,49.981 Z M34,34 L55,34 L55,48 L34,48 L34,34 Z" id="Fill-1186" sketch:type="MSShapeGroup"></path>
            </g>
        </g>
    </g>
</svg>