<?xml version="1.0" encoding="UTF-8" standalone="no"?>
<svg width="60px" height="53px" viewBox="0 0 60 53" version="1.1" xmlns="http://www.w3.org/2000/svg" xmlns:xlink="http://www.w3.org/1999/xlink" xmlns:sketch="http://www.bohemiancoding.com/sketch/ns">
    <!-- Generator: Sketch 3.2.2 (9983) - http://www.bohemiancoding.com/sketch -->
    <title>69 - Folder (Solid)</title>
    <desc>Created with Sketch.</desc>
    <defs></defs>
    <g id="Page-1" stroke="none" stroke-width="1" fill="none" fill-rule="evenodd" sketch:type="MSPage">
        <g id="Icons" sketch:type="MSArtboardGroup" transform="translate(-240.000000, -4080.000000)" fill="#000000">
            <g id="69---Folder-(Solid)" sketch:type="MSLayerGroup" transform="translate(240.000000, 4080.000000)">
                <path d="M26.515,7 L21.515,0 L0,0 L0,53 L60,53 L60,7 L26.515,7 L26.515,7 Z M19,25 L33,25 C33.552,25 34,25.447 34,26 C34,26.553 33.552,27 33,27 L19,27 C18.448,27 18,26.553 18,26 C18,25.447 18.448,25 19,25 L19,25 Z M41,39 L19,39 C18.448,39 18,38.553 18,38 C18,37.447 18.448,37 19,37 L41,37 C41.552,37 42,37.447 42,38 C42,38.553 41.552,39 41,39 L41,39 Z M41,33 L19,33 C18.448,33 18,32.553 18,32 C18,31.447 18.448,31 19,31 L41,31 C41.552,31 42,31.447 42,32 C42,32.553 41.552,33 41,33 L41,33 Z M58,14 L31.515,14 L27.943,9 L58,9 L58,14 L58,14 Z" id="Fill-1183" sketch:type="MSShapeGroup"></path>
            </g>
        </g>
    </g>
</svg>