<?xml version="1.0" encoding="UTF-8" standalone="no"?>
<svg width="59px" height="60px" viewBox="0 0 59 60" version="1.1" xmlns="http://www.w3.org/2000/svg" xmlns:xlink="http://www.w3.org/1999/xlink" xmlns:sketch="http://www.bohemiancoding.com/sketch/ns">
    <!-- Generator: Sketch 3.2.2 (9983) - http://www.bohemiancoding.com/sketch -->
    <title>7 - Presentation (Solid)</title>
    <desc>Created with Sketch.</desc>
    <defs></defs>
    <g id="Page-1" stroke="none" stroke-width="1" fill="none" fill-rule="evenodd" sketch:type="MSPage">
        <g id="Icons" sketch:type="MSArtboardGroup" transform="translate(-481.000000, -4797.000000)" fill="#000000">
            <g id="7---Presentation-(Solid)" sketch:type="MSLayerGroup" transform="translate(481.000000, 4797.000000)">
                <path d="M58.181,46 L58.222,46 L57.984,44.823 L51.847,8 L17,8 L17,6 C17,3.794 18.794,2 21,2 C23.206,2 25,3.794 25,6 C25,6.553 25.448,7 26,7 C26.552,7 27,6.553 27,6 C27,2.691 24.309,0 21,0 C17.691,0 15,2.691 15,6 L15,8 L7.153,8 L1.016,44.823 L0.778,46 L25,46 L25,55 L22,55 L22,60 L37,60 L37,55 L34,55 L34,46 L58.181,46 L58.181,46 Z M8.847,10 L15,10 L15,17 C15,17.552 15.448,18 16,18 C16.552,18 17,17.552 17,17 L17,10 L50.153,10 L54.653,37 L4.347,37 L8.847,10 L8.847,10 Z M27,46 L32,46 L32,55 L27,55 L27,46 Z" id="Fill-644" sketch:type="MSShapeGroup"></path>
            </g>
        </g>
    </g>
</svg>