<?xml version="1.0" encoding="UTF-8" standalone="no"?>
<svg width="58px" height="61px" viewBox="0 0 58 61" version="1.1" xmlns="http://www.w3.org/2000/svg" xmlns:xlink="http://www.w3.org/1999/xlink" xmlns:sketch="http://www.bohemiancoding.com/sketch/ns">
    <!-- Generator: Sketch 3.2.2 (9983) - http://www.bohemiancoding.com/sketch -->
    <title>71 - Tracked Time (Solid)</title>
    <desc>Created with Sketch.</desc>
    <defs></defs>
    <g id="Page-1" stroke="none" stroke-width="1" fill="none" fill-rule="evenodd" sketch:type="MSPage">
        <g id="Icons" sketch:type="MSArtboardGroup" transform="translate(-1200.000000, -3957.000000)" fill="#1A1718">
            <g id="71---Tracked-Time-(Solid)" sketch:type="MSLayerGroup" transform="translate(1200.000000, 3957.000000)">
                <path d="M33.447,36.651 L42.811,23.707 C43.098,23.31 43.055,22.762 42.707,22.414 C42.359,22.068 41.812,22.024 41.414,22.311 L28.467,31.676 C27.623,32.29 27.092,33.239 27.011,34.28 C26.93,35.321 27.307,36.34 28.044,37.077 C28.717,37.75 29.611,38.121 30.562,38.121 C31.699,38.121 32.777,37.572 33.447,36.651" id="Fill-339" sketch:type="MSShapeGroup"></path>
                <path d="M53.241,19.685 L53.22,19.621 L53.176,19.571 C52.165,17.836 50.969,16.224 49.61,14.762 L51.758,12.615 L53.172,14.029 L57.414,9.787 L53.172,5.544 L48.929,9.787 L50.343,11.201 L48.196,13.348 C46.734,11.99 45.122,10.793 43.387,9.782 L43.337,9.738 L43.272,9.717 C40.179,7.934 36.704,6.747 33,6.313 L33,5.121 L34.5,5.121 C35.879,5.121 37,4 37,2.621 C37,1.242 35.879,0.121 34.5,0.121 L25.5,0.121 C24.121,0.121 23,1.242 23,2.621 C23,4 24.121,5.121 25.5,5.121 L27,5.121 L27,6.277 C25.92,6.392 24.842,6.568 23.776,6.813 C23.238,6.936 22.901,7.473 23.025,8.011 C23.148,8.549 23.686,8.885 24.224,8.762 C25.17,8.545 26.126,8.384 27.084,8.277 L28.075,8.202 C28.41,8.177 28.71,8.159 29,8.145 L29,10.121 C29,10.674 29.447,11.121 30,11.121 C30.553,11.121 31,10.674 31,10.121 L31,8.151 C34.761,8.324 38.305,9.334 41.456,10.996 L40.471,12.703 C40.194,13.182 40.358,13.793 40.837,14.069 C40.994,14.16 41.166,14.203 41.336,14.203 C41.682,14.203 42.018,14.024 42.203,13.703 L43.187,12 C46.315,13.984 48.974,16.643 50.958,19.772 L49.256,20.755 C48.777,21.031 48.613,21.643 48.89,22.121 C49.075,22.443 49.411,22.621 49.757,22.621 C49.927,22.621 50.099,22.578 50.256,22.487 L51.963,21.502 C53.648,24.698 54.66,28.3 54.812,32.121 L52.837,32.121 C52.284,32.121 51.837,32.568 51.837,33.121 C51.837,33.674 52.284,34.121 52.837,34.121 L54.812,34.121 C54.66,37.942 53.648,41.544 51.963,44.74 L50.256,43.755 C49.778,43.478 49.166,43.641 48.89,44.121 C48.613,44.6 48.777,45.211 49.256,45.487 L50.958,46.471 C48.974,49.599 46.315,52.258 43.186,54.243 L42.203,52.54 C41.926,52.06 41.313,51.896 40.837,52.174 C40.358,52.45 40.194,53.062 40.471,53.54 L41.456,55.247 C38.305,56.908 34.761,57.918 31,58.091 L31,56.121 C31,55.569 30.553,55.121 30,55.121 C29.447,55.121 29,55.569 29,56.121 L29,58.097 C27.403,58.043 25.801,57.842 24.224,57.481 C23.686,57.355 23.148,57.693 23.025,58.232 C22.901,58.77 23.238,59.307 23.776,59.43 C25.775,59.889 27.814,60.121 29.837,60.121 L29.982,60.117 L30,60.121 L30.023,60.116 C34.831,60.084 39.34,58.785 43.243,56.543 L43.337,56.504 L43.387,56.46 C47.427,54.106 50.801,50.735 53.16,46.699 L53.22,46.621 L53.241,46.557 C55.524,42.597 56.837,38.011 56.837,33.121 C56.837,28.232 55.524,23.645 53.241,19.685" id="Fill-340" sketch:type="MSShapeGroup"></path>
                <path d="M21,13.121 L16,13.121 C14.896,13.121 14,14.017 14,15.121 C14,16.226 14.896,17.121 16,17.121 L21,17.121 C22.104,17.121 23,16.226 23,15.121 C23,14.017 22.104,13.121 21,13.121" id="Fill-341" sketch:type="MSShapeGroup"></path>
                <path d="M21,20.121 L11,20.121 C9.896,20.121 9,21.017 9,22.121 C9,23.226 9.896,24.121 11,24.121 L21,24.121 C22.104,24.121 23,23.226 23,22.121 C23,21.017 22.104,20.121 21,20.121" id="Fill-342" sketch:type="MSShapeGroup"></path>
                <path d="M21,27.121 L6,27.121 C4.896,27.121 4,28.017 4,29.121 C4,30.226 4.896,31.121 6,31.121 L21,31.121 C22.104,31.121 23,30.226 23,29.121 C23,28.017 22.104,27.121 21,27.121" id="Fill-343" sketch:type="MSShapeGroup"></path>
                <path d="M21,34.121 L2,34.121 C0.896,34.121 0,35.017 0,36.121 C0,37.225 0.896,38.121 2,38.121 L21,38.121 C22.104,38.121 23,37.225 23,36.121 C23,35.017 22.104,34.121 21,34.121" id="Fill-344" sketch:type="MSShapeGroup"></path>
                <path d="M21,41.121 L8,41.121 C6.896,41.121 6,42.017 6,43.121 C6,44.226 6.896,45.121 8,45.121 L21,45.121 C22.104,45.121 23,44.226 23,43.121 C23,42.017 22.104,41.121 21,41.121" id="Fill-345" sketch:type="MSShapeGroup"></path>
                <path d="M21,48.121 L14,48.121 C12.896,48.121 12,49.016 12,50.121 C12,51.226 12.896,52.121 14,52.121 L21,52.121 C22.104,52.121 23,51.226 23,50.121 C23,49.016 22.104,48.121 21,48.121" id="Fill-346" sketch:type="MSShapeGroup"></path>
            </g>
        </g>
    </g>
</svg>