<?xml version="1.0" encoding="UTF-8" standalone="no"?>
<svg width="60px" height="60px" viewBox="0 0 60 60" version="1.1" xmlns="http://www.w3.org/2000/svg" xmlns:xlink="http://www.w3.org/1999/xlink" xmlns:sketch="http://www.bohemiancoding.com/sketch/ns">
    <!-- Generator: Sketch 3.2.2 (9983) - http://www.bohemiancoding.com/sketch -->
    <title>72 - Speed Dial (Solid)</title>
    <desc>Created with Sketch.</desc>
    <defs></defs>
    <g id="Page-1" stroke="none" stroke-width="1" fill="none" fill-rule="evenodd" sketch:type="MSPage">
        <g id="Icons" sketch:type="MSArtboardGroup" transform="translate(-1080.000000, -3957.000000)" fill="#000000">
            <g id="72---Speed-Dial-(Solid)" sketch:type="MSLayerGroup" transform="translate(1080.000000, 3957.000000)">
                <path d="M30,27 C29.466,27 28.964,27.208 28.586,27.586 C28.208,27.964 28,28.466 28,29 C28,29.534 28.208,30.036 28.586,30.414 C29.342,31.17 30.658,31.17 31.414,30.414 C31.792,30.036 32,29.534 32,29 C32,28.466 31.792,27.964 31.414,27.586 C31.036,27.208 30.534,27 30,27" id="Fill-1177" sketch:type="MSShapeGroup"></path>
                <path d="M30,0.121 C13.458,0.121 0,13.579 0,30.121 C0,38.206 3.246,45.545 8.501,50.93 C13.796,46.791 22.188,44.121 29.939,44.121 C37.739,44.121 46.162,46.802 51.471,50.959 C56.743,45.572 60,38.22 60,30.121 C60,13.579 46.542,0.121 30,0.121 L30,0.121 Z M29,5.121 C29,4.568 29.447,4.121 30,4.121 C30.553,4.121 31,4.568 31,5.121 L31,7.121 C31,7.674 30.553,8.121 30,8.121 C29.447,8.121 29,7.674 29,7.121 L29,5.121 L29,5.121 Z M4.5,31.121 C3.947,31.121 3.5,30.674 3.5,30.121 C3.5,29.568 3.947,29.121 4.5,29.121 L6.5,29.121 C7.053,29.121 7.5,29.568 7.5,30.121 C7.5,30.674 7.053,31.121 6.5,31.121 L4.5,31.121 L4.5,31.121 Z M9.894,42.772 L8.162,43.772 C8.005,43.863 7.833,43.905 7.663,43.905 C7.317,43.905 6.982,43.727 6.796,43.406 C6.52,42.927 6.684,42.316 7.162,42.039 L8.894,41.039 C9.37,40.763 9.982,40.926 10.26,41.405 C10.536,41.884 10.372,42.495 9.894,42.772 L9.894,42.772 Z M10.515,19.371 C10.329,19.691 9.993,19.871 9.648,19.871 C9.478,19.871 9.306,19.828 9.148,19.737 L7.416,18.737 C6.938,18.461 6.773,17.85 7.05,17.371 C7.326,16.892 7.938,16.728 8.416,17.005 L10.148,18.005 C10.627,18.281 10.791,18.893 10.515,19.371 L10.515,19.371 Z M18.745,11.103 C18.588,11.193 18.416,11.236 18.246,11.236 C17.9,11.236 17.564,11.057 17.379,10.736 L16.379,9.004 C16.103,8.525 16.267,7.914 16.745,7.638 C17.222,7.361 17.835,7.526 18.111,8.004 L19.111,9.736 C19.388,10.215 19.224,10.826 18.745,11.103 L18.745,11.103 Z M42.021,18.707 L33.545,27.184 C33.832,27.741 34,28.355 34,29 C34,30.068 33.584,31.073 32.828,31.828 C32.073,32.584 31.068,33 30,33 C28.932,33 27.927,32.584 27.172,31.828 C26.416,31.073 26,30.068 26,29 C26,27.932 26.416,26.927 27.172,26.172 C28.495,24.847 30.683,24.684 32.22,25.681 L40.606,17.293 C40.997,16.902 41.63,16.902 42.021,17.293 C42.411,17.683 42.411,18.316 42.021,18.707 L42.021,18.707 Z M43.616,9.038 L42.616,10.769 C42.431,11.091 42.095,11.27 41.749,11.27 C41.579,11.27 41.407,11.226 41.25,11.136 C40.771,10.859 40.607,10.248 40.884,9.77 L41.884,8.038 C42.16,7.558 42.771,7.396 43.25,7.672 C43.729,7.948 43.893,8.56 43.616,9.038 L43.616,9.038 Z M49.598,17.539 L51.329,16.539 C51.806,16.262 52.418,16.426 52.695,16.905 C52.972,17.384 52.808,17.995 52.329,18.272 L50.598,19.271 C50.44,19.362 50.269,19.405 50.099,19.405 C49.753,19.405 49.417,19.227 49.231,18.905 C48.955,18.427 49.119,17.815 49.598,17.539 L49.598,17.539 Z M52.95,43.871 C52.765,44.192 52.429,44.371 52.083,44.371 C51.913,44.371 51.741,44.328 51.584,44.238 L49.852,43.237 C49.373,42.961 49.209,42.35 49.485,41.871 C49.761,41.393 50.374,41.229 50.852,41.505 L52.584,42.505 C53.063,42.781 53.227,43.393 52.95,43.871 L52.95,43.871 Z M55.5,31.121 L53.5,31.121 C52.947,31.121 52.5,30.674 52.5,30.121 C52.5,29.568 52.947,29.121 53.5,29.121 L55.5,29.121 C56.053,29.121 56.5,29.568 56.5,30.121 C56.5,30.674 56.053,31.121 55.5,31.121 L55.5,31.121 Z" id="Fill-1178" sketch:type="MSShapeGroup"></path>
                <path d="M9.962,52.335 C15.278,57.096 22.304,60 30,60 C37.681,60 44.695,57.107 50.008,52.361 C45.08,48.619 37.095,46.121 29.939,46.121 C22.83,46.121 14.875,48.609 9.962,52.335" id="Fill-1179" sketch:type="MSShapeGroup"></path>
            </g>
        </g>
    </g>
</svg>