<?xml version="1.0" encoding="UTF-8" standalone="no"?>
<svg width="60px" height="61px" viewBox="0 0 60 61" version="1.1" xmlns="http://www.w3.org/2000/svg" xmlns:xlink="http://www.w3.org/1999/xlink" xmlns:sketch="http://www.bohemiancoding.com/sketch/ns">
    <!-- Generator: Sketch 3.2.2 (9983) - http://www.bohemiancoding.com/sketch -->
    <title>73 - Stopwatch (Solid)</title>
    <desc>Created with Sketch.</desc>
    <defs></defs>
    <g id="Page-1" stroke="none" stroke-width="1" fill="none" fill-rule="evenodd" sketch:type="MSPage">
        <g id="Icons" sketch:type="MSArtboardGroup" transform="translate(-960.000000, -3957.000000)" fill="#1A1718">
            <g id="73---Stopwatch-(Solid)" sketch:type="MSLayerGroup" transform="translate(960.000000, 3957.000000)">
                <path d="M30,0.121 C29.447,0.121 29,0.568 29,1.121 L29,14.413 C29,14.966 29.447,15.413 30,15.413 C30.553,15.413 31,14.966 31,14.413 L31,2.139 C45.979,2.667 58,15.017 58,30.121 C58,45.561 45.44,58.121 30,58.121 C14.56,58.121 2,45.561 2,30.121 C2,22.661 4.9,15.642 10.166,10.357 C10.557,9.966 10.555,9.333 10.164,8.943 C9.773,8.555 9.14,8.555 8.75,8.945 C3.107,14.607 0,22.128 0,30.121 C0,46.663 13.458,60.121 30,60.121 C46.542,60.121 60,46.663 60,30.121 C60,13.579 46.542,0.121 30,0.121" id="Fill-294" sketch:type="MSShapeGroup"></path>
                <path d="M28.555,33.653 C29.223,34.572 30.301,35.121 31.439,35.121 C32.389,35.121 33.283,34.75 33.956,34.077 C34.693,33.34 35.07,32.321 34.989,31.28 C34.908,30.239 34.377,29.29 33.53,28.674 L20.586,19.311 C20.19,19.024 19.641,19.068 19.293,19.414 C18.945,19.762 18.902,20.31 19.19,20.707 L28.555,33.653" id="Fill-295" sketch:type="MSShapeGroup"></path>
            </g>
        </g>
    </g>
</svg>