<?xml version="1.0" encoding="UTF-8" standalone="no"?>
<svg width="56px" height="61px" viewBox="0 0 56 61" version="1.1" xmlns="http://www.w3.org/2000/svg" xmlns:xlink="http://www.w3.org/1999/xlink" xmlns:sketch="http://www.bohemiancoding.com/sketch/ns">
    <!-- Generator: Sketch 3.2.2 (9983) - http://www.bohemiancoding.com/sketch -->
    <title>74 - Stopwatch (Solid)</title>
    <desc>Created with Sketch.</desc>
    <defs></defs>
    <g id="Page-1" stroke="none" stroke-width="1" fill="none" fill-rule="evenodd" sketch:type="MSPage">
        <g id="Icons" sketch:type="MSArtboardGroup" transform="translate(-842.000000, -3957.000000)" fill="#1A1718">
            <g id="74---Stopwatch-(Solid)" sketch:type="MSLayerGroup" transform="translate(842.000000, 3957.000000)">
                <path d="M30.53,30.674 L17.586,21.31 C17.19,21.026 16.641,21.067 16.293,21.414 C15.945,21.762 15.902,22.31 16.19,22.707 L25.555,35.653 C26.223,36.573 27.301,37.121 28.438,37.121 C29.389,37.121 30.283,36.75 30.956,36.077 C31.693,35.34 32.07,34.321 31.989,33.281 C31.908,32.239 31.377,31.29 30.53,30.674" id="Fill-337" sketch:type="MSShapeGroup"></path>
                <path d="M54.081,26.143 L54.08,26.133 L54.075,26.122 C53.462,23.843 52.557,21.685 51.404,19.685 L51.383,19.621 L51.339,19.571 C50.328,17.836 49.131,16.224 47.773,14.762 L49.92,12.615 L51.335,14.029 L55.577,9.787 L51.335,5.544 L47.092,9.787 L48.506,11.201 L46.359,13.348 C44.897,11.99 43.285,10.793 41.55,9.782 L41.5,9.738 L41.435,9.717 C39.436,8.564 37.278,7.659 34.999,7.046 L34.988,7.041 L34.978,7.041 C33.687,6.695 32.359,6.443 31,6.292 L31,5 L32.5,5 C33.879,5 35,3.879 35,2.5 C35,1.121 33.879,0 32.5,0 L23.5,0 C22.121,0 21,1.121 21,2.5 C21,3.879 22.121,5 23.5,5 L25,5 L25,6.292 C23.641,6.443 22.313,6.695 21.022,7.04 L21.012,7.041 L21.001,7.046 C18.722,7.659 16.564,8.564 14.565,9.716 L14.5,9.738 L14.45,9.782 C12.716,10.793 11.103,11.99 9.641,13.348 L7.494,11.201 L8.908,9.787 L4.665,5.544 L0.423,9.787 L4.665,14.029 L6.08,12.615 L8.227,14.762 C6.869,16.224 5.672,17.836 4.661,19.571 L4.617,19.621 L4.596,19.685 C3.443,21.685 2.538,23.843 1.925,26.122 L1.92,26.133 L1.919,26.143 C1.323,28.371 1,30.708 1,33.121 C1,35.534 1.323,37.871 1.919,40.099 L1.92,40.109 L1.926,40.123 C2.539,42.401 3.444,44.558 4.596,46.557 L4.617,46.621 L4.677,46.699 C5.842,48.692 7.25,50.526 8.868,52.153 L8.908,52.213 L8.968,52.253 C10.603,53.879 12.446,55.292 14.45,56.46 L14.5,56.504 L14.594,56.543 C16.585,57.687 18.734,58.586 21.001,59.196 L21.012,59.201 L21.027,59.203 C23.253,59.799 25.589,60.121 28,60.121 C30.411,60.121 32.747,59.799 34.973,59.203 L34.988,59.201 L34.999,59.196 C37.266,58.586 39.415,57.687 41.406,56.543 L41.5,56.504 L41.55,56.46 C43.554,55.292 45.398,53.879 47.032,52.253 L47.092,52.213 L47.132,52.153 C48.75,50.526 50.158,48.692 51.323,46.699 L51.383,46.621 L51.404,46.557 C52.557,44.558 53.461,42.401 54.074,40.123 L54.08,40.109 L54.081,40.099 C54.677,37.871 55,35.534 55,33.121 C55,30.708 54.677,28.371 54.081,26.143 L54.081,26.143 Z M49.957,40.04 L51.872,40.553 C51.417,42.011 50.827,43.41 50.126,44.74 L48.419,43.755 C47.941,43.478 47.329,43.641 47.053,44.121 C46.776,44.6 46.94,45.211 47.419,45.487 L49.122,46.471 C48.309,47.752 47.385,48.956 46.36,50.067 L44.971,48.678 C44.58,48.287 43.947,48.287 43.557,48.678 C43.166,49.068 43.166,49.701 43.557,50.092 L44.946,51.481 C43.835,52.506 42.631,53.43 41.349,54.243 L40.366,52.54 C40.089,52.06 39.477,51.896 39,52.174 C38.521,52.45 38.357,53.062 38.634,53.54 L39.619,55.247 C38.289,55.948 36.89,56.538 35.432,56.993 L34.919,55.079 C34.776,54.545 34.228,54.228 33.694,54.372 C33.161,54.515 32.845,55.063 32.987,55.597 L33.498,57.505 C32.042,57.833 30.539,58.035 29,58.096 L29,56.121 C29,55.569 28.553,55.121 28,55.121 C27.447,55.121 27,55.569 27,56.121 L27,58.096 C25.461,58.035 23.958,57.833 22.502,57.505 L23.013,55.597 C23.155,55.063 22.839,54.515 22.306,54.372 C21.773,54.228 21.224,54.545 21.081,55.079 L20.568,56.993 C19.11,56.538 17.711,55.948 16.381,55.247 L17.366,53.54 C17.643,53.062 17.479,52.45 17,52.174 C16.523,51.896 15.91,52.06 15.634,52.54 L14.651,54.243 C13.369,53.43 12.165,52.506 11.054,51.481 L12.443,50.092 C12.834,49.701 12.834,49.068 12.443,48.678 C12.053,48.287 11.42,48.287 11.029,48.678 L9.64,50.067 C8.615,48.956 7.691,47.752 6.878,46.471 L8.581,45.487 C9.06,45.211 9.224,44.6 8.947,44.121 C8.67,43.641 8.058,43.478 7.581,43.755 L5.874,44.74 C5.173,43.41 4.583,42.011 4.128,40.553 L6.043,40.04 C6.576,39.897 6.893,39.349 6.75,38.815 C6.608,38.281 6.06,37.964 5.525,38.109 L3.617,38.62 C3.289,37.163 3.086,35.66 3.025,34.121 L5,34.121 C5.553,34.121 6,33.674 6,33.121 C6,32.568 5.553,32.121 5,32.121 L3.025,32.121 C3.086,30.582 3.289,29.079 3.617,27.623 L5.525,28.135 L5.785,28.169 C6.227,28.169 6.63,27.875 6.75,27.428 C6.894,26.894 6.576,26.346 6.043,26.203 L4.128,25.69 C4.583,24.231 5.173,22.833 5.874,21.502 L7.581,22.487 C7.738,22.578 7.91,22.621 8.08,22.621 C8.426,22.621 8.762,22.443 8.947,22.121 C9.224,21.643 9.06,21.031 8.581,20.755 L6.878,19.772 C7.691,18.49 8.615,17.286 9.64,16.176 L11.029,17.564 C11.225,17.76 11.481,17.857 11.736,17.857 C11.992,17.857 12.248,17.76 12.443,17.564 C12.834,17.174 12.834,16.541 12.443,16.151 L11.054,14.762 C12.165,13.736 13.369,12.812 14.651,12 L15.634,13.703 C15.819,14.024 16.155,14.203 16.501,14.203 C16.671,14.203 16.843,14.16 17,14.069 C17.479,13.793 17.643,13.182 17.366,12.703 L16.381,10.996 C17.711,10.294 19.11,9.704 20.568,9.249 L21.081,11.164 C21.2,11.61 21.604,11.905 22.046,11.905 L22.306,11.871 C22.839,11.729 23.155,11.18 23.013,10.646 L22.502,8.738 C23.958,8.41 25.461,8.208 27,8.147 L27,10.121 C27,10.674 27.447,11.121 28,11.121 C28.553,11.121 29,10.674 29,10.121 L29,8.147 C30.539,8.208 32.042,8.41 33.498,8.738 L32.987,10.646 C32.845,11.18 33.161,11.729 33.694,11.871 L33.954,11.905 C34.396,11.905 34.8,11.61 34.919,11.164 L35.432,9.249 C36.89,9.704 38.289,10.294 39.619,10.996 L38.634,12.703 C38.357,13.182 38.521,13.793 39,14.069 C39.157,14.16 39.329,14.203 39.499,14.203 C39.845,14.203 40.181,14.024 40.366,13.703 L41.349,12 C42.631,12.812 43.835,13.736 44.946,14.762 L43.557,16.151 C43.166,16.541 43.166,17.174 43.557,17.564 C43.752,17.76 44.008,17.857 44.264,17.857 C44.52,17.857 44.775,17.76 44.971,17.564 L46.36,16.176 C47.385,17.286 48.309,18.49 49.122,19.772 L47.419,20.755 C46.94,21.031 46.776,21.643 47.053,22.121 C47.238,22.443 47.574,22.621 47.92,22.621 C48.09,22.621 48.262,22.578 48.419,22.487 L50.126,21.502 C50.827,22.833 51.417,24.231 51.872,25.69 L49.957,26.203 C49.424,26.346 49.106,26.894 49.25,27.428 C49.37,27.875 49.773,28.169 50.215,28.169 L50.475,28.135 L52.383,27.623 C52.711,29.079 52.914,30.582 52.975,32.121 L51,32.121 C50.447,32.121 50,32.568 50,33.121 C50,33.674 50.447,34.121 51,34.121 L52.975,34.121 C52.914,35.66 52.711,37.163 52.383,38.62 L50.475,38.109 C49.943,37.965 49.393,38.282 49.25,38.815 C49.107,39.349 49.424,39.897 49.957,40.04 L49.957,40.04 Z" id="Fill-338" sketch:type="MSShapeGroup"></path>
            </g>
        </g>
    </g>
</svg>