<?xml version="1.0" encoding="UTF-8" standalone="no"?>
<svg width="56px" height="57px" viewBox="0 0 56 57" version="1.1" xmlns="http://www.w3.org/2000/svg" xmlns:xlink="http://www.w3.org/1999/xlink" xmlns:sketch="http://www.bohemiancoding.com/sketch/ns">
    <!-- Generator: Sketch 3.2.2 (9983) - http://www.bohemiancoding.com/sketch -->
    <title>75 - Stopwatch (Solid)</title>
    <desc>Created with Sketch.</desc>
    <defs></defs>
    <g id="Page-1" stroke="none" stroke-width="1" fill="none" fill-rule="evenodd" sketch:type="MSPage">
        <g id="Icons" sketch:type="MSArtboardGroup" transform="translate(-722.000000, -3959.000000)" fill="#1A1718">
            <g id="75---Stopwatch-(Solid)" sketch:type="MSLayerGroup" transform="translate(722.000000, 3959.000000)">
                <path d="M28,26.121 C26.898,26.121 26,27.019 26,28.121 C26,29.224 26.898,30.121 28,30.121 C29.102,30.121 30,29.224 30,28.121 C30,27.019 29.102,26.121 28,26.121" id="Fill-334" sketch:type="MSShapeGroup"></path>
                <path d="M28,35.121 C24.691,35.121 22,37.813 22,41.121 C22,44.43 24.691,47.121 28,47.121 C31.309,47.121 34,44.43 34,41.121 C34,37.813 31.309,35.121 28,35.121 L28,35.121 Z M28.707,41.828 C28.512,42.023 28.256,42.121 28,42.121 C27.744,42.121 27.488,42.023 27.293,41.828 L24.293,38.828 C23.902,38.437 23.902,37.805 24.293,37.414 C24.684,37.024 25.316,37.024 25.707,37.414 L28.707,40.414 C29.098,40.805 29.098,41.437 28.707,41.828 L28.707,41.828 Z" id="Fill-335" sketch:type="MSShapeGroup"></path>
                <path d="M51,28.121 C51,27.568 51.447,27.121 52,27.121 L55.975,27.121 C55.911,25.314 55.674,23.551 55.282,21.846 L53.373,22.357 L53.113,22.392 C52.672,22.392 52.268,22.098 52.148,21.651 C52.006,21.117 52.322,20.568 52.856,20.426 L54.77,19.913 C54.244,18.2 53.555,16.557 52.726,15.001 L51.017,15.987 C50.859,16.078 50.688,16.121 50.518,16.121 C50.172,16.121 49.836,15.943 49.65,15.621 C49.374,15.143 49.538,14.531 50.017,14.255 L51.721,13.271 C50.774,11.763 49.688,10.352 48.48,9.055 L47.092,10.443 C46.896,10.639 46.641,10.736 46.385,10.736 C46.129,10.736 45.873,10.639 45.678,10.443 C45.287,10.053 45.287,9.42 45.678,9.029 L47.066,7.641 C45.769,6.433 44.358,5.347 42.85,4.4 L41.866,6.105 C41.681,6.426 41.345,6.604 40.999,6.604 C40.829,6.604 40.657,6.562 40.5,6.471 C40.021,6.194 39.857,5.583 40.134,5.104 L41.121,3.395 C39.564,2.566 37.922,1.877 36.208,1.351 L35.695,3.266 C35.576,3.713 35.172,4.007 34.731,4.007 L34.471,3.973 C33.937,3.83 33.621,3.281 33.764,2.748 L34.275,0.839 C32.57,0.447 30.807,0.211 29,0.147 L29,4.121 C29,4.674 28.553,5.121 28,5.121 C27.447,5.121 27,4.674 27,4.121 L27,0.147 C25.193,0.211 23.43,0.447 21.725,0.839 L22.236,2.748 C22.379,3.281 22.062,3.83 21.529,3.973 L21.269,4.007 C20.828,4.007 20.424,3.713 20.305,3.266 L19.792,1.351 C18.078,1.877 16.436,2.566 14.879,3.395 L15.866,5.104 C16.143,5.583 15.979,6.194 15.5,6.471 C15.343,6.562 15.171,6.604 15.001,6.604 C14.655,6.604 14.319,6.426 14.134,6.105 L13.15,4.4 C11.642,5.347 10.231,6.433 8.934,7.641 L10.322,9.029 C10.713,9.42 10.713,10.053 10.322,10.443 C10.127,10.639 9.871,10.736 9.615,10.736 C9.359,10.736 9.104,10.639 8.908,10.443 L7.52,9.055 C6.312,10.352 5.226,11.763 4.279,13.271 L5.983,14.255 C6.462,14.531 6.626,15.143 6.35,15.621 C6.164,15.943 5.828,16.121 5.482,16.121 C5.313,16.121 5.141,16.078 4.983,15.987 L3.274,15.001 C2.445,16.557 1.756,18.2 1.23,19.913 L3.144,20.426 C3.678,20.568 3.994,21.117 3.852,21.651 C3.732,22.098 3.328,22.392 2.887,22.392 L2.627,22.357 L0.718,21.846 C0.326,23.551 0.089,25.314 0.025,27.121 L4,27.121 C4.553,27.121 5,27.568 5,28.121 C5,28.674 4.553,29.121 4,29.121 L0.025,29.121 C0.089,30.928 0.326,32.691 0.718,34.396 L2.627,33.885 C3.161,33.74 3.71,34.058 3.852,34.592 C3.994,35.125 3.678,35.674 3.144,35.817 L1.23,36.329 C1.756,38.043 2.445,39.685 3.274,41.242 L4.983,40.255 C5.461,39.979 6.072,40.142 6.35,40.621 C6.626,41.1 6.462,41.711 5.983,41.987 L4.279,42.972 C5.226,44.479 6.312,45.89 7.52,47.187 L8.908,45.799 C9.299,45.408 9.932,45.408 10.322,45.799 C10.713,46.19 10.713,46.822 10.322,47.213 L8.934,48.601 C10.231,49.809 11.642,50.895 13.15,51.842 L14.134,50.138 C14.411,49.659 15.022,49.495 15.5,49.772 C15.979,50.048 16.143,50.659 15.866,51.138 L14.88,52.847 C16.436,53.676 18.078,54.365 19.792,54.891 L20.305,52.977 C20.447,52.442 20.996,52.127 21.529,52.27 C22.062,52.412 22.379,52.961 22.236,53.494 L21.725,55.403 C23.43,55.796 25.193,56.032 27,56.096 L27,52.121 C27,51.568 27.447,51.121 28,51.121 C28.553,51.121 29,51.568 29,52.121 L29,56.096 C30.807,56.032 32.57,55.796 34.275,55.403 L33.764,53.494 C33.621,52.961 33.937,52.412 34.471,52.27 C35.006,52.126 35.553,52.442 35.695,52.977 L36.208,54.891 C37.922,54.365 39.564,53.676 41.12,52.847 L40.134,51.138 C39.857,50.659 40.021,50.048 40.5,49.772 C40.977,49.495 41.589,49.659 41.866,50.138 L42.85,51.842 C44.358,50.895 45.769,49.809 47.066,48.601 L45.678,47.213 C45.287,46.822 45.287,46.19 45.678,45.799 C46.068,45.408 46.701,45.408 47.092,45.799 L48.48,47.187 C49.688,45.89 50.774,44.479 51.721,42.972 L50.017,41.987 C49.538,41.711 49.374,41.1 49.65,40.621 C49.927,40.142 50.539,39.979 51.017,40.255 L52.726,41.242 C53.555,39.685 54.244,38.043 54.77,36.329 L52.856,35.817 C52.322,35.674 52.006,35.125 52.148,34.592 C52.291,34.058 52.841,33.742 53.373,33.885 L55.282,34.396 C55.674,32.691 55.911,30.928 55.975,29.121 L52,29.121 C51.447,29.121 51,28.674 51,28.121 L51,28.121 Z M28,49.121 C23.589,49.121 20,45.532 20,41.121 C20,36.71 23.589,33.121 28,33.121 C32.411,33.121 36,36.71 36,41.121 C36,45.532 32.411,49.121 28,49.121 L28,49.121 Z M39,29 L31.858,29 C31.411,30.72 29.859,32.121 28,32.121 C25.794,32.121 24,30.327 24,28.121 C24,26.263 25.279,24.71 27,24.263 L27,11.121 C27,10.568 27.447,10.121 28,10.121 C28.553,10.121 29,10.568 29,11.121 L29,24.263 C30.399,24.627 31.495,25.601 31.858,27 L39,27 C39.553,27 40,27.447 40,28 C40,28.553 39.553,29 39,29 L39,29 Z" id="Fill-336" sketch:type="MSShapeGroup"></path>
            </g>
        </g>
    </g>
</svg>