<?xml version="1.0" encoding="UTF-8" standalone="no"?>
<svg width="58px" height="60px" viewBox="0 0 58 60" version="1.1" xmlns="http://www.w3.org/2000/svg" xmlns:xlink="http://www.w3.org/1999/xlink" xmlns:sketch="http://www.bohemiancoding.com/sketch/ns">
    <!-- Generator: Sketch 3.2.2 (9983) - http://www.bohemiancoding.com/sketch -->
    <title>77 - Alarm Clock (Solid)</title>
    <desc>Created with Sketch.</desc>
    <defs></defs>
    <g id="Page-1" stroke="none" stroke-width="1" fill="none" fill-rule="evenodd" sketch:type="MSPage">
        <g id="Icons" sketch:type="MSArtboardGroup" transform="translate(-481.000000, -3958.000000)" fill="#1A1718">
            <g id="77---Alarm-Clock-(Solid)" sketch:type="MSLayerGroup" transform="translate(481.000000, 3958.000000)">
                <path d="M45.82,20.255 L46.646,19.778 C45.018,17.254 42.867,15.104 40.343,13.475 L39.866,14.301 C39.681,14.621 39.345,14.801 38.999,14.801 C38.83,14.801 38.658,14.758 38.5,14.667 C38.022,14.391 37.858,13.779 38.134,13.301 L38.612,12.472 C36.01,11.125 33.092,10.318 30,10.172 L30,11.121 C30,11.674 29.552,12.121 29,12.121 C28.448,12.121 28,11.674 28,11.121 L28,10.172 L25.76,10.543 C23.926,10.847 22.131,11.354 20.41,12.055 L19.388,12.472 L19.866,13.301 C20.142,13.779 19.978,14.391 19.5,14.667 C19.342,14.758 19.17,14.801 19.001,14.801 C18.655,14.801 18.319,14.621 18.134,14.301 L17.657,13.475 C15.133,15.104 12.983,17.254 11.354,19.778 L12.18,20.255 C12.658,20.531 12.822,21.142 12.546,21.621 C12.36,21.942 12.024,22.121 11.679,22.121 C11.509,22.121 11.337,22.078 11.18,21.987 L10.351,21.509 C9.003,24.112 8.197,27.029 8.051,30.121 L9,30.121 C9.552,30.121 10,30.568 10,31.121 C10,31.674 9.552,32.121 9,32.121 L8.051,32.121 C8.197,35.213 9.003,38.13 10.351,40.733 L11.18,40.255 C11.659,39.976 12.269,40.144 12.546,40.621 C12.822,41.099 12.658,41.711 12.18,41.987 L11.354,42.464 C12.983,44.988 15.133,47.139 17.657,48.767 L18.134,47.941 C18.41,47.464 19.019,47.299 19.5,47.575 C19.978,47.851 20.142,48.463 19.866,48.941 L19.388,49.771 C21.991,51.118 24.908,51.924 28,52.07 L28,51.121 C28,50.568 28.448,50.121 29,50.121 C29.552,50.121 30,50.568 30,51.121 L30,52.07 C33.092,51.924 36.01,51.118 38.612,49.771 L38.134,48.941 C37.858,48.463 38.022,47.851 38.5,47.575 C38.979,47.299 39.589,47.464 39.866,47.941 L40.343,48.767 C42.867,47.139 45.018,44.988 46.646,42.464 L45.82,41.987 C45.342,41.711 45.178,41.099 45.454,40.621 C45.73,40.144 46.34,39.976 46.82,40.255 L47.649,40.733 C48.997,38.13 49.803,35.213 49.949,32.121 L49,32.121 C48.448,32.121 48,31.674 48,31.121 C48,30.568 48.448,30.121 49,30.121 L49.949,30.121 C49.803,27.029 48.997,24.112 47.649,21.509 L46.82,21.987 C46.663,22.078 46.491,22.121 46.321,22.121 C45.976,22.121 45.64,21.942 45.454,21.621 C45.178,21.142 45.342,20.531 45.82,20.255 L45.82,20.255 Z M40,32.121 L32.858,32.121 C32.411,33.841 30.858,35.121 29,35.121 C26.794,35.121 25,33.327 25,31.121 C25,29.262 26.28,27.71 28,27.263 L28,17.121 C28,16.568 28.448,16.121 29,16.121 C29.552,16.121 30,16.568 30,17.121 L30,27.263 C31.399,27.627 32.494,28.722 32.858,30.121 L40,30.121 C40.552,30.121 41,30.568 41,31.121 C41,31.674 40.552,32.121 40,32.121 L40,32.121 Z" id="Fill-296" sketch:type="MSShapeGroup"></path>
                <path d="M29,29.121 C27.897,29.121 27,30.019 27,31.121 C27,32.224 27.897,33.121 29,33.121 C30.103,33.121 31,32.224 31,31.121 C31,30.019 30.103,29.121 29,29.121" id="Fill-297" sketch:type="MSShapeGroup"></path>
                <path d="M50.111,10.732 L54.207,14.828 C54.395,15.016 54.649,15.121 54.914,15.121 C55.179,15.121 55.434,15.016 55.621,14.828 C58.788,11.662 58.788,6.509 55.621,3.343 C54.087,1.81 52.048,0.965 49.878,0.965 C47.709,0.965 45.67,1.81 44.136,3.343 C43.949,3.53 43.843,3.784 43.843,4.05 C43.843,4.316 43.949,4.569 44.136,4.757 L48.697,9.318 L46.998,11.017 C42.218,6.733 35.909,4.121 29,4.121 C22.091,4.121 15.782,6.733 11.002,11.017 L9.303,9.318 L13.864,4.757 C14.051,4.569 14.157,4.316 14.157,4.05 C14.157,3.784 14.051,3.53 13.864,3.343 C12.33,1.81 10.291,0.965 8.122,0.965 C5.952,0.965 3.913,1.81 2.379,3.343 C-0.788,6.509 -0.788,11.662 2.379,14.828 C2.566,15.016 2.821,15.121 3.086,15.121 C3.351,15.121 3.605,15.016 3.793,14.828 L7.889,10.732 L9.565,12.408 C4.886,17.265 2,23.861 2,31.121 C2,41.019 7.357,49.685 15.321,54.386 L12.293,57.414 C11.902,57.805 11.902,58.438 12.293,58.828 C12.488,59.024 12.744,59.121 13,59.121 C13.256,59.121 13.512,59.024 13.707,58.828 L17.157,55.379 C20.735,57.133 24.754,58.121 29,58.121 C33.246,58.121 37.265,57.133 40.843,55.379 L44.293,58.828 C44.488,59.024 44.744,59.121 45,59.121 C45.256,59.121 45.512,59.024 45.707,58.828 C46.098,58.438 46.098,57.805 45.707,57.414 L42.679,54.386 C50.643,49.685 56,41.019 56,31.121 C56,23.861 53.114,17.265 48.435,12.408 L50.111,10.732 L50.111,10.732 Z M48.881,19.578 L48.919,19.621 L48.937,19.676 C50.881,23.049 52,26.956 52,31.121 C52,35.287 50.881,39.193 48.937,42.566 L48.919,42.621 L48.868,42.687 C46.858,46.126 43.984,48.997 40.543,51.002 L40.5,51.04 L40.42,51.073 C37.052,53.008 33.155,54.121 29,54.121 C24.845,54.121 20.948,53.008 17.58,51.073 L17.5,51.04 L17.457,51.002 C14.016,48.997 11.142,46.126 9.132,42.687 L9.081,42.621 L9.063,42.566 C7.119,39.193 6,35.287 6,31.121 C6,26.956 7.119,23.049 9.063,19.676 L9.081,19.621 L9.119,19.578 C11.129,16.13 14.008,13.25 17.457,11.24 L17.5,11.202 L17.555,11.184 C20.929,9.24 24.835,8.121 29,8.121 C33.165,8.121 37.072,9.24 40.445,11.184 L40.5,11.202 L40.543,11.24 C43.992,13.25 46.871,16.13 48.881,19.578 L48.881,19.578 Z" id="Fill-298" sketch:type="MSShapeGroup"></path>
            </g>
        </g>
    </g>
</svg>