<?xml version="1.0" encoding="UTF-8" standalone="no"?>
<svg width="58px" height="60px" viewBox="0 0 58 60" version="1.1" xmlns="http://www.w3.org/2000/svg" xmlns:xlink="http://www.w3.org/1999/xlink" xmlns:sketch="http://www.bohemiancoding.com/sketch/ns">
    <!-- Generator: Sketch 3.2.2 (9983) - http://www.bohemiancoding.com/sketch -->
    <title>78 - Alarm Clock (Solid)</title>
    <desc>Created with Sketch.</desc>
    <defs></defs>
    <g id="Page-1" stroke="none" stroke-width="1" fill="none" fill-rule="evenodd" sketch:type="MSPage">
        <g id="Icons" sketch:type="MSArtboardGroup" transform="translate(-361.000000, -3958.000000)" fill="#000000">
            <g id="78---Alarm-Clock-(Solid)" sketch:type="MSLayerGroup" transform="translate(361.000000, 3958.000000)">
                <path d="M50.111,10.732 L54.207,14.828 C54.395,15.016 54.649,15.121 54.914,15.121 C55.179,15.121 55.434,15.016 55.621,14.828 C58.788,11.662 58.788,6.509 55.621,3.343 C54.087,1.81 52.048,0.965 49.878,0.965 C47.71,0.965 45.67,1.81 44.136,3.343 C43.949,3.53 43.843,3.784 43.843,4.05 C43.843,4.316 43.949,4.569 44.136,4.757 L48.697,9.318 L46.998,11.017 C42.218,6.733 35.909,4.121 29,4.121 C22.091,4.121 15.782,6.733 11.002,11.017 L9.303,9.318 L13.864,4.757 C14.051,4.569 14.157,4.316 14.157,4.05 C14.157,3.784 14.051,3.53 13.864,3.343 C12.33,1.81 10.291,0.965 8.122,0.965 C5.952,0.965 3.913,1.81 2.379,3.343 C-0.788,6.509 -0.788,11.662 2.379,14.828 C2.566,15.016 2.821,15.121 3.086,15.121 C3.351,15.121 3.606,15.016 3.793,14.828 L7.889,10.732 L9.565,12.408 C4.886,17.265 2,23.861 2,31.121 C2,41.019 7.357,49.685 15.321,54.386 L12.293,57.414 C11.902,57.805 11.902,58.438 12.293,58.828 C12.488,59.024 12.744,59.121 13,59.121 C13.256,59.121 13.512,59.024 13.707,58.828 L17.157,55.379 C20.735,57.133 24.754,58.121 29,58.121 C33.246,58.121 37.265,57.133 40.843,55.379 L44.293,58.828 C44.488,59.024 44.744,59.121 45,59.121 C45.256,59.121 45.512,59.024 45.707,58.828 C46.098,58.438 46.098,57.805 45.707,57.414 L42.679,54.386 C50.643,49.685 56,41.019 56,31.121 C56,23.861 53.114,17.265 48.435,12.408 L50.111,10.732 L50.111,10.732 Z M8,32 L7,32 C6.448,32 6,31.553 6,31 C6,30.447 6.448,30 7,30 L8,30 C8.552,30 9,30.447 9,31 C9,31.553 8.552,32 8,32 L8,32 Z M14.858,46.557 L14.151,47.264 C13.956,47.459 13.7,47.557 13.444,47.557 C13.188,47.557 12.932,47.459 12.737,47.264 C12.346,46.873 12.346,46.24 12.737,45.85 L13.444,45.142 C13.835,44.752 14.467,44.752 14.858,45.142 C15.249,45.533 15.249,46.166 14.858,46.557 L14.858,46.557 Z M14.858,16.857 C14.663,17.053 14.407,17.15 14.151,17.15 C13.895,17.15 13.639,17.053 13.444,16.857 L12.737,16.15 C12.346,15.76 12.346,15.127 12.737,14.736 C13.127,14.346 13.76,14.346 14.151,14.736 L14.858,15.443 C15.249,15.834 15.249,16.467 14.858,16.857 L14.858,16.857 Z M28,9 C28,8.447 28.448,8 29,8 C29.552,8 30,8.447 30,9 L30,10 C30,10.553 29.552,11 29,11 C28.448,11 28,10.553 28,10 L28,9 L28,9 Z M30,53 C30,53.553 29.552,54 29,54 C28.448,54 28,53.553 28,53 L28,52 C28,51.447 28.448,51 29,51 C29.552,51 30,51.447 30,52 L30,53 L30,53 Z M40,32.121 L32.858,32.121 C32.411,33.841 30.858,35.121 29,35.121 C26.794,35.121 25,33.327 25,31.121 C25,29.262 26.28,27.71 28,27.263 L28,17.121 C28,16.568 28.448,16.121 29,16.121 C29.552,16.121 30,16.568 30,17.121 L30,27.263 C31.399,27.627 32.494,28.722 32.858,30.121 L40,30.121 C40.552,30.121 41,30.568 41,31.121 C41,31.674 40.552,32.121 40,32.121 L40,32.121 Z M45.263,47.264 C45.068,47.459 44.812,47.557 44.556,47.557 C44.3,47.557 44.044,47.459 43.849,47.264 L43.142,46.557 C42.752,46.166 42.752,45.533 43.142,45.142 C43.533,44.752 44.165,44.752 44.556,45.142 L45.263,45.85 C45.654,46.24 45.654,46.873 45.263,47.264 L45.263,47.264 Z M45.263,16.15 L44.556,16.857 C44.361,17.053 44.105,17.15 43.849,17.15 C43.593,17.15 43.337,17.053 43.142,16.857 C42.752,16.467 42.752,15.834 43.142,15.443 L43.849,14.736 C44.24,14.346 44.873,14.346 45.263,14.736 C45.654,15.127 45.654,15.76 45.263,16.15 L45.263,16.15 Z M50,30 L51,30 C51.552,30 52,30.447 52,31 C52,31.553 51.552,32 51,32 L50,32 C49.448,32 49,31.553 49,31 C49,30.447 49.448,30 50,30 L50,30 Z" id="Fill-364" sketch:type="MSShapeGroup"></path>
                <path d="M29,29.121 C27.897,29.121 27,30.019 27,31.121 C27,32.224 27.897,33.121 29,33.121 C30.103,33.121 31,32.224 31,31.121 C31,30.019 30.103,29.121 29,29.121" id="Fill-365" sketch:type="MSShapeGroup"></path>
            </g>
        </g>
    </g>
</svg>