<?xml version="1.0" encoding="UTF-8" standalone="no"?>
<svg width="60px" height="61px" viewBox="0 0 60 61" version="1.1" xmlns="http://www.w3.org/2000/svg" xmlns:xlink="http://www.w3.org/1999/xlink" xmlns:sketch="http://www.bohemiancoding.com/sketch/ns">
    <!-- Generator: Sketch 3.2.2 (9983) - http://www.bohemiancoding.com/sketch -->
    <title>79 - Clock (Solid)</title>
    <desc>Created with Sketch.</desc>
    <defs></defs>
    <g id="Page-1" stroke="none" stroke-width="1" fill="none" fill-rule="evenodd" sketch:type="MSPage">
        <g id="Icons" sketch:type="MSArtboardGroup" transform="translate(-240.000000, -3957.000000)" fill="#1A1718">
            <g id="79---Clock-(Solid)" sketch:type="MSLayerGroup" transform="translate(240.000000, 3957.000000)">
                <path d="M30,28 C28.897,28 28,28.897 28,30 C28,31.103 28.897,32 30,32 C31.103,32 32,31.103 32,30 C32,28.897 31.103,28 30,28" id="Fill-1174" sketch:type="MSShapeGroup"></path>
                <path d="M30,0.121 C13.458,0.121 0,13.579 0,30.121 C0,46.663 13.458,60.121 30,60.121 C46.542,60.121 60,46.663 60,30.121 C60,13.579 46.542,0.121 30,0.121 L30,0.121 Z M29,8 C29,7.447 29.448,7 30,7 C30.552,7 31,7.447 31,8 L31,9 C31,9.553 30.552,10 30,10 C29.448,10 29,9.553 29,9 L29,8 L29,8 Z M9,31 L8,31 C7.448,31 7,30.553 7,30 C7,29.447 7.448,29 8,29 L9,29 C9.552,29 10,29.447 10,30 C10,30.553 9.552,31 9,31 L9,31 Z M15.858,45.557 L15.151,46.264 C14.956,46.459 14.7,46.557 14.444,46.557 C14.188,46.557 13.932,46.459 13.737,46.264 C13.346,45.873 13.346,45.24 13.737,44.85 L14.444,44.143 C14.835,43.752 15.467,43.752 15.858,44.143 C16.249,44.533 16.249,45.166 15.858,45.557 L15.858,45.557 Z M15.858,15.858 C15.663,16.053 15.407,16.151 15.151,16.151 C14.895,16.151 14.639,16.053 14.444,15.858 L13.737,15.15 C13.346,14.76 13.346,14.127 13.737,13.736 C14.127,13.346 14.76,13.346 15.151,13.736 L15.858,14.443 C16.249,14.834 16.249,15.467 15.858,15.858 L15.858,15.858 Z M31,52 C31,52.553 30.552,53 30,53 C29.448,53 29,52.553 29,52 L29,51 C29,50.448 29.448,50 30,50 C30.552,50 31,50.448 31,51 L31,52 L31,52 Z M30,34 C28.142,34 26.589,32.72 26.142,31 L19,31 C18.448,31 18,30.553 18,30 C18,29.447 18.448,29 19,29 L26.142,29 C26.506,27.601 27.601,26.506 29,26.142 L29,16 C29,15.447 29.448,15 30,15 C30.552,15 31,15.447 31,16 L31,26.142 C32.72,26.589 34,28.141 34,30 C34,32.206 32.206,34 30,34 L30,34 Z M46.263,46.264 C46.068,46.459 45.812,46.557 45.556,46.557 C45.3,46.557 45.044,46.459 44.849,46.264 L44.142,45.557 C43.751,45.166 43.751,44.533 44.142,44.143 C44.533,43.752 45.166,43.752 45.556,44.143 L46.263,44.85 C46.654,45.24 46.654,45.873 46.263,46.264 L46.263,46.264 Z M46.263,15.15 L45.556,15.858 C45.361,16.053 45.105,16.151 44.849,16.151 C44.593,16.151 44.337,16.053 44.142,15.858 C43.751,15.467 43.751,14.834 44.142,14.443 L44.849,13.736 C45.24,13.346 45.873,13.346 46.263,13.736 C46.654,14.127 46.654,14.76 46.263,15.15 L46.263,15.15 Z M52,31 L51,31 C50.448,31 50,30.553 50,30 C50,29.447 50.448,29 51,29 L52,29 C52.552,29 53,29.447 53,30 C53,30.553 52.552,31 52,31 L52,31 Z" id="Fill-1175" sketch:type="MSShapeGroup"></path>
            </g>
        </g>
    </g>
</svg>