<?xml version="1.0" encoding="UTF-8" standalone="no"?>
<svg width="60px" height="60px" viewBox="0 0 60 60" version="1.1" xmlns="http://www.w3.org/2000/svg" xmlns:xlink="http://www.w3.org/1999/xlink" xmlns:sketch="http://www.bohemiancoding.com/sketch/ns">
    <!-- Generator: Sketch 3.2.2 (9983) - http://www.bohemiancoding.com/sketch -->
    <title>8 - Spotlight (Solid)</title>
    <desc>Created with Sketch.</desc>
    <defs></defs>
    <g id="Page-1" stroke="none" stroke-width="1" fill="none" fill-rule="evenodd" sketch:type="MSPage">
        <g id="Icons" sketch:type="MSArtboardGroup" transform="translate(-360.000000, -4797.000000)" fill="#1A1718">
            <g id="8---Spotlight-(Solid)" sketch:type="MSLayerGroup" transform="translate(360.000000, 4796.000000)">
                <path d="M53.595,49.427 C49.268,42.477 44.94,35.528 40.613,28.578 L31.138,36.89 C38.244,43.124 45.351,49.357 52.457,55.591 C54.063,56.999 55.668,58.408 57.274,59.817 C57.607,60.109 57.94,60.402 58.274,60.693 C59.153,61.464 60.476,60.478 59.823,59.43 C57.747,56.095 55.671,52.761 53.595,49.427" id="Fill-1" sketch:type="MSShapeGroup"></path>
                <path d="M1.987,11.319 C2.628,11.963 3.354,12.518 4.037,13.118 C6.205,15.02 8.373,16.921 10.541,18.822 C13.376,21.31 16.212,23.797 19.048,26.285 L29.117,10.113 C28.493,9.112 27.87,8.111 27.247,7.11 C26.641,6.138 26.258,5.122 25.378,4.328 C23.449,2.588 20.723,1.802 18.218,1.379 C14.936,0.824 11.488,0.848 8.219,1.48 C5.813,1.945 3.18,2.769 1.39,4.531 C0.752,5.158 0.238,5.937 0.065,6.827 C-0.04,7.367 -0.016,7.93 0.137,8.459 C0.313,9.072 0.969,10.297 1.987,11.319 L1.987,11.319 Z M10.632,3.147 C11.584,3.047 12.542,3 13.5,3 C16.137,3 18.849,3.324 21.327,4.265 C22.617,4.756 24.462,5.575 24.923,7.024 C25.337,8.322 23.982,9.371 23.014,9.94 C21.024,11.109 18.639,11.613 16.368,11.853 C11.866,12.327 5.95,12.035 2.496,8.723 C-0.384,5.121 8.857,3.335 10.632,3.147 L10.632,3.147 Z" id="Fill-2" sketch:type="MSShapeGroup"></path>
                <path d="M60,7.5 C60,3.17 53.548,1.545 50.294,1.24 C45.391,0.781 39.531,0.891 35.465,3.668 C34.131,4.579 33.568,5.802 32.763,7.095 C32.041,8.254 31.32,9.412 30.598,10.572 C24.368,20.577 18.139,30.582 11.909,40.587 C9.028,45.215 6.146,49.843 3.265,54.47 C2.443,55.791 1.62,57.112 0.797,58.433 C0.611,58.733 0.424,59.033 0.237,59.333 C-0.35,60.276 0.678,61.61 1.66,60.752 C3.327,59.616 4.81,57.989 6.323,56.661 C10.16,53.295 13.998,49.929 17.836,46.563 C27.411,38.163 36.986,29.764 46.562,21.364 C49.621,18.68 52.681,15.996 55.74,13.313 L57.704,11.59 C58.417,10.965 58.985,10.201 59.461,9.38 C59.464,9.376 59.466,9.372 59.469,9.367 C59.801,8.801 60,8.16 60,7.5 L60,7.5 Z M46.5,3 C49.12,3 51.812,3.32 54.276,4.248 C55.575,4.737 57.398,5.543 57.897,6.978 C58.606,9.017 55.321,10.382 53.912,10.876 C51.671,11.664 49.26,11.96 46.894,11.997 C44.212,12.039 41.45,11.736 38.915,10.824 C37.566,10.339 35.694,9.546 35.119,8.096 C34.618,6.829 35.85,5.764 36.808,5.167 C38.729,3.972 41.075,3.45 43.295,3.185 C44.358,3.058 45.429,3 46.5,3 L46.5,3 Z" id="Fill-3" sketch:type="MSShapeGroup"></path>
            </g>
        </g>
    </g>
</svg>