<?xml version="1.0" encoding="UTF-8" standalone="no"?>
<svg width="60px" height="60px" viewBox="0 0 60 60" version="1.1" xmlns="http://www.w3.org/2000/svg" xmlns:xlink="http://www.w3.org/1999/xlink" xmlns:sketch="http://www.bohemiancoding.com/sketch/ns">
    <!-- Generator: Sketch 3.2.2 (9983) - http://www.bohemiancoding.com/sketch -->
    <title>80 - Clock (Solid)</title>
    <desc>Created with Sketch.</desc>
    <defs></defs>
    <g id="Page-1" stroke="none" stroke-width="1" fill="none" fill-rule="evenodd" sketch:type="MSPage">
        <g id="Icons" sketch:type="MSArtboardGroup" transform="translate(-120.000000, -3957.000000)" fill="#1A1718">
            <g id="80---Clock-(Solid)" sketch:type="MSLayerGroup" transform="translate(120.000000, 3957.000000)">
                <path d="M30,28 C28.897,28 28,28.897 28,30 C28,31.103 28.897,32 30,32 C31.103,32 32,31.103 32,30 C32,28.897 31.103,28 30,28" id="Fill-1172" sketch:type="MSShapeGroup"></path>
                <path d="M0,60 L60,60 L60,0 L0,0 L0,60 Z M49.586,9 L50.293,8.293 C50.684,7.902 51.316,7.902 51.707,8.293 C52.098,8.683 52.098,9.316 51.707,9.707 L51,10.414 C50.805,10.609 50.549,10.707 50.293,10.707 C50.037,10.707 49.781,10.609 49.586,10.414 C49.195,10.023 49.195,9.391 49.586,9 L49.586,9 Z M29,8 C29,7.447 29.448,7 30,7 C30.552,7 31,7.447 31,8 L31,9 C31,9.553 30.552,10 30,10 C29.448,10 29,9.553 29,9 L29,8 L29,8 Z M8.086,8.086 C8.477,7.695 9.109,7.695 9.5,8.086 L10.207,8.793 C10.598,9.184 10.598,9.817 10.207,10.207 C10.012,10.402 9.756,10.5 9.5,10.5 C9.244,10.5 8.988,10.402 8.793,10.207 L8.086,9.5 C7.695,9.109 7.695,8.477 8.086,8.086 L8.086,8.086 Z M7,30 C7,29.447 7.448,29 8,29 L9,29 C9.552,29 10,29.447 10,30 C10,30.553 9.552,31 9,31 L8,31 C7.448,31 7,30.553 7,30 L7,30 Z M10.56,50.853 L9.854,51.561 C9.658,51.756 9.402,51.854 9.146,51.854 C8.891,51.854 8.635,51.756 8.44,51.561 C8.049,51.17 8.049,50.537 8.44,50.147 L9.146,49.44 C9.537,49.049 10.17,49.049 10.56,49.44 C10.951,49.83 10.951,50.463 10.56,50.853 L10.56,50.853 Z M31,52 C31,52.553 30.552,53 30,53 C29.448,53 29,52.553 29,52 L29,51 C29,50.448 29.448,50 30,50 C30.552,50 31,50.448 31,51 L31,52 L31,52 Z M30,34 C28.142,34 26.589,32.72 26.142,31 L19,31 C18.448,31 18,30.553 18,30 C18,29.447 18.448,29 19,29 L26.142,29 C26.506,27.601 27.601,26.506 29,26.142 L29,16 C29,15.447 29.448,15 30,15 C30.552,15 31,15.447 31,16 L31,26.142 C32.72,26.589 34,28.141 34,30 C34,32.206 32.206,34 30,34 L30,34 Z M51.561,51.561 C51.365,51.756 51.109,51.854 50.854,51.854 C50.598,51.854 50.342,51.756 50.147,51.561 L49.44,50.853 C49.049,50.463 49.049,49.83 49.44,49.44 C49.83,49.049 50.463,49.049 50.854,49.44 L51.561,50.147 C51.951,50.537 51.951,51.17 51.561,51.561 L51.561,51.561 Z M52,31 L51,31 C50.448,31 50,30.553 50,30 C50,29.447 50.448,29 51,29 L52,29 C52.552,29 53,29.447 53,30 C53,30.553 52.552,31 52,31 L52,31 Z" id="Fill-1173" sketch:type="MSShapeGroup"></path>
            </g>
        </g>
    </g>
</svg>