<?xml version="1.0" encoding="UTF-8" standalone="no"?>
<svg width="60px" height="60px" viewBox="0 0 60 60" version="1.1" xmlns="http://www.w3.org/2000/svg" xmlns:xlink="http://www.w3.org/1999/xlink" xmlns:sketch="http://www.bohemiancoding.com/sketch/ns">
    <!-- Generator: Sketch 3.2.2 (9983) - http://www.bohemiancoding.com/sketch -->
    <title>82 - Fax Scan (Solid)</title>
    <desc>Created with Sketch.</desc>
    <defs></defs>
    <g id="Page-1" stroke="none" stroke-width="1" fill="none" fill-rule="evenodd" sketch:type="MSPage">
        <g id="Icons" sketch:type="MSArtboardGroup" transform="translate(-1080.000000, -3837.000000)" fill="#000000">
            <g id="82---Fax-Scan-(Solid)" sketch:type="MSLayerGroup" transform="translate(1080.000000, 3837.000000)">
                <path d="M18,9 L36,9 C36.553,9 37,8.553 37,8 C37,7.447 36.553,7 36,7 L18,7 C17.447,7 17,7.447 17,8 C17,8.553 17.447,9 18,9" id="Fill-354" sketch:type="MSShapeGroup"></path>
                <path d="M42,12 L18,12 C17.447,12 17,12.447 17,13 C17,13.553 17.447,14 18,14 L42,14 C42.553,14 43,13.553 43,13 C43,12.447 42.553,12 42,12" id="Fill-355" sketch:type="MSShapeGroup"></path>
                <path d="M42,43 L18,43 C17.447,43 17,43.447 17,44 C17,44.553 17.447,45 18,45 L42,45 C42.553,45 43,44.553 43,44 C43,43.447 42.553,43 42,43" id="Fill-356" sketch:type="MSShapeGroup"></path>
                <path d="M42,48 L18,48 C17.447,48 17,48.447 17,49 C17,49.553 17.447,50 18,50 L42,50 C42.553,50 43,49.553 43,49 C43,48.447 42.553,48 42,48" id="Fill-357" sketch:type="MSShapeGroup"></path>
                <path d="M51,17 L51,0 L9,0 L9,17 L0,17 L0,51 L6,51 L6,54 L9,54 L9,60 L51,60 L51,54 L54,54 L54,51 L60,51 L60,17 L51,17 L51,17 Z M11,2 L49,2 L49,17 L11,17 L11,2 Z M23,28 L20,28 C19.447,28 19,27.553 19,27 C19,26.447 19.447,26 20,26 L23,26 C23.553,26 24,26.447 24,27 C24,27.553 23.553,28 23,28 L23,28 Z M24,31 C24,31.553 23.553,32 23,32 L20,32 C19.447,32 19,31.553 19,31 C19,30.447 19.447,30 20,30 L23,30 C23.553,30 24,30.447 24,31 L24,31 Z M23,24 L20,24 C19.447,24 19,23.553 19,23 C19,22.447 19.447,22 20,22 L23,22 C23.553,22 24,22.447 24,23 C24,23.553 23.553,24 23,24 L23,24 Z M16,28 L13,28 C12.447,28 12,27.553 12,27 C12,26.447 12.447,26 13,26 L16,26 C16.553,26 17,26.447 17,27 C17,27.553 16.553,28 16,28 L16,28 Z M17,31 C17,31.553 16.553,32 16,32 L13,32 C12.447,32 12,31.553 12,31 C12,30.447 12.447,30 13,30 L16,30 C16.553,30 17,30.447 17,31 L17,31 Z M16,24 L13,24 C12.447,24 12,23.553 12,23 C12,22.447 12.447,22 13,22 L16,22 C16.553,22 17,22.447 17,23 C17,23.553 16.553,24 16,24 L16,24 Z M9,32 L6,32 C5.447,32 5,31.553 5,31 C5,30.447 5.447,30 6,30 L9,30 C9.553,30 10,30.447 10,31 C10,31.553 9.553,32 9,32 L9,32 Z M9,28 L6,28 C5.447,28 5,27.553 5,27 C5,26.447 5.447,26 6,26 L9,26 C9.553,26 10,26.447 10,27 C10,27.553 9.553,28 9,28 L9,28 Z M9,24 L6,24 C5.447,24 5,23.553 5,23 C5,22.447 5.447,22 6,22 L9,22 C9.553,22 10,22.447 10,23 C10,23.553 9.553,24 9,24 L9,24 Z M49,54 L49,58 L11,58 L11,37 L49,37 L49,54 L49,54 Z M50,32 C47.243,32 45,29.757 45,27 C45,24.243 47.243,22 50,22 C52.757,22 55,24.243 55,27 C55,29.757 52.757,32 50,32 L50,32 Z" id="Fill-358" sketch:type="MSShapeGroup"></path>
                <path d="M50,24 C48.346,24 47,25.346 47,27 C47,28.654 48.346,30 50,30 C51.654,30 53,28.654 53,27 C53,25.346 51.654,24 50,24" id="Fill-359" sketch:type="MSShapeGroup"></path>
            </g>
        </g>
    </g>
</svg>