<?xml version="1.0" encoding="UTF-8" standalone="no"?>
<svg width="56px" height="56px" viewBox="0 0 56 56" version="1.1" xmlns="http://www.w3.org/2000/svg" xmlns:xlink="http://www.w3.org/1999/xlink" xmlns:sketch="http://www.bohemiancoding.com/sketch/ns">
    <!-- Generator: Sketch 3.2.2 (9983) - http://www.bohemiancoding.com/sketch -->
    <title>83 - Edit (Solid)</title>
    <desc>Created with Sketch.</desc>
    <defs></defs>
    <g id="Page-1" stroke="none" stroke-width="1" fill="none" fill-rule="evenodd" sketch:type="MSPage">
        <g id="Icons" sketch:type="MSArtboardGroup" transform="translate(-963.000000, -3838.000000)" fill="#1A1718">
            <g id="83---Edit-(Solid)" sketch:type="MSLayerGroup" transform="translate(963.000000, 3838.000000)">
                <path d="M1.269,52.683 L0.773,54.769 L0.751,54.971 L0.747,55.009 C0.748,55.123 0.773,55.234 0.811,55.34 L0.842,55.411 C0.891,55.519 0.952,55.621 1.038,55.707 C1.133,55.802 1.245,55.875 1.366,55.925 C1.487,55.975 1.616,56 1.745,56 L1.977,55.973 L4.062,55.476 L1.269,52.683" id="Fill-1157" sketch:type="MSShapeGroup"></path>
                <path d="M53.364,3.381 C49.855,-0.127 44.146,-0.127 40.636,3.381 L4.573,39.443 L4.531,39.499 L4.474,39.575 L4.349,39.813 L4.32,39.889 L4.308,39.919 L1.813,50.399 L6.346,54.932 L16.826,52.437 L16.904,52.407 L17.002,52.369 L17.204,52.246 L17.275,52.192 L17.302,52.172 L53.364,16.109 C56.873,12.599 56.873,6.89 53.364,3.381 L53.364,3.381 Z M17.904,48.742 L18.257,45.559 L40.636,23.18 C41.026,22.789 41.026,22.156 40.636,21.766 C40.245,21.375 39.612,21.375 39.222,21.766 L16.843,44.145 L12.07,44.675 L12.6,39.902 L34.979,17.524 C35.37,17.133 35.37,16.5 34.979,16.109 C34.589,15.719 33.956,15.719 33.565,16.109 L11.186,38.488 L8.003,38.842 L35.686,11.159 L45.586,21.059 L17.904,48.742 L17.904,48.742 Z M47.001,19.645 L37.1,9.745 L38.514,8.331 L48.415,18.231 L47.001,19.645 L47.001,19.645 Z M49.829,16.817 L39.928,6.916 L41.343,5.502 L51.243,15.402 L49.829,16.817 L49.829,16.817 Z" id="Fill-1158" sketch:type="MSShapeGroup"></path>
            </g>
        </g>
    </g>
</svg>