<?xml version="1.0" encoding="UTF-8" standalone="no"?>
<svg width="46px" height="60px" viewBox="0 0 46 60" version="1.1" xmlns="http://www.w3.org/2000/svg" xmlns:xlink="http://www.w3.org/1999/xlink" xmlns:sketch="http://www.bohemiancoding.com/sketch/ns">
    <!-- Generator: Sketch 3.2.2 (9983) - http://www.bohemiancoding.com/sketch -->
    <title>84 - World-Wide (Solid)</title>
    <desc>Created with Sketch.</desc>
    <defs></defs>
    <g id="Page-1" stroke="none" stroke-width="1" fill="none" fill-rule="evenodd" sketch:type="MSPage">
        <g id="Icons" sketch:type="MSArtboardGroup" transform="translate(-847.000000, -3837.000000)" fill="#161819">
            <g id="84---World-Wide-(Solid)" sketch:type="MSLayerGroup" transform="translate(847.000000, 3837.000000)">
                <path d="M45.988,21 C45.988,13.831 42.372,7.495 36.872,3.704 L36.87,3.689 L36.725,3.594 L36.714,3.587 L36.486,3.438 C36.034,3.141 35.572,2.866 35.102,2.606 C34.936,2.515 34.765,2.436 34.596,2.349 C34.222,2.155 33.844,1.97 33.46,1.8 C33.249,1.707 33.036,1.617 32.821,1.531 C32.426,1.371 32.026,1.226 31.622,1.091 C31.444,1.031 31.27,0.965 31.091,0.911 C30.522,0.738 29.947,0.59 29.365,0.466 C29.195,0.43 29.022,0.404 28.851,0.372 C28.389,0.285 27.924,0.214 27.456,0.158 C27.268,0.136 27.081,0.114 26.891,0.096 C26.26,0.039 25.627,0 24.988,0 C24.341,0 23.699,0.04 23.061,0.098 C22.88,0.114 22.702,0.137 22.522,0.158 C22.034,0.215 21.55,0.29 21.07,0.38 C20.915,0.41 20.759,0.435 20.606,0.468 C19.36,0.732 18.146,1.112 16.97,1.599 C16.848,1.649 16.729,1.703 16.609,1.756 C16.125,1.967 15.649,2.197 15.181,2.445 C15.081,2.498 14.979,2.549 14.88,2.603 C14.307,2.919 13.743,3.252 13.197,3.623 L12.768,3.916 L12.767,3.957 C12.11,4.429 11.485,4.941 10.887,5.484 L8.019,2.615 L7.312,3.322 C2.597,8.037 0,14.314 0,21 C0,27.685 2.597,33.963 7.312,38.678 C11.793,43.159 17.687,45.722 24,45.965 L24,55 L14,55 L14,60 L36,60 L36,55 L26,55 L26,45.965 C32.304,45.716 38.19,43.154 42.666,38.678 L43.373,37.971 L40.504,35.102 C43.899,31.37 45.988,26.43 45.988,21 L45.988,21 Z M12.879,6.372 L12.917,6.489 C13.114,6.914 13.319,7.383 13.536,7.877 C14.909,11.008 16.617,14.903 19.547,16.026 C20.318,16.322 21.057,16.43 21.708,16.525 C22.415,16.627 23.026,16.716 23.619,17.006 L23.694,17.051 C23.896,17.347 23.958,17.806 24.017,18.249 C24.11,18.95 24.227,19.823 25.041,20.254 C25.144,20.308 25.226,20.401 25.207,20.447 C24.089,23.19 25.024,26.335 27.588,28.457 C28.028,28.821 28.446,30.007 26.299,33.849 C25.943,34.487 25.95,35.242 26.318,35.869 C26.69,36.501 27.368,36.894 28.09,36.894 C28.324,36.894 28.558,36.853 28.785,36.772 C30.308,36.23 31.601,35.445 33.106,34.151 C34.153,33.249 34.815,32.301 35.399,31.465 C36.018,30.58 36.552,29.815 37.474,29.136 L37.759,28.891 L37.856,28.605 C37.929,28.392 38.025,28.139 38.131,27.862 C38.83,26.028 40,22.96 37.862,21.849 C37.263,21.538 36.806,20.759 36.276,19.859 C35.836,19.107 35.336,18.257 34.645,17.53 C34.337,17.208 33.91,17.004 33.408,16.937 C32.869,16.868 32.422,16.651 31.988,16.443 C31.483,16.198 30.962,15.945 30.344,15.945 C29.844,15.945 29.364,16.115 28.918,16.451 C28.628,16.67 28.39,16.562 28.273,16.16 C28.056,15.413 27.588,14.935 26.806,14.664 C26.912,14.335 26.894,13.997 26.759,13.704 L26.875,13.722 C28.088,13.901 28.675,13.449 28.955,13.075 C29.339,12.565 29.402,11.859 29.146,10.979 L29.172,10.884 C31.06,8.428 32.562,7.361 35.597,6.319 C35.898,6.216 36.156,6.04 36.368,5.821 C40.984,9.291 43.988,14.794 43.988,21 C43.988,31.476 35.465,40 24.988,40 C14.512,40 5.988,31.476 5.988,21 C5.988,15.122 8.673,9.859 12.879,6.372 L12.879,6.372 Z M8.726,37.264 C4.389,32.927 2,27.151 2,21 C2,15.185 4.135,9.704 8.033,5.459 L9.473,6.898 C6.078,10.63 3.988,15.57 3.988,21 C3.988,32.579 13.409,42 24.988,42 C30.419,42 35.358,39.911 39.09,36.516 L40.529,37.955 C31.517,46.226 17.456,45.993 8.726,37.264 L8.726,37.264 Z" id="Fill-353" sketch:type="MSShapeGroup"></path>
            </g>
        </g>
    </g>
</svg>