<?xml version="1.0" encoding="UTF-8" standalone="no"?>
<svg width="50px" height="52px" viewBox="0 0 50 52" version="1.1" xmlns="http://www.w3.org/2000/svg" xmlns:xlink="http://www.w3.org/1999/xlink" xmlns:sketch="http://www.bohemiancoding.com/sketch/ns">
    <!-- Generator: Sketch 3.2.2 (9983) - http://www.bohemiancoding.com/sketch -->
    <title>86 - Funnel (Solid)</title>
    <desc>Created with Sketch.</desc>
    <defs></defs>
    <g id="Page-1" stroke="none" stroke-width="1" fill="none" fill-rule="evenodd" sketch:type="MSPage">
        <g id="Icons" sketch:type="MSArtboardGroup" transform="translate(-606.000000, -3843.000000)" fill="#000000">
            <g id="86---Funnel-(Solid)" sketch:type="MSLayerGroup" transform="translate(606.000000, 3843.000000)">
                <path d="M50,7 C50,2.404 37.423,0 25,0 C12.577,0 0,2.404 0,7 C0,8.042 0.652,8.97 1.796,9.784 L19,33.326 L19,50.852 L19.063,51.913 L20.063,51.913 L20.519,51.896 L31,41.414 L31,33.326 L48.204,9.784 C49.348,8.97 50,8.042 50,7 L50,7 Z M25,2 C39.04,2 48,4.961 48,7 C48,9.039 39.04,12 25,12 C10.96,12 2,9.039 2,7 C2,4.961 10.96,2 25,2 L25,2 Z" id="Fill-1156" sketch:type="MSShapeGroup"></path>
            </g>
        </g>
    </g>
</svg>