<?xml version="1.0" encoding="UTF-8" standalone="no"?>
<svg width="60px" height="60px" viewBox="0 0 60 60" version="1.1" xmlns="http://www.w3.org/2000/svg" xmlns:xlink="http://www.w3.org/1999/xlink" xmlns:sketch="http://www.bohemiancoding.com/sketch/ns">
    <!-- Generator: Sketch 3.2.2 (9983) - http://www.bohemiancoding.com/sketch -->
    <title>87 - World-Wide (Solid)</title>
    <desc>Created with Sketch.</desc>
    <defs></defs>
    <g id="Page-1" stroke="none" stroke-width="1" fill="none" fill-rule="evenodd" sketch:type="MSPage">
        <g id="Icons" sketch:type="MSArtboardGroup" transform="translate(-480.000000, -3837.000000)" fill="#1A1718">
            <g id="87---World-Wide-(Solid)" sketch:type="MSLayerGroup" transform="translate(480.000000, 3837.000000)">
                <path d="M47.007,5.305 L47.055,5.272 L45.732,4.456 L45.494,4.32 C45.06,4.058 44.619,3.807 44.171,3.566 C43.944,3.444 43.714,3.33 43.484,3.214 C43.147,3.043 42.806,2.88 42.462,2.721 C42.258,2.629 42.057,2.534 41.852,2.445 C41.317,2.215 40.776,1.997 40.226,1.797 C40.113,1.756 39.998,1.721 39.884,1.681 C39.403,1.513 38.917,1.357 38.425,1.213 C38.268,1.167 38.111,1.122 37.953,1.078 C37.409,0.928 36.859,0.791 36.304,0.672 L36.147,0.636 C35.532,0.507 34.91,0.401 34.282,0.31 C34.144,0.291 34.005,0.275 33.866,0.257 C33.375,0.194 32.881,0.143 32.383,0.103 C32.215,0.09 32.048,0.075 31.88,0.065 C31.258,0.026 30.632,0 30,0 C29.317,0 28.642,0.031 27.97,0.076 C27.794,0.088 27.619,0.102 27.444,0.116 C26.812,0.17 26.185,0.238 25.566,0.33 L25.38,0.356 C24.756,0.453 24.141,0.576 23.53,0.711 C23.328,0.755 23.127,0.802 22.926,0.85 C22.365,0.986 21.808,1.135 21.259,1.303 C21.085,1.356 20.914,1.413 20.741,1.469 C20.249,1.629 19.762,1.802 19.282,1.987 C19.061,2.071 18.842,2.157 18.623,2.247 C18.072,2.474 17.525,2.712 16.991,2.97 C16.814,3.056 16.642,3.15 16.467,3.239 C16.049,3.451 15.637,3.672 15.231,3.903 C15.029,4.018 14.826,4.132 14.626,4.251 C14.118,4.556 13.619,4.874 13.131,5.207 L12.926,5.338 L12.381,5.716 L12.385,5.738 C4.887,11.197 0,20.036 0,30 C0,46.542 13.458,60 30,60 C46.542,60 60,46.542 60,30 C60,19.769 54.848,10.722 47.007,5.305 L47.007,5.305 Z M30,58 C14.561,58 2,45.439 2,30 C2,20.923 6.345,12.844 13.061,7.725 C13.238,8.122 13.419,8.531 13.607,8.96 C15.574,13.445 18.022,19.026 22.115,20.596 C23.192,21.009 24.197,21.155 25.168,21.296 C26.194,21.445 27.163,21.586 28.105,22.048 L28.378,22.257 C28.735,22.781 28.832,23.505 28.925,24.205 C29.054,25.171 29.2,26.266 30.178,26.783 C30.497,26.952 30.774,27.292 30.631,27.644 C29.078,31.455 30.389,35.835 33.972,38.801 C34.89,39.561 35.328,41.642 32.2,47.243 C31.761,48.029 31.77,48.96 32.223,49.733 C32.682,50.515 33.52,51 34.41,51 C34.7,51 34.989,50.949 35.27,50.85 C37.435,50.08 39.276,48.962 41.427,47.11 C42.912,45.834 43.819,44.535 44.697,43.278 C45.583,42.01 46.42,40.81 47.794,39.799 C47.994,39.653 48.142,39.454 48.221,39.224 C48.329,38.907 48.471,38.535 48.627,38.126 C49.655,35.43 51.209,31.356 48.453,29.922 C47.462,29.407 46.765,28.22 45.957,26.845 C45.326,25.772 44.612,24.556 43.64,23.534 C43.264,23.14 42.734,22.889 42.11,22.808 C41.25,22.697 40.563,22.364 39.897,22.043 C39.176,21.694 38.495,21.365 37.698,21.365 C37.062,21.365 36.473,21.576 35.896,22.009 C35.204,22.531 34.494,22.232 34.238,21.348 C34.044,20.677 33.639,19.853 32.226,19.417 L32.083,19.286 C32.039,19.197 32.033,19.087 32.079,18.961 C32.254,18.483 32.203,18.01 31.935,17.625 C31.476,16.967 30.602,16.874 29.961,16.869 L29.86,16.611 L29.565,16.084 L28.648,16.104 L28.413,16.242 C28.158,16.391 27.847,16.285 27.594,16.022 C27.383,15.801 27.265,15.505 27.277,15.231 C27.288,15.003 27.302,14.872 27.315,14.798 C27.56,14.726 28.145,14.66 28.713,14.597 L29.32,14.527 L29.467,14.459 C31.085,13.708 31.322,14.04 31.458,14.182 C31.59,14.317 31.893,14.784 31.853,16.192 L31.828,17.079 L32.706,17.209 C32.963,17.247 33.199,17.265 33.414,17.265 C34.47,17.265 35.027,16.819 35.307,16.444 C35.781,15.813 35.848,14.944 35.511,13.791 C35.46,13.616 35.505,13.401 35.627,13.244 C38.392,9.646 40.714,7.989 45.134,6.461 C52.866,11.449 58,20.134 58,30 C58,45.439 45.44,58 30,58 L30,58 Z" id="Fill-674" sketch:type="MSShapeGroup"></path>
            </g>
        </g>
    </g>
</svg>