<?xml version="1.0" encoding="UTF-8" standalone="no"?>
<svg width="49px" height="55px" viewBox="0 0 49 55" version="1.1" xmlns="http://www.w3.org/2000/svg" xmlns:xlink="http://www.w3.org/1999/xlink" xmlns:sketch="http://www.bohemiancoding.com/sketch/ns">
    <!-- Generator: Sketch 3.2.2 (9983) - http://www.bohemiancoding.com/sketch -->
    <title>89 - Alarm (Solid)</title>
    <desc>Created with Sketch.</desc>
    <defs></defs>
    <g id="Page-1" stroke="none" stroke-width="1" fill="none" fill-rule="evenodd" sketch:type="MSPage">
        <g id="Icons" sketch:type="MSArtboardGroup" transform="translate(-246.000000, -3840.000000)" fill="#1A1718">
            <g id="89---Alarm-(Solid)" sketch:type="MSLayerGroup" transform="translate(245.000000, 3840.000000)">
                <path d="M49.046,45.291 C44.387,40.66 42.024,35.179 42.024,29 L42.024,20.006 C42.067,13.148 37.456,8.601 33.494,6.79 C32.377,6.28 31.2,5.902 30,5.612 L30,5 C30,2.243 27.757,0 25,0 C22.243,0 20,2.243 20,5 L20,5.706 C18.921,5.989 17.861,6.335 16.854,6.799 C12.476,8.817 8.04,13.681 8,20 L8,29 C8,35.388 5.744,40.869 1.295,45.291 C1.03,45.555 0.934,45.944 1.046,46.301 C1.159,46.657 1.461,46.922 1.83,46.985 L11.321,48.624 C13.112,48.933 14.736,49.18 16.265,49.382 C18.01,52.804 21.437,55 25.183,55 C28.929,55 32.357,52.802 34.102,49.379 C35.623,49.177 37.24,48.932 39.021,48.624 L48.511,46.985 C48.88,46.922 49.183,46.657 49.295,46.301 C49.408,45.944 49.312,45.555 49.046,45.291 L49.046,45.291 Z M22,5 C22,3.346 23.346,2 25,2 C26.654,2 28,3.346 28,5 L28,5.193 C26.007,4.911 23.976,4.928 22,5.243 L22,5 L22,5 Z M14,21 L13.994,21 C13.441,20.996 12.997,20.546 13,19.994 C13.03,15.313 16.752,12.351 18.948,11.34 C22.796,9.565 27.542,9.567 31.417,11.338 C31.919,11.568 32.14,12.16 31.91,12.663 C31.68,13.165 31.087,13.387 30.585,13.156 C27.231,11.623 23.116,11.619 19.785,13.156 C18.019,13.971 15.023,16.329 15,20.006 C14.997,20.557 14.549,21 14,21 L14,21 Z M31.605,49.678 C30.087,51.739 27.718,53 25.183,53 C22.649,53 20.281,51.74 18.761,49.68 L18.762,49.68 C19.158,49.72 19.542,49.753 19.926,49.786 C20.109,49.802 20.297,49.821 20.478,49.836 C20.618,49.847 20.753,49.854 20.892,49.864 C23.797,50.076 26.474,50.076 29.378,49.868 C29.544,49.856 29.708,49.848 29.876,49.834 C30.094,49.818 30.321,49.795 30.542,49.775 C30.881,49.745 31.218,49.717 31.566,49.681 L31.605,49.678 L31.605,49.678 Z" id="Fill-1166" sketch:type="MSShapeGroup"></path>
            </g>
        </g>
    </g>
</svg>