<?xml version="1.0" encoding="UTF-8" standalone="no"?>
<svg width="60px" height="60px" viewBox="0 0 60 60" version="1.1" xmlns="http://www.w3.org/2000/svg" xmlns:xlink="http://www.w3.org/1999/xlink" xmlns:sketch="http://www.bohemiancoding.com/sketch/ns">
    <!-- Generator: Sketch 3.2.2 (9983) - http://www.bohemiancoding.com/sketch -->
    <title>91 - Settings (Solid)</title>
    <desc>Created with Sketch.</desc>
    <defs></defs>
    <g id="Page-1" stroke="none" stroke-width="1" fill="none" fill-rule="evenodd" sketch:type="MSPage">
        <g id="Icons" sketch:type="MSArtboardGroup" transform="translate(-1200.000000, -3717.000000)" fill="#000000">
            <g id="91---Settings-(Solid)" sketch:type="MSLayerGroup" transform="translate(1200.000000, 3717.000000)">
                <path d="M55,31 L59,31 C59.553,31 60,30.553 60,30 C60,29.447 59.553,29 59,29 L55,29 L54.979,29.004 C54.921,27.498 54.731,25.99 54.394,24.497 L54.407,24.495 L58.271,23.46 C58.804,23.317 59.12,22.769 58.978,22.235 C58.835,21.702 58.288,21.388 57.753,21.528 L53.89,22.563 L53.87,22.573 C53.424,21.146 52.846,19.742 52.127,18.376 L52.15,18.366 L55.614,16.366 C56.093,16.09 56.257,15.479 55.98,15 C55.703,14.521 55.09,14.357 54.614,14.634 L51.15,16.634 L51.125,16.656 C50.301,15.35 49.377,14.143 48.363,13.043 L48.385,13.029 L51.213,10.201 C51.604,9.811 51.604,9.178 51.213,8.787 C50.822,8.396 50.189,8.396 49.799,8.787 L46.971,11.615 L46.956,11.638 C45.831,10.599 44.626,9.673 43.351,8.869 L43.366,8.85 L45.366,5.386 C45.643,4.907 45.479,4.296 45,4.019 C44.522,3.743 43.91,3.905 43.634,4.386 L41.634,7.85 L41.624,7.878 C40.276,7.171 38.871,6.589 37.424,6.139 L37.437,6.11 L38.472,2.247 C38.614,1.714 38.298,1.165 37.765,1.022 C37.234,0.882 36.683,1.196 36.54,1.73 L35.505,5.593 L35.503,5.626 C34.094,5.308 32.66,5.107 31.211,5.036 L31,4.895 L31,1 C31,0.447 30.553,0 30,0 C29.447,0 29,0.447 29,1 L29,4.895 L28.791,5.034 C27.356,5.102 25.92,5.298 24.497,5.62 L24.495,5.593 L23.46,1.73 C23.318,1.195 22.771,0.881 22.235,1.022 C21.702,1.165 21.386,1.714 21.528,2.247 L22.563,6.11 L22.575,6.135 C21.147,6.58 19.744,7.162 18.377,7.881 L18.366,7.85 L16.366,4.386 C16.089,3.905 15.476,3.743 15,4.019 C14.521,4.296 14.357,4.907 14.634,5.386 L16.634,8.85 L16.649,8.87 C15.344,9.693 14.141,10.621 13.042,11.634 L13.029,11.615 L10.201,8.787 C9.811,8.396 9.178,8.396 8.787,8.787 C8.396,9.178 8.396,9.811 8.787,10.201 L11.615,13.029 L11.627,13.037 C10.588,14.161 9.669,15.373 8.865,16.648 L8.85,16.634 L5.386,14.634 C4.908,14.357 4.296,14.521 4.02,15 C3.743,15.479 3.907,16.09 4.386,16.366 L7.85,18.366 L7.871,18.375 C7.165,19.723 6.582,21.128 6.132,22.574 L6.11,22.563 L2.247,21.528 C1.716,21.389 1.165,21.702 1.022,22.235 C0.88,22.769 1.196,23.317 1.729,23.46 L5.593,24.495 L5.617,24.498 C5.283,25.976 5.085,27.484 5.023,29.005 L5,29 L1,29 C0.447,29 0,29.447 0,30 C0,30.553 0.447,31 1,31 L5,31 L5.021,30.996 C5.079,32.502 5.269,34.01 5.607,35.504 L5.593,35.505 L1.729,36.54 C1.196,36.683 0.88,37.232 1.022,37.765 C1.142,38.212 1.546,38.506 1.987,38.506 L2.247,38.472 L6.11,37.437 L6.13,37.427 C6.576,38.854 7.155,40.259 7.874,41.626 L7.85,41.634 L4.386,43.634 C3.907,43.91 3.743,44.522 4.02,45 C4.205,45.321 4.541,45.5 4.887,45.5 C5.057,45.5 5.229,45.457 5.386,45.366 L8.85,43.366 L8.875,43.344 C9.699,44.65 10.623,45.857 11.637,46.957 L11.615,46.971 L8.787,49.799 C8.396,50.189 8.396,50.822 8.787,51.213 C8.982,51.408 9.238,51.506 9.494,51.506 C9.75,51.506 10.006,51.408 10.201,51.213 L13.029,48.385 L13.044,48.362 C14.169,49.401 15.375,50.328 16.65,51.132 L16.634,51.15 L14.634,54.614 C14.357,55.093 14.521,55.704 15,55.98 C15.157,56.071 15.329,56.114 15.499,56.114 C15.845,56.114 16.181,55.936 16.366,55.614 L18.366,52.151 L18.376,52.122 C19.724,52.829 21.13,53.412 22.578,53.861 L22.563,53.89 L21.528,57.753 C21.386,58.286 21.702,58.835 22.235,58.978 L22.495,59.012 C22.937,59.012 23.341,58.718 23.46,58.271 L24.495,54.407 L24.497,54.374 C25.976,54.708 27.484,54.909 29.006,54.971 L29,55 L29,59 C29,59.553 29.447,60 30,60 C30.553,60 31,59.553 31,59 L31,55 L30.995,54.973 C32.501,54.914 34.009,54.718 35.503,54.38 L35.505,54.407 L36.54,58.271 C36.659,58.718 37.063,59.012 37.505,59.012 L37.765,58.978 C38.298,58.835 38.614,58.286 38.472,57.753 L37.437,53.89 L37.424,53.865 C38.852,53.42 40.256,52.838 41.623,52.119 L41.634,52.151 L43.634,55.614 C43.819,55.936 44.155,56.114 44.501,56.114 C44.671,56.114 44.843,56.071 45,55.98 C45.479,55.704 45.643,55.093 45.366,54.614 L43.366,51.15 L43.349,51.131 C44.656,50.307 45.859,49.38 46.958,48.366 L46.971,48.385 L49.799,51.213 C49.994,51.408 50.25,51.506 50.506,51.506 C50.762,51.506 51.018,51.408 51.213,51.213 C51.604,50.822 51.604,50.189 51.213,49.799 L48.385,46.971 L48.373,46.963 C49.412,45.839 50.331,44.627 51.135,43.353 L51.15,43.366 L54.614,45.366 C54.771,45.457 54.943,45.5 55.113,45.5 C55.459,45.5 55.795,45.321 55.98,45 C56.257,44.522 56.093,43.91 55.614,43.634 L52.15,41.634 L52.128,41.626 C52.835,40.278 53.418,38.873 53.868,37.426 L53.89,37.437 L57.753,38.472 L58.013,38.506 C58.454,38.506 58.858,38.212 58.978,37.765 C59.12,37.232 58.804,36.683 58.271,36.54 L54.407,35.505 L54.383,35.504 C54.717,34.025 54.915,32.516 54.977,30.995 L55,31 L55,31 Z M48.187,19.5 C51.707,25.598 51.794,32.739 49.081,38.707 L39.66,33.267 L39.467,33.18 C39.533,32.984 39.603,32.789 39.657,32.588 C40.349,30.009 39.994,27.314 38.659,25.001 C37.215,22.502 34.754,20.789 31.978,20.223 L32,20 L32,9.105 C38.706,9.758 44.785,13.609 48.187,19.5 L48.187,19.5 Z M29.996,24 C32.135,24 34.127,25.15 35.195,27 C35.996,28.388 36.209,30.005 35.795,31.553 C35.38,33.101 34.388,34.394 33,35.195 C32.088,35.722 31.052,36 30.004,36 C27.865,36 25.873,34.851 24.805,33 C24.004,31.612 23.791,29.995 24.205,28.447 C24.62,26.899 25.612,25.605 27,24.805 C27.912,24.278 28.948,24 29.996,24 L29.996,24 Z M19.5,11.814 C22.116,10.303 25.022,9.388 28,9.102 L28,20 L28.022,20.22 C26.968,20.434 25.943,20.799 25.001,21.343 C22.688,22.677 21.034,24.833 20.343,27.412 C19.825,29.342 19.894,31.335 20.521,33.186 L20.341,33.267 L10.901,38.717 C6.455,28.993 10.057,17.266 19.5,11.814 L19.5,11.814 Z M40.5,48.187 C37.307,50.03 33.685,51.004 30.023,51.004 C23.205,51.004 16.821,47.662 12.907,42.178 L22.341,36.731 L22.522,36.601 C24.401,38.724 27.118,40 30.01,40 L30.011,40 C31.753,40 33.479,39.535 34.999,38.657 C35.952,38.108 36.785,37.412 37.493,36.611 L37.66,36.731 L47.085,42.174 C45.393,44.557 43.192,46.632 40.5,48.187 L40.5,48.187 Z" id="Fill-310" sketch:type="MSShapeGroup"></path>
            </g>
        </g>
    </g>
</svg>