<?xml version="1.0" encoding="UTF-8" standalone="no"?>
<svg width="60px" height="60px" viewBox="0 0 60 60" version="1.1" xmlns="http://www.w3.org/2000/svg" xmlns:xlink="http://www.w3.org/1999/xlink" xmlns:sketch="http://www.bohemiancoding.com/sketch/ns">
    <!-- Generator: Sketch 3.2.2 (9983) - http://www.bohemiancoding.com/sketch -->
    <title>92 - Settings (Solid)</title>
    <desc>Created with Sketch.</desc>
    <defs></defs>
    <g id="Page-1" stroke="none" stroke-width="1" fill="none" fill-rule="evenodd" sketch:type="MSPage">
        <g id="Icons" sketch:type="MSArtboardGroup" transform="translate(-1080.000000, -3717.000000)" fill="#000000">
            <g id="92---Settings-(Solid)" sketch:type="MSLayerGroup" transform="translate(1080.000000, 3717.000000)">
                <path d="M31,1 C31,0.447 30.553,0 30,0 C29.447,0 29,0.447 29,1 L29,4 L31,4 L31,1" id="Fill-1132" sketch:type="MSShapeGroup"></path>
                <path d="M31,19.051 C35.077,19.42 38.516,22.021 40.085,25.62 L54.099,20.273 C53.766,19.456 53.402,18.654 52.992,17.88 L55.614,16.366 C56.093,16.09 56.257,15.479 55.981,15 C55.703,14.521 55.09,14.357 54.614,14.634 L51.988,16.15 C51.13,14.793 50.153,13.52 49.067,12.348 L51.213,10.201 C51.604,9.811 51.604,9.178 51.213,8.787 C50.822,8.396 50.189,8.396 49.799,8.787 L47.652,10.933 C46.48,9.847 45.207,8.87 43.85,8.012 L45.366,5.386 C45.643,4.907 45.479,4.296 45,4.019 C44.523,3.743 43.91,3.905 43.634,4.386 L42.12,7.007 C40.714,6.263 39.234,5.64 37.691,5.162 L38.472,2.247 C38.614,1.714 38.298,1.165 37.765,1.022 C37.233,0.882 36.683,1.196 36.54,1.73 L35.757,4.65 C34.218,4.301 32.629,4.087 31,4.025 L31,19.051" id="Fill-1133" sketch:type="MSShapeGroup"></path>
                <path d="M30,21 C25.037,21 21,25.037 21,30 C21,34.963 25.037,39 30,39 C34.963,39 39,34.963 39,30 C39,25.037 34.963,21 30,21 L30,21 Z M30,32 C28.896,32 28,31.104 28,30 C28,28.896 28.896,28 30,28 C31.105,28 32,28.896 32,30 C32,31.104 31.105,32 30,32 L30,32 Z" id="Fill-1134" sketch:type="MSShapeGroup"></path>
                <path d="M59,31 C59.553,31 60,30.553 60,30 C60,29.447 59.553,29 59,29 L55.975,29 C55.913,27.371 55.699,25.782 55.35,24.243 L58.271,23.46 C58.804,23.317 59.12,22.769 58.978,22.235 C58.836,21.702 58.287,21.388 57.753,21.528 L54.838,22.309 L54.782,22.154 L40.708,27.524 C40.893,28.321 41,29.147 41,30 C41,33.293 39.538,36.244 37.239,38.262 L46.063,50.408 C46.608,49.979 47.144,49.538 47.652,49.066 L49.799,51.213 C49.994,51.408 50.25,51.506 50.506,51.506 C50.762,51.506 51.018,51.408 51.213,51.213 C51.604,50.822 51.604,50.189 51.213,49.799 L49.067,47.652 C50.153,46.48 51.13,45.207 51.988,43.85 L54.614,45.366 C54.771,45.457 54.943,45.5 55.113,45.5 C55.459,45.5 55.795,45.321 55.981,45 C56.257,44.522 56.093,43.91 55.614,43.634 L52.992,42.12 C53.737,40.714 54.36,39.234 54.838,37.691 L57.753,38.472 L58.013,38.506 C58.454,38.506 58.858,38.212 58.978,37.765 C59.12,37.232 58.804,36.683 58.271,36.54 L55.35,35.757 C55.699,34.218 55.913,32.629 55.975,31 L59,31" id="Fill-1135" sketch:type="MSShapeGroup"></path>
                <path d="M29,19.051 L29,4.025 C27.371,4.087 25.782,4.301 24.243,4.65 L23.46,1.73 C23.317,1.195 22.77,0.881 22.235,1.022 C21.702,1.165 21.386,1.714 21.528,2.247 L22.309,5.162 C20.766,5.64 19.286,6.263 17.88,7.007 L16.366,4.386 C16.089,3.905 15.476,3.743 15,4.019 C14.521,4.296 14.357,4.907 14.634,5.386 L16.15,8.012 C14.793,8.87 13.52,9.847 12.348,10.933 L10.201,8.787 C9.811,8.396 9.178,8.396 8.787,8.787 C8.397,9.178 8.397,9.811 8.787,10.201 L10.934,12.348 C9.847,13.52 8.87,14.793 8.012,16.15 L5.386,14.634 C4.908,14.357 4.296,14.521 4.02,15 C3.743,15.479 3.907,16.09 4.386,16.366 L7.008,17.88 C6.577,18.693 6.201,19.538 5.856,20.398 L19.893,25.665 C21.454,22.042 24.906,19.422 29,19.051" id="Fill-1136" sketch:type="MSShapeGroup"></path>
                <path d="M2.247,21.528 C1.716,21.389 1.165,21.702 1.023,22.235 C0.88,22.769 1.196,23.317 1.729,23.46 L4.65,24.243 C4.301,25.782 4.087,27.371 4.025,29 L1,29 C0.447,29 0,29.447 0,30 C0,30.553 0.447,31 1,31 L4.025,31 C4.087,32.629 4.301,34.218 4.65,35.757 L1.729,36.54 C1.196,36.683 0.88,37.232 1.023,37.765 C1.142,38.212 1.546,38.506 1.987,38.506 L2.247,38.472 L5.162,37.691 C5.64,39.234 6.263,40.714 7.008,42.12 L4.386,43.634 C3.907,43.91 3.743,44.522 4.02,45 C4.205,45.321 4.541,45.5 4.887,45.5 C5.057,45.5 5.229,45.457 5.386,45.366 L8.012,43.85 C8.87,45.207 9.847,46.48 10.934,47.652 L8.787,49.799 C8.397,50.189 8.397,50.822 8.787,51.213 C8.982,51.408 9.238,51.506 9.494,51.506 C9.75,51.506 10.006,51.408 10.201,51.213 L12.348,49.066 C12.856,49.538 13.392,49.979 13.937,50.408 L22.761,38.262 C20.462,36.244 19,33.293 19,30 C19,29.164 19.102,28.352 19.28,27.568 L5.162,22.309 L2.247,21.528" id="Fill-1137" sketch:type="MSShapeGroup"></path>
                <path d="M43.85,51.988 C44.053,51.86 44.241,51.71 44.44,51.576 L35.622,39.438 C33.974,40.423 32.055,41 30,41 C27.945,41 26.026,40.423 24.378,39.438 L15.56,51.576 C15.759,51.71 15.947,51.86 16.15,51.988 L14.634,54.614 C14.357,55.093 14.521,55.704 15,55.98 C15.157,56.071 15.329,56.114 15.499,56.114 C15.845,56.114 16.181,55.936 16.366,55.614 L17.88,52.992 C19.286,53.736 20.766,54.36 22.309,54.838 L21.528,57.753 C21.386,58.286 21.702,58.835 22.235,58.978 L22.495,59.012 C22.937,59.012 23.341,58.718 23.46,58.271 L24.243,55.35 C25.782,55.699 27.371,55.913 29,55.974 L29,59 C29,59.553 29.447,60 30,60 C30.553,60 31,59.553 31,59 L31,55.974 C32.629,55.913 34.218,55.699 35.757,55.35 L36.54,58.271 C36.659,58.718 37.064,59.012 37.505,59.012 L37.765,58.978 C38.298,58.835 38.614,58.286 38.472,57.753 L37.691,54.838 C39.234,54.36 40.714,53.736 42.12,52.992 L43.634,55.614 C43.819,55.936 44.155,56.114 44.501,56.114 C44.671,56.114 44.843,56.071 45,55.98 C45.479,55.704 45.643,55.093 45.366,54.614 L43.85,51.988" id="Fill-1138" sketch:type="MSShapeGroup"></path>
            </g>
        </g>
    </g>
</svg>