<?xml version="1.0" encoding="UTF-8" standalone="no"?>
<svg width="58px" height="58px" viewBox="0 0 58 58" version="1.1" xmlns="http://www.w3.org/2000/svg" xmlns:xlink="http://www.w3.org/1999/xlink" xmlns:sketch="http://www.bohemiancoding.com/sketch/ns">
    <!-- Generator: Sketch 3.2.2 (9983) - http://www.bohemiancoding.com/sketch -->
    <title>93 - Settings (Solid)</title>
    <desc>Created with Sketch.</desc>
    <defs></defs>
    <g id="Page-1" stroke="none" stroke-width="1" fill="none" fill-rule="evenodd" sketch:type="MSPage">
        <g id="Icons" sketch:type="MSArtboardGroup" transform="translate(-961.000000, -3718.000000)" fill="#000000">
            <g id="93---Settings-(Solid)" sketch:type="MSLayerGroup" transform="translate(961.000000, 3718.000000)">
                <path d="M29,24 C26.243,24 24,26.243 24,29 C24,31.757 26.243,34 29,34 C31.757,34 34,31.757 34,29 C34,26.243 31.757,24 29,24" id="Fill-308" sketch:type="MSShapeGroup"></path>
                <path d="M56,27 L53.913,27 C53.484,21.608 51.339,16.695 48.023,12.805 L49.506,11.322 C50.287,10.541 50.287,9.275 49.506,8.494 C48.725,7.713 47.459,7.713 46.678,8.494 L45.195,9.977 C41.305,6.661 36.392,4.516 31,4.087 L31,2 C31,0.896 30.105,0 29,0 C27.896,0 27,0.896 27,2 L27,4.087 C21.608,4.516 16.695,6.661 12.805,9.977 L11.322,8.494 C10.541,7.713 9.275,7.713 8.494,8.494 C7.713,9.275 7.713,10.541 8.494,11.322 L9.977,12.805 C6.661,16.695 4.516,21.608 4.087,27 L2,27 C0.896,27 0,27.896 0,29 C0,30.104 0.896,31 2,31 L4.087,31 C4.516,36.392 6.661,41.305 9.977,45.195 L8.494,46.678 C7.713,47.459 7.713,48.725 8.494,49.506 C8.885,49.897 9.396,50.092 9.908,50.092 C10.42,50.092 10.932,49.897 11.322,49.506 L12.805,48.023 C16.695,51.339 21.608,53.484 27,53.913 L27,56 C27,57.104 27.896,58 29,58 C30.105,58 31,57.104 31,56 L31,53.913 C36.392,53.484 41.305,51.339 45.195,48.023 L46.678,49.506 C47.068,49.897 47.58,50.092 48.092,50.092 C48.604,50.092 49.115,49.897 49.506,49.506 C50.287,48.725 50.287,47.459 49.506,46.678 L48.023,45.195 C51.339,41.305 53.484,36.392 53.913,31 L56,31 C57.105,31 58,30.104 58,29 C58,27.896 57.105,27 56,27 L56,27 Z M29,50 C17.421,50 8,40.579 8,29 C8,17.421 17.421,8 29,8 C40.579,8 50,17.421 50,29 C50,40.579 40.579,50 29,50 L29,50 Z" id="Fill-309" sketch:type="MSShapeGroup"></path>
            </g>
        </g>
    </g>
</svg>