<?xml version="1.0" encoding="UTF-8" standalone="no"?>
<svg width="54px" height="54px" viewBox="0 0 54 54" version="1.1" xmlns="http://www.w3.org/2000/svg" xmlns:xlink="http://www.w3.org/1999/xlink" xmlns:sketch="http://www.bohemiancoding.com/sketch/ns">
    <!-- Generator: Sketch 3.2.2 (9983) - http://www.bohemiancoding.com/sketch -->
    <title>94 - Settings (Solid)</title>
    <desc>Created with Sketch.</desc>
    <defs></defs>
    <g id="Page-1" stroke="none" stroke-width="1" fill="none" fill-rule="evenodd" sketch:type="MSPage">
        <g id="Icons" sketch:type="MSArtboardGroup" transform="translate(-843.000000, -3719.000000)" fill="#000000">
            <g id="94---Settings-(Solid)" sketch:type="MSLayerGroup" transform="translate(843.000000, 3719.000000)">
                <path d="M27,18 C22.038,18 18,22.038 18,27 C18,31.963 22.038,36 27,36 C31.962,36 36,31.963 36,27 C36,22.038 31.962,18 27,18" id="Fill-1129" sketch:type="MSShapeGroup"></path>
                <path d="M51.22,21 L49.202,21 C48.687,19.089 47.93,17.26 46.942,15.543 L48.368,14.117 C48.894,13.592 49.183,12.894 49.183,12.151 C49.183,11.408 48.894,10.71 48.368,10.185 L43.815,5.632 C42.766,4.583 40.935,4.581 39.883,5.632 L38.457,7.058 C36.74,6.07 34.911,5.312 33,4.798 L33,2.78 C33,1.247 31.753,0 30.22,0 L23.78,0 C22.247,0 21,1.247 21,2.78 L21,4.798 C19.089,5.312 17.26,6.07 15.543,7.058 L14.117,5.632 C13.066,4.58 11.234,4.582 10.185,5.632 L5.632,10.185 C5.106,10.71 4.817,11.408 4.817,12.151 C4.817,12.894 5.106,13.592 5.632,14.117 L7.058,15.543 C6.07,17.26 5.312,19.089 4.798,21 L2.78,21 C1.247,21 0,22.247 0,23.78 L0,30.219 C0,31.752 1.247,33 2.78,33 L4.798,33 C5.312,34.911 6.07,36.74 7.058,38.457 L5.632,39.883 C5.106,40.408 4.817,41.106 4.817,41.849 C4.817,42.592 5.106,43.29 5.632,43.816 L10.185,48.368 C11.234,49.419 13.066,49.42 14.117,48.368 L15.543,46.942 C17.26,47.93 19.089,48.687 21,49.202 L21,51.219 C21,52.752 22.247,54 23.78,54 L30.22,54 C31.753,54 33,52.752 33,51.219 L33,49.202 C34.911,48.687 36.74,47.93 38.457,46.942 L39.883,48.368 C40.935,49.42 42.765,49.418 43.815,48.368 L48.368,43.816 C48.894,43.29 49.183,42.592 49.183,41.849 C49.183,41.106 48.894,40.408 48.368,39.883 L46.942,38.457 C47.93,36.74 48.687,34.911 49.202,33 L51.22,33 C52.753,33 54,31.752 54,30.219 L54,23.78 C54,22.247 52.753,21 51.22,21 L51.22,21 Z M39,27 C39,33.617 33.617,39 27,39 C20.383,39 15,33.617 15,27 C15,20.383 20.383,15 27,15 C33.617,15 39,20.383 39,27 L39,27 Z" id="Fill-1130" sketch:type="MSShapeGroup"></path>
            </g>
        </g>
    </g>
</svg>