<?xml version="1.0" encoding="UTF-8" standalone="no"?>
<svg width="54px" height="54px" viewBox="0 0 54 54" version="1.1" xmlns="http://www.w3.org/2000/svg" xmlns:xlink="http://www.w3.org/1999/xlink" xmlns:sketch="http://www.bohemiancoding.com/sketch/ns">
    <!-- Generator: Sketch 3.2.2 (9983) - http://www.bohemiancoding.com/sketch -->
    <title>95 - Settings (Solid)</title>
    <desc>Created with Sketch.</desc>
    <defs></defs>
    <g id="Page-1" stroke="none" stroke-width="1" fill="none" fill-rule="evenodd" sketch:type="MSPage">
        <g id="Icons" sketch:type="MSArtboardGroup" transform="translate(-726.000000, -3718.000000)" fill="#000000">
            <g id="95---Settings-(Solid)" sketch:type="MSLayerGroup" transform="translate(726.000000, 3718.000000)">
                <path d="M51.22,21 L46.168,21 C45.356,21 44.687,20.553 44.376,19.803 C44.065,19.053 44.223,18.263 44.796,17.688 L48.368,14.117 C48.894,13.592 49.183,12.894 49.183,12.151 C49.183,11.408 48.894,10.71 48.368,10.185 L43.815,5.632 C42.766,4.582 40.935,4.58 39.883,5.632 L36.312,9.203 C35.837,9.678 35.315,9.777 34.96,9.777 C34.46,9.777 33.963,9.581 33.596,9.238 C33.324,8.984 33,8.534 33,7.832 L33,2.78 C33,1.247 31.753,0 30.22,0 L23.78,0 C22.247,0 21,1.247 21,2.78 L21,7.832 C21,9.05 20.003,9.777 19.039,9.777 C18.685,9.777 18.163,9.678 17.688,9.203 L14.117,5.632 C13.065,4.58 11.234,4.582 10.185,5.632 L5.632,10.185 C5.106,10.71 4.817,11.408 4.817,12.151 C4.817,12.894 5.106,13.592 5.632,14.117 L9.204,17.688 C9.777,18.263 9.935,19.053 9.624,19.803 C9.314,20.553 8.644,21 7.832,21 L2.78,21 C1.247,21 0,22.247 0,23.78 L0,30.219 C0,31.752 1.247,33 2.78,33 L7.832,33 C8.644,33 9.314,33.447 9.624,34.197 C9.935,34.947 9.777,35.737 9.204,36.312 L5.632,39.883 C5.106,40.408 4.817,41.107 4.817,41.849 C4.817,42.592 5.106,43.29 5.632,43.815 L10.185,48.368 C11.235,49.419 13.065,49.421 14.117,48.368 L17.688,44.797 C18.163,44.322 18.685,44.223 19.04,44.223 C20.003,44.223 21,44.95 21,46.168 L21,51.219 C21,52.752 22.247,54 23.78,54 L30.22,54 C31.753,54 33,52.752 33,51.219 L33,46.168 C33,44.95 33.997,44.223 34.96,44.223 C35.315,44.223 35.837,44.322 36.312,44.797 L39.883,48.368 C40.935,49.42 42.766,49.418 43.815,48.368 L48.368,43.815 C48.894,43.29 49.183,42.592 49.183,41.849 C49.183,41.107 48.894,40.408 48.368,39.883 L44.796,36.312 C44.223,35.737 44.065,34.947 44.376,34.197 C44.687,33.447 45.356,33 46.168,33 L51.22,33 C52.753,33 54,31.752 54,30.219 L54,23.78 C54,22.247 52.753,21 51.22,21 L51.22,21 Z M34,27 C34,30.859 30.859,34 27,34 C23.141,34 20,30.859 20,27 C20,23.141 23.141,20 27,20 C30.859,20 34,23.141 34,27 L34,27 Z" id="Fill-307" sketch:type="MSShapeGroup"></path>
            </g>
        </g>
    </g>
</svg>