<?xml version="1.0" encoding="UTF-8" standalone="no"?>
<svg width="54px" height="54px" viewBox="0 0 54 54" version="1.1" xmlns="http://www.w3.org/2000/svg" xmlns:xlink="http://www.w3.org/1999/xlink" xmlns:sketch="http://www.bohemiancoding.com/sketch/ns">
    <!-- Generator: Sketch 3.2.2 (9983) - http://www.bohemiancoding.com/sketch -->
    <title>96 - Settings (Solid)</title>
    <desc>Created with Sketch.</desc>
    <defs></defs>
    <g id="Page-1" stroke="none" stroke-width="1" fill="none" fill-rule="evenodd" sketch:type="MSPage">
        <g id="Icons" sketch:type="MSArtboardGroup" transform="translate(-602.000000, -3721.000000)" fill="#000000">
            <g id="96---Settings-(Solid)" sketch:type="MSLayerGroup" transform="translate(602.000000, 3721.000000)">
                <path d="M53.188,23.518 L50.061,22.916 C48.219,22.563 46.71,21.309 46.025,19.563 C45.34,17.817 45.593,15.872 46.702,14.359 L48.666,11.681 C48.958,11.283 48.915,10.732 48.566,10.383 L44.324,6.141 C43.985,5.802 43.453,5.751 43.057,6.019 L40.419,7.806 C39.509,8.422 38.46,8.748 37.386,8.748 C34.673,8.748 32.405,6.807 31.993,4.131 L31.488,0.848 C31.414,0.36 30.994,0 30.5,0 L24.5,0 C24.021,0 23.608,0.341 23.518,0.812 L22.741,4.853 C22.249,7.411 19.996,9.269 17.384,9.269 C16.309,9.269 15.259,8.943 14.351,8.327 L10.944,6.019 C10.547,5.752 10.015,5.802 9.676,6.141 L5.433,10.383 C5.084,10.732 5.042,11.283 5.333,11.682 L7.298,14.36 C8.407,15.872 8.66,17.817 7.975,19.563 C7.29,21.309 5.781,22.563 3.94,22.916 L0.811,23.518 C0.34,23.608 0,24.021 0,24.5 L0,30.5 C0,30.993 0.36,31.413 0.848,31.488 L4.131,31.993 C5.984,32.278 7.539,33.475 8.288,35.193 C9.038,36.913 8.858,38.866 7.806,40.419 L6.019,43.057 C5.751,43.453 5.802,43.985 6.141,44.324 L10.383,48.567 C10.732,48.914 11.282,48.959 11.681,48.666 L14.36,46.702 C15.304,46.01 16.41,45.644 17.557,45.644 C20.17,45.644 22.424,47.501 22.917,50.06 L23.518,53.189 C23.608,53.659 24.021,54 24.5,54 L30.5,54 C30.994,54 31.413,53.64 31.488,53.152 L31.844,50.844 C32.31,47.812 34.911,46.226 37.239,46.226 C38.385,46.226 39.49,46.592 40.435,47.285 L42.319,48.666 C42.718,48.959 43.269,48.914 43.617,48.567 L47.859,44.324 C48.198,43.985 48.249,43.453 47.981,43.057 L46.194,40.419 C45.143,38.866 44.962,36.913 45.712,35.193 C46.462,33.475 48.016,32.278 49.869,31.993 L53.152,31.488 C53.64,31.413 54,30.993 54,30.5 L54,24.5 C54,24.021 53.66,23.608 53.188,23.518 L53.188,23.518 Z M36,27.5 C36,32.187 32.187,36 27.5,36 C22.813,36 19,32.187 19,27.5 C19,22.814 22.813,19 27.5,19 C32.187,19 36,22.814 36,27.5 L36,27.5 Z" id="Fill-311" sketch:type="MSShapeGroup"></path>
                <path d="M27.5,22 C24.467,22 22,24.468 22,27.5 C22,30.532 24.467,33 27.5,33 C30.533,33 33,30.532 33,27.5 C33,24.468 30.533,22 27.5,22" id="Fill-312" sketch:type="MSShapeGroup"></path>
            </g>
        </g>
    </g>
</svg>