<?xml version="1.0" encoding="UTF-8" standalone="no"?>
<svg width="60px" height="60px" viewBox="0 0 60 60" version="1.1" xmlns="http://www.w3.org/2000/svg" xmlns:xlink="http://www.w3.org/1999/xlink" xmlns:sketch="http://www.bohemiancoding.com/sketch/ns">
    <!-- Generator: Sketch 3.2.2 (9983) - http://www.bohemiancoding.com/sketch -->
    <title>98 - Settings (Solid)</title>
    <desc>Created with Sketch.</desc>
    <defs></defs>
    <g id="Page-1" stroke="none" stroke-width="1" fill="none" fill-rule="evenodd" sketch:type="MSPage">
        <g id="Icons" sketch:type="MSArtboardGroup" transform="translate(-360.000000, -3717.000000)" fill="#000000">
            <g id="98---Settings-(Solid)" sketch:type="MSLayerGroup" transform="translate(360.000000, 3717.000000)">
                <path d="M29.988,38 C33.848,38 36.988,34.859 36.988,31 C36.988,27.141 33.848,24 29.988,24 C26.128,24 22.988,27.141 22.988,31 C22.988,34.859 26.128,38 29.988,38 L29.988,38 Z M29.988,26 C32.745,26 34.988,28.243 34.988,31 C34.988,33.757 32.745,36 29.988,36 C27.231,36 24.988,33.757 24.988,31 C24.988,28.243 27.231,26 29.988,26 L29.988,26 Z" id="Fill-1139" sketch:type="MSShapeGroup"></path>
                <path d="M29.988,32 C30.54,32 30.988,31.552 30.988,31 C30.988,30.448 30.54,30 29.988,30 C29.436,30 28.988,30.448 28.988,31 C28.988,31.552 29.436,32 29.988,32" id="Fill-1140" sketch:type="MSShapeGroup"></path>
                <path d="M0,60 L60,60 L60,0 L0,0 L0,60 Z M37.351,2 C36.968,2.056 36.635,2.332 36.528,2.729 L35.727,5.719 C34.185,5.349 32.605,5.124 31,5.053 L31,2 L37.351,2 L37.351,2 Z M29,5.046 C27.386,5.108 25.796,5.329 24.244,5.699 L23.448,2.729 C23.342,2.333 23.009,2.057 22.628,2 L29,2 L29,5.046 L29,5.046 Z M22.572,2 C22.457,1.99 22.341,1.991 22.224,2.023 C21.69,2.165 21.374,2.714 21.517,3.247 L22.319,6.241 C20.802,6.732 19.333,7.359 17.932,8.118 L16.355,5.386 C16.078,4.907 15.466,4.742 14.988,5.02 C14.51,5.296 14.346,5.907 14.622,6.386 L16.211,9.137 C14.875,9.994 13.611,10.962 12.443,12.041 L10.189,9.787 C9.798,9.396 9.165,9.396 8.775,9.787 C8.384,10.178 8.384,10.81 8.775,11.201 L11.028,13.454 C9.944,14.614 8.954,15.863 8.089,17.202 L5.374,15.634 C4.895,15.356 4.284,15.521 4.007,16 C3.731,16.479 3.895,17.09 4.374,17.366 L7.074,18.925 C6.419,20.132 5.865,21.396 5.408,22.705 C5.351,22.786 5.293,22.867 5.261,22.966 L5.237,23.167 C4.991,23.922 4.773,24.689 4.598,25.472 C4.478,26.011 4.817,26.545 5.356,26.665 C5.899,26.788 6.43,26.447 6.55,25.907 C6.653,25.449 6.788,25.003 6.917,24.555 L20.168,28.861 C20.271,28.895 20.376,28.91 20.478,28.91 C20.899,28.91 21.292,28.642 21.429,28.219 C21.599,27.694 21.312,27.13 20.787,26.959 L7.554,22.659 C10.954,13.814 19.563,7.437 29,7.046 L29,21 C29,21.553 29.448,22 30,22 C30.552,22 31,21.553 31,21 L31,7.053 C40.505,7.512 49.113,13.884 52.457,22.648 L39.19,26.959 C38.664,27.13 38.377,27.694 38.547,28.219 C38.685,28.642 39.077,28.91 39.499,28.91 C39.601,28.91 39.705,28.895 39.808,28.861 L53.087,24.546 C53.218,25.007 53.353,25.468 53.454,25.939 C53.555,26.408 53.969,26.729 54.431,26.729 L54.642,26.707 C55.182,26.592 55.525,26.06 55.409,25.52 C55.228,24.677 54.991,23.854 54.725,23.043 L54.716,22.966 L54.663,22.871 C54.2,21.496 53.621,20.172 52.934,18.907 L55.603,17.366 C56.082,17.09 56.245,16.479 55.969,16 C55.693,15.521 55.082,15.356 54.603,15.634 L51.915,17.185 C51.048,15.848 50.054,14.6 48.962,13.44 L51.201,11.201 C51.592,10.81 51.592,10.178 51.201,9.787 C50.811,9.396 50.178,9.396 49.787,9.787 L47.541,12.033 C46.37,10.96 45.104,9.996 43.763,9.142 L45.354,6.386 C45.63,5.907 45.467,5.296 44.988,5.02 C44.509,4.742 43.898,4.907 43.622,5.386 L42.038,8.129 C40.638,7.376 39.17,6.752 37.652,6.26 L38.46,3.247 C38.603,2.714 38.287,2.165 37.753,2.023 C37.632,1.99 37.51,1.988 37.392,2 L58,2 L58,38.325 C56.692,37.865 55.712,36.74 55.492,35.31 L54.983,32 L48.799,32 L48.06,35.842 C47.713,37.644 46.127,38.951 44.288,38.951 C43.531,38.951 42.794,38.722 42.153,38.288 L38.914,36.095 L34.542,40.467 L36.522,43.168 C37.303,44.232 37.481,45.602 36.999,46.83 C36.516,48.06 35.454,48.942 34.157,49.192 L31,49.799 L31,55.983 L34.31,56.492 C35.337,56.65 36.209,57.201 36.795,58 L23.205,58 C23.791,57.201 24.663,56.651 25.69,56.492 L29,55.983 L29,49.799 L25.843,49.192 C24.546,48.942 23.484,48.06 23.001,46.83 C22.519,45.602 22.697,44.232 23.478,43.168 L25.459,40.467 L21.086,36.095 L17.847,38.288 C17.207,38.723 16.468,38.951 15.712,38.951 C13.873,38.951 12.287,37.644 11.94,35.842 L11.201,32 L5.017,32 L4.508,35.31 C4.288,36.74 3.308,37.865 2,38.325 L2,2 L22.572,2 L22.572,2 Z M2,58 L2,49.42 C3.263,47.309 5.535,46 8,46 C11.86,46 15,49.141 15,53 C15,54.884 14.224,56.683 12.873,58 L2,58 L2,58 Z M47.127,58 C45.776,56.683 45,54.885 45,53 C45,49.141 48.14,46 52,46 C54.465,46 56.737,47.309 58,49.42 L58,58 L47.127,58 L47.127,58 Z" id="Fill-1141" sketch:type="MSShapeGroup"></path>
            </g>
        </g>
    </g>
</svg>