<?xml version="1.0" encoding="UTF-8" standalone="no"?>
<svg width="60px" height="60px" viewBox="0 0 60 60" version="1.1" xmlns="http://www.w3.org/2000/svg" xmlns:xlink="http://www.w3.org/1999/xlink" xmlns:sketch="http://www.bohemiancoding.com/sketch/ns">
    <!-- Generator: Sketch 3.2.2 (9983) - http://www.bohemiancoding.com/sketch -->
    <title>99 - Settings (Solid)</title>
    <desc>Created with Sketch.</desc>
    <defs></defs>
    <g id="Page-1" stroke="none" stroke-width="1" fill="none" fill-rule="evenodd" sketch:type="MSPage">
        <g id="Icons" sketch:type="MSArtboardGroup" transform="translate(-240.000000, -3717.000000)" fill="#000000">
            <g id="99---Settings-(Solid)" sketch:type="MSLayerGroup" transform="translate(240.000000, 3717.000000)">
                <path d="M38.692,31.329 C39.315,29.008 38.995,26.582 37.793,24.501 C37.566,24.107 37.304,23.74 37.023,23.39 L44.608,15.806 C45.52,16.816 46.345,17.93 47.052,19.155 C48.784,22.155 49.69,25.587 49.672,29.079 C49.669,29.631 50.115,30.081 50.667,30.084 L50.672,30.084 C51.222,30.084 51.669,29.64 51.672,29.089 C51.68,27.492 51.503,25.909 51.168,24.363 L53.441,23.754 C53.975,23.611 54.291,23.062 54.148,22.529 C54.005,21.995 53.456,21.677 52.923,21.822 L50.655,22.431 C50.286,21.263 49.818,20.129 49.255,19.038 L51.285,17.866 C51.763,17.59 51.927,16.979 51.651,16.5 C51.375,16.021 50.762,15.857 50.285,16.134 L48.24,17.314 C47.57,16.267 46.834,15.286 46.021,14.393 L47.678,12.736 C48.068,12.346 48.068,11.713 47.678,11.322 C47.287,10.932 46.654,10.932 46.264,11.322 L44.611,12.975 C43.697,12.144 42.716,11.407 41.69,10.752 L42.866,8.716 C43.142,8.237 42.979,7.626 42.5,7.35 C42.021,7.072 41.409,7.236 41.134,7.716 L39.955,9.757 C38.864,9.195 37.73,8.734 36.565,8.364 L37.177,6.076 C37.32,5.543 37.003,4.994 36.47,4.851 C35.933,4.704 35.388,5.025 35.246,5.559 L34.633,7.847 C33.439,7.585 32.226,7.417 31,7.358 L31,5 C31,4.447 30.552,4 30,4 C29.448,4 29,4.447 29,5 L29,7.352 C27.783,7.406 26.566,7.554 25.359,7.817 L24.754,5.559 C24.612,5.025 24.066,4.704 23.53,4.851 C22.997,4.994 22.68,5.543 22.823,6.076 L23.429,8.34 C22.278,8.706 21.151,9.188 20.046,9.76 L18.866,7.716 C18.589,7.236 17.978,7.072 17.5,7.35 C17.022,7.626 16.858,8.237 17.134,8.716 L18.306,10.745 C17.266,11.412 16.294,12.16 15.396,12.982 L13.736,11.322 C13.346,10.932 12.713,10.932 12.322,11.322 C11.932,11.713 11.932,12.346 12.322,12.736 L13.986,14.4 C13.161,15.309 12.416,16.283 11.758,17.313 L9.715,16.134 C9.235,15.857 8.626,16.021 8.349,16.5 C8.073,16.979 8.237,17.59 8.715,17.866 L10.761,19.047 C10.2,20.132 9.731,21.265 9.358,22.434 L7.077,21.822 C6.545,21.678 5.995,21.996 5.852,22.529 C5.709,23.062 6.025,23.611 6.559,23.754 L8.84,24.366 C8.502,25.901 8.319,27.481 8.324,29.087 C8.326,29.639 8.773,30.084 9.324,30.084 L9.327,30.084 C9.879,30.082 10.326,29.633 10.324,29.081 C10.309,24.117 12.176,19.401 15.401,15.814 L22.971,23.384 C22.206,24.342 21.635,25.451 21.308,26.671 C20.685,28.992 21.005,31.418 22.207,33.499 C23.81,36.275 26.798,38 30.007,38 C31.579,38 33.132,37.582 34.5,36.793 C36.581,35.592 38.07,33.651 38.692,31.329 L38.692,31.329 Z M29.993,20 C28.421,20 26.868,20.418 25.5,21.207 C25.106,21.435 24.74,21.697 24.39,21.975 L16.81,14.396 C17.827,13.474 18.943,12.648 20.155,11.948 C27.728,7.576 37.023,8.83 43.192,14.394 L35.607,21.979 C34.033,20.725 32.062,20 29.993,20 L29.993,20 Z" id="Fill-1142" sketch:type="MSShapeGroup"></path>
                <path d="M27,47.5 L25.749,47.5 C25.624,45.618 25.125,43.754 24.263,41.998 L25.356,41.366 C25.835,41.09 25.999,40.479 25.723,40 C25.446,39.521 24.833,39.357 24.356,39.634 L23.256,40.269 C22.76,39.535 22.222,38.834 21.613,38.208 L16.046,44.39 C16.264,44.658 16.469,44.938 16.644,45.241 C17.546,46.803 17.724,48.588 17.286,50.205 L24.882,53.587 C25.367,52.269 25.639,50.891 25.736,49.5 L27,49.5 C27.552,49.5 28,49.053 28,48.5 C28,47.947 27.552,47.5 27,47.5" id="Fill-1143" sketch:type="MSShapeGroup"></path>
                <path d="M19.238,36.232 L19.866,35.144 C20.142,34.665 19.979,34.054 19.5,33.777 C19.02,33.501 18.41,33.664 18.134,34.144 L17.502,35.237 C15.799,34.399 13.935,33.881 12,33.747 L12,32.5 C12,31.947 11.552,31.5 11,31.5 C10.448,31.5 10,31.947 10,32.5 L10,33.761 C8.09,33.891 6.213,34.372 4.487,35.219 L8.65,42.43 C9.398,42.14 10.192,41.981 10.995,41.981 C12.28,41.981 13.51,42.375 14.555,43.057 L20.126,36.87 C19.838,36.645 19.54,36.435 19.238,36.232" id="Fill-1144" sketch:type="MSShapeGroup"></path>
                <path d="M43.356,45.241 C43.531,44.938 43.736,44.658 43.954,44.39 L38.387,38.208 C37.778,38.834 37.241,39.535 36.744,40.269 L35.644,39.634 C35.167,39.357 34.554,39.521 34.277,40 C34.001,40.479 34.165,41.09 34.644,41.366 L35.737,41.998 C34.875,43.754 34.376,45.618 34.251,47.5 L33,47.5 C32.448,47.5 32,47.947 32,48.5 C32,49.053 32.448,49.5 33,49.5 L34.264,49.5 C34.361,50.891 34.633,52.269 35.118,53.587 L42.714,50.205 C42.276,48.588 42.454,46.803 43.356,45.241" id="Fill-1145" sketch:type="MSShapeGroup"></path>
                <path d="M50,32.5 C50,31.947 49.552,31.5 49,31.5 C48.448,31.5 48,31.947 48,32.5 L48,33.747 C46.065,33.881 44.202,34.399 42.498,35.237 L41.866,34.144 C41.59,33.664 40.981,33.501 40.5,33.777 C40.022,34.054 39.858,34.665 40.134,35.144 L40.762,36.232 C40.46,36.435 40.162,36.645 39.874,36.87 L45.445,43.057 C46.49,42.375 47.72,41.981 49.005,41.981 C49.808,41.981 50.602,42.14 51.35,42.43 L55.513,35.219 C53.787,34.372 51.91,33.891 50,33.761 L50,32.5" id="Fill-1146" sketch:type="MSShapeGroup"></path>
                <path d="M56.987,43.092 C57.086,42.889 57.177,42.683 57.271,42.478 C57.392,42.212 57.519,41.95 57.633,41.68 C57.849,41.168 58.049,40.649 58.238,40.123 C58.274,40.023 58.306,39.922 58.34,39.822 C58.505,39.347 58.659,38.866 58.8,38.38 L58.846,38.237 L58.85,38.205 C59.593,35.595 60,32.845 60,30 C60,13.458 46.542,0 30,0 C13.458,0 0,13.458 0,30 C0,32.845 0.407,35.595 1.15,38.205 L1.154,38.237 L1.2,38.38 C1.341,38.866 1.495,39.347 1.66,39.822 C1.694,39.922 1.726,40.023 1.762,40.123 C1.951,40.649 2.151,41.168 2.367,41.68 C2.481,41.95 2.608,42.212 2.729,42.478 C2.823,42.683 2.914,42.889 3.013,43.092 C3.192,43.464 3.382,43.828 3.577,44.191 L3.668,44.36 C6.66,49.867 11.302,54.3 16.99,57.029 L17.012,57.04 C17.373,57.214 17.74,57.378 18.109,57.537 C18.279,57.611 18.451,57.682 18.622,57.753 C18.926,57.877 19.229,58 19.538,58.114 C19.835,58.225 20.136,58.327 20.437,58.428 C20.624,58.491 20.807,58.563 20.996,58.623 L21.026,58.627 C23.861,59.518 26.875,60 30,60 C33.125,60 36.139,59.518 38.974,58.627 L39.004,58.623 C39.193,58.563 39.376,58.491 39.563,58.428 C39.864,58.327 40.166,58.225 40.462,58.114 C40.771,58 41.074,57.877 41.378,57.753 C41.55,57.682 41.721,57.611 41.891,57.537 C42.26,57.378 42.627,57.214 42.988,57.04 L43.01,57.029 C48.698,54.3 53.34,49.867 56.332,44.36 L56.423,44.191 C56.618,43.828 56.808,43.464 56.987,43.092 L56.987,43.092 Z M5.099,46.713 C5.226,46.901 5.36,47.083 5.491,47.267 C5.379,47.109 5.253,46.962 5.144,46.802 L5.099,46.713 L5.099,46.713 Z M8.137,50.512 C8.337,50.724 8.535,50.938 8.74,51.144 C8.535,50.938 8.337,50.724 8.137,50.512 L8.137,50.512 Z M6.372,48.452 C6.602,48.747 6.836,49.038 7.078,49.324 C6.836,49.038 6.602,48.747 6.372,48.452 L6.372,48.452 Z M12.551,54.396 L12.341,54.231 C12.434,54.299 12.53,54.365 12.624,54.433 L12.551,54.396 L12.551,54.396 Z M10.149,52.466 C10.332,52.627 10.515,52.787 10.702,52.945 C10.515,52.787 10.332,52.627 10.149,52.466 L10.149,52.466 Z M23.003,57.115 C23.397,56.566 23.762,56.002 24.073,55.415 L16.47,52.03 C16.084,52.632 15.592,53.173 15.009,53.63 C11.327,51.286 8.225,48.111 5.976,44.364 C6.258,44.021 6.567,43.702 6.914,43.423 L2.761,36.23 L2.715,36.262 C2.253,34.247 2,32.153 2,30 C2,14.56 14.561,2 30,2 C45.44,2 58,14.56 58,30 C58,32.153 57.747,34.247 57.285,36.262 L57.239,36.23 L53.086,43.423 C53.433,43.702 53.742,44.021 54.024,44.364 C51.775,48.111 48.673,51.286 44.991,53.63 C44.408,53.173 43.916,52.632 43.53,52.03 L35.927,55.415 C36.238,56.002 36.603,56.566 36.997,57.115 C34.76,57.693 32.415,58 30,58 C27.585,58 25.24,57.693 23.003,57.115 L23.003,57.115 Z M47.376,54.433 C47.47,54.365 47.566,54.299 47.66,54.231 L47.449,54.396 L47.376,54.433 L47.376,54.433 Z M49.852,52.465 C49.668,52.627 49.485,52.787 49.298,52.945 C49.485,52.787 49.669,52.627 49.852,52.465 L49.852,52.465 Z M51.26,51.144 C51.465,50.938 51.663,50.724 51.863,50.511 C51.663,50.724 51.466,50.938 51.26,51.144 L51.26,51.144 Z M54.856,46.802 C54.747,46.963 54.621,47.109 54.509,47.268 C54.64,47.083 54.774,46.901 54.901,46.713 L54.856,46.802 L54.856,46.802 Z M52.921,49.326 C53.163,49.039 53.398,48.746 53.629,48.451 C53.398,48.747 53.163,49.039 52.921,49.326 L52.921,49.326 Z" id="Fill-1147" sketch:type="MSShapeGroup"></path>
            </g>
        </g>
    </g>
</svg>