<?xml version="1.0" encoding="utf-8"?>
<!-- Generator: Adobe Illustrator 18.0.0, SVG Export Plug-In . SVG Version: 6.00 Build 0)  -->
<!DOCTYPE svg PUBLIC "-//W3C//DTD SVG 1.1//EN" "http://www.w3.org/Graphics/SVG/1.1/DTD/svg11.dtd">
<svg version="1.1" xmlns="http://www.w3.org/2000/svg" xmlns:xlink="http://www.w3.org/1999/xlink" x="0px" y="0px"
	 viewBox="0 0 40 40" enable-background="new 0 0 40 40" xml:space="preserve">
<g id="Devices">
	<g id="Battery_Plug">
		<g>
			<polygon fill-rule="evenodd" clip-rule="evenodd" fill="#ECF0F1" points="23,10 23,7 17,7 17,10 12,10 12,33 28,33 28,10 			"/>
		</g>
	</g>
	<g id="Battery_Plug_1_">
		<g>
			<path fill-rule="evenodd" clip-rule="evenodd" fill="#1ABC9C" d="M23,18h-1v-3h-1v3h-2v-3h-1v3h-1c-0.3,0-0.5,0.2-0.5,0.5
				c0,0.3,0.2,0.5,0.5,0.5v0.1c0,1.2,0.9,2.1,2,2.5V28h2v-6.4c1.1-0.4,2-1.4,2-2.5V19c0.3,0,0.5-0.2,0.5-0.5
				C23.5,18.2,23.3,18,23,18z"/>
		</g>
	</g>
</g>
<g id="Lockup">
</g>
</svg>
