<?xml version="1.0" encoding="utf-8"?>
<!-- Generator: Adobe Illustrator 18.0.0, SVG Export Plug-In . SVG Version: 6.00 Build 0)  -->
<!DOCTYPE svg PUBLIC "-//W3C//DTD SVG 1.1//EN" "http://www.w3.org/Graphics/SVG/1.1/DTD/svg11.dtd">
<svg version="1.1" xmlns="http://www.w3.org/2000/svg" xmlns:xlink="http://www.w3.org/1999/xlink" x="0px" y="0px"
	 viewBox="0 0 40 40" enable-background="new 0 0 40 40" xml:space="preserve">
<g id="Devices">
	<g id="Path_6_">
		<polygon fill-rule="evenodd" clip-rule="evenodd" fill="#BDC3C7" points="14,7 12,12 29,12 27,7 		"/>
	</g>
	<path fill-rule="evenodd" clip-rule="evenodd" fill="#ECF0F1" d="M34,32H6c-1.1,0-2-0.9-2-2V12c0-1.1,0.9-2,2-2h28c1.1,0,2,0.9,2,2
		v18C36,31.1,35.1,32,34,32z"/>
	<g id="Path_14_">
		<rect x="4" y="16" fill-rule="evenodd" clip-rule="evenodd" fill="#1ABC9C" width="32" height="10"/>
	</g>
	<g id="Path_12_">
		<rect x="4" y="24" fill-rule="evenodd" clip-rule="evenodd" fill="#16A085" width="32" height="2"/>
	</g>
	<g id="Path_4_">
		<g>
			<circle fill-rule="evenodd" clip-rule="evenodd" fill="#E74C3C" cx="32.1" cy="13" r="1"/>
		</g>
		<g>
			<circle fill="none" stroke="#C0392B" stroke-miterlimit="10" cx="32.1" cy="13" r="1"/>
		</g>
	</g>
	<g id="Path_3_">
		<g>
			<circle fill-rule="evenodd" clip-rule="evenodd" fill="#95A5A6" cx="20" cy="21" r="8"/>
		</g>
	</g>
	<g id="Path_2_">
		<g>
			<circle fill-rule="evenodd" clip-rule="evenodd" fill="#2C3E50" cx="20" cy="21" r="6"/>
		</g>
	</g>
	<g id="Path_1_">
		<g>
			<path fill-rule="evenodd" clip-rule="evenodd" fill="#ECF0F1" d="M20,17.6c-1.8,0-3.4,1.5-3.4,3.4c0,1.9,1.5,3.4,3.4,3.4
				c1.8,0,3.4-1.5,3.4-3.4C23.4,19.1,21.8,17.6,20,17.6z"/>
		</g>
	</g>
	<g id="Path_15_">
		<g>
			<circle fill-rule="evenodd" clip-rule="evenodd" fill="#16A085" cx="20" cy="21" r="2"/>
		</g>
	</g>
	<g id="Path">
		<g>
			<circle fill-rule="evenodd" clip-rule="evenodd" fill="#1ABC9C" cx="21.8" cy="19.5" r="0.7"/>
		</g>
	</g>
	<g id="Path_17_">
		<g>
			<circle fill-rule="evenodd" clip-rule="evenodd" fill="#1ABC9C" cx="19.2" cy="22.2" r="0.7"/>
		</g>
	</g>
</g>
<g id="Lockup">
</g>
</svg>
