<?xml version="1.0" encoding="utf-8"?>
<!-- Generator: Adobe Illustrator 18.0.0, SVG Export Plug-In . SVG Version: 6.00 Build 0)  -->
<!DOCTYPE svg PUBLIC "-//W3C//DTD SVG 1.1//EN" "http://www.w3.org/Graphics/SVG/1.1/DTD/svg11.dtd">
<svg version="1.1" xmlns="http://www.w3.org/2000/svg" xmlns:xlink="http://www.w3.org/1999/xlink" x="0px" y="0px"
	 viewBox="0 0 40 40" enable-background="new 0 0 40 40" xml:space="preserve">
<g id="Devices">
	<path fill-rule="evenodd" clip-rule="evenodd" fill="#201F1F" d="M16,34H7c-1.7,0-3-1.3-3-3V9c0-1.7,1.3-3,3-3h9c1.6,0,3,1.3,3,3
		v22C19,32.7,17.6,34,16,34z"/>
	<path fill-rule="evenodd" clip-rule="evenodd" fill="#201F1F" d="M33,34h-9c-1.6,0-3-1.3-3-3V9c0-1.7,1.4-3,3-3h9c1.7,0,3,1.3,3,3
		v22C36,32.7,34.7,34,33,34z"/>
	<g id="Transfer_2_">
		<path fill-rule="evenodd" clip-rule="evenodd" fill="#2C3E50" d="M4,28h15V10H4V28z M21,10v18h15V10H21z"/>
	</g>
	<g id="Transfer_1_" opacity="0.1">
		<path fill-rule="evenodd" clip-rule="evenodd" fill="#ECF0F1" d="M4,28h15V10L4,28z M21,28h15V10L21,28z"/>
	</g>
	<g id="Transfer_3_">
		<path fill-rule="evenodd" clip-rule="evenodd" fill="#1ABC9C" d="M13,21h2v-4h-2V21z M10,21h2v-4h-2V21z M31,19l-6-5v3h-9v4h9v3
			L31,19z"/>
	</g>
</g>
<g id="Lockup">
</g>
</svg>
