<?xml version="1.0" encoding="utf-8"?>
<!-- Generator: Adobe Illustrator 18.0.0, SVG Export Plug-In . SVG Version: 6.00 Build 0)  -->
<!DOCTYPE svg PUBLIC "-//W3C//DTD SVG 1.1//EN" "http://www.w3.org/Graphics/SVG/1.1/DTD/svg11.dtd">
<svg version="1.1" xmlns="http://www.w3.org/2000/svg" xmlns:xlink="http://www.w3.org/1999/xlink" x="0px" y="0px"
	 viewBox="0 0 40 40" enable-background="new 0 0 40 40" xml:space="preserve">
<g id="Devices">
	<path fill-rule="evenodd" clip-rule="evenodd" fill="#BDC3C7" d="M32.5,17.6c-0.8-4.3-5-6.1-9.3-6.1h-6.3c-4.3,0-8.5,1.7-9.3,6
		L5,28.1c0,2.5,2,4.4,4.5,4.4l3.9-4.5l0.1-0.1c0.3,0.1,0.6,0.1,0.9,0.1c1.8,0,3.2-1.3,3.5-3l0.1,0h4c0.3,1.7,1.7,3,3.5,3
		c0.4,0,0.8-0.1,1.2-0.2l0.1,0l3.7,4.6c2.5,0,4.5-1.7,4.5-4.2L32.5,17.6z"/>
	<g id="Joystick_1_">
		<polygon fill-rule="evenodd" clip-rule="evenodd" fill="#2C3E50" points="15,17 15,15 13,15 13,17 11,17 11,19 13,19 13,21 15,21 
			15,19 17,19 17,17 		"/>
	</g>
	<g id="Joystick_3_">
		<g>
			<rect x="19" y="22" fill-rule="evenodd" clip-rule="evenodd" fill="#2C3E50" width="2" height="1"/>
		</g>
	</g>
	<circle fill="#1ABC9C" cx="26" cy="15.5" r="1"/>
	<circle fill="#E67E22" cx="28" cy="17.5" r="1"/>
	<circle fill="#E74C3C" cx="26" cy="19.5" r="1"/>
	<g id="Joystick_4_">
		<circle fill-rule="evenodd" clip-rule="evenodd" fill="#9B59B6" cx="24" cy="17.5" r="1"/>
	</g>
	<circle fill-rule="evenodd" clip-rule="evenodd" fill="#34495E" cx="14.5" cy="24.5" r="1.5"/>
	<circle fill-rule="evenodd" clip-rule="evenodd" fill="#34495E" cx="25.5" cy="24.5" r="1.5"/>
</g>
<g id="Lockup">
</g>
</svg>
