<?xml version="1.0" encoding="utf-8"?>
<!-- Generator: Adobe Illustrator 18.0.0, SVG Export Plug-In . SVG Version: 6.00 Build 0)  -->
<!DOCTYPE svg PUBLIC "-//W3C//DTD SVG 1.1//EN" "http://www.w3.org/Graphics/SVG/1.1/DTD/svg11.dtd">
<svg version="1.1" xmlns="http://www.w3.org/2000/svg" xmlns:xlink="http://www.w3.org/1999/xlink" x="0px" y="0px"
	 viewBox="0 0 40 40" enable-background="new 0 0 40 40" xml:space="preserve">
<g id="Devices">
	<g id="Mouse">
		<g>
			<path fill-rule="evenodd" clip-rule="evenodd" fill="#ECF0F1" d="M23.6,7h-7.2c-3,0-5.4,1.9-5.4,4.9v12.6c0,5,4,9,9,9s9-4,9-9
				V11.9C29,8.9,26.6,7,23.6,7z"/>
		</g>
	</g>
	<g id="Mouse_1_">
		<g>
			<path fill-rule="evenodd" clip-rule="evenodd" fill="#2C3E50" d="M20.5,12.6c-0.1-0.1-0.3-0.1-0.5-0.1c-0.2,0-0.4,0-0.5,0.1
				C19.2,12.8,19,13,19,13.4v3.3c0,0.5,0.4,0.9,1,0.9c0.6,0,1-0.4,1-0.9v-3.3C21,13,20.8,12.8,20.5,12.6z"/>
		</g>
	</g>
</g>
<g id="Lockup">
</g>
</svg>
