<?xml version="1.0" encoding="utf-8"?>
<!-- Generator: Adobe Illustrator 18.0.0, SVG Export Plug-In . SVG Version: 6.00 Build 0)  -->
<!DOCTYPE svg PUBLIC "-//W3C//DTD SVG 1.1//EN" "http://www.w3.org/Graphics/SVG/1.1/DTD/svg11.dtd">
<svg version="1.1" xmlns="http://www.w3.org/2000/svg" xmlns:xlink="http://www.w3.org/1999/xlink" x="0px" y="0px"
	 viewBox="0 0 40 40" enable-background="new 0 0 40 40" xml:space="preserve">
<g id="Devices">
	<g id="Nest">
		<g>
			<path fill-rule="evenodd" clip-rule="evenodd" fill="#BDC3C7" d="M20,5.5C12,5.5,5.5,12,5.5,20c0,8,6.5,14.5,14.5,14.5
				c8,0,14.5-6.5,14.5-14.5C34.5,12,28,5.5,20,5.5z"/>
		</g>
	</g>
	<g id="Nest_1_">
		<g>
			<path fill-rule="evenodd" clip-rule="evenodd" fill="#201F1F" d="M20,7.5C13.1,7.5,7.5,13.1,7.5,20c0,6.9,5.6,12.5,12.5,12.5
				c6.9,0,12.5-5.6,12.5-12.5C32.5,13.1,26.9,7.5,20,7.5z"/>
		</g>
	</g>
	<g id="Nest_2_">
		<g>
			<path fill-rule="evenodd" clip-rule="evenodd" fill="#2C3E50" d="M20,11.5c-4.7,0-8.5,3.8-8.5,8.5c0,4.7,3.8,8.5,8.5,8.5
				c4.7,0,8.5-3.8,8.5-8.5C28.5,15.3,24.7,11.5,20,11.5z"/>
		</g>
	</g>
	<g id="Nest_3_">
		<g>
			<path fill-rule="evenodd" clip-rule="evenodd" fill="#1ABC9C" d="M24.5,15c0,0-0.8,0.8-5.6,1.3c-4.8,0.5-4.4,6.3-4.4,6.3
				s1.1-1.8,3.4-2.7c3-1.1,3.8-1.7,4-1.9c-0.3,0.3-1.6,1.8-3.7,2.6c-2.4,0.9-3.4,3-3.4,3s1.1,1.3,3.1,1.3C24.7,25,24.5,15,24.5,15z"
				/>
		</g>
	</g>
</g>
<g id="Lockup">
</g>
</svg>
