<?xml version="1.0" encoding="utf-8"?>
<!-- Generator: Adobe Illustrator 18.0.0, SVG Export Plug-In . SVG Version: 6.00 Build 0)  -->
<!DOCTYPE svg PUBLIC "-//W3C//DTD SVG 1.1//EN" "http://www.w3.org/Graphics/SVG/1.1/DTD/svg11.dtd">
<svg version="1.1" xmlns="http://www.w3.org/2000/svg" xmlns:xlink="http://www.w3.org/1999/xlink" x="0px" y="0px"
	 viewBox="0 0 40 40" enable-background="new 0 0 40 40" xml:space="preserve">
<g id="Devices">
	<g id="Phone_4_">
		<g id="Phone">
			<g>
				<path fill-rule="evenodd" clip-rule="evenodd" fill="#E74C3C" d="M32.1,27.1l-6.3-4.7c-0.4-0.3-0.8-0.2-1.1,0.1L24.2,23
					l-1.6,1.6c-0.5,0.5-1.3,0.5-1.9,0l-5.9-5.3c-0.3-0.2-0.4-0.6-0.4-1c0-0.4,0.1-0.7,0.4-1l1.4-1.4l0.3-0.3
					c0.3-0.3,0.3-0.8,0.1-1.1l-4.3-6.2C12.2,8.2,12,8,11.7,8c-0.2,0-0.5,0-0.7,0.2c0,0,0,0,0,0l-2.5,2c-1,0.8-1.2,2.1-0.8,3.3
					c3.3,8.8,10.4,15.4,19.4,18.4c1,0.3,2.2,0,2.9-0.8c0.5-0.6,1.7-2.1,1.9-2.3c0.1-0.1,0.2-0.3,0.3-0.4c0.2-0.2,0.2-0.4,0.2-0.7
					C32.5,27.4,32.3,27.2,32.1,27.1z"/>
			</g>
		</g>
		<g id="Phone_1_">
			<g>
				<path fill-rule="evenodd" clip-rule="evenodd" fill="#C0392B" d="M32.1,27.1l-6.3-4.7c-0.4-0.3-0.8-0.2-1.1,0.1L24.2,23
					c0.7,0.9,1.6,1.7,2.7,2.6c1.8,1.5,3.7,2.6,5.2,3.2c0.1-0.1,0.2-0.3,0.3-0.4c0.2-0.2,0.2-0.4,0.2-0.7
					C32.5,27.4,32.3,27.2,32.1,27.1z M12.3,8.4C12.2,8.2,12,8,11.7,8c-0.2,0-0.5,0-0.7,0.2c0.4,1,0.8,2.1,1.5,3.2
					c1.1,2,2.4,3.6,3.7,4.6l0.3-0.3c0.3-0.3,0.3-0.8,0.1-1.1L12.3,8.4z"/>
			</g>
		</g>
	</g>
</g>
<g id="Lockup">
</g>
</svg>
