<?xml version="1.0" encoding="utf-8"?>
<!-- Generator: Adobe Illustrator 18.0.0, SVG Export Plug-In . SVG Version: 6.00 Build 0)  -->
<!DOCTYPE svg PUBLIC "-//W3C//DTD SVG 1.1//EN" "http://www.w3.org/Graphics/SVG/1.1/DTD/svg11.dtd">
<svg version="1.1" xmlns="http://www.w3.org/2000/svg" xmlns:xlink="http://www.w3.org/1999/xlink" x="0px" y="0px"
	 viewBox="0 0 40 40" enable-background="new 0 0 40 40" xml:space="preserve">
<g id="Devices">
	<path fill-rule="evenodd" clip-rule="evenodd" fill="#BDC3C7" d="M34,31c0,1.7-1.3,3-3,3H9c-1.7,0-3-1.3-3-3v-9c0-1.7,1.3-3,3-3h22
		c1.7,0,3,1.3,3,3V31z"/>
	<g id="Smartphone_Tilt_3_">
		<rect x="12" y="19" fill-rule="evenodd" clip-rule="evenodd" fill="#95A5A6" width="18" height="15"/>
	</g>
	<g id="Smartphone_Tilt_1_" opacity="0.1">
		<polygon fill-rule="evenodd" clip-rule="evenodd" fill="#ECF0F1" points="30,19 30,34 12,34 		"/>
	</g>
	<path fill-rule="evenodd" clip-rule="evenodd" fill="#201F1F" d="M18,34H9c-1.7,0-3-1.3-3-3V9c0-1.7,1.3-3,3-3h9c1.6,0,3,1.3,3,3
		v22C21,32.7,19.6,34,18,34z"/>
	<g id="Smartphone_Tilt_2_">
		<rect x="6" y="10" fill-rule="evenodd" clip-rule="evenodd" fill="#2C3E50" width="15" height="18"/>
	</g>
	<g id="Smartphone_Tilt_4_" opacity="0.1">
		<polygon fill-rule="evenodd" clip-rule="evenodd" fill="#ECF0F1" points="6,28 21,28 21,10 		"/>
	</g>
	<path fill-rule="evenodd" clip-rule="evenodd" fill="none" stroke="#1ABC9C" stroke-width="2" stroke-miterlimit="10" d="M28,14
		c0-2.8-2.2-5-5-5"/>
	<polygon fill-rule="evenodd" clip-rule="evenodd" fill="#1ABC9C" points="28,18 25,14 31,14 	"/>
</g>
<g id="Lockup">
</g>
</svg>
