<?xml version="1.0" encoding="utf-8"?>
<!-- Generator: Adobe Illustrator 18.0.0, SVG Export Plug-In . SVG Version: 6.00 Build 0)  -->
<!DOCTYPE svg PUBLIC "-//W3C//DTD SVG 1.1//EN" "http://www.w3.org/Graphics/SVG/1.1/DTD/svg11.dtd">
<svg version="1.1" xmlns="http://www.w3.org/2000/svg" xmlns:xlink="http://www.w3.org/1999/xlink" x="0px" y="0px"
	 viewBox="0 0 40 40" enable-background="new 0 0 40 40" xml:space="preserve">
<g id="Devices">
	<rect x="29" y="11" fill-rule="evenodd" clip-rule="evenodd" fill="#585757" width="3" height="2"/>
	<path fill-rule="evenodd" clip-rule="evenodd" fill="#302E2E" d="M29,17H3v-6c0-1.7,1.3-3,3-3h20c1.7,0,3,1.3,3,3V17z"/>
	<path fill-rule="evenodd" clip-rule="evenodd" fill="#211F1F" d="M5,32h22c1.1,0,2-0.9,2-2V17H3v13C3,31.1,3.9,32,5,32z"/>
	<g id="Video_Camera_3_">
		<rect x="31" y="10" fill-rule="evenodd" clip-rule="evenodd" fill="#211F1F" width="7" height="4"/>
	</g>
	<rect x="29" y="18" fill-rule="evenodd" clip-rule="evenodd" fill="#585757" width="6" height="11"/>
	<path fill-rule="evenodd" clip-rule="evenodd" fill="#211F1F" d="M38,31h-5c-1.1,0-2-0.9-2-2V18c0-1.1,0.9-2,2-2h5V31z"/>
	<rect x="3" y="17" fill-rule="evenodd" clip-rule="evenodd" fill="#E74C3C" width="26" height="2"/>
	<rect x="35" y="16" fill-rule="evenodd" clip-rule="evenodd" fill="#302E2E" width="3" height="15"/>
	<circle fill-rule="evenodd" clip-rule="evenodd" fill="#E74C3C" cx="26" cy="29" r="1"/>
</g>
<g id="Lockup">
</g>
</svg>
