<?xml version="1.0" encoding="utf-8"?>
<!-- Generator: Adobe Illustrator 18.0.0, SVG Export Plug-In . SVG Version: 6.00 Build 0)  -->
<!DOCTYPE svg PUBLIC "-//W3C//DTD SVG 1.1//EN" "http://www.w3.org/Graphics/SVG/1.1/DTD/svg11.dtd">
<svg version="1.1" xmlns="http://www.w3.org/2000/svg" xmlns:xlink="http://www.w3.org/1999/xlink" x="0px" y="0px"
	 viewBox="0 0 40 40" enable-background="new 0 0 40 40" xml:space="preserve">
<g id="Devices">
	<g id="WiFi">
		<g>
			<path fill-rule="evenodd" clip-rule="evenodd" fill="#1ABC9C" d="M20,25.9c-0.8,0-1.6,0.4-2,1.1l2,2l2-2
				C21.6,26.4,20.8,25.9,20,25.9z M20,16.3c-3.3,0-6.3,1.3-8.6,3.7l2.1,2.1c1.7-1.8,4.1-2.8,6.5-2.8c2.5,0,4.8,1,6.5,2.8l2.1-2.1
				C26.3,17.6,23.3,16.3,20,16.3z M14.4,23.4l2.1,2.1c0.9-1,2.2-1.5,3.5-1.5c1.3,0,2.6,0.5,3.5,1.5l2.1-2.1C24.1,21.9,22.1,21,20,21
				C17.9,21,15.9,21.9,14.4,23.4z"/>
		</g>
	</g>
	<g id="WiFi_1_">
		<g>
			<path fill-rule="evenodd" clip-rule="evenodd" fill="#ECF0F1" d="M20,7C14.5,7,9.4,9.2,5.5,13.1l2.1,2.1C10.9,11.9,15.3,10,20,10
				s9.1,1.9,12.4,5.3l2.1-2.1C30.6,9.2,25.5,7,20,7z M8.6,16.5l2.1,2.1c2.5-2.6,5.8-4,9.4-4c3.5,0,6.9,1.4,9.4,4l2.1-2.1
				c-3.1-3.1-7.1-4.9-11.4-4.9C15.7,11.7,11.6,13.4,8.6,16.5z"/>
		</g>
	</g>
</g>
<g id="Lockup">
</g>
</svg>
