<?xml version="1.0" encoding="utf-8"?>
<!-- Generator: Adobe Illustrator 18.0.0, SVG Export Plug-In . SVG Version: 6.00 Build 0)  -->
<!DOCTYPE svg PUBLIC "-//W3C//DTD SVG 1.1//EN" "http://www.w3.org/Graphics/SVG/1.1/DTD/svg11.dtd">
<svg version="1.1" xmlns="http://www.w3.org/2000/svg" xmlns:xlink="http://www.w3.org/1999/xlink" x="0px" y="0px"
	 viewBox="0 0 40 40" enable-background="new 0 0 40 40" xml:space="preserve">
<g id="Devices">
	<g id="Wireless_Keyboard">
		<rect x="5" y="11" fill-rule="evenodd" clip-rule="evenodd" fill="#ECF0F1" width="29" height="19"/>
	</g>
	<g id="Wireless_Keyboard_1_">
		<path fill-rule="evenodd" clip-rule="evenodd" fill="#1ABC9C" d="M15,14h-3v1h3V14z M19,14h-3v1h3V14z M23,14h-3v1h3V14z M27,14
			h-3v1h3V14z M11,14H8v1h3V14z M28,14v1h3v-1H28z M15,16h-3v3h3V16z M19,16h-3v3h3V16z M23,16h-3v3h3V16z M27,16h-3v3h3V16z M28,19
			h3v-3h-3V19z M11,16H8v3h3V16z M26,23h3v-3h-3V23z M28,27h3v-3h-3V27z M8,27h3v-3H8V27z M10,23h3v-3h-3V23z M12,27h15v-3H12V27z
			 M22,23h3v-3h-3V23z M18,23h3v-3h-3V23z M14,23h3v-3h-3V23z"/>
	</g>
</g>
<g id="Lockup">
</g>
</svg>
