<?xml version="1.0" encoding="iso-8859-1"?>
<!-- Generator: Adobe Illustrator 16.0.0, SVG Export Plug-In . SVG Version: 6.00 Build 0)  -->
<!DOCTYPE svg PUBLIC "-//W3C//DTD SVG 1.1//EN" "http://www.w3.org/Graphics/SVG/1.1/DTD/svg11.dtd">
<svg version="1.1" id="Layer_1" xmlns="http://www.w3.org/2000/svg" xmlns:xlink="http://www.w3.org/1999/xlink" x="0px" y="0px"
	 width="64px" height="55.973px" viewBox="0 0 64 55.973" style="enable-background:new 0 0 64 55.973;" xml:space="preserve">
<g id="Base_19_">
	<g>
		<path style="fill:#48A0DC;" d="M60,21.973H4c-2.209,0-4,1.791-4,4v26c0,2.209,1.791,4,4,4h56c2.209,0,4-1.791,4-4v-26
			C64,23.764,62.209,21.973,60,21.973z"/>
	</g>
</g>
<g id="_x32_4-7">
	<g>
		<path style="fill-rule:evenodd;clip-rule:evenodd;fill:#FFFFFF;" d="M57,30.252c-0.315-0.184-0.66-0.262-1-0.262v-0.018h-8
			c-1.105,0-2,0.895-2,1.999s0.895,2,2,2h4.556l-6.289,10.97c-0.552,0.964-0.224,2.195,0.732,2.752
			c0.957,0.556,2.18,0.226,2.732-0.737l8-13.954C58.283,32.039,57.956,30.808,57,30.252z M16,43.972h-3.334l3.576-3.756
			C17.328,39.13,18,37.629,18,35.972c0-3.313-2.687-6-6-6c-3.314,0-6,2.687-6,6c0,1.104,0.896,2,2,2s2-0.896,2-2
			s0.895-1.999,2-1.999c1.104,0,2,0.895,2,1.999c0,0.552-0.224,1.052-0.586,1.414l-0.001,0.001
			c-0.362,0.361-0.861,0.585-1.413,0.585v0.899l-5.414,5.686C6.224,44.919,6,45.42,6,45.973c0,1.104,0.896,1.999,2,1.999h8
			c1.104,0,2-0.896,2-1.999C18,44.867,17.104,43.972,16,43.972z M40,37.972h-4c-1.104,0-2,0.896-2,2.001
			c0,1.104,0.896,1.999,2,1.999h4c1.104,0,2-0.896,2-1.999C42,38.867,41.104,37.972,40,37.972z M30,39.972v-7.999
			c0-1.013-0.755-1.84-1.731-1.973c-0.691-0.122-1.424,0.121-1.907,0.72l-7.878,9.759c-0.314,0.39-0.462,0.861-0.468,1.333
			C18.012,41.865,18,41.917,18,41.973c0,1.047,0.809,1.897,1.835,1.982c0,0,0.001,0,0.001,0c0.055,0.005,0.108,0.017,0.164,0.017h6
			v2.001c0,1.104,0.895,2,2,2c1.105,0,2-0.896,2-2v-2.001c1.104,0,2-0.896,2-1.999C32,40.867,31.104,39.972,30,39.972z M26,39.972
			h-1.774L26,37.774V39.972z"/>
	</g>
</g>
<g id="Nail">
	<g>
		<circle style="fill:#666666;" cx="32" cy="7.973" r="4"/>
	</g>
</g>
<g id="String_2_">
	<g>
		<path style="fill:#A67C52;" d="M37.657,2.315C36.093,0.751,34.046-0.009,32,0c-2.046-0.009-4.093,0.751-5.657,2.315L6.686,21.973
			h5.657L29.171,5.144c0,0,0.829-1.171,2.829-1.171s2.828,1.171,2.828,1.171l16.829,16.829h5.657L37.657,2.315z"/>
	</g>
</g>
<g>
</g>
<g>
</g>
<g>
</g>
<g>
</g>
<g>
</g>
<g>
</g>
<g>
</g>
<g>
</g>
<g>
</g>
<g>
</g>
<g>
</g>
<g>
</g>
<g>
</g>
<g>
</g>
<g>
</g>
</svg>
