<?xml version="1.0" encoding="iso-8859-1"?>
<!-- Generator: Adobe Illustrator 16.0.0, SVG Export Plug-In . SVG Version: 6.00 Build 0)  -->
<!DOCTYPE svg PUBLIC "-//W3C//DTD SVG 1.1//EN" "http://www.w3.org/Graphics/SVG/1.1/DTD/svg11.dtd">
<svg version="1.1" id="Layer_1" xmlns="http://www.w3.org/2000/svg" xmlns:xlink="http://www.w3.org/1999/xlink" x="0px" y="0px"
	 width="64px" height="64px" viewBox="0 0 64 64" style="enable-background:new 0 0 64 64;" xml:space="preserve">
<g id="Base_15_">
	<g>
		<path style="fill:#A67C52;" d="M60,0H3.999C1.79,0,0,1.791,0,4v56c0,2.209,1.79,4,3.999,4H60c2.209,0,4-1.791,4-4V4
			C64,1.791,62.209,0,60,0z"/>
	</g>
</g>
<g id="Container_11_">
	<g>
		<path style="fill:#FFFFFF;" d="M57.999,4H6C4.895,4,3.999,4.896,3.999,6v52c0,1.104,0.896,2,2.001,2h51.999
			C59.104,60,60,59.104,60,58V6C60,4.896,59.104,4,57.999,4z"/>
	</g>
</g>
<g id="Strings">
	<g>
		<path style="fill-rule:evenodd;clip-rule:evenodd;fill:#999999;" d="M3.999,14v4H60v-4H3.999z M3.999,34H60v-4H3.999V34z
			 M3.999,50.001H60V46H3.999V50.001z"/>
	</g>
</g>
<g id="Balls">
	<g>
		<path style="fill-rule:evenodd;clip-rule:evenodd;fill:#48A0DC;" d="M7.999,12c-2.209,0-4,1.791-4,4c0,2.21,1.791,4,4,4
			C10.209,20,12,18.21,12,16C12,13.791,10.209,12,7.999,12z M16,12c-2.21,0-4,1.791-4,4c0,2.21,1.79,4,4,4
			c2.209,0,3.999-1.79,3.999-4C19.999,13.791,18.209,12,16,12z M24,12c-2.21,0-4.001,1.791-4.001,4c0,2.21,1.791,4,4.001,4
			c2.209,0,4-1.79,4-4C28,13.791,26.209,12,24,12z M52,12c-2.21,0-4,1.791-4,4c0,2.21,1.79,4,4,4c2.209,0,3.999-1.79,3.999-4
			C55.999,13.791,54.209,12,52,12z"/>
	</g>
</g>
<g id="Balls_3_">
	<g>
		<path style="fill-rule:evenodd;clip-rule:evenodd;fill:#ED7161;" d="M7.999,44c-2.209,0-4,1.791-4,4s1.791,4,4,4
			C10.209,52,12,50.209,12,48S10.209,44,7.999,44z M16,44c-2.21,0-4,1.791-4,4s1.79,4,4,4c2.209,0,3.999-1.791,3.999-4
			S18.209,44,16,44z M24,44c-2.21,0-4.001,1.791-4.001,4S21.79,52,24,52c2.209,0,4-1.791,4-4S26.209,44,24,44z M32,44
			c-2.21,0-4,1.791-4,4s1.79,4,4,4c2.209,0,4-1.791,4-4S34.209,44,32,44z"/>
	</g>
</g>
<g id="Balls_2_">
	<g>
		<path style="fill-rule:evenodd;clip-rule:evenodd;fill:#88C057;" d="M7.999,28c-2.209,0-4,1.791-4,4s1.791,4,4,4
			C10.209,36,12,34.209,12,32S10.209,28,7.999,28z M16,28c-2.21,0-4,1.791-4,4s1.79,4,4,4c2.209,0,3.999-1.791,3.999-4
			S18.209,28,16,28z M36,28c-2.21,0-4,1.791-4,4s1.79,4,4,4c2.209,0,3.999-1.791,3.999-4S38.209,28,36,28z M55.999,28
			C53.79,28,52,29.791,52,32s1.79,4,3.999,4C58.209,36,60,34.209,60,32S58.209,28,55.999,28z"/>
	</g>
</g>
<g>
</g>
<g>
</g>
<g>
</g>
<g>
</g>
<g>
</g>
<g>
</g>
<g>
</g>
<g>
</g>
<g>
</g>
<g>
</g>
<g>
</g>
<g>
</g>
<g>
</g>
<g>
</g>
<g>
</g>
</svg>
