<?xml version="1.0" encoding="iso-8859-1"?>
<!-- Generator: Adobe Illustrator 16.0.0, SVG Export Plug-In . SVG Version: 6.00 Build 0)  -->
<!DOCTYPE svg PUBLIC "-//W3C//DTD SVG 1.1//EN" "http://www.w3.org/Graphics/SVG/1.1/DTD/svg11.dtd">
<svg version="1.1" id="Layer_1" xmlns="http://www.w3.org/2000/svg" xmlns:xlink="http://www.w3.org/1999/xlink" x="0px" y="0px"
	 width="64px" height="64px" viewBox="0 0 64 64" style="enable-background:new 0 0 64 64;" xml:space="preserve">
<g id="Bottom">
	<g>
		<path style="fill:#CCCCCC;" d="M0,40v20c0,2.209,1.791,4,4,4h56c2.209,0,4-1.791,4-4V40H0z"/>
	</g>
</g>
<g id="Top_3_">
	<g>
		<path style="fill:#E6E6E6;" d="M60,0H4C1.791,0,0,1.791,0,4v36.001h64V4C64,1.791,62.209,0,60,0z"/>
	</g>
</g>
<g id="Display_1_">
	<g>
		<path style="fill:#48A0DC;" d="M42,8H10c-1.104,0-2,0.896-2,2.001v24C8,35.105,8.896,36,10,36h32c1.104,0,2-0.895,2-1.999v-24
			C44,8.896,43.104,8,42,8z"/>
	</g>
</g>
<g id="Buttons">
	<g>
		<path style="fill-rule:evenodd;clip-rule:evenodd;fill:#999999;" d="M50,12h4c1.104,0,2-0.896,2-1.999C56,8.896,55.104,8,54,8h-4
			c-1.104,0-2,0.896-2,2.001C48,11.104,48.896,12,50,12z M54,16h-4c-1.104,0-2,0.896-2,2.001C48,19.105,48.896,20,50,20h4
			c1.104,0,2-0.895,2-1.999C56,16.896,55.104,16,54,16z M54,24.001h-4c-1.104,0-2,0.895-2,2C48,27.105,48.896,28,50,28h4
			c1.104,0,2-0.895,2-1.999C56,24.896,55.104,24.001,54,24.001z M54,32.001h-4c-1.104,0-2,0.895-2,2C48,35.105,48.896,36,50,36h4
			c1.104,0,2-0.895,2-1.999C56,32.896,55.104,32.001,54,32.001z"/>
	</g>
</g>
<g id="Slot_2_">
	<g>
		<path style="fill:#999999;" d="M54,44H10c-1.104,0-2,0.896-2,2.001v8c0,1.104,0.896,2,2,2h44c1.104,0,2-0.896,2-2v-8
			C56,44.896,55.104,44,54,44z"/>
	</g>
</g>
<g id="Slot_3_">
	<g>
		<path style="fill:#666666;" d="M50,48.001H14c-1.104,0-2,0.895-2,2C12,51.104,12.896,52,14,52h36c1.104,0,2-0.896,2-1.999
			C52,48.896,51.104,48.001,50,48.001z"/>
	</g>
</g>
<g id="Money_3_">
	<g>
		<path style="fill:#88C057;" d="M48,48.001H16l-2,10C14,59.104,14.896,60,16,60h32c1.104,0,2-0.896,2-1.999L48,48.001z"/>
	</g>
</g>
<g id="Money_2_">
	<g>
		<path style="fill-rule:evenodd;clip-rule:evenodd;fill:#AEE67E;" d="M44.399,50.001H32c2.209,0,4,1.343,4,2.999
			c0,1.657-1.791,3.001-4,3.001h13.6L44.399,50.001z M28,53c0-1.656,1.791-2.999,4-2.999H19.6l-1.199,6H32
			C29.791,56.001,28,54.657,28,53z"/>
	</g>
</g>
<g>
</g>
<g>
</g>
<g>
</g>
<g>
</g>
<g>
</g>
<g>
</g>
<g>
</g>
<g>
</g>
<g>
</g>
<g>
</g>
<g>
</g>
<g>
</g>
<g>
</g>
<g>
</g>
<g>
</g>
</svg>
