<?xml version="1.0" encoding="iso-8859-1"?>
<!-- Generator: Adobe Illustrator 16.0.0, SVG Export Plug-In . SVG Version: 6.00 Build 0)  -->
<!DOCTYPE svg PUBLIC "-//W3C//DTD SVG 1.1//EN" "http://www.w3.org/Graphics/SVG/1.1/DTD/svg11.dtd">
<svg version="1.1" id="Layer_1" xmlns="http://www.w3.org/2000/svg" xmlns:xlink="http://www.w3.org/1999/xlink" x="0px" y="0px"
	 width="64px" height="64px" viewBox="0 0 64 64" style="enable-background:new 0 0 64 64;" xml:space="preserve">
<g id="Base_13_">
	<g>
		<path style="fill:#CCA352;" d="M62.838,17.982L46.017,1.161c-1.548-1.548-4.059-1.548-5.606,0l-39.25,39.25
			c-1.548,1.549-1.548,4.06,0,5.607L17.982,62.84c1.548,1.547,4.059,1.547,5.607,0l39.249-39.25
			C64.387,22.042,64.387,19.532,62.838,17.982z"/>
	</g>
</g>
<g id="Graphics_3_">
	<g>
		<path style="fill-rule:evenodd;clip-rule:evenodd;fill:#FFCC66;" d="M20.042,29.675l-9.371,9.372
			c0.829,0.732,1.362,1.791,1.362,2.984c0,1.472-0.803,2.744-1.986,3.438l8.548,8.547c0.694-1.183,1.966-1.986,3.438-1.986
			c1.161,0,2.197,0.503,2.928,1.293l9.291-9.291c-3.488,0.165-7.229-1.22-10.114-4.097C21.203,37.009,19.82,33.203,20.042,29.675z
			 M25.983,25.988c-2.906,2.906-2.555,7.968,0.785,11.306c1.653,1.653,3.729,2.571,5.757,2.727c-0.36-1.049-0.528-2.608-0.494-4.036
			c-0.934-0.128-1.872-0.562-2.631-1.321c-1.67-1.67-1.846-4.2-0.393-5.653c1.453-1.453,3.984-1.277,5.654,0.392
			c0.76,0.76,1.193,1.698,1.322,2.632c1.427-0.034,2.987,0.133,4.036,0.494c-0.156-2.027-1.074-4.103-2.727-5.755
			C33.952,23.435,28.889,23.082,25.983,25.988z M54.016,18.594l-8.548-8.548c-0.694,1.184-1.966,1.987-3.438,1.987
			c-1.193,0-2.252-0.533-2.985-1.362l-9.442,9.442c3.546-0.231,7.377,1.148,10.319,4.082c2.876,2.868,4.267,6.584,4.111,10.054
			l9.289-9.289c-0.791-0.73-1.293-1.767-1.293-2.929C52.028,20.561,52.832,19.289,54.016,18.594z"/>
	</g>
</g>
<g>
</g>
<g>
</g>
<g>
</g>
<g>
</g>
<g>
</g>
<g>
</g>
<g>
</g>
<g>
</g>
<g>
</g>
<g>
</g>
<g>
</g>
<g>
</g>
<g>
</g>
<g>
</g>
<g>
</g>
</svg>
