<?xml version="1.0" encoding="iso-8859-1"?>
<!-- Generator: Adobe Illustrator 16.0.0, SVG Export Plug-In . SVG Version: 6.00 Build 0)  -->
<!DOCTYPE svg PUBLIC "-//W3C//DTD SVG 1.1//EN" "http://www.w3.org/Graphics/SVG/1.1/DTD/svg11.dtd">
<svg version="1.1" id="Layer_1" xmlns="http://www.w3.org/2000/svg" xmlns:xlink="http://www.w3.org/1999/xlink" x="0px" y="0px"
	 width="64px" height="64px" viewBox="0 0 64 64" style="enable-background:new 0 0 64 64;" xml:space="preserve">
<g id="Base_12_">
	<g>
		<path style="fill:#75A64B;" d="M62.839,17.982L46.018,1.161c-1.548-1.548-4.059-1.548-5.607,0L1.162,40.412
			c-1.549,1.549-1.549,4.06,0,5.607l16.82,16.821c1.549,1.547,4.06,1.547,5.607,0l39.25-39.25
			C64.387,22.042,64.387,19.532,62.839,17.982z"/>
	</g>
</g>
<g id="Graphics_2_">
	<g>
		<path style="fill-rule:evenodd;clip-rule:evenodd;fill:#99D962;" d="M25.983,25.988c-2.906,2.906-2.554,7.968,0.786,11.306
			c1.653,1.653,3.729,2.571,5.757,2.727c-0.361-1.049-0.528-2.608-0.494-4.036c-0.934-0.129-1.872-0.562-2.631-1.321
			c-1.67-1.67-1.846-4.2-0.392-5.653c1.452-1.453,3.984-1.277,5.654,0.392c0.76,0.76,1.193,1.698,1.322,2.632
			c1.428-0.034,2.988,0.134,4.037,0.494c-0.156-2.027-1.074-4.103-2.728-5.755C33.953,23.435,28.89,23.082,25.983,25.988z
			 M20.042,29.675l-9.371,9.371c0.829,0.732,1.362,1.791,1.362,2.984c0,1.472-0.803,2.744-1.987,3.438l8.547,8.548
			c0.694-1.184,1.966-1.987,3.438-1.987c1.161,0,2.198,0.503,2.928,1.293l9.292-9.291c-3.488,0.165-7.229-1.22-10.114-4.097
			C21.204,37.009,19.82,33.203,20.042,29.675z M54.017,18.594l-8.549-8.547c-0.694,1.184-1.966,1.987-3.438,1.987
			c-1.193,0-2.251-0.533-2.984-1.362l-9.442,9.442c3.546-0.231,7.377,1.148,10.32,4.082c2.876,2.868,4.267,6.584,4.111,10.054
			l9.289-9.289c-0.791-0.73-1.293-1.767-1.293-2.929C52.029,20.561,52.833,19.289,54.017,18.594z"/>
	</g>
</g>
<g>
</g>
<g>
</g>
<g>
</g>
<g>
</g>
<g>
</g>
<g>
</g>
<g>
</g>
<g>
</g>
<g>
</g>
<g>
</g>
<g>
</g>
<g>
</g>
<g>
</g>
<g>
</g>
<g>
</g>
</svg>
