<?xml version="1.0" encoding="iso-8859-1"?>
<!-- Generator: Adobe Illustrator 16.0.0, SVG Export Plug-In . SVG Version: 6.00 Build 0)  -->
<!DOCTYPE svg PUBLIC "-//W3C//DTD SVG 1.1//EN" "http://www.w3.org/Graphics/SVG/1.1/DTD/svg11.dtd">
<svg version="1.1" id="Layer_1" xmlns="http://www.w3.org/2000/svg" xmlns:xlink="http://www.w3.org/1999/xlink" x="0px" y="0px"
	 width="64px" height="63.999px" viewBox="0 0 64 63.999" style="enable-background:new 0 0 64 63.999;" xml:space="preserve">
<g id="Columns">
	<g>
		<path style="fill-rule:evenodd;clip-rule:evenodd;fill:#B3B3B3;" d="M58,51.999L58,51.999C57.999,50.894,57.104,50,56,50V24
			c1.104,0,2-0.896,2-2s-0.896-2.001-2-2.001h-6c-1.104,0-2,0.896-2,2.001s0.896,2,2,2v26c-1.104,0-1.999,0.894-2,1.999h-4
			C43.999,50.894,43.104,50,42,50V24c1.104,0,2-0.896,2-2s-0.896-2.001-2-2.001h-6c-1.104,0-2,0.896-2,2.001s0.896,2,2,2v26
			c-1.104,0-1.999,0.894-2,1.999h-4C29.999,50.894,29.104,50,28,50V24c1.104,0,2-0.896,2-2s-0.896-2.001-2-2.001h-6
			c-1.104,0-2,0.896-2,2.001s0.896,2,2,2v26c-1.104,0-1.999,0.894-2,1.999h-4C15.999,50.894,15.104,50,14,50V24c1.104,0,2-0.896,2-2
			s-0.896-2.001-2-2.001H8c-1.104,0-2,0.896-2,2.001s0.896,2,2,2v26c-1.104,0-1.999,0.894-2,1.999l0,0c-1.104,0-2,0.896-2,2.001
			v1.999h56V54C60,52.895,59.104,51.999,58,51.999z"/>
	</g>
</g>
<g id="Base_24_">
	<g>
		<path style="fill-rule:evenodd;clip-rule:evenodd;fill:#CCCCCC;" d="M4,22h56c1.898,0,3.537-1.335,3.918-3.196
			c0.383-1.859-0.598-3.733-2.342-4.481l-28.001-14C33.072,0.107,32.536,0,32,0s-1.072,0.107-1.575,0.322l-28,14
			C0.679,15.07-0.3,16.944,0.082,18.804C0.464,20.665,2.101,22,4,22z M62,56H2c-1.104,0-2,0.895-2,2v4c0,1.104,0.896,1.999,2,1.999
			h60c1.104,0,2-0.895,2-1.999v-4C64,56.895,63.104,56,62,56z"/>
	</g>
</g>
<g id="Roof">
	<g>
		<path style="fill-rule:evenodd;clip-rule:evenodd;fill:#E6E6E6;" d="M32,3.999L4,18h56L32,3.999z M32,16c-2.209,0-4-1.791-4-4.001
			C28,9.79,29.791,8,32,8s4,1.79,4,3.999C36,14.209,34.209,16,32,16z"/>
	</g>
</g>
<g>
</g>
<g>
</g>
<g>
</g>
<g>
</g>
<g>
</g>
<g>
</g>
<g>
</g>
<g>
</g>
<g>
</g>
<g>
</g>
<g>
</g>
<g>
</g>
<g>
</g>
<g>
</g>
<g>
</g>
</svg>
