<?xml version="1.0" encoding="iso-8859-1"?>
<!-- Generator: Adobe Illustrator 16.0.0, SVG Export Plug-In . SVG Version: 6.00 Build 0)  -->
<!DOCTYPE svg PUBLIC "-//W3C//DTD SVG 1.1//EN" "http://www.w3.org/Graphics/SVG/1.1/DTD/svg11.dtd">
<svg version="1.1" id="Layer_1" xmlns="http://www.w3.org/2000/svg" xmlns:xlink="http://www.w3.org/1999/xlink" x="0px" y="0px"
	 width="64px" height="64px" viewBox="0 0 64 64" style="enable-background:new 0 0 64 64;" xml:space="preserve">
<g id="_x31_322">
	<g>
		<path style="fill-rule:evenodd;clip-rule:evenodd;fill:#666666;" d="M12,51.999c0-3.313-2.687-6-6-6c-3.314,0-6,2.687-6,6
			C0,53.104,0.895,54,2,54c1.104,0,2-0.896,2-2.001C4,50.896,4.895,50,6,50c1.104,0,2,0.896,2,1.999
			c0,0.553-0.224,1.053-0.586,1.415v0C7.052,53.776,6.552,54,6,54v0.899l-5.414,5.686C0.224,60.947,0,61.447,0,62
			c0,1.104,0.895,2,2,2h8c1.104,0,2-0.896,2-2s-0.896-2.001-2-2.001H6.665l3.573-3.752C11.326,55.16,12,53.658,12,51.999z M36,48
			c0-1.104-0.896-2-2-2h-8c-1.105,0-2,0.896-2,2s0.895,2,2,2h4.309l-1.724,2.586C28.224,52.948,28,53.448,28,54
			c0,1.104,0.895,1.999,2,1.999c1.104,0,2,0.896,2,2.001s-0.896,1.999-2,1.999c-1.105,0-2-0.895-2-1.999s-0.896-2.001-2-2.001
			c-1.105,0-2,0.896-2,2.001c0,3.313,2.686,6,6,6c3.313,0,6-2.687,6-6c0-2.174-1.161-4.073-2.893-5.126l2.307-3.46
			C35.776,49.052,36,48.552,36,48z M46,59.999L46,59.999L45.999,48.01C45.999,48.006,46,48.003,46,48
			c0-0.553-0.225-1.053-0.587-1.415c-0.361-0.362-0.861-0.586-1.414-0.586c-0.003,0-0.007,0.001-0.01,0.001H42c-1.105,0-2,0.896-2,2
			s0.894,2,1.999,2v9.999C40.894,60,40,60.896,40,62s0.895,2,2,2h4c1.104,0,2-0.896,2-2S47.104,59.999,46,59.999z M62,59.999h-3.335
			l3.573-3.752C63.326,55.16,64,53.658,64,51.999c0-3.313-2.687-6-6-6c-3.314,0-6,2.687-6,6C52,53.104,52.896,54,54,54
			s2-0.896,2-2.001C56,50.896,56.896,50,58,50s2,0.896,2,1.999c0,0.553-0.224,1.053-0.586,1.415v0C59.052,53.776,58.552,54,58,54
			v0.899l-5.411,5.683C52.226,60.945,52,61.446,52,62c0,1.104,0.896,2,2,2h8c1.104,0,2-0.896,2-2S63.104,59.999,62,59.999z"/>
	</g>
</g>
<g id="Barcode">
	<g>
		<path style="fill-rule:evenodd;clip-rule:evenodd;fill:#666666;" d="M24,0h-2c-1.104,0-2,0.896-2,2v38
			c0,1.105,0.896,2.001,2,2.001h2c1.104,0,2-0.896,2-2.001V2C26,0.896,25.104,0,24,0z M4,0C2.896,0,2,0.896,2,2v38
			c0,1.105,0.896,2.001,2,2.001S6,41.105,6,40V2C6,0.896,5.104,0,4,0z M14,0c-1.105,0-2,0.896-2,2v38c0,1.105,0.895,2.001,2,2.001
			c1.104,0,2-0.896,2-2.001V2C16,0.896,15.104,0,14,0z M42,0h-2c-1.104,0-2,0.896-2,2v38c0,1.105,0.896,2.001,2,2.001h2
			c1.104,0,2-0.896,2-2.001V2C44,0.896,43.104,0,42,0z M32,0c-1.105,0-2,0.896-2,2v38c0,1.105,0.895,2.001,2,2.001
			c1.104,0,2-0.896,2-2.001V2C34,0.896,33.104,0,32,0z M52,0h-2c-1.105,0-2,0.896-2,2v38c0,1.105,0.895,2.001,2,2.001h2
			c1.104,0,2-0.896,2-2.001V2C54,0.896,53.104,0,52,0z M60,0c-1.104,0-2,0.896-2,2v38c0,1.105,0.896,2.001,2,2.001s2-0.896,2-2.001
			V2C62,0.896,61.104,0,60,0z"/>
	</g>
</g>
<g id="Beam_1_">
	<g>
		<path style="fill:#ED7161;" d="M62,28.001H2c-1.105,0-2,0.895-2,2C0,31.105,0.895,32,2,32h60c1.104,0,2-0.895,2-1.999
			C64,28.896,63.104,28.001,62,28.001z"/>
	</g>
</g>
<g>
</g>
<g>
</g>
<g>
</g>
<g>
</g>
<g>
</g>
<g>
</g>
<g>
</g>
<g>
</g>
<g>
</g>
<g>
</g>
<g>
</g>
<g>
</g>
<g>
</g>
<g>
</g>
<g>
</g>
</svg>
