<?xml version="1.0" encoding="iso-8859-1"?>
<!-- Generator: Adobe Illustrator 16.0.0, SVG Export Plug-In . SVG Version: 6.00 Build 0)  -->
<!DOCTYPE svg PUBLIC "-//W3C//DTD SVG 1.1//EN" "http://www.w3.org/Graphics/SVG/1.1/DTD/svg11.dtd">
<svg version="1.1" id="Layer_1" xmlns="http://www.w3.org/2000/svg" xmlns:xlink="http://www.w3.org/1999/xlink" x="0px" y="0px"
	 width="64px" height="52.037px" viewBox="0 0 64 52.037" style="enable-background:new 0 0 64 52.037;" xml:space="preserve">
<g id="Base_21_">
	<g>
		<path style="fill-rule:evenodd;clip-rule:evenodd;fill:#D46557;" d="M4,24.037l4,24c0,2.209,1.791,4,4,4h40c2.209,0,4-1.791,4-4
			l4-24H4z M18,44.037c0,1.104-0.896,2-2,2s-2-0.896-2-2v-14c0-1.105,0.896-2,2-2s2,0.895,2,2V44.037z M26,44.037
			c0,1.104-0.896,2-2,2s-2-0.896-2-2v-14c0-1.105,0.896-2,2-2s2,0.895,2,2V44.037z M34,44.037c0,1.104-0.896,2-2,2s-2-0.896-2-2v-14
			c0-1.105,0.896-2,2-2s2,0.895,2,2V44.037z M42,44.037c0,1.104-0.896,2-2,2s-2-0.896-2-2v-14c0-1.105,0.896-2,2-2s2,0.895,2,2
			V44.037z M50,44.037c0,1.104-0.896,2-2,2c-1.105,0-2-0.896-2-2v-14c0-1.105,0.895-2,2-2c1.104,0,2,0.895,2,2V44.037z"/>
	</g>
</g>
<g id="Margin_1_">
	<g>
		<path style="fill:#ED7161;" d="M60,16.037H4c-2.209,0-4,1.791-4,4s1.791,4,4,4h56c2.209,0,4-1.791,4-4S62.209,16.037,60,16.037z"
			/>
	</g>
</g>
<g id="Handles_2_">
	<g>
		<path style="fill-rule:evenodd;clip-rule:evenodd;fill:#999999;" d="M43.731,18.967l-10-17.932
			c-0.019-0.034-0.044-0.061-0.064-0.093c-0.04-0.063-0.081-0.125-0.128-0.185c-0.041-0.051-0.085-0.099-0.13-0.145
			c-0.046-0.047-0.092-0.093-0.143-0.136c-0.056-0.048-0.114-0.089-0.174-0.13C33.061,0.325,33.034,0.298,33,0.277
			c-0.02-0.012-0.041-0.018-0.062-0.029c-0.063-0.035-0.127-0.062-0.192-0.089c-0.059-0.024-0.116-0.05-0.176-0.068
			c-0.062-0.019-0.124-0.031-0.188-0.044c-0.063-0.013-0.127-0.027-0.192-0.034C32.127,0.008,32.063,0.009,32,0.009
			c-0.064,0-0.128-0.001-0.191,0.005c-0.064,0.007-0.128,0.021-0.191,0.034c-0.063,0.013-0.127,0.025-0.188,0.044
			c-0.059,0.018-0.115,0.043-0.173,0.067c-0.066,0.028-0.133,0.056-0.196,0.091C31.04,0.26,31.02,0.266,31,0.277
			c-0.033,0.02-0.059,0.046-0.091,0.067c-0.061,0.042-0.12,0.084-0.178,0.133c-0.049,0.042-0.095,0.087-0.139,0.133
			c-0.047,0.048-0.092,0.097-0.134,0.149c-0.045,0.057-0.085,0.117-0.124,0.178C30.313,0.972,30.287,1,30.268,1.035l-10,17.932
			c-0.552,0.99-0.225,2.258,0.732,2.829c0.956,0.571,2.18,0.232,2.731-0.758L32,6.212l8.268,14.826
			c0.553,0.99,1.775,1.329,2.732,0.758C43.956,21.225,44.284,19.957,43.731,18.967z"/>
	</g>
</g>
<g>
</g>
<g>
</g>
<g>
</g>
<g>
</g>
<g>
</g>
<g>
</g>
<g>
</g>
<g>
</g>
<g>
</g>
<g>
</g>
<g>
</g>
<g>
</g>
<g>
</g>
<g>
</g>
<g>
</g>
</svg>
