<?xml version="1.0" encoding="iso-8859-1"?>
<!-- Generator: Adobe Illustrator 16.0.0, SVG Export Plug-In . SVG Version: 6.00 Build 0)  -->
<!DOCTYPE svg PUBLIC "-//W3C//DTD SVG 1.1//EN" "http://www.w3.org/Graphics/SVG/1.1/DTD/svg11.dtd">
<svg version="1.1" id="Layer_1" xmlns="http://www.w3.org/2000/svg" xmlns:xlink="http://www.w3.org/1999/xlink" x="0px" y="0px"
	 width="64px" height="64px" viewBox="0 0 64 64" style="enable-background:new 0 0 64 64;" xml:space="preserve">
<g id="Grid_2_">
	<g>
		<path style="fill-rule:evenodd;clip-rule:evenodd;fill:#CCCCCC;" d="M62,59.999H4v-58C4,0.895,3.104,0,2,0S0,0.895,0,1.999V62
			c0,1.104,0.896,2,2,2h60c1.104,0,2-0.896,2-2C64,60.895,63.104,59.999,62,59.999z M10,15.999c1.104,0,2-0.896,2-2s-0.896-2-2-2
			c-1.105,0-2,0.896-2,2S8.895,15.999,10,15.999z M18,15.999c1.104,0,2-0.896,2-2s-0.896-2-2-2c-1.105,0-2,0.896-2,2
			S16.895,15.999,18,15.999z M26,15.999c1.104,0,2-0.896,2-2s-0.896-2-2-2c-1.105,0-2,0.896-2,2S24.895,15.999,26,15.999z
			 M34,15.999c1.104,0,2-0.896,2-2s-0.896-2-2-2c-1.105,0-2,0.896-2,2S32.895,15.999,34,15.999z M42,15.999c1.104,0,2-0.896,2-2
			s-0.896-2-2-2c-1.105,0-2,0.896-2,2S40.895,15.999,42,15.999z M50,15.999c1.104,0,2-0.896,2-2s-0.896-2-2-2c-1.105,0-2,0.896-2,2
			S48.895,15.999,50,15.999z M10,23.999c1.104,0,2-0.896,2-2s-0.896-2-2-2c-1.105,0-2,0.896-2,2S8.895,23.999,10,23.999z M18,23.999
			c1.104,0,2-0.896,2-2s-0.896-2-2-2c-1.105,0-2,0.896-2,2S16.895,23.999,18,23.999z M26,23.999c1.104,0,2-0.896,2-2s-0.896-2-2-2
			c-1.105,0-2,0.896-2,2S24.895,23.999,26,23.999z M34,23.999c1.104,0,2-0.896,2-2s-0.896-2-2-2c-1.105,0-2,0.896-2,2
			S32.895,23.999,34,23.999z M42,23.999c1.104,0,2-0.896,2-2s-0.896-2-2-2c-1.105,0-2,0.896-2,2S40.895,23.999,42,23.999z
			 M50,23.999c1.104,0,2-0.896,2-2s-0.896-2-2-2c-1.105,0-2,0.896-2,2S48.895,23.999,50,23.999z M10,31.999c1.104,0,2-0.896,2-2
			s-0.896-2-2-2c-1.105,0-2,0.896-2,2S8.895,31.999,10,31.999z M18,31.999c1.104,0,2-0.896,2-2s-0.896-2-2-2c-1.105,0-2,0.896-2,2
			S16.895,31.999,18,31.999z M26,31.999c1.104,0,2-0.896,2-2s-0.896-2-2-2c-1.105,0-2,0.896-2,2S24.895,31.999,26,31.999z
			 M34,31.999c1.104,0,2-0.896,2-2s-0.896-2-2-2c-1.105,0-2,0.896-2,2S32.895,31.999,34,31.999z M42,31.999c1.104,0,2-0.896,2-2
			s-0.896-2-2-2c-1.105,0-2,0.896-2,2S40.895,31.999,42,31.999z M50,31.999c1.104,0,2-0.896,2-2s-0.896-2-2-2c-1.105,0-2,0.896-2,2
			S48.895,31.999,50,31.999z M10,39.999c1.104,0,2-0.896,2-2s-0.896-2-2-2c-1.105,0-2,0.896-2,2S8.895,39.999,10,39.999z M18,39.999
			c1.104,0,2-0.896,2-2s-0.896-2-2-2c-1.105,0-2,0.896-2,2S16.895,39.999,18,39.999z M26,39.999c1.104,0,2-0.896,2-2s-0.896-2-2-2
			c-1.105,0-2,0.896-2,2S24.895,39.999,26,39.999z M34,39.999c1.104,0,2-0.896,2-2s-0.896-2-2-2c-1.105,0-2,0.896-2,2
			S32.895,39.999,34,39.999z M42,39.999c1.104,0,2-0.896,2-2s-0.896-2-2-2c-1.105,0-2,0.896-2,2S40.895,39.999,42,39.999z
			 M50,39.999c1.104,0,2-0.896,2-2s-0.896-2-2-2c-1.105,0-2,0.896-2,2S48.895,39.999,50,39.999z M10,48c1.104,0,2-0.896,2-2.001
			c0-1.104-0.896-2-2-2c-1.105,0-2,0.896-2,2C8,47.104,8.895,48,10,48z M18,48c1.104,0,2-0.896,2-2.001c0-1.104-0.896-2-2-2
			c-1.105,0-2,0.896-2,2C16,47.104,16.895,48,18,48z M26,48c1.104,0,2-0.896,2-2.001c0-1.104-0.896-2-2-2c-1.105,0-2,0.896-2,2
			C24,47.104,24.895,48,26,48z M34,48c1.104,0,2-0.896,2-2.001c0-1.104-0.896-2-2-2c-1.105,0-2,0.896-2,2C32,47.104,32.895,48,34,48
			z M42,48c1.104,0,2-0.896,2-2.001c0-1.104-0.896-2-2-2c-1.105,0-2,0.896-2,2C40,47.104,40.895,48,42,48z M50,48
			c1.104,0,2-0.896,2-2.001c0-1.104-0.896-2-2-2c-1.105,0-2,0.896-2,2C48,47.104,48.895,48,50,48z M10,55.999c1.104,0,2-0.895,2-2
			c0-1.104-0.896-2-2-2c-1.105,0-2,0.896-2,2C8,55.104,8.895,55.999,10,55.999z M18,55.999c1.104,0,2-0.895,2-2c0-1.104-0.896-2-2-2
			c-1.105,0-2,0.896-2,2C16,55.104,16.895,55.999,18,55.999z M26,55.999c1.104,0,2-0.895,2-2c0-1.104-0.896-2-2-2
			c-1.105,0-2,0.896-2,2C24,55.104,24.895,55.999,26,55.999z M34,55.999c1.104,0,2-0.895,2-2c0-1.104-0.896-2-2-2
			c-1.105,0-2,0.896-2,2C32,55.104,32.895,55.999,34,55.999z M42,55.999c1.104,0,2-0.895,2-2c0-1.104-0.896-2-2-2
			c-1.105,0-2,0.896-2,2C40,55.104,40.895,55.999,42,55.999z M50,55.999c1.104,0,2-0.895,2-2c0-1.104-0.896-2-2-2
			c-1.105,0-2,0.896-2,2C48,55.104,48.895,55.999,50,55.999z M10,7.999c1.104,0,2-0.896,2-2s-0.896-2-2-2c-1.105,0-2,0.896-2,2
			S8.895,7.999,10,7.999z M18,7.999c1.104,0,2-0.896,2-2s-0.896-2-2-2c-1.105,0-2,0.896-2,2S16.895,7.999,18,7.999z M26,7.999
			c1.104,0,2-0.896,2-2s-0.896-2-2-2c-1.105,0-2,0.896-2,2S24.895,7.999,26,7.999z M34,7.999c1.104,0,2-0.896,2-2s-0.896-2-2-2
			c-1.105,0-2,0.896-2,2S32.895,7.999,34,7.999z M42,7.999c1.104,0,2-0.896,2-2s-0.896-2-2-2c-1.105,0-2,0.896-2,2
			S40.895,7.999,42,7.999z M50,7.999c1.104,0,2-0.896,2-2s-0.896-2-2-2c-1.105,0-2,0.896-2,2S48.895,7.999,50,7.999z M58,15.999
			c1.104,0,2-0.896,2-2s-0.896-2-2-2s-2,0.896-2,2S56.896,15.999,58,15.999z M58,23.999c1.104,0,2-0.896,2-2s-0.896-2-2-2
			s-2,0.896-2,2S56.896,23.999,58,23.999z M58,31.999c1.104,0,2-0.896,2-2s-0.896-2-2-2s-2,0.896-2,2S56.896,31.999,58,31.999z
			 M58,39.999c1.104,0,2-0.896,2-2s-0.896-2-2-2s-2,0.896-2,2S56.896,39.999,58,39.999z M58,48c1.104,0,2-0.896,2-2.001
			c0-1.104-0.896-2-2-2s-2,0.896-2,2C56,47.104,56.896,48,58,48z M58,55.999c1.104,0,2-0.895,2-2c0-1.104-0.896-2-2-2s-2,0.896-2,2
			C56,55.104,56.896,55.999,58,55.999z M58,7.999c1.104,0,2-0.896,2-2s-0.896-2-2-2s-2,0.896-2,2S56.896,7.999,58,7.999z"/>
	</g>
</g>
<g id="Arrow_1_">
	<g>
		<path style="fill-rule:evenodd;clip-rule:evenodd;fill:#ED7161;" d="M58,36c-1.104,0-2,0.896-2,2v3l-8.336-8.335
			c-0.457-0.457-1.066-0.659-1.665-0.623c-0.598-0.036-1.208,0.166-1.665,0.623L40,37L27.664,24.665
			c-0.457-0.457-1.066-0.659-1.665-0.623c-0.598-0.036-1.208,0.166-1.665,0.623L20,29l-8.335-8.335
			c-0.847-0.848-2.221-0.848-3.067,0c-0.848,0.847-0.848,2.22,0,3.067l9.67,9.672c0.475,0.474,1.113,0.672,1.733,0.615
			c0.62,0.057,1.259-0.142,1.733-0.615L26,29.137l12.267,12.267c0.475,0.474,1.113,0.673,1.733,0.616
			c0.62,0.057,1.259-0.143,1.733-0.616L46,37.137L52.863,44H50c-1.105,0-2,0.896-2,2s0.895,2,2,2h7.4
			c0.305,0.057,0.617,0.042,0.919-0.032C59.271,47.814,60,46.995,60,46v-8C60,36.896,59.104,36,58,36z"/>
	</g>
</g>
<g>
</g>
<g>
</g>
<g>
</g>
<g>
</g>
<g>
</g>
<g>
</g>
<g>
</g>
<g>
</g>
<g>
</g>
<g>
</g>
<g>
</g>
<g>
</g>
<g>
</g>
<g>
</g>
<g>
</g>
</svg>
