<?xml version="1.0" encoding="iso-8859-1"?>
<!-- Generator: Adobe Illustrator 16.0.0, SVG Export Plug-In . SVG Version: 6.00 Build 0)  -->
<!DOCTYPE svg PUBLIC "-//W3C//DTD SVG 1.1//EN" "http://www.w3.org/Graphics/SVG/1.1/DTD/svg11.dtd">
<svg version="1.1" id="Layer_1" xmlns="http://www.w3.org/2000/svg" xmlns:xlink="http://www.w3.org/1999/xlink" x="0px" y="0px"
	 width="56px" height="63.999px" viewBox="0 0 56 63.999" style="enable-background:new 0 0 56 63.999;" xml:space="preserve">
<g id="File_1_">
	<g>
		<path style="fill:#CCCCCC;" d="M52.001,0h-48C1.791,0,0,1.79,0,4v55.999c0,2.21,1.791,4,4.001,4H38l18-18V4
			C56,1.79,54.21,0,52.001,0z"/>
	</g>
</g>
<g id="Container_8_">
	<g>
		<path style="fill:#FFFFFF;" d="M50,4H6.001c-1.105,0-2,0.896-2,2v52c0,1.104,0.895,1.999,2,1.999h30l16-15.999V6
			C52.001,4.896,51.104,4,50,4z"/>
	</g>
</g>
<g id="Corner_1_">
	<g>
		<path style="fill:#999999;" d="M42,45.999c-2.209,0-4,1.792-4,4.001v13.999l18-18H42z"/>
	</g>
</g>
<g id="Text_9_">
	<g>
		<path style="fill-rule:evenodd;clip-rule:evenodd;fill:#CCCCCC;" d="M14,27.999h16c1.104,0,2-0.895,2-1.999s-0.896-2.001-2-2.001
			H14c-1.104,0-2,0.896-2,2.001S12.896,27.999,14,27.999z M22.001,48H14c-1.104,0-2,0.895-2,1.999c0,1.105,0.896,2,2,2h8.001
			c1.104,0,1.999-0.895,1.999-2C24,48.895,23.105,48,22.001,48z M30,31.999H14c-1.104,0-2,0.896-2,2.001s0.896,1.999,2,1.999h16
			c1.104,0,2-0.895,2-1.999S31.104,31.999,30,31.999z"/>
	</g>
</g>
<g id="Price">
	<g>
		<path style="fill-rule:evenodd;clip-rule:evenodd;fill:#ED7161;" d="M38,27.999h4c1.105,0,2-0.895,2-2c0-1.104-0.895-2-2-2h-4
			c-1.104,0-2,0.896-2,2C36,27.104,36.896,27.999,38,27.999z M42,32h-4c-1.104,0-2,0.895-2,1.999c0,1.105,0.896,2,2,2h4
			c1.105,0,2-0.895,2-2C44,32.895,43.105,32,42,32z"/>
	</g>
</g>
<g id="Header">
	<g>
		<path style="fill:#ED7161;" d="M42.001,12h-28c-1.105,0-2,0.896-2,2.001v4c0,1.104,0.895,2,2,2h28c1.104,0,2-0.896,2-2v-4
			C44.001,12.896,43.105,12,42.001,12z"/>
	</g>
</g>
<g>
</g>
<g>
</g>
<g>
</g>
<g>
</g>
<g>
</g>
<g>
</g>
<g>
</g>
<g>
</g>
<g>
</g>
<g>
</g>
<g>
</g>
<g>
</g>
<g>
</g>
<g>
</g>
<g>
</g>
</svg>
