<?xml version="1.0" encoding="iso-8859-1"?>
<!-- Generator: Adobe Illustrator 16.0.0, SVG Export Plug-In . SVG Version: 6.00 Build 0)  -->
<!DOCTYPE svg PUBLIC "-//W3C//DTD SVG 1.1//EN" "http://www.w3.org/Graphics/SVG/1.1/DTD/svg11.dtd">
<svg version="1.1" id="Layer_1" xmlns="http://www.w3.org/2000/svg" xmlns:xlink="http://www.w3.org/1999/xlink" x="0px" y="0px"
	 width="48px" height="63.999px" viewBox="0 0 48 63.999" style="enable-background:new 0 0 48 63.999;" xml:space="preserve">
<g id="Bitcoin">
	<g>
		<path style="fill-rule:evenodd;clip-rule:evenodd;fill:#FFCC66;" d="M41.388,30.123C43.026,27.831,44,25.031,44,21.999
			c0-7.731-6.268-14-14-14V8h-2V3.999C28,1.79,26.209,0,24,0c-2.209,0-4,1.79-4,3.999V8h-4V3.999C16,1.79,14.209,0,12,0
			C9.791,0,8,1.79,8,3.999V8H4c-2.209,0-4,1.79-4,3.999C0,14.209,1.791,16,4,16h4v32H4c-2.209,0-4,1.79-4,4c0,2.209,1.791,4,4,4h4v4
			c0,2.209,1.791,3.999,4,3.999c2.209,0,4-1.79,4-3.999v-4h4v4c0,2.209,1.791,3.999,4,3.999c2.209,0,4-1.79,4-3.999v-4h6
			c7.732,0,14-6.269,14-14C48,36.983,45.353,32.595,41.388,30.123z M30,16c3.313,0,6,2.686,6,5.999c0,3.314-2.687,6-6,6H16V16H30z
			 M34,48H16V35.999h14c1.391,0,2.732-0.21,4-0.588v0.588c3.313,0,6,2.687,6,6.001C40,45.313,37.313,48,34,48z"/>
	</g>
</g>
<g>
</g>
<g>
</g>
<g>
</g>
<g>
</g>
<g>
</g>
<g>
</g>
<g>
</g>
<g>
</g>
<g>
</g>
<g>
</g>
<g>
</g>
<g>
</g>
<g>
</g>
<g>
</g>
<g>
</g>
</svg>
