<?xml version="1.0" encoding="iso-8859-1"?>
<!-- Generator: Adobe Illustrator 16.0.0, SVG Export Plug-In . SVG Version: 6.00 Build 0)  -->
<!DOCTYPE svg PUBLIC "-//W3C//DTD SVG 1.1//EN" "http://www.w3.org/Graphics/SVG/1.1/DTD/svg11.dtd">
<svg version="1.1" id="Layer_1" xmlns="http://www.w3.org/2000/svg" xmlns:xlink="http://www.w3.org/1999/xlink" x="0px" y="0px"
	 width="64px" height="64.001px" viewBox="0 0 64 64.001" style="enable-background:new 0 0 64 64.001;" xml:space="preserve">
<g id="Box">
	<g>
		<path style="fill:#D9A16A;" d="M60,0.001H4c-2.209,0-4,1.79-4,4v56c0,2.209,1.791,4,4,4h56c2.209,0,4-1.791,4-4v-56
			C64,1.791,62.209,0.001,60,0.001z"/>
	</g>
</g>
<g id="Tape">
	<g>
		<path style="fill:#F2B477;" d="M26,0v22.001C26,23.105,26.895,24,28,24h8c1.104,0,2-0.895,2-1.999V0H26z"/>
	</g>
</g>
<g id="Arrow_6_">
	<g>
		<path style="fill-rule:evenodd;clip-rule:evenodd;fill:#A67C52;" d="M55.414,44.585l-6-6C49.052,38.224,48.552,38,48,38
			c-0.553,0-1.053,0.224-1.414,0.585l-6.001,6C40.224,44.947,40,45.447,40,46c0,1.104,0.895,2,1.999,2
			c0.553,0,1.053-0.224,1.415-0.586l2.604-2.604V54c0,1.104,0.887,2,1.981,2s1.982-0.896,1.982-2v-9.19l2.604,2.604
			C52.947,47.776,53.447,48,54,48c1.104,0,2-0.896,2-2C56,45.447,55.775,44.947,55.414,44.585z"/>
	</g>
</g>
<g>
</g>
<g>
</g>
<g>
</g>
<g>
</g>
<g>
</g>
<g>
</g>
<g>
</g>
<g>
</g>
<g>
</g>
<g>
</g>
<g>
</g>
<g>
</g>
<g>
</g>
<g>
</g>
<g>
</g>
</svg>
