<?xml version="1.0" encoding="iso-8859-1"?>
<!-- Generator: Adobe Illustrator 16.0.0, SVG Export Plug-In . SVG Version: 6.00 Build 0)  -->
<!DOCTYPE svg PUBLIC "-//W3C//DTD SVG 1.1//EN" "http://www.w3.org/Graphics/SVG/1.1/DTD/svg11.dtd">
<svg version="1.1" id="Layer_1" xmlns="http://www.w3.org/2000/svg" xmlns:xlink="http://www.w3.org/1999/xlink" x="0px" y="0px"
	 width="64px" height="56px" viewBox="0 0 64 56" style="enable-background:new 0 0 64 56;" xml:space="preserve">
<g id="Body">
	<g>
		<path style="fill:#666666;" d="M0,10v42.001C0,54.21,1.791,56,4,56h56c2.209,0,4-1.79,4-3.999V10H0z"/>
	</g>
</g>
<g id="Top">
	<g>
		<path style="fill:#999999;" d="M60,6.001H4c-2.209,0-4,1.79-4,3.999h64C64,7.791,62.209,6.001,60,6.001z"/>
	</g>
</g>
<g id="Lock">
	<g>
		<rect x="6" y="6.001" style="fill:#CCCCCC;" width="12" height="3.999"/>
	</g>
</g>
<g id="Lock_1_">
	<g>
		<rect x="46" y="6.001" style="fill:#CCCCCC;" width="12" height="3.999"/>
	</g>
</g>
<g id="Handle">
	<g>
		<path style="fill:#666666;" d="M40,0H24c-2.209,0-4,1.791-4,4.001V8h4V6.001c0-1.105,0.896-2,2-2h12c1.104,0,2,0.895,2,2V8h4
			V4.001C44,1.791,42.209,0,40,0z"/>
	</g>
</g>
<g>
</g>
<g>
</g>
<g>
</g>
<g>
</g>
<g>
</g>
<g>
</g>
<g>
</g>
<g>
</g>
<g>
</g>
<g>
</g>
<g>
</g>
<g>
</g>
<g>
</g>
<g>
</g>
<g>
</g>
</svg>
