<?xml version="1.0" encoding="iso-8859-1"?>
<!-- Generator: Adobe Illustrator 16.0.0, SVG Export Plug-In . SVG Version: 6.00 Build 0)  -->
<!DOCTYPE svg PUBLIC "-//W3C//DTD SVG 1.1//EN" "http://www.w3.org/Graphics/SVG/1.1/DTD/svg11.dtd">
<svg version="1.1" id="Layer_1" xmlns="http://www.w3.org/2000/svg" xmlns:xlink="http://www.w3.org/1999/xlink" x="0px" y="0px"
	 width="64px" height="56px" viewBox="0 0 64 56" style="enable-background:new 0 0 64 56;" xml:space="preserve">
<g id="Handle_1_">
	<g>
		<path style="fill:#A67C52;" d="M40,0H24c-2.209,0-4,1.791-4,4.001v2h4c0-1.105,0.896-2,2-2h12c1.104,0,2,0.895,2,2h4v-2
			C44,1.791,42.209,0,40,0z"/>
	</g>
</g>
<g id="Body_1_">
	<g>
		<path style="fill:#A67C52;" d="M60,8H4c-2.209,0-4,1.792-4,4.001v40C0,54.21,1.791,56,4,56h56c2.209,0,4-1.79,4-3.999v-40
			C64,9.792,62.209,8,60,8z"/>
	</g>
</g>
<g id="Flap">
	<g>
		<path style="fill:#BF8E5E;" d="M60,6.001H4c-2.209,0-4,1.79-4,3.999l2,18.001c0,2.209,1.791,4,4,4l20,4h12l20-4
			c2.209,0,4-1.791,4-4L64,10C64,7.791,62.209,6.001,60,6.001z"/>
	</g>
</g>
<g id="Lock_2_">
	<g>
		<path style="fill:#CCA75C;" d="M26,36.001v2c0,1.104,0.896,2,2,2h8c1.104,0,2-0.896,2-2v-2H26z"/>
	</g>
</g>
<g id="Lock_3_">
	<g>
		<path style="fill:#FFD073;" d="M36,28.001h-8c-1.104,0-2,0.895-2,2v6h12v-6C38,28.896,37.104,28.001,36,28.001z"/>
	</g>
</g>
<g>
</g>
<g>
</g>
<g>
</g>
<g>
</g>
<g>
</g>
<g>
</g>
<g>
</g>
<g>
</g>
<g>
</g>
<g>
</g>
<g>
</g>
<g>
</g>
<g>
</g>
<g>
</g>
<g>
</g>
</svg>
