<?xml version="1.0" encoding="iso-8859-1"?>
<!-- Generator: Adobe Illustrator 16.0.0, SVG Export Plug-In . SVG Version: 6.00 Build 0)  -->
<!DOCTYPE svg PUBLIC "-//W3C//DTD SVG 1.1//EN" "http://www.w3.org/Graphics/SVG/1.1/DTD/svg11.dtd">
<svg version="1.1" id="Layer_1" xmlns="http://www.w3.org/2000/svg" xmlns:xlink="http://www.w3.org/1999/xlink" x="0px" y="0px"
	 width="64px" height="64px" viewBox="0 0 64 64" style="enable-background:new 0 0 64 64;" xml:space="preserve">
<g id="Grid_3_">
	<g>
		<path style="fill-rule:evenodd;clip-rule:evenodd;fill:#CCCCCC;" d="M62,59.999H4v-58C4,0.895,3.104,0,2,0S0,0.895,0,1.999V62
			c0,1.104,0.896,2,2,2h60c1.104,0,2-0.896,2-2C64,60.895,63.104,59.999,62,59.999z M10,15.999c1.104,0,2-0.896,2-2s-0.896-2-2-2
			s-2,0.896-2,2S8.896,15.999,10,15.999z M18,15.999c1.104,0,2-0.896,2-2s-0.896-2-2-2c-1.105,0-2,0.896-2,2
			S16.895,15.999,18,15.999z M26,15.999c1.104,0,2-0.896,2-2s-0.896-2-2-2s-2,0.896-2,2S24.896,15.999,26,15.999z M34,15.999
			c1.104,0,2-0.896,2-2s-0.896-2-2-2s-2,0.896-2,2S32.896,15.999,34,15.999z M42,15.999c1.104,0,2-0.896,2-2s-0.896-2-2-2
			s-2,0.896-2,2S40.896,15.999,42,15.999z M50,15.999c1.104,0,2-0.896,2-2s-0.896-2-2-2c-1.105,0-2,0.896-2,2
			S48.895,15.999,50,15.999z M10,23.999c1.104,0,2-0.896,2-2s-0.896-2-2-2s-2,0.896-2,2S8.896,23.999,10,23.999z M18,23.999
			c1.104,0,2-0.896,2-2s-0.896-2-2-2c-1.105,0-2,0.896-2,2S16.895,23.999,18,23.999z M26,23.999c1.104,0,2-0.896,2-2s-0.896-2-2-2
			s-2,0.896-2,2S24.896,23.999,26,23.999z M34,23.999c1.104,0,2-0.896,2-2s-0.896-2-2-2s-2,0.896-2,2S32.896,23.999,34,23.999z
			 M42,23.999c1.104,0,2-0.896,2-2s-0.896-2-2-2s-2,0.896-2,2S40.896,23.999,42,23.999z M50,23.999c1.104,0,2-0.896,2-2
			s-0.896-2-2-2c-1.105,0-2,0.896-2,2S48.895,23.999,50,23.999z M10,31.999c1.104,0,2-0.896,2-2s-0.896-2-2-2s-2,0.896-2,2
			S8.896,31.999,10,31.999z M18,31.999c1.104,0,2-0.896,2-2s-0.896-2-2-2c-1.105,0-2,0.896-2,2S16.895,31.999,18,31.999z M26,31.999
			c1.104,0,2-0.896,2-2s-0.896-2-2-2s-2,0.896-2,2S24.896,31.999,26,31.999z M34,31.999c1.104,0,2-0.896,2-2s-0.896-2-2-2
			s-2,0.896-2,2S32.896,31.999,34,31.999z M42,31.999c1.104,0,2-0.896,2-2s-0.896-2-2-2s-2,0.896-2,2S40.896,31.999,42,31.999z
			 M50,31.999c1.104,0,2-0.896,2-2s-0.896-2-2-2c-1.105,0-2,0.896-2,2S48.895,31.999,50,31.999z M10,39.999c1.104,0,2-0.896,2-2
			s-0.896-2-2-2s-2,0.896-2,2S8.896,39.999,10,39.999z M18,39.999c1.104,0,2-0.896,2-2s-0.896-2-2-2c-1.105,0-2,0.896-2,2
			S16.895,39.999,18,39.999z M26,39.999c1.104,0,2-0.896,2-2s-0.896-2-2-2s-2,0.896-2,2S24.896,39.999,26,39.999z M34,39.999
			c1.104,0,2-0.896,2-2s-0.896-2-2-2s-2,0.896-2,2S32.896,39.999,34,39.999z M42,39.999c1.104,0,2-0.896,2-2s-0.896-2-2-2
			s-2,0.896-2,2S40.896,39.999,42,39.999z M50,39.999c1.104,0,2-0.896,2-2s-0.896-2-2-2c-1.105,0-2,0.896-2,2
			S48.895,39.999,50,39.999z M10,48c1.104,0,2-0.896,2-2.001c0-1.104-0.896-2-2-2s-2,0.896-2,2C8,47.104,8.896,48,10,48z M18,48
			c1.104,0,2-0.896,2-2.001c0-1.104-0.896-2-2-2c-1.105,0-2,0.896-2,2C16,47.104,16.895,48,18,48z M26,48c1.104,0,2-0.896,2-2.001
			c0-1.104-0.896-2-2-2s-2,0.896-2,2C24,47.104,24.896,48,26,48z M34,48c1.104,0,2-0.896,2-2.001c0-1.104-0.896-2-2-2s-2,0.896-2,2
			C32,47.104,32.896,48,34,48z M42,48c1.104,0,2-0.896,2-2.001c0-1.104-0.896-2-2-2s-2,0.896-2,2C40,47.104,40.896,48,42,48z M50,48
			c1.104,0,2-0.896,2-2.001c0-1.104-0.896-2-2-2c-1.105,0-2,0.896-2,2C48,47.104,48.895,48,50,48z M10,55.999c1.104,0,2-0.895,2-2
			c0-1.104-0.896-2-2-2s-2,0.896-2,2C8,55.104,8.896,55.999,10,55.999z M18,55.999c1.104,0,2-0.895,2-2c0-1.104-0.896-2-2-2
			c-1.105,0-2,0.896-2,2C16,55.104,16.895,55.999,18,55.999z M26,55.999c1.104,0,2-0.895,2-2c0-1.104-0.896-2-2-2s-2,0.896-2,2
			C24,55.104,24.896,55.999,26,55.999z M34,55.999c1.104,0,2-0.895,2-2c0-1.104-0.896-2-2-2s-2,0.896-2,2
			C32,55.104,32.896,55.999,34,55.999z M42,55.999c1.104,0,2-0.895,2-2c0-1.104-0.896-2-2-2s-2,0.896-2,2
			C40,55.104,40.896,55.999,42,55.999z M50,55.999c1.104,0,2-0.895,2-2c0-1.104-0.896-2-2-2c-1.105,0-2,0.896-2,2
			C48,55.104,48.895,55.999,50,55.999z M10,7.999c1.104,0,2-0.896,2-2s-0.896-2-2-2s-2,0.896-2,2S8.896,7.999,10,7.999z M18,7.999
			c1.104,0,2-0.896,2-2s-0.896-2-2-2c-1.105,0-2,0.896-2,2S16.895,7.999,18,7.999z M26,7.999c1.104,0,2-0.896,2-2s-0.896-2-2-2
			s-2,0.896-2,2S24.896,7.999,26,7.999z M34,7.999c1.104,0,2-0.896,2-2s-0.896-2-2-2s-2,0.896-2,2S32.896,7.999,34,7.999z M42,7.999
			c1.104,0,2-0.896,2-2s-0.896-2-2-2s-2,0.896-2,2S40.896,7.999,42,7.999z M50,7.999c1.104,0,2-0.896,2-2s-0.896-2-2-2
			c-1.105,0-2,0.896-2,2S48.895,7.999,50,7.999z M58,15.999c1.104,0,2-0.896,2-2s-0.896-2-2-2s-2,0.896-2,2S56.896,15.999,58,15.999
			z M58,23.999c1.104,0,2-0.896,2-2s-0.896-2-2-2s-2,0.896-2,2S56.896,23.999,58,23.999z M58,31.999c1.104,0,2-0.896,2-2
			s-0.896-2-2-2s-2,0.896-2,2S56.896,31.999,58,31.999z M58,39.999c1.104,0,2-0.896,2-2s-0.896-2-2-2s-2,0.896-2,2
			S56.896,39.999,58,39.999z M58,48c1.104,0,2-0.896,2-2.001c0-1.104-0.896-2-2-2s-2,0.896-2,2C56,47.104,56.896,48,58,48z
			 M58,55.999c1.104,0,2-0.895,2-2c0-1.104-0.896-2-2-2s-2,0.896-2,2C56,55.104,56.896,55.999,58,55.999z M58,7.999
			c1.104,0,2-0.896,2-2s-0.896-2-2-2s-2,0.896-2,2S56.896,7.999,58,7.999z"/>
	</g>
</g>
<g id="Arrow_2_">
	<g>
		<path style="fill-rule:evenodd;clip-rule:evenodd;fill:#48A0DC;" d="M58.323,20.031c-0.305-0.075-0.621-0.091-0.929-0.032H50
			c-1.105,0-2,0.895-2,2c0,1.104,0.895,2,2,2h2.863L46,30.862l-4.268-4.267c-0.474-0.475-1.113-0.674-1.732-0.617
			c-0.62-0.057-1.259,0.143-1.733,0.617L26,38.862l-4.268-4.267c-0.474-0.475-1.113-0.674-1.733-0.616
			c-0.62-0.058-1.258,0.142-1.733,0.616l-9.67,9.67c-0.848,0.848-0.848,2.222,0,3.068c0.847,0.848,2.221,0.848,3.067,0L20,38.999
			l4.335,4.335c0.457,0.457,1.066,0.659,1.665,0.623c0.598,0.036,1.208-0.166,1.665-0.623L40,30.999l4.335,4.335
			c0.457,0.457,1.067,0.659,1.665,0.623c0.598,0.036,1.208-0.166,1.664-0.623L56,26.999v3c0,1.104,0.896,1.999,2,1.999
			s2-0.896,2-1.999v-8C60,21.004,59.273,20.187,58.323,20.031z"/>
	</g>
</g>
<g>
</g>
<g>
</g>
<g>
</g>
<g>
</g>
<g>
</g>
<g>
</g>
<g>
</g>
<g>
</g>
<g>
</g>
<g>
</g>
<g>
</g>
<g>
</g>
<g>
</g>
<g>
</g>
<g>
</g>
</svg>
