<?xml version="1.0" encoding="iso-8859-1"?>
<!-- Generator: Adobe Illustrator 16.0.0, SVG Export Plug-In . SVG Version: 6.00 Build 0)  -->
<!DOCTYPE svg PUBLIC "-//W3C//DTD SVG 1.1//EN" "http://www.w3.org/Graphics/SVG/1.1/DTD/svg11.dtd">
<svg version="1.1" id="Layer_1" xmlns="http://www.w3.org/2000/svg" xmlns:xlink="http://www.w3.org/1999/xlink" x="0px" y="0px"
	 width="64px" height="55.999px" viewBox="0 0 64 55.999" style="enable-background:new 0 0 64 55.999;" xml:space="preserve">
<g id="Button_2_">
	<g>
		<path style="fill:#88C057;" d="M60,0H4C1.791,0,0,1.791,0,4v28c0,2.209,1.791,4,4,4h56c2.209,0,4-1.791,4-4V4
			C64,1.791,62.209,0,60,0z"/>
	</g>
</g>
<g id="BUY">
	<g>
		<path style="fill-rule:evenodd;clip-rule:evenodd;fill:#FFFFFF;" d="M38,8c-1.104,0-2,0.896-2,2v10
			c-0.001,2.209-1.792,3.999-4,3.999c-2.206,0-3.996-1.788-4-3.994c0-0.002,0.001-0.003,0.001-0.005V10c0-1.104-0.896-2-2.001-2
			c-1.104,0-2,0.896-2,2v10c0.001,4.418,3.581,7.999,8,7.999c4.418,0,7.999-3.581,8-7.999V10C40,8.896,39.105,8,38,8z M32,11.999
			c-0.007,0-0.013,0.001-0.02,0.001h0.039C32.013,12,32.007,11.999,32,11.999z M19.224,16.944C19.716,16.074,20,15.07,20,13.999
			c0-3.313-2.687-6-6-6C13.996,7.999,13.993,8,13.99,8H8c-1.104,0-2,0.896-2,2v16c0,1.104,0.896,2,2,2h6v-0.35
			c0.626,0.222,1.298,0.349,2,0.349c3.313,0,6-2.686,6-6C22,19.874,20.892,18.01,19.224,16.944z M10,12h3.99
			c0.003,0,0.007-0.001,0.01-0.001c1.104,0,2,0.896,2,2s-0.896,2-2,2V16h-4V12z M16,23.999L16,23.999L10,24v-4h5.99
			c0.003,0,0.007-0.001,0.01-0.001c1.104,0,2,0.896,2,2C18,23.104,17.104,23.999,16,23.999z M57.051,8.254
			c-0.943-0.555-2.163-0.248-2.725,0.685L50,16.131l-4.326-7.192c-0.562-0.933-1.781-1.239-2.725-0.685s-1.254,1.761-0.692,2.693
			L48,20.496V26c0,1.104,0.896,2,2,2c1.105,0,2.001-0.896,2.001-2v-5.506l5.742-9.547C58.305,10.015,57.994,8.809,57.051,8.254z"/>
	</g>
</g>
<g id="Cursor">
	<g>
		<path style="fill-rule:evenodd;clip-rule:evenodd;fill:#666666;" d="M63.414,50.585L53.202,40.374l7.431-2.478
			c0.777-0.259,1.316-0.965,1.363-1.782s-0.408-1.581-1.15-1.927l-30-14.001c-0.762-0.353-1.664-0.196-2.26,0.398
			c-0.595,0.595-0.754,1.498-0.398,2.26l14,30.001C42.518,53.552,43.227,54,43.999,54c0.039,0,0.077-0.003,0.116-0.005
			c0.817-0.047,1.523-0.586,1.782-1.363l2.478-7.43l10.211,10.211c0.391,0.391,0.902,0.586,1.414,0.586s1.023-0.195,1.414-0.586l2-2
			C64.195,52.632,64.195,51.366,63.414,50.585z"/>
	</g>
</g>
<g>
</g>
<g>
</g>
<g>
</g>
<g>
</g>
<g>
</g>
<g>
</g>
<g>
</g>
<g>
</g>
<g>
</g>
<g>
</g>
<g>
</g>
<g>
</g>
<g>
</g>
<g>
</g>
<g>
</g>
</svg>
