<?xml version="1.0" encoding="iso-8859-1"?>
<!-- Generator: Adobe Illustrator 16.0.0, SVG Export Plug-In . SVG Version: 6.00 Build 0)  -->
<!DOCTYPE svg PUBLIC "-//W3C//DTD SVG 1.1//EN" "http://www.w3.org/Graphics/SVG/1.1/DTD/svg11.dtd">
<svg version="1.1" id="Layer_1" xmlns="http://www.w3.org/2000/svg" xmlns:xlink="http://www.w3.org/1999/xlink" x="0px" y="0px"
	 width="56px" height="64px" viewBox="0 0 56 64" style="enable-background:new 0 0 56 64;" xml:space="preserve">
<g id="Body_3_">
	<g>
		<path style="fill:#E6E6E6;" d="M0,22v38c0,2.209,1.791,4,4,4h48c2.209,0,4-1.791,4-4V22H0z"/>
	</g>
</g>
<g id="Body_4_">
	<g>
		<path style="fill:#CCCCCC;" d="M52,0H4C1.791,0,0,1.791,0,4v18h56V4C56,1.791,54.209,0,52,0z"/>
	</g>
</g>
<g id="Display">
	<g>
		<path style="fill:#999999;" d="M48,6H8C6.895,6,6,6.896,6,8v8c0,1.104,0.895,2,2,2h40c1.104,0,2-0.896,2-2V8
			C50,6.896,49.104,6,48,6z"/>
	</g>
</g>
<g id="Keypad">
	<g>
		<path style="fill-rule:evenodd;clip-rule:evenodd;fill:#999999;" d="M12,26H8c-1.105,0-2,0.896-2,2v4c0,1.104,0.895,2,2,2h4
			c1.104,0,2-0.896,2-2v-4C14,26.896,13.104,26,12,26z M12,38H8c-1.105,0-2,0.896-2,1.999V44c0,1.104,0.895,2.001,2,2.001h4
			c1.104,0,2-0.896,2-2.001v-4.001C14,38.896,13.104,38,12,38z M12,50H8c-1.105,0-2,0.896-2,2v4c0,1.104,0.895,2.001,2,2.001h4
			c1.104,0,2-0.896,2-2.001v-4C14,50.896,13.104,50,12,50z M24,26h-4c-1.104,0-2,0.896-2,2v4c0,1.104,0.896,2,2,2h4
			c1.104,0,2-0.896,2-2v-4C26,26.896,25.104,26,24,26z M24,38h-4c-1.104,0-2,0.896-2,1.999V44c0,1.104,0.896,2.001,2,2.001h4
			c1.104,0,2-0.896,2-2.001v-4.001C26,38.896,25.104,38,24,38z M24,50h-4c-1.104,0-2,0.896-2,2v4c0,1.104,0.896,2.001,2,2.001h4
			c1.104,0,2-0.896,2-2.001v-4C26,50.896,25.104,50,24,50z M36,26h-4c-1.104,0-2,0.896-2,2v4c0,1.104,0.896,2,2,2h4
			c1.104,0,2-0.896,2-2v-4C38,26.896,37.104,26,36,26z M36,38h-4c-1.104,0-2,0.896-2,1.999V44c0,1.104,0.896,2.001,2,2.001h4
			c1.104,0,2-0.896,2-2.001v-4.001C38,38.896,37.104,38,36,38z M36,50h-4c-1.104,0-2,0.896-2,2v4c0,1.104,0.896,2.001,2,2.001h4
			c1.104,0,2-0.896,2-2.001v-4C38,50.896,37.104,50,36,50z M48,26h-4c-1.105,0-2,0.896-2,2v4c0,1.104,0.895,2,2,2h4
			c1.104,0,2-0.896,2-2v-4C50,26.896,49.104,26,48,26z"/>
	</g>
</g>
<g id="Key">
	<g>
		<path style="fill:#FF8833;" d="M48,38h-4c-1.105,0-2,0.896-2,1.999V56c0,1.104,0.895,2.001,2,2.001h4c1.104,0,2-0.896,2-2.001
			V39.999C50,38.896,49.104,38,48,38z"/>
	</g>
</g>
<g>
</g>
<g>
</g>
<g>
</g>
<g>
</g>
<g>
</g>
<g>
</g>
<g>
</g>
<g>
</g>
<g>
</g>
<g>
</g>
<g>
</g>
<g>
</g>
<g>
</g>
<g>
</g>
<g>
</g>
</svg>
