<?xml version="1.0" encoding="iso-8859-1"?>
<!-- Generator: Adobe Illustrator 16.0.0, SVG Export Plug-In . SVG Version: 6.00 Build 0)  -->
<!DOCTYPE svg PUBLIC "-//W3C//DTD SVG 1.1//EN" "http://www.w3.org/Graphics/SVG/1.1/DTD/svg11.dtd">
<svg version="1.1" id="Layer_1" xmlns="http://www.w3.org/2000/svg" xmlns:xlink="http://www.w3.org/1999/xlink" x="0px" y="0px"
	 width="64px" height="48.001px" viewBox="0 0 64 48.001" style="enable-background:new 0 0 64 48.001;" xml:space="preserve">
<g id="Back_1_">
	<g>
		<path style="fill:#735538;" d="M60,0H40v48.001h20c2.209,0,4-1.792,4-4.001V4C64,1.791,62.209,0,60,0z"/>
	</g>
</g>
<g id="Front_4_">
	<g>
		<path style="fill:#A67C52;" d="M4,0C1.791,0,0,1.791,0,4v40c0,2.209,1.791,4.001,4,4.001h36V0H4z"/>
	</g>
</g>
<g id="Card_24_">
	<g>
		<path style="fill:#E6E6E6;" d="M56,4h-4v40.001h4c2.209,0,3.999-1.792,3.999-4V8C59.999,5.791,58.209,4,56,4z"/>
	</g>
</g>
<g id="Elipse_14_">
	<g>
		<path style="fill:#FFCC66;" d="M52,10.368v11.265c2.325-0.826,4-3.023,4-5.633C56,13.392,54.325,11.194,52,10.368z"/>
	</g>
</g>
<g id="Card_25_">
	<g>
		<path style="fill:#88C057;" d="M44,4h-4v40.001h4c2.209,0,3.999-1.792,3.999-4V8C47.999,5.791,46.209,4,44,4z"/>
	</g>
</g>
<g>
</g>
<g>
</g>
<g>
</g>
<g>
</g>
<g>
</g>
<g>
</g>
<g>
</g>
<g>
</g>
<g>
</g>
<g>
</g>
<g>
</g>
<g>
</g>
<g>
</g>
<g>
</g>
<g>
</g>
</svg>
