<?xml version="1.0" encoding="iso-8859-1"?>
<!-- Generator: Adobe Illustrator 16.0.0, SVG Export Plug-In . SVG Version: 6.00 Build 0)  -->
<!DOCTYPE svg PUBLIC "-//W3C//DTD SVG 1.1//EN" "http://www.w3.org/Graphics/SVG/1.1/DTD/svg11.dtd">
<svg version="1.1" id="Layer_1" xmlns="http://www.w3.org/2000/svg" xmlns:xlink="http://www.w3.org/1999/xlink" x="0px" y="0px"
	 width="64px" height="44px" viewBox="0 0 64 44" style="enable-background:new 0 0 64 44;" xml:space="preserve">
<g id="Card_13_">
	<g>
		<path style="fill:#48A0DC;" d="M60,0H4C1.791,0,0,1.79,0,4v36c0,2.209,1.791,4,4,4h56c2.209,0,4-1.791,4-4V4
			C64,1.79,62.209,0,60,0z"/>
	</g>
</g>
<g id="Visa_2_">
	<g>
		<path style="fill-rule:evenodd;clip-rule:evenodd;fill:#FFFFFF;" d="M27.619,13.98L25.211,29.97h3.851L31.47,13.98H27.619z
			 M39.234,20.493c-1.346-0.71-2.171-1.188-2.171-1.912c0.017-0.659,0.698-1.335,2.219-1.335c1.252-0.032,2.171,0.28,2.868,0.593
			l0.35,0.165l0.522-3.345C42.262,14.346,41.058,14,39.567,14c-3.803,0-6.48,2.109-6.497,5.125c-0.031,2.225,1.918,3.46,3.375,4.201
			c1.49,0.758,1.997,1.253,1.997,1.928c-0.016,1.039-1.204,1.518-2.313,1.518c-1.537,0-2.361-0.248-3.613-0.824l-0.507-0.248
			l-0.539,3.478c0.903,0.429,2.567,0.807,4.295,0.823c4.041,0,6.671-2.076,6.703-5.289C42.483,22.947,41.453,21.596,39.234,20.493z
			 M52.895,14.03h-2.979c-0.92,0-1.617,0.279-2.014,1.285l-5.72,14.654h4.04l1.113-3.174h4.522l0.577,3.187h3.565L52.895,14.03z
			 M48.457,23.595c0.078,0.009,1.552-5.179,1.552-5.179l1.173,5.179C51.182,23.595,49.218,23.595,48.457,23.595z M21.994,13.98
			l-3.772,10.863l-0.411-2.143c-0.697-2.473-2.885-5.159-5.325-6.494l3.455,13.746h4.072l6.054-15.973H21.994z"/>
	</g>
</g>
<g id="Visa_3_">
	<g>
		<path style="fill:#FFCC66;" d="M15.718,15.221c-0.214-0.941-0.871-1.208-1.682-1.24H8.061l-0.062,0.299
			c4.662,1.224,7.75,4.174,9.019,7.721L15.718,15.221z"/>
	</g>
</g>
<g>
</g>
<g>
</g>
<g>
</g>
<g>
</g>
<g>
</g>
<g>
</g>
<g>
</g>
<g>
</g>
<g>
</g>
<g>
</g>
<g>
</g>
<g>
</g>
<g>
</g>
<g>
</g>
<g>
</g>
</svg>
