<?xml version="1.0" encoding="iso-8859-1"?>
<!-- Generator: Adobe Illustrator 16.0.0, SVG Export Plug-In . SVG Version: 6.00 Build 0)  -->
<!DOCTYPE svg PUBLIC "-//W3C//DTD SVG 1.1//EN" "http://www.w3.org/Graphics/SVG/1.1/DTD/svg11.dtd">
<svg version="1.1" id="Layer_1" xmlns="http://www.w3.org/2000/svg" xmlns:xlink="http://www.w3.org/1999/xlink" x="0px" y="0px"
	 width="64px" height="44px" viewBox="0 0 64 44" style="enable-background:new 0 0 64 44;" xml:space="preserve">
<g id="Card_8_">
	<g>
		<path style="fill:#E6E6E6;" d="M60,0H4C1.791,0,0,1.791,0,4v36.001C0,42.21,1.791,44,4,44h56c2.209,0,4-1.79,4-3.999V4
			C64,1.791,62.209,0,60,0z"/>
	</g>
</g>
<g id="Shape">
	<g>
		<path style="fill:#FFCC66;" d="M26,44h34c2.209,0,4-1.79,4-3.999v-8L26,44z"/>
	</g>
</g>
<g id="Disc">
	<g>
		<path style="fill-rule:evenodd;clip-rule:evenodd;fill:#999999;" d="M10,8.001L3.992,7.999v20.032L10,28.001
			c2.941,0,4.606-0.688,6.473-2.281C18.688,23.827,20,20.949,20,18.001C20,12.086,16.146,8.001,10,8.001z M13.999,23.045
			C12.801,24.159,10,24.001,10,24.001H8v-12h2c0,0,2.741-0.158,3.999,1.012C15.311,14.214,16,16.079,16,18.001
			C16,19.926,15.311,21.848,13.999,23.045z M21.979,28.031h3.993V7.999h-3.993V28.031z M36.164,15.684
			c-2.366-0.833-3.063-1.384-3.063-2.417c0-1.211,1.24-2.131,2.939-2.131c1.182,0,2.151,0.46,3.185,1.551l2.057-2.559
			c-1.696-1.415-3.726-2.135-5.939-2.135c-3.571,0-6.3,2.363-6.3,5.501c0,2.652,1.271,4.005,4.969,5.276
			c1.546,0.516,2.332,0.86,2.727,1.096c0.787,0.489,1.183,1.178,1.183,1.984c0,1.558-1.304,2.708-3.063,2.708
			c-1.878,0-3.392-0.892-4.301-2.563l-2.542,2.337c1.814,2.531,3.996,3.658,6.998,3.658c4.09,0,6.967-2.596,6.967-6.312
			C41.979,18.626,40.649,17.241,36.164,15.684z M54,12.001c3.938,0,6,2,6,2v-4c0,0-1.938-2-6-2s-10,3.188-10,10s6.087,10,10,10
			c3.93,0,6-2,6-2v-4c0,0-2.038,2-6,2c-2.014,0-6-2.122-6-6C48,14.327,51.875,12.001,54,12.001z"/>
	</g>
</g>
<g>
</g>
<g>
</g>
<g>
</g>
<g>
</g>
<g>
</g>
<g>
</g>
<g>
</g>
<g>
</g>
<g>
</g>
<g>
</g>
<g>
</g>
<g>
</g>
<g>
</g>
<g>
</g>
<g>
</g>
</svg>
