<?xml version="1.0" encoding="iso-8859-1"?>
<!-- Generator: Adobe Illustrator 16.0.0, SVG Export Plug-In . SVG Version: 6.00 Build 0)  -->
<!DOCTYPE svg PUBLIC "-//W3C//DTD SVG 1.1//EN" "http://www.w3.org/Graphics/SVG/1.1/DTD/svg11.dtd">
<svg version="1.1" id="Layer_1" xmlns="http://www.w3.org/2000/svg" xmlns:xlink="http://www.w3.org/1999/xlink" x="0px" y="0px"
	 width="64px" height="44px" viewBox="0 0 64 44" style="enable-background:new 0 0 64 44;" xml:space="preserve">
<g id="Card_20_">
	<g>
		<path style="fill:#88C057;" d="M60,0H4C1.79,0,0,1.791,0,4v36c0,2.209,1.79,4,4,4h56c2.209,0,4-1.791,4-4V4
			C64,1.791,62.209,0,60,0z"/>
	</g>
</g>
<g id="Text_5_">
	<g>
		<path style="fill-rule:evenodd;clip-rule:evenodd;fill:#638C3F;" d="M28,32H10c-1.104,0-2,0.895-2,2c0,1.104,0.896,2,2,2h18
			c1.104,0,2-0.896,2-2C30,32.895,29.104,32,28,32z M54,24H10c-1.104,0-2,0.895-2,2c0,1.104,0.896,2,2,2h44c1.104,0,2-0.896,2-2
			C56,24.895,55.104,24,54,24z"/>
	</g>
</g>
<g id="Sim">
	<g>
		<path style="fill:#FFCC66;" d="M18,8h-8c-1.104,0-2,0.895-2,2v6c0,1.104,0.896,2,2,2h8c1.104,0,2-0.896,2-2v-6
			C20,8.895,19.104,8,18,8z"/>
	</g>
</g>
<g>
</g>
<g>
</g>
<g>
</g>
<g>
</g>
<g>
</g>
<g>
</g>
<g>
</g>
<g>
</g>
<g>
</g>
<g>
</g>
<g>
</g>
<g>
</g>
<g>
</g>
<g>
</g>
<g>
</g>
</svg>
