<?xml version="1.0" encoding="iso-8859-1"?>
<!-- Generator: Adobe Illustrator 16.0.0, SVG Export Plug-In . SVG Version: 6.00 Build 0)  -->
<!DOCTYPE svg PUBLIC "-//W3C//DTD SVG 1.1//EN" "http://www.w3.org/Graphics/SVG/1.1/DTD/svg11.dtd">
<svg version="1.1" id="Layer_1" xmlns="http://www.w3.org/2000/svg" xmlns:xlink="http://www.w3.org/1999/xlink" x="0px" y="0px"
	 width="64px" height="44.001px" viewBox="0 0 64 44.001" style="enable-background:new 0 0 64 44.001;" xml:space="preserve">
<g id="Card_9_">
	<g>
		<path style="fill:#E6E6E6;" d="M60,0H4C1.791,0,0,1.791,0,4v36.001c0,2.209,1.791,4,4,4h56c2.209,0,4-1.791,4-4V4
			C64,1.791,62.209,0,60,0z"/>
	</g>
</g>
<g id="Black">
	<g>
		<ellipse style="fill:#666666;" cx="21.992" cy="22.001" rx="13.992" ry="14"/>
	</g>
</g>
<g id="Blue">
	<g>
		<circle style="fill:#48A0DC;" cx="41.998" cy="22.001" r="14"/>
	</g>
</g>
<g id="Middle">
	<g>
		<path style="fill-rule:evenodd;clip-rule:evenodd;fill:#666666;" d="M32,12.001c-0.593,0.604-1.127,1.278-1.603,2h3.205
			C33.127,13.279,32.593,12.605,32,12.001z M34.689,16.001h-5.379c-0.291,0.645-0.543,1.311-0.74,2h6.859
			C35.232,17.312,34.98,16.646,34.689,16.001z M30.397,30.001h3.205c0.414-0.629,0.771-1.302,1.087-2h-5.379
			C29.626,28.699,29.983,29.372,30.397,30.001z M35.844,20.001h-7.688c-0.093,0.659-0.156,1.325-0.156,2h8
			C36,21.326,35.937,20.66,35.844,20.001z M28.57,26.001h6.859c0.186-0.651,0.319-1.321,0.414-2h-7.688
			C28.251,24.68,28.385,25.35,28.57,26.001z"/>
	</g>
</g>
<g>
</g>
<g>
</g>
<g>
</g>
<g>
</g>
<g>
</g>
<g>
</g>
<g>
</g>
<g>
</g>
<g>
</g>
<g>
</g>
<g>
</g>
<g>
</g>
<g>
</g>
<g>
</g>
<g>
</g>
</svg>
