<?xml version="1.0" encoding="iso-8859-1"?>
<!-- Generator: Adobe Illustrator 16.0.0, SVG Export Plug-In . SVG Version: 6.00 Build 0)  -->
<!DOCTYPE svg PUBLIC "-//W3C//DTD SVG 1.1//EN" "http://www.w3.org/Graphics/SVG/1.1/DTD/svg11.dtd">
<svg version="1.1" id="Layer_1" xmlns="http://www.w3.org/2000/svg" xmlns:xlink="http://www.w3.org/1999/xlink" x="0px" y="0px"
	 width="64px" height="44.001px" viewBox="0 0 64 44.001" style="enable-background:new 0 0 64 44.001;" xml:space="preserve">
<g id="Card_Bottom">
	<g>
		<path style="fill:#FFCC66;" d="M0,36.001v4c0,2.209,1.791,4,4,4h56c2.209,0,4-1.791,4-4v-4H0z"/>
	</g>
</g>
<g id="Card_Middle">
	<g>
		<rect y="8.001" style="fill:#E6E6E6;" width="64" height="28"/>
	</g>
</g>
<g id="Card_Top">
	<g>
		<path style="fill:#48A0DC;" d="M60,0H4C1.791,0,0,1.791,0,4v4h64V4C64,1.791,62.209,0,60,0z"/>
	</g>
</g>
<g id="Visa_4_">
	<g>
		<path style="fill-rule:evenodd;clip-rule:evenodd;fill:#48A0DC;" d="M27.619,13.981l-2.408,15.989h3.85l2.409-15.989H27.619z
			 M39.234,20.494c-1.346-0.71-2.171-1.188-2.171-1.912c0.017-0.659,0.697-1.335,2.219-1.335c1.252-0.032,2.171,0.28,2.868,0.593
			l0.349,0.165l0.523-3.345c-0.761-0.313-1.965-0.659-3.455-0.659c-3.803,0-6.481,2.109-6.497,5.125
			c-0.031,2.225,1.918,3.46,3.375,4.201c1.49,0.758,1.997,1.253,1.997,1.928c-0.016,1.039-1.204,1.518-2.313,1.518
			c-1.537,0-2.361-0.248-3.613-0.824L32.009,25.7l-0.539,3.478c0.903,0.429,2.567,0.807,4.295,0.823
			c4.041,0,6.671-2.076,6.703-5.289C42.482,22.948,41.453,21.597,39.234,20.494z M52.895,14.031h-2.979
			c-0.92,0-1.617,0.279-2.014,1.285l-5.72,14.654h4.04l1.113-3.174h4.522l0.577,3.187H56L52.895,14.031z M48.457,23.596
			c0.078,0.009,1.552-5.179,1.552-5.179l1.173,5.179C51.182,23.596,49.218,23.596,48.457,23.596z M21.994,13.981l-3.772,10.863
			l-0.411-2.143c-0.697-2.473-2.885-5.159-5.325-6.494l3.455,13.746h4.072l6.054-15.973H21.994z"/>
	</g>
</g>
<g id="Visa_5_">
	<g>
		<path style="fill:#FFCC66;" d="M15.718,15.222c-0.214-0.941-0.871-1.208-1.682-1.24H8.061L7.999,14.28
			c4.662,1.224,7.75,4.174,9.018,7.721L15.718,15.222z"/>
	</g>
</g>
<g>
</g>
<g>
</g>
<g>
</g>
<g>
</g>
<g>
</g>
<g>
</g>
<g>
</g>
<g>
</g>
<g>
</g>
<g>
</g>
<g>
</g>
<g>
</g>
<g>
</g>
<g>
</g>
<g>
</g>
</svg>
