<?xml version="1.0" encoding="iso-8859-1"?>
<!-- Generator: Adobe Illustrator 16.0.0, SVG Export Plug-In . SVG Version: 6.00 Build 0)  -->
<!DOCTYPE svg PUBLIC "-//W3C//DTD SVG 1.1//EN" "http://www.w3.org/Graphics/SVG/1.1/DTD/svg11.dtd">
<svg version="1.1" id="Layer_1" xmlns="http://www.w3.org/2000/svg" xmlns:xlink="http://www.w3.org/1999/xlink" x="0px" y="0px"
	 width="64px" height="44px" viewBox="0 0 64 44" style="enable-background:new 0 0 64 44;" xml:space="preserve">
<g id="Card_11_">
	<g>
		<path style="fill:#E6E6E6;" d="M60,0H4C1.791,0,0,1.79,0,4v36c0,2.209,1.791,4,4,4h56c2.209,0,4-1.791,4-4V4
			C64,1.79,62.209,0,60,0z"/>
	</g>
</g>
<g id="Elipse_2_">
	<g>
		<ellipse style="fill:#ED7161;" cx="21.992" cy="22" rx="13.992" ry="14"/>
	</g>
</g>
<g id="Elipse_3_">
	<g>
		<circle style="fill:#FFCC66;" cx="41.998" cy="22" r="14"/>
	</g>
</g>
<g id="Middle_2_">
	<g>
		<path style="fill-rule:evenodd;clip-rule:evenodd;fill:#ED7161;" d="M35.844,20h-7.688C28.063,20.659,28,21.325,28,22h8
			C36,21.325,35.937,20.659,35.844,20z M34.689,16h-5.379c-0.291,0.645-0.543,1.311-0.74,2h6.859
			C35.232,17.311,34.98,16.645,34.689,16z M32,12c-0.593,0.604-1.127,1.278-1.603,2h3.205C33.127,13.278,32.593,12.604,32,12z
			 M30.397,30h3.205c0.414-0.629,0.771-1.302,1.087-2h-5.379C29.625,28.698,29.982,29.371,30.397,30z M28.57,26h6.859
			c0.186-0.651,0.319-1.321,0.414-2h-7.688C28.251,24.679,28.385,25.349,28.57,26z"/>
	</g>
</g>
<g>
</g>
<g>
</g>
<g>
</g>
<g>
</g>
<g>
</g>
<g>
</g>
<g>
</g>
<g>
</g>
<g>
</g>
<g>
</g>
<g>
</g>
<g>
</g>
<g>
</g>
<g>
</g>
<g>
</g>
</svg>
