<?xml version="1.0" encoding="iso-8859-1"?>
<!-- Generator: Adobe Illustrator 16.0.0, SVG Export Plug-In . SVG Version: 6.00 Build 0)  -->
<!DOCTYPE svg PUBLIC "-//W3C//DTD SVG 1.1//EN" "http://www.w3.org/Graphics/SVG/1.1/DTD/svg11.dtd">
<svg version="1.1" id="Layer_1" xmlns="http://www.w3.org/2000/svg" xmlns:xlink="http://www.w3.org/1999/xlink" x="0px" y="0px"
	 width="64px" height="64px" viewBox="0 0 64 64" style="enable-background:new 0 0 64 64;" xml:space="preserve">
<g id="Atm_1_">
	<g>
		<path style="fill:#B3B3B3;" d="M60,0H4C1.791,0,0,1.791,0,4v32c0,2.209,1.791,4.001,4,4.001h56c2.209,0,4-1.792,4-4.001V4
			C64,1.791,62.209,0,60,0z"/>
	</g>
</g>
<g id="Frame_1_">
	<g>
		<path style="fill:#CCCCCC;" d="M58,4H6C4.896,4,4,4.896,4,6.001v28C4,35.105,4.896,36,6,36h52c1.104,0,2-0.895,2-1.999v-28
			C60,4.896,59.104,4,58,4z"/>
	</g>
</g>
<g id="Slot_1_">
	<g>
		<path style="fill:#666666;" d="M52,16H12c-2.209,0-4,1.791-4,4c0,2.21,1.791,4.001,4,4.001h40c2.209,0,4-1.791,4-4.001
			C56,17.791,54.209,16,52,16z"/>
	</g>
</g>
<g id="Card_23_">
	<g>
		<path style="fill:#E6E6E6;" d="M12,20v40c0,2.209,1.791,4,4,4h32c2.209,0,4-1.791,4-4V20H12z"/>
	</g>
</g>
<g id="Band_4_">
	<g>
		<rect x="38" y="20" style="fill:#666666;" width="8" height="44"/>
	</g>
</g>
<g id="Elipse_9_">
	<g>
		<circle style="fill:#ED7161;" cx="24" cy="44.001" r="6"/>
	</g>
</g>
<g id="Elipse_10_">
	<g>
		<circle style="fill:#FFCC66;" cx="24" cy="52" r="6"/>
	</g>
</g>
<g id="Text_12_">
	<g>
		<path style="fill:#B3B3B3;" d="M18,24.001C18,25.104,18.896,26,20,26s2-0.896,2-1.999V20h-4V24.001z M26,20v8
			c0,1.104,0.896,2.001,2,2.001s2-0.896,2-2.001v-8H26z"/>
	</g>
</g>
<g>
</g>
<g>
</g>
<g>
</g>
<g>
</g>
<g>
</g>
<g>
</g>
<g>
</g>
<g>
</g>
<g>
</g>
<g>
</g>
<g>
</g>
<g>
</g>
<g>
</g>
<g>
</g>
<g>
</g>
</svg>
