<?xml version="1.0" encoding="iso-8859-1"?>
<!-- Generator: Adobe Illustrator 16.0.0, SVG Export Plug-In . SVG Version: 6.00 Build 0)  -->
<!DOCTYPE svg PUBLIC "-//W3C//DTD SVG 1.1//EN" "http://www.w3.org/Graphics/SVG/1.1/DTD/svg11.dtd">
<svg version="1.1" id="Layer_1" xmlns="http://www.w3.org/2000/svg" xmlns:xlink="http://www.w3.org/1999/xlink" x="0px" y="0px"
	 width="64px" height="44px" viewBox="0 0 64 44" style="enable-background:new 0 0 64 44;" xml:space="preserve">
<g id="Card_4_">
	<g>
		<path style="fill:#666666;" d="M60,0H4C1.79,0,0,1.791,0,4v35.999C0,42.209,1.79,44,4,44h56c2.209,0,4-1.791,4-4.001V4
			C64,1.791,62.209,0,60,0z"/>
	</g>
</g>
<g id="Arrow">
	<g>
		<path style="fill-rule:evenodd;clip-rule:evenodd;fill:#FFCC66;" d="M44.096,32.349c-13.598,6.272-22.039,1.023-27.441-2.165
			c-0.335-0.201-0.902,0.048-0.411,0.596c1.801,2.117,7.699,7.217,15.4,7.217c7.702,0,12.288-4.077,12.86-4.787
			C45.076,32.505,44.672,32.114,44.096,32.349z M47.916,30.303c-0.366-0.46-2.221-0.547-3.388-0.407
			c-1.169,0.135-2.926,0.829-2.773,1.243c0.077,0.156,0.238,0.086,1.041,0.014c0.805-0.076,3.061-0.35,3.532,0.244
			c0.473,0.601-0.721,3.46-0.938,3.921c-0.211,0.461,0.08,0.579,0.476,0.273c0.39-0.306,1.096-1.103,1.57-2.228
			C47.908,32.232,48.193,30.654,47.916,30.303z"/>
	</g>
</g>
<g id="Amazon">
	<g>
		<path style="fill:#FFFFFF;" d="M40.655,22.389c0-1.961,0-8.703,0-10.508s-1.801-5.882-8.276-5.882
			c-6.471,0-9.911,3.922-9.911,7.451l5.407,0.471c0,0,1.206-3.531,4.002-3.531s2.605,2.196,2.605,2.67c0,0.127,0,1.033,0,2.284
			c-3.582,0.116-12.477,1.108-12.477,8.379c0,7.821,10.181,8.148,13.521,3.096c0.129,0.204,0.274,0.405,0.458,0.593
			c1.229,1.252,2.869,2.742,2.869,2.742l4.175-3.999C43.029,26.154,40.655,24.35,40.655,22.389z M34.482,21.528
			c0,5.727-6.199,4.859-6.199,1.229c0-3.358,3.709-4.038,6.199-4.119C34.482,19.639,34.482,20.646,34.482,21.528z"/>
	</g>
</g>
<g>
</g>
<g>
</g>
<g>
</g>
<g>
</g>
<g>
</g>
<g>
</g>
<g>
</g>
<g>
</g>
<g>
</g>
<g>
</g>
<g>
</g>
<g>
</g>
<g>
</g>
<g>
</g>
<g>
</g>
</svg>
