<?xml version="1.0" encoding="iso-8859-1"?>
<!-- Generator: Adobe Illustrator 16.0.0, SVG Export Plug-In . SVG Version: 6.00 Build 0)  -->
<!DOCTYPE svg PUBLIC "-//W3C//DTD SVG 1.1//EN" "http://www.w3.org/Graphics/SVG/1.1/DTD/svg11.dtd">
<svg version="1.1" id="Layer_1" xmlns="http://www.w3.org/2000/svg" xmlns:xlink="http://www.w3.org/1999/xlink" x="0px" y="0px"
	 width="64px" height="44.001px" viewBox="0 0 64 44.001" style="enable-background:new 0 0 64 44.001;" xml:space="preserve">
<g id="Card_1_">
	<g>
		<path style="fill:#E6E6E6;" d="M60,0H4C1.791,0,0,1.792,0,4v36.001c0,2.209,1.791,4,4,4h56c2.209,0,4-1.791,4-4V4
			C64,1.792,62.209,0,60,0z"/>
	</g>
</g>
<g id="W">
	<g>
		<path style="fill:#48A0DC;" d="M20.803,13.853c-1.575-0.862-3.546-0.297-4.403,1.284c-0.857,1.582-0.277,3.525,1.297,4.387
			c0.074,0.041,7.513,4.123,7.466,11.341c-0.012,1.803,1.432,3.131,3.224,3.131h0.022c1.782,0,3.233-1.303,3.245-3.097
			C31.727,19.821,21.249,14.097,20.803,13.853z"/>
	</g>
</g>
<g id="W_5_">
	<g>
		<path style="fill:#ED7161;" d="M31.592,11.744c-0.79-1.616-2.734-2.284-4.344-1.489c-1.609,0.793-2.273,2.748-1.484,4.364
			c0.042,0.085,4.063,8.715-0.012,14.545c-1.031,1.474-0.677,3.508,0.79,4.543c0.567,0.401,1.218,0.593,1.862,0.593
			c1.021,0,2.027-0.482,2.66-1.387C37.389,23.866,31.831,12.236,31.592,11.744z"/>
	</g>
</g>
<g id="W_2_">
	<g>
		<path style="fill:#FFCC66;" d="M30.479,10.129c-1.625-0.901-3.665-0.3-4.557,1.344c-0.892,1.643-0.296,3.704,1.33,4.606
			c0.099,0.055,9.892,5.629,9.247,18.087c-0.098,1.87,1.325,3.467,3.177,3.564c0.06,0.004,0.118,0.005,0.178,0.005
			c1.773,0,3.256-1.404,3.349-3.215C44.065,17.854,31.034,10.436,30.479,10.129z"/>
	</g>
</g>
<g id="W_3_">
	<g>
		<path style="fill:#88C057;" d="M42.951,7.801c-0.867-1.675-2.921-2.325-4.586-1.452c-1.666,0.871-2.313,2.935-1.445,4.608
			c0.053,0.102,5.222,10.333-0.203,22.188c-0.784,1.715-0.037,3.743,1.67,4.531c0.46,0.212,0.942,0.313,1.418,0.313
			c1.287,0,2.519-0.739,3.092-1.991C49.696,21.137,43.229,8.339,42.951,7.801z"/>
	</g>
</g>
<g>
</g>
<g>
</g>
<g>
</g>
<g>
</g>
<g>
</g>
<g>
</g>
<g>
</g>
<g>
</g>
<g>
</g>
<g>
</g>
<g>
</g>
<g>
</g>
<g>
</g>
<g>
</g>
<g>
</g>
</svg>
