<?xml version="1.0" encoding="iso-8859-1"?>
<!-- Generator: Adobe Illustrator 16.0.0, SVG Export Plug-In . SVG Version: 6.00 Build 0)  -->
<!DOCTYPE svg PUBLIC "-//W3C//DTD SVG 1.1//EN" "http://www.w3.org/Graphics/SVG/1.1/DTD/svg11.dtd">
<svg version="1.1" id="Layer_1" xmlns="http://www.w3.org/2000/svg" xmlns:xlink="http://www.w3.org/1999/xlink" x="0px" y="0px"
	 width="64px" height="44px" viewBox="0 0 64 44" style="enable-background:new 0 0 64 44;" xml:space="preserve">
<g id="Card_6_">
	<g>
		<path style="fill:#E6E6E6;" d="M60,0H4C1.791,0,0,1.791,0,4v35.999C0,42.209,1.791,44,4,44h56c2.209,0,4-1.791,4-4.001V4
			C64,1.791,62.209,0,60,0z"/>
	</g>
</g>
<g id="Paypal_1_">
	<g>
		<path style="fill-rule:evenodd;clip-rule:evenodd;fill:#48A0DC;" d="M47.244,14.793c-0.494-0.957-1.237-1.734-2.184-2.32
			c-0.103-0.063-0.214-0.115-0.32-0.174c0.498,0.941,0.741,2.109,0.734,3.504c0.007,3.232-1.349,5.846-4.061,7.817
			c-2.716,1.977-6.492,2.964-11.364,2.968h-1.139c-0.862,0-1.714,0.678-1.897,1.498l-1.372,5.418
			c-0.194,0.844-1.048,1.509-1.908,1.509h-2.319l-0.343,1.479c-0.193,0.825,0.347,1.508,1.207,1.508h3.983
			c0.861,0,1.715-0.665,1.908-1.508l1.372-5.859c0.184-0.819,1.035-1.498,1.898-1.498h1.139c4.87-0.005,8.649-0.991,11.364-2.967
			c2.71-1.972,4.067-4.585,4.061-7.817C48.011,16.93,47.763,15.741,47.244,14.793z M23.145,31.652l1.372-5.858
			c0.184-0.819,1.035-1.498,1.898-1.498h1.139c4.871-0.004,8.649-0.991,11.364-2.968c2.711-1.972,4.067-4.585,4.061-7.817
			c0.007-1.419-0.241-2.607-0.76-3.557c-0.495-0.956-1.236-1.733-2.184-2.319c-0.982-0.601-2.125-1.015-3.458-1.264
			c-1.339-0.238-2.905-0.355-4.7-0.372l-8.314,0.007c-0.864,0.01-1.711,0.681-1.91,1.504l-5.606,24.143
			c-0.192,0.825,0.347,1.509,1.207,1.509h3.983C22.098,33.161,22.951,32.496,23.145,31.652z M26.402,17.642l1.199-5.118
			c0.183-0.824,1.041-1.508,1.902-1.5l1.303-0.008c1.522,0,2.68,0.258,3.461,0.771c0.77,0.499,1.16,1.288,1.146,2.349
			c0.023,1.598-0.588,2.834-1.795,3.706c-1.201,0.87-2.865,1.307-5.026,1.307h-0.977C26.756,19.148,26.213,18.472,26.402,17.642z"/>
	</g>
</g>
<g>
</g>
<g>
</g>
<g>
</g>
<g>
</g>
<g>
</g>
<g>
</g>
<g>
</g>
<g>
</g>
<g>
</g>
<g>
</g>
<g>
</g>
<g>
</g>
<g>
</g>
<g>
</g>
<g>
</g>
</svg>
