<?xml version="1.0" encoding="iso-8859-1"?>
<!-- Generator: Adobe Illustrator 16.0.0, SVG Export Plug-In . SVG Version: 6.00 Build 0)  -->
<!DOCTYPE svg PUBLIC "-//W3C//DTD SVG 1.1//EN" "http://www.w3.org/Graphics/SVG/1.1/DTD/svg11.dtd">
<svg version="1.1" id="Layer_1" xmlns="http://www.w3.org/2000/svg" xmlns:xlink="http://www.w3.org/1999/xlink" x="0px" y="0px"
	 width="64px" height="44px" viewBox="0 0 64 44" style="enable-background:new 0 0 64 44;" xml:space="preserve">
<g id="Card_2_">
	<g>
		<path style="fill:#666666;" d="M60,0H4C1.791,0,0,1.791,0,4v36c0,2.209,1.791,4,4,4h56c2.209,0,4-1.791,4-4V4
			C64,1.791,62.209,0,60,0z"/>
	</g>
</g>
<g id="Apple">
	<g>
		<path style="fill:#FFFFFF;" d="M40.466,22.699c-0.354-2.908,1.009-4.651,2.827-5.863c-1.119-1.53-3.076-2.758-5.743-2.549
			c-1.515,0.119-2.986,1.178-4.329,1.189c-1.387,0.012-2.575-0.959-3.799-1.104c-4.357-0.518-7.134,3.278-7.422,7.052v1.36
			c0.596,4.816,2.822,9.602,6.715,11.216h0.707c1.667-0.354,2.534-1.105,4.152-1.105c1.863,0,3.229,1.437,5.301,0.936
			c1.406-0.34,2.3-1.734,3.093-2.805c0.899-1.215,1.576-2.396,2.032-3.823C42.489,26.204,40.737,24.937,40.466,22.699z M38.434,8
			h-0.266c-2.973,0.711-5.235,2.552-5.124,5.947C36.501,13.901,38.378,11.6,38.434,8z"/>
	</g>
</g>
<g>
</g>
<g>
</g>
<g>
</g>
<g>
</g>
<g>
</g>
<g>
</g>
<g>
</g>
<g>
</g>
<g>
</g>
<g>
</g>
<g>
</g>
<g>
</g>
<g>
</g>
<g>
</g>
<g>
</g>
</svg>
