<?xml version="1.0" encoding="iso-8859-1"?>
<!-- Generator: Adobe Illustrator 16.0.0, SVG Export Plug-In . SVG Version: 6.00 Build 0)  -->
<!DOCTYPE svg PUBLIC "-//W3C//DTD SVG 1.1//EN" "http://www.w3.org/Graphics/SVG/1.1/DTD/svg11.dtd">
<svg version="1.1" id="Layer_1" xmlns="http://www.w3.org/2000/svg" xmlns:xlink="http://www.w3.org/1999/xlink" x="0px" y="0px"
	 width="64px" height="44px" viewBox="0 0 64 44" style="enable-background:new 0 0 64 44;" xml:space="preserve">
<g id="Card_14_">
	<g>
		<path style="fill:#48A0DC;" d="M60,0H4C1.791,0,0,1.79,0,4v36c0,2.209,1.791,4,4,4h56c2.209,0,4-1.791,4-4V4
			C64,1.79,62.209,0,60,0z"/>
	</g>
</g>
<g id="Amex">
	<g>
		<path style="fill:#FFFFFF;" d="M11.879,21.69h3.394l-1.697-4.006L11.879,21.69z M38.642,18.063v1.834h5.422v2.04h-5.422v2.004
			h6.085l2.829-2.948l-2.711-2.93H38.642z M60,13.999h-8.758l-2.048,2.136l-1.912-2.136H28.44l-1.619,3.61l-1.658-3.61h-7.549v1.645
			l-0.839-1.645h-6.456l-6.32,13.985h7.568l0.937-2.23h2.146l0.936,2.23h8.329v-1.701l0.741,1.701h4.311l0.742-1.739v1.739h17.321
			l2.106-2.174l1.97,2.174L60,28.004l-6.339-6.975L60,13.999z M33.94,26.019h-2.438l-0.019-7.861l-3.57,7.861h-2.185l-3.589-7.861
			v7.861h-5.032l-0.956-2.249h-5.149l-0.956,2.249H7.354l4.428-10.034h3.687l4.194,9.486v-9.486H23.7l3.238,6.803l2.984-6.803h4.018
			V26.019z M55.357,26.019h-3.179l-3.043-3.326l-3.16,3.326h-9.792V15.984h9.948l3.043,3.287l3.14-3.287h3.043l-4.623,5.045
			L55.357,26.019z"/>
	</g>
</g>
<g>
</g>
<g>
</g>
<g>
</g>
<g>
</g>
<g>
</g>
<g>
</g>
<g>
</g>
<g>
</g>
<g>
</g>
<g>
</g>
<g>
</g>
<g>
</g>
<g>
</g>
<g>
</g>
<g>
</g>
</svg>
