<?xml version="1.0" encoding="iso-8859-1"?>
<!-- Generator: Adobe Illustrator 16.0.0, SVG Export Plug-In . SVG Version: 6.00 Build 0)  -->
<!DOCTYPE svg PUBLIC "-//W3C//DTD SVG 1.1//EN" "http://www.w3.org/Graphics/SVG/1.1/DTD/svg11.dtd">
<svg version="1.1" id="Layer_1" xmlns="http://www.w3.org/2000/svg" xmlns:xlink="http://www.w3.org/1999/xlink" x="0px" y="0px"
	 width="64px" height="44.001px" viewBox="0 0 64 44.001" style="enable-background:new 0 0 64 44.001;" xml:space="preserve">
<g id="Card">
	<g>
		<path style="fill:#E6E6E6;" d="M60,0H4C1.791,0,0,1.792,0,4v36.001c0,2.209,1.791,4,4,4h56c2.209,0,4-1.791,4-4V4
			C64,1.792,62.209,0,60,0z"/>
	</g>
</g>
<g id="Playstation">
	<g>
		<path style="fill:#666666;" d="M10.805,29.12c-1.515,1.104-0.956,3.012,2.362,3.925c3.563,1.156,7.181,1.38,10.577,0.837
			C23.965,33.844,23.781,34.034,24,34v-4l-2.726,1.276c-1.251,0.447-3.095,0.538-4.111,0.209c-1.015-0.329-0.827-0.947,0.428-1.389
			L24,28v-4.001l-9.416,3.337C14.584,27.336,12.205,28.104,10.805,29.12z M36,15.999v8c4.552,2.032,8-0.625,8-5.998
			c0-5.508-1.978-7.488-8.175-9.453C33.388,7.789,29.106,6.529,26,5.999V36l8,1.999v-24c0-1.178,0.048-1.879,0.953-1.608
			C36.154,12.697,36,14.826,36,15.999z M49.049,27.686c-2.694-1.042-5.51-1.399-8.53-1.085C37.502,26.917,36,28,36,28v4l5.781-2.629
			c1.17-0.433,2.901-0.53,3.855-0.208c0.953,0.322,0.771,0.934-0.402,1.357L36,34v3.999l12.992-5.176c0,0,1.891-0.711,2.667-1.705
			C52.43,30.118,52.086,28.673,49.049,27.686z"/>
	</g>
</g>
<g>
</g>
<g>
</g>
<g>
</g>
<g>
</g>
<g>
</g>
<g>
</g>
<g>
</g>
<g>
</g>
<g>
</g>
<g>
</g>
<g>
</g>
<g>
</g>
<g>
</g>
<g>
</g>
<g>
</g>
</svg>
