<?xml version="1.0" encoding="iso-8859-1"?>
<!-- Generator: Adobe Illustrator 16.0.0, SVG Export Plug-In . SVG Version: 6.00 Build 0)  -->
<!DOCTYPE svg PUBLIC "-//W3C//DTD SVG 1.1//EN" "http://www.w3.org/Graphics/SVG/1.1/DTD/svg11.dtd">
<svg version="1.1" id="Layer_1" xmlns="http://www.w3.org/2000/svg" xmlns:xlink="http://www.w3.org/1999/xlink" x="0px" y="0px"
	 width="64px" height="60px" viewBox="0 0 64 60" style="enable-background:new 0 0 64 60;" xml:space="preserve">
<g id="Wheels_5_">
	<g>
		<path style="fill-rule:evenodd;clip-rule:evenodd;fill:#666666;" d="M16,48c-3.314,0-6,2.686-6,6c0,3.313,2.687,6,6,6
			c3.313,0,6-2.687,6-6C22,50.686,19.313,48,16,48z M16,56c-1.105,0-2-0.896-2-2c0-1.105,0.896-2,2-2c1.104,0,2,0.895,2,2
			C18,55.104,17.104,56,16,56z M42,48c-3.314,0-6,2.686-6,6c0,3.313,2.686,6,6,6c3.313,0,6-2.687,6-6C48,50.686,45.313,48,42,48z
			 M42,56c-1.105,0-2-0.896-2-2c0-1.105,0.895-2,2-2c1.104,0,2,0.895,2,2C44,55.104,43.104,56,42,56z"/>
	</g>
</g>
<g id="Basket_4_">
	<g>
		<path style="fill-rule:evenodd;clip-rule:evenodd;fill:#48A0DC;" d="M54,13.999V10H2c-1.104,0-2,0.895-2,2
			c0,0.206,0.04,0.401,0.098,0.588L4,36c0,1.104,0.895,2,2,2h44v-4h-4.867l0.35-4H52v-4h-6.167l0.35-4.001H54V18h-7.468l0.35-4.001
			H54z M18,18h-4.43l-0.35-4.001H18V18z M22,13.999h4V18h-4V13.999z M9.555,18H5l-0.667-4.001h4.872L9.555,18z M7,30h3.605l0.35,4
			H7.666L7,30z M6.333,26l-0.667-4.001h4.238L10.254,26H6.333z M13.92,21.999H18V26h-3.73L13.92,21.999z M22,21.999h4V26h-4V21.999z
			 M30,21.999h4V26h-4V21.999z M30,18v-4.001h4V18H30z M14.948,34c0.001-0.072,0.009-0.143,0.003-0.217L14.62,30H18v4H14.948z
			 M22,34v-4h4v4H22z M30,34v-4h4v4H30z M41.117,34H38v-4h3.468L41.117,34z M41.817,26H38v-4.001h4.167L41.817,26z M42.517,18H38
			v-4.001h4.868L42.517,18z"/>
	</g>
</g>
<g id="Metal_3_">
	<g>
		<path style="fill-rule:evenodd;clip-rule:evenodd;fill:#CCCCCC;" d="M62,0h-4h-2h-2l-7.334,44H8c-1.104,0-2,0.895-2,2
			c0,1.104,0.895,2,2,2h38h4l7.334-44H62c1.104,0,2-0.896,2-2C64,0.895,63.104,0,62,0z"/>
	</g>
</g>
<g>
</g>
<g>
</g>
<g>
</g>
<g>
</g>
<g>
</g>
<g>
</g>
<g>
</g>
<g>
</g>
<g>
</g>
<g>
</g>
<g>
</g>
<g>
</g>
<g>
</g>
<g>
</g>
<g>
</g>
</svg>
