<?xml version="1.0" encoding="iso-8859-1"?>
<!-- Generator: Adobe Illustrator 16.0.0, SVG Export Plug-In . SVG Version: 6.00 Build 0)  -->
<!DOCTYPE svg PUBLIC "-//W3C//DTD SVG 1.1//EN" "http://www.w3.org/Graphics/SVG/1.1/DTD/svg11.dtd">
<svg version="1.1" id="Layer_1" xmlns="http://www.w3.org/2000/svg" xmlns:xlink="http://www.w3.org/1999/xlink" x="0px" y="0px"
	 width="64px" height="60.009px" viewBox="0 0 64 60.009" style="enable-background:new 0 0 64 60.009;" xml:space="preserve">
<g id="Wheels_2_">
	<g>
		<path style="fill-rule:evenodd;clip-rule:evenodd;fill:#666666;" d="M16,48.009c-3.313,0-6,2.686-6,6c0,3.313,2.687,6,6,6
			s6-2.687,6-6C22,50.694,19.313,48.009,16,48.009z M16,56.009c-1.105,0-2-0.896-2-2c0-1.105,0.895-2,2-2c1.104,0,2,0.895,2,2
			C18,55.112,17.104,56.009,16,56.009z M42,48.009c-3.314,0-6,2.686-6,6c0,3.313,2.686,6,6,6c3.313,0,6-2.687,6-6
			C48,50.694,45.313,48.009,42,48.009z M42,56.009c-1.104,0-2-0.896-2-2c0-1.105,0.896-2,2-2s2,0.895,2,2
			C44,55.112,43.104,56.009,42,56.009z"/>
	</g>
</g>
<g id="Product_3_">
	<g>
		<path style="fill:#9B7CAB;" d="M34,4.009H10c-1.105,0-2,0.895-2,1.999v26.001c0,1.104,0.895,2,2,2h24c1.104,0,2-0.896,2-2V6.008
			C36,4.903,35.104,4.009,34,4.009z"/>
	</g>
</g>
<g id="Product_4_">
	<g>
		<path style="fill:#FFCC66;" d="M45.747,23.212L32.661,0.987c-0.556-0.944-1.787-1.268-2.75-0.723L8.989,12.108
			c-0.963,0.546-1.293,1.753-0.737,2.697l13.086,22.224c0.557,0.944,1.787,1.268,2.75,0.723l20.923-11.844
			C45.974,25.363,46.304,24.155,45.747,23.212z"/>
	</g>
</g>
<g id="Product_5_">
	<g>
		<path style="fill:#ED7161;" d="M42,0.009h-4c-1.104,0-2,0.895-2,2v30c0,1.104,0.896,2,2,2h4c1.104,0,2-0.896,2-2v-30
			C44,0.903,43.104,0.009,42,0.009z"/>
	</g>
</g>
<g id="Basket_1_">
	<g>
		<path style="fill-rule:evenodd;clip-rule:evenodd;fill:#48A0DC;" d="M54,14.008v-3.999H2c-1.104,0-2,0.895-2,2
			c0,0.206,0.04,0.4,0.098,0.587L4,36.009c0,1.104,0.896,2,2,2h44v-4h-4.868l0.35-4H52v-4h-6.167l0.35-4.001H54v-3.999h-7.468
			l0.35-4.001H54z M18,18.009h-4.43l-0.35-4.001H18V18.009z M22,14.008h4v4.001h-4V14.008z M9.555,18.009H5l-0.667-4.001h4.872
			L9.555,18.009z M7,30.009h3.604l0.35,4H7.667L7,30.009z M6.333,26.009l-0.667-4.001h4.238l0.35,4.001H6.333z M13.92,22.008H18
			v4.001h-3.73L13.92,22.008z M22,22.008h4v4.001h-4V22.008z M30,22.008h4v4.001h-4V22.008z M30,18.009v-4.001h4v4.001H30z
			 M14.948,34.009c0.001-0.072,0.009-0.143,0.003-0.217l-0.331-3.783H18v4H14.948z M22,34.009v-4h4v4H22z M30,34.009v-4h4v4H30z
			 M41.117,34.009H38v-4h3.467L41.117,34.009z M41.816,26.009H38v-4.001h4.167L41.816,26.009z M42.517,18.009H38v-4.001h4.867
			L42.517,18.009z"/>
	</g>
</g>
<g id="Metal">
	<g>
		<path style="fill-rule:evenodd;clip-rule:evenodd;fill:#CCCCCC;" d="M62,0.009h-4h-2h-2l-7.333,44H8c-1.104,0-2,0.895-2,2
			c0,1.104,0.896,2,2,2h38h4l7.333-44H62c1.104,0,2-0.896,2-2C64,0.903,63.104,0.009,62,0.009z"/>
	</g>
</g>
<g>
</g>
<g>
</g>
<g>
</g>
<g>
</g>
<g>
</g>
<g>
</g>
<g>
</g>
<g>
</g>
<g>
</g>
<g>
</g>
<g>
</g>
<g>
</g>
<g>
</g>
<g>
</g>
<g>
</g>
</svg>
