<?xml version="1.0" encoding="iso-8859-1"?>
<!-- Generator: Adobe Illustrator 16.0.0, SVG Export Plug-In . SVG Version: 6.00 Build 0)  -->
<!DOCTYPE svg PUBLIC "-//W3C//DTD SVG 1.1//EN" "http://www.w3.org/Graphics/SVG/1.1/DTD/svg11.dtd">
<svg version="1.1" id="Layer_1" xmlns="http://www.w3.org/2000/svg" xmlns:xlink="http://www.w3.org/1999/xlink" x="0px" y="0px"
	 width="68px" height="66px" viewBox="0 0 68 66" style="enable-background:new 0 0 68 66;" xml:space="preserve">
<g id="Wheels_4_">
	<g>
		<path style="fill-rule:evenodd;clip-rule:evenodd;fill:#666666;" d="M20,54c-3.313,0-6,2.686-6,6c0,3.313,2.687,6,6,6s6-2.687,6-6
			C26,56.686,23.313,54,20,54z M20,62c-1.105,0-2-0.896-2-2c0-1.105,0.895-2,2-2c1.104,0,2,0.895,2,2C22,61.104,21.104,62,20,62z
			 M46,54c-3.314,0-6,2.686-6,6c0,3.313,2.686,6,6,6c3.313,0,6-2.687,6-6C52,56.686,49.313,54,46,54z M46,62c-1.104,0-2-0.896-2-2
			c0-1.105,0.896-2,2-2s2,0.895,2,2C48,61.104,47.104,62,46,62z"/>
	</g>
</g>
<g id="Basket_3_">
	<g>
		<path style="fill-rule:evenodd;clip-rule:evenodd;fill:#48A0DC;" d="M58,19.999V16H32c0,2.809-0.729,5.445-2,7.74V24h-0.158
			c-0.873,1.507-1.983,2.855-3.283,3.999H30V32h-4v-3.521c-1.203,0.966-2.548,1.759-4,2.347V32h-3.73l-0.016-0.178
			c-0.738,0.104-1.487,0.177-2.254,0.177c-0.594,0-1.178-0.038-1.754-0.101L14.254,32h-3.921l-0.187-1.121
			c-1.626-0.641-3.124-1.531-4.439-2.639L8,42c0,1.104,0.896,2,2,2h44v-4h-4.868l0.35-4H56v-4h-6.167l0.35-4.001H58V24h-7.468
			l0.35-4.001H58z M11.667,40L11,36h3.604l0.35,4H11.667z M22,40h-3.053c0.001-0.072,0.009-0.143,0.003-0.217L18.619,36H22V40z
			 M30,40h-4v-4h4V40z M38,40h-4v-4h4V40z M38,32h-4v-4.001h4V32z M38,24h-4v-4.001h4V24z M45.117,40H42v-4h3.467L45.117,40z
			 M45.816,32H42v-4.001h4.167L45.816,32z M46.517,24H42v-4.001h4.867L46.517,24z"/>
	</g>
</g>
<g id="Metal_2_">
	<g>
		<path style="fill-rule:evenodd;clip-rule:evenodd;fill:#CCCCCC;" d="M66,6h-4h-2h-2l-7.333,44H12c-1.104,0-2,0.895-2,2
			c0,1.104,0.896,2,2,2h38h4l7.333-44H66c1.104,0,2-0.896,2-2C68,6.895,67.104,6,66,6z"/>
	</g>
</g>
<g id="Elipse_13_">
	<g>
		<circle style="fill:#88C057;" cx="16" cy="16" r="12"/>
	</g>
</g>
<g id="Plus">
	<g>
		<path style="fill:#FFFFFF;" d="M20,14.001h-2v-2C18,10.895,17.104,10,16,10c-1.105,0-2,0.895-2,2.001v2h-2
			c-1.105,0-2,0.896-2,1.998c0,1.106,0.895,2,2,2h2V20c0,1.105,0.895,2,2,2c1.104,0,2-0.895,2-2v-2.001h2c1.104,0,2-0.894,2-2
			C22,14.896,21.104,14.001,20,14.001z"/>
	</g>
</g>
<g>
</g>
<g>
</g>
<g>
</g>
<g>
</g>
<g>
</g>
<g>
</g>
<g>
</g>
<g>
</g>
<g>
</g>
<g>
</g>
<g>
</g>
<g>
</g>
<g>
</g>
<g>
</g>
<g>
</g>
</svg>
