<?xml version="1.0" encoding="iso-8859-1"?>
<!-- Generator: Adobe Illustrator 16.0.0, SVG Export Plug-In . SVG Version: 6.00 Build 0)  -->
<!DOCTYPE svg PUBLIC "-//W3C//DTD SVG 1.1//EN" "http://www.w3.org/Graphics/SVG/1.1/DTD/svg11.dtd">
<svg version="1.1" id="Layer_1" xmlns="http://www.w3.org/2000/svg" xmlns:xlink="http://www.w3.org/1999/xlink" x="0px" y="0px"
	 width="64px" height="64px" viewBox="0 0 64 64" style="enable-background:new 0 0 64 64;" xml:space="preserve">
<g id="Cashbox_2_">
	<g>
		<path style="fill:#E6E6E6;" d="M50,14.001C50,13.937,50,4,50,4c0-2.209-1.791-4-4-4H10C7.791,0,6,1.791,6,4c0,0,0,10.091,0,10.001
			c0,8-6,12-6,36c0-0.022,56-0.022,56,0C56,26.001,50,22.001,50,14.001z"/>
	</g>
</g>
<g id="Drawer_1_">
	<g>
		<path style="fill:#CCCCCC;" d="M0,50.001V60c0,2.209,1.791,4,4,4h48c2.209,0,4-1.791,4-4v-9.999H0z"/>
	</g>
</g>
<g id="Lever">
	<g>
		<path style="fill-rule:evenodd;clip-rule:evenodd;fill:#CCCCCC;" d="M52,8h-2v4h2c1.104,0,2,0.896,2,2.001v10h4v-10
			C58,10.687,55.313,8,52,8z"/>
	</g>
</g>
<g id="Handle_3_">
	<g>
		<path style="fill:#ED7161;" d="M62,22.001h-6c-1.104,0-2,0.895-2,2c0,1.104,0.896,2,2,2h6c1.104,0,2-0.896,2-2
			C64,22.896,63.104,22.001,62,22.001z"/>
	</g>
</g>
<g id="Keypad_3_">
	<g>
		<path style="fill-rule:evenodd;clip-rule:evenodd;fill:#ED7161;" d="M16,20c-1.105,0-2,0.896-2,2.001c0,1.104,0.895,2,2,2
			c1.104,0,2-0.896,2-2C18,20.896,17.104,20,16,20z M24,20c-1.105,0-2,0.896-2,2.001c0,1.104,0.895,2,2,2c1.104,0,2-0.896,2-2
			C26,20.896,25.104,20,24,20z M32,20c-1.105,0-2,0.896-2,2.001c0,1.104,0.895,2,2,2c1.104,0,2-0.896,2-2C34,20.896,33.104,20,32,20
			z M40,24.001c1.104,0,2-0.896,2-2C42,20.896,41.104,20,40,20s-2,0.896-2,2.001C38,23.105,38.896,24.001,40,24.001z M16,28
			c-1.105,0-2,0.896-2,2.001c0,1.104,0.895,2,2,2c1.104,0,2-0.896,2-2C18,28.896,17.104,28,16,28z M24,28c-1.105,0-2,0.896-2,2.001
			c0,1.104,0.895,2,2,2c1.104,0,2-0.896,2-2C26,28.896,25.104,28,24,28z M32,28c-1.105,0-2,0.896-2,2.001c0,1.104,0.895,2,2,2
			c1.104,0,2-0.896,2-2C34,28.896,33.104,28,32,28z M40,28c-1.104,0-2,0.896-2,2.001c0,1.104,0.896,2,2,2s2-0.896,2-2
			C42,28.896,41.104,28,40,28z M16,36c-1.105,0-2,0.896-2,2.001c0,1.104,0.895,2,2,2c1.104,0,2-0.896,2-2C18,36.896,17.104,36,16,36
			z M24,36c-1.105,0-2,0.896-2,2.001c0,1.104,0.895,2,2,2c1.104,0,2-0.896,2-2C26,36.896,25.104,36,24,36z M32,36
			c-1.105,0-2,0.896-2,2.001c0,1.104,0.895,2,2,2c1.104,0,2-0.896,2-2C34,36.896,33.104,36,32,36z M40,36c-1.104,0-2,0.896-2,2.001
			c0,1.104,0.896,2,2,2s2-0.896,2-2C42,36.896,41.104,36,40,36z"/>
	</g>
</g>
<g id="Display_4_">
	<g>
		<path style="fill:#666666;" d="M40,4H16c-1.105,0-2,0.896-2,2.001v4C14,11.104,14.895,12,16,12h24c1.104,0,2-0.896,2-1.999v-4
			C42,4.896,41.104,4,40,4z"/>
	</g>
</g>
<g>
</g>
<g>
</g>
<g>
</g>
<g>
</g>
<g>
</g>
<g>
</g>
<g>
</g>
<g>
</g>
<g>
</g>
<g>
</g>
<g>
</g>
<g>
</g>
<g>
</g>
<g>
</g>
<g>
</g>
</svg>
