<?xml version="1.0" encoding="iso-8859-1"?>
<!-- Generator: Adobe Illustrator 16.0.0, SVG Export Plug-In . SVG Version: 6.00 Build 0)  -->
<!DOCTYPE svg PUBLIC "-//W3C//DTD SVG 1.1//EN" "http://www.w3.org/Graphics/SVG/1.1/DTD/svg11.dtd">
<svg version="1.1" id="Layer_1" xmlns="http://www.w3.org/2000/svg" xmlns:xlink="http://www.w3.org/1999/xlink" x="0px" y="0px"
	 width="64px" height="64px" viewBox="0 0 64 64" style="enable-background:new 0 0 64 64;" xml:space="preserve">
<g id="Cashbox">
	<g>
		<path style="fill-rule:evenodd;clip-rule:evenodd;fill:#CCCCCC;" d="M0,48v12c0,2.209,1.791,4,4,4h56c2.209,0,4-1.791,4-4V48H0z
			 M56,16c0-2.209-1.791-4-4-4h-6V8h2c1.104,0,2-0.895,2-1.999v-4C50,0.896,49.104,0,48,0H36c-1.104,0-2,0.896-2,2.001v4
			C34,7.105,34.896,8,36,8h2v4H12c-2.209,0-4,1.791-4,4v12h48V16z"/>
	</g>
</g>
<g id="Drawer">
	<g>
		<path style="fill:#E6E6E6;" d="M58,52H6c-1.104,0-2,0.896-2,2.001v4C4,59.104,4.896,60,6,60h52c1.104,0,2-0.896,2-1.999v-4
			C60,52.896,59.104,52,58,52z"/>
	</g>
</g>
<g id="Front_3_">
	<g>
		<polygon style="fill:#E6E6E6;" points="56,28 8,28 0,48.001 64,48.001 		"/>
	</g>
</g>
<g id="Keypad_2_">
	<g>
		<polygon style="fill:#CCCCCC;" points="52,32.001 32,32.001 32,44 56,44 		"/>
	</g>
</g>
<g id="Display_3_">
	<g>
		<path style="fill:#48A0DC;" d="M50,16H34c-1.104,0-2,0.896-2,2.001v4c0,1.104,0.896,2,2,2h16c1.104,0,2-0.896,2-2v-4
			C52,16.896,51.104,16,50,16z"/>
	</g>
</g>
<g id="Slot_6_">
	<g>
		<path style="fill:#666666;" d="M26,18.001H14c-1.104,0-2,0.895-2,1.999s0.896,2.001,2,2.001h12c1.104,0,2-0.896,2-2.001
			S27.104,18.001,26,18.001z"/>
	</g>
</g>
<g id="Paperroll">
	<g>
		<path style="fill:#FFFFFF;" d="M14,20v20.001c0,1.104,0.896,2,2,2h8c1.104,0,2-0.896,2-2V20H14z"/>
	</g>
</g>
<g>
</g>
<g>
</g>
<g>
</g>
<g>
</g>
<g>
</g>
<g>
</g>
<g>
</g>
<g>
</g>
<g>
</g>
<g>
</g>
<g>
</g>
<g>
</g>
<g>
</g>
<g>
</g>
<g>
</g>
</svg>
