<?xml version="1.0" encoding="iso-8859-1"?>
<!-- Generator: Adobe Illustrator 16.0.0, SVG Export Plug-In . SVG Version: 6.00 Build 0)  -->
<!DOCTYPE svg PUBLIC "-//W3C//DTD SVG 1.1//EN" "http://www.w3.org/Graphics/SVG/1.1/DTD/svg11.dtd">
<svg version="1.1" id="Layer_1" xmlns="http://www.w3.org/2000/svg" xmlns:xlink="http://www.w3.org/1999/xlink" x="0px" y="0px"
	 width="42.018px" height="64px" viewBox="0 0 42.018 64" style="enable-background:new 0 0 42.018 64;" xml:space="preserve">
<g id="Cent">
	<g>
		<path style="fill-rule:evenodd;clip-rule:evenodd;fill:#48A0DC;" d="M35.249,43.142C32.65,45.8,29.401,47.403,26,47.854V16.144
			c3.401,0.441,6.65,2.012,9.249,4.657c1.549,1.577,4.059,1.577,5.607,0c1.548-1.576,1.548-4.132,0-5.708
			C36.707,10.871,31.457,8.547,26,8.096V4.001C26,1.792,24.209,0,22,0s-4,1.792-4,4.001v4.764C7.646,11.438,0,20.828,0,32.001
			c0,11.173,7.646,20.562,18,23.235v4.765C18,62.21,19.791,64,22,64s4-1.79,4-3.999v-4.096c5.457-0.453,10.707-2.787,14.856-7.029
			c1.548-1.583,1.548-4.15,0-5.734C39.308,41.559,36.798,41.559,35.249,43.142z M8.012,32.001c0-6.704,4.132-12.436,9.988-14.816
			v29.633C12.144,44.437,8.012,38.704,8.012,32.001z"/>
	</g>
</g>
<g>
</g>
<g>
</g>
<g>
</g>
<g>
</g>
<g>
</g>
<g>
</g>
<g>
</g>
<g>
</g>
<g>
</g>
<g>
</g>
<g>
</g>
<g>
</g>
<g>
</g>
<g>
</g>
<g>
</g>
</svg>
