<?xml version="1.0" encoding="iso-8859-1"?>
<!-- Generator: Adobe Illustrator 16.0.0, SVG Export Plug-In . SVG Version: 6.00 Build 0)  -->
<!DOCTYPE svg PUBLIC "-//W3C//DTD SVG 1.1//EN" "http://www.w3.org/Graphics/SVG/1.1/DTD/svg11.dtd">
<svg version="1.1" id="Layer_1" xmlns="http://www.w3.org/2000/svg" xmlns:xlink="http://www.w3.org/1999/xlink" x="0px" y="0px"
	 width="56px" height="64px" viewBox="0 0 56 64" style="enable-background:new 0 0 56 64;" xml:space="preserve">
<g id="Chart_3_">
	<g>
		<path style="fill:#ED7161;" d="M14,36H2c-1.104,0-2,0.896-2,2v24.001C0,63.104,0.896,64,2,64h12c1.104,0,2-0.896,2-1.999V38
			C16,36.896,15.104,36,14,36z"/>
	</g>
</g>
<g id="Chart_4_">
	<g>
		<path style="fill:#88C057;" d="M34,0H22c-1.104,0-2,0.896-2,2v60.001C20,63.104,20.895,64,22,64h12c1.104,0,2-0.896,2-1.999V2
			C36,0.896,35.104,0,34,0z"/>
	</g>
</g>
<g id="Chart_5_">
	<g>
		<path style="fill:#48A0DC;" d="M54,20H42c-1.104,0-2,0.896-2,2v40.001C40,63.104,40.896,64,42,64h12c1.104,0,2-0.896,2-1.999V22
			C56,20.896,55.104,20,54,20z"/>
	</g>
</g>
<g>
</g>
<g>
</g>
<g>
</g>
<g>
</g>
<g>
</g>
<g>
</g>
<g>
</g>
<g>
</g>
<g>
</g>
<g>
</g>
<g>
</g>
<g>
</g>
<g>
</g>
<g>
</g>
<g>
</g>
</svg>
