<?xml version="1.0" encoding="iso-8859-1"?>
<!-- Generator: Adobe Illustrator 16.0.0, SVG Export Plug-In . SVG Version: 6.00 Build 0)  -->
<!DOCTYPE svg PUBLIC "-//W3C//DTD SVG 1.1//EN" "http://www.w3.org/Graphics/SVG/1.1/DTD/svg11.dtd">
<svg version="1.1" id="Layer_1" xmlns="http://www.w3.org/2000/svg" xmlns:xlink="http://www.w3.org/1999/xlink" x="0px" y="0px"
	 width="64.001px" height="64.033px" viewBox="0 0 64.001 64.033" style="enable-background:new 0 0 64.001 64.033;"
	 xml:space="preserve">
<g id="Cover">
	<g>
		<path style="fill:#CCCCCC;" d="M60,28.033H4.001c-2.21,0-4.001,1.791-4.001,4v28c0,2.21,1.791,4,4.001,4l42-0.001l18-18v-14
			C64.001,29.823,62.21,28.033,60,28.033z"/>
	</g>
</g>
<g id="Container_10_">
	<g>
		<path style="fill:#FFFFFF;" d="M58.001,32.034h-52c-1.104,0-2,0.896-2,2v24c0,1.104,0.896,2,2,2h38l16-16v-10
			C60.001,32.929,59.105,32.034,58.001,32.034z"/>
	</g>
</g>
<g id="Corner_3_">
	<g>
		<path style="fill:#999999;" d="M50.001,46.032c-2.21,0-4,1.792-4,4.001v13.999l18-18H50.001z"/>
	</g>
</g>
<g id="Text_11_">
	<g>
		<path style="fill:#CCCCCC;" d="M34,52.033H14.001c-1.105,0-2.001,0.896-2.001,2s0.896,1.999,2.001,1.999H34
			c1.104,0,2-0.895,2-1.999S35.104,52.033,34,52.033z"/>
	</g>
</g>
<g id="Nib">
	<g>
		<polygon style="fill:#999999;" points="40.001,14.034 26.001,16.033 14.001,48.033 14.001,48.034 16.001,50.034 48.001,38.034 
			50.001,24.033 		"/>
	</g>
</g>
<g id="Ring">
	<g>
		
			<rect x="44.173" y="7.133" transform="matrix(0.7071 -0.7071 0.7071 0.7071 1.7223 38.2235)" style="fill:#333333;" width="5.657" height="19.799"/>
	</g>
</g>
<g id="Barrel">
	<g>
		<path style="fill:#48A0DC;" d="M63.385,17.584L46.386,0.586c-0.782-0.782-2.051-0.782-2.833,0l-2.998,4.999
			c-0.782,0.782-0.782,2.05,0,2.833l14.998,14.998c0.782,0.782,2.051,0.782,2.833,0l4.999-2.998
			C64.167,19.635,64.167,18.368,63.385,17.584z"/>
	</g>
</g>
<g id="Split">
	<g>
		<path style="fill-rule:evenodd;clip-rule:evenodd;fill:#FFFFFF;" d="M34.006,26.039c-2.203,0-3.989,1.786-3.989,3.989
			c0,0.583,0.132,1.134,0.357,1.633L14.001,48.034l2,2l16.373-16.373c0.499,0.225,1.049,0.356,1.632,0.356
			c2.203,0,3.99-1.786,3.99-3.989S36.209,26.039,34.006,26.039z"/>
	</g>
</g>
<g>
</g>
<g>
</g>
<g>
</g>
<g>
</g>
<g>
</g>
<g>
</g>
<g>
</g>
<g>
</g>
<g>
</g>
<g>
</g>
<g>
</g>
<g>
</g>
<g>
</g>
<g>
</g>
<g>
</g>
</svg>
