<?xml version="1.0" encoding="iso-8859-1"?>
<!-- Generator: Adobe Illustrator 16.0.0, SVG Export Plug-In . SVG Version: 6.00 Build 0)  -->
<!DOCTYPE svg PUBLIC "-//W3C//DTD SVG 1.1//EN" "http://www.w3.org/Graphics/SVG/1.1/DTD/svg11.dtd">
<svg version="1.1" id="Layer_1" xmlns="http://www.w3.org/2000/svg" xmlns:xlink="http://www.w3.org/1999/xlink" x="0px" y="0px"
	 width="64px" height="64px" viewBox="0 0 64 64" style="enable-background:new 0 0 64 64;" xml:space="preserve">
<g id="Ellipse_4_">
	<g>
		<circle style="fill:#FFCC66;" cx="32" cy="32" r="32"/>
	</g>
</g>
<g id="Ellipse_5_">
	<g>
		<circle style="fill:#CCA352;" cx="32" cy="31.999" r="28"/>
	</g>
</g>
<g id="Ellipse_6_">
	<g>
		<circle style="fill:#FFCC66;" cx="32" cy="32" r="24"/>
	</g>
</g>
<g id="Rupee_2_">
	<g>
		<path style="fill-rule:evenodd;clip-rule:evenodd;fill:#CCA352;" d="M40,24h-2.201c-0.301-1.48-0.937-2.836-1.813-4H40
			c1.104,0,2-0.896,2-2c0-1.105-0.896-2-2-2H24c-1.104,0-2,0.895-2,2c0,1.104,0.896,2,2,2h4c2.611,0,4.827,1.671,5.651,4H24
			c-1.104,0-2,0.895-2,2c0,1.104,0.896,2,2,2h9.651c-0.825,2.329-3.04,4-5.651,4h-4c-0.358,0-0.69,0.102-0.981,0.267
			c-0.009,0.005-0.019,0.007-0.027,0.012c-0.006,0.003-0.011,0.008-0.016,0.011c-0.082,0.049-0.158,0.105-0.232,0.165
			c-0.036,0.029-0.073,0.057-0.106,0.088c-0.049,0.045-0.092,0.095-0.136,0.145c-0.044,0.049-0.087,0.098-0.124,0.15
			c-0.035,0.049-0.065,0.102-0.096,0.154c-0.031,0.054-0.063,0.106-0.088,0.162c-0.034,0.072-0.061,0.148-0.086,0.225
			c-0.011,0.035-0.022,0.068-0.031,0.104C22.031,33.649,22,33.82,22,34c0,0.579,0.25,1.096,0.643,1.461l7.708,11.547
			c0.539,0.922,1.733,1.237,2.667,0.705s1.254-1.711,0.715-2.633L27.672,36H28c4.838,0,8.872-3.436,9.799-8H40c1.104,0,2-0.896,2-2
			C42,24.895,41.104,24,40,24z"/>
	</g>
</g>
<g>
</g>
<g>
</g>
<g>
</g>
<g>
</g>
<g>
</g>
<g>
</g>
<g>
</g>
<g>
</g>
<g>
</g>
<g>
</g>
<g>
</g>
<g>
</g>
<g>
</g>
<g>
</g>
<g>
</g>
</svg>
