<?xml version="1.0" encoding="iso-8859-1"?>
<!-- Generator: Adobe Illustrator 16.0.0, SVG Export Plug-In . SVG Version: 6.00 Build 0)  -->
<!DOCTYPE svg PUBLIC "-//W3C//DTD SVG 1.1//EN" "http://www.w3.org/Graphics/SVG/1.1/DTD/svg11.dtd">
<svg version="1.1" id="Layer_1" xmlns="http://www.w3.org/2000/svg" xmlns:xlink="http://www.w3.org/1999/xlink" x="0px" y="0px"
	 width="64px" height="64px" viewBox="0 0 64 64" style="enable-background:new 0 0 64 64;" xml:space="preserve">
<g id="Ellipse_31_">
	<g>
		<circle style="fill:#F2B477;" cx="32" cy="32" r="32"/>
	</g>
</g>
<g id="Ellipse_32_">
	<g>
		<circle style="fill:#A67C52;" cx="32" cy="32" r="28"/>
	</g>
</g>
<g id="Ellipse_33_">
	<g>
		<circle style="fill:#F2B477;" cx="32" cy="32.001" r="20"/>
	</g>
</g>
<g id="_x33_">
	<g>
		<path style="fill-rule:evenodd;clip-rule:evenodd;fill:#A67C52;" d="M40,22c0-0.011-0.003-0.021-0.003-0.032
			c0.009-0.502-0.176-1.008-0.56-1.391c-0.285-0.285-0.639-0.46-1.008-0.528C38.291,20.019,38.147,20,38,20H26c-1.104,0-2,0.896-2,2
			s0.896,2,2,2h7.3l-4.724,4.724c-0.75,0.75-0.75,1.966,0,2.715c0.393,0.393,0.912,0.574,1.426,0.556L30,32h2c2.209,0,4,1.791,4,4
			s-1.791,4-4,4s-4-1.791-4-4c0-1.104-0.896-2-2-2s-2,0.896-2,2c0,4.419,3.582,8.001,8,8.001s8-3.582,8-8.001
			c0-3.593-2.368-6.631-5.628-7.642l4.646-4.645C39.604,23.364,40,22.731,40,22z"/>
	</g>
</g>
<g>
</g>
<g>
</g>
<g>
</g>
<g>
</g>
<g>
</g>
<g>
</g>
<g>
</g>
<g>
</g>
<g>
</g>
<g>
</g>
<g>
</g>
<g>
</g>
<g>
</g>
<g>
</g>
<g>
</g>
</svg>
