<?xml version="1.0" encoding="iso-8859-1"?>
<!-- Generator: Adobe Illustrator 16.0.0, SVG Export Plug-In . SVG Version: 6.00 Build 0)  -->
<!DOCTYPE svg PUBLIC "-//W3C//DTD SVG 1.1//EN" "http://www.w3.org/Graphics/SVG/1.1/DTD/svg11.dtd">
<svg version="1.1" id="Layer_1" xmlns="http://www.w3.org/2000/svg" xmlns:xlink="http://www.w3.org/1999/xlink" x="0px" y="0px"
	 width="64px" height="64px" viewBox="0 0 64 64" style="enable-background:new 0 0 64 64;" xml:space="preserve">
<g id="Ellipse_34_">
	<g>
		<circle style="fill:#CCCCCC;" cx="32" cy="32" r="32"/>
	</g>
</g>
<g id="Ellipse_35_">
	<g>
		<circle style="fill:#999999;" cx="32" cy="32" r="28"/>
	</g>
</g>
<g id="Ellipse_36_">
	<g>
		<circle style="fill:#CCCCCC;" cx="32" cy="32.001" r="20"/>
	</g>
</g>
<g id="_x32_">
	<g>
		<path style="fill-rule:evenodd;clip-rule:evenodd;fill:#999999;" d="M38,40h-7.11l5.91-5.6l-0.006-0.007
			C38.737,32.934,40,30.618,40,28c0-4.419-3.582-8-8-8c-4.419,0-8,3.581-8,8c0,1.104,0.895,2.001,2,2.001c1.104,0,2-0.896,2-2.001
			c0-2.209,1.79-4,4-4c2.209,0,4,1.791,4,4c0,1.078-0.738,2.408-1.847,3.231l0.006,0.009l-9.598,9.467
			c-0.356,0.356-0.538,0.819-0.555,1.286L24,42c0,0.01,0.003,0.02,0.003,0.03c-0.009,0.503,0.175,1.009,0.559,1.393
			c0.284,0.284,0.637,0.459,1.005,0.528c0.14,0.031,0.284,0.05,0.434,0.05h12c1.104,0,2-0.896,2-2.001S39.104,40,38,40z"/>
	</g>
</g>
<g>
</g>
<g>
</g>
<g>
</g>
<g>
</g>
<g>
</g>
<g>
</g>
<g>
</g>
<g>
</g>
<g>
</g>
<g>
</g>
<g>
</g>
<g>
</g>
<g>
</g>
<g>
</g>
<g>
</g>
</svg>
