<?xml version="1.0" encoding="iso-8859-1"?>
<!-- Generator: Adobe Illustrator 16.0.0, SVG Export Plug-In . SVG Version: 6.00 Build 0)  -->
<!DOCTYPE svg PUBLIC "-//W3C//DTD SVG 1.1//EN" "http://www.w3.org/Graphics/SVG/1.1/DTD/svg11.dtd">
<svg version="1.1" id="Layer_1" xmlns="http://www.w3.org/2000/svg" xmlns:xlink="http://www.w3.org/1999/xlink" x="0px" y="0px"
	 width="64px" height="64px" viewBox="0 0 64 64" style="enable-background:new 0 0 64 64;" xml:space="preserve">
<g id="Ellipse_13_">
	<g>
		<circle style="fill:#FFCC66;" cx="32" cy="32" r="32"/>
	</g>
</g>
<g id="Ellipse_14_">
	<g>
		<circle style="fill:#CCA352;" cx="32" cy="31.999" r="28"/>
	</g>
</g>
<g id="Ellipse_15_">
	<g>
		<circle style="fill:#FFCC66;" cx="32" cy="32" r="24"/>
	</g>
</g>
<g id="Franc_2_">
	<g>
		<path style="fill-rule:evenodd;clip-rule:evenodd;fill:#CCA352;" d="M42,16H26c-1.105,0-2,0.895-2,2v18h-2c-1.105,0-2,0.895-2,2
			c0,1.104,0.895,2,2,2h2v6c0,1.104,0.896,2,2,2s2-0.896,2-2v-6h2c1.104,0,2-0.896,2-2c0-1.105-0.896-2-2-2h-2v-6h10
			c1.104,0,2-0.896,2-2c0-1.105-0.896-2-2-2H28v-6h14c1.104,0,2-0.896,2-2C44,16.895,43.104,16,42,16z"/>
	</g>
</g>
<g>
</g>
<g>
</g>
<g>
</g>
<g>
</g>
<g>
</g>
<g>
</g>
<g>
</g>
<g>
</g>
<g>
</g>
<g>
</g>
<g>
</g>
<g>
</g>
<g>
</g>
<g>
</g>
<g>
</g>
</svg>
