<?xml version="1.0" encoding="iso-8859-1"?>
<!-- Generator: Adobe Illustrator 16.0.0, SVG Export Plug-In . SVG Version: 6.00 Build 0)  -->
<!DOCTYPE svg PUBLIC "-//W3C//DTD SVG 1.1//EN" "http://www.w3.org/Graphics/SVG/1.1/DTD/svg11.dtd">
<svg version="1.1" id="Layer_1" xmlns="http://www.w3.org/2000/svg" xmlns:xlink="http://www.w3.org/1999/xlink" x="0px" y="0px"
	 width="64px" height="64px" viewBox="0 0 64 64" style="enable-background:new 0 0 64 64;" xml:space="preserve">
<g id="Ellipse_37_">
	<g>
		<circle style="fill:#FFCC66;" cx="32" cy="32" r="32"/>
	</g>
</g>
<g id="Ellipse_38_">
	<g>
		<circle style="fill:#CCA352;" cx="32" cy="32" r="28"/>
	</g>
</g>
<g id="Ellipse_39_">
	<g>
		<circle style="fill:#FFCC66;" cx="32" cy="32.001" r="20"/>
	</g>
</g>
<g id="_x31_">
	<g>
		<path style="fill-rule:evenodd;clip-rule:evenodd;fill:#CCA352;" d="M36,40.001h-2V24v-2v-2h-2c-0.745,0-1.388,0.413-1.731,1.017
			l-3.699,3.699c-0.75,0.75-0.75,1.966,0,2.715c0.749,0.75,1.965,0.75,2.715,0L30,26.715v13.286h-2c-1.105,0-2,0.895-2,2
			c0,1.104,0.895,2,2,2h8c1.104,0,2-0.896,2-2C38,40.896,37.104,40.001,36,40.001z"/>
	</g>
</g>
<g>
</g>
<g>
</g>
<g>
</g>
<g>
</g>
<g>
</g>
<g>
</g>
<g>
</g>
<g>
</g>
<g>
</g>
<g>
</g>
<g>
</g>
<g>
</g>
<g>
</g>
<g>
</g>
<g>
</g>
</svg>
