<?xml version="1.0" encoding="iso-8859-1"?>
<!-- Generator: Adobe Illustrator 16.0.0, SVG Export Plug-In . SVG Version: 6.00 Build 0)  -->
<!DOCTYPE svg PUBLIC "-//W3C//DTD SVG 1.1//EN" "http://www.w3.org/Graphics/SVG/1.1/DTD/svg11.dtd">
<svg version="1.1" id="Layer_1" xmlns="http://www.w3.org/2000/svg" xmlns:xlink="http://www.w3.org/1999/xlink" x="0px" y="0px"
	 width="64px" height="64px" viewBox="0 0 64 64" style="enable-background:new 0 0 64 64;" xml:space="preserve">
<g id="Ellipse_10_">
	<g>
		<circle style="fill:#FFCC66;" cx="32" cy="32" r="32"/>
	</g>
</g>
<g id="Ellipse_11_">
	<g>
		<circle style="fill:#CCA352;" cx="32" cy="31.999" r="28"/>
	</g>
</g>
<g id="Ellipse_12_">
	<g>
		<circle style="fill:#FFCC66;" cx="32" cy="32" r="24"/>
	</g>
</g>
<g id="Yen_2_">
	<g>
		<path style="fill-rule:evenodd;clip-rule:evenodd;fill:#CCA352;" d="M43.438,19.425c0.787-0.786,0.787-2.062,0-2.848
			c-0.785-0.786-2.061-0.786-2.847,0l-8.575,8.575l-8.575-8.575c-0.786-0.786-2.062-0.786-2.848,0s-0.786,2.062,0,2.848l9.423,9.423
			V30h-4c-1.105,0-2,0.895-2,2c0,1.104,0.895,2,2,2h4v4h-4c-1.105,0-2,0.895-2,2c0,1.104,0.895,2,2,2h4v4c0,1.104,0.896,2,2,2
			s2-0.896,2-2v-4h4c1.104,0,2-0.896,2-2c0-1.105-0.896-2-2-2h-4v-4h4c1.104,0,2-0.896,2-2c0-1.105-0.896-2-2-2h-4v-1.153
			L43.438,19.425z"/>
	</g>
</g>
<g>
</g>
<g>
</g>
<g>
</g>
<g>
</g>
<g>
</g>
<g>
</g>
<g>
</g>
<g>
</g>
<g>
</g>
<g>
</g>
<g>
</g>
<g>
</g>
<g>
</g>
<g>
</g>
<g>
</g>
</svg>
