<?xml version="1.0" encoding="iso-8859-1"?>
<!-- Generator: Adobe Illustrator 16.0.0, SVG Export Plug-In . SVG Version: 6.00 Build 0)  -->
<!DOCTYPE svg PUBLIC "-//W3C//DTD SVG 1.1//EN" "http://www.w3.org/Graphics/SVG/1.1/DTD/svg11.dtd">
<svg version="1.1" id="Layer_1" xmlns="http://www.w3.org/2000/svg" xmlns:xlink="http://www.w3.org/1999/xlink" x="0px" y="0px"
	 width="64px" height="64px" viewBox="0 0 64 64" style="enable-background:new 0 0 64 64;" xml:space="preserve">
<g id="Ellipse_28_">
	<g>
		<circle style="fill:#E6E6E6;" cx="32" cy="32" r="32"/>
	</g>
</g>
<g id="Ellipse_29_">
	<g>
		<circle style="fill:#B3B3B3;" cx="32" cy="32" r="28"/>
	</g>
</g>
<g id="Ellipse_30_">
	<g>
		<circle style="fill:#E6E6E6;" cx="32" cy="32.001" r="20"/>
	</g>
</g>
<g id="_x34_">
	<g>
		<path style="fill-rule:evenodd;clip-rule:evenodd;fill:#B3B3B3;" d="M38,34v-2c0-1.104-0.896-1.999-2-1.999
			c-1.105,0-2,0.895-2,1.999v2h-4.559l6.29-10.97c0.553-0.963,0.225-2.194-0.731-2.751c-0.957-0.557-2.18-0.226-2.732,0.737
			l-8,13.953c-0.108,0.188-0.173,0.389-0.216,0.591c-0.005,0.021-0.01,0.041-0.014,0.061c-0.017,0.094-0.025,0.188-0.028,0.283
			C24.008,35.937,24,35.967,24,36c0,0.02,0.005,0.037,0.006,0.056c0.002,0.06,0.01,0.118,0.018,0.177
			c0.01,0.084,0.021,0.167,0.041,0.249c0.006,0.019,0.013,0.037,0.018,0.056c0.214,0.762,0.861,1.334,1.664,1.438
			c0.006,0,0.012,0.001,0.018,0.001C25.842,37.985,25.919,38,26,38h8v4c0,1.104,0.895,2.001,2,2.001c1.104,0,2-0.896,2-2.001v-4
			c1.104,0,2-0.896,2-2S39.104,34,38,34z"/>
	</g>
</g>
<g>
</g>
<g>
</g>
<g>
</g>
<g>
</g>
<g>
</g>
<g>
</g>
<g>
</g>
<g>
</g>
<g>
</g>
<g>
</g>
<g>
</g>
<g>
</g>
<g>
</g>
<g>
</g>
<g>
</g>
</svg>
