<?xml version="1.0" encoding="iso-8859-1"?>
<!-- Generator: Adobe Illustrator 16.0.0, SVG Export Plug-In . SVG Version: 6.00 Build 0)  -->
<!DOCTYPE svg PUBLIC "-//W3C//DTD SVG 1.1//EN" "http://www.w3.org/Graphics/SVG/1.1/DTD/svg11.dtd">
<svg version="1.1" id="Layer_1" xmlns="http://www.w3.org/2000/svg" xmlns:xlink="http://www.w3.org/1999/xlink" x="0px" y="0px"
	 width="64px" height="64px" viewBox="0 0 64 64" style="enable-background:new 0 0 64 64;" xml:space="preserve">
<g id="Ellipse_19_">
	<g>
		<circle style="fill:#FFCC66;" cx="32" cy="32" r="32"/>
	</g>
</g>
<g id="Ellipse_20_">
	<g>
		<circle style="fill:#CCA352;" cx="32" cy="31.999" r="28"/>
	</g>
</g>
<g id="Ellipse_21_">
	<g>
		<circle style="fill:#FFCC66;" cx="32" cy="32" r="24"/>
	</g>
</g>
<g id="Euro_2_">
	<g>
		<path style="fill-rule:evenodd;clip-rule:evenodd;fill:#CCA352;" d="M42,38c-0.875,0-1.585,1.188-2,2
			c-0.656,1.28-1.992,3.999-7.001,3.999c-3.917,0-7.24-2.506-8.477-5.999h5.477c1.105,0,2-0.896,2-2c0-1.105-0.895-2-2-2h-6v-4h6
			c1.105,0,2-0.896,2-2c0-1.105-0.895-2-2-2h-5.477c1.237-3.493,4.56-6,8.477-6c5.009,0,6.345,2.718,7.001,4
			c0.415,0.811,1.125,2,2,2c1.353,0,2-0.676,2-2c0-0.641-0.223-1.723-1-3c-0.957-1.571-3.807-5-10.001-5
			c-6.146,0-11.282,4.27-12.638,10h-2.362C16.895,26,16,26.895,16,28c0,1.104,0.895,2,1.999,2h2v4h-2C16.895,34,16,34.895,16,36
			c0,1.104,0.895,2,1.999,2h2.362c1.356,5.731,6.493,10,12.638,10c6.194,0,9.044-3.429,10.001-5c0.777-1.277,1-2.359,1-3
			C44,38.675,43.353,38,42,38z"/>
	</g>
</g>
<g>
</g>
<g>
</g>
<g>
</g>
<g>
</g>
<g>
</g>
<g>
</g>
<g>
</g>
<g>
</g>
<g>
</g>
<g>
</g>
<g>
</g>
<g>
</g>
<g>
</g>
<g>
</g>
<g>
</g>
</svg>
