<?xml version="1.0" encoding="iso-8859-1"?>
<!-- Generator: Adobe Illustrator 16.0.0, SVG Export Plug-In . SVG Version: 6.00 Build 0)  -->
<!DOCTYPE svg PUBLIC "-//W3C//DTD SVG 1.1//EN" "http://www.w3.org/Graphics/SVG/1.1/DTD/svg11.dtd">
<svg version="1.1" id="Layer_1" xmlns="http://www.w3.org/2000/svg" xmlns:xlink="http://www.w3.org/1999/xlink" x="0px" y="0px"
	 width="64px" height="64px" viewBox="0 0 64 64" style="enable-background:new 0 0 64 64;" xml:space="preserve">
<g id="Ellipse_22_">
	<g>
		<circle style="fill:#FFCC66;" cx="32" cy="32" r="32"/>
	</g>
</g>
<g id="Ellipse_23_">
	<g>
		<circle style="fill:#CCA352;" cx="32" cy="31.999" r="28"/>
	</g>
</g>
<g id="Ellipse_24_">
	<g>
		<circle style="fill:#FFCC66;" cx="32" cy="32" r="24"/>
	</g>
</g>
<g id="Dollar_1_">
	<g>
		<path style="fill-rule:evenodd;clip-rule:evenodd;fill:#CCA352;" d="M34,30.321v-7.168C37.756,23.759,38.372,26,40,26
			c1.156,0,2-0.969,2-2c0-1.859-2.761-4.375-8-4.897V18c0-1.105-0.896-2.001-2-2.001S30,16.895,30,18v1.121
			c-4.563,0.569-8,3.154-8,7.879c0,4.825,3.84,6.011,8,6.696v7.127C26.547,40.187,25.757,38,24,38c-1.281,0-2,0.98-2,2
			c0,1.565,2.639,4.325,8,4.89V46c0,1.104,0.896,2,2,2s2-0.896,2-2v-1.106c5.643-0.575,8-3.647,8-7.894
			C42,32.516,38.919,31.188,34,30.321z M26,27c0-1.417,0.616-3.322,4-3.853v6.578C27.689,29.397,26,28.969,26,27z M34,40.8v-6.452
			c2.818,0.59,4,1.393,4,2.652C38,38.817,36.584,40.295,34,40.8z"/>
	</g>
</g>
<g>
</g>
<g>
</g>
<g>
</g>
<g>
</g>
<g>
</g>
<g>
</g>
<g>
</g>
<g>
</g>
<g>
</g>
<g>
</g>
<g>
</g>
<g>
</g>
<g>
</g>
<g>
</g>
<g>
</g>
</svg>
