<?xml version="1.0" encoding="iso-8859-1"?>
<!-- Generator: Adobe Illustrator 16.0.0, SVG Export Plug-In . SVG Version: 6.00 Build 0)  -->
<!DOCTYPE svg PUBLIC "-//W3C//DTD SVG 1.1//EN" "http://www.w3.org/Graphics/SVG/1.1/DTD/svg11.dtd">
<svg version="1.1" id="Layer_1" xmlns="http://www.w3.org/2000/svg" xmlns:xlink="http://www.w3.org/1999/xlink" x="0px" y="0px"
	 width="64px" height="64px" viewBox="0 0 64 64" style="enable-background:new 0 0 64 64;" xml:space="preserve">
<g id="Ellipse_16_">
	<g>
		<circle style="fill:#FFCC66;" cx="32" cy="32" r="32"/>
	</g>
</g>
<g id="Ellipse_17_">
	<g>
		<circle style="fill:#CCA352;" cx="32" cy="31.999" r="28"/>
	</g>
</g>
<g id="Ellipse_18_">
	<g>
		<circle style="fill:#FFCC66;" cx="32" cy="32" r="24"/>
	</g>
</g>
<g id="Pound_2_">
	<g>
		<path style="fill-rule:evenodd;clip-rule:evenodd;fill:#CCA352;" d="M43,42c-2,0-2.713,2-6,2c-3.288,0-4.94-2-8-2
			c-0.276,0-0.534,0.026-0.792,0.05C29.181,40.398,30,38.327,30,36c0-0.643-0.075-1.317-0.176-2H33c1.104,0,2-0.896,2-2
			c0-1.105-0.896-2-2-2h-4.039C28.475,28.109,28,26.335,28,25c0-1.93,1.029-5,6-5c4.443,0,5.344,2.718,6,4c0.415,0.811,1.125,2,2,2
			c1.353,0,2-0.676,2-2c0-0.641-0.223-1.723-1-3.001C42.043,19.429,40.193,16,34,16c-7.18,0-10,3.964-10,9
			c0,1.966,0.347,3.548,0.749,5H21c-1.105,0-2,0.895-2,2c0,1.104,0.895,2,2,2h4.797C25.914,34.643,26,35.298,26,36
			c0,3.323-2.931,6.781-4.303,8.708C21.287,45.037,21,45.452,21,46c0,1.698,1,2,2,2c1.43,0,2.973-2,6-2c2.083,0,4.387,2,8,2
			c2.832,0,5.202-1.505,6-2c0.942-0.587,2.032-1.153,2-2C44.939,42.433,44,42,43,42z"/>
	</g>
</g>
<g>
</g>
<g>
</g>
<g>
</g>
<g>
</g>
<g>
</g>
<g>
</g>
<g>
</g>
<g>
</g>
<g>
</g>
<g>
</g>
<g>
</g>
<g>
</g>
<g>
</g>
<g>
</g>
<g>
</g>
</svg>
