<?xml version="1.0" encoding="iso-8859-1"?>
<!-- Generator: Adobe Illustrator 16.0.0, SVG Export Plug-In . SVG Version: 6.00 Build 0)  -->
<!DOCTYPE svg PUBLIC "-//W3C//DTD SVG 1.1//EN" "http://www.w3.org/Graphics/SVG/1.1/DTD/svg11.dtd">
<svg version="1.1" id="Layer_1" xmlns="http://www.w3.org/2000/svg" xmlns:xlink="http://www.w3.org/1999/xlink" x="0px" y="0px"
	 width="64px" height="64px" viewBox="0 0 64 64" style="enable-background:new 0 0 64 64;" xml:space="preserve">
<g id="Ellipse_25_">
	<g>
		<circle style="fill:#FFCC66;" cx="32" cy="32" r="32"/>
	</g>
</g>
<g id="Ellipse_26_">
	<g>
		<circle style="fill:#CCA352;" cx="32" cy="31.999" r="28"/>
	</g>
</g>
<g id="Ellipse_27_">
	<g>
		<circle style="fill:#FFCC66;" cx="32" cy="32" r="24"/>
	</g>
</g>
<g id="Bitcoin_2_">
	<g>
		<path style="fill-rule:evenodd;clip-rule:evenodd;fill:#CCA352;" d="M44,37c0-2.508-1.324-4.702-3.307-5.938
			C41.513,29.916,42,28.516,42,27c0-3.866-3.134-7-7-7h-1v-2c0-1.105-0.896-2-2-2c-1.105,0-2,0.895-2,2v2h-2v-2c0-1.105-0.896-2-2-2
			c-1.105,0-2,0.895-2,2v2h-2c-1.104,0-2,0.896-2,2s0.896,2,2,2h2v16h-2c-1.104,0-2,0.896-2,2s0.896,2,2,2h2v2c0,1.104,0.895,2,2,2
			c1.104,0,2-0.896,2-2v-2h2v2c0,1.104,0.895,2,2,2c1.104,0,2-0.896,2-2v-2h3l0,0C40.866,44,44,40.865,44,37z M35,24
			c1.657,0,3,1.343,3,3c0,1.656-1.343,3-3,3h-7v-6H35z M37,40h-9v-6h7c0.695,0,1.366-0.105,2-0.294V34c1.657,0,3,1.343,3,3
			C40,38.656,38.657,40,37,40z"/>
	</g>
</g>
<g>
</g>
<g>
</g>
<g>
</g>
<g>
</g>
<g>
</g>
<g>
</g>
<g>
</g>
<g>
</g>
<g>
</g>
<g>
</g>
<g>
</g>
<g>
</g>
<g>
</g>
<g>
</g>
<g>
</g>
</svg>
