<?xml version="1.0" encoding="iso-8859-1"?>
<!-- Generator: Adobe Illustrator 16.0.0, SVG Export Plug-In . SVG Version: 6.00 Build 0)  -->
<!DOCTYPE svg PUBLIC "-//W3C//DTD SVG 1.1//EN" "http://www.w3.org/Graphics/SVG/1.1/DTD/svg11.dtd">
<svg version="1.1" id="Layer_1" xmlns="http://www.w3.org/2000/svg" xmlns:xlink="http://www.w3.org/1999/xlink" x="0px" y="0px"
	 width="63.981px" height="51.97px" viewBox="0 0 63.981 51.97" style="enable-background:new 0 0 63.981 51.97;"
	 xml:space="preserve">
<g id="Blade">
	<g>
		<path style="fill:#CCCCCC;" d="M59.985,7.985c-6.383,0-19.981,8-19.981,8l-15.985,10l-7.99,10l1.997,2l11.989-8l33.967-22H59.985z
			"/>
	</g>
</g>
<g id="Dollar_Symbol_1_">
	<g>
		<path style="fill-rule:evenodd;clip-rule:evenodd;fill:#666666;" d="M49.98,22.527v-8.339c3.757,0.809,4.371,3.796,6,3.796
			c1.156,0,2-0.969,2-2c0-1.858-2.761-5.169-8-5.863V7.984c0-1.104-0.896-2-2-2s-2,0.896-2,2v2.121c-4.563,0.569-8,3.153-8,7.879
			c0,4.814,3.889,6.404,8,7.496v8.269c-3.453-0.849-4.243-3.765-6-3.765c-1.281,0-2,0.98-2,2c0,1.565,2.639,5.123,8,5.857v2.143
			c0,1.104,0.896,2,2,2s2-0.896,2-2v-2.105c5.644-0.575,8-3.647,8-7.895C57.98,25.525,54.712,23.884,49.98,22.527z M41.98,17.984
			c0-1.417,0.616-3.321,4-3.853v7.313C43.686,20.775,41.98,19.949,41.98,17.984z M49.98,33.784V26.54c3.418,1.079,4,2.142,4,3.445
			C53.98,31.802,52.564,33.28,49.98,33.784z"/>
	</g>
</g>
<g id="Blade_1_">
	<g>
		<path style="fill:#CCCCCC;" d="M29.97,21.985l-12.004-8l-2,2l8.001,10l16.006,10c0,0,13.616,8,20.007,8h4.002L29.97,21.985z"/>
	</g>
</g>
<g id="Handles">
	<g>
		<path style="fill-rule:evenodd;clip-rule:evenodd;fill:#9B7CAB;" d="M17.63,17.655c3.525-3.53,2.954-9.826-1.276-14.063
			S5.836-1.216,2.312,2.314c-3.525,3.53-2.954,9.826,1.276,14.062C7.818,20.613,14.105,21.186,17.63,17.655z M5.112,5.126
			c1.923-1.923,5.657-1.305,8.343,1.381c2.685,2.686,3.304,6.422,1.381,8.344c-1.922,1.923-5.657,1.304-8.342-1.382
			C3.809,10.783,3.191,7.048,5.112,5.126z M3.588,35.594c-4.23,4.236-4.802,10.531-1.276,14.062s9.812,2.959,14.042-1.278
			c4.23-4.236,4.802-10.532,1.276-14.062C14.105,30.784,7.818,31.357,3.588,35.594z M13.467,45.464
			c-2.694,2.685-6.441,3.303-8.37,1.381c-1.929-1.923-1.309-5.658,1.386-8.344s6.441-3.304,8.371-1.382
			C16.781,39.042,16.16,42.777,13.467,45.464z"/>
	</g>
</g>
<g id="Elipse_11_">
	<g>
		<circle style="fill:#999999;" cx="30.012" cy="25.985" r="2"/>
	</g>
</g>
<g>
</g>
<g>
</g>
<g>
</g>
<g>
</g>
<g>
</g>
<g>
</g>
<g>
</g>
<g>
</g>
<g>
</g>
<g>
</g>
<g>
</g>
<g>
</g>
<g>
</g>
<g>
</g>
<g>
</g>
</svg>
