<?xml version="1.0" encoding="iso-8859-1"?>
<!-- Generator: Adobe Illustrator 16.0.0, SVG Export Plug-In . SVG Version: 6.00 Build 0)  -->
<!DOCTYPE svg PUBLIC "-//W3C//DTD SVG 1.1//EN" "http://www.w3.org/Graphics/SVG/1.1/DTD/svg11.dtd">
<svg version="1.1" id="Layer_1" xmlns="http://www.w3.org/2000/svg" xmlns:xlink="http://www.w3.org/1999/xlink" x="0px" y="0px"
	 width="64px" height="52px" viewBox="0 0 64 52" style="enable-background:new 0 0 64 52;" xml:space="preserve">
<g id="Platform">
	<g>
		<path style="fill:#999999;" d="M62,33.999L0,34v8c0,1.104,0.896,2,2,2h60c1.104,0,2-0.896,2-2v-6
			C64,34.895,63.104,33.999,62,33.999z"/>
	</g>
</g>
<g id="Cabin">
	<g>
		<path style="fill:#48A0DC;" d="M18,12h-8c-2.209,0-3.341,0.681-4,1.999C2,22,0,26,0,26v12h8c0-4,6-4,6-4h8V16
			C22,13.791,20.209,12,18,12z"/>
	</g>
</g>
<g id="Window">
	<g>
		<path style="fill:#FFFFFF;" d="M16,16h-6c-1.104,0-1.512,1.023-2,2c-4,8-4,8-4,8h12c1.104,0,2-0.896,2-2v-6
			C18,16.895,17.104,16,16,16z"/>
	</g>
</g>
<g id="Headlight">
	<g>
		<path style="fill:#FFCC66;" d="M2,32H0v5.999h2c1.104,0,2-0.895,2-1.999v-2C4,32.895,3.104,32,2,32z"/>
	</g>
</g>
<g id="Tank">
	<g>
		<path style="fill:#666666;" d="M36,35.999h-8c-1.105,0-2,0.896-2,2v4c0,1.104,0.895,2,2,2h8c1.104,0,2-0.896,2-2v-4
			C38,36.895,37.104,35.999,36,35.999z"/>
	</g>
</g>
<g id="Wheels_1_">
	<g>
		<path style="fill-rule:evenodd;clip-rule:evenodd;fill:#666666;" d="M48,35.999c-4.419,0-8,3.582-8,8.001c0,4.418,3.581,8,8,8
			c4.418,0,8-3.582,8-8C56,39.581,52.418,35.999,48,35.999z M16,35.999c-4.418,0-8,3.582-8,8.001c0,4.418,3.582,8,8,8s8-3.582,8-8
			C24,39.581,20.418,35.999,16,35.999z"/>
	</g>
</g>
<g id="Rims">
	<g>
		<path style="fill-rule:evenodd;clip-rule:evenodd;fill:#E6E6E6;" d="M16,40c-2.21,0-4,1.79-4,3.999s1.79,4,4,4
			c2.209,0,4-1.791,4-4S18.209,40,16,40z M48,40c-2.21,0-4,1.79-4,3.999s1.79,4,4,4c2.209,0,4-1.791,4-4S50.209,40,48,40z"/>
	</g>
</g>
<g id="Cover_1_">
	<g>
		<path style="fill:#CCCCCC;" d="M60,0H26c-2.209,0-4,1.791-4,4v29.999h42V4C64,1.791,62.209,0,60,0z"/>
	</g>
</g>
<g>
</g>
<g>
</g>
<g>
</g>
<g>
</g>
<g>
</g>
<g>
</g>
<g>
</g>
<g>
</g>
<g>
</g>
<g>
</g>
<g>
</g>
<g>
</g>
<g>
</g>
<g>
</g>
<g>
</g>
</svg>
