<?xml version="1.0" encoding="iso-8859-1"?>
<!-- Generator: Adobe Illustrator 16.0.0, SVG Export Plug-In . SVG Version: 6.00 Build 0)  -->
<!DOCTYPE svg PUBLIC "-//W3C//DTD SVG 1.1//EN" "http://www.w3.org/Graphics/SVG/1.1/DTD/svg11.dtd">
<svg version="1.1" id="Layer_1" xmlns="http://www.w3.org/2000/svg" xmlns:xlink="http://www.w3.org/1999/xlink" x="0px" y="0px"
	 width="40px" height="64px" viewBox="0 0 40 64" style="enable-background:new 0 0 40 64;" xml:space="preserve">
<g id="Dollar_Symbol">
	<g>
		<path style="fill-rule:evenodd;clip-rule:evenodd;fill:#88C057;" d="M24,28.643V14.301C31.52,15.512,32.742,20,36,20
			c2.313,0,4-1.938,4-3.999c0-3.719-5.521-8.751-16-9.795V4c0-2.209-1.791-4-4-4s-4,1.791-4,4v2.242C6.874,7.38,0,12.551,0,22
			c0,9.65,7.679,12.025,16,13.396v14.252c-6.906-1.273-8.486-5.646-12-5.646c-2.563,0-4,1.96-4,4c0,3.13,5.277,8.649,16,9.78V60
			c0,2.209,1.791,4,4,4s4-1.791,4-4v-2.211c11.286-1.15,16-7.295,16-15.788C40,33.033,33.838,30.378,24,28.643z M8,22
			c0-2.833,1.232-6.643,8-7.705v13.156C11.378,26.795,8,25.938,8,22z M24,49.644V36.695c5.636,1.181,8,2.785,8,5.306
			C32,45.646,29.195,48.643,24,49.644z"/>
	</g>
</g>
<g>
</g>
<g>
</g>
<g>
</g>
<g>
</g>
<g>
</g>
<g>
</g>
<g>
</g>
<g>
</g>
<g>
</g>
<g>
</g>
<g>
</g>
<g>
</g>
<g>
</g>
<g>
</g>
<g>
</g>
</svg>
