<?xml version="1.0" encoding="iso-8859-1"?>
<!-- Generator: Adobe Illustrator 16.0.0, SVG Export Plug-In . SVG Version: 6.00 Build 0)  -->
<!DOCTYPE svg PUBLIC "-//W3C//DTD SVG 1.1//EN" "http://www.w3.org/Graphics/SVG/1.1/DTD/svg11.dtd">
<svg version="1.1" id="Layer_1" xmlns="http://www.w3.org/2000/svg" xmlns:xlink="http://www.w3.org/1999/xlink" x="0px" y="0px"
	 width="56.001px" height="63.999px" viewBox="0 0 56.001 63.999" style="enable-background:new 0 0 56.001 63.999;"
	 xml:space="preserve">
<g id="Euro">
	<g>
		<path style="fill-rule:evenodd;clip-rule:evenodd;fill:#48A0DC;" d="M52.001,43.999c-1.75,0-3.17,2.378-4,4
			c-1.313,2.563-3.984,8-14.001,8c-8.563,0-15.717-5.986-17.538-13.999H28c2.21,0,4.001-1.792,4.001-4.001S30.21,34,28,34H16v-4.001
			h12c2.21,0,4.001-1.791,4.001-3.999c0-2.21-1.791-4.001-4.001-4.001H16.461C18.283,13.986,25.436,8,34,8
			c10.017,0,12.688,5.438,14.001,8c0.83,1.621,2.25,3.999,4,3.999c2.706,0,4-1.35,4-3.999c0-1.282-0.445-3.445-2-6.001
			C52.088,6.856,46.389,0,34,0C21.001,0,10.231,9.539,8.307,21.999H4c-2.209,0-4,1.791-4,4.001c0,2.208,1.791,3.999,4,3.999h4V34H4
			c-2.209,0-4,1.79-4,3.999S1.791,42,4,42h4.307C10.231,54.46,21.001,63.999,34,63.999c12.389,0,18.088-6.856,20.001-10
			c1.555-2.555,2-4.719,2-6C56.001,45.35,54.707,43.999,52.001,43.999z"/>
	</g>
</g>
<g>
</g>
<g>
</g>
<g>
</g>
<g>
</g>
<g>
</g>
<g>
</g>
<g>
</g>
<g>
</g>
<g>
</g>
<g>
</g>
<g>
</g>
<g>
</g>
<g>
</g>
<g>
</g>
<g>
</g>
</svg>
