<?xml version="1.0" encoding="iso-8859-1"?>
<!-- Generator: Adobe Illustrator 16.0.0, SVG Export Plug-In . SVG Version: 6.00 Build 0)  -->
<!DOCTYPE svg PUBLIC "-//W3C//DTD SVG 1.1//EN" "http://www.w3.org/Graphics/SVG/1.1/DTD/svg11.dtd">
<svg version="1.1" id="Layer_1" xmlns="http://www.w3.org/2000/svg" xmlns:xlink="http://www.w3.org/1999/xlink" x="0px" y="0px"
	 width="47.999px" height="63.999px" viewBox="0 0 47.999 63.999" style="enable-background:new 0 0 47.999 63.999;"
	 xml:space="preserve">
<g id="Franc">
	<g>
		<path style="fill-rule:evenodd;clip-rule:evenodd;fill:#FF8833;" d="M43.999,0h-32C9.79,0,8,1.79,8,3.999V40H3.999
			C1.79,40,0,41.79,0,44c0,2.208,1.79,4,3.999,4H8v12c0,2.208,1.791,3.999,4,3.999s4-1.791,4-3.999V48h3.999
			C22.209,48,24,46.208,24,44c0-2.21-1.791-4-4.001-4H16V27.999h20c2.209,0,4-1.79,4-3.999c0-2.21-1.791-4.001-4-4.001H16V8h27.999
			c2.21,0,4-1.791,4-4.001C47.999,1.79,46.209,0,43.999,0z"/>
	</g>
</g>
<g>
</g>
<g>
</g>
<g>
</g>
<g>
</g>
<g>
</g>
<g>
</g>
<g>
</g>
<g>
</g>
<g>
</g>
<g>
</g>
<g>
</g>
<g>
</g>
<g>
</g>
<g>
</g>
<g>
</g>
</svg>
