<?xml version="1.0" encoding="iso-8859-1"?>
<!-- Generator: Adobe Illustrator 16.0.0, SVG Export Plug-In . SVG Version: 6.00 Build 0)  -->
<!DOCTYPE svg PUBLIC "-//W3C//DTD SVG 1.1//EN" "http://www.w3.org/Graphics/SVG/1.1/DTD/svg11.dtd">
<svg version="1.1" id="Layer_1" xmlns="http://www.w3.org/2000/svg" xmlns:xlink="http://www.w3.org/1999/xlink" x="0px" y="0px"
	 width="64px" height="64.001px" viewBox="0 0 64 64.001" style="enable-background:new 0 0 64 64.001;" xml:space="preserve">
<g id="Base_14_">
	<g>
		<path style="fill:#CCA352;" d="M62.829,17.982L46.011,1.161c-1.548-1.548-4.059-1.548-5.606,0L1.161,40.411
			c-1.548,1.548-1.548,4.059,0,5.607L17.979,62.84c1.549,1.548,4.059,1.548,5.606,0l39.243-39.25
			C64.377,22.042,64.377,19.532,62.829,17.982z"/>
	</g>
</g>
<g id="Front_2_">
	<g>
		<path style="fill:#E6B85C;" d="M62.976,17.97L45.998,1.043c-0.568-0.566-1.275-0.854-2.005-1.009v7.924l12.11,12.074H64
			C63.852,19.281,63.56,18.552,62.976,17.97z"/>
	</g>
</g>
<g id="Side">
	<g>
		<path style="fill:#F2C261;" d="M43.992,0.117c-0.211-0.043-0.425-0.073-0.64-0.083h-0.35c-0.953,0.043-1.898,0.398-2.626,1.126
			L1.161,40.383c-0.728,0.728-1.084,1.672-1.127,2.625v0.351c0.01,0.218,0.098,0.425,0.141,0.64h7.853L43.993,8.027L43.992,0.117z"
			/>
	</g>
</g>
<g id="Top_2_">
	<g>
		<path style="fill:#FFCC66;" d="M57.384,18.019L45.974,6.606c-0.788-0.788-2.065-0.788-2.854,0L6.605,43.128
			c-0.787,0.787-0.787,2.064,0,2.853l11.411,11.412c0.788,0.788,2.065,0.788,2.854,0l36.515-36.522
			C58.171,20.084,58.171,18.807,57.384,18.019z"/>
	</g>
</g>
<g>
</g>
<g>
</g>
<g>
</g>
<g>
</g>
<g>
</g>
<g>
</g>
<g>
</g>
<g>
</g>
<g>
</g>
<g>
</g>
<g>
</g>
<g>
</g>
<g>
</g>
<g>
</g>
<g>
</g>
</svg>
