<?xml version="1.0" encoding="iso-8859-1"?>
<!-- Generator: Adobe Illustrator 16.0.0, SVG Export Plug-In . SVG Version: 6.00 Build 0)  -->
<!DOCTYPE svg PUBLIC "-//W3C//DTD SVG 1.1//EN" "http://www.w3.org/Graphics/SVG/1.1/DTD/svg11.dtd">
<svg version="1.1" id="Layer_1" xmlns="http://www.w3.org/2000/svg" xmlns:xlink="http://www.w3.org/1999/xlink" x="0px" y="0px"
	 width="64.006px" height="48.02px" viewBox="0 0 64.006 48.02" style="enable-background:new 0 0 64.006 48.02;"
	 xml:space="preserve">
<g id="Cap">
	<g>
		<path style="fill-rule:evenodd;clip-rule:evenodd;fill:#6D5778;" d="M12.044,16.02v14c0,5.522,8.954,10,20,10
			c11.045,0,20-4.478,20-10v-14H12.044z"/>
	</g>
</g>
<g id="Top_1_">
	<g>
		<path style="fill:#9B7CAB;" d="M62.598,14.303L35.403,0.704c-1.878-0.938-4.922-0.938-6.799,0L1.408,14.303
			c-1.877,0.938-1.877,2.46,0,3.398L28.604,31.3c1.877,0.938,4.921,0.938,6.799,0l27.195-13.599
			C64.475,16.763,64.475,15.24,62.598,14.303z"/>
	</g>
</g>
<g id="String">
	<g>
		<path style="fill-rule:evenodd;clip-rule:evenodd;fill:#FFD073;" d="M34.003,13.484c-0.295-1.041-1.427-1.658-2.528-1.38
			l-23.38,5.92c-0.018,0-0.033-0.005-0.051-0.005c-0.759,0-1.411,0.427-1.75,1.05c-0.004,0.007-0.007,0.014-0.011,0.021
			c-0.036,0.066-0.071,0.133-0.099,0.203c-0.142,0.316-0.193,0.667-0.141,1.024V40.02c0,1.104,0.896,2,2,2s2-0.896,2-2V21.571
			l22.499-5.698C33.645,15.595,34.298,14.525,34.003,13.484z"/>
	</g>
</g>
<g id="Tassel">
	<g>
		<path style="fill:#FFD073;" d="M10.044,38.02h-4c0,4-2,6.895-2,8c0,1.104,0.896,2,2,2h4c1.104,0,2-0.896,2-2
			C12.044,44.914,10.044,42.02,10.044,38.02z"/>
	</g>
</g>
<g>
</g>
<g>
</g>
<g>
</g>
<g>
</g>
<g>
</g>
<g>
</g>
<g>
</g>
<g>
</g>
<g>
</g>
<g>
</g>
<g>
</g>
<g>
</g>
<g>
</g>
<g>
</g>
<g>
</g>
</svg>
