<?xml version="1.0" encoding="iso-8859-1"?>
<!-- Generator: Adobe Illustrator 16.0.0, SVG Export Plug-In . SVG Version: 6.00 Build 0)  -->
<!DOCTYPE svg PUBLIC "-//W3C//DTD SVG 1.1//EN" "http://www.w3.org/Graphics/SVG/1.1/DTD/svg11.dtd">
<svg version="1.1" id="Layer_1" xmlns="http://www.w3.org/2000/svg" xmlns:xlink="http://www.w3.org/1999/xlink" x="0px" y="0px"
	 width="56px" height="64px" viewBox="0 0 56 64" style="enable-background:new 0 0 56 64;" xml:space="preserve">
<g id="Milk">
	<g>
		<polygon style="fill:#E6E6E6;" points="54,4 42,4 40,14 56,14 		"/>
	</g>
</g>
<g id="Cap_1_">
	<g>
		<path style="fill:#48A0DC;" d="M54,0H42c-1.104,0-2,0.896-2,2s0.896,2,2,2h12c1.104,0,2-0.896,2-2S55.104,0,54,0z"/>
	</g>
</g>
<g id="Leaf">
	<g>
		<path style="fill-rule:evenodd;clip-rule:evenodd;fill:#88C057;" d="M25.8,6.857C25.924,6.597,26,6.308,26,6c0-1.104-0.896-2-2-2
			c0-1.104-0.896-2-2-2c-0.366,0-0.705,0.105-1,0.277C20.705,2.105,20.366,2,20,2c-1.104,0-2,0.896-2,2c0,0.366,0.105,0.705,0.277,1
			C18.105,5.295,18,5.634,18,6c-1.104,0-2,0.896-2,2c-1.104,0-2,0.896-2,2s0.896,2,2,2c0,1.104,0.896,2,2,2
			c0.061,0,0.119-0.013,0.178-0.018C18.586,15.153,19.689,16,21,16c0.302,0,0.588-0.058,0.864-0.142C22.23,15.944,22.607,16,23,16
			c2.761,0,5-2.238,5-5C28,9.276,27.127,7.756,25.8,6.857z M22,6c0,0.034,0.008,0.066,0.01,0.1
			c-0.007,0.001-0.014,0.001-0.021,0.003C21.991,6.068,22,6.035,22,6z"/>
	</g>
</g>
<g id="Tomatos">
	<g>
		<path style="fill-rule:evenodd;clip-rule:evenodd;fill:#ED7161;" d="M36,6c-1.071,0-2.075,0.284-2.945,0.776
			C31.989,5.108,30.126,4,28,4c-3.314,0-6,2.686-6,6c0,3.313,2.686,6,6,6c1.071,0,2.075-0.284,2.945-0.776
			C32.011,16.892,33.875,18,36,18c3.313,0,6-2.687,6-6C42,8.686,39.313,6,36,6z"/>
	</g>
</g>
<g id="Bread">
	<g>
		<path style="fill:#FFCC66;" d="M12,0H8C4.686,0,2,2.687,2,6v18c0,3.313,2.686,6,6,6h4c3.313,0,6-2.687,6-6V6
			C18,2.687,15.313,0,12,0z"/>
	</g>
</g>
<g id="Bag">
	<g>
		<path style="fill:#F2B477;" d="M52,14l-4-4l-4,4l-4-4l-4,4l-4-4l-4,4l-4-4l-4,4l-4-4l-4,4l-4-4l-4,4l-4-4v49.999
			C0,62.208,1.791,64,4,64h48c2.209,0,4-1.792,4-4.001V10L52,14z"/>
	</g>
</g>
<g>
</g>
<g>
</g>
<g>
</g>
<g>
</g>
<g>
</g>
<g>
</g>
<g>
</g>
<g>
</g>
<g>
</g>
<g>
</g>
<g>
</g>
<g>
</g>
<g>
</g>
<g>
</g>
<g>
</g>
</svg>
