<?xml version="1.0" encoding="iso-8859-1"?>
<!-- Generator: Adobe Illustrator 16.0.0, SVG Export Plug-In . SVG Version: 6.00 Build 0)  -->
<!DOCTYPE svg PUBLIC "-//W3C//DTD SVG 1.1//EN" "http://www.w3.org/Graphics/SVG/1.1/DTD/svg11.dtd">
<svg version="1.1" id="Layer_1" xmlns="http://www.w3.org/2000/svg" xmlns:xlink="http://www.w3.org/1999/xlink" x="0px" y="0px"
	 width="56.001px" height="63.999px" viewBox="0 0 56.001 63.999" style="enable-background:new 0 0 56.001 63.999;"
	 xml:space="preserve">
<g id="File_2_">
	<g>
		<path style="fill:#CCCCCC;" d="M52.001,0h-48C1.792,0,0,1.79,0,4v55.999c0,2.21,1.792,4,4.001,4h34l18-18V4
			C56.001,1.79,54.21,0,52.001,0z"/>
	</g>
</g>
<g id="Container_9_">
	<g>
		<path style="fill:#FFFFFF;" d="M50.001,4h-44c-1.105,0-2,0.896-2,2v52c0,1.104,0.895,1.999,2,1.999h30l16-15.999V6
			C52.001,4.896,51.105,4,50.001,4z"/>
	</g>
</g>
<g id="Corner_2_">
	<g>
		<path style="fill:#999999;" d="M42.001,45.999c-2.209,0-4,1.792-4,4.001v13.999l18-18H42.001z"/>
	</g>
</g>
<g id="Text_10_">
	<g>
		<path style="fill-rule:evenodd;clip-rule:evenodd;fill:#CCCCCC;" d="M14.001,27.999h16C31.105,27.999,32,27.104,32,26
			s-0.895-2.001-1.999-2.001h-16c-1.105,0-2,0.896-2,2.001S12.896,27.999,14.001,27.999z M22.001,48h-8c-1.105,0-2,0.895-2,1.999
			c0,1.105,0.895,2,2,2h8c1.104,0,2-0.895,2-2C24.001,48.895,23.105,48,22.001,48z M30.001,31.999h-16c-1.105,0-2,0.896-2,2.001
			s0.895,1.999,2,1.999h16C31.105,35.999,32,35.104,32,34S31.105,31.999,30.001,31.999z"/>
	</g>
</g>
<g id="Price_1_">
	<g>
		<path style="fill-rule:evenodd;clip-rule:evenodd;fill:#88C057;" d="M38.001,27.999h4c1.104,0,1.999-0.895,1.999-2
			c0-1.104-0.895-2-1.999-2h-4c-1.105,0-2.001,0.896-2.001,2C36,27.104,36.896,27.999,38.001,27.999z M42.001,32h-4
			C36.896,32,36,32.895,36,33.999c0,1.105,0.896,2,2.001,2h4c1.104,0,1.999-0.895,1.999-2C44,32.895,43.105,32,42.001,32z"/>
	</g>
</g>
<g id="Header_1_">
	<g>
		<path style="fill:#88C057;" d="M42.001,12h-28c-1.105,0-2,0.896-2,2.001v4c0,1.104,0.895,2,2,2h28c1.104,0,2-0.896,2-2v-4
			C44.001,12.896,43.105,12,42.001,12z"/>
	</g>
</g>
<g>
</g>
<g>
</g>
<g>
</g>
<g>
</g>
<g>
</g>
<g>
</g>
<g>
</g>
<g>
</g>
<g>
</g>
<g>
</g>
<g>
</g>
<g>
</g>
<g>
</g>
<g>
</g>
<g>
</g>
</svg>
