<?xml version="1.0" encoding="iso-8859-1"?>
<!-- Generator: Adobe Illustrator 16.0.0, SVG Export Plug-In . SVG Version: 6.00 Build 0)  -->
<!DOCTYPE svg PUBLIC "-//W3C//DTD SVG 1.1//EN" "http://www.w3.org/Graphics/SVG/1.1/DTD/svg11.dtd">
<svg version="1.1" id="Layer_1" xmlns="http://www.w3.org/2000/svg" xmlns:xlink="http://www.w3.org/1999/xlink" x="0px" y="0px"
	 width="36px" height="64px" viewBox="0 0 36 64" style="enable-background:new 0 0 36 64;" xml:space="preserve">
<g id="Wheels">
	<g>
		<path style="fill:#666666;" d="M4,62c0,1.104,0.896,2,2,2s2-0.896,2-2v-2.001H4V62z M28,59.999V62c0,1.104,0.896,2,2,2
			s2-0.896,2-2v-2.001H28z"/>
	</g>
</g>
<g id="Base_9_">
	<g>
		<path style="fill:#666666;" d="M32,16H4c-2.209,0-4,1.791-4,4v12h36V20C36,17.791,34.209,16,32,16z"/>
	</g>
</g>
<g id="Front_1_">
	<g>
		<path style="fill:#999999;" d="M32,28H4c-2.209,0-4,1.791-4,4v24c0,2.209,1.791,3.999,4,3.999h28c2.209,0,4-1.79,4-3.999V32
			C36,29.791,34.209,28,32,28z"/>
	</g>
</g>
<g id="Zipper">
	<g>
		<path style="fill:#CCCCCC;" d="M26,20H10c-1.104,0-2,0.896-2,2s0.896,2,2,2h16c1.104,0,2-0.896,2-2S27.104,20,26,20z"/>
	</g>
</g>
<g id="Bars">
	<g>
		<path style="fill-rule:evenodd;clip-rule:evenodd;fill:#CCCCCC;" d="M10,16h4V4h-4V16z M22,4v12h4V4H22z"/>
	</g>
</g>
<g id="Handle_2_">
	<g>
		<path style="fill:#666666;" d="M26,0H10C8.896,0,8,0.895,8,2c0,1.104,0.896,2,2,2h16c1.104,0,2-0.896,2-2C28,0.895,27.104,0,26,0z
			"/>
	</g>
</g>
<g>
</g>
<g>
</g>
<g>
</g>
<g>
</g>
<g>
</g>
<g>
</g>
<g>
</g>
<g>
</g>
<g>
</g>
<g>
</g>
<g>
</g>
<g>
</g>
<g>
</g>
<g>
</g>
<g>
</g>
</svg>
