<?xml version="1.0" encoding="iso-8859-1"?>
<!-- Generator: Adobe Illustrator 16.0.0, SVG Export Plug-In . SVG Version: 6.00 Build 0)  -->
<!DOCTYPE svg PUBLIC "-//W3C//DTD SVG 1.1//EN" "http://www.w3.org/Graphics/SVG/1.1/DTD/svg11.dtd">
<svg version="1.1" id="Layer_1" xmlns="http://www.w3.org/2000/svg" xmlns:xlink="http://www.w3.org/1999/xlink" x="0px" y="0px"
	 width="64px" height="64px" viewBox="0 0 64 64" style="enable-background:new 0 0 64 64;" xml:space="preserve">
<g id="T-Shirt_1_">
	<g>
		<path style="fill:#9B7CAB;" d="M60,48c-1.881-1.88-18-10-18-10H22c0,0-16.12,8.12-18,10c-3.76,3.761-4,16-4,16h64
			C64,64,63.76,51.761,60,48z"/>
	</g>
</g>
<g id="Shirt_2_">
	<g>
		<path style="fill:#6D5778;" d="M40,36.001H24l-2,2c0,0,3.372,6,10,6c6.627,0,10-6,10-6L40,36.001z"/>
	</g>
</g>
<g id="Neck_4_">
	<g>
		<path style="fill:#DBB59A;" d="M38,30.001H26l-2,6c0,1.104,4.895,4,6,4h4c1.104,0,6-2.896,6-4L38,30.001z"/>
	</g>
</g>
<g id="Head_5_">
	<g>
		<path style="fill:#F6CBAD;" d="M32,2c-7.732,0-14,4-14,12c0,6.001,2,10,4,14.001c2,3.999,6.081,8,10,8c3.918,0,8-4.001,10-8
			c2-4.001,4-8,4-14.001C46,6,39.731,2,32,2z"/>
	</g>
</g>
<g id="Hair_4_">
	<g>
		<path style="fill:#8C6845;" d="M32,0c-4.685,0-10,1.73-10,4.001c-2.958,0-4,6.618-4,11.999c0,0.898,0.08,1.843,0.205,2.804
			c0.515-2.646,2.105-6.803,5.795-6.803c3.453,0,2.108,0,8,0c3.063,0,8-1.498,8-4.001c2.596-0.034,6,3.661,6,8
			C46,8.137,44.715,0,32,0z"/>
	</g>
</g>
<g>
</g>
<g>
</g>
<g>
</g>
<g>
</g>
<g>
</g>
<g>
</g>
<g>
</g>
<g>
</g>
<g>
</g>
<g>
</g>
<g>
</g>
<g>
</g>
<g>
</g>
<g>
</g>
<g>
</g>
</svg>
