<?xml version="1.0" encoding="iso-8859-1"?>
<!-- Generator: Adobe Illustrator 16.0.0, SVG Export Plug-In . SVG Version: 6.00 Build 0)  -->
<!DOCTYPE svg PUBLIC "-//W3C//DTD SVG 1.1//EN" "http://www.w3.org/Graphics/SVG/1.1/DTD/svg11.dtd">
<svg version="1.1" id="Layer_1" xmlns="http://www.w3.org/2000/svg" xmlns:xlink="http://www.w3.org/1999/xlink" x="0px" y="0px"
	 width="64px" height="64px" viewBox="0 0 64 64" style="enable-background:new 0 0 64 64;" xml:space="preserve">
<g id="Shirt_3_">
	<g>
		<path style="fill:#E6E6E6;" d="M60,48c-1.88-1.88-18-9.999-18-9.999H22c0,0-16.12,8.119-18,9.999c-3.761,3.761-4,16-4,16h64
			C64,64,63.76,51.761,60,48z"/>
	</g>
</g>
<g id="Collar_3_">
	<g>
		<polygon style="fill:#FFFFFF;" points="40,36 24,36 22,38 24,48.001 32,40 40,48.001 42,38 		"/>
	</g>
</g>
<g id="Tie_2_">
	<g>
		<path style="fill-rule:evenodd;clip-rule:evenodd;fill:#666666;" d="M36,44.001c-2-2.001-4-4-4-4s-2,1.999-4,4c0,2,2,2,2,2L28,64
			h8l-2-17.999C34,46.001,36,46.001,36,44.001z"/>
	</g>
</g>
<g id="Neck_5_">
	<g>
		<path style="fill:#DBB59A;" d="M38,30.001H26l-2,6c0,1.104,4.896,4,6,4h4c1.104,0,6-2.896,6-4L38,30.001z"/>
	</g>
</g>
<g id="Head_6_">
	<g>
		<path style="fill:#F6CBAD;" d="M32,2c-7.732,0-14,4-14,12c0,6.001,2,10,4,14.001c2,3.999,6.081,8,10,8c3.918,0,8-4.001,10-8
			c2-4.001,4-8,4-14.001C46,6,39.731,2,32,2z"/>
	</g>
</g>
<g id="Hair_5_">
	<g>
		<path style="fill:#666666;" d="M32,0c-4.685,0-10,1.73-10,4.001c-2.958,0-4,6.618-4,11.999c0,0.898,0.08,1.843,0.205,2.804
			c0.515-2.646,2.105-6.803,5.795-6.803c3.453,0,2.108,0,8,0c3.063,0,8-1.498,8-4.001c2.596-0.034,6,3.661,6,8
			C46,8.137,44.715,0,32,0z"/>
	</g>
</g>
<g>
</g>
<g>
</g>
<g>
</g>
<g>
</g>
<g>
</g>
<g>
</g>
<g>
</g>
<g>
</g>
<g>
</g>
<g>
</g>
<g>
</g>
<g>
</g>
<g>
</g>
<g>
</g>
<g>
</g>
</svg>
