<?xml version="1.0" encoding="iso-8859-1"?>
<!-- Generator: Adobe Illustrator 16.0.0, SVG Export Plug-In . SVG Version: 6.00 Build 0)  -->
<!DOCTYPE svg PUBLIC "-//W3C//DTD SVG 1.1//EN" "http://www.w3.org/Graphics/SVG/1.1/DTD/svg11.dtd">
<svg version="1.1" id="Layer_1" xmlns="http://www.w3.org/2000/svg" xmlns:xlink="http://www.w3.org/1999/xlink" x="0px" y="0px"
	 width="64.001px" height="56.009px" viewBox="0 0 64.001 56.009" style="enable-background:new 0 0 64.001 56.009;"
	 xml:space="preserve">
<g id="Mic">
	<g>
		<path style="fill-rule:evenodd;clip-rule:evenodd;fill:#969696;" d="M0,26c0,4.418,1.582,6,6,6V20C1.582,20,0,21.582,0,26z
			 M58.001,20.001v12c4.418,0,6-1.582,6-6S62.419,20.001,58.001,20.001z"/>
	</g>
</g>
<g id="Grip">
	<g>
		<path style="fill:#CCCCCC;" d="M32.001,16h-18H12h-1.999C7.791,16,6,17.791,6,20v2v2v12.055l10.356,16.997
			c1.723,2.828,5.539,3.797,8.523,2.164c2.985-1.633,4.008-5.249,2.284-8.077L20.378,36h11.623V16z"/>
	</g>
</g>
<g id="Megaphone">
	<g>
		<path style="fill:#9B7CAB;" d="M56,0L32.001,16v20L56,52.001c1.105,0,2.001-0.896,2.001-2.001V2C58.001,0.896,57.105,0,56,0z"/>
	</g>
</g>
<g id="Megaphone_1_">
	<g>
		<path style="fill:#82688F;" d="M56,0l-3.999,2.667v46.667L56,52.001c1.105,0,2.001-0.896,2.001-2.001V2
			C58.001,0.896,57.105,0,56,0z"/>
	</g>
</g>
<g>
</g>
<g>
</g>
<g>
</g>
<g>
</g>
<g>
</g>
<g>
</g>
<g>
</g>
<g>
</g>
<g>
</g>
<g>
</g>
<g>
</g>
<g>
</g>
<g>
</g>
<g>
</g>
<g>
</g>
</svg>
