<?xml version="1.0" encoding="iso-8859-1"?>
<!-- Generator: Adobe Illustrator 16.0.0, SVG Export Plug-In . SVG Version: 6.00 Build 0)  -->
<!DOCTYPE svg PUBLIC "-//W3C//DTD SVG 1.1//EN" "http://www.w3.org/Graphics/SVG/1.1/DTD/svg11.dtd">
<svg version="1.1" id="Layer_1" xmlns="http://www.w3.org/2000/svg" xmlns:xlink="http://www.w3.org/1999/xlink" x="0px" y="0px"
	 width="64px" height="64.024px" viewBox="0 0 64 64.024" style="enable-background:new 0 0 64 64.024;" xml:space="preserve">
<g id="Atm">
	<g>
		<path style="fill:#CCCCCC;" d="M60,0.024H4c-2.209,0-4,1.791-4,4v32c0,2.209,1.791,4.001,4,4.001h56c2.209,0,4-1.792,4-4.001v-32
			C64,1.815,62.209,0.024,60,0.024z"/>
	</g>
</g>
<g id="Shadow">
	<g>
		<path style="fill:#999999;" d="M8,28.024v2.001c0,1.104,0.896,1.999,2,1.999h44c1.104,0,2-0.895,2-1.999v-2.001H8z"/>
	</g>
</g>
<g id="Slot">
	<g>
		<rect x="8" y="16.024" style="fill:#666666;" width="48" height="12"/>
	</g>
</g>
<g id="Flap_1_">
	<g>
		<path style="fill:#E6E6E6;" d="M54,8.024H10c-1.104,0-2,0.896-2,2v6h48v-6C56,8.92,55.104,8.024,54,8.024z"/>
	</g>
</g>
<g id="Base_17_">
	<g>
		<path style="fill-rule:evenodd;clip-rule:evenodd;fill:#75A64B;" d="M16,60.024c0,2.209,1.791,4,4,4h24c2.209,0,4-1.791,4-4v-44
			H16V60.024z"/>
	</g>
</g>
<g id="Graphics_4_">
	<g>
		<path style="fill-rule:evenodd;clip-rule:evenodd;fill:#99D962;" d="M44,24.062v-8.037H20v8.1
			c2.94-2.504,7.232-4.096,12.026-4.103C36.799,20.016,41.069,21.583,44,24.062z M20,39.991v16.01
			c2.191,0.015,3.973,1.813,3.983,4.023h16.042c0-0.01-0.003-0.019-0.003-0.028c-0.009-2.216,1.767-4.005,3.965-3.996
			c0.004,0,0.009,0.001,0.013,0.001V39.95c-2.94,2.499-7.227,4.086-12.014,4.092C27.207,44.048,22.932,42.476,20,39.991z
			 M35.983,52.026c0.009,2.216-1.767,4.005-3.965,3.996s-3.987-1.812-3.996-4.026c-0.009-2.216,1.767-4.005,3.965-3.996
			C34.186,48.008,35.975,49.812,35.983,52.026z M32,36.021c-1.122,0-2.132-0.469-2.855-1.219c-1.744,1.127-3.96,2.241-5.7,2.817
			c2.179,1.47,5.205,2.383,8.554,2.382c6.639,0,12.021-3.583,12.022-8.002s-5.381-8-12.02-7.999c-3.373,0-6.418,0.929-8.602,2.418
			c1.748,0.572,3.985,1.693,5.745,2.831c0.724-0.751,1.733-1.222,2.855-1.222c2.198,0,3.98,1.789,3.98,3.997
			C35.979,34.23,34.197,36.021,32,36.021z"/>
	</g>
</g>
<g>
</g>
<g>
</g>
<g>
</g>
<g>
</g>
<g>
</g>
<g>
</g>
<g>
</g>
<g>
</g>
<g>
</g>
<g>
</g>
<g>
</g>
<g>
</g>
<g>
</g>
<g>
</g>
<g>
</g>
</svg>
