<?xml version="1.0" encoding="iso-8859-1"?>
<!-- Generator: Adobe Illustrator 16.0.0, SVG Export Plug-In . SVG Version: 6.00 Build 0)  -->
<!DOCTYPE svg PUBLIC "-//W3C//DTD SVG 1.1//EN" "http://www.w3.org/Graphics/SVG/1.1/DTD/svg11.dtd">
<svg version="1.1" id="Layer_1" xmlns="http://www.w3.org/2000/svg" xmlns:xlink="http://www.w3.org/1999/xlink" x="0px" y="0px"
	 width="56px" height="63.999px" viewBox="0 0 56 63.999" style="enable-background:new 0 0 56 63.999;" xml:space="preserve">
<g id="Sack">
	<g>
		<path style="fill-rule:evenodd;clip-rule:evenodd;fill:#88C057;" d="M50,52c0-2.864,0-12-4-22c-4-10.001-14-12-14-16
			c0-1.938,1.063-5.063,2-6.001c0.938-0.937,2-3.5,2-4C36,3.5,35.375,2,34,2s-3.688,0-6,0s-3.813-2-6-2s-4,0.875-4,2
			s1.813,3.813,4,5.999C24.188,10.188,24,14,24,14c0,4-10,5.999-14,16C6,40,6,49.136,6,52s-6,6.946-6,8c0,1.053,1.044,2,2,2
			c0.955,0,3.531-2,6-2s13.014,3.999,20,3.999S45.531,60,48,60s5.044,2,6,2c0.955,0,2-0.947,2-2C56,58.946,50,54.864,50,52z"/>
	</g>
</g>
<g id="Rope_2_">
	<g>
		<path style="fill:#FFCC66;" d="M32,11.999h-8c-1.104,0-2,0.896-2,2.001s0.896,2,2,2h8c1.104,0,2-0.896,2-2
			S33.104,11.999,32,11.999z"/>
	</g>
</g>
<g id="Dollar_2_">
	<g>
		<path style="fill-rule:evenodd;clip-rule:evenodd;fill:#638C3F;" d="M30,38.321v-7.169C33.757,31.759,34.371,34,36,34
			c1.156,0,2-0.969,2-2c0-1.859-2.761-4.375-8-4.897V26c0-1.105-0.896-2.001-2-2.001S26,24.895,26,26v1.121
			c-4.563,0.569-8,3.153-8,7.879c0,4.825,3.839,6.011,8,6.696v7.127C22.547,48.187,21.757,46,20,46c-1.281,0-2,0.98-2,2
			c0,1.565,2.639,4.324,8,4.889v1.11C26,55.104,26.896,56,28,56s2-0.896,2-2.001v-1.105c5.644-0.575,8-3.647,8-7.895
			C38,40.516,34.919,39.188,30,38.321z M22,35c0-1.417,0.616-3.322,4-3.854v6.579C23.688,37.396,22,36.969,22,35z M30,48.8v-6.452
			c2.818,0.59,4,1.393,4,2.651C34,46.817,32.584,48.295,30,48.8z"/>
	</g>
</g>
<g>
</g>
<g>
</g>
<g>
</g>
<g>
</g>
<g>
</g>
<g>
</g>
<g>
</g>
<g>
</g>
<g>
</g>
<g>
</g>
<g>
</g>
<g>
</g>
<g>
</g>
<g>
</g>
<g>
</g>
</svg>
