<?xml version="1.0" encoding="iso-8859-1"?>
<!-- Generator: Adobe Illustrator 16.0.0, SVG Export Plug-In . SVG Version: 6.00 Build 0)  -->
<!DOCTYPE svg PUBLIC "-//W3C//DTD SVG 1.1//EN" "http://www.w3.org/Graphics/SVG/1.1/DTD/svg11.dtd">
<svg version="1.1" id="Layer_1" xmlns="http://www.w3.org/2000/svg" xmlns:xlink="http://www.w3.org/1999/xlink" x="0px" y="0px"
	 width="64px" height="64.001px" viewBox="0 0 64 64.001" style="enable-background:new 0 0 64 64.001;" xml:space="preserve">
<g id="Ground_1_">
	<g>
		<path style="fill:#999999;" d="M62,60.001H2c-1.104,0-2,0.895-2,2c0,1.104,0.896,2,2,2h60c1.104,0,2-0.896,2-2
			C64,60.896,63.104,60.001,62,60.001z"/>
	</g>
</g>
<g id="Building_3_">
	<g>
		<path style="fill:#CCCCCC;" d="M58,16H26c-1.104,0-2,0.896-2,2.001v42h36v-42C60,16.896,59.104,16,58,16z"/>
	</g>
</g>
<g id="Windows_4_">
	<g>
		<path style="fill-rule:evenodd;clip-rule:evenodd;fill:#387BA8;" d="M40,20v4.001h16V20H40z M40,32.001h16V28H40V32.001z
			 M40,40.001h16v-4H40V40.001z M40,48.001h16v-4H40V48.001z M40,56.001h16v-4H40V56.001z"/>
	</g>
</g>
<g id="Top_4_">
	<g>
		<rect x="40" y="12" style="fill:#B3B3B3;" width="12" height="4.001"/>
	</g>
</g>
<g id="Building_2_">
	<g>
		<path style="fill:#E6E6E6;" d="M38,0H6C4.896,0,4,0.896,4,2v58.001h36V2C40,0.896,39.104,0,38,0z"/>
	</g>
</g>
<g id="Windows_2_">
	<g>
		<path style="fill-rule:evenodd;clip-rule:evenodd;fill:#48A0DC;" d="M8,16.001h28V12H8V16.001z M8,40.001h28v-4H8V40.001z
			 M8,32.001h28V28H8V32.001z M8,24.001h28V20H8V24.001z M8,48.001h28v-4H8V48.001z M8,56.001h28v-4H8V56.001z M8,4v4.001h28V4H8z"
			/>
	</g>
</g>
<g>
</g>
<g>
</g>
<g>
</g>
<g>
</g>
<g>
</g>
<g>
</g>
<g>
</g>
<g>
</g>
<g>
</g>
<g>
</g>
<g>
</g>
<g>
</g>
<g>
</g>
<g>
</g>
<g>
</g>
</svg>
