<?xml version="1.0" encoding="iso-8859-1"?>
<!-- Generator: Adobe Illustrator 16.0.0, SVG Export Plug-In . SVG Version: 6.00 Build 0)  -->
<!DOCTYPE svg PUBLIC "-//W3C//DTD SVG 1.1//EN" "http://www.w3.org/Graphics/SVG/1.1/DTD/svg11.dtd">
<svg version="1.1" id="Layer_1" xmlns="http://www.w3.org/2000/svg" xmlns:xlink="http://www.w3.org/1999/xlink" x="0px" y="0px"
	 width="64px" height="64px" viewBox="0 0 64 64" style="enable-background:new 0 0 64 64;" xml:space="preserve">
<g id="_x33_rd">
	<g>
		<path style="fill-rule:evenodd;clip-rule:evenodd;fill:#48A0DC;" d="M36,52h-8c-2.209,0-4,1.791-4,4v4c0,2.21,1.791,4,4,4h8
			c2.209,0,4-1.79,4-4v-4C40,53.791,38.209,52,36,52z M12,52H4c-2.209,0-4,1.791-4,4v4c0,2.21,1.791,4,4,4h8c2.209,0,4-1.79,4-4v-4
			C16,53.791,14.209,52,12,52z M60,52h-8c-2.209,0-4,1.791-4,4v4c0,2.21,1.791,4,4,4h8c2.209,0,4-1.79,4-4v-4
			C64,53.791,62.209,52,60,52z"/>
	</g>
</g>
<g id="_x32_nd">
	<g>
		<path style="fill-rule:evenodd;clip-rule:evenodd;fill:#ED7261;" d="M24,26.001h-8c-2.209,0-4,1.79-4,3.999v4c0,2.21,1.791,4,4,4
			h8c2.209,0,4-1.79,4-4v-4C28,27.791,26.209,26.001,24,26.001z M48,26.001h-8c-2.209,0-4,1.79-4,3.999v4c0,2.21,1.791,4,4,4h8
			c2.209,0,4-1.79,4-4v-4C52,27.791,50.209,26.001,48,26.001z"/>
	</g>
</g>
<g id="_x31_st">
	<g>
		<path style="fill:#9B7CAB;" d="M36,0h-8c-2.209,0-4,1.791-4,4v4c0,2.21,1.791,4,4,4h8c2.209,0,4-1.79,4-4V4
			C40,1.791,38.209,0,36,0z"/>
	</g>
</g>
<g id="Lines">
	<g>
		<path style="fill-rule:evenodd;clip-rule:evenodd;fill:#CCCCCC;" d="M22,22c0-1.104,0.896-2,2-2h6h4h6c1.104,0,2,0.896,2,2v4.001
			h4V22c0-3.313-2.687-6-6-6v0.001h-6V12h-4v4.001h-6V16c-3.314,0-6,2.687-6,6v4.001h4V22z M52,42L52,42l-6,0.001V38h-4v4.001H22V38
			h-4v4.001h-6V42c-3.314,0-6,2.687-6,6.001V52h4v-3.999C10,46.896,10.895,46,12,46v0.001h6h4h8V52h4v-5.999h18V46
			c1.104,0,2,0.896,2,2.001V52h4v-3.999C58,44.687,55.313,42,52,42z"/>
	</g>
</g>
<g>
</g>
<g>
</g>
<g>
</g>
<g>
</g>
<g>
</g>
<g>
</g>
<g>
</g>
<g>
</g>
<g>
</g>
<g>
</g>
<g>
</g>
<g>
</g>
<g>
</g>
<g>
</g>
<g>
</g>
</svg>
