<?xml version="1.0" encoding="iso-8859-1"?>
<!-- Generator: Adobe Illustrator 16.0.0, SVG Export Plug-In . SVG Version: 6.00 Build 0)  -->
<!DOCTYPE svg PUBLIC "-//W3C//DTD SVG 1.1//EN" "http://www.w3.org/Graphics/SVG/1.1/DTD/svg11.dtd">
<svg version="1.1" id="Layer_1" xmlns="http://www.w3.org/2000/svg" xmlns:xlink="http://www.w3.org/1999/xlink" x="0px" y="0px"
	 width="48px" height="64px" viewBox="0 0 48 64" style="enable-background:new 0 0 48 64;" xml:space="preserve">
<g id="Base_18_">
	<g>
		<path style="fill-rule:evenodd;clip-rule:evenodd;fill:#CCCCCC;" d="M44,0H12C9.791,0,8,1.791,8,4v4H2c-1.104,0-2,0.896-2,2.001
			v40C0,51.104,0.896,52,2,52h2V40.001h4V52v8c0,2.209,1.791,4,4,4h32c2.209,0,4-1.791,4-4V4C48,1.791,46.209,0,44,0z"/>
	</g>
</g>
<g id="Slot_4_">
	<g>
		<rect x="4" y="8" style="fill:#999999;" width="4" height="34.001"/>
	</g>
</g>
<g id="Slot_5_">
	<g>
		<path style="fill:#666666;" d="M38,8H18c-1.104,0-2,0.896-2,2.001C16,11.104,16.896,12,18,12h20c1.104,0,2-0.896,2-1.999
			C40,8.896,39.104,8,38,8z"/>
	</g>
</g>
<g id="Paper">
	<g>
		<path style="fill:#FFFFFF;" d="M34,4H22c-1.104,0-2,0.896-2,2.001V12h16V6.001C36,4.896,35.104,4,34,4z"/>
	</g>
</g>
<g id="Keypad_1_">
	<g>
		<path style="fill-rule:evenodd;clip-rule:evenodd;fill:#999999;" d="M18,48.001h-4c-1.104,0-2,0.895-2,2
			C12,51.104,12.896,52,14,52h4c1.104,0,2-0.896,2-1.999C20,48.896,19.104,48.001,18,48.001z M18,40.001h-4c-1.104,0-2,0.895-2,2
			C12,43.104,12.896,44,14,44h4c1.104,0,2-0.896,2-1.999C20,40.896,19.104,40.001,18,40.001z M18,32.001h-4c-1.104,0-2,0.895-2,2
			C12,35.105,12.896,36,14,36h4c1.104,0,2-0.895,2-1.999C20,32.896,19.104,32.001,18,32.001z M30,56.001h-4c-1.104,0-2,0.895-2,2
			C24,59.104,24.896,60,26,60h4c1.104,0,2-0.896,2-1.999C32,56.896,31.104,56.001,30,56.001z M30,48.001h-4c-1.104,0-2,0.895-2,2
			C24,51.104,24.896,52,26,52h4c1.104,0,2-0.896,2-1.999C32,48.896,31.104,48.001,30,48.001z M30,40.001h-4c-1.104,0-2,0.895-2,2
			C24,43.104,24.896,44,26,44h4c1.104,0,2-0.896,2-1.999C32,40.896,31.104,40.001,30,40.001z M30,32.001h-4c-1.104,0-2,0.895-2,2
			C24,35.105,24.896,36,26,36h4c1.104,0,2-0.895,2-1.999C32,32.896,31.104,32.001,30,32.001z M42,48.001h-4c-1.104,0-2,0.895-2,2
			C36,51.104,36.896,52,38,52h4c1.104,0,2-0.896,2-1.999C44,48.896,43.104,48.001,42,48.001z M42,40.001h-4c-1.104,0-2,0.895-2,2
			C36,43.104,36.896,44,38,44h4c1.104,0,2-0.896,2-1.999C44,40.896,43.104,40.001,42,40.001z M38,36h4c1.104,0,2-0.895,2-1.999
			c0-1.105-0.896-2-2-2h-4c-1.104,0-2,0.895-2,2C36,35.105,36.896,36,38,36z"/>
	</g>
</g>
<g id="Key_3_">
	<g>
		<path style="fill:#ED7161;" d="M18,56.001h-4c-1.104,0-2,0.895-2,2C12,59.104,12.896,60,14,60h4c1.104,0,2-0.896,2-1.999
			C20,56.896,19.104,56.001,18,56.001z"/>
	</g>
</g>
<g id="Key_2_">
	<g>
		<path style="fill:#88C057;" d="M42,56.001h-4c-1.104,0-2,0.895-2,2C36,59.104,36.896,60,38,60h4c1.104,0,2-0.896,2-1.999
			C44,56.896,43.104,56.001,42,56.001z"/>
	</g>
</g>
<g id="Display_2_">
	<g>
		<path style="fill:#48A0DC;" d="M42,16H14c-1.104,0-2,0.896-2,2.001v8C12,27.105,12.896,28,14,28h28c1.104,0,2-0.895,2-1.999v-8
			C44,16.896,43.104,16,42,16z"/>
	</g>
</g>
<g>
</g>
<g>
</g>
<g>
</g>
<g>
</g>
<g>
</g>
<g>
</g>
<g>
</g>
<g>
</g>
<g>
</g>
<g>
</g>
<g>
</g>
<g>
</g>
<g>
</g>
<g>
</g>
<g>
</g>
</svg>
