<?xml version="1.0" encoding="iso-8859-1"?>
<!-- Generator: Adobe Illustrator 16.0.0, SVG Export Plug-In . SVG Version: 6.00 Build 0)  -->
<!DOCTYPE svg PUBLIC "-//W3C//DTD SVG 1.1//EN" "http://www.w3.org/Graphics/SVG/1.1/DTD/svg11.dtd">
<svg version="1.1" id="Layer_1" xmlns="http://www.w3.org/2000/svg" xmlns:xlink="http://www.w3.org/1999/xlink" x="0px" y="0px"
	 width="52.002px" height="63.999px" viewBox="0 0 52.002 63.999" style="enable-background:new 0 0 52.002 63.999;"
	 xml:space="preserve">
<g id="Pound">
	<g>
		<path style="fill-rule:evenodd;clip-rule:evenodd;fill:#9B7CAB;" d="M48,52c-3.999,0-5.424,4-11.999,4s-9.881-4-16-4
			c-0.539,0-1.054,0.032-1.559,0.078c1.937-3.297,3.559-7.441,3.559-12.078c0-1.287-0.128-2.632-0.33-4.001H28
			c2.21,0,4.001-1.79,4.001-3.999c0-2.21-1.791-4.001-4.001-4.001h-8.077c-0.973-3.782-1.922-7.328-1.922-10
			c0-3.858,2.059-10,11.999-10c8.888,0,10.688,5.438,12.001,8.001c0.83,1.621,2.25,3.999,4,3.999c2.706,0,4-1.35,4-3.999
			c0-1.282-0.445-3.445-2-6.001C46.088,6.856,42.389,0,30,0C15.641,0,10.001,7.928,10.001,17.999c0,3.926,0.688,7.099,1.491,10H4
			c-2.209,0-4,1.791-4,4.001c0,2.209,1.791,3.999,4,3.999h9.625c0.232,1.282,0.376,2.601,0.376,4.001
			c0,8.139-8.809,15.048-9.891,19.218c-0.013,0.047-0.02,0.098-0.03,0.146C4.032,59.584,4.001,59.797,4.001,60
			c0,3.396,2,3.999,4,3.999c2.861,0,5.945-3.999,12-3.999c4.166,0,8.773,3.999,16,3.999c5.664,0,10.404-3.008,11.999-3.999
			c1.887-1.174,4.065-2.307,4.001-4C51.88,52.865,50.001,52,48,52z"/>
	</g>
</g>
<g>
</g>
<g>
</g>
<g>
</g>
<g>
</g>
<g>
</g>
<g>
</g>
<g>
</g>
<g>
</g>
<g>
</g>
<g>
</g>
<g>
</g>
<g>
</g>
<g>
</g>
<g>
</g>
<g>
</g>
</svg>
