<?xml version="1.0" encoding="iso-8859-1"?>
<!-- Generator: Adobe Illustrator 16.0.0, SVG Export Plug-In . SVG Version: 6.00 Build 0)  -->
<!DOCTYPE svg PUBLIC "-//W3C//DTD SVG 1.1//EN" "http://www.w3.org/Graphics/SVG/1.1/DTD/svg11.dtd">
<svg version="1.1" id="Layer_1" xmlns="http://www.w3.org/2000/svg" xmlns:xlink="http://www.w3.org/1999/xlink" x="0px" y="0px"
	 width="64px" height="63.993px" viewBox="0 0 64 63.993" style="enable-background:new 0 0 64 63.993;" xml:space="preserve">
<g id="Stand_2_">
	<g>
		<path style="fill-rule:evenodd;clip-rule:evenodd;fill:#666666;" d="M62,4H34V2c0-1.104-0.896-2-2-2c-1.105,0-2,0.896-2,2v2H2
			C0.895,4,0,4.896,0,6v4c0,1.104,0.895,2,2,2h28v36.014c-0.467,0.018-0.929,0.199-1.285,0.556L16.568,60.716
			c-0.749,0.75-0.749,1.965,0,2.715c0.75,0.75,1.966,0.75,2.716,0L30,52.715V60c0,1.104,0.895,2.001,2,2.001
			c1.104,0,2-0.896,2-2.001v-7.284l10.715,10.715c0.75,0.75,1.965,0.75,2.715,0s0.75-1.965,0-2.715L35.284,48.569
			c-0.356-0.356-0.817-0.537-1.284-0.556V12h28c1.104,0,2-0.896,2-2V6C64,4.896,63.104,4,62,4z"/>
	</g>
</g>
<g id="Base_5_">
	<g>
		<path style="fill:#CCCCCC;" d="M2,12v36c0,2.209,1.79,4.001,4,4.001h52c2.209,0,4-1.792,4-4.001V12H2z"/>
	</g>
</g>
<g id="Container_3_">
	<g>
		<path style="fill:#FFFFFF;" d="M6,12v34c0,1.104,0.895,2,2,2h48c1.104,0,2-0.896,2-2V12H6z"/>
	</g>
</g>
<g id="Arrow_3_">
	<g>
		<path style="fill-rule:evenodd;clip-rule:evenodd;fill:#ED7161;" d="M46,28.001c-1.105,0-2,0.896-2,2v3l-8.336-8.335
			c-0.457-0.457-1.066-0.658-1.664-0.622c-0.599-0.036-1.208,0.165-1.665,0.622L28,29.001l-8.336-8.335
			c-0.847-0.848-2.221-0.848-3.067,0c-0.848,0.847-0.848,2.221,0,3.068l9.67,9.671c0.475,0.474,1.113,0.672,1.733,0.615
			c0.619,0.057,1.258-0.142,1.732-0.615L34,29.138l6.863,6.863H38c-1.105,0-2,0.896-2,2c0,1.105,0.895,2,2,2h7.4
			c0.305,0.057,0.617,0.042,0.919-0.032C47.271,39.815,48,38.997,48,38.001v-8C48,28.897,47.104,28.001,46,28.001z"/>
	</g>
</g>
<g>
</g>
<g>
</g>
<g>
</g>
<g>
</g>
<g>
</g>
<g>
</g>
<g>
</g>
<g>
</g>
<g>
</g>
<g>
</g>
<g>
</g>
<g>
</g>
<g>
</g>
<g>
</g>
<g>
</g>
</svg>
