<?xml version="1.0" encoding="iso-8859-1"?>
<!-- Generator: Adobe Illustrator 16.0.0, SVG Export Plug-In . SVG Version: 6.00 Build 0)  -->
<!DOCTYPE svg PUBLIC "-//W3C//DTD SVG 1.1//EN" "http://www.w3.org/Graphics/SVG/1.1/DTD/svg11.dtd">
<svg version="1.1" id="Layer_1" xmlns="http://www.w3.org/2000/svg" xmlns:xlink="http://www.w3.org/1999/xlink" x="0px" y="0px"
	 width="64px" height="63.993px" viewBox="0 0 64 63.993" style="enable-background:new 0 0 64 63.993;" xml:space="preserve">
<g id="Stand_4_">
	<g>
		<path style="fill-rule:evenodd;clip-rule:evenodd;fill:#666666;" d="M62,4H34V2c0-1.104-0.896-2-2-2c-1.105,0-2,0.896-2,2v2H2
			C0.895,4,0,4.896,0,6v4c0,1.104,0.895,2,2,2h28v36.014c-0.467,0.018-0.929,0.199-1.285,0.556L16.569,60.716
			c-0.75,0.75-0.75,1.965,0,2.715c0.749,0.75,1.965,0.75,2.715,0L30,52.715V60c0,1.104,0.895,2.001,2,2.001c1.104,0,2-0.896,2-2.001
			v-7.284l10.715,10.715c0.75,0.75,1.966,0.75,2.715,0c0.75-0.75,0.75-1.965,0-2.715L35.284,48.569
			c-0.356-0.356-0.817-0.538-1.284-0.556V12h28c1.104,0,2-0.896,2-2V6C64,4.896,63.104,4,62,4z"/>
	</g>
</g>
<g id="Base_7_">
	<g>
		<path style="fill:#CCCCCC;" d="M2,12v36c0,2.209,1.791,4.001,4,4.001h52c2.209,0,4-1.792,4-4.001V12H2z"/>
	</g>
</g>
<g id="Container_5_">
	<g>
		<path style="fill:#FFFFFF;" d="M6,12v34c0,1.104,0.895,2,2,2h48c1.104,0,2-0.896,2-2V12H6z"/>
	</g>
</g>
<g id="Slice_3_">
	<g>
		<path style="fill-rule:evenodd;clip-rule:evenodd;fill:#FFCC66;" d="M32,30l8.485-8.485C38.313,19.343,35.313,18,32,18
			c-6.628,0-12,5.373-12,12c0,3.313,1.343,6.313,3.515,8.485L32,30z"/>
	</g>
</g>
<g id="Slice_4_">
	<g>
		<path style="fill-rule:evenodd;clip-rule:evenodd;fill:#88C057;" d="M44,30H32l-8.485,8.485C25.686,40.657,28.686,42,32,42
			C38.627,42,44,36.628,44,30z"/>
	</g>
</g>
<g id="Slice_5_">
	<g>
		<path style="fill-rule:evenodd;clip-rule:evenodd;fill:#ED7161;" d="M32,30h12c0-3.313-1.343-6.313-3.515-8.485L32,30z"/>
	</g>
</g>
<g>
</g>
<g>
</g>
<g>
</g>
<g>
</g>
<g>
</g>
<g>
</g>
<g>
</g>
<g>
</g>
<g>
</g>
<g>
</g>
<g>
</g>
<g>
</g>
<g>
</g>
<g>
</g>
<g>
</g>
</svg>
