<?xml version="1.0" encoding="iso-8859-1"?>
<!-- Generator: Adobe Illustrator 16.0.0, SVG Export Plug-In . SVG Version: 6.00 Build 0)  -->
<!DOCTYPE svg PUBLIC "-//W3C//DTD SVG 1.1//EN" "http://www.w3.org/Graphics/SVG/1.1/DTD/svg11.dtd">
<svg version="1.1" id="Layer_1" xmlns="http://www.w3.org/2000/svg" xmlns:xlink="http://www.w3.org/1999/xlink" x="0px" y="0px"
	 width="64px" height="63.993px" viewBox="0 0 64 63.993" style="enable-background:new 0 0 64 63.993;" xml:space="preserve">
<g id="Stand_3_">
	<g>
		<path style="fill-rule:evenodd;clip-rule:evenodd;fill:#666666;" d="M62,4H34V2c0-1.104-0.896-2-2-2c-1.105,0-2,0.896-2,2v2H2
			C0.895,4,0,4.896,0,6v4c0,1.104,0.895,2,2,2h28v36.014c-0.467,0.018-0.929,0.199-1.285,0.556L16.569,60.716
			c-0.75,0.75-0.75,1.965,0,2.715c0.749,0.75,1.965,0.75,2.715,0L30,52.715V60c0,1.104,0.895,2.001,2,2.001c1.104,0,2-0.896,2-2.001
			v-7.284l10.715,10.715c0.75,0.75,1.966,0.75,2.715,0c0.75-0.75,0.75-1.965,0-2.715L35.284,48.569
			c-0.356-0.356-0.817-0.538-1.284-0.556V12h28c1.104,0,2-0.896,2-2V6C64,4.896,63.104,4,62,4z"/>
	</g>
</g>
<g id="Base_6_">
	<g>
		<path style="fill:#CCCCCC;" d="M2,12v36c0,2.209,1.79,4.001,4,4.001h52c2.209,0,4-1.792,4-4.001V12H2z"/>
	</g>
</g>
<g id="Container_4_">
	<g>
		<path style="fill:#FFFFFF;" d="M6,12v34c0,1.104,0.895,2,2,2h48c1.104,0,2-0.896,2-2V12H6z"/>
	</g>
</g>
<g id="Arrow_4_">
	<g>
		<path style="fill-rule:evenodd;clip-rule:evenodd;fill:#48A0DC;" d="M46.322,20.032c-0.305-0.075-0.621-0.091-0.929-0.032H38
			c-1.105,0-2,0.896-2,2s0.895,2,2,2h2.863L34,30.863l-4.268-4.267c-0.475-0.475-1.113-0.674-1.732-0.616
			c-0.62-0.058-1.259,0.142-1.733,0.616l-9.67,9.67c-0.848,0.848-0.848,2.222,0,3.068c0.847,0.848,2.221,0.848,3.067,0L28,31
			l4.335,4.335c0.457,0.457,1.066,0.659,1.665,0.623c0.598,0.036,1.207-0.166,1.664-0.623L44,27v3c0,1.104,0.895,2,2,2
			c1.104,0,2-0.896,2-2v-8C48,21.006,47.272,20.188,46.322,20.032z"/>
	</g>
</g>
<g>
</g>
<g>
</g>
<g>
</g>
<g>
</g>
<g>
</g>
<g>
</g>
<g>
</g>
<g>
</g>
<g>
</g>
<g>
</g>
<g>
</g>
<g>
</g>
<g>
</g>
<g>
</g>
<g>
</g>
</svg>
