<?xml version="1.0" encoding="iso-8859-1"?>
<!-- Generator: Adobe Illustrator 16.0.0, SVG Export Plug-In . SVG Version: 6.00 Build 0)  -->
<!DOCTYPE svg PUBLIC "-//W3C//DTD SVG 1.1//EN" "http://www.w3.org/Graphics/SVG/1.1/DTD/svg11.dtd">
<svg version="1.1" id="Layer_1" xmlns="http://www.w3.org/2000/svg" xmlns:xlink="http://www.w3.org/1999/xlink" x="0px" y="0px"
	 width="64px" height="63.993px" viewBox="0 0 64 63.993" style="enable-background:new 0 0 64 63.993;" xml:space="preserve">
<g id="Stand">
	<g>
		<path style="fill-rule:evenodd;clip-rule:evenodd;fill:#666666;" d="M62,4H34V2c0-1.104-0.896-2-2-2c-1.105,0-2,0.896-2,2v2H2
			C0.895,4,0,4.896,0,6v4c0,1.104,0.895,2,2,2h28v36.014c-0.467,0.018-0.929,0.199-1.285,0.556L16.569,60.716
			c-0.75,0.75-0.75,1.965,0,2.715c0.749,0.75,1.965,0.75,2.715,0L30,52.715V60c0,1.104,0.895,2.001,2,2.001c1.104,0,2-0.896,2-2.001
			v-7.284l10.715,10.715c0.75,0.75,1.966,0.75,2.715,0c0.75-0.75,0.75-1.965,0-2.715L35.284,48.569
			c-0.356-0.356-0.817-0.538-1.284-0.556V12h28c1.104,0,2-0.896,2-2V6C64,4.896,63.104,4,62,4z"/>
	</g>
</g>
<g id="Base_3_">
	<g>
		<path style="fill:#CCCCCC;" d="M2,12v36c0,2.209,1.79,4.001,4,4.001h52c2.209,0,4-1.792,4-4.001V12H2z"/>
	</g>
</g>
<g id="Container_1_">
	<g>
		<path style="fill:#FFFFFF;" d="M6,12v34c0,1.104,0.895,2,2,2h48c1.104,0,2-0.896,2-2V12H6z"/>
	</g>
</g>
<g id="Play">
	<g>
		<path style="fill:#ED7161;" d="M41.972,29.864c0.013-0.768-0.315-1.523-0.964-1.936l-11.984-7.607
			c-0.189-0.116-0.395-0.193-0.619-0.241c-0.095-0.022-0.184-0.049-0.278-0.056c-0.044-0.004-0.081-0.026-0.126-0.026
			c-0.101,0-0.187,0.044-0.282,0.058c-0.116,0.018-0.228,0.028-0.339,0.068c-0.2,0.066-0.375,0.168-0.541,0.291
			c-0.021,0.016-0.043,0.024-0.063,0.041c-0.434,0.345-0.721,0.847-0.754,1.436c-0.001,0.01-0.005,0.02-0.006,0.028
			C26.015,21.948,26,21.972,26,21.999v16c0,0.028,0.015,0.052,0.016,0.08c0.001,0.011,0.005,0.021,0.007,0.032
			c0.034,0.585,0.319,1.085,0.75,1.428c0.024,0.021,0.053,0.034,0.078,0.054c0.162,0.117,0.33,0.215,0.523,0.28
			c0.116,0.042,0.234,0.054,0.355,0.071c0.092,0.014,0.175,0.055,0.271,0.055c0.043,0,0.079-0.021,0.121-0.024
			c0.099-0.007,0.191-0.034,0.29-0.059c0.214-0.046,0.409-0.116,0.591-0.226l12.006-7.619c0.648-0.412,0.977-1.168,0.964-1.936
			c0.006-0.047,0.005-0.09,0.009-0.136C41.977,29.954,41.978,29.91,41.972,29.864z"/>
	</g>
</g>
<g>
</g>
<g>
</g>
<g>
</g>
<g>
</g>
<g>
</g>
<g>
</g>
<g>
</g>
<g>
</g>
<g>
</g>
<g>
</g>
<g>
</g>
<g>
</g>
<g>
</g>
<g>
</g>
<g>
</g>
</svg>
