<?xml version="1.0" encoding="iso-8859-1"?>
<!-- Generator: Adobe Illustrator 16.0.0, SVG Export Plug-In . SVG Version: 6.00 Build 0)  -->
<!DOCTYPE svg PUBLIC "-//W3C//DTD SVG 1.1//EN" "http://www.w3.org/Graphics/SVG/1.1/DTD/svg11.dtd">
<svg version="1.1" id="Layer_1" xmlns="http://www.w3.org/2000/svg" xmlns:xlink="http://www.w3.org/1999/xlink" x="0px" y="0px"
	 width="64px" height="63.993px" viewBox="0 0 64 63.993" style="enable-background:new 0 0 64 63.993;" xml:space="preserve">
<g id="Stand_1_">
	<g>
		<path style="fill-rule:evenodd;clip-rule:evenodd;fill:#666666;" d="M62,4H34V2c0-1.104-0.896-2-2-2c-1.105,0-2,0.896-2,2v2H2
			C0.895,4,0,4.896,0,6v4c0,1.104,0.895,2,2,2h28v36.014c-0.467,0.018-0.929,0.199-1.285,0.556L16.569,60.716
			c-0.75,0.75-0.75,1.965,0,2.715c0.749,0.75,1.965,0.75,2.715,0L30,52.715V60c0,1.104,0.895,2.001,2,2.001c1.104,0,2-0.896,2-2.001
			v-7.284l10.715,10.715c0.75,0.75,1.966,0.75,2.715,0c0.75-0.75,0.75-1.965,0-2.715L35.284,48.569
			c-0.355-0.356-0.817-0.538-1.284-0.556V12h28c1.104,0,2-0.896,2-2V6C64,4.896,63.104,4,62,4z"/>
	</g>
</g>
<g id="Base_4_">
	<g>
		<path style="fill:#CCCCCC;" d="M2,12v36c0,2.209,1.79,4.001,4,4.001h52c2.209,0,4-1.792,4-4.001V12H2z"/>
	</g>
</g>
<g id="Container_2_">
	<g>
		<path style="fill:#FFFFFF;" d="M6,12v34c0,1.104,0.895,2,2,2h48c1.104,0,2-0.896,2-2V12H6z"/>
	</g>
</g>
<g id="Text_7_">
	<g>
		<path style="fill:#CCCCCC;" d="M18,23.999h28c1.104,0,2-0.895,2-1.999s-0.896-2.001-2-2.001H18c-1.105,0-2,0.896-2,2.001
			S16.895,23.999,18,23.999z M46,36H18c-1.105,0-2,0.896-2,1.999c0,1.104,0.895,2,2,2h28c1.104,0,2-0.896,2-2
			C48,36.896,47.104,36,46,36z M18,31.999h16c1.104,0,2-0.895,2-1.999s-0.896-2.001-2-2.001H18c-1.105,0-2,0.896-2,2.001
			S16.895,31.999,18,31.999z"/>
	</g>
</g>
<g>
</g>
<g>
</g>
<g>
</g>
<g>
</g>
<g>
</g>
<g>
</g>
<g>
</g>
<g>
</g>
<g>
</g>
<g>
</g>
<g>
</g>
<g>
</g>
<g>
</g>
<g>
</g>
<g>
</g>
</svg>
