<?xml version="1.0" encoding="iso-8859-1"?>
<!-- Generator: Adobe Illustrator 16.0.0, SVG Export Plug-In . SVG Version: 6.00 Build 0)  -->
<!DOCTYPE svg PUBLIC "-//W3C//DTD SVG 1.1//EN" "http://www.w3.org/Graphics/SVG/1.1/DTD/svg11.dtd">
<svg version="1.1" id="Layer_1" xmlns="http://www.w3.org/2000/svg" xmlns:xlink="http://www.w3.org/1999/xlink" x="0px" y="0px"
	 width="64px" height="64px" viewBox="0 0 64 64" style="enable-background:new 0 0 64 64;" xml:space="preserve">
<g id="QR_Code">
	<g>
		<path style="fill-rule:evenodd;clip-rule:evenodd;fill:#666666;" d="M24,32v8h4v-8H24z M4,40h8v-3.999H4V40z M32,56h-8v6.001
			C24,63.104,24.896,64,26,64h2v-3.999h4V64h4V52.001h-4V56z M56,40h4v-3.999h-4V40z M0,32v4.001h4V32H0z M2,24
			c-1.104,0-2,0.896-2,2.001v2h4V24H2z M56,52.001h-4V56h4V52.001z M2,20h16c1.104,0,2-0.895,2-1.999V2c0-1.104-0.896-2-2-2H2
			C0.896,0,0,0.896,0,2v16.001C0,19.105,0.896,20,2,20z M4,4h12v12H4V4z M18,44.001H2c-1.104,0-2,0.895-2,2v16
			C0,63.104,0.896,64,2,64h16c1.104,0,2-0.896,2-1.999v-16C20,44.896,19.104,44.001,18,44.001z M16,60.001H4V48h12V60.001z
			 M12,52.001H8V56h4V52.001z M64,36.001V32h-4v4.001H64z M8,12h4V8H8V12z M62,44.001H46c-1.105,0-2,0.895-2,2v16
			C44,63.104,44.895,64,46,64h16c1.104,0,2-0.896,2-1.999v-16C64,44.896,63.104,44.001,62,44.001z M60,60.001H48V48h12V60.001z
			 M28,48v-3.999h-4v8h8V48H28z M12,28.001h4V24H8v4.001H4V32h8V28.001z M32,28.001h-4V32h4V28.001z M36,28.001V32h4v4.001h-4V32h-4
			v8h-4v4.001h4V48h4v4.001h4v-8h-4V40h4h4v-3.999V32h4v-3.999H36z M36,28.001V24h4v-4h-4h-4v8.001H36z M56,8h-4v4h4V8z M62,0H46
			c-1.105,0-2,0.896-2,2v16.001C44,19.105,44.895,20,46,20h16c1.104,0,2-0.895,2-1.999V2C64,0.896,63.104,0,62,0z M60,16H48V4h12V16
			z M32,16h-4v4h4V16z M62,24h-6v4.001h-4V32h-4v4.001h8V32h4v-3.999h4v-2C64,24.896,63.104,24,62,24z M52,24h-4v4.001h4V24z M24,20
			v4h-4v4.001h8V20H24z M16,32h-4v4.001h4V40h4v-8v-3.999h-4V32z M24,8v8h4V8H24z M26,0c-1.104,0-2,0.896-2,2v2h4V0H26z M32,4h-4v4
			h4V4z M36,16v-4h4V8h-8v8H36z M40,2c0-1.104-0.896-2-2-2h-6v4h8V2z"/>
	</g>
</g>
<g id="Beam">
	<g>
		<path style="fill:#ED7161;" d="M62,28.001H2c-1.104,0-2,0.895-2,2C0,31.105,0.896,32,2,32h60c1.104,0,2-0.895,2-1.999
			C64,28.896,63.104,28.001,62,28.001z"/>
	</g>
</g>
<g>
</g>
<g>
</g>
<g>
</g>
<g>
</g>
<g>
</g>
<g>
</g>
<g>
</g>
<g>
</g>
<g>
</g>
<g>
</g>
<g>
</g>
<g>
</g>
<g>
</g>
<g>
</g>
<g>
</g>
</svg>
