<?xml version="1.0" encoding="iso-8859-1"?>
<!-- Generator: Adobe Illustrator 16.0.0, SVG Export Plug-In . SVG Version: 6.00 Build 0)  -->
<!DOCTYPE svg PUBLIC "-//W3C//DTD SVG 1.1//EN" "http://www.w3.org/Graphics/SVG/1.1/DTD/svg11.dtd">
<svg version="1.1" id="Layer_1" xmlns="http://www.w3.org/2000/svg" xmlns:xlink="http://www.w3.org/1999/xlink" x="0px" y="0px"
	 width="40px" height="63.947px" viewBox="0 0 40 63.947" style="enable-background:new 0 0 40 63.947;" xml:space="preserve">
<g id="Rupee">
	<g>
		<path style="fill-rule:evenodd;clip-rule:evenodd;fill:#A67C52;" d="M36,16h-4.401c-0.602-2.961-1.873-5.671-3.626-8H36
			c2.209,0,4-1.79,4-4c0-2.209-1.791-4-4-4H4C1.791,0,0,1.791,0,4c0,2.21,1.791,4,4,4h8c5.223,0,9.653,3.343,11.303,8H4
			c-2.209,0-4,1.791-4,4c0,2.21,1.791,4.001,4,4.001h19.303c-1.649,4.657-6.081,8-11.303,8H4c-0.714,0-1.375,0.202-1.955,0.53
			c-0.021,0.011-0.042,0.016-0.062,0.027c-0.013,0.008-0.022,0.018-0.036,0.025c-0.16,0.097-0.31,0.206-0.455,0.323
			c-0.075,0.061-0.151,0.118-0.222,0.184c-0.095,0.089-0.18,0.186-0.266,0.283c-0.088,0.1-0.175,0.197-0.251,0.305
			c-0.071,0.099-0.131,0.204-0.192,0.31c-0.062,0.106-0.124,0.211-0.175,0.322c-0.069,0.146-0.122,0.3-0.173,0.456
			c-0.021,0.066-0.044,0.13-0.062,0.197C0.063,35.296,0,35.64,0,36c0,1.158,0.5,2.193,1.287,2.925l15.414,23.094
			c1.078,1.844,3.467,2.476,5.334,1.411c1.868-1.065,2.508-3.423,1.43-5.267L11.343,40.001H12c9.676,0,17.744-6.871,19.599-16H36
			c2.209,0,4-1.791,4-4.001C40,17.791,38.209,16,36,16z"/>
	</g>
</g>
<g>
</g>
<g>
</g>
<g>
</g>
<g>
</g>
<g>
</g>
<g>
</g>
<g>
</g>
<g>
</g>
<g>
</g>
<g>
</g>
<g>
</g>
<g>
</g>
<g>
</g>
<g>
</g>
<g>
</g>
</svg>
