<?xml version="1.0" encoding="iso-8859-1"?>
<!-- Generator: Adobe Illustrator 16.0.0, SVG Export Plug-In . SVG Version: 6.00 Build 0)  -->
<!DOCTYPE svg PUBLIC "-//W3C//DTD SVG 1.1//EN" "http://www.w3.org/Graphics/SVG/1.1/DTD/svg11.dtd">
<svg version="1.1" id="Layer_1" xmlns="http://www.w3.org/2000/svg" xmlns:xlink="http://www.w3.org/1999/xlink" x="0px" y="0px"
	 width="64px" height="64px" viewBox="0 0 64 64" style="enable-background:new 0 0 64 64;" xml:space="preserve">
<g id="Pans">
	<g>
		<path style="fill-rule:evenodd;clip-rule:evenodd;fill:#999999;" d="M12,38c6.627,0,12,0,12-6H0C0,38,5.373,38,12,38z M40,46
			c0,6,5.373,6,12,6c6.627,0,12,0,12-6H40z"/>
	</g>
</g>
<g id="String_1_">
	<g>
		<path style="fill-rule:evenodd;clip-rule:evenodd;fill:#CCCCCC;" d="M0,32h4l8-20l8,20h4L12,4L0,32z M52,18L40,46h4l8-20l8,20h4
			L52,18z"/>
	</g>
</g>
<g id="Scale">
	<g>
		<path style="fill-rule:evenodd;clip-rule:evenodd;fill:#FFCC66;" d="M52,14c-1.283,0-2.413,0.615-3.145,1.555l-13.177-5.124
			C35.339,9.635,34.741,8.986,34,8.555V6c0,0,0-6-2-6s-2,6-2,6v2.222L15.761,2.685C15.215,1.125,13.746,0,12,0C9.791,0,8,1.791,8,4
			s1.791,4,4,4c1.283,0,2.413-0.615,3.145-1.555l12.909,5.02C28.03,11.642,28,11.817,28,12c0,1.477,0.81,2.752,2,3.445V54h-2
			c-2.208,0-4,1.791-4,4h-4c-2.209,0-4,1.791-4,4v2h32v-2c0-2.209-1.791-4-4-4h-4c0-2.209-1.791-4-4-4h-2V15.445
			c0.507-0.295,0.95-0.688,1.283-1.168l12.956,5.039C48.786,20.875,50.254,22,52,22c2.209,0,4-1.791,4-4S54.209,14,52,14z"/>
	</g>
</g>
<g>
</g>
<g>
</g>
<g>
</g>
<g>
</g>
<g>
</g>
<g>
</g>
<g>
</g>
<g>
</g>
<g>
</g>
<g>
</g>
<g>
</g>
<g>
</g>
<g>
</g>
<g>
</g>
<g>
</g>
</svg>
