<?xml version="1.0" encoding="iso-8859-1"?>
<!-- Generator: Adobe Illustrator 16.0.0, SVG Export Plug-In . SVG Version: 6.00 Build 0)  -->
<!DOCTYPE svg PUBLIC "-//W3C//DTD SVG 1.1//EN" "http://www.w3.org/Graphics/SVG/1.1/DTD/svg11.dtd">
<svg version="1.1" id="Layer_1" xmlns="http://www.w3.org/2000/svg" xmlns:xlink="http://www.w3.org/1999/xlink" x="0px" y="0px"
	 width="64px" height="63.999px" viewBox="0 0 64 63.999" style="enable-background:new 0 0 64 63.999;" xml:space="preserve">
<g id="Base_23_">
	<g>
		<path style="fill:#CCCCCC;" d="M60,0H4C1.791,0,0,1.79,0,3.999V60c0,2.209,1.791,3.999,4,3.999h56c2.209,0,4-1.79,4-3.999V3.999
			C64,1.79,62.209,0,60,0z"/>
	</g>
</g>
<g id="Door_1_">
	<g>
		<path style="fill:#999999;" d="M58,3.999H6C4.896,3.999,4,4.896,4,6v52c0,1.104,0.896,2,2,2h52c1.104,0,2-0.896,2-2V6
			C60,4.896,59.104,3.999,58,3.999z"/>
	</g>
</g>
<g id="Hinge_1_">
	<g>
		<path style="fill-rule:evenodd;clip-rule:evenodd;fill:#E6E6E6;" d="M58,11.999v8h4v-8H58z M58,52h4v-8h-4V52z"/>
	</g>
</g>
<g id="Wheel_4_">
	<g>
		<path style="fill-rule:evenodd;clip-rule:evenodd;fill:#E6E6E6;" d="M28,16c-8.837,0-16,7.163-16,16c0,8.836,7.163,16,16,16
			c8.836,0,16-7.164,16-16C44,23.163,36.836,16,28,16z M28,44c-5.945,0-10.866-4.327-11.82-10h6.169c0.825,2.328,3.04,4,5.651,4
			c0.374,0,0.739-0.039,1.095-0.104l3.083,5.342C30.875,43.722,29.472,44,28,44z M26,32c0-1.105,0.895-2,2-2c1.104,0,2,0.895,2,2
			c0,1.104-0.896,2-2,2C26.895,34,26,33.104,26,32z M29.094,26.104C28.738,26.039,28.374,26,28,26c-2.612,0-4.827,1.671-5.651,4
			H16.18c0.954-5.674,5.875-10.001,11.82-10.001c1.472,0,2.875,0.278,4.178,0.763L29.094,26.104z M35.647,41.247l-3.09-5.352
			C33.455,34.847,34,33.488,34,32c0-1.488-0.545-2.848-1.442-3.896l3.09-5.351C38.306,24.954,40,28.279,40,32
			C40,35.721,38.306,39.045,35.647,41.247z"/>
	</g>
</g>
<g>
</g>
<g>
</g>
<g>
</g>
<g>
</g>
<g>
</g>
<g>
</g>
<g>
</g>
<g>
</g>
<g>
</g>
<g>
</g>
<g>
</g>
<g>
</g>
<g>
</g>
<g>
</g>
<g>
</g>
</svg>
