<?xml version="1.0" encoding="iso-8859-1"?>
<!-- Generator: Adobe Illustrator 16.0.0, SVG Export Plug-In . SVG Version: 6.00 Build 0)  -->
<!DOCTYPE svg PUBLIC "-//W3C//DTD SVG 1.1//EN" "http://www.w3.org/Graphics/SVG/1.1/DTD/svg11.dtd">
<svg version="1.1" id="Layer_1" xmlns="http://www.w3.org/2000/svg" xmlns:xlink="http://www.w3.org/1999/xlink" x="0px" y="0px"
	 width="64px" height="63.999px" viewBox="0 0 64 63.999" style="enable-background:new 0 0 64 63.999;" xml:space="preserve">
<g id="Base_22_">
	<g>
		<path style="fill:#999999;" d="M60,0H4C1.791,0,0,1.79,0,3.999V60c0,2.209,1.791,3.999,4,3.999h56c2.209,0,4-1.79,4-3.999V3.999
			C64,1.79,62.209,0,60,0z"/>
	</g>
</g>
<g id="Door">
	<g>
		<path style="fill:#CCCCCC;" d="M58,3.999H6C4.896,3.999,4,4.896,4,6v52c0,1.104,0.896,2,2,2h52c1.104,0,2-0.896,2-2V6
			C60,4.896,59.104,3.999,58,3.999z"/>
	</g>
</g>
<g id="Hinge">
	<g>
		<path style="fill-rule:evenodd;clip-rule:evenodd;fill:#E6E6E6;" d="M58,11.999v8h4v-8H58z M58,52h4v-8h-4V52z"/>
	</g>
</g>
<g id="Ellipse_40_">
	<g>
		<circle style="fill:#999999;" cx="40" cy="32" r="14"/>
	</g>
</g>
<g id="Lock_4_">
	<g>
		<path style="fill-rule:evenodd;clip-rule:evenodd;fill:#FFFFFF;" d="M42.965,22.447L40,18l-2.965,4.447
			C32.96,23.71,30,27.509,30,32c0,5.522,4.477,10,10,10c5.522,0,10-4.478,10-10C50,27.509,47.04,23.71,42.965,22.447z"/>
	</g>
</g>
<g id="Ellipse_41_">
	<g>
		<circle style="fill:#666666;" cx="40" cy="32" r="6"/>
	</g>
</g>
<g id="Handle_6_">
	<g>
		<path style="fill-rule:evenodd;clip-rule:evenodd;fill:#FFFFFF;" d="M20,26c0-2.209-1.791-4-4-4s-4,1.791-4,4
			c0,0.351,0.06,0.684,0.145,1.008L14,40c0,1.104,0.896,2,2,2s2-0.896,2-2l1.855-12.992C19.94,26.685,20,26.351,20,26z"/>
	</g>
</g>
<g>
</g>
<g>
</g>
<g>
</g>
<g>
</g>
<g>
</g>
<g>
</g>
<g>
</g>
<g>
</g>
<g>
</g>
<g>
</g>
<g>
</g>
<g>
</g>
<g>
</g>
<g>
</g>
<g>
</g>
</svg>
