<?xml version="1.0" encoding="iso-8859-1"?>
<!-- Generator: Adobe Illustrator 16.0.0, SVG Export Plug-In . SVG Version: 6.00 Build 0)  -->
<!DOCTYPE svg PUBLIC "-//W3C//DTD SVG 1.1//EN" "http://www.w3.org/Graphics/SVG/1.1/DTD/svg11.dtd">
<svg version="1.1" id="Layer_1" xmlns="http://www.w3.org/2000/svg" xmlns:xlink="http://www.w3.org/1999/xlink" x="0px" y="0px"
	 width="60px" height="64px" viewBox="0 0 60 64" style="enable-background:new 0 0 60 64;" xml:space="preserve">
<g id="Bag_3_">
	<g>
		<path style="fill:#FFCC66;" d="M58,0H2L0,60.001C0,62.21,1.791,64,4,64h52c2.209,0,4-1.79,4-3.999L58,0z"/>
	</g>
</g>
<g id="Rope_1_">
	<g>
		<path style="fill-rule:evenodd;clip-rule:evenodd;fill:#FFFFFF;" d="M44,8.001c-1.105,0-2,0.896-2,2v6c0,6.627-5.373,12-12,12
			c-6.628,0-12-5.373-12-12v-6c0-1.104-0.896-2-2-2s-2,0.896-2,2v6c0,8.836,7.163,16,16,16c8.836,0,16-7.164,16-16v-6
			C46,8.896,45.104,8.001,44,8.001z"/>
	</g>
</g>
<g>
</g>
<g>
</g>
<g>
</g>
<g>
</g>
<g>
</g>
<g>
</g>
<g>
</g>
<g>
</g>
<g>
</g>
<g>
</g>
<g>
</g>
<g>
</g>
<g>
</g>
<g>
</g>
<g>
</g>
</svg>
