<?xml version="1.0" encoding="iso-8859-1"?>
<!-- Generator: Adobe Illustrator 16.0.0, SVG Export Plug-In . SVG Version: 6.00 Build 0)  -->
<!DOCTYPE svg PUBLIC "-//W3C//DTD SVG 1.1//EN" "http://www.w3.org/Graphics/SVG/1.1/DTD/svg11.dtd">
<svg version="1.1" id="Layer_1" xmlns="http://www.w3.org/2000/svg" xmlns:xlink="http://www.w3.org/1999/xlink" x="0px" y="0px"
	 width="64px" height="59.999px" viewBox="0 0 64 59.999" style="enable-background:new 0 0 64 59.999;" xml:space="preserve">
<g id="Bag_5_">
	<g>
		<path style="fill:#75A64B;" d="M62,12H2c-1.105,0-2,0.895-2,1.999V36h64V13.999C64,12.895,63.104,12,62,12z"/>
	</g>
</g>
<g id="Bag_2_">
	<g>
		<path style="fill:#88C057;" d="M0,36v22c0,1.104,0.895,1.999,2,1.999h60c1.104,0,2-0.896,2-1.999V36H0z"/>
	</g>
</g>
<g id="Handle_4_">
	<g>
		<polygon style="fill:#75A64B;" points="40,0 24,0 18,5.999 46,5.999 		"/>
	</g>
</g>
<g id="Handle_5_">
	<g>
		<path style="fill-rule:evenodd;clip-rule:evenodd;fill:#88C057;" d="M18,12h6V5.999h-6V12z M40,5.999V12h6V5.999H40z"/>
	</g>
</g>
<g>
</g>
<g>
</g>
<g>
</g>
<g>
</g>
<g>
</g>
<g>
</g>
<g>
</g>
<g>
</g>
<g>
</g>
<g>
</g>
<g>
</g>
<g>
</g>
<g>
</g>
<g>
</g>
<g>
</g>
</svg>
