<?xml version="1.0" encoding="iso-8859-1"?>
<!-- Generator: Adobe Illustrator 16.0.0, SVG Export Plug-In . SVG Version: 6.00 Build 0)  -->
<!DOCTYPE svg PUBLIC "-//W3C//DTD SVG 1.1//EN" "http://www.w3.org/Graphics/SVG/1.1/DTD/svg11.dtd">
<svg version="1.1" id="Layer_1" xmlns="http://www.w3.org/2000/svg" xmlns:xlink="http://www.w3.org/1999/xlink" x="0px" y="0px"
	 width="64px" height="60.001px" viewBox="0 0 64 60.001" style="enable-background:new 0 0 64 60.001;" xml:space="preserve">
<g id="Ground_2_">
	<g>
		<path style="fill:#999999;" d="M62,56.001H2c-1.104,0-2,0.895-2,2c0,1.104,0.896,2,2,2h60c1.104,0,2-0.896,2-2
			C64,56.896,63.104,56.001,62,56.001z"/>
	</g>
</g>
<g id="Wall">
	<g>
		<rect x="4" y="20.001" style="fill:#CCCCCC;" width="56" height="36"/>
	</g>
</g>
<g id="Frames">
	<g>
		<path style="fill:#E6E6E6;" d="M52,22H12c-1.104,0-2,0.896-2,2.001v32h24V46h18c1.104,0,2-0.895,2-1.999v-20
			C54,22.896,53.104,22,52,22z"/>
	</g>
</g>
<g id="Windows_3_">
	<g>
		<path style="fill-rule:evenodd;clip-rule:evenodd;fill:#48A0DC;" d="M14,52.001h16V26H14V52.001z M34,26v16.001h16V26H34z"/>
	</g>
</g>
<g id="Suncover">
	<g>
		<path style="fill-rule:evenodd;clip-rule:evenodd;fill:#ED7261;" d="M0,28.001c0,2.209,1.791,4,4,4s4-1.791,4-4v-8H0V28.001z
			 M16,28.001c0,2.209,1.791,4,4,4s4-1.791,4-4v-8h-8V28.001z M32,28.001c0,2.209,1.791,4,4,4s4-1.791,4-4v-8h-8V28.001z M48,20.001
			v8c0,2.209,1.791,4,4,4s4-1.791,4-4v-8H48z"/>
	</g>
</g>
<g id="Suncover_5_">
	<g>
		<path style="fill-rule:evenodd;clip-rule:evenodd;fill:#BA594C;" d="M0,20.001h8l6-12H8L0,20.001z M16,20.001h8l2-12h-6L16,20.001
			z M32,8.001v12h8l-2-12H32z M50,8.001h-6l4,12h8L50,8.001z"/>
	</g>
</g>
<g id="Suncover_2_">
	<g>
		<path style="fill-rule:evenodd;clip-rule:evenodd;fill:#E6E6E6;" d="M8,28.001c0,2.209,1.791,4,4,4s4-1.791,4-4v-8H8V28.001z
			 M24,28.001c0,2.209,1.791,4,4,4s4-1.791,4-4v-8h-8V28.001z M40,28.001c0,2.209,1.791,4,4,4s4-1.791,4-4v-8h-8V28.001z M56,20.001
			v8c0,2.209,1.791,4,4,4s4-1.791,4-4v-8H56z"/>
	</g>
</g>
<g id="Suncover_3_">
	<g>
		<path style="fill-rule:evenodd;clip-rule:evenodd;fill:#CCCCCC;" d="M56,8.001h-6l6,12h8L56,8.001z M38,8.001l2,12h8l-4-12H38z
			 M24,20.001h8v-12h-6L24,20.001z M8,20.001h8l4-12h-6L8,20.001z"/>
	</g>
</g>
<g id="Top_5_">
	<g>
		<path style="fill:#E6E6E6;" d="M54,0H10C8.896,0,8,0.896,8,2v6.001h48V2C56,0.896,55.104,0,54,0z"/>
	</g>
</g>
<g>
</g>
<g>
</g>
<g>
</g>
<g>
</g>
<g>
</g>
<g>
</g>
<g>
</g>
<g>
</g>
<g>
</g>
<g>
</g>
<g>
</g>
<g>
</g>
<g>
</g>
<g>
</g>
<g>
</g>
</svg>
