<?xml version="1.0" encoding="iso-8859-1"?>
<!-- Generator: Adobe Illustrator 16.0.0, SVG Export Plug-In . SVG Version: 6.00 Build 0)  -->
<!DOCTYPE svg PUBLIC "-//W3C//DTD SVG 1.1//EN" "http://www.w3.org/Graphics/SVG/1.1/DTD/svg11.dtd">
<svg version="1.1" id="Layer_1" xmlns="http://www.w3.org/2000/svg" xmlns:xlink="http://www.w3.org/1999/xlink" x="0px" y="0px"
	 width="64px" height="64.001px" viewBox="0 0 64 64.001" style="enable-background:new 0 0 64 64.001;" xml:space="preserve">
<g id="Ground">
	<g>
		<path style="fill:#999999;" d="M62,60.001H2c-1.104,0-2,0.895-2,2c0,1.104,0.896,2,2,2h60c1.104,0,2-0.896,2-2
			C64,60.896,63.104,60.001,62,60.001z"/>
	</g>
</g>
<g id="Building">
	<g>
		<path style="fill-rule:evenodd;clip-rule:evenodd;fill:#CCCCCC;" d="M58,10.001C58,8.896,57.104,8,56,8h-6l-2-8l-2,8h-6
			c-1.104,0-2,0.896-2,2.001c-1.104,0-2,0.895-2,1.999v12.001h-8V12c0-1.104-0.896-1.999-2-1.999C26,8.896,25.104,8,24,8h-6l-2-8
			l-2,8H8c-1.104,0-2,0.896-2,2.001c-1.104,0-2,0.895-2,1.999v48.001h24v-28h8v28h24V12C60,10.896,59.104,10.001,58,10.001z"/>
	</g>
</g>
<g id="Windows">
	<g>
		<path style="fill-rule:evenodd;clip-rule:evenodd;fill:#999999;" d="M8,24.001h16V20H8V24.001z M8,32.001h16V28H8V32.001z
			 M8,40.001h16v-4H8V40.001z M8,48.001h16v-4H8V48.001z M8,56.001h16v-4H8V56.001z M8,16.001h16V12H8V16.001z M40,24.001h16V20H40
			V24.001z M40,32.001h16V28H40V32.001z M40,40.001h16v-4H40V40.001z M40,48.001h16v-4H40V48.001z M40,56.001h16v-4H40V56.001z
			 M40,12v4.001h16V12H40z"/>
	</g>
</g>
<g>
</g>
<g>
</g>
<g>
</g>
<g>
</g>
<g>
</g>
<g>
</g>
<g>
</g>
<g>
</g>
<g>
</g>
<g>
</g>
<g>
</g>
<g>
</g>
<g>
</g>
<g>
</g>
<g>
</g>
</svg>
