<?xml version="1.0" encoding="iso-8859-1"?>
<!-- Generator: Adobe Illustrator 16.0.0, SVG Export Plug-In . SVG Version: 6.00 Build 0)  -->
<!DOCTYPE svg PUBLIC "-//W3C//DTD SVG 1.1//EN" "http://www.w3.org/Graphics/SVG/1.1/DTD/svg11.dtd">
<svg version="1.1" id="Layer_1" xmlns="http://www.w3.org/2000/svg" xmlns:xlink="http://www.w3.org/1999/xlink" x="0px" y="0px"
	 width="64px" height="64px" viewBox="0 0 64 64" style="enable-background:new 0 0 64 64;" xml:space="preserve">
<g id="Star">
	<g>
		<path style="fill-rule:evenodd;clip-rule:evenodd;fill:#FF8833;" d="M64,32c0-1.647-4.071-4.649-6.624-5.656
			c-0.161-0.725-0.347-1.439-0.566-2.14c1.707-2.151,3.727-6.778,2.903-8.204c-0.824-1.427-5.853-1.991-8.567-1.586
			c-0.498-0.542-1.018-1.063-1.56-1.561C49.991,10.14,49.427,5.112,48,4.288c-1.426-0.824-6.053,1.196-8.204,2.902
			c-0.7-0.22-1.415-0.405-2.14-0.566C36.65,4.071,33.648,0,32,0s-4.65,4.071-5.656,6.624c-0.725,0.161-1.439,0.347-2.14,0.566
			C22.053,5.484,17.426,3.464,16,4.288c-1.428,0.824-1.992,5.853-1.586,8.566c-0.542,0.498-1.062,1.018-1.56,1.56
			C10.141,14.009,5.111,14.573,4.287,16c-0.823,1.427,1.197,6.055,2.903,8.205c-0.22,0.7-0.405,1.415-0.566,2.139
			C4.071,27.351,0,30.353,0,32c0,1.648,4.071,4.65,6.625,5.656c0.161,0.724,0.346,1.439,0.566,2.139
			C5.483,41.946,3.464,46.573,4.287,48c0.824,1.428,5.853,1.992,8.566,1.586c0.498,0.542,1.019,1.063,1.56,1.561
			c-0.405,2.714,0.158,7.742,1.586,8.566c1.425,0.823,6.053-1.197,8.204-2.903c0.701,0.22,1.416,0.406,2.141,0.567
			C27.351,59.93,30.352,64,32,64s4.649-4.07,5.656-6.623c0.725-0.161,1.44-0.347,2.14-0.567c2.151,1.707,6.778,3.726,8.204,2.903
			c1.427-0.824,1.991-5.852,1.586-8.566c0.542-0.498,1.063-1.019,1.561-1.561c2.714,0.405,7.742-0.159,8.566-1.586
			c0.823-1.426-1.197-6.053-2.903-8.204c0.22-0.7,0.405-1.415,0.566-2.14C59.929,36.65,64,33.648,64,32z"/>
	</g>
</g>
<g id="Dollar_Symbol_2_">
	<g>
		<path style="fill-rule:evenodd;clip-rule:evenodd;fill:#FFFFFF;" d="M34,30.543v-8.34C37.756,23.012,38.372,26,40,26
			c1.156,0,2-0.969,2-2c0-1.858-2.761-5.169-8-5.863V16c0-1.104-0.896-2-2-2s-2,0.896-2,2v2.121c-4.563,0.569-8,3.153-8,7.879
			c0,4.814,3.889,6.404,8,7.496v8.269c-3.453-0.849-4.243-3.764-6-3.764c-1.281,0-2,0.979-2,1.999c0,1.565,2.639,5.124,8,5.858V48
			c0,1.104,0.896,2,2,2s2-0.896,2-2v-2.104c5.643-0.576,8-3.648,8-7.895C42,33.541,38.731,31.899,34,30.543z M26,26
			c0-1.417,0.616-3.321,4-3.853v7.314C27.705,28.791,26,27.965,26,26z M34,41.8v-7.245c3.417,1.079,4,2.142,4,3.446
			C38,39.817,36.584,41.295,34,41.8z"/>
	</g>
</g>
<g>
</g>
<g>
</g>
<g>
</g>
<g>
</g>
<g>
</g>
<g>
</g>
<g>
</g>
<g>
</g>
<g>
</g>
<g>
</g>
<g>
</g>
<g>
</g>
<g>
</g>
<g>
</g>
<g>
</g>
</svg>
