<?xml version="1.0" encoding="iso-8859-1"?>
<!-- Generator: Adobe Illustrator 16.0.0, SVG Export Plug-In . SVG Version: 6.00 Build 0)  -->
<!DOCTYPE svg PUBLIC "-//W3C//DTD SVG 1.1//EN" "http://www.w3.org/Graphics/SVG/1.1/DTD/svg11.dtd">
<svg version="1.1" id="Layer_1" xmlns="http://www.w3.org/2000/svg" xmlns:xlink="http://www.w3.org/1999/xlink" x="0px" y="0px"
	 width="64px" height="64px" viewBox="0 0 64 64" style="enable-background:new 0 0 64 64;" xml:space="preserve">
<g id="Base_1_">
	<g>
		<path style="fill:#E6E6E6;" d="M60,0H4C1.791,0,0,1.79,0,3.999v56C0,62.209,1.791,64,4,64h56c2.209,0,4-1.791,4-4.001v-56
			C64,1.79,62.209,0,60,0z"/>
	</g>
</g>
<g id="Grid">
	<g>
		<path style="fill-rule:evenodd;clip-rule:evenodd;fill:#CCCCCC;" d="M36,64h4V0h-4V64z M24,64h4V0h-4V64z M12,64h4V0h-4V64z M48,0
			v64h4V0H48z"/>
	</g>
</g>
<g id="Chart">
	<g>
		<path style="fill:#48A0DC;" d="M50,42H14c-1.104,0-2,0.895-2,1.999v8c0,1.104,0.896,2,2,2h36c1.104,0,2-0.896,2-2v-8
			C52,42.895,51.104,42,50,42z"/>
	</g>
</g>
<g id="Chart_6_">
	<g>
		<path style="fill:#88C057;" d="M26,26H14c-1.104,0-2,0.895-2,1.999V36c0,1.104,0.896,1.999,2,1.999h12c1.104,0,2-0.896,2-1.999
			v-8.001C28,26.895,27.104,26,26,26z"/>
	</g>
</g>
<g id="Chart_2_">
	<g>
		<path style="fill:#ED7161;" d="M38,10H14c-1.104,0-2,0.895-2,1.999v8c0,1.104,0.896,2,2,2h24c1.104,0,2-0.896,2-2v-8
			C40,10.895,39.104,10,38,10z"/>
	</g>
</g>
<g>
</g>
<g>
</g>
<g>
</g>
<g>
</g>
<g>
</g>
<g>
</g>
<g>
</g>
<g>
</g>
<g>
</g>
<g>
</g>
<g>
</g>
<g>
</g>
<g>
</g>
<g>
</g>
<g>
</g>
</svg>
