<?xml version="1.0" encoding="iso-8859-1"?>
<!-- Generator: Adobe Illustrator 16.0.0, SVG Export Plug-In . SVG Version: 6.00 Build 0)  -->
<!DOCTYPE svg PUBLIC "-//W3C//DTD SVG 1.1//EN" "http://www.w3.org/Graphics/SVG/1.1/DTD/svg11.dtd">
<svg version="1.1" id="Layer_1" xmlns="http://www.w3.org/2000/svg" xmlns:xlink="http://www.w3.org/1999/xlink" x="0px" y="0px"
	 width="64px" height="64px" viewBox="0 0 64 64" style="enable-background:new 0 0 64 64;" xml:space="preserve">
<g id="Tag">
	<g>
		<path style="fill:#48A0DC;" d="M60,0c0,0-17.177,0-20,0c-2,0-4,0-6,2L2,34.001c0,0-2,2-2,4c0,1.999,2,4,2,4l20,20
			c0,0,2,1.999,4,1.999s4-1.999,4-1.999l32-32c1.934-1.934,2-4.051,2-6.001c0-3.581,0-20,0-20C64,1.791,62.209,0,60,0z"/>
	</g>
</g>
<g id="Staple">
	<g>
		<circle style="fill:#387BA8;" cx="50" cy="14" r="8"/>
	</g>
</g>
<g id="Hole">
	<g>
		<circle style="fill:#FFFFFF;" cx="50" cy="14" r="4"/>
	</g>
</g>
<g id="Percentage">
	<g>
		<path style="fill-rule:evenodd;clip-rule:evenodd;fill:#FFFFFF;" d="M18,30.001c-3.313,0-6,2.686-6,6c0,3.313,2.687,6,6,6
			s6-2.688,6-6C24,32.687,21.313,30.001,18,30.001z M18,38.001c-1.104,0-2-0.896-2-2c0-1.105,0.896-2,2-2s2,0.895,2,2
			C20,37.104,19.104,38.001,18,38.001z M40,28.001c-3.313,0-6,2.686-6,6C34,37.314,36.687,40,40,40s6-2.686,6-5.999
			C46,30.687,43.313,28.001,40,28.001z M40,36.001c-1.104,0-2-0.896-2-2C38,32.896,38.896,32,40,32s2,0.896,2,2.001
			C42,35.105,41.104,36.001,40,36.001z M28.049,23.526c-0.297-1.099-1.437-1.75-2.545-1.456c-1.108,0.295-1.767,1.424-1.469,2.522
			l5.915,21.882c0.298,1.099,1.437,1.75,2.546,1.456c1.107-0.295,1.766-1.424,1.469-2.522L28.049,23.526z"/>
	</g>
</g>
<g>
</g>
<g>
</g>
<g>
</g>
<g>
</g>
<g>
</g>
<g>
</g>
<g>
</g>
<g>
</g>
<g>
</g>
<g>
</g>
<g>
</g>
<g>
</g>
<g>
</g>
<g>
</g>
<g>
</g>
</svg>
