<?xml version="1.0" encoding="iso-8859-1"?>
<!-- Generator: Adobe Illustrator 16.0.0, SVG Export Plug-In . SVG Version: 6.00 Build 0)  -->
<!DOCTYPE svg PUBLIC "-//W3C//DTD SVG 1.1//EN" "http://www.w3.org/Graphics/SVG/1.1/DTD/svg11.dtd">
<svg version="1.1" id="Layer_1" xmlns="http://www.w3.org/2000/svg" xmlns:xlink="http://www.w3.org/1999/xlink" x="0px" y="0px"
	 width="64px" height="63.999px" viewBox="0 0 64 63.999" style="enable-background:new 0 0 64 63.999;" xml:space="preserve">
<g id="Ellipse">
	<g>
		<circle style="fill:#48A0DC;" cx="32" cy="32" r="32"/>
	</g>
</g>
<g id="Ellipse_45_">
	<g>
		<circle style="fill:#FFFFFF;" cx="32" cy="32" r="24"/>
	</g>
</g>
<g id="Ellipse_2_">
	<g>
		<circle style="fill:#ED7261;" cx="32" cy="32" r="16"/>
	</g>
</g>
<g id="Ellipse_3_">
	<g>
		<circle style="fill:#FFFFFF;" cx="32" cy="32" r="8"/>
	</g>
</g>
<g id="Arrow_5_">
	<g>
		<path style="fill-rule:evenodd;clip-rule:evenodd;fill:#666666;" d="M62,4h-2V2c0-1.105-0.896-2-2-2s-2,0.895-2,2
			c-1.104,0-2,0.895-2,2v3.115L30.534,30.591c-0.775,0.776-0.775,2.035,0,2.812c0.776,0.776,2.034,0.776,2.81,0L56.736,10H60
			c1.104,0,2-0.896,2-2c1.104,0,2-0.896,2-2.001C64,4.896,63.104,4,62,4z"/>
	</g>
</g>
<g>
</g>
<g>
</g>
<g>
</g>
<g>
</g>
<g>
</g>
<g>
</g>
<g>
</g>
<g>
</g>
<g>
</g>
<g>
</g>
<g>
</g>
<g>
</g>
<g>
</g>
<g>
</g>
<g>
</g>
</svg>
