<?xml version="1.0" encoding="iso-8859-1"?>
<!-- Generator: Adobe Illustrator 16.0.0, SVG Export Plug-In . SVG Version: 6.00 Build 0)  -->
<!DOCTYPE svg PUBLIC "-//W3C//DTD SVG 1.1//EN" "http://www.w3.org/Graphics/SVG/1.1/DTD/svg11.dtd">
<svg version="1.1" id="Layer_1" xmlns="http://www.w3.org/2000/svg" xmlns:xlink="http://www.w3.org/1999/xlink" x="0px" y="0px"
	 width="43.965px" height="63.968px" viewBox="0 0 43.965 63.968" style="enable-background:new 0 0 43.965 63.968;"
	 xml:space="preserve">
<g id="Back">
	<g>
		<path style="fill:#387BA8;" d="M24,9.999L0,28v8c0,1.104,0.896,2,2,2h8l18-24L24,9.999z"/>
	</g>
</g>
<g id="Knot">
	<g>
		<path style="fill:#387BA8;" d="M34,0h-8c-2.209,0-4,1.791-4,4v3.733c-0.066,1.063,0.269,2.146,1.082,2.958L26,14h8l2.858-3.309
			C37.603,9.948,37.973,8.975,37.98,8H38V4C38,1.791,36.209,0,34,0z"/>
	</g>
</g>
<g id="Front">
	<g>
		<path style="fill:#48A0DC;" d="M34,14c-1.525-1.525-2.438-2-4-2s-2.475,0.475-4,2L16,50c0.008,1.049,0.38,2.096,1.18,2.896
			l9.858,9.858c1.618,1.617,4.24,1.617,5.858,0l9.858-9.858c0.801-0.801,1.202-1.848,1.21-2.896L34,14z"/>
	</g>
</g>
<g id="Stripes">
	<g>
		<path style="fill:#387BA8;" d="M43.187,47.186L22.522,26.521l-1.739,6.261l21.043,21.044l0.929-0.93
			c0.801-0.801,1.202-1.848,1.21-2.896L43.187,47.186z M37.063,25.062L26,14l-1.739,6.26l15.863,15.864L37.063,25.062z
			 M17.305,45.304l16.521,16.522l4-4L19.044,39.043L17.305,45.304z"/>
	</g>
</g>
<g>
</g>
<g>
</g>
<g>
</g>
<g>
</g>
<g>
</g>
<g>
</g>
<g>
</g>
<g>
</g>
<g>
</g>
<g>
</g>
<g>
</g>
<g>
</g>
<g>
</g>
<g>
</g>
<g>
</g>
</svg>
