<?xml version="1.0" encoding="iso-8859-1"?>
<!-- Generator: Adobe Illustrator 16.0.0, SVG Export Plug-In . SVG Version: 6.00 Build 0)  -->
<!DOCTYPE svg PUBLIC "-//W3C//DTD SVG 1.1//EN" "http://www.w3.org/Graphics/SVG/1.1/DTD/svg11.dtd">
<svg version="1.1" id="Layer_1" xmlns="http://www.w3.org/2000/svg" xmlns:xlink="http://www.w3.org/1999/xlink" x="0px" y="0px"
	 width="64.034px" height="56.017px" viewBox="0 0 64.034 56.017" style="enable-background:new 0 0 64.034 56.017;"
	 xml:space="preserve">
<g id="Trolley">
	<g>
		<path style="fill-rule:evenodd;clip-rule:evenodd;fill:#CCCCCC;" d="M63.774,33.017c-0.536-0.956-1.722-1.284-2.649-0.731
			L38.77,45.242L13.867,1.229c-0.03-0.071-0.054-0.144-0.093-0.213c-0.275-0.49-0.722-0.813-1.216-0.938
			c-0.5-0.144-1.055-0.091-1.541,0.195c-0.144,0.085-0.269,0.189-0.383,0.302L0.97,6.285C0.042,6.837-0.276,8.061,0.26,9.017
			c0.535,0.957,1.722,1.284,2.648,0.732l8.364-4.941l6.376,11.269c-3.885,3.779-4.835,9.677-1.915,14.474l8.959,14.717l-1.723,1.018
			c-0.928,0.552-1.246,1.775-0.71,2.731c0.535,0.957,1.722,1.284,2.648,0.732l8.838-5.222l2.425,4.286
			c0.029,0.068,0.052,0.138,0.089,0.203c0.274,0.491,0.721,0.813,1.215,0.938c0.501,0.144,1.055,0.092,1.542-0.194
			c0.14-0.082,0.261-0.183,0.374-0.291l23.673-13.721C63.992,35.197,64.309,33.974,63.774,33.017z M28.302,43.135l-8.888-14.6
			c-1.702-2.797-1.429-6.153,0.396-8.638l11.981,21.176L28.302,43.135z"/>
	</g>
</g>
<g id="Wheel_2_">
	<g>
		<circle style="fill:#999999;" cx="24.017" cy="48.017" r="8"/>
	</g>
</g>
<g id="Wheel_3_">
	<g>
		<circle style="fill:#FFFFFF;" cx="24.017" cy="48.018" r="4"/>
	</g>
</g>
<g id="Box_2_">
	<g>
		<path style="fill:#D9A16A;" d="M59.409,29.605l-10-17.32c-0.552-0.957-1.775-1.284-2.731-0.732l-17.32,10
			c-0.957,0.553-1.285,1.775-0.732,2.732l10,17.32c0.553,0.957,1.775,1.284,2.732,0.732l17.32-10
			C59.633,31.785,59.961,30.563,59.409,29.605z"/>
	</g>
</g>
<g id="Box_3_">
	<g>
		<path style="fill:#F2B477;" d="M40.481,12.821l-6-10.393c-0.552-0.956-1.775-1.284-2.732-0.732l-10.392,6
			c-0.957,0.553-1.285,1.776-0.732,2.732l6,10.392c0.553,0.957,1.775,1.285,2.732,0.732l10.392-6
			C40.706,15.001,41.033,13.777,40.481,12.821z"/>
	</g>
</g>
<g>
</g>
<g>
</g>
<g>
</g>
<g>
</g>
<g>
</g>
<g>
</g>
<g>
</g>
<g>
</g>
<g>
</g>
<g>
</g>
<g>
</g>
<g>
</g>
<g>
</g>
<g>
</g>
<g>
</g>
</svg>
