<?xml version="1.0" encoding="iso-8859-1"?>
<!-- Generator: Adobe Illustrator 16.0.0, SVG Export Plug-In . SVG Version: 6.00 Build 0)  -->
<!DOCTYPE svg PUBLIC "-//W3C//DTD SVG 1.1//EN" "http://www.w3.org/Graphics/SVG/1.1/DTD/svg11.dtd">
<svg version="1.1" id="Layer_1" xmlns="http://www.w3.org/2000/svg" xmlns:xlink="http://www.w3.org/1999/xlink" x="0px" y="0px"
	 width="64px" height="52.013px" viewBox="0 0 64 52.013" style="enable-background:new 0 0 64 52.013;" xml:space="preserve">
<g id="Back_2_">
	<g>
		<path style="fill:#735538;" d="M52,0.013l-48,4C1.791,4.202,0,4.281,0,6.012v16l56,2.001v-20C56,1.844,54.209-0.178,52,0.013z"/>
	</g>
</g>
<g id="Front_5_">
	<g>
		<path style="fill-rule:evenodd;clip-rule:evenodd;fill:#A67C52;" d="M56,8.013H2l0,0h0c-1.104,0-2-0.896-2-2.001v42.001
			c0,2.209,1.791,4,4,4h52c2.209,0,4-1.791,4-4v-36C60,9.804,58.209,8.013,56,8.013z"/>
	</g>
</g>
<g id="Interior">
	<g>
		<path style="fill-rule:evenodd;clip-rule:evenodd;fill:#402F1F;" d="M62,20.013h-2v1.999v4.001v2h4v-6.001
			C64,20.907,63.104,20.013,62,20.013z"/>
	</g>
</g>
<g id="Lock_5_">
	<g>
		<path style="fill-rule:evenodd;clip-rule:evenodd;fill:#735538;" d="M62,24.013h-2H50c-3.314,0-6,2.686-6,6c0,3.313,2.686,6,6,6
			h10c2.209,0,4-1.791,4-4V22.012C64,23.117,63.104,24.013,62,24.013z"/>
	</g>
</g>
<g id="Ellipse_43_">
	<g>
		<circle style="fill:#FFFFFF;" cx="50" cy="30.013" r="2"/>
	</g>
</g>
<g>
</g>
<g>
</g>
<g>
</g>
<g>
</g>
<g>
</g>
<g>
</g>
<g>
</g>
<g>
</g>
<g>
</g>
<g>
</g>
<g>
</g>
<g>
</g>
<g>
</g>
<g>
</g>
<g>
</g>
</svg>
