<?xml version="1.0" encoding="iso-8859-1"?>
<!-- Generator: Adobe Illustrator 16.0.0, SVG Export Plug-In . SVG Version: 6.00 Build 0)  -->
<!DOCTYPE svg PUBLIC "-//W3C//DTD SVG 1.1//EN" "http://www.w3.org/Graphics/SVG/1.1/DTD/svg11.dtd">
<svg version="1.1" id="Layer_1" xmlns="http://www.w3.org/2000/svg" xmlns:xlink="http://www.w3.org/1999/xlink" x="0px" y="0px"
	 width="64px" height="48.001px" viewBox="0 0 64 48.001" style="enable-background:new 0 0 64 48.001;" xml:space="preserve">
<g id="Wheel">
	<g>
		<circle style="fill:#999999;" cx="8" cy="40.001" r="8"/>
	</g>
</g>
<g id="Wheel_1_">
	<g>
		<circle style="fill:#FFFFFF;" cx="8" cy="40.001" r="4"/>
	</g>
</g>
<g id="Frame">
	<g>
		<path style="fill-rule:evenodd;clip-rule:evenodd;fill:#CCCCCC;" d="M55.596,16.874c-0.642-0.914-1.905-1.137-2.822-0.496
			l-19.919,13.91c-0.598,0.417-0.894,1.098-0.854,1.773v9.225L19.776,29.063c-0.09-0.176-0.199-0.345-0.347-0.492
			c-0.393-0.394-0.915-0.575-1.43-0.556c-0.516-0.02-1.037,0.162-1.43,0.556c-0.147,0.147-0.257,0.316-0.347,0.492l-9.653,9.653
			c-0.75,0.75-0.75,1.966,0,2.716c0.749,0.749,1.965,0.749,2.715,0L18,32.715l14.268,14.268c0.344,0.605,0.986,1.018,1.732,1.018
			c0.059,0,0.114-0.012,0.171-0.017c0.458-0.023,0.909-0.204,1.259-0.553s0.53-0.801,0.553-1.259C35.988,46.115,36,46.06,36,46.001
			V33.026l19.099-13.337C56.016,19.048,56.238,17.788,55.596,16.874z"/>
	</g>
</g>
<g id="Handgrip">
	<g>
		<path style="fill:#48A0DC;" d="M62,16.001h-8c-1.105,0-2,0.896-2,2s0.895,2,2,2h8c1.104,0,2-0.896,2-2S63.104,16.001,62,16.001z"
			/>
	</g>
</g>
<g id="Money">
	<g>
		<path style="fill-rule:evenodd;clip-rule:evenodd;fill:#FFCC66;" d="M36,12.001h4c1.104,0,1.999-0.896,1.999-2
			C41.999,8.896,41.104,8,40,8h-5.99c1.099-0.005,1.989-0.898,1.989-1.999c0-1.105-0.896-2-1.999-2h-4c1.104,0,2-0.896,2-2
			S31.104,0,30,0h-6c-1.105,0-2,0.896-2,2.001s0.895,2,2,2h4c-1.105,0-2,0.895-2,2C26,7.102,26.889,7.995,27.99,8h-3.98
			C25.11,7.995,26,7.102,26,6.001c0-1.105-0.896-2-2-2h-6c-1.105,0-2,0.895-2,2C16,7.102,16.889,7.995,17.99,8H14
			c-1.105,0-2,0.896-2,2.001c0,1.104,0.895,2,2,2h-4c-1.105,0-2,0.895-2,2c0,1.104,0.895,2,2,2h6c1.104,0,1.999-0.896,1.999-2
			c0-1.105-0.896-2-1.999-2h4c1.104,0,2-0.896,2-2c0-1.102-0.89-1.995-1.99-2h3.98c-1.101,0.005-1.99,0.898-1.99,2
			c0,1.104,0.895,2,2,2h-4c-1.105,0-2.001,0.895-2.001,2c0,1.104,0.896,2,2.001,2h6c1.104,0,2-0.896,2-2c0-1.105-0.896-2-2-2h4
			c1.104,0,2-0.896,2-2c0-1.102-0.89-1.995-1.99-2h3.98c-1.101,0.005-1.99,0.898-1.99,2c0,1.104,0.895,2,2,2h-4
			c-1.105,0-2,0.895-2,2c0,1.104,0.895,2,2,2h6c1.104,0,2-0.896,2-2C38,12.896,37.104,12.001,36,12.001z M46,12.001h-6
			c-1.105,0-2,0.895-2,2c0,1.104,0.895,2,2,2h6c1.104,0,2-0.896,2-2C48,12.896,47.104,12.001,46,12.001z"/>
	</g>
</g>
<g id="Tray">
	<g>
		<path style="fill:#ED7161;" d="M48,14.001H6c-0.97,0-2,0.919-2,2c0,1.24,0,2,2,4l14,14c1.625,1.625,3.063,2,4,2s2.326-0.954,4-2
			l20-14c1.452-1.146,2-2.563,2-4S48.958,14.001,48,14.001z"/>
	</g>
</g>
<g>
</g>
<g>
</g>
<g>
</g>
<g>
</g>
<g>
</g>
<g>
</g>
<g>
</g>
<g>
</g>
<g>
</g>
<g>
</g>
<g>
</g>
<g>
</g>
<g>
</g>
<g>
</g>
<g>
</g>
</svg>
