<?xml version="1.0" encoding="iso-8859-1"?>
<!-- Generator: Adobe Illustrator 16.0.0, SVG Export Plug-In . SVG Version: 6.00 Build 0)  -->
<!DOCTYPE svg PUBLIC "-//W3C//DTD SVG 1.1//EN" "http://www.w3.org/Graphics/SVG/1.1/DTD/svg11.dtd">
<svg version="1.1" id="Layer_1" xmlns="http://www.w3.org/2000/svg" xmlns:xlink="http://www.w3.org/1999/xlink" x="0px" y="0px"
	 width="56px" height="64px" viewBox="0 0 56 64" style="enable-background:new 0 0 56 64;" xml:space="preserve">
<g id="Hair">
	<g>
		<path style="fill:#8C6845;" d="M28,0C16.91,0,12,6,12,16v28h32V16C44,6,37.457,0,28,0z"/>
	</g>
</g>
<g id="T-Shirt">
	<g>
		<path style="fill:#F06EAA;" d="M52,48c-1.881-1.88-16-7.999-16-7.999H20c0,0-14.12,6.119-16,7.999c-3.761,3.761-4,16-4,16h56
			C56,64,55.76,51.761,52,48z"/>
	</g>
</g>
<g id="Shirt_1_">
	<g>
		<path style="fill:#BD5786;" d="M34,38.001H22l-2,2c0,0,2,4,8,4s8-4,8-4L34,38.001z"/>
	</g>
</g>
<g id="Neck">
	<g>
		<path style="fill:#DBB59A;" d="M32,30h-8l-2,8c0,0,2.023,2.001,6,2.001s6-2,6-2L32,30z"/>
	</g>
</g>
<g id="Head_1_">
	<g>
		<path style="fill-rule:evenodd;clip-rule:evenodd;fill:#F6CBAD;" d="M33.503,11.966C31.938,15.428,26.538,18,20,18
			c0.009,0-1.977,0-3.971,0c0.088,3.917,0.451,6.961,1.971,10.001c2,3.999,6.081,8,10,8c3.918,0,8-4.001,10-8
			c1.772-3.545,1.974-7.096,1.996-12.031C39.957,13.688,35.656,11.966,33.503,11.966z"/>
	</g>
</g>
<g>
</g>
<g>
</g>
<g>
</g>
<g>
</g>
<g>
</g>
<g>
</g>
<g>
</g>
<g>
</g>
<g>
</g>
<g>
</g>
<g>
</g>
<g>
</g>
<g>
</g>
<g>
</g>
<g>
</g>
</svg>
