<?xml version="1.0" encoding="iso-8859-1"?>
<!-- Generator: Adobe Illustrator 16.0.0, SVG Export Plug-In . SVG Version: 6.00 Build 0)  -->
<!DOCTYPE svg PUBLIC "-//W3C//DTD SVG 1.1//EN" "http://www.w3.org/Graphics/SVG/1.1/DTD/svg11.dtd">
<svg version="1.1" id="Layer_1" xmlns="http://www.w3.org/2000/svg" xmlns:xlink="http://www.w3.org/1999/xlink" x="0px" y="0px"
	 width="56px" height="64px" viewBox="0 0 56 64" style="enable-background:new 0 0 56 64;" xml:space="preserve">
<g id="Hair_2_">
	<g>
		<path style="fill:#8C6845;" d="M28,0C16.91,0,12,6,12,16v28h32V16C44,6,37.457,0,28,0z"/>
	</g>
</g>
<g id="Neck_2_">
	<g>
		<polygon style="fill:#DBB59A;" points="32,30.001 24,30.001 22,38.001 22,64 34,64 34,38.001 		"/>
	</g>
</g>
<g id="Suit_3_">
	<g>
		<path style="fill:#88C057;" d="M4,48c-3.76,3.761-4,16-4,16h28l-8-23.999C20,40.001,5.88,46.12,4,48z M52,48
			c-1.881-1.88-16-7.999-16-7.999L28,64h28C56,64,55.76,51.761,52,48z"/>
	</g>
</g>
<g id="Collar_1_">
	<g>
		<path style="fill:#FFFFFF;" d="M10,48.001L20,50l6,14h2l-6-25.999L10,48.001z M34,38.001L28,64h2l6-14l10-1.999L34,38.001z"/>
	</g>
</g>
<g id="Head_3_">
	<g>
		<path style="fill-rule:evenodd;clip-rule:evenodd;fill:#F6CBAD;" d="M33.503,11.966C31.938,15.428,26.538,18,20,18
			c0.009,0-1.977,0-3.971,0c0.088,3.917,0.451,6.961,1.971,10.001c2,3.999,6.081,8,10,8c3.918,0,8-4.001,10-8
			c1.772-3.545,1.974-7.096,1.996-12.031C39.957,13.688,35.655,11.966,33.503,11.966z"/>
	</g>
</g>
<g>
</g>
<g>
</g>
<g>
</g>
<g>
</g>
<g>
</g>
<g>
</g>
<g>
</g>
<g>
</g>
<g>
</g>
<g>
</g>
<g>
</g>
<g>
</g>
<g>
</g>
<g>
</g>
<g>
</g>
</svg>
