<?xml version="1.0" encoding="iso-8859-1"?>
<!-- Generator: Adobe Illustrator 16.0.0, SVG Export Plug-In . SVG Version: 6.00 Build 0)  -->
<!DOCTYPE svg PUBLIC "-//W3C//DTD SVG 1.1//EN" "http://www.w3.org/Graphics/SVG/1.1/DTD/svg11.dtd">
<svg version="1.1" id="Layer_1" xmlns="http://www.w3.org/2000/svg" xmlns:xlink="http://www.w3.org/1999/xlink" x="0px" y="0px"
	 width="48.05px" height="64.024px" viewBox="0 0 48.05 64.024" style="enable-background:new 0 0 48.05 64.024;"
	 xml:space="preserve">
<g id="Yuan">
	<g>
		<path style="fill-rule:evenodd;clip-rule:evenodd;fill:#88C057;" d="M46.87,6.874c1.573-1.572,1.573-4.122,0-5.694
			c-1.572-1.572-4.122-1.572-5.694,0l-17.15,17.149L6.875,1.18c-1.572-1.572-4.122-1.572-5.695,0c-1.572,1.572-1.572,4.122,0,5.694
			L20.025,25.72v2.305h-8c-2.21,0-4,1.791-4,4.001c0,2.209,1.79,3.999,4,3.999h8v24.001c0,2.208,1.791,3.999,4,3.999
			s4-1.791,4-3.999V36.024h8c2.209,0,4-1.79,4-3.999c0-2.21-1.791-4.001-4-4.001h-8v-2.306L46.87,6.874z"/>
	</g>
</g>
<g>
</g>
<g>
</g>
<g>
</g>
<g>
</g>
<g>
</g>
<g>
</g>
<g>
</g>
<g>
</g>
<g>
</g>
<g>
</g>
<g>
</g>
<g>
</g>
<g>
</g>
<g>
</g>
<g>
</g>
</svg>
