<?xml version="1.0" encoding="iso-8859-1"?>
<!-- Generator: Adobe Illustrator 16.0.0, SVG Export Plug-In . SVG Version: 6.00 Build 0)  -->
<!DOCTYPE svg PUBLIC "-//W3C//DTD SVG 1.1//EN" "http://www.w3.org/Graphics/SVG/1.1/DTD/svg11.dtd">
<svg version="1.1" id="Layer_1" xmlns="http://www.w3.org/2000/svg" xmlns:xlink="http://www.w3.org/1999/xlink" x="0px" y="0px"
	 width="64px" height="64px" viewBox="0 0 64 64" style="enable-background:new 0 0 64 64;" xml:space="preserve">
<g id="Objects_8_">
	<g>
		<path style="fill-rule:evenodd;clip-rule:evenodd;fill:#CCCCCC;" d="M56,20H38c-2.209,0-4,1.791-4,4v28c0,2.21,1.791,4,4,4h18
			c2.209,0,4-1.79,4-4V24C60,21.791,58.209,20,56,20z M26,0H8C5.791,0,4,1.791,4,4.001V52c0,2.21,1.791,4,4,4h18c2.209,0,4-1.79,4-4
			V4.001C30,1.791,28.209,0,26,0z"/>
	</g>
</g>
<g id="Container_22_">
	<g>
		<path style="fill:#FFFFFF;" d="M24,4.001H10c-1.104,0-2,0.895-2,2v44c0,1.104,0.896,2,2,2h14c1.104,0,2-0.896,2-2v-44
			C26,4.896,25.104,4.001,24,4.001z"/>
	</g>
</g>
<g id="Line_11_">
	<g>
		<path style="fill:#ED7161;" d="M62,60H2c-1.104,0-2,0.896-2,2.001C0,63.104,0.896,64,2,64h60c1.104,0,2-0.896,2-1.999
			C64,60.896,63.104,60,62,60z"/>
	</g>
</g>
<g>
</g>
<g>
</g>
<g>
</g>
<g>
</g>
<g>
</g>
<g>
</g>
<g>
</g>
<g>
</g>
<g>
</g>
<g>
</g>
<g>
</g>
<g>
</g>
<g>
</g>
<g>
</g>
<g>
</g>
</svg>
