<?xml version="1.0" encoding="iso-8859-1"?>
<!-- Generator: Adobe Illustrator 16.0.0, SVG Export Plug-In . SVG Version: 6.00 Build 0)  -->
<!DOCTYPE svg PUBLIC "-//W3C//DTD SVG 1.1//EN" "http://www.w3.org/Graphics/SVG/1.1/DTD/svg11.dtd">
<svg version="1.1" id="Layer_1" xmlns="http://www.w3.org/2000/svg" xmlns:xlink="http://www.w3.org/1999/xlink" x="0px" y="0px"
	 width="64px" height="64px" viewBox="0 0 64 64" style="enable-background:new 0 0 64 64;" xml:space="preserve">
<g id="Objects_13_">
	<g>
		<path style="fill-rule:evenodd;clip-rule:evenodd;fill:#CCCCCC;" d="M12,30.001h28c2.209,0,4-1.791,4-4.001V8
			c0-2.209-1.791-3.999-4-3.999H12c-2.209,0-4,1.79-4,3.999v18C8,28.21,9.791,30.001,12,30.001z M60,34H12c-2.209,0-4,1.791-4,4.001
			V56c0,2.209,1.791,4,4,4h48c2.209,0,4-1.791,4-4V38.001C64,35.791,62.209,34,60,34z"/>
	</g>
</g>
<g id="Container_27_">
	<g>
		<path style="fill:#FFFFFF;" d="M58,38.001H14c-1.105,0-2,0.895-2,1.999v14c0,1.104,0.895,2.001,2,2.001h44
			c1.104,0,2-0.896,2-2.001V40C60,38.896,59.104,38.001,58,38.001z"/>
	</g>
</g>
<g id="Line_16_">
	<g>
		<path style="fill:#ED7161;" d="M2,0C0.895,0,0,0.896,0,2.001v60C0,63.104,0.895,64,2,64c1.104,0,2-0.896,2-1.999v-60
			C4,0.896,3.104,0,2,0z"/>
	</g>
</g>
<g>
</g>
<g>
</g>
<g>
</g>
<g>
</g>
<g>
</g>
<g>
</g>
<g>
</g>
<g>
</g>
<g>
</g>
<g>
</g>
<g>
</g>
<g>
</g>
<g>
</g>
<g>
</g>
<g>
</g>
</svg>
