<?xml version="1.0" encoding="iso-8859-1"?>
<!-- Generator: Adobe Illustrator 16.0.0, SVG Export Plug-In . SVG Version: 6.00 Build 0)  -->
<!DOCTYPE svg PUBLIC "-//W3C//DTD SVG 1.1//EN" "http://www.w3.org/Graphics/SVG/1.1/DTD/svg11.dtd">
<svg version="1.1" id="Layer_1" xmlns="http://www.w3.org/2000/svg" xmlns:xlink="http://www.w3.org/1999/xlink" x="0px" y="0px"
	 width="56px" height="64px" viewBox="0 0 56 64" style="enable-background:new 0 0 56 64;" xml:space="preserve">
<g id="Objects_12_">
	<g>
		<path style="fill-rule:evenodd;clip-rule:evenodd;fill:#CCCCCC;" d="M14,30.001h28c2.209,0,4-1.791,4-4.001V8
			c0-2.209-1.791-3.999-4-3.999H14c-2.209,0-4,1.79-4,3.999v18C10,28.21,11.791,30.001,14,30.001z M52,34H4
			c-2.209,0-4,1.791-4,4.001V56c0,2.209,1.791,4,4,4h48c2.209,0,4-1.791,4-4V38.001C56,35.791,54.209,34,52,34z"/>
	</g>
</g>
<g id="Container_26_">
	<g>
		<path style="fill:#FFFFFF;" d="M50,38.001H6c-1.104,0-2,0.895-2,1.999v14c0,1.104,0.896,2.001,2,2.001h44c1.104,0,2-0.896,2-2.001
			V40C52,38.896,51.104,38.001,50,38.001z"/>
	</g>
</g>
<g id="Line_15_">
	<g>
		<path style="fill:#ED7161;" d="M28,0c-1.104,0-2,0.896-2,2.001v60C26,63.104,26.896,64,28,64s2-0.896,2-1.999v-60
			C30,0.896,29.104,0,28,0z"/>
	</g>
</g>
<g>
</g>
<g>
</g>
<g>
</g>
<g>
</g>
<g>
</g>
<g>
</g>
<g>
</g>
<g>
</g>
<g>
</g>
<g>
</g>
<g>
</g>
<g>
</g>
<g>
</g>
<g>
</g>
<g>
</g>
</svg>
