<?xml version="1.0" encoding="iso-8859-1"?>
<!-- Generator: Adobe Illustrator 16.0.0, SVG Export Plug-In . SVG Version: 6.00 Build 0)  -->
<!DOCTYPE svg PUBLIC "-//W3C//DTD SVG 1.1//EN" "http://www.w3.org/Graphics/SVG/1.1/DTD/svg11.dtd">
<svg version="1.1" id="Layer_1" xmlns="http://www.w3.org/2000/svg" xmlns:xlink="http://www.w3.org/1999/xlink" x="0px" y="0px"
	 width="64px" height="64px" viewBox="0 0 64 64" style="enable-background:new 0 0 64 64;" xml:space="preserve">
<g id="Objects_10_">
	<g>
		<path style="fill-rule:evenodd;clip-rule:evenodd;fill:#CCCCCC;" d="M56,8H38c-2.209,0-4,1.791-4,4.001V40
			c0,2.209,1.791,4.001,4,4.001h18c2.209,0,4-1.792,4-4.001V12.001C60,9.791,58.209,8,56,8z M26,8H8c-2.209,0-4,1.791-4,4.001V60
			c0,2.21,1.791,4,4,4h18c2.209,0,4-1.79,4-4V12.001C30,9.791,28.209,8,26,8z"/>
	</g>
</g>
<g id="Container_24_">
	<g>
		<path style="fill:#FFFFFF;" d="M24,12.001H10c-1.104,0-2,0.895-2,2V58c0,1.104,0.896,2.001,2,2.001h14c1.104,0,2-0.896,2-2.001
			V14.001C26,12.896,25.104,12.001,24,12.001z"/>
	</g>
</g>
<g id="Line_13_">
	<g>
		<path style="fill:#ED7161;" d="M62,0H2C0.896,0,0,0.896,0,2.001c0,1.104,0.896,2,2,2h60c1.104,0,2-0.896,2-2
			C64,0.896,63.104,0,62,0z"/>
	</g>
</g>
<g>
</g>
<g>
</g>
<g>
</g>
<g>
</g>
<g>
</g>
<g>
</g>
<g>
</g>
<g>
</g>
<g>
</g>
<g>
</g>
<g>
</g>
<g>
</g>
<g>
</g>
<g>
</g>
<g>
</g>
</svg>
