<?xml version="1.0" encoding="iso-8859-1"?>
<!-- Generator: Adobe Illustrator 16.0.0, SVG Export Plug-In . SVG Version: 6.00 Build 0)  -->
<!DOCTYPE svg PUBLIC "-//W3C//DTD SVG 1.1//EN" "http://www.w3.org/Graphics/SVG/1.1/DTD/svg11.dtd">
<svg version="1.1" id="Layer_1" xmlns="http://www.w3.org/2000/svg" xmlns:xlink="http://www.w3.org/1999/xlink" x="0px" y="0px"
	 width="64px" height="55.999px" viewBox="0 0 64 55.999" style="enable-background:new 0 0 64 55.999;" xml:space="preserve">
<g id="Objects_9_">
	<g>
		<path style="fill-rule:evenodd;clip-rule:evenodd;fill:#CCCCCC;" d="M56,10H38c-2.209,0-4,1.79-4,3.999V42c0,2.208,1.791,4,4,4h18
			c2.209,0,4-1.792,4-4V13.999C60,11.79,58.209,10,56,10z M26,0H8C5.791,0,4,1.79,4,3.999v48c0,2.209,1.791,4,4,4h18
			c2.209,0,4-1.791,4-4v-48C30,1.79,28.209,0,26,0z"/>
	</g>
</g>
<g id="Container_23_">
	<g>
		<path style="fill:#FFFFFF;" d="M24,4H10C8.896,4,8,4.895,8,6v43.999C8,51.104,8.896,52,10,52h14c1.104,0,2-0.896,2-2.001V6
			C26,4.895,25.104,4,24,4z"/>
	</g>
</g>
<g id="Line_12_">
	<g>
		<path style="fill:#ED7161;" d="M62,26H2c-1.104,0-2,0.895-2,1.999s0.896,2,2,2h60c1.104,0,2-0.896,2-2S63.104,26,62,26z"/>
	</g>
</g>
<g>
</g>
<g>
</g>
<g>
</g>
<g>
</g>
<g>
</g>
<g>
</g>
<g>
</g>
<g>
</g>
<g>
</g>
<g>
</g>
<g>
</g>
<g>
</g>
<g>
</g>
<g>
</g>
<g>
</g>
</svg>
