<?xml version="1.0" encoding="iso-8859-1"?>
<!-- Generator: Adobe Illustrator 16.0.0, SVG Export Plug-In . SVG Version: 6.00 Build 0)  -->
<!DOCTYPE svg PUBLIC "-//W3C//DTD SVG 1.1//EN" "http://www.w3.org/Graphics/SVG/1.1/DTD/svg11.dtd">
<svg version="1.1" id="Layer_1" xmlns="http://www.w3.org/2000/svg" xmlns:xlink="http://www.w3.org/1999/xlink" x="0px" y="0px"
	 width="64px" height="36.001px" viewBox="0 0 64 36.001" style="enable-background:new 0 0 64 36.001;" xml:space="preserve">
<g id="A_11_">
	<g>
		<path style="fill-rule:evenodd;clip-rule:evenodd;fill:#CCCCCC;" d="M62,32.001c-1,0-1.642-1.067-2-2l-10-26
			C49.207,1.938,48.209,0,46,0s-3.207,1.938-4,4.001l-10,26c-0.359,0.933-1,2-2,2c-1.104,0-2,0.895-2,2c0,1.104,0.896,2,2,2h8
			c1.104,0,2-0.896,2-2c0-1.105-0.896-2-2-2c-2,0-2.359-1.067-2-2l0.769-2h14.462l0.769,2c0.359,0.933,0,2-2,2c-1.104,0-2,0.895-2,2
			c0,1.104,0.896,2,2,2h12c1.104,0,2-0.896,2-2C64,32.896,63.104,32.001,62,32.001z M38.308,24.001L44,9.2l5.692,14.801H38.308z"/>
	</g>
</g>
<g id="A_12_">
	<g>
		<path style="fill-rule:evenodd;clip-rule:evenodd;fill:#ED7161;" d="M34,32.001c-1,0-1.642-1.067-2-2l-10-26
			C21.207,1.938,20.209,0,18,0s-3.207,1.938-4,4.001l-10,26c-0.359,0.933-1,2-2,2c-1.104,0-2,0.895-2,2c0,1.104,0.896,2,2,2h8
			c1.104,0,2-0.896,2-2c0-1.105-0.896-2-2-2c-2,0-2.359-1.067-2-2l0.769-2h14.462l0.769,2c0.358,0.933,0,2-2,2c-1.104,0-2,0.895-2,2
			c0,1.104,0.896,2,2,2h12c1.104,0,2-0.896,2-2C36,32.896,35.104,32.001,34,32.001z M10.308,24.001L16,9.2l5.692,14.801H10.308z"/>
	</g>
</g>
<g>
</g>
<g>
</g>
<g>
</g>
<g>
</g>
<g>
</g>
<g>
</g>
<g>
</g>
<g>
</g>
<g>
</g>
<g>
</g>
<g>
</g>
<g>
</g>
<g>
</g>
<g>
</g>
<g>
</g>
</svg>
