<?xml version="1.0" encoding="iso-8859-1"?>
<!-- Generator: Adobe Illustrator 16.0.0, SVG Export Plug-In . SVG Version: 6.00 Build 0)  -->
<!DOCTYPE svg PUBLIC "-//W3C//DTD SVG 1.1//EN" "http://www.w3.org/Graphics/SVG/1.1/DTD/svg11.dtd">
<svg version="1.1" id="Layer_1" xmlns="http://www.w3.org/2000/svg" xmlns:xlink="http://www.w3.org/1999/xlink" x="0px" y="0px"
	 width="68px" height="68px" viewBox="0 0 68 68" style="enable-background:new 0 0 68 68;" xml:space="preserve">
<g id="Path">
	<g>
		<path style="fill-rule:evenodd;clip-rule:evenodd;fill:#88C057;" d="M42.032,15.774C37.905,13.378,33.115,12,28,12
			c-5.301,0-10.258,1.474-14.483,4.033H4.032v11.935h11.935v-8.73C19.505,17.183,23.613,16,28,16c5.241,0,10.085,1.685,14.032,4.535
			V15.774z M12.121,24.121H7.878v-4.242h4.243V24.121z M52.226,25.968h-4.761C50.315,29.915,52,34.759,52,40
			c0,4.386-1.183,8.494-3.237,12.032h-8.73v11.936h11.935v-9.485C54.526,50.257,56,45.301,56,40
			C56,34.885,54.622,30.095,52.226,25.968z M47.997,59.996h-3.993v-3.992h3.993V59.996z"/>
	</g>
</g>
<g id="Anchor_1_">
	<g>
		<path style="fill-rule:evenodd;clip-rule:evenodd;fill:#999999;" d="M64,32.001c-0.378,0-0.736,0.069-1.082,0.167l-8.951-8.95
			v-9.186h-9.186l-8.949-8.949C35.931,4.736,36,4.378,36,4c0-2.209-1.791-4-4-4c-2.209,0-4,1.791-4,4s1.791,4,4,4
			c0.35,0,0.683-0.059,1.007-0.144l9.025,9.025v9.086h9.086l9.025,9.025C60.059,35.316,60,35.65,60,36c0,2.21,1.791,4,4,4
			s4-1.79,4-4C68,33.791,66.209,32.001,64,32.001z"/>
	</g>
</g>
<g>
</g>
<g>
</g>
<g>
</g>
<g>
</g>
<g>
</g>
<g>
</g>
<g>
</g>
<g>
</g>
<g>
</g>
<g>
</g>
<g>
</g>
<g>
</g>
<g>
</g>
<g>
</g>
<g>
</g>
</svg>
