<?xml version="1.0" encoding="iso-8859-1"?>
<!-- Generator: Adobe Illustrator 16.0.0, SVG Export Plug-In . SVG Version: 6.00 Build 0)  -->
<!DOCTYPE svg PUBLIC "-//W3C//DTD SVG 1.1//EN" "http://www.w3.org/Graphics/SVG/1.1/DTD/svg11.dtd">
<svg version="1.1" id="Layer_1" xmlns="http://www.w3.org/2000/svg" xmlns:xlink="http://www.w3.org/1999/xlink" x="0px" y="0px"
	 width="64.001px" height="64px" viewBox="0 0 64.001 64" style="enable-background:new 0 0 64.001 64;" xml:space="preserve">
<g id="Anchor">
	<g>
		<path style="fill-rule:evenodd;clip-rule:evenodd;fill:#666666;" d="M40.033,8.001c0-4.419-3.582-8.001-8-8.001s-8,3.582-8,8.001
			c0,4.418,3.582,7.999,8,7.999S40.033,12.419,40.033,8.001z M32.033,12c-2.209,0-4-1.79-4-3.999c0-2.21,1.791-4.001,4-4.001
			s4,1.791,4,4.001C36.033,10.21,34.242,12,32.033,12z M63.389,32.452l-3.91-3.877c-0.816-0.812-2.14-0.812-2.956,0l-3.91,3.877
			c-0.816,0.813-0.816,2.128,0,2.939c0.815,0.812,2.139,0.812,2.955,0l0.222-0.22c-1.415,9.9-9.471,15.488-19.77,16.611L34.033,20h8
			c1.104,0,2-0.896,2-2s-0.896-2-2-2h-10h-10c-1.104,0-2,0.896-2,2s0.896,2,2,2h8l-1.986,31.783
			C17.762,50.661,9.697,45.1,8.266,35.226l0.168,0.166c0.816,0.812,2.139,0.812,2.955,0s0.816-2.127,0-2.939l-3.91-3.877
			c-0.816-0.812-2.14-0.812-2.956,0l-3.911,3.877c-0.815,0.813-0.815,2.128,0,2.939c0.816,0.812,2.14,0.812,2.956,0l0.604-0.6
			C5.442,47.62,15.371,57.899,28.033,59.711V60c0,1.104,2.896,4,4,4s4-2.896,4-4v-0.289c12.644-1.809,22.559-12.062,23.853-24.862
			l0.548,0.543c0.816,0.812,2.139,0.812,2.955,0S64.205,33.265,63.389,32.452z"/>
	</g>
</g>
<g>
</g>
<g>
</g>
<g>
</g>
<g>
</g>
<g>
</g>
<g>
</g>
<g>
</g>
<g>
</g>
<g>
</g>
<g>
</g>
<g>
</g>
<g>
</g>
<g>
</g>
<g>
</g>
<g>
</g>
</svg>
