<?xml version="1.0" encoding="iso-8859-1"?>
<!-- Generator: Adobe Illustrator 16.0.0, SVG Export Plug-In . SVG Version: 6.00 Build 0)  -->
<!DOCTYPE svg PUBLIC "-//W3C//DTD SVG 1.1//EN" "http://www.w3.org/Graphics/SVG/1.1/DTD/svg11.dtd">
<svg version="1.1" id="Layer_1" xmlns="http://www.w3.org/2000/svg" xmlns:xlink="http://www.w3.org/1999/xlink" x="0px" y="0px"
	 width="64px" height="64px" viewBox="0 0 64 64" style="enable-background:new 0 0 64 64;" xml:space="preserve">
<g id="Artboard">
	<g>
		<path style="fill:#666666;" d="M48,16H16c-2.209,0-4,1.79-4,4v24c0,2.209,1.791,4,4,4h32c2.209,0,4-1.791,4-4V20
			C52,17.79,50.209,16,48,16z"/>
	</g>
</g>
<g id="Container_6_">
	<g>
		<path style="fill:#FFFFFF;" d="M46,20H18c-1.104,0-2,0.896-2,2v20c0,1.104,0.896,2,2,2h28c1.104,0,2-0.896,2-2V22
			C48,20.896,47.104,20,46,20z"/>
	</g>
</g>
<g id="Guides">
	<g>
		<path style="fill-rule:evenodd;clip-rule:evenodd;fill:#CCCCCC;" d="M14,0c-1.104,0-2,0.895-2,2v8c0,1.104,0.896,2,2,2
			s2-0.896,2-2V2C16,0.895,15.104,0,14,0z M50,0c-1.104,0-2,0.895-2,2v8c0,1.104,0.896,2,2,2s2-0.896,2-2V2C52,0.895,51.104,0,50,0z
			 M14,52c-1.104,0-2,0.895-2,2v7.999C12,63.104,12.896,64,14,64s2-0.896,2-2.001V54C16,52.895,15.104,52,14,52z M50,52
			c-1.104,0-2,0.895-2,2v7.999C48,63.104,48.896,64,50,64s2-0.896,2-2.001V54C52,52.895,51.104,52,50,52z M58,20h4
			c1.104,0,2-0.896,2-2c0-1.105-0.896-2-2-2h-4c-1.104,0-2,0.895-2,2C56,19.104,56.896,20,58,20z M62,44h-4c-1.104,0-2,0.895-2,2
			c0,1.104,0.896,2,2,2h4c1.104,0,2-0.896,2-2C64,44.895,63.104,44,62,44z M6,16H2c-1.104,0-2,0.895-2,2c0,1.104,0.896,2,2,2h4
			c1.104,0,2-0.896,2-2C8,16.895,7.104,16,6,16z M6,44H2c-1.104,0-2,0.895-2,2c0,1.104,0.896,2,2,2h4c1.104,0,2-0.896,2-2
			C8,44.895,7.104,44,6,44z"/>
	</g>
</g>
<g>
</g>
<g>
</g>
<g>
</g>
<g>
</g>
<g>
</g>
<g>
</g>
<g>
</g>
<g>
</g>
<g>
</g>
<g>
</g>
<g>
</g>
<g>
</g>
<g>
</g>
<g>
</g>
<g>
</g>
</svg>
