<?xml version="1.0" encoding="iso-8859-1"?>
<!-- Generator: Adobe Illustrator 16.0.0, SVG Export Plug-In . SVG Version: 6.00 Build 0)  -->
<!DOCTYPE svg PUBLIC "-//W3C//DTD SVG 1.1//EN" "http://www.w3.org/Graphics/SVG/1.1/DTD/svg11.dtd">
<svg version="1.1" id="Layer_1" xmlns="http://www.w3.org/2000/svg" xmlns:xlink="http://www.w3.org/1999/xlink" x="0px" y="0px"
	 width="44.046px" height="60.014px" viewBox="0 0 44.046 60.014" style="enable-background:new 0 0 44.046 60.014;"
	 xml:space="preserve">
<g id="Blur">
	<g>
		<path style="fill-rule:evenodd;clip-rule:evenodd;fill:#88C057;" d="M37.406,22.328C35.699,20.517,21.622,5.601,16.012,0
			c0,12.417-8.227,21.131-9.439,22.349C2.513,26.334-0.005,31.878,0,38.015c0.009,12.141,9.876,21.99,22.039,21.999
			c12.162,0.009,22.016-9.826,22.007-21.968C44.041,31.887,41.497,26.321,37.406,22.328z"/>
	</g>
</g>
<g id="Highlight_1_">
	<g>
		<path style="fill-rule:evenodd;clip-rule:evenodd;fill:#88C057;" d="M12.117,28.14c0.783-0.783,0.783-2.05,0-2.832
			c-0.783-0.781-2.053-0.781-2.836,0c-0.111,0.112-0.203,0.235-0.283,0.364c-3.201,3.359-4.854,7.64-4.959,11.961
			c-0.028,0.134-0.045,0.273-0.045,0.417c0,1.105,0.897,2.002,2.006,2.002c1.107,0,2.005-0.896,2.005-2.002
			c0-0.011-0.003-0.021-0.003-0.033c0.005-3.537,1.345-7.071,4.014-9.793C12.049,28.193,12.086,28.171,12.117,28.14z"/>
	</g>
</g>
<g>
</g>
<g>
</g>
<g>
</g>
<g>
</g>
<g>
</g>
<g>
</g>
<g>
</g>
<g>
</g>
<g>
</g>
<g>
</g>
<g>
</g>
<g>
</g>
<g>
</g>
<g>
</g>
<g>
</g>
</svg>
