<?xml version="1.0" encoding="iso-8859-1"?>
<!-- Generator: Adobe Illustrator 16.0.0, SVG Export Plug-In . SVG Version: 6.00 Build 0)  -->
<!DOCTYPE svg PUBLIC "-//W3C//DTD SVG 1.1//EN" "http://www.w3.org/Graphics/SVG/1.1/DTD/svg11.dtd">
<svg version="1.1" id="Layer_1" xmlns="http://www.w3.org/2000/svg" xmlns:xlink="http://www.w3.org/1999/xlink" x="0px" y="0px"
	 width="59.999px" height="64px" viewBox="0 0 59.999 64" style="enable-background:new 0 0 59.999 64;" xml:space="preserve">
<g id="B">
	<g>
		<path style="fill-rule:evenodd;clip-rule:evenodd;fill:#ED7161;" d="M48.805,29.347c4.333-2.862,7.194-7.77,7.194-13.35
			C55.999,7.162,48.836,0,40,0c-0.007,0-0.014,0.001-0.021,0.001H30H18H2C0.896,0.001,0,0.896,0,2s0.896,2.001,2,2.001h2.02
			c4.409,0.011,7.98,3.588,7.98,8V52c0,4.419-3.582,8-8,8H2c-1.104,0-2,0.896-2,2.001C0,63.104,0.896,64,2,64h10h18h12
			c9.94,0,17.999-8.059,17.999-17.997C59.999,38.473,55.37,32.031,48.805,29.347z M24,4.001h5.462H30h1.738h0.609
			c6.465,0.186,11.652,5.479,11.652,11.994c0,6.589-5.3,11.932-11.865,12.005h-0.237h-2.427H24V4.001z M34,59.998V60h-3.257H30h-6
			V32h6.756h2.459H34v-0.027c7.723,0.012,13.98,6.279,13.98,14.013S41.723,59.986,34,59.998z"/>
	</g>
</g>
<g>
</g>
<g>
</g>
<g>
</g>
<g>
</g>
<g>
</g>
<g>
</g>
<g>
</g>
<g>
</g>
<g>
</g>
<g>
</g>
<g>
</g>
<g>
</g>
<g>
</g>
<g>
</g>
<g>
</g>
</svg>
