<?xml version="1.0" encoding="iso-8859-1"?>
<!-- Generator: Adobe Illustrator 16.0.0, SVG Export Plug-In . SVG Version: 6.00 Build 0)  -->
<!DOCTYPE svg PUBLIC "-//W3C//DTD SVG 1.1//EN" "http://www.w3.org/Graphics/SVG/1.1/DTD/svg11.dtd">
<svg version="1.1" id="Layer_1" xmlns="http://www.w3.org/2000/svg" xmlns:xlink="http://www.w3.org/1999/xlink" x="0px" y="0px"
	 width="67.988px" height="67.988px" viewBox="0 0 67.988 67.988" style="enable-background:new 0 0 67.988 67.988;"
	 xml:space="preserve">
<g id="Border">
	<g>
		<path style="fill-rule:evenodd;clip-rule:evenodd;fill:#D8D8D8;" d="M34.025,22.025c-0.977,0-1.787,0.7-1.962,1.626l3.962,3.962
			v-3.588C36.025,22.92,35.13,22.025,34.025,22.025z M46.025,34.025c0-1.104-0.896-2-2-2h-3.588l3.962,3.962
			C45.325,35.813,46.025,35.002,46.025,34.025z M32.025,56.024c0,1.105,0.896,2.001,2,2.001s2-0.896,2-2.001v-3.999
			c0-1.105-0.896-2-2-2s-2,0.895-2,2V56.024z M64.025,18.025c-1.104,0-2,0.895-2,2v4c0,1.104,0.896,2,2,2s2-0.896,2-2v-4
			C66.025,18.92,65.13,18.025,64.025,18.025z M64.025,30.025c-1.104,0-2,0.896-2,2v4c0,1.104,0.896,2,2,2s2-0.896,2-2v-4
			C66.025,30.921,65.13,30.025,64.025,30.025z M32.025,44.025c0,1.104,0.896,2,2,2c0.977,0,1.787-0.701,1.962-1.627l-3.962-3.962
			V44.025z M36.025,12.025c0-1.105-0.896-2-2-2s-2,0.895-2,2v4c0,1.104,0.896,2,2,2s2-0.896,2-2V12.025z M4.025,38.025
			c1.104,0,2-0.896,2-2v-4c0-1.104-0.896-2-2-2s-2,0.896-2,2v4C2.025,37.129,2.921,38.025,4.025,38.025z M4.025,26.025
			c1.104,0,2-0.896,2-2v-4c0-1.105-0.896-2-2-2s-2,0.895-2,2v4C2.025,25.129,2.921,26.025,4.025,26.025z M4.025,50.025
			c1.104,0,2-0.896,2-2v-4c0-1.105-0.896-2-2-2s-2,0.895-2,2v4C2.025,49.13,2.921,50.025,4.025,50.025z M4.025,14.025
			c0.447,0,0.855-0.152,1.189-0.4l-3.189-3.188v1.589C2.025,13.13,2.921,14.025,4.025,14.025z M22.025,34.025c0,1.104,0.896,2,2,2
			h3.589l-3.962-3.962C22.727,32.238,22.025,33.049,22.025,34.025z M64.025,42.025c-1.104,0-2,0.895-2,2v4c0,1.104,0.896,2,2,2
			s2-0.896,2-2v-4C66.025,42.92,65.13,42.025,64.025,42.025z M36.025,62.025h-4c-1.104,0-2,0.895-2,2c0,1.104,0.896,2,2,2h4
			c1.104,0,2-0.896,2-2C38.025,62.92,37.13,62.025,36.025,62.025z M64.025,54.025c-0.447,0-0.855,0.151-1.188,0.399l3.188,3.188
			v-1.589C66.025,54.92,65.13,54.025,64.025,54.025z M16.025,32.025h-4c-1.104,0-2,0.896-2,2s0.896,2,2,2h4c1.104,0,2-0.896,2-2
			S17.13,32.025,16.025,32.025z M48.025,62.025h-4c-1.104,0-2,0.895-2,2c0,1.104,0.896,2,2,2h4c1.104,0,2-0.896,2-2
			C50.025,62.92,49.13,62.025,48.025,62.025z M54.025,64.025c0,1.104,0.896,2,2,2h1.589l-3.189-3.189
			C54.178,63.169,54.025,63.578,54.025,64.025z M12.025,62.025c0.019,0-4,0-4,0c-1.104,0-2-0.896-2-2v-4.001
			c0-1.104-0.896-1.999-2-1.999s-2,0.895-2,1.999v6.001c0,2.209,1.791,4,4,4h6c1.104,0,2-0.896,2-2
			C14.025,62.92,13.13,62.025,12.025,62.025z M24.025,62.025h-4c-1.104,0-2,0.895-2,2c0,1.104,0.896,2,2,2h4c1.104,0,2-0.896,2-2
			C26.025,62.92,25.13,62.025,24.025,62.025z M56.025,32.025h-4c-1.104,0-2,0.896-2,2s0.896,2,2,2h4c1.104,0,2-0.896,2-2
			S57.13,32.025,56.025,32.025z M62.025,2.024l-6,0.001c-1.104,0-2,0.895-2,2c0,1.104,0.896,2,2,2c-0.019,0,4,0,4,0
			c1.104,0,2,0.895,2,2v4c0,1.104,0.896,2,2,2s2-0.896,2-2v-6C66.025,3.815,64.234,2.024,62.025,2.024z M44.025,6.025h4
			c1.104,0,2-0.896,2-2c0-1.105-0.896-2-2-2h-4c-1.104,0-2,0.895-2,2C42.025,5.13,42.921,6.025,44.025,6.025z M36.025,2.025h-4
			c-1.104,0-2,0.895-2,2c0,1.104,0.896,2,2,2h4c1.104,0,2-0.896,2-2C38.025,2.92,37.13,2.025,36.025,2.025z M20.025,6.025h4
			c1.104,0,2-0.896,2-2c0-1.105-0.896-2-2-2h-4c-1.104,0-2,0.895-2,2C18.025,5.13,18.921,6.025,20.025,6.025z M14.025,4.025
			c0-1.105-0.896-2-2-2h-1.588l3.188,3.188C13.873,4.881,14.025,4.473,14.025,4.025z"/>
	</g>
</g>
<g id="Line_1_">
	<g>
		<path style="fill:#ED7161;" d="M65.408,62.605L5.382,2.579c-0.773-0.773-2.028-0.773-2.802,0c-0.773,0.774-0.773,2.028,0,2.802
			l60.026,60.026c0.774,0.774,2.028,0.774,2.802,0C66.182,64.634,66.182,63.379,65.408,62.605z"/>
	</g>
</g>
<g>
</g>
<g>
</g>
<g>
</g>
<g>
</g>
<g>
</g>
<g>
</g>
<g>
</g>
<g>
</g>
<g>
</g>
<g>
</g>
<g>
</g>
<g>
</g>
<g>
</g>
<g>
</g>
<g>
</g>
</svg>
