<?xml version="1.0" encoding="iso-8859-1"?>
<!-- Generator: Adobe Illustrator 16.0.0, SVG Export Plug-In . SVG Version: 6.00 Build 0)  -->
<!DOCTYPE svg PUBLIC "-//W3C//DTD SVG 1.1//EN" "http://www.w3.org/Graphics/SVG/1.1/DTD/svg11.dtd">
<svg version="1.1" id="Layer_1" xmlns="http://www.w3.org/2000/svg" xmlns:xlink="http://www.w3.org/1999/xlink" x="0px" y="0px"
	 width="64px" height="64px" viewBox="0 0 64 64" style="enable-background:new 0 0 64 64;" xml:space="preserve">
<g id="Grid_1_">
	<g>
		<path style="fill-rule:evenodd;clip-rule:evenodd;fill:#D8D8D8;" d="M32,48c-1.104,0-2,0.895-2,2v3.999C30,55.104,30.896,56,32,56
			s2-0.896,2-2.001V50C34,48.895,33.104,48,32,48z M32,36c-1.104,0-2,0.895-2,2v4c0,1.104,0.896,2,2,2s2-0.896,2-2v-4
			C34,36.895,33.104,36,32,36z M32,20c-1.104,0-2,0.895-2,2v3.999C30,27.104,30.896,28,32,28s2-0.896,2-2.001V22
			C34,20.895,33.104,20,32,20z M32,8c-1.104,0-2,0.895-2,2v4c0,1.104,0.896,2,2,2s2-0.896,2-2v-4C34,8.895,33.104,8,32,8z M14,30h-4
			c-1.104,0-2,0.896-2,2s0.896,2,2,2h4c1.104,0,2-0.896,2-2S15.104,30,14,30z M26,30h-4c-1.104,0-2,0.896-2,2s0.896,2,2,2h4
			c1.104,0,2-0.896,2-2S27.104,30,26,30z M42,30h-4c-1.104,0-2,0.896-2,2s0.896,2,2,2h4c1.104,0,2-0.896,2-2S43.104,30,42,30z
			 M54,30h-4c-1.104,0-2,0.896-2,2s0.896,2,2,2h4c1.104,0,2-0.896,2-2S55.104,30,54,30z"/>
	</g>
</g>
<g id="Border_3_">
	<g>
		<path style="fill-rule:evenodd;clip-rule:evenodd;fill:#666666;" d="M60,0H4C1.791,0,0,1.79,0,4v56c0,2.209,1.791,4,4,4h56
			c2.209,0,4-1.791,4-4V4C64,1.79,62.209,0,60,0z M60,57.999C60,59.104,59.104,60,58,60H6c-1.104,0-2-0.896-2-2.001V6
			c0-1.105,0.896-2,2-2h52c1.104,0,2,0.895,2,2V57.999z"/>
	</g>
</g>
<g>
</g>
<g>
</g>
<g>
</g>
<g>
</g>
<g>
</g>
<g>
</g>
<g>
</g>
<g>
</g>
<g>
</g>
<g>
</g>
<g>
</g>
<g>
</g>
<g>
</g>
<g>
</g>
<g>
</g>
</svg>
