<?xml version="1.0" encoding="iso-8859-1"?>
<!-- Generator: Adobe Illustrator 16.0.0, SVG Export Plug-In . SVG Version: 6.00 Build 0)  -->
<!DOCTYPE svg PUBLIC "-//W3C//DTD SVG 1.1//EN" "http://www.w3.org/Graphics/SVG/1.1/DTD/svg11.dtd">
<svg version="1.1" id="Layer_1" xmlns="http://www.w3.org/2000/svg" xmlns:xlink="http://www.w3.org/1999/xlink" x="0px" y="0px"
	 width="64.002px" height="64.002px" viewBox="0 0 64.002 64.002" style="enable-background:new 0 0 64.002 64.002;"
	 xml:space="preserve">
<g id="Grid_2_">
	<g>
		<path style="fill-rule:evenodd;clip-rule:evenodd;fill:#D8D8D8;" d="M46.001,60.002h-4c-1.104,0-2,0.895-2,2c0,1.104,0.896,2,2,2
			h4c1.104,0,2-0.896,2-2C48.001,60.896,47.105,60.002,46.001,60.002z M34.001,60.002h-4c-1.104,0-2,0.895-2,2c0,1.104,0.896,2,2,2
			h4c1.104,0,2-0.896,2-2C36.001,60.896,35.105,60.002,34.001,60.002z M22.001,60.002h-4c-1.104,0-2,0.895-2,2c0,1.104,0.896,2,2,2
			h4c1.104,0,2-0.896,2-2C24.001,60.896,23.105,60.002,22.001,60.002z M42.001,4.002h4c1.104,0,2-0.896,2-2c0-1.105-0.896-2-2-2h-4
			c-1.104,0-2,0.895-2,2C40.001,3.106,40.896,4.002,42.001,4.002z M30.001,4.002h4c1.104,0,2-0.896,2-2c0-1.105-0.896-2-2-2h-4
			c-1.104,0-2,0.895-2,2C28.001,3.106,28.896,4.002,30.001,4.002z M18.001,4.002h4c1.104,0,2-0.896,2-2c0-1.105-0.896-2-2-2h-4
			c-1.104,0-2,0.895-2,2C16.001,3.106,16.896,4.002,18.001,4.002z M2.001,40.002c-1.104,0-2,0.895-2,2v4
			c0,1.104,0.896,1.999,2,1.999s2-0.896,2-1.999v-4C4.001,40.896,3.105,40.002,2.001,40.002z M4.001,30.002c0-1.105-0.896-2-2-2
			s-2,0.895-2,2v4c0,1.104,0.896,2,2,2s2-0.896,2-2V30.002z M4.001,18.001c0-1.104-0.896-1.999-2-1.999s-2,0.895-2,1.999v4.001
			c0,1.104,0.896,2,2,2s2-0.896,2-2V18.001z M62.001,40.002c-1.104,0-2,0.895-2,2v4c0,1.104,0.896,1.999,2,1.999s2-0.896,2-1.999v-4
			C64.001,40.896,63.105,40.002,62.001,40.002z M64.001,30.002c0-1.105-0.896-2-2-2s-2,0.895-2,2v4c0,1.104,0.896,2,2,2s2-0.896,2-2
			V30.002z M64.001,18.001c0-1.104-0.896-1.999-2-1.999s-2,0.895-2,1.999v4.001c0,1.104,0.896,2,2,2s2-0.896,2-2V18.001z
			 M10.001,60.002c0.019,0-4,0-4,0c-1.104,0-2-0.896-2-2v-4c0-1.104-0.896-2-2-2s-2,0.896-2,2v6c0,2.209,1.791,4,4,4h6
			c1.104,0,2-0.896,2-2C12.001,60.896,11.105,60.002,10.001,60.002z M54.001,4.002c-0.019,0,4,0,4,0c1.104,0,2,0.895,2,2v4
			c0,1.104,0.896,2,2,2s2-0.896,2-2v-6c0-2.21-1.791-4.002-4-4.002l-6,0.002c-1.104,0-2,0.895-2,2
			C52.001,3.106,52.896,4.002,54.001,4.002z M2.001,12.002c1.104,0,2-0.896,2-2c0,0.018,0-4,0-4c0-1.105,0.895-2,2-2h4
			c1.104,0,2-0.896,2-2c0-1.105-0.896-2-2-2h-6c-2.21,0-4.001,1.791-4.001,4l0.001,6C0.001,11.105,0.896,12.002,2.001,12.002z
			 M64.001,54.002c0-1.104-0.896-2-2-2s-2,0.896-2,2c0-0.02,0,4,0,4c0,1.104-0.896,2-2,2h-4c-1.104,0-2,0.895-2,2
			c0,1.104,0.896,2,2,2h6c2.209,0,4.001-1.791,4.001-4L64.001,54.002z M32.001,48.001c-1.104,0-2,0.896-2,2.001v4
			c0,1.104,0.896,1.999,2,1.999s2-0.896,2-1.999v-4C34.001,48.896,33.105,48.001,32.001,48.001z M34.001,38.002c0-1.105-0.896-2-2-2
			s-2,0.895-2,2v4c0,1.104,0.896,2,2,2s2-0.896,2-2V38.002z M34.001,22.002c0-1.105-0.896-2-2-2s-2,0.895-2,2v4c0,1.104,0.896,2,2,2
			s2-0.896,2-2V22.002z M34.001,10.002c0-1.105-0.896-2-2-2s-2,0.895-2,2v3.999c0,1.105,0.896,2.001,2,2.001s2-0.896,2-2.001V10.002
			z M14.001,30.002h-4c-1.104,0-2,0.895-2,2c0,1.104,0.896,2,2,2h4c1.104,0,2-0.896,2-2C16.001,30.896,15.105,30.002,14.001,30.002z
			 M26.001,30.002h-4c-1.104,0-2,0.895-2,2c0,1.104,0.896,2,2,2h4c1.104,0,2-0.896,2-2C28.001,30.896,27.105,30.002,26.001,30.002z
			 M44.001,32.002c0-1.105-0.896-2-2-2h-4c-1.104,0-2,0.895-2,2c0,1.104,0.896,2,2,2h4C43.105,34.002,44.001,33.105,44.001,32.002z
			 M56.001,32.002c0-1.105-0.896-2-2-2h-4c-1.104,0-2,0.895-2,2c0,1.104,0.896,2,2,2h4C55.105,34.002,56.001,33.105,56.001,32.002z"
			/>
	</g>
</g>
<g id="Border_4_">
	<g>
		<path style="fill:#666666;" d="M2.001,0.002c-1.104,0-2,0.895-2,2v60c0,1.104,0.896,2,2,2s2-0.896,2-2v-60
			C4.001,0.896,3.105,0.002,2.001,0.002z"/>
	</g>
</g>
<g>
</g>
<g>
</g>
<g>
</g>
<g>
</g>
<g>
</g>
<g>
</g>
<g>
</g>
<g>
</g>
<g>
</g>
<g>
</g>
<g>
</g>
<g>
</g>
<g>
</g>
<g>
</g>
<g>
</g>
</svg>
