<?xml version="1.0" encoding="iso-8859-1"?>
<!-- Generator: Adobe Illustrator 16.0.0, SVG Export Plug-In . SVG Version: 6.00 Build 0)  -->
<!DOCTYPE svg PUBLIC "-//W3C//DTD SVG 1.1//EN" "http://www.w3.org/Graphics/SVG/1.1/DTD/svg11.dtd">
<svg version="1.1" id="Layer_1" xmlns="http://www.w3.org/2000/svg" xmlns:xlink="http://www.w3.org/1999/xlink" x="0px" y="0px"
	 width="64px" height="64px" viewBox="0 0 64 64" style="enable-background:new 0 0 64 64;" xml:space="preserve">
<g id="Border_1_">
	<g>
		<path style="fill-rule:evenodd;clip-rule:evenodd;fill:#666666;" d="M60,48H4c-2.209,0-4,1.791-4,4v8c0,2.209,1.791,4,4,4h56
			c2.209,0,4-1.791,4-4v-8C64,49.791,62.209,48,60,48z M60,28H4c-2.209,0-4,1.791-4,4v4c0,2.209,1.791,4,4,4h56c2.209,0,4-1.791,4-4
			v-4C64,29.791,62.209,28,60,28z M60,12H4c-2.209,0-4,1.79-4,4c0,2.209,1.791,4,4,4h56c2.209,0,4-1.791,4-4
			C64,13.79,62.209,12,60,12z M2,4h60c1.104,0,2-0.896,2-2c0-1.105-0.896-2-2-2H2C0.896,0,0,0.895,0,2C0,3.104,0.896,4,2,4z"/>
	</g>
</g>
<g>
</g>
<g>
</g>
<g>
</g>
<g>
</g>
<g>
</g>
<g>
</g>
<g>
</g>
<g>
</g>
<g>
</g>
<g>
</g>
<g>
</g>
<g>
</g>
<g>
</g>
<g>
</g>
<g>
</g>
</svg>
