<?xml version="1.0" encoding="iso-8859-1"?>
<!-- Generator: Adobe Illustrator 16.0.0, SVG Export Plug-In . SVG Version: 6.00 Build 0)  -->
<!DOCTYPE svg PUBLIC "-//W3C//DTD SVG 1.1//EN" "http://www.w3.org/Graphics/SVG/1.1/DTD/svg11.dtd">
<svg version="1.1" id="Layer_1" xmlns="http://www.w3.org/2000/svg" xmlns:xlink="http://www.w3.org/1999/xlink" x="0px" y="0px"
	 width="64.002px" height="64.001px" viewBox="0 0 64.002 64.001" style="enable-background:new 0 0 64.002 64.001;"
	 xml:space="preserve">
<g id="Grid">
	<g>
		<path style="fill-rule:evenodd;clip-rule:evenodd;fill:#D8D8D8;" d="M46.001,60.001h-4c-1.104,0-2,0.895-2,2c0,1.104,0.896,2,2,2
			h4c1.104,0,2-0.896,2-2C48.001,60.896,47.105,60.001,46.001,60.001z M34.001,60.001h-4c-1.104,0-2,0.895-2,2c0,1.104,0.896,2,2,2
			h4c1.104,0,2-0.896,2-2C36.001,60.896,35.105,60.001,34.001,60.001z M22.001,60.001h-4c-1.104,0-2,0.895-2,2c0,1.104,0.896,2,2,2
			h4c1.104,0,2-0.896,2-2C24.001,60.896,23.105,60.001,22.001,60.001z M46.001,0.001h-4c-1.104,0-2,0.895-2,2c0,1.104,0.896,2,2,2h4
			c1.104,0,2-0.896,2-2C48.001,0.896,47.105,0.001,46.001,0.001z M34.001,0.001h-4c-1.104,0-2,0.895-2,2c0,1.104,0.896,2,2,2h4
			c1.104,0,2-0.896,2-2C36.001,0.896,35.105,0.001,34.001,0.001z M22.001,0.001h-4c-1.104,0-2,0.895-2,2c0,1.104,0.896,2,2,2h4
			c1.104,0,2-0.896,2-2C24.001,0.896,23.105,0.001,22.001,0.001z M0.001,46.001c0,1.104,0.896,2,2,2s2-0.896,2-2v-4
			c0-1.105-0.896-2-2-2s-2,0.895-2,2V46.001z M0.001,34.001c0,1.104,0.896,2,2,2s2-0.896,2-2v-4c0-1.104-0.896-2-2-2s-2,0.896-2,2
			V34.001z M2.001,24.001c1.104,0,2-0.896,2-2v-4c0-1.105-0.896-2-2-2s-2,0.895-2,2v4C0.001,23.104,0.896,24.001,2.001,24.001z
			 M62.001,40.001c-1.104,0-2,0.895-2,2v4c0,1.104,0.896,2,2,2s2-0.896,2-2v-4C64.001,40.896,63.105,40.001,62.001,40.001z
			 M64.001,30.001c0-1.104-0.896-2-2-2s-2,0.896-2,2v4c0,1.104,0.896,2,2,2s2-0.896,2-2V30.001z M64.001,18.001c0-1.105-0.896-2-2-2
			s-2,0.895-2,2v4c0,1.104,0.896,2,2,2s2-0.896,2-2V18.001z M10.001,60.001c0.019,0-4,0-4,0c-1.104,0-2-0.896-2-2V54
			c0-1.104-0.896-1.999-2-1.999s-2,0.895-2,1.999v6.001c0,2.209,1.791,4,4,4h6c1.104,0,2-0.896,2-2
			C12.001,60.896,11.105,60.001,10.001,60.001z M54.001,4.001c-0.019,0,4,0,4,0c1.104,0,2,0.895,2,2v4c0,1.104,0.896,2,2,2
			s2-0.896,2-2v-6c0-2.21-1.791-4.001-4-4.001l-6,0.001c-1.104,0-2,0.895-2,2C52.001,3.105,52.896,4.001,54.001,4.001z
			 M10.001,0.001h-6c-2.21,0-4.001,1.79-4.001,4l0.001,6c0,1.104,0.896,2,2,2s2-0.896,2-2c0,0.018,0-4,0-4c0-1.105,0.895-2,2-2h4
			c1.104,0,2-0.896,2-2C12.001,0.896,11.105,0.001,10.001,0.001z M64.001,54c0-1.104-0.896-1.999-2-1.999s-2,0.895-2,1.999
			c0-0.019,0,4,0,4c0,1.104-0.895,2.001-2,2.001h-4c-1.104,0-2,0.895-2,2c0,1.104,0.896,2,2,2h6c2.209,0,4.001-1.791,4.001-4
			L64.001,54z"/>
	</g>
</g>
<g id="Border_2_">
	<g>
		<path style="fill-rule:evenodd;clip-rule:evenodd;fill:#666666;" d="M62.001,30.001h-28v-28c0-1.105-0.896-2-2-2s-2,0.895-2,2v28
			h-28c-1.104,0-2,0.896-2,2s0.896,2,2,2h28v28c0,1.104,0.896,2,2,2s2-0.896,2-2v-28h28c1.104,0,2-0.896,2-2
			S63.105,30.001,62.001,30.001z"/>
	</g>
</g>
<g>
</g>
<g>
</g>
<g>
</g>
<g>
</g>
<g>
</g>
<g>
</g>
<g>
</g>
<g>
</g>
<g>
</g>
<g>
</g>
<g>
</g>
<g>
</g>
<g>
</g>
<g>
</g>
<g>
</g>
</svg>
