<?xml version="1.0" encoding="iso-8859-1"?>
<!-- Generator: Adobe Illustrator 16.0.0, SVG Export Plug-In . SVG Version: 6.00 Build 0)  -->
<!DOCTYPE svg PUBLIC "-//W3C//DTD SVG 1.1//EN" "http://www.w3.org/Graphics/SVG/1.1/DTD/svg11.dtd">
<svg version="1.1" id="Layer_1" xmlns="http://www.w3.org/2000/svg" xmlns:xlink="http://www.w3.org/1999/xlink" x="0px" y="0px"
	 width="64.002px" height="64.001px" viewBox="0 0 64.002 64.001" style="enable-background:new 0 0 64.002 64.001;"
	 xml:space="preserve">
<g id="Grid_4_">
	<g>
		<path style="fill-rule:evenodd;clip-rule:evenodd;fill:#D8D8D8;" d="M18.001,4.001h4c1.104,0,2-0.896,2-2c0-1.105-0.896-2-2-2h-4
			c-1.104,0-2,0.895-2,2C16.001,3.105,16.896,4.001,18.001,4.001z M30.001,4.001h4c1.104,0,2-0.896,2-2c0-1.105-0.896-2-2-2h-4
			c-1.104,0-2,0.895-2,2C28.001,3.105,28.896,4.001,30.001,4.001z M42.001,4.001h4c1.104,0,2-0.896,2-2c0-1.105-0.896-2-2-2h-4
			c-1.104,0-2,0.895-2,2C40.001,3.105,40.896,4.001,42.001,4.001z M22.001,60.001h-4c-1.104,0-2,0.895-2,2c0,1.104,0.896,2,2,2h4
			c1.104,0,2-0.896,2-2C24.001,60.896,23.105,60.001,22.001,60.001z M34.001,60.001h-4c-1.104,0-2,0.895-2,2c0,1.104,0.896,2,2,2h4
			c1.104,0,2-0.896,2-2C36.001,60.896,35.105,60.001,34.001,60.001z M46.001,60.001h-4c-1.104,0-2,0.895-2,2c0,1.104,0.896,2,2,2h4
			c1.104,0,2-0.896,2-2C48.001,60.896,47.105,60.001,46.001,60.001z M64.001,18.001c0-1.105-0.896-2-2-2s-2,0.895-2,2v4
			c0,1.104,0.896,2,2,2s2-0.896,2-2V18.001z M64.001,30.001c0-1.104-0.896-2-2-2s-2,0.896-2,2v4c0,1.104,0.896,2,2,2s2-0.896,2-2
			V30.001z M62.001,40.001c-1.104,0-2,0.895-2,2v4c0,1.104,0.896,2,2,2s2-0.896,2-2v-4C64.001,40.896,63.105,40.001,62.001,40.001z
			 M4.001,18.001c0-1.105-0.896-2-2-2s-2,0.895-2,2v4c0,1.104,0.896,2,2,2s2-0.896,2-2V18.001z M4.001,30.001c0-1.104-0.896-2-2-2
			s-2,0.896-2,2v4c0,1.104,0.896,2,2,2s2-0.896,2-2V30.001z M2.001,40.001c-1.104,0-2,0.895-2,2v4c0,1.104,0.896,2,2,2s2-0.896,2-2
			v-4C4.001,40.896,3.105,40.001,2.001,40.001z M54.001,4.001c-0.019,0,4,0,4,0c1.104,0,2,0.895,2,2v4c0,1.104,0.896,2,2,2
			s2-0.896,2-2v-6c0-2.21-1.791-4.001-4-4.001l-6,0.001c-1.104,0-2,0.895-2,2C52.001,3.105,52.896,4.001,54.001,4.001z
			 M10.001,60.001c0.019,0-4,0-4,0c-1.104,0-2-0.896-2-2V54c0-1.104-0.896-1.999-2-1.999s-2,0.895-2,1.999v6.001
			c0,2.209,1.791,4,4,4h6c1.104,0,2-0.896,2-2C12.001,60.896,11.105,60.001,10.001,60.001z M64.001,54c0-1.104-0.896-1.999-2-1.999
			s-2,0.895-2,1.999c0-0.019,0,4,0,4c0,1.104-0.896,2.001-2,2.001h-4c-1.104,0-2,0.895-2,2c0,1.104,0.896,2,2,2h6
			c2.209,0,4.001-1.791,4.001-4L64.001,54z M2.001,12.001c1.104,0,2-0.896,2-2c0,0.018,0-4,0-4c0-1.105,0.895-2,2-2h4
			c1.104,0,2-0.896,2-2c0-1.105-0.896-2-2-2h-6c-2.21,0-4.001,1.79-4.001,4l0.001,6C0.001,11.105,0.896,12.001,2.001,12.001z
			 M34.001,10.001c0-1.105-0.896-2-2-2s-2,0.895-2,2v4c0,1.104,0.896,2,2,2s2-0.896,2-2V10.001z M34.001,22.001c0-1.105-0.896-2-2-2
			s-2,0.895-2,2V26c0,1.104,0.896,2.001,2,2.001s2-0.896,2-2.001V22.001z M34.001,38.001c0-1.105-0.896-2-2-2s-2,0.895-2,2v4
			c0,1.104,0.896,2,2,2s2-0.896,2-2V38.001z M32.001,48.001c-1.104,0-2,0.895-2,2V54c0,1.105,0.896,2.001,2,2.001s2-0.896,2-2.001
			v-3.999C34.001,48.896,33.105,48.001,32.001,48.001z M56.001,32.001c0-1.104-0.896-2-2-2h-4c-1.104,0-2,0.896-2,2s0.896,2,2,2h4
			C55.105,34.001,56.001,33.105,56.001,32.001z M44.001,32.001c0-1.104-0.896-2-2-2h-4c-1.104,0-2,0.896-2,2s0.896,2,2,2h4
			C43.105,34.001,44.001,33.105,44.001,32.001z M26.001,30.001h-4c-1.104,0-2,0.896-2,2s0.896,2,2,2h4c1.104,0,2-0.896,2-2
			S27.105,30.001,26.001,30.001z M14.001,30.001h-4c-1.104,0-2,0.896-2,2s0.896,2,2,2h4c1.104,0,2-0.896,2-2
			S15.105,30.001,14.001,30.001z"/>
	</g>
</g>
<g id="Border_6_">
	<g>
		<path style="fill:#666666;" d="M62.001,0.001c-1.104,0-2,0.895-2,2v60c0,1.104,0.896,2,2,2s2-0.896,2-2v-60
			C64.001,0.896,63.105,0.001,62.001,0.001z"/>
	</g>
</g>
<g>
</g>
<g>
</g>
<g>
</g>
<g>
</g>
<g>
</g>
<g>
</g>
<g>
</g>
<g>
</g>
<g>
</g>
<g>
</g>
<g>
</g>
<g>
</g>
<g>
</g>
<g>
</g>
<g>
</g>
</svg>
