<?xml version="1.0" encoding="iso-8859-1"?>
<!-- Generator: Adobe Illustrator 16.0.0, SVG Export Plug-In . SVG Version: 6.00 Build 0)  -->
<!DOCTYPE svg PUBLIC "-//W3C//DTD SVG 1.1//EN" "http://www.w3.org/Graphics/SVG/1.1/DTD/svg11.dtd">
<svg version="1.1" id="Layer_1" xmlns="http://www.w3.org/2000/svg" xmlns:xlink="http://www.w3.org/1999/xlink" x="0px" y="0px"
	 width="64px" height="64.001px" viewBox="0 0 64 64.001" style="enable-background:new 0 0 64 64.001;" xml:space="preserve">
<g id="Brightness">
	<g>
		<path style="fill-rule:evenodd;clip-rule:evenodd;fill:#FFCC66;" d="M20,32.001c0-2.21-1.791-4-4-4H4c-2.209,0-4,1.79-4,4
			S1.791,36,4,36h12C18.209,36,20,34.211,20,32.001z M32,24.001c-4.418,0-8,3.582-8,8s3.582,8,8,8s8-3.582,8-8
			S36.418,24.001,32,24.001z M60,28.001H48c-2.209,0-4,1.79-4,4S45.791,36,48,36h12C62.209,36,64,34.211,64,32.001
			S62.209,28.001,60,28.001z M32,20.001c2.209,0,4-1.791,4-4v-12C36,1.792,34.209,0,32,0s-4,1.792-4,4.001v12
			C28,18.21,29.791,20.001,32,20.001z M32,44c-2.209,0-4,1.791-4,4.001V60c0,2.21,1.791,4.001,4,4.001S36,62.21,36,60V48.001
			C36,45.791,34.209,44,32,44z M17.858,23.516c1.562,1.563,4.095,1.563,5.657,0c1.562-1.562,1.562-4.096,0-5.657l-8.485-8.485
			c-1.562-1.563-4.095-1.563-5.657,0c-1.562,1.563-1.562,4.096,0,5.657L17.858,23.516z M46.142,40.486
			c-1.562-1.563-4.095-1.563-5.657,0c-1.562,1.562-1.562,4.095,0,5.656l8.485,8.485c1.562,1.563,4.094,1.563,5.657,0
			s1.563-4.095,0-5.655L46.142,40.486z M46.142,23.516l8.485-8.485c1.563-1.562,1.563-4.094,0-5.657
			c-1.563-1.563-4.095-1.563-5.657,0l-8.485,8.485c-1.562,1.562-1.562,4.096,0,5.657C42.047,25.078,44.58,25.078,46.142,23.516z
			 M17.858,40.486l-8.485,8.486c-1.562,1.561-1.562,4.093,0,5.655s4.095,1.563,5.657,0l8.485-8.485c1.562-1.562,1.562-4.095,0-5.656
			C21.953,38.924,19.42,38.924,17.858,40.486z"/>
	</g>
</g>
<g>
</g>
<g>
</g>
<g>
</g>
<g>
</g>
<g>
</g>
<g>
</g>
<g>
</g>
<g>
</g>
<g>
</g>
<g>
</g>
<g>
</g>
<g>
</g>
<g>
</g>
<g>
</g>
<g>
</g>
</svg>
