<?xml version="1.0" encoding="iso-8859-1"?>
<!-- Generator: Adobe Illustrator 16.0.0, SVG Export Plug-In . SVG Version: 6.00 Build 0)  -->
<!DOCTYPE svg PUBLIC "-//W3C//DTD SVG 1.1//EN" "http://www.w3.org/Graphics/SVG/1.1/DTD/svg11.dtd">
<svg version="1.1" id="Layer_1" xmlns="http://www.w3.org/2000/svg" xmlns:xlink="http://www.w3.org/1999/xlink" x="0px" y="0px"
	 width="64.001px" height="60px" viewBox="0 0 64.001 60" style="enable-background:new 0 0 64.001 60;" xml:space="preserve">
<g id="Text_1_">
	<g>
		<path style="fill-rule:evenodd;clip-rule:evenodd;fill:#CCCCCC;" d="M22.001,44h28c1.104,0,2-0.895,2-1.999c0-1.105-0.896-2-2-2
			h-28c-1.105,0-2,0.895-2,2C20.001,43.105,20.896,44,22.001,44z M22.001,12h28c1.104,0,2-0.895,2-2c0-1.104-0.896-1.999-2-1.999
			h-28c-1.105,0-2,0.896-2,1.999C20.001,11.105,20.896,12,22.001,12z M62.001,16h-40c-1.105,0-2,0.896-2,2.001
			c0,1.104,0.895,1.999,2,1.999h40c1.104,0,2-0.896,2-1.999C64.001,16.896,63.105,16,62.001,16z M22.001,4h40
			c1.104,0,2-0.895,2-1.999S63.105,0,62.001,0h-40c-1.105,0-2,0.896-2,2.001S20.896,4,22.001,4z M62.001,32h-40
			c-1.105,0-2,0.896-2,2c0,1.105,0.895,2.001,2,2.001h40c1.104,0,2-0.896,2-2.001C64.001,32.896,63.105,32,62.001,32z M62.001,48
			h-40c-1.105,0-2,0.896-2,2.001c0,1.104,0.895,2,2,2h40c1.104,0,2-0.896,2-2C64.001,48.896,63.105,48,62.001,48z M22.001,28h28
			c1.104,0,2-0.895,2-2c0-1.104-0.896-1.999-2-1.999h-28c-1.105,0-2,0.895-2,1.999C20.001,27.105,20.896,28,22.001,28z
			 M50.001,56.001h-28c-1.105,0-2,0.896-2,1.999c0,1.105,0.895,2,2,2h28c1.104,0,2-0.895,2-2
			C52.001,56.896,51.105,56.001,50.001,56.001z"/>
	</g>
</g>
<g id="Bullets">
	<g>
		<path style="fill-rule:evenodd;clip-rule:evenodd;fill:#48A0DC;" d="M6.001,16.001c-3.314,0-6.001,2.686-6.001,6
			C0,25.314,2.687,28,6.001,28c3.313,0,6-2.686,6-5.999C12.001,18.687,9.313,16.001,6.001,16.001z M6.001,12.001
			c3.313,0,6-2.687,6-6.001c0-3.313-2.688-5.999-6-5.999C2.687,0.001,0,2.687,0,6C0,9.314,2.687,12.001,6.001,12.001z M6.001,32.001
			c-3.314,0-6.001,2.686-6.001,6c0,3.313,2.687,6,6.001,6c3.313,0,6-2.687,6-6C12.001,34.687,9.313,32.001,6.001,32.001z
			 M6.001,48.001c-3.314,0-6.001,2.685-6.001,6C0,57.314,2.687,60,6.001,60c3.313,0,6-2.686,6-5.999
			C12.001,50.686,9.313,48.001,6.001,48.001z"/>
	</g>
</g>
<g>
</g>
<g>
</g>
<g>
</g>
<g>
</g>
<g>
</g>
<g>
</g>
<g>
</g>
<g>
</g>
<g>
</g>
<g>
</g>
<g>
</g>
<g>
</g>
<g>
</g>
<g>
</g>
<g>
</g>
</svg>
