<?xml version="1.0" encoding="iso-8859-1"?>
<!-- Generator: Adobe Illustrator 16.0.0, SVG Export Plug-In . SVG Version: 6.00 Build 0)  -->
<!DOCTYPE svg PUBLIC "-//W3C//DTD SVG 1.1//EN" "http://www.w3.org/Graphics/SVG/1.1/DTD/svg11.dtd">
<svg version="1.1" id="Layer_1" xmlns="http://www.w3.org/2000/svg" xmlns:xlink="http://www.w3.org/1999/xlink" x="0px" y="0px"
	 width="63.999px" height="52.092px" viewBox="0 0 63.999 52.092" style="enable-background:new 0 0 63.999 52.092;"
	 xml:space="preserve">
<g id="Code">
	<g>
		<path style="fill-rule:evenodd;clip-rule:evenodd;fill:#88C057;" d="M62.824,23.182L50.787,11.158
			c-1.565-1.565-4.106-1.565-5.674,0c-1.567,1.564-1.567,4.103,0,5.667l9.199,9.19l-9.199,9.188c-1.567,1.565-1.567,4.102,0,5.668
			c0.783,0.782,1.811,1.174,2.837,1.174s2.054-0.392,2.837-1.174L62.824,28.85C64.391,27.284,64.391,24.746,62.824,23.182z
			 M18.887,11.158c-1.567-1.565-4.108-1.565-5.674,0L1.176,23.182c-1.567,1.564-1.567,4.103,0,5.668l12.037,12.022
			c0.782,0.782,1.811,1.174,2.837,1.174s2.054-0.392,2.837-1.174c1.567-1.566,1.567-4.103,0-5.668l-9.2-9.188l9.2-9.19
			C20.454,15.261,20.454,12.723,18.887,11.158z M39.303,0.245c-2.1-0.764-4.422,0.319-5.186,2.417L22.279,46.663
			c-0.765,2.099,0.318,4.419,2.418,5.184c2.1,0.764,4.421-0.318,5.186-2.417l11.838-44C42.485,3.33,41.402,1.01,39.303,0.245z"/>
	</g>
</g>
<g>
</g>
<g>
</g>
<g>
</g>
<g>
</g>
<g>
</g>
<g>
</g>
<g>
</g>
<g>
</g>
<g>
</g>
<g>
</g>
<g>
</g>
<g>
</g>
<g>
</g>
<g>
</g>
<g>
</g>
</svg>
