<?xml version="1.0" encoding="iso-8859-1"?>
<!-- Generator: Adobe Illustrator 16.0.0, SVG Export Plug-In . SVG Version: 6.00 Build 0)  -->
<!DOCTYPE svg PUBLIC "-//W3C//DTD SVG 1.1//EN" "http://www.w3.org/Graphics/SVG/1.1/DTD/svg11.dtd">
<svg version="1.1" id="Layer_1" xmlns="http://www.w3.org/2000/svg" xmlns:xlink="http://www.w3.org/1999/xlink" x="0px" y="0px"
	 width="64px" height="60px" viewBox="0 0 64 60" style="enable-background:new 0 0 64 60;" xml:space="preserve">
<g id="Text_2_">
	<g>
		<path style="fill-rule:evenodd;clip-rule:evenodd;fill:#CCCCCC;" d="M28,40.001H2c-1.105,0-2,0.895-2,2C0,43.105,0.895,44,2,44h26
			c1.104,0,2-0.895,2-1.999C30,40.896,29.104,40.001,28,40.001z M28,8.001H2c-1.105,0-2,0.896-2,1.999c0,1.105,0.895,2,2,2h26
			c1.104,0,2-0.895,2-2C30,8.896,29.104,8.001,28,8.001z M28,16H2c-1.105,0-2,0.896-2,2.001C0,19.104,0.895,20,2,20h26
			c1.104,0,2-0.896,2-1.999C30,16.896,29.104,16,28,16z M28,0H2C0.895,0,0,0.896,0,2.001S0.895,4,2,4h26c1.104,0,2-0.895,2-1.999
			S29.104,0,28,0z M28,32H2c-1.105,0-2,0.896-2,2c0,1.105,0.895,2.001,2,2.001h26c1.104,0,2-0.896,2-2.001
			C30,32.896,29.104,32,28,32z M28,48H2c-1.105,0-2,0.896-2,2.001c0,1.104,0.895,2,2,2h26c1.104,0,2-0.896,2-2
			C30,48.896,29.104,48,28,48z M28,24.001H2c-1.105,0-2,0.895-2,1.999c0,1.105,0.895,2,2,2h26c1.104,0,2-0.895,2-2
			C30,24.896,29.104,24.001,28,24.001z M28,56.001H2c-1.105,0-2,0.896-2,1.999c0,1.105,0.895,2,2,2h26c1.104,0,2-0.895,2-2
			C30,56.896,29.104,56.001,28,56.001z M62,40.001H36c-1.105,0-2,0.895-2,2C34,43.105,34.895,44,36,44h26c1.104,0,2-0.895,2-1.999
			C64,40.896,63.104,40.001,62,40.001z M62,8.001H36c-1.105,0-2,0.896-2,1.999c0,1.105,0.895,2,2,2h26c1.104,0,2-0.895,2-2
			C64,8.896,63.104,8.001,62,8.001z M62,16H36c-1.105,0-2,0.896-2,2.001C34,19.104,34.895,20,36,20h26c1.104,0,2-0.896,2-1.999
			C64,16.896,63.104,16,62,16z M36,4h26c1.104,0,2-0.895,2-1.999S63.104,0,62,0H36c-1.105,0-2,0.896-2,2.001S34.895,4,36,4z M62,32
			H36c-1.105,0-2,0.896-2,2c0,1.105,0.895,2.001,2,2.001h26c1.104,0,2-0.896,2-2.001C64,32.896,63.104,32,62,32z M54,48H36
			c-1.105,0-2,0.896-2,2.001c0,1.104,0.895,2,2,2h18c1.104,0,2-0.896,2-2C56,48.896,55.104,48,54,48z M62,24.001H36
			c-1.105,0-2,0.895-2,1.999c0,1.105,0.895,2,2,2h26c1.104,0,2-0.895,2-2C64,24.896,63.104,24.001,62,24.001z"/>
	</g>
</g>
<g>
</g>
<g>
</g>
<g>
</g>
<g>
</g>
<g>
</g>
<g>
</g>
<g>
</g>
<g>
</g>
<g>
</g>
<g>
</g>
<g>
</g>
<g>
</g>
<g>
</g>
<g>
</g>
<g>
</g>
</svg>
