<?xml version="1.0" encoding="iso-8859-1"?>
<!-- Generator: Adobe Illustrator 16.0.0, SVG Export Plug-In . SVG Version: 6.00 Build 0)  -->
<!DOCTYPE svg PUBLIC "-//W3C//DTD SVG 1.1//EN" "http://www.w3.org/Graphics/SVG/1.1/DTD/svg11.dtd">
<svg version="1.1" id="Layer_1" xmlns="http://www.w3.org/2000/svg" xmlns:xlink="http://www.w3.org/1999/xlink" x="0px" y="0px"
	 width="64.002px" height="64.002px" viewBox="0 0 64.002 64.002" style="enable-background:new 0 0 64.002 64.002;"
	 xml:space="preserve">
<g id="Line_17_">
	<g>
		<path style="fill:#CCCCCC;" d="M63.407,0.595c-0.793-0.793-2.078-0.793-2.871,0L12.592,48.538c-0.793,0.793-0.793,2.079,0,2.871
			c0.793,0.794,2.079,0.794,2.872,0L63.407,3.466C64.2,2.673,64.2,1.388,63.407,0.595z"/>
	</g>
</g>
<g id="Crop">
	<g>
		<path style="fill-rule:evenodd;clip-rule:evenodd;fill:#9B7CAB;" d="M60,46.003h-6v-32c0-2.21-1.791-4.001-4-4.001H18V4.003
			c0-2.21-1.791-4.001-4-4.001s-4,1.791-4,4.001v5.999H4c-2.209,0-4,1.791-4,4.001c0,2.208,1.791,3.999,4,3.999h6v32.001
			c0,2.208,1.791,3.999,4,3.999h32v6c0,2.209,1.791,4,4,4s4-1.791,4-4v-6h6c2.209,0,4-1.791,4-3.999
			C64,47.793,62.209,46.003,60,46.003z M18,46.003V18.002h28v28.001H18z"/>
	</g>
</g>
<g>
</g>
<g>
</g>
<g>
</g>
<g>
</g>
<g>
</g>
<g>
</g>
<g>
</g>
<g>
</g>
<g>
</g>
<g>
</g>
<g>
</g>
<g>
</g>
<g>
</g>
<g>
</g>
<g>
</g>
</svg>
