<?xml version="1.0" encoding="iso-8859-1"?>
<!-- Generator: Adobe Illustrator 16.0.0, SVG Export Plug-In . SVG Version: 6.00 Build 0)  -->
<!DOCTYPE svg PUBLIC "-//W3C//DTD SVG 1.1//EN" "http://www.w3.org/Graphics/SVG/1.1/DTD/svg11.dtd">
<svg version="1.1" id="Layer_1" xmlns="http://www.w3.org/2000/svg" xmlns:xlink="http://www.w3.org/1999/xlink" x="0px" y="0px"
	 width="64.03px" height="64.012px" viewBox="0 0 64.03 64.012" style="enable-background:new 0 0 64.03 64.012;"
	 xml:space="preserve">
<g id="Blades">
	<g>
		<path style="fill-rule:evenodd;clip-rule:evenodd;fill:#CCCCCC;" d="M58.041,3.999V0L32.016,25.988L5.99,0v3.999
			c0,3.998,8.008,15.992,12.012,19.99l8.008,7.996l-2.002,1.999L16,45.979l2.002,1.998l14.014-9.994l14.014,9.994l2.002-1.998
			l-8.008-11.994l-2.002-1.999l8.008-7.996C50.033,19.991,58.041,7.997,58.041,3.999z"/>
	</g>
</g>
<g id="Handles">
	<g>
		<path style="fill-rule:evenodd;clip-rule:evenodd;fill:#9B7CAB;" d="M60.074,45.951c-4.664-4.656-11.597-5.284-15.483-1.405
			c-3.888,3.88-3.257,10.799,1.407,15.455c4.665,4.655,11.597,5.283,15.483,1.404C65.368,57.525,64.739,50.607,60.074,45.951z
			 M58.711,58.614c-2.245,2.231-6.607,1.514-9.743-1.603c-3.137-3.117-3.859-7.452-1.614-9.684c2.246-2.23,6.608-1.512,9.744,1.604
			C60.234,52.049,60.956,56.383,58.711,58.614z M3.956,45.911c-4.664,4.683-5.294,11.641-1.407,15.542
			c3.888,3.902,10.819,3.27,15.483-1.413c4.665-4.683,5.295-11.641,1.408-15.542C15.553,40.597,8.621,41.229,3.956,45.911z
			 M15.063,57.034c-3.136,3.135-7.498,3.855-9.743,1.612c-2.245-2.244-1.523-6.603,1.612-9.736c3.136-3.135,7.499-3.857,9.744-1.613
			C18.922,49.54,18.199,53.9,15.063,57.034z"/>
	</g>
</g>
<g id="Elipse">
	<g>
		<circle style="fill:#999999;" cx="32.016" cy="31.986" r="2"/>
	</g>
</g>
<g>
</g>
<g>
</g>
<g>
</g>
<g>
</g>
<g>
</g>
<g>
</g>
<g>
</g>
<g>
</g>
<g>
</g>
<g>
</g>
<g>
</g>
<g>
</g>
<g>
</g>
<g>
</g>
<g>
</g>
</svg>
