<?xml version="1.0" encoding="iso-8859-1"?>
<!-- Generator: Adobe Illustrator 16.0.0, SVG Export Plug-In . SVG Version: 6.00 Build 0)  -->
<!DOCTYPE svg PUBLIC "-//W3C//DTD SVG 1.1//EN" "http://www.w3.org/Graphics/SVG/1.1/DTD/svg11.dtd">
<svg version="1.1" id="Layer_1" xmlns="http://www.w3.org/2000/svg" xmlns:xlink="http://www.w3.org/1999/xlink" x="0px" y="0px"
	 width="64px" height="64px" viewBox="0 0 64 64" style="enable-background:new 0 0 64 64;" xml:space="preserve">
<g id="Objects_3_">
	<g>
		<path style="fill-rule:evenodd;clip-rule:evenodd;fill:#CCCCCC;" d="M46,36H18c-2.209,0-4,1.791-4,4v20c0,2.21,1.791,4,4,4h28
			c2.209,0,4-1.79,4-4V40C50,37.791,48.209,36,46,36z M56,0H8C5.791,0,4,1.791,4,4v20c0,2.21,1.791,4,4,4h48c2.209,0,4-1.79,4-4V4
			C60,1.791,58.209,0,56,0z"/>
	</g>
</g>
<g id="Container_15_">
	<g>
		<path style="fill:#FFFFFF;" d="M54,4.001H10C8.896,4.001,8,4.896,8,6v16c0,1.105,0.896,2.001,2,2.001h44c1.105,0,2-0.896,2-2.001
			V6C56,4.896,55.105,4.001,54,4.001z"/>
	</g>
</g>
<g id="Line_6_">
	<g>
		<path style="fill-rule:evenodd;clip-rule:evenodd;fill:#ED7161;" d="M2,16h60c1.104,0,2-0.896,2-2s-0.896-2-2-2H2
			c-1.104,0-2,0.896-2,2S0.896,16,2,16z M62,48H2c-1.104,0-2,0.896-2,2s0.896,2,2,2h60c1.104,0,2-0.896,2-2S63.104,48,62,48z"/>
	</g>
</g>
<g>
</g>
<g>
</g>
<g>
</g>
<g>
</g>
<g>
</g>
<g>
</g>
<g>
</g>
<g>
</g>
<g>
</g>
<g>
</g>
<g>
</g>
<g>
</g>
<g>
</g>
<g>
</g>
<g>
</g>
</svg>
