<?xml version="1.0" encoding="iso-8859-1"?>
<!-- Generator: Adobe Illustrator 16.0.0, SVG Export Plug-In . SVG Version: 6.00 Build 0)  -->
<!DOCTYPE svg PUBLIC "-//W3C//DTD SVG 1.1//EN" "http://www.w3.org/Graphics/SVG/1.1/DTD/svg11.dtd">
<svg version="1.1" id="Layer_1" xmlns="http://www.w3.org/2000/svg" xmlns:xlink="http://www.w3.org/1999/xlink" x="0px" y="0px"
	 width="64px" height="64px" viewBox="0 0 64 64" style="enable-background:new 0 0 64 64;" xml:space="preserve">
<g id="Objects">
	<g>
		<path style="fill-rule:evenodd;clip-rule:evenodd;fill:#CCCCCC;" d="M60,14H40c-2.209,0-4,1.791-4,4v28c0,2.209,1.791,4,4,4h20
			c2.209,0,4-1.791,4-4V18C64,15.791,62.209,14,60,14z M24,4H4C1.791,4,0,5.791,0,8v48c0,2.21,1.791,4,4,4h20c2.209,0,4-1.79,4-4V8
			C28,5.791,26.209,4,24,4z"/>
	</g>
</g>
<g id="Container_12_">
	<g>
		<path style="fill:#FFFFFF;" d="M22,8.001H6c-1.104,0-2,0.896-2,2v44c0,1.104,0.896,2,2,2h16c1.104,0,2-0.896,2-2v-44
			C24,8.896,23.104,8.001,22,8.001z"/>
	</g>
</g>
<g id="Line_3_">
	<g>
		<path style="fill-rule:evenodd;clip-rule:evenodd;fill:#ED7161;" d="M26,0c-1.104,0-2,0.896-2,2v60c0,1.104,0.896,2,2,2
			s2-0.896,2-2V2C28,0.896,27.104,0,26,0z M38,0c-1.104,0-2,0.896-2,2v60c0,1.104,0.896,2,2,2s2-0.896,2-2V2C40,0.896,39.104,0,38,0
			z"/>
	</g>
</g>
<g>
</g>
<g>
</g>
<g>
</g>
<g>
</g>
<g>
</g>
<g>
</g>
<g>
</g>
<g>
</g>
<g>
</g>
<g>
</g>
<g>
</g>
<g>
</g>
<g>
</g>
<g>
</g>
<g>
</g>
</svg>
