<?xml version="1.0" encoding="iso-8859-1"?>
<!-- Generator: Adobe Illustrator 16.0.0, SVG Export Plug-In . SVG Version: 6.00 Build 0)  -->
<!DOCTYPE svg PUBLIC "-//W3C//DTD SVG 1.1//EN" "http://www.w3.org/Graphics/SVG/1.1/DTD/svg11.dtd">
<svg version="1.1" id="Layer_1" xmlns="http://www.w3.org/2000/svg" xmlns:xlink="http://www.w3.org/1999/xlink" x="0px" y="0px"
	 width="64px" height="60px" viewBox="0 0 64 60" style="enable-background:new 0 0 64 60;" xml:space="preserve">
<g id="Text_22_">
	<g>
		<path style="fill-rule:evenodd;clip-rule:evenodd;fill:#CCCCCC;" d="M36,4h26.001C63.105,4,64,3.105,64,2.001S63.105,0,62.001,0
			H36c-1.104,0-2,0.896-2,2.001S34.896,4,36,4z M62.001,24H36c-1.104,0-2,0.896-2,2.001C34,27.105,34.896,28,36,28h26.001
			C63.105,28,64,27.105,64,26.001C64,24.896,63.105,24,62.001,24z M62.001,16H36c-1.104,0-2,0.896-2,2s0.896,2.001,2,2.001h26.001
			C63.105,20.001,64,19.104,64,18S63.105,16,62.001,16z M62.001,8H36c-1.104,0-2,0.896-2,2.001S34.896,12,36,12h26.001
			C63.105,12,64,11.105,64,10.001S63.105,8,62.001,8z M62.001,32H36c-1.104,0-2,0.896-2,2s0.896,2,2,2h26.001
			C63.105,36,64,35.104,64,34S63.105,32,62.001,32z M62.001,40h-60C0.896,40,0,40.896,0,42c0,1.104,0.896,2,2.001,2h60
			C63.105,44,64,43.104,64,42C64,40.896,63.105,40,62.001,40z M62.001,56h-60C0.896,56,0,56.896,0,58c0,1.104,0.896,2,2.001,2h60
			C63.105,60,64,59.104,64,58C64,56.896,63.105,56,62.001,56z M62.001,48h-60C0.896,48,0,48.896,0,50c0,1.104,0.896,2,2.001,2h60
			C63.105,52,64,51.104,64,50C64,48.896,63.105,48,62.001,48z"/>
	</g>
</g>
<g id="B_2_">
	<g>
		<path style="fill-rule:evenodd;clip-rule:evenodd;fill:#9B7CAB;" d="M22.281,16.275c2.25-1.636,3.72-4.281,3.72-7.276
			c0-4.632-3.501-8.44-8-8.938V0.002h-10h-2h-4c-1.104,0-2,0.895-2,2c0,1.104,0.896,2,2,2s2,0.895,2,1.999v24.001
			c0,1.104-0.896,2-2,2s-2,0.895-2,2c0,1.104,0.896,2,2,2h6h12v-0.001c5.522,0,10-4.478,10-9.998
			C30.001,21.267,26.703,17.309,22.281,16.275z M12.001,15.657V4.341V4.002h1.797h0.396c3.223,0.103,5.807,2.745,5.807,5.997
			c0,3.305-2.666,5.981-5.961,6.003h-0.074h-1.965V15.657z M16.001,32v0.002h-3.985h-0.015v-0.018v-1.509V21.52V20.03v-0.029h0.02
			h3.845h0.358c3.205,0.123,5.769,2.755,5.769,5.994C21.992,29.31,19.311,31.995,16.001,32z"/>
	</g>
</g>
<g>
</g>
<g>
</g>
<g>
</g>
<g>
</g>
<g>
</g>
<g>
</g>
<g>
</g>
<g>
</g>
<g>
</g>
<g>
</g>
<g>
</g>
<g>
</g>
<g>
</g>
<g>
</g>
<g>
</g>
</svg>
