<?xml version="1.0" encoding="iso-8859-1"?>
<!-- Generator: Adobe Illustrator 16.0.0, SVG Export Plug-In . SVG Version: 6.00 Build 0)  -->
<!DOCTYPE svg PUBLIC "-//W3C//DTD SVG 1.1//EN" "http://www.w3.org/Graphics/SVG/1.1/DTD/svg11.dtd">
<svg version="1.1" id="Layer_1" xmlns="http://www.w3.org/2000/svg" xmlns:xlink="http://www.w3.org/1999/xlink" x="0px" y="0px"
	 width="64px" height="56px" viewBox="0 0 64 56" style="enable-background:new 0 0 64 56;" xml:space="preserve">
<g id="Elipse_1_">
	<g>
		<path style="fill-rule:evenodd;clip-rule:evenodd;fill:#88C057;" d="M52,34V22h7.106C56.487,13.286,48.309,6.488,38,4.558V12H26
			V4.574C15.692,6.506,7.5,13.285,4.883,22H12v12H4.882C7.499,42.715,15.691,49.494,26,51.426V44h12v7.426
			C48.309,49.494,56.501,42.715,59.118,34H52z"/>
	</g>
</g>
<g id="Container_34_">
	<g>
		<ellipse style="fill:#FFFFFF;" cx="32" cy="28" rx="24" ry="20"/>
	</g>
</g>
<g id="Anchors_3_">
	<g>
		<path style="fill-rule:evenodd;clip-rule:evenodd;fill:#999999;" d="M0,34h12V22H0V34z M4,26h4v4H4V26z M26,12h12V0H26V12z M30,4
			h4v4h-4V4z M26,56h12V44H26V56z M30,48h4v4h-4V48z M52,22v12h12V22H52z M60,30h-4v-4h4V30z"/>
	</g>
</g>
<g>
</g>
<g>
</g>
<g>
</g>
<g>
</g>
<g>
</g>
<g>
</g>
<g>
</g>
<g>
</g>
<g>
</g>
<g>
</g>
<g>
</g>
<g>
</g>
<g>
</g>
<g>
</g>
<g>
</g>
</svg>
