<?xml version="1.0" encoding="iso-8859-1"?>
<!-- Generator: Adobe Illustrator 16.0.0, SVG Export Plug-In . SVG Version: 6.00 Build 0)  -->
<!DOCTYPE svg PUBLIC "-//W3C//DTD SVG 1.1//EN" "http://www.w3.org/Graphics/SVG/1.1/DTD/svg11.dtd">
<svg version="1.1" id="Layer_1" xmlns="http://www.w3.org/2000/svg" xmlns:xlink="http://www.w3.org/1999/xlink" x="0px" y="0px"
	 width="60.092px" height="64px" viewBox="0 0 60.092 64" style="enable-background:new 0 0 60.092 64;" xml:space="preserve">
<g id="Eraser">
	<g>
		<path style="fill:#E6E6E6;" d="M58.859,16.679L43.353,1.171C42.583,0.401,41.579,0.021,40.57,0h-0.171
			c-1.008,0.021-2.012,0.401-2.781,1.171L5.22,33.57L0.048,44c0,0-0.412,1.721,1.172,3.304l15.507,15.508
			c1.583,1.584,4.15,1.584,5.733,0l32.399-32.398L60.048,20C60.048,20,60.442,18.263,58.859,16.679z"/>
	</g>
</g>
<g id="Shade">
	<g>
		<path style="fill:#CCCCCC;" d="M5.22,33.57L0.048,44c0,0-0.412,1.721,1.172,3.304l15.507,15.508
			c0.919,0.919,2.16,1.24,3.357,1.092L25.22,53.57L5.22,33.57z"/>
	</g>
</g>
<g>
</g>
<g>
</g>
<g>
</g>
<g>
</g>
<g>
</g>
<g>
</g>
<g>
</g>
<g>
</g>
<g>
</g>
<g>
</g>
<g>
</g>
<g>
</g>
<g>
</g>
<g>
</g>
<g>
</g>
</svg>
