<?xml version="1.0" encoding="iso-8859-1"?>
<!-- Generator: Adobe Illustrator 16.0.0, SVG Export Plug-In . SVG Version: 6.00 Build 0)  -->
<!DOCTYPE svg PUBLIC "-//W3C//DTD SVG 1.1//EN" "http://www.w3.org/Graphics/SVG/1.1/DTD/svg11.dtd">
<svg version="1.1" id="Layer_1" xmlns="http://www.w3.org/2000/svg" xmlns:xlink="http://www.w3.org/1999/xlink" x="0px" y="0px"
	 width="64.051px" height="64.051px" viewBox="0 0 64.051 64.051" style="enable-background:new 0 0 64.051 64.051;"
	 xml:space="preserve">
<g id="Paint_2_">
	<g>
		<polygon style="fill:#88C057;" points="8.025,44.025 6.025,54.025 2.025,58.025 6.025,62.025 10.025,58.025 20.025,56.026 
			32.025,44.025 		"/>
	</g>
</g>
<g id="Container_36_">
	<g>
		<path style="fill:#CCCCCC;" d="M43.172,28.879L18,54.051l-8,2l-4,4.001l-2-2.001l4-4l2-8l25.172-25.172l-2.828-2.828L7.172,43.223
			c-0.559,0.559-0.939,1.27-1.094,2.043l-1.763,6.813l-3.144,3.145c-1.563,1.563-1.563,4.094,0,5.656l2,2
			c0.78,0.782,1.805,1.172,2.828,1.172s2.048-0.39,2.828-1.172l3.144-3.143l6.813-1.764c0.774-0.154,1.485-0.535,2.044-1.094
			L46,31.707L43.172,28.879z"/>
	</g>
</g>
<g id="Rubber">
	<g>
		<path style="fill-rule:evenodd;clip-rule:evenodd;fill:#48A0DC;" d="M64.051,11.051c0-2.972-1.145-5.752-3.223-7.829
			C58.754,1.146,55.973,0,53,0s-5.754,1.146-7.83,3.225L36,12.395l-1.172-1.172c-0.781-0.781-1.805-1.172-2.828-1.172
			s-2.048,0.391-2.828,1.172c-1.563,1.562-1.563,4.095,0,5.656l18,18c0.781,0.781,1.805,1.172,2.828,1.172s2.047-0.391,2.828-1.172
			c1.563-1.562,1.563-4.095,0-5.656l-1.172-1.172l9.172-9.172C62.906,16.802,64.051,14.021,64.051,11.051z"/>
	</g>
</g>
<g>
</g>
<g>
</g>
<g>
</g>
<g>
</g>
<g>
</g>
<g>
</g>
<g>
</g>
<g>
</g>
<g>
</g>
<g>
</g>
<g>
</g>
<g>
</g>
<g>
</g>
<g>
</g>
<g>
</g>
</svg>
