<?xml version="1.0" encoding="iso-8859-1"?>
<!-- Generator: Adobe Illustrator 16.0.0, SVG Export Plug-In . SVG Version: 6.00 Build 0)  -->
<!DOCTYPE svg PUBLIC "-//W3C//DTD SVG 1.1//EN" "http://www.w3.org/Graphics/SVG/1.1/DTD/svg11.dtd">
<svg version="1.1" id="Layer_1" xmlns="http://www.w3.org/2000/svg" xmlns:xlink="http://www.w3.org/1999/xlink" x="0px" y="0px"
	 width="60px" height="64px" viewBox="0 0 60 64" style="enable-background:new 0 0 60 64;" xml:space="preserve">
<g id="Binocular">
	<g>
		<path style="fill-rule:evenodd;clip-rule:evenodd;fill:#999999;" d="M4,48h16v-4H4V48z M26,6c0-1.105-0.896-2-2-2H12
			c-1.104,0-2,0.895-2,2v4c0,1.104,0.896,2,2,2h12c1.104,0,2-0.896,2-2V6z M40,44v4h16v-4H40z M50,10V6c0-1.105-0.896-2-2-2H36
			c-1.104,0-2,0.895-2,2v4c0,1.104,0.896,2,2,2h12C49.104,12,50,11.104,50,10z M32,19.999h-4c-1.104,0-2,0.896-2,2V38
			c0,1.104,0.896,2,2,2h4c1.104,0,2-0.896,2-2V21.999C34,20.895,33.104,19.999,32,19.999z"/>
	</g>
</g>
<g id="Binocular_1_">
	<g>
		<path style="fill-rule:evenodd;clip-rule:evenodd;fill:#666666;" d="M2,48L0,60c0,2.209,1.791,4,4,4h16c2.209,0,4-1.791,4-4l-2-12
			H2z M20,0h-4c-2.209,0-4,1.79-4,4h12C24,1.79,22.209,0,20,0z M38,48l-2,12c0,2.209,1.791,4,4,4h16c2.209,0,4-1.791,4-4l-2-12H38z
			 M44,0h-4c-2.209,0-4,1.79-4,4h12C48,1.79,46.209,0,44,0z M24,16v-4H12v4H6c-1.104,0-2,0.895-2,2L0,42c0,1.104,0.896,2,2,2h22
			c1.104,0,2-0.896,2-2V18C26,16.895,25.104,16,24,16z M58,44c1.104,0,2-0.896,2-2l-4-24c0-1.105-0.896-2-2-2h-6v-4H36v4
			c-1.104,0-2,0.895-2,2v24c0,1.104,0.896,2,2,2H58z"/>
	</g>
</g>
<g>
</g>
<g>
</g>
<g>
</g>
<g>
</g>
<g>
</g>
<g>
</g>
<g>
</g>
<g>
</g>
<g>
</g>
<g>
</g>
<g>
</g>
<g>
</g>
<g>
</g>
<g>
</g>
<g>
</g>
</svg>
