<?xml version="1.0" encoding="iso-8859-1"?>
<!-- Generator: Adobe Illustrator 16.0.0, SVG Export Plug-In . SVG Version: 6.00 Build 0)  -->
<!DOCTYPE svg PUBLIC "-//W3C//DTD SVG 1.1//EN" "http://www.w3.org/Graphics/SVG/1.1/DTD/svg11.dtd">
<svg version="1.1" id="Layer_1" xmlns="http://www.w3.org/2000/svg" xmlns:xlink="http://www.w3.org/1999/xlink" x="0px" y="0px"
	 width="64px" height="64px" viewBox="0 0 64 64" style="enable-background:new 0 0 64 64;" xml:space="preserve">
<g id="Object_7_">
	<g>
		<path style="fill:#ED7161;" d="M63.723,58.537l-22-56C41.113,0.986,39.619,0,38.002,0c-0.246,0-0.496,0.022-0.746,0.07
			C35.367,0.428,34,2.078,34,4.001V60c0,2.21,1.791,4,4,4h22c1.322,0,2.561-0.654,3.305-1.748
			C64.051,61.16,64.207,59.77,63.723,58.537z"/>
	</g>
</g>
<g id="Object_2_">
	<g>
		<path style="fill:#CCCCCC;" d="M26.744,0.07C26.494,0.021,26.245,0,25.998,0c-1.618,0-3.111,0.985-3.721,2.537l-22,56
			c-0.484,1.232-0.328,2.623,0.417,3.715C1.439,63.346,2.677,64,4,64h22c2.209,0,4-1.791,4-4V4C30,2.078,28.633,0.428,26.744,0.07z"
			/>
	</g>
</g>
<g id="Container_20_">
	<g>
		<path style="fill:#FFFFFF;" d="M25.192,8.692C24.631,8.74,24.329,9.125,24,10L5.106,57.27c-0.241,0.614-0.163,1.311,0.21,1.857
			C5.688,59.673,6.308,60,6.969,60H24c1.104,0,2-0.895,2-2V10.583C26,9.622,26.15,8.608,25.192,8.692z"/>
	</g>
</g>
<g>
</g>
<g>
</g>
<g>
</g>
<g>
</g>
<g>
</g>
<g>
</g>
<g>
</g>
<g>
</g>
<g>
</g>
<g>
</g>
<g>
</g>
<g>
</g>
<g>
</g>
<g>
</g>
<g>
</g>
</svg>
