<?xml version="1.0" encoding="iso-8859-1"?>
<!-- Generator: Adobe Illustrator 16.0.0, SVG Export Plug-In . SVG Version: 6.00 Build 0)  -->
<!DOCTYPE svg PUBLIC "-//W3C//DTD SVG 1.1//EN" "http://www.w3.org/Graphics/SVG/1.1/DTD/svg11.dtd">
<svg version="1.1" id="Layer_1" xmlns="http://www.w3.org/2000/svg" xmlns:xlink="http://www.w3.org/1999/xlink" x="0px" y="0px"
	 width="64.001px" height="64.001px" viewBox="0 0 64.001 64.001" style="enable-background:new 0 0 64.001 64.001;"
	 xml:space="preserve">
<g id="Object_3_">
	<g>
		<path style="fill:#ED7161;" d="M62.253,0.696c-1.092-0.746-2.482-0.902-3.715-0.418l-56,22c-1.552,0.609-2.537,2.104-2.537,3.721
			c0,0.246,0.022,0.496,0.07,0.746c0.357,1.889,2.008,3.257,3.93,3.257h56c2.209,0,4-1.791,4-4.001V4.001
			C64.001,2.679,63.347,1.44,62.253,0.696z"/>
	</g>
</g>
<g id="Object_4_">
	<g>
		<path style="fill:#CCCCCC;" d="M60,34H4.001c-1.923,0-3.573,1.367-3.931,3.257C0.022,37.506,0,37.756,0,38.002
			c0,1.619,0.985,3.111,2.537,3.721l56.001,22c1.232,0.485,2.623,0.329,3.715-0.417c1.094-0.745,1.748-1.982,1.748-3.306V38.001
			C64.001,35.792,62.21,34,60,34z"/>
	</g>
</g>
<g id="Container_21_">
	<g>
		<path style="fill:#FFFFFF;" d="M58.001,38.001H10.583c-0.961,0-1.974-0.151-1.891,0.807C8.741,39.37,9.126,39.671,10.001,40
			L57.27,58.894c0.615,0.241,1.311,0.163,1.858-0.21C59.674,58.312,60,57.694,60,57.032V40C60,38.896,59.105,38.001,58.001,38.001z"
			/>
	</g>
</g>
<g>
</g>
<g>
</g>
<g>
</g>
<g>
</g>
<g>
</g>
<g>
</g>
<g>
</g>
<g>
</g>
<g>
</g>
<g>
</g>
<g>
</g>
<g>
</g>
<g>
</g>
<g>
</g>
<g>
</g>
</svg>
