<?xml version="1.0" encoding="iso-8859-1"?>
<!-- Generator: Adobe Illustrator 16.0.0, SVG Export Plug-In . SVG Version: 6.00 Build 0)  -->
<!DOCTYPE svg PUBLIC "-//W3C//DTD SVG 1.1//EN" "http://www.w3.org/Graphics/SVG/1.1/DTD/svg11.dtd">
<svg version="1.1" id="Layer_1" xmlns="http://www.w3.org/2000/svg" xmlns:xlink="http://www.w3.org/1999/xlink" x="0px" y="0px"
	 width="64px" height="63.999px" viewBox="0 0 64 63.999" style="enable-background:new 0 0 64 63.999;" xml:space="preserve">
<g id="Outline">
	<g>
		<path style="fill-rule:evenodd;clip-rule:evenodd;fill:#FFCC66;" d="M59.611,51.531l-9.879-25.113
			c-0.623-1.587-2.523-6.419-7.732-6.419c-3.305,0-5.274,1.943-6.435,3.77c-0.14-1.327-0.323-2.38-0.565-2.77
			c-0.898-1.444-4.203-5-6-5s-3,0-3,0s3.94,3.941,5,5c1.367,1.368-1,8.76-1,12.001c0,0.814,0.327,1.551,0.854,2.092l-6.467,16.439
			C21.737,52.354,20,55.119,20,57.644c0,3.006,2.464,6.355,6,6.355h8c3.536,0,6-3.35,6-6.355c0-0.504-0.063-0.995-0.183-1.466h0.399
			C40.074,56.701,40,57.237,40,57.767c0,3.009,2.411,6.232,6,6.232h12c3.535,0,6-3.35,6-6.355
			C64,55.119,62.262,52.354,59.611,51.531z"/>
	</g>
</g>
<g id="A_2_">
	<g>
		<path style="fill-rule:evenodd;clip-rule:evenodd;fill:#FFFFFF;" d="M58,55.999c-1,0-1.641-1.066-2-2l-10-26
			c-0.793-2.062-1.791-4-4-4s-3.207,1.938-4,4l-10,26c-0.359,0.934-1,2-2,2c-1.104,0-2,0.896-2,2s0.896,2,2,2h8c1.104,0,2-0.896,2-2
			s-0.896-2-2-2c-2,0-2.359-1.066-2-2l0.77-2H47.23l0.77,2c0.358,0.934,0,2-2,2c-1.104,0-2,0.896-2,2s0.896,2,2,2h12
			c1.104,0,2-0.896,2-2S59.104,55.999,58,55.999z M34.308,47.999L40,33.199l5.692,14.8H34.308z"/>
	</g>
</g>
<g id="Bucket">
	<g>
		<path style="fill:#CCCCCC;" d="M16,6L2,19.999c-1.513,1.513-2,4.074-2,6C0,28.889,11.111,40,14,40c1.926,0,4.488-0.488,6-2.001
			l14-14L16,6z"/>
	</g>
</g>
<g id="Handle">
	<g>
		<path style="fill-rule:evenodd;clip-rule:evenodd;fill:#999999;" d="M18,0c-4.419,0-8,3.581-8,7.999V8v4l4-4V7.999
			c0-2.209,1.791-4,4-4s4,1.791,4,4V8v9.999c0,1.104,0.896,2,2,2s2-0.896,2-2V8V7.999C26,3.581,22.418,0,18,0z"/>
	</g>
</g>
<g>
</g>
<g>
</g>
<g>
</g>
<g>
</g>
<g>
</g>
<g>
</g>
<g>
</g>
<g>
</g>
<g>
</g>
<g>
</g>
<g>
</g>
<g>
</g>
<g>
</g>
<g>
</g>
<g>
</g>
</svg>
