<?xml version="1.0" encoding="iso-8859-1"?>
<!-- Generator: Adobe Illustrator 16.0.0, SVG Export Plug-In . SVG Version: 6.00 Build 0)  -->
<!DOCTYPE svg PUBLIC "-//W3C//DTD SVG 1.1//EN" "http://www.w3.org/Graphics/SVG/1.1/DTD/svg11.dtd">
<svg version="1.1" id="Layer_1" xmlns="http://www.w3.org/2000/svg" xmlns:xlink="http://www.w3.org/1999/xlink" x="0px" y="0px"
	 width="60px" height="59.999px" viewBox="0 0 60 59.999" style="enable-background:new 0 0 60 59.999;" xml:space="preserve">
<g id="A_3_">
	<g>
		<path style="fill-rule:evenodd;clip-rule:evenodd;fill:#88C057;" d="M58,55.999c-1,0-1.641-1.066-2-1.999L46,27.999
			c-0.793-2.062-1.791-4-4-4s-3.207,1.938-4,4L28,54c-0.359,0.933-1,1.999-2,1.999c-1.104,0-2,0.896-2,2s0.896,2,2,2h8
			c1.104,0,2-0.896,2-2s-0.896-2-2-2c-2,0-2.359-1.066-2-1.999l0.77-2.001H47.23L48,54c0.359,0.933,0,1.999-2,1.999
			c-1.104,0-2,0.896-2,2s0.896,2,2,2h12c1.104,0,2-0.896,2-2S59.104,55.999,58,55.999z M34.308,47.999L40,33.199l5.692,14.8H34.308z
			"/>
	</g>
</g>
<g id="Bucket_1_">
	<g>
		<path style="fill:#CCCCCC;" d="M16,6L2,19.999c-1.512,1.513-2,4.074-2,6C0,28.889,11.111,40,14,40c1.926,0,4.488-0.488,6-2
			l14-14.001L16,6z"/>
	</g>
</g>
<g id="Paint">
	<g>
		<path style="fill-rule:evenodd;clip-rule:evenodd;fill:#88C057;" d="M35,21c-0.898-1.445-4.203-5.001-6-5.001s-3,0-3,0
			S29.941,19.94,31,21c1.367,1.367-1,8.759-1,12c0,1.656,1.343,2.999,3,2.999c1.656,0,3-1.343,3-2.999C36,33,35.898,22.443,35,21z"
			/>
	</g>
</g>
<g id="Handle_1_">
	<g>
		<path style="fill-rule:evenodd;clip-rule:evenodd;fill:#999999;" d="M18,0c-4.419,0-8,3.581-8,7.999V8v4l4-4V7.999
			C14,5.79,15.791,4,18,4s4,1.79,4,3.999V8v9.999c0,1.104,0.895,2,2,2c1.104,0,2-0.896,2-2V8V7.999C26,3.581,22.418,0,18,0z"/>
	</g>
</g>
<g>
</g>
<g>
</g>
<g>
</g>
<g>
</g>
<g>
</g>
<g>
</g>
<g>
</g>
<g>
</g>
<g>
</g>
<g>
</g>
<g>
</g>
<g>
</g>
<g>
</g>
<g>
</g>
<g>
</g>
</svg>
