<?xml version="1.0" encoding="iso-8859-1"?>
<!-- Generator: Adobe Illustrator 16.0.0, SVG Export Plug-In . SVG Version: 6.00 Build 0)  -->
<!DOCTYPE svg PUBLIC "-//W3C//DTD SVG 1.1//EN" "http://www.w3.org/Graphics/SVG/1.1/DTD/svg11.dtd">
<svg version="1.1" id="Layer_1" xmlns="http://www.w3.org/2000/svg" xmlns:xlink="http://www.w3.org/1999/xlink" x="0px" y="0px"
	 width="64px" height="63.999px" viewBox="0 0 64 63.999" style="enable-background:new 0 0 64 63.999;" xml:space="preserve">
<g id="A_6_">
	<g>
		<path style="fill-rule:evenodd;clip-rule:evenodd;fill:#CCCCCC;" d="M24,38h8L20,6.001C19.207,3.938,18.209,2,16,2
			c-2.21,0-3.207,1.938-4,4.001L0,38h8l2.143-5.999h11.715L24,38z M12.286,26L16,15.6L19.714,26H12.286z"/>
	</g>
</g>
<g id="A_7_">
	<g>
		<path style="fill-rule:evenodd;clip-rule:evenodd;fill:#48A0DC;" d="M62,59.999h-2.007C57.997,59.993,56.717,57.864,56,56L36,4
			c-0.793-2.062-1.791-4-4-4s-3.207,1.938-4,4L8,56c-0.717,1.864-1.997,3.993-3.993,3.999H2c-1.105,0-2,0.896-2,2
			c0,1.105,0.895,2,2,2h16c1.104,0,2-0.895,2-2c0-1.104-0.896-2-2-2h-2.028C11.998,59.988,11.283,57.861,12,56l3.846-10h24.308
			L44,56c0.716,1.861,0.002,3.988-3.972,3.999H38c-1.104,0-2,0.896-2,2c0,1.105,0.896,2,2,2h24c1.104,0,2-0.895,2-2
			C64,60.895,63.104,59.999,62,59.999z M17.385,42L28,14.4L38.615,42H17.385z"/>
	</g>
</g>
<g>
</g>
<g>
</g>
<g>
</g>
<g>
</g>
<g>
</g>
<g>
</g>
<g>
</g>
<g>
</g>
<g>
</g>
<g>
</g>
<g>
</g>
<g>
</g>
<g>
</g>
<g>
</g>
<g>
</g>
</svg>
