<?xml version="1.0" encoding="iso-8859-1"?>
<!-- Generator: Adobe Illustrator 16.0.0, SVG Export Plug-In . SVG Version: 6.00 Build 0)  -->
<!DOCTYPE svg PUBLIC "-//W3C//DTD SVG 1.1//EN" "http://www.w3.org/Graphics/SVG/1.1/DTD/svg11.dtd">
<svg version="1.1" id="Layer_1" xmlns="http://www.w3.org/2000/svg" xmlns:xlink="http://www.w3.org/1999/xlink" x="0px" y="0px"
	 width="64px" height="63.999px" viewBox="0 0 64 63.999" style="enable-background:new 0 0 64 63.999;" xml:space="preserve">
<g id="Plus">
	<g>
		<path style="fill:#49A1DC;" d="M61.999,14h-4V9.999c0-1.105-0.895-2-2-2c-1.104,0-2,0.895-2,2V14h-4c-1.104,0-2,0.894-2,2
			c0,1.102,0.896,1.998,2,1.998h4v4c0,1.106,0.896,2,2,2c1.105,0,2-0.894,2-2v-4h4c1.105,0,2-0.896,2-1.998
			C63.999,14.894,63.104,14,61.999,14z"/>
	</g>
</g>
<g id="A_5_">
	<g>
		<path style="fill-rule:evenodd;clip-rule:evenodd;fill:#CCCCCC;" d="M62,59.999h-2.007C57.997,59.993,56.717,57.864,56,56L36,4
			c-0.793-2.062-1.791-4-4-4s-3.207,1.938-4,4L8,56c-0.717,1.864-1.997,3.993-3.993,3.999H2c-1.104,0-2,0.896-2,2
			c0,1.105,0.896,2,2,2h16c1.104,0,2-0.895,2-2c0-1.104-0.896-2-2-2h-2.028C11.998,59.988,11.283,57.861,12,56l3.846-10h24.308
			L44,56c0.716,1.861,0.002,3.988-3.972,3.999H38c-1.104,0-2,0.896-2,2c0,1.105,0.896,2,2,2h24c1.104,0,2-0.895,2-2
			C64,60.895,63.104,59.999,62,59.999z M17.385,42L28,14.4L38.615,42H17.385z"/>
	</g>
</g>
<g>
</g>
<g>
</g>
<g>
</g>
<g>
</g>
<g>
</g>
<g>
</g>
<g>
</g>
<g>
</g>
<g>
</g>
<g>
</g>
<g>
</g>
<g>
</g>
<g>
</g>
<g>
</g>
<g>
</g>
</svg>
