<?xml version="1.0" encoding="iso-8859-1"?>
<!-- Generator: Adobe Illustrator 16.0.0, SVG Export Plug-In . SVG Version: 6.00 Build 0)  -->
<!DOCTYPE svg PUBLIC "-//W3C//DTD SVG 1.1//EN" "http://www.w3.org/Graphics/SVG/1.1/DTD/svg11.dtd">
<svg version="1.1" id="Layer_1" xmlns="http://www.w3.org/2000/svg" xmlns:xlink="http://www.w3.org/1999/xlink" x="0px" y="0px"
	 width="64.001px" height="63.999px" viewBox="0 0 64.001 63.999" style="enable-background:new 0 0 64.001 63.999;"
	 xml:space="preserve">
<g id="Grid_7_">
	<g>
		<path style="fill-rule:evenodd;clip-rule:evenodd;fill:#9B7CAB;" d="M24,0H4.001C1.791,0,0,1.79,0,3.999v20
			c0,2.209,1.791,4,4.001,4H24c2.21,0,4.001-1.791,4.001-4v-20C28.001,1.79,26.21,0,24,0z M60,0H40.001C37.791,0,36,1.79,36,3.999
			v20c0,2.209,1.791,4,4.001,4H60c2.21,0,4.001-1.791,4.001-4v-20C64.001,1.79,62.21,0,60,0z M24,35.999H4.001
			C1.791,35.999,0,37.79,0,39.998v20.001c0,2.21,1.791,4,4.001,4H24c2.21,0,4.001-1.79,4.001-4V39.998
			C28.001,37.79,26.21,35.999,24,35.999z M60,35.999H40.001c-2.21,0-4.001,1.791-4.001,3.999v20.001c0,2.21,1.791,4,4.001,4H60
			c2.21,0,4.001-1.79,4.001-4V39.998C64.001,37.79,62.21,35.999,60,35.999z"/>
	</g>
</g>
<g>
</g>
<g>
</g>
<g>
</g>
<g>
</g>
<g>
</g>
<g>
</g>
<g>
</g>
<g>
</g>
<g>
</g>
<g>
</g>
<g>
</g>
<g>
</g>
<g>
</g>
<g>
</g>
<g>
</g>
</svg>
