<?xml version="1.0" encoding="iso-8859-1"?>
<!-- Generator: Adobe Illustrator 16.0.0, SVG Export Plug-In . SVG Version: 6.00 Build 0)  -->
<!DOCTYPE svg PUBLIC "-//W3C//DTD SVG 1.1//EN" "http://www.w3.org/Graphics/SVG/1.1/DTD/svg11.dtd">
<svg version="1.1" id="Layer_1" xmlns="http://www.w3.org/2000/svg" xmlns:xlink="http://www.w3.org/1999/xlink" x="0px" y="0px"
	 width="64px" height="64px" viewBox="0 0 64 64" style="enable-background:new 0 0 64 64;" xml:space="preserve">
<g id="Base_10_">
	<g>
		<path style="fill:#CCCCCC;" d="M60,0H4C1.791,0,0,1.791,0,3.999V60c0,2.209,1.791,4,4,4h56c2.209,0,4-1.791,4-4V3.999
			C64,1.791,62.209,0,60,0z"/>
	</g>
</g>
<g id="Container_10_">
	<g>
		<path style="fill:#FFFFFF;" d="M58,3.999H6C4.896,3.999,4,4.895,4,6v51.999C4,59.104,4.896,60,6,60h52c1.104,0,2-0.896,2-2.001V6
			C60,4.895,59.104,3.999,58,3.999z"/>
	</g>
</g>
<g id="Grid_10_">
	<g>
		<path style="fill-rule:evenodd;clip-rule:evenodd;fill:#CCCCCC;" d="M12,10c-1.104,0-2,0.895-2,2c0,1.104,0.896,2,2,2s2-0.896,2-2
			C14,10.895,13.104,10,12,10z M20,10c-1.104,0-2,0.895-2,2c0,1.104,0.896,2,2,2s2-0.896,2-2C22,10.895,21.104,10,20,10z M28,10
			c-1.104,0-2,0.895-2,2c0,1.104,0.896,2,2,2s2-0.896,2-2C30,10.895,29.104,10,28,10z M36,10c-1.104,0-2,0.895-2,2
			c0,1.104,0.896,2,2,2s2-0.896,2-2C38,10.895,37.104,10,36,10z M44,10c-1.104,0-2,0.895-2,2c0,1.104,0.896,2,2,2s2-0.896,2-2
			C46,10.895,45.104,10,44,10z M52,14c1.104,0,2-0.896,2-2c0-1.105-0.896-2-2-2s-2,0.895-2,2C50,13.104,50.896,14,52,14z M12,18
			c-1.104,0-2,0.895-2,2c0,1.104,0.896,2,2,2s2-0.896,2-2C14,18.895,13.104,18,12,18z M20,18c-1.104,0-2,0.895-2,2
			c0,1.104,0.896,2,2,2s2-0.896,2-2C22,18.895,21.104,18,20,18z M28,18c-1.104,0-2,0.895-2,2c0,1.104,0.896,2,2,2s2-0.896,2-2
			C30,18.895,29.104,18,28,18z M36,18c-1.104,0-2,0.895-2,2c0,1.104,0.896,2,2,2s2-0.896,2-2C38,18.895,37.104,18,36,18z M44,18
			c-1.104,0-2,0.895-2,2c0,1.104,0.896,2,2,2s2-0.896,2-2C46,18.895,45.104,18,44,18z M52,18c-1.104,0-2,0.895-2,2
			c0,1.104,0.896,2,2,2s2-0.896,2-2C54,18.895,53.104,18,52,18z M12,26c-1.104,0-2,0.896-2,1.999C10,29.104,10.896,30,12,30
			s2-0.896,2-2.001C14,26.896,13.104,26,12,26z M20,26c-1.104,0-2,0.896-2,1.999C18,29.104,18.896,30,20,30s2-0.896,2-2.001
			C22,26.896,21.104,26,20,26z M28,26c-1.104,0-2,0.896-2,1.999C26,29.104,26.896,30,28,30s2-0.896,2-2.001
			C30,26.896,29.104,26,28,26z M36,26c-1.104,0-2,0.896-2,1.999C34,29.104,34.896,30,36,30s2-0.896,2-2.001
			C38,26.896,37.104,26,36,26z M44,26c-1.104,0-2,0.896-2,1.999C42,29.104,42.896,30,44,30s2-0.896,2-2.001
			C46,26.896,45.104,26,44,26z M52,26c-1.104,0-2,0.896-2,1.999C50,29.104,50.896,30,52,30s2-0.896,2-2.001
			C54,26.896,53.104,26,52,26z M12,34c-1.104,0-2,0.895-2,1.999C10,37.104,10.896,38,12,38s2-0.896,2-2.001
			C14,34.895,13.104,34,12,34z M20,34c-1.104,0-2,0.895-2,1.999C18,37.104,18.896,38,20,38s2-0.896,2-2.001
			C22,34.895,21.104,34,20,34z M28,34c-1.104,0-2,0.895-2,1.999C26,37.104,26.896,38,28,38s2-0.896,2-2.001
			C30,34.895,29.104,34,28,34z M36,34c-1.104,0-2,0.895-2,1.999C34,37.104,34.896,38,36,38s2-0.896,2-2.001
			C38,34.895,37.104,34,36,34z M44,34c-1.104,0-2,0.895-2,1.999C42,37.104,42.896,38,44,38s2-0.896,2-2.001
			C46,34.895,45.104,34,44,34z M52,34c-1.104,0-2,0.895-2,1.999C50,37.104,50.896,38,52,38s2-0.896,2-2.001
			C54,34.895,53.104,34,52,34z M12,42c-1.104,0-2,0.895-2,2c0,1.104,0.896,2,2,2s2-0.896,2-2C14,42.895,13.104,42,12,42z M20,42
			c-1.104,0-2,0.895-2,2c0,1.104,0.896,2,2,2s2-0.896,2-2C22,42.895,21.104,42,20,42z M28,42c-1.104,0-2,0.895-2,2
			c0,1.104,0.896,2,2,2s2-0.896,2-2C30,42.895,29.104,42,28,42z M36,42c-1.104,0-2,0.895-2,2c0,1.104,0.896,2,2,2s2-0.896,2-2
			C38,42.895,37.104,42,36,42z M44,42c-1.104,0-2,0.895-2,2c0,1.104,0.896,2,2,2s2-0.896,2-2C46,42.895,45.104,42,44,42z M52,42
			c-1.104,0-2,0.895-2,2c0,1.104,0.896,2,2,2s2-0.896,2-2C54,42.895,53.104,42,52,42z M12,50c-1.104,0-2,0.895-2,2
			c0,1.104,0.896,2,2,2s2-0.896,2-2C14,50.895,13.104,50,12,50z M20,50c-1.104,0-2,0.895-2,2c0,1.104,0.896,2,2,2s2-0.896,2-2
			C22,50.895,21.104,50,20,50z M28,50c-1.104,0-2,0.895-2,2c0,1.104,0.896,2,2,2s2-0.896,2-2C30,50.895,29.104,50,28,50z M36,50
			c-1.104,0-2,0.895-2,2c0,1.104,0.896,2,2,2s2-0.896,2-2C38,50.895,37.104,50,36,50z M44,50c-1.104,0-2,0.895-2,2
			c0,1.104,0.896,2,2,2s2-0.896,2-2C46,50.895,45.104,50,44,50z M52,50c-1.104,0-2,0.895-2,2c0,1.104,0.896,2,2,2s2-0.896,2-2
			C54,50.895,53.104,50,52,50z"/>
	</g>
</g>
<g>
</g>
<g>
</g>
<g>
</g>
<g>
</g>
<g>
</g>
<g>
</g>
<g>
</g>
<g>
</g>
<g>
</g>
<g>
</g>
<g>
</g>
<g>
</g>
<g>
</g>
<g>
</g>
<g>
</g>
</svg>
