<?xml version="1.0" encoding="iso-8859-1"?>
<!-- Generator: Adobe Illustrator 16.0.0, SVG Export Plug-In . SVG Version: 6.00 Build 0)  -->
<!DOCTYPE svg PUBLIC "-//W3C//DTD SVG 1.1//EN" "http://www.w3.org/Graphics/SVG/1.1/DTD/svg11.dtd">
<svg version="1.1" id="Layer_1" xmlns="http://www.w3.org/2000/svg" xmlns:xlink="http://www.w3.org/1999/xlink" x="0px" y="0px"
	 width="64px" height="64px" viewBox="0 0 64 64" style="enable-background:new 0 0 64 64;" xml:space="preserve">
<g id="Base_11_">
	<g>
		<path style="fill:#CCCCCC;" d="M60,0H4C1.791,0,0,1.791,0,3.999V60c0,2.209,1.791,4,4,4h56c2.209,0,4-1.791,4-4V3.999
			C64,1.791,62.209,0,60,0z"/>
	</g>
</g>
<g id="Container_11_">
	<g>
		<path style="fill:#FFFFFF;" d="M58,3.999H6C4.896,3.999,4,4.895,4,6v51.999C4,59.104,4.896,60,6,60h52c1.104,0,2-0.896,2-2.001V6
			C60,4.895,59.104,3.999,58,3.999z"/>
	</g>
</g>
<g id="Grid_11_">
	<g>
		<path style="fill-rule:evenodd;clip-rule:evenodd;fill:#CCCCCC;" d="M60,16v-4h-8V3.999h-4V12h-8V3.999h-4V12h-8V3.999h-4V12h-8
			V3.999h-4V12H4v4h8v7.999H4v4h8V36H4v4h8v8H4v4h8v8h4v-8h8v8h4v-8h8v8h4v-8h8v8h4v-8h8v-4h-8v-8h8v-4h-8v-8.001h8v-4h-8V16H60z
			 M36,16v7.999h-8V16H36z M36,27.999V36h-8v-8.001H36z M16,16h8v7.999h-8V16z M16,27.999h8V36h-8V27.999z M16,48v-8h8v8H16z M28,48
			v-8h8v8H28z M48,48h-8v-8h8V48z M48,36h-8v-8.001h8V36z M48,23.999h-8V16h8V23.999z"/>
	</g>
</g>
<g>
</g>
<g>
</g>
<g>
</g>
<g>
</g>
<g>
</g>
<g>
</g>
<g>
</g>
<g>
</g>
<g>
</g>
<g>
</g>
<g>
</g>
<g>
</g>
<g>
</g>
<g>
</g>
<g>
</g>
</svg>
