<?xml version="1.0" encoding="iso-8859-1"?>
<!-- Generator: Adobe Illustrator 16.0.0, SVG Export Plug-In . SVG Version: 6.00 Build 0)  -->
<!DOCTYPE svg PUBLIC "-//W3C//DTD SVG 1.1//EN" "http://www.w3.org/Graphics/SVG/1.1/DTD/svg11.dtd">
<svg version="1.1" id="Layer_1" xmlns="http://www.w3.org/2000/svg" xmlns:xlink="http://www.w3.org/1999/xlink" x="0px" y="0px"
	 width="64px" height="64px" viewBox="0 0 64 64" style="enable-background:new 0 0 64 64;" xml:space="preserve">
<g id="Base_9_">
	<g>
		<path style="fill:#CCCCCC;" d="M60,0H4C1.791,0,0,1.791,0,3.999V60c0,2.209,1.791,4,4,4h56c2.209,0,4-1.791,4-4V3.999
			C64,1.791,62.209,0,60,0z"/>
	</g>
</g>
<g id="Container_9_">
	<g>
		<path style="fill:#FFFFFF;" d="M58,3.999H6C4.896,3.999,4,4.895,4,6v51.999C4,59.104,4.896,60,6,60h52c1.104,0,2-0.896,2-2.001V6
			C60,4.895,59.104,3.999,58,3.999z"/>
	</g>
</g>
<g id="Guides_1_">
	<g>
		<path style="fill-rule:evenodd;clip-rule:evenodd;fill:#CCCCCC;" d="M38,54c-1.104,0-2,0.896-2,2c0,1.104,0.896,1.999,2,1.999
			s2-0.896,2-1.999C40,54.896,39.104,54,38,54z M38,48c-1.104,0-2,0.895-2,2c0,1.104,0.896,2,2,2s2-0.896,2-2
			C40,48.895,39.104,48,38,48z M38,42c-1.104,0-2,0.895-2,2c0,1.104,0.896,2,2,2s2-0.896,2-2C40,42.895,39.104,42,38,42z M38,36
			c-1.104,0-2,0.895-2,2c0,1.104,0.896,2,2,2s2-0.896,2-2C40,36.895,39.104,36,38,36z M38,30c-1.104,0-2,0.895-2,2
			c0,1.104,0.896,2,2,2s2-0.896,2-2C40,30.895,39.104,30,38,30z M38,23.999c-1.104,0-2,0.896-2,2.001c0,1.104,0.896,1.999,2,1.999
			s2-0.895,2-1.999C40,24.895,39.104,23.999,38,23.999z M38,12c-1.104,0-2,0.896-2,2s0.896,2,2,2s2-0.896,2-2S39.104,12,38,12z
			 M38,6c-1.104,0-2,0.895-2,2c0,1.104,0.896,2,2,2s2-0.896,2-2C40,6.895,39.104,6,38,6z M20,54c-1.104,0-2,0.896-2,2
			c0,1.104,0.896,1.999,2,1.999s2-0.896,2-1.999C22,54.896,21.104,54,20,54z M20,48c-1.104,0-2,0.895-2,2c0,1.104,0.896,2,2,2
			s2-0.896,2-2C22,48.895,21.104,48,20,48z M20,42c-1.104,0-2,0.895-2,2c0,1.104,0.896,2,2,2s2-0.896,2-2C22,42.895,21.104,42,20,42
			z M20,30c-1.104,0-2,0.895-2,2c0,1.104,0.896,2,2,2s2-0.896,2-2C22,30.895,21.104,30,20,30z M20,23.999c-1.104,0-2,0.896-2,2.001
			c0,1.104,0.896,1.999,2,1.999s2-0.895,2-1.999C22,24.895,21.104,23.999,20,23.999z M20,18c-1.104,0-2,0.895-2,2
			c0,1.104,0.896,2,2,2s2-0.896,2-2C22,18.895,21.104,18,20,18z M20,12c-1.104,0-2,0.896-2,2s0.896,2,2,2s2-0.896,2-2
			S21.104,12,20,12z M20,6c-1.104,0-2,0.895-2,2c0,1.104,0.896,2,2,2s2-0.896,2-2C22,6.895,21.104,6,20,6z M56,22
			c1.104,0,2-0.896,2-2c0-1.105-0.896-2-2-2s-2,0.895-2,2C54,21.104,54.896,22,56,22z M50,18c-1.104,0-2,0.895-2,2
			c0,1.104,0.896,2,2,2s2-0.896,2-2C52,18.895,51.104,18,50,18z M44,18c-1.104,0-2,0.895-2,2c0,1.104,0.896,2,2,2s2-0.896,2-2
			C46,18.895,45.104,18,44,18z M38,18c-1.104,0-2,0.895-2,2c0,1.104,0.896,2,2,2s2-0.896,2-2C40,18.895,39.104,18,38,18z M32,18
			c-1.104,0-2,0.895-2,2c0,1.104,0.896,2,2,2s2-0.896,2-2C34,18.895,33.104,18,32,18z M26,18c-1.104,0-2,0.895-2,2
			c0,1.104,0.896,2,2,2s2-0.896,2-2C28,18.895,27.104,18,26,18z M14,18c-1.104,0-2,0.895-2,2c0,1.104,0.896,2,2,2s2-0.896,2-2
			C16,18.895,15.104,18,14,18z M56,36c-1.104,0-2,0.895-2,2c0,1.104,0.896,2,2,2s2-0.896,2-2C58,36.895,57.104,36,56,36z M50,36
			c-1.104,0-2,0.895-2,2c0,1.104,0.896,2,2,2s2-0.896,2-2C52,36.895,51.104,36,50,36z M44,36c-1.104,0-2,0.895-2,2
			c0,1.104,0.896,2,2,2s2-0.896,2-2C46,36.895,45.104,36,44,36z M32,36c-1.104,0-2,0.895-2,2c0,1.104,0.896,2,2,2s2-0.896,2-2
			C34,36.895,33.104,36,32,36z M26,36c-1.104,0-2,0.895-2,2c0,1.104,0.896,2,2,2s2-0.896,2-2C28,36.895,27.104,36,26,36z M20,36
			c-1.104,0-2,0.895-2,2c0,1.104,0.896,2,2,2s2-0.896,2-2C22,36.895,21.104,36,20,36z M14,36c-1.104,0-2,0.895-2,2
			c0,1.104,0.896,2,2,2s2-0.896,2-2C16,36.895,15.104,36,14,36z M8,18c-1.104,0-2,0.895-2,2c0,1.104,0.896,2,2,2s2-0.896,2-2
			C10,18.895,9.104,18,8,18z M8,36c-1.104,0-2,0.895-2,2c0,1.104,0.896,2,2,2s2-0.896,2-2C10,36.895,9.104,36,8,36z"/>
	</g>
</g>
<g id="Object">
	<g>
		<path style="fill-rule:evenodd;clip-rule:evenodd;fill:#88C057;" d="M36,18H22c-2.209,0-4,1.79-4,4v14c0,2.209,1.791,4,4,4h14
			c2.209,0,4-1.791,4-4V22C40,19.79,38.209,18,36,18z M36,34c0,1.104-0.896,2-2,2H24c-1.104,0-2-0.896-2-2V23.999
			C22,22.895,22.896,22,24,22h10c1.104,0,2,0.895,2,1.999V34z"/>
	</g>
</g>
<g>
</g>
<g>
</g>
<g>
</g>
<g>
</g>
<g>
</g>
<g>
</g>
<g>
</g>
<g>
</g>
<g>
</g>
<g>
</g>
<g>
</g>
<g>
</g>
<g>
</g>
<g>
</g>
<g>
</g>
</svg>
