<?xml version="1.0" encoding="iso-8859-1"?>
<!-- Generator: Adobe Illustrator 16.0.0, SVG Export Plug-In . SVG Version: 6.00 Build 0)  -->
<!DOCTYPE svg PUBLIC "-//W3C//DTD SVG 1.1//EN" "http://www.w3.org/Graphics/SVG/1.1/DTD/svg11.dtd">
<svg version="1.1" id="Layer_1" xmlns="http://www.w3.org/2000/svg" xmlns:xlink="http://www.w3.org/1999/xlink" x="0px" y="0px"
	 width="64px" height="60px" viewBox="0 0 64 60" style="enable-background:new 0 0 64 60;" xml:space="preserve">
<g id="_x33_">
	<g>
		<path style="fill-rule:evenodd;clip-rule:evenodd;fill:#ED7161;" d="M64,38c0-0.011-0.003-0.021-0.003-0.031
			c0.008-0.503-0.176-1.009-0.56-1.393c-0.286-0.285-0.64-0.46-1.009-0.527C62.29,36.019,62.147,36,62,36H50c-1.104,0-2,0.895-2,2
			c0,1.104,0.896,2,2,2h7.299l-4.723,4.723c-0.75,0.75-0.75,1.966,0,2.716c0.393,0.392,0.912,0.573,1.427,0.556L54,48h2
			c2.209,0,4,1.79,4,3.999C60,54.209,58.209,56,56,56s-4-1.791-4-4.001c0-1.104-0.896-2-2-2s-2,0.896-2,2C48,56.418,51.582,60,56,60
			s8-3.582,8-8.001c0-3.592-2.368-6.631-5.627-7.642l4.642-4.644C63.603,39.365,64,38.732,64,38z"/>
	</g>
</g>
<g id="Heading_5_">
	<g>
		<polygon style="fill-rule:evenodd;clip-rule:evenodd;fill:#CCCCCC;" points="32,0 32,25.999 12,25.999 12,0 0,0 0,55.999 
			12,55.999 12,34 32,34 32,55.999 44,55.999 44,0 		"/>
	</g>
</g>
<g>
</g>
<g>
</g>
<g>
</g>
<g>
</g>
<g>
</g>
<g>
</g>
<g>
</g>
<g>
</g>
<g>
</g>
<g>
</g>
<g>
</g>
<g>
</g>
<g>
</g>
<g>
</g>
<g>
</g>
</svg>
