<?xml version="1.0" encoding="iso-8859-1"?>
<!-- Generator: Adobe Illustrator 16.0.0, SVG Export Plug-In . SVG Version: 6.00 Build 0)  -->
<!DOCTYPE svg PUBLIC "-//W3C//DTD SVG 1.1//EN" "http://www.w3.org/Graphics/SVG/1.1/DTD/svg11.dtd">
<svg version="1.1" id="Layer_1" xmlns="http://www.w3.org/2000/svg" xmlns:xlink="http://www.w3.org/1999/xlink" x="0px" y="0px"
	 width="64px" height="60px" viewBox="0 0 64 60" style="enable-background:new 0 0 64 60;" xml:space="preserve">
<g id="_x36_">
	<g>
		<path style="fill-rule:evenodd;clip-rule:evenodd;fill:#ED7161;" d="M56,43.999c-1.078,0-2.104,0.216-3.042,0.603
			C54.063,41.545,55.872,40.371,57,40c1.104,0,2-0.896,2-2c0-1.105-0.896-2-2-2c-3.655,0-8.793,5.539-8.982,14.499H48v1.5
			C48,56.418,51.582,60,56,60s8-3.582,8-8.001C64,47.581,60.418,43.999,56,43.999z M56,56c-2.209,0-4-1.791-4-4.001
			C52,49.79,53.791,48,56,48s4,1.79,4,3.999C60,54.209,58.209,56,56,56z"/>
	</g>
</g>
<g id="Heading_2_">
	<g>
		<polygon style="fill-rule:evenodd;clip-rule:evenodd;fill:#CCCCCC;" points="32,0 32,25.999 12,25.999 12,0 0,0 0,55.999 
			12,55.999 12,34 32,34 32,55.999 44,55.999 44,0 		"/>
	</g>
</g>
<g>
</g>
<g>
</g>
<g>
</g>
<g>
</g>
<g>
</g>
<g>
</g>
<g>
</g>
<g>
</g>
<g>
</g>
<g>
</g>
<g>
</g>
<g>
</g>
<g>
</g>
<g>
</g>
<g>
</g>
</svg>
