<?xml version="1.0" encoding="iso-8859-1"?>
<!-- Generator: Adobe Illustrator 16.0.0, SVG Export Plug-In . SVG Version: 6.00 Build 0)  -->
<!DOCTYPE svg PUBLIC "-//W3C//DTD SVG 1.1//EN" "http://www.w3.org/Graphics/SVG/1.1/DTD/svg11.dtd">
<svg version="1.1" id="Layer_1" xmlns="http://www.w3.org/2000/svg" xmlns:xlink="http://www.w3.org/1999/xlink" x="0px" y="0px"
	 width="64px" height="59.999px" viewBox="0 0 64 59.999" style="enable-background:new 0 0 64 59.999;" xml:space="preserve">
<g id="_x38_">
	<g>
		<path style="fill-rule:evenodd;clip-rule:evenodd;fill:#ED7161;" d="M60.471,45.958c0.933-1.057,1.503-2.442,1.503-3.966
			c0-3.31-2.675-5.993-5.974-5.993s-5.974,2.684-5.974,5.993c0,1.523,0.57,2.909,1.503,3.966C49.4,47.961,48,51.144,48,53.866
			c0,4.354,3.582,6.133,8,6.133s8-1.778,8-6.133C64,51.144,62.6,47.961,60.471,45.958z M56,39.995c1.1,0,1.991,0.896,1.991,1.999
			S57.1,43.992,56,43.992s-1.992-0.895-1.992-1.998S54.9,39.995,56,39.995z M56,55.994c-2.213,0-4.006-0.238-4.006-3.004
			c0-2.758,1.784-4.993,3.989-5.005c0.006,0,0.011,0.001,0.017,0.001s0.011-0.001,0.017-0.001c2.205,0.012,3.989,2.247,3.989,5.005
			C60.006,55.756,58.213,55.994,56,55.994z"/>
	</g>
</g>
<g id="Heading">
	<g>
		<polygon style="fill-rule:evenodd;clip-rule:evenodd;fill:#CCCCCC;" points="32,0 32,25.999 12,25.999 12,0 0,0 0,55.999 
			12,55.999 12,34 32,34 32,55.999 44,55.999 44,0 		"/>
	</g>
</g>
<g>
</g>
<g>
</g>
<g>
</g>
<g>
</g>
<g>
</g>
<g>
</g>
<g>
</g>
<g>
</g>
<g>
</g>
<g>
</g>
<g>
</g>
<g>
</g>
<g>
</g>
<g>
</g>
<g>
</g>
</svg>
