<?xml version="1.0" encoding="iso-8859-1"?>
<!-- Generator: Adobe Illustrator 16.0.0, SVG Export Plug-In . SVG Version: 6.00 Build 0)  -->
<!DOCTYPE svg PUBLIC "-//W3C//DTD SVG 1.1//EN" "http://www.w3.org/Graphics/SVG/1.1/DTD/svg11.dtd">
<svg version="1.1" id="Layer_1" xmlns="http://www.w3.org/2000/svg" xmlns:xlink="http://www.w3.org/1999/xlink" x="0px" y="0px"
	 width="64px" height="60px" viewBox="0 0 64 60" style="enable-background:new 0 0 64 60;" xml:space="preserve">
<g id="_x35_">
	<g>
		<path style="fill-rule:evenodd;clip-rule:evenodd;fill:#ED7161;" d="M56,43.999h-4.007V40H60c1.104,0,2-0.896,2-2
			c0-1.105-0.896-2-2-2H50c-1.104,0-2,0.895-2,2c0,0.07,0.014,0.138,0.021,0.206c-0.009,0.076-0.023,0.151-0.023,0.229v7.613
			c0,0.052,0.019,0.098,0.022,0.147c0.01,0.095,0.021,0.187,0.043,0.276c0.022,0.096,0.05,0.187,0.086,0.276
			c0.018,0.044,0.041,0.084,0.062,0.126c0.072,0.146,0.158,0.28,0.265,0.403c0.053,0.063,0.105,0.124,0.166,0.181
			c0.049,0.044,0.098,0.086,0.151,0.125c0.124,0.096,0.257,0.18,0.401,0.243c-0.036,0.06-0.08,0.112-0.115,0.173H50h4h2
			c2.209,0,4,1.79,4,3.999C60,54.209,58.209,56,56,56s-4-1.791-4-4.001c0-1.104-0.896-2-2-2s-2,0.896-2,2C48,56.418,51.582,60,56,60
			s8-3.582,8-8.001C64,47.581,60.418,43.999,56,43.999z"/>
	</g>
</g>
<g id="Heading_3_">
	<g>
		<polygon style="fill-rule:evenodd;clip-rule:evenodd;fill:#CCCCCC;" points="32,0 32,25.999 12,25.999 12,0 0,0 0,55.999 
			12,55.999 12,34 32,34 32,55.999 44,55.999 44,0 		"/>
	</g>
</g>
<g>
</g>
<g>
</g>
<g>
</g>
<g>
</g>
<g>
</g>
<g>
</g>
<g>
</g>
<g>
</g>
<g>
</g>
<g>
</g>
<g>
</g>
<g>
</g>
<g>
</g>
<g>
</g>
<g>
</g>
</svg>
