<?xml version="1.0" encoding="iso-8859-1"?>
<!-- Generator: Adobe Illustrator 16.0.0, SVG Export Plug-In . SVG Version: 6.00 Build 0)  -->
<!DOCTYPE svg PUBLIC "-//W3C//DTD SVG 1.1//EN" "http://www.w3.org/Graphics/SVG/1.1/DTD/svg11.dtd">
<svg version="1.1" id="Layer_1" xmlns="http://www.w3.org/2000/svg" xmlns:xlink="http://www.w3.org/1999/xlink" x="0px" y="0px"
	 width="64px" height="60px" viewBox="0 0 64 60" style="enable-background:new 0 0 64 60;" xml:space="preserve">
<g id="_x32_">
	<g>
		<path style="fill-rule:evenodd;clip-rule:evenodd;fill:#ED7161;" d="M62,56h-7.111l5.911-5.601l-0.005-0.007
			C62.737,48.934,64,46.617,64,43.999C64,39.581,60.418,36,56,36s-8,3.581-8,7.999C48,45.104,48.896,46,50,46s2-0.896,2-2.001
			C52,41.79,53.791,40,56,40s4,1.79,4,3.999c0,1.078-0.738,2.409-1.846,3.231l0.006,0.009l-9.597,9.468
			c-0.356,0.356-0.538,0.818-0.556,1.285L48,57.999c0,0.011,0.003,0.021,0.003,0.032c-0.008,0.502,0.176,1.007,0.56,1.391
			c0.285,0.285,0.638,0.461,1.007,0.529C49.708,59.981,49.852,60,50,60h12c1.104,0,2-0.896,2-2.001S63.104,56,62,56z"/>
	</g>
</g>
<g id="Heading_6_">
	<g>
		<polygon style="fill-rule:evenodd;clip-rule:evenodd;fill:#CCCCCC;" points="32,0 32,25.999 12,25.999 12,0 0,0 0,55.999 
			12,55.999 12,34 32,34 32,55.999 44,55.999 44,0 		"/>
	</g>
</g>
<g>
</g>
<g>
</g>
<g>
</g>
<g>
</g>
<g>
</g>
<g>
</g>
<g>
</g>
<g>
</g>
<g>
</g>
<g>
</g>
<g>
</g>
<g>
</g>
<g>
</g>
<g>
</g>
<g>
</g>
</svg>
