<?xml version="1.0" encoding="iso-8859-1"?>
<!-- Generator: Adobe Illustrator 16.0.0, SVG Export Plug-In . SVG Version: 6.00 Build 0)  -->
<!DOCTYPE svg PUBLIC "-//W3C//DTD SVG 1.1//EN" "http://www.w3.org/Graphics/SVG/1.1/DTD/svg11.dtd">
<svg version="1.1" id="Layer_1" xmlns="http://www.w3.org/2000/svg" xmlns:xlink="http://www.w3.org/1999/xlink" x="0px" y="0px"
	 width="64px" height="60.017px" viewBox="0 0 64 60.017" style="enable-background:new 0 0 64 60.017;" xml:space="preserve">
<g id="_x37_">
	<g>
		<path style="fill-rule:evenodd;clip-rule:evenodd;fill:#ED7161;" d="M63.955,38.293c0.014-0.07,0.026-0.141,0.032-0.212
			C63.989,38.054,64,38.027,64,38s-0.007-0.053-0.008-0.08c-0.002-0.669-0.352-1.319-0.992-1.678
			c-0.384-0.215-0.809-0.286-1.218-0.242H50c-1.104,0-2,0.895-2,2c0,1.104,0.896,2,2,2h9.058l-6.79,17.107
			c-0.552,0.928-0.225,2.113,0.732,2.649c0.957,0.535,2.18,0.217,2.732-0.71l8-20.154c0.086-0.145,0.144-0.297,0.188-0.451
			C63.937,38.393,63.943,38.343,63.955,38.293z"/>
	</g>
</g>
<g id="Heading_1_">
	<g>
		<polygon style="fill-rule:evenodd;clip-rule:evenodd;fill:#CCCCCC;" points="32,0 32,25.999 12,25.999 12,0 0,0 0,55.999 
			12,55.999 12,34 32,34 32,55.999 44,55.999 44,0 		"/>
	</g>
</g>
<g>
</g>
<g>
</g>
<g>
</g>
<g>
</g>
<g>
</g>
<g>
</g>
<g>
</g>
<g>
</g>
<g>
</g>
<g>
</g>
<g>
</g>
<g>
</g>
<g>
</g>
<g>
</g>
<g>
</g>
</svg>
