<?xml version="1.0" encoding="iso-8859-1"?>
<!-- Generator: Adobe Illustrator 16.0.0, SVG Export Plug-In . SVG Version: 6.00 Build 0)  -->
<!DOCTYPE svg PUBLIC "-//W3C//DTD SVG 1.1//EN" "http://www.w3.org/Graphics/SVG/1.1/DTD/svg11.dtd">
<svg version="1.1" id="Layer_1" xmlns="http://www.w3.org/2000/svg" xmlns:xlink="http://www.w3.org/1999/xlink" x="0px" y="0px"
	 width="64px" height="60px" viewBox="0 0 64 60" style="enable-background:new 0 0 64 60;" xml:space="preserve">
<g id="_x34_">
	<g>
		<path style="fill-rule:evenodd;clip-rule:evenodd;fill:#ED7161;" d="M62,49.999V48c0-1.105-0.896-2-2-2s-2,0.895-2,2v1.999h-4.558
			l6.29-10.969c0.552-0.964,0.224-2.195-0.732-2.752c-0.957-0.556-2.18-0.226-2.732,0.737l-8,13.953
			c-0.107,0.188-0.172,0.387-0.214,0.587c-0.005,0.022-0.011,0.045-0.015,0.068c-0.017,0.091-0.024,0.183-0.028,0.273
			C48.008,51.932,48,51.965,48,51.999c0,0.021,0.005,0.039,0.006,0.06c0.002,0.057,0.01,0.112,0.017,0.169
			c0.01,0.087,0.022,0.172,0.042,0.255c0.004,0.018,0.011,0.033,0.016,0.051c0.213,0.766,0.864,1.34,1.67,1.441
			c0.001,0,0.003,0,0.005,0.001C49.837,53.985,49.917,54,50,54h8v3.999C58,59.104,58.896,60,60,60s2-0.896,2-2.001V54
			c1.104,0,2-0.896,2-2.001C64,50.895,63.104,49.999,62,49.999z"/>
	</g>
</g>
<g id="Heading_4_">
	<g>
		<polygon style="fill-rule:evenodd;clip-rule:evenodd;fill:#CCCCCC;" points="32,0 32,25.999 12,25.999 12,0 0,0 0,55.999 
			12,55.999 12,34 32,34 32,55.999 44,55.999 44,0 		"/>
	</g>
</g>
<g>
</g>
<g>
</g>
<g>
</g>
<g>
</g>
<g>
</g>
<g>
</g>
<g>
</g>
<g>
</g>
<g>
</g>
<g>
</g>
<g>
</g>
<g>
</g>
<g>
</g>
<g>
</g>
<g>
</g>
</svg>
