<?xml version="1.0" encoding="iso-8859-1"?>
<!-- Generator: Adobe Illustrator 16.0.0, SVG Export Plug-In . SVG Version: 6.00 Build 0)  -->
<!DOCTYPE svg PUBLIC "-//W3C//DTD SVG 1.1//EN" "http://www.w3.org/Graphics/SVG/1.1/DTD/svg11.dtd">
<svg version="1.1" id="Layer_1" xmlns="http://www.w3.org/2000/svg" xmlns:xlink="http://www.w3.org/1999/xlink" x="0px" y="0px"
	 width="64px" height="60px" viewBox="0 0 64 60" style="enable-background:new 0 0 64 60;" xml:space="preserve">
<g id="Hexagon">
	<g>
		<polygon style="fill-rule:evenodd;clip-rule:evenodd;fill:#88C057;" points="52,36 52,24 58.535,24 51.607,12 40,12 40,4.019 
			24,4.019 24,12 12.394,12 5.465,24 12,24 12,36 5.464,36 12.392,48 24,48 24,55.98 40,55.98 40,48 51.607,48 58.536,36 		"/>
	</g>
</g>
<g id="Container_32_">
	<g>
		<polygon style="fill:#FFFFFF;" points="44.691,8.017 19.31,8.017 6.615,30 19.307,51.985 44.693,51.985 57.385,30.001 		"/>
	</g>
</g>
<g id="Anchors_1_">
	<g>
		<path style="fill-rule:evenodd;clip-rule:evenodd;fill:#999999;" d="M52,0H40v12h12V0z M48,8h-4V4h4V8z M12,24H0v12h12V24z M8,32
			H4v-4h4V32z M52,24v12h12V24H52z M60,32h-4v-4h4V32z M12,60h12V48H12V60z M16,52h4v4h-4V52z M12,12h12V0H12V12z M16,4h4v4h-4V4z
			 M40,60h12V48H40V60z M44,52h4v4h-4V52z"/>
	</g>
</g>
<g>
</g>
<g>
</g>
<g>
</g>
<g>
</g>
<g>
</g>
<g>
</g>
<g>
</g>
<g>
</g>
<g>
</g>
<g>
</g>
<g>
</g>
<g>
</g>
<g>
</g>
<g>
</g>
<g>
</g>
</svg>
