<?xml version="1.0" encoding="iso-8859-1"?>
<!-- Generator: Adobe Illustrator 16.0.0, SVG Export Plug-In . SVG Version: 6.00 Build 0)  -->
<!DOCTYPE svg PUBLIC "-//W3C//DTD SVG 1.1//EN" "http://www.w3.org/Graphics/SVG/1.1/DTD/svg11.dtd">
<svg version="1.1" id="Layer_1" xmlns="http://www.w3.org/2000/svg" xmlns:xlink="http://www.w3.org/1999/xlink" x="0px" y="0px"
	 width="64px" height="64.001px" viewBox="0 0 64 64.001" style="enable-background:new 0 0 64 64.001;" xml:space="preserve">
<g id="Marquee_1_">
	<g>
		<path style="fill-rule:evenodd;clip-rule:evenodd;fill:#CCCCCC;" d="M40,4.002h8V0h-8V4.002z M40,64.001h8v-4h-8V64.001z
			 M0,24.001h4v-8H0V24.001z M16,4.002h8V0h-8V4.002z M28,4.002h8V0h-8V4.002z M60,36.001h4v-8h-4V36.001z M60,24.001h4v-8h-4
			V24.001z M60,48.002h4v-8h-4V48.002z M60,0h-8v4.002h6c1.104,0,2,0.895,2,1.999v6.001h4v-8C64,1.792,62.209,0,60,0z M60,58.001
			c0,1.104-0.896,2-2,2h-6v4h8c2.209,0,4-1.791,4-4v-8h-4V58.001z M0,4.002v8h4V6.001c0-1.104,0.895-1.999,2-1.999h6V0H4
			C1.791,0,0,1.792,0,4.002z"/>
	</g>
</g>
<g id="Arrow_11_">
	<g>
		<path style="fill-rule:evenodd;clip-rule:evenodd;fill:#ED7161;" d="M52.32,10.033c-0.301-0.074-0.614-0.089-0.919-0.032H44
			c-1.105,0-2,0.896-2,2.001c0,1.104,0.895,2,2,2h2.863l-8.266,8.266c-0.847,0.849-0.847,2.222,0,3.068
			c0.847,0.848,2.221,0.848,3.068,0L50,17.001v3.001c0,1.104,0.895,1.999,2,1.999c1.104,0,2-0.896,2-1.999v-8
			C54,11.006,53.271,10.188,52.32,10.033z"/>
	</g>
</g>
<g id="Object_6_">
	<g>
		<path style="fill:#ED7161;" d="M32,28.001H4c-2.209,0-4,1.791-4,4v28c0,2.209,1.791,4,4,4h28c2.209,0,4-1.791,4-4v-28
			C36,29.792,34.209,28.001,32,28.001z"/>
	</g>
</g>
<g>
</g>
<g>
</g>
<g>
</g>
<g>
</g>
<g>
</g>
<g>
</g>
<g>
</g>
<g>
</g>
<g>
</g>
<g>
</g>
<g>
</g>
<g>
</g>
<g>
</g>
<g>
</g>
<g>
</g>
</svg>
