<?xml version="1.0" encoding="iso-8859-1"?>
<!-- Generator: Adobe Illustrator 16.0.0, SVG Export Plug-In . SVG Version: 6.00 Build 0)  -->
<!DOCTYPE svg PUBLIC "-//W3C//DTD SVG 1.1//EN" "http://www.w3.org/Graphics/SVG/1.1/DTD/svg11.dtd">
<svg version="1.1" id="Layer_1" xmlns="http://www.w3.org/2000/svg" xmlns:xlink="http://www.w3.org/1999/xlink" x="0px" y="0px"
	 width="64px" height="64px" viewBox="0 0 64 64" style="enable-background:new 0 0 64 64;" xml:space="preserve">
<g id="Text_6_">
	<g>
		<path style="fill-rule:evenodd;clip-rule:evenodd;fill:#CCCCCC;" d="M30,26H14c-1.104,0-2,0.895-2,1.999c0,1.105,0.896,2,2,2h16
			c1.104,0,2-0.895,2-2C32,26.895,31.104,26,30,26z M30,42H14c-1.104,0-2,0.895-2,2c0,1.104,0.896,1.999,2,1.999h16
			c1.104,0,2-0.895,2-1.999C32,42.895,31.104,42,30,42z M30,10H14c-1.104,0-2,0.896-2,1.999c0,1.105,0.896,2,2,2h16
			c1.104,0,2-0.895,2-2C32,10.896,31.104,10,30,10z M30,58H14c-1.104,0-2,0.896-2,1.999c0,1.105,0.896,2,2,2h16c1.104,0,2-0.895,2-2
			C32,58.896,31.104,58,30,58z M30,17.999H2c-1.104,0-2,0.896-2,2.001c0,1.104,0.896,1.999,2,1.999h28c1.104,0,2-0.896,2-1.999
			C32,18.896,31.104,17.999,30,17.999z M2,5.999h28c1.104,0,2-0.895,2-1.999s-0.896-2.001-2-2.001H2C0.896,1.999,0,2.896,0,4
			S0.896,5.999,2,5.999z M30,33.999H2c-1.104,0-2,0.896-2,2C0,37.104,0.896,38,2,38h28c1.104,0,2-0.896,2-2.001
			C32,34.895,31.104,33.999,30,33.999z M30,49.999H2c-1.104,0-2,0.896-2,2.001c0,1.104,0.896,2,2,2h28c1.104,0,2-0.896,2-2
			C32,50.895,31.104,49.999,30,49.999z"/>
	</g>
</g>
<g id="Arrow_3_">
	<g>
		<path style="fill-rule:evenodd;clip-rule:evenodd;fill:#48A0DC;" d="M62,30.019H50.81l4.604-4.604C55.775,25.053,56,24.553,56,24
			c0-1.104-0.896-2-2-2c-0.553,0-1.053,0.224-1.415,0.586l-7.999,8C44.224,30.948,44,31.448,44,32c0,0.553,0.224,1.053,0.586,1.415
			l7.999,8c0.362,0.361,0.862,0.586,1.415,0.586c1.104,0,2-0.896,2-2.001c0-0.552-0.225-1.052-0.586-1.414l-4.604-4.604H62
			c1.104,0,2-0.887,2-1.981S63.104,30.019,62,30.019z M38,0c-1.104,0-2,0.896-2,2v60c0,1.104,0.896,2,2,2s2-0.896,2-2V2
			C40,0.896,39.104,0,38,0z"/>
	</g>
</g>
<g>
</g>
<g>
</g>
<g>
</g>
<g>
</g>
<g>
</g>
<g>
</g>
<g>
</g>
<g>
</g>
<g>
</g>
<g>
</g>
<g>
</g>
<g>
</g>
<g>
</g>
<g>
</g>
<g>
</g>
</svg>
