<?xml version="1.0" encoding="iso-8859-1"?>
<!-- Generator: Adobe Illustrator 16.0.0, SVG Export Plug-In . SVG Version: 6.00 Build 0)  -->
<!DOCTYPE svg PUBLIC "-//W3C//DTD SVG 1.1//EN" "http://www.w3.org/Graphics/SVG/1.1/DTD/svg11.dtd">
<svg version="1.1" id="Layer_1" xmlns="http://www.w3.org/2000/svg" xmlns:xlink="http://www.w3.org/1999/xlink" x="0px" y="0px"
	 width="64px" height="64px" viewBox="0 0 64 64" style="enable-background:new 0 0 64 64;" xml:space="preserve">
<g id="Text_7_">
	<g>
		<path style="fill-rule:evenodd;clip-rule:evenodd;fill:#CCCCCC;" d="M34,29.999h16c1.105,0,2-0.895,2-2C52,26.895,51.104,26,50,26
			H34c-1.104,0-2,0.895-2,1.999C32,29.104,32.895,29.999,34,29.999z M34,45.999h16c1.105,0,2-0.895,2-1.999c0-1.105-0.896-2-2-2H34
			c-1.104,0-2,0.895-2,2C32,45.104,32.895,45.999,34,45.999z M34,13.999h16c1.105,0,2-0.895,2-2C52,10.896,51.104,10,50,10H34
			c-1.104,0-2,0.896-2,1.999C32,13.104,32.895,13.999,34,13.999z M50,58H34c-1.104,0-2,0.896-2,1.999c0,1.105,0.896,2,2,2h16
			c1.105,0,2-0.895,2-2C52,58.896,51.104,58,50,58z M62,17.999H34c-1.104,0-2,0.896-2,2.001c0,1.104,0.896,1.999,2,1.999h28
			c1.104,0,2-0.896,2-1.999C64,18.896,63.104,17.999,62,17.999z M34,5.999h28c1.104,0,2-0.895,2-1.999s-0.896-2.001-2-2.001H34
			c-1.104,0-2,0.896-2,2.001S32.895,5.999,34,5.999z M62,33.999H34c-1.104,0-2,0.896-2,2C32,37.104,32.895,38,34,38h28
			c1.104,0,2-0.896,2-2.001C64,34.895,63.104,33.999,62,33.999z M62,49.999H34c-1.104,0-2,0.896-2,2.001c0,1.104,0.896,2,2,2h28
			c1.104,0,2-0.896,2-2C64,50.895,63.104,49.999,62,49.999z"/>
	</g>
</g>
<g id="Arrow_4_">
	<g>
		<path style="fill-rule:evenodd;clip-rule:evenodd;fill:#48A0DC;" d="M11.414,22.586C11.052,22.224,10.552,22,10,22
			c-1.104,0-2,0.896-2,2c0,0.553,0.224,1.053,0.586,1.415l4.604,4.604H2c-1.105,0-2,0.887-2,1.981s0.895,1.981,2,1.981h11.19
			l-4.604,4.604C8.224,38.948,8,39.448,8,40c0,1.105,0.896,2.001,2,2.001c0.552,0,1.052-0.225,1.414-0.586l8-8
			C19.776,33.053,20,32.553,20,32c0-0.552-0.224-1.052-0.586-1.414L11.414,22.586z M26,0c-1.104,0-2,0.896-2,2v60
			c0,1.104,0.896,2,2,2s2-0.896,2-2V2C28,0.896,27.104,0,26,0z"/>
	</g>
</g>
<g>
</g>
<g>
</g>
<g>
</g>
<g>
</g>
<g>
</g>
<g>
</g>
<g>
</g>
<g>
</g>
<g>
</g>
<g>
</g>
<g>
</g>
<g>
</g>
<g>
</g>
<g>
</g>
<g>
</g>
</svg>
