<?xml version="1.0" encoding="iso-8859-1"?>
<!-- Generator: Adobe Illustrator 16.0.0, SVG Export Plug-In . SVG Version: 6.00 Build 0)  -->
<!DOCTYPE svg PUBLIC "-//W3C//DTD SVG 1.1//EN" "http://www.w3.org/Graphics/SVG/1.1/DTD/svg11.dtd">
<svg version="1.1" id="Layer_1" xmlns="http://www.w3.org/2000/svg" xmlns:xlink="http://www.w3.org/1999/xlink" x="0px" y="0px"
	 width="63.999px" height="59.999px" viewBox="0 0 63.999 59.999" style="enable-background:new 0 0 63.999 59.999;"
	 xml:space="preserve">
<g id="Text_5_">
	<g>
		<path style="fill-rule:evenodd;clip-rule:evenodd;fill:#CCCCCC;" d="M26,27.999h24c1.104,0,2-0.895,2-2C52,24.895,51.104,24,50,24
			H26c-1.105,0-2,0.895-2,1.999C24,27.104,24.895,27.999,26,27.999z M26,43.999h24c1.104,0,2-0.895,2-1.999c0-1.105-0.896-2-2-2H26
			c-1.105,0-2,0.895-2,2C24,43.104,24.895,43.999,26,43.999z M34,11.999h16c1.104,0,2-0.895,2-2C52,8.896,51.104,8,50,8H34
			c-1.105,0-2,0.896-2,1.999C32,11.104,32.895,11.999,34,11.999z M50,56H26c-1.105,0-2,0.896-2,1.999c0,1.105,0.895,2,2,2h24
			c1.104,0,2-0.895,2-2C52,56.896,51.104,56,50,56z M26,19.999h36c1.104,0,1.999-0.896,1.999-1.999c0-1.104-0.895-2.001-1.999-2.001
			H26c-1.105,0-2,0.896-2,2.001C24,19.104,24.895,19.999,26,19.999z M62,31.999H26c-1.105,0-2,0.896-2,2C24,35.104,24.895,36,26,36
			h36c1.104,0,1.999-0.896,1.999-2.001C63.999,32.895,63.104,31.999,62,31.999z M62,47.999H26c-1.105,0-2,0.896-2,2.001
			c0,1.104,0.895,2,2,2h36c1.104,0,1.999-0.896,1.999-2C63.999,48.895,63.104,47.999,62,47.999z"/>
	</g>
</g>
<g id="Arrow_2_">
	<g>
		<path style="fill-rule:evenodd;clip-rule:evenodd;fill:#48A0DC;" d="M19.414,8.586l-8-8C11.052,0.224,10.553,0,10,0
			C8.896,0,8,0.896,8,2c0,0.553,0.224,1.053,0.586,1.415l4.603,4.603H2c-1.105,0-2,0.888-2,1.982s0.895,1.981,2,1.981h11.19
			l-4.604,4.604C8.224,16.948,8,17.448,8,18c0,1.104,0.896,2,2,2c0.553,0,1.052-0.224,1.414-0.586l8-7.999
			C19.776,11.053,20,10.553,20,10C20,9.448,19.776,8.948,19.414,8.586z"/>
	</g>
</g>
<g>
</g>
<g>
</g>
<g>
</g>
<g>
</g>
<g>
</g>
<g>
</g>
<g>
</g>
<g>
</g>
<g>
</g>
<g>
</g>
<g>
</g>
<g>
</g>
<g>
</g>
<g>
</g>
<g>
</g>
</svg>
