<?xml version="1.0" encoding="iso-8859-1"?>
<!-- Generator: Adobe Illustrator 16.0.0, SVG Export Plug-In . SVG Version: 6.00 Build 0)  -->
<!DOCTYPE svg PUBLIC "-//W3C//DTD SVG 1.1//EN" "http://www.w3.org/Graphics/SVG/1.1/DTD/svg11.dtd">
<svg version="1.1" id="Layer_1" xmlns="http://www.w3.org/2000/svg" xmlns:xlink="http://www.w3.org/1999/xlink" x="0px" y="0px"
	 width="40px" height="64.001px" viewBox="0 0 40 64.001" style="enable-background:new 0 0 40 64.001;" xml:space="preserve">
<g id="I">
	<g>
		<path style="fill-rule:evenodd;clip-rule:evenodd;fill:#ED7161;" d="M38,0H14c-1.104,0-2,0.896-2,2.001s0.896,2,2,2h2v0.001
			c4,0,4.484,2.059,4,4L8,56.001C7.515,57.938,6.004,59.994,4.008,60H2c-1.104,0-2,0.896-2,2.001s0.896,2,2,2h24
			c1.104,0,2-0.896,2-2S27.104,60,26,60h-2.029c-3.972-0.011-4.455-2.063-3.971-3.999L32,8.002c0.485-1.941,2-4,4-4V4.001h2
			c1.104,0,2-0.896,2-2S39.104,0,38,0z"/>
	</g>
</g>
<g>
</g>
<g>
</g>
<g>
</g>
<g>
</g>
<g>
</g>
<g>
</g>
<g>
</g>
<g>
</g>
<g>
</g>
<g>
</g>
<g>
</g>
<g>
</g>
<g>
</g>
<g>
</g>
<g>
</g>
</svg>
