<?xml version="1.0" encoding="iso-8859-1"?>
<!-- Generator: Adobe Illustrator 16.0.0, SVG Export Plug-In . SVG Version: 6.00 Build 0)  -->
<!DOCTYPE svg PUBLIC "-//W3C//DTD SVG 1.1//EN" "http://www.w3.org/Graphics/SVG/1.1/DTD/svg11.dtd">
<svg version="1.1" id="Layer_1" xmlns="http://www.w3.org/2000/svg" xmlns:xlink="http://www.w3.org/1999/xlink" x="0px" y="0px"
	 width="64px" height="60px" viewBox="0 0 64 60" style="enable-background:new 0 0 64 60;" xml:space="preserve">
<g id="Arrow_6_">
	<g>
		<path style="fill-rule:evenodd;clip-rule:evenodd;fill:#48A0DC;" d="M62.001,48.019H30.81l4.604-4.604
			C35.776,43.053,36,42.553,36,42c0-1.104-0.896-2-2-2c-0.553,0-1.053,0.224-1.414,0.586l-8,8C24.224,48.948,24,49.448,24,50
			c0,0.553,0.224,1.053,0.586,1.415l8,8C32.947,59.776,33.447,60,34,60c1.104,0,2-0.896,2-2c0-0.552-0.224-1.052-0.586-1.414
			l-4.604-4.604h31.191C63.104,51.981,64,51.095,64,50S63.104,48.019,62.001,48.019z"/>
	</g>
</g>
<g id="A">
	<g>
		<path style="fill-rule:evenodd;clip-rule:evenodd;fill:#48A0DC;" d="M62,32.001L62,32.001c-1-0.001-1.641-1.067-2-2l-10-26
			C49.207,1.938,48.209,0,46,0s-3.207,1.938-4,4.001l-10,26C31.641,30.934,31,32,30,32v0.001c-1.104,0-2,0.895-2,1.999s0.896,2,2,2
			h8c1.104,0,2-0.896,2-2s-0.896-1.999-2-1.999V32c-2,0-2.359-1.066-2-1.999L36.77,28H51.23L52,30.001C52.359,30.934,52,32,50,32
			v0.001c-1.104,0-2,0.895-2,1.999s0.896,2,2,2h12c1.104,0,2-0.896,2-2S63.104,32.001,62,32.001z M38.308,24L44,9.201L49.691,24
			H38.308z"/>
	</g>
</g>
<g id="A_1_">
	<g>
		<path style="fill-rule:evenodd;clip-rule:evenodd;fill:#CCCCCC;" d="M34,0h-8c-1.104,0-2,0.896-2,2s0.896,2.001,2,2.001
			c2,0,2.358,1.066,2,2l-8,20.8l-8-20.8c-0.359-0.934,0-2,2-2c1.104,0,2-0.896,2-2.001s-0.896-2-2-2H2C0.896,0,0,0.896,0,2
			s0.896,2.001,2,2.001c1,0,1.641,1.066,2,2l10,26C14.793,34.063,15.791,36,18,36s3.207-1.938,4-3.999l10-26c0.359-0.934,1-2,2-2
			c1.104,0,2-0.896,2-2.001S35.104,0,34,0z"/>
	</g>
</g>
<g>
</g>
<g>
</g>
<g>
</g>
<g>
</g>
<g>
</g>
<g>
</g>
<g>
</g>
<g>
</g>
<g>
</g>
<g>
</g>
<g>
</g>
<g>
</g>
<g>
</g>
<g>
</g>
<g>
</g>
</svg>
