<?xml version="1.0" encoding="iso-8859-1"?>
<!-- Generator: Adobe Illustrator 16.0.0, SVG Export Plug-In . SVG Version: 6.00 Build 0)  -->
<!DOCTYPE svg PUBLIC "-//W3C//DTD SVG 1.1//EN" "http://www.w3.org/Graphics/SVG/1.1/DTD/svg11.dtd">
<svg version="1.1" id="Layer_1" xmlns="http://www.w3.org/2000/svg" xmlns:xlink="http://www.w3.org/1999/xlink" x="0px" y="0px"
	 width="64.006px" height="44.004px" viewBox="0 0 64.006 44.004" style="enable-background:new 0 0 64.006 44.004;"
	 xml:space="preserve">
<g id="Layer_17_">
	<g>
		<path style="fill:#CCCCCC;" d="M62.598,26.302L35.402,12.705c-1.877-0.939-4.921-0.939-6.799,0L1.408,26.302
			c-1.877,0.938-1.877,2.461,0,3.399L28.604,43.3c1.878,0.938,4.921,0.938,6.799,0l27.196-13.599
			C64.475,28.763,64.475,27.24,62.598,26.302z"/>
	</g>
</g>
<g id="Layer_18_">
	<g>
		<path style="fill:#88C057;" d="M62.598,14.303L35.402,0.704c-1.877-0.938-4.921-0.938-6.799,0L1.408,14.303
			c-1.877,0.938-1.877,2.46,0,3.399L28.604,31.3c1.878,0.938,4.921,0.938,6.799,0l27.196-13.598
			C64.475,16.763,64.475,15.241,62.598,14.303z"/>
	</g>
</g>
<g>
</g>
<g>
</g>
<g>
</g>
<g>
</g>
<g>
</g>
<g>
</g>
<g>
</g>
<g>
</g>
<g>
</g>
<g>
</g>
<g>
</g>
<g>
</g>
<g>
</g>
<g>
</g>
<g>
</g>
</svg>
