<?xml version="1.0" encoding="iso-8859-1"?>
<!-- Generator: Adobe Illustrator 16.0.0, SVG Export Plug-In . SVG Version: 6.00 Build 0)  -->
<!DOCTYPE svg PUBLIC "-//W3C//DTD SVG 1.1//EN" "http://www.w3.org/Graphics/SVG/1.1/DTD/svg11.dtd">
<svg version="1.1" id="Layer_1" xmlns="http://www.w3.org/2000/svg" xmlns:xlink="http://www.w3.org/1999/xlink" x="0px" y="0px"
	 width="64px" height="64.001px" viewBox="0 0 64 64.001" style="enable-background:new 0 0 64 64.001;" xml:space="preserve">
<g id="Margin_4_">
	<g>
		<path style="fill-rule:evenodd;clip-rule:evenodd;fill:#CCCCCC;" d="M10,6.002h8V2.001h-8V6.002z M22,6.002h8V2.001h-8V6.002z
			 M34,6.002h8V2.001h-8V6.002z M46,6.002h8V2.001h-8V6.002z M10,62.002h8v-4h-8V62.002z M22,62.002h8v-4h-8V62.002z M34,62.002h8
			v-4h-8V62.002z M46,62.002h8v-4h-8V62.002z M2,54.001h4v-8H2V54.001z M2,42.002h4v-8.001H2V42.002z M2,30.002h4v-8.001H2V30.002z
			 M2,18.001h4v-7.999H2V18.001z M58,54.002h4v-8.001h-4V54.002z M58,42.001h4v-7.999h-4V42.001z M58,30.002h4v-8.001h-4V30.002z
			 M58,10.001v8.001h4v-8.001H58z"/>
	</g>
</g>
<g id="Corners_4_">
	<g>
		<path style="fill-rule:evenodd;clip-rule:evenodd;fill:#666666;" d="M0,8h8V0H0V8z M56,0v8h8V0H56z M56,64.001h8V56h-8V64.001z
			 M0,64.001h8V56H0V64.001z"/>
	</g>
</g>
<g id="Layer_12_">
	<g>
		<path style="fill:#CCCCCC;" d="M53.006,35.821l-18.697-9.349c-1.291-0.646-3.383-0.646-4.674,0l-18.697,9.349
			c-1.291,0.646-1.291,1.691,0,2.337l18.697,9.349c1.291,0.645,3.383,0.645,4.674,0l18.697-9.349
			C54.296,37.513,54.296,36.467,53.006,35.821z"/>
	</g>
</g>
<g id="Layer_13_">
	<g>
		<path style="fill:#88C057;" d="M53.006,25.82l-18.697-9.348c-1.291-0.646-3.383-0.646-4.674,0L10.938,25.82
			c-1.291,0.646-1.291,1.693,0,2.338l18.697,9.348c1.291,0.646,3.383,0.646,4.674,0l18.697-9.348
			C54.296,27.514,54.296,26.467,53.006,25.82z"/>
	</g>
</g>
<g>
</g>
<g>
</g>
<g>
</g>
<g>
</g>
<g>
</g>
<g>
</g>
<g>
</g>
<g>
</g>
<g>
</g>
<g>
</g>
<g>
</g>
<g>
</g>
<g>
</g>
<g>
</g>
<g>
</g>
</svg>
