<?xml version="1.0" encoding="iso-8859-1"?>
<!-- Generator: Adobe Illustrator 16.0.0, SVG Export Plug-In . SVG Version: 6.00 Build 0)  -->
<!DOCTYPE svg PUBLIC "-//W3C//DTD SVG 1.1//EN" "http://www.w3.org/Graphics/SVG/1.1/DTD/svg11.dtd">
<svg version="1.1" id="Layer_1" xmlns="http://www.w3.org/2000/svg" xmlns:xlink="http://www.w3.org/1999/xlink" x="0px" y="0px"
	 width="64.007px" height="44.004px" viewBox="0 0 64.007 44.004" style="enable-background:new 0 0 64.007 44.004;"
	 xml:space="preserve">
<g id="Layer_8_">
	<g>
		<path style="fill:#CCCCCC;" d="M62.599,26.302L35.403,12.705c-1.878-0.939-4.922-0.939-6.799,0L1.408,26.302
			c-1.877,0.938-1.877,2.461,0,3.399L28.604,43.3c1.877,0.938,4.921,0.938,6.799,0l27.195-13.599
			C64.476,28.763,64.476,27.24,62.599,26.302z"/>
	</g>
</g>
<g id="Layer_9_">
	<g>
		<path style="fill-rule:evenodd;clip-rule:evenodd;fill:#ED7161;" d="M62.599,14.303L35.403,0.704
			c-1.878-0.938-4.922-0.938-6.799,0L1.408,14.303c-1.877,0.938-1.877,2.46,0,3.399L28.604,31.3c1.877,0.938,4.921,0.938,6.799,0
			l27.195-13.598C64.476,16.763,64.476,15.241,62.599,14.303z M32.045,24.02c-7.732,0-14-3.582-14-8c0-4.419,6.268-8.001,14-8.001
			c7.731,0,14,3.582,14,8.001C46.045,20.438,39.776,24.02,32.045,24.02z"/>
	</g>
</g>
<g>
</g>
<g>
</g>
<g>
</g>
<g>
</g>
<g>
</g>
<g>
</g>
<g>
</g>
<g>
</g>
<g>
</g>
<g>
</g>
<g>
</g>
<g>
</g>
<g>
</g>
<g>
</g>
<g>
</g>
</svg>
