<?xml version="1.0" encoding="iso-8859-1"?>
<!-- Generator: Adobe Illustrator 16.0.0, SVG Export Plug-In . SVG Version: 6.00 Build 0)  -->
<!DOCTYPE svg PUBLIC "-//W3C//DTD SVG 1.1//EN" "http://www.w3.org/Graphics/SVG/1.1/DTD/svg11.dtd">
<svg version="1.1" id="Layer_1" xmlns="http://www.w3.org/2000/svg" xmlns:xlink="http://www.w3.org/1999/xlink" x="0px" y="0px"
	 width="64.001px" height="64px" viewBox="0 0 64.001 64" style="enable-background:new 0 0 64.001 64;" xml:space="preserve">
<g id="Layer_10_">
	<g>
		<path style="fill:#CCCCCC;" d="M55.459,43.355l-10.198-5.1c-0.703-0.352-1.845-0.352-2.549,0l-10.198,5.1
			c-0.704,0.353-0.704,0.923,0,1.275l10.198,5.099c0.704,0.352,1.846,0.352,2.549,0l10.198-5.099
			C56.163,44.278,56.163,43.708,55.459,43.355z"/>
	</g>
</g>
<g id="Margin_2_">
	<g>
		<path style="fill-rule:evenodd;clip-rule:evenodd;fill:#CCCCCC;" d="M34.002,30h8v-4.001h-8V30z M46.002,30h8v-4.001h-8V30z
			 M34.002,62h8v-4h-8V62z M46.002,62h8v-4h-8V62z M26.002,42h4v-8.001h-4V42z M58.002,33.999V42h4v-8.001H58.002z M26.002,54h4
			v-8.001h-4V54z M58.002,54h4v-8.001h-4V54z"/>
	</g>
</g>
<g id="Corners_2_">
	<g>
		<path style="fill-rule:evenodd;clip-rule:evenodd;fill:#666666;" d="M24,64h8v-8h-8V64z M56.001,24v8h8v-8H56.001z M56.001,64h8
			v-8h-8V64z"/>
	</g>
</g>
<g id="Margin_3_">
	<g>
		<path style="fill-rule:evenodd;clip-rule:evenodd;fill:#CCCCCC;" d="M10.002,6h8V1.999h-8V6z M22.002,6h8V1.999h-8V6z
			 M10.002,37.999h8V34h-8V37.999z M22.002,37.999h8V34h-8V37.999z M2.002,17.999h4v-8h-4V17.999z M34.002,9.999V18h4V9.999H34.002z
			 M2.002,30h4v-8.001h-4V30z M34.002,30h4v-8.001h-4V30z"/>
	</g>
</g>
<g id="Corners_3_">
	<g>
		<path style="fill-rule:evenodd;clip-rule:evenodd;fill:#666666;" d="M0,40h8v-8H0V40z M0,8h8V0H0V8z M32,0v8h8.001V0H32z M32,40
			h8.001v-8H32V40z"/>
	</g>
</g>
<g id="Layer_11_">
	<g>
		<path style="fill:#88C057;" d="M31.459,19.355l-10.198-5.1c-0.704-0.352-1.845-0.352-2.549,0l-10.198,5.1
			c-0.704,0.352-0.704,0.923,0,1.275l10.198,5.099c0.704,0.353,1.845,0.353,2.549,0l10.198-5.099
			C32.164,20.278,32.164,19.707,31.459,19.355z"/>
	</g>
</g>
<g>
</g>
<g>
</g>
<g>
</g>
<g>
</g>
<g>
</g>
<g>
</g>
<g>
</g>
<g>
</g>
<g>
</g>
<g>
</g>
<g>
</g>
<g>
</g>
<g>
</g>
<g>
</g>
<g>
</g>
</svg>
