<?xml version="1.0" encoding="iso-8859-1"?>
<!-- Generator: Adobe Illustrator 16.0.0, SVG Export Plug-In . SVG Version: 6.00 Build 0)  -->
<!DOCTYPE svg PUBLIC "-//W3C//DTD SVG 1.1//EN" "http://www.w3.org/Graphics/SVG/1.1/DTD/svg11.dtd">
<svg version="1.1" id="Layer_1" xmlns="http://www.w3.org/2000/svg" xmlns:xlink="http://www.w3.org/1999/xlink" x="0px" y="0px"
	 width="68.012px" height="58.019px" viewBox="0 0 68.012 58.019" style="enable-background:new 0 0 68.012 58.019;"
	 xml:space="preserve">
<g id="Layer">
	<g>
		<path style="fill-rule:evenodd;clip-rule:evenodd;fill:#B3B3B3;" d="M42.05,38.56c-0.01-0.18-0.025-0.358-0.025-0.541
			c0-6.628,5.37-12,11.994-12c3.378,0,6.424,1.402,8.604,3.649c1.815-0.94,1.802-2.438-0.054-3.366L35.386,12.705
			c-1.876-0.939-4.919-0.939-6.796,0L1.408,26.302c-1.877,0.938-1.877,2.461,0,3.399L28.59,43.3c1.877,0.938,4.92,0.938,6.796,0
			l4.821-2.412C40.502,39.892,41.166,39.065,42.05,38.56z"/>
	</g>
</g>
<g id="Layer_1_">
	<g>
		<path style="fill:#CCCCCC;" d="M62.568,14.303L35.386,0.704c-1.876-0.938-4.919-0.938-6.796,0L1.408,14.303
			c-1.877,0.938-1.877,2.46,0,3.399L28.59,31.3c1.877,0.938,4.92,0.938,6.796,0l27.183-13.598
			C64.444,16.763,64.444,15.24,62.568,14.303z"/>
	</g>
</g>
<g id="Lock">
	<g>
		<path style="fill-rule:evenodd;clip-rule:evenodd;fill:#ED7261;" d="M62.015,42.017v-3.999c0-4.419-3.58-7.999-7.996-7.999
			s-7.996,3.58-7.996,7.999v3.999c-1.104,0-1.999,0.896-1.999,2.001v7.999c0,1.104,0.895,2.001,1.999,2.001h15.992
			c1.104,0,1.999-0.896,1.999-2.001v-7.999C64.014,42.912,63.118,42.017,62.015,42.017z M54.019,50.018
			c-1.104,0-1.999-0.896-1.999-2c0-1.104,0.895-2,1.999-2c1.104,0,1.999,0.896,1.999,2C56.018,49.121,55.122,50.018,54.019,50.018z
			 M58.017,42.017h-7.996v-3.999c0-2.209,1.79-4,3.998-4s3.998,1.791,3.998,4V42.017z"/>
	</g>
</g>
<g>
</g>
<g>
</g>
<g>
</g>
<g>
</g>
<g>
</g>
<g>
</g>
<g>
</g>
<g>
</g>
<g>
</g>
<g>
</g>
<g>
</g>
<g>
</g>
<g>
</g>
<g>
</g>
<g>
</g>
</svg>
