<?xml version="1.0" encoding="iso-8859-1"?>
<!-- Generator: Adobe Illustrator 16.0.0, SVG Export Plug-In . SVG Version: 6.00 Build 0)  -->
<!DOCTYPE svg PUBLIC "-//W3C//DTD SVG 1.1//EN" "http://www.w3.org/Graphics/SVG/1.1/DTD/svg11.dtd">
<svg version="1.1" id="Layer_1" xmlns="http://www.w3.org/2000/svg" xmlns:xlink="http://www.w3.org/1999/xlink" x="0px" y="0px"
	 width="64px" height="60px" viewBox="0 0 64 60" style="enable-background:new 0 0 64 60;" xml:space="preserve">
<g id="Text_16_">
	<g>
		<path style="fill-rule:evenodd;clip-rule:evenodd;fill:#999999;" d="M62,24.001H14c-1.105,0-2,0.895-2,1.999c0,1.105,0.895,2,2,2
			h48c1.104,0,2-0.895,2-2C64,24.896,63.104,24.001,62,24.001z M62,40.001H14c-1.105,0-2,0.895-2,1.999c0,1.105,0.895,2,2,2h48
			c1.104,0,2-0.895,2-2C64,40.896,63.104,40.001,62,40.001z M14,12h48c1.104,0,2-0.895,2-2c0-1.104-0.896-1.999-2-1.999H14
			c-1.105,0-2,0.896-2,1.999C12,11.105,12.895,12,14,12z M62,56.001H14c-1.105,0-2,0.895-2,1.999c0,1.105,0.895,2,2,2h48
			c1.104,0,2-0.895,2-2C64,56.896,63.104,56.001,62,56.001z"/>
	</g>
</g>
<g id="Text_17_">
	<g>
		<path style="fill-rule:evenodd;clip-rule:evenodd;fill:#666666;" d="M62,16H2c-1.105,0-2,0.896-2,2.001S0.895,20,2,20h60
			c1.104,0,1.999-0.895,1.999-1.999S63.104,16,62,16z M2,4h60c1.104,0,1.999-0.895,1.999-1.999S63.104,0,62,0H2
			C0.895,0,0,0.896,0,2.001S0.895,4,2,4z M62,32H2c-1.105,0-2,0.896-2,2c0,1.105,0.895,2.001,2,2.001h60
			c1.104,0,1.999-0.896,1.999-2.001C63.999,32.896,63.104,32,62,32z M62,48H2c-1.105,0-2,0.896-2,2s0.895,2,2,2h60
			c1.104,0,1.999-0.896,1.999-2S63.104,48,62,48z"/>
	</g>
</g>
<g>
</g>
<g>
</g>
<g>
</g>
<g>
</g>
<g>
</g>
<g>
</g>
<g>
</g>
<g>
</g>
<g>
</g>
<g>
</g>
<g>
</g>
<g>
</g>
<g>
</g>
<g>
</g>
<g>
</g>
</svg>
