<?xml version="1.0" encoding="iso-8859-1"?>
<!-- Generator: Adobe Illustrator 16.0.0, SVG Export Plug-In . SVG Version: 6.00 Build 0)  -->
<!DOCTYPE svg PUBLIC "-//W3C//DTD SVG 1.1//EN" "http://www.w3.org/Graphics/SVG/1.1/DTD/svg11.dtd">
<svg version="1.1" id="Layer_1" xmlns="http://www.w3.org/2000/svg" xmlns:xlink="http://www.w3.org/1999/xlink" x="0px" y="0px"
	 width="56px" height="64px" viewBox="0 0 56 64" style="enable-background:new 0 0 56 64;" xml:space="preserve">
<g id="a">
	<g>
		<path style="fill:#CCCCCC;" d="M30,60c0,0-2,0.449-2-2V48c0-1.398,0.742-12-10-12C5.455,36,4,41.251,4,44c0,2.813,2.362,4,6,4
			c1.813,0,4-1.579,4-4c0-2.608-2-2.25-2-3.999C12,39.188,14.063,38,16,38c1.913,0,4,1.456,4,4.001v4C10.531,50.919,4,53.449,4,58
			c0,3.348,1.798,6,6,6c4.203,0,7.68-1.679,10-4c0,3.498,2.593,4,6,4c3.453,0,6-2,6-2L30,60z M20,58c0,0-2.063,2-4,2
			c-2.563,0-4-1.437-4-4c0-2.562,2.844-4.974,8-8V58z"/>
	</g>
</g>
<g id="Arrow_5_">
	<g>
		<path style="fill-rule:evenodd;clip-rule:evenodd;fill:#48A0DC;" d="M54,52c-0.553,0-1.053,0.225-1.414,0.586l-4.604,4.604V6.811
			l4.604,4.604c0.361,0.361,0.861,0.586,1.414,0.586c1.104,0,2-0.896,2-2.001c0-0.552-0.224-1.052-0.586-1.414l-8-7.999
			C47.052,0.224,46.552,0,46,0c-0.553,0-1.053,0.224-1.414,0.587l-8,7.999C36.224,8.948,36,9.448,36,10c0,1.105,0.896,2.001,2,2.001
			c0.552,0,1.052-0.225,1.414-0.586l4.604-4.604v23.189c-0.006,0-0.012-0.002-0.019-0.002H2c-1.105,0-2,0.896-2,2.001
			c0,1.104,0.895,2,2,2h41.999c0.007,0,0.013-0.002,0.019-0.002v23.191l-4.604-4.604C39.052,52.225,38.552,52,38,52
			c-1.104,0-2,0.896-2,2c0,0.553,0.224,1.053,0.586,1.414l8,8C44.947,63.776,45.447,64,46,64c0.552,0,1.052-0.224,1.414-0.586l8-8
			C55.776,55.053,56,54.553,56,54C56,52.896,55.104,52,54,52z"/>
	</g>
</g>
<g id="a_1_">
	<g>
		<path style="fill:#CCCCCC;" d="M30,24c0,0-2,0.449-2-2v-9.999c0-1.399,0.742-12-10-12c-12.545,0-14,5.249-14,8
			c0,2.812,2.362,4,6,4c1.813,0,4-1.58,4-4C14,5.392,12,5.75,12,4c0-0.813,2.063-2,4-2c1.913,0,4,1.456,4,4.001V10
			c-9.469,4.92-16,7.449-16,12c0,3.348,1.798,6,6,6c4.203,0,7.68-1.679,10-4c0,3.498,2.593,4,6,4c3.453,0,6-2,6-2L30,24z M20,22
			c0,0-2.063,2-4,2c-2.563,0-4-1.437-4-4c0-2.563,2.844-4.974,8-7.999V22z"/>
	</g>
</g>
<g>
</g>
<g>
</g>
<g>
</g>
<g>
</g>
<g>
</g>
<g>
</g>
<g>
</g>
<g>
</g>
<g>
</g>
<g>
</g>
<g>
</g>
<g>
</g>
<g>
</g>
<g>
</g>
<g>
</g>
</svg>
