<?xml version="1.0" encoding="iso-8859-1"?>
<!-- Generator: Adobe Illustrator 16.0.0, SVG Export Plug-In . SVG Version: 6.00 Build 0)  -->
<!DOCTYPE svg PUBLIC "-//W3C//DTD SVG 1.1//EN" "http://www.w3.org/Graphics/SVG/1.1/DTD/svg11.dtd">
<svg version="1.1" id="Layer_1" xmlns="http://www.w3.org/2000/svg" xmlns:xlink="http://www.w3.org/1999/xlink" x="0px" y="0px"
	 width="64.009px" height="64.008px" viewBox="0 0 64.009 64.008" style="enable-background:new 0 0 64.009 64.008;"
	 xml:space="preserve">
<g id="Chain_1_">
	<g>
		<path style="fill-rule:evenodd;clip-rule:evenodd;fill:#48A0DC;" d="M60.267,3.742c-4.99-4.99-13.081-4.99-18.072,0l-8.438,8.438
			c-4.99,4.99-4.99,13.081,0,18.071c4.99,4.991,13.081,4.991,18.072,0l8.438-8.438C65.257,16.822,65.257,8.732,60.267,3.742z
			 M54.434,17.391l-7.028,7.027c-2.143,2.143-5.616,2.143-7.758,0c-2.143-2.143-2.143-5.615,0-7.758l7.028-7.028
			c2.142-2.143,5.615-2.143,7.758,0C56.576,11.774,56.576,15.248,54.434,17.391z M12.18,33.756l-8.438,8.438
			c-4.99,4.99-4.99,13.081,0,18.071s13.081,4.99,18.072,0l8.438-8.438c4.99-4.99,4.99-13.082,0-18.072S17.17,28.766,12.18,33.756z
			 M24.419,47.404l-7.028,7.028c-2.143,2.143-5.616,2.143-7.758,0c-2.143-2.143-2.143-5.616,0-7.758l7.027-7.028
			c2.143-2.143,5.616-2.143,7.759,0C26.561,41.789,26.561,45.262,24.419,47.404z"/>
	</g>
</g>
<g id="Link_1_">
	<g>
		<path style="fill:#387BA8;" d="M44.69,19.311c-1.8-1.799-4.717-1.799-6.517,0L19.312,38.173c-1.8,1.799-1.8,4.717,0,6.517
			c1.799,1.799,4.717,1.799,6.517,0L44.69,25.827C46.49,24.027,46.49,21.11,44.69,19.311z"/>
	</g>
</g>
<g>
</g>
<g>
</g>
<g>
</g>
<g>
</g>
<g>
</g>
<g>
</g>
<g>
</g>
<g>
</g>
<g>
</g>
<g>
</g>
<g>
</g>
<g>
</g>
<g>
</g>
<g>
</g>
<g>
</g>
</svg>
