<?xml version="1.0" encoding="iso-8859-1"?>
<!-- Generator: Adobe Illustrator 16.0.0, SVG Export Plug-In . SVG Version: 6.00 Build 0)  -->
<!DOCTYPE svg PUBLIC "-//W3C//DTD SVG 1.1//EN" "http://www.w3.org/Graphics/SVG/1.1/DTD/svg11.dtd">
<svg version="1.1" id="Layer_1" xmlns="http://www.w3.org/2000/svg" xmlns:xlink="http://www.w3.org/1999/xlink" x="0px" y="0px"
	 width="64px" height="63.998px" viewBox="0 0 64 63.998" style="enable-background:new 0 0 64 63.998;" xml:space="preserve">
<g id="Grid_6_">
	<g>
		<path style="fill-rule:evenodd;clip-rule:evenodd;fill:#FFCC66;" d="M12,0H4C1.79,0,0,1.79,0,3.999v8c0,2.209,1.79,4,4,4h8
			c2.209,0,4-1.791,4-4v-8C16,1.79,14.209,0,12,0z M60,0H28c-2.21,0-4,1.79-4,3.999v8c0,2.209,1.79,4,4,4h32c2.209,0,4-1.791,4-4v-8
			C64,1.79,62.209,0,60,0z M12,24H4c-2.21,0-4,1.791-4,3.999v8c0,2.209,1.79,3.999,4,3.999h8c2.209,0,4-1.79,4-3.999v-8
			C16,25.791,14.209,24,12,24z M60,24H28c-2.21,0-4,1.791-4,3.999v8c0,2.209,1.79,3.999,4,3.999h32c2.209,0,4-1.79,4-3.999v-8
			C64,25.791,62.209,24,60,24z M12,48H4c-2.21,0-4,1.79-4,3.999v8c0,2.209,1.79,3.999,4,3.999h8c2.209,0,4-1.79,4-3.999v-8
			C16,49.79,14.209,48,12,48z M60,48H28c-2.21,0-4,1.79-4,3.999v8c0,2.209,1.79,3.999,4,3.999h32c2.209,0,4-1.79,4-3.999v-8
			C64,49.79,62.209,48,60,48z"/>
	</g>
</g>
<g>
</g>
<g>
</g>
<g>
</g>
<g>
</g>
<g>
</g>
<g>
</g>
<g>
</g>
<g>
</g>
<g>
</g>
<g>
</g>
<g>
</g>
<g>
</g>
<g>
</g>
<g>
</g>
<g>
</g>
</svg>
