<?xml version="1.0" encoding="iso-8859-1"?>
<!-- Generator: Adobe Illustrator 16.0.0, SVG Export Plug-In . SVG Version: 6.00 Build 0)  -->
<!DOCTYPE svg PUBLIC "-//W3C//DTD SVG 1.1//EN" "http://www.w3.org/Graphics/SVG/1.1/DTD/svg11.dtd">
<svg version="1.1" id="Layer_1" xmlns="http://www.w3.org/2000/svg" xmlns:xlink="http://www.w3.org/1999/xlink" x="0px" y="0px"
	 width="64.002px" height="64.001px" viewBox="0 0 64.002 64.001" style="enable-background:new 0 0 64.002 64.001;"
	 xml:space="preserve">
<g id="Margin_1_">
	<g>
		<path style="fill-rule:evenodd;clip-rule:evenodd;fill:#CCCCCC;" d="M22.001,0.001h-4c-1.104,0-2,0.895-2,2
			c0,1.104,0.896,1.999,2,1.999h4c1.104,0,2-0.895,2-1.999C24.001,0.896,23.105,0.001,22.001,0.001z M34.001,0.001h-4
			c-1.104,0-2,0.895-2,2c0,1.104,0.896,1.999,2,1.999h4c1.104,0,2-0.895,2-1.999C36.001,0.896,35.105,0.001,34.001,0.001z
			 M46.001,0.001h-4c-1.104,0-2,0.895-2,2c0,1.104,0.896,1.999,2,1.999h4c1.104,0,2-0.895,2-1.999
			C48.001,0.896,47.105,0.001,46.001,0.001z M22.001,60.001h-4c-1.104,0-2,0.896-2,1.999c0,1.104,0.896,2.001,2,2.001h4
			c1.104,0,2-0.896,2-2.001C24.001,60.896,23.105,60.001,22.001,60.001z M34.001,60.001h-4c-1.104,0-2,0.896-2,1.999
			c0,1.104,0.896,2.001,2,2.001h4c1.104,0,2-0.896,2-2.001C36.001,60.896,35.105,60.001,34.001,60.001z M46.001,60.001h-4
			c-1.104,0-2,0.896-2,1.999c0,1.104,0.896,2.001,2,2.001h4c1.104,0,2-0.896,2-2.001C48.001,60.896,47.105,60.001,46.001,60.001z
			 M62.001,16.001c-1.104,0-2,0.895-2,2v4c0,1.104,0.896,1.999,2,1.999s2-0.896,2-1.999v-4
			C64.001,16.896,63.105,16.001,62.001,16.001z M62.001,28c-1.104,0-2,0.896-2,2.001v4c0,1.104,0.896,2,2,2s2-0.896,2-2v-4
			C64.001,28.896,63.105,28,62.001,28z M62.001,40.001c-1.104,0-2,0.895-2,2v4c0,1.104,0.896,2,2,2s2-0.896,2-2v-4
			C64.001,40.896,63.105,40.001,62.001,40.001z M2.001,16.001c-1.105,0-2,0.895-2,2v4c0,1.104,0.895,1.999,2,1.999
			c1.104,0,2-0.896,2-1.999v-4C4.001,16.896,3.105,16.001,2.001,16.001z M2.001,28c-1.105,0-2,0.896-2,2.001v4c0,1.104,0.895,2,2,2
			c1.104,0,2-0.896,2-2v-4C4.001,28.896,3.105,28,2.001,28z M2.001,40.001c-1.105,0-2,0.895-2,2v4c0,1.104,0.895,2,2,2
			c1.104,0,2-0.896,2-2v-4C4.001,40.896,3.105,40.001,2.001,40.001z"/>
	</g>
</g>
<g id="Corners_1_">
	<g>
		<path style="fill-rule:evenodd;clip-rule:evenodd;fill:#666666;" d="M54.001,4c-0.019,0,4,0,4,0c1.104,0,2,0.896,2,2.001v4
			c0,1.104,0.896,2,2,2s2-0.896,2-2V4c0-2.209-1.791-4-4-4l-6,0.001c-1.104,0-2,0.895-2,2C52.001,3.105,52.896,4,54.001,4z
			 M10.001,60.001c0.018,0-4,0-4,0c-1.105,0-2-0.896-2-2.001v-3.999c0-1.105-0.896-2-2-2c-1.105,0-2,0.895-2,2V60
			c0,2.21,1.791,4.001,4,4.001h6c1.104,0,2-0.896,2-2.001C12.001,60.896,11.105,60.001,10.001,60.001z M64.001,54.001
			c0-1.105-0.896-2-2-2s-2,0.895-2,2c0-0.019,0,3.999,0,3.999c0,1.105-0.896,2.001-2,2.001h-4c-1.104,0-2,0.896-2,1.999
			c0,1.104,0.896,2.001,2,2.001l6-0.001c2.209,0,4.001-1.79,4.001-3.999L64.001,54.001z M10.001,0.001h-6C1.791,0.001,0,1.792,0,4
			l0.001,6.001c0,1.104,0.895,2,2,2c1.104,0,2-0.896,2-2c0,0.018,0-4,0-4c0-1.105,0.895-2.001,2-2.001h4c1.104,0,2-0.895,2-1.999
			C12.001,0.896,11.105,0.001,10.001,0.001z"/>
	</g>
</g>
<g>
</g>
<g>
</g>
<g>
</g>
<g>
</g>
<g>
</g>
<g>
</g>
<g>
</g>
<g>
</g>
<g>
</g>
<g>
</g>
<g>
</g>
<g>
</g>
<g>
</g>
<g>
</g>
<g>
</g>
</svg>
