<?xml version="1.0" encoding="iso-8859-1"?>
<!-- Generator: Adobe Illustrator 16.0.0, SVG Export Plug-In . SVG Version: 6.00 Build 0)  -->
<!DOCTYPE svg PUBLIC "-//W3C//DTD SVG 1.1//EN" "http://www.w3.org/Graphics/SVG/1.1/DTD/svg11.dtd">
<svg version="1.1" id="Layer_1" xmlns="http://www.w3.org/2000/svg" xmlns:xlink="http://www.w3.org/1999/xlink" x="0px" y="0px"
	 width="63.971px" height="63.97px" viewBox="0 0 63.971 63.97" style="enable-background:new 0 0 63.971 63.97;"
	 xml:space="preserve">
<g id="Arrow_10_">
	<g>
		<path style="fill-rule:evenodd;clip-rule:evenodd;fill:#ED7161;" d="M13.963,30.078h-7.03l2.462-2.469
			c0.809-0.812,0.809-2.128,0-2.938c-0.809-0.812-2.119-0.812-2.928,0l-5.861,5.877c-0.612,0.614-0.759,1.517-0.444,2.272
			c0.058,0.146,0.133,0.283,0.222,0.41c0.079,0.125,0.17,0.244,0.278,0.353l5.832,5.847c0.803,0.805,2.103,0.805,2.904,0
			c0.803-0.805,0.803-2.11,0-2.915L6.97,34.078h6.993c1.101,0,1.993-0.896,1.993-1.999C15.956,30.974,15.063,30.078,13.963,30.078z
			 M63.807,31.239c-0.059-0.147-0.134-0.284-0.224-0.412c-0.079-0.125-0.17-0.244-0.279-0.352l-5.855-5.871
			c-0.805-0.809-2.11-0.809-2.916,0c-0.805,0.809-0.805,2.119,0,2.928l2.438,2.444h-7.02c-1.104,0-2,0.899-2,2.007
			c0,1.11,0.896,2.009,2,2.009h7.059l-2.473,2.479c-0.812,0.814-0.812,2.136,0,2.949c0.812,0.815,2.127,0.815,2.939,0l5.885-5.899
			C63.977,32.904,64.124,31.997,63.807,31.239z M27.505,9.399l2.426-2.429v6.991c0,1.102,0.892,1.993,1.992,1.993
			s1.992-0.892,1.992-1.993V6.931l2.46,2.463c0.808,0.809,2.118,0.809,2.927,0c0.809-0.808,0.809-2.118,0-2.927l-5.854-5.862
			c-0.522-0.522-1.253-0.701-1.924-0.549c-0.01,0.002-0.02,0.007-0.029,0.009c-0.104,0.025-0.208,0.054-0.309,0.096
			c-0.146,0.059-0.284,0.134-0.411,0.224c-0.124,0.079-0.242,0.17-0.35,0.278l-5.824,5.832c-0.802,0.802-0.802,2.103,0,2.904
			C25.403,10.201,26.703,10.201,27.505,9.399z M36.451,54.533l-2.435,2.438v-7.019c0-1.104-0.896-2.001-2-2.001s-2,0.896-2,2.001
			v7.059l-2.47-2.473c-0.812-0.812-2.127-0.812-2.938,0s-0.812,2.127,0,2.938l5.877,5.885c0.615,0.615,1.519,0.762,2.273,0.445
			c0.146-0.059,0.283-0.134,0.41-0.224c0.124-0.079,0.243-0.17,0.351-0.279l5.848-5.855c0.805-0.805,0.805-2.11,0-2.915
			C38.562,53.728,37.257,53.728,36.451,54.533z"/>
	</g>
</g>
<g id="Object_5_">
	<g>
		<path style="fill:#ED7161;" d="M45.954,14.017h-28c-2.209,0-4,1.79-4,3.999v28.001c0,2.208,1.791,4,4,4h28c2.209,0,4-1.792,4-4
			V18.016C49.954,15.807,48.163,14.017,45.954,14.017z"/>
	</g>
</g>
<g>
</g>
<g>
</g>
<g>
</g>
<g>
</g>
<g>
</g>
<g>
</g>
<g>
</g>
<g>
</g>
<g>
</g>
<g>
</g>
<g>
</g>
<g>
</g>
<g>
</g>
<g>
</g>
<g>
</g>
</svg>
