<?xml version="1.0" encoding="iso-8859-1"?>
<!-- Generator: Adobe Illustrator 16.0.0, SVG Export Plug-In . SVG Version: 6.00 Build 0)  -->
<!DOCTYPE svg PUBLIC "-//W3C//DTD SVG 1.1//EN" "http://www.w3.org/Graphics/SVG/1.1/DTD/svg11.dtd">
<svg version="1.1" id="Layer_1" xmlns="http://www.w3.org/2000/svg" xmlns:xlink="http://www.w3.org/1999/xlink" x="0px" y="0px"
	 width="67.988px" height="67.988px" viewBox="0 0 67.988 67.988" style="enable-background:new 0 0 67.988 67.988;"
	 xml:space="preserve">
<g id="Text_8_">
	<g>
		<path style="fill-rule:evenodd;clip-rule:evenodd;fill:#CCCCCC;" d="M4.025,48.023h35.588l-3.999-3.999H4.025
			c-1.105,0-2,0.895-2,1.999C2.025,47.129,2.92,48.023,4.025,48.023z M64.025,28.024H36.437l3.999,3.999h23.59c1.104,0,2-0.895,2-2
			C66.025,28.919,65.13,28.024,64.025,28.024z M64.025,36.023h-19.59l4.001,4.001h15.589c1.104,0,2-0.896,2-2.001
			C66.025,36.919,65.13,36.023,64.025,36.023z M4.025,32.023h19.587l-3.999-3.999H4.025c-1.105,0-2,0.895-2,1.999
			C2.025,31.129,2.92,32.023,4.025,32.023z M4.025,40.024h27.588l-4-4.001H4.025c-1.105,0-2,0.896-2,2
			C2.025,39.129,2.92,40.024,4.025,40.024z M4.025,24.023h11.587l-4-4H4.025c-1.105,0-2,0.896-2,2.001S2.92,24.023,4.025,24.023z
			 M64.025,44.024H52.437l3.999,3.999h7.59c1.104,0,2-0.895,2-2C66.025,44.919,65.13,44.024,64.025,44.024z M64.025,8.023
			c1.104,0,2-0.895,2-1.999s-0.896-2.001-2-2.001h-51.59l4,4H64.025z M4.025,60.023c-1.105,0-2,0.896-2,2c0,1.105,0.895,2,2,2
			h51.588l-4-4H4.025z M64.025,52.023h-3.59l3.963,3.963c0.926-0.176,1.627-0.986,1.627-1.963
			C66.025,52.919,65.13,52.023,64.025,52.023z M4.025,16.023h3.587l-3.961-3.961c-0.926,0.175-1.626,0.985-1.626,1.961
			C2.025,15.129,2.92,16.023,4.025,16.023z M64.025,12.024H20.437l3.999,3.999h39.59c1.104,0,2-0.895,2-2
			C66.025,12.92,65.13,12.024,64.025,12.024z M64.025,20.023h-35.59l4,4h31.59c1.104,0,2-0.895,2-1.999S65.13,20.023,64.025,20.023z
			 M4.025,56.023h43.588l-4-4H4.025c-1.105,0-2,0.896-2,2S2.92,56.023,4.025,56.023z"/>
	</g>
</g>
<g id="Line">
	<g>
		<path style="fill:#ED7161;" d="M65.408,62.606L5.382,2.58c-0.773-0.774-2.028-0.774-2.802,0c-0.773,0.773-0.773,2.027,0,2.801
			l60.026,60.026c0.774,0.773,2.028,0.773,2.802,0S66.182,63.38,65.408,62.606z"/>
	</g>
</g>
<g>
</g>
<g>
</g>
<g>
</g>
<g>
</g>
<g>
</g>
<g>
</g>
<g>
</g>
<g>
</g>
<g>
</g>
<g>
</g>
<g>
</g>
<g>
</g>
<g>
</g>
<g>
</g>
<g>
</g>
</svg>
