<?xml version="1.0" encoding="iso-8859-1"?>
<!-- Generator: Adobe Illustrator 16.0.0, SVG Export Plug-In . SVG Version: 6.00 Build 0)  -->
<!DOCTYPE svg PUBLIC "-//W3C//DTD SVG 1.1//EN" "http://www.w3.org/Graphics/SVG/1.1/DTD/svg11.dtd">
<svg version="1.1" id="Layer_1" xmlns="http://www.w3.org/2000/svg" xmlns:xlink="http://www.w3.org/1999/xlink" x="0px" y="0px"
	 width="67.988px" height="67.99px" viewBox="0 0 67.988 67.99" style="enable-background:new 0 0 67.988 67.99;"
	 xml:space="preserve">
<g id="Eye">
	<g>
		<path style="fill-rule:evenodd;clip-rule:evenodd;fill:#CCCCCC;" d="M34.025,12.026c-3.804,0-7.293,1.333-10.039,3.55
			l22.489,22.489c2.217-2.746,3.55-6.235,3.55-10.039C50.025,19.189,42.861,12.026,34.025,12.026z M18.025,28.026
			c0,8.837,7.163,15.999,16,15.999c0.51,0,1.013-0.029,1.511-0.076L18.102,26.515C18.055,27.013,18.025,27.516,18.025,28.026z"/>
	</g>
</g>
<g id="Eye_1_">
	<g>
		<path style="fill-rule:evenodd;clip-rule:evenodd;fill:#CCCCCC;" d="M34.025,50.025c-13.177,0-23.979-14.249-23.979-16
			c0-0.906,2.665-4.856,6.96-8.605l-4.72-4.721C5.978,25.854,2.025,31.804,2.025,34.025c0,4.029,14.326,22.001,32,22.001
			c3.953,0,7.736-0.908,11.231-2.356L40.5,48.913C38.437,49.606,36.267,50.025,34.025,50.025z M34.025,12.026
			c-3.963,0-7.755,0.897-11.257,2.331l4.777,4.777c2.064-0.69,4.236-1.108,6.48-1.108c13.176,0,23.978,14.182,23.978,15.999
			c0,0.87-2.671,4.83-6.976,8.592l4.677,4.677c6.344-5.209,10.321-11.2,10.321-13.269C66.025,30.011,51.698,12.026,34.025,12.026z"
			/>
	</g>
</g>
<g id="Line_2_">
	<g>
		<path style="fill:#ED7161;" d="M65.408,62.607L5.382,2.582c-0.773-0.775-2.028-0.775-2.802,0c-0.774,0.773-0.774,2.027,0,2.801
			l60.026,60.026c0.774,0.774,2.028,0.774,2.802,0C66.182,64.637,66.182,63.381,65.408,62.607z"/>
	</g>
</g>
<g>
</g>
<g>
</g>
<g>
</g>
<g>
</g>
<g>
</g>
<g>
</g>
<g>
</g>
<g>
</g>
<g>
</g>
<g>
</g>
<g>
</g>
<g>
</g>
<g>
</g>
<g>
</g>
<g>
</g>
</svg>
