<?xml version="1.0" encoding="iso-8859-1"?>
<!-- Generator: Adobe Illustrator 16.0.0, SVG Export Plug-In . SVG Version: 6.00 Build 0)  -->
<!DOCTYPE svg PUBLIC "-//W3C//DTD SVG 1.1//EN" "http://www.w3.org/Graphics/SVG/1.1/DTD/svg11.dtd">
<svg version="1.1" id="Layer_1" xmlns="http://www.w3.org/2000/svg" xmlns:xlink="http://www.w3.org/1999/xlink" x="0px" y="0px"
	 width="64px" height="64.001px" viewBox="0 0 64 64.001" style="enable-background:new 0 0 64 64.001;" xml:space="preserve">
<g id="Text">
	<g>
		<path style="fill-rule:evenodd;clip-rule:evenodd;fill:#CCCCCC;" d="M22,46h28c1.104,0,2-0.895,2-1.999c0-1.105-0.896-2-2-2H22
			c-1.105,0-2,0.895-2,2C20,45.105,20.895,46,22,46z M22,14h28c1.104,0,2-0.895,2-2c0-1.104-0.896-1.999-2-1.999H22
			c-1.105,0-2,0.896-2,1.999C20,13.105,20.895,14,22,14z M62,18H22c-1.105,0-2,0.896-2,2.001C20,21.104,20.895,22,22,22h40
			c1.104,0,2-0.896,2-1.999C64,18.896,63.104,18,62,18z M22,6h40c1.104,0,2-0.895,2-1.999S63.104,2,62,2H22
			c-1.105,0-2,0.896-2,2.001S20.895,6,22,6z M62,34H22c-1.105,0-2,0.896-2,2c0,1.105,0.895,2.001,2,2.001h40
			c1.104,0,2-0.896,2-2.001C64,34.896,63.104,34,62,34z M62,50H22c-1.105,0-2,0.896-2,2.001c0,1.104,0.895,2,2,2h40
			c1.104,0,2-0.896,2-2C64,50.896,63.104,50,62,50z M22,30h28c1.104,0,2-0.895,2-2c0-1.104-0.896-1.999-2-1.999H22
			c-1.105,0-2,0.895-2,1.999C20,29.105,20.895,30,22,30z M50,58.001H22c-1.105,0-2,0.896-2,1.999c0,1.105,0.895,2,2,2h28
			c1.104,0,2-0.895,2-2C52,58.896,51.104,58.001,50,58.001z"/>
	</g>
</g>
<g id="_x33__1_">
	<g>
		<path style="fill-rule:evenodd;clip-rule:evenodd;fill:#48A0DC;" d="M9.107,52.876l2.307-3.46l0,0
			C11.775,49.054,12,48.554,12,48.001c0-1.104-0.896-1.999-2-1.999H2c-1.104,0-2,0.895-2,1.999s0.896,2,2,2h4.31l-1.724,2.585
			C4.225,52.948,4,53.448,4,54.001c0,1.104,0.896,2,2,2s2,0.896,2,2s-0.896,2-2,2s-2-0.896-2-2s-0.896-2-2-2s-2,0.896-2,2
			c0,3.314,2.686,6,6,6c3.313,0,6-2.686,6-6C12,55.826,10.84,53.928,9.107,52.876z"/>
	</g>
</g>
<g id="_x32__1_">
	<g>
		<path style="fill-rule:evenodd;clip-rule:evenodd;fill:#48A0DC;" d="M10,36.001H6.665l3.573-3.753
			C11.326,31.162,12,29.66,12,28.001c0-3.313-2.687-6-6-6c-3.314,0-6,2.687-6,6c0,1.104,0.896,2,2,2s2-0.896,2-2
			s0.896-1.999,2-1.999s2,0.895,2,1.999s-0.896,2-2,2v0.9l-5.409,5.682C0.227,36.945,0,37.447,0,38.002c0,1.104,0.896,1.999,2,1.999
			h8c1.104,0,2-0.896,2-1.999C12,36.896,11.104,36.001,10,36.001z"/>
	</g>
</g>
<g id="_x31__1_">
	<g>
		<path style="fill-rule:evenodd;clip-rule:evenodd;fill:#48A0DC;" d="M8,14.001v-12C8,0.896,7.104,0,6,0
			C5.993,0,5.987,0.002,5.98,0.002H4c-1.104,0-2,0.895-2,1.999c0,1.105,0.896,2.001,2,2.001v9.999c-1.104,0-2,0.896-2,2
			c0,1.105,0.896,2,2,2h4c1.104,0,2-0.895,2-2C10,14.896,9.104,14.001,8,14.001z"/>
	</g>
</g>
<g>
</g>
<g>
</g>
<g>
</g>
<g>
</g>
<g>
</g>
<g>
</g>
<g>
</g>
<g>
</g>
<g>
</g>
<g>
</g>
<g>
</g>
<g>
</g>
<g>
</g>
<g>
</g>
<g>
</g>
</svg>
