<?xml version="1.0" encoding="iso-8859-1"?>
<!-- Generator: Adobe Illustrator 16.0.0, SVG Export Plug-In . SVG Version: 6.00 Build 0)  -->
<!DOCTYPE svg PUBLIC "-//W3C//DTD SVG 1.1//EN" "http://www.w3.org/Graphics/SVG/1.1/DTD/svg11.dtd">
<svg version="1.1" id="Layer_1" xmlns="http://www.w3.org/2000/svg" xmlns:xlink="http://www.w3.org/1999/xlink" x="0px" y="0px"
	 width="64px" height="64px" viewBox="0 0 64 64" style="enable-background:new 0 0 64 64;" xml:space="preserve">
<g id="Handle_5_">
	<g>
		<path style="fill:#ED7161;" d="M32,36.001h-4c-2.209,0-4,1.79-4,3.999v20c0,2.21,1.791,4,4,4h4c2.209,0,4-1.79,4-4V40
			C36,37.791,34.209,36.001,32,36.001z"/>
	</g>
</g>
<g id="Bar">
	<g>
		<path style="fill:#CCCCCC;" d="M60,8h-4v4h2c1.104,0,2,0.896,2,2v4v2c0,2.209-1.791,4-4,4H46H36c-4.419,0-8,3.582-8,8v4.001h4V32
			c0-2.21,1.791-4,4-4h10h10c4.418,0,8-3.581,8-8v-2v-6C64,9.791,62.209,8,60,8z"/>
	</g>
</g>
<g id="Roller">
	<g>
		<path style="fill:#E6E6E6;" d="M0,8v8.001C0,18.209,1.791,20,4,20h48c2.209,0,4-1.791,4-3.999V8H0z"/>
	</g>
</g>
<g id="Paint_3_">
	<g>
		<path style="fill-rule:evenodd;clip-rule:evenodd;fill:#88C057;" d="M56,4c0-2.209-1.791-4-4-4H4C1.791,0,0,1.791,0,4v4h8v6
			c0,1.105,0.896,2.001,2,2.001s2-0.896,2-2.001V8h4c0,1.104,0.896,2,2,2s2-0.896,2-2h22v2c0,1.104,0.896,2,2,2s2-0.896,2-2V8h10V4z
			"/>
	</g>
</g>
<g>
</g>
<g>
</g>
<g>
</g>
<g>
</g>
<g>
</g>
<g>
</g>
<g>
</g>
<g>
</g>
<g>
</g>
<g>
</g>
<g>
</g>
<g>
</g>
<g>
</g>
<g>
</g>
<g>
</g>
</svg>
