<?xml version="1.0" encoding="iso-8859-1"?>
<!-- Generator: Adobe Illustrator 16.0.0, SVG Export Plug-In . SVG Version: 6.00 Build 0)  -->
<!DOCTYPE svg PUBLIC "-//W3C//DTD SVG 1.1//EN" "http://www.w3.org/Graphics/SVG/1.1/DTD/svg11.dtd">
<svg version="1.1" id="Layer_1" xmlns="http://www.w3.org/2000/svg" xmlns:xlink="http://www.w3.org/1999/xlink" x="0px" y="0px"
	 width="74px" height="72px" viewBox="0 0 74 72" style="enable-background:new 0 0 74 72;" xml:space="preserve">
<g id="Bottom">
	<g>
		<polygon style="fill:#6D5778;" points="46,0 42,6 68,32 74,28 		"/>
	</g>
</g>
<g id="Tube_1_">
	<g>
		
			<rect x="21.201" y="14.615" transform="matrix(0.7071 -0.7071 0.7071 0.7071 -11.3259 38.6569)" style="fill:#9B7CAB;" width="39.598" height="36.77"/>
	</g>
</g>
<g id="Top">
	<g>
		<path style="fill-rule:evenodd;clip-rule:evenodd;fill:#E6E6E6;" d="M40,60c0,0,0-6-10-16S14,34,14,34v12c0,0,4.615-1.385,10,4
			s4,10,4,10H40z"/>
	</g>
</g>
<g id="Head_1_">
	<g>
		<path style="fill-rule:evenodd;clip-rule:evenodd;fill:#999999;" d="M24,50c-5.385-5.385-10-4-10-4c-2,2-4,2-4,6
			c0,4.001,8,12,12,12s4-2,6-4C28,60,29.385,55.385,24,50z"/>
	</g>
</g>
<g id="Hole">
	<g>
		
			<ellipse transform="matrix(0.7071 -0.7071 0.7071 0.7071 -34.3224 29.1463)" style="fill:#E6E6E6;" cx="18.021" cy="56.004" rx="1.585" ry="5.441"/>
	</g>
</g>
<g id="Label_1_">
	<g>
		
			<rect x="41.343" y="14.272" transform="matrix(0.7071 -0.7071 0.7071 0.7071 -5.325 41.1453)" style="fill:#CCCCCC;" width="11.314" height="25.455"/>
	</g>
</g>
<g>
</g>
<g>
</g>
<g>
</g>
<g>
</g>
<g>
</g>
<g>
</g>
<g>
</g>
<g>
</g>
<g>
</g>
<g>
</g>
<g>
</g>
<g>
</g>
<g>
</g>
<g>
</g>
<g>
</g>
</svg>
