<?xml version="1.0" encoding="iso-8859-1"?>
<!-- Generator: Adobe Illustrator 16.0.0, SVG Export Plug-In . SVG Version: 6.00 Build 0)  -->
<!DOCTYPE svg PUBLIC "-//W3C//DTD SVG 1.1//EN" "http://www.w3.org/Graphics/SVG/1.1/DTD/svg11.dtd">
<svg version="1.1" id="Layer_1" xmlns="http://www.w3.org/2000/svg" xmlns:xlink="http://www.w3.org/1999/xlink" x="0px" y="0px"
	 width="60px" height="64px" viewBox="0 0 60 64" style="enable-background:new 0 0 60 64;" xml:space="preserve">
<g id="Bucket_2_">
	<g>
		<path style="fill:#CCCCCC;" d="M26,10L4,32c-3.141,3.141-4,6-4,10c0,6,16,22,22,22c4,0,6.859-0.859,10-4l22-22L26,10z"/>
	</g>
</g>
<g id="Handle_4_">
	<g>
		<path style="fill-rule:evenodd;clip-rule:evenodd;fill:#999999;" d="M40,30.555V14c0-7.731-6.269-14-14-14
			c-7.732,0-14,6.269-14,14v10.001L16,20v-6c0-5.522,4.477-10,10-10c5.522,0,10,4.478,10,10v16.555c-1.19,0.693-2,1.969-2,3.445
			c0,2.209,1.791,4,4,4s4-1.791,4-4C42,32.523,41.19,31.248,40,30.555z"/>
	</g>
</g>
<g id="Paint_1_">
	<g>
		<path style="fill-rule:evenodd;clip-rule:evenodd;fill:#88C057;" d="M58,34c-1.797-2.888-8.406-9.999-12-9.999c-3.595,0-6,0-6,0
			S47.882,31.882,50,34c2.734,2.735-2,13.52-2,20c0,3.313,2.686,6,6,6c3.313,0,6-2.687,6-6C60,54,59.797,36.888,58,34z"/>
	</g>
</g>
<g>
</g>
<g>
</g>
<g>
</g>
<g>
</g>
<g>
</g>
<g>
</g>
<g>
</g>
<g>
</g>
<g>
</g>
<g>
</g>
<g>
</g>
<g>
</g>
<g>
</g>
<g>
</g>
<g>
</g>
</svg>
