<?xml version="1.0" encoding="iso-8859-1"?>
<!-- Generator: Adobe Illustrator 16.0.0, SVG Export Plug-In . SVG Version: 6.00 Build 0)  -->
<!DOCTYPE svg PUBLIC "-//W3C//DTD SVG 1.1//EN" "http://www.w3.org/Graphics/SVG/1.1/DTD/svg11.dtd">
<svg version="1.1" id="Layer_1" xmlns="http://www.w3.org/2000/svg" xmlns:xlink="http://www.w3.org/1999/xlink" x="0px" y="0px"
	 width="44px" height="63.999px" viewBox="0 0 44 63.999" style="enable-background:new 0 0 44 63.999;" xml:space="preserve">
<g id="Pilcrow">
	<g>
		<path style="fill-rule:evenodd;clip-rule:evenodd;fill:#48A0DC;" d="M42,0H24h-8C7.163,0,0,7.162,0,16
			c0,8.836,7.163,15.999,16,15.999h6V62c0,1.104,0.896,1.999,2,1.999s2-0.896,2-1.999V4l8-0.001V62c0,1.104,0.896,1.999,2,1.999
			s2-0.896,2-1.999V8c0-2.21,1.791-4,4-4V3.998c1.104,0,2-0.895,2-1.999S43.104,0,42,0z"/>
	</g>
</g>
<g>
</g>
<g>
</g>
<g>
</g>
<g>
</g>
<g>
</g>
<g>
</g>
<g>
</g>
<g>
</g>
<g>
</g>
<g>
</g>
<g>
</g>
<g>
</g>
<g>
</g>
<g>
</g>
<g>
</g>
</svg>
