<?xml version="1.0" encoding="iso-8859-1"?>
<!-- Generator: Adobe Illustrator 16.0.0, SVG Export Plug-In . SVG Version: 6.00 Build 0)  -->
<!DOCTYPE svg PUBLIC "-//W3C//DTD SVG 1.1//EN" "http://www.w3.org/Graphics/SVG/1.1/DTD/svg11.dtd">
<svg version="1.1" id="Layer_1" xmlns="http://www.w3.org/2000/svg" xmlns:xlink="http://www.w3.org/1999/xlink" x="0px" y="0px"
	 width="64px" height="64px" viewBox="0 0 64 64" style="enable-background:new 0 0 64 64;" xml:space="preserve">
<g id="Clipboard">
	<g>
		<path style="fill:#88C057;" d="M44,4H4C1.791,4,0,5.791,0,8v44.001c0,2.208,1.791,4,4,4h40c2.209,0,4-1.792,4-4V8
			C48,5.791,46.209,4,44,4z"/>
	</g>
</g>
<g id="Clip">
	<g>
		<path style="fill-rule:evenodd;clip-rule:evenodd;fill:#666666;" d="M32,4h-4c0-2.208-1.791-4-4-4s-4,1.792-4,4h-4
			c-2.209,0-4,1.791-4,4s1.791,4,4,4h16c2.209,0,4-1.791,4-4S34.209,4,32,4z"/>
	</g>
</g>
<g id="File">
	<g>
		<path style="fill:#CCCCCC;" d="M60,16H28c-2.209,0-4,1.791-4,4.001v40C24,62.209,25.791,64,28,64h22l14-13.999v-30
			C64,17.791,62.209,16,60,16z"/>
	</g>
</g>
<g id="Container_28_">
	<g>
		<path style="fill:#FFFFFF;" d="M58,20.001H30c-1.104,0-2,0.896-2,1.999v36c0,1.105,0.896,2.001,2,2.001h18l12-12V22
			C60,20.896,59.104,20.001,58,20.001z"/>
	</g>
</g>
<g id="Text_25_">
	<g>
		<path style="fill:#CCCCCC;" d="M46,36h-8c-1.104,0-2,0.896-2,2c0,1.105,0.896,2,2,2h8c1.104,0,2-0.895,2-2
			C48,36.896,47.104,36,46,36z M50,28H38c-1.104,0-2,0.896-2,2c0,1.105,0.896,2,2,2h12c1.104,0,2-0.895,2-2
			C52,28.896,51.104,28,50,28z"/>
	</g>
</g>
<g id="Corner">
	<g>
		<path style="fill:#999999;" d="M52,48.001c-2.209,0-4,1.791-4,4V64l16-15.999H52z"/>
	</g>
</g>
<g>
</g>
<g>
</g>
<g>
</g>
<g>
</g>
<g>
</g>
<g>
</g>
<g>
</g>
<g>
</g>
<g>
</g>
<g>
</g>
<g>
</g>
<g>
</g>
<g>
</g>
<g>
</g>
<g>
</g>
</svg>
