<?xml version="1.0" encoding="iso-8859-1"?>
<!-- Generator: Adobe Illustrator 16.0.0, SVG Export Plug-In . SVG Version: 6.00 Build 0)  -->
<!DOCTYPE svg PUBLIC "-//W3C//DTD SVG 1.1//EN" "http://www.w3.org/Graphics/SVG/1.1/DTD/svg11.dtd">
<svg version="1.1" id="Layer_1" xmlns="http://www.w3.org/2000/svg" xmlns:xlink="http://www.w3.org/1999/xlink" x="0px" y="0px"
	 width="64.037px" height="64.037px" viewBox="0 0 64.037 64.037" style="enable-background:new 0 0 64.037 64.037;"
	 xml:space="preserve">
<g id="Patch">
	<g>
		<path style="fill:#E6B85C;" d="M62.823,43.338L20.639,1.153c-1.537-1.537-4.03-1.537-5.567,0L1.154,15.07
			c-1.537,1.537-1.537,4.03,0,5.566l42.185,42.185c1.537,1.538,4.029,1.538,5.567,0l13.917-13.917
			C64.36,47.367,64.36,44.875,62.823,43.338z"/>
	</g>
</g>
<g id="Patch_1_">
	<g>
		<path style="fill:#FFCC66;" d="M62.884,15.085L48.952,1.154c-1.538-1.539-4.033-1.539-5.572,0L1.154,43.38
			c-1.539,1.539-1.539,4.033,0,5.572l13.931,13.931c1.539,1.539,4.034,1.539,5.572,0l42.227-42.226
			C64.422,19.118,64.422,16.624,62.884,15.085z"/>
	</g>
</g>
<g id="Holes">
	<g>
		<path style="fill-rule:evenodd;clip-rule:evenodd;fill:#FFFFFF;" d="M32.02,22.019c-1.104,0-2,0.895-2,1.999c0,1.105,0.896,2,2,2
			s2-0.895,2-2C34.02,22.913,33.124,22.019,32.02,22.019z M32.02,30.019c-1.104,0-2,0.895-2,2c0,1.104,0.896,1.999,2,1.999
			s2-0.895,2-1.999C34.02,30.913,33.124,30.019,32.02,30.019z M32.02,38.019c-1.104,0-2,0.895-2,2c0,1.104,0.896,2,2,2s2-0.896,2-2
			C34.02,38.913,33.124,38.019,32.02,38.019z M24.02,30.019c-1.104,0-2,0.895-2,2c0,1.104,0.896,1.999,2,1.999s2-0.895,2-1.999
			C26.02,30.913,25.124,30.019,24.02,30.019z M40.02,30.019c-1.104,0-2,0.895-2,2c0,1.104,0.896,1.999,2,1.999s2-0.895,2-1.999
			C42.02,30.913,41.124,30.019,40.02,30.019z"/>
	</g>
</g>
<g>
</g>
<g>
</g>
<g>
</g>
<g>
</g>
<g>
</g>
<g>
</g>
<g>
</g>
<g>
</g>
<g>
</g>
<g>
</g>
<g>
</g>
<g>
</g>
<g>
</g>
<g>
</g>
<g>
</g>
</svg>
