<?xml version="1.0" encoding="iso-8859-1"?>
<!-- Generator: Adobe Illustrator 16.0.0, SVG Export Plug-In . SVG Version: 6.00 Build 0)  -->
<!DOCTYPE svg PUBLIC "-//W3C//DTD SVG 1.1//EN" "http://www.w3.org/Graphics/SVG/1.1/DTD/svg11.dtd">
<svg version="1.1" id="Layer_1" xmlns="http://www.w3.org/2000/svg" xmlns:xlink="http://www.w3.org/1999/xlink" x="0px" y="0px"
	 width="64.001px" height="64.001px" viewBox="0 0 64.001 64.001" style="enable-background:new 0 0 64.001 64.001;"
	 xml:space="preserve">
<g id="Barrel">
	<g>
		<path style="fill:#88C057;" d="M63.429,17.906L46.095,0.572c-0.763-0.763-1.999-0.763-2.762,0L36.57,7.334
			c-0.763,0.763-0.763,1.999,0,2.762l17.335,17.335c0.763,0.763,1.999,0.763,2.762,0l6.762-6.763
			C64.191,19.906,64.191,18.669,63.429,17.906z"/>
	</g>
</g>
<g id="Nib">
	<g>
		<path style="fill-rule:evenodd;clip-rule:evenodd;fill:#CCCCCC;" d="M40,12.001l-6,4l-18,4l-16,42L26.163,35.07
			C26.067,34.728,26,34.374,26,34.001c0-2.209,1.791-4,4-4s4,1.791,4,4c0,2.21-1.791,4-4,4c-0.373,0-0.727-0.067-1.069-0.163
			L2,64.001l42-16l4-18l4-6L40,12.001z"/>
	</g>
</g>
<g>
</g>
<g>
</g>
<g>
</g>
<g>
</g>
<g>
</g>
<g>
</g>
<g>
</g>
<g>
</g>
<g>
</g>
<g>
</g>
<g>
</g>
<g>
</g>
<g>
</g>
<g>
</g>
<g>
</g>
</svg>
