<?xml version="1.0" encoding="iso-8859-1"?>
<!-- Generator: Adobe Illustrator 16.0.0, SVG Export Plug-In . SVG Version: 6.00 Build 0)  -->
<!DOCTYPE svg PUBLIC "-//W3C//DTD SVG 1.1//EN" "http://www.w3.org/Graphics/SVG/1.1/DTD/svg11.dtd">
<svg version="1.1" id="Layer_1" xmlns="http://www.w3.org/2000/svg" xmlns:xlink="http://www.w3.org/1999/xlink" x="0px" y="0px"
	 width="64px" height="64px" viewBox="0 0 64 64" style="enable-background:new 0 0 64 64;" xml:space="preserve">
<g id="Wood">
	<g>
		<polygon style="fill:#E6E6E6;" points="12,32 0,64 32,52 		"/>
	</g>
</g>
<g id="Lead">
	<g>
		<path style="fill:#666666;" d="M4.894,50.948L0,64l13.051-4.895C11.638,55.336,8.664,52.361,4.894,50.948z"/>
	</g>
</g>
<g id="Body_1_">
	<g>
		
			<rect x="15.373" y="11.858" transform="matrix(0.7071 -0.7071 0.7071 0.7071 -7.2548 34.4853)" style="fill:#FFCC66;" width="45.255" height="28.284"/>
	</g>
</g>
<g id="Ferrule">
	<g>
		<path style="fill:#E6E6E6;" d="M57.557,25.899L38.1,6.443c-0.781-0.78-2.047-0.78-2.828,0l-0.829,0.829
			c-0.781,0.78-0.781,2.046,0,2.828l19.456,19.455c0.781,0.782,2.047,0.782,2.828,0l0.829-0.828
			C58.337,27.947,58.337,26.681,57.557,25.899z"/>
	</g>
</g>
<g>
</g>
<g>
</g>
<g>
</g>
<g>
</g>
<g>
</g>
<g>
</g>
<g>
</g>
<g>
</g>
<g>
</g>
<g>
</g>
<g>
</g>
<g>
</g>
<g>
</g>
<g>
</g>
<g>
</g>
</svg>
