<?xml version="1.0" encoding="iso-8859-1"?>
<!-- Generator: Adobe Illustrator 16.0.0, SVG Export Plug-In . SVG Version: 6.00 Build 0)  -->
<!DOCTYPE svg PUBLIC "-//W3C//DTD SVG 1.1//EN" "http://www.w3.org/Graphics/SVG/1.1/DTD/svg11.dtd">
<svg version="1.1" id="Layer_1" xmlns="http://www.w3.org/2000/svg" xmlns:xlink="http://www.w3.org/1999/xlink" x="0px" y="0px"
	 width="64px" height="64px" viewBox="0 0 64 64" style="enable-background:new 0 0 64 64;" xml:space="preserve">
<g id="Pentagon_1_">
	<g>
		<polygon style="fill-rule:evenodd;clip-rule:evenodd;fill:#88C057;" points="52,32.001 52,20 54.445,20 38,8.281 38,12 26,12 
			26,8.281 9.555,20 12,20 12,32.001 4.18,32.001 10.805,52 22,52 22,59.995 42,59.995 42,52 53.195,52 59.82,32.001 		"/>
	</g>
</g>
<g id="Container_33_">
	<g>
		<polygon style="fill:#FFFFFF;" points="32,8.918 6.716,26.934 16.342,55.995 47.658,55.995 57.285,26.934 		"/>
	</g>
</g>
<g id="Anchors_2_">
	<g>
		<path style="fill-rule:evenodd;clip-rule:evenodd;fill:#999999;" d="M12,20H0v12.001h12V20z M8,28H4v-4h4V28z M42,64h12V52H42V64z
			 M46,56h4v4h-4V56z M10,64h12V52H10V64z M14,56h4v4h-4V56z M52,20v12.001h12V20H52z M60,28h-4v-4h4V28z M26,12h12V0H26V12z M30,4
			h4v4h-4V4z"/>
	</g>
</g>
<g>
</g>
<g>
</g>
<g>
</g>
<g>
</g>
<g>
</g>
<g>
</g>
<g>
</g>
<g>
</g>
<g>
</g>
<g>
</g>
<g>
</g>
<g>
</g>
<g>
</g>
<g>
</g>
<g>
</g>
</svg>
