<?xml version="1.0" encoding="iso-8859-1"?>
<!-- Generator: Adobe Illustrator 16.0.0, SVG Export Plug-In . SVG Version: 6.00 Build 0)  -->
<!DOCTYPE svg PUBLIC "-//W3C//DTD SVG 1.1//EN" "http://www.w3.org/Graphics/SVG/1.1/DTD/svg11.dtd">
<svg version="1.1" id="Layer_1" xmlns="http://www.w3.org/2000/svg" xmlns:xlink="http://www.w3.org/1999/xlink" x="0px" y="0px"
	 width="64px" height="64px" viewBox="0 0 64 64" style="enable-background:new 0 0 64 64;" xml:space="preserve">
<g id="Base">
	<g>
		<path style="fill:#CCCCCC;" d="M60,0H4C1.791,0,0,1.79,0,3.999V60c0,2.209,1.791,4,4,4h56c2.209,0,4-1.791,4-4V3.999
			C64,1.79,62.209,0,60,0z"/>
	</g>
</g>
<g id="Container">
	<g>
		<path style="fill-rule:evenodd;clip-rule:evenodd;fill:#FFFFFF;" d="M26,8H10c-1.104,0-2,0.895-2,2v16c0,1.104,0.896,2,2,2h16
			c1.104,0,2-0.896,2-2V10C28,8.895,27.104,8,26,8z M26,36H10c-1.104,0-2,0.895-2,2v16c0,1.104,0.896,2,2,2h16c1.104,0,2-0.896,2-2
			V38C28,36.895,27.104,36,26,36z"/>
	</g>
</g>
<g id="Text_24_">
	<g>
		<path style="fill-rule:evenodd;clip-rule:evenodd;fill:#FFFFFF;" d="M38,15.999h16c1.104,0,2-0.896,2-1.999c0-1.104-0.896-2-2-2
			H38c-1.104,0-2,0.896-2,2C36,15.104,36.896,15.999,38,15.999z M54,40H38c-1.104,0-2,0.895-2,2c0,1.104,0.896,2,2,2h16
			c1.104,0,2-0.896,2-2C56,40.895,55.104,40,54,40z M38,24h12c1.104,0,2-0.896,2-2c0-1.104-0.896-2.001-2-2.001H38
			c-1.104,0-2,0.896-2,2.001C36,23.104,36.896,24,38,24z M50,48H38c-1.104,0-2,0.895-2,1.999s0.896,2,2,2h12c1.104,0,2-0.896,2-2
			S51.104,48,50,48z"/>
	</g>
</g>
<g id="Ok">
	<g>
		<path style="fill-rule:evenodd;clip-rule:evenodd;fill:#88C057;" d="M25.393,12.564c-0.788-0.79-2.065-0.79-2.854,0l-6.521,6.521
			l-2.509-2.517c-0.807-0.809-2.114-0.809-2.921,0s-0.807,2.117,0,2.926l3.841,3.852c0.208,0.208,0.45,0.36,0.707,0.461
			c0.745,0.344,1.654,0.215,2.269-0.4l7.988-7.987C26.181,14.63,26.181,13.352,25.393,12.564z"/>
	</g>
</g>
<g>
</g>
<g>
</g>
<g>
</g>
<g>
</g>
<g>
</g>
<g>
</g>
<g>
</g>
<g>
</g>
<g>
</g>
<g>
</g>
<g>
</g>
<g>
</g>
<g>
</g>
<g>
</g>
<g>
</g>
</svg>
