<?xml version="1.0" encoding="iso-8859-1"?>
<!-- Generator: Adobe Illustrator 16.0.0, SVG Export Plug-In . SVG Version: 6.00 Build 0)  -->
<!DOCTYPE svg PUBLIC "-//W3C//DTD SVG 1.1//EN" "http://www.w3.org/Graphics/SVG/1.1/DTD/svg11.dtd">
<svg version="1.1" id="Layer_1" xmlns="http://www.w3.org/2000/svg" xmlns:xlink="http://www.w3.org/1999/xlink" x="0px" y="0px"
	 width="64px" height="56px" viewBox="0 0 64 56" style="enable-background:new 0 0 64 56;" xml:space="preserve">
<g id="Rectangle">
	<g>
		<polygon style="fill-rule:evenodd;clip-rule:evenodd;fill:#88C057;" points="52,12 52,4 12,4 12,12 4,12 4,44 12,44 12,52 52,52 
			52,44 60,44 60,12 		"/>
	</g>
</g>
<g id="Container_35_">
	<g>
		<rect x="8" y="8" style="fill:#FFFFFF;" width="48" height="40"/>
	</g>
</g>
<g id="Anchors_4_">
	<g>
		<path style="fill-rule:evenodd;clip-rule:evenodd;fill:#999999;" d="M52,56h12V44H52V56z M56,48h4v4h-4V48z M0,56h12V44H0V56z
			 M4,48h4v4H4V48z M52,0v12h12V0H52z M60,8h-4V4h4V8z M0,12h12V0H0V12z M4,4h4v4H4V4z"/>
	</g>
</g>
<g>
</g>
<g>
</g>
<g>
</g>
<g>
</g>
<g>
</g>
<g>
</g>
<g>
</g>
<g>
</g>
<g>
</g>
<g>
</g>
<g>
</g>
<g>
</g>
<g>
</g>
<g>
</g>
<g>
</g>
</svg>
