<?xml version="1.0" encoding="iso-8859-1"?>
<!-- Generator: Adobe Illustrator 16.0.0, SVG Export Plug-In . SVG Version: 6.00 Build 0)  -->
<!DOCTYPE svg PUBLIC "-//W3C//DTD SVG 1.1//EN" "http://www.w3.org/Graphics/SVG/1.1/DTD/svg11.dtd">
<svg version="1.1" id="Layer_1" xmlns="http://www.w3.org/2000/svg" xmlns:xlink="http://www.w3.org/1999/xlink" x="0px" y="0px"
	 width="60px" height="60.003px" viewBox="0 0 60 60.003" style="enable-background:new 0 0 60 60.003;" xml:space="preserve">
<g id="Redo">
	<g>
		<path style="fill-rule:evenodd;clip-rule:evenodd;fill:#CCCCCC;" d="M55.999,0c-2.209,0-4,1.791-4,4.002v5.619
			c-5.478-5.914-13.304-9.62-22-9.62C13.431,0.001,0,13.432,0,30.002C0,46.561,13.418,59.987,29.975,60
			c0.009,0,0.017,0.003,0.025,0.003c2.209,0,4-1.791,4-4s-1.791-4-4-4v-0.002h-0.001c-12.15,0-22-9.85-22-21.999
			c0-12.152,9.85-22.001,22-22.001c6.831,0,12.935,3.113,16.969,7.998h-6.969c-2.209,0-4,1.792-4,4c0,2.21,1.791,4.002,4,4.002h16
			c2.21,0,4-1.792,4-4.002V4.002C59.999,1.791,58.209,0,55.999,0z"/>
	</g>
</g>
<g>
</g>
<g>
</g>
<g>
</g>
<g>
</g>
<g>
</g>
<g>
</g>
<g>
</g>
<g>
</g>
<g>
</g>
<g>
</g>
<g>
</g>
<g>
</g>
<g>
</g>
<g>
</g>
<g>
</g>
</svg>
