<?xml version="1.0" encoding="iso-8859-1"?>
<!-- Generator: Adobe Illustrator 16.0.0, SVG Export Plug-In . SVG Version: 6.00 Build 0)  -->
<!DOCTYPE svg PUBLIC "-//W3C//DTD SVG 1.1//EN" "http://www.w3.org/Graphics/SVG/1.1/DTD/svg11.dtd">
<svg version="1.1" id="Layer_1" xmlns="http://www.w3.org/2000/svg" xmlns:xlink="http://www.w3.org/1999/xlink" x="0px" y="0px"
	 width="64px" height="64px" viewBox="0 0 64 64" style="enable-background:new 0 0 64 64;" xml:space="preserve">
<g id="Select">
	<g>
		<rect y="8.001" style="fill:#FFCC66;" width="50" height="47.999"/>
	</g>
</g>
<g id="T_7_">
	<g>
		<path style="fill-rule:evenodd;clip-rule:evenodd;fill:#FFFFFF;" d="M38,13.999H10c-1.105,0-2,0.896-2,2V26c0,1.104,0.895,2,2,2
			c1.104,0,2-0.896,2-2v-2.001C12,20.687,14.686,18,17.999,18H20v24c0,2.208-1.791,3.999-4,3.999c-1.105,0-2,0.896-2,2
			C14,49.104,14.895,50,16,50h16c1.104,0,2-0.896,2-2.001c0-1.104-0.896-2-2-2c-2.21,0-4-1.791-4-3.999h-0.001V18H30
			c3.313,0,6,2.687,6,5.999V26c0,1.104,0.895,2,2,2c1.104,0,2-0.896,2-2V15.999C40,14.896,39.104,13.999,38,13.999z"/>
	</g>
</g>
<g id="Cursor">
	<g>
		<path style="fill-rule:evenodd;clip-rule:evenodd;fill:#666666;" d="M62,60h-4c-2.209,0-4-1.79-4-4V8.001C54,5.791,55.791,4,58,4
			h4c1.104,0,2-0.896,2-2s-0.896-2-2-2h-4c-2.393,0-4.534,1.056-6,2.721C50.533,1.056,48.393,0,46,0h-4c-1.104,0-2,0.896-2,2
			s0.896,2,2,2h4c2.209,0,4,1.791,4,4.001V56c0,2.21-1.791,4-4,4h-4c-1.104,0-2,0.896-2,2s0.896,2,2,2h4
			c2.393,0,4.533-1.056,6-2.721C53.466,62.944,55.607,64,58,64h4c1.104,0,2-0.896,2-2S63.104,60,62,60z"/>
	</g>
</g>
<g>
</g>
<g>
</g>
<g>
</g>
<g>
</g>
<g>
</g>
<g>
</g>
<g>
</g>
<g>
</g>
<g>
</g>
<g>
</g>
<g>
</g>
<g>
</g>
<g>
</g>
<g>
</g>
<g>
</g>
</svg>
