<?xml version="1.0" encoding="iso-8859-1"?>
<!-- Generator: Adobe Illustrator 16.0.0, SVG Export Plug-In . SVG Version: 6.00 Build 0)  -->
<!DOCTYPE svg PUBLIC "-//W3C//DTD SVG 1.1//EN" "http://www.w3.org/Graphics/SVG/1.1/DTD/svg11.dtd">
<svg version="1.1" id="Layer_1" xmlns="http://www.w3.org/2000/svg" xmlns:xlink="http://www.w3.org/1999/xlink" x="0px" y="0px"
	 width="64.016px" height="63.986px" viewBox="0 0 64.016 63.986" style="enable-background:new 0 0 64.016 63.986;"
	 xml:space="preserve">
<g id="Dotline">
	<g>
		<path style="fill:#CCCCCC;" d="M4.504,37.619c-0.241-1.187-0.407-2.409-0.495-3.636c-0.076-1.097-0.971-2.001-2.129-1.911
			c-1.099,0.069-1.939,0.958-1.877,2.058c0.002,0.033,0.012,0.172,0.016,0.205c0.092,1.331,0.281,2.729,0.56,4.082
			c0.191,0.952,1.027,1.604,1.961,1.604c0.133,0,0.267-0.013,0.401-0.04C4.027,39.762,4.725,38.703,4.504,37.619z M16.52,55.403
			c-1.014-0.671-1.996-1.416-2.922-2.219c-0.836-0.728-2.102-0.636-2.825,0.199c-0.727,0.836-0.637,2.103,0.199,2.826
			c1.057,0.918,2.18,1.771,3.341,2.536c0.338,0.226,0.722,0.333,1.102,0.333c0.649,0,1.287-0.315,1.673-0.9
			C17.698,57.257,17.444,56.013,16.52,55.403z M26.643,59.545c-1.193-0.231-2.388-0.544-3.544-0.932
			c-1.061-0.351-2.186,0.217-2.536,1.264c-0.351,1.051,0.215,2.187,1.265,2.537c1.324,0.441,2.688,0.802,4.057,1.064
			c0.127,0.025,0.256,0.037,0.381,0.037c0.941,0,1.781-0.666,1.965-1.625C28.442,60.805,27.729,59.754,26.643,59.545z M6.888,44.539
			c-0.495-0.99-1.701-1.388-2.689-0.896c-0.99,0.495-1.391,1.698-0.896,2.689c0.625,1.246,1.337,2.465,2.118,3.62
			c0.387,0.571,1.018,0.88,1.661,0.88c0.386,0,0.777-0.111,1.121-0.344c0.916-0.621,1.157-1.865,0.536-2.783
			C8.056,46.695,7.434,45.631,6.888,44.539z M58.159,46.928c-0.922-0.612-2.165-0.357-2.776,0.564c-0.675,1.018-1.422,2-2.223,2.919
			c-0.726,0.834-0.639,2.101,0.197,2.826c0.378,0.331,0.847,0.493,1.313,0.493c0.56,0,1.116-0.233,1.513-0.688
			c0.914-1.051,1.769-2.173,2.539-3.335C59.334,48.783,59.082,47.541,58.159,46.928z M37.588,59.527
			c-1.18,0.238-2.396,0.528-3.613,0.528c-0.006,0-0.011,0-0.017,0c-1.044,0-1.871,0.903-1.871,1.965
			c0.001,1.107,0.897,1.966,2.004,1.966c0.054,0,0.111-0.001,0.169-0.008c1.388-0.097,2.774-0.285,4.121-0.557
			c1.085-0.22,1.786-1.276,1.568-2.362C39.73,59.976,38.683,59.304,37.588,59.527z M61.883,35.791
			c-1.085-0.219-2.139,0.499-2.35,1.585c-0.232,1.196-0.546,2.39-0.934,3.544c-0.354,1.05,0.212,2.187,1.262,2.538
			c0.211,0.071,0.427,0.104,0.638,0.104c0.837,0,1.618-0.528,1.899-1.366c0.443-1.323,0.804-2.687,1.07-4.057
			C63.679,37.054,62.969,36,61.883,35.791z M47.676,55.267c-1.01,0.683-2.075,1.306-3.168,1.852
			c-0.99,0.495-1.393,1.698-0.897,2.688c0.352,0.703,1.059,1.107,1.795,1.107c0.3,0,0.605-0.068,0.893-0.211
			c1.25-0.624,2.469-1.336,3.623-2.117c0.916-0.621,1.157-1.865,0.537-2.783C49.839,54.887,48.591,54.646,47.676,55.267z"/>
	</g>
</g>
<g id="Arrow_9_">
	<g>
		<path style="fill:#ED7161;" d="M53.041,7.804C46.573,2.22,38.284-0.522,29.761,0.082c-7.719,0.544-14.568,3.82-19.77,8.762V5.999
			c0-1.104-0.896-2-2-2s-2,0.896-2,2v8c0,1.104,0.896,2,2,2h8c1.104,0,2-0.896,2-2S17.096,12,15.992,12h-3.593
			c4.593-4.49,10.734-7.454,17.646-7.942c7.487-0.529,14.709,1.873,20.37,6.757c5.659,4.885,9.068,11.669,9.599,19.104
			c0.079,1.099,1.039,1.915,2.141,1.848c1.104-0.078,1.936-1.031,1.857-2.13C63.406,21.139,59.509,13.386,53.041,7.804z"/>
	</g>
</g>
<g id="Center">
	<g>
		<path style="fill-rule:evenodd;clip-rule:evenodd;fill:#ED7161;" d="M37.992,30h-4v-4.001c0-1.104-0.896-2-2-2s-2,0.896-2,2V30h-4
			c-1.104,0-2,0.895-2,2c0,1.104,0.896,1.999,2,1.999h4v4c0,1.104,0.896,2,2,2s2-0.896,2-2v-4h4c1.104,0,2-0.896,2-1.999
			C39.992,30.895,39.096,30,37.992,30z"/>
	</g>
</g>
<g>
</g>
<g>
</g>
<g>
</g>
<g>
</g>
<g>
</g>
<g>
</g>
<g>
</g>
<g>
</g>
<g>
</g>
<g>
</g>
<g>
</g>
<g>
</g>
<g>
</g>
<g>
</g>
<g>
</g>
</svg>
