<?xml version="1.0" encoding="iso-8859-1"?>
<!-- Generator: Adobe Illustrator 16.0.0, SVG Export Plug-In . SVG Version: 6.00 Build 0)  -->
<!DOCTYPE svg PUBLIC "-//W3C//DTD SVG 1.1//EN" "http://www.w3.org/Graphics/SVG/1.1/DTD/svg11.dtd">
<svg version="1.1" id="Layer_1" xmlns="http://www.w3.org/2000/svg" xmlns:xlink="http://www.w3.org/1999/xlink" x="0px" y="0px"
	 width="64px" height="64px" viewBox="0 0 64 64" style="enable-background:new 0 0 64 64;" xml:space="preserve">
<g id="Ruller">
	<g>
		<path style="fill:#CCCCCC;" d="M60,0H4C1.791,0,0,1.791,0,3.999V60c0,2.209,1.791,4,4,4h56c2.209,0,4-1.791,4-4V3.999
			C64,1.791,62.209,0,60,0z"/>
	</g>
</g>
<g id="Container_7_">
	<g>
		<path style="fill:#FFFFFF;" d="M16,16v44h42c1.104,0,2-0.896,2-2.001V16H16z"/>
	</g>
</g>
<g id="Grid_9_">
	<g>
		<path style="fill-rule:evenodd;clip-rule:evenodd;fill:#999999;" d="M50,10c-1.104,0-2,0.895-2,2v4h4v-4
			C52,10.895,51.104,10,50,10z M58,10c-1.104,0-2,0.895-2,2v4h4v-4C60,10.895,59.104,10,58,10z M18,6c-1.104,0-2,0.895-2,2v8h4V8
			C20,6.895,19.104,6,18,6z M26,10c-1.104,0-2,0.895-2,2v4h4v-4C28,10.895,27.104,10,26,10z M34,10c-1.104,0-2,0.895-2,2v4h4v-4
			C36,10.895,35.104,10,34,10z M10,50c0,1.104,0.896,2,2,2h4v-4h-4C10.896,48,10,48.895,10,50z M10,57.999
			C10,59.104,10.896,60,12,60h4v-4h-4C10.896,56,10,56.895,10,57.999z M6,18c0,1.104,0.896,2,2,2h8v-4H8C6.896,16,6,16.895,6,18z
			 M10,26c0,1.104,0.896,1.999,2,1.999h4v-4h-4C10.896,23.999,10,24.895,10,26z M10,34c0,1.104,0.896,2,2,2h4v-4h-4
			C10.896,32,10,32.895,10,34z M42,6c-1.104,0-2,0.895-2,2v8h4V8C44,6.895,43.104,6,42,6z M6,42c0,1.104,0.896,2,2,2h8v-4H8
			C6.896,40,6,40.895,6,42z"/>
	</g>
</g>
<g>
</g>
<g>
</g>
<g>
</g>
<g>
</g>
<g>
</g>
<g>
</g>
<g>
</g>
<g>
</g>
<g>
</g>
<g>
</g>
<g>
</g>
<g>
</g>
<g>
</g>
<g>
</g>
<g>
</g>
</svg>
