<?xml version="1.0" encoding="iso-8859-1"?>
<!-- Generator: Adobe Illustrator 16.0.0, SVG Export Plug-In . SVG Version: 6.00 Build 0)  -->
<!DOCTYPE svg PUBLIC "-//W3C//DTD SVG 1.1//EN" "http://www.w3.org/Graphics/SVG/1.1/DTD/svg11.dtd">
<svg version="1.1" id="Layer_1" xmlns="http://www.w3.org/2000/svg" xmlns:xlink="http://www.w3.org/1999/xlink" x="0px" y="0px"
	 width="64px" height="64px" viewBox="0 0 64 64" style="enable-background:new 0 0 64 64;" xml:space="preserve">
<g id="Body">
	<g>
		<path style="fill:#48A0DC;" d="M54,0H4C1.791,0,0,1.791,0,4v56c0,2.209,1.791,4,4,4h56c2.209,0,4-1.791,4-4V10L54,0z"/>
	</g>
</g>
<g id="Media">
	<g>
		<rect x="12" style="fill:#387BA8;" width="6" height="24"/>
	</g>
</g>
<g id="Media_Cover">
	<g>
		<path style="fill-rule:evenodd;clip-rule:evenodd;fill:#E6E6E6;" d="M18,0v24h32V0H18z M46,20h-8V4h8V20z"/>
	</g>
</g>
<g id="Label">
	<g>
		<path style="fill:#FFFFFF;" d="M54,30H10c-1.104,0-2,0.896-2,2.001V54c0,1.104,0.896,2,2,2h44c1.104,0,2-0.896,2-2V32.001
			C56,30.896,55.104,30,54,30z"/>
	</g>
</g>
<g>
</g>
<g>
</g>
<g>
</g>
<g>
</g>
<g>
</g>
<g>
</g>
<g>
</g>
<g>
</g>
<g>
</g>
<g>
</g>
<g>
</g>
<g>
</g>
<g>
</g>
<g>
</g>
<g>
</g>
</svg>
