<?xml version="1.0" encoding="iso-8859-1"?>
<!-- Generator: Adobe Illustrator 16.0.0, SVG Export Plug-In . SVG Version: 6.00 Build 0)  -->
<!DOCTYPE svg PUBLIC "-//W3C//DTD SVG 1.1//EN" "http://www.w3.org/Graphics/SVG/1.1/DTD/svg11.dtd">
<svg version="1.1" id="Layer_1" xmlns="http://www.w3.org/2000/svg" xmlns:xlink="http://www.w3.org/1999/xlink" x="0px" y="0px"
	 width="60px" height="64.002px" viewBox="0 0 60 64.002" style="enable-background:new 0 0 60 64.002;" xml:space="preserve">
<g id="T_3_">
	<g>
		<path style="fill-rule:evenodd;clip-rule:evenodd;fill:#CCCCCC;" d="M58,0H30c-1.105,0-2,0.896-2,2v10.001c0,1.104,0.895,2,2,2
			c1.104,0,2-0.896,2-2V10c0-3.313,2.686-5.999,6-5.999h2v52C40,58.209,38.209,60,36,60c-1.105,0-2,0.896-2,2
			c0,1.105,0.895,2.001,2,2.001h16c1.104,0,2-0.896,2-2.001c0-1.104-0.896-2-2-2c-2.21,0-4-1.791-4-3.999v-52h2
			c3.313,0,6,2.687,6,5.999v2.001c0,1.104,0.896,2,2,2s2-0.896,2-2V2C60,0.896,59.104,0,58,0z"/>
	</g>
</g>
<g id="Arrow_8_">
	<g>
		<path style="fill-rule:evenodd;clip-rule:evenodd;fill:#48A0DC;" d="M18,52.001c-0.553,0-1.053,0.224-1.414,0.586l-4.604,4.604
			V6.812l4.604,4.604c0.361,0.362,0.861,0.587,1.414,0.587c1.104,0,2-0.896,2-2c0-0.553-0.225-1.053-0.586-1.415l-8-8
			C11.052,0.225,10.552,0.002,10,0.002c-0.553,0-1.053,0.223-1.414,0.585l-8,8C0.224,8.949,0,9.449,0,10.002c0,1.104,0.896,2,2,2
			c0.552,0,1.052-0.225,1.414-0.587l4.604-4.603V57.19l-4.604-4.604C3.052,52.225,2.552,52.001,2,52.001c-1.104,0-2,0.896-2,2
			c0,0.553,0.224,1.053,0.586,1.415l8,8c0.361,0.361,0.861,0.586,1.414,0.586c0.552,0,1.052-0.225,1.414-0.586l8-8
			C19.775,55.054,20,54.554,20,54.001C20,52.896,19.104,52.001,18,52.001z"/>
	</g>
</g>
<g>
</g>
<g>
</g>
<g>
</g>
<g>
</g>
<g>
</g>
<g>
</g>
<g>
</g>
<g>
</g>
<g>
</g>
<g>
</g>
<g>
</g>
<g>
</g>
<g>
</g>
<g>
</g>
<g>
</g>
</svg>
