<?xml version="1.0" encoding="iso-8859-1"?>
<!-- Generator: Adobe Illustrator 16.0.0, SVG Export Plug-In . SVG Version: 6.00 Build 0)  -->
<!DOCTYPE svg PUBLIC "-//W3C//DTD SVG 1.1//EN" "http://www.w3.org/Graphics/SVG/1.1/DTD/svg11.dtd">
<svg version="1.1" id="Layer_1" xmlns="http://www.w3.org/2000/svg" xmlns:xlink="http://www.w3.org/1999/xlink" x="0px" y="0px"
	 width="64px" height="64.002px" viewBox="0 0 64 64.002" style="enable-background:new 0 0 64 64.002;" xml:space="preserve">
<g id="Arrow_7_">
	<g>
		<path style="fill-rule:evenodd;clip-rule:evenodd;fill:#48A0DC;" d="M63.414,52.588l-8-8c-0.362-0.362-0.861-0.586-1.414-0.586
			c-1.105,0-2,0.895-2,2c0,0.552,0.224,1.052,0.586,1.414l4.604,4.604H6.811l4.604-4.604C11.776,47.054,12,46.554,12,46.002
			c0-1.105-0.896-2-2-2c-0.553,0-1.053,0.224-1.414,0.586l-8,8C0.224,52.949,0,53.449,0,54.002c0,0.552,0.224,1.053,0.586,1.414l8,8
			c0.361,0.361,0.861,0.586,1.414,0.586c1.104,0,2-0.896,2-2c0-0.553-0.224-1.053-0.586-1.414l-4.604-4.604h50.379l-4.604,4.604
			C52.224,60.949,52,61.449,52,62.002c0,1.104,0.895,2,2,2c0.553,0,1.052-0.225,1.414-0.586l8-8C63.775,55.055,64,54.554,64,54.002
			C64,53.449,63.775,52.949,63.414,52.588z"/>
	</g>
</g>
<g id="T_2_">
	<g>
		<path style="fill-rule:evenodd;clip-rule:evenodd;fill:#CCCCCC;" d="M50,0H14c-1.105,0-2,0.896-2,2v10.001c0,1.104,0.895,2,2,2
			c1.104,0,2-0.896,2-2V10c0-3.313,2.686-5.999,6-5.999h2V28c0,2.21-1.791,4-4,4c-1.104,0-2,0.896-2,2.001c0,1.104,0.896,2,2,2h24
			c1.104,0,2-0.896,2-2C46,32.896,45.104,32,44,32c-2.209,0-4-1.79-4-4V4.001h2c3.313,0,6,2.687,6,5.999v2.001c0,1.104,0.895,2,2,2
			c1.104,0,2-0.896,2-2V2C52,0.896,51.104,0,50,0z"/>
	</g>
</g>
<g>
</g>
<g>
</g>
<g>
</g>
<g>
</g>
<g>
</g>
<g>
</g>
<g>
</g>
<g>
</g>
<g>
</g>
<g>
</g>
<g>
</g>
<g>
</g>
<g>
</g>
<g>
</g>
<g>
</g>
</svg>
