<?xml version="1.0" encoding="iso-8859-1"?>
<!-- Generator: Adobe Illustrator 16.0.0, SVG Export Plug-In . SVG Version: 6.00 Build 0)  -->
<!DOCTYPE svg PUBLIC "-//W3C//DTD SVG 1.1//EN" "http://www.w3.org/Graphics/SVG/1.1/DTD/svg11.dtd">
<svg version="1.1" id="Layer_1" xmlns="http://www.w3.org/2000/svg" xmlns:xlink="http://www.w3.org/1999/xlink" x="0px" y="0px"
	 width="64px" height="64px" viewBox="0 0 64 64" style="enable-background:new 0 0 64 64;" xml:space="preserve">
<g id="North">
	<g>
		<path style="fill-rule:evenodd;clip-rule:evenodd;fill:#ED7161;" d="M40,0c-8,0-12.857,2.856-18,8L6,23.999L18,36l16-16
			c2-2,6.725-3.275,10,0L58,6C53.77,1.77,48,0,40,0z"/>
	</g>
</g>
<g id="South">
	<g>
		<path style="fill-rule:evenodd;clip-rule:evenodd;fill:#48A0DC;" d="M58,6L44,20c3.275,3.274,2,7.999,0,10L28,46l12,11.999L56,42
			c5.143-5.144,8-10,8-18.001C64,16,62.23,10.23,58,6z"/>
	</g>
</g>
<g id="Head">
	<g>
		<path style="fill-rule:evenodd;clip-rule:evenodd;fill:#CCCCCC;" d="M28,46l-4,4c-1.922,1.916-2,2.768-2,4s0.078,2.083,2,3.999
			l4,4C29.916,63.921,30.768,64,32,64s2.084-0.079,4-2.001l4-4L28,46z M2,27.999C0.078,29.916,0,30.767,0,32
			c0,1.232,0.078,2.083,2,4l4,4c1.916,1.921,2.768,2,4,2s2.084-0.079,4-2l4-4L6,23.999L2,27.999z"/>
	</g>
</g>
<g>
</g>
<g>
</g>
<g>
</g>
<g>
</g>
<g>
</g>
<g>
</g>
<g>
</g>
<g>
</g>
<g>
</g>
<g>
</g>
<g>
</g>
<g>
</g>
<g>
</g>
<g>
</g>
<g>
</g>
</svg>
