<?xml version="1.0" encoding="iso-8859-1"?>
<!-- Generator: Adobe Illustrator 16.0.0, SVG Export Plug-In . SVG Version: 6.00 Build 0)  -->
<!DOCTYPE svg PUBLIC "-//W3C//DTD SVG 1.1//EN" "http://www.w3.org/Graphics/SVG/1.1/DTD/svg11.dtd">
<svg version="1.1" id="Layer_1" xmlns="http://www.w3.org/2000/svg" xmlns:xlink="http://www.w3.org/1999/xlink" x="0px" y="0px"
	 width="64px" height="60px" viewBox="0 0 64 60" style="enable-background:new 0 0 64 60;" xml:space="preserve">
<g id="Text_4_">
	<g>
		<path style="fill-rule:evenodd;clip-rule:evenodd;fill:#CCCCCC;" d="M2,36h48c1.104,0,2-0.895,2-2c0-1.104-0.896-2-2-2H2
			c-1.105,0-2,0.896-2,2C0,35.105,0.895,36,2,36z M2,52h48c1.104,0,2-0.895,2-1.999C52,48.896,51.104,48,50,48H2
			c-1.105,0-2,0.896-2,2.001C0,51.105,0.895,52,2,52z M2,44.001h60c1.104,0,2-0.896,2-2.001c0-1.104-0.896-1.999-2-1.999H2
			c-1.105,0-2,0.896-2,1.999C0,43.104,0.895,44.001,2,44.001z M62,56H2c-1.105,0-2,0.896-2,2s0.895,2,2,2h60c1.104,0,2-0.896,2-2
			S63.104,56,62,56z"/>
	</g>
</g>
<g id="Arrow_1_">
	<g>
		<path style="fill-rule:evenodd;clip-rule:evenodd;fill:#48A0DC;" d="M30.586,19.414c0.361,0.361,0.861,0.585,1.414,0.585
			c0.552,0,1.052-0.224,1.414-0.585l8-8C41.775,11.052,42,10.552,42,10c0-1.105-0.896-2-2-2c-0.553,0-1.053,0.224-1.414,0.585
			l-4.604,4.604V2c0-1.105-0.888-2-1.982-2s-1.981,0.895-1.981,2v11.188l-4.604-4.604C25.052,8.224,24.552,8,24,8
			c-1.104,0-2,0.895-2,2c0,0.552,0.224,1.052,0.586,1.414L30.586,19.414z M62,24H2c-1.104,0-2,0.896-2,1.999c0,1.104,0.896,2,2,2h60
			c1.104,0,2-0.896,2-2C64,24.896,63.104,24,62,24z"/>
	</g>
</g>
<g>
</g>
<g>
</g>
<g>
</g>
<g>
</g>
<g>
</g>
<g>
</g>
<g>
</g>
<g>
</g>
<g>
</g>
<g>
</g>
<g>
</g>
<g>
</g>
<g>
</g>
<g>
</g>
<g>
</g>
</svg>
