<?xml version="1.0" encoding="iso-8859-1"?>
<!-- Generator: Adobe Illustrator 16.0.0, SVG Export Plug-In . SVG Version: 6.00 Build 0)  -->
<!DOCTYPE svg PUBLIC "-//W3C//DTD SVG 1.1//EN" "http://www.w3.org/Graphics/SVG/1.1/DTD/svg11.dtd">
<svg version="1.1" id="Layer_1" xmlns="http://www.w3.org/2000/svg" xmlns:xlink="http://www.w3.org/1999/xlink" x="0px" y="0px"
	 width="64px" height="60.001px" viewBox="0 0 64 60.001" style="enable-background:new 0 0 64 60.001;" xml:space="preserve">
<g id="Text_3_">
	<g>
		<path style="fill-rule:evenodd;clip-rule:evenodd;fill:#CCCCCC;" d="M50,24.001H2c-1.105,0-2,0.895-2,1.999c0,1.105,0.895,2,2,2
			h48c1.104,0,2-0.895,2-2C52,24.896,51.104,24.001,50,24.001z M2,12h48c1.104,0,2-0.895,2-2c0-1.104-0.896-1.999-2-1.999H2
			c-1.105,0-2,0.896-2,1.999C0,11.105,0.895,12,2,12z M62,16H2c-1.105,0-2,0.896-2,2.001C0,19.104,0.895,20,2,20h60
			c1.104,0,2-0.896,2-1.999C64,16.896,63.104,16,62,16z M2,4h60c1.104,0,2-0.895,2-1.999S63.104,0,62,0H2C0.895,0,0,0.896,0,2.001
			S0.895,4,2,4z"/>
	</g>
</g>
<g id="Arrow">
	<g>
		<path style="fill-rule:evenodd;clip-rule:evenodd;fill:#48A0DC;" d="M33.414,40.587c-0.361-0.362-0.861-0.586-1.414-0.586
			s-1.053,0.224-1.414,0.586l-8,8C22.224,48.949,22,49.449,22,50.001c0,1.104,0.896,2,2,2c0.552,0,1.053-0.224,1.414-0.585
			l4.604-4.604v11.19c0,1.104,0.888,1.999,1.982,1.999c1.094,0,1.981-0.895,1.981-1.999V46.813l4.604,4.604
			c0.361,0.361,0.861,0.585,1.414,0.585c1.104,0,2-0.896,2-2c0-0.552-0.224-1.052-0.586-1.414L33.414,40.587z M62,32.001H2
			c-1.104,0-2,0.896-2,2c0,1.105,0.896,2.001,2,2.001h60c1.104,0,2-0.896,2-2.001C64,32.896,63.104,32.001,62,32.001z"/>
	</g>
</g>
<g>
</g>
<g>
</g>
<g>
</g>
<g>
</g>
<g>
</g>
<g>
</g>
<g>
</g>
<g>
</g>
<g>
</g>
<g>
</g>
<g>
</g>
<g>
</g>
<g>
</g>
<g>
</g>
<g>
</g>
</svg>
