<?xml version="1.0" encoding="iso-8859-1"?>
<!-- Generator: Adobe Illustrator 16.0.0, SVG Export Plug-In . SVG Version: 6.00 Build 0)  -->
<!DOCTYPE svg PUBLIC "-//W3C//DTD SVG 1.1//EN" "http://www.w3.org/Graphics/SVG/1.1/DTD/svg11.dtd">
<svg version="1.1" id="Layer_1" xmlns="http://www.w3.org/2000/svg" xmlns:xlink="http://www.w3.org/1999/xlink" x="0px" y="0px"
	 width="68px" height="64.001px" viewBox="0 0 68 64.001" style="enable-background:new 0 0 68 64.001;" xml:space="preserve">
<g id="c">
	<g>
		<path style="fill-rule:evenodd;clip-rule:evenodd;fill:#CCCCCC;" d="M62,40.001c1.104,0,2-0.896,2-2V32
			c0-1.104-0.896-1.999-2-1.999S60,30.896,60,32v0.593c-2.609-1.638-5.689-2.592-9-2.592c-9.389,0-17,7.61-17,16.999
			s7.611,17.001,17,17.001c5.218,0,9.882-2.356,13-6.058v-3.763C61.851,57.687,58.176,60,54,60c-6.628,0-12-5.819-12-13
			c0-7.18,5.372-12.999,12-12.999c2.189,0,4.234,0.647,6,1.758v2.242C60,39.104,60.896,40.001,62,40.001z"/>
	</g>
</g>
<g id="B_1_">
	<g>
		<path style="fill-rule:evenodd;clip-rule:evenodd;fill:#CCCCCC;" d="M48.278,16.274C50.53,14.64,52,11.993,52,8.998
			c0-4.632-3.501-8.441-8-8.939V0.001h-0.98C43.013,0.001,43.007,0,43,0s-0.013,0.001-0.02,0.001H34h-2h-4c-1.104,0-2,0.895-2,2
			c0,1.104,0.896,2,2,2s2,0.895,2,2v24c0,1.104-0.896,2-2,2s-2,0.895-2,2c0,1.104,0.896,2,2,2h6h12V36c5.522,0,10-4.477,10-9.998
			C56,21.265,52.701,17.307,48.278,16.274z M38,15.656V4.34V4.001h1.797h0.396C43.416,4.104,46,6.746,46,9.998
			c0,3.298-2.655,5.972-5.942,6.003h-0.11H38V15.656z M42,31.999v0.002h-3.986H38v-0.017v-1.51v-8.956v-1.489V20h0.02h3.845h0.358
			c3.205,0.123,5.769,2.755,5.769,5.994C47.991,29.308,45.31,31.994,42,31.999z"/>
	</g>
</g>
<g id="A_9_">
	<g>
		<path style="fill-rule:evenodd;clip-rule:evenodd;fill:#CCCCCC;" d="M34,36.001c-1,0-1.641-1.067-2-2L22,8
			c-0.793-2.062-1.791-3.999-4-3.999S14.793,5.938,14,8L4,34.001c-0.359,0.933-1,2-2,2c-1.104,0-2,0.895-2,2c0,1.104,0.896,2,2,2h8
			c1.104,0,2-0.896,2-2c0-1.105-0.896-2-2-2c-2,0-2.359-1.067-2-2l0.77-2H23.23l0.77,2c0.359,0.933,0,2-2,2c-1.104,0-2,0.895-2,2
			c0,1.104,0.896,2,2,2h12c1.104,0,2-0.896,2-2C36,36.896,35.104,36.001,34,36.001z M10.308,28.001L16,13.201l5.692,14.8H10.308z"/>
	</g>
</g>
<g id="OK">
	<g>
		<path style="fill-rule:evenodd;clip-rule:evenodd;fill:#88C057;" d="M28.846,45.142c-1.52-1.521-3.983-1.521-5.504,0l-9.371,9.371
			l-3.436-3.436c-1.508-1.507-3.951-1.507-5.458,0c-1.508,1.507-1.508,3.95,0,5.458l5.414,5.414
			c0.175,0.319,0.379,0.627,0.649,0.897c0.783,0.782,1.815,1.154,2.841,1.131c1.038,0.041,2.089-0.323,2.881-1.115
			c0.261-0.261,0.46-0.557,0.631-0.864l11.353-11.354C30.365,49.125,30.365,46.661,28.846,45.142z"/>
	</g>
</g>
<g>
</g>
<g>
</g>
<g>
</g>
<g>
</g>
<g>
</g>
<g>
</g>
<g>
</g>
<g>
</g>
<g>
</g>
<g>
</g>
<g>
</g>
<g>
</g>
<g>
</g>
<g>
</g>
<g>
</g>
</svg>
