<?xml version="1.0" encoding="iso-8859-1"?>
<!-- Generator: Adobe Illustrator 16.0.0, SVG Export Plug-In . SVG Version: 6.00 Build 0)  -->
<!DOCTYPE svg PUBLIC "-//W3C//DTD SVG 1.1//EN" "http://www.w3.org/Graphics/SVG/1.1/DTD/svg11.dtd">
<svg version="1.1" id="Layer_1" xmlns="http://www.w3.org/2000/svg" xmlns:xlink="http://www.w3.org/1999/xlink" x="0px" y="0px"
	 width="56px" height="63.999px" viewBox="0 0 56 63.999" style="enable-background:new 0 0 56 63.999;" xml:space="preserve">
<g id="S">
	<g>
		<path style="fill-rule:evenodd;clip-rule:evenodd;fill:#CCCCCC;" d="M34,25.999C27.709,22.967,16,18.167,16,12
			c0-5.797,4.191-8,10-8c11.044,0,16,7.563,16,13.999C42,19.104,42.896,20,44,20s2-0.896,2-2.001v-16C46,0.895,45.104,0,44,0
			s-2,0.895-2,1.999C42,7.642,35.55,0,26,0C13.967,0,6,7.67,6,17.999C6,28.781,18.009,35.178,24,38c11.18,5.274,16,8.509,16,13.999
			c0,4.665-4.964,8-12,8c-9.173,0-18-5.365-18-18c0-1.104-0.896-2-2-2s-2,0.896-2,2V62c0,1.104,0.896,1.999,2,1.999s2-0.896,2-1.999
			c0-5.023,9.213,1.999,18,1.999c13.37,0,22-8.69,22-17.999C50,39.765,48.734,33.066,34,25.999z"/>
	</g>
</g>
<g id="Strikethrough">
	<g>
		<path style="fill:#ED7161;" d="M54,29.999H2c-1.105,0-2,0.896-2,2s0.895,1.999,2,1.999h52c1.104,0,2-0.895,2-1.999
			S55.104,29.999,54,29.999z"/>
	</g>
</g>
<g>
</g>
<g>
</g>
<g>
</g>
<g>
</g>
<g>
</g>
<g>
</g>
<g>
</g>
<g>
</g>
<g>
</g>
<g>
</g>
<g>
</g>
<g>
</g>
<g>
</g>
<g>
</g>
<g>
</g>
</svg>
