<?xml version="1.0" encoding="iso-8859-1"?>
<!-- Generator: Adobe Illustrator 16.0.0, SVG Export Plug-In . SVG Version: 6.00 Build 0)  -->
<!DOCTYPE svg PUBLIC "-//W3C//DTD SVG 1.1//EN" "http://www.w3.org/Graphics/SVG/1.1/DTD/svg11.dtd">
<svg version="1.1" id="Layer_1" xmlns="http://www.w3.org/2000/svg" xmlns:xlink="http://www.w3.org/1999/xlink" x="0px" y="0px"
	 width="56px" height="62.001px" viewBox="0 0 56 62.001" style="enable-background:new 0 0 56 62.001;" xml:space="preserve">
<g id="_x31__2_">
	<g>
		<path style="fill-rule:evenodd;clip-rule:evenodd;fill:#ED7161;" d="M54,58V46c0-1.104-0.896-2-2-2
			c-0.003,0-0.007,0.001-0.01,0.001H50c-1.104,0-2,0.895-2,2c0,1.104,0.896,2,2,2V58c-1.104,0-2,0.896-2,2.001c0,1.104,0.896,2,2,2
			h4c1.104,0,2-0.896,2-2C56,58.896,55.104,58,54,58z"/>
	</g>
</g>
<g id="T">
	<g>
		<path style="fill-rule:evenodd;clip-rule:evenodd;fill:#CCCCCC;" d="M50,0H2C0.896,0,0,0.896,0,2v16.001C0,19.104,0.896,20,2,20
			s2-0.896,2-1.999V16C4,9.372,9.372,4,16,4h4v44.001C20,52.419,16.418,56,12,56c-1.104,0-2,0.896-2,2s0.896,2,2,2h28
			c1.104,0,2-0.896,2-2s-0.896-2-2-2c-4.418,0-8-3.581-8-7.999V4h4c6.627,0,12,5.372,12,12v2.001C48,19.104,48.896,20,50,20
			s2-0.896,2-1.999V2C52,0.896,51.104,0,50,0z"/>
	</g>
</g>
<g>
</g>
<g>
</g>
<g>
</g>
<g>
</g>
<g>
</g>
<g>
</g>
<g>
</g>
<g>
</g>
<g>
</g>
<g>
</g>
<g>
</g>
<g>
</g>
<g>
</g>
<g>
</g>
<g>
</g>
</svg>
