<?xml version="1.0" encoding="iso-8859-1"?>
<!-- Generator: Adobe Illustrator 16.0.0, SVG Export Plug-In . SVG Version: 6.00 Build 0)  -->
<!DOCTYPE svg PUBLIC "-//W3C//DTD SVG 1.1//EN" "http://www.w3.org/Graphics/SVG/1.1/DTD/svg11.dtd">
<svg version="1.1" id="Layer_1" xmlns="http://www.w3.org/2000/svg" xmlns:xlink="http://www.w3.org/1999/xlink" x="0px" y="0px"
	 width="64px" height="62px" viewBox="0 0 64 62" style="enable-background:new 0 0 64 62;" xml:space="preserve">
<g id="_x31__3_">
	<g>
		<path style="fill-rule:evenodd;clip-rule:evenodd;fill:#ED7161;" d="M62,14.001V2c0-1.104-0.896-2-2-2
			c-0.003,0-0.007,0.001-0.01,0.001H58c-1.104,0-2,0.895-2,2c0,1.104,0.896,2,2,2v10c-1.104,0-2,0.895-2,1.999s0.896,2,2,2h4
			c1.104,0,2-0.896,2-2S63.104,14.001,62,14.001z"/>
	</g>
</g>
<g id="T_1_">
	<g>
		<path style="fill-rule:evenodd;clip-rule:evenodd;fill:#CCCCCC;" d="M50,2.001H2C0.896,2.001,0,2.896,0,4v16.001
			C0,21.104,0.896,22,2,22s2-0.896,2-1.999V18C4,11.372,9.372,6,16,6h4v44c0,4.419-3.582,8-8,8c-1.104,0-2,0.896-2,2.001
			C10,61.104,10.896,62,12,62h28c1.104,0,2-0.896,2-1.999C42,58.896,41.104,58,40,58c-4.418,0-8-3.581-8-8V6h4
			c6.627,0,12,5.372,12,12v2.001C48,21.104,48.896,22,50,22s2-0.896,2-1.999V4C52,2.896,51.104,2.001,50,2.001z"/>
	</g>
</g>
<g>
</g>
<g>
</g>
<g>
</g>
<g>
</g>
<g>
</g>
<g>
</g>
<g>
</g>
<g>
</g>
<g>
</g>
<g>
</g>
<g>
</g>
<g>
</g>
<g>
</g>
<g>
</g>
<g>
</g>
</svg>
