<?xml version="1.0" encoding="iso-8859-1"?>
<!-- Generator: Adobe Illustrator 16.0.0, SVG Export Plug-In . SVG Version: 6.00 Build 0)  -->
<!DOCTYPE svg PUBLIC "-//W3C//DTD SVG 1.1//EN" "http://www.w3.org/Graphics/SVG/1.1/DTD/svg11.dtd">
<svg version="1.1" id="Layer_1" xmlns="http://www.w3.org/2000/svg" xmlns:xlink="http://www.w3.org/1999/xlink" x="0px" y="0px"
	 width="64px" height="64px" viewBox="0 0 64 64" style="enable-background:new 0 0 64 64;" xml:space="preserve">
<g id="Base_3_">
	<g>
		<path style="fill-rule:evenodd;clip-rule:evenodd;fill:#CCCCCC;" d="M59.999,20h-12v22c0,3.313-2.687,6.001-6,6.001h-22V60
			c0,2.21,1.791,4,4,4h36C62.209,64,64,62.21,64,60V24C64,21.791,62.209,20,59.999,20z"/>
	</g>
</g>
<g id="Container_3_">
	<g>
		<path style="fill-rule:evenodd;clip-rule:evenodd;fill:#FFFFFF;" d="M58.443,24H47.999v18c0,3.313-2.687,6.001-6,6.001H24v10.443
			C24,59.304,24.696,60,25.555,60h32.889C59.303,60,60,59.304,60,58.444V25.556C60,24.696,59.303,24,58.443,24z"/>
	</g>
</g>
<g id="Base_4_">
	<g>
		<path style="fill:#CCCCCC;" d="M40,0H4C1.79,0,0,1.791,0,4v36c0,2.209,1.79,4.001,4,4.001h36c2.209,0,4-1.792,4-4.001V4
			C44,1.791,42.209,0,40,0z"/>
	</g>
</g>
<g id="Base_5_">
	<g>
		<path style="fill:#FFFFFF;" d="M38.443,4H5.555C4.695,4,4,4.696,4,5.556v32.889C4,39.304,4.695,40,5.555,40h32.889
			C39.303,40,40,39.304,40,38.444V5.556C40,4.696,39.303,4,38.443,4z"/>
	</g>
</g>
<g id="Color">
	<g>
		<rect x="8" y="8" style="fill:#48A0DC;" width="28" height="28.001"/>
	</g>
</g>
<g>
</g>
<g>
</g>
<g>
</g>
<g>
</g>
<g>
</g>
<g>
</g>
<g>
</g>
<g>
</g>
<g>
</g>
<g>
</g>
<g>
</g>
<g>
</g>
<g>
</g>
<g>
</g>
<g>
</g>
</svg>
