<?xml version="1.0" encoding="iso-8859-1"?>
<!-- Generator: Adobe Illustrator 16.0.0, SVG Export Plug-In . SVG Version: 6.00 Build 0)  -->
<!DOCTYPE svg PUBLIC "-//W3C//DTD SVG 1.1//EN" "http://www.w3.org/Graphics/SVG/1.1/DTD/svg11.dtd">
<svg version="1.1" id="Layer_1" xmlns="http://www.w3.org/2000/svg" xmlns:xlink="http://www.w3.org/1999/xlink" x="0px" y="0px"
	 width="60px" height="64px" viewBox="0 0 60 64" style="enable-background:new 0 0 60 64;" xml:space="preserve">
<g id="Omega">
	<g>
		<path style="fill-rule:evenodd;clip-rule:evenodd;fill:#48A0DC;" d="M56,52c-1.104,0-2,0.895-2,2v2H38v-4.944
			c12.684-3.033,22-13.099,22-25.057C60,11.64,46.568,0,30,0C13.431,0,0,11.64,0,25.999c0,11.959,9.316,22.023,22,25.057V56H6v-2
			c0-1.105-0.896-2-2-2s-2,0.895-2,2v5.999C2,62.209,3.791,64,6,64h16c2.209,0,4-1.791,4-4.001v-8.237v-2.34
			C17.984,47.097,12,37.944,12,27c0-12.703,8.059-23.001,18-23.001c9.94,0,18,10.298,18,23.001c0,9.375-4.398,17.42-10.694,21H34
			v1.422v2.34v8.237C34,62.209,35.791,64,38,64h16c2.209,0,4-1.791,4-4.001V54C58,52.895,57.104,52,56,52z"/>
	</g>
</g>
<g>
</g>
<g>
</g>
<g>
</g>
<g>
</g>
<g>
</g>
<g>
</g>
<g>
</g>
<g>
</g>
<g>
</g>
<g>
</g>
<g>
</g>
<g>
</g>
<g>
</g>
<g>
</g>
<g>
</g>
</svg>
