<?xml version="1.0" encoding="iso-8859-1"?>
<!-- Generator: Adobe Illustrator 16.0.0, SVG Export Plug-In . SVG Version: 6.00 Build 0)  -->
<!DOCTYPE svg PUBLIC "-//W3C//DTD SVG 1.1//EN" "http://www.w3.org/Graphics/SVG/1.1/DTD/svg11.dtd">
<svg version="1.1" id="Layer_1" xmlns="http://www.w3.org/2000/svg" xmlns:xlink="http://www.w3.org/1999/xlink" x="0px" y="0px"
	 width="56px" height="63.999px" viewBox="0 0 56 63.999" style="enable-background:new 0 0 56 63.999;" xml:space="preserve">
<g id="T_5_">
	<g>
		<path style="fill-rule:evenodd;clip-rule:evenodd;fill:#9B7CAB;" d="M54,0H2C0.896,0,0,0.895,0,2v16c0,1.104,0.896,1.999,2,1.999
			S4,19.104,4,18v-2C4,9.372,9.373,4,16,4h6v48c0,4.417-3.582,8-8,8h-2c-1.105,0-2,0.895-2,1.999s0.895,2,2,2h32
			c1.104,0,2-0.896,2-2S45.104,60,44,60h-2c-4.418,0-8-3.583-8-8V4h6c6.627,0,12,5.372,12,12v2c0,1.104,0.896,1.999,2,1.999
			s2-0.896,2-1.999V2C56,0.895,55.104,0,54,0z"/>
	</g>
</g>
<g>
</g>
<g>
</g>
<g>
</g>
<g>
</g>
<g>
</g>
<g>
</g>
<g>
</g>
<g>
</g>
<g>
</g>
<g>
</g>
<g>
</g>
<g>
</g>
<g>
</g>
<g>
</g>
<g>
</g>
</svg>
