<?xml version="1.0" encoding="iso-8859-1"?>
<!-- Generator: Adobe Illustrator 16.0.0, SVG Export Plug-In . SVG Version: 6.00 Build 0)  -->
<!DOCTYPE svg PUBLIC "-//W3C//DTD SVG 1.1//EN" "http://www.w3.org/Graphics/SVG/1.1/DTD/svg11.dtd">
<svg version="1.1" id="Layer_1" xmlns="http://www.w3.org/2000/svg" xmlns:xlink="http://www.w3.org/1999/xlink" x="0px" y="0px"
	 width="64px" height="96.002px" viewBox="0 0 64 96.002" style="enable-background:new 0 0 64 96.002;" xml:space="preserve">
<g id="Ellipse_2">
	<g>
		<path style="fill-rule:evenodd;clip-rule:evenodd;fill:#88C057;" d="M63.967,52.033h-6.65C52.828,42.557,43.182,36.001,32,36.001
			S11.172,42.557,6.684,52.033H0.032v11.936h3.969C4.001,63.979,4,63.991,4,64.002h4c0-0.011,0.001-0.022,0.001-0.033h3.966V52.033
			H11.2c4.146-7.189,11.905-12.032,20.8-12.032s16.654,4.843,20.8,12.032h-0.768v11.936h3.967c0,0.011,0.001,0.022,0.001,0.033h4
			c0-0.011-0.001-0.022-0.001-0.033h3.968V52.033z M8.121,60.122H3.879V55.88h4.242V60.122z M59.996,59.998h-3.993v-3.994h3.993
			V59.998z"/>
	</g>
</g>
<g id="T_6_">
	<g>
		<path style="fill-rule:evenodd;clip-rule:evenodd;fill:#666666;" d="M46,0H18c-1.105,0-2,0.896-2,2v10.001c0,1.104,0.895,2,2,2
			c1.104,0,2-0.896,2-2V9.98c0.011-3.303,2.692-5.979,6-5.979h2V28c0,2.21-1.791,4-4,4c-1.105,0-2,0.896-2,2
			c0,1.105,0.895,2.001,2,2.001h16c1.104,0,2-0.896,2-2.001c0-1.104-0.896-2-2-2c-2.21,0-4-1.79-4-4h-0.001V4.001H38
			c3.313,0,6,2.687,6,5.999v2.001c0,1.104,0.895,2,2,2c1.104,0,2-0.896,2-2V2C48,0.896,47.104,0,46,0z"/>
	</g>
</g>
<g>
</g>
<g>
</g>
<g>
</g>
<g>
</g>
<g>
</g>
<g>
</g>
<g>
</g>
<g>
</g>
<g>
</g>
<g>
</g>
<g>
</g>
<g>
</g>
<g>
</g>
<g>
</g>
<g>
</g>
</svg>
