<?xml version="1.0" encoding="iso-8859-1"?>
<!-- Generator: Adobe Illustrator 16.0.0, SVG Export Plug-In . SVG Version: 6.00 Build 0)  -->
<!DOCTYPE svg PUBLIC "-//W3C//DTD SVG 1.1//EN" "http://www.w3.org/Graphics/SVG/1.1/DTD/svg11.dtd">
<svg version="1.1" id="Layer_1" xmlns="http://www.w3.org/2000/svg" xmlns:xlink="http://www.w3.org/1999/xlink" x="0px" y="0px"
	 width="60px" height="63.999px" viewBox="0 0 60 63.999" style="enable-background:new 0 0 60 63.999;" xml:space="preserve">
<g id="U">
	<g>
		<path style="fill-rule:evenodd;clip-rule:evenodd;fill:#CCCCCC;" d="M58,0.001h-4h-4h-4c-1.104,0-2,0.895-2,1.999
			s0.896,1.999,2,1.999v0.002c2.209,0,4,1.79,4,4v9.357v12.643c0,7.731-6.269,13.998-14,13.998c-7.732,0-14-6.267-14-13.998v-18
			C22,7.582,25.582,4,30,4V3.999c1.104,0,2-0.895,2-1.999s-0.896-2-2-2H2C0.896,0,0,0.896,0,2s0.896,1.999,2,1.999V4
			c4.418,0,8,3.582,8,8.001v18c0,12.15,9.85,21.998,22,21.998c12.149,0,22-9.848,22-21.998v-22c0-2.21,1.791-4,4-4V3.999
			c1.104,0,2-0.895,2-1.999S59.104,0.001,58,0.001z M20,4.001h-8V3.999h8V4.001z M31.923,8.001h0.154
			c-0.026,0-0.051-0.002-0.077-0.002S31.949,8.001,31.923,8.001z"/>
	</g>
</g>
<g id="Underline">
	<g>
		<path style="fill:#ED7161;" d="M58,60H2c-1.104,0-2,0.896-2,2s0.896,1.999,2,1.999h56c1.104,0,2-0.895,2-1.999S59.104,60,58,60z"
			/>
	</g>
</g>
<g>
</g>
<g>
</g>
<g>
</g>
<g>
</g>
<g>
</g>
<g>
</g>
<g>
</g>
<g>
</g>
<g>
</g>
<g>
</g>
<g>
</g>
<g>
</g>
<g>
</g>
<g>
</g>
<g>
</g>
</svg>
