<?xml version="1.0" encoding="iso-8859-1"?>
<!-- Generator: Adobe Illustrator 16.0.0, SVG Export Plug-In . SVG Version: 6.00 Build 0)  -->
<!DOCTYPE svg PUBLIC "-//W3C//DTD SVG 1.1//EN" "http://www.w3.org/Graphics/SVG/1.1/DTD/svg11.dtd">
<svg version="1.1" id="Layer_1" xmlns="http://www.w3.org/2000/svg" xmlns:xlink="http://www.w3.org/1999/xlink" x="0px" y="0px"
	 width="52px" height="63.999px" viewBox="0 0 52 63.999" style="enable-background:new 0 0 52 63.999;" xml:space="preserve">
<g id="Sign_3_">
	<g>
		<path style="fill:#999999;" d="M8,56c-1.105,0-2,0.896-2,2v4c0,1.104,0.895,1.999,2,1.999c1.104,0,2-0.895,2-1.999v-4
			C10,56.896,9.104,56,8,56z"/>
	</g>
</g>
<g id="Label_5_">
	<g>
		<path style="fill:#88C057;" d="M50,44.001h-6c-1.104,0-2,0.895-2,2V52c0,1.105,0.896,2,2,2h6c1.104,0,2-0.895,2-2v-5.999
			C52,44.896,51.104,44.001,50,44.001z"/>
	</g>
</g>
<g id="Label_6_">
	<g>
		<path style="fill:#48A0DC;" d="M50,24.001h-6c-1.104,0-2,0.895-2,2v6C42,33.104,42.896,34,44,34h6c1.104,0,2-0.896,2-1.999v-6
			C52,24.896,51.104,24.001,50,24.001z"/>
	</g>
</g>
<g id="Label_7_">
	<g>
		<path style="fill:#CCCCCC;" d="M50,34h-6c-1.104,0-2,0.896-2,2v6.001c0,1.104,0.896,2,2,2h6c1.104,0,2-0.896,2-2V36
			C52,34.896,51.104,34,50,34z"/>
	</g>
</g>
<g id="Label_8_">
	<g>
		<path style="fill:#FFCC66;" d="M50,14.001h-6c-1.104,0-2,0.895-2,2v6c0,1.104,0.896,2,2,2h6c1.104,0,2-0.896,2-2v-6
			C52,14.896,51.104,14.001,50,14.001z"/>
	</g>
</g>
<g id="Label_9_">
	<g>
		<path style="fill:#ED7161;" d="M50,4.001h-6c-1.104,0-2,0.895-2,1.999v6.001c0,1.104,0.896,2,2,2h6c1.104,0,2-0.896,2-2V6
			C52,4.896,51.104,4.001,50,4.001z"/>
	</g>
</g>
<g id="Cover_10_">
	<g>
		<path style="fill:#666666;" d="M43.999,0H0v60h43.999c2.209,0,4-1.791,4-4V4C47.999,1.79,46.208,0,43.999,0z"/>
	</g>
</g>
<g id="Text_1_">
	<g>
		<path style="fill:#999999;" d="M38,48.001H26c-1.104,0-2,0.895-2,2C24,51.105,24.896,52,26,52h12c1.104,0,2-0.895,2-1.999
			C40,48.896,39.104,48.001,38,48.001z"/>
	</g>
</g>
<g>
</g>
<g>
</g>
<g>
</g>
<g>
</g>
<g>
</g>
<g>
</g>
<g>
</g>
<g>
</g>
<g>
</g>
<g>
</g>
<g>
</g>
<g>
</g>
<g>
</g>
<g>
</g>
<g>
</g>
</svg>
