<?xml version="1.0" encoding="utf-8"?>
<!-- Generator: Adobe Illustrator 18.0.0, SVG Export Plug-In . SVG Version: 6.00 Build 0)  -->
<!DOCTYPE svg PUBLIC "-//W3C//DTD SVG 1.1//EN" "http://www.w3.org/Graphics/SVG/1.1/DTD/svg11.dtd">
<svg version="1.1" xmlns="http://www.w3.org/2000/svg" xmlns:xlink="http://www.w3.org/1999/xlink" x="0px" y="0px"
	 viewBox="0 0 40 40" enable-background="new 0 0 40 40" xml:space="preserve">
<g id="Office">
	<g id="Drive_Lock_6_">
	</g>
	<g id="Drive_Down_6_">
	</g>
	<g id="Drive_Up_6_">
	</g>
	<g id="Drive_4_">
	</g>
	<g id="Screwdriver_3_">
	</g>
	<g id="Wrench_2_">
	</g>
	<g id="Flag_4_">
	</g>
	<g id="Whistle_4_">
	</g>
	<g id="Eye_Off_8_">
	</g>
	<g id="Eye">
	</g>
	<g id="Wand_4_">
	</g>
	<g id="Swatches">
	</g>
	<g id="Crop_6_">
	</g>
	<g id="Adjust_3_">
	</g>
	<g id="Picker">
	</g>
	<g id="Vector_5_">
	</g>
	<g id="Layer_Lock_6_">
	</g>
	<g id="Layer_Minus_6_">
	</g>
	<g id="Layer_Plus_6_">
	</g>
	<g id="Layer_4_">
	</g>
	<g id="File_Export_6_">
	</g>
	<g id="File_Import_6_">
	</g>
	<g id="File_4_">
	</g>
	<g id="Note_Flag_5_">
	</g>
	<g id="Note_Lock_5_">
	</g>
	<g id="Note_Minus_5_">
	</g>
	<g id="Note_Plus_5_">
	</g>
	<g id="Note_3_">
	</g>
	<g id="Folder_Flag_5_">
	</g>
	<g id="Folder_Lock_5_">
	</g>
	<g id="Folder_Minus_5_">
	</g>
	<g id="Folder_Plus_5_">
	</g>
	<g id="Folder_3_">
	</g>
	<g id="Magnet_3_">
	</g>
	<g id="Versions_6_">
	</g>
	<g id="Inbox_Down_5_">
	</g>
	<g id="Inbox_Up_5_">
	</g>
	<g id="Inbox_3_">
	</g>
	<g id="Email_Lock_5_">
	</g>
	<g id="Email_Star_5_">
	</g>
	<g id="Email_Flag">
	</g>
	<g id="Email_Ban_5_">
	</g>
	<g id="Email_Plus_5_">
	</g>
	<g id="Email_Minus_5_">
	</g>
	<g id="Email_Contact_5_">
	</g>
	<g id="Email_3_">
	</g>
	<g id="Bulb_4_">
	</g>
	<g id="Shield_4_">
	</g>
	<g id="Key_3_">
	</g>
	<g id="Heat_4_">
	</g>
	<g id="Calendar_6_">
	</g>
	<g id="Briefcase">
	</g>
	<g id="Messenger_Bag">
	</g>
	<g id="Suitcase_5_">
	</g>
	<g id="Trophy_4_">
	</g>
	<g id="Bookmark">
	</g>
	<g id="Book_03">
	</g>
	<g id="Book_02">
	</g>
	<g id="Book_01">
	</g>
	<g id="Timer_8_">
	</g>
	<g id="Alarm_10_">
		<g id="Alarm_18_">
			<g>
				<path fill-rule="evenodd" clip-rule="evenodd" fill="#E74C3C" d="M20,8.5c-6.6,0-12,5.4-12,12c0,6.6,5.4,12,12,12
					c6.6,0,12-5.4,12-12C32,13.9,26.6,8.5,20,8.5z"/>
			</g>
		</g>
		<g id="Alarm_16_">
			<g>
				<path fill-rule="evenodd" clip-rule="evenodd" fill="#F1C40F" d="M20,11.5c-0.6,0-1,0.4-1,1v7h2v-7C21,12,20.6,11.5,20,11.5z"/>
			</g>
		</g>
		<g id="Alarm_14_">
			<g>
				<path fill-rule="evenodd" clip-rule="evenodd" fill="#F1C40F" d="M28,19.5h-7v2h7c0.6,0,1-0.4,1-1C29,20,28.6,19.5,28,19.5z"/>
			</g>
		</g>
		<g id="Alarm_12_">
			<g>
				
					<rect x="27.6" y="9" transform="matrix(0.7071 -0.7071 0.7071 0.7071 1.1183 23.605)" fill-rule="evenodd" clip-rule="evenodd" fill="#F39C12" width="2.9" height="2.9"/>
			</g>
		</g>
		<g id="Alarm_9_">
			<g>
				
					<rect x="9.5" y="9" transform="matrix(0.7071 -0.7071 0.7071 0.7071 -4.1838 10.8049)" fill-rule="evenodd" clip-rule="evenodd" fill="#F39C12" width="2.9" height="2.9"/>
			</g>
		</g>
		<g id="Alarm_7_">
			<g>
				<path fill-rule="evenodd" clip-rule="evenodd" fill="#F1C40F" d="M32.4,9.1l-2-2c-0.7-0.7-2-0.7-2.7,0L27,7.7l4.8,4.8l0.7-0.7
					C33.2,11.1,33.2,9.8,32.4,9.1z"/>
			</g>
		</g>
		<g id="Alarm_5_">
			<g>
				<path fill-rule="evenodd" clip-rule="evenodd" fill="#F1C40F" d="M12.3,7.1c-0.7-0.7-2-0.7-2.7,0l-2,2c-0.7,0.7-0.7,2,0,2.7
					l0.7,0.7L13,7.7L12.3,7.1z"/>
			</g>
		</g>
		<g id="Alarm_3_">
			<g>
				<path fill-rule="evenodd" clip-rule="evenodd" fill="#C0392B" d="M20.1,7.5c-7.1,0-12.9,5.8-12.9,13c0,7.2,5.8,13,12.9,13
					c7.1,0,12.9-5.8,12.9-13C33.1,13.3,27.3,7.5,20.1,7.5z M20,31.5c-6.1,0-11-4.9-11-11c0-6.1,4.9-11,11-11s11,4.9,11,11
					C31,26.6,26.1,31.5,20,31.5z"/>
			</g>
		</g>
		<g id="Alarm_1_">
			<g>
				<path fill-rule="evenodd" clip-rule="evenodd" fill="#ECF0F1" d="M20,18.5c-1.1,0-2,0.9-2,2c0,0.6,0.2,1.1,0.6,1.4L16,26.3
					l0.9,0.5l2.5-4.4c0.2,0.1,0.4,0.1,0.6,0.1c1.1,0,2-0.9,2-2C22,19.4,21.1,18.5,20,18.5z M20,21.5c-0.6,0-1-0.4-1-1
					c0-0.6,0.4-1,1-1c0.6,0,1,0.4,1,1C21,21.1,20.6,21.5,20,21.5z"/>
			</g>
		</g>
	</g>
	<g id="Clock_6_">
	</g>
	<g id="Albums_5_">
	</g>
	<g id="Plane_4_">
	</g>
	<g id="Pin_Flag_4_">
	</g>
	<g id="Tack">
	</g>
	<g id="Paper_Clip">
	</g>
	<g id="Pencil_4_">
	</g>
	<g id="Lead_Pencil_3_">
	</g>
	<g id="Sharpie_6_">
	</g>
	<g id="Piechart_4_">
	</g>
	<g id="Bargraph_6_">
	</g>
</g>
<g id="Lockup">
</g>
</svg>
