<?xml version="1.0" encoding="iso-8859-1"?>
<!-- Generator: Adobe Illustrator 16.0.0, SVG Export Plug-In . SVG Version: 6.00 Build 0)  -->
<!DOCTYPE svg PUBLIC "-//W3C//DTD SVG 1.1//EN" "http://www.w3.org/Graphics/SVG/1.1/DTD/svg11.dtd">
<svg version="1.1" id="Layer_1" xmlns="http://www.w3.org/2000/svg" xmlns:xlink="http://www.w3.org/1999/xlink" x="0px" y="0px"
	 width="51.98px" height="56.079px" viewBox="0 0 51.98 56.079" style="enable-background:new 0 0 51.98 56.079;"
	 xml:space="preserve">
<g id="Attachment">
	<g>
		<path style="fill-rule:evenodd;clip-rule:evenodd;fill:#ED7261;" d="M34.716,16.698l0.2-0.193c0.72-0.799,0.688-2.014-0.106-2.783
			c-0.829-0.802-2.166-0.809-2.986-0.016c-0.019,0.019-0.032,0.04-0.049,0.059L14.071,30.894c-0.054,0.05-0.112,0.093-0.166,0.145
			c-3.297,3.188-3.293,8.364,0.007,11.559c3.301,3.192,8.648,3.195,11.945,0.008l0.001,0.001l22.398-21.672l-2.987-2.89
			L28.035,34.721l-5.155,4.987c0,0,0,0.001-0.001,0.001s-0.001,0-0.001,0.001l-0.006,0.006l0,0c-1.65,1.589-4.318,1.589-5.963-0.003
			s-1.646-4.173-0.003-5.77l-0.005-0.005l5.169-5.001c0,0,0,0,0,0l12.646-12.235C34.714,16.7,34.715,16.699,34.716,16.698z
			 M48.249,26.708c-0.021,0.021-0.036,0.045-0.056,0.066L33.736,40.763l-7.877,7.622l-0.001-0.001
			c-4.95,4.771-12.953,4.769-17.891-0.011c-4.937-4.775-4.938-12.519-0.01-17.308l-0.017-0.017l16.48-15.946l2.251-2.178
			l6.586-6.373c0.021-0.021,0.038-0.043,0.059-0.063c3.293-3.186,8.642-3.178,11.945,0.017c3.302,3.196,3.311,8.366,0.022,11.554
			l2.971,2.875c0.003-0.003,0.006-0.005,0.009-0.008c4.951-4.792,4.956-12.554,0.011-17.339c-4.945-4.784-12.968-4.78-17.918,0.011
			c-0.003,0.003-0.006,0.007-0.009,0.01l-0.009-0.009L4.953,28.158l0.013,0.012c-0.003,0.003-0.007,0.006-0.011,0.009
			c-6.601,6.387-6.607,16.739-0.014,23.118c6.594,6.38,17.291,6.374,23.892-0.014c0.004-0.004,0.007-0.008,0.011-0.011l0.001,0.001
			l22.294-21.57c0.037-0.031,0.078-0.055,0.113-0.089c0.819-0.794,0.813-2.087-0.017-2.89
			C50.406,25.923,49.069,25.917,48.249,26.708z"/>
	</g>
</g>
<g>
</g>
<g>
</g>
<g>
</g>
<g>
</g>
<g>
</g>
<g>
</g>
<g>
</g>
<g>
</g>
<g>
</g>
<g>
</g>
<g>
</g>
<g>
</g>
<g>
</g>
<g>
</g>
<g>
</g>
</svg>
