<?xml version="1.0" encoding="iso-8859-1"?>
<!-- Generator: Adobe Illustrator 16.0.0, SVG Export Plug-In . SVG Version: 6.00 Build 0)  -->
<!DOCTYPE svg PUBLIC "-//W3C//DTD SVG 1.1//EN" "http://www.w3.org/Graphics/SVG/1.1/DTD/svg11.dtd">
<svg version="1.1" id="Layer_1" xmlns="http://www.w3.org/2000/svg" xmlns:xlink="http://www.w3.org/1999/xlink" x="0px" y="0px"
	 width="52px" height="64px" viewBox="0 0 52 64" style="enable-background:new 0 0 52 64;" xml:space="preserve">
<g id="Cover_7_">
	<g>
		<path style="fill:#ED7261;" d="M50,0H30c-1.104,0-2,0.896-2,2v60c0,1.104,0.896,2,2,2h20c1.104,0,2-0.896,2-2V2
			C52,0.896,51.104,0,50,0z"/>
	</g>
</g>
<g id="Whole">
	<g>
		<circle style="fill:#666666;" cx="40" cy="12" r="4"/>
	</g>
</g>
<g id="Label_10_">
	<g>
		<rect x="32" y="24" style="fill:#FFFFFF;" width="16" height="32"/>
	</g>
</g>
<g id="Cover_8_">
	<g>
		<path style="fill:#88C057;" d="M22,0H2C0.896,0,0,0.896,0,2v60c0,1.104,0.896,2,2,2h20c1.104,0,2-0.896,2-2V2
			C24,0.896,23.104,0,22,0z"/>
	</g>
</g>
<g id="Whole_1_">
	<g>
		<circle style="fill:#666666;" cx="12" cy="12" r="4"/>
	</g>
</g>
<g id="Label_2_">
	<g>
		<rect x="4" y="24" style="fill:#FFFFFF;" width="16" height="32"/>
	</g>
</g>
<g>
</g>
<g>
</g>
<g>
</g>
<g>
</g>
<g>
</g>
<g>
</g>
<g>
</g>
<g>
</g>
<g>
</g>
<g>
</g>
<g>
</g>
<g>
</g>
<g>
</g>
<g>
</g>
<g>
</g>
</svg>
