<?xml version="1.0" encoding="iso-8859-1"?>
<!-- Generator: Adobe Illustrator 16.0.0, SVG Export Plug-In . SVG Version: 6.00 Build 0)  -->
<!DOCTYPE svg PUBLIC "-//W3C//DTD SVG 1.1//EN" "http://www.w3.org/Graphics/SVG/1.1/DTD/svg11.dtd">
<svg version="1.1" id="Layer_1" xmlns="http://www.w3.org/2000/svg" xmlns:xlink="http://www.w3.org/1999/xlink" x="0px" y="0px"
	 width="64px" height="64px" viewBox="0 0 64 64" style="enable-background:new 0 0 64 64;" xml:space="preserve">
<g id="Cover">
	<g>
		<path style="fill:#ED7161;" d="M16,12.001H2c-1.104,0-2,0.895-2,2V62c0,1.104,0.896,2,2,2h14c1.104,0,2-0.896,2-2V14.001
			C18,12.896,17.104,12.001,16,12.001z"/>
	</g>
</g>
<g id="Decoration">
	<g>
		<path style="fill-rule:evenodd;clip-rule:evenodd;fill:#A14D42;" d="M2,58h14v-3.999H2V58z M2,50.001h14v-24H2V50.001z M2,18v4h14
			v-4H2z"/>
	</g>
</g>
<g id="Cover_3_">
	<g>
		<path style="fill:#88C057;" d="M32,0H20c-1.104,0-2,0.896-2,2v60c0,1.104,0.896,2,2,2h12c1.104,0,2-0.896,2-2V2
			C34,0.896,33.104,0,32,0z"/>
	</g>
</g>
<g id="Decoration_3_">
	<g>
		<path style="fill-rule:evenodd;clip-rule:evenodd;fill:#638C3F;" d="M20,58h12v-3.999H20V58z M20,50.001h12v-36H20V50.001z
			 M20,6.001v4h12v-4H20z"/>
	</g>
</g>
<g id="Cover_2_">
	<g>
		<path style="fill:#666666;" d="M63.929,58.297L50.036,7.466c-0.295-1.079-1.428-1.72-2.528-1.431L35.542,9.179
			c-1.102,0.289-1.755,1.398-1.46,2.479l13.894,50.831c0.295,1.079,1.427,1.72,2.528,1.431l11.965-3.144
			C63.57,60.486,64.224,59.377,63.929,58.297z"/>
	</g>
</g>
<g id="Decoration_2_">
	<g>
		<path style="fill-rule:evenodd;clip-rule:evenodd;fill:#A1A1A1;" d="M59.797,51.001l-11.965,3.144l1.068,3.909l11.966-3.143
			L59.797,51.001z M51.248,19.721l-11.965,3.143l7.48,27.371l11.965-3.144L51.248,19.721z M49.11,11.901l-11.965,3.143l1.068,3.909
			l11.965-3.143L49.11,11.901z"/>
	</g>
</g>
<g>
</g>
<g>
</g>
<g>
</g>
<g>
</g>
<g>
</g>
<g>
</g>
<g>
</g>
<g>
</g>
<g>
</g>
<g>
</g>
<g>
</g>
<g>
</g>
<g>
</g>
<g>
</g>
<g>
</g>
</svg>
