<?xml version="1.0" encoding="utf-8"?>
<!-- Generator: Adobe Illustrator 18.0.0, SVG Export Plug-In . SVG Version: 6.00 Build 0)  -->
<!DOCTYPE svg PUBLIC "-//W3C//DTD SVG 1.1//EN" "http://www.w3.org/Graphics/SVG/1.1/DTD/svg11.dtd">
<svg version="1.1" xmlns="http://www.w3.org/2000/svg" xmlns:xlink="http://www.w3.org/1999/xlink" x="0px" y="0px"
	 viewBox="0 0 40 40" enable-background="new 0 0 40 40" xml:space="preserve">
<g id="Office">
	<g id="Drive_Lock_6_">
	</g>
	<g id="Drive_Down_6_">
	</g>
	<g id="Drive_Up_6_">
	</g>
	<g id="Drive_4_">
	</g>
	<g id="Screwdriver_3_">
	</g>
	<g id="Wrench_2_">
	</g>
	<g id="Flag_4_">
	</g>
	<g id="Whistle_4_">
	</g>
	<g id="Eye_Off_8_">
	</g>
	<g id="Eye">
	</g>
	<g id="Wand_4_">
	</g>
	<g id="Swatches">
	</g>
	<g id="Crop_6_">
	</g>
	<g id="Adjust_3_">
	</g>
	<g id="Picker">
	</g>
	<g id="Vector_5_">
	</g>
	<g id="Layer_Lock_6_">
	</g>
	<g id="Layer_Minus_6_">
	</g>
	<g id="Layer_Plus_6_">
	</g>
	<g id="Layer_4_">
	</g>
	<g id="File_Export_6_">
	</g>
	<g id="File_Import_6_">
	</g>
	<g id="File_4_">
	</g>
	<g id="Note_Flag_5_">
	</g>
	<g id="Note_Lock_5_">
	</g>
	<g id="Note_Minus_5_">
	</g>
	<g id="Note_Plus_5_">
	</g>
	<g id="Note_3_">
	</g>
	<g id="Folder_Flag_5_">
	</g>
	<g id="Folder_Lock_5_">
	</g>
	<g id="Folder_Minus_5_">
	</g>
	<g id="Folder_Plus_5_">
	</g>
	<g id="Folder_3_">
	</g>
	<g id="Magnet_3_">
	</g>
	<g id="Versions_6_">
	</g>
	<g id="Inbox_Down_5_">
	</g>
	<g id="Inbox_Up_5_">
	</g>
	<g id="Inbox_3_">
	</g>
	<g id="Email_Lock_5_">
	</g>
	<g id="Email_Star_5_">
	</g>
	<g id="Email_Flag">
	</g>
	<g id="Email_Ban_5_">
	</g>
	<g id="Email_Plus_5_">
	</g>
	<g id="Email_Minus_5_">
	</g>
	<g id="Email_Contact_5_">
	</g>
	<g id="Email_3_">
	</g>
	<g id="Bulb_4_">
	</g>
	<g id="Shield_4_">
	</g>
	<g id="Key_3_">
	</g>
	<g id="Heat_4_">
	</g>
	<g id="Calendar_6_">
	</g>
	<g id="Briefcase">
	</g>
	<g id="Messenger_Bag">
	</g>
	<g id="Suitcase_5_">
	</g>
	<g id="Trophy_4_">
	</g>
	<g id="Bookmark">
	</g>
	<g id="Book_03">
	</g>
	<g id="Book_02">
		<path fill-rule="evenodd" clip-rule="evenodd" fill="#2C3E50" d="M27,27h-2V6h2c1.1,0,2,0.9,2,2v17C29,26.1,28.1,27,27,27z"/>
		<path fill-rule="evenodd" clip-rule="evenodd" fill="#2C3E50" d="M9,10h17.1V6H12c-1.7,0-3,1.3-3,3V10z"/>
		<path fill-rule="evenodd" clip-rule="evenodd" fill="#ECF0F1" d="M25,28h-2V8h2c1.1,0,2,0.9,2,2v16C27,27.1,26.1,28,25,28z"/>
		<path fill-rule="evenodd" clip-rule="evenodd" fill="#34495E" d="M27,31H12V11h15c1.1,0,2,0.9,2,2v16C29,30.1,28.1,31,27,31z"/>
		<path fill-rule="evenodd" clip-rule="evenodd" fill="#2C3E50" d="M13,31h-2c-1.1,0-2-0.9-2-2V10c0-1.1,0.9-2,2-2h2V31z"/>
		<path fill-rule="evenodd" clip-rule="evenodd" fill="#ECF0F1" d="M24.5,11h-12c-0.8,0-1.5-0.7-1.5-1.5v0C11,8.7,11.7,8,12.5,8h12
			C25.3,8,26,8.7,26,9.5v0C26,10.3,25.3,11,24.5,11z"/>
		<path fill-rule="evenodd" clip-rule="evenodd" fill="#1ABC9C" d="M11,8"/>
		<g>
			<g id="Bookmark_4_">
				<polygon fill-rule="evenodd" clip-rule="evenodd" fill="#2C3E50" points="13,11 13,22 16.5,19.9 20,22 20,11 				"/>
			</g>
		</g>
		<rect x="12" y="9" fill-rule="evenodd" clip-rule="evenodd" fill="#C0392B" width="8" height="1"/>
		<g>
			<g id="Bookmark_3_">
				<polygon fill-rule="evenodd" clip-rule="evenodd" fill="#E74C3C" points="12,9 12,18.9 15.5,16.9 19,18.9 19,9 				"/>
			</g>
		</g>
	</g>
	<g id="Book_01">
	</g>
	<g id="Timer_8_">
	</g>
	<g id="Alarm_10_">
	</g>
	<g id="Clock_6_">
	</g>
	<g id="Albums_5_">
	</g>
	<g id="Plane_4_">
	</g>
	<g id="Pin_Flag_4_">
	</g>
	<g id="Tack">
	</g>
	<g id="Paper_Clip">
	</g>
	<g id="Pencil_4_">
	</g>
	<g id="Lead_Pencil_3_">
	</g>
	<g id="Sharpie_6_">
	</g>
	<g id="Piechart_4_">
	</g>
	<g id="Bargraph_6_">
	</g>
</g>
<g id="Lockup">
</g>
</svg>
