<?xml version="1.0" encoding="iso-8859-1"?>
<!-- Generator: Adobe Illustrator 16.0.0, SVG Export Plug-In . SVG Version: 6.00 Build 0)  -->
<!DOCTYPE svg PUBLIC "-//W3C//DTD SVG 1.1//EN" "http://www.w3.org/Graphics/SVG/1.1/DTD/svg11.dtd">
<svg version="1.1" id="Layer_1" xmlns="http://www.w3.org/2000/svg" xmlns:xlink="http://www.w3.org/1999/xlink" x="0px" y="0px"
	 width="64px" height="55.999px" viewBox="0 0 64 55.999" style="enable-background:new 0 0 64 55.999;" xml:space="preserve">
<g id="Box">
	<g>
		<path style="fill:#999999;" d="M56,4H8C5.791,4,4,5.791,4,8v43.999c0,2.21,1.791,4,4,4h48c2.209,0,4-1.79,4-4V8
			C60,5.791,58.209,4,56,4z"/>
	</g>
</g>
<g id="Label_4_">
	<g>
		<path style="fill-rule:evenodd;clip-rule:evenodd;fill:#FFFFFF;" d="M18,24v12h28V24H18z M42,31.999H22V28h20V31.999z"/>
	</g>
</g>
<g id="Lid">
	<g>
		<path style="fill-rule:evenodd;clip-rule:evenodd;fill:#88C057;" d="M60,0H4C1.791,0,0,1.791,0,4v2v6v4h4h56h4v-4V6V4
			C64,1.791,62.209,0,60,0z"/>
	</g>
</g>
<g>
</g>
<g>
</g>
<g>
</g>
<g>
</g>
<g>
</g>
<g>
</g>
<g>
</g>
<g>
</g>
<g>
</g>
<g>
</g>
<g>
</g>
<g>
</g>
<g>
</g>
<g>
</g>
<g>
</g>
</svg>
