<?xml version="1.0" encoding="iso-8859-1"?>
<!-- Generator: Adobe Illustrator 16.0.0, SVG Export Plug-In . SVG Version: 6.00 Build 0)  -->
<!DOCTYPE svg PUBLIC "-//W3C//DTD SVG 1.1//EN" "http://www.w3.org/Graphics/SVG/1.1/DTD/svg11.dtd">
<svg version="1.1" id="Layer_1" xmlns="http://www.w3.org/2000/svg" xmlns:xlink="http://www.w3.org/1999/xlink" x="0px" y="0px"
	 width="64px" height="64.022px" viewBox="0 0 64 64.022" style="enable-background:new 0 0 64 64.022;" xml:space="preserve">
<g id="Sides_1_">
	<g>
		<polygon style="fill-rule:evenodd;clip-rule:evenodd;fill:#FFCC66;" points="14,24.042 50,24.042 58.571,36.036 64,36.036 
			52,20.044 12,20.044 0,36.036 5.429,36.036 		"/>
	</g>
</g>
<g id="Arrow">
	<g>
		<path style="fill-rule:evenodd;clip-rule:evenodd;fill:#48A0DC;" d="M42.855,9.422l-7.314-7.311
			c-0.18-0.347-0.397-0.679-0.688-0.97c-1.006-1.006-2.422-1.332-3.707-1.007c-0.734,0.142-1.435,0.497-2.003,1.064
			c-0.21,0.209-0.384,0.44-0.535,0.681l-7.521,7.517c-1.521,1.52-1.521,3.983,0,5.503c1.521,1.521,3.985,1.521,5.506,0L28,13.492
			V28.04c0,2.208,1.791,3.999,4,3.999s4-1.791,4-3.999V13.535l1.37,1.37c1.515,1.513,3.97,1.513,5.485,0
			C44.369,13.39,44.369,10.936,42.855,9.422z"/>
	</g>
</g>
<g id="Face_1_">
	<g>
		<path style="fill:#FFCC66;" d="M44,36.036c-1.104,0-2,0.896-2,1.999v3.998c0,1.104-0.896,1.999-2,1.999H24
			c-1.104,0-2-0.896-2-1.999v-3.998c0-1.104-0.896-1.999-2-1.999H0v23.988c0,2.208,1.791,3.998,4,3.998h56c2.209,0,4-1.79,4-3.998
			V36.036H44z"/>
	</g>
</g>
<g>
</g>
<g>
</g>
<g>
</g>
<g>
</g>
<g>
</g>
<g>
</g>
<g>
</g>
<g>
</g>
<g>
</g>
<g>
</g>
<g>
</g>
<g>
</g>
<g>
</g>
<g>
</g>
<g>
</g>
</svg>
