<?xml version="1.0" encoding="iso-8859-1"?>
<!-- Generator: Adobe Illustrator 16.0.0, SVG Export Plug-In . SVG Version: 6.00 Build 0)  -->
<!DOCTYPE svg PUBLIC "-//W3C//DTD SVG 1.1//EN" "http://www.w3.org/Graphics/SVG/1.1/DTD/svg11.dtd">
<svg version="1.1" id="Layer_1" xmlns="http://www.w3.org/2000/svg" xmlns:xlink="http://www.w3.org/1999/xlink" x="0px" y="0px"
	 width="64px" height="64px" viewBox="0 0 64 64" style="enable-background:new 0 0 64 64;" xml:space="preserve">
<g id="Sides_2_">
	<g>
		<polygon style="fill-rule:evenodd;clip-rule:evenodd;fill:#FFCC66;" points="14,24 50,24 58.571,36 64,36 52,20 12,20 0,36 
			5.429,36 		"/>
	</g>
</g>
<g id="Arrow_1_">
	<g>
		<path style="fill-rule:evenodd;clip-rule:evenodd;fill:#88C057;" d="M42.854,17.114c-1.517-1.518-3.976-1.518-5.492,0
			l-1.403,1.404V3.992C35.958,1.788,34.172,0,31.969,0s-3.989,1.788-3.989,3.992v14.486l-1.367-1.368
			c-1.511-1.512-3.96-1.512-5.471,0c-1.511,1.511-1.511,3.963,0,5.475l7.294,7.298c0.179,0.347,0.396,0.68,0.687,0.971
			c1.003,1.003,2.415,1.328,3.697,1.004c0.732-0.141,1.432-0.496,1.999-1.063c0.208-0.209,0.382-0.438,0.533-0.678l7.502-7.507
			C44.37,21.093,44.37,18.632,42.854,17.114z"/>
	</g>
</g>
<g id="Face_2_">
	<g>
		<path style="fill:#FFCC66;" d="M44,36c-1.104,0-2,0.896-2,2v4.001C42,43.104,41.104,44,40,44H24c-1.104,0-2-0.896-2-1.999V38
			c0-1.104-0.896-2-2-2H0v24c0,2.209,1.791,4,4,4h56c2.209,0,4-1.791,4-4V36H44z"/>
	</g>
</g>
<g>
</g>
<g>
</g>
<g>
</g>
<g>
</g>
<g>
</g>
<g>
</g>
<g>
</g>
<g>
</g>
<g>
</g>
<g>
</g>
<g>
</g>
<g>
</g>
<g>
</g>
<g>
</g>
<g>
</g>
</svg>
