<?xml version="1.0" encoding="iso-8859-1"?>
<!-- Generator: Adobe Illustrator 16.0.0, SVG Export Plug-In . SVG Version: 6.00 Build 0)  -->
<!DOCTYPE svg PUBLIC "-//W3C//DTD SVG 1.1//EN" "http://www.w3.org/Graphics/SVG/1.1/DTD/svg11.dtd">
<svg version="1.1" id="Layer_1" xmlns="http://www.w3.org/2000/svg" xmlns:xlink="http://www.w3.org/1999/xlink" x="0px" y="0px"
	 width="64px" height="64.001px" viewBox="0 0 64 64.001" style="enable-background:new 0 0 64 64.001;" xml:space="preserve">
<g id="Sides_3_">
	<g>
		<polygon style="fill:#FFCC66;" points="52,20 12,20 0,36 64,36 		"/>
	</g>
</g>
<g id="Interior_1_">
	<g>
		<polygon style="fill:#CCA352;" points="50,24 14,24 4,38 4,60 60,60 60,38 		"/>
	</g>
</g>
<g id="File_2_">
	<g>
		<path style="fill:#CCCCCC;" d="M50,0H14c-2.209,0-4,1.791-4,4.001v60h44V64V4.001C54,1.791,52.209,0,50,0z"/>
	</g>
</g>
<g id="Container_7_">
	<g>
		<path style="fill:#FFFFFF;" d="M48,4.001H16c-1.104,0-2,0.895-2,1.999v54h36V6C50,4.896,49.104,4.001,48,4.001z"/>
	</g>
</g>
<g id="Text_8_">
	<g>
		<path style="fill:#CCCCCC;" d="M36,20H24c-1.104,0-2,0.896-2,2s0.896,2,2,2h12c1.104,0,2-0.896,2-2S37.104,20,36,20z M40,12H24
			c-1.104,0-2,0.896-2,2s0.896,2,2,2h16c1.104,0,2-0.896,2-2S41.104,12,40,12z"/>
	</g>
</g>
<g id="Face_3_">
	<g>
		<path style="fill:#FFCC66;" d="M44,36c-1.104,0-2,0.896-2,2v4.001C42,43.104,41.104,44,40,44H24c-1.104,0-2-0.896-2-1.999V38
			c0-1.104-0.896-2-2-2H0v24c0,2.209,1.791,4,4,4h56c2.209,0,4-1.791,4-4V36H44z"/>
	</g>
</g>
<g>
</g>
<g>
</g>
<g>
</g>
<g>
</g>
<g>
</g>
<g>
</g>
<g>
</g>
<g>
</g>
<g>
</g>
<g>
</g>
<g>
</g>
<g>
</g>
<g>
</g>
<g>
</g>
<g>
</g>
</svg>
