<?xml version="1.0" encoding="iso-8859-1"?>
<!-- Generator: Adobe Illustrator 16.0.0, SVG Export Plug-In . SVG Version: 6.00 Build 0)  -->
<!DOCTYPE svg PUBLIC "-//W3C//DTD SVG 1.1//EN" "http://www.w3.org/Graphics/SVG/1.1/DTD/svg11.dtd">
<svg version="1.1" id="Layer_1" xmlns="http://www.w3.org/2000/svg" xmlns:xlink="http://www.w3.org/1999/xlink" x="0px" y="0px"
	 width="64px" height="43.999px" viewBox="0 0 64 43.999" style="enable-background:new 0 0 64 43.999;" xml:space="preserve">
<g id="Sides_4_">
	<g>
		<polygon style="fill:#FFCC66;" points="52,0 12,0 0,15.999 64,15.999 		"/>
	</g>
</g>
<g id="Interior_2_">
	<g>
		<polygon style="fill:#CCA352;" points="50,3.999 14,3.999 4,17.999 4,39.999 60,39.999 60,17.999 		"/>
	</g>
</g>
<g id="Face_4_">
	<g>
		<path style="fill:#FFCC66;" d="M44,15.999c-1.104,0-2,0.896-2,2v4c0,1.104-0.896,2-2,2H24c-1.104,0-2-0.896-2-2v-4
			c0-1.104-0.896-2-2-2H0v24c0,2.209,1.791,4,4,4h56c2.209,0,4-1.791,4-4v-24H44z"/>
	</g>
</g>
<g>
</g>
<g>
</g>
<g>
</g>
<g>
</g>
<g>
</g>
<g>
</g>
<g>
</g>
<g>
</g>
<g>
</g>
<g>
</g>
<g>
</g>
<g>
</g>
<g>
</g>
<g>
</g>
<g>
</g>
</svg>
