<?xml version="1.0" encoding="utf-8"?>
<!-- Generator: Adobe Illustrator 18.0.0, SVG Export Plug-In . SVG Version: 6.00 Build 0)  -->
<!DOCTYPE svg PUBLIC "-//W3C//DTD SVG 1.1//EN" "http://www.w3.org/Graphics/SVG/1.1/DTD/svg11.dtd">
<svg version="1.1" xmlns="http://www.w3.org/2000/svg" xmlns:xlink="http://www.w3.org/1999/xlink" x="0px" y="0px"
	 viewBox="0 0 40 40" enable-background="new 0 0 40 40" xml:space="preserve">
<g id="Office">
	<g id="Drive_Lock_6_">
	</g>
	<g id="Drive_Down_6_">
	</g>
	<g id="Drive_Up_6_">
	</g>
	<g id="Drive_4_">
	</g>
	<g id="Screwdriver_3_">
	</g>
	<g id="Wrench_2_">
	</g>
	<g id="Flag_4_">
	</g>
	<g id="Whistle_4_">
	</g>
	<g id="Eye_Off_8_">
	</g>
	<g id="Eye">
	</g>
	<g id="Wand_4_">
	</g>
	<g id="Swatches">
	</g>
	<g id="Crop_6_">
	</g>
	<g id="Adjust_3_">
	</g>
	<g id="Picker">
	</g>
	<g id="Vector_5_">
	</g>
	<g id="Layer_Lock_6_">
	</g>
	<g id="Layer_Minus_6_">
	</g>
	<g id="Layer_Plus_6_">
	</g>
	<g id="Layer_4_">
	</g>
	<g id="File_Export_6_">
	</g>
	<g id="File_Import_6_">
	</g>
	<g id="File_4_">
	</g>
	<g id="Note_Flag_5_">
	</g>
	<g id="Note_Lock_5_">
	</g>
	<g id="Note_Minus_5_">
	</g>
	<g id="Note_Plus_5_">
	</g>
	<g id="Note_3_">
	</g>
	<g id="Folder_Flag_5_">
	</g>
	<g id="Folder_Lock_5_">
	</g>
	<g id="Folder_Minus_5_">
	</g>
	<g id="Folder_Plus_5_">
	</g>
	<g id="Folder_3_">
	</g>
	<g id="Magnet_3_">
	</g>
	<g id="Versions_6_">
	</g>
	<g id="Inbox_Down_5_">
	</g>
	<g id="Inbox_Up_5_">
	</g>
	<g id="Inbox_3_">
	</g>
	<g id="Email_Lock_5_">
	</g>
	<g id="Email_Star_5_">
	</g>
	<g id="Email_Flag">
	</g>
	<g id="Email_Ban_5_">
	</g>
	<g id="Email_Plus_5_">
	</g>
	<g id="Email_Minus_5_">
	</g>
	<g id="Email_Contact_5_">
	</g>
	<g id="Email_3_">
	</g>
	<g id="Bulb_4_">
		<g>
			<g id="Bulb_6_">
				<g>
					<path fill-rule="evenodd" clip-rule="evenodd" fill="#F1C40F" d="M20.4,6h-1c-4.9,0-8.9,4.1-8.9,9.1c0,2.6,1.1,5.1,3,6.8
						l0.1,0.1c0,0,0,0,0,0c0,0,0,0,0,0c0,0,0,0,0.1,0.1c1.4,1.3,2.4,2.3,2.5,3.9l0,0.8h6.8l0-0.8c0.2-1.4,1.3-2.4,2.5-3.5l0.4-0.4
						c0,0,0,0,0,0c0,0,0,0,0.1-0.1c0,0,0,0,0,0c0,0,0,0,0,0c0,0,0,0,0,0l0.1-0.1c1.9-1.7,3-4.2,3-6.8C29.4,10.1,25.4,6,20.4,6z"/>
				</g>
			</g>
			<g id="Bulb_3_">
				<g>
					<path fill-rule="evenodd" clip-rule="evenodd" fill="#F39C12" d="M22.9,29c0.8,0,1.5-0.7,1.5-1.5c0-0.8-0.7-1.5-1.5-1.5h-6
						c-0.8,0-1.5,0.7-1.5,1.5c0,0.8,0.7,1.5,1.5,1.5c-0.8,0-1.5,0.7-1.5,1.5s0.7,1.5,1.5,1.5h1.5c-0.6,0-1,0.4-1,1c0,0.6,0.4,1,1,1
						h3c0.6,0,1-0.4,1-1c0-0.6-0.4-1-1-1h1.5c0.8,0,1.5-0.7,1.5-1.5S23.8,29,22.9,29z"/>
				</g>
			</g>
			<g id="Bulb_1_">
				<g>
					<circle fill-rule="evenodd" clip-rule="evenodd" fill="#ECF0F1" cx="16.4" cy="12" r="2"/>
				</g>
			</g>
		</g>
	</g>
	<g id="Shield_4_">
	</g>
	<g id="Key_3_">
	</g>
	<g id="Heat_4_">
	</g>
	<g id="Calendar_6_">
	</g>
	<g id="Briefcase">
	</g>
	<g id="Messenger_Bag">
	</g>
	<g id="Suitcase_5_">
	</g>
	<g id="Trophy_4_">
	</g>
	<g id="Bookmark">
	</g>
	<g id="Book_03">
	</g>
	<g id="Book_02">
	</g>
	<g id="Book_01">
	</g>
	<g id="Timer_8_">
	</g>
	<g id="Alarm_10_">
	</g>
	<g id="Clock_6_">
	</g>
	<g id="Albums_5_">
	</g>
	<g id="Plane_4_">
	</g>
	<g id="Pin_Flag_4_">
	</g>
	<g id="Tack">
	</g>
	<g id="Paper_Clip">
	</g>
	<g id="Pencil_4_">
	</g>
	<g id="Lead_Pencil_3_">
	</g>
	<g id="Sharpie_6_">
	</g>
	<g id="Piechart_4_">
	</g>
	<g id="Bargraph_6_">
	</g>
</g>
<g id="Lockup">
</g>
</svg>
