<?xml version="1.0" encoding="iso-8859-1"?>
<!-- Generator: Adobe Illustrator 16.0.0, SVG Export Plug-In . SVG Version: 6.00 Build 0)  -->
<!DOCTYPE svg PUBLIC "-//W3C//DTD SVG 1.1//EN" "http://www.w3.org/Graphics/SVG/1.1/DTD/svg11.dtd">
<svg version="1.1" id="Layer_1" xmlns="http://www.w3.org/2000/svg" xmlns:xlink="http://www.w3.org/1999/xlink" x="0px" y="0px"
	 width="64px" height="64px" viewBox="0 0 64 64" style="enable-background:new 0 0 64 64;" xml:space="preserve">
<g id="Legs">
	<g>
		<path style="fill-rule:evenodd;clip-rule:evenodd;fill:#666666;" d="M10,56c-1.104,0-2,0.896-2,2v4c0,1.105,0.896,2,2,2
			s2-0.895,2-2v-4C12,56.896,11.104,56,10,56z M54,56c-1.104,0-2,0.896-2,2v4c0,1.105,0.896,2,2,2s2-0.895,2-2v-4
			C56,56.896,55.104,56,54,56z"/>
	</g>
</g>
<g id="Cabinet">
	<g>
		<path style="fill:#999999;" d="M60,0H4C1.791,0,0,1.791,0,4.001V56c0,2.209,1.791,4,4,4h56c2.209,0,4-1.791,4-4V4.001
			C64,1.791,62.209,0,60,0z"/>
	</g>
</g>
<g id="Drawer_3_">
	<g>
		<path style="fill:#CCCCCC;" d="M58,4.001H6c-1.104,0-2,0.895-2,2v20c0,1.104,0.896,2,2,2h52c1.104,0,2-0.896,2-2v-20
			C60,4.896,59.104,4.001,58,4.001z"/>
	</g>
</g>
<g id="Drawer_2_">
	<g>
		<path style="fill:#CCCCCC;" d="M58,32.001H6c-1.104,0-2,0.895-2,1.999v20c0,1.105,0.896,2,2,2h52c1.104,0,2-0.895,2-2V34
			C60,32.896,59.104,32.001,58,32.001z"/>
	</g>
</g>
<g id="Handle_8_">
	<g>
		<path style="fill:#FFFFFF;" d="M38,36.001H26c-1.104,0-2,0.895-2,1.999s0.896,2,2,2h12c1.104,0,2-0.896,2-2
			S39.104,36.001,38,36.001z"/>
	</g>
</g>
<g id="Handle_9_">
	<g>
		<path style="fill:#FFFFFF;" d="M38,8H26c-1.104,0-2,0.896-2,2s0.896,2,2,2h12c1.104,0,2-0.896,2-2S39.104,8,38,8z"/>
	</g>
</g>
<g id="Lock_1_">
	<g>
		<circle style="fill:#999999;" cx="54" cy="10" r="2"/>
	</g>
</g>
<g>
</g>
<g>
</g>
<g>
</g>
<g>
</g>
<g>
</g>
<g>
</g>
<g>
</g>
<g>
</g>
<g>
</g>
<g>
</g>
<g>
</g>
<g>
</g>
<g>
</g>
<g>
</g>
<g>
</g>
</svg>
