<?xml version="1.0" encoding="iso-8859-1"?>
<!-- Generator: Adobe Illustrator 16.0.0, SVG Export Plug-In . SVG Version: 6.00 Build 0)  -->
<!DOCTYPE svg PUBLIC "-//W3C//DTD SVG 1.1//EN" "http://www.w3.org/Graphics/SVG/1.1/DTD/svg11.dtd">
<svg version="1.1" id="Layer_1" xmlns="http://www.w3.org/2000/svg" xmlns:xlink="http://www.w3.org/1999/xlink" x="0px" y="0px"
	 width="56px" height="64.01px" viewBox="0 0 56 64.01" style="enable-background:new 0 0 56 64.01;" xml:space="preserve">
<g id="Cactus">
	<g>
		<path style="fill:#87BF56;" d="M28,4c-7.732,0-14,6.268-14,14c0,7.731,6.268,34,14,34c7.731,0,14-26.269,14-34
			C42,10.268,35.731,4,28,4z"/>
	</g>
</g>
<g id="Spikes">
	<g>
		<path style="fill-rule:evenodd;clip-rule:evenodd;fill:#5A8039;" d="M44,16h-4c-1.104,0-2,0.896-2,2s0.896,2,2,2h4
			c1.104,0,2-0.896,2-2S45.104,16,44,16z M16,20c1.104,0,2-0.896,2-2s-0.896-2-2-2h-4c-1.104,0-2,0.896-2,2s0.896,2,2,2H16z M42,26
			h-4c-1.104,0-2,0.896-2,2s0.896,2,2,2h4c1.104,0,2-0.896,2-2S43.104,26,42,26z M30,6V2c0-1.104-0.896-2-2-2s-2,0.896-2,2v4
			c0,1.104,0.896,2,2,2S30,7.104,30,6z M39.027,9.463l2.491-2.49c0.688-0.688,0.688-1.804,0-2.491c-0.688-0.688-1.804-0.688-2.491,0
			l-2.491,2.491c-0.688,0.688-0.688,1.803,0,2.49C37.225,10.151,38.34,10.151,39.027,9.463z M16.973,9.463
			c0.688,0.688,1.803,0.688,2.49,0c0.688-0.688,0.688-1.803,0-2.49l-2.49-2.491c-0.688-0.688-1.804-0.688-2.491,0
			c-0.688,0.688-0.688,1.803,0,2.491L16.973,9.463z M32,12c-1.104,0-2,0.896-2,2s0.896,2,2,2s2-0.896,2-2S33.104,12,32,12z M24,20
			c-1.104,0-2,0.896-2,2s0.896,2,2,2s2-0.896,2-2S25.104,20,24,20z M30,26c-1.104,0-2,0.896-2,2s0.896,2,2,2s2-0.896,2-2
			S31.104,26,30,26z M18,26h-4c-1.104,0-2,0.896-2,2s0.896,2,2,2h4c1.104,0,2-0.896,2-2S19.104,26,18,26z"/>
	</g>
</g>
<g id="Pot_2_">
	<g>
		<path style="fill:#E6E6E6;" d="M0,34v4c0,6.711,2.943,20,10,20h36c7.057,0,10-13.289,10-20v-4H0z"/>
	</g>
</g>
<g id="Tray">
	<g>
		<path style="fill:#CCCCCC;" d="M0,54c0,0,0,2.222,0,4.992c0,2.771,2.238,5.018,5,5.018h46c2.762,0,5-2.246,5-5.018
			C56,56.222,56,54,56,54H0z"/>
	</g>
</g>
<g>
</g>
<g>
</g>
<g>
</g>
<g>
</g>
<g>
</g>
<g>
</g>
<g>
</g>
<g>
</g>
<g>
</g>
<g>
</g>
<g>
</g>
<g>
</g>
<g>
</g>
<g>
</g>
<g>
</g>
</svg>
