<?xml version="1.0" encoding="iso-8859-1"?>
<!-- Generator: Adobe Illustrator 16.0.0, SVG Export Plug-In . SVG Version: 6.00 Build 0)  -->
<!DOCTYPE svg PUBLIC "-//W3C//DTD SVG 1.1//EN" "http://www.w3.org/Graphics/SVG/1.1/DTD/svg11.dtd">
<svg version="1.1" id="Layer_1" xmlns="http://www.w3.org/2000/svg" xmlns:xlink="http://www.w3.org/1999/xlink" x="0px" y="0px"
	 width="68px" height="68.001px" viewBox="0 0 68 68.001" style="enable-background:new 0 0 68 68.001;" xml:space="preserve">
<g id="Days">
	<g>
		<path style="fill-rule:evenodd;clip-rule:evenodd;fill:#CCCCCC;" d="M60,20v18.159c1.507,0.874,2.855,1.984,4,3.283V20H60z
			 M50,31.999h-4V28c0-1.104-0.896-2-2-2s-2,0.896-2,2v3.999h-8V28c0-1.104-0.896-2-2-2s-2,0.896-2,2v3.999h-8V28
			c0-1.104-0.896-2-2-2s-2,0.896-2,2v3.999h-4c-1.104,0-2,0.896-2,2.001s0.896,2,2,2h4v8h-4c-1.104,0-2,0.896-2,2s0.896,2,2,2h4v4
			c0,1.104,0.896,2,2,2s2-0.896,2-2v-4h8v4c0,1.104,0.896,2,2,2s2-0.896,2-2v-4h2.524c0.366-1.419,0.917-2.762,1.634-4H34v-8h8
			v3.521c1.203-0.966,2.548-1.759,4-2.347V36h4c1.104,0,2-0.896,2-2S51.104,31.999,50,31.999z M30,44h-8v-8h8V44z M38.158,60H6
			c-1.104,0-2-0.896-2-2V20H0v40c0,2.21,1.791,4,4,4h37.441C40.142,62.855,39.031,61.507,38.158,60z"/>
	</g>
</g>
<g id="Elipse_6_">
	<g>
		<circle style="fill:#ED7161;" cx="52" cy="52" r="12"/>
	</g>
</g>
<g id="Minus_2_">
	<g>
		<path style="fill:#FFFFFF;" d="M56,50h-8c-1.105,0-2,0.894-2,2c0,1.104,0.895,1.999,2,1.999h8c1.104,0,2-0.896,2-1.999
			C58,50.894,57.104,50,56,50z"/>
	</g>
</g>
<g id="Header">
	<g>
		<path style="fill-rule:evenodd;clip-rule:evenodd;fill:#ED7261;" d="M60,0H4C1.791,0,0,1.791,0,4v16h64V4C64,1.791,62.209,0,60,0z
			 M24,12.001c-1.104,0-2-0.896-2-2.001s0.896-1.999,2-1.999S26,8.896,26,10S25.104,12.001,24,12.001z M40,12.001
			c-1.104,0-2-0.896-2-2.001s0.896-1.999,2-1.999S42,8.896,42,10S41.104,12.001,40,12.001z"/>
	</g>
</g>
<g>
</g>
<g>
</g>
<g>
</g>
<g>
</g>
<g>
</g>
<g>
</g>
<g>
</g>
<g>
</g>
<g>
</g>
<g>
</g>
<g>
</g>
<g>
</g>
<g>
</g>
<g>
</g>
<g>
</g>
</svg>
