<?xml version="1.0" encoding="iso-8859-1"?>
<!-- Generator: Adobe Illustrator 16.0.0, SVG Export Plug-In . SVG Version: 6.00 Build 0)  -->
<!DOCTYPE svg PUBLIC "-//W3C//DTD SVG 1.1//EN" "http://www.w3.org/Graphics/SVG/1.1/DTD/svg11.dtd">
<svg version="1.1" id="Layer_1" xmlns="http://www.w3.org/2000/svg" xmlns:xlink="http://www.w3.org/1999/xlink" x="0px" y="0px"
	 width="64px" height="64px" viewBox="0 0 64 64" style="enable-background:new 0 0 64 64;" xml:space="preserve">
<g id="Frame_1_">
	<g>
		<path style="fill:#ED7261;" d="M60,0H4C1.791,0,0,1.791,0,4.001V60c0,2.209,1.791,4,4,4h56c2.209,0,4-1.791,4-4V4.001
			C64,1.791,62.209,0,60,0z"/>
	</g>
</g>
<g id="Page_2_">
	<g>
		<path style="fill-rule:evenodd;clip-rule:evenodd;fill:#E6E6E6;" d="M58,4.001H6C4.896,4.001,4,4.896,4,6v26v26
			c0,1.104,0.896,2,2,2h52c1.104,0,2-0.896,2-2V32V6C60,4.896,59.104,4.001,58,4.001z"/>
	</g>
</g>
<g id="Page_3_">
	<g>
		<path style="fill:#FFFFFF;" d="M60,32H4L2,54c0,1.104,0.896,2,2,2h56c1.104,0,2-0.896,2-2L60,32z"/>
	</g>
</g>
<g id="_x31_2">
	<g>
		<path style="fill-rule:evenodd;clip-rule:evenodd;fill:#666666;" d="M18,24h2v20h4V20h-6V24z M46,28c0-4.418-3.582-8-8-8
			s-8,3.582-8,8h4c0-2.21,1.791-4,4-4s4,1.79,4,4c0,3.834-12,2.813-12,12v4h16v-4H34C34,33.874,46,35.543,46,28z"/>
	</g>
</g>
<g>
</g>
<g>
</g>
<g>
</g>
<g>
</g>
<g>
</g>
<g>
</g>
<g>
</g>
<g>
</g>
<g>
</g>
<g>
</g>
<g>
</g>
<g>
</g>
<g>
</g>
<g>
</g>
<g>
</g>
</svg>
