<?xml version="1.0" encoding="iso-8859-1"?>
<!-- Generator: Adobe Illustrator 16.0.0, SVG Export Plug-In . SVG Version: 6.00 Build 0)  -->
<!DOCTYPE svg PUBLIC "-//W3C//DTD SVG 1.1//EN" "http://www.w3.org/Graphics/SVG/1.1/DTD/svg11.dtd">
<svg version="1.1" id="Layer_1" xmlns="http://www.w3.org/2000/svg" xmlns:xlink="http://www.w3.org/1999/xlink" x="0px" y="0px"
	 width="64px" height="64px" viewBox="0 0 64 64" style="enable-background:new 0 0 64 64;" xml:space="preserve">
<g id="Days_2_">
	<g>
		<path style="fill-rule:evenodd;clip-rule:evenodd;fill:#CCCCCC;" d="M60,20v38c0,1.104-0.896,2-2,2H6c-1.104,0-2-0.896-2-2V20H0
			v40c0,2.21,1.791,4,4,4h56c2.209,0,4-1.79,4-4V20H60z M14,44c-1.104,0-2,0.896-2,2s0.896,2,2,2h4v4c0,1.104,0.896,2,2,2
			s2-0.896,2-2v-4h8v4c0,1.104,0.896,2,2,2s2-0.896,2-2v-4h8v4c0,1.104,0.896,2,2,2s2-0.896,2-2v-4h4c1.104,0,2-0.896,2-2
			s-0.896-2-2-2h-4v-8h4c1.104,0,2-0.896,2-2s-0.896-2.001-2-2.001h-4V28c0-1.104-0.896-2-2-2s-2,0.896-2,2v3.999h-8V28
			c0-1.104-0.896-2-2-2s-2,0.896-2,2v3.999h-8V28c0-1.104-0.896-2-2-2s-2,0.896-2,2v3.999h-4c-1.104,0-2,0.896-2,2.001s0.896,2,2,2
			h4v8H14z M34,36h8v8h-8V36z M22,36h8v8h-8V36z"/>
	</g>
</g>
<g id="Header_2_">
	<g>
		<path style="fill-rule:evenodd;clip-rule:evenodd;fill:#ED7261;" d="M60,0H4C1.791,0,0,1.791,0,4v16h64V4C64,1.791,62.209,0,60,0z
			 M24,12.001c-1.104,0-2-0.896-2-2.001s0.896-1.999,2-1.999S26,8.896,26,10S25.104,12.001,24,12.001z M40,12.001
			c-1.104,0-2-0.896-2-2.001s0.896-1.999,2-1.999S42,8.896,42,10S41.104,12.001,40,12.001z"/>
	</g>
</g>
<g>
</g>
<g>
</g>
<g>
</g>
<g>
</g>
<g>
</g>
<g>
</g>
<g>
</g>
<g>
</g>
<g>
</g>
<g>
</g>
<g>
</g>
<g>
</g>
<g>
</g>
<g>
</g>
<g>
</g>
</svg>
