<?xml version="1.0" encoding="iso-8859-1"?>
<!-- Generator: Adobe Illustrator 16.0.0, SVG Export Plug-In . SVG Version: 6.00 Build 0)  -->
<!DOCTYPE svg PUBLIC "-//W3C//DTD SVG 1.1//EN" "http://www.w3.org/Graphics/SVG/1.1/DTD/svg11.dtd">
<svg version="1.1" id="Layer_1" xmlns="http://www.w3.org/2000/svg" xmlns:xlink="http://www.w3.org/1999/xlink" x="0px" y="0px"
	 width="68px" height="68.001px" viewBox="0 0 68 68.001" style="enable-background:new 0 0 68 68.001;" xml:space="preserve">
<g id="Days_1_">
	<g>
		<path style="fill-rule:evenodd;clip-rule:evenodd;fill:#CCCCCC;" d="M50,31.999h-4V28c0-1.104-0.896-2-2-2s-2,0.896-2,2v3.999h-8
			V28c0-1.104-0.896-2-2-2c-1.105,0-2,0.896-2,2v3.999h-8V28c0-1.104-0.896-2-2-2s-2,0.896-2,2v3.999h-4c-1.105,0-2,0.896-2,2.001
			s0.895,2,2,2h4v8h-4c-1.105,0-2,0.896-2,2s0.895,2,2,2h4v4c0,1.104,0.896,2,2,2s2-0.896,2-2v-4h8v4c0,1.104,0.895,2,2,2
			c1.104,0,2-0.896,2-2v-4h2.524c0.366-1.419,0.917-2.762,1.634-4H34v-8h8v3.521c1.203-0.966,2.548-1.759,4-2.347V36h4
			c1.104,0,2-0.896,2-2S51.104,31.999,50,31.999z M30,44h-8v-8h8V44z M60,20v18.159c1.507,0.874,2.855,1.984,4,3.283V20H60z
			 M38.158,60H6c-1.104,0-2-0.896-2-2V20H0v40c0,2.21,1.79,4,4,4h37.441C40.142,62.855,39.031,61.507,38.158,60z"/>
	</g>
</g>
<g id="Elipse_7_">
	<g>
		<circle style="fill:#88C057;" cx="52" cy="52" r="12"/>
	</g>
</g>
<g id="Plus_2_">
	<g>
		<path style="fill:#FFFFFF;" d="M56,50.001h-2V48c0-1.105-0.896-2-2-2s-2,0.895-2,2v2.001h-2c-1.104,0-2,0.895-2,2
			c0,1.103,0.896,1.998,2,1.998h2v2C50,57.105,50.896,58,52,58s2-0.895,2-2.001v-2h2c1.105,0,1.999-0.896,1.999-1.998
			C57.999,50.896,57.105,50.001,56,50.001z"/>
	</g>
</g>
<g id="Header_1_">
	<g>
		<path style="fill-rule:evenodd;clip-rule:evenodd;fill:#ED7261;" d="M60,0H4C1.79,0,0,1.791,0,4v16h64V4C64,1.791,62.209,0,60,0z
			 M24,12.001c-1.104,0-2-0.896-2-2.001s0.896-1.999,2-1.999S26,8.896,26,10S25.104,12.001,24,12.001z M40,12.001
			c-1.105,0-2-0.896-2-2.001s0.895-1.999,2-1.999c1.104,0,2,0.895,2,1.999S41.104,12.001,40,12.001z"/>
	</g>
</g>
<g>
</g>
<g>
</g>
<g>
</g>
<g>
</g>
<g>
</g>
<g>
</g>
<g>
</g>
<g>
</g>
<g>
</g>
<g>
</g>
<g>
</g>
<g>
</g>
<g>
</g>
<g>
</g>
<g>
</g>
</svg>
