<?xml version="1.0" encoding="iso-8859-1"?>
<!-- Generator: Adobe Illustrator 16.0.0, SVG Export Plug-In . SVG Version: 6.00 Build 0)  -->
<!DOCTYPE svg PUBLIC "-//W3C//DTD SVG 1.1//EN" "http://www.w3.org/Graphics/SVG/1.1/DTD/svg11.dtd">
<svg version="1.1" id="Layer_1" xmlns="http://www.w3.org/2000/svg" xmlns:xlink="http://www.w3.org/1999/xlink" x="0px" y="0px"
	 width="44px" height="64px" viewBox="0 0 44 64" style="enable-background:new 0 0 44 64;" xml:space="preserve">
<g id="Rounded_Rectangle_1">
	<g>
		<path style="fill-rule:evenodd;clip-rule:evenodd;fill:#666666;" d="M38,54c-0.064,0-0.124,0.016-0.187,0.019
			C35.287,51.162,31,49.057,26,48.308V42h-8v6.308c-5,0.749-9.287,2.854-11.813,5.711C6.124,54.016,6.064,54,6,54
			c-2.209,0-4,1.791-4,4s1.791,4,4,4s4-1.791,4-4c0-0.608-0.146-1.18-0.39-1.695c2.478-2.299,5.697-3.879,10.39-4.227V56
			c-1.104,0-2,0.896-2,2v4c0,1.104,0.896,2,2,2h4c1.104,0,2-0.896,2-2v-4c0-1.104-0.896-2-2-2v-3.922
			c4.692,0.348,7.912,1.928,10.39,4.227C34.146,56.821,34,57.392,34,58c0,2.209,1.791,4,4,4s4-1.791,4-4S40.209,54,38,54z"/>
	</g>
</g>
<g id="Armrests">
	<g>
		<path style="fill-rule:evenodd;clip-rule:evenodd;fill:#666666;" d="M2,22c-1.104,0-2,0.896-2,2v12c0,1.104,0.896,1.999,2,1.999
			S4,37.104,4,36V24C4,22.896,3.104,22,2,22z M42,22c-1.104,0-2,0.896-2,2v12c0,1.104,0.896,1.999,2,1.999s2-0.895,2-1.999V24
			C44,22.896,43.104,22,42,22z"/>
	</g>
</g>
<g id="Seat">
	<g>
		<path style="fill:#387BA8;" d="M38,32H6c-2.209,0-4,1.791-4,4v1.999C2,40.209,3.791,42,6,42h32c2.209,0,4-1.791,4-4.001V36
			C42,33.791,40.209,32,38,32z"/>
	</g>
</g>
<g id="Backrest">
	<g>
		<path style="fill:#48A0DC;" d="M32,0H12C9.791,0,8,1.79,8,4v28h28V4C36,1.79,34.209,0,32,0z"/>
	</g>
</g>
<g>
</g>
<g>
</g>
<g>
</g>
<g>
</g>
<g>
</g>
<g>
</g>
<g>
</g>
<g>
</g>
<g>
</g>
<g>
</g>
<g>
</g>
<g>
</g>
<g>
</g>
<g>
</g>
<g>
</g>
</svg>
