<?xml version="1.0" encoding="iso-8859-1"?>
<!-- Generator: Adobe Illustrator 16.0.0, SVG Export Plug-In . SVG Version: 6.00 Build 0)  -->
<!DOCTYPE svg PUBLIC "-//W3C//DTD SVG 1.1//EN" "http://www.w3.org/Graphics/SVG/1.1/DTD/svg11.dtd">
<svg version="1.1" id="Layer_1" xmlns="http://www.w3.org/2000/svg" xmlns:xlink="http://www.w3.org/1999/xlink" x="0px" y="0px"
	 width="56px" height="64px" viewBox="0 0 56 64" style="enable-background:new 0 0 56 64;" xml:space="preserve">
<g id="Clipboard">
	<g>
		<path style="fill:#88C057;" d="M52,4H4C1.791,4,0,5.791,0,8v52c0,2.209,1.791,4,4,4h48c2.209,0,4-1.791,4-4V8
			C56,5.791,54.209,4,52,4z"/>
	</g>
</g>
<g id="File">
	<g>
		<path style="fill:#FFFFFF;" d="M50,8H6c-1.104,0-2,0.896-2,2v48c0,1.104,0.896,2,2,2h44c1.104,0,2-0.896,2-2V10
			C52,8.896,51.104,8,50,8z"/>
	</g>
</g>
<g id="Text_2_">
	<g>
		<path style="fill:#CCCCCC;" d="M14,24h28c1.105,0,2-0.896,2-2s-0.895-2-2-2H14c-1.105,0-2,0.896-2,2S12.895,24,14,24z M42,36H14
			c-1.105,0-2,0.896-2,2s0.895,2,2,2h28c1.105,0,2-0.896,2-2S43.104,36,42,36z M14,32h16c1.105,0,2-0.896,2-2s-0.895-2-2-2H14
			c-1.105,0-2,0.896-2,2S12.895,32,14,32z M30,44H14c-1.105,0-2,0.896-2,2s0.895,2,2,2h16c1.104,0,2-0.896,2-2S31.104,44,30,44z"/>
	</g>
</g>
<g id="Clip_1_">
	<g>
		<path style="fill-rule:evenodd;clip-rule:evenodd;fill:#666666;" d="M36,4h-4c0-2.209-1.791-4-4-4c-2.209,0-4,1.791-4,4h-4
			c-2.209,0-4,1.791-4,4c0,2.209,1.791,4,4,4h16c2.209,0,4-1.791,4-4C40,5.791,38.209,4,36,4z"/>
	</g>
</g>
<g>
</g>
<g>
</g>
<g>
</g>
<g>
</g>
<g>
</g>
<g>
</g>
<g>
</g>
<g>
</g>
<g>
</g>
<g>
</g>
<g>
</g>
<g>
</g>
<g>
</g>
<g>
</g>
<g>
</g>
</svg>
