<?xml version="1.0" encoding="iso-8859-1"?>
<!-- Generator: Adobe Illustrator 16.0.0, SVG Export Plug-In . SVG Version: 6.00 Build 0)  -->
<!DOCTYPE svg PUBLIC "-//W3C//DTD SVG 1.1//EN" "http://www.w3.org/Graphics/SVG/1.1/DTD/svg11.dtd">
<svg version="1.1" id="Layer_1" xmlns="http://www.w3.org/2000/svg" xmlns:xlink="http://www.w3.org/1999/xlink" x="0px" y="0px"
	 width="64px" height="64px" viewBox="0 0 64 64" style="enable-background:new 0 0 64 64;" xml:space="preserve">
<g id="Dial">
	<g>
		<path style="fill-rule:evenodd;clip-rule:evenodd;fill:#ED7161;" d="M32,0C14.326,0,0,14.327,0,32c0,17.674,14.326,32,32,32
			c17.673,0,32-14.326,32-32C64,14.327,49.673,0,32,0z M32,60C16.536,60,4,47.464,4,32S16.536,4,32,4s28,12.536,28,28
			S47.464,60,32,60z"/>
	</g>
</g>
<g id="Hands">
	<g>
		<path style="fill-rule:evenodd;clip-rule:evenodd;fill:#999999;" d="M47.395,44.503L35.866,32.976C35.945,32.662,36,32.338,36,32
			c0-1.477-0.81-2.752-2-3.445V17.999C34,16.896,33.104,16,32,16s-2,0.896-2,1.999v10.556c-1.19,0.693-2,1.969-2,3.445
			c0,2.21,1.791,4,4,4c0.338,0,0.661-0.055,0.975-0.134l11.528,11.529c0.799,0.798,2.093,0.798,2.892,0
			C48.193,46.597,48.193,45.302,47.395,44.503z"/>
	</g>
</g>
<g>
</g>
<g>
</g>
<g>
</g>
<g>
</g>
<g>
</g>
<g>
</g>
<g>
</g>
<g>
</g>
<g>
</g>
<g>
</g>
<g>
</g>
<g>
</g>
<g>
</g>
<g>
</g>
<g>
</g>
</svg>
