<?xml version="1.0" encoding="iso-8859-1"?>
<!-- Generator: Adobe Illustrator 16.0.0, SVG Export Plug-In . SVG Version: 6.00 Build 0)  -->
<!DOCTYPE svg PUBLIC "-//W3C//DTD SVG 1.1//EN" "http://www.w3.org/Graphics/SVG/1.1/DTD/svg11.dtd">
<svg version="1.1" id="Layer_1" xmlns="http://www.w3.org/2000/svg" xmlns:xlink="http://www.w3.org/1999/xlink" x="0px" y="0px"
	 width="52px" height="64.001px" viewBox="0 0 52 64.001" style="enable-background:new 0 0 52 64.001;" xml:space="preserve">
<g id="Leg">
	<g>
		<path style="fill:#6D5778;" d="M51.732,61.007C46.446,46.2,43.396,38.058,35.233,16.546c1.038,2.712,0.932,5.834-0.634,8.545
			c-0.909,1.575-4.231,5.832-8.6,11.211c6.531,8.044,15.426,18.621,22.274,26.701c0.552,0.954,1.772,1.281,2.728,0.73
			C51.957,63.182,52.284,61.961,51.732,61.007z"/>
	</g>
</g>
<g id="Compass">
	<g>
		<path style="fill-rule:evenodd;clip-rule:evenodd;fill:#9B7CAB;" d="M30.946,11.461c-0.308-0.177-0.624-0.337-0.946-0.48V4
			c0-2.209-1.791-4-4-4s-4,1.791-4,4v6.65c-2.101,0.767-3.853,2.254-4.69,4.463C8.725,37.734,5.672,45.868,0.268,61.007
			c-0.552,0.955-0.225,2.175,0.73,2.727c0.955,0.551,2.176,0.224,2.728-0.73C15.155,49.52,32.331,29.023,34.6,25.091
			C37.356,20.318,35.721,14.217,30.946,11.461z M26,24c-2.209,0-4-1.791-4-4s1.791-4,4-4s4,1.791,4,4S28.209,24,26,24z"/>
	</g>
</g>
<g>
</g>
<g>
</g>
<g>
</g>
<g>
</g>
<g>
</g>
<g>
</g>
<g>
</g>
<g>
</g>
<g>
</g>
<g>
</g>
<g>
</g>
<g>
</g>
<g>
</g>
<g>
</g>
<g>
</g>
</svg>
