<?xml version="1.0" encoding="iso-8859-1"?>
<!-- Generator: Adobe Illustrator 16.0.0, SVG Export Plug-In . SVG Version: 6.00 Build 0)  -->
<!DOCTYPE svg PUBLIC "-//W3C//DTD SVG 1.1//EN" "http://www.w3.org/Graphics/SVG/1.1/DTD/svg11.dtd">
<svg version="1.1" id="Layer_1" xmlns="http://www.w3.org/2000/svg" xmlns:xlink="http://www.w3.org/1999/xlink" x="0px" y="0px"
	 width="64px" height="64.001px" viewBox="0 0 64 64.001" style="enable-background:new 0 0 64 64.001;" xml:space="preserve">
<g id="Body">
	<g>
		<path style="fill-rule:evenodd;clip-rule:evenodd;fill:#A67C52;" d="M34,36.001H8H3.999V62c0,1.104,0.896,2,2.001,2
			c1.104,0,2-0.896,2-2V40.001h26v20c0,2.209,1.791,4,4,4h18c2.209,0,4-1.791,4-4v-24H34z"/>
	</g>
</g>
<g id="Drawer">
	<g>
		<path style="fill-rule:evenodd;clip-rule:evenodd;fill:#E6AB70;" d="M54,40.001H40c-1.104,0-2,0.895-2,2v4c0,1.104,0.896,2,2,2h14
			c1.104,0,2-0.896,2-2v-4C56,40.896,55.104,40.001,54,40.001z M54,52.001H40c-1.104,0-2,0.895-2,2v4c0,1.104,0.896,2,2,2h14
			c1.104,0,2-0.896,2-2v-4C56,52.896,55.104,52.001,54,52.001z"/>
	</g>
</g>
<g id="Handles">
	<g>
		<path style="fill-rule:evenodd;clip-rule:evenodd;fill:#735538;" d="M47,44c0.552,0,1-0.448,1-1c0-0.553-0.448-1.001-1-1.001
			c-0.553,0-1,0.448-1,1.001C46,43.552,46.447,44,47,44z M47,54c-0.553,0-1,0.448-1,1s0.447,1,1,1c0.552,0,1-0.448,1-1
			S47.552,54,47,54z"/>
	</g>
</g>
<g id="Top">
	<g>
		<path style="fill:#E6AB70;" d="M62,32H2c-1.104,0-2,0.896-2,2s0.896,2,2,2h60c1.104,0,2-0.896,2-2S63.104,32,62,32z"/>
	</g>
</g>
<g id="Screen">
	<g>
		<path style="fill:#666666;" d="M45.999,0H18c-1.105,0-2,0.896-2,2v20h32V2C48,0.896,47.104,0,45.999,0z"/>
	</g>
</g>
<g id="Monitor">
	<g>
		<path style="fill-rule:evenodd;clip-rule:evenodd;fill:#CCCCCC;" d="M16,22.002v3.999c0,1.105,0.896,2.001,2,2.001h9.999
			L26,32.001h12l-1.999-3.999H46c1.104,0,2-0.896,2-2.001v-3.999H16z"/>
	</g>
</g>
<g>
</g>
<g>
</g>
<g>
</g>
<g>
</g>
<g>
</g>
<g>
</g>
<g>
</g>
<g>
</g>
<g>
</g>
<g>
</g>
<g>
</g>
<g>
</g>
<g>
</g>
<g>
</g>
<g>
</g>
</svg>
