<?xml version="1.0" encoding="iso-8859-1"?>
<!-- Generator: Adobe Illustrator 16.0.0, SVG Export Plug-In . SVG Version: 6.00 Build 0)  -->
<!DOCTYPE svg PUBLIC "-//W3C//DTD SVG 1.1//EN" "http://www.w3.org/Graphics/SVG/1.1/DTD/svg11.dtd">
<svg version="1.1" id="Layer_1" xmlns="http://www.w3.org/2000/svg" xmlns:xlink="http://www.w3.org/1999/xlink" x="0px" y="0px"
	 width="64px" height="64px" viewBox="0 0 64 64" style="enable-background:new 0 0 64 64;" xml:space="preserve">
<g id="Sides">
	<g>
		<polygon style="fill:#999999;" points="52,20 12,20 0,36.001 64,36.001 		"/>
	</g>
</g>
<g id="Interior">
	<g>
		<polygon style="fill:#666666;" points="50,24 14,24 4,38 4,60 60,60 60,38 		"/>
	</g>
</g>
<g id="File_1_">
	<g>
		<path style="fill:#CCCCCC;" d="M50,0H14c-2.209,0-4,1.791-4,4.001V64h43.999H54V4.001C54,1.791,52.209,0,50,0z"/>
	</g>
</g>
<g id="Container_6_">
	<g>
		<path style="fill:#FFFFFF;" d="M48,4.001H16c-1.105,0-2,0.895-2,1.999v54h36V6C50,4.896,49.104,4.001,48,4.001z"/>
	</g>
</g>
<g id="Text_7_">
	<g>
		<path style="fill:#CCCCCC;" d="M36,20H24c-1.105,0-2,0.896-2,2s0.895,2,2,2h12c1.104,0,2-0.896,2-2S37.104,20,36,20z M40,12H24
			c-1.105,0-2,0.896-2,2s0.895,2,2,2h16c1.104,0,1.999-0.896,1.999-2S41.104,12,40,12z"/>
	</g>
</g>
<g id="Face">
	<g>
		<path style="fill-rule:evenodd;clip-rule:evenodd;fill:#CCCCCC;" d="M0,36.001V60c0,2.209,1.791,4,4,4h56c2.209,0,4-1.791,4-4
			V36.001H0z M40,44H24c-1.104,0-2-0.896-2-2s0.896-2,2-2h16c1.104,0,2,0.896,2,2S41.104,44,40,44z"/>
	</g>
</g>
<g>
</g>
<g>
</g>
<g>
</g>
<g>
</g>
<g>
</g>
<g>
</g>
<g>
</g>
<g>
</g>
<g>
</g>
<g>
</g>
<g>
</g>
<g>
</g>
<g>
</g>
<g>
</g>
<g>
</g>
</svg>
