<?xml version="1.0" encoding="iso-8859-1"?>
<!-- Generator: Adobe Illustrator 16.0.0, SVG Export Plug-In . SVG Version: 6.00 Build 0)  -->
<!DOCTYPE svg PUBLIC "-//W3C//DTD SVG 1.1//EN" "http://www.w3.org/Graphics/SVG/1.1/DTD/svg11.dtd">
<svg version="1.1" id="Layer_1" xmlns="http://www.w3.org/2000/svg" xmlns:xlink="http://www.w3.org/1999/xlink" x="0px" y="0px"
	 width="68px" height="48.001px" viewBox="0 0 68 48.001" style="enable-background:new 0 0 68 48.001;" xml:space="preserve">
<g id="Envelope_7_">
	<g>
		<path style="fill-rule:evenodd;clip-rule:evenodd;fill:#CCCCCC;" d="M36,32.001c0-2.209,1.791-4,4-4h24V4c0-2.209-1.791-4-4-4H4
			C1.791,0,0,1.791,0,4v36c0,2.209,1.791,4,4,4h32V32.001z"/>
	</g>
</g>
<g id="Container_14_">
	<g>
		<path style="fill-rule:evenodd;clip-rule:evenodd;fill:#FFFFFF;" d="M33.417,31.534c-0.383,0.32-0.848,0.469-1.311,0.474
			c-0.036,0.003-0.071,0-0.106,0.001c-0.036-0.001-0.071,0.002-0.106-0.001c-0.463-0.004-0.928-0.154-1.311-0.474L4,8.451V38
			c0,1.104,0.896,2,2,2h30v-7.999c0-2.209,1.791-4,4-4h20V8.45L33.417,31.534z M58.673,4.125C58.462,4.049,58.237,4,58,4H6
			C5.763,4,5.538,4.049,5.327,4.125L32,27.286L58.673,4.125z"/>
	</g>
</g>
<g id="Refresh_2_">
	<g>
		<path style="fill:#88C057;" d="M64,32h-4h-0.102C59.946,32.33,60,32.658,60,33.001c0,3.866-3.134,7-7,7
			c-2.785,0-5.15-1.643-6.271-4H50c1.104,0,2-0.896,2-2s-0.896-2-2-2h-8c-1.104,0-2,0.896-2,2v8c0,1.104,0.896,2,2,2s2-0.896,2-2
			v-2.702c1.989,2.837,5.271,4.702,9,4.702c6.075,0,11-4.924,11-11c0-0.229-0.037-0.447-0.067-0.667C63.952,32.221,64,32.118,64,32z
			"/>
	</g>
</g>
<g>
</g>
<g>
</g>
<g>
</g>
<g>
</g>
<g>
</g>
<g>
</g>
<g>
</g>
<g>
</g>
<g>
</g>
<g>
</g>
<g>
</g>
<g>
</g>
<g>
</g>
<g>
</g>
<g>
</g>
</svg>
