<?xml version="1.0" encoding="iso-8859-1"?>
<!-- Generator: Adobe Illustrator 16.0.0, SVG Export Plug-In . SVG Version: 6.00 Build 0)  -->
<!DOCTYPE svg PUBLIC "-//W3C//DTD SVG 1.1//EN" "http://www.w3.org/Graphics/SVG/1.1/DTD/svg11.dtd">
<svg version="1.1" id="Layer_1" xmlns="http://www.w3.org/2000/svg" xmlns:xlink="http://www.w3.org/1999/xlink" x="0px" y="0px"
	 width="68px" height="52.001px" viewBox="0 0 68 52.001" style="enable-background:new 0 0 68 52.001;" xml:space="preserve">
<g id="Envelope_5_" style="opacity:0.9882;">
	<g>
		<path style="fill-rule:evenodd;clip-rule:evenodd;fill:#CCCCCC;" d="M36,36.001c0-2.209,1.791-4,4-4h24V12c0-2.209-1.791-4-4-4H12
			c-2.209,0-4,1.791-4,4v32c0,2.209,1.791,4,4,4h24V36.001z"/>
	</g>
</g>
<g id="Container_12_" style="opacity:0.9882;">
	<g>
		<path style="fill-rule:evenodd;clip-rule:evenodd;fill:#FFFFFF;" d="M36,36.001c0-2.209,1.791-4,4-4h20v-18
			C60,12.896,59.104,12,58,12H14c-1.104,0-2,0.896-2,2.001V42c0,1.104,0.896,2,2,2h22V36.001z"/>
	</g>
</g>
<g id="Envelope_6_">
	<g>
		<path style="fill-rule:evenodd;clip-rule:evenodd;fill:#CCCCCC;" d="M36,36.001c0-2.209,1.791-4,4-4h16V4c0-2.209-1.791-4-4-4H4
			C1.791,0,0,1.791,0,4v32c0,2.209,1.791,4,4,4h32V36.001z"/>
	</g>
</g>
<g id="Container_13_">
	<g>
		<path style="fill-rule:evenodd;clip-rule:evenodd;fill:#FFFFFF;" d="M50.64,4.114C50.438,4.045,50.225,4,50,4H6
			C5.775,4,5.563,4.045,5.36,4.114L28,23.313L50.64,4.114z M29.417,27.534c-0.383,0.32-0.848,0.469-1.311,0.474
			c-0.036,0.003-0.071,0-0.106,0.001c-0.036-0.001-0.071,0.002-0.106-0.001c-0.463-0.004-0.928-0.154-1.311-0.474L4,8.384v25.617
			C4,35.104,4.896,36,6,36h30c0-2.208,1.792-3.999,4-3.999h12V8.384L29.417,27.534z"/>
	</g>
</g>
<g id="Refresh_1_">
	<g>
		<path style="fill:#88C057;" d="M64,36h-4h-0.102C59.946,36.329,60,36.658,60,37.001c0,3.866-3.135,7-7,7
			c-2.785,0-5.15-1.643-6.271-4H50c1.104,0,2-0.896,2-1.999C52,36.896,51.104,36,50,36h-8c-1.104,0-2,0.896-2,2.002V46
			c0,1.105,0.896,2.002,2,2.002s2-0.896,2-2.002v-2.702c1.989,2.838,5.271,4.703,9,4.703c6.075,0,11-4.925,11-11
			c0-0.229-0.037-0.447-0.067-0.668C63.952,36.221,64,36.119,64,36z"/>
	</g>
</g>
<g>
</g>
<g>
</g>
<g>
</g>
<g>
</g>
<g>
</g>
<g>
</g>
<g>
</g>
<g>
</g>
<g>
</g>
<g>
</g>
<g>
</g>
<g>
</g>
<g>
</g>
<g>
</g>
<g>
</g>
</svg>
