<?xml version="1.0" encoding="iso-8859-1"?>
<!-- Generator: Adobe Illustrator 16.0.0, SVG Export Plug-In . SVG Version: 6.00 Build 0)  -->
<!DOCTYPE svg PUBLIC "-//W3C//DTD SVG 1.1//EN" "http://www.w3.org/Graphics/SVG/1.1/DTD/svg11.dtd">
<svg version="1.1" id="Layer_1" xmlns="http://www.w3.org/2000/svg" xmlns:xlink="http://www.w3.org/1999/xlink" x="0px" y="0px"
	 width="68px" height="52px" viewBox="0 0 68 52" style="enable-background:new 0 0 68 52;" xml:space="preserve">
<g id="Envelope_3_">
	<g>
		<path style="fill-rule:evenodd;clip-rule:evenodd;fill:#CCCCCC;" d="M64,4c0-2.209-1.791-4-4-4H4C1.791,0,0,1.791,0,4v36
			c0,2.209,1.791,4,4,4h37.365c-0.776-1.631-1.235-3.437-1.327-5.341C40.015,38.442,40,38.223,40,38v-8c0-3.313,2.687-5.999,6-5.999
			c1.148,0,2.218,0.328,3.13,0.888c1.519-0.564,3.154-0.888,4.87-0.888c3.92,0,7.459,1.615,10,4.211V4z"/>
	</g>
</g>
<g id="Container_10_">
	<g>
		<path style="fill-rule:evenodd;clip-rule:evenodd;fill:#FFFFFF;" d="M58.673,4.125C58.462,4.049,58.237,4,58,4H6
			C5.763,4,5.538,4.049,5.327,4.125L32,27.286L58.673,4.125z M33.417,31.534c-0.383,0.32-0.848,0.469-1.312,0.474
			c-0.035,0.003-0.07,0-0.105,0.001c-0.035-0.001-0.071,0.002-0.106-0.001c-0.463-0.004-0.928-0.154-1.311-0.474L4,8.451V38
			c0,1.104,0.896,2,2,2h34.159C40.065,39.345,40,38.681,40,38v-8c0-3.313,2.687-5.999,6-5.999c1.148,0,2.218,0.328,3.13,0.888
			c1.519-0.564,3.154-0.888,4.87-0.888c2.15,0,4.18,0.499,6,1.365V8.45L33.417,31.534z"/>
	</g>
</g>
<g id="Refresh">
	<g>
		<path style="fill-rule:evenodd;clip-rule:evenodd;fill:#88C057;" d="M52,38c1.104,0,2-0.896,2-2.001s-0.896-2-2-2h-2.442
			C50.653,32.779,52.229,32,54,32c1.774,0,3.364,0.775,4.463,2h4.699C61.619,30.469,58.1,27.999,54,27.999
			c-2.255,0-4.329,0.752-6,2.012V30c0-1.105-0.896-2.001-2-2.001S44,28.895,44,30v5.999C44,37.104,44.896,38,46,38H52z
			 M62.778,38.156c-0.239-0.102-0.502-0.157-0.778-0.157h-6c-1.104,0-2,0.896-2,1.999C54,41.104,54.896,42,56,42h2.442
			c-1.096,1.22-2.672,1.999-4.442,1.999c-1.775,0-3.365-0.775-4.463-1.999l-4.699,0c1.543,3.53,5.063,6,9.162,6
			c2.254,0,4.328-0.753,6-2.011v0.01C60,47.104,60.896,48,62,48s2-0.896,2-2.001v-6c0,0,0,0,0,0s0,0,0,0
			C64,39.17,63.496,38.46,62.778,38.156z"/>
	</g>
</g>
<g>
</g>
<g>
</g>
<g>
</g>
<g>
</g>
<g>
</g>
<g>
</g>
<g>
</g>
<g>
</g>
<g>
</g>
<g>
</g>
<g>
</g>
<g>
</g>
<g>
</g>
<g>
</g>
<g>
</g>
</svg>
