<?xml version="1.0" encoding="iso-8859-1"?>
<!-- Generator: Adobe Illustrator 16.0.0, SVG Export Plug-In . SVG Version: 6.00 Build 0)  -->
<!DOCTYPE svg PUBLIC "-//W3C//DTD SVG 1.1//EN" "http://www.w3.org/Graphics/SVG/1.1/DTD/svg11.dtd">
<svg version="1.1" id="Layer_1" xmlns="http://www.w3.org/2000/svg" xmlns:xlink="http://www.w3.org/1999/xlink" x="0px" y="0px"
	 width="64.001px" height="64.018px" viewBox="0 0 64.001 64.018" style="enable-background:new 0 0 64.001 64.018;"
	 xml:space="preserve">
<g id="Envelope_2_">
	<g>
		<path style="fill:#CCCCCC;" d="M63.951,28.017c0.009-0.92-0.381-1.843-1.184-2.545L34.844,1.042c-1.587-1.389-4.16-1.389-5.747,0
			L1.173,25.472c-0.818,0.717-1.197,1.607-1.172,2.545v32c0,2.21,1.791,4,4,4h56c2.209,0,4-1.79,4-4L63.951,28.017z"/>
	</g>
</g>
<g id="File_3_">
	<g>
		<path style="fill-rule:evenodd;clip-rule:evenodd;fill:#CCCCCC;" d="M32.001,49.315l22-18.879V12.018c0-2.209-1.791-4-4-4h-36
			c-2.209,0-4,1.791-4,4v18.418L32.001,49.315z"/>
	</g>
</g>
<g id="Container_8_">
	<g>
		<path style="fill:#FFFFFF;" d="M33.418,53.552c-0.354,0.295-0.779,0.417-1.208,0.442c-0.07,0.011-0.138,0.02-0.209,0.021
			c-0.072-0.002-0.139-0.011-0.21-0.021c-0.428-0.025-0.854-0.147-1.207-0.442L4.001,30.719v27.298c0,1.104,0.896,2.001,2,2.001h52
			c1.104,0,2-0.896,2-2.001V30.719L33.418,53.552z"/>
	</g>
</g>
<g id="Container_9_">
	<g>
		<path style="fill:#FFFFFF;" d="M48.001,12.017h-32c-1.104,0-2,0.896-2,2v19.838l18,15.461l18-15.461V14.017
			C50.001,12.912,49.105,12.017,48.001,12.017z"/>
	</g>
</g>
<g id="Text_9_">
	<g>
		<path style="fill:#CCCCCC;" d="M36.001,28.017h-12c-1.104,0-2,0.896-2,2s0.896,2,2,2h12c1.104,0,2-0.896,2-2
			S37.105,28.017,36.001,28.017z M40.001,20.017h-16c-1.104,0-2,0.896-2,2s0.896,2,2,2h16c1.104,0,2-0.896,2-2
			S41.105,20.017,40.001,20.017z"/>
	</g>
</g>
<g>
</g>
<g>
</g>
<g>
</g>
<g>
</g>
<g>
</g>
<g>
</g>
<g>
</g>
<g>
</g>
<g>
</g>
<g>
</g>
<g>
</g>
<g>
</g>
<g>
</g>
<g>
</g>
<g>
</g>
</svg>
