<?xml version="1.0" encoding="iso-8859-1"?>
<!-- Generator: Adobe Illustrator 16.0.0, SVG Export Plug-In . SVG Version: 6.00 Build 0)  -->
<!DOCTYPE svg PUBLIC "-//W3C//DTD SVG 1.1//EN" "http://www.w3.org/Graphics/SVG/1.1/DTD/svg11.dtd">
<svg version="1.1" id="Layer_1" xmlns="http://www.w3.org/2000/svg" xmlns:xlink="http://www.w3.org/1999/xlink" x="0px" y="0px"
	 width="68.003px" height="50.017px" viewBox="0 0 68.003 50.017" style="enable-background:new 0 0 68.003 50.017;"
	 xml:space="preserve">
<g id="Envelope_4_">
	<g>
		<path style="fill-rule:evenodd;clip-rule:evenodd;fill:#CCCCCC;" d="M60,0H4C1.791,0,0,1.791,0,4v36c0,2.209,1.791,4,4,4h36
			v-3.999v-14h20v5.737l4,4V4C64,1.791,62.209,0,60,0z"/>
	</g>
</g>
<g id="Container_11_">
	<g>
		<path style="fill-rule:evenodd;clip-rule:evenodd;fill:#FFFFFF;" d="M58.673,4.125C58.462,4.049,58.237,4,58,4H6
			C5.763,4,5.538,4.049,5.327,4.125L32,27.286L58.673,4.125z M33.417,31.534c-0.383,0.32-0.848,0.469-1.312,0.474
			c-0.035,0.003-0.07,0-0.105,0.001c-0.035-0.001-0.071,0.002-0.106-0.001c-0.463-0.004-0.928-0.154-1.311-0.474L4,8.451V38
			c0,1.104,0.896,2,2,2h34c0.001-2.208,1.791-3.999,4-3.999h4.264c-0.55-1.426-0.292-3.062,0.814-4.168l2.754-2.754
			c1.521-1.521,4.05-1.459,5.647,0.139L60,31.738V8.45L33.417,31.534z"/>
	</g>
</g>
<g id="Arrow_2_">
	<g>
		<path style="fill-rule:evenodd;clip-rule:evenodd;fill:#48A0DC;" d="M64.002,41.969c0-0.564-0.233-1.072-0.605-1.437
			c-0.016-0.017-0.024-0.037-0.041-0.054L57.51,34.59c-0.807-0.813-2.115-0.813-2.922,0c-0.808,0.813-0.808,2.131,0,2.944
			l2.409,2.427H46.002c-1.105,0-2.001,0.898-2.001,2.008c0,1.108,0.896,2.008,2.001,2.008h11.089l-2.499,2.501
			c-0.809,0.809-0.809,2.122,0,2.932c0.809,0.811,2.121,0.811,2.932,0l5.859-5.864c0.325-0.325,0.51-0.732,0.573-1.154
			C63.985,42.254,64.002,42.114,64.002,41.969z"/>
	</g>
</g>
<g>
</g>
<g>
</g>
<g>
</g>
<g>
</g>
<g>
</g>
<g>
</g>
<g>
</g>
<g>
</g>
<g>
</g>
<g>
</g>
<g>
</g>
<g>
</g>
<g>
</g>
<g>
</g>
<g>
</g>
</svg>
