<?xml version="1.0" encoding="iso-8859-1"?>
<!-- Generator: Adobe Illustrator 16.0.0, SVG Export Plug-In . SVG Version: 6.00 Build 0)  -->
<!DOCTYPE svg PUBLIC "-//W3C//DTD SVG 1.1//EN" "http://www.w3.org/Graphics/SVG/1.1/DTD/svg11.dtd">
<svg version="1.1" id="Layer_1" xmlns="http://www.w3.org/2000/svg" xmlns:xlink="http://www.w3.org/1999/xlink" x="0px" y="0px"
	 width="64px" height="44px" viewBox="0 0 64 44" style="enable-background:new 0 0 64 44;" xml:space="preserve">
<g id="Envelope_8_">
	<g>
		<path style="fill:#CCCCCC;" d="M60,0H4C1.791,0,0,1.791,0,4v36c0,2.209,1.791,4,4,4h56c2.209,0,4-1.791,4-4V4
			C64,1.791,62.209,0,60,0z"/>
	</g>
</g>
<g id="Container_15_">
	<g>
		<path style="fill:#FFFFFF;" d="M58,4H6C4.896,4,4,4.896,4,6.001V38c0,1.104,0.896,2,2,2h52c1.104,0,2-0.896,2-2V6.001
			C60,4.896,59.104,4,58,4z"/>
	</g>
</g>
<g id="Text_10_">
	<g>
		<path style="fill-rule:evenodd;clip-rule:evenodd;fill:#CCCCCC;" d="M52,8c-2.209,0-4,1.791-4,4c0,2.21,1.791,4.001,4,4.001
			S56,14.21,56,12C56,9.791,54.209,8,52,8z M22,32H10c-1.104,0-2,0.896-2,2s0.896,2,2,2h12c1.104,0,2-0.896,2-2S23.104,32,22,32z
			 M30,24.001H10c-1.104,0-2,0.895-2,1.999s0.896,2,2,2h20c1.104,0,2-0.896,2-2S31.104,24.001,30,24.001z"/>
	</g>
</g>
<g>
</g>
<g>
</g>
<g>
</g>
<g>
</g>
<g>
</g>
<g>
</g>
<g>
</g>
<g>
</g>
<g>
</g>
<g>
</g>
<g>
</g>
<g>
</g>
<g>
</g>
<g>
</g>
<g>
</g>
</svg>
