<?xml version="1.0" encoding="iso-8859-1"?>
<!-- Generator: Adobe Illustrator 16.0.0, SVG Export Plug-In . SVG Version: 6.00 Build 0)  -->
<!DOCTYPE svg PUBLIC "-//W3C//DTD SVG 1.1//EN" "http://www.w3.org/Graphics/SVG/1.1/DTD/svg11.dtd">
<svg version="1.1" id="Layer_1" xmlns="http://www.w3.org/2000/svg" xmlns:xlink="http://www.w3.org/1999/xlink" x="0px" y="0px"
	 width="52px" height="64.001px" viewBox="0 0 52 64.001" style="enable-background:new 0 0 52 64.001;" xml:space="preserve">
<g id="Base_4_">
	<g>
		<path style="fill:#48A0DC;" d="M40,56.001H12c-2.209,0-4,1.791-4,4v4h36v-4C44,57.792,42.209,56.001,40,56.001z"/>
	</g>
</g>
<g id="Leg_1_">
	<g>
		<rect x="16" y="46.001" style="fill:#999999;" width="20" height="10"/>
	</g>
</g>
<g id="Fan">
	<g>
		<circle style="fill:#CCCCCC;" cx="26" cy="26" r="26"/>
	</g>
</g>
<g id="Container_1_">
	<g>
		<circle style="fill:#FFFFFF;" cx="26" cy="26" r="22"/>
	</g>
</g>
<g id="Propeller">
	<g>
		<path style="fill-rule:evenodd;clip-rule:evenodd;fill:#CCCCCC;" d="M39.129,26.336c-1.479-0.924-4.609-1.949-7.446-2.249
			c-0.322-0.958-0.88-1.805-1.604-2.478C31.258,18.944,32,15.738,32,14.001c0-3.313-2.687-6-6-6s-6,2.687-6,6
			c0,1.737,0.742,4.943,1.922,7.608c-0.725,0.673-1.282,1.52-1.604,2.478c-2.837,0.3-5.968,1.324-7.447,2.249
			c-2.762,1.727-3.708,5.549-2.113,8.539s5.126,4.015,7.888,2.288c1.414-0.884,3.66-3.139,5.305-5.529
			c0.641,0.233,1.329,0.367,2.051,0.367s1.41-0.134,2.051-0.367c1.645,2.39,3.89,4.645,5.305,5.529
			c2.762,1.727,6.293,0.702,7.888-2.288S41.891,28.063,39.129,26.336z"/>
	</g>
</g>
<g id="Hug">
	<g>
		<circle style="fill:#FFFFFF;" cx="26" cy="26.001" r="2"/>
	</g>
</g>
<g>
</g>
<g>
</g>
<g>
</g>
<g>
</g>
<g>
</g>
<g>
</g>
<g>
</g>
<g>
</g>
<g>
</g>
<g>
</g>
<g>
</g>
<g>
</g>
<g>
</g>
<g>
</g>
<g>
</g>
</svg>
