<?xml version="1.0" encoding="iso-8859-1"?>
<!-- Generator: Adobe Illustrator 16.0.0, SVG Export Plug-In . SVG Version: 6.00 Build 0)  -->
<!DOCTYPE svg PUBLIC "-//W3C//DTD SVG 1.1//EN" "http://www.w3.org/Graphics/SVG/1.1/DTD/svg11.dtd">
<svg version="1.1" id="Layer_1" xmlns="http://www.w3.org/2000/svg" xmlns:xlink="http://www.w3.org/1999/xlink" x="0px" y="0px"
	 width="40px" height="63.999px" viewBox="0 0 40 63.999" style="enable-background:new 0 0 40 63.999;" xml:space="preserve">
<g id="Shadow">
	<g>
		<ellipse style="fill:#B3B3B3;" cx="20" cy="62" rx="18" ry="2"/>
	</g>
</g>
<g id="Stem">
	<g>
		<path style="fill:#6C9945;" d="M20,10c-1.104,0-2,1.088-2,2.43v29.163c0,1.343,0.896,2.431,2,2.431s2-1.088,2-2.431V12.43
			C22,11.088,21.104,10,20,10z"/>
	</g>
</g>
<g id="Petals">
	<g>
		<path style="fill-rule:evenodd;clip-rule:evenodd;fill:#ED7261;" d="M33.52,8.136c-1.222-2.086-4.413-2.656-7.915-1.683
			C24.745,2.684,22.563,0,20,0s-4.745,2.684-5.604,6.453C10.894,5.479,7.702,6.05,6.48,8.136c-1.471,2.513,0.426,6.363,4.271,9.059
			c-2.856,3.548-3.622,7.643-1.613,9.65c2.241,2.239,7.084,1.032,10.862-2.688c3.778,3.72,8.621,4.927,10.863,2.688
			c2.008-2.008,1.242-6.103-1.614-9.65C33.094,14.499,34.99,10.648,33.52,8.136z"/>
	</g>
</g>
<g id="Flower">
	<g>
		<circle style="fill:#FFCC66;" cx="20" cy="16" r="4"/>
	</g>
</g>
<g id="Pot">
	<g>
		<path style="fill:#E6E6E6;" d="M2,39.697v4.86c0,6.711,8.276,17.441,15.333,17.441h5.333C29.724,61.999,38,51.269,38,44.558v-4.86
			H2z"/>
	</g>
</g>
<g id="Pot_1_">
	<g>
		<path style="fill:#CCCCCC;" d="M35,33.976H5c-2.762,0-5,2.246-5,5.017c0,2.771,2.238,5.018,5,5.018h30c2.762,0,5-2.246,5-5.018
			C40,36.222,37.762,33.976,35,33.976z"/>
	</g>
</g>
<g>
</g>
<g>
</g>
<g>
</g>
<g>
</g>
<g>
</g>
<g>
</g>
<g>
</g>
<g>
</g>
<g>
</g>
<g>
</g>
<g>
</g>
<g>
</g>
<g>
</g>
<g>
</g>
<g>
</g>
</svg>
