<?xml version="1.0" encoding="iso-8859-1"?>
<!-- Generator: Adobe Illustrator 16.0.0, SVG Export Plug-In . SVG Version: 6.00 Build 0)  -->
<!DOCTYPE svg PUBLIC "-//W3C//DTD SVG 1.1//EN" "http://www.w3.org/Graphics/SVG/1.1/DTD/svg11.dtd">
<svg version="1.1" id="Layer_1" xmlns="http://www.w3.org/2000/svg" xmlns:xlink="http://www.w3.org/1999/xlink" x="0px" y="0px"
	 width="56px" height="64px" viewBox="0 0 56 64" style="enable-background:new 0 0 56 64;" xml:space="preserve">
<g id="Folder_Holder">
	<g>
		<path style="fill-rule:evenodd;clip-rule:evenodd;fill:#9B7CAB;" d="M36,0L0,35.999v24C0,62.208,1.791,64,4,64h48
			c2.209,0,4-1.792,4-4.001V0H36z M15.381,55.38c-0.797,0.796-2.087,0.796-2.883,0l-3.942-3.942c-0.796-0.796-0.796-2.086,0-2.882
			s2.087-0.796,2.883,0l3.942,3.941C16.176,53.294,16.176,54.584,15.381,55.38z M31.381,55.38c-0.797,0.796-2.087,0.796-2.883,0
			L12.556,39.438c-0.796-0.796-0.796-2.086,0-2.883c0.796-0.795,2.087-0.795,2.882,0l15.943,15.942
			C32.176,53.294,32.176,54.584,31.381,55.38z M47.38,55.38c-0.796,0.796-2.086,0.796-2.882,0L20.556,31.438
			c-0.796-0.796-0.796-2.086,0-2.882c0.796-0.797,2.087-0.797,2.883,0L47.38,52.497C48.176,53.294,48.176,54.584,47.38,55.38z
			 M47.38,39.38c-0.796,0.796-2.086,0.796-2.882,0L28.556,23.438c-0.796-0.796-0.796-2.086,0-2.882s2.087-0.796,2.882,0
			L47.38,36.498C48.176,37.294,48.176,38.584,47.38,39.38z M47.38,23.38c-0.796,0.796-2.086,0.796-2.882,0l-7.942-7.942
			c-0.796-0.796-0.796-2.086,0-2.882s2.087-0.796,2.883,0l7.941,7.941C48.176,21.293,48.176,22.584,47.38,23.38z"/>
	</g>
</g>
<g>
</g>
<g>
</g>
<g>
</g>
<g>
</g>
<g>
</g>
<g>
</g>
<g>
</g>
<g>
</g>
<g>
</g>
<g>
</g>
<g>
</g>
<g>
</g>
<g>
</g>
<g>
</g>
<g>
</g>
</svg>
