<?xml version="1.0" encoding="utf-8"?>
<!-- Generator: Adobe Illustrator 18.0.0, SVG Export Plug-In . SVG Version: 6.00 Build 0)  -->
<!DOCTYPE svg PUBLIC "-//W3C//DTD SVG 1.1//EN" "http://www.w3.org/Graphics/SVG/1.1/DTD/svg11.dtd">
<svg version="1.1" xmlns="http://www.w3.org/2000/svg" xmlns:xlink="http://www.w3.org/1999/xlink" x="0px" y="0px"
	 viewBox="0 0 40 40" enable-background="new 0 0 40 40" xml:space="preserve">
<g id="Office">
	<g id="Drive_Lock_6_">
	</g>
	<g id="Drive_Down_6_">
	</g>
	<g id="Drive_Up_6_">
	</g>
	<g id="Drive_4_">
	</g>
	<g id="Screwdriver_3_">
	</g>
	<g id="Wrench_2_">
	</g>
	<g id="Flag_4_">
	</g>
	<g id="Whistle_4_">
	</g>
	<g id="Eye_Off_8_">
	</g>
	<g id="Eye">
	</g>
	<g id="Wand_4_">
	</g>
	<g id="Swatches">
	</g>
	<g id="Crop_6_">
	</g>
	<g id="Adjust_3_">
	</g>
	<g id="Picker">
	</g>
	<g id="Vector_5_">
	</g>
	<g id="Layer_Lock_6_">
	</g>
	<g id="Layer_Minus_6_">
	</g>
	<g id="Layer_Plus_6_">
	</g>
	<g id="Layer_4_">
	</g>
	<g id="File_Export_6_">
	</g>
	<g id="File_Import_6_">
	</g>
	<g id="File_4_">
	</g>
	<g id="Note_Flag_5_">
	</g>
	<g id="Note_Lock_5_">
	</g>
	<g id="Note_Minus_5_">
	</g>
	<g id="Note_Plus_5_">
	</g>
	<g id="Note_3_">
	</g>
	<g id="Folder_Flag_5_">
	</g>
	<g id="Folder_Lock_5_">
	</g>
	<g id="Folder_Minus_5_">
	</g>
	<g id="Folder_Plus_5_">
	</g>
	<g id="Folder_3_">
	</g>
	<g id="Magnet_3_">
	</g>
	<g id="Versions_6_">
	</g>
	<g id="Inbox_Down_5_">
	</g>
	<g id="Inbox_Up_5_">
	</g>
	<g id="Inbox_3_">
	</g>
	<g id="Email_Lock_5_">
	</g>
	<g id="Email_Star_5_">
	</g>
	<g id="Email_Flag">
	</g>
	<g id="Email_Ban_5_">
	</g>
	<g id="Email_Plus_5_">
	</g>
	<g id="Email_Minus_5_">
	</g>
	<g id="Email_Contact_5_">
	</g>
	<g id="Email_3_">
	</g>
	<g id="Bulb_4_">
	</g>
	<g id="Shield_4_">
	</g>
	<g id="Key_3_">
	</g>
	<g id="Heat_4_">
		<g>
			<g id="Heat_6_">
				<g>
					<polygon fill-rule="evenodd" clip-rule="evenodd" fill="#302E2E" points="34.2,25.1 7.3,25.1 3.1,31 37,31 					"/>
				</g>
			</g>
			<g id="Heat_3_">
				<g>
					<polygon fill-rule="evenodd" clip-rule="evenodd" fill="#211F1F" points="32.5,26.6 8.5,26.6 6.4,29.6 33.9,29.6 					"/>
				</g>
			</g>
			<g id="Heat_1_">
				<g>
					<path fill-rule="evenodd" clip-rule="evenodd" fill="#E74C3C" d="M7.5,13.7h2v1c0,1.2-0.1,1.7-0.6,2.4c-0.5,0.9-1,2-1,4
						s0.6,3.1,1.1,4c0.4,0.7,0.5,1.3,0.5,2.4v2h3v-2c0-2-0.5-3.1-1-4c-0.4-0.7-0.6-1.3-0.6-2.4s0.2-1.7,0.7-2.4c0.5-0.9,1-2,1-4v-1
						h3l-4-6.2L7.5,13.7z M16.5,13.7h2v1c0,1.2-0.1,1.7-0.6,2.4c-0.5,0.9-1,2-1,4s0.6,3.1,1.1,4c0.4,0.7,0.5,1.3,0.5,2.4v2h3v-2
						c0-2-0.5-3.1-1-4c-0.4-0.7-0.6-1.3-0.6-2.4s0.2-1.7,0.7-2.4c0.5-0.9,1-2,1-4v-1h3l-4-6.2L16.5,13.7z M29.5,7.5l-4,6.2h2v1
						c0,1.2-0.1,1.7-0.6,2.4c-0.5,0.9-1,2-1,4s0.6,3.1,1.1,4c0.4,0.7,0.5,1.3,0.5,2.4v2h3v-2c0-2-0.5-3.1-1-4
						c-0.4-0.7-0.6-1.3-0.6-2.4s0.2-1.7,0.7-2.4c0.5-0.9,1-2,1-4v-1h3L29.5,7.5z"/>
				</g>
			</g>
		</g>
	</g>
	<g id="Calendar_6_">
	</g>
	<g id="Briefcase">
	</g>
	<g id="Messenger_Bag">
	</g>
	<g id="Suitcase_5_">
	</g>
	<g id="Trophy_4_">
	</g>
	<g id="Bookmark">
	</g>
	<g id="Book_03">
	</g>
	<g id="Book_02">
	</g>
	<g id="Book_01">
	</g>
	<g id="Timer_8_">
	</g>
	<g id="Alarm_10_">
	</g>
	<g id="Clock_6_">
	</g>
	<g id="Albums_5_">
	</g>
	<g id="Plane_4_">
	</g>
	<g id="Pin_Flag_4_">
	</g>
	<g id="Tack">
	</g>
	<g id="Paper_Clip">
	</g>
	<g id="Pencil_4_">
	</g>
	<g id="Lead_Pencil_3_">
	</g>
	<g id="Sharpie_6_">
	</g>
	<g id="Piechart_4_">
	</g>
	<g id="Bargraph_6_">
	</g>
</g>
<g id="Lockup">
</g>
</svg>
