<?xml version="1.0" encoding="iso-8859-1"?>
<!-- Generator: Adobe Illustrator 16.0.0, SVG Export Plug-In . SVG Version: 6.00 Build 0)  -->
<!DOCTYPE svg PUBLIC "-//W3C//DTD SVG 1.1//EN" "http://www.w3.org/Graphics/SVG/1.1/DTD/svg11.dtd">
<svg version="1.1" id="Layer_1" xmlns="http://www.w3.org/2000/svg" xmlns:xlink="http://www.w3.org/1999/xlink" x="0px" y="0px"
	 width="64px" height="48.001px" viewBox="0 0 64 48.001" style="enable-background:new 0 0 64 48.001;" xml:space="preserve">
<g id="Case_1_">
	<g>
		<polygon style="fill:#6D5778;" points="20,20.001 12,20.001 12,40.001 42,40.001 		"/>
	</g>
</g>
<g id="Foot_2_">
	<g>
		<path style="fill:#CCCCCC;" d="M60,40.001H24l-6-12H6l-6,12v4c0,2.209,1.791,4,4,4h56c2.209,0,4-1.791,4-4
			S62.209,40.001,60,40.001z"/>
	</g>
</g>
<g id="Cap_2_">
	<g>
		<path style="fill:#9B7CAB;" d="M44,0C40.043,0,0,12,0,28c0,6.628,5.373,12.001,12,12.001S24,34.628,24,28
			c2.948-2.948,24-23.999,24-23.999S45.629,1.63,44,0z"/>
	</g>
</g>
<g id="Hinge_2_">
	<g>
		<circle style="fill:#FFFFFF;" cx="12" cy="28" r="4"/>
	</g>
</g>
<g>
</g>
<g>
</g>
<g>
</g>
<g>
</g>
<g>
</g>
<g>
</g>
<g>
</g>
<g>
</g>
<g>
</g>
<g>
</g>
<g>
</g>
<g>
</g>
<g>
</g>
<g>
</g>
<g>
</g>
</svg>
