<?xml version="1.0" encoding="utf-8"?>
<!-- Generator: Adobe Illustrator 18.0.0, SVG Export Plug-In . SVG Version: 6.00 Build 0)  -->
<!DOCTYPE svg PUBLIC "-//W3C//DTD SVG 1.1//EN" "http://www.w3.org/Graphics/SVG/1.1/DTD/svg11.dtd">
<svg version="1.1" xmlns="http://www.w3.org/2000/svg" xmlns:xlink="http://www.w3.org/1999/xlink" x="0px" y="0px"
	 viewBox="0 0 40 40" enable-background="new 0 0 40 40" xml:space="preserve">
<g id="Office">
	<g id="Drive_Lock_6_">
	</g>
	<g id="Drive_Down_6_">
	</g>
	<g id="Drive_Up_6_">
	</g>
	<g id="Drive_4_">
	</g>
	<g id="Screwdriver_3_">
	</g>
	<g id="Wrench_2_">
	</g>
	<g id="Flag_4_">
	</g>
	<g id="Whistle_4_">
	</g>
	<g id="Eye_Off_8_">
	</g>
	<g id="Eye">
	</g>
	<g id="Wand_4_">
	</g>
	<g id="Swatches">
	</g>
	<g id="Crop_6_">
	</g>
	<g id="Adjust_3_">
	</g>
	<g id="Picker">
	</g>
	<g id="Vector_5_">
	</g>
	<g id="Layer_Lock_6_">
	</g>
	<g id="Layer_Minus_6_">
	</g>
	<g id="Layer_Plus_6_">
	</g>
	<g id="Layer_4_">
	</g>
	<g id="File_Export_6_">
	</g>
	<g id="File_Import_6_">
	</g>
	<g id="File_4_">
	</g>
	<g id="Note_Flag_5_">
	</g>
	<g id="Note_Lock_5_">
	</g>
	<g id="Note_Minus_5_">
	</g>
	<g id="Note_Plus_5_">
	</g>
	<g id="Note_3_">
	</g>
	<g id="Folder_Flag_5_">
	</g>
	<g id="Folder_Lock_5_">
	</g>
	<g id="Folder_Minus_5_">
	</g>
	<g id="Folder_Plus_5_">
	</g>
	<g id="Folder_3_">
	</g>
	<g id="Magnet_3_">
	</g>
	<g id="Versions_6_">
	</g>
	<g id="Inbox_Down_5_">
	</g>
	<g id="Inbox_Up_5_">
	</g>
	<g id="Inbox_3_">
	</g>
	<g id="Email_Lock_5_">
	</g>
	<g id="Email_Star_5_">
	</g>
	<g id="Email_Flag">
	</g>
	<g id="Email_Ban_5_">
	</g>
	<g id="Email_Plus_5_">
	</g>
	<g id="Email_Minus_5_">
	</g>
	<g id="Email_Contact_5_">
	</g>
	<g id="Email_3_">
	</g>
	<g id="Bulb_4_">
	</g>
	<g id="Shield_4_">
	</g>
	<g id="Key_3_">
		<g id="Key_4_">
			<g>
				<path fill-rule="evenodd" clip-rule="evenodd" fill="#F1C40F" d="M31,24.9l-2.1-2.1l-1.4,1.4l-0.7-0.7l1.4-1.4l-2.1-2.1
					l-1.4,1.4l-3.2-3.1c1-2.3,0.5-5.1-1.4-7c-2.5-2.5-6.6-2.5-9.2,0c-2.5,2.5-2.5,6.5,0,9c1.9,1.9,4.7,2.3,7.1,1.4l8.8,8.7l2.1-0.7
					l0.7-0.7l0.7-2.1l-0.7-0.7L31,24.9z M15.5,15.9c-0.7,0.7-1.9,0.7-2.6,0c-0.7-0.7-0.7-1.9,0-2.6c0.7-0.7,1.9-0.7,2.6,0
					C16.2,14,16.2,15.2,15.5,15.9z"/>
			</g>
		</g>
		<g id="Key_1_">
			<g>
				<path fill-rule="evenodd" clip-rule="evenodd" fill="#F39C12" d="M21.8,21.5c-0.2-0.2-0.5-0.2-0.7,0c-0.2,0.2-0.2,0.5,0,0.7
					l7.8,7.7l0.7-0.7L21.8,21.5z"/>
			</g>
		</g>
		<path fill="none" stroke="#F39C12" stroke-miterlimit="10" d="M12.9,13.3c0.7-0.7,1.9-0.7,2.6,0c0.7,0.7,0.7,1.9,0,2.6
			c-0.7,0.7-1.9,0.7-2.6,0C12.1,15.2,12.1,14,12.9,13.3z"/>
	</g>
	<g id="Heat_4_">
	</g>
	<g id="Calendar_6_">
	</g>
	<g id="Briefcase">
	</g>
	<g id="Messenger_Bag">
	</g>
	<g id="Suitcase_5_">
	</g>
	<g id="Trophy_4_">
	</g>
	<g id="Bookmark">
	</g>
	<g id="Book_03">
	</g>
	<g id="Book_02">
	</g>
	<g id="Book_01">
	</g>
	<g id="Timer_8_">
	</g>
	<g id="Alarm_10_">
	</g>
	<g id="Clock_6_">
	</g>
	<g id="Albums_5_">
	</g>
	<g id="Plane_4_">
	</g>
	<g id="Pin_Flag_4_">
	</g>
	<g id="Tack">
	</g>
	<g id="Paper_Clip">
	</g>
	<g id="Pencil_4_">
	</g>
	<g id="Lead_Pencil_3_">
	</g>
	<g id="Sharpie_6_">
	</g>
	<g id="Piechart_4_">
	</g>
	<g id="Bargraph_6_">
	</g>
</g>
<g id="Lockup">
</g>
</svg>
