<?xml version="1.0" encoding="iso-8859-1"?>
<!-- Generator: Adobe Illustrator 16.0.0, SVG Export Plug-In . SVG Version: 6.00 Build 0)  -->
<!DOCTYPE svg PUBLIC "-//W3C//DTD SVG 1.1//EN" "http://www.w3.org/Graphics/SVG/1.1/DTD/svg11.dtd">
<svg version="1.1" id="Layer_1" xmlns="http://www.w3.org/2000/svg" xmlns:xlink="http://www.w3.org/1999/xlink" x="0px" y="0px"
	 width="63.997px" height="64px" viewBox="0 0 63.997 64" style="enable-background:new 0 0 63.997 64;" xml:space="preserve">
<g id="Arm">
	<g>
		<path style="fill-rule:evenodd;clip-rule:evenodd;fill:#CCCCCC;" d="M58.999,19.979c-0.992,0-1.912,0.298-2.69,0.798L31.156,6.239
			c-0.956-0.552-2.179-0.225-2.73,0.732c-0.552,0.958-0.225,2.182,0.731,2.734l24.932,14.408c-0.049,0.283-0.087,0.57-0.087,0.867
			c0,0.963,0.285,1.854,0.756,2.617L40.276,53.003c-0.552,0.969-0.225,2.207,0.731,2.766c0.956,0.56,2.179,0.229,2.731-0.74
			l14.33-25.139c0.302,0.057,0.611,0.094,0.93,0.094c2.761,0,4.998-2.239,4.998-5.002C63.997,22.218,61.76,19.979,58.999,19.979z
			 M58.999,26.017c-0.552,0-0.999-0.448-0.999-1c0-0.553,0.447-1,0.999-1c0.553,0,1,0.447,1,1
			C59.999,25.568,59.552,26.017,58.999,26.017z"/>
	</g>
</g>
<g id="Base_2_">
	<g>
		<path style="fill:#48A0DC;" d="M38.01,51.994c-7.83,0-14.474,5.016-16.945,12.006h33.891C52.482,57.01,45.84,51.994,38.01,51.994z
			"/>
	</g>
</g>
<g id="Lightbulb_1_">
	<g>
		<ellipse style="fill:#FFCC66;" cx="18.02" cy="19.979" rx="5.997" ry="6.003"/>
	</g>
</g>
<g id="Shade_1_">
	<g>
		<path style="fill-rule:evenodd;clip-rule:evenodd;fill:#48A0DC;" d="M32.032,11.394c0.872-4.91-2.24-9.745-7.297-11.06
			c-5.146-1.337-10.42,1.461-12.103,6.29C7.236,8.027,2.577,11.526,0,16.403l37.968,9.588C38.329,20.47,36.078,15.163,32.032,11.394
			z"/>
	</g>
</g>
<g>
</g>
<g>
</g>
<g>
</g>
<g>
</g>
<g>
</g>
<g>
</g>
<g>
</g>
<g>
</g>
<g>
</g>
<g>
</g>
<g>
</g>
<g>
</g>
<g>
</g>
<g>
</g>
<g>
</g>
</svg>
