<?xml version="1.0" encoding="iso-8859-1"?>
<!-- Generator: Adobe Illustrator 16.0.0, SVG Export Plug-In . SVG Version: 6.00 Build 0)  -->
<!DOCTYPE svg PUBLIC "-//W3C//DTD SVG 1.1//EN" "http://www.w3.org/Graphics/SVG/1.1/DTD/svg11.dtd">
<svg version="1.1" id="Layer_1" xmlns="http://www.w3.org/2000/svg" xmlns:xlink="http://www.w3.org/1999/xlink" x="0px" y="0px"
	 width="63.971px" height="62.032px" viewBox="0 0 63.971 62.032" style="enable-background:new 0 0 63.971 62.032;"
	 xml:space="preserve">
<g id="Ring_1_">
	<g>
		
			<rect x="25.757" y="15.648" transform="matrix(0.7071 -0.7071 0.7071 0.7071 -15.278 31.1812)" style="fill:#638C3F;" width="8.485" height="36.769"/>
	</g>
</g>
<g id="Barrel_2_">
	<g>
		<path style="fill:#88C057;" d="M63.384,21.585L42.385,0.587c-0.782-0.782-2.051-0.782-2.833,0L18.554,17.585
			c-0.782,0.782-0.782,2.051,0,2.834l24.998,24.997c0.782,0.782,2.051,0.782,2.833,0l16.999-20.998
			C64.166,23.635,64.166,22.367,63.384,21.585z"/>
	</g>
</g>
<g id="Cone_1_">
	<g>
		<path style="fill:#666666;" d="M14,24.033c0,15.999-8,28-8,28l6,5.999c0,0,12-8,28-8L14,24.033z"/>
	</g>
</g>
<g id="Nib_1_">
	<g>
		<polygon style="fill:#88C057;" points="6,52.033 0,58.032 8,62.032 12,58.032 		"/>
	</g>
</g>
<g>
</g>
<g>
</g>
<g>
</g>
<g>
</g>
<g>
</g>
<g>
</g>
<g>
</g>
<g>
</g>
<g>
</g>
<g>
</g>
<g>
</g>
<g>
</g>
<g>
</g>
<g>
</g>
<g>
</g>
</svg>
