<?xml version="1.0" encoding="iso-8859-1"?>
<!-- Generator: Adobe Illustrator 16.0.0, SVG Export Plug-In . SVG Version: 6.00 Build 0)  -->
<!DOCTYPE svg PUBLIC "-//W3C//DTD SVG 1.1//EN" "http://www.w3.org/Graphics/SVG/1.1/DTD/svg11.dtd">
<svg version="1.1" id="Layer_1" xmlns="http://www.w3.org/2000/svg" xmlns:xlink="http://www.w3.org/1999/xlink" x="0px" y="0px"
	 width="64px" height="64px" viewBox="0 0 64 64" style="enable-background:new 0 0 64 64;" xml:space="preserve">
<g id="Frame">
	<g>
		<path style="fill:#666666;" d="M60,0H4C1.791,0,0,1.791,0,4v52c0,2.21,1.791,4,4,4h56c2.209,0,4-1.79,4-4V4
			C64,1.791,62.209,0,60,0z"/>
	</g>
</g>
<g id="Page">
	<g>
		<path style="fill:#FFFFFF;" d="M58,2H6.001c-1.104,0-2,0.896-2,2v52c0,1.104,0.896,2,2,2H58c1.104,0,2-0.896,2-2V4
			C60,2.896,59.104,2,58,2z"/>
	</g>
</g>
<g id="Sign_1_">
	<g>
		<path style="fill:#88C057;" d="M38.001,0.001V62c0,1.104,0.896,2,1.999,2c1.105,0,2.001-0.896,2.001-2V0.001H38.001z"/>
	</g>
</g>
<g id="Page_1_">
	<g>
		<path style="fill:#E6E6E6;" d="M10.001,2c-1.104,0-2,0.896-2,2v52c0,1.104,0.896,2,2,2h22V2H10.001z"/>
	</g>
</g>
<g>
</g>
<g>
</g>
<g>
</g>
<g>
</g>
<g>
</g>
<g>
</g>
<g>
</g>
<g>
</g>
<g>
</g>
<g>
</g>
<g>
</g>
<g>
</g>
<g>
</g>
<g>
</g>
<g>
</g>
</svg>
