<?xml version="1.0" encoding="iso-8859-1"?>
<!-- Generator: Adobe Illustrator 16.0.0, SVG Export Plug-In . SVG Version: 6.00 Build 0)  -->
<!DOCTYPE svg PUBLIC "-//W3C//DTD SVG 1.1//EN" "http://www.w3.org/Graphics/SVG/1.1/DTD/svg11.dtd">
<svg version="1.1" id="Layer_1" xmlns="http://www.w3.org/2000/svg" xmlns:xlink="http://www.w3.org/1999/xlink" x="0px" y="0px"
	 width="68px" height="68.001px" viewBox="0 0 68 68.001" style="enable-background:new 0 0 68 68.001;" xml:space="preserve">
<g id="Postit_1_">
	<g>
		<path style="fill-rule:evenodd;clip-rule:evenodd;fill:#FFCC66;" d="M36,52.001c0-8.838,7.163-16,16-16
			c4.785,0,9.068,2.111,12,5.441V4c0-2.21-1.791-4-4-4H4C1.79,0,0,1.79,0,4v56c0,2.209,1.79,4,4,4h37.441
			C38.111,61.068,36,56.785,36,52.001z"/>
	</g>
</g>
<g id="Elipse_3_">
	<g>
		<circle style="fill:#88C057;" cx="52" cy="52.001" r="12"/>
	</g>
</g>
<g id="Plus">
	<g>
		<path style="fill:#FFFFFF;" d="M56,50.001h-2V48c0-1.105-0.896-1.999-2-1.999S50,46.895,50,48v2.001h-2c-1.104,0-2,0.895-2,2
			c0,1.103,0.896,1.998,2,1.998h2v2C50,57.105,50.896,58,52,58s2-0.895,2-2.001v-2h2c1.105,0,1.999-0.896,1.999-1.998
			C57.999,50.896,57.105,50.001,56,50.001z"/>
	</g>
</g>
<g id="Heart_1_">
	<g>
		<path style="fill:#997A3D;" d="M29.082,13.114c-1.118-0.801-3.026-1.567-5.769-0.697c-1.947,0.62-3.183,1.823-3.935,3.139
			c-0.083-0.057-0.17-0.111-0.258-0.165c-0.887-0.53-2.377-1.044-4.441-0.48c-2.605,0.712-4.342,2.563-4.643,4.949
			c-0.372,2.948,1.486,6.022,4.733,7.832l4.419,2.463c-0.008,0.906,0.655,1.694,1.571,1.813c0.244,0.031,0.482,0.012,0.706-0.049
			c0.688-0.188,1.234-0.775,1.336-1.532c0.144-1.068,1.303-1.768,3.182-2.82c2.586-1.45,6.126-3.435,6.01-8.266
			C31.931,16.688,30.842,14.375,29.082,13.114z M24.236,24.375c-1.217,0.683-2.525,1.415-3.51,2.447l-4.181-2.33
			c-2.219-1.236-3.06-2.999-2.908-4.197c0.143-1.132,1.149-1.636,1.969-1.859c0.677-0.185,1.21-0.154,1.63,0.092
			c0.702,0.411,1.079,1.385,1.161,1.709c0.214,0.923,1.095,1.514,2.028,1.37c0.93-0.146,1.605-0.99,1.549-1.938
			c-0.018-0.301-0.104-2.968,2.412-3.77c1.059-0.338,1.924-0.271,2.577,0.196c0.829,0.595,1.366,1.866,1.401,3.319
			C28.426,21.899,26.836,22.919,24.236,24.375z"/>
	</g>
</g>
<g>
</g>
<g>
</g>
<g>
</g>
<g>
</g>
<g>
</g>
<g>
</g>
<g>
</g>
<g>
</g>
<g>
</g>
<g>
</g>
<g>
</g>
<g>
</g>
<g>
</g>
<g>
</g>
<g>
</g>
</svg>
