<?xml version="1.0" encoding="iso-8859-1"?>
<!-- Generator: Adobe Illustrator 16.0.0, SVG Export Plug-In . SVG Version: 6.00 Build 0)  -->
<!DOCTYPE svg PUBLIC "-//W3C//DTD SVG 1.1//EN" "http://www.w3.org/Graphics/SVG/1.1/DTD/svg11.dtd">
<svg version="1.1" id="Layer_1" xmlns="http://www.w3.org/2000/svg" xmlns:xlink="http://www.w3.org/1999/xlink" x="0px" y="0px"
	 width="64.001px" height="64px" viewBox="0 0 64.001 64" style="enable-background:new 0 0 64.001 64;" xml:space="preserve">
<g id="Postit_2_">
	<g>
		<path style="fill:#FFCC66;" d="M60.001,0H4C1.791,0,0,1.79,0,4v56c0,2.209,1.791,4,4,4h42.001l18-18V4
			C64.001,1.79,62.21,0,60.001,0z"/>
	</g>
</g>
<g id="Corner">
	<g>
		<path style="fill:#CCA352;" d="M50.001,46c-2.21,0-4,1.79-4,4v14l18-18H50.001z"/>
	</g>
</g>
<g id="Heart_2_">
	<g>
		<path style="fill:#997A3D;" d="M29.083,13.114c-1.118-0.801-3.026-1.567-5.769-0.697c-1.948,0.62-3.183,1.823-3.935,3.139
			c-0.083-0.057-0.17-0.111-0.259-0.165c-0.886-0.53-2.376-1.044-4.44-0.48c-2.605,0.712-4.342,2.563-4.643,4.949
			c-0.372,2.948,1.485,6.022,4.733,7.832l4.419,2.463c-0.008,0.906,0.655,1.694,1.571,1.813c0.243,0.031,0.482,0.012,0.706-0.049
			c0.688-0.188,1.234-0.775,1.336-1.532c0.143-1.068,1.302-1.768,3.182-2.82c2.585-1.45,6.126-3.435,6.009-8.266
			C31.932,16.688,30.843,14.375,29.083,13.114z M24.236,24.375c-1.217,0.683-2.524,1.415-3.509,2.447l-4.181-2.33
			c-2.219-1.236-3.06-2.999-2.908-4.197c0.143-1.132,1.149-1.636,1.969-1.859c0.677-0.185,1.21-0.154,1.63,0.092
			c0.702,0.411,1.078,1.385,1.161,1.709c0.214,0.923,1.095,1.514,2.028,1.37c0.93-0.146,1.605-0.99,1.549-1.938
			c-0.018-0.301-0.104-2.968,2.412-3.77c1.058-0.338,1.924-0.271,2.577,0.196c0.829,0.595,1.366,1.866,1.401,3.319
			C28.427,21.899,26.837,22.919,24.236,24.375z"/>
	</g>
</g>
<g>
</g>
<g>
</g>
<g>
</g>
<g>
</g>
<g>
</g>
<g>
</g>
<g>
</g>
<g>
</g>
<g>
</g>
<g>
</g>
<g>
</g>
<g>
</g>
<g>
</g>
<g>
</g>
<g>
</g>
</svg>
