<?xml version="1.0" encoding="iso-8859-1"?>
<!-- Generator: Adobe Illustrator 16.0.0, SVG Export Plug-In . SVG Version: 6.00 Build 0)  -->
<!DOCTYPE svg PUBLIC "-//W3C//DTD SVG 1.1//EN" "http://www.w3.org/Graphics/SVG/1.1/DTD/svg11.dtd">
<svg version="1.1" id="Layer_1" xmlns="http://www.w3.org/2000/svg" xmlns:xlink="http://www.w3.org/1999/xlink" x="0px" y="0px"
	 width="64px" height="68px" viewBox="0 0 64 68" style="enable-background:new 0 0 64 68;" xml:space="preserve">
<g id="Notebook_2_">
	<g>
		<path style="fill-rule:evenodd;clip-rule:evenodd;fill:#48A0DC;" d="M32,52.001c0-8.838,7.163-16,16-16
			c2.918,0,5.645,0.793,8,2.158V8.001C56,5.791,54.209,4,52,4H4C1.79,4,0,5.791,0,8.001V60c0,2.21,1.79,4,4,4h33.441
			C34.111,61.068,32,56.786,32,52.001z"/>
	</g>
</g>
<g id="Container_4_">
	<g>
		<path style="fill:#FFFFFF;" d="M50,8.001H5.999C4.895,8.001,4,8.896,4,10v47.999C4,59.104,4.895,60,5.999,60H50
			c1.104,0,2-0.896,2-2.001V10C52,8.896,51.104,8.001,50,8.001z"/>
	</g>
</g>
<g id="Text_5_">
	<g>
		<path style="fill:#CCCCCC;" d="M14,24h27.999c1.104,0,2-0.896,2-2s-0.896-2-2-2H14c-1.105,0-2,0.896-2,2S12.895,24,14,24z
			 M41.999,35.999H14c-1.105,0-2,0.896-2,2.001c0,1.104,0.895,1.999,2,1.999h27.999c1.104,0,2-0.895,2-1.999
			C43.999,36.895,43.104,35.999,41.999,35.999z M14,31.999h15.999c1.105,0,2-0.895,2-1.999s-0.895-2-2-2H14c-1.105,0-2,0.896-2,2
			S12.895,31.999,14,31.999z M30,43.999H14c-1.105,0-2,0.896-2,2.001c0,1.104,0.895,2,2,2h16c1.104,0,1.999-0.896,1.999-2
			C31.999,44.895,31.104,43.999,30,43.999z"/>
	</g>
</g>
<g id="Elipse_5_">
	<g>
		<circle style="fill:#88C057;" cx="48" cy="52" r="12"/>
	</g>
</g>
<g id="Plus_1_">
	<g>
		<path style="fill:#FFFFFF;" d="M52,50.001h-2V48c0-1.105-0.896-2-2-2s-2,0.895-2,2v2.001h-2c-1.104,0-2,0.895-2,2
			c0,1.103,0.896,1.998,2,1.998h2v2c0,1.106,0.896,2,2,2s2-0.894,2-2v-2h2c1.105,0,2-0.896,2-1.998
			C54,50.896,53.105,50.001,52,50.001z"/>
	</g>
</g>
<g id="Springs_2_">
	<g>
		<path style="fill-rule:evenodd;clip-rule:evenodd;fill:#387BA8;" d="M12,0c-1.104,0-2,0.896-2,2v8c0,1.104,0.896,2.001,2,2.001
			s2-0.896,2-2.001V2C14,0.896,13.104,0,12,0z M20,0c-1.105,0-2,0.896-2,2v8c0,1.104,0.895,2.001,2,2.001c1.104,0,2-0.896,2-2.001V2
			C22,0.896,21.104,0,20,0z M28,0c-1.104,0-2,0.896-2,2v8c0,1.104,0.896,2.001,2,2.001s2-0.896,2-2.001V2C30,0.896,29.104,0,28,0z
			 M36,0c-1.104,0-2,0.896-2,2v8c0,1.104,0.896,2.001,2,2.001s2-0.896,2-2.001V2C38,0.896,37.104,0,36,0z M44,0
			c-1.105,0-2,0.896-2,2v8c0,1.104,0.895,2.001,2,2.001c1.104,0,2-0.896,2-2.001V2C46,0.896,45.104,0,44,0z"/>
	</g>
</g>
<g>
</g>
<g>
</g>
<g>
</g>
<g>
</g>
<g>
</g>
<g>
</g>
<g>
</g>
<g>
</g>
<g>
</g>
<g>
</g>
<g>
</g>
<g>
</g>
<g>
</g>
<g>
</g>
<g>
</g>
</svg>
