<?xml version="1.0" encoding="iso-8859-1"?>
<!-- Generator: Adobe Illustrator 16.0.0, SVG Export Plug-In . SVG Version: 6.00 Build 0)  -->
<!DOCTYPE svg PUBLIC "-//W3C//DTD SVG 1.1//EN" "http://www.w3.org/Graphics/SVG/1.1/DTD/svg11.dtd">
<svg version="1.1" id="Layer_1" xmlns="http://www.w3.org/2000/svg" xmlns:xlink="http://www.w3.org/1999/xlink" x="0px" y="0px"
	 width="64px" height="68px" viewBox="0 0 64 68" style="enable-background:new 0 0 64 68;" xml:space="preserve">
<g id="Notebook_1_">
	<g>
		<path style="fill-rule:evenodd;clip-rule:evenodd;fill:#48A0DC;" d="M32,52.001c0-8.838,7.163-16,16-16
			c2.918,0,5.645,0.793,8,2.158V8.001C56,5.791,54.209,4,52,4H4C1.791,4,0,5.791,0,8.001V60c0,2.21,1.791,4,4,4h33.441
			C34.111,61.068,32,56.786,32,52.001z"/>
	</g>
</g>
<g id="Container_3_">
	<g>
		<path style="fill:#FFFFFF;" d="M50,8.001H6c-1.104,0-2,0.895-2,1.999v47.999C4,59.104,4.896,60,6,60h44c1.104,0,2-0.896,2-2.001
			V10C52,8.896,51.104,8.001,50,8.001z"/>
	</g>
</g>
<g id="Text_4_">
	<g>
		<path style="fill:#CCCCCC;" d="M14,31.999h15.999C31.104,31.999,32,31.104,32,30s-0.896-2-2.001-2H14c-1.105,0-2,0.896-2,2
			S12.895,31.999,14,31.999z M14,24h28c1.104,0,1.999-0.896,1.999-2S43.104,20,42,20H14c-1.105,0-2,0.896-2,2S12.895,24,14,24z
			 M30,43.999H14c-1.105,0-2,0.896-2,2.001c0,1.104,0.895,2,2,2h16c1.104,0,2-0.896,2-2C32,44.895,31.104,43.999,30,43.999z
			 M42,35.999H14c-1.105,0-2,0.896-2,2.001c0,1.104,0.895,1.999,2,1.999h28c1.104,0,1.999-0.895,1.999-1.999
			C43.999,36.895,43.104,35.999,42,35.999z"/>
	</g>
</g>
<g id="Elipse_4_">
	<g>
		<circle style="fill:#ED7161;" cx="48" cy="52" r="12"/>
	</g>
</g>
<g id="Minus_1_">
	<g>
		<path style="fill:#FFFFFF;" d="M52,49.999h-8c-1.105,0-2,0.895-2,2c0,1.104,0.895,2,2,2h8c1.104,0,2-0.896,2-2
			C54,50.894,53.104,49.999,52,49.999z"/>
	</g>
</g>
<g id="Springs_1_">
	<g>
		<path style="fill-rule:evenodd;clip-rule:evenodd;fill:#387BA8;" d="M12,0c-1.104,0-2,0.896-2,2v8c0,1.104,0.896,2.001,2,2.001
			s2-0.896,2-2.001V2C14,0.896,13.104,0,12,0z M20,0c-1.105,0-2,0.896-2,2v8c0,1.104,0.895,2.001,2,2.001c1.104,0,2-0.896,2-2.001V2
			C22,0.896,21.104,0,20,0z M28,0c-1.105,0-2,0.896-2,2v8c0,1.104,0.895,2.001,2,2.001c1.104,0,2-0.896,2-2.001V2
			C30,0.896,29.104,0,28,0z M36,0c-1.105,0-2,0.896-2,2v8c0,1.104,0.895,2.001,2,2.001c1.104,0,2-0.896,2-2.001V2
			C38,0.896,37.104,0,36,0z M44,0c-1.105,0-2,0.896-2,2v8c0,1.104,0.895,2.001,2,2.001c1.104,0,2-0.896,2-2.001V2
			C46,0.896,45.104,0,44,0z"/>
	</g>
</g>
<g>
</g>
<g>
</g>
<g>
</g>
<g>
</g>
<g>
</g>
<g>
</g>
<g>
</g>
<g>
</g>
<g>
</g>
<g>
</g>
<g>
</g>
<g>
</g>
<g>
</g>
<g>
</g>
<g>
</g>
</svg>
