<?xml version="1.0" encoding="iso-8859-1"?>
<!-- Generator: Adobe Illustrator 16.0.0, SVG Export Plug-In . SVG Version: 6.00 Build 0)  -->
<!DOCTYPE svg PUBLIC "-//W3C//DTD SVG 1.1//EN" "http://www.w3.org/Graphics/SVG/1.1/DTD/svg11.dtd">
<svg version="1.1" id="Layer_1" xmlns="http://www.w3.org/2000/svg" xmlns:xlink="http://www.w3.org/1999/xlink" x="0px" y="0px"
	 width="60px" height="64px" viewBox="0 0 60 64" style="enable-background:new 0 0 60 64;" xml:space="preserve">
<g id="Notebook">
	<g>
		<path style="fill:#9B7CAB;" d="M56,0H8C5.791,0,4,1.791,4,4v56c0,2.21,1.791,4,4,4h48c2.209,0,4-1.79,4-4V4
			C60,1.791,58.209,0,56,0z"/>
	</g>
</g>
<g id="Container_2_">
	<g>
		<path style="fill:#FFFFFF;" d="M54,4H10C8.895,4,8,4.896,8,6v51.999C8,59.104,8.895,60,10,60h44c1.104,0,2-0.896,2-2.001V6
			C56,4.896,55.104,4,54,4z"/>
	</g>
</g>
<g id="Text_3_">
	<g>
		<path style="fill:#CCCCCC;" d="M46,33.999H22c-1.105,0-2,0.896-2,2.001s0.895,1.999,2,1.999h24c1.104,0,2-0.895,2-1.999
			S47.104,33.999,46,33.999z M22,30h15.999c1.105,0,2-0.896,2-2s-0.895-2-2-2H22c-1.105,0-2,0.896-2,2S20.895,30,22,30z M22,22h24
			c1.104,0,2-0.896,2-2c0-1.104-0.896-2-2-2H22c-1.105,0-2,0.896-2,2C20,21.104,20.895,22,22,22z M38,41.999H22
			c-1.105,0-2,0.896-2,2C20,45.104,20.895,46,22,46h16c1.104,0,1.999-0.896,1.999-2.001C39.999,42.895,39.104,41.999,38,41.999z"/>
	</g>
</g>
<g id="Springs">
	<g>
		<path style="fill-rule:evenodd;clip-rule:evenodd;fill:#6D5778;" d="M10,14.001H2.001c-1.105,0-2.001,0.896-2.001,2
			S0.896,18,2.001,18H10c1.105,0,2.001-0.895,2.001-1.999S11.105,14.001,10,14.001z M10,22.001H2.001c-1.105,0-2.001,0.895-2.001,2
			c0,1.104,0.896,2,2.001,2H10c1.105,0,2.001-0.896,2.001-2C12.001,22.896,11.105,22.001,10,22.001z M10,30.001H2.001
			c-1.105,0-2.001,0.896-2.001,2s0.896,2,2.001,2H10c1.105,0,2.001-0.896,2.001-2S11.105,30.001,10,30.001z M10,38.001H2.001
			c-1.105,0-2.001,0.895-2.001,2c0,1.104,0.896,2,2.001,2H10c1.105,0,2.001-0.896,2.001-2C12.001,38.896,11.105,38.001,10,38.001z
			 M10,46H2.001C0.896,46,0,46.896,0,48.001s0.896,2,2.001,2H10c1.105,0,2.001-0.896,2.001-2S11.105,46,10,46z M2.001,10.001H10
			c1.105,0,2.001-0.896,2.001-2c0-1.105-0.896-2-2.001-2H2.001C0.896,6.001,0,6.896,0,8.001C0,9.105,0.896,10.001,2.001,10.001z
			 M10,54.001H2.001c-1.105,0-2.001,0.895-2.001,2c0,1.104,0.896,2,2.001,2H10c1.105,0,2.001-0.896,2.001-2
			C12.001,54.896,11.105,54.001,10,54.001z"/>
	</g>
</g>
<g>
</g>
<g>
</g>
<g>
</g>
<g>
</g>
<g>
</g>
<g>
</g>
<g>
</g>
<g>
</g>
<g>
</g>
<g>
</g>
<g>
</g>
<g>
</g>
<g>
</g>
<g>
</g>
<g>
</g>
</svg>
