<?xml version="1.0" encoding="iso-8859-1"?>
<!-- Generator: Adobe Illustrator 16.0.0, SVG Export Plug-In . SVG Version: 6.00 Build 0)  -->
<!DOCTYPE svg PUBLIC "-//W3C//DTD SVG 1.1//EN" "http://www.w3.org/Graphics/SVG/1.1/DTD/svg11.dtd">
<svg version="1.1" id="Layer_1" xmlns="http://www.w3.org/2000/svg" xmlns:xlink="http://www.w3.org/1999/xlink" x="0px" y="0px"
	 width="56.022px" height="59.997px" viewBox="0 0 56.022 59.997" style="enable-background:new 0 0 56.022 59.997;"
	 xml:space="preserve">
<g id="Clip">
	<g>
		<path style="fill:#666666;" d="M52.021,32.014H4.002C1.791,32.014,0,33.805,0,36.015l2,18.008l0.011,5.975h52.001l0.011-5.975
			l2-18.008C56.022,33.805,54.23,32.014,52.021,32.014z"/>
	</g>
</g>
<g id="Canal">
	<g>
		<path style="fill:#333333;" d="M54.012,55.997H2.011c-1.104,0-1.999,0.896-1.999,2s0.895,2,1.999,2h52.001
			c1.104,0,1.999-0.896,1.999-2S55.115,55.997,54.012,55.997z"/>
	</g>
</g>
<g id="Handle_1_">
	<g>
		<path style="fill:#CCCCCC;" d="M41.993,55.681l-7.68-37.944c2.249-1.832,3.702-4.604,3.702-7.731C38.016,4.479,33.536,0,28.012,0
			c-5.525,0-10.005,4.479-10.005,10.005c0,3.128,1.453,5.899,3.702,7.731l-7.68,37.944c-0.198,1.105,0.552,2.16,1.675,2.354
			c1.124,0.195,2.194-0.543,2.393-1.648l7.891-39.036c0.165-0.925-0.337-1.806-1.161-2.187c0,0-2.817-1.041-2.817-5.159
			c0-3.315,2.688-6.003,6.003-6.003c3.314,0,6.002,2.688,6.002,6.003c0,4.118-2.817,5.159-2.817,5.159
			c-0.824,0.381-1.326,1.262-1.161,2.187l7.891,39.036c0.198,1.105,1.27,1.844,2.393,1.648
			C41.441,57.841,42.191,56.786,41.993,55.681z"/>
	</g>
</g>
<g>
</g>
<g>
</g>
<g>
</g>
<g>
</g>
<g>
</g>
<g>
</g>
<g>
</g>
<g>
</g>
<g>
</g>
<g>
</g>
<g>
</g>
<g>
</g>
<g>
</g>
<g>
</g>
<g>
</g>
</svg>
