<?xml version="1.0" encoding="utf-8"?>
<!-- Generator: Adobe Illustrator 18.0.0, SVG Export Plug-In . SVG Version: 6.00 Build 0)  -->
<!DOCTYPE svg PUBLIC "-//W3C//DTD SVG 1.1//EN" "http://www.w3.org/Graphics/SVG/1.1/DTD/svg11.dtd">
<svg version="1.1" xmlns="http://www.w3.org/2000/svg" xmlns:xlink="http://www.w3.org/1999/xlink" x="0px" y="0px"
	 viewBox="0 0 40 40" enable-background="new 0 0 40 40" xml:space="preserve">
<g id="Office">
	<g id="Drive_Lock_6_">
	</g>
	<g id="Drive_Down_6_">
	</g>
	<g id="Drive_Up_6_">
	</g>
	<g id="Drive_4_">
	</g>
	<g id="Screwdriver_3_">
	</g>
	<g id="Wrench_2_">
	</g>
	<g id="Flag_4_">
	</g>
	<g id="Whistle_4_">
	</g>
	<g id="Eye_Off_8_">
	</g>
	<g id="Eye">
	</g>
	<g id="Wand_4_">
	</g>
	<g id="Swatches">
	</g>
	<g id="Crop_6_">
	</g>
	<g id="Adjust_3_">
	</g>
	<g id="Picker">
	</g>
	<g id="Vector_5_">
	</g>
	<g id="Layer_Lock_6_">
	</g>
	<g id="Layer_Minus_6_">
	</g>
	<g id="Layer_Plus_6_">
	</g>
	<g id="Layer_4_">
	</g>
	<g id="File_Export_6_">
	</g>
	<g id="File_Import_6_">
	</g>
	<g id="File_4_">
	</g>
	<g id="Note_Flag_5_">
	</g>
	<g id="Note_Lock_5_">
	</g>
	<g id="Note_Minus_5_">
	</g>
	<g id="Note_Plus_5_">
	</g>
	<g id="Note_3_">
	</g>
	<g id="Folder_Flag_5_">
	</g>
	<g id="Folder_Lock_5_">
	</g>
	<g id="Folder_Minus_5_">
	</g>
	<g id="Folder_Plus_5_">
	</g>
	<g id="Folder_3_">
	</g>
	<g id="Magnet_3_">
	</g>
	<g id="Versions_6_">
	</g>
	<g id="Inbox_Down_5_">
	</g>
	<g id="Inbox_Up_5_">
	</g>
	<g id="Inbox_3_">
	</g>
	<g id="Email_Lock_5_">
	</g>
	<g id="Email_Star_5_">
	</g>
	<g id="Email_Flag">
	</g>
	<g id="Email_Ban_5_">
	</g>
	<g id="Email_Plus_5_">
	</g>
	<g id="Email_Minus_5_">
	</g>
	<g id="Email_Contact_5_">
	</g>
	<g id="Email_3_">
	</g>
	<g id="Bulb_4_">
	</g>
	<g id="Shield_4_">
	</g>
	<g id="Key_3_">
	</g>
	<g id="Heat_4_">
	</g>
	<g id="Calendar_6_">
	</g>
	<g id="Briefcase">
	</g>
	<g id="Messenger_Bag">
	</g>
	<g id="Suitcase_5_">
	</g>
	<g id="Trophy_4_">
	</g>
	<g id="Bookmark">
	</g>
	<g id="Book_03">
	</g>
	<g id="Book_02">
	</g>
	<g id="Book_01">
	</g>
	<g id="Timer_8_">
	</g>
	<g id="Alarm_10_">
	</g>
	<g id="Clock_6_">
	</g>
	<g id="Albums_5_">
	</g>
	<g id="Plane_4_">
	</g>
	<g id="Pin_Flag_4_">
	</g>
	<g id="Tack">
	</g>
	<g id="Paper_Clip">
	</g>
	<g id="Pencil_4_">
	</g>
	<g id="Lead_Pencil_3_">
	</g>
	<g id="Sharpie_6_">
	</g>
	<g id="Piechart_4_">
		<g>
			<g id="Piechart_11_">
				<g>
					<path fill-rule="evenodd" clip-rule="evenodd" fill="#1ABC9C" d="M22,8.5C21,8.2,19.8,8,18.7,8c-1,0-1.9,0.1-2.8,0.4
						c-0.9,0.3-1.8,0.6-2.5,1.1c-0.8,0.5-1.5,1-2.2,1.7c-0.6,0.7-1.2,1.4-1.7,2.2c-0.5,0.8-0.8,1.7-1.1,2.6C8.1,17,8,18,8,19
						c0,1,0.1,2,0.4,2.9c0.3,0.9,0.6,1.8,1.1,2.6c0.5,0.8,1,1.6,1.7,2.2c0.7,0.7,1.4,1.2,2.2,1.7c0.8,0.5,1.7,0.8,2.6,1.1
						C16.8,29.9,18,30,19,30V19l6-8.9C24.1,9.4,23.1,8.9,22,8.5z"/>
				</g>
			</g>
			<g id="Piechart_9_">
				<g>
					<path fill-rule="evenodd" clip-rule="evenodd" fill="#E74C3C" d="M21,22l0,10c1,0,2-0.1,3-0.4c0.9-0.3,1.8-0.6,2.6-1.1
						c0.8-0.5,1.6-1.1,2.2-1.7c0.7-0.7,1.2-1.4,1.7-2.2c0.5-0.8,0.8-1.7,1.1-2.6C31.8,23.3,32,22,32,22H21z"/>
				</g>
			</g>
			<g id="Piechart_7_">
				<g>
					<path fill-rule="evenodd" clip-rule="evenodd" fill="#F1C40F" d="M31.7,17.3c-0.2-0.8-0.5-1.7-0.9-2.5
						c-0.4-0.8-0.9-1.5-1.4-2.2c-0.6-0.7-1.2-1.1-2-1.6L21,20h11C32,19,31.9,18.1,31.7,17.3z"/>
				</g>
			</g>
		</g>
	</g>
	<g id="Bargraph_6_">
	</g>
</g>
<g id="Lockup">
</g>
</svg>
