<?xml version="1.0" encoding="iso-8859-1"?>
<!-- Generator: Adobe Illustrator 16.0.0, SVG Export Plug-In . SVG Version: 6.00 Build 0)  -->
<!DOCTYPE svg PUBLIC "-//W3C//DTD SVG 1.1//EN" "http://www.w3.org/Graphics/SVG/1.1/DTD/svg11.dtd">
<svg version="1.1" id="Layer_1" xmlns="http://www.w3.org/2000/svg" xmlns:xlink="http://www.w3.org/1999/xlink" x="0px" y="0px"
	 width="64px" height="51.999px" viewBox="0 0 64 51.999" style="enable-background:new 0 0 64 51.999;" xml:space="preserve">
<g id="Protractor">
	<g>
		<path style="fill:#FFCC66;" d="M60,28C60,12.535,47.464,0,32,0S4,12.535,4,28c-2.209,0-4,1.79-4,4v16c0,2.209,1.791,3.999,4,3.999
			h56c2.209,0,4-1.79,4-3.999V32C64,29.79,62.209,28,60,28z M20,28c0-6.628,5.372-12,12-12c6.627,0,12,5.372,12,12H20z"/>
	</g>
</g>
<g id="Grid">
	<g>
		<path style="fill:#CCA352;" d="M32,40c-1.104,0-2,0.895-2,1.999v10h4v-10C34,40.895,33.104,40,32,40z M8,40
			c-1.104,0-2,0.895-2,1.999v10h4v-10C10,40.895,9.104,40,8,40z M16,44c-1.104,0-2,0.895-2,1.999v6h4v-6C18,44.895,17.104,44,16,44z
			 M24,44c-1.104,0-2,0.895-2,1.999v6h4v-6C26,44.895,25.104,44,24,44z M56,40c-1.104,0-2,0.895-2,1.999v10h4v-10
			C58,40.895,57.104,40,56,40z M48,44c-1.105,0-2,0.895-2,1.999v6h4v-6C50,44.895,49.104,44,48,44z M40,44c-1.104,0-2,0.895-2,1.999
			v6h4v-6C42,44.895,41.104,44,40,44z"/>
	</g>
</g>
<g>
</g>
<g>
</g>
<g>
</g>
<g>
</g>
<g>
</g>
<g>
</g>
<g>
</g>
<g>
</g>
<g>
</g>
<g>
</g>
<g>
</g>
<g>
</g>
<g>
</g>
<g>
</g>
<g>
</g>
</svg>
