<?xml version="1.0" encoding="iso-8859-1"?>
<!-- Generator: Adobe Illustrator 16.0.0, SVG Export Plug-In . SVG Version: 6.00 Build 0)  -->
<!DOCTYPE svg PUBLIC "-//W3C//DTD SVG 1.1//EN" "http://www.w3.org/Graphics/SVG/1.1/DTD/svg11.dtd">
<svg version="1.1" id="Layer_1" xmlns="http://www.w3.org/2000/svg" xmlns:xlink="http://www.w3.org/1999/xlink" x="0px" y="0px"
	 width="64.015px" height="64.015px" viewBox="0 0 64.015 64.015" style="enable-background:new 0 0 64.015 64.015;"
	 xml:space="preserve">
<g id="Ruler_1_">
	<g>
		<path style="fill-rule:evenodd;clip-rule:evenodd;fill:#FFCC66;" d="M62.827,18.695L45.32,1.187c-1.584-1.582-4.151-1.582-5.734,0
			L1.188,39.586c-1.584,1.584-1.584,4.151,0,5.734l17.507,17.507c1.583,1.584,4.15,1.584,5.733,0l38.399-38.398
			C64.41,22.846,64.41,20.278,62.827,18.695z M46.016,22.016c-2.209,0-4-1.79-4-4c0-2.208,1.791-3.999,4-3.999s4,1.791,4,3.999
			C50.016,20.226,48.225,22.016,46.016,22.016z"/>
	</g>
</g>
<g id="Grid_2_">
	<g>
		<path style="fill:#CCA352;" d="M6.744,34.029l-2.715,2.716l6.701,6.701c0.75,0.75,1.966,0.75,2.716,0s0.75-1.965,0-2.715
			L6.744,34.029z M18.744,22.029l-2.715,2.716l2.701,2.701c0.75,0.75,1.966,0.75,2.716,0c0.749-0.749,0.749-1.965,0-2.715
			L18.744,22.029z M12.744,28.029l-2.715,2.716l2.701,2.701c0.75,0.75,1.966,0.75,2.715,0c0.75-0.75,0.75-1.965,0-2.715
			L12.744,28.029z M24.744,16.029l-2.715,2.716l6.701,6.702c0.75,0.749,1.966,0.749,2.716,0c0.75-0.75,0.75-1.966,0-2.716
			L24.744,16.029z M39.446,6.731l-2.702-2.702l-2.715,2.716l2.701,2.701c0.75,0.75,1.966,0.75,2.716,0
			C40.195,8.697,40.195,7.481,39.446,6.731z M30.744,10.029l-2.715,2.716l2.701,2.701c0.75,0.75,1.966,0.75,2.715,0
			c0.75-0.75,0.75-1.965,0-2.715L30.744,10.029z"/>
	</g>
</g>
<g>
</g>
<g>
</g>
<g>
</g>
<g>
</g>
<g>
</g>
<g>
</g>
<g>
</g>
<g>
</g>
<g>
</g>
<g>
</g>
<g>
</g>
<g>
</g>
<g>
</g>
<g>
</g>
<g>
</g>
</svg>
