<?xml version="1.0" encoding="iso-8859-1"?>
<!-- Generator: Adobe Illustrator 16.0.0, SVG Export Plug-In . SVG Version: 6.00 Build 0)  -->
<!DOCTYPE svg PUBLIC "-//W3C//DTD SVG 1.1//EN" "http://www.w3.org/Graphics/SVG/1.1/DTD/svg11.dtd">
<svg version="1.1" id="Layer_1" xmlns="http://www.w3.org/2000/svg" xmlns:xlink="http://www.w3.org/1999/xlink" x="0px" y="0px"
	 width="64px" height="64px" viewBox="0 0 64 64" style="enable-background:new 0 0 64 64;" xml:space="preserve">
<g id="Ruler">
	<g>
		<path style="fill:#FFCC66;" d="M60,36H28V4.001C28,1.792,26.209,0,24,0H4C1.791,0,0,1.792,0,4.001v56C0,62.21,1.791,64,4,64h56
			c2.209,0,4-1.79,4-3.999V40C64,37.791,62.209,36,60,36z"/>
	</g>
</g>
<g id="Grid_1_">
	<g>
		<path style="fill:#CCA352;" d="M6,56.001H0v4h4V64h4v-6C8,56.896,7.104,56.001,6,56.001z M6,48H0v4.001h6c1.104,0,2-0.896,2-2.001
			S7.104,48,6,48z M8,34.001C8,32.896,7.104,32,6,32H0v4h6C7.104,36,8,35.105,8,34.001z M8,26c0-1.104-0.896-1.999-2-1.999H0V28h6
			C7.104,28,8,27.104,8,26z M8,10c0-1.104-0.896-1.999-2-1.999H0v4h6C7.104,12.001,8,11.105,8,10z M10,40H0v4h10
			c1.104,0,2-0.895,2-1.999C12,40.896,11.104,40,10,40z M12,18c0-1.104-0.896-1.999-2-1.999H0v4h10C11.104,20.001,12,19.105,12,18z
			 M46,52.001c-1.104,0-2,0.895-2,1.999v10h4V54C48,52.896,47.104,52.001,46,52.001z M38,56.001c-1.104,0-2,0.896-2,1.999v6h4v-6
			C40,56.896,39.104,56.001,38,56.001z M54,56.001c-1.104,0-2,0.896-2,1.999v6h4v-6C56,56.896,55.104,56.001,54,56.001z M30,56.001
			c-1.104,0-2,0.896-2,1.999v6h4v-6C32,56.896,31.104,56.001,30,56.001z M22,52.001c-1.104,0-2,0.895-2,1.999v10h4V54
			C24,52.896,23.104,52.001,22,52.001z M14,56.001c-1.104,0-2,0.896-2,1.999v6h4v-6C16,56.896,15.104,56.001,14,56.001z"/>
	</g>
</g>
<g>
</g>
<g>
</g>
<g>
</g>
<g>
</g>
<g>
</g>
<g>
</g>
<g>
</g>
<g>
</g>
<g>
</g>
<g>
</g>
<g>
</g>
<g>
</g>
<g>
</g>
<g>
</g>
<g>
</g>
</svg>
