<?xml version="1.0" encoding="iso-8859-1"?>
<!-- Generator: Adobe Illustrator 16.0.0, SVG Export Plug-In . SVG Version: 6.00 Build 0)  -->
<!DOCTYPE svg PUBLIC "-//W3C//DTD SVG 1.1//EN" "http://www.w3.org/Graphics/SVG/1.1/DTD/svg11.dtd">
<svg version="1.1" id="Layer_1" xmlns="http://www.w3.org/2000/svg" xmlns:xlink="http://www.w3.org/1999/xlink" x="0px" y="0px"
	 width="52px" height="64px" viewBox="0 0 52 64" style="enable-background:new 0 0 52 64;" xml:space="preserve">
<g id="Cap">
	<g>
		<path style="fill-rule:evenodd;clip-rule:evenodd;fill:#48A0DC;" d="M26,0C11.641,0,0,3.134,0,7c0,3.187,0,34.999,0,34.999
			C0,43.104,0.896,44,2,44s2-0.896,2-2.001h44C48,43.104,48.896,44,50,44s2-0.896,2-2.001c0,0,0-31.134,0-34.999
			C52,3.134,40.359,0,26,0z"/>
	</g>
</g>
<g id="Base">
	<g>
		<path style="fill-rule:evenodd;clip-rule:evenodd;fill:#CCCCCC;" d="M4,60v2c0,1.104,0.896,2,2,2h40c1.104,0,2-0.896,2-2v-2H4z"/>
	</g>
</g>
<g id="Base_1_">
	<g>
		<path style="fill:#E6E6E6;" d="M46,30H6c-1.104,0-2,0.895-2,2v28h44V32C48,30.895,47.104,30,46,30z"/>
	</g>
</g>
<g id="Pad">
	<g>
		<path style="fill:#666666;" d="M42,34H10c-1.104,0-2,0.895-2,2v4c0,1.104,0.896,2,2,2h32c1.104,0,2-0.896,2-2v-4
			C44,34.895,43.104,34,42,34z"/>
	</g>
</g>
<g id="Label">
	<g>
		<path style="fill:#387BA8;" d="M26,0C11.641,0,0,3.134,0,7c0,0.559,0,2.008,0,3.999C0,7.134,11.641,6,26,6s26,1.134,26,4.999
			C52,9.084,52,7.65,52,7C52,3.134,40.359,0,26,0z"/>
	</g>
</g>
<g>
</g>
<g>
</g>
<g>
</g>
<g>
</g>
<g>
</g>
<g>
</g>
<g>
</g>
<g>
</g>
<g>
</g>
<g>
</g>
<g>
</g>
<g>
</g>
<g>
</g>
<g>
</g>
<g>
</g>
</svg>
