<?xml version="1.0" encoding="iso-8859-1"?>
<!-- Generator: Adobe Illustrator 16.0.0, SVG Export Plug-In . SVG Version: 6.00 Build 0)  -->
<!DOCTYPE svg PUBLIC "-//W3C//DTD SVG 1.1//EN" "http://www.w3.org/Graphics/SVG/1.1/DTD/svg11.dtd">
<svg version="1.1" id="Layer_1" xmlns="http://www.w3.org/2000/svg" xmlns:xlink="http://www.w3.org/1999/xlink" x="0px" y="0px"
	 width="56px" height="64px" viewBox="0 0 56 64" style="enable-background:new 0 0 56 64;" xml:space="preserve">
<g id="Handle">
	<g>
		<path style="fill:#E6B85C;" d="M40,12c0-6-4-12-12-12S16,6,16,11.937C16,16,18,20,20,22c4,4,4,8,4,12c0,6.124-4,10-4,10h16
			c0,0-4-3.876-4-10c0-4,0-8,4-12C38,20,40,16,40,12z"/>
	</g>
</g>
<g id="Plate">
	<g>
		<path style="fill:#FFCC66;" d="M52,44H4c-2.209,0-4,1.791-4,4v10c0,1.104,0.896,1.999,2,1.999h52c1.104,0,2-0.895,2-1.999V48
			C56,45.791,54.209,44,52,44z"/>
	</g>
</g>
<g id="Rubber">
	<g>
		<rect x="4" y="59.999" style="fill:#CCCCCC;" width="48" height="4.001"/>
	</g>
</g>
<g>
</g>
<g>
</g>
<g>
</g>
<g>
</g>
<g>
</g>
<g>
</g>
<g>
</g>
<g>
</g>
<g>
</g>
<g>
</g>
<g>
</g>
<g>
</g>
<g>
</g>
<g>
</g>
<g>
</g>
</svg>
