<?xml version="1.0" encoding="iso-8859-1"?>
<!-- Generator: Adobe Illustrator 16.0.0, SVG Export Plug-In . SVG Version: 6.00 Build 0)  -->
<!DOCTYPE svg PUBLIC "-//W3C//DTD SVG 1.1//EN" "http://www.w3.org/Graphics/SVG/1.1/DTD/svg11.dtd">
<svg version="1.1" id="Layer_1" xmlns="http://www.w3.org/2000/svg" xmlns:xlink="http://www.w3.org/1999/xlink" x="0px" y="0px"
	 width="64px" height="56px" viewBox="0 0 64 56" style="enable-background:new 0 0 64 56;" xml:space="preserve">
<g id="Feet">
	<g>
		<path style="fill:#CCCCCC;" d="M14,4c-2.388,0-5.686,3.287-7.332,6.134C3.9,14.917,4,17.208,4,20c2.214-3.826,8.166-4.209,12-2
			c0,0,12.375,7,14,8s4,2.238,4,5c0,2.174-1.396,4.004-3.333,4.693C30.513,35.884,30.297,36,30,36H12c-4.418,0-8-3.582-8-8
			c-2.209,0-4,4.477-4,10c0,3.286,0.643,6.177,1.622,8H20h40l4-14L14,4z"/>
	</g>
</g>
<g id="Caps">
	<g>
		<path style="fill-rule:evenodd;clip-rule:evenodd;fill:#88C057;" d="M2,48l8,8h8l6-6h32l2-8H6L2,48z M34,12l-2-8l-8-4L14,2v8
			l46,26l2-8L34,12z"/>
	</g>
</g>
<g id="Hinge">
	<g>
		<circle style="fill:#999999;" cx="44" cy="34" r="2"/>
	</g>
</g>
<g>
</g>
<g>
</g>
<g>
</g>
<g>
</g>
<g>
</g>
<g>
</g>
<g>
</g>
<g>
</g>
<g>
</g>
<g>
</g>
<g>
</g>
<g>
</g>
<g>
</g>
<g>
</g>
<g>
</g>
</svg>
