<?xml version="1.0" encoding="iso-8859-1"?>
<!-- Generator: Adobe Illustrator 16.0.0, SVG Export Plug-In . SVG Version: 6.00 Build 0)  -->
<!DOCTYPE svg PUBLIC "-//W3C//DTD SVG 1.1//EN" "http://www.w3.org/Graphics/SVG/1.1/DTD/svg11.dtd">
<svg version="1.1" id="Layer_1" xmlns="http://www.w3.org/2000/svg" xmlns:xlink="http://www.w3.org/1999/xlink" x="0px" y="0px"
	 width="64px" height="44px" viewBox="0 0 64 44" style="enable-background:new 0 0 64 44;" xml:space="preserve">
<g id="Foot_1_">
	<g>
		<path style="fill:#CCCCCC;" d="M62,34l-4-12H46l-4,12H6c-3.314,0-6,2.687-6,6v4h60c2.209,0,4-1.791,4-4v-6H62z"/>
	</g>
</g>
<g id="Case">
	<g>
		<polygon style="fill:#CCCCCC;" points="8.018,17.985 8,26 40,26 40,18 		"/>
	</g>
</g>
<g id="Cap_1_">
	<g>
		<path style="fill:#48A0DC;" d="M14,0C7.082,0,0,5.872,0,17.987c0,0,35.742,4.012,40,4.012C40,28.627,45.372,34,52,34
			c6.627,0,12-5.373,12-12.001C64,6,39.561,0,14,0z"/>
	</g>
</g>
<g id="Hinge_1_">
	<g>
		<circle style="fill:#FFFFFF;" cx="52" cy="22" r="4"/>
	</g>
</g>
<g>
</g>
<g>
</g>
<g>
</g>
<g>
</g>
<g>
</g>
<g>
</g>
<g>
</g>
<g>
</g>
<g>
</g>
<g>
</g>
<g>
</g>
<g>
</g>
<g>
</g>
<g>
</g>
<g>
</g>
</svg>
