<?xml version="1.0" encoding="iso-8859-1"?>
<!-- Generator: Adobe Illustrator 16.0.0, SVG Export Plug-In . SVG Version: 6.00 Build 0)  -->
<!DOCTYPE svg PUBLIC "-//W3C//DTD SVG 1.1//EN" "http://www.w3.org/Graphics/SVG/1.1/DTD/svg11.dtd">
<svg version="1.1" id="Layer_1" xmlns="http://www.w3.org/2000/svg" xmlns:xlink="http://www.w3.org/1999/xlink" x="0px" y="0px"
	 width="64px" height="56.003px" viewBox="0 0 64 56.003" style="enable-background:new 0 0 64 56.003;" xml:space="preserve">
<g id="Handle_4_">
	<g>
		<path style="fill:#CCCCCC;" d="M48.826,1.998c-1.104-1.91-3.551-2.565-5.464-1.462L10.453,19.516
			c-1.913,1.103-2.568,3.546-1.464,5.457S18.087,29.138,20,28.034L47.362,7.457C49.275,6.354,49.931,3.909,48.826,1.998z"/>
	</g>
</g>
<g id="Stapler">
	<g>
		<path style="fill-rule:evenodd;clip-rule:evenodd;fill:#999999;" d="M52,24.039H26l-12-7.991H4c-2.209,0-4,1.789-4,3.996v31.964
			c0,2.207,1.791,3.995,4,3.995h8h2h2h36h8c2.209,0,4-1.788,4-3.995v-7.991v-7.991C64,29.405,58.627,24.039,52,24.039z M50,42.019
			H28c-2.209,0-4-1.788-4-3.995s1.791-3.995,4-3.995h22c2.209,0,4,1.788,4,3.995S52.209,42.019,50,42.019z"/>
	</g>
</g>
<g id="Shade_2_">
	<g>
		<path style="fill:#666666;" d="M0,52.008c0.004,2.207,1.793,3.995,4,3.995h8h2h2h36h8c2.209,0,4-1.788,4-3.995H0z"/>
	</g>
</g>
<g id="Screws">
	<g>
		<path style="fill-rule:evenodd;clip-rule:evenodd;fill:#FFFFFF;" d="M8,28.034c1.104,0,2-0.894,2-1.997s-0.896-1.998-2-1.998
			s-2,0.895-2,1.998S6.896,28.034,8,28.034z M8,40.021c-1.104,0-2,0.896-2,1.998c0,1.104,0.896,1.998,2,1.998s2-0.895,2-1.998
			C10,40.916,9.104,40.021,8,40.021z"/>
	</g>
</g>
<g>
</g>
<g>
</g>
<g>
</g>
<g>
</g>
<g>
</g>
<g>
</g>
<g>
</g>
<g>
</g>
<g>
</g>
<g>
</g>
<g>
</g>
<g>
</g>
<g>
</g>
<g>
</g>
<g>
</g>
</svg>
