<?xml version="1.0" encoding="utf-8"?>
<!-- Generator: Adobe Illustrator 18.0.0, SVG Export Plug-In . SVG Version: 6.00 Build 0)  -->
<!DOCTYPE svg PUBLIC "-//W3C//DTD SVG 1.1//EN" "http://www.w3.org/Graphics/SVG/1.1/DTD/svg11.dtd">
<svg version="1.1" xmlns="http://www.w3.org/2000/svg" xmlns:xlink="http://www.w3.org/1999/xlink" x="0px" y="0px"
	 viewBox="0 0 40 40" enable-background="new 0 0 40 40" xml:space="preserve">
<g id="Office">
	<g id="Drive_Lock_6_">
	</g>
	<g id="Drive_Down_6_">
	</g>
	<g id="Drive_Up_6_">
	</g>
	<g id="Drive_4_">
	</g>
	<g id="Screwdriver_3_">
	</g>
	<g id="Wrench_2_">
	</g>
	<g id="Flag_4_">
	</g>
	<g id="Whistle_4_">
	</g>
	<g id="Eye_Off_8_">
	</g>
	<g id="Eye">
	</g>
	<g id="Wand_4_">
	</g>
	<g id="Swatches">
	</g>
	<g id="Crop_6_">
	</g>
	<g id="Adjust_3_">
	</g>
	<g id="Picker">
	</g>
	<g id="Vector_5_">
	</g>
	<g id="Layer_Lock_6_">
	</g>
	<g id="Layer_Minus_6_">
	</g>
	<g id="Layer_Plus_6_">
	</g>
	<g id="Layer_4_">
	</g>
	<g id="File_Export_6_">
	</g>
	<g id="File_Import_6_">
	</g>
	<g id="File_4_">
	</g>
	<g id="Note_Flag_5_">
	</g>
	<g id="Note_Lock_5_">
	</g>
	<g id="Note_Minus_5_">
	</g>
	<g id="Note_Plus_5_">
	</g>
	<g id="Note_3_">
	</g>
	<g id="Folder_Flag_5_">
	</g>
	<g id="Folder_Lock_5_">
	</g>
	<g id="Folder_Minus_5_">
	</g>
	<g id="Folder_Plus_5_">
	</g>
	<g id="Folder_3_">
	</g>
	<g id="Magnet_3_">
	</g>
	<g id="Versions_6_">
	</g>
	<g id="Inbox_Down_5_">
	</g>
	<g id="Inbox_Up_5_">
	</g>
	<g id="Inbox_3_">
	</g>
	<g id="Email_Lock_5_">
	</g>
	<g id="Email_Star_5_">
	</g>
	<g id="Email_Flag">
	</g>
	<g id="Email_Ban_5_">
	</g>
	<g id="Email_Plus_5_">
	</g>
	<g id="Email_Minus_5_">
	</g>
	<g id="Email_Contact_5_">
	</g>
	<g id="Email_3_">
	</g>
	<g id="Bulb_4_">
	</g>
	<g id="Shield_4_">
	</g>
	<g id="Key_3_">
	</g>
	<g id="Heat_4_">
	</g>
	<g id="Calendar_6_">
	</g>
	<g id="Briefcase">
	</g>
	<g id="Messenger_Bag">
	</g>
	<g id="Suitcase_5_">
	</g>
	<g id="Trophy_4_">
	</g>
	<g id="Bookmark">
	</g>
	<g id="Book_03">
	</g>
	<g id="Book_02">
	</g>
	<g id="Book_01">
	</g>
	<g id="Timer_8_">
		<g id="Timer">
			<g>
				<path fill-rule="evenodd" clip-rule="evenodd" fill="#E74C3C" d="M20.1,10c-6.6,0-12,5.4-12,12c0,6.6,5.4,12,12,12
					c6.6,0,12-5.4,12-12C32.1,15.4,26.7,10,20.1,10z"/>
			</g>
		</g>
		<g id="Timer_1_">
			<g>
				<rect x="18.1" y="7" fill-rule="evenodd" clip-rule="evenodd" fill="#16A085" width="4" height="3"/>
			</g>
		</g>
		<g id="Timer_2_">
			<g>
				<rect x="17.1" y="5" fill-rule="evenodd" clip-rule="evenodd" fill="#1ABC9C" width="6" height="3"/>
			</g>
		</g>
		<g id="Timer_3_">
			<g>
				<polygon fill-rule="evenodd" clip-rule="evenodd" fill="#16A085" points="10.7,10.6 8.6,12.7 11,15 13.1,12.9 				"/>
			</g>
		</g>
		<g id="Timer_4_">
			<g>
				<polygon fill-rule="evenodd" clip-rule="evenodd" fill="#1ABC9C" points="10.2,9 7.1,12.1 8.6,13.7 11.8,10.6 				"/>
			</g>
		</g>
		<g id="Timer_5_">
			<g>
				<path fill-rule="evenodd" clip-rule="evenodd" fill="#C0392B" d="M20,9C12.9,9,7.1,14.8,7.1,22c0,7.2,5.8,13,12.9,13
					c7.1,0,12.9-5.8,12.9-13C32.9,14.8,27.1,9,20,9z M20.1,33c-6.1,0-11-4.9-11-11c0-6.1,4.9-11,11-11c6.1,0,11,4.9,11,11
					C31.1,28.1,26.1,33,20.1,33z"/>
			</g>
		</g>
		<path fill="#ECF0F1" d="M20.5,19.6V14h-1v5.6c-1.1,0.2-2,1.2-2,2.4c0,1.4,1.1,2.5,2.5,2.5s2.5-1.1,2.5-2.5
			C22.5,20.8,21.6,19.8,20.5,19.6z M20,23c-0.6,0-1-0.4-1-1s0.4-1,1-1s1,0.4,1,1S20.6,23,20,23z"/>
	</g>
	<g id="Alarm_10_">
	</g>
	<g id="Clock_6_">
	</g>
	<g id="Albums_5_">
	</g>
	<g id="Plane_4_">
	</g>
	<g id="Pin_Flag_4_">
	</g>
	<g id="Tack">
	</g>
	<g id="Paper_Clip">
	</g>
	<g id="Pencil_4_">
	</g>
	<g id="Lead_Pencil_3_">
	</g>
	<g id="Sharpie_6_">
	</g>
	<g id="Piechart_4_">
	</g>
	<g id="Bargraph_6_">
	</g>
</g>
<g id="Lockup">
</g>
</svg>
