<?xml version="1.0" encoding="iso-8859-1"?>
<!-- Generator: Adobe Illustrator 16.0.0, SVG Export Plug-In . SVG Version: 6.00 Build 0)  -->
<!DOCTYPE svg PUBLIC "-//W3C//DTD SVG 1.1//EN" "http://www.w3.org/Graphics/SVG/1.1/DTD/svg11.dtd">
<svg version="1.1" id="Layer_1" xmlns="http://www.w3.org/2000/svg" xmlns:xlink="http://www.w3.org/1999/xlink" x="0px" y="0px"
	 width="56px" height="56px" viewBox="0 0 56 56" style="enable-background:new 0 0 56 56;" xml:space="preserve">
<g id="Net_1_">
	<g>
		<path style="fill-rule:evenodd;clip-rule:evenodd;fill:#CCCCCC;" d="M52,4h-2H6H4H2l8,48h2h2h28h2h2l8-48H52z M18,32.001
			c-1.104,0-2-0.896-2-2.001s0.896-2,2-2s2,0.896,2,2S19.104,32.001,18,32.001z M20,38c0,1.104-0.896,2-2,2s-2-0.896-2-2
			s0.896-2,2-2S20,36.896,20,38z M42,24.001c-1.104,0-2-0.896-2-2.001c0-1.104,0.896-1.999,2-1.999s2,0.896,2,1.999
			C44,23.104,43.104,24.001,42,24.001z M44,30c0,1.104-0.896,2.001-2,2.001S40,31.104,40,30s0.896-2,2-2S44,28.896,44,30z
			 M38,20.001c-1.104,0-2-0.896-2-2.001s0.896-2,2-2s2,0.896,2,2S39.104,20.001,38,20.001z M38,24.001c1.104,0,2,0.895,2,2
			C40,27.105,39.104,28,38,28s-2-0.895-2-1.999C36,24.896,36.896,24.001,38,24.001z M34,24.001c-1.104,0-2-0.896-2-2.001
			c0-1.104,0.896-1.999,2-1.999s2,0.896,2,1.999C36,23.104,35.104,24.001,34,24.001z M30,20.001c-1.104,0-2-0.896-2-2.001
			s0.896-2,2-2s2,0.896,2,2S31.104,20.001,30,20.001z M30,24.001c1.104,0,2,0.895,2,2C32,27.105,31.104,28,30,28s-2-0.895-2-1.999
			C28,24.896,28.896,24.001,30,24.001z M26,24.001c-1.104,0-2-0.896-2-2.001c0-1.104,0.896-1.999,2-1.999s2,0.896,2,1.999
			C28,23.104,27.104,24.001,26,24.001z M22,20.001c-1.104,0-2-0.896-2-2.001s0.896-2,2-2s2,0.896,2,2S23.104,20.001,22,20.001z
			 M22,24.001c1.104,0,2,0.895,2,2C24,27.105,23.104,28,22,28s-2-0.895-2-1.999C20,24.896,20.896,24.001,22,24.001z M18,24.001
			c-1.104,0-2-0.896-2-2.001c0-1.104,0.896-1.999,2-1.999s2,0.896,2,1.999C20,23.104,19.104,24.001,18,24.001z M14,20.001
			c-1.104,0-2-0.896-2-2.001s0.896-2,2-2s2,0.896,2,2S15.104,20.001,14,20.001z M14,24.001c1.104,0,2,0.895,2,2
			C16,27.105,15.104,28,14,28s-2-0.895-2-1.999C12,24.896,12.896,24.001,14,24.001z M22,32.001c1.104,0,2,0.895,2,1.999
			s-0.896,2-2,2s-2-0.896-2-2S20.896,32.001,22,32.001z M26,36c1.104,0,2,0.896,2,2s-0.896,2-2,2s-2-0.896-2-2S24.896,36,26,36z
			 M26,32.001c-1.104,0-2-0.896-2-2.001s0.896-2,2-2s2,0.896,2,2S27.104,32.001,26,32.001z M30,32.001c1.104,0,2,0.895,2,1.999
			s-0.896,2-2,2s-2-0.896-2-2S28.896,32.001,30,32.001z M34,36c1.104,0,2,0.896,2,2s-0.896,2-2,2s-2-0.896-2-2S32.896,36,34,36z
			 M34,32.001c-1.104,0-2-0.896-2-2.001s0.896-2,2-2s2,0.896,2,2S35.104,32.001,34,32.001z M38,32.001c1.104,0,2,0.895,2,1.999
			s-0.896,2-2,2s-2-0.896-2-2S36.896,32.001,38,32.001z M42,36c1.104,0,2,0.896,2,2s-0.896,2-2,2s-2-0.896-2-2S40.896,36,42,36z
			 M44,34c0-0.861,0.548-1.589,1.312-1.87l-0.569,3.414C44.293,35.177,44,34.625,44,34z M44,26.001c0-1.105,0.896-2,2-2
			c0.228,0,0.443,0.046,0.647,0.116L46,28C44.896,28,44,27.105,44,26.001z M47.435,19.39c-0.364,0.376-0.871,0.611-1.435,0.611
			c-1.104,0-2-0.896-2-2.001s0.896-2,2-2c0.802,0,1.488,0.475,1.807,1.156L47.435,19.39z M48.192,14.844
			C48.072,14.587,48,14.304,48,14.001c0-0.541,0.216-1.029,0.565-1.39L48.192,14.844z M46,8c1.104,0,2,0.896,2,2
			c0,1.105-0.896,2-2,2s-2-0.895-2-2C44,8.896,44.896,8,46,8z M42,12c1.104,0,2,0.896,2,2.001C44,15.104,43.104,16,42,16
			s-2-0.896-2-1.999C40,12.896,40.896,12,42,12z M38,8c1.104,0,2,0.896,2,2c0,1.105-0.896,2-2,2s-2-0.895-2-2
			C36,8.896,36.896,8,38,8z M34,12c1.104,0,2,0.896,2,2.001C36,15.104,35.104,16,34,16s-2-0.896-2-1.999C32,12.896,32.896,12,34,12z
			 M30,8c1.104,0,2,0.896,2,2c0,1.105-0.896,2-2,2s-2-0.895-2-2C28,8.896,28.896,8,30,8z M26,12c1.104,0,2,0.896,2,2.001
			C28,15.104,27.104,16,26,16s-2-0.896-2-1.999C24,12.896,24.896,12,26,12z M22,8c1.104,0,2,0.896,2,2c0,1.105-0.896,2-2,2
			s-2-0.895-2-2C20,8.896,20.896,8,22,8z M18,12c1.104,0,2,0.896,2,2.001C20,15.104,19.104,16,18,16s-2-0.896-2-1.999
			C16,12.896,16.896,12,18,12z M14,8c1.104,0,2,0.896,2,2c0,1.105-0.896,2-2,2s-2-0.895-2-2C12,8.896,12.896,8,14,8z M6.688,8.129
			C7.452,8.41,8,9.139,8,10c0,0.626-0.293,1.178-0.743,1.544L6.688,8.129z M8,14.001C8,12.896,8.896,12,10,12s2,0.896,2,2.001
			C12,15.104,11.104,16,10,16S8,15.104,8,14.001z M9.312,23.872l-0.569-3.415c0.345-0.28,0.778-0.456,1.257-0.456
			c1.104,0,2,0.896,2,1.999c0,1.104-0.896,2.001-2,2.001C9.757,24.001,9.527,23.951,9.312,23.872z M10.647,31.885L10,28
			c1.104,0,2,0.896,2,2C12,30.877,11.432,31.614,10.647,31.885z M11.807,38.844l-0.372-2.232C11.784,36.972,12,37.46,12,38
			C12,38.303,11.928,38.587,11.807,38.844z M14,32.001c1.104,0,2,0.895,2,1.999s-0.896,2-2,2s-2-0.896-2-2S12.896,32.001,14,32.001z
			 M14,44.001c-0.564,0-1.071-0.235-1.435-0.611l-0.372-2.233C12.512,40.475,13.198,40,14,40c1.104,0,2,0.896,2,2.001
			C16,43.104,15.104,44.001,14,44.001z M18,48c-1.104,0-2-0.895-2-1.999c0-1.105,0.896-2,2-2s2,0.895,2,2C20,47.105,19.104,48,18,48
			z M22,44.001c-1.104,0-2-0.896-2-2C20,40.896,20.896,40,22,40s2,0.896,2,2.001C24,43.104,23.104,44.001,22,44.001z M26,48
			c-1.104,0-2-0.895-2-1.999c0-1.105,0.896-2,2-2s2,0.895,2,2C28,47.105,27.104,48,26,48z M30,44.001c-1.104,0-2-0.896-2-2
			C28,40.896,28.896,40,30,40s2,0.896,2,2.001C32,43.104,31.104,44.001,30,44.001z M34,48c-1.104,0-2-0.895-2-1.999
			c0-1.105,0.896-2,2-2s2,0.895,2,2C36,47.105,35.104,48,34,48z M38,44.001c-1.104,0-2-0.896-2-2C36,40.896,36.896,40,38,40
			s2,0.896,2,2.001C40,43.104,39.104,44.001,38,44.001z M42,48c-1.104,0-2-0.895-2-1.999c0-1.105,0.896-2,2-2
			c0.479,0,0.913,0.175,1.257,0.456l-0.569,3.414C42.473,47.95,42.243,48,42,48z"/>
	</g>
</g>
<g id="Margin_1_">
	<g>
		<path style="fill-rule:evenodd;clip-rule:evenodd;fill:#999999;" d="M52,0H4C1.791,0,0,1.791,0,3.999c0,2.21,1.791,4,4,4h48
			c2.209,0,4-1.79,4-4C56,1.791,54.209,0,52,0z M44,48H12c-2.209,0-4,1.791-4,3.999C8,54.209,9.791,56,12,56h32
			c2.209,0,4-1.791,4-4.001C48,49.791,46.209,48,44,48z"/>
	</g>
</g>
<g>
</g>
<g>
</g>
<g>
</g>
<g>
</g>
<g>
</g>
<g>
</g>
<g>
</g>
<g>
</g>
<g>
</g>
<g>
</g>
<g>
</g>
<g>
</g>
<g>
</g>
<g>
</g>
<g>
</g>
</svg>
