<?xml version="1.0" encoding="iso-8859-1"?>
<!-- Generator: Adobe Illustrator 16.0.0, SVG Export Plug-In . SVG Version: 6.00 Build 0)  -->
<!DOCTYPE svg PUBLIC "-//W3C//DTD SVG 1.1//EN" "http://www.w3.org/Graphics/SVG/1.1/DTD/svg11.dtd">
<svg version="1.1" id="Layer_1" xmlns="http://www.w3.org/2000/svg" xmlns:xlink="http://www.w3.org/1999/xlink" x="0px" y="0px"
	 width="56px" height="64.005px" viewBox="0 0 56 64.005" style="enable-background:new 0 0 56 64.005;" xml:space="preserve">
<g id="Trash">
	<g>
		<path style="fill-rule:evenodd;clip-rule:evenodd;fill:#48A0DC;" d="M42.928,24.646l4.125,1.893l1.161-8.986l-2.592,0.313
			l1.121-9.837l-4.238,4.077l-9.134,10.508l2.924,4.347l-0.952,0.195l1.442,2.953l0.2,2.474l1.57,1.866l0.849,4.685l-1.388,0.616
			l-1.113,9.355l6.133-3.985l-0.889-3.108l2.017,0.178l1.43-7.7l-2.84-3.599l-0.02-1.568l-3.035-2.642l3.114-2.782L42.928,24.646z
			 M41.188,6.472L38.39,1.406L34.693,4.77l0.876,10.262L41.188,6.472z M33.49,10.841l-6.376,5.404l-0.433,2.827l-0.978-0.124
			l0.74,1.677l-0.257,1.679l1.337,1.72l-0.354,1.323l2.669,0.994l1.74-6.648l-0.499-0.063l1.935-4.375L33.49,10.841z M28.727,5.514
			l-7.025-2.035l-3.062,7.593l8.215,6.697L28.727,5.514z M32.573,47.514L27.34,51.17l2.811-13.13l-2.262-1.398l1.586-1l0.616-2.322
			l0.892,0.188l-0.539-1.52l0.394-1.484l-1.135-1.721l0.458-1.237l-2.567-1.229l-2.013,6.048l0.462,0.098l-1.913,3.5l-0.507,3.368
			l0.148-0.094l-1.325,3.288l-0.606-6.591l-3.534,4.491l-0.118-1.605l-2.033,1.819l-1.102-2.385l0.716-0.573l8.204-8.104
			l-2.08-3.297l0.126-0.039l-1.929-2.912l-0.646-2.688l-4.542-4.396l-0.448,0.134l1.257-9.187l-2.585,4.452l-0.928-6.771
			L5.744,8.572l1.44,1.572H6.006l1.44,9.865l6.5,5.736l2.254,0.541l-1.385,1.158L14.6,26.57l-4.375-2.301l0.093,8.357l2.238-0.046
			l-0.109,5.343h-1.979l1.067,7.43l3.998,3.13l-1.131,1.564l1.132,1.551l-0.398,0.098l1.436,5.311l3.339,1.854l3.175-0.818
			l-1.588-2.013l-0.52-1.85l-3.719-3.005l-0.371,0.091l0.277-1.535l3.54,0.745l-1.971-4.264l-0.166-2.258l1.01,1.481l2.301-1.498
			l-1.503,3.731l6.741,4.544l0.172-0.804l-0.316,1.695l-0.809-0.085l0.61,1.149l-0.215,1.153l1.107,1.186l-0.294,0.915l2.221,0.688
			l1.433-4.581l-0.413-0.043l1.587-2.986L32.573,47.514z M12.333,13.016l-0.205-0.49l0.614-0.214L12.333,13.016z M43.42,45.62
			l-3.431,2.746l-7.472,7.169l3.429,4.202l5.655-4.243l1.989,0.754l0.823-6.182l-1.543,0.154L43.42,45.62z"/>
	</g>
</g>
<g id="Trash_3_">
	<g>
		<path style="fill-rule:evenodd;clip-rule:evenodd;fill:#999999;" d="M46.968,18.628l-0.32-0.026l3.36-5.474l-5.005-2.217
			l0.211-6.142l-7.832-0.246l2.363,9.919l-2.052,4.537l-0.026-4.059l-3.409,4.02l-0.035-0.025L38.08,0L26.607,8.165l0.049,1.888
			l-1.68-2.979L23.16,2.414l-2.242,2.232l3.273,15.512l-0.979,0.139l-1.38-2.421l-5.178-5.988l0.398-0.03l2.252-5.006l-7.103-1.979
			l0.997,7.279l1.368-0.104l-0.746,4.197l6.953,8.889l-1.087,0.429l0.162,6.045l-3.979-2.713l-0.054-0.151l3.341,0.479l-0.91-5.102
			l-2.878-0.595l-0.966-5.436L9.71,9.795l-2.578,0.35l5.656,13.525L9.18,24.16l2.044,7.811l0.36,0.061L9.48,35.973l4.155,1.867
			l0.28,4.923l4.602,0.516l0.368,5.011l3.175-0.388l0.728-2.517l2.119,8.464l-0.81,0.095l-1.131-1.656l-5.614-5.4l-0.989,4.288
			l6.659,7.142l3.112-0.339l2.242,0.747l1.103-1.461l2.005,2.741l4.685-1.895l-0.138-7.836l-2.792,2.74l-0.019-0.012l1.012-3.29
			l0.071,0.637l0.909-1.152l2.392,1.321l-1.228-0.084l1.85,5.097l-1.563-0.067l0.671,3.532l2.965,0.271l0.931-2.59l1.562-0.293
			l-1.044-5.583l-1.448-0.099l0.381-0.55l1.286,0.047l0.048-1.966l2.746-3.954l-6.878-2.549l-0.13,0.255l0.266-2.237l-0.73,0.028
			l0.243-0.791l1.771,2.412l2.058-4.679l-5.579-9.43l1.96-0.948l-0.044-6.986l3.886,2.553l0.226,0.781l-3.44-0.179l0.759,5.107
			l3.274,0.358l-1.005,0.636l-0.213,6.563l2.482,6.693l2.226-0.057l-2.539-14.013l4.737-1.063L46.968,18.628z M25.59,44.98
			l-1.469-3.11l-0.412,0.333l0.241-0.834l-4.894-2.167l-0.832-2.763l1.653-3.741l0.084,3.155l3.105-3.065l0.791,0.617l0.273,2.557
			l3.763-6.886l1.496,3.639l0.609-0.024l-1.088,1.815l-0.628,3.769l1.297,2.431L27.933,48.4L25.59,44.98z M27.256,26.776
			l0.738,0.295l-0.344,0.463L27.256,26.776z M29.349,25.685l0.357-0.567l0.664,1.094L29.349,25.685z M29.184,56.172l-1.543-2.643
			l-0.535,0.063l0.688-1.272l3.171,0.5L29.184,56.172z M29.353,23.537l-1.861-3.845l-0.646,0.091l0.831-1.858l3.836,0.73
			L29.353,23.537z M32.931,36.839l-0.426-4.247l0.926-0.036l0.98,2.181l0.815,1.11L32.931,36.839z M42.759,27.748l0.266-0.852
			l0.167,0.577L42.759,27.748z M13.057,46.808l-2.12,0.236l5.521,11.34l1.364-0.961l-0.998-4.988L13.057,46.808z"/>
	</g>
</g>
<g id="Trash_2_">
	<g>
		<path style="fill-rule:evenodd;clip-rule:evenodd;fill:#FFFFFF;" d="M34,38.005l5.555,6.011l1.854-5.373l-7.256-11.547L34,38.005z
			 M16.148,38.203l-0.751,5.387l8.161,8.859l-3.277-13.092L16.148,38.203z M37.377,44.658l-6.324,7.186l1.465,3.691l7.472-7.169
			l-0.734-2.746L37.377,44.658z M20.918,4.646l-5.077-1.732l-0.827,8.043l9.975,12.981L20.918,4.646z M42.505,12.104l-0.847-4.077
			L39.38,6.592l-7.759,10.635l1.75,5.386L42.505,12.104z M29.975,29.577l-8.203,8.104l0.928,3.079l1.961,1.175l6.791-7.472
			L29.975,29.577z M24.6,27.338l0.797-2.573l-6.28-4.742l-4.749,3.085l6.514,6.104L24.6,27.338z"/>
	</g>
</g>
<g id="Net">
	<g>
		<path style="fill-rule:evenodd;clip-rule:evenodd;fill:#CCCCCC;" d="M52,12.005h-2H6H4H2l8,48h2h2h28h2h2l8-48H52z M18,40.006
			c-1.104,0-2-0.896-2-2.001s0.896-2,2-2s2,0.896,2,2S19.104,40.006,18,40.006z M20,46.005c0,1.104-0.896,2-2,2s-2-0.896-2-2
			s0.896-2,2-2S20,44.9,20,46.005z M42,32.006c-1.104,0-2-0.896-2-2.001c0-1.104,0.896-1.999,2-1.999s2,0.896,2,1.999
			C44,31.109,43.104,32.006,42,32.006z M44,38.005c0,1.104-0.896,2.001-2,2.001s-2-0.896-2-2.001s0.896-2,2-2S44,36.9,44,38.005z
			 M38,28.006c-1.104,0-2-0.896-2-2.001s0.896-2,2-2s2,0.896,2,2S39.104,28.006,38,28.006z M38,32.006c1.104,0,2,0.895,2,2
			c0,1.104-0.896,1.999-2,1.999s-2-0.895-2-1.999C36,32.9,36.896,32.006,38,32.006z M34,32.006c-1.104,0-2-0.896-2-2.001
			c0-1.104,0.896-1.999,2-1.999s2,0.896,2,1.999C36,31.109,35.104,32.006,34,32.006z M30,28.006c-1.104,0-2-0.896-2-2.001
			s0.896-2,2-2s2,0.896,2,2S31.104,28.006,30,28.006z M30,32.006c1.104,0,2,0.895,2,2c0,1.104-0.896,1.999-2,1.999s-2-0.895-2-1.999
			C28,32.9,28.896,32.006,30,32.006z M26,32.006c-1.104,0-2-0.896-2-2.001c0-1.104,0.896-1.999,2-1.999s2,0.896,2,1.999
			C28,31.109,27.104,32.006,26,32.006z M22,28.006c-1.104,0-2-0.896-2-2.001s0.896-2,2-2s2,0.896,2,2S23.104,28.006,22,28.006z
			 M22,32.006c1.104,0,2,0.895,2,2c0,1.104-0.896,1.999-2,1.999s-2-0.895-2-1.999C20,32.9,20.896,32.006,22,32.006z M18,32.006
			c-1.104,0-2-0.896-2-2.001c0-1.104,0.896-1.999,2-1.999s2,0.896,2,1.999C20,31.109,19.104,32.006,18,32.006z M14,28.006
			c-1.104,0-2-0.896-2-2.001s0.896-2,2-2s2,0.896,2,2S15.104,28.006,14,28.006z M14,32.006c1.104,0,2,0.895,2,2
			c0,1.104-0.896,1.999-2,1.999s-2-0.895-2-1.999C12,32.9,12.896,32.006,14,32.006z M22,40.006c1.104,0,2,0.895,2,1.999
			s-0.896,2-2,2s-2-0.896-2-2S20.896,40.006,22,40.006z M26,44.005c1.104,0,2,0.896,2,2s-0.896,2-2,2s-2-0.896-2-2
			S24.896,44.005,26,44.005z M26,40.006c-1.104,0-2-0.896-2-2.001s0.896-2,2-2s2,0.896,2,2S27.104,40.006,26,40.006z M30,40.006
			c1.104,0,2,0.895,2,1.999s-0.896,2-2,2s-2-0.896-2-2S28.896,40.006,30,40.006z M34,44.005c1.104,0,2,0.896,2,2s-0.896,2-2,2
			s-2-0.896-2-2S32.896,44.005,34,44.005z M34,40.006c-1.104,0-2-0.896-2-2.001s0.896-2,2-2s2,0.896,2,2S35.104,40.006,34,40.006z
			 M38,40.006c1.104,0,2,0.895,2,1.999s-0.896,2-2,2s-2-0.896-2-2S36.896,40.006,38,40.006z M42,44.005c1.104,0,2,0.896,2,2
			s-0.896,2-2,2s-2-0.896-2-2S40.896,44.005,42,44.005z M44,42.005c0-0.861,0.548-1.589,1.312-1.87l-0.569,3.414
			C44.293,43.182,44,42.63,44,42.005z M44,34.006c0-1.105,0.896-2,2-2c0.228,0,0.443,0.046,0.647,0.116L46,36.005
			C44.896,36.005,44,35.11,44,34.006z M47.435,27.395c-0.364,0.376-0.871,0.611-1.435,0.611c-1.104,0-2-0.896-2-2.001s0.896-2,2-2
			c0.802,0,1.488,0.475,1.807,1.156L47.435,27.395z M48.192,22.849C48.072,22.592,48,22.309,48,22.006
			c0-0.541,0.216-1.029,0.565-1.39L48.192,22.849z M46,16.005c1.104,0,2,0.896,2,2.001c0,1.104-0.896,1.999-2,1.999
			s-2-0.895-2-1.999C44,16.9,44.896,16.005,46,16.005z M42,20.005c1.104,0,2,0.896,2,2.001c0,1.104-0.896,1.999-2,1.999
			s-2-0.896-2-1.999C40,20.9,40.896,20.005,42,20.005z M38,16.005c1.104,0,2,0.896,2,2.001c0,1.104-0.896,1.999-2,1.999
			s-2-0.895-2-1.999C36,16.9,36.896,16.005,38,16.005z M34,20.005c1.104,0,2,0.896,2,2.001c0,1.104-0.896,1.999-2,1.999
			s-2-0.896-2-1.999C32,20.9,32.896,20.005,34,20.005z M30,16.005c1.104,0,2,0.896,2,2.001c0,1.104-0.896,1.999-2,1.999
			s-2-0.895-2-1.999C28,16.9,28.896,16.005,30,16.005z M26,20.005c1.104,0,2,0.896,2,2.001c0,1.104-0.896,1.999-2,1.999
			s-2-0.896-2-1.999C24,20.9,24.896,20.005,26,20.005z M22,16.005c1.104,0,2,0.896,2,2.001c0,1.104-0.896,1.999-2,1.999
			s-2-0.895-2-1.999C20,16.9,20.896,16.005,22,16.005z M18,20.005c1.104,0,2,0.896,2,2.001c0,1.104-0.896,1.999-2,1.999
			s-2-0.896-2-1.999C16,20.9,16.896,20.005,18,20.005z M14,16.005c1.104,0,2,0.896,2,2.001c0,1.104-0.896,1.999-2,1.999
			s-2-0.895-2-1.999C12,16.9,12.896,16.005,14,16.005z M6.688,16.134C7.452,16.415,8,17.144,8,18.006
			c0,0.625-0.293,1.177-0.743,1.543L6.688,16.134z M8,22.006c0-1.105,0.896-2.001,2-2.001s2,0.896,2,2.001
			c0,1.104-0.896,1.999-2,1.999S8,23.109,8,22.006z M9.312,31.877l-0.569-3.415c0.345-0.28,0.778-0.456,1.257-0.456
			c1.104,0,2,0.896,2,1.999c0,1.104-0.896,2.001-2,2.001C9.757,32.006,9.527,31.956,9.312,31.877z M10.647,39.89L10,36.005
			c1.104,0,2,0.896,2,2C12,38.882,11.432,39.619,10.647,39.89z M11.807,46.849l-0.372-2.232C11.784,44.977,12,45.465,12,46.005
			C12,46.308,11.928,46.592,11.807,46.849z M14,40.006c1.104,0,2,0.895,2,1.999s-0.896,2-2,2s-2-0.896-2-2S12.896,40.006,14,40.006z
			 M14,52.005c-0.564,0-1.072-0.235-1.435-0.611l-0.372-2.232c0.319-0.682,1.005-1.156,1.807-1.156c1.104,0,2,0.896,2,2.001
			C16,51.109,15.104,52.005,14,52.005z M18,56.005c-1.104,0-2-0.895-2-2c0-1.104,0.896-2,2-2s2,0.896,2,2
			C20,55.11,19.104,56.005,18,56.005z M22,52.005c-1.104,0-2-0.896-2-1.999c0-1.105,0.896-2.001,2-2.001s2,0.896,2,2.001
			C24,51.109,23.104,52.005,22,52.005z M26,56.005c-1.104,0-2-0.895-2-2c0-1.104,0.896-2,2-2s2,0.896,2,2
			C28,55.11,27.104,56.005,26,56.005z M30,52.005c-1.104,0-2-0.896-2-1.999c0-1.105,0.896-2.001,2-2.001s2,0.896,2,2.001
			C32,51.109,31.104,52.005,30,52.005z M34,56.005c-1.104,0-2-0.895-2-2c0-1.104,0.896-2,2-2s2,0.896,2,2
			C36,55.11,35.104,56.005,34,56.005z M38,52.005c-1.104,0-2-0.896-2-1.999c0-1.105,0.896-2.001,2-2.001s2,0.896,2,2.001
			C40,51.109,39.104,52.005,38,52.005z M42,56.005c-1.104,0-2-0.895-2-2c0-1.104,0.896-2,2-2c0.479,0,0.913,0.176,1.257,0.456
			l-0.569,3.415C42.473,55.955,42.243,56.005,42,56.005z"/>
	</g>
</g>
<g id="Margin">
	<g>
		<path style="fill-rule:evenodd;clip-rule:evenodd;fill:#999999;" d="M52,8.005H4c-2.209,0-4,1.791-4,4s1.791,3.999,4,3.999h48
			c2.209,0,4-1.79,4-3.999S54.209,8.005,52,8.005z M44,56.005H12c-2.21,0-4,1.791-4,3.999c0,2.21,1.79,4.001,4,4.001h32
			c2.209,0,4-1.791,4-4.001C48,57.796,46.209,56.005,44,56.005z"/>
	</g>
</g>
<g>
</g>
<g>
</g>
<g>
</g>
<g>
</g>
<g>
</g>
<g>
</g>
<g>
</g>
<g>
</g>
<g>
</g>
<g>
</g>
<g>
</g>
<g>
</g>
<g>
</g>
<g>
</g>
<g>
</g>
</svg>
