<?xml version="1.0" encoding="utf-8"?>
<!-- Generator: Adobe Illustrator 18.0.0, SVG Export Plug-In . SVG Version: 6.00 Build 0)  -->
<!DOCTYPE svg PUBLIC "-//W3C//DTD SVG 1.1//EN" "http://www.w3.org/Graphics/SVG/1.1/DTD/svg11.dtd">
<svg version="1.1" xmlns="http://www.w3.org/2000/svg" xmlns:xlink="http://www.w3.org/1999/xlink" x="0px" y="0px"
	 viewBox="0 0 40 40" enable-background="new 0 0 40 40" xml:space="preserve">
<g id="Office">
	<g id="Drive_Lock_6_">
	</g>
	<g id="Drive_Down_6_">
	</g>
	<g id="Drive_Up_6_">
	</g>
	<g id="Drive_4_">
	</g>
	<g id="Screwdriver_3_">
	</g>
	<g id="Wrench_2_">
	</g>
	<g id="Flag_4_">
	</g>
	<g id="Whistle_4_">
	</g>
	<g id="Eye_Off_8_">
	</g>
	<g id="Eye">
	</g>
	<g id="Wand_4_">
	</g>
	<g id="Swatches">
	</g>
	<g id="Crop_6_">
	</g>
	<g id="Adjust_3_">
	</g>
	<g id="Picker">
	</g>
	<g id="Vector_5_">
		<g>
			<g id="Vector_8_">
				<g>
					<path fill-rule="evenodd" clip-rule="evenodd" fill="#1ABC9C" d="M33.5,12c-1,0-1.9,0.6-2.3,1.5H23v-2h-6v2H8.8
						C8.4,12.6,7.5,12,6.5,12C5.1,12,4,13.1,4,14.5C4,15.9,5.1,17,6.5,17c1,0,1.9-0.6,2.3-1.5h5.1c-2.4,1.6-4.2,4.1-5,7H7v6h6v-6h-2
						c0.9-2.9,3.2-5.3,6-6.3v1.3h6v-1.3c2.9,1.1,5.1,3.4,6,6.3h-2v6h6v-6h-1.9c-0.8-2.9-2.6-5.4-5-7h5.1c0.4,0.9,1.3,1.5,2.3,1.5
						c1.4,0,2.5-1.1,2.5-2.5C36,13.1,34.9,12,33.5,12z"/>
				</g>
			</g>
			<g id="Vector_6_">
				<g>
					<rect x="17" y="11.5" fill-rule="evenodd" clip-rule="evenodd" fill="#16A085" width="6" height="6"/>
				</g>
			</g>
			<g id="Vector_3_">
				<g>
					<rect x="7" y="22.5" fill-rule="evenodd" clip-rule="evenodd" fill="#16A085" width="6" height="6"/>
				</g>
			</g>
			<g id="Vector_1_">
				<g>
					<rect x="27" y="22.5" fill-rule="evenodd" clip-rule="evenodd" fill="#16A085" width="6" height="6"/>
				</g>
			</g>
		</g>
	</g>
	<g id="Layer_Lock_6_">
	</g>
	<g id="Layer_Minus_6_">
	</g>
	<g id="Layer_Plus_6_">
	</g>
	<g id="Layer_4_">
	</g>
	<g id="File_Export_6_">
	</g>
	<g id="File_Import_6_">
	</g>
	<g id="File_4_">
	</g>
	<g id="Note_Flag_5_">
	</g>
	<g id="Note_Lock_5_">
	</g>
	<g id="Note_Minus_5_">
	</g>
	<g id="Note_Plus_5_">
	</g>
	<g id="Note_3_">
	</g>
	<g id="Folder_Flag_5_">
	</g>
	<g id="Folder_Lock_5_">
	</g>
	<g id="Folder_Minus_5_">
	</g>
	<g id="Folder_Plus_5_">
	</g>
	<g id="Folder_3_">
	</g>
	<g id="Magnet_3_">
	</g>
	<g id="Versions_6_">
	</g>
	<g id="Inbox_Down_5_">
	</g>
	<g id="Inbox_Up_5_">
	</g>
	<g id="Inbox_3_">
	</g>
	<g id="Email_Lock_5_">
	</g>
	<g id="Email_Star_5_">
	</g>
	<g id="Email_Flag">
	</g>
	<g id="Email_Ban_5_">
	</g>
	<g id="Email_Plus_5_">
	</g>
	<g id="Email_Minus_5_">
	</g>
	<g id="Email_Contact_5_">
	</g>
	<g id="Email_3_">
	</g>
	<g id="Bulb_4_">
	</g>
	<g id="Shield_4_">
	</g>
	<g id="Key_3_">
	</g>
	<g id="Heat_4_">
	</g>
	<g id="Calendar_6_">
	</g>
	<g id="Briefcase">
	</g>
	<g id="Messenger_Bag">
	</g>
	<g id="Suitcase_5_">
	</g>
	<g id="Trophy_4_">
	</g>
	<g id="Bookmark">
	</g>
	<g id="Book_03">
	</g>
	<g id="Book_02">
	</g>
	<g id="Book_01">
	</g>
	<g id="Timer_8_">
	</g>
	<g id="Alarm_10_">
	</g>
	<g id="Clock_6_">
	</g>
	<g id="Albums_5_">
	</g>
	<g id="Plane_4_">
	</g>
	<g id="Pin_Flag_4_">
	</g>
	<g id="Tack">
	</g>
	<g id="Paper_Clip">
	</g>
	<g id="Pencil_4_">
	</g>
	<g id="Lead_Pencil_3_">
	</g>
	<g id="Sharpie_6_">
	</g>
	<g id="Piechart_4_">
	</g>
	<g id="Bargraph_6_">
	</g>
</g>
<g id="Lockup">
</g>
</svg>
