<?xml version="1.0" encoding="iso-8859-1"?>
<!-- Generator: Adobe Illustrator 16.0.0, SVG Export Plug-In . SVG Version: 6.00 Build 0)  -->
<!DOCTYPE svg PUBLIC "-//W3C//DTD SVG 1.1//EN" "http://www.w3.org/Graphics/SVG/1.1/DTD/svg11.dtd">
<svg version="1.1" id="Layer_1" xmlns="http://www.w3.org/2000/svg" xmlns:xlink="http://www.w3.org/1999/xlink" x="0px" y="0px"
	 width="64px" height="52px" viewBox="0 0 64 52" style="enable-background:new 0 0 64 52;" xml:space="preserve">
<g id="Corners">
	<g>
		<path style="fill:#999999;" d="M0,48c0,2.209,1.791,4,4,4h4v-8H0V48z M0,4v4h8V0H4C1.791,0,0,1.791,0,4z M60,0h-4v8h8V4
			C64,1.791,62.209,0,60,0z M56,52h4c2.209,0,4-1.791,4-4v-4h-8V52z"/>
	</g>
</g>
<g id="Corners_1_">
	<g>
		<path style="fill-rule:evenodd;clip-rule:evenodd;fill:#CCCCCC;" d="M0,8v36h8V8H0z M56,8v36h8V8H56z M56,0H8v8h48V0z M8,52h48v-8
			H8V52z"/>
	</g>
</g>
<g id="Whiteboard">
	<g>
		<rect x="8" y="8" style="fill:#FFFFFF;" width="48" height="36"/>
	</g>
</g>
<g id="Eraser_1_">
	<g>
		<path style="fill:#48A0DC;" d="M27.355,35.445l-8.866-8.866c-0.815-0.816-2.139-0.816-2.955,0l-2.955,2.955
			c-0.816,0.816-0.816,2.14,0,2.956l8.866,8.865c0.815,0.816,2.139,0.816,2.955,0l2.955-2.955
			C28.172,37.584,28.172,36.261,27.355,35.445z"/>
	</g>
</g>
<g>
</g>
<g>
</g>
<g>
</g>
<g>
</g>
<g>
</g>
<g>
</g>
<g>
</g>
<g>
</g>
<g>
</g>
<g>
</g>
<g>
</g>
<g>
</g>
<g>
</g>
<g>
</g>
<g>
</g>
</svg>
