<?xml version="1.0" encoding="iso-8859-1"?>
<!-- Generator: Adobe Illustrator 16.0.0, SVG Export Plug-In . SVG Version: 6.00 Build 0)  -->
<!DOCTYPE svg PUBLIC "-//W3C//DTD SVG 1.1//EN" "http://www.w3.org/Graphics/SVG/1.1/DTD/svg11.dtd">
<svg version="1.1" id="Layer_1" xmlns="http://www.w3.org/2000/svg" xmlns:xlink="http://www.w3.org/1999/xlink" x="0px" y="0px"
	 width="64px" height="64.001px" viewBox="0 0 64 64.001" style="enable-background:new 0 0 64 64.001;" xml:space="preserve">
<g id="Elipse_16_">
	<g>
		<path style="fill-rule:evenodd;clip-rule:evenodd;fill:#CCCCCC;" d="M32,0C14.326,0,0,14.327,0,32.001c0,17.673,14.326,32,32,32
			c17.673,0,32-14.327,32-32C64,14.327,49.673,0,32,0z M32,60C16.536,60,4,47.465,4,32.001s12.536-28,28-28s28,12.536,28,28
			S47.464,60,32,60z"/>
	</g>
</g>
<g id="_x30_">
	<g>
		<path style="fill:#88C057;" d="M38.023,23.276c-1.332-2.177-3.34-3.265-6.023-3.265s-4.691,1.088-6.023,3.265
			s-1.999,5.083-1.999,8.719s0.667,6.542,1.999,8.719s3.34,3.266,6.023,3.266s4.691-1.089,6.023-3.266
			c1.333-2.177,1.999-5.083,1.999-8.719S39.356,25.453,38.023,23.276z M35.042,37.786c-0.65,1.467-1.664,2.2-3.042,2.2
			s-2.392-0.733-3.041-2.2c-0.649-1.466-0.975-3.401-0.975-5.807s0.325-4.341,0.975-5.807s1.663-2.198,3.041-2.198
			s2.392,0.732,3.042,2.198c0.649,1.466,0.974,3.401,0.974,5.807S35.691,36.32,35.042,37.786z"/>
	</g>
</g>
<g>
</g>
<g>
</g>
<g>
</g>
<g>
</g>
<g>
</g>
<g>
</g>
<g>
</g>
<g>
</g>
<g>
</g>
<g>
</g>
<g>
</g>
<g>
</g>
<g>
</g>
<g>
</g>
<g>
</g>
</svg>
