<?xml version="1.0" encoding="iso-8859-1"?>
<!-- Generator: Adobe Illustrator 16.0.0, SVG Export Plug-In . SVG Version: 6.00 Build 0)  -->
<!DOCTYPE svg PUBLIC "-//W3C//DTD SVG 1.1//EN" "http://www.w3.org/Graphics/SVG/1.1/DTD/svg11.dtd">
<svg version="1.1" id="Layer_1" xmlns="http://www.w3.org/2000/svg" xmlns:xlink="http://www.w3.org/1999/xlink" x="0px" y="0px"
	 width="64px" height="64.001px" viewBox="0 0 64 64.001" style="enable-background:new 0 0 64 64.001;" xml:space="preserve">
<g id="Elipse_24_">
	<g>
		<path style="fill-rule:evenodd;clip-rule:evenodd;fill:#CCCCCC;" d="M32,0C14.326,0,0,14.327,0,32.001c0,17.673,14.326,32,32,32
			c17.673,0,32-14.327,32-32C64,14.327,49.673,0,32,0z M32,60C16.536,60,4,47.465,4,32.001s12.536-28,28-28s28,12.536,28,28
			S47.464,60,32,60z"/>
	</g>
</g>
<g id="_x32_">
	<g>
		<path style="fill-rule:evenodd;clip-rule:evenodd;fill:#88C057;" d="M38,40.002h-7.111l5.911-5.601l-0.005-0.007
			C38.737,32.936,40,30.619,40,28.002c0-4.418-3.582-8-8-8s-8,3.582-8,8c0,1.104,0.896,2,2,2s2-0.896,2-2c0-2.209,1.791-4,4-4
			s4,1.791,4,4c0,1.078-0.738,2.408-1.846,3.231l0.005,0.008l-9.597,9.468c-0.357,0.356-0.538,0.819-0.556,1.286L24,42.002
			c0,0.011,0.003,0.021,0.003,0.031c-0.008,0.502,0.176,1.007,0.56,1.391c0.285,0.285,0.638,0.461,1.007,0.529
			c0.139,0.03,0.282,0.049,0.431,0.049h12c1.104,0,2-0.896,2-2S39.104,40.002,38,40.002z"/>
	</g>
</g>
<g>
</g>
<g>
</g>
<g>
</g>
<g>
</g>
<g>
</g>
<g>
</g>
<g>
</g>
<g>
</g>
<g>
</g>
<g>
</g>
<g>
</g>
<g>
</g>
<g>
</g>
<g>
</g>
<g>
</g>
</svg>
