<?xml version="1.0" encoding="iso-8859-1"?>
<!-- Generator: Adobe Illustrator 16.0.0, SVG Export Plug-In . SVG Version: 6.00 Build 0)  -->
<!DOCTYPE svg PUBLIC "-//W3C//DTD SVG 1.1//EN" "http://www.w3.org/Graphics/SVG/1.1/DTD/svg11.dtd">
<svg version="1.1" id="Layer_1" xmlns="http://www.w3.org/2000/svg" xmlns:xlink="http://www.w3.org/1999/xlink" x="0px" y="0px"
	 width="64px" height="64.001px" viewBox="0 0 64 64.001" style="enable-background:new 0 0 64 64.001;" xml:space="preserve">
<g id="Elipse_23_">
	<g>
		<path style="fill-rule:evenodd;clip-rule:evenodd;fill:#CCCCCC;" d="M32,0C14.327,0,0,14.327,0,32.001c0,17.673,14.327,32,32,32
			s32-14.327,32-32C64,14.327,49.673,0,32,0z M32,60C16.536,60,4,47.465,4,32.001s12.536-28,28-28s28,12.536,28,28S47.464,60,32,60z
			"/>
	</g>
</g>
<g id="_x33_">
	<g>
		<path style="fill-rule:evenodd;clip-rule:evenodd;fill:#88C057;" d="M40,22.002c0-0.011-0.003-0.021-0.003-0.031
			c0.008-0.502-0.176-1.007-0.56-1.391c-0.285-0.285-0.638-0.461-1.007-0.529c-0.139-0.03-0.282-0.049-0.431-0.049H26
			c-1.104,0-2,0.896-2,2s0.896,2,2,2h7.3l-4.724,4.724c-0.75,0.75-0.75,1.966,0,2.715c0.393,0.393,0.912,0.574,1.426,0.556
			L30,32.002h2c2.209,0,4,1.791,4,4s-1.791,4-4,4s-4-1.791-4-4c0-1.104-0.896-2-2-2s-2,0.896-2,2c0,4.418,3.582,8,8,8s8-3.582,8-8
			c0-3.592-2.368-6.631-5.627-7.642l4.645-4.646C39.603,23.366,40,22.733,40,22.002z"/>
	</g>
</g>
<g>
</g>
<g>
</g>
<g>
</g>
<g>
</g>
<g>
</g>
<g>
</g>
<g>
</g>
<g>
</g>
<g>
</g>
<g>
</g>
<g>
</g>
<g>
</g>
<g>
</g>
<g>
</g>
<g>
</g>
</svg>
