<?xml version="1.0" encoding="iso-8859-1"?>
<!-- Generator: Adobe Illustrator 16.0.0, SVG Export Plug-In . SVG Version: 6.00 Build 0)  -->
<!DOCTYPE svg PUBLIC "-//W3C//DTD SVG 1.1//EN" "http://www.w3.org/Graphics/SVG/1.1/DTD/svg11.dtd">
<svg version="1.1" id="Layer_1" xmlns="http://www.w3.org/2000/svg" xmlns:xlink="http://www.w3.org/1999/xlink" x="0px" y="0px"
	 width="64px" height="64.001px" viewBox="0 0 64 64.001" style="enable-background:new 0 0 64 64.001;" xml:space="preserve">
<g id="Elipse_22_">
	<g>
		<path style="fill-rule:evenodd;clip-rule:evenodd;fill:#CCCCCC;" d="M32,0C14.326,0,0,14.327,0,32.001c0,17.673,14.326,32,32,32
			c17.673,0,32-14.327,32-32C64,14.327,49.673,0,32,0z M32,60C16.536,60,4,47.465,4,32.001s12.536-28,28-28s28,12.536,28,28
			S47.464,60,32,60z"/>
	</g>
</g>
<g id="_x34_">
	<g>
		<path style="fill-rule:evenodd;clip-rule:evenodd;fill:#88C057;" d="M36,34.002v-2c0-1.104-0.896-2-2-2s-2,0.896-2,2v2h-4.557
			l6.29-10.97c0.552-0.964,0.225-2.194-0.732-2.751s-2.18-0.227-2.732,0.736l-8,13.954c-0.107,0.188-0.172,0.387-0.215,0.588
			c-0.005,0.022-0.011,0.044-0.015,0.066c-0.017,0.092-0.024,0.183-0.028,0.275C22.008,35.936,22,35.968,22,36.002
			c0,0.021,0.005,0.039,0.006,0.06c0.002,0.057,0.01,0.111,0.017,0.168c0.01,0.087,0.022,0.173,0.042,0.256
			c0.004,0.017,0.011,0.032,0.016,0.05c0.212,0.764,0.861,1.339,1.666,1.441c0.006,0.001,0.011,0.001,0.017,0.002
			c0.079,0.009,0.155,0.023,0.236,0.023h8v4c0,1.104,0.896,2,2,2s2-0.896,2-2v-4c1.104,0,2-0.896,2-2S37.104,34.002,36,34.002z"/>
	</g>
</g>
<g>
</g>
<g>
</g>
<g>
</g>
<g>
</g>
<g>
</g>
<g>
</g>
<g>
</g>
<g>
</g>
<g>
</g>
<g>
</g>
<g>
</g>
<g>
</g>
<g>
</g>
<g>
</g>
<g>
</g>
</svg>
