<?xml version="1.0" encoding="iso-8859-1"?>
<!-- Generator: Adobe Illustrator 16.0.0, SVG Export Plug-In . SVG Version: 6.00 Build 0)  -->
<!DOCTYPE svg PUBLIC "-//W3C//DTD SVG 1.1//EN" "http://www.w3.org/Graphics/SVG/1.1/DTD/svg11.dtd">
<svg version="1.1" id="Layer_1" xmlns="http://www.w3.org/2000/svg" xmlns:xlink="http://www.w3.org/1999/xlink" x="0px" y="0px"
	 width="64px" height="64.001px" viewBox="0 0 64 64.001" style="enable-background:new 0 0 64 64.001;" xml:space="preserve">
<g id="Elipse_19_">
	<g>
		<path style="fill-rule:evenodd;clip-rule:evenodd;fill:#CCCCCC;" d="M32,0C14.327,0,0,14.327,0,32.001c0,17.673,14.327,32,32,32
			s32-14.327,32-32C64,14.327,49.673,0,32,0z M32,60C16.536,60,4,47.465,4,32.001s12.536-28,28-28s28,12.536,28,28S47.464,60,32,60z
			"/>
	</g>
</g>
<g id="_x37_">
	<g>
		<path style="fill-rule:evenodd;clip-rule:evenodd;fill:#88C057;" d="M39.955,22.296c0.014-0.071,0.026-0.142,0.032-0.213
			C39.989,22.056,40,22.029,40,22.002s-0.007-0.053-0.008-0.08c-0.002-0.669-0.352-1.318-0.992-1.677
			c-0.383-0.215-0.808-0.286-1.216-0.243H26c-1.104,0-2,0.896-2,2s0.896,2,2,2h9.059l-6.791,17.107
			c-0.552,0.928-0.225,2.114,0.732,2.65c0.957,0.535,2.18,0.217,2.732-0.711l8-20.154c0.086-0.146,0.144-0.298,0.188-0.451
			C39.937,22.395,39.943,22.345,39.955,22.296z"/>
	</g>
</g>
<g>
</g>
<g>
</g>
<g>
</g>
<g>
</g>
<g>
</g>
<g>
</g>
<g>
</g>
<g>
</g>
<g>
</g>
<g>
</g>
<g>
</g>
<g>
</g>
<g>
</g>
<g>
</g>
<g>
</g>
</svg>
