<?xml version="1.0" encoding="iso-8859-1"?>
<!-- Generator: Adobe Illustrator 16.0.0, SVG Export Plug-In . SVG Version: 6.00 Build 0)  -->
<!DOCTYPE svg PUBLIC "-//W3C//DTD SVG 1.1//EN" "http://www.w3.org/Graphics/SVG/1.1/DTD/svg11.dtd">
<svg version="1.1" id="Layer_1" xmlns="http://www.w3.org/2000/svg" xmlns:xlink="http://www.w3.org/1999/xlink" x="0px" y="0px"
	 width="64px" height="64.001px" viewBox="0 0 64 64.001" style="enable-background:new 0 0 64 64.001;" xml:space="preserve">
<g id="Elipse_18_">
	<g>
		<path style="fill-rule:evenodd;clip-rule:evenodd;fill:#CCCCCC;" d="M32,0C14.326,0,0,14.327,0,32.001c0,17.673,14.326,32,32,32
			c17.673,0,32-14.327,32-32C64,14.327,49.673,0,32,0z M32,60C16.536,60,4,47.465,4,32.001s12.536-28,28-28s28,12.536,28,28
			S47.464,60,32,60z"/>
	</g>
</g>
<g id="_x38_">
	<g>
		<path style="fill-rule:evenodd;clip-rule:evenodd;fill:#88C057;" d="M36.471,29.961c0.932-1.058,1.503-2.443,1.503-3.966
			c0-3.31-2.675-5.993-5.974-5.993s-5.974,2.684-5.974,5.993c0,1.522,0.571,2.908,1.503,3.966C25.4,31.964,24,35.146,24,37.869
			c0,4.354,3.582,6.133,8,6.133s8-1.778,8-6.133C40,35.146,38.6,31.964,36.471,29.961z M32,23.998c1.1,0,1.991,0.895,1.991,1.998
			S33.1,27.995,32,27.995s-1.992-0.896-1.992-1.999S30.9,23.998,32,23.998z M32,39.996c-2.213,0-4.006-0.238-4.006-3.004
			c0-2.76,1.787-4.997,3.995-5.005c0.003,0,0.007,0.001,0.011,0.001s0.008-0.001,0.011-0.001c2.208,0.008,3.995,2.245,3.995,5.005
			C36.006,39.758,34.213,39.996,32,39.996z"/>
	</g>
</g>
<g>
</g>
<g>
</g>
<g>
</g>
<g>
</g>
<g>
</g>
<g>
</g>
<g>
</g>
<g>
</g>
<g>
</g>
<g>
</g>
<g>
</g>
<g>
</g>
<g>
</g>
<g>
</g>
<g>
</g>
</svg>
