<?xml version="1.0" encoding="iso-8859-1"?>
<!-- Generator: Adobe Illustrator 16.0.0, SVG Export Plug-In . SVG Version: 6.00 Build 0)  -->
<!DOCTYPE svg PUBLIC "-//W3C//DTD SVG 1.1//EN" "http://www.w3.org/Graphics/SVG/1.1/DTD/svg11.dtd">
<svg version="1.1" id="Layer_1" xmlns="http://www.w3.org/2000/svg" xmlns:xlink="http://www.w3.org/1999/xlink" x="0px" y="0px"
	 width="64px" height="64.001px" viewBox="0 0 64 64.001" style="enable-background:new 0 0 64 64.001;" xml:space="preserve">
<g id="Elipse_17_">
	<g>
		<path style="fill-rule:evenodd;clip-rule:evenodd;fill:#CCCCCC;" d="M32,0C14.327,0,0,14.327,0,32.001c0,17.673,14.327,32,32,32
			c17.673,0,32-14.327,32-32C64,14.327,49.673,0,32,0z M32,60C16.536,60,4,47.465,4,32.001s12.536-28,28-28s28,12.536,28,28
			S47.464,60,32,60z"/>
	</g>
</g>
<g id="_x39_">
	<g>
		<path style="fill-rule:evenodd;clip-rule:evenodd;fill:#88C057;" d="M32,20.002c-4.413,0-8,3.588-8,8c0,4.41,3.587,8,8,8
			c0.875,0,1.716-0.146,2.505-0.408c-1.02,2.083-2.446,3.521-3.919,4.994c-0.782,0.781-0.782,2.047,0,2.828
			c0.781,0.781,2.047,0.781,2.828,0C36.348,40.481,40,36.83,40,28.002C40,23.59,36.41,20.002,32,20.002z M32,32.002
			c-2.205,0-4-1.795-4-4s1.795-4,4-4c2.207,0,4,1.795,4,4S34.207,32.002,32,32.002z"/>
	</g>
</g>
<g>
</g>
<g>
</g>
<g>
</g>
<g>
</g>
<g>
</g>
<g>
</g>
<g>
</g>
<g>
</g>
<g>
</g>
<g>
</g>
<g>
</g>
<g>
</g>
<g>
</g>
<g>
</g>
<g>
</g>
</svg>
