<?xml version="1.0" encoding="iso-8859-1"?>
<!-- Generator: Adobe Illustrator 16.0.0, SVG Export Plug-In . SVG Version: 6.00 Build 0)  -->
<!DOCTYPE svg PUBLIC "-//W3C//DTD SVG 1.1//EN" "http://www.w3.org/Graphics/SVG/1.1/DTD/svg11.dtd">
<svg version="1.1" id="Layer_1" xmlns="http://www.w3.org/2000/svg" xmlns:xlink="http://www.w3.org/1999/xlink" x="0px" y="0px"
	 width="64px" height="64.001px" viewBox="0 0 64 64.001" style="enable-background:new 0 0 64 64.001;" xml:space="preserve">
<g id="Elipse_12_">
	<g>
		<path style="fill-rule:evenodd;clip-rule:evenodd;fill:#CCCCCC;" d="M32,0C14.327,0,0,14.327,0,32
			c0,17.674,14.327,32.001,32,32.001S64,49.674,64,32C64,14.327,49.673,0,32,0z M32,60C16.536,60,4,47.465,4,32
			C4,16.537,16.536,4.001,32,4.001S60,16.537,60,32C60,47.465,47.464,60,32,60z"/>
	</g>
</g>
<g id="_x40_">
	<g>
		<path style="fill-rule:evenodd;clip-rule:evenodd;fill:#88C057;" d="M45.999,33.989c0-0.004,0.001-0.007,0.001-0.011
			c0-0.008-0.002-0.016-0.002-0.023C45.978,24.126,39.719,17.979,32,17.979c-7.732,0-14,6.268-14,14c0,7.731,6.268,14,14,14
			c1.104,0,2-0.896,2-2c0-1.105-0.896-2-2-2c-5.523,0-10-4.478-10-10c0-5.523,4.477-10,10-10c5.522,0,10,4.477,10,10v2
			c0,1.104-0.896,2-2,2s-2-0.896-2-2v-5.633v-0.367c0-1.105-0.896-2-2-2c-0.555,0-1.056,0.226-1.418,0.59
			c-0.783-0.374-1.656-0.59-2.582-0.59c-3.314,0-6,2.686-6,6c0,3.313,2.686,6,6,6c1.071,0,2.074-0.284,2.945-0.776
			c1.065,1.668,2.929,2.776,5.055,2.776c3.177,0,5.77-2.471,5.979-5.594C45.992,34.273,46,34.15,46,34.002
			C46,33.997,45.999,33.993,45.999,33.989z M32,33.979c-1.104,0-2-0.896-2-2c0-1.105,0.896-2,2-2s2,0.895,2,2
			C34,33.082,33.104,33.979,32,33.979z"/>
	</g>
</g>
<g>
</g>
<g>
</g>
<g>
</g>
<g>
</g>
<g>
</g>
<g>
</g>
<g>
</g>
<g>
</g>
<g>
</g>
<g>
</g>
<g>
</g>
<g>
</g>
<g>
</g>
<g>
</g>
<g>
</g>
</svg>
