<?xml version="1.0" encoding="iso-8859-1"?>
<!-- Generator: Adobe Illustrator 16.0.0, SVG Export Plug-In . SVG Version: 6.00 Build 0)  -->
<!DOCTYPE svg PUBLIC "-//W3C//DTD SVG 1.1//EN" "http://www.w3.org/Graphics/SVG/1.1/DTD/svg11.dtd">
<svg version="1.1" id="Layer_1" xmlns="http://www.w3.org/2000/svg" xmlns:xlink="http://www.w3.org/1999/xlink" x="0px" y="0px"
	 width="64px" height="63.999px" viewBox="0 0 64 63.999" style="enable-background:new 0 0 64 63.999;" xml:space="preserve">
<g id="Elipse_51_">
	<g>
		<path style="fill-rule:evenodd;clip-rule:evenodd;fill:#CCCCCC;" d="M32,0C14.327,0,0,14.326,0,31.999s14.327,32,32,32
			s32-14.327,32-32S49.673,0,32,0z M32,60C16.536,60,4,47.463,4,31.999s12.536-28,28-28s28,12.536,28,28S47.464,60,32,60z"/>
	</g>
</g>
<g id="Attachment">
	<g>
		<path style="fill:#ED7465;" d="M43.656,20.344c-1.51-1.511-3.52-2.343-5.656-2.345c-2.139,0-4.146,0.834-5.656,2.345l-12,11.999
			C18.833,33.854,18.001,35.862,18,38c0,2.137,0.833,4.146,2.343,5.656C21.854,45.168,23.862,46,26,46c1.104,0,2-0.896,2-2
			c0-1.105-0.896-2.001-2-2.001c-1.068,0-2.072-0.415-2.828-1.171S22,39.068,22,38c0-1.069,0.416-2.072,1.172-2.828l12-12
			C35.928,22.415,36.932,22,38,22s2.072,0.415,2.828,1.172C41.584,23.926,42,24.931,42,26c0,1.067-0.416,2.072-1.172,2.828
			l-8.859,8.859c-0.19,0.189-0.582,0.305-0.859,0.303c-0.334,0-0.639-0.106-0.815-0.283c-0.391-0.391-0.391-1.023-0.001-1.414
			l6-6.001c0.781-0.78,0.781-2.047,0-2.827c-0.781-0.782-2.047-0.782-2.828,0l-6,6c-1.948,1.948-1.949,5.118-0.001,7.07
			c0.926,0.926,2.253,1.455,3.646,1.455c0.011,0,0.021,0,0.032,0c1.394-0.008,2.726-0.545,3.654-1.476l8.859-8.858
			C45.168,30.146,46,28.137,46,25.998C45.998,23.862,45.166,21.854,43.656,20.344z"/>
	</g>
</g>
<g>
</g>
<g>
</g>
<g>
</g>
<g>
</g>
<g>
</g>
<g>
</g>
<g>
</g>
<g>
</g>
<g>
</g>
<g>
</g>
<g>
</g>
<g>
</g>
<g>
</g>
<g>
</g>
<g>
</g>
</svg>
