<?xml version="1.0" encoding="iso-8859-1"?>
<!-- Generator: Adobe Illustrator 16.0.0, SVG Export Plug-In . SVG Version: 6.00 Build 0)  -->
<!DOCTYPE svg PUBLIC "-//W3C//DTD SVG 1.1//EN" "http://www.w3.org/Graphics/SVG/1.1/DTD/svg11.dtd">
<svg version="1.1" id="Layer_1" xmlns="http://www.w3.org/2000/svg" xmlns:xlink="http://www.w3.org/1999/xlink" x="0px" y="0px"
	 width="64px" height="64.001px" viewBox="0 0 64 64.001" style="enable-background:new 0 0 64 64.001;" xml:space="preserve">
<g id="Elipse_65_">
	<g>
		<path style="fill-rule:evenodd;clip-rule:evenodd;fill:#CCCCCC;" d="M32,0C14.327,0,0,14.327,0,32.001c0,17.673,14.327,32,32,32
			s32-14.327,32-32C64,14.327,49.673,0,32,0z M32,60C16.536,60,4,47.464,4,32.001c0-15.465,12.536-28,28-28s28,12.535,28,28
			C60,47.464,47.464,60,32,60z"/>
	</g>
</g>
<g id="Bell">
	<g>
		<path style="fill-rule:evenodd;clip-rule:evenodd;fill:#ED7161;" d="M40,34.183V30c0-3.735-2.564-6.864-6.025-7.744
			C33.985,22.171,34,22.087,34,22c0-1.104-0.896-2-2-2s-2,0.896-2,2c0,0.087,0.015,0.171,0.025,0.255C26.563,23.136,24,26.265,24,30
			v4.183c-1.163,0.414-2,1.513-2,2.816c0,1.657,1.343,3,3,3h5h2h2h5c1.656,0,3-1.343,3-3C42,35.695,41.162,34.596,40,34.183z M36,36
			h-8v-6c0-2.209,1.791-4,4-4s4,1.791,4,4V36z M32,44c1.104,0,2-0.896,2-2h-4C30,43.104,30.896,44,32,44z"/>
	</g>
</g>
<g>
</g>
<g>
</g>
<g>
</g>
<g>
</g>
<g>
</g>
<g>
</g>
<g>
</g>
<g>
</g>
<g>
</g>
<g>
</g>
<g>
</g>
<g>
</g>
<g>
</g>
<g>
</g>
<g>
</g>
</svg>
