<?xml version="1.0" encoding="iso-8859-1"?>
<!-- Generator: Adobe Illustrator 16.0.0, SVG Export Plug-In . SVG Version: 6.00 Build 0)  -->
<!DOCTYPE svg PUBLIC "-//W3C//DTD SVG 1.1//EN" "http://www.w3.org/Graphics/SVG/1.1/DTD/svg11.dtd">
<svg version="1.1" id="Layer_1" xmlns="http://www.w3.org/2000/svg" xmlns:xlink="http://www.w3.org/1999/xlink" x="0px" y="0px"
	 width="64px" height="63.999px" viewBox="0 0 64 63.999" style="enable-background:new 0 0 64 63.999;" xml:space="preserve">
<g id="Elipse_11_">
	<g>
		<path style="fill-rule:evenodd;clip-rule:evenodd;fill:#CCCCCC;" d="M32,0C14.327,0,0,14.326,0,31.998
			c0,17.674,14.327,32.001,32,32.001s32-14.327,32-32.001C64,14.326,49.673,0,32,0z M32,60C16.536,60,4,47.463,4,31.998
			C4,16.535,16.536,3.999,32,3.999s28,12.536,28,27.999C60,47.463,47.464,60,32,60z"/>
	</g>
</g>
<g id="Blocked">
	<g>
		<path style="fill-rule:evenodd;clip-rule:evenodd;fill:#ED7161;" d="M32,19.999c-6.627,0-12,5.372-12,11.999
			c0,6.629,5.373,12.001,12,12.001s12-5.372,12-12.001C44,25.371,38.627,19.999,32,19.999z M32,23.998
			c1.39,0,2.696,0.355,3.835,0.979L24.979,35.834C24.355,34.695,24,33.389,24,31.998C24,27.581,27.582,23.998,32,23.998z M32,39.998
			c-1.39,0-2.695-0.354-3.834-0.978l10.856-10.855C39.645,29.304,40,30.609,40,31.998C40,36.418,36.418,39.998,32,39.998z"/>
	</g>
</g>
<g>
</g>
<g>
</g>
<g>
</g>
<g>
</g>
<g>
</g>
<g>
</g>
<g>
</g>
<g>
</g>
<g>
</g>
<g>
</g>
<g>
</g>
<g>
</g>
<g>
</g>
<g>
</g>
<g>
</g>
</svg>
