<?xml version="1.0" encoding="iso-8859-1"?>
<!-- Generator: Adobe Illustrator 16.0.0, SVG Export Plug-In . SVG Version: 6.00 Build 0)  -->
<!DOCTYPE svg PUBLIC "-//W3C//DTD SVG 1.1//EN" "http://www.w3.org/Graphics/SVG/1.1/DTD/svg11.dtd">
<svg version="1.1" id="Layer_1" xmlns="http://www.w3.org/2000/svg" xmlns:xlink="http://www.w3.org/1999/xlink" x="0px" y="0px"
	 width="68px" height="68.001px" viewBox="0 0 68 68.001" style="enable-background:new 0 0 68 68.001;" xml:space="preserve">
<g id="Elipse_54_">
	<g>
		<path style="fill-rule:evenodd;clip-rule:evenodd;fill:#CCCCCC;" d="M37.817,59.391C35.94,59.788,33.995,60,32,60
			C16.536,60,4,47.463,4,31.999s12.536-28,28-28s28,12.536,28,28c0,1.996-0.213,3.942-0.609,5.82
			c1.285,0.671,2.461,1.514,3.512,2.495C63.614,37.662,64,34.876,64,31.999C64,14.326,49.673,0,32,0S0,14.326,0,31.999
			s14.327,32,32,32c2.876,0,5.66-0.385,8.312-1.097C39.332,61.852,38.488,60.676,37.817,59.391z"/>
	</g>
</g>
<g id="Cart_1_">
	<g>
		<path style="fill-rule:evenodd;clip-rule:evenodd;fill:#48A0DC;" d="M45.965,23.828c-0.005-0.04-0.016-0.076-0.022-0.114
			c-0.145-0.963-0.939-1.715-1.942-1.715H24V20c0-1.105-0.896-2-2-2h-2c-1.104,0-2,0.895-2,2c0,1.104,0.896,1.999,2,1.999v1.999
			c0,0.304,0.078,0.584,0.198,0.841c0.006,0.012,0.016,0.021,0.022,0.033c0.122,0.248,0.295,0.458,0.505,0.636l2.345,8.75
			C22.442,34.595,22,35.236,22,35.999c0,1.104,0.896,2,2,2h18c1.104,0,2-0.896,2-2c0-0.71-0.393-1.306-0.95-1.66l2.862-9.744
			c0.025-0.083,0.005-0.165,0.018-0.247c0.021-0.118,0.07-0.226,0.07-0.35C46,23.938,45.971,23.887,45.965,23.828z M38.5,33.998
			H27.143L24.999,26h15.852L38.5,33.998z M36,42.999c0,1.059,0.552,1.985,1.38,2.519c0.822-1.851,1.979-3.518,3.404-4.919
			c-0.5-0.372-1.113-0.601-1.784-0.601C37.343,39.998,36,41.342,36,42.999z M27,39.998c-1.657,0-3,1.344-3,3.001s1.343,3,3,3
			c1.656,0,3-1.343,3-3S28.656,39.998,27,39.998z"/>
	</g>
</g>
<g id="Elipse_55_">
	<g>
		<circle style="fill:#88C057;" cx="52" cy="52" r="12"/>
	</g>
</g>
<g id="Plus_3_">
	<g>
		<path style="fill:#FFFFFF;" d="M56,50.001h-2V48c0-1.105-0.895-2-2-2c-1.104,0-2,0.895-2,2v2.001h-2c-1.104,0-2,0.895-2,2
			c0,1.103,0.896,1.998,2,1.998h2v2C50,57.105,50.896,58,52,58c1.105,0,2-0.895,2-2.001v-2h2c1.105,0,2-0.896,2-1.998
			C58,50.896,57.105,50.001,56,50.001z"/>
	</g>
</g>
<g>
</g>
<g>
</g>
<g>
</g>
<g>
</g>
<g>
</g>
<g>
</g>
<g>
</g>
<g>
</g>
<g>
</g>
<g>
</g>
<g>
</g>
<g>
</g>
<g>
</g>
<g>
</g>
<g>
</g>
</svg>
