<?xml version="1.0" encoding="iso-8859-1"?>
<!-- Generator: Adobe Illustrator 16.0.0, SVG Export Plug-In . SVG Version: 6.00 Build 0)  -->
<!DOCTYPE svg PUBLIC "-//W3C//DTD SVG 1.1//EN" "http://www.w3.org/Graphics/SVG/1.1/DTD/svg11.dtd">
<svg version="1.1" id="Layer_1" xmlns="http://www.w3.org/2000/svg" xmlns:xlink="http://www.w3.org/1999/xlink" x="0px" y="0px"
	 width="64px" height="63.999px" viewBox="0 0 64 63.999" style="enable-background:new 0 0 64 63.999;" xml:space="preserve">
<g id="Elipse_56_">
	<g>
		<path style="fill-rule:evenodd;clip-rule:evenodd;fill:#CCCCCC;" d="M32,0C14.326,0,0,14.326,0,31.999s14.326,32,32,32
			c17.673,0,32-14.327,32-32S49.673,0,32,0z M32,60C16.536,60,4,47.463,4,31.999s12.536-28,28-28s28,12.536,28,28S47.464,60,32,60z"
			/>
	</g>
</g>
<g id="Cart_2_">
	<g>
		<path style="fill:#48A0DC;" d="M27,39.998c-1.657,0-3,1.344-3,3.001s1.343,3,3,3c1.656,0,3-1.343,3-3S28.656,39.998,27,39.998z
			 M39,39.998c-1.657,0-3,1.344-3,3.001s1.343,3,3,3c1.656,0,3-1.343,3-3S40.656,39.998,39,39.998z M45.965,23.828
			c-0.005-0.04-0.016-0.076-0.022-0.114c-0.145-0.963-0.939-1.715-1.942-1.715H24V20c0-1.105-0.896-2-2-2h-2c-1.104,0-2,0.895-2,2
			c0,1.104,0.896,1.999,2,1.999v1.999c0,0.304,0.078,0.584,0.198,0.841c0.006,0.012,0.016,0.021,0.022,0.033
			c0.122,0.248,0.295,0.458,0.505,0.636l2.345,8.75C22.442,34.595,22,35.236,22,35.999c0,1.104,0.896,2,2,2h18c1.104,0,2-0.896,2-2
			c0-0.71-0.393-1.306-0.951-1.66l2.863-9.744c0.025-0.083,0.005-0.165,0.018-0.247c0.021-0.118,0.07-0.226,0.07-0.35
			C46,23.938,45.971,23.887,45.965,23.828z M38.5,33.998H27.143L24.998,26H40.85L38.5,33.998z"/>
	</g>
</g>
<g>
</g>
<g>
</g>
<g>
</g>
<g>
</g>
<g>
</g>
<g>
</g>
<g>
</g>
<g>
</g>
<g>
</g>
<g>
</g>
<g>
</g>
<g>
</g>
<g>
</g>
<g>
</g>
<g>
</g>
</svg>
