<?xml version="1.0" encoding="iso-8859-1"?>
<!-- Generator: Adobe Illustrator 16.0.0, SVG Export Plug-In . SVG Version: 6.00 Build 0)  -->
<!DOCTYPE svg PUBLIC "-//W3C//DTD SVG 1.1//EN" "http://www.w3.org/Graphics/SVG/1.1/DTD/svg11.dtd">
<svg version="1.1" id="Layer_1" xmlns="http://www.w3.org/2000/svg" xmlns:xlink="http://www.w3.org/1999/xlink" x="0px" y="0px"
	 width="64px" height="63.999px" viewBox="0 0 64 63.999" style="enable-background:new 0 0 64 63.999;" xml:space="preserve">
<g id="Elipse_10_">
	<g>
		<path style="fill-rule:evenodd;clip-rule:evenodd;fill:#CCCCCC;" d="M32,0C14.327,0,0,14.326,0,31.998
			c0,17.674,14.327,32.001,32,32.001s32-14.327,32-32.001C64,14.326,49.673,0,32,0z M32,60C16.536,60,4,47.463,4,31.998
			C4,16.535,16.536,3.999,32,3.999s28,12.536,28,27.999C60,47.463,47.464,60,32,60z"/>
	</g>
</g>
<g id="Pin">
	<g>
		<path style="fill-rule:evenodd;clip-rule:evenodd;fill:#48A0DC;" d="M31.998,17.995c-6.624,0-11.994,4.741-11.994,10.589
			c0,0.113,0.06,2.836,1.091,4.776c2.954,6.017,10.894,12.679,10.903,12.644c0.013,0.022,7.918-6.603,10.887-12.607
			c0.88-1.423,1.108-4.58,1.108-4.813C43.993,22.736,38.623,17.995,31.998,17.995z M32,33.998c-2.199,0-3.982-1.791-3.982-4
			c0-2.21,1.783-3.999,3.982-3.999s3.981,1.789,3.981,3.999C35.981,32.207,34.199,33.998,32,33.998z"/>
	</g>
</g>
<g>
</g>
<g>
</g>
<g>
</g>
<g>
</g>
<g>
</g>
<g>
</g>
<g>
</g>
<g>
</g>
<g>
</g>
<g>
</g>
<g>
</g>
<g>
</g>
<g>
</g>
<g>
</g>
<g>
</g>
</svg>
