<?xml version="1.0" encoding="iso-8859-1"?>
<!-- Generator: Adobe Illustrator 16.0.0, SVG Export Plug-In . SVG Version: 6.00 Build 0)  -->
<!DOCTYPE svg PUBLIC "-//W3C//DTD SVG 1.1//EN" "http://www.w3.org/Graphics/SVG/1.1/DTD/svg11.dtd">
<svg version="1.1" id="Layer_1" xmlns="http://www.w3.org/2000/svg" xmlns:xlink="http://www.w3.org/1999/xlink" x="0px" y="0px"
	 width="68px" height="68.001px" viewBox="0 0 68 68.001" style="enable-background:new 0 0 68 68.001;" xml:space="preserve">
<g id="Elipse_57_">
	<g>
		<path style="fill-rule:evenodd;clip-rule:evenodd;fill:#CCCCCC;" d="M37.817,59.391C35.94,59.788,33.995,60,32,60
			C16.536,60,4,47.463,4,31.999s12.536-28,28-28s28,12.536,28,28c0,1.996-0.212,3.942-0.61,5.82
			c1.285,0.671,2.462,1.515,3.512,2.495C63.614,37.662,64,34.876,64,31.999C64,14.326,49.673,0,32,0S0,14.326,0,31.999
			s14.327,32,32,32c2.876,0,5.661-0.385,8.312-1.097C39.332,61.852,38.488,60.676,37.817,59.391z"/>
	</g>
</g>
<g id="Elipse_58_">
	<g>
		<circle style="fill:#ED7161;" cx="52" cy="52" r="12"/>
	</g>
</g>
<g id="Minus_4_">
	<g>
		<path style="fill:#FFFFFF;" d="M56,50h-8c-1.104,0-2,0.895-2,1.999s0.896,2,2,2h8c1.104,0,2-0.896,2-2S57.104,50,56,50z"/>
	</g>
</g>
<g id="Cloud">
	<g>
		<path style="fill-rule:evenodd;clip-rule:evenodd;fill:#48A0DC;" d="M45.875,37.222C45.957,36.827,46,36.418,46,35.999
			c0-2.618-1.68-4.838-4.017-5.658C41.988,30.227,42,30.115,42,29.999c0-4.418-3.582-8-8-8c-3.111,0-5.801,1.779-7.124,4.372
			C26.296,26.136,25.665,26,25,26c-2.762,0-5,2.237-5,4.999c0,0.168,0.033,0.328,0.05,0.492C18.796,32.591,18,34.2,18,35.999
			C18,39.313,20.687,42,24,42h15.521C41.193,39.917,43.371,38.26,45.875,37.222z"/>
	</g>
</g>
<g>
</g>
<g>
</g>
<g>
</g>
<g>
</g>
<g>
</g>
<g>
</g>
<g>
</g>
<g>
</g>
<g>
</g>
<g>
</g>
<g>
</g>
<g>
</g>
<g>
</g>
<g>
</g>
<g>
</g>
</svg>
