<?xml version="1.0" encoding="iso-8859-1"?>
<!-- Generator: Adobe Illustrator 16.0.0, SVG Export Plug-In . SVG Version: 6.00 Build 0)  -->
<!DOCTYPE svg PUBLIC "-//W3C//DTD SVG 1.1//EN" "http://www.w3.org/Graphics/SVG/1.1/DTD/svg11.dtd">
<svg version="1.1" id="Layer_1" xmlns="http://www.w3.org/2000/svg" xmlns:xlink="http://www.w3.org/1999/xlink" x="0px" y="0px"
	 width="64px" height="63.999px" viewBox="0 0 64 63.999" style="enable-background:new 0 0 64 63.999;" xml:space="preserve">
<g id="Elipse_61_">
	<g>
		<path style="fill-rule:evenodd;clip-rule:evenodd;fill:#CCCCCC;" d="M32,0C14.327,0,0,14.326,0,31.999s14.327,32,32,32
			c17.673,0,32-14.327,32-32S49.673,0,32,0z M32,60C16.536,60,4,47.463,4,31.999s12.536-28,28-28s28,12.536,28,28S47.464,60,32,60z"
			/>
	</g>
</g>
<g id="Cloud_2_">
	<g>
		<path style="fill-rule:evenodd;clip-rule:evenodd;fill:#48A0DC;" d="M46,35.999c0-2.618-1.679-4.838-4.017-5.657
			C41.987,30.227,42,30.115,42,29.999c0-4.418-3.582-8-8-8c-3.111,0-5.8,1.779-7.124,4.372C26.296,26.136,25.665,26,25,26
			c-2.761,0-5,2.237-5,4.999c0,0.168,0.033,0.328,0.05,0.492C18.795,32.59,18,34.2,18,35.999C18,39.313,20.686,42,24,42h16l0,0
			C43.313,42,46,39.313,46,35.999z"/>
	</g>
</g>
<g>
</g>
<g>
</g>
<g>
</g>
<g>
</g>
<g>
</g>
<g>
</g>
<g>
</g>
<g>
</g>
<g>
</g>
<g>
</g>
<g>
</g>
<g>
</g>
<g>
</g>
<g>
</g>
<g>
</g>
</svg>
