<?xml version="1.0" encoding="iso-8859-1"?>
<!-- Generator: Adobe Illustrator 16.0.0, SVG Export Plug-In . SVG Version: 6.00 Build 0)  -->
<!DOCTYPE svg PUBLIC "-//W3C//DTD SVG 1.1//EN" "http://www.w3.org/Graphics/SVG/1.1/DTD/svg11.dtd">
<svg version="1.1" id="Layer_1" xmlns="http://www.w3.org/2000/svg" xmlns:xlink="http://www.w3.org/1999/xlink" x="0px" y="0px"
	 width="64px" height="63.999px" viewBox="0 0 64 63.999" style="enable-background:new 0 0 64 63.999;" xml:space="preserve">
<g id="Elipse_81_">
	<g>
		<path style="fill-rule:evenodd;clip-rule:evenodd;fill:#CCCCCC;" d="M32,0C14.327,0,0,14.326,0,31.999c0,17.674,14.327,32,32,32
			s32-14.326,32-32C64,14.326,49.673,0,32,0z M32,60C16.536,60,4,47.463,4,31.999s12.536-28,28-28s28,12.536,28,28S47.464,60,32,60z
			"/>
	</g>
</g>
<g id="Arrow_8_">
	<g>
		<path style="fill-rule:evenodd;clip-rule:evenodd;fill:#ED7161;" d="M36,29.999h6c1.104,0,2-0.896,2-2C44,26.894,43.104,26,42,26
			h-1.052l4.413-4.467c0.81-0.816,0.81-2.14,0-2.955c-0.809-0.816-2.121-0.816-2.932,0L38,23.062V22c0-1.105-0.896-2.001-2-2.001
			S34,20.895,34,22v5.999C34,29.104,34.896,29.999,36,29.999z M28,33.999h-6c-1.104,0-2,0.896-2,1.999c0,1.105,0.896,2,2,2h1.051
			l-4.412,4.468c-0.811,0.816-0.811,2.14-0.001,2.955c0.81,0.816,2.122,0.816,2.933,0L26,40.936v1.063c0,1.105,0.896,2.001,2,2.001
			s2-0.896,2-2.001v-6C30,34.895,29.104,33.999,28,33.999z M45.422,42.429l-4.475-4.43h1.057C43.106,37.999,44,37.104,44,36
			c0-1.105-0.894-2-1.996-2h-5.982c-1.102,0-1.995,0.895-1.995,2v6c0,1.104,0.894,1.999,1.995,1.999
			c1.103,0,1.995-0.896,1.995-1.999v-1.052l4.457,4.412c0.814,0.81,2.135,0.81,2.948,0C46.237,44.552,46.237,43.239,45.422,42.429z
			 M28.041,19.999c-1.104,0-1.996,0.896-1.996,2v1.051l-4.456-4.411c-0.815-0.812-2.136-0.812-2.949-0.002
			c-0.814,0.81-0.814,2.123,0,2.932L23.115,26h-1.057c-1.103,0-1.996,0.894-1.996,1.999c0,1.104,0.894,2,1.996,2h5.982
			c1.101,0,1.994-0.896,1.994-2v-6C30.035,20.895,29.142,19.999,28.041,19.999z"/>
	</g>
</g>
<g>
</g>
<g>
</g>
<g>
</g>
<g>
</g>
<g>
</g>
<g>
</g>
<g>
</g>
<g>
</g>
<g>
</g>
<g>
</g>
<g>
</g>
<g>
</g>
<g>
</g>
<g>
</g>
<g>
</g>
</svg>
