<?xml version="1.0" encoding="iso-8859-1"?>
<!-- Generator: Adobe Illustrator 16.0.0, SVG Export Plug-In . SVG Version: 6.00 Build 0)  -->
<!DOCTYPE svg PUBLIC "-//W3C//DTD SVG 1.1//EN" "http://www.w3.org/Graphics/SVG/1.1/DTD/svg11.dtd">
<svg version="1.1" id="Layer_1" xmlns="http://www.w3.org/2000/svg" xmlns:xlink="http://www.w3.org/1999/xlink" x="0px" y="0px"
	 width="66px" height="67.999px" viewBox="0 0 66 67.999" style="enable-background:new 0 0 66 67.999;" xml:space="preserve">
<g id="Elipse_4_">
	<g>
		<path style="fill-rule:evenodd;clip-rule:evenodd;fill:#CCCCCC;" d="M38,59.34c-1.934,0.425-3.938,0.659-6,0.659
			c-15.464,0-28-12.536-28-28.001C4,16.534,16.536,3.999,32,3.999s28,12.535,28,27.999c0,1.607-0.143,3.181-0.403,4.715
			c1.334,1.092,2.417,2.472,3.181,4.037C63.568,37.967,64,35.034,64,31.998C64,14.326,49.673,0,32,0C14.326,0,0,14.326,0,31.998
			c0,17.673,14.326,32,32,32c2.054,0,4.054-0.216,6-0.586V59.34z"/>
	</g>
</g>
<g id="Contact_4_">
	<g>
		<path style="fill-rule:evenodd;clip-rule:evenodd;fill:#48A0DC;" d="M43.7,37.347c-0.764-3.379-2.95-6.216-5.899-7.849
			C39.161,28.063,40,26.132,40,24c0-4.418-3.582-8-8-8s-8,3.582-8,8c0,2.132,0.839,4.063,2.199,5.497
			C22.504,31.543,20,35.477,20,39.999v1.438v0.562C20,43.104,20.896,44,22,44h0.75h17.43C40.617,41.403,41.881,39.092,43.7,37.347z
			 M32,19.999c2.209,0,4,1.791,4,4.001c0,2.209-1.791,4-4,4s-4-1.791-4-4C28,21.79,29.791,19.999,32,19.999z M32,31.999
			c4.418,0,8,3.582,8,8H24C24,35.581,27.582,31.999,32,31.999z"/>
	</g>
</g>
<g id="Lock_1_">
	<g>
		<path style="fill-rule:evenodd;clip-rule:evenodd;fill:#88C057;" d="M60,51.997v-5.999c0-4.419-3.582-8-8-8c-4.419,0-8,3.581-8,8
			v2h4v-2c0-2.21,1.79-4,4-4c2.209,0,4,1.79,4,4v5.999h-8h-4c-1.105,0-2,0.896-2,2.001v7.999c0,1.104,0.895,2.001,2,2.001h16
			c1.104,0,2-0.896,2-2.001v-7.999C62,52.893,61.104,51.997,60,51.997z M52,59.998c-1.105,0-2-0.896-2-2c0-1.104,0.895-2,2-2
			c1.104,0,2,0.896,2,2C54,59.102,53.104,59.998,52,59.998z"/>
	</g>
</g>
<g>
</g>
<g>
</g>
<g>
</g>
<g>
</g>
<g>
</g>
<g>
</g>
<g>
</g>
<g>
</g>
<g>
</g>
<g>
</g>
<g>
</g>
<g>
</g>
<g>
</g>
<g>
</g>
<g>
</g>
</svg>
