<?xml version="1.0" encoding="iso-8859-1"?>
<!-- Generator: Adobe Illustrator 16.0.0, SVG Export Plug-In . SVG Version: 6.00 Build 0)  -->
<!DOCTYPE svg PUBLIC "-//W3C//DTD SVG 1.1//EN" "http://www.w3.org/Graphics/SVG/1.1/DTD/svg11.dtd">
<svg version="1.1" id="Layer_1" xmlns="http://www.w3.org/2000/svg" xmlns:xlink="http://www.w3.org/1999/xlink" x="0px" y="0px"
	 width="68px" height="68px" viewBox="0 0 68 68" style="enable-background:new 0 0 68 68;" xml:space="preserve">
<g id="Elipse_5_">
	<g>
		<path style="fill-rule:evenodd;clip-rule:evenodd;fill:#CCCCCC;" d="M37.817,59.39c-1.877,0.397-3.822,0.609-5.817,0.609
			c-15.464,0-28-12.536-28-28.001C4,16.534,16.536,3.999,32,3.999s28,12.535,28,27.999c0,1.996-0.213,3.942-0.61,5.821
			c1.285,0.671,2.461,1.515,3.512,2.494C63.614,37.661,64,34.875,64,31.998C64,14.326,49.673,0,32,0S0,14.326,0,31.998
			c0,17.673,14.327,32,32,32c2.876,0,5.66-0.386,8.312-1.097C39.332,61.851,38.488,60.675,37.817,59.39z"/>
	</g>
</g>
<g id="Elipse_6_">
	<g>
		<circle style="fill:#ED7161;" cx="52" cy="52" r="12"/>
	</g>
</g>
<g id="Minus">
	<g>
		<path style="fill:#FFFFFF;" d="M56,49.999h-8c-1.104,0-2,0.895-2,2c0,1.104,0.896,1.999,2,1.999h8c1.104,0,2-0.895,2-1.999
			C58,50.894,57.104,49.999,56,49.999z"/>
	</g>
</g>
<g id="Contact_5_">
	<g>
		<path style="fill-rule:evenodd;clip-rule:evenodd;fill:#48A0DC;" d="M43.869,38.237c-0.556-3.769-2.862-6.965-6.068-8.739
			C39.161,28.063,40,26.132,40,24c0-4.418-3.582-8-8-8s-8,3.582-8,8c0,2.132,0.839,4.063,2.199,5.497
			C22.504,31.543,20,35.477,20,39.999v1.438v0.562C20,43.104,20.896,44,22,44h0.75h15.408
			C39.535,41.622,41.505,39.638,43.869,38.237z M32,19.999c2.209,0,4,1.791,4,4.001c0,2.209-1.791,4-4,4s-4-1.791-4-4
			C28,21.79,29.791,19.999,32,19.999z M32,31.999c4.418,0,8,3.582,8,8H24C24,35.581,27.582,31.999,32,31.999z"/>
	</g>
</g>
<g>
</g>
<g>
</g>
<g>
</g>
<g>
</g>
<g>
</g>
<g>
</g>
<g>
</g>
<g>
</g>
<g>
</g>
<g>
</g>
<g>
</g>
<g>
</g>
<g>
</g>
<g>
</g>
<g>
</g>
</svg>
