<?xml version="1.0" encoding="iso-8859-1"?>
<!-- Generator: Adobe Illustrator 16.0.0, SVG Export Plug-In . SVG Version: 6.00 Build 0)  -->
<!DOCTYPE svg PUBLIC "-//W3C//DTD SVG 1.1//EN" "http://www.w3.org/Graphics/SVG/1.1/DTD/svg11.dtd">
<svg version="1.1" id="Layer_1" xmlns="http://www.w3.org/2000/svg" xmlns:xlink="http://www.w3.org/1999/xlink" x="0px" y="0px"
	 width="66px" height="67.999px" viewBox="0 0 66 67.999" style="enable-background:new 0 0 66 67.999;" xml:space="preserve">
<g id="Elipse">
	<g>
		<path style="fill-rule:evenodd;clip-rule:evenodd;fill:#CCCCCC;" d="M32,3.999c15.464,0,28,12.535,28,27.999
			c0,3.347-0.595,6.551-1.673,9.524c1.242,0.631,2.378,1.438,3.372,2.396C63.181,40.233,64,36.212,64,31.998
			C64,14.326,49.673,0,32,0S0,14.326,0,31.998c0,17.673,14.327,32,32,32c3.14,0,6.167-0.469,9.033-1.313
			c-0.853-1.075-1.547-2.278-2.057-3.576c-2.231,0.574-4.566,0.89-6.977,0.89c-15.464,0-28-12.536-28-28.001
			C4,16.534,16.536,3.999,32,3.999z"/>
	</g>
</g>
<g id="Contact">
	<g>
		<path style="fill-rule:evenodd;clip-rule:evenodd;fill:#48A0DC;" d="M37.801,29.498C39.16,28.063,40,26.132,40,24
			c0-4.418-3.582-8-8-8c-4.419,0-8,3.582-8,8c0,2.132,0.84,4.063,2.199,5.498C22.504,31.543,20,35.478,20,39.999v1.438v0.562
			C20,43.104,20.896,44,22,44h0.75h15.599c0.824-2.329,3.04-4.001,5.651-4.001C44,35.477,41.496,31.543,37.801,29.498z M32,19.999
			c2.209,0,4,1.791,4,4.001c0,2.209-1.791,4-4,4s-4-1.791-4-4C28,21.79,29.791,19.999,32,19.999z M24,39.999c0-4.418,3.581-8,8-8
			c4.418,0,8,3.582,8,8H24z"/>
	</g>
</g>
<g id="Refresh">
	<g>
		<path style="fill-rule:evenodd;clip-rule:evenodd;fill:#88C057;" d="M50,53.999c1.104,0,2-0.896,2-2.002
			c0-1.104-0.896-1.999-2-1.999h-2.443c1.097-1.221,2.673-2,4.443-2c1.775,0,3.365,0.775,4.464,2.001h4.698
			C59.619,46.468,56.1,43.998,52,43.998c-2.255,0-4.329,0.752-6,2.012v-0.012c0-1.104-0.896-2-2-2c-1.105,0-2,0.896-2,2v5.999
			c0,1.106,0.895,2.002,2,2.002H50z M60.778,54.155c-0.239-0.102-0.502-0.157-0.778-0.157h-6c-1.104,0-2,0.896-2,1.999
			c0,1.105,0.896,2.002,2,2.002h2.442c-1.097,1.22-2.673,1.999-4.442,1.999c-1.775,0-3.365-0.774-4.463-1.999l-4.699-0.001
			c1.543,3.53,5.063,6,9.162,6c2.254,0,4.328-0.753,6-2.011v0.011c0,1.105,0.896,2,2,2s2-0.895,2-2v-5.999v-0.001v-0.001
			C62,55.17,61.496,54.459,60.778,54.155z"/>
	</g>
</g>
<g>
</g>
<g>
</g>
<g>
</g>
<g>
</g>
<g>
</g>
<g>
</g>
<g>
</g>
<g>
</g>
<g>
</g>
<g>
</g>
<g>
</g>
<g>
</g>
<g>
</g>
<g>
</g>
<g>
</g>
</svg>
