<?xml version="1.0" encoding="iso-8859-1"?>
<!-- Generator: Adobe Illustrator 16.0.0, SVG Export Plug-In . SVG Version: 6.00 Build 0)  -->
<!DOCTYPE svg PUBLIC "-//W3C//DTD SVG 1.1//EN" "http://www.w3.org/Graphics/SVG/1.1/DTD/svg11.dtd">
<svg version="1.1" id="Layer_1" xmlns="http://www.w3.org/2000/svg" xmlns:xlink="http://www.w3.org/1999/xlink" x="0px" y="0px"
	 width="65.951px" height="68.059px" viewBox="0 0 65.951 68.059" style="enable-background:new 0 0 65.951 68.059;"
	 xml:space="preserve">
<g id="Elipse_2_">
	<g>
		<path style="fill-rule:evenodd;clip-rule:evenodd;fill:#CCCCCC;" d="M32,0C14.327,0,0,14.326,0,31.998c0,17.673,14.327,32,32,32
			c3.436,0,6.738-0.555,9.839-1.559l-2.085-2.086c-0.369-0.368-0.659-0.78-0.913-1.209c-2.189,0.552-4.479,0.854-6.841,0.854
			c-15.464,0-28-12.536-28-28.001C4,16.534,16.536,3.999,32,3.999s28,12.535,28,27.999c0,6.543-2.25,12.558-6.011,17.324
			l1.627-1.627c1.407-1.409,3.332-1.96,5.16-1.691C62.84,41.773,64,37.021,64,31.998C64,14.326,49.673,0,32,0z"/>
	</g>
</g>
<g id="Contact_2_">
	<g>
		<path style="fill-rule:evenodd;clip-rule:evenodd;fill:#48A0DC;" d="M37.801,29.498C39.16,28.063,40,26.132,40,24
			c0-4.418-3.582-8-8-8s-8,3.582-8,8c0,2.132,0.84,4.063,2.199,5.497C22.504,31.543,20,35.477,20,39.999v1.438v0.562
			C20,43.104,20.896,44,22,44h0.75h18.688H42c1.104,0,2-0.896,2-2.001v-0.374v-1.626C44,35.477,41.496,31.543,37.801,29.498z
			 M32,19.999c2.209,0,4,1.791,4,4.001c0,2.209-1.791,4-4,4s-4-1.791-4-4C28,21.79,29.791,19.999,32,19.999z M24,39.999
			c0-4.418,3.582-8,8-8s8,3.582,8,8H24z"/>
	</g>
</g>
<g id="Ok">
	<g>
		<path style="fill-rule:evenodd;clip-rule:evenodd;fill:#88C057;" d="M61.393,50.563c-0.788-0.788-2.065-0.788-2.854,0
			l-8.521,8.521l-4.509-4.516c-0.807-0.81-2.114-0.81-2.921,0c-0.807,0.808-0.807,2.116,0,2.926l5.841,5.851
			c0.209,0.209,0.451,0.361,0.709,0.463c0.745,0.342,1.653,0.212,2.267-0.402l9.988-9.987C62.181,52.63,62.181,51.352,61.393,50.563
			z"/>
	</g>
</g>
<g>
</g>
<g>
</g>
<g>
</g>
<g>
</g>
<g>
</g>
<g>
</g>
<g>
</g>
<g>
</g>
<g>
</g>
<g>
</g>
<g>
</g>
<g>
</g>
<g>
</g>
<g>
</g>
<g>
</g>
</svg>
