<?xml version="1.0" encoding="iso-8859-1"?>
<!-- Generator: Adobe Illustrator 16.0.0, SVG Export Plug-In . SVG Version: 6.00 Build 0)  -->
<!DOCTYPE svg PUBLIC "-//W3C//DTD SVG 1.1//EN" "http://www.w3.org/Graphics/SVG/1.1/DTD/svg11.dtd">
<svg version="1.1" id="Layer_1" xmlns="http://www.w3.org/2000/svg" xmlns:xlink="http://www.w3.org/1999/xlink" x="0px" y="0px"
	 width="64px" height="63.998px" viewBox="0 0 64 63.998" style="enable-background:new 0 0 64 63.998;" xml:space="preserve">
<g id="Elipse_9_">
	<g>
		<path style="fill-rule:evenodd;clip-rule:evenodd;fill:#CCCCCC;" d="M32,0C14.327,0,0,14.326,0,31.998c0,17.673,14.327,32,32,32
			c17.673,0,32-14.327,32-32C64,14.326,49.673,0,32,0z M32,59.999c-15.464,0-28-12.536-28-28.001C4,16.534,16.536,3.999,32,3.999
			s28,12.535,28,27.999C60,47.463,47.464,59.999,32,59.999z"/>
	</g>
</g>
<g id="Contact_7_">
	<g>
		<path style="fill-rule:evenodd;clip-rule:evenodd;fill:#48A0DC;" d="M37.801,29.498C39.161,28.063,40,26.132,40,24
			c0-4.418-3.582-8-8-8s-8,3.582-8,8c0,2.132,0.839,4.063,2.199,5.498C22.504,31.543,20,35.477,20,39.999v1.438v0.562
			C20,43.104,20.896,44,22,44h0.75h18.688H42c1.104,0,2-0.896,2-2.001v-0.374v-1.626C44,35.477,41.496,31.543,37.801,29.498z
			 M32,19.999c2.209,0,4,1.791,4,4.001c0,2.209-1.791,4-4,4c-2.209,0-4-1.791-4-4C28,21.79,29.791,19.999,32,19.999z M24,39.999
			c0-4.418,3.582-8,8-8s8,3.582,8,8H24z"/>
	</g>
</g>
<g>
</g>
<g>
</g>
<g>
</g>
<g>
</g>
<g>
</g>
<g>
</g>
<g>
</g>
<g>
</g>
<g>
</g>
<g>
</g>
<g>
</g>
<g>
</g>
<g>
</g>
<g>
</g>
<g>
</g>
</svg>
