<?xml version="1.0" encoding="iso-8859-1"?>
<!-- Generator: Adobe Illustrator 16.0.0, SVG Export Plug-In . SVG Version: 6.00 Build 0)  -->
<!DOCTYPE svg PUBLIC "-//W3C//DTD SVG 1.1//EN" "http://www.w3.org/Graphics/SVG/1.1/DTD/svg11.dtd">
<svg version="1.1" id="Layer_1" xmlns="http://www.w3.org/2000/svg" xmlns:xlink="http://www.w3.org/1999/xlink" x="0px" y="0px"
	 width="64.017px" height="67.996px" viewBox="0 0 64.017 67.996" style="enable-background:new 0 0 64.017 67.996;"
	 xml:space="preserve">
<g id="Elipse_1_">
	<g>
		<path style="fill-rule:evenodd;clip-rule:evenodd;fill:#CCCCCC;" d="M32,59.999c-15.464,0-28-12.536-28-28.001
			C4,16.534,16.536,3.999,32,3.999s28,12.535,28,27.999c0,4.286-0.966,8.346-2.688,11.978c1.366-0.133,2.766,0.175,3.95,0.971
			C63.018,40.986,64,36.608,64,31.998C64,14.326,49.673,0,32,0S0,14.326,0,31.998c0,17.673,14.327,32,32,32
			c2.755,0,5.428-0.349,7.979-1.003c-0.27-1.527,0.05-3.132,0.958-4.462C38.129,59.479,35.126,59.999,32,59.999z"/>
	</g>
</g>
<g id="Contact_1_">
	<g>
		<path style="fill-rule:evenodd;clip-rule:evenodd;fill:#48A0DC;" d="M37.801,29.498C39.16,28.063,40,26.132,40,24
			c0-4.418-3.582-8-8-8s-8,3.582-8,8c0,2.132,0.84,4.063,2.199,5.497C22.504,31.543,20,35.477,20,39.999v1.438v0.562
			C20,43.104,20.896,44,22,44h0.75h18.688H42c1.104,0,2-0.896,2-2.001v-0.374v-1.626C44,35.477,41.496,31.543,37.801,29.498z
			 M32,19.999c2.209,0,4,1.791,4,4.001c0,2.209-1.791,4-4,4s-4-1.791-4-4C28,21.79,29.791,19.999,32,19.999z M24,39.999
			c0-4.418,3.582-8,8-8s8,3.582,8,8H24z"/>
	</g>
</g>
<g id="Remove">
	<g>
		<path style="fill-rule:evenodd;clip-rule:evenodd;fill:#ED7161;" d="M59.43,60.726l-4.703-4.702l4.703-4.703
			c0.742-0.743,0.742-1.947,0-2.691c-0.743-0.742-1.948-0.742-2.691,0l-4.703,4.703l-4.762-4.762c-0.746-0.748-1.955-0.748-2.701,0
			c-0.746,0.744-0.746,1.954,0,2.701l4.763,4.762l-4.705,4.705c-0.743,0.744-0.743,1.947,0,2.69s1.947,0.743,2.69,0l4.705-4.705
			l4.703,4.702c0.746,0.747,1.955,0.747,2.701,0C60.176,62.682,60.176,61.472,59.43,60.726z"/>
	</g>
</g>
<g>
</g>
<g>
</g>
<g>
</g>
<g>
</g>
<g>
</g>
<g>
</g>
<g>
</g>
<g>
</g>
<g>
</g>
<g>
</g>
<g>
</g>
<g>
</g>
<g>
</g>
<g>
</g>
<g>
</g>
</svg>
