<?xml version="1.0" encoding="iso-8859-1"?>
<!-- Generator: Adobe Illustrator 16.0.0, SVG Export Plug-In . SVG Version: 6.00 Build 0)  -->
<!DOCTYPE svg PUBLIC "-//W3C//DTD SVG 1.1//EN" "http://www.w3.org/Graphics/SVG/1.1/DTD/svg11.dtd">
<svg version="1.1" id="Layer_1" xmlns="http://www.w3.org/2000/svg" xmlns:xlink="http://www.w3.org/1999/xlink" x="0px" y="0px"
	 width="66px" height="67.999px" viewBox="0 0 66 67.999" style="enable-background:new 0 0 66 67.999;" xml:space="preserve">
<g id="Elipse_3_">
	<g>
		<path style="fill-rule:evenodd;clip-rule:evenodd;fill:#CCCCCC;" d="M38,59.345c-1.934,0.423-3.939,0.654-6,0.654
			c-15.464,0-28-12.536-28-28.001C4,16.534,16.536,3.999,32,3.999s28,12.535,28,27.999c0,2.222-0.267,4.379-0.756,6.451
			c1.272,0.967,2.345,2.176,3.147,3.566C63.43,38.863,64,35.498,64,31.998C64,14.326,49.673,0,32,0S0,14.326,0,31.998
			c0,17.673,14.327,32,32,32c2.053,0,4.055-0.208,6-0.577V59.345z"/>
	</g>
</g>
<g id="Contact_3_">
	<g>
		<path style="fill-rule:evenodd;clip-rule:evenodd;fill:#48A0DC;" d="M43.966,39.105c-0.306-4.144-2.716-7.698-6.165-9.607
			C39.16,28.063,40,26.132,40,24c0-4.418-3.582-8-8-8c-4.419,0-8,3.582-8,8c0,2.132,0.839,4.063,2.199,5.498
			C22.504,31.543,20,35.478,20,39.999v1.438v0.562C20,43.104,20.896,44,22,44h0.75h17.947
			C41.369,42.103,42.502,40.428,43.966,39.105z M32,19.999c2.209,0,4,1.791,4,4.001c0,2.209-1.791,4-4,4s-4-1.791-4-4
			C28,21.79,29.791,19.999,32,19.999z M24,39.999c0-4.418,3.581-8,8-8c4.418,0,8,3.582,8,8H24z"/>
	</g>
</g>
<g id="Lock">
	<g>
		<path style="fill-rule:evenodd;clip-rule:evenodd;fill:#ED7261;" d="M60,51.997v-3.999c0-4.419-3.582-8-8-8c-4.419,0-8,3.581-8,8
			v3.999c-1.104,0-2,0.896-2,2.001v7.999c0,1.104,0.896,2.001,2,2.001h16c1.104,0,2-0.896,2-2.001v-7.999
			C62,52.893,61.104,51.997,60,51.997z M52,59.998c-1.104,0-2-0.896-2-2c0-1.104,0.896-2,2-2s2,0.896,2,2
			C54,59.102,53.104,59.998,52,59.998z M56,51.997h-8v-3.999c0-2.209,1.791-4,4-4s4,1.791,4,4V51.997z"/>
	</g>
</g>
<g>
</g>
<g>
</g>
<g>
</g>
<g>
</g>
<g>
</g>
<g>
</g>
<g>
</g>
<g>
</g>
<g>
</g>
<g>
</g>
<g>
</g>
<g>
</g>
<g>
</g>
<g>
</g>
<g>
</g>
</svg>
