<?xml version="1.0" encoding="iso-8859-1"?>
<!-- Generator: Adobe Illustrator 16.0.0, SVG Export Plug-In . SVG Version: 6.00 Build 0)  -->
<!DOCTYPE svg PUBLIC "-//W3C//DTD SVG 1.1//EN" "http://www.w3.org/Graphics/SVG/1.1/DTD/svg11.dtd">
<svg version="1.1" id="Layer_1" xmlns="http://www.w3.org/2000/svg" xmlns:xlink="http://www.w3.org/1999/xlink" x="0px" y="0px"
	 width="64px" height="64.001px" viewBox="0 0 64 64.001" style="enable-background:new 0 0 64 64.001;" xml:space="preserve">
<g id="Elipse_67_">
	<g>
		<path style="fill-rule:evenodd;clip-rule:evenodd;fill:#CCCCCC;" d="M32,0C14.327,0,0,14.327,0,32.001c0,17.673,14.327,32,32,32
			s32-14.327,32-32C64,14.327,49.673,0,32,0z M32,60C16.536,60,4,47.464,4,32.001c0-15.465,12.536-28,28-28s28,12.535,28,28
			C60,47.464,47.464,60,32,60z"/>
	</g>
</g>
<g id="Download">
	<g>
		<path style="fill-rule:evenodd;clip-rule:evenodd;fill:#88C057;" d="M30.43,37.381c0.324,0.325,0.729,0.509,1.15,0.573
			C31.715,37.983,31.855,38,32,38c0.562,0,1.067-0.233,1.431-0.606c0.017-0.016,0.037-0.024,0.054-0.041l5.865-5.846
			c0.81-0.807,0.81-2.115,0-2.922c-0.81-0.808-2.123-0.808-2.933,0L34,30.994V20c0-1.105-0.896-2.001-2-2.001S30,18.895,30,20v11.09
			l-2.491-2.499c-0.807-0.811-2.114-0.811-2.921,0c-0.806,0.808-0.806,2.12,0,2.93L30.43,37.381z M42,42H22c-1.104,0-2,0.895-2,2
			c0,1.104,0.896,2,2,2h20c1.104,0,2-0.896,2-2C44,42.895,43.104,42,42,42z"/>
	</g>
</g>
<g>
</g>
<g>
</g>
<g>
</g>
<g>
</g>
<g>
</g>
<g>
</g>
<g>
</g>
<g>
</g>
<g>
</g>
<g>
</g>
<g>
</g>
<g>
</g>
<g>
</g>
<g>
</g>
<g>
</g>
</svg>
