<?xml version="1.0" encoding="iso-8859-1"?>
<!-- Generator: Adobe Illustrator 16.0.0, SVG Export Plug-In . SVG Version: 6.00 Build 0)  -->
<!DOCTYPE svg PUBLIC "-//W3C//DTD SVG 1.1//EN" "http://www.w3.org/Graphics/SVG/1.1/DTD/svg11.dtd">
<svg version="1.1" id="Layer_1" xmlns="http://www.w3.org/2000/svg" xmlns:xlink="http://www.w3.org/1999/xlink" x="0px" y="0px"
	 width="64px" height="64.001px" viewBox="0 0 64 64.001" style="enable-background:new 0 0 64 64.001;" xml:space="preserve">
<g id="Elipse_86_">
	<g>
		<path style="fill-rule:evenodd;clip-rule:evenodd;fill:#CCCCCC;" d="M32,0C14.327,0,0,14.328,0,32.001s14.327,32,32,32
			s32-14.327,32-32S49.673,0,32,0z M32,60.002c-15.464,0-28-12.537-28-28.001c0-15.465,12.536-28,28-28s28,12.535,28,28
			C60,47.465,47.464,60.002,32,60.002z"/>
	</g>
</g>
<g id="Eject">
	<g>
		<path style="fill-rule:evenodd;clip-rule:evenodd;fill:#48A0DC;" d="M40,38.001H24c-1.104,0-2,0.896-2,2
			c0,1.105,0.896,2.001,2,2.001h16c1.105,0,2.001-0.896,2.001-2.001C42.001,38.896,41.105,38.001,40,38.001z M23.999,36.001H40
			c1.104,0,1.999-0.896,1.999-2c0-0.372-0.128-0.7-0.305-0.998l-7.623-12.01c-0.412-0.648-1.168-0.978-1.937-0.965
			c-0.046-0.006-0.089-0.005-0.135-0.008c-0.046,0.003-0.09,0.002-0.135,0.008c-0.769-0.013-1.524,0.316-1.937,0.965L22.326,32.97
			c-0.189,0.306-0.328,0.646-0.328,1.031C21.998,35.105,22.895,36.001,23.999,36.001z"/>
	</g>
</g>
<g>
</g>
<g>
</g>
<g>
</g>
<g>
</g>
<g>
</g>
<g>
</g>
<g>
</g>
<g>
</g>
<g>
</g>
<g>
</g>
<g>
</g>
<g>
</g>
<g>
</g>
<g>
</g>
<g>
</g>
</svg>
