<?xml version="1.0" encoding="iso-8859-1"?>
<!-- Generator: Adobe Illustrator 16.0.0, SVG Export Plug-In . SVG Version: 6.00 Build 0)  -->
<!DOCTYPE svg PUBLIC "-//W3C//DTD SVG 1.1//EN" "http://www.w3.org/Graphics/SVG/1.1/DTD/svg11.dtd">
<svg version="1.1" id="Layer_1" xmlns="http://www.w3.org/2000/svg" xmlns:xlink="http://www.w3.org/1999/xlink" x="0px" y="0px"
	 width="64px" height="64px" viewBox="0 0 64 64" style="enable-background:new 0 0 64 64;" xml:space="preserve">
<g id="Elipse_43_">
	<g>
		<path style="fill-rule:evenodd;clip-rule:evenodd;fill:#CCCCCC;" d="M32,0C14.327,0,0,14.327,0,32c0,17.672,14.327,32,32,32
			s32-14.328,32-32C64,14.327,49.673,0,32,0z M32,60C16.536,60,4,47.464,4,32C4,16.537,16.536,3.999,32,3.999S60,16.537,60,32
			C60,47.464,47.464,60,32,60z"/>
	</g>
</g>
<g id="Equal">
	<g>
		<path style="fill-rule:evenodd;clip-rule:evenodd;fill:#48A0DC;" d="M24,29.999h16c1.105,0,2.001-0.894,2.001-1.999
			c0-1.104-0.896-2-2.001-2H24c-1.104,0-2,0.896-2,2C22,29.105,22.896,29.999,24,29.999z M40,34H24c-1.104,0-2,0.896-2,2
			c0,1.104,0.896,2,2,2h16c1.105,0,2.001-0.896,2.001-2C42.001,34.896,41.105,34,40,34z"/>
	</g>
</g>
<g>
</g>
<g>
</g>
<g>
</g>
<g>
</g>
<g>
</g>
<g>
</g>
<g>
</g>
<g>
</g>
<g>
</g>
<g>
</g>
<g>
</g>
<g>
</g>
<g>
</g>
<g>
</g>
<g>
</g>
</svg>
