<?xml version="1.0" encoding="iso-8859-1"?>
<!-- Generator: Adobe Illustrator 16.0.0, SVG Export Plug-In . SVG Version: 6.00 Build 0)  -->
<!DOCTYPE svg PUBLIC "-//W3C//DTD SVG 1.1//EN" "http://www.w3.org/Graphics/SVG/1.1/DTD/svg11.dtd">
<svg version="1.1" id="Layer_1" xmlns="http://www.w3.org/2000/svg" xmlns:xlink="http://www.w3.org/1999/xlink" x="0px" y="0px"
	 width="64px" height="63.999px" viewBox="0 0 64 63.999" style="enable-background:new 0 0 64 63.999;" xml:space="preserve">
<g id="Elipse_83_">
	<g>
		<path style="fill-rule:evenodd;clip-rule:evenodd;fill:#CCCCCC;" d="M32,0C14.327,0,0,14.326,0,31.999c0,17.674,14.327,32,32,32
			s32-14.326,32-32C64,14.326,49.673,0,32,0z M32,60C16.536,60,4,47.463,4,31.999s12.536-28,28-28s28,12.536,28,28S47.464,60,32,60z
			"/>
	</g>
</g>
<g id="Equalizer">
	<g>
		<path style="fill-rule:evenodd;clip-rule:evenodd;fill:#88C057;" d="M44,27.999v-6c0-1.104-0.896-2-2-2s-2,0.896-2,2v6
			c-1.104,0-2,0.896-2,2c0,1.104,0.896,2,2,2v9.999c0,1.105,0.896,2.001,2,2.001s2-0.896,2-2.001v-9.999c1.104,0,2-0.896,2-2
			C46,28.896,45.104,27.999,44,27.999z M34,26v-4.001c0-1.104-0.896-2-2-2s-2,0.896-2,2V26c-1.104,0-2,0.894-2,1.999
			c0,1.104,0.896,2,2,2v11.999c0,1.105,0.896,2.001,2,2.001s2-0.896,2-2.001V29.999c1.104,0,2-0.896,2-2C36,26.894,35.104,26,34,26z
			 M24,34V21.999c0-1.104-0.896-2-2-2s-2,0.896-2,2V34c-1.104,0-2,0.895-2,2c0,1.104,0.896,1.999,2,1.999v3.999
			c0,1.105,0.896,2.001,2,2.001s2-0.896,2-2.001v-3.999c1.104,0,2-0.896,2-1.999C26,34.895,25.104,34,24,34z"/>
	</g>
</g>
<g>
</g>
<g>
</g>
<g>
</g>
<g>
</g>
<g>
</g>
<g>
</g>
<g>
</g>
<g>
</g>
<g>
</g>
<g>
</g>
<g>
</g>
<g>
</g>
<g>
</g>
<g>
</g>
<g>
</g>
</svg>
