<?xml version="1.0" encoding="iso-8859-1"?>
<!-- Generator: Adobe Illustrator 16.0.0, SVG Export Plug-In . SVG Version: 6.00 Build 0)  -->
<!DOCTYPE svg PUBLIC "-//W3C//DTD SVG 1.1//EN" "http://www.w3.org/Graphics/SVG/1.1/DTD/svg11.dtd">
<svg version="1.1" id="Layer_1" xmlns="http://www.w3.org/2000/svg" xmlns:xlink="http://www.w3.org/1999/xlink" x="0px" y="0px"
	 width="64px" height="63.999px" viewBox="0 0 64 63.999" style="enable-background:new 0 0 64 63.999;" xml:space="preserve">
<g id="Elipse_82_">
	<g>
		<path style="fill-rule:evenodd;clip-rule:evenodd;fill:#CCCCCC;" d="M32,0C14.326,0,0,14.326,0,31.999c0,17.674,14.326,32,32,32
			c17.673,0,32-14.326,32-32C64,14.326,49.673,0,32,0z M32,60C16.536,60,4,47.463,4,31.999s12.536-28,28-28s28,12.536,28,28
			S47.464,60,32,60z"/>
	</g>
</g>
<g id="Arrow_9_">
	<g>
		<path style="fill-rule:evenodd;clip-rule:evenodd;fill:#ED7161;" d="M44,17.998h-6c-1.104,0-2,0.896-2,2c0,1.105,0.896,2,2,2h1.05
			l-4.412,4.467c-0.811,0.816-0.811,2.141-0.001,2.956c0.81,0.816,2.122,0.816,2.933,0L42,24.936v1.063c0,1.104,0.896,2,2,2
			s2-0.896,2-2v-6.001C46,18.895,45.104,17.998,44,17.998z M26.474,34.638l-4.453,4.461v-1.057c0-1.1-0.899-1.99-2.01-1.99
			S18,36.942,18,38.042v5.968c0,1.099,0.9,1.989,2.011,1.989h6.031c1.11,0,2.01-0.891,2.01-1.989c0-1.1-0.899-1.988-2.01-1.988
			h-1.057l4.436-4.444c0.813-0.812,0.813-2.129,0-2.939C28.607,33.825,27.288,33.825,26.474,34.638z M43.988,36
			c-1.097,0-1.984,0.895-1.984,1.999v1.052l-4.434-4.412c-0.811-0.811-2.124-0.811-2.934-0.001c-0.811,0.81-0.811,2.122,0,2.932
			l4.45,4.429h-1.05c-1.097,0-1.985,0.896-1.985,2.001s0.889,2,1.985,2h5.951c1.097,0,1.985-0.896,1.985-2v-6
			C45.974,36.895,45.085,36,43.988,36z M24.947,22.021h1.057c1.103,0,1.996-0.9,1.996-2.011C28,18.9,27.106,18,26.004,18h-5.982
			c-1.102,0-1.995,0.9-1.995,2.01v6.031c0,1.11,0.894,2.011,1.995,2.011c1.104,0,1.995-0.9,1.995-2.011v-1.057l4.457,4.435
			c0.814,0.814,2.135,0.815,2.948,0.002c0.815-0.814,0.815-2.133,0-2.947L24.947,22.021z"/>
	</g>
</g>
<g>
</g>
<g>
</g>
<g>
</g>
<g>
</g>
<g>
</g>
<g>
</g>
<g>
</g>
<g>
</g>
<g>
</g>
<g>
</g>
<g>
</g>
<g>
</g>
<g>
</g>
<g>
</g>
<g>
</g>
</svg>
