<?xml version="1.0" encoding="iso-8859-1"?>
<!-- Generator: Adobe Illustrator 16.0.0, SVG Export Plug-In . SVG Version: 6.00 Build 0)  -->
<!DOCTYPE svg PUBLIC "-//W3C//DTD SVG 1.1//EN" "http://www.w3.org/Graphics/SVG/1.1/DTD/svg11.dtd">
<svg version="1.1" id="Layer_1" xmlns="http://www.w3.org/2000/svg" xmlns:xlink="http://www.w3.org/1999/xlink" x="0px" y="0px"
	 width="64px" height="64px" viewBox="0 0 64 64" style="enable-background:new 0 0 64 64;" xml:space="preserve">
<g id="Elipse_26_">
	<g>
		<path style="fill-rule:evenodd;clip-rule:evenodd;fill:#CCCCCC;" d="M32,0C14.326,0,0,14.327,0,32.001C0,49.674,14.326,64,32,64
			c17.673,0,32-14.326,32-31.999C64,14.327,49.673,0,32,0z M32,60C16.536,60,4,47.465,4,32.001s12.536-28,28-28s28,12.536,28,28
			S47.464,60,32,60z"/>
	</g>
</g>
<g id="Home">
	<g>
		<path style="fill-rule:evenodd;clip-rule:evenodd;fill:#48A0DC;" d="M40,34.001c-1.104,0-2,0.896-2,2v6H26v-6c0-1.104-0.896-2-2-2
			s-2,0.896-2,2v8c0,1.104,0.896,2,2,2h16c1.104,0,2-0.896,2-2v-8C42,34.896,41.104,34.001,40,34.001z M45.421,30.401L33.6,18.58
			c-0.439-0.439-1.025-0.634-1.6-0.601c-0.575-0.033-1.16,0.161-1.6,0.601L18.579,30.401c-0.816,0.816-0.816,2.14,0,2.955
			c0.815,0.816,2.139,0.816,2.955,0L32,22.891l10.466,10.466c0.815,0.816,2.14,0.816,2.955,0
			C46.237,32.541,46.237,31.218,45.421,30.401z"/>
	</g>
</g>
<g>
</g>
<g>
</g>
<g>
</g>
<g>
</g>
<g>
</g>
<g>
</g>
<g>
</g>
<g>
</g>
<g>
</g>
<g>
</g>
<g>
</g>
<g>
</g>
<g>
</g>
<g>
</g>
<g>
</g>
</svg>
