<?xml version="1.0" encoding="iso-8859-1"?>
<!-- Generator: Adobe Illustrator 16.0.0, SVG Export Plug-In . SVG Version: 6.00 Build 0)  -->
<!DOCTYPE svg PUBLIC "-//W3C//DTD SVG 1.1//EN" "http://www.w3.org/Graphics/SVG/1.1/DTD/svg11.dtd">
<svg version="1.1" id="Layer_1" xmlns="http://www.w3.org/2000/svg" xmlns:xlink="http://www.w3.org/1999/xlink" x="0px" y="0px"
	 width="64px" height="64px" viewBox="0 0 64 64" style="enable-background:new 0 0 64 64;" xml:space="preserve">
<g id="Elipse_33_">
	<g>
		<path style="fill-rule:evenodd;clip-rule:evenodd;fill:#CCCCCC;" d="M32,0C14.327,0,0,14.327,0,32.001C0,49.674,14.327,64,32,64
			c17.673,0,32-14.326,32-31.999C64,14.327,49.673,0,32,0z M32,60C16.536,60,4,47.465,4,32.001s12.536-28,28-28s28,12.536,28,28
			S47.464,60,32,60z"/>
	</g>
</g>
<g id="Location">
	<g>
		<path style="fill:#88C057;" d="M41.789,22.186c-0.296-0.296-0.723-0.206-1.083-0.084l-21.819,7.654
			c-0.518,0.166-0.897,0.637-0.897,1.21c0,0.586,0.504,0.925,0.931,1.218l10.474,2.409l2.408,10.486
			c0.292,0.427,0.631,0.933,1.217,0.933c0.572-0.001,1.042-0.381,1.208-0.899l7.646-21.843
			C41.996,22.909,42.085,22.482,41.789,22.186z"/>
	</g>
</g>
<g>
</g>
<g>
</g>
<g>
</g>
<g>
</g>
<g>
</g>
<g>
</g>
<g>
</g>
<g>
</g>
<g>
</g>
<g>
</g>
<g>
</g>
<g>
</g>
<g>
</g>
<g>
</g>
<g>
</g>
</svg>
