<?xml version="1.0" encoding="iso-8859-1"?>
<!-- Generator: Adobe Illustrator 16.0.0, SVG Export Plug-In . SVG Version: 6.00 Build 0)  -->
<!DOCTYPE svg PUBLIC "-//W3C//DTD SVG 1.1//EN" "http://www.w3.org/Graphics/SVG/1.1/DTD/svg11.dtd">
<svg version="1.1" id="Layer_1" xmlns="http://www.w3.org/2000/svg" xmlns:xlink="http://www.w3.org/1999/xlink" x="0px" y="0px"
	 width="64px" height="63.999px" viewBox="0 0 64 63.999" style="enable-background:new 0 0 64 63.999;" xml:space="preserve">
<g id="Elipse_63_">
	<g>
		<path style="fill-rule:evenodd;clip-rule:evenodd;fill:#CCCCCC;" d="M32,0C14.327,0,0,14.327,0,31.999c0,17.674,14.327,32,32,32
			s32-14.326,32-32C64,14.327,49.673,0,32,0z M32,60C16.536,60,4,47.464,4,31.999C4,16.535,16.536,4,32,4s28,12.535,28,27.999
			C60,47.464,47.464,60,32,60z"/>
	</g>
</g>
<g id="Lock_3_">
	<g>
		<path style="fill-rule:evenodd;clip-rule:evenodd;fill:#ED7161;" d="M40,31.999V28c0-4.419-3.582-8-8-8s-8,3.581-8,8v3.999
			c-1.104,0-2,0.896-2,2.001v7.999C22,43.104,22.896,44,24,44h16c1.104,0,2-0.896,2-2.001V34C42,32.895,41.104,31.999,40,31.999z
			 M32,39.999c-1.104,0-2-0.895-2-1.999s0.896-2,2-2s2,0.896,2,2S33.104,39.999,32,39.999z M36,31.999h-8V28
			c0-2.21,1.791-4.001,4-4.001S36,25.79,36,28V31.999z"/>
	</g>
</g>
<g>
</g>
<g>
</g>
<g>
</g>
<g>
</g>
<g>
</g>
<g>
</g>
<g>
</g>
<g>
</g>
<g>
</g>
<g>
</g>
<g>
</g>
<g>
</g>
<g>
</g>
<g>
</g>
<g>
</g>
</svg>
