<?xml version="1.0" encoding="iso-8859-1"?>
<!-- Generator: Adobe Illustrator 16.0.0, SVG Export Plug-In . SVG Version: 6.00 Build 0)  -->
<!DOCTYPE svg PUBLIC "-//W3C//DTD SVG 1.1//EN" "http://www.w3.org/Graphics/SVG/1.1/DTD/svg11.dtd">
<svg version="1.1" id="Layer_1" xmlns="http://www.w3.org/2000/svg" xmlns:xlink="http://www.w3.org/1999/xlink" x="0px" y="0px"
	 width="64px" height="64.001px" viewBox="0 0 64 64.001" style="enable-background:new 0 0 64 64.001;" xml:space="preserve">
<g id="Elipse_68_">
	<g>
		<path style="fill-rule:evenodd;clip-rule:evenodd;fill:#CCCCCC;" d="M32,0C14.327,0,0,14.327,0,32.001c0,17.673,14.327,32,32,32
			s32-14.327,32-32C64,14.327,49.673,0,32,0z M32,60C16.536,60,4,47.464,4,32.001c0-15.465,12.536-28,28-28s28,12.535,28,28
			C60,47.464,47.464,60,32,60z"/>
	</g>
</g>
<g id="Magnifier">
	<g>
		<path style="fill-rule:evenodd;clip-rule:evenodd;fill:#48A0DC;" d="M45.333,42.132l-5.408-5.407
			c1.303-1.919,2.066-4.235,2.066-6.73c0-6.625-5.371-11.996-11.996-11.996S18,23.37,18,29.995s5.37,11.996,11.995,11.996
			c2.495,0,4.811-0.763,6.73-2.066l5.407,5.407c0.884,0.884,2.316,0.884,3.2,0S46.217,43.017,45.333,42.132z M29.995,37.998
			c-4.421,0-8.004-3.583-8.004-8.003c0-4.422,3.583-8.005,8.004-8.005S38,25.573,38,29.995C38,34.415,34.416,37.998,29.995,37.998z"
			/>
	</g>
</g>
<g>
</g>
<g>
</g>
<g>
</g>
<g>
</g>
<g>
</g>
<g>
</g>
<g>
</g>
<g>
</g>
<g>
</g>
<g>
</g>
<g>
</g>
<g>
</g>
<g>
</g>
<g>
</g>
<g>
</g>
</svg>
