<?xml version="1.0" encoding="iso-8859-1"?>
<!-- Generator: Adobe Illustrator 16.0.0, SVG Export Plug-In . SVG Version: 6.00 Build 0)  -->
<!DOCTYPE svg PUBLIC "-//W3C//DTD SVG 1.1//EN" "http://www.w3.org/Graphics/SVG/1.1/DTD/svg11.dtd">
<svg version="1.1" id="Layer_1" xmlns="http://www.w3.org/2000/svg" xmlns:xlink="http://www.w3.org/1999/xlink" x="0px" y="0px"
	 width="64px" height="64.001px" viewBox="0 0 64 64.001" style="enable-background:new 0 0 64 64.001;" xml:space="preserve">
<g id="Elipse_13_">
	<g>
		<path style="fill-rule:evenodd;clip-rule:evenodd;fill:#CCCCCC;" d="M32,0C14.327,0,0,14.327,0,32
			c0,17.674,14.327,32.001,32,32.001S64,49.674,64,32C64,14.327,49.673,0,32,0z M32,60C16.536,60,4,47.465,4,32
			C4,16.537,16.536,4.001,32,4.001S60,16.537,60,32C60,47.465,47.464,60,32,60z"/>
	</g>
</g>
<g id="Info">
	<g>
		<path style="fill-rule:evenodd;clip-rule:evenodd;fill:#48A0DC;" d="M24.002,26.002h18c1.104,0,2-0.896,2-2s-0.896-2-2-2h-18
			c-1.104,0-2.001,0.896-2.001,2S22.897,26.002,24.002,26.002z M42.002,30.002h-18c-1.104,0-2.001,0.895-2.001,2
			c0,1.104,0.896,2,2.001,2h18c1.104,0,2-0.896,2-2C44.002,30.896,43.106,30.002,42.002,30.002z M42.002,38.002h-18
			c-1.104,0-2.001,0.896-2.001,2s0.896,2,2.001,2h18c1.104,0,2-0.896,2-2S43.106,38.002,42.002,38.002z"/>
	</g>
</g>
<g>
</g>
<g>
</g>
<g>
</g>
<g>
</g>
<g>
</g>
<g>
</g>
<g>
</g>
<g>
</g>
<g>
</g>
<g>
</g>
<g>
</g>
<g>
</g>
<g>
</g>
<g>
</g>
<g>
</g>
</svg>
