<?xml version="1.0" encoding="iso-8859-1"?>
<!-- Generator: Adobe Illustrator 16.0.0, SVG Export Plug-In . SVG Version: 6.00 Build 0)  -->
<!DOCTYPE svg PUBLIC "-//W3C//DTD SVG 1.1//EN" "http://www.w3.org/Graphics/SVG/1.1/DTD/svg11.dtd">
<svg version="1.1" id="Layer_1" xmlns="http://www.w3.org/2000/svg" xmlns:xlink="http://www.w3.org/1999/xlink" x="0px" y="0px"
	 width="64px" height="64.001px" viewBox="0 0 64 64.001" style="enable-background:new 0 0 64 64.001;" xml:space="preserve">
<g id="Elipse_14_">
	<g>
		<path style="fill-rule:evenodd;clip-rule:evenodd;fill:#CCCCCC;" d="M32,0C14.327,0,0,14.327,0,32
			c0,17.674,14.327,32.001,32,32.001S64,49.674,64,32C64,14.327,49.673,0,32,0z M32,60C16.536,60,4,47.465,4,32
			C4,16.537,16.536,4.001,32,4.001S60,16.537,60,32C60,47.465,47.464,60,32,60z"/>
	</g>
</g>
<g id="Dots">
	<g>
		<path style="fill-rule:evenodd;clip-rule:evenodd;fill:#9B7CAB;" d="M32,24.002c2.209,0,4-1.791,4-4s-1.791-4-4-4s-4,1.791-4,4
			S29.791,24.002,32,24.002z M32,28.002c-2.209,0-4,1.791-4,4s1.791,4,4,4s4-1.791,4-4S34.209,28.002,32,28.002z M32,40.002
			c-2.209,0-4,1.791-4,4s1.791,4,4,4s4-1.791,4-4S34.209,40.002,32,40.002z"/>
	</g>
</g>
<g>
</g>
<g>
</g>
<g>
</g>
<g>
</g>
<g>
</g>
<g>
</g>
<g>
</g>
<g>
</g>
<g>
</g>
<g>
</g>
<g>
</g>
<g>
</g>
<g>
</g>
<g>
</g>
<g>
</g>
</svg>
