<?xml version="1.0" encoding="iso-8859-1"?>
<!-- Generator: Adobe Illustrator 16.0.0, SVG Export Plug-In . SVG Version: 6.00 Build 0)  -->
<!DOCTYPE svg PUBLIC "-//W3C//DTD SVG 1.1//EN" "http://www.w3.org/Graphics/SVG/1.1/DTD/svg11.dtd">
<svg version="1.1" id="Layer_1" xmlns="http://www.w3.org/2000/svg" xmlns:xlink="http://www.w3.org/1999/xlink" x="0px" y="0px"
	 width="64px" height="64.001px" viewBox="0 0 64 64.001" style="enable-background:new 0 0 64 64.001;" xml:space="preserve">
<g id="Elipse_15_">
	<g>
		<path style="fill-rule:evenodd;clip-rule:evenodd;fill:#CCCCCC;" d="M32,0C14.327,0,0,14.327,0,32
			c0,17.674,14.327,32.001,32,32.001S64,49.674,64,32C64,14.327,49.673,0,32,0z M32,60C16.536,60,4,47.465,4,32
			C4,16.537,16.536,4.001,32,4.001S60,16.537,60,32C60,47.465,47.464,60,32,60z"/>
	</g>
</g>
<g id="Music">
	<g>
		<path style="fill-rule:evenodd;clip-rule:evenodd;fill:#ED7161;" d="M42.199,20.618L27.8,18.025c-0.994-0.18-1.8,0.498-1.8,1.514
			V22v1.218v10.863C25.677,34.028,25.343,34,25,34c-2.762,0-5,1.79-5,4c0,2.209,2.238,4,5,4c2.565,0,4.655-1.552,4.942-3.542
			C29.977,38.311,30,38.158,30,38V25.777l10,1.802v10.502C39.677,38.028,39.343,38,39,38c-2.762,0-5,1.791-5,4s2.238,4,5,4
			c2.564,0,4.655-1.552,4.942-3.542C43.977,42.311,44,42.158,44,42V26.46V26v-3.218C44,21.766,43.194,20.798,42.199,20.618z"/>
	</g>
</g>
<g>
</g>
<g>
</g>
<g>
</g>
<g>
</g>
<g>
</g>
<g>
</g>
<g>
</g>
<g>
</g>
<g>
</g>
<g>
</g>
<g>
</g>
<g>
</g>
<g>
</g>
<g>
</g>
<g>
</g>
</svg>
