<?xml version="1.0" encoding="iso-8859-1"?>
<!-- Generator: Adobe Illustrator 16.0.0, SVG Export Plug-In . SVG Version: 6.00 Build 0)  -->
<!DOCTYPE svg PUBLIC "-//W3C//DTD SVG 1.1//EN" "http://www.w3.org/Graphics/SVG/1.1/DTD/svg11.dtd">
<svg version="1.1" id="Layer_1" xmlns="http://www.w3.org/2000/svg" xmlns:xlink="http://www.w3.org/1999/xlink" x="0px" y="0px"
	 width="64px" height="64px" viewBox="0 0 64 64" style="enable-background:new 0 0 64 64;" xml:space="preserve">
<g id="Elipse_49_">
	<g>
		<path style="fill-rule:evenodd;clip-rule:evenodd;fill:#CCCCCC;" d="M32,0C14.327,0,0,14.327,0,32c0,17.672,14.327,32,32,32
			c17.673,0,32-14.328,32-32C64,14.327,49.673,0,32,0z M32,60C16.536,60,4,47.464,4,32C4,16.537,16.536,3.999,32,3.999
			S60,16.537,60,32C60,47.464,47.464,60,32,60z"/>
	</g>
</g>
<g id="Ok_1_">
	<g>
		<path style="fill-rule:evenodd;clip-rule:evenodd;fill:#88C057;" d="M41.393,26.566c-0.788-0.789-2.065-0.789-2.854,0
			l-8.521,8.521l-4.509-4.518c-0.807-0.808-2.114-0.808-2.92,0c-0.807,0.809-0.807,2.118,0,2.927l5.84,5.851
			c0.209,0.209,0.452,0.362,0.71,0.463c0.745,0.342,1.652,0.212,2.265-0.402l9.988-9.987C42.181,28.633,42.181,27.354,41.393,26.566
			z"/>
	</g>
</g>
<g>
</g>
<g>
</g>
<g>
</g>
<g>
</g>
<g>
</g>
<g>
</g>
<g>
</g>
<g>
</g>
<g>
</g>
<g>
</g>
<g>
</g>
<g>
</g>
<g>
</g>
<g>
</g>
<g>
</g>
</svg>
