<?xml version="1.0" encoding="iso-8859-1"?>
<!-- Generator: Adobe Illustrator 16.0.0, SVG Export Plug-In . SVG Version: 6.00 Build 0)  -->
<!DOCTYPE svg PUBLIC "-//W3C//DTD SVG 1.1//EN" "http://www.w3.org/Graphics/SVG/1.1/DTD/svg11.dtd">
<svg version="1.1" id="Layer_1" xmlns="http://www.w3.org/2000/svg" xmlns:xlink="http://www.w3.org/1999/xlink" x="0px" y="0px"
	 width="64px" height="63.999px" viewBox="0 0 64 63.999" style="enable-background:new 0 0 64 63.999;" xml:space="preserve">
<g id="Elipse_85_">
	<g>
		<path style="fill-rule:evenodd;clip-rule:evenodd;fill:#CCCCCC;" d="M32,0C14.327,0,0,14.326,0,31.999c0,17.674,14.327,32,32,32
			c17.673,0,32-14.326,32-32C64,14.326,49.673,0,32,0z M32,60C16.536,60,4,47.463,4,31.999s12.536-28,28-28s28,12.536,28,28
			S47.464,60,32,60z"/>
	</g>
</g>
<g id="On">
	<g>
		<path style="fill-rule:evenodd;clip-rule:evenodd;fill:#88C057;" d="M36,20.696v4.382c2.389,1.384,4,3.962,4,6.921
			c0,4.419-3.582,8-8,8s-8-3.581-8-8c0-2.959,1.611-5.537,4-6.921v-4.382c-4.658,1.649-8,6.08-8,11.303c0,6.628,5.373,12,12,12
			s12-5.372,12-12C44,26.776,40.658,22.345,36,20.696z M32,27.999c1.104,0,2-0.896,2-1.999v-6.001C34,18.896,33.104,18,32,18
			s-2,0.896-2,1.999V26C30,27.104,30.896,27.999,32,27.999z"/>
	</g>
</g>
<g>
</g>
<g>
</g>
<g>
</g>
<g>
</g>
<g>
</g>
<g>
</g>
<g>
</g>
<g>
</g>
<g>
</g>
<g>
</g>
<g>
</g>
<g>
</g>
<g>
</g>
<g>
</g>
<g>
</g>
</svg>
