<?xml version="1.0" encoding="iso-8859-1"?>
<!-- Generator: Adobe Illustrator 16.0.0, SVG Export Plug-In . SVG Version: 6.00 Build 0)  -->
<!DOCTYPE svg PUBLIC "-//W3C//DTD SVG 1.1//EN" "http://www.w3.org/Graphics/SVG/1.1/DTD/svg11.dtd">
<svg version="1.1" id="Layer_1" xmlns="http://www.w3.org/2000/svg" xmlns:xlink="http://www.w3.org/1999/xlink" x="0px" y="0px"
	 width="64px" height="63.999px" viewBox="0 0 64 63.999" style="enable-background:new 0 0 64 63.999;" xml:space="preserve">
<g id="Elipse_72_">
	<g>
		<path style="fill-rule:evenodd;clip-rule:evenodd;fill:#CCCCCC;" d="M32,0C14.327,0,0,14.327,0,31.999c0,17.674,14.327,32,32,32
			s32-14.326,32-32C64,14.327,49.673,0,32,0z M32,60C16.536,60,4,47.463,4,31.999s12.536-28,28-28s28,12.536,28,28S47.464,60,32,60z
			"/>
	</g>
</g>
<g id="Playlist">
	<g>
		<path style="fill-rule:evenodd;clip-rule:evenodd;fill:#ED7161;" d="M28,26h16c1.104,0,2-0.896,2-2s-0.896-2-2-2H28
			c-1.104,0-2,0.896-2,2S26.896,26,28,26z M20,22c-1.104,0-2,0.896-2,2s0.896,2,2,2s2-0.896,2-2S21.104,22,20,22z M44,30.001H28
			c-1.104,0-2,0.896-2,1.999c0,1.104,0.896,2,2,2h16c1.104,0,2-0.896,2-2C46,30.896,45.104,30.001,44,30.001z M20,30.001
			c-1.104,0-2,0.896-2,1.999c0,1.104,0.896,2,2,2s2-0.896,2-2C22,30.896,21.104,30.001,20,30.001z M44,38.001H28
			c-1.104,0-2,0.895-2,1.999s0.896,2,2,2h16c1.104,0,2-0.896,2-2S45.104,38.001,44,38.001z M20,38.001c-1.104,0-2,0.895-2,1.999
			s0.896,2,2,2s2-0.896,2-2S21.104,38.001,20,38.001z"/>
	</g>
</g>
<g>
</g>
<g>
</g>
<g>
</g>
<g>
</g>
<g>
</g>
<g>
</g>
<g>
</g>
<g>
</g>
<g>
</g>
<g>
</g>
<g>
</g>
<g>
</g>
<g>
</g>
<g>
</g>
<g>
</g>
</svg>
