<?xml version="1.0" encoding="iso-8859-1"?>
<!-- Generator: Adobe Illustrator 16.0.0, SVG Export Plug-In . SVG Version: 6.00 Build 0)  -->
<!DOCTYPE svg PUBLIC "-//W3C//DTD SVG 1.1//EN" "http://www.w3.org/Graphics/SVG/1.1/DTD/svg11.dtd">
<svg version="1.1" id="Layer_1" xmlns="http://www.w3.org/2000/svg" xmlns:xlink="http://www.w3.org/1999/xlink" x="0px" y="0px"
	 width="64px" height="63.999px" viewBox="0 0 64 63.999" style="enable-background:new 0 0 64 63.999;" xml:space="preserve">
<g id="Elipse_71_">
	<g>
		<path style="fill-rule:evenodd;clip-rule:evenodd;fill:#CCCCCC;" d="M32,0C14.327,0,0,14.327,0,31.999c0,17.674,14.327,32,32,32
			s32-14.326,32-32C64,14.327,49.673,0,32,0z M32,60C16.536,60,4,47.463,4,31.999s12.536-28,28-28s28,12.536,28,28S47.464,60,32,60z
			"/>
	</g>
</g>
<g id="Refresh_1_">
	<g>
		<path style="fill-rule:evenodd;clip-rule:evenodd;fill:#88C057;" d="M20,30.001h8c1.104,0,2-0.896,2-2.002
			C30,26.896,29.104,26,28,26h-3.989c1.823-2.427,4.72-4,7.989-4c4.838,0,8.873,3.437,9.799,8.001h4.042
			C44.869,23.218,39.052,18,32,18c-3.924,0-7.462,1.62-10,4.222v-2.221C22,18.896,21.104,18,20,18s-2,0.896-2,2.001v7.998
			C18,29.104,18.896,30.001,20,30.001z M44,34h-8c-1.104,0-2,0.896-2,2s0.896,2.001,2,2.001h3.988C38.165,40.427,35.27,42,32,42
			c-4.838,0-8.873-3.435-9.799-8l-4.042,0C19.132,40.782,24.948,46.001,32,46.001c3.924,0,7.462-1.621,10-4.224v2.222
			c0,1.106,0.896,2.002,2,2.002s2-0.896,2-2.002V36C46,34.896,45.104,34,44,34z"/>
	</g>
</g>
<g>
</g>
<g>
</g>
<g>
</g>
<g>
</g>
<g>
</g>
<g>
</g>
<g>
</g>
<g>
</g>
<g>
</g>
<g>
</g>
<g>
</g>
<g>
</g>
<g>
</g>
<g>
</g>
<g>
</g>
</svg>
