<?xml version="1.0" encoding="iso-8859-1"?>
<!-- Generator: Adobe Illustrator 16.0.0, SVG Export Plug-In . SVG Version: 6.00 Build 0)  -->
<!DOCTYPE svg PUBLIC "-//W3C//DTD SVG 1.1//EN" "http://www.w3.org/Graphics/SVG/1.1/DTD/svg11.dtd">
<svg version="1.1" id="Layer_1" xmlns="http://www.w3.org/2000/svg" xmlns:xlink="http://www.w3.org/1999/xlink" x="0px" y="0px"
	 width="64px" height="64px" viewBox="0 0 64 64" style="enable-background:new 0 0 64 64;" xml:space="preserve">
<g id="Elipse_48_">
	<g>
		<path style="fill-rule:evenodd;clip-rule:evenodd;fill:#CCCCCC;" d="M32,0C14.327,0,0,14.327,0,32c0,17.672,14.327,32,32,32
			s32-14.328,32-32C64,14.327,49.673,0,32,0z M32,60C16.536,60,4,47.464,4,32C4,16.537,16.536,3.999,32,3.999S60,16.537,60,32
			C60,47.464,47.464,60,32,60z"/>
	</g>
</g>
<g id="Remove_1_">
	<g>
		<path style="fill-rule:evenodd;clip-rule:evenodd;fill:#ED7161;" d="M39.43,36.728l-4.703-4.702l4.703-4.702
			c0.743-0.743,0.743-1.948,0-2.691c-0.743-0.742-1.948-0.742-2.691,0l-4.703,4.703l-4.762-4.762c-0.745-0.747-1.955-0.747-2.701,0
			c-0.746,0.744-0.746,1.954,0,2.7l4.762,4.762L24.63,36.74c-0.743,0.744-0.743,1.948,0,2.691s1.948,0.743,2.69,0l4.706-4.705
			l4.703,4.702c0.746,0.747,1.955,0.747,2.701,0C40.176,38.685,40.176,37.474,39.43,36.728z"/>
	</g>
</g>
<g>
</g>
<g>
</g>
<g>
</g>
<g>
</g>
<g>
</g>
<g>
</g>
<g>
</g>
<g>
</g>
<g>
</g>
<g>
</g>
<g>
</g>
<g>
</g>
<g>
</g>
<g>
</g>
<g>
</g>
</svg>
