<?xml version="1.0" encoding="iso-8859-1"?>
<!-- Generator: Adobe Illustrator 16.0.0, SVG Export Plug-In . SVG Version: 6.00 Build 0)  -->
<!DOCTYPE svg PUBLIC "-//W3C//DTD SVG 1.1//EN" "http://www.w3.org/Graphics/SVG/1.1/DTD/svg11.dtd">
<svg version="1.1" id="Layer_1" xmlns="http://www.w3.org/2000/svg" xmlns:xlink="http://www.w3.org/1999/xlink" x="0px" y="0px"
	 width="64px" height="63.999px" viewBox="0 0 64 63.999" style="enable-background:new 0 0 64 63.999;" xml:space="preserve">
<g id="Elipse_80_">
	<g>
		<path style="fill-rule:evenodd;clip-rule:evenodd;fill:#CCCCCC;" d="M32,0C14.327,0,0,14.326,0,31.999c0,17.674,14.327,32,32,32
			s32-14.326,32-32C64,14.326,49.673,0,32,0z M32,60C16.536,60,4,47.463,4,31.999s12.536-28,28-28s28,12.536,28,28S47.464,60,32,60z
			"/>
	</g>
</g>
<g id="Repeat">
	<g>
		<path style="fill-rule:evenodd;clip-rule:evenodd;fill:#48A0DC;" d="M22,29.999C22,27.789,23.791,26,26,26h11.078l-0.49,0.49
			c-0.806,0.807-0.806,2.113,0,2.921c0.807,0.806,2.114,0.806,2.921,0l3.841-3.842c0.615-0.615,0.758-1.521,0.434-2.274l0.08-0.08
			c-0.1-0.271-0.238-0.529-0.455-0.747l-3.878-3.877c-0.812-0.812-2.127-0.812-2.938,0c-0.812,0.813-0.812,2.127,0,2.939
			l0.469,0.469H26c-4.419,0-8,3.582-8,8V34c0,0.922,0.165,1.802,0.453,2.625L22,33.078V29.999z M45.546,27.373L42,30.92V34
			c0,2.208-1.791,3.999-4,3.999H26.921l0.429-0.429c0.806-0.808,0.806-2.114,0-2.92c-0.807-0.808-2.114-0.808-2.921,0l-3.841,3.84
			c-0.615,0.616-0.758,1.522-0.434,2.276l-0.018,0.018c0.099,0.27,0.237,0.529,0.455,0.746l3.877,3.879
			c0.812,0.811,2.128,0.811,2.939,0c0.811-0.813,0.811-2.129,0-2.939l-0.471-0.471H38c4.418,0,8-3.58,8-7.998v-4.001
			C46,29.077,45.835,28.196,45.546,27.373z"/>
	</g>
</g>
<g>
</g>
<g>
</g>
<g>
</g>
<g>
</g>
<g>
</g>
<g>
</g>
<g>
</g>
<g>
</g>
<g>
</g>
<g>
</g>
<g>
</g>
<g>
</g>
<g>
</g>
<g>
</g>
<g>
</g>
</svg>
