<?xml version="1.0" encoding="iso-8859-1"?>
<!-- Generator: Adobe Illustrator 16.0.0, SVG Export Plug-In . SVG Version: 6.00 Build 0)  -->
<!DOCTYPE svg PUBLIC "-//W3C//DTD SVG 1.1//EN" "http://www.w3.org/Graphics/SVG/1.1/DTD/svg11.dtd">
<svg version="1.1" id="Layer_1" xmlns="http://www.w3.org/2000/svg" xmlns:xlink="http://www.w3.org/1999/xlink" x="0px" y="0px"
	 width="64px" height="64.001px" viewBox="0 0 64 64.001" style="enable-background:new 0 0 64 64.001;" xml:space="preserve">
<g id="Elipse_40_">
	<g>
		<path style="fill-rule:evenodd;clip-rule:evenodd;fill:#CCCCCC;" d="M32,0C14.327,0,0,14.327,0,32
			c0,17.674,14.327,32.001,32,32.001S64,49.674,64,32C64,14.327,49.673,0,32,0z M32,60C16.536,60,4,47.464,4,32
			S16.536,4.001,32,4.001S60,16.536,60,32S47.464,60,32,60z"/>
	</g>
</g>
<g id="Arrow_6_">
	<g>
		<path style="fill-rule:evenodd;clip-rule:evenodd;fill:#48A0DC;" d="M42,32c0-0.562-0.233-1.066-0.606-1.43
			c-0.016-0.017-0.024-0.037-0.041-0.054l-5.846-5.865c-0.808-0.811-2.115-0.811-2.922,0c-0.808,0.809-0.808,2.122,0,2.933
			l2.409,2.417H24c-1.105,0-2.001,0.896-2.001,1.999c0,1.104,0.896,2,2.001,2h11.089l-2.5,2.491c-0.81,0.808-0.81,2.114,0,2.921
			c0.809,0.807,2.121,0.807,2.931,0l5.86-5.841c0.325-0.324,0.51-0.73,0.573-1.15C41.983,32.285,42,32.145,42,32z"/>
	</g>
</g>
<g>
</g>
<g>
</g>
<g>
</g>
<g>
</g>
<g>
</g>
<g>
</g>
<g>
</g>
<g>
</g>
<g>
</g>
<g>
</g>
<g>
</g>
<g>
</g>
<g>
</g>
<g>
</g>
<g>
</g>
</svg>
