<?xml version="1.0" encoding="iso-8859-1"?>
<!-- Generator: Adobe Illustrator 16.0.0, SVG Export Plug-In . SVG Version: 6.00 Build 0)  -->
<!DOCTYPE svg PUBLIC "-//W3C//DTD SVG 1.1//EN" "http://www.w3.org/Graphics/SVG/1.1/DTD/svg11.dtd">
<svg version="1.1" id="Layer_1" xmlns="http://www.w3.org/2000/svg" xmlns:xlink="http://www.w3.org/1999/xlink" x="0px" y="0px"
	 width="64px" height="64.001px" viewBox="0 0 64 64.001" style="enable-background:new 0 0 64 64.001;" xml:space="preserve">
<g id="Elipse_35_">
	<g>
		<path style="fill-rule:evenodd;clip-rule:evenodd;fill:#CCCCCC;" d="M32,0C14.327,0,0,14.327,0,32
			c0,17.674,14.327,32.001,32,32.001S64,49.674,64,32C64,14.327,49.673,0,32,0z M32,60C16.536,60,4,47.464,4,32
			S16.536,4.001,32,4.001S60,16.536,60,32S47.464,60,32,60z"/>
	</g>
</g>
<g id="Arrow_1_">
	<g>
		<path style="fill-rule:evenodd;clip-rule:evenodd;fill:#88C057;" d="M38,24H28c-1.104,0-2,0.896-2,2c0,1.105,0.896,2.001,2,2.001
			h5.036l-8.397,8.465c-0.81,0.817-0.811,2.141-0.001,2.957c0.81,0.815,2.122,0.815,2.933-0.001L36,30.924v5.077
			c0,1.104,0.896,2,2,2s2-0.896,2-2V26C40,24.896,39.104,24,38,24z"/>
	</g>
</g>
<g>
</g>
<g>
</g>
<g>
</g>
<g>
</g>
<g>
</g>
<g>
</g>
<g>
</g>
<g>
</g>
<g>
</g>
<g>
</g>
<g>
</g>
<g>
</g>
<g>
</g>
<g>
</g>
<g>
</g>
</svg>
