<?xml version="1.0" encoding="iso-8859-1"?>
<!-- Generator: Adobe Illustrator 16.0.0, SVG Export Plug-In . SVG Version: 6.00 Build 0)  -->
<!DOCTYPE svg PUBLIC "-//W3C//DTD SVG 1.1//EN" "http://www.w3.org/Graphics/SVG/1.1/DTD/svg11.dtd">
<svg version="1.1" id="Layer_1" xmlns="http://www.w3.org/2000/svg" xmlns:xlink="http://www.w3.org/1999/xlink" x="0px" y="0px"
	 width="64px" height="64.001px" viewBox="0 0 64 64.001" style="enable-background:new 0 0 64 64.001;" xml:space="preserve">
<g id="Elipse_78_">
	<g>
		<path style="fill-rule:evenodd;clip-rule:evenodd;fill:#CCCCCC;" d="M32,0C14.326,0,0,14.327,0,32.001s14.326,32,32,32
			c17.673,0,32-14.326,32-32S49.673,0,32,0z M32,60C16.536,60,4,47.465,4,32.001s12.536-28,28-28s28,12.536,28,28S47.464,60,32,60z"
			/>
	</g>
</g>
<g id="Settings">
	<g>
		<path style="fill:#ED7161;" d="M44.25,29.374l-1.301-0.426c-0.25-0.894-0.6-1.744-1.048-2.536l0.616-1.219
			c0.684-0.684,0.684-1.791,0-2.475l-1.237-1.237c-0.684-0.684-1.791-0.684-2.475,0l-1.217,0.617
			c-0.791-0.447-1.643-0.799-2.537-1.049l-0.427-1.301c0-0.966-0.784-1.75-1.75-1.75h-1.75c-0.967,0-1.75,0.784-1.75,1.75
			L28.95,21.05c-0.893,0.248-1.74,0.597-2.529,1.042l-1.228-0.61c-0.684-0.684-1.791-0.684-2.475,0l-1.237,1.237
			c-0.684,0.684-0.684,1.791,0,2.475l0.611,1.228c-0.443,0.785-0.791,1.629-1.039,2.516l-1.304,0.438c-0.967,0-1.75,0.784-1.75,1.75
			v1.75c0,0.968,0.783,1.75,1.75,1.75l1.305,0.438c0.247,0.886,0.595,1.73,1.038,2.516l-0.611,1.228
			c-0.684,0.684-0.684,1.792,0,2.475l1.237,1.237c0.684,0.684,1.791,0.684,2.475,0l1.229-0.61c0.785,0.443,1.628,0.791,2.516,1.038
			l0.438,1.305c0,0.967,0.783,1.75,1.75,1.75h1.75c0.966,0,1.75-0.783,1.75-1.75l0.438-1.305c0.89-0.248,1.736-0.599,2.523-1.044
			l1.22,0.616c0.684,0.684,1.791,0.684,2.475,0l1.237-1.237c0.684-0.683,0.684-1.791,0-2.475L41.9,37.589
			c0.447-0.792,0.798-1.642,1.048-2.537l1.302-0.428c0.966,0,1.75-0.782,1.75-1.75v-1.75C46,30.158,45.216,29.374,44.25,29.374z
			 M32,38c-3.313,0-6-2.687-6-6s2.687-6.001,6-6.001c3.313,0,6,2.688,6,6.001S35.313,38,32,38z"/>
	</g>
</g>
<g>
</g>
<g>
</g>
<g>
</g>
<g>
</g>
<g>
</g>
<g>
</g>
<g>
</g>
<g>
</g>
<g>
</g>
<g>
</g>
<g>
</g>
<g>
</g>
<g>
</g>
<g>
</g>
<g>
</g>
</svg>
