<?xml version="1.0" encoding="iso-8859-1"?>
<!-- Generator: Adobe Illustrator 16.0.0, SVG Export Plug-In . SVG Version: 6.00 Build 0)  -->
<!DOCTYPE svg PUBLIC "-//W3C//DTD SVG 1.1//EN" "http://www.w3.org/Graphics/SVG/1.1/DTD/svg11.dtd">
<svg version="1.1" id="Layer_1" xmlns="http://www.w3.org/2000/svg" xmlns:xlink="http://www.w3.org/1999/xlink" x="0px" y="0px"
	 width="64px" height="64px" viewBox="0 0 64 64" style="enable-background:new 0 0 64 64;" xml:space="preserve">
<g id="Elipse_29_">
	<g>
		<path style="fill-rule:evenodd;clip-rule:evenodd;fill:#CCCCCC;" d="M32,0C14.326,0,0,14.327,0,32.001C0,49.674,14.326,64,32,64
			c17.673,0,32-14.326,32-31.999C64,14.327,49.673,0,32,0z M32,60C16.536,60,4,47.465,4,32.001s12.536-28,28-28s28,12.536,28,28
			S47.464,60,32,60z"/>
	</g>
</g>
<g id="Sharea">
	<g>
		<path style="fill-rule:evenodd;clip-rule:evenodd;fill:#9B7CAB;" d="M40,34.002c-1.585,0-3.021,0.619-4.095,1.622l-5.951-2.909
			C29.981,32.48,30,32.243,30,32.002s-0.019-0.479-0.046-0.713l5.952-2.909c1.072,1.003,2.509,1.622,4.094,1.622
			c3.313,0,6-2.687,6-6.001c0-3.313-2.687-6-6-6c-3.314,0-6,2.687-6,6c0,0.248,0.02,0.491,0.049,0.73l-5.941,2.904
			c-1.073-1.011-2.516-1.635-4.107-1.635c-3.313,0-6,2.687-6,6.001c0,3.313,2.687,5.999,6,5.999c1.591,0,3.033-0.623,4.106-1.634
			l5.942,2.905C34.02,39.512,34,39.754,34,40.001c0,3.313,2.686,6.001,6,6.001c3.313,0,6-2.688,6-6.001S43.313,34.002,40,34.002z"/>
	</g>
</g>
<g>
</g>
<g>
</g>
<g>
</g>
<g>
</g>
<g>
</g>
<g>
</g>
<g>
</g>
<g>
</g>
<g>
</g>
<g>
</g>
<g>
</g>
<g>
</g>
<g>
</g>
<g>
</g>
<g>
</g>
</svg>
