<?xml version="1.0" encoding="iso-8859-1"?>
<!-- Generator: Adobe Illustrator 16.0.0, SVG Export Plug-In . SVG Version: 6.00 Build 0)  -->
<!DOCTYPE svg PUBLIC "-//W3C//DTD SVG 1.1//EN" "http://www.w3.org/Graphics/SVG/1.1/DTD/svg11.dtd">
<svg version="1.1" id="Layer_1" xmlns="http://www.w3.org/2000/svg" xmlns:xlink="http://www.w3.org/1999/xlink" x="0px" y="0px"
	 width="64px" height="63.999px" viewBox="0 0 64 63.999" style="enable-background:new 0 0 64 63.999;" xml:space="preserve">
<g id="Elipse_79_">
	<g>
		<path style="fill-rule:evenodd;clip-rule:evenodd;fill:#CCCCCC;" d="M32,0C14.327,0,0,14.326,0,31.999c0,17.674,14.327,32,32,32
			s32-14.326,32-32C64,14.326,49.673,0,32,0z M32,60C16.536,60,4,47.463,4,31.999s12.536-28,28-28s28,12.536,28,28S47.464,60,32,60z
			"/>
	</g>
</g>
<g id="Shuffle">
	<g>
		<path style="fill-rule:evenodd;clip-rule:evenodd;fill:#48A0DC;" d="M41.53,34.592c-0.812-0.813-2.127-0.813-2.938,0
			c-0.812,0.812-0.812,2.127,0,2.938l0.378,0.378c-1.966-0.328-3.396-1.578-4.569-3.201c-0.691,1.368-1.34,2.746-2.045,3.936
			c1.377,1.928,3.101,3.355,5.645,3.355c0.383,0,0.732,0,1.08,0l-0.492,0.492c-0.807,0.807-0.807,2.114,0,2.921
			c0.807,0.806,2.114,0.806,2.921,0l3.841-3.841c0.223-0.223,0.378-0.485,0.478-0.764c0.011-0.023,0.02-0.047,0.028-0.071
			c0.034-0.082,0.056-0.166,0.078-0.25c0.008-0.03,0.021-0.058,0.026-0.088c0.151-0.672-0.029-1.404-0.552-1.928L41.53,34.592z
			 M20,27.999c0,0,3.077,0,4,0c1.206,0,2.164,0.582,3,1.487c0.665-1.268,1.309-2.655,2.023-3.972
			c-0.842-0.921-1.806-1.516-3.023-1.516c-2.823,0-6,0-6,0c-1.104,0-2,0.896-2,2.001C18,27.104,18.896,27.999,20,27.999z
			 M38.989,26.089l-0.401,0.401c-0.807,0.807-0.807,2.113,0,2.921c0.807,0.806,2.114,0.806,2.921,0l3.841-3.842
			c0.223-0.222,0.377-0.484,0.477-0.762c0.012-0.024,0.021-0.05,0.031-0.075c0.029-0.073,0.048-0.148,0.069-0.224
			c0.01-0.039,0.025-0.075,0.033-0.114c0.151-0.672-0.029-1.403-0.552-1.927l-3.878-3.877c-0.812-0.812-2.127-0.812-2.938,0
			c-0.812,0.813-0.812,2.127,0,2.939l0.469,0.469c-0.342,0-0.685,0-1.061,0C30,21.999,30,36,24,36c-0.923,0-4,0-4,0
			c-1.104,0-2,0.895-2,1.999s0.896,2,2,2c0,0,3.177,0,6,0C31.734,39.999,31.993,27.22,38.989,26.089z"/>
	</g>
</g>
<g>
</g>
<g>
</g>
<g>
</g>
<g>
</g>
<g>
</g>
<g>
</g>
<g>
</g>
<g>
</g>
<g>
</g>
<g>
</g>
<g>
</g>
<g>
</g>
<g>
</g>
<g>
</g>
<g>
</g>
</svg>
