<?xml version="1.0" encoding="iso-8859-1"?>
<!-- Generator: Adobe Illustrator 16.0.0, SVG Export Plug-In . SVG Version: 6.00 Build 0)  -->
<!DOCTYPE svg PUBLIC "-//W3C//DTD SVG 1.1//EN" "http://www.w3.org/Graphics/SVG/1.1/DTD/svg11.dtd">
<svg version="1.1" id="Layer_1" xmlns="http://www.w3.org/2000/svg" xmlns:xlink="http://www.w3.org/1999/xlink" x="0px" y="0px"
	 width="64px" height="64px" viewBox="0 0 64 64" style="enable-background:new 0 0 64 64;" xml:space="preserve">
<g id="Elipse_32_">
	<g>
		<path style="fill-rule:evenodd;clip-rule:evenodd;fill:#CCCCCC;" d="M32,0C14.327,0,0,14.327,0,32.001C0,49.674,14.327,64,32,64
			s32-14.326,32-31.999C64,14.327,49.673,0,32,0z M32,60C16.536,60,4,47.465,4,32.001s12.536-28,28-28s28,12.536,28,28
			S47.464,60,32,60z"/>
	</g>
</g>
<g id="Contrast_2_">
	<g>
		<path style="fill-rule:evenodd;clip-rule:evenodd;fill:#48A0DC;" d="M44,30.002h-2.201c-0.795-3.917-3.882-6.997-7.799-7.793
			v-2.207c0-1.104-0.896-2-2-2s-2,0.896-2,2v2.207c-3.917,0.796-7.004,3.876-7.799,7.793H20c-1.104,0-2,0.896-2,2s0.896,2,2,2h2.201
			c0.795,3.917,3.882,6.995,7.799,7.791v2.209c0,1.104,0.896,2,2,2s2-0.896,2-2v-2.209c3.917-0.796,7.003-3.874,7.799-7.791H44
			c1.104,0,2-0.896,2-2S45.104,30.002,44,30.002z M37.664,33.968c-0.601,1.729-1.97,3.095-3.698,3.696
			c-0.161-0.942-0.977-1.662-1.966-1.662s-1.805,0.72-1.966,1.662c-1.728-0.602-3.097-1.967-3.698-3.696
			C27.28,33.808,28,32.991,28,32.002s-0.72-1.806-1.664-1.966c0.6-1.73,1.97-3.096,3.698-3.697c0.161,0.943,0.977,1.663,1.966,1.663
			s1.805-0.72,1.966-1.663c1.728,0.602,3.098,1.967,3.698,3.697C36.72,30.196,36,31.013,36,32.002S36.72,33.808,37.664,33.968z
			 M32,30.002c-1.104,0-2,0.896-2,2s0.896,2,2,2s2-0.896,2-2S33.104,30.002,32,30.002z"/>
	</g>
</g>
<g>
</g>
<g>
</g>
<g>
</g>
<g>
</g>
<g>
</g>
<g>
</g>
<g>
</g>
<g>
</g>
<g>
</g>
<g>
</g>
<g>
</g>
<g>
</g>
<g>
</g>
<g>
</g>
<g>
</g>
</svg>
