<?xml version="1.0" encoding="iso-8859-1"?>
<!-- Generator: Adobe Illustrator 16.0.0, SVG Export Plug-In . SVG Version: 6.00 Build 0)  -->
<!DOCTYPE svg PUBLIC "-//W3C//DTD SVG 1.1//EN" "http://www.w3.org/Graphics/SVG/1.1/DTD/svg11.dtd">
<svg version="1.1" id="Layer_1" xmlns="http://www.w3.org/2000/svg" xmlns:xlink="http://www.w3.org/1999/xlink" x="0px" y="0px"
	 width="64px" height="64.001px" viewBox="0 0 64 64.001" style="enable-background:new 0 0 64 64.001;" xml:space="preserve">
<g id="Elipse_39_">
	<g>
		<path style="fill-rule:evenodd;clip-rule:evenodd;fill:#CCCCCC;" d="M32,0C14.327,0,0,14.327,0,32
			c0,17.674,14.327,32.001,32,32.001S64,49.674,64,32C64,14.327,49.673,0,32,0z M32,60C16.536,60,4,47.464,4,32
			S16.536,4.001,32,4.001S60,16.536,60,32S47.464,60,32,60z"/>
	</g>
</g>
<g id="Arrow_5_">
	<g>
		<path style="fill-rule:evenodd;clip-rule:evenodd;fill:#88C057;" d="M39.411,28.479l-5.841-5.86
			c-0.325-0.326-0.731-0.51-1.153-0.573c-0.135-0.028-0.274-0.045-0.417-0.045c-0.561,0-1.065,0.232-1.429,0.604
			c-0.018,0.016-0.039,0.025-0.056,0.042l-5.865,5.846c-0.811,0.808-0.811,2.115,0,2.923c0.81,0.807,2.123,0.807,2.933,0L30,29.007
			v10.994c0,1.104,0.896,2,2,2s2-0.896,2-2v-11.09l2.491,2.499c0.806,0.81,2.114,0.81,2.92,0
			C40.218,30.602,40.218,29.289,39.411,28.479z"/>
	</g>
</g>
<g>
</g>
<g>
</g>
<g>
</g>
<g>
</g>
<g>
</g>
<g>
</g>
<g>
</g>
<g>
</g>
<g>
</g>
<g>
</g>
<g>
</g>
<g>
</g>
<g>
</g>
<g>
</g>
<g>
</g>
</svg>
