<?xml version="1.0" encoding="iso-8859-1"?>
<!-- Generator: Adobe Illustrator 16.0.0, SVG Export Plug-In . SVG Version: 6.00 Build 0)  -->
<!DOCTYPE svg PUBLIC "-//W3C//DTD SVG 1.1//EN" "http://www.w3.org/Graphics/SVG/1.1/DTD/svg11.dtd">
<svg version="1.1" id="Layer_1" xmlns="http://www.w3.org/2000/svg" xmlns:xlink="http://www.w3.org/1999/xlink" x="0px" y="0px"
	 width="64px" height="64.001px" viewBox="0 0 64 64.001" style="enable-background:new 0 0 64 64.001;" xml:space="preserve">
<g id="Elipse_66_">
	<g>
		<path style="fill-rule:evenodd;clip-rule:evenodd;fill:#CCCCCC;" d="M32,0C14.326,0,0,14.327,0,32.001c0,17.673,14.326,32,32,32
			c17.673,0,32-14.327,32-32C64,14.327,49.673,0,32,0z M32,60C16.536,60,4,47.464,4,32.001c0-15.465,12.536-28,28-28
			s28,12.535,28,28C60,47.464,47.464,60,32,60z"/>
	</g>
</g>
<g id="Upload">
	<g>
		<path style="fill-rule:evenodd;clip-rule:evenodd;fill:#48A0DC;" d="M27.583,27.414L30,25.005V36c0,1.105,0.896,2.001,2,2.001
			s2-0.896,2-2.001V24.911l2.49,2.498c0.807,0.81,2.114,0.81,2.921,0c0.807-0.809,0.807-2.121,0-2.931l-5.841-5.859
			c-0.324-0.325-0.729-0.509-1.15-0.573C32.284,18.017,32.145,18,32,18c-0.561,0-1.065,0.232-1.429,0.604
			c-0.018,0.016-0.039,0.025-0.056,0.042l-5.866,5.847c-0.81,0.807-0.81,2.115,0,2.922C25.46,28.222,26.772,28.222,27.583,27.414z
			 M42,42H22c-1.104,0-2,0.895-2,2c0,1.104,0.896,2,2,2h20c1.104,0,2-0.896,2-2C44,42.895,43.104,42,42,42z"/>
	</g>
</g>
<g>
</g>
<g>
</g>
<g>
</g>
<g>
</g>
<g>
</g>
<g>
</g>
<g>
</g>
<g>
</g>
<g>
</g>
<g>
</g>
<g>
</g>
<g>
</g>
<g>
</g>
<g>
</g>
<g>
</g>
</svg>
