<?xml version="1.0" encoding="iso-8859-1"?>
<!-- Generator: Adobe Illustrator 16.0.0, SVG Export Plug-In . SVG Version: 6.00 Build 0)  -->
<!DOCTYPE svg PUBLIC "-//W3C//DTD SVG 1.1//EN" "http://www.w3.org/Graphics/SVG/1.1/DTD/svg11.dtd">
<svg version="1.1" id="Layer_1" xmlns="http://www.w3.org/2000/svg" xmlns:xlink="http://www.w3.org/1999/xlink" x="0px" y="0px"
	 width="64px" height="63.999px" viewBox="0 0 64 63.999" style="enable-background:new 0 0 64 63.999;" xml:space="preserve">
<g id="Elipse_50_">
	<g>
		<path style="fill-rule:evenodd;clip-rule:evenodd;fill:#CCCCCC;" d="M32,0C14.327,0,0,14.326,0,31.999s14.327,32,32,32
			s32-14.327,32-32S49.673,0,32,0z M32,60C16.536,60,4,47.463,4,31.999s12.536-28,28-28s28,12.536,28,28S47.464,60,32,60z"/>
	</g>
</g>
<g id="Voice">
	<g>
		<path style="fill-rule:evenodd;clip-rule:evenodd;fill:#9B7CAB;" d="M40,29.999c0,4.419-3.582,8-8,8c-4.419,0-8-3.581-8-8h-4
			c0,5.944,4.327,10.867,10,11.821V44c0,1.104,0.896,1.999,2,1.999s2-0.896,2-1.999v-2.18c5.673-0.954,10-5.877,10-11.821H40z
			 M32,35.999c3.313,0,6-2.687,6-6v-6.001C38,20.685,35.313,18,32,18s-6,2.685-6,5.998v6.001C26,33.313,28.687,35.999,32,35.999z
			 M30,23.998c0-1.104,0.896-1.999,2-1.999s2,0.896,2,1.999v6.001c0,1.104-0.896,2-2,2s-2-0.896-2-2V23.998z"/>
	</g>
</g>
<g>
</g>
<g>
</g>
<g>
</g>
<g>
</g>
<g>
</g>
<g>
</g>
<g>
</g>
<g>
</g>
<g>
</g>
<g>
</g>
<g>
</g>
<g>
</g>
<g>
</g>
<g>
</g>
<g>
</g>
</svg>
