<?xml version="1.0" encoding="iso-8859-1"?>
<!-- Generator: Adobe Illustrator 16.0.0, SVG Export Plug-In . SVG Version: 6.00 Build 0)  -->
<!DOCTYPE svg PUBLIC "-//W3C//DTD SVG 1.1//EN" "http://www.w3.org/Graphics/SVG/1.1/DTD/svg11.dtd">
<svg version="1.1" id="Layer_1" xmlns="http://www.w3.org/2000/svg" xmlns:xlink="http://www.w3.org/1999/xlink" x="0px" y="0px"
	 width="64px" height="63.999px" viewBox="0 0 64 63.999" style="enable-background:new 0 0 64 63.999;" xml:space="preserve">
<g id="Elipse_74_">
	<g>
		<path style="fill-rule:evenodd;clip-rule:evenodd;fill:#CCCCCC;" d="M32,0C14.326,0,0,14.327,0,31.999c0,17.674,14.326,32,32,32
			c17.673,0,32-14.326,32-32C64,14.327,49.673,0,32,0z M32,60C16.536,60,4,47.463,4,31.999s12.536-28,28-28s28,12.536,28,28
			S47.464,60,32,60z"/>
	</g>
</g>
<g id="Speaker_1_">
	<g>
		<path style="fill-rule:evenodd;clip-rule:evenodd;fill:#48A0DC;" d="M28,20c-1.104,0-7,4.895-7,5.999h-1c-2.209,0-4,1.791-4,4.001
			v3.999C16,36.208,17.791,38,20,38h1c0,1.104,5.896,5.999,7,5.999s2-0.895,2-2v-20C30,20.895,29.104,20,28,20z"/>
	</g>
</g>
<g id="Plus_5_">
	<g>
		<path style="fill-rule:evenodd;clip-rule:evenodd;fill:#48A0DC;" d="M44,30.001h-2v-2.002C42,26.896,41.104,26,40,26
			c-1.105,0-2,0.896-2,1.999v2.002h-2c-1.104,0-2,0.896-2,1.999c0,1.104,0.896,2,2,2h2v2c0,1.104,0.895,2.001,2,2.001
			c1.104,0,2-0.896,2-2.001v-2h2c1.104,0,2-0.896,2-2C46,30.896,45.104,30.001,44,30.001z"/>
	</g>
</g>
<g>
</g>
<g>
</g>
<g>
</g>
<g>
</g>
<g>
</g>
<g>
</g>
<g>
</g>
<g>
</g>
<g>
</g>
<g>
</g>
<g>
</g>
<g>
</g>
<g>
</g>
<g>
</g>
<g>
</g>
</svg>
