<?xml version="1.0" encoding="iso-8859-1"?>
<!-- Generator: Adobe Illustrator 16.0.0, SVG Export Plug-In . SVG Version: 6.00 Build 0)  -->
<!DOCTYPE svg PUBLIC "-//W3C//DTD SVG 1.1//EN" "http://www.w3.org/Graphics/SVG/1.1/DTD/svg11.dtd">
<svg version="1.1" id="Layer_1" xmlns="http://www.w3.org/2000/svg" xmlns:xlink="http://www.w3.org/1999/xlink" x="0px" y="0px"
	 width="64px" height="63.999px" viewBox="0 0 64 63.999" style="enable-background:new 0 0 64 63.999;" xml:space="preserve">
<g id="Elipse_77_">
	<g>
		<path style="fill-rule:evenodd;clip-rule:evenodd;fill:#CCCCCC;" d="M32,0C14.327,0,0,14.327,0,31.999c0,17.674,14.327,32,32,32
			c17.673,0,32-14.326,32-32C64,14.327,49.673,0,32,0z M32,60C16.536,60,4,47.463,4,31.999s12.536-28,28-28s28,12.536,28,28
			S47.464,60,32,60z"/>
	</g>
</g>
<g id="Speaker_4_">
	<g>
		<path style="fill-rule:evenodd;clip-rule:evenodd;fill:#48A0DC;" d="M28,20c-1.104,0-7,4.895-7,5.999h-1c-2.209,0-4,1.791-4,4.001
			v3.999C16,36.208,17.791,38,20,38h1c0,1.104,5.896,5.999,7,5.999s2-0.895,2-2v-20C30,20.895,29.104,20,28,20z"/>
	</g>
</g>
<g id="Sound_1_">
	<g>
		<path style="fill-rule:evenodd;clip-rule:evenodd;fill:#48A0DC;" d="M42.392,25.999c-1.056-1.829-2.529-3.257-4.221-4.268
			c-0.057-0.041-0.109-0.087-0.171-0.123c-0.957-0.553-2.18-0.225-2.732,0.731S35.043,24.52,36,25.071c0,0,0,0,0,0l-0.003,0.006
			c1.179,0.677,2.202,1.66,2.931,2.923c0.729,1.262,1.067,2.64,1.065,4c0.002,1.36-0.336,2.738-1.065,4.001
			c-0.729,1.262-1.752,2.246-2.931,2.923L36,38.929c-0.957,0.552-1.285,1.775-0.732,2.731c0.552,0.957,1.776,1.284,2.732,0.732
			c0.066-0.039,0.123-0.087,0.183-0.132c1.687-1.01,3.155-2.436,4.208-4.26c1.094-1.894,1.601-3.961,1.599-6.001
			C43.992,29.96,43.485,27.894,42.392,25.999z M37.196,35.001c0.547-0.947,0.78-1.98,0.779-3.001c0.001-1.021-0.232-2.054-0.779-3
			c-0.495-0.856-1.175-1.528-1.954-2.021c-0.077-0.062-0.154-0.124-0.242-0.175c-0.957-0.552-2.18-0.225-2.732,0.732
			c-0.552,0.956-0.224,2.179,0.732,2.732l-0.002,0.004c0.295,0.167,0.552,0.411,0.734,0.727c0.183,0.316,0.26,0.661,0.26,1.001
			c0,0.341-0.077,0.685-0.26,1c-0.182,0.316-0.439,0.56-0.734,0.728L33,33.732c-0.957,0.552-1.285,1.774-0.732,2.731
			s1.776,1.284,2.732,0.732c0.084-0.048,0.157-0.108,0.23-0.166C36.014,36.535,36.699,35.861,37.196,35.001z"/>
	</g>
</g>
<g>
</g>
<g>
</g>
<g>
</g>
<g>
</g>
<g>
</g>
<g>
</g>
<g>
</g>
<g>
</g>
<g>
</g>
<g>
</g>
<g>
</g>
<g>
</g>
<g>
</g>
<g>
</g>
<g>
</g>
</svg>
