<?xml version="1.0" encoding="iso-8859-1"?>
<!-- Generator: Adobe Illustrator 16.0.0, SVG Export Plug-In . SVG Version: 6.00 Build 0)  -->
<!DOCTYPE svg PUBLIC "-//W3C//DTD SVG 1.1//EN" "http://www.w3.org/Graphics/SVG/1.1/DTD/svg11.dtd">
<svg version="1.1" id="Layer_1" xmlns="http://www.w3.org/2000/svg" xmlns:xlink="http://www.w3.org/1999/xlink" x="0px" y="0px"
	 width="64px" height="63.999px" viewBox="0 0 64 63.999" style="enable-background:new 0 0 64 63.999;" xml:space="preserve">
<g id="Elipse_75_">
	<g>
		<path style="fill-rule:evenodd;clip-rule:evenodd;fill:#CCCCCC;" d="M32,0C14.327,0,0,14.327,0,31.999c0,17.674,14.327,32,32,32
			s32-14.326,32-32C64,14.327,49.673,0,32,0z M32,60C16.536,60,4,47.463,4,31.999s12.536-28,28-28s28,12.536,28,28S47.464,60,32,60z
			"/>
	</g>
</g>
<g id="Speaker_2_">
	<g>
		<path style="fill-rule:evenodd;clip-rule:evenodd;fill:#48A0DC;" d="M28,20c-1.104,0-7,4.895-7,5.999h-1c-2.209,0-4,1.791-4,4.001
			v3.999C16,36.208,17.791,38,20,38h1c0,1.104,5.896,5.999,7,5.999s2-0.895,2-2v-20C30,20.895,29.104,20,28,20z"/>
	</g>
</g>
<g id="Mute">
	<g>
		<path style="fill-rule:evenodd;clip-rule:evenodd;fill:#48A0DC;" d="M45.43,38.729l-2.703-2.703l2.703-2.703
			c0.742-0.743,0.742-1.947,0-2.691c-0.743-0.742-1.948-0.742-2.691,0l-2.703,2.703l-2.762-2.762c-0.746-0.747-1.955-0.747-2.701,0
			c-0.746,0.744-0.746,1.953,0,2.701l2.762,2.762l-2.705,2.705c-0.743,0.744-0.743,1.948,0,2.69c0.743,0.744,1.947,0.744,2.69,0
			l2.705-2.705l2.703,2.703c0.746,0.747,1.955,0.747,2.701,0C46.176,40.685,46.176,39.475,45.43,38.729z"/>
	</g>
</g>
<g>
</g>
<g>
</g>
<g>
</g>
<g>
</g>
<g>
</g>
<g>
</g>
<g>
</g>
<g>
</g>
<g>
</g>
<g>
</g>
<g>
</g>
<g>
</g>
<g>
</g>
<g>
</g>
<g>
</g>
</svg>
