<?xml version="1.0" encoding="iso-8859-1"?>
<!-- Generator: Adobe Illustrator 16.0.0, SVG Export Plug-In . SVG Version: 6.00 Build 0)  -->
<!DOCTYPE svg PUBLIC "-//W3C//DTD SVG 1.1//EN" "http://www.w3.org/Graphics/SVG/1.1/DTD/svg11.dtd">
<svg version="1.1" id="Layer_1" xmlns="http://www.w3.org/2000/svg" xmlns:xlink="http://www.w3.org/1999/xlink" x="0px" y="0px"
	 width="64px" height="63.999px" viewBox="0 0 64 63.999" style="enable-background:new 0 0 64 63.999;" xml:space="preserve">
<g id="Elipse_76_">
	<g>
		<path style="fill-rule:evenodd;clip-rule:evenodd;fill:#CCCCCC;" d="M32,0C14.327,0,0,14.327,0,31.999c0,17.674,14.327,32,32,32
			s32-14.326,32-32C64,14.327,49.673,0,32,0z M32,60C16.536,60,4,47.463,4,31.999s12.536-28,28-28s28,12.536,28,28S47.464,60,32,60z
			"/>
	</g>
</g>
<g id="Speaker_3_">
	<g>
		<path style="fill-rule:evenodd;clip-rule:evenodd;fill:#48A0DC;" d="M28,20c-1.104,0-7,4.895-7,5.999h-1c-2.209,0-4,1.791-4,4.001
			v3.999C16,36.208,17.791,38,20,38h1c0,1.104,5.896,5.999,7,5.999s2-0.895,2-2v-20C30,20.895,29.104,20,28,20z"/>
	</g>
</g>
<g id="Sound">
	<g>
		<path style="fill-rule:evenodd;clip-rule:evenodd;fill:#48A0DC;" d="M37.195,29c-0.493-0.855-1.173-1.525-1.95-2.019
			c-0.078-0.063-0.156-0.125-0.246-0.177c-0.957-0.552-2.18-0.225-2.732,0.732c-0.552,0.956-0.225,2.179,0.732,2.732l-0.002,0.004
			c0.296,0.167,0.552,0.411,0.734,0.727c0.183,0.316,0.26,0.661,0.26,1.001c0,0.341-0.077,0.685-0.26,1
			c-0.183,0.316-0.438,0.56-0.734,0.728L33,33.732c-0.957,0.552-1.284,1.774-0.732,2.731c0.553,0.957,1.775,1.284,2.732,0.732
			c0.085-0.049,0.159-0.109,0.234-0.169c0.782-0.495,1.465-1.168,1.961-2.026c0.547-0.947,0.78-1.98,0.779-3.001
			C37.976,30.979,37.742,29.946,37.195,29z"/>
	</g>
</g>
<g>
</g>
<g>
</g>
<g>
</g>
<g>
</g>
<g>
</g>
<g>
</g>
<g>
</g>
<g>
</g>
<g>
</g>
<g>
</g>
<g>
</g>
<g>
</g>
<g>
</g>
<g>
</g>
<g>
</g>
</svg>
