<?xml version="1.0" encoding="iso-8859-1"?>
<!-- Generator: Adobe Illustrator 16.0.0, SVG Export Plug-In . SVG Version: 6.00 Build 0)  -->
<!DOCTYPE svg PUBLIC "-//W3C//DTD SVG 1.1//EN" "http://www.w3.org/Graphics/SVG/1.1/DTD/svg11.dtd">
<svg version="1.1" id="Layer_1" xmlns="http://www.w3.org/2000/svg" xmlns:xlink="http://www.w3.org/1999/xlink" x="0px" y="0px"
	 width="64px" height="63.999px" viewBox="0 0 64 63.999" style="enable-background:new 0 0 64 63.999;" xml:space="preserve">
<g id="Body_20_">
	<g>
		<path style="fill-rule:evenodd;clip-rule:evenodd;fill:#CCCCCC;" d="M60,0h-4h-2h-6H8H4C1.791,0,0,1.79,0,3.999v4V16v40
			c0,4.418,3.582,7.999,8,7.999h38h2h4c2.209,0,4-1.79,4-4V56v-2V16c0-2.21,1.791-4.001,4-4.001s4-1.79,4-4v-4
			C64,1.79,62.209,0,60,0z"/>
	</g>
</g>
<g id="Shape_63_">
	<g>
		<path style="fill:#B3B3B3;" d="M46,6H10c-2.209,0-4,1.79-4,4v44c0,2.209,1.791,4,4,4h36c2.209,0,4-1.791,4-4V10
			C50,7.79,48.209,6,46,6z"/>
	</g>
</g>
<g id="Shape_64_">
	<g>
		<rect x="10" y="13.999" style="fill:#CCCCCC;" width="36" height="36.001"/>
	</g>
</g>
<g>
</g>
<g>
</g>
<g>
</g>
<g>
</g>
<g>
</g>
<g>
</g>
<g>
</g>
<g>
</g>
<g>
</g>
<g>
</g>
<g>
</g>
<g>
</g>
<g>
</g>
<g>
</g>
<g>
</g>
</svg>
