<?xml version="1.0" encoding="iso-8859-1"?>
<!-- Generator: Adobe Illustrator 16.0.0, SVG Export Plug-In . SVG Version: 6.00 Build 0)  -->
<!DOCTYPE svg PUBLIC "-//W3C//DTD SVG 1.1//EN" "http://www.w3.org/Graphics/SVG/1.1/DTD/svg11.dtd">
<svg version="1.1" id="Layer_1" xmlns="http://www.w3.org/2000/svg" xmlns:xlink="http://www.w3.org/1999/xlink" x="0px" y="0px"
	 width="32px" height="64.001px" viewBox="0 0 32 64.001" style="enable-background:new 0 0 32 64.001;" xml:space="preserve">
<g id="Roof_1_">
	<g>
		<path style="fill-rule:evenodd;clip-rule:evenodd;fill:#666666;" d="M29.445,2.001C28.753,0.81,27.477,0,26,0H6
			C4.523,0,3.247,0.81,2.555,2.001H2V4v6.001v22C2,34.21,3.791,36,6,36h20c2.209,0,4-1.79,4-3.999v-22V4V2.001H29.445z"/>
	</g>
</g>
<g id="Displat">
	<g>
		<path style="fill:#999999;" d="M24,10H8c-1.104,0-2,0.896-2,2.001v12C6,25.104,6.896,26,8,26h16c1.104,0,2-0.896,2-1.999v-12
			C26,10.896,25.104,10,24,10z"/>
	</g>
</g>
<g id="Body_28_">
	<g>
		<path style="fill-rule:evenodd;clip-rule:evenodd;fill:#333333;" d="M28,0H4C2.896,0,2,0.896,2,2.001v2h28v-2
			C30,0.896,29.104,0,28,0z"/>
	</g>
</g>
<g id="Shape_73_">
	<g>
		<path style="fill-rule:evenodd;clip-rule:evenodd;fill:#ED7161;" d="M31.445,34.001c-0.692-1.19-1.969-2-3.445-2H4
			c-1.477,0-2.753,0.81-3.445,2H0V36v2.001v22c0,2.209,1.791,4,4,4h24c2.209,0,4-1.791,4-4v-22V36v-1.999H31.445z"/>
	</g>
</g>
<g id="Shape_74_">
	<g>
		<path style="fill-rule:evenodd;clip-rule:evenodd;fill:#4D4D4D;" d="M26,34.001H6c-1.104,0-2,0.895-2,1.999v22.001v4v2h2h20h2v-2
			v-4V36C28,34.896,27.104,34.001,26,34.001z"/>
	</g>
</g>
<g id="Stand_2_">
	<g>
		<path style="fill:#BA594C;" d="M30,32.001H2c-1.104,0-2,0.895-2,2C0,35.104,0.896,36,2,36h28c1.104,0,2-0.896,2-1.999
			C32,32.896,31.104,32.001,30,32.001z"/>
	</g>
</g>
<g>
</g>
<g>
</g>
<g>
</g>
<g>
</g>
<g>
</g>
<g>
</g>
<g>
</g>
<g>
</g>
<g>
</g>
<g>
</g>
<g>
</g>
<g>
</g>
<g>
</g>
<g>
</g>
<g>
</g>
</svg>
