<?xml version="1.0" encoding="iso-8859-1"?>
<!-- Generator: Adobe Illustrator 16.0.0, SVG Export Plug-In . SVG Version: 6.00 Build 0)  -->
<!DOCTYPE svg PUBLIC "-//W3C//DTD SVG 1.1//EN" "http://www.w3.org/Graphics/SVG/1.1/DTD/svg11.dtd">
<svg version="1.1" id="Layer_1" xmlns="http://www.w3.org/2000/svg" xmlns:xlink="http://www.w3.org/1999/xlink" x="0px" y="0px"
	 width="69.154px" height="69.222px" viewBox="0 0 69.154 69.222" style="enable-background:new 0 0 69.154 69.222;"
	 xml:space="preserve">
<g id="Shape_44_">
	<g>
		<path style="fill-rule:evenodd;clip-rule:evenodd;fill:#CCCCCC;" d="M42.348,9.862c1.114-1.116,2.262-2.146,3.425-3.086
			c-10.807-4.349-23.632-2.143-32.388,6.622S2.426,35,6.77,45.816c0.94-1.164,1.969-2.312,3.083-3.427
			c8.973-8.982,20.043-12.465,24.725-7.778C29.896,29.925,33.374,18.845,42.348,9.862z M62.385,23.405
			c-0.939,1.164-1.969,2.312-3.083,3.428c-8.974,8.981-20.043,12.464-24.725,7.778c4.682,4.686,1.202,15.767-7.771,24.748
			c-1.114,1.115-2.262,2.146-3.425,3.086c10.807,4.35,23.632,2.144,32.388-6.621S66.729,34.222,62.385,23.405z"/>
	</g>
</g>
<g id="Shape_45_">
	<g>
		<path style="fill-rule:evenodd;clip-rule:evenodd;fill:#999999;" d="M38.014,14.927c-1.118-0.194-2.263-0.316-3.437-0.316
			c-11.035,0-19.98,8.954-19.98,20c0,1.175,0.121,2.32,0.315,3.439c7.733-5.636,15.836-7.272,19.665-3.439
			C30.748,30.778,32.383,22.669,38.014,14.927z M54.241,31.171c-7.733,5.636-15.835,7.272-19.664,3.44
			c3.829,3.832,2.193,11.942-3.438,19.684c1.119,0.194,2.263,0.316,3.438,0.316c11.035,0,19.98-8.955,19.98-20
			C54.558,33.436,54.437,32.291,54.241,31.171z"/>
	</g>
</g>
<g id="Handle">
	<g>
		<path style="fill:#A67C52;" d="M47.368,21.744c-1.574-1.576-4.128-1.576-5.703,0L1.742,61.706c-1.575,1.576-1.575,4.133,0,5.709
			s4.128,1.576,5.703,0l39.923-39.962C48.943,25.876,48.943,23.32,47.368,21.744z"/>
	</g>
</g>
<g id="Shape_46_">
	<g>
		<polygon style="fill-rule:evenodd;clip-rule:evenodd;fill:#FFCC66;" points="11.423,63.434 15.418,59.435 9.715,53.726 
			5.72,57.725 		"/>
	</g>
</g>
<g id="Shape_47_">
	<g>
		<path style="fill:#4D4D4D;" d="M41.6,35.093l-7.571-7.578c-1.254-1.256-3.288-1.256-4.543,0c-1.254,1.256-1.254,3.291,0,4.548
			l7.571,7.578c1.255,1.256,3.288,1.256,4.543,0C42.854,38.385,42.854,36.349,41.6,35.093z"/>
	</g>
</g>
<g>
</g>
<g>
</g>
<g>
</g>
<g>
</g>
<g>
</g>
<g>
</g>
<g>
</g>
<g>
</g>
<g>
</g>
<g>
</g>
<g>
</g>
<g>
</g>
<g>
</g>
<g>
</g>
<g>
</g>
</svg>
