<?xml version="1.0" encoding="iso-8859-1"?>
<!-- Generator: Adobe Illustrator 16.0.0, SVG Export Plug-In . SVG Version: 6.00 Build 0)  -->
<!DOCTYPE svg PUBLIC "-//W3C//DTD SVG 1.1//EN" "http://www.w3.org/Graphics/SVG/1.1/DTD/svg11.dtd">
<svg version="1.1" id="Layer_1" xmlns="http://www.w3.org/2000/svg" xmlns:xlink="http://www.w3.org/1999/xlink" x="0px" y="0px"
	 width="63.991px" height="64.004px" viewBox="0 0 63.991 64.004" style="enable-background:new 0 0 63.991 64.004;"
	 xml:space="preserve">
<g id="Ball">
	<g>
		<ellipse style="fill:#F06EAA;" cx="31.995" cy="32.002" rx="31.995" ry="32.002"/>
	</g>
</g>
<g id="Holes">
	<g>
		<path style="fill-rule:evenodd;clip-rule:evenodd;fill:#BD5786;" d="M23.996,24.001c-3.313,0-5.999,2.688-5.999,6.001
			s2.687,6.001,5.999,6.001c3.313,0,6-2.688,6-6.001S27.31,24.001,23.996,24.001z M37.995,16.001c0-3.313-2.687-6-6-6
			c-3.313,0-5.999,2.687-5.999,6c0,3.314,2.687,6,5.999,6C35.309,22.001,37.995,19.315,37.995,16.001z M39.994,24.001
			c-3.313,0-5.999,2.688-5.999,6.001s2.687,6.001,5.999,6.001c3.313,0,6-2.688,6-6.001S43.308,24.001,39.994,24.001z"/>
	</g>
</g>
<g>
</g>
<g>
</g>
<g>
</g>
<g>
</g>
<g>
</g>
<g>
</g>
<g>
</g>
<g>
</g>
<g>
</g>
<g>
</g>
<g>
</g>
<g>
</g>
<g>
</g>
<g>
</g>
<g>
</g>
</svg>
