<?xml version="1.0" encoding="iso-8859-1"?>
<!-- Generator: Adobe Illustrator 16.0.0, SVG Export Plug-In . SVG Version: 6.00 Build 0)  -->
<!DOCTYPE svg PUBLIC "-//W3C//DTD SVG 1.1//EN" "http://www.w3.org/Graphics/SVG/1.1/DTD/svg11.dtd">
<svg version="1.1" id="Layer_1" xmlns="http://www.w3.org/2000/svg" xmlns:xlink="http://www.w3.org/1999/xlink" x="0px" y="0px"
	 width="128px" height="63.998px" viewBox="0 0 128 63.998" style="enable-background:new 0 0 128 63.998;" xml:space="preserve">
<g id="Concrete">
	<g>
		<path style="fill:#656565;" d="M90,2H38c-2.209,0-4,1.79-4,4v51.998c0,2.21,1.791,4,4,4h52c2.21,0,4.001-1.79,4.001-4V6
			C94.001,3.79,92.21,2,90,2z"/>
	</g>
</g>
<g id="Brick">
	<g>
		<path style="fill-rule:evenodd;clip-rule:evenodd;fill:#ED7161;" d="M92,0H68c-1.104,0-2,0.896-2,2v15.999
			C66,19.104,66.896,20,68,20h28V4C96,1.791,94.21,0,92,0z M44,25.999v12c0,1.104,0.896,2,2.001,2h36c1.104,0,1.999-0.896,1.999-2
			v-12c0-1.104-0.896-2-1.999-2h-36C44.896,23.999,44,24.895,44,25.999z M88,25.999v12c0,1.104,0.896,2,2,2h6v-16h-6
			C88.896,23.999,88,24.895,88,25.999z M62,17.999V2c0-1.104-0.896-2-2-2H36c-2.209,0-4,1.791-4,4v16h28
			C61.104,20,62,19.104,62,17.999z M40.001,37.999v-12c0-1.104-0.896-2-2.001-2h-6v16h6C39.104,39.999,40.001,39.104,40.001,37.999z
			 M66,45.999v15.999c0,1.104,0.896,2,2,2h24c2.21,0,4-1.79,4-3.999v-16H68C66.896,43.999,66,44.895,66,45.999z M60,43.999H32v16
			c0,2.209,1.791,3.999,4,3.999h24c1.104,0,2-0.896,2-2V45.999C62,44.895,61.104,43.999,60,43.999z"/>
	</g>
</g>
<g>
</g>
<g>
</g>
<g>
</g>
<g>
</g>
<g>
</g>
<g>
</g>
<g>
</g>
<g>
</g>
<g>
</g>
<g>
</g>
<g>
</g>
<g>
</g>
<g>
</g>
<g>
</g>
<g>
</g>
</svg>
