<?xml version="1.0" encoding="iso-8859-1"?>
<!-- Generator: Adobe Illustrator 16.0.0, SVG Export Plug-In . SVG Version: 6.00 Build 0)  -->
<!DOCTYPE svg PUBLIC "-//W3C//DTD SVG 1.1//EN" "http://www.w3.org/Graphics/SVG/1.1/DTD/svg11.dtd">
<svg version="1.1" id="Layer_1" xmlns="http://www.w3.org/2000/svg" xmlns:xlink="http://www.w3.org/1999/xlink" x="0px" y="0px"
	 width="56px" height="64px" viewBox="0 0 56 64" style="enable-background:new 0 0 56 64;" xml:space="preserve">
<g id="Ball_8_">
	<g>
		<circle style="fill:#F06EAA;" cx="28" cy="8" r="8"/>
	</g>
</g>
<g id="Head_16_">
	<g>
		<path style="fill:#E6E6E6;" d="M36,8H20C8.954,8,0,16.954,0,28v16c0,11.045,8.954,20,20,20h16c11.045,0,20-8.955,20-20V28
			C56,16.954,47.045,8,36,8z"/>
	</g>
</g>
<g id="Face_1_">
	<g>
		<path style="fill:#FFA564;" d="M40,18H16c-4.418,0-8,3.582-8,8v20c0,4.418,3.582,8,8,8h24c4.418,0,8-3.582,8-8V26
			C48,21.582,44.418,18,40,18z"/>
	</g>
</g>
<g id="Eyes_4_">
	<g>
		<path style="fill-rule:evenodd;clip-rule:evenodd;fill:#4D311E;" d="M18,28c-1.104,0-2,0.895-2,2v12c0,1.104,0.896,2,2,2
			s2-0.896,2-2V30C20,28.895,19.104,28,18,28z M38,28c-1.104,0-2,0.895-2,2v12c0,1.104,0.896,2,2,2s2-0.896,2-2V30
			C40,28.895,39.104,28,38,28z"/>
	</g>
</g>
<g id="Eyebrows_3_">
	<g>
		<path style="fill-rule:evenodd;clip-rule:evenodd;fill:#333333;" d="M47.913,19.675c-0.292-1.198-1.416-1.909-2.508-1.588
			l-11.869,3.487c-1.093,0.32-1.741,1.553-1.448,2.75c0.293,1.198,1.416,1.909,2.508,1.588l11.869-3.487
			C47.557,22.104,48.205,20.873,47.913,19.675z M22.465,21.574l-11.87-3.487c-1.092-0.321-2.215,0.39-2.508,1.588
			s0.355,2.43,1.448,2.75l11.869,3.487c1.093,0.321,2.216-0.39,2.508-1.588C24.206,23.127,23.557,21.895,22.465,21.574z"/>
	</g>
</g>
<g>
</g>
<g>
</g>
<g>
</g>
<g>
</g>
<g>
</g>
<g>
</g>
<g>
</g>
<g>
</g>
<g>
</g>
<g>
</g>
<g>
</g>
<g>
</g>
<g>
</g>
<g>
</g>
<g>
</g>
</svg>
