<?xml version="1.0" encoding="iso-8859-1"?>
<!-- Generator: Adobe Illustrator 16.0.0, SVG Export Plug-In . SVG Version: 6.00 Build 0)  -->
<!DOCTYPE svg PUBLIC "-//W3C//DTD SVG 1.1//EN" "http://www.w3.org/Graphics/SVG/1.1/DTD/svg11.dtd">
<svg version="1.1" id="Layer_1" xmlns="http://www.w3.org/2000/svg" xmlns:xlink="http://www.w3.org/1999/xlink" x="0px" y="0px"
	 width="27.996px" height="63.972px" viewBox="0 0 27.996 63.972" style="enable-background:new 0 0 27.996 63.972;"
	 xml:space="preserve">
<g id="Body_45_">
	<g>
		<path style="fill:#E6E6E6;" d="M19.997,23.989c0-7.497,4-3.999,4-13.994S13.998,0,13.998,0S3.999,0,3.999,9.995s4,6.497,4,13.994
			S0,32.86,0,45.979s5.374,17.992,7.999,17.992h5.999h5.999c2.625,0,7.999-4.873,7.999-17.992S19.997,31.486,19.997,23.989z"/>
	</g>
</g>
<g id="Body_2_">
	<g>
		<path style="fill-rule:evenodd;clip-rule:evenodd;fill:#CCCCCC;" d="M24.931,59.974H3.065c1.662,2.798,3.634,3.998,4.934,3.998
			h5.999h5.999C21.297,63.972,23.269,62.771,24.931,59.974z"/>
	</g>
</g>
<g id="Stripes">
	<g>
		<path style="fill-rule:evenodd;clip-rule:evenodd;fill:#ED7161;" d="M20.119,21.99c0.288-2.128,1.054-2.987,1.83-3.999H6.047
			c0.776,1.012,1.542,1.871,1.83,3.999H20.119z M20.204,25.988H7.792c-0.318,1.494-0.98,2.754-1.79,3.998h15.992
			C21.185,28.742,20.522,27.482,20.204,25.988z"/>
	</g>
</g>
<g>
</g>
<g>
</g>
<g>
</g>
<g>
</g>
<g>
</g>
<g>
</g>
<g>
</g>
<g>
</g>
<g>
</g>
<g>
</g>
<g>
</g>
<g>
</g>
<g>
</g>
<g>
</g>
<g>
</g>
</svg>
