<?xml version="1.0" encoding="iso-8859-1"?>
<!-- Generator: Adobe Illustrator 16.0.0, SVG Export Plug-In . SVG Version: 6.00 Build 0)  -->
<!DOCTYPE svg PUBLIC "-//W3C//DTD SVG 1.1//EN" "http://www.w3.org/Graphics/SVG/1.1/DTD/svg11.dtd">
<svg version="1.1" id="Layer_1" xmlns="http://www.w3.org/2000/svg" xmlns:xlink="http://www.w3.org/1999/xlink" x="0px" y="0px"
	 width="64.001px" height="36px" viewBox="0 0 64.001 36" style="enable-background:new 0 0 64.001 36;" xml:space="preserve">
<g id="Shape_52_">
	<g>
		<rect x="8.001" y="2" style="fill:#808080;" width="3.999" height="32"/>
	</g>
</g>
<g id="Tail">
	<g>
		<path style="fill:#4D4D4D;" d="M6,0H2C0.896,0,0,0.896,0,2v32c0,1.104,0.896,2,2,2h4c1.104,0,2.001-0.896,2.001-2V2
			C8.001,0.896,7.104,0,6,0z"/>
	</g>
</g>
<g id="Body_16_">
	<g>
		<path style="fill-rule:evenodd;clip-rule:evenodd;fill:#4D4D4D;" d="M46.001,0h-20h-10h-2C12.896,0,12,0.896,12,2v32
			c0,1.104,0.896,2,2.001,2h2h10h20c7.731,0,18-10.269,18-18C64.001,10.268,53.732,0,46.001,0z"/>
	</g>
</g>
<g id="Mouth_1_">
	<g>
		<path style="fill-rule:evenodd;clip-rule:evenodd;fill:#ED7161;" d="M44.001,23.989c-0.4,10.014,2,12.001,2,12.001h0.241l0,0
			c0.275-0.007,0.554-0.028,0.834-0.06c0.01-0.001,0.021-0.002,0.03-0.004c0.279-0.033,0.56-0.077,0.843-0.133
			c0.003,0,0.005-0.001,0.008-0.001c1.443-0.287,2.935-0.87,4.4-1.674c0.011-0.006,0.021-0.012,0.032-0.018
			c0.278-0.153,0.556-0.315,0.832-0.484c0.018-0.01,0.034-0.021,0.052-0.032c0.279-0.172,0.557-0.351,0.832-0.538
			c0.006-0.004,0.012-0.008,0.018-0.012c1.146-0.778,2.255-1.679,3.292-2.665c0.007-0.007,0.014-0.014,0.021-0.021
			c0.243-0.233,0.482-0.471,0.718-0.712c0.024-0.025,0.048-0.049,0.071-0.074c0.223-0.23,0.441-0.464,0.654-0.702
			c0.023-0.026,0.047-0.051,0.07-0.078c0.223-0.249,0.44-0.501,0.652-0.757c0.006-0.008,0.012-0.015,0.018-0.022
			C51.755,28.462,44.001,23.989,44.001,23.989z"/>
	</g>
</g>
<g id="Eye_6_">
	<g>
		<path style="fill-rule:evenodd;clip-rule:evenodd;fill:#FFFFFF;" d="M44.001,8H42v4c0,3.313,2.687,6,6,6
			c2.903,0,5.325-2.063,5.88-4.804C51.716,10.059,48.101,8,44.001,8z"/>
	</g>
</g>
<g id="Eye_2_">
	<g>
		<circle style="fill:#656565;" cx="49.001" cy="13" r="1"/>
	</g>
</g>
<g>
</g>
<g>
</g>
<g>
</g>
<g>
</g>
<g>
</g>
<g>
</g>
<g>
</g>
<g>
</g>
<g>
</g>
<g>
</g>
<g>
</g>
<g>
</g>
<g>
</g>
<g>
</g>
<g>
</g>
</svg>
