<?xml version="1.0" encoding="iso-8859-1"?>
<!-- Generator: Adobe Illustrator 16.0.0, SVG Export Plug-In . SVG Version: 6.00 Build 0)  -->
<!DOCTYPE svg PUBLIC "-//W3C//DTD SVG 1.1//EN" "http://www.w3.org/Graphics/SVG/1.1/DTD/svg11.dtd">
<svg version="1.1" id="Layer_1" xmlns="http://www.w3.org/2000/svg" xmlns:xlink="http://www.w3.org/1999/xlink" x="0px" y="0px"
	 width="48px" height="63.999px" viewBox="0 0 48 63.999" style="enable-background:new 0 0 48 63.999;" xml:space="preserve">
<g id="Shape_21_">
	<g>
		<path style="fill:#E6E6E6;" d="M43.399,0H4.6C2.06,0,0,2.047,0,4.571v54.856c0,2.524,2.06,4.571,4.6,4.571h38.8
			c2.541,0,4.601-2.047,4.601-4.571V4.571C48,2.047,45.94,0,43.399,0z"/>
	</g>
</g>
<g id="Shape_22_">
	<g>
		<path style="fill:#ED7161;" d="M41.771,4.008H6.229c-1.244,0-2.253,1.008-2.253,2.25V57.74c0,1.242,1.009,2.25,2.253,2.25h35.543
			c1.244,0,2.253-1.008,2.253-2.25V6.258C44.024,5.016,43.016,4.008,41.771,4.008z"/>
	</g>
</g>
<g id="Shape_23_">
	<g>
		<path style="fill:#FFFFFF;" d="M33.771,12.009H14.229c-1.244,0-2.253,1.007-2.253,2.249V49.74c0,1.242,1.009,2.25,2.253,2.25
			h19.543c1.244,0,2.253-1.008,2.253-2.25V14.258C36.024,13.016,35.016,12.009,33.771,12.009z"/>
	</g>
</g>
<g>
</g>
<g>
</g>
<g>
</g>
<g>
</g>
<g>
</g>
<g>
</g>
<g>
</g>
<g>
</g>
<g>
</g>
<g>
</g>
<g>
</g>
<g>
</g>
<g>
</g>
<g>
</g>
<g>
</g>
</svg>
