<?xml version="1.0" encoding="iso-8859-1"?>
<!-- Generator: Adobe Illustrator 16.0.0, SVG Export Plug-In . SVG Version: 6.00 Build 0)  -->
<!DOCTYPE svg PUBLIC "-//W3C//DTD SVG 1.1//EN" "http://www.w3.org/Graphics/SVG/1.1/DTD/svg11.dtd">
<svg version="1.1" id="Layer_1" xmlns="http://www.w3.org/2000/svg" xmlns:xlink="http://www.w3.org/1999/xlink" x="0px" y="0px"
	 width="53.979px" height="62.021px" viewBox="0 0 53.979 62.021" style="enable-background:new 0 0 53.979 62.021;"
	 xml:space="preserve">
<g id="Back_Card">
	<g>
		<path style="fill:#48A0DC;" d="M50.978,8.335L19.691,0.136c-2.159-0.566-4.379,0.687-4.958,2.799l-12.574,45.9
			c-0.579,2.113,0.703,4.284,2.862,4.851l31.286,8.2c2.159,0.565,4.38-0.688,4.958-2.801l12.574-45.9
			C54.419,11.071,53.138,8.9,50.978,8.335z"/>
	</g>
</g>
<g id="Shape_26_">
	<g>
		<path style="fill:#E6E6E6;" d="M36,6.011H4c-2.209,0-4,1.791-4,4V58.01c0,2.209,1.791,4,4,4h32c2.209,0,4-1.791,4-4V10.011
			C40,7.802,38.209,6.011,36,6.011z"/>
	</g>
</g>
<g id="Shape_27_">
	<g>
		<path style="fill:#FFFFFF;" d="M34,10.011H6c-1.104,0-2,0.895-2,2v43.998c0,1.105,0.896,2.001,2,2.001h28c1.104,0,2-0.896,2-2.001
			V12.011C36,10.905,35.104,10.011,34,10.011z"/>
	</g>
</g>
<g id="Spades_2_">
	<g>
		<path style="fill:#4D4D4D;" d="M26.69,31.276c-0.823,0-1.593,0.197-2.287,0.521C25.386,30.759,26,29.386,26,27.866
			c0-3.229-2.705-5.846-6.041-5.846c-3.337,0-6.042,2.617-6.042,5.846c0,1.43,0.551,2.723,1.432,3.738
			c-0.625-0.251-1.31-0.393-2.029-0.393c-2.933,0-5.309,2.299-5.309,5.137c0,2.836,2.376,5.136,5.309,5.136
			c1.953,0,3.642-1.032,4.563-2.552c0.294,1.368,1.068,6.506-3.761,7.085h11.42c0,0-4.972-0.512-3.515-7.232
			c0.889,1.624,2.632,2.743,4.663,2.743c2.926,0,5.298-2.295,5.298-5.126S29.616,31.276,26.69,31.276z"/>
	</g>
</g>
<g>
</g>
<g>
</g>
<g>
</g>
<g>
</g>
<g>
</g>
<g>
</g>
<g>
</g>
<g>
</g>
<g>
</g>
<g>
</g>
<g>
</g>
<g>
</g>
<g>
</g>
<g>
</g>
<g>
</g>
</svg>
