<?xml version="1.0" encoding="iso-8859-1"?>
<!-- Generator: Adobe Illustrator 16.0.0, SVG Export Plug-In . SVG Version: 6.00 Build 0)  -->
<!DOCTYPE svg PUBLIC "-//W3C//DTD SVG 1.1//EN" "http://www.w3.org/Graphics/SVG/1.1/DTD/svg11.dtd">
<svg version="1.1" id="Layer_1" xmlns="http://www.w3.org/2000/svg" xmlns:xlink="http://www.w3.org/1999/xlink" x="0px" y="0px"
	 width="63.936px" height="63.972px" viewBox="0 0 63.936 63.972" style="enable-background:new 0 0 63.936 63.972;"
	 xml:space="preserve">
<g id="Arms_1_">
	<g>
		<path style="fill-rule:evenodd;clip-rule:evenodd;fill:#CCCCCC;" d="M57.861,33.41L50.14,5.504
			c-0.305-1.101-1.474-1.754-2.61-1.459s-1.812,1.426-1.507,2.527l7.722,27.906c0.305,1.101,1.473,1.754,2.61,1.459
			C57.491,35.643,58.166,34.511,57.861,33.41z M16.404,4.044c-1.133-0.294-2.298,0.358-2.602,1.458L6.108,33.361
			c-0.304,1.1,0.369,2.229,1.502,2.523s2.297-0.357,2.601-1.456l7.695-27.861C18.209,5.469,17.537,4.339,16.404,4.044z"/>
	</g>
</g>
<g id="Chairs">
	<g>
		<path style="fill-rule:evenodd;clip-rule:evenodd;fill:#808080;" d="M63.805,34.845l-0.988-3.896
			c-0.545-2.152-2.639-3.43-4.674-2.853l-7.374,2.088c-2.035,0.576-3.243,2.789-2.698,4.941l0.988,3.896
			c0.545,2.152,2.638,3.429,4.674,2.853l7.373-2.088C63.142,39.209,64.35,36.996,63.805,34.845z M13.176,30.141l-7.348-2.085
			c-2.029-0.575-4.115,0.699-4.658,2.848l-0.984,3.891c-0.544,2.148,0.66,4.357,2.689,4.933l7.348,2.085
			c2.029,0.576,4.114-0.699,4.658-2.848l0.984-3.891C16.409,32.925,15.205,30.716,13.176,30.141z"/>
	</g>
</g>
<g id="Stand">
	<g>
		<path style="fill:#B3B3B3;" d="M37.957,55.976H25.971c-2.207,0-3.995,1.79-3.995,3.998s1.788,3.998,3.995,3.998h11.986
			c2.207,0,3.996-1.79,3.996-3.998S40.164,55.976,37.957,55.976z"/>
	</g>
</g>
<g id="Pole">
	<g>
		<rect x="27.969" y="7.996" style="fill:#CCCCCC;" width="7.991" height="47.979"/>
	</g>
</g>
<g id="Roof">
	<g>
		<path style="fill-rule:evenodd;clip-rule:evenodd;fill:#88C057;" d="M55.938,0H7.99C3.577,0,0,3.58,0,7.996h63.929
			C63.929,3.58,60.351,0,55.938,0z"/>
	</g>
</g>
<g>
</g>
<g>
</g>
<g>
</g>
<g>
</g>
<g>
</g>
<g>
</g>
<g>
</g>
<g>
</g>
<g>
</g>
<g>
</g>
<g>
</g>
<g>
</g>
<g>
</g>
<g>
</g>
<g>
</g>
</svg>
