<?xml version="1.0" encoding="iso-8859-1"?>
<!-- Generator: Adobe Illustrator 16.0.0, SVG Export Plug-In . SVG Version: 6.00 Build 0)  -->
<!DOCTYPE svg PUBLIC "-//W3C//DTD SVG 1.1//EN" "http://www.w3.org/Graphics/SVG/1.1/DTD/svg11.dtd">
<svg version="1.1" id="Layer_1" xmlns="http://www.w3.org/2000/svg" xmlns:xlink="http://www.w3.org/1999/xlink" x="0px" y="0px"
	 width="64px" height="63.999px" viewBox="0 0 64 63.999" style="enable-background:new 0 0 64 63.999;" xml:space="preserve">
<g id="Stem_1_">
	<g>
		<path style="fill-rule:evenodd;clip-rule:evenodd;fill:#FFBE7D;" d="M50,0C29.688,0,13.147,15.948,12.101,36h4
			C17.103,18.82,30.822,5.063,48,4.064V50c0,1.104,0.896,2,2,2s2-0.896,2-2V4.098V4V1.999C52,0.895,51.104,0,50,0z"/>
	</g>
</g>
<g id="Cherries">
	<g>
		<path style="fill-rule:evenodd;clip-rule:evenodd;fill:#ED7161;" d="M14,36C6.268,36,0,42.268,0,50
			c0,7.731,6.268,13.999,14,13.999c7.731,0,14-6.268,14-13.999C28,42.268,21.731,36,14,36z M50,36c-7.732,0-14,6.268-14,14
			c0,7.731,6.268,13.999,14,13.999c7.731,0,14-6.268,14-13.999C64,42.268,57.731,36,50,36z"/>
	</g>
</g>
<g>
</g>
<g>
</g>
<g>
</g>
<g>
</g>
<g>
</g>
<g>
</g>
<g>
</g>
<g>
</g>
<g>
</g>
<g>
</g>
<g>
</g>
<g>
</g>
<g>
</g>
<g>
</g>
<g>
</g>
</svg>
