<?xml version="1.0" encoding="iso-8859-1"?>
<!-- Generator: Adobe Illustrator 16.0.0, SVG Export Plug-In . SVG Version: 6.00 Build 0)  -->
<!DOCTYPE svg PUBLIC "-//W3C//DTD SVG 1.1//EN" "http://www.w3.org/Graphics/SVG/1.1/DTD/svg11.dtd">
<svg version="1.1" id="Layer_1" xmlns="http://www.w3.org/2000/svg" xmlns:xlink="http://www.w3.org/1999/xlink" x="0px" y="0px"
	 width="64px" height="48px" viewBox="0 0 64 48" style="enable-background:new 0 0 64 48;" xml:space="preserve">
<g id="Frame_2_">
	<g>
		<path style="fill:#B3B3B3;" d="M60,8H4c-2.209,0-4,1.791-4,4v32c0,2.209,1.791,4,4,4h56c2.209,0,4-1.791,4-4V12
			C64,9.791,62.209,8,60,8z"/>
	</g>
</g>
<g id="Display_1_">
	<g>
		<rect x="4" y="12" style="fill:#E6E6E6;" width="56" height="32"/>
	</g>
</g>
<g id="Shape_33_">
	<g>
		<path style="fill-rule:evenodd;clip-rule:evenodd;fill:#FFFFFF;" d="M18,16c-6.627,0-12,5.372-12,12s5.373,12,12,12
			s12-5.372,12-12S24.627,16,18,16z M46,16c-6.627,0-12,5.372-12,12s5.373,12,12,12c6.627,0,12-5.372,12-12S52.627,16,46,16z"/>
	</g>
</g>
<g id="Tongue">
	<g>
		<path style="fill-rule:evenodd;clip-rule:evenodd;fill:#666666;" d="M52,26h-4v-4c0-1.104-0.896-2-2-2s-2,0.896-2,2v6
			c0,1.104,0.896,2,2,2h6c1.104,0,2-0.896,2-2S53.104,26,52,26z M21.066,24.661l-3.428,2.191l-1.979-3.796
			c-0.546-1.048-1.757-1.407-2.704-0.802c-0.946,0.605-1.271,1.945-0.724,2.994l2.969,5.694c0.546,1.048,1.757,1.407,2.704,0.802
			l5.143-3.287c0.947-0.605,1.271-1.945,0.725-2.994C23.223,24.415,22.013,24.056,21.066,24.661z"/>
	</g>
</g>
<g id="Pin">
	<g>
		<path style="fill-rule:evenodd;clip-rule:evenodd;fill:#FFCC66;" d="M12,8h8V4h-8V8z M44,4v4h8V4H44z"/>
	</g>
</g>
<g id="BTNs">
	<g>
		<path style="fill-rule:evenodd;clip-rule:evenodd;fill:#A67C52;" d="M22,4H10C8.896,4,8,4.896,8,6s0.896,2,2,2h12
			c1.104,0,2-0.896,2-2S23.104,4,22,4z M54,0H42c-1.104,0-2,0.896-2,2s0.896,2,2,2h12c1.104,0,2-0.896,2-2S55.104,0,54,0z"/>
	</g>
</g>
<g>
</g>
<g>
</g>
<g>
</g>
<g>
</g>
<g>
</g>
<g>
</g>
<g>
</g>
<g>
</g>
<g>
</g>
<g>
</g>
<g>
</g>
<g>
</g>
<g>
</g>
<g>
</g>
<g>
</g>
</svg>
