<?xml version="1.0" encoding="iso-8859-1"?>
<!-- Generator: Adobe Illustrator 16.0.0, SVG Export Plug-In . SVG Version: 6.00 Build 0)  -->
<!DOCTYPE svg PUBLIC "-//W3C//DTD SVG 1.1//EN" "http://www.w3.org/Graphics/SVG/1.1/DTD/svg11.dtd">
<svg version="1.1" id="Layer_1" xmlns="http://www.w3.org/2000/svg" xmlns:xlink="http://www.w3.org/1999/xlink" x="0px" y="0px"
	 width="63.99px" height="63.991px" viewBox="0 0 63.99 63.991" style="enable-background:new 0 0 63.99 63.991;"
	 xml:space="preserve">
<g id="Stem">
	<g>
		<path style="fill:#75A64B;" d="M21.502,38.588c-0.77-0.805-2.018-0.805-2.788,0c-0.254,0.267-0.393,0.593-0.479,0.932
			c-0.013-0.002-0.019-0.004-0.031-0.007c-0.281,1.1-1.231,3.813-5.064,7.822L0.596,60.454c-0.77,0.805-0.77,2.11,0,2.915
			c0.771,0.805,2.019,0.805,2.788,0L15.927,50.25c4.486-4.691,5.917-9.013,6.085-9.67c-0.011-0.011-0.017-0.015-0.027-0.025
			C22.151,39.872,22.013,39.123,21.502,38.588z"/>
	</g>
</g>
<g id="Clover">
	<g>
		<path style="fill-rule:evenodd;clip-rule:evenodd;fill:#88C057;" d="M61.065,32.899c-0.342-0.342-0.708-0.642-1.084-0.924
			c0.367-0.276,0.726-0.571,1.061-0.906c3.899-3.893,3.899-10.204,0-14.097c-3.565-3.559-9.149-3.854-13.063-0.905l0.039-0.048
			l-0.05-0.066c2.929-3.91,2.626-9.473-0.933-13.027c-3.903-3.9-10.231-3.9-14.135,0c-0.342,0.342-0.644,0.708-0.926,1.084
			c-0.277-0.368-0.574-0.727-0.909-1.062c-3.903-3.899-10.232-3.899-14.136,0c-3.62,3.616-3.877,9.315-0.781,13.234l-0.131-0.104
			l-0.066,0.05c-3.91-2.922-9.473-2.619-13.027,0.93c-3.899,3.893-3.899,10.204,0,14.097c0.342,0.342,0.708,0.643,1.085,0.924
			c-0.368,0.276-0.727,0.572-1.062,0.906c-3.9,3.893-3.9,10.204,0,14.098c3.574,3.568,9.179,3.855,13.092,0.883l-0.006,0.008
			l0.05,0.065c-2.93,3.91-2.626,9.473,0.933,13.028c3.902,3.899,10.231,3.899,14.135,0c0.343-0.342,0.644-0.709,0.926-1.085
			c0.278,0.368,0.574,0.727,0.909,1.062c3.903,3.899,10.231,3.899,14.136,0c3.578-3.575,3.866-9.18,0.884-13.093l0.032-0.024
			c3.91,2.922,9.473,2.619,13.027-0.93C64.965,43.104,64.965,36.792,61.065,32.899z"/>
	</g>
</g>
<g id="Shape_7_">
	<g>
		<path style="fill-rule:evenodd;clip-rule:evenodd;fill:#6C9945;" d="M34.723,32.023l6.728-6.728c0.743-0.743,0.743-1.949,0-2.692
			c-0.744-0.743-1.949-0.743-2.692,0l-6.728,6.728l-6.785-6.785c-0.746-0.746-1.955-0.746-2.7,0c-0.746,0.745-0.746,1.954,0,2.7
			l6.785,6.785l-6.725,6.725c-0.743,0.743-0.743,1.949,0,2.691c0.743,0.744,1.948,0.744,2.692,0l6.724-6.724l6.726,6.726
			c0.746,0.745,1.955,0.745,2.701,0c0.745-0.746,0.745-1.955,0-2.701L34.723,32.023z"/>
	</g>
</g>
<g>
</g>
<g>
</g>
<g>
</g>
<g>
</g>
<g>
</g>
<g>
</g>
<g>
</g>
<g>
</g>
<g>
</g>
<g>
</g>
<g>
</g>
<g>
</g>
<g>
</g>
<g>
</g>
<g>
</g>
</svg>
