<?xml version="1.0" encoding="iso-8859-1"?>
<!-- Generator: Adobe Illustrator 16.0.0, SVG Export Plug-In . SVG Version: 6.00 Build 0)  -->
<!DOCTYPE svg PUBLIC "-//W3C//DTD SVG 1.1//EN" "http://www.w3.org/Graphics/SVG/1.1/DTD/svg11.dtd">
<svg version="1.1" id="Layer_1" xmlns="http://www.w3.org/2000/svg" xmlns:xlink="http://www.w3.org/1999/xlink" x="0px" y="0px"
	 width="63.808px" height="51.968px" viewBox="0 0 63.808 51.968" style="enable-background:new 0 0 63.808 51.968;"
	 xml:space="preserve">
<g id="Lips">
	<g>
		<path style="fill:#9B7CAB;" d="M45.467,36.676c-2.572-2.634-6.744-2.634-9.318-0.002c-2.354,2.411-6.188,2.409-8.54,0.002
			c-2.574-2.636-6.745-2.636-9.319,0c-2.572,2.633-2.572,6.905,0,9.539c3.747,3.836,8.667,5.753,13.589,5.753
			c4.92,0,9.843-1.917,13.588-5.752C48.04,43.581,48.04,39.311,45.467,36.676z"/>
	</g>
</g>
<g id="Teeth">
	<g>
		<path style="fill:#FFFFFF;" d="M42.555,39.654c-0.964-0.987-2.529-0.987-3.494,0c-3.962,4.056-10.404,4.056-14.365,0
			c-0.965-0.987-2.528-0.987-3.494,0c-0.965,0.988-0.965,2.59,0,3.578c2.944,3.014,6.81,4.521,10.677,4.521
			c3.866,0,7.733-1.507,10.677-4.521C43.52,42.244,43.52,40.643,42.555,39.654z"/>
	</g>
</g>
<g id="Glass_1_" style="opacity:0.4;">
	<g>
		<path style="fill-rule:evenodd;clip-rule:evenodd;fill:#FFFFFF;" d="M15.953,2.584c-11.478,0-9.916,4.051-9.916,9.048
			c0,5.657,2.579,9.048,9.916,9.048c5.476,0,9.915-4.051,9.915-9.048C25.868,3.756,24.01,2.584,15.953,2.584z M47.855,2.584
			c-8.057,0-9.916,1.172-9.916,9.048c0,4.997,4.439,9.048,9.916,9.048c7.336,0,9.915-3.391,9.915-9.048
			C57.771,6.635,59.333,2.584,47.855,2.584z"/>
	</g>
</g>
<g id="Frame_1_">
	<g>
		<path style="fill:#4D4D4D;" d="M62.289,1.359c-1.694-0.312-9.724-1.839-16.39-1.146c-6.665,0.694-7.788,2.434-13.993,2.434V2.616
			c-6.207,0-7.329-1.743-13.996-2.438C11.243-0.517,3.213,1.014,1.519,1.325S0.006,2.447,0.006,3.906s0.142,1.663,1.387,2.295
			c1.245,0.631,1.483,2.923,1.639,4.158c0.156,1.234,0.452,3.547,1.262,6.165c0.809,2.617,3.115,5.878,10.086,5.878
			c6.972,0,9.804-2.65,11.223-4.444s3.394-8.196,3.908-9.75c0.516-1.554,2.396-1.435,2.396-1.435v0.025c0,0,1.88-0.12,2.396,1.432
			c0.515,1.552,2.488,7.943,3.907,9.734c1.42,1.791,4.25,4.438,11.221,4.438s9.277-3.255,10.086-5.868
			c0.809-2.614,1.105-4.924,1.261-6.156s0.394-3.521,1.64-4.151c1.245-0.631,1.386-0.834,1.386-2.291
			C63.802,2.479,63.983,1.671,62.289,1.359z M24.272,11.03c-0.535,2.044-1.333,6.474-5.29,7.93
			c-3.958,1.456-8.697,0.866-10.475-2.196C6.73,13.702,7.242,9.987,7.238,7.98c-0.005-2.732,1.527-4.243,8.146-4.393
			c3.564-0.08,5.905,0.254,8.252,1.953C25.125,6.616,24.807,8.986,24.272,11.03z M55.301,16.766
			c-1.777,3.063-6.516,3.651-10.474,2.195c-3.957-1.455-4.755-5.885-5.289-7.928c-0.534-2.044-0.853-4.414,0.635-5.489
			c2.347-1.698,4.688-2.032,8.251-1.952c6.619,0.148,8.151,1.66,8.146,4.392C56.565,9.989,57.078,13.704,55.301,16.766z"/>
	</g>
</g>
<g id="Nose_1_">
	<g>
		<ellipse style="fill:#88C057;" cx="31.903" cy="21.542" rx="10.346" ry="10.34"/>
	</g>
</g>
<g>
</g>
<g>
</g>
<g>
</g>
<g>
</g>
<g>
</g>
<g>
</g>
<g>
</g>
<g>
</g>
<g>
</g>
<g>
</g>
<g>
</g>
<g>
</g>
<g>
</g>
<g>
</g>
<g>
</g>
</svg>
