<?xml version="1.0" encoding="iso-8859-1"?>
<!-- Generator: Adobe Illustrator 16.0.0, SVG Export Plug-In . SVG Version: 6.00 Build 0)  -->
<!DOCTYPE svg PUBLIC "-//W3C//DTD SVG 1.1//EN" "http://www.w3.org/Graphics/SVG/1.1/DTD/svg11.dtd">
<svg version="1.1" id="Layer_1" xmlns="http://www.w3.org/2000/svg" xmlns:xlink="http://www.w3.org/1999/xlink" x="0px" y="0px"
	 width="64.002px" height="63.993px" viewBox="0 0 64.002 63.993" style="enable-background:new 0 0 64.002 63.993;"
	 xml:space="preserve">
<g id="Clubs">
	<g>
		<path style="fill:#4D4D4D;" d="M49.862,24.685c-2.197,0-4.252,0.525-6.106,1.39c2.623-2.772,4.264-6.432,4.264-10.485
			C48.02,6.979,40.8,0,31.893,0c-8.906,0-16.127,6.979-16.127,15.589c0,3.813,1.472,7.26,3.822,9.969
			c-1.67-0.67-3.497-1.048-5.418-1.048C6.345,24.51,0,30.644,0,38.209c0,7.564,6.345,13.696,14.17,13.696
			c5.214,0,9.721-2.752,12.181-6.805c0.785,3.647,2.853,17.348-10.037,18.893h30.482c0,0-13.271-1.363-9.382-19.286
			c2.372,4.331,7.025,7.313,12.448,7.313c7.809,0,14.14-6.118,14.14-13.668S57.671,24.685,49.862,24.685z"/>
	</g>
</g>
<g>
</g>
<g>
</g>
<g>
</g>
<g>
</g>
<g>
</g>
<g>
</g>
<g>
</g>
<g>
</g>
<g>
</g>
<g>
</g>
<g>
</g>
<g>
</g>
<g>
</g>
<g>
</g>
<g>
</g>
</svg>
