<?xml version="1.0" encoding="iso-8859-1"?>
<!-- Generator: Adobe Illustrator 16.0.0, SVG Export Plug-In . SVG Version: 6.00 Build 0)  -->
<!DOCTYPE svg PUBLIC "-//W3C//DTD SVG 1.1//EN" "http://www.w3.org/Graphics/SVG/1.1/DTD/svg11.dtd">
<svg version="1.1" id="Layer_1" xmlns="http://www.w3.org/2000/svg" xmlns:xlink="http://www.w3.org/1999/xlink" x="0px" y="0px"
	 width="64px" height="36px" viewBox="0 0 64 36" style="enable-background:new 0 0 64 36;" xml:space="preserve">
<g id="Body_40_">
	<g>
		<path style="fill:#CCCCCC;" d="M32,0C4.014,0,0,15.3,0,22.5C0,29.956,6.14,36,13.714,36c3.943,0,7.487-1.647,9.989-4.27
			C24.686,30.6,25.693,26,32,26c6.306,0,7.313,4.6,8.297,5.73c2.501,2.622,6.046,4.27,9.988,4.27C57.859,36,64,29.956,64,22.5
			C64,15.3,59.986,0,32,0z"/>
	</g>
</g>
<g id="Shape_102_">
	<g>
		<path style="fill-rule:evenodd;clip-rule:evenodd;fill:#A3A3A3;" d="M13.995,14.024c-4.424,0-8.01,3.57-8.01,7.976
			c0,4.404,3.586,7.975,8.01,7.975s8.01-3.57,8.01-7.975C22.005,17.595,18.419,14.024,13.995,14.024z M50.004,14.024
			c-4.424,0-8.01,3.57-8.01,7.976c0,4.404,3.586,7.975,8.01,7.975s8.01-3.57,8.01-7.975C58.014,17.595,54.428,14.024,50.004,14.024z
			"/>
	</g>
</g>
<g id="BTN_4_">
	<g>
		<path style="fill-rule:evenodd;clip-rule:evenodd;fill:#626262;" d="M46.004,20.027c-1.114,0-2.019,0.889-2.019,1.986
			S44.89,24,46.004,24s2.018-0.889,2.018-1.986S47.118,20.027,46.004,20.027z M49.987,20.015c1.115,0,2.018-0.905,2.018-2.021
			s-0.902-2.021-2.018-2.021c-1.114,0-2.018,0.905-2.018,2.021S48.873,20.015,49.987,20.015z M49.987,23.986
			c-1.096,0-1.983,0.904-1.983,2.02c0,1.117,0.888,2.021,1.983,2.021c1.095,0,1.983-0.904,1.983-2.021
			C51.971,24.891,51.082,23.986,49.987,23.986z M54.006,20c-1.115,0-2.019,0.889-2.019,1.986c0,1.097,0.903,1.985,2.019,1.985
			c1.114,0,2.018-0.889,2.018-1.985C56.023,20.889,55.12,20,54.006,20z"/>
	</g>
</g>
<g id="BTN_5_">
	<g>
		<path style="fill-rule:evenodd;clip-rule:evenodd;fill:#A3A3A3;" d="M29.215,17.986h-2.378c-0.476,0-0.861,0.444-0.861,0.993
			s0.386,0.993,0.861,0.993h2.378c0.44,0,0.799-0.444,0.799-0.993S29.655,17.986,29.215,17.986z M37.162,17.986h-2.378
			c-0.44,0-0.798,0.444-0.798,0.993s0.357,0.993,0.798,0.993h2.378c0.476,0,0.861-0.444,0.861-0.993S37.638,17.986,37.162,17.986z"
			/>
	</g>
</g>
<g id="BTN_6_">
	<g>
		<path style="fill-rule:evenodd;clip-rule:evenodd;fill:#626262;" d="M18,20h-2v-2c0-1.104-0.896-2-2-2s-2,0.896-2,2v2h-2
			c-1.105,0-2,0.896-2,2s0.895,2,2,2h2v2c0,1.104,0.896,2,2,2s2-0.896,2-2v-2h2c1.104,0,2-0.896,2-2S19.104,20,18,20z"/>
	</g>
</g>
<g>
</g>
<g>
</g>
<g>
</g>
<g>
</g>
<g>
</g>
<g>
</g>
<g>
</g>
<g>
</g>
<g>
</g>
<g>
</g>
<g>
</g>
<g>
</g>
<g>
</g>
<g>
</g>
<g>
</g>
</svg>
