<?xml version="1.0" encoding="iso-8859-1"?>
<!-- Generator: Adobe Illustrator 16.0.0, SVG Export Plug-In . SVG Version: 6.00 Build 0)  -->
<!DOCTYPE svg PUBLIC "-//W3C//DTD SVG 1.1//EN" "http://www.w3.org/Graphics/SVG/1.1/DTD/svg11.dtd">
<svg version="1.1" id="Layer_1" xmlns="http://www.w3.org/2000/svg" xmlns:xlink="http://www.w3.org/1999/xlink" x="0px" y="0px"
	 width="64px" height="36.003px" viewBox="0 0 64 36.003" style="enable-background:new 0 0 64 36.003;" xml:space="preserve">
<g id="Body_37_">
	<g>
		<path style="fill-rule:evenodd;clip-rule:evenodd;fill:#666666;" d="M58,4.003c-2.125-4.25-8-4-8-4H32H14c0,0-5.875-0.25-8,4
			s-6,12-6,16s9.25,16,20,16h12h12c10.75,0,20-12,20-16S60.125,8.253,58,4.003z"/>
	</g>
</g>
<g id="Shape_93_">
	<g>
		<circle style="fill:#4D4D4D;" cx="18" cy="18.003" r="10"/>
	</g>
</g>
<g id="Controller_3_">
	<g>
		<circle style="fill:#808080;" cx="18" cy="18.003" r="4"/>
	</g>
</g>
<g id="BTNs_11_">
	<g>
		<path style="fill-rule:evenodd;clip-rule:evenodd;fill:#ED7161;" d="M36,8.003c-2.209,0-4,1.791-4,4s1.791,4,4,4s4-1.791,4-4
			S38.209,8.003,36,8.003z M48,8.003c-2.209,0-4,1.791-4,4s1.791,4,4,4s4-1.791,4-4S50.209,8.003,48,8.003z"/>
	</g>
</g>
<g id="BTNs_12_">
	<g>
		<path style="fill-rule:evenodd;clip-rule:evenodd;fill:#4D4D4D;" d="M40,20.003c-2.209,0-4,1.791-4,4s1.791,4,4,4s4-1.791,4-4
			S42.209,20.003,40,20.003z M52,20.003c-2.209,0-4,1.791-4,4s1.791,4,4,4s4-1.791,4-4S54.209,20.003,52,20.003z"/>
	</g>
</g>
<g>
</g>
<g>
</g>
<g>
</g>
<g>
</g>
<g>
</g>
<g>
</g>
<g>
</g>
<g>
</g>
<g>
</g>
<g>
</g>
<g>
</g>
<g>
</g>
<g>
</g>
<g>
</g>
<g>
</g>
</svg>
