<?xml version="1.0" encoding="iso-8859-1"?>
<!-- Generator: Adobe Illustrator 16.0.0, SVG Export Plug-In . SVG Version: 6.00 Build 0)  -->
<!DOCTYPE svg PUBLIC "-//W3C//DTD SVG 1.1//EN" "http://www.w3.org/Graphics/SVG/1.1/DTD/svg11.dtd">
<svg version="1.1" id="Layer_1" xmlns="http://www.w3.org/2000/svg" xmlns:xlink="http://www.w3.org/1999/xlink" x="0px" y="0px"
	 width="64px" height="59.988px" viewBox="0 0 64 59.988" style="enable-background:new 0 0 64 59.988;" xml:space="preserve">
<g id="Body_36_">
	<g>
		<path style="fill:#9B7CAB;" d="M46,6.1c0-6.985-14-5.987-14-5.987V0.049c0,0-14-0.998-14,5.994c0,0-18-1.998-18,13.985
			s0.833,25.974,6,25.974c0,0,6,0.166,6-11.987c0,0-0.334-3.996,4-3.996c4.333,0,5,5.66,6,9.989s6,19.979,10,19.979
			s9-15.635,10-19.959s1.666-9.979,6-9.979c4.333,0,4,3.991,4,3.991c0,12.142,6,11.976,6,11.976c5.167,0,6-9.979,6-25.946
			S46,6.1,46,6.1z"/>
	</g>
</g>
<g id="Shape_92_">
	<g>
		<ellipse style="fill:#5D4A66;" cx="32" cy="32.017" rx="6" ry="5.994"/>
	</g>
</g>
<g id="Controller_2_">
	<g>
		<circle style="fill:#9B7CAB;" cx="32" cy="32.017" r="1.998"/>
	</g>
</g>
<g id="BTNs_7_">
	<g>
		<path style="fill-rule:evenodd;clip-rule:evenodd;fill:#FFEFF6;" d="M12,16.033c1.104,0,2-0.895,2-1.997
			c0-1.104-0.896-1.998-2-1.998s-2,0.895-2,1.998C10,15.138,10.896,16.033,12,16.033z M8,16.033c-1.104,0-2,0.895-2,1.998
			s0.896,1.998,2,1.998s2-0.895,2-1.998S9.104,16.033,8,16.033z M12,20.029c-1.104,0-2,0.895-2,1.998s0.896,1.998,2,1.998
			s2-0.895,2-1.998S13.104,20.029,12,20.029z M16,16.033c-1.104,0-2,0.895-2,1.998s0.896,1.998,2,1.998s2-0.895,2-1.998
			S17.104,16.033,16,16.033z"/>
	</g>
</g>
<g id="BTNs_8_">
	<g>
		<path style="fill-rule:evenodd;clip-rule:evenodd;fill:#604D6A;" d="M28,17.988h-4c-1.104,0-2,0.895-2,2c0,1.104,0.896,2,2,2h4
			c1.104,0,2-0.896,2-2C30,18.882,29.104,17.988,28,17.988z M40,17.988h-4c-1.104,0-2,0.895-2,2c0,1.104,0.896,2,2,2h4
			c1.104,0,2-0.896,2-2C42,18.882,41.104,17.988,40,17.988z"/>
	</g>
</g>
<g id="BTNs_9_">
	<g>
		<path style="fill-rule:evenodd;clip-rule:evenodd;fill:#FFCC66;" d="M50,16.033c-1.104,0-2,0.895-2,1.998s0.896,1.998,2,1.998
			s2-0.895,2-1.998S51.104,16.033,50,16.033z M54,20.029c-1.104,0-2,0.895-2,1.998s0.896,1.998,2,1.998s2-0.895,2-1.998
			S55.104,20.029,54,20.029z"/>
	</g>
</g>
<g id="BTNs_10_">
	<g>
		<path style="fill-rule:evenodd;clip-rule:evenodd;fill:#F06EAA;" d="M32,8.031c-1.104,0-2,0.895-2,1.998s0.896,1.998,2,1.998
			s2-0.895,2-1.998S33.104,8.031,32,8.031z M54,12.038c-1.104,0-2,0.895-2,1.998c0,1.103,0.896,1.997,2,1.997s2-0.895,2-1.997
			C56,12.932,55.104,12.038,54,12.038z M58,16.033c-1.104,0-2,0.895-2,1.998s0.896,1.998,2,1.998s2-0.895,2-1.998
			S59.104,16.033,58,16.033z"/>
	</g>
</g>
<g>
</g>
<g>
</g>
<g>
</g>
<g>
</g>
<g>
</g>
<g>
</g>
<g>
</g>
<g>
</g>
<g>
</g>
<g>
</g>
<g>
</g>
<g>
</g>
<g>
</g>
<g>
</g>
<g>
</g>
</svg>
