<?xml version="1.0" encoding="iso-8859-1"?>
<!-- Generator: Adobe Illustrator 16.0.0, SVG Export Plug-In . SVG Version: 6.00 Build 0)  -->
<!DOCTYPE svg PUBLIC "-//W3C//DTD SVG 1.1//EN" "http://www.w3.org/Graphics/SVG/1.1/DTD/svg11.dtd">
<svg version="1.1" id="Layer_1" xmlns="http://www.w3.org/2000/svg" xmlns:xlink="http://www.w3.org/1999/xlink" x="0px" y="0px"
	 width="64px" height="35.999px" viewBox="0 0 64 35.999" style="enable-background:new 0 0 64 35.999;" xml:space="preserve">
<g id="Base_23_">
	<g>
		<path style="fill:#CCCCCC;" d="M60,0H4C1.791,0,0,1.896,0,4.237v27.526c0,2.341,1.791,4.235,4,4.235h56c2.209,0,4-1.895,4-4.235
			V4.237C64,1.896,62.209,0,60,0z"/>
	</g>
</g>
<g id="Controller_5_">
	<g>
		<path style="fill-rule:evenodd;clip-rule:evenodd;fill:#4D4D4D;" d="M20,16.001h-4v-4c0-1.104-0.896-2-2-2c-1.105,0-2,0.896-2,2v4
			H8c-1.104,0-2,0.896-2,2s0.896,2,2,2h4v4c0,1.104,0.895,2,2,2c1.104,0,2-0.896,2-2v-4h4c1.104,0,2-0.896,2-2
			S21.104,16.001,20,16.001z"/>
	</g>
</g>
<g id="Btn_4_">
	<g>
		<ellipse style="fill:#ED7161;" cx="42.182" cy="22.498" rx="4.363" ry="4.467"/>
	</g>
</g>
<g id="Btn_5_">
	<g>
		<ellipse style="fill:#48A0DC;" cx="53.818" cy="13.504" rx="4.364" ry="4.469"/>
	</g>
</g>
<g>
</g>
<g>
</g>
<g>
</g>
<g>
</g>
<g>
</g>
<g>
</g>
<g>
</g>
<g>
</g>
<g>
</g>
<g>
</g>
<g>
</g>
<g>
</g>
<g>
</g>
<g>
</g>
<g>
</g>
</svg>
