<?xml version="1.0" encoding="iso-8859-1"?>
<!-- Generator: Adobe Illustrator 16.0.0, SVG Export Plug-In . SVG Version: 6.00 Build 0)  -->
<!DOCTYPE svg PUBLIC "-//W3C//DTD SVG 1.1//EN" "http://www.w3.org/Graphics/SVG/1.1/DTD/svg11.dtd">
<svg version="1.1" id="Layer_1" xmlns="http://www.w3.org/2000/svg" xmlns:xlink="http://www.w3.org/1999/xlink" x="0px" y="0px"
	 width="64.018px" height="64.017px" viewBox="0 0 64.018 64.017" style="enable-background:new 0 0 64.018 64.017;"
	 xml:space="preserve">
<g id="Shape_90_">
	<g>
		<circle style="fill:#666666;" cx="32.01" cy="32.009" r="10"/>
	</g>
</g>
<g id="Arrows">
	<g>
		<path style="fill-rule:evenodd;clip-rule:evenodd;fill:#CCCCCC;" d="M43.95,15.544c-0.024-0.094-0.049-0.188-0.086-0.277
			c-0.106-0.264-0.266-0.499-0.466-0.693L33.88,1.265c-0.097-0.248-0.243-0.482-0.444-0.683c-0.394-0.394-0.91-0.586-1.426-0.58
			c-0.516-0.006-1.033,0.187-1.427,0.58c-0.201,0.201-0.348,0.435-0.444,0.683l-9.517,13.308c-0.201,0.194-0.36,0.428-0.466,0.692
			c-0.044,0.104-0.074,0.212-0.1,0.321c-0.002,0.007-0.005,0.014-0.007,0.021c-0.139,0.638,0.036,1.332,0.533,1.829
			c0.41,0.41,0.954,0.597,1.491,0.573h19.871c0.536,0.023,1.081-0.164,1.491-0.573c0.495-0.496,0.671-1.188,0.533-1.825
			C43.965,15.587,43.955,15.566,43.95,15.544z M41.938,46.009H22.081c-0.539-0.025-1.086,0.161-1.498,0.573
			c-0.497,0.496-0.672,1.189-0.533,1.827c0.003,0.013,0.009,0.024,0.011,0.037c0.025,0.104,0.054,0.206,0.096,0.306
			c0.105,0.264,0.265,0.499,0.466,0.693l9.517,13.308c0.097,0.249,0.244,0.482,0.444,0.683c0.394,0.394,0.911,0.585,1.427,0.579
			c0.516,0.006,1.032-0.186,1.426-0.579c0.201-0.201,0.348-0.434,0.444-0.683l9.519-13.309c0.201-0.195,0.36-0.431,0.466-0.694
			c0.035-0.086,0.059-0.174,0.081-0.263c0.007-0.027,0.019-0.053,0.024-0.081c0.138-0.638-0.038-1.329-0.533-1.824
			C43.024,46.17,42.477,45.983,41.938,46.009z M15.606,20.049c-0.001,0-0.003,0.001-0.005,0.001
			c-0.115,0.025-0.228,0.059-0.338,0.104c-0.261,0.105-0.494,0.263-0.688,0.462l-13.311,9.52c-0.249,0.097-0.482,0.243-0.684,0.444
			c-0.394,0.394-0.585,0.912-0.579,1.428c-0.006,0.516,0.186,1.033,0.579,1.427c0.201,0.201,0.435,0.347,0.684,0.444l13.31,9.519
			c0.194,0.2,0.429,0.359,0.692,0.465c0.087,0.036,0.176,0.059,0.266,0.082c0.026,0.007,0.052,0.018,0.078,0.023
			c0.638,0.138,1.329-0.038,1.825-0.533c0.41-0.41,0.597-0.955,0.573-1.491V22.073c0.023-0.537-0.163-1.082-0.573-1.492
			C16.939,20.084,16.246,19.91,15.606,20.049z M63.437,30.581c-0.201-0.201-0.435-0.347-0.684-0.444l-13.309-9.519
			c-0.193-0.2-0.428-0.358-0.689-0.463c-0.107-0.045-0.219-0.077-0.331-0.103c-0.004-0.001-0.008-0.002-0.012-0.003
			c-0.639-0.14-1.333,0.035-1.83,0.532c-0.412,0.413-0.599,0.962-0.572,1.502v19.851c-0.026,0.54,0.16,1.088,0.572,1.501
			c0.496,0.495,1.188,0.671,1.825,0.533c0.029-0.006,0.056-0.018,0.085-0.025c0.087-0.022,0.175-0.045,0.259-0.08
			c0.264-0.105,0.5-0.265,0.694-0.466l13.308-9.518c0.249-0.097,0.482-0.243,0.684-0.444c0.394-0.394,0.585-0.911,0.579-1.427
			C64.021,31.493,63.83,30.975,63.437,30.581z"/>
	</g>
</g>
<g>
</g>
<g>
</g>
<g>
</g>
<g>
</g>
<g>
</g>
<g>
</g>
<g>
</g>
<g>
</g>
<g>
</g>
<g>
</g>
<g>
</g>
<g>
</g>
<g>
</g>
<g>
</g>
<g>
</g>
</svg>
