<?xml version="1.0" encoding="iso-8859-1"?>
<!-- Generator: Adobe Illustrator 16.0.0, SVG Export Plug-In . SVG Version: 6.00 Build 0)  -->
<!DOCTYPE svg PUBLIC "-//W3C//DTD SVG 1.1//EN" "http://www.w3.org/Graphics/SVG/1.1/DTD/svg11.dtd">
<svg version="1.1" id="Layer_1" xmlns="http://www.w3.org/2000/svg" xmlns:xlink="http://www.w3.org/1999/xlink" x="0px" y="0px"
	 width="63.969px" height="64.014px" viewBox="0 0 63.969 64.014" style="enable-background:new 0 0 63.969 64.014;"
	 xml:space="preserve">
<g id="Base_3_">
	<g>
		<path style="fill:#E2B65E;" d="M48.781,15.184c-1.59-1.59-4.167-1.59-5.757,0L11.964,48.051c-1.59,1.589-3.591,4.414-2.002,6.004
			c1.59,1.589,4.416-0.412,6.006-2.001l32.813-31.115C50.371,19.35,50.371,16.772,48.781,15.184z"/>
	</g>
</g>
<g id="Wing">
	<g>
		<path style="fill:#FFCC66;" d="M30.366,30.053c-1.309,0.063-19.542,1.04-19.542,1.04l0.008,0.021
			c-2.769-0.166-5.642,0.803-7.81,2.899c-3.908,3.776-4.044,9.771-0.303,13.387c2.589,2.502,9.878-0.297,13.248-1.35l16.04-15.405
			C31.601,30.25,31.021,30.022,30.366,30.053z"/>
	</g>
</g>
<g id="Wing_1_">
	<g>
		<path style="fill:#FFCC66;" d="M33.971,33.656c0.03-0.654-0.193-1.233-0.58-1.642L18.296,48.051
			c-1.032,3.369-3.775,10.656-1.323,13.244c3.544,3.74,9.417,3.604,13.118-0.303c2.055-2.168,3.004-5.04,2.841-7.808l0.021,0.008
			C32.952,53.192,33.91,34.965,33.971,33.656z"/>
	</g>
</g>
<g id="Point">
	<g>
		<path style="fill:#CCCCCC;" d="M63.378,0.591c-0.787-0.788-2.064-0.788-2.853,0L44.558,16.553c-0.788,0.787-0.788,2.064,0,2.852
			c0.788,0.788,2.065,0.788,2.854,0L63.378,3.443C64.166,2.655,64.166,1.379,63.378,0.591z"/>
	</g>
</g>
<g id="Nose_2_">
	<g>
		<path style="fill:#999999;" d="M54.786,9.18c-1.59-1.59-4.167-1.59-5.757,0l-7.891,7.889c-1.59,1.59-0.739,3.379,0.851,4.969
			c1.59,1.589,3.316,2.376,4.906,0.786l7.891-7.888C56.376,13.346,56.376,10.77,54.786,9.18z"/>
	</g>
</g>
<g>
</g>
<g>
</g>
<g>
</g>
<g>
</g>
<g>
</g>
<g>
</g>
<g>
</g>
<g>
</g>
<g>
</g>
<g>
</g>
<g>
</g>
<g>
</g>
<g>
</g>
<g>
</g>
<g>
</g>
</svg>
