<?xml version="1.0" encoding="iso-8859-1"?>
<!-- Generator: Adobe Illustrator 16.0.0, SVG Export Plug-In . SVG Version: 6.00 Build 0)  -->
<!DOCTYPE svg PUBLIC "-//W3C//DTD SVG 1.1//EN" "http://www.w3.org/Graphics/SVG/1.1/DTD/svg11.dtd">
<svg version="1.1" id="Layer_1" xmlns="http://www.w3.org/2000/svg" xmlns:xlink="http://www.w3.org/1999/xlink" x="0px" y="0px"
	 width="63.991px" height="63.972px" viewBox="0 0 63.991 63.972" style="enable-background:new 0 0 63.991 63.972;"
	 xml:space="preserve">
<g id="Base_4_">
	<g>
		<ellipse style="fill:#A67C52;" cx="31.996" cy="31.986" rx="31.996" ry="31.986"/>
	</g>
</g>
<g id="Shape_5_">
	<g>
		<ellipse style="fill:#FFFFFF;" cx="31.996" cy="31.986" rx="27.997" ry="27.988"/>
	</g>
</g>
<g id="Stripes_8_">
	<g>
		<path style="fill-rule:evenodd;clip-rule:evenodd;fill:#4D4D4D;" d="M22.165,58.194l9.832-26.208L13.302,52.813
			C15.873,55.119,18.871,56.959,22.165,58.194z M7.087,44.754l24.909-12.768H3.999C3.999,36.588,5.118,40.925,7.087,44.754z
			 M51.778,51.763c2.797-2.798,5.018-6.174,6.434-9.948l-26.216-9.828L51.778,51.763z M43.575,57.452L31.996,31.986v27.987
			C36.129,59.974,40.044,59.061,43.575,57.452z M5.779,22.157l26.217,9.829L12.213,12.209C9.416,15.007,7.196,18.383,5.779,22.157z
			 M41.827,5.777l-9.831,26.209l20.442-19.104C49.52,9.763,45.902,7.306,41.827,5.777z M57.824,21.188L31.996,31.986h27.996
			C59.992,28.157,59.216,24.512,57.824,21.188z M20.417,6.52l11.58,25.467V3.998C27.862,3.998,23.948,4.911,20.417,6.52z"/>
	</g>
</g>
<g id="Shape_6_">
	<g>
		<circle style="fill:#FFFFFF;" cx="31.996" cy="31.985" r="15.993"/>
	</g>
</g>
<g id="Stripes_2_">
	<g>
		<path style="fill-rule:evenodd;clip-rule:evenodd;fill:#4D4D4D;" d="M16.069,33.415l15.927-1.429L17.164,25.99
			C16.178,28.43,15.843,30.966,16.069,33.415z M21.183,43.753l10.813-11.767l-14.355,7.024
			C18.51,40.779,19.704,42.394,21.183,43.753z M25.999,46.813c2.191,0.886,4.46,1.238,6.674,1.14l-0.677-15.966L25.999,46.813
			L25.999,46.813z M43.767,42.795L31.996,31.986l6.237,14.702C40.312,45.804,42.208,44.49,43.767,42.795z M37.992,17.158
			c-2.19-0.886-4.459-1.238-6.673-1.14l0.677,15.968L37.992,17.158C37.993,17.158,37.993,17.158,37.992,17.158z M42.809,20.219
			L31.996,31.986l14.913-5.74C46.029,23.973,44.639,21.9,42.809,20.219z M20.225,21.176l11.771,10.811l-6.239-14.704
			C23.68,18.167,21.783,19.481,20.225,21.176z M47.989,31.796l-15.993,0.19l14.831,5.994C47.648,35.951,48.017,33.854,47.989,31.796
			z"/>
	</g>
</g>
<g>
</g>
<g>
</g>
<g>
</g>
<g>
</g>
<g>
</g>
<g>
</g>
<g>
</g>
<g>
</g>
<g>
</g>
<g>
</g>
<g>
</g>
<g>
</g>
<g>
</g>
<g>
</g>
<g>
</g>
</svg>
