<?xml version="1.0" encoding="iso-8859-1"?>
<!-- Generator: Adobe Illustrator 16.0.0, SVG Export Plug-In . SVG Version: 6.00 Build 0)  -->
<!DOCTYPE svg PUBLIC "-//W3C//DTD SVG 1.1//EN" "http://www.w3.org/Graphics/SVG/1.1/DTD/svg11.dtd">
<svg version="1.1" id="Layer_1" xmlns="http://www.w3.org/2000/svg" xmlns:xlink="http://www.w3.org/1999/xlink" x="0px" y="0px"
	 width="64px" height="64.001px" viewBox="0 0 64 64.001" style="enable-background:new 0 0 64 64.001;" xml:space="preserve">
<g id="Shirt_3_">
	<g>
		<path style="fill:#E6E6E6;" d="M60,48c-1.881-1.88-18-9.999-18-9.999H22c0,0-16.12,8.119-18,9.999c-3.761,3.761-4,16-4,16h64
			C64,64,63.76,51.761,60,48z"/>
	</g>
</g>
<g id="Vest">
	<g>
		<path style="fill-rule:evenodd;clip-rule:evenodd;fill:#4D4D4D;" d="M10,64h44l2.604-18.232C51.311,42.691,42,38.001,42,38.001
			s-1.834,16-10,24c-8.167-8-10-24-10-24s-9.311,4.69-14.604,7.767L10,64z"/>
	</g>
</g>
<g id="Collar_4_">
	<g>
		<polygon style="fill:#FFFFFF;" points="40,36 24,36 22,38 24,48.001 32,40 40,48.001 42,38 		"/>
	</g>
</g>
<g id="Bow_1_">
	<g>
		<path style="fill-rule:evenodd;clip-rule:evenodd;fill:#D46557;" d="M30,42.001l-5-2c-1.657,0-3,1.343-3,3s1.343,3,3,3l5-2
			c1.656,0,2,0.657,2-1S31.656,42.001,30,42.001z M39,40.001l-5,2c-1.657,0-2-0.657-2,1s0.343,1,2,1l5,2c1.656,0,3-1.343,3-3
			S40.656,40.001,39,40.001z"/>
	</g>
</g>
<g id="Tie_2_">
	<g>
		<path style="fill-rule:evenodd;clip-rule:evenodd;fill:#ED7161;" d="M36,42.001c0-2-2-2-2-2h-1.999L32,40l-0.001,0.001H30
			c0,0-2,0-2,2c0.338,0.338,0.672,0.672,1,1c-0.328,0.328-0.662,0.662-1,1c0,2,2,2,2,2h4c0,0,2,0,2-2c-0.338-0.338-0.672-0.672-1-1
			C35.328,42.673,35.662,42.339,36,42.001z"/>
	</g>
</g>
<g id="Neck_2_">
	<g>
		<path style="fill:#DBB59A;" d="M38,30.001H26L24,36c0,1.104,4.895,4,6,4h4c1.104,0,6-2.896,6-4L38,30.001z"/>
	</g>
</g>
<g id="Head_4_">
	<g>
		<path style="fill:#F6CBAD;" d="M32,2c-7.732,0-14,4-14,12c0,6,2,10,4,14.001C24,32,28.081,36,32,36c3.918,0,8-4,10-7.999
			C44,24,46,20,46,14C46,6,39.731,2,32,2z"/>
	</g>
</g>
<g id="Hair_1_">
	<g>
		<path style="fill:#8E6842;" d="M46,11.001C45.455,4.743,42.736,0,32,0c-4.685,0-10,1.656-10,3.828c-2.958,0-4,6.332-4,11.481
			c0,0.859,0.08,1.763,0.205,2.683c0.515-2.531,2.105-5.991,5.795-5.991c3.453,0,2.108,0,8,0c1.323,0,3.359-0.735,5.258-1.159
			c0.017-0.003,0.032-0.007,0.049-0.011c0.617-0.14,2.14-0.644,2.693-0.83c2.158,0.773,6,3.345,6,8v-4v-2
			C46,12.001,45.988,11.013,46,11.001z"/>
	</g>
</g>
<g>
</g>
<g>
</g>
<g>
</g>
<g>
</g>
<g>
</g>
<g>
</g>
<g>
</g>
<g>
</g>
<g>
</g>
<g>
</g>
<g>
</g>
<g>
</g>
<g>
</g>
<g>
</g>
<g>
</g>
</svg>
