<?xml version="1.0" encoding="iso-8859-1"?>
<!-- Generator: Adobe Illustrator 16.0.0, SVG Export Plug-In . SVG Version: 6.00 Build 0)  -->
<!DOCTYPE svg PUBLIC "-//W3C//DTD SVG 1.1//EN" "http://www.w3.org/Graphics/SVG/1.1/DTD/svg11.dtd">
<svg version="1.1" id="Layer_1" xmlns="http://www.w3.org/2000/svg" xmlns:xlink="http://www.w3.org/1999/xlink" x="0px" y="0px"
	 width="64px" height="63.998px" viewBox="0 0 64 63.998" style="enable-background:new 0 0 64 63.998;" xml:space="preserve">
<g id="Dice_Shape_5_">
	<g>
		<path style="fill:#E6E6E6;" d="M56,0H8C3.582,0,0,3.582,0,8v47.998c0,4.419,3.582,8,8,8h48c4.419,0,8.001-3.581,8.001-8V8
			C64,3.582,60.418,0,56,0z"/>
	</g>
</g>
<g id="Shape_20_">
	<g>
		<path style="fill:#FFFFFF;" d="M44,4H20C11.164,4,4,11.163,4,20v23.999c0,8.837,7.164,15.999,16,15.999h24
			c8.836,0,16-7.162,16-15.999V20C60,11.163,52.836,4,44,4z"/>
	</g>
</g>
<g id="Dot_1_">
	<g>
		<circle style="fill:#4D4D4D;" cx="32" cy="32" r="6"/>
	</g>
</g>
<g>
</g>
<g>
</g>
<g>
</g>
<g>
</g>
<g>
</g>
<g>
</g>
<g>
</g>
<g>
</g>
<g>
</g>
<g>
</g>
<g>
</g>
<g>
</g>
<g>
</g>
<g>
</g>
<g>
</g>
</svg>
