<?xml version="1.0" encoding="iso-8859-1"?>
<!-- Generator: Adobe Illustrator 16.0.0, SVG Export Plug-In . SVG Version: 6.00 Build 0)  -->
<!DOCTYPE svg PUBLIC "-//W3C//DTD SVG 1.1//EN" "http://www.w3.org/Graphics/SVG/1.1/DTD/svg11.dtd">
<svg version="1.1" id="Layer_1" xmlns="http://www.w3.org/2000/svg" xmlns:xlink="http://www.w3.org/1999/xlink" x="0px" y="0px"
	 width="64.001px" height="63.998px" viewBox="0 0 64.001 63.998" style="enable-background:new 0 0 64.001 63.998;"
	 xml:space="preserve">
<g id="Dice_Shape_2_">
	<g>
		<path style="fill:#E6E6E6;" d="M56.001,0h-48C3.582,0,0,3.582,0,8v47.998c0,4.419,3.582,8,8.001,8h48c4.418,0,8-3.581,8-8V8
			C64.001,3.582,60.419,0,56.001,0z"/>
	</g>
</g>
<g id="Shape_17_">
	<g>
		<path style="fill:#FFFFFF;" d="M44.001,4h-24c-8.837,0-16,7.163-16,16v23.999c0,8.837,7.163,15.999,16,15.999h24
			C52.837,59.998,60,52.836,60,43.999V20C60,11.163,52.837,4,44.001,4z"/>
	</g>
</g>
<g id="Dots_5_">
	<g>
		<path style="fill-rule:evenodd;clip-rule:evenodd;fill:#4D4D4D;" d="M13.703,41.704c-2.355,2.355-2.355,6.174,0,8.529
			s6.174,2.355,8.529,0s2.355-6.174,0-8.529S16.059,39.349,13.703,41.704z M50.235,22.232c2.355-2.355,2.355-6.175,0-8.53
			s-6.175-2.355-8.53,0s-2.355,6.175,0,8.53C44.061,24.587,47.88,24.587,50.235,22.232z M13.766,13.702
			c-2.355,2.355-2.355,6.175,0,8.53c2.355,2.354,6.175,2.354,8.53,0c2.355-2.355,2.355-6.175,0-8.53S16.121,11.347,13.766,13.702z
			 M50.298,41.704c-2.355-2.355-6.174-2.355-8.529,0s-2.355,6.174,0,8.529s6.174,2.355,8.529,0S52.653,44.06,50.298,41.704z"/>
	</g>
</g>
<g>
</g>
<g>
</g>
<g>
</g>
<g>
</g>
<g>
</g>
<g>
</g>
<g>
</g>
<g>
</g>
<g>
</g>
<g>
</g>
<g>
</g>
<g>
</g>
<g>
</g>
<g>
</g>
<g>
</g>
</svg>
