<?xml version="1.0" encoding="iso-8859-1"?>
<!-- Generator: Adobe Illustrator 16.0.0, SVG Export Plug-In . SVG Version: 6.00 Build 0)  -->
<!DOCTYPE svg PUBLIC "-//W3C//DTD SVG 1.1//EN" "http://www.w3.org/Graphics/SVG/1.1/DTD/svg11.dtd">
<svg version="1.1" id="Layer_1" xmlns="http://www.w3.org/2000/svg" xmlns:xlink="http://www.w3.org/1999/xlink" x="0px" y="0px"
	 width="64.114px" height="60.178px" viewBox="0 0 64.114 60.178" style="enable-background:new 0 0 64.114 60.178;"
	 xml:space="preserve">
<g id="Body_5_">
	<g>
		<path style="fill:#4D4D4D;" d="M60.118,27.941H8.169c-2.207,0-3.996,1.792-3.996,4.004v24.025c0,2.212,1.789,4.005,3.996,4.005
			h51.949c2.207,0,3.996-1.793,3.996-4.005V31.945C64.114,29.733,62.325,27.941,60.118,27.941z"/>
	</g>
</g>
<g id="Shape_12_">
	<g>
		<path style="fill-rule:evenodd;clip-rule:evenodd;fill:#666666;" d="M58.12,31.945H36.157v24.025H58.12
			c1.104,0,1.998-0.896,1.998-2.002V33.948C60.118,32.842,59.224,31.945,58.12,31.945z M8.169,33.948v20.021
			c0,1.106,0.895,2.002,1.998,2.002H32.13V31.945H10.167C9.063,31.945,8.169,32.842,8.169,33.948z"/>
	</g>
</g>
<g id="Dot">
	<g>
		<ellipse style="fill:#FFFFFF;" cx="48.123" cy="43.967" rx="3.997" ry="4.005"/>
	</g>
</g>
<g id="Body_6_">
	<g>
		<path style="fill:#CCCCCC;" d="M28.144,0H4.118C1.906,0,0.114,1.789,0.114,3.997v51.948c0,2.208,1.792,3.997,4.004,3.997h24.025
			c2.211,0,4.004-1.789,4.004-3.997V3.997C32.147,1.789,30.354,0,28.144,0z"/>
	</g>
</g>
<g id="Shape_13_">
	<g>
		<path style="fill-rule:evenodd;clip-rule:evenodd;fill:#FFFFFF;" d="M26.142,3.997H6.12c-1.105,0-2.002,0.894-2.002,1.998v21.962
			h24.025V5.995C28.144,4.891,27.247,3.997,26.142,3.997z M4.118,53.947c0,1.104,0.896,1.998,2.002,1.998h20.021
			c1.105,0,2.002-0.895,2.002-1.998V31.985H4.118V53.947z"/>
	</g>
</g>
<g id="Dots_1_">
	<g>
		<path style="fill-rule:evenodd;clip-rule:evenodd;fill:#4D4D4D;" d="M11.12,11.98c1.659,0,3.004-1.342,3.004-2.997
			c0-1.656-1.345-2.998-3.004-2.998c-1.658,0-3.003,1.342-3.003,2.998C8.117,10.639,9.462,11.98,11.12,11.98z M21.141,23.983
			c1.658,0,3.003-1.342,3.003-2.997s-1.345-2.997-3.003-2.997c-1.659,0-3.004,1.342-3.004,2.997S19.481,23.983,21.141,23.983z
			 M11.13,35.97c-1.659,0-3.004,1.343-3.004,2.998s1.345,2.998,3.004,2.998c1.658,0,3.003-1.343,3.003-2.998
			S12.788,35.97,11.13,35.97z M21.131,35.97c-1.658,0-3.003,1.343-3.003,2.998s1.345,2.998,3.003,2.998
			c1.659,0,3.004-1.343,3.004-2.998S22.79,35.97,21.131,35.97z M11.13,47.949c-1.659,0-3.004,1.342-3.004,2.997
			c0,1.656,1.345,2.998,3.004,2.998c1.658,0,3.003-1.342,3.003-2.998C14.133,49.291,12.788,47.949,11.13,47.949z M21.131,47.949
			c-1.658,0-3.003,1.342-3.003,2.997c0,1.656,1.345,2.998,3.003,2.998c1.659,0,3.004-1.342,3.004-2.998
			C24.135,49.291,22.79,47.949,21.131,47.949z"/>
	</g>
</g>
<g>
</g>
<g>
</g>
<g>
</g>
<g>
</g>
<g>
</g>
<g>
</g>
<g>
</g>
<g>
</g>
<g>
</g>
<g>
</g>
<g>
</g>
<g>
</g>
<g>
</g>
<g>
</g>
<g>
</g>
</svg>
