<?xml version="1.0" encoding="iso-8859-1"?>
<!-- Generator: Adobe Illustrator 16.0.0, SVG Export Plug-In . SVG Version: 6.00 Build 0)  -->
<!DOCTYPE svg PUBLIC "-//W3C//DTD SVG 1.1//EN" "http://www.w3.org/Graphics/SVG/1.1/DTD/svg11.dtd">
<svg version="1.1" id="Layer_1" xmlns="http://www.w3.org/2000/svg" xmlns:xlink="http://www.w3.org/1999/xlink" x="0px" y="0px"
	 width="63.99px" height="63.959px" viewBox="0 0 63.99 63.959" style="enable-background:new 0 0 63.99 63.959;"
	 xml:space="preserve">
<g id="Body_7_">
	<g>
		<path style="fill:#CCCCCC;" d="M62.875,17.984L46.044,1.162c-1.549-1.549-4.061-1.549-5.61,0L1.162,40.415
			c-1.55,1.548-1.55,4.059,0,5.607l16.831,16.823c1.549,1.548,4.156,1.421,5.61,0l39.271-39.254
			C64.298,22.106,64.425,19.533,62.875,17.984z"/>
	</g>
</g>
<g id="Shape_14_">
	<g>
		<path style="fill-rule:evenodd;clip-rule:evenodd;fill:#FFFFFF;" d="M5.37,41.806c-0.775,0.774-0.775,2.03,0,2.806l14.025,14.025
			c0.774,0.774,2.03,0.774,2.805,0l16.82-16.82l-16.831-16.83L5.37,41.806z M58.668,19.364L44.642,5.339
			c-0.774-0.774-2.03-0.774-2.805,0l-16.82,16.82l16.831,16.83L58.667,22.17C59.442,21.395,59.442,20.139,58.668,19.364z"/>
	</g>
</g>
<g id="Dots_2_">
	<g>
		<path style="fill-rule:evenodd;clip-rule:evenodd;fill:#4D4D4D;" d="M45.146,17.1c1.175-1.175,1.175-3.078,0-4.253
			c-1.174-1.174-3.077-1.174-4.252,0c-1.174,1.175-1.174,3.078,0,4.253C42.068,18.273,43.972,18.273,45.146,17.1z M45.146,24.872
			c-1.174-1.174-3.077-1.174-4.252,0c-1.174,1.175-1.174,3.078,0,4.252c1.175,1.174,3.078,1.175,4.253,0
			C46.32,27.95,46.32,26.047,45.146,24.872z M18.891,32.85c-1.175,1.174-1.175,3.078,0,4.252c1.174,1.174,3.077,1.174,4.252,0
			c1.174-1.174,1.174-3.078,0-4.252S20.064,31.676,18.891,32.85z M26.904,40.863c-1.175,1.174-1.175,3.078,0,4.252
			c1.174,1.174,3.077,1.174,4.252,0c1.174-1.174,1.174-3.078,0-4.252C29.981,39.689,28.078,39.689,26.904,40.863z M10.877,40.863
			c-1.174,1.174-1.174,3.078,0,4.252c1.175,1.174,3.078,1.174,4.252,0c1.175-1.174,1.174-3.078,0-4.252S12.051,39.689,10.877,40.863
			z M18.891,48.877c-1.175,1.174-1.175,3.078,0,4.252c1.174,1.174,3.077,1.174,4.252,0c1.174-1.174,1.174-3.078,0-4.252
			C21.968,47.702,20.064,47.702,18.891,48.877z"/>
	</g>
</g>
<g>
</g>
<g>
</g>
<g>
</g>
<g>
</g>
<g>
</g>
<g>
</g>
<g>
</g>
<g>
</g>
<g>
</g>
<g>
</g>
<g>
</g>
<g>
</g>
<g>
</g>
<g>
</g>
<g>
</g>
</svg>
