<?xml version="1.0" encoding="iso-8859-1"?>
<!-- Generator: Adobe Illustrator 16.0.0, SVG Export Plug-In . SVG Version: 6.00 Build 0)  -->
<!DOCTYPE svg PUBLIC "-//W3C//DTD SVG 1.1//EN" "http://www.w3.org/Graphics/SVG/1.1/DTD/svg11.dtd">
<svg version="1.1" id="Layer_1" xmlns="http://www.w3.org/2000/svg" xmlns:xlink="http://www.w3.org/1999/xlink" x="0px" y="0px"
	 width="64px" height="43.999px" viewBox="0 0 64 43.999" style="enable-background:new 0 0 64 43.999;" xml:space="preserve">
<g id="Trigger">
	<g>
		<path style="fill-rule:evenodd;clip-rule:evenodd;fill:#ED7161;" d="M28,16h-2v6h4v-0.018C28.75,20.313,28,18.246,28,16z"/>
	</g>
</g>
<g id="Grip">
	<g>
		<path style="fill:#999999;" d="M8,14c0,0-4.5,2.688,0,6h6c0,0,4.375,0.688,0,6L6,36c0,0-2,1.687-2,4c0,2.313,1.5,3.999,4,3.999
			S16.688,43.375,20,38c0,0,6-11.249,6-14c0-2.5,0-10,0-10H8z"/>
	</g>
</g>
<g id="Barrel">
	<g>
		<path style="fill-rule:evenodd;clip-rule:evenodd;fill:#999999;" d="M62,6V4c0-1.104-0.896-2-2-2s-2,0.896-2,2H34H23.816
			C23.402,2.838,22.304,2,21,2h-7c0-1.104-0.896-2-2-2c-1.105,0-2,0.896-2,2v0.184C9.151,2.485,8.485,3.152,8.184,4H8H5
			C3.343,4,2,5.344,2,7c0,0.353,0.072,0.686,0.184,1H2c-1.104,0-2,0.896-2,2s0.896,2,2,2h0.349c0.824,2.329,3.04,4,5.651,4h26
			c3.313,0,6-2.687,6-6h12h7h3c1.104,0,2-0.895,2-2C64,6.896,63.104,6,62,6z"/>
	</g>
</g>
<g id="Barrel_1_">
	<g>
		<path style="fill-rule:evenodd;clip-rule:evenodd;fill:#CCCCCC;" d="M2,12h0.349c0.824,2.329,3.04,4,5.651,4h26
			c3.313,0,6-2.687,6-6H0C0,11.104,0.896,12,2,12z"/>
	</g>
</g>
<g id="Shape_96_">
	<g>
		<path style="fill:#ED7161;" d="M19,10H9c-0.553,0-1,0.448-1,1c0,0.553,0.447,1,1,1h10c0.552,0,1-0.447,1-1
			C20,10.448,19.552,10,19,10z"/>
	</g>
</g>
<g id="Shape_97_">
	<g>
		<circle style="fill:#666666;" cx="8" cy="10" r="2"/>
	</g>
</g>
<g id="Shape_98_">
	<g>
		<circle style="fill:#666666;" cx="20" cy="10" r="2"/>
	</g>
</g>
<g>
</g>
<g>
</g>
<g>
</g>
<g>
</g>
<g>
</g>
<g>
</g>
<g>
</g>
<g>
</g>
<g>
</g>
<g>
</g>
<g>
</g>
<g>
</g>
<g>
</g>
<g>
</g>
<g>
</g>
</svg>
