<?xml version="1.0" encoding="iso-8859-1"?>
<!-- Generator: Adobe Illustrator 16.0.0, SVG Export Plug-In . SVG Version: 6.00 Build 0)  -->
<!DOCTYPE svg PUBLIC "-//W3C//DTD SVG 1.1//EN" "http://www.w3.org/Graphics/SVG/1.1/DTD/svg11.dtd">
<svg version="1.1" id="Layer_1" xmlns="http://www.w3.org/2000/svg" xmlns:xlink="http://www.w3.org/1999/xlink" x="0px" y="0px"
	 width="48px" height="63.998px" viewBox="0 0 48 63.998" style="enable-background:new 0 0 48 63.998;" xml:space="preserve">
<g id="Shell">
	<g>
		<path style="fill:#E6E6E6;" d="M24,0C10.745,0,0,23.64,0,37.999s10.745,25.999,24,25.999s24-11.64,24-25.999S37.255,0,24,0z"/>
	</g>
</g>
<g id="Dots_10_">
	<g>
		<path style="fill-rule:evenodd;clip-rule:evenodd;fill:#88C057;" d="M6,27.999c-1.839,0-3.54,0.638-5.021,1.677
			C0.353,32.617,0,35.457,0,37.998c0,4.995,1.322,9.644,3.576,13.604c0.78,0.234,1.583,0.396,2.424,0.396
			c5.523,0,10-5.372,10-11.999S11.523,27.999,6,27.999z M36.692,33.261c4.866-2.301,6.709-9.208,4.117-15.427
			c-2.592-6.22-8.637-9.396-13.502-7.096c-4.865,2.3-6.709,9.207-4.117,15.427C25.782,32.384,31.827,35.562,36.692,33.261z
			 M39.717,46.828c-4.291-1.536-9.53,1.496-11.703,6.772c-1.507,3.66-1.106,7.407,0.69,9.892
			c6.474-1.395,11.995-5.614,15.455-11.417C43.537,49.623,42.01,47.649,39.717,46.828z"/>
	</g>
</g>
<g>
</g>
<g>
</g>
<g>
</g>
<g>
</g>
<g>
</g>
<g>
</g>
<g>
</g>
<g>
</g>
<g>
</g>
<g>
</g>
<g>
</g>
<g>
</g>
<g>
</g>
<g>
</g>
<g>
</g>
</svg>
