<?xml version="1.0" encoding="iso-8859-1"?>
<!-- Generator: Adobe Illustrator 16.0.0, SVG Export Plug-In . SVG Version: 6.00 Build 0)  -->
<!DOCTYPE svg PUBLIC "-//W3C//DTD SVG 1.1//EN" "http://www.w3.org/Graphics/SVG/1.1/DTD/svg11.dtd">
<svg version="1.1" id="Layer_1" xmlns="http://www.w3.org/2000/svg" xmlns:xlink="http://www.w3.org/1999/xlink" x="0px" y="0px"
	 width="64px" height="64.001px" viewBox="0 0 64 64.001" style="enable-background:new 0 0 64 64.001;" xml:space="preserve">
<g id="Suit_1_">
	<g>
		<path style="fill:#666666;" d="M4,44c-3.761,3.761-4,20-4,20h24l-2-30C22,34,5.88,42.12,4,44z M60,44c-1.881-1.88-18-10-18-10
			l-2,30h24C64,64,63.76,47.761,60,44z"/>
	</g>
</g>
<g id="Collar_2_">
	<g>
		<path style="fill:#4D4D4D;" d="M14,44.001l4,2L14,50l8,14l6,0.001L22,38L14,44.001z M50,44.001L42,38l-6,26.001L42,64l8-14
			l-4-3.999L50,44.001z"/>
	</g>
</g>
<g id="Shirt_2_">
	<g>
		<polygon style="fill:#FFFFFF;" points="22,34.002 22,38.001 28,64.001 36,64.001 42,38.001 42,34.002 		"/>
	</g>
</g>
<g id="Collar_3_">
	<g>
		<polygon style="fill:#E6E6E6;" points="40,32 24,32 22,34 24,44 32,36 40,44 42,34 		"/>
	</g>
</g>
<g id="Tie_1_">
	<g>
		<path style="fill-rule:evenodd;clip-rule:evenodd;fill:#9B7CAB;" d="M36,44.001C34,42,32,40,32,40s-2,2-4,4.001c0,2,2,2,2,2L28,64
			h8l-2-17.999C34,46.001,36,46.001,36,44.001z"/>
	</g>
</g>
<g id="Neck_1_">
	<g>
		<path style="fill:#BD9C84;" d="M38,30.001H26L24,36c0,1.104,4.895,4,6,4h4c1.104,0,6-2.896,6-4L38,30.001z"/>
	</g>
</g>
<g id="Head_3_">
	<g>
		<path style="fill:#F6CBAD;" d="M32,0c-7.732,0-14,6-14,14c0,6,2,10,4,14.001C24,32,28.081,36,32,36c3.918,0,8-4,10-7.999
			C44,24,46,20,46,14C46,6,39.731,0,32,0z"/>
	</g>
</g>
<g id="Glasses">
	<g>
		<path style="fill-rule:evenodd;clip-rule:evenodd;fill:#4D4D4D;" d="M42,14.001l-6,0.001c-1.104,0-2,0.895-2,2h-4v-0.001l0,0
			c-0.001-1.105-0.896-1.999-2-1.999l-6-0.001l-4,2v2l4-2v2c0,1.104,0.208,4,4,4c3.854,0,4-2.895,4-3.999l4-0.001v0.001l0,0
			c0,1.105,0.209,3.999,4,3.999c3.854,0,4-2.896,4-4v-2l4,2v-2L42,14.001z"/>
	</g>
</g>
<g>
</g>
<g>
</g>
<g>
</g>
<g>
</g>
<g>
</g>
<g>
</g>
<g>
</g>
<g>
</g>
<g>
</g>
<g>
</g>
<g>
</g>
<g>
</g>
<g>
</g>
<g>
</g>
<g>
</g>
</svg>
