<?xml version="1.0" encoding="iso-8859-1"?>
<!-- Generator: Adobe Illustrator 16.0.0, SVG Export Plug-In . SVG Version: 6.00 Build 0)  -->
<!DOCTYPE svg PUBLIC "-//W3C//DTD SVG 1.1//EN" "http://www.w3.org/Graphics/SVG/1.1/DTD/svg11.dtd">
<svg version="1.1" id="Layer_1" xmlns="http://www.w3.org/2000/svg" xmlns:xlink="http://www.w3.org/1999/xlink" x="0px" y="0px"
	 width="63.992px" height="63.972px" viewBox="0 0 63.992 63.972" style="enable-background:new 0 0 63.992 63.972;"
	 xml:space="preserve">
<g id="Seats">
	<g>
		<path style="fill-rule:evenodd;clip-rule:evenodd;fill:#48A0DC;" d="M35.996,1.999h-8c-1.104,0-1.999,0.895-1.999,1.999v3.998
			c0,1.104,0.896,1.999,1.999,1.999h8c1.104,0,1.999-0.895,1.999-1.999V3.998C37.995,2.894,37.1,1.999,35.996,1.999z M35.996,53.977
			h-8c-1.104,0-1.999,0.895-1.999,1.999v3.998c0,1.104,0.896,1.999,1.999,1.999h8c1.104,0,1.999-0.895,1.999-1.999v-3.998
			C37.995,54.871,37.1,53.977,35.996,53.977z M9.999,35.984v-7.996c0-1.105-0.896-2-2-2H4c-1.104,0-2,0.895-2,2v7.996
			c0,1.104,0.896,1.999,2,1.999h3.999C9.104,37.983,9.999,37.088,9.999,35.984z M59.992,25.988h-4c-1.104,0-1.999,0.895-1.999,2
			v7.996c0,1.104,0.896,1.999,1.999,1.999h4c1.104,0,2-0.896,2-1.999v-7.996C61.992,26.883,61.097,25.988,59.992,25.988z
			 M17.617,8.615c-0.828-0.828-2.171-0.828-2.999,0l-6,5.998c-0.829,0.828-0.829,2.171,0,2.999l1.757,1.757
			c0.828,0.828,2.172,0.828,3,0l6-5.998c0.828-0.828,0.828-2.171,0-3L17.617,8.615z M55.616,44.604c-0.828-0.828-2.171-0.828-3,0
			l-6,5.998c-0.828,0.828-0.828,2.17,0,2.998l1.758,1.758c0.828,0.828,2.171,0.828,3,0l6-5.998c0.828-0.828,0.828-2.172,0-3
			L55.616,44.604z M13.402,44.555c-0.823-0.827-2.157-0.827-2.979,0l-1.809,1.817c-0.823,0.827-0.823,2.169,0,2.995l5.959,5.99
			c0.823,0.828,2.157,0.828,2.979,0l1.809-1.817c0.823-0.827,0.823-2.168,0-2.995L13.402,44.555z M52.56,19.355
			c0.828,0.822,2.169,0.822,2.996,0l1.818-1.809c0.828-0.822,0.828-2.156,0-2.979l-5.991-5.957c-0.827-0.822-2.169-0.822-2.996,0
			l-1.818,1.808c-0.827,0.822-0.827,2.156,0,2.979L52.56,19.355z"/>
	</g>
</g>
<g id="Wheel">
	<g>
		<path style="fill-rule:evenodd;clip-rule:evenodd;fill:#CCCCCC;" d="M31.996,0C14.325,0,0,14.32,0,31.986
			c0,17.665,14.325,31.985,31.996,31.985s31.996-14.32,31.996-31.985C63.992,14.32,49.667,0,31.996,0z M31.996,59.974
			C16.534,59.974,4,47.443,4,31.986C4,16.528,16.534,3.998,31.996,3.998s27.996,12.53,27.996,27.988
			C59.992,47.443,47.458,59.974,31.996,59.974z"/>
	</g>
</g>
<g id="Legs_1_">
	<g>
		<path style="fill-rule:evenodd;clip-rule:evenodd;fill:#808080;" d="M9.999,63.972h5.999l15.998-27.987l-4-2L9.999,63.972z
			 M35.996,33.984l-4,2l15.998,27.987h5.999L35.996,33.984z"/>
	</g>
</g>
<g id="Axis_1_">
	<g>
		<circle style="fill:#666666;" cx="31.996" cy="31.986" r="5.998"/>
	</g>
</g>
<g>
</g>
<g>
</g>
<g>
</g>
<g>
</g>
<g>
</g>
<g>
</g>
<g>
</g>
<g>
</g>
<g>
</g>
<g>
</g>
<g>
</g>
<g>
</g>
<g>
</g>
<g>
</g>
<g>
</g>
</svg>
