<?xml version="1.0" encoding="iso-8859-1"?>
<!-- Generator: Adobe Illustrator 16.0.0, SVG Export Plug-In . SVG Version: 6.00 Build 0)  -->
<!DOCTYPE svg PUBLIC "-//W3C//DTD SVG 1.1//EN" "http://www.w3.org/Graphics/SVG/1.1/DTD/svg11.dtd">
<svg version="1.1" id="Layer_1" xmlns="http://www.w3.org/2000/svg" xmlns:xlink="http://www.w3.org/1999/xlink" x="0px" y="0px"
	 width="63.992px" height="63.972px" viewBox="0 0 63.992 63.972" style="enable-background:new 0 0 63.992 63.972;"
	 xml:space="preserve">
<g id="Pole_1_">
	<g>
		<rect y="27.988" style="fill:#CCCCCC;" width="63.992" height="7.996"/>
	</g>
</g>
<g id="Head_2_">
	<g>
		<circle style="fill:#B38FC4;" cx="31.996" cy="9.996" r="9.996"/>
	</g>
</g>
<g id="Legs_3_">
	<g>
		<path style="fill:#B38FC4;" d="M35.995,37.983h-7.999c-2.209,0-4,1.79-4,3.998l2,17.992c0,2.209,1.791,3.998,4,3.998h4
			c2.209,0,4-1.789,4-3.998l2-17.992C39.995,39.773,38.204,37.983,35.995,37.983z"/>
	</g>
</g>
<g id="Body_3_">
	<g>
		<path style="fill:#9B7CAB;" d="M39.995,17.992H23.997c-2.209,0-4,1.79-4,3.999v15.992c0,2.209,1.791,3.998,4,3.998h15.998
			c2.209,0,4-1.789,4-3.998V21.991C43.994,19.782,42.204,17.992,39.995,17.992z"/>
	</g>
</g>
<g>
</g>
<g>
</g>
<g>
</g>
<g>
</g>
<g>
</g>
<g>
</g>
<g>
</g>
<g>
</g>
<g>
</g>
<g>
</g>
<g>
</g>
<g>
</g>
<g>
</g>
<g>
</g>
<g>
</g>
</svg>
