<?xml version="1.0" encoding="iso-8859-1"?>
<!-- Generator: Adobe Illustrator 16.0.0, SVG Export Plug-In . SVG Version: 6.00 Build 0)  -->
<!DOCTYPE svg PUBLIC "-//W3C//DTD SVG 1.1//EN" "http://www.w3.org/Graphics/SVG/1.1/DTD/svg11.dtd">
<svg version="1.1" id="Layer_1" xmlns="http://www.w3.org/2000/svg" xmlns:xlink="http://www.w3.org/1999/xlink" x="0px" y="0px"
	 width="48px" height="63.998px" viewBox="0 0 48 63.998" style="enable-background:new 0 0 48 63.998;" xml:space="preserve">
<g id="Shape_24_">
	<g>
		<path style="fill:#E6E6E6;" d="M43.399,0H4.6C2.06,0,0,2.047,0,4.57v54.857c0,2.523,2.06,4.57,4.6,4.57h38.8
			c2.541,0,4.601-2.047,4.601-4.57V4.57C48,2.047,45.94,0,43.399,0z"/>
	</g>
</g>
<g id="Shape_25_">
	<g>
		<path style="fill:#FFFFFF;" d="M41.771,4.008H6.229c-1.244,0-2.253,1.008-2.253,2.25V57.74c0,1.242,1.009,2.25,2.253,2.25h35.543
			c1.244,0,2.253-1.008,2.253-2.25V6.258C44.024,5.016,43.016,4.008,41.771,4.008z"/>
	</g>
</g>
<g id="Heart">
	<g>
		<path style="fill-rule:evenodd;clip-rule:evenodd;fill:#ED7161;" d="M34,28.851c0-2.68-2.142-4.852-4.781-4.852
			c-1.841,0-3.42,1.067-4.219,2.614c-0.799-1.547-2.379-2.614-4.219-2.614c-2.641,0-4.781,2.172-4.781,4.852
			c0,1.49,0.676,2.806,1.718,3.696l-0.03,0.014c0,0,6.077,6.597,6.517,7.067c0.439,0.47,1.151,0.47,1.591,0
			c0.439-0.471,6.518-7.067,6.518-7.067l-0.03-0.015C33.324,31.656,34,30.341,34,28.851z"/>
	</g>
</g>
<g id="Heart_3_">
	<g>
		<path style="fill-rule:evenodd;clip-rule:evenodd;fill:#ED7161;" d="M16,9.989c0-1.099-0.896-1.99-2-1.99c-1.105,0-2,0.892-2,1.99
			c0,0.004,0.001,0.007,0.001,0.01H12h-0.001c0-0.003,0.001-0.006,0.001-0.01c0-1.099-0.896-1.99-2-1.99c-1.105,0-2,0.892-2,1.99
			c0,0.562,0.235,1.067,0.611,1.429L8.6,11.423L12,16l3.4-4.577l-0.012-0.005C15.765,11.056,16,10.551,16,9.989z"/>
	</g>
</g>
<g id="Heart_2_">
	<g>
		<path style="fill-rule:evenodd;clip-rule:evenodd;fill:#ED7161;" d="M40,49.988c0-1.099-0.896-1.989-2-1.989
			c-1.105,0-2,0.891-2,1.989c0,0.004,0.001,0.007,0.001,0.01H36h-0.001c0-0.003,0.001-0.006,0.001-0.01c0-1.099-0.896-1.989-2-1.989
			s-2,0.891-2,1.989c0,0.562,0.236,1.067,0.612,1.43L32.6,51.423l3.4,4.575l3.4-4.575l-0.012-0.005
			C39.764,51.056,40,50.55,40,49.988z"/>
	</g>
</g>
<g>
</g>
<g>
</g>
<g>
</g>
<g>
</g>
<g>
</g>
<g>
</g>
<g>
</g>
<g>
</g>
<g>
</g>
<g>
</g>
<g>
</g>
<g>
</g>
<g>
</g>
<g>
</g>
<g>
</g>
</svg>
