<?xml version="1.0" encoding="iso-8859-1"?>
<!-- Generator: Adobe Illustrator 16.0.0, SVG Export Plug-In . SVG Version: 6.00 Build 0)  -->
<!DOCTYPE svg PUBLIC "-//W3C//DTD SVG 1.1//EN" "http://www.w3.org/Graphics/SVG/1.1/DTD/svg11.dtd">
<svg version="1.1" id="Layer_1" xmlns="http://www.w3.org/2000/svg" xmlns:xlink="http://www.w3.org/1999/xlink" x="0px" y="0px"
	 width="40px" height="63.999px" viewBox="0 0 40 63.999" style="enable-background:new 0 0 40 63.999;" xml:space="preserve">
<g id="Body_44_">
	<g>
		<path style="fill-rule:evenodd;clip-rule:evenodd;fill:#CCCCCC;" d="M39.901,3.121H40V0h-1.539h-2.308H3.846H1.539H0v1.562v1.56
			v57.755v1.562v1.562h3.846v-0.001L34,63.982c4.003,0,6-2.093,6-6v-54C40,3.789,39.964,3.48,39.901,3.121z"/>
	</g>
</g>
<g id="Stripes_7_">
	<g>
		<path style="fill-rule:evenodd;clip-rule:evenodd;fill:#808080;" d="M31.647,50.267c-0.431-0.432-1.13-0.432-1.561,0l-3.803,3.802
			c-0.431,0.431-0.431,1.13,0,1.561c0.431,0.432,1.13,0.432,1.561,0l3.803-3.803C32.079,51.396,32.079,50.697,31.647,50.267z
			 M35.647,54.267c-0.431-0.432-1.129-0.432-1.561,0l-3.803,3.802c-0.431,0.432-0.431,1.13,0,1.561c0.431,0.432,1.13,0.432,1.561,0
			l3.803-3.803C36.078,55.396,36.078,54.697,35.647,54.267z"/>
	</g>
</g>
<g id="Frame_3_">
	<g>
		<rect x="4.014" y="3.997" style="fill:#808080;" width="31.973" height="32.031"/>
	</g>
</g>
<g id="Display_4_">
	<g>
		<rect x="8.008" y="8.024" style="fill:#4D4D4D;" width="23.984" height="23.977"/>
	</g>
</g>
<g id="BTN_16_">
	<g>
		<path style="fill-rule:evenodd;clip-rule:evenodd;fill:#808080;" d="M14,43.998h-2v-1.999c0-1.104-0.896-2-2-2
			c-1.105,0-2,0.896-2,2v1.999H6c-1.104,0-2,0.896-2,2.001s0.895,1.999,2,1.999h2v2.001c0,1.104,0.896,1.999,2,1.999
			c1.104,0,2-0.895,2-1.999v-2.001h2c1.104,0,2-0.895,2-1.999S15.104,43.998,14,43.998z"/>
	</g>
</g>
<g id="BTN_17_">
	<g>
		<circle style="fill:#ED7161;" cx="25.988" cy="46.014" r="1.998"/>
	</g>
</g>
<g id="BTN_18_">
	<g>
		<ellipse style="fill:#88C057;" cx="34.002" cy="42.018" rx="2.023" ry="1.998"/>
	</g>
</g>
<g>
</g>
<g>
</g>
<g>
</g>
<g>
</g>
<g>
</g>
<g>
</g>
<g>
</g>
<g>
</g>
<g>
</g>
<g>
</g>
<g>
</g>
<g>
</g>
<g>
</g>
<g>
</g>
<g>
</g>
</svg>
