<?xml version="1.0" encoding="iso-8859-1"?>
<!-- Generator: Adobe Illustrator 16.0.0, SVG Export Plug-In . SVG Version: 6.00 Build 0)  -->
<!DOCTYPE svg PUBLIC "-//W3C//DTD SVG 1.1//EN" "http://www.w3.org/Graphics/SVG/1.1/DTD/svg11.dtd">
<svg version="1.1" id="Layer_1" xmlns="http://www.w3.org/2000/svg" xmlns:xlink="http://www.w3.org/1999/xlink" x="0px" y="0px"
	 width="64px" height="63.847px" viewBox="0 0 64 63.847" style="enable-background:new 0 0 64 63.847;" xml:space="preserve">
<g id="Body_35_">
	<g>
		<path style="fill:#48A0DC;" d="M52,10.083C46.5-1.367,32,0.126,32,0.126V0.064c0,0-14.5-1.495-20,9.966c0,0-12-1.162-12,13.953
			s3.5,39.863,12,39.863c0,0,2,0.166,2-3.986s-1.167-5.979,4-5.979c5.166,0,6.666-1.993,14-1.993v0.012
			c7.333,0,8.833,1.991,14,1.991c5.166,0,4,1.825,4,5.974s2,3.982,2,3.982c8.5,0,12-24.725,12-39.825C64,8.921,52,10.083,52,10.083z
			"/>
	</g>
</g>
<g id="Display_2_">
	<g>
		<path style="fill:#FFFFFF;" d="M38,10.03H26c-1.104,0-2,0.893-2,1.994v11.959c0,1.101,0.896,1.992,2,1.992h12
			c1.104,0,2-0.892,2-1.992V12.024C40,10.922,39.104,10.03,38,10.03z"/>
	</g>
</g>
<g id="Controller_1_">
	<g>
		<ellipse style="fill:#9B7CAB;" cx="12" cy="23.982" rx="6" ry="5.979"/>
	</g>
</g>
<g id="BTN_2_">
	<g>
		<ellipse style="fill:#387BA8;" cx="32" cy="45.908" rx="2" ry="1.993"/>
	</g>
</g>
<g id="BTNs_5_">
	<g>
		<path style="fill-rule:evenodd;clip-rule:evenodd;fill:#4D4D4D;" d="M52,29.961c1.104,0,2-0.892,2-1.992
			c0-1.102-0.896-1.994-2-1.994s-2,0.893-2,1.994C50,29.07,50.896,29.961,52,29.961z M48,29.961c-1.104,0-2,0.893-2,1.994
			c0,1.101,0.896,1.993,2,1.993s2-0.893,2-1.993C50,30.854,49.104,29.961,48,29.961z M52,33.949c-1.104,0-2,0.892-2,1.993
			c0,1.101,0.896,1.993,2,1.993s2-0.893,2-1.993C54,34.84,53.104,33.949,52,33.949z M56,29.961c-1.104,0-2,0.893-2,1.994
			c0,1.101,0.896,1.993,2,1.993s2-0.893,2-1.993C58,30.854,57.104,29.961,56,29.961z"/>
	</g>
</g>
<g id="BTNs_6_">
	<g>
		<path style="fill-rule:evenodd;clip-rule:evenodd;fill:#387BA8;" d="M16,37.935c1.104,0,2-0.893,2-1.993
			c0-1.102-0.896-1.993-2-1.993s-2,0.892-2,1.993C14,37.042,14.896,37.935,16,37.935z M12,37.935c-1.104,0-2,0.893-2,1.993
			s0.896,1.993,2,1.993s2-0.893,2-1.993S13.104,37.935,12,37.935z M16,41.921c-1.104,0-2,0.893-2,1.993s0.896,1.993,2,1.993
			s2-0.893,2-1.993S17.104,41.921,16,41.921z M20,37.935c-1.104,0-2,0.893-2,1.993s0.896,1.993,2,1.993s2-0.893,2-1.993
			S21.104,37.935,20,37.935z"/>
	</g>
</g>
<g>
</g>
<g>
</g>
<g>
</g>
<g>
</g>
<g>
</g>
<g>
</g>
<g>
</g>
<g>
</g>
<g>
</g>
<g>
</g>
<g>
</g>
<g>
</g>
<g>
</g>
<g>
</g>
<g>
</g>
</svg>
