<?xml version="1.0" encoding="iso-8859-1"?>
<!-- Generator: Adobe Illustrator 16.0.0, SVG Export Plug-In . SVG Version: 6.00 Build 0)  -->
<!DOCTYPE svg PUBLIC "-//W3C//DTD SVG 1.1//EN" "http://www.w3.org/Graphics/SVG/1.1/DTD/svg11.dtd">
<svg version="1.1" id="Layer_1" xmlns="http://www.w3.org/2000/svg" xmlns:xlink="http://www.w3.org/1999/xlink" x="0px" y="0px"
	 width="63.978px" height="64.04px" viewBox="0 0 63.978 64.04" style="enable-background:new 0 0 63.978 64.04;"
	 xml:space="preserve">
<g id="Cord">
	<g>
		<path style="fill:#333333;" d="M57.465,9.328L54.66,6.521c-0.774-0.775-2.03-0.775-2.805,0l-6.805,6.807
			c-0.774,0.775-0.774,2.032,0,2.808l2.805,2.807c0.774,0.775,2.03,0.775,2.805,0l6.805-6.807
			C58.238,11.36,58.238,10.103,57.465,9.328z"/>
	</g>
</g>
<g id="Body_33_">
	<g>
		<path style="fill-rule:evenodd;clip-rule:evenodd;fill:#4D4D4D;" d="M61.073,16.942c-2.297-2.299-5.439-3.223-8.425-2.795
			l0.012-0.012c0,0-0.038,0.01-0.103,0.025c-0.253,0.039-0.504,0.087-0.754,0.145c-0.693,0.108-1.605,0.172-1.948-0.17
			c-0.338-0.339-0.309-1.128-0.211-1.785c0.077-0.309,0.14-0.62,0.188-0.934c0.014-0.054,0.023-0.089,0.023-0.089l-0.013,0.013
			c0.429-2.989-0.495-6.134-2.792-8.434c-3.872-3.876-10.15-3.876-14.022,0L14.783,21.17c-2.074-0.731-4.879-0.731-7.801,2.193
			c-5.842,5.848-11.568,24.913-1.401,35.09c10.166,10.176,29.214,4.444,35.056-1.404c2.922-2.924,2.922-5.731,2.191-7.807
			l18.245-18.264C64.945,27.102,64.945,20.818,61.073,16.942z"/>
	</g>
</g>
<g id="Shape_87_">
	<g>
		<path style="fill-rule:evenodd;clip-rule:evenodd;fill:#808080;" d="M58.269,19.75c-2.323-2.325-6.09-2.325-8.413,0l-0.508,0.508
			c-0.575-1.222-1.326-2.344-2.297-3.316c-0.971-0.971-2.092-1.723-3.313-2.299l0.508-0.508c2.323-2.325,2.323-6.096,0-8.422
			c-2.323-2.325-6.09-2.325-8.413,0l-17.632,17.65C7.358,34.216,7.01,51.462,9.787,54.243s20.008,2.431,30.85-8.422l17.632-17.65
			C60.592,25.845,60.592,22.075,58.269,19.75z"/>
	</g>
</g>
<g id="Line">
	<g>
		<path style="fill:#4D4D4D;" d="M51.401,12.588c-0.796-0.797-2.087-0.797-2.883,0L22.575,38.555c-0.796,0.798-0.796,2.089,0,2.886
			s2.086,0.797,2.882,0l25.944-25.968C52.197,14.676,52.197,13.385,51.401,12.588z"/>
	</g>
</g>
<g id="Scroll">
	<g>
		<path style="fill:#333333;" d="M44.945,19.053c-1.449-1.45-3.799-1.45-5.248,0l-2.625,2.627c-1.449,1.45-1.449,3.802,0,5.253
			c1.45,1.45,3.8,1.45,5.249,0l2.624-2.627C46.395,22.856,46.395,20.504,44.945,19.053z"/>
	</g>
</g>
<g id="LED">
	<g>
		<path style="fill:#88C057;" d="M33.527,30.534c-0.688-0.684-1.805-0.684-2.493,0l-2.492,2.473c-0.688,0.682-0.688,1.789,0,2.472
			c0.688,0.683,1.804,0.683,2.492,0l2.493-2.472C34.216,32.323,34.216,31.216,33.527,30.534z"/>
	</g>
</g>
<g id="BTN_1_">
	<g>
		<path style="fill:#ED7161;" d="M39.514,16.506c-0.688-0.689-1.805-0.689-2.493,0l-2.493,2.495c-0.688,0.689-0.688,1.807,0,2.495
			c0.688,0.689,1.805,0.689,2.493,0l2.493-2.495C40.201,18.312,40.201,17.195,39.514,16.506z"/>
	</g>
</g>
<g>
</g>
<g>
</g>
<g>
</g>
<g>
</g>
<g>
</g>
<g>
</g>
<g>
</g>
<g>
</g>
<g>
</g>
<g>
</g>
<g>
</g>
<g>
</g>
<g>
</g>
<g>
</g>
<g>
</g>
</svg>
