<?xml version="1.0" encoding="iso-8859-1"?>
<!-- Generator: Adobe Illustrator 16.0.0, SVG Export Plug-In . SVG Version: 6.00 Build 0)  -->
<!DOCTYPE svg PUBLIC "-//W3C//DTD SVG 1.1//EN" "http://www.w3.org/Graphics/SVG/1.1/DTD/svg11.dtd">
<svg version="1.1" id="Layer_1" xmlns="http://www.w3.org/2000/svg" xmlns:xlink="http://www.w3.org/1999/xlink" x="0px" y="0px"
	 width="64.001px" height="64.016px" viewBox="0 0 64.001 64.016" style="enable-background:new 0 0 64.001 64.016;"
	 xml:space="preserve">
<g id="Headphone">
	<g>
		<path style="fill-rule:evenodd;clip-rule:evenodd;fill:#CCCCCC;" d="M64.001,42.016V20.007C64.001,4.537,47.464,0,32.001,0
			C16.536,0,0,4.537,0,20.007v22.007c0,0,0,0,0,0.001c0,0.005,0.001,0.009,0.001,0.014c0,0.001,0,0.003,0,0.004c0,1.104,0.895,2,2,2
			h8c1.104,0,2-0.896,2-2c0-1.105-0.896-2.001-2-2.001h-6V20.007c0-13.26,14.745-16.005,28-16.005s28,2.745,28,16.005v20.025h-10
			c-1.105,0-2,0.896-2,2.001c0,1.104,0.895,2,2,2h12c1.104,0,2-0.896,2-2c0-0.005-0.001-0.009-0.001-0.014
			C64,42.019,64,42.017,64.001,42.016L64.001,42.016z"/>
	</g>
</g>
<g id="Headphone_3_">
	<g>
		<path style="fill:#999999;" d="M10.001,40.032H4v-8.004H0.001L0,42.014c0,0,0,0,0,0.001c0,0.004,0.001,0.007,0.001,0.011
			c0,0.003,0,0.005,0,0.008c0,1.104,0.895,2,2,2h8c1.104,0,2-0.896,2-2C12.001,40.928,11.105,40.032,10.001,40.032z M63.999,42.021
			c0-0.002,0.001-0.004,0.001-0.006v-9.987h-4v8.004h-9.999c-1.105,0-2,0.896-2,2.001c0,1.104,0.895,2,2,2h12c1.104,0,2-0.896,2-2
			C64.001,42.028,63.999,42.025,63.999,42.021z"/>
	</g>
</g>
<g id="Headphone_2_">
	<g>
		<path style="fill-rule:evenodd;clip-rule:evenodd;fill:#595959;" d="M10.001,32.011c-3.314,0-6,2.688-6,6.003v10.003
			c0,3.315,2.686,6.002,6,6.002c3.313,0,6-2.687,6-6.002V38.014C16.001,34.698,13.314,32.011,10.001,32.011z M54,32.011
			c-3.313,0-5.999,2.688-5.999,6.003v10.003c0,3.315,2.686,6.002,5.999,6.002c3.314,0,6-2.687,6-6.002V38.014
			C60,34.698,57.314,32.011,54,32.011z"/>
	</g>
</g>
<g id="Shape_91_">
	<g>
		<path style="fill:#CCCCCC;" d="M4.001,43.993v-1.998c0-1.105-0.896-2.001-2-2.001s-2,0.895-2,2v1.999
			c0,16.417,6.084,18.021,26,18.021v-4.002C5.735,58.012,4.001,53.65,4.001,43.993z"/>
	</g>
</g>
<g id="Microphone">
	<g>
		<path style="fill:#595959;" d="M28.001,56.012h-4c-2.209,0-4,1.791-4,4.002c0,2.21,1.791,4.002,4,4.002h4c2.209,0,4-1.792,4-4.002
			C32.001,57.803,30.21,56.012,28.001,56.012z"/>
	</g>
</g>
<g>
</g>
<g>
</g>
<g>
</g>
<g>
</g>
<g>
</g>
<g>
</g>
<g>
</g>
<g>
</g>
<g>
</g>
<g>
</g>
<g>
</g>
<g>
</g>
<g>
</g>
<g>
</g>
<g>
</g>
</svg>
