<?xml version="1.0" encoding="iso-8859-1"?>
<!-- Generator: Adobe Illustrator 16.0.0, SVG Export Plug-In . SVG Version: 6.00 Build 0)  -->
<!DOCTYPE svg PUBLIC "-//W3C//DTD SVG 1.1//EN" "http://www.w3.org/Graphics/SVG/1.1/DTD/svg11.dtd">
<svg version="1.1" id="Layer_1" xmlns="http://www.w3.org/2000/svg" xmlns:xlink="http://www.w3.org/1999/xlink" x="0px" y="0px"
	 width="64px" height="48.018px" viewBox="0 0 64 48.018" style="enable-background:new 0 0 64 48.018;" xml:space="preserve">
<g id="Body_21_">
	<g>
		<path style="fill:#666666;" d="M60,0.019H3.999C1.79,0.019,0,1.81,0,4.019v36c0,2.208,1.79,4,3.999,4H60c2.209,0,4-1.792,4-4v-36
			C64,1.81,62.209,0.019,60,0.019z"/>
	</g>
</g>
<g id="Label">
	<g>
		<path style="fill-rule:evenodd;clip-rule:evenodd;fill:#4D4D4D;" d="M54.01,0.001C54.007,0.001,54.003,0,54,0H10
			C9.997,0,9.993,0.001,9.99,0.001H8V2v4.001V34c0,1.104,0.896,2,2,2h44c1.104,0,2-0.896,2-2V6.001V2V0.001H54.01z"/>
	</g>
</g>
<g id="Shape_65_">
	<g>
		<rect x="6" y="44.019" style="fill:#4D4D4D;" width="51.999" height="3.999"/>
	</g>
</g>
<g>
</g>
<g>
</g>
<g>
</g>
<g>
</g>
<g>
</g>
<g>
</g>
<g>
</g>
<g>
</g>
<g>
</g>
<g>
</g>
<g>
</g>
<g>
</g>
<g>
</g>
<g>
</g>
<g>
</g>
</svg>
