<?xml version="1.0" encoding="iso-8859-1"?>
<!-- Generator: Adobe Illustrator 16.0.0, SVG Export Plug-In . SVG Version: 6.00 Build 0)  -->
<!DOCTYPE svg PUBLIC "-//W3C//DTD SVG 1.1//EN" "http://www.w3.org/Graphics/SVG/1.1/DTD/svg11.dtd">
<svg version="1.1" id="Layer_1" xmlns="http://www.w3.org/2000/svg" xmlns:xlink="http://www.w3.org/1999/xlink" x="0px" y="0px"
	 width="60.001px" height="63.989px" viewBox="0 0 60.001 63.989" style="enable-background:new 0 0 60.001 63.989;"
	 xml:space="preserve">
<g id="Body_19_">
	<g>
		<path style="fill-rule:evenodd;clip-rule:evenodd;fill:#F06EAA;" d="M60,31.99C59.995,14.322,46.565,0,30,0
			C13.432,0,0,14.327,0,32c0,0.014,0.001,0.027,0.001,0.041v25.95c0,1.999,4,5.999,6,5.999s6-4,6-5.999c0-2,4-6,6-6s6,4,6,6
			c0,1.999,4,5.999,6,5.999s6-4,6-5.999c0-2,4-6,6-6s6,4,6,6c0,1.999,4,5.999,6,5.999s6-4,6-5.999L60,31.99L60,31.99z"/>
	</g>
</g>
<g id="Eye_balls">
	<g>
		<path style="fill-rule:evenodd;clip-rule:evenodd;fill:#FFFFFF;" d="M46,18c-4.418,0-8,3.582-8,8s3.582,8,8,8c4.419,0,8-3.582,8-8
			S50.419,18,46,18z M24,18c-4.418,0-8,3.582-8,8s3.582,8,8,8c4.419,0,8-3.582,8-8S28.419,18,24,18z"/>
	</g>
</g>
<g id="Eyes_1_">
	<g>
		<path style="fill-rule:evenodd;clip-rule:evenodd;fill:#4D4D4D;" d="M50,24c-2.209,0-4,1.791-4,4s1.791,4,4,4s4-1.791,4-4
			S52.209,24,50,24z M28,24c-2.209,0-4,1.791-4,4s1.791,4,4,4s4-1.791,4-4S30.209,24,28,24z"/>
	</g>
</g>
<g>
</g>
<g>
</g>
<g>
</g>
<g>
</g>
<g>
</g>
<g>
</g>
<g>
</g>
<g>
</g>
<g>
</g>
<g>
</g>
<g>
</g>
<g>
</g>
<g>
</g>
<g>
</g>
<g>
</g>
</svg>
