<?xml version="1.0" encoding="iso-8859-1"?>
<!-- Generator: Adobe Illustrator 16.0.0, SVG Export Plug-In . SVG Version: 6.00 Build 0)  -->
<!DOCTYPE svg PUBLIC "-//W3C//DTD SVG 1.1//EN" "http://www.w3.org/Graphics/SVG/1.1/DTD/svg11.dtd">
<svg version="1.1" id="Layer_1" xmlns="http://www.w3.org/2000/svg" xmlns:xlink="http://www.w3.org/1999/xlink" x="0px" y="0px"
	 width="60.001px" height="63.988px" viewBox="0 0 60.001 63.988" style="enable-background:new 0 0 60.001 63.988;"
	 xml:space="preserve">
<g id="Body_18_">
	<g>
		<path style="fill-rule:evenodd;clip-rule:evenodd;fill:#48A0DC;" d="M60,31.988C59.994,14.32,46.565,0,30,0
			C13.432,0,0,14.326,0,31.999c0,0.014,0.001,0.027,0.001,0.041v31.948l10-9.999l10,9.999l10-9.999l10,9.999l10-9.999l10,9.999
			L60,31.988L60,31.988z"/>
	</g>
</g>
<g id="Eye_3_">
	<g>
		<path style="fill-rule:evenodd;clip-rule:evenodd;fill:#FFFFFF;" d="M20,12.003c-4.419,0-8,3.581-8,8c0,4.418,3.581,7.999,8,7.999
			c4.418,0,8-3.581,8-7.999C28,15.584,24.418,12.003,20,12.003z M40,12.003c-4.418,0-8,3.581-8,8c0,4.418,3.582,7.999,8,7.999
			s8-3.581,8-7.999C48,15.584,44.418,12.003,40,12.003z"/>
	</g>
</g>
<g id="Eye_4_">
	<g>
		<path style="fill-rule:evenodd;clip-rule:evenodd;fill:#4D4D4D;" d="M40,11.999c-2.209,0-4,1.791-4,4s1.791,4,4,4s4-1.791,4-4
			S42.209,11.999,40,11.999z M20,11.999c-2.209,0-4,1.791-4,4s1.791,4,4,4s4-1.791,4-4S22.209,11.999,20,11.999z"/>
	</g>
</g>
<g>
</g>
<g>
</g>
<g>
</g>
<g>
</g>
<g>
</g>
<g>
</g>
<g>
</g>
<g>
</g>
<g>
</g>
<g>
</g>
<g>
</g>
<g>
</g>
<g>
</g>
<g>
</g>
<g>
</g>
</svg>
