<?xml version="1.0" encoding="iso-8859-1"?>
<!-- Generator: Adobe Illustrator 16.0.0, SVG Export Plug-In . SVG Version: 6.00 Build 0)  -->
<!DOCTYPE svg PUBLIC "-//W3C//DTD SVG 1.1//EN" "http://www.w3.org/Graphics/SVG/1.1/DTD/svg11.dtd">
<svg version="1.1" id="Layer_1" xmlns="http://www.w3.org/2000/svg" xmlns:xlink="http://www.w3.org/1999/xlink" x="0px" y="0px"
	 width="64px" height="55.936px" viewBox="0 0 64 55.936" style="enable-background:new 0 0 64 55.936;" xml:space="preserve">
<g id="Hearts">
	<g>
		<path style="fill-rule:evenodd;clip-rule:evenodd;fill:#ED7161;" d="M64,16.98C64,7.604,56.39,0,47,0
			c-6.497,0-12.139,3.644-15,8.994C29.139,3.644,23.498,0,17,0C7.611,0,0,7.604,0,16.98c0,5.203,2.349,9.854,6.037,12.969L6,29.966
			c0,0,21.609,23.089,23.172,24.735c1.562,1.646,4.095,1.646,5.657,0C36.391,53.055,58,29.966,58,29.966l-0.037-0.017
			C61.652,26.834,64,22.184,64,16.98z"/>
	</g>
</g>
<g>
</g>
<g>
</g>
<g>
</g>
<g>
</g>
<g>
</g>
<g>
</g>
<g>
</g>
<g>
</g>
<g>
</g>
<g>
</g>
<g>
</g>
<g>
</g>
<g>
</g>
<g>
</g>
<g>
</g>
</svg>
