<?xml version="1.0" encoding="iso-8859-1"?>
<!-- Generator: Adobe Illustrator 16.0.0, SVG Export Plug-In . SVG Version: 6.00 Build 0)  -->
<!DOCTYPE svg PUBLIC "-//W3C//DTD SVG 1.1//EN" "http://www.w3.org/Graphics/SVG/1.1/DTD/svg11.dtd">
<svg version="1.1" id="Layer_1" xmlns="http://www.w3.org/2000/svg" xmlns:xlink="http://www.w3.org/1999/xlink" x="0px" y="0px"
	 width="63.991px" height="43.981px" viewBox="0 0 63.991 43.981" style="enable-background:new 0 0 63.991 43.981;"
	 xml:space="preserve">
<g id="Side_Hat">
	<g>
		<path style="fill:#ED7161;" d="M18.061,0C7.687,0,2.063,7.215,2.063,13.933c0,6.717,3.999,9.952,3.999,9.952s-0.625-7.962,6-7.962
			c6.623,0,5.924,10.119,5.924,10.119v11.966c0,4.853,14.073,3.793,14.073,3.793V15.923C32.059,5.847,28.434,0,18.061,0z"/>
	</g>
</g>
<g id="Side_Hat_1_">
	<g>
		<path style="fill:#88C057;" d="M46.057,0C35.683,0,31.985,6.011,31.985,16.07v25.927c0,0,14,0.855,14-3.989V26.042
			c0,0-0.554-10.144,6.07-10.144s5.999,7.949,5.999,7.949s4-3.229,4-9.937S56.431,0,46.057,0z"/>
	</g>
</g>
<g id="Bells">
	<g>
		<path style="fill-rule:evenodd;clip-rule:evenodd;fill:#FFCC66;" d="M57.992,18.038c-3.313,0-5.999,2.688-5.999,6.002
			c0,3.315,2.686,6.002,5.999,6.002s5.999-2.687,5.999-6.002C63.991,20.726,61.306,18.038,57.992,18.038z M5.999,18.038
			C2.687,18.038,0,20.726,0,24.04c0,3.315,2.687,6.002,5.999,6.002c3.313,0,6-2.687,6-6.002
			C11.999,20.726,9.313,18.038,5.999,18.038z"/>
	</g>
</g>
<g id="Rim">
	<g>
		<path style="fill:#E6AC73;" d="M43.994,36.007H19.997c-2.209,0-3.999,1.785-3.999,3.987s1.79,3.987,3.999,3.987h23.997
			c2.209,0,3.999-1.785,3.999-3.987S46.203,36.007,43.994,36.007z"/>
	</g>
</g>
<g>
</g>
<g>
</g>
<g>
</g>
<g>
</g>
<g>
</g>
<g>
</g>
<g>
</g>
<g>
</g>
<g>
</g>
<g>
</g>
<g>
</g>
<g>
</g>
<g>
</g>
<g>
</g>
<g>
</g>
</svg>
