<?xml version="1.0" encoding="iso-8859-1"?>
<!-- Generator: Adobe Illustrator 16.0.0, SVG Export Plug-In . SVG Version: 6.00 Build 0)  -->
<!DOCTYPE svg PUBLIC "-//W3C//DTD SVG 1.1//EN" "http://www.w3.org/Graphics/SVG/1.1/DTD/svg11.dtd">
<svg version="1.1" id="Layer_1" xmlns="http://www.w3.org/2000/svg" xmlns:xlink="http://www.w3.org/1999/xlink" x="0px" y="0px"
	 width="64px" height="63.998px" viewBox="0 0 64 63.998" style="enable-background:new 0 0 64 63.998;" xml:space="preserve">
<g id="Base_24_">
	<g>
		<path style="fill:#808080;" d="M60,47.999H4c-2.209,0-4,1.79-4,4v7.999c0,2.209,1.791,4,4,4h56c2.209,0,4-1.791,4-4v-7.999
			C64,49.789,62.209,47.999,60,47.999z"/>
	</g>
</g>
<g id="Btn_6_">
	<g>
		<path style="fill-rule:evenodd;clip-rule:evenodd;fill:#ED7161;" d="M56,43.999h-4c-2.209,0-4,1.791-4,4h12
			C60,45.79,58.209,43.999,56,43.999z"/>
	</g>
</g>
<g id="Btn_7_">
	<g>
		<path style="fill-rule:evenodd;clip-rule:evenodd;fill:#48A0DC;" d="M40,43.999h-4c-2.209,0-4,1.791-4,4h12
			C44,45.79,42.209,43.999,40,43.999z"/>
	</g>
</g>
<g id="Stick_6_">
	<g>
		<rect x="12" y="11.999" style="fill:#CCCCCC;" width="8" height="36"/>
	</g>
</g>
<g id="Shape_100_">
	<g>
		<path style="fill:#999999;" d="M26,43.999c-1.25-1.896-1.791-4-4-4H10c-2.209,0-2.875,1.478-4,4l-2,4h6h12h6L26,43.999z"/>
	</g>
</g>
<g id="Ball_12_">
	<g>
		<circle style="fill:#656565;" cx="16" cy="12" r="12"/>
	</g>
</g>
<g>
</g>
<g>
</g>
<g>
</g>
<g>
</g>
<g>
</g>
<g>
</g>
<g>
</g>
<g>
</g>
<g>
</g>
<g>
</g>
<g>
</g>
<g>
</g>
<g>
</g>
<g>
</g>
<g>
</g>
</svg>
