<?xml version="1.0" encoding="iso-8859-1"?>
<!-- Generator: Adobe Illustrator 16.0.0, SVG Export Plug-In . SVG Version: 6.00 Build 0)  -->
<!DOCTYPE svg PUBLIC "-//W3C//DTD SVG 1.1//EN" "http://www.w3.org/Graphics/SVG/1.1/DTD/svg11.dtd">
<svg version="1.1" id="Layer_1" xmlns="http://www.w3.org/2000/svg" xmlns:xlink="http://www.w3.org/1999/xlink" x="0px" y="0px"
	 width="52px" height="64px" viewBox="0 0 52 64" style="enable-background:new 0 0 52 64;" xml:space="preserve">
<g id="Shape_94_">
	<g>
		<rect x="22" y="46" style="fill:#CCCCCC;" width="8" height="4"/>
	</g>
</g>
<g id="Stick_5_">
	<g>
		<path style="fill-rule:evenodd;clip-rule:evenodd;fill:#4D4D4D;" d="M36,10V6c0-5.523-4.478-6-10-6c-5.523,0-10,4.477-10,10
			c0,2.254,0.755,4.327,2.014,6H18c0,0,0.056,0.058,0.152,0.185c0.009,0.012,0.018,0.025,0.028,0.037C18.957,17.283,22,22.552,22,40
			v2c-1.104,0-2,0.896-2,2s0.896,2,2,2c0,0,3.572,0,6,0c0.907,0,1.66,0,2,0c1.25,0,6-9.313,6-16v-4c-1.104,0-2-0.896-2-2
			s0.896-2,2-2v-8c-1.104,0-2-0.896-2-2S34.896,10,36,10z"/>
	</g>
</g>
<g id="Handle_2_">
	<g>
		<path style="fill-rule:evenodd;clip-rule:evenodd;fill:#FF8833;" d="M28,10v4v8v4v8v4c0,2.209,1.791,4,4,4h0.79
			C34.385,38.682,36,33.9,36,30v-2.964V26c-1.104,0-2-0.896-2-2s0.896-2,2-2v-8c-1.104,0-2-0.896-2-2s0.896-2,2-2V6h-4
			C29.791,6,28,7.79,28,10z"/>
	</g>
</g>
<g id="Shape_95_">
	<g>
		<path style="fill-rule:evenodd;clip-rule:evenodd;fill:#666666;" d="M48,50H4c-2.209,0-4,1.791-4,4v6h52v-6
			C52,51.791,50.209,50,48,50z"/>
	</g>
</g>
<g id="Stand_3_">
	<g>
		<path style="fill:#4D4D4D;" d="M8,64h4c2.209,0,4-1.791,4-4H4C4,62.209,5.791,64,8,64z M36,60c0,2.209,1.791,4,4,4h4
			c2.209,0,4-1.791,4-4H36z"/>
	</g>
</g>
<g>
</g>
<g>
</g>
<g>
</g>
<g>
</g>
<g>
</g>
<g>
</g>
<g>
</g>
<g>
</g>
<g>
</g>
<g>
</g>
<g>
</g>
<g>
</g>
<g>
</g>
<g>
</g>
<g>
</g>
</svg>
