<?xml version="1.0" encoding="iso-8859-1"?>
<!-- Generator: Adobe Illustrator 16.0.0, SVG Export Plug-In . SVG Version: 6.00 Build 0)  -->
<!DOCTYPE svg PUBLIC "-//W3C//DTD SVG 1.1//EN" "http://www.w3.org/Graphics/SVG/1.1/DTD/svg11.dtd">
<svg version="1.1" id="Layer_1" xmlns="http://www.w3.org/2000/svg" xmlns:xlink="http://www.w3.org/1999/xlink" x="0px" y="0px"
	 width="44px" height="64px" viewBox="0 0 44 64" style="enable-background:new 0 0 44 64;" xml:space="preserve">
<g id="Body_8_">
	<g>
		<path style="fill-rule:evenodd;clip-rule:evenodd;fill:#CCCCCC;" d="M36,52c0-6.375-4-8-4-8c-4.125-11.375,0-24,0-24H22H12
			c0,0,4.125,12.625,0,24c0,0-4,1.625-4,8c0,0-8,4.875-8,8s1.625,4,4,4h18h18c2.375,0,4-0.875,4-4S36,52,36,52z"/>
	</g>
</g>
<g id="Cross">
	<g>
		<path style="fill-rule:evenodd;clip-rule:evenodd;fill:#846A91;" d="M26,4h-2V2c0-1.104-0.896-2-2-2s-2,0.896-2,2v2h-2
			c-1.104,0-2,0.896-2,2s0.896,2,2,2h2v6c0,1.104,0.896,2,2,2s2-0.896,2-2V8h2c1.104,0,2-0.896,2-2S27.104,4,26,4z"/>
	</g>
</g>
<g id="Head_5_">
	<g>
		<path style="fill:#9B7CAB;" d="M22,14c-6.627,0-12-0.751-12,4c0,6.628,5.373,10.001,12,10.001S34,24.628,34,18
			C34,13.249,28.627,14,22,14z"/>
	</g>
</g>
<g id="Base_6_">
	<g>
		<path style="fill:#B3B3B3;" d="M40,56H4c-2.209,0-4,1.791-4,4s1.791,4,4,4h36c2.209,0,4-1.791,4-4S42.209,56,40,56z"/>
	</g>
</g>
<g id="Shape_28_">
	<g>
		<path style="fill-rule:evenodd;clip-rule:evenodd;fill:#B3B3B3;" d="M28,24H16h-4v4l0,0c0.001,2.21,1.791,4,4,4h12
			c2.209,0,3.999-1.79,4-4l0,0v-4H28z"/>
	</g>
</g>
<g>
</g>
<g>
</g>
<g>
</g>
<g>
</g>
<g>
</g>
<g>
</g>
<g>
</g>
<g>
</g>
<g>
</g>
<g>
</g>
<g>
</g>
<g>
</g>
<g>
</g>
<g>
</g>
<g>
</g>
</svg>
