<?xml version="1.0" encoding="iso-8859-1"?>
<!-- Generator: Adobe Illustrator 16.0.0, SVG Export Plug-In . SVG Version: 6.00 Build 0)  -->
<!DOCTYPE svg PUBLIC "-//W3C//DTD SVG 1.1//EN" "http://www.w3.org/Graphics/SVG/1.1/DTD/svg11.dtd">
<svg version="1.1" id="Layer_1" xmlns="http://www.w3.org/2000/svg" xmlns:xlink="http://www.w3.org/1999/xlink" x="0px" y="0px"
	 width="46.069px" height="64px" viewBox="0 0 46.069 64" style="enable-background:new 0 0 46.069 64;" xml:space="preserve">
<g id="Body_12_">
	<g>
		<path style="fill:#9B7CAB;" d="M34.069,14c-8.735-8.735-11.254-10.182-14-14v8c0,0-3.709-0.292-8,4c-4.292,4.292-3.074,5.345-8,8
			s-4,5.459-4,6c0,0.54,2.477,6,6,6s3.835-4,8-4h2c0,0,6-0.302,6,2c0,2.301-12,10.282-12,22v6h32v-6V38
			C42.069,38,42.804,22.735,34.069,14z"/>
	</g>
</g>
<g id="Base_10_">
	<g>
		<path style="fill:#B3B3B3;" d="M42.069,56h-32c-2.209,0-4,1.791-4,4s1.791,4,4,4h32c2.209,0,4-1.791,4-4S44.278,56,42.069,56z"/>
	</g>
</g>
<g>
</g>
<g>
</g>
<g>
</g>
<g>
</g>
<g>
</g>
<g>
</g>
<g>
</g>
<g>
</g>
<g>
</g>
<g>
</g>
<g>
</g>
<g>
</g>
<g>
</g>
<g>
</g>
<g>
</g>
</svg>
