<?xml version="1.0" encoding="iso-8859-1"?>
<!-- Generator: Adobe Illustrator 16.0.0, SVG Export Plug-In . SVG Version: 6.00 Build 0)  -->
<!DOCTYPE svg PUBLIC "-//W3C//DTD SVG 1.1//EN" "http://www.w3.org/Graphics/SVG/1.1/DTD/svg11.dtd">
<svg version="1.1" id="Layer_1" xmlns="http://www.w3.org/2000/svg" xmlns:xlink="http://www.w3.org/1999/xlink" x="0px" y="0px"
	 width="63.958px" height="52.038px" viewBox="0 0 63.958 52.038" style="enable-background:new 0 0 63.958 52.038;"
	 xml:space="preserve">
<g id="Laurels">
	<g>
		<path style="fill-rule:evenodd;clip-rule:evenodd;fill:#E67A2E;" d="M25.979,0c0,0-8,1.772-8,12C17.979,12,26.128,11.013,25.979,0
			z M23.96,17.989c0,0-7.527-0.375-9.962,9.956C13.998,27.945,21.472,29.153,23.96,17.989z M18.01,39.914
			c0,0,7.586,1.309,9.971-9.94C27.98,29.974,20.35,29.507,18.01,39.914z M45.979,12.015c0-10.24-8-12.015-8-12.015
			C37.83,11.026,45.979,12.015,45.979,12.015z M39.998,18.011c2.489,11.178,9.962,9.968,9.962,9.968
			C47.525,17.636,39.998,18.011,39.998,18.011z M35.978,30.01c2.385,11.263,9.971,9.953,9.971,9.953
			C43.608,29.542,35.978,30.01,35.978,30.01z"/>
	</g>
</g>
<g id="Laurels_1_">
	<g>
		<path style="fill-rule:evenodd;clip-rule:evenodd;fill:#FF8833;" d="M9.358,3.991c0,0-4.546,6.85,2.919,14.018
			C12.277,18.009,17.505,11.605,9.358,3.991z M9.914,30.028c0,0,1.377-7.68-9.909-10.052C0.005,19.977-0.527,27.698,9.914,30.028z
			 M1.999,33.997c0,0,1.462,8.529,11.985,8.021C13.984,42.019,13.338,33.29,1.999,33.997z M9.979,46.826
			c0,0,3.719,7.471,14.028,4.416C24.008,51.242,21.045,43.388,9.979,46.826z M54.601,3.996c-8.147,7.623-2.92,14.034-2.92,14.034
			C59.146,10.853,54.601,3.996,54.601,3.996z M54.044,30.063c10.441-2.332,9.909-10.063,9.909-10.063
			C52.667,22.376,54.044,30.063,54.044,30.063z M49.974,42.069c10.523,0.508,11.985-8.031,11.985-8.031
			C50.621,33.33,49.974,42.069,49.974,42.069z M39.95,51.304c10.31,3.059,14.028-4.422,14.028-4.422
			C42.913,43.439,39.95,51.304,39.95,51.304z"/>
	</g>
</g>
<g id="Dot_2_">
	<g>
		<circle style="fill:#666666;" cx="31.979" cy="50" r="2"/>
	</g>
</g>
<g>
</g>
<g>
</g>
<g>
</g>
<g>
</g>
<g>
</g>
<g>
</g>
<g>
</g>
<g>
</g>
<g>
</g>
<g>
</g>
<g>
</g>
<g>
</g>
<g>
</g>
<g>
</g>
<g>
</g>
</svg>
