<?xml version="1.0" encoding="iso-8859-1"?>
<!-- Generator: Adobe Illustrator 16.0.0, SVG Export Plug-In . SVG Version: 6.00 Build 0)  -->
<!DOCTYPE svg PUBLIC "-//W3C//DTD SVG 1.1//EN" "http://www.w3.org/Graphics/SVG/1.1/DTD/svg11.dtd">
<svg version="1.1" id="Layer_1" xmlns="http://www.w3.org/2000/svg" xmlns:xlink="http://www.w3.org/1999/xlink" x="0px" y="0px"
	 width="60.066px" height="51.987px" viewBox="0 0 60.066 51.987" style="enable-background:new 0 0 60.066 51.987;"
	 xml:space="preserve">
<g id="Leaf">
	<g>
		<path style="fill:#75A64B;" d="M60.066,0c-3,2.154-7.436-0.119-11.556,0.922c-4.12,1.042-6.475,9.07-6.475,9.07
			c6.681-0.533,9.286-1.143,11.556-0.923C60.164,9.706,60.066,0,60.066,0z"/>
	</g>
</g>
<g id="Lemon">
	<g>
		<path style="fill:#FFCC66;" d="M45.563,19.072C43.09,7.648,44.114,7.403,44.114,7.403c-3.532,0.918-8.768-0.442-8.768-0.442
			C20.191,3.934,12.869,8.98,12.869,8.98C-1.946,19.072-0.414,29.126,0.608,39.258c0.717,7.102,0,10.094,0,10.094
			c1.703-0.674,5.5,0.858,12.261,2.019c8.139,1.396,16.347,0.841,24.521-6.056S46.903,25.265,45.563,19.072z"/>
	</g>
</g>
<g>
</g>
<g>
</g>
<g>
</g>
<g>
</g>
<g>
</g>
<g>
</g>
<g>
</g>
<g>
</g>
<g>
</g>
<g>
</g>
<g>
</g>
<g>
</g>
<g>
</g>
<g>
</g>
<g>
</g>
</svg>
