<?xml version="1.0" encoding="iso-8859-1"?>
<!-- Generator: Adobe Illustrator 16.0.0, SVG Export Plug-In . SVG Version: 6.00 Build 0)  -->
<!DOCTYPE svg PUBLIC "-//W3C//DTD SVG 1.1//EN" "http://www.w3.org/Graphics/SVG/1.1/DTD/svg11.dtd">
<svg version="1.1" id="Layer_1" xmlns="http://www.w3.org/2000/svg" xmlns:xlink="http://www.w3.org/1999/xlink" x="0px" y="0px"
	 width="64px" height="50px" viewBox="0 0 64 50" style="enable-background:new 0 0 64 50;" xml:space="preserve">
<g id="Base_14_">
	<g>
		<path style="fill:#4D4D4D;" d="M62.162,18.636l-28-18C33.504,0.212,32.752,0,32,0s-1.505,0.212-2.163,0.636l-28,18
			C0.692,19.371,0,20.639,0,22v23.999c0,1.464,0.799,2.811,2.083,3.512C2.682,49.837,3.342,50,4,50c0.754,0,1.506-0.214,2.162-0.636
			L32,32l25.838,17.364C58.494,49.786,59.246,50,60,50c0.658,0,1.318-0.163,1.916-0.489C63.201,48.81,64,47.463,64,45.999V22
			C64,20.639,63.309,19.371,62.162,18.636z"/>
	</g>
</g>
<g id="Shape_42_">
	<g>
		<path style="fill-rule:evenodd;clip-rule:evenodd;fill:#FFCC66;" d="M3.999,35.999V44L32,25.999L60,44v-8.001l-28-18L3.999,35.999
			z M32,3.999l-28.001,18v8l28.001-18l28,18v-8L32,3.999z"/>
	</g>
</g>
<g>
</g>
<g>
</g>
<g>
</g>
<g>
</g>
<g>
</g>
<g>
</g>
<g>
</g>
<g>
</g>
<g>
</g>
<g>
</g>
<g>
</g>
<g>
</g>
<g>
</g>
<g>
</g>
<g>
</g>
</svg>
