<?xml version="1.0" encoding="iso-8859-1"?>
<!-- Generator: Adobe Illustrator 16.0.0, SVG Export Plug-In . SVG Version: 6.00 Build 0)  -->
<!DOCTYPE svg PUBLIC "-//W3C//DTD SVG 1.1//EN" "http://www.w3.org/Graphics/SVG/1.1/DTD/svg11.dtd">
<svg version="1.1" id="Layer_1" xmlns="http://www.w3.org/2000/svg" xmlns:xlink="http://www.w3.org/1999/xlink" x="0px" y="0px"
	 width="64px" height="64px" viewBox="0 0 64 64" style="enable-background:new 0 0 64 64;" xml:space="preserve">
<g id="Base_15_">
	<g>
		<path style="fill:#4D4D4D;" d="M62.162,18.637l-28-18.001C33.504,0.213,32.752,0,32,0s-1.504,0.213-2.163,0.636l-28,18.001
			C0.692,19.371,0,20.639,0,22v38c0,1.463,0.799,2.811,2.083,3.512C2.682,63.838,3.342,64,4,64c0.754,0,1.506-0.213,2.163-0.635
			L32,46.001l25.838,17.364C58.494,63.787,59.246,64,60,64c0.658,0,1.318-0.162,1.916-0.488C63.201,62.811,64,61.463,64,60V22
			C64,20.639,63.309,19.371,62.162,18.637z"/>
	</g>
</g>
<g id="Shape_43_">
	<g>
		<path style="fill-rule:evenodd;clip-rule:evenodd;fill:#FFCC66;" d="M3.999,50v8L32,40l28,18v-8L32,32L3.999,50z M3.999,36v8
			L32,26l28,18v-8L32,18L3.999,36z M32,4L3.999,22v8L32,12l28,18v-8L32,4z"/>
	</g>
</g>
<g>
</g>
<g>
</g>
<g>
</g>
<g>
</g>
<g>
</g>
<g>
</g>
<g>
</g>
<g>
</g>
<g>
</g>
<g>
</g>
<g>
</g>
<g>
</g>
<g>
</g>
<g>
</g>
<g>
</g>
</svg>
