<?xml version="1.0" encoding="iso-8859-1"?>
<!-- Generator: Adobe Illustrator 16.0.0, SVG Export Plug-In . SVG Version: 6.00 Build 0)  -->
<!DOCTYPE svg PUBLIC "-//W3C//DTD SVG 1.1//EN" "http://www.w3.org/Graphics/SVG/1.1/DTD/svg11.dtd">
<svg version="1.1" id="Layer_1" xmlns="http://www.w3.org/2000/svg" xmlns:xlink="http://www.w3.org/1999/xlink" x="0px" y="0px"
	 width="64px" height="36px" viewBox="0 0 64 36" style="enable-background:new 0 0 64 36;" xml:space="preserve">
<g id="Base_13_">
	<g>
		<path style="fill:#4D4D4D;" d="M62.162,18.637l-28-18C33.504,0.213,32.752,0,32,0s-1.505,0.213-2.164,0.637l-28,18
			C0.691,19.372,0,20.639,0,22.001V32c0,1.464,0.799,2.811,2.082,3.512C2.682,35.838,3.342,36,4,36c0.754,0,1.506-0.212,2.162-0.635
			L32,18.001l25.837,17.364C58.494,35.788,59.246,36,60,36c0.658,0,1.318-0.162,1.915-0.488C63.201,34.811,64,33.464,64,32v-9.999
			C64,20.639,63.309,19.372,62.162,18.637z"/>
	</g>
</g>
<g id="Shape_41_">
	<g>
		<polygon style="fill-rule:evenodd;clip-rule:evenodd;fill:#FFCC66;" points="32,4 3.999,22 3.999,30 32,12 59.999,30 59.999,22 		
			"/>
	</g>
</g>
<g>
</g>
<g>
</g>
<g>
</g>
<g>
</g>
<g>
</g>
<g>
</g>
<g>
</g>
<g>
</g>
<g>
</g>
<g>
</g>
<g>
</g>
<g>
</g>
<g>
</g>
<g>
</g>
<g>
</g>
</svg>
