<?xml version="1.0" encoding="iso-8859-1"?>
<!-- Generator: Adobe Illustrator 16.0.0, SVG Export Plug-In . SVG Version: 6.00 Build 0)  -->
<!DOCTYPE svg PUBLIC "-//W3C//DTD SVG 1.1//EN" "http://www.w3.org/Graphics/SVG/1.1/DTD/svg11.dtd">
<svg version="1.1" id="Layer_1" xmlns="http://www.w3.org/2000/svg" xmlns:xlink="http://www.w3.org/1999/xlink" x="0px" y="0px"
	 width="56.004px" height="64.009px" viewBox="0 0 56.004 64.009" style="enable-background:new 0 0 56.004 64.009;"
	 xml:space="preserve">
<g id="_x37_">
	<g>
		<path style="fill:#ED7161;" d="M50.305,0H39.152c-1.593,0-3.072,0.675-4.125,1.798C30.224-0.821,24.842-0.47,20.272,2.521
			C19.217,1,18.017,0.005,16,0.005H4c-1.857,0-4,2.028-4,4v23.999c0,1.972,2.08,4.001,4,4.001h11.417
			c2.608,0,4.583-2.029,4.583-4.001v-5.999c0-4.052,3.969-8,8-8c2.103,0,4.604,0.398,6,2v6
			c-12.33,10.04-19.517,27.218-19.839,27.994l-0.154,0.373v7.895c0,3.166,2.53,5.742,5.642,5.742h14.715
			c3.111,0,5.642-2.576,5.642-5.742v-7.491c0-12.346,15.247-28.438,15.408-28.599l0.591-0.588V5.751C56.004,2.58,53.446,0,50.305,0z
			"/>
	</g>
</g>
<g id="_x37__1_">
	<g>
		<path style="fill:#FFCC66;" d="M50.305,4L42,4.005h-1c-1.657,0-3,1.343-3,3c0,0.354-0.113,0.684,0,0.999C38,8.004,34.487,4,28,4
			c-8.246,0-12,8.005-12,8.005v-6c0-0.967-1.043-2-2-2L5.696,4C4.738,4,3.961,4.785,3.961,5.751v20.628
			c0,0.966,1.082,1.625,2.039,1.625h8c0.957,0,2-1.034,2-1.999v-2c0-6.273,5.783-14,12-14c3.572,0,7.838,1.071,10,4v10
			c-11.032,8.541-18.841,24.561-20.029,27.184v7.073c0,0.963,0.799,1.747,1.781,1.747L34,60.004c0.965,0,2-1.04,2-1.999v-8
			c0-12.664,12.957-26.871,16.039-30.073V5.751C52.039,4.785,51.261,4,50.305,4z"/>
	</g>
</g>
<g>
</g>
<g>
</g>
<g>
</g>
<g>
</g>
<g>
</g>
<g>
</g>
<g>
</g>
<g>
</g>
<g>
</g>
<g>
</g>
<g>
</g>
<g>
</g>
<g>
</g>
<g>
</g>
<g>
</g>
</svg>
