<?xml version="1.0" encoding="iso-8859-1"?>
<!-- Generator: Adobe Illustrator 16.0.0, SVG Export Plug-In . SVG Version: 6.00 Build 0)  -->
<!DOCTYPE svg PUBLIC "-//W3C//DTD SVG 1.1//EN" "http://www.w3.org/Graphics/SVG/1.1/DTD/svg11.dtd">
<svg version="1.1" id="Layer_1" xmlns="http://www.w3.org/2000/svg" xmlns:xlink="http://www.w3.org/1999/xlink" x="0px" y="0px"
	 width="83.989px" height="65.972px" viewBox="0 0 83.989 65.972" style="enable-background:new 0 0 83.989 65.972;"
	 xml:space="preserve">
<g id="Globe">
	<g>
		<ellipse style="fill:#99446B;" cx="43.994" cy="31.986" rx="31.995" ry="31.986"/>
	</g>
</g>
<g id="Globe_Shape">
	<g>
		<path style="fill-rule:evenodd;clip-rule:evenodd;fill:#BC5D89;" d="M75.99,31.987c0-1.927-0.18-3.811-0.507-5.645
			c-6.39,1.664-16.548,1.727-31.068-5.366c-12.4-6.057-21.385-6.888-27.538-5.96c-3.087,4.919-4.878,10.734-4.878,16.971
			c0,6.672,2.046,12.865,5.542,17.992h52.907C73.944,44.853,75.99,38.659,75.99,31.987z"/>
	</g>
</g>
<g id="Globe_Shape_1_">
	<g>
		<path style="fill-rule:evenodd;clip-rule:evenodd;fill:#733250;" d="M74.165,42.642c-6.437,1.334-16.189,0.951-29.75-5.672
			c-16.199-7.912-26.575-6.912-32.409-4.715c0.145,17.54,14.407,31.718,31.988,31.718C57.927,63.973,69.773,55.066,74.165,42.642z"
			/>
	</g>
</g>
<g id="Dots">
	<g>
		<path style="fill-rule:evenodd;clip-rule:evenodd;fill:#F06EAA;" d="M35.995,13.994c-1.104,0-1.999,0.896-1.999,1.999
			c0,1.104,0.895,2,1.999,2s2-0.896,2-2C37.995,14.89,37.1,13.994,35.995,13.994z M41.994,39.983c-1.104,0-2,0.895-2,1.998
			c0,1.104,0.896,2,2,2c1.104,0,2-0.896,2-2C43.994,40.878,43.099,39.983,41.994,39.983z M47.993,9.995
			c0-1.104-0.895-1.998-1.999-1.998s-2,0.895-2,1.998c0,1.105,0.896,2,2,2S47.993,11.101,47.993,9.995z M47.993,21.991
			c-1.104,0-1.999,0.895-1.999,1.999c0,1.104,0.896,1.999,1.999,1.999c1.105,0,2-0.896,2-1.999
			C49.993,22.886,49.099,21.991,47.993,21.991z M23.997,21.991c-1.104,0-2,0.895-2,1.999c0,1.104,0.896,1.999,2,1.999
			s2-0.896,2-1.999C25.997,22.886,25.102,21.991,23.997,21.991z M27.996,37.984c-1.104,0-1.999,0.895-1.999,1.999
			c0,1.104,0.895,1.999,1.999,1.999s2-0.896,2-1.999C29.996,38.879,29.101,37.984,27.996,37.984z M51.993,29.987
			c-1.104,0-2,0.895-2,1.999s0.896,1.999,2,1.999s2-0.895,2-1.999S53.098,29.987,51.993,29.987z M63.991,31.986
			c-1.104,0-2,0.896-2,1.999s0.896,1.999,2,1.999s2-0.896,2-1.999S65.096,31.986,63.991,31.986z M59.992,15.993
			c-1.104,0-2,0.895-2,2c0,1.104,0.896,1.999,2,1.999s2-0.896,2-1.999C61.992,16.888,61.097,15.993,59.992,15.993z M55.993,41.982
			c-1.105,0-2,0.895-2,1.999s0.895,2,2,2c1.104,0,1.999-0.896,1.999-2S57.097,41.982,55.993,41.982z M35.995,25.989
			c-1.104,0-1.999,0.895-1.999,1.999c0,1.104,0.895,1.999,1.999,1.999s2-0.896,2-1.999C37.995,26.884,37.1,25.989,35.995,25.989z"/>
	</g>
</g>
<g id="Base_29_">
	<g>
		<path style="fill:#FFCC66;" d="M67.991,51.978H19.998c-2,0-4,5.997-4,7.996c0,2,1.791,3.999,4,3.999h47.993
			c2.209,0,3.999-1.999,3.999-3.999C71.99,57.975,69.991,51.978,67.991,51.978z"/>
	</g>
</g>
<g id="Base_2_">
	<g>
		<path style="fill-rule:evenodd;clip-rule:evenodd;fill:#DAAE55;" d="M15.998,59.975c0.001,2,1.791,3.998,4,3.998h47.993
			c2.209,0,3.998-1.998,3.999-3.998H15.998z"/>
	</g>
</g>
<g>
</g>
<g>
</g>
<g>
</g>
<g>
</g>
<g>
</g>
<g>
</g>
<g>
</g>
<g>
</g>
<g>
</g>
<g>
</g>
<g>
</g>
<g>
</g>
<g>
</g>
<g>
</g>
<g>
</g>
</svg>
