<?xml version="1.0" encoding="iso-8859-1"?>
<!-- Generator: Adobe Illustrator 16.0.0, SVG Export Plug-In . SVG Version: 6.00 Build 0)  -->
<!DOCTYPE svg PUBLIC "-//W3C//DTD SVG 1.1//EN" "http://www.w3.org/Graphics/SVG/1.1/DTD/svg11.dtd">
<svg version="1.1" id="Layer_1" xmlns="http://www.w3.org/2000/svg" xmlns:xlink="http://www.w3.org/1999/xlink" x="0px" y="0px"
	 width="63.992px" height="63.975px" viewBox="0 0 63.992 63.975" style="enable-background:new 0 0 63.992 63.975;"
	 xml:space="preserve">
<g id="Shirt">
	<g>
		<path style="fill:#E6E6E6;" d="M59.992,47.979c-1.88-1.88-17.997-9.995-17.997-9.995H21.997c0,0-16.117,8.115-17.997,9.995
			c-3.76,3.759-4,15.993-4,15.993h63.992C63.992,63.973,63.752,51.738,59.992,47.979z"/>
	</g>
</g>
<g id="Shirt_1_">
	<g>
		<rect x="29.996" y="35.986" style="fill:#CCCCCC;" width="4" height="27.988"/>
	</g>
</g>
<g id="Collar">
	<g>
		<polygon style="fill:#FFFFFF;" points="39.995,35.984 23.997,35.984 21.997,37.983 23.997,47.979 31.996,39.982 39.995,47.979 
			41.995,37.983 		"/>
	</g>
</g>
<g id="Bow">
	<g>
		<path style="fill-rule:evenodd;clip-rule:evenodd;fill:#B38FC4;" d="M29.996,41.982l-4.999-1.999
			c-1.656,0-2.999,1.343-2.999,2.998c0,1.657,1.343,2.999,2.999,2.999l4.999-1.999c1.657,0,2,0.657,2-1
			C31.996,41.326,31.653,41.982,29.996,41.982z M38.995,39.983l-4.999,1.999c-1.656,0-2-0.656-2,0.999c0,1.657,0.344,1,2,1
			l4.999,1.999c1.657,0,3-1.342,3-2.999C41.995,41.326,40.652,39.983,38.995,39.983z"/>
	</g>
</g>
<g id="Tie">
	<g>
		<path style="fill-rule:evenodd;clip-rule:evenodd;fill:#9B7CAB;" d="M35.996,41.982c0-1.999-2-1.999-2-1.999h-1.999l-0.001-0.001
			l-0.001,0.001h-1.998c0,0-2,0-2,1.999c0.338,0.338,0.671,0.671,0.999,0.999c-0.328,0.328-0.662,0.662-1,1c0,1.999,2,1.999,2,1.999
			h1.999l0.001,0.001l0.001-0.001h1.999c0,0,1.999,0,1.999-1.999c-0.337-0.338-0.671-0.671-0.999-0.999
			C35.324,42.654,35.658,42.32,35.996,41.982z"/>
	</g>
</g>
<g id="Neck">
	<g>
		<path style="fill:#DBB59A;" d="M37.995,29.987H25.997l-2,5.997c0,1.104,4.895,3.998,5.999,3.998h4
			c1.104,0,5.999-2.895,5.999-3.998L37.995,29.987z"/>
	</g>
</g>
<g id="Head">
	<g>
		<path style="fill:#F6CBAD;" d="M31.996,2c-7.73,0-13.998,3.998-13.998,11.994c0,5.998,2,9.996,3.999,13.994
			c2,3.998,6.081,7.996,9.999,7.996s7.999-3.998,9.999-7.996c1.999-3.998,3.999-7.996,3.999-13.994C45.994,5.998,39.727,2,31.996,2z
			"/>
	</g>
</g>
<g id="Hair">
	<g>
		<path style="fill:#8E6842;" d="M45.994,10.996C45.449,4.74,42.731,0,31.996,0c-4.684,0-9.999,1.655-9.999,3.826
			c-2.957,0-3.999,6.329-3.999,11.477c0,0.859,0.08,1.763,0.205,2.681c0.515-2.53,2.105-5.987,5.794-5.987c3.452,0,2.108,0,7.999,0
			c1.323,0,3.359-0.735,5.257-1.159c0.017-0.003,0.033-0.007,0.05-0.011c0.616-0.139,2.139-0.644,2.692-0.83
			c2.158,0.773,5.999,3.344,5.999,7.997v-3.998v-1.999C45.994,11.996,45.982,11.008,45.994,10.996z"/>
	</g>
</g>
<g id="Suit">
	<g>
		<path style="fill:#4D4D4D;" d="M4,47.979c-3.76,3.759-4,15.993-4,15.993h23.997l-2-25.988C21.997,37.984,5.88,46.1,4,47.979z
			 M59.992,47.979c-1.88-1.88-17.997-9.995-17.997-9.995l-2,25.988h23.997C63.992,63.973,63.752,51.738,59.992,47.979z"/>
	</g>
</g>
<g id="Collar_1_">
	<g>
		<path style="fill:#ED7161;" d="M13.998,47.98l4,1.998l-4,3.998l7.999,9.996h5.999l-5.999-21.99L13.998,47.98z M49.994,47.98
			l-7.999-5.998l-5.999,21.99h5.999l7.999-9.996l-4-3.998L49.994,47.98z"/>
	</g>
</g>
<g>
</g>
<g>
</g>
<g>
</g>
<g>
</g>
<g>
</g>
<g>
</g>
<g>
</g>
<g>
</g>
<g>
</g>
<g>
</g>
<g>
</g>
<g>
</g>
<g>
</g>
<g>
</g>
<g>
</g>
</svg>
