<?xml version="1.0" encoding="iso-8859-1"?>
<!-- Generator: Adobe Illustrator 16.0.0, SVG Export Plug-In . SVG Version: 6.00 Build 0)  -->
<!DOCTYPE svg PUBLIC "-//W3C//DTD SVG 1.1//EN" "http://www.w3.org/Graphics/SVG/1.1/DTD/svg11.dtd">
<svg version="1.1" id="Layer_1" xmlns="http://www.w3.org/2000/svg" xmlns:xlink="http://www.w3.org/1999/xlink" x="0px" y="0px"
	 width="64px" height="56.001px" viewBox="0 0 64 56.001" style="enable-background:new 0 0 64 56.001;" xml:space="preserve">
<g id="Body_17_">
	<g>
		<path style="fill-rule:evenodd;clip-rule:evenodd;fill:#88C057;" d="M60,39.001C60,19.428,52.573-0.044,40,0
			c-4.896,0.018-10.549,0.002-16,0C11.565-0.003,4,19.689,4,39.001c0,0.337,0.027,0.664,0.033,1H18v10h26v-10h15.967
			C59.972,39.665,60,39.338,60,39.001z"/>
	</g>
</g>
<g id="Stripes_5_">
	<g>
		<path style="fill:#FFCC66;" d="M58.508,24.038c-0.282-1.382-0.611-2.725-0.972-4.037H47.128l-4.731-7.953l4.771-8.01h1.984
			c-1.476-1.425-3.076-2.539-4.818-3.218L38.871,10H25.128l-5.445-9.151c-1.227,0.492-2.381,1.218-3.48,2.097
			c0.099,0.22,0.226,0.43,0.404,0.611l5.024,8.444l-4.76,8H6.53c-0.367,1.313-0.702,2.656-0.991,4.037h11.354l4.738,7.963L16.871,40
			H18v4.038h0.021c0.088,0,0.163-0.039,0.248-0.05c0.095-0.008,0.183-0.047,0.275-0.065c0.11-0.026,0.222-0.031,0.327-0.076
			c0.259-0.095,0.505-0.227,0.713-0.435l5.584-9.374h13.727L44,42.608V40h3.128l-4.731-7.952l4.771-8.01H58.508z M38.871,30.001
			H25.128l-4.731-7.953l4.771-8.01h13.725l4.738,7.963L38.871,30.001z M43.616,50L44,49.355v-2.688L41.5,50H43.616z"/>
	</g>
</g>
<g id="Shape_55_">
	<g>
		<path style="fill-rule:evenodd;clip-rule:evenodd;fill:#CCCCCC;" d="M38.076,56c-0.021,0-0.038,0-0.059,0
			c-0.006,0-0.011,0.001-0.017,0.001C38,56.001,38.114,56,38.076,56z M60,36.001c-0.194,0-1.015,0-3.976,0c-0.117,0-0.212,0-0.322,0
			c-2.392,0-3.24,0-3.272,0c-0.12,0-0.224,0-0.351,0c-3.086,0-3.897,0-4.079,0c-1.582,0-2.937,0.926-3.586,2.259
			C42.905,39.478,42,41.297,42,44.001c0,2.209-1.791,4-4,4h-0.734H34c-0.092,0-0.345,0-0.977,0c0.066,0-0.723,0-3.023,0h-3.266H26
			c-2.209,0-4-1.791-4-4c0-2.704-0.905-4.522-2.414-5.74c-0.649-1.333-2.004-2.26-3.586-2.26c-0.182,0-0.993,0-4.08,0
			c-0.127,0-0.231,0-0.351,0c-0.032,0-0.881,0-3.273,0c-0.11,0-0.205,0-0.321,0c-2.96,0-3.781,0-3.976,0c-2.209,0-4,1.79-4,4
			c0,2.209,1.791,4,4,4c0.195,0,1.015,0,3.976,0c0.171,0,0.314,0,0.471,0c0.033,0,0.478,0,1.553,0c0.434,0,0.96,0,1.62,0
			c0.152,0,0.291,0,0.457,0c0.789,0,1.413,0,1.924,0c0,6.574,5.288,11.906,11.842,11.991c0.054,0.002,0.098,0.009,0.158,0.009
			c10.645,0,1.477-0.001,12.017-0.001c0.027,0,0.045-0.004,0.071-0.004C44.674,55.948,50,50.598,50,44.001c0.511,0,1.135,0,1.924,0
			c0.166,0,0.304,0,0.456,0c0.66,0,1.186,0,1.62,0c1.075,0,1.52,0,1.553,0c0.157,0,0.301,0,0.472,0c2.961,0,3.781,0,3.976,0
			c2.209,0,4-1.791,4-4C64,37.791,62.209,36.001,60,36.001z"/>
	</g>
</g>
<g>
</g>
<g>
</g>
<g>
</g>
<g>
</g>
<g>
</g>
<g>
</g>
<g>
</g>
<g>
</g>
<g>
</g>
<g>
</g>
<g>
</g>
<g>
</g>
<g>
</g>
<g>
</g>
<g>
</g>
</svg>
