<?xml version="1.0" encoding="iso-8859-1"?>
<!-- Generator: Adobe Illustrator 16.0.0, SVG Export Plug-In . SVG Version: 6.00 Build 0)  -->
<!DOCTYPE svg PUBLIC "-//W3C//DTD SVG 1.1//EN" "http://www.w3.org/Graphics/SVG/1.1/DTD/svg11.dtd">
<svg version="1.1" id="Layer_1" xmlns="http://www.w3.org/2000/svg" xmlns:xlink="http://www.w3.org/1999/xlink" x="0px" y="0px"
	 width="64px" height="55.999px" viewBox="0 0 64 55.999" style="enable-background:new 0 0 64 55.999;" xml:space="preserve">
<g id="Head_11_">
	<g>
		<path style="fill:#9B7CAB;" d="M32,0C14.327,0,0,12.536,0,27.999c0,15.464,14.327,24,32,24c17.673,0,32-8.536,32-24
			C64,12.536,49.673,0,32,0z"/>
	</g>
</g>
<g id="Dots_12_">
	<g>
		<path style="fill-rule:evenodd;clip-rule:evenodd;fill:#D3A9E8;" d="M32,4c-6.627,0-12,5.372-12,11.999c0,6.628,5.373,12,12,12
			s12-5.372,12-12C44,9.372,38.627,4,32,4z M3.844,14.686C1.394,18.646,0,23.18,0,27.999c0,3.656,0.824,6.91,2.281,9.77
			C7.815,36.702,12,31.846,12,25.999C12,20.725,8.575,16.295,3.844,14.686z M60.156,14.686C55.425,16.295,52,20.725,52,25.999
			c0,5.847,4.185,10.703,9.719,11.77C63.175,34.909,64,31.655,64,27.999C64,23.18,62.607,18.646,60.156,14.686z"/>
	</g>
</g>
<g id="Head_12_">
	<g>
		<path style="fill:#E6E6E6;" d="M32,33.999c-8.836,0-16,4.925-16,11c0,10.888,7.163,11,16,11s16-0.05,16-11
			C48,38.924,40.836,33.999,32,33.999z"/>
	</g>
</g>
<g id="Eyes">
	<g>
		<path style="fill-rule:evenodd;clip-rule:evenodd;fill:#4D4D4D;" d="M26,39.999c-1.104,0-2,1.791-2,4s0.896,4,2,4s2-1.791,2-4
			S27.104,39.999,26,39.999z M38,39.999c-1.104,0-2,1.791-2,4s0.896,4,2,4s2-1.791,2-4S39.104,39.999,38,39.999z"/>
	</g>
</g>
<g>
</g>
<g>
</g>
<g>
</g>
<g>
</g>
<g>
</g>
<g>
</g>
<g>
</g>
<g>
</g>
<g>
</g>
<g>
</g>
<g>
</g>
<g>
</g>
<g>
</g>
<g>
</g>
<g>
</g>
</svg>
