<?xml version="1.0" encoding="iso-8859-1"?>
<!-- Generator: Adobe Illustrator 16.0.0, SVG Export Plug-In . SVG Version: 6.00 Build 0)  -->
<!DOCTYPE svg PUBLIC "-//W3C//DTD SVG 1.1//EN" "http://www.w3.org/Graphics/SVG/1.1/DTD/svg11.dtd">
<svg version="1.1" id="Layer_1" xmlns="http://www.w3.org/2000/svg" xmlns:xlink="http://www.w3.org/1999/xlink" x="0px" y="0px"
	 width="63.991px" height="47.979px" viewBox="0 0 63.991 47.979" style="enable-background:new 0 0 63.991 47.979;"
	 xml:space="preserve">
<g id="Frame">
	<g>
		<path style="fill-rule:evenodd;clip-rule:evenodd;fill:#ED7161;" d="M61.991,7.997H1.999C0.896,7.997,0,8.892,0,9.996
			c0,1.104,0.896,1.999,1.999,1.999h2v7.997c0,4.416,3.581,7.996,7.999,7.996h7.999c4.418,0,7.999-3.58,7.999-7.996v-2
			c0-2.208,1.79-3.998,3.999-3.998s4,1.79,4,3.998v2c0,4.416,3.581,7.996,7.998,7.996h7.999c4.418,0,7.999-3.58,7.999-7.996v-7.997
			h2c1.104,0,2-0.896,2-1.999C63.991,8.892,63.096,7.997,61.991,7.997z M23.996,15.993v3.999c0,2.207-1.79,3.998-3.999,3.998h-7.999
			c-2.209,0-3.999-1.791-3.999-3.998v-3.999v-3.998h15.997V15.993z M55.992,15.993v3.999c0,2.207-1.791,3.998-4,3.998h-7.999
			c-2.208,0-3.999-1.791-3.999-3.998v-3.999v-3.998h15.998V15.993z"/>
	</g>
</g>
<g id="Glass">
	<g>
		<path style="fill-rule:evenodd;clip-rule:evenodd;fill:#FFFFFF;" d="M7.999,23.99h15.997V11.995H7.999V23.99z M39.994,11.995
			V23.99h15.998V11.995H39.994z"/>
	</g>
</g>
<g id="Eyebrows">
	<g>
		<path style="fill-rule:evenodd;clip-rule:evenodd;fill:#4D4D4D;" d="M23.996,0H7.999c-2.209,0-4,1.79-4,3.998s1.791,3.999,4,3.999
			h15.997c2.209,0,4-1.791,4-3.999S26.205,0,23.996,0z M55.992,0H39.994c-2.209,0-3.999,1.79-3.999,3.998s1.79,3.999,3.999,3.999
			h15.998c2.209,0,3.999-1.791,3.999-3.999S58.201,0,55.992,0z"/>
	</g>
</g>
<g id="Mustache">
	<g>
		<path style="fill:#4D4D4D;" d="M41.994,35.984H21.997c-3.313,0-6,2.686-6,5.998c0,3.312,2.687,5.997,6,5.997h19.997
			c3.313,0,5.999-2.686,5.999-5.997C47.993,38.67,45.308,35.984,41.994,35.984z"/>
	</g>
</g>
<g id="Nose">
	<g>
		<path style="fill:#EEB185;" d="M35.995,13.994c0,0-1.063-2.249-4-1.999c-2.937-0.25-3.999,1.999-3.999,1.999
			s-9.174,15.681-7.876,19.991c1.299,4.311,11.875,5.997,11.875,5.997s10.576-1.687,11.875-5.997S35.995,13.994,35.995,13.994z"/>
	</g>
</g>
<g>
</g>
<g>
</g>
<g>
</g>
<g>
</g>
<g>
</g>
<g>
</g>
<g>
</g>
<g>
</g>
<g>
</g>
<g>
</g>
<g>
</g>
<g>
</g>
<g>
</g>
<g>
</g>
<g>
</g>
</svg>
