<?xml version="1.0" encoding="iso-8859-1"?>
<!-- Generator: Adobe Illustrator 16.0.0, SVG Export Plug-In . SVG Version: 6.00 Build 0)  -->
<!DOCTYPE svg PUBLIC "-//W3C//DTD SVG 1.1//EN" "http://www.w3.org/Graphics/SVG/1.1/DTD/svg11.dtd">
<svg version="1.1" id="Layer_1" xmlns="http://www.w3.org/2000/svg" xmlns:xlink="http://www.w3.org/1999/xlink" x="0px" y="0px"
	 width="64px" height="32px" viewBox="0 0 64 32" style="enable-background:new 0 0 64 32;" xml:space="preserve">
<g id="Shape_99_">
	<g>
		<path style="fill:#CCCCCC;" d="M62,0H2C0.895,0,0,0.896,0,2v28c0,1.104,0.895,2,2,2h60c1.104,0,2-0.896,2-2V2
			C64,0.896,63.104,0,62,0z"/>
	</g>
</g>
<g id="Base_22_">
	<g>
		<path style="fill:#4D4D4D;" d="M58,8H6c-1.104,0-2,0.896-2,2v15.999C4,27.104,4.896,28,6,28h52c1.104,0,2-0.896,2-2.001V10
			C60,8.896,59.104,8,58,8z"/>
	</g>
</g>
<g id="Controller_4_">
	<g>
		<path style="fill-rule:evenodd;clip-rule:evenodd;fill:#808080;" d="M18,16h-2v-2c0-1.104-0.896-2-2-2c-1.105,0-2,0.896-2,2v2h-2
			c-1.105,0-2,0.896-2,2s0.895,1.999,2,1.999h2V22c0,1.104,0.895,2,2,2c1.104,0,2-0.896,2-2v-2.001h2c1.104,0,2-0.895,2-1.999
			S19.104,16,18,16z"/>
	</g>
</g>
<g id="Strip">
	<g>
		<path style="fill:#CCCCCC;" d="M38,8H26c-1.105,0-2,0.896-2,2s0.895,2,2,2h12c1.104,0,2-0.896,2-2S39.104,8,38,8z"/>
	</g>
</g>
<g id="Strip_3_">
	<g>
		<path style="fill:#CCCCCC;" d="M38,14H26c-1.105,0-2,0.896-2,2s0.895,2,2,2h12c1.104,0,2-0.896,2-2S39.104,14,38,14z"/>
	</g>
</g>
<g id="Strip_2_">
	<g>
		<path style="fill:#CCCCCC;" d="M36,19.999h-8c-2.209,0-4,1.791-4,4.001c0,2.208,1.791,4,4,4h8c2.209,0,4-1.792,4-4
			C40,21.79,38.209,19.999,36,19.999z"/>
	</g>
</g>
<g id="Btn">
	<g>
		<circle style="fill:#4D4D4D;" cx="28" cy="24" r="2"/>
	</g>
</g>
<g id="Btn_9_">
	<g>
		<circle style="fill:#4D4D4D;" cx="36" cy="24" r="2"/>
	</g>
</g>
<g id="Btn_2_">
	<g>
		<circle style="fill:#ED7161;" cx="46" cy="22" r="2"/>
	</g>
</g>
<g id="Btn_3_">
	<g>
		<circle style="fill:#ED7161;" cx="54" cy="22" r="2"/>
	</g>
</g>
<g>
</g>
<g>
</g>
<g>
</g>
<g>
</g>
<g>
</g>
<g>
</g>
<g>
</g>
<g>
</g>
<g>
</g>
<g>
</g>
<g>
</g>
<g>
</g>
<g>
</g>
<g>
</g>
<g>
</g>
</svg>
