<?xml version="1.0" encoding="iso-8859-1"?>
<!-- Generator: Adobe Illustrator 16.0.0, SVG Export Plug-In . SVG Version: 6.00 Build 0)  -->
<!DOCTYPE svg PUBLIC "-//W3C//DTD SVG 1.1//EN" "http://www.w3.org/Graphics/SVG/1.1/DTD/svg11.dtd">
<svg version="1.1" id="Layer_1" xmlns="http://www.w3.org/2000/svg" xmlns:xlink="http://www.w3.org/1999/xlink" x="0px" y="0px"
	 width="64px" height="63.998px" viewBox="0 0 64 63.998" style="enable-background:new 0 0 64 63.998;" xml:space="preserve">
<g id="Body_22_">
	<g>
		<path style="fill-rule:evenodd;clip-rule:evenodd;fill:#999999;" d="M60,0H32c-2.21,0-4,1.791-4,4H12c0-2.209-1.791-4-4-4H4
			C1.79,0,0,1.79,0,4v47.999c0,2.208,1.79,3.999,4,3.999h2v8h52v-8h2c2.209,0,4-1.791,4-3.999V4C64,1.79,62.209,0,60,0z"/>
	</g>
</g>
<g id="Label_1_">
	<g>
		<rect x="34" style="fill:#88C057;" width="24" height="35.999"/>
	</g>
</g>
<g id="Arrow">
	<g>
		<polygon style="fill:#808080;" points="36.002,40 41,47.998 45.998,40 		"/>
	</g>
</g>
<g id="Stripes_6_">
	<g>
		<path style="fill-rule:evenodd;clip-rule:evenodd;fill:#808080;" d="M26,4H14h-4v59.998h4v-8h12v8h4V4H26z M26,51.999H14v-4h12
			V51.999z M26,43.999H14v-4h12V43.999z M26,35.999H14v-4h12V35.999z M26,27.999H14V24h12V27.999z M26,20H14v-4.001h12V20z
			 M26,11.999H14V8h12V11.999z"/>
	</g>
</g>
<g>
</g>
<g>
</g>
<g>
</g>
<g>
</g>
<g>
</g>
<g>
</g>
<g>
</g>
<g>
</g>
<g>
</g>
<g>
</g>
<g>
</g>
<g>
</g>
<g>
</g>
<g>
</g>
<g>
</g>
</svg>
