<?xml version="1.0" encoding="iso-8859-1"?>
<!-- Generator: Adobe Illustrator 16.0.0, SVG Export Plug-In . SVG Version: 6.00 Build 0)  -->
<!DOCTYPE svg PUBLIC "-//W3C//DTD SVG 1.1//EN" "http://www.w3.org/Graphics/SVG/1.1/DTD/svg11.dtd">
<svg version="1.1" id="Layer_1" xmlns="http://www.w3.org/2000/svg" xmlns:xlink="http://www.w3.org/1999/xlink" x="0px" y="0px"
	 width="64px" height="39.999px" viewBox="0 0 64 39.999" style="enable-background:new 0 0 64 39.999;" xml:space="preserve">
<g id="Base_27_">
	<g>
		<rect y="12" style="fill:#CCCCCC;" width="64" height="14"/>
	</g>
</g>
<g id="Tray_4_">
	<g>
		<path style="fill-rule:evenodd;clip-rule:evenodd;fill:#999999;" d="M42,18H14c-1.105,0-2-0.896-2-2v-4H7.999v6
			c0,2.209,1.791,4,4.001,4h30C44.209,22,42,20.209,42,18z"/>
	</g>
</g>
<g id="Logo">
	<g>
		<path style="fill:#ED7161;" d="M20.999,14H15c-0.553,0-1,0.447-1,1s0.447,1,1,1h5.999c0.553,0,1-0.447,1-1S21.552,14,20.999,14z"
			/>
	</g>
</g>
<g id="Base_28_">
	<g>
		<polygon style="fill:#808080;" points="0,26 7.999,39.999 55.999,39.999 64,26 		"/>
	</g>
</g>
<g id="Connector">
	<g>
		<path style="fill:#666666;" d="M34,32h-4c-1.105,0-2,0.896-2,1.999c0,1.105,0.895,2,2,2h4c1.104,0,2-0.895,2-2
			C36,32.896,35.104,32,34,32z"/>
	</g>
</g>
<g id="Connector_3_">
	<g>
		<path style="fill:#666666;" d="M21.999,32H18c-1.105,0-2,0.896-2,1.999c0,1.105,0.895,2,2,2h3.999c1.104,0,2.001-0.895,2.001-2
			C24,32.896,23.104,32,21.999,32z"/>
	</g>
</g>
<g id="Connector_2_">
	<g>
		<circle style="fill:#666666;" cx="12" cy="34" r="2"/>
	</g>
</g>
<g id="Shape_111_">
	<g>
		<rect x="39.999" y="12" style="fill:#4D4D4D;" width="12.001" height="27.999"/>
	</g>
</g>
<g>
</g>
<g>
</g>
<g>
</g>
<g>
</g>
<g>
</g>
<g>
</g>
<g>
</g>
<g>
</g>
<g>
</g>
<g>
</g>
<g>
</g>
<g>
</g>
<g>
</g>
<g>
</g>
<g>
</g>
</svg>
