<?xml version="1.0" encoding="iso-8859-1"?>
<!-- Generator: Adobe Illustrator 16.0.0, SVG Export Plug-In . SVG Version: 6.00 Build 0)  -->
<!DOCTYPE svg PUBLIC "-//W3C//DTD SVG 1.1//EN" "http://www.w3.org/Graphics/SVG/1.1/DTD/svg11.dtd">
<svg version="1.1" id="Layer_1" xmlns="http://www.w3.org/2000/svg" xmlns:xlink="http://www.w3.org/1999/xlink" x="0px" y="0px"
	 width="64px" height="63.999px" viewBox="0 0 64 63.999" style="enable-background:new 0 0 64 63.999;" xml:space="preserve">
<g id="Band_3_">
	<g>
		<path style="fill:#333333;" d="M62,10c0-1.105-0.896-2.001-2-2.001H4c-1.104,0-2,0.896-2,2.001L0,21.999C0,23.104,0.896,24,2,24
			h60c1.104,0,2-0.896,2-2.001L62,10z"/>
	</g>
</g>
<g id="Body_29_">
	<g>
		<path style="fill-rule:evenodd;clip-rule:evenodd;fill:#666666;" d="M61.813,20.204C59.877,11.978,56,4,56,4
			c-1.052-1.989-1.791-4-4-4H12C9.791,0,8.956,1.9,8,4c0,0-3.823,7.747-5.729,15.846C0.186,28.713,0,38,0,38
			c0,2.297,1.916,3.312,4,4c0,0,2.581,0.749,6.631,1.598C15.325,40.216,23.143,38,32,38c8.829,0,16.626,2.203,21.325,5.566
			C57.398,42.73,60,42,60,42c2.146-0.75,4-1.482,4-4C64,38,63.873,28.961,61.813,20.204z"/>
	</g>
</g>
<g id="Shape_75_">
	<g>
		<path style="fill-rule:evenodd;clip-rule:evenodd;fill:#808080;" d="M10.176,37.232c5.133-3.19,12.999-5.233,21.824-5.233
			c8.841,0,16.72,2.051,21.851,5.251C55.105,36.62,56,35.74,56,34c0,0-0.127-5.039-2.188-13.796C51.877,11.978,50,7.999,50,7.999
			C48.948,6.011,48.209,4,46,4H18c-2.209,0-3.044,1.9-4,3.999c0,0-1.823,3.748-3.729,11.847C8.186,28.713,8,34,8,34
			C8,35.587,8.923,36.555,10.176,37.232z"/>
	</g>
</g>
<g id="Shape_76_">
	<g>
		<path style="fill-rule:evenodd;clip-rule:evenodd;fill:#4D4D4D;" d="M32,28c7.56,0,14.415,1.5,19.452,3.935
			C51.789,31.433,52,30.817,52,30c0,0-0.127-1.039-2.188-9.796C47.877,11.978,48,11.999,48,11.999c-1.052-1.988-1.791-4-4-4H20
			c-2.209,0-3.044,1.901-4,4c0,0,0.177-0.252-1.729,7.847C12.186,28.713,12,30,12,30c0,0.773,0.23,1.392,0.599,1.911
			C17.632,29.491,24.466,28,32,28z"/>
	</g>
</g>
<g>
</g>
<g>
</g>
<g>
</g>
<g>
</g>
<g>
</g>
<g>
</g>
<g>
</g>
<g>
</g>
<g>
</g>
<g>
</g>
<g>
</g>
<g>
</g>
<g>
</g>
<g>
</g>
<g>
</g>
</svg>
