<?xml version="1.0" encoding="iso-8859-1"?>
<!-- Generator: Adobe Illustrator 16.0.0, SVG Export Plug-In . SVG Version: 6.00 Build 0)  -->
<!DOCTYPE svg PUBLIC "-//W3C//DTD SVG 1.1//EN" "http://www.w3.org/Graphics/SVG/1.1/DTD/svg11.dtd">
<svg version="1.1" id="Layer_1" xmlns="http://www.w3.org/2000/svg" xmlns:xlink="http://www.w3.org/1999/xlink" x="0px" y="0px"
	 width="52px" height="64px" viewBox="0 0 52 64" style="enable-background:new 0 0 52 64;" xml:space="preserve">
<g id="Body_26_">
	<g>
		<path style="fill:#CCCCCC;" d="M48,0H4C1.791,0,0,1.791,0,4v56c0,2.209,1.791,4,4,4h44c2.209,0,4-1.791,4-4V4
			C52,1.791,50.209,0,48,0z"/>
	</g>
</g>
<g id="Label_6_">
	<g>
		<path style="fill-rule:evenodd;clip-rule:evenodd;fill:#9B7CAB;" d="M44,8H14V7.993H0V12v44v3.991h3.913
			C3.942,59.992,3.97,60,4,60h40c2.209,0,4-1.791,4-4V12C48,9.791,46.209,8,44,8z"/>
	</g>
</g>
<g>
</g>
<g>
</g>
<g>
</g>
<g>
</g>
<g>
</g>
<g>
</g>
<g>
</g>
<g>
</g>
<g>
</g>
<g>
</g>
<g>
</g>
<g>
</g>
<g>
</g>
<g>
</g>
<g>
</g>
</svg>
