<?xml version="1.0" encoding="iso-8859-1"?>
<!-- Generator: Adobe Illustrator 16.0.0, SVG Export Plug-In . SVG Version: 6.00 Build 0)  -->
<!DOCTYPE svg PUBLIC "-//W3C//DTD SVG 1.1//EN" "http://www.w3.org/Graphics/SVG/1.1/DTD/svg11.dtd">
<svg version="1.1" id="Layer_1" xmlns="http://www.w3.org/2000/svg" xmlns:xlink="http://www.w3.org/1999/xlink" x="0px" y="0px"
	 width="87.441px" height="87.458px" viewBox="0 0 87.441 87.458" style="enable-background:new 0 0 87.441 87.458;"
	 xml:space="preserve">
<g id="Legs_2_">
	<g>
		<path style="fill-rule:evenodd;clip-rule:evenodd;fill:#B3B3B3;" d="M11.726,75.731h6L33.79,47.702l-3.973-1.986L11.726,75.731z
			 M37.762,45.716l-3.972,1.986l15.936,28.029h6L37.762,45.716z"/>
	</g>
</g>
<g id="Arms_2_">
	<g>
		<polygon style="fill-rule:evenodd;clip-rule:evenodd;fill:#808080;" points="36.85,45.663 75.229,42.105 74.879,38.02 
			41.275,41.134 61.362,20.573 58.343,18.114 35.314,41.687 33.575,41.848 33.703,43.337 33.537,43.506 33.73,43.663 33.926,45.935 
			36.255,45.719 36.556,45.964 		"/>
	</g>
</g>
<g id="Axis_2_">
	<g>
		<circle style="fill:#4D4D4D;" cx="33.79" cy="43.729" r="7.946"/>
	</g>
</g>
<g id="Chair_1_">
	<g>
		<path style="fill-rule:evenodd;clip-rule:evenodd;fill:#FF8833;" d="M61.044,33.726c2.179,3.774,2.969,7.961,2.563,11.99h12.056
			c0.383-6.075-0.954-12.326-4.225-17.993c-3.795-6.574-9.572-11.286-16.139-13.831l-5.684,10.741
			C54.268,26.069,58.417,29.176,61.044,33.726z"/>
	</g>
</g>
<g>
</g>
<g>
</g>
<g>
</g>
<g>
</g>
<g>
</g>
<g>
</g>
<g>
</g>
<g>
</g>
<g>
</g>
<g>
</g>
<g>
</g>
<g>
</g>
<g>
</g>
<g>
</g>
<g>
</g>
</svg>
