<?xml version="1.0" encoding="iso-8859-1"?>
<!-- Generator: Adobe Illustrator 16.0.0, SVG Export Plug-In . SVG Version: 6.00 Build 0)  -->
<!DOCTYPE svg PUBLIC "-//W3C//DTD SVG 1.1//EN" "http://www.w3.org/Graphics/SVG/1.1/DTD/svg11.dtd">
<svg version="1.1" id="Layer_1" xmlns="http://www.w3.org/2000/svg" xmlns:xlink="http://www.w3.org/1999/xlink" x="0px" y="0px"
	 width="63.933px" height="48.01px" viewBox="0 0 63.933 48.01" style="enable-background:new 0 0 63.933 48.01;"
	 xml:space="preserve">
<g id="Pad">
	<g>
		<path style="fill-rule:evenodd;clip-rule:evenodd;fill:#88C057;" d="M58.996,36.332L15.904,15.94
			c-0.964-0.691-2.064-1.231-3.284-1.555c-5.347-1.415-10.843,1.719-12.275,7s1.74,10.709,7.087,12.124l48.451,14.297
			c3.209,0.849,6.506-1.031,7.365-4.2C64.108,40.438,62.204,37.182,58.996,36.332z"/>
	</g>
</g>
<g id="Pad_1_">
	<g>
		<path style="fill-rule:evenodd;clip-rule:evenodd;fill:#FFFFFF;" d="M58.433,40.217l0.005-0.014c0,0-38.803-18.205-45.758-21.49
			c-0.212-0.115-0.43-0.222-0.659-0.312c-0.01-0.005-0.022-0.011-0.031-0.015c0,0-0.001,0.001-0.001,0
			c-0.193-0.074-0.391-0.141-0.595-0.195c-3.171-0.856-6.431,1.041-7.281,4.24c-0.812,3.057,0.874,6.189,3.793,7.209
			c0.017,0.007,0.022,0.02,0.042,0.025c0.094,0.027,0.217,0.063,0.325,0.094c0.015,0.004,0.029,0.011,0.044,0.015
			c0.007,0.002,0.015,0.003,0.022,0.005c7.379,2.135,44.235,12.863,48.505,14.107c0.012,0.004,0.022-0.001,0.034,0
			c0.025,0.009,0.047,0.021,0.073,0.029c0.008,0.002,0.016,0.004,0.024,0.006c1.059,0.288,2.147-0.349,2.432-1.422
			C59.648,41.584,59.222,40.65,58.433,40.217z"/>
	</g>
</g>
<g id="Hole_1_">
	<g>
		<path style="fill:#4D4D4D;" d="M10.373,22.043c-1.06-0.287-2.148,0.35-2.433,1.423c-0.284,1.072,0.345,2.175,1.404,2.463
			c1.06,0.287,2.148-0.35,2.432-1.422C12.06,23.434,11.431,22.33,10.373,22.043z"/>
	</g>
</g>
<g id="Ball_1_">
	<g>
		<circle style="fill:#CCCCCC;" cx="55.933" cy="7.996" r="7.996"/>
	</g>
</g>
<g>
</g>
<g>
</g>
<g>
</g>
<g>
</g>
<g>
</g>
<g>
</g>
<g>
</g>
<g>
</g>
<g>
</g>
<g>
</g>
<g>
</g>
<g>
</g>
<g>
</g>
<g>
</g>
<g>
</g>
</svg>
