<?xml version="1.0" encoding="iso-8859-1"?>
<!-- Generator: Adobe Illustrator 16.0.0, SVG Export Plug-In . SVG Version: 6.00 Build 0)  -->
<!DOCTYPE svg PUBLIC "-//W3C//DTD SVG 1.1//EN" "http://www.w3.org/Graphics/SVG/1.1/DTD/svg11.dtd">
<svg version="1.1" id="Layer_1" xmlns="http://www.w3.org/2000/svg" xmlns:xlink="http://www.w3.org/1999/xlink" x="0px" y="0px"
	 width="69.992px" height="75.993px" viewBox="0 0 69.992 75.993" style="enable-background:new 0 0 69.992 75.993;"
	 xml:space="preserve">
<g id="Ball_9_">
	<g>
		<circle style="fill:#48A0DC;" cx="51.999" cy="15.994" r="4"/>
	</g>
</g>
<g id="Body_30_">
	<g>
		<path style="fill-rule:evenodd;clip-rule:evenodd;fill:#B3B3B3;" d="M63.791,31.21c-0.1-0.273-0.254-0.531-0.473-0.751
			l-9.346-8.423c-0.052-0.052-0.119-0.083-0.199-0.097l-1.344-1.344c-0.806-0.805-2.112-0.805-2.918,0L22.046,48.053
			c-0.114,0.011-0.229,0.023-0.344,0.052l-4.12,1.019c-1.138,0.282-1.813,1.361-1.508,2.411l0.56,1.929l-0.673,0.673
			c0.056-0.554-0.119-1.127-0.544-1.551c-0.749-0.749-1.965-0.749-2.714,0l-11.788,11.7c-0.125,0.077-0.245,0.165-0.353,0.273
			c-0.75,0.751-0.75,1.968,0,2.718l8.155,8.153c0.751,0.751,1.968,0.751,2.719,0c0.751-0.75,0.751-1.967,0-2.718l-6.718-6.717
			l9.249-9.246c-0.078,0.611,0.11,1.249,0.579,1.719l2.919,2.918c0.449,0.449,1.054,0.639,1.641,0.587l2.488,8.569
			c0.304,1.05,1.474,1.673,2.611,1.392l4.12-1.019c0,0,0.001,0,0.001,0l2.059-0.508c1.138-0.281,1.813-1.36,1.508-2.411
			c-0.305-1.05-1.474-1.673-2.612-1.392l-2.495-8.592h5.194v-3.997c-0.986,0.388-2.398-0.054-3.606-0.618l6.663-6.661L48.216,59.91
			c0.781,0.781,2.047,0.781,2.828,0l2.827-2.826c0.242-0.242,0.399-0.533,0.492-0.839l9.558-23.652
			C64.058,32.112,63.994,31.63,63.791,31.21z M40.693,41.082l2.222-2.221l0.54,0.54c0.807,0.807,2.113,0.807,2.919,0l10.024-10.022
			l2.962,2.96l-7.888,19.519L40.693,41.082z"/>
	</g>
</g>
<g id="Shape_77_">
	<g>
		<path style="fill:#4D4D4D;" d="M58.313,35.848c-1.018-0.371-2.188,0.096-2.613,1.043l-5.085,12.861
			c-0.426,0.947,0.054,2.016,1.071,2.388c1.018,0.371,2.188-0.096,2.613-1.043l5.085-12.861
			C59.81,37.288,59.33,36.219,58.313,35.848z"/>
	</g>
</g>
<g id="Shape_78_">
	<g>
		<path style="fill:#CCCCCC;" d="M51.375,19.473l-2.919-2.92c-0.807-0.806-2.114-0.806-2.92,0L10.558,51.531
			c-0.806,0.806-0.806,2.113,0,2.919l2.92,2.92c0.807,0.806,2.113,0.806,2.92,0l34.978-34.979
			C52.182,21.586,52.182,20.278,51.375,19.473z"/>
	</g>
</g>
<g id="Shape_79_">
	<g>
		<path style="fill-rule:evenodd;clip-rule:evenodd;fill:#FF8833;" d="M51.375,19.473l-1.927-1.928L36.999,29.994l3.318,3.456
			l11.058-11.059C52.182,21.586,52.182,20.278,51.375,19.473z"/>
	</g>
</g>
<g id="Shape_80_">
	<g>
		<path style="fill-rule:evenodd;clip-rule:evenodd;fill:#4D4D4D;" d="M36.999,29.994l12.449-12.449l-0.992-0.992
			c-0.807-0.806-2.114-0.806-2.92,0L34.514,27.575L36.999,29.994z"/>
	</g>
</g>
<g>
</g>
<g>
</g>
<g>
</g>
<g>
</g>
<g>
</g>
<g>
</g>
<g>
</g>
<g>
</g>
<g>
</g>
<g>
</g>
<g>
</g>
<g>
</g>
<g>
</g>
<g>
</g>
<g>
</g>
</svg>
