<?xml version="1.0" encoding="iso-8859-1"?>
<!-- Generator: Adobe Illustrator 16.0.0, SVG Export Plug-In . SVG Version: 6.00 Build 0)  -->
<!DOCTYPE svg PUBLIC "-//W3C//DTD SVG 1.1//EN" "http://www.w3.org/Graphics/SVG/1.1/DTD/svg11.dtd">
<svg version="1.1" id="Layer_1" xmlns="http://www.w3.org/2000/svg" xmlns:xlink="http://www.w3.org/1999/xlink" x="0px" y="0px"
	 width="71.963px" height="72.023px" viewBox="0 0 71.963 72.023" style="enable-background:new 0 0 71.963 72.023;"
	 xml:space="preserve">
<g id="Body_31_">
	<g>
		<path style="fill:#808080;" d="M69.665,7.845l-5.547-5.547c-3.063-3.063-8.03-3.063-11.094,0l-42.79,46.787
			c-3.063,3.063-3.063,8.03,0,11.094l1.549,1.549c3.063,3.063,8.03,3.063,11.094,0l46.788-42.79
			C72.729,15.875,72.729,10.908,69.665,7.845z"/>
	</g>
</g>
<g id="Shape_81_">
	<g>
		<path style="fill-rule:evenodd;clip-rule:evenodd;fill:#666666;" d="M28.431,56.648L15.314,43.531l-5.08,5.554
			c-3.063,3.063-3.063,8.03,0,11.094l1.549,1.549c3.063,3.063,8.03,3.063,11.094,0L28.431,56.648z"/>
	</g>
</g>
<g id="Shape_82_">
	<g>
		<circle style="fill:#4D4D4D;" cx="57.972" cy="14.052" r="7.996"/>
	</g>
</g>
<g id="Controller">
	<g>
		<circle style="fill:#808080;" cx="57.972" cy="14.052" r="3.998"/>
	</g>
</g>
<g id="BTNs_1_">
	<g>
		<path style="fill-rule:evenodd;clip-rule:evenodd;fill:#4D4D4D;" d="M47.385,27.576c0.811-0.812,0.811-2.126,0-2.938
			c-0.812-0.811-2.126-0.811-2.938,0c-0.811,0.812-0.811,2.126,0,2.938C45.259,28.388,46.573,28.388,47.385,27.576z M44.447,30.514
			c-0.811,0.811-0.811,2.125,0,2.937c0.812,0.812,2.126,0.812,2.938,0c0.811-0.812,0.811-2.126,0-2.937
			C46.573,29.702,45.259,29.702,44.447,30.514z M38.573,24.639c-0.812,0.812-0.812,2.126,0,2.938c0.811,0.812,2.126,0.812,2.937,0
			c0.812-0.812,0.812-2.126,0-2.938C40.699,23.828,39.384,23.828,38.573,24.639z M38.573,30.514c-0.812,0.811-0.812,2.125,0,2.937
			c0.811,0.812,2.126,0.812,2.937,0c0.812-0.812,0.812-2.126,0-2.937C40.699,29.702,39.384,29.702,38.573,30.514z"/>
	</g>
</g>
<g id="BTN">
	<g>
		<circle style="fill:#4D4D4D;" cx="31.984" cy="40.039" r="3.998"/>
	</g>
</g>
<g>
</g>
<g>
</g>
<g>
</g>
<g>
</g>
<g>
</g>
<g>
</g>
<g>
</g>
<g>
</g>
<g>
</g>
<g>
</g>
<g>
</g>
<g>
</g>
<g>
</g>
<g>
</g>
<g>
</g>
</svg>
