<?xml version="1.0" encoding="iso-8859-1"?>
<!-- Generator: Adobe Illustrator 16.0.0, SVG Export Plug-In . SVG Version: 6.00 Build 0)  -->
<!DOCTYPE svg PUBLIC "-//W3C//DTD SVG 1.1//EN" "http://www.w3.org/Graphics/SVG/1.1/DTD/svg11.dtd">
<svg version="1.1" id="Layer_1" xmlns="http://www.w3.org/2000/svg" xmlns:xlink="http://www.w3.org/1999/xlink" x="0px" y="0px"
	 width="52px" height="64px" viewBox="0 0 52 64" style="enable-background:new 0 0 52 64;" xml:space="preserve">
<g id="Body_24_">
	<g>
		<path style="fill:#CCCCCC;" d="M48,0H4C1.791,0,0,1.791,0,4v56c0,2.209,1.791,4,4,4h44c2.209,0,4-1.791,4-4V4
			C52,1.791,50.209,0,48,0z"/>
	</g>
</g>
<g id="Label_3_">
	<g>
		<rect y="8" style="fill:#4D4D4D;" width="48" height="8"/>
	</g>
</g>
<g id="Label_4_">
	<g>
		<path style="fill-rule:evenodd;clip-rule:evenodd;fill:#48A0DC;" d="M44,16H20v-0.006H0V16v4v2v34v3.994h3.942
			C3.962,59.994,3.98,60,4,60h40c2.209,0,4-1.791,4-4V22v-2v-4H44z"/>
	</g>
</g>
<g id="Playstation_Logo">
	<g>
		<path style="fill:#FFFFFF;" d="M13.019,38.668c0,0-1.589,0.527-2.522,1.227c-1.012,0.76-0.639,2.07,1.576,2.698
			c2.379,0.795,4.795,0.949,7.063,0.576c0.147-0.027,0.024,0.104,0.17,0.081v-2.751l-1.819,0.878
			c-0.835,0.308-2.066,0.37-2.745,0.144c-0.677-0.226-0.552-0.651,0.286-0.954l4.278-1.475v-2.718L13.019,38.668z M19.305,39.125
			l0.283-0.131l-0.283,0.098V39.125z M27.317,30.874v5.5c3.039,1.396,5.427-0.551,5.427-4.245c0-3.786-1.406-5.027-5.543-6.377
			c-1.628-0.522-4.486-1.388-6.561-1.753v20.625l5.342,1.375v-16.5c0-0.81,0.032-1.292,0.636-1.105
			C27.42,28.604,27.317,30.067,27.317,30.874z M36.029,38.908c-1.799-0.716-3.679-0.962-5.695-0.746
			c-2.014,0.218-3.017,0.963-3.017,0.963v2.749l3.859-1.807c0.781-0.297,1.938-0.364,2.574-0.144
			c0.637,0.222,0.516,0.642-0.268,0.934l-6.166,2.393v2.749l8.674-3.559c0,0,1.263-0.488,1.781-1.172
			C38.287,40.581,38.058,39.587,36.029,38.908z"/>
	</g>
</g>
<g>
</g>
<g>
</g>
<g>
</g>
<g>
</g>
<g>
</g>
<g>
</g>
<g>
</g>
<g>
</g>
<g>
</g>
<g>
</g>
<g>
</g>
<g>
</g>
<g>
</g>
<g>
</g>
<g>
</g>
</svg>
