<?xml version="1.0" encoding="iso-8859-1"?>
<!-- Generator: Adobe Illustrator 16.0.0, SVG Export Plug-In . SVG Version: 6.00 Build 0)  -->
<!DOCTYPE svg PUBLIC "-//W3C//DTD SVG 1.1//EN" "http://www.w3.org/Graphics/SVG/1.1/DTD/svg11.dtd">
<svg version="1.1" id="Layer_1" xmlns="http://www.w3.org/2000/svg" xmlns:xlink="http://www.w3.org/1999/xlink" x="0px" y="0px"
	 width="63.994px" height="63.932px" viewBox="0 0 63.994 63.932" style="enable-background:new 0 0 63.994 63.932;"
	 xml:space="preserve">
<g id="Ball_10_">
	<g>
		<circle style="fill:#48A0DC;" cx="53.994" cy="10" r="10"/>
	</g>
</g>
<g id="Body_32_">
	<g>
		<path style="fill-rule:evenodd;clip-rule:evenodd;fill:#808080;" d="M52.609,19.889l-4.258-4.253l-4.258-4.252
			c0,0-2.569-3.104-5.676,0c-3.107,3.104-6.493,9.319-9.935,12.758c-3.441,3.437-12.771,12.757-12.771,12.757
			S6.435,43.33,2.939,46.82c-3.919,3.915-3.919,10.261,0,14.176c3.919,3.914,10.272,3.914,14.191,0
			c3.495-3.491,9.934-12.758,9.934-12.758s9.331-9.319,12.772-12.757c3.441-3.438,9.665-6.819,12.772-9.923
			C55.716,22.455,52.609,19.889,52.609,19.889z"/>
	</g>
</g>
<g id="BTNs_2_">
	<g>
		<path style="fill-rule:evenodd;clip-rule:evenodd;fill:#4D4D4D;" d="M42.889,21.048c-1.444-1.445-3.787-1.445-5.231,0
			l-2.616,2.615c-1.444,1.445-1.444,3.787,0,5.232c1.445,1.444,3.787,1.444,5.232,0l2.615-2.616
			C44.334,24.835,44.334,22.492,42.889,21.048z M27.994,32.001c-2.209,0-4,1.79-4,3.999c0,2.21,1.791,4,4,4s4-1.79,4-4
			C31.994,33.791,30.203,32.001,27.994,32.001z"/>
	</g>
</g>
<g>
</g>
<g>
</g>
<g>
</g>
<g>
</g>
<g>
</g>
<g>
</g>
<g>
</g>
<g>
</g>
<g>
</g>
<g>
</g>
<g>
</g>
<g>
</g>
<g>
</g>
<g>
</g>
<g>
</g>
</svg>
