<?xml version="1.0" encoding="iso-8859-1"?>
<!-- Generator: Adobe Illustrator 16.0.0, SVG Export Plug-In . SVG Version: 6.00 Build 0)  -->
<!DOCTYPE svg PUBLIC "-//W3C//DTD SVG 1.1//EN" "http://www.w3.org/Graphics/SVG/1.1/DTD/svg11.dtd">
<svg version="1.1" id="Layer_1" xmlns="http://www.w3.org/2000/svg" xmlns:xlink="http://www.w3.org/1999/xlink" x="0px" y="0px"
	 width="44px" height="64px" viewBox="0 0 44 64" style="enable-background:new 0 0 44 64;" xml:space="preserve">
<g id="Shape_67_">
	<g>
		<path style="fill:#666666;" d="M40,0H4C1.791,0,0,1.791,0,4v56c0,2.209,1.791,4,4,4h36c2.209,0,4-1.791,4-4V4
			C44,1.791,42.209,0,40,0z"/>
	</g>
</g>
<g id="Shape_68_">
	<g>
		<path style="fill-rule:evenodd;clip-rule:evenodd;fill:#808080;" d="M40,0H4C1.791,0,0,1.791,0,4v1.999h44V4
			C44,1.791,42.209,0,40,0z"/>
	</g>
</g>
<g id="Shape_69_">
	<g>
		<path style="fill-rule:evenodd;clip-rule:evenodd;fill:#4D4D4D;" d="M0,58v2c0,2.209,1.791,4,4,4h36c2.209,0,4-1.791,4-4v-2H0z"/>
	</g>
</g>
<g id="Playstation_Logo_1_">
	<g>
		<path style="fill:#4D4D4D;" d="M18.646,34.999l0.201-0.095l-0.201,0.07V34.999z M14.156,34.668c0,0-1.135,0.383-1.803,0.891
			c-0.723,0.553-0.456,1.506,1.127,1.963c1.699,0.578,3.425,0.689,5.044,0.418c0.105-0.019,0.018,0.076,0.122,0.06v-2l-1.3,0.639
			c-0.597,0.224-1.476,0.269-1.961,0.104c-0.483-0.165-0.395-0.475,0.204-0.694l3.057-1.073v-1.976L14.156,34.668z M30.593,34.842
			c-1.285-0.521-2.628-0.699-4.068-0.543c-1.438,0.159-2.155,0.7-2.155,0.7v1.999l2.758-1.313c0.558-0.216,1.383-0.265,1.838-0.104
			s0.368,0.466-0.191,0.678l-4.404,1.74v1.999l6.196-2.587c0,0,0.901-0.355,1.271-0.853C32.205,36.059,32.041,35.336,30.593,34.842z
			 M24.369,28.999v4c2.171,1.016,3.877-0.4,3.877-3.088c0-2.754-1.005-3.655-3.96-4.638c-1.162-0.38-3.204-1.01-4.686-1.274v15
			l3.815,0.999V27.999c0-0.589,0.022-0.939,0.454-0.805C24.443,27.348,24.369,28.412,24.369,28.999z"/>
	</g>
</g>
<g>
</g>
<g>
</g>
<g>
</g>
<g>
</g>
<g>
</g>
<g>
</g>
<g>
</g>
<g>
</g>
<g>
</g>
<g>
</g>
<g>
</g>
<g>
</g>
<g>
</g>
<g>
</g>
<g>
</g>
</svg>
