<?xml version="1.0" encoding="iso-8859-1"?>
<!-- Generator: Adobe Illustrator 16.0.0, SVG Export Plug-In . SVG Version: 6.00 Build 0)  -->
<!DOCTYPE svg PUBLIC "-//W3C//DTD SVG 1.1//EN" "http://www.w3.org/Graphics/SVG/1.1/DTD/svg11.dtd">
<svg version="1.1" id="Layer_1" xmlns="http://www.w3.org/2000/svg" xmlns:xlink="http://www.w3.org/1999/xlink" x="0px" y="0px"
	 width="56px" height="60.001px" viewBox="0 0 56 60.001" style="enable-background:new 0 0 56 60.001;" xml:space="preserve">
<g id="Shape_70_">
	<g>
		<path style="fill:#808080;" d="M52,0H4C1.791,0,0,1.791,0,4v12c0,2.21,1.979,3.626,4,4.001c0,0,9.834,1.999,23.75,1.999
			C41.833,22,52,20.001,52,20.001c2.209-0.438,4-1.791,4-4.001V4C56,1.791,54.209,0,52,0z"/>
	</g>
</g>
<g id="Shape_71_">
	<g>
		<path style="fill:#666666;" d="M52,0H4C1.791,0,0,1.791,0,4v4c0,2.21,1.791,4,4,4h48c2.209,0,4-1.79,4-4V4C56,1.791,54.209,0,52,0
			z"/>
	</g>
</g>
<g id="Stand_1_">
	<g>
		<path style="fill-rule:evenodd;clip-rule:evenodd;fill:#4D4D4D;" d="M38,52h-2v-7.999H20V52h-2c-2.209,0-4,1.791-4,4.001
			c0,2.208,1.791,4,4,4h2h16h2c2.209,0,4-1.792,4-4C42,53.791,40.209,52,38,52z"/>
	</g>
</g>
<g id="Body_27_">
	<g>
		<circle style="fill:#666666;" cx="28" cy="32" r="20"/>
	</g>
</g>
<g id="Shape_72_">
	<g>
		<circle style="fill:#4D4D4D;" cx="28" cy="32" r="10"/>
	</g>
</g>
<g id="Camera">
	<g>
		<circle style="fill:#48A0DC;" cx="28" cy="32" r="4"/>
	</g>
</g>
<g>
</g>
<g>
</g>
<g>
</g>
<g>
</g>
<g>
</g>
<g>
</g>
<g>
</g>
<g>
</g>
<g>
</g>
<g>
</g>
<g>
</g>
<g>
</g>
<g>
</g>
<g>
</g>
<g>
</g>
</svg>
