<?xml version="1.0" encoding="iso-8859-1"?>
<!-- Generator: Adobe Illustrator 16.0.0, SVG Export Plug-In . SVG Version: 6.00 Build 0)  -->
<!DOCTYPE svg PUBLIC "-//W3C//DTD SVG 1.1//EN" "http://www.w3.org/Graphics/SVG/1.1/DTD/svg11.dtd">
<svg version="1.1" id="Layer_1" xmlns="http://www.w3.org/2000/svg" xmlns:xlink="http://www.w3.org/1999/xlink" x="0px" y="0px"
	 width="64px" height="63.999px" viewBox="0 0 64 63.999" style="enable-background:new 0 0 64 63.999;" xml:space="preserve">
<g id="Dots_9_">
	<g>
		<path style="fill-rule:evenodd;clip-rule:evenodd;fill:#CCCCCC;" d="M32,4c-1.105,0-2,0.895-2,2v4c0,1.104,0.895,1.999,2,1.999
			c1.104,0,2-0.895,2-1.999V6C34,4.895,33.104,4,32,4z M32,16c-1.105,0-2,0.895-2,1.999v4C30,23.104,30.895,24,32,24
			c1.104,0,2-0.896,2-2.001v-4C34,16.895,33.104,16,32,16z M32,27.999c-1.105,0-2,0.896-2,2.001v4c0,1.104,0.895,2,2,2
			c1.104,0,2-0.896,2-2v-4C34,28.895,33.104,27.999,32,27.999z M32,40c-1.105,0-2,0.895-2,2v4c0,1.104,0.895,2,2,2
			c1.104,0,2-0.896,2-2v-4C34,40.895,33.104,40,32,40z M32,52c-1.105,0-2,0.895-2,1.999v4c0,1.104,0.895,2,2,2c1.104,0,2-0.896,2-2
			v-4C34,52.895,33.104,52,32,52z"/>
	</g>
</g>
<g id="Pad_2_">
	<g>
		<path style="fill:#48A0DC;" d="M6,48H2c-1.105,0-2,0.895-2,2v12c0,1.104,0.895,1.999,2,1.999h4c1.104,0,2-0.895,2-1.999V50
			C8,48.895,7.104,48,6,48z"/>
	</g>
</g>
<g id="Pad_3_">
	<g>
		<path style="fill:#9B7CAB;" d="M62,0h-4c-1.104,0-2,0.895-2,1.999V14c0,1.104,0.896,2,2,2h4c1.104,0,2-0.896,2-2V1.999
			C64,0.895,63.104,0,62,0z"/>
	</g>
</g>
<g id="Ball_6_">
	<g>
		<circle style="fill:#88C057;" cx="20" cy="44" r="4"/>
	</g>
</g>
<g>
</g>
<g>
</g>
<g>
</g>
<g>
</g>
<g>
</g>
<g>
</g>
<g>
</g>
<g>
</g>
<g>
</g>
<g>
</g>
<g>
</g>
<g>
</g>
<g>
</g>
<g>
</g>
<g>
</g>
</svg>
