<?xml version="1.0" encoding="iso-8859-1"?>
<!-- Generator: Adobe Illustrator 16.0.0, SVG Export Plug-In . SVG Version: 6.00 Build 0)  -->
<!DOCTYPE svg PUBLIC "-//W3C//DTD SVG 1.1//EN" "http://www.w3.org/Graphics/SVG/1.1/DTD/svg11.dtd">
<svg version="1.1" id="Layer_1" xmlns="http://www.w3.org/2000/svg" xmlns:xlink="http://www.w3.org/1999/xlink" x="0px" y="0px"
	 width="75.99px" height="67.971px" viewBox="0 0 75.99 67.971" style="enable-background:new 0 0 75.99 67.971;"
	 xml:space="preserve">
<g id="Shape_1_">
	<g>
		<path style="fill:#E6E6E6;" d="M71.99,3.999H15.998c-2.209,0-3.999,1.79-3.999,3.998v55.976c0,2.208,1.79,3.998,3.999,3.998H71.99
			c2.209,0,4-1.79,4-3.998V7.997C75.99,5.789,74.199,3.999,71.99,3.999z"/>
	</g>
</g>
<g id="Table_Corners">
	<g>
		<path style="fill-rule:evenodd;clip-rule:evenodd;fill:#8C6845;" d="M71.99,3.999h-7.999v51.978H11.999v7.996
			c0,2.208,1.79,3.998,3.999,3.998H71.99c2.209,0,4-1.79,4-3.998V7.997C75.99,5.789,74.199,3.999,71.99,3.999z"/>
	</g>
</g>
<g id="Table">
	<g>
		<path style="fill-rule:evenodd;clip-rule:evenodd;fill:#88C057;" d="M71.99,23.989H37.995h-2h-3.999v3.999v1.999v33.985v3.998
			h3.999h2H71.99c2.209,0,4-1.79,4-3.998V29.987v-1.999v-3.999H71.99z"/>
	</g>
</g>
<g id="Hole">
	<g>
		<ellipse style="fill:#4D4D4D;" cx="43.994" cy="35.985" rx="19.997" ry="19.992"/>
	</g>
</g>
<g>
</g>
<g>
</g>
<g>
</g>
<g>
</g>
<g>
</g>
<g>
</g>
<g>
</g>
<g>
</g>
<g>
</g>
<g>
</g>
<g>
</g>
<g>
</g>
<g>
</g>
<g>
</g>
<g>
</g>
</svg>
