<?xml version="1.0" encoding="iso-8859-1"?>
<!-- Generator: Adobe Illustrator 16.0.0, SVG Export Plug-In . SVG Version: 6.00 Build 0)  -->
<!DOCTYPE svg PUBLIC "-//W3C//DTD SVG 1.1//EN" "http://www.w3.org/Graphics/SVG/1.1/DTD/svg11.dtd">
<svg version="1.1" id="Layer_1" xmlns="http://www.w3.org/2000/svg" xmlns:xlink="http://www.w3.org/1999/xlink" x="0px" y="0px"
	 width="64px" height="39.999px" viewBox="0 0 64 39.999" style="enable-background:new 0 0 64 39.999;" xml:space="preserve">
<g id="Body_39_">
	<g>
		<path style="fill-rule:evenodd;clip-rule:evenodd;fill:#4D4D4D;" d="M64,33.25L60,14l-2.767-2.214C58.834,11.264,60,9.776,60,8V4
			c0-2.209-1.791-4-4-4h-4c-2.21,0-4,1.791-4,4v2H16V4c0-2.209-1.791-4-4-4H8C5.791,0,4,1.791,4,4v4
			c0,1.776,1.166,3.264,2.767,3.786L4,14L0,33.25l0.05,0.013C0.02,33.505,0,33.75,0,34c0,3.313,2.686,5.999,6,5.999
			c2.654,0,4.902-1.726,5.693-4.114L18,24h28l6.307,11.885c0.791,2.389,3.039,4.114,5.693,4.114c3.313,0,6-2.687,6-5.999
			c0-0.25-0.02-0.495-0.05-0.737L64,33.25z"/>
	</g>
</g>
<g id="Shapes_1_">
	<g>
		<path style="fill-rule:evenodd;clip-rule:evenodd;fill:#666666;" d="M54,4c-5.523,0-10,4.477-10,10
			c0,1.442,0.312,2.81,0.861,4.048C44.578,18.018,44.291,18,44,18c-4.419,0-8,3.581-8,8c0,4.418,3.581,8,8,8c4.418,0,8-3.582,8-8
			c0-0.795-0.12-1.561-0.335-2.285C52.415,23.895,53.194,24,54,24c5.522,0,10-4.478,10-10C64,8.477,59.522,4,54,4z M20,18
			c-0.291,0-0.578,0.018-0.861,0.048C19.688,16.81,20,15.442,20,14c0-5.523-4.478-10-10-10C4.477,4,0,8.477,0,14
			c0,5.522,4.477,10,10,10c0.806,0,1.585-0.105,2.335-0.286C12.12,24.439,12,25.205,12,26c0,4.418,3.581,8,8,8c4.418,0,8-3.582,8-8
			C28,21.581,24.418,18,20,18z"/>
	</g>
</g>
<g id="BTNs_14_">
	<g>
		<path style="fill-rule:evenodd;clip-rule:evenodd;fill:#CCCCCC;" d="M54,12c1.104,0,2-0.896,2-2s-0.896-2-2-2
			c-1.105,0-2,0.896-2,2S52.895,12,54,12z M50,12c-1.105,0-2,0.896-2,2s0.895,2,2,2c1.104,0,2-0.896,2-2S51.104,12,50,12z M58,12
			c-1.104,0-2,0.896-2,2s0.896,2,2,2s2-0.896,2-2S59.104,12,58,12z M54,16c-1.105,0-2,0.896-2,2s0.895,1.999,2,1.999
			c1.104,0,2-0.895,2-1.999S55.104,16,54,16z M10,12c1.104,0,2-0.896,2-2s-0.896-2-2-2s-2,0.896-2,2S8.896,12,10,12z M6,12
			c-1.104,0-2,0.896-2,2s0.896,2,2,2s2-0.896,2-2S7.104,12,6,12z M14,12c-1.105,0-2,0.896-2,2s0.895,2,2,2c1.104,0,2-0.896,2-2
			S15.104,12,14,12z M10,16c-1.104,0-2,0.896-2,2s0.896,1.999,2,1.999s2-0.895,2-1.999S11.104,16,10,16z"/>
	</g>
</g>
<g id="BTNs_15_">
	<g>
		<path style="fill-rule:evenodd;clip-rule:evenodd;fill:#808080;" d="M26,10c-1.104,0-2,0.896-2,2s0.896,2,2,2s2-0.896,2-2
			S27.104,10,26,10z M38,10c-1.104,0-2,0.896-2,2s0.896,2,2,2s2-0.896,2-2S39.104,10,38,10z M32,16c-1.105,0-2,0.896-2,2
			s0.895,1.999,2,1.999c1.104,0,2-0.895,2-1.999S33.104,16,32,16z"/>
	</g>
</g>
<g id="Controllers_1_">
	<g>
		<path style="fill-rule:evenodd;clip-rule:evenodd;fill:#B4B4B4;" d="M44,22c-2.209,0-4,1.791-4,4s1.791,4,4,4s4-1.791,4-4
			S46.209,22,44,22z M20,22c-2.209,0-4,1.791-4,4s1.791,4,4,4s4-1.791,4-4S22.209,22,20,22z"/>
	</g>
</g>
<g>
</g>
<g>
</g>
<g>
</g>
<g>
</g>
<g>
</g>
<g>
</g>
<g>
</g>
<g>
</g>
<g>
</g>
<g>
</g>
<g>
</g>
<g>
</g>
<g>
</g>
<g>
</g>
<g>
</g>
</svg>
