<?xml version="1.0" encoding="iso-8859-1"?>
<!-- Generator: Adobe Illustrator 16.0.0, SVG Export Plug-In . SVG Version: 6.00 Build 0)  -->
<!DOCTYPE svg PUBLIC "-//W3C//DTD SVG 1.1//EN" "http://www.w3.org/Graphics/SVG/1.1/DTD/svg11.dtd">
<svg version="1.1" id="Layer_1" xmlns="http://www.w3.org/2000/svg" xmlns:xlink="http://www.w3.org/1999/xlink" x="0px" y="0px"
	 width="72px" height="37.998px" viewBox="0 0 72 37.998" style="enable-background:new 0 0 72 37.998;" xml:space="preserve">
<g id="Shape_107_">
	<g>
		<path style="fill:#4D4D4D;" d="M70,11.999c0-1.104-0.896-2-2-2H12c-1.104,0-2,0.896-2,2l-2,8c0,1.104,0.895,2,2,2h60
			c1.104,0,2-0.896,2-2L70,11.999z"/>
	</g>
</g>
<g id="Shape_108_">
	<g>
		<path style="fill-rule:evenodd;clip-rule:evenodd;fill:#666666;" d="M70,11.999c0-1.104-0.896-2-2-2h-2H54H32v12h22h14h2
			c1.104,0,2-0.896,2-2L70,11.999z"/>
	</g>
</g>
<g id="Shape_109_">
	<g>
		<path style="fill:#666666;" d="M70,25.999H10c-1.105,0-2,0.896-2,2v7.999c0,1.105,0.895,2,2,2h60c1.104,0,2-0.895,2-2v-7.999
			C72,26.895,71.104,25.999,70,25.999z"/>
	</g>
</g>
<g id="BTN_12_">
	<g>
		<rect x="30" y="25.999" style="fill:#4D4D4D;" width="4" height="11.999"/>
	</g>
</g>
<g id="LED_1_">
	<g>
		<rect x="30" y="9.999" style="fill:#54BBFF;" width="4" height="12"/>
	</g>
</g>
<g id="Tray_2_">
	<g>
		<rect x="12" y="21.999" style="fill:#333333;" width="56" height="4"/>
	</g>
</g>
<g>
</g>
<g>
</g>
<g>
</g>
<g>
</g>
<g>
</g>
<g>
</g>
<g>
</g>
<g>
</g>
<g>
</g>
<g>
</g>
<g>
</g>
<g>
</g>
<g>
</g>
<g>
</g>
<g>
</g>
</svg>
