<?xml version="1.0" encoding="iso-8859-1"?>
<!-- Generator: Adobe Illustrator 16.0.0, SVG Export Plug-In . SVG Version: 6.00 Build 0)  -->
<!DOCTYPE svg PUBLIC "-//W3C//DTD SVG 1.1//EN" "http://www.w3.org/Graphics/SVG/1.1/DTD/svg11.dtd">
<svg version="1.1" id="Layer_1" xmlns="http://www.w3.org/2000/svg" xmlns:xlink="http://www.w3.org/1999/xlink" x="0px" y="0px"
	 width="64px" height="60px" viewBox="0 0 64 60" style="enable-background:new 0 0 64 60;" xml:space="preserve">
<g id="Btns_Base">
	<g>
		<path style="fill:#333333;" d="M60,28c-1.188-2.771-3.791-4-6-4H10c-2.209,0-4.688,1.291-6,4c0,0-4,6.624-4,13.429
			C0,48.614,4,56,4,56c1.875,2.709,3.791,4,6,4h44c2.209,0,4.25-1.291,6-4c0,0,4-7.192,4-14.286C64,34.811,60,28,60,28z"/>
	</g>
</g>
<g id="Base_25_">
	<g>
		<path style="fill:#595959;" d="M60,4c-1.188-2.771-3.791-4-6-4H10C7.791,0,5.313,1.291,4,4c0,0-4,6.624-4,13.429
			C0,24.613,4,32,4,32c1.875,2.709,3.791,4,6,4h44c2.209,0,4.25-1.291,6-4c0,0,4-7.192,4-14.285C64,10.811,60,4,60,4z"/>
	</g>
</g>
<g id="Dispaly">
	<g>
		<path style="fill:#48A0DC;" d="M52,6H12c-1.105,0-2,0.896-2,2v20c0,1.104,0.895,2,2,2h40c1.104,0,2-0.896,2-2V8
			C54,6.896,53.104,6,52,6z"/>
	</g>
</g>
<g id="Btns_3_">
	<g>
		<path style="fill-rule:evenodd;clip-rule:evenodd;fill:#808080;" d="M52,46c1.104,0,2-0.896,2-2s-0.896-2-2-2s-2,0.896-2,2
			S50.896,46,52,46z M48,46c-1.105,0-2,0.896-2,2s0.895,2,2,2c1.104,0,2-0.896,2-2S49.104,46,48,46z M52,50c-1.104,0-2,0.896-2,2
			s0.896,2,2,2s2-0.896,2-2S53.104,50,52,50z M56,46c-1.104,0-2,0.896-2,2s0.896,2,2,2s2-0.896,2-2S57.104,46,56,46z"/>
	</g>
</g>
<g id="Btns_4_">
	<g>
		<path style="fill-rule:evenodd;clip-rule:evenodd;fill:#808080;" d="M12,46c1.104,0,2-0.896,2-2s-0.896-2-2-2
			c-1.105,0-2,0.896-2,2S10.895,46,12,46z M8,46c-1.104,0-2,0.896-2,2s0.896,2,2,2s2-0.896,2-2S9.104,46,8,46z M12,50
			c-1.105,0-2,0.896-2,2s0.895,2,2,2c1.104,0,2-0.896,2-2S13.104,50,12,50z M16,46c-1.104,0-2,0.896-2,2s0.896,2,2,2s2-0.896,2-2
			S17.104,46,16,46z"/>
	</g>
</g>
<g id="Stick_7_">
	<g>
		<circle style="fill:#808080;" cx="26" cy="48" r="4"/>
	</g>
</g>
<g id="Stick_8_">
	<g>
		<circle style="fill:#808080;" cx="38" cy="48" r="4"/>
	</g>
</g>
<g>
</g>
<g>
</g>
<g>
</g>
<g>
</g>
<g>
</g>
<g>
</g>
<g>
</g>
<g>
</g>
<g>
</g>
<g>
</g>
<g>
</g>
<g>
</g>
<g>
</g>
<g>
</g>
<g>
</g>
</svg>
