<?xml version="1.0" encoding="iso-8859-1"?>
<!-- Generator: Adobe Illustrator 16.0.0, SVG Export Plug-In . SVG Version: 6.00 Build 0)  -->
<!DOCTYPE svg PUBLIC "-//W3C//DTD SVG 1.1//EN" "http://www.w3.org/Graphics/SVG/1.1/DTD/svg11.dtd">
<svg version="1.1" id="Layer_1" xmlns="http://www.w3.org/2000/svg" xmlns:xlink="http://www.w3.org/1999/xlink" x="0px" y="0px"
	 width="64px" height="36px" viewBox="0 0 64 36" style="enable-background:new 0 0 64 36;" xml:space="preserve">
<g id="Btns_5_">
	<g>
		<path style="fill:#CCCCCC;" d="M60,3.999C58.813,1.228,56.209,0,54,0H10C7.791,0,5.313,1.29,4,3.999c0,0-4,6.625-4,13.43
			C0,24.613,4,32,4,32c1.875,2.709,3.791,4,6,4h44c2.209,0,4.25-1.291,6-4c0,0,4-7.192,4-14.286C64,10.811,60,3.999,60,3.999z"/>
	</g>
</g>
<g id="Base_26_">
	<g>
		<path style="fill-rule:evenodd;clip-rule:evenodd;fill:#4D4D4D;" d="M60,3.999h-8c-1.104,0-2-0.895-2-1.999s-0.896-2-2-2H16
			c-1.104,0-2,0.896-2,2s-0.896,1.999-2,1.999H4c0,0-4,6.625-4,13.43C0,24.613,4,32,4,32h8c1.104,0,2,0.896,2,2s0.896,2,2,2h32
			c1.104,0,2-0.896,2-2s0.896-2,2-2h8c0,0,4-7.192,4-14.286C64,10.811,60,3.999,60,3.999z"/>
	</g>
</g>
<g id="Dispaly_1_">
	<g>
		<path style="fill:#9B7CAB;" d="M44,6H20c-1.104,0-2,0.896-2,2v20c0,1.104,0.896,2,2,2h24c1.104,0,2-0.896,2-2V8
			C46,6.896,45.104,6,44,6z"/>
	</g>
</g>
<g id="Btns_6_">
	<g>
		<path style="fill-rule:evenodd;clip-rule:evenodd;fill:#808080;" d="M54,12c1.104,0,2-0.896,2-2c0-1.105-0.896-2-2-2s-2,0.895-2,2
			C52,11.104,52.896,12,54,12z M50,12c-1.104,0-2,0.896-2,1.999C48,15.104,48.896,16,50,16s2-0.896,2-2.001
			C52,12.896,51.104,12,50,12z M54,16c-1.104,0-2,0.896-2,2s0.896,2,2,2s2-0.896,2-2S55.104,16,54,16z M58,12
			c-1.104,0-2,0.896-2,1.999C56,15.104,56.896,16,58,16s2-0.896,2-2.001C60,12.896,59.104,12,58,12z"/>
	</g>
</g>
<g id="Btns_7_">
	<g>
		<path style="fill-rule:evenodd;clip-rule:evenodd;fill:#808080;" d="M10,12c1.104,0,2-0.896,2-2c0-1.105-0.896-2-2-2s-2,0.895-2,2
			C8,11.104,8.896,12,10,12z M6,12c-1.104,0-2,0.896-2,1.999C4,15.104,4.896,16,6,16s2-0.896,2-2.001C8,12.896,7.104,12,6,12z
			 M10,16c-1.104,0-2,0.896-2,2s0.896,2,2,2s2-0.896,2-2S11.104,16,10,16z M14,12c-1.104,0-2,0.896-2,1.999
			C12,15.104,12.896,16,14,16s2-0.896,2-2.001C16,12.896,15.104,12,14,12z"/>
	</g>
</g>
<g id="Stick_9_">
	<g>
		<circle style="fill:#666666;" cx="10" cy="26" r="4"/>
	</g>
</g>
<g>
</g>
<g>
</g>
<g>
</g>
<g>
</g>
<g>
</g>
<g>
</g>
<g>
</g>
<g>
</g>
<g>
</g>
<g>
</g>
<g>
</g>
<g>
</g>
<g>
</g>
<g>
</g>
<g>
</g>
</svg>
