<?xml version="1.0" encoding="iso-8859-1"?>
<!-- Generator: Adobe Illustrator 16.0.0, SVG Export Plug-In . SVG Version: 6.00 Build 0)  -->
<!DOCTYPE svg PUBLIC "-//W3C//DTD SVG 1.1//EN" "http://www.w3.org/Graphics/SVG/1.1/DTD/svg11.dtd">
<svg version="1.1" id="Layer_1" xmlns="http://www.w3.org/2000/svg" xmlns:xlink="http://www.w3.org/1999/xlink" x="0px" y="0px"
	 width="44px" height="64px" viewBox="0 0 44 64" style="enable-background:new 0 0 44 64;" xml:space="preserve">
<g id="Body_9_">
	<g>
		<path style="fill-rule:evenodd;clip-rule:evenodd;fill:#CCCCCC;" d="M36,52c0-6.375-4-8-4-8c-4.125-11.375,0-24,0-24H22H12
			c0,0,4.125,12.625,0,24c0,0-4,1.625-4,8c0,0-8,4.875-8,8s1.625,4,4,4h18h18c2.375,0,4-0.875,4-4S36,52,36,52z"/>
	</g>
</g>
<g id="Ball_3_">
	<g>
		<circle style="fill:#846A91;" cx="22" cy="6" r="6"/>
	</g>
</g>
<g id="Head_6_">
	<g>
		<path style="fill:#9B7CAB;" d="M22,8.001c-6.627,0-12,1.372-12,8c0,6.627,5.373,16,12,16s12-9.373,12-16
			C34,9.373,28.627,8.001,22,8.001z"/>
	</g>
</g>
<g id="Base_7_">
	<g>
		<path style="fill:#B3B3B3;" d="M40,56H4c-2.209,0-4,1.791-4,4s1.791,4,4,4h36c2.209,0,4-1.791,4-4S42.209,56,40,56z"/>
	</g>
</g>
<g id="Shape_29_">
	<g>
		<path style="fill:#B3B3B3;" d="M30,24H14c-2.209,0-4,1.791-4,3.999C10,30.209,11.791,32,14,32h16c2.209,0,4-1.791,4-4.001
			C34,25.791,32.209,24,30,24z"/>
	</g>
</g>
<g>
</g>
<g>
</g>
<g>
</g>
<g>
</g>
<g>
</g>
<g>
</g>
<g>
</g>
<g>
</g>
<g>
</g>
<g>
</g>
<g>
</g>
<g>
</g>
<g>
</g>
<g>
</g>
<g>
</g>
</svg>
