<?xml version="1.0" encoding="iso-8859-1"?>
<!-- Generator: Adobe Illustrator 16.0.0, SVG Export Plug-In . SVG Version: 6.00 Build 0)  -->
<!DOCTYPE svg PUBLIC "-//W3C//DTD SVG 1.1//EN" "http://www.w3.org/Graphics/SVG/1.1/DTD/svg11.dtd">
<svg version="1.1" id="Layer_1" xmlns="http://www.w3.org/2000/svg" xmlns:xlink="http://www.w3.org/1999/xlink" x="0px" y="0px"
	 width="64px" height="64px" viewBox="0 0 64 64" style="enable-background:new 0 0 64 64;" xml:space="preserve">
<g id="Stick_4_">
	<g>
		<path style="fill:#CCCCCC;" d="M32,4c-1.104,0-2,0.896-2,2v16c0,1.104,0.896,2,2,2s2-0.896,2-2V6C34,4.896,33.104,4,32,4z"/>
	</g>
</g>
<g id="Ball_11_">
	<g>
		<circle style="fill:#808080;" cx="32" cy="4" r="4"/>
	</g>
</g>
<g id="Shape_88_">
	<g>
		<path style="fill:#666666;" d="M44,18H20c-2.209,0-4,1.791-4,4v8c0,2.209,1.791,4,4,4h24c2.209,0,4-1.791,4-4v-8
			C48,19.791,46.209,18,44,18z"/>
	</g>
</g>
<g id="Body_34_">
	<g>
		<path style="fill:#808080;" d="M60,22H4c-2.209,0-4,1.791-4,4v34c0,2.209,1.791,4,4,4h56c2.209,0,4-1.791,4-4V26
			C64,23.791,62.209,22,60,22z"/>
	</g>
</g>
<g id="BTNs_3_">
	<g>
		<path style="fill-rule:evenodd;clip-rule:evenodd;fill:#4D4D4D;" d="M28,54h-4c-1.104,0-2,0.895-2,2c0,1.104,0.896,2,2,2h4
			c1.104,0,2-0.896,2-2C30,54.895,29.104,54,28,54z M40,54h-4c-1.104,0-2,0.895-2,2c0,1.104,0.896,2,2,2h4c1.104,0,2-0.896,2-2
			C42,54.895,41.104,54,40,54z"/>
	</g>
</g>
<g id="Shape_89_">
	<g>
		<path style="fill-rule:evenodd;clip-rule:evenodd;fill:#4D4D4D;" d="M18,30c-5.523,0-10,4.477-10,10c0,5.522,4.477,10,10,10
			c5.522,0,10-4.478,10-10C28,34.477,23.522,30,18,30z M46,30c-5.523,0-10,4.477-10,10c0,5.522,4.477,10,10,10
			c5.522,0,10-4.478,10-10C56,34.477,51.522,30,46,30z"/>
	</g>
</g>
<g id="BTNs_4_">
	<g>
		<path style="fill-rule:evenodd;clip-rule:evenodd;fill:#B3B3B3;" d="M18,38c1.104,0,2-0.896,2-2c0-1.105-0.896-2-2-2s-2,0.895-2,2
			C16,37.104,16.896,38,18,38z M22,38c-1.104,0-2,0.896-2,2s0.896,2,2,2s2-0.896,2-2S23.104,38,22,38z M18,42c-1.104,0-2,0.896-2,2
			s0.896,2,2,2s2-0.896,2-2S19.104,42,18,42z M14,38c-1.104,0-2,0.896-2,2s0.896,2,2,2s2-0.896,2-2S15.104,38,14,38z M46,38
			c1.104,0,2-0.896,2-2c0-1.105-0.896-2-2-2c-1.105,0-2,0.895-2,2C44,37.104,44.895,38,46,38z M50,38c-1.104,0-2,0.896-2,2
			s0.896,2,2,2s2-0.896,2-2S51.104,38,50,38z M46,42c-1.105,0-2,0.896-2,2s0.895,2,2,2c1.104,0,2-0.896,2-2S47.104,42,46,42z M42,38
			c-1.104,0-2,0.896-2,2s0.896,2,2,2s2-0.896,2-2S43.104,38,42,38z"/>
	</g>
</g>
<g>
</g>
<g>
</g>
<g>
</g>
<g>
</g>
<g>
</g>
<g>
</g>
<g>
</g>
<g>
</g>
<g>
</g>
<g>
</g>
<g>
</g>
<g>
</g>
<g>
</g>
<g>
</g>
<g>
</g>
</svg>
