<?xml version="1.0" encoding="iso-8859-1"?>
<!-- Generator: Adobe Illustrator 16.0.0, SVG Export Plug-In . SVG Version: 6.00 Build 0)  -->
<!DOCTYPE svg PUBLIC "-//W3C//DTD SVG 1.1//EN" "http://www.w3.org/Graphics/SVG/1.1/DTD/svg11.dtd">
<svg version="1.1" id="Layer_1" xmlns="http://www.w3.org/2000/svg" xmlns:xlink="http://www.w3.org/1999/xlink" x="0px" y="0px"
	 width="64.029px" height="63.947px" viewBox="0 0 64.029 63.947" style="enable-background:new 0 0 64.029 63.947;"
	 xml:space="preserve">
<g id="Ring">
	<g>
		<path style="fill-rule:evenodd;clip-rule:evenodd;fill:#FFCC66;" d="M21.997,0C9.849,0,0,9.846,0,21.99
			c0,12.146,9.849,21.99,21.997,21.99c12.149,0,21.997-9.845,21.997-21.99C43.994,9.846,34.146,0,21.997,0z M21.997,39.982
			C12.058,39.982,4,31.927,4,21.99S12.058,3.998,21.997,3.998c9.94,0,17.998,8.056,17.998,17.992S31.938,39.982,21.997,39.982z"/>
	</g>
</g>
<g id="Ring_1_">
	<g>
		<path style="fill-rule:evenodd;clip-rule:evenodd;fill:#CCA352;" d="M56.681,31.338c-0.506-0.504-1.028-0.979-1.561-1.432
			c-0.174-0.148-0.354-0.282-0.53-0.425c-0.363-0.294-0.729-0.583-1.102-0.854c-0.218-0.158-0.439-0.304-0.66-0.453
			c-0.341-0.231-0.684-0.458-1.031-0.671c-0.24-0.146-0.483-0.286-0.728-0.424c-0.335-0.19-0.673-0.372-1.013-0.545
			c-0.255-0.129-0.51-0.255-0.768-0.375c-0.337-0.156-0.676-0.3-1.016-0.439c-0.262-0.107-0.521-0.216-0.784-0.313
			c-0.346-0.128-0.693-0.238-1.042-0.349c-0.258-0.082-0.514-0.171-0.771-0.242c-0.389-0.108-0.776-0.193-1.165-0.28
			c-0.218-0.048-0.435-0.109-0.652-0.15l0,0l0,0c-2.298-0.438-4.58-0.469-6.75-0.123c-0.154,0.024-0.311,0.04-0.464,0.068
			c-0.325,0.061-0.643,0.143-0.962,0.222c-0.236,0.059-0.473,0.114-0.705,0.183c-0.285,0.084-0.564,0.181-0.844,0.28
			c-0.261,0.092-0.52,0.189-0.775,0.295c-0.251,0.104-0.499,0.214-0.744,0.331c-0.278,0.133-0.551,0.277-0.821,0.427
			c-0.215,0.119-0.43,0.236-0.638,0.365c-0.306,0.189-0.6,0.397-0.892,0.609c-0.163,0.118-0.331,0.228-0.489,0.353
			c-0.445,0.351-0.876,0.725-1.285,1.132c-0.394,0.393-0.758,0.804-1.099,1.229c-0.003,0.003-0.004,0.006-0.007,0.009
			c-2.266,2.832-3.386,6.367-3.414,10.104c1.299-0.142,2.551-0.429,3.751-0.832c0.203-1.799,0.728-3.513,1.587-5.052h0.028
			c0.394-0.696,0.841-1.364,1.364-1.984c0.195-0.226,0.394-0.449,0.607-0.663c0.316-0.315,0.652-0.603,0.996-0.877
			c0.118-0.095,0.24-0.184,0.361-0.273c0.227-0.167,0.459-0.324,0.694-0.475c0.158-0.1,0.313-0.203,0.475-0.295
			c0.186-0.106,0.379-0.199,0.568-0.296c0.434-0.218,0.876-0.417,1.332-0.585c0.054-0.02,0.105-0.042,0.159-0.061
			c1.003-0.354,2.055-0.592,3.138-0.714c0.002-0.005,0.002-0.01,0.004-0.014c1.347-0.151,2.74-0.112,4.146,0.097
			c-0.003,0.012-0.005,0.024-0.009,0.037c2.936,0.434,5.916,1.611,8.604,3.546c0.086,0.063,0.169,0.134,0.255,0.197
			c0.355,0.265,0.709,0.534,1.054,0.826c0.44,0.374,0.872,0.767,1.29,1.184c7.007,6.982,8.04,17.275,2.307,22.988
			c-5.732,5.714-16.06,4.684-23.065-2.299c-0.111-0.11-0.189-0.236-0.297-0.349h-0.026c-3.071-3.199-4.886-7.036-5.449-10.806
			c-1.138,0.313-2.305,0.556-3.509,0.683c0.862,4.492,3.213,9.021,6.974,12.771c8.563,8.534,21.187,9.792,28.192,2.81
			C66.507,52.451,65.244,39.871,56.681,31.338z"/>
	</g>
</g>
<g>
</g>
<g>
</g>
<g>
</g>
<g>
</g>
<g>
</g>
<g>
</g>
<g>
</g>
<g>
</g>
<g>
</g>
<g>
</g>
<g>
</g>
<g>
</g>
<g>
</g>
<g>
</g>
<g>
</g>
</svg>
