<?xml version="1.0" encoding="iso-8859-1"?>
<!-- Generator: Adobe Illustrator 16.0.0, SVG Export Plug-In . SVG Version: 6.00 Build 0)  -->
<!DOCTYPE svg PUBLIC "-//W3C//DTD SVG 1.1//EN" "http://www.w3.org/Graphics/SVG/1.1/DTD/svg11.dtd">
<svg version="1.1" id="Layer_1" xmlns="http://www.w3.org/2000/svg" xmlns:xlink="http://www.w3.org/1999/xlink" x="0px" y="0px"
	 width="44px" height="64px" viewBox="0 0 44 64" style="enable-background:new 0 0 44 64;" xml:space="preserve">
<g id="Body_13_">
	<g>
		<path style="fill-rule:evenodd;clip-rule:evenodd;fill:#CCCCCC;" d="M36,52c0-6.375-4-8-4-8c-4.125-11.375,0-24,0-24H22H12
			c0,0,4.125,12.625,0,24c0,0-4,1.625-4,8c0,0-8,4.875-8,8s1.625,4,4,4h18h18c2.375,0,4-0.875,4-4S36,52,36,52z"/>
	</g>
</g>
<g id="Crown_3_">
	<g>
		<polygon style="fill-rule:evenodd;clip-rule:evenodd;fill:#9B7CAB;" points="42,0 40,0 36,0 32,0 30,8 26,8 26,0 22,0 18,0 18,8 
			14,8 12,0 8,0 4,0 2,0 2,8 5.6,8 8,20 22,20 36,20 38.4,8 42,8 		"/>
	</g>
</g>
<g id="Base_11_">
	<g>
		<path style="fill:#B3B3B3;" d="M40,56H4c-2.209,0-4,1.791-4,4s1.791,4,4,4h36c2.209,0,4-1.791,4-4S42.209,56,40,56z"/>
	</g>
</g>
<g>
</g>
<g>
</g>
<g>
</g>
<g>
</g>
<g>
</g>
<g>
</g>
<g>
</g>
<g>
</g>
<g>
</g>
<g>
</g>
<g>
</g>
<g>
</g>
<g>
</g>
<g>
</g>
<g>
</g>
</svg>
