<?xml version="1.0" encoding="iso-8859-1"?>
<!-- Generator: Adobe Illustrator 16.0.0, SVG Export Plug-In . SVG Version: 6.00 Build 0)  -->
<!DOCTYPE svg PUBLIC "-//W3C//DTD SVG 1.1//EN" "http://www.w3.org/Graphics/SVG/1.1/DTD/svg11.dtd">
<svg version="1.1" id="Layer_1" xmlns="http://www.w3.org/2000/svg" xmlns:xlink="http://www.w3.org/1999/xlink" x="0px" y="0px"
	 width="64px" height="64px" viewBox="0 0 64 64" style="enable-background:new 0 0 64 64;" xml:space="preserve">
<g id="Shape_8_">
	<g>
		<circle style="fill:#A67C52;" cx="32" cy="32" r="32"/>
	</g>
</g>
<g id="Shape_9_">
	<g>
		<circle style="fill:#53412F;" cx="32" cy="32" r="28"/>
	</g>
</g>
<g id="Ball_2_">
	<g>
		<circle style="fill:#FFFFFF;" cx="48" cy="50" r="2"/>
	</g>
</g>
<g id="Shape_10_">
	<g>
		<circle style="fill:#666666;" cx="32" cy="32" r="20"/>
	</g>
</g>
<g id="Stripes_3_">
	<g>
		<path style="fill-rule:evenodd;clip-rule:evenodd;fill:#ED7161;" d="M16.522,19.337L32,32L19.336,16.523
			C18.308,17.366,17.365,18.309,16.522,19.337z M22.187,14.584L32,32l-6.123-19.036C24.583,13.379,23.351,13.927,22.187,14.584z
			 M12.767,26.565L32,32l-17.802-9.086C13.606,24.071,13.126,25.292,12.767,26.565z M26.367,51.182L32,32l-9.37,17.665
			C23.81,50.292,25.062,50.799,26.367,51.182z M32,12c-0.672,0-1.335,0.036-1.99,0.101L32,32l1.99-19.899
			C33.335,12.036,32.672,12,32,12z M12,32c0,0.672,0.036,1.336,0.101,1.991L32,32l-19.899-1.99C12.036,30.665,12,31.328,12,32z
			 M14.415,41.535L32,32l-19.109,5.914C13.282,39.179,13.793,40.391,14.415,41.535z M19.337,47.478L32,32L16.523,44.663
			C17.366,45.692,18.309,46.635,19.337,47.478z M47.477,44.663L32,32l12.663,15.478C45.691,46.635,46.634,45.691,47.477,44.663z
			 M41.813,49.416L32,32l6.122,19.037C39.416,50.621,40.649,50.073,41.813,49.416z M37.632,12.818L32,32l9.37-17.665
			C40.19,13.708,38.938,13.201,37.632,12.818z M32,52c0.672,0,1.335-0.036,1.99-0.101L32,32l-1.99,19.899
			C30.665,51.964,31.328,52,32,52z M51.232,37.435L32,32l17.801,9.086C50.393,39.929,50.873,38.709,51.232,37.435z M46.15,17.866
			l-0.017-0.017c-0.467-0.467-0.959-0.907-1.47-1.326L32,32l15.477-12.663C47.058,18.826,46.617,18.334,46.15,17.866z
			 M49.585,22.465L32,32l19.109-5.914C50.718,24.821,50.207,23.608,49.585,22.465z M52,32c0-0.672-0.036-1.335-0.101-1.99L32,32
			l19.899,1.991C51.964,33.336,52,32.672,52,32z"/>
	</g>
</g>
<g id="Shape_11_">
	<g>
		<circle style="fill:#EDCBA8;" cx="32" cy="32" r="10"/>
	</g>
</g>
<g id="Spinner">
	<g>
		<path style="fill-rule:evenodd;clip-rule:evenodd;fill:#4D4D4D;" d="M36,30h-2v-2c0-1.104-0.896-2-2-2c-1.105,0-2,0.896-2,2v2h-2
			c-1.104,0-2,0.896-2,2s0.896,2.001,2,2.001h2V36c0,1.104,0.895,2.001,2,2.001c1.104,0,2-0.896,2-2.001v-1.999h2
			c1.104,0,2-0.896,2-2.001S37.104,30,36,30z"/>
	</g>
</g>
<g>
</g>
<g>
</g>
<g>
</g>
<g>
</g>
<g>
</g>
<g>
</g>
<g>
</g>
<g>
</g>
<g>
</g>
<g>
</g>
<g>
</g>
<g>
</g>
<g>
</g>
<g>
</g>
<g>
</g>
</svg>
