<?xml version="1.0" encoding="iso-8859-1"?>
<!-- Generator: Adobe Illustrator 16.0.0, SVG Export Plug-In . SVG Version: 6.00 Build 0)  -->
<!DOCTYPE svg PUBLIC "-//W3C//DTD SVG 1.1//EN" "http://www.w3.org/Graphics/SVG/1.1/DTD/svg11.dtd">
<svg version="1.1" id="Layer_1" xmlns="http://www.w3.org/2000/svg" xmlns:xlink="http://www.w3.org/1999/xlink" x="0px" y="0px"
	 width="76px" height="40px" viewBox="0 0 76 40" style="enable-background:new 0 0 76 40;" xml:space="preserve">
<g id="Body_23_">
	<g>
		<path style="fill:#FFCC66;" d="M66,0H10C7.79,0,6,1.791,6,4v28c0,2.209,1.79,4,4,4h56c2.209,0,4-1.791,4-4V4
			C70,1.791,68.209,0,66,0z"/>
	</g>
</g>
<g id="Label_2_">
	<g>
		<path style="fill:#D8AC54;" d="M52,5.981H24c-1.104,0-2,0.896-2,2v20c0,1.105,0.896,2,2,2h28c1.104,0,2-0.895,2-2v-20
			C54,6.877,53.104,5.981,52,5.981z"/>
	</g>
</g>
<g id="Tray">
	<g>
		<rect x="12" y="36" style="fill:#E6B85C;" width="52" height="4"/>
	</g>
</g>
<g id="Shape_66_">
	<g>
		<path style="fill-rule:evenodd;clip-rule:evenodd;fill:#E6B85C;" d="M12,14H6v4h6c1.104,0,2-0.896,2-2S13.104,14,12,14z M12,20H6
			v4h6c1.104,0,2-0.896,2-2S13.104,20,12,20z M64,8c-1.104,0-2,0.896-2,2s0.896,2,2,2h6V8H64z M62,16c0,1.104,0.896,2,2,2h6v-4h-6
			C62.896,14,62,14.896,62,16z M62,22c0,1.104,0.896,2,2,2h6v-4h-6C62.896,20,62,20.896,62,22z M12,8H6v4h6c1.104,0,2-0.896,2-2
			S13.104,8,12,8z"/>
	</g>
</g>
<g>
</g>
<g>
</g>
<g>
</g>
<g>
</g>
<g>
</g>
<g>
</g>
<g>
</g>
<g>
</g>
<g>
</g>
<g>
</g>
<g>
</g>
<g>
</g>
<g>
</g>
<g>
</g>
<g>
</g>
</svg>
