<?xml version="1.0" encoding="iso-8859-1"?>
<!-- Generator: Adobe Illustrator 16.0.0, SVG Export Plug-In . SVG Version: 6.00 Build 0)  -->
<!DOCTYPE svg PUBLIC "-//W3C//DTD SVG 1.1//EN" "http://www.w3.org/Graphics/SVG/1.1/DTD/svg11.dtd">
<svg version="1.1" id="Layer_1" xmlns="http://www.w3.org/2000/svg" xmlns:xlink="http://www.w3.org/1999/xlink" x="0px" y="0px"
	 width="60.041px" height="64.001px" viewBox="0 0 60.041 64.001" style="enable-background:new 0 0 60.041 64.001;"
	 xml:space="preserve">
<g id="Handle_Bar">
	<g>
		<path style="fill-rule:evenodd;clip-rule:evenodd;fill:#CCCCCC;" d="M54.041,28.001c-1.104,0-2,0.896-2,2v18.001h-12
			c-1.104,0-2,0.895-2,1.999s0.896,2,2,2h14c1.104,0,2-0.896,2-2v-20C56.041,28.896,55.146,28.001,54.041,28.001z"/>
	</g>
</g>
<g id="Handle_Ball">
	<g>
		<circle style="fill:#808080;" cx="54.041" cy="28.001" r="6"/>
	</g>
</g>
<g id="Body_4_">
	<g>
		<path style="fill-rule:evenodd;clip-rule:evenodd;fill:#FFCC66;" d="M17.479,10.074l-0.707,4.866
			c-0.041,0.339,0.096,0.676,0.357,0.878C17.284,15.938,17.47,16,17.655,16c0.127,0,0.255-0.029,0.374-0.087l4.032-2.283
			l4.031,2.283C26.212,15.971,26.34,16,26.467,16c0.187,0,0.371-0.062,0.526-0.182c0.262-0.202,0.398-0.539,0.358-0.878
			l-0.707-4.866l3.191-3.092c0.225-0.25,0.303-0.609,0.202-0.938c-0.1-0.328-0.361-0.571-0.682-0.636l-4.431-0.668l-2.087-4.259
			C22.682,0.186,22.384,0,22.062,0s-0.62,0.186-0.778,0.482l-2.087,4.259l-4.43,0.668c-0.32,0.064-0.582,0.308-0.682,0.636
			c-0.101,0.328-0.023,0.688,0.201,0.938L17.479,10.074z M40.256,20.288l3.257-0.522c0.243-0.057,0.442-0.245,0.521-0.491
			c0.078-0.245,0.022-0.509-0.146-0.688l-2.413-2.333l0.539-3.533c0.03-0.25-0.072-0.494-0.269-0.634
			c-0.197-0.14-0.457-0.154-0.679-0.04l-3.08,1.722l-2.98-1.509c-0.223-0.1-0.485-0.063-0.686,0.096
			c-0.2,0.16-0.306,0.415-0.274,0.666l0.629,3.291l-2.164,2.336c-3.113-1.688-6.68-2.647-10.471-2.647
			c-3.824,0-7.419,0.978-10.552,2.693l-2.066-2.279l0.669-3.266c0.034-0.249-0.068-0.505-0.267-0.666s-0.461-0.202-0.684-0.105
			l-2.998,1.458l-3.059-1.758c-0.221-0.117-0.48-0.106-0.679,0.03c-0.198,0.136-0.304,0.377-0.276,0.627l0.496,3.522l-2.44,2.287
			c-0.17,0.175-0.229,0.437-0.153,0.682c0.075,0.246,0.272,0.436,0.515,0.496l3.25,0.567l1.596,3.314
			c0.002,0.005,0.008,0.007,0.011,0.012C2.065,27.475,0.041,32.5,0.041,38.002v21.999c0,2.209,1.791,4,4,4h36c2.209,0,4-1.791,4-4
			V38.002c0-5.526-2.042-10.572-5.407-14.437L40.256,20.288z"/>
	</g>
</g>
<g id="Display">
	<g>
		<rect x="8.041" y="32.001" style="fill:#FFFFFF;" width="28" height="12.001"/>
	</g>
</g>
<g id="Slot">
	<g>
		<rect x="12.041" y="54.001" style="fill:#C09B51;" width="20" height="4"/>
	</g>
</g>
<g>
</g>
<g>
</g>
<g>
</g>
<g>
</g>
<g>
</g>
<g>
</g>
<g>
</g>
<g>
</g>
<g>
</g>
<g>
</g>
<g>
</g>
<g>
</g>
<g>
</g>
<g>
</g>
<g>
</g>
</svg>
