<?xml version="1.0" encoding="iso-8859-1"?>
<!-- Generator: Adobe Illustrator 16.0.0, SVG Export Plug-In . SVG Version: 6.00 Build 0)  -->
<!DOCTYPE svg PUBLIC "-//W3C//DTD SVG 1.1//EN" "http://www.w3.org/Graphics/SVG/1.1/DTD/svg11.dtd">
<svg version="1.1" id="Layer_1" xmlns="http://www.w3.org/2000/svg" xmlns:xlink="http://www.w3.org/1999/xlink" x="0px" y="0px"
	 width="64.001px" height="56px" viewBox="0 0 64.001 56" style="enable-background:new 0 0 64.001 56;" xml:space="preserve">
<g id="Space_Invader">
	<g>
		<path style="fill:#E6B85C;" d="M12.001,0v8h8V0H12.001z M52.001,0h-8v8h8V0z M60,40v-8v-8h-7.999v-8h-8V8h-8v8H36h-7.999V8h-8v8
			h-8v8H4v8v8H0v8h8.001v-8h4v8v8h8h8v-8h-8v-8h8H36h8.001v8H36v8h8.001h8v-8v-8h4v8h8v-8H60z M28.001,32h-8v-8h8V32z M44.001,32H36
			v-8h8.001V32z"/>
	</g>
</g>
<g>
</g>
<g>
</g>
<g>
</g>
<g>
</g>
<g>
</g>
<g>
</g>
<g>
</g>
<g>
</g>
<g>
</g>
<g>
</g>
<g>
</g>
<g>
</g>
<g>
</g>
<g>
</g>
<g>
</g>
</svg>
