<?xml version="1.0" encoding="iso-8859-1"?>
<!-- Generator: Adobe Illustrator 16.0.0, SVG Export Plug-In . SVG Version: 6.00 Build 0)  -->
<!DOCTYPE svg PUBLIC "-//W3C//DTD SVG 1.1//EN" "http://www.w3.org/Graphics/SVG/1.1/DTD/svg11.dtd">
<svg version="1.1" id="Layer_1" xmlns="http://www.w3.org/2000/svg" xmlns:xlink="http://www.w3.org/1999/xlink" x="0px" y="0px"
	 width="56px" height="64px" viewBox="0 0 56 64" style="enable-background:new 0 0 56 64;" xml:space="preserve">
<g id="Bricks">
	<g>
		<path style="fill-rule:evenodd;clip-rule:evenodd;fill:#FFCC66;" d="M12,0H4C1.791,0,0,1.791,0,4v8c0,2.209,1.791,4,4,4h8
			c2.209,0,4-1.791,4-4V4C16,1.791,14.209,0,12,0z M32,0h-8c-2.209,0-4,1.791-4,4v8c0,2.209,1.791,4,4,4h8c2.209,0,4-1.791,4-4V4
			C36,1.791,34.209,0,32,0z M12,20H4c-2.209,0-4,1.791-4,4v8c0,2.209,1.791,4,4,4h8c2.209,0,4-1.791,4-4v-8
			C16,21.791,14.209,20,12,20z M52,20h-8c-2.209,0-4,1.791-4,4v8c0,2.209,1.791,4,4,4h8c2.209,0,4-1.791,4-4v-8
			C56,21.791,54.209,20,52,20z M52,0h-8c-2.209,0-4,1.791-4,4v8c0,2.209,1.791,4,4,4h8c2.209,0,4-1.791,4-4V4
			C56,1.791,54.209,0,52,0z"/>
	</g>
</g>
<g id="Body_15_">
	<g>
		<path style="fill-rule:evenodd;clip-rule:evenodd;fill:#4D4D4D;" d="M42,52h-8c0-2.209-1.791-4-4-4h-4c-2.209,0-4,1.791-4,4h-8
			c-2.209,0-4,1.791-4,3.999V60c0,2.209,1.791,4,4,4h28c2.209,0,4-1.791,4-4v-4.001C46,53.791,44.209,52,42,52z"/>
	</g>
</g>
<g id="Dots_8_">
	<g>
		<path style="fill-rule:evenodd;clip-rule:evenodd;fill:#CCCCCC;" d="M28,36c-2.209,0-4,1.791-4,4s1.791,4,4,4s4-1.791,4-4
			S30.209,36,28,36z M28,32c2.209,0,4-1.791,4-4c0-2.21-1.791-4-4-4s-4,1.79-4,4C24,30.209,25.791,32,28,32z"/>
	</g>
</g>
<g>
</g>
<g>
</g>
<g>
</g>
<g>
</g>
<g>
</g>
<g>
</g>
<g>
</g>
<g>
</g>
<g>
</g>
<g>
</g>
<g>
</g>
<g>
</g>
<g>
</g>
<g>
</g>
<g>
</g>
</svg>
