<?xml version="1.0" encoding="iso-8859-1"?>
<!-- Generator: Adobe Illustrator 16.0.0, SVG Export Plug-In . SVG Version: 6.00 Build 0)  -->
<!DOCTYPE svg PUBLIC "-//W3C//DTD SVG 1.1//EN" "http://www.w3.org/Graphics/SVG/1.1/DTD/svg11.dtd">
<svg version="1.1" id="Layer_1" xmlns="http://www.w3.org/2000/svg" xmlns:xlink="http://www.w3.org/1999/xlink" x="0px" y="0px"
	 width="64px" height="64.018px" viewBox="0 0 64 64.018" style="enable-background:new 0 0 64 64.018;" xml:space="preserve">
<g id="Spades">
	<g>
		<path style="fill-rule:evenodd;clip-rule:evenodd;fill:#4D4D4D;" d="M60.583,32.805l0.017-0.009c0,0-24.209-29.911-25.771-31.56
			c-1.562-1.647-4.095-1.647-5.656,0C27.665,2.826,5.47,30.326,3.896,32.277C1.487,34.796,0,38.205,0,41.968
			C0,49.712,6.268,55.99,14,55.99c5.585,0,10.392-3.284,12.639-8.021c0.59,5.769-0.131,14.809-10.608,16.049h31.981
			c0,0-12-1.209-10.633-16.013c2.254,4.718,7.05,7.985,12.621,7.985c7.731,0,14-6.278,14-14.022
			C64,38.462,62.707,35.264,60.583,32.805z"/>
	</g>
</g>
<g>
</g>
<g>
</g>
<g>
</g>
<g>
</g>
<g>
</g>
<g>
</g>
<g>
</g>
<g>
</g>
<g>
</g>
<g>
</g>
<g>
</g>
<g>
</g>
<g>
</g>
<g>
</g>
<g>
</g>
</svg>
