<?xml version="1.0" encoding="iso-8859-1"?>
<!-- Generator: Adobe Illustrator 16.0.0, SVG Export Plug-In . SVG Version: 6.00 Build 0)  -->
<!DOCTYPE svg PUBLIC "-//W3C//DTD SVG 1.1//EN" "http://www.w3.org/Graphics/SVG/1.1/DTD/svg11.dtd">
<svg version="1.1" id="Layer_1" xmlns="http://www.w3.org/2000/svg" xmlns:xlink="http://www.w3.org/1999/xlink" x="0px" y="0px"
	 width="65.998px" height="65.968px" viewBox="0 0 65.998 65.968" style="enable-background:new 0 0 65.998 65.968;"
	 xml:space="preserve">
<g id="Stick_3_">
	<g>
		<path style="fill:#A67C52;" d="M50.829,15.114c-1.576-1.577-4.131-1.577-5.706,0L1.182,61.076c-1.575,1.577-1.575,2.133,0,3.709
			c1.576,1.576,2.132,1.576,3.707,0l45.94-43.962C52.404,19.247,52.404,16.69,50.829,15.114z"/>
	</g>
</g>
<g id="Leaf_1_">
	<g>
		<polygon style="fill:#88C057;" points="44.028,15.981 36.032,19.981 46.027,29.981 50.025,21.981 		"/>
	</g>
</g>
<g id="Head_8_">
	<g>
		<path style="fill:#B3B3B3;" d="M60.021,1.981l-11.994,4c-2.146,1.063-3.998,7.791-3.998,10l5.997,6c2.208,0,9.058-1.604,9.995-4
			l3.998-12C64.019,3.772,62.229,1.981,60.021,1.981z"/>
	</g>
</g>
<g id="Head_9_">
	<g>
		<path style="fill-rule:evenodd;clip-rule:evenodd;fill:#CCCCCC;" d="M48.489,20.445L63.894,5.034
			c-0.353-1.445-1.483-2.576-2.928-2.928L45.563,17.517L48.489,20.445z"/>
	</g>
</g>
<g>
</g>
<g>
</g>
<g>
</g>
<g>
</g>
<g>
</g>
<g>
</g>
<g>
</g>
<g>
</g>
<g>
</g>
<g>
</g>
<g>
</g>
<g>
</g>
<g>
</g>
<g>
</g>
<g>
</g>
</svg>
