<?xml version="1.0" encoding="iso-8859-1"?>
<!-- Generator: Adobe Illustrator 16.0.0, SVG Export Plug-In . SVG Version: 6.00 Build 0)  -->
<!DOCTYPE svg PUBLIC "-//W3C//DTD SVG 1.1//EN" "http://www.w3.org/Graphics/SVG/1.1/DTD/svg11.dtd">
<svg version="1.1" id="Layer_1" xmlns="http://www.w3.org/2000/svg" xmlns:xlink="http://www.w3.org/1999/xlink" x="0px" y="0px"
	 width="64px" height="63.998px" viewBox="0 0 64 63.998" style="enable-background:new 0 0 64 63.998;" xml:space="preserve">
<g id="Shape_83_">
	<g>
		<polygon style="fill-rule:evenodd;clip-rule:evenodd;fill:#B3B3B3;" points="6,27.999 6,35.999 28,35.999 28,57.998 36,57.998 
			36,35.999 58,35.999 58,27.999 		"/>
	</g>
</g>
<g id="Shape_84_">
	<g>
		<path style="fill-rule:evenodd;clip-rule:evenodd;fill:#FFFFFF;" d="M16,29.999c-1.105,0-2,0.896-2,2s0.896,2,2,2
			c1.104,0,2-0.896,2-2S17.105,29.999,16,29.999z M48,29.999c-1.104,0-2,0.896-2,2s0.896,2,2,2c1.105,0,2-0.896,2-2
			S49.105,29.999,48,29.999z"/>
	</g>
</g>
<g id="Shape_85_">
	<g>
		<circle style="fill:#999999;" cx="32" cy="31.999" r="10"/>
	</g>
</g>
<g id="Shape_86_">
	<g>
		<circle style="fill:#FFFFFF;" cx="32" cy="31.999" r="4"/>
	</g>
</g>
<g id="Wheel_1_">
	<g>
		<path style="fill-rule:evenodd;clip-rule:evenodd;fill:#666666;" d="M32,0C14.327,0,0,14.326,0,31.999s14.327,31.999,32,31.999
			c17.673,0,32-14.326,32-31.999S49.673,0,32,0z M32,55.999c-13.255,0-24-10.745-24-24s10.745-24,24-24s24,10.745,24,24
			S45.255,55.999,32,55.999z"/>
	</g>
</g>
<g>
</g>
<g>
</g>
<g>
</g>
<g>
</g>
<g>
</g>
<g>
</g>
<g>
</g>
<g>
</g>
<g>
</g>
<g>
</g>
<g>
</g>
<g>
</g>
<g>
</g>
<g>
</g>
<g>
</g>
</svg>
