<?xml version="1.0" encoding="iso-8859-1"?>
<!-- Generator: Adobe Illustrator 16.0.0, SVG Export Plug-In . SVG Version: 6.00 Build 0)  -->
<!DOCTYPE svg PUBLIC "-//W3C//DTD SVG 1.1//EN" "http://www.w3.org/Graphics/SVG/1.1/DTD/svg11.dtd">
<svg version="1.1" id="Layer_1" xmlns="http://www.w3.org/2000/svg" xmlns:xlink="http://www.w3.org/1999/xlink" x="0px" y="0px"
	 width="64.04px" height="64.019px" viewBox="0 0 64.04 64.019" style="enable-background:new 0 0 64.04 64.019;"
	 xml:space="preserve">
<g id="Legs">
	<g>
		<path style="fill-rule:evenodd;clip-rule:evenodd;fill:#CCCCCC;" d="M8.084,0.009c-0.002,0-0.004-0.001-0.006-0.001
			C8.06,0.006,8.042,0.01,8.023,0.009C8.005,0.01,7.987,0.006,7.969,0.008c-0.002,0-0.004,0.001-0.006,0.001
			C6.824-0.029,5.838,0.758,5.736,1.826L0.009,61.828c-0.104,1.104,0.772,2.082,1.96,2.182c1.188,0.101,2.236-0.713,2.342-1.818
			l3.713-38.895l3.712,38.895c0.105,1.105,1.154,1.919,2.342,1.818c1.188-0.1,2.065-1.077,1.96-2.182L10.311,1.826
			C10.209,0.758,9.223-0.029,8.084,0.009z M58.304,1.826c-0.102-1.068-1.087-1.855-2.227-1.817c-0.002,0-0.004-0.001-0.006-0.001
			c-0.019-0.002-0.036,0.002-0.055,0.001c-0.019,0.001-0.036-0.003-0.055-0.001c-0.002,0-0.004,0.001-0.006,0.001
			c-1.139-0.038-2.125,0.749-2.227,1.817l-5.727,60.002c-0.105,1.104,0.772,2.082,1.96,2.182c1.188,0.101,2.236-0.713,2.342-1.818
			l3.712-38.893l3.712,38.893c0.105,1.105,1.154,1.919,2.342,1.818c1.188-0.1,2.066-1.077,1.961-2.182L58.304,1.826z"/>
	</g>
</g>
<g id="Arms">
	<g>
		<path style="fill-rule:evenodd;clip-rule:evenodd;fill:#CCCCCC;" d="M22.021,2.021c-1.104,0-2,0.896-2,1.999v35.984
			c0,1.104,0.896,2,2,2s2-0.896,2-2V4.021C24.021,2.917,23.126,2.021,22.021,2.021z M42.019,2.021c-1.104,0-1.999,0.896-1.999,1.999
			v35.984c0,1.104,0.895,2,1.999,2s2-0.896,2-2V4.021C44.019,2.917,43.123,2.021,42.019,2.021z"/>
	</g>
</g>
<g id="Axis">
	<g>
		<path style="fill:#808080;" d="M56.017,0.023H8.023c-1.104,0-2,0.895-2,1.998c0,1.105,0.896,1.999,2,1.999h47.993
			c1.104,0,2-0.894,2-1.999C58.017,0.918,57.121,0.023,56.017,0.023z"/>
	</g>
</g>
<g id="Chair">
	<g>
		<path style="fill-rule:evenodd;clip-rule:evenodd;fill:#A67C52;" d="M44.019,32.009c0-1.104-0.896-1.999-2-1.999
			c-0.828,0-1.538,0.503-1.842,1.221c-0.054-0.051-0.103-0.107-0.157-0.156v0.935v1.999c0,3.313-3.582,5.997-7.999,5.997
			c-4.418,0-7.999-2.685-7.999-5.997v-1.999v-0.936c-0.055,0.05-0.104,0.105-0.158,0.156c-0.304-0.717-1.014-1.22-1.842-1.22
			c-1.104,0-2,0.895-2,1.999v5.997c0,0.197,0.037,0.385,0.091,0.565c-0.056,0.471-0.091,0.947-0.091,1.434
			C20.021,46.63,25.394,52,32.021,52c6.626,0,11.998-5.37,11.998-11.995c0-0.486-0.034-0.963-0.091-1.434
			c0.054-0.181,0.091-0.368,0.091-0.565V32.009z"/>
	</g>
</g>
<g>
</g>
<g>
</g>
<g>
</g>
<g>
</g>
<g>
</g>
<g>
</g>
<g>
</g>
<g>
</g>
<g>
</g>
<g>
</g>
<g>
</g>
<g>
</g>
<g>
</g>
<g>
</g>
<g>
</g>
</svg>
