<?xml version="1.0" encoding="iso-8859-1"?>
<!-- Generator: Adobe Illustrator 16.0.0, SVG Export Plug-In . SVG Version: 6.00 Build 0)  -->
<!DOCTYPE svg PUBLIC "-//W3C//DTD SVG 1.1//EN" "http://www.w3.org/Graphics/SVG/1.1/DTD/svg11.dtd">
<svg version="1.1" id="Layer_1" xmlns="http://www.w3.org/2000/svg" xmlns:xlink="http://www.w3.org/1999/xlink" x="0px" y="0px"
	 width="64.027px" height="63.999px" viewBox="0 0 64.027 63.999" style="enable-background:new 0 0 64.027 63.999;"
	 xml:space="preserve">
<g id="Blade">
	<g>
		<polygon style="fill:#CCCCCC;" points="44.798,5.386 20.03,35.707 24.184,39.863 28.338,44.02 60.644,19.239 64.027,0 		"/>
	</g>
</g>
<g id="Handle_1_">
	<g>
		<path style="fill:#A67C52;" d="M26.788,40.123l-2.928-2.93c-1.617-1.617-4.239-1.617-5.855,0L5.224,49.98
			c-1.617,1.618-1.617,4.241,0,5.858l2.928,2.93c1.617,1.617,4.238,1.617,5.855,0L26.788,45.98
			C28.404,44.363,28.404,41.74,26.788,40.123z"/>
	</g>
</g>
<g id="Shape_48_">
	<g>
		<polygon style="fill:#B3B3B3;" points="46.023,14.014 24.034,38.014 26.033,40.014 50.021,18.014 64.015,0.014 		"/>
	</g>
</g>
<g id="Shape_49_">
	<g>
		<path style="fill:#FFCC66;" d="M32.888,43.428L20.562,31.095c-1.503-1.503-3.939-1.503-5.441,0c-1.503,1.504-1.503,3.941,0,5.444
			l12.326,12.333c1.503,1.503,3.939,1.503,5.441,0C34.391,47.368,34.391,44.931,32.888,43.428z"/>
	</g>
</g>
<g id="Shape_50_">
	<g>
		<path style="fill:#CCCCCC;" d="M14.896,57.428l-8.328-8.333c-1.503-1.503-3.938-1.503-5.441,0c-1.503,1.504-1.503,3.94,0,5.444
			l8.328,8.333c1.503,1.503,3.938,1.503,5.441,0C16.399,61.368,16.399,58.931,14.896,57.428z"/>
	</g>
</g>
<g>
</g>
<g>
</g>
<g>
</g>
<g>
</g>
<g>
</g>
<g>
</g>
<g>
</g>
<g>
</g>
<g>
</g>
<g>
</g>
<g>
</g>
<g>
</g>
<g>
</g>
<g>
</g>
<g>
</g>
</svg>
