<?xml version="1.0" encoding="iso-8859-1"?>
<!-- Generator: Adobe Illustrator 16.0.0, SVG Export Plug-In . SVG Version: 6.00 Build 0)  -->
<!DOCTYPE svg PUBLIC "-//W3C//DTD SVG 1.1//EN" "http://www.w3.org/Graphics/SVG/1.1/DTD/svg11.dtd">
<svg version="1.1" id="Layer_1" xmlns="http://www.w3.org/2000/svg" xmlns:xlink="http://www.w3.org/1999/xlink" x="0px" y="0px"
	 width="63.991px" height="63.972px" viewBox="0 0 63.991 63.972" style="enable-background:new 0 0 63.991 63.972;"
	 xml:space="preserve">
<g id="Body">
	<g>
		<path style="fill-rule:evenodd;clip-rule:evenodd;fill:#FFCC66;" d="M45.031,28.787c-3.148,0-0.48,3.998-5.123,3.998
			c-4.432,0-3.044-1.933-7.082-3.043c2.664-1.131,4.52-3.637,4.52-6.553c0-0.561-0.075-1.104-0.205-1.627
			c0.759-0.111,1.913-0.575,1.913-2.371c0-2.674-1.708-2.398-1.708-2.398s-0.854-0.025-0.854,0.799c0,0.511-0.653,0.695-1.152,0.762
			c-1.405-1.446-3.426-2.36-5.68-2.36c-4.244,0-7.685,3.222-7.685,7.196c0,1.839,0.743,3.511,1.954,4.783
			c0.042,1.018-0.137,2.312-1.101,3.214c-1.814,1.699-5.123,4.448-5.123,7.996c0,3.549,2.962,8.796,14.517,8.796
			s15.37-10.395,15.37-10.395S49.515,28.787,45.031,28.787z"/>
	</g>
</g>
<g id="Eye">
	<g>
		<circle style="fill:#4D4D4D;" cx="29.996" cy="21.99" r="1.999"/>
	</g>
</g>
<g id="Mouth">
	<g>
		<path style="fill:#ED7161;" d="M24.307,21.701c0,0-2.347,0.157-3.692-0.787c-1.301-0.913-2.77-0.788-2.77-0.788
			s-1.847,0.156-1.847,1.575s1.831,1.568,2.77,3.149c0.938,1.581-1.624,0.496-1.847,1.574s1.937,1.552,3.693,1.575
			c1.756,0.022,2.432-1.014,3.692-0.787C25.567,27.438,27.313,22.285,24.307,21.701z"/>
	</g>
</g>
<g id="Target">
	<g>
		<path style="fill-rule:evenodd;clip-rule:evenodd;fill:#48A0DC;" d="M31.996,0C14.325,0,0,14.32,0,31.986
			c0,17.665,14.325,31.985,31.996,31.985s31.995-14.32,31.995-31.985C63.991,14.32,49.667,0,31.996,0z M33.995,59.895v-3.919h-3.999
			v3.919C16.13,58.915,5.057,47.847,4.078,33.984h3.921v-3.998H4.078C5.058,16.124,16.13,5.057,29.996,4.077v3.919h3.999V4.077
			c13.866,0.979,24.938,12.047,25.918,25.909h-3.921v3.998h3.921C58.934,47.847,47.861,58.916,33.995,59.895z"/>
	</g>
</g>
<g>
</g>
<g>
</g>
<g>
</g>
<g>
</g>
<g>
</g>
<g>
</g>
<g>
</g>
<g>
</g>
<g>
</g>
<g>
</g>
<g>
</g>
<g>
</g>
<g>
</g>
<g>
</g>
<g>
</g>
</svg>
