<?xml version="1.0" encoding="iso-8859-1"?>
<!-- Generator: Adobe Illustrator 16.0.0, SVG Export Plug-In . SVG Version: 6.00 Build 0)  -->
<!DOCTYPE svg PUBLIC "-//W3C//DTD SVG 1.1//EN" "http://www.w3.org/Graphics/SVG/1.1/DTD/svg11.dtd">
<svg version="1.1" id="Layer_1" xmlns="http://www.w3.org/2000/svg" xmlns:xlink="http://www.w3.org/1999/xlink" x="0px" y="0px"
	 width="64px" height="64px" viewBox="0 0 64 64" style="enable-background:new 0 0 64 64;" xml:space="preserve">
<g id="Shape_56_">
	<g>
		<polygon style="fill-rule:evenodd;clip-rule:evenodd;fill:#E67A2E;" points="32.002,48 16.001,48 16.001,32 0.001,32 0.001,48 
			0.001,64 16.001,64 32.002,64 48.001,64 48.001,48 		"/>
	</g>
</g>
<g id="Shape_57_">
	<g>
		<polygon style="fill-rule:evenodd;clip-rule:evenodd;fill:#FF8833;" points="32.002,52 16.001,52 12.001,52 12.001,36 4.001,36 
			4.001,52 4.001,60 12.001,60 16.001,60 32.002,60 44.001,60 44.001,52 		"/>
	</g>
</g>
<g id="Shape_58_">
	<g>
		<polygon style="fill-rule:evenodd;clip-rule:evenodd;fill:#408EC2;" points="48,16 48,32 32,32 32,48 48,48 48,64 64,64 64,48 
			64,32 64,16 		"/>
	</g>
</g>
<g id="Shape_59_">
	<g>
		<polygon style="fill-rule:evenodd;clip-rule:evenodd;fill:#48A0DC;" points="52,20 52,32 52,36 36,36 36,44 52,44 52,48 52,60 
			60,60 60,48 60,44 60,36 60,32 60,20 		"/>
	</g>
</g>
<g id="Shape_60_">
	<g>
		<polygon style="fill-rule:evenodd;clip-rule:evenodd;fill:#75A64B;" points="16,16 16,0 0,0 0,32 16,32 16,48 32.001,48 
			32.001,16 		"/>
	</g>
</g>
<g id="Shape_61_">
	<g>
		<polygon style="fill-rule:evenodd;clip-rule:evenodd;fill:#88C057;" points="20,20 12,20 12,4 4.001,4 4.001,28 10,28 12,28 
			20,28 20,44 28.001,44 28.001,20 		"/>
	</g>
</g>
<g>
</g>
<g>
</g>
<g>
</g>
<g>
</g>
<g>
</g>
<g>
</g>
<g>
</g>
<g>
</g>
<g>
</g>
<g>
</g>
<g>
</g>
<g>
</g>
<g>
</g>
<g>
</g>
<g>
</g>
</svg>
