<?xml version="1.0" encoding="iso-8859-1"?>
<!-- Generator: Adobe Illustrator 16.0.0, SVG Export Plug-In . SVG Version: 6.00 Build 0)  -->
<!DOCTYPE svg PUBLIC "-//W3C//DTD SVG 1.1//EN" "http://www.w3.org/Graphics/SVG/1.1/DTD/svg11.dtd">
<svg version="1.1" id="Layer_1" xmlns="http://www.w3.org/2000/svg" xmlns:xlink="http://www.w3.org/1999/xlink" x="0px" y="0px"
	 width="60px" height="59.966px" viewBox="0 0 60 59.966" style="enable-background:new 0 0 60 59.966;" xml:space="preserve">
<g id="O">
	<g>
		<path style="fill-rule:evenodd;clip-rule:evenodd;fill:#FF8833;" d="M14,0.046c-7.732,0-14,6.262-14,13.985
			s6.268,13.985,14,13.985c7.731,0,14-6.262,14-13.985S21.731,0.046,14,0.046z M14,20.025c-3.313,0-6-2.684-6-5.993
			c0-3.311,2.687-5.994,6-5.994s6,2.684,6,5.994C20,17.341,17.313,20.025,14,20.025z M46,32.012c-7.732,0-14,6.248-14,13.955
			c0,7.706,6.268,13.954,14,13.954c7.731,0,14-6.248,14-13.954C60,38.26,53.731,32.012,46,32.012z M46,51.947
			c-3.313,0-6-2.677-6-5.979c0-3.304,2.687-5.98,6-5.98s6,2.677,6,5.98C52,49.27,49.313,51.947,46,51.947z"/>
	</g>
</g>
<g id="X">
	<g>
		<path style="fill-rule:evenodd;clip-rule:evenodd;fill:#9B7CAB;" d="M58.858,21.438l-7.42-7.413l7.42-7.413
			c1.5-1.498,1.5-3.928,0-5.426c-1.5-1.499-3.932-1.499-5.432,0l-7.42,7.412l-7.481-7.473c-1.503-1.502-3.94-1.502-5.444,0
			c-1.503,1.502-1.503,3.937,0,5.438l7.48,7.473l-7.423,7.415c-1.5,1.498-1.5,3.928,0,5.426c1.5,1.499,3.933,1.499,5.433,0
			l7.422-7.415l7.42,7.413c1.503,1.502,3.94,1.502,5.444,0C60.361,25.375,60.361,22.94,58.858,21.438z M19.438,45.961l7.423-7.399
			c1.5-1.494,1.5-3.919,0-5.414s-3.932-1.495-5.432,0l-7.423,7.398l-7.42-7.396c-1.504-1.499-3.941-1.499-5.444,0
			c-1.503,1.498-1.503,3.928,0,5.426l7.42,7.396l-7.42,7.396c-1.5,1.496-1.5,3.92,0,5.415s3.932,1.495,5.432,0l7.421-7.396
			l7.48,7.456c1.503,1.498,3.94,1.498,5.443,0c1.504-1.498,1.504-3.928,0-5.426L19.438,45.961z"/>
	</g>
</g>
<g>
</g>
<g>
</g>
<g>
</g>
<g>
</g>
<g>
</g>
<g>
</g>
<g>
</g>
<g>
</g>
<g>
</g>
<g>
</g>
<g>
</g>
<g>
</g>
<g>
</g>
<g>
</g>
<g>
</g>
</svg>
