<?xml version="1.0" encoding="iso-8859-1"?>
<!-- Generator: Adobe Illustrator 16.0.0, SVG Export Plug-In . SVG Version: 6.00 Build 0)  -->
<!DOCTYPE svg PUBLIC "-//W3C//DTD SVG 1.1//EN" "http://www.w3.org/Graphics/SVG/1.1/DTD/svg11.dtd">
<svg version="1.1" id="Layer_1" xmlns="http://www.w3.org/2000/svg" xmlns:xlink="http://www.w3.org/1999/xlink" x="0px" y="0px"
	 width="63.991px" height="59.984px" viewBox="0 0 63.991 59.984" style="enable-background:new 0 0 63.991 59.984;"
	 xml:space="preserve">
<g id="Brim_2_">
	<g>
		<path style="fill:#666666;" d="M59.992,43.991H3.999C1.791,43.991,0,45.781,0,47.989c0,4.017,11.977,11.995,31.996,11.995
			s31.995-7.997,31.995-11.995C63.991,45.781,62.201,43.991,59.992,43.991z"/>
	</g>
</g>
<g id="Crown_2_">
	<g>
		<path style="fill-rule:evenodd;clip-rule:evenodd;fill:#4D4D4D;" d="M31.996,0.011c-11.045,0-19.997,1.79-19.997,3.998
			l3.999,45.98h31.996l3.999-45.98C51.993,1.801,43.04,0.011,31.996,0.011z"/>
	</g>
</g>
<g id="Band_2_">
	<g>
		<path style="fill-rule:evenodd;clip-rule:evenodd;fill:#ED7161;" d="M48.66,43.992H15.332l0.503,6.035
			c4.538,1.183,9.949,1.96,16.161,1.96c6.206,0,11.621-0.776,16.161-1.957L48.66,43.992z"/>
	</g>
</g>
<g>
</g>
<g>
</g>
<g>
</g>
<g>
</g>
<g>
</g>
<g>
</g>
<g>
</g>
<g>
</g>
<g>
</g>
<g>
</g>
<g>
</g>
<g>
</g>
<g>
</g>
<g>
</g>
<g>
</g>
</svg>
