<?xml version="1.0" encoding="iso-8859-1"?>
<!-- Generator: Adobe Illustrator 16.0.0, SVG Export Plug-In . SVG Version: 6.00 Build 0)  -->
<!DOCTYPE svg PUBLIC "-//W3C//DTD SVG 1.1//EN" "http://www.w3.org/Graphics/SVG/1.1/DTD/svg11.dtd">
<svg version="1.1" id="Layer_1" xmlns="http://www.w3.org/2000/svg" xmlns:xlink="http://www.w3.org/1999/xlink" x="0px" y="0px"
	 width="63.991px" height="64.003px" viewBox="0 0 63.991 64.003" style="enable-background:new 0 0 63.991 64.003;"
	 xml:space="preserve">
<g id="Ears">
	<g>
		<path style="fill-rule:evenodd;clip-rule:evenodd;fill:#E6E6E6;" d="M41.977,0.276c-5.248-1.565-6.597,3.941-7.103,6.045
			l-2.769,18.526c-0.062,0.255-0.096,0.512-0.11,0.766c-0.014-0.254-0.048-0.511-0.11-0.766L29.117,6.321
			c-0.505-2.104-1.854-7.609-7.103-6.045c-5.313,1.584-3.946,7.086-3.44,9.188l6.874,17.634c0.506,2.104,2.489,3.34,4.431,2.761
			l-0.592-0.155c1.674-0.499,2.763-2.186,2.708-3.99c-0.055,1.805,1.035,3.49,2.708,3.989l-0.592,0.156
			c1.941,0.578,3.925-0.657,4.431-2.761l6.874-17.634C45.923,7.362,47.29,1.86,41.977,0.276z"/>
	</g>
</g>
<g id="Inner_Ear">
	<g>
		<path style="fill-rule:evenodd;clip-rule:evenodd;fill:#E99C92;" d="M26.061,9.272c-0.379-1.577-1.381-5.709-3.13-5.188
			c-1.771,0.527-0.764,4.658-0.384,6.236l3.434,14.281c0.38,1.578,1.211,2.699,1.858,2.507l1.171-0.35
			c0.647-0.192,0.864-1.628,0.485-3.205L26.061,9.272z M41.061,4.085c-1.749-0.521-2.751,3.61-3.131,5.188l-3.434,14.281
			c-0.379,1.578-0.162,3.014,0.485,3.206l1.171,0.35c0.647,0.192,1.479-0.93,1.858-2.507l3.434-14.281
			C41.824,8.743,42.832,4.612,41.061,4.085z"/>
	</g>
</g>
<g id="Head_1_">
	<g>
		<ellipse style="fill:#CCCCCC;" cx="31.996" cy="37.014" rx="15.999" ry="16.993"/>
	</g>
</g>
<g id="Brim_1_">
	<g>
		<path style="fill:#666666;" d="M31.996,28.019C11.977,28.019,0,32.017,0,36.015c0,2.209,1.791,3.998,4,3.998h55.992
			c2.209,0,3.999-1.789,3.999-3.998C63.991,31.998,52.016,28.019,31.996,28.019z"/>
	</g>
</g>
<g id="Crown_1_">
	<g>
		<path style="fill-rule:evenodd;clip-rule:evenodd;fill:#4D4D4D;" d="M51.993,60.004l-3.666-21.982
			c-4.573-1.208-10.041-2.007-16.332-2.007c-6.283,0-11.757,0.795-16.332,2l-3.667,21.989c0,2.208,8.953,3.999,19.998,3.999
			C43.04,64.003,51.993,62.212,51.993,60.004z"/>
	</g>
</g>
<g id="Band_1_">
	<g>
		<path style="fill-rule:evenodd;clip-rule:evenodd;fill:#ED7161;" d="M14.665,44.011h34.661l-0.999-5.989
			c-4.573-1.208-10.041-2.007-16.332-2.007c-6.283,0-11.757,0.795-16.332,2L14.665,44.011z"/>
	</g>
</g>
<g>
</g>
<g>
</g>
<g>
</g>
<g>
</g>
<g>
</g>
<g>
</g>
<g>
</g>
<g>
</g>
<g>
</g>
<g>
</g>
<g>
</g>
<g>
</g>
<g>
</g>
<g>
</g>
<g>
</g>
</svg>
