<?xml version="1.0" encoding="iso-8859-1"?>
<!-- Generator: Adobe Illustrator 16.0.0, SVG Export Plug-In . SVG Version: 6.00 Build 0)  -->
<!DOCTYPE svg PUBLIC "-//W3C//DTD SVG 1.1//EN" "http://www.w3.org/Graphics/SVG/1.1/DTD/svg11.dtd">
<svg version="1.1" id="Layer_1" xmlns="http://www.w3.org/2000/svg" xmlns:xlink="http://www.w3.org/1999/xlink" x="0px" y="0px"
	 width="64px" height="64px" viewBox="0 0 64 64" style="enable-background:new 0 0 64 64;" xml:space="preserve">
<g id="Horns">
	<g>
		<path style="fill-rule:evenodd;clip-rule:evenodd;fill:#C59C72;" d="M61.938,2c0-1.104-0.895-2-1.998-2s-1.998,0.896-1.998,2
			c0,11.625-11.987,16-11.987,16l5.994,12C63.311,18.625,61.938,2,61.938,2z M6.042,2c0-1.104-0.891-2-1.989-2
			c-1.1,0-1.99,0.896-1.99,2c0,0-1.369,16.625,9.95,28l9.971-12C21.983,18,6.042,13.625,6.042,2z"/>
	</g>
</g>
<g id="Head_10_">
	<g>
		<path style="fill-rule:evenodd;clip-rule:evenodd;fill:#805F3E;" d="M60,36l-1.119,7.835C59.604,41.348,60,38.721,60,36z M32,8
			C16.536,8,4,20.536,4,36h56C60,20.536,47.464,8,32,8z M4,36c0,2.721,0.396,5.348,1.119,7.835L4,36z"/>
	</g>
</g>
<g id="Rim_1_">
	<g>
		<path style="fill:#E6B85C;" d="M62,36H2c-1.104,0-2,0.896-2,2v4c0,1.104,0.896,2,2,2h60c1.104,0,2-0.896,2-2v-4
			C64,36.896,63.104,36,62,36z"/>
	</g>
</g>
<g id="Shape_51_">
	<g>
		<path style="fill:#FFCC66;" d="M34,4h-4c-1.104,0-2,0.895-2,2v40c0,1.104,0.896,2,2,2h4c1.104,0,2-0.896,2-2V6
			C36,4.895,35.104,4,34,4z"/>
	</g>
</g>
<g>
</g>
<g>
</g>
<g>
</g>
<g>
</g>
<g>
</g>
<g>
</g>
<g>
</g>
<g>
</g>
<g>
</g>
<g>
</g>
<g>
</g>
<g>
</g>
<g>
</g>
<g>
</g>
<g>
</g>
</svg>
