<?xml version="1.0" encoding="iso-8859-1"?>
<!-- Generator: Adobe Illustrator 16.0.0, SVG Export Plug-In . SVG Version: 6.00 Build 0)  -->
<!DOCTYPE svg PUBLIC "-//W3C//DTD SVG 1.1//EN" "http://www.w3.org/Graphics/SVG/1.1/DTD/svg11.dtd">
<svg version="1.1" id="Layer_1" xmlns="http://www.w3.org/2000/svg" xmlns:xlink="http://www.w3.org/1999/xlink" x="0px" y="0px"
	 width="64px" height="40.001px" viewBox="0 0 64 40.001" style="enable-background:new 0 0 64 40.001;" xml:space="preserve">
<g id="Body_42_">
	<g>
		<path style="fill:#595959;" d="M52,0H12C5.372,0,0,5.373,0,12.001v16c0,6.627,5.372,12,12,12h40c6.627,0,12-5.373,12-12v-16
			C64,5.373,58.627,0,52,0z"/>
	</g>
</g>
<g id="Shape_104_">
	<g>
		<path style="fill:#333333;" d="M40,4H24c-1.104,0-2,0.896-2,2.001c0,1.104,0.896,2,2,2h16c1.104,0,2-0.896,2-2
			C42,4.896,41.104,4,40,4z"/>
	</g>
</g>
<g id="Display_3_">
	<g>
		<rect x="18" y="12.001" style="fill:#CCCCCC;" width="28" height="16"/>
	</g>
</g>
<g id="Btns">
	<g>
		<polygon style="fill-rule:evenodd;clip-rule:evenodd;fill:#808080;" points="12,20 12,16.001 10.01,16.001 10,16 9.99,16.001 
			8,16.001 8,20 4,20 4,24 8,24 8,28.001 12,28.001 12,24 16,24 16,20 		"/>
	</g>
</g>
<g id="Btns_8_">
	<g>
		<path style="fill-rule:evenodd;clip-rule:evenodd;fill:#808080;" d="M54,20c1.104,0,2-0.896,2-2s-0.896-2-2-2s-2,0.896-2,2
			S52.896,20,54,20z M50,20c-1.104,0-2,0.896-2,2s0.896,2,2,2s2-0.896,2-2S51.104,20,50,20z M54,24c-1.104,0-2,0.896-2,2
			s0.896,2,2,2s2-0.896,2-2S55.104,24,54,24z M58,20c-1.104,0-2,0.896-2,2s0.896,2,2,2s2-0.896,2-2S59.104,20,58,20z"/>
	</g>
</g>
<g id="Sticks">
	<g>
		<path style="fill-rule:evenodd;clip-rule:evenodd;fill:#808080;" d="M54,4c-2.209,0-4,1.791-4,4s1.791,4,4,4s4-1.791,4-4
			S56.209,4,54,4z M10,4C7.791,4,6,5.791,6,8s1.791,4,4,4s4-1.791,4-4S12.209,4,10,4z"/>
	</g>
</g>
<g id="Btns_2_">
	<g>
		<path style="fill-rule:evenodd;clip-rule:evenodd;fill:#808080;" d="M32,32c-1.104,0-2,0.896-2,2c0,1.105,0.896,2,2,2s2-0.895,2-2
			C34,32.896,33.104,32,32,32z M42,32c-1.104,0-2,0.896-2,2c0,1.105,0.896,2,2,2s2-0.895,2-2C44,32.896,43.104,32,42,32z M50,32
			c-1.104,0-2,0.896-2,2c0,1.105,0.896,2,2,2s2-0.895,2-2C52,32.896,51.104,32,50,32z"/>
	</g>
</g>
<g>
</g>
<g>
</g>
<g>
</g>
<g>
</g>
<g>
</g>
<g>
</g>
<g>
</g>
<g>
</g>
<g>
</g>
<g>
</g>
<g>
</g>
<g>
</g>
<g>
</g>
<g>
</g>
<g>
</g>
</svg>
