<?xml version="1.0" encoding="iso-8859-1"?>
<!-- Generator: Adobe Illustrator 16.0.0, SVG Export Plug-In . SVG Version: 6.00 Build 0)  -->
<!DOCTYPE svg PUBLIC "-//W3C//DTD SVG 1.1//EN" "http://www.w3.org/Graphics/SVG/1.1/DTD/svg11.dtd">
<svg version="1.1" id="Layer_1" xmlns="http://www.w3.org/2000/svg" xmlns:xlink="http://www.w3.org/1999/xlink" x="0px" y="0px"
	 width="64px" height="28px" viewBox="0 0 64 28" style="enable-background:new 0 0 64 28;" xml:space="preserve">
<g id="Body_43_">
	<g>
		<path style="fill:#666666;" d="M56,0H8C3.582,0,0,3.582,0,8v12.001C0,24.419,3.582,28,8,28h48c4.418,0,8-3.581,8-7.999V8
			C64,3.582,60.418,0,56,0z"/>
	</g>
</g>
<g id="BTN_13_">
	<g>
		<path style="fill:#808080;" d="M14,4h-4C8.896,4,8,4.896,8,6s0.896,2,2,2h4c1.104,0,2-0.896,2-2S15.104,4,14,4z"/>
	</g>
</g>
<g id="BTN_14_">
	<g>
		<circle style="fill:#48A0DC;" cx="12" cy="18" r="2"/>
	</g>
</g>
<g id="BTN_15_">
	<g>
		<circle style="fill:#ED7161;" cx="22" cy="18" r="2"/>
	</g>
</g>
<g id="Shape_110_">
	<g>
		<path style="fill-rule:evenodd;clip-rule:evenodd;fill:#4D4D4D;" d="M54,12H30c-1.104,0-2,0.896-2,2v8
			c0,1.104,0.896,2.001,2,2.001h24c1.104,0,2-0.896,2-2.001v-8C56,12.896,55.104,12,54,12z M52,20.001H32V16h20V20.001z"/>
	</g>
</g>
<g id="Tray_3_">
	<g>
		<path style="fill:#333333;" d="M54,4H22c-1.104,0-2,0.896-2,2s0.896,2,2,2h32c1.104,0,2-0.896,2-2S55.104,4,54,4z"/>
	</g>
</g>
<g>
</g>
<g>
</g>
<g>
</g>
<g>
</g>
<g>
</g>
<g>
</g>
<g>
</g>
<g>
</g>
<g>
</g>
<g>
</g>
<g>
</g>
<g>
</g>
<g>
</g>
<g>
</g>
<g>
</g>
</svg>
