<?xml version="1.0" encoding="iso-8859-1"?>
<!-- Generator: Adobe Illustrator 16.0.0, SVG Export Plug-In . SVG Version: 6.00 Build 0)  -->
<!DOCTYPE svg PUBLIC "-//W3C//DTD SVG 1.1//EN" "http://www.w3.org/Graphics/SVG/1.1/DTD/svg11.dtd">
<svg version="1.1" id="Layer_1" xmlns="http://www.w3.org/2000/svg" xmlns:xlink="http://www.w3.org/1999/xlink" x="0px" y="0px"
	 width="63.991px" height="63.972px" viewBox="0 0 63.991 63.972" style="enable-background:new 0 0 63.991 63.972;"
	 xml:space="preserve">
<g id="Brim">
	<g>
		<path style="fill:#387BA8;" d="M59.992,47.979H3.999C1.79,47.979,0,49.77,0,51.978c0,3.998,11.976,11.994,31.995,11.994
			s31.996-7.978,31.996-11.994C63.991,49.77,62.201,47.979,59.992,47.979z"/>
	</g>
</g>
<g id="Crown">
	<g>
		<path style="fill:#48A0DC;" d="M35.995,25.988c0-3.531,5.999-5.613,5.999-9.996C41.994,13.438,31.972,0,29.996,0
			c-1.316,0-1.984,2.288-2,3.998c-0.031,3.555,2,8.226,2,9.995c0,2.622-8.986,7.808-9.999,11.995
			c-0.873,3.61-1.999,11.953-1.999,17.992c2.374,0,25.996,0,25.996,0C41.994,39.982,35.995,29.521,35.995,25.988z"/>
	</g>
</g>
<g id="Star">
	<g>
		<path style="fill-rule:evenodd;clip-rule:evenodd;fill:#FFCC66;" d="M32.208,17.991c0.094,0,0.186-0.03,0.264-0.091
			c0.131-0.101,0.199-0.269,0.179-0.438l-0.354-2.432l1.596-1.546c0.112-0.125,0.151-0.305,0.102-0.468
			c-0.051-0.165-0.182-0.286-0.342-0.318l-2.214-0.334l-1.044-2.128c-0.078-0.149-0.228-0.242-0.389-0.242s-0.311,0.093-0.389,0.242
			l-0.301,0.614c0.373,1.328,0.68,2.455,0.68,3.143c0,0.925-1.127,2.173-2.62,3.58c0.015,0.128,0.063,0.249,0.164,0.327
			c0.077,0.061,0.17,0.091,0.263,0.091c0.064,0,0.128-0.015,0.188-0.044l2.016-1.141l2.016,1.141
			C32.081,17.977,32.145,17.991,32.208,17.991z M25.653,32.689l-2.214-0.334l-1.044-2.128c-0.079-0.148-0.228-0.241-0.389-0.241
			s-0.31,0.093-0.389,0.241l-1.043,2.128l-1.721,0.26c-0.061,0.459-0.12,0.925-0.177,1.4l1.039,1.006l-0.354,2.432
			c-0.021,0.17,0.048,0.338,0.179,0.439c0.078,0.06,0.17,0.09,0.264,0.09c0.063,0,0.127-0.014,0.187-0.043l2.016-1.141l2.016,1.141
			c0.06,0.029,0.123,0.043,0.187,0.043c0.094,0,0.186-0.03,0.264-0.09c0.131-0.102,0.199-0.27,0.179-0.439l-0.353-2.432l1.595-1.546
			c0.112-0.124,0.151-0.304,0.102-0.468S25.814,32.722,25.653,32.689z M36.498,28.405c-0.312-0.966-0.502-1.802-0.502-2.417
			c0-0.525,0.144-1.016,0.37-1.489l-0.928-0.14l-1.043-2.129c-0.079-0.148-0.228-0.24-0.389-0.24c-0.162,0-0.311,0.092-0.39,0.24
			l-1.043,2.129l-2.215,0.334c-0.16,0.032-0.291,0.153-0.341,0.317c-0.051,0.164-0.012,0.344,0.101,0.469l1.596,1.546l-0.354,2.432
			c-0.021,0.169,0.049,0.338,0.179,0.438c0.078,0.061,0.171,0.091,0.264,0.091c0.063,0,0.127-0.014,0.187-0.043l2.017-1.142
			l2.015,1.142c0.06,0.029,0.124,0.043,0.188,0.043c0.093,0,0.186-0.03,0.263-0.091c0.131-0.101,0.199-0.27,0.18-0.438
			L36.498,28.405z"/>
	</g>
</g>
<g id="Band">
	<g>
		<path style="fill:#ED7161;" d="M43.994,43.98c-5.749,0-25.996,0-25.996,0s0,4.894,0,5.998c0,1.104,0.895,1.999,1.999,1.999h23.997
			c1.104,0,2-0.896,2-1.999C45.994,48.874,44.982,45.956,43.994,43.98z"/>
	</g>
</g>
<g id="Buckle">
	<g>
		<path style="fill-rule:evenodd;clip-rule:evenodd;fill:#FFCC66;" d="M35.995,41.981h-7.999c-1.104,0-2,0.896-2,1.999v7.997
			c0,1.104,0.896,1.999,2,1.999h7.999c1.104,0,1.999-0.896,1.999-1.999V43.98C37.994,42.877,37.1,41.981,35.995,41.981z
			 M33.995,49.979h-3.999V45.98h3.999V49.979z"/>
	</g>
</g>
<g>
</g>
<g>
</g>
<g>
</g>
<g>
</g>
<g>
</g>
<g>
</g>
<g>
</g>
<g>
</g>
<g>
</g>
<g>
</g>
<g>
</g>
<g>
</g>
<g>
</g>
<g>
</g>
<g>
</g>
</svg>
