<?xml version="1.0" encoding="iso-8859-1"?>
<!-- Generator: Adobe Illustrator 16.0.0, SVG Export Plug-In . SVG Version: 6.00 Build 0)  -->
<!DOCTYPE svg PUBLIC "-//W3C//DTD SVG 1.1//EN" "http://www.w3.org/Graphics/SVG/1.1/DTD/svg11.dtd">
<svg version="1.1" id="Layer_1" xmlns="http://www.w3.org/2000/svg" xmlns:xlink="http://www.w3.org/1999/xlink" x="0px" y="0px"
	 width="52px" height="64px" viewBox="0 0 52 64" style="enable-background:new 0 0 52 64;" xml:space="preserve">
<g id="Body_25_">
	<g>
		<path style="fill:#CCCCCC;" d="M48,0H4C1.791,0,0,1.791,0,4v56c0,2.209,1.791,4,4,4h44c2.209,0,4-1.791,4-4V4
			C52,1.791,50.209,0,48,0z"/>
	</g>
</g>
<g id="Label_5_">
	<g>
		<path style="fill-rule:evenodd;clip-rule:evenodd;fill:#88C057;" d="M44,8H14V7.993H0V12v44v3.991h3.913
			C3.942,59.992,3.97,60,4,60h40c2.209,0,4-1.791,4-4V12C48,9.791,46.209,8,44,8z"/>
	</g>
</g>
<g id="X-Box_Logo">
	<g>
		<path style="fill:#FFFFFF;" d="M17.935,26.771c-0.056-0.018-0.113-0.037-0.166-0.057c-0.189,0.17-0.374,0.334-0.54,0.502v0.021
			c-0.632,0.611-1.172,1.282-1.619,1.985c-1.021,1.638-1.562,3.475-1.617,5.498v0.558c0.056,2.417,0.8,4.533,2.252,6.373
			c0.036-0.8,0.164-1.62,0.369-2.436c0.781-3.025,2.754-6.073,5.897-9.136C21.022,28.463,19.498,27.347,17.935,26.771z
			 M25.002,28.112c1.384-1.383,4.481-2.621,6.306-2.139c-1.769-1.265-3.777-1.913-6.024-1.969h-0.56
			c-2.25,0.056-4.259,0.704-6.025,1.969C20.522,25.491,23.635,26.746,25.002,28.112z M33.036,41.871
			c-0.056-0.166-0.13-0.333-0.189-0.501c-0.016-0.02-0.016-0.054-0.016-0.075c-1.154-2.786-3.313-5.461-6.493-8.042v-0.018h-0.016
			c-0.427-0.354-0.856-0.688-1.322-1.022c-0.467,0.334-0.893,0.669-1.302,1.022c-3.404,2.731-5.635,5.606-6.714,8.62
			c-0.037,0.072-0.074,0.167-0.093,0.26c-0.017,0.071-0.057,0.147-0.072,0.223c0.129,0.148,0.276,0.296,0.408,0.426
			c2.083,2.097,4.573,3.175,7.496,3.229h0.56c2.915-0.055,5.408-1.133,7.491-3.229c0.132-0.13,0.279-0.277,0.407-0.427
			c-0.018-0.076-0.052-0.15-0.072-0.224C33.089,42.021,33.054,41.946,33.036,41.871z M34.394,29.224
			c-0.446-0.704-0.986-1.375-1.601-1.986l-0.019-0.021c-0.166-0.167-0.351-0.332-0.54-0.501c-0.055,0.018-0.11,0.038-0.166,0.057
			c-1.562,0.576-3.088,1.691-4.573,3.308l0.018,0.019c3.14,3.064,5.111,6.11,5.914,9.137c0.202,0.797,0.314,1.597,0.372,2.395
			c1.43-1.842,2.156-3.955,2.212-6.353v-0.557C35.955,32.697,35.415,30.861,34.394,29.224z"/>
	</g>
</g>
<g>
</g>
<g>
</g>
<g>
</g>
<g>
</g>
<g>
</g>
<g>
</g>
<g>
</g>
<g>
</g>
<g>
</g>
<g>
</g>
<g>
</g>
<g>
</g>
<g>
</g>
<g>
</g>
<g>
</g>
</svg>
