<?xml version="1.0" encoding="iso-8859-1"?>
<!-- Generator: Adobe Illustrator 16.0.0, SVG Export Plug-In . SVG Version: 6.00 Build 0)  -->
<!DOCTYPE svg PUBLIC "-//W3C//DTD SVG 1.1//EN" "http://www.w3.org/Graphics/SVG/1.1/DTD/svg11.dtd">
<svg version="1.1" id="Layer_1" xmlns="http://www.w3.org/2000/svg" xmlns:xlink="http://www.w3.org/1999/xlink" x="0px" y="0px"
	 width="63.997px" height="46.009px" viewBox="0 0 63.997 46.009" style="enable-background:new 0 0 63.997 46.009;"
	 xml:space="preserve">
<g id="Body_41_">
	<g>
		<path style="fill:#CCCCCC;" d="M48.637,0C41.605,0,42.252,3.996,38,3.996h-6h-6C21.748,3.996,22.392,0,15.359,0
			C9.6,0,0,6.549,0,31.94c0,15.106,5.2,14.053,6.4,14.053c6.473,0,8.804-9.997,17.6-9.997c3.28,0,8,0,8,0s4.398-0.224,7.678-0.224
			c8.795,0,11.445,10.221,17.919,10.221c1.2,0,6.399,1.054,6.399-14.053C63.997,6.549,54.397,0,48.637,0z"/>
	</g>
</g>
<g id="Shape_103_">
	<g>
		<path style="fill-rule:evenodd;clip-rule:evenodd;fill:#808080;" d="M20.009,15.979c-4.414,0-7.992,3.591-7.992,8.019
			c0,4.429,3.578,8.019,7.992,8.019s7.992-3.59,7.992-8.019C28.001,19.569,24.423,15.979,20.009,15.979z M44.024,19.962
			c-3.311,0-5.994,2.686-5.994,5.999s2.684,5.999,5.994,5.999c3.31,0,5.994-2.686,5.994-5.999S47.334,19.962,44.024,19.962z
			 M18.009,9.998c0-2.208-1.789-3.999-3.996-3.999s-3.996,1.791-3.996,3.999c0,2.209,1.789,4,3.996,4S18.009,12.207,18.009,9.998z"
			/>
	</g>
</g>
<g id="BTN_7_">
	<g>
		<circle style="fill:#88C057;" cx="49.984" cy="14.009" r="2"/>
	</g>
</g>
<g id="BTN_8_">
	<g>
		<circle style="fill:#ED7161;" cx="53.98" cy="10.01" r="2"/>
	</g>
</g>
<g id="BTN_9_">
	<g>
		<circle style="fill:#48A0DC;" cx="45.989" cy="10.01" r="2"/>
	</g>
</g>
<g id="BTN_10_">
	<g>
		<path style="fill-rule:evenodd;clip-rule:evenodd;fill:#FFCC66;" d="M49.984,4.011c-1.104,0-1.998,0.896-1.998,2s0.895,2,1.998,2
			s1.998-0.896,1.998-2S51.088,4.011,49.984,4.011z M31.999,7.981c-1.112,0-2.014,0.899-2.014,2.009
			c0,1.108,0.902,2.007,2.014,2.007c1.113,0,2.014-0.898,2.014-2.007C34.013,8.881,33.112,7.981,31.999,7.981z"/>
	</g>
</g>
<g id="BTN_11_">
	<g>
		<path style="fill-rule:evenodd;clip-rule:evenodd;fill:#CCCCCC;" d="M22,21.996c0-1.104-0.896-2-2-2s-2,0.896-2,2
			c-1.104,0-2,0.896-2,2s0.895,2,2,2c0,1.104,0.896,2,2,2s2-0.896,2-2c1.104,0,2-0.896,2-2S23.104,21.996,22,21.996z"/>
	</g>
</g>
<g>
</g>
<g>
</g>
<g>
</g>
<g>
</g>
<g>
</g>
<g>
</g>
<g>
</g>
<g>
</g>
<g>
</g>
<g>
</g>
<g>
</g>
<g>
</g>
<g>
</g>
<g>
</g>
<g>
</g>
</svg>
