<?xml version="1.0" encoding="iso-8859-1"?>
<!-- Generator: Adobe Illustrator 16.0.0, SVG Export Plug-In . SVG Version: 6.00 Build 0)  -->
<!DOCTYPE svg PUBLIC "-//W3C//DTD SVG 1.1//EN" "http://www.w3.org/Graphics/SVG/1.1/DTD/svg11.dtd">
<svg version="1.1" id="Layer_1" xmlns="http://www.w3.org/2000/svg" xmlns:xlink="http://www.w3.org/1999/xlink" x="0px" y="0px"
	 width="64.001px" height="33.999px" viewBox="0 0 64.001 33.999" style="enable-background:new 0 0 64.001 33.999;"
	 xml:space="preserve">
<g id="Shape_105_">
	<g>
		<path style="fill-rule:evenodd;clip-rule:evenodd;fill:#4D4D4D;" d="M64.001,10V8c0-2.209-1.791-4-4-4h-56c-2.209,0-4,1.791-4,4
			v0.001H0V28h0.001c0,2.209,1.791,4,4,4h56c2.209,0,4-1.791,4-4v-2c0-0.003-0.001-0.006-0.001-0.01V10.01
			C64,10.006,64.001,10.003,64.001,10z"/>
	</g>
</g>
<g id="Shape_106_">
	<g>
		<path style="fill-rule:evenodd;clip-rule:evenodd;fill:#666666;" d="M32,14L32,14l0.001-10h-28c-2.209,0-4,1.791-4,4v0.001H0V28
			h0.001c0,2.209,1.791,4,4,4h28V22H32V14z"/>
	</g>
</g>
<g id="Tray_1_">
	<g>
		<rect y="16" style="fill:#808080;" width="32" height="4"/>
	</g>
</g>
<g id="X-Box_Logo_1_">
	<g>
		<circle style="fill:#B3B3B3;" cx="54.001" cy="17.982" r="4"/>
	</g>
</g>
<g>
</g>
<g>
</g>
<g>
</g>
<g>
</g>
<g>
</g>
<g>
</g>
<g>
</g>
<g>
</g>
<g>
</g>
<g>
</g>
<g>
</g>
<g>
</g>
<g>
</g>
<g>
</g>
<g>
</g>
</svg>
