<?xml version="1.0" encoding="iso-8859-1"?>
<!-- Generator: Adobe Illustrator 16.0.0, SVG Export Plug-In . SVG Version: 6.00 Build 0)  -->
<!DOCTYPE svg PUBLIC "-//W3C//DTD SVG 1.1//EN" "http://www.w3.org/Graphics/SVG/1.1/DTD/svg11.dtd">
<svg version="1.1" id="Layer_1" xmlns="http://www.w3.org/2000/svg" xmlns:xlink="http://www.w3.org/1999/xlink" x="0px" y="0px"
	 width="64.012px" height="64px" viewBox="0 0 64.012 64" style="enable-background:new 0 0 64.012 64;" xml:space="preserve">
<g id="Base_19_">
	<g>
		<path style="fill-rule:evenodd;clip-rule:evenodd;fill:#88C057;" d="M32.011,0C14.337,0,0.01,14.326,0.01,31.999
			S14.337,64,32.011,64s32.001-14.328,32.001-32.001S49.685,0,32.011,0z M32.011,36c-2.21,0-4-1.792-4-4.001s1.79-4,4-4
			c2.209,0,4,1.791,4,4S34.22,36,32.011,36z"/>
	</g>
</g>
<g id="Base_20_">
	<g>
		<path style="fill-rule:evenodd;clip-rule:evenodd;fill:#808080;" d="M32.011,0c-0.026,0-0.052,0.002-0.077,0.002h0.154
			C32.063,0.002,32.037,0,32.011,0z M59.722,16.002H4.3c-2.724,4.707-4.29,10.167-4.29,15.997C0.01,49.672,14.337,64,32.011,64
			s32.001-14.328,32.001-32.001C64.012,26.169,62.445,20.709,59.722,16.002z M32.011,36c-2.21,0-4-1.792-4-4.001s1.79-4,4-4
			c2.209,0,4,1.791,4,4S34.22,36,32.011,36z"/>
	</g>
</g>
<g id="Base_21_">
	<g>
		<path style="fill-rule:evenodd;clip-rule:evenodd;fill:#666666;" d="M32.011,21.999c-5.523,0-10.001,4.478-10.001,10
			C22.01,37.522,26.487,42,32.011,42c5.522,0,10-4.478,10-10.001C42.011,26.477,37.533,21.999,32.011,21.999z M32.011,36
			c-2.21,0-4-1.792-4-4.001s1.79-4,4-4c2.209,0,4,1.791,4,4S34.22,36,32.011,36z"/>
	</g>
</g>
<g>
</g>
<g>
</g>
<g>
</g>
<g>
</g>
<g>
</g>
<g>
</g>
<g>
</g>
<g>
</g>
<g>
</g>
<g>
</g>
<g>
</g>
<g>
</g>
<g>
</g>
<g>
</g>
<g>
</g>
</svg>
