<?xml version="1.0" encoding="iso-8859-1"?>
<!-- Generator: Adobe Illustrator 16.0.0, SVG Export Plug-In . SVG Version: 6.00 Build 0)  -->
<!DOCTYPE svg PUBLIC "-//W3C//DTD SVG 1.1//EN" "http://www.w3.org/Graphics/SVG/1.1/DTD/svg11.dtd">
<svg version="1.1" id="Layer_1" xmlns="http://www.w3.org/2000/svg" xmlns:xlink="http://www.w3.org/1999/xlink" x="0px" y="0px"
	 width="64.004px" height="83.918px" viewBox="0 0 64.004 83.918" style="enable-background:new 0 0 64.004 83.918;"
	 xml:space="preserve">
<g id="Hair_2_">
	<g>
		<path style="fill:#4D4D4D;" d="M40.023,5.994c0,0-0.375,3.435-4,3.997c0,0-1.313-8.992-8-9.991c0,0,3.938,5.558,2,7.992
			c0,0-2-3.06-8-1.998c0,0,4.188,1.624,4,3.997c0,0-3.063-0.25-4,1.997c0,0,5.813-0.687,6,3.996l6,3.996l2-1.998
			C36.023,17.982,41.96,12.925,40.023,5.994z"/>
	</g>
</g>
<g id="Head_15_">
	<g>
		<path style="fill:#4D4D4D;" d="M63.546,58.843L34.965,13.679c-0.61-1.055-1.738-1.697-2.965-1.697
			c-1.22,0-2.352,0.643-2.964,1.697L0.459,58.843c-0.612,1.053-0.612,2.352,0,3.397c0.614,1.055,1.744,1.704,2.967,1.704h57.156
			c1.22,0,2.352-0.649,2.964-1.704C64.157,61.194,64.157,59.896,63.546,58.843z"/>
	</g>
</g>
<g id="Face">
	<g>
		<path style="fill-rule:evenodd;clip-rule:evenodd;fill:#FFCC66;" d="M57.634,56.769c-0.004-0.009-0.005-0.015-0.01-0.024
			L34.965,23.669c-0.61-1.055-1.738-1.697-2.965-1.697c-1.22,0-2.352,0.643-2.964,1.697L6.423,56.745
			c-0.005,0.009-0.006,0.015-0.011,0.024C6.17,57.1,6.023,57.503,6.023,57.944c0,1.103,0.896,1.997,2,1.997
			c0.019,0,0.037-0.005,0.056-0.006c0.043,0.003,0.087,0.006,0.145,0.006h47.8c1.104,0,2-0.895,2-1.997
			C58.023,57.503,57.875,57.1,57.634,56.769z"/>
	</g>
</g>
<g id="Shape_62_">
	<g>
		<path style="fill-rule:evenodd;clip-rule:evenodd;fill:#FFFFFF;" d="M11.236,59.948H52.81c-4.149-4.78-11.901-7.999-20.787-7.999
			S15.385,55.168,11.236,59.948z"/>
	</g>
</g>
<g id="Eyeballs">
	<g>
		<path style="fill-rule:evenodd;clip-rule:evenodd;fill:#FFFFFF;" d="M22.192,41.932c-2.209,0-4,1.789-4,3.996s1.791,3.996,4,3.996
			s4-1.789,4-3.996S24.401,41.932,22.192,41.932z M42.192,41.932c-2.209,0-4,1.789-4,3.996s1.791,3.996,4,3.996s4-1.789,4-3.996
			S44.401,41.932,42.192,41.932z"/>
	</g>
</g>
<g id="Eyes_3_">
	<g>
		<path style="fill-rule:evenodd;clip-rule:evenodd;fill:#4D4D4D;" d="M44.192,43.93c-1.104,0-2,0.894-2,1.998
			c0,1.104,0.896,1.998,2,1.998s2-0.895,2-1.998C46.192,44.823,45.296,43.93,44.192,43.93z M24.192,43.93c-1.104,0-2,0.894-2,1.998
			c0,1.104,0.896,1.998,2,1.998s2-0.895,2-1.998C26.192,44.823,25.296,43.93,24.192,43.93z"/>
	</g>
</g>
<g id="Eyebrows_2_">
	<g>
		<path style="fill-rule:evenodd;clip-rule:evenodd;fill:#ED7161;" d="M54.098,37.387c-0.293-1.049-1.418-1.672-2.512-1.391
			l-11.852,4.073c-1.094,0.281-1.743,1.36-1.45,2.41s1.418,1.672,2.513,1.391l11.851-4.073
			C53.743,39.516,54.392,38.438,54.098,37.387z M24.648,40.069l-11.851-4.073c-1.095-0.281-2.22,0.342-2.513,1.391
			c-0.293,1.051,0.356,2.129,1.45,2.41l11.852,4.073c1.094,0.281,2.219-0.341,2.512-1.391C26.392,41.43,25.743,40.351,24.648,40.069
			z"/>
	</g>
</g>
<g id="Mouth_3_">
	<g>
		<path style="fill-rule:evenodd;clip-rule:evenodd;fill:#806633;" d="M32.192,53.92h-4c0,0,1.99,3.996,4,3.996
			c2.009,0,4-3.996,4-3.996H32.192z"/>
	</g>
</g>
<g id="Mouth_4_">
	<g>
		<path style="fill-rule:evenodd;clip-rule:evenodd;fill:#B38F47;" d="M32.192,49.924c-2.01,0-4,3.996-4,3.996l4,1.998l4-1.998
			C36.192,53.92,34.201,49.924,32.192,49.924z"/>
	</g>
</g>
<g>
</g>
<g>
</g>
<g>
</g>
<g>
</g>
<g>
</g>
<g>
</g>
<g>
</g>
<g>
</g>
<g>
</g>
<g>
</g>
<g>
</g>
<g>
</g>
<g>
</g>
<g>
</g>
<g>
</g>
</svg>
