<?xml version="1.0" encoding="utf-8"?>
<!-- Generator: Adobe Illustrator 18.0.0, SVG Export Plug-In . SVG Version: 6.00 Build 0)  -->
<!DOCTYPE svg PUBLIC "-//W3C//DTD SVG 1.1//EN" "http://www.w3.org/Graphics/SVG/1.1/DTD/svg11.dtd">
<svg version="1.1" xmlns="http://www.w3.org/2000/svg" xmlns:xlink="http://www.w3.org/1999/xlink" x="0px" y="0px"
	 viewBox="0 0 40 40" enable-background="new 0 0 40 40" xml:space="preserve">
<g id="E-Com">
	<g id="CVC_5_">
	</g>
	<g id="Mastercard_5_">
	</g>
	<g id="Visa_6_">
	</g>
	<g id="Discover">
	</g>
	<g id="Amex_3_">
	</g>
	<g id="Bitcoin_3_">
	</g>
	<g id="Google_Wallet_5_">
	</g>
	<g id="PayPal_3_">
	</g>
	<g id="Square_Payment_1_">
	</g>
	<g id="Shop_5_">
	</g>
	<g id="Postage">
	</g>
	<g id="Package_7_">
	</g>
	<g id="Discount_3_">
	</g>
	<g id="Earth_3_">
	</g>
	<g id="Barcode_3_">
		<g id="Barcode">
			<g>
				<rect x="4" y="7" fill-rule="evenodd" clip-rule="evenodd" fill="#ECF0F1" width="32" height="26"/>
			</g>
		</g>
		<g id="Barcode_1_">
			<g>
				<path fill-rule="evenodd" clip-rule="evenodd" fill="#2C3E50" d="M8,26h2V11H8V26z M19,26h2V11h-2V26z M30,11v15h2V11H30z
					 M27,26h2V11h-2V26z M24,26h2V11h-2V26z M22,26h1V11h-1V26z M11,26h3V11h-3V26z M15,26h3V11h-3V26z M8,29h2v-2H8V29z M19,29h2
					v-2h-2V29z M30,29h2v-2h-2V29z M27,29h2v-2h-2V29z M24,29h2v-2h-2V29z M22,29h1v-2h-1V29z M11,29h3v-2h-3V29z M15,29h3v-2h-3V29
					z"/>
			</g>
		</g>
	</g>
	<g id="Cart_Plus_6_">
	</g>
	<g id="Cart_Minus_6_">
	</g>
	<g id="Cart_4_">
	</g>
	<g id="Receipt_5_">
	</g>
	<g id="Truck_9_">
	</g>
	<g id="Calculator_6_">
	</g>
	<g id="Euro_Symbol">
	</g>
	<g id="Cent_Symbol">
	</g>
	<g id="Dollar_Symbol">
	</g>
	<g id="Pound_Symbol">
	</g>
	<g id="Bank_5_">
	</g>
	<g id="Wallet_3_">
	</g>
	<g id="Coins_6_">
	</g>
	<g id="Bills_6_">
	</g>
	<g id="Dollar_Alt">
	</g>
	<g id="Dollar">
	</g>
</g>
<g id="Lockup">
</g>
</svg>
