<?xml version="1.0" encoding="utf-8"?>
<!-- Generator: Adobe Illustrator 18.0.0, SVG Export Plug-In . SVG Version: 6.00 Build 0)  -->
<!DOCTYPE svg PUBLIC "-//W3C//DTD SVG 1.1//EN" "http://www.w3.org/Graphics/SVG/1.1/DTD/svg11.dtd">
<svg version="1.1" xmlns="http://www.w3.org/2000/svg" xmlns:xlink="http://www.w3.org/1999/xlink" x="0px" y="0px"
	 viewBox="0 0 40 40" enable-background="new 0 0 40 40" xml:space="preserve">
<g id="E-Com">
	<g id="CVC_5_">
	</g>
	<g id="Mastercard_5_">
	</g>
	<g id="Visa_6_">
	</g>
	<g id="Discover">
	</g>
	<g id="Amex_3_">
	</g>
	<g id="Bitcoin_3_">
	</g>
	<g id="Google_Wallet_5_">
	</g>
	<g id="PayPal_3_">
	</g>
	<g id="Square_Payment_1_">
	</g>
	<g id="Shop_5_">
	</g>
	<g id="Postage">
	</g>
	<g id="Package_7_">
	</g>
	<g id="Discount_3_">
	</g>
	<g id="Earth_3_">
	</g>
	<g id="Barcode_3_">
	</g>
	<g id="Cart_Plus_6_">
	</g>
	<g id="Cart_Minus_6_">
	</g>
	<g id="Cart_4_">
	</g>
	<g id="Receipt_5_">
	</g>
	<g id="Truck_9_">
	</g>
	<g id="Calculator_6_">
	</g>
	<g id="Euro_Symbol">
	</g>
	<g id="Cent_Symbol">
	</g>
	<g id="Dollar_Symbol">
	</g>
	<g id="Pound_Symbol">
	</g>
	<g id="Bank_5_">
	</g>
	<g id="Wallet_3_">
	</g>
	<g id="Coins_6_">
	</g>
	<g id="Bills_6_">
		<g id="Bills">
			<polygon fill-rule="evenodd" clip-rule="evenodd" fill="#2ECC71" points="10,9 10,12 7,12 7,15 5,15 5,32 28,32 28,30 31,30 
				31,27 34,27 34,9 			"/>
		</g>
		<g id="Bills_1_">
			<path fill-rule="evenodd" clip-rule="evenodd" fill="#27AE60" d="M7,17v13h19V17H7z M25,29H8V18h17V29z"/>
		</g>
		<g id="Bills_3_">
			<polygon fill-rule="evenodd" clip-rule="evenodd" fill="#27AE60" points="9,14 9,15 28,15 28,28 29,28 29,14 			"/>
		</g>
		<g id="Bills_4_">
			<polygon fill-rule="evenodd" clip-rule="evenodd" fill="#27AE60" points="12,11 12,12 31,12 31,25 32,25 32,11 			"/>
		</g>
		<circle fill-rule="evenodd" clip-rule="evenodd" fill="#27AE60" cx="16.5" cy="23.5" r="3.5"/>
	</g>
	<g id="Dollar_Alt">
	</g>
	<g id="Dollar">
	</g>
</g>
<g id="Lockup">
</g>
</svg>
