<?xml version="1.0" encoding="utf-8"?>
<!-- Generator: Adobe Illustrator 18.0.0, SVG Export Plug-In . SVG Version: 6.00 Build 0)  -->
<!DOCTYPE svg PUBLIC "-//W3C//DTD SVG 1.1//EN" "http://www.w3.org/Graphics/SVG/1.1/DTD/svg11.dtd">
<svg version="1.1" xmlns="http://www.w3.org/2000/svg" xmlns:xlink="http://www.w3.org/1999/xlink" x="0px" y="0px"
	 viewBox="0 0 40 40" enable-background="new 0 0 40 40" xml:space="preserve">
<g id="E-Com">
	<g id="CVC_5_">
	</g>
	<g id="Mastercard_5_">
	</g>
	<g id="Visa_6_">
	</g>
	<g id="Discover">
	</g>
	<g id="Amex_3_">
	</g>
	<g id="Bitcoin_3_">
		<g id="Bitcoin">
			<g>
				<circle fill-rule="evenodd" clip-rule="evenodd" fill="#F1C40F" cx="20" cy="20" r="14"/>
			</g>
		</g>
		<g id="Bitcoin_1_">
			<g>
				<path fill-rule="evenodd" clip-rule="evenodd" fill="#E67E22" d="M23.8,19.3c0.9-0.5,1.4-1.2,1.3-2.5c-0.2-1.7-1.7-2.3-3.7-2.4
					l0-2.4l-1.5,0l0,2.3c-0.4,0-0.8,0-1.2,0.1l0-2.4l-1.5,0l0,2.4c-0.3,0-0.7,0-1,0l0,0L14,14.6l0,1.6c0,0,1.1-0.1,1.1,0
					c0.6,0,0.8,0.3,0.9,0.6l0,6.6c0,0.2-0.1,0.5-0.6,0.5c0,0-1.1,0-1.1,0L14,25.6l2-0.1c0.4,0,0.7,0,1.1,0l0,2.4l1.5,0l0-2.4
					c0.4,0,0.8,0,1.2,0l0,2.4l1.5,0l0-2.4c2.6-0.2,4.4-0.9,4.6-3.2C26.2,20.4,25.2,19.6,23.8,19.3z M18.6,16.2
					c0.9,0,3.6-0.4,3.6,1.3c0,1.7-2.7,1.5-3.6,1.6L18.6,16.2z M18.7,23.8l0-3.2c1,0,4.3-0.4,4.3,1.5C23,23.8,19.7,23.7,18.7,23.8z"
					/>
			</g>
		</g>
	</g>
	<g id="Google_Wallet_5_">
	</g>
	<g id="PayPal_3_">
	</g>
	<g id="Square_Payment_1_">
	</g>
	<g id="Shop_5_">
	</g>
	<g id="Postage">
	</g>
	<g id="Package_7_">
	</g>
	<g id="Discount_3_">
	</g>
	<g id="Earth_3_">
	</g>
	<g id="Barcode_3_">
	</g>
	<g id="Cart_Plus_6_">
	</g>
	<g id="Cart_Minus_6_">
	</g>
	<g id="Cart_4_">
	</g>
	<g id="Receipt_5_">
	</g>
	<g id="Truck_9_">
	</g>
	<g id="Calculator_6_">
	</g>
	<g id="Euro_Symbol">
	</g>
	<g id="Cent_Symbol">
	</g>
	<g id="Dollar_Symbol">
	</g>
	<g id="Pound_Symbol">
	</g>
	<g id="Bank_5_">
	</g>
	<g id="Wallet_3_">
	</g>
	<g id="Coins_6_">
	</g>
	<g id="Bills_6_">
	</g>
	<g id="Dollar_Alt">
	</g>
	<g id="Dollar">
	</g>
</g>
<g id="Lockup">
</g>
</svg>
