<?xml version="1.0" encoding="utf-8"?>
<!-- Generator: Adobe Illustrator 18.0.0, SVG Export Plug-In . SVG Version: 6.00 Build 0)  -->
<!DOCTYPE svg PUBLIC "-//W3C//DTD SVG 1.1//EN" "http://www.w3.org/Graphics/SVG/1.1/DTD/svg11.dtd">
<svg version="1.1" xmlns="http://www.w3.org/2000/svg" xmlns:xlink="http://www.w3.org/1999/xlink" x="0px" y="0px"
	 viewBox="0 0 40 40" enable-background="new 0 0 40 40" xml:space="preserve">
<g id="E-Com">
	<g id="CVC_5_">
	</g>
	<g id="Mastercard_5_">
	</g>
	<g id="Visa_6_">
	</g>
	<g id="Discover">
	</g>
	<g id="Amex_3_">
	</g>
	<g id="Bitcoin_3_">
	</g>
	<g id="Google_Wallet_5_">
	</g>
	<g id="PayPal_3_">
	</g>
	<g id="Square_Payment_1_">
	</g>
	<g id="Shop_5_">
	</g>
	<g id="Postage">
	</g>
	<g id="Package_7_">
	</g>
	<g id="Discount_3_">
	</g>
	<g id="Earth_3_">
	</g>
	<g id="Barcode_3_">
	</g>
	<g id="Cart_Plus_6_">
	</g>
	<g id="Cart_Minus_6_">
	</g>
	<g id="Cart_4_">
	</g>
	<g id="Receipt_5_">
	</g>
	<g id="Truck_9_">
	</g>
	<g id="Calculator_6_">
		<path fill-rule="evenodd" clip-rule="evenodd" fill="#ECF0F1" stroke="#BDC3C7" stroke-miterlimit="10" d="M32.5,34.5h-25
			c-1.1,0-2-0.9-2-2v-25c0-1.1,0.9-2,2-2h25c1.1,0,2,0.9,2,2v25C34.5,33.6,33.6,34.5,32.5,34.5z"/>
		<path fill-rule="evenodd" clip-rule="evenodd" fill="#BDC3C7" d="M18,32H9c-0.6,0-1-0.4-1-1v-9c0-0.6,0.4-1,1-1h9c0.6,0,1,0.4,1,1
			v9C19,31.6,18.6,32,18,32z"/>
		<path fill-rule="evenodd" clip-rule="evenodd" fill="#1ABC9C" stroke="#16A085" stroke-miterlimit="10" d="M18.5,17.5
			c0,0.6-0.4,1-1,1h-8c-0.6,0-1-0.4-1-1v-8c0-0.6,0.4-1,1-1h8c0.6,0,1,0.4,1,1V17.5z"/>
		<path fill-rule="evenodd" clip-rule="evenodd" fill="#BDC3C7" d="M31,19h-9c-0.6,0-1-0.4-1-1V9c0-0.6,0.4-1,1-1h9c0.6,0,1,0.4,1,1
			v9C32,18.6,31.6,19,31,19z"/>
		<path fill-rule="evenodd" clip-rule="evenodd" fill="#E74C3C" d="M31,32h-9c-0.6,0-1-0.4-1-1v-9c0-0.6,0.4-1,1-1h9
			c0.6,0,1,0.4,1,1v9C32,31.6,31.6,32,31,32z"/>
		<g>
			<rect x="24" y="25" fill-rule="evenodd" clip-rule="evenodd" fill="#ECF0F1" width="5" height="1"/>
			<rect x="24" y="27" fill-rule="evenodd" clip-rule="evenodd" fill="#ECF0F1" width="5" height="1"/>
		</g>
		<rect x="11" y="26" fill-rule="evenodd" clip-rule="evenodd" fill="#2C3E50" width="5" height="1"/>
		<rect x="13" y="24" fill-rule="evenodd" clip-rule="evenodd" fill="#2C3E50" width="1" height="5"/>
		<rect x="24" y="13" fill-rule="evenodd" clip-rule="evenodd" fill="#2C3E50" width="5" height="1"/>
		<rect x="26" y="11" fill-rule="evenodd" clip-rule="evenodd" fill="#2C3E50" width="1" height="1"/>
		<rect x="26" y="15" fill-rule="evenodd" clip-rule="evenodd" fill="#2C3E50" width="1" height="1"/>
		<path fill-rule="evenodd" clip-rule="evenodd" fill="#1ABC9C" stroke="#16A085" stroke-miterlimit="10" d="M16,14v1
			c0,0.6-0.4,1-1,1h-3c-0.6,0-1-0.4-1-1v-1"/>
		<path fill-rule="evenodd" clip-rule="evenodd" fill="#1ABC9C" stroke="#16A085" stroke-miterlimit="10" d="M11,13l0-1
			c0-0.5,0.4-1,1-1l3,0c0.6,0,1,0.4,1,1l0,1"/>
	</g>
	<g id="Euro_Symbol">
	</g>
	<g id="Cent_Symbol">
	</g>
	<g id="Dollar_Symbol">
	</g>
	<g id="Pound_Symbol">
	</g>
	<g id="Bank_5_">
	</g>
	<g id="Wallet_3_">
	</g>
	<g id="Coins_6_">
	</g>
	<g id="Bills_6_">
	</g>
	<g id="Dollar_Alt">
	</g>
	<g id="Dollar">
	</g>
</g>
<g id="Lockup">
</g>
</svg>
