<?xml version="1.0" encoding="utf-8"?>
<!-- Generator: Adobe Illustrator 18.0.0, SVG Export Plug-In . SVG Version: 6.00 Build 0)  -->
<!DOCTYPE svg PUBLIC "-//W3C//DTD SVG 1.1//EN" "http://www.w3.org/Graphics/SVG/1.1/DTD/svg11.dtd">
<svg version="1.1" xmlns="http://www.w3.org/2000/svg" xmlns:xlink="http://www.w3.org/1999/xlink" x="0px" y="0px"
	 viewBox="0 0 40 40" enable-background="new 0 0 40 40" xml:space="preserve">
<g id="E-Com">
	<g id="CVC_5_">
	</g>
	<g id="Mastercard_5_">
	</g>
	<g id="Visa_6_">
	</g>
	<g id="Discover">
	</g>
	<g id="Amex_3_">
	</g>
	<g id="Bitcoin_3_">
	</g>
	<g id="Google_Wallet_5_">
	</g>
	<g id="PayPal_3_">
	</g>
	<g id="Square_Payment_1_">
	</g>
	<g id="Shop_5_">
	</g>
	<g id="Postage">
	</g>
	<g id="Package_7_">
	</g>
	<g id="Discount_3_">
	</g>
	<g id="Earth_3_">
	</g>
	<g id="Barcode_3_">
	</g>
	<g id="Cart_Plus_6_">
		<rect x="8" y="8" fill-rule="evenodd" clip-rule="evenodd" fill="#E74C3C" width="2" height="2"/>
		<circle fill-rule="evenodd" clip-rule="evenodd" fill="#7F8C8D" cx="16" cy="31" r="2"/>
		<circle fill-rule="evenodd" clip-rule="evenodd" fill="#7F8C8D" cx="26" cy="31" r="2"/>
		<g id="Cart_7_">
			<path fill-rule="evenodd" clip-rule="evenodd" fill="#BDC3C7" d="M14,28v-3h-2v5h18v-2H14z M12,8h-2v4h2V8z"/>
		</g>
		<g id="Cart_6_">
			<path fill-rule="evenodd" clip-rule="evenodd" fill="#E74C3C" d="M10,11v11.5c0,1.1,0.9,2.5,2,2.5h18c1.1,0,2-1.4,2-2.5V11H10z"
				/>
		</g>
		<g id="Cart_Plus_3_">
			<g>
				<circle fill-rule="evenodd" clip-rule="evenodd" fill="#C7C7C7" cx="29" cy="12.5" r="7"/>
			</g>
		</g>
		<g id="Cart_Plus_4_">
			<g>
				<polygon fill-rule="evenodd" clip-rule="evenodd" fill="#201F1F" points="30,11.5 30,8.5 28,8.5 28,11.5 25,11.5 25,13.5 
					28,13.5 28,16.5 30,16.5 30,13.5 33,13.5 33,11.5 				"/>
			</g>
		</g>
	</g>
	<g id="Cart_Minus_6_">
	</g>
	<g id="Cart_4_">
	</g>
	<g id="Receipt_5_">
	</g>
	<g id="Truck_9_">
	</g>
	<g id="Calculator_6_">
	</g>
	<g id="Euro_Symbol">
	</g>
	<g id="Cent_Symbol">
	</g>
	<g id="Dollar_Symbol">
	</g>
	<g id="Pound_Symbol">
	</g>
	<g id="Bank_5_">
	</g>
	<g id="Wallet_3_">
	</g>
	<g id="Coins_6_">
	</g>
	<g id="Bills_6_">
	</g>
	<g id="Dollar_Alt">
	</g>
	<g id="Dollar">
	</g>
</g>
<g id="Lockup">
</g>
</svg>
