<?xml version="1.0" encoding="utf-8"?>
<!-- Generator: Adobe Illustrator 18.0.0, SVG Export Plug-In . SVG Version: 6.00 Build 0)  -->
<!DOCTYPE svg PUBLIC "-//W3C//DTD SVG 1.1//EN" "http://www.w3.org/Graphics/SVG/1.1/DTD/svg11.dtd">
<svg version="1.1" xmlns="http://www.w3.org/2000/svg" xmlns:xlink="http://www.w3.org/1999/xlink" x="0px" y="0px"
	 viewBox="0 0 40 40" enable-background="new 0 0 40 40" xml:space="preserve">
<g id="E-Com">
	<g id="CVC_5_">
	</g>
	<g id="Mastercard_5_">
	</g>
	<g id="Visa_6_">
	</g>
	<g id="Discover">
	</g>
	<g id="Amex_3_">
	</g>
	<g id="Bitcoin_3_">
	</g>
	<g id="Google_Wallet_5_">
	</g>
	<g id="PayPal_3_">
	</g>
	<g id="Square_Payment_1_">
	</g>
	<g id="Shop_5_">
	</g>
	<g id="Postage">
	</g>
	<g id="Package_7_">
	</g>
	<g id="Discount_3_">
	</g>
	<g id="Earth_3_">
	</g>
	<g id="Barcode_3_">
	</g>
	<g id="Cart_Plus_6_">
	</g>
	<g id="Cart_Minus_6_">
	</g>
	<g id="Cart_4_">
	</g>
	<g id="Receipt_5_">
	</g>
	<g id="Truck_9_">
	</g>
	<g id="Calculator_6_">
	</g>
	<g id="Euro_Symbol">
	</g>
	<g id="Cent_Symbol">
		<g>
			<g id="Cent_Symbol_1_">
				<g>
					<path fill-rule="evenodd" clip-rule="evenodd" fill="#2C3E50" d="M21.7,24.4c0,0,1.4-9.3,1.4-9.3c0.9,0.2,1.7,0.5,2.5,1l0.8-3
						c-0.8-0.5-1.8-0.8-2.8-1l0.5-3.2h-1.9l-0.4,3h-0.5c-4.6,0-7.7,3.1-7.7,7.9c0,4.2,2.2,6.9,5.8,7.6l-0.6,3.8h1.9l0.5-3.7
						c2,0,3.8-0.4,5.1-1.2l-0.6-3.1C24.6,24,23.2,24.4,21.7,24.4z M19.9,24.1c-1.6-0.6-2.6-2.2-2.6-4.5c0-2.8,1.4-4.6,4-4.7
						L19.9,24.1z"/>
				</g>
			</g>
		</g>
	</g>
	<g id="Dollar_Symbol">
	</g>
	<g id="Pound_Symbol">
	</g>
	<g id="Bank_5_">
	</g>
	<g id="Wallet_3_">
	</g>
	<g id="Coins_6_">
	</g>
	<g id="Bills_6_">
	</g>
	<g id="Dollar_Alt">
	</g>
	<g id="Dollar">
	</g>
</g>
<g id="Lockup">
</g>
</svg>
