<?xml version="1.0" encoding="utf-8"?>
<!-- Generator: Adobe Illustrator 18.0.0, SVG Export Plug-In . SVG Version: 6.00 Build 0)  -->
<!DOCTYPE svg PUBLIC "-//W3C//DTD SVG 1.1//EN" "http://www.w3.org/Graphics/SVG/1.1/DTD/svg11.dtd">
<svg version="1.1" xmlns="http://www.w3.org/2000/svg" xmlns:xlink="http://www.w3.org/1999/xlink" x="0px" y="0px"
	 viewBox="0 0 40 40" enable-background="new 0 0 40 40" xml:space="preserve">
<g id="E-Com">
	<g id="CVC_5_">
	</g>
	<g id="Mastercard_5_">
	</g>
	<g id="Visa_6_">
	</g>
	<g id="Discover">
	</g>
	<g id="Amex_3_">
	</g>
	<g id="Bitcoin_3_">
	</g>
	<g id="Google_Wallet_5_">
	</g>
	<g id="PayPal_3_">
	</g>
	<g id="Square_Payment_1_">
	</g>
	<g id="Shop_5_">
	</g>
	<g id="Postage">
	</g>
	<g id="Package_7_">
	</g>
	<g id="Discount_3_">
	</g>
	<g id="Earth_3_">
	</g>
	<g id="Barcode_3_">
	</g>
	<g id="Cart_Plus_6_">
	</g>
	<g id="Cart_Minus_6_">
	</g>
	<g id="Cart_4_">
	</g>
	<g id="Receipt_5_">
	</g>
	<g id="Truck_9_">
	</g>
	<g id="Calculator_6_">
	</g>
	<g id="Euro_Symbol">
	</g>
	<g id="Cent_Symbol">
	</g>
	<g id="Dollar_Symbol">
	</g>
	<g id="Pound_Symbol">
	</g>
	<g id="Bank_5_">
	</g>
	<g id="Wallet_3_">
	</g>
	<g id="Coins_6_">
		<g>
			<g id="Coins">
				<g>
					<path fill-rule="evenodd" clip-rule="evenodd" fill="#BDC3C7" d="M35.8,16c-2.5-4.3-8-5.8-12.3-3.3c-4.3,2.5-5.8,8-3.3,12.3
						c2.5,4.3,8,5.8,12.3,3.3S38.3,20.3,35.8,16z"/>
				</g>
			</g>
			<g id="Coins_1_">
				<g>
					<path fill-rule="evenodd" clip-rule="evenodd" fill="#7F8C8D" d="M28.5,22.1c0,0,0.6-3.7,0.6-3.7c0.4,0.1,0.7,0.2,1.1,0.4
						l0.3-1.2c-0.3-0.2-0.7-0.3-1.2-0.4l0.2-1.3h-0.8L28.5,17h-0.2c-2,0-3.3,1.2-3.3,3.1c0,1.7,1,2.8,2.5,3l-0.2,1.5h0.8l0.2-1.5
						c0.8,0,1.6-0.2,2.2-0.5l-0.3-1.2C29.7,21.9,29.1,22,28.5,22.1z M27.7,21.9c-0.7-0.3-1.1-0.9-1.1-1.8c0-1.1,0.6-1.8,1.7-1.9
						L27.7,21.9z"/>
				</g>
			</g>
			<g id="Coins_2_">
				<g>
					<circle fill-rule="evenodd" clip-rule="evenodd" fill="#F39C12" cx="13.5" cy="20" r="10.5"/>
				</g>
			</g>
			<g id="Coins_3_">
				<g>
					<ellipse fill-rule="evenodd" clip-rule="evenodd" fill="#F1C40F" cx="13.6" cy="19.8" rx="7.8" ry="7.6"/>
				</g>
			</g>
			<g id="Coins_4_">
				<g>
					<path fill-rule="evenodd" clip-rule="evenodd" fill="#F39C12" d="M17.4,20.7c-0.5-1.7-2-1.9-3.5-2c0,0-0.3-2.4-0.3-2.4
						c0.6,0,1.3,0,2,0.2l0-1.6c-0.7-0.2-1.4-0.2-2.2-0.2l-0.2-1.4l-0.9,0.2l0.2,1.3c-0.1,0-0.2,0-0.3,0.1c-2,0.5-3,1.9-2.5,3.5
						c0.5,1.7,2,1.9,3.4,1.9l0.3,2.6c-0.8,0.1-1.5,0-2.2-0.2l0,1.6c0.7,0.2,1.5,0.3,2.4,0.2c0,0,0.2,1.7,0.2,1.7l0.8-0.2l-0.2-1.6
						c0.1,0,0.2,0,0.2-0.1C16.9,23.8,17.9,22.4,17.4,20.7z M11.5,18c-0.2-0.6,0.2-1.2,1.3-1.5c0,0,0,0,0,0l0.3,2.3
						C12.2,18.8,11.6,18.6,11.5,18z M14.4,23C14.4,23,14.3,23,14.4,23L14,20.4c1.1,0,1.6,0.2,1.8,0.9C16,22,15.4,22.7,14.4,23z"/>
				</g>
			</g>
		</g>
	</g>
	<g id="Bills_6_">
	</g>
	<g id="Dollar_Alt">
	</g>
	<g id="Dollar">
	</g>
</g>
<g id="Lockup">
</g>
</svg>
