<?xml version="1.0" encoding="utf-8"?>
<!-- Generator: Adobe Illustrator 18.0.0, SVG Export Plug-In . SVG Version: 6.00 Build 0)  -->
<!DOCTYPE svg PUBLIC "-//W3C//DTD SVG 1.1//EN" "http://www.w3.org/Graphics/SVG/1.1/DTD/svg11.dtd">
<svg version="1.1" xmlns="http://www.w3.org/2000/svg" xmlns:xlink="http://www.w3.org/1999/xlink" x="0px" y="0px"
	 viewBox="0 0 40 40" enable-background="new 0 0 40 40" xml:space="preserve">
<g id="E-Com">
	<g id="CVC_5_">
	</g>
	<g id="Mastercard_5_">
	</g>
	<g id="Visa_6_">
	</g>
	<g id="Discover">
		<g id="Discover_3_">
			<g>
				<path fill-rule="evenodd" clip-rule="evenodd" fill="#ECF0F1" d="M34,9.5H6c-1.1,0-2,0.9-2,2v17c0,1.1,0.9,2,2,2h28
					c1.1,0,2-0.9,2-2v-17C36,10.4,35.1,9.5,34,9.5z"/>
			</g>
		</g>
		<g id="Discover_2_">
			<g>
				<path fill-rule="evenodd" clip-rule="evenodd" fill="#E67E22" d="M18.5,30.5H34c1.1,0,2-0.9,2-2v-6.6C31,26.1,25.1,29,18.5,30.5
					z"/>
			</g>
		</g>
		<g id="Discover_1_">
			<g>
				<path fill-rule="evenodd" clip-rule="evenodd" fill="#34495E" d="M13.5,17.5c-0.3-0.3-0.7-0.5-1.2-0.6c-0.5-0.1-0.9-0.2-1.4-0.2
					H8v6.7h2.7c0.4,0,0.9-0.1,1.4-0.2c0.5-0.1,0.9-0.3,1.3-0.6c0.4-0.3,0.7-0.6,0.9-1c0.2-0.4,0.4-0.9,0.4-1.5
					c0-0.6-0.1-1.1-0.3-1.5C14.1,18.1,13.8,17.8,13.5,17.5z M13,21c-0.2,0.3-0.4,0.5-0.6,0.7c-0.3,0.2-0.6,0.3-1,0.4
					c-0.4,0.1-0.8,0.1-1.2,0.1h-1v-4.5h1.2c0.4,0,0.8,0,1.1,0.1s0.6,0.2,0.9,0.4c0.2,0.2,0.4,0.4,0.6,0.7s0.2,0.6,0.2,1
					C13.3,20.4,13.2,20.8,13,21z M15.9,23.3h1.3v-6.7h-1.3V23.3z M29.9,21.6c-0.2,0.3-0.5,0.5-0.8,0.6c-0.3,0.1-0.6,0.2-0.9,0.2
					c-0.4,0-0.7-0.1-1-0.2c-0.3-0.1-0.6-0.3-0.8-0.5s-0.4-0.5-0.5-0.8c-0.1-0.3-0.2-0.6-0.2-1c0-0.3,0.1-0.6,0.2-0.9
					s0.3-0.5,0.5-0.8s0.5-0.4,0.8-0.5c0.3-0.1,0.7-0.2,1-0.2c0.3,0,0.5,0,0.8,0.1c0.3,0.1,0.5,0.3,0.8,0.5l1-0.7
					c-0.4-0.4-0.8-0.7-1.2-0.8c-0.4-0.2-0.9-0.2-1.4-0.2c-0.6,0-1.1,0.1-1.6,0.2c-0.5,0.2-0.9,0.4-1.2,0.7c-0.3,0.3-0.6,0.7-0.8,1.1
					s-0.3,0.9-0.3,1.5c0,0.5,0.1,1,0.3,1.4c0.2,0.4,0.5,0.8,0.8,1.1c0.3,0.3,0.8,0.5,1.2,0.7c0.5,0.2,1,0.2,1.6,0.2
					c0.5,0,1.1-0.1,1.5-0.3c0.5-0.2,0.9-0.5,1.2-0.9L29.9,21.6z M30.8,17.6C30.5,17.2,30.8,17.6,30.8,17.6L30.8,17.6z M22.5,19.8
					c-0.3-0.1-0.5-0.3-0.8-0.3c-0.3-0.1-0.6-0.2-0.8-0.3c-0.3-0.1-0.5-0.2-0.6-0.3c-0.2-0.1-0.3-0.3-0.3-0.5c0-0.2,0-0.3,0.1-0.4
					c0.1-0.1,0.2-0.2,0.3-0.3c0.1-0.1,0.2-0.1,0.4-0.2c0.1,0,0.3,0,0.4,0c0.3,0,0.5,0,0.7,0.1c0.2,0.1,0.4,0.2,0.6,0.4l1-0.9
					c-0.3-0.2-0.6-0.4-1-0.5c-0.4-0.1-0.7-0.2-1.1-0.2c-0.3,0-0.7,0-1,0.1c-0.3,0.1-0.6,0.2-0.9,0.4c-0.3,0.2-0.5,0.4-0.6,0.6
					c-0.2,0.3-0.2,0.5-0.2,0.9c0,0.4,0.1,0.7,0.3,0.9s0.4,0.4,0.6,0.6c0.3,0.1,0.5,0.3,0.8,0.3c0.3,0.1,0.6,0.2,0.8,0.3
					c0.3,0.1,0.5,0.2,0.6,0.3c0.2,0.1,0.3,0.3,0.3,0.6c0,0.2,0,0.3-0.1,0.4c-0.1,0.1-0.2,0.2-0.3,0.3c-0.1,0.1-0.3,0.1-0.4,0.2
					c-0.2,0-0.3,0.1-0.5,0.1c-0.3,0-0.6-0.1-0.8-0.2c-0.3-0.1-0.5-0.3-0.6-0.5l-1,0.9c0.3,0.3,0.7,0.6,1.1,0.7
					c0.4,0.1,0.9,0.2,1.3,0.2c0.4,0,0.7,0,1-0.1c0.3-0.1,0.6-0.2,0.9-0.4s0.4-0.4,0.6-0.7c0.1-0.3,0.2-0.6,0.2-0.9
					c0-0.4-0.1-0.7-0.3-1S22.7,20,22.5,19.8z M23.4,17.2C23.4,17.2,23.1,16.9,23.4,17.2L23.4,17.2z"/>
			</g>
		</g>
	</g>
	<g id="Amex_3_">
	</g>
	<g id="Bitcoin_3_">
	</g>
	<g id="Google_Wallet_5_">
	</g>
	<g id="PayPal_3_">
	</g>
	<g id="Square_Payment_1_">
	</g>
	<g id="Shop_5_">
	</g>
	<g id="Postage">
	</g>
	<g id="Package_7_">
	</g>
	<g id="Discount_3_">
	</g>
	<g id="Earth_3_">
	</g>
	<g id="Barcode_3_">
	</g>
	<g id="Cart_Plus_6_">
	</g>
	<g id="Cart_Minus_6_">
	</g>
	<g id="Cart_4_">
	</g>
	<g id="Receipt_5_">
	</g>
	<g id="Truck_9_">
	</g>
	<g id="Calculator_6_">
	</g>
	<g id="Euro_Symbol">
	</g>
	<g id="Cent_Symbol">
	</g>
	<g id="Dollar_Symbol">
	</g>
	<g id="Pound_Symbol">
	</g>
	<g id="Bank_5_">
	</g>
	<g id="Wallet_3_">
	</g>
	<g id="Coins_6_">
	</g>
	<g id="Bills_6_">
	</g>
	<g id="Dollar_Alt">
	</g>
	<g id="Dollar">
	</g>
</g>
<g id="Lockup">
</g>
</svg>
