<?xml version="1.0" encoding="utf-8"?>
<!-- Generator: Adobe Illustrator 18.0.0, SVG Export Plug-In . SVG Version: 6.00 Build 0)  -->
<!DOCTYPE svg PUBLIC "-//W3C//DTD SVG 1.1//EN" "http://www.w3.org/Graphics/SVG/1.1/DTD/svg11.dtd">
<svg version="1.1" xmlns="http://www.w3.org/2000/svg" xmlns:xlink="http://www.w3.org/1999/xlink" x="0px" y="0px"
	 viewBox="0 0 40 40" enable-background="new 0 0 40 40" xml:space="preserve">
<g id="E-Com">
	<g id="CVC_5_">
	</g>
	<g id="Mastercard_5_">
	</g>
	<g id="Visa_6_">
	</g>
	<g id="Discover">
	</g>
	<g id="Amex_3_">
	</g>
	<g id="Bitcoin_3_">
	</g>
	<g id="Google_Wallet_5_">
	</g>
	<g id="PayPal_3_">
	</g>
	<g id="Square_Payment_1_">
	</g>
	<g id="Shop_5_">
	</g>
	<g id="Postage">
	</g>
	<g id="Package_7_">
	</g>
	<g id="Discount_3_">
		<g id="Discount">
			<g>
				<path fill-rule="evenodd" clip-rule="evenodd" fill="#E74C3C" d="M19.2,6.5L7.6,7.6L6.5,19.2l14.3,14.3l12.8-12.8L19.2,6.5z
					 M13.8,13.9c-0.8,0.8-2.2,0.8-3,0c-0.8-0.8-0.8-2.2,0-3c0.8-0.8,2.2-0.8,3,0S14.6,13.1,13.8,13.9z"/>
			</g>
		</g>
		<g id="Discount_1_">
			<g>
				<path fill-rule="evenodd" clip-rule="evenodd" fill="#F1C40F" d="M19.2,17.9c0-1.5-0.9-2.4-2.4-2.4c-1.5,0-2.4,0.9-2.4,2.4
					c0,1.5,0.9,2.4,2.3,2.4S19.2,19.4,19.2,17.9z M16.2,17.9c0-0.7,0.3-1.1,0.7-1.1s0.7,0.4,0.7,1.1c0,0.7-0.3,1.1-0.7,1.1
					C16.4,19,16.2,18.6,16.2,17.9z M22.5,15.6l-6.9,8.8h1.9l6.9-8.8H22.5z M23.1,19.7c-1.5,0-2.4,0.9-2.4,2.4c0,1.5,0.9,2.4,2.3,2.4
					c1.5,0,2.4-0.9,2.4-2.4C25.5,20.6,24.6,19.7,23.1,19.7z M23.1,23.2c-0.4,0-0.7-0.3-0.7-1.1c0-0.7,0.3-1.1,0.7-1.1
					s0.7,0.4,0.7,1.1C23.8,22.9,23.5,23.2,23.1,23.2z"/>
			</g>
		</g>
		
			<circle fill-rule="evenodd" clip-rule="evenodd" fill="none" stroke="#C0392B" stroke-width="2" stroke-miterlimit="10" cx="12.2" cy="12.4" r="2.1"/>
	</g>
	<g id="Earth_3_">
	</g>
	<g id="Barcode_3_">
	</g>
	<g id="Cart_Plus_6_">
	</g>
	<g id="Cart_Minus_6_">
	</g>
	<g id="Cart_4_">
	</g>
	<g id="Receipt_5_">
	</g>
	<g id="Truck_9_">
	</g>
	<g id="Calculator_6_">
	</g>
	<g id="Euro_Symbol">
	</g>
	<g id="Cent_Symbol">
	</g>
	<g id="Dollar_Symbol">
	</g>
	<g id="Pound_Symbol">
	</g>
	<g id="Bank_5_">
	</g>
	<g id="Wallet_3_">
	</g>
	<g id="Coins_6_">
	</g>
	<g id="Bills_6_">
	</g>
	<g id="Dollar_Alt">
	</g>
	<g id="Dollar">
	</g>
</g>
<g id="Lockup">
</g>
</svg>
