<?xml version="1.0" encoding="utf-8"?>
<!-- Generator: Adobe Illustrator 18.0.0, SVG Export Plug-In . SVG Version: 6.00 Build 0)  -->
<!DOCTYPE svg PUBLIC "-//W3C//DTD SVG 1.1//EN" "http://www.w3.org/Graphics/SVG/1.1/DTD/svg11.dtd">
<svg version="1.1" xmlns="http://www.w3.org/2000/svg" xmlns:xlink="http://www.w3.org/1999/xlink" x="0px" y="0px"
	 viewBox="0 0 40 40" enable-background="new 0 0 40 40" xml:space="preserve">
<g id="E-Com">
	<g id="CVC_5_">
	</g>
	<g id="Mastercard_5_">
	</g>
	<g id="Visa_6_">
	</g>
	<g id="Discover">
	</g>
	<g id="Amex_3_">
	</g>
	<g id="Bitcoin_3_">
	</g>
	<g id="Google_Wallet_5_">
	</g>
	<g id="PayPal_3_">
	</g>
	<g id="Square_Payment_1_">
	</g>
	<g id="Shop_5_">
	</g>
	<g id="Postage">
	</g>
	<g id="Package_7_">
	</g>
	<g id="Discount_3_">
	</g>
	<g id="Earth_3_">
	</g>
	<g id="Barcode_3_">
	</g>
	<g id="Cart_Plus_6_">
	</g>
	<g id="Cart_Minus_6_">
	</g>
	<g id="Cart_4_">
	</g>
	<g id="Receipt_5_">
	</g>
	<g id="Truck_9_">
	</g>
	<g id="Calculator_6_">
	</g>
	<g id="Euro_Symbol">
	</g>
	<g id="Cent_Symbol">
	</g>
	<g id="Dollar_Symbol">
		<g>
			<g id="Dollar_Symbol_1_">
				<g>
					<path fill-rule="evenodd" clip-rule="evenodd" fill="#2C3E50" d="M21.3,17.9c0,0,0.8-5.2,0.8-5.2c1.3,0.3,2.7,0.8,3.9,1.5
						l1-3.3c-1.3-0.7-2.8-1.3-4.4-1.6L23,6.4h-1.9l-0.4,2.9h-0.6c-4.4,0-7.2,2.4-7.2,5.9c0,3.8,3,5.1,5.8,5.9l-0.8,5.6
						c-1.6-0.3-3.1-0.9-4.4-1.7l-0.9,3.4c1.3,0.8,3,1.4,4.8,1.7c0,0-0.5,3.6-0.5,3.6h1.9l0.5-3.5h0.5c4.7,0,7.6-2.6,7.6-6.2
						C27.4,20.1,24.3,18.8,21.3,17.9z M16.7,14.9c0-1.4,1-2.5,3.5-2.5c0,0,0,0,0.1,0l-0.7,5.1C17.6,16.9,16.7,16.2,16.7,14.9z
						 M19.8,27L19.8,27l0.7-5.5c2.2,0.6,3.1,1.3,3.1,2.8C23.7,25.9,22.2,27,19.8,27z"/>
				</g>
			</g>
		</g>
	</g>
	<g id="Pound_Symbol">
	</g>
	<g id="Bank_5_">
	</g>
	<g id="Wallet_3_">
	</g>
	<g id="Coins_6_">
	</g>
	<g id="Bills_6_">
	</g>
	<g id="Dollar_Alt">
	</g>
	<g id="Dollar">
	</g>
</g>
<g id="Lockup">
</g>
</svg>
