<?xml version="1.0" encoding="utf-8"?>
<!-- Generator: Adobe Illustrator 18.0.0, SVG Export Plug-In . SVG Version: 6.00 Build 0)  -->
<!DOCTYPE svg PUBLIC "-//W3C//DTD SVG 1.1//EN" "http://www.w3.org/Graphics/SVG/1.1/DTD/svg11.dtd">
<svg version="1.1" xmlns="http://www.w3.org/2000/svg" xmlns:xlink="http://www.w3.org/1999/xlink" x="0px" y="0px"
	 viewBox="0 0 40 40" enable-background="new 0 0 40 40" xml:space="preserve">
<g id="E-Com">
	<g id="CVC_5_">
	</g>
	<g id="Mastercard_5_">
	</g>
	<g id="Visa_6_">
	</g>
	<g id="Discover">
	</g>
	<g id="Amex_3_">
	</g>
	<g id="Bitcoin_3_">
	</g>
	<g id="Google_Wallet_5_">
	</g>
	<g id="PayPal_3_">
	</g>
	<g id="Square_Payment_1_">
	</g>
	<g id="Shop_5_">
	</g>
	<g id="Postage">
	</g>
	<g id="Package_7_">
	</g>
	<g id="Discount_3_">
	</g>
	<g id="Earth_3_">
	</g>
	<g id="Barcode_3_">
	</g>
	<g id="Cart_Plus_6_">
	</g>
	<g id="Cart_Minus_6_">
	</g>
	<g id="Cart_4_">
	</g>
	<g id="Receipt_5_">
	</g>
	<g id="Truck_9_">
	</g>
	<g id="Calculator_6_">
	</g>
	<g id="Euro_Symbol">
	</g>
	<g id="Cent_Symbol">
	</g>
	<g id="Dollar_Symbol">
	</g>
	<g id="Pound_Symbol">
	</g>
	<g id="Bank_5_">
	</g>
	<g id="Wallet_3_">
	</g>
	<g id="Coins_6_">
	</g>
	<g id="Bills_6_">
	</g>
	<g id="Dollar_Alt">
	</g>
	<g id="Dollar">
		<g>
			<g id="Dollar_5_">
				<g>
					<path fill-rule="evenodd" clip-rule="evenodd" fill="#ECF0F1" d="M24.7,9l-1.7,3.3c-1.8,3.5-3.7,4.2-6.3,5.3
						c-3.2,1.3-7.2,2.9-10.2,9.3L5,29.7L20.5,39l1.6-3.7c1.7-3.9,3.6-4.7,6.5-5.8c3.1-1.2,7-2.8,9.9-8.4l1.5-2.9L24.7,9z"/>
				</g>
			</g>
			<g id="Dollar_2_">
				<g>
					<path fill-rule="evenodd" clip-rule="evenodd" fill="#2ECC71" d="M22.2,2l-1.7,3.3c-1.8,3.5-3.7,4.2-6.3,5.3
						c-3.2,1.3-7.2,2.9-10.2,9.3l-1.4,2.9L18,32l1.6-3.7c1.7-3.9,3.6-4.7,6.5-5.8c3.1-1.2,7-2.8,9.9-8.4l1.5-2.9L22.2,2z"/>
				</g>
			</g>
			<g id="Dollar_1_">
				<g>
					<path fill-rule="evenodd" clip-rule="evenodd" fill="#27AE60" d="M23,4.8l-0.7,1.4c-2.2,4.1-4.6,5.1-7.3,6.2
						c-3,1.2-6.5,2.6-9.2,8.3L5.1,22l12,7.1l0.7-1.6c2-4.7,4.6-5.7,7.6-6.9c3-1.2,6.3-2.5,8.9-7.5l0.7-1.3L23,4.8z M23.6,19.6
						c-3,1.2-5.6,2.2-7.6,6.9l-8.6-4.8c2.7-5.7,6.2-7.1,9.2-8.3c2.8-1.1,5.1-2.1,7.3-6.2l8.5,5C29.9,17.1,26.6,18.4,23.6,19.6z"/>
				</g>
			</g>
		</g>
		<ellipse fill-rule="evenodd" clip-rule="evenodd" fill="#27AE60" cx="19.8" cy="16.5" rx="3.5" ry="2.5"/>
	</g>
</g>
<g id="Lockup">
</g>
</svg>
