<?xml version="1.0" encoding="utf-8"?>
<!-- Generator: Adobe Illustrator 18.0.0, SVG Export Plug-In . SVG Version: 6.00 Build 0)  -->
<!DOCTYPE svg PUBLIC "-//W3C//DTD SVG 1.1//EN" "http://www.w3.org/Graphics/SVG/1.1/DTD/svg11.dtd">
<svg version="1.1" xmlns="http://www.w3.org/2000/svg" xmlns:xlink="http://www.w3.org/1999/xlink" x="0px" y="0px"
	 viewBox="0 0 40 40" enable-background="new 0 0 40 40" xml:space="preserve">
<g id="E-Com">
	<g id="CVC_5_">
	</g>
	<g id="Mastercard_5_">
	</g>
	<g id="Visa_6_">
	</g>
	<g id="Discover">
	</g>
	<g id="Amex_3_">
	</g>
	<g id="Bitcoin_3_">
	</g>
	<g id="Google_Wallet_5_">
	</g>
	<g id="PayPal_3_">
	</g>
	<g id="Square_Payment_1_">
	</g>
	<g id="Shop_5_">
	</g>
	<g id="Postage">
	</g>
	<g id="Package_7_">
	</g>
	<g id="Discount_3_">
	</g>
	<g id="Earth_3_">
		<path fill="#34495E" d="M20,7.5C13.1,7.5,7.5,13.1,7.5,20c0,6.9,5.6,12.5,12.5,12.5c6.9,0,12.5-5.6,12.5-12.5
			C32.5,13.1,26.9,7.5,20,7.5z"/>
		<path id="_x3C_Path_x3E__25_" fill="#1ABC9C" d="M14.3,26.4c0,0.4-0.1,1.2,0,1.2l0.2,1.3c0,0,0.1,0.1,0.1,0.2c0,0,0.1,0,0.1,0.1
			c0,0,0,0,0,0c0,0,0.1,0,0.1,0.1l0.9-0.4c0,0-0.5-0.4-0.2-0.5c0.1,0,0.2-0.2,0.1-0.2l-0.2-0.4l0.5-0.3l1.2-1.7c0-0.1-0.2-0.5,0-0.5
			c0-0.1,0.2-0.2,0.2-0.1c0,0,0,0,0,0c0,0,0.2-0.1,0.2-0.2c0,0.1,0.4-0.1,0.4-0.1c0,0,0.1-0.3,0.2-0.3c0.1-0.2-0.1-1.2,0.2-1.3
			c0,0,0.5-0.9,0.3-1.2c0,0,0,0,0,0c0,0,0,0,0,0c-0.1,0-0.1-0.1-0.1,0c-0.2,0-1.8-0.8-1.8-0.8c-0.1,0-0.1,0-0.2-0.1
			c0,0-0.1-0.5-0.1-0.5c-0.2-0.1-0.5-0.4-0.7-0.3l-1.5-0.7l-0.6-0.3l-0.9,0.5c0-0.1-0.4,0-0.5,0.1c-0.2,0.1-0.3-0.5-0.3-0.5
			c0,0,0-1-0.2-0.7c0,0-0.5,0.1-0.5,0l0.3-0.7c0,0,0.1,0,0.1-0.1c-0.1,0-0.2-0.2-0.1-0.1c-0.6-0.1-0.3,0.5-0.9,0.5
			c-0.1,0-0.7-0.6-0.4-0.7c-0.1-0.1,0.3-0.8,0.3-0.8l1.7-0.2c-0.1,0,0.4,0.3,0.2,0.3c0,0.1,0.2,0.5,0.2,0.5c0,0,0,0,0,0
			c0,0,0.1-1.3,0.6-1.4l1.6-1.5c0-0.1,0.4-0.1,0.5-0.2c0,0,0-0.1,0-0.1c0,0,0.2,0,0.2,0c-0.3,0.1-0.2,0.4,0,0.2l1.4-1.2
			c0,0,0.2-0.2,0.2-0.3c-0.1-0.1-0.1-0.1-0.2-0.2c0.2,0-0.3-0.1-0.3-0.3c0,0,0,0,0,0c0.2-0.1,0-0.6-0.1-0.5c0-0.1,0,0,0,0
			c-0.2,0.1-0.2,0.3-0.5,0.1c0.1-0.1,0.1-0.2,0.2-0.3c-0.1,0-0.3-0.3-0.4-0.2c0,0,0,0,0.1,0c-0.1,0.1-0.3-0.1-0.4,0
			c0,0-0.2,0.2-0.1,0.2c0,0-0.1,0.1-0.1,0.1c0.1,0,0.1,0.1,0.1,0.1C15,12,15,12,14.9,12.1c0.3,0.1-0.1,0.4-0.2,0.5
			c-0.2,0.2-0.2,0.1-0.3,0.3c-0.1,0.1-0.1,0.2-0.2,0.3c-0.1,0.2-0.4-0.4-0.1-0.2c0.1-0.1-0.1-0.1-0.1-0.1c0,0,0.1-0.2,0.1-0.2
			c-0.1,0-0.2-0.1-0.3,0c0,0,0,0,0,0c0,0,0,0,0,0h0c-0.1,0-0.4-0.2-0.4-0.3c0,0,0,0-0.1,0c0.1,0-0.2,0-0.2,0c0,0,0.1-0.2,0.1-0.2
			c0,0,0,0,0,0c-0.4,0.3-1.2,1.2-1.2,1.2c-1.2,1.4-2.1,3.2-2.4,5.1c0.2,0.1,0.4,0.2,0.4,0.3c0.4-0.1,0.9,0.2,1.3,0.5
			c0-0.1,0.3,0.3,0.3,0.3c0,0.1,0.1,0.3,0.1,0.1c0,0,0.2,0.3,0.2,0.3l0.3,0.1c0,0,0.1-0.3,0.1-0.2c0-0.1,0.3,0.1,0.1,0.1
			c0,0.1,0.2,0.5,0.1,0.4c0,0.3,0,0.2-0.1,0.4c0,0-0.1,0.1-0.1,0.1c0-0.1,0,0.2,0,0.2c0,0-0.2,0.2-0.2,0.2c0.1,0,0,0.5,0,0.5
			c0-0.1,0-0.1,0.1-0.1c0,0.1,0.1,0,0.1,0c0,0.2-0.2,0.3-0.2,0.5c0.1,0,0.1,0.1,0.1,0.1c0.1,0,0.1,0.2,0.2,0.2
			c0.1,0.5,0.7,0.9,0.7,1.3c0,0,0.1,0,0.1,0c0-0.1,0.8,0.2,0.8,0.5C14.2,24.5,14.3,26.1,14.3,26.4z"/>
		<path id="_x3C_Path_x3E__24_" fill="#1ABC9C" d="M30.4,18.9c-0.3-2.8-1.7-5.2-3.7-6.9c-0.2,0-0.3,0-0.6,0.1c0,0,0,0.1,0.1,0.2
			c-0.1-0.3,0.5,0.2,0.2,0.1c-0.1-0.1-0.2,0-0.3,0c0,0-0.2,0.4-0.2,0.4s-0.5,0.1-0.5,0c0,0-0.1,0-0.1,0l0.5-0.7
			c0-0.1-0.2-0.2-0.1-0.4c0,0,0,0,0,0c0,0,0.1-0.2,0.1-0.2c0.1,0,0.1,0,0.2-0.1c-0.2-0.2-0.5-0.3-0.7-0.5c-0.2,0.2-0.4,0.5-0.6,0.5
			c-0.6,0.1-0.3,1.1,0.3,0.5c0.1,0,0.2,0.4,0.2,0.4c0,0.1-0.2,0.2-0.3,0.1c0,0,0.1-0.1,0.1-0.1c-0.1,0-0.1-0.1,0-0.2
			c-0.4,0-0.3,0.4-0.2,0.6c0,0-0.2,0.1-0.2,0.1c0,0-0.2,0-0.2,0l-0.9,0.5c0,0,0,0.1,0,0.2c-0.6,0-0.2,0.1-0.2,0.2c0.1,0,0,0,0.1,0
			c0,0.1,0.1,0.2,0.2,0.3c0,0-0.1,0.3-0.1,0.3c-0.2,0.1-0.4,0-0.6,0c-0.4,0-0.3,0.4-0.4,0.7c0,0.1,0,0.1,0.1,0.3
			c0.1-0.1,0.5,0,0.4,0.2c0.1,0.1-0.3,0.4-0.4,0.4c0,0,0,0.1-0.1,0.1c0,0-0.1,0.2,0,0.1c0,0-0.2,0.3-0.1,0.3c0.1,0-0.1,0.1,0,0.1
			c0,0.1-1.4,1.3-1,1.5c0.1-0.1,0.1,0.5,0,0.7c0,0.1,0,1.1,0.4,1c0.3,0.2,0.3,0.9,1,0.8c0.3,0,1.5-0.4,1.6-0.1
			c0.2,0.3,0.6-0.1,0.6,0.4c0,0.2,0,0.3,0,0.4c-0.1,0.3,0.1,0.3,0.1,0.6c0.2-0.1,0.7,1.4,0.3,1.6c-0.4,0,0.4,2,0.3,2
			c0,0.1,0.3,0.5,0.3,0.6c0.1,0.2,0.9,0.7,1.1,0.6c0.5-0.1,0.8-0.7,0.8-0.7s0.6-0.7,0.6-1.2c0-0.2,0.3-0.7,0.3-0.7l0.3-1.3V22
			l0.5-0.7l0.6-0.6c0,0,0.3-0.5,0.4-0.7c0-0.2,0-0.3,0-0.5L30.4,18.9z M25.5,24.7L25.5,24.7L25.5,24.7z"/>
	</g>
	<g id="Barcode_3_">
	</g>
	<g id="Cart_Plus_6_">
	</g>
	<g id="Cart_Minus_6_">
	</g>
	<g id="Cart_4_">
	</g>
	<g id="Receipt_5_">
	</g>
	<g id="Truck_9_">
	</g>
	<g id="Calculator_6_">
	</g>
	<g id="Euro_Symbol">
	</g>
	<g id="Cent_Symbol">
	</g>
	<g id="Dollar_Symbol">
	</g>
	<g id="Pound_Symbol">
	</g>
	<g id="Bank_5_">
	</g>
	<g id="Wallet_3_">
	</g>
	<g id="Coins_6_">
	</g>
	<g id="Bills_6_">
	</g>
	<g id="Dollar_Alt">
	</g>
	<g id="Dollar">
	</g>
</g>
<g id="Lockup">
</g>
</svg>
