<?xml version="1.0" encoding="utf-8"?>
<!-- Generator: Adobe Illustrator 18.0.0, SVG Export Plug-In . SVG Version: 6.00 Build 0)  -->
<!DOCTYPE svg PUBLIC "-//W3C//DTD SVG 1.1//EN" "http://www.w3.org/Graphics/SVG/1.1/DTD/svg11.dtd">
<svg version="1.1" xmlns="http://www.w3.org/2000/svg" xmlns:xlink="http://www.w3.org/1999/xlink" x="0px" y="0px"
	 viewBox="0 0 40 40" enable-background="new 0 0 40 40" xml:space="preserve">
<g id="E-Com">
	<g id="CVC_5_">
	</g>
	<g id="Mastercard_5_">
	</g>
	<g id="Visa_6_">
	</g>
	<g id="Discover">
	</g>
	<g id="Amex_3_">
	</g>
	<g id="Bitcoin_3_">
	</g>
	<g id="Google_Wallet_5_">
	</g>
	<g id="PayPal_3_">
	</g>
	<g id="Square_Payment_1_">
	</g>
	<g id="Shop_5_">
	</g>
	<g id="Postage">
	</g>
	<g id="Package_7_">
	</g>
	<g id="Discount_3_">
	</g>
	<g id="Earth_3_">
	</g>
	<g id="Barcode_3_">
	</g>
	<g id="Cart_Plus_6_">
	</g>
	<g id="Cart_Minus_6_">
	</g>
	<g id="Cart_4_">
	</g>
	<g id="Receipt_5_">
	</g>
	<g id="Truck_9_">
	</g>
	<g id="Calculator_6_">
	</g>
	<g id="Euro_Symbol">
		<g>
			<g id="Euro_Symbol_1_">
				<g>
					<path fill-rule="evenodd" clip-rule="evenodd" fill="#2C3E50" d="M18.6,27.2L18.6,27.2c0.8-0.8,1.4-1.7,1.7-2.5
						c0.2-0.8,0.3-1.6,0.3-2.5H25v-3.6l-4.8,0c-0.2-0.9-0.3-1.7-0.3-2.6c0-1.7,0.8-3.3,3.3-3.3c1.3,0,2.3,0.2,3,0.6l0.8-4
						c-0.8-0.4-2.2-0.8-4.1-0.8c-4.7,0-7.9,2.9-7.9,7.2c0,1,0.1,1.9,0.3,2.8h-2.8v3.6h3.4c0.1,0.4,0.1,0.9,0.1,1.4
						c0,2.4-2,4.3-3.9,5.1v2.8h16v-4.3L18.6,27.2z"/>
				</g>
			</g>
		</g>
	</g>
	<g id="Cent_Symbol">
	</g>
	<g id="Dollar_Symbol">
	</g>
	<g id="Pound_Symbol">
	</g>
	<g id="Bank_5_">
	</g>
	<g id="Wallet_3_">
	</g>
	<g id="Coins_6_">
	</g>
	<g id="Bills_6_">
	</g>
	<g id="Dollar_Alt">
	</g>
	<g id="Dollar">
	</g>
</g>
<g id="Lockup">
</g>
</svg>
