<?xml version="1.0" encoding="utf-8"?>
<!-- Generator: Adobe Illustrator 18.0.0, SVG Export Plug-In . SVG Version: 6.00 Build 0)  -->
<!DOCTYPE svg PUBLIC "-//W3C//DTD SVG 1.1//EN" "http://www.w3.org/Graphics/SVG/1.1/DTD/svg11.dtd">
<svg version="1.1" xmlns="http://www.w3.org/2000/svg" xmlns:xlink="http://www.w3.org/1999/xlink" x="0px" y="0px"
	 viewBox="0 0 40 40" enable-background="new 0 0 40 40" xml:space="preserve">
<g id="E-Com">
	<g id="CVC_5_">
	</g>
	<g id="Mastercard_5_">
	</g>
	<g id="Visa_6_">
	</g>
	<g id="Discover">
	</g>
	<g id="Amex_3_">
	</g>
	<g id="Bitcoin_3_">
	</g>
	<g id="Google_Wallet_5_">
		<g id="Google_Wallet">
			<g>
				<path fill-rule="evenodd" clip-rule="evenodd" fill="#3498D8" d="M11.2,13.2c-1.4-0.7-3.1-0.3-3.8,1.1c-0.7,1.3-0.2,3,1.1,3.7
					c0.1,0,6.5,3.5,6.5,9.6c0,1.5,1.2,2.6,2.8,2.6h0c1.5,0,2.8-1.1,2.8-2.6C20.6,18.2,11.5,13.4,11.2,13.2z"/>
			</g>
		</g>
		<g id="Google_Wallet_1_">
			<g>
				<path fill-rule="evenodd" clip-rule="evenodd" fill="#E74C3C" d="M20.5,11.4c-0.7-1.4-2.4-1.9-3.8-1.3c-1.4,0.7-2,2.3-1.3,3.7
					c0,0.1,3.5,7.3,0,12.3c-0.9,1.2-0.6,3,0.7,3.8c0.5,0.3,1.1,0.5,1.6,0.5c0.9,0,1.8-0.4,2.3-1.2C25.5,21.6,20.7,11.8,20.5,11.4z"
					/>
			</g>
		</g>
		<g id="Google_Wallet_2_">
			<g>
				<path fill-rule="evenodd" clip-rule="evenodd" fill="#F1C40F" d="M19.4,10.1c-1.4-0.8-3.2-0.3-4,1.1c-0.8,1.4-0.3,3.1,1.2,3.9
					c0.1,0,8.6,4.7,8,15.2c-0.1,1.6,1.1,2.9,2.8,3c0.1,0,0.1,0,0.2,0c1.5,0,2.8-1.2,2.9-2.7C31.2,16.7,19.9,10.4,19.4,10.1z"/>
			</g>
		</g>
		<g id="Google_Wallet_3_">
			<g>
				<path fill-rule="evenodd" clip-rule="evenodd" fill="#2ECC71" d="M30.4,8.1c-0.8-1.4-2.5-2-4-1.2c-1.4,0.7-2,2.5-1.3,3.9
					c0,0.1,4.5,8.7-0.2,18.7c-0.7,1.4,0,3.2,1.4,3.8c0.4,0.2,0.8,0.3,1.2,0.3c1.1,0,2.2-0.6,2.7-1.7C36.2,19.3,30.6,8.5,30.4,8.1z"
					/>
			</g>
		</g>
	</g>
	<g id="PayPal_3_">
	</g>
	<g id="Square_Payment_1_">
	</g>
	<g id="Shop_5_">
	</g>
	<g id="Postage">
	</g>
	<g id="Package_7_">
	</g>
	<g id="Discount_3_">
	</g>
	<g id="Earth_3_">
	</g>
	<g id="Barcode_3_">
	</g>
	<g id="Cart_Plus_6_">
	</g>
	<g id="Cart_Minus_6_">
	</g>
	<g id="Cart_4_">
	</g>
	<g id="Receipt_5_">
	</g>
	<g id="Truck_9_">
	</g>
	<g id="Calculator_6_">
	</g>
	<g id="Euro_Symbol">
	</g>
	<g id="Cent_Symbol">
	</g>
	<g id="Dollar_Symbol">
	</g>
	<g id="Pound_Symbol">
	</g>
	<g id="Bank_5_">
	</g>
	<g id="Wallet_3_">
	</g>
	<g id="Coins_6_">
	</g>
	<g id="Bills_6_">
	</g>
	<g id="Dollar_Alt">
	</g>
	<g id="Dollar">
	</g>
</g>
<g id="Lockup">
</g>
</svg>
