<?xml version="1.0" encoding="utf-8"?>
<!-- Generator: Adobe Illustrator 18.0.0, SVG Export Plug-In . SVG Version: 6.00 Build 0)  -->
<!DOCTYPE svg PUBLIC "-//W3C//DTD SVG 1.1//EN" "http://www.w3.org/Graphics/SVG/1.1/DTD/svg11.dtd">
<svg version="1.1" xmlns="http://www.w3.org/2000/svg" xmlns:xlink="http://www.w3.org/1999/xlink" x="0px" y="0px"
	 viewBox="0 0 40 40" enable-background="new 0 0 40 40" xml:space="preserve">
<g id="E-Com">
	<g id="CVC_5_">
	</g>
	<g id="Mastercard_5_">
	</g>
	<g id="Visa_6_">
	</g>
	<g id="Discover">
	</g>
	<g id="Amex_3_">
	</g>
	<g id="Bitcoin_3_">
	</g>
	<g id="Google_Wallet_5_">
	</g>
	<g id="PayPal_3_">
	</g>
	<g id="Square_Payment_1_">
	</g>
	<g id="Shop_5_">
	</g>
	<g id="Postage">
	</g>
	<g id="Package_7_">
		<g id="Package">
			<g>
				<rect x="7.5" y="15" fill-rule="evenodd" clip-rule="evenodd" fill="#9B59B6" width="25" height="17"/>
			</g>
		</g>
		<g id="Package_1_">
			<g>
				<polygon fill-rule="evenodd" clip-rule="evenodd" fill="#8E44AD" points="27.5,8 12.5,8 7.5,15 32.5,15 				"/>
			</g>
		</g>
		<g id="Package_2_">
			<g>
				<rect x="10.5" y="24" fill-rule="evenodd" clip-rule="evenodd" fill="#ECF0F1" width="9" height="5"/>
			</g>
		</g>
		<g id="Package_4_">
			<g>
				<polygon fill-rule="evenodd" clip-rule="evenodd" fill="#ECF0F1" points="26.5,23 23.5,27 25.5,27 25.5,29 27.5,29 27.5,27 
					29.5,27 				"/>
			</g>
		</g>
		<g id="Package_5_">
			<g>
				<path fill-rule="evenodd" clip-rule="evenodd" fill="#ECF0F1" d="M20.5,8h-1l-2,7h5L20.5,8z M17.5,18h1v-1h1v1h1l0-1h1l0,1h1v-3
					h-5V18z M17.5,15L17.5,15L17.5,15L17.5,15z M22.5,15L22.5,15L22.5,15L22.5,15z"/>
			</g>
		</g>
	</g>
	<g id="Discount_3_">
	</g>
	<g id="Earth_3_">
	</g>
	<g id="Barcode_3_">
	</g>
	<g id="Cart_Plus_6_">
	</g>
	<g id="Cart_Minus_6_">
	</g>
	<g id="Cart_4_">
	</g>
	<g id="Receipt_5_">
	</g>
	<g id="Truck_9_">
	</g>
	<g id="Calculator_6_">
	</g>
	<g id="Euro_Symbol">
	</g>
	<g id="Cent_Symbol">
	</g>
	<g id="Dollar_Symbol">
	</g>
	<g id="Pound_Symbol">
	</g>
	<g id="Bank_5_">
	</g>
	<g id="Wallet_3_">
	</g>
	<g id="Coins_6_">
	</g>
	<g id="Bills_6_">
	</g>
	<g id="Dollar_Alt">
	</g>
	<g id="Dollar">
	</g>
</g>
<g id="Lockup">
</g>
</svg>
