<?xml version="1.0" encoding="utf-8"?>
<!-- Generator: Adobe Illustrator 18.0.0, SVG Export Plug-In . SVG Version: 6.00 Build 0)  -->
<!DOCTYPE svg PUBLIC "-//W3C//DTD SVG 1.1//EN" "http://www.w3.org/Graphics/SVG/1.1/DTD/svg11.dtd">
<svg version="1.1" xmlns="http://www.w3.org/2000/svg" xmlns:xlink="http://www.w3.org/1999/xlink" x="0px" y="0px"
	 viewBox="0 0 40 40" enable-background="new 0 0 40 40" xml:space="preserve">
<g id="E-Com">
	<g id="CVC_5_">
	</g>
	<g id="Mastercard_5_">
	</g>
	<g id="Visa_6_">
	</g>
	<g id="Discover">
	</g>
	<g id="Amex_3_">
	</g>
	<g id="Bitcoin_3_">
	</g>
	<g id="Google_Wallet_5_">
	</g>
	<g id="PayPal_3_">
		<g id="PayPal">
			<g>
				<path fill-rule="evenodd" clip-rule="evenodd" fill="#2C3E50" d="M31.9,15.1c-0.4-0.7-0.9-1.3-1.7-1.7c-0.3-0.2-0.6-0.3-1-0.5
					c0.2,0.6,0.4,1.3,0.4,2.1c0,2.4-1,4.4-3.1,5.9c-2,1.5-4.9,2.2-8.6,2.2h-0.9c-0.6,0-1.3,0.5-1.4,1.1l-1,4.4
					c-0.1,0.6-0.8,1.1-1.4,1.1h-0.7l-0.4,1.7c-0.1,0.6,0.3,1.1,0.9,1.1h3c0.6,0,1.3-0.5,1.4-1.1l1-4.4c0.1-0.6,0.8-1.1,1.4-1.1h0.9
					c3.7,0,6.5-0.7,8.6-2.2c2-1.5,3.1-3.4,3.1-5.9C32.5,16.7,32.3,15.8,31.9,15.1z"/>
			</g>
		</g>
		<g id="PayPal_1_">
			<g>
				<path fill-rule="evenodd" clip-rule="evenodd" fill="#3498D8" d="M27.2,10.5c-0.4-0.7-0.9-1.3-1.7-1.7C24.8,8.3,24,8,23,7.8
					c-1-0.2-2.2-0.3-3.5-0.3h-6.3c-0.6,0-1.3,0.5-1.4,1.1L7.5,26.7c-0.1,0.6,0.3,1.1,0.9,1.1h3c0.6,0,1.3-0.5,1.4-1.1l1-4.4
					c0.1-0.6,0.8-1.1,1.4-1.1h0.9c3.7,0,6.5-0.7,8.6-2.2c2-1.5,3.1-3.4,3.1-5.9C27.8,12.1,27.6,11.2,27.2,10.5z M20.8,16.4
					c-0.9,0.7-2.2,1-3.8,1h-0.7c-0.6,0-1.1-0.5-0.9-1.1l0.9-3.8c0.1-0.6,0.8-1.1,1.4-1.1h1c1.1,0,2,0.2,2.6,0.6
					c0.6,0.4,0.9,1,0.9,1.8C22.1,14.8,21.7,15.7,20.8,16.4z"/>
			</g>
		</g>
	</g>
	<g id="Square_Payment_1_">
	</g>
	<g id="Shop_5_">
	</g>
	<g id="Postage">
	</g>
	<g id="Package_7_">
	</g>
	<g id="Discount_3_">
	</g>
	<g id="Earth_3_">
	</g>
	<g id="Barcode_3_">
	</g>
	<g id="Cart_Plus_6_">
	</g>
	<g id="Cart_Minus_6_">
	</g>
	<g id="Cart_4_">
	</g>
	<g id="Receipt_5_">
	</g>
	<g id="Truck_9_">
	</g>
	<g id="Calculator_6_">
	</g>
	<g id="Euro_Symbol">
	</g>
	<g id="Cent_Symbol">
	</g>
	<g id="Dollar_Symbol">
	</g>
	<g id="Pound_Symbol">
	</g>
	<g id="Bank_5_">
	</g>
	<g id="Wallet_3_">
	</g>
	<g id="Coins_6_">
	</g>
	<g id="Bills_6_">
	</g>
	<g id="Dollar_Alt">
	</g>
	<g id="Dollar">
	</g>
</g>
<g id="Lockup">
</g>
</svg>
