<?xml version="1.0" encoding="utf-8"?>
<!-- Generator: Adobe Illustrator 18.0.0, SVG Export Plug-In . SVG Version: 6.00 Build 0)  -->
<!DOCTYPE svg PUBLIC "-//W3C//DTD SVG 1.1//EN" "http://www.w3.org/Graphics/SVG/1.1/DTD/svg11.dtd">
<svg version="1.1" xmlns="http://www.w3.org/2000/svg" xmlns:xlink="http://www.w3.org/1999/xlink" x="0px" y="0px"
	 viewBox="0 0 40 40" enable-background="new 0 0 40 40" xml:space="preserve">
<g id="E-Com">
	<g id="CVC_5_">
	</g>
	<g id="Mastercard_5_">
	</g>
	<g id="Visa_6_">
	</g>
	<g id="Discover">
	</g>
	<g id="Amex_3_">
	</g>
	<g id="Bitcoin_3_">
	</g>
	<g id="Google_Wallet_5_">
	</g>
	<g id="PayPal_3_">
	</g>
	<g id="Square_Payment_1_">
	</g>
	<g id="Shop_5_">
	</g>
	<g id="Postage">
		<g id="Postage_5_">
			<g>
				<path fill-rule="evenodd" clip-rule="evenodd" fill="#E74C3C" d="M35,7.3V5h-2.3c0,1.3-1,2.3-2.3,2.3c-1.3,0-2.3-1-2.3-2.3h-2.3
					c0,1.3-1,2.3-2.3,2.3c-1.3,0-2.3-1-2.3-2.3h-2.3c0,1.3-1,2.3-2.3,2.3c-1.3,0-2.3-1-2.3-2.3h-2.3c0,1.3-1,2.3-2.3,2.3
					c-1.3,0-2.3-1-2.3-2.3H5v2.3c1.3,0,2.3,1,2.3,2.3c0,1.3-1,2.3-2.3,2.3v2.3c1.3,0,2.3,1,2.3,2.3c0,1.3-1,2.3-2.3,2.3v2.3
					c1.3,0,2.3,1,2.3,2.3c0,1.3-1,2.3-2.3,2.3v2.3c1.3,0,2.3,1,2.3,2.3c0,1.3-1,2.3-2.3,2.3V35h2.3c0-1.3,1-2.3,2.3-2.3
					c1.3,0,2.3,1,2.3,2.3h2.3c0-1.3,1-2.3,2.3-2.3c1.3,0,2.3,1,2.3,2.3h2.3c0-1.3,1-2.3,2.3-2.3c1.3,0,2.3,1,2.3,2.3h2.3
					c0-1.3,1-2.3,2.3-2.3c1.3,0,2.3,1,2.3,2.3H35v-2.3c-1.3,0-2.3-1-2.3-2.3c0-1.3,1-2.3,2.3-2.3v-2.3c-1.3,0-2.3-1-2.3-2.3
					c0-1.3,1-2.3,2.3-2.3v-2.3c-1.3,0-2.3-1-2.3-2.3c0-1.3,1-2.3,2.3-2.3v-2.3c-1.3,0-2.3-1-2.3-2.3C32.7,8.3,33.7,7.3,35,7.3z"/>
			</g>
		</g>
		<g id="Plane">
			<g>
				<polygon fill-rule="evenodd" clip-rule="evenodd" fill="#C0392B" points="24.8,17.2 22.7,15.1 13.5,12 11.3,14.3 18.7,19 
					20.9,21.2 25.6,28.7 27.8,26.5 				"/>
			</g>
		</g>
		<g id="Plane_1_">
			<g>
				<path fill-rule="evenodd" clip-rule="evenodd" fill="#C0392B" d="M28.6,11.3c-0.6-0.6-2-0.2-2.6,0.4L14,23.6l2.3,2.3L28.3,14
					C28.9,13.4,29.3,11.9,28.6,11.3z"/>
			</g>
		</g>
		<g id="Plane_2_">
			<g>
				<polygon fill-rule="evenodd" clip-rule="evenodd" fill="#C0392B" points="17.2,25 15,22.8 11.6,21.5 10.5,22.7 14.4,25.7 
					17.3,29.6 18.4,28.5 				"/>
			</g>
		</g>
	</g>
	<g id="Package_7_">
	</g>
	<g id="Discount_3_">
	</g>
	<g id="Earth_3_">
	</g>
	<g id="Barcode_3_">
	</g>
	<g id="Cart_Plus_6_">
	</g>
	<g id="Cart_Minus_6_">
	</g>
	<g id="Cart_4_">
	</g>
	<g id="Receipt_5_">
	</g>
	<g id="Truck_9_">
	</g>
	<g id="Calculator_6_">
	</g>
	<g id="Euro_Symbol">
	</g>
	<g id="Cent_Symbol">
	</g>
	<g id="Dollar_Symbol">
	</g>
	<g id="Pound_Symbol">
	</g>
	<g id="Bank_5_">
	</g>
	<g id="Wallet_3_">
	</g>
	<g id="Coins_6_">
	</g>
	<g id="Bills_6_">
	</g>
	<g id="Dollar_Alt">
	</g>
	<g id="Dollar">
	</g>
</g>
<g id="Lockup">
</g>
</svg>
