<?xml version="1.0" encoding="utf-8"?>
<!-- Generator: Adobe Illustrator 18.0.0, SVG Export Plug-In . SVG Version: 6.00 Build 0)  -->
<!DOCTYPE svg PUBLIC "-//W3C//DTD SVG 1.1//EN" "http://www.w3.org/Graphics/SVG/1.1/DTD/svg11.dtd">
<svg version="1.1" xmlns="http://www.w3.org/2000/svg" xmlns:xlink="http://www.w3.org/1999/xlink" x="0px" y="0px"
	 viewBox="0 0 40 40" enable-background="new 0 0 40 40" xml:space="preserve">
<g id="E-Com">
	<g id="CVC_5_">
	</g>
	<g id="Mastercard_5_">
	</g>
	<g id="Visa_6_">
	</g>
	<g id="Discover">
	</g>
	<g id="Amex_3_">
	</g>
	<g id="Bitcoin_3_">
	</g>
	<g id="Google_Wallet_5_">
	</g>
	<g id="PayPal_3_">
	</g>
	<g id="Square_Payment_1_">
	</g>
	<g id="Shop_5_">
	</g>
	<g id="Postage">
	</g>
	<g id="Package_7_">
	</g>
	<g id="Discount_3_">
	</g>
	<g id="Earth_3_">
	</g>
	<g id="Barcode_3_">
	</g>
	<g id="Cart_Plus_6_">
	</g>
	<g id="Cart_Minus_6_">
	</g>
	<g id="Cart_4_">
	</g>
	<g id="Receipt_5_">
	</g>
	<g id="Truck_9_">
	</g>
	<g id="Calculator_6_">
	</g>
	<g id="Euro_Symbol">
	</g>
	<g id="Cent_Symbol">
	</g>
	<g id="Dollar_Symbol">
	</g>
	<g id="Pound_Symbol">
		<g>
			<g id="Pound_Symbol_1_">
				<g>
					<path fill-rule="evenodd" clip-rule="evenodd" fill="#2C3E50" d="M28.2,26.4c-0.7,0.4-2.3,0.9-3.9,0.9c-1.7,0-3.3-0.5-4.4-1.7
						c-0.5-0.6-0.9-1.4-1.1-2.4h8.7v-2.4h-9.1v-0.5c0-0.4,0-0.7,0-1.1h9.1v-2.4h-8.6c0.2-0.9,0.6-1.7,1.1-2.2
						c1.1-1.3,2.6-1.8,4.2-1.8c1.5,0,2.9,0.4,3.8,0.8l1-3.9c-1.2-0.5-3.1-1-5.2-1c-3.2,0-6,1.3-8,3.5c-1.1,1.2-1.9,2.8-2.4,4.6H11
						v2.4H13c0,0.3,0,0.7,0,1v0.6h-1.9v2.4h2.2c0.3,1.8,1,3.3,1.9,4.4c1.9,2.5,5,3.9,8.4,3.9c2.2,0,4.2-0.6,5.4-1.3L28.2,26.4z"/>
				</g>
			</g>
		</g>
	</g>
	<g id="Bank_5_">
	</g>
	<g id="Wallet_3_">
	</g>
	<g id="Coins_6_">
	</g>
	<g id="Bills_6_">
	</g>
	<g id="Dollar_Alt">
	</g>
	<g id="Dollar">
	</g>
</g>
<g id="Lockup">
</g>
</svg>
