<?xml version="1.0" encoding="utf-8"?>
<!-- Generator: Adobe Illustrator 18.0.0, SVG Export Plug-In . SVG Version: 6.00 Build 0)  -->
<!DOCTYPE svg PUBLIC "-//W3C//DTD SVG 1.1//EN" "http://www.w3.org/Graphics/SVG/1.1/DTD/svg11.dtd">
<svg version="1.1" xmlns="http://www.w3.org/2000/svg" xmlns:xlink="http://www.w3.org/1999/xlink" x="0px" y="0px"
	 viewBox="0 0 40 40" enable-background="new 0 0 40 40" xml:space="preserve">
<g id="E-Com">
	<g id="CVC_5_">
	</g>
	<g id="Mastercard_5_">
	</g>
	<g id="Visa_6_">
	</g>
	<g id="Discover">
	</g>
	<g id="Amex_3_">
	</g>
	<g id="Bitcoin_3_">
	</g>
	<g id="Google_Wallet_5_">
	</g>
	<g id="PayPal_3_">
	</g>
	<g id="Square_Payment_1_">
	</g>
	<g id="Shop_5_">
	</g>
	<g id="Postage">
	</g>
	<g id="Package_7_">
	</g>
	<g id="Discount_3_">
	</g>
	<g id="Earth_3_">
	</g>
	<g id="Barcode_3_">
	</g>
	<g id="Cart_Plus_6_">
	</g>
	<g id="Cart_Minus_6_">
	</g>
	<g id="Cart_4_">
	</g>
	<g id="Receipt_5_">
		<g>
			<g id="Receipt">
				<g>
					<path fill-rule="evenodd" clip-rule="evenodd" fill="#BDC3C7" d="M31,5H9C8.4,5,8,5.4,8,6v29l3.1-3l2.9,3l3-3l3,3l3.1-3l2.9,3
						l3-3l3,3V6C32,5.4,31.6,5,31,5z"/>
				</g>
			</g>
			<g id="Receipt_1_">
				<g>
					<rect x="11" y="10" fill-rule="evenodd" clip-rule="evenodd" fill="#ECF0F1" width="18" height="2"/>
				</g>
			</g>
			<g id="Receipt_2_">
				<g>
					<path fill-rule="evenodd" clip-rule="evenodd" fill="#E74C3C" d="M15,14v2h14v-2H15z M11,16h2v-2h-2V16z"/>
				</g>
			</g>
			<g id="Receipt_3_">
				<g>
					<path fill-rule="evenodd" clip-rule="evenodd" fill="#2C3E50" d="M11,28h2v-8h-2V28z M14,28h1v-8h-1V28z M16,28h1v-8h-1V28z
						 M18,28h1v-8h-1V28z M20,28h2v-8h-2V28z M23,28h1v-8h-1V28z M25,28h1v-8h-1V28z M27,20v8h2v-8H27z"/>
				</g>
			</g>
		</g>
	</g>
	<g id="Truck_9_">
	</g>
	<g id="Calculator_6_">
	</g>
	<g id="Euro_Symbol">
	</g>
	<g id="Cent_Symbol">
	</g>
	<g id="Dollar_Symbol">
	</g>
	<g id="Pound_Symbol">
	</g>
	<g id="Bank_5_">
	</g>
	<g id="Wallet_3_">
	</g>
	<g id="Coins_6_">
	</g>
	<g id="Bills_6_">
	</g>
	<g id="Dollar_Alt">
	</g>
	<g id="Dollar">
	</g>
</g>
<g id="Lockup">
</g>
</svg>
