<?xml version="1.0" encoding="utf-8"?>
<!-- Generator: Adobe Illustrator 18.0.0, SVG Export Plug-In . SVG Version: 6.00 Build 0)  -->
<!DOCTYPE svg PUBLIC "-//W3C//DTD SVG 1.1//EN" "http://www.w3.org/Graphics/SVG/1.1/DTD/svg11.dtd">
<svg version="1.1" xmlns="http://www.w3.org/2000/svg" xmlns:xlink="http://www.w3.org/1999/xlink" x="0px" y="0px"
	 viewBox="0 0 40 40" enable-background="new 0 0 40 40" xml:space="preserve">
<g id="E-Com">
	<g id="CVC_5_">
	</g>
	<g id="Mastercard_5_">
	</g>
	<g id="Visa_6_">
	</g>
	<g id="Discover">
	</g>
	<g id="Amex_3_">
	</g>
	<g id="Bitcoin_3_">
	</g>
	<g id="Google_Wallet_5_">
	</g>
	<g id="PayPal_3_">
	</g>
	<g id="Square_Payment_1_">
	</g>
	<g id="Shop_5_">
		<g id="Shop_1_">
			<path fill-rule="evenodd" clip-rule="evenodd" fill="#ECF0F1" d="M3,33h33V7H3V33z"/>
		</g>
		<rect x="8" y="26" fill-rule="evenodd" clip-rule="evenodd" fill="#E74C3C" width="5" height="1"/>
		<rect x="8" y="25" fill-rule="evenodd" clip-rule="evenodd" fill="#C0392B" width="5" height="1"/>
		<rect x="8" y="24" fill-rule="evenodd" clip-rule="evenodd" fill="#E74C3C" width="5" height="1"/>
		<rect x="17" y="26" fill-rule="evenodd" clip-rule="evenodd" fill="#1ABC9C" width="5" height="1"/>
		<rect x="17" y="25" fill-rule="evenodd" clip-rule="evenodd" fill="#16A085" width="5" height="1"/>
		<rect x="17" y="24" fill-rule="evenodd" clip-rule="evenodd" fill="#1ABC9C" width="5" height="1"/>
		<g id="Shop_2_" opacity="0.5">
			<path fill-rule="evenodd" clip-rule="evenodd" fill="#FFFFFF" d="M30,33h6V16L30,33z"/>
		</g>
		<rect x="8" y="27" fill-rule="evenodd" clip-rule="evenodd" fill="#A46D4E" width="14" height="6"/>
		<rect x="7" y="27" fill-rule="evenodd" clip-rule="evenodd" fill="#A46D4E" width="16" height="1"/>
		<rect x="8" y="28" fill-rule="evenodd" clip-rule="evenodd" fill="#845640" width="14" height="1"/>
		<g id="Shop_6_" opacity="0.5">
			<path fill-rule="evenodd" clip-rule="evenodd" fill="#FFFFFF" d="M13,33h14V7L13,33z"/>
		</g>
		<rect x="28" y="24" fill-rule="evenodd" clip-rule="evenodd" fill="#95A5A6" width="2" height="3"/>
		<rect x="27" y="7" fill-rule="evenodd" clip-rule="evenodd" fill="#2C3E50" width="9" height="9"/>
		<rect x="29" y="9" fill-rule="evenodd" clip-rule="evenodd" fill="#1ABC9C" width="5" height="1"/>
		<rect x="29" y="11" fill-rule="evenodd" clip-rule="evenodd" fill="#1ABC9C" width="5" height="1"/>
		<rect x="29" y="13" fill-rule="evenodd" clip-rule="evenodd" fill="#1ABC9C" width="5" height="1"/>
		<rect x="2" y="33" fill-rule="evenodd" clip-rule="evenodd" fill="#7F8C8D" width="35" height="1"/>
	</g>
	<g id="Postage">
	</g>
	<g id="Package_7_">
	</g>
	<g id="Discount_3_">
	</g>
	<g id="Earth_3_">
	</g>
	<g id="Barcode_3_">
	</g>
	<g id="Cart_Plus_6_">
	</g>
	<g id="Cart_Minus_6_">
	</g>
	<g id="Cart_4_">
	</g>
	<g id="Receipt_5_">
	</g>
	<g id="Truck_9_">
	</g>
	<g id="Calculator_6_">
	</g>
	<g id="Euro_Symbol">
	</g>
	<g id="Cent_Symbol">
	</g>
	<g id="Dollar_Symbol">
	</g>
	<g id="Pound_Symbol">
	</g>
	<g id="Bank_5_">
	</g>
	<g id="Wallet_3_">
	</g>
	<g id="Coins_6_">
	</g>
	<g id="Bills_6_">
	</g>
	<g id="Dollar_Alt">
	</g>
	<g id="Dollar">
	</g>
</g>
<g id="Lockup">
</g>
</svg>
