<?xml version="1.0" encoding="utf-8"?>
<!-- Generator: Adobe Illustrator 18.0.0, SVG Export Plug-In . SVG Version: 6.00 Build 0)  -->
<!DOCTYPE svg PUBLIC "-//W3C//DTD SVG 1.1//EN" "http://www.w3.org/Graphics/SVG/1.1/DTD/svg11.dtd">
<svg version="1.1" xmlns="http://www.w3.org/2000/svg" xmlns:xlink="http://www.w3.org/1999/xlink" x="0px" y="0px"
	 viewBox="0 0 40 40" enable-background="new 0 0 40 40" xml:space="preserve">
<g id="E-Com">
	<g id="CVC_5_">
	</g>
	<g id="Mastercard_5_">
	</g>
	<g id="Visa_6_">
	</g>
	<g id="Discover">
	</g>
	<g id="Amex_3_">
	</g>
	<g id="Bitcoin_3_">
	</g>
	<g id="Google_Wallet_5_">
	</g>
	<g id="PayPal_3_">
	</g>
	<g id="Square_Payment_1_">
		<g id="Square_Payment_3_">
			<path fill-rule="evenodd" clip-rule="evenodd" fill="#2C3E50" d="M33,10c0-1.7-1.3-3-3-3H11c-1.7,0-3,1.3-3,3v19c0,1.7,1.3,3,3,3
				h19c1.7,0,3-1.3,3-3V10z"/>
		</g>
		<g id="Square_Payment_2_">
			<path fill-rule="evenodd" clip-rule="evenodd" fill="#ECF0F1" d="M29,13c0-1.1-0.9-2-2-2H14c-1.1,0-2,0.9-2,2v13c0,1.1,0.9,2,2,2
				h13c1.1,0,2-0.9,2-2V13z"/>
		</g>
		<g id="Square_Payment">
			<path fill-rule="evenodd" clip-rule="evenodd" fill="#2C3E50" d="M25,16c0-0.6-0.4-1-1-1h-7c-0.6,0-1,0.4-1,1v7c0,0.6,0.4,1,1,1
				h7c0.6,0,1-0.4,1-1V16z"/>
		</g>
	</g>
	<g id="Shop_5_">
	</g>
	<g id="Postage">
	</g>
	<g id="Package_7_">
	</g>
	<g id="Discount_3_">
	</g>
	<g id="Earth_3_">
	</g>
	<g id="Barcode_3_">
	</g>
	<g id="Cart_Plus_6_">
	</g>
	<g id="Cart_Minus_6_">
	</g>
	<g id="Cart_4_">
	</g>
	<g id="Receipt_5_">
	</g>
	<g id="Truck_9_">
	</g>
	<g id="Calculator_6_">
	</g>
	<g id="Euro_Symbol">
	</g>
	<g id="Cent_Symbol">
	</g>
	<g id="Dollar_Symbol">
	</g>
	<g id="Pound_Symbol">
	</g>
	<g id="Bank_5_">
	</g>
	<g id="Wallet_3_">
	</g>
	<g id="Coins_6_">
	</g>
	<g id="Bills_6_">
	</g>
	<g id="Dollar_Alt">
	</g>
	<g id="Dollar">
	</g>
</g>
<g id="Lockup">
</g>
</svg>
