<?xml version="1.0" encoding="utf-8"?>
<!-- Generator: Adobe Illustrator 18.0.0, SVG Export Plug-In . SVG Version: 6.00 Build 0)  -->
<!DOCTYPE svg PUBLIC "-//W3C//DTD SVG 1.1//EN" "http://www.w3.org/Graphics/SVG/1.1/DTD/svg11.dtd">
<svg version="1.1" xmlns="http://www.w3.org/2000/svg" xmlns:xlink="http://www.w3.org/1999/xlink" x="0px" y="0px"
	 viewBox="0 0 40 40" enable-background="new 0 0 40 40" xml:space="preserve">
<g id="E-Com">
	<g id="CVC_5_">
	</g>
	<g id="Mastercard_5_">
	</g>
	<g id="Visa_6_">
	</g>
	<g id="Discover">
	</g>
	<g id="Amex_3_">
	</g>
	<g id="Bitcoin_3_">
	</g>
	<g id="Google_Wallet_5_">
	</g>
	<g id="PayPal_3_">
	</g>
	<g id="Square_Payment_1_">
	</g>
	<g id="Shop_5_">
	</g>
	<g id="Postage">
	</g>
	<g id="Package_7_">
	</g>
	<g id="Discount_3_">
	</g>
	<g id="Earth_3_">
	</g>
	<g id="Barcode_3_">
	</g>
	<g id="Cart_Plus_6_">
	</g>
	<g id="Cart_Minus_6_">
	</g>
	<g id="Cart_4_">
	</g>
	<g id="Receipt_5_">
	</g>
	<g id="Truck_9_">
		<rect x="7" y="4" fill-rule="evenodd" clip-rule="evenodd" fill="#95A5A6" width="26" height="25"/>
		<rect x="7" y="26" fill-rule="evenodd" clip-rule="evenodd" fill="#34495E" width="26" height="3"/>
		<path fill-rule="evenodd" clip-rule="evenodd" fill="#202121" d="M14.5,35h-3c-0.3,0-0.5-0.2-0.5-0.5v-4c0-0.3,0.2-0.5,0.5-0.5h3
			c0.3,0,0.5,0.2,0.5,0.5v4C15,34.8,14.8,35,14.5,35z"/>
		<path fill-rule="evenodd" clip-rule="evenodd" fill="#202121" d="M28.5,35h-3c-0.3,0-0.5-0.2-0.5-0.5v-4c0-0.3,0.2-0.5,0.5-0.5h3
			c0.3,0,0.5,0.2,0.5,0.5v4C29,34.8,28.8,35,28.5,35z"/>
		<path fill-rule="evenodd" clip-rule="evenodd" fill="#34495E" d="M9,11l22,0l0,20c0,0.6-0.4,1-1,1l-20,0c-0.6,0-1-0.4-1-1L9,11z"
			/>
		<path fill-rule="evenodd" clip-rule="evenodd" fill="#ECF0F1" d="M31,30H9V10c0-0.6,0.4-1,1-1h20c0.6,0,1,0.4,1,1L31,30z"/>
		<path fill-rule="evenodd" clip-rule="evenodd" fill="#ECF0F1" stroke="#95A5A6" stroke-miterlimit="10" d="M28.5,20.5h-17v-8
			c0-0.6,0.4-1,1-1h15c0.6,0,1,0.4,1,1V20.5z"/>
		<path opacity="0.5" fill-rule="evenodd" clip-rule="evenodd" fill="#95A5A6" d="M28.5,20.5h-17l16-9c0.6,0,1,0.4,1,1V20.5z"/>
		<rect x="31" y="14" fill-rule="evenodd" clip-rule="evenodd" fill="#2C3E50" width="2" height="1"/>
		<rect x="31" y="17" fill-rule="evenodd" clip-rule="evenodd" fill="#2C3E50" width="2" height="1"/>
		<rect x="32" y="14" fill-rule="evenodd" clip-rule="evenodd" fill="#2C3E50" width="3" height="5"/>
		<rect x="7" y="14" fill-rule="evenodd" clip-rule="evenodd" fill="#2C3E50" width="2" height="1"/>
		<rect x="7" y="17" fill-rule="evenodd" clip-rule="evenodd" fill="#2C3E50" width="2" height="1"/>
		<rect x="5" y="14" fill-rule="evenodd" clip-rule="evenodd" fill="#2C3E50" width="3" height="5"/>
		<rect x="17" y="23" fill-rule="evenodd" clip-rule="evenodd" fill="#2C3E50" width="6" height="1"/>
		<rect x="17" y="25" fill-rule="evenodd" clip-rule="evenodd" fill="#2C3E50" width="6" height="1"/>
		<rect x="17" y="27" fill-rule="evenodd" clip-rule="evenodd" fill="#2C3E50" width="6" height="1"/>
		<path fill-rule="evenodd" clip-rule="evenodd" fill="#F1C40F" stroke="#F39C12" stroke-miterlimit="10" d="M14.5,25.5
			c0,0.6-0.4,1-1,1h-1c-0.6,0-1-0.4-1-1v-1c0-0.6,0.4-1,1-1h1c0.6,0,1,0.4,1,1V25.5z"/>
		<path fill-rule="evenodd" clip-rule="evenodd" fill="#F1C40F" stroke="#F39C12" stroke-miterlimit="10" d="M28.5,25.5
			c0,0.6-0.4,1-1,1h-1c-0.6,0-1-0.4-1-1v-1c0-0.6,0.4-1,1-1h1c0.6,0,1,0.4,1,1V25.5z"/>
		<rect x="9" y="29" fill-rule="evenodd" clip-rule="evenodd" fill="#9B59B6" width="22" height="1"/>
		<path fill-rule="evenodd" clip-rule="evenodd" fill="#F1C40F" d="M25,7c1.5,0,0.8,0,2,0c0-0.6-0.4-1-1-1C25.4,6,25,6.4,25,7z"/>
		<path fill-rule="evenodd" clip-rule="evenodd" fill="#7F8C8D" d="M27,7c-1.5,0-0.8,0-2,0c0,0.6,0.4,1,1,1C26.6,8,27,7.6,27,7z"/>
		<path fill-rule="evenodd" clip-rule="evenodd" fill="#F1C40F" d="M21,7c1.5,0,0.8,0,2,0c0-0.6-0.4-1-1-1C21.4,6,21,6.4,21,7z"/>
		<path fill-rule="evenodd" clip-rule="evenodd" fill="#7F8C8D" d="M23,7c-1.5,0-0.8,0-2,0c0,0.6,0.4,1,1,1C22.6,8,23,7.6,23,7z"/>
		<path fill-rule="evenodd" clip-rule="evenodd" fill="#F1C40F" d="M17,7c1.5,0,0.8,0,2,0c0-0.6-0.4-1-1-1C17.4,6,17,6.4,17,7z"/>
		<path fill-rule="evenodd" clip-rule="evenodd" fill="#7F8C8D" d="M19,7c-1.5,0-0.8,0-2,0c0,0.6,0.4,1,1,1C18.6,8,19,7.6,19,7z"/>
		<path fill-rule="evenodd" clip-rule="evenodd" fill="#F1C40F" d="M13,7c1.5,0,0.8,0,2,0c0-0.6-0.4-1-1-1C13.4,6,13,6.4,13,7z"/>
		<path fill-rule="evenodd" clip-rule="evenodd" fill="#7F8C8D" d="M15,7c-1.5,0-0.8,0-2,0c0,0.6,0.4,1,1,1C14.6,8,15,7.6,15,7z"/>
		<rect x="6" y="35" fill="#BDC3C7" width="28" height="1"/>
	</g>
	<g id="Calculator_6_">
	</g>
	<g id="Euro_Symbol">
	</g>
	<g id="Cent_Symbol">
	</g>
	<g id="Dollar_Symbol">
	</g>
	<g id="Pound_Symbol">
	</g>
	<g id="Bank_5_">
	</g>
	<g id="Wallet_3_">
	</g>
	<g id="Coins_6_">
	</g>
	<g id="Bills_6_">
	</g>
	<g id="Dollar_Alt">
	</g>
	<g id="Dollar">
	</g>
</g>
<g id="Lockup">
</g>
</svg>
