<?xml version="1.0" encoding="iso-8859-1"?>
<!-- Generator: Adobe Illustrator 16.0.0, SVG Export Plug-In . SVG Version: 6.00 Build 0)  -->
<!DOCTYPE svg PUBLIC "-//W3C//DTD SVG 1.1//EN" "http://www.w3.org/Graphics/SVG/1.1/DTD/svg11.dtd">
<svg version="1.1" id="Layer_1" xmlns="http://www.w3.org/2000/svg" xmlns:xlink="http://www.w3.org/1999/xlink" x="0px" y="0px"
	 width="64px" height="31.999px" viewBox="0 0 64 31.999" style="enable-background:new 0 0 64 31.999;" xml:space="preserve">
<g id="Body_2_">
	<g>
		<path style="fill:#E6E6E6;" d="M58,0H6C4,0,0,4,0,20v6c0,4,2,5.999,6,5.999h52c4,0,6-1.999,6-5.999v-6C64,4,60,0,58,0z"/>
	</g>
</g>
<g id="Flaps">
	<g>
		<path style="fill-rule:evenodd;clip-rule:evenodd;fill:#CCCCCC;" d="M6,30c0,1.104,0.895,1.999,2,1.999h48
			c1.104,0,2-0.895,2-1.999c0-1.105,0-2.001,0-2.001H6C6,27.999,6,28.895,6,30z M4,20c0,0,0,0.895,0,2c0,1.104,0.896,2,2,2h52
			c1.104,0,2-0.896,2-2c0-1.105,0-2,0-2H4z"/>
	</g>
</g>
<g id="Screen">
	<g>
		<rect x="26" y="8" style="fill:#999999;" width="12" height="4"/>
	</g>
</g>
<g>
</g>
<g>
</g>
<g>
</g>
<g>
</g>
<g>
</g>
<g>
</g>
<g>
</g>
<g>
</g>
<g>
</g>
<g>
</g>
<g>
</g>
<g>
</g>
<g>
</g>
<g>
</g>
<g>
</g>
</svg>
