<?xml version="1.0" encoding="iso-8859-1"?>
<!-- Generator: Adobe Illustrator 16.0.0, SVG Export Plug-In . SVG Version: 6.00 Build 0)  -->
<!DOCTYPE svg PUBLIC "-//W3C//DTD SVG 1.1//EN" "http://www.w3.org/Graphics/SVG/1.1/DTD/svg11.dtd">
<svg version="1.1" id="Layer_1" xmlns="http://www.w3.org/2000/svg" xmlns:xlink="http://www.w3.org/1999/xlink" x="0px" y="0px"
	 width="64px" height="48px" viewBox="0 0 64 48" style="enable-background:new 0 0 64 48;" xml:space="preserve">
<g id="Body_1_">
	<g>
		<path style="fill:#E6E6E6;" d="M60,0H4C1.791,0,0,1.791,0,4v40c0,2.209,1.791,4,4,4h56c2.209,0,4-1.791,4-4V4
			C64,1.791,62.209,0,60,0z"/>
	</g>
</g>
<g id="Vent">
	<g>
		<path style="fill-rule:evenodd;clip-rule:evenodd;fill:#B3B3B3;" d="M56,38h-4c-1.104,0-2,0.895-2,2c0,1.104,0.896,2,2,2h4
			c1.104,0,2-0.896,2-2C58,38.895,57.104,38,56,38z M52,34h4c1.104,0,2-0.896,2-2c0-1.105-0.896-2-2-2h-4c-1.104,0-2,0.895-2,2
			C50,33.104,50.896,34,52,34z"/>
	</g>
</g>
<g id="Vent_1_">
	<g>
		<circle style="fill:#B3B3B3;" cx="24" cy="24" r="20"/>
	</g>
</g>
<g id="Propeller">
	<g>
		<path style="fill-rule:evenodd;clip-rule:evenodd;fill:#999999;" d="M36.089,23.536c-2.052-1.121-6.266-1.927-9.128-1.317
			C28.774,20.002,30,16.236,30,14c0-3.314-2.687-4-6-4s-6,0.686-6,4c0,2.236,1.226,6.002,3.04,8.219
			c-2.863-0.609-7.077,0.196-9.128,1.317c-2.883,1.574-2.131,4.112-0.467,6.84s3.61,4.612,6.493,3.038
			c2.801-1.531,7.082-6.656,5.795-9.447C23.822,23.977,23.91,24,24,24s0.178-0.023,0.268-0.033
			c-1.288,2.791,2.994,7.916,5.795,9.447c2.883,1.574,4.828-0.311,6.493-3.038C38.22,27.648,38.972,25.11,36.089,23.536z"/>
	</g>
</g>
<g id="Center">
	<g>
		<circle style="fill:#B3B3B3;" cx="24" cy="24" r="4"/>
	</g>
</g>
<g id="Grid">
	<g>
		<path style="fill-rule:evenodd;clip-rule:evenodd;fill:#E6E6E6;" d="M44,10H4c-1.104,0-2,0.896-2,2s0.896,2,2,2h40
			c1.104,0,2-0.896,2-2S45.104,10,44,10z M44,18H4c-1.104,0-2,0.896-2,2s0.896,2,2,2h40c1.104,0,2-0.896,2-2S45.104,18,44,18z
			 M44,26H4c-1.104,0-2,0.895-2,2c0,1.104,0.896,2,2,2h40c1.104,0,2-0.896,2-2C46,26.895,45.104,26,44,26z M44,34H4
			c-1.104,0-2,0.895-2,2c0,1.104,0.896,2,2,2h40c1.104,0,2-0.896,2-2C46,34.895,45.104,34,44,34z M4,6h40c1.104,0,2-0.896,2-2
			c0-1.105-0.896-2-2-2H4C2.896,2,2,2.895,2,4C2,5.104,2.896,6,4,6z M44,42H4c-1.104,0-2,0.895-2,2c0,1.104,0.896,2,2,2h40
			c1.104,0,2-0.896,2-2C46,42.895,45.104,42,44,42z"/>
	</g>
</g>
<g>
</g>
<g>
</g>
<g>
</g>
<g>
</g>
<g>
</g>
<g>
</g>
<g>
</g>
<g>
</g>
<g>
</g>
<g>
</g>
<g>
</g>
<g>
</g>
<g>
</g>
<g>
</g>
<g>
</g>
</svg>
