<?xml version="1.0" encoding="iso-8859-1"?>
<!-- Generator: Adobe Illustrator 16.0.0, SVG Export Plug-In . SVG Version: 6.00 Build 0)  -->
<!DOCTYPE svg PUBLIC "-//W3C//DTD SVG 1.1//EN" "http://www.w3.org/Graphics/SVG/1.1/DTD/svg11.dtd">
<svg version="1.1" id="Layer_1" xmlns="http://www.w3.org/2000/svg" xmlns:xlink="http://www.w3.org/1999/xlink" x="0px" y="0px"
	 width="64px" height="56px" viewBox="0 0 64 56" style="enable-background:new 0 0 64 56;" xml:space="preserve">
<g id="Legs_12_">
	<g>
		<path style="fill-rule:evenodd;clip-rule:evenodd;fill:#CCCCCC;" d="M6,56h6v-6H6V56z M52,50v6h6v-6H52z"/>
	</g>
</g>
<g id="Backrest_3_">
	<g>
		<path style="fill:#B3B3B3;" d="M48,0H16c-4.418,0-8,3.582-8,8v34.001h48V8C56,3.582,52.418,0,48,0z"/>
	</g>
</g>
<g id="Seat_6_">
	<g>
		<path style="fill:#CCCCCC;" d="M52,28H12c-1.104,0-2,0.896-2,2.001V32h44v-1.999C54,28.896,53.104,28,52,28z"/>
	</g>
</g>
<g id="Arms_4_">
	<g>
		<path style="fill-rule:evenodd;clip-rule:evenodd;fill:#666666;" d="M62,20.001h-6c-1.104,0-2,0.895-2,2v20H10v-20
			c0-1.105-0.896-2-2-2H2c-1.104,0-2,0.895-2,2v24C0,48.21,1.791,50,4,50h56c2.209,0,4-1.79,4-3.999v-24
			C64,20.896,63.104,20.001,62,20.001z"/>
	</g>
</g>
<g>
</g>
<g>
</g>
<g>
</g>
<g>
</g>
<g>
</g>
<g>
</g>
<g>
</g>
<g>
</g>
<g>
</g>
<g>
</g>
<g>
</g>
<g>
</g>
<g>
</g>
<g>
</g>
<g>
</g>
</svg>
