<?xml version="1.0" encoding="iso-8859-1"?>
<!-- Generator: Adobe Illustrator 16.0.0, SVG Export Plug-In . SVG Version: 6.00 Build 0)  -->
<!DOCTYPE svg PUBLIC "-//W3C//DTD SVG 1.1//EN" "http://www.w3.org/Graphics/SVG/1.1/DTD/svg11.dtd">
<svg version="1.1" id="Layer_1" xmlns="http://www.w3.org/2000/svg" xmlns:xlink="http://www.w3.org/1999/xlink" x="0px" y="0px"
	 width="64px" height="64px" viewBox="0 0 64 64" style="enable-background:new 0 0 64 64;" xml:space="preserve">
<g id="Base_6_">
	<g>
		<path style="fill:#CCCCCC;" d="M36,58h-8c-4,0-18,2-18,4c0,1,0,2,2,2h38c2,0,4-1,4-2C54,60,40,58,36,58z"/>
	</g>
</g>
<g id="Leg_3_">
	<g>
		<path style="fill:#B3B3B3;" d="M28,48.001V58c0,1,0,2,4,2s4-1,4-2v-9.999H28z"/>
	</g>
</g>
<g id="Body_41_">
	<g>
		<path style="fill:#666666;" d="M0,18.001v4c0,12,12,28,32,28s32-16,32-28v-4H0z"/>
	</g>
</g>
<g id="Arms_3_">
	<g>
		<path style="fill:#FF8833;" d="M32,0C10,0,0,10.001,0,18.001s8,22,32,22s32-14,32-22S54,0,32,0z"/>
	</g>
</g>
<g id="Back_2_">
	<g>
		<path style="fill:#CC6D29;" d="M32,4C16,4,8,10.001,8,20c0,4,2,8.001,4,10.001h40c2-2,4-6.001,4-10.001C56,10.001,48,4,32,4z"/>
	</g>
</g>
<g id="Seat_5_">
	<g>
		<path style="fill:#FFCC66;" d="M32,26.001c-12,0-20,2-20,4c2,2,10,4,20,4s18.063-2,20-4C52,28.001,44,26.001,32,26.001z"/>
	</g>
</g>
<g>
</g>
<g>
</g>
<g>
</g>
<g>
</g>
<g>
</g>
<g>
</g>
<g>
</g>
<g>
</g>
<g>
</g>
<g>
</g>
<g>
</g>
<g>
</g>
<g>
</g>
<g>
</g>
<g>
</g>
</svg>
