<?xml version="1.0" encoding="iso-8859-1"?>
<!-- Generator: Adobe Illustrator 16.0.0, SVG Export Plug-In . SVG Version: 6.00 Build 0)  -->
<!DOCTYPE svg PUBLIC "-//W3C//DTD SVG 1.1//EN" "http://www.w3.org/Graphics/SVG/1.1/DTD/svg11.dtd">
<svg version="1.1" id="Layer_1" xmlns="http://www.w3.org/2000/svg" xmlns:xlink="http://www.w3.org/1999/xlink" x="0px" y="0px"
	 width="64px" height="36px" viewBox="0 0 64 36" style="enable-background:new 0 0 64 36;" xml:space="preserve">
<g id="Body_21_">
	<g>
		<path style="fill:#D9D9D9;" d="M48,4l-20,6H2c0,0,4,20,10,20s24,0,30,0C56,30,60,4,62,4H48z"/>
	</g>
</g>
<g id="Legs">
	<g>
		<path style="fill-rule:evenodd;clip-rule:evenodd;fill:#B3B3B3;" d="M10,34c0,2,1,2,2,2c2,0,2-6,4-6l-4-2C12,34,10,32,10,34z
			 M46,28l-4,2c2,0,2,6,4,6c1,0,2,0,2-2S46,34,46,28z"/>
	</g>
</g>
<g id="Margin">
	<g>
		<path style="fill:#CCCCCC;" d="M58,0c-8,0-24,8-34,8C18,8,8,6,4,6s-4,4-4,4s2,0,4,0c4,0,12,2,20,2c12,0,28-8,34-8c2,0,6,0,6,0
			C64,2,62,0,58,0z"/>
	</g>
</g>
<g>
</g>
<g>
</g>
<g>
</g>
<g>
</g>
<g>
</g>
<g>
</g>
<g>
</g>
<g>
</g>
<g>
</g>
<g>
</g>
<g>
</g>
<g>
</g>
<g>
</g>
<g>
</g>
<g>
</g>
</svg>
