<?xml version="1.0" encoding="iso-8859-1"?>
<!-- Generator: Adobe Illustrator 16.0.0, SVG Export Plug-In . SVG Version: 6.00 Build 0)  -->
<!DOCTYPE svg PUBLIC "-//W3C//DTD SVG 1.1//EN" "http://www.w3.org/Graphics/SVG/1.1/DTD/svg11.dtd">
<svg version="1.1" id="Layer_1" xmlns="http://www.w3.org/2000/svg" xmlns:xlink="http://www.w3.org/1999/xlink" x="0px" y="0px"
	 width="64px" height="44px" viewBox="0 0 64 44" style="enable-background:new 0 0 64 44;" xml:space="preserve">
<g id="Head_Board">
	<g>
		<path style="fill:#666666;" d="M58,0H6C4.896,0,4,0.895,4,2v20c0,1.104,0.896,2,2,2h52c1.104,0,2-0.896,2-2V2
			C60,0.895,59.104,0,58,0z"/>
	</g>
</g>
<g id="Pillows">
	<g>
		<path style="fill-rule:evenodd;clip-rule:evenodd;fill:#FFFFFF;" d="M28,12c-1,0-6,2-8,2h-2c-2,0-7-2-8-2s-2,1-2,2s2,4,2,6
			s-2,5-2,6s1,2,2,2s6-2,8-2h2c2,0,7,2,8,2s2-1,2-2s-2-4-2-6c0-1.951,2-5,2-6S29,12,28,12z M56,14c0-1-1-2-2-2s-6,2-8,2h-2
			c-2,0-7-2-8-2s-2,1-2,2s2,4,2,6s-2,5-2,6s1,2,2,2s6-2,8-2h2c2,0,7,2,8,2s2-1,2-2s-2-4-2-6C54,18.049,56,15,56,14z"/>
	</g>
</g>
<g id="Mattress">
	<g>
		<path style="fill:#CCCCCC;" d="M60,20H4c-1.104,0-2,0.895-2,2v8c0,1.104,0.896,2,2,2h56c1.104,0,2-0.896,2-2v-8
			C62,20.895,61.104,20,60,20z"/>
	</g>
</g>
<g id="Frame_2_">
	<g>
		<path style="fill-rule:evenodd;clip-rule:evenodd;fill:#4D4D4D;" d="M60,28H4c-1.104,0-2,0.896-2,2v8v4c0,1.104,0.896,2,2,2h4
			c1.104,0,2-0.896,2-2v-2h44v2c0,1.104,0.896,2,2,2h4c1.104,0,2-0.896,2-2v-4v-8C62,28.896,61.104,28,60,28z"/>
	</g>
</g>
<g id="Frame_3_">
	<g>
		<path style="fill:#666666;" d="M62,28H2c-1.104,0-2,0.896-2,2v4c0,1.104,0.896,2,2,2h60c1.104,0,2-0.896,2-2v-4
			C64,28.896,63.104,28,62,28z"/>
	</g>
</g>
<g>
</g>
<g>
</g>
<g>
</g>
<g>
</g>
<g>
</g>
<g>
</g>
<g>
</g>
<g>
</g>
<g>
</g>
<g>
</g>
<g>
</g>
<g>
</g>
<g>
</g>
<g>
</g>
<g>
</g>
</svg>
