<?xml version="1.0" encoding="iso-8859-1"?>
<!-- Generator: Adobe Illustrator 16.0.0, SVG Export Plug-In . SVG Version: 6.00 Build 0)  -->
<!DOCTYPE svg PUBLIC "-//W3C//DTD SVG 1.1//EN" "http://www.w3.org/Graphics/SVG/1.1/DTD/svg11.dtd">
<svg version="1.1" id="Layer_1" xmlns="http://www.w3.org/2000/svg" xmlns:xlink="http://www.w3.org/1999/xlink" x="0px" y="0px"
	 width="64px" height="56px" viewBox="0 0 64 56" style="enable-background:new 0 0 64 56;" xml:space="preserve">
<g id="Legs_4_">
	<g>
		<path style="fill-rule:evenodd;clip-rule:evenodd;fill:#735538;" d="M54,52v2c0,1.104,0.896,2,2,2h4c1.104,0,2-0.896,2-2v-2H54z
			 M2,54c0,1.104,0.896,2,2,2h4c1.104,0,2-0.896,2-2v-2H2V54z"/>
	</g>
</g>
<g id="Head_Board_1_">
	<g>
		<path style="fill-rule:evenodd;clip-rule:evenodd;fill:#A67C52;" d="M58,0c-1.104,0-2,0.896-2,2v9.079
			C54.822,10.396,53.459,10,52,10H12c-1.459,0-2.822,0.396-4,1.079V2c0-1.104-0.896-2-2-2S4,0.896,4,2v16v6v10h56V18V2
			C60,0.896,59.104,0,58,0z"/>
	</g>
</g>
<g id="Pillows_1_">
	<g>
		<path style="fill-rule:evenodd;clip-rule:evenodd;fill:#FFFFFF;" d="M28,18c-1,0-6,2-8,2h-2c-2,0-7-2-8-2s-2,1-2,2s2,4,2,6
			s-2,5-2,6s1,2,2,2s6-2,8-2h2c2,0,7,2,8,2s2-1,2-2s-2-4-2-6c0-1.951,2-5,2-6S29,18,28,18z M56,20c0-1-1-2-2-2s-6,2-8,2h-2
			c-2,0-7-2-8-2s-2,1-2,2s2,4,2,6s-2,5-2,6s1,2,2,2s6-2,8-2h2c2,0,7,2,8,2s2-1,2-2s-2-4-2-6C54,24.049,56,21,56,20z"/>
	</g>
</g>
<g id="Mattress_1_">
	<g>
		<path style="fill:#CCCCCC;" d="M58,26H6c-1.104,0-2,0.895-2,2v8c0,1.104,0.896,2,2,2h52c1.104,0,2-0.896,2-2v-8
			C60,26.895,59.104,26,58,26z"/>
	</g>
</g>
<g id="Frame_4_">
	<g>
		<path style="fill-rule:evenodd;clip-rule:evenodd;fill:#A67C52;" d="M62,28c-1.104,0-2,0.896-2,2v4H4v-4c0-1.104-0.896-2-2-2
			c-1.105,0-2,0.896-2,2v6v14c0,1.104,0.895,2,2,2h60c1.104,0,2-0.896,2-2V36v-6C64,28.896,63.104,28,62,28z"/>
	</g>
</g>
<g>
</g>
<g>
</g>
<g>
</g>
<g>
</g>
<g>
</g>
<g>
</g>
<g>
</g>
<g>
</g>
<g>
</g>
<g>
</g>
<g>
</g>
<g>
</g>
<g>
</g>
<g>
</g>
<g>
</g>
</svg>
