<?xml version="1.0" encoding="iso-8859-1"?>
<!-- Generator: Adobe Illustrator 16.0.0, SVG Export Plug-In . SVG Version: 6.00 Build 0)  -->
<!DOCTYPE svg PUBLIC "-//W3C//DTD SVG 1.1//EN" "http://www.w3.org/Graphics/SVG/1.1/DTD/svg11.dtd">
<svg version="1.1" id="Layer_1" xmlns="http://www.w3.org/2000/svg" xmlns:xlink="http://www.w3.org/1999/xlink" x="0px" y="0px"
	 width="64px" height="44.001px" viewBox="0 0 64 44.001" style="enable-background:new 0 0 64 44.001;" xml:space="preserve">
<g id="Toilet">
	<g>
		<path style="fill:#D9D9D9;" d="M64,12.001c0-1.104-0.896-2-2-2H2c-1.104,0-2,0.896-2,2c0,0,0,2.102,0,8c0,4,8,0,8,10
			c0,4-2,12-2,12c0,1.104,0.896,2,2,2h38c1.104,0,4,0,4-2s-4-8-4-10C46,28.001,64,26.001,64,12.001z"/>
	</g>
</g>
<g id="Faucet_2_">
	<g>
		<path style="fill:#B3B3B3;" d="M24,4.001c-2,0-10,0-12,0c0,2,0,6,0,6h6c0-2,8-3,8-4S26,4.001,24,4.001z"/>
	</g>
</g>
<g id="Handle_10_">
	<g>
		<path style="fill:#999999;" d="M16,0h-2c-1.104,0-2,0.896-2,2.001C12,3.104,12.896,4,14,4h2c1.104,0,2-0.896,2-1.999
			C18,0.896,17.104,0,16,0z"/>
	</g>
</g>
<g>
</g>
<g>
</g>
<g>
</g>
<g>
</g>
<g>
</g>
<g>
</g>
<g>
</g>
<g>
</g>
<g>
</g>
<g>
</g>
<g>
</g>
<g>
</g>
<g>
</g>
<g>
</g>
<g>
</g>
</svg>
