<?xml version="1.0" encoding="iso-8859-1"?>
<!-- Generator: Adobe Illustrator 16.0.0, SVG Export Plug-In . SVG Version: 6.00 Build 0)  -->
<!DOCTYPE svg PUBLIC "-//W3C//DTD SVG 1.1//EN" "http://www.w3.org/Graphics/SVG/1.1/DTD/svg11.dtd">
<svg version="1.1" id="Layer_1" xmlns="http://www.w3.org/2000/svg" xmlns:xlink="http://www.w3.org/1999/xlink" x="0px" y="0px"
	 width="40px" height="64px" viewBox="0 0 40 64" style="enable-background:new 0 0 40 64;" xml:space="preserve">
<g id="Body_52_">
	<g>
		<path style="fill:#88C057;" d="M32,40H8c-2,6-4,8-4,14s2,10,6,10h20c4,0,6-4,6-10S34,46,32,40z"/>
	</g>
</g>
<g id="Button_15_">
	<g>
		<ellipse style="fill:#666666;" cx="20" cy="56" rx="4" ry="2"/>
	</g>
</g>
<g id="Middle_2_">
	<g>
		<polygon style="fill:#686B65;" points="30,34 10,34 8,40 32,40 		"/>
	</g>
</g>
<g id="Handle_38_">
	<g>
		<path style="fill:#686B65;" d="M32,4v6h2c2,0,2,8,2,14c0,2,0,4,2,4s2-2,2-4C40,4,38,4,32,4z"/>
	</g>
</g>
<g id="Pourer_2_">
	<g>
		<path style="fill:#CCCCCC;" d="M6,4C4,4,0,6,0,6c0,2,2,4,8,8C8,14,8,4,6,4z"/>
	</g>
</g>
<g id="Bowl_4_">
	<g>
		<path style="fill:#E6E6E6;" d="M6,3.999C6,6,8,34,10,34h20c2,0,4-28,4-30.001H6z"/>
	</g>
</g>
<g id="Lid_6_">
	<g>
		<path style="fill:#88C057;" d="M20,0C16,0,6,2,6,4h28C34,2,24,0,20,0z"/>
	</g>
</g>
<g>
</g>
<g>
</g>
<g>
</g>
<g>
</g>
<g>
</g>
<g>
</g>
<g>
</g>
<g>
</g>
<g>
</g>
<g>
</g>
<g>
</g>
<g>
</g>
<g>
</g>
<g>
</g>
<g>
</g>
</svg>
