<?xml version="1.0" encoding="iso-8859-1"?>
<!-- Generator: Adobe Illustrator 16.0.0, SVG Export Plug-In . SVG Version: 6.00 Build 0)  -->
<!DOCTYPE svg PUBLIC "-//W3C//DTD SVG 1.1//EN" "http://www.w3.org/Graphics/SVG/1.1/DTD/svg11.dtd">
<svg version="1.1" id="Layer_1" xmlns="http://www.w3.org/2000/svg" xmlns:xlink="http://www.w3.org/1999/xlink" x="0px" y="0px"
	 width="36px" height="64px" viewBox="0 0 36 64" style="enable-background:new 0 0 36 64;" xml:space="preserve">
<g id="Band">
	<g>
		<path style="fill:#F06EAA;" d="M34,0H2C0,0,0,0.896,0,2v2h36V2C36,0.896,36,0,34,0z"/>
	</g>
</g>
<g id="Body_17_">
	<g>
		<path style="fill:#FF8FC3;" d="M0,4c0,0,6,36.001,6,44.001C6,50.001,6,52,8,52h20c2,0,2-1.999,2-3.999C30,40.001,36,4,36,4H0z"/>
	</g>
</g>
<g id="Cap_2_">
	<g>
		<path style="fill:#666666;" d="M26,52H10c-1.104,0-2,0.896-2,2.001v8C8,63.104,8.896,64,10,64h16c1.104,0,2-0.896,2-1.999v-8
			C28,52.896,27.104,52,26,52z"/>
	</g>
</g>
<g id="Label_2_">
	<g>
		<rect x="10" y="12.001" style="fill:#EBEBEB;" width="16" height="12"/>
	</g>
</g>
<g>
</g>
<g>
</g>
<g>
</g>
<g>
</g>
<g>
</g>
<g>
</g>
<g>
</g>
<g>
</g>
<g>
</g>
<g>
</g>
<g>
</g>
<g>
</g>
<g>
</g>
<g>
</g>
<g>
</g>
</svg>
