<?xml version="1.0" encoding="iso-8859-1"?>
<!-- Generator: Adobe Illustrator 16.0.0, SVG Export Plug-In . SVG Version: 6.00 Build 0)  -->
<!DOCTYPE svg PUBLIC "-//W3C//DTD SVG 1.1//EN" "http://www.w3.org/Graphics/SVG/1.1/DTD/svg11.dtd">
<svg version="1.1" id="Layer_1" xmlns="http://www.w3.org/2000/svg" xmlns:xlink="http://www.w3.org/1999/xlink" x="0px" y="0px"
	 width="52px" height="64px" viewBox="0 0 52 64" style="enable-background:new 0 0 52 64;" xml:space="preserve">
<g id="Legs_8_">
	<g>
		<path style="fill-rule:evenodd;clip-rule:evenodd;fill:#387BA8;" d="M40,60v2c0,1.105,0.896,2,2,2h4c1.104,0,2-0.895,2-2v-2H40z
			 M4,62c0,1.105,0.896,2,2,2h4c1.104,0,2-0.895,2-2v-2H4V62z"/>
	</g>
</g>
<g id="Body_40_">
	<g>
		<path style="fill-rule:evenodd;clip-rule:evenodd;fill:#48A0DC;" d="M48,0H4C1.791,0,0,1.791,0,4v52c0,2.21,1.791,4,4,4h44
			c2.209,0,4-1.79,4-4V4C52,1.791,50.209,0,48,0z M48,54c0,1.104-0.896,2-2,2H6c-1.104,0-2-0.896-2-2v-5.999c0-1.105,0.896-2,2-2h40
			c1.104,0,2,0.895,2,2V54z M48,40.001c0,1.104-0.896,2-2,2H6c-1.104,0-2-0.896-2-2v-6c0-1.105,0.896-2,2-2h40c1.104,0,2,0.895,2,2
			V40.001z M48,26.001c0,1.104-0.896,2-2,2H6c-1.104,0-2-0.896-2-2V20c0-1.104,0.896-1.999,2-1.999h40c1.104,0,2,0.895,2,1.999
			V26.001z M48,12c0,1.104-0.896,2.001-2,2.001H6c-1.104,0-2-0.896-2-2.001V6.001C4,4.896,4.896,4,6,4h40c1.104,0,2,0.896,2,2.001
			V12z"/>
	</g>
</g>
<g>
</g>
<g>
</g>
<g>
</g>
<g>
</g>
<g>
</g>
<g>
</g>
<g>
</g>
<g>
</g>
<g>
</g>
<g>
</g>
<g>
</g>
<g>
</g>
<g>
</g>
<g>
</g>
<g>
</g>
</svg>
