<?xml version="1.0" encoding="iso-8859-1"?>
<!-- Generator: Adobe Illustrator 16.0.0, SVG Export Plug-In . SVG Version: 6.00 Build 0)  -->
<!DOCTYPE svg PUBLIC "-//W3C//DTD SVG 1.1//EN" "http://www.w3.org/Graphics/SVG/1.1/DTD/svg11.dtd">
<svg version="1.1" id="Layer_1" xmlns="http://www.w3.org/2000/svg" xmlns:xlink="http://www.w3.org/1999/xlink" x="0px" y="0px"
	 width="64px" height="64px" viewBox="0 0 64 64" style="enable-background:new 0 0 64 64;" xml:space="preserve">
<g id="Opener">
	<g>
		<path style="fill-rule:evenodd;clip-rule:evenodd;fill:#48A0DC;" d="M60,0c-2,0-4,0-8,4c-2,2-26,26-26,26c-2,2-4,2-6,2
			C10,32,0,42,0,46c0,6,12,18,18,18c4,0,14-10,14-20c0-2,0-4,2-6c0,0,24-24,26-26c4-4,4-6,4-8S62,0,60,0z M18,58c-4,0-12-8-12-12
			s8-6,10-6c0,2,6,8,8,8C24,50,22,58,18,58z M58,8c-1.105,0-2-0.896-2-2s0.895-2,2-2c1.104,0,2,0.896,2,2S59.104,8,58,8z"/>
	</g>
</g>
<g>
</g>
<g>
</g>
<g>
</g>
<g>
</g>
<g>
</g>
<g>
</g>
<g>
</g>
<g>
</g>
<g>
</g>
<g>
</g>
<g>
</g>
<g>
</g>
<g>
</g>
<g>
</g>
<g>
</g>
</svg>
