<?xml version="1.0" encoding="iso-8859-1"?>
<!-- Generator: Adobe Illustrator 16.0.0, SVG Export Plug-In . SVG Version: 6.00 Build 0)  -->
<!DOCTYPE svg PUBLIC "-//W3C//DTD SVG 1.1//EN" "http://www.w3.org/Graphics/SVG/1.1/DTD/svg11.dtd">
<svg version="1.1" id="Layer_1" xmlns="http://www.w3.org/2000/svg" xmlns:xlink="http://www.w3.org/1999/xlink" x="0px" y="0px"
	 width="64px" height="63.999px" viewBox="0 0 64 63.999" style="enable-background:new 0 0 64 63.999;" xml:space="preserve">
<g id="Bristles">
	<g>
		<path style="fill:#9B7CAB;" d="M8,33.999c0,0-8,2-8,4.001c0,3.999,22,25.999,26,25.999c2,0,4-7.999,4-7.999L8,33.999z"/>
	</g>
</g>
<g id="Handle_13_">
	<g>
		<path style="fill:#F2CDA7;" d="M62,0c-1,0-2,0-4,2L22,38c-2,2-2,3-2,4s1,2,2,2s2,0,4-2L62,6c2-2,2-3,2-4S63,0,62,0z"/>
	</g>
</g>
<g id="Support_3_">
	<g>
		<path style="fill:#D9B796;" d="M12,29.999c-1,0-4,3.001-4,4C8,35,29,56,30,56s4-3,4-4S14,29.999,12,29.999z"/>
	</g>
</g>
<g>
</g>
<g>
</g>
<g>
</g>
<g>
</g>
<g>
</g>
<g>
</g>
<g>
</g>
<g>
</g>
<g>
</g>
<g>
</g>
<g>
</g>
<g>
</g>
<g>
</g>
<g>
</g>
<g>
</g>
</svg>
