<?xml version="1.0" encoding="iso-8859-1"?>
<!-- Generator: Adobe Illustrator 16.0.0, SVG Export Plug-In . SVG Version: 6.00 Build 0)  -->
<!DOCTYPE svg PUBLIC "-//W3C//DTD SVG 1.1//EN" "http://www.w3.org/Graphics/SVG/1.1/DTD/svg11.dtd">
<svg version="1.1" id="Layer_1" xmlns="http://www.w3.org/2000/svg" xmlns:xlink="http://www.w3.org/1999/xlink" x="0px" y="0px"
	 width="64px" height="40px" viewBox="0 0 64 40" style="enable-background:new 0 0 64 40;" xml:space="preserve">
<g id="Legs_14_">
	<g>
		<path style="fill-rule:evenodd;clip-rule:evenodd;fill:#735538;" d="M0,40h2c2,0,2-4,4-4H0V40z M58,36c2,0,2,4,4,4h2v-4H58z"/>
	</g>
</g>
<g id="Body_42_">
	<g>
		<path style="fill:#A67C52;" d="M60,0H4C1.791,0,0,1.791,0,4v32h64V4C64,1.791,62.209,0,60,0z"/>
	</g>
</g>
<g id="Doors_2_">
	<g>
		<path style="fill-rule:evenodd;clip-rule:evenodd;fill:#E6AB70;" d="M18,4H6C4.896,4,4,4.896,4,6v24c0,1.104,0.896,2,2,2h12
			c1.104,0,2-0.896,2-2V6C20,4.896,19.104,4,18,4z M38,4H26c-1.104,0-2,0.896-2,2v24c0,1.104,0.896,2,2,2h12c1.104,0,2-0.896,2-2V6
			C40,4.896,39.104,4,38,4z M58,4H46c-1.104,0-2,0.896-2,2v24c0,1.104,0.896,2,2,2h12c1.104,0,2-0.896,2-2V6C60,4.896,59.104,4,58,4
			z"/>
	</g>
</g>
<g id="Handles_8_">
	<g>
		<path style="fill-rule:evenodd;clip-rule:evenodd;fill:#735538;" d="M16,15.999c-1.104,0-2,0.896-2,2.001c0,1.104,0.896,2,2,2
			s2-0.896,2-2C18,16.895,17.104,15.999,16,15.999z M28,16c-1.104,0-2,0.895-2,2c0,1.104,0.896,2,2,2s2-0.896,2-2
			C30,16.895,29.104,16,28,16z M48,16c-1.105,0-2,0.895-2,2c0,1.104,0.895,2,2,2c1.104,0,2-0.896,2-2C50,16.895,49.104,16,48,16z"/>
	</g>
</g>
<g>
</g>
<g>
</g>
<g>
</g>
<g>
</g>
<g>
</g>
<g>
</g>
<g>
</g>
<g>
</g>
<g>
</g>
<g>
</g>
<g>
</g>
<g>
</g>
<g>
</g>
<g>
</g>
<g>
</g>
</svg>
