<?xml version="1.0" encoding="iso-8859-1"?>
<!-- Generator: Adobe Illustrator 16.0.0, SVG Export Plug-In . SVG Version: 6.00 Build 0)  -->
<!DOCTYPE svg PUBLIC "-//W3C//DTD SVG 1.1//EN" "http://www.w3.org/Graphics/SVG/1.1/DTD/svg11.dtd">
<svg version="1.1" id="Layer_1" xmlns="http://www.w3.org/2000/svg" xmlns:xlink="http://www.w3.org/1999/xlink" x="0px" y="0px"
	 width="52px" height="64px" viewBox="0 0 52 64" style="enable-background:new 0 0 52 64;" xml:space="preserve">
<g id="Body_43_">
	<g>
		<path style="fill:#A67C52;" d="M48,0H4C1.791,0,0,1.791,0,4v56c0,2.21,1.791,4,4,4h44c2.209,0,4-1.79,4-4V4
			C52,1.791,50.209,0,48,0z"/>
	</g>
</g>
<g id="Drawers_2_">
	<g>
		<path style="fill-rule:evenodd;clip-rule:evenodd;fill:#E6AB70;" d="M46,52.001H6c-1.104,0-2,0.896-2,2V58c0,1.104,0.896,2,2,2h40
			c1.104,0,2-0.896,2-2v-3.999C48,52.896,47.104,52.001,46,52.001z M46,40.001H6c-1.104,0-2,0.896-2,2v4c0,1.104,0.896,2,2,2h40
			c1.104,0,2-0.896,2-2v-4C48,40.896,47.104,40.001,46,40.001z"/>
	</g>
</g>
<g id="Glass_Doors">
	<g>
		<path style="fill-rule:evenodd;clip-rule:evenodd;fill:#CCCCCC;" d="M22,4H6C4.896,4,4,4.896,4,6.001v28c0,1.104,0.896,2,2,2h16
			c1.104,0,2-0.896,2-2v-28C24,4.896,23.104,4,22,4z M46,4H30c-1.104,0-2,0.896-2,2.001v28c0,1.104,0.896,2,2,2h16
			c1.104,0,2-0.896,2-2v-28C48,4.896,47.104,4,46,4z"/>
	</g>
</g>
<g id="Shelfs">
	<g>
		<path style="fill-rule:evenodd;clip-rule:evenodd;fill:#B3B3B3;" d="M4,16.001h20v-4H4V16.001z M28,12.001v4h20v-4H28z M4,28.001
			h20v-4H4V28.001z M28,28.001h20v-4H28V28.001z"/>
	</g>
</g>
<g id="Handles_9_">
	<g>
		<path style="fill-rule:evenodd;clip-rule:evenodd;fill:#735538;" d="M12,54.001c-1.104,0-2,0.895-2,1.999s0.896,2.001,2,2.001
			s2-0.896,2-2.001S13.104,54.001,12,54.001z M12,42.001c-1.104,0-2,0.895-2,2c0,1.104,0.896,2,2,2s2-0.896,2-2
			C14,42.896,13.104,42.001,12,42.001z M40,54.001c-1.105,0-2,0.895-2,1.999s0.895,2.001,2,2.001c1.104,0,2-0.896,2-2.001
			S41.104,54.001,40,54.001z M40,46.001c1.104,0,2-0.896,2-2c0-1.105-0.896-2-2-2c-1.105,0-2,0.895-2,2
			C38,45.104,38.895,46.001,40,46.001z"/>
	</g>
</g>
<g>
</g>
<g>
</g>
<g>
</g>
<g>
</g>
<g>
</g>
<g>
</g>
<g>
</g>
<g>
</g>
<g>
</g>
<g>
</g>
<g>
</g>
<g>
</g>
<g>
</g>
<g>
</g>
<g>
</g>
</svg>
