<?xml version="1.0" encoding="iso-8859-1"?>
<!-- Generator: Adobe Illustrator 16.0.0, SVG Export Plug-In . SVG Version: 6.00 Build 0)  -->
<!DOCTYPE svg PUBLIC "-//W3C//DTD SVG 1.1//EN" "http://www.w3.org/Graphics/SVG/1.1/DTD/svg11.dtd">
<svg version="1.1" id="Layer_1" xmlns="http://www.w3.org/2000/svg" xmlns:xlink="http://www.w3.org/1999/xlink" x="0px" y="0px"
	 width="64px" height="64px" viewBox="0 0 64 64" style="enable-background:new 0 0 64 64;" xml:space="preserve">
<g id="Handle_22_">
	<g>
		<path style="fill-rule:evenodd;clip-rule:evenodd;fill:#ED7161;" d="M60,0c-2,0-4,0-8,4c-2,2-14,14-14,14l8,8c0,0,12-12,14-14
			c4-4,4-6,4-8S62,0,60,0z M58,8c-1.104,0-2-0.896-2-2s0.896-2,2-2s2,0.896,2,2S59.104,8,58,8z"/>
	</g>
</g>
<g id="Spatula">
	<g>
		<path style="fill:#CCCCCC;" d="M40,20L30,30c-2,2-8,2-10,2c-2.079,0-6,6-12,14S0,56.079,0,58c2,0,4-2,6-4c12-12,14-14,16-14
			c1,0,2,1,2,2c0,2-2,4-14,16c-1.414,1.414-4,4-4,6c0.937,0,4-2,12-8s14-9.873,14-12c0-2,0-8,2-10l10-10L40,20z"/>
	</g>
</g>
<g>
</g>
<g>
</g>
<g>
</g>
<g>
</g>
<g>
</g>
<g>
</g>
<g>
</g>
<g>
</g>
<g>
</g>
<g>
</g>
<g>
</g>
<g>
</g>
<g>
</g>
<g>
</g>
<g>
</g>
</svg>
