<?xml version="1.0" encoding="iso-8859-1"?>
<!-- Generator: Adobe Illustrator 16.0.0, SVG Export Plug-In . SVG Version: 6.00 Build 0)  -->
<!DOCTYPE svg PUBLIC "-//W3C//DTD SVG 1.1//EN" "http://www.w3.org/Graphics/SVG/1.1/DTD/svg11.dtd">
<svg version="1.1" id="Layer_1" xmlns="http://www.w3.org/2000/svg" xmlns:xlink="http://www.w3.org/1999/xlink" x="0px" y="0px"
	 width="64px" height="60px" viewBox="0 0 64 60" style="enable-background:new 0 0 64 60;" xml:space="preserve">
<g id="Handle_21_">
	<g>
		<path style="fill-rule:evenodd;clip-rule:evenodd;fill:#48A0DC;" d="M60,0c-2,0-4,0-8,4c-2,2-16,16-16,16l8,8c0,0,14-14,16-16
			c4-4,4-6,4-8S62,0,60,0z M58,8c-1.104,0-2-0.896-2-2c0-1.105,0.896-2,2-2s2,0.895,2,2C60,7.104,59.104,8,58,8z"/>
	</g>
</g>
<g id="Blade_6_">
	<g>
		<path style="fill:#CCCCCC;" d="M36,20C2,54,0,56,0,57.999C0,60,2,60,4,60c8,0,36-24,36-28c0-2,0-4,2-6L36,20z"/>
	</g>
</g>
<g>
</g>
<g>
</g>
<g>
</g>
<g>
</g>
<g>
</g>
<g>
</g>
<g>
</g>
<g>
</g>
<g>
</g>
<g>
</g>
<g>
</g>
<g>
</g>
<g>
</g>
<g>
</g>
<g>
</g>
</svg>
