<?xml version="1.0" encoding="iso-8859-1"?>
<!-- Generator: Adobe Illustrator 16.0.0, SVG Export Plug-In . SVG Version: 6.00 Build 0)  -->
<!DOCTYPE svg PUBLIC "-//W3C//DTD SVG 1.1//EN" "http://www.w3.org/Graphics/SVG/1.1/DTD/svg11.dtd">
<svg version="1.1" id="Layer_1" xmlns="http://www.w3.org/2000/svg" xmlns:xlink="http://www.w3.org/1999/xlink" x="0px" y="0px"
	 width="36px" height="64px" viewBox="0 0 36 64" style="enable-background:new 0 0 36 64;" xml:space="preserve">
<g id="Legs_20_">
	<g>
		<path style="fill-rule:evenodd;clip-rule:evenodd;fill:#A67C52;" d="M0,38.001v4h0V62c0,1.104,0.896,2,2,2c1.104,0,2-0.896,2-2
			V50.001h28V62c0,1.104,0.896,2,2,2c1.104,0,2-0.896,2-2V42.001v-4H0z M32,46.001H4v-4h28V46.001z"/>
	</g>
</g>
<g id="Seat_10_">
	<g>
		<path style="fill:#CCC2B8;" d="M32,30.001H4c-2.209,0-4,1.79-4,4l0,4h36v-4C36,31.791,34.209,30.001,32,30.001z"/>
	</g>
</g>
<g id="Backrest_8_">
	<g>
		<path style="fill-rule:evenodd;clip-rule:evenodd;fill:#8C6845;" d="M32,0c-1.104,0-2,0.896-2,2.001l-0.279,3.908
			C28.475,5.51,23.239,3.938,18,3.938c-5.239,0-10.476,1.573-11.721,1.972L6,2.001C6,0.896,5.105,0,4,0C2.896,0,2,0.896,2,2.001
			l2,28h4L7.54,23.546c2.165-0.59,6.312-1.545,10.461-1.545s8.296,0.956,10.461,1.545L28,30.001h4l2-28C34,0.896,33.105,0,32,0z
			 M18,17.938c-4.344,0-8.675,1.078-10.742,1.674l-0.279-3.91c1.938-0.557,6.477-1.702,11.021-1.702s9.084,1.146,11.021,1.702
			l-0.279,3.91C26.675,19.016,22.344,17.938,18,17.938z"/>
	</g>
</g>
<g>
</g>
<g>
</g>
<g>
</g>
<g>
</g>
<g>
</g>
<g>
</g>
<g>
</g>
<g>
</g>
<g>
</g>
<g>
</g>
<g>
</g>
<g>
</g>
<g>
</g>
<g>
</g>
<g>
</g>
</svg>
