<?xml version="1.0" encoding="iso-8859-1"?>
<!-- Generator: Adobe Illustrator 16.0.0, SVG Export Plug-In . SVG Version: 6.00 Build 0)  -->
<!DOCTYPE svg PUBLIC "-//W3C//DTD SVG 1.1//EN" "http://www.w3.org/Graphics/SVG/1.1/DTD/svg11.dtd">
<svg version="1.1" id="Layer_1" xmlns="http://www.w3.org/2000/svg" xmlns:xlink="http://www.w3.org/1999/xlink" x="0px" y="0px"
	 width="36px" height="63.999px" viewBox="0 0 36 63.999" style="enable-background:new 0 0 36 63.999;" xml:space="preserve">
<g id="Legs_19_">
	<g>
		<path style="fill-rule:evenodd;clip-rule:evenodd;fill:#D46557;" d="M0,38v4v19.999c0,1.104,0.896,2,2,2s2-0.896,2-2V58h28v3.999
			c0,1.104,0.895,2,2,2c1.104,0,2-0.896,2-2V42v-4H0z M32,54H4V42h28V54z"/>
	</g>
</g>
<g id="Seat_9_">
	<g>
		<polygon style="fill:#ED7161;" points="32,30 4,30 0,34 0,38 36,38 36,34 		"/>
	</g>
</g>
<g id="Backrest_7_">
	<g>
		<path style="fill-rule:evenodd;clip-rule:evenodd;fill:#BA594C;" d="M18,0C10,0,4,0,4,6v24h4c0,0,0-1.625,0-4h20v4h4V6
			C32,0,26,0,18,0z M20,4.004V22h-4V4.004C16.625,4.001,17.28,4,18,4S19.375,4.001,20,4.004z M8,8c0-2.708,0.924-3.581,4-3.863V22H8
			C8,16.65,8,10.203,8,8z M28,22h-4V4.137C27.076,4.419,28,5.292,28,8V22z"/>
	</g>
</g>
<g>
</g>
<g>
</g>
<g>
</g>
<g>
</g>
<g>
</g>
<g>
</g>
<g>
</g>
<g>
</g>
<g>
</g>
<g>
</g>
<g>
</g>
<g>
</g>
<g>
</g>
<g>
</g>
<g>
</g>
</svg>
