<?xml version="1.0" encoding="iso-8859-1"?>
<!-- Generator: Adobe Illustrator 16.0.0, SVG Export Plug-In . SVG Version: 6.00 Build 0)  -->
<!DOCTYPE svg PUBLIC "-//W3C//DTD SVG 1.1//EN" "http://www.w3.org/Graphics/SVG/1.1/DTD/svg11.dtd">
<svg version="1.1" id="Layer_1" xmlns="http://www.w3.org/2000/svg" xmlns:xlink="http://www.w3.org/1999/xlink" x="0px" y="0px"
	 width="44px" height="63.938px" viewBox="0 0 44 63.938" style="enable-background:new 0 0 44 63.938;" xml:space="preserve">
<g id="Legs_17_">
	<g>
		<path style="fill-rule:evenodd;clip-rule:evenodd;fill:#808080;" d="M4,31.938l2,23.999c0,0,0,2,2,2s2-2,2-2L8,31.938H4z
			 M36,31.938l-2,23.999c0,0,0,2,2,2s2-2,2-2l2-23.999H36z"/>
	</g>
</g>
<g id="Legs_18_">
	<g>
		<path style="fill-rule:evenodd;clip-rule:evenodd;fill:#B3B3B3;" d="M40,15.938h-4l2.783,32.001H5.217L8,15.938H4l-4,46
			c0,0,0,2,2,2s2-2,2-2l0.87-9.999H39.13L40,61.938c0,0,0,2,2,2s2-2,2-2L40,15.938z"/>
	</g>
</g>
<g id="Seat_8_">
	<g>
		<path style="fill:#48A0DC;" d="M38,31.938H6c-2.209,0-4,1.791-4,4.001v2h40v-2C42,33.729,40.209,31.938,38,31.938z"/>
	</g>
</g>
<g id="Backrest_6_">
	<g>
		<path style="fill-rule:evenodd;clip-rule:evenodd;fill:#48A0DC;" d="M22,0C8,0,4,1.938,4,7.938v8h36v-8C40,1.938,36,0,22,0z
			 M24,7.938h-4c-1.104,0-2-0.895-2-1.999s0.896-2.001,2-2.001h4c1.104,0,2,0.896,2,2.001S25.104,7.938,24,7.938z"/>
	</g>
</g>
<g>
</g>
<g>
</g>
<g>
</g>
<g>
</g>
<g>
</g>
<g>
</g>
<g>
</g>
<g>
</g>
<g>
</g>
<g>
</g>
<g>
</g>
<g>
</g>
<g>
</g>
<g>
</g>
<g>
</g>
</svg>
