<?xml version="1.0" encoding="iso-8859-1"?>
<!-- Generator: Adobe Illustrator 16.0.0, SVG Export Plug-In . SVG Version: 6.00 Build 0)  -->
<!DOCTYPE svg PUBLIC "-//W3C//DTD SVG 1.1//EN" "http://www.w3.org/Graphics/SVG/1.1/DTD/svg11.dtd">
<svg version="1.1" id="Layer_1" xmlns="http://www.w3.org/2000/svg" xmlns:xlink="http://www.w3.org/1999/xlink" x="0px" y="0px"
	 width="64px" height="64px" viewBox="0 0 64 64" style="enable-background:new 0 0 64 64;" xml:space="preserve">
<g id="Glove">
	<g>
		<path style="fill:#FFCC66;" d="M62,24c-2,0-10,6-10,6s12-12.001,12-14c0-2.001-2-4-4-4S46,24,46,24S58,10,58,7.999
			C58,5.999,56,4,54,4S40,18,40,18s8-12.001,8-14c0-2-2-4-4-4S28.318,18.662,26,20c0,0,4-8,4-10c0-2.001-2-2-4-2s-8,14-10,18
			S0,46,0,48s14,16,16,16s12-12,22-16c10-3.999,26-18.001,26-20C64,25.999,64,24,62,24z"/>
	</g>
</g>
<g>
</g>
<g>
</g>
<g>
</g>
<g>
</g>
<g>
</g>
<g>
</g>
<g>
</g>
<g>
</g>
<g>
</g>
<g>
</g>
<g>
</g>
<g>
</g>
<g>
</g>
<g>
</g>
<g>
</g>
</svg>
