<?xml version="1.0" encoding="iso-8859-1"?>
<!-- Generator: Adobe Illustrator 16.0.0, SVG Export Plug-In . SVG Version: 6.00 Build 0)  -->
<!DOCTYPE svg PUBLIC "-//W3C//DTD SVG 1.1//EN" "http://www.w3.org/Graphics/SVG/1.1/DTD/svg11.dtd">
<svg version="1.1" id="Layer_1" xmlns="http://www.w3.org/2000/svg" xmlns:xlink="http://www.w3.org/1999/xlink" x="0px" y="0px"
	 width="64px" height="64px" viewBox="0 0 64 64" style="enable-background:new 0 0 64 64;" xml:space="preserve">
<g id="Body_27_">
	<g>
		<path style="fill:#A67C52;" d="M60,0H4C1.791,0,0,1.791,0,4v56c0,2.209,1.791,4,4,4h56c2.209,0,4-1.791,4-4V4
			C64,1.791,62.209,0,60,0z"/>
	</g>
</g>
<g id="Mirror_2_">
	<g>
		<rect x="34" y="4" style="fill:#CCCCCC;" width="26" height="56"/>
	</g>
</g>
<g id="Mirror_3_">
	<g>
		<rect x="4" y="4" style="fill:#E6E6E6;" width="30" height="56"/>
	</g>
</g>
<g id="Handles_2_">
	<g>
		<path style="fill-rule:evenodd;clip-rule:evenodd;fill:#735538;" d="M6,28c-1.104,0-2,0.896-2,2v4c0,1.104,0.896,2,2,2
			s2-0.896,2-2v-4C8,28.896,7.104,28,6,28z M58,28c-1.104,0-2,0.896-2,2v4c0,1.104,0.896,2,2,2s2-0.896,2-2v-4
			C60,28.896,59.104,28,58,28z"/>
	</g>
</g>
<g>
</g>
<g>
</g>
<g>
</g>
<g>
</g>
<g>
</g>
<g>
</g>
<g>
</g>
<g>
</g>
<g>
</g>
<g>
</g>
<g>
</g>
<g>
</g>
<g>
</g>
<g>
</g>
<g>
</g>
</svg>
