<?xml version="1.0" encoding="iso-8859-1"?>
<!-- Generator: Adobe Illustrator 16.0.0, SVG Export Plug-In . SVG Version: 6.00 Build 0)  -->
<!DOCTYPE svg PUBLIC "-//W3C//DTD SVG 1.1//EN" "http://www.w3.org/Graphics/SVG/1.1/DTD/svg11.dtd">
<svg version="1.1" id="Layer_1" xmlns="http://www.w3.org/2000/svg" xmlns:xlink="http://www.w3.org/1999/xlink" x="0px" y="0px"
	 width="56px" height="64px" viewBox="0 0 56 64" style="enable-background:new 0 0 56 64;" xml:space="preserve">
<g id="Handle_35_">
	<g>
		<path style="fill:#333333;" d="M46,30c-4.117,0-22.252,0-22,0c-2,0-4,2-4,4h24c2,0,9,8,10,8s2-1,2-2C55.821,39.016,50,30,46,30z"
			/>
	</g>
</g>
<g id="Bowl_6_">
	<g>
		<path style="fill:#CCCCCC;" d="M44,34H20c0,0-2,4-4,10h32C46,38,44,34,44,34z"/>
	</g>
</g>
<g id="Bowl_2_">
	<g>
		<path style="fill:#A67C52;" d="M48,44H16c-2,6-2,8-2,10c0,0,0,4,4,4h28c4,0,4-4,4-4C50,52,50,50,48,44z"/>
	</g>
</g>
<g id="Base_11_">
	<g>
		<path style="fill:#666666;" d="M50,58H22c-2,0-4-2-4-4V8h32c0-2,0-4-2-4H4C2,4,0,6,0,8c0,8,4,12,4,26S0,52,0,60c0,2,2.063,4,4,4
			h48c1.104,0,2,0,2-2C54,61,51,58,50,58z"/>
	</g>
</g>
<g id="Filter_1_">
	<g>
		<path style="fill:#4D4D4D;" d="M14,8c0,14,10,22,12,22s10,0,12,0s12-8,12-22H14z"/>
	</g>
</g>
<g id="Cap_5_">
	<g>
		<path style="fill:#4D4D4D;" d="M36,0h-8c-2,0-12,2-12,4h32C48,2,38,0,36,0z"/>
	</g>
</g>
<g>
</g>
<g>
</g>
<g>
</g>
<g>
</g>
<g>
</g>
<g>
</g>
<g>
</g>
<g>
</g>
<g>
</g>
<g>
</g>
<g>
</g>
<g>
</g>
<g>
</g>
<g>
</g>
<g>
</g>
</svg>
