<?xml version="1.0" encoding="iso-8859-1"?>
<!-- Generator: Adobe Illustrator 16.0.0, SVG Export Plug-In . SVG Version: 6.00 Build 0)  -->
<!DOCTYPE svg PUBLIC "-//W3C//DTD SVG 1.1//EN" "http://www.w3.org/Graphics/SVG/1.1/DTD/svg11.dtd">
<svg version="1.1" id="Layer_1" xmlns="http://www.w3.org/2000/svg" xmlns:xlink="http://www.w3.org/1999/xlink" x="0px" y="0px"
	 width="52px" height="64px" viewBox="0 0 52 64" style="enable-background:new 0 0 52 64;" xml:space="preserve">
<g id="Handle_33_">
	<g>
		<path style="fill:#666666;" d="M46,10c-2,0-10,0-10,0v14c4,0,4-10,8-10c2,0,4,0,4,4c0,12-6,11.764-6,14c0,2,2,2,4,2s6-8,6-16
			C52,14,50,10,46,10z"/>
	</g>
</g>
<g id="Pourer_1_">
	<g>
		<path style="fill:#E6E6E6;" d="M4.063,10C2.125,10,0,10,0,12s2.029,3.969,4.03,5.968S14,28,14,28V10H4.063z"/>
	</g>
</g>
<g id="Base_9_">
	<g>
		<path style="fill:#CCCCCC;" d="M14,36h20c2,0,6-24,6-26H8C8,12,12,36,14,36z M34,40H14c-2,0-6,20-6,22s2,2,4,2h24c2,0,4,0,4-2
			S36,40,34,40z"/>
	</g>
</g>
<g id="Middle">
	<g>
		<rect x="14" y="36" style="fill:#999999;" width="20" height="4"/>
	</g>
</g>
<g id="Side">
	<g>
		<path style="fill:#E6E6E6;" d="M28,36l4-26H16l4,26H28z M20,40c0,0-4,22-4,24h16c0-2-4-24-4-24H20z"/>
	</g>
</g>
<g id="Lid_4_">
	<g>
		<path style="fill-rule:evenodd;clip-rule:evenodd;fill:#666666;" d="M26,6V2c0-1.104-0.896-2-2-2s-2,0.896-2,2v4C20,6,8,8,8,10h32
			C40,8,28,6,26,6z"/>
	</g>
</g>
<g>
</g>
<g>
</g>
<g>
</g>
<g>
</g>
<g>
</g>
<g>
</g>
<g>
</g>
<g>
</g>
<g>
</g>
<g>
</g>
<g>
</g>
<g>
</g>
<g>
</g>
<g>
</g>
<g>
</g>
</svg>
