<?xml version="1.0" encoding="iso-8859-1"?>
<!-- Generator: Adobe Illustrator 16.0.0, SVG Export Plug-In . SVG Version: 6.00 Build 0)  -->
<!DOCTYPE svg PUBLIC "-//W3C//DTD SVG 1.1//EN" "http://www.w3.org/Graphics/SVG/1.1/DTD/svg11.dtd">
<svg version="1.1" id="Layer_1" xmlns="http://www.w3.org/2000/svg" xmlns:xlink="http://www.w3.org/1999/xlink" x="0px" y="0px"
	 width="56px" height="64px" viewBox="0 0 56 64" style="enable-background:new 0 0 56 64;" xml:space="preserve">
<g id="Comb_1_">
	<g>
		<path style="fill:#9B7CAB;" d="M44,0L14,30c0,0,6,6,6,8c0,4-6,8-12,12s-8,6-8,8s2,6,6,6c2,0,4-2,6-4s38-38,40-40s4-4,4-8
			S44,0,44,0z"/>
	</g>
</g>
<g id="Teeth">
	<g>
		<path style="fill:#CAA2DE;" d="M42,2L16,28c0,0,6,6,8,6c4,0,24-20,24-24C48,8,42,2,42,2z"/>
	</g>
</g>
<g>
</g>
<g>
</g>
<g>
</g>
<g>
</g>
<g>
</g>
<g>
</g>
<g>
</g>
<g>
</g>
<g>
</g>
<g>
</g>
<g>
</g>
<g>
</g>
<g>
</g>
<g>
</g>
<g>
</g>
</svg>
