<?xml version="1.0" encoding="iso-8859-1"?>
<!-- Generator: Adobe Illustrator 16.0.0, SVG Export Plug-In . SVG Version: 6.00 Build 0)  -->
<!DOCTYPE svg PUBLIC "-//W3C//DTD SVG 1.1//EN" "http://www.w3.org/Graphics/SVG/1.1/DTD/svg11.dtd">
<svg version="1.1" id="Layer_1" xmlns="http://www.w3.org/2000/svg" xmlns:xlink="http://www.w3.org/1999/xlink" x="0px" y="0px"
	 width="64px" height="64px" viewBox="0 0 64 64" style="enable-background:new 0 0 64 64;" xml:space="preserve">
<g id="Screw">
	<g>
		<path style="fill-rule:evenodd;clip-rule:evenodd;fill:#999999;" d="M0,64c6,0,8-6,10-8H4C4,58,2,64,0,64z M50,12c-2,0-4,2-6,4
			L30,30c-2,2-2,6-4,8h6c0-2,2-4,4-6l12-12c2-2,4-4,4-6C52,13,51,12,50,12z M18,46h6c0-2,0-4,2-6h-6C20,42,20,44,18,46z M10,54h6
			c0-2,0-4,2-6h-6C12,50,12,52,10,54z"/>
	</g>
</g>
<g id="Screw_1_">
	<g>
		<path style="fill-rule:evenodd;clip-rule:evenodd;fill:#CCCCCC;" d="M24,36c-2,0-4,2-4,4c6,0,6,2,8,2s4-2,4-4C26,38,26,36,24,36z
			 M12,48c6,0,6,2,8,2s4-2,4-4c-6,0-6-2-8-2S12,46,12,48z M4,56c6,0,6,2,8,2s4-2,4-4c-6,0-6-2-8-2S4,54,4,56z"/>
	</g>
</g>
<g id="Handle_16_">
	<g>
		<path style="fill:#F2CDA7;" d="M56,24c-2-2-2-6-6-10s-8-4-10-6s-6-8-8-8c-4,0-6,2-6,6c0,2,6,6,8,8s2,6,6,10s8,4,10,6s6,8,8,8
			c4,0,6-2,6-6C64,30,58,26,56,24z"/>
	</g>
</g>
<g>
</g>
<g>
</g>
<g>
</g>
<g>
</g>
<g>
</g>
<g>
</g>
<g>
</g>
<g>
</g>
<g>
</g>
<g>
</g>
<g>
</g>
<g>
</g>
<g>
</g>
<g>
</g>
<g>
</g>
</svg>
