<?xml version="1.0" encoding="iso-8859-1"?>
<!-- Generator: Adobe Illustrator 16.0.0, SVG Export Plug-In . SVG Version: 6.00 Build 0)  -->
<!DOCTYPE svg PUBLIC "-//W3C//DTD SVG 1.1//EN" "http://www.w3.org/Graphics/SVG/1.1/DTD/svg11.dtd">
<svg version="1.1" id="Layer_1" xmlns="http://www.w3.org/2000/svg" xmlns:xlink="http://www.w3.org/1999/xlink" x="0px" y="0px"
	 width="64px" height="36px" viewBox="0 0 64 36" style="enable-background:new 0 0 64 36;" xml:space="preserve">
<g id="Legs_10_">
	<g>
		<path style="fill-rule:evenodd;clip-rule:evenodd;fill:#CCCCCC;" d="M6,36h4v-4H6V36z M54,32v4h4v-4H54z"/>
	</g>
</g>
<g id="Backrest_1_">
	<g>
		<path style="fill:#B3B3B3;" d="M32,0C6,0,6-0.001,6,12v13.999h52V12C58-0.001,58,0,32,0z"/>
	</g>
</g>
<g id="Seat_3_">
	<g>
		<path style="fill:#CCCCCC;" d="M54,15.999H10c-1.105,0-2,0.896-2,2v2h48v-2C56,16.895,55.104,15.999,54,15.999z"/>
	</g>
</g>
<g id="Arms_1_">
	<g>
		<path style="fill-rule:evenodd;clip-rule:evenodd;fill:#666666;" d="M62,12h-4c-1.105,0-2,0.895-2,2v12H8V14c0-1.105-0.896-2-2-2
			H2c-1.104,0-2,0.895-2,2v16c0,1.104,0.896,2,2,2h2h2h52h2h2c1.104,0,2-0.896,2-2V14C64,12.895,63.104,12,62,12z"/>
	</g>
</g>
<g>
</g>
<g>
</g>
<g>
</g>
<g>
</g>
<g>
</g>
<g>
</g>
<g>
</g>
<g>
</g>
<g>
</g>
<g>
</g>
<g>
</g>
<g>
</g>
<g>
</g>
<g>
</g>
<g>
</g>
</svg>
