<?xml version="1.0" encoding="iso-8859-1"?>
<!-- Generator: Adobe Illustrator 16.0.0, SVG Export Plug-In . SVG Version: 6.00 Build 0)  -->
<!DOCTYPE svg PUBLIC "-//W3C//DTD SVG 1.1//EN" "http://www.w3.org/Graphics/SVG/1.1/DTD/svg11.dtd">
<svg version="1.1" id="Layer_1" xmlns="http://www.w3.org/2000/svg" xmlns:xlink="http://www.w3.org/1999/xlink" x="0px" y="0px"
	 width="64px" height="36px" viewBox="0 0 64 36" style="enable-background:new 0 0 64 36;" xml:space="preserve">
<g id="Legs_9_">
	<g>
		<polygon style="fill-rule:evenodd;clip-rule:evenodd;fill:#CCCCCC;" points="54,28 54,30 10,30 10,28 6,28 6,36 10,36 10,34 
			54,34 54,36 58,36 58,28 		"/>
	</g>
</g>
<g id="Backrest">
	<g>
		<path style="fill-rule:evenodd;clip-rule:evenodd;fill:#88C057;" d="M54,0H10C8,0,6,1.999,6,4c0,6,0,16,0,16v4h52v-4
			c0,0,0-10,0-16C58,1.999,56,0,54,0z"/>
	</g>
</g>
<g id="Seat_2_">
	<g>
		<path style="fill:#99D962;" d="M56,15.999H8c-1.105,0-2,0.896-2,2v2h52v-2C58,16.895,57.104,15.999,56,15.999z"/>
	</g>
</g>
<g id="Arms">
	<g>
		<path style="fill:#638C3F;" d="M60,16c-1,0-7,8-8,8H12c-1,0-7-8-8-8s-4,2.999-4,4c0,1,7,10,8,10h48c1,0,8-9,8-10
			C64,18.999,61,16,60,16z"/>
	</g>
</g>
<g>
</g>
<g>
</g>
<g>
</g>
<g>
</g>
<g>
</g>
<g>
</g>
<g>
</g>
<g>
</g>
<g>
</g>
<g>
</g>
<g>
</g>
<g>
</g>
<g>
</g>
<g>
</g>
<g>
</g>
</svg>
