<?xml version="1.0" encoding="iso-8859-1"?>
<!-- Generator: Adobe Illustrator 16.0.0, SVG Export Plug-In . SVG Version: 6.00 Build 0)  -->
<!DOCTYPE svg PUBLIC "-//W3C//DTD SVG 1.1//EN" "http://www.w3.org/Graphics/SVG/1.1/DTD/svg11.dtd">
<svg version="1.1" id="Layer_1" xmlns="http://www.w3.org/2000/svg" xmlns:xlink="http://www.w3.org/1999/xlink" x="0px" y="0px"
	 width="64px" height="40px" viewBox="0 0 64 40" style="enable-background:new 0 0 64 40;" xml:space="preserve">
<g id="Legs_11_">
	<g>
		<path style="fill-rule:evenodd;clip-rule:evenodd;fill:#735538;" d="M10,30.001c-1.105,0-2,0.895-2,2v6C8,39.104,8.895,40,10,40
			c1.104,0,2-0.896,2-1.999v-6C12,30.896,11.104,30.001,10,30.001z M54,30.001c-1.104,0-2,0.895-2,2v6C52,39.104,52.896,40,54,40
			s2-0.896,2-1.999v-6C56,30.896,55.104,30.001,54,30.001z"/>
	</g>
</g>
<g id="Backrest_2_">
	<g>
		<path style="fill:#CCC2B8;" d="M32,0C6,0,6,4,6,8c0,4.001,2,8.001,2,22.001h48c0-14,2-18,2-22.001C58,4,58,0,32,0z"/>
	</g>
</g>
<g id="Nails">
	<g>
		<path style="fill-rule:evenodd;clip-rule:evenodd;fill:#B3AAA1;" d="M32,6.001c-1.105,0-2,0.895-2,1.999
			c0,1.105,0.895,2.001,2,2.001c1.104,0,2-0.896,2-2.001C34,6.896,33.104,6.001,32,6.001z M38,12.001c-1.105,0-2,0.895-2,2
			c0,1.104,0.895,2,2,2c1.104,0,2-0.896,2-2C40,12.896,39.104,12.001,38,12.001z M44,6.001c-1.105,0-2,0.895-2,1.999
			c0,1.105,0.895,2.001,2,2.001c1.104,0,2-0.896,2-2.001C46,6.896,45.104,6.001,44,6.001z M26,12.001c-1.105,0-2,0.895-2,2
			c0,1.104,0.895,2,2,2c1.104,0,2-0.896,2-2C28,12.896,27.104,12.001,26,12.001z M20,6.001c-1.105,0-2,0.895-2,1.999
			c0,1.105,0.895,2.001,2,2.001c1.104,0,2-0.896,2-2.001C22,6.896,21.104,6.001,20,6.001z M14,12.001c-1.105,0-2,0.895-2,2
			c0,1.104,0.895,2,2,2c1.104,0,2-0.896,2-2C16,12.896,15.104,12.001,14,12.001z M50,12.001c-1.105,0-2,0.895-2,2
			c0,1.104,0.895,2,2,2c1.104,0,2-0.896,2-2C52,12.896,51.104,12.001,50,12.001z"/>
	</g>
</g>
<g id="Seat_4_">
	<g>
		<path style="fill:#E6DACF;" d="M54,20H10c-1.105,0-2,0.896-2,2.001V24h48v-1.999C56,20.896,55.104,20,54,20z"/>
	</g>
</g>
<g id="Arms_2_">
	<g>
		<path style="fill-rule:evenodd;clip-rule:evenodd;fill:#A67C52;" d="M60,16.001c-2.209,0-4,1.79-4,4v4c0,2,0,6-2,6H10
			c-2,0-2-4-2-6v-4c0-2.21-1.791-4-4-4s-4,1.79-4,4c0,4,4,4,4,6c0,6,0,10,4,10h2V36l44,0.001h2c4,0,4-4,4-10c0-2,4-2,4-6
			C64,17.791,62.209,16.001,60,16.001z"/>
	</g>
</g>
<g>
</g>
<g>
</g>
<g>
</g>
<g>
</g>
<g>
</g>
<g>
</g>
<g>
</g>
<g>
</g>
<g>
</g>
<g>
</g>
<g>
</g>
<g>
</g>
<g>
</g>
<g>
</g>
<g>
</g>
</svg>
