<?xml version="1.0" encoding="iso-8859-1"?>
<!-- Generator: Adobe Illustrator 16.0.0, SVG Export Plug-In . SVG Version: 6.00 Build 0)  -->
<!DOCTYPE svg PUBLIC "-//W3C//DTD SVG 1.1//EN" "http://www.w3.org/Graphics/SVG/1.1/DTD/svg11.dtd">
<svg version="1.1" id="Layer_1" xmlns="http://www.w3.org/2000/svg" xmlns:xlink="http://www.w3.org/1999/xlink" x="0px" y="0px"
	 width="64px" height="48.001px" viewBox="0 0 64 48.001" style="enable-background:new 0 0 64 48.001;" xml:space="preserve">
<g id="Plate_3_">
	<g>
		<path style="fill:#ED7161;" d="M54,42.001H2c-1.105,0-2,0.895-2,2c0,1.104,0.895,2,2,2h6l6,2h28l6-2h6c1.104,0,2-0.896,2-2
			C56,42.896,55.104,42.001,54,42.001z"/>
	</g>
</g>
<g id="Cup_2_">
	<g>
		<path style="fill-rule:evenodd;clip-rule:evenodd;fill:#FFCC66;" d="M64,16.001c0-7.465-5.119-10.87-12.032-11.751
			C51.988,3.51,52,2.762,52,2.001C52,0,51.104,0,50,0H6C4.896,0,4,0,4,2.001c0,26,12,40,12,40h24c0,0,1.798-2.104,4-6.18
			C52.691,34.376,64,24.191,64,16.001z M47.415,28.284c1.817-4.831,3.445-10.9,4.175-18.149C55.336,10.489,58,11.745,58,16.001
			C58,19.99,52.532,25.521,47.415,28.284z"/>
	</g>
</g>
<g>
</g>
<g>
</g>
<g>
</g>
<g>
</g>
<g>
</g>
<g>
</g>
<g>
</g>
<g>
</g>
<g>
</g>
<g>
</g>
<g>
</g>
<g>
</g>
<g>
</g>
<g>
</g>
<g>
</g>
</svg>
