<?xml version="1.0" encoding="iso-8859-1"?>
<!-- Generator: Adobe Illustrator 16.0.0, SVG Export Plug-In . SVG Version: 6.00 Build 0)  -->
<!DOCTYPE svg PUBLIC "-//W3C//DTD SVG 1.1//EN" "http://www.w3.org/Graphics/SVG/1.1/DTD/svg11.dtd">
<svg version="1.1" id="Layer_1" xmlns="http://www.w3.org/2000/svg" xmlns:xlink="http://www.w3.org/1999/xlink" x="0px" y="0px"
	 width="64px" height="44px" viewBox="0 0 64 44" style="enable-background:new 0 0 64 44;" xml:space="preserve">
<g id="Body_36_">
	<g>
		<path style="fill:#999999;" d="M60,4H4C1.791,4,0,5.791,0,8v28c0,2.209,1.791,4,4,4h56c2.209,0,4-1.791,4-4V8
			C64,5.791,62.209,4,60,4z"/>
	</g>
</g>
<g id="Dial_1_">
	<g>
		<path style="fill:#666666;" d="M58,8H6c-1.104,0-2,0.896-2,2v24.001C4,35.104,4.896,36,6,36h52c1.104,0,2-0.896,2-1.999V10
			C60,8.896,59.104,8,58,8z"/>
	</g>
</g>
<g id="Clock">
	<g>
		<path style="fill-rule:evenodd;clip-rule:evenodd;fill:#87BF56;" d="M18,14.001C18,12.896,17.104,12,16,12h-4
			c-1.104,0-2,0.896-2,2.001c-1.104,0-2,0.895-2,1.999v4c0,1.104,0.896,2.001,2,2.001c-1.104,0-2,0.895-2,1.999v4
			c0,1.104,0.896,2.001,2,2.001C10,31.104,10.896,32,12,32h4c1.104,0,2-0.896,2-1.999c1.104,0,2-0.896,2-2.001v-4
			c0-1.104-0.896-1.999-2-1.999c1.104,0,2-0.896,2-2.001v-4C20,14.896,19.104,14.001,18,14.001z M16,28h-4v-4h4V28z M16,20h-4v-4h4
			V20z M38,14.001C38,12.896,37.104,12,36,12h-4c-1.104,0-2,0.896-2,2.001c-1.104,0-2,0.895-2,1.999v12c0,1.104,0.896,2.001,2,2.001
			C30,31.104,30.896,32,32,32h4c1.104,0,2-0.896,2-1.999c1.104,0,2-0.896,2-2.001V16C40,14.896,39.104,14.001,38,14.001z M36,28h-4
			V16h4V28z M54,14.001C54,12.896,53.104,12,52,12h-4c-1.104,0-2,0.896-2,2.001c-1.104,0-2,0.895-2,1.999v12
			c0,1.104,0.896,2.001,2,2.001C46,31.104,46.896,32,48,32h4c1.104,0,2-0.896,2-1.999c1.104,0,2-0.896,2-2.001V16
			C56,14.896,55.104,14.001,54,14.001z M52,28h-4V16h4V28z M24,16c-1.104,0-2,0.896-2,2.001C22,19.104,22.896,20,24,20
			s2-0.896,2-1.999C26,16.896,25.104,16,24,16z M24,24c-1.104,0-2,0.896-2,2.001C22,27.104,22.896,28,24,28s2-0.896,2-1.999
			C26,24.896,25.104,24,24,24z"/>
	</g>
</g>
<g id="Legs_6_">
	<g>
		<path style="fill-rule:evenodd;clip-rule:evenodd;fill:#999999;" d="M6,42.001C6,43.104,6.896,44,8,44h8c1.104,0,2-0.896,2-1.999
			V40H6V42.001z M46,40v2.001C46,43.104,46.896,44,48,44h8c1.104,0,2-0.896,2-1.999V40H46z"/>
	</g>
</g>
<g id="Button_9_">
	<g>
		<path style="fill:#808080;" d="M38,0H14c-1.104,0-2,0.896-2,2v2h28V2C40,0.896,39.104,0,38,0z"/>
	</g>
</g>
<g id="Button_10_">
	<g>
		<path style="fill:#ED7161;" d="M52,0h-4c-1.104,0-2,0.896-2,2v2h8V2C54,0.896,53.104,0,52,0z"/>
	</g>
</g>
<g>
</g>
<g>
</g>
<g>
</g>
<g>
</g>
<g>
</g>
<g>
</g>
<g>
</g>
<g>
</g>
<g>
</g>
<g>
</g>
<g>
</g>
<g>
</g>
<g>
</g>
<g>
</g>
<g>
</g>
</svg>
