<?xml version="1.0" encoding="iso-8859-1"?>
<!-- Generator: Adobe Illustrator 16.0.0, SVG Export Plug-In . SVG Version: 6.00 Build 0)  -->
<!DOCTYPE svg PUBLIC "-//W3C//DTD SVG 1.1//EN" "http://www.w3.org/Graphics/SVG/1.1/DTD/svg11.dtd">
<svg version="1.1" id="Layer_1" xmlns="http://www.w3.org/2000/svg" xmlns:xlink="http://www.w3.org/1999/xlink" x="0px" y="0px"
	 width="48px" height="64px" viewBox="0 0 48 64" style="enable-background:new 0 0 48 64;" xml:space="preserve">
<g id="Door_5_">
	<g>
		<rect y="11.999" style="fill:#CCCCCC;" width="48" height="48.001"/>
	</g>
</g>
<g id="Body_59_">
	<g>
		<path style="fill:#E6E6E6;" d="M4,64h40c2.209,0,4-1.791,4-4H0C0,62.209,1.791,64,4,64z M46,0h-2H4H2C0.896,0,0,0.896,0,2v2v7.999
			h48V4V2C48,0.896,47.104,0,46,0z"/>
	</g>
</g>
<g id="Handle_42_">
	<g>
		<path style="fill:#E6E6E6;" d="M32,15.999H16c-1.104,0-2,0.896-2,2.001c0,1.104,0.896,1.999,2,1.999h16c1.104,0,2-0.895,2-1.999
			C34,16.895,33.104,15.999,32,15.999z"/>
	</g>
</g>
<g id="Knobs_5_">
	<g>
		<path style="fill-rule:evenodd;clip-rule:evenodd;fill:#999999;" d="M16,3.999c-1.104,0-2,0.896-2,2.001s0.896,1.999,2,1.999
			S18,7.104,18,6S17.104,3.999,16,3.999z M8,3.999C6.896,3.999,6,4.896,6,6s0.896,1.999,2,1.999S10,7.104,10,6S9.104,3.999,8,3.999z
			"/>
	</g>
</g>
<g id="Screen_3_">
	<g>
		<rect x="30" y="4" style="fill:#999999;" width="12" height="4"/>
	</g>
</g>
<g>
</g>
<g>
</g>
<g>
</g>
<g>
</g>
<g>
</g>
<g>
</g>
<g>
</g>
<g>
</g>
<g>
</g>
<g>
</g>
<g>
</g>
<g>
</g>
<g>
</g>
<g>
</g>
<g>
</g>
</svg>
