<?xml version="1.0" encoding="iso-8859-1"?>
<!-- Generator: Adobe Illustrator 16.0.0, SVG Export Plug-In . SVG Version: 6.00 Build 0)  -->
<!DOCTYPE svg PUBLIC "-//W3C//DTD SVG 1.1//EN" "http://www.w3.org/Graphics/SVG/1.1/DTD/svg11.dtd">
<svg version="1.1" id="Layer_1" xmlns="http://www.w3.org/2000/svg" xmlns:xlink="http://www.w3.org/1999/xlink" x="0px" y="0px"
	 width="64px" height="44.001px" viewBox="0 0 64 44.001" style="enable-background:new 0 0 64 44.001;" xml:space="preserve">
<g id="Legs_1_">
	<g>
		<path style="fill-rule:evenodd;clip-rule:evenodd;fill:#735538;" d="M0,44.001h2c2,0,2-4,4-4H0V44.001z M58,40.001c2,0,2,4,4,4h2
			v-4H58z"/>
	</g>
</g>
<g id="Body_30_">
	<g>
		<path style="fill:#A67C52;" d="M60,0H4C1.791,0,0,1.791,0,4v36.001h64V4C64,1.791,62.209,0,60,0z"/>
	</g>
</g>
<g id="Drawer_1_">
	<g>
		<path style="fill-rule:evenodd;clip-rule:evenodd;fill:#E6AB70;" d="M58,4H6C4.896,4,4,4.896,4,6v10c0,1.104,0.896,2.001,2,2.001
			h52c1.104,0,2-0.896,2-2.001V6C60,4.896,59.104,4,58,4z M58,22.001H6c-1.104,0-2,0.895-2,1.999v10.001C4,35.104,4.896,36,6,36h52
			c1.104,0,2-0.896,2-1.999V24C60,22.896,59.104,22.001,58,22.001z"/>
	</g>
</g>
<g id="Handles_5_">
	<g>
		<path style="fill-rule:evenodd;clip-rule:evenodd;fill:#735538;" d="M12,8c-1.105,0-2,0.896-2,2.001C10,11.104,10.895,12,12,12
			c1.104,0,2-0.896,2-1.999C14,8.896,13.104,8,12,8z M12,26.001c-1.105,0-2,0.895-2,1.999s0.895,2.001,2,2.001
			c1.104,0,2-0.896,2-2.001S13.104,26.001,12,26.001z M52,12c1.104,0,2-0.896,2-1.999C54,8.896,53.104,8,52,8
			c-1.105,0-2,0.896-2,2.001C50,11.104,50.895,12,52,12z M52,26.001c-1.105,0-2,0.895-2,1.999s0.895,2.001,2,2.001
			c1.104,0,2-0.896,2-2.001S53.104,26.001,52,26.001z"/>
	</g>
</g>
<g>
</g>
<g>
</g>
<g>
</g>
<g>
</g>
<g>
</g>
<g>
</g>
<g>
</g>
<g>
</g>
<g>
</g>
<g>
</g>
<g>
</g>
<g>
</g>
<g>
</g>
<g>
</g>
<g>
</g>
</svg>
