<?xml version="1.0" encoding="iso-8859-1"?>
<!-- Generator: Adobe Illustrator 16.0.0, SVG Export Plug-In . SVG Version: 6.00 Build 0)  -->
<!DOCTYPE svg PUBLIC "-//W3C//DTD SVG 1.1//EN" "http://www.w3.org/Graphics/SVG/1.1/DTD/svg11.dtd">
<svg version="1.1" id="Layer_1" xmlns="http://www.w3.org/2000/svg" xmlns:xlink="http://www.w3.org/1999/xlink" x="0px" y="0px"
	 width="52px" height="64px" viewBox="0 0 52 64" style="enable-background:new 0 0 52 64;" xml:space="preserve">
<g id="Body_33_">
	<g>
		<path style="fill:#A67C52;" d="M48,0H4C1.791,0,0,1.791,0,4v56c0,2.209,1.791,4,4,4h44c2.209,0,4-1.791,4-4V4
			C52,1.791,50.209,0,48,0z"/>
	</g>
</g>
<g id="Back">
	<g>
		<path style="fill-rule:evenodd;clip-rule:evenodd;fill:#59422C;" d="M46,4H6C4.896,4,4,4.896,4,6v32c0,1.104,0.896,2,2,2h40
			c1.104,0,2-0.896,2-2V6C48,4.896,47.104,4,46,4z M46,44H6c-1.104,0-2,0.896-2,2v12c0,1.104,0.896,2,2,2h40c1.104,0,2-0.896,2-2V46
			C48,44.896,47.104,44,46,44z"/>
	</g>
</g>
<g id="Drawers">
	<g>
		<rect x="4" y="48" style="fill:#E6AB70;" width="44" height="8"/>
	</g>
</g>
<g id="Bar">
	<g>
		<rect x="4" y="10" style="fill:#999999;" width="44" height="4"/>
	</g>
</g>
<g>
</g>
<g>
</g>
<g>
</g>
<g>
</g>
<g>
</g>
<g>
</g>
<g>
</g>
<g>
</g>
<g>
</g>
<g>
</g>
<g>
</g>
<g>
</g>
<g>
</g>
<g>
</g>
<g>
</g>
</svg>
