<?xml version="1.0" encoding="iso-8859-1"?>
<!-- Generator: Adobe Illustrator 16.0.0, SVG Export Plug-In . SVG Version: 6.00 Build 0)  -->
<!DOCTYPE svg PUBLIC "-//W3C//DTD SVG 1.1//EN" "http://www.w3.org/Graphics/SVG/1.1/DTD/svg11.dtd">
<svg version="1.1" id="Layer_1" xmlns="http://www.w3.org/2000/svg" xmlns:xlink="http://www.w3.org/1999/xlink" x="0px" y="0px"
	 width="52px" height="64px" viewBox="0 0 52 64" style="enable-background:new 0 0 52 64;" xml:space="preserve">
<g id="Legs_2_">
	<g>
		<path style="fill-rule:evenodd;clip-rule:evenodd;fill:#735538;" d="M4,62c0,1.104,0.895,2,2,2c1.104,0,2-0.896,2-2V48H4V62z
			 M44,48v14c0,1.104,0.896,2,2,2s2-0.896,2-2V48H44z"/>
	</g>
</g>
<g id="Body_31_">
	<g>
		<path style="fill-rule:evenodd;clip-rule:evenodd;fill:#A67C52;" d="M48,32H36.046C39.675,28.7,42,23.658,42,18
			c0-9.941-7.164-18-16-18c-8.837,0-16,8.059-16,18c0,5.658,2.325,10.7,5.954,14H4c-2.209,0-4,1.791-4,4v8c0,2.209,1.791,4,4,4h44
			c2.209,0,4-1.791,4-4v-8C52,33.791,50.209,32,48,32z"/>
	</g>
</g>
<g id="Drawer_3_">
	<g>
		<path style="fill:#E6AB70;" d="M46,36H6c-1.105,0-2,0.896-2,2v4c0,1.104,0.895,2,2,2h40c1.104,0,2-0.896,2-2v-4
			C48,36.896,47.104,36,46,36z"/>
	</g>
</g>
<g id="Handles_6_">
	<g>
		<path style="fill-rule:evenodd;clip-rule:evenodd;fill:#735538;" d="M10,38c-1.104,0-2,0.896-2,2s0.896,2,2,2s2-0.896,2-2
			S11.104,38,10,38z M42,38c-1.105,0-2,0.896-2,2s0.895,2,2,2c1.104,0,2-0.896,2-2S43.104,38,42,38z"/>
	</g>
</g>
<g id="Mirror_4_">
	<g>
		<ellipse style="fill:#E6E6E6;" cx="26" cy="18" rx="12" ry="14"/>
	</g>
</g>
<g>
</g>
<g>
</g>
<g>
</g>
<g>
</g>
<g>
</g>
<g>
</g>
<g>
</g>
<g>
</g>
<g>
</g>
<g>
</g>
<g>
</g>
<g>
</g>
<g>
</g>
<g>
</g>
<g>
</g>
</svg>
