<?xml version="1.0" encoding="iso-8859-1"?>
<!-- Generator: Adobe Illustrator 16.0.0, SVG Export Plug-In . SVG Version: 6.00 Build 0)  -->
<!DOCTYPE svg PUBLIC "-//W3C//DTD SVG 1.1//EN" "http://www.w3.org/Graphics/SVG/1.1/DTD/svg11.dtd">
<svg version="1.1" id="Layer_1" xmlns="http://www.w3.org/2000/svg" xmlns:xlink="http://www.w3.org/1999/xlink" x="0px" y="0px"
	 width="64px" height="64px" viewBox="0 0 64 64" style="enable-background:new 0 0 64 64;" xml:space="preserve">
<g id="Body_22_">
	<g>
		<path style="fill-rule:evenodd;clip-rule:evenodd;fill:#88C057;" d="M64,4c0-2-2-4-4-4s-4,0-8,4c-1.588,1.588-13.259,13.259-18,18
			l-2-2c-4-4-6-4-8-4S0,32,0,32l32,32c0,0,16-22,16-24c0-2.001,0-4-4-8l-2-2c4.741-4.741,16.412-16.412,18-18C64,8,64,6,64,4z M58,8
			c-1.104,0-2-0.896-2-2c0-1.105,0.896-2,2-2s2,0.895,2,2C60,7.104,59.104,8,58,8z"/>
	</g>
</g>
<g id="Pan">
	<g>
		<path style="fill:#638C3F;" d="M38,34l-8-8c-2-2-4-4-6-4S0,32,0,32l32,32c0,0,10-22,10-24S40,36,38,34z"/>
	</g>
</g>
<g>
</g>
<g>
</g>
<g>
</g>
<g>
</g>
<g>
</g>
<g>
</g>
<g>
</g>
<g>
</g>
<g>
</g>
<g>
</g>
<g>
</g>
<g>
</g>
<g>
</g>
<g>
</g>
<g>
</g>
</svg>
