<?xml version="1.0" encoding="iso-8859-1"?>
<!-- Generator: Adobe Illustrator 16.0.0, SVG Export Plug-In . SVG Version: 6.00 Build 0)  -->
<!DOCTYPE svg PUBLIC "-//W3C//DTD SVG 1.1//EN" "http://www.w3.org/Graphics/SVG/1.1/DTD/svg11.dtd">
<svg version="1.1" id="Layer_1" xmlns="http://www.w3.org/2000/svg" xmlns:xlink="http://www.w3.org/1999/xlink" x="0px" y="0px"
	 width="64px" height="64px" viewBox="0 0 64 64" style="enable-background:new 0 0 64 64;" xml:space="preserve">
<g id="Body_4_">
	<g>
		<path style="fill:#48A0DC;" d="M36,6C8,34,0,52,0,56c0,6,2,8,8,8c4,0,22-8,50-36L36,6z"/>
	</g>
</g>
<g id="Case">
	<g>
		<path style="fill:#CCCCCC;" d="M36,4c0,0-20,26-20,36c0,6,2,8,8,8c10,0,36-20,36-20L36,4z"/>
	</g>
</g>
<g id="Case_1_">
	<g>
		<path style="fill:#666666;" d="M38,8c0,0-18,20-18,28c0,6,2,8,8,8c8,0,28-18,28-18L38,8z"/>
	</g>
</g>
<g id="Button_2_">
	<g>
		<path style="fill:#48A0DC;" d="M30,32c-1,0-4,3-4,4s1,2,2,2s4-3,4-4S31,32,30,32z"/>
	</g>
</g>
<g id="Head_14_">
	<g>
		<path style="fill:#999999;" d="M54,10c0-6-6-10-10-10c-6.146,0-10,4-10,8c0,2,0,4,0,4s-2,2-2,6c0,8,4,14,14,14c4,0,6-2,6-2
			s2,0,4,0c4,0,8-4,8-10C64,16,60,10,54,10z"/>
	</g>
</g>
<g id="Head_2_">
	<g>
		<path style="fill:#666666;" d="M54,10c0-6-6-10-10-10s-6,2-6,6s2,6,2,6c-2,0-4,2-4,6s4,10,10,10c4,0,6-2,6-4c0,0,2,2,6,2s6-2,6-6
			S60,10,54,10z"/>
	</g>
</g>
<g id="Razors">
	<g>
		<path style="fill-rule:evenodd;clip-rule:evenodd;fill:#CCCCCC;" d="M44,4c-2,0-2,2-2,2c0,2,2,6,6,6c2,0,2-2,2-2C50,8,48,4,44,4z
			 M54,14c-2,0-2,2-2,2c0,2,2,6,6,6c2,0,2-2,2-2C60,18,58,14,54,14z M42,16c-2,0-2,2-2,2c0,2,2,6,6,6c2,0,2-2,2-2C48,20,46,16,42,16
			z"/>
	</g>
</g>
<g>
</g>
<g>
</g>
<g>
</g>
<g>
</g>
<g>
</g>
<g>
</g>
<g>
</g>
<g>
</g>
<g>
</g>
<g>
</g>
<g>
</g>
<g>
</g>
<g>
</g>
<g>
</g>
<g>
</g>
</svg>
