<?xml version="1.0" encoding="iso-8859-1"?>
<!-- Generator: Adobe Illustrator 16.0.0, SVG Export Plug-In . SVG Version: 6.00 Build 0)  -->
<!DOCTYPE svg PUBLIC "-//W3C//DTD SVG 1.1//EN" "http://www.w3.org/Graphics/SVG/1.1/DTD/svg11.dtd">
<svg version="1.1" id="Layer_1" xmlns="http://www.w3.org/2000/svg" xmlns:xlink="http://www.w3.org/1999/xlink" x="0px" y="0px"
	 width="64px" height="64px" viewBox="0 0 64 64" style="enable-background:new 0 0 64 64;" xml:space="preserve">
<g id="Body_3_">
	<g>
		<path style="fill:#E6E6E6;" d="M34,6c-2,2-2.971,4.285-4,6C24,22,16,34,2,44c-1.628,1.162-2,2-2,4c0,4,12,16,16,16
			c2,0,2.837-0.373,4-2c10-14,22-22,32-28c1.715-1.029,4-2,6-4L34,6z"/>
	</g>
</g>
<g id="Design">
	<g>
		<path style="fill-rule:evenodd;clip-rule:evenodd;fill:#88C057;" d="M20,62c10-14,22-22,32-28C32,38,20,46,20,62z M2,44
			c16,0,24-12,28-32C24,22,16,34,2,44z"/>
	</g>
</g>
<g id="Blades">
	<g>
		<path style="fill:#999999;" d="M48,4c-2,0-8,6-8,6l14,14c0,0,6-6,6-8S50,4,48,4z"/>
	</g>
</g>
<g id="Head">
	<g>
		<path style="fill:#CCCCCC;" d="M62,16l-8,4L44,10l4-8c0,0-2-2-4-2s-8,4-10,6c0,6,18,24,24,24c2-2,6-8,6-10S62,16,62,16z"/>
	</g>
</g>
<g id="Button_1_">
	<g>
		<path style="fill:#88C057;" d="M38,20c-2,0-6,9-6,10s1,2,2,2s10-4,10-6S40,20,38,20z"/>
	</g>
</g>
<g>
</g>
<g>
</g>
<g>
</g>
<g>
</g>
<g>
</g>
<g>
</g>
<g>
</g>
<g>
</g>
<g>
</g>
<g>
</g>
<g>
</g>
<g>
</g>
<g>
</g>
<g>
</g>
<g>
</g>
</svg>
