<?xml version="1.0" encoding="iso-8859-1"?>
<!-- Generator: Adobe Illustrator 16.0.0, SVG Export Plug-In . SVG Version: 6.00 Build 0)  -->
<!DOCTYPE svg PUBLIC "-//W3C//DTD SVG 1.1//EN" "http://www.w3.org/Graphics/SVG/1.1/DTD/svg11.dtd">
<svg version="1.1" id="Layer_1" xmlns="http://www.w3.org/2000/svg" xmlns:xlink="http://www.w3.org/1999/xlink" x="0px" y="0px"
	 width="64px" height="64px" viewBox="0 0 64 64" style="enable-background:new 0 0 64 64;" xml:space="preserve">
<g id="Base_10_">
	<g>
		<path style="fill:#666666;" d="M50,58H22v6h26c1,0,4-3,4-4C52,58,51.104,58,50,58z"/>
	</g>
</g>
<g id="Body_47_">
	<g>
		<path style="fill:#CCCCCC;" d="M48,4H0v24h48c2,0,4-2,4-12S50,4,48,4z"/>
	</g>
</g>
<g id="Knob_3_">
	<g>
		<path style="fill:#4D4D4D;" d="M40,0h-2c-2,0-2,2-2,4h6C42,2,42,0,40,0z"/>
	</g>
</g>
<g id="Reservoir">
	<g>
		<path style="fill:#9B7CAB;" d="M28,10C18,8,0,4,0,4v56c0,2,2.063,4,4,4h18c2,0,8-48,8-50S29.207,10.241,28,10z"/>
	</g>
</g>
<g id="Button_11_">
	<g>
		<circle style="fill:#4D4D4D;" cx="18" cy="18" r="2"/>
	</g>
</g>
<g id="Handle_34_">
	<g>
		<path style="fill:#4D4D4D;" d="M62,32H48v4h14c1.104,0,2-0.896,2-2S63.104,32,62,32z"/>
	</g>
</g>
<g id="Portafilter">
	<g>
		<path style="fill:#B3B3B3;" d="M34,32c-1.104,0-2,0.896-2,2s0.896,2,2,2h14v-4H34z"/>
	</g>
</g>
<g id="Filter">
	<g>
		<rect x="34" y="28" style="fill:#999999;" width="12" height="4"/>
	</g>
</g>
<g id="Dispenser">
	<g>
		<path style="fill:#999999;" d="M38,36v4c0,1.104,0.896,2,2,2s2-0.896,2-2v-4H38z"/>
	</g>
</g>
<g>
</g>
<g>
</g>
<g>
</g>
<g>
</g>
<g>
</g>
<g>
</g>
<g>
</g>
<g>
</g>
<g>
</g>
<g>
</g>
<g>
</g>
<g>
</g>
<g>
</g>
<g>
</g>
<g>
</g>
</svg>
