<?xml version="1.0" encoding="iso-8859-1"?>
<!-- Generator: Adobe Illustrator 16.0.0, SVG Export Plug-In . SVG Version: 6.00 Build 0)  -->
<!DOCTYPE svg PUBLIC "-//W3C//DTD SVG 1.1//EN" "http://www.w3.org/Graphics/SVG/1.1/DTD/svg11.dtd">
<svg version="1.1" id="Layer_1" xmlns="http://www.w3.org/2000/svg" xmlns:xlink="http://www.w3.org/1999/xlink" x="0px" y="0px"
	 width="64px" height="52px" viewBox="0 0 64 52" style="enable-background:new 0 0 64 52;" xml:space="preserve">
<g id="Aerator">
	<g>
		<path style="fill:#999999;" d="M62,30l-10,2c0,0,0.063,6,2,6s10-2,10-4S62,30,62,30z"/>
	</g>
</g>
<g id="Base_2_">
	<g>
		<path style="fill:#B3B3B3;" d="M26,46H10c0,2-2,2-2,4s2,2,2,2h16c0,0,2,0,2-2S26,48,26,46z"/>
	</g>
</g>
<g id="Lift_Rod">
	<g>
		<path style="fill-rule:evenodd;clip-rule:evenodd;fill:#999999;" d="M8,34c0,0-2-6-4-6s-4,2-4,4s6,4,6,4l4,4l2-2L8,34z"/>
	</g>
</g>
<g id="Body_20_">
	<g>
		<path style="fill:#CCCCCC;" d="M56,22c-2,0-24,0-26,0s-4-2-4-4H10v28h16c0-10,38-12,38-16S60,22,56,22z"/>
	</g>
</g>
<g id="Ring_3_">
	<g>
		<rect x="10" y="14" style="fill:#999999;" width="16" height="4"/>
	</g>
</g>
<g id="Handle_8_">
	<g>
		<path style="fill:#B3B3B3;" d="M50.063,0C18,0,10,0,10,14h16C26,4,38,4,50.063,4C52.125,4,56,4,56,2S52,0,50.063,0z"/>
	</g>
</g>
<g>
</g>
<g>
</g>
<g>
</g>
<g>
</g>
<g>
</g>
<g>
</g>
<g>
</g>
<g>
</g>
<g>
</g>
<g>
</g>
<g>
</g>
<g>
</g>
<g>
</g>
<g>
</g>
<g>
</g>
</svg>
