<?xml version="1.0" encoding="iso-8859-1"?>
<!-- Generator: Adobe Illustrator 16.0.0, SVG Export Plug-In . SVG Version: 6.00 Build 0)  -->
<!DOCTYPE svg PUBLIC "-//W3C//DTD SVG 1.1//EN" "http://www.w3.org/Graphics/SVG/1.1/DTD/svg11.dtd">
<svg version="1.1" id="Layer_1" xmlns="http://www.w3.org/2000/svg" xmlns:xlink="http://www.w3.org/1999/xlink" x="0px" y="0px"
	 width="64px" height="52px" viewBox="0 0 64 52" style="enable-background:new 0 0 64 52;" xml:space="preserve">
<g id="Body_19_">
	<g>
		<path style="fill:#CCCCCC;" d="M48,30h-2c-2,0-2-4-2-6H28c0,2-0.829,6-2,6H12c-1.104,0-2,0.896-2,2v8c0,1.104,0.896,2,2,2h14
			c2,0,4,4,10,4s8.045-4,10-4h2c2.209,0,4,1.791,4,4v4c0,2,2,2,2,2h8c0,0,2,0,2-2v-4C64,38,58,30,48,30z"/>
	</g>
</g>
<g id="Rod">
	<g>
		<path style="fill:#B3B3B3;" d="M40,10h-8c0,6-4,6-4,8s2,2,2,2h12c0,0,2,0,2-2S40,16,40,10z"/>
	</g>
</g>
<g id="Nut">
	<g>
		<path style="fill:#B3B3B3;" d="M4,28H2c-1.104,0-2,0.896-2,2v12c0,1.104,0.896,2,2,2h2c1.104,0,2-0.896,2-2V30
			C6,28.896,5.104,28,4,28z"/>
	</g>
</g>
<g id="Handles_1_">
	<g>
		<path style="fill-rule:evenodd;clip-rule:evenodd;fill:#B3B3B3;" d="M16,6c0,2,2,4,4,4s12-2,12-2V4c0,0-10-2-12-2S16,4,16,6z
			 M52,2c-2,0-12,2-12,2v4c0,0,10,2,12,2s4-2,4-4S54,2,52,2z"/>
	</g>
</g>
<g id="Ball">
	<g>
		<circle style="fill:#999999;" cx="36" cy="6" r="6"/>
	</g>
</g>
<g id="Ring_2_">
	<g>
		<path style="fill:#999999;" d="M44,20H28c-1.104,0-2,0.896-2,2s0.896,2,2,2h16c1.104,0,2-0.896,2-2S45.104,20,44,20z"/>
	</g>
</g>
<g id="Pipe_1_">
	<g>
		<rect x="6" y="32" style="fill:#999999;" width="4" height="8"/>
	</g>
</g>
<g>
</g>
<g>
</g>
<g>
</g>
<g>
</g>
<g>
</g>
<g>
</g>
<g>
</g>
<g>
</g>
<g>
</g>
<g>
</g>
<g>
</g>
<g>
</g>
<g>
</g>
<g>
</g>
<g>
</g>
</svg>
