<?xml version="1.0" encoding="iso-8859-1"?>
<!-- Generator: Adobe Illustrator 16.0.0, SVG Export Plug-In . SVG Version: 6.00 Build 0)  -->
<!DOCTYPE svg PUBLIC "-//W3C//DTD SVG 1.1//EN" "http://www.w3.org/Graphics/SVG/1.1/DTD/svg11.dtd">
<svg version="1.1" id="Layer_1" xmlns="http://www.w3.org/2000/svg" xmlns:xlink="http://www.w3.org/1999/xlink" x="0px" y="0px"
	 width="64px" height="48px" viewBox="0 0 64 48" style="enable-background:new 0 0 64 48;" xml:space="preserve">
<g id="Rails">
	<g>
		<path style="fill-rule:evenodd;clip-rule:evenodd;fill:#735538;" d="M0,14v8h64v-8H0z M0,38h64v-8H0V38z"/>
	</g>
</g>
<g id="Picket">
	<g>
		<path style="fill-rule:evenodd;clip-rule:evenodd;fill:#A67C52;" d="M8,0C6,0,2,6,2,8v38c0,1.104,0.896,2,2,2h8
			c1.104,0,2-0.896,2-2V8C14,6,10,0,8,0z M24,0c-2,0-6,6-6,8v38c0,1.104,0.896,2,2,2h8c1.104,0,2-0.896,2-2V8C30,6,26,0,24,0z M40,0
			c-2,0-6,6-6,8v38c0,1.104,0.896,2,2,2h8c1.104,0,2-0.896,2-2V8C46,6,42,0,40,0z M56,0c-2,0-6,6-6,8v38c0,1.104,0.896,2,2,2h8
			c1.104,0,2-0.896,2-2V8C62,6,58,0,56,0z"/>
	</g>
</g>
<g>
</g>
<g>
</g>
<g>
</g>
<g>
</g>
<g>
</g>
<g>
</g>
<g>
</g>
<g>
</g>
<g>
</g>
<g>
</g>
<g>
</g>
<g>
</g>
<g>
</g>
<g>
</g>
<g>
</g>
</svg>
