<?xml version="1.0" encoding="iso-8859-1"?>
<!-- Generator: Adobe Illustrator 16.0.0, SVG Export Plug-In . SVG Version: 6.00 Build 0)  -->
<!DOCTYPE svg PUBLIC "-//W3C//DTD SVG 1.1//EN" "http://www.w3.org/Graphics/SVG/1.1/DTD/svg11.dtd">
<svg version="1.1" id="Layer_1" xmlns="http://www.w3.org/2000/svg" xmlns:xlink="http://www.w3.org/1999/xlink" x="0px" y="0px"
	 width="42px" height="64px" viewBox="0 0 42 64" style="enable-background:new 0 0 42 64;" xml:space="preserve">
<g id="Base_14_">
	<g>
		<path style="fill:#666666;" d="M0,60v2c0,1.104,0.896,2,2,2h32c1.104,0,2-0.896,2-2v-2H0z"/>
	</g>
</g>
<g id="Body_51_">
	<g>
		<path style="fill:#ED7161;" d="M30,36H6c0,4-6,6-6,14v10h36V50C36,42,30,40,30,36z"/>
	</g>
</g>
<g id="Button_14_">
	<g>
		<path style="fill:#CCCCCC;" d="M24,48H12c-1.104,0-2,0.896-2,2s0.896,2,2,2h12c1.104,0,2-0.896,2-2S25.104,48,24,48z"/>
	</g>
</g>
<g id="Middle_1_">
	<g>
		<rect x="6" y="32" style="fill:#BA594C;" width="24" height="4"/>
	</g>
</g>
<g id="Handle_37_">
	<g>
		<path style="fill:#666666;" d="M40,12H30v4h7.993C37.939,22.976,37.315,28,30,28v4c12,0,12-8,12-18C42,12.896,41.104,12,40,12z"/>
	</g>
</g>
<g id="Bowl_3_">
	<g>
		<path style="fill:#E6E6E6;" d="M2,12c0,2,2,20,4,20s22,0,24,0s4-18,4-20H2z"/>
	</g>
</g>
<g id="Tube_3_">
	<g>
		<rect x="14" y="12" style="fill:#CCCCCC;" width="8" height="20"/>
	</g>
</g>
<g id="Cap_6_">
	<g>
		<path style="fill-rule:evenodd;clip-rule:evenodd;fill:#B3B3B3;" d="M30,8c-0.754,0-4.063,0-8,0V2c0-1.104-0.896-2-2-2h-4
			c-1.104,0-2,0.896-2,2v6c-3.938,0-7.246,0-8,0c-2,0-4,2-4,4h32C34,10,32,8,30,8z"/>
	</g>
</g>
<g>
</g>
<g>
</g>
<g>
</g>
<g>
</g>
<g>
</g>
<g>
</g>
<g>
</g>
<g>
</g>
<g>
</g>
<g>
</g>
<g>
</g>
<g>
</g>
<g>
</g>
<g>
</g>
<g>
</g>
</svg>
