<?xml version="1.0" encoding="iso-8859-1"?>
<!-- Generator: Adobe Illustrator 16.0.0, SVG Export Plug-In . SVG Version: 6.00 Build 0)  -->
<!DOCTYPE svg PUBLIC "-//W3C//DTD SVG 1.1//EN" "http://www.w3.org/Graphics/SVG/1.1/DTD/svg11.dtd">
<svg version="1.1" id="Layer_1" xmlns="http://www.w3.org/2000/svg" xmlns:xlink="http://www.w3.org/1999/xlink" x="0px" y="0px"
	 width="64px" height="64px" viewBox="0 0 64 64" style="enable-background:new 0 0 64 64;" xml:space="preserve">
<g id="Fork_1_">
	<g>
		<path style="fill-rule:evenodd;clip-rule:evenodd;fill:#CCCCCC;" d="M28,32c-2,2-6,2-8,2s-4,2-8,6c0,0-6,8-8,10s-4,6-4,6s4-2,6-4
			s10-8,10-8s-6,8-8,10s-4,6-4,6s4-2,6-4s10-8,10-8s-6,8-8,10s-4,6-4,6s4-2,6-4s10-8,10-8c4-4,6-6,6-8s0-6,2-8L28,32z"/>
	</g>
</g>
<g id="Handle_19_">
	<g>
		<path style="fill:#88C057;" d="M58,0c-4,0-18,20-24,26l-6,6l4,4l6-6c6-6,26-20,26-24S62,0,58,0z"/>
	</g>
</g>
<g>
</g>
<g>
</g>
<g>
</g>
<g>
</g>
<g>
</g>
<g>
</g>
<g>
</g>
<g>
</g>
<g>
</g>
<g>
</g>
<g>
</g>
<g>
</g>
<g>
</g>
<g>
</g>
<g>
</g>
</svg>
