<?xml version="1.0" encoding="iso-8859-1"?>
<!-- Generator: Adobe Illustrator 16.0.0, SVG Export Plug-In . SVG Version: 6.00 Build 0)  -->
<!DOCTYPE svg PUBLIC "-//W3C//DTD SVG 1.1//EN" "http://www.w3.org/Graphics/SVG/1.1/DTD/svg11.dtd">
<svg version="1.1" id="Layer_1" xmlns="http://www.w3.org/2000/svg" xmlns:xlink="http://www.w3.org/1999/xlink" x="0px" y="0px"
	 width="63.996px" height="64px" viewBox="0 0 63.996 64" style="enable-background:new 0 0 63.996 64;" xml:space="preserve">
<g id="Handle">
	<g>
		<path style="fill:#A67C52;" d="M57.996,0c-2,0-4,2-6,4l-22,26l4,4l26-22c2-2,3.999-4,4-6C63.996,2,61.996,0,57.996,0z"/>
	</g>
</g>
<g id="Fork">
	<g>
		<path style="fill:#CCCCCC;" d="M41.996,28c0-2-4-6-6-6c-1,0-4,6-6,6s-4-2-8-2s-6,2-8,4l-12,12C-0.004,44,0,48,0,48
			s3.996,0,5.996-2c0,0,12-12,14-12c1,0,2,1,2,2c0,2-12,14-14,16s-2,6-2,6s4,0,6-2s14-14,16-14c1,0,2,1,2,2c0,2-12,14-12,14
			c-2,2-1.996,6-1.996,6s3.996,0,5.996-2l10-10c2-2,6-6.015,6-10c0-4-2-6-2-8S41.996,29,41.996,28z"/>
	</g>
</g>
<g>
</g>
<g>
</g>
<g>
</g>
<g>
</g>
<g>
</g>
<g>
</g>
<g>
</g>
<g>
</g>
<g>
</g>
<g>
</g>
<g>
</g>
<g>
</g>
<g>
</g>
<g>
</g>
<g>
</g>
</svg>
