<?xml version="1.0" encoding="iso-8859-1"?>
<!-- Generator: Adobe Illustrator 16.0.0, SVG Export Plug-In . SVG Version: 6.00 Build 0)  -->
<!DOCTYPE svg PUBLIC "-//W3C//DTD SVG 1.1//EN" "http://www.w3.org/Graphics/SVG/1.1/DTD/svg11.dtd">
<svg version="1.1" id="Layer_1" xmlns="http://www.w3.org/2000/svg" xmlns:xlink="http://www.w3.org/1999/xlink" x="0px" y="0px"
	 width="48px" height="64px" viewBox="0 0 48 64" style="enable-background:new 0 0 48 64;" xml:space="preserve">
<g id="Handle_30_">
	<g>
		<rect x="12" style="fill:#CCCCCC;" width="24" height="4"/>
	</g>
</g>
<g id="Handle_Support">
	<g>
		<path style="fill:#666666;" d="M36,0v10H12V0c-2,0-4,2-4,4v10h32c0,0,0-8,0-10S38,0,36,0z"/>
	</g>
</g>
<g id="Body_45_">
	<g>
		<polygon style="fill:#CCCCCC;" points="40,14 8,14 2,60 46,60 		"/>
	</g>
</g>
<g id="Blades_1_">
	<g>
		<path style="fill-rule:evenodd;clip-rule:evenodd;fill:#E6E6E6;" d="M22,54c0,1.104,0.896,2,2,2s2-0.896,2-2v-4h-4V54z M30,54
			c0,1.104,0.896,2,2,2s2-0.896,2-2v-4h-4V54z M38,50v4c0,1.104,0.896,2,2,2s2-0.896,2-2v-4H38z M14,54c0,1.104,0.896,2,2,2
			s2-0.896,2-2v-4h-4V54z M6,54c0,1.104,0.896,2,2,2s2-0.896,2-2v-4H6V54z M22,40h-4v4c0,1.104,0.896,2,2,2s2-0.896,2-2V40z M30,40
			h-4v4c0,1.104,0.896,2,2,2s2-0.896,2-2V40z M38,40h-4v4c0,1.104,0.896,2,2,2s2-0.896,2-2V40z M14,40h-4v4c0,1.104,0.896,2,2,2
			s2-0.896,2-2V40z M12,36c1.104,0,2-0.896,2-2v-4h-4v4C10,35.104,10.896,36,12,36z M18,34c0,1.104,0.896,2,2,2s2-0.896,2-2v-4h-4
			V34z M26,34c0,1.104,0.896,2,2,2s2-0.896,2-2v-4h-4V34z M16,26c1.104,0,2-0.896,2-2v-4h-4v4C14,25.104,14.896,26,16,26z M32,26
			c1.104,0,2-0.896,2-2v-4h-4v4C30,25.104,30.896,26,32,26z M24,26c1.104,0,2-0.896,2-2v-4h-4v4C22,25.104,22.896,26,24,26z M34,34
			c0,1.104,0.896,2,2,2s2-0.896,2-2v-4h-4V34z"/>
	</g>
</g>
<g id="Holes">
	<g>
		<path style="fill-rule:evenodd;clip-rule:evenodd;fill:#999999;" d="M24,48c-1.104,0-2,0.896-2,2s0.896,2,2,2s2-0.896,2-2
			S25.104,48,24,48z M32,48c-1.104,0-2,0.896-2,2s0.896,2,2,2s2-0.896,2-2S33.104,48,32,48z M40,48c-1.104,0-2,0.896-2,2
			s0.896,2,2,2s2-0.896,2-2S41.104,48,40,48z M8,48c-1.104,0-2,0.896-2,2s0.896,2,2,2s2-0.896,2-2S9.104,48,8,48z M16,48
			c-1.104,0-2,0.896-2,2s0.896,2,2,2s2-0.896,2-2S17.104,48,16,48z M12,38c-1.104,0-2,0.895-2,2c0,1.104,0.896,2,2,2s2-0.896,2-2
			C14,38.895,13.104,38,12,38z M20,38c-1.104,0-2,0.895-2,2c0,1.104,0.896,2,2,2s2-0.896,2-2C22,38.895,21.104,38,20,38z M28,38
			c-1.104,0-2,0.895-2,2c0,1.104,0.896,2,2,2s2-0.896,2-2C30,38.895,29.104,38,28,38z M36,38c-1.104,0-2,0.895-2,2
			c0,1.104,0.896,2,2,2s2-0.896,2-2C38,38.895,37.104,38,36,38z M12,32c1.104,0,2-0.896,2-2s-0.896-2-2-2s-2,0.896-2,2
			S10.896,32,12,32z M20,32c1.104,0,2-0.896,2-2s-0.896-2-2-2s-2,0.896-2,2S18.896,32,20,32z M28,32c1.104,0,2-0.896,2-2
			s-0.896-2-2-2s-2,0.896-2,2S26.896,32,28,32z M32,22c1.104,0,2-0.896,2-2c0-1.105-0.896-2-2-2s-2,0.895-2,2
			C30,21.104,30.896,22,32,22z M16,22c1.104,0,2-0.896,2-2c0-1.105-0.896-2-2-2s-2,0.895-2,2C14,21.104,14.896,22,16,22z M24,22
			c1.104,0,2-0.896,2-2c0-1.105-0.896-2-2-2s-2,0.895-2,2C22,21.104,22.896,22,24,22z M36,32c1.104,0,2-0.896,2-2s-0.896-2-2-2
			s-2,0.896-2,2S34.896,32,36,32z"/>
	</g>
</g>
<g id="Base_7_">
	<g>
		<path style="fill:#666666;" d="M46,60H2c-1.104,0-2,0.896-2,2s0.896,2,2,2h44c1.104,0,2-0.896,2-2S47.104,60,46,60z"/>
	</g>
</g>
<g>
</g>
<g>
</g>
<g>
</g>
<g>
</g>
<g>
</g>
<g>
</g>
<g>
</g>
<g>
</g>
<g>
</g>
<g>
</g>
<g>
</g>
<g>
</g>
<g>
</g>
<g>
</g>
<g>
</g>
</svg>
