<?xml version="1.0" encoding="iso-8859-1"?>
<!-- Generator: Adobe Illustrator 16.0.0, SVG Export Plug-In . SVG Version: 6.00 Build 0)  -->
<!DOCTYPE svg PUBLIC "-//W3C//DTD SVG 1.1//EN" "http://www.w3.org/Graphics/SVG/1.1/DTD/svg11.dtd">
<svg version="1.1" id="Layer_1" xmlns="http://www.w3.org/2000/svg" xmlns:xlink="http://www.w3.org/1999/xlink" x="0px" y="0px"
	 width="64px" height="64px" viewBox="0 0 64 64" style="enable-background:new 0 0 64 64;" xml:space="preserve">
<g id="Button_6_">
	<g>
		<path style="fill:#666666;" d="M40,30h-2c-1.105,0-2,0.895-2,2v2c0,1.104,0.895,2,2,2h2c1.104,0,2-0.896,2-2v-2
			C42,30.895,41.104,30,40,30z"/>
	</g>
</g>
<g id="Body_10_">
	<g>
		<path style="fill:#48A0DC;" d="M48,0C38-0.001,14,6,14,6v18c0,0,24,2,24,6c0,2,0,6-2,10c-2,4-4,8-4,12s4,6,8,6
			c4,0,11.999-25.997,15.999-28c0,0,0,0,0.001,0c4-2,8-8,8-14S60,0,48,0z"/>
	</g>
</g>
<g id="Cable_1_">
	<g>
		<polygon style="fill:#666666;" points="34,54 30,62 34,64 40,56 		"/>
	</g>
</g>
<g id="Design_1_">
	<g>
		<path style="fill-rule:evenodd;clip-rule:evenodd;fill:#CCCCCC;" d="M48,8c-4.418,0-8,3.581-8,8c0,4.418,3.582,8,8,8
			c4.418,0,8-3.582,8-8C56,11.581,52.418,8,48,8z M48,20c-2.209,0-4-1.791-4-4s1.791-4,4-4c2.209,0,4,1.791,4,4S50.209,20,48,20z"/>
	</g>
</g>
<g id="Head_5_">
	<g>
		<path style="fill:#666666;" d="M2,8c-2,0-2,4-2,6s0,2,0,4s0,4,2,4c2,0,12,2,12,2V6C14,6,4,8,2,8z"/>
	</g>
</g>
<g>
</g>
<g>
</g>
<g>
</g>
<g>
</g>
<g>
</g>
<g>
</g>
<g>
</g>
<g>
</g>
<g>
</g>
<g>
</g>
<g>
</g>
<g>
</g>
<g>
</g>
<g>
</g>
<g>
</g>
</svg>
