<?xml version="1.0" encoding="iso-8859-1"?>
<!-- Generator: Adobe Illustrator 16.0.0, SVG Export Plug-In . SVG Version: 6.00 Build 0)  -->
<!DOCTYPE svg PUBLIC "-//W3C//DTD SVG 1.1//EN" "http://www.w3.org/Graphics/SVG/1.1/DTD/svg11.dtd">
<svg version="1.1" id="Layer_1" xmlns="http://www.w3.org/2000/svg" xmlns:xlink="http://www.w3.org/1999/xlink" x="0px" y="0px"
	 width="64px" height="64px" viewBox="0 0 64 64" style="enable-background:new 0 0 64 64;" xml:space="preserve">
<g id="Cord_2_">
	<g>
		<polygon style="fill:#666666;" points="8,52 0,62 2,64 12,56 		"/>
	</g>
</g>
<g id="Plates">
	<g>
		<path style="fill-rule:evenodd;clip-rule:evenodd;fill:#999999;" d="M50,2L36,20l4,2L54,6L50,2z M58,10L42,24l2,4l18-14L58,10z"/>
	</g>
</g>
<g id="Body_8_">
	<g>
		<path style="fill-rule:evenodd;clip-rule:evenodd;fill:#F06EAA;" d="M62,12L16,48L52,2c0,0-6-2-8-2S6,46,6,48s2,8,2,8s6,2,8,2
			s48-36,48-38S62,12,62,12z"/>
	</g>
</g>
<g id="Joint">
	<g>
		<circle style="fill:#666666;" cx="16" cy="48" r="4"/>
	</g>
</g>
<g>
</g>
<g>
</g>
<g>
</g>
<g>
</g>
<g>
</g>
<g>
</g>
<g>
</g>
<g>
</g>
<g>
</g>
<g>
</g>
<g>
</g>
<g>
</g>
<g>
</g>
<g>
</g>
<g>
</g>
</svg>
