<?xml version="1.0" encoding="iso-8859-1"?>
<!-- Generator: Adobe Illustrator 16.0.0, SVG Export Plug-In . SVG Version: 6.00 Build 0)  -->
<!DOCTYPE svg PUBLIC "-//W3C//DTD SVG 1.1//EN" "http://www.w3.org/Graphics/SVG/1.1/DTD/svg11.dtd">
<svg version="1.1" id="Layer_1" xmlns="http://www.w3.org/2000/svg" xmlns:xlink="http://www.w3.org/1999/xlink" x="0px" y="0px"
	 width="64px" height="64px" viewBox="0 0 64 64" style="enable-background:new 0 0 64 64;" xml:space="preserve">
<g id="Cord_1_">
	<g>
		<polygon style="fill:#666666;" points="6,54 0,62 2,64 10,58 		"/>
	</g>
</g>
<g id="Plate">
	<g>
		
			<rect x="24.615" y="15.343" transform="matrix(0.7071 -0.7071 0.7071 0.7071 -2.2548 36.5564)" style="fill:#CCCCCC;" width="36.77" height="11.314"/>
	</g>
</g>
<g id="Body_7_">
	<g>
		<path style="fill:#808080;" d="M26,28c-2,0-6,8-10,12S2,50,2,52s8,10,10,10s8-10,12-14s12-8,12-10S28,28,26,28z"/>
	</g>
</g>
<g id="Locker">
	<g>
		<path style="fill:#666666;" d="M58,0c-2,0-4,2-6,4l8,8c2-2,4-4,4-6C64,2,62,0,58,0z"/>
	</g>
</g>
<g id="Curler">
	<g>
		<path style="fill:#B3B3B3;" d="M34,20L44,2c0,0-2-2-4-2s-4,4-4,4l-8,14l-8,6v4c0,0,6-2,8-2s6.586,3.414,6.586,3.414
			C34.947,29.775,35.447,30,36,30c1.104,0,2-0.896,2-2c0-0.553-0.225-1.053-0.586-1.414L34,20z"/>
	</g>
</g>
<g id="Curler_1_">
	<g>
		<path style="fill:#808080;" d="M10,28c0,2,2,2,4,2s6-2,6-2v-4C20,24,10,26,10,28z"/>
	</g>
</g>
<g id="Led">
	<g>
		<path style="fill:#FFCC66;" d="M26,36c-1,0-4,3-4,4s1,2,2,2s4-3,4-4S27,36,26,36z"/>
	</g>
</g>
<g>
</g>
<g>
</g>
<g>
</g>
<g>
</g>
<g>
</g>
<g>
</g>
<g>
</g>
<g>
</g>
<g>
</g>
<g>
</g>
<g>
</g>
<g>
</g>
<g>
</g>
<g>
</g>
<g>
</g>
</svg>
