<?xml version="1.0" encoding="iso-8859-1"?>
<!-- Generator: Adobe Illustrator 16.0.0, SVG Export Plug-In . SVG Version: 6.00 Build 0)  -->
<!DOCTYPE svg PUBLIC "-//W3C//DTD SVG 1.1//EN" "http://www.w3.org/Graphics/SVG/1.1/DTD/svg11.dtd">
<svg version="1.1" id="Layer_1" xmlns="http://www.w3.org/2000/svg" xmlns:xlink="http://www.w3.org/1999/xlink" x="0px" y="0px"
	 width="64px" height="64px" viewBox="0 0 64 64" style="enable-background:new 0 0 64 64;" xml:space="preserve">
<g id="Cord">
	<g>
		<polygon style="fill:#666666;" points="6,54 0,62 2,64 10,58 		"/>
	</g>
</g>
<g id="Axe_2_">
	<g>
		
			<rect x="34.858" y="10.757" transform="matrix(0.7071 -0.7071 0.7071 0.7071 3.7452 39.0416)" style="fill:#999999;" width="28.284" height="8.485"/>
	</g>
</g>
<g id="Cylinder">
	<g>
		
			<rect x="38.686" y="8.343" transform="matrix(0.7071 -0.7071 0.7071 0.7071 4.7452 39.4558)" style="fill:#CCCCCC;" width="22.627" height="11.314"/>
	</g>
</g>
<g id="Brush">
	<g>
		<path style="fill-rule:evenodd;clip-rule:evenodd;fill:#999999;" d="M41.414,14.586l-2-2C39.052,12.224,38.552,12,38,12
			c-1.104,0-2,0.896-2,2c0,0.552,0.224,1.052,0.586,1.414l2,2C38.947,17.775,39.447,18,40,18c1.104,0,2-0.896,2-2
			C42,15.447,41.776,14.947,41.414,14.586z M44,18c-1.104,0-2,0.896-2,2s0.896,2,2,2s2-0.896,2-2S45.104,18,44,18z M42.586,13.414
			C42.947,13.776,43.447,14,44,14c1.104,0,2-0.896,2-2c0-0.553-0.225-1.053-0.586-1.414l-2-2C43.052,8.224,42.552,8,42,8
			c-1.104,0-2,0.896-2,2c0,0.552,0.224,1.052,0.586,1.414L42.586,13.414z M46.586,9.414C46.947,9.775,47.447,10,48,10
			c1.104,0,2-0.896,2-2c0-0.553-0.224-1.053-0.586-1.414l-2-2C47.052,4.224,46.552,4,46,4c-1.104,0-2,0.896-2,2
			c0,0.552,0.224,1.052,0.586,1.414L46.586,9.414z M50.586,5.414C50.947,5.775,51.447,6,52,6c1.104,0,2-0.896,2-2
			c0-0.553-0.224-1.053-0.586-1.414l-2-2C51.052,0.224,50.552,0,50,0c-1.104,0-2,0.896-2,2c0,0.552,0.224,1.052,0.586,1.414
			L50.586,5.414z M49.414,22.586C49.052,22.224,48.553,22,48,22c-1.104,0-2,0.896-2,2c0,0.552,0.224,1.052,0.586,1.414l2,2
			C48.947,27.775,49.447,28,50,28c1.104,0,2-0.896,2-2c0-0.553-0.224-1.053-0.586-1.414L49.414,22.586z M53.414,18.586
			C53.053,18.224,52.552,18,52,18c-1.104,0-2,0.896-2,2c0,0.552,0.224,1.052,0.586,1.414l2,2C52.947,23.775,53.447,24,54,24
			c1.104,0,2-0.896,2-2c0-0.553-0.224-1.053-0.586-1.414L53.414,18.586z M57.414,14.586C57.052,14.224,56.552,14,56,14
			c-1.104,0-2,0.896-2,2c0,0.552,0.224,1.053,0.586,1.414l2,2C56.947,19.775,57.447,20,58,20c1.104,0,2-0.896,2-2
			c0-0.553-0.224-1.053-0.586-1.414L57.414,14.586z M63.414,12.586l-2-2C61.052,10.224,60.552,10,60,10c-1.104,0-2,0.895-2,2
			c0,0.552,0.224,1.053,0.586,1.414l2,2C60.947,15.775,61.447,16,62,16c1.104,0,2-0.896,2-2C64,13.447,63.775,12.947,63.414,12.586z
			 M48,14c-1.104,0-2,0.896-2,2s0.896,2,2,2s2-0.896,2-2S49.104,14,48,14z M52,10c-1.104,0-2,0.895-2,2c0,1.104,0.896,2,2,2
			s2-0.896,2-2C54,10.895,53.104,10,52,10z M56,10c1.104,0,2-0.896,2-2c0-1.105-0.896-2-2-2s-2,0.895-2,2C54,9.104,54.896,10,56,10z
			"/>
	</g>
</g>
<g id="Body_6_">
	<g>
		<path style="fill:#9B7CAB;" d="M34,20c-2,0-2,2-6,6C4,50,4,52,4,54s4,6,6,6s4,0,28-24c4-4,6-4,6-6S36,20,34,20z"/>
	</g>
</g>
<g id="Button_4_">
	<g>
		<path style="fill:#CCCCCC;" d="M34,28c-1,0-4,3-4,4s1,2,2,2s4-3,4-4S35,28,34,28z"/>
	</g>
</g>
<g>
</g>
<g>
</g>
<g>
</g>
<g>
</g>
<g>
</g>
<g>
</g>
<g>
</g>
<g>
</g>
<g>
</g>
<g>
</g>
<g>
</g>
<g>
</g>
<g>
</g>
<g>
</g>
<g>
</g>
</svg>
