<?xml version="1.0" encoding="iso-8859-1"?>
<!-- Generator: Adobe Illustrator 16.0.0, SVG Export Plug-In . SVG Version: 6.00 Build 0)  -->
<!DOCTYPE svg PUBLIC "-//W3C//DTD SVG 1.1//EN" "http://www.w3.org/Graphics/SVG/1.1/DTD/svg11.dtd">
<svg version="1.1" id="Layer_1" xmlns="http://www.w3.org/2000/svg" xmlns:xlink="http://www.w3.org/1999/xlink" x="0px" y="0px"
	 width="64px" height="64px" viewBox="0 0 64 64" style="enable-background:new 0 0 64 64;" xml:space="preserve">
<g id="Body_5_">
	<g>
		<path style="fill:#808080;" d="M34,14C6,46,0,52,0,56s4,8,8,8s10-6,42-34L34,14z"/>
	</g>
</g>
<g id="Case_2_">
	<g>
		<path style="fill-rule:evenodd;clip-rule:evenodd;fill:#B3B3B3;" d="M44,4L32,16l2,2c0,0-18,24-18,26s2,4,4,4s26-18,26-18l2,2
			l12-12L44,4z"/>
	</g>
</g>
<g id="Top">
	<g>
		
			<rect x="43.172" y="6.686" transform="matrix(0.7071 -0.7071 0.7071 0.7071 0.7452 37.799)" style="fill:#666666;" width="5.657" height="22.627"/>
	</g>
</g>
<g id="Button_3_">
	<g>
		<path style="fill:#666666;" d="M36,26c-1,0-4,3-4,4s1,2,2,2s4-3,4-4S37,26,36,26z"/>
	</g>
</g>
<g id="Comb">
	<g>
		<path style="fill:#666666;" d="M62,12c-1,0-6,4-6,4s4-5,4-6s-1-2-2-2s-6,4-6,4s4-5,4-6s-1-2-2-2s-6,4-6,4s4-5,4-6s-1-2-2-2
			s-6,4-6,4l-2,2l16,16l2-2c0,0,4-5,4-6S63,12,62,12z"/>
	</g>
</g>
<g>
</g>
<g>
</g>
<g>
</g>
<g>
</g>
<g>
</g>
<g>
</g>
<g>
</g>
<g>
</g>
<g>
</g>
<g>
</g>
<g>
</g>
<g>
</g>
<g>
</g>
<g>
</g>
<g>
</g>
</svg>
