<?xml version="1.0" encoding="iso-8859-1"?>
<!-- Generator: Adobe Illustrator 16.0.0, SVG Export Plug-In . SVG Version: 6.00 Build 0)  -->
<!DOCTYPE svg PUBLIC "-//W3C//DTD SVG 1.1//EN" "http://www.w3.org/Graphics/SVG/1.1/DTD/svg11.dtd">
<svg version="1.1" id="Layer_1" xmlns="http://www.w3.org/2000/svg" xmlns:xlink="http://www.w3.org/1999/xlink" x="0px" y="0px"
	 width="64px" height="64px" viewBox="0 0 64 64" style="enable-background:new 0 0 64 64;" xml:space="preserve">
<g id="Button_5_">
	<g>
		<path style="fill:#4D4D4D;" d="M42,28h-2c-1.104,0-2,0.896-2,2v6c0,1.104,0.896,2,2,2h2c1.104,0,2-0.896,2-2v-6
			C44,28.896,43.104,28,42,28z"/>
	</g>
</g>
<g id="Cable">
	<g>
		<polygon style="fill:#666666;" points="38,54 36,62 40,64 44,56 		"/>
	</g>
</g>
<g id="Body_9_">
	<g>
		<path style="fill:#808080;" d="M54,4c-2,0-6,0-16,2c0,0-8,6-8,14c4,0,12,4,12,6c0,6-6,22-6,26s4,6,8,6s6-30,10-30s10-4,10-12
			S58,4,54,4z"/>
	</g>
</g>
<g id="Vent_2_">
	<g>
		<path style="fill:#CCCCCC;" d="M54,14c-1.104,0-6,0.896-6,2s4.896,2,6,2s2-0.896,2-2S55.104,14,54,14z"/>
	</g>
</g>
<g id="Neck">
	<g>
		<path style="fill:#CCCCCC;" d="M18,8v12h12c0-8,8-14,8-14C28,8,18,8,18,8z"/>
	</g>
</g>
<g id="Head_3_">
	<g>
		<path style="fill:#666666;" d="M6,0C4,0,4,2,4,4s0,18,0,20s0,4,2,4c4,0,4-8,12-8V8C10,8,10,0,6,0z"/>
	</g>
</g>
<g id="Head_4_">
	<g>
		<path style="fill:#4D4D4D;" d="M0,14c0,1.104,0.896,2,2,2h2v-4H2C0.896,12,0,12.896,0,14z M0,22c0,1.104,0.896,2,2,2h2v-4H2
			C0.896,20,0,20.896,0,22z M2,4C0.896,4,0,4.896,0,6s0.896,2,2,2h2V4H2z"/>
	</g>
</g>
<g>
</g>
<g>
</g>
<g>
</g>
<g>
</g>
<g>
</g>
<g>
</g>
<g>
</g>
<g>
</g>
<g>
</g>
<g>
</g>
<g>
</g>
<g>
</g>
<g>
</g>
<g>
</g>
<g>
</g>
</svg>
