<?xml version="1.0" encoding="iso-8859-1"?>
<!-- Generator: Adobe Illustrator 16.0.0, SVG Export Plug-In . SVG Version: 6.00 Build 0)  -->
<!DOCTYPE svg PUBLIC "-//W3C//DTD SVG 1.1//EN" "http://www.w3.org/Graphics/SVG/1.1/DTD/svg11.dtd">
<svg version="1.1" id="Layer_1" xmlns="http://www.w3.org/2000/svg" xmlns:xlink="http://www.w3.org/1999/xlink" x="0px" y="0px"
	 width="64px" height="64px" viewBox="0 0 64 64" style="enable-background:new 0 0 64 64;" xml:space="preserve">
<g id="Beater_1_">
	<g>
		<path style="fill-rule:evenodd;clip-rule:evenodd;fill:#CCCCCC;" d="M16,44.349V34h-4v10.349C9.671,45.173,8,47.389,8,50v8
			c0,3.313,2.687,6,6,6s6-2.687,6-6v-8C20,47.389,18.329,45.173,16,44.349z M16,58c0,1.104-0.896,2-2,2s-2-0.896-2-2v-8
			c0-1.104,0.896-2,2-2s2,0.896,2,2V58z"/>
	</g>
</g>
<g id="Base_16_">
	<g>
		<path style="fill-rule:evenodd;clip-rule:evenodd;fill:#FFCC66;" d="M56,12c0-6-4-12-12-12H12C6.556,0,0,12,0,24v4c0,4,4,8,8,8h48
			c4,0,8-4,8-8C64,16,56,16,56,12z M44,16H24c-3.313,0-6-2.687-6-6c0-3.314,2.687-6,6-6h20c3.313,0,6,2.686,6,6
			C50,13.313,47.313,16,44,16z"/>
	</g>
</g>
<g id="Design_4_">
	<g>
		<path style="fill:#E6E6E6;" d="M36,24H0v4h36c1.104,0,2-0.896,2-2S37.104,24,36,24z"/>
	</g>
</g>
<g id="Logo">
	<g>
		<path style="fill:#B3B3B3;" d="M54,24h-8c-1.104,0-2,0.896-2,2s0.896,2,2,2h8c1.104,0,2-0.896,2-2S55.104,24,54,24z"/>
	</g>
</g>
<g>
</g>
<g>
</g>
<g>
</g>
<g>
</g>
<g>
</g>
<g>
</g>
<g>
</g>
<g>
</g>
<g>
</g>
<g>
</g>
<g>
</g>
<g>
</g>
<g>
</g>
<g>
</g>
<g>
</g>
</svg>
