<?xml version="1.0" encoding="iso-8859-1"?>
<!-- Generator: Adobe Illustrator 16.0.0, SVG Export Plug-In . SVG Version: 6.00 Build 0)  -->
<!DOCTYPE svg PUBLIC "-//W3C//DTD SVG 1.1//EN" "http://www.w3.org/Graphics/SVG/1.1/DTD/svg11.dtd">
<svg version="1.1" id="Layer_1" xmlns="http://www.w3.org/2000/svg" xmlns:xlink="http://www.w3.org/1999/xlink" x="0px" y="0px"
	 width="64px" height="64px" viewBox="0 0 64 64" style="enable-background:new 0 0 64 64;" xml:space="preserve">
<g id="Handle_6_">
	<g>
		<path style="fill:#ED7161;" d="M24,36c0,0-2,2-4,4S10,46,6,50c-4,4-6,8-6,10s2,4,4,4s6-2.001,10-6c4-4,8-12,10-14s4-4,4-4L24,36z"
			/>
	</g>
</g>
<g id="Body_13_">
	<g>
		<path style="fill:#ED7161;" d="M50,0C36,0,22,14,22,28c0,10,4,14,14,14c14.063,0,28-14,28-28C64,4,60,0,50,0z"/>
	</g>
</g>
<g id="Handle_7_">
	<g>
		<path style="fill:#E6E6E6;" d="M50,4C38,4,26,16,26,28c0,6,4,10,10,10c12,0,24-12,24-24C60,8,56,4,50,4z"/>
	</g>
</g>
<g>
</g>
<g>
</g>
<g>
</g>
<g>
</g>
<g>
</g>
<g>
</g>
<g>
</g>
<g>
</g>
<g>
</g>
<g>
</g>
<g>
</g>
<g>
</g>
<g>
</g>
<g>
</g>
<g>
</g>
</svg>
