<?xml version="1.0" encoding="iso-8859-1"?>
<!-- Generator: Adobe Illustrator 16.0.0, SVG Export Plug-In . SVG Version: 6.00 Build 0)  -->
<!DOCTYPE svg PUBLIC "-//W3C//DTD SVG 1.1//EN" "http://www.w3.org/Graphics/SVG/1.1/DTD/svg11.dtd">
<svg version="1.1" id="Layer_1" xmlns="http://www.w3.org/2000/svg" xmlns:xlink="http://www.w3.org/1999/xlink" x="0px" y="0px"
	 width="60px" height="64px" viewBox="0 0 60 64" style="enable-background:new 0 0 60 64;" xml:space="preserve">
<g id="Spring">
	<g>
		
			<rect x="25.172" y="30.343" transform="matrix(0.7071 -0.7071 0.7071 0.7071 -17.2548 30.3431)" style="fill:#999999;" width="5.657" height="11.314"/>
	</g>
</g>
<g id="Handles">
	<g>
		<path style="fill-rule:evenodd;clip-rule:evenodd;fill:#FF8833;" d="M42,38l-6-4c0,0-16,18-18,20s-6,4-6,6s2,4,4,4s4-4,6-6
			s16-16,18-16s6,0,6-2L42,38z M26,22l-2-4c-2,0-2,4-2,6S8,40,6,42s-6,4-6,6s2,4,4,4s4-4,6-6s20-18,20-18L26,22z"/>
	</g>
</g>
<g id="Blade">
	<g>
		<path style="fill:#B3B3B3;" d="M58,0c0,0-4,14-14,14s-16,6-18,8l4,6c0,0,6-2,14-2c13.397,0,16-8,16-16S58,0,58,0z"/>
	</g>
</g>
<g id="Blade_1_">
	<g>
		<path style="fill:#CCCCCC;" d="M46,12c-4,2-8,4-8,8c0,8-2,14-2,14l6,4c2-2,8-8,8-14s8-6,8-24C58,0,54,8,46,12z"/>
	</g>
</g>
<g id="Axe">
	<g>
		<circle style="fill:#FFFFFF;" cx="44" cy="20" r="2"/>
	</g>
</g>
<g>
</g>
<g>
</g>
<g>
</g>
<g>
</g>
<g>
</g>
<g>
</g>
<g>
</g>
<g>
</g>
<g>
</g>
<g>
</g>
<g>
</g>
<g>
</g>
<g>
</g>
<g>
</g>
<g>
</g>
</svg>
