<?xml version="1.0" encoding="iso-8859-1"?>
<!-- Generator: Adobe Illustrator 16.0.0, SVG Export Plug-In . SVG Version: 6.00 Build 0)  -->
<!DOCTYPE svg PUBLIC "-//W3C//DTD SVG 1.1//EN" "http://www.w3.org/Graphics/SVG/1.1/DTD/svg11.dtd">
<svg version="1.1" id="Layer_1" xmlns="http://www.w3.org/2000/svg" xmlns:xlink="http://www.w3.org/1999/xlink" x="0px" y="0px"
	 width="64px" height="64px" viewBox="0 0 64 64" style="enable-background:new 0 0 64 64;" xml:space="preserve">
<g id="Body_12_">
	<g>
		<path style="fill:#88C057;" d="M50,0c-8,0-26,18-26,26s0,8-4,12S10,44,6,48c-4.001,3.999-6,8-6,12c0,2,2,4,4,4
			c4,0,7.999-2.001,12-6c4-4,6-10,10-14s4-4,12-4s26-18,26-26S58,0,50,0z"/>
	</g>
</g>
<g id="Base">
	<g>
		<path style="fill:#666666;" d="M50,4c-6,0-22,16-22,22s4,10,10,10s22-16,22-22S56,4,50,4z"/>
	</g>
</g>
<g id="Spikes">
	<g>
		<path style="fill-rule:evenodd;clip-rule:evenodd;fill:#999999;" d="M38,16c1.104,0,2-0.896,2-2s-0.896-2-2-2s-2,0.896-2,2
			S36.896,16,38,16z M42,12c1.104,0,2-0.896,2-2s-0.896-2-2-2s-2,0.896-2,2S40.896,12,42,12z M34,20c1.104,0,2-0.896,2-2
			s-0.896-2-2-2s-2,0.896-2,2S32.896,20,34,20z M30,24c1.104,0,2-0.896,2-2s-0.896-2-2-2s-2,0.896-2,2S28.896,24,30,24z M38,20
			c-1.104,0-2,0.896-2,2s0.896,2,2,2s2-0.896,2-2S39.104,20,38,20z M42,16c-1.104,0-2,0.896-2,2s0.896,2,2,2s2-0.896,2-2
			S43.104,16,42,16z M34,24c-1.104,0-2,0.896-2,2s0.896,2,2,2s2-0.896,2-2S35.104,24,34,24z M30,28c-1.104,0-2,0.896-2,2
			s0.896,2,2,2s2-0.896,2-2S31.104,28,30,28z M46,12c-1.104,0-2,0.896-2,2s0.896,2,2,2s2-0.896,2-2S47.104,12,46,12z M50,12
			c1.104,0,2-0.896,2-2s-0.896-2-2-2s-2,0.896-2,2S48.896,12,50,12z M38,28c-1.104,0-2,0.896-2,2s0.896,2,2,2s2-0.896,2-2
			S39.104,28,38,28z M42,28c1.104,0,2-0.896,2-2s-0.896-2-2-2s-2,0.896-2,2S40.896,28,42,28z M34,32c-1.104,0-2,0.896-2,2
			s0.896,2,2,2s2-0.896,2-2S35.104,32,34,32z M54,12c-1.104,0-2,0.896-2,2s0.896,2,2,2s2-0.896,2-2S55.104,12,54,12z M46,24
			c1.104,0,2-0.896,2-2s-0.896-2-2-2s-2,0.896-2,2S44.896,24,46,24z M50,20c1.104,0,2-0.896,2-2s-0.896-2-2-2s-2,0.896-2,2
			S48.896,20,50,20z M50,24c-1.104,0-2,0.896-2,2s0.896,2,2,2s2-0.896,2-2S51.104,24,50,24z M54,20c-1.104,0-2,0.896-2,2
			s0.896,2,2,2s2-0.896,2-2S55.104,20,54,20z M46,28c-1.104,0-2,0.896-2,2s0.896,2,2,2s2-0.896,2-2S47.104,28,46,28z M42,32
			c-1.104,0-2,0.896-2,2s0.896,2,2,2s2-0.896,2-2S43.104,32,42,32z M46,8c1.104,0,2-0.896,2-2s-0.896-2-2-2s-2,0.896-2,2
			S44.896,8,46,8z M58,16c-1.104,0-2,0.896-2,2s0.896,2,2,2s2-0.896,2-2S59.104,16,58,16z M54,8c1.104,0,2-0.896,2-2s-0.896-2-2-2
			s-2,0.896-2,2S52.896,8,54,8z M58,12c1.104,0,2-0.896,2-2s-0.896-2-2-2s-2,0.896-2,2S56.896,12,58,12z"/>
	</g>
</g>
<g>
</g>
<g>
</g>
<g>
</g>
<g>
</g>
<g>
</g>
<g>
</g>
<g>
</g>
<g>
</g>
<g>
</g>
<g>
</g>
<g>
</g>
<g>
</g>
<g>
</g>
<g>
</g>
<g>
</g>
</svg>
