<?xml version="1.0" encoding="iso-8859-1"?>
<!-- Generator: Adobe Illustrator 16.0.0, SVG Export Plug-In . SVG Version: 6.00 Build 0)  -->
<!DOCTYPE svg PUBLIC "-//W3C//DTD SVG 1.1//EN" "http://www.w3.org/Graphics/SVG/1.1/DTD/svg11.dtd">
<svg version="1.1" id="Layer_1" xmlns="http://www.w3.org/2000/svg" xmlns:xlink="http://www.w3.org/1999/xlink" x="0px" y="0px"
	 width="64px" height="64px" viewBox="0 0 64 64" style="enable-background:new 0 0 64 64;" xml:space="preserve">
<g id="Base_18_">
	<g>
		<path style="fill:#E6E6E6;" d="M60,0H4C1.791,0,0,1.791,0,4v56c0,2.209,1.791,4,4,4h56c2.209,0,4-1.791,4-4V4
			C64,1.791,62.209,0,60,0z"/>
	</g>
</g>
<g id="Knobs_1_">
	<g>
		<path style="fill-rule:evenodd;clip-rule:evenodd;fill:#999999;" d="M10,54c-1.104,0-2,0.895-2,2c0,1.104,0.896,2,2,2s2-0.896,2-2
			C12,54.895,11.104,54,10,54z M18,54c-1.104,0-2,0.895-2,2c0,1.104,0.896,2,2,2s2-0.896,2-2C20,54.895,19.104,54,18,54z M26,54
			c-1.104,0-2,0.895-2,2c0,1.104,0.896,2,2,2s2-0.896,2-2C28,54.895,27.104,54,26,54z M54,54c-1.104,0-2,0.895-2,2
			c0,1.104,0.896,2,2,2s2-0.896,2-2C56,54.895,55.104,54,54,54z"/>
	</g>
</g>
<g id="Caps">
	<g>
		<path style="fill-rule:evenodd;clip-rule:evenodd;fill:#B3B3B3;" d="M44,30c-3.313,0-6,2.686-6,6c0,3.313,2.687,6,6,6s6-2.687,6-6
			C50,32.686,47.313,30,44,30z M20,32c-2.209,0-4,1.791-4,4s1.791,4,4,4s4-1.791,4-4S22.209,32,20,32z M44,26c4.418,0,8-3.582,8-8
			c0-4.419-3.582-8-8-8c-4.419,0-8,3.581-8,8C36,22.418,39.581,26,44,26z M20,8c-5.523,0-10,4.477-10,10c0,5.522,4.477,10,10,10
			c5.522,0,10-4.478,10-10C30,12.477,25.522,8,20,8z"/>
	</g>
</g>
<g id="Stand_1_">
	<g>
		<path style="fill-rule:evenodd;clip-rule:evenodd;fill:#999999;" d="M20,24c-1.104,0-2,0.896-2,2v4c0,1.104,0.896,2,2,2
			s2-0.896,2-2v-4C22,24.896,21.104,24,20,24z M28,20h8c1.104,0,2-0.896,2-2s-0.896-2-2-2h-8c-1.104,0-2,0.896-2,2S26.896,20,28,20z
			 M58,4H6C4.896,4,4,4.896,4,6v42c0,1.104,0.896,2,2,2h52c1.104,0,2-0.896,2-2V6C60,4.896,59.104,4,58,4z M56,16h-4
			c-1.104,0-2,0.896-2,2s0.896,2,2,2h4v14h-6c-1.104,0-2,0.895-2,2c0,1.104,0.896,2,2,2h6v8H46v-4c0-1.104-0.896-2-2-2s-2,0.896-2,2
			v4H22v-4c0-1.104-0.896-2-2-2s-2,0.896-2,2v4H8v-8h6c1.104,0,2-0.896,2-2c0-1.105-0.896-2-2-2H8V20h4c1.104,0,2-0.896,2-2
			s-0.896-2-2-2H8V8h10v2c0,1.104,0.896,2,2,2s2-0.896,2-2V8h20v2c0,1.104,0.896,2,2,2s2-0.896,2-2V8h10V16z M38,34H26
			c-1.104,0-2,0.895-2,2c0,1.104,0.896,2,2,2h12c1.104,0,2-0.896,2-2C40,34.895,39.104,34,38,34z M44,24c-1.104,0-2,0.896-2,2v4
			c0,1.104,0.896,2,2,2s2-0.896,2-2v-4C46,24.896,45.104,24,44,24z"/>
	</g>
</g>
<g>
</g>
<g>
</g>
<g>
</g>
<g>
</g>
<g>
</g>
<g>
</g>
<g>
</g>
<g>
</g>
<g>
</g>
<g>
</g>
<g>
</g>
<g>
</g>
<g>
</g>
<g>
</g>
<g>
</g>
</svg>
