<?xml version="1.0" encoding="iso-8859-1"?>
<!-- Generator: Adobe Illustrator 16.0.0, SVG Export Plug-In . SVG Version: 6.00 Build 0)  -->
<!DOCTYPE svg PUBLIC "-//W3C//DTD SVG 1.1//EN" "http://www.w3.org/Graphics/SVG/1.1/DTD/svg11.dtd">
<svg version="1.1" id="Layer_1" xmlns="http://www.w3.org/2000/svg" xmlns:xlink="http://www.w3.org/1999/xlink" x="0px" y="0px"
	 width="64px" height="64px" viewBox="0 0 64 64" style="enable-background:new 0 0 64 64;" xml:space="preserve">
<g id="Base_19_">
	<g>
		<path style="fill:#666666;" d="M60,0H4C1.791,0,0,1.791,0,4v56c0,2.209,1.791,4,4,4h56c2.209,0,4-1.791,4-4V4
			C64,1.791,62.209,0,60,0z"/>
	</g>
</g>
<g id="Knobs_2_">
	<g>
		<path style="fill-rule:evenodd;clip-rule:evenodd;fill:#CCCCCC;" d="M28,54c-1.104,0-2,0.895-2,2c0,1.104,0.896,2,2,2s2-0.896,2-2
			C30,54.895,29.104,54,28,54z M36,54c-1.104,0-2,0.895-2,2c0,1.104,0.896,2,2,2s2-0.896,2-2C38,54.895,37.104,54,36,54z"/>
	</g>
</g>
<g id="Caps_1_">
	<g>
		<path style="fill-rule:evenodd;clip-rule:evenodd;fill:#808080;" d="M18,32c-4.418,0-8,3.581-8,8c0,4.418,3.582,8,8,8s8-3.582,8-8
			C26,35.581,22.418,32,18,32z M18,44c-2.209,0-4-1.791-4-4c0-2.21,1.791-4,4-4s4,1.79,4,4C22,42.209,20.209,44,18,44z M46,26
			c5.522,0,10-4.478,10-10c0-5.523-4.478-10-10-10c-5.523,0-10,4.477-10,10C36,21.522,40.477,26,46,26z M46,10c3.313,0,6,2.686,6,6
			c0,3.313-2.687,6-6,6c-3.314,0-6-2.687-6-6C40,12.686,42.686,10,46,10z M46,32c-4.418,0-8,3.581-8,8c0,4.418,3.582,8,8,8
			s8-3.582,8-8C54,35.581,50.418,32,46,32z M46,44c-2.209,0-4-1.791-4-4c0-2.21,1.791-4,4-4s4,1.79,4,4C50,42.209,48.209,44,46,44z"
			/>
	</g>
</g>
<g id="On_Cap">
	<g>
		<path style="fill-rule:evenodd;clip-rule:evenodd;fill:#ED7161;" d="M18,6C12.477,6,8,10.477,8,16c0,5.522,4.477,10,10,10
			c5.522,0,10-4.478,10-10C28,10.477,23.522,6,18,6z M18,22c-3.313,0-6-2.687-6-6c0-3.314,2.687-6,6-6s6,2.686,6,6
			C24,19.313,21.313,22,18,22z"/>
	</g>
</g>
<g>
</g>
<g>
</g>
<g>
</g>
<g>
</g>
<g>
</g>
<g>
</g>
<g>
</g>
<g>
</g>
<g>
</g>
<g>
</g>
<g>
</g>
<g>
</g>
<g>
</g>
<g>
</g>
<g>
</g>
</svg>
