<?xml version="1.0" encoding="iso-8859-1"?>
<!-- Generator: Adobe Illustrator 16.0.0, SVG Export Plug-In . SVG Version: 6.00 Build 0)  -->
<!DOCTYPE svg PUBLIC "-//W3C//DTD SVG 1.1//EN" "http://www.w3.org/Graphics/SVG/1.1/DTD/svg11.dtd">
<svg version="1.1" id="Layer_1" xmlns="http://www.w3.org/2000/svg" xmlns:xlink="http://www.w3.org/1999/xlink" x="0px" y="0px"
	 width="64px" height="64px" viewBox="0 0 64 64" style="enable-background:new 0 0 64 64;" xml:space="preserve">
<g id="Top_3_">
	<g>
		<path style="fill:#CCCCCC;" d="M40,0H24c-1.104,0-2,0.896-2,2v30h20V2C42,0.896,41.104,0,40,0z"/>
	</g>
</g>
<g id="Middle_3_">
	<g>
		<path style="fill:#E6E6E6;" d="M42,32H22C2,50,0,52,0,54h64C64,52,62,50,42,32z"/>
	</g>
</g>
<g id="Base_20_">
	<g>
		<path style="fill:#CCCCCC;" d="M62,52H2c-1.104,0-2,0.896-2,2v8c0,1.104,0.896,2,2,2h60c1.104,0,2-0.896,2-2v-8
			C64,52.896,63.104,52,62,52z"/>
	</g>
</g>
<g id="Buttons">
	<g>
		<path style="fill-rule:evenodd;clip-rule:evenodd;fill:#999999;" d="M58,56c-1.104,0-2,0.896-2,2s0.896,2,2,2s2-0.896,2-2
			S59.104,56,58,56z M50,56c-1.104,0-2,0.896-2,2s0.896,2,2,2s2-0.896,2-2S51.104,56,50,56z"/>
	</g>
</g>
<g>
</g>
<g>
</g>
<g>
</g>
<g>
</g>
<g>
</g>
<g>
</g>
<g>
</g>
<g>
</g>
<g>
</g>
<g>
</g>
<g>
</g>
<g>
</g>
<g>
</g>
<g>
</g>
<g>
</g>
</svg>
