<?xml version="1.0" encoding="iso-8859-1"?>
<!-- Generator: Adobe Illustrator 16.0.0, SVG Export Plug-In . SVG Version: 6.00 Build 0)  -->
<!DOCTYPE svg PUBLIC "-//W3C//DTD SVG 1.1//EN" "http://www.w3.org/Graphics/SVG/1.1/DTD/svg11.dtd">
<svg version="1.1" id="Layer_1" xmlns="http://www.w3.org/2000/svg" xmlns:xlink="http://www.w3.org/1999/xlink" x="0px" y="0px"
	 width="64px" height="44.024px" viewBox="0 0 64 44.024" style="enable-background:new 0 0 64 44.024;" xml:space="preserve">
<g id="Button_8_">
	<g>
		<path style="fill:#CCCCCC;" d="M24,8.023h-2c-1.104,0-2,0.896-2,2.001v5.999c0,1.104,0.896,2.001,2,2.001h2
			c1.104,0,2-0.896,2-2.001v-5.999C26,8.919,25.104,8.023,24,8.023z"/>
	</g>
</g>
<g id="Body_25_">
	<g>
		<path style="fill-rule:evenodd;clip-rule:evenodd;fill:#E6E6E6;" d="M62,20.023l-4-8l-1.744-3.488
			c0.001-0.003,0.003-0.006,0.004-0.009l1.694-5.943c0.313-1.095-0.379-2.22-1.543-2.513c-1.163-0.293-2.36,0.356-2.672,1.45
			l-1.492,5.232C50.138,6.358,46.905,6.024,42,6.024c-26,0-42,28-42,34h50c0-8.001,14-8.001,14-12.001
			C64,26.024,64,24.023,62,20.023z"/>
	</g>
</g>
<g id="Base_3_">
	<g>
		<path style="fill:#999999;" d="M50,40.024H0v2c0,1.104,0.896,2,2,2h48c1.104,0,2-0.896,2-2C52,40.919,51.104,40.024,50,40.024z"/>
	</g>
</g>
<g id="Design_2_">
	<g>
		<path style="fill:#88C057;" d="M58,12.023c0,0-6-1.999-12-1.999c-22,0-34,17.999-34,20c0,4,14,4,18,4c20,0,32-14.001,32-14.001
			L58,12.023z"/>
	</g>
</g>
<g id="Hole_1_">
	<g>
		<path style="fill:#FFFFFF;" d="M44,12.023c-8,0-16,4-16,8c0,2.001,2,4,8,4c8,0,16-4,16-8C52,14.024,50,12.023,44,12.023z"/>
	</g>
</g>
<g id="Wheel_2_">
	<g>
		<path style="fill:#9B7CAB;" d="M42,20.023h-8c-1.104,0-2,0.896-2,2.001c0,1.104,0.896,1.999,2,1.999h8c1.104,0,2-0.896,2-1.999
			C44,20.919,43.104,20.023,42,20.023z"/>
	</g>
</g>
<g>
</g>
<g>
</g>
<g>
</g>
<g>
</g>
<g>
</g>
<g>
</g>
<g>
</g>
<g>
</g>
<g>
</g>
<g>
</g>
<g>
</g>
<g>
</g>
<g>
</g>
<g>
</g>
<g>
</g>
</svg>
