<?xml version="1.0" encoding="iso-8859-1"?>
<!-- Generator: Adobe Illustrator 16.0.0, SVG Export Plug-In . SVG Version: 6.00 Build 0)  -->
<!DOCTYPE svg PUBLIC "-//W3C//DTD SVG 1.1//EN" "http://www.w3.org/Graphics/SVG/1.1/DTD/svg11.dtd">
<svg version="1.1" id="Layer_1" xmlns="http://www.w3.org/2000/svg" xmlns:xlink="http://www.w3.org/1999/xlink" x="0px" y="0px"
	 width="64px" height="64px" viewBox="0 0 64 64" style="enable-background:new 0 0 64 64;" xml:space="preserve">
<g id="Base_15_">
	<g>
		<path style="fill:#E6E6E6;" d="M46,48H10c-2,0-4,2-4,8s4,8,8,8h28c4,0,8-2,8-8S48,48,46,48z"/>
	</g>
</g>
<g id="Ream">
	<g>
		<path style="fill:#CCCCCC;" d="M28,0c-2,0-10,6-10,12h20C38,6,30,0,28,0z"/>
	</g>
</g>
<g id="Handle_39_">
	<g>
		<path style="fill:#E6E6E6;" d="M48,12v6c6,0,10,2,10,8s-2,12-10,12v6c12,0,16-8,16-18S58,12,48,12z"/>
	</g>
</g>
<g id="Juice">
	<g>
		<path style="fill:#FFCC66;" d="M6,32v4c0,4,2,12,4,12h36c2,0,4-8,4-12v-4H6z"/>
	</g>
</g>
<g id="Glass_2_">
	<g>
		<path style="fill-rule:evenodd;clip-rule:evenodd;fill:#CCCCCC;" d="M6,18H0c0,6,6,12,6,12v2h44V18H6z"/>
	</g>
</g>
<g id="Tube_4_">
	<g>
		<rect x="24" y="18" style="fill:#B3B3B3;" width="8" height="14"/>
	</g>
</g>
<g id="Lid_7_">
	<g>
		<path style="fill:#E6E6E6;" d="M8,12c-2,0-2,4-2,6h42v-6H8z"/>
	</g>
</g>
<g>
</g>
<g>
</g>
<g>
</g>
<g>
</g>
<g>
</g>
<g>
</g>
<g>
</g>
<g>
</g>
<g>
</g>
<g>
</g>
<g>
</g>
<g>
</g>
<g>
</g>
<g>
</g>
<g>
</g>
</svg>
