<?xml version="1.0" encoding="iso-8859-1"?>
<!-- Generator: Adobe Illustrator 16.0.0, SVG Export Plug-In . SVG Version: 6.00 Build 0)  -->
<!DOCTYPE svg PUBLIC "-//W3C//DTD SVG 1.1//EN" "http://www.w3.org/Graphics/SVG/1.1/DTD/svg11.dtd">
<svg version="1.1" id="Layer_1" xmlns="http://www.w3.org/2000/svg" xmlns:xlink="http://www.w3.org/1999/xlink" x="0px" y="0px"
	 width="56px" height="64px" viewBox="0 0 56 64" style="enable-background:new 0 0 56 64;" xml:space="preserve">
<g id="Knob_6_">
	<g>
		<path style="fill:#48A0DC;" d="M40,0H28c-1.104,0-2,0.896-2,2s0.896,2,2,2h12c1.104,0,2-0.896,2-2S41.104,0,40,0z"/>
	</g>
</g>
<g id="Tube_5_">
	<g>
		<rect x="28" y="4" style="fill:#B3B3B3;" width="12" height="10"/>
	</g>
</g>
<g id="Lid_8_">
	<g>
		<path style="fill:#E6E6E6;" d="M44,14H16C4,14,0,18,0,20v2h48v-4C48,16,46,14,44,14z"/>
	</g>
</g>
<g id="Pourer_3_">
	<g>
		<path style="fill:#B3B3B3;" d="M52,36c-4-2-4-2-4-2h-2v8h10C56,42,56,38,52,36z"/>
	</g>
</g>
<g id="Body_53_">
	<g>
		<path style="fill:#B3B3B3;" d="M0,22v8c0,4,2,8,2,12v18c0,2,0,4,2,4h18V22H0z"/>
	</g>
</g>
<g id="Body_54_">
	<g>
		<path style="fill:#48A0DC;" d="M20,22v8c0,4,2,8,2,12v22h22c2,0,2-2,2-4V42c0-4,2-8,2-12v-8H20z"/>
	</g>
</g>
<g id="Locker_1_">
	<g>
		<path style="fill-rule:evenodd;clip-rule:evenodd;fill:#CCCCCC;" d="M45.747,9c-0.538-0.957-1.729-1.284-2.66-0.732l-10.122,6
			c-0.631,0.375-0.972,1.057-0.965,1.755V40c0,1.104,0.896,2,2,2s2-0.896,2-2V17.087l9.034-5.354
			C45.966,11.18,46.285,9.956,45.747,9z"/>
	</g>
</g>
<g id="Button_16_">
	<g>
		<path style="fill-rule:evenodd;clip-rule:evenodd;fill:#E6E6E6;" d="M38,52c0-2.21-1.791-4-4-4s-4,1.79-4,4
			c0,1.477,0.81,2.752,2,3.445V56c0,1.104,0.896,2,2,2s2-0.896,2-2v-0.555C37.19,54.752,38,53.477,38,52z"/>
	</g>
</g>
<g>
</g>
<g>
</g>
<g>
</g>
<g>
</g>
<g>
</g>
<g>
</g>
<g>
</g>
<g>
</g>
<g>
</g>
<g>
</g>
<g>
</g>
<g>
</g>
<g>
</g>
<g>
</g>
<g>
</g>
</svg>
