<?xml version="1.0" encoding="iso-8859-1"?>
<!-- Generator: Adobe Illustrator 16.0.0, SVG Export Plug-In . SVG Version: 6.00 Build 0)  -->
<!DOCTYPE svg PUBLIC "-//W3C//DTD SVG 1.1//EN" "http://www.w3.org/Graphics/SVG/1.1/DTD/svg11.dtd">
<svg version="1.1" id="Layer_1" xmlns="http://www.w3.org/2000/svg" xmlns:xlink="http://www.w3.org/1999/xlink" x="0px" y="0px"
	 width="28px" height="63.999px" viewBox="0 0 28 63.999" style="enable-background:new 0 0 28 63.999;" xml:space="preserve">
<g id="Base_5_">
	<g>
		<path style="fill:#666666;" d="M22,60H6c-1.104,0-2,0.895-2,1.999c0,1.105,0.896,2,2,2h16c1.104,0,2-0.895,2-2
			C24,60.895,23.104,60,22,60z"/>
	</g>
</g>
<g id="Switch">
	<g>
		<path style="fill:#CCCCCC;" d="M20,25.999v8C20,35.104,20.896,36,22,36s2-0.896,2-2.001v-8H20z"/>
	</g>
</g>
<g id="Leg_2_">
	<g>
		<rect x="12" y="25.999" style="fill:#999999;" width="4" height="34.001"/>
	</g>
</g>
<g id="Shade_1_">
	<g>
		<path style="fill:#9B7CAB;" d="M26,11.999C24,1.999,24,0,22,0H6C4,0,4,1.999,2,11.999S0,23,0,24c0,0.999,1,1.999,2,1.999h24
			c1,0,2-1,2-1.999C28,23,28,21.999,26,11.999z"/>
	</g>
</g>
<g>
</g>
<g>
</g>
<g>
</g>
<g>
</g>
<g>
</g>
<g>
</g>
<g>
</g>
<g>
</g>
<g>
</g>
<g>
</g>
<g>
</g>
<g>
</g>
<g>
</g>
<g>
</g>
<g>
</g>
</svg>
