<?xml version="1.0" encoding="iso-8859-1"?>
<!-- Generator: Adobe Illustrator 16.0.0, SVG Export Plug-In . SVG Version: 6.00 Build 0)  -->
<!DOCTYPE svg PUBLIC "-//W3C//DTD SVG 1.1//EN" "http://www.w3.org/Graphics/SVG/1.1/DTD/svg11.dtd">
<svg version="1.1" id="Layer_1" xmlns="http://www.w3.org/2000/svg" xmlns:xlink="http://www.w3.org/1999/xlink" x="0px" y="0px"
	 width="64px" height="56px" viewBox="0 0 64 56" style="enable-background:new 0 0 64 56;" xml:space="preserve">
<g id="Handle_2_">
	<g>
		<path style="fill:#666666;" d="M12,2C10,0,4,0,2,0C1,0,0,0,0,2s6,0,10,4c2,2,28,28,28,28l2-4C40,30,14,4,12,2z"/>
	</g>
</g>
<g id="Box">
	<g>
		<path style="fill:#FF8833;" d="M12,4c0,0-4,4-4,6s2,4,4,4s6-4,6-4L12,4z"/>
	</g>
</g>
<g id="Body">
	<g>
		<path style="fill-rule:evenodd;clip-rule:evenodd;fill:#FF8833;" d="M52,26c0-1.105-0.896-2-2-2c-6.24,0-11.736,3.177-14.965,8H26
			c-5.523,0-10,4.477-10,10v8c0,1.104,0.896,2,2,2h24c1.104,0,2-0.896,2-2v-6h8V26z"/>
	</g>
</g>
<g id="Button">
	<g>
		<circle style="fill:#FFCC66;" cx="26" cy="42" r="4"/>
	</g>
</g>
<g id="Wheel">
	<g>
		<circle style="fill:#666666;" cx="50" cy="42" r="14"/>
	</g>
</g>
<g id="Wheel_1_">
	<g>
		<circle style="fill:#333333;" cx="50" cy="42" r="8"/>
	</g>
</g>
<g id="Axe_1_">
	<g>
		<circle style="fill:#CCCCCC;" cx="50" cy="42" r="2"/>
	</g>
</g>
<g>
</g>
<g>
</g>
<g>
</g>
<g>
</g>
<g>
</g>
<g>
</g>
<g>
</g>
<g>
</g>
<g>
</g>
<g>
</g>
<g>
</g>
<g>
</g>
<g>
</g>
<g>
</g>
<g>
</g>
</svg>
