<?xml version="1.0" encoding="iso-8859-1"?>
<!-- Generator: Adobe Illustrator 16.0.0, SVG Export Plug-In . SVG Version: 6.00 Build 0)  -->
<!DOCTYPE svg PUBLIC "-//W3C//DTD SVG 1.1//EN" "http://www.w3.org/Graphics/SVG/1.1/DTD/svg11.dtd">
<svg version="1.1" id="Layer_1" xmlns="http://www.w3.org/2000/svg" xmlns:xlink="http://www.w3.org/1999/xlink" x="0px" y="0px"
	 width="64px" height="64px" viewBox="0 0 64 64" style="enable-background:new 0 0 64 64;" xml:space="preserve">
<g id="Tubes">
	<g>
		<polygon style="fill-rule:evenodd;clip-rule:evenodd;fill:#B3B3B3;" points="18,28 18,8 10,8 10,28 6,28 6,40 30,40 30,28 		"/>
	</g>
</g>
<g id="Body_48_">
	<g>
		<path style="fill:#E6E6E6;" d="M60,22c-2,0-30,0-30,0L14,64c0,0,44,0,46,0s4-2,4-4s0-32,0-34S62,22,60,22z"/>
	</g>
</g>
<g id="Tray_1_">
	<g>
		<path style="fill:#CCCCCC;" d="M0,0v2c0,3.313,2.687,6,6,6h32c3.313,0,6-2.687,6-6V0H0z"/>
	</g>
</g>
<g id="Nut_2_">
	<g>
		<path style="fill:#CCCCCC;" d="M4,26H2c-1.104,0-2,0.895-2,2v12c0,1.104,0.896,2,2,2h2c1.104,0,2-0.896,2-2V28
			C6,26.895,5.104,26,4,26z"/>
	</g>
</g>
<g id="Margin_2_">
	<g>
		<path style="fill:#CCCCCC;" d="M24,24C14,50,10,60,10,62s2,2,4,2l16-42C26,22,24.718,22.133,24,24z"/>
	</g>
</g>
<g id="Knob_4_">
	<g>
		<circle style="fill:#999999;" cx="30" cy="34" r="4"/>
	</g>
</g>
<g id="Button_12_">
	<g>
		<circle style="fill:#FFFFFF;" cx="52" cy="34" r="4"/>
	</g>
</g>
<g>
</g>
<g>
</g>
<g>
</g>
<g>
</g>
<g>
</g>
<g>
</g>
<g>
</g>
<g>
</g>
<g>
</g>
<g>
</g>
<g>
</g>
<g>
</g>
<g>
</g>
<g>
</g>
<g>
</g>
</svg>
