<?xml version="1.0" encoding="iso-8859-1"?>
<!-- Generator: Adobe Illustrator 16.0.0, SVG Export Plug-In . SVG Version: 6.00 Build 0)  -->
<!DOCTYPE svg PUBLIC "-//W3C//DTD SVG 1.1//EN" "http://www.w3.org/Graphics/SVG/1.1/DTD/svg11.dtd">
<svg version="1.1" id="Layer_1" xmlns="http://www.w3.org/2000/svg" xmlns:xlink="http://www.w3.org/1999/xlink" x="0px" y="0px"
	 width="64px" height="44px" viewBox="0 0 64 44" style="enable-background:new 0 0 64 44;" xml:space="preserve">
<g id="Legs_22_">
	<g>
		<path style="fill-rule:evenodd;clip-rule:evenodd;fill:#CBCBCB;" d="M12,36H8c-2.209,0-4,1.791-4,4s1.791,4,4,4h4
			c2.209,0,4-1.791,4-4S14.209,36,12,36z M56,36h-4c-2.209,0-4,1.791-4,4s1.791,4,4,4h4c2.209,0,4-1.791,4-4S58.209,36,56,36z"/>
	</g>
</g>
<g id="Body_56_">
	<g>
		<path style="fill:#E6E6E6;" d="M60,0H4C1.791,0,0,1.791,0,4v32c0,2.209,1.791,4,4,4h56c2.209,0,4-1.791,4-4V4
			C64,1.791,62.209,0,60,0z"/>
	</g>
</g>
<g id="Btns">
	<g>
		<path style="fill-rule:evenodd;clip-rule:evenodd;fill:#CBCBCB;" d="M58,14h-4c-1.104,0-2,0.896-2,2s0.896,2,2,2h4
			c1.104,0,2-0.896,2-2S59.104,14,58,14z M54,10h4c1.104,0,2-0.896,2-2s-0.896-2-2-2h-4c-1.104,0-2,0.896-2,2S52.896,10,54,10z"/>
	</g>
</g>
<g id="Knob_7_">
	<g>
		<circle style="fill:#B3B3B3;" cx="56" cy="30" r="4"/>
	</g>
</g>
<g id="Screen_1_">
	<g>
		<path style="fill:#666666;" d="M46,6H8C6.895,6,6,6.896,6,8v24c0,1.104,0.895,2,2,2h38c1.105,0,2-0.896,2-2V8
			C48,6.896,47.104,6,46,6z"/>
	</g>
</g>
<g>
</g>
<g>
</g>
<g>
</g>
<g>
</g>
<g>
</g>
<g>
</g>
<g>
</g>
<g>
</g>
<g>
</g>
<g>
</g>
<g>
</g>
<g>
</g>
<g>
</g>
<g>
</g>
<g>
</g>
</svg>
