<?xml version="1.0" encoding="iso-8859-1"?>
<!-- Generator: Adobe Illustrator 16.0.0, SVG Export Plug-In . SVG Version: 6.00 Build 0)  -->
<!DOCTYPE svg PUBLIC "-//W3C//DTD SVG 1.1//EN" "http://www.w3.org/Graphics/SVG/1.1/DTD/svg11.dtd">
<svg version="1.1" id="Layer_1" xmlns="http://www.w3.org/2000/svg" xmlns:xlink="http://www.w3.org/1999/xlink" x="0px" y="0px"
	 width="64px" height="72px" viewBox="0 0 64 72" style="enable-background:new 0 0 64 72;" xml:space="preserve">
<g id="Base_1_">
	<g>
		<path style="fill-rule:evenodd;clip-rule:evenodd;fill:#CCCCCC;" d="M44,68H34v-8.001h-4V68H20c-1.104,0-2,0.895-2,2
			c0,1.104,0.896,2,2,2h24c1.104,0,2-0.896,2-2C46,68.895,45.104,68,44,68z"/>
	</g>
</g>
<g id="Stand">
	<g>
		<path style="fill-rule:evenodd;clip-rule:evenodd;fill:#CCCCCC;" d="M62,30H2c-1.104,0-2,0.895-2,2c0,17.673,14.326,32,32,32
			c17.673,0,32-14.327,32-32C64,30.895,63.104,30,62,30z M32,59.999C17.209,59.999,5.105,48.528,4.079,34h55.842
			C58.895,48.528,46.791,59.999,32,59.999z"/>
	</g>
</g>
<g id="Frame">
	<g>
		<circle style="fill:#48A0DC;" cx="32" cy="32" r="24"/>
	</g>
</g>
<g id="Display">
	<g>
		<circle style="fill:#E6E6E6;" cx="32" cy="32" r="20"/>
	</g>
</g>
<g>
</g>
<g>
</g>
<g>
</g>
<g>
</g>
<g>
</g>
<g>
</g>
<g>
</g>
<g>
</g>
<g>
</g>
<g>
</g>
<g>
</g>
<g>
</g>
<g>
</g>
<g>
</g>
<g>
</g>
</svg>
