<?xml version="1.0" encoding="iso-8859-1"?>
<!-- Generator: Adobe Illustrator 16.0.0, SVG Export Plug-In . SVG Version: 6.00 Build 0)  -->
<!DOCTYPE svg PUBLIC "-//W3C//DTD SVG 1.1//EN" "http://www.w3.org/Graphics/SVG/1.1/DTD/svg11.dtd">
<svg version="1.1" id="Layer_1" xmlns="http://www.w3.org/2000/svg" xmlns:xlink="http://www.w3.org/1999/xlink" x="0px" y="0px"
	 width="56px" height="64px" viewBox="0 0 56 64" style="enable-background:new 0 0 56 64;" xml:space="preserve">
<g id="Frame_1_">
	<g>
		<path style="fill-rule:evenodd;clip-rule:evenodd;fill:#FFCC66;" d="M56,32c0-2.911-1.56-5.45-3.883-6.85
			C53.291,23.758,54,21.963,54,20c0-4.419-3.582-8-8-8c0-4.419-3.582-8-8-8c-0.989,0-1.932,0.188-2.807,0.516
			C33.897,1.846,31.168,0,28,0s-5.897,1.846-7.193,4.517C19.932,4.188,18.989,4,18,4c-4.418,0-8,3.581-8,8c-4.418,0-8,3.581-8,8
			c0,1.963,0.709,3.758,1.883,5.15C1.559,26.55,0,29.089,0,32c0,2.91,1.559,5.449,3.882,6.85C2.709,40.241,2,42.037,2,44
			c0,4.418,3.582,8,8,8c0,4.418,3.582,8,8,8c0.989,0,1.932-0.188,2.807-0.517C22.103,62.154,24.832,64,28,64
			s5.897-1.846,7.193-4.517C36.068,59.812,37.011,60,38,60c4.418,0,8-3.582,8-8c4.418,0,8-3.582,8-8c0-1.963-0.709-3.759-1.883-5.15
			C54.441,37.449,56,34.91,56,32z"/>
	</g>
</g>
<g id="Mirror">
	<g>
		<ellipse style="fill:#E6E6E6;" cx="28" cy="32" rx="20" ry="26"/>
	</g>
</g>
<g>
</g>
<g>
</g>
<g>
</g>
<g>
</g>
<g>
</g>
<g>
</g>
<g>
</g>
<g>
</g>
<g>
</g>
<g>
</g>
<g>
</g>
<g>
</g>
<g>
</g>
<g>
</g>
<g>
</g>
</svg>
