<?xml version="1.0" encoding="iso-8859-1"?>
<!-- Generator: Adobe Illustrator 16.0.0, SVG Export Plug-In . SVG Version: 6.00 Build 0)  -->
<!DOCTYPE svg PUBLIC "-//W3C//DTD SVG 1.1//EN" "http://www.w3.org/Graphics/SVG/1.1/DTD/svg11.dtd">
<svg version="1.1" id="Layer_1" xmlns="http://www.w3.org/2000/svg" xmlns:xlink="http://www.w3.org/1999/xlink" x="0px" y="0px"
	 width="64px" height="64px" viewBox="0 0 64 64" style="enable-background:new 0 0 64 64;" xml:space="preserve">
<g id="Leg_5_">
	<g>
		<path style="fill-rule:evenodd;clip-rule:evenodd;fill:#ED7161;" d="M56,56H44c-14,0-22-6-22-16V24c0-2,2-4,4-4h10h20V10
			c0-5.523-4.478-10-10-10H10C4.477,0,0,4.477,0,10c0,5.522,4.477,10,10,10c2,0,4,2,4,4C14,60,0,52,0,60c0,2,2,4,4,4
			c5.922,0,52,0,52,0c2,0,4-2,4-4S58,56,56,56z"/>
	</g>
</g>
<g id="Head_13_">
	<g>
		<path style="fill:#BA594C;" d="M36,20c0,2.209,1.791,4,4,4h12c2.209,0,4-1.791,4-4H36z"/>
	</g>
</g>
<g id="Line">
	<g>
		<path style="fill:#CCCCCC;" d="M18,12c-1.104,0-2,0.896-2,2s0.896,2,2,2h38v-4H18z"/>
	</g>
</g>
<g id="Bowl_5_">
	<g>
		<path style="fill:#CCCCCC;" d="M28,30v10c0,8.836,7.163,16,16,16h4c8.836,0,16-7.164,16-16V30H28z"/>
	</g>
</g>
<g id="Beater_Shaft">
	<g>
		<rect x="44" y="24" style="fill:#666666;" width="4" height="6"/>
	</g>
</g>
<g>
</g>
<g>
</g>
<g>
</g>
<g>
</g>
<g>
</g>
<g>
</g>
<g>
</g>
<g>
</g>
<g>
</g>
<g>
</g>
<g>
</g>
<g>
</g>
<g>
</g>
<g>
</g>
<g>
</g>
</svg>
