<?xml version="1.0" encoding="iso-8859-1"?>
<!-- Generator: Adobe Illustrator 16.0.0, SVG Export Plug-In . SVG Version: 6.00 Build 0)  -->
<!DOCTYPE svg PUBLIC "-//W3C//DTD SVG 1.1//EN" "http://www.w3.org/Graphics/SVG/1.1/DTD/svg11.dtd">
<svg version="1.1" id="Layer_1" xmlns="http://www.w3.org/2000/svg" xmlns:xlink="http://www.w3.org/1999/xlink" x="0px" y="0px"
	 width="44px" height="63.999px" viewBox="0 0 44 63.999" style="enable-background:new 0 0 44 63.999;" xml:space="preserve">
<g id="Legs_3_">
	<g>
		<path style="fill-rule:evenodd;clip-rule:evenodd;fill:#735538;" d="M0,63.999h2C4,63.999,4,60,6,60H0V63.999z M38,60
			c2,0,2,3.999,4,3.999h2V60H38z"/>
	</g>
</g>
<g id="Body_32_">
	<g>
		<path style="fill:#A67C52;" d="M40,28H4c-2.209,0-4,1.791-4,4v28h44V32C44,29.791,42.209,28,40,28z"/>
	</g>
</g>
<g id="Drawer_4_">
	<g>
		<path style="fill-rule:evenodd;clip-rule:evenodd;fill:#E6AB70;" d="M38,32H6c-1.104,0-2,0.895-2,1.999V40c0,1.104,0.896,2,2,2h32
			c1.104,0,2-0.896,2-2v-6.001C40,32.895,39.104,32,38,32z M38,46H6c-1.104,0-2,0.895-2,2v6c0,1.104,0.896,2,2,2h32
			c1.104,0,2-0.896,2-2v-6C40,46.895,39.104,46,38,46z"/>
	</g>
</g>
<g id="Handles_7_">
	<g>
		<path style="fill-rule:evenodd;clip-rule:evenodd;fill:#735538;" d="M22,38c1.104,0,2-0.896,2-2c0-1.105-0.896-2-2-2
			c-1.105,0-2,0.895-2,2C20,37.104,20.895,38,22,38z M22,48c-1.105,0-2,0.895-2,2c0,1.104,0.895,2,2,2c1.104,0,2-0.896,2-2
			C24,48.895,23.104,48,22,48z"/>
	</g>
</g>
<g id="Base_4_">
	<g>
		<path style="fill:#B3B3B3;" d="M26,24h-8c-1.104,0-2,0.896-2,2v2h12v-2C28,24.896,27.104,24,26,24z"/>
	</g>
</g>
<g id="Leg_1_">
	<g>
		<rect x="20" y="18" style="fill:#CCCCCC;" width="4" height="6"/>
	</g>
</g>
<g id="Shade">
	<g>
		<path style="fill:#88C057;" d="M28,0H16c-2,0-4,14-4,16s1,2,2,2h16c1,0,2,0,2-2S30,0,28,0z"/>
	</g>
</g>
<g>
</g>
<g>
</g>
<g>
</g>
<g>
</g>
<g>
</g>
<g>
</g>
<g>
</g>
<g>
</g>
<g>
</g>
<g>
</g>
<g>
</g>
<g>
</g>
<g>
</g>
<g>
</g>
<g>
</g>
</svg>
