<?xml version="1.0" encoding="iso-8859-1"?>
<!-- Generator: Adobe Illustrator 16.0.0, SVG Export Plug-In . SVG Version: 6.00 Build 0)  -->
<!DOCTYPE svg PUBLIC "-//W3C//DTD SVG 1.1//EN" "http://www.w3.org/Graphics/SVG/1.1/DTD/svg11.dtd">
<svg version="1.1" id="Layer_1" xmlns="http://www.w3.org/2000/svg" xmlns:xlink="http://www.w3.org/1999/xlink" x="0px" y="0px"
	 width="56px" height="64px" viewBox="0 0 56 64" style="enable-background:new 0 0 56 64;" xml:space="preserve">
<g id="Body_58_">
	<g>
		<path style="fill:#E6E6E6;" d="M52,0H4C1.791,0,0,1.791,0,4v56c0,2.209,1.791,4,4,4h48c2.209,0,4-1.791,4-4V4
			C56,1.791,54.209,0,52,0z"/>
	</g>
</g>
<g id="Door_4_">
	<g>
		<rect y="20" style="fill:#808080;" width="56" height="34"/>
	</g>
</g>
<g id="Oven_1_">
	<g>
		<rect x="8" y="26" style="fill:#999999;" width="40" height="20"/>
	</g>
</g>
<g id="Handle_41_">
	<g>
		<path style="fill:#E6E6E6;" d="M50,26H6c-1.104,0-2,0.896-2,2s0.896,2,2,2h44c1.104,0,2-0.896,2-2S51.104,26,50,26z"/>
	</g>
</g>
<g id="Knobs_4_">
	<g>
		<path style="fill-rule:evenodd;clip-rule:evenodd;fill:#B3B3B3;" d="M12,8c-1.104,0-2,0.896-2,2s0.896,2,2,2s2-0.896,2-2
			S13.104,8,12,8z M44,8c-1.104,0-2,0.896-2,2s0.896,2,2,2s2-0.896,2-2S45.104,8,44,8z"/>
	</g>
</g>
<g id="Screen_2_">
	<g>
		<rect x="22" y="6" style="fill:#999999;" width="12" height="8"/>
	</g>
</g>
<g>
</g>
<g>
</g>
<g>
</g>
<g>
</g>
<g>
</g>
<g>
</g>
<g>
</g>
<g>
</g>
<g>
</g>
<g>
</g>
<g>
</g>
<g>
</g>
<g>
</g>
<g>
</g>
<g>
</g>
</svg>
