<?xml version="1.0" encoding="iso-8859-1"?>
<!-- Generator: Adobe Illustrator 16.0.0, SVG Export Plug-In . SVG Version: 6.00 Build 0)  -->
<!DOCTYPE svg PUBLIC "-//W3C//DTD SVG 1.1//EN" "http://www.w3.org/Graphics/SVG/1.1/DTD/svg11.dtd">
<svg version="1.1" id="Layer_1" xmlns="http://www.w3.org/2000/svg" xmlns:xlink="http://www.w3.org/1999/xlink" x="0px" y="0px"
	 width="64px" height="64px" viewBox="0 0 64 64" style="enable-background:new 0 0 64 64;" xml:space="preserve">
<g id="Mitt">
	<g>
		<path style="fill:#ED7161;" d="M48,0.001c-8,0-18,14-20,14s-2-6.001-2-10C26,2.001,24,0,22,0c-4,0-5.999,8.001-10,20
			C8,32.001,2,40.001,2,40.001l22,22c0,0,40-30,40-44C64,6.001,58,0.001,48,0.001z"/>
	</g>
</g>
<g id="Band_1_">
	<g>
		<path style="fill:#FFCC66;" d="M2,40.001c0,0-2,2-2,3.999c0,2.001,2,4.001,4,6.001s8,8,10,10S18,64,20,64s4-1.999,4-1.999
			L2,40.001z"/>
	</g>
</g>
<g>
</g>
<g>
</g>
<g>
</g>
<g>
</g>
<g>
</g>
<g>
</g>
<g>
</g>
<g>
</g>
<g>
</g>
<g>
</g>
<g>
</g>
<g>
</g>
<g>
</g>
<g>
</g>
<g>
</g>
</svg>
