<?xml version="1.0" encoding="iso-8859-1"?>
<!-- Generator: Adobe Illustrator 16.0.0, SVG Export Plug-In . SVG Version: 6.00 Build 0)  -->
<!DOCTYPE svg PUBLIC "-//W3C//DTD SVG 1.1//EN" "http://www.w3.org/Graphics/SVG/1.1/DTD/svg11.dtd">
<svg version="1.1" id="Layer_1" xmlns="http://www.w3.org/2000/svg" xmlns:xlink="http://www.w3.org/1999/xlink" x="0px" y="0px"
	 width="48px" height="64px" viewBox="0 0 48 64" style="enable-background:new 0 0 48 64;" xml:space="preserve">
<g id="Body_57_">
	<g>
		<path style="fill:#E6E6E6;" d="M46,0h-2H4H2C0.896,0,0,0.896,0,2v2v12h48V4V2C48,0.896,47.104,0,46,0z M0,60c0,2.209,1.791,4,4,4
			h40c2.209,0,4-1.791,4-4v-8H0V60z"/>
	</g>
</g>
<g id="Door_3_">
	<g>
		<rect y="16" style="fill:#CCCCCC;" width="48" height="36"/>
	</g>
</g>
<g id="Oven">
	<g>
		<path style="fill:#808080;" d="M40,20H8c-1.104,0-2,0.896-2,2v30h36V22C42,20.896,41.104,20,40,20z"/>
	</g>
</g>
<g id="Knobs_3_">
	<g>
		<path style="fill-rule:evenodd;clip-rule:evenodd;fill:#999999;" d="M36,6c-1.104,0-2,0.896-2,2s0.896,2,2,2s2-0.896,2-2
			S37.104,6,36,6z M28,6c-1.104,0-2,0.896-2,2s0.896,2,2,2s2-0.896,2-2S29.104,6,28,6z M20,6c-1.104,0-2,0.896-2,2s0.896,2,2,2
			s2-0.896,2-2S21.104,6,20,6z M12,6c-1.104,0-2,0.896-2,2s0.896,2,2,2s2-0.896,2-2S13.104,6,12,6z"/>
	</g>
</g>
<g id="Handle_40_">
	<g>
		<path style="fill:#E6E6E6;" d="M36,24H12c-1.104,0-2,0.896-2,2s0.896,2,2,2h24c1.104,0,2-0.896,2-2S37.104,24,36,24z"/>
	</g>
</g>
<g>
</g>
<g>
</g>
<g>
</g>
<g>
</g>
<g>
</g>
<g>
</g>
<g>
</g>
<g>
</g>
<g>
</g>
<g>
</g>
<g>
</g>
<g>
</g>
<g>
</g>
<g>
</g>
<g>
</g>
</svg>
