<?xml version="1.0" encoding="iso-8859-1"?>
<!-- Generator: Adobe Illustrator 16.0.0, SVG Export Plug-In . SVG Version: 6.00 Build 0)  -->
<!DOCTYPE svg PUBLIC "-//W3C//DTD SVG 1.1//EN" "http://www.w3.org/Graphics/SVG/1.1/DTD/svg11.dtd">
<svg version="1.1" id="Layer_1" xmlns="http://www.w3.org/2000/svg" xmlns:xlink="http://www.w3.org/1999/xlink" x="0px" y="0px"
	 width="64px" height="64px" viewBox="0 0 64 64" style="enable-background:new 0 0 64 64;" xml:space="preserve">
<g id="Handle_28_">
	<g>
		<path style="fill:#48A0DC;" d="M16,40c-2,2-2,6-4,8L2,56c-2,2-2,3-2,4s3,4,4,4s2,0,4-2l8-10c2-2,6-2,8-4L16,40z"/>
	</g>
</g>
<g id="Pan_1_">
	<g>
		<circle style="fill:#666666;" cx="38" cy="26" r="26"/>
	</g>
</g>
<g id="Bottom_1_">
	<g>
		<circle style="fill:#999999;" cx="38" cy="26" r="20"/>
	</g>
</g>
<g id="Albumen">
	<g>
		<path style="fill:#FFFFFF;" d="M48,18c-2,0-4-2-6-2c-6,0-10,4-12,6s-4,4-4,8s4,8,8,8c2,0,5.751,2,10,2c2,0,4-4,4-8s6-4,6-8
			C54,22,52,18,48,18z"/>
	</g>
</g>
<g id="Yolk">
	<g>
		<circle style="fill:#FFCC66;" cx="40" cy="28" r="6"/>
	</g>
</g>
<g>
</g>
<g>
</g>
<g>
</g>
<g>
</g>
<g>
</g>
<g>
</g>
<g>
</g>
<g>
</g>
<g>
</g>
<g>
</g>
<g>
</g>
<g>
</g>
<g>
</g>
<g>
</g>
<g>
</g>
</svg>
