<?xml version="1.0" encoding="iso-8859-1"?>
<!-- Generator: Adobe Illustrator 16.0.0, SVG Export Plug-In . SVG Version: 6.00 Build 0)  -->
<!DOCTYPE svg PUBLIC "-//W3C//DTD SVG 1.1//EN" "http://www.w3.org/Graphics/SVG/1.1/DTD/svg11.dtd">
<svg version="1.1" id="Layer_1" xmlns="http://www.w3.org/2000/svg" xmlns:xlink="http://www.w3.org/1999/xlink" x="0px" y="0px"
	 width="64px" height="64px" viewBox="0 0 64 64" style="enable-background:new 0 0 64 64;" xml:space="preserve">
<g id="Blade_7_">
	<g>
		<path style="fill-rule:evenodd;clip-rule:evenodd;fill:#999999;" d="M2,46c0,2,14,16,16,16s4-2,4-2L4,42C4,42,2,44,2,46z M10,38
			c-2,0-4,2-4,2l18,18c0,0,2-2,2-4S12,38,10,38z"/>
	</g>
</g>
<g id="Handle_26_">
	<g>
		<path style="fill:#9B7CAB;" d="M60,0c-2,0-4,0-8,4c-2,2-22,22-22,22c-2,2-10,2-12,2C12,28,0,40,0,42c0,1,1,2,2,2c2,0,12-12,16-12
			s14,10,14,14c0,3.776-12,14-12,16c0,1,1,2,2,2c2,0,14-12,14-18c0-2,0-10,2-12c0,0,20-20,22-22c4-4,4-6,4-8S62,0,60,0z M58,8
			c-1.104,0-2-0.896-2-2s0.896-2,2-2s2,0.896,2,2S59.104,8,58,8z"/>
	</g>
</g>
<g>
</g>
<g>
</g>
<g>
</g>
<g>
</g>
<g>
</g>
<g>
</g>
<g>
</g>
<g>
</g>
<g>
</g>
<g>
</g>
<g>
</g>
<g>
</g>
<g>
</g>
<g>
</g>
<g>
</g>
</svg>
