<?xml version="1.0" encoding="iso-8859-1"?>
<!-- Generator: Adobe Illustrator 16.0.0, SVG Export Plug-In . SVG Version: 6.00 Build 0)  -->
<!DOCTYPE svg PUBLIC "-//W3C//DTD SVG 1.1//EN" "http://www.w3.org/Graphics/SVG/1.1/DTD/svg11.dtd">
<svg version="1.1" id="Layer_1" xmlns="http://www.w3.org/2000/svg" xmlns:xlink="http://www.w3.org/1999/xlink" x="0px" y="0px"
	 width="64px" height="64px" viewBox="0 0 64 64" style="enable-background:new 0 0 64 64;" xml:space="preserve">
<g id="Handle_27_">
	<g>
		<path style="fill-rule:evenodd;clip-rule:evenodd;fill:#FF8833;" d="M60,0c-2,0-4,0-8,4c-2,2-24,24-24,24l8,8c0,0,22-22,24-24
			c4-4,4-6,4-8S62,0,60,0z M58,8c-1.104,0-2-0.896-2-2s0.896-2,2-2s2,0.896,2,2S59.104,8,58,8z"/>
	</g>
</g>
<g id="Wheel_3_">
	<g>
		<circle style="fill:#999999;" cx="16" cy="48" r="16"/>
	</g>
</g>
<g id="Support_4_">
	<g>
		<path style="fill-rule:evenodd;clip-rule:evenodd;fill:#CCCCCC;" d="M34,30c-4-4-8-4-10-4c-2,0-4,1-4,2
			c0,1.753,3.075,0.435,7.876,4.125L22,38c-2,2-4,4-6,4c-3.314,0-6,2.686-6,6c0,3.313,2.687,6,6,6c3.313,0,6-2.687,6-6c0-2,2-4,4-6
			l5.876-5.875C35.565,40.925,34.247,44,36,44c1,0,2-2,2-4S38,34,34,30z"/>
	</g>
</g>
<g id="Axe_5_">
	<g>
		<circle style="fill:#E6E6E6;" cx="16" cy="48" r="2"/>
	</g>
</g>
<g>
</g>
<g>
</g>
<g>
</g>
<g>
</g>
<g>
</g>
<g>
</g>
<g>
</g>
<g>
</g>
<g>
</g>
<g>
</g>
<g>
</g>
<g>
</g>
<g>
</g>
<g>
</g>
<g>
</g>
</svg>
