<?xml version="1.0" encoding="iso-8859-1"?>
<!-- Generator: Adobe Illustrator 16.0.0, SVG Export Plug-In . SVG Version: 6.00 Build 0)  -->
<!DOCTYPE svg PUBLIC "-//W3C//DTD SVG 1.1//EN" "http://www.w3.org/Graphics/SVG/1.1/DTD/svg11.dtd">
<svg version="1.1" id="Layer_1" xmlns="http://www.w3.org/2000/svg" xmlns:xlink="http://www.w3.org/1999/xlink" x="0px" y="0px"
	 width="64px" height="63.999px" viewBox="0 0 64 63.999" style="enable-background:new 0 0 64 63.999;" xml:space="preserve">
<g id="Handle_12_">
	<g>
		<path style="fill:#F2CDA7;" d="M62,0c-1,0-2,0-4,2L22,38c-2,2-2,3-2,4s1,2,2,2s2,0,4-2L62,6c2-2,2-3,2-4S63,0,62,0z"/>
	</g>
</g>
<g id="Cup">
	<g>
		<path style="fill-rule:evenodd;clip-rule:evenodd;fill:#BA6A5F;" d="M30,38c0-1-3-4-4-4s-6,4-6,4s-2-2-6-2c-6,0-12,6-12,6l20,20
			c0,0,6-6,6-12c0-4-2-6-2-6S30,39,30,38z"/>
	</g>
</g>
<g id="Cup_1_">
	<g>
		<path style="fill-rule:evenodd;clip-rule:evenodd;fill:#A14D42;" d="M2,40c-1,0-2,1-2,1.999c0,1.001,21,22,22,22S24,63,24,62
			C24,60.999,3,40,2,40z M26,34c-1,0-6,4-6,4l6,6c0,0,4-5,4-6S27,34,26,34z"/>
	</g>
</g>
<g>
</g>
<g>
</g>
<g>
</g>
<g>
</g>
<g>
</g>
<g>
</g>
<g>
</g>
<g>
</g>
<g>
</g>
<g>
</g>
<g>
</g>
<g>
</g>
<g>
</g>
<g>
</g>
<g>
</g>
</svg>
