<?xml version="1.0" encoding="iso-8859-1"?>
<!-- Generator: Adobe Illustrator 16.0.0, SVG Export Plug-In . SVG Version: 6.00 Build 0)  -->
<!DOCTYPE svg PUBLIC "-//W3C//DTD SVG 1.1//EN" "http://www.w3.org/Graphics/SVG/1.1/DTD/svg11.dtd">
<svg version="1.1" id="Layer_1" xmlns="http://www.w3.org/2000/svg" xmlns:xlink="http://www.w3.org/1999/xlink" x="0px" y="0px"
	 width="64px" height="56px" viewBox="0 0 64 56" style="enable-background:new 0 0 64 56;" xml:space="preserve">
<g id="Pot_2_">
	<g>
		<path style="fill:#CCCCCC;" d="M6,12v40c0,2.209,1.791,4,4,4h44c2.209,0,4-1.791,4-4V12H6z"/>
	</g>
</g>
<g id="Handles_11_">
	<g>
		<path style="fill-rule:evenodd;clip-rule:evenodd;fill:#B3B3B3;" d="M8.984,20.295l-6-4C2.689,16.124,2.365,16,2,16
			c-1.104,0-2,0.896-2,2c0,0.739,0.42,1.357,1.016,1.704l6,4C7.311,23.875,7.635,24,8,24c1.104,0,2-0.896,2-2
			C10,21.261,9.58,20.642,8.984,20.295z M62,16c-0.365,0-0.689,0.124-0.984,0.295l-6,4C54.42,20.642,54,21.261,54,22
			c0,1.104,0.896,2,2,2c0.365,0,0.689-0.125,0.984-0.296l6-4C63.58,19.357,64,18.739,64,18C64,16.896,63.104,16,62,16z"/>
	</g>
</g>
<g id="Lid">
	<g>
		<path style="fill:#B3B3B3;" d="M58,8H6c-1.104,0-2,0.896-2,2s0.896,2,2,2h52c1.104,0,2-0.896,2-2S59.104,8,58,8z"/>
	</g>
</g>
<g id="Handle_29_">
	<g>
		<path style="fill:#CCCCCC;" d="M32,0c-6,0-12,6-14,8h6c2-2,4-4,8-4s6,2,8,4h6C44,6,38,0,32,0z"/>
	</g>
</g>
<g>
</g>
<g>
</g>
<g>
</g>
<g>
</g>
<g>
</g>
<g>
</g>
<g>
</g>
<g>
</g>
<g>
</g>
<g>
</g>
<g>
</g>
<g>
</g>
<g>
</g>
<g>
</g>
<g>
</g>
</svg>
