<?xml version="1.0" encoding="iso-8859-1"?>
<!-- Generator: Adobe Illustrator 16.0.0, SVG Export Plug-In . SVG Version: 6.00 Build 0)  -->
<!DOCTYPE svg PUBLIC "-//W3C//DTD SVG 1.1//EN" "http://www.w3.org/Graphics/SVG/1.1/DTD/svg11.dtd">
<svg version="1.1" id="Layer_1" xmlns="http://www.w3.org/2000/svg" xmlns:xlink="http://www.w3.org/1999/xlink" x="0px" y="0px"
	 width="64px" height="48px" viewBox="0 0 64 48" style="enable-background:new 0 0 64 48;" xml:space="preserve">
<g id="Handles_12_">
	<g>
		<path style="fill:#4D4D4D;" d="M62,16H2c-1.104,0-2,0.896-2,2s0.896,2,2,2h60c1.104,0,2-0.896,2-2S63.104,16,62,16z"/>
	</g>
</g>
<g id="Pot_3_">
	<g>
		<path style="fill:#666666;" d="M6,12c0,24,2,32,4,34s4,2,6,2h32c2,0,4,0,6-2s4-10,4-34H6z"/>
	</g>
</g>
<g id="Lid_1_">
	<g>
		<path style="fill:#CCCCCC;" d="M32,4C16,4,6,12,6,12h52C58,12,48,4,32,4z"/>
	</g>
</g>
<g id="Knob_2_">
	<g>
		<path style="fill:#4D4D4D;" d="M34,0h-4c-1.105,0-2,0.896-2,2s0.895,2,2,2h4c1.104,0,2-0.896,2-2S35.104,0,34,0z"/>
	</g>
</g>
<g>
</g>
<g>
</g>
<g>
</g>
<g>
</g>
<g>
</g>
<g>
</g>
<g>
</g>
<g>
</g>
<g>
</g>
<g>
</g>
<g>
</g>
<g>
</g>
<g>
</g>
<g>
</g>
<g>
</g>
</svg>
