<?xml version="1.0" encoding="iso-8859-1"?>
<!-- Generator: Adobe Illustrator 16.0.0, SVG Export Plug-In . SVG Version: 6.00 Build 0)  -->
<!DOCTYPE svg PUBLIC "-//W3C//DTD SVG 1.1//EN" "http://www.w3.org/Graphics/SVG/1.1/DTD/svg11.dtd">
<svg version="1.1" id="Layer_1" xmlns="http://www.w3.org/2000/svg" xmlns:xlink="http://www.w3.org/1999/xlink" x="0px" y="0px"
	 width="64px" height="40px" viewBox="0 0 64 40" style="enable-background:new 0 0 64 40;" xml:space="preserve">
<g id="Radiator">
	<g>
		<path style="fill-rule:evenodd;clip-rule:evenodd;fill:#BFA284;" d="M16,4c0,0-2,0-2-2h-2v8h2c0-2,2-2,2-2s2,0,2,2h2V2h-2
			C18,4,16,4,16,4z M26,4c0,0-2,0-2-2h-2v8h2c0-2,2-2,2-2s2,0,2,2h2V2h-2C28,4,26,4,26,4z M36,4c0,0-2,0-2-2h-2v8h2c0-2,2-2,2-2
			s2,0,2,2h2V2h-2C38,4,36,4,36,4z M48,2c0,2-2,2-2,2s-2,0-2-2h-2v8h2c0-2,2-2,2-2s2,0,2,2h2V2H48z M16,28c0,0-2,0-2-2h-2v8h2
			c0-2,2-2,2-2s2,0,2,2h2v-8h-2C18,28,16,28,16,28z M26,28c0,0-2,0-2-2h-2v8h2c0-2,2-2,2-2s2,0,2,2h2v-8h-2C28,28,26,28,26,28z
			 M36,28c0,0-2,0-2-2h-2v8h2c0-2,2-2,2-2s2,0,2,2h2v-8h-2C38,28,36,28,36,28z M46,28c0,0-2,0-2-2h-2v8h2c0-2,2-2,2-2s2,0,2,2h2v-8
			h-2C48,28,46,28,46,28z"/>
	</g>
</g>
<g id="Radiator_1_">
	<g>
		<path style="fill-rule:evenodd;clip-rule:evenodd;fill:#F2CDA7;" d="M11,0C9.343,0,8,1.343,8,3v30c0,1.656,1.343,3,3,3
			c1.656,0,3-1.344,3-3V3C14,1.343,12.656,0,11,0z M21,0c-1.657,0-3,1.343-3,3v30c0,1.656,1.343,3,3,3c1.656,0,3-1.344,3-3V3
			C24,1.343,22.656,0,21,0z M31,0c-1.657,0-3,1.343-3,3v30c0,1.656,1.343,3,3,3c1.656,0,3-1.344,3-3V3C34,1.343,32.656,0,31,0z
			 M41,0c-1.657,0-3,1.343-3,3v30c0,1.656,1.343,3,3,3c1.656,0,3-1.344,3-3V3C44,1.343,42.656,0,41,0z M51,0c-1.657,0-3,1.343-3,3
			v30c0,1.656,1.343,3,3,3c1.656,0,3-1.344,3-3V3C54,1.343,52.656,0,51,0z"/>
	</g>
</g>
<g id="Pipes">
	<g>
		<path style="fill-rule:evenodd;clip-rule:evenodd;fill:#99521F;" d="M0,32v8h4v-6c0-1.105,0.896-2,2-2h2v-4H4
			C1.791,28,0,29.791,0,32z M60,4h-6v4h6V4z M54,28v4h10v-4H54z"/>
	</g>
</g>
<g id="Knob">
	<g>
		<circle style="fill:#CCCCCC;" cx="60" cy="6" r="4"/>
	</g>
</g>
<g id="Knob_1_">
	<g>
		<circle style="fill:#999999;" cx="60" cy="6" r="2"/>
	</g>
</g>
<g>
</g>
<g>
</g>
<g>
</g>
<g>
</g>
<g>
</g>
<g>
</g>
<g>
</g>
<g>
</g>
<g>
</g>
<g>
</g>
<g>
</g>
<g>
</g>
<g>
</g>
<g>
</g>
<g>
</g>
</svg>
