<?xml version="1.0" encoding="iso-8859-1"?>
<!-- Generator: Adobe Illustrator 16.0.0, SVG Export Plug-In . SVG Version: 6.00 Build 0)  -->
<!DOCTYPE svg PUBLIC "-//W3C//DTD SVG 1.1//EN" "http://www.w3.org/Graphics/SVG/1.1/DTD/svg11.dtd">
<svg version="1.1" id="Layer_1" xmlns="http://www.w3.org/2000/svg" xmlns:xlink="http://www.w3.org/1999/xlink" x="0px" y="0px"
	 width="64px" height="64px" viewBox="0 0 64 64" style="enable-background:new 0 0 64 64;" xml:space="preserve">
<g id="Water">
	<g>
		<path style="fill-rule:evenodd;clip-rule:evenodd;fill:#BAE3FF;" d="M18,42c0,2,2,2,2,2s2,0,2-2s-2-6-2-6S18,40,18,42z M24,48
			c0,2,2,2,2,2s2,0,2-2s-2-6-2-6S24,46,24,48z M30,44c0,2,2,2,2,2s2,0,2-2s-2-6-2-6S30,42,30,44z M36,50c0,2,2,2,2,2s2,0,2-2
			s-2-6-2-6S36,48,36,50z M42,44c0,2,2,2,2,2s2,0,2-2s-2-6-2-6S42,42,42,44z M48,48c0,2,2,2,2,2s2,0,2-2s-2-6-2-6S48,46,48,48z
			 M56,46c0,0,2,0,2-2s-2-6-2-6s-2,4-2,6S56,46,56,46z M18,54c0,2,2,2,2,2s2,0,2-2s-2-6-2-6S18,52,18,54z M24,60c0,2,2,2,2,2
			s2,0,2-2s-2-6-2-6S24,58,24,60z M30,56c0,2,2,2,2,2s2,0,2-2s-2-6-2-6S30,54,30,56z M36,62c0,2,2,2,2,2s2,0,2-2s-2-6-2-6
			S36,60,36,62z M42,56c0,2,2,2,2,2s2,0,2-2s-2-6-2-6S42,54,42,56z M48,60c0,2,2,2,2,2s2,0,2-2s-2-6-2-6S48,58,48,60z M54,56
			c0,2,2,2,2,2s2,0,2-2s-2-6-2-6S54,54,54,56z M36,38c0,2,2,2,2,2s2,0,2-2s-2-6-2-6S36,36,36,38z M48,36c0,2,2,2,2,2s2,0,2-2
			s-2-6-2-6S48,34,48,36z M24,36c0,2,2,2,2,2s2,0,2-2s-2-6-2-6S24,34,24,36z"/>
	</g>
</g>
<g id="Head_8_">
	<g>
		<path style="fill:#999999;" d="M14,28v2c0,1.104,0.896,2,2,2h44c1.104,0,2-0.896,2-2v-2H14z"/>
	</g>
</g>
<g id="Head_9_">
	<g>
		<path style="fill:#CCCCCC;" d="M62,20H14c-1.104,0-2,0.896-2,2v4c0,1.104,0.896,2,2,2h48c1.104,0,2-0.896,2-2v-4
			C64,20.896,63.104,20,62,20z"/>
	</g>
</g>
<g id="Ring_1_">
	<g>
		<path style="fill:#B3B3B3;" d="M42,16h-8c-1.104,0-2,0.896-2,2v2h12v-2C44,16.896,43.104,16,42,16z"/>
	</g>
</g>
<g id="Pipe">
	<g>
		<path style="fill-rule:evenodd;clip-rule:evenodd;fill:#CCCCCC;" d="M30,0H10C4.477,0,0,4.477,0,10v54h4V10c0-3.313,2.687-6,6-6
			h20c3.313,0,6,2.687,6,6v6h4v-6C40,4.477,35.522,0,30,0z"/>
	</g>
</g>
<g>
</g>
<g>
</g>
<g>
</g>
<g>
</g>
<g>
</g>
<g>
</g>
<g>
</g>
<g>
</g>
<g>
</g>
<g>
</g>
<g>
</g>
<g>
</g>
<g>
</g>
<g>
</g>
<g>
</g>
</svg>
