<?xml version="1.0" encoding="iso-8859-1"?>
<!-- Generator: Adobe Illustrator 16.0.0, SVG Export Plug-In . SVG Version: 6.00 Build 0)  -->
<!DOCTYPE svg PUBLIC "-//W3C//DTD SVG 1.1//EN" "http://www.w3.org/Graphics/SVG/1.1/DTD/svg11.dtd">
<svg version="1.1" id="Layer_1" xmlns="http://www.w3.org/2000/svg" xmlns:xlink="http://www.w3.org/1999/xlink" x="0px" y="0px"
	 width="64px" height="64px" viewBox="0 0 64 64" style="enable-background:new 0 0 64 64;" xml:space="preserve">
<g id="Tube">
	<g>
		
			<rect x="30.343" y="25.172" transform="matrix(0.7071 -0.7071 0.7071 0.7071 -9.2548 33.6569)" style="fill:#666666;" width="11.314" height="5.657"/>
	</g>
</g>
<g id="Handle_4_">
	<g>
		<path style="fill:#FF8833;" d="M30,26c0,0-26,26-28,28s-2,3-2,4s5,6,6,6s2,0,4-2s28-28,28-28L30,26z"/>
	</g>
</g>
<g id="Head_6_">
	<g>
		<path style="fill:#808080;" d="M36,0l-8,8c-2,2-2,3-2,4s0,2,2,4c3.709,3.709,20,20,20,20c2,2,3,2,4,2s2,0,4-2l8-8L36,0z"/>
	</g>
</g>
<g id="Blade_3_">
	<g>
		
			<rect x="41.172" y="3.029" transform="matrix(0.7071 -0.7071 0.7071 0.7071 -1.2548 36.9706)" style="fill:#999999;" width="5.657" height="33.941"/>
	</g>
</g>
<g id="Blade_4_">
	<g>
		
			<rect x="45.172" y="-0.971" transform="matrix(0.7071 -0.7071 0.7071 0.7071 2.7452 38.6274)" style="fill:#CCCCCC;" width="5.657" height="33.941"/>
	</g>
</g>
<g>
</g>
<g>
</g>
<g>
</g>
<g>
</g>
<g>
</g>
<g>
</g>
<g>
</g>
<g>
</g>
<g>
</g>
<g>
</g>
<g>
</g>
<g>
</g>
<g>
</g>
<g>
</g>
<g>
</g>
</svg>
