<?xml version="1.0" encoding="iso-8859-1"?>
<!-- Generator: Adobe Illustrator 16.0.0, SVG Export Plug-In . SVG Version: 6.00 Build 0)  -->
<!DOCTYPE svg PUBLIC "-//W3C//DTD SVG 1.1//EN" "http://www.w3.org/Graphics/SVG/1.1/DTD/svg11.dtd">
<svg version="1.1" id="Layer_1" xmlns="http://www.w3.org/2000/svg" xmlns:xlink="http://www.w3.org/1999/xlink" x="0px" y="0px"
	 width="52px" height="64px" viewBox="0 0 52 64" style="enable-background:new 0 0 52 64;" xml:space="preserve">
<g id="Body_60_">
	<g>
		<path style="fill-rule:evenodd;clip-rule:evenodd;fill:#CCCCCC;" d="M0,4v56c0,2.209,1.791,4,4,4h14V0H4C1.791,0,0,1.791,0,4z
			 M48,0H22v64h26c2.209,0,4-1.791,4-4V4C52,1.791,50.209,0,48,0z"/>
	</g>
</g>
<g id="Body_61_">
	<g>
		<rect x="18" style="fill:#999999;" width="4" height="64"/>
	</g>
</g>
<g id="Handles_13_">
	<g>
		<path style="fill-rule:evenodd;clip-rule:evenodd;fill:#E6E6E6;" d="M16,8c-1.104,0-2,0.896-2,2v44c0,1.104,0.896,2,2,2
			s2-0.896,2-2V10C18,8.896,17.104,8,16,8z M24,8c-1.104,0-2,0.896-2,2v44c0,1.104,0.896,2,2,2s2-0.896,2-2V10
			C26,8.896,25.104,8,24,8z"/>
	</g>
</g>
<g id="Ice_Dispenser">
	<g>
		<path style="fill:#E6E6E6;" d="M44,16H32c-1.104,0-2,0.896-2,2v16c0,1.104,0.896,2,2,2h12c1.104,0,2-0.896,2-2V18
			C46,16.896,45.104,16,44,16z"/>
	</g>
</g>
<g id="Hollow">
	<g>
		<rect x="30" y="24" style="fill:#999999;" width="16" height="8"/>
	</g>
</g>
<g id="Cap_7_">
	<g>
		<path style="fill:#666666;" d="M36,24v2c0,1.104,0.896,2,2,2s2-0.896,2-2v-2H36z"/>
	</g>
</g>
<g>
</g>
<g>
</g>
<g>
</g>
<g>
</g>
<g>
</g>
<g>
</g>
<g>
</g>
<g>
</g>
<g>
</g>
<g>
</g>
<g>
</g>
<g>
</g>
<g>
</g>
<g>
</g>
<g>
</g>
</svg>
