<?xml version="1.0" encoding="iso-8859-1"?>
<!-- Generator: Adobe Illustrator 16.0.0, SVG Export Plug-In . SVG Version: 6.00 Build 0)  -->
<!DOCTYPE svg PUBLIC "-//W3C//DTD SVG 1.1//EN" "http://www.w3.org/Graphics/SVG/1.1/DTD/svg11.dtd">
<svg version="1.1" id="Layer_1" xmlns="http://www.w3.org/2000/svg" xmlns:xlink="http://www.w3.org/1999/xlink" x="0px" y="0px"
	 width="44px" height="64px" viewBox="0 0 44 64" style="enable-background:new 0 0 44 64;" xml:space="preserve">
<g id="Body_62_">
	<g>
		<path style="fill-rule:evenodd;clip-rule:evenodd;fill:#E6E6E6;" d="M40,0H4C1.791,0,0,1.791,0,4v20h44V4C44,1.791,42.209,0,40,0z
			 M0,60c0,2.209,1.791,4,4,4h36c2.209,0,4-1.791,4-4V28H0V60z"/>
	</g>
</g>
<g id="Body_63_">
	<g>
		<rect y="24" style="fill:#CCCCCC;" width="44" height="4"/>
	</g>
</g>
<g id="Handle_43_">
	<g>
		<path style="fill-rule:evenodd;clip-rule:evenodd;fill:#B3B3B3;" d="M8,34c-1.104,0-2,0.895-2,2v8c0,1.104,0.896,2,2,2
			s2-0.896,2-2v-8C10,34.895,9.104,34,8,34z M8,10c-1.104,0-2,0.896-2,2v4c0,1.104,0.896,2,2,2s2-0.896,2-2v-4
			C10,10.896,9.104,10,8,10z"/>
	</g>
</g>
<g>
</g>
<g>
</g>
<g>
</g>
<g>
</g>
<g>
</g>
<g>
</g>
<g>
</g>
<g>
</g>
<g>
</g>
<g>
</g>
<g>
</g>
<g>
</g>
<g>
</g>
<g>
</g>
<g>
</g>
</svg>
