<?xml version="1.0" encoding="iso-8859-1"?>
<!-- Generator: Adobe Illustrator 16.0.0, SVG Export Plug-In . SVG Version: 6.00 Build 0)  -->
<!DOCTYPE svg PUBLIC "-//W3C//DTD SVG 1.1//EN" "http://www.w3.org/Graphics/SVG/1.1/DTD/svg11.dtd">
<svg version="1.1" id="Layer_1" xmlns="http://www.w3.org/2000/svg" xmlns:xlink="http://www.w3.org/1999/xlink" x="0px" y="0px"
	 width="64px" height="64px" viewBox="0 0 64 64" style="enable-background:new 0 0 64 64;" xml:space="preserve">
<g id="Handles_10_">
	<g>
		<path style="fill-rule:evenodd;clip-rule:evenodd;fill:#D9B796;" d="M8,52c-2,2-8,2-8,8c0,2,2,4,4,4c6,0,6-6,8-8c4-4,8-2,8-2
			L10,44C10,44,12,48,8,52z M60,0c-6,0-6,6-8,8c-4,4-8,2-8,2l10,10c0,0-2-4,2-8c2-2,8-2,8-8C64,2,62,0,60,0z"/>
	</g>
</g>
<g id="Cilinder">
	<g>
		<path style="fill:#F2CDA7;" d="M42,8c-1,0-2,0-4,2L10,38c-2,2-2,3-2,4s13,14,14,14s2,0,4-2l28-28c2-2,2-3,2-4S43,8,42,8z"/>
	</g>
</g>
<g>
</g>
<g>
</g>
<g>
</g>
<g>
</g>
<g>
</g>
<g>
</g>
<g>
</g>
<g>
</g>
<g>
</g>
<g>
</g>
<g>
</g>
<g>
</g>
<g>
</g>
<g>
</g>
<g>
</g>
</svg>
