<?xml version="1.0" encoding="iso-8859-1"?>
<!-- Generator: Adobe Illustrator 16.0.0, SVG Export Plug-In . SVG Version: 6.00 Build 0)  -->
<!DOCTYPE svg PUBLIC "-//W3C//DTD SVG 1.1//EN" "http://www.w3.org/Graphics/SVG/1.1/DTD/svg11.dtd">
<svg version="1.1" id="Layer_1" xmlns="http://www.w3.org/2000/svg" xmlns:xlink="http://www.w3.org/1999/xlink" x="0px" y="0px"
	 width="64px" height="40.001px" viewBox="0 0 64 40.001" style="enable-background:new 0 0 64 40.001;" xml:space="preserve">
<g id="Margins">
	<g>
		<path style="fill-rule:evenodd;clip-rule:evenodd;fill:#999999;" d="M0,2v36c0,1.104,0.896,2.001,2,2.001h2V0H2
			C0.896,0,0,0.896,0,2z M62,0h-2v40.001h2c1.104,0,2-0.896,2-2.001V2C64,0.896,63.104,0,62,0z"/>
	</g>
</g>
<g id="Body_37_">
	<g>
		<rect x="4" style="fill:#666666;" width="56" height="40.001"/>
	</g>
</g>
<g id="Center_1_">
	<g>
		<rect x="8" y="4" style="fill:#ED7161;" width="48" height="32.001"/>
	</g>
</g>
<g id="Design_3_">
	<g>
		<path style="fill-rule:evenodd;clip-rule:evenodd;fill:#F6CBAD;" d="M32,12.001l-18,8l18,8l18-8L32,12.001z M22,20.001l10-4l10,4
			l-10,4L22,20.001z"/>
	</g>
</g>
<g>
</g>
<g>
</g>
<g>
</g>
<g>
</g>
<g>
</g>
<g>
</g>
<g>
</g>
<g>
</g>
<g>
</g>
<g>
</g>
<g>
</g>
<g>
</g>
<g>
</g>
<g>
</g>
<g>
</g>
</svg>
