<?xml version="1.0" encoding="iso-8859-1"?>
<!-- Generator: Adobe Illustrator 16.0.0, SVG Export Plug-In . SVG Version: 6.00 Build 0)  -->
<!DOCTYPE svg PUBLIC "-//W3C//DTD SVG 1.1//EN" "http://www.w3.org/Graphics/SVG/1.1/DTD/svg11.dtd">
<svg version="1.1" id="Layer_1" xmlns="http://www.w3.org/2000/svg" xmlns:xlink="http://www.w3.org/1999/xlink" x="0px" y="0px"
	 width="64px" height="56px" viewBox="0 0 64 56" style="enable-background:new 0 0 64 56;" xml:space="preserve">
<g id="Bottle_3_">
	<g>
		<path style="fill:#CCCCCC;" d="M60,20c1.104,0,2-0.896,2-2s-0.896-2-2-2H40c-1.104,0-2,0.896-2,2s0.896,2,2,2c0,8-4,24-4,28
			s2,8,6,8h16c4,0,6-4,6-8S60,28,60,20z"/>
	</g>
</g>
<g id="Pepper">
	<g>
		<path style="fill:#A67C52;" d="M58,34H42c-2,8-2,10-2,12s2,4,4,4h12c2,0,4-2,4-4S60,42,58,34z"/>
	</g>
</g>
<g id="Interior_3_">
	<g>
		<path style="fill:#E6E6E6;" d="M56,20H44c0,0,0,6-2,14h16C56,26,56,20,56,20z"/>
	</g>
</g>
<g id="Cap_3_">
	<g>
		<path style="fill-rule:evenodd;clip-rule:evenodd;fill:#808080;" d="M62,10c0-4-4-10-10-10h-4c-6,0-10,6-10,10
			c-1.105,0-2,0.896-2,2v2c0,1.104,0.895,2,2,2h24c1.104,0,2-0.896,2-2v-2C64,10.896,63.104,10,62,10z"/>
	</g>
</g>
<g id="Bottle_2_">
	<g>
		<path style="fill:#CCCCCC;" d="M24,20c1.104,0,2-0.896,2-2s-0.896-2-2-2H4c-1.104,0-2,0.896-2,2s0.896,2,2,2c0,8-4,24-4,28
			s2,8,6,8h16c4,0,6-4,6-8S24,28,24,20z"/>
	</g>
</g>
<g id="Salt">
	<g>
		<path style="fill:#FFFFFF;" d="M22,34H6c-2,8-2,10-2,12s2,4,4,4h12c2,0,4-2,4-4S24,42,22,34z"/>
	</g>
</g>
<g id="Interior_2_">
	<g>
		<path style="fill:#E6E6E6;" d="M20,20H8c0,0,0,6-2,14h16C20,26,20,20,20,20z"/>
	</g>
</g>
<g id="Cap_4_">
	<g>
		<path style="fill-rule:evenodd;clip-rule:evenodd;fill:#E6E6E6;" d="M26,10c0-4-4-10-10-10h-4C6,0,2,6,2,10c-1.105,0-2,0.896-2,2
			v2c0,1.104,0.895,2,2,2h24c1.104,0,2-0.896,2-2v-2C28,10.896,27.104,10,26,10z"/>
	</g>
</g>
<g>
</g>
<g>
</g>
<g>
</g>
<g>
</g>
<g>
</g>
<g>
</g>
<g>
</g>
<g>
</g>
<g>
</g>
<g>
</g>
<g>
</g>
<g>
</g>
<g>
</g>
<g>
</g>
<g>
</g>
</svg>
