<?xml version="1.0" encoding="iso-8859-1"?>
<!-- Generator: Adobe Illustrator 16.0.0, SVG Export Plug-In . SVG Version: 6.00 Build 0)  -->
<!DOCTYPE svg PUBLIC "-//W3C//DTD SVG 1.1//EN" "http://www.w3.org/Graphics/SVG/1.1/DTD/svg11.dtd">
<svg version="1.1" id="Layer_1" xmlns="http://www.w3.org/2000/svg" xmlns:xlink="http://www.w3.org/1999/xlink" x="0px" y="0px"
	 width="48px" height="64px" viewBox="0 0 48 64" style="enable-background:new 0 0 48 64;" xml:space="preserve">
<g id="Base_13_">
	<g>
		<path style="fill:#B3B3B3;" d="M0,56v4c0,2.209,1.791,4,4,4h40c2.209,0,4-1.791,4-4v-4H0z"/>
	</g>
</g>
<g id="Body_50_">
	<g>
		<path style="fill:#FFCC66;" d="M40,20H8c-4.418,0-8,3.581-8,8v28h48V28C48,23.581,44.418,20,40,20z"/>
	</g>
</g>
<g id="Tray_2_">
	<g>
		<path style="fill:#FFCC66;" d="M44,0C42,0,6,0,4,0S0,0,0,2s12,6,20,6h8c10,0,20-4,20-6S46,0,44,0z"/>
	</g>
</g>
<g id="Leg_4_">
	<g>
		<rect x="20" y="8" style="fill:#666666;" width="8" height="12"/>
	</g>
</g>
<g id="Dial_2_">
	<g>
		<circle style="fill:#FFFFFF;" cx="24" cy="38" r="14"/>
	</g>
</g>
<g id="Axe_6_">
	<g>
		<circle style="fill:#CCCCCC;" cx="24" cy="38" r="4"/>
	</g>
</g>
<g id="Hand">
	<g>
		<path style="fill:#ED7161;" d="M25.335,36.597c-0.847-0.848-2.221-0.848-3.068,0l-5.67,5.67c-0.847,0.848-0.847,2.222,0,3.068
			c0.847,0.848,2.221,0.848,3.068,0l5.67-5.67C26.183,38.817,26.183,37.444,25.335,36.597z"/>
	</g>
</g>
<g>
</g>
<g>
</g>
<g>
</g>
<g>
</g>
<g>
</g>
<g>
</g>
<g>
</g>
<g>
</g>
<g>
</g>
<g>
</g>
<g>
</g>
<g>
</g>
<g>
</g>
<g>
</g>
<g>
</g>
</svg>
