<?xml version="1.0" encoding="iso-8859-1"?>
<!-- Generator: Adobe Illustrator 16.0.0, SVG Export Plug-In . SVG Version: 6.00 Build 0)  -->
<!DOCTYPE svg PUBLIC "-//W3C//DTD SVG 1.1//EN" "http://www.w3.org/Graphics/SVG/1.1/DTD/svg11.dtd">
<svg version="1.1" id="Layer_1" xmlns="http://www.w3.org/2000/svg" xmlns:xlink="http://www.w3.org/1999/xlink" x="0px" y="0px"
	 width="32px" height="64px" viewBox="0 0 32 64" style="enable-background:new 0 0 32 64;" xml:space="preserve">
<g id="Body_15_">
	<g>
		<path style="fill:#CCCCCC;" d="M26,10H6c-2,8-6,36-6,42c0,6.001,4,12,6,12h20c2,0,6-5.999,6-12C32,46,28,18,26,10z"/>
	</g>
</g>
<g id="Cap_1_">
	<g>
		<path style="fill:#48A0DC;" d="M22,0H10C8,0,8,2,6,10h20C24,2,24,0,22,0z"/>
	</g>
</g>
<g id="Label_1_">
	<g>
		<path style="fill:#E6E6E6;" d="M22,18c-0.248-1.984-2-1.999-4-1.999h-4c-2,0-3.752,0.015-4,1.999C8,34,6,48.001,6,52
			c0,4,2,6.001,4,6.001h12c2,0,4-2.001,4-6.001C26,48.001,24,34,22,18z"/>
	</g>
</g>
<g>
</g>
<g>
</g>
<g>
</g>
<g>
</g>
<g>
</g>
<g>
</g>
<g>
</g>
<g>
</g>
<g>
</g>
<g>
</g>
<g>
</g>
<g>
</g>
<g>
</g>
<g>
</g>
<g>
</g>
</svg>
