<?xml version="1.0" encoding="iso-8859-1"?>
<!-- Generator: Adobe Illustrator 16.0.0, SVG Export Plug-In . SVG Version: 6.00 Build 0)  -->
<!DOCTYPE svg PUBLIC "-//W3C//DTD SVG 1.1//EN" "http://www.w3.org/Graphics/SVG/1.1/DTD/svg11.dtd">
<svg version="1.1" id="Layer_1" xmlns="http://www.w3.org/2000/svg" xmlns:xlink="http://www.w3.org/1999/xlink" x="0px" y="0px"
	 width="64px" height="64px" viewBox="0 0 64 64" style="enable-background:new 0 0 64 64;" xml:space="preserve">
<g id="Brush_1_">
	<g>
		<path style="fill:#D9B796;" d="M42,0c-8,0-6,8-16,28l10,10c20-10,28-8,28-16C64,8,56,0,42,0z"/>
	</g>
</g>
<g id="Ring">
	<g>
		<path style="fill:#666666;" d="M26,26c-2,0-2,2-2,2l12,12c0,0,2,0,2-2S28,26,26,26z"/>
	</g>
</g>
<g id="Support">
	<g>
		<path style="fill:#F2CDA7;" d="M24,28C10,28,10,44,8,46s-8,0-8,4c0,2,12,14,14,14c4,0,2-6,4-8s18-2,18-16L24,28z"/>
	</g>
</g>
<g>
</g>
<g>
</g>
<g>
</g>
<g>
</g>
<g>
</g>
<g>
</g>
<g>
</g>
<g>
</g>
<g>
</g>
<g>
</g>
<g>
</g>
<g>
</g>
<g>
</g>
<g>
</g>
<g>
</g>
</svg>
