<?xml version="1.0" encoding="iso-8859-1"?>
<!-- Generator: Adobe Illustrator 16.0.0, SVG Export Plug-In . SVG Version: 6.00 Build 0)  -->
<!DOCTYPE svg PUBLIC "-//W3C//DTD SVG 1.1//EN" "http://www.w3.org/Graphics/SVG/1.1/DTD/svg11.dtd">
<svg version="1.1" id="Layer_1" xmlns="http://www.w3.org/2000/svg" xmlns:xlink="http://www.w3.org/1999/xlink" x="0px" y="0px"
	 width="64px" height="64px" viewBox="0 0 64 64" style="enable-background:new 0 0 64 64;" xml:space="preserve">
<g id="Water_1_">
	<g>
		<path style="fill-rule:evenodd;clip-rule:evenodd;fill:#BAE3FF;" d="M56,22c0,0,4,8,6,8c1,0,2-1,2-2C64,26,56,22,56,22z M48,22
			c0,0,4,8,6,8c1,0,2-1,2-2C56,26,48,22,48,22z M48,30c0,0,4,8,6,8c1,0,2-1,2-2C56,34,48,30,48,30z M56,30c0,0,4,8,6,8c1,0,2-1,2-2
			C64,34,56,30,56,30z M62,22c1,0,2-1,2-2c0-2-8-6-8-6S60,22,62,22z M54,22c1,0,2-1,2-2c0-2-8-6-8-6S52,22,54,22z M40,22
			c0,0,4,8,6,8c1,0,2-1,2-2C48,26,40,22,40,22z M46,22c1,0,2-1,2-2c0-2-8-6-8-6S44,22,46,22z M54,14c1,0,2-1,2-2c0-2-8-6-8-6
			S52,14,54,14z"/>
	</g>
</g>
<g id="Hose">
	<g>
		<path style="fill:#999999;" d="M38,52c-14,0-20,8-26,8s-8-2-8-8c0-4,8-10,8-10l-4-4c0,0-8,8-8,14c0,10,6,12,12,12s14-8,26-8
			c8,0,14,6,14,8h4C56,60,50,52,38,52z"/>
	</g>
</g>
<g id="Head_10_">
	<g>
		<path style="fill:#999999;" d="M52,6L34,24c0,0,0,2,2,2s4-2,6-4l8-8c2-2,4-4,4-6S52,6,52,6z"/>
	</g>
</g>
<g id="Body_18_">
	<g>
		<path style="fill-rule:evenodd;clip-rule:evenodd;fill:#CCCCCC;" d="M40,0c-4,0-12,8-12,12c0,1.301,0.17,2.484,0.436,3.573
			C23.417,20.636,8,36.325,8,38c0,2,2,4,4,4s18-14,22-18L52,6C52,6,48,0,40,0z"/>
	</g>
</g>
<g>
</g>
<g>
</g>
<g>
</g>
<g>
</g>
<g>
</g>
<g>
</g>
<g>
</g>
<g>
</g>
<g>
</g>
<g>
</g>
<g>
</g>
<g>
</g>
<g>
</g>
<g>
</g>
<g>
</g>
</svg>
