<?xml version="1.0" encoding="iso-8859-1"?>
<!-- Generator: Adobe Illustrator 16.0.0, SVG Export Plug-In . SVG Version: 6.00 Build 0)  -->
<!DOCTYPE svg PUBLIC "-//W3C//DTD SVG 1.1//EN" "http://www.w3.org/Graphics/SVG/1.1/DTD/svg11.dtd">
<svg version="1.1" id="Layer_1" xmlns="http://www.w3.org/2000/svg" xmlns:xlink="http://www.w3.org/1999/xlink" x="0px" y="0px"
	 width="48px" height="64px" viewBox="0 0 48 64" style="enable-background:new 0 0 48 64;" xml:space="preserve">
<g id="Leg">
	<g>
		<path style="fill:#BFBFBF;" d="M22,24H10v38c0,1.104,0.896,2,2,2h14c1.104,0,2,0,2-2S22,24,22,24z"/>
	</g>
</g>
<g id="Sink">
	<g>
		<path style="fill:#D9D9D9;" d="M44.063,9.999c0,0-36.063,0-40.063,0s-4,2.001-4,4C0,20,8,28,24,28s24-12,24-14.001
			C48,12,48.125,9.999,44.063,9.999z"/>
	</g>
</g>
<g id="Faucet_1_">
	<g>
		<path style="fill:#B3B3B3;" d="M16,4C14,4,6,4,4,4c0,1.999,0,5.999,0,5.999h6C10,8,18,7,18,5.999C18,5,18,4,16,4z"/>
	</g>
</g>
<g id="Handle_9_">
	<g>
		<path style="fill:#999999;" d="M8,0H6C4.896,0,4,0.896,4,2s0.896,2,2,2h2c1.104,0,2-0.896,2-2S9.104,0,8,0z"/>
	</g>
</g>
<g>
</g>
<g>
</g>
<g>
</g>
<g>
</g>
<g>
</g>
<g>
</g>
<g>
</g>
<g>
</g>
<g>
</g>
<g>
</g>
<g>
</g>
<g>
</g>
<g>
</g>
<g>
</g>
<g>
</g>
</svg>
