<?xml version="1.0" encoding="iso-8859-1"?>
<!-- Generator: Adobe Illustrator 16.0.0, SVG Export Plug-In . SVG Version: 6.00 Build 0)  -->
<!DOCTYPE svg PUBLIC "-//W3C//DTD SVG 1.1//EN" "http://www.w3.org/Graphics/SVG/1.1/DTD/svg11.dtd">
<svg version="1.1" id="Layer_1" xmlns="http://www.w3.org/2000/svg" xmlns:xlink="http://www.w3.org/1999/xlink" x="0px" y="0px"
	 width="64px" height="64px" viewBox="0 0 64 64" style="enable-background:new 0 0 64 64;" xml:space="preserve">
<g id="Handle_25_">
	<g>
		<path style="fill-rule:evenodd;clip-rule:evenodd;fill:#A67C52;" d="M60,0c-2,0-4,0-8,4c-2,2-14,14-14,14l8,8c0,0,12-12,14-14
			c4-4,4-6,4-8S62,0,60,0z M58,8c-1.104,0-2-0.896-2-2s0.896-2,2-2s2,0.896,2,2S59.104,8,58,8z"/>
	</g>
</g>
<g id="Spatula_3_">
	<g>
		<path style="fill-rule:evenodd;clip-rule:evenodd;fill:#CCCCCC;" d="M44,24l-4-4L30,30c0,0-4-2-10-2C10,28,0,36,0,48
			c0,10,6,16,16,16c12,0,20-10,20-20c0-6-2-10-2-10L44,24z M6,52c-1.104,0-2-0.896-2-2s0.896-2,2-2s2,0.896,2,2S7.104,52,6,52z
			 M6,44c-1.104,0-2-0.896-2-2s0.896-2,2-2s2,0.896,2,2S7.104,44,6,44z M14,60c-1.104,0-2-0.896-2-2s0.896-2,2-2s2,0.896,2,2
			S15.104,60,14,60z M14,52c-1.104,0-2-0.896-2-2s0.896-2,2-2s2,0.896,2,2S15.104,52,14,52z M14,44c-1.104,0-2-0.896-2-2
			s0.896-2,2-2s2,0.896,2,2S15.104,44,14,44z M14,36c-1.104,0-2-0.896-2-2s0.896-2,2-2s2,0.896,2,2S15.104,36,14,36z M22,60
			c-1.104,0-2-0.896-2-2s0.896-2,2-2s2,0.896,2,2S23.104,60,22,60z M22,52c-1.104,0-2-0.896-2-2s0.896-2,2-2s2,0.896,2,2
			S23.104,52,22,52z M22,44c-1.104,0-2-0.896-2-2s0.896-2,2-2s2,0.896,2,2S23.104,44,22,44z M22,36c-1.104,0-2-0.896-2-2
			s0.896-2,2-2s2,0.896,2,2S23.104,36,22,36z M30,52c-1.104,0-2-0.896-2-2s0.896-2,2-2s2,0.896,2,2S31.104,52,30,52z M30,44
			c-1.104,0-2-0.896-2-2s0.896-2,2-2s2,0.896,2,2S31.104,44,30,44z"/>
	</g>
</g>
<g>
</g>
<g>
</g>
<g>
</g>
<g>
</g>
<g>
</g>
<g>
</g>
<g>
</g>
<g>
</g>
<g>
</g>
<g>
</g>
<g>
</g>
<g>
</g>
<g>
</g>
<g>
</g>
<g>
</g>
</svg>
