<?xml version="1.0" encoding="iso-8859-1"?>
<!-- Generator: Adobe Illustrator 16.0.0, SVG Export Plug-In . SVG Version: 6.00 Build 0)  -->
<!DOCTYPE svg PUBLIC "-//W3C//DTD SVG 1.1//EN" "http://www.w3.org/Graphics/SVG/1.1/DTD/svg11.dtd">
<svg version="1.1" id="Layer_1" xmlns="http://www.w3.org/2000/svg" xmlns:xlink="http://www.w3.org/1999/xlink" x="0px" y="0px"
	 width="40px" height="64px" viewBox="0 0 40 64" style="enable-background:new 0 0 40 64;" xml:space="preserve">
<g id="Body_16_">
	<g>
		<path style="fill:#88C057;" d="M28,16.001H12c-6,0-12,22.178-12,32C0,60,2,64,20,64c16,0,20-4,20-15.999
			C40,38.179,34,16.001,28,16.001z"/>
	</g>
</g>
<g id="Neck_1_">
	<g>
		<path style="fill:#CCCCCC;" d="M24,8h-8c-2.209,0-4,1.791-4,4v4.001h16V12C28,9.791,26.209,8,24,8z"/>
	</g>
</g>
<g id="Tube_1_">
	<g>
		<rect x="18" y="4" style="fill:#B3B3B3;" width="4" height="4"/>
	</g>
</g>
<g id="Head_7_">
	<g>
		<path style="fill:#CCCCCC;" d="M28,0H16c-1.104,0-2,0.896-2,2s0.896,2,2,2c0,0,10,0,12,0s2,2,4,2s2-1,2-2C34,2,32,0,28,0z"/>
	</g>
</g>
<g>
</g>
<g>
</g>
<g>
</g>
<g>
</g>
<g>
</g>
<g>
</g>
<g>
</g>
<g>
</g>
<g>
</g>
<g>
</g>
<g>
</g>
<g>
</g>
<g>
</g>
<g>
</g>
<g>
</g>
</svg>
