<?xml version="1.0" encoding="iso-8859-1"?>
<!-- Generator: Adobe Illustrator 16.0.0, SVG Export Plug-In . SVG Version: 6.00 Build 0)  -->
<!DOCTYPE svg PUBLIC "-//W3C//DTD SVG 1.1//EN" "http://www.w3.org/Graphics/SVG/1.1/DTD/svg11.dtd">
<svg version="1.1" id="Layer_1" xmlns="http://www.w3.org/2000/svg" xmlns:xlink="http://www.w3.org/1999/xlink" x="0px" y="0px"
	 width="64px" height="64px" viewBox="0 0 64 64" style="enable-background:new 0 0 64 64;" xml:space="preserve">
<g id="Handle_24_">
	<g>
		<path style="fill-rule:evenodd;clip-rule:evenodd;fill:#88C057;" d="M60,0c-2,0-4,0-8,4c-2,2-14,14-14,14l8,8c0,0,12-12,14-14
			c4-4,4-6,4-8S62,0,60,0z M58,8c-1.104,0-2-0.896-2-2s0.896-2,2-2s2,0.896,2,2S59.104,8,58,8z"/>
	</g>
</g>
<g id="Spatula_1_">
	<g>
		<path style="fill-rule:evenodd;clip-rule:evenodd;fill:#CCCCCC;" d="M44,24l-4-4l-8,8c-4-4-8-6-10-6S0,42,0,44s2,6,8,12s10,8,12,8
			s22-20,22-22s-2-6-6-10L44,24z M6,44c0-2,14-16,16-16c1,0,2,1,2,2c0,2-14,16-16,16C7,46,6,45,6,44z M12,50c0-2,14-16,16-16
			c1,0,2,1,2,2c0,2-14,16-16,16C13,52,12,51,12,50z M20,58c-1,0-2-1-2-2c0-2,14-16,16-16c1,0,2,1,2,2C36,44,22,58,20,58z"/>
	</g>
</g>
<g>
</g>
<g>
</g>
<g>
</g>
<g>
</g>
<g>
</g>
<g>
</g>
<g>
</g>
<g>
</g>
<g>
</g>
<g>
</g>
<g>
</g>
<g>
</g>
<g>
</g>
<g>
</g>
<g>
</g>
</svg>
