<?xml version="1.0" encoding="iso-8859-1"?>
<!-- Generator: Adobe Illustrator 16.0.0, SVG Export Plug-In . SVG Version: 6.00 Build 0)  -->
<!DOCTYPE svg PUBLIC "-//W3C//DTD SVG 1.1//EN" "http://www.w3.org/Graphics/SVG/1.1/DTD/svg11.dtd">
<svg version="1.1" id="Layer_1" xmlns="http://www.w3.org/2000/svg" xmlns:xlink="http://www.w3.org/1999/xlink" x="0px" y="0px"
	 width="32px" height="64px" viewBox="0 0 32 64" style="enable-background:new 0 0 32 64;" xml:space="preserve">
<g id="Bottle">
	<g>
		<path style="fill:#BAE3FF;" d="M24,20c-2,0-8,0-10,0c-1,0-2,1-2,2.125C12,26,16,24,16,28c0,6-14,8-14,18v14c0,2,2,4,4,4h20
			c2,0,6-2,6-16C32,28,26,20,24,20z"/>
	</g>
</g>
<g id="Label_3_">
	<g>
		<path style="fill:#FFFFFF;" d="M22,36c-4,0-14,6-14,10v10c0,1,1,2,2,2h12c2,0,4,0,4-10S24,36,22,36z"/>
	</g>
</g>
<g id="Nut_1_">
	<g>
		<rect x="14" y="14" style="fill:#48A0DC;" width="10" height="6"/>
	</g>
</g>
<g id="Trigger">
	<g>
		<path style="fill:#999999;" d="M10,8c0,2-8,7-8,8s1,2,2,2c2,0,10-6,10-8V8H10z"/>
	</g>
</g>
<g id="Spray">
	<g>
		<path style="fill:#CCCCCC;" d="M6,0v8c2,0,8,4,8,6h10c0-2,8-6,8-8S26,0,6,0z"/>
	</g>
</g>
<g id="Head_11_">
	<g>
		<path style="fill:#999999;" d="M2,0C0.896,0,0,0.895,0,2v4c0,1.104,0.896,2,2,2h4V0H2z"/>
	</g>
</g>
<g>
</g>
<g>
</g>
<g>
</g>
<g>
</g>
<g>
</g>
<g>
</g>
<g>
</g>
<g>
</g>
<g>
</g>
<g>
</g>
<g>
</g>
<g>
</g>
<g>
</g>
<g>
</g>
<g>
</g>
</svg>
