<?xml version="1.0" encoding="iso-8859-1"?>
<!-- Generator: Adobe Illustrator 16.0.0, SVG Export Plug-In . SVG Version: 6.00 Build 0)  -->
<!DOCTYPE svg PUBLIC "-//W3C//DTD SVG 1.1//EN" "http://www.w3.org/Graphics/SVG/1.1/DTD/svg11.dtd">
<svg version="1.1" id="Layer_1" xmlns="http://www.w3.org/2000/svg" xmlns:xlink="http://www.w3.org/1999/xlink" x="0px" y="0px"
	 width="60px" height="64px" viewBox="0 0 60 64" style="enable-background:new 0 0 60 64;" xml:space="preserve">
<g id="Body_49_">
	<g>
		<path style="fill:#FF8833;" d="M54,48H6c0,0-4,8-4,12c0,2,0,4,4,4c2,0,46,0,48,0c4,0,4-2,4-4C58,56,54,48,54,48z"/>
	</g>
</g>
<g id="Button_13_">
	<g>
		<circle style="fill:#666666;" cx="46" cy="56" r="2"/>
	</g>
</g>
<g id="Knob_5_">
	<g>
		<circle style="fill:#E6E6E6;" cx="30" cy="56" r="4"/>
	</g>
</g>
<g id="Base_12_">
	<g>
		<rect x="6" y="42" style="fill:#666666;" width="48" height="6"/>
	</g>
</g>
<g id="Pots">
	<g>
		<path style="fill-rule:evenodd;clip-rule:evenodd;fill:#CCCCCC;" d="M6,42h48l2-12H4L6,42z M54,26l2-12H4l2,12H54z"/>
	</g>
</g>
<g id="Separators">
	<g>
		<path style="fill-rule:evenodd;clip-rule:evenodd;fill:#999999;" d="M58,26H2c-1.104,0-2,0.895-2,2c0,1.104,0.896,2,2,2h56
			c1.104,0,2-0.896,2-2C60,26.895,59.104,26,58,26z M2,14h56c1.104,0,2-0.896,2-2s-0.896-2-2-2H2c-1.104,0-2,0.896-2,2
			S0.896,14,2,14z"/>
	</g>
</g>
<g id="Lid_5_">
	<g>
		<path style="fill:#CCCCCC;" d="M30,4C14,4,4,10,4,10h52C56,10,46,4,30,4z"/>
	</g>
</g>
<g id="Handle_36_">
	<g>
		<path style="fill:#666666;" d="M32,0h-4c-1.104,0-2,0.896-2,2s0.896,2,2,2h4c1.104,0,2-0.896,2-2S33.104,0,32,0z"/>
	</g>
</g>
<g>
</g>
<g>
</g>
<g>
</g>
<g>
</g>
<g>
</g>
<g>
</g>
<g>
</g>
<g>
</g>
<g>
</g>
<g>
</g>
<g>
</g>
<g>
</g>
<g>
</g>
<g>
</g>
<g>
</g>
</svg>
