<?xml version="1.0" encoding="iso-8859-1"?>
<!-- Generator: Adobe Illustrator 16.0.0, SVG Export Plug-In . SVG Version: 6.00 Build 0)  -->
<!DOCTYPE svg PUBLIC "-//W3C//DTD SVG 1.1//EN" "http://www.w3.org/Graphics/SVG/1.1/DTD/svg11.dtd">
<svg version="1.1" id="Layer_1" xmlns="http://www.w3.org/2000/svg" xmlns:xlink="http://www.w3.org/1999/xlink" x="0px" y="0px"
	 width="64px" height="60px" viewBox="0 0 64 60" style="enable-background:new 0 0 64 60;" xml:space="preserve">
<g id="Blade_2_">
	<g>
		<path style="fill:#CCCCCC;" d="M62,0c-2,0-2,4-24,6S0,10,0,12s2,8,2,8s26-6,32-6c4,0,4-4,4-4c18,0,26-6,26-8C64,1,63,0,62,0z"/>
	</g>
</g>
<g id="Handle_3_">
	<g>
		<path style="fill:#A67C52;" d="M52,0c-2,0-10,16-24,30S6,50,6,54s4,6,8,6S56,12,56,4C56,2,54,0,52,0z"/>
	</g>
</g>
<g id="Axe_3_">
	<g>
		<circle style="fill:#E6E6E6;" cx="52" cy="6" r="2"/>
	</g>
</g>
<g>
</g>
<g>
</g>
<g>
</g>
<g>
</g>
<g>
</g>
<g>
</g>
<g>
</g>
<g>
</g>
<g>
</g>
<g>
</g>
<g>
</g>
<g>
</g>
<g>
</g>
<g>
</g>
<g>
</g>
</svg>
