<?xml version="1.0" encoding="iso-8859-1"?>
<!-- Generator: Adobe Illustrator 16.0.0, SVG Export Plug-In . SVG Version: 6.00 Build 0)  -->
<!DOCTYPE svg PUBLIC "-//W3C//DTD SVG 1.1//EN" "http://www.w3.org/Graphics/SVG/1.1/DTD/svg11.dtd">
<svg version="1.1" id="Layer_1" xmlns="http://www.w3.org/2000/svg" xmlns:xlink="http://www.w3.org/1999/xlink" x="0px" y="0px"
	 width="64px" height="32px" viewBox="0 0 64 32" style="enable-background:new 0 0 64 32;" xml:space="preserve">
<g id="Legs_16_">
	<g>
		<path style="fill-rule:evenodd;clip-rule:evenodd;fill:#A67C52;" d="M56,4H8H4v26c0,1.104,0.896,2,2,2s2-0.896,2-2V20h48v10
			c0,1.104,0.896,2,2,2s2-0.896,2-2V4H56z M56,16H8v-4h48V16z"/>
	</g>
</g>
<g id="Top_2_">
	<g>
		<path style="fill:#E6AB70;" d="M62,0H2C0.896,0,0,0.896,0,2s0.896,2,2,2h60c1.104,0,2-0.896,2-2S63.104,0,62,0z"/>
	</g>
</g>
<g>
</g>
<g>
</g>
<g>
</g>
<g>
</g>
<g>
</g>
<g>
</g>
<g>
</g>
<g>
</g>
<g>
</g>
<g>
</g>
<g>
</g>
<g>
</g>
<g>
</g>
<g>
</g>
<g>
</g>
</svg>
