<?xml version="1.0" encoding="iso-8859-1"?>
<!-- Generator: Adobe Illustrator 16.0.0, SVG Export Plug-In . SVG Version: 6.00 Build 0)  -->
<!DOCTYPE svg PUBLIC "-//W3C//DTD SVG 1.1//EN" "http://www.w3.org/Graphics/SVG/1.1/DTD/svg11.dtd">
<svg version="1.1" id="Layer_1" xmlns="http://www.w3.org/2000/svg" xmlns:xlink="http://www.w3.org/1999/xlink" x="0px" y="0px"
	 width="64px" height="52px" viewBox="0 0 64 52" style="enable-background:new 0 0 64 52;" xml:space="preserve">
<g id="Handle_31_">
	<g>
		<path style="fill-rule:evenodd;clip-rule:evenodd;fill:#408EC2;" d="M54,16c-8,0-10,0-10,0v4c0,0,2,0,10,0c6,0,6,4,6,8s0,8-6,8
			c-4,0-10,0-10,0v4c0,0,6,0,10,0c8,0,10-6,10-12S62,16,54,16z"/>
	</g>
</g>
<g id="Teapot">
	<g>
		<path style="fill:#48A0DC;" d="M46,12c-1.812,0-25.968,0-28,0s-6,10-8,10s-4-2-4-2H0c0,8,8,12,8,16s8,16,12,16c4.074,0,20,0,24,0
			s12-12,12-20C56,22,48,12,46,12z"/>
	</g>
</g>
<g id="Lid_2_">
	<g>
		<path style="fill-rule:evenodd;clip-rule:evenodd;fill:#408EC2;" d="M33.993,6.064C33.994,6.042,34,6.022,34,6V2
			c0-1.105-0.896-2-2-2s-2,0.895-2,2v4c0,0.022,0.006,0.042,0.007,0.064C24.021,6.418,16,8.208,16,10c0,2,2,2,2,2h28c0,0,2,0,2-2
			C48,8.208,39.979,6.418,33.993,6.064z"/>
	</g>
</g>
<g>
</g>
<g>
</g>
<g>
</g>
<g>
</g>
<g>
</g>
<g>
</g>
<g>
</g>
<g>
</g>
<g>
</g>
<g>
</g>
<g>
</g>
<g>
</g>
<g>
</g>
<g>
</g>
<g>
</g>
</svg>
