<?xml version="1.0" encoding="iso-8859-1"?>
<!-- Generator: Adobe Illustrator 16.0.0, SVG Export Plug-In . SVG Version: 6.00 Build 0)  -->
<!DOCTYPE svg PUBLIC "-//W3C//DTD SVG 1.1//EN" "http://www.w3.org/Graphics/SVG/1.1/DTD/svg11.dtd">
<svg version="1.1" id="Layer_1" xmlns="http://www.w3.org/2000/svg" xmlns:xlink="http://www.w3.org/1999/xlink" x="0px" y="0px"
	 width="64px" height="52px" viewBox="0 0 64 52" style="enable-background:new 0 0 64 52;" xml:space="preserve">
<g id="Legs_21_">
	<g>
		<path style="fill-rule:evenodd;clip-rule:evenodd;fill:#CBCBCB;" d="M12,44H8c-2.209,0-4,1.791-4,4s1.791,4,4,4h4
			c2.209,0,4-1.791,4-4S14.209,44,12,44z M52,44h-4c-2.209,0-4,1.791-4,4s1.791,4,4,4h4c2.209,0,4-1.791,4-4S54.209,44,52,44z"/>
	</g>
</g>
<g id="Base_17_">
	<g>
		<path style="fill:#999999;" d="M58,40H2c-1.104,0-2,0.895-2,2v4c0,1.104,0.896,2,2,2h56c1.104,0,2-0.896,2-2v-4
			C60,40.895,59.104,40,58,40z"/>
	</g>
</g>
<g id="Bread">
	<g>
		<path style="fill:#F2CDA7;" d="M42,0c-4,0-8,2-12,2s-8-2-12-2c-2,0-4,0-4,2s2,22,4,22h24c2,0,4-20,4-22S44,0,42,0z"/>
	</g>
</g>
<g id="Button_17_">
	<g>
		<path style="fill:#999999;" d="M62,18h-8c-1.104,0-2,0.896-2,2s0.896,2,2,2h8c1.104,0,2-0.896,2-2S63.104,18,62,18z"/>
	</g>
</g>
<g id="Body_55_">
	<g>
		<path style="fill:#E6E6E6;" d="M42,8H18C9.163,8,2,15.163,2,24v16h56V24C58,15.163,50.836,8,42,8z"/>
	</g>
</g>
<g>
</g>
<g>
</g>
<g>
</g>
<g>
</g>
<g>
</g>
<g>
</g>
<g>
</g>
<g>
</g>
<g>
</g>
<g>
</g>
<g>
</g>
<g>
</g>
<g>
</g>
<g>
</g>
<g>
</g>
</svg>
