<?xml version="1.0" encoding="iso-8859-1"?>
<!-- Generator: Adobe Illustrator 16.0.0, SVG Export Plug-In . SVG Version: 6.00 Build 0)  -->
<!DOCTYPE svg PUBLIC "-//W3C//DTD SVG 1.1//EN" "http://www.w3.org/Graphics/SVG/1.1/DTD/svg11.dtd">
<svg version="1.1" id="Layer_1" xmlns="http://www.w3.org/2000/svg" xmlns:xlink="http://www.w3.org/1999/xlink" x="0px" y="0px"
	 width="64px" height="60px" viewBox="0 0 64 60" style="enable-background:new 0 0 64 60;" xml:space="preserve">
<g id="Axe_4_">
	<g>
		<polygon style="fill-rule:evenodd;clip-rule:evenodd;fill:#999999;" points="64,24 54,24 54,22 10,22 10,24 0,24 0,28 10,28 
			10,30 54,30 54,28 64,28 		"/>
	</g>
</g>
<g id="Support_2_">
	<g>
		<path style="fill-rule:evenodd;clip-rule:evenodd;fill:#A67C52;" d="M60,18v-4c0-4,0-6-4-6s-8.175-8-24-8C17.929,0,14,8,10,8
			s-6,2-6,6v4c-1.104,0-2,0.896-2,2v12c0,1.104,0.896,2,2,2h4c1.104,0,2-0.896,2-2V20c0-1.104-0.896-2-2-2c0-2,0-4,2-4c4,0,8-4,22-4
			s18.063,4,22,4c2,0,2,2,2,4c-1.104,0-2,0.896-2,2v12c0,1.104,0.896,2,2,2h4c1.104,0,2-0.896,2-2V20C62,18.896,61.104,18,60,18z"/>
	</g>
</g>
<g id="Paper">
	<g>
		<path style="fill:#E6E6E6;" d="M50,16H14c-1.104,0-2,0.895-2,2v40c0,1.104,0.896,2,2,2h26c2,0,12-10,12-12V18
			C52,16.895,51.104,16,50,16z"/>
	</g>
</g>
<g id="Fold">
	<g>
		<path style="fill:#CCCCCC;" d="M40,48c0,0,0,4,0,12c2,0,12-10,12-12C46,48,40,48,40,48z"/>
	</g>
</g>
<g>
</g>
<g>
</g>
<g>
</g>
<g>
</g>
<g>
</g>
<g>
</g>
<g>
</g>
<g>
</g>
<g>
</g>
<g>
</g>
<g>
</g>
<g>
</g>
<g>
</g>
<g>
</g>
<g>
</g>
</svg>
