<?xml version="1.0" encoding="iso-8859-1"?>
<!-- Generator: Adobe Illustrator 16.0.0, SVG Export Plug-In . SVG Version: 6.00 Build 0)  -->
<!DOCTYPE svg PUBLIC "-//W3C//DTD SVG 1.1//EN" "http://www.w3.org/Graphics/SVG/1.1/DTD/svg11.dtd">
<svg version="1.1" id="Layer_1" xmlns="http://www.w3.org/2000/svg" xmlns:xlink="http://www.w3.org/1999/xlink" x="0px" y="0px"
	 width="56px" height="64px" viewBox="0 0 56 64" style="enable-background:new 0 0 56 64;" xml:space="preserve">
<g id="Toilet_1_">
	<g>
		<path style="fill-rule:evenodd;clip-rule:evenodd;fill:#D9D9D9;" d="M56,32c0-1.104-0.896-2-2-2H14c1.104,0,2-0.896,2-2V4V2
			c0-1.104-0.896-2-2-2H2C0.896,0,0,0.896,0,2v2v24c0,1.104,0.896,2,2,2c-1.104,0-2,0.896-2,2c0,0,0,2.102,0,8c0,4,8,0,8,10
			c0,4-2,12-2,12c0,1.104,0.896,2,2,2h30c1.104,0,4,0,4-2s-4-8-4-10C38,48,56,46,56,32z"/>
	</g>
</g>
<g id="Seat">
	<g>
		<path style="fill:#99D962;" d="M52,21.999H22c-1.104,0-2,0.896-2,2.001c0,1.104,0.896,1.999,2,1.999h30c1.104,0,2-0.896,2-1.999
			C54,22.895,53.104,21.999,52,21.999z"/>
	</g>
</g>
<g id="Seat_1_">
	<g>
		<path style="fill:#87BF56;" d="M54,26H18c-1.104,0-2,0.896-2,2s0.896,2,2,2h36c1.104,0,2-0.896,2-2S55.104,26,54,26z"/>
	</g>
</g>
<g id="Handle_11_">
	<g>
		<path style="fill:#999999;" d="M6,6C4.896,6,4,6.895,4,8c0,1.104,0.896,2,2,2s6-0.896,6-2C12,6.895,7.104,6,6,6z"/>
	</g>
</g>
<g>
</g>
<g>
</g>
<g>
</g>
<g>
</g>
<g>
</g>
<g>
</g>
<g>
</g>
<g>
</g>
<g>
</g>
<g>
</g>
<g>
</g>
<g>
</g>
<g>
</g>
<g>
</g>
<g>
</g>
</svg>
