<?xml version="1.0" encoding="iso-8859-1"?>
<!-- Generator: Adobe Illustrator 16.0.0, SVG Export Plug-In . SVG Version: 6.00 Build 0)  -->
<!DOCTYPE svg PUBLIC "-//W3C//DTD SVG 1.1//EN" "http://www.w3.org/Graphics/SVG/1.1/DTD/svg11.dtd">
<svg version="1.1" id="Layer_1" xmlns="http://www.w3.org/2000/svg" xmlns:xlink="http://www.w3.org/1999/xlink" x="0px" y="0px"
	 width="64px" height="64px" viewBox="0 0 64 64" style="enable-background:new 0 0 64 64;" xml:space="preserve">
<g id="Brush_2_">
	<g>
		
			<rect x="46.515" y="8.757" transform="matrix(0.7071 -0.7071 0.7071 0.7071 6.9167 42.6985)" style="fill:#CCCCCC;" width="16.971" height="8.485"/>
	</g>
</g>
<g id="Handle_5_">
	<g>
		<path style="fill:#88C057;" d="M56,0c-2,0-4,2-6,4l-8,8c-2,2-4,4-4,6s0,4-2,6c0,0-32,32-34,34s-2,3-2,4s1,2,2,2s2,0,4-2
			s34-34,34-34c4-4,2-8,4-10L58,4C58,2,58,0,56,0z"/>
	</g>
</g>
<g>
</g>
<g>
</g>
<g>
</g>
<g>
</g>
<g>
</g>
<g>
</g>
<g>
</g>
<g>
</g>
<g>
</g>
<g>
</g>
<g>
</g>
<g>
</g>
<g>
</g>
<g>
</g>
<g>
</g>
</svg>
