<?xml version="1.0" encoding="iso-8859-1"?>
<!-- Generator: Adobe Illustrator 16.0.0, SVG Export Plug-In . SVG Version: 6.00 Build 0)  -->
<!DOCTYPE svg PUBLIC "-//W3C//DTD SVG 1.1//EN" "http://www.w3.org/Graphics/SVG/1.1/DTD/svg11.dtd">
<svg version="1.1" id="Layer_1" xmlns="http://www.w3.org/2000/svg" xmlns:xlink="http://www.w3.org/1999/xlink" x="0px" y="0px"
	 width="64px" height="64px" viewBox="0 0 64 64" style="enable-background:new 0 0 64 64;" xml:space="preserve">
<g id="Support_1_">
	<g>
		<path style="fill-rule:evenodd;clip-rule:evenodd;fill:#BFBFBF;" d="M56,0H8C3.582,0,0,3.581,0,8c0,4.418,3.582,8,8,8h48
			c4.418,0,8-3.582,8-8C64,3.581,60.418,0,56,0z M56,12H8c-2.209,0-4-1.791-4-4s1.791-4,4-4h48c2.209,0,4,1.791,4,4S58.209,12,56,12
			z"/>
	</g>
</g>
<g id="Towel">
	<g>
		<path style="fill:#FF8833;" d="M50,8H14c-2.209,0-4,1.791-4,4v48c0,2.209,1.791,4,4,4h36c2.209,0,4-1.791,4-4V12
			C54,9.791,52.209,8,50,8z"/>
	</g>
</g>
<g id="Lines">
	<g>
		<path style="fill-rule:evenodd;clip-rule:evenodd;fill:#FFCC66;" d="M10,56h44v-4H10V56z M10,44v4h44v-4H10z"/>
	</g>
</g>
<g>
</g>
<g>
</g>
<g>
</g>
<g>
</g>
<g>
</g>
<g>
</g>
<g>
</g>
<g>
</g>
<g>
</g>
<g>
</g>
<g>
</g>
<g>
</g>
<g>
</g>
<g>
</g>
<g>
</g>
</svg>
