<?xml version="1.0" encoding="iso-8859-1"?>
<!-- Generator: Adobe Illustrator 16.0.0, SVG Export Plug-In . SVG Version: 6.00 Build 0)  -->
<!DOCTYPE svg PUBLIC "-//W3C//DTD SVG 1.1//EN" "http://www.w3.org/Graphics/SVG/1.1/DTD/svg11.dtd">
<svg version="1.1" id="Layer_1" xmlns="http://www.w3.org/2000/svg" xmlns:xlink="http://www.w3.org/1999/xlink" x="0px" y="0px"
	 width="52px" height="63.999px" viewBox="0 0 52 63.999" style="enable-background:new 0 0 52 63.999;" xml:space="preserve">
<g id="Legs_5_">
	<g>
		<path style="fill-rule:evenodd;clip-rule:evenodd;fill:#CC6D29;" d="M10,52c-0.739,0-1.358,0.419-1.704,1.016l-4.001,8
			c0,0-0.295,0.618-0.295,0.983c0,1.105,0.896,2,2,2c0.739,0,1.357-0.419,1.704-1.016l4-8C11.875,54.688,12,54.365,12,53.999
			C12,52.895,11.104,52,10,52z M47.704,61.016l-4-8C43.357,52.419,42.739,52,42,52c-1.104,0-2,0.895-2,1.999
			c0,0.366,0.124,0.689,0.295,0.984l4.001,8c0.346,0.597,0.965,1.016,1.704,1.016c1.104,0,2-0.895,2-2
			C48,61.634,47.704,61.016,47.704,61.016z"/>
	</g>
</g>
<g id="Hammer">
	<g>
		<path style="fill-rule:evenodd;clip-rule:evenodd;fill:#999999;" d="M30,13.999h-8c-1.104,0-2,0.896-2,2s0.896,2,2,2h2V24h4
			v-6.001h2c1.104,0,2-0.896,2-2S31.104,13.999,30,13.999z"/>
	</g>
</g>
<g id="Handle_15_">
	<g>
		<path style="fill-rule:evenodd;clip-rule:evenodd;fill:#999999;" d="M46,13.999C42,11.999,48,0,26,0S10,11.999,6,13.999
			c-1.104,0-2,0.896-2,2s0.896,2,2,2c8,0,0-14,20-14s12,14,20,14c1.104,0,2-0.896,2-2S47.104,13.999,46,13.999z"/>
	</g>
</g>
<g id="Bell_Legs">
	<g>
		<path style="fill-rule:evenodd;clip-rule:evenodd;fill:#CC6D29;" d="M8,21.999l4,8L14,28l-4-8.001L8,21.999z M42,19.999L38,28
			l2,1.999l4-8L42,19.999z"/>
	</g>
</g>
<g id="Body_35_">
	<g>
		<circle style="fill:#FF8833;" cx="26" cy="41.999" r="22"/>
	</g>
</g>
<g id="Bells">
	<g>
		<path style="fill-rule:evenodd;clip-rule:evenodd;fill:#FF8833;" d="M12,13.999c-4,0-12,4-12,8S2,28,2,28l16-8.001
			C18,19.999,16,13.999,12,13.999z M40,13.999c-4,0-6,6-6,6L50,28c0,0,2-2.001,2-6.001S44,13.999,40,13.999z"/>
	</g>
</g>
<g id="Dial">
	<g>
		<circle style="fill:#E6E6E6;" cx="26" cy="42" r="18"/>
	</g>
</g>
<g id="Hands">
	<g>
		<path style="fill-rule:evenodd;clip-rule:evenodd;fill:#999999;" d="M40,40H28v-8c0-1.105-0.896-2.001-2-2.001
			c-1.105,0-2,0.896-2,2.001v9.999C24,43.104,24.895,44,26,44h14c1.104,0,2-0.896,2-2.001S41.104,40,40,40z"/>
	</g>
</g>
<g>
</g>
<g>
</g>
<g>
</g>
<g>
</g>
<g>
</g>
<g>
</g>
<g>
</g>
<g>
</g>
<g>
</g>
<g>
</g>
<g>
</g>
<g>
</g>
<g>
</g>
<g>
</g>
<g>
</g>
</svg>
