<?xml version="1.0" encoding="iso-8859-1"?>
<!-- Generator: Adobe Illustrator 16.0.0, SVG Export Plug-In . SVG Version: 6.00 Build 0)  -->
<!DOCTYPE svg PUBLIC "-//W3C//DTD SVG 1.1//EN" "http://www.w3.org/Graphics/SVG/1.1/DTD/svg11.dtd">
<svg version="1.1" id="Layer_1" xmlns="http://www.w3.org/2000/svg" xmlns:xlink="http://www.w3.org/1999/xlink" x="0px" y="0px"
	 width="40px" height="64px" viewBox="0 0 40 64" style="enable-background:new 0 0 40 64;" xml:space="preserve">
<g id="Sticks">
	<g>
		<polygon style="fill-rule:evenodd;clip-rule:evenodd;fill:#A67C52;" points="28,58 21.614,28.627 24,0 20,4 18.964,16.434 18,12 
			14,8 18.096,26.844 16,52 20,48 20.747,39.036 24,54 		"/>
	</g>
</g>
<g id="Vase">
	<g>
		<path style="fill:#48A0DC;" d="M40,48c0-12-16-6-16-24v-4c0-1-1-2-2-2h-4c-1,0-2,1-2,2v4C16,42,0,36,0,48c0,10,10,12,10,12
			s-2,0-2,2s2,2,2,2h20c0,0,2,0,2-2s-2-2-2-2S40,58,40,48z"/>
	</g>
</g>
<g>
</g>
<g>
</g>
<g>
</g>
<g>
</g>
<g>
</g>
<g>
</g>
<g>
</g>
<g>
</g>
<g>
</g>
<g>
</g>
<g>
</g>
<g>
</g>
<g>
</g>
<g>
</g>
<g>
</g>
</svg>
