<?xml version="1.0" encoding="iso-8859-1"?>
<!-- Generator: Adobe Illustrator 16.0.0, SVG Export Plug-In . SVG Version: 6.00 Build 0)  -->
<!DOCTYPE svg PUBLIC "-//W3C//DTD SVG 1.1//EN" "http://www.w3.org/Graphics/SVG/1.1/DTD/svg11.dtd">
<svg version="1.1" id="Layer_1" xmlns="http://www.w3.org/2000/svg" xmlns:xlink="http://www.w3.org/1999/xlink" x="0px" y="0px"
	 width="56px" height="64px" viewBox="0 0 56 64" style="enable-background:new 0 0 56 64;" xml:space="preserve">
<g id="Body_26_">
	<g>
		<path style="fill:#E6E6E6;" d="M52,0H4C1.791,0,0,1.791,0,4v56c0,2.21,1.791,4,4,4h48c2.209,0,4-1.79,4-4V4
			C56,1.791,54.209,0,52,0z"/>
	</g>
</g>
<g id="Tray">
	<g>
		<path style="fill:#CCCCCC;" d="M16,4H8C6.895,4,6,4.896,6,6v4c0,1.104,0.896,2,2,2h8c1.104,0,2-0.896,2-2V6
			C18,4.896,17.104,4,16,4z"/>
	</g>
</g>
<g id="Knobs">
	<g>
		<path style="fill-rule:evenodd;clip-rule:evenodd;fill:#999999;" d="M28,6c-1.104,0-2,0.896-2,2s0.896,2,2,2s2-0.896,2-2
			S29.104,6,28,6z M36,6c-1.105,0-2,0.896-2,2s0.896,2,2,2c1.104,0,2-0.896,2-2S37.104,6,36,6z M46,4c-2.209,0-4,1.791-4,4
			c0,2.21,1.791,4,4,4c2.209,0,4-1.79,4-4C50,5.791,48.209,4,46,4z"/>
	</g>
</g>
<g id="Door">
	<g>
		<circle style="fill:#B3B3B3;" cx="28" cy="36" r="20"/>
	</g>
</g>
<g id="Door_6_">
	<g>
		<circle style="fill:#666666;" cx="28" cy="36" r="16"/>
	</g>
</g>
<g id="Door_2_">
	<g>
		<path style="fill:#BAE3FF;" d="M28,24c-6.627,0-12,5.373-12,12c0,6.628,5.373,12,12,12c4.179,0,8-2,10-6V30C36,26,32.179,24,28,24
			z"/>
	</g>
</g>
<g id="Handle_14_">
	<g>
		<path style="fill:#B3B3B3;" d="M38,30c0,0-4,1.582-4,6c0,4.419,4,6,4,6s2,0,2-2v-8C40,30,38,30,38,30z"/>
	</g>
</g>
<g>
</g>
<g>
</g>
<g>
</g>
<g>
</g>
<g>
</g>
<g>
</g>
<g>
</g>
<g>
</g>
<g>
</g>
<g>
</g>
<g>
</g>
<g>
</g>
<g>
</g>
<g>
</g>
<g>
</g>
</svg>
