<?xml version="1.0" encoding="iso-8859-1"?>
<!-- Generator: Adobe Illustrator 16.0.0, SVG Export Plug-In . SVG Version: 6.00 Build 0)  -->
<!DOCTYPE svg PUBLIC "-//W3C//DTD SVG 1.1//EN" "http://www.w3.org/Graphics/SVG/1.1/DTD/svg11.dtd">
<svg version="1.1" id="Layer_1" xmlns="http://www.w3.org/2000/svg" xmlns:xlink="http://www.w3.org/1999/xlink" x="0px" y="0px"
	 width="60px" height="64px" viewBox="0 0 60 64" style="enable-background:new 0 0 60 64;" xml:space="preserve">
<g id="Base_8_">
	<g>
		<path style="fill:#666666;" d="M4,60v2c0,1.104,0.896,2,2,2h36c1.104,0,2-0.896,2-2v-2H4z"/>
	</g>
</g>
<g id="Handle_32_">
	<g>
		<path style="fill-rule:evenodd;clip-rule:evenodd;fill:#666666;" d="M38,8v8c12,0,16,6,16,14s-4,20-16,20v4c14,0,22-12,22-24
			S52,8,38,8z"/>
	</g>
</g>
<g id="Pourer">
	<g>
		<path style="fill:#E6E6E6;" d="M0,8c0,8,6,14,8,14h4V8H0z"/>
	</g>
</g>
<g id="Body_46_">
	<g>
		<path style="fill:#CCCCCC;" d="M38,8H10c0,0-6,14-6,52h40C44,22,38,8,38,8z"/>
	</g>
</g>
<g id="Lid_3_">
	<g>
		<path style="fill-rule:evenodd;clip-rule:evenodd;fill:#666666;" d="M42,2c-1.801,0-5.209,1.608-7.333,1.932
			C32.414,1.955,28.942,0,24,0C14,0,10,8,10,8h24h4c0.735,0,1.445,0,2,0c2,0,4-2,4-4S44,2,42,2z"/>
	</g>
</g>
<g id="Level">
	<g>
		<path style="fill:#E6E6E6;" d="M26,18h-4c-1.104,0-2,0.896-2,2v18h8V20C28,18.896,27.104,18,26,18z"/>
	</g>
</g>
<g id="Level_1_">
	<g>
		<path style="fill:#BAE3FF;" d="M20,38v10c0,1.104,0.896,2,2,2h4c1.104,0,2-0.896,2-2V38H20z"/>
	</g>
</g>
<g>
</g>
<g>
</g>
<g>
</g>
<g>
</g>
<g>
</g>
<g>
</g>
<g>
</g>
<g>
</g>
<g>
</g>
<g>
</g>
<g>
</g>
<g>
</g>
<g>
</g>
<g>
</g>
<g>
</g>
</svg>
