<?xml version="1.0" encoding="iso-8859-1"?>
<!-- Generator: Adobe Illustrator 16.0.0, SVG Export Plug-In . SVG Version: 6.00 Build 0)  -->
<!DOCTYPE svg PUBLIC "-//W3C//DTD SVG 1.1//EN" "http://www.w3.org/Graphics/SVG/1.1/DTD/svg11.dtd">
<svg version="1.1" id="Layer_1" xmlns="http://www.w3.org/2000/svg" xmlns:xlink="http://www.w3.org/1999/xlink" x="0px" y="0px"
	 width="64px" height="56px" viewBox="0 0 64 56" style="enable-background:new 0 0 64 56;" xml:space="preserve">
<g id="Handle_1_">
	<g>
		<path style="fill:#B3B3B3;" d="M54,40c0,0,10-14,10-24C64,4,58,0,52,0C38,0,38,10,38,10h4c0,0,0-6,10-6c6,0,8,6,8,12s-6,16-6,16
			V40z"/>
	</g>
</g>
<g id="Sprinkler">
	<g>
		<path style="fill:#B3B3B3;" d="M10,26c0,0,2-2,2-4s-2-2-2-2L0,30c0,0,0,2,2,2s4-2,4-2l14,22h14L10,26z"/>
	</g>
</g>
<g id="Cover">
	<g>
		<path style="fill:#B3B3B3;" d="M42,10h-4c-8,0-14,6-14,6h20L42,10z"/>
	</g>
</g>
<g id="Bucket">
	<g>
		<path style="fill:#CCCCCC;" d="M52,16H24c0,0-4,36-4,38s2,2,4,2s26,0,28,0s4,0,4-2S52,16,52,16z"/>
	</g>
</g>
<g>
</g>
<g>
</g>
<g>
</g>
<g>
</g>
<g>
</g>
<g>
</g>
<g>
</g>
<g>
</g>
<g>
</g>
<g>
</g>
<g>
</g>
<g>
</g>
<g>
</g>
<g>
</g>
<g>
</g>
</svg>
