<?xml version="1.0" encoding="iso-8859-1"?>
<!-- Generator: Adobe Illustrator 16.0.0, SVG Export Plug-In . SVG Version: 6.00 Build 0)  -->
<!DOCTYPE svg PUBLIC "-//W3C//DTD SVG 1.1//EN" "http://www.w3.org/Graphics/SVG/1.1/DTD/svg11.dtd">
<svg version="1.1" id="Layer_1" xmlns="http://www.w3.org/2000/svg" xmlns:xlink="http://www.w3.org/1999/xlink" x="0px" y="0px"
	 width="64px" height="64px" viewBox="0 0 64 64" style="enable-background:new 0 0 64 64;" xml:space="preserve">
<g id="Handle_23_">
	<g>
		<path style="fill-rule:evenodd;clip-rule:evenodd;fill:#FFCC66;" d="M60,0c-2,0-4,0-8,4c-2,2-14,14-14,14l8,8c0,0,12-12,14-14
			c4-4,4-6,4-8S62,0,60,0z M58,8c-1.104,0-2-0.896-2-2s0.896-2,2-2s2,0.896,2,2S59.104,8,58,8z"/>
	</g>
</g>
<g id="Shape_1">
	<g>
		<path style="fill-rule:evenodd;clip-rule:evenodd;fill:#CCCCCC;" d="M44,24l-4-4l-1.369,1.37C37.573,20.552,36.604,20,36,20
			c-1,0-2,1-2,2c0,0.604,0.552,1.573,1.369,2.63L34,26c0,0-4,0-12,4S0,42,0,54c0,6,4.063,10,10,10c12,0,20-14,24-22s4-12,4-12
			l1.369-1.37C40.427,29.448,41.396,30,42,30c1,0,2-1,2-2c0-0.604-0.552-1.573-1.369-2.63L44,24z M12,40c8-6,18-10,18-10S8,46,4,54
			C4,54,4,46,12,40z M6,58c2-6,26-26,26-26S12,56,6,58z M24,52c-6,8-14,8-14,8c8-4,24-26,24-26S30,44,24,52z"/>
	</g>
</g>
<g>
</g>
<g>
</g>
<g>
</g>
<g>
</g>
<g>
</g>
<g>
</g>
<g>
</g>
<g>
</g>
<g>
</g>
<g>
</g>
<g>
</g>
<g>
</g>
<g>
</g>
<g>
</g>
<g>
</g>
</svg>
