<?xml version="1.0" encoding="iso-8859-1"?>
<!-- Generator: Adobe Illustrator 16.0.0, SVG Export Plug-In . SVG Version: 6.00 Build 0)  -->
<!DOCTYPE svg PUBLIC "-//W3C//DTD SVG 1.1//EN" "http://www.w3.org/Graphics/SVG/1.1/DTD/svg11.dtd">
<svg version="1.1" id="Layer_1" xmlns="http://www.w3.org/2000/svg" xmlns:xlink="http://www.w3.org/1999/xlink" x="0px" y="0px"
	 width="63.985px" height="65.999px" viewBox="0 0 63.985 65.999" style="enable-background:new 0 0 63.985 65.999;"
	 xml:space="preserve">
<g id="Ball">
	<g>
		<path style="fill-rule:evenodd;clip-rule:evenodd;fill:#CCCCCC;" d="M42.018,1.999C42.016,1.999,42.014,2,42.011,2
			c-4.415,0.003-7.993,3.583-7.993,8c0,4.418,3.582,8,8,8c1.104,0,2-3.582,2-8.001C44.018,5.581,43.122,1.999,42.018,1.999z"/>
	</g>
</g>
<g id="Pole">
	<g>
		<path style="fill:#48A0DC;" d="M31.986,7.999c-2.209,0-4,1.791-4,4V62c0,2.208,1.791,3.999,4,3.999s4-1.791,4-3.999V11.999
			C35.986,9.79,34.195,7.999,31.986,7.999z"/>
	</g>
</g>
<g id="Pole_1_">
	<g>
		<rect x="6.018" y="8" style="fill:#999999;" width="48" height="4"/>
	</g>
</g>
<g id="Ball_5_">
	<g>
		<path style="fill:#999999;" d="M56.003,2.005c-4.416,0.007-8.001,3.585-8.007,7.993c-0.007,4.407,3.566,7.976,7.982,7.969
			c4.415-0.007,8-3.586,8.007-7.993C63.992,5.565,60.418,1.998,56.003,2.005z"/>
	</g>
</g>
<g id="Ball_2_">
	<g>
		<path style="fill:#999999;" d="M7.991,1.999C3.564,1.986-0.014,5.551,0,9.963s3.612,7.999,8.04,8.013
			c4.427,0.013,8.005-3.553,7.991-7.964C16.018,5.6,12.419,2.013,7.991,1.999z"/>
	</g>
</g>
<g id="Ball_3_">
	<g>
		<path style="fill-rule:evenodd;clip-rule:evenodd;fill:#666666;" d="M22.018,1.999c-1.105,0-2,3.582-2,8
			c0,4.419,0.895,8.001,2,8.001c4.418,0,8-3.582,8-8.001C30.018,5.581,26.436,1.999,22.018,1.999z"/>
	</g>
</g>
<g>
</g>
<g>
</g>
<g>
</g>
<g>
</g>
<g>
</g>
<g>
</g>
<g>
</g>
<g>
</g>
<g>
</g>
<g>
</g>
<g>
</g>
<g>
</g>
<g>
</g>
<g>
</g>
<g>
</g>
</svg>
