<?xml version="1.0" encoding="iso-8859-1"?>
<!-- Generator: Adobe Illustrator 16.0.0, SVG Export Plug-In . SVG Version: 6.00 Build 0)  -->
<!DOCTYPE svg PUBLIC "-//W3C//DTD SVG 1.1//EN" "http://www.w3.org/Graphics/SVG/1.1/DTD/svg11.dtd">
<svg version="1.1" id="Layer_1" xmlns="http://www.w3.org/2000/svg" xmlns:xlink="http://www.w3.org/1999/xlink" x="0px" y="0px"
	 width="48px" height="63.999px" viewBox="0 0 48 63.999" style="enable-background:new 0 0 48 63.999;" xml:space="preserve">
<g id="Leg">
	<g>
		<path style="fill:#666666;" d="M24,40c-2.209,0-4,1.79-4,4v15.999c0,2.21,1.791,4,4,4s4-1.79,4-4V44C28,41.79,26.209,40,24,40z"/>
	</g>
</g>
<g id="Stand">
	<g>
		<path style="fill:#CCCCCC;" d="M36,56H12c-2.209,0-4,1.791-4,3.999c0,2.21,1.791,4,4,4h24c2.209,0,4-1.79,4-4
			C40,57.791,38.209,56,36,56z"/>
	</g>
</g>
<g id="Watch_Frame">
	<g>
		<circle style="fill:#CCCCCC;" cx="24" cy="24" r="24"/>
	</g>
</g>
<g id="Container">
	<g>
		<circle style="fill:#FFFFFF;" cx="24" cy="24" r="20"/>
	</g>
</g>
<g id="Hand">
	<g>
		<path style="fill:#CECECE;" d="M25.421,22.566l-9.988-9.988c-0.788-0.788-2.066-0.788-2.854,0s-0.788,2.066,0,2.854l9.989,9.988
			c0.788,0.788,2.065,0.788,2.854,0S26.209,23.355,25.421,22.566z"/>
	</g>
</g>
<g id="Hand_3_">
	<g>
		<path style="fill:#CECECE;" d="M33.694,34.98l-7.539-12.004c-0.595-0.947-1.938-1.258-3.002-0.693s-1.442,1.789-0.848,2.735
			l7.539,12.004c0.595,0.947,1.938,1.258,3.002,0.693C33.909,37.152,34.289,35.928,33.694,34.98z"/>
	</g>
</g>
<g id="Hand_2_">
	<g>
		<path style="fill:#ED7161;" d="M37.749,15.094c-0.565-1.074-1.795-1.458-2.746-0.856l-12.048,7.617
			c-0.951,0.601-1.263,1.959-0.696,3.033c0.565,1.074,1.795,1.457,2.746,0.856l12.048-7.617
			C38.004,17.525,38.315,16.168,37.749,15.094z"/>
	</g>
</g>
<g id="Dot">
	<g>
		<circle style="fill:#666666;" cx="24" cy="24" r="4"/>
	</g>
</g>
<g>
</g>
<g>
</g>
<g>
</g>
<g>
</g>
<g>
</g>
<g>
</g>
<g>
</g>
<g>
</g>
<g>
</g>
<g>
</g>
<g>
</g>
<g>
</g>
<g>
</g>
<g>
</g>
<g>
</g>
</svg>
