<?xml version="1.0" encoding="iso-8859-1"?>
<!-- Generator: Adobe Illustrator 16.0.0, SVG Export Plug-In . SVG Version: 6.00 Build 0)  -->
<!DOCTYPE svg PUBLIC "-//W3C//DTD SVG 1.1//EN" "http://www.w3.org/Graphics/SVG/1.1/DTD/svg11.dtd">
<svg version="1.1" id="Layer_1" xmlns="http://www.w3.org/2000/svg" xmlns:xlink="http://www.w3.org/1999/xlink" x="0px" y="0px"
	 width="64px" height="32px" viewBox="0 0 64 32" style="enable-background:new 0 0 64 32;" xml:space="preserve">
<g id="Calm_Wind">
	<g>
		<path style="fill-rule:evenodd;clip-rule:evenodd;fill:#54BBFF;" d="M40,16c0-2.209-1.791-4-4-4H4c-2.209,0-4,1.791-4,4
			s1.791,4,4,4h32C38.209,20,40,18.209,40,16z M56,24H24c-2.209,0-4,1.791-4,4s1.791,4,4,4h32c2.209,0,4-1.791,4-4S58.209,24,56,24z
			 M16,8h32c2.209,0,4-1.791,4-4c0-2.21-1.791-4-4-4H16c-2.209,0-4,1.79-4,4C12,6.209,13.791,8,16,8z M60,12H48
			c-2.209,0-4,1.791-4,4s1.791,4,4,4h12c2.209,0,4-1.791,4-4S62.209,12,60,12z"/>
	</g>
</g>
<g>
</g>
<g>
</g>
<g>
</g>
<g>
</g>
<g>
</g>
<g>
</g>
<g>
</g>
<g>
</g>
<g>
</g>
<g>
</g>
<g>
</g>
<g>
</g>
<g>
</g>
<g>
</g>
<g>
</g>
</svg>
