<?xml version="1.0" encoding="iso-8859-1"?>
<!-- Generator: Adobe Illustrator 16.0.0, SVG Export Plug-In . SVG Version: 6.00 Build 0)  -->
<!DOCTYPE svg PUBLIC "-//W3C//DTD SVG 1.1//EN" "http://www.w3.org/Graphics/SVG/1.1/DTD/svg11.dtd">
<svg version="1.1" id="Layer_1" xmlns="http://www.w3.org/2000/svg" xmlns:xlink="http://www.w3.org/1999/xlink" x="0px" y="0px"
	 width="56px" height="64px" viewBox="0 0 56 64" style="enable-background:new 0 0 56 64;" xml:space="preserve">
<g id="Celsius">
	<g>
		<path style="fill-rule:evenodd;clip-rule:evenodd;fill:#ED7161;" d="M52,44c-2.21,0-4,1.79-4,4c0,4.418-3.582,8-8,8
			c-4.419,0-8-3.582-8-8V34.157v-4.315V16c0-4.418,3.581-8,8-8c4.418,0,8,3.582,8,8c0,2.209,1.79,4,4,4c2.209,0,4-1.791,4-4
			c0-8.837-7.164-16-16-16c-8.83,0-15.987,7.151-15.999,15.979c0,0.007-0.002,0.014-0.002,0.021V48c0,0.007,0.002,0.013,0.002,0.02
			C24.012,56.846,31.169,64,40,64c8.836,0,16-7.164,16-16C56,45.79,54.209,44,52,44z"/>
	</g>
</g>
<g id="Degree">
	<g>
		<path style="fill-rule:evenodd;clip-rule:evenodd;fill:#EDA096;" d="M10,0C4.477,0,0,4.477,0,10c0,5.522,4.477,10,10,10
			c5.522,0,10-4.478,10-10C20,4.477,15.522,0,10,0z M10,14c-2.21,0-4-1.791-4-4s1.79-4,4-4c2.209,0,4,1.791,4,4S12.209,14,10,14z"/>
	</g>
</g>
<g>
</g>
<g>
</g>
<g>
</g>
<g>
</g>
<g>
</g>
<g>
</g>
<g>
</g>
<g>
</g>
<g>
</g>
<g>
</g>
<g>
</g>
<g>
</g>
<g>
</g>
<g>
</g>
<g>
</g>
</svg>
