<?xml version="1.0" encoding="iso-8859-1"?>
<!-- Generator: Adobe Illustrator 16.0.0, SVG Export Plug-In . SVG Version: 6.00 Build 0)  -->
<!DOCTYPE svg PUBLIC "-//W3C//DTD SVG 1.1//EN" "http://www.w3.org/Graphics/SVG/1.1/DTD/svg11.dtd">
<svg version="1.1" id="Layer_1" xmlns="http://www.w3.org/2000/svg" xmlns:xlink="http://www.w3.org/1999/xlink" x="0px" y="0px"
	 width="24px" height="74px" viewBox="0 0 24 74" style="enable-background:new 0 0 24 74;" xml:space="preserve">
<g id="Stick_1_">
	<g>
		<path style="fill:#CCCCCC;" d="M14,0c-1.104,0-2,0.895-2,2v52c0,3.313-0.687,6-4,6s-4-2.687-4-6c0-1.104-0.896-2-2-2s-2,0.896-2,2
			c0,5.522,2.477,9.999,8,9.999c5.522,0,8-4.477,8-9.999V2C16,0.895,15.104,0,14,0z"/>
	</g>
</g>
<g id="Umbrella_3_">
	<g>
		<path style="fill-rule:evenodd;clip-rule:evenodd;fill:#9B7CAB;" d="M14,4C9.595,4,6.023,18.326,6.023,36h15.953
			C21.977,18.326,18.405,4,14,4z"/>
	</g>
</g>
<g id="Umbrella_4_">
	<g>
		<path style="fill:#846A91;" d="M22,36H6L4,46c6.229-1.65,7.5,2,7.5,2c2.782-4.396,5,0,5,0c3.629-2.903,7.5-2,7.5-2L22,36z"/>
	</g>
</g>
<g>
</g>
<g>
</g>
<g>
</g>
<g>
</g>
<g>
</g>
<g>
</g>
<g>
</g>
<g>
</g>
<g>
</g>
<g>
</g>
<g>
</g>
<g>
</g>
<g>
</g>
<g>
</g>
<g>
</g>
</svg>
