<?xml version="1.0" encoding="iso-8859-1"?>
<!-- Generator: Adobe Illustrator 16.0.0, SVG Export Plug-In . SVG Version: 6.00 Build 0)  -->
<!DOCTYPE svg PUBLIC "-//W3C//DTD SVG 1.1//EN" "http://www.w3.org/Graphics/SVG/1.1/DTD/svg11.dtd">
<svg version="1.1" id="Layer_1" xmlns="http://www.w3.org/2000/svg" xmlns:xlink="http://www.w3.org/1999/xlink" x="0px" y="0px"
	 width="64px" height="63.987px" viewBox="0 0 64 63.987" style="enable-background:new 0 0 64 63.987;" xml:space="preserve">
<g id="Label">
	<g>
		<path style="fill:#FFCC66;" d="M60,0H4C1.791,0,0,1.79,0,3.999v55.988c0,2.209,1.791,4,4,4h56c2.209,0,4-1.791,4-4V3.999
			C64,1.79,62.209,0,60,0z"/>
	</g>
</g>
<g id="D">
	<g>
		<path style="fill-rule:evenodd;clip-rule:evenodd;fill:#FFFFFF;" d="M21,7.998c-0.225,0-0.447,0.013-0.666,0.033
			C20.225,8.014,20.114,7.998,20,7.998h-4c-1.104,0-2,0.896-2,1.999v5v5.998v4.999c0,1.104,0.896,2,2,2h4
			c0.133,0,0.262-0.015,0.388-0.039c0.203,0.018,0.405,0.039,0.612,0.039c3.866,0,7-3.134,7-6.999v-5.998
			C28,11.132,24.866,7.998,21,7.998z M24,20.995c0,1.634-1.31,2.958-2.935,2.993L20,23.989v0.006h-2v-0.003V11.997v-0.003
			l2.867-0.005c0.044,0.002,0.088,0.008,0.133,0.008c1.656,0,3,1.343,3,3V20.995z"/>
	</g>
</g>
<g id="U">
	<g>
		<path style="fill-rule:evenodd;clip-rule:evenodd;fill:#FFFFFF;" d="M48,7.998c-1.104,0-2,0.896-2,1.999v1.937v3.063v0.999v3.999
			v1c0,1.656-1.344,3-3,3c-1.657,0-3-1.344-3-3v-1v-3.999v-0.999v-3.081V9.997c0-1.104-0.896-1.999-2-1.999s-2,0.896-2,1.999v5
			v4.998v1c0,3.865,3.134,6.999,7,6.999c3.865,0,7-3.134,7-6.999v-1v-4.998v-5C50,8.894,49.104,7.998,48,7.998z"/>
	</g>
</g>
<g id="S">
	<g>
		<path style="fill-rule:evenodd;clip-rule:evenodd;fill:#FFFFFF;" d="M20,41.991c-2.209,0-4-0.895-4-2c0-1.104,1.791-2,4-2
			s4,0.896,4,2c0,1.104,0.895,2,2,2c1.104,0,2-0.896,2-2c0-3.313-3.582-5.998-8-5.998s-8,2.686-8,5.998c0,3.313,3.582,5.999,8,5.999
			c2.209,0,4,0.896,4,2c0,1.104-1.791,1.999-4,1.999s-4-0.896-4-1.999c0-1.104-0.896-2-2-2c-1.105,0-2,0.896-2,2
			c0,3.313,3.581,5.999,8,5.999c4.418,0,8-2.687,8-5.999C28,44.677,24.418,41.991,20,41.991z"/>
	</g>
</g>
<g id="T">
	<g>
		<path style="fill-rule:evenodd;clip-rule:evenodd;fill:#FFFFFF;" d="M48,33.993h-8c-1.104,0-2,0.895-2,1.999s0.896,2,2,2h2v13.997
			c0,1.104,0.896,2,2,2s2-0.896,2-2V37.992h2c1.104,0,2-0.896,2-2S49.104,33.993,48,33.993z"/>
	</g>
</g>
<g>
</g>
<g>
</g>
<g>
</g>
<g>
</g>
<g>
</g>
<g>
</g>
<g>
</g>
<g>
</g>
<g>
</g>
<g>
</g>
<g>
</g>
<g>
</g>
<g>
</g>
<g>
</g>
<g>
</g>
</svg>
