<?xml version="1.0" encoding="iso-8859-1"?>
<!-- Generator: Adobe Illustrator 16.0.0, SVG Export Plug-In . SVG Version: 6.00 Build 0)  -->
<!DOCTYPE svg PUBLIC "-//W3C//DTD SVG 1.1//EN" "http://www.w3.org/Graphics/SVG/1.1/DTD/svg11.dtd">
<svg version="1.1" id="Layer_1" xmlns="http://www.w3.org/2000/svg" xmlns:xlink="http://www.w3.org/1999/xlink" x="0px" y="0px"
	 width="56.001px" height="64px" viewBox="0 0 56.001 64" style="enable-background:new 0 0 56.001 64;" xml:space="preserve">
<g id="Fahrenheit">
	<g>
		<path style="fill-rule:evenodd;clip-rule:evenodd;fill:#ED7161;" d="M52.001,0h-24c-2.21,0-4,1.79-4,4v56c0,2.209,1.79,4,4,4
			c2.209,0,4-1.791,4-4V36h16c2.209,0,4-1.791,4-4s-1.791-4.001-4-4.001h-16V8h20c2.209,0,4-1.791,4-4C56.001,1.79,54.21,0,52.001,0
			z"/>
	</g>
</g>
<g id="Degree_1_">
	<g>
		<path style="fill-rule:evenodd;clip-rule:evenodd;fill:#EDA096;" d="M10.001,0C4.478,0,0,4.477,0,10c0,5.522,4.478,10,10.001,10
			c5.522,0,10-4.478,10-10C20.001,4.477,15.523,0,10.001,0z M10.001,14c-2.21,0-4-1.791-4-4s1.79-4,4-4c2.209,0,4,1.791,4,4
			S12.21,14,10.001,14z"/>
	</g>
</g>
<g>
</g>
<g>
</g>
<g>
</g>
<g>
</g>
<g>
</g>
<g>
</g>
<g>
</g>
<g>
</g>
<g>
</g>
<g>
</g>
<g>
</g>
<g>
</g>
<g>
</g>
<g>
</g>
<g>
</g>
</svg>
