<?xml version="1.0" encoding="iso-8859-1"?>
<!-- Generator: Adobe Illustrator 16.0.0, SVG Export Plug-In . SVG Version: 6.00 Build 0)  -->
<!DOCTYPE svg PUBLIC "-//W3C//DTD SVG 1.1//EN" "http://www.w3.org/Graphics/SVG/1.1/DTD/svg11.dtd">
<svg version="1.1" id="Layer_1" xmlns="http://www.w3.org/2000/svg" xmlns:xlink="http://www.w3.org/1999/xlink" x="0px" y="0px"
	 width="64px" height="45.994px" viewBox="0 0 64 45.994" style="enable-background:new 0 0 64 45.994;" xml:space="preserve">
<g id="Water_1_">
	<g>
		<path style="fill-rule:evenodd;clip-rule:evenodd;fill:#54BBFF;" d="M63.496,30.683c-1.527-1.723-3.58-2.67-5.779-2.67
			c-0.002,0-0.002,0-0.002,0c-2.199,0-4.254,0.947-5.783,2.668c-0.76,0.857-1.752,1.328-2.791,1.328c0,0,0,0-0.002,0
			c-1.037-0.001-2.025-0.471-2.783-1.328c-1.531-1.721-3.584-2.668-5.783-2.668c0,0,0,0-0.002,0c-2.197,0-4.25,0.947-5.779,2.668
			c-0.76,0.857-1.753,1.328-2.791,1.328c-1.039,0-2.029-0.471-2.789-1.328c-1.531-1.721-3.583-2.668-5.782-2.668
			c-2.2,0-4.252,0.947-5.782,2.67c-1.52,1.711-4.059,1.712-5.578-0.002c-1.531-1.721-3.583-2.668-5.783-2.668
			c-2.198,0-4.251,0.947-5.781,2.668c-0.733,0.826-0.657,2.089,0.168,2.821c0.828,0.731,2.091,0.655,2.824-0.167
			c1.52-1.711,4.061-1.711,5.58-0.002c1.53,1.722,3.583,2.672,5.781,2.672s4.251-0.95,5.781-2.67c1.52-1.711,4.061-1.711,5.58-0.002
			c1.529,1.722,3.582,2.67,5.78,2.672H32c2.199-0.002,4.252-0.95,5.783-2.67c1.52-1.711,4.063-1.709,5.578-0.003
			c1.527,1.721,3.578,2.671,5.775,2.673c0.002,0,0.004,0,0.004,0c2.199-0.002,4.252-0.947,5.783-2.67
			c0.76-0.855,1.75-1.327,2.791-1.327c1.039,0,2.029,0.472,2.789,1.325c0.732,0.824,1.996,0.898,2.822,0.169
			C64.154,32.771,64.229,31.507,63.496,30.683z M50.709,40.671c-0.713,0.855-1.645,1.328-2.62,1.328c0,0,0,0-0.002,0
			c-0.974-0.002-1.901-0.473-2.612-1.328C44.037,38.948,42.11,38,40.046,38c0,0,0,0-0.002,0c-2.063,0.002-3.989,0.95-5.425,2.671
			c-0.713,0.855-1.645,1.328-2.619,1.328c-0.976-0.002-1.905-0.473-2.618-1.328C27.945,38.95,26.019,38,23.954,38
			s-3.991,0.95-5.428,2.671c-1.427,1.713-3.81,1.713-5.236,0c-0.688-0.826-1.875-0.901-2.649-0.168
			c-0.775,0.731-0.848,1.996-0.159,2.82c1.437,1.721,3.363,2.671,5.427,2.671s3.99-0.95,5.427-2.671
			c1.427-1.713,3.812-1.713,5.238,0c1.436,1.721,3.362,2.67,5.426,2.671H32c2.064-0.001,3.99-0.95,5.428-2.671
			c1.427-1.713,3.813-1.711,5.236-0.001c1.434,1.72,3.358,2.671,5.421,2.672c0.002,0,0.004,0,0.004,0
			c2.064,0,3.991-0.948,5.429-2.671c0.688-0.824,0.617-2.087-0.158-2.82C52.584,39.771,51.4,39.844,50.709,40.671z"/>
	</g>
</g>
<g id="Up">
	<g>
		<path style="fill-rule:evenodd;clip-rule:evenodd;fill:#ED7161;" d="M39.411,6.479l-5.841-5.86
			c-0.324-0.325-0.73-0.51-1.151-0.572C32.283,0.017,32.144,0,32,0c-0.562,0-1.066,0.232-1.43,0.604
			c-0.018,0.017-0.038,0.025-0.055,0.042L24.649,6.49c-0.81,0.808-0.81,2.116,0,2.923c0.811,0.808,2.123,0.808,2.934,0L30,7.005
			v10.992c0,1.104,0.895,1.999,2,1.999c1.104,0,2-0.895,2-1.999V6.91l2.49,2.498c0.807,0.809,2.114,0.809,2.921,0
			S40.218,7.286,39.411,6.479z"/>
	</g>
</g>
<g>
</g>
<g>
</g>
<g>
</g>
<g>
</g>
<g>
</g>
<g>
</g>
<g>
</g>
<g>
</g>
<g>
</g>
<g>
</g>
<g>
</g>
<g>
</g>
<g>
</g>
<g>
</g>
<g>
</g>
</svg>
