<?xml version="1.0" encoding="iso-8859-1"?>
<!-- Generator: Adobe Illustrator 16.0.0, SVG Export Plug-In . SVG Version: 6.00 Build 0)  -->
<!DOCTYPE svg PUBLIC "-//W3C//DTD SVG 1.1//EN" "http://www.w3.org/Graphics/SVG/1.1/DTD/svg11.dtd">
<svg version="1.1" id="Layer_1" xmlns="http://www.w3.org/2000/svg" xmlns:xlink="http://www.w3.org/1999/xlink" x="0px" y="0px"
	 width="64px" height="45.991px" viewBox="0 0 64 45.991" style="enable-background:new 0 0 64 45.991;" xml:space="preserve">
<g id="Water">
	<g>
		<path style="fill-rule:evenodd;clip-rule:evenodd;fill:#54BBFF;" d="M63.496,30.68c-1.527-1.723-3.58-2.67-5.779-2.67
			c-0.002,0-0.002,0-0.002,0c-2.199,0-4.254,0.947-5.783,2.668c-0.76,0.857-1.752,1.328-2.791,1.328c0,0,0,0-0.002,0
			c-1.037-0.001-2.025-0.471-2.783-1.328c-1.531-1.721-3.584-2.668-5.783-2.668c0,0,0,0-0.002,0c-2.197,0-4.25,0.947-5.779,2.668
			c-0.76,0.857-1.752,1.328-2.791,1.328s-2.029-0.471-2.789-1.328c-1.53-1.721-3.583-2.668-5.782-2.668s-4.252,0.947-5.782,2.67
			c-1.52,1.711-4.059,1.712-5.578-0.002c-1.53-1.721-3.583-2.668-5.782-2.668s-4.252,0.947-5.782,2.668
			c-0.733,0.826-0.657,2.089,0.168,2.821c0.828,0.731,2.091,0.655,2.824-0.167c1.52-1.711,4.061-1.711,5.58-0.002
			c1.53,1.722,3.583,2.672,5.781,2.672s4.251-0.95,5.781-2.67c1.52-1.711,4.061-1.711,5.58-0.002c1.529,1.722,3.582,2.67,5.78,2.672
			H32c2.199-0.002,4.252-0.95,5.783-2.67c1.52-1.711,4.063-1.709,5.578-0.003c1.527,1.721,3.578,2.671,5.775,2.673
			c0.002,0,0.004,0,0.004,0c2.199-0.002,4.252-0.947,5.783-2.67c0.76-0.855,1.75-1.327,2.791-1.327c1.039,0,2.029,0.472,2.789,1.325
			c0.732,0.824,1.996,0.898,2.822,0.169C64.154,32.768,64.229,31.504,63.496,30.68z M50.709,40.668
			c-0.713,0.855-1.645,1.328-2.62,1.328c0,0,0,0-0.002,0c-0.974-0.002-1.901-0.473-2.612-1.328
			c-1.438-1.723-3.364-2.671-5.429-2.671c0,0,0,0-0.001,0c-2.063,0.002-3.99,0.95-5.426,2.671c-0.713,0.855-1.645,1.328-2.619,1.328
			c-0.976-0.002-1.905-0.473-2.618-1.328c-1.437-1.721-3.363-2.671-5.428-2.671s-3.991,0.95-5.428,2.671
			c-1.427,1.713-3.81,1.713-5.235,0c-0.689-0.826-1.876-0.901-2.65-0.168c-0.775,0.731-0.848,1.996-0.159,2.82
			c1.437,1.721,3.364,2.671,5.427,2.671c2.063,0,3.99-0.95,5.427-2.671c1.427-1.713,3.812-1.713,5.238,0
			c1.436,1.721,3.362,2.67,5.426,2.671H32c2.064-0.001,3.991-0.95,5.428-2.671c1.427-1.713,3.813-1.711,5.236-0.001
			c1.434,1.72,3.358,2.671,5.422,2.672c0.001,0,0.003,0,0.003,0c2.064,0,3.991-0.948,5.429-2.671
			c0.688-0.824,0.618-2.087-0.158-2.82C52.584,39.768,51.4,39.841,50.709,40.668z"/>
	</g>
</g>
<g id="Down">
	<g>
		<path style="fill-rule:evenodd;clip-rule:evenodd;fill:#88C057;" d="M39.41,10.584c-0.813-0.808-2.131-0.808-2.944,0l-2.427,2.408
			V2c0-1.104-0.898-2-2.008-2c-1.108,0-2.008,0.896-2.008,2v11.088l-2.501-2.499c-0.81-0.809-2.122-0.809-2.932,0
			s-0.81,2.122,0,2.93l5.864,5.86c0.325,0.325,0.733,0.51,1.156,0.572c0.136,0.029,0.275,0.046,0.42,0.046
			c0.563,0,1.07-0.232,1.435-0.604c0.018-0.016,0.038-0.025,0.056-0.042l5.889-5.845C40.223,12.7,40.223,11.391,39.41,10.584z"/>
	</g>
</g>
<g>
</g>
<g>
</g>
<g>
</g>
<g>
</g>
<g>
</g>
<g>
</g>
<g>
</g>
<g>
</g>
<g>
</g>
<g>
</g>
<g>
</g>
<g>
</g>
<g>
</g>
<g>
</g>
<g>
</g>
</svg>
