<?xml version="1.0" encoding="iso-8859-1"?>
<!-- Generator: Adobe Illustrator 16.0.0, SVG Export Plug-In . SVG Version: 6.00 Build 0)  -->
<!DOCTYPE svg PUBLIC "-//W3C//DTD SVG 1.1//EN" "http://www.w3.org/Graphics/SVG/1.1/DTD/svg11.dtd">
<svg version="1.1" id="Layer_1" xmlns="http://www.w3.org/2000/svg" xmlns:xlink="http://www.w3.org/1999/xlink" x="0px" y="0px"
	 width="64.031px" height="64.021px" viewBox="0 0 64.031 64.021" style="enable-background:new 0 0 64.031 64.021;"
	 xml:space="preserve">
<g id="Home">
	<g>
		<path style="fill-rule:evenodd;clip-rule:evenodd;fill:#CCCCCC;" d="M32.046,6.054L8.059,30.019v12.237
			c1.537,0.36,2.943,1.202,4.066,2.465c0.754,0.85,1.759,1.275,2.765,1.281h0.045c1.007-0.006,2.012-0.432,2.765-1.28
			c1.53-1.721,3.581-2.668,5.78-2.668c2.198,0,4.25,0.947,5.779,2.667c0.699,0.788,1.597,1.231,2.544,1.3h0.482
			c0.95-0.067,1.851-0.511,2.551-1.3c1.529-1.72,3.58-2.667,5.777-2.667c0.001,0,0.001,0,0.001,0c2.198,0,4.25,0.946,5.78,2.667
			c0.738,0.833,1.694,1.293,2.701,1.318h0.164c1.009-0.024,1.97-0.485,2.709-1.318c1.123-1.263,2.529-2.104,4.067-2.465V30.019
			L32.046,6.054z M15.963,64.021c0.272,0,0.542-0.019,0.81-0.052h-1.619C15.42,64.002,15.69,64.021,15.963,64.021z M32.045,64.021
			L32.045,64.021c0.273,0,0.542-0.02,0.808-0.052h-1.614C31.505,64.001,31.774,64.021,32.045,64.021z M48.124,64.021
			c0.002,0,0.004,0,0.004,0c0.273,0,0.543-0.019,0.81-0.052h-1.619C47.584,64.001,47.853,64.021,48.124,64.021z"/>
	</g>
</g>
<g id="Water_2_">
	<g>
		<path style="fill-rule:evenodd;clip-rule:evenodd;fill:#54BBFF;" d="M63.526,48.715c-1.525-1.721-3.578-2.668-5.775-2.668
			c-0.003,0-0.003,0-0.003,0c-2.197,0-4.251,0.947-5.78,2.667c-0.759,0.856-1.751,1.327-2.79,1.327c0,0,0,0-0.002,0
			c-1.037-0.001-2.024-0.471-2.782-1.327c-1.53-1.721-3.582-2.667-5.78-2.667c0,0,0,0-0.001,0c-2.197,0-4.248,0.947-5.777,2.667
			c-0.759,0.856-1.751,1.327-2.79,1.327s-2.028-0.471-2.788-1.327c-1.53-1.72-3.581-2.667-5.779-2.667
			c-2.199,0-4.25,0.947-5.78,2.668c-1.519,1.711-4.056,1.712-5.575-0.001c-1.53-1.72-3.581-2.667-5.779-2.667
			s-4.25,0.947-5.78,2.667c-0.733,0.825-0.657,2.087,0.168,2.819c0.828,0.732,2.09,0.655,2.823-0.167
			c1.519-1.71,4.058-1.71,5.577-0.001c1.529,1.721,3.581,2.67,5.778,2.67s4.249-0.949,5.778-2.669
			c1.519-1.71,4.059-1.71,5.578-0.001c1.528,1.721,3.58,2.668,5.777,2.67h0.001c2.198-0.002,4.25-0.949,5.78-2.669
			c1.519-1.71,4.061-1.708,5.576-0.002c1.526,1.72,3.576,2.669,5.772,2.671c0.002,0,0.004,0,0.004,0
			c2.198-0.002,4.25-0.947,5.78-2.669c0.76-0.855,1.749-1.326,2.789-1.326c1.039,0,2.029,0.471,2.788,1.325
			c0.732,0.823,1.995,0.898,2.821,0.168C64.185,50.803,64.259,49.54,63.526,48.715z M50.747,58.698
			c-0.713,0.856-1.644,1.328-2.619,1.328c0,0,0,0-0.002,0c-0.973-0.002-1.9-0.472-2.611-1.328c-1.437-1.722-3.362-2.669-5.426-2.669
			c0,0,0,0-0.001,0c-2.062,0.002-3.988,0.949-5.422,2.669c-0.713,0.856-1.644,1.328-2.619,1.328
			c-0.975-0.002-1.904-0.472-2.617-1.328c-1.436-1.72-3.362-2.669-5.425-2.669c-2.063,0-3.99,0.949-5.425,2.669
			c-1.426,1.713-3.808,1.713-5.234,0c-0.689-0.824-1.875-0.9-2.649-0.167c-0.775,0.73-0.847,1.994-0.158,2.819
			c1.436,1.72,3.361,2.67,5.424,2.67s3.988-0.95,5.424-2.67c1.426-1.712,3.81-1.712,5.236,0c1.435,1.72,3.36,2.668,5.423,2.67h0.001
			c2.063-0.002,3.989-0.95,5.426-2.67c1.426-1.712,3.812-1.71,5.233-0.002c1.433,1.72,3.357,2.67,5.418,2.672
			c0.002,0,0.004,0,0.004,0c2.063,0,3.989-0.948,5.426-2.67c0.687-0.825,0.617-2.087-0.157-2.819
			C52.621,57.8,51.437,57.872,50.747,58.698z"/>
	</g>
</g>
<g id="Chimney">
	<g>
		<path style="fill:#4D4D4D;" d="M18.053,4.118h-3.998c-1.104,0-1.999,0.894-1.999,1.996v11.98c0,1.103,0.895,1.997,1.999,1.997
			h3.998c1.104,0,2-0.895,2-1.997V6.114C20.053,5.012,19.158,4.118,18.053,4.118z"/>
	</g>
</g>
<g id="Roof">
	<g>
		<path style="fill-rule:evenodd;clip-rule:evenodd;fill:#A67C52;" d="M62.884,29.329L35.521,1.993
			c-0.17-0.3-0.368-0.589-0.624-0.845c-1.169-1.168-2.89-1.438-4.322-0.824c-0.502,0.19-0.975,0.48-1.38,0.885
			c-0.155,0.155-0.283,0.325-0.407,0.498L1.149,29.318c-1.533,1.53-1.533,4.013,0,5.544s4.018,1.531,5.55,0L32.021,9.565
			l25.323,25.299c1.529,1.528,4.01,1.528,5.54,0S64.414,30.857,62.884,29.329z"/>
	</g>
</g>
<g>
</g>
<g>
</g>
<g>
</g>
<g>
</g>
<g>
</g>
<g>
</g>
<g>
</g>
<g>
</g>
<g>
</g>
<g>
</g>
<g>
</g>
<g>
</g>
<g>
</g>
<g>
</g>
<g>
</g>
</svg>
