<?xml version="1.0" encoding="iso-8859-1"?>
<!-- Generator: Adobe Illustrator 16.0.0, SVG Export Plug-In . SVG Version: 6.00 Build 0)  -->
<!DOCTYPE svg PUBLIC "-//W3C//DTD SVG 1.1//EN" "http://www.w3.org/Graphics/SVG/1.1/DTD/svg11.dtd">
<svg version="1.1" id="Layer_1" xmlns="http://www.w3.org/2000/svg" xmlns:xlink="http://www.w3.org/1999/xlink" x="0px" y="0px"
	 width="64px" height="31.993px" viewBox="0 0 64 31.993" style="enable-background:new 0 0 64 31.993;" xml:space="preserve">
<g id="Label_1_">
	<g>
		<path style="fill:#9B7CAB;" d="M60,0H4C1.791,0,0,1.79,0,3.999v23.995c0,2.209,1.791,3.999,4,3.999h56c2.209,0,4-1.79,4-3.999
			V3.999C64,1.79,62.209,0,60,0z"/>
	</g>
</g>
<g id="H">
	<g>
		<path style="fill-rule:evenodd;clip-rule:evenodd;fill:#FFFFFF;" d="M18,5.999h-8c-1.104,0-2,0.895-2,1.999v15.997
			c0,1.104,0.896,2,2,2s2-0.896,2-2v-5.999h4c1.104,0,2-0.896,2-1.999c0-1.104-0.896-2-2-2h-4V9.998h6c1.104,0,2-0.896,2-2
			S19.104,5.999,18,5.999z"/>
	</g>
</g>
<g id="O">
	<g>
		<path style="fill-rule:evenodd;clip-rule:evenodd;fill:#FFFFFF;" d="M31,5.999c-3.866,0-7,3.133-7,6.998v5.999
			c0,3.865,3.134,6.999,7,6.999s7-3.134,7-6.999v-5.999C38,9.132,34.866,5.999,31,5.999z M34,18.996c0,1.656-1.344,2.999-3,2.999
			c-1.657,0-3-1.343-3-2.999v-5.999c0-1.656,1.343-2.999,3-2.999c1.656,0,3,1.343,3,2.999V18.996z"/>
	</g>
</g>
<g id="G">
	<g>
		<path style="fill-rule:evenodd;clip-rule:evenodd;fill:#FFFFFF;" d="M54,13.997c1.104,0,2-0.895,2-2v-0.006
			c0-3.865-3.134-5.992-7-5.992s-7,3.133-7,6.998v5.999c0,3.865,3.134,6.999,7,6.999s7-3.134,7-6.999v-2.999h-2h-2h-2
			c-1.104,0-2,0.895-2,1.999s0.896,2,2,2h1.816c-0.414,1.162-1.512,1.999-2.816,1.999c-1.657,0-3-1.343-3-2.999v-5.999
			c0-1.656,1.343-2.999,3-2.999c1.656,0,3,0.337,3,1.993v0.006C52,13.103,52.896,13.997,54,13.997z"/>
	</g>
</g>
<g>
</g>
<g>
</g>
<g>
</g>
<g>
</g>
<g>
</g>
<g>
</g>
<g>
</g>
<g>
</g>
<g>
</g>
<g>
</g>
<g>
</g>
<g>
</g>
<g>
</g>
<g>
</g>
<g>
</g>
</svg>
