<?xml version="1.0" encoding="iso-8859-1"?>
<!-- Generator: Adobe Illustrator 16.0.0, SVG Export Plug-In . SVG Version: 6.00 Build 0)  -->
<!DOCTYPE svg PUBLIC "-//W3C//DTD SVG 1.1//EN" "http://www.w3.org/Graphics/SVG/1.1/DTD/svg11.dtd">
<svg version="1.1" id="Layer_1" xmlns="http://www.w3.org/2000/svg" xmlns:xlink="http://www.w3.org/1999/xlink" x="0px" y="0px"
	 width="64px" height="55.991px" viewBox="0 0 64 55.991" style="enable-background:new 0 0 64 55.991;" xml:space="preserve">
<g id="Fog">
	<g>
		<path style="fill:#CCCCCC;" d="M63.496,38.666c-1.527-1.724-3.58-2.673-5.779-2.673c-0.002,0-0.002,0-0.002,0
			c-2.199,0-4.254,0.949-5.783,2.672c-0.76,0.856-1.752,1.328-2.791,1.328c0,0,0,0-0.002,0c-1.037-0.001-2.025-0.472-2.783-1.328
			c-1.531-1.724-3.584-2.672-5.783-2.672c0,0,0,0-0.002,0c-2.197,0-4.25,0.949-5.779,2.672c-0.76,0.856-1.752,1.328-2.791,1.328
			s-2.029-0.472-2.789-1.328c-1.53-1.723-3.583-2.672-5.782-2.672s-4.252,0.949-5.782,2.673c-1.52,1.712-4.059,1.714-5.578-0.001
			c-1.53-1.723-3.583-2.672-5.782-2.672s-4.252,0.949-5.782,2.672c-0.733,0.826-0.657,2.09,0.168,2.823
			c0.828,0.732,2.091,0.656,2.824-0.167c1.52-1.714,4.061-1.713,5.58-0.002c1.53,1.724,3.583,2.675,5.781,2.675
			s4.251-0.951,5.781-2.673c1.52-1.714,4.061-1.713,5.58-0.002c1.529,1.724,3.582,2.673,5.78,2.675H32
			c2.199-0.002,4.252-0.951,5.783-2.673c1.52-1.714,4.063-1.712,5.578-0.003c1.527,1.722,3.578,2.674,5.775,2.676
			c0.002,0,0.004,0,0.004,0c2.199-0.002,4.252-0.949,5.783-2.673c0.76-0.857,1.75-1.329,2.791-1.329
			c1.039,0,2.029,0.472,2.789,1.327c0.732,0.825,1.996,0.899,2.822,0.169C64.154,40.756,64.229,39.492,63.496,38.666z"/>
	</g>
</g>
<g id="Fog_7_">
	<g>
		<path style="fill:#999999;" d="M63.496,50.663c-1.527-1.723-3.58-2.672-5.779-2.672c-0.002,0-0.002,0-0.002,0
			c-2.199,0-4.254,0.949-5.783,2.671c-0.76,0.857-1.752,1.329-2.791,1.329c0,0,0,0-0.002,0c-1.037-0.001-2.025-0.472-2.783-1.329
			c-1.531-1.724-3.584-2.671-5.783-2.671c0,0,0,0-0.002,0c-2.197,0-4.25,0.949-5.779,2.671c-0.76,0.857-1.752,1.329-2.791,1.329
			s-2.029-0.472-2.789-1.329c-1.53-1.722-3.583-2.671-5.782-2.671s-4.252,0.949-5.782,2.672c-1.52,1.713-4.059,1.714-5.578-0.001
			c-1.53-1.722-3.583-2.671-5.782-2.671s-4.252,0.949-5.782,2.671c-0.733,0.826-0.657,2.091,0.168,2.824
			c0.828,0.732,2.091,0.656,2.824-0.168c1.52-1.713,4.061-1.712,5.58-0.001c1.53,1.723,3.583,2.674,5.781,2.674
			s4.251-0.951,5.781-2.673c1.52-1.713,4.061-1.712,5.58-0.001c1.529,1.723,3.582,2.672,5.78,2.674H32
			c2.199-0.002,4.252-0.951,5.783-2.673c1.52-1.713,4.063-1.711,5.578-0.002c1.527,1.722,3.578,2.673,5.775,2.675
			c0.002,0,0.004,0,0.004,0c2.199-0.002,4.252-0.949,5.783-2.673c0.76-0.856,1.75-1.328,2.791-1.328
			c1.039,0,2.029,0.472,2.789,1.327c0.732,0.825,1.996,0.899,2.822,0.169C64.154,52.754,64.229,51.489,63.496,50.663z"/>
	</g>
</g>
<g id="Fog_5_">
	<g>
		<path style="fill:#CCCCCC;" d="M63.496,14.671c-1.527-1.724-3.58-2.673-5.779-2.673c-0.002,0-0.002,0-0.002,0
			c-2.199,0-4.254,0.949-5.783,2.672c-0.76,0.856-1.752,1.328-2.791,1.328c0,0,0,0-0.002,0c-1.037-0.001-2.025-0.472-2.783-1.328
			c-1.531-1.724-3.584-2.672-5.783-2.672c0,0,0,0-0.002,0c-2.197,0-4.25,0.949-5.779,2.672c-0.76,0.856-1.752,1.328-2.791,1.328
			s-2.029-0.472-2.789-1.328c-1.53-1.723-3.583-2.672-5.782-2.672s-4.252,0.949-5.782,2.673c-1.52,1.712-4.059,1.713-5.578-0.001
			c-1.53-1.723-3.583-2.672-5.782-2.672s-4.252,0.949-5.782,2.672c-0.733,0.825-0.657,2.09,0.168,2.823
			c0.828,0.732,2.091,0.656,2.824-0.168c1.52-1.713,4.061-1.712,5.58-0.001c1.53,1.724,3.583,2.675,5.781,2.675
			s4.251-0.951,5.781-2.674c1.52-1.713,4.061-1.712,5.58-0.001c1.529,1.724,3.582,2.673,5.78,2.675H32
			c2.199-0.002,4.252-0.951,5.783-2.674c1.52-1.713,4.063-1.711,5.578-0.002c1.527,1.723,3.578,2.674,5.775,2.676
			c0.002,0,0.004,0,0.004,0c2.199-0.002,4.252-0.949,5.783-2.674c0.76-0.856,1.75-1.328,2.791-1.328
			c1.039,0,2.029,0.472,2.789,1.327c0.732,0.825,1.996,0.899,2.822,0.169C64.154,16.761,64.229,15.496,63.496,14.671z"/>
	</g>
</g>
<g id="Fog_3_">
	<g>
		<path style="fill:#999999;" d="M63.496,2.673C61.969,0.949,59.916,0,57.717,0c-0.002,0-0.002,0-0.002,0
			c-2.199,0-4.254,0.949-5.783,2.672c-0.76,0.857-1.752,1.329-2.791,1.329c0,0,0,0-0.002,0c-1.037-0.002-2.025-0.472-2.783-1.329
			C44.824,0.948,42.771,0,40.572,0c0,0,0,0-0.002,0c-2.197,0-4.25,0.949-5.779,2.672C34.031,3.529,33.039,4.001,32,4.001
			s-2.029-0.472-2.789-1.329C27.681,0.949,25.628,0,23.429,0s-4.252,0.949-5.782,2.673c-1.52,1.713-4.059,1.714-5.578-0.001
			C10.538,0.949,8.485,0,6.286,0S2.034,0.949,0.504,2.672c-0.733,0.825-0.657,2.09,0.168,2.823C1.5,6.229,2.763,6.151,3.496,5.327
			c1.52-1.712,4.061-1.711,5.58-0.001c1.53,1.724,3.583,2.675,5.781,2.675s4.251-0.951,5.781-2.674
			c1.52-1.712,4.061-1.711,5.58-0.001c1.529,1.724,3.582,2.673,5.78,2.675H32c2.199-0.002,4.252-0.951,5.783-2.674
			c1.52-1.712,4.063-1.71,5.578-0.002c1.527,1.723,3.578,2.674,5.775,2.676c0.002,0,0.004,0,0.004,0
			c2.199-0.002,4.252-0.949,5.783-2.674c0.76-0.855,1.75-1.328,2.791-1.328c1.039,0,2.029,0.473,2.789,1.327
			c0.732,0.825,1.996,0.899,2.822,0.169C64.154,4.763,64.229,3.499,63.496,2.673z"/>
	</g>
</g>
<g id="Fog_4_">
	<g>
		<path style="fill:#999999;" d="M63.496,26.669c-1.527-1.725-3.58-2.673-5.779-2.673c-0.002,0-0.002,0-0.002,0
			c-2.199,0-4.254,0.948-5.783,2.671c-0.76,0.857-1.752,1.329-2.791,1.329c0,0,0,0-0.002,0c-1.037-0.001-2.025-0.472-2.783-1.329
			c-1.531-1.723-3.584-2.671-5.783-2.671c0,0,0,0-0.002,0c-2.197,0-4.25,0.948-5.779,2.671c-0.76,0.857-1.752,1.329-2.791,1.329
			s-2.029-0.472-2.789-1.329c-1.53-1.723-3.583-2.671-5.782-2.671s-4.252,0.948-5.782,2.673c-1.52,1.712-4.059,1.713-5.578-0.002
			c-1.53-1.723-3.583-2.671-5.782-2.671s-4.252,0.948-5.782,2.671c-0.733,0.826-0.657,2.091,0.168,2.824
			c0.828,0.732,2.091,0.656,2.824-0.168c1.52-1.713,4.061-1.712,5.58-0.001c1.53,1.723,3.583,2.674,5.781,2.674
			s4.251-0.951,5.781-2.673c1.52-1.713,4.061-1.712,5.58-0.001c1.529,1.723,3.582,2.672,5.78,2.674H32
			c2.199-0.002,4.252-0.951,5.783-2.673c1.52-1.713,4.063-1.711,5.578-0.002c1.527,1.722,3.578,2.673,5.775,2.675
			c0.002,0,0.004,0,0.004,0c2.199-0.002,4.252-0.949,5.783-2.673c0.76-0.857,1.75-1.328,2.791-1.328
			c1.039,0,2.029,0.471,2.789,1.327c0.732,0.825,1.996,0.899,2.822,0.169C64.154,28.759,64.229,27.494,63.496,26.669z"/>
	</g>
</g>
<g>
</g>
<g>
</g>
<g>
</g>
<g>
</g>
<g>
</g>
<g>
</g>
<g>
</g>
<g>
</g>
<g>
</g>
<g>
</g>
<g>
</g>
<g>
</g>
<g>
</g>
<g>
</g>
<g>
</g>
</svg>
