<?xml version="1.0" encoding="iso-8859-1"?>
<!-- Generator: Adobe Illustrator 16.0.0, SVG Export Plug-In . SVG Version: 6.00 Build 0)  -->
<!DOCTYPE svg PUBLIC "-//W3C//DTD SVG 1.1//EN" "http://www.w3.org/Graphics/SVG/1.1/DTD/svg11.dtd">
<svg version="1.1" id="Layer_1" xmlns="http://www.w3.org/2000/svg" xmlns:xlink="http://www.w3.org/1999/xlink" x="0px" y="0px"
	 width="60.01px" height="64.005px" viewBox="0 0 60.01 64.005" style="enable-background:new 0 0 60.01 64.005;"
	 xml:space="preserve">
<g id="Water_3_">
	<g>
		<path style="fill-rule:evenodd;clip-rule:evenodd;fill:#48A0DC;" d="M59.959,31.584c0.301-5.604-0.958-11.356-3.973-16.579
			C47.702,0.656,29.354-4.26,15.005,4.025C5.389,9.576,0.018,19.647,0.009,30.005H0.005v2v4v12c0,1.104,0.896,2,2,2s2-0.896,2-2
			v-3.036c0.007,0.012,0.013,0.024,0.02,0.036c1.145,1.983,2.488,3.779,3.98,5.392v5.608c0,1.104,0.895,2,2,2c1.104,0,2-0.896,2-2
			v-1.995c1.27,0.952,2.61,1.791,4,2.522v5.471c0,1.104,0.895,2.001,2,2.001c1.104,0,2-0.896,2-2.001v-3.724
			c7.98,2.818,17.096,2.269,25-2.295c4.747-2.741,8.454-6.587,11-11.021v3.041c0,1.104,0.896,2,2,2s2-0.896,2-2v-16
			C60.005,31.86,59.988,31.72,59.959,31.584z M58.005,54.005c-1.104,0-2,0.896-2,2s0.896,2,2,2s2-0.896,2-2
			S59.11,54.005,58.005,54.005z"/>
	</g>
</g>
<g id="Land">
	<g>
		<path style="fill-rule:evenodd;clip-rule:evenodd;fill:#CCCCCC;" d="M17.33,19.724c0.452-0.312,0.886-0.775,1.111-1.27
			c0.739-1.619,2.277-2.333,3.564-3.327v6.878c0,1.104,0.895,2,2,2c1.104,0,2-0.896,2-2V11.537c0.375-0.004,0.751-0.006,1.127,0.008
			c0.916,0.032,1.104,0.293,0.955,1.191c-0.029,0.174,0.074,0.446,0.209,0.546c0.115,0.084,0.364-0.019,0.555-0.038
			c-0.037-0.203-0.073-0.406-0.109-0.608c-0.081-0.444-0.238-0.89-0.223-1.33c0.018-0.511-0.063-0.896-0.448-1.273
			c-0.323-0.317-0.586-0.743-0.741-1.169c-0.15-0.413-0.361-0.581-0.765-0.523c-0.703,0.102-1.157-0.199-1.398-0.844
			c-0.188-0.5-0.563-0.629-1.06-0.658c-0.86-0.053-1.221,0.617-1.34,1.182c-0.045,0.214-0.115,0.409-0.196,0.596
			c-0.217,0.224-0.375,0.5-0.469,0.805c-0.478,0.643-1.097,1.175-1.567,1.818c-0.484,0.662-1.403,0.466-1.543-0.33
			c-0.119-0.683-0.465-0.988-1.048-1.201c-0.372-0.136-0.723-0.34-1.071-0.535c-0.953-0.536-1.145-1.593-0.329-2.299
			c1.197-1.037,2.524-1.768,4.232-1.434c0.325,0.064,0.949-0.17,1.055-0.425c0.423-1.017,1.38-1.429,2.117-2.072
			c0.549-0.479,1.496-0.354,2.01,0.108c0.624,0.563,0.484,1.105,0.055,1.717c-0.139,0.197-0.211,0.677-0.099,0.771
			c0.259,0.219,0.776,0.487,0.964,0.37c0.661-0.409,1.235-0.963,1.816-1.49c0.055-0.05-0.057-0.308-0.121-0.456
			c-0.419-0.955-1.215-1.379-2.18-1.648c-1.076-0.299-1.292-1.166-0.371-1.786c0.184-0.122,0.379-0.229,0.576-0.33
			c-1.034,0.117-2.066,0.286-3.094,0.515c-0.909,0.195-1.202,0.861-0.822,1.689c0.224,0.486,0.302,0.998-0.189,1.354
			c-0.496,0.36-0.993,0.118-1.337-0.261c-0.228-0.252-0.286-0.655-0.429-0.986c-0.104-0.241-0.225-0.475-0.338-0.712
			c-0.291,0.156-0.792,0.266-0.836,0.474c-0.233,1.096-1.184,1.27-1.959,1.668c-0.132,0.068-0.417,0.078-0.471,0.001
			c-0.095-0.133-0.119-0.369-0.076-0.537c0.043-0.169,0.089-0.339,0.137-0.512c-0.735,0.348-1.464,0.72-2.18,1.134
			C8.009,8.064,3.264,14.497,1.189,21.689c0.741,1.197,1.751,2.227,2.568,3.382c0.098,0.138,0.176,0.289,0.248,0.445v8.49
			c0,1.104,0.895,2,2,2c1.104,0,2-0.896,2-2v-4.999c0.385,0.058,0.782,0.17,1.109,0.364c1.169,0.692,2.303,1.445,3.439,2.168
			c0.431-0.944,0.342-1.18-0.647-1.631c-0.657-0.299-0.896-0.833-0.764-1.539c0.048-0.257,0.098-0.514,0.188-0.987
			c-0.378,0.312-0.578,0.482-0.784,0.646c-0.916,0.725-1.87,0.707-2.541,0.088V23.52c0.062-0.092,0.123-0.185,0.188-0.275
			c1.281-1.756,3.346-1.202,5.099-1.542c0.236-0.046,0.531,0.12,0.775,0.236c0.283,0.135,0.541,0.324,0.909,0.55
			C15.117,20.942,16.306,20.429,17.33,19.724z M14.487,13.472c0.021-0.206,0.482-0.521,0.741-0.521
			c0.475,0.002,1.072,0.13,1.063,0.764c-0.004,0.215-0.463,0.422-0.715,0.633C14.994,14.137,14.422,14.118,14.487,13.472z
			 M59.932,27.846c-0.024-0.041-0.05-0.082-0.074-0.123c-0.463-0.788-0.782-1.661-1.153-2.503c-0.11-0.248-0.245-0.513-0.251-0.773
			c-0.006-0.271,0.093-0.754,0.212-0.776c0.209-0.038,0.459-0.004,0.682,0.076c-0.169-0.789-0.373-1.573-0.607-2.354
			c-0.223,0.307-0.557,0.521-1.005,0.62c-1.272,0.282-2.533,0.194-3.751-0.281c-0.571-0.224-1.091-0.284-1.613,0.133
			c-0.572,0.458-1.207,0.409-1.834,0.11c-0.293-0.14-0.554-0.382-0.858-0.454c-1.026-0.245-1.677-0.795-1.864-1.887
			c-0.033-0.19-0.46-0.468-0.68-0.446c-1.508,0.148-3.008,0.501-4.514,0.525c-1.563,0.025-2.192,1.088-2.713,2.173
			c-0.362,0.757-0.809,1.336-1.416,1.869c-1.147,1.007-1.75,2.254-1.62,3.833c0.048,0.583-0.103,1.181-0.121,1.772
			c-0.016,0.514-0.16,1.151,0.08,1.521c0.365,0.56,0.765,1.098,1.175,1.629v7.496c0,1.104,0.896,1.999,2,1.999s2-0.895,2-1.999
			v-5.531c0.467-0.053,0.931-0.122,1.38-0.241c1.095-0.291,2.079-0.554,2.983,0.379c0.13,0.134,0.344,0.197,0.53,0.264
			c1.366,0.483,1.486,0.605,1.438,2.041c-0.03,0.899,0.165,1.646,0.634,2.46c0.998,1.73,1.633,3.568,0.677,5.62
			c-0.248,0.531-0.256,1.379-0.003,1.9c0.623,1.288,0.828,2.644,1.114,4.011c0.043,0.206,0.102,0.408,0.16,0.611
			C57.326,45.3,60.555,36.572,59.932,27.846z M40.824,10.761c0.466,0.116,1.092-0.228,1.217,0.553
			c0.139,0.879,0.567,1.605,1.117,2.321c0.767,1.001,0.279,2.012-0.967,2.238c-0.195,0.036-0.394,0.069-0.592,0.084
			c-1.042,0.077-1.083,0.138-1.217,1.183c-0.092,0.715,0.307,1.094,0.811,1.477c0.466,0.353,0.841,0.078,1.156-0.149
			c0.324-0.233,0.594-0.586,0.798-0.938c0.575-0.994,1.237-1.958,2.353-2.299c0.962-0.293,2.034-0.694,2.963,0.045
			c0.41-0.23,0.904-0.529,1.253-0.408c0.77,0.27,1.411,0.763,1.82,1.57c0.258,0.508,0.797,0.873,1.13,1.219
			c0.475-0.439,0.762-0.919,1.145-1.014c0.681-0.168,1.423-0.156,2.131-0.106c0.254,0.018,0.607,0.325,0.689,0.574
			c0.078,0.239-0.117,0.583-0.232,0.863c-0.051,0.122-0.206,0.199-0.421,0.394c0.62,0.094,1.082,0.178,1.548,0.23
			c0.086,0.01,0.158,0.023,0.235,0.036c-0.506-1.231-1.091-2.444-1.774-3.628c-1.189-2.06-2.591-3.917-4.152-5.576
			c-0.333,0.439-0.832,0.778-1.447,0.908c-0.751,0.157-1.371,0.003-2.023-0.246c-0.467-0.178-0.778-0.053-1.199,0.265
			c-0.678,0.515-1.493,0.856-2.278,1.21c-0.18,0.082-0.54-0.006-0.697-0.147c-0.527-0.475-1.012-1-1.489-1.526
			c-0.172-0.19-0.277-0.44-0.44-0.707C41.746,9.749,41.301,10.237,40.824,10.761z M47.003,8.066
			c0.552,0.083,0.945,0.219,1.159,0.761c0.217,0.554,0.558,0.42,0.849,0.083c0.408-0.473,0.612-1.023,0.569-1.64
			c-0.677-0.581-1.376-1.129-2.095-1.644c-0.319,0.291-0.658,0.562-0.992,0.849c-0.245,0.209-0.56,0.72-0.473,0.86
			C46.228,7.666,46.634,8.01,47.003,8.066z M39.149,4.079c0.855-0.325,1.719-0.63,2.569-0.965c0.284-0.112,0.592-0.209,0.875-0.333
			c-3.728-1.721-7.78-2.672-11.896-2.771c0.332,0.082,0.68,0.104,1.044,0.104c1.641-0.001,2.143,0.715,1.866,2.332
			c-0.175,1.024-0.19,2.085-0.193,3.129c-0.001,0.624,0.384,1.074,1.002,1.262c0.57,0.174,0.856-0.218,1.171-0.593
			c0.749-0.891,1.565-1.685,2.809-1.846C38.656,4.363,38.894,4.175,39.149,4.079z M32.362,39.526
			c-1.161-0.222-2.138-0.796-3.202-1.192c-0.951-0.355-1.639-0.916-1.879-1.955c-0.187-0.811-0.759-1.204-1.529-1.48
			c-0.732-0.263-1.451-0.644-2.076-1.107c-0.848-0.627-1.594-1.352-2.793-1.135c-0.302,0.056-0.738-0.08-0.97-0.287
			c-0.76-0.684-1.592-0.748-2.297-0.126c-0.664,0.586-1.998,0.867-1.361,2.318c0.139,0.314-0.059,0.831-0.215,1.207
			c-0.188,0.457-0.483,0.874-0.759,1.291c-0.869,1.305-0.714,2.666-0.119,3.98c0.493,1.088,1.111,2.125,1.739,3.144
			c0.262,0.424,0.635,0.848,1.061,1.09c1.493,0.849,2.293,2.027,2.125,3.795c-0.047,0.496-0.042,1.004,0,1.5
			c0.104,1.213,0.273,2.42,0.354,3.633c0.039,0.588-0.054,1.188-0.098,1.78c-0.015,0.196-0.114,0.396-0.088,0.582
			c0.089,0.638,0.185,1.275,0.302,1.909c1.074,0.356,2.167,0.653,3.274,0.887c0.283-1.043,0.876-2.041,1.659-2.641
			c0.23-0.176,0.423-0.499,0.479-0.785c0.127-0.646,0.451-1.076,1.036-1.368c0.256-0.127,0.541-0.334,0.658-0.577
			c0.449-0.934,1.014-1.863,1.199-2.856c0.233-1.257,0.979-1.868,2.023-2.263c1.241-0.468,1.726-0.958,1.656-2.243
			c-0.089-1.621,0.383-2.981,1.41-4.212c0.371-0.444,0.646-1.082,0.181-1.578C33.63,40.3,33.017,39.652,32.362,39.526z
			 M40.005,46.005c-1.104,0-2,0.895-2,2c0,1.104,0.896,2,2,2s2-0.896,2-2C42.005,46.9,41.11,46.005,40.005,46.005z"/>
	</g>
</g>
<g>
</g>
<g>
</g>
<g>
</g>
<g>
</g>
<g>
</g>
<g>
</g>
<g>
</g>
<g>
</g>
<g>
</g>
<g>
</g>
<g>
</g>
<g>
</g>
<g>
</g>
<g>
</g>
<g>
</g>
</svg>
