<?xml version="1.0" encoding="iso-8859-1"?>
<!-- Generator: Adobe Illustrator 16.0.0, SVG Export Plug-In . SVG Version: 6.00 Build 0)  -->
<!DOCTYPE svg PUBLIC "-//W3C//DTD SVG 1.1//EN" "http://www.w3.org/Graphics/SVG/1.1/DTD/svg11.dtd">
<svg version="1.1" id="Layer_1" xmlns="http://www.w3.org/2000/svg" xmlns:xlink="http://www.w3.org/1999/xlink" x="0px" y="0px"
	 width="66px" height="63.684px" viewBox="0 0 66 63.684" style="enable-background:new 0 0 66 63.684;" xml:space="preserve">
<g id="Sun_11_">
	<g>
		<path style="fill-rule:evenodd;clip-rule:evenodd;fill:#FFCC66;" d="M7.694,26.412C10.559,20.269,16.773,16,24,16
			c0.974,0,1.923,0.099,2.856,0.248c0.54-0.672,1.103-1.324,1.717-1.928c-0.062-0.169-0.115-0.343-0.183-0.509
			c0.229-0.4,0.517-0.81,0.89-1.025c0.533-0.308,0.95-0.304,1.383-0.278c0.963-0.735,1.989-1.393,3.068-1.964
			C33.853,9.993,33.829,9.416,33.588,9c-3.623,2.092-4.078-0.244-5.996,0.863c-0.482,0.278-0.768,0.66-0.975,1.027
			c-0.518-0.617-1.078-1.195-1.714-1.691c-0.005-0.466,0.039-0.975,0.259-1.354c0.712-1.234,1.71-0.712,2.661-2.36
			c0.51-0.883,0.08-2.552-0.823-3.073c-2.092,3.623-3.654,1.828-4.762,3.746c-0.277,0.481-0.333,0.954-0.33,1.374
			c-0.751-0.279-1.524-0.509-2.341-0.624c-0.231-0.397-0.442-0.852-0.442-1.282c0-1.426,1.125-1.473,1.125-3.375
			C20.25,1.23,19.043,0,18,0c0,4.184-2.25,3.409-2.25,5.625c0,0.534,0.176,0.956,0.377,1.313c-0.807,0.136-1.569,0.379-2.304,0.679
			c-0.403-0.229-0.819-0.521-1.037-0.897c-0.712-1.234,0.238-1.837-0.713-3.485C11.563,2.352,9.903,1.889,9,2.411
			c2.092,3.623-0.244,4.078,0.863,5.996c0.279,0.483,0.663,0.77,1.029,0.978c-0.619,0.516-1.2,1.076-1.698,1.711
			c-0.465,0.004-0.972-0.04-1.349-0.258C6.61,10.125,7.133,9.127,5.484,8.176C4.602,7.666,2.933,8.096,2.411,9
			c3.623,2.092,1.829,3.653,3.747,4.761c0.476,0.274,0.942,0.331,1.36,0.331c-0.281,0.752-0.513,1.529-0.627,2.349
			c-0.395,0.229-0.842,0.435-1.267,0.435c-1.426,0-1.473-1.125-3.375-1.125C1.23,15.75,0,16.956,0,17.999
			c4.184,0,3.41,2.251,5.625,2.251c0.527,0,0.944-0.172,1.299-0.369c0.137,0.808,0.384,1.571,0.686,2.307
			c-0.228,0.4-0.516,0.81-0.889,1.025c-1.235,0.713-1.838-0.238-3.485,0.713C2.352,24.436,1.89,26.096,2.411,27
			C5.54,25.193,6.308,26.684,7.694,26.412z"/>
	</g>
</g>
<g id="Cloud_49_">
	<g>
		<path style="fill-rule:evenodd;clip-rule:evenodd;fill:#CCCCCC;" d="M60.426,39.338C61.43,37.095,62,34.616,62,32
			c0-9.941-8.059-18-18-18c-6.609,0-12.37,3.572-15.5,8.881C27.109,22.317,25.593,22,24,22c-5.236,0-9.676,3.358-11.315,8.034
			C12.457,30.021,12.231,30,12,30C5.372,30,0,35.372,0,42c0,6.627,5.372,12,12,12h44c4.418,0,8-3.582,8-8
			C64,43.219,62.58,40.771,60.426,39.338z"/>
	</g>
</g>
<g id="Hail_5_">
	<g>
		<path style="fill-rule:evenodd;clip-rule:evenodd;fill:#54BBFF;" d="M13.301,63.684l3.769-1.069c0,0,0.78-6.592,0.761-6.603
			c-0.01-0.006-5.468,3.945-5.468,3.945L13.301,63.684z M48.362,59.957l0.938,3.727l3.769-1.069l0.761-6.603L48.362,59.957z
			 M31.301,63.684l3.769-1.069c0,0,0.78-6.592,0.761-6.603c-0.01-0.006-5.468,3.945-5.468,3.945L31.301,63.684z"/>
	</g>
</g>
<g>
</g>
<g>
</g>
<g>
</g>
<g>
</g>
<g>
</g>
<g>
</g>
<g>
</g>
<g>
</g>
<g>
</g>
<g>
</g>
<g>
</g>
<g>
</g>
<g>
</g>
<g>
</g>
<g>
</g>
</svg>
