<?xml version="1.0" encoding="iso-8859-1"?>
<!-- Generator: Adobe Illustrator 16.0.0, SVG Export Plug-In . SVG Version: 6.00 Build 0)  -->
<!DOCTYPE svg PUBLIC "-//W3C//DTD SVG 1.1//EN" "http://www.w3.org/Graphics/SVG/1.1/DTD/svg11.dtd">
<svg version="1.1" id="Layer_1" xmlns="http://www.w3.org/2000/svg" xmlns:xlink="http://www.w3.org/1999/xlink" x="0px" y="0px"
	 width="70px" height="64.001px" viewBox="0 0 70 64.001" style="enable-background:new 0 0 70 64.001;" xml:space="preserve">
<g id="Cloud_6_">
	<g>
		<path style="fill-rule:evenodd;clip-rule:evenodd;fill:#CCCCCC;" d="M61.097,40.271c0.815-1.794,1.279-3.777,1.279-5.87
			c0-7.952-6.548-14.399-14.625-14.399c-5.369,0-10.05,2.857-12.593,7.104c-1.13-0.45-2.362-0.704-3.657-0.704
			c-4.254,0-7.862,2.687-9.194,6.428c-0.185-0.01-0.368-0.027-0.556-0.027c-5.385,0-9.75,4.298-9.75,9.6s4.365,9.601,9.75,9.601
			H57.5c3.59,0,6.5-2.866,6.5-6.4C64,43.375,62.846,41.417,61.097,40.271z"/>
	</g>
</g>
<g id="Cloud_7_">
	<g>
		<path style="fill-rule:evenodd;clip-rule:evenodd;fill:#999999;" d="M1.375,36.601c0,1.832,0.394,3.566,1.087,5.136
			C0.98,42.739,0,44.452,0,46.4c0,3.093,2.463,5.601,5.5,5.601h4.021C7.322,49.261,6,45.787,6,42.001
			c0-8.343,6.386-15.186,14.536-15.926c-1.947-1.309-4.277-2.074-6.786-2.074C6.916,24.001,1.375,29.642,1.375,36.601z"/>
	</g>
</g>
<g id="Sun_2_">
	<g>
		<path style="fill-rule:evenodd;clip-rule:evenodd;fill:#FFCC66;" d="M55.589,9.001c-3.624,2.092-4.079-0.244-5.997,0.863
			c-0.482,0.279-0.768,0.66-0.975,1.026c-0.518-0.616-1.079-1.194-1.714-1.69c-0.004-0.466,0.04-0.975,0.258-1.354
			c0.713-1.234,1.71-0.712,2.662-2.36c0.51-0.883,0.08-2.552-0.823-3.073c-2.092,3.623-3.653,1.828-4.761,3.747
			c-0.278,0.48-0.334,0.953-0.332,1.373c-0.75-0.279-1.523-0.509-2.34-0.624c-0.232-0.397-0.443-0.852-0.443-1.283
			c0-1.425,1.125-1.472,1.125-3.374C42.25,1.23,41.043,0,40,0c0,4.184-2.25,3.411-2.25,5.625c0,0.535,0.176,0.958,0.377,1.314
			c-0.807,0.136-1.569,0.379-2.304,0.679c-0.403-0.229-0.819-0.521-1.037-0.897c-0.713-1.234,0.238-1.837-0.713-3.485
			c-0.51-0.883-2.17-1.345-3.073-0.824c2.092,3.624-0.243,4.079,0.864,5.997c0.279,0.483,0.662,0.77,1.029,0.977
			c-0.619,0.517-1.2,1.077-1.699,1.712c-0.464,0.004-0.971-0.04-1.349-0.258c-1.234-0.713-0.712-1.711-2.36-2.662
			c-0.883-0.51-2.552-0.08-3.073,0.824c3.623,2.092,1.828,3.653,3.746,4.761c0.476,0.274,0.943,0.331,1.361,0.33
			c-0.281,0.753-0.513,1.53-0.627,2.35c-0.394,0.228-0.841,0.435-1.266,0.435c-1.426,0-1.472-1.125-3.375-1.125
			c-1.02,0-2.25,1.207-2.25,2.249c4.184,0,3.41,2.25,5.625,2.25c0.527,0,0.945-0.171,1.299-0.368
			c0.023,0.139,0.067,0.271,0.097,0.406c0.966-0.182,1.96-0.287,2.979-0.287c0.293,0,0.579,0.028,0.868,0.044
			c3.943-3.742,9.266-6.044,15.132-6.044c0.85,0,1.687,0.053,2.511,0.146c-0.042-0.11-0.076-0.227-0.121-0.336
			c0.228-0.399,0.516-0.809,0.89-1.024c1.234-0.713,1.837,0.238,3.485-0.713C55.648,11.564,56.111,9.904,55.589,9.001z"/>
	</g>
</g>
<g id="Wind_7_">
	<g>
		<path style="fill-rule:evenodd;clip-rule:evenodd;fill:#48A0DC;" d="M28,48.001h8c1.104,0,2-0.896,2-2s-0.896-2-2-2h-8
			c-1.104,0-2,0.896-2,2S26.896,48.001,28,48.001z M50,52.001H28c-1.104,0-2,0.895-2,2c0,1.104,0.896,2,2,2h16.367H50
			c1.104,0,2,0.895,2,2c0,1.104-0.896,2-2,2c-1.105,0-2,0.895-2,2c0,1.104,0.895,2,2,2c3.313,0,6-2.687,6-6
			C56,54.687,53.314,52.001,50,52.001z M58,36.001c-1.104,0-2,0.895-2,2c0,1.104,0.896,2,2,2s2,0.895,2,2c0,1.104-0.896,2-2,2
			h-5.633H44c-1.105,0-2,0.896-2,2s0.895,2,2,2h14c3.313,0,6-2.687,6-6C64,38.687,61.314,36.001,58,36.001z"/>
	</g>
</g>
<g>
</g>
<g>
</g>
<g>
</g>
<g>
</g>
<g>
</g>
<g>
</g>
<g>
</g>
<g>
</g>
<g>
</g>
<g>
</g>
<g>
</g>
<g>
</g>
<g>
</g>
<g>
</g>
<g>
</g>
</svg>
