<?xml version="1.0" encoding="iso-8859-1"?>
<!-- Generator: Adobe Illustrator 16.0.0, SVG Export Plug-In . SVG Version: 6.00 Build 0)  -->
<!DOCTYPE svg PUBLIC "-//W3C//DTD SVG 1.1//EN" "http://www.w3.org/Graphics/SVG/1.1/DTD/svg11.dtd">
<svg version="1.1" id="Layer_1" xmlns="http://www.w3.org/2000/svg" xmlns:xlink="http://www.w3.org/1999/xlink" x="0px" y="0px"
	 width="70px" height="66.001px" viewBox="0 0 70 66.001" style="enable-background:new 0 0 70 66.001;" xml:space="preserve">
<g id="Cloud_57_">
	<g>
		<path style="fill-rule:evenodd;clip-rule:evenodd;fill:#CCCCCC;" d="M61.096,44.271c0.815-1.794,1.279-3.777,1.279-5.87
			c0-7.953-6.548-14.399-14.625-14.399c-5.369,0-10.05,2.857-12.594,7.104c-1.13-0.45-2.362-0.704-3.656-0.704
			c-4.254,0-7.861,2.687-9.193,6.427c-0.186-0.01-0.369-0.027-0.557-0.027C16.365,36.8,12,41.099,12,46.4s4.365,9.6,9.75,9.6H57.5
			c3.59,0,6.5-2.864,6.5-6.399C64,47.375,62.846,45.417,61.096,44.271z"/>
	</g>
</g>
<g id="Cloud_58_">
	<g>
		<path style="fill-rule:evenodd;clip-rule:evenodd;fill:#999999;" d="M1.375,40.601c0,1.832,0.395,3.567,1.088,5.135
			C0.979,46.739,0,48.452,0,50.4C0,53.493,2.463,56,5.5,56h4.021C7.322,53.26,6,49.787,6,46.001c0-8.343,6.386-15.186,14.535-15.926
			C18.589,28.766,16.26,28,13.75,28C6.916,28,1.375,33.642,1.375,40.601z"/>
	</g>
</g>
<g id="Sun_12_">
	<g>
		<path style="fill-rule:evenodd;clip-rule:evenodd;fill:#FFCC66;" d="M50.375,15.75c-0.527,0-0.944,0.172-1.299,0.37
			c-0.138-0.809-0.384-1.572-0.686-2.309c0.228-0.398,0.516-0.809,0.889-1.024c1.234-0.713,1.838,0.238,3.485-0.713
			c0.883-0.511,1.346-2.17,0.824-3.073c-3.623,2.092-4.079-0.244-5.997,0.863c-0.482,0.278-0.768,0.66-0.975,1.026
			c-0.518-0.616-1.078-1.194-1.714-1.69c-0.005-0.466,0.039-0.976,0.259-1.354c0.712-1.234,1.71-0.712,2.661-2.36
			c0.51-0.883,0.08-2.552-0.823-3.073c-2.092,3.623-3.653,1.828-4.761,3.746c-0.278,0.481-0.334,0.954-0.331,1.374
			c-0.75-0.279-1.523-0.509-2.341-0.624c-0.231-0.397-0.442-0.852-0.442-1.282c0-1.426,1.125-1.473,1.125-3.375
			C40.25,1.23,39.043,0,38,0c0,4.184-2.25,3.411-2.25,5.626c0,0.534,0.176,0.957,0.377,1.313c-0.807,0.137-1.569,0.381-2.304,0.68
			c-0.403-0.229-0.819-0.521-1.036-0.897c-0.713-1.234,0.237-1.837-0.714-3.485c-0.51-0.883-2.17-1.345-3.073-0.823
			c2.092,3.623-0.243,4.078,0.864,5.996c0.278,0.483,0.662,0.769,1.029,0.977c-0.62,0.517-1.201,1.077-1.699,1.712
			c-0.465,0.004-0.972-0.04-1.349-0.258c-1.234-0.713-0.713-1.711-2.361-2.662c-0.882-0.51-2.552-0.08-3.073,0.824
			c3.624,2.092,1.829,3.653,3.747,4.761c0.476,0.274,0.942,0.331,1.36,0.331c-0.28,0.752-0.513,1.529-0.627,2.349
			c-0.395,0.228-0.842,0.435-1.267,0.435c-1.426,0-1.473-1.126-3.375-1.126C21.23,15.75,20,16.957,20,18
			c4.184,0,3.41,2.251,5.625,2.251c0.527,0,0.944-0.172,1.299-0.37c0.138,0.809,0.384,1.572,0.686,2.309
			c-0.228,0.399-0.516,0.809-0.889,1.024c-1.234,0.713-1.838-0.238-3.485,0.713c-0.884,0.51-1.346,2.17-0.824,3.073
			c0.397-0.229,0.751-0.397,1.078-0.531c2.467-1.555,5.379-2.468,8.511-2.468c0.295,0,0.582,0.028,0.873,0.044
			c3.942-3.741,9.263-6.044,15.127-6.044c2.615,0,5.122,0.459,7.448,1.296C55.776,18.902,56,18.439,56,18.001
			C51.816,18.001,52.59,15.75,50.375,15.75z"/>
	</g>
</g>
<g>
</g>
<g>
</g>
<g>
</g>
<g>
</g>
<g>
</g>
<g>
</g>
<g>
</g>
<g>
</g>
<g>
</g>
<g>
</g>
<g>
</g>
<g>
</g>
<g>
</g>
<g>
</g>
<g>
</g>
</svg>
