<?xml version="1.0" encoding="iso-8859-1"?>
<!-- Generator: Adobe Illustrator 16.0.0, SVG Export Plug-In . SVG Version: 6.00 Build 0)  -->
<!DOCTYPE svg PUBLIC "-//W3C//DTD SVG 1.1//EN" "http://www.w3.org/Graphics/SVG/1.1/DTD/svg11.dtd">
<svg version="1.1" id="Layer_1" xmlns="http://www.w3.org/2000/svg" xmlns:xlink="http://www.w3.org/1999/xlink" x="0px" y="0px"
	 width="76px" height="77.75px" viewBox="0 0 76 77.75" style="enable-background:new 0 0 76 77.75;" xml:space="preserve">
<g id="Moon_7_">
	<g>
		<path style="fill-rule:evenodd;clip-rule:evenodd;fill:#666666;" d="M11.896,37.75c2.577-5.179,7.567-8.932,13.509-9.792
			C24.345,25.519,23.75,22.83,23.75,20c0-1.9,0.282-3.731,0.777-5.473C16.146,16.91,10,24.604,10,33.75c0,1.374,0.16,2.707,0.43,4
			H11.896z"/>
	</g>
</g>
<g id="Cloud_25_">
	<g>
		<path style="fill-rule:evenodd;clip-rule:evenodd;fill:#999999;" d="M64.426,51.087C65.43,48.845,66,46.366,66,43.75
			c0-9.941-8.059-18.001-18-18.001c-6.609,0-12.37,3.572-15.5,8.882c-1.391-0.563-2.907-0.881-4.5-0.881
			c-5.236,0-9.676,3.358-11.315,8.034C16.457,41.771,16.231,41.75,16,41.75c-6.628,0-12,5.372-12,11.999c0,6.628,5.372,12,12,12h44
			c4.418,0,8-3.581,8-7.999C68,54.969,66.58,52.521,64.426,51.087z"/>
	</g>
</g>
<g id="Lightning_2_">
	<g>
		<polygon style="fill:#FFCC66;" points="46,57.75 40,57.75 44.526,39.75 26,61.75 32,61.75 30,77.75 		"/>
	</g>
</g>
<g>
</g>
<g>
</g>
<g>
</g>
<g>
</g>
<g>
</g>
<g>
</g>
<g>
</g>
<g>
</g>
<g>
</g>
<g>
</g>
<g>
</g>
<g>
</g>
<g>
</g>
<g>
</g>
<g>
</g>
</svg>
