<?xml version="1.0" encoding="iso-8859-1"?>
<!-- Generator: Adobe Illustrator 16.0.0, SVG Export Plug-In . SVG Version: 6.00 Build 0)  -->
<!DOCTYPE svg PUBLIC "-//W3C//DTD SVG 1.1//EN" "http://www.w3.org/Graphics/SVG/1.1/DTD/svg11.dtd">
<svg version="1.1" id="Layer_1" xmlns="http://www.w3.org/2000/svg" xmlns:xlink="http://www.w3.org/1999/xlink" x="0px" y="0px"
	 width="66px" height="64.036px" viewBox="0 0 66 64.036" style="enable-background:new 0 0 66 64.036;" xml:space="preserve">
<g id="Cloud_39_">
	<g>
		<path style="fill-rule:evenodd;clip-rule:evenodd;fill:#999999;" d="M34.25,0c-4.546,0-8.508,2.503-10.659,6.222
			C22.635,5.827,21.595,5.6,20.5,5.6c-3.602,0-6.632,2.364-7.757,5.64c-0.166-0.01-0.325-0.04-0.493-0.04
			C7.693,11.199,4,14.96,4,19.6c0,1.933,0.646,3.708,1.725,5.126c2.156-1.585,4.777-2.562,7.625-2.692
			C15.592,17.289,20.405,14,26,14c1.271,0,2.497,0.185,3.668,0.502c3.408-4.818,8.881-8.073,15.145-8.442
			C42.641,2.431,38.729,0,34.25,0z"/>
	</g>
</g>
<g id="Cloud_40_">
	<g>
		<path style="fill-rule:evenodd;clip-rule:evenodd;fill:#CCCCCC;" d="M62.426,37.337C63.43,35.095,64,32.616,64,30
			c0-9.941-8.059-18-18-18c-6.608,0-12.369,3.572-15.5,8.88c-1.391-0.563-2.908-0.881-4.5-0.881c-5.236,0-9.676,3.359-11.315,8.035
			C14.457,28.021,14.231,28,14,28C7.372,28,2,33.372,2,39.999c0,6.628,5.372,12,12,12h44c4.418,0,8-3.581,8-7.999
			C66,41.219,64.58,38.771,62.426,37.337z"/>
	</g>
</g>
<g id="Shower_Rain_5_">
	<g>
		<path style="fill-rule:evenodd;clip-rule:evenodd;fill:#48A0DC;" d="M27,42.24c-0.957-0.571-2.18-0.232-2.732,0.758l-6,9.933
			c-0.552,0.99-0.225,2.257,0.732,2.828c0.956,0.571,2.18,0.232,2.731-0.758l6.001-9.932C28.284,44.078,27.956,42.813,27,42.24z
			 M39,42.24c-0.957-0.571-2.18-0.232-2.732,0.758l-10,17.933c-0.552,0.99-0.225,2.257,0.732,2.828
			c0.956,0.571,2.18,0.232,2.731-0.758l10-17.932C40.284,44.078,39.956,42.813,39,42.24z M51,42.24
			c-0.957-0.571-2.18-0.232-2.732,0.758l-6,9.933c-0.552,0.99-0.225,2.257,0.732,2.828c0.956,0.571,2.18,0.232,2.732-0.758l6-9.932
			C52.284,44.078,51.956,42.813,51,42.24z"/>
	</g>
</g>
<g>
</g>
<g>
</g>
<g>
</g>
<g>
</g>
<g>
</g>
<g>
</g>
<g>
</g>
<g>
</g>
<g>
</g>
<g>
</g>
<g>
</g>
<g>
</g>
<g>
</g>
<g>
</g>
<g>
</g>
</svg>
