<?xml version="1.0" encoding="iso-8859-1"?>
<!-- Generator: Adobe Illustrator 16.0.0, SVG Export Plug-In . SVG Version: 6.00 Build 0)  -->
<!DOCTYPE svg PUBLIC "-//W3C//DTD SVG 1.1//EN" "http://www.w3.org/Graphics/SVG/1.1/DTD/svg11.dtd">
<svg version="1.1" id="Layer_1" xmlns="http://www.w3.org/2000/svg" xmlns:xlink="http://www.w3.org/1999/xlink" x="0px" y="0px"
	 width="64px" height="63.692px" viewBox="0 0 64 63.692" style="enable-background:new 0 0 64 63.692;" xml:space="preserve">
<g id="Cloud_43_">
	<g>
		<path style="fill-rule:evenodd;clip-rule:evenodd;fill:#CCCCCC;" d="M60.426,37.339C61.43,35.096,62,32.617,62,30.001
			c0-9.941-8.059-18-18-18c-6.608,0-12.369,3.572-15.5,8.881c-1.391-0.563-2.907-0.881-4.5-0.881c-5.236,0-9.677,3.358-11.315,8.034
			c-0.228-0.013-0.453-0.034-0.685-0.034c-6.628,0-12,5.372-12,12c0,6.627,5.372,12,12,12h44c4.418,0,8-3.582,8-8
			C64,41.22,62.579,38.772,60.426,37.339z"/>
	</g>
</g>
<g id="Star_4_">
	<g>
		<path style="fill:#FFCC66;" d="M15.956,6.045c-0.101-0.328-0.361-0.572-0.681-0.636l-4.358-0.875L8.775,0.482
			C8.618,0.185,8.321,0,8,0C7.678,0,7.381,0.185,7.224,0.482L5.083,4.534L0.724,5.409c-0.319,0.063-0.58,0.308-0.681,0.636
			c-0.1,0.328-0.022,0.688,0.202,0.937l3.027,3.374L2.724,14.94c-0.041,0.34,0.096,0.676,0.356,0.878C3.235,15.938,3.42,16,3.605,16
			c0.126,0,0.254-0.028,0.373-0.087L8,13.943l4.021,1.97C12.14,15.972,12.267,16,12.394,16c0.187,0,0.37-0.062,0.525-0.182
			c0.261-0.202,0.397-0.538,0.356-0.878l-0.549-4.585l3.027-3.374C15.979,6.732,16.056,6.373,15.956,6.045z"/>
	</g>
</g>
<g id="Hail_1_">
	<g>
		<path style="fill-rule:evenodd;clip-rule:evenodd;fill:#54BBFF;" d="M13.374,63.568c0.589-0.306,3.695-0.953,3.695-0.953
			s0.78-6.592,0.761-6.603c-0.01-0.006-5.468,3.945-5.468,3.945S13.375,62.928,13.374,63.568z M13.301,63.685
			c0.052,0.025,0.073-0.021,0.073-0.116C13.282,63.616,13.246,63.657,13.301,63.685z M48.362,59.958l0.938,3.727l3.769-1.069
			c0,0,0.78-6.592,0.761-6.603C53.82,56.007,48.362,59.958,48.362,59.958z M31.301,63.685l3.769-1.069c0,0,0.78-6.592,0.761-6.603
			c-0.01-0.006-5.468,3.945-5.468,3.945L31.301,63.685z"/>
	</g>
</g>
<g>
</g>
<g>
</g>
<g>
</g>
<g>
</g>
<g>
</g>
<g>
</g>
<g>
</g>
<g>
</g>
<g>
</g>
<g>
</g>
<g>
</g>
<g>
</g>
<g>
</g>
<g>
</g>
<g>
</g>
</svg>
