<?xml version="1.0" encoding="iso-8859-1"?>
<!-- Generator: Adobe Illustrator 16.0.0, SVG Export Plug-In . SVG Version: 6.00 Build 0)  -->
<!DOCTYPE svg PUBLIC "-//W3C//DTD SVG 1.1//EN" "http://www.w3.org/Graphics/SVG/1.1/DTD/svg11.dtd">
<svg version="1.1" id="Layer_1" xmlns="http://www.w3.org/2000/svg" xmlns:xlink="http://www.w3.org/1999/xlink" x="0px" y="0px"
	 width="66px" height="63.684px" viewBox="0 0 66 63.684" style="enable-background:new 0 0 66 63.684;" xml:space="preserve">
<g id="Cloud_50_">
	<g>
		<path style="fill-rule:evenodd;clip-rule:evenodd;fill:#999999;" d="M34.25,0c-4.546,0-8.508,2.502-10.659,6.221
			C22.635,5.827,21.595,5.6,20.5,5.6c-3.602,0-6.632,2.364-7.757,5.641c-0.166-0.011-0.325-0.041-0.493-0.041
			C7.693,11.199,4,14.96,4,19.6c0,1.933,0.646,3.708,1.725,5.126c2.156-1.585,4.777-2.562,7.625-2.692
			C15.592,17.289,20.405,14,26,14c1.271,0,2.497,0.185,3.668,0.502c3.408-4.818,8.881-8.073,15.145-8.442
			C42.641,2.431,38.729,0,34.25,0z"/>
	</g>
</g>
<g id="Cloud_51_">
	<g>
		<path style="fill-rule:evenodd;clip-rule:evenodd;fill:#CCCCCC;" d="M62.426,37.338C63.43,35.095,64,32.616,64,30
			c0-9.941-8.059-18-18-18c-6.608,0-12.369,3.572-15.5,8.88c-1.391-0.563-2.908-0.881-4.5-0.881c-5.236,0-9.677,3.359-11.315,8.035
			C14.457,28.021,14.231,28,14,28C7.372,28,2,33.372,2,39.999c0,6.628,5.372,12,12,12h44c4.418,0,8-3.581,8-7.999
			C66,41.219,64.58,38.771,62.426,37.338z"/>
	</g>
</g>
<g id="Hail_6_">
	<g>
		<path style="fill-rule:evenodd;clip-rule:evenodd;fill:#54BBFF;" d="M15.301,63.684l3.769-1.069c0,0,0.78-6.592,0.761-6.603
			c-0.01-0.006-5.468,3.945-5.468,3.945L15.301,63.684z M50.362,59.957l0.938,3.727l3.769-1.069c0,0,0.78-6.592,0.761-6.603
			C55.82,56.006,50.362,59.957,50.362,59.957z M33.301,63.684l3.769-1.069c0,0,0.78-6.592,0.761-6.603
			c-0.01-0.006-5.468,3.945-5.468,3.945L33.301,63.684z"/>
	</g>
</g>
<g>
</g>
<g>
</g>
<g>
</g>
<g>
</g>
<g>
</g>
<g>
</g>
<g>
</g>
<g>
</g>
<g>
</g>
<g>
</g>
<g>
</g>
<g>
</g>
<g>
</g>
<g>
</g>
<g>
</g>
</svg>
