<?xml version="1.0" encoding="iso-8859-1"?>
<!-- Generator: Adobe Illustrator 16.0.0, SVG Export Plug-In . SVG Version: 6.00 Build 0)  -->
<!DOCTYPE svg PUBLIC "-//W3C//DTD SVG 1.1//EN" "http://www.w3.org/Graphics/SVG/1.1/DTD/svg11.dtd">
<svg version="1.1" id="Layer_1" xmlns="http://www.w3.org/2000/svg" xmlns:xlink="http://www.w3.org/1999/xlink" x="0px" y="0px"
	 width="64px" height="64.001px" viewBox="0 0 64 64.001" style="enable-background:new 0 0 64 64.001;" xml:space="preserve">
<g id="Cloud_22_">
	<g>
		<path style="fill-rule:evenodd;clip-rule:evenodd;fill:#999999;" d="M60.426,37.339C61.43,35.096,62,32.617,62,30.001
			C62,20.06,53.94,12,44,12c-6.609,0-12.369,3.572-15.5,8.882c-1.391-0.563-2.907-0.881-4.5-0.881
			c-5.236,0-9.677,3.358-11.315,8.034c-0.228-0.013-0.453-0.034-0.685-0.034c-6.628,0-12,5.372-12,12c0,6.627,5.372,12,12,12h44
			c4.418,0,8-3.582,8-8C64,41.22,62.579,38.772,60.426,37.339z"/>
	</g>
</g>
<g id="Star_2_">
	<g>
		<path style="fill:#FFCC66;" d="M15.956,6.045c-0.101-0.328-0.361-0.571-0.681-0.636l-4.358-0.875L8.775,0.482
			C8.618,0.185,8.321,0,8,0C7.678,0,7.381,0.185,7.224,0.482L5.083,4.534L0.724,5.409c-0.319,0.064-0.58,0.308-0.681,0.636
			c-0.1,0.328-0.022,0.688,0.202,0.937l3.027,3.374L2.724,14.94c-0.041,0.34,0.096,0.676,0.356,0.878C3.235,15.938,3.42,16,3.605,16
			c0.126,0,0.254-0.028,0.373-0.087L8,13.943l4.021,1.97C12.14,15.972,12.267,16,12.394,16c0.186,0,0.37-0.062,0.525-0.182
			c0.261-0.202,0.397-0.538,0.356-0.878l-0.549-4.585l3.027-3.374C15.979,6.732,16.056,6.373,15.956,6.045z"/>
	</g>
</g>
<g id="Lightning">
	<g>
		<polygon style="fill:#FFCC66;" points="42,44.001 36,44.001 40.526,26.001 22,48.001 28,48.001 26,64.001 		"/>
	</g>
</g>
<g>
</g>
<g>
</g>
<g>
</g>
<g>
</g>
<g>
</g>
<g>
</g>
<g>
</g>
<g>
</g>
<g>
</g>
<g>
</g>
<g>
</g>
<g>
</g>
<g>
</g>
<g>
</g>
<g>
</g>
</svg>
