<?xml version="1.0" encoding="iso-8859-1"?>
<!-- Generator: Adobe Illustrator 16.0.0, SVG Export Plug-In . SVG Version: 6.00 Build 0)  -->
<!DOCTYPE svg PUBLIC "-//W3C//DTD SVG 1.1//EN" "http://www.w3.org/Graphics/SVG/1.1/DTD/svg11.dtd">
<svg version="1.1" id="Layer_1" xmlns="http://www.w3.org/2000/svg" xmlns:xlink="http://www.w3.org/1999/xlink" x="0px" y="0px"
	 width="76px" height="77.75px" viewBox="0 0 76 77.75" style="enable-background:new 0 0 76 77.75;" xml:space="preserve">
<g id="Moon_5_">
	<g>
		<path style="fill-rule:evenodd;clip-rule:evenodd;fill:#666666;" d="M11.896,37.75c2.577-5.179,7.567-8.933,13.509-9.793
			c-1.06-2.439-1.655-5.128-1.655-7.957c0-1.9,0.282-3.732,0.777-5.474C16.146,16.909,10,24.604,10,33.75c0,1.374,0.16,2.707,0.43,4
			H11.896z"/>
	</g>
</g>
<g id="Cloud_15_">
	<g>
		<path style="fill-rule:evenodd;clip-rule:evenodd;fill:#CCCCCC;" d="M64.426,51.088C65.43,48.845,66,46.365,66,43.749
			c0-9.94-8.059-17.999-18-17.999c-6.608,0-12.369,3.572-15.5,8.88c-1.391-0.563-2.908-0.881-4.5-0.881
			c-5.236,0-9.676,3.359-11.315,8.035C16.457,41.771,16.231,41.75,16,41.75c-6.628,0-12,5.372-12,11.999
			C4,60.377,9.372,65.75,16,65.75h44c4.418,0,8-3.582,8-8.001C68,54.968,66.579,52.521,64.426,51.088z"/>
	</g>
</g>
<g id="Snowflake_2_">
	<g>
		<path style="fill-rule:evenodd;clip-rule:evenodd;fill:#48A0DC;" d="M45.092,70.018l-5.327-3.268l5.327-3.268
			c0.9-0.553,1.209-1.775,0.689-2.732c-0.521-0.957-1.672-1.284-2.572-0.732L38,63.213V57.75c0-1.104-0.896-2-2-2s-2,0.896-2,2
			v5.464l-5.21-3.196c-0.9-0.552-2.052-0.225-2.571,0.732s-0.211,2.18,0.689,2.732l5.327,3.268l-5.327,3.268
			c-0.9,0.553-1.209,1.775-0.689,2.732s1.671,1.284,2.571,0.731L34,70.286v5.464c0,1.104,0.896,2,2,2s2-0.896,2-2v-5.464
			l5.209,3.195c0.9,0.553,2.052,0.226,2.572-0.731C46.301,71.793,45.992,70.57,45.092,70.018z"/>
	</g>
</g>
<g>
</g>
<g>
</g>
<g>
</g>
<g>
</g>
<g>
</g>
<g>
</g>
<g>
</g>
<g>
</g>
<g>
</g>
<g>
</g>
<g>
</g>
<g>
</g>
<g>
</g>
<g>
</g>
<g>
</g>
</svg>
