<?xml version="1.0" encoding="iso-8859-1"?>
<!-- Generator: Adobe Illustrator 16.0.0, SVG Export Plug-In . SVG Version: 6.00 Build 0)  -->
<!DOCTYPE svg PUBLIC "-//W3C//DTD SVG 1.1//EN" "http://www.w3.org/Graphics/SVG/1.1/DTD/svg11.dtd">
<svg version="1.1" id="Layer_1" xmlns="http://www.w3.org/2000/svg" xmlns:xlink="http://www.w3.org/1999/xlink" x="0px" y="0px"
	 width="84px" height="86px" viewBox="0 0 84 86" style="enable-background:new 0 0 84 86;" xml:space="preserve">
<g id="Cloud_13_">
	<g>
		<path style="fill-rule:evenodd;clip-rule:evenodd;fill:#CCCCCC;" d="M61.096,62.27c0.815-1.794,1.279-3.777,1.279-5.87
			C62.375,48.446,55.827,42,47.75,42c-5.37,0-10.05,2.857-12.593,7.104c-1.13-0.45-2.363-0.704-3.657-0.704
			c-4.254,0-7.862,2.687-9.194,6.428c-0.185-0.01-0.368-0.027-0.556-0.027c-5.385,0-9.75,4.298-9.75,9.6S16.365,74,21.75,74H57.5
			c3.59,0,6.5-2.866,6.5-6.4C64,65.374,62.846,63.416,61.096,62.27z"/>
	</g>
</g>
<g id="Cloud_14_">
	<g>
		<path style="fill-rule:evenodd;clip-rule:evenodd;fill:#999999;" d="M13.861,50.242c-1.104-1.206-2.106-2.507-3.003-3.882
			C5.421,47.688,1.375,52.656,1.375,58.6c0,1.832,0.395,3.567,1.088,5.135C0.979,64.738,0,66.451,0,68.399C0,71.492,2.462,74,5.5,74
			h4.021C7.322,71.26,6,67.786,6,64C6,58.138,9.159,53.026,13.861,50.242z"/>
	</g>
</g>
<g id="Moon_4_">
	<g>
		<path style="fill-rule:evenodd;clip-rule:evenodd;fill:#666666;" d="M34.527,22.776C26.146,25.159,20,32.854,20,42
			c0,1.373,0.154,2.707,0.422,4h0.964c3.036-2.354,6.792-3.813,10.894-3.968c1.319-1.298,2.812-2.417,4.436-3.332
			c-1.876-3.04-2.967-6.614-2.967-10.45C33.75,26.35,34.032,24.518,34.527,22.776z"/>
	</g>
</g>
<g id="Snowflake_1_">
	<g>
		<path style="fill-rule:evenodd;clip-rule:evenodd;fill:#48A0DC;" d="M47.092,78.268L41.765,75l5.327-3.268
			c0.9-0.553,1.209-1.775,0.689-2.732c-0.521-0.957-1.672-1.284-2.572-0.732L40,71.463V66c0-1.104-0.896-2-2-2s-2,0.896-2,2v5.464
			l-5.21-3.196c-0.9-0.552-2.052-0.225-2.571,0.732s-0.211,2.18,0.689,2.732L34.235,75l-5.327,3.268
			c-0.9,0.553-1.209,1.775-0.689,2.732s1.671,1.284,2.571,0.731L36,78.536V84c0,1.104,0.896,2,2,2s2-0.896,2-2v-5.464l5.209,3.195
			c0.9,0.553,2.052,0.226,2.572-0.731C48.301,80.043,47.992,78.82,47.092,78.268z"/>
	</g>
</g>
<g>
</g>
<g>
</g>
<g>
</g>
<g>
</g>
<g>
</g>
<g>
</g>
<g>
</g>
<g>
</g>
<g>
</g>
<g>
</g>
<g>
</g>
<g>
</g>
<g>
</g>
<g>
</g>
<g>
</g>
</svg>
