<?xml version="1.0" encoding="iso-8859-1"?>
<!-- Generator: Adobe Illustrator 16.0.0, SVG Export Plug-In . SVG Version: 6.00 Build 0)  -->
<!DOCTYPE svg PUBLIC "-//W3C//DTD SVG 1.1//EN" "http://www.w3.org/Graphics/SVG/1.1/DTD/svg11.dtd">
<svg version="1.1" id="Layer_1" xmlns="http://www.w3.org/2000/svg" xmlns:xlink="http://www.w3.org/1999/xlink" x="0px" y="0px"
	 width="70px" height="64.001px" viewBox="0 0 70 64.001" style="enable-background:new 0 0 70 64.001;" xml:space="preserve">
<g id="Cloud_16_">
	<g>
		<path style="fill-rule:evenodd;clip-rule:evenodd;fill:#CCCCCC;" d="M61.096,40.271c0.815-1.794,1.279-3.777,1.279-5.87
			c0-7.953-6.548-14.399-14.625-14.399c-5.37,0-10.05,2.857-12.593,7.104c-1.13-0.45-2.363-0.704-3.657-0.704
			c-4.254,0-7.862,2.687-9.194,6.428c-0.185-0.01-0.368-0.027-0.556-0.027c-5.385,0-9.75,4.298-9.75,9.6s4.365,9.601,9.75,9.601
			H57.5c3.59,0,6.5-2.866,6.5-6.4C64,43.375,62.846,41.417,61.096,40.271z"/>
	</g>
</g>
<g id="Cloud_17_">
	<g>
		<path style="fill-rule:evenodd;clip-rule:evenodd;fill:#999999;" d="M1.375,36.601c0,1.832,0.395,3.567,1.088,5.135
			C0.979,42.739,0,44.452,0,46.4c0,3.093,2.462,5.601,5.5,5.601h4.021C7.322,49.261,6,45.787,6,42.001
			c0-8.343,6.386-15.186,14.535-15.926c-1.947-1.309-4.276-2.074-6.785-2.074C6.915,24.001,1.375,29.642,1.375,36.601z"/>
	</g>
</g>
<g id="Sun_4_">
	<g>
		<path style="fill-rule:evenodd;clip-rule:evenodd;fill:#FFCC66;" d="M55.589,9.001c-3.623,2.091-4.079-0.244-5.997,0.863
			c-0.482,0.279-0.767,0.661-0.975,1.026c-0.518-0.616-1.078-1.194-1.714-1.69c-0.005-0.466,0.039-0.975,0.259-1.354
			c0.712-1.234,1.71-0.712,2.661-2.36c0.51-0.883,0.08-2.552-0.823-3.073c-2.092,3.623-3.653,1.828-4.761,3.746
			c-0.278,0.481-0.334,0.954-0.331,1.374c-0.75-0.279-1.524-0.509-2.341-0.624c-0.231-0.397-0.442-0.853-0.442-1.282
			c0-1.426,1.125-1.473,1.125-3.375C42.25,1.231,41.043,0,40,0c0,4.185-2.25,3.411-2.25,5.626c0,0.534,0.176,0.956,0.377,1.313
			c-0.806,0.137-1.569,0.38-2.304,0.68c-0.403-0.229-0.819-0.521-1.036-0.897c-0.713-1.234,0.237-1.837-0.714-3.485
			C33.563,2.353,31.903,1.89,31,2.412c2.092,3.623-0.243,4.078,0.864,5.996c0.278,0.483,0.662,0.769,1.029,0.977
			c-0.62,0.517-1.201,1.077-1.699,1.712c-0.465,0.004-0.972-0.04-1.349-0.258c-1.234-0.713-0.713-1.711-2.36-2.662
			c-0.884-0.51-2.552-0.08-3.074,0.824c3.624,2.091,1.828,3.653,3.747,4.76c0.476,0.275,0.942,0.333,1.36,0.332
			c-0.281,0.752-0.513,1.529-0.627,2.349c-0.395,0.228-0.842,0.435-1.267,0.435c-1.426,0-1.473-1.125-3.375-1.125
			C23.23,15.751,22,16.957,22,18c4.184,0,3.41,2.251,5.625,2.251c0.527,0,0.944-0.172,1.299-0.369
			c0.023,0.139,0.067,0.271,0.097,0.407c0.966-0.183,1.96-0.288,2.979-0.288c0.293,0,0.579,0.028,0.868,0.044
			c3.943-3.743,9.266-6.044,15.132-6.044c0.85,0,1.686,0.053,2.51,0.146c-0.042-0.11-0.076-0.226-0.121-0.335
			c0.229-0.4,0.517-0.81,0.89-1.025c1.234-0.712,1.838,0.238,3.485-0.713C55.647,11.563,56.11,9.904,55.589,9.001z"/>
	</g>
</g>
<g id="Snowflake_3_">
	<g>
		<path style="fill-rule:evenodd;clip-rule:evenodd;fill:#48A0DC;" d="M47.092,56.269l-5.327-3.268l5.327-3.268
			c0.9-0.553,1.209-1.775,0.689-2.732c-0.521-0.957-1.672-1.284-2.572-0.732L40,49.464v-5.463c0-1.104-0.896-2-2-2s-2,0.896-2,2
			v5.464l-5.21-3.196c-0.9-0.552-2.052-0.225-2.571,0.732s-0.211,2.18,0.689,2.732l5.327,3.268l-5.327,3.268
			c-0.9,0.553-1.209,1.775-0.689,2.732s1.671,1.284,2.571,0.731L36,56.537v5.464c0,1.104,0.896,2,2,2s2-0.896,2-2v-5.464
			l5.209,3.195c0.9,0.553,2.052,0.226,2.572-0.731C48.301,58.044,47.992,56.821,47.092,56.269z"/>
	</g>
</g>
<g>
</g>
<g>
</g>
<g>
</g>
<g>
</g>
<g>
</g>
<g>
</g>
<g>
</g>
<g>
</g>
<g>
</g>
<g>
</g>
<g>
</g>
<g>
</g>
<g>
</g>
<g>
</g>
<g>
</g>
</svg>
