<?xml version="1.0" encoding="iso-8859-1"?>
<!-- Generator: Adobe Illustrator 16.0.0, SVG Export Plug-In . SVG Version: 6.00 Build 0)  -->
<!DOCTYPE svg PUBLIC "-//W3C//DTD SVG 1.1//EN" "http://www.w3.org/Graphics/SVG/1.1/DTD/svg11.dtd">
<svg version="1.1" id="Layer_1" xmlns="http://www.w3.org/2000/svg" xmlns:xlink="http://www.w3.org/1999/xlink" x="0px" y="0px"
	 width="84px" height="86px" viewBox="0 0 84 86" style="enable-background:new 0 0 84 86;" xml:space="preserve">
<g id="Cloud_23_">
	<g>
		<path style="fill-rule:evenodd;clip-rule:evenodd;fill:#999999;" d="M61.096,62.27c0.815-1.794,1.279-3.777,1.279-5.87
			C62.375,48.447,55.827,42,47.75,42c-5.369,0-10.05,2.857-12.594,7.104c-1.13-0.45-2.362-0.704-3.656-0.704
			c-4.254,0-7.862,2.687-9.193,6.428c-0.186-0.01-0.369-0.027-0.557-0.027c-5.385,0-9.75,4.298-9.75,9.6S16.365,74,21.75,74H57.5
			c3.59,0,6.5-2.866,6.5-6.4C64,65.374,62.846,63.416,61.096,62.27z"/>
	</g>
</g>
<g id="Cloud_24_">
	<g>
		<path style="fill-rule:evenodd;clip-rule:evenodd;fill:#808080;" d="M13.861,50.242c-1.104-1.206-2.105-2.507-3.003-3.882
			C5.421,47.688,1.375,52.656,1.375,58.6c0,1.832,0.395,3.566,1.088,5.135C0.979,64.738,0,66.451,0,68.399C0,71.492,2.462,74,5.5,74
			h4.021C7.322,71.26,6,67.786,6,64C6,58.138,9.159,53.026,13.861,50.242z"/>
	</g>
</g>
<g id="Moon_6_">
	<g>
		<path style="fill-rule:evenodd;clip-rule:evenodd;fill:#666666;" d="M34.527,22.777C26.146,25.16,20,32.854,20,42
			c0,1.373,0.154,2.707,0.423,4h0.964c3.035-2.354,6.791-3.813,10.893-3.967c1.32-1.298,2.813-2.418,4.438-3.333
			c-1.876-3.04-2.967-6.614-2.967-10.45C33.75,26.35,34.032,24.519,34.527,22.777z"/>
	</g>
</g>
<g id="Lightning_1_">
	<g>
		<polygon style="fill:#FFCC66;" points="48,66 42,66 46.526,48 28,70 34,70 32,86 		"/>
	</g>
</g>
<g>
</g>
<g>
</g>
<g>
</g>
<g>
</g>
<g>
</g>
<g>
</g>
<g>
</g>
<g>
</g>
<g>
</g>
<g>
</g>
<g>
</g>
<g>
</g>
<g>
</g>
<g>
</g>
<g>
</g>
</svg>
