<?xml version="1.0" encoding="iso-8859-1"?>
<!-- Generator: Adobe Illustrator 16.0.0, SVG Export Plug-In . SVG Version: 6.00 Build 0)  -->
<!DOCTYPE svg PUBLIC "-//W3C//DTD SVG 1.1//EN" "http://www.w3.org/Graphics/SVG/1.1/DTD/svg11.dtd">
<svg version="1.1" id="Layer_1" xmlns="http://www.w3.org/2000/svg" xmlns:xlink="http://www.w3.org/1999/xlink" x="0px" y="0px"
	 width="66px" height="64.001px" viewBox="0 0 66 64.001" style="enable-background:new 0 0 66 64.001;" xml:space="preserve">
<g id="Sun_5_">
	<g>
		<path style="fill-rule:evenodd;clip-rule:evenodd;fill:#FFCC66;" d="M7.695,26.413C10.56,20.269,16.774,16.001,24,16.001
			c0.974,0,1.923,0.099,2.856,0.248c0.54-0.672,1.103-1.324,1.717-1.928c-0.062-0.169-0.114-0.343-0.183-0.509
			c0.228-0.4,0.516-0.81,0.889-1.025c0.533-0.308,0.95-0.304,1.383-0.278c0.963-0.735,1.989-1.393,3.068-1.964
			c0.123-0.551,0.099-1.127-0.142-1.544c-3.623,2.091-4.078-0.244-5.997,0.863c-0.482,0.279-0.767,0.661-0.975,1.026
			c-0.517-0.616-1.078-1.194-1.714-1.69c-0.004-0.466,0.04-0.975,0.259-1.354c0.712-1.234,1.71-0.712,2.662-2.36
			c0.51-0.883,0.08-2.552-0.823-3.073c-2.092,3.623-3.654,1.828-4.761,3.746c-0.278,0.481-0.334,0.954-0.331,1.374
			c-0.75-0.279-1.524-0.509-2.34-0.624c-0.232-0.397-0.442-0.853-0.442-1.282c0-1.426,1.125-1.473,1.125-3.375
			C20.25,1.231,19.043,0,18,0c0,4.185-2.25,3.411-2.25,5.626c0,0.534,0.175,0.956,0.377,1.313c-0.806,0.137-1.569,0.38-2.304,0.68
			c-0.403-0.229-0.819-0.521-1.037-0.897c-0.712-1.234,0.238-1.837-0.713-3.485C11.564,2.353,9.904,1.89,9,2.412
			c2.092,3.623-0.244,4.078,0.864,5.996c0.279,0.483,0.663,0.769,1.029,0.977c-0.62,0.517-1.201,1.077-1.699,1.712
			c-0.465,0.004-0.971-0.04-1.349-0.258c-1.234-0.713-0.712-1.711-2.36-2.662c-0.883-0.51-2.552-0.08-3.074,0.824
			c3.624,2.091,1.829,3.653,3.747,4.76c0.476,0.275,0.943,0.333,1.361,0.332c-0.281,0.752-0.513,1.529-0.627,2.349
			c-0.394,0.228-0.841,0.435-1.266,0.435c-1.426,0-1.473-1.125-3.375-1.125C1.231,15.751,0,16.957,0,18
			c4.184,0,3.411,2.251,5.625,2.251c0.527,0,0.944-0.172,1.299-0.369c0.137,0.808,0.384,1.571,0.686,2.307
			c-0.228,0.4-0.516,0.81-0.889,1.025c-1.234,0.713-1.837-0.238-3.485,0.713c-0.883,0.51-1.345,2.17-0.824,3.074
			C5.541,25.194,6.309,26.686,7.695,26.413z"/>
	</g>
</g>
<g id="Cloud_18_">
	<g>
		<path style="fill-rule:evenodd;clip-rule:evenodd;fill:#CCCCCC;" d="M60.426,39.339C61.43,37.096,62,34.617,62,32.001
			c0-9.941-8.06-18-18-18c-6.608,0-12.369,3.572-15.5,8.881c-1.391-0.563-2.907-0.881-4.5-0.881c-5.236,0-9.676,3.358-11.315,8.034
			c-0.228-0.013-0.454-0.034-0.685-0.034c-6.628,0-12,5.372-12,12c0,6.627,5.372,12,12,12h44c4.418,0,8-3.582,8-8
			C64,43.22,62.58,40.772,60.426,39.339z"/>
	</g>
</g>
<g id="Snowflake_4_">
	<g>
		<path style="fill-rule:evenodd;clip-rule:evenodd;fill:#48A0DC;" d="M41.092,56.269l-5.327-3.268l5.327-3.268
			c0.9-0.553,1.209-1.775,0.689-2.732c-0.52-0.957-1.671-1.284-2.571-0.732L34,49.464v-5.463c0-1.104-0.896-2-2-2
			c-1.105,0-2,0.896-2,2v5.463l-5.209-3.195c-0.9-0.552-2.052-0.225-2.572,0.732c-0.52,0.957-0.211,2.18,0.689,2.732l5.327,3.268
			l-5.327,3.268c-0.9,0.553-1.208,1.775-0.689,2.732c0.52,0.957,1.671,1.284,2.572,0.731L30,56.537v5.464c0,1.104,0.895,2,2,2
			c1.104,0,2-0.896,2-2v-5.464l5.209,3.195c0.9,0.553,2.052,0.226,2.571-0.731C42.301,58.044,41.993,56.821,41.092,56.269z"/>
	</g>
</g>
<g>
</g>
<g>
</g>
<g>
</g>
<g>
</g>
<g>
</g>
<g>
</g>
<g>
</g>
<g>
</g>
<g>
</g>
<g>
</g>
<g>
</g>
<g>
</g>
<g>
</g>
<g>
</g>
<g>
</g>
</svg>
