<?xml version="1.0" encoding="iso-8859-1"?>
<!-- Generator: Adobe Illustrator 16.0.0, SVG Export Plug-In . SVG Version: 6.00 Build 0)  -->
<!DOCTYPE svg PUBLIC "-//W3C//DTD SVG 1.1//EN" "http://www.w3.org/Graphics/SVG/1.1/DTD/svg11.dtd">
<svg version="1.1" id="Layer_1" xmlns="http://www.w3.org/2000/svg" xmlns:xlink="http://www.w3.org/1999/xlink" x="0px" y="0px"
	 width="64px" height="64.036px" viewBox="0 0 64 64.036" style="enable-background:new 0 0 64 64.036;" xml:space="preserve">
<g id="Cloud_41_">
	<g>
		<path style="fill-rule:evenodd;clip-rule:evenodd;fill:#CCCCCC;" d="M60.426,25.337C61.43,23.094,62,20.615,62,17.999
			C62,8.059,53.94,0,44,0c-6.609,0-12.37,3.572-15.5,8.881C27.109,8.317,25.593,8,24,8c-5.236,0-9.676,3.358-11.315,8.034
			C12.457,16.021,12.231,16,12,16C5.372,16,0,21.372,0,28c0,6.627,5.372,12,12,12h44c4.418,0,8-3.582,8-8
			C64,29.219,62.58,26.771,60.426,25.337z"/>
	</g>
</g>
<g id="Shower_Rain_6_">
	<g>
		<path style="fill-rule:evenodd;clip-rule:evenodd;fill:#54BBFF;" d="M23,42.24c-0.957-0.571-2.18-0.232-2.732,0.758l-6,9.933
			c-0.552,0.99-0.225,2.257,0.732,2.828c0.957,0.571,2.18,0.232,2.732-0.758l6-9.932C24.284,44.078,23.957,42.813,23,42.24z
			 M35,42.24c-0.957-0.571-2.18-0.232-2.732,0.758l-10,17.933c-0.553,0.99-0.225,2.257,0.732,2.828s2.18,0.232,2.732-0.758
			l10-17.932C36.284,44.078,35.957,42.813,35,42.24z M47,42.24c-0.957-0.571-2.18-0.232-2.732,0.758l-6,9.933
			c-0.552,0.99-0.224,2.257,0.732,2.828s2.18,0.232,2.732-0.758l6-9.932C48.284,44.078,47.957,42.813,47,42.24z"/>
	</g>
</g>
<g>
</g>
<g>
</g>
<g>
</g>
<g>
</g>
<g>
</g>
<g>
</g>
<g>
</g>
<g>
</g>
<g>
</g>
<g>
</g>
<g>
</g>
<g>
</g>
<g>
</g>
<g>
</g>
<g>
</g>
</svg>
