<?xml version="1.0" encoding="iso-8859-1"?>
<!-- Generator: Adobe Illustrator 16.0.0, SVG Export Plug-In . SVG Version: 6.00 Build 0)  -->
<!DOCTYPE svg PUBLIC "-//W3C//DTD SVG 1.1//EN" "http://www.w3.org/Graphics/SVG/1.1/DTD/svg11.dtd">
<svg version="1.1" id="Layer_1" xmlns="http://www.w3.org/2000/svg" xmlns:xlink="http://www.w3.org/1999/xlink" x="0px" y="0px"
	 width="84px" height="87.75px" viewBox="0 0 84 87.75" style="enable-background:new 0 0 84 87.75;" xml:space="preserve">
<g id="Cloud_54_">
	<g>
		<path style="fill-rule:evenodd;clip-rule:evenodd;fill:#CCCCCC;" d="M61.096,66.02c0.815-1.794,1.279-3.777,1.279-5.87
			c0-7.953-6.548-14.399-14.625-14.399c-5.369,0-10.05,2.857-12.594,7.104c-1.13-0.45-2.362-0.704-3.656-0.704
			c-4.254,0-7.861,2.687-9.193,6.427c-0.186-0.01-0.369-0.027-0.557-0.027c-5.385,0-9.75,4.299-9.75,9.601s4.365,9.601,9.75,9.601
			H57.5c3.59,0,6.5-2.866,6.5-6.4C64,69.124,62.846,67.166,61.096,66.02z"/>
	</g>
</g>
<g id="Cloud_55_">
	<g>
		<path style="fill-rule:evenodd;clip-rule:evenodd;fill:#999999;" d="M13.861,53.992c-1.104-1.207-2.106-2.507-3.003-3.883
			c-5.438,1.327-9.483,6.297-9.483,12.24c0,1.833,0.395,3.567,1.088,5.135C0.979,68.488,0,70.2,0,72.149
			c0,3.093,2.463,5.601,5.5,5.601h4.021C7.322,75.01,6,71.536,6,67.75C6,61.888,9.159,56.776,13.861,53.992z"/>
	</g>
</g>
<g id="Moon_12_">
	<g>
		<path style="fill-rule:evenodd;clip-rule:evenodd;fill:#666666;" d="M25.75,20c0-1.9,0.282-3.732,0.777-5.474
			C18.146,16.909,12,24.604,12,33.749c0,6.548,3.154,12.353,8.02,16.001h1.359c3.037-2.355,6.797-3.813,10.901-3.968
			c3.202-3.149,7.41-5.267,12.099-5.852C33.976,39.223,25.75,30.582,25.75,20z"/>
	</g>
</g>
<g>
</g>
<g>
</g>
<g>
</g>
<g>
</g>
<g>
</g>
<g>
</g>
<g>
</g>
<g>
</g>
<g>
</g>
<g>
</g>
<g>
</g>
<g>
</g>
<g>
</g>
<g>
</g>
<g>
</g>
</svg>
