<?xml version="1.0" encoding="iso-8859-1"?>
<!-- Generator: Adobe Illustrator 16.0.0, SVG Export Plug-In . SVG Version: 6.00 Build 0)  -->
<!DOCTYPE svg PUBLIC "-//W3C//DTD SVG 1.1//EN" "http://www.w3.org/Graphics/SVG/1.1/DTD/svg11.dtd">
<svg version="1.1" id="Layer_1" xmlns="http://www.w3.org/2000/svg" xmlns:xlink="http://www.w3.org/1999/xlink" x="0px" y="0px"
	 width="70px" height="64.036px" viewBox="0 0 70 64.036" style="enable-background:new 0 0 70 64.036;" xml:space="preserve">
<g id="Cloud_36_">
	<g>
		<path style="fill-rule:evenodd;clip-rule:evenodd;fill:#CCCCCC;" d="M61.096,40.27c0.815-1.794,1.279-3.777,1.279-5.87
			C62.375,26.446,55.827,20,47.75,20c-5.37,0-10.05,2.857-12.593,7.104c-1.13-0.45-2.363-0.704-3.657-0.704
			c-4.254,0-7.862,2.687-9.194,6.428c-0.185-0.01-0.368-0.027-0.556-0.027c-5.385,0-9.75,4.298-9.75,9.6S16.365,52,21.75,52H57.5
			c3.59,0,6.5-2.866,6.5-6.4C64,43.374,62.846,41.416,61.096,40.27z"/>
	</g>
</g>
<g id="Cloud_37_">
	<g>
		<path style="fill-rule:evenodd;clip-rule:evenodd;fill:#999999;" d="M1.375,36.6c0,1.832,0.395,3.566,1.088,5.136
			C0.979,42.738,0,44.451,0,46.399C0,49.492,2.463,52,5.5,52h4.021C7.322,49.26,6,45.786,6,42c0-8.343,6.386-15.186,14.535-15.926
			c-1.947-1.31-4.276-2.075-6.785-2.075C6.915,23.999,1.375,29.641,1.375,36.6z"/>
	</g>
</g>
<g id="Sun_8_">
	<g>
		<path style="fill-rule:evenodd;clip-rule:evenodd;fill:#FFCC66;" d="M55.589,8.999c-3.623,2.093-4.079-0.243-5.997,0.864
			c-0.482,0.278-0.767,0.661-0.975,1.026c-0.518-0.616-1.078-1.194-1.714-1.69c-0.005-0.466,0.04-0.975,0.259-1.354
			c0.713-1.234,1.71-0.712,2.661-2.36c0.51-0.883,0.08-2.552-0.823-3.073c-2.092,3.623-3.653,1.828-4.761,3.746
			c-0.278,0.481-0.334,0.954-0.331,1.374c-0.75-0.279-1.524-0.509-2.34-0.624c-0.232-0.397-0.443-0.853-0.443-1.282
			c0-1.426,1.125-1.473,1.125-3.375C42.25,1.23,41.043,0,40,0c0,4.183-2.25,3.41-2.25,5.625c0,0.534,0.176,0.956,0.377,1.313
			c-0.806,0.137-1.568,0.38-2.304,0.68c-0.403-0.229-0.819-0.521-1.036-0.897c-0.713-1.234,0.238-1.837-0.714-3.485
			C33.563,2.352,31.903,1.89,31,2.41c2.092,3.624-0.243,4.079,0.864,5.997c0.278,0.483,0.662,0.77,1.029,0.977
			c-0.62,0.517-1.201,1.077-1.699,1.712c-0.465,0.004-0.972-0.04-1.349-0.258c-1.234-0.713-0.713-1.711-2.36-2.662
			c-0.884-0.51-2.552-0.08-3.073,0.823c3.623,2.093,1.828,3.654,3.746,4.762c0.476,0.274,0.943,0.331,1.36,0.331
			c-0.281,0.752-0.513,1.529-0.627,2.349c-0.395,0.228-0.842,0.435-1.267,0.435c-1.426,0-1.473-1.125-3.375-1.125
			c-1.02,0-2.25,1.206-2.25,2.249c4.184,0,3.41,2.25,5.625,2.25c0.527,0,0.944-0.171,1.299-0.368
			c0.023,0.139,0.067,0.271,0.097,0.407C29.987,20.105,30.98,20,32,20c0.293,0,0.579,0.028,0.868,0.044
			C36.811,16.301,42.134,14,48,14c0.85,0,1.687,0.053,2.511,0.146c-0.042-0.11-0.076-0.227-0.121-0.336
			c0.228-0.399,0.516-0.809,0.889-1.024c1.234-0.712,1.838,0.238,3.485-0.713C55.647,11.563,56.11,9.903,55.589,8.999z"/>
	</g>
</g>
<g id="Shower_Rain_3_">
	<g>
		<path style="fill-rule:evenodd;clip-rule:evenodd;fill:#48A0DC;" d="M31,42.24c-0.957-0.571-2.18-0.232-2.732,0.758l-6,9.933
			c-0.552,0.99-0.225,2.257,0.732,2.828c0.956,0.571,2.18,0.232,2.731-0.758l6-9.932C32.284,44.078,31.956,42.813,31,42.24z
			 M43,42.24c-0.957-0.571-2.18-0.232-2.732,0.758l-10,17.933c-0.552,0.99-0.225,2.257,0.732,2.828
			c0.956,0.571,2.18,0.232,2.731-0.758l10-17.932C44.284,44.078,43.957,42.813,43,42.24z M55,42.24
			c-0.957-0.571-2.18-0.232-2.732,0.758l-6,9.933c-0.552,0.99-0.225,2.257,0.732,2.828c0.956,0.571,2.18,0.232,2.731-0.758l6-9.932
			C56.284,44.078,55.956,42.813,55,42.24z"/>
	</g>
</g>
<g>
</g>
<g>
</g>
<g>
</g>
<g>
</g>
<g>
</g>
<g>
</g>
<g>
</g>
<g>
</g>
<g>
</g>
<g>
</g>
<g>
</g>
<g>
</g>
<g>
</g>
<g>
</g>
<g>
</g>
</svg>
