<?xml version="1.0" encoding="iso-8859-1"?>
<!-- Generator: Adobe Illustrator 16.0.0, SVG Export Plug-In . SVG Version: 6.00 Build 0)  -->
<!DOCTYPE svg PUBLIC "-//W3C//DTD SVG 1.1//EN" "http://www.w3.org/Graphics/SVG/1.1/DTD/svg11.dtd">
<svg version="1.1" id="Layer_1" xmlns="http://www.w3.org/2000/svg" xmlns:xlink="http://www.w3.org/1999/xlink" x="0px" y="0px"
	 width="76px" height="77.75px" viewBox="0 0 76 77.75" style="enable-background:new 0 0 76 77.75;" xml:space="preserve">
<g id="Moon_3_">
	<g>
		<path style="fill-rule:evenodd;clip-rule:evenodd;fill:#666666;" d="M11.896,37.75c2.577-5.178,7.567-8.932,13.508-9.792
			c-1.06-2.439-1.655-5.128-1.655-7.958c0-1.9,0.282-3.732,0.777-5.474C16.145,16.909,10,24.604,10,33.75c0,1.374,0.16,2.707,0.43,4
			H11.896z"/>
	</g>
</g>
<g id="Cloud_5_">
	<g>
		<path style="fill-rule:evenodd;clip-rule:evenodd;fill:#CCCCCC;" d="M64.426,51.087C65.43,48.845,66,46.366,66,43.75
			c0-9.941-8.06-18-18-18c-6.608,0-12.369,3.572-15.5,8.88c-1.391-0.563-2.908-0.881-4.5-0.881c-5.236,0-9.676,3.359-11.315,8.034
			c-0.228-0.013-0.453-0.034-0.685-0.034c-6.628,0-12,5.372-12,12s5.372,12,12,12h44c4.418,0,8-3.581,8-7.999
			C68,54.969,66.58,52.521,64.426,51.087z"/>
	</g>
</g>
<g id="Wind_6_">
	<g>
		<path style="fill-rule:evenodd;clip-rule:evenodd;fill:#48A0DC;" d="M20,61.75h8c1.104,0,2-0.896,2-2s-0.896-2-2-2h-8
			c-1.104,0-2,0.896-2,2S18.896,61.75,20,61.75z M42,65.75H20c-1.104,0-2,0.895-2,2c0,1.104,0.896,2,2,2h16.367H42
			c1.104,0,2,0.895,2,2c0,1.104-0.896,2-2,2s-2,0.895-2,2c0,1.104,0.896,2,2,2c3.313,0,6-2.687,6-6C48,68.436,45.313,65.75,42,65.75
			z M50,49.75c-1.104,0-2,0.895-2,2c0,1.104,0.896,2,2,2s2,0.895,2,2c0,1.104-0.896,2-2,2h-5.633H36c-1.104,0-2,0.896-2,2
			s0.896,2,2,2h14c3.313,0,6-2.687,6-6C56,52.436,53.313,49.75,50,49.75z"/>
	</g>
</g>
<g>
</g>
<g>
</g>
<g>
</g>
<g>
</g>
<g>
</g>
<g>
</g>
<g>
</g>
<g>
</g>
<g>
</g>
<g>
</g>
<g>
</g>
<g>
</g>
<g>
</g>
<g>
</g>
<g>
</g>
</svg>
