<?xml version="1.0" encoding="iso-8859-1"?>
<!-- Generator: Adobe Illustrator 16.0.0, SVG Export Plug-In . SVG Version: 6.00 Build 0)  -->
<!DOCTYPE svg PUBLIC "-//W3C//DTD SVG 1.1//EN" "http://www.w3.org/Graphics/SVG/1.1/DTD/svg11.dtd">
<svg version="1.1" id="Layer_1" xmlns="http://www.w3.org/2000/svg" xmlns:xlink="http://www.w3.org/1999/xlink" x="0px" y="0px"
	 width="64px" height="64px" viewBox="0 0 64 64" style="enable-background:new 0 0 64 64;" xml:space="preserve">
<g id="Cloud_21_">
	<g>
		<path style="fill-rule:evenodd;clip-rule:evenodd;fill:#CCCCCC;" d="M60.426,25.338C61.43,23.095,62,20.615,62,17.999
			C62,8.059,53.941,0,44,0c-6.608,0-12.369,3.572-15.5,8.88c-1.391-0.563-2.907-0.881-4.5-0.881c-5.235,0-9.676,3.358-11.315,8.034
			c-0.228-0.013-0.453-0.034-0.685-0.034c-6.628,0-12,5.373-12,12C0,34.627,5.372,40,12,40h44c4.418,0,8-3.582,8-8.001
			C64,29.218,62.579,26.771,60.426,25.338z"/>
	</g>
</g>
<g id="Snowflake_6_">
	<g>
		<path style="fill-rule:evenodd;clip-rule:evenodd;fill:#48A0DC;" d="M41.092,56.268L35.765,53l5.327-3.268
			c0.9-0.553,1.209-1.776,0.689-2.732c-0.521-0.957-1.672-1.285-2.572-0.732L34,49.463V44c0-1.105-0.896-2-2-2s-2,0.895-2,2v5.464
			l-5.21-3.196c-0.9-0.553-2.052-0.225-2.571,0.732c-0.52,0.956-0.211,2.18,0.689,2.732L28.234,53l-5.326,3.268
			c-0.9,0.553-1.209,1.775-0.689,2.732c0.52,0.956,1.671,1.284,2.571,0.732L30,56.536V62c0,1.104,0.896,2,2,2s2-0.896,2-2v-5.463
			l5.209,3.195c0.9,0.552,2.052,0.224,2.572-0.732C42.301,58.043,41.992,56.82,41.092,56.268z"/>
	</g>
</g>
<g>
</g>
<g>
</g>
<g>
</g>
<g>
</g>
<g>
</g>
<g>
</g>
<g>
</g>
<g>
</g>
<g>
</g>
<g>
</g>
<g>
</g>
<g>
</g>
<g>
</g>
<g>
</g>
<g>
</g>
</svg>
