<?xml version="1.0" encoding="iso-8859-1"?>
<!-- Generator: Adobe Illustrator 16.0.0, SVG Export Plug-In . SVG Version: 6.00 Build 0)  -->
<!DOCTYPE svg PUBLIC "-//W3C//DTD SVG 1.1//EN" "http://www.w3.org/Graphics/SVG/1.1/DTD/svg11.dtd">
<svg version="1.1" id="Layer_1" xmlns="http://www.w3.org/2000/svg" xmlns:xlink="http://www.w3.org/1999/xlink" x="0px" y="0px"
	 width="64.009px" height="64.017px" viewBox="0 0 64.009 64.017" style="enable-background:new 0 0 64.009 64.017;"
	 xml:space="preserve">
<g id="Cloud_42_">
	<g>
		<path style="fill-rule:evenodd;clip-rule:evenodd;fill:#CCCCCC;" d="M60.435,25.338c1.004-2.243,1.574-4.723,1.574-7.339
			c0-9.94-8.06-17.999-18-17.999c-6.609,0-12.369,3.572-15.5,8.881C27.118,8.317,25.602,8,24.009,8
			c-5.236,0-9.676,3.358-11.315,8.034C12.466,16.021,12.24,16,12.009,16c-6.628,0-12,5.372-12,12c0,6.627,5.372,12,12,12h44
			c4.418,0,8-3.582,8-8.001C64.009,29.219,62.588,26.771,60.435,25.338z"/>
	</g>
</g>
<g id="Hail">
	<g>
		<path style="fill-rule:evenodd;clip-rule:evenodd;fill:#54BBFF;" d="M23.506,64.017l9.321-3.369c0,0,3.226-16.642,3.182-16.665
			C35.986,43.971,22,54.864,22,54.864L23.506,64.017z M44,54.864l1.506,9.152l9.321-3.369c0,0,3.226-16.642,3.182-16.665
			C57.986,43.971,44,54.864,44,54.864z M1.507,64.017l9.32-3.369c0,0,3.226-16.642,3.182-16.665C13.986,43.971,0,54.864,0,54.864
			L1.507,64.017z"/>
	</g>
</g>
<g>
</g>
<g>
</g>
<g>
</g>
<g>
</g>
<g>
</g>
<g>
</g>
<g>
</g>
<g>
</g>
<g>
</g>
<g>
</g>
<g>
</g>
<g>
</g>
<g>
</g>
<g>
</g>
<g>
</g>
</svg>
