<?xml version="1.0" encoding="iso-8859-1"?>
<!-- Generator: Adobe Illustrator 16.0.0, SVG Export Plug-In . SVG Version: 6.00 Build 0)  -->
<!DOCTYPE svg PUBLIC "-//W3C//DTD SVG 1.1//EN" "http://www.w3.org/Graphics/SVG/1.1/DTD/svg11.dtd">
<svg version="1.1" id="Layer_1" xmlns="http://www.w3.org/2000/svg" xmlns:xlink="http://www.w3.org/1999/xlink" x="0px" y="0px"
	 width="68px" height="64.001px" viewBox="0 0 68 64.001" style="enable-background:new 0 0 68 64.001;" xml:space="preserve">
<g id="Sun_14_">
	<g>
		<path style="fill-rule:evenodd;clip-rule:evenodd;fill:#FFCC66;" d="M16,59.713c0.205-0.354,0.405-0.668,0.604-0.967
			c-0.732-0.298-1.435-0.65-2.112-1.043C14.808,58.563,15.322,59.322,16,59.713z M6.031,42.389c-0.093,0.049-0.183,0.092-0.28,0.147
			C4.182,43.442,3.359,46.395,4.287,48c0.815-0.471,1.539-0.813,2.19-1.061C6.176,45.674,6,44.359,6,43.001
			C6,42.794,6.023,42.594,6.031,42.389z M28.046,59.239C28.021,59.477,28,59.722,28,60.001c0,1.813,2.146,4,4,4
			c0-3.517,0.895-5.057,1.838-6.126c-0.474-0.23-0.934-0.482-1.388-0.744C31.105,58.032,29.625,58.749,28.046,59.239z M59.713,16
			c-6.441,3.72-7.251-0.433-10.66,1.536c-0.511,0.295-0.907,0.66-1.231,1.043c2.889,0.68,5.541,1.955,7.833,3.691
			c0.716-0.026,1.532-0.193,2.594-0.807C59.818,20.558,60.64,17.606,59.713,16z M44.252,16.281c0-0.807,0.104-1.682,0.479-2.333
			c1.268-2.195,3.041-1.268,4.732-4.196C50.37,8.182,49.606,5.215,48,4.287c-3.719,6.441-6.496,3.251-8.465,6.661
			c-0.468,0.811-0.622,1.639-0.633,2.359c-1.342-0.495-2.725-0.902-4.185-1.102C34.329,11.521,34,10.733,34,10.001
			c0-2.535,2-2.618,2-6C36,2.188,33.854,0,32,0c0,7.438-4,6.063-4,10.001c0,0.912,0.269,1.687,0.606,2.308
			c-1.438,0.247-2.813,0.665-4.123,1.205c-0.689-0.401-1.381-0.923-1.752-1.565c-1.267-2.195,0.424-3.268-1.268-6.196
			C20.558,4.182,17.605,3.36,16,4.287c3.719,6.441-0.434,7.251,1.535,10.661c0.47,0.813,1.112,1.361,1.732,1.731
			c-1.096,0.92-2.104,1.939-2.985,3.069c-0.807,0-1.683-0.104-2.335-0.48c-2.195-1.268-1.267-3.041-4.196-4.732
			C8.182,13.63,5.214,14.394,4.287,16c6.441,3.719,3.25,6.495,6.66,8.464c0.811,0.469,1.639,0.623,2.359,0.635
			c-0.496,1.341-0.904,2.725-1.104,4.185C11.519,29.672,10.731,30,10,30c-2.534,0-2.617-1.999-6-1.999c-1.813,0-4,2.145-4,3.999
			c5.578,0,6.199,2.25,7.822,3.375c2.796-5.555,8.535-9.374,15.178-9.374c1.125,0,2.222,0.115,3.285,0.324
			c3.835-5.05,9.885-8.324,16.715-8.324c1.172,0,2.314,0.12,3.434,0.305C45.751,17.584,45.037,16.893,44.252,16.281z M44.96,59.902
			c1.065,0.299,2.225,0.281,3.04-0.188c-0.06-0.104-0.102-0.195-0.158-0.297C46.902,59.64,45.944,59.811,44.96,59.902z"/>
	</g>
</g>
<g id="Cloud_60_">
	<g>
		<path style="fill-rule:evenodd;clip-rule:evenodd;fill:#CCCCCC;" d="M60.426,49.339C61.43,47.096,62,44.617,62,42.001
			c0-9.941-8.059-18-18-18c-6.609,0-12.37,3.572-15.5,8.881c-1.391-0.563-2.907-0.881-4.5-0.881c-5.236,0-9.676,3.358-11.315,8.034
			c-0.228-0.013-0.454-0.034-0.685-0.034c-6.628,0-12,5.372-12,12c0,6.627,5.372,12,12,12h44c4.418,0,8-3.582,8-8
			C64,53.22,62.58,50.772,60.426,49.339z"/>
	</g>
</g>
<g>
</g>
<g>
</g>
<g>
</g>
<g>
</g>
<g>
</g>
<g>
</g>
<g>
</g>
<g>
</g>
<g>
</g>
<g>
</g>
<g>
</g>
<g>
</g>
<g>
</g>
<g>
</g>
<g>
</g>
</svg>
