<?xml version="1.0" encoding="iso-8859-1"?>
<!-- Generator: Adobe Illustrator 16.0.0, SVG Export Plug-In . SVG Version: 6.00 Build 0)  -->
<!DOCTYPE svg PUBLIC "-//W3C//DTD SVG 1.1//EN" "http://www.w3.org/Graphics/SVG/1.1/DTD/svg11.dtd">
<svg version="1.1" id="Layer_1" xmlns="http://www.w3.org/2000/svg" xmlns:xlink="http://www.w3.org/1999/xlink" x="0px" y="0px"
	 width="76px" height="77.786px" viewBox="0 0 76 77.786" style="enable-background:new 0 0 76 77.786;" xml:space="preserve">
<g id="Moon_9_">
	<g>
		<path style="fill-rule:evenodd;clip-rule:evenodd;fill:#666666;" d="M11.896,37.749c2.577-5.178,7.567-8.932,13.508-9.792
			c-1.06-2.439-1.654-5.128-1.654-7.957c0-1.9,0.282-3.731,0.777-5.473C16.146,16.91,10,24.604,10,33.75
			c0,1.374,0.16,2.706,0.431,3.999H11.896z"/>
	</g>
</g>
<g id="Cloud_35_">
	<g>
		<path style="fill-rule:evenodd;clip-rule:evenodd;fill:#CCCCCC;" d="M64.426,51.087C65.43,48.845,66,46.366,66,43.75
			c0-9.941-8.059-18-18-18c-6.608,0-12.369,3.572-15.499,8.88c-1.392-0.563-2.908-0.881-4.501-0.881
			c-5.236,0-9.677,3.359-11.315,8.035C16.457,41.771,16.231,41.75,16,41.75c-6.628,0-12,5.372-12,11.999c0,6.628,5.372,12,12,12h44
			c4.418,0,8-3.581,8-7.999C68,54.969,66.579,52.521,64.426,51.087z"/>
	</g>
</g>
<g id="Shower_Rain_2_">
	<g>
		<path style="fill-rule:evenodd;clip-rule:evenodd;fill:#48A0DC;" d="M29,55.99c-0.957-0.571-2.18-0.232-2.732,0.758l-6,9.933
			c-0.552,0.99-0.225,2.257,0.732,2.828c0.956,0.571,2.18,0.232,2.732-0.758l6-9.932C30.284,57.828,29.956,56.563,29,55.99z
			 M41,55.99c-0.957-0.571-2.18-0.232-2.732,0.758l-10,17.933c-0.552,0.99-0.225,2.257,0.732,2.828
			c0.956,0.571,2.18,0.232,2.731-0.758l10.001-17.932C42.284,57.828,41.956,56.563,41,55.99z M53,55.99
			c-0.957-0.571-2.18-0.232-2.732,0.758l-6,9.933c-0.552,0.99-0.225,2.257,0.732,2.828c0.956,0.571,2.18,0.232,2.732-0.758l6-9.932
			C54.284,57.828,53.956,56.563,53,55.99z"/>
	</g>
</g>
<g>
</g>
<g>
</g>
<g>
</g>
<g>
</g>
<g>
</g>
<g>
</g>
<g>
</g>
<g>
</g>
<g>
</g>
<g>
</g>
<g>
</g>
<g>
</g>
<g>
</g>
<g>
</g>
<g>
</g>
</svg>
