<?xml version="1.0" encoding="iso-8859-1"?>
<!-- Generator: Adobe Illustrator 16.0.0, SVG Export Plug-In . SVG Version: 6.00 Build 0)  -->
<!DOCTYPE svg PUBLIC "-//W3C//DTD SVG 1.1//EN" "http://www.w3.org/Graphics/SVG/1.1/DTD/svg11.dtd">
<svg version="1.1" id="Layer_1" xmlns="http://www.w3.org/2000/svg" xmlns:xlink="http://www.w3.org/1999/xlink" x="0px" y="0px"
	 width="64px" height="64.001px" viewBox="0 0 64 64.001" style="enable-background:new 0 0 64 64.001;" xml:space="preserve">
<g id="Cloud_2_">
	<g>
		<path style="fill-rule:evenodd;clip-rule:evenodd;fill:#CCCCCC;" d="M60.426,37.339C61.43,35.096,62,32.617,62,30.001
			c0-9.941-8.059-18-18-18c-6.609,0-12.37,3.572-15.5,8.881c-1.391-0.563-2.907-0.881-4.5-0.881c-5.236,0-9.676,3.358-11.315,8.033
			C12.457,28.021,12.231,28,12,28C5.372,28,0,33.373,0,40.001c0,6.627,5.372,12,12,12h44c4.418,0,8-3.582,8-8
			C64,41.22,62.58,38.772,60.426,37.339z"/>
	</g>
</g>
<g id="Star">
	<g>
		<path style="fill:#FFCC66;" d="M15.956,6.045c-0.101-0.328-0.361-0.571-0.681-0.636l-4.358-0.875L8.775,0.481
			C8.618,0.185,8.321,0,8,0C7.678,0,7.381,0.185,7.224,0.481L5.083,4.534L0.724,5.409c-0.319,0.064-0.58,0.308-0.681,0.636
			c-0.1,0.328-0.022,0.688,0.202,0.938l3.027,3.373L2.724,14.94c-0.041,0.339,0.096,0.676,0.356,0.878
			C3.235,15.938,3.42,16,3.605,16c0.126,0,0.254-0.028,0.373-0.087L8,13.944l4.021,1.969C12.14,15.972,12.267,16,12.394,16
			c0.187,0,0.37-0.062,0.525-0.182c0.261-0.202,0.397-0.539,0.356-0.878l-0.549-4.585l3.027-3.373
			C15.979,6.732,16.056,6.373,15.956,6.045z"/>
	</g>
</g>
<g id="Wind_4_">
	<g>
		<path style="fill-rule:evenodd;clip-rule:evenodd;fill:#48A0DC;" d="M16,48.001h8c1.104,0,2-0.896,2-2s-0.896-2-2-2h-8
			c-1.104,0-2,0.896-2,2S14.896,48.001,16,48.001z M38,52.001H16c-1.104,0-2,0.895-2,2c0,1.104,0.896,2,2,2h16.367H38
			c1.104,0,2,0.895,2,2c0,1.104-0.896,2-2,2s-2,0.895-2,2c0,1.104,0.896,2,2,2c3.313,0,6-2.687,6-6
			C44,54.687,41.313,52.001,38,52.001z M46,36.001c-1.104,0-2,0.895-2,2c0,1.104,0.896,2,2,2s2,0.895,2,2c0,1.104-0.896,2-2,2
			h-5.633H32c-1.104,0-2,0.896-2,2s0.896,2,2,2h14c3.313,0,6-2.687,6-6C52,38.687,49.313,36.001,46,36.001z"/>
	</g>
</g>
<g>
</g>
<g>
</g>
<g>
</g>
<g>
</g>
<g>
</g>
<g>
</g>
<g>
</g>
<g>
</g>
<g>
</g>
<g>
</g>
<g>
</g>
<g>
</g>
<g>
</g>
<g>
</g>
<g>
</g>
</svg>
