<?xml version="1.0" encoding="iso-8859-1"?>
<!-- Generator: Adobe Illustrator 16.0.0, SVG Export Plug-In . SVG Version: 6.00 Build 0)  -->
<!DOCTYPE svg PUBLIC "-//W3C//DTD SVG 1.1//EN" "http://www.w3.org/Graphics/SVG/1.1/DTD/svg11.dtd">
<svg version="1.1" id="Layer_1" xmlns="http://www.w3.org/2000/svg" xmlns:xlink="http://www.w3.org/1999/xlink" x="0px" y="0px"
	 width="64px" height="53.685px" viewBox="0 0 64 53.685" style="enable-background:new 0 0 64 53.685;" xml:space="preserve">
<g id="Cloud_52_">
	<g>
		<path style="fill-rule:evenodd;clip-rule:evenodd;fill:#CCCCCC;" d="M60.426,25.339C61.43,23.096,62,20.617,62,18.001
			C62,8.06,53.94,0,44,0c-6.609,0-12.37,3.572-15.5,8.882c-1.391-0.563-2.907-0.881-4.5-0.881c-5.236,0-9.676,3.358-11.315,8.034
			c-0.228-0.013-0.454-0.034-0.685-0.034c-6.628,0-12,5.372-12,12C0,34.628,5.372,40,12,40h44c4.418,0,8-3.581,8-7.999
			C64,29.22,62.579,26.772,60.426,25.339z"/>
	</g>
</g>
<g id="Hail_7_">
	<g>
		<path style="fill-rule:evenodd;clip-rule:evenodd;fill:#54BBFF;" d="M9.3,53.685l3.769-1.069l0.761-6.603l-5.468,3.945L9.3,53.685
			z M44.362,49.958l0.938,3.727l3.769-1.069l0.761-6.603L44.362,49.958z M27.3,53.685l3.769-1.069c0,0,0.78-6.592,0.761-6.603
			c-0.01-0.006-5.468,3.945-5.468,3.945L27.3,53.685z"/>
	</g>
</g>
<g>
</g>
<g>
</g>
<g>
</g>
<g>
</g>
<g>
</g>
<g>
</g>
<g>
</g>
<g>
</g>
<g>
</g>
<g>
</g>
<g>
</g>
<g>
</g>
<g>
</g>
<g>
</g>
<g>
</g>
</svg>
