<?xml version="1.0" encoding="iso-8859-1"?>
<!-- Generator: Adobe Illustrator 16.0.0, SVG Export Plug-In . SVG Version: 6.00 Build 0)  -->
<!DOCTYPE svg PUBLIC "-//W3C//DTD SVG 1.1//EN" "http://www.w3.org/Graphics/SVG/1.1/DTD/svg11.dtd">
<svg version="1.1" id="Layer_1" xmlns="http://www.w3.org/2000/svg" xmlns:xlink="http://www.w3.org/1999/xlink" x="0px" y="0px"
	 width="64px" height="64.001px" viewBox="0 0 64 64.001" style="enable-background:new 0 0 64 64.001;" xml:space="preserve">
<g id="Cloud_12_">
	<g>
		<path style="fill-rule:evenodd;clip-rule:evenodd;fill:#CCCCCC;" d="M60.426,37.339C61.43,35.096,62,32.616,62,30
			c0-9.94-8.06-17.999-18-17.999c-6.609,0-12.369,3.572-15.5,8.881c-1.391-0.563-2.907-0.881-4.5-0.881
			c-5.236,0-9.677,3.358-11.315,8.034c-0.228-0.013-0.453-0.034-0.685-0.034C5.372,28.001,0,33.373,0,40
			c0,6.628,5.372,12.001,12,12.001h44c4.418,0,8-3.582,8-8.001C64,41.22,62.579,38.772,60.426,37.339z"/>
	</g>
</g>
<g id="Star_1_">
	<g>
		<path style="fill:#FFCC66;" d="M15.956,6.045c-0.101-0.328-0.361-0.571-0.681-0.636l-4.358-0.875L8.775,0.482
			C8.618,0.185,8.321,0,8,0C7.678,0,7.381,0.185,7.224,0.482L5.083,4.534L0.724,5.409c-0.319,0.064-0.58,0.308-0.681,0.636
			c-0.1,0.328-0.022,0.688,0.202,0.938l3.027,3.373L2.724,14.94c-0.041,0.34,0.096,0.676,0.356,0.878C3.235,15.938,3.42,16,3.605,16
			c0.126,0,0.254-0.028,0.373-0.087L8,13.943l4.021,1.97C12.14,15.972,12.267,16,12.394,16c0.186,0,0.37-0.062,0.525-0.182
			c0.261-0.202,0.397-0.538,0.356-0.878l-0.549-4.585l3.027-3.373C15.979,6.732,16.056,6.373,15.956,6.045z"/>
	</g>
</g>
<g id="Snowflake">
	<g>
		<path style="fill-rule:evenodd;clip-rule:evenodd;fill:#48A0DC;" d="M41.092,56.269l-5.327-3.268l5.327-3.268
			c0.9-0.553,1.209-1.775,0.689-2.732c-0.521-0.957-1.672-1.284-2.572-0.732L34,49.464v-5.463c0-1.104-0.896-2-2-2s-2,0.896-2,2
			v5.464l-5.21-3.196c-0.9-0.552-2.052-0.225-2.571,0.732s-0.211,2.18,0.689,2.732l5.326,3.268l-5.326,3.268
			c-0.9,0.553-1.209,1.775-0.689,2.732s1.671,1.284,2.571,0.731L30,56.537v5.464c0,1.104,0.896,2,2,2s2-0.896,2-2v-5.464
			l5.209,3.195c0.9,0.553,2.052,0.226,2.572-0.731C42.301,58.044,41.992,56.821,41.092,56.269z"/>
	</g>
</g>
<g>
</g>
<g>
</g>
<g>
</g>
<g>
</g>
<g>
</g>
<g>
</g>
<g>
</g>
<g>
</g>
<g>
</g>
<g>
</g>
<g>
</g>
<g>
</g>
<g>
</g>
<g>
</g>
<g>
</g>
</svg>
