<?xml version="1.0" encoding="iso-8859-1"?>
<!-- Generator: Adobe Illustrator 16.0.0, SVG Export Plug-In . SVG Version: 6.00 Build 0)  -->
<!DOCTYPE svg PUBLIC "-//W3C//DTD SVG 1.1//EN" "http://www.w3.org/Graphics/SVG/1.1/DTD/svg11.dtd">
<svg version="1.1" id="Layer_1" xmlns="http://www.w3.org/2000/svg" xmlns:xlink="http://www.w3.org/1999/xlink" x="0px" y="0px"
	 width="64px" height="64.001px" viewBox="0 0 64 64.001" style="enable-background:new 0 0 64 64.001;" xml:space="preserve">
<g id="Cloud_53_">
	<g>
		<path style="fill-rule:evenodd;clip-rule:evenodd;fill:#CCCCCC;" d="M60.426,49.339C61.43,47.096,62,44.617,62,42.001
			C62,32.06,53.94,24,44,24c-6.609,0-12.369,3.572-15.5,8.882c-1.391-0.563-2.907-0.881-4.5-0.881
			c-5.236,0-9.676,3.357-11.315,8.033C12.457,40.021,12.231,40,12,40C5.372,40,0,45.373,0,52.001c0,6.627,5.372,12,12,12h44
			c4.418,0,8-3.582,8-8C64,53.22,62.579,50.772,60.426,49.339z"/>
	</g>
</g>
<g id="Star_5_">
	<g>
		<path style="fill:#FFCC66;" d="M19.944,7.556c-0.124-0.41-0.45-0.715-0.851-0.795l-5.448-1.092l-2.677-5.066
			C10.773,0.23,10.401,0,10,0C9.598,0,9.227,0.23,9.029,0.603L6.354,5.669L0.905,6.761C0.506,6.841,0.18,7.146,0.055,7.556
			S0.026,8.415,0.307,8.728l3.784,4.217l-0.687,5.73c-0.051,0.425,0.12,0.846,0.445,1.098C4.044,19.923,4.274,20,4.506,20
			c0.159,0,0.318-0.036,0.467-0.108L10,17.429l5.025,2.463C15.175,19.964,15.334,20,15.492,20c0.232,0,0.462-0.077,0.656-0.228
			c0.326-0.252,0.497-0.673,0.446-1.098l-0.687-5.73l3.785-4.217C19.973,8.415,20.069,7.966,19.944,7.556z"/>
	</g>
</g>
<g>
</g>
<g>
</g>
<g>
</g>
<g>
</g>
<g>
</g>
<g>
</g>
<g>
</g>
<g>
</g>
<g>
</g>
<g>
</g>
<g>
</g>
<g>
</g>
<g>
</g>
<g>
</g>
<g>
</g>
</svg>
