<?xml version="1.0" encoding="iso-8859-1"?>
<!-- Generator: Adobe Illustrator 16.0.0, SVG Export Plug-In . SVG Version: 6.00 Build 0)  -->
<!DOCTYPE svg PUBLIC "-//W3C//DTD SVG 1.1//EN" "http://www.w3.org/Graphics/SVG/1.1/DTD/svg11.dtd">
<svg version="1.1" id="Layer_1" xmlns="http://www.w3.org/2000/svg" xmlns:xlink="http://www.w3.org/1999/xlink" x="0px" y="0px"
	 width="76px" height="77.434px" viewBox="0 0 76 77.434" style="enable-background:new 0 0 76 77.434;" xml:space="preserve">
<g id="Moon_11_">
	<g>
		<path style="fill-rule:evenodd;clip-rule:evenodd;fill:#666666;" d="M11.896,37.75c2.577-5.178,7.567-8.932,13.51-9.792
			C24.345,25.519,23.75,22.83,23.75,20c0-1.9,0.282-3.731,0.777-5.473C16.146,16.91,10,24.604,10,33.75c0,1.374,0.16,2.707,0.431,4
			H11.896z"/>
	</g>
</g>
<g id="Cloud_46_">
	<g>
		<path style="fill-rule:evenodd;clip-rule:evenodd;fill:#CCCCCC;" d="M64.426,51.088C65.43,48.845,66,46.366,66,43.75
			c0-9.941-8.059-18-18-18c-6.608,0-12.369,3.572-15.499,8.88c-1.392-0.563-2.908-0.881-4.501-0.881
			c-5.236,0-9.677,3.359-11.315,8.035C16.457,41.771,16.231,41.75,16,41.75c-6.628,0-12,5.372-12,11.999c0,6.628,5.372,12,12,12h44
			c4.418,0,8-3.581,8-7.999C68,54.969,66.579,52.521,64.426,51.088z"/>
	</g>
</g>
<g id="Hail_3_">
	<g>
		<path style="fill-rule:evenodd;clip-rule:evenodd;fill:#54BBFF;" d="M17.301,77.434l3.769-1.069l0.761-6.603l-5.468,3.945
			L17.301,77.434z M52.362,73.707l0.938,3.727l3.769-1.069l0.761-6.603L52.362,73.707z M35.301,77.434l3.769-1.069l0.761-6.603
			l-5.468,3.945L35.301,77.434z"/>
	</g>
</g>
<g>
</g>
<g>
</g>
<g>
</g>
<g>
</g>
<g>
</g>
<g>
</g>
<g>
</g>
<g>
</g>
<g>
</g>
<g>
</g>
<g>
</g>
<g>
</g>
<g>
</g>
<g>
</g>
<g>
</g>
</svg>
