<?xml version="1.0" encoding="iso-8859-1"?>
<!-- Generator: Adobe Illustrator 16.0.0, SVG Export Plug-In . SVG Version: 6.00 Build 0)  -->
<!DOCTYPE svg PUBLIC "-//W3C//DTD SVG 1.1//EN" "http://www.w3.org/Graphics/SVG/1.1/DTD/svg11.dtd">
<svg version="1.1" id="Layer_1" xmlns="http://www.w3.org/2000/svg" xmlns:xlink="http://www.w3.org/1999/xlink" x="0px" y="0px"
	 width="66px" height="54px" viewBox="0 0 66 54" style="enable-background:new 0 0 66 54;" xml:space="preserve">
<g id="Sun_13_">
	<g>
		<path style="fill-rule:evenodd;clip-rule:evenodd;fill:#FFCC66;" d="M7.694,26.413C10.559,20.269,16.773,16.001,24,16.001
			c0.975,0,1.923,0.099,2.856,0.248c0.54-0.672,1.103-1.324,1.717-1.928c-0.062-0.17-0.115-0.344-0.183-0.51
			c0.229-0.398,0.517-0.809,0.89-1.024c0.533-0.308,0.95-0.304,1.383-0.278c0.963-0.735,1.989-1.393,3.067-1.964
			C33.853,9.993,33.829,9.417,33.588,9c-3.623,2.092-4.078-0.243-5.996,0.864c-0.482,0.278-0.768,0.66-0.975,1.026
			c-0.518-0.616-1.078-1.194-1.714-1.689c-0.005-0.467,0.039-0.976,0.259-1.355c0.712-1.234,1.71-0.712,2.661-2.36
			c0.51-0.883,0.08-2.552-0.823-3.073c-2.092,3.623-3.654,1.828-4.762,3.746c-0.277,0.481-0.333,0.954-0.331,1.374
			c-0.749-0.278-1.523-0.509-2.34-0.624c-0.231-0.397-0.442-0.852-0.442-1.282c0-1.426,1.125-1.473,1.125-3.375
			C20.25,1.231,19.043,0,18,0c0,4.184-2.25,3.411-2.25,5.626c0,0.534,0.176,0.957,0.377,1.313c-0.807,0.137-1.569,0.38-2.304,0.68
			c-0.403-0.229-0.819-0.521-1.037-0.896c-0.712-1.235,0.238-1.838-0.713-3.486C11.563,2.353,9.903,1.89,9,2.412
			c2.092,3.623-0.244,4.078,0.863,5.996c0.279,0.483,0.663,0.769,1.029,0.977c-0.619,0.517-1.2,1.077-1.698,1.712
			c-0.465,0.005-0.972-0.04-1.349-0.258C6.61,10.126,7.133,9.128,5.484,8.177C4.602,7.667,2.933,8.097,2.411,9
			c3.623,2.092,1.828,3.654,3.747,4.761c0.476,0.275,0.942,0.332,1.36,0.332c-0.281,0.752-0.513,1.528-0.628,2.349
			c-0.394,0.228-0.841,0.435-1.266,0.435c-1.426,0-1.473-1.125-3.375-1.125C1.23,15.751,0,16.957,0,18
			c4.184,0,3.41,2.251,5.625,2.251c0.527,0,0.944-0.172,1.299-0.369c0.137,0.808,0.384,1.571,0.686,2.307
			c-0.228,0.4-0.516,0.811-0.89,1.025c-1.234,0.713-1.837-0.238-3.485,0.713c-0.883,0.51-1.345,2.17-0.823,3.074
			C5.541,25.193,6.308,26.687,7.694,26.413z"/>
	</g>
</g>
<g id="Cloud_59_">
	<g>
		<path style="fill-rule:evenodd;clip-rule:evenodd;fill:#CCCCCC;" d="M60.426,39.339C61.43,37.096,62,34.617,62,32.001
			c0-9.941-8.059-18-18-18c-6.609,0-12.37,3.572-15.5,8.881c-1.391-0.563-2.907-0.881-4.5-0.881c-5.236,0-9.676,3.358-11.315,8.034
			c-0.228-0.013-0.454-0.034-0.685-0.034c-6.628,0-12,5.372-12,12C0,48.628,5.372,54,12,54h44c4.418,0,8-3.581,8-7.999
			C64,43.22,62.58,40.772,60.426,39.339z"/>
	</g>
</g>
<g>
</g>
<g>
</g>
<g>
</g>
<g>
</g>
<g>
</g>
<g>
</g>
<g>
</g>
<g>
</g>
<g>
</g>
<g>
</g>
<g>
</g>
<g>
</g>
<g>
</g>
<g>
</g>
<g>
</g>
</svg>
