<?xml version="1.0" encoding="iso-8859-1"?>
<!-- Generator: Adobe Illustrator 16.0.0, SVG Export Plug-In . SVG Version: 6.00 Build 0)  -->
<!DOCTYPE svg PUBLIC "-//W3C//DTD SVG 1.1//EN" "http://www.w3.org/Graphics/SVG/1.1/DTD/svg11.dtd">
<svg version="1.1" id="Layer_1" xmlns="http://www.w3.org/2000/svg" xmlns:xlink="http://www.w3.org/1999/xlink" x="0px" y="0px"
	 width="66px" height="64.036px" viewBox="0 0 66 64.036" style="enable-background:new 0 0 66 64.036;" xml:space="preserve">
<g id="Sun_9_">
	<g>
		<path style="fill-rule:evenodd;clip-rule:evenodd;fill:#FFCC66;" d="M7.694,26.412C10.559,20.269,16.773,16,24,16
			c0.974,0,1.923,0.099,2.856,0.248c0.54-0.672,1.103-1.324,1.717-1.928c-0.062-0.17-0.115-0.344-0.183-0.51
			c0.229-0.399,0.517-0.809,0.89-1.024c0.533-0.308,0.95-0.304,1.383-0.278c0.963-0.735,1.989-1.393,3.068-1.964
			c0.123-0.551,0.099-1.128-0.142-1.545c-3.623,2.093-4.078-0.243-5.996,0.864c-0.482,0.278-0.768,0.661-0.975,1.026
			c-0.518-0.616-1.078-1.194-1.714-1.69c-0.005-0.466,0.039-0.975,0.259-1.354c0.712-1.234,1.71-0.712,2.661-2.36
			c0.51-0.883,0.08-2.552-0.823-3.073c-2.092,3.623-3.654,1.828-4.762,3.746c-0.277,0.481-0.333,0.954-0.33,1.374
			c-0.751-0.279-1.524-0.509-2.341-0.624c-0.231-0.397-0.442-0.853-0.442-1.282c0-1.426,1.125-1.473,1.125-3.375
			C20.25,1.23,19.043,0,18,0c0,4.183-2.25,3.41-2.25,5.625c0,0.534,0.176,0.956,0.377,1.313c-0.807,0.137-1.569,0.38-2.304,0.68
			c-0.403-0.229-0.819-0.521-1.037-0.897c-0.712-1.234,0.238-1.837-0.713-3.485C11.563,2.352,9.903,1.89,9,2.41
			c2.092,3.624-0.244,4.079,0.863,5.997c0.279,0.483,0.663,0.77,1.029,0.977c-0.619,0.517-1.2,1.077-1.698,1.712
			c-0.465,0.004-0.972-0.04-1.349-0.258C6.61,10.125,7.133,9.127,5.484,8.176c-0.883-0.51-2.552-0.08-3.073,0.823
			c3.623,2.093,1.829,3.654,3.747,4.762c0.476,0.274,0.942,0.331,1.36,0.331c-0.281,0.752-0.513,1.529-0.627,2.349
			c-0.395,0.228-0.842,0.435-1.267,0.435c-1.426,0-1.473-1.125-3.375-1.125C1.23,15.75,0,16.956,0,17.999
			c4.184,0,3.41,2.25,5.625,2.25c0.527,0,0.944-0.171,1.299-0.368c0.137,0.808,0.384,1.571,0.686,2.307
			c-0.228,0.4-0.516,0.81-0.889,1.025c-1.235,0.713-1.838-0.238-3.485,0.713C2.352,24.436,1.89,26.096,2.411,27
			C5.54,25.193,6.308,26.684,7.694,26.412z"/>
	</g>
</g>
<g id="Cloud_38_">
	<g>
		<path style="fill-rule:evenodd;clip-rule:evenodd;fill:#CCCCCC;" d="M60.426,39.338C61.43,37.095,62,34.616,62,32
			c0-9.941-8.059-18-18-18c-6.609,0-12.37,3.572-15.5,8.881C27.109,22.317,25.593,22,24,22c-5.236,0-9.676,3.358-11.315,8.034
			C12.457,30.021,12.231,30,12,30C5.372,30,0,35.372,0,42c0,6.627,5.372,12,12,12h44c4.418,0,8-3.582,8-8
			C64,43.219,62.58,40.771,60.426,39.338z"/>
	</g>
</g>
<g id="Shower_Rain_4_">
	<g>
		<path style="fill-rule:evenodd;clip-rule:evenodd;fill:#48A0DC;" d="M25,42.24c-0.957-0.571-2.18-0.232-2.732,0.758l-6,9.933
			c-0.552,0.99-0.225,2.257,0.732,2.828c0.956,0.571,2.18,0.232,2.731-0.758l6-9.932C26.284,44.078,25.956,42.813,25,42.24z
			 M37,42.24c-0.957-0.571-2.18-0.232-2.732,0.758l-10,17.933c-0.552,0.99-0.225,2.257,0.732,2.828
			c0.956,0.571,2.18,0.232,2.732-0.758l9.999-17.932C38.284,44.078,37.956,42.813,37,42.24z M49,42.24
			c-0.957-0.571-2.18-0.232-2.732,0.758l-6,9.933c-0.552,0.99-0.225,2.257,0.732,2.828c0.956,0.571,2.18,0.232,2.731-0.758
			l6.001-9.932C50.284,44.078,49.956,42.813,49,42.24z"/>
	</g>
</g>
<g>
</g>
<g>
</g>
<g>
</g>
<g>
</g>
<g>
</g>
<g>
</g>
<g>
</g>
<g>
</g>
<g>
</g>
<g>
</g>
<g>
</g>
<g>
</g>
<g>
</g>
<g>
</g>
<g>
</g>
</svg>
