<?xml version="1.0" encoding="iso-8859-1"?>
<!-- Generator: Adobe Illustrator 16.0.0, SVG Export Plug-In . SVG Version: 6.00 Build 0)  -->
<!DOCTYPE svg PUBLIC "-//W3C//DTD SVG 1.1//EN" "http://www.w3.org/Graphics/SVG/1.1/DTD/svg11.dtd">
<svg version="1.1" id="Layer_1" xmlns="http://www.w3.org/2000/svg" xmlns:xlink="http://www.w3.org/1999/xlink" x="0px" y="0px"
	 width="76px" height="79.75px" viewBox="0 0 76 79.75" style="enable-background:new 0 0 76 79.75;" xml:space="preserve">
<g id="Moon_13_">
	<g>
		<path style="fill-rule:evenodd;clip-rule:evenodd;fill:#666666;" d="M11.931,49.671c2.962-5.88,9.037-9.922,16.069-9.922
			c0.682,0,1.351,0.047,2.012,0.12c0.321-0.362,0.648-0.719,0.99-1.062C23.282,36.036,17.75,28.673,17.75,20
			c0-1.9,0.282-3.732,0.777-5.474C10.146,16.909,4,24.604,4,33.749C4,40.255,7.12,46.019,11.931,49.671z"/>
	</g>
</g>
<g id="Cloud_56_">
	<g>
		<path style="fill-rule:evenodd;clip-rule:evenodd;fill:#CCCCCC;" d="M64.426,63.088C65.43,60.845,66,58.366,66,55.75
			c0-9.941-8.059-18-18-18c-6.608,0-12.369,3.572-15.5,8.881c-1.391-0.563-2.907-0.881-4.5-0.881c-5.236,0-9.677,3.358-11.315,8.034
			C16.457,53.771,16.231,53.75,16,53.75c-6.628,0-12,5.372-12,12c0,6.627,5.372,12,12,12h44c4.418,0,8-3.582,8-8
			C68,66.969,66.579,64.521,64.426,63.088z"/>
	</g>
</g>
<g>
</g>
<g>
</g>
<g>
</g>
<g>
</g>
<g>
</g>
<g>
</g>
<g>
</g>
<g>
</g>
<g>
</g>
<g>
</g>
<g>
</g>
<g>
</g>
<g>
</g>
<g>
</g>
<g>
</g>
</svg>
