<?xml version="1.0" encoding="iso-8859-1"?>
<!-- Generator: Adobe Illustrator 16.0.0, SVG Export Plug-In . SVG Version: 6.00 Build 0)  -->
<!DOCTYPE svg PUBLIC "-//W3C//DTD SVG 1.1//EN" "http://www.w3.org/Graphics/SVG/1.1/DTD/svg11.dtd">
<svg version="1.1" id="Layer_1" xmlns="http://www.w3.org/2000/svg" xmlns:xlink="http://www.w3.org/1999/xlink" x="0px" y="0px"
	 width="64px" height="64.001px" viewBox="0 0 64 64.001" style="enable-background:new 0 0 64 64.001;" xml:space="preserve">
<g id="Cloud_11_">
	<g>
		<path style="fill-rule:evenodd;clip-rule:evenodd;fill:#CCCCCC;" d="M60.426,25.339C61.43,23.096,62,20.616,62,18
			c0-9.94-8.06-18-18-18c-6.609,0-12.37,3.573-15.5,8.882c-1.391-0.563-2.907-0.881-4.5-0.881c-5.235,0-9.676,3.358-11.315,8.033
			C12.457,16.021,12.231,16,12,16C5.372,16,0,21.373,0,28.001C0,34.628,5.372,40,12,40h44c4.418,0,8-3.581,8-7.999
			C64,29.22,62.579,26.771,60.426,25.339z"/>
	</g>
</g>
<g id="Wind_10_">
	<g>
		<path style="fill-rule:evenodd;clip-rule:evenodd;fill:#48A0DC;" d="M16,48.001h8c1.104,0,2-0.896,2-2s-0.896-2-2-2h-8
			c-1.104,0-2,0.896-2,2S14.896,48.001,16,48.001z M38,52.001H16c-1.104,0-2,0.896-2,2s0.896,2,2,2h16.367H38c1.104,0,2,0.896,2,2
			s-0.896,2-2,2s-2,0.895-2,2c0,1.104,0.896,2,2,2c3.313,0,6-2.687,6-6C44,54.687,41.313,52.001,38,52.001z M46,36.001
			c-1.104,0-2,0.896-2,2s0.896,2,2,2s2,0.896,2,2s-0.896,2-2,2h-5.633H32c-1.104,0-2,0.896-2,2s0.896,2,2,2h14c3.313,0,6-2.687,6-6
			C52,38.687,49.313,36.001,46,36.001z"/>
	</g>
</g>
<g>
</g>
<g>
</g>
<g>
</g>
<g>
</g>
<g>
</g>
<g>
</g>
<g>
</g>
<g>
</g>
<g>
</g>
<g>
</g>
<g>
</g>
<g>
</g>
<g>
</g>
<g>
</g>
<g>
</g>
</svg>
