<?xml version="1.0" encoding="iso-8859-1"?>
<!-- Generator: Adobe Illustrator 16.0.0, SVG Export Plug-In . SVG Version: 6.00 Build 0)  -->
<!DOCTYPE svg PUBLIC "-//W3C//DTD SVG 1.1//EN" "http://www.w3.org/Graphics/SVG/1.1/DTD/svg11.dtd">
<svg version="1.1" id="Layer_1" xmlns="http://www.w3.org/2000/svg" xmlns:xlink="http://www.w3.org/1999/xlink" x="0px" y="0px"
	 width="66px" height="64.001px" viewBox="0 0 66 64.001" style="enable-background:new 0 0 66 64.001;" xml:space="preserve">
<g id="Cloud_9_">
	<g>
		<path style="fill-rule:evenodd;clip-rule:evenodd;fill:#999999;" d="M34.25,0c-4.546,0-8.508,2.504-10.66,6.223
			c-0.955-0.395-1.995-0.622-3.09-0.622c-3.602,0-6.632,2.364-7.758,5.641C12.577,11.23,12.418,11.2,12.25,11.2
			c-4.557,0-8.25,3.761-8.25,8.4c0,1.933,0.646,3.708,1.725,5.126c2.156-1.585,4.777-2.562,7.625-2.692
			c2.242-4.744,7.055-8.033,12.65-8.033c1.271,0,2.497,0.185,3.668,0.502c3.407-4.818,8.881-8.073,15.145-8.442
			C42.641,2.432,38.729,0,34.25,0z"/>
	</g>
</g>
<g id="Cloud_10_">
	<g>
		<path style="fill-rule:evenodd;clip-rule:evenodd;fill:#CCCCCC;" d="M62.426,37.339C63.43,35.096,64,32.616,64,30
			c0-9.94-8.059-17.999-18-17.999c-6.608,0-12.369,3.572-15.5,8.88C29.109,20.317,27.593,20,26,20
			c-5.236,0-9.677,3.359-11.315,8.035c-0.228-0.013-0.453-0.034-0.685-0.034C7.372,28.001,2,33.373,2,40
			c0,6.628,5.372,12.001,12,12.001h44c4.418,0,8-3.582,8-8.001C66,41.219,64.579,38.771,62.426,37.339z"/>
	</g>
</g>
<g id="Wind_9_">
	<g>
		<path style="fill-rule:evenodd;clip-rule:evenodd;fill:#48A0DC;" d="M18,48.001h8c1.104,0,2-0.896,2-2s-0.896-2-2-2h-8
			c-1.104,0-2,0.896-2,2S16.896,48.001,18,48.001z M40,52.001H18c-1.104,0-2,0.896-2,2s0.896,2,2,2h16.367H40c1.104,0,2,0.896,2,2
			s-0.896,2-2,2s-2,0.895-2,2c0,1.104,0.896,2,2,2c3.313,0,6-2.687,6-6C46,54.687,43.313,52.001,40,52.001z M48,36.001
			c-1.104,0-2,0.896-2,2s0.896,2,2,2s2,0.896,2,2s-0.896,2-2,2h-5.633H34c-1.104,0-2,0.896-2,2s0.896,2,2,2h14c3.313,0,6-2.687,6-6
			C54,38.687,51.313,36.001,48,36.001z"/>
	</g>
</g>
<g>
</g>
<g>
</g>
<g>
</g>
<g>
</g>
<g>
</g>
<g>
</g>
<g>
</g>
<g>
</g>
<g>
</g>
<g>
</g>
<g>
</g>
<g>
</g>
<g>
</g>
<g>
</g>
<g>
</g>
</svg>
