<?xml version="1.0" encoding="iso-8859-1"?>
<!-- Generator: Adobe Illustrator 16.0.0, SVG Export Plug-In . SVG Version: 6.00 Build 0)  -->
<!DOCTYPE svg PUBLIC "-//W3C//DTD SVG 1.1//EN" "http://www.w3.org/Graphics/SVG/1.1/DTD/svg11.dtd">
<svg version="1.1" id="Layer_1" xmlns="http://www.w3.org/2000/svg" xmlns:xlink="http://www.w3.org/1999/xlink" x="0px" y="0px"
	 width="66px" height="64px" viewBox="0 0 66 64" style="enable-background:new 0 0 66 64;" xml:space="preserve">
<g id="Sun_7_">
	<g>
		<path style="fill-rule:evenodd;clip-rule:evenodd;fill:#FFCC66;" d="M7.694,26.412C10.559,20.269,16.773,16,24,16
			c0.974,0,1.923,0.099,2.856,0.248c0.54-0.672,1.103-1.324,1.717-1.928c-0.062-0.169-0.115-0.343-0.183-0.51
			c0.229-0.399,0.517-0.809,0.89-1.024c0.533-0.308,0.95-0.304,1.383-0.278c0.963-0.735,1.989-1.393,3.067-1.964
			C33.853,9.993,33.829,9.417,33.588,9c-3.623,2.092-4.078-0.244-5.996,0.863c-0.482,0.278-0.768,0.66-0.975,1.027
			c-0.518-0.617-1.078-1.195-1.714-1.691c-0.005-0.466,0.039-0.975,0.259-1.354c0.712-1.234,1.71-0.713,2.661-2.36
			c0.51-0.883,0.08-2.552-0.823-3.073c-2.092,3.623-3.654,1.828-4.762,3.746c-0.277,0.481-0.333,0.954-0.331,1.374
			c-0.75-0.279-1.523-0.509-2.34-0.623c-0.231-0.398-0.442-0.853-0.442-1.284c0-1.425,1.125-1.472,1.125-3.374
			C20.25,1.23,19.043,0,18,0c0,4.184-2.25,3.41-2.25,5.624c0,0.535,0.176,0.958,0.377,1.313c-0.807,0.137-1.569,0.38-2.304,0.68
			c-0.403-0.229-0.819-0.521-1.037-0.897c-0.712-1.234,0.238-1.837-0.713-3.485C11.563,2.352,9.903,1.89,9,2.41
			c2.092,3.624-0.244,4.079,0.863,5.997c0.279,0.483,0.663,0.77,1.029,0.978c-0.619,0.516-1.2,1.076-1.698,1.711
			c-0.465,0.004-0.972-0.04-1.35-0.258c-1.234-0.713-0.712-1.711-2.36-2.662C4.602,7.666,2.933,8.096,2.411,9
			c3.623,2.092,1.828,3.653,3.746,4.761c0.477,0.274,0.943,0.331,1.361,0.331c-0.281,0.752-0.513,1.529-0.628,2.349
			c-0.394,0.229-0.841,0.435-1.266,0.435c-1.426,0-1.473-1.125-3.375-1.125C1.23,15.75,0,16.957,0,18c4.184,0,3.41,2.25,5.625,2.25
			c0.527,0,0.944-0.172,1.299-0.37c0.137,0.809,0.384,1.572,0.686,2.308c-0.229,0.4-0.517,0.81-0.89,1.025
			c-1.234,0.713-1.837-0.238-3.485,0.713c-0.883,0.51-1.345,2.17-0.823,3.073C5.541,25.192,6.308,26.685,7.694,26.412z"/>
	</g>
</g>
<g id="Cloud_28_">
	<g>
		<path style="fill-rule:evenodd;clip-rule:evenodd;fill:#999999;" d="M60.426,39.338C61.43,37.095,62,34.616,62,32
			c0-9.941-8.06-18-18-18c-6.608,0-12.369,3.572-15.5,8.88c-1.391-0.563-2.908-0.881-4.5-0.881c-5.236,0-9.676,3.359-11.315,8.035
			C12.457,30.021,12.231,30,12,30C5.372,30,0,35.372,0,42c0,6.627,5.372,12,12,12h44c4.418,0,8-3.582,8-8
			C64,43.219,62.579,40.771,60.426,39.338z"/>
	</g>
</g>
<g id="Lightning_4_">
	<g>
		<polygon style="fill:#FFCC66;" points="42,44 36,44 40.526,26 22,48 28,48 26,64 		"/>
	</g>
</g>
<g>
</g>
<g>
</g>
<g>
</g>
<g>
</g>
<g>
</g>
<g>
</g>
<g>
</g>
<g>
</g>
<g>
</g>
<g>
</g>
<g>
</g>
<g>
</g>
<g>
</g>
<g>
</g>
<g>
</g>
</svg>
