<?xml version="1.0" encoding="iso-8859-1"?>
<!-- Generator: Adobe Illustrator 16.0.0, SVG Export Plug-In . SVG Version: 6.00 Build 0)  -->
<!DOCTYPE svg PUBLIC "-//W3C//DTD SVG 1.1//EN" "http://www.w3.org/Graphics/SVG/1.1/DTD/svg11.dtd">
<svg version="1.1" id="Layer_1" xmlns="http://www.w3.org/2000/svg" xmlns:xlink="http://www.w3.org/1999/xlink" x="0px" y="0px"
	 width="70px" height="64px" viewBox="0 0 70 64" style="enable-background:new 0 0 70 64;" xml:space="preserve">
<g id="Cloud_26_">
	<g>
		<path style="fill-rule:evenodd;clip-rule:evenodd;fill:#999999;" d="M61.096,40.27c0.815-1.794,1.279-3.777,1.279-5.87
			C62.375,26.447,55.827,20,47.75,20c-5.369,0-10.05,2.857-12.593,7.104c-1.13-0.45-2.363-0.704-3.657-0.704
			c-4.254,0-7.862,2.687-9.194,6.428c-0.185-0.01-0.368-0.027-0.556-0.027c-5.385,0-9.75,4.298-9.75,9.6S16.365,52,21.75,52H57.5
			c3.59,0,6.5-2.866,6.5-6.4C64,43.374,62.846,41.416,61.096,40.27z"/>
	</g>
</g>
<g id="Cloud_27_">
	<g>
		<path style="fill-rule:evenodd;clip-rule:evenodd;fill:#808080;" d="M1.375,36.6c0,1.832,0.395,3.566,1.088,5.135
			C0.979,42.738,0,44.451,0,46.399C0,49.492,2.462,52,5.5,52h4.021C7.322,49.26,6,45.786,6,42c0-8.343,6.386-15.186,14.535-15.926
			C18.588,24.766,16.259,24,13.75,24C6.915,24,1.375,29.641,1.375,36.6z"/>
	</g>
</g>
<g id="Sun_6_">
	<g>
		<path style="fill-rule:evenodd;clip-rule:evenodd;fill:#FFCC66;" d="M55.589,9c-3.623,2.092-4.079-0.244-5.997,0.863
			c-0.482,0.278-0.768,0.66-0.975,1.027c-0.518-0.617-1.078-1.195-1.714-1.691c-0.005-0.466,0.039-0.975,0.259-1.354
			c0.712-1.234,1.71-0.713,2.661-2.36c0.51-0.883,0.08-2.552-0.823-3.073c-2.092,3.623-3.653,1.828-4.761,3.746
			c-0.278,0.481-0.334,0.954-0.332,1.374c-0.749-0.279-1.523-0.509-2.34-0.623c-0.231-0.398-0.442-0.853-0.442-1.284
			c0-1.425,1.125-1.472,1.125-3.374C42.25,1.23,41.043,0,40,0c0,4.184-2.25,3.41-2.25,5.624c0,0.535,0.176,0.958,0.377,1.313
			c-0.807,0.137-1.569,0.38-2.304,0.68c-0.403-0.229-0.819-0.521-1.036-0.897c-0.713-1.234,0.237-1.837-0.714-3.485
			C33.563,2.352,31.903,1.89,31,2.41c2.092,3.624-0.243,4.079,0.864,5.997c0.278,0.483,0.662,0.77,1.029,0.978
			c-0.62,0.516-1.201,1.076-1.699,1.711c-0.465,0.004-0.972-0.04-1.349-0.258c-1.234-0.713-0.713-1.711-2.361-2.662
			c-0.883-0.51-2.552-0.08-3.073,0.824c3.623,2.092,1.828,3.653,3.747,4.761c0.476,0.274,0.942,0.331,1.36,0.331
			c-0.281,0.752-0.513,1.529-0.628,2.349c-0.394,0.229-0.841,0.435-1.266,0.435c-1.426,0-1.473-1.125-3.375-1.125
			C23.23,15.75,22,16.957,22,18c4.184,0,3.41,2.25,5.625,2.25c0.527,0,0.944-0.172,1.299-0.37c0.023,0.14,0.067,0.271,0.097,0.407
			C29.987,20.105,30.98,20,32,20c0.293,0,0.579,0.028,0.868,0.044C36.811,16.301,42.134,14,48,14c0.85,0,1.686,0.053,2.511,0.146
			c-0.043-0.11-0.076-0.227-0.121-0.336c0.229-0.399,0.517-0.809,0.89-1.024c1.234-0.713,1.838,0.238,3.485-0.713
			C55.647,11.563,56.11,9.903,55.589,9z"/>
	</g>
</g>
<g id="Lightning_3_">
	<g>
		<polygon style="fill:#FFCC66;" points="48,44 42,44 46.526,26 28,48 34,48 32,64 		"/>
	</g>
</g>
<g>
</g>
<g>
</g>
<g>
</g>
<g>
</g>
<g>
</g>
<g>
</g>
<g>
</g>
<g>
</g>
<g>
</g>
<g>
</g>
<g>
</g>
<g>
</g>
<g>
</g>
<g>
</g>
<g>
</g>
</svg>
