<?xml version="1.0" encoding="iso-8859-1"?>
<!-- Generator: Adobe Illustrator 16.0.0, SVG Export Plug-In . SVG Version: 6.00 Build 0)  -->
<!DOCTYPE svg PUBLIC "-//W3C//DTD SVG 1.1//EN" "http://www.w3.org/Graphics/SVG/1.1/DTD/svg11.dtd">
<svg version="1.1" id="Layer_1" xmlns="http://www.w3.org/2000/svg" xmlns:xlink="http://www.w3.org/1999/xlink" x="0px" y="0px"
	 width="64px" height="40px" viewBox="0 0 64 40" style="enable-background:new 0 0 64 40;" xml:space="preserve">
<g id="Cloud_63_">
	<g>
		<path style="fill-rule:evenodd;clip-rule:evenodd;fill:#CCCCCC;" d="M60.426,25.338C61.429,23.095,62,20.615,62,17.999
			C62,8.059,53.94,0,44,0c-6.609,0-12.37,3.572-15.5,8.881C27.109,8.317,25.593,8,24,8c-5.235,0-9.676,3.358-11.315,8.033
			c-0.228-0.013-0.454-0.034-0.685-0.034C5.372,15.999,0,21.372,0,28c0,6.627,5.372,12,12,12h44c4.418,0,8-3.582,8-8
			C64,29.219,62.579,26.771,60.426,25.338z"/>
	</g>
</g>
<g>
</g>
<g>
</g>
<g>
</g>
<g>
</g>
<g>
</g>
<g>
</g>
<g>
</g>
<g>
</g>
<g>
</g>
<g>
</g>
<g>
</g>
<g>
</g>
<g>
</g>
<g>
</g>
<g>
</g>
</svg>
