<?xml version="1.0" encoding="iso-8859-1"?>
<!-- Generator: Adobe Illustrator 16.0.0, SVG Export Plug-In . SVG Version: 6.00 Build 0)  -->
<!DOCTYPE svg PUBLIC "-//W3C//DTD SVG 1.1//EN" "http://www.w3.org/Graphics/SVG/1.1/DTD/svg11.dtd">
<svg version="1.1" id="Layer_1" xmlns="http://www.w3.org/2000/svg" xmlns:xlink="http://www.w3.org/1999/xlink" x="0px" y="0px"
	 width="66px" height="52px" viewBox="0 0 66 52" style="enable-background:new 0 0 66 52;" xml:space="preserve">
<g id="Cloud_61_">
	<g>
		<path style="fill-rule:evenodd;clip-rule:evenodd;fill:#999999;" d="M34.25,0c-4.546,0-8.508,2.503-10.659,6.223
			c-0.956-0.395-1.996-0.622-3.091-0.622c-3.602,0-6.632,2.364-7.757,5.641C12.577,11.23,12.418,11.2,12.25,11.2
			c-4.557,0-8.25,3.762-8.25,8.4c0,1.933,0.646,3.708,1.725,5.126c2.156-1.585,4.777-2.562,7.625-2.692
			c2.242-4.744,7.055-8.033,12.65-8.033c1.271,0,2.497,0.185,3.668,0.502c3.408-4.818,8.881-8.073,15.145-8.442
			C42.641,2.432,38.729,0,34.25,0z"/>
	</g>
</g>
<g id="Cloud_62_">
	<g>
		<path style="fill-rule:evenodd;clip-rule:evenodd;fill:#CCCCCC;" d="M62.426,37.339C63.43,35.096,64,32.617,64,30.001
			c0-9.941-8.059-18-18-18c-6.609,0-12.37,3.572-15.5,8.881c-1.391-0.563-2.907-0.881-4.5-0.881c-5.236,0-9.676,3.358-11.315,8.034
			c-0.228-0.013-0.454-0.034-0.685-0.034c-6.628,0-12,5.372-12,12C2,46.628,7.372,52,14,52h44c4.418,0,8-3.581,8-7.999
			C66,41.22,64.58,38.772,62.426,37.339z"/>
	</g>
</g>
<g>
</g>
<g>
</g>
<g>
</g>
<g>
</g>
<g>
</g>
<g>
</g>
<g>
</g>
<g>
</g>
<g>
</g>
<g>
</g>
<g>
</g>
<g>
</g>
<g>
</g>
<g>
</g>
<g>
</g>
</svg>
