<?xml version="1.0" encoding="iso-8859-1"?>
<!-- Generator: Adobe Illustrator 16.0.0, SVG Export Plug-In . SVG Version: 6.00 Build 0)  -->
<!DOCTYPE svg PUBLIC "-//W3C//DTD SVG 1.1//EN" "http://www.w3.org/Graphics/SVG/1.1/DTD/svg11.dtd">
<svg version="1.1" id="Layer_1" xmlns="http://www.w3.org/2000/svg" xmlns:xlink="http://www.w3.org/1999/xlink" x="0px" y="0px"
	 width="96px" height="64px" viewBox="0 0 96 64" style="enable-background:new 0 0 96 64;" xml:space="preserve">
<g id="Rainbow_5_">
	<g>
		<path style="fill-rule:evenodd;clip-rule:evenodd;fill:#387AA7;" d="M64,10c-12.15,0-22,9.85-22,22h6.023
			c0-8.824,7.152-15.977,15.977-15.977V10z"/>
	</g>
</g>
<g id="Rainbow_6_">
	<g>
		<path style="fill-rule:evenodd;clip-rule:evenodd;fill:#88C057;" d="M64,6C49.641,6,38,17.641,38,32h6.012
			c0-11.039,8.949-19.988,19.988-19.988V6z"/>
	</g>
</g>
<g id="Rainbow_7_">
	<g>
		<path style="fill-rule:evenodd;clip-rule:evenodd;fill:#FFCC66;" d="M64,2C47.432,2,34,15.431,34,32h6C40,18.745,50.745,8,64,8V2z
			"/>
	</g>
</g>
<g id="Rainbow_8_">
	<g>
		<path style="fill-rule:evenodd;clip-rule:evenodd;fill:#ED7161;" d="M64,0C46.326,0,32,14.326,32,32h4C36,16.535,48.536,4,64,4V0z
			"/>
	</g>
</g>
<g id="Cloud_64_">
	<g>
		<path style="fill-rule:evenodd;clip-rule:evenodd;fill:#CCCCCC;" d="M60.426,49.337C61.43,47.094,62,44.615,62,41.999
			C62,32.059,53.94,24,44,24c-6.608,0-12.369,3.572-15.5,8.88c-1.391-0.563-2.907-0.881-4.5-0.881
			c-5.236,0-9.677,3.359-11.315,8.036C12.457,40.021,12.231,40,12,40C5.372,40,0,45.372,0,51.999C0,58.627,5.372,64,12,64h44
			c4.418,0,8-3.582,8-8.001C64,53.218,62.579,50.771,60.426,49.337z"/>
	</g>
</g>
<g>
</g>
<g>
</g>
<g>
</g>
<g>
</g>
<g>
</g>
<g>
</g>
<g>
</g>
<g>
</g>
<g>
</g>
<g>
</g>
<g>
</g>
<g>
</g>
<g>
</g>
<g>
</g>
<g>
</g>
</svg>
