<?xml version="1.0" encoding="iso-8859-1"?>
<!-- Generator: Adobe Illustrator 16.0.0, SVG Export Plug-In . SVG Version: 6.00 Build 0)  -->
<!DOCTYPE svg PUBLIC "-//W3C//DTD SVG 1.1//EN" "http://www.w3.org/Graphics/SVG/1.1/DTD/svg11.dtd">
<svg version="1.1" id="Layer_1" xmlns="http://www.w3.org/2000/svg" xmlns:xlink="http://www.w3.org/1999/xlink" x="0px" y="0px"
	 width="64px" height="63.987px" viewBox="0 0 64 63.987" style="enable-background:new 0 0 64 63.987;" xml:space="preserve">
<g id="Label_2_">
	<g>
		<path style="fill:#CCCCCC;" d="M60,0H4C1.791,0,0,1.79,0,3.999v55.988c0,2.209,1.791,4,4,4h56c2.209,0,4-1.791,4-4V3.999
			C64,1.79,62.209,0,60,0z"/>
	</g>
</g>
<g id="H_1_">
	<g>
		<path style="fill-rule:evenodd;clip-rule:evenodd;fill:#FFFFFF;" d="M26,8.06c-1.104,0-2,0.895-2,1.998v5.99h-6v-5.99
			c0-1.104-0.896-1.998-2-1.998s-2,0.895-2,1.998v15.975c0,1.103,0.896,1.997,2,1.997s2-0.895,2-1.997v-5.99h6v5.99
			c0,1.103,0.896,1.997,2,1.997s2-0.895,2-1.997V10.058C28,8.954,27.104,8.06,26,8.06z"/>
	</g>
</g>
<g id="A">
	<g>
		<path style="fill-rule:evenodd;clip-rule:evenodd;fill:#FFFFFF;" d="M49.858,25.183L44.098,9.478
			c-0.26-0.71-0.87-1.188-1.565-1.326c-1.075-0.352-2.241,0.205-2.631,1.273l-5.761,15.802c-0.397,1.091,0.166,2.297,1.259,2.694
			c1.093,0.396,2.301-0.166,2.698-1.257l0.958-2.629h5.9l0.945,2.575c0.397,1.085,1.605,1.644,2.698,1.249
			C49.692,27.466,50.256,26.266,49.858,25.183z M40.512,20.042l1.485-4.074l1.495,4.074H40.512z"/>
	</g>
</g>
<g id="Z">
	<g>
		<path style="fill-rule:evenodd;clip-rule:evenodd;fill:#FFFFFF;" d="M24,49.995h-4.772l6.504-12.949
			c0.106-0.186,0.171-0.383,0.214-0.581c0.006-0.025,0.012-0.051,0.017-0.077c0.016-0.088,0.023-0.175,0.027-0.264
			C25.991,36.088,26,36.054,26,36.017c0-0.021-0.006-0.042-0.006-0.063c-0.002-0.052-0.009-0.103-0.016-0.155
			c-0.01-0.091-0.023-0.181-0.045-0.268c-0.003-0.012-0.007-0.023-0.011-0.035c-0.175-0.644-0.662-1.153-1.292-1.363
			c0,0,0,0-0.001,0c-0.12-0.041-0.245-0.069-0.374-0.086c-0.008-0.001-0.017-0.001-0.025-0.002
			c-0.077-0.009-0.152-0.023-0.231-0.023h-8c-1.104,0-2,0.894-2,1.996c0,1.104,0.896,1.997,2,1.997h4.771l-6.503,12.949
			c-0.108,0.188-0.173,0.388-0.215,0.589c-0.005,0.021-0.01,0.043-0.014,0.064c-0.017,0.092-0.024,0.184-0.028,0.275
			C14.008,51.926,14,51.958,14,51.992c0,0.021,0.005,0.039,0.006,0.06c0.002,0.056,0.01,0.111,0.017,0.167
			c0.01,0.087,0.022,0.173,0.042,0.256c0.004,0.017,0.011,0.032,0.015,0.049c0.212,0.765,0.864,1.339,1.67,1.44
			c0.002,0,0.004,0.001,0.005,0.001c0.081,0.01,0.161,0.024,0.244,0.024h8c1.104,0,2-0.895,2-1.997S25.104,49.995,24,49.995z"/>
	</g>
</g>
<g id="E">
	<g>
		<path style="fill-rule:evenodd;clip-rule:evenodd;fill:#FFFFFF;" d="M48,49.995H38v-3.994h6c1.104,0,2-0.894,2-1.997
			c0-1.103-0.896-1.996-2-1.996h-6v-3.994h10c1.104,0,1.999-0.895,1.999-1.997c0-1.104-0.895-1.997-1.999-1.997H36
			c-1.105,0-2,0.894-2,1.997v15.975c0,1.104,0.895,1.998,2,1.998h12c1.104,0,1.999-0.895,1.999-1.998
			C49.999,50.889,49.104,49.995,48,49.995z"/>
	</g>
</g>
<g>
</g>
<g>
</g>
<g>
</g>
<g>
</g>
<g>
</g>
<g>
</g>
<g>
</g>
<g>
</g>
<g>
</g>
<g>
</g>
<g>
</g>
<g>
</g>
<g>
</g>
<g>
</g>
<g>
</g>
</svg>
