<?xml version="1.0" encoding="iso-8859-1"?>
<!-- Generator: Adobe Illustrator 16.0.0, SVG Export Plug-In . SVG Version: 6.00 Build 0)  -->
<!DOCTYPE svg PUBLIC "-//W3C//DTD SVG 1.1//EN" "http://www.w3.org/Graphics/SVG/1.1/DTD/svg11.dtd">
<svg version="1.1" id="Layer_1" xmlns="http://www.w3.org/2000/svg" xmlns:xlink="http://www.w3.org/1999/xlink" x="0px" y="0px"
	 width="64px" height="31.993px" viewBox="0 0 64 31.993" style="enable-background:new 0 0 64 31.993;" xml:space="preserve">
<g id="Label_4_">
	<g>
		<path style="fill:#ED7161;" d="M60,0H4C1.791,0,0,1.79,0,3.999v23.995c0,2.209,1.791,3.999,4,3.999h56c2.209,0,4-1.79,4-3.999
			V3.999C64,1.79,62.209,0,60,0z"/>
	</g>
</g>
<g id="H_2_">
	<g>
		<path style="fill-rule:evenodd;clip-rule:evenodd;fill:#FFFFFF;" d="M20,5.999c-1.104,0-2,0.895-2,1.999v5.999h-6V7.998
			c0-1.104-0.895-1.999-2-1.999c-1.104,0-2,0.895-2,1.999v15.997c0,1.104,0.896,2,2,2c1.105,0,2-0.896,2-2v-5.999h6v5.999
			c0,1.104,0.896,2,2,2s2-0.896,2-2V7.998C22,6.894,21.104,5.999,20,5.999z"/>
	</g>
</g>
<g id="O_1_">
	<g>
		<path style="fill-rule:evenodd;clip-rule:evenodd;fill:#FFFFFF;" d="M33,5.999c-3.866,0-7,3.133-7,6.998v5.999
			c0,3.865,3.134,6.999,7,6.999c3.866,0,7-3.134,7-6.999v-5.999C40,9.132,36.866,5.999,33,5.999z M36,18.996
			c0,1.656-1.343,2.999-3,2.999c-1.657,0-3-1.343-3-2.999v-5.999c0-1.656,1.343-2.999,3-2.999c1.657,0,3,1.343,3,2.999V18.996z"/>
	</g>
</g>
<g id="T_1_">
	<g>
		<path style="fill-rule:evenodd;clip-rule:evenodd;fill:#FFFFFF;" d="M54,5.999h-8c-1.104,0-2,0.895-2,1.999s0.896,2,2,2h2v13.997
			c0,1.104,0.896,2,2,2s2-0.896,2-2V9.998h2c1.104,0,2-0.896,2-2S55.105,5.999,54,5.999z"/>
	</g>
</g>
<g>
</g>
<g>
</g>
<g>
</g>
<g>
</g>
<g>
</g>
<g>
</g>
<g>
</g>
<g>
</g>
<g>
</g>
<g>
</g>
<g>
</g>
<g>
</g>
<g>
</g>
<g>
</g>
<g>
</g>
</svg>
