<?xml version="1.0" encoding="iso-8859-1"?>
<!-- Generator: Adobe Illustrator 16.0.0, SVG Export Plug-In . SVG Version: 6.00 Build 0)  -->
<!DOCTYPE svg PUBLIC "-//W3C//DTD SVG 1.1//EN" "http://www.w3.org/Graphics/SVG/1.1/DTD/svg11.dtd">
<svg version="1.1" id="Layer_1" xmlns="http://www.w3.org/2000/svg" xmlns:xlink="http://www.w3.org/1999/xlink" x="0px" y="0px"
	 width="64px" height="64px" viewBox="0 0 64 64" style="enable-background:new 0 0 64 64;" xml:space="preserve">
<g id="Hurricane">
	<g>
		<path style="fill-rule:evenodd;clip-rule:evenodd;fill:#48A0DC;" d="M54,4c0-2.209-1.791-4-4-4H4C1.791,0,0,1.791,0,4s1.791,4,4,4
			h46C52.209,8,54,6.209,54,4z M60,12H16c-2.209,0-4,1.79-4,4c0,2.209,1.791,4,4,4h44c2.209,0,4-1.791,4-4C64,13.79,62.209,12,60,12
			z M52,24H24c-2.209,0-4,1.791-4,4s1.791,4,4,4h28c2.209,0,4-1.791,4-4S54.209,24,52,24z M38,36H18c-2.209,0-4,1.79-4,4
			c0,2.209,1.791,4,4,4h20c2.209,0,4-1.791,4-4C42,37.79,40.209,36,38,36z M28,48h-8c-2.209,0-4,1.79-4,4c0,2.209,1.791,4,4,4h8
			c2.209,0,4-1.791,4-4C32,49.79,30.209,48,28,48z M30,60h-4c-1.104,0-2,0.896-2,2c0,1.104,0.896,2,2,2h4c1.104,0,2-0.896,2-2
			C32,60.896,31.104,60,30,60z"/>
	</g>
</g>
<g>
</g>
<g>
</g>
<g>
</g>
<g>
</g>
<g>
</g>
<g>
</g>
<g>
</g>
<g>
</g>
<g>
</g>
<g>
</g>
<g>
</g>
<g>
</g>
<g>
</g>
<g>
</g>
<g>
</g>
</svg>
