<?xml version="1.0" encoding="iso-8859-1"?>
<!-- Generator: Adobe Illustrator 16.0.0, SVG Export Plug-In . SVG Version: 6.00 Build 0)  -->
<!DOCTYPE svg PUBLIC "-//W3C//DTD SVG 1.1//EN" "http://www.w3.org/Graphics/SVG/1.1/DTD/svg11.dtd">
<svg version="1.1" id="Layer_1" xmlns="http://www.w3.org/2000/svg" xmlns:xlink="http://www.w3.org/1999/xlink" x="0px" y="0px"
	 width="64px" height="63.922px" viewBox="0 0 64 63.922" style="enable-background:new 0 0 64 63.922;" xml:space="preserve">
<g id="Shape_1">
	<g>
		<path style="fill-rule:evenodd;clip-rule:evenodd;fill:#ED7161;" d="M64,0.049c0,0-46.524-2.419-51.235,26.828
			c-0.364,1.578-0.563,3.219-0.563,4.907c0,5.699,2.193,10.886,5.781,14.772C28.094,61.246,0,63.896,0,63.896
			s46.136,1.741,54.654-23.535c1.108-2.625,1.721-5.509,1.721-8.537c0-5.804-2.256-11.08-5.936-15.008
			C40.166,2.189,64,0.049,64,0.049z M34,39.936c-4.418,0-8-3.578-8-7.992s3.582-7.992,8-7.992c4.418,0,8,3.578,8,7.992
			S38.418,39.936,34,39.936z"/>
	</g>
</g>
<g>
</g>
<g>
</g>
<g>
</g>
<g>
</g>
<g>
</g>
<g>
</g>
<g>
</g>
<g>
</g>
<g>
</g>
<g>
</g>
<g>
</g>
<g>
</g>
<g>
</g>
<g>
</g>
<g>
</g>
</svg>
