<?xml version="1.0" encoding="iso-8859-1"?>
<!-- Generator: Adobe Illustrator 16.0.0, SVG Export Plug-In . SVG Version: 6.00 Build 0)  -->
<!DOCTYPE svg PUBLIC "-//W3C//DTD SVG 1.1//EN" "http://www.w3.org/Graphics/SVG/1.1/DTD/svg11.dtd">
<svg version="1.1" id="Layer_1" xmlns="http://www.w3.org/2000/svg" xmlns:xlink="http://www.w3.org/1999/xlink" x="0px" y="0px"
	 width="64px" height="63.999px" viewBox="0 0 64 63.999" style="enable-background:new 0 0 64 63.999;" xml:space="preserve">
<g id="Shape_1_">
	<g>
		<path style="fill:#CCCCCC;" d="M0,10v4c0,1.104,0.896,2,2,2h60c1.104,0,2-0.896,2-2v-4H0z"/>
	</g>
</g>
<g id="Icicle">
	<g>
		<path style="fill-rule:evenodd;clip-rule:evenodd;fill:#48A0DC;" d="M56,14H8c-1.104,0-2,0.896-2,2c0,1.104,0.896,2,2,2h2v1.999
			C10,21.104,10.896,22,12,22c0.063,0,0.12-0.013,0.181-0.018L14,61.999c0,1.104,0.896,2,2,2s2-0.896,2-2L20,18l2,22
			c0,1.104,0.896,1.999,2,1.999s2-0.896,2-1.999l2-22l2,32c0,1.104,0.896,1.999,2,1.999s2-0.895,2-1.999l2-32l2,22
			c0,1.104,0.896,1.999,2,1.999s2-0.896,2-1.999l2-22l2,14c0,1.104,0.896,2,2,2s2-0.896,2-2l2-14h4c1.104,0,2-0.896,2-2
			C58,14.896,57.104,14,56,14z"/>
	</g>
</g>
<g id="Roof_1_">
	<g>
		<path style="fill:#BA594C;" d="M60,0H4C1.791,0,0,1.791,0,4v6h64V4C64,1.791,62.209,0,60,0z"/>
	</g>
</g>
<g>
</g>
<g>
</g>
<g>
</g>
<g>
</g>
<g>
</g>
<g>
</g>
<g>
</g>
<g>
</g>
<g>
</g>
<g>
</g>
<g>
</g>
<g>
</g>
<g>
</g>
<g>
</g>
<g>
</g>
</svg>
