<?xml version="1.0" encoding="iso-8859-1"?>
<!-- Generator: Adobe Illustrator 16.0.0, SVG Export Plug-In . SVG Version: 6.00 Build 0)  -->
<!DOCTYPE svg PUBLIC "-//W3C//DTD SVG 1.1//EN" "http://www.w3.org/Graphics/SVG/1.1/DTD/svg11.dtd">
<svg version="1.1" id="Layer_1" xmlns="http://www.w3.org/2000/svg" xmlns:xlink="http://www.w3.org/1999/xlink" x="0px" y="0px"
	 width="64px" height="31.993px" viewBox="0 0 64 31.993" style="enable-background:new 0 0 64 31.993;" xml:space="preserve">
<g id="Label_3_">
	<g>
		<path style="fill:#48A0DC;" d="M60,0H4C1.791,0,0,1.79,0,3.999v23.995c0,2.209,1.791,3.999,4,3.999h56c2.209,0,4-1.79,4-3.999
			V3.999C64,1.79,62.209,0,60,0z"/>
	</g>
</g>
<g id="I">
	<g>
		<path style="fill:#FFFFFF;" d="M14,5.999c-1.104,0-2,0.895-2,1.999v15.997c0,1.104,0.896,2,2,2s2-0.896,2-2V7.998
			C16,6.894,15.104,5.999,14,5.999z"/>
	</g>
</g>
<g id="C">
	<g>
		<path style="fill-rule:evenodd;clip-rule:evenodd;fill:#FFFFFF;" d="M32,13.997c1.104,0,2-0.895,2-2v-0.006
			c0-3.865-3.135-5.992-7-5.992c-3.866,0-7,3.133-7,6.998v5.999c0,3.865,3.134,6.999,7,6.999c3.864,0,6.997-2.137,7-5.999
			c0-1.104-0.896-2-2-2s-2,0.896-2,2h0c-0.003,1.651-1.345,1.999-3,1.999c-1.657,0-3-1.343-3-2.999v-5.999
			c0-1.656,1.343-2.999,3-2.999c1.656,0,3,0.337,3,1.993v0.006C30,13.103,30.896,13.997,32,13.997z"/>
	</g>
</g>
<g id="Y">
	<g>
		<path style="fill-rule:evenodd;clip-rule:evenodd;fill:#FFFFFF;" d="M53.411,6.587c-0.807-0.807-2.114-0.807-2.92,0l-4.482,4.481
			L41.53,6.591c-0.812-0.812-2.127-0.812-2.938,0c-0.812,0.811-0.812,2.127,0,2.938L44,14.936v9.06c0,1.104,0.895,2,2,2
			c1.104,0,2-0.896,2-2v-9.078l5.411-5.41C54.218,8.7,54.218,7.394,53.411,6.587z"/>
	</g>
</g>
<g>
</g>
<g>
</g>
<g>
</g>
<g>
</g>
<g>
</g>
<g>
</g>
<g>
</g>
<g>
</g>
<g>
</g>
<g>
</g>
<g>
</g>
<g>
</g>
<g>
</g>
<g>
</g>
<g>
</g>
</svg>
