<?xml version="1.0" encoding="iso-8859-1"?>
<!-- Generator: Adobe Illustrator 16.0.0, SVG Export Plug-In . SVG Version: 6.00 Build 0)  -->
<!DOCTYPE svg PUBLIC "-//W3C//DTD SVG 1.1//EN" "http://www.w3.org/Graphics/SVG/1.1/DTD/svg11.dtd">
<svg version="1.1" id="Layer_1" xmlns="http://www.w3.org/2000/svg" xmlns:xlink="http://www.w3.org/1999/xlink" x="0px" y="0px"
	 width="72px" height="64.001px" viewBox="0 0 72 64.001" style="enable-background:new 0 0 72 64.001;" xml:space="preserve">
<g id="Moon">
	<g>
		<path style="fill-rule:evenodd;clip-rule:evenodd;fill:#CCCCCC;" d="M40,42.001H22c-3.313,0-6-2.687-6-6s2.687-6,6-6h2.349
			c-0.222-0.626-0.349-1.298-0.349-2c0-3.314,2.686-6,6-6h10c0-7.458,5.835-13.535,13.186-13.959C47.543,3.044,40.132,0,32,0
			C14.326,0,0,14.327,0,32c0,17.674,14.326,32.001,32,32.001c8.131,0,15.54-3.044,21.182-8.041C45.832,55.533,40,49.456,40,42.001z"
			/>
	</g>
</g>
<g id="Cratter">
	<g>
		<path style="fill-rule:evenodd;clip-rule:evenodd;fill:#B3B3B3;" d="M30,22.001h4c0-5.523-4.478-10-10-10c-5.523,0-10,4.477-10,10
			c0,3.754,2.07,7.02,5.13,8.73c0.853-0.466,1.83-0.73,2.87-0.73h2.353c-0.223-0.626-0.353-1.297-0.353-2
			C24,24.687,26.686,22.001,30,22.001z M32,46c-2.21,0-4,1.792-4,4.001s1.79,4,4,4c2.209,0,4-1.791,4-4S34.209,46,32,46z M14,36.001
			c-1.104,0-2,0.895-2,2c0,1.104,0.896,2,2,2s2-0.896,2-2C16,36.896,15.104,36.001,14,36.001z"/>
	</g>
</g>
<g id="Wind">
	<g>
		<path style="fill-rule:evenodd;clip-rule:evenodd;fill:#72C1F7;" d="M54.727,34.001H22.061c-1.139,0-2.061,0.895-2.061,2
			c0,1.104,0.922,2,2.061,2h23.394h1.563h7.709c2.846,0,5.152,2.238,5.152,5c0,2.761-2.307,5-5.152,5c-2.845,0-5.151-2.239-5.151-5
			c0-1.105-0.923-2-2.061-2s-2.061,0.895-2.061,2c0,4.97,4.151,9,9.272,9s9.273-4.03,9.273-9C64,38.03,59.848,34.001,54.727,34.001z
			"/>
	</g>
</g>
<g id="Wind_1_">
	<g>
		<path style="fill-rule:evenodd;clip-rule:evenodd;fill:#72C1F7;" d="M54.727,12.001c-5.121,0-9.272,4.029-9.272,9
			c0,1.104,0.923,2,2.061,2s2.061-0.896,2.061-2c0-2.762,2.307-5,5.151-5c2.846,0,5.152,2.238,5.152,5s-2.307,5-5.152,5h-7.709
			h-1.563H30.061c-1.139,0-2.061,0.896-2.061,2s0.922,2,2.061,2h24.666c5.121,0,9.273-4.029,9.273-9S59.848,12.001,54.727,12.001z"
			/>
	</g>
</g>
<g>
</g>
<g>
</g>
<g>
</g>
<g>
</g>
<g>
</g>
<g>
</g>
<g>
</g>
<g>
</g>
<g>
</g>
<g>
</g>
<g>
</g>
<g>
</g>
<g>
</g>
<g>
</g>
<g>
</g>
</svg>
