<?xml version="1.0" encoding="iso-8859-1"?>
<!-- Generator: Adobe Illustrator 16.0.0, SVG Export Plug-In . SVG Version: 6.00 Build 0)  -->
<!DOCTYPE svg PUBLIC "-//W3C//DTD SVG 1.1//EN" "http://www.w3.org/Graphics/SVG/1.1/DTD/svg11.dtd">
<svg version="1.1" id="Layer_1" xmlns="http://www.w3.org/2000/svg" xmlns:xlink="http://www.w3.org/1999/xlink" x="0px" y="0px"
	 width="70px" height="64.001px" viewBox="0 0 70 64.001" style="enable-background:new 0 0 70 64.001;" xml:space="preserve">
<g id="Moon_1_">
	<g>
		<path style="fill-rule:evenodd;clip-rule:evenodd;fill:#CCCCCC;" d="M32,0C14.326,0,0,14.327,0,32
			c0,17.674,14.326,32.001,32,32.001c5.61,0,10.873-1.463,15.457-4H32c-6.628,0-12-5.383-12-12.021
			c0-6.112,4.559-11.149,10.454-11.91c2.017-2.492,5.094-4.088,8.546-4.088c0.758,0,1.497,0.077,2.212,0.223
			c2.846-2.602,6.625-4.203,10.788-4.203c4.767,0,9.033,2.093,11.965,5.396C63.984,32.934,64,32.469,64,32C64,14.327,49.673,0,32,0z
			"/>
	</g>
</g>
<g id="Cratter_1_">
	<g>
		<path style="fill-rule:evenodd;clip-rule:evenodd;fill:#B3B3B3;" d="M52,24.001c-2.327,0-4.341,1.327-5.336,3.263
			c1.609-0.801,3.417-1.263,5.336-1.263s3.727,0.462,5.335,1.263C56.34,25.328,54.327,24.001,52,24.001z M32,46
			c-2.209,0-4,1.792-4,4.001s1.791,4,4,4s4-1.791,4-4S34.209,46,32,46z M14,36.001c-1.104,0-2,0.895-2,2c0,1.104,0.896,2,2,2
			s2-0.896,2-2C16,36.896,15.104,36.001,14,36.001z M34,22.001c0-5.523-4.478-10-10-10c-5.523,0-10,4.477-10,10
			c0,5.522,4.477,10,10,10C29.522,32.001,34,27.523,34,22.001z"/>
	</g>
</g>
<g id="Cloud">
	<g>
		<path style="fill-rule:evenodd;clip-rule:evenodd;fill:#999999;" d="M61.766,47.205c0.628-1.347,0.984-2.834,0.984-4.404
			C62.75,36.836,57.713,32,51.5,32c-4.13,0-7.73,2.144-9.688,5.329c-0.869-0.338-1.817-0.528-2.813-0.528
			c-3.272,0-6.048,2.016-7.072,4.82c-0.143-0.008-0.283-0.021-0.428-0.021c-4.143,0-7.5,3.224-7.5,7.2c0,3.976,3.357,7.2,7.5,7.2H59
			c2.761,0,5-2.149,5-4.801C64,49.532,63.111,48.064,61.766,47.205z"/>
	</g>
</g>
<g>
</g>
<g>
</g>
<g>
</g>
<g>
</g>
<g>
</g>
<g>
</g>
<g>
</g>
<g>
</g>
<g>
</g>
<g>
</g>
<g>
</g>
<g>
</g>
<g>
</g>
<g>
</g>
<g>
</g>
</svg>
