<?xml version="1.0" encoding="iso-8859-1"?>
<!-- Generator: Adobe Illustrator 16.0.0, SVG Export Plug-In . SVG Version: 6.00 Build 0)  -->
<!DOCTYPE svg PUBLIC "-//W3C//DTD SVG 1.1//EN" "http://www.w3.org/Graphics/SVG/1.1/DTD/svg11.dtd">
<svg version="1.1" id="Layer_1" xmlns="http://www.w3.org/2000/svg" xmlns:xlink="http://www.w3.org/1999/xlink" x="0px" y="0px"
	 width="86px" height="86px" viewBox="0 0 86 86" style="enable-background:new 0 0 86 86;" xml:space="preserve">
<g id="Moon_14_">
	<g>
		<path style="fill-rule:evenodd;clip-rule:evenodd;fill:#CCCCCC;" d="M54,64c-17.673,0-32-14.327-32-32
			c0-3.044,0.434-5.984,1.228-8.773C9.821,27.042,0,39.37,0,54c0,17.673,14.327,32,32,32c14.629,0,26.958-9.821,30.772-23.228
			C59.983,63.566,57.043,64,54,64z"/>
	</g>
</g>
<g id="Cratter_2_">
	<g>
		<path style="fill-rule:evenodd;clip-rule:evenodd;fill:#B3B3B3;" d="M22.59,38.111C17.736,38.798,14,42.957,14,48
			c0,5.522,4.477,10,10,10c2.952,0,5.597-1.287,7.427-3.321C26.978,50.251,23.83,44.521,22.59,38.111z"/>
	</g>
</g>
<g id="Cratter_3_">
	<g>
		<circle style="fill:#B3B3B3;" cx="32" cy="72" r="4"/>
	</g>
</g>
<g id="Star_6_">
	<g>
		<path style="fill:#FFCC66;" d="M63.944,29.555c-0.124-0.41-0.45-0.715-0.85-0.794l-5.448-1.094l-2.678-5.065
			c-0.195-0.372-0.566-0.603-0.969-0.603s-0.773,0.23-0.97,0.603l-2.677,5.065l-5.448,1.094c-0.4,0.079-0.726,0.384-0.851,0.794
			c-0.125,0.41-0.028,0.859,0.252,1.172l3.784,4.217l-0.687,5.73c-0.051,0.425,0.12,0.846,0.446,1.098
			c0.194,0.15,0.425,0.228,0.656,0.228c0.159,0,0.318-0.036,0.466-0.109L54,39.429l5.025,2.461c0.149,0.073,0.309,0.109,0.467,0.109
			c0.232,0,0.462-0.077,0.656-0.228c0.326-0.252,0.497-0.673,0.446-1.098l-0.687-5.73l3.785-4.217
			C63.973,30.414,64.069,29.965,63.944,29.555z"/>
	</g>
</g>
<g>
</g>
<g>
</g>
<g>
</g>
<g>
</g>
<g>
</g>
<g>
</g>
<g>
</g>
<g>
</g>
<g>
</g>
<g>
</g>
<g>
</g>
<g>
</g>
<g>
</g>
<g>
</g>
<g>
</g>
</svg>
