<?xml version="1.0" encoding="iso-8859-1"?>
<!-- Generator: Adobe Illustrator 16.0.0, SVG Export Plug-In . SVG Version: 6.00 Build 0)  -->
<!DOCTYPE svg PUBLIC "-//W3C//DTD SVG 1.1//EN" "http://www.w3.org/Graphics/SVG/1.1/DTD/svg11.dtd">
<svg version="1.1" id="Layer_1" xmlns="http://www.w3.org/2000/svg" xmlns:xlink="http://www.w3.org/1999/xlink" x="0px" y="0px"
	 width="64px" height="64.001px" viewBox="0 0 64 64.001" style="enable-background:new 0 0 64 64.001;" xml:space="preserve">
<g id="Water_Drop">
	<g>
		<path style="fill:#54BBFF;" d="M10,0C9.959,0,0,11.96,0,22.001c0,4.971,4.477,10,10,10c5.522,0,10-5.029,10-10
			C20,12.052,10.081,0,10,0z"/>
	</g>
</g>
<g id="Water_Drop_4_">
	<g>
		<path style="fill:#54BBFF;" d="M54,0c-0.041,0-10,11.96-10,22.001c0,4.971,4.477,10,10,10c5.522,0,10-5.029,10-10
			C64,12.052,54.082,0,54,0z"/>
	</g>
</g>
<g id="Water_Drop_2_">
	<g>
		<path style="fill:#48A0DC;" d="M32,20.001c-0.058,0-14,16.443-14,30.25c0,6.834,6.268,13.75,14,13.75c7.731,0,14-6.916,14-13.75
			C46,36.57,32.114,20.001,32,20.001z"/>
	</g>
</g>
<g>
</g>
<g>
</g>
<g>
</g>
<g>
</g>
<g>
</g>
<g>
</g>
<g>
</g>
<g>
</g>
<g>
</g>
<g>
</g>
<g>
</g>
<g>
</g>
<g>
</g>
<g>
</g>
<g>
</g>
</svg>
