<?xml version="1.0" encoding="iso-8859-1"?>
<!-- Generator: Adobe Illustrator 16.0.0, SVG Export Plug-In . SVG Version: 6.00 Build 0)  -->
<!DOCTYPE svg PUBLIC "-//W3C//DTD SVG 1.1//EN" "http://www.w3.org/Graphics/SVG/1.1/DTD/svg11.dtd">
<svg version="1.1" id="Layer_1" xmlns="http://www.w3.org/2000/svg" xmlns:xlink="http://www.w3.org/1999/xlink" x="0px" y="0px"
	 width="64px" height="64.001px" viewBox="0 0 64 64.001" style="enable-background:new 0 0 64 64.001;" xml:space="preserve">
<g id="Rainbow">
	<g>
		<path style="fill-rule:evenodd;clip-rule:evenodd;fill:#387AA7;" d="M32,10.001c-12.15,0-22,9.85-22,22h6.023
			c0-8.824,7.152-15.977,15.977-15.977c8.823,0,15.977,7.152,15.977,15.977H54C54,19.851,44.15,10.001,32,10.001z"/>
	</g>
</g>
<g id="Rainbow_9_">
	<g>
		<path style="fill-rule:evenodd;clip-rule:evenodd;fill:#88C057;" d="M32,6.001c-14.359,0-26,11.641-26,26h6.012
			c0-11.039,8.949-19.988,19.988-19.988s19.988,8.949,19.988,19.988H58C58,17.642,46.359,6.001,32,6.001z"/>
	</g>
</g>
<g id="Rainbow_2_">
	<g>
		<path style="fill-rule:evenodd;clip-rule:evenodd;fill:#FFCC66;" d="M32,2.001c-16.568,0-30,13.431-30,30h6
			c0-13.255,10.745-24,24-24s24,10.745,24,24h6C62,15.432,48.568,2.001,32,2.001z"/>
	</g>
</g>
<g id="Rainbow_3_">
	<g>
		<path style="fill-rule:evenodd;clip-rule:evenodd;fill:#ED7161;" d="M32,0C14.326,0,0,14.327,0,32.001h4c0-15.465,12.536-28,28-28
			s28,12.535,28,28h4C64,14.327,49.673,0,32,0z"/>
	</g>
</g>
<g>
</g>
<g>
</g>
<g>
</g>
<g>
</g>
<g>
</g>
<g>
</g>
<g>
</g>
<g>
</g>
<g>
</g>
<g>
</g>
<g>
</g>
<g>
</g>
<g>
</g>
<g>
</g>
<g>
</g>
</svg>
