<?xml version="1.0" encoding="iso-8859-1"?>
<!-- Generator: Adobe Illustrator 16.0.0, SVG Export Plug-In . SVG Version: 6.00 Build 0)  -->
<!DOCTYPE svg PUBLIC "-//W3C//DTD SVG 1.1//EN" "http://www.w3.org/Graphics/SVG/1.1/DTD/svg11.dtd">
<svg version="1.1" id="Layer_1" xmlns="http://www.w3.org/2000/svg" xmlns:xlink="http://www.w3.org/1999/xlink" x="0px" y="0px"
	 width="55.522px" height="63.998px" viewBox="0 0 55.522 63.998" style="enable-background:new 0 0 55.522 63.998;"
	 xml:space="preserve">
<g id="Slip_Marks">
	<g>
		<path style="fill-rule:evenodd;clip-rule:evenodd;fill:#CCCCCC;" d="M10.772,46.001c-4.545-7.777,2.521-14.203,2.521-14.203
			l-7.8-2.2C-4.892,40.278,2.637,50,2.637,50c8.341,11.563,2.034,13.998,2.034,13.998h20.34
			C25.011,55.146,16.163,55.226,10.772,46.001z M35.182,63.998h20.341c0-8.853-7.864-9.4-14.239-17.997
			c-1.875-2.529-0.39-7.203-0.39-7.203l-7.6-2.6C28.692,43.191,33.147,50,33.147,50C41.488,61.563,35.182,63.998,35.182,63.998z"/>
	</g>
</g>
<g id="Tiers">
	<g>
		<path style="fill-rule:evenodd;clip-rule:evenodd;fill:#4D4D4D;" d="M13.601,23.168l-3.951-1.027
			c-1.091-0.284-2.212,0.345-2.504,1.403l-1.589,5.749c-0.292,1.059,0.355,2.147,1.446,2.431l3.951,1.026
			c1.091,0.284,2.213-0.345,2.505-1.402l1.588-5.75C15.339,24.54,14.692,23.451,13.601,23.168z M41.258,30.357l-3.951-1.027
			c-1.091-0.284-2.213,0.345-2.505,1.403l-1.588,5.749c-0.292,1.059,0.355,2.146,1.446,2.431l3.95,1.026
			c1.092,0.284,2.213-0.345,2.506-1.403l1.588-5.749C42.996,31.729,42.349,30.641,41.258,30.357z"/>
	</g>
</g>
<g id="Car">
	<g>
		<path style="fill:#3E87B9;" d="M42.724,6.11L19.953,0.17c-2.183-0.567-3.581,0.267-5.01,2.806l-4.093,7.152
			c-0.585,2.117,0.71,4.293,2.893,4.86l26.773,6.878c2.132,0.563,4.324-0.686,4.895-2.79l0.139-8.134
			C45.539,8.364,44.856,6.674,42.724,6.11z"/>
	</g>
</g>
<g id="Window">
	<g>
		<path style="fill:#FFFFFF;" d="M38.649,9.138L22.845,5.03c-2.182-0.567-3.58,0.266-5.01,2.806l-4.092,7.152
			c-0.585,2.117,0.71,4.293,2.892,4.86l19.755,5.135c2.183,0.567,4.425-0.689,5.01-2.806l0.142-8.18
			C41.529,11.405,40.831,9.705,38.649,9.138z"/>
	</g>
</g>
<g id="Car_1_">
	<g>
		<path style="fill-rule:evenodd;clip-rule:evenodd;fill:#48A0DC;" d="M46.409,19.372l-35.559-9.244
			c-2.183-0.567-4.426,0.689-5.01,2.807l-1.588,5.749l0,0l-1.588,5.749l3.95,1.027h0.001l8.186,2.128l31.323,8.144l1.388-5.025
			l1.789-6.475C49.886,22.115,48.591,19.938,46.409,19.372z"/>
	</g>
</g>
<g id="Bumper">
	<g>
		<polygon style="fill:#6BBCF3;" points="5.841,12.935 2.665,24.433 46.125,35.731 49.302,24.231 		"/>
	</g>
</g>
<g id="Tail_Lights">
	<g>
		<path style="fill-rule:evenodd;clip-rule:evenodd;fill:#FFFFFF;" d="M15.188,17.418l-3.95-1.026
			c-1.092-0.284-2.213,0.344-2.505,1.402c-0.293,1.059,0.354,2.146,1.445,2.431l3.951,1.026c1.092,0.284,2.213-0.344,2.505-1.402
			S16.28,17.702,15.188,17.418z M42.846,24.607l-3.951-1.026c-1.091-0.284-2.212,0.344-2.505,1.402
			c-0.292,1.059,0.355,2.146,1.446,2.43l3.951,1.027c1.091,0.284,2.212-0.344,2.505-1.402
			C44.584,25.979,43.937,24.892,42.846,24.607z"/>
	</g>
</g>
<g>
</g>
<g>
</g>
<g>
</g>
<g>
</g>
<g>
</g>
<g>
</g>
<g>
</g>
<g>
</g>
<g>
</g>
<g>
</g>
<g>
</g>
<g>
</g>
<g>
</g>
<g>
</g>
<g>
</g>
</svg>
