<?xml version="1.0" encoding="iso-8859-1"?>
<!-- Generator: Adobe Illustrator 16.0.0, SVG Export Plug-In . SVG Version: 6.00 Build 0)  -->
<!DOCTYPE svg PUBLIC "-//W3C//DTD SVG 1.1//EN" "http://www.w3.org/Graphics/SVG/1.1/DTD/svg11.dtd">
<svg version="1.1" id="Layer_1" xmlns="http://www.w3.org/2000/svg" xmlns:xlink="http://www.w3.org/1999/xlink" x="0px" y="0px"
	 width="64px" height="59.988px" viewBox="0 0 64 59.988" style="enable-background:new 0 0 64 59.988;" xml:space="preserve">
<g id="Smog">
	<g>
		<path style="fill-rule:evenodd;clip-rule:evenodd;fill:#999999;" d="M2,3.999h60c1.104,0,2-0.895,2-1.999s-0.896-2-2-2H2
			C0.896,0,0,0.896,0,2S0.896,3.999,2,3.999z M62,15.997H2c-1.104,0-2,0.895-2,1.999s0.896,2,2,2h60c1.104,0,2-0.896,2-2
			S63.104,15.997,62,15.997z M62,31.993H2c-1.104,0-2,0.896-2,2s0.896,2,2,2h60c1.104,0,2-0.896,2-2S63.104,31.993,62,31.993z
			 M62,47.991H2c-1.104,0-2,0.895-2,1.999s0.896,1.999,2,1.999h60c1.104,0,2-0.895,2-1.999S63.104,47.991,62,47.991z"/>
	</g>
</g>
<g id="Smog_1_">
	<g>
		<path style="fill-rule:evenodd;clip-rule:evenodd;fill:#CCCCCC;" d="M2,11.997h60c1.104,0,2-0.895,2-1.999s-0.896-2-2-2H2
			c-1.104,0-2,0.896-2,2S0.896,11.997,2,11.997z M62,23.995H2c-1.104,0-2,0.896-2,2s0.896,1.999,2,1.999h60c1.104,0,2-0.895,2-1.999
			S63.104,23.995,62,23.995z M62,39.992H2c-1.104,0-2,0.896-2,1.999c0,1.104,0.896,2,2,2h60c1.104,0,2-0.896,2-2
			C64,40.888,63.104,39.992,62,39.992z M62,55.989H2c-1.104,0-2,0.895-2,2c0,1.104,0.896,1.999,2,1.999h60c1.104,0,2-0.896,2-1.999
			C64,56.884,63.104,55.989,62,55.989z"/>
	</g>
</g>
<g>
</g>
<g>
</g>
<g>
</g>
<g>
</g>
<g>
</g>
<g>
</g>
<g>
</g>
<g>
</g>
<g>
</g>
<g>
</g>
<g>
</g>
<g>
</g>
<g>
</g>
<g>
</g>
<g>
</g>
</svg>
