<?xml version="1.0" encoding="iso-8859-1"?>
<!-- Generator: Adobe Illustrator 16.0.0, SVG Export Plug-In . SVG Version: 6.00 Build 0)  -->
<!DOCTYPE svg PUBLIC "-//W3C//DTD SVG 1.1//EN" "http://www.w3.org/Graphics/SVG/1.1/DTD/svg11.dtd">
<svg version="1.1" id="Layer_1" xmlns="http://www.w3.org/2000/svg" xmlns:xlink="http://www.w3.org/1999/xlink" x="0px" y="0px"
	 width="56px" height="64px" viewBox="0 0 56 64" style="enable-background:new 0 0 56 64;" xml:space="preserve">
<g id="Rounded_Rectangle_1">
	<g>
		<path style="fill-rule:evenodd;clip-rule:evenodd;fill:#54BBFF;" d="M44.075,22.515c0.004,0.016,0.011,0.032,0.015,0.048
			c0.029,0.099,0.063,0.194,0.105,0.285c0.025,0.058,0.044,0.117,0.076,0.172c0.021,0.035,0.047,0.063,0.068,0.096
			c0.001,0,0.001,0.001,0.002,0.002c0,0.001,0.001,0.001,0.001,0.002c0.001,0,0.002,0.001,0.002,0.002
			c0,0.001,0.001,0.001,0.002,0.002c0.088,0.129,0.194,0.243,0.31,0.348c0.06,0.057,0.121,0.106,0.186,0.154
			c0.045,0.032,0.093,0.059,0.14,0.087c0.396,0.242,0.859,0.358,1.324,0.287H54c1.104,0,2-0.896,2-2s-0.896-2-2-2h-3.244
			l2.271-2.274c0.958-0.557,1.286-1.79,0.733-2.754c-0.554-0.964-1.778-1.294-2.735-0.737L48,17.264V14c0-1.104-0.896-2-2-2
			s-2,0.896-2,2v8C44,22.179,44.031,22.349,44.075,22.515L44.075,22.515z M29.501,50.65c-0.623-0.619-1.541-0.758-2.303-0.428
			c-0.293,0.098-0.569,0.254-0.803,0.486l-5.847,5.805c-0.808,0.802-0.808,2.101,0,2.902c0.808,0.801,2.116,0.801,2.924,0
			l2.494-2.477V62c0,1.104,0.896,2,2.002,2s2.002-0.896,2.002-2v-5.043l2.473,2.454c0.812,0.807,2.129,0.807,2.941,0
			s0.813-2.114,0-2.92L29.501,50.65z M11.729,40.98c-0.02-0.035-0.047-0.063-0.068-0.096c0,0,0-0.001-0.001-0.001
			c-0.001-0.002-0.002-0.003-0.003-0.005l-0.001-0.001c0-0.001-0.001-0.001-0.002-0.002c-0.088-0.129-0.194-0.243-0.311-0.349
			c-0.06-0.056-0.121-0.106-0.186-0.154c-0.044-0.031-0.091-0.058-0.138-0.085c-0.398-0.245-0.863-0.36-1.33-0.288H2
			c-1.104,0-2,0.896-2,2s0.896,2,2,2h3.242l-2.269,2.273c-0.958,0.557-1.286,1.79-0.733,2.754c0.553,0.965,1.777,1.295,2.735,0.738
			L8,46.735V50c0,1.104,0.896,2,2,2s2-0.896,2-2v-8c0-0.305-0.074-0.591-0.196-0.85C11.779,41.094,11.76,41.035,11.729,40.98z
			 M10,12c-1.104,0-2,0.896-2,2v3.265l-3.024-3.03c-0.958-0.557-2.183-0.227-2.735,0.737s-0.225,2.197,0.733,2.754L5.244,20H2
			c-1.104,0-2,0.896-2,2s0.896,2,2,2h7.687c0.749,0.116,1.522-0.208,1.965-0.874c0.003-0.003,0.006-0.007,0.008-0.01
			c0.001,0,0.001-0.001,0.001-0.001c0.021-0.033,0.049-0.061,0.068-0.096c0.032-0.055,0.051-0.114,0.076-0.172
			c0.043-0.091,0.076-0.187,0.105-0.285c0.004-0.016,0.011-0.032,0.015-0.048v-0.001C11.969,22.349,12,22.179,12,22v-8
			C12,12.896,11.104,12,10,12z M54,40h-7.683c-0.739-0.115-1.502,0.199-1.946,0.846c-0.01,0.014-0.021,0.025-0.031,0.039
			c-0.022,0.033-0.048,0.061-0.068,0.095c-0.031,0.055-0.051,0.113-0.075,0.169C44.074,41.409,44,41.695,44,42v8
			c0,1.104,0.896,2,2,2s2-0.896,2-2v-3.265l3.024,3.03c0.957,0.557,2.182,0.227,2.735-0.738c0.553-0.964,0.225-2.197-0.733-2.754
			L50.757,44H54c1.104,0,2-0.896,2-2S55.104,40,54,40z M35.389,24.588c-0.808-0.807-2.116-0.807-2.924,0l-4.487,4.482l-4.483-4.478
			c-0.813-0.812-2.13-0.812-2.941,0c-0.813,0.812-0.813,2.127,0,2.938l4.508,4.503l-4.512,4.479c-0.808,0.802-0.808,2.101,0,2.902
			c0.808,0.801,2.116,0.801,2.924,0l4.486-4.455l4.484,4.451c0.812,0.807,2.129,0.807,2.941,0s0.813-2.114,0-2.92l-4.509-4.476
			l4.513-4.508C36.196,26.702,36.196,25.395,35.389,24.588z M32.465,4.588l-2.494,2.491V2c0-1.105-0.896-2-2.002-2
			s-2.002,0.895-2.002,2v5.062l-2.473-2.47c-0.813-0.812-2.13-0.812-2.941,0c-0.813,0.812-0.813,2.127,0,2.938l5.884,5.878
			c0.624,0.623,1.543,0.762,2.305,0.429c0.292-0.099,0.567-0.256,0.8-0.487l5.848-5.842c0.808-0.806,0.808-2.113,0-2.92
			S33.272,3.781,32.465,4.588z"/>
	</g>
</g>
<g>
</g>
<g>
</g>
<g>
</g>
<g>
</g>
<g>
</g>
<g>
</g>
<g>
</g>
<g>
</g>
<g>
</g>
<g>
</g>
<g>
</g>
<g>
</g>
<g>
</g>
<g>
</g>
<g>
</g>
</svg>
