<?xml version="1.0" encoding="iso-8859-1"?>
<!-- Generator: Adobe Illustrator 16.0.0, SVG Export Plug-In . SVG Version: 6.00 Build 0)  -->
<!DOCTYPE svg PUBLIC "-//W3C//DTD SVG 1.1//EN" "http://www.w3.org/Graphics/SVG/1.1/DTD/svg11.dtd">
<svg version="1.1" id="Layer_1" xmlns="http://www.w3.org/2000/svg" xmlns:xlink="http://www.w3.org/1999/xlink" x="0px" y="0px"
	 width="63.994px" height="64.003px" viewBox="0 0 63.994 64.003" style="enable-background:new 0 0 63.994 64.003;"
	 xml:space="preserve">
<g id="Snowflake_13_">
	<g>
		<path style="fill-rule:evenodd;clip-rule:evenodd;fill:#54BBFF;" d="M57.87,35.998h2.094c2.208,0,3.998-1.789,3.998-3.996
			s-1.79-3.996-3.998-3.996h-2.158l4.977-4.971c1.615-1.613,1.615-4.229,0-5.841c-1.614-1.613-4.233-1.613-5.848,0L46.11,28.006
			h-2.833c-0.136-0.385-0.297-0.757-0.47-1.123l11.965-11.96c1.575-1.575,1.575-4.128,0-5.703c-1.576-1.575-4.13-1.575-5.706,0
			L37.101,21.18c-0.365-0.173-0.737-0.333-1.122-0.47v-2.836L46.792,7.064c1.616-1.616,1.616-4.236,0-5.853
			c-1.617-1.616-4.238-1.616-5.855,0l-4.958,4.956v-2.14c0-2.206-1.79-3.995-3.998-3.995c-2.207,0-3.997,1.789-3.997,3.995v2.141
			l-4.959-4.957c-1.616-1.616-4.238-1.616-5.854,0s-1.616,4.236,0,5.853l10.813,10.809v2.836c-0.397,0.141-0.783,0.306-1.16,0.486
			L15.021,9.396c-1.562-1.561-4.093-1.561-5.653,0c-1.562,1.561-1.562,4.09,0,5.65l11.804,11.799
			c-0.18,0.376-0.345,0.762-0.486,1.16h-2.81L7.089,17.254c-1.615-1.61-4.233-1.61-5.849,0c-1.614,1.61-1.614,4.22,0,5.83
			l4.938,4.922H3.997C1.79,28.006,0,29.795,0,32.002s1.79,3.996,3.997,3.996h2.18L1.24,40.919c-1.614,1.61-1.614,4.221,0,5.83
			c1.615,1.609,4.233,1.609,5.849,0l10.785-10.751h2.811c0.136,0.384,0.297,0.756,0.47,1.121L9.127,49.143
			c-1.575,1.575-1.575,4.129,0,5.704c1.576,1.574,4.13,1.574,5.706,0l12.028-12.023c0.365,0.173,0.738,0.334,1.123,0.47v2.875
			l-10.754,10.77c-1.613,1.616-1.613,4.236,0,5.853c1.614,1.616,4.23,1.616,5.844,0l4.91-4.918v2.101
			c0,2.208,1.79,3.997,3.997,3.997c2.208,0,3.998-1.789,3.998-3.997v-2.163l4.972,4.98c1.614,1.616,4.23,1.616,5.844,0
			s1.613-4.236,0-5.853L35.979,46.106v-2.813c0.397-0.141,0.783-0.306,1.16-0.486l11.803,11.799c1.561,1.562,4.092,1.562,5.653,0
			c1.562-1.561,1.562-4.091,0-5.651L42.791,37.156c0.18-0.376,0.345-0.761,0.485-1.158h2.897l10.762,10.749
			c1.614,1.612,4.233,1.612,5.848,0c1.615-1.613,1.615-4.229,0-5.842L57.87,35.998z M31.98,35.998c-2.207,0-3.997-1.789-3.997-3.996
			s1.79-3.996,3.997-3.996c2.208,0,3.998,1.789,3.998,3.996S34.188,35.998,31.98,35.998z"/>
	</g>
</g>
<g>
</g>
<g>
</g>
<g>
</g>
<g>
</g>
<g>
</g>
<g>
</g>
<g>
</g>
<g>
</g>
<g>
</g>
<g>
</g>
<g>
</g>
<g>
</g>
<g>
</g>
<g>
</g>
<g>
</g>
</svg>
