<?xml version="1.0" encoding="iso-8859-1"?>
<!-- Generator: Adobe Illustrator 16.0.0, SVG Export Plug-In . SVG Version: 6.00 Build 0)  -->
<!DOCTYPE svg PUBLIC "-//W3C//DTD SVG 1.1//EN" "http://www.w3.org/Graphics/SVG/1.1/DTD/svg11.dtd">
<svg version="1.1" id="Layer_1" xmlns="http://www.w3.org/2000/svg" xmlns:xlink="http://www.w3.org/1999/xlink" x="0px" y="0px"
	 width="63.993px" height="63.938px" viewBox="0 0 63.993 63.938" style="enable-background:new 0 0 63.993 63.938;"
	 xml:space="preserve">
<g id="Snowflake_15_">
	<g>
		<path style="fill-rule:evenodd;clip-rule:evenodd;fill:#54BBFF;" d="M63.993,31.969c0-2.207-1.791-3.996-4-3.996h-6.158
			l4.979-4.971c1.616-1.613,1.616-4.228,0-5.841c-1.615-1.613-4.235-1.613-5.852,0l-10.83,10.812h-6.137v-6.137l10.818-10.809
			c1.618-1.616,1.618-4.236,0-5.853c-1.617-1.616-4.24-1.616-5.857,0l-4.961,4.957V3.996c0-2.207-1.791-3.996-4-3.996
			c-2.209,0-4,1.789-4,3.996v6.136l-4.961-4.957c-1.618-1.616-4.24-1.616-5.858,0s-1.618,4.236,0,5.853l10.819,10.81v6.136h-6.114
			L11.092,17.221c-1.616-1.609-4.235-1.609-5.851,0c-1.616,1.61-1.616,4.22,0,5.83l4.94,4.922H4c-2.209,0-4,1.789-4,3.996
			s1.791,3.996,4,3.996h6.18l-4.939,4.921c-1.616,1.61-1.616,4.221,0,5.83c1.616,1.61,4.235,1.61,5.851,0l10.791-10.751h6.115v6.174
			L17.238,52.909c-1.614,1.616-1.614,4.236,0,5.853s4.232,1.616,5.846,0l4.913-4.918v6.098c0,2.207,1.791,3.996,4,3.996
			c2.208,0,4-1.789,4-3.996v-6.16l4.975,4.98c1.614,1.616,4.231,1.616,5.846,0c1.614-1.616,1.614-4.236,0-5.853L35.996,42.077
			v-6.112h6.2l10.767,10.749c1.616,1.612,4.236,1.612,5.852,0c1.616-1.613,1.616-4.229,0-5.841l-4.917-4.908h6.095
			C62.202,35.965,63.993,34.176,63.993,31.969z"/>
	</g>
</g>
<g>
</g>
<g>
</g>
<g>
</g>
<g>
</g>
<g>
</g>
<g>
</g>
<g>
</g>
<g>
</g>
<g>
</g>
<g>
</g>
<g>
</g>
<g>
</g>
<g>
</g>
<g>
</g>
<g>
</g>
</svg>
