<?xml version="1.0" encoding="iso-8859-1"?>
<!-- Generator: Adobe Illustrator 16.0.0, SVG Export Plug-In . SVG Version: 6.00 Build 0)  -->
<!DOCTYPE svg PUBLIC "-//W3C//DTD SVG 1.1//EN" "http://www.w3.org/Graphics/SVG/1.1/DTD/svg11.dtd">
<svg version="1.1" id="Layer_1" xmlns="http://www.w3.org/2000/svg" xmlns:xlink="http://www.w3.org/1999/xlink" x="0px" y="0px"
	 width="55.993px" height="64px" viewBox="0 0 55.993 64" style="enable-background:new 0 0 55.993 64;" xml:space="preserve">
<g id="Snowflake_10_">
	<g>
		<path style="fill-rule:evenodd;clip-rule:evenodd;fill:#54BBFF;" d="M54.962,45.295l-4.367-2.521l3.36-0.911
			c1.104-0.3,1.762-1.439,1.47-2.546c-0.293-1.105-1.426-1.759-2.529-1.46l-7.358,1.997l-6.34-3.66
			c0.488-1.307,0.769-2.716,0.769-4.193c0-1.455-0.272-2.844-0.746-4.134l6.363-3.675l7.364,1.997
			c1.098,0.298,2.223-0.352,2.514-1.451c0.29-1.099-0.363-2.231-1.46-2.528l-3.391-0.92l4.383-2.53
			c0.957-0.552,1.284-1.775,0.732-2.732c-0.553-0.956-1.775-1.284-2.732-0.731l-4.367,2.521l0.891-3.366
			c0.293-1.106-0.365-2.245-1.469-2.545c-1.104-0.3-2.236,0.354-2.529,1.46l-1.95,7.371l-6.326,3.652
			c-1.799-2.189-4.361-3.719-7.276-4.209v-7.26l5.411-5.412c0.807-0.806,0.807-2.113,0-2.92c-0.806-0.807-2.113-0.807-2.92,0
			l-2.491,2.491V2c0-1.105-0.896-2-2-2s-2,0.895-2,2v5.061l-2.47-2.469c-0.812-0.812-2.127-0.812-2.938,0s-0.812,2.127,0,2.938
			l5.408,5.409v7.24c-2.904,0.489-5.46,2.008-7.257,4.185l-6.251-3.609l-1.98-7.393c-0.296-1.102-1.428-1.755-2.529-1.46
			s-1.756,1.428-1.461,2.529l0.912,3.403l-4.398-2.54c-0.957-0.553-2.18-0.225-2.732,0.731c-0.553,0.957-0.225,2.181,0.732,2.732
			l4.383,2.53l-3.373,0.904c-1.108,0.297-1.767,1.437-1.47,2.545c0.298,1.108,1.437,1.767,2.546,1.469l7.387-1.979l6.25,3.608
			c-0.481,1.299-0.758,2.697-0.758,4.164c0,1.488,0.284,2.908,0.779,4.223l-6.255,3.611l-7.394-1.981
			c-1.102-0.295-2.234,0.358-2.529,1.46s0.358,2.234,1.461,2.529l3.403,0.912l-4.399,2.54C0.075,45.847-0.253,47.07,0.3,48.026
			c0.552,0.957,1.775,1.285,2.732,0.732l4.382-2.53l-0.903,3.372c-0.297,1.109,0.361,2.248,1.47,2.545
			c1.108,0.298,2.248-0.36,2.545-1.469l1.979-7.387l6.247-3.607c1.795,2.151,4.331,3.652,7.214,4.137v7.313l-5.412,5.379
			c-0.806,0.802-0.806,2.101,0,2.902c0.807,0.801,2.114,0.801,2.921,0l2.491-2.476V62c0,1.104,0.896,2,2,2s2-0.896,2-2v-5.042
			l2.469,2.454c0.812,0.807,2.128,0.807,2.939,0c0.811-0.807,0.811-2.114,0-2.92l-5.408-5.374V43.82
			c2.894-0.487,5.439-1.997,7.235-4.161l6.352,3.667l1.952,7.376c0.29,1.099,1.416,1.749,2.513,1.451
			c1.098-0.298,1.751-1.431,1.46-2.529l-0.898-3.396l4.383,2.53c0.957,0.553,2.18,0.225,2.732-0.732
			C56.246,47.07,55.919,45.847,54.962,45.295z M33.966,34v2c0,1.104-0.896,2-2,2h-2c0,1.104-0.896,2-2,2s-2-0.896-2-2h-2
			c-1.104,0-2-0.896-2-2v-2c-1.104,0-2-0.896-2-2s0.896-2,2-2v-2c0-1.105,0.896-2,2-2h2c0-1.104,0.896-2,2-2s2,0.896,2,2h2
			c1.104,0,2,0.895,2,2v2c1.104,0,2,0.896,2,2S35.07,34,33.966,34z"/>
	</g>
</g>
<g>
</g>
<g>
</g>
<g>
</g>
<g>
</g>
<g>
</g>
<g>
</g>
<g>
</g>
<g>
</g>
<g>
</g>
<g>
</g>
<g>
</g>
<g>
</g>
<g>
</g>
<g>
</g>
<g>
</g>
</svg>
