<?xml version="1.0" encoding="iso-8859-1"?>
<!-- Generator: Adobe Illustrator 16.0.0, SVG Export Plug-In . SVG Version: 6.00 Build 0)  -->
<!DOCTYPE svg PUBLIC "-//W3C//DTD SVG 1.1//EN" "http://www.w3.org/Graphics/SVG/1.1/DTD/svg11.dtd">
<svg version="1.1" id="Layer_1" xmlns="http://www.w3.org/2000/svg" xmlns:xlink="http://www.w3.org/1999/xlink" x="0px" y="0px"
	 width="55.121px" height="56.033px" viewBox="0 0 55.121 56.033" style="enable-background:new 0 0 55.121 56.033;"
	 xml:space="preserve">
<g id="Snowflake_9_">
	<g>
		<path style="fill-rule:evenodd;clip-rule:evenodd;fill:#54BBFF;" d="M2.619,22.224l8.037-2.15c0.853-0.228,1.434-0.954,1.525-1.78
			c0.061-0.302,0.062-0.619-0.023-0.936l-2.14-7.979c-0.296-1.102-1.43-1.755-2.532-1.46s-1.758,1.428-1.462,2.529l1.643,6.122
			l-6.125,1.64c-1.109,0.297-1.768,1.437-1.471,2.545S1.509,22.522,2.619,22.224z M11.44,36.458
			c-0.23-0.204-0.506-0.364-0.823-0.449L2.63,33.871c-1.104-0.295-2.237,0.358-2.532,1.46c-0.296,1.102,0.358,2.234,1.462,2.529
			L7.688,39.5l-1.641,6.117c-0.297,1.109,0.361,2.248,1.471,2.545c1.109,0.298,2.251-0.36,2.548-1.469l2.153-8.028
			C12.448,37.815,12.11,36.95,11.44,36.458z M25.994,9.425c0.14,0.14,0.298,0.246,0.463,0.338c0.036,0.021,0.072,0.04,0.109,0.058
			c0.17,0.081,0.345,0.144,0.526,0.177c0.002,0,0.004,0,0.006,0c0.187,0.033,0.376,0.034,0.564,0.016
			c0.023-0.002,0.047-0.004,0.071-0.007c0.089-0.012,0.174-0.048,0.262-0.071c0.097-0.017,0.19-0.046,0.284-0.077
			c0.006-0.002,0.012-0.002,0.018-0.005c0,0,0.001,0,0.001,0c0.001,0,0.001,0,0.001,0c0.14-0.047,0.273-0.107,0.401-0.185
			c0.008-0.005,0.017-0.008,0.024-0.013c0.132-0.082,0.259-0.176,0.373-0.29l5.848-5.842c0.807-0.806,0.807-2.113,0-2.92
			c-0.808-0.807-2.116-0.807-2.924,0l-4.487,4.482l-4.483-4.478c-0.813-0.812-2.129-0.812-2.941,0s-0.813,2.127,0,2.938
			L25.994,9.425z M43.758,19.6c0.231,0.204,0.505,0.365,0.821,0.451l7.957,2.155c1.098,0.298,2.225-0.352,2.516-1.451
			c0.291-1.099-0.363-2.231-1.462-2.528l-6.105-1.655l1.617-6.104c0.293-1.106-0.365-2.245-1.471-2.545s-2.239,0.354-2.532,1.46
			l-2.122,8.011C42.752,18.242,43.091,19.106,43.758,19.6z M52.483,33.874l-8.006,2.17c-0.849,0.23-1.429,0.956-1.522,1.781
			c-0.061,0.301-0.063,0.618,0.021,0.934l2.109,7.961c0.291,1.099,1.417,1.749,2.516,1.451s1.753-1.431,1.462-2.529l-1.618-6.109
			l6.101-1.653c1.105-0.3,1.764-1.439,1.471-2.546C54.723,34.228,53.589,33.575,52.483,33.874z M29.059,46.667
			c-0.14-0.139-0.298-0.245-0.463-0.336c-0.037-0.021-0.072-0.04-0.11-0.058c-0.169-0.081-0.345-0.144-0.526-0.176
			c-0.001,0-0.002,0-0.003,0c-0.188-0.034-0.377-0.034-0.566-0.016c-0.023,0.002-0.047,0.003-0.07,0.006
			c-0.088,0.011-0.172,0.048-0.259,0.07c-0.248,0.042-0.488,0.133-0.711,0.267c-0.008,0.004-0.016,0.007-0.022,0.012
			c-0.132,0.082-0.259,0.175-0.373,0.289l-5.848,5.805c-0.808,0.802-0.808,2.101,0,2.902c0.807,0.801,2.116,0.801,2.924,0
			l4.486-4.454l4.484,4.45c0.813,0.807,2.129,0.807,2.941,0s0.813-2.114,0-2.92L29.059,46.667z M27.526,16.017
			c-6.635,0-12.014,5.372-12.014,12c0,6.627,5.379,12,12.014,12s12.014-5.373,12.014-12C39.54,21.389,34.161,16.017,27.526,16.017z
			 M33.533,30.017v2c0,1.104-0.896,2-2.003,2h-2.002c0,1.104-0.896,2-2.002,2c-1.106,0-2.002-0.896-2.002-2h-2.003
			c-1.105,0-2.002-0.896-2.002-2v-2c-1.105,0-2.002-0.896-2.002-2s0.896-2,2.002-2v-2c0-1.105,0.896-2,2.002-2h2.003
			c0-1.104,0.896-2,2.002-2c1.105,0,2.002,0.896,2.002,2h2.002c1.106,0,2.003,0.895,2.003,2v2c1.105,0,2.002,0.896,2.002,2
			S34.639,30.017,33.533,30.017z"/>
	</g>
</g>
<g>
</g>
<g>
</g>
<g>
</g>
<g>
</g>
<g>
</g>
<g>
</g>
<g>
</g>
<g>
</g>
<g>
</g>
<g>
</g>
<g>
</g>
<g>
</g>
<g>
</g>
<g>
</g>
<g>
</g>
</svg>
