<?xml version="1.0" encoding="iso-8859-1"?>
<!-- Generator: Adobe Illustrator 16.0.0, SVG Export Plug-In . SVG Version: 6.00 Build 0)  -->
<!DOCTYPE svg PUBLIC "-//W3C//DTD SVG 1.1//EN" "http://www.w3.org/Graphics/SVG/1.1/DTD/svg11.dtd">
<svg version="1.1" id="Layer_1" xmlns="http://www.w3.org/2000/svg" xmlns:xlink="http://www.w3.org/1999/xlink" x="0px" y="0px"
	 width="63.981px" height="64.003px" viewBox="0 0 63.981 64.003" style="enable-background:new 0 0 63.981 64.003;"
	 xml:space="preserve">
<g id="Snowflake_14_">
	<g>
		<path style="fill-rule:evenodd;clip-rule:evenodd;fill:#54BBFF;" d="M63.839,38.076c-0.59-2.205-2.843-3.515-5.033-2.927
			l-9.264,2.486l-9.605-5.584l9.676-5.625l9.178,2.464c2.19,0.588,4.443-0.723,5.033-2.927s-0.708-4.467-2.898-5.055l-1.686-0.452
			c0.922-1.241,1.079-2.964,0.261-4.392c-0.827-1.442-2.411-2.166-3.954-1.963l0.47-1.756c0.589-2.204-0.709-4.468-2.898-5.056
			c-2.19-0.588-4.444,0.722-5.034,2.927l-2.493,9.319l-9.621,5.594V13.878l6.767-6.813c1.604-1.616,1.604-4.236,0-5.853
			c-1.605-1.616-4.207-1.616-5.813,0L35.66,2.483c-0.6-1.439-2.012-2.45-3.659-2.45c-1.648,0-3.06,1.011-3.66,2.45l-1.263-1.271
			c-1.605-1.616-4.207-1.616-5.813,0c-1.604,1.616-1.604,4.236,0,5.853l6.767,6.813V25.13l-9.646-5.608l-2.477-9.307
			c-0.588-2.208-2.841-3.518-5.033-2.926c-2.192,0.591-3.494,2.86-2.906,5.067l0.462,1.738c-1.538-0.197-3.114,0.529-3.938,1.965
			c-0.824,1.438-0.66,3.174,0.278,4.417l-1.726,0.466c-2.192,0.591-3.493,2.86-2.906,5.068c0.588,2.207,2.842,3.518,5.034,2.926
			l9.243-2.494l9.646,5.608l-9.631,5.599L5.19,35.156c-2.193-0.592-4.446,0.719-5.034,2.926C-0.431,40.29,0.87,42.56,3.063,43.15
			l1.725,0.466c-0.938,1.243-1.102,2.979-0.278,4.417c0.824,1.437,2.4,2.163,3.938,1.966l-0.462,1.737
			c-0.588,2.207,0.713,4.477,2.906,5.067c2.192,0.592,4.445-0.718,5.033-2.926l2.477-9.307l9.631-5.599v11.195l-6.707,6.771
			c-1.602,1.616-1.602,4.237,0,5.853c1.601,1.616,4.195,1.616,5.797,0l1.231-1.243c0.607,1.424,2.01,2.423,3.647,2.423
			c1.653,0,3.068-1.02,3.665-2.468l1.276,1.288c1.601,1.616,4.196,1.616,5.797,0c1.601-1.615,1.601-4.236,0-5.853l-6.77-6.834
			V38.972l9.659,5.615l2.471,9.235c0.59,2.204,2.843,3.515,5.033,2.927s3.488-2.852,2.898-5.056l-0.454-1.696
			c1.528,0.183,3.089-0.542,3.908-1.968c0.827-1.442,0.657-3.186-0.29-4.43l1.746-0.469C63.131,42.543,64.429,40.279,63.839,38.076z
			"/>
	</g>
</g>
<g>
</g>
<g>
</g>
<g>
</g>
<g>
</g>
<g>
</g>
<g>
</g>
<g>
</g>
<g>
</g>
<g>
</g>
<g>
</g>
<g>
</g>
<g>
</g>
<g>
</g>
<g>
</g>
<g>
</g>
</svg>
