<?xml version="1.0" encoding="iso-8859-1"?>
<!-- Generator: Adobe Illustrator 16.0.0, SVG Export Plug-In . SVG Version: 6.00 Build 0)  -->
<!DOCTYPE svg PUBLIC "-//W3C//DTD SVG 1.1//EN" "http://www.w3.org/Graphics/SVG/1.1/DTD/svg11.dtd">
<svg version="1.1" id="Layer_1" xmlns="http://www.w3.org/2000/svg" xmlns:xlink="http://www.w3.org/1999/xlink" x="0px" y="0px"
	 width="64.054px" height="64px" viewBox="0 0 64.054 64" style="enable-background:new 0 0 64.054 64;" xml:space="preserve">
<g id="Snowflake_8_">
	<g>
		<path style="fill-rule:evenodd;clip-rule:evenodd;fill:#54BBFF;" d="M62.052,30.045l-5.047-0.002l2.455-2.468
			c0.807-0.813,0.806-2.128-0.002-2.94c-0.808-0.812-2.116-0.813-2.923-0.001l-5.376,5.407l-14.378-0.007l10.698-10.699
			c0.092-0.077,0.176-0.161,0.253-0.253l6.901-6.901c0.781-0.781,0.78-2.048-0.001-2.829c-0.782-0.782-2.049-0.783-2.83-0.002
			l-3.579,3.579l-0.002-3.494c-0.001-1.148-0.933-2.08-2.08-2.08c-1.148-0.001-2.079,0.93-2.078,2.077l0.005,7.653l-10.07,10.07
			V12.111c0.01-0.116,0.01-0.23,0-0.346V2c0-1.105-0.896-2-2.002-2c-1.106,0-2.003,0.895-2.003,2v5.061l-2.472-2.469
			c-0.813-0.812-2.129-0.812-2.941,0s-0.813,2.127,0,2.938l5.413,5.408v14.239L19.35,16.523c-0.074-0.087-0.154-0.168-0.242-0.242
			l-6.909-6.916C11.417,8.583,10.15,8.583,9.37,9.364c-0.781,0.782-0.781,2.049,0,2.831l3.581,3.584l-3.493-0.001
			c-1.147,0-2.077,0.931-2.077,2.08c0,1.148,0.931,2.08,2.078,2.08l7.649,0.003l10.077,10.086l-15.067-0.007
			c-0.113-0.009-0.227-0.01-0.341,0l-9.776-0.005c-1.105,0-2.001,0.895-2.001,2c0.001,1.105,0.897,2.001,2.003,2.001l5.066,0.002
			l-2.471,2.469C3.787,37.3,3.787,38.615,4.6,39.428s2.13,0.813,2.941,0.001l5.409-5.407l14.173,0.007L16.494,44.657
			c-0.091,0.076-0.174,0.159-0.25,0.25l-6.868,6.868c-0.781,0.78-0.78,2.048,0.002,2.829c0.782,0.782,2.049,0.783,2.83,0.002
			l3.565-3.565l0.013,3.483c0.004,1.145,0.936,2.076,2.08,2.08s2.069-0.92,2.065-2.065l-0.029-7.628l10.091-10.09v15.125
			c-0.009,0.11-0.009,0.219,0,0.329V62c0,1.104,0.896,2,2.003,2c1.105,0,2.002-0.896,2.002-2v-5.043l2.473,2.454
			c0.813,0.807,2.129,0.807,2.941,0s0.813-2.114,0-2.92l-5.414-5.375V36.848l10.698,10.709c0.073,0.087,0.153,0.167,0.24,0.24
			l6.875,6.882c0.782,0.781,2.048,0.782,2.829,0c0.781-0.781,0.78-2.049-0.001-2.831l-3.566-3.57l3.481-0.01
			c1.145-0.003,2.074-0.934,2.077-2.079s-0.922-2.071-2.065-2.068l-7.625,0.021L36.843,34.034l15.14,0.007
			c0.116,0.01,0.23,0.01,0.346,0l9.726,0.005c1.105,0.001,2.001-0.895,2-1.999C64.054,30.941,63.157,30.046,62.052,30.045z"/>
	</g>
</g>
<g>
</g>
<g>
</g>
<g>
</g>
<g>
</g>
<g>
</g>
<g>
</g>
<g>
</g>
<g>
</g>
<g>
</g>
<g>
</g>
<g>
</g>
<g>
</g>
<g>
</g>
<g>
</g>
<g>
</g>
</svg>
