<?xml version="1.0" encoding="iso-8859-1"?>
<!-- Generator: Adobe Illustrator 16.0.0, SVG Export Plug-In . SVG Version: 6.00 Build 0)  -->
<!DOCTYPE svg PUBLIC "-//W3C//DTD SVG 1.1//EN" "http://www.w3.org/Graphics/SVG/1.1/DTD/svg11.dtd">
<svg version="1.1" id="Layer_1" xmlns="http://www.w3.org/2000/svg" xmlns:xlink="http://www.w3.org/1999/xlink" x="0px" y="0px"
	 width="64px" height="63.938px" viewBox="0 0 64 63.938" style="enable-background:new 0 0 64 63.938;" xml:space="preserve">
<g id="Snowflake_11_">
	<g>
		<path style="fill-rule:evenodd;clip-rule:evenodd;fill:#999999;" d="M44.607,38.92l-6.973-6.973l6.971-6.971
			c1.562-1.562,1.572-4.085,0.021-5.635c-1.549-1.55-4.072-1.54-5.634,0.022l-6.971,6.971l-6.974-6.974
			c-1.561-1.561-4.081-1.569-5.632-0.02c-1.549,1.55-1.541,4.071,0.02,5.632l6.974,6.974l-7.015,7.015
			c-1.562,1.563-1.572,4.085-0.021,5.635c1.549,1.55,4.072,1.54,5.635-0.022l7.014-7.014l6.973,6.973
			c1.561,1.561,4.082,1.569,5.632,0.02S46.168,40.48,44.607,38.92z"/>
	</g>
</g>
<g id="Snowflake_12_">
	<g>
		<path style="fill-rule:evenodd;clip-rule:evenodd;fill:#CCCCCC;" d="M60,28h-3.944l0.011-5.708
			c0.008-2.382-1.778-4.306-3.989-4.298s-4.009,1.945-4.017,4.328L48.05,28H35.999V16.001l5.708,0.011
			c2.383,0.008,4.307-1.777,4.298-3.985c-0.008-2.209-1.945-4.006-4.327-4.013l-5.679-0.011V3.996C35.999,1.789,34.223,0,32.031,0
			c-2.192,0-3.969,1.789-3.969,3.996v3.991l-5.746-0.011c-2.383-0.008-4.307,1.776-4.299,3.985c0.009,2.209,1.946,4.005,4.328,4.013
			l5.717,0.011V28H16.017l0.011-5.708c0.008-2.382-1.778-4.306-3.989-4.298s-4.009,1.945-4.017,4.328L8.011,28H4
			c-2.209,0-4,1.777-4,3.969s1.791,3.969,4,3.969h3.995l-0.011,5.746c-0.008,2.381,1.779,4.306,3.989,4.298
			c2.211-0.009,4.01-1.946,4.018-4.328l0.011-5.716h12.061v12.05l-5.746-0.011c-2.383-0.008-4.307,1.776-4.299,3.985
			c0.009,2.209,1.946,4.006,4.328,4.013l5.717,0.011v3.956c0,2.207,1.776,3.996,3.969,3.996c2.191,0,3.968-1.789,3.968-3.996v-3.94
			l5.708,0.011c2.383,0.008,4.307-1.777,4.298-3.985c-0.008-2.209-1.945-4.006-4.327-4.013l-5.679-0.011V35.938h12.035l-0.011,5.746
			c-0.007,2.381,1.779,4.306,3.989,4.298c2.211-0.009,4.01-1.946,4.018-4.328l0.011-5.716H60c2.209,0,4-1.777,4-3.969
			S62.209,28,60,28z"/>
	</g>
</g>
<g>
</g>
<g>
</g>
<g>
</g>
<g>
</g>
<g>
</g>
<g>
</g>
<g>
</g>
<g>
</g>
<g>
</g>
<g>
</g>
<g>
</g>
<g>
</g>
<g>
</g>
<g>
</g>
<g>
</g>
</svg>
