<?xml version="1.0" encoding="iso-8859-1"?>
<!-- Generator: Adobe Illustrator 16.0.0, SVG Export Plug-In . SVG Version: 6.00 Build 0)  -->
<!DOCTYPE svg PUBLIC "-//W3C//DTD SVG 1.1//EN" "http://www.w3.org/Graphics/SVG/1.1/DTD/svg11.dtd">
<svg version="1.1" id="Layer_1" xmlns="http://www.w3.org/2000/svg" xmlns:xlink="http://www.w3.org/1999/xlink" x="0px" y="0px"
	 width="64px" height="20.04px" viewBox="0 0 64 20.04" style="enable-background:new 0 0 64 20.04;" xml:space="preserve">
<g id="Frame">
	<g>
		<path style="fill-rule:evenodd;clip-rule:evenodd;fill:#4D4D4D;" d="M62,4.025h-2.171c-0.438-1.969-2.028-4-7.81-4
			c-6.969,0-11.29-0.578-16.094,4h-7.794c-4.815-4.578-9.146-4-16.132-4c-5.795,0-7.389,2.031-7.829,4H2c-1.104,0-2,0.896-2,2
			s0.896,2,2,2h1.99c0.093,4.175,1.3,12.412,12.01,12c11.56,0,13.706-7.419,14.02-11.455c0.585-0.337,1.256-0.545,1.98-0.545
			c0.732,0,1.409,0.211,2,0.555V8.025h0.01c0.165,3.867,1.943,12,14.019,12c10.685,0.412,11.889-7.825,11.981-12H62
			c1.104,0,2-0.896,2-2S63.104,4.025,62,4.025z"/>
	</g>
</g>
<g id="Glasses">
	<g>
		<path style="fill-rule:evenodd;clip-rule:evenodd;fill:#88C057;" d="M13.543,4.025c-5.431,0-5.517,2.25-5.517,3.6
			s-0.69,8.7,8.275,8.4c10.948,0,9.655-8.4,9.655-8.4C22.077,3.575,18.975,4.025,13.543,4.025z M55.974,7.625
			c0-1.35-0.086-3.6-5.517-3.6c-5.432,0-8.535-0.45-12.414,3.6c0,0-1.293,8.4,9.655,8.4C56.663,16.325,55.974,8.974,55.974,7.625z"
			/>
	</g>
</g>
<g>
</g>
<g>
</g>
<g>
</g>
<g>
</g>
<g>
</g>
<g>
</g>
<g>
</g>
<g>
</g>
<g>
</g>
<g>
</g>
<g>
</g>
<g>
</g>
<g>
</g>
<g>
</g>
<g>
</g>
</svg>
