<?xml version="1.0" encoding="iso-8859-1"?>
<!-- Generator: Adobe Illustrator 16.0.0, SVG Export Plug-In . SVG Version: 6.00 Build 0)  -->
<!DOCTYPE svg PUBLIC "-//W3C//DTD SVG 1.1//EN" "http://www.w3.org/Graphics/SVG/1.1/DTD/svg11.dtd">
<svg version="1.1" id="Layer_1" xmlns="http://www.w3.org/2000/svg" xmlns:xlink="http://www.w3.org/1999/xlink" x="0px" y="0px"
	 width="68px" height="64.001px" viewBox="0 0 68 64.001" style="enable-background:new 0 0 68 64.001;" xml:space="preserve">
<g id="Sun_1_">
	<g>
		<path style="fill-rule:evenodd;clip-rule:evenodd;fill:#FFCC66;" d="M55.584,44.001H42v-0.059c-4.5-0.496-8-4.299-8-8.918
			c0-4.848,3.853-8.785,8.668-8.961c1.414-1.265,3.276-2.04,5.326-2.042c1.823-2.437,4.726-4.021,8.006-4.021
			c1.122,0,2.197,0.193,3.205,0.533c0.896-1.284,1.219-3.302,0.508-4.534c-6.441,3.72-7.251-0.433-10.66,1.536
			c-0.812,0.469-1.36,1.109-1.73,1.729c-0.92-1.096-1.941-2.104-3.07-2.984c0-0.806,0.104-1.681,0.479-2.332
			c1.268-2.195,3.041-1.268,4.732-4.196C50.37,8.182,49.605,5.215,48,4.288c-3.719,6.44-6.496,3.25-8.465,6.66
			c-0.468,0.811-0.622,1.639-0.633,2.359c-1.342-0.495-2.725-0.902-4.185-1.102C34.329,11.521,34,10.733,34,10.001
			c0-2.535,2-2.618,2-6C36,2.188,33.854,0,32,0c0,7.438-4,6.063-4,10.001c0,0.912,0.269,1.687,0.606,2.308
			c-1.438,0.247-2.813,0.665-4.124,1.205c-0.688-0.401-1.38-0.923-1.751-1.565c-1.267-2.195,0.424-3.268-1.268-6.196
			C20.558,4.182,17.605,3.36,16,4.287c3.719,6.441-0.433,7.251,1.536,10.661c0.469,0.813,1.111,1.361,1.731,1.731
			c-1.096,0.92-2.104,1.939-2.985,3.069c-0.807,0-1.683-0.104-2.335-0.48c-2.195-1.268-1.267-3.041-4.196-4.732
			C8.182,13.63,5.214,14.394,4.287,16c6.441,3.719,3.25,6.496,6.66,8.465c0.811,0.468,1.639,0.622,2.359,0.633
			c-0.496,1.342-0.904,2.726-1.104,4.186c-0.685,0.389-1.472,0.718-2.203,0.718c-2.535,0-2.617-2-6-2c-1.813,0-4,2.145-4,3.999
			c7.438,0,6.063,4,10,4c0.908,0,1.68-0.267,2.3-0.603c0.247,1.44,0.667,2.816,1.208,4.128c-0.4,0.687-0.921,1.374-1.561,1.743
			c-2.195,1.267-3.267-0.424-6.196,1.268C4.182,43.442,3.359,46.395,4.287,48c6.44-3.719,7.25,0.433,10.66-1.536
			c0.811-0.468,1.359-1.109,1.729-1.728c0.921,1.095,1.941,2.103,3.071,2.983c0,0.807-0.104,1.682-0.48,2.334
			c-1.268,2.193-3.041,1.266-4.731,4.195c-0.907,1.569-0.143,4.537,1.464,5.464c3.718-6.44,6.495-3.25,8.464-6.66
			c0.468-0.811,0.623-1.64,0.634-2.36c1.341,0.495,2.725,0.902,4.184,1.102C29.671,52.479,30,53.268,30,54.001c0,2.534-2,2.617-2,6
			c0,1.813,2.146,4,4,4c0-7.438,4-6.063,4-10c0-0.913-0.27-1.688-0.607-2.31c1.438-0.247,2.813-0.665,4.123-1.205
			c0.689,0.401,1.381,0.924,1.752,1.566c1.268,2.194-0.423,3.267,1.268,6.196c0.906,1.57,3.858,2.392,5.465,1.465
			c-3.719-6.441,0.433-7.251-1.536-10.66c-0.47-0.813-1.112-1.363-1.732-1.732c1.095-0.92,2.104-1.94,2.985-3.068
			c0.807-0.001,1.683,0.104,2.336,0.479c2.194,1.267,1.267,3.041,4.195,4.731c1.57,0.906,4.537,0.143,5.465-1.463
			C57.148,46.521,56.119,45.191,55.584,44.001z"/>
	</g>
</g>
<g id="Cloud_1_">
	<g>
		<path style="fill-rule:evenodd;clip-rule:evenodd;fill:#CCCCCC;" d="M62.547,34.137c0.408-0.897,0.641-1.89,0.641-2.937
			c0-3.977-3.274-7.199-7.313-7.199c-2.687,0-5.027,1.43-6.299,3.555c-0.564-0.226-1.18-0.355-1.826-0.355
			c-2.13,0-3.922,1.354-4.586,3.229c-0.098-0.005-0.189-0.028-0.289-0.028C40.183,30.4,38,32.55,38,35.2
			c0,2.651,2.183,4.801,4.875,4.801H60.75c1.795,0,3.25-1.434,3.25-3.2C64,35.688,63.422,34.71,62.547,34.137z"/>
	</g>
</g>
<g>
</g>
<g>
</g>
<g>
</g>
<g>
</g>
<g>
</g>
<g>
</g>
<g>
</g>
<g>
</g>
<g>
</g>
<g>
</g>
<g>
</g>
<g>
</g>
<g>
</g>
<g>
</g>
<g>
</g>
</svg>
