<?xml version="1.0" encoding="iso-8859-1"?>
<!-- Generator: Adobe Illustrator 16.0.0, SVG Export Plug-In . SVG Version: 6.00 Build 0)  -->
<!DOCTYPE svg PUBLIC "-//W3C//DTD SVG 1.1//EN" "http://www.w3.org/Graphics/SVG/1.1/DTD/svg11.dtd">
<svg version="1.1" id="Layer_1" xmlns="http://www.w3.org/2000/svg" xmlns:xlink="http://www.w3.org/1999/xlink" x="0px" y="0px"
	 width="68.001px" height="64.001px" viewBox="0 0 68.001 64.001" style="enable-background:new 0 0 68.001 64.001;"
	 xml:space="preserve">
<g id="Sun">
	<g>
		<path style="fill-rule:evenodd;clip-rule:evenodd;fill:#FFCC66;" d="M46.648,52.956c-2.84-2.384-4.647-5.957-4.647-9.955
			c0-0.338,0.025-0.669,0.051-1H22.001c-3.314,0-6-2.687-6-6s2.686-6,6-6h2.349c-0.222-0.626-0.349-1.298-0.349-2
			c0-3.314,2.687-6,6-6h12.051c-0.025-0.331-0.051-0.662-0.051-1c0-5.297,3.173-9.845,7.717-11.871
			c0.455-1.633-0.304-4.026-1.717-4.842c-3.719,6.44-6.496,3.25-8.465,6.66c-0.468,0.811-0.622,1.639-0.634,2.359
			c-1.341-0.495-2.724-0.902-4.184-1.102c-0.39-0.686-0.718-1.473-0.718-2.205c0-2.535,1.999-2.618,1.999-6
			C36,2.188,33.855,0,32.001,0c0,7.438-4,6.063-4,10.001c0,0.912,0.269,1.687,0.606,2.308c-1.438,0.247-2.813,0.665-4.124,1.205
			c-0.688-0.401-1.38-0.923-1.751-1.565c-1.267-2.195,0.424-3.268-1.268-6.196c-0.906-1.57-3.858-2.392-5.464-1.465
			c3.719,6.441-0.434,7.251,1.535,10.661c0.47,0.813,1.112,1.361,1.732,1.731c-1.096,0.92-2.104,1.939-2.985,3.069
			c-0.807,0-1.683-0.104-2.335-0.48c-2.195-1.268-1.267-3.041-4.196-4.732C8.183,13.63,5.215,14.394,4.288,16
			c6.44,3.719,3.25,6.496,6.66,8.465c0.811,0.468,1.639,0.622,2.359,0.633c-0.496,1.342-0.904,2.726-1.104,4.186
			c-0.686,0.389-1.472,0.718-2.203,0.718c-2.535,0-2.617-2-6-2C2.188,28.001,0,30.146,0,32c7.438,0,6.063,4,10.001,4
			c0.908,0,1.68-0.267,2.3-0.603c0.247,1.44,0.667,2.816,1.208,4.128c-0.4,0.687-0.921,1.374-1.561,1.743
			c-2.195,1.267-3.267-0.424-6.196,1.268C4.183,43.442,3.36,46.395,4.287,48c6.441-3.719,7.251,0.433,10.661-1.536
			c0.811-0.468,1.359-1.109,1.729-1.728c0.92,1.095,1.941,2.103,3.071,2.983c0,0.807-0.104,1.682-0.48,2.334
			c-1.268,2.193-3.041,1.266-4.732,4.195c-0.906,1.569-0.142,4.537,1.464,5.464c3.719-6.44,6.496-3.25,8.465-6.66
			c0.468-0.811,0.623-1.64,0.634-2.36c1.341,0.495,2.725,0.902,4.184,1.102c0.389,0.686,0.719,1.474,0.719,2.207
			c0,2.534-2,2.617-2,6c0,1.813,2.145,4,4,4c0-7.438,3.999-6.063,3.999-10c0-0.913-0.269-1.688-0.606-2.31
			c1.438-0.247,2.813-0.665,4.123-1.205c0.688,0.401,1.381,0.924,1.752,1.566c1.268,2.194-0.424,3.267,1.268,6.196
			c0.906,1.57,3.858,2.392,5.465,1.465C46.012,56.27,46.275,54.438,46.648,52.956z"/>
	</g>
</g>
<g id="Wind_2_">
	<g>
		<path style="fill-rule:evenodd;clip-rule:evenodd;fill:#72C1F7;" d="M54.728,34.001H22.062c-1.139,0-2.061,0.895-2.061,2
			c0,1.104,0.922,2,2.061,2h23.394h1.563h7.709c2.846,0,5.152,2.238,5.152,5c0,2.761-2.307,5-5.152,5c-2.845,0-5.151-2.239-5.151-5
			c0-1.105-0.923-2-2.061-2s-2.061,0.895-2.061,2c0,4.97,4.151,9,9.272,9c5.122,0,9.273-4.03,9.273-9
			C64.001,38.03,59.85,34.001,54.728,34.001z"/>
	</g>
</g>
<g id="Wind_3_">
	<g>
		<path style="fill-rule:evenodd;clip-rule:evenodd;fill:#72C1F7;" d="M54.728,12.001c-5.121,0-9.272,4.029-9.272,9
			c0,1.104,0.923,2,2.061,2s2.061-0.896,2.061-2c0-2.762,2.307-5,5.151-5c2.846,0,5.152,2.238,5.152,5s-2.307,5-5.152,5h-7.709
			h-1.563H30.062c-1.139,0-2.061,0.896-2.061,2s0.922,2,2.061,2h24.666c5.122,0,9.273-4.029,9.273-9S59.85,12.001,54.728,12.001z"/>
	</g>
</g>
<g>
</g>
<g>
</g>
<g>
</g>
<g>
</g>
<g>
</g>
<g>
</g>
<g>
</g>
<g>
</g>
<g>
</g>
<g>
</g>
<g>
</g>
<g>
</g>
<g>
</g>
<g>
</g>
<g>
</g>
</svg>
