<?xml version="1.0" encoding="iso-8859-1"?>
<!-- Generator: Adobe Illustrator 16.0.0, SVG Export Plug-In . SVG Version: 6.00 Build 0)  -->
<!DOCTYPE svg PUBLIC "-//W3C//DTD SVG 1.1//EN" "http://www.w3.org/Graphics/SVG/1.1/DTD/svg11.dtd">
<svg version="1.1" id="Layer_1" xmlns="http://www.w3.org/2000/svg" xmlns:xlink="http://www.w3.org/1999/xlink" x="0px" y="0px"
	 width="64px" height="64.001px" viewBox="0 0 64 64.001" style="enable-background:new 0 0 64 64.001;" xml:space="preserve">
<g id="Sun_23_">
	<g>
		<path style="fill-rule:evenodd;clip-rule:evenodd;fill:#FFCC66;" d="M54,28.001c-0.912,0-1.688,0.269-2.309,0.607
			c-0.248-1.449-0.64-2.847-1.182-4.171c0.398-0.673,0.916-1.342,1.543-1.705c2.194-1.267,3.267,0.424,6.196-1.268
			c1.569-0.906,2.391-3.858,1.464-5.465c-6.441,3.72-7.25-0.433-10.66,1.536c-0.784,0.452-1.32,1.066-1.689,1.666
			c-0.924-1.108-1.975-2.103-3.115-2.989c0.006-0.786,0.119-1.633,0.484-2.265c1.267-2.195,3.041-1.268,4.732-4.196
			C50.37,8.182,49.606,5.215,48,4.287c-3.719,6.441-6.496,3.251-8.464,6.661c-0.456,0.79-0.611,1.595-0.629,2.302
			c-1.336-0.493-2.736-0.846-4.189-1.044C34.329,11.521,34,10.733,34,10.001c0-2.534,2-2.618,2-6C36,2.188,33.854,0,32,0
			c0,7.438-4,6.063-4,10.001c0,0.912,0.269,1.687,0.606,2.308c-1.448,0.248-2.846,0.64-4.17,1.182
			c-0.673-0.397-1.342-0.915-1.704-1.542c-1.267-2.195,0.423-3.267-1.268-6.196C20.558,4.182,17.606,3.36,16,4.287
			c3.719,6.441-0.433,7.251,1.536,10.661c0.453,0.783,1.066,1.32,1.666,1.689c-1.108,0.924-2.103,1.975-2.989,3.115
			c-0.787-0.006-1.633-0.119-2.265-0.484c-2.195-1.268-1.267-3.041-4.196-4.732C8.182,13.63,5.214,14.394,4.287,16
			c6.441,3.719,3.25,6.496,6.66,8.465c0.79,0.456,1.596,0.611,2.303,0.629c-0.492,1.336-0.846,2.736-1.044,4.189
			c-0.686,0.389-1.474,0.718-2.206,0.718c-2.534,0-2.617-2-6-2c-1.813,0-4,2.145-4,3.999c7.437,0,6.063,4.001,10,4.001
			c0.912,0,1.688-0.269,2.309-0.607c0.248,1.448,0.64,2.845,1.181,4.169c-0.397,0.673-0.915,1.343-1.543,1.706
			c-2.195,1.267-3.267-0.424-6.196,1.268C4.181,43.442,3.359,46.395,4.287,48c6.441-3.719,7.25,0.433,10.661-1.536
			c0.784-0.452,1.32-1.066,1.689-1.665c0.924,1.108,1.975,2.103,3.115,2.988c-0.007,0.787-0.119,1.633-0.484,2.266
			c-1.267,2.195-3.041,1.267-4.732,4.196c-0.906,1.569-0.142,4.537,1.464,5.464c3.719-6.44,6.496-3.25,8.464-6.659
			c0.456-0.791,0.611-1.596,0.629-2.304c1.336,0.492,2.735,0.846,4.188,1.044C29.67,52.48,30,53.268,30,54.001c0,2.534-2,2.617-2,6
			c0,1.813,2.145,4,4,4c0-7.438,4-6.063,4-10c0-0.913-0.269-1.688-0.607-2.31c1.448-0.248,2.846-0.64,4.17-1.181
			c0.673,0.397,1.343,0.915,1.705,1.543c1.267,2.195-0.423,3.267,1.268,6.196c0.906,1.57,3.858,2.392,5.464,1.465
			c-3.719-6.441,0.433-7.251-1.536-10.661c-0.453-0.784-1.066-1.32-1.666-1.689c1.108-0.924,2.103-1.975,2.989-3.115
			c0.786,0.006,1.633,0.119,2.265,0.484c2.195,1.268,1.267,3.041,4.196,4.732c1.57,0.905,4.537,0.142,5.465-1.464
			c-6.441-3.719-3.25-6.496-6.66-8.464c-0.79-0.457-1.596-0.611-2.303-0.629c0.492-1.336,0.846-2.736,1.044-4.188
			c0.686-0.39,1.474-0.719,2.206-0.719c2.534,0,2.617,2,6,2c1.813,0,4-2.146,4-4C56.563,32.001,57.938,28.001,54,28.001z"/>
	</g>
</g>
<g>
</g>
<g>
</g>
<g>
</g>
<g>
</g>
<g>
</g>
<g>
</g>
<g>
</g>
<g>
</g>
<g>
</g>
<g>
</g>
<g>
</g>
<g>
</g>
<g>
</g>
<g>
</g>
<g>
</g>
</svg>
