<?xml version="1.0" encoding="iso-8859-1"?>
<!-- Generator: Adobe Illustrator 16.0.0, SVG Export Plug-In . SVG Version: 6.00 Build 0)  -->
<!DOCTYPE svg PUBLIC "-//W3C//DTD SVG 1.1//EN" "http://www.w3.org/Graphics/SVG/1.1/DTD/svg11.dtd">
<svg version="1.1" id="Layer_1" xmlns="http://www.w3.org/2000/svg" xmlns:xlink="http://www.w3.org/1999/xlink" x="0px" y="0px"
	 width="56px" height="26.01px" viewBox="0 0 56 26.01" style="enable-background:new 0 0 56 26.01;" xml:space="preserve">
<g id="Sun_19_">
	<g>
		<path style="fill-rule:evenodd;clip-rule:evenodd;fill:#FFCC66;" d="M28,0c-7.407,0-13.621,5.041-15.443,11.874
			c1.503-0.66,2.058-3.873,7.443-3.873c6,0,5.875,3.999,8,3.999c2,0,2-3.999,8-3.999c5.386,0,5.94,3.213,7.443,3.873
			C41.621,5.041,35.406,0,28,0z M20,16.001c-1,0-1.5,1-2.501,2h4.997C21.499,17,20.999,16.001,20,16.001z M36,16.001
			c-0.999,0-1.499,0.999-2.496,2h4.997C37.5,17.001,37,16.001,36,16.001z"/>
	</g>
</g>
<g id="Water_9_">
	<g>
		<path style="fill:#54BBFF;" d="M52,14.001c-6,0-6,4-8,4s-2-4-8-4s-6,4-8,4c-2.125,0-2-4-8-4s-6,4-8,4s-2-4-8-4c-2,0-4,2-4,4
			s2,4,4,4s2,4,8,4s6-4,8-4s2,4.009,8,4.009s6-4.009,8-4.009s2,4,8,4s6-4,8-4s4-2,4-4S54,14.001,52,14.001z"/>
	</g>
</g>
<g>
</g>
<g>
</g>
<g>
</g>
<g>
</g>
<g>
</g>
<g>
</g>
<g>
</g>
<g>
</g>
<g>
</g>
<g>
</g>
<g>
</g>
<g>
</g>
<g>
</g>
<g>
</g>
<g>
</g>
</svg>
