<?xml version="1.0" encoding="iso-8859-1"?>
<!-- Generator: Adobe Illustrator 16.0.0, SVG Export Plug-In . SVG Version: 6.00 Build 0)  -->
<!DOCTYPE svg PUBLIC "-//W3C//DTD SVG 1.1//EN" "http://www.w3.org/Graphics/SVG/1.1/DTD/svg11.dtd">
<svg version="1.1" id="Layer_1" xmlns="http://www.w3.org/2000/svg" xmlns:xlink="http://www.w3.org/1999/xlink" x="0px" y="0px"
	 width="64px" height="66.998px" viewBox="0 0 64 66.998" style="enable-background:new 0 0 64 66.998;" xml:space="preserve">
<g id="Land_2_">
	<g>
		<path style="fill:#CCCCCC;" d="M60,30.998H4c-2.209,0-4,1.791-4,4s1.791,4,4,4h56c2.209,0,4-1.791,4-4S62.209,30.998,60,30.998z"
			/>
	</g>
</g>
<g id="Sun_21_">
	<g>
		<path style="fill-rule:evenodd;clip-rule:evenodd;fill:#FFCC66;" d="M7.098,26.998h54.102c1.222-1,2.083-2.89,1.71-4.282
			c-7.184,1.926-6.891-2.295-10.694-1.275c-0.893,0.239-1.58,0.708-2.095,1.202c-0.607-1.308-1.336-2.557-2.208-3.707
			c0.209-0.763,0.538-1.559,1.059-2.079c1.791-1.792,3.265-0.437,5.656-2.828c1.281-1.282,1.312-4.346,0-5.657
			c-5.259,5.259-7.115,1.458-9.899,4.243c-0.648,0.648-1.009,1.39-1.209,2.071c-1.164-0.822-2.42-1.538-3.774-2.105
			c-0.197-0.762-0.308-1.609-0.119-2.315c0.655-2.447,2.609-2.011,3.484-5.278c0.47-1.75-1.037-4.419-2.828-4.898
			c-1.925,7.184-5.433,4.82-6.452,8.624c-0.236,0.881-0.177,1.699-0.012,2.387c-1.456-0.135-2.895-0.088-4.306,0.091
			c-0.558-0.563-1.084-1.248-1.275-1.96c-0.655-2.448,1.255-3.046,0.379-6.313c-0.469-1.75-3.107-3.309-4.898-2.828
			c1.925,7.184-2.295,6.892-1.275,10.694c0.239,0.894,0.709,1.583,1.204,2.098c-1.308,0.606-2.558,1.334-3.708,2.206
			c-0.764-0.209-1.561-0.538-2.081-1.059c-1.792-1.792-0.437-3.265-2.828-5.657c-1.281-1.282-4.346-1.312-5.656,0
			c5.259,5.259,1.458,7.115,4.242,9.899c0.647,0.647,1.39,1.009,2.071,1.209c-0.822,1.164-1.538,2.42-2.106,3.774
			c-0.761,0.197-1.607,0.308-2.313,0.119c-2.448-0.656-2.011-2.609-5.278-3.485c-1.751-0.469-4.419,1.037-4.899,2.828
			C5.39,23.867,6.269,25.584,7.098,26.998z"/>
	</g>
</g>
<g>
</g>
<g>
</g>
<g>
</g>
<g>
</g>
<g>
</g>
<g>
</g>
<g>
</g>
<g>
</g>
<g>
</g>
<g>
</g>
<g>
</g>
<g>
</g>
<g>
</g>
<g>
</g>
<g>
</g>
</svg>
