<?xml version="1.0" encoding="iso-8859-1"?>
<!-- Generator: Adobe Illustrator 16.0.0, SVG Export Plug-In . SVG Version: 6.00 Build 0)  -->
<!DOCTYPE svg PUBLIC "-//W3C//DTD SVG 1.1//EN" "http://www.w3.org/Graphics/SVG/1.1/DTD/svg11.dtd">
<svg version="1.1" id="Layer_1" xmlns="http://www.w3.org/2000/svg" xmlns:xlink="http://www.w3.org/1999/xlink" x="0px" y="0px"
	 width="64px" height="64px" viewBox="0 0 64 64" style="enable-background:new 0 0 64 64;" xml:space="preserve">
<g id="Sun_16_">
	<g>
		<path style="fill-rule:evenodd;clip-rule:evenodd;fill:#FFCC66;" d="M17.646,22.672c1.53-1.723,3.583-2.673,5.782-2.673
			s4.252,0.95,5.782,2.672c0.758,0.855,1.744,1.326,2.78,1.329h0.018c1.036-0.003,2.024-0.474,2.782-1.329
			c1.529-1.722,3.582-2.672,5.779-2.672c0.002,0,0.002,0,0.002,0c2.199,0,4.252,0.948,5.783,2.672
			c0.036,0.041,0.08,0.07,0.117,0.109C47.443,20.721,48,18.429,48,16c0-8.836-7.164-16-16-16c-8.837,0-16,7.164-16,16
			c0,2.429,0.557,4.721,1.527,6.781C17.565,22.741,17.609,22.713,17.646,22.672z"/>
	</g>
</g>
<g id="Water_6_">
	<g>
		<path style="fill-rule:evenodd;clip-rule:evenodd;fill:#54BBFF;" d="M63.496,28.672c-1.527-1.724-3.58-2.673-5.779-2.673
			c-0.002,0-0.002,0-0.002,0c-2.199,0-4.254,0.949-5.783,2.672c-0.76,0.857-1.752,1.33-2.791,1.33c0,0,0,0-0.002,0
			c-1.037-0.002-2.025-0.473-2.783-1.33c-1.531-1.724-3.584-2.672-5.783-2.672c0,0,0,0-0.002,0c-2.197,0-4.25,0.949-5.779,2.672
			c-0.76,0.857-1.752,1.33-2.791,1.33s-2.029-0.473-2.789-1.33c-1.53-1.723-3.583-2.672-5.782-2.672s-4.252,0.949-5.782,2.673
			c-1.52,1.714-4.059,1.715-5.578-0.001c-1.53-1.723-3.583-2.672-5.782-2.672s-4.252,0.949-5.782,2.672
			c-0.733,0.826-0.657,2.091,0.168,2.825c0.828,0.732,2.091,0.655,2.824-0.168c1.52-1.714,4.061-1.712,5.58-0.002
			c1.53,1.724,3.583,2.676,5.781,2.676s4.251-0.952,5.781-2.674c1.52-1.714,4.061-1.712,5.58-0.002
			c1.529,1.724,3.582,2.673,5.78,2.676H32c2.199-0.003,4.252-0.952,5.783-2.674c1.52-1.714,4.063-1.712,5.578-0.002
			c1.527,1.722,3.578,2.673,5.775,2.676c0.002,0,0.004,0,0.004,0c2.199-0.003,4.252-0.949,5.783-2.674
			c0.76-0.857,1.75-1.329,2.791-1.329c1.039,0,2.029,0.472,2.789,1.327c0.732,0.825,1.996,0.899,2.822,0.17
			C64.154,30.763,64.229,29.499,63.496,28.672z M50.709,38.672c-0.713,0.857-1.645,1.331-2.62,1.331c0,0,0,0-0.002,0
			c-0.973-0.002-1.9-0.474-2.612-1.331c-1.438-1.725-3.364-2.673-5.429-2.673c0,0,0,0-0.001,0c-2.063,0.002-3.99,0.95-5.425,2.673
			c-0.714,0.857-1.646,1.331-2.62,1.331c-0.976-0.002-1.904-0.474-2.618-1.331c-1.437-1.723-3.363-2.673-5.428-2.673
			s-3.991,0.95-5.428,2.673c-1.426,1.715-3.81,1.715-5.235,0c-0.689-0.825-1.876-0.901-2.65-0.167
			c-0.775,0.731-0.848,1.998-0.158,2.823c1.436,1.724,3.363,2.675,5.426,2.675c2.064,0,3.99-0.951,5.427-2.675
			c1.427-1.715,3.812-1.715,5.238,0c1.436,1.724,3.362,2.673,5.426,2.675H32c2.064-0.002,3.991-0.951,5.429-2.675
			c1.426-1.715,3.813-1.712,5.235-0.001c1.434,1.722,3.359,2.674,5.422,2.676c0.001,0,0.003,0,0.003,0
			c2.064,0,3.991-0.949,5.429-2.675c0.688-0.825,0.618-2.089-0.157-2.823C52.584,37.771,51.4,37.845,50.709,38.672z"/>
	</g>
</g>
<g>
</g>
<g>
</g>
<g>
</g>
<g>
</g>
<g>
</g>
<g>
</g>
<g>
</g>
<g>
</g>
<g>
</g>
<g>
</g>
<g>
</g>
<g>
</g>
<g>
</g>
<g>
</g>
<g>
</g>
</svg>
