<?xml version="1.0" encoding="iso-8859-1"?>
<!-- Generator: Adobe Illustrator 16.0.0, SVG Export Plug-In . SVG Version: 6.00 Build 0)  -->
<!DOCTYPE svg PUBLIC "-//W3C//DTD SVG 1.1//EN" "http://www.w3.org/Graphics/SVG/1.1/DTD/svg11.dtd">
<svg version="1.1" id="Layer_1" xmlns="http://www.w3.org/2000/svg" xmlns:xlink="http://www.w3.org/1999/xlink" x="0px" y="0px"
	 width="56px" height="34.009px" viewBox="0 0 56 34.009" style="enable-background:new 0 0 56 34.009;" xml:space="preserve">
<g id="Sun_18_">
	<g>
		<path style="fill-rule:evenodd;clip-rule:evenodd;fill:#FFCC66;" d="M20,16c6,0,5.875,4.001,8,4.001c2,0,2-4.001,8-4.001
			c5.465,0,5.956,3.31,7.511,3.902C43.825,18.653,44,17.348,44,16c0-8.836-7.164-16-16-16c-8.837,0-16,7.164-16,16
			c0,1.348,0.175,2.653,0.489,3.902C14.044,19.31,14.535,16,20,16z"/>
	</g>
</g>
<g id="Water_8_">
	<g>
		<path style="fill:#54BBFF;" d="M52,22.001c-6,0-6,4-8,4s-2-4-8-4s-6,4-8,4c-2.125,0-2-4-8-4s-6,4-8,4s-2-4-8-4c-2,0-4,2-4,4
			s2,4,4,4s2,4,8,4s6-4,8-4s2,4.008,8,4.008s6-4.008,8-4.008s2,4,8,4s6-4,8-4s4-2,4-4S54,22.001,52,22.001z"/>
	</g>
</g>
<g>
</g>
<g>
</g>
<g>
</g>
<g>
</g>
<g>
</g>
<g>
</g>
<g>
</g>
<g>
</g>
<g>
</g>
<g>
</g>
<g>
</g>
<g>
</g>
<g>
</g>
<g>
</g>
<g>
</g>
</svg>
