<?xml version="1.0" encoding="iso-8859-1"?>
<!-- Generator: Adobe Illustrator 16.0.0, SVG Export Plug-In . SVG Version: 6.00 Build 0)  -->
<!DOCTYPE svg PUBLIC "-//W3C//DTD SVG 1.1//EN" "http://www.w3.org/Graphics/SVG/1.1/DTD/svg11.dtd">
<svg version="1.1" id="Layer_1" xmlns="http://www.w3.org/2000/svg" xmlns:xlink="http://www.w3.org/1999/xlink" x="0px" y="0px"
	 width="64px" height="66.998px" viewBox="0 0 64 66.998" style="enable-background:new 0 0 64 66.998;" xml:space="preserve">
<g id="Land_1_">
	<g>
		<path style="fill:#CCCCCC;" d="M60,18.998H4c-2.209,0-4,1.791-4,4s1.791,4,4,4h56c2.209,0,4-1.791,4-4S62.209,18.998,60,18.998z"
			/>
	</g>
</g>
<g id="Sun_20_">
	<g>
		<path style="fill-rule:evenodd;clip-rule:evenodd;fill:#FFCC66;" d="M54.627,8.371c-5.259,5.259-7.115,1.458-9.899,4.242
			c-0.648,0.648-1.009,1.391-1.209,2.072c-1.164-0.822-2.42-1.538-3.774-2.105c-0.197-0.762-0.308-1.609-0.119-2.315
			c0.655-2.448,2.609-2.011,3.484-5.278c0.469-1.75-1.037-4.419-2.828-4.898c-1.925,7.184-5.433,4.82-6.452,8.624
			c-0.236,0.881-0.177,1.699-0.012,2.387c-1.456-0.135-2.895-0.088-4.305,0.091c-0.558-0.563-1.085-1.248-1.276-1.96
			c-0.655-2.448,1.255-3.046,0.379-6.313c-0.469-1.751-3.107-3.309-4.898-2.828c1.925,7.184-2.295,6.891-1.275,10.694
			c0.239,0.895,0.709,1.583,1.205,2.098c-1.26,0.583-2.46,1.288-3.576,2.117h33.338c0.381-0.229,0.784-0.537,1.218-0.971
			C55.908,12.746,55.938,9.682,54.627,8.371z M15.029,8.371c-1.281-1.282-4.346-1.312-5.657,0c3.093,3.093,3.053,5.007,3.062,6.627
			h7.223c-0.673-0.211-1.343-0.514-1.799-0.971C16.065,12.235,17.421,10.762,15.029,8.371z"/>
	</g>
</g>
<g>
</g>
<g>
</g>
<g>
</g>
<g>
</g>
<g>
</g>
<g>
</g>
<g>
</g>
<g>
</g>
<g>
</g>
<g>
</g>
<g>
</g>
<g>
</g>
<g>
</g>
<g>
</g>
<g>
</g>
</svg>
