<?xml version="1.0" encoding="iso-8859-1"?>
<!-- Generator: Adobe Illustrator 16.0.0, SVG Export Plug-In . SVG Version: 6.00 Build 0)  -->
<!DOCTYPE svg PUBLIC "-//W3C//DTD SVG 1.1//EN" "http://www.w3.org/Graphics/SVG/1.1/DTD/svg11.dtd">
<svg version="1.1" id="Layer_1" xmlns="http://www.w3.org/2000/svg" xmlns:xlink="http://www.w3.org/1999/xlink" x="0px" y="0px"
	 width="64px" height="76px" viewBox="0 0 64 76" style="enable-background:new 0 0 64 76;" xml:space="preserve">
<g id="Land_3_">
	<g>
		<path style="fill:#CCCCCC;" d="M60,40H4c-2.209,0-4,1.791-4,4c0,2.21,1.791,4.001,4,4.001h56c2.209,0,4-1.791,4-4.001
			C64,41.791,62.209,40,60,40z"/>
	</g>
</g>
<g id="Sun_22_">
	<g>
		<path style="fill-rule:evenodd;clip-rule:evenodd;fill:#FFCC66;" d="M10.014,36c0.902-0.003,1.669-0.268,2.286-0.602
			C12.334,35.601,12.38,35.8,12.422,36h39.149c0.087-0.423,0.166-0.849,0.225-1.282c0.686-0.389,1.473-0.717,2.204-0.717
			c2.527,0,2.618,1.988,5.974,1.999h0.033C61.818,35.995,64,33.853,64,32.001c-7.438,0-6.063-4-10-4c-0.908,0-1.68,0.267-2.3,0.603
			c-0.248-1.442-0.667-2.823-1.206-4.14c0.399-0.682,0.922-1.364,1.559-1.731c2.194-1.267,3.266,0.424,6.195-1.268
			c1.57-0.906,2.392-3.858,1.465-5.464c-6.441,3.719-7.251-0.434-10.661,1.535c-0.8,0.462-1.343,1.091-1.713,1.702
			c-0.925-1.106-1.952-2.123-3.091-3.008c0.005-0.792,0.116-1.645,0.484-2.282c1.268-2.195,3.041-1.267,4.732-4.196
			C50.37,8.183,49.605,5.215,48,4.288c-3.719,6.44-6.495,3.25-8.464,6.66c-0.459,0.794-0.614,1.604-0.63,2.314
			c-1.336-0.492-2.734-0.858-4.188-1.057C34.329,11.52,34,10.732,34,10c0-2.534,2-2.617,2-5.999C36,2.188,33.854,0,32,0
			c0,7.438-4,6.063-4,10c0,0.912,0.269,1.688,0.606,2.309c-1.441,0.247-2.819,0.665-4.135,1.203c-0.685-0.4-1.371-0.925-1.74-1.563
			c-1.267-2.195,0.424-3.268-1.268-6.196C20.558,4.182,17.605,3.36,16,4.287c3.719,6.441-0.434,7.251,1.535,10.661
			c0.463,0.802,1.095,1.346,1.707,1.716c-1.106,0.923-2.124,1.95-3.01,3.088c-0.792-0.004-1.647-0.116-2.285-0.484
			c-2.194-1.268-1.267-3.041-4.196-4.732C8.182,13.63,5.214,14.395,4.287,16c6.44,3.72,3.25,6.496,6.66,8.464
			c0.794,0.458,1.604,0.613,2.314,0.63c-0.493,1.337-0.86,2.736-1.058,4.19c-0.685,0.389-1.472,0.717-2.204,0.717
			c-2.534,0-2.617-2-6-2c-1.813,0-4,2.145-4,3.999c7.427,0,6.067,3.989,9.985,4H10.014z"/>
	</g>
</g>
<g>
</g>
<g>
</g>
<g>
</g>
<g>
</g>
<g>
</g>
<g>
</g>
<g>
</g>
<g>
</g>
<g>
</g>
<g>
</g>
<g>
</g>
<g>
</g>
<g>
</g>
<g>
</g>
<g>
</g>
</svg>
