<?xml version="1.0" encoding="iso-8859-1"?>
<!-- Generator: Adobe Illustrator 16.0.0, SVG Export Plug-In . SVG Version: 6.00 Build 0)  -->
<!DOCTYPE svg PUBLIC "-//W3C//DTD SVG 1.1//EN" "http://www.w3.org/Graphics/SVG/1.1/DTD/svg11.dtd">
<svg version="1.1" id="Layer_1" xmlns="http://www.w3.org/2000/svg" xmlns:xlink="http://www.w3.org/1999/xlink" x="0px" y="0px"
	 width="64px" height="56px" viewBox="0 0 64 56" style="enable-background:new 0 0 64 56;" xml:space="preserve">
<g id="Sun_17_">
	<g>
		<path style="fill-rule:evenodd;clip-rule:evenodd;fill:#FFCC66;" d="M17.646,14.672c1.53-1.724,3.583-2.673,5.782-2.673
			s4.252,0.949,5.782,2.672c0.758,0.856,1.745,1.326,2.78,1.329h0.018c1.036-0.003,2.024-0.473,2.782-1.329
			c1.529-1.723,3.582-2.672,5.779-2.672c0.002,0,0.002,0,0.002,0c2.199,0,4.252,0.949,5.783,2.672
			c0.469,0.531,1.031,0.893,1.634,1.107C47.869,7.046,40.761,0,32,0c-8.751,0-15.85,7.028-15.987,15.746
			C16.612,15.542,17.18,15.198,17.646,14.672z"/>
	</g>
</g>
<g id="Water_7_">
	<g>
		<path style="fill-rule:evenodd;clip-rule:evenodd;fill:#54BBFF;" d="M63.496,20.672c-1.527-1.724-3.58-2.673-5.779-2.673
			c-0.002,0-0.002,0-0.002,0c-2.199,0-4.254,0.949-5.783,2.672c-0.76,0.857-1.752,1.33-2.791,1.33c0,0,0,0-0.002,0
			c-1.037-0.002-2.025-0.473-2.783-1.33c-1.531-1.724-3.584-2.672-5.783-2.672c0,0,0,0-0.002,0c-2.197,0-4.25,0.949-5.779,2.672
			c-0.76,0.857-1.752,1.33-2.791,1.33s-2.029-0.473-2.789-1.33c-1.53-1.723-3.583-2.672-5.782-2.672s-4.252,0.949-5.782,2.673
			c-1.52,1.714-4.059,1.715-5.578-0.001c-1.53-1.723-3.583-2.672-5.782-2.672s-4.252,0.949-5.782,2.672
			c-0.733,0.827-0.657,2.091,0.168,2.824c0.828,0.733,2.091,0.656,2.824-0.167c1.52-1.714,4.061-1.713,5.58-0.001
			c1.53,1.724,3.583,2.675,5.781,2.675s4.251-0.951,5.781-2.674c1.52-1.714,4.061-1.713,5.58-0.001
			c1.529,1.724,3.582,2.672,5.78,2.675H32c2.199-0.003,4.252-0.951,5.783-2.674c1.52-1.714,4.063-1.712,5.578-0.002
			c1.527,1.722,3.578,2.673,5.775,2.676c0.002,0,0.004,0,0.004,0c2.199-0.003,4.252-0.95,5.783-2.674
			c0.76-0.857,1.75-1.329,2.791-1.329c1.039,0,2.029,0.472,2.789,1.328c0.732,0.824,1.996,0.898,2.822,0.168
			C64.154,22.763,64.229,21.498,63.496,20.672z M40.067,27.998c0,0,0,0-0.002,0c-2.068,0.003-4,0.951-5.439,2.675
			c-0.715,0.857-1.649,1.33-2.627,1.33c-0.978-0.002-1.91-0.473-2.625-1.33c-1.44-1.724-3.372-2.675-5.442-2.675
			c-2.069,0-4.002,0.951-5.441,2.675c-0.69,0.825-0.619,2.092,0.158,2.824c0.778,0.733,1.967,0.655,2.657-0.168
			c1.431-1.715,3.822-1.715,5.252,0c1.439,1.723,3.372,2.672,5.439,2.674c0.002,0,0.002,0,0.002,0
			c2.07-0.002,4.002-0.951,5.443-2.674c1.43-1.715,3.821-1.715,5.251,0c0.691,0.826,1.881,0.9,2.658,0.168
			c0.778-0.734,0.848-1.999,0.158-2.824C44.068,28.947,42.137,27.998,40.067,27.998z"/>
	</g>
</g>
<g>
</g>
<g>
</g>
<g>
</g>
<g>
</g>
<g>
</g>
<g>
</g>
<g>
</g>
<g>
</g>
<g>
</g>
<g>
</g>
<g>
</g>
<g>
</g>
<g>
</g>
<g>
</g>
<g>
</g>
</svg>
