<?xml version="1.0" encoding="iso-8859-1"?>
<!-- Generator: Adobe Illustrator 16.0.0, SVG Export Plug-In . SVG Version: 6.00 Build 0)  -->
<!DOCTYPE svg PUBLIC "-//W3C//DTD SVG 1.1//EN" "http://www.w3.org/Graphics/SVG/1.1/DTD/svg11.dtd">
<svg version="1.1" id="Layer_1" xmlns="http://www.w3.org/2000/svg" xmlns:xlink="http://www.w3.org/1999/xlink" x="0px" y="0px"
	 width="64px" height="64px" viewBox="0 0 64 64" style="enable-background:new 0 0 64 64;" xml:space="preserve">
<g id="Thermometter_2_">
	<g>
		<path style="fill-rule:evenodd;clip-rule:evenodd;fill:#FFFFFF;" d="M26,35.522V10.001c0-5.523-4.478-10-10-10
			c-5.523,0-10,4.477-10,10v25.521c-3.654,2.933-6,7.429-6,12.479C0,56.837,7.163,64,16,64c8.836,0,16-7.163,16-15.999
			C32,42.951,29.654,38.454,26,35.522z"/>
	</g>
</g>
<g id="Thermometter_3_">
	<g>
		<path style="fill-rule:evenodd;clip-rule:evenodd;fill:#CCCCCC;" d="M26,35.522V10.001c0-5.523-4.478-10-10-10
			c-5.523,0-10,4.477-10,10v25.521c-3.654,2.933-6,7.429-6,12.479C0,56.837,7.163,64,16,64c8.836,0,16-7.163,16-15.999
			C32,42.951,29.654,38.454,26,35.522z M16,60.027c-6.643,0-12.026-5.385-12.026-12.026c0-4.453,2.429-8.323,6.026-10.399v-1.601v-2
			v-24c0-3.314,2.686-6,6-6c3.313,0,6,2.686,6,6v24v2v1.602c3.597,2.076,6.025,5.946,6.025,10.398
			C28.025,54.643,22.642,60.027,16,60.027z"/>
	</g>
</g>
<g id="Hot">
	<g>
		<path style="fill-rule:evenodd;clip-rule:evenodd;fill:#ED7161;" d="M18,40.263V10c0-1.104-0.896-2-2-2c-1.105,0-2,0.896-2,2
			v30.263c-3.449,0.889-6,4.012-6,7.738c0,4.418,3.581,8,8,8c4.418,0,8-3.582,8-8C24,44.275,21.448,41.153,18,40.263z"/>
	</g>
</g>
<g id="Sun_15_">
	<g>
		<path style="fill:#FFCC66;" d="M58.375,15.751c-0.527,0-0.945,0.171-1.299,0.369c-0.138-0.809-0.385-1.572-0.687-2.309
			c0.229-0.398,0.517-0.809,0.89-1.024c1.234-0.713,1.838,0.238,3.485-0.713c0.883-0.51,1.345-2.17,0.823-3.074
			c-3.623,2.092-4.078-0.243-5.996,0.864c-0.482,0.278-0.768,0.661-0.975,1.026c-0.518-0.616-1.079-1.194-1.715-1.69
			c-0.004-0.466,0.04-0.975,0.259-1.354c0.713-1.234,1.711-0.712,2.662-2.36c0.51-0.883,0.08-2.552-0.823-3.073
			c-2.092,3.623-3.654,1.828-4.762,3.746c-0.277,0.481-0.334,0.954-0.331,1.374c-0.75-0.279-1.523-0.509-2.34-0.624
			c-0.231-0.397-0.442-0.852-0.442-1.282c0-1.426,1.125-1.473,1.125-3.375C48.25,1.23,47.043,0,46,0c0,4.184-2.25,3.411-2.25,5.626
			c0,0.534,0.176,0.956,0.377,1.313c-0.807,0.137-1.569,0.38-2.304,0.679c-0.403-0.229-0.819-0.52-1.037-0.896
			c-0.713-1.234,0.238-1.837-0.713-3.485C39.563,2.353,37.903,1.89,37,2.412c2.092,3.623-0.244,4.078,0.863,5.996
			c0.279,0.483,0.663,0.769,1.029,0.977c-0.619,0.517-1.2,1.077-1.698,1.712c-0.465,0.004-0.972-0.04-1.349-0.258
			c-1.235-0.713-0.713-1.711-2.361-2.662c-0.883-0.51-2.552-0.08-3.073,0.823c3.623,2.092,1.828,3.654,3.747,4.761
			c0.476,0.275,0.942,0.333,1.36,0.332c-0.281,0.752-0.513,1.528-0.628,2.349c-0.394,0.228-0.841,0.435-1.266,0.435
			c-1.426,0-1.473-1.125-3.375-1.125C29.23,15.751,28,16.957,28,18c4.184,0,3.41,2.251,5.625,2.251c0.527,0,0.944-0.172,1.299-0.37
			c0.137,0.809,0.384,1.572,0.686,2.308c-0.229,0.4-0.516,0.81-0.89,1.025c-1.234,0.713-1.837-0.238-3.485,0.713
			c-0.883,0.51-1.345,2.17-0.823,3.074c3.623-2.092,4.078,0.243,5.996-0.864c0.482-0.278,0.768-0.661,0.976-1.026
			c0.518,0.616,1.078,1.193,1.714,1.69c0.004,0.466-0.04,0.976-0.259,1.354c-0.713,1.234-1.711,0.712-2.662,2.36
			c-0.51,0.883-0.08,2.552,0.824,3.073c2.092-3.623,3.653-1.828,4.761-3.746c0.278-0.481,0.334-0.954,0.331-1.374
			c0.75,0.278,1.523,0.509,2.34,0.623c0.232,0.398,0.443,0.853,0.443,1.284c0,1.425-1.125,1.472-1.125,3.374
			c0,1.021,1.206,2.251,2.25,2.251c0-4.185,2.25-3.411,2.25-5.625c0-0.535-0.176-0.958-0.378-1.314
			c0.807-0.136,1.569-0.38,2.304-0.679c0.403,0.229,0.819,0.521,1.037,0.897c0.713,1.234-0.238,1.837,0.713,3.485
			c0.51,0.883,2.171,1.345,3.074,0.823c-2.092-3.623,0.243-4.078-0.864-5.996c-0.279-0.483-0.663-0.77-1.029-0.977
			c0.619-0.517,1.2-1.077,1.698-1.712c0.465-0.004,0.972,0.04,1.35,0.258c1.234,0.713,0.713,1.711,2.36,2.662
			c0.883,0.51,2.552,0.08,3.073-0.823c-3.623-2.092-1.828-3.654-3.746-4.762c-0.477-0.274-0.943-0.332-1.361-0.331
			c0.281-0.752,0.513-1.528,0.628-2.349c0.394-0.229,0.841-0.435,1.267-0.435c1.425,0,1.472,1.126,3.375,1.126
			c1.02,0,2.25-1.207,2.25-2.25C59.816,18.001,60.59,15.751,58.375,15.751z"/>
	</g>
</g>
<g>
</g>
<g>
</g>
<g>
</g>
<g>
</g>
<g>
</g>
<g>
</g>
<g>
</g>
<g>
</g>
<g>
</g>
<g>
</g>
<g>
</g>
<g>
</g>
<g>
</g>
<g>
</g>
<g>
</g>
</svg>
