<?xml version="1.0" encoding="iso-8859-1"?>
<!-- Generator: Adobe Illustrator 16.0.0, SVG Export Plug-In . SVG Version: 6.00 Build 0)  -->
<!DOCTYPE svg PUBLIC "-//W3C//DTD SVG 1.1//EN" "http://www.w3.org/Graphics/SVG/1.1/DTD/svg11.dtd">
<svg version="1.1" id="Layer_1" xmlns="http://www.w3.org/2000/svg" xmlns:xlink="http://www.w3.org/1999/xlink" x="0px" y="0px"
	 width="56.033px" height="63.999px" viewBox="0 0 56.033 63.999" style="enable-background:new 0 0 56.033 63.999;"
	 xml:space="preserve">
<g id="Thermometter">
	<g>
		<path style="fill-rule:evenodd;clip-rule:evenodd;fill:#FFFFFF;" d="M26,35.521V10c0-5.523-4.478-10-10-10C10.477,0,6,4.477,6,10
			v25.521C2.346,38.453,0,42.95,0,48c0,8.836,7.163,15.999,16,15.999c8.836,0,16-7.163,16-15.999C32,42.95,29.654,38.453,26,35.521z
			"/>
	</g>
</g>
<g id="Thermometter_1_">
	<g>
		<path style="fill-rule:evenodd;clip-rule:evenodd;fill:#CCCCCC;" d="M26,35.521V10c0-5.523-4.478-10-10-10C10.477,0,6,4.477,6,10
			v25.521C2.346,38.453,0,42.95,0,48c0,8.836,7.163,15.999,16,15.999c8.836,0,16-7.163,16-15.999C32,42.95,29.654,38.453,26,35.521z
			 M16,60.026C9.357,60.026,3.974,54.642,3.974,48c0-4.453,2.429-8.323,6.026-10.399V36v-4V10c0-3.314,2.686-6,6-6
			c3.313,0,6,2.686,6,6v22v4v1.602c3.597,2.076,6.025,5.946,6.025,10.398C28.025,54.642,22.642,60.026,16,60.026z"/>
	</g>
</g>
<g id="Cold">
	<g>
		<path style="fill-rule:evenodd;clip-rule:evenodd;fill:#48A0DC;" d="M16,56c4.418,0,8-3.582,8-8H8C8,52.418,11.582,56,16,56z"/>
	</g>
</g>
<g id="Snowflake_7_">
	<g>
		<path style="fill-rule:evenodd;clip-rule:evenodd;fill:#48A0DC;" d="M55.092,14.268L49.765,11l5.327-3.268
			c0.9-0.552,1.209-1.775,0.689-2.731c-0.521-0.957-1.672-1.285-2.572-0.732L48,7.463V2c0-1.104-0.896-2-2-2s-2,0.896-2,2v5.463
			l-5.21-3.196C37.89,3.715,36.738,4.043,36.219,5c-0.52,0.956-0.211,2.18,0.689,2.731L42.235,11l-5.327,3.268
			c-0.9,0.553-1.209,1.775-0.689,2.732c0.52,0.956,1.671,1.284,2.571,0.731L44,14.536V20c0,1.104,0.896,2,2,2s2-0.896,2-2v-5.464
			l5.209,3.195c0.9,0.553,2.052,0.225,2.572-0.731C56.301,16.043,55.992,14.82,55.092,14.268z"/>
	</g>
</g>
<g>
</g>
<g>
</g>
<g>
</g>
<g>
</g>
<g>
</g>
<g>
</g>
<g>
</g>
<g>
</g>
<g>
</g>
<g>
</g>
<g>
</g>
<g>
</g>
<g>
</g>
<g>
</g>
<g>
</g>
</svg>
