<?xml version="1.0" encoding="iso-8859-1"?>
<!-- Generator: Adobe Illustrator 16.0.0, SVG Export Plug-In . SVG Version: 6.00 Build 0)  -->
<!DOCTYPE svg PUBLIC "-//W3C//DTD SVG 1.1//EN" "http://www.w3.org/Graphics/SVG/1.1/DTD/svg11.dtd">
<svg version="1.1" id="Layer_1" xmlns="http://www.w3.org/2000/svg" xmlns:xlink="http://www.w3.org/1999/xlink" x="0px" y="0px"
	 width="32px" height="63.999px" viewBox="0 0 32 63.999" style="enable-background:new 0 0 32 63.999;" xml:space="preserve">
<g id="Thermometter_10_">
	<g>
		<path style="fill-rule:evenodd;clip-rule:evenodd;fill:#FFFFFF;" d="M26,35.521V10c0-5.523-4.477-10-10-10C10.478,0,6,4.477,6,10
			v25.521C2.345,38.453,0,42.95,0,48c0,8.836,7.164,15.999,16,15.999S32,56.836,32,48C32,42.95,29.655,38.453,26,35.521z"/>
	</g>
</g>
<g id="Thermometter_11_">
	<g>
		<path style="fill-rule:evenodd;clip-rule:evenodd;fill:#CCCCCC;" d="M26,35.521V10c0-5.523-4.477-10-10-10C10.478,0,6,4.477,6,10
			v25.521C2.345,38.453,0,42.95,0,48c0,8.836,7.164,15.999,16,15.999S32,56.836,32,48C32,42.95,29.655,38.453,26,35.521z M16,60.026
			C9.358,60.026,3.974,54.642,3.974,48c0-4.453,2.429-8.323,6.026-10.399v-1.593c0-0.002,0-0.005,0-0.007V10c0-3.314,2.687-6,6-6
			c3.314,0,6,2.686,6,6v24h0v3.601c3.597,2.077,6.026,5.946,6.026,10.399C28.026,54.642,22.642,60.026,16,60.026z"/>
	</g>
</g>
<g id="Hot_1_">
	<g>
		<path style="fill-rule:evenodd;clip-rule:evenodd;fill:#ED7161;" d="M18,40.262V9.999c0-1.104-0.896-2-2-2s-2,0.896-2,2v30.263
			c-3.448,0.89-6,4.012-6,7.738c0,4.418,3.582,8,8,8c4.418,0,8-3.582,8-8C24,44.274,21.449,41.152,18,40.262z"/>
	</g>
</g>
<g>
</g>
<g>
</g>
<g>
</g>
<g>
</g>
<g>
</g>
<g>
</g>
<g>
</g>
<g>
</g>
<g>
</g>
<g>
</g>
<g>
</g>
<g>
</g>
<g>
</g>
<g>
</g>
<g>
</g>
</svg>
