<?xml version="1.0" encoding="iso-8859-1"?>
<!-- Generator: Adobe Illustrator 16.0.0, SVG Export Plug-In . SVG Version: 6.00 Build 0)  -->
<!DOCTYPE svg PUBLIC "-//W3C//DTD SVG 1.1//EN" "http://www.w3.org/Graphics/SVG/1.1/DTD/svg11.dtd">
<svg version="1.1" id="Layer_1" xmlns="http://www.w3.org/2000/svg" xmlns:xlink="http://www.w3.org/1999/xlink" x="0px" y="0px"
	 width="32px" height="63.999px" viewBox="0 0 32 63.999" style="enable-background:new 0 0 32 63.999;" xml:space="preserve">
<g id="Thermometter_6_">
	<g>
		<path style="fill-rule:evenodd;clip-rule:evenodd;fill:#FFFFFF;" d="M26,35.521V10c0-5.523-4.478-10-10-10C10.477,0,6,4.477,6,10
			v25.521C2.345,38.453,0,42.95,0,48c0,8.836,7.163,15.999,16,15.999c8.836,0,16-7.163,16-15.999C32,42.95,29.654,38.453,26,35.521z
			"/>
	</g>
</g>
<g id="Thermometter_7_">
	<g>
		<path style="fill-rule:evenodd;clip-rule:evenodd;fill:#CCCCCC;" d="M26,35.521V10c0-5.523-4.478-10-10-10C10.477,0,6,4.477,6,10
			v25.521C2.345,38.453,0,42.95,0,48c0,8.836,7.163,15.999,16,15.999c8.836,0,16-7.163,16-15.999C32,42.95,29.654,38.453,26,35.521z
			 M16,60.026C9.357,60.026,3.974,54.642,3.974,48c0-4.453,2.429-8.323,6.026-10.399V36v-2V10c0-3.314,2.686-6,6-6
			c3.313,0,6,2.686,6,6v24v2v1.602c3.597,2.076,6.025,5.946,6.025,10.398C28.025,54.642,22.642,60.026,16,60.026z"/>
	</g>
</g>
<g id="Cold_1_">
	<g>
		<path style="fill-rule:evenodd;clip-rule:evenodd;fill:#48A0DC;" d="M16,56c4.418,0,8-3.582,8-8H8C8,52.418,11.581,56,16,56z"/>
	</g>
</g>
<g>
</g>
<g>
</g>
<g>
</g>
<g>
</g>
<g>
</g>
<g>
</g>
<g>
</g>
<g>
</g>
<g>
</g>
<g>
</g>
<g>
</g>
<g>
</g>
<g>
</g>
<g>
</g>
<g>
</g>
</svg>
