<?xml version="1.0" encoding="iso-8859-1"?>
<!-- Generator: Adobe Illustrator 16.0.0, SVG Export Plug-In . SVG Version: 6.00 Build 0)  -->
<!DOCTYPE svg PUBLIC "-//W3C//DTD SVG 1.1//EN" "http://www.w3.org/Graphics/SVG/1.1/DTD/svg11.dtd">
<svg version="1.1" id="Layer_1" xmlns="http://www.w3.org/2000/svg" xmlns:xlink="http://www.w3.org/1999/xlink" x="0px" y="0px"
	 width="76px" height="71.985px" viewBox="0 0 76 71.985" style="enable-background:new 0 0 76 71.985;" xml:space="preserve">
<g id="Shape">
	<g>
		<path style="fill-rule:evenodd;clip-rule:evenodd;fill:#FFCC66;" d="M69.575,58.228l0.025-0.04L41.8,2.799h-0.003
			C41.284,1.181,39.788,0,38,0c-1.789,0-3.284,1.181-3.796,2.799h-0.004l-27.8,55.389l0.025,0.041C6.162,58.762,6,59.354,6,59.988
			c0,2.208,1.791,3.998,4,3.998h56c2.209,0,4-1.79,4-3.998C70,59.354,69.838,58.761,69.575,58.228z"/>
	</g>
</g>
<g id="Wave">
	<g>
		<path style="fill-rule:evenodd;clip-rule:evenodd;fill:#48A0DC;" d="M69.575,58.228l0.025-0.04l-3.889-7.747
			c-1.671,0.28-3.568,0.769-5.711,1.549c-21.124,7.692-32.085-8.285-22-11.998c10.085-3.712,12,5.999,12,5.999
			s8.229-13.997-12-13.997c-9.987,0-17.421,3.899-22.393,7.848L6.399,58.188l0.025,0.041C6.162,58.762,6,59.354,6,59.988
			c0,2.208,1.791,3.998,4,3.998h56c2.209,0,4-1.79,4-3.998C70,59.354,69.838,58.761,69.575,58.228z"/>
	</g>
</g>
<g>
</g>
<g>
</g>
<g>
</g>
<g>
</g>
<g>
</g>
<g>
</g>
<g>
</g>
<g>
</g>
<g>
</g>
<g>
</g>
<g>
</g>
<g>
</g>
<g>
</g>
<g>
</g>
<g>
</g>
</svg>
