<?xml version="1.0" encoding="iso-8859-1"?>
<!-- Generator: Adobe Illustrator 16.0.0, SVG Export Plug-In . SVG Version: 6.00 Build 0)  -->
<!DOCTYPE svg PUBLIC "-//W3C//DTD SVG 1.1//EN" "http://www.w3.org/Graphics/SVG/1.1/DTD/svg11.dtd">
<svg version="1.1" id="Layer_1" xmlns="http://www.w3.org/2000/svg" xmlns:xlink="http://www.w3.org/1999/xlink" x="0px" y="0px"
	 width="56px" height="28.01px" viewBox="0 0 56 28.01" style="enable-background:new 0 0 56 28.01;" xml:space="preserve">
<g id="Water_4_">
	<g>
		<path style="fill:#54BBFF;" d="M52,0c-6,0-6,4.001-8,4.001S42,0,36,0s-6,4.001-8,4.001C25.875,4.001,26,0,20,0s-6,4.001-8,4.001
			S10,0,4,0C2,0,0,2.001,0,4.001s2,4,4,4s2,4,8,4s6-4,8-4s2,4.009,8,4.009s6-4.009,8-4.009s2,4,8,4s6-4,8-4s4-2,4-4S54,0,52,0z"/>
	</g>
</g>
<g id="Water_5_">
	<g>
		<path style="fill:#54BBFF;" d="M52,16c-6,0-6,4.001-8,4.001S42,16,36,16s-6,4.001-8,4.001c-2.125,0-2-4.001-8-4.001
			s-6,4.001-8,4.001S10,16,4,16c-2,0-4,2.001-4,4.001s2,4,4,4s2,4,8,4s6-4,8-4s2,4.009,8,4.009s6-4.009,8-4.009s2,4,8,4s6-4,8-4
			s4-2,4-4S54,16,52,16z"/>
	</g>
</g>
<g>
</g>
<g>
</g>
<g>
</g>
<g>
</g>
<g>
</g>
<g>
</g>
<g>
</g>
<g>
</g>
<g>
</g>
<g>
</g>
<g>
</g>
<g>
</g>
<g>
</g>
<g>
</g>
<g>
</g>
</svg>
