<?xml version="1.0" encoding="iso-8859-1"?>
<!-- Generator: Adobe Illustrator 16.0.0, SVG Export Plug-In . SVG Version: 6.00 Build 0)  -->
<!DOCTYPE svg PUBLIC "-//W3C//DTD SVG 1.1//EN" "http://www.w3.org/Graphics/SVG/1.1/DTD/svg11.dtd">
<svg version="1.1" id="Layer_1" xmlns="http://www.w3.org/2000/svg" xmlns:xlink="http://www.w3.org/1999/xlink" x="0px" y="0px"
	 width="36px" height="64px" viewBox="0 0 36 64" style="enable-background:new 0 0 36 64;" xml:space="preserve">
<g id="Rope">
	<g>
		<path style="fill:#CCCCCC;" d="M18,44c-1.104,0-2,0.896-2,2v16c0,1.104,0.896,2,2,2s2-0.896,2-2V46C20,44.896,19.104,44,18,44z"/>
	</g>
</g>
<g id="Box">
	<g>
		<path style="fill:#666666;" d="M22,56h-8c-1.104,0-2,0.896-2,2v4c0,1.104,0.896,2,2,2h8c1.104,0,2-0.896,2-2v-4
			C24,56.896,23.104,56,22,56z"/>
	</g>
</g>
<g id="Ballon">
	<g>
		<path style="fill:#88C057;" d="M18,0C5.85,0,0,9.85,0,22s18.022,26,18,26c-0.058,0,18-13.85,18-26S30.15,0,18,0z"/>
	</g>
</g>
<g>
</g>
<g>
</g>
<g>
</g>
<g>
</g>
<g>
</g>
<g>
</g>
<g>
</g>
<g>
</g>
<g>
</g>
<g>
</g>
<g>
</g>
<g>
</g>
<g>
</g>
<g>
</g>
<g>
</g>
</svg>
