<?xml version="1.0" encoding="iso-8859-1"?>
<!-- Generator: Adobe Illustrator 16.0.0, SVG Export Plug-In . SVG Version: 6.00 Build 0)  -->
<!DOCTYPE svg PUBLIC "-//W3C//DTD SVG 1.1//EN" "http://www.w3.org/Graphics/SVG/1.1/DTD/svg11.dtd">
<svg version="1.1" id="Layer_1" xmlns="http://www.w3.org/2000/svg" xmlns:xlink="http://www.w3.org/1999/xlink" x="0px" y="0px"
	 width="64.015px" height="64.003px" viewBox="0 0 64.015 64.003" style="enable-background:new 0 0 64.015 64.003;"
	 xml:space="preserve">
<g id="Wind_16_">
	<g>
		<path style="fill-rule:evenodd;clip-rule:evenodd;fill:#54BBFF;" d="M47.256,9.592c-12.72-12.789-33.344-12.789-46.063,0
			c-1.59,1.6-1.59,4.191,0,5.79s4.168,1.599,5.758,0c9.54-9.593,25.008-9.593,34.548,0c3.18,3.198,3.18,8.382,0,11.579
			c-1.59,1.6-1.59,4.191,0,5.79s4.168,1.599,5.758,0C53.615,26.356,53.615,15.987,47.256,9.592z"/>
	</g>
</g>
<g id="Wind_17_">
	<g>
		<path style="fill-rule:evenodd;clip-rule:evenodd;fill:#48A0DC;" d="M32.008,13.987c-17.665,0-31.984,14.313-31.984,31.97
			c0,2.207,1.79,3.995,3.998,3.995s3.998-1.788,3.998-3.995c0-13.242,10.739-23.977,23.988-23.977c4.416,0,7.996,3.578,7.996,7.991
			c0,2.208,1.79,3.997,3.998,3.997S48,32.18,48,29.972C48,21.145,40.84,13.987,32.008,13.987z"/>
	</g>
</g>
<g id="Wind_18_">
	<g>
		<path style="fill-rule:evenodd;clip-rule:evenodd;fill:#54BBFF;" d="M62.824,48.602c-1.588-1.601-4.163-1.601-5.751,0
			c-9.528,9.604-24.978,9.604-34.506,0c-3.177-3.201-3.177-8.392,0-11.594c1.588-1.601,1.588-4.196,0-5.797
			c-1.589-1.601-4.163-1.601-5.751,0c-6.353,6.403-6.353,16.784,0,23.188c12.704,12.807,33.303,12.807,46.008,0
			C64.412,52.798,64.412,50.202,62.824,48.602z"/>
	</g>
</g>
<g id="Wind_19_">
	<g>
		<path style="fill-rule:evenodd;clip-rule:evenodd;fill:#48A0DC;" d="M59.999,13.987c-2.206,0-3.993,1.792-3.993,4.002
			c0,13.258-10.728,24.006-23.96,24.006c-4.411,0-7.986-3.582-7.986-8.002c0-2.21-1.788-4.001-3.993-4.001s-3.993,1.791-3.993,4.001
			c0,8.839,7.151,16.005,15.973,16.005c17.644,0,31.946-14.331,31.946-32.009C63.992,15.779,62.204,13.987,59.999,13.987z"/>
	</g>
</g>
<g>
</g>
<g>
</g>
<g>
</g>
<g>
</g>
<g>
</g>
<g>
</g>
<g>
</g>
<g>
</g>
<g>
</g>
<g>
</g>
<g>
</g>
<g>
</g>
<g>
</g>
<g>
</g>
<g>
</g>
</svg>
