<?xml version="1.0" encoding="iso-8859-1"?>
<!-- Generator: Adobe Illustrator 16.0.0, SVG Export Plug-In . SVG Version: 6.00 Build 0)  -->
<!DOCTYPE svg PUBLIC "-//W3C//DTD SVG 1.1//EN" "http://www.w3.org/Graphics/SVG/1.1/DTD/svg11.dtd">
<svg version="1.1" id="Layer_1" xmlns="http://www.w3.org/2000/svg" xmlns:xlink="http://www.w3.org/1999/xlink" x="0px" y="0px"
	 width="63.986px" height="63.985px" viewBox="0 0 63.986 63.985" style="enable-background:new 0 0 63.986 63.985;"
	 xml:space="preserve">
<g id="Wind_Palette">
	<g>
		<path style="fill:#FFCC66;" d="M32.056,0c-3.931,0.004-4.045,0.107-4.049,4.035c-0.004,3.926,0.087,27.961,4.018,27.957
			s7.137-20.964,7.141-24.891C39.169,3.176,35.986-0.004,32.056,0z"/>
	</g>
</g>
<g id="Wind_Palette_6_">
	<g>
		<path style="fill:#FFCC66;" d="M32.024,31.992c-3.931,0.004-7.137,20.965-7.141,24.891c-0.004,3.927,3.179,7.107,7.109,7.103
			c3.931-0.003,4.01-0.079,4.014-4.005C36.011,56.054,35.955,31.988,32.024,31.992z"/>
	</g>
</g>
<g id="Wind_Palette_2_">
	<g>
		<path style="fill:#FFCC66;" d="M7.123,24.034C3.193,24.039,0.004,27.476,0,31.711s0.076,4.297,4.007,4.293
			c3.93-0.005,28.014-0.092,28.018-4.327S11.054,24.03,7.123,24.034z"/>
	</g>
</g>
<g id="Wind_Palettev">
	<g>
		<path style="fill:#FFCC66;" d="M60.007,28.011c-3.923,0.005-27.979,0.06-27.982,4.319s20.93,7.689,24.853,7.686
			s7.105-3.461,7.109-7.72S63.93,28.007,60.007,28.011z"/>
	</g>
</g>
<g id="Elipse">
	<g>
		<ellipse style="fill:#9B7CAB;" cx="32.007" cy="32.007" rx="6" ry="5.994"/>
	</g>
</g>
<g>
</g>
<g>
</g>
<g>
</g>
<g>
</g>
<g>
</g>
<g>
</g>
<g>
</g>
<g>
</g>
<g>
</g>
<g>
</g>
<g>
</g>
<g>
</g>
<g>
</g>
<g>
</g>
<g>
</g>
</svg>
