<?xml version="1.0" encoding="iso-8859-1"?>
<!-- Generator: Adobe Illustrator 16.0.0, SVG Export Plug-In . SVG Version: 6.00 Build 0)  -->
<!DOCTYPE svg PUBLIC "-//W3C//DTD SVG 1.1//EN" "http://www.w3.org/Graphics/SVG/1.1/DTD/svg11.dtd">
<svg version="1.1" id="Layer_1" xmlns="http://www.w3.org/2000/svg" xmlns:xlink="http://www.w3.org/1999/xlink" x="0px" y="0px"
	 width="64px" height="58px" viewBox="0 0 64 58" style="enable-background:new 0 0 64 58;" xml:space="preserve">
<g id="Wind_22_">
	<g>
		<path style="fill-rule:evenodd;clip-rule:evenodd;fill:#72C1F7;" d="M52.728,40H20.061C18.923,40,18,40.896,18,42
			s0.923,1.999,2.061,1.999h23.394h1.564h7.709c2.845,0,5.151,2.239,5.151,5c0,2.763-2.307,5.001-5.151,5.001
			c-2.846,0-5.152-2.238-5.152-5.001c0-1.104-0.922-1.999-2.061-1.999c-1.138,0-2.061,0.895-2.061,1.999
			c0,4.971,4.151,9.001,9.273,9.001C57.849,58,62,53.97,62,48.999C62,44.029,57.849,40,52.728,40z"/>
	</g>
</g>
<g id="Wind_23_">
	<g>
		<path style="fill-rule:evenodd;clip-rule:evenodd;fill:#48A0DC;" d="M46,0c-9.941,0-18,8.059-18,18c0,2.209,1.791,4,4,4
			s4-1.791,4-4c0-5.523,4.478-10,10-10s10,4.477,10,10c0,5.522-4.478,10-10,10H31.035H28H4c-2.209,0-4,1.79-4,4c0,2.209,1.791,4,4,4
			h42c9.941,0,18-8.059,18-18S55.941,0,46,0z"/>
	</g>
</g>
<g id="Wind_24_">
	<g>
		<path style="fill:#72C1F7;" d="M20,20H8c-1.104,0-2,0.896-2,2s0.896,2,2,2h12c1.104,0,2-0.896,2-2S21.104,20,20,20z"/>
	</g>
</g>
<g>
</g>
<g>
</g>
<g>
</g>
<g>
</g>
<g>
</g>
<g>
</g>
<g>
</g>
<g>
</g>
<g>
</g>
<g>
</g>
<g>
</g>
<g>
</g>
<g>
</g>
<g>
</g>
<g>
</g>
</svg>
