<?xml version="1.0" encoding="iso-8859-1"?>
<!-- Generator: Adobe Illustrator 16.0.0, SVG Export Plug-In . SVG Version: 6.00 Build 0)  -->
<!DOCTYPE svg PUBLIC "-//W3C//DTD SVG 1.1//EN" "http://www.w3.org/Graphics/SVG/1.1/DTD/svg11.dtd">
<svg version="1.1" id="Layer_1" xmlns="http://www.w3.org/2000/svg" xmlns:xlink="http://www.w3.org/1999/xlink" x="0px" y="0px"
	 width="52px" height="63.954px" viewBox="0 0 52 63.954" style="enable-background:new 0 0 52 63.954;" xml:space="preserve">
<g id="Container_1_">
	<g>
		<path style="fill-rule:evenodd;clip-rule:evenodd;fill:#88C057;" d="M43.19,18.589l0.01-0.006L26,0L8.8,18.583l0.01,0.006
			C3.41,23.34,0,30.286,0,38.03c0,14.317,11.641,25.924,26,25.924S52,52.348,52,38.03C52,30.286,48.59,23.34,43.19,18.589z
			 M26,59.966c-12.15,0-22-9.82-22-21.936c0-12.114,9.85-21.936,22-21.936s22,9.821,22,21.936C48,50.146,38.15,59.966,26,59.966z"/>
	</g>
</g>
<g id="Wind_Palette_3_">
	<g>
		<path style="fill:#999999;" d="M38.728,25.34c-1.562-1.558-4.095-1.558-5.656,0C31.509,26.897,24.438,36.473,26,38.03
			s11.166-5.493,12.728-7.05C40.29,29.423,40.29,26.897,38.728,25.34z"/>
	</g>
</g>
<g id="Wind_Palette_4_">
	<g>
		<path style="fill:#999999;" d="M26,38.03c-1.563-1.558-11.166,5.493-12.729,7.051c-1.562,1.558-1.562,4.083,0,5.64
			c1.563,1.558,4.096,1.558,5.657,0C20.491,49.164,27.563,39.588,26,38.03z"/>
	</g>
</g>
<g id="Wind_Palette_5_">
	<g>
		<path style="fill:#B3B3B3;" d="M18.929,25.34c-1.562-1.558-4.095-1.558-5.657,0c-1.562,1.558-1.562,4.083,0,5.641
			c1.563,1.557,11.166,8.607,12.729,7.05S20.491,26.897,18.929,25.34z"/>
	</g>
</g>
<g id="Wind_Palettev_1_">
	<g>
		<path style="fill:#B3B3B3;" d="M38.728,45.081C37.166,43.523,27.563,36.473,26,38.03s5.509,11.134,7.071,12.69
			c1.562,1.558,4.095,1.558,5.656,0C40.29,49.164,40.29,46.639,38.728,45.081z"/>
	</g>
</g>
<g>
</g>
<g>
</g>
<g>
</g>
<g>
</g>
<g>
</g>
<g>
</g>
<g>
</g>
<g>
</g>
<g>
</g>
<g>
</g>
<g>
</g>
<g>
</g>
<g>
</g>
<g>
</g>
<g>
</g>
</svg>
