<?xml version="1.0" encoding="iso-8859-1"?>
<!-- Generator: Adobe Illustrator 16.0.0, SVG Export Plug-In . SVG Version: 6.00 Build 0)  -->
<!DOCTYPE svg PUBLIC "-//W3C//DTD SVG 1.1//EN" "http://www.w3.org/Graphics/SVG/1.1/DTD/svg11.dtd">
<svg version="1.1" id="Layer_1" xmlns="http://www.w3.org/2000/svg" xmlns:xlink="http://www.w3.org/1999/xlink" x="0px" y="0px"
	 width="64.022px" height="59.998px" viewBox="0 0 64.022 59.998" style="enable-background:new 0 0 64.022 59.998;"
	 xml:space="preserve">
<g id="Arrow">
	<g>
		<path style="fill-rule:evenodd;clip-rule:evenodd;fill:#B3B3B3;" d="M61.97,51.989l1.999-4h-3.998l-1.999,4h-3.998l1.999-4h-3.998
			l-2.665,4H11.994v-2.167c0-4.992-9.995,2.099-9.995,2.099C0.853,52.793,0,53.386,0,54.02c0,0.372,0.603,1.089,1.999,2.1
			c0,0,9.995,7.09,9.995,2.099v-2.229H49.31l2.665,4h3.998l-1.999-4h3.998l1.999,4h3.998l-1.999-4V51.989z"/>
	</g>
</g>
<g id="Rooster">
	<g>
		<path style="fill-rule:evenodd;clip-rule:evenodd;fill:#4D4D4D;" d="M17.427,0.385c0.033,0,0.062,0.01,0.094,0.012
			C17.685,0.207,17.695,0.15,17.427,0.385z M51.295,10.007c-7.098-0.001-8.291,11.99-19.537,11.99c-4.753,0-5.167-10.648-9.713-14.3
			c-1.436-1.153-3.369-1.547-5.003-3.079c2.772-0.373,2.436-4.09,0.479-4.222C16.903,1.108,14.088,3.719,15.502,0
			c-1.724,1.896-1.813,0.942-3.079,2.693c-0.922,0.153,0.214-1.753-1.154-1.154c-1.478,2.78-1.345,5.163-1.154,8.082
			c0.662,0.152,1.691-0.195,1.859,0.376c-1.311,1.46-0.176,2.671,0.064,3.857c-5.421,17.62,8.84,23.15,17.741,30.143
			c-0.009,2.428,0.275,4.68-0.807,6.034c-1.608,0.199-6.88,1.664-7.107,1.966c-1.093,0-1.979,0.896-1.979,2s0.886,2,1.979,2h9.893
			c1.093,0,1.979-0.896,1.979-2s-0.886-2-1.979-2c-0.544-0.243,2.329-7.255,1.979-10c7.013,0,7.913-6,7.913-6
			s7.194-0.116,11.955-7.133c5.154-1.71,7.829-9.468,7.829-0.867C61.436,29.917,71.714,10.007,51.295,10.007z"/>
	</g>
</g>
<g>
</g>
<g>
</g>
<g>
</g>
<g>
</g>
<g>
</g>
<g>
</g>
<g>
</g>
<g>
</g>
<g>
</g>
<g>
</g>
<g>
</g>
<g>
</g>
<g>
</g>
<g>
</g>
<g>
</g>
</svg>
