<?xml version="1.0" encoding="iso-8859-1"?>
<!-- Generator: Adobe Illustrator 16.0.0, SVG Export Plug-In . SVG Version: 6.00 Build 0)  -->
<!DOCTYPE svg PUBLIC "-//W3C//DTD SVG 1.1//EN" "http://www.w3.org/Graphics/SVG/1.1/DTD/svg11.dtd">
<svg version="1.1" id="Layer_1" xmlns="http://www.w3.org/2000/svg" xmlns:xlink="http://www.w3.org/1999/xlink" x="0px" y="0px"
	 width="64px" height="64px" viewBox="0 0 64 64" style="enable-background:new 0 0 64 64;" xml:space="preserve">
<g id="Wind_20_">
	<g>
		<path style="fill-rule:evenodd;clip-rule:evenodd;fill:#54BBFF;" d="M52,12c-2.209,0-4,1.79-4,4c0,2.209,1.791,4,4,4s4,1.79,4,4
			c0,2.209-1.791,4-4,4h-4h-7.302H20c-2.209,0-4,1.791-4,4s1.791,4,4,4h32c6.627,0,12-5.373,12-12C64,17.372,58.627,12,52,12z"/>
	</g>
</g>
<g id="Wind_21_">
	<g>
		<path style="fill-rule:evenodd;clip-rule:evenodd;fill:#48A0DC;" d="M32.446,40.022C32.292,40.008,32.143,40,32,40h-2.158H18h-2
			c-4.419,0-8-3.582-8-8c0-4.419,3.581-8,8-8h2h11.842H32c0.143,0,0.292-0.008,0.446-0.022C38.864,23.741,44,18.477,44,12
			c0-6.352-4.95-11.497-11.194-11.919C32.546,0.027,32.276,0,32,0c-2.209,0-4,1.791-4,4s1.791,4,4,4s4,1.791,4,4s-1.791,4-4,4
			H20.734H18c-0.218,0-0.428,0.03-0.637,0.064C16.913,16.026,16.46,16,16,16C7.163,16,0,23.163,0,32c0,8.836,7.163,16,16,16h4.734
			H32c2.209,0,4,1.79,4,4c0,2.209-1.791,4-4,4s-4,1.791-4,4s1.791,4,4,4c0.276,0,0.546-0.028,0.806-0.082
			C39.05,63.496,44,58.351,44,52C44,45.522,38.864,40.259,32.446,40.022z"/>
	</g>
</g>
<g>
</g>
<g>
</g>
<g>
</g>
<g>
</g>
<g>
</g>
<g>
</g>
<g>
</g>
<g>
</g>
<g>
</g>
<g>
</g>
<g>
</g>
<g>
</g>
<g>
</g>
<g>
</g>
<g>
</g>
</svg>
