<?xml version="1.0" encoding="utf-8"?>
<!-- Generator: Adobe Illustrator 18.0.0, SVG Export Plug-In . SVG Version: 6.00 Build 0)  -->
<!DOCTYPE svg PUBLIC "-//W3C//DTD SVG 1.1//EN" "http://www.w3.org/Graphics/SVG/1.1/DTD/svg11.dtd">
<svg version="1.1" xmlns="http://www.w3.org/2000/svg" xmlns:xlink="http://www.w3.org/1999/xlink" x="0px" y="0px"
	 viewBox="0 0 40 40" enable-background="new 0 0 40 40" xml:space="preserve">
<g id="Controls">
	<g id="D71_4_">
	</g>
	<g id="D61_4_">
	</g>
	<g id="D51_4_">
	</g>
	<g id="Dolby">
	</g>
	<g id="Stereo_4_">
	</g>
	<g id="CC_4_">
	</g>
	<g id="HD_4_">
	</g>
	<g id="SD_4_">
	</g>
	<g id="Pause_Fill">
	</g>
	<g id="Play_Fill">
	</g>
	<g id="Arrow_Left_Fill_3_">
	</g>
	<g id="Arrow_Right_Fill_3_">
	</g>
	<g id="Arrow_Down_Fill_3_">
	</g>
	<g id="Arrow_Up_Fill_3_">
	</g>
	<g id="Urgent_Fill">
	</g>
	<g id="Info_Fill_4_">
	</g>
	<g id="Help_Fill_3_">
	</g>
	<g id="OK_Fill_3_">
	</g>
	<g id="Remove_Fill_3_">
	</g>
	<g id="Minus_Fill_3_">
	</g>
	<g id="Plus_Fill_3_">
	</g>
	<g id="Pause_Stroke">
	</g>
	<g id="Play_Stroke">
	</g>
	<g id="Arrow_Left_Stroke_3_">
	</g>
	<g id="Arrow_Right_Stroke_3_">
	</g>
	<g id="Arrow_Down_Stroke_3_">
	</g>
	<g id="Arrow_Up_Stroke_3_">
	</g>
	<g id="Urgent_Stroke">
	</g>
	<g id="Info_Stroke_3_">
	</g>
	<g id="Help_Stroke_3_">
	</g>
	<g id="OK_Stroke_3_">
	</g>
	<g id="Remove_Stroke_3_">
	</g>
	<g id="Minus_Stroke_3_">
	</g>
	<g id="Plus_Stroke_3_">
	</g>
	<g id="Chevron_Light_Down_2_">
	</g>
	<g id="Chevron_Light_Up_2_">
	</g>
	<g id="Chevron_Heavy_Down_1_">
	</g>
	<g id="Chevron_Heavy_Up_3_">
	</g>
	<g id="Chevron_Light_Right_2_">
	</g>
	<g id="Chevron_Light_Left_2_">
	</g>
	<g id="Chevron_Heavy_Right_2_">
	</g>
	<g id="Chevron_Heavy_Left_2_">
	</g>
	<g id="Random_2_">
	</g>
	<g id="Rotation_Lock_4_">
	</g>
	<g id="Replay_1_">
	</g>
	<g id="Rotation_3_">
	</g>
	<g id="Refresh_2_">
	</g>
	<g id="Power_3_">
	</g>
	<g id="Transfer_4_">
	</g>
	<g id="Retweet_2_">
	</g>
	<g id="Loop_2_">
	</g>
	<g id="Delete_3_">
	</g>
	<g id="Brighten_3_">
	</g>
	<g id="Dim_3_">
	</g>
	<g id="Screen_Fit_4_">
	</g>
	<g id="Screen_Fill_3_">
	</g>
	<g id="Arrow_Down_2_">
	</g>
	<g id="Arrow_Up_2_">
	</g>
	<g id="Arrow_Right_2_">
	</g>
	<g id="Arrow_Left_2_">
	</g>
	<g id="Bell_3_">
		<g>
			<g id="Bell">
				<g>
					<path fill-rule="evenodd" clip-rule="evenodd" fill="#1ABC9C" d="M30.5,27.3c-0.6-1.3-1.1-2.4-1.5-3.5c0,0-1-3.3-3.4-11
						c-0.9-1.3-2-2.6-3.7-2.6h-0.1V9.4c0-1-0.8-1.9-1.8-1.9c-1,0-1.8,0.8-1.8,1.9v0.9H18c-1.7,0-2.8,1.3-3.7,2.6
						c-2.3,7.8-3.4,11-3.4,11c-0.4,1.1-0.9,2.2-1.5,3.5C9.2,27.6,9,28,9,28.5c0,2.8,6.9,4,11,4c4.1,0,11-1.3,11-4
						C31,28,30.8,27.7,30.5,27.3z"/>
				</g>
			</g>
			<g id="Bell_1_">
				<g>
					<path fill-rule="evenodd" clip-rule="evenodd" fill="#16A085" d="M22.7,25.3c-0.1,1.4-1.3,2.6-2.7,2.6c-1.5,0-2.6-1.1-2.7-2.6
						c-2.4,0.3-4.9,1-6,2.4c1.6,1.9,5.7,2.4,8.7,2.4c3.1,0,7.2-0.4,8.7-2.4C27.6,26.3,25.2,25.6,22.7,25.3z"/>
				</g>
			</g>
		</g>
	</g>
	<g id="Bell_Mute_4_">
	</g>
	<g id="Playlist_3_">
	</g>
	<g id="Octave_2_">
	</g>
	<g id="Quaver_2_">
	</g>
	<g id="Earbuds_4_">
	</g>
	<g id="Mute_Mic_1_">
	</g>
	<g id="Mic_4_">
	</g>
	<g id="Volume_Up">
	</g>
	<g id="Volume_Down">
	</g>
	<g id="Volume_Mute_4_">
	</g>
	<g id="Volume_3_">
	</g>
	<g id="Maximize">
	</g>
	<g id="Fullscreen_Enter_2_">
	</g>
	<g id="Fullscreen_Exit_2_">
	</g>
	<g id="Eject_2_">
	</g>
	<g id="Step_Forward_2_">
	</g>
	<g id="Fast-forward_1_">
	</g>
	<g id="Forward_2_">
	</g>
	<g id="Stop_2_">
	</g>
	<g id="Pause_2_">
	</g>
	<g id="Play_2_">
	</g>
	<g id="Rewind_2_">
	</g>
	<g id="Fast-backward">
	</g>
	<g id="Step_Backward_2_">
	</g>
	<g id="Record_2_">
	</g>
</g>
<g id="Lockup">
</g>
</svg>
