<?xml version="1.0" encoding="utf-8"?>
<!-- Generator: Adobe Illustrator 18.0.0, SVG Export Plug-In . SVG Version: 6.00 Build 0)  -->
<!DOCTYPE svg PUBLIC "-//W3C//DTD SVG 1.1//EN" "http://www.w3.org/Graphics/SVG/1.1/DTD/svg11.dtd">
<svg version="1.1" xmlns="http://www.w3.org/2000/svg" xmlns:xlink="http://www.w3.org/1999/xlink" x="0px" y="0px"
	 viewBox="0 0 40 40" enable-background="new 0 0 40 40" xml:space="preserve">
<g id="Controls">
	<g id="D71_4_">
	</g>
	<g id="D61_4_">
	</g>
	<g id="D51_4_">
	</g>
	<g id="Dolby">
	</g>
	<g id="Stereo_4_">
	</g>
	<g id="CC_4_">
		<g>
			<g id="CC">
				<g>
					<path fill-rule="evenodd" clip-rule="evenodd" fill="#1ABC9C" d="M31.5,10h-23C7.7,10,7,10.7,7,11.5v17C7,29.3,7.7,30,8.5,30
						h23c0.8,0,1.5-0.7,1.5-1.5v-17C33,10.7,32.3,10,31.5,10z"/>
				</g>
			</g>
			<g id="CC_2_">
				<g>
					<path fill-rule="evenodd" clip-rule="evenodd" fill="#ECF0F1" d="M17.4,21c-0.1,0.4-0.2,0.8-0.4,1c-0.2,0.2-0.5,0.4-0.9,0.4
						c-0.3,0-0.6-0.1-0.8-0.2c-0.2-0.1-0.4-0.3-0.5-0.5c-0.1-0.2-0.2-0.4-0.3-0.7c-0.1-0.3-0.1-0.5-0.1-0.8c0-0.3,0-0.6,0.1-0.9
						c0.1-0.3,0.2-0.5,0.3-0.7c0.1-0.2,0.3-0.4,0.5-0.5c0.3-0.2,0.8-0.2,1.2-0.1c0.1,0.1,0.3,0.1,0.4,0.2c0.1,0.1,0.2,0.2,0.3,0.3
						c0.1,0.1,0.1,0.3,0.1,0.4l0,0.2h2l0-0.3c-0.1-0.4-0.2-0.8-0.4-1.2c-0.2-0.3-0.4-0.6-0.7-0.9c-0.3-0.2-0.6-0.4-1-0.5
						c-0.9-0.3-2-0.2-2.8,0.1c-0.5,0.2-0.9,0.5-1.2,0.9c-0.3,0.4-0.6,0.8-0.7,1.3c-0.2,0.5-0.3,1-0.3,1.6c0,0.5,0.1,1.1,0.3,1.5
						c0.2,0.5,0.4,0.9,0.7,1.3c0.3,0.4,0.7,0.6,1.2,0.8c0.5,0.2,1,0.3,1.6,0.3c0.5,0,0.9-0.1,1.3-0.2c0.4-0.1,0.7-0.4,1-0.6
						c0.3-0.3,0.5-0.6,0.7-1c0.2-0.4,0.3-0.8,0.3-1.3l0-0.3h-2L17.4,21z M25.8,20.8l0,0.2c-0.1,0.4-0.2,0.8-0.4,1
						c-0.2,0.2-0.5,0.4-0.9,0.4c-0.3,0-0.6-0.1-0.8-0.2c-0.2-0.1-0.4-0.3-0.5-0.5c-0.1-0.2-0.2-0.4-0.3-0.7
						c-0.1-0.3-0.1-0.5-0.1-0.8c0-0.3,0-0.6,0.1-0.9c0.1-0.3,0.2-0.5,0.3-0.7c0.1-0.2,0.3-0.4,0.5-0.5c0.3-0.2,0.8-0.2,1.2-0.1
						c0.1,0.1,0.3,0.1,0.4,0.2c0.1,0.1,0.2,0.2,0.3,0.3c0.1,0.1,0.1,0.3,0.1,0.4l0,0.2h2l0-0.3c-0.1-0.4-0.2-0.8-0.4-1.2
						c-0.2-0.3-0.4-0.6-0.7-0.9c-0.3-0.2-0.6-0.4-1-0.5c-0.9-0.3-2-0.2-2.8,0.1c-0.5,0.2-0.9,0.5-1.2,0.9c-0.3,0.4-0.6,0.8-0.7,1.3
						c-0.2,0.5-0.3,1-0.3,1.6c0,0.5,0.1,1.1,0.3,1.5c0.2,0.5,0.4,0.9,0.7,1.3c0.3,0.4,0.7,0.6,1.2,0.8c0.5,0.2,1,0.3,1.6,0.3
						c0.5,0,0.9-0.1,1.3-0.2c0.4-0.1,0.7-0.4,1-0.6c0.3-0.3,0.5-0.6,0.7-1c0.2-0.4,0.3-0.8,0.3-1.3l0-0.3H25.8z"/>
				</g>
			</g>
		</g>
	</g>
	<g id="HD_4_">
	</g>
	<g id="SD_4_">
	</g>
	<g id="Pause_Fill">
	</g>
	<g id="Play_Fill">
	</g>
	<g id="Arrow_Left_Fill_3_">
	</g>
	<g id="Arrow_Right_Fill_3_">
	</g>
	<g id="Arrow_Down_Fill_3_">
	</g>
	<g id="Arrow_Up_Fill_3_">
	</g>
	<g id="Urgent_Fill">
	</g>
	<g id="Info_Fill_4_">
	</g>
	<g id="Help_Fill_3_">
	</g>
	<g id="OK_Fill_3_">
	</g>
	<g id="Remove_Fill_3_">
	</g>
	<g id="Minus_Fill_3_">
	</g>
	<g id="Plus_Fill_3_">
	</g>
	<g id="Pause_Stroke">
	</g>
	<g id="Play_Stroke">
	</g>
	<g id="Arrow_Left_Stroke_3_">
	</g>
	<g id="Arrow_Right_Stroke_3_">
	</g>
	<g id="Arrow_Down_Stroke_3_">
	</g>
	<g id="Arrow_Up_Stroke_3_">
	</g>
	<g id="Urgent_Stroke">
	</g>
	<g id="Info_Stroke_3_">
	</g>
	<g id="Help_Stroke_3_">
	</g>
	<g id="OK_Stroke_3_">
	</g>
	<g id="Remove_Stroke_3_">
	</g>
	<g id="Minus_Stroke_3_">
	</g>
	<g id="Plus_Stroke_3_">
	</g>
	<g id="Chevron_Light_Down_2_">
	</g>
	<g id="Chevron_Light_Up_2_">
	</g>
	<g id="Chevron_Heavy_Down_1_">
	</g>
	<g id="Chevron_Heavy_Up_3_">
	</g>
	<g id="Chevron_Light_Right_2_">
	</g>
	<g id="Chevron_Light_Left_2_">
	</g>
	<g id="Chevron_Heavy_Right_2_">
	</g>
	<g id="Chevron_Heavy_Left_2_">
	</g>
	<g id="Random_2_">
	</g>
	<g id="Rotation_Lock_4_">
	</g>
	<g id="Replay_1_">
	</g>
	<g id="Rotation_3_">
	</g>
	<g id="Refresh_2_">
	</g>
	<g id="Power_3_">
	</g>
	<g id="Transfer_4_">
	</g>
	<g id="Retweet_2_">
	</g>
	<g id="Loop_2_">
	</g>
	<g id="Delete_3_">
	</g>
	<g id="Brighten_3_">
	</g>
	<g id="Dim_3_">
	</g>
	<g id="Screen_Fit_4_">
	</g>
	<g id="Screen_Fill_3_">
	</g>
	<g id="Arrow_Down_2_">
	</g>
	<g id="Arrow_Up_2_">
	</g>
	<g id="Arrow_Right_2_">
	</g>
	<g id="Arrow_Left_2_">
	</g>
	<g id="Bell_3_">
	</g>
	<g id="Bell_Mute_4_">
	</g>
	<g id="Playlist_3_">
	</g>
	<g id="Octave_2_">
	</g>
	<g id="Quaver_2_">
	</g>
	<g id="Earbuds_4_">
	</g>
	<g id="Mute_Mic_1_">
	</g>
	<g id="Mic_4_">
	</g>
	<g id="Volume_Up">
	</g>
	<g id="Volume_Down">
	</g>
	<g id="Volume_Mute_4_">
	</g>
	<g id="Volume_3_">
	</g>
	<g id="Maximize">
	</g>
	<g id="Fullscreen_Enter_2_">
	</g>
	<g id="Fullscreen_Exit_2_">
	</g>
	<g id="Eject_2_">
	</g>
	<g id="Step_Forward_2_">
	</g>
	<g id="Fast-forward_1_">
	</g>
	<g id="Forward_2_">
	</g>
	<g id="Stop_2_">
	</g>
	<g id="Pause_2_">
	</g>
	<g id="Play_2_">
	</g>
	<g id="Rewind_2_">
	</g>
	<g id="Fast-backward">
	</g>
	<g id="Step_Backward_2_">
	</g>
	<g id="Record_2_">
	</g>
</g>
<g id="Lockup">
</g>
</svg>
