<?xml version="1.0" encoding="utf-8"?>
<!-- Generator: Adobe Illustrator 18.0.0, SVG Export Plug-In . SVG Version: 6.00 Build 0)  -->
<!DOCTYPE svg PUBLIC "-//W3C//DTD SVG 1.1//EN" "http://www.w3.org/Graphics/SVG/1.1/DTD/svg11.dtd">
<svg version="1.1" xmlns="http://www.w3.org/2000/svg" xmlns:xlink="http://www.w3.org/1999/xlink" x="0px" y="0px"
	 viewBox="0 0 40 40" enable-background="new 0 0 40 40" xml:space="preserve">
<g id="Controls">
	<g id="D71_4_">
	</g>
	<g id="D61_4_">
	</g>
	<g id="D51_4_">
	</g>
	<g id="Dolby">
	</g>
	<g id="Stereo_4_">
	</g>
	<g id="CC_4_">
	</g>
	<g id="HD_4_">
	</g>
	<g id="SD_4_">
	</g>
	<g id="Pause_Fill">
	</g>
	<g id="Play_Fill">
	</g>
	<g id="Arrow_Left_Fill_3_">
	</g>
	<g id="Arrow_Right_Fill_3_">
	</g>
	<g id="Arrow_Down_Fill_3_">
	</g>
	<g id="Arrow_Up_Fill_3_">
	</g>
	<g id="Urgent_Fill">
	</g>
	<g id="Info_Fill_4_">
	</g>
	<g id="Help_Fill_3_">
	</g>
	<g id="OK_Fill_3_">
	</g>
	<g id="Remove_Fill_3_">
	</g>
	<g id="Minus_Fill_3_">
	</g>
	<g id="Plus_Fill_3_">
	</g>
	<g id="Pause_Stroke">
	</g>
	<g id="Play_Stroke">
	</g>
	<g id="Arrow_Left_Stroke_3_">
	</g>
	<g id="Arrow_Right_Stroke_3_">
	</g>
	<g id="Arrow_Down_Stroke_3_">
	</g>
	<g id="Arrow_Up_Stroke_3_">
	</g>
	<g id="Urgent_Stroke">
	</g>
	<g id="Info_Stroke_3_">
	</g>
	<g id="Help_Stroke_3_">
	</g>
	<g id="OK_Stroke_3_">
	</g>
	<g id="Remove_Stroke_3_">
	</g>
	<g id="Minus_Stroke_3_">
	</g>
	<g id="Plus_Stroke_3_">
	</g>
	<g id="Chevron_Light_Down_2_">
	</g>
	<g id="Chevron_Light_Up_2_">
	</g>
	<g id="Chevron_Heavy_Down_1_">
	</g>
	<g id="Chevron_Heavy_Up_3_">
	</g>
	<g id="Chevron_Light_Right_2_">
	</g>
	<g id="Chevron_Light_Left_2_">
	</g>
	<g id="Chevron_Heavy_Right_2_">
	</g>
	<g id="Chevron_Heavy_Left_2_">
	</g>
	<g id="Random_2_">
	</g>
	<g id="Rotation_Lock_4_">
	</g>
	<g id="Replay_1_">
	</g>
	<g id="Rotation_3_">
	</g>
	<g id="Refresh_2_">
	</g>
	<g id="Power_3_">
	</g>
	<g id="Transfer_4_">
	</g>
	<g id="Retweet_2_">
	</g>
	<g id="Loop_2_">
	</g>
	<g id="Delete_3_">
	</g>
	<g id="Brighten_3_">
	</g>
	<g id="Dim_3_">
		<g>
			<g id="Dim">
				<g>
					<path fill-rule="evenodd" clip-rule="evenodd" fill="#1ABC9C" d="M20,27C20,27,20,27,20,27c-0.6,0-1,0.4-1,1l0,1.1
						c0,0.6,0.5,0.9,1,0.9c0,0,0,0,0,0c0.6,0,1-0.4,1-0.9l0-1.1C21,27.4,20.6,27,20,27z M20,13C20,13,20,13,20,13c0.6,0,1-0.4,1-1
						l0-1.1c0-0.6-0.5-0.9-1-0.9c0,0,0,0,0,0c-0.6,0-1,0.4-1,0.9l0,1.1C19,12.6,19.4,13,20,13z M13,20C13,20,13,20,13,20
						c0-0.6-0.4-1-1-1l-1.1,0c-0.6,0-0.9,0.5-0.9,1c0,0,0,0,0,0c0,0.6,0.4,1,0.9,1l1.1,0C12.6,21,13,20.6,13,20z M29.1,19L28,19
						c-0.6,0-1,0.5-1,1c0,0,0,0,0,0c0,0.6,0.4,1,1,1l1.1,0c0.6,0,0.9-0.5,0.9-1c0,0,0,0,0,0C30,19.4,29.6,19,29.1,19z M14.3,12.9
						c-0.4-0.4-1-0.3-1.4,0.1c0,0,0,0,0,0c-0.4,0.4-0.5,1-0.1,1.4l0.8,0.8c0.4,0.4,1,0.4,1.4,0c0,0,0,0,0,0c0.4-0.4,0.4-1,0-1.4
						L14.3,12.9z M26.4,24.9c-0.4-0.4-1-0.4-1.4,0c0,0,0,0,0,0c-0.4,0.4-0.4,1,0,1.4l0.8,0.8c0.4,0.4,1,0.3,1.4-0.1c0,0,0,0,0,0
						c0.4-0.4,0.5-1,0.1-1.4L26.4,24.9z M25.9,15.5l0.8-0.8c0.4-0.4,0.3-1-0.1-1.4c0,0,0,0,0,0c-0.4-0.4-1-0.5-1.4-0.1l-0.8,0.8
						c-0.4,0.4-0.4,1,0,1.4c0,0,0,0,0,0C24.9,15.9,25.5,15.9,25.9,15.5z M14.5,25.5c-0.4-0.4-1-0.4-1.4,0l-0.8,0.8
						c-0.4,0.4-0.3,1,0.1,1.4c0,0,0,0,0,0c0.4,0.4,1,0.5,1.4,0.1l0.8-0.8C14.9,26.6,14.9,25.9,14.5,25.5
						C14.5,25.5,14.5,25.5,14.5,25.5z"/>
				</g>
			</g>
			<g id="Dim_1_">
				<g>
					<path fill-rule="evenodd" clip-rule="evenodd" fill="#1ABC9C" d="M20,15c-2.8,0-5,2.2-5,5c0,2.8,2.2,5,5,5c2.8,0,5-2.2,5-5
						C25,17.2,22.8,15,20,15z M20,23c-1.7,0-3-1.3-3-3c0-1.7,1.3-3,3-3s3,1.3,3,3C23,21.7,21.6,23,20,23z"/>
				</g>
			</g>
		</g>
	</g>
	<g id="Screen_Fit_4_">
	</g>
	<g id="Screen_Fill_3_">
	</g>
	<g id="Arrow_Down_2_">
	</g>
	<g id="Arrow_Up_2_">
	</g>
	<g id="Arrow_Right_2_">
	</g>
	<g id="Arrow_Left_2_">
	</g>
	<g id="Bell_3_">
	</g>
	<g id="Bell_Mute_4_">
	</g>
	<g id="Playlist_3_">
	</g>
	<g id="Octave_2_">
	</g>
	<g id="Quaver_2_">
	</g>
	<g id="Earbuds_4_">
	</g>
	<g id="Mute_Mic_1_">
	</g>
	<g id="Mic_4_">
	</g>
	<g id="Volume_Up">
	</g>
	<g id="Volume_Down">
	</g>
	<g id="Volume_Mute_4_">
	</g>
	<g id="Volume_3_">
	</g>
	<g id="Maximize">
	</g>
	<g id="Fullscreen_Enter_2_">
	</g>
	<g id="Fullscreen_Exit_2_">
	</g>
	<g id="Eject_2_">
	</g>
	<g id="Step_Forward_2_">
	</g>
	<g id="Fast-forward_1_">
	</g>
	<g id="Forward_2_">
	</g>
	<g id="Stop_2_">
	</g>
	<g id="Pause_2_">
	</g>
	<g id="Play_2_">
	</g>
	<g id="Rewind_2_">
	</g>
	<g id="Fast-backward">
	</g>
	<g id="Step_Backward_2_">
	</g>
	<g id="Record_2_">
	</g>
</g>
<g id="Lockup">
</g>
</svg>
