<?xml version="1.0" encoding="utf-8"?>
<!-- Generator: Adobe Illustrator 18.0.0, SVG Export Plug-In . SVG Version: 6.00 Build 0)  -->
<!DOCTYPE svg PUBLIC "-//W3C//DTD SVG 1.1//EN" "http://www.w3.org/Graphics/SVG/1.1/DTD/svg11.dtd">
<svg version="1.1" xmlns="http://www.w3.org/2000/svg" xmlns:xlink="http://www.w3.org/1999/xlink" x="0px" y="0px"
	 viewBox="0 0 40 40" enable-background="new 0 0 40 40" xml:space="preserve">
<g id="Controls">
	<g id="D71_4_">
	</g>
	<g id="D61_4_">
	</g>
	<g id="D51_4_">
	</g>
	<g id="Dolby">
	</g>
	<g id="Stereo_4_">
	</g>
	<g id="CC_4_">
	</g>
	<g id="HD_4_">
	</g>
	<g id="SD_4_">
	</g>
	<g id="Pause_Fill">
	</g>
	<g id="Play_Fill">
	</g>
	<g id="Arrow_Left_Fill_3_">
	</g>
	<g id="Arrow_Right_Fill_3_">
	</g>
	<g id="Arrow_Down_Fill_3_">
	</g>
	<g id="Arrow_Up_Fill_3_">
	</g>
	<g id="Urgent_Fill">
	</g>
	<g id="Info_Fill_4_">
	</g>
	<g id="Help_Fill_3_">
	</g>
	<g id="OK_Fill_3_">
	</g>
	<g id="Remove_Fill_3_">
	</g>
	<g id="Minus_Fill_3_">
	</g>
	<g id="Plus_Fill_3_">
	</g>
	<g id="Pause_Stroke">
	</g>
	<g id="Play_Stroke">
	</g>
	<g id="Arrow_Left_Stroke_3_">
	</g>
	<g id="Arrow_Right_Stroke_3_">
	</g>
	<g id="Arrow_Down_Stroke_3_">
	</g>
	<g id="Arrow_Up_Stroke_3_">
	</g>
	<g id="Urgent_Stroke">
	</g>
	<g id="Info_Stroke_3_">
	</g>
	<g id="Help_Stroke_3_">
	</g>
	<g id="OK_Stroke_3_">
	</g>
	<g id="Remove_Stroke_3_">
	</g>
	<g id="Minus_Stroke_3_">
	</g>
	<g id="Plus_Stroke_3_">
	</g>
	<g id="Chevron_Light_Down_2_">
	</g>
	<g id="Chevron_Light_Up_2_">
	</g>
	<g id="Chevron_Heavy_Down_1_">
	</g>
	<g id="Chevron_Heavy_Up_3_">
	</g>
	<g id="Chevron_Light_Right_2_">
	</g>
	<g id="Chevron_Light_Left_2_">
	</g>
	<g id="Chevron_Heavy_Right_2_">
	</g>
	<g id="Chevron_Heavy_Left_2_">
	</g>
	<g id="Random_2_">
	</g>
	<g id="Rotation_Lock_4_">
	</g>
	<g id="Replay_1_">
	</g>
	<g id="Rotation_3_">
	</g>
	<g id="Refresh_2_">
	</g>
	<g id="Power_3_">
	</g>
	<g id="Transfer_4_">
	</g>
	<g id="Retweet_2_">
	</g>
	<g id="Loop_2_">
	</g>
	<g id="Delete_3_">
	</g>
	<g id="Brighten_3_">
	</g>
	<g id="Dim_3_">
	</g>
	<g id="Screen_Fit_4_">
	</g>
	<g id="Screen_Fill_3_">
	</g>
	<g id="Arrow_Down_2_">
	</g>
	<g id="Arrow_Up_2_">
	</g>
	<g id="Arrow_Right_2_">
	</g>
	<g id="Arrow_Left_2_">
	</g>
	<g id="Bell_3_">
	</g>
	<g id="Bell_Mute_4_">
	</g>
	<g id="Playlist_3_">
		<g id="Playlist">
			<g>
				<path fill-rule="evenodd" clip-rule="evenodd" fill="#1ABC9C" d="M26.6,10.9v-0.3c0-0.5-0.4-1-1-1c-0.6,0-1,0.4-1,1v13.7
					c-0.7-0.3-1.6-0.3-2.4-0.1c-1.9,0.5-3.2,2.3-2.7,3.9c0.4,1.6,2.4,2.6,4.3,2c1.3-0.3,2.3-1.2,2.6-2.3c0.1-0.2,0.2-0.3,0.2-0.5V16
					c3,0.7,3.5,3.1,3.1,4.2c-0.2,0.4,0.1,0.7,0.6,0C33.6,15.7,27.9,13.7,26.6,10.9z"/>
			</g>
		</g>
		<g id="Playlist_1_">
			<g>
				<path fill-rule="evenodd" clip-rule="evenodd" fill="#BDC3C7" d="M8.6,17.8h13v-2h-13V17.8z M8.6,21.8h13v-2h-13V21.8z
					 M8.6,25.8h9v-2h-9V25.8z M8.6,11.8v2h13v-2H8.6z"/>
			</g>
		</g>
	</g>
	<g id="Octave_2_">
	</g>
	<g id="Quaver_2_">
	</g>
	<g id="Earbuds_4_">
	</g>
	<g id="Mute_Mic_1_">
	</g>
	<g id="Mic_4_">
	</g>
	<g id="Volume_Up">
	</g>
	<g id="Volume_Down">
	</g>
	<g id="Volume_Mute_4_">
	</g>
	<g id="Volume_3_">
	</g>
	<g id="Maximize">
	</g>
	<g id="Fullscreen_Enter_2_">
	</g>
	<g id="Fullscreen_Exit_2_">
	</g>
	<g id="Eject_2_">
	</g>
	<g id="Step_Forward_2_">
	</g>
	<g id="Fast-forward_1_">
	</g>
	<g id="Forward_2_">
	</g>
	<g id="Stop_2_">
	</g>
	<g id="Pause_2_">
	</g>
	<g id="Play_2_">
	</g>
	<g id="Rewind_2_">
	</g>
	<g id="Fast-backward">
	</g>
	<g id="Step_Backward_2_">
	</g>
	<g id="Record_2_">
	</g>
</g>
<g id="Lockup">
</g>
</svg>
