<?xml version="1.0" encoding="UTF-8" standalone="no"?>
<svg width="60px" height="60px" viewBox="0 0 60 60" version="1.1" xmlns="http://www.w3.org/2000/svg" xmlns:xlink="http://www.w3.org/1999/xlink" xmlns:sketch="http://www.bohemiancoding.com/sketch/ns">
    <!-- Generator: Sketch 3.2.2 (9983) - http://www.bohemiancoding.com/sketch -->
    <title>100 - Settings (Webby)</title>
    <desc>Created with Sketch.</desc>
    <defs></defs>
    <g id="Page-1" stroke="none" stroke-width="1" fill="none" fill-rule="evenodd" sketch:type="MSPage">
        <g id="Icons" sketch:type="MSArtboardGroup" transform="translate(-120.000000, -3717.000000)">
            <g id="100---Settings-(Webby)" sketch:type="MSLayerGroup" transform="translate(121.000000, 3718.000000)">
                <path d="M58,29 C58,45.016 45.016,58 29,58 C12.984,58 0,45.016 0,29 C0,12.984 12.984,0 29,0 C45.016,0 58,12.984 58,29 L58,29 Z" id="Fill-100" fill="#FFFFFF" sketch:type="MSShapeGroup"></path>
                <path d="M58,29 C58,45.016 45.016,58 29,58 C12.984,58 0,45.016 0,29 C0,12.984 12.984,0 29,0 C45.016,0 58,12.984 58,29 L58,29 Z" id="Stroke-101" stroke="#0F81E0" stroke-width="2" stroke-linecap="round" stroke-linejoin="round" sketch:type="MSShapeGroup"></path>
                <path d="M36,48 L33.527,46.901 M26,22 L24.901,24.473 M33.833,33.843 L36,33 M11.843,24.167 L11,22 M43,30 L43,28 M28,15 L30,15 M32.393,25.606 L33.808,24.192 M52.192,24.192 L53.607,25.606 M32.393,4.393 L33.808,5.807" id="Stroke-537" stroke="#0F81E0" stroke-width="2" stroke-linecap="round" stroke-linejoin="round" sketch:type="MSShapeGroup"></path>
                <path d="M55.716,17.699 C52.781,10.77 47.23,5.219 40.301,2.285 C34.417,3.528 30,8.746 30,15 C30,22.179 35.82,28 43,28 C49.253,28 54.472,23.583 55.716,17.699 L55.716,17.699 Z" id="Fill-538" fill="#FFFFFF" sketch:type="MSShapeGroup"></path>
                <path d="M55.716,17.699 C52.781,10.77 47.23,5.219 40.301,2.285 C34.417,3.528 30,8.746 30,15 C30,22.179 35.82,28 43,28 C49.253,28 54.472,23.583 55.716,17.699 L55.716,17.699 Z" id="Stroke-539" stroke="#0F81E0" stroke-width="2" stroke-linecap="round" stroke-linejoin="round" sketch:type="MSShapeGroup"></path>
                <path d="M18,23 C9.514,23 2.501,29.224 1.227,37.352 C4.019,46.65 11.35,53.981 20.648,56.773 C28.776,55.499 35,48.486 35,40 C35,30.611 27.389,23 18,23 L18,23 Z" id="Fill-540" fill="#FFFFFF" sketch:type="MSShapeGroup"></path>
                <path d="M18,23 C9.514,23 2.501,29.224 1.227,37.352 C4.019,46.65 11.35,53.981 20.648,56.773 C28.776,55.499 35,48.486 35,40 C35,30.611 27.389,23 18,23 L18,23 Z" id="Stroke-541" stroke="#0F81E0" stroke-width="2" stroke-linecap="round" stroke-linejoin="round" sketch:type="MSShapeGroup"></path>
                <path d="M24.063,0.427 C17.123,1.618 11.025,5.269 6.705,10.458 C7.161,11.368 7.17,12.498 6.523,13.452 L5.699,14.669 L7.657,16.627 L8.893,15.721 C10.653,14.431 13.156,15.413 13.568,17.556 L13.846,19 L16.615,19 L16.779,17.934 C17.118,15.73 19.675,14.671 21.474,15.99 L22.343,16.627 L24.301,14.669 L23.477,13.452 C22.253,11.645 23.328,9.18 25.485,8.848 L27,8.615 L27,5.846 L25.556,5.568 C23.414,5.156 22.431,2.652 23.721,0.893 L24.063,0.427 L24.063,0.427 Z" id="Fill-542" fill="#FFFFFF" sketch:type="MSShapeGroup"></path>
                <path d="M24.063,0.427 C17.123,1.618 11.025,5.269 6.705,10.458 C7.161,11.368 7.17,12.498 6.523,13.452 L5.699,14.669 L7.657,16.627 L8.893,15.721 C10.653,14.431 13.156,15.413 13.568,17.556 L13.846,19 L16.615,19 L16.779,17.934 C17.118,15.73 19.675,14.671 21.474,15.99 L22.343,16.627 L24.301,14.669 L23.477,13.452 C22.253,11.645 23.328,9.18 25.485,8.848 L27,8.615 L27,5.846 L25.556,5.568 C23.414,5.156 22.431,2.652 23.721,0.893 L24.063,0.427 L24.063,0.427 Z" id="Stroke-543" stroke="#0F81E0" stroke-width="2" stroke-linecap="round" stroke-linejoin="round" sketch:type="MSShapeGroup"></path>
                <path d="M11,7 C11,9.209 12.791,11 15,11 C17.209,11 19,9.209 19,7 C19,5.11 17.685,3.536 15.924,3.117 C14.203,3.989 12.582,5.026 11.08,6.208 C11.028,6.464 11,6.729 11,7 L11,7 Z" id="Fill-544" fill="#C6E3F8" sketch:type="MSShapeGroup"></path>
                <path d="M11,7 C11,9.209 12.791,11 15,11 C17.209,11 19,9.209 19,7 C19,5.11 17.685,3.536 15.924,3.117 C14.203,3.989 12.582,5.026 11.08,6.208 C11.028,6.464 11,6.729 11,7 L11,7 Z" id="Stroke-545" stroke="#0F81E0" stroke-width="2" stroke-linecap="round" stroke-linejoin="round" sketch:type="MSShapeGroup"></path>
                <path d="M25,40 C25,43.866 21.866,47 18,47 C14.134,47 11,43.866 11,40 C11,36.134 14.134,33 18,33 C21.866,33 25,36.134 25,40 L25,40 Z" id="Stroke-546" stroke="#0F81E0" stroke-width="2" stroke-linecap="round" stroke-linejoin="round" sketch:type="MSShapeGroup"></path>
                <path d="M57.54,34.122 C56.912,33.577 56.453,32.817 56.311,31.894 L56.019,30 L52.558,30 L52.109,32.331 C51.606,34.95 48.587,36.201 46.379,34.705 L44.413,33.373 L41.966,35.821 L43.099,37.366 C44.712,39.566 43.483,42.695 40.805,43.211 L39,43.557 L39,47.019 L40.894,47.31 C43.59,47.725 44.934,50.807 43.404,53.065 L42.374,54.586 L42.468,54.681 C50.253,50.59 55.945,43.068 57.54,34.122 L57.54,34.122 Z" id="Fill-547" fill="#FFFFFF" sketch:type="MSShapeGroup"></path>
                <path d="M57.54,34.122 C56.912,33.577 56.453,32.817 56.311,31.894 L56.019,30 L52.558,30 L52.109,32.331 C51.606,34.95 48.587,36.201 46.379,34.705 L44.413,33.373 L41.966,35.821 L43.099,37.366 C44.712,39.566 43.483,42.695 40.805,43.211 L39,43.557 L39,47.019 L40.894,47.31 C43.59,47.725 44.934,50.807 43.404,53.065 L42.374,54.586 L42.468,54.681 C50.253,50.59 55.945,43.068 57.54,34.122 L57.54,34.122 Z" id="Stroke-548" stroke="#0F81E0" stroke-width="2" stroke-linecap="round" stroke-linejoin="round" sketch:type="MSShapeGroup"></path>
                <path d="M50.586,48.361 C52.96,45.716 54.852,42.632 56.132,39.246 C55.616,39.086 55.068,39 54.5,39 C51.463,39 49,41.462 49,44.5 C49,46.005 49.606,47.368 50.586,48.361 L50.586,48.361 Z" id="Fill-549" fill="#C6E3F8" sketch:type="MSShapeGroup"></path>
                <path d="M50.586,48.361 C52.96,45.716 54.852,42.632 56.132,39.246 C55.616,39.086 55.068,39 54.5,39 C51.463,39 49,41.462 49,44.5 C49,46.005 49.606,47.368 50.586,48.361 L50.586,48.361 Z" id="Stroke-550" stroke="#0F81E0" stroke-width="2" stroke-linecap="round" stroke-linejoin="round" sketch:type="MSShapeGroup"></path>
                <path d="M46,15 C46,16.657 44.657,18 43,18 C41.343,18 40,16.657 40,15 C40,13.343 41.343,12 43,12 C44.657,12 46,13.343 46,15 L46,15 Z" id="Fill-551" fill="#C6E3F8" sketch:type="MSShapeGroup"></path>
                <path d="M46,15 C46,16.657 44.657,18 43,18 C41.343,18 40,16.657 40,15 C40,13.343 41.343,12 43,12 C44.657,12 46,13.343 46,15 L46,15 Z" id="Stroke-552" stroke="#0F81E0" stroke-width="2" stroke-linecap="round" stroke-linejoin="round" sketch:type="MSShapeGroup"></path>
                <path d="M21,40 C21,41.657 19.657,43 18,43 C16.343,43 15,41.657 15,40 C15,38.343 16.343,37 18,37 C19.657,37 21,38.343 21,40 L21,40 Z" id="Fill-553" fill="#C6E3F8" sketch:type="MSShapeGroup"></path>
                <path d="M21,40 C21,41.657 19.657,43 18,43 C16.343,43 15,41.657 15,40 C15,38.343 16.343,37 18,37 C19.657,37 21,38.343 21,40 L21,40 Z" id="Stroke-554" stroke="#0F81E0" stroke-width="2" stroke-linecap="round" stroke-linejoin="round" sketch:type="MSShapeGroup"></path>
            </g>
        </g>
    </g>
</svg>