<?xml version="1.0" encoding="UTF-8" standalone="no"?>
<svg width="53px" height="53px" viewBox="0 0 53 53" version="1.1" xmlns="http://www.w3.org/2000/svg" xmlns:xlink="http://www.w3.org/1999/xlink" xmlns:sketch="http://www.bohemiancoding.com/sketch/ns">
    <!-- Generator: Sketch 3.2.2 (9983) - http://www.bohemiancoding.com/sketch -->
    <title>101 - Pin (Webby)</title>
    <desc>Created with Sketch.</desc>
    <defs></defs>
    <g id="Page-1" stroke="none" stroke-width="1" fill="none" fill-rule="evenodd" sketch:type="MSPage">
        <g id="Icons" sketch:type="MSArtboardGroup" transform="translate(-1202.000000, -3599.000000)">
            <g id="101---Pin-(Webby)" sketch:type="MSLayerGroup" transform="translate(1203.000000, 3600.000000)">
                <path d="M34.994,36.463 L20.446,51.011 C16.862,42.008 20.981,32.861 20.981,32.861 L7.521,17.039 C7.521,17.039 3.136,17.743 0,15.254 L15.254,0 C15.254,0 17.762,3.116 17.021,7.607 L32.807,21.037 C32.807,21.037 41.3,16.651 50.957,20.5 L34.994,36.463 L34.994,36.463 Z" id="Fill-271" fill="#FFFFFF" sketch:type="MSShapeGroup"></path>
                <path d="M34.994,36.463 L20.446,51.011 C16.862,42.008 20.981,32.861 20.981,32.861 L7.521,17.039 C7.521,17.039 3.136,17.743 0,15.254 L15.254,0 C15.254,0 17.762,3.116 17.021,7.607 L32.807,21.037 C32.807,21.037 41.3,16.651 50.957,20.5 L34.994,36.463 L34.994,36.463 Z" id="Stroke-272" stroke="#0F81E0" stroke-width="2" stroke-linecap="round" stroke-linejoin="round" sketch:type="MSShapeGroup"></path>
                <path d="M35.723,35.734 L50,50.012" id="Stroke-273" stroke="#0F81E0" stroke-width="2" stroke-linecap="round" stroke-linejoin="round" sketch:type="MSShapeGroup"></path>
            </g>
        </g>
    </g>
</svg>