<?xml version="1.0" encoding="UTF-8" standalone="no"?>
<svg width="60px" height="54px" viewBox="0 0 60 54" version="1.1" xmlns="http://www.w3.org/2000/svg" xmlns:xlink="http://www.w3.org/1999/xlink" xmlns:sketch="http://www.bohemiancoding.com/sketch/ns">
    <!-- Generator: Sketch 3.2.2 (9983) - http://www.bohemiancoding.com/sketch -->
    <title>102 - Diamond (Webby)</title>
    <desc>Created with Sketch.</desc>
    <defs></defs>
    <g id="Page-1" stroke="none" stroke-width="1" fill="none" fill-rule="evenodd" sketch:type="MSPage">
        <g id="Icons" sketch:type="MSArtboardGroup" transform="translate(-1081.000000, -3601.000000)">
            <g id="102---Diamond-(Webby)" sketch:type="MSLayerGroup" transform="translate(1082.000000, 3602.000000)">
                <path d="M29,52 L0,16 L58,16 L29,52 L29,52 Z" id="Fill-266" fill="#FFFFFF" sketch:type="MSShapeGroup"></path>
                <path d="M29,52 L0,16 L58,16 L29,52 L29,52 Z" id="Stroke-267" stroke="#0F81E0" stroke-width="2" stroke-linecap="round" stroke-linejoin="round" sketch:type="MSShapeGroup"></path>
                <path d="M58,16 L0,16 L10,0 L48,0 L58,16 L58,16 Z" id="Fill-268" fill="#FFFFFF" sketch:type="MSShapeGroup"></path>
                <path d="M58,16 L0,16 L10,0 L48,0 L58,16 L58,16 Z" id="Stroke-269" stroke="#0F81E0" stroke-width="2" stroke-linecap="round" stroke-linejoin="round" sketch:type="MSShapeGroup"></path>
                <path d="M10,0 L29,52 M48,0 L29,51 M16,16 L29,0 M42,16 L29,0" id="Stroke-270" stroke="#0F81E0" stroke-width="2" stroke-linecap="round" stroke-linejoin="round" sketch:type="MSShapeGroup"></path>
            </g>
        </g>
    </g>
</svg>