<?xml version="1.0" encoding="UTF-8" standalone="no"?>
<svg width="58px" height="58px" viewBox="0 0 58 58" version="1.1" xmlns="http://www.w3.org/2000/svg" xmlns:xlink="http://www.w3.org/1999/xlink" xmlns:sketch="http://www.bohemiancoding.com/sketch/ns">
    <!-- Generator: Sketch 3.2.2 (9983) - http://www.bohemiancoding.com/sketch -->
    <title>109 - Help (Webby)</title>
    <desc>Created with Sketch.</desc>
    <defs></defs>
    <g id="Page-1" stroke="none" stroke-width="1" fill="none" fill-rule="evenodd" sketch:type="MSPage">
        <g id="Icons" sketch:type="MSArtboardGroup" transform="translate(-241.000000, -3598.000000)">
            <g id="109---Help-(Webby)" sketch:type="MSLayerGroup" transform="translate(242.000000, 3599.000000)">
                <path d="M56,28 C56,43.464 43.464,56 28,56 C12.536,56 0,43.464 0,28 C0,12.536 12.536,0 28,0 C43.464,0 56,12.536 56,28 L56,28 Z" id="Fill-107" fill="#FFFFFF" sketch:type="MSShapeGroup"></path>
                <path d="M56,28 C56,43.464 43.464,56 28,56 C12.536,56 0,43.464 0,28 C0,12.536 12.536,0 28,0 C43.464,0 56,12.536 56,28 L56,28 Z" id="Stroke-108" stroke="#0F81E0" stroke-width="2" stroke-linecap="round" stroke-linejoin="round" sketch:type="MSShapeGroup"></path>
                <path d="M13.44,28 C13.44,19.959 19.959,13.44 28,13.44 C36.041,13.44 42.56,19.959 42.56,28 C42.56,36.041 36.041,42.56 28,42.56 C19.959,42.56 13.44,36.041 13.44,28 L13.44,28 Z" id="Fill-109" fill="#FFFFFF" sketch:type="MSShapeGroup"></path>
                <path d="M13.44,28 C13.44,19.959 19.959,13.44 28,13.44 C36.041,13.44 42.56,19.959 42.56,28 C42.56,36.041 36.041,42.56 28,42.56 C19.959,42.56 13.44,36.041 13.44,28 L13.44,28 Z" id="Stroke-110" stroke="#0F81E0" stroke-width="2" stroke-linecap="round" stroke-linejoin="round" sketch:type="MSShapeGroup"></path>
                <path d="M20.422,1.046 L23.683,14.091 M32.317,14.091 L35.578,1.046 M35.578,54.953 L32.317,41.909 M23.683,41.909 L20.422,54.953 M54.954,20.422 L41.909,23.683 M41.909,32.317 L54.954,35.578 M1.046,35.578 L14.091,32.317 M14.091,23.683 L1.046,20.422" id="Stroke-111" stroke="#0F81E0" stroke-width="2" stroke-linecap="round" stroke-linejoin="round" sketch:type="MSShapeGroup"></path>
                <path d="M17.147,2.19 C17.3,2.125 17.455,2.062 17.609,2 L17.109,2" id="Stroke-112" stroke="#0F81E0" stroke-width="2" stroke-linecap="round" stroke-linejoin="round" sketch:type="MSShapeGroup"></path>
                <path d="M13.201,2 L6.37,2 C3.956,2 2,3.956 2,6.37 L2,15.155" id="Stroke-113" stroke="#0F81E0" stroke-width="2" stroke-linecap="round" stroke-linejoin="round" stroke-dasharray="0.977,3.908" sketch:type="MSShapeGroup"></path>
                <path d="M2,17.109 L2,17.609 C2.062,17.454 2.125,17.3 2.19,17.147" id="Stroke-114" stroke="#0F81E0" stroke-width="2" stroke-linecap="round" stroke-linejoin="round" sketch:type="MSShapeGroup"></path>
                <path d="M3.804,13.916 C6.545,9.216 10.616,5.388 15.502,2.946" id="Stroke-115" stroke="#0F81E0" stroke-width="2" stroke-linecap="round" stroke-linejoin="round" stroke-dasharray="0.903,3.613" sketch:type="MSShapeGroup"></path>
                <path d="M53.81,17.147 C53.875,17.3 53.938,17.454 54,17.609 L54,17.109" id="Stroke-116" stroke="#0F81E0" stroke-width="2" stroke-linecap="round" stroke-linejoin="round" sketch:type="MSShapeGroup"></path>
                <path d="M54,13.201 L54,6.37 C54,3.956 52.044,2 49.63,2 L40.845,2" id="Stroke-117" stroke="#0F81E0" stroke-width="2" stroke-linecap="round" stroke-linejoin="round" stroke-dasharray="0.977,3.908" sketch:type="MSShapeGroup"></path>
                <path d="M38.891,2 L38.391,2 C38.546,2.062 38.7,2.125 38.853,2.19" id="Stroke-118" stroke="#0F81E0" stroke-width="2" stroke-linecap="round" stroke-linejoin="round" sketch:type="MSShapeGroup"></path>
                <path d="M42.084,3.804 C46.784,6.545 50.612,10.616 53.054,15.502" id="Stroke-119" stroke="#0F81E0" stroke-width="2" stroke-linecap="round" stroke-linejoin="round" stroke-dasharray="0.903,3.613" sketch:type="MSShapeGroup"></path>
                <path d="M38.853,53.81 C38.7,53.875 38.546,53.938 38.391,54 L38.891,54" id="Stroke-120" stroke="#0F81E0" stroke-width="2" stroke-linecap="round" stroke-linejoin="round" sketch:type="MSShapeGroup"></path>
                <path d="M42.799,54 L49.63,54 C52.044,54 54,52.044 54,49.63 L54,40.845" id="Stroke-121" stroke="#0F81E0" stroke-width="2" stroke-linecap="round" stroke-linejoin="round" stroke-dasharray="0.977,3.908" sketch:type="MSShapeGroup"></path>
                <path d="M54,38.89 L54,38.391 C53.938,38.545 53.875,38.7 53.81,38.853" id="Stroke-122" stroke="#0F81E0" stroke-width="2" stroke-linecap="round" stroke-linejoin="round" sketch:type="MSShapeGroup"></path>
                <path d="M52.196,42.084 C49.455,46.784 45.384,50.612 40.498,53.054" id="Stroke-123" stroke="#0F81E0" stroke-width="2" stroke-linecap="round" stroke-linejoin="round" stroke-dasharray="0.903,3.613" sketch:type="MSShapeGroup"></path>
                <path d="M2.19,38.853 C2.125,38.7 2.062,38.545 2,38.391 L2,38.89" id="Stroke-124" stroke="#0F81E0" stroke-width="2" stroke-linecap="round" stroke-linejoin="round" sketch:type="MSShapeGroup"></path>
                <path d="M2,42.798 L2,49.63 C2,52.044 3.956,54 6.37,54 L15.155,54" id="Stroke-125" stroke="#0F81E0" stroke-width="2" stroke-linecap="round" stroke-linejoin="round" stroke-dasharray="0.977,3.908" sketch:type="MSShapeGroup"></path>
                <path d="M17.109,54 L17.609,54 C17.455,53.938 17.3,53.875 17.147,53.81" id="Stroke-126" stroke="#0F81E0" stroke-width="2" stroke-linecap="round" stroke-linejoin="round" sketch:type="MSShapeGroup"></path>
                <path d="M13.916,52.196 C9.216,49.455 5.388,45.384 2.946,40.498" id="Stroke-127" stroke="#0F81E0" stroke-width="2" stroke-linecap="round" stroke-linejoin="round" stroke-dasharray="0.903,3.613" sketch:type="MSShapeGroup"></path>
            </g>
        </g>
    </g>
</svg>