<?xml version="1.0" encoding="UTF-8" standalone="no"?>
<svg width="34px" height="60px" viewBox="0 0 34 60" version="1.1" xmlns="http://www.w3.org/2000/svg" xmlns:xlink="http://www.w3.org/1999/xlink" xmlns:sketch="http://www.bohemiancoding.com/sketch/ns">
    <!-- Generator: Sketch 3.2.2 (9983) - http://www.bohemiancoding.com/sketch -->
    <title>11 - Phone Chat (Webby)</title>
    <desc>Created with Sketch.</desc>
    <defs></defs>
    <g id="Page-1" stroke="none" stroke-width="1" fill="none" fill-rule="evenodd" sketch:type="MSPage">
        <g id="Icons" sketch:type="MSArtboardGroup" transform="translate(-1213.000000, -4677.000000)">
            <g id="11---Phone-Chat-(Webby)" sketch:type="MSLayerGroup" transform="translate(1214.000000, 4678.000000)">
                <path d="M28.595,58 L3.405,58 C1.525,58 0,56.475 0,54.595 L0,3.405 C0,1.525 1.525,0 3.405,0 L28.595,0 C30.475,0 32,1.525 32,3.405 L32,54.595 C32,56.475 30.475,58 28.595,58 L28.595,58 Z" id="Fill-10" fill="#FFFFFF" sketch:type="MSShapeGroup"></path>
                <path d="M28.595,58 L3.405,58 C1.525,58 0,56.475 0,54.595 L0,3.405 C0,1.525 1.525,0 3.405,0 L28.595,0 C30.475,0 32,1.525 32,3.405 L32,54.595 C32,56.475 30.475,58 28.595,58 L28.595,58 Z" id="Stroke-11" stroke="#0F81E0" stroke-width="2" stroke-linecap="round" stroke-linejoin="round" sketch:type="MSShapeGroup"></path>
                <path d="M19,52 C19,53.657 17.657,55 16,55 C14.343,55 13,53.657 13,52 C13,50.343 14.343,49 16,49 C17.657,49 19,50.343 19,52 L19,52 Z" id="Fill-12" fill="#C6E3F8" sketch:type="MSShapeGroup"></path>
                <path d="M19,52 C19,53.657 17.657,55 16,55 C14.343,55 13,53.657 13,52 C13,50.343 14.343,49 16,49 C17.657,49 19,50.343 19,52 L19,52 Z" id="Stroke-13" stroke="#0F81E0" stroke-width="2" stroke-linecap="round" stroke-linejoin="round" sketch:type="MSShapeGroup"></path>
                <path d="M0,46 L32,46 M0,6 L32,6 M12,3 L16,3 M19,3 L20,3" id="Stroke-14" stroke="#0F81E0" stroke-width="2" stroke-linecap="round" stroke-linejoin="round" sketch:type="MSShapeGroup"></path>
                <path d="M24,11 L8,11 C5.791,11 4,12.791 4,15 L4,23 L8,19 L24,19 C26.209,19 28,17.209 28,15 C28,12.791 26.209,11 24,11 L24,11 Z" id="Fill-92" fill="#C6E3F8" sketch:type="MSShapeGroup"></path>
                <path d="M24,11 L8,11 C5.791,11 4,12.791 4,15 L4,23 L8,19 L24,19 C26.209,19 28,17.209 28,15 C28,12.791 26.209,11 24,11 L24,11 Z" id="Stroke-93" stroke="#0F81E0" stroke-width="2" stroke-linecap="round" stroke-linejoin="round" sketch:type="MSShapeGroup"></path>
                <path d="M8,28 L24,28 C26.209,28 28,29.791 28,32 L28,40 L24,36 L8,36 C5.791,36 4,34.209 4,32 C4,29.791 5.791,28 8,28 L8,28 Z" id="Fill-94" fill="#C6E3F8" sketch:type="MSShapeGroup"></path>
                <path d="M8,28 L24,28 C26.209,28 28,29.791 28,32 L28,40 L24,36 L8,36 C5.791,36 4,34.209 4,32 C4,29.791 5.791,28 8,28 L8,28 Z" id="Stroke-95" stroke="#0F81E0" stroke-width="2" stroke-linecap="round" stroke-linejoin="round" sketch:type="MSShapeGroup"></path>
            </g>
        </g>
    </g>
</svg>