<?xml version="1.0" encoding="UTF-8" standalone="no"?>
<svg width="59px" height="54px" viewBox="0 0 59 54" version="1.1" xmlns="http://www.w3.org/2000/svg" xmlns:xlink="http://www.w3.org/1999/xlink" xmlns:sketch="http://www.bohemiancoding.com/sketch/ns">
    <!-- Generator: Sketch 3.2.2 (9983) - http://www.bohemiancoding.com/sketch -->
    <title>112 - Controls (Webby)</title>
    <desc>Created with Sketch.</desc>
    <defs></defs>
    <g id="Page-1" stroke="none" stroke-width="1" fill="none" fill-rule="evenodd" sketch:type="MSPage">
        <g id="Icons" sketch:type="MSArtboardGroup" transform="translate(-1081.000000, -3480.000000)">
            <g id="112---Controls-(Webby)" sketch:type="MSLayerGroup" transform="translate(1082.000000, 3481.000000)">
                <path d="M6,40 C9.314,40 12,42.686 12,46 C12,49.313 9.314,52 6,52 C2.686,52 0,49.313 0,46 C0,42.686 2.686,40 6,40 L6,40 Z" id="Fill-11" fill="#FFFFFF" sketch:type="MSShapeGroup"></path>
                <path d="M6,40 C9.314,40 12,42.686 12,46 C12,49.313 9.314,52 6,52 C2.686,52 0,49.313 0,46 C0,42.686 2.686,40 6,40 L6,40 Z" id="Stroke-12" stroke="#0F81E0" stroke-width="2" stroke-linecap="round" stroke-linejoin="round" sketch:type="MSShapeGroup"></path>
                <path d="M6,0 L6,40" id="Stroke-13" stroke="#0F81E0" stroke-width="2" stroke-linecap="round" stroke-linejoin="round" sketch:type="MSShapeGroup"></path>
                <path d="M21,28 C24.314,28 27,30.686 27,34 C27,37.313 24.314,40 21,40 C17.686,40 15,37.313 15,34 C15,30.686 17.686,28 21,28 L21,28 Z" id="Fill-14" fill="#FFFFFF" sketch:type="MSShapeGroup"></path>
                <path d="M21,28 C24.314,28 27,30.686 27,34 C27,37.313 24.314,40 21,40 C17.686,40 15,37.313 15,34 C15,30.686 17.686,28 21,28 L21,28 Z" id="Stroke-15" stroke="#0F81E0" stroke-width="2" stroke-linecap="round" stroke-linejoin="round" sketch:type="MSShapeGroup"></path>
                <path d="M21,0 L21,28" id="Stroke-16" stroke="#0F81E0" stroke-width="2" stroke-linecap="round" stroke-linejoin="round" sketch:type="MSShapeGroup"></path>
                <path d="M36,16 C39.314,16 42,18.686 42,22 C42,25.313 39.314,28 36,28 C32.686,28 30,25.313 30,22 C30,18.686 32.686,16 36,16 L36,16 Z" id="Fill-17" fill="#C6E3F8" sketch:type="MSShapeGroup"></path>
                <path d="M36,16 C39.314,16 42,18.686 42,22 C42,25.313 39.314,28 36,28 C32.686,28 30,25.313 30,22 C30,18.686 32.686,16 36,16 L36,16 Z" id="Stroke-18" stroke="#0F81E0" stroke-width="2" stroke-linecap="round" stroke-linejoin="round" sketch:type="MSShapeGroup"></path>
                <path d="M36,0 L36,16" id="Stroke-19" stroke="#0F81E0" stroke-width="2" stroke-linecap="round" stroke-linejoin="round" sketch:type="MSShapeGroup"></path>
                <path d="M51,4 C54.314,4 57,6.686 57,10 C57,13.313 54.314,16 51,16 C47.686,16 45,13.313 45,10 C45,6.686 47.686,4 51,4 L51,4 Z" id="Fill-20" fill="#FFFFFF" sketch:type="MSShapeGroup"></path>
                <path d="M51,4 C54.314,4 57,6.686 57,10 C57,13.313 54.314,16 51,16 C47.686,16 45,13.313 45,10 C45,6.686 47.686,4 51,4 L51,4 Z" id="Stroke-21" stroke="#0F81E0" stroke-width="2" stroke-linecap="round" stroke-linejoin="round" sketch:type="MSShapeGroup"></path>
                <path d="M51,0 L51,4" id="Stroke-22" stroke="#0F81E0" stroke-width="2" stroke-linecap="round" stroke-linejoin="round" sketch:type="MSShapeGroup"></path>
                <path d="M21,40 L21,52 M36,28 L36,52 M51,16 L51,52" id="Stroke-185" stroke="#0F81E0" stroke-width="2" stroke-linecap="round" stroke-linejoin="round" sketch:type="MSShapeGroup"></path>
                <path d="M50,8 L52,8" id="Path" stroke="#0F81E0" stroke-width="2" stroke-linecap="round" stroke-linejoin="round" sketch:type="MSShapeGroup"></path>
                <path d="M35,20 L37,20" id="Path" stroke="#0F81E0" stroke-width="2" stroke-linecap="round" stroke-linejoin="round" sketch:type="MSShapeGroup"></path>
                <path d="M35,24 L37,24" id="Path" stroke="#0F81E0" stroke-width="2" stroke-linecap="round" stroke-linejoin="round" sketch:type="MSShapeGroup"></path>
                <path d="M20,32 L22,32" id="Path" stroke="#0F81E0" stroke-width="2" stroke-linecap="round" stroke-linejoin="round" sketch:type="MSShapeGroup"></path>
                <path d="M20,36 L22,36" id="Path" stroke="#0F81E0" stroke-width="2" stroke-linecap="round" stroke-linejoin="round" sketch:type="MSShapeGroup"></path>
                <path d="M5,44 L7,44" id="Path" stroke="#0F81E0" stroke-width="2" stroke-linecap="round" stroke-linejoin="round" sketch:type="MSShapeGroup"></path>
                <path d="M5,48 L7,48" id="Path" stroke="#0F81E0" stroke-width="2" stroke-linecap="round" stroke-linejoin="round" sketch:type="MSShapeGroup"></path>
                <path d="M50,12 L52,12" id="Path" stroke="#0F81E0" stroke-width="2" stroke-linecap="round" stroke-linejoin="round" sketch:type="MSShapeGroup"></path>
            </g>
        </g>
    </g>
</svg>