<?xml version="1.0" encoding="UTF-8" standalone="no"?>
<svg width="60px" height="60px" viewBox="0 0 60 60" version="1.1" xmlns="http://www.w3.org/2000/svg" xmlns:xlink="http://www.w3.org/1999/xlink" xmlns:sketch="http://www.bohemiancoding.com/sketch/ns">
    <!-- Generator: Sketch 3.2.2 (9983) - http://www.bohemiancoding.com/sketch -->
    <title>117 - Controls (Webby)</title>
    <desc>Created with Sketch.</desc>
    <defs></defs>
    <g id="Page-1" stroke="none" stroke-width="1" fill="none" fill-rule="evenodd" sketch:type="MSPage">
        <g id="Icons" sketch:type="MSArtboardGroup" transform="translate(-480.000000, -3477.000000)">
            <g id="117---Controls-(Webby)" sketch:type="MSLayerGroup" transform="translate(481.000000, 3478.000000)">
                <path d="M0,0 L58,0 L58,58 L0,58 L0,0 Z" id="Fill-41" fill="#FFFFFF" sketch:type="MSShapeGroup"></path>
                <path d="M0,0 L58,0 L58,58 L0,58 L0,0 Z" id="Stroke-42" stroke="#0F81E0" stroke-width="2" stroke-linecap="round" stroke-linejoin="round" sketch:type="MSShapeGroup"></path>
                <path d="M10,37 L10,5" id="Stroke-65" stroke="#0F81E0" stroke-width="2" stroke-linecap="round" stroke-linejoin="round" sketch:type="MSShapeGroup"></path>
                <path d="M5,37 L15,37 L15,49 L5,49 L5,37 Z" id="Fill-66" fill="#C6E3F8" sketch:type="MSShapeGroup"></path>
                <path d="M5,37 L15,37 L15,49 L5,49 L5,37 Z" id="Stroke-67" stroke="#0F81E0" stroke-width="2" stroke-linecap="round" stroke-linejoin="round" sketch:type="MSShapeGroup"></path>
                <path d="M10,49 L10,53 M29,23 L29,5" id="Stroke-68" stroke="#0F81E0" stroke-width="2" stroke-linecap="round" stroke-linejoin="round" sketch:type="MSShapeGroup"></path>
                <path d="M24,23 L34,23 L34,35 L24,35 L24,23 Z" id="Fill-69" fill="#C6E3F8" sketch:type="MSShapeGroup"></path>
                <path d="M24,23 L34,23 L34,35 L24,35 L24,23 Z" id="Stroke-70" stroke="#0F81E0" stroke-width="2" stroke-linecap="round" stroke-linejoin="round" sketch:type="MSShapeGroup"></path>
                <path d="M29,35 L29,53 M48,21 L48,53" id="Stroke-71" stroke="#0F81E0" stroke-width="2" stroke-linecap="round" stroke-linejoin="round" sketch:type="MSShapeGroup"></path>
                <path d="M43,9 L53,9 L53,21 L43,21 L43,9 Z" id="Fill-72" fill="#C6E3F8" sketch:type="MSShapeGroup"></path>
                <path d="M43,9 L53,9 L53,21 L43,21 L43,9 Z" id="Stroke-73" stroke="#0F81E0" stroke-width="2" stroke-linecap="round" stroke-linejoin="round" sketch:type="MSShapeGroup"></path>
                <path d="M48,9 L48,5" id="Path" stroke="#0F81E0" stroke-width="2" stroke-linecap="round" stroke-linejoin="round" sketch:type="MSShapeGroup"></path>
            </g>
        </g>
    </g>
</svg>