<?xml version="1.0" encoding="UTF-8" standalone="no"?>
<svg width="50px" height="54px" viewBox="0 0 50 54" version="1.1" xmlns="http://www.w3.org/2000/svg" xmlns:xlink="http://www.w3.org/1999/xlink" xmlns:sketch="http://www.bohemiancoding.com/sketch/ns">
    <!-- Generator: Sketch 3.2.2 (9983) - http://www.bohemiancoding.com/sketch -->
    <title>118 - Controls (Webby)</title>
    <desc>Created with Sketch.</desc>
    <defs></defs>
    <g id="Page-1" stroke="none" stroke-width="1" fill="none" fill-rule="evenodd" sketch:type="MSPage">
        <g id="Icons" sketch:type="MSArtboardGroup" transform="translate(-365.000000, -3480.000000)">
            <g id="118---Controls-(Webby)" sketch:type="MSLayerGroup" transform="translate(366.000000, 3481.000000)">
                <path d="M5,36 L5,0" id="Path" stroke="#0F81E0" stroke-width="2" stroke-linecap="round" stroke-linejoin="round" sketch:type="MSShapeGroup"></path>
                <path d="M0,36 L10,36 L10,48 L0,48 L0,36 Z" id="Fill-43" fill="#C6E3F8" sketch:type="MSShapeGroup"></path>
                <path d="M0,36 L10,36 L10,48 L0,48 L0,36 Z" id="Stroke-44" stroke="#0F81E0" stroke-width="2" stroke-linecap="round" stroke-linejoin="round" sketch:type="MSShapeGroup"></path>
                <path d="M5,48 L5,52 M24,20 L24,0" id="Stroke-45" stroke="#0F81E0" stroke-width="2" stroke-linecap="round" stroke-linejoin="round" sketch:type="MSShapeGroup"></path>
                <path d="M19,20 L29,20 L29,32 L19,32 L19,20 Z" id="Fill-46" fill="#FFFFFF" sketch:type="MSShapeGroup"></path>
                <path d="M19,20 L29,20 L29,32 L19,32 L19,20 Z" id="Stroke-47" stroke="#0F81E0" stroke-width="2" stroke-linecap="round" stroke-linejoin="round" sketch:type="MSShapeGroup"></path>
                <path d="M24,32 L24,52 M43,16 L43,52" id="Stroke-48" stroke="#0F81E0" stroke-width="2" stroke-linecap="round" stroke-linejoin="round" sketch:type="MSShapeGroup"></path>
                <path d="M38,4 L48,4 L48,16 L38,16 L38,4 Z" id="Fill-49" fill="#FFFFFF" sketch:type="MSShapeGroup"></path>
                <path d="M38,4 L48,4 L48,16 L38,16 L38,4 Z" id="Stroke-50" stroke="#0F81E0" stroke-width="2" stroke-linecap="round" stroke-linejoin="round" sketch:type="MSShapeGroup"></path>
                <path d="M43,4 L43,0" id="Stroke-51" stroke="#0F81E0" stroke-width="2" stroke-linecap="round" stroke-linejoin="round" sketch:type="MSShapeGroup"></path>
            </g>
        </g>
    </g>
</svg>