<?xml version="1.0" encoding="UTF-8" standalone="no"?>
<svg width="34px" height="60px" viewBox="0 0 34 60" version="1.1" xmlns="http://www.w3.org/2000/svg" xmlns:xlink="http://www.w3.org/1999/xlink" xmlns:sketch="http://www.bohemiancoding.com/sketch/ns">
    <!-- Generator: Sketch 3.2.2 (9983) - http://www.bohemiancoding.com/sketch -->
    <title>12 - Phone Profile (Webby)</title>
    <desc>Created with Sketch.</desc>
    <defs></defs>
    <g id="Page-1" stroke="none" stroke-width="1" fill="none" fill-rule="evenodd" sketch:type="MSPage">
        <g id="Icons" sketch:type="MSArtboardGroup" transform="translate(-1093.000000, -4677.000000)">
            <g id="12---Phone-Profile-(Webby)" sketch:type="MSLayerGroup" transform="translate(1094.000000, 4678.000000)">
                <path d="M28.595,58 L3.405,58 C1.525,58 0,56.475 0,54.595 L0,3.405 C0,1.525 1.525,0 3.405,0 L28.595,0 C30.475,0 32,1.525 32,3.405 L32,54.595 C32,56.475 30.475,58 28.595,58 L28.595,58 Z" id="Fill-15" fill="#FFFFFF" sketch:type="MSShapeGroup"></path>
                <path d="M28.595,58 L3.405,58 C1.525,58 0,56.475 0,54.595 L0,3.405 C0,1.525 1.525,0 3.405,0 L28.595,0 C30.475,0 32,1.525 32,3.405 L32,54.595 C32,56.475 30.475,58 28.595,58 L28.595,58 Z" id="Stroke-16" stroke="#0F81E0" stroke-width="2" stroke-linecap="round" stroke-linejoin="round" sketch:type="MSShapeGroup"></path>
                <path d="M19,52 C19,53.657 17.657,55 16,55 C14.343,55 13,53.657 13,52 C13,50.343 14.343,49 16,49 C17.657,49 19,50.343 19,52 L19,52 Z" id="Fill-17" fill="#C6E3F8" sketch:type="MSShapeGroup"></path>
                <path d="M19,52 C19,53.657 17.657,55 16,55 C14.343,55 13,53.657 13,52 C13,50.343 14.343,49 16,49 C17.657,49 19,50.343 19,52 L19,52 Z" id="Stroke-18" stroke="#0F81E0" stroke-width="2" stroke-linecap="round" stroke-linejoin="round" sketch:type="MSShapeGroup"></path>
                <path d="M0,46 L32,46 M0,6 L32,6 M12,3 L16,3 M19,3 L20,3" id="Stroke-19" stroke="#0F81E0" stroke-width="2" stroke-linecap="round" stroke-linejoin="round" sketch:type="MSShapeGroup"></path>
                <path d="M28,21 C28,27.627 22.627,33 16,33 C9.372,33 4,27.627 4,21 C4,14.372 9.372,9 16,9 C22.627,9 28,14.372 28,21 L28,21 Z" id="Fill-84" fill="#FFFFFF" sketch:type="MSShapeGroup"></path>
                <path d="M28,21 C28,27.627 22.627,33 16,33 C9.372,33 4,27.627 4,21 C4,14.372 9.372,9 16,9 C22.627,9 28,14.372 28,21 L28,21 Z" id="Stroke-85" stroke="#0F81E0" stroke-width="2" stroke-linejoin="round" sketch:type="MSShapeGroup"></path>
                <path d="M18.932,28.567 C18.485,28.344 18.202,27.887 18.202,27.387 L18.202,26.028 C18.3,25.917 18.411,25.775 18.53,25.607 C19.001,24.941 19.358,24.208 19.606,23.439 C20.05,23.302 20.376,22.892 20.376,22.405 L20.376,20.955 C20.376,20.637 20.235,20.352 20.014,20.152 L20.014,18.057 C20.014,18.057 20.444,14.795 16.028,14.795 C11.612,14.795 12.042,18.057 12.042,18.057 L12.042,20.152 C11.822,20.352 11.68,20.637 11.68,20.955 L11.68,22.405 C11.68,22.786 11.881,23.122 12.181,23.317 C12.543,24.893 13.492,26.028 13.492,26.028 L13.492,27.353 C13.492,27.836 13.228,28.28 12.804,28.512 L9.571,30.275 C9.35,30.395 9.153,30.546 8.974,30.714 C10.951,32.146 13.373,33 16,33 C18.623,33 21.041,32.149 23.016,30.722 C22.829,30.557 22.622,30.412 22.393,30.297 L18.932,28.567 L18.932,28.567 Z" id="Fill-86" fill="#C6E3F8" sketch:type="MSShapeGroup"></path>
                <path d="M18.932,28.567 C18.485,28.344 18.202,27.887 18.202,27.387 L18.202,26.028 C18.3,25.917 18.411,25.775 18.53,25.607 C19.001,24.941 19.358,24.208 19.606,23.439 C20.05,23.302 20.376,22.892 20.376,22.405 L20.376,20.955 C20.376,20.637 20.235,20.352 20.014,20.152 L20.014,18.057 C20.014,18.057 20.444,14.795 16.028,14.795 C11.612,14.795 12.042,18.057 12.042,18.057 L12.042,20.152 C11.822,20.352 11.68,20.637 11.68,20.955 L11.68,22.405 C11.68,22.786 11.881,23.122 12.181,23.317 C12.543,24.893 13.492,26.028 13.492,26.028 L13.492,27.353 C13.492,27.836 13.228,28.28 12.804,28.512 L9.571,30.275 C9.35,30.395 9.153,30.546 8.974,30.714 C10.951,32.146 13.373,33 16,33 C18.623,33 21.041,32.149 23.016,30.722 C22.829,30.557 22.622,30.412 22.393,30.297 L18.932,28.567 L18.932,28.567 Z" id="Stroke-87" stroke="#0F81E0" stroke-width="2" stroke-linejoin="round" sketch:type="MSShapeGroup"></path>
                <path d="M3,37 L29,37 L29,43 L3,43 L3,37 Z" id="Fill-88" fill="#FFFFFF" sketch:type="MSShapeGroup"></path>
                <path d="M3,37 L29,37 L29,43 L3,43 L3,37 Z" id="Stroke-89" stroke="#0F81E0" stroke-width="2" stroke-linejoin="round" sketch:type="MSShapeGroup"></path>
                <path d="M3,37 L9,37 L9,43 L3,43 L3,37 Z" id="Fill-90" fill="#FFFFFF" sketch:type="MSShapeGroup"></path>
                <path d="M3,37 L9,37 L9,43 L3,43 L3,37 Z" id="Stroke-91" stroke="#0F81E0" stroke-width="2" stroke-linejoin="round" sketch:type="MSShapeGroup"></path>
            </g>
        </g>
    </g>
</svg>