<?xml version="1.0" encoding="UTF-8" standalone="no"?>
<svg width="56px" height="54px" viewBox="0 0 56 54" version="1.1" xmlns="http://www.w3.org/2000/svg" xmlns:xlink="http://www.w3.org/1999/xlink" xmlns:sketch="http://www.bohemiancoding.com/sketch/ns">
    <!-- Generator: Sketch 3.2.2 (9983) - http://www.bohemiancoding.com/sketch -->
    <title>120 - Controls (Webby)</title>
    <desc>Created with Sketch.</desc>
    <defs></defs>
    <g id="Page-1" stroke="none" stroke-width="1" fill="none" fill-rule="evenodd" sketch:type="MSPage">
        <g id="Icons" sketch:type="MSArtboardGroup" transform="translate(-122.000000, -3480.000000)">
            <g id="120---Controls-(Webby)" sketch:type="MSLayerGroup" transform="translate(123.000000, 3481.000000)">
                <path d="M6,40 C9.314,40 12,42.686 12,46 C12,49.313 9.314,52 6,52 C2.686,52 0,49.313 0,46 C0,42.686 2.686,40 6,40 L6,40 Z" id="Fill-3" fill="#FFFFFF" sketch:type="MSShapeGroup"></path>
                <path d="M6,40 C9.314,40 12,42.686 12,46 C12,49.313 9.314,52 6,52 C2.686,52 0,49.313 0,46 C0,42.686 2.686,40 6,40 L6,40 Z" id="Stroke-4" stroke="#0F81E0" stroke-width="2" stroke-linecap="round" stroke-linejoin="round" sketch:type="MSShapeGroup"></path>
                <path d="M26.793,19.586 C30.221,19.586 33,22.365 33,25.793 C33,29.221 30.221,32 26.793,32 C23.365,32 20.586,29.221 20.586,25.793 C20.586,22.365 23.365,19.586 26.793,19.586 L26.793,19.586 Z" id="Fill-5" fill="#C6E3F8" sketch:type="MSShapeGroup"></path>
                <path d="M26.793,19.586 C30.221,19.586 33,22.365 33,25.793 C33,29.221 30.221,32 26.793,32 C23.365,32 20.586,29.221 20.586,25.793 C20.586,22.365 23.365,19.586 26.793,19.586 L26.793,19.586 Z" id="Stroke-6" stroke="#0F81E0" stroke-width="2" stroke-linecap="round" stroke-linejoin="round" sketch:type="MSShapeGroup"></path>
                <path d="M6,0 L6,40" id="Stroke-7" stroke="#0F81E0" stroke-width="2" stroke-linecap="round" stroke-linejoin="round" sketch:type="MSShapeGroup"></path>
                <path d="M48,12 C51.314,12 54,9.314 54,6 C54,2.686 51.314,0 48,0 C44.686,0 42,2.686 42,6 C42,9.314 44.686,12 48,12 L48,12 Z" id="Fill-8" fill="#FFFFFF" sketch:type="MSShapeGroup"></path>
                <path d="M48,12 C51.314,12 54,9.314 54,6 C54,2.686 51.314,0 48,0 C44.686,0 42,2.686 42,6 C42,9.314 44.686,12 48,12 L48,12 Z" id="Stroke-9" stroke="#0F81E0" stroke-width="2" stroke-linecap="round" stroke-linejoin="round" sketch:type="MSShapeGroup"></path>
                <path d="M48,52 L48,12 M27,0 L27,19 M27,32 L27,52" id="Stroke-10" stroke="#0F81E0" stroke-width="2" stroke-linecap="round" stroke-linejoin="round" sketch:type="MSShapeGroup"></path>
            </g>
        </g>
    </g>
</svg>