<?xml version="1.0" encoding="UTF-8" standalone="no"?>
<svg width="49px" height="56px" viewBox="0 0 49 56" version="1.1" xmlns="http://www.w3.org/2000/svg" xmlns:xlink="http://www.w3.org/1999/xlink" xmlns:sketch="http://www.bohemiancoding.com/sketch/ns">
    <!-- Generator: Sketch 3.2.2 (9983) - http://www.bohemiancoding.com/sketch -->
    <title>122 - Bookmark (Webby)</title>
    <desc>Created with Sketch.</desc>
    <defs></defs>
    <g id="Page-1" stroke="none" stroke-width="1" fill="none" fill-rule="evenodd" sketch:type="MSPage">
        <g id="Icons" sketch:type="MSArtboardGroup" transform="translate(-1085.000000, -3360.000000)">
            <g id="122---Bookmark-(Webby)" sketch:type="MSLayerGroup" transform="translate(1086.000000, 3361.000000)">
                <path d="M5.089,0 C2.279,0 0,2.279 0,5.09 L0,54 L18,42 L36,54 L36,6 C36,2.7 38.7,0 42,0 L5.089,0 L5.089,0 Z" id="Fill-468" fill="#FFFFFF" sketch:type="MSShapeGroup"></path>
                <path d="M5.089,0 C2.279,0 0,2.279 0,5.09 L0,54 L18,42 L36,54 L36,6 C36,2.7 38.7,0 42,0 L5.089,0 L5.089,0 Z" id="Stroke-469" stroke="#0F81E0" stroke-width="2" stroke-linecap="round" stroke-linejoin="round" sketch:type="MSShapeGroup"></path>
                <path d="M41.91,0.005 C38.651,0.054 36,2.731 36,6 L36,23 L47,23 L47,5.136 C47,2.315 44.725,0.03 41.91,0.005 L41.91,0.005 Z" id="Fill-470" fill="#C6E3F8" sketch:type="MSShapeGroup"></path>
                <path d="M41.91,0.005 C38.651,0.054 36,2.731 36,6 L36,23 L47,23 L47,5.136 C47,2.315 44.725,0.03 41.91,0.005 L41.91,0.005 Z" id="Stroke-471" stroke="#0F81E0" stroke-width="2" stroke-linecap="round" stroke-linejoin="round" sketch:type="MSShapeGroup"></path>
            </g>
        </g>
    </g>
</svg>