<?xml version="1.0" encoding="UTF-8" standalone="no"?>
<svg width="55px" height="60px" viewBox="0 0 55 60" version="1.1" xmlns="http://www.w3.org/2000/svg" xmlns:xlink="http://www.w3.org/1999/xlink" xmlns:sketch="http://www.bohemiancoding.com/sketch/ns">
    <!-- Generator: Sketch 3.2.2 (9983) - http://www.bohemiancoding.com/sketch -->
    <title>123 - Flag (Webby)</title>
    <desc>Created with Sketch.</desc>
    <defs></defs>
    <g id="Page-1" stroke="none" stroke-width="1" fill="none" fill-rule="evenodd" sketch:type="MSPage">
        <g id="Icons" sketch:type="MSArtboardGroup" transform="translate(-965.000000, -3357.000000)">
            <g id="123---Flag-(Webby)" sketch:type="MSLayerGroup" transform="translate(966.000000, 3358.000000)">
                <path d="M0,32 L0,58" id="Path" stroke="#0F81E0" stroke-width="2" stroke-linecap="round" stroke-linejoin="round" sketch:type="MSShapeGroup"></path>
                <path d="M0,3 L0,0" id="Path" stroke="#0F81E0" stroke-width="2" stroke-linecap="round" stroke-linejoin="round" sketch:type="MSShapeGroup"></path>
                <path d="M0,3 L22,3 L22,32 L0,32 L0,3 Z" id="Fill-464" fill="#FFFFFF" sketch:type="MSShapeGroup"></path>
                <path d="M0,3 L22,3 L22,32 L0,32 L0,3 Z" id="Stroke-465" stroke="#0F81E0" stroke-width="2" stroke-linecap="round" stroke-linejoin="round" sketch:type="MSShapeGroup"></path>
                <path d="M22,8 L22,32 L16,32 C13.791,32 12,33.791 12,36 C12,38.209 13.791,40 16,40 L53,40 L42,24 L53,8 L22,8 L22,8 Z" id="Fill-466" fill="#C6E3F8" sketch:type="MSShapeGroup"></path>
                <path d="M22,8 L22,32 L16,32 C13.791,32 12,33.791 12,36 C12,38.209 13.791,40 16,40 L53,40 L42,24 L53,8 L22,8 L22,8 Z" id="Stroke-467" stroke="#0F81E0" stroke-width="2" stroke-linecap="round" stroke-linejoin="round" sketch:type="MSShapeGroup"></path>
            </g>
        </g>
    </g>
</svg>