<?xml version="1.0" encoding="UTF-8" standalone="no"?>
<svg width="46px" height="60px" viewBox="0 0 46 60" version="1.1" xmlns="http://www.w3.org/2000/svg" xmlns:xlink="http://www.w3.org/1999/xlink" xmlns:sketch="http://www.bohemiancoding.com/sketch/ns">
    <!-- Generator: Sketch 3.2.2 (9983) - http://www.bohemiancoding.com/sketch -->
    <title>13 - Tech Power (Webby)</title>
    <desc>Created with Sketch.</desc>
    <defs></defs>
    <g id="Page-1" stroke="none" stroke-width="1" fill="none" fill-rule="evenodd" sketch:type="MSPage">
        <g id="Icons" sketch:type="MSArtboardGroup" transform="translate(-961.000000, -4677.000000)">
            <g id="13---Tech-Power-(Webby)" sketch:type="MSLayerGroup" transform="translate(962.000000, 4678.000000)">
                <path d="M19,47 L43,47 L43,58 L19,58 L19,47 Z" id="Fill-33" fill="#FFFFFF" sketch:type="MSShapeGroup"></path>
                <path d="M19,47 L43,47 L43,58 L19,58 L19,47 Z" id="Stroke-34" stroke="#0F81E0" stroke-width="2" stroke-linecap="round" stroke-linejoin="round" sketch:type="MSShapeGroup"></path>
                <path d="M35,58 L19,58 L19,47 L28.425,47 C32.056,47 35,49.943 35,53.575 L35,58 L35,58 Z" id="Stroke-35" stroke="#0F81E0" stroke-width="2" stroke-linecap="round" stroke-linejoin="round" sketch:type="MSShapeGroup"></path>
                <path d="M31,52.5 C31,53.881 29.881,55 28.5,55 C27.119,55 26,53.881 26,52.5 C26,51.119 27.119,50 28.5,50 C29.881,50 31,51.119 31,52.5 L31,52.5 Z" id="Fill-36" fill="#C6E3F8" sketch:type="MSShapeGroup"></path>
                <path d="M31,52.5 C31,53.881 29.881,55 28.5,55 C27.119,55 26,53.881 26,52.5 C26,51.119 27.119,50 28.5,50 C29.881,50 31,51.119 31,52.5 L31,52.5 Z" id="Stroke-37" stroke="#0F81E0" stroke-width="2" stroke-linecap="round" stroke-linejoin="round" sketch:type="MSShapeGroup"></path>
                <path d="M26.904,10.702 C28.137,10.16 29,8.932 29,7.5 C29,5.567 27.433,4 25.5,4 C24.067,4 22.839,4.863 22.298,6.095 L26.904,10.702 L26.904,10.702 Z" id="Fill-38" fill="#FFFFFF" sketch:type="MSShapeGroup"></path>
                <path d="M26.904,10.702 C28.137,10.16 29,8.932 29,7.5 C29,5.567 27.433,4 25.5,4 C24.067,4 22.839,4.863 22.298,6.095 L26.904,10.702 L26.904,10.702 Z" id="Stroke-39" stroke="#0F81E0" stroke-width="2" stroke-linecap="round" stroke-linejoin="round" sketch:type="MSShapeGroup"></path>
                <path d="M31.904,15.702 C33.137,15.161 34,13.932 34,12.5 C34,10.567 32.433,9 30.5,9 C29.067,9 27.839,9.863 27.298,11.096 L31.904,15.702 L31.904,15.702 Z" id="Fill-40" fill="#FFFFFF" sketch:type="MSShapeGroup"></path>
                <path d="M31.904,15.702 C33.137,15.161 34,13.932 34,12.5 C34,10.567 32.433,9 30.5,9 C29.067,9 27.839,9.863 27.298,11.096 L31.904,15.702 L31.904,15.702 Z" id="Stroke-41" stroke="#0F81E0" stroke-width="2" stroke-linecap="round" stroke-linejoin="round" sketch:type="MSShapeGroup"></path>
                <path d="M36.904,20.702 C38.137,20.16 39,18.933 39,17.5 C39,15.567 37.433,14 35.5,14 C34.067,14 32.839,14.863 32.298,16.095 L36.904,20.702 L36.904,20.702 Z" id="Fill-42" fill="#FFFFFF" sketch:type="MSShapeGroup"></path>
                <path d="M36.904,20.702 C38.137,20.16 39,18.933 39,17.5 C39,15.567 37.433,14 35.5,14 C34.067,14 32.839,14.863 32.298,16.095 L36.904,20.702 L36.904,20.702 Z" id="Stroke-43" stroke="#0F81E0" stroke-width="2" stroke-linecap="round" stroke-linejoin="round" sketch:type="MSShapeGroup"></path>
                <path d="M41.904,25.702 C43.137,25.16 44,23.932 44,22.5 C44,20.567 42.433,19 40.5,19 C39.067,19 37.839,19.863 37.298,21.095 L41.904,25.702 L41.904,25.702 Z" id="Fill-44" fill="#FFFFFF" sketch:type="MSShapeGroup"></path>
                <path d="M41.904,25.702 C43.137,25.16 44,23.932 44,22.5 C44,20.567 42.433,19 40.5,19 C39.067,19 37.839,19.863 37.298,21.095 L41.904,25.702 L41.904,25.702 Z" id="Stroke-45" stroke="#0F81E0" stroke-width="2" stroke-linecap="round" stroke-linejoin="round" sketch:type="MSShapeGroup"></path>
                <path d="M21.5,33 L11.5,33 C9.575,33 8,31.425 8,29.5 C8,27.575 9.575,26 11.5,26 L21.5,26 C23.425,26 25,27.575 25,29.5 C25,31.425 23.425,33 21.5,33 L21.5,33 Z" id="Fill-46" fill="#C6E3F8" sketch:type="MSShapeGroup"></path>
                <path d="M21.5,33 L11.5,33 C9.575,33 8,31.425 8,29.5 C8,27.575 9.575,26 11.5,26 L21.5,26 C23.425,26 25,27.575 25,29.5 C25,31.425 23.425,33 21.5,33 L21.5,33 Z" id="Stroke-47" stroke="#0F81E0" stroke-width="2" stroke-linecap="round" stroke-linejoin="round" sketch:type="MSShapeGroup"></path>
                <path d="M43.328,27.126 L16.874,0.672 C15.978,-0.224 14.526,-0.224 13.63,0.672 L1.318,12.984 C0.422,13.88 0.422,15.332 1.318,16.228 L11.127,26.038 C11.251,26.024 11.372,26 11.5,26 L21.5,26 C23.425,26 25,27.575 25,29.5 C25,31.425 23.425,33 21.5,33 L18.089,33 L27.772,42.682 C28.668,43.578 30.12,43.578 31.016,42.682 L43.328,30.371 C44.224,29.474 44.224,28.022 43.328,27.126 L43.328,27.126 Z" id="Fill-48" fill="#FFFFFF" sketch:type="MSShapeGroup"></path>
                <path d="M43.328,27.126 L16.874,0.672 C15.978,-0.224 14.526,-0.224 13.63,0.672 L1.318,12.984 C0.422,13.88 0.422,15.332 1.318,16.228 L11.127,26.038 C11.251,26.024 11.372,26 11.5,26 L21.5,26 C23.425,26 25,27.575 25,29.5 C25,31.425 23.425,33 21.5,33 L18.089,33 L27.772,42.682 C28.668,43.578 30.12,43.578 31.016,42.682 L43.328,30.371 C44.224,29.474 44.224,28.022 43.328,27.126 L43.328,27.126 Z" id="Stroke-49" stroke="#0F81E0" stroke-width="2" stroke-linecap="round" stroke-linejoin="round" sketch:type="MSShapeGroup"></path>
                <path d="M42.136,31.562 L31.016,42.682 C30.12,43.578 28.668,43.578 27.772,42.682 L18.089,33 L11.5,33 C10.922,33.282 9.345,32.262 9.95,32.781 L20.762,43.551 C20.836,43.625 20.922,43.678 21,43.745 L21,47 L41,47 L41,42.49 C42.819,41.121 44,38.951 44,36.5 C44,34.607 43.293,32.882 42.136,31.562 L42.136,31.562 Z" id="Fill-50" fill="#FFFFFF" sketch:type="MSShapeGroup"></path>
                <path d="M42.136,31.562 L31.016,42.682 C30.12,43.578 28.668,43.578 27.772,42.682 L18.089,33 L11.5,33 C10.922,33.282 9.345,32.262 9.95,32.781 L20.762,43.551 C20.836,43.625 20.922,43.678 21,43.745 L21,47 L41,47 L41,42.49 C42.819,41.121 44,38.951 44,36.5 C44,34.607 43.293,32.882 42.136,31.562 L42.136,31.562 Z" id="Stroke-51" stroke="#0F81E0" stroke-width="2" stroke-linecap="round" stroke-linejoin="round" sketch:type="MSShapeGroup"></path>
                <path d="M16.874,0.672 C15.978,-0.224 14.526,-0.224 13.63,0.672 L1.318,12.984 C0.422,13.88 0.422,15.332 1.318,16.228 L4.373,19.283 L19.929,3.727 L16.874,0.672 L16.874,0.672 Z" id="Stroke-52" stroke="#0F81E0" stroke-width="2" stroke-linecap="round" stroke-linejoin="round" sketch:type="MSShapeGroup"></path>
                <path d="M36,32 C36,33.657 34.657,35 33,35 C31.343,35 30,33.657 30,32 C30,30.343 31.343,29 33,29 C34.657,29 36,30.343 36,32 L36,32 Z" id="Fill-483" fill="#C6E3F8" sketch:type="MSShapeGroup"></path>
                <path d="M36,32 C36,33.657 34.657,35 33,35 C31.343,35 30,33.657 30,32 C30,30.343 31.343,29 33,29 C34.657,29 36,30.343 36,32 L36,32 Z" id="Stroke-484" stroke="#0F81E0" stroke-width="2" stroke-linecap="round" stroke-linejoin="round" sketch:type="MSShapeGroup"></path>
                <path d="M11,8 L9,10" id="Stroke-485" stroke="#0F81E0" stroke-width="2" stroke-linecap="round" stroke-linejoin="round" sketch:type="MSShapeGroup"></path>
            </g>
        </g>
    </g>
</svg>