<?xml version="1.0" encoding="UTF-8" standalone="no"?>
<svg width="60px" height="60px" viewBox="0 0 60 60" version="1.1" xmlns="http://www.w3.org/2000/svg" xmlns:xlink="http://www.w3.org/1999/xlink" xmlns:sketch="http://www.bohemiancoding.com/sketch/ns">
    <!-- Generator: Sketch 3.2.2 (9983) - http://www.bohemiancoding.com/sketch -->
    <title>130 - Command (Webby)</title>
    <desc>Created with Sketch.</desc>
    <defs></defs>
    <g id="Page-1" stroke="none" stroke-width="1" fill="none" fill-rule="evenodd" sketch:type="MSPage">
        <g id="Icons" sketch:type="MSArtboardGroup" transform="translate(-120.000000, -3357.000000)" stroke="#0F81E0" stroke-width="2" stroke-linecap="round" stroke-linejoin="round">
            <g id="130---Command-(Webby)" sketch:type="MSLayerGroup" transform="translate(121.000000, 3358.000000)">
                <path d="M18,18 L9,18 C4.029,18 0,13.971 0,9 C0,4.029 4.029,0 9,0 C13.971,0 18,4.029 18,9 L18,18 L18,18 Z M18,18 L40,18 L40,40 L18,40 L18,18 Z M9,58 L9,58 C4.029,58 0,53.971 0,49 C0,44.029 4.029,40 9,40 L18,40 L18,49 C18,53.971 13.971,58 9,58 L9,58 Z M49,18 L40,18 L40,9 C40,4.029 44.029,0 49,0 C53.971,0 58,4.029 58,9 C58,13.971 53.971,18 49,18 L49,18 Z M49,58 L49,58 C44.029,58 40,53.971 40,49 L40,40 L49,40 C53.971,40 58,44.029 58,49 C58,53.971 53.971,58 49,58 L49,58 Z" id="Stroke-444" sketch:type="MSShapeGroup"></path>
            </g>
        </g>
    </g>
</svg>