<?xml version="1.0" encoding="UTF-8" standalone="no"?>
<svg width="32px" height="60px" viewBox="0 0 32 60" version="1.1" xmlns="http://www.w3.org/2000/svg" xmlns:xlink="http://www.w3.org/1999/xlink" xmlns:sketch="http://www.bohemiancoding.com/sketch/ns">
    <!-- Generator: Sketch 3.2.2 (9983) - http://www.bohemiancoding.com/sketch -->
    <title>136 - Low Battery (Webby)</title>
    <desc>Created with Sketch.</desc>
    <defs></defs>
    <g id="Page-1" stroke="none" stroke-width="1" fill="none" fill-rule="evenodd" sketch:type="MSPage">
        <g id="Icons" sketch:type="MSArtboardGroup" transform="translate(-615.000000, -3237.000000)">
            <g id="136---Low-Battery-(Webby)" sketch:type="MSLayerGroup" transform="translate(616.000000, 3238.000000)">
                <path d="M10,0 L20,0 L20,4 L10,4 L10,0 Z" id="Fill-362" fill="#FFFFFF" sketch:type="MSShapeGroup"></path>
                <path d="M10,0 L20,0 L20,4 L10,4 L10,0 Z" id="Stroke-363" stroke="#0F81E0" stroke-width="2" stroke-linecap="round" stroke-linejoin="round" sketch:type="MSShapeGroup"></path>
                <path d="M27.536,58 L2.464,58 C1.103,58 0,56.897 0,55.536 L0,6.464 C0,5.103 1.103,4 2.464,4 L27.536,4 C28.897,4 30,5.103 30,6.464 L30,55.536 C30,56.897 28.897,58 27.536,58 L27.536,58 Z" id="Fill-364" fill="#FFFFFF" sketch:type="MSShapeGroup"></path>
                <path d="M27.536,58 L2.464,58 C1.103,58 0,56.897 0,55.536 L0,6.464 C0,5.103 1.103,4 2.464,4 L27.536,4 C28.897,4 30,5.103 30,6.464 L30,55.536 C30,56.897 28.897,58 27.536,58 L27.536,58 Z" id="Stroke-365" stroke="#0F81E0" stroke-width="2" stroke-linecap="round" stroke-linejoin="round" sketch:type="MSShapeGroup"></path>
                <path d="M0,45 L0,55.536 C0,56.897 1.103,58 2.464,58 L27.536,58 C28.897,58 30,56.897 30,55.536 L30,45 L0,45 L0,45 Z" id="Fill-847" fill="#C6E3F8" sketch:type="MSShapeGroup"></path>
                <path d="M0,45 L0,55.536 C0,56.897 1.103,58 2.464,58 L27.536,58 C28.897,58 30,56.897 30,55.536 L30,45 L0,45 L0,45 Z" id="Stroke-848" stroke="#0F81E0" stroke-width="2" stroke-linecap="round" stroke-linejoin="round" sketch:type="MSShapeGroup"></path>
            </g>
        </g>
    </g>
</svg>