<?xml version="1.0" encoding="UTF-8" standalone="no"?>
<svg width="60px" height="44px" viewBox="0 0 60 44" version="1.1" xmlns="http://www.w3.org/2000/svg" xmlns:xlink="http://www.w3.org/1999/xlink" xmlns:sketch="http://www.bohemiancoding.com/sketch/ns">
    <!-- Generator: Sketch 3.2.2 (9983) - http://www.bohemiancoding.com/sketch -->
    <title>141 - ID (Webby)</title>
    <desc>Created with Sketch.</desc>
    <defs></defs>
    <g id="Page-1" stroke="none" stroke-width="1" fill="none" fill-rule="evenodd" sketch:type="MSPage">
        <g id="Icons" sketch:type="MSArtboardGroup" transform="translate(-1200.000000, -3129.000000)">
            <g id="141---ID-(Webby)" sketch:type="MSLayerGroup" transform="translate(1201.000000, 3130.000000)">
                <path d="M54.783,42 L3.217,42 C1.44,42 0,40.56 0,38.783 L0,3.217 C0,1.44 1.44,0 3.217,0 L54.783,0 C56.56,0 58,1.44 58,3.217 L58,38.783 C58,40.56 56.56,42 54.783,42 L54.783,42 Z" id="Fill-597" fill="#FFFFFF" sketch:type="MSShapeGroup"></path>
                <path d="M54.783,42 L3.217,42 C1.44,42 0,40.56 0,38.783 L0,3.217 C0,1.44 1.44,0 3.217,0 L54.783,0 C56.56,0 58,1.44 58,3.217 L58,38.783 C58,40.56 56.56,42 54.783,42 L54.783,42 Z" id="Stroke-598" stroke="#0F81E0" stroke-width="2" stroke-linecap="round" stroke-linejoin="round" sketch:type="MSShapeGroup"></path>
                <path d="M33,17 L53,17 L53,37 L33,37 L33,17 Z" id="Fill-605" fill="#FFFFFF" sketch:type="MSShapeGroup"></path>
                <path d="M33,17 L53,17 L53,37 L33,37 L33,17 Z" id="Stroke-606" stroke="#0F81E0" stroke-width="2" stroke-linecap="round" stroke-linejoin="round" sketch:type="MSShapeGroup"></path>
                <path d="M47.791,34.092 L45.279,32.81 C45.108,32.722 45,32.546 45,32.353 L45,31.584 C46.289,31.029 47.03,29.95 47.39,28.601 C47.933,28.433 48.333,27.93 48.333,27.333 L48.333,26.667 C48.333,26.156 48.039,25.715 47.615,25.492 C47.321,22.984 45.664,21.97 43,21.97 C42.874,21.97 42.75,21.975 42.629,21.984 C41.724,22.056 40.808,21.886 40.054,21.379 C39.741,21.168 39.478,20.943 39.292,20.708 C39.208,20.601 39.039,20.669 39.054,20.805 C39.081,21.038 39.121,21.31 39.18,21.608 C39.4,22.715 39.269,22.553 38.841,23.597 C38.604,24.174 38.451,24.815 38.38,25.494 C37.959,25.719 37.667,26.158 37.667,26.667 L37.667,27.333 C37.667,27.93 38.067,28.433 38.61,28.601 C38.97,29.95 39.711,31.029 41,31.584 L41,32.348 C41,32.543 40.889,32.721 40.714,32.808 L38.14,34.075 C37.437,34.459 37,35.195 37,35.995 L37,36.606 L37,36.879 C37,36.92 37.011,36.961 37.028,37 L48.972,37 C48.989,36.961 49,36.92 49,36.879 L49,36.606 L49,36.049 C49,35.22 48.532,34.463 47.791,34.092 L47.791,34.092 Z" id="Fill-607" fill="#C6E3F8" sketch:type="MSShapeGroup"></path>
                <path d="M47.791,34.092 L45.279,32.81 C45.108,32.722 45,32.546 45,32.353 L45,31.584 C46.289,31.029 47.03,29.95 47.39,28.601 C47.933,28.433 48.333,27.93 48.333,27.333 L48.333,26.667 C48.333,26.156 48.039,25.715 47.615,25.492 C47.321,22.984 45.664,21.97 43,21.97 C42.874,21.97 42.75,21.975 42.629,21.984 C41.724,22.056 40.808,21.886 40.054,21.379 C39.741,21.168 39.478,20.943 39.292,20.708 C39.208,20.601 39.039,20.669 39.054,20.805 C39.081,21.038 39.121,21.31 39.18,21.608 C39.4,22.715 39.269,22.553 38.841,23.597 C38.604,24.174 38.451,24.815 38.38,25.494 C37.959,25.719 37.667,26.158 37.667,26.667 L37.667,27.333 C37.667,27.93 38.067,28.433 38.61,28.601 C38.97,29.95 39.711,31.029 41,31.584 L41,32.348 C41,32.543 40.889,32.721 40.714,32.808 L38.14,34.075 C37.437,34.459 37,35.195 37,35.995 L37,36.606 L37,36.879 C37,36.92 37.011,36.961 37.028,37 L48.972,37 C48.989,36.961 49,36.92 49,36.879 L49,36.606 L49,36.049 C49,35.22 48.532,34.463 47.791,34.092 L47.791,34.092 Z" id="Stroke-608" stroke="#0F81E0" stroke-width="2" stroke-linecap="round" stroke-linejoin="round" sketch:type="MSShapeGroup"></path>
                <path d="M0,5 L58,5 L58,13 L0,13 L0,5 Z" id="Fill-609" fill="#C6E3F8" sketch:type="MSShapeGroup"></path>
                <path d="M0,5 L58,5 L58,13 L0,13 L0,5 Z" id="Stroke-610" stroke="#0F81E0" stroke-width="2" stroke-linecap="round" stroke-linejoin="round" sketch:type="MSShapeGroup"></path>
                <path d="M5,19 L14,19 M18,19 L27,19 M5,24 L6,24 M10,24 L12,24 M16,24 L17,24 M21,24 L23,24" id="Stroke-611" stroke="#0F81E0" stroke-width="2" stroke-linecap="round" stroke-linejoin="round" sketch:type="MSShapeGroup"></path>
                <path d="M10.651,28.4 C7.807,29.881 7.41,33.112 7.313,36 C7.882,35.765 8.45,35.529 9.02,35.293 C8.084,34.509 7.149,33.726 6.214,32.942 C5.232,32.12 3.81,33.527 4.799,34.357 C5.735,35.14 6.67,35.924 7.605,36.707 C8.267,37.262 9.281,36.919 9.313,36 C9.385,33.833 9.49,31.257 11.661,30.127 C12.805,29.532 11.794,27.806 10.651,28.4" id="Fill-612" fill="#0F81E0" sketch:type="MSShapeGroup"></path>
                <path d="M11.651,33.08 C13.753,35.365 16.542,34.298 18.831,32.893 C18.375,32.773 17.918,32.654 17.462,32.534 C18.016,33.52 18.7,34.025 19.754,34.406 C20.663,34.734 23.841,33.186 24.087,33.523 C24.839,34.553 26.576,33.557 25.814,32.513 C25.391,31.934 24.954,31.451 24.181,31.392 C22.724,31.283 20.224,33.368 19.189,31.524 C18.927,31.057 18.28,30.885 17.821,31.166 C16.405,32.035 14.555,33.285 13.065,31.666 C12.19,30.715 10.78,32.133 11.651,33.08" id="Fill-613" fill="#0F81E0" sketch:type="MSShapeGroup"></path>
            </g>
        </g>
    </g>
</svg>