<?xml version="1.0" encoding="UTF-8" standalone="no"?>
<svg width="60px" height="44px" viewBox="0 0 60 44" version="1.1" xmlns="http://www.w3.org/2000/svg" xmlns:xlink="http://www.w3.org/1999/xlink" xmlns:sketch="http://www.bohemiancoding.com/sketch/ns">
    <!-- Generator: Sketch 3.2.2 (9983) - http://www.bohemiancoding.com/sketch -->
    <title>142 - Driver License (Webby)</title>
    <desc>Created with Sketch.</desc>
    <defs></defs>
    <g id="Page-1" stroke="none" stroke-width="1" fill="none" fill-rule="evenodd" sketch:type="MSPage">
        <g id="Icons" sketch:type="MSArtboardGroup" transform="translate(-1080.000000, -3129.000000)">
            <g id="142---Driver-License-(Webby)" sketch:type="MSLayerGroup" transform="translate(1081.000000, 3130.000000)">
                <path d="M54.783,42 L3.217,42 C1.44,42 0,40.56 0,38.783 L0,3.217 C0,1.44 1.44,0 3.217,0 L54.783,0 C56.56,0 58,1.44 58,3.217 L58,38.783 C58,40.56 56.56,42 54.783,42 L54.783,42 Z" id="Fill-590" fill="#FFFFFF" sketch:type="MSShapeGroup"></path>
                <path d="M54.783,42 L3.217,42 C1.44,42 0,40.56 0,38.783 L0,3.217 C0,1.44 1.44,0 3.217,0 L54.783,0 C56.56,0 58,1.44 58,3.217 L58,38.783 C58,40.56 56.56,42 54.783,42 L54.783,42 Z" id="Stroke-591" stroke="#0F81E0" stroke-width="2" stroke-linejoin="round" sketch:type="MSShapeGroup"></path>
                <path d="M21.186,28.138 L17.419,26.214 C17.162,26.083 17,25.818 17,25.53 L17,24.376 C18.933,23.544 20.044,21.925 20.585,19.902 C21.4,19.649 22,18.895 22,18 L22,17 C22,16.234 21.559,15.573 20.922,15.237 C20.482,11.476 17.995,9.955 14,9.955 C13.811,9.955 13.625,9.962 13.443,9.977 C12.085,10.084 10.712,9.829 9.582,9.068 C9.112,8.752 8.716,8.415 8.439,8.062 C8.312,7.901 8.058,8.004 8.082,8.207 C8.122,8.558 8.181,8.965 8.27,9.411 C8.6,11.072 8.403,10.829 7.761,12.396 C7.406,13.261 7.177,14.223 7.071,15.241 C6.438,15.578 6,16.237 6,17 L6,18 C6,18.895 6.6,19.649 7.415,19.902 C7.956,21.925 9.067,23.544 11,24.376 L11,25.522 C11,25.815 10.834,26.082 10.571,26.212 L6.71,28.113 C5.656,28.688 5,29.793 5,30.993 L5,31.909 L5,32.318 C5,33.448 9.029,34 14,34 C18.971,34 23,33.448 23,32.318 L23,31.909 L23,31.074 C23,29.831 22.298,28.694 21.186,28.138 L21.186,28.138 Z" id="Fill-594" fill="#C6E3F8" sketch:type="MSShapeGroup"></path>
                <path d="M21.186,28.138 L17.419,26.214 C17.162,26.083 17,25.818 17,25.53 L17,24.376 C18.933,23.544 20.044,21.925 20.585,19.902 C21.4,19.649 22,18.895 22,18 L22,17 C22,16.234 21.559,15.573 20.922,15.237 C20.482,11.476 17.995,9.955 14,9.955 C13.811,9.955 13.625,9.962 13.443,9.977 C12.085,10.084 10.712,9.829 9.582,9.068 C9.112,8.752 8.716,8.415 8.439,8.062 C8.312,7.901 8.058,8.004 8.082,8.207 C8.122,8.558 8.181,8.965 8.27,9.411 C8.6,11.072 8.403,10.829 7.761,12.396 C7.406,13.261 7.177,14.223 7.071,15.241 C6.438,15.578 6,16.237 6,17 L6,18 C6,18.895 6.6,19.649 7.415,19.902 C7.956,21.925 9.067,23.544 11,24.376 L11,25.522 C11,25.815 10.834,26.082 10.571,26.212 L6.71,28.113 C5.656,28.688 5,29.793 5,30.993 L5,31.909 L5,32.318 C5,33.448 9.029,34 14,34 C18.971,34 23,33.448 23,32.318 L23,31.909 L23,31.074 C23,29.831 22.298,28.694 21.186,28.138 L21.186,28.138 Z" id="Stroke-595" stroke="#0F81E0" stroke-width="2" stroke-linecap="round" stroke-linejoin="round" sketch:type="MSShapeGroup"></path>
                <path d="M29,13 L39,13 M43,13 L44,13 M29,30 L30,30 M34,30 L36,30 M40,30 L41,30 M45,30 L47,30 M29,19 L51,19 M29,25 L51,25" id="Stroke-596" stroke="#0F81E0" stroke-width="2" stroke-linecap="round" stroke-linejoin="round" sketch:type="MSShapeGroup"></path>
            </g>
        </g>
    </g>
</svg>