<?xml version="1.0" encoding="UTF-8" standalone="no"?>
<svg width="50px" height="60px" viewBox="0 0 50 60" version="1.1" xmlns="http://www.w3.org/2000/svg" xmlns:xlink="http://www.w3.org/1999/xlink" xmlns:sketch="http://www.bohemiancoding.com/sketch/ns">
    <!-- Generator: Sketch 3.2.2 (9983) - http://www.bohemiancoding.com/sketch -->
    <title>149 - Time-Tracking (Webby)</title>
    <desc>Created with Sketch.</desc>
    <defs></defs>
    <g id="Page-1" stroke="none" stroke-width="1" fill="none" fill-rule="evenodd" sketch:type="MSPage">
        <g id="Icons" sketch:type="MSArtboardGroup" transform="translate(-245.000000, -3117.000000)">
            <g id="149---Time-Tracking-(Webby)" sketch:type="MSLayerGroup" transform="translate(246.000000, 3118.000000)">
                <path d="M4,54 L44,54 L44,58 L4,58 L4,54 Z" id="Fill-545" fill="#FFFFFF" sketch:type="MSShapeGroup"></path>
                <path d="M4,54 L44,54 L44,58 L4,58 L4,54 Z" id="Stroke-546" stroke="#0F81E0" stroke-width="2" stroke-linecap="round" stroke-linejoin="round" sketch:type="MSShapeGroup"></path>
                <path d="M12.143,36.904 L24,29 L35.857,36.904 C37.82,38.214 39,40.418 39,42.778 L39,54 L9,54 L9,42.778 C9,40.418 10.18,38.214 12.143,36.904 L12.143,36.904 Z" id="Fill-547" fill="#FFFFFF" sketch:type="MSShapeGroup"></path>
                <path d="M12.143,36.904 L24,29 L35.857,36.904 C37.82,38.214 39,40.418 39,42.778 L39,54 L9,54 L9,42.778 C9,40.418 10.18,38.214 12.143,36.904 L12.143,36.904 Z" id="Stroke-548" stroke="#0F81E0" stroke-width="2" stroke-linecap="round" stroke-linejoin="round" sketch:type="MSShapeGroup"></path>
                <path d="M0,58 L4,58 M44,58 L48,58" id="Stroke-549" stroke="#0F81E0" stroke-width="2" stroke-linecap="round" stroke-linejoin="round" sketch:type="MSShapeGroup"></path>
                <path d="M4,4 L44,4 L44,0 L4,0 L4,4 Z" id="Fill-550" fill="#FFFFFF" sketch:type="MSShapeGroup"></path>
                <path d="M4,4 L44,4 L44,0 L4,0 L4,4 Z" id="Stroke-551" stroke="#0F81E0" stroke-width="2" stroke-linecap="round" stroke-linejoin="round" sketch:type="MSShapeGroup"></path>
                <path d="M12.143,21.096 L24,29 L35.857,21.096 C37.82,19.786 39,17.582 39,15.222 L39,4 L9,4 L9,15.222 C9,17.582 10.18,19.786 12.143,21.096 L12.143,21.096 Z" id="Fill-552" fill="#FFFFFF" sketch:type="MSShapeGroup"></path>
                <path d="M12.143,21.096 L24,29 L35.857,21.096 C37.82,19.786 39,17.582 39,15.222 L39,4 L9,4 L9,15.222 C9,17.582 10.18,19.786 12.143,21.096 L12.143,21.096 Z" id="Stroke-553" stroke="#0F81E0" stroke-width="2" stroke-linecap="round" stroke-linejoin="round" sketch:type="MSShapeGroup"></path>
                <path d="M0,0 L4,0" id="Path" stroke="#0F81E0" stroke-width="2" stroke-linecap="round" stroke-linejoin="round" sketch:type="MSShapeGroup"></path>
                <path d="M44,0 L48,0" id="Path" stroke="#0F81E0" stroke-width="2" stroke-linecap="round" stroke-linejoin="round" sketch:type="MSShapeGroup"></path>
                <path d="M13,13 L13,15.222 C13,16.247 13.509,17.199 14.362,17.768 L19,20.859" id="Path" stroke="#0F81E0" stroke-width="2" stroke-linecap="round" stroke-linejoin="round" sketch:type="MSShapeGroup"></path>
                <path d="M35,45.859 L35,43.638 C35,42.612 34.491,41.66 33.638,41.092 L29,38" id="Path" stroke="#0F81E0" stroke-width="2" stroke-linecap="round" stroke-linejoin="round" sketch:type="MSShapeGroup"></path>
            </g>
        </g>
    </g>
</svg>