<?xml version="1.0" encoding="UTF-8" standalone="no"?>
<svg width="46px" height="60px" viewBox="0 0 46 60" version="1.1" xmlns="http://www.w3.org/2000/svg" xmlns:xlink="http://www.w3.org/1999/xlink" xmlns:sketch="http://www.bohemiancoding.com/sketch/ns">
    <!-- Generator: Sketch 3.2.2 (9983) - http://www.bohemiancoding.com/sketch -->
    <title>150 - Time-Tracking (Webby)</title>
    <desc>Created with Sketch.</desc>
    <defs></defs>
    <g id="Page-1" stroke="none" stroke-width="1" fill="none" fill-rule="evenodd" sketch:type="MSPage">
        <g id="Icons" sketch:type="MSArtboardGroup" transform="translate(-128.000000, -3117.000000)">
            <g id="150---Time-Tracking-(Webby)" sketch:type="MSLayerGroup" transform="translate(129.000000, 3118.000000)">
                <path d="M42,4 L2,4 C0.895,4 0,3.105 0,2 C0,0.896 0.895,0 2,0 L42,0 C43.105,0 44,0.896 44,2 C44,3.105 43.105,4 42,4 L42,4 Z" id="Fill-478" fill="#FFFFFF" sketch:type="MSShapeGroup"></path>
                <path d="M42,4 L2,4 C0.895,4 0,3.105 0,2 C0,0.896 0.895,0 2,0 L42,0 C43.105,0 44,0.896 44,2 C44,3.105 43.105,4 42,4 L42,4 Z" id="Stroke-479" stroke="#0F81E0" stroke-width="2" stroke-linecap="round" stroke-linejoin="round" sketch:type="MSShapeGroup"></path>
                <path d="M42,58 L2,58 C0.895,58 0,57.105 0,56 C0,54.896 0.895,54 2,54 L42,54 C43.105,54 44,54.896 44,56 C44,57.105 43.105,58 42,58 L42,58 Z" id="Fill-480" fill="#FFFFFF" sketch:type="MSShapeGroup"></path>
                <path d="M42,58 L2,58 C0.895,58 0,57.105 0,56 C0,54.896 0.895,54 2,54 L42,54 C43.105,54 44,54.896 44,56 C44,57.105 43.105,58 42,58 L42,58 Z" id="Stroke-481" stroke="#0F81E0" stroke-width="2" stroke-linecap="round" stroke-linejoin="round" sketch:type="MSShapeGroup"></path>
                <path d="M24,29 L20,29 C12.733,25.972 8,18.872 8,11 L8,4 L36,4 L36,11 C36,18.872 31.267,25.972 24,29 L24,29 Z" id="Fill-482" fill="#FFFFFF" sketch:type="MSShapeGroup"></path>
                <path d="M24,29 L20,29 C12.733,25.972 8,18.872 8,11 L8,4 L36,4 L36,11 C36,18.872 31.267,25.972 24,29 L24,29 Z" id="Stroke-483" stroke="#0F81E0" stroke-width="2" stroke-linecap="round" stroke-linejoin="round" sketch:type="MSShapeGroup"></path>
                <path d="M20,29 L24,29 C31.267,32.028 36,39.128 36,47 L36,54 L8,54 L8,47 C8,39.128 12.733,32.028 20,29 L20,29 Z" id="Fill-484" fill="#FFFFFF" sketch:type="MSShapeGroup"></path>
                <path d="M20,29 L24,29 C31.267,32.028 36,39.128 36,47 L36,54 L8,54 L8,47 C8,39.128 12.733,32.028 20,29 L20,29 Z" id="Stroke-485" stroke="#0F81E0" stroke-width="2" stroke-linecap="round" stroke-linejoin="round" sketch:type="MSShapeGroup"></path>
                <path d="M11,53 C11,53.552 10.552,54 10,54 C9.448,54 9,53.552 9,53 C9,52.448 9.448,52 10,52 C10.552,52 11,52.448 11,53" id="Fill-486" fill="#0F81E0" sketch:type="MSShapeGroup"></path>
                <path d="M15,53 C15,53.552 14.552,54 14,54 C13.448,54 13,53.552 13,53 C13,52.448 13.448,52 14,52 C14.552,52 15,52.448 15,53" id="Fill-487" fill="#0F81E0" sketch:type="MSShapeGroup"></path>
                <path d="M19,53 C19,53.552 18.552,54 18,54 C17.448,54 17,53.552 17,53 C17,52.448 17.448,52 18,52 C18.552,52 19,52.448 19,53" id="Fill-488" fill="#0F81E0" sketch:type="MSShapeGroup"></path>
                <path d="M23,53 C23,53.552 22.552,54 22,54 C21.448,54 21,53.552 21,53 C21,52.448 21.448,52 22,52 C22.552,52 23,52.448 23,53" id="Fill-489" fill="#0F81E0" sketch:type="MSShapeGroup"></path>
                <path d="M27,53 C27,53.552 26.552,54 26,54 C25.448,54 25,53.552 25,53 C25,52.448 25.448,52 26,52 C26.552,52 27,52.448 27,53" id="Fill-490" fill="#0F81E0" sketch:type="MSShapeGroup"></path>
                <path d="M31,53 C31,53.552 30.552,54 30,54 C29.448,54 29,53.552 29,53 C29,52.448 29.448,52 30,52 C30.552,52 31,52.448 31,53" id="Fill-491" fill="#0F81E0" sketch:type="MSShapeGroup"></path>
                <path d="M35,53 C35,53.552 34.552,54 34,54 C33.448,54 33,53.552 33,53 C33,52.448 33.448,52 34,52 C34.552,52 35,52.448 35,53" id="Fill-492" fill="#0F81E0" sketch:type="MSShapeGroup"></path>
                <path d="M13,51 C13,51.552 12.552,52 12,52 C11.448,52 11,51.552 11,51 C11,50.448 11.448,50 12,50 C12.552,50 13,50.448 13,51" id="Fill-493" fill="#0F81E0" sketch:type="MSShapeGroup"></path>
                <path d="M17,51 C17,51.552 16.552,52 16,52 C15.448,52 15,51.552 15,51 C15,50.448 15.448,50 16,50 C16.552,50 17,50.448 17,51" id="Fill-494" fill="#0F81E0" sketch:type="MSShapeGroup"></path>
                <path d="M21,51 C21,51.552 20.552,52 20,52 C19.448,52 19,51.552 19,51 C19,50.448 19.448,50 20,50 C20.552,50 21,50.448 21,51" id="Fill-495" fill="#0F81E0" sketch:type="MSShapeGroup"></path>
                <path d="M25,51 C25,51.552 24.552,52 24,52 C23.448,52 23,51.552 23,51 C23,50.448 23.448,50 24,50 C24.552,50 25,50.448 25,51" id="Fill-496" fill="#0F81E0" sketch:type="MSShapeGroup"></path>
                <path d="M29,51 C29,51.552 28.552,52 28,52 C27.448,52 27,51.552 27,51 C27,50.448 27.448,50 28,50 C28.552,50 29,50.448 29,51" id="Fill-497" fill="#0F81E0" sketch:type="MSShapeGroup"></path>
                <path d="M33,51 C33,51.552 32.552,52 32,52 C31.448,52 31,51.552 31,51 C31,50.448 31.448,50 32,50 C32.552,50 33,50.448 33,51" id="Fill-498" fill="#0F81E0" sketch:type="MSShapeGroup"></path>
                <path d="M15,49 C15,49.552 14.552,50 14,50 C13.448,50 13,49.552 13,49 C13,48.448 13.448,48 14,48 C14.552,48 15,48.448 15,49" id="Fill-499" fill="#0F81E0" sketch:type="MSShapeGroup"></path>
                <path d="M19,49 C19,49.552 18.552,50 18,50 C17.448,50 17,49.552 17,49 C17,48.448 17.448,48 18,48 C18.552,48 19,48.448 19,49" id="Fill-500" fill="#0F81E0" sketch:type="MSShapeGroup"></path>
                <path d="M23,32 C23,32.552 22.552,33 22,33 C21.448,33 21,32.552 21,32 C21,31.448 21.448,31 22,31 C22.552,31 23,31.448 23,32" id="Fill-501" fill="#0F81E0" sketch:type="MSShapeGroup"></path>
                <path d="M17,21 C17,21.552 16.552,22 16,22 C15.448,22 15,21.552 15,21 C15,20.448 15.448,20 16,20 C16.552,20 17,20.448 17,21" id="Fill-502" fill="#0F81E0" sketch:type="MSShapeGroup"></path>
                <path d="M21,21 C21,21.552 20.552,22 20,22 C19.448,22 19,21.552 19,21 C19,20.448 19.448,20 20,20 C20.552,20 21,20.448 21,21" id="Fill-503" fill="#0F81E0" sketch:type="MSShapeGroup"></path>
                <path d="M25,21 C25,21.552 24.552,22 24,22 C23.448,22 23,21.552 23,21 C23,20.448 23.448,20 24,20 C24.552,20 25,20.448 25,21" id="Fill-504" fill="#0F81E0" sketch:type="MSShapeGroup"></path>
                <path d="M29,21 C29,21.552 28.552,22 28,22 C27.448,22 27,21.552 27,21 C27,20.448 27.448,20 28,20 C28.552,20 29,20.448 29,21" id="Fill-505" fill="#0F81E0" sketch:type="MSShapeGroup"></path>
                <path d="M27,19 C27,19.552 26.552,20 26,20 C25.448,20 25,19.552 25,19 C25,18.448 25.448,18 26,18 C26.552,18 27,18.448 27,19" id="Fill-506" fill="#0F81E0" sketch:type="MSShapeGroup"></path>
                <path d="M29,17 C29,17.552 28.552,18 28,18 C27.448,18 27,17.552 27,17 C27,16.448 27.448,16 28,16 C28.552,16 29,16.448 29,17" id="Fill-507" fill="#0F81E0" sketch:type="MSShapeGroup"></path>
                <path d="M19,19 C19,19.552 18.552,20 18,20 C17.448,20 17,19.552 17,19 C17,18.448 17.448,18 18,18 C18.552,18 19,18.448 19,19" id="Fill-508" fill="#0F81E0" sketch:type="MSShapeGroup"></path>
                <path d="M23,19 C23,19.552 22.552,20 22,20 C21.448,20 21,19.552 21,19 C21,18.448 21.448,18 22,18 C22.552,18 23,18.448 23,19" id="Fill-509" fill="#0F81E0" sketch:type="MSShapeGroup"></path>
                <path d="M17,17 C17,17.552 16.552,18 16,18 C15.448,18 15,17.552 15,17 C15,16.448 15.448,16 16,16 C16.552,16 17,16.448 17,17" id="Fill-510" fill="#0F81E0" sketch:type="MSShapeGroup"></path>
                <path d="M19,23 C19,23.552 18.552,24 18,24 C17.448,24 17,23.552 17,23 C17,22.448 17.448,22 18,22 C18.552,22 19,22.448 19,23" id="Fill-511" fill="#0F81E0" sketch:type="MSShapeGroup"></path>
                <path d="M21,25 C21,25.552 20.552,26 20,26 C19.448,26 19,25.552 19,25 C19,24.448 19.448,24 20,24 C20.552,24 21,24.448 21,25" id="Fill-512" fill="#0F81E0" sketch:type="MSShapeGroup"></path>
                <path d="M25,25 C25,25.552 24.552,26 24,26 C23.448,26 23,25.552 23,25 C23,24.448 23.448,24 24,24 C24.552,24 25,24.448 25,25" id="Fill-513" fill="#0F81E0" sketch:type="MSShapeGroup"></path>
                <path d="M23,23 C23,23.552 22.552,24 22,24 C21.448,24 21,23.552 21,23 C21,22.448 21.448,22 22,22 C22.552,22 23,22.448 23,23" id="Fill-514" fill="#0F81E0" sketch:type="MSShapeGroup"></path>
                <path d="M27,23 C27,23.552 26.552,24 26,24 C25.448,24 25,23.552 25,23 C25,22.448 25.448,22 26,22 C26.552,22 27,22.448 27,23" id="Fill-515" fill="#0F81E0" sketch:type="MSShapeGroup"></path>
                <path d="M23,35 C23,35.552 22.552,36 22,36 C21.448,36 21,35.552 21,35 C21,34.448 21.448,34 22,34 C22.552,34 23,34.448 23,35" id="Fill-516" fill="#0F81E0" sketch:type="MSShapeGroup"></path>
                <path d="M23,38 C23,38.552 22.552,39 22,39 C21.448,39 21,38.552 21,38 C21,37.448 21.448,37 22,37 C22.552,37 23,37.448 23,38" id="Fill-517" fill="#0F81E0" sketch:type="MSShapeGroup"></path>
                <path d="M23,41 C23,41.552 22.552,42 22,42 C21.448,42 21,41.552 21,41 C21,40.448 21.448,40 22,40 C22.552,40 23,40.448 23,41" id="Fill-518" fill="#0F81E0" sketch:type="MSShapeGroup"></path>
                <path d="M23,44 C23,44.552 22.552,45 22,45 C21.448,45 21,44.552 21,44 C21,43.448 21.448,43 22,43 C22.552,43 23,43.448 23,44" id="Fill-519" fill="#0F81E0" sketch:type="MSShapeGroup"></path>
                <path d="M23,47 C23,47.552 22.552,48 22,48 C21.448,48 21,47.552 21,47 C21,46.448 21.448,46 22,46 C22.552,46 23,46.448 23,47" id="Fill-520" fill="#0F81E0" sketch:type="MSShapeGroup"></path>
                <path d="M27,49 C27,49.552 26.552,50 26,50 C25.448,50 25,49.552 25,49 C25,48.448 25.448,48 26,48 C26.552,48 27,48.448 27,49" id="Fill-521" fill="#0F81E0" sketch:type="MSShapeGroup"></path>
                <path d="M31,49 C31,49.552 30.552,50 30,50 C29.448,50 29,49.552 29,49 C29,48.448 29.448,48 30,48 C30.552,48 31,48.448 31,49" id="Fill-522" fill="#0F81E0" sketch:type="MSShapeGroup"></path>
            </g>
        </g>
    </g>
</svg>