<?xml version="1.0" encoding="UTF-8" standalone="no"?>
<svg width="58px" height="58px" viewBox="0 0 58 58" version="1.1" xmlns="http://www.w3.org/2000/svg" xmlns:xlink="http://www.w3.org/1999/xlink" xmlns:sketch="http://www.bohemiancoding.com/sketch/ns">
    <!-- Generator: Sketch 3.2.2 (9983) - http://www.bohemiancoding.com/sketch -->
    <title>153 - Radar (Webby)</title>
    <desc>Created with Sketch.</desc>
    <defs></defs>
    <g id="Page-1" stroke="none" stroke-width="1" fill="none" fill-rule="evenodd" sketch:type="MSPage">
        <g id="Icons" sketch:type="MSArtboardGroup" transform="translate(-961.000000, -2998.000000)">
            <g id="153---Radar-(Webby)" sketch:type="MSLayerGroup" transform="translate(962.000000, 2999.000000)">
                <path d="M10.828,10.825 C9.266,12.387 6.734,12.387 5.172,10.825 C3.609,9.263 3.609,6.731 5.172,5.169 C6.734,3.606 9.266,3.606 10.828,5.169 C12.391,6.731 12.391,9.263 10.828,10.825 L10.828,10.825 Z" id="Fill-335" fill="#C6E3F8" sketch:type="MSShapeGroup"></path>
                <path d="M10.828,10.825 C9.266,12.387 6.734,12.387 5.172,10.825 C3.609,9.263 3.609,6.731 5.172,5.169 C6.734,3.606 9.266,3.606 10.828,5.169 C12.391,6.731 12.391,9.263 10.828,10.825 L10.828,10.825 Z" id="Stroke-336" stroke="#0F81E0" stroke-width="2" stroke-linecap="round" stroke-linejoin="round" sketch:type="MSShapeGroup"></path>
                <path d="M47.799,8.198 C37.811,-1.79 22.158,-2.649 11.188,5.609 C12.363,7.176 12.253,9.4 10.828,10.825 C9.403,12.25 7.179,12.36 5.612,11.185 C-2.646,22.155 -1.787,37.808 8.201,47.796 C19.136,58.731 36.864,58.731 47.799,47.796 C58.734,36.861 58.734,19.133 47.799,8.198 L47.799,8.198 Z" id="Fill-337" fill="#FFFFFF" sketch:type="MSShapeGroup"></path>
                <path d="M47.799,8.198 C37.811,-1.79 22.158,-2.649 11.188,5.609 C12.363,7.176 12.253,9.4 10.828,10.825 C9.403,12.25 7.179,12.36 5.612,11.185 C-2.646,22.155 -1.787,37.808 8.201,47.796 C19.136,58.731 36.864,58.731 47.799,47.796 C58.734,36.861 58.734,19.133 47.799,8.198 L47.799,8.198 Z" id="Stroke-338" stroke="#0F81E0" stroke-width="2" stroke-linecap="round" stroke-linejoin="round" sketch:type="MSShapeGroup"></path>
                <path d="M51.334,28.704 C49.772,30.266 47.24,30.266 45.678,28.704 C44.115,27.142 44.115,24.609 45.678,23.047 C47.24,21.485 49.772,21.485 51.334,23.047 C52.897,24.609 52.897,27.142 51.334,28.704 L51.334,28.704 Z" id="Fill-619" fill="#C6E3F8" sketch:type="MSShapeGroup"></path>
                <path d="M51.334,28.704 C49.772,30.266 47.24,30.266 45.678,28.704 C44.115,27.142 44.115,24.609 45.678,23.047 C47.24,21.485 49.772,21.485 51.334,23.047 C52.897,24.609 52.897,27.142 51.334,28.704 L51.334,28.704 Z" id="Stroke-620" stroke="#0F81E0" stroke-width="2" stroke-linecap="round" stroke-linejoin="round" sketch:type="MSShapeGroup"></path>
                <path d="M48.902,29.838 C47.75,29.952 46.56,29.586 45.678,28.704 C44.115,27.142 44.115,24.609 45.678,23.047 C46.353,22.372 47.211,22.007 48.092,21.915 C47.126,18.704 45.381,15.68 42.849,13.148 C34.662,4.96 21.338,4.96 13.151,13.148 C4.963,21.335 4.963,34.659 13.151,42.846 C21.338,51.034 34.662,51.034 42.849,42.846 C46.475,39.22 48.488,34.586 48.902,29.838 L48.902,29.838 Z" id="Fill-621" fill="#FFFFFF" sketch:type="MSShapeGroup"></path>
                <path d="M48.902,29.838 C47.75,29.952 46.56,29.586 45.678,28.704 C44.115,27.142 44.115,24.609 45.678,23.047 C46.353,22.372 47.211,22.007 48.092,21.915 C47.126,18.704 45.381,15.68 42.849,13.148 C34.662,4.96 21.338,4.96 13.151,13.148 C4.963,21.335 4.963,34.659 13.151,42.846 C21.338,51.034 34.662,51.034 42.849,42.846 C46.475,39.22 48.488,34.586 48.902,29.838 L48.902,29.838 Z" id="Stroke-622" stroke="#0F81E0" stroke-width="2" stroke-linecap="round" stroke-linejoin="round" sketch:type="MSShapeGroup"></path>
                <path d="M28,40.99 C24.524,40.99 21.259,39.64 18.808,37.189 C16.357,34.738 15.007,31.473 15.007,27.997 C15.007,24.52 16.357,21.256 18.808,18.805 C21.259,16.353 24.524,15.004 28,15.004 C31.477,15.004 34.741,16.353 37.192,18.805 C39.644,21.256 40.993,24.52 40.993,27.997 C40.993,31.473 39.644,34.738 37.192,37.189 C34.741,39.64 31.477,40.99 28,40.99 L28,40.99 Z" id="Fill-623" fill="#FFFFFF" sketch:type="MSShapeGroup"></path>
                <path d="M28,40.99 C24.524,40.99 21.259,39.64 18.808,37.189 C16.357,34.738 15.007,31.473 15.007,27.997 C15.007,24.52 16.357,21.256 18.808,18.805 C21.259,16.353 24.524,15.004 28,15.004 C31.477,15.004 34.741,16.353 37.192,18.805 C39.644,21.256 40.993,24.52 40.993,27.997 C40.993,31.473 39.644,34.738 37.192,37.189 C34.741,39.64 31.477,40.99 28,40.99 L28,40.99 Z" id="Stroke-624" stroke="#0F81E0" stroke-width="2" stroke-linecap="round" stroke-linejoin="round" sketch:type="MSShapeGroup"></path>
                <path d="M28,27.997 L50.5,5.497" id="Stroke-625" stroke="#0F81E0" stroke-width="2" stroke-linecap="round" stroke-linejoin="round" sketch:type="MSShapeGroup"></path>
            </g>
        </g>
    </g>
</svg>