<?xml version="1.0" encoding="UTF-8" standalone="no"?>
<svg width="60px" height="51px" viewBox="0 0 60 51" version="1.1" xmlns="http://www.w3.org/2000/svg" xmlns:xlink="http://www.w3.org/1999/xlink" xmlns:sketch="http://www.bohemiancoding.com/sketch/ns">
    <!-- Generator: Sketch 3.2.2 (9983) - http://www.bohemiancoding.com/sketch -->
    <title>158 - Map (Webby)</title>
    <desc>Created with Sketch.</desc>
    <defs></defs>
    <g id="Page-1" stroke="none" stroke-width="1" fill="none" fill-rule="evenodd" sketch:type="MSPage">
        <g id="Icons" sketch:type="MSArtboardGroup" transform="translate(-360.000000, -3001.000000)">
            <g id="158---Map-(Webby)" sketch:type="MSLayerGroup" transform="translate(361.000000, 3002.000000)">
                <path d="M15,43 L0,49 L0,6 L15,0 L15,43 L15,43 Z" id="Fill-279" fill="#FFFFFF" sketch:type="MSShapeGroup"></path>
                <path d="M15,43 L0,49 L0,6 L15,0 L15,43 L15,43 Z" id="Stroke-280" stroke="#0F81E0" stroke-width="2" stroke-linecap="round" stroke-linejoin="round" sketch:type="MSShapeGroup"></path>
                <path d="M29,49 L15,43 L15,0 L29,6 L29,49 L29,49 Z" id="Fill-281" fill="#C6E3F8" sketch:type="MSShapeGroup"></path>
                <path d="M29,49 L15,43 L15,0 L29,6 L29,49 L29,49 Z" id="Stroke-282" stroke="#0F81E0" stroke-width="2" stroke-linecap="round" stroke-linejoin="round" sketch:type="MSShapeGroup"></path>
                <path d="M43,43 L29,49 L29,6 L43,0 L43,43 L43,43 Z" id="Fill-283" fill="#FFFFFF" sketch:type="MSShapeGroup"></path>
                <path d="M43,43 L29,49 L29,6 L43,0 L43,43 L43,43 Z" id="Stroke-284" stroke="#0F81E0" stroke-width="2" stroke-linecap="round" stroke-linejoin="round" sketch:type="MSShapeGroup"></path>
                <path d="M58,49 L43,43 L43,0 L58,7 L58,49 L58,49 Z" id="Fill-285" fill="#C6E3F8" sketch:type="MSShapeGroup"></path>
                <path d="M58,49 L43,43 L43,0 L58,7 L58,49 L58,49 Z" id="Stroke-286" stroke="#0F81E0" stroke-width="2" stroke-linecap="round" stroke-linejoin="round" sketch:type="MSShapeGroup"></path>
            </g>
        </g>
    </g>
</svg>