<?xml version="1.0" encoding="UTF-8" standalone="no"?>
<svg width="54px" height="52px" viewBox="0 0 54 52" version="1.1" xmlns="http://www.w3.org/2000/svg" xmlns:xlink="http://www.w3.org/1999/xlink" xmlns:sketch="http://www.bohemiancoding.com/sketch/ns">
    <!-- Generator: Sketch 3.2.2 (9983) - http://www.bohemiancoding.com/sketch -->
    <title>159 - Track (Webby)</title>
    <desc>Created with Sketch.</desc>
    <defs></defs>
    <g id="Page-1" stroke="none" stroke-width="1" fill="none" fill-rule="evenodd" sketch:type="MSPage">
        <g id="Icons" sketch:type="MSArtboardGroup" transform="translate(-243.000000, -3001.000000)">
            <g id="159---Track-(Webby)" sketch:type="MSLayerGroup" transform="translate(244.000000, 3002.000000)">
                <path d="M18,43 L0,49 L0,6 L18,0 L18,43 L18,43 Z" id="Fill-287" fill="#FFFFFF" sketch:type="MSShapeGroup"></path>
                <path d="M18,43 L0,49 L0,6 L18,0 L18,43 L18,43 Z" id="Stroke-288" stroke="#0F81E0" stroke-width="2" stroke-linecap="round" stroke-linejoin="round" sketch:type="MSShapeGroup"></path>
                <path d="M52,41 L35,50 L35,9 L52,0 L52,41 L52,41 Z" id="Fill-289" fill="#FFFFFF" sketch:type="MSShapeGroup"></path>
                <path d="M52,41 L35,50 L35,9 L52,0 L52,41 L52,41 Z" id="Stroke-290" stroke="#0F81E0" stroke-width="2" stroke-linecap="round" stroke-linejoin="round" sketch:type="MSShapeGroup"></path>
                <path d="M35,50 L18,43 L18,0 L35,9 L35,50 L35,50 Z" id="Fill-291" fill="#FFFFFF" sketch:type="MSShapeGroup"></path>
                <path d="M35,50 L18,43 L18,0 L35,9 L35,50 L35,50 Z" id="Stroke-292" stroke="#0F81E0" stroke-width="2" stroke-linecap="round" stroke-linejoin="round" sketch:type="MSShapeGroup"></path>
                <path d="M10,16 L10,19" id="Stroke-293" stroke="#0F81E0" stroke-width="2" stroke-linecap="round" stroke-linejoin="round" sketch:type="MSShapeGroup"></path>
                <path d="M14,12 C14,14.209 12.209,16 10,16 C7.791,16 6,14.209 6,12 C6,9.791 7.791,8 10,8 C12.209,8 14,9.791 14,12 L14,12 Z" id="Fill-294" fill="#C6E3F8" sketch:type="MSShapeGroup"></path>
                <path d="M14,12 C14,14.209 12.209,16 10,16 C7.791,16 6,14.209 6,12 C6,9.791 7.791,8 10,8 C12.209,8 14,9.791 14,12 L14,12 Z" id="Stroke-295" stroke="#0F81E0" stroke-width="2" stroke-linejoin="round" sketch:type="MSShapeGroup"></path>
                <path d="M6,41 C6,41 8.167,25.167 27,30 C27,30 47.5,40.5 46,11" id="Stroke-296" stroke="#0F81E0" stroke-width="2" stroke-linecap="round" stroke-linejoin="round" stroke-dasharray="3" sketch:type="MSShapeGroup"></path>
                <path d="M8,22 L12,26" id="Path-3" stroke="#0F81E0" stroke-width="2" stroke-linecap="round" stroke-linejoin="round" sketch:type="MSShapeGroup"></path>
                <path d="M8,26 L12,22" id="Path-2" stroke="#0F81E0" stroke-width="2" stroke-linecap="round" stroke-linejoin="round" sketch:type="MSShapeGroup"></path>
            </g>
        </g>
    </g>
</svg>