<?xml version="1.0" encoding="UTF-8" standalone="no"?>
<svg width="55px" height="51px" viewBox="0 0 55 51" version="1.1" xmlns="http://www.w3.org/2000/svg" xmlns:xlink="http://www.w3.org/1999/xlink" xmlns:sketch="http://www.bohemiancoding.com/sketch/ns">
    <!-- Generator: Sketch 3.2.2 (9983) - http://www.bohemiancoding.com/sketch -->
    <title>160 - Map (Webby)</title>
    <desc>Created with Sketch.</desc>
    <defs></defs>
    <g id="Page-1" stroke="none" stroke-width="1" fill="none" fill-rule="evenodd" sketch:type="MSPage">
        <g id="Icons" sketch:type="MSArtboardGroup" transform="translate(-122.000000, -3001.000000)">
            <g id="160---Map-(Webby)" sketch:type="MSLayerGroup" transform="translate(123.000000, 3002.000000)">
                <path d="M18,45 L0,49 L0,6 L18,2 L18,45 L18,45 Z" id="Fill-273" fill="#FFFFFF" sketch:type="MSShapeGroup"></path>
                <path d="M18,45 L0,49 L0,6 L18,2 L18,45 L18,45 Z" id="Stroke-274" stroke="#0F81E0" stroke-width="2" stroke-linecap="round" stroke-linejoin="round" sketch:type="MSShapeGroup"></path>
                <path d="M53,41 L35,48 L35,6 L53,0 L53,41 L53,41 Z" id="Fill-275" fill="#FFFFFF" sketch:type="MSShapeGroup"></path>
                <path d="M53,41 L35,48 L35,6 L53,0 L53,41 L53,41 Z" id="Stroke-276" stroke="#0F81E0" stroke-width="2" stroke-linecap="round" stroke-linejoin="round" sketch:type="MSShapeGroup"></path>
                <path d="M35,48 L18,45 L18,2 L35,6 L35,48 L35,48 Z" id="Fill-277" fill="#C6E3F8" sketch:type="MSShapeGroup"></path>
                <path d="M35,48 L18,45 L18,2 L35,6 L35,48 L35,48 Z" id="Stroke-278" stroke="#0F81E0" stroke-width="2" stroke-linecap="round" stroke-linejoin="round" sketch:type="MSShapeGroup"></path>
            </g>
        </g>
    </g>
</svg>