<?xml version="1.0" encoding="UTF-8" standalone="no"?>
<svg width="60px" height="60px" viewBox="0 0 60 60" version="1.1" xmlns="http://www.w3.org/2000/svg" xmlns:xlink="http://www.w3.org/1999/xlink" xmlns:sketch="http://www.bohemiancoding.com/sketch/ns">
    <!-- Generator: Sketch 3.2.2 (9983) - http://www.bohemiancoding.com/sketch -->
    <title>17 - Rotate Portrait (Webby)</title>
    <desc>Created with Sketch.</desc>
    <defs></defs>
    <g id="Page-1" stroke="none" stroke-width="1" fill="none" fill-rule="evenodd" sketch:type="MSPage">
        <g id="Icons" sketch:type="MSArtboardGroup" transform="translate(-480.000000, -4677.000000)">
            <g id="17---Rotate-Portrait-(Webby)" sketch:type="MSLayerGroup" transform="translate(481.000000, 4678.000000)">
                <path d="M0,54.595 L0,29.405 C0,27.525 1.525,26 3.405,26 L54.595,26 C56.475,26 58,27.525 58,29.405 L58,54.595 C58,56.475 56.475,58 54.595,58 L3.405,58 C1.525,58 0,56.475 0,54.595 L0,54.595 Z" id="Fill-76" fill="#FFFFFF" sketch:type="MSShapeGroup"></path>
                <path d="M0,54.595 L0,29.405 C0,27.525 1.525,26 3.405,26 L54.595,26 C56.475,26 58,27.525 58,29.405 L58,54.595 C58,56.475 56.475,58 54.595,58 L3.405,58 C1.525,58 0,56.475 0,54.595 L0,54.595 Z" id="Stroke-77" stroke="#0F81E0" stroke-width="2" stroke-linecap="round" stroke-linejoin="round" sketch:type="MSShapeGroup"></path>
                <path d="M6,45 C4.343,45 3,43.656 3,42 C3,40.343 4.343,39 6,39 C7.657,39 9,40.343 9,42 C9,43.656 7.657,45 6,45 L6,45 Z" id="Fill-78" fill="#C6E3F8" sketch:type="MSShapeGroup"></path>
                <path d="M6,45 C4.343,45 3,43.656 3,42 C3,40.343 4.343,39 6,39 C7.657,39 9,40.343 9,42 C9,43.656 7.657,45 6,45 L6,45 Z" id="Stroke-79" stroke="#0F81E0" stroke-width="2" stroke-linecap="round" stroke-linejoin="round" sketch:type="MSShapeGroup"></path>
                <path d="M12,26 L12,58 L12,26 Z" id="Path" stroke="#0F81E0" stroke-width="2" stroke-linecap="round" stroke-linejoin="round" sketch:type="MSShapeGroup"></path>
                <path d="M52,26 L52,58 L52,26 Z" id="Path" stroke="#0F81E0" stroke-width="2" stroke-linecap="round" stroke-linejoin="round" sketch:type="MSShapeGroup"></path>
                <path d="M55,38 L55,42 L55,38 Z" id="Path" stroke="#0F81E0" stroke-width="2" stroke-linecap="round" stroke-linejoin="round" sketch:type="MSShapeGroup"></path>
                <path d="M55,45 L55,46 L55,45 Z" id="Path" stroke="#0F81E0" stroke-width="2" stroke-linecap="round" stroke-linejoin="round" sketch:type="MSShapeGroup"></path>
                <path d="M30,6 L56,6 L30,6 Z" id="Path" stroke="#0F81E0" stroke-width="2" stroke-linecap="round" stroke-linejoin="round" stroke-dasharray="4" sketch:type="MSShapeGroup"></path>
                <path d="M27,3.405 L27,26 L54.594,26 C56.475,26 58,27.525 58,29.405 L58,3.405 C58,1.525 56.475,0 54.594,0 L30.405,0 C28.525,0 27,1.525 27,3.405 L27,3.405 Z" id="Path" stroke="#0F81E0" stroke-width="2" stroke-linecap="round" stroke-linejoin="round" stroke-dasharray="4" sketch:type="MSShapeGroup"></path>
                <path d="M15,8 C8.367,8 3,13.367 3,20" id="Path" stroke="#0F81E0" stroke-width="2" stroke-linecap="round" stroke-linejoin="round" sketch:type="MSShapeGroup"></path>
                <path d="M14,14 L20,8 L14,14 Z" id="Path" stroke="#0F81E0" stroke-width="2" stroke-linecap="round" stroke-linejoin="round" sketch:type="MSShapeGroup"></path>
                <path d="M20,8 L14,2 L20,8 Z" id="Path" stroke="#0F81E0" stroke-width="2" stroke-linecap="round" stroke-linejoin="round" sketch:type="MSShapeGroup"></path>
                <path d="M20,8 L15,8 L20,8 Z" id="Path" stroke="#0F81E0" stroke-width="2" stroke-linecap="round" stroke-linejoin="round" sketch:type="MSShapeGroup"></path>
            </g>
        </g>
    </g>
</svg>