<?xml version="1.0" encoding="UTF-8" standalone="no"?>
<svg width="60px" height="51px" viewBox="0 0 60 51" version="1.1" xmlns="http://www.w3.org/2000/svg" xmlns:xlink="http://www.w3.org/1999/xlink" xmlns:sketch="http://www.bohemiancoding.com/sketch/ns">
    <!-- Generator: Sketch 3.2.2 (9983) - http://www.bohemiancoding.com/sketch -->
    <title>171 - Cloud Download (Webby)</title>
    <desc>Created with Sketch.</desc>
    <defs></defs>
    <g id="Page-1" stroke="none" stroke-width="1" fill="none" fill-rule="evenodd" sketch:type="MSPage">
        <g id="Icons" sketch:type="MSArtboardGroup" transform="translate(-1200.000000, -2766.000000)" stroke="#0F81E0" stroke-width="2" stroke-linecap="round" stroke-linejoin="round">
            <g id="171---Cloud-Download-(Webby)" sketch:type="MSLayerGroup" transform="translate(1201.000000, 2767.000000)">
                <path d="M49.003,16 C49.003,16 46.469,15.625 44,16" id="Path" sketch:type="MSShapeGroup"></path>
                <path d="M7,14 C7,9.582 10.582,6 15,6 C19.418,6 23,9.582 23,14" id="Path" sketch:type="MSShapeGroup"></path>
                <path d="M43,38 L46.972,38 C53.037,38 58,33.038 58,26.972 C58,21.601 54.106,16.962 49.003,16 C48.889,7.301 41.811,0 33.084,0 C27.525,0 22.306,3.005 19.424,7.336 C18.156,6.493 16.636,6 15,6 C10.582,6 7,9.582 7,14 C7,14.153 7.014,14.303 7.023,14.454 C7.013,14.637 7,14.82 7,15 C3.011,16.912 0,21.457 0,26.155 C0,32.67 5.33,38 11.845,38 L17,38" id="Path" sketch:type="MSShapeGroup"></path>
                <path d="M30,26 L30,49" id="Path" sketch:type="MSShapeGroup"></path>
                <path d="M30,49 L22,41" id="Path" sketch:type="MSShapeGroup"></path>
                <path d="M38,41 L30,49" id="Path" sketch:type="MSShapeGroup"></path>
            </g>
        </g>
    </g>
</svg>