<?xml version="1.0" encoding="UTF-8" standalone="no"?>
<svg width="60px" height="60px" viewBox="0 0 60 60" version="1.1" xmlns="http://www.w3.org/2000/svg" xmlns:xlink="http://www.w3.org/1999/xlink" xmlns:sketch="http://www.bohemiancoding.com/sketch/ns">
    <!-- Generator: Sketch 3.2.2 (9983) - http://www.bohemiancoding.com/sketch -->
    <title>173 - Databases (Webby)</title>
    <desc>Created with Sketch.</desc>
    <defs></defs>
    <g id="Page-1" stroke="none" stroke-width="1" fill="none" fill-rule="evenodd" sketch:type="MSPage">
        <g id="Icons" sketch:type="MSArtboardGroup" transform="translate(-960.000000, -2757.000000)">
            <g id="173---Databases-(Webby)" sketch:type="MSLayerGroup" transform="translate(961.000000, 2758.000000)">
                <path d="M24,46 C10.745,46 0,42.194 0,37.5 L0,50 L0.045,50 C0.776,54.462 11.219,58 24,58 C36.78,58 47.224,54.462 47.955,50 L48,50 L48,37.5 C48,42.194 37.255,46 24,46 L24,46 Z" id="Fill-196" fill="#FFFFFF" sketch:type="MSShapeGroup"></path>
                <path d="M24,46 C10.745,46 0,42.194 0,37.5 L0,50 L0.045,50 C0.776,54.462 11.219,58 24,58 C36.78,58 47.224,54.462 47.955,50 L48,50 L48,37.5 C48,42.194 37.255,46 24,46 L24,46 Z" id="Stroke-197" stroke="#0F81E0" stroke-width="2" stroke-linecap="round" stroke-linejoin="round" sketch:type="MSShapeGroup"></path>
                <path d="M0,37 L0,37.5 C0,37.332 0.018,37.166 0.045,37 L0,37 L0,37 Z" id="Fill-198" fill="#FFFFFF" sketch:type="MSShapeGroup"></path>
                <path d="M0,37 L0,37.5 C0,37.332 0.018,37.166 0.045,37 L0,37 L0,37 Z" id="Stroke-199" stroke="#0F81E0" stroke-width="2" stroke-linecap="round" stroke-linejoin="round" sketch:type="MSShapeGroup"></path>
                <path d="M47.955,37 C47.982,37.166 48,37.332 48,37.5 L48,37 L47.955,37 L47.955,37 Z" id="Fill-200" fill="#FFFFFF" sketch:type="MSShapeGroup"></path>
                <path d="M47.955,37 C47.982,37.166 48,37.332 48,37.5 L48,37 L47.955,37 L47.955,37 Z" id="Stroke-201" stroke="#0F81E0" stroke-width="2" stroke-linecap="round" stroke-linejoin="round" sketch:type="MSShapeGroup"></path>
                <path d="M24,34 C10.745,34 0,30.194 0,25.5 L0,38 L0.045,38 C0.776,42.462 11.219,46 24,46 C36.78,46 47.224,42.462 47.955,38 L48,38 L48,25.5 C48,30.194 37.255,34 24,34 L24,34 Z" id="Fill-202" fill="#C6E3F8" sketch:type="MSShapeGroup"></path>
                <path d="M24,34 C10.745,34 0,30.194 0,25.5 L0,38 L0.045,38 C0.776,42.462 11.219,46 24,46 C36.78,46 47.224,42.462 47.955,38 L48,38 L48,25.5 C48,30.194 37.255,34 24,34 L24,34 Z" id="Stroke-203" stroke="#0F81E0" stroke-width="2" stroke-linecap="round" stroke-linejoin="round" sketch:type="MSShapeGroup"></path>
                <path d="M0,25 L0,25.5 C0,25.332 0.018,25.166 0.045,25 L0,25 L0,25 Z" id="Fill-204" fill="#C6E3F8" sketch:type="MSShapeGroup"></path>
                <path d="M0,25 L0,25.5 C0,25.332 0.018,25.166 0.045,25 L0,25 L0,25 Z" id="Stroke-205" stroke="#0F81E0" stroke-width="2" stroke-linecap="round" stroke-linejoin="round" sketch:type="MSShapeGroup"></path>
                <path d="M47.955,25 C47.982,25.166 48,25.332 48,25.5 L48,25 L47.955,25 L47.955,25 Z" id="Fill-206" fill="#C6E3F8" sketch:type="MSShapeGroup"></path>
                <path d="M47.955,25 C47.982,25.166 48,25.332 48,25.5 L48,25 L47.955,25 L47.955,25 Z" id="Stroke-207" stroke="#0F81E0" stroke-width="2" stroke-linecap="round" stroke-linejoin="round" sketch:type="MSShapeGroup"></path>
                <path d="M48,13.5 C48,18.194 37.255,22 24,22 C10.745,22 0,18.194 0,13.5 C0,8.806 10.745,5 24,5 C37.255,5 48,8.806 48,13.5 L48,13.5 Z" id="Fill-208" fill="#FFFFFF" sketch:type="MSShapeGroup"></path>
                <path d="M48,13.5 C48,18.194 37.255,22 24,22 C10.745,22 0,18.194 0,13.5 C0,8.806 10.745,5 24,5 C37.255,5 48,8.806 48,13.5 L48,13.5 Z" id="Stroke-209" stroke="#0F81E0" stroke-width="2" stroke-linecap="round" stroke-linejoin="round" sketch:type="MSShapeGroup"></path>
                <path d="M24,22 C10.745,22 0,18.194 0,13.5 L0,26 L0.045,26 C0.776,30.462 11.219,34 24,34 C36.78,34 47.224,30.462 47.955,26 L48,26 L48,13.5 C48,18.194 37.255,22 24,22 L24,22 Z" id="Fill-210" fill="#FFFFFF" sketch:type="MSShapeGroup"></path>
                <path d="M24,22 C10.745,22 0,18.194 0,13.5 L0,26 L0.045,26 C0.776,30.462 11.219,34 24,34 C36.78,34 47.224,30.462 47.955,26 L48,26 L48,13.5 C48,18.194 37.255,22 24,22 L24,22 Z" id="Stroke-211" stroke="#0F81E0" stroke-width="2" stroke-linecap="round" stroke-linejoin="round" sketch:type="MSShapeGroup"></path>
                <path d="M0,13 L0,13.5 C0,13.332 0.018,13.166 0.045,13 L0,13 L0,13 Z" id="Fill-212" fill="#FFFFFF" sketch:type="MSShapeGroup"></path>
                <path d="M0,13 L0,13.5 C0,13.332 0.018,13.166 0.045,13 L0,13 L0,13 Z" id="Stroke-213" stroke="#0F81E0" stroke-width="2" stroke-linecap="round" stroke-linejoin="round" sketch:type="MSShapeGroup"></path>
                <path d="M47.955,13 C47.982,13.166 48,13.332 48,13.5 L48,13 L47.955,13 L47.955,13 Z" id="Fill-214" fill="#FFFFFF" sketch:type="MSShapeGroup"></path>
                <path d="M47.955,13 C47.982,13.166 48,13.332 48,13.5 L48,13 L47.955,13 L47.955,13 Z" id="Stroke-215" stroke="#0F81E0" stroke-width="2" stroke-linecap="round" stroke-linejoin="round" sketch:type="MSShapeGroup"></path>
                <path d="M34,0 C22.772,0 13.347,2.731 10.727,6.42 C14.529,5.524 19.09,5 24,5 C36.781,5 47.224,8.538 47.955,13 L48,13 L48,15.402 C54.054,13.859 58,11.343 58,8.5 C58,3.806 47.255,0 34,0 L34,0 Z" id="Fill-237" fill="#FFFFFF" sketch:type="MSShapeGroup"></path>
                <path d="M34,0 C22.772,0 13.347,2.731 10.727,6.42 C14.529,5.524 19.09,5 24,5 C36.781,5 47.224,8.538 47.955,13 L48,13 L48,15.402 C54.054,13.859 58,11.343 58,8.5 C58,3.806 47.255,0 34,0 L34,0 Z" id="Stroke-238" stroke="#0F81E0" stroke-width="2" stroke-linecap="round" stroke-linejoin="round" sketch:type="MSShapeGroup"></path>
                <path d="M48,15.402 L48,27.403 C53.696,25.951 57.523,23.637 57.955,21 L58,21 L58,8.5 C58,11.343 54.054,13.859 48,15.402 L48,15.402 Z" id="Fill-239" fill="#FFFFFF" sketch:type="MSShapeGroup"></path>
                <path d="M48,15.402 L48,27.403 C53.696,25.951 57.523,23.637 57.955,21 L58,21 L58,8.5 C58,11.343 54.054,13.859 48,15.402 L48,15.402 Z" id="Stroke-240" stroke="#0F81E0" stroke-width="2" stroke-linecap="round" stroke-linejoin="round" sketch:type="MSShapeGroup"></path>
                <path d="M48,27.402 L48,39.403 C53.696,37.951 57.523,35.637 57.955,33 L58,33 L58,20.5 C58,23.343 54.054,25.859 48,27.402 L48,27.402 Z" id="Fill-241" fill="#FFFFFF" sketch:type="MSShapeGroup"></path>
                <path d="M48,27.402 L48,39.403 C53.696,37.951 57.523,35.637 57.955,33 L58,33 L58,20.5 C58,23.343 54.054,25.859 48,27.402 L48,27.402 Z" id="Stroke-242" stroke="#0F81E0" stroke-width="2" stroke-linecap="round" stroke-linejoin="round" sketch:type="MSShapeGroup"></path>
                <path d="M48,39.402 L48,50 L47.955,50 C47.866,50.543 47.631,51.071 47.269,51.581 C53.366,50.145 57.505,47.748 57.955,45 L58,45 L58,32.5 C58,35.343 54.054,37.859 48,39.402 L48,39.402 Z" id="Fill-243" fill="#FFFFFF" sketch:type="MSShapeGroup"></path>
                <path d="M48,39.402 L48,50 L47.955,50 C47.866,50.543 47.631,51.071 47.269,51.581 C53.366,50.145 57.505,47.748 57.955,45 L58,45 L58,32.5 C58,35.343 54.054,37.859 48,39.402 L48,39.402 Z" id="Stroke-244" stroke="#0F81E0" stroke-width="2" stroke-linecap="round" stroke-linejoin="round" sketch:type="MSShapeGroup"></path>
            </g>
        </g>
    </g>
</svg>