<?xml version="1.0" encoding="UTF-8" standalone="no"?>
<svg width="50px" height="55px" viewBox="0 0 50 55" version="1.1" xmlns="http://www.w3.org/2000/svg" xmlns:xlink="http://www.w3.org/1999/xlink" xmlns:sketch="http://www.bohemiancoding.com/sketch/ns">
    <!-- Generator: Sketch 3.2.2 (9983) - http://www.bohemiancoding.com/sketch -->
    <title>174 - Database (Webby)</title>
    <desc>Created with Sketch.</desc>
    <defs></defs>
    <g id="Page-1" stroke="none" stroke-width="1" fill="none" fill-rule="evenodd" sketch:type="MSPage">
        <g id="Icons" sketch:type="MSArtboardGroup" transform="translate(-845.000000, -2760.000000)">
            <g id="174---Database-(Webby)" sketch:type="MSLayerGroup" transform="translate(846.000000, 2761.000000)">
                <path d="M47.955,8 L47.955,8 C47.224,3.538 36.781,0 24,0 C11.219,0 0.776,3.538 0.045,8 L0,8 L0,45 L0.045,45 C0.776,49.462 11.219,53 24,53 C36.78,53 47.224,49.462 47.955,45 L48,45 L48,8 L47.955,8 L47.955,8 Z" id="Fill-245" fill="#FFFFFF" sketch:type="MSShapeGroup"></path>
                <path d="M47.955,8 L47.955,8 C47.224,3.538 36.781,0 24,0 C11.219,0 0.776,3.538 0.045,8 L0,8 L0,45 L0.045,45 C0.776,49.462 11.219,53 24,53 C36.78,53 47.224,49.462 47.955,45 L48,45 L48,8 L47.955,8 L47.955,8 Z" id="Stroke-246" stroke="#0F81E0" stroke-width="2" stroke-linecap="round" stroke-linejoin="round" sketch:type="MSShapeGroup"></path>
                <path d="M48,8.5 C48,13.194 37.255,17 24,17 C10.745,17 0,13.194 0,8.5" id="Fill-790" fill="#FFFFFF" sketch:type="MSShapeGroup"></path>
                <path d="M48,8.5 C48,13.194 37.255,17 24,17 C10.745,17 0,13.194 0,8.5" id="Stroke-791" stroke="#0F81E0" stroke-width="2" stroke-linecap="round" stroke-linejoin="round" sketch:type="MSShapeGroup"></path>
                <path d="M0,21 L0.045,21 C0.776,25.462 11.219,29 24,29 C36.78,29 47.224,25.462 47.955,21 L48,21" id="Fill-792" fill="#FFFFFF" sketch:type="MSShapeGroup"></path>
                <path d="M0,21 L0.045,21 C0.776,25.462 11.219,29 24,29 C36.78,29 47.224,25.462 47.955,21 L48,21" id="Stroke-793" stroke="#0F81E0" stroke-width="2" stroke-linecap="round" stroke-linejoin="round" sketch:type="MSShapeGroup"></path>
                <path d="M0,8 L0,8.5 C0,8.332 0.018,8.166 0.045,8 L0,8 L0,8 Z" id="Fill-794" fill="#FFFFFF" sketch:type="MSShapeGroup"></path>
                <path d="M0,8 L0,8.5 C0,8.332 0.018,8.166 0.045,8 L0,8 L0,8 Z" id="Stroke-795" stroke="#0F81E0" stroke-width="2" stroke-linecap="round" stroke-linejoin="round" sketch:type="MSShapeGroup"></path>
                <path d="M47.955,8 C47.982,8.166 48,8.332 48,8.5 L48,8 L47.955,8 L47.955,8 Z" id="Fill-796" fill="#FFFFFF" sketch:type="MSShapeGroup"></path>
                <path d="M47.955,8 C47.982,8.166 48,8.332 48,8.5 L48,8 L47.955,8 L47.955,8 Z" id="Stroke-797" stroke="#0F81E0" stroke-width="2" stroke-linecap="round" stroke-linejoin="round" sketch:type="MSShapeGroup"></path>
                <path d="M48,32.5 C48,37.194 37.255,41 24,41 C10.745,41 0,37.194 0,32.5 M0,32 L0,32.5 C0,32.332 0.018,32.166 0.045,32 L0,32 L0,32 Z M48,32.5 L48,32 L47.955,32" id="Stroke-798" stroke="#0F81E0" stroke-width="2" stroke-linecap="round" stroke-linejoin="round" sketch:type="MSShapeGroup"></path>
                <path d="M2,25 C2,25.552 1.552,26 1,26 C0.448,26 0,25.552 0,25 C0,24.448 0.448,24 1,24 C1.552,24 2,24.448 2,25" id="Fill-799" fill="#0F81E0" sketch:type="MSShapeGroup"></path>
                <path d="M2,31 C2,31.552 1.552,32 1,32 C0.448,32 0,31.552 0,31 C0,30.448 0.448,30 1,30 C1.552,30 2,30.448 2,31" id="Fill-800" fill="#0F81E0" sketch:type="MSShapeGroup"></path>
                <path d="M5,28 C5,28.552 4.552,29 4,29 C3.448,29 3,28.552 3,28 C3,27.448 3.448,27 4,27 C4.552,27 5,27.448 5,28" id="Fill-801" fill="#0F81E0" sketch:type="MSShapeGroup"></path>
                <path d="M5,34 C5,34.552 4.552,35 4,35 C3.448,35 3,34.552 3,34 C3,33.448 3.448,33 4,33 C4.552,33 5,33.448 5,34" id="Fill-802" fill="#0F81E0" sketch:type="MSShapeGroup"></path>
                <path d="M8,31 C8,31.552 7.552,32 7,32 C6.448,32 6,31.552 6,31 C6,30.448 6.448,30 7,30 C7.552,30 8,30.448 8,31" id="Fill-803" fill="#0F81E0" sketch:type="MSShapeGroup"></path>
                <path d="M14,31 C14,31.552 13.552,32 13,32 C12.448,32 12,31.552 12,31 C12,30.448 12.448,30 13,30 C13.552,30 14,30.448 14,31" id="Fill-804" fill="#0F81E0" sketch:type="MSShapeGroup"></path>
                <path d="M11,28 C11,28.552 10.552,29 10,29 C9.448,29 9,28.552 9,28 C9,27.448 9.448,27 10,27 C10.552,27 11,27.448 11,28" id="Fill-805" fill="#0F81E0" sketch:type="MSShapeGroup"></path>
                <path d="M11,34 C11,34.552 10.552,35 10,35 C9.448,35 9,34.552 9,34 C9,33.448 9.448,33 10,33 C10.552,33 11,33.448 11,34" id="Fill-806" fill="#0F81E0" sketch:type="MSShapeGroup"></path>
                <path d="M17,34 C17,34.552 16.552,35 16,35 C15.448,35 15,34.552 15,34 C15,33.448 15.448,33 16,33 C16.552,33 17,33.448 17,34" id="Fill-807" fill="#0F81E0" sketch:type="MSShapeGroup"></path>
                <path d="M20,31 C20,31.552 19.552,32 19,32 C18.448,32 18,31.552 18,31 C18,30.448 18.448,30 19,30 C19.552,30 20,30.448 20,31" id="Fill-808" fill="#0F81E0" sketch:type="MSShapeGroup"></path>
                <path d="M26,31 C26,31.552 25.552,32 25,32 C24.448,32 24,31.552 24,31 C24,30.448 24.448,30 25,30 C25.552,30 26,30.448 26,31" id="Fill-809" fill="#0F81E0" sketch:type="MSShapeGroup"></path>
                <path d="M23,34 C23,34.552 22.552,35 22,35 C21.448,35 21,34.552 21,34 C21,33.448 21.448,33 22,33 C22.552,33 23,33.448 23,34" id="Fill-810" fill="#0F81E0" sketch:type="MSShapeGroup"></path>
                <path d="M29,34 C29,34.552 28.552,35 28,35 C27.448,35 27,34.552 27,34 C27,33.448 27.448,33 28,33 C28.552,33 29,33.448 29,34" id="Fill-811" fill="#0F81E0" sketch:type="MSShapeGroup"></path>
                <path d="M32,31 C32,31.552 31.552,32 31,32 C30.448,32 30,31.552 30,31 C30,30.448 30.448,30 31,30 C31.552,30 32,30.448 32,31" id="Fill-812" fill="#0F81E0" sketch:type="MSShapeGroup"></path>
                <path d="M38,31 C38,31.552 37.552,32 37,32 C36.448,32 36,31.552 36,31 C36,30.448 36.448,30 37,30 C37.552,30 38,30.448 38,31" id="Fill-813" fill="#0F81E0" sketch:type="MSShapeGroup"></path>
                <path d="M41,28 C41,28.552 40.552,29 40,29 C39.448,29 39,28.552 39,28 C39,27.448 39.448,27 40,27 C40.552,27 41,27.448 41,28" id="Fill-814" fill="#0F81E0" sketch:type="MSShapeGroup"></path>
                <path d="M35,34 C35,34.552 34.552,35 34,35 C33.448,35 33,34.552 33,34 C33,33.448 33.448,33 34,33 C34.552,33 35,33.448 35,34" id="Fill-815" fill="#0F81E0" sketch:type="MSShapeGroup"></path>
                <path d="M41,34 C41,34.552 40.552,35 40,35 C39.448,35 39,34.552 39,34 C39,33.448 39.448,33 40,33 C40.552,33 41,33.448 41,34" id="Fill-816" fill="#0F81E0" sketch:type="MSShapeGroup"></path>
                <path d="M44,31 C44,31.552 43.552,32 43,32 C42.448,32 42,31.552 42,31 C42,30.448 42.448,30 43,30 C43.552,30 44,30.448 44,31" id="Fill-817" fill="#0F81E0" sketch:type="MSShapeGroup"></path>
                <path d="M47,28 C47,28.552 46.552,29 46,29 C45.448,29 45,28.552 45,28 C45,27.448 45.448,27 46,27 C46.552,27 47,27.448 47,28" id="Fill-818" fill="#0F81E0" sketch:type="MSShapeGroup"></path>
                <path d="M47,34 C47,34.552 46.552,35 46,35 C45.448,35 45,34.552 45,34 C45,33.448 45.448,33 46,33 C46.552,33 47,33.448 47,34" id="Fill-819" fill="#0F81E0" sketch:type="MSShapeGroup"></path>
                <path d="M8,37 C8,37.552 7.552,38 7,38 C6.448,38 6,37.552 6,37 C6,36.448 6.448,36 7,36 C7.552,36 8,36.448 8,37" id="Fill-820" fill="#0F81E0" sketch:type="MSShapeGroup"></path>
                <path d="M14,37 C14,37.552 13.552,38 13,38 C12.448,38 12,37.552 12,37 C12,36.448 12.448,36 13,36 C13.552,36 14,36.448 14,37" id="Fill-821" fill="#0F81E0" sketch:type="MSShapeGroup"></path>
                <path d="M17,40 C17,40.552 16.552,41 16,41 C15.448,41 15,40.552 15,40 C15,39.448 15.448,39 16,39 C16.552,39 17,39.448 17,40" id="Fill-822" fill="#0F81E0" sketch:type="MSShapeGroup"></path>
                <path d="M20,37 C20,37.552 19.552,38 19,38 C18.448,38 18,37.552 18,37 C18,36.448 18.448,36 19,36 C19.552,36 20,36.448 20,37" id="Fill-823" fill="#0F81E0" sketch:type="MSShapeGroup"></path>
                <path d="M26,37 C26,37.552 25.552,38 25,38 C24.448,38 24,37.552 24,37 C24,36.448 24.448,36 25,36 C25.552,36 26,36.448 26,37" id="Fill-824" fill="#0F81E0" sketch:type="MSShapeGroup"></path>
                <path d="M23,40 C23,40.552 22.552,41 22,41 C21.448,41 21,40.552 21,40 C21,39.448 21.448,39 22,39 C22.552,39 23,39.448 23,40" id="Fill-825" fill="#0F81E0" sketch:type="MSShapeGroup"></path>
                <path d="M29,40 C29,40.552 28.552,41 28,41 C27.448,41 27,40.552 27,40 C27,39.448 27.448,39 28,39 C28.552,39 29,39.448 29,40" id="Fill-826" fill="#0F81E0" sketch:type="MSShapeGroup"></path>
                <path d="M32,37 C32,37.552 31.552,38 31,38 C30.448,38 30,37.552 30,37 C30,36.448 30.448,36 31,36 C31.552,36 32,36.448 32,37" id="Fill-827" fill="#0F81E0" sketch:type="MSShapeGroup"></path>
                <path d="M38,37 C38,37.552 37.552,38 37,38 C36.448,38 36,37.552 36,37 C36,36.448 36.448,36 37,36 C37.552,36 38,36.448 38,37" id="Fill-828" fill="#0F81E0" sketch:type="MSShapeGroup"></path>
                <path d="M35,40 C35,40.552 34.552,41 34,41 C33.448,41 33,40.552 33,40 C33,39.448 33.448,39 34,39 C34.552,39 35,39.448 35,40" id="Fill-829" fill="#0F81E0" sketch:type="MSShapeGroup"></path>
                <path d="M44,37 C44,37.552 43.552,38 43,38 C42.448,38 42,37.552 42,37 C42,36.448 42.448,36 43,36 C43.552,36 44,36.448 44,37" id="Fill-830" fill="#0F81E0" sketch:type="MSShapeGroup"></path>
            </g>
        </g>
    </g>
</svg>