<?xml version="1.0" encoding="UTF-8" standalone="no"?>
<svg width="50px" height="55px" viewBox="0 0 50 55" version="1.1" xmlns="http://www.w3.org/2000/svg" xmlns:xlink="http://www.w3.org/1999/xlink" xmlns:sketch="http://www.bohemiancoding.com/sketch/ns">
    <!-- Generator: Sketch 3.2.2 (9983) - http://www.bohemiancoding.com/sketch -->
    <title>175 - Database Cluster (Webby)</title>
    <desc>Created with Sketch.</desc>
    <defs></defs>
    <g id="Page-1" stroke="none" stroke-width="1" fill="none" fill-rule="evenodd" sketch:type="MSPage">
        <g id="Icons" sketch:type="MSArtboardGroup" transform="translate(-726.000000, -2760.000000)">
            <g id="175---Database-Cluster-(Webby)" sketch:type="MSLayerGroup" transform="translate(727.000000, 2761.000000)">
                <path d="M24,41 C10.745,41 0,37.194 0,32.5 L0,45 L0.045,45 C0.776,49.462 11.219,53 24,53 C36.781,53 47.224,49.462 47.955,45 L48,45 L48,32.5 C48,37.194 37.255,41 24,41 L24,41 Z" id="Fill-176" fill="#FFFFFF" sketch:type="MSShapeGroup"></path>
                <path d="M24,41 C10.745,41 0,37.194 0,32.5 L0,45 L0.045,45 C0.776,49.462 11.219,53 24,53 C36.781,53 47.224,49.462 47.955,45 L48,45 L48,32.5 C48,37.194 37.255,41 24,41 L24,41 Z" id="Stroke-177" stroke="#0F81E0" stroke-width="2" stroke-linecap="round" stroke-linejoin="round" sketch:type="MSShapeGroup"></path>
                <path d="M0,32 L0,32.5 C0,32.332 0.018,32.166 0.045,32 L0,32 L0,32 Z" id="Fill-178" fill="#FFFFFF" sketch:type="MSShapeGroup"></path>
                <path d="M0,32 L0,32.5 C0,32.332 0.018,32.166 0.045,32 L0,32 L0,32 Z" id="Stroke-179" stroke="#0F81E0" stroke-width="2" stroke-linecap="round" stroke-linejoin="round" sketch:type="MSShapeGroup"></path>
                <path d="M47.955,32 C47.982,32.166 48,32.332 48,32.5 L48,32 L47.955,32 L47.955,32 Z" id="Fill-180" fill="#FFFFFF" sketch:type="MSShapeGroup"></path>
                <path d="M47.955,32 C47.982,32.166 48,32.332 48,32.5 L48,32 L47.955,32 L47.955,32 Z" id="Stroke-181" stroke="#0F81E0" stroke-width="2" stroke-linecap="round" stroke-linejoin="round" sketch:type="MSShapeGroup"></path>
                <path d="M24,29 C10.745,29 0,25.194 0,20.5 L0,33 L0.045,33 C0.776,37.462 11.219,41 24,41 C36.781,41 47.224,37.462 47.955,33 L48,33 L48,20.5 C48,25.194 37.255,29 24,29 L24,29 Z" id="Fill-182" fill="#FFFFFF" sketch:type="MSShapeGroup"></path>
                <path d="M24,29 C10.745,29 0,25.194 0,20.5 L0,33 L0.045,33 C0.776,37.462 11.219,41 24,41 C36.781,41 47.224,37.462 47.955,33 L48,33 L48,20.5 C48,25.194 37.255,29 24,29 L24,29 Z" id="Stroke-183" stroke="#0F81E0" stroke-width="2" stroke-linecap="round" stroke-linejoin="round" sketch:type="MSShapeGroup"></path>
                <path d="M0,20 L0,20.5 C0,20.332 0.018,20.166 0.045,20 L0,20 L0,20 Z" id="Fill-184" fill="#FFFFFF" sketch:type="MSShapeGroup"></path>
                <path d="M0,20 L0,20.5 C0,20.332 0.018,20.166 0.045,20 L0,20 L0,20 Z" id="Stroke-185" stroke="#0F81E0" stroke-width="2" stroke-linecap="round" stroke-linejoin="round" sketch:type="MSShapeGroup"></path>
                <path d="M47.955,20 C47.982,20.166 48,20.332 48,20.5 L48,20 L47.955,20 L47.955,20 Z" id="Fill-186" fill="#FFFFFF" sketch:type="MSShapeGroup"></path>
                <path d="M47.955,20 C47.982,20.166 48,20.332 48,20.5 L48,20 L47.955,20 L47.955,20 Z" id="Stroke-187" stroke="#0F81E0" stroke-width="2" stroke-linecap="round" stroke-linejoin="round" sketch:type="MSShapeGroup"></path>
                <path d="M48,8.5 C48,13.194 37.255,17 24,17 C10.745,17 0,13.194 0,8.5 C0,3.806 10.745,0 24,0 C37.255,0 48,3.806 48,8.5 L48,8.5 Z" id="Fill-188" fill="#FFFFFF" sketch:type="MSShapeGroup"></path>
                <path d="M48,8.5 C48,13.194 37.255,17 24,17 C10.745,17 0,13.194 0,8.5 C0,3.806 10.745,0 24,0 C37.255,0 48,3.806 48,8.5 L48,8.5 Z" id="Stroke-189" stroke="#0F81E0" stroke-width="2" stroke-linecap="round" stroke-linejoin="round" sketch:type="MSShapeGroup"></path>
                <path d="M24,17 C10.745,17 0,13.194 0,8.5 L0,21 L0.045,21 C0.776,25.462 11.219,29 24,29 C36.781,29 47.224,25.462 47.955,21 L48,21 L48,8.5 C48,13.194 37.255,17 24,17 L24,17 Z" id="Fill-190" fill="#C6E3F8" sketch:type="MSShapeGroup"></path>
                <path d="M24,17 C10.745,17 0,13.194 0,8.5 L0,21 L0.045,21 C0.776,25.462 11.219,29 24,29 C36.781,29 47.224,25.462 47.955,21 L48,21 L48,8.5 C48,13.194 37.255,17 24,17 L24,17 Z" id="Stroke-191" stroke="#0F81E0" stroke-width="2" stroke-linecap="round" stroke-linejoin="round" sketch:type="MSShapeGroup"></path>
                <path d="M0,8 L0,8.5 C0,8.332 0.018,8.166 0.045,8 L0,8 L0,8 Z" id="Fill-192" fill="#C6E3F8" sketch:type="MSShapeGroup"></path>
                <path d="M0,8 L0,8.5 C0,8.332 0.018,8.166 0.045,8 L0,8 L0,8 Z" id="Stroke-193" stroke="#0F81E0" stroke-width="2" stroke-linecap="round" stroke-linejoin="round" sketch:type="MSShapeGroup"></path>
                <path d="M47.955,8 C47.982,8.166 48,8.332 48,8.5 L48,8 L47.955,8 L47.955,8 Z" id="Fill-194" fill="#C6E3F8" sketch:type="MSShapeGroup"></path>
                <path d="M47.955,8 C47.982,8.166 48,8.332 48,8.5 L48,8 L47.955,8 L47.955,8 Z" id="Stroke-195" stroke="#0F81E0" stroke-width="2" stroke-linecap="round" stroke-linejoin="round" sketch:type="MSShapeGroup"></path>
            </g>
        </g>
    </g>
</svg>