<?xml version="1.0" encoding="UTF-8" standalone="no"?>
<svg width="60px" height="60px" viewBox="0 0 60 60" version="1.1" xmlns="http://www.w3.org/2000/svg" xmlns:xlink="http://www.w3.org/1999/xlink" xmlns:sketch="http://www.bohemiancoding.com/sketch/ns">
    <!-- Generator: Sketch 3.2.2 (9983) - http://www.bohemiancoding.com/sketch -->
    <title>185 - Photos (Webby)</title>
    <desc>Created with Sketch.</desc>
    <defs></defs>
    <g id="Page-1" stroke="none" stroke-width="1" fill="none" fill-rule="evenodd" sketch:type="MSPage">
        <g id="Icons" sketch:type="MSArtboardGroup" transform="translate(-720.000000, -2637.000000)">
            <g id="185---Photos-(Webby)" sketch:type="MSLayerGroup" transform="translate(721.000000, 2638.000000)">
                <path d="M29.013,58 L29.013,58 C24.063,58 20.013,53.95 20.013,49 L20.013,9 C20.013,4.05 24.063,0 29.013,0 C33.963,0 38.013,4.05 38.013,9 L38.013,49 C38.013,53.95 33.963,58 29.013,58 L29.013,58 Z" id="Fill-106" fill="#FFFFFF" sketch:type="MSShapeGroup"></path>
                <path d="M29.013,58 L29.013,58 C24.063,58 20.013,53.95 20.013,49 L20.013,9 C20.013,4.05 24.063,0 29.013,0 C33.963,0 38.013,4.05 38.013,9 L38.013,49 C38.013,53.95 33.963,58 29.013,58 L29.013,58 Z" id="Stroke-107" stroke="#0F81E0" stroke-width="2" stroke-linecap="round" stroke-linejoin="round" sketch:type="MSShapeGroup"></path>
                <path d="M0.013,29 L0.013,29 C0.013,24.05 4.063,20 9.013,20 L49.013,20 C53.963,20 58.013,24.05 58.013,29 C58.013,33.95 53.963,38 49.013,38 L9.013,38 C4.063,38 0.013,33.95 0.013,29 L0.013,29 Z" id="Fill-108" fill="#C6E3F8" sketch:type="MSShapeGroup"></path>
                <path d="M0.013,29 L0.013,29 C0.013,24.05 4.063,20 9.013,20 L49.013,20 C53.963,20 58.013,24.05 58.013,29 C58.013,33.95 53.963,38 49.013,38 L9.013,38 C4.063,38 0.013,33.95 0.013,29 L0.013,29 Z" id="Stroke-109" stroke="#0F81E0" stroke-width="2" stroke-linecap="round" stroke-linejoin="round" sketch:type="MSShapeGroup"></path>
                <path d="M8.507,49.506 L8.507,49.506 C5.007,46.006 5.007,40.278 8.507,36.778 L36.791,8.494 C40.291,4.994 46.019,4.994 49.519,8.494 C53.019,11.994 53.019,17.722 49.519,21.222 L21.235,49.506 C17.735,53.007 12.007,53.007 8.507,49.506 L8.507,49.506 Z" id="Fill-110" fill="#C6E3F8" sketch:type="MSShapeGroup"></path>
                <path d="M8.507,49.506 L8.507,49.506 C5.007,46.006 5.007,40.278 8.507,36.778 L36.791,8.494 C40.291,4.994 46.019,4.994 49.519,8.494 C53.019,11.994 53.019,17.722 49.519,21.222 L21.235,49.506 C17.735,53.007 12.007,53.007 8.507,49.506 L8.507,49.506 Z" id="Stroke-111" stroke="#0F81E0" stroke-width="2" stroke-linecap="round" stroke-linejoin="round" sketch:type="MSShapeGroup"></path>
                <path d="M8.507,8.494 L8.507,8.494 C12.007,4.994 17.735,4.994 21.235,8.494 L49.519,36.778 C53.019,40.278 53.019,46.006 49.519,49.506 C46.019,53.007 40.291,53.007 36.791,49.506 L8.507,21.222 C5.007,17.722 5.007,11.994 8.507,8.494 L8.507,8.494 Z" id="Fill-112" fill="#FFFFFF" sketch:type="MSShapeGroup"></path>
                <path d="M8.507,8.494 L8.507,8.494 C12.007,4.994 17.735,4.994 21.235,8.494 L49.519,36.778 C53.019,40.278 53.019,46.006 49.519,49.506 C46.019,53.007 40.291,53.007 36.791,49.506 L8.507,21.222 C5.007,17.722 5.007,11.994 8.507,8.494 L8.507,8.494 Z" id="Stroke-113" stroke="#0F81E0" stroke-width="2" stroke-linecap="round" stroke-linejoin="round" sketch:type="MSShapeGroup"></path>
            </g>
        </g>
    </g>
</svg>