<?xml version="1.0" encoding="UTF-8" standalone="no"?>
<svg width="55px" height="40px" viewBox="0 0 55 40" version="1.1" xmlns="http://www.w3.org/2000/svg" xmlns:xlink="http://www.w3.org/1999/xlink" xmlns:sketch="http://www.bohemiancoding.com/sketch/ns">
    <!-- Generator: Sketch 3.2.2 (9983) - http://www.bohemiancoding.com/sketch -->
    <title>186 - WI-FI (Webby)</title>
    <desc>Created with Sketch.</desc>
    <defs></defs>
    <g id="Page-1" stroke="none" stroke-width="1" fill="none" fill-rule="evenodd" sketch:type="MSPage">
        <g id="Icons" sketch:type="MSArtboardGroup" transform="translate(-603.000000, -2648.000000)">
            <g id="186---WI-FI-(Webby)" sketch:type="MSLayerGroup" transform="translate(604.000000, 2649.000000)">
                <path d="M0.104,11.81 C14.691,-2.776 38.426,-2.776 53.013,11.81" id="Path" stroke="#0F81E0" stroke-width="2" stroke-linecap="round" stroke-linejoin="round" sketch:type="MSShapeGroup"></path>
                <path d="M5.983,17.689 C17.328,6.344 35.789,6.344 47.134,17.689" id="Path" stroke="#0F81E0" stroke-width="2" stroke-linecap="round" stroke-linejoin="round" sketch:type="MSShapeGroup"></path>
                <path d="M11.862,23.568 C19.966,15.464 33.151,15.464 41.255,23.568" id="Path" stroke="#0F81E0" stroke-width="2" stroke-linecap="round" stroke-linejoin="round" sketch:type="MSShapeGroup"></path>
                <path d="M32.11,32.448 C32.11,35.515 29.625,38 26.559,38 C23.493,38 21.007,35.515 21.007,32.448 C21.007,29.382 23.493,26.897 26.559,26.897 C29.625,26.897 32.11,29.382 32.11,32.448 L32.11,32.448 Z" id="Fill-101" fill="#C6E3F8" sketch:type="MSShapeGroup"></path>
                <path d="M32.11,32.448 C32.11,35.515 29.625,38 26.559,38 C23.493,38 21.007,35.515 21.007,32.448 C21.007,29.382 23.493,26.897 26.559,26.897 C29.625,26.897 32.11,29.382 32.11,32.448 L32.11,32.448 Z" id="Stroke-102" stroke="#0F81E0" stroke-width="2" stroke-linecap="round" stroke-linejoin="round" sketch:type="MSShapeGroup"></path>
            </g>
        </g>
    </g>
</svg>