<?xml version="1.0" encoding="UTF-8" standalone="no"?>
<svg width="55px" height="58px" viewBox="0 0 55 58" version="1.1" xmlns="http://www.w3.org/2000/svg" xmlns:xlink="http://www.w3.org/1999/xlink" xmlns:sketch="http://www.bohemiancoding.com/sketch/ns">
    <!-- Generator: Sketch 3.2.2 (9983) - http://www.bohemiancoding.com/sketch -->
    <title>189 - Thumbs Down (Webby)</title>
    <desc>Created with Sketch.</desc>
    <defs></defs>
    <g id="Page-1" stroke="none" stroke-width="1" fill="none" fill-rule="evenodd" sketch:type="MSPage">
        <g id="Icons" sketch:type="MSArtboardGroup" transform="translate(-242.000000, -2638.000000)">
            <g id="189---Thumbs-Down-(Webby)" sketch:type="MSLayerGroup" transform="translate(243.000000, 2639.000000)">
                <path d="M39,0 L53,0 L53,36 L39,36 L39,0 Z" id="Fill-79" fill="#FFFFFF" sketch:type="MSShapeGroup"></path>
                <path d="M39,0 L53,0 L53,36 L39,36 L39,0 Z" id="Stroke-80" stroke="#0F81E0" stroke-width="2" stroke-linecap="round" stroke-linejoin="round" sketch:type="MSShapeGroup"></path>
                <path d="M42,9 C42,6.791 43.791,5 46,5 C48.209,5 50,6.791 50,9 C50,11.209 48.209,13 46,13 C43.791,13 42,11.209 42,9 L42,9 Z" id="Fill-81" fill="#C6E3F8" sketch:type="MSShapeGroup"></path>
                <path d="M42,9 C42,6.791 43.791,5 46,5 C48.209,5 50,6.791 50,9 C50,11.209 48.209,13 46,13 C43.791,13 42,11.209 42,9 L42,9 Z" id="Stroke-82" stroke="#0F81E0" stroke-width="2" stroke-linecap="round" stroke-linejoin="round" sketch:type="MSShapeGroup"></path>
                <path d="M1,30 C1,32.209 2.791,34 5,34 L20.602,34 L19.615,38.619 C18.861,42.142 19.062,46.438 19.51,49.455 C19.958,52.472 22.66,56 25.487,56 L25.726,56 C28.136,56 29,53.341 29,50 C29,33.75 37,34 37,34 L39,34 L39,2 L10,2 C7.791,2 6,3.791 6,6 C6,8.209 7.791,10 10,10 L7,10 C4.791,10 3,11.791 3,14 C3,16.209 4.791,18 7,18 L4,18 C1.791,18 0,19.791 0,22 C0,24.493 1.613,25.442 4,25.796 C5.163,25.969 7.276,26 8,26 L5,26 C2.791,26 1,27.791 1,30 L1,30 Z" id="Fill-84" fill="#FFFFFF" sketch:type="MSShapeGroup"></path>
                <path d="M1,30 C1,32.209 2.791,34 5,34 L20.602,34 L19.615,38.619 C18.861,42.142 19.062,46.438 19.51,49.455 C19.958,52.472 22.66,56 25.487,56 L25.726,56 C28.136,56 29,53.341 29,50 C29,33.75 37,34 37,34 L39,34 L39,2 L10,2 C7.791,2 6,3.791 6,6 C6,8.209 7.791,10 10,10 L7,10 C4.791,10 3,11.791 3,14 C3,16.209 4.791,18 7,18 L4,18 C1.791,18 0,19.791 0,22 C0,24.493 1.613,25.442 4,25.796 C5.163,25.969 7.276,26 8,26 L5,26 C2.791,26 1,27.791 1,30 L1,30 Z" id="Stroke-85" stroke="#0F81E0" stroke-width="2" stroke-linecap="round" stroke-linejoin="round" sketch:type="MSShapeGroup"></path>
                <path d="M7,26 L15,26 M7,18 L15,18 M9,10 L17,10" id="Stroke-83" stroke="#0F81E0" stroke-width="2" stroke-linecap="round" stroke-linejoin="round" sketch:type="MSShapeGroup"></path>
            </g>
        </g>
    </g>
</svg>