<?xml version="1.0" encoding="UTF-8" standalone="no"?>
<svg width="56px" height="57px" viewBox="0 0 56 57" version="1.1" xmlns="http://www.w3.org/2000/svg" xmlns:xlink="http://www.w3.org/1999/xlink" xmlns:sketch="http://www.bohemiancoding.com/sketch/ns">
    <!-- Generator: Sketch 3.2.2 (9983) - http://www.bohemiancoding.com/sketch -->
    <title>192 - Send (Webby)</title>
    <desc>Created with Sketch.</desc>
    <defs></defs>
    <g id="Page-1" stroke="none" stroke-width="1" fill="none" fill-rule="evenodd" sketch:type="MSPage">
        <g id="Icons" sketch:type="MSArtboardGroup" transform="translate(-1083.000000, -2519.000000)">
            <g id="192---Send-(Webby)" sketch:type="MSLayerGroup" transform="translate(1084.000000, 2520.000000)">
                <path d="M42,7.239 L42,0 L54,12.065 L42,24.13 L42,16.891 C42,16.891 31.344,14.313 24.065,26.543 C24.065,26.544 22.25,17.208 30.38,10.444 C30.38,10.444 34.062,7 42,7.239 L42,7.239 Z" id="Fill-52" fill="#C6E3F8" sketch:type="MSShapeGroup"></path>
                <path d="M42,7.239 L42,0 L54,12.065 L42,24.13 L42,16.891 C42,16.891 31.344,14.313 24.065,26.543 C24.065,26.544 22.25,17.208 30.38,10.444 C30.38,10.444 34.062,7 42,7.239 L42,7.239 Z" id="Stroke-53" stroke="#0F81E0" stroke-width="2" stroke-linejoin="round" sketch:type="MSShapeGroup"></path>
                <path d="M42,24.13 L42,16.891 C42,16.891 31.344,14.313 24.065,26.543 C24.065,26.544 22.25,17.208 30.38,10.444 C30.38,10.444 31.133,9.746 32.678,9 L0,9 L0,55 L46,55 L46,20.108 L42,24.13 L42,24.13 Z" id="Fill-54" fill="#FFFFFF" sketch:type="MSShapeGroup"></path>
                <path d="M42,24.13 L42,16.891 C42,16.891 31.344,14.313 24.065,26.543 C24.065,26.544 22.25,17.208 30.38,10.444 C30.38,10.444 31.133,9.746 32.678,9 L0,9 L0,55 L46,55 L46,20.108 L42,24.13 L42,24.13 Z" id="Stroke-55" stroke="#0F81E0" stroke-width="2" stroke-linejoin="round" sketch:type="MSShapeGroup"></path>
            </g>
        </g>
    </g>
</svg>