<?xml version="1.0" encoding="UTF-8" standalone="no"?>
<svg width="55px" height="59px" viewBox="0 0 55 59" version="1.1" xmlns="http://www.w3.org/2000/svg" xmlns:xlink="http://www.w3.org/1999/xlink" xmlns:sketch="http://www.bohemiancoding.com/sketch/ns">
    <!-- Generator: Sketch 3.2.2 (9983) - http://www.bohemiancoding.com/sketch -->
    <title>199 - Share (Webby)</title>
    <desc>Created with Sketch.</desc>
    <defs></defs>
    <g id="Page-1" stroke="none" stroke-width="1" fill="none" fill-rule="evenodd" sketch:type="MSPage">
        <g id="Icons" sketch:type="MSArtboardGroup" transform="translate(-241.000000, -2518.000000)">
            <g id="199---Share-(Webby)" sketch:type="MSLayerGroup" transform="translate(242.000000, 2519.000000)">
                <path d="M18,28.456 C18,33.427 13.971,37.456 9,37.456 C4.029,37.456 0,33.427 0,28.456 C0,23.485 4.029,19.456 9,19.456 C13.971,19.456 18,23.485 18,28.456 L18,28.456 Z" id="Fill-27" fill="#C6E3F8" sketch:type="MSShapeGroup"></path>
                <path d="M18,28.456 C18,33.427 13.971,37.456 9,37.456 C4.029,37.456 0,33.427 0,28.456 C0,23.485 4.029,19.456 9,19.456 C13.971,19.456 18,23.485 18,28.456 L18,28.456 Z" id="Stroke-28" stroke="#0F81E0" stroke-width="2" stroke-linecap="round" stroke-linejoin="round" sketch:type="MSShapeGroup"></path>
                <path d="M50.364,54.364 C46.849,57.879 41.151,57.879 37.636,54.364 C34.121,50.849 34.121,45.151 37.636,41.636 C41.151,38.121 46.849,38.121 50.364,41.636 C53.879,45.151 53.879,50.849 50.364,54.364 L50.364,54.364 Z" id="Fill-29" fill="#C6E3F8" sketch:type="MSShapeGroup"></path>
                <path d="M50.364,54.364 C46.849,57.879 41.151,57.879 37.636,54.364 C34.121,50.849 34.121,45.151 37.636,41.636 C41.151,38.121 46.849,38.121 50.364,41.636 C53.879,45.151 53.879,50.849 50.364,54.364 L50.364,54.364 Z" id="Stroke-30" stroke="#0F81E0" stroke-width="2" stroke-linecap="round" stroke-linejoin="round" sketch:type="MSShapeGroup"></path>
                <path d="M44,18 C39.029,18 35,13.971 35,9 C35,4.029 39.029,0 44,0 C48.971,0 53,4.029 53,9 C53,13.971 48.971,18 44,18 L44,18 Z" id="Fill-31" fill="#C6E3F8" sketch:type="MSShapeGroup"></path>
                <path d="M44,18 C39.029,18 35,13.971 35,9 C35,4.029 39.029,0 44,0 C48.971,0 53,4.029 53,9 C53,13.971 48.971,18 44,18 L44,18 Z" id="Stroke-32" stroke="#0F81E0" stroke-width="2" stroke-linecap="round" stroke-linejoin="round" sketch:type="MSShapeGroup"></path>
                <path d="M35.923,12.973 L17.016,24.36 M17.016,32.549 L35.923,44.026" id="Stroke-33" stroke="#0F81E0" stroke-width="2" stroke-linecap="round" stroke-linejoin="round" sketch:type="MSShapeGroup"></path>
            </g>
        </g>
    </g>
</svg>