<?xml version="1.0" encoding="UTF-8" standalone="no"?>
<svg width="58px" height="60px" viewBox="0 0 58 60" version="1.1" xmlns="http://www.w3.org/2000/svg" xmlns:xlink="http://www.w3.org/1999/xlink" xmlns:sketch="http://www.bohemiancoding.com/sketch/ns">
    <!-- Generator: Sketch 3.2.2 (9983) - http://www.bohemiancoding.com/sketch -->
    <title>20 - Phone Vibration (Webby)</title>
    <desc>Created with Sketch.</desc>
    <defs></defs>
    <g id="Page-1" stroke="none" stroke-width="1" fill="none" fill-rule="evenodd" sketch:type="MSPage">
        <g id="Icons" sketch:type="MSArtboardGroup" transform="translate(-121.000000, -4677.000000)">
            <g id="20---Phone-Vibration-(Webby)" sketch:type="MSLayerGroup" transform="translate(122.000000, 4678.000000)">
                <path d="M40.595,58 L15.405,58 C13.525,58 12,56.475 12,54.595 L12,3.405 C12,1.525 13.525,0 15.405,0 L40.595,0 C42.475,0 44,1.525 44,3.405 L44,54.595 C44,56.475 42.475,58 40.595,58 L40.595,58 Z" id="Fill-5" fill="#FFFFFF" sketch:type="MSShapeGroup"></path>
                <path d="M40.595,58 L15.405,58 C13.525,58 12,56.475 12,54.595 L12,3.405 C12,1.525 13.525,0 15.405,0 L40.595,0 C42.475,0 44,1.525 44,3.405 L44,54.595 C44,56.475 42.475,58 40.595,58 L40.595,58 Z" id="Stroke-6" stroke="#0F81E0" stroke-width="2" stroke-linecap="round" stroke-linejoin="round" sketch:type="MSShapeGroup"></path>
                <path d="M30,52 C30,53.657 28.657,55 27,55 C25.343,55 24,53.657 24,52 C24,50.343 25.343,49 27,49 C28.657,49 30,50.343 30,52 L30,52 Z" id="Fill-7" fill="#C6E3F8" sketch:type="MSShapeGroup"></path>
                <path d="M30,52 C30,53.657 28.657,55 27,55 C25.343,55 24,53.657 24,52 C24,50.343 25.343,49 27,49 C28.657,49 30,50.343 30,52 L30,52 Z" id="Stroke-8" stroke="#0F81E0" stroke-width="2" stroke-linecap="round" stroke-linejoin="round" sketch:type="MSShapeGroup"></path>
                <path d="M12,46 L44,46 M12,6 L44,6 M24,3 L28,3 M31,3 L32,3" id="Stroke-9" stroke="#0F81E0" stroke-width="2" stroke-linecap="round" stroke-linejoin="round" sketch:type="MSShapeGroup"></path>
                <path d="M8.287,3.141 L2.525,4.686 C0.708,5.172 -0.37,7.04 0.117,8.857 L11.926,52.932 C11.938,52.974 12,52.966 12,52.922 L12,4.352 L8.287,3.141 Z" id="Stroke-98" stroke="#0F81E0" stroke-width="2" stroke-linecap="round" stroke-linejoin="round" stroke-dasharray="4" sketch:type="MSShapeGroup"></path>
                <path d="M44,2.843 C44,2.162 43.795,1.532 43.451,1 L53.475,3.686 C55.292,4.172 56.37,6.04 55.883,7.857 L44.073,51.932 C44.062,51.974 44,51.965 44,51.922 L44,2.843 L44,2.843 Z" id="Stroke-482" stroke="#0F81E0" stroke-width="2" stroke-linecap="round" stroke-linejoin="round" stroke-dasharray="4" sketch:type="MSShapeGroup"></path>
            </g>
        </g>
    </g>
</svg>