<?xml version="1.0" encoding="UTF-8" standalone="no"?>
<svg width="47px" height="60px" viewBox="0 0 47 60" version="1.1" xmlns="http://www.w3.org/2000/svg" xmlns:xlink="http://www.w3.org/1999/xlink" xmlns:sketch="http://www.bohemiancoding.com/sketch/ns">
    <!-- Generator: Sketch 3.2.2 (9983) - http://www.bohemiancoding.com/sketch -->
    <title>208 - Calculator (Webby)</title>
    <desc>Created with Sketch.</desc>
    <defs></defs>
    <g id="Page-1" stroke="none" stroke-width="1" fill="none" fill-rule="evenodd" sketch:type="MSPage">
        <g id="Icons" sketch:type="MSArtboardGroup" transform="translate(-367.000000, -2397.000000)">
            <g id="208---Calculator-(Webby)" sketch:type="MSLayerGroup" transform="translate(368.000000, 2398.000000)">
                <path d="M43.086,58 L1.914,58 C0.857,58 0,57.143 0,56.086 L0,1.914 C0,0.857 0.857,0 1.914,0 L43.086,0 C44.143,0 45,0.857 45,1.914 L45,56.086 C45,57.143 44.143,58 43.086,58 L43.086,58 Z" id="Fill-128" fill="#FFFFFF" sketch:type="MSShapeGroup"></path>
                <path d="M43.086,58 L1.914,58 C0.857,58 0,57.143 0,56.086 L0,1.914 C0,0.857 0.857,0 1.914,0 L43.086,0 C44.143,0 45,0.857 45,1.914 L45,56.086 C45,57.143 44.143,58 43.086,58 L43.086,58 Z" id="Stroke-129" stroke="#0F81E0" stroke-width="2" stroke-linejoin="round" sketch:type="MSShapeGroup"></path>
                <path d="M5,44 L14,44 L14,53 L5,53 L5,44 Z" id="Fill-130" fill="#C6E3F8" sketch:type="MSShapeGroup"></path>
                <path d="M5,44 L14,44 L14,53 L5,53 L5,44 Z" id="Stroke-131" stroke="#0F81E0" stroke-width="2" stroke-linejoin="round" sketch:type="MSShapeGroup"></path>
                <path d="M18,44 L27,44 L27,53 L18,53 L18,44 Z" id="Fill-132" fill="#C6E3F8" sketch:type="MSShapeGroup"></path>
                <path d="M18,44 L27,44 L27,53 L18,53 L18,44 Z" id="Stroke-133" stroke="#0F81E0" stroke-width="2" stroke-linejoin="round" sketch:type="MSShapeGroup"></path>
                <path d="M31,31 L40,31 L40,53 L31,53 L31,31 Z" id="Fill-134" fill="#C6E3F8" sketch:type="MSShapeGroup"></path>
                <path d="M31,31 L40,31 L40,53 L31,53 L31,31 Z" id="Stroke-135" stroke="#0F81E0" stroke-width="2" stroke-linejoin="round" sketch:type="MSShapeGroup"></path>
                <path d="M5,31 L14,31 L14,40 L5,40 L5,31 Z" id="Fill-136" fill="#C6E3F8" sketch:type="MSShapeGroup"></path>
                <path d="M5,31 L14,31 L14,40 L5,40 L5,31 Z" id="Stroke-137" stroke="#0F81E0" stroke-width="2" stroke-linejoin="round" sketch:type="MSShapeGroup"></path>
                <path d="M18,31 L27,31 L27,40 L18,40 L18,31 Z" id="Fill-138" fill="#C6E3F8" sketch:type="MSShapeGroup"></path>
                <path d="M18,31 L27,31 L27,40 L18,40 L18,31 Z" id="Stroke-139" stroke="#0F81E0" stroke-width="2" stroke-linejoin="round" sketch:type="MSShapeGroup"></path>
                <path d="M5,18 L14,18 L14,27 L5,27 L5,18 Z" id="Fill-140" fill="#C6E3F8" sketch:type="MSShapeGroup"></path>
                <path d="M5,18 L14,18 L14,27 L5,27 L5,18 Z" id="Stroke-141" stroke="#0F81E0" stroke-width="2" stroke-linejoin="round" sketch:type="MSShapeGroup"></path>
                <path d="M18,18 L27,18 L27,27 L18,27 L18,18 Z" id="Fill-142" fill="#C6E3F8" sketch:type="MSShapeGroup"></path>
                <path d="M18,18 L27,18 L27,27 L18,27 L18,18 Z" id="Stroke-143" stroke="#0F81E0" stroke-width="2" stroke-linejoin="round" sketch:type="MSShapeGroup"></path>
                <path d="M31,18 L40,18 L40,27 L31,27 L31,18 Z" id="Fill-144" fill="#C6E3F8" sketch:type="MSShapeGroup"></path>
                <path d="M31,18 L40,18 L40,27 L31,27 L31,18 Z" id="Stroke-145" stroke="#0F81E0" stroke-width="2" stroke-linejoin="round" sketch:type="MSShapeGroup"></path>
                <path d="M5,5 L40,5 L40,13 L5,13 L5,5 Z" id="Fill-146" fill="#C6E3F8" sketch:type="MSShapeGroup"></path>
                <path d="M5,5 L40,5 L40,13 L5,13 L5,5 Z" id="Stroke-147" stroke="#0F81E0" stroke-width="2" stroke-linejoin="round" sketch:type="MSShapeGroup"></path>
            </g>
        </g>
    </g>
</svg>