<?xml version="1.0" encoding="UTF-8" standalone="no"?>
<svg width="56px" height="57px" viewBox="0 0 56 57" version="1.1" xmlns="http://www.w3.org/2000/svg" xmlns:xlink="http://www.w3.org/1999/xlink" xmlns:sketch="http://www.bohemiancoding.com/sketch/ns">
    <!-- Generator: Sketch 3.2.2 (9983) - http://www.bohemiancoding.com/sketch -->
    <title>210 - Enhance (Webby)</title>
    <desc>Created with Sketch.</desc>
    <defs></defs>
    <g id="Page-1" stroke="none" stroke-width="1" fill="none" fill-rule="evenodd" sketch:type="MSPage">
        <g id="Icons" sketch:type="MSArtboardGroup" transform="translate(-124.000000, -2398.000000)">
            <g id="210---Enhance-(Webby)" sketch:type="MSLayerGroup" transform="translate(125.000000, 2399.000000)">
                <path d="M2.828,54.184 L0,51.355 L38.928,12.428 L41.756,15.256 L2.828,54.184 L2.828,54.184 Z" id="Fill-270" fill="#FFFFFF" sketch:type="MSShapeGroup"></path>
                <path d="M2.828,54.184 L0,51.355 L38.928,12.428 L41.756,15.256 L2.828,54.184 L2.828,54.184 Z" id="Stroke-271" stroke="#0F81E0" stroke-width="2" stroke-linecap="round" stroke-linejoin="round" sketch:type="MSShapeGroup"></path>
                <path d="M30.219,21.136 L33.042,23.958 M39,0 L39,7 M39,23 L39,30 M54,15 L47,15 M31,15 L24,15 M49.95,4.05 L45,9 M49.95,25.95 L45,21 M33,9 L28.05,4.05" id="Stroke-272" stroke="#0F81E0" stroke-width="2" stroke-linecap="round" stroke-linejoin="round" sketch:type="MSShapeGroup"></path>
            </g>
        </g>
    </g>
</svg>