<?xml version="1.0" encoding="UTF-8" standalone="no"?>
<svg width="44px" height="28px" viewBox="0 0 44 28" version="1.1" xmlns="http://www.w3.org/2000/svg" xmlns:xlink="http://www.w3.org/1999/xlink" xmlns:sketch="http://www.bohemiancoding.com/sketch/ns">
    <!-- Generator: Sketch 3.2.2 (9983) - http://www.bohemiancoding.com/sketch -->
    <title>212 - Equal (Webby)</title>
    <desc>Created with Sketch.</desc>
    <defs></defs>
    <g id="Page-1" stroke="none" stroke-width="1" fill="none" fill-rule="evenodd" sketch:type="MSPage">
        <g id="Icons" sketch:type="MSArtboardGroup" transform="translate(-1088.000000, -2293.000000)">
            <g id="212---Equal-(Webby)" sketch:type="MSLayerGroup" transform="translate(1089.000000, 2294.000000)">
                <path d="M37.059,0 L4.941,0 C2.224,0 0,2.282 0,5 C0,7.718 2.224,10 4.941,10 L37.059,10 C39.776,10 42,7.718 42,5 C42,2.282 39.776,0 37.059,0 L37.059,0 Z" id="Fill-547" fill="#FFFFFF" sketch:type="MSShapeGroup"></path>
                <path d="M37.059,0 L4.941,0 C2.224,0 0,2.282 0,5 C0,7.718 2.224,10 4.941,10 L37.059,10 C39.776,10 42,7.718 42,5 C42,2.282 39.776,0 37.059,0 L37.059,0 Z" id="Stroke-548" stroke="#0F81E0" stroke-width="2" stroke-linejoin="round" sketch:type="MSShapeGroup"></path>
                <path d="M37.059,16 L4.941,16 C2.224,16 0,18.282 0,21 C0,23.718 2.224,26 4.941,26 L37.059,26 C39.776,26 42,23.718 42,21 C42,18.282 39.776,16 37.059,16 L37.059,16 Z" id="Fill-549" fill="#FFFFFF" sketch:type="MSShapeGroup"></path>
                <path d="M37.059,16 L4.941,16 C2.224,16 0,18.282 0,21 C0,23.718 2.224,26 4.941,26 L37.059,26 C39.776,26 42,23.718 42,21 C42,18.282 39.776,16 37.059,16 L37.059,16 Z" id="Stroke-550" stroke="#0F81E0" stroke-width="2" stroke-linejoin="round" sketch:type="MSShapeGroup"></path>
            </g>
        </g>
    </g>
</svg>