<?xml version="1.0" encoding="UTF-8" standalone="no"?>
<svg width="38px" height="38px" viewBox="0 0 38 38" version="1.1" xmlns="http://www.w3.org/2000/svg" xmlns:xlink="http://www.w3.org/1999/xlink" xmlns:sketch="http://www.bohemiancoding.com/sketch/ns">
    <!-- Generator: Sketch 3.2.2 (9983) - http://www.bohemiancoding.com/sketch -->
    <title>215 - Percent (Webby)</title>
    <desc>Created with Sketch.</desc>
    <defs></defs>
    <g id="Page-1" stroke="none" stroke-width="1" fill="none" fill-rule="evenodd" sketch:type="MSPage">
        <g id="Icons" sketch:type="MSArtboardGroup" transform="translate(-731.000000, -2288.000000)">
            <g id="215---Percent-(Webby)" sketch:type="MSLayerGroup" transform="translate(732.000000, 2289.000000)">
                <path d="M0,36 L36,0" id="Stroke-562" stroke="#0F81E0" stroke-width="2" stroke-linejoin="round" sketch:type="MSShapeGroup"></path>
                <path d="M10,5 C10,7.761 7.761,10 5,10 C2.239,10 0,7.761 0,5 C0,2.239 2.239,0 5,0 C7.761,0 10,2.239 10,5 L10,5 Z" id="Fill-563" fill="#FFFFFF" sketch:type="MSShapeGroup"></path>
                <path d="M10,5 C10,7.761 7.761,10 5,10 C2.239,10 0,7.761 0,5 C0,2.239 2.239,0 5,0 C7.761,0 10,2.239 10,5 L10,5 Z" id="Stroke-564" stroke="#0F81E0" stroke-width="2" stroke-linejoin="round" sketch:type="MSShapeGroup"></path>
                <path d="M36,31 C36,33.762 33.761,36 31,36 C28.239,36 26,33.762 26,31 C26,28.239 28.239,26 31,26 C33.761,26 36,28.239 36,31 L36,31 Z" id="Fill-565" fill="#FFFFFF" sketch:type="MSShapeGroup"></path>
                <path d="M36,31 C36,33.762 33.761,36 31,36 C28.239,36 26,33.762 26,31 C26,28.239 28.239,26 31,26 C33.761,26 36,28.239 36,31 L36,31 Z" id="Stroke-566" stroke="#0F81E0" stroke-width="2" stroke-linejoin="round" sketch:type="MSShapeGroup"></path>
            </g>
        </g>
    </g>
</svg>