<?xml version="1.0" encoding="UTF-8" standalone="no"?>
<svg width="58px" height="57px" viewBox="0 0 58 57" version="1.1" xmlns="http://www.w3.org/2000/svg" xmlns:xlink="http://www.w3.org/1999/xlink" xmlns:sketch="http://www.bohemiancoding.com/sketch/ns">
    <!-- Generator: Sketch 3.2.2 (9983) - http://www.bohemiancoding.com/sketch -->
    <title>22 - Calendar (Webby)</title>
    <desc>Created with Sketch.</desc>
    <defs></defs>
    <g id="Page-1" stroke="none" stroke-width="1" fill="none" fill-rule="evenodd" sketch:type="MSPage">
        <g id="Icons" sketch:type="MSArtboardGroup" transform="translate(-1081.000000, -4558.000000)">
            <g id="22---Calendar-(Webby)" sketch:type="MSLayerGroup" transform="translate(1082.000000, 4559.000000)">
                <path d="M18,4 L15,4 M41,4 L56,4 L56,15 L0,15 L0,4 L15,4" id="Stroke-397" stroke="#0F81E0" stroke-width="2" stroke-linecap="round" stroke-linejoin="round" sketch:type="MSShapeGroup"></path>
                <path d="M0,15 L56,15 L56,55 L0,55 L0,15 Z" id="Fill-398" fill="#FFFFFF" sketch:type="MSShapeGroup"></path>
                <path d="M0,15 L56,15 L56,55 L0,55 L0,15 Z" id="Stroke-399" stroke="#0F81E0" stroke-width="2" stroke-linecap="round" stroke-linejoin="round" sketch:type="MSShapeGroup"></path>
                <path d="M15,4 C15,1.791 16.791,0 19,0 C21.209,0 23,1.791 23,4 C23,6.209 21.209,8 19,8 M25,8 C27.209,8 29,6.209 29,4 C29,1.791 27.209,0 25,0 M31,8 C33.209,8 35,6.209 35,4 C35,1.791 33.209,0 31,0 M37,8 C39.209,8 41,6.209 41,4 C41,1.791 39.209,0 37,0" id="Stroke-400" stroke="#0F81E0" stroke-width="2" stroke-linecap="round" stroke-linejoin="round" sketch:type="MSShapeGroup"></path>
                <path d="M22,23 C22,23.552 21.552,24 21,24 C20.448,24 20,23.552 20,23 C20,22.448 20.448,22 21,22 C21.552,22 22,22.448 22,23" id="Fill-407" fill="#0F81E0" sketch:type="MSShapeGroup"></path>
                <path d="M29,23 C29,23.552 28.552,24 28,24 C27.448,24 27,23.552 27,23 C27,22.448 27.448,22 28,22 C28.552,22 29,22.448 29,23" id="Fill-408" fill="#0F81E0" sketch:type="MSShapeGroup"></path>
                <path d="M36,23 C36,23.552 35.552,24 35,24 C34.448,24 34,23.552 34,23 C34,22.448 34.448,22 35,22 C35.552,22 36,22.448 36,23" id="Fill-409" fill="#0F81E0" sketch:type="MSShapeGroup"></path>
                <path d="M43,23 C43,23.552 42.552,24 42,24 C41.448,24 41,23.552 41,23 C41,22.448 41.448,22 42,22 C42.552,22 43,22.448 43,23" id="Fill-410" fill="#0F81E0" sketch:type="MSShapeGroup"></path>
                <path d="M50,23 C50,23.552 49.552,24 49,24 C48.448,24 48,23.552 48,23 C48,22.448 48.448,22 49,22 C49.552,22 50,22.448 50,23" id="Fill-411" fill="#0F81E0" sketch:type="MSShapeGroup"></path>
                <path d="M8,31 C8,31.552 7.552,32 7,32 C6.448,32 6,31.552 6,31 C6,30.448 6.448,30 7,30 C7.552,30 8,30.448 8,31" id="Fill-412" fill="#0F81E0" sketch:type="MSShapeGroup"></path>
                <path d="M15,31 C15,31.552 14.552,32 14,32 C13.448,32 13,31.552 13,31 C13,30.448 13.448,30 14,30 C14.552,30 15,30.448 15,31" id="Fill-413" fill="#0F81E0" sketch:type="MSShapeGroup"></path>
                <path d="M22,31 C22,31.552 21.552,32 21,32 C20.448,32 20,31.552 20,31 C20,30.448 20.448,30 21,30 C21.552,30 22,30.448 22,31" id="Fill-414" fill="#0F81E0" sketch:type="MSShapeGroup"></path>
                <path d="M29,31 C29,31.552 28.552,32 28,32 C27.448,32 27,31.552 27,31 C27,30.448 27.448,30 28,30 C28.552,30 29,30.448 29,31" id="Fill-415" fill="#0F81E0" sketch:type="MSShapeGroup"></path>
                <path d="M36,31 C36,31.552 35.552,32 35,32 C34.448,32 34,31.552 34,31 C34,30.448 34.448,30 35,30 C35.552,30 36,30.448 36,31" id="Fill-416" fill="#0F81E0" sketch:type="MSShapeGroup"></path>
                <path d="M43,31 C43,31.552 42.552,32 42,32 C41.448,32 41,31.552 41,31 C41,30.448 41.448,30 42,30 C42.552,30 43,30.448 43,31" id="Fill-417" fill="#0F81E0" sketch:type="MSShapeGroup"></path>
                <path d="M50,31 C50,31.552 49.552,32 49,32 C48.448,32 48,31.552 48,31 C48,30.448 48.448,30 49,30 C49.552,30 50,30.448 50,31" id="Fill-418" fill="#0F81E0" sketch:type="MSShapeGroup"></path>
                <path d="M8,38 C8,38.552 7.552,39 7,39 C6.448,39 6,38.552 6,38 C6,37.448 6.448,37 7,37 C7.552,37 8,37.448 8,38" id="Fill-419" fill="#0F81E0" sketch:type="MSShapeGroup"></path>
                <path d="M15,38 C15,38.552 14.552,39 14,39 C13.448,39 13,38.552 13,38 C13,37.448 13.448,37 14,37 C14.552,37 15,37.448 15,38" id="Fill-420" fill="#0F81E0" sketch:type="MSShapeGroup"></path>
                <path d="M22,38 C22,38.552 21.552,39 21,39 C20.448,39 20,38.552 20,38 C20,37.448 20.448,37 21,37 C21.552,37 22,37.448 22,38" id="Fill-421" fill="#0F81E0" sketch:type="MSShapeGroup"></path>
                <path d="M29,38 C29,38.552 28.552,39 28,39 C27.448,39 27,38.552 27,38 C27,37.448 27.448,37 28,37 C28.552,37 29,37.448 29,38" id="Fill-422" fill="#0F81E0" sketch:type="MSShapeGroup"></path>
                <path d="M36,38 C36,38.552 35.552,39 35,39 C34.448,39 34,38.552 34,38 C34,37.448 34.448,37 35,37 C35.552,37 36,37.448 36,38" id="Fill-423" fill="#0F81E0" sketch:type="MSShapeGroup"></path>
                <path d="M43,38 C43,38.552 42.552,39 42,39 C41.448,39 41,38.552 41,38 C41,37.448 41.448,37 42,37 C42.552,37 43,37.448 43,38" id="Fill-424" fill="#0F81E0" sketch:type="MSShapeGroup"></path>
                <path d="M50,38 C50,38.552 49.552,39 49,39 C48.448,39 48,38.552 48,38 C48,37.448 48.448,37 49,37 C49.552,37 50,37.448 50,38" id="Fill-425" fill="#0F81E0" sketch:type="MSShapeGroup"></path>
                <path d="M8,46 C8,46.552 7.552,47 7,47 C6.448,47 6,46.552 6,46 C6,45.448 6.448,45 7,45 C7.552,45 8,45.448 8,46" id="Fill-426" fill="#0F81E0" sketch:type="MSShapeGroup"></path>
                <path d="M15,46 C15,46.552 14.552,47 14,47 C13.448,47 13,46.552 13,46 C13,45.448 13.448,45 14,45 C14.552,45 15,45.448 15,46" id="Fill-427" fill="#0F81E0" sketch:type="MSShapeGroup"></path>
                <path d="M22,46 C22,46.552 21.552,47 21,47 C20.448,47 20,46.552 20,46 C20,45.448 20.448,45 21,45 C21.552,45 22,45.448 22,46" id="Fill-428" fill="#0F81E0" sketch:type="MSShapeGroup"></path>
                <path d="M29,46 C29,46.552 28.552,47 28,47 C27.448,47 27,46.552 27,46 C27,45.448 27.448,45 28,45 C28.552,45 29,45.448 29,46" id="Fill-429" fill="#0F81E0" sketch:type="MSShapeGroup"></path>
                <path d="M36,46 C36,46.552 35.552,47 35,47 C34.448,47 34,46.552 34,46 C34,45.448 34.448,45 35,45 C35.552,45 36,45.448 36,46" id="Fill-430" fill="#0F81E0" sketch:type="MSShapeGroup"></path>
            </g>
        </g>
    </g>
</svg>