<?xml version="1.0" encoding="UTF-8" standalone="no"?>
<svg width="53px" height="52px" viewBox="0 0 53 52" version="1.1" xmlns="http://www.w3.org/2000/svg" xmlns:xlink="http://www.w3.org/1999/xlink" xmlns:sketch="http://www.bohemiancoding.com/sketch/ns">
    <!-- Generator: Sketch 3.2.2 (9983) - http://www.bohemiancoding.com/sketch -->
    <title>229 - Volume Down (Webby)</title>
    <desc>Created with Sketch.</desc>
    <defs></defs>
    <g id="Page-1" stroke="none" stroke-width="1" fill="none" fill-rule="evenodd" sketch:type="MSPage">
        <g id="Icons" sketch:type="MSArtboardGroup" transform="translate(-244.000000, -2161.000000)">
            <g id="229---Volume-Down-(Webby)" sketch:type="MSLayerGroup" transform="translate(245.000000, 2162.000000)">
                <path d="M50.74,25 C50.74,38.807 39.547,50 25.74,50 C11.933,50 0.74,38.807 0.74,25 C0.74,11.193 11.933,0 25.74,0 C39.547,0 50.74,11.193 50.74,25 L50.74,25 Z" id="Fill-356" fill="#FFFFFF" sketch:type="MSShapeGroup"></path>
                <path d="M50.74,25 C50.74,38.807 39.547,50 25.74,50 C11.933,50 0.74,38.807 0.74,25 C0.74,11.193 11.933,0 25.74,0 C39.547,0 50.74,11.193 50.74,25 L50.74,25 Z" id="Stroke-357" stroke="#0F81E0" stroke-width="2" stroke-linejoin="round" sketch:type="MSShapeGroup"></path>
                <path d="M38.74,25 L12.74,25" id="Path" stroke="#0F81E0" stroke-width="2" stroke-linecap="round" stroke-linejoin="round" sketch:type="MSShapeGroup"></path>
            </g>
        </g>
    </g>
</svg>