<?xml version="1.0" encoding="UTF-8" standalone="no"?>
<svg width="46px" height="60px" viewBox="0 0 46 60" version="1.1" xmlns="http://www.w3.org/2000/svg" xmlns:xlink="http://www.w3.org/1999/xlink" xmlns:sketch="http://www.bohemiancoding.com/sketch/ns">
    <!-- Generator: Sketch 3.2.2 (9983) - http://www.bohemiancoding.com/sketch -->
    <title>23 - Notebook (Webby)</title>
    <desc>Created with Sketch.</desc>
    <defs></defs>
    <g id="Page-1" stroke="none" stroke-width="1" fill="none" fill-rule="evenodd" sketch:type="MSPage">
        <g id="Icons" sketch:type="MSArtboardGroup" transform="translate(-967.000000, -4557.000000)">
            <g id="23---Notebook-(Webby)" sketch:type="MSLayerGroup" transform="translate(968.000000, 4558.000000)">
                <path d="M0,0 L44,0 L44,58 L0,58 L0,0 Z" id="Fill-390" fill="#FFFFFF" sketch:type="MSShapeGroup"></path>
                <path d="M0,0 L44,0 L44,58 L0,58 L0,0 Z" id="Stroke-391" stroke="#0F81E0" stroke-width="2" stroke-linejoin="round" sketch:type="MSShapeGroup"></path>
                <path d="M0,0 L8,0 L8,58 L0,58 L0,0 Z" id="Fill-392" fill="#C6E3F8" sketch:type="MSShapeGroup"></path>
                <path d="M0,0 L8,0 L8,58 L0,58 L0,0 Z" id="Stroke-393" stroke="#0F81E0" stroke-width="2" stroke-linejoin="round" sketch:type="MSShapeGroup"></path>
                <path d="M15,10 L37,10 L37,22 L15,22 L15,10 Z" id="Fill-394" fill="#C6E3F8" sketch:type="MSShapeGroup"></path>
                <path d="M15,10 L37,10 L37,22 L15,22 L15,10 Z" id="Stroke-395" stroke="#0F81E0" stroke-width="2" stroke-linejoin="round" sketch:type="MSShapeGroup"></path>
                <path d="M19,14 L33,14 M19,18 L33,18" id="Stroke-396" stroke="#0F81E0" stroke-width="2" stroke-linejoin="round" sketch:type="MSShapeGroup"></path>
            </g>
        </g>
    </g>
</svg>