<?xml version="1.0" encoding="UTF-8" standalone="no"?>
<svg width="53px" height="46px" viewBox="0 0 53 46" version="1.1" xmlns="http://www.w3.org/2000/svg" xmlns:xlink="http://www.w3.org/1999/xlink" xmlns:sketch="http://www.bohemiancoding.com/sketch/ns">
    <!-- Generator: Sketch 3.2.2 (9983) - http://www.bohemiancoding.com/sketch -->
    <title>234 - Medium Volume (Webby)</title>
    <desc>Created with Sketch.</desc>
    <defs></defs>
    <g id="Page-1" stroke="none" stroke-width="1" fill="none" fill-rule="evenodd" sketch:type="MSPage">
        <g id="Icons" sketch:type="MSArtboardGroup" transform="translate(-840.000000, -2045.000000)">
            <g id="234---Medium-Volume-(Webby)" sketch:type="MSLayerGroup" transform="translate(841.000000, 2046.000000)">
                <path d="M0,12 L0,31 L11,30.995 L24.83,43.7 C26.232,44.544 28,43.509 28,41.844 L28,2.156 C28,0.491 26.232,-0.544 24.83,0.301 L11,12 L0,12 L0,12 Z" id="Fill-569" fill="#C6E3F8" sketch:type="MSShapeGroup"></path>
                <path d="M0,12 L0,31 L11,30.995 L24.83,43.7 C26.232,44.544 28,43.509 28,41.844 L28,2.156 C28,0.491 26.232,-0.544 24.83,0.301 L11,12 L0,12 L0,12 Z" id="Stroke-570" stroke="#0F81E0" stroke-width="2" stroke-linecap="round" stroke-linejoin="round" sketch:type="MSShapeGroup"></path>
                <path d="M11,12 L11,17 M11,26 L11,31" id="Stroke-571" stroke="#0F81E0" stroke-width="2" stroke-linecap="round" stroke-linejoin="round" sketch:type="MSShapeGroup"></path>
                <path d="M37.501,39 C44.784,36.516 50.027,29.625 50.027,21.5 C50.027,13.367 44.771,6.478 37.476,4 M32,33.501 C37.212,31.994 41.027,27.197 41.027,21.5 C41.027,15.803 37.212,11.006 32,9.499" id="Stroke-572" stroke="#0F81E0" stroke-width="2" stroke-linecap="round" stroke-linejoin="round" sketch:type="MSShapeGroup"></path>
            </g>
        </g>
    </g>
</svg>