<?xml version="1.0" encoding="UTF-8" standalone="no"?>
<svg width="60px" height="48px" viewBox="0 0 60 48" version="1.1" xmlns="http://www.w3.org/2000/svg" xmlns:xlink="http://www.w3.org/1999/xlink" xmlns:sketch="http://www.bohemiancoding.com/sketch/ns">
    <!-- Generator: Sketch 3.2.2 (9983) - http://www.bohemiancoding.com/sketch -->
    <title>235 - High Volume (Webby)</title>
    <desc>Created with Sketch.</desc>
    <defs></defs>
    <g id="Page-1" stroke="none" stroke-width="1" fill="none" fill-rule="evenodd" sketch:type="MSPage">
        <g id="Icons" sketch:type="MSArtboardGroup" transform="translate(-720.000000, -2044.000000)">
            <g id="235---High-Volume-(Webby)" sketch:type="MSLayerGroup" transform="translate(721.000000, 2044.000000)">
                <path d="M0,14 L0,33 L11,32.995 L24.83,45.7 C26.232,46.544 28,45.509 28,43.844 L28,4.156 C28,2.491 26.232,1.456 24.83,2.301 L11,14 L0,14 L0,14 Z" id="Fill-365" fill="#C6E3F8" sketch:type="MSShapeGroup"></path>
                <path d="M0,14 L0,33 L11,32.995 L24.83,45.7 C26.232,46.544 28,45.509 28,43.844 L28,4.156 C28,2.491 26.232,1.456 24.83,2.301 L11,14 L0,14 L0,14 Z" id="Stroke-366" stroke="#0F81E0" stroke-width="2" stroke-linecap="round" stroke-linejoin="round" sketch:type="MSShapeGroup"></path>
                <path d="M11,14 L11,19 M11,28 L11,33" id="Stroke-567" stroke="#0F81E0" stroke-width="2" stroke-linecap="round" stroke-linejoin="round" sketch:type="MSShapeGroup"></path>
                <path d="M37.501,41 C44.784,38.516 50.027,31.625 50.027,23.5 C50.027,15.367 44.771,8.478 37.476,6 M42.347,46.347 C51.504,42.798 58,33.91 58,23.5 C58,13.362 51.842,4.663 43.063,0.937 M32,35.501 C37.212,33.994 41.027,29.197 41.027,23.5 C41.027,17.803 37.212,13.006 32,11.499" id="Stroke-568" stroke="#0F81E0" stroke-width="2" stroke-linecap="round" stroke-linejoin="round" sketch:type="MSShapeGroup"></path>
            </g>
        </g>
    </g>
</svg>