<?xml version="1.0" encoding="UTF-8" standalone="no"?>
<svg width="60px" height="60px" viewBox="0 0 60 60" version="1.1" xmlns="http://www.w3.org/2000/svg" xmlns:xlink="http://www.w3.org/1999/xlink" xmlns:sketch="http://www.bohemiancoding.com/sketch/ns">
    <!-- Generator: Sketch 3.2.2 (9983) - http://www.bohemiancoding.com/sketch -->
    <title>24 - Take Notes (Webby)</title>
    <desc>Created with Sketch.</desc>
    <defs></defs>
    <g id="Page-1" stroke="none" stroke-width="1" fill="none" fill-rule="evenodd" sketch:type="MSPage">
        <g id="Icons" sketch:type="MSArtboardGroup" transform="translate(-840.000000, -4557.000000)">
            <g id="24---Take-Notes-(Webby)" sketch:type="MSLayerGroup" transform="translate(841.000000, 4558.000000)">
                <path d="M58,49 L54,56 L50,49 L50,1.984 C50,0.889 50.889,0 51.985,0 L56.015,0 C57.111,0 58,0.889 58,1.984 L58,49 L58,49 Z" id="Fill-377" fill="#FFFFFF" sketch:type="MSShapeGroup"></path>
                <path d="M58,49 L54,56 L50,49 L50,1.984 C50,0.889 50.889,0 51.985,0 L56.015,0 C57.111,0 58,0.889 58,1.984 L58,49 L58,49 Z" id="Stroke-378" stroke="#0F81E0" stroke-width="2" stroke-linejoin="round" sketch:type="MSShapeGroup"></path>
                <path d="M50,7 L58,7 L58,11 L50,11 L50,7 Z" id="Fill-379" fill="#C6E3F8" sketch:type="MSShapeGroup"></path>
                <path d="M50,7 L58,7 L58,11 L50,11 L50,7 Z" id="Stroke-380" stroke="#0F81E0" stroke-width="2" stroke-linejoin="round" sketch:type="MSShapeGroup"></path>
                <path d="M50,49 L58,49" id="Stroke-381" stroke="#0F81E0" stroke-width="2" stroke-linejoin="round" sketch:type="MSShapeGroup"></path>
                <path d="M54,56 L54,58" id="Stroke-382" stroke="#0F81E0" stroke-width="2" stroke-linecap="round" stroke-linejoin="round" sketch:type="MSShapeGroup"></path>
                <path d="M0,0 L44,0 L44,58 L0,58 L0,0 Z" id="Fill-383" fill="#FFFFFF" sketch:type="MSShapeGroup"></path>
                <path d="M0,0 L44,0 L44,58 L0,58 L0,0 Z" id="Stroke-384" stroke="#0F81E0" stroke-width="2" stroke-linejoin="round" sketch:type="MSShapeGroup"></path>
                <path d="M0,0 L8,0 L8,58 L0,58 L0,0 Z" id="Fill-385" fill="#C6E3F8" sketch:type="MSShapeGroup"></path>
                <path d="M0,0 L8,0 L8,58 L0,58 L0,0 Z" id="Stroke-386" stroke="#0F81E0" stroke-width="2" stroke-linejoin="round" sketch:type="MSShapeGroup"></path>
                <path d="M15,10 L37,10 L37,22 L15,22 L15,10 Z" id="Fill-387" fill="#C6E3F8" sketch:type="MSShapeGroup"></path>
                <path d="M15,10 L37,10 L37,22 L15,22 L15,10 Z" id="Stroke-388" stroke="#0F81E0" stroke-width="2" stroke-linejoin="round" sketch:type="MSShapeGroup"></path>
                <path d="M19,14 L33,14 M19,18 L33,18" id="Stroke-389" stroke="#0F81E0" stroke-width="2" stroke-linejoin="round" sketch:type="MSShapeGroup"></path>
            </g>
        </g>
    </g>
</svg>