<?xml version="1.0" encoding="UTF-8" standalone="no"?>
<svg width="58px" height="60px" viewBox="0 0 58 60" version="1.1" xmlns="http://www.w3.org/2000/svg" xmlns:xlink="http://www.w3.org/1999/xlink" xmlns:sketch="http://www.bohemiancoding.com/sketch/ns">
    <!-- Generator: Sketch 3.2.2 (9983) - http://www.bohemiancoding.com/sketch -->
    <title>25 - Take Notes (Webby)</title>
    <desc>Created with Sketch.</desc>
    <defs></defs>
    <g id="Page-1" stroke="none" stroke-width="1" fill="none" fill-rule="evenodd" sketch:type="MSPage">
        <g id="Icons" sketch:type="MSArtboardGroup" transform="translate(-721.000000, -4557.000000)">
            <g id="25---Take-Notes-(Webby)" sketch:type="MSLayerGroup" transform="translate(722.000000, 4558.000000)">
                <path d="M38.003,52 L0,52 L0,0.003 L38.003,0.003 C39.658,0.003 41,1.345 41,3 L41,49.003 C41,50.658 39.658,52 38.003,52 L38.003,52 Z" id="Fill-275" fill="#FFFFFF" sketch:type="MSShapeGroup"></path>
                <path d="M38.003,52 L0,52 L0,0.003 L38.003,0.003 C39.658,0.003 41,1.345 41,3 L41,49.003 C41,50.658 39.658,52 38.003,52 L38.003,52 Z" id="Stroke-276" stroke="#0F81E0" stroke-width="2" stroke-linejoin="round" sketch:type="MSShapeGroup"></path>
                <path d="M30,0.003 L35,0.003 L35,52 L30,52 L30,0.003 Z" id="Fill-277" fill="#C6E3F8" sketch:type="MSShapeGroup"></path>
                <path d="M30,0.003 L35,0.003 L35,52 L30,52 L30,0.003 Z" id="Stroke-278" stroke="#0F81E0" stroke-width="2" stroke-linejoin="round" sketch:type="MSShapeGroup"></path>
                <path d="M0,35.01 L30,35.01 L30,17.01 L0,17.01 L0,35.01 Z" id="Fill-279" fill="#FFFFFF" sketch:type="MSShapeGroup"></path>
                <path d="M0,35.01 L30,35.01 L30,17.01 L0,17.01 L0,35.01 Z" id="Stroke-280" stroke="#0F81E0" stroke-width="2" stroke-linejoin="round" sketch:type="MSShapeGroup"></path>
                <path d="M35,35.01 L41,35.01 L41,17.01 L35,17.01 L35,35.01 Z" id="Fill-281" fill="#FFFFFF" sketch:type="MSShapeGroup"></path>
                <path d="M35,35.01 L41,35.01 L41,17.01 L35,17.01 L35,35.01 Z" id="Stroke-282" stroke="#0F81E0" stroke-width="2" stroke-linejoin="round" sketch:type="MSShapeGroup"></path>
                <path d="M10,57 L7,55 L4,57 L4,52 L10,52 L10,57 L10,57 Z" id="Fill-283" fill="#FFFFFF" sketch:type="MSShapeGroup"></path>
                <path d="M10,57 L7,55 L4,57 L4,52 L10,52 L10,57 L10,57 Z" id="Stroke-284" stroke="#0F81E0" stroke-width="2" stroke-linejoin="round" sketch:type="MSShapeGroup"></path>
                <path d="M56,49 L52,56 L48,49 L48,1.984 C48,0.889 48.889,0 49.985,0 L54.015,0 C55.111,0 56,0.889 56,1.984 L56,49 L56,49 Z" id="Fill-285" fill="#FFFFFF" sketch:type="MSShapeGroup"></path>
                <path d="M56,49 L52,56 L48,49 L48,1.984 C48,0.889 48.889,0 49.985,0 L54.015,0 C55.111,0 56,0.889 56,1.984 L56,49 L56,49 Z" id="Stroke-286" stroke="#0F81E0" stroke-width="2" stroke-linejoin="round" sketch:type="MSShapeGroup"></path>
                <path d="M48,7 L56,7 L56,11 L48,11 L48,7 Z" id="Fill-287" fill="#C6E3F8" sketch:type="MSShapeGroup"></path>
                <path d="M48,7 L56,7 L56,11 L48,11 L48,7 Z" id="Stroke-288" stroke="#0F81E0" stroke-width="2" stroke-linejoin="round" sketch:type="MSShapeGroup"></path>
                <path d="M48,49 L56,49" id="Stroke-289" stroke="#0F81E0" stroke-width="2" stroke-linejoin="round" sketch:type="MSShapeGroup"></path>
                <path d="M52,56 L52,58" id="Stroke-290" stroke="#0F81E0" stroke-width="2" stroke-linecap="round" stroke-linejoin="round" sketch:type="MSShapeGroup"></path>
            </g>
        </g>
    </g>
</svg>