<?xml version="1.0" encoding="UTF-8" standalone="no"?>
<svg width="50px" height="45px" viewBox="0 0 50 45" version="1.1" xmlns="http://www.w3.org/2000/svg" xmlns:xlink="http://www.w3.org/1999/xlink" xmlns:sketch="http://www.bohemiancoding.com/sketch/ns">
    <!-- Generator: Sketch 3.2.2 (9983) - http://www.bohemiancoding.com/sketch -->
    <title>251 - Repeat (Webby)</title>
    <desc>Created with Sketch.</desc>
    <defs></defs>
    <g id="Page-1" stroke="none" stroke-width="1" fill="none" fill-rule="evenodd" sketch:type="MSPage">
        <g id="Icons" sketch:type="MSArtboardGroup" transform="translate(-1205.000000, -1805.000000)">
            <g id="251---Repeat-(Webby)" sketch:type="MSLayerGroup" transform="translate(1206.000000, 1806.000000)">
                <path d="M0,20 C0,13.367 5.367,8 12,8 L37,8" id="Stroke-518" stroke="#0F81E0" stroke-width="2" stroke-linecap="round" stroke-linejoin="round" sketch:type="MSShapeGroup"></path>
                <path d="M37,16 L48,8 L37,0 L37,16 L37,16 Z" id="Fill-519" fill="#C6E3F8" sketch:type="MSShapeGroup"></path>
                <path d="M37,16 L48,8 L37,0 L37,16 L37,16 Z" id="Stroke-520" stroke="#0F81E0" stroke-width="2" stroke-linecap="round" stroke-linejoin="round" sketch:type="MSShapeGroup"></path>
                <path d="M48,23 C48,29.633 42.633,35 36,35 L11,35" id="Stroke-523" stroke="#0F81E0" stroke-width="2" stroke-linecap="round" stroke-linejoin="round" sketch:type="MSShapeGroup"></path>
                <path d="M11,27 L0,35 L11,43 L11,27 L11,27 Z" id="Fill-524" fill="#C6E3F8" sketch:type="MSShapeGroup"></path>
                <path d="M11,27 L0,35 L11,43 L11,27 L11,27 Z" id="Stroke-525" stroke="#0F81E0" stroke-width="2" stroke-linecap="round" stroke-linejoin="round" sketch:type="MSShapeGroup"></path>
            </g>
        </g>
    </g>
</svg>