<?xml version="1.0" encoding="UTF-8" standalone="no"?>
<svg width="43px" height="59px" viewBox="0 0 43 59" version="1.1" xmlns="http://www.w3.org/2000/svg" xmlns:xlink="http://www.w3.org/1999/xlink" xmlns:sketch="http://www.bohemiancoding.com/sketch/ns">
    <!-- Generator: Sketch 3.2.2 (9983) - http://www.bohemiancoding.com/sketch -->
    <title>26 - Notebook (Webby)</title>
    <desc>Created with Sketch.</desc>
    <defs></defs>
    <g id="Page-1" stroke="none" stroke-width="1" fill="none" fill-rule="evenodd" sketch:type="MSPage">
        <g id="Icons" sketch:type="MSArtboardGroup" transform="translate(-609.000000, -4557.000000)">
            <g id="26---Notebook-(Webby)" sketch:type="MSLayerGroup" transform="translate(610.000000, 4558.000000)">
                <path d="M38.003,51.996 L0,51.996 L0,0 L38.003,0 C39.658,0 41,1.341 41,2.997 L41,49 C41,50.655 39.658,51.996 38.003,51.996 L38.003,51.996 Z" id="Fill-251" fill="#FFFFFF" sketch:type="MSShapeGroup"></path>
                <path d="M38.003,51.996 L0,51.996 L0,0 L38.003,0 C39.658,0 41,1.341 41,2.997 L41,49 C41,50.655 39.658,51.996 38.003,51.996 L38.003,51.996 Z" id="Stroke-252" stroke="#0F81E0" stroke-width="2" stroke-linejoin="round" sketch:type="MSShapeGroup"></path>
                <path d="M30,0 L35,0 L35,51.997 L30,51.997 L30,0 Z" id="Fill-253" fill="#C6E3F8" sketch:type="MSShapeGroup"></path>
                <path d="M30,0 L35,0 L35,51.997 L30,51.997 L30,0 Z" id="Stroke-254" stroke="#0F81E0" stroke-width="2" stroke-linejoin="round" sketch:type="MSShapeGroup"></path>
                <path d="M0,35.007 L30,35.007 L30,17.007 L0,17.007 L0,35.007 Z" id="Fill-259" fill="#C6E3F8" sketch:type="MSShapeGroup"></path>
                <path d="M0,35.007 L30,35.007 L30,17.007 L0,17.007 L0,35.007 Z" id="Stroke-260" stroke="#0F81E0" stroke-width="2" stroke-linejoin="round" sketch:type="MSShapeGroup"></path>
                <path d="M35,35.007 L41,35.007 L41,17.007 L35,17.007 L35,35.007 Z" id="Fill-261" fill="#C6E3F8" sketch:type="MSShapeGroup"></path>
                <path d="M35,35.007 L41,35.007 L41,17.007 L35,17.007 L35,35.007 Z" id="Stroke-262" stroke="#0F81E0" stroke-width="2" stroke-linejoin="round" sketch:type="MSShapeGroup"></path>
                <path d="M10,56.997 L7,54.996 L4,56.997 L4,51.996 L10,51.996 L10,56.997 L10,56.997 Z" id="Fill-263" fill="#FFFFFF" sketch:type="MSShapeGroup"></path>
                <path d="M10,56.997 L7,54.996 L4,56.997 L4,51.996 L10,51.996 L10,56.997 L10,56.997 Z" id="Stroke-264" stroke="#0F81E0" stroke-width="2" stroke-linejoin="round" sketch:type="MSShapeGroup"></path>
            </g>
        </g>
    </g>
</svg>