<?xml version="1.0" encoding="UTF-8" standalone="no"?>
<svg width="48px" height="49px" viewBox="0 0 48 49" version="1.1" xmlns="http://www.w3.org/2000/svg" xmlns:xlink="http://www.w3.org/1999/xlink" xmlns:sketch="http://www.bohemiancoding.com/sketch/ns">
    <!-- Generator: Sketch 3.2.2 (9983) - http://www.bohemiancoding.com/sketch -->
    <title>261 - Save (Webby)</title>
    <desc>Created with Sketch.</desc>
    <defs></defs>
    <g id="Page-1" stroke="none" stroke-width="1" fill="none" fill-rule="evenodd" sketch:type="MSPage">
        <g id="Icons" sketch:type="MSArtboardGroup" transform="translate(-1206.000000, -1682.000000)">
            <g id="261---Save-(Webby)" sketch:type="MSLayerGroup" transform="translate(1207.000000, 1683.000000)">
                <path d="M46,8 L46,47 L0,47 L0,0 L38,0 L46,8 L46,8 Z" id="Fill-345" fill="#FFFFFF" sketch:type="MSShapeGroup"></path>
                <path d="M46,8 L46,47 L0,47 L0,0 L38,0 L46,8 L46,8 Z" id="Stroke-346" stroke="#0F81E0" stroke-width="2" stroke-linecap="round" stroke-linejoin="round" sketch:type="MSShapeGroup"></path>
                <path d="M9,0 L35,0 L35,16 L9,16 L9,0 Z" id="Fill-347" fill="#C6E3F8" sketch:type="MSShapeGroup"></path>
                <path d="M9,0 L35,0 L35,16 L9,16 L9,0 Z" id="Stroke-348" stroke="#0F81E0" stroke-width="2" stroke-linecap="round" stroke-linejoin="round" sketch:type="MSShapeGroup"></path>
                <path d="M7,26 L38,26 L38,47 L7,47 L7,26 Z" id="Fill-349" fill="#C6E3F8" sketch:type="MSShapeGroup"></path>
                <path d="M7,26 L38,26 L38,47 L7,47 L7,26 Z" id="Stroke-350" stroke="#0F81E0" stroke-width="2" stroke-linecap="round" stroke-linejoin="round" sketch:type="MSShapeGroup"></path>
                <path d="M12,31 L19,31 M12,35 L22,35" id="Stroke-351" stroke="#0F81E0" stroke-width="2" stroke-linecap="round" stroke-linejoin="round" sketch:type="MSShapeGroup"></path>
                <path d="M27,4 L31,4 L31,12 L27,12 L27,4 Z" id="Fill-352" fill="#FFFFFF" sketch:type="MSShapeGroup"></path>
                <path d="M27,4 L31,4 L31,12 L27,12 L27,4 Z" id="Stroke-353" stroke="#0F81E0" stroke-width="2" stroke-linecap="round" stroke-linejoin="round" sketch:type="MSShapeGroup"></path>
            </g>
        </g>
    </g>
</svg>