<?xml version="1.0" encoding="UTF-8" standalone="no"?>
<svg width="51px" height="55px" viewBox="0 0 51 55" version="1.1" xmlns="http://www.w3.org/2000/svg" xmlns:xlink="http://www.w3.org/1999/xlink" xmlns:sketch="http://www.bohemiancoding.com/sketch/ns">
    <!-- Generator: Sketch 3.2.2 (9983) - http://www.bohemiancoding.com/sketch -->
    <title>268 - Musical Note (Webby)</title>
    <desc>Created with Sketch.</desc>
    <defs></defs>
    <g id="Page-1" stroke="none" stroke-width="1" fill="none" fill-rule="evenodd" sketch:type="MSPage">
        <g id="Icons" sketch:type="MSArtboardGroup" transform="translate(-362.000000, -1681.000000)">
            <g id="268---Musical-Note-(Webby)" sketch:type="MSLayerGroup" transform="translate(363.000000, 1682.000000)">
                <path d="M49,10.228 L18,14.239 L18,4.011 L49,0 L49,10.228 L49,10.228 Z" id="Fill-324" fill="#C6E3F8" sketch:type="MSShapeGroup"></path>
                <path d="M49,10.228 L18,14.239 L18,4.011 L49,0 L49,10.228 L49,10.228 Z" id="Stroke-325" stroke="#0F81E0" stroke-width="2" stroke-linecap="round" stroke-linejoin="round" sketch:type="MSShapeGroup"></path>
                <path d="M18,44.121 L18,10.028 M49,35.096 L49,6.017" id="Stroke-326" stroke="#0F81E0" stroke-width="2" stroke-linecap="round" stroke-linejoin="round" sketch:type="MSShapeGroup"></path>
                <path d="M18,45 C18,49.418 13.971,53 9,53 C4.029,53 0,49.418 0,45 C0,40.582 4.029,37 9,37 C13.971,37 18,40.582 18,45 L18,45 Z" id="Fill-327" fill="#C6E3F8" sketch:type="MSShapeGroup"></path>
                <path d="M18,45 C18,49.418 13.971,53 9,53 C4.029,53 0,49.418 0,45 C0,40.582 4.029,37 9,37 C13.971,37 18,40.582 18,45 L18,45 Z" id="Stroke-328" stroke="#0F81E0" stroke-width="2" stroke-linecap="round" stroke-linejoin="round" sketch:type="MSShapeGroup"></path>
                <path d="M49,35 C49,39.418 44.971,43 40,43 C35.029,43 31,39.418 31,35 C31,30.582 35.029,27 40,27 C44.971,27 49,30.582 49,35 L49,35 Z" id="Fill-329" fill="#C6E3F8" sketch:type="MSShapeGroup"></path>
                <path d="M49,35 C49,39.418 44.971,43 40,43 C35.029,43 31,39.418 31,35 C31,30.582 35.029,27 40,27 C44.971,27 49,30.582 49,35 L49,35 Z" id="Stroke-330" stroke="#0F81E0" stroke-width="2" stroke-linecap="round" stroke-linejoin="round" sketch:type="MSShapeGroup"></path>
            </g>
        </g>
    </g>
</svg>