<?xml version="1.0" encoding="UTF-8" standalone="no"?>
<svg width="43px" height="59px" viewBox="0 0 43 59" version="1.1" xmlns="http://www.w3.org/2000/svg" xmlns:xlink="http://www.w3.org/1999/xlink" xmlns:sketch="http://www.bohemiancoding.com/sketch/ns">
    <!-- Generator: Sketch 3.2.2 (9983) - http://www.bohemiancoding.com/sketch -->
    <title>27 - Notebook (Webby)</title>
    <desc>Created with Sketch.</desc>
    <defs></defs>
    <g id="Page-1" stroke="none" stroke-width="1" fill="none" fill-rule="evenodd" sketch:type="MSPage">
        <g id="Icons" sketch:type="MSArtboardGroup" transform="translate(-488.000000, -4557.000000)">
            <g id="27---Notebook-(Webby)" sketch:type="MSLayerGroup" transform="translate(489.000000, 4558.000000)">
                <path d="M38.003,51.996 L0,51.996 L0,0 L38.003,0 C39.658,0 41,1.341 41,2.997 L41,49 C41,50.655 39.658,51.996 38.003,51.996 L38.003,51.996 Z" id="Fill-265" fill="#FFFFFF" sketch:type="MSShapeGroup"></path>
                <path d="M38.003,51.996 L0,51.996 L0,0 L38.003,0 C39.658,0 41,1.341 41,2.997 L41,49 C41,50.655 39.658,51.996 38.003,51.996 L38.003,51.996 Z" id="Stroke-266" stroke="#0F81E0" stroke-width="2" stroke-linejoin="round" sketch:type="MSShapeGroup"></path>
                <path d="M30,0 L35,0 L35,51.997 L30,51.997 L30,0 Z" id="Fill-267" fill="#C6E3F8" sketch:type="MSShapeGroup"></path>
                <path d="M30,0 L35,0 L35,51.997 L30,51.997 L30,0 Z" id="Stroke-268" stroke="#0F81E0" stroke-width="2" stroke-linejoin="round" sketch:type="MSShapeGroup"></path>
                <path d="M0,35.007 L30,35.007 L30,17.007 L0,17.007 L0,35.007 Z" id="Fill-269" fill="#FFFFFF" sketch:type="MSShapeGroup"></path>
                <path d="M0,35.007 L30,35.007 L30,17.007 L0,17.007 L0,35.007 Z" id="Stroke-270" stroke="#0F81E0" stroke-width="2" stroke-linejoin="round" sketch:type="MSShapeGroup"></path>
                <path d="M35,35.007 L41,35.007 L41,17.007 L35,17.007 L35,35.007 Z" id="Fill-271" fill="#FFFFFF" sketch:type="MSShapeGroup"></path>
                <path d="M35,35.007 L41,35.007 L41,17.007 L35,17.007 L35,35.007 Z" id="Stroke-272" stroke="#0F81E0" stroke-width="2" stroke-linejoin="round" sketch:type="MSShapeGroup"></path>
                <path d="M10,56.997 L7,54.996 L4,56.997 L4,51.996 L10,51.996 L10,56.997 L10,56.997 Z" id="Fill-273" fill="#C6E3F8" sketch:type="MSShapeGroup"></path>
                <path d="M10,56.997 L7,54.996 L4,56.997 L4,51.996 L10,51.996 L10,56.997 L10,56.997 Z" id="Stroke-274" stroke="#0F81E0" stroke-width="2" stroke-linejoin="round" sketch:type="MSShapeGroup"></path>
                <path d="M3,18.996 C3,19.549 2.552,19.996 2,19.996 C1.448,19.996 1,19.549 1,18.996 C1,18.444 1.448,17.997 2,17.997 C2.552,17.997 3,18.444 3,18.996" id="Fill-291" fill="#0F81E0" sketch:type="MSShapeGroup"></path>
                <path d="M9,18.996 C9,19.549 8.552,19.996 8,19.996 C7.448,19.996 7,19.549 7,18.996 C7,18.444 7.448,17.997 8,17.997 C8.552,17.997 9,18.444 9,18.996" id="Fill-292" fill="#0F81E0" sketch:type="MSShapeGroup"></path>
                <path d="M6,21.996 C6,22.549 5.552,22.996 5,22.996 C4.448,22.996 4,22.549 4,21.996 C4,21.444 4.448,20.997 5,20.997 C5.552,20.997 6,21.444 6,21.996" id="Fill-293" fill="#0F81E0" sketch:type="MSShapeGroup"></path>
                <path d="M12,21.996 C12,22.549 11.552,22.996 11,22.996 C10.448,22.996 10,22.549 10,21.996 C10,21.444 10.448,20.997 11,20.997 C11.552,20.997 12,21.444 12,21.996" id="Fill-294" fill="#0F81E0" sketch:type="MSShapeGroup"></path>
                <path d="M15,18.996 C15,19.549 14.552,19.996 14,19.996 C13.448,19.996 13,19.549 13,18.996 C13,18.444 13.448,17.997 14,17.997 C14.552,17.997 15,18.444 15,18.996" id="Fill-295" fill="#0F81E0" sketch:type="MSShapeGroup"></path>
                <path d="M21,18.996 C21,19.549 20.552,19.996 20,19.996 C19.448,19.996 19,19.549 19,18.996 C19,18.444 19.448,17.997 20,17.997 C20.552,17.997 21,18.444 21,18.996" id="Fill-296" fill="#0F81E0" sketch:type="MSShapeGroup"></path>
                <path d="M18,21.996 C18,22.549 17.552,22.996 17,22.996 C16.448,22.996 16,22.549 16,21.996 C16,21.444 16.448,20.997 17,20.997 C17.552,20.997 18,21.444 18,21.996" id="Fill-297" fill="#0F81E0" sketch:type="MSShapeGroup"></path>
                <path d="M24,21.996 C24,22.549 23.552,22.996 23,22.996 C22.448,22.996 22,22.549 22,21.996 C22,21.444 22.448,20.997 23,20.997 C23.552,20.997 24,21.444 24,21.996" id="Fill-298" fill="#0F81E0" sketch:type="MSShapeGroup"></path>
                <path d="M27,18.996 C27,19.549 26.552,19.996 26,19.996 C25.448,19.996 25,19.549 25,18.996 C25,18.444 25.448,17.997 26,17.997 C26.552,17.997 27,18.444 27,18.996" id="Fill-299" fill="#0F81E0" sketch:type="MSShapeGroup"></path>
                <path d="M30,21.996 C30,22.549 29.552,22.996 29,22.996 C28.448,22.996 28,22.549 28,21.996 C28,21.444 28.448,20.997 29,20.997 C29.552,20.997 30,21.444 30,21.996" id="Fill-300" fill="#0F81E0" sketch:type="MSShapeGroup"></path>
                <path d="M39,18.996 C39,19.549 38.552,19.996 38,19.996 C37.448,19.996 37,19.549 37,18.996 C37,18.444 37.448,17.997 38,17.997 C38.552,17.997 39,18.444 39,18.996" id="Fill-301" fill="#0F81E0" sketch:type="MSShapeGroup"></path>
                <path d="M3,24.996 C3,25.549 2.552,25.996 2,25.996 C1.448,25.996 1,25.549 1,24.996 C1,24.444 1.448,23.997 2,23.997 C2.552,23.997 3,24.444 3,24.996" id="Fill-302" fill="#0F81E0" sketch:type="MSShapeGroup"></path>
                <path d="M9,24.996 C9,25.549 8.552,25.996 8,25.996 C7.448,25.996 7,25.549 7,24.996 C7,24.444 7.448,23.997 8,23.997 C8.552,23.997 9,24.444 9,24.996" id="Fill-303" fill="#0F81E0" sketch:type="MSShapeGroup"></path>
                <path d="M3,30.996 C3,31.549 2.552,31.996 2,31.996 C1.448,31.996 1,31.549 1,30.996 C1,30.444 1.448,29.997 2,29.997 C2.552,29.997 3,30.444 3,30.996" id="Fill-304" fill="#0F81E0" sketch:type="MSShapeGroup"></path>
                <path d="M9,30.996 C9,31.549 8.552,31.996 8,31.996 C7.448,31.996 7,31.549 7,30.996 C7,30.444 7.448,29.997 8,29.997 C8.552,29.997 9,30.444 9,30.996" id="Fill-305" fill="#0F81E0" sketch:type="MSShapeGroup"></path>
                <path d="M6,27.996 C6,28.549 5.552,28.996 5,28.996 C4.448,28.996 4,28.549 4,27.996 C4,27.444 4.448,26.997 5,26.997 C5.552,26.997 6,27.444 6,27.996" id="Fill-306" fill="#0F81E0" sketch:type="MSShapeGroup"></path>
                <path d="M12,27.996 C12,28.549 11.552,28.996 11,28.996 C10.448,28.996 10,28.549 10,27.996 C10,27.444 10.448,26.997 11,26.997 C11.552,26.997 12,27.444 12,27.996" id="Fill-307" fill="#0F81E0" sketch:type="MSShapeGroup"></path>
                <path d="M6,33.996 C6,34.549 5.552,34.996 5,34.996 C4.448,34.996 4,34.549 4,33.996 C4,33.444 4.448,32.997 5,32.997 C5.552,32.997 6,33.444 6,33.996" id="Fill-308" fill="#0F81E0" sketch:type="MSShapeGroup"></path>
                <path d="M12,33.996 C12,34.549 11.552,34.996 11,34.996 C10.448,34.996 10,34.549 10,33.996 C10,33.444 10.448,32.997 11,32.997 C11.552,32.997 12,33.444 12,33.996" id="Fill-309" fill="#0F81E0" sketch:type="MSShapeGroup"></path>
                <path d="M15,24.996 C15,25.549 14.552,25.996 14,25.996 C13.448,25.996 13,25.549 13,24.996 C13,24.444 13.448,23.997 14,23.997 C14.552,23.997 15,24.444 15,24.996" id="Fill-310" fill="#0F81E0" sketch:type="MSShapeGroup"></path>
                <path d="M21,24.996 C21,25.549 20.552,25.996 20,25.996 C19.448,25.996 19,25.549 19,24.996 C19,24.444 19.448,23.997 20,23.997 C20.552,23.997 21,24.444 21,24.996" id="Fill-311" fill="#0F81E0" sketch:type="MSShapeGroup"></path>
                <path d="M15,30.996 C15,31.549 14.552,31.996 14,31.996 C13.448,31.996 13,31.549 13,30.996 C13,30.444 13.448,29.997 14,29.997 C14.552,29.997 15,30.444 15,30.996" id="Fill-312" fill="#0F81E0" sketch:type="MSShapeGroup"></path>
                <path d="M21,30.996 C21,31.549 20.552,31.996 20,31.996 C19.448,31.996 19,31.549 19,30.996 C19,30.444 19.448,29.997 20,29.997 C20.552,29.997 21,30.444 21,30.996" id="Fill-313" fill="#0F81E0" sketch:type="MSShapeGroup"></path>
                <path d="M18,27.996 C18,28.549 17.552,28.996 17,28.996 C16.448,28.996 16,28.549 16,27.996 C16,27.444 16.448,26.997 17,26.997 C17.552,26.997 18,27.444 18,27.996" id="Fill-314" fill="#0F81E0" sketch:type="MSShapeGroup"></path>
                <path d="M24,27.996 C24,28.549 23.552,28.996 23,28.996 C22.448,28.996 22,28.549 22,27.996 C22,27.444 22.448,26.997 23,26.997 C23.552,26.997 24,27.444 24,27.996" id="Fill-315" fill="#0F81E0" sketch:type="MSShapeGroup"></path>
                <path d="M18,33.996 C18,34.549 17.552,34.996 17,34.996 C16.448,34.996 16,34.549 16,33.996 C16,33.444 16.448,32.997 17,32.997 C17.552,32.997 18,33.444 18,33.996" id="Fill-316" fill="#0F81E0" sketch:type="MSShapeGroup"></path>
                <path d="M24,33.996 C24,34.549 23.552,34.996 23,34.996 C22.448,34.996 22,34.549 22,33.996 C22,33.444 22.448,32.997 23,32.997 C23.552,32.997 24,33.444 24,33.996" id="Fill-317" fill="#0F81E0" sketch:type="MSShapeGroup"></path>
                <path d="M27,24.996 C27,25.549 26.552,25.996 26,25.996 C25.448,25.996 25,25.549 25,24.996 C25,24.444 25.448,23.997 26,23.997 C26.552,23.997 27,24.444 27,24.996" id="Fill-318" fill="#0F81E0" sketch:type="MSShapeGroup"></path>
                <path d="M27,30.996 C27,31.549 26.552,31.996 26,31.996 C25.448,31.996 25,31.549 25,30.996 C25,30.444 25.448,29.997 26,29.997 C26.552,29.997 27,30.444 27,30.996" id="Fill-319" fill="#0F81E0" sketch:type="MSShapeGroup"></path>
                <path d="M30,27.996 C30,28.549 29.552,28.996 29,28.996 C28.448,28.996 28,28.549 28,27.996 C28,27.444 28.448,26.997 29,26.997 C29.552,26.997 30,27.444 30,27.996" id="Fill-320" fill="#0F81E0" sketch:type="MSShapeGroup"></path>
                <path d="M30,33.996 C30,34.549 29.552,34.996 29,34.996 C28.448,34.996 28,34.549 28,33.996 C28,33.444 28.448,32.997 29,32.997 C29.552,32.997 30,33.444 30,33.996" id="Fill-321" fill="#0F81E0" sketch:type="MSShapeGroup"></path>
                <path d="M39,24.996 C39,25.549 38.552,25.996 38,25.996 C37.448,25.996 37,25.549 37,24.996 C37,24.444 37.448,23.997 38,23.997 C38.552,23.997 39,24.444 39,24.996" id="Fill-322" fill="#0F81E0" sketch:type="MSShapeGroup"></path>
                <path d="M39,30.996 C39,31.549 38.552,31.996 38,31.996 C37.448,31.996 37,31.549 37,30.996 C37,30.444 37.448,29.997 38,29.997 C38.552,29.997 39,30.444 39,30.996" id="Fill-323" fill="#0F81E0" sketch:type="MSShapeGroup"></path>
            </g>
        </g>
    </g>
</svg>