<?xml version="1.0" encoding="UTF-8" standalone="no"?>
<svg width="60px" height="49px" viewBox="0 0 60 49" version="1.1" xmlns="http://www.w3.org/2000/svg" xmlns:xlink="http://www.w3.org/1999/xlink" xmlns:sketch="http://www.bohemiancoding.com/sketch/ns">
    <!-- Generator: Sketch 3.2.2 (9983) - http://www.bohemiancoding.com/sketch -->
    <title>272 - Camera (Webby)</title>
    <desc>Created with Sketch.</desc>
    <defs></defs>
    <g id="Page-1" stroke="none" stroke-width="1" fill="none" fill-rule="evenodd" sketch:type="MSPage">
        <g id="Icons" sketch:type="MSArtboardGroup" transform="translate(-1080.000000, -1561.000000)">
            <g id="272---Camera-(Webby)" sketch:type="MSLayerGroup" transform="translate(1081.000000, 1562.000000)">
                <path d="M45,10 L41,0 L17,0 L13,10 L3.799,10 C1.701,10 0,11.701 0,13.799 L0,43.167 C0,45.284 1.716,47 3.833,47 L54.167,47 C56.284,47 58,45.284 58,43.167 L58,13.799 C58,11.701 56.299,10 54.201,10 L45,10 L45,10 Z" id="Fill-294" fill="#FFFFFF" sketch:type="MSShapeGroup"></path>
                <path d="M45,10 L41,0 L17,0 L13,10 L3.799,10 C1.701,10 0,11.701 0,13.799 L0,43.167 C0,45.284 1.716,47 3.833,47 L54.167,47 C56.284,47 58,45.284 58,43.167 L58,13.799 C58,11.701 56.299,10 54.201,10 L45,10 L45,10 Z" id="Stroke-295" stroke="#0F81E0" stroke-width="2" stroke-linecap="round" stroke-linejoin="round" sketch:type="MSShapeGroup"></path>
                <path d="M46,26 C46,35.389 38.389,43 29,43 C19.611,43 12,35.389 12,26 C12,16.611 19.611,9 29,9 C38.389,9 46,16.611 46,26 L46,26 Z" id="Fill-296" fill="#C6E3F8" sketch:type="MSShapeGroup"></path>
                <path d="M46,26 C46,35.389 38.389,43 29,43 C19.611,43 12,35.389 12,26 C12,16.611 19.611,9 29,9 C38.389,9 46,16.611 46,26 L46,26 Z" id="Stroke-297" stroke="#0F81E0" stroke-width="2" stroke-linecap="round" stroke-linejoin="round" sketch:type="MSShapeGroup"></path>
                <path d="M40,26 C40,32.075 35.075,37 29,37 C22.925,37 18,32.075 18,26 C18,19.925 22.925,15 29,15 C35.075,15 40,19.925 40,26 L40,26 Z" id="Fill-298" fill="#FFFFFF" sketch:type="MSShapeGroup"></path>
                <path d="M40,26 C40,32.075 35.075,37 29,37 C22.925,37 18,32.075 18,26 C18,19.925 22.925,15 29,15 C35.075,15 40,19.925 40,26 L40,26 Z" id="Stroke-299" stroke="#0F81E0" stroke-width="2" stroke-linecap="round" stroke-linejoin="round" sketch:type="MSShapeGroup"></path>
                <path d="M6,5 L10,5 L10,10 L6,10 L6,5 Z" id="Fill-300" fill="#C6E3F8" sketch:type="MSShapeGroup"></path>
                <path d="M6,5 L10,5 L10,10 L6,10 L6,5 Z" id="Stroke-301" stroke="#0F81E0" stroke-width="2" stroke-linecap="round" stroke-linejoin="round" sketch:type="MSShapeGroup"></path>
                <path d="M54,17 C54,18.657 52.657,20 51,20 C49.343,20 48,18.657 48,17 C48,15.343 49.343,14 51,14 C52.657,14 54,15.343 54,17 L54,17 Z" id="Fill-302" fill="#C6E3F8" sketch:type="MSShapeGroup"></path>
                <path d="M54,17 C54,18.657 52.657,20 51,20 C49.343,20 48,18.657 48,17 C48,15.343 49.343,14 51,14 C52.657,14 54,15.343 54,17 L54,17 Z" id="Stroke-303" stroke="#0F81E0" stroke-width="2" stroke-linecap="round" stroke-linejoin="round" sketch:type="MSShapeGroup"></path>
            </g>
        </g>
    </g>
</svg>