<?xml version="1.0" encoding="UTF-8" standalone="no"?>
<svg width="54px" height="55px" viewBox="0 0 54 55" version="1.1" xmlns="http://www.w3.org/2000/svg" xmlns:xlink="http://www.w3.org/1999/xlink" xmlns:sketch="http://www.bohemiancoding.com/sketch/ns">
    <!-- Generator: Sketch 3.2.2 (9983) - http://www.bohemiancoding.com/sketch -->
    <title>275 - Video Clip (Webby)</title>
    <desc>Created with Sketch.</desc>
    <defs></defs>
    <g id="Page-1" stroke="none" stroke-width="1" fill="none" fill-rule="evenodd" sketch:type="MSPage">
        <g id="Icons" sketch:type="MSArtboardGroup" transform="translate(-723.000000, -1560.000000)">
            <g id="275---Video-Clip-(Webby)" sketch:type="MSLayerGroup" transform="translate(724.000000, 1561.000000)">
                <path d="M0,0 L52,0 L52,53 L0,53 L0,0 Z" id="Fill-264" fill="#FFFFFF" sketch:type="MSShapeGroup"></path>
                <path d="M0,0 L52,0 L52,53 L0,53 L0,0 Z" id="Stroke-265" stroke="#0F81E0" stroke-width="2" stroke-linejoin="round" sketch:type="MSShapeGroup"></path>
                <path d="M21,24 L21,10 L32,17 L21,24 L21,24 Z" id="Fill-659" fill="#C6E3F8" sketch:type="MSShapeGroup"></path>
                <path d="M21,24 L21,10 L32,17 L21,24 L21,24 Z" id="Stroke-660" stroke="#0F81E0" stroke-width="2" stroke-linecap="round" stroke-linejoin="round" sketch:type="MSShapeGroup"></path>
                <path d="M0,35 L52,35" id="Stroke-661" stroke="#0F81E0" stroke-width="2" stroke-linejoin="round" sketch:type="MSShapeGroup"></path>
                <path d="M16,44 L46,44 M21,41 L21,47 M6,41 L6,47 M10,41 L10,47" id="Stroke-662" stroke="#0F81E0" stroke-width="2" stroke-linecap="round" stroke-linejoin="round" sketch:type="MSShapeGroup"></path>
            </g>
        </g>
    </g>
</svg>