<?xml version="1.0" encoding="UTF-8" standalone="no"?>
<svg width="55px" height="57px" viewBox="0 0 55 57" version="1.1" xmlns="http://www.w3.org/2000/svg" xmlns:xlink="http://www.w3.org/1999/xlink" xmlns:sketch="http://www.bohemiancoding.com/sketch/ns">
    <!-- Generator: Sketch 3.2.2 (9983) - http://www.bohemiancoding.com/sketch -->
    <title>277 - Frame Picture (Webby)</title>
    <desc>Created with Sketch.</desc>
    <defs></defs>
    <g id="Page-1" stroke="none" stroke-width="1" fill="none" fill-rule="evenodd" sketch:type="MSPage">
        <g id="Icons" sketch:type="MSArtboardGroup" transform="translate(-483.000000, -1558.000000)">
            <g id="277---Frame-Picture-(Webby)" sketch:type="MSLayerGroup" transform="translate(484.000000, 1559.000000)">
                <path d="M0,15 L53,15 L53,55 L0,55 L0,15 Z" id="Fill-1" fill="#C6E3F8" sketch:type="MSShapeGroup"></path>
                <path d="M0,15 L53,15 L53,55 L0,55 L0,15 Z" id="Stroke-2" stroke="#0F81E0" stroke-width="2" stroke-linejoin="round" sketch:type="MSShapeGroup"></path>
                <path d="M4,19 L49,19 L49,51 L4,51 L4,19 Z" id="Fill-257" fill="#FFFFFF" sketch:type="MSShapeGroup"></path>
                <path d="M4,19 L49,19 L49,51 L4,51 L4,19 Z" id="Stroke-258" stroke="#0F81E0" stroke-width="2" stroke-linejoin="round" sketch:type="MSShapeGroup"></path>
                <path d="M17.569,28.569 C17.569,31.092 15.523,33.138 13,33.138 C10.477,33.138 8.431,31.092 8.431,28.569 C8.431,26.046 10.477,24 13,24 C15.523,24 17.569,26.046 17.569,28.569 L17.569,28.569 Z" id="Fill-259" fill="#C6E3F8" sketch:type="MSShapeGroup"></path>
                <path d="M17.569,28.569 C17.569,31.092 15.523,33.138 13,33.138 C10.477,33.138 8.431,31.092 8.431,28.569 C8.431,26.046 10.477,24 13,24 C15.523,24 17.569,26.046 17.569,28.569 L17.569,28.569 Z" id="Stroke-260" stroke="#0F81E0" stroke-width="2" stroke-linejoin="round" sketch:type="MSShapeGroup"></path>
                <path d="M4,51 L21.017,36.017 L31.983,46.983 M26.5,41.5 L37,30 L49,41" id="Stroke-261" stroke="#0F81E0" stroke-width="2" stroke-linecap="round" stroke-linejoin="round" sketch:type="MSShapeGroup"></path>
                <path d="M31,4 C31,6.209 29.209,8 27,8 C24.791,8 23,6.209 23,4 C23,1.791 24.791,0 27,0 C29.209,0 31,1.791 31,4 L31,4 Z" id="Fill-266" fill="#C6E3F8" sketch:type="MSShapeGroup"></path>
                <path d="M31,4 C31,6.209 29.209,8 27,8 C24.791,8 23,6.209 23,4 C23,1.791 24.791,0 27,0 C29.209,0 31,1.791 31,4 L31,4 Z" id="Stroke-267" stroke="#0F81E0" stroke-width="2" stroke-linejoin="round" sketch:type="MSShapeGroup"></path>
                <path d="M29.979,1.354 C30.607,2.061 31,2.981 31,4 C31,6.209 29.209,8 27,8 C24.791,8 23,6.209 23,4 C23,2.981 23.393,2.061 24.021,1.354 C18.163,5.042 7,15 7,15 L47,15 C47,15 35.836,5.042 29.979,1.354 L29.979,1.354 Z" id="Fill-268" fill="#FFFFFF" sketch:type="MSShapeGroup"></path>
                <path d="M29.979,1.354 C30.607,2.061 31,2.981 31,4 C31,6.209 29.209,8 27,8 C24.791,8 23,6.209 23,4 C23,2.981 23.393,2.061 24.021,1.354 C18.163,5.042 7,15 7,15 L47,15 C47,15 35.836,5.042 29.979,1.354 L29.979,1.354 Z" id="Stroke-269" stroke="#0F81E0" stroke-width="2" stroke-linejoin="round" sketch:type="MSShapeGroup"></path>
            </g>
        </g>
    </g>
</svg>