<?xml version="1.0" encoding="UTF-8" standalone="no"?>
<svg width="58px" height="46px" viewBox="0 0 58 46" version="1.1" xmlns="http://www.w3.org/2000/svg" xmlns:xlink="http://www.w3.org/1999/xlink" xmlns:sketch="http://www.bohemiancoding.com/sketch/ns">
    <!-- Generator: Sketch 3.2.2 (9983) - http://www.bohemiancoding.com/sketch -->
    <title>280 - Video (Webby)</title>
    <desc>Created with Sketch.</desc>
    <defs></defs>
    <g id="Page-1" stroke="none" stroke-width="1" fill="none" fill-rule="evenodd" sketch:type="MSPage">
        <g id="Icons" sketch:type="MSArtboardGroup" transform="translate(-121.000000, -1565.000000)">
            <g id="280---Video-(Webby)" sketch:type="MSLayerGroup" transform="translate(122.000000, 1566.000000)">
                <path d="M0,0 L56,0 L56,44 L0,44 L0,0 Z" id="Fill-214" fill="#FFFFFF" sketch:type="MSShapeGroup"></path>
                <path d="M0,0 L56,0 L56,44 L0,44 L0,0 Z" id="Stroke-215" stroke="#0F81E0" stroke-width="2" stroke-linecap="round" stroke-linejoin="round" sketch:type="MSShapeGroup"></path>
                <path d="M24,29 L24,15 L35,22 L24,29 L24,29 Z" id="Fill-216" fill="#C6E3F8" sketch:type="MSShapeGroup"></path>
                <path d="M24,29 L24,15 L35,22 L24,29 L24,29 Z" id="Stroke-217" stroke="#0F81E0" stroke-width="2" stroke-linecap="round" stroke-linejoin="round" sketch:type="MSShapeGroup"></path>
                <path d="M0,0 L10,0 L10,11 L0,11 L0,0 Z" id="Fill-220" fill="#C6E3F8" sketch:type="MSShapeGroup"></path>
                <path d="M0,0 L10,0 L10,11 L0,11 L0,0 Z" id="Stroke-221" stroke="#0F81E0" stroke-width="2" stroke-linecap="round" stroke-linejoin="round" sketch:type="MSShapeGroup"></path>
                <path d="M0,11 L10,11 L10,22 L0,22 L0,11 Z" id="Fill-222" fill="#C6E3F8" sketch:type="MSShapeGroup"></path>
                <path d="M0,11 L10,11 L10,22 L0,22 L0,11 Z" id="Stroke-223" stroke="#0F81E0" stroke-width="2" stroke-linecap="round" stroke-linejoin="round" sketch:type="MSShapeGroup"></path>
                <path d="M0,22 L10,22 L10,33 L0,33 L0,22 Z" id="Fill-224" fill="#C6E3F8" sketch:type="MSShapeGroup"></path>
                <path d="M0,22 L10,22 L10,33 L0,33 L0,22 Z" id="Stroke-225" stroke="#0F81E0" stroke-width="2" stroke-linecap="round" stroke-linejoin="round" sketch:type="MSShapeGroup"></path>
                <path d="M0,33 L10,33 L10,44 L0,44 L0,33 Z" id="Fill-226" fill="#C6E3F8" sketch:type="MSShapeGroup"></path>
                <path d="M0,33 L10,33 L10,44 L0,44 L0,33 Z" id="Stroke-227" stroke="#0F81E0" stroke-width="2" stroke-linecap="round" stroke-linejoin="round" sketch:type="MSShapeGroup"></path>
                <path d="M46,0 L56,0 L56,11 L46,11 L46,0 Z" id="Fill-228" fill="#C6E3F8" sketch:type="MSShapeGroup"></path>
                <path d="M46,0 L56,0 L56,11 L46,11 L46,0 Z" id="Stroke-229" stroke="#0F81E0" stroke-width="2" stroke-linecap="round" stroke-linejoin="round" sketch:type="MSShapeGroup"></path>
                <path d="M46,11 L56,11 L56,22 L46,22 L46,11 Z" id="Fill-230" fill="#C6E3F8" sketch:type="MSShapeGroup"></path>
                <path d="M46,11 L56,11 L56,22 L46,22 L46,11 Z" id="Stroke-231" stroke="#0F81E0" stroke-width="2" stroke-linecap="round" stroke-linejoin="round" sketch:type="MSShapeGroup"></path>
                <path d="M46,22 L56,22 L56,33 L46,33 L46,22 Z" id="Fill-232" fill="#C6E3F8" sketch:type="MSShapeGroup"></path>
                <path d="M46,22 L56,22 L56,33 L46,33 L46,22 Z" id="Stroke-233" stroke="#0F81E0" stroke-width="2" stroke-linecap="round" stroke-linejoin="round" sketch:type="MSShapeGroup"></path>
                <path d="M46,33 L56,33 L56,44 L46,44 L46,33 Z" id="Fill-234" fill="#C6E3F8" sketch:type="MSShapeGroup"></path>
                <path d="M46,33 L56,33 L56,44 L46,44 L46,33 Z" id="Stroke-235" stroke="#0F81E0" stroke-width="2" stroke-linecap="round" stroke-linejoin="round" sketch:type="MSShapeGroup"></path>
            </g>
        </g>
    </g>
</svg>