<?xml version="1.0" encoding="UTF-8" standalone="no"?>
<svg width="40px" height="58px" viewBox="0 0 40 58" version="1.1" xmlns="http://www.w3.org/2000/svg" xmlns:xlink="http://www.w3.org/1999/xlink" xmlns:sketch="http://www.bohemiancoding.com/sketch/ns">
    <!-- Generator: Sketch 3.2.2 (9983) - http://www.bohemiancoding.com/sketch -->
    <title>282 - Locked (Webby)</title>
    <desc>Created with Sketch.</desc>
    <defs></defs>
    <g id="Page-1" stroke="none" stroke-width="1" fill="none" fill-rule="evenodd" sketch:type="MSPage">
        <g id="Icons" sketch:type="MSArtboardGroup" transform="translate(-1091.000000, -1438.000000)">
            <g id="282---Locked-(Webby)" sketch:type="MSLayerGroup" transform="translate(1092.000000, 1439.000000)">
                <path d="M38,37 C38,47.493 29.493,56 19,56 C8.507,56 0,47.493 0,37 C0,26.507 8.507,18 19,18 C29.493,18 38,26.507 38,37 L38,37 Z" id="Fill-175" fill="#FFFFFF" sketch:type="MSShapeGroup"></path>
                <path d="M38,37 C38,47.493 29.493,56 19,56 C8.507,56 0,47.493 0,37 C0,26.507 8.507,18 19,18 C29.493,18 38,26.507 38,37 L38,37 Z" id="Stroke-176" stroke="#0F81E0" stroke-width="2" stroke-linecap="round" stroke-linejoin="round" sketch:type="MSShapeGroup"></path>
                <path d="M19,18 C22.674,18 26.093,19.06 29,20.866 L29,9.219 C29,4.149 24.5,0 19,0 C13.5,0 9,4.149 9,9.219 L9,20.866 C11.907,19.06 15.326,18 19,18 L19,18 Z" id="Stroke-177" stroke="#0F81E0" stroke-width="2" stroke-linecap="round" stroke-linejoin="round" sketch:type="MSShapeGroup"></path>
                <path d="M27,37 C27,41.418 23.418,45 19,45 C14.582,45 11,41.418 11,37 C11,32.582 14.582,29 19,29 C23.418,29 27,32.582 27,37 L27,37 Z" id="Fill-178" fill="#C6E3F8" sketch:type="MSShapeGroup"></path>
                <path d="M27,37 C27,41.418 23.418,45 19,45 C14.582,45 11,41.418 11,37 C11,32.582 14.582,29 19,29 C23.418,29 27,32.582 27,37 L27,37 Z" id="Stroke-179" stroke="#0F81E0" stroke-width="2" stroke-linecap="round" stroke-linejoin="round" sketch:type="MSShapeGroup"></path>
                <path d="M19,29 L19,25 M19,49 L19,45 M24.657,42.657 L27.485,45.485 M10.515,45.485 L13.343,42.657 M24.657,31.343 L27.485,28.515 M10.515,28.515 L13.343,31.343 M27,37 L31,37 M7,37 L11,37" id="Stroke-180" stroke="#0F81E0" stroke-width="2" stroke-linecap="round" stroke-linejoin="round" sketch:type="MSShapeGroup"></path>
            </g>
        </g>
    </g>
</svg>