<?xml version="1.0" encoding="UTF-8" standalone="no"?>
<svg width="40px" height="58px" viewBox="0 0 40 58" version="1.1" xmlns="http://www.w3.org/2000/svg" xmlns:xlink="http://www.w3.org/1999/xlink" xmlns:sketch="http://www.bohemiancoding.com/sketch/ns">
    <!-- Generator: Sketch 3.2.2 (9983) - http://www.bohemiancoding.com/sketch -->
    <title>283 - Unlocked (Webby)</title>
    <desc>Created with Sketch.</desc>
    <defs></defs>
    <g id="Page-1" stroke="none" stroke-width="1" fill="none" fill-rule="evenodd" sketch:type="MSPage">
        <g id="Icons" sketch:type="MSArtboardGroup" transform="translate(-970.000000, -1438.000000)">
            <g id="283---Unlocked-(Webby)" sketch:type="MSLayerGroup" transform="translate(971.000000, 1439.000000)">
                <path d="M38,37 C38,47.493 29.493,56 19,56 C8.507,56 0,47.493 0,37 C0,26.507 8.507,18 19,18 C29.493,18 38,26.507 38,37 L38,37 Z" id="Fill-172" fill="#FFFFFF" sketch:type="MSShapeGroup"></path>
                <path d="M38,37 C38,47.493 29.493,56 19,56 C8.507,56 0,47.493 0,37 C0,26.507 8.507,18 19,18 C29.493,18 38,26.507 38,37 L38,37 Z" id="Stroke-173" stroke="#0F81E0" stroke-width="2" stroke-linecap="round" stroke-linejoin="round" sketch:type="MSShapeGroup"></path>
                <path d="M19,18 C22.674,18 26.093,19.06 29,20.866 L29,9.219 C29,4.149 24.5,0 19,0 C13.5,0 9,4.149 9,9.219" id="Stroke-174" stroke="#0F81E0" stroke-width="2" stroke-linecap="round" stroke-linejoin="round" sketch:type="MSShapeGroup"></path>
                <path d="M19,42 L19,42 C17.35,42 16,40.65 16,39 L16,33 C16,31.35 17.35,30 19,30 C20.65,30 22,31.35 22,33 L22,39 C22,40.65 20.65,42 19,42 L19,42 Z" id="Fill-652" fill="#C6E3F8" sketch:type="MSShapeGroup"></path>
                <path d="M19,42 L19,42 C17.35,42 16,40.65 16,39 L16,33 C16,31.35 17.35,30 19,30 C20.65,30 22,31.35 22,33 L22,39 C22,40.65 20.65,42 19,42 L19,42 Z" id="Stroke-653" stroke="#0F81E0" stroke-width="2" stroke-linecap="round" stroke-linejoin="round" sketch:type="MSShapeGroup"></path>
            </g>
        </g>
    </g>
</svg>