<?xml version="1.0" encoding="UTF-8" standalone="no"?>
<svg width="44px" height="57px" viewBox="0 0 44 57" version="1.1" xmlns="http://www.w3.org/2000/svg" xmlns:xlink="http://www.w3.org/1999/xlink" xmlns:sketch="http://www.bohemiancoding.com/sketch/ns">
    <!-- Generator: Sketch 3.2.2 (9983) - http://www.bohemiancoding.com/sketch -->
    <title>288 - Locked (Webby)</title>
    <desc>Created with Sketch.</desc>
    <defs></defs>
    <g id="Page-1" stroke="none" stroke-width="1" fill="none" fill-rule="evenodd" sketch:type="MSPage">
        <g id="Icons" sketch:type="MSArtboardGroup" transform="translate(-367.000000, -1440.000000)">
            <g id="288---Locked-(Webby)" sketch:type="MSLayerGroup" transform="translate(368.000000, 1441.000000)">
                <path d="M0,23 L42,23 L42,55 L0,55 L0,23 Z" id="Fill-154" fill="#FFFFFF" sketch:type="MSShapeGroup"></path>
                <path d="M0,23 L42,23 L42,55 L0,55 L0,23 Z" id="Stroke-155" stroke="#0F81E0" stroke-width="2" stroke-linecap="round" stroke-linejoin="round" sketch:type="MSShapeGroup"></path>
                <path d="M9,23 L9,10.601 C9,4.771 14.175,0 20.5,0 C26.825,0 32,4.771 32,10.601 L32,23 L9,23 L9,23 Z" id="Path" stroke="#0F81E0" stroke-width="2" stroke-linecap="round" stroke-linejoin="round" sketch:type="MSShapeGroup"></path>
                <path d="M40,30 C40,30.552 39.552,31 39,31 C38.448,31 38,30.552 38,30 C38,29.448 38.448,29 39,29 C39.552,29 40,29.448 40,30" id="Fill-409" fill="#0F81E0" sketch:type="MSShapeGroup"></path>
                <path d="M40,36 C40,36.552 39.552,37 39,37 C38.448,37 38,36.552 38,36 C38,35.448 38.448,35 39,35 C39.552,35 40,35.448 40,36" id="Fill-410" fill="#0F81E0" sketch:type="MSShapeGroup"></path>
                <path d="M22,30 C22,30.552 21.552,31 21,31 C20.448,31 20,30.552 20,30 C20,29.448 20.448,29 21,29 C21.552,29 22,29.448 22,30" id="Fill-411" fill="#0F81E0" sketch:type="MSShapeGroup"></path>
                <path d="M25,27 C25,27.552 24.552,28 24,28 C23.448,28 23,27.552 23,27 C23,26.448 23.448,26 24,26 C24.552,26 25,26.448 25,27" id="Fill-412" fill="#0F81E0" sketch:type="MSShapeGroup"></path>
                <path d="M25,33 C25,33.552 24.552,34 24,34 C23.448,34 23,33.552 23,33 C23,32.448 23.448,32 24,32 C24.552,32 25,32.448 25,33" id="Fill-413" fill="#0F81E0" sketch:type="MSShapeGroup"></path>
                <path d="M28,30 C28,30.552 27.552,31 27,31 C26.448,31 26,30.552 26,30 C26,29.448 26.448,29 27,29 C27.552,29 28,29.448 28,30" id="Fill-414" fill="#0F81E0" sketch:type="MSShapeGroup"></path>
                <path d="M34,30 C34,30.552 33.552,31 33,31 C32.448,31 32,30.552 32,30 C32,29.448 32.448,29 33,29 C33.552,29 34,29.448 34,30" id="Fill-415" fill="#0F81E0" sketch:type="MSShapeGroup"></path>
                <path d="M31,27 C31,27.552 30.552,28 30,28 C29.448,28 29,27.552 29,27 C29,26.448 29.448,26 30,26 C30.552,26 31,26.448 31,27" id="Fill-416" fill="#0F81E0" sketch:type="MSShapeGroup"></path>
                <path d="M37,27 C37,27.552 36.552,28 36,28 C35.448,28 35,27.552 35,27 C35,26.448 35.448,26 36,26 C36.552,26 37,26.448 37,27" id="Fill-417" fill="#0F81E0" sketch:type="MSShapeGroup"></path>
                <path d="M31,33 C31,33.552 30.552,34 30,34 C29.448,34 29,33.552 29,33 C29,32.448 29.448,32 30,32 C30.552,32 31,32.448 31,33" id="Fill-418" fill="#0F81E0" sketch:type="MSShapeGroup"></path>
                <path d="M22,36 C22,36.552 21.552,37 21,37 C20.448,37 20,36.552 20,36 C20,35.448 20.448,35 21,35 C21.552,35 22,35.448 22,36" id="Fill-420" fill="#0F81E0" sketch:type="MSShapeGroup"></path>
                <path d="M25,39 C25,39.552 24.552,40 24,40 C23.448,40 23,39.552 23,39 C23,38.448 23.448,38 24,38 C24.552,38 25,38.448 25,39" id="Fill-421" fill="#0F81E0" sketch:type="MSShapeGroup"></path>
                <path d="M28,36 C28,36.552 27.552,37 27,37 C26.448,37 26,36.552 26,36 C26,35.448 26.448,35 27,35 C27.552,35 28,35.448 28,36" id="Fill-422" fill="#0F81E0" sketch:type="MSShapeGroup"></path>
                <path d="M34,36 C34,36.552 33.552,37 33,37 C32.448,37 32,36.552 32,36 C32,35.448 32.448,35 33,35 C33.552,35 34,35.448 34,36" id="Fill-423" fill="#0F81E0" sketch:type="MSShapeGroup"></path>
                <path d="M31,39 C31,39.552 30.552,40 30,40 C29.448,40 29,39.552 29,39 C29,38.448 29.448,38 30,38 C30.552,38 31,38.448 31,39" id="Fill-424" fill="#0F81E0" sketch:type="MSShapeGroup"></path>
                <path d="M37,39 C37,39.552 36.552,40 36,40 C35.448,40 35,39.552 35,39 C35,38.448 35.448,38 36,38 C36.552,38 37,38.448 37,39" id="Fill-425" fill="#0F81E0" sketch:type="MSShapeGroup"></path>
                <path d="M16,30 C16,30.552 15.552,31 15,31 C14.448,31 14,30.552 14,30 C14,29.448 14.448,29 15,29 C15.552,29 16,29.448 16,30" id="Fill-426" fill="#0F81E0" sketch:type="MSShapeGroup"></path>
                <path d="M19,27 C19,27.552 18.552,28 18,28 C17.448,28 17,27.552 17,27 C17,26.448 17.448,26 18,26 C18.552,26 19,26.448 19,27" id="Fill-427" fill="#0F81E0" sketch:type="MSShapeGroup"></path>
                <path d="M19,33 C19,33.552 18.552,34 18,34 C17.448,34 17,33.552 17,33 C17,32.448 17.448,32 18,32 C18.552,32 19,32.448 19,33" id="Fill-428" fill="#0F81E0" sketch:type="MSShapeGroup"></path>
                <path d="M16,36 C16,36.552 15.552,37 15,37 C14.448,37 14,36.552 14,36 C14,35.448 14.448,35 15,35 C15.552,35 16,35.448 16,36" id="Fill-429" fill="#0F81E0" sketch:type="MSShapeGroup"></path>
                <path d="M19,39 C19,39.552 18.552,40 18,40 C17.448,40 17,39.552 17,39 C17,38.448 17.448,38 18,38 C18.552,38 19,38.448 19,39" id="Fill-430" fill="#0F81E0" sketch:type="MSShapeGroup"></path>
                <path d="M4,30 C4,30.552 3.552,31 3,31 C2.448,31 2,30.552 2,30 C2,29.448 2.448,29 3,29 C3.552,29 4,29.448 4,30" id="Fill-431" fill="#0F81E0" sketch:type="MSShapeGroup"></path>
                <path d="M10,30 C10,30.552 9.552,31 9,31 C8.448,31 8,30.552 8,30 C8,29.448 8.448,29 9,29 C9.552,29 10,29.448 10,30" id="Fill-432" fill="#0F81E0" sketch:type="MSShapeGroup"></path>
                <path d="M7,27 C7,27.552 6.552,28 6,28 C5.448,28 5,27.552 5,27 C5,26.448 5.448,26 6,26 C6.552,26 7,26.448 7,27" id="Fill-433" fill="#0F81E0" sketch:type="MSShapeGroup"></path>
                <path d="M13,27 C13,27.552 12.552,28 12,28 C11.448,28 11,27.552 11,27 C11,26.448 11.448,26 12,26 C12.552,26 13,26.448 13,27" id="Fill-434" fill="#0F81E0" sketch:type="MSShapeGroup"></path>
                <path d="M7,33 C7,33.552 6.552,34 6,34 C5.448,34 5,33.552 5,33 C5,32.448 5.448,32 6,32 C6.552,32 7,32.448 7,33" id="Fill-435" fill="#0F81E0" sketch:type="MSShapeGroup"></path>
                <path d="M13,33 C13,33.552 12.552,34 12,34 C11.448,34 11,33.552 11,33 C11,32.448 11.448,32 12,32 C12.552,32 13,32.448 13,33" id="Fill-436" fill="#0F81E0" sketch:type="MSShapeGroup"></path>
                <path d="M4,36 C4,36.552 3.552,37 3,37 C2.448,37 2,36.552 2,36 C2,35.448 2.448,35 3,35 C3.552,35 4,35.448 4,36" id="Fill-437" fill="#0F81E0" sketch:type="MSShapeGroup"></path>
                <path d="M10,36 C10,36.552 9.552,37 9,37 C8.448,37 8,36.552 8,36 C8,35.448 8.448,35 9,35 C9.552,35 10,35.448 10,36" id="Fill-438" fill="#0F81E0" sketch:type="MSShapeGroup"></path>
                <path d="M7,39 C7,39.552 6.552,40 6,40 C5.448,40 5,39.552 5,39 C5,38.448 5.448,38 6,38 C6.552,38 7,38.448 7,39" id="Fill-439" fill="#0F81E0" sketch:type="MSShapeGroup"></path>
                <path d="M13,39 C13,39.552 12.552,40 12,40 C11.448,40 11,39.552 11,39 C11,38.448 11.448,38 12,38 C12.552,38 13,38.448 13,39" id="Fill-440" fill="#0F81E0" sketch:type="MSShapeGroup"></path>
                <path d="M0,43 L42,43 L42,55 L0,55 L0,43 Z" id="Fill-647" fill="#C6E3F8" sketch:type="MSShapeGroup"></path>
                <path d="M0,43 L42,43 L42,55 L0,55 L0,43 Z" id="Stroke-648" stroke="#0F81E0" stroke-width="2" stroke-linecap="round" stroke-linejoin="round" sketch:type="MSShapeGroup"></path>
                <path d="M1,53 L11,43 M11,55 L23,43 M23,55 L35,43 M35,55 L42,48" id="Stroke-649" stroke="#0F81E0" stroke-width="2" stroke-linecap="round" stroke-linejoin="round" sketch:type="MSShapeGroup"></path>
                <path d="M37,33 C37,33.552 36.552,34 36,34 C35.448,34 35,33.552 35,33 C35,32.448 35.448,32 36,32 C36.552,32 37,32.448 37,33" id="Fill-419" fill="#0F81E0" sketch:type="MSShapeGroup"></path>
            </g>
        </g>
    </g>
</svg>