<?xml version="1.0" encoding="UTF-8" standalone="no"?>
<svg width="44px" height="57px" viewBox="0 0 44 57" version="1.1" xmlns="http://www.w3.org/2000/svg" xmlns:xlink="http://www.w3.org/1999/xlink" xmlns:sketch="http://www.bohemiancoding.com/sketch/ns">
    <!-- Generator: Sketch 3.2.2 (9983) - http://www.bohemiancoding.com/sketch -->
    <title>289 - Unlocked (Webby)</title>
    <desc>Created with Sketch.</desc>
    <defs></defs>
    <g id="Page-1" stroke="none" stroke-width="1" fill="none" fill-rule="evenodd" sketch:type="MSPage">
        <g id="Icons" sketch:type="MSArtboardGroup" transform="translate(-249.000000, -1440.000000)">
            <g id="289---Unlocked-(Webby)" sketch:type="MSLayerGroup" transform="translate(250.000000, 1441.000000)">
                <path d="M0,23 L42,23 L42,55 L0,55 L0,23 Z" id="Fill-147" fill="#C6E3F8" sketch:type="MSShapeGroup"></path>
                <path d="M0,23 L42,23 L42,55 L0,55 L0,23 Z" id="Stroke-148" stroke="#0F81E0" stroke-width="2" stroke-linecap="round" stroke-linejoin="round" sketch:type="MSShapeGroup"></path>
                <path d="M9,13.82 L9,10.601 C9,4.771 14.175,0 20.5,0 C26.825,0 32,4.771 32,10.601 L32,23" id="Stroke-149" stroke="#0F81E0" stroke-width="2" stroke-linecap="round" stroke-linejoin="round" sketch:type="MSShapeGroup"></path>
                <path d="M21,43 L21,43 C19.35,43 18,41.65 18,40 L18,34 C18,32.35 19.35,31 21,31 C22.65,31 24,32.35 24,34 L24,40 C24,41.65 22.65,43 21,43 L21,43 Z" id="Fill-150" fill="#FFFFFF" sketch:type="MSShapeGroup"></path>
                <path d="M21,43 L21,43 C19.35,43 18,41.65 18,40 L18,34 C18,32.35 19.35,31 21,31 C22.65,31 24,32.35 24,34 L24,40 C24,41.65 22.65,43 21,43 L21,43 Z" id="Stroke-151" stroke="#0F81E0" stroke-width="2" stroke-linecap="round" stroke-linejoin="round" sketch:type="MSShapeGroup"></path>
                <path d="M0,49 L42,49 L42,55 L0,55 L0,49 Z" id="Fill-152" fill="#FFFFFF" sketch:type="MSShapeGroup"></path>
                <path d="M0,49 L42,49 L42,55 L0,55 L0,49 Z" id="Stroke-153" stroke="#0F81E0" stroke-width="2" stroke-linecap="round" stroke-linejoin="round" sketch:type="MSShapeGroup"></path>
            </g>
        </g>
    </g>
</svg>