<?xml version="1.0" encoding="UTF-8" standalone="no"?>
<svg width="60px" height="60px" viewBox="0 0 60 60" version="1.1" xmlns="http://www.w3.org/2000/svg" xmlns:xlink="http://www.w3.org/1999/xlink" xmlns:sketch="http://www.bohemiancoding.com/sketch/ns">
    <!-- Generator: Sketch 3.2.2 (9983) - http://www.bohemiancoding.com/sketch -->
    <title>29 - Compose (Webby)</title>
    <desc>Created with Sketch.</desc>
    <defs></defs>
    <g id="Page-1" stroke="none" stroke-width="1" fill="none" fill-rule="evenodd" sketch:type="MSPage">
        <g id="Icons" sketch:type="MSArtboardGroup" transform="translate(-240.000000, -4557.000000)">
            <g id="29---Compose-(Webby)" sketch:type="MSLayerGroup" transform="translate(241.000000, 4558.000000)">
                <path d="M18.535,33.826 L24.192,39.483" id="Stroke-324" stroke="#0F81E0" stroke-width="2" stroke-linejoin="round" sketch:type="MSShapeGroup"></path>
                <path d="M24.192,39.483 L16.414,41.604 L18.535,33.826 L48.362,4 L0,4 L0,58 L54,58 L54,9.675 L24.192,39.483 L24.192,39.483 Z" id="Fill-325" fill="#FFFFFF" sketch:type="MSShapeGroup"></path>
                <path d="M24.192,39.483 L16.414,41.604 L18.535,33.826 L48.362,4 L0,4 L0,58 L54,58 L54,9.675 L24.192,39.483 L24.192,39.483 Z" id="Stroke-326" stroke="#0F81E0" stroke-width="2" stroke-linejoin="round" sketch:type="MSShapeGroup"></path>
                <path d="M24.192,39.483 L16.414,41.604 L18.535,33.826 L51.78,0.582 C52.555,-0.194 53.812,-0.194 54.587,0.582 L57.437,3.431 C58.212,4.206 58.212,5.463 57.437,6.238 L24.192,39.483 L24.192,39.483 Z" id="Fill-475" fill="#C6E3F8" sketch:type="MSShapeGroup"></path>
                <path d="M24.192,39.483 L16.414,41.604 L18.535,33.826 L51.78,0.582 C52.555,-0.194 53.812,-0.194 54.587,0.582 L57.437,3.431 C58.212,4.206 58.212,5.463 57.437,6.238 L24.192,39.483 L24.192,39.483 Z" id="Stroke-476" stroke="#0F81E0" stroke-width="2" stroke-linejoin="round" sketch:type="MSShapeGroup"></path>
                <path d="M51.062,12.612 L45.406,6.956 L48.234,4.127 L53.891,9.784 L51.062,12.612 L51.062,12.612 Z" id="Fill-477" fill="#FFFFFF" sketch:type="MSShapeGroup"></path>
                <path d="M51.062,12.612 L45.406,6.956 L48.234,4.127 L53.891,9.784 L51.062,12.612 L51.062,12.612 Z" id="Stroke-478" stroke="#0F81E0" stroke-width="2" stroke-linejoin="round" sketch:type="MSShapeGroup"></path>
                <path d="M16.414,41.604 L15,43.018" id="Stroke-479" stroke="#0F81E0" stroke-width="2" stroke-linecap="round" stroke-linejoin="round" sketch:type="MSShapeGroup"></path>
            </g>
        </g>
    </g>
</svg>