<?xml version="1.0" encoding="UTF-8" standalone="no"?>
<svg width="60px" height="60px" viewBox="0 0 60 60" version="1.1" xmlns="http://www.w3.org/2000/svg" xmlns:xlink="http://www.w3.org/1999/xlink" xmlns:sketch="http://www.bohemiancoding.com/sketch/ns">
    <!-- Generator: Sketch 3.2.2 (9983) - http://www.bohemiancoding.com/sketch -->
    <title>293 - Profile (Webby)</title>
    <desc>Created with Sketch.</desc>
    <defs></defs>
    <g id="Page-1" stroke="none" stroke-width="1" fill="none" fill-rule="evenodd" sketch:type="MSPage">
        <g id="Icons" sketch:type="MSArtboardGroup" transform="translate(-960.000000, -1317.000000)">
            <g id="293---Profile-(Webby)" sketch:type="MSLayerGroup" transform="translate(961.000000, 1318.000000)">
                <path d="M58,29 C58,45.016 45.016,58 29,58 C12.984,58 0,45.016 0,29 C0,12.984 12.984,0 29,0 C45.016,0 58,12.984 58,29 L58,29 Z" id="Fill-202" fill="#C6E3F8" sketch:type="MSShapeGroup"></path>
                <path d="M58,29 C58,45.016 45.016,58 29,58 C12.984,58 0,45.016 0,29 C0,12.984 12.984,0 29,0 C45.016,0 58,12.984 58,29 L58,29 Z" id="Stroke-203" stroke="#0F81E0" stroke-width="2" stroke-linecap="round" stroke-linejoin="round" sketch:type="MSShapeGroup"></path>
                <path d="M32.925,30.703 C32.379,30.908 32,31.407 32,31.99 L32,32.635 C32,33.389 32.611,34 33.365,34 L39.311,34 C40.234,34 41.133,34.104 42,34.292 L42,14 L41.988,14 C42.002,20.24 38.236,28.706 32.925,30.703 L32.925,30.703 Z" id="Fill-621" fill="#FFFFFF" sketch:type="MSShapeGroup"></path>
                <path d="M32.925,30.703 C32.379,30.908 32,31.407 32,31.99 L32,32.635 C32,33.389 32.611,34 33.365,34 L39.311,34 C40.234,34 41.133,34.104 42,34.292 L42,14 L41.988,14 C42.002,20.24 38.236,28.706 32.925,30.703 L32.925,30.703 Z" id="Stroke-622" stroke="#0F81E0" stroke-width="2" stroke-linejoin="round" sketch:type="MSShapeGroup"></path>
                <path d="M16.689,34 L22.635,34 C23.389,34 24,33.389 24,32.635 L24,32 C24,31.442 23.668,30.922 23.145,30.729 C17.807,28.755 14,20.024 14,14 L14,34.292 C14.867,34.104 15.766,34 16.689,34 L16.689,34 Z" id="Fill-623" fill="#FFFFFF" sketch:type="MSShapeGroup"></path>
                <path d="M16.689,34 L22.635,34 C23.389,34 24,33.389 24,32.635 L24,32 C24,31.442 23.668,30.922 23.145,30.729 C17.807,28.755 14,20.024 14,14 L14,34.292 C14.867,34.104 15.766,34 16.689,34 L16.689,34 Z" id="Stroke-624" stroke="#0F81E0" stroke-width="2" stroke-linejoin="round" sketch:type="MSShapeGroup"></path>
                <path d="M51.998,46.657 C51.981,39.664 46.308,34 39.311,34 L33.365,34 C32.611,34 32,33.389 32,32.635 L32,31.99 C32,31.407 32.379,30.908 32.925,30.703 C38.729,28.52 42.703,18.999 41.896,12.269 C41.134,5.919 35.97,0.801 29.614,0.09 C29.183,0.042 28.759,0.027 28.336,0.017 C27.582,0.034 26.833,0.072 26.094,0.145 C19.266,1.077 14,6.916 14,14 C14,20.024 17.807,28.755 23.145,30.729 C23.668,30.922 24,31.442 24,32 L24,32.635 C24,33.389 23.389,34 22.635,34 L16.689,34 C10.557,34 5.442,38.349 4.258,44.131 C9.356,52.449 18.529,58 29,58 C38.37,58 46.697,53.552 51.998,46.657 L51.998,46.657 Z" id="Fill-625" fill="#FFFFFF" sketch:type="MSShapeGroup"></path>
                <path d="M51.998,46.657 C51.981,39.664 46.308,34 39.311,34 L33.365,34 C32.611,34 32,33.389 32,32.635 L32,31.99 C32,31.407 32.379,30.908 32.925,30.703 C38.729,28.52 42.703,18.999 41.896,12.269 C41.134,5.919 35.97,0.801 29.614,0.09 C29.183,0.042 28.759,0.027 28.336,0.017 C27.582,0.034 26.833,0.072 26.094,0.145 C19.266,1.077 14,6.916 14,14 C14,20.024 17.807,28.755 23.145,30.729 C23.668,30.922 24,31.442 24,32 L24,32.635 C24,33.389 23.389,34 22.635,34 L16.689,34 C10.557,34 5.442,38.349 4.258,44.131 C9.356,52.449 18.529,58 29,58 C38.37,58 46.697,53.552 51.998,46.657 L51.998,46.657 Z" id="Stroke-626" stroke="#0F81E0" stroke-width="2" stroke-linecap="round" stroke-linejoin="round" sketch:type="MSShapeGroup"></path>
                <path d="M14,11.583 L14,11.583 C14.179,11.835 14.354,12.09 14.545,12.333 C14.615,12.246 14.686,12.16 14.758,12.075 C16.758,9.695 20.098,9.144 22.941,10.403 C23.806,10.787 24.765,11 25.773,11 C28.715,11 31.229,9.182 32.264,6.61 C36.008,7.639 39.534,9.949 41.773,13 M13,53.191 L13,48 M43,48 L43,54.399 M9.35,36.35 L28,53 L46.65,36.35" id="Stroke-627" stroke="#0F81E0" stroke-width="2" stroke-linejoin="round" sketch:type="MSShapeGroup"></path>
                <path d="M28,50 C28,45.025 32.025,41 37,41 M28,50 C28,45.025 23.975,41 19,41" id="Stroke-628" stroke="#0F81E0" stroke-width="2" stroke-linecap="round" stroke-linejoin="round" sketch:type="MSShapeGroup"></path>
                <path d="M28,50 L28,53" id="Stroke-629" stroke="#0F81E0" stroke-width="2" stroke-linejoin="round" sketch:type="MSShapeGroup"></path>
            </g>
        </g>
    </g>
</svg>