<?xml version="1.0" encoding="UTF-8" standalone="no"?>
<svg width="60px" height="60px" viewBox="0 0 60 60" version="1.1" xmlns="http://www.w3.org/2000/svg" xmlns:xlink="http://www.w3.org/1999/xlink" xmlns:sketch="http://www.bohemiancoding.com/sketch/ns">
    <!-- Generator: Sketch 3.2.2 (9983) - http://www.bohemiancoding.com/sketch -->
    <title>30 - Favorite List (Webby)</title>
    <desc>Created with Sketch.</desc>
    <defs></defs>
    <g id="Page-1" stroke="none" stroke-width="1" fill="none" fill-rule="evenodd" sketch:type="MSPage">
        <g id="Icons" sketch:type="MSArtboardGroup" transform="translate(-120.000000, -4557.000000)">
            <g id="30---Favorite-List-(Webby)" sketch:type="MSLayerGroup" transform="translate(121.000000, 4558.000000)">
                <path d="M0,0 L58,0 L58,58 L0,58 L0,0 Z" id="Fill-245" fill="#FFFFFF" sketch:type="MSShapeGroup"></path>
                <path d="M0,0 L58,0 L58,58 L0,58 L0,0 Z" id="Stroke-246" stroke="#0F81E0" stroke-width="2" stroke-linecap="round" stroke-linejoin="round" sketch:type="MSShapeGroup"></path>
                <path d="M13.929,10 L15.143,12.46 L17.858,12.854 L15.894,14.769 L16.357,17.473 L13.929,16.197 L11.501,17.473 L11.964,14.769 L10,12.854 L12.715,12.46 L13.929,10" id="Fill-247" fill="#0F81E0" sketch:type="MSShapeGroup"></path>
                <path d="M13.929,25.083 L15.143,27.543 L17.858,27.937 L15.894,29.852 L16.357,32.556 L13.929,31.28 L11.501,32.556 L11.964,29.852 L10,27.937 L12.715,27.543 L13.929,25.083" id="Fill-248" fill="#0F81E0" sketch:type="MSShapeGroup"></path>
                <path d="M13.929,40.526 L15.143,42.987 L17.858,43.381 L15.894,45.296 L16.357,48 L13.929,46.723 L11.501,48 L11.964,45.296 L10,43.381 L12.715,42.987 L13.929,40.526" id="Fill-249" fill="#0F81E0" sketch:type="MSShapeGroup"></path>
                <path d="M22.429,15 L46,15 M22.429,30 L46,30 M22.429,45 L46,45" id="Stroke-474" stroke="#0F81E0" stroke-width="2" stroke-linecap="round" stroke-linejoin="round" sketch:type="MSShapeGroup"></path>
            </g>
        </g>
    </g>
</svg>