<?xml version="1.0" encoding="UTF-8" standalone="no"?>
<svg width="61px" height="40px" viewBox="0 0 61 40" version="1.1" xmlns="http://www.w3.org/2000/svg" xmlns:xlink="http://www.w3.org/1999/xlink" xmlns:sketch="http://www.bohemiancoding.com/sketch/ns">
    <!-- Generator: Sketch 3.2.2 (9983) - http://www.bohemiancoding.com/sketch -->
    <title>301 - Send (Webby)</title>
    <desc>Created with Sketch.</desc>
    <defs></defs>
    <g id="Page-1" stroke="none" stroke-width="1" fill="none" fill-rule="evenodd" sketch:type="MSPage">
        <g id="Icons" sketch:type="MSArtboardGroup" transform="translate(-1199.000000, -1208.000000)">
            <g id="301---Send-(Webby)" sketch:type="MSLayerGroup" transform="translate(1200.000000, 1209.000000)">
                <path d="M18,21 L59,0 L25,25 L45,38 L59,0 L0.936,12 L18,21 L18,21 Z" id="Fill-192" fill="#FFFFFF" sketch:type="MSShapeGroup"></path>
                <path d="M18,21 L59,0 L25,25 L45,38 L59,0 L0.936,12 L18,21 L18,21 Z" id="Stroke-193" stroke="#0F81E0" stroke-width="2" stroke-linecap="round" stroke-linejoin="round" sketch:type="MSShapeGroup"></path>
                <path d="M21,38 L32.848,30.101" id="Fill-194" fill="#FFFFFF" sketch:type="MSShapeGroup"></path>
                <path d="M21,38 L32.848,30.101" id="Stroke-195" stroke="#0F81E0" stroke-width="2" stroke-linecap="round" stroke-linejoin="round" sketch:type="MSShapeGroup"></path>
                <path d="M25,25 L21.063,38 L18,21 L59,0 L25,25 L25,25 Z" id="Fill-196" fill="#C6E3F8" sketch:type="MSShapeGroup"></path>
                <path d="M25,25 L21.063,38 L18,21 L59,0 L25,25 L25,25 Z" id="Stroke-197" stroke="#0F81E0" stroke-width="2" stroke-linecap="round" stroke-linejoin="round" sketch:type="MSShapeGroup"></path>
                <path d="M25,25 L21,38 L32.848,30.101 L25,25 L25,25 Z" id="Fill-198" fill="#C6E3F8" sketch:type="MSShapeGroup"></path>
                <path d="M25,25 L21,38 L32.848,30.101 L25,25 L25,25 Z" id="Stroke-199" stroke="#0F81E0" stroke-width="2" stroke-linecap="round" stroke-linejoin="round" sketch:type="MSShapeGroup"></path>
            </g>
        </g>
    </g>
</svg>