<?xml version="1.0" encoding="UTF-8" standalone="no"?>
<svg width="56px" height="53px" viewBox="0 0 56 53" version="1.1" xmlns="http://www.w3.org/2000/svg" xmlns:xlink="http://www.w3.org/1999/xlink" xmlns:sketch="http://www.bohemiancoding.com/sketch/ns">
    <!-- Generator: Sketch 3.2.2 (9983) - http://www.bohemiancoding.com/sketch -->
    <title>304 - Map Location (Webby)</title>
    <desc>Created with Sketch.</desc>
    <defs></defs>
    <g id="Page-1" stroke="none" stroke-width="1" fill="none" fill-rule="evenodd" sketch:type="MSPage">
        <g id="Icons" sketch:type="MSArtboardGroup" transform="translate(-843.000000, -1202.000000)">
            <g id="304---Map-Location-(Webby)" sketch:type="MSLayerGroup" transform="translate(844.000000, 1202.000000)">
                <path d="M14,23 L4,23 L0.345,52 L53.114,52 L50,23 L40,23" id="Fill-131" fill="#FFFFFF" sketch:type="MSShapeGroup"></path>
                <path d="M14,23 L4,23 L0.345,52 L53.114,52 L50,23 L40,23" id="Stroke-132" stroke="#0F81E0" stroke-width="2" stroke-linecap="round" stroke-linejoin="round" sketch:type="MSShapeGroup"></path>
                <path d="M37.788,10.171 C37.263,6.172 35.173,0.99 26.966,0.99 C18.758,0.99 16.668,6.172 16.144,10.171 C15.856,12.363 16.017,14.59 16.474,16.753 C18.982,28.646 25.183,35.776 26.651,37.33 C26.823,37.512 27.109,37.512 27.281,37.33 C28.748,35.776 34.949,28.646 37.458,16.753 C37.914,14.59 38.075,12.363 37.788,10.171 L37.788,10.171 Z" id="Fill-133" fill="#FFFFFF" sketch:type="MSShapeGroup"></path>
                <path d="M37.788,10.171 C37.263,6.172 35.173,0.99 26.966,0.99 C18.758,0.99 16.668,6.172 16.144,10.171 C15.856,12.363 16.017,14.59 16.474,16.753 C18.982,28.646 25.183,35.776 26.651,37.33 C26.823,37.512 27.109,37.512 27.281,37.33 C28.748,35.776 34.949,28.646 37.458,16.753 C37.914,14.59 38.075,12.363 37.788,10.171 L37.788,10.171 Z" id="Stroke-134" stroke="#0F81E0" stroke-width="2" stroke-linecap="round" stroke-linejoin="round" sketch:type="MSShapeGroup"></path>
                <path d="M41.795,27.939 C42.96,27.61 44.266,27.69 45.309,28.305 C46.352,28.92 47.076,30.107 46.994,31.315 C46.93,32.254 46.418,33.098 45.881,33.872 C45.489,34.435 45.067,34.993 44.506,35.388 C43.672,35.974 42.62,36.141 41.606,36.244 C38.939,36.516 36.248,36.461 33.58,36.724 C30.912,36.986 28.212,37.592 25.963,39.05 C24.918,39.728 23.995,40.573 23.026,41.355 C20.178,43.653 16.898,45.42 13.399,46.492 C12.291,46.832 11.131,47.104 9.981,46.961 C8.831,46.818 7.684,46.186 7.199,45.133 C6.941,44.573 6.886,43.938 6.916,43.322 C7.023,41.126 8.503,38.824 10.689,38.583 C11.318,38.514 12.012,38.645 12.438,39.111" id="Stroke-137" stroke="#0F81E0" stroke-width="2" stroke-linecap="round" stroke-linejoin="round" stroke-dasharray="3" sketch:type="MSShapeGroup"></path>
                <path d="M33.311,11.566 C33.311,15.07 30.47,17.911 26.966,17.911 C23.461,17.911 20.62,15.07 20.62,11.566 C20.62,8.061 23.461,5.22 26.966,5.22 C30.47,5.22 33.311,8.061 33.311,11.566 L33.311,11.566 Z" id="Fill-610" fill="#C6E3F8" sketch:type="MSShapeGroup"></path>
                <path d="M33.311,11.566 C33.311,15.07 30.47,17.911 26.966,17.911 C23.461,17.911 20.62,15.07 20.62,11.566 C20.62,8.061 23.461,5.22 26.966,5.22 C30.47,5.22 33.311,8.061 33.311,11.566 L33.311,11.566 Z" id="Stroke-611" stroke="#0F81E0" stroke-width="2" stroke-linecap="round" stroke-linejoin="round" sketch:type="MSShapeGroup"></path>
            </g>
        </g>
    </g>
</svg>