<?xml version="1.0" encoding="UTF-8" standalone="no"?>
<svg width="39px" height="54px" viewBox="0 0 39 54" version="1.1" xmlns="http://www.w3.org/2000/svg" xmlns:xlink="http://www.w3.org/1999/xlink" xmlns:sketch="http://www.bohemiancoding.com/sketch/ns">
    <!-- Generator: Sketch 3.2.2 (9983) - http://www.bohemiancoding.com/sketch -->
    <title>305 - Location (Webby)</title>
    <desc>Created with Sketch.</desc>
    <defs></defs>
    <g id="Page-1" stroke="none" stroke-width="1" fill="none" fill-rule="evenodd" sketch:type="MSPage">
        <g id="Icons" sketch:type="MSArtboardGroup" transform="translate(-730.000000, -1200.000000)">
            <g id="305---Location-(Webby)" sketch:type="MSLayerGroup" transform="translate(731.000000, 1200.000000)">
                <path d="M18.823,53 L4.282,32 C-1.146,24.764 -0.426,12.72 5.97,6.324 C13.069,-0.775 24.578,-0.775 31.676,6.324 C38.072,12.72 38.792,24.764 33.365,32 L18.823,53 L18.823,53 Z" id="Fill-138" fill="#FFFFFF" sketch:type="MSShapeGroup"></path>
                <path d="M18.823,53 L4.282,32 C-1.146,24.764 -0.426,12.72 5.97,6.324 C13.069,-0.775 24.578,-0.775 31.676,6.324 C38.072,12.72 38.792,24.764 33.365,32 L18.823,53 L18.823,53 Z" id="Stroke-139" stroke="#0F81E0" stroke-width="2" stroke-linecap="round" stroke-linejoin="round" sketch:type="MSShapeGroup"></path>
                <path d="M25,19 C25,22.314 22.314,25 19,25 C15.686,25 13,22.314 13,19 C13,15.686 15.686,13 19,13 C22.314,13 25,15.686 25,19 L25,19 Z" id="Fill-608" fill="#C6E3F8" sketch:type="MSShapeGroup"></path>
                <path d="M25,19 C25,22.314 22.314,25 19,25 C15.686,25 13,22.314 13,19 C13,15.686 15.686,13 19,13 C22.314,13 25,15.686 25,19 L25,19 Z" id="Stroke-609" stroke="#0F81E0" stroke-width="2" stroke-linecap="round" stroke-linejoin="round" sketch:type="MSShapeGroup"></path>
            </g>
        </g>
    </g>
</svg>