<?xml version="1.0" encoding="UTF-8" standalone="no"?>
<svg width="57px" height="60px" viewBox="0 0 57 60" version="1.1" xmlns="http://www.w3.org/2000/svg" xmlns:xlink="http://www.w3.org/1999/xlink" xmlns:sketch="http://www.bohemiancoding.com/sketch/ns">
    <!-- Generator: Sketch 3.2.2 (9983) - http://www.bohemiancoding.com/sketch -->
    <title>307 - Signpost (Webby)</title>
    <desc>Created with Sketch.</desc>
    <defs></defs>
    <g id="Page-1" stroke="none" stroke-width="1" fill="none" fill-rule="evenodd" sketch:type="MSPage">
        <g id="Icons" sketch:type="MSArtboardGroup" transform="translate(-482.000000, -1197.000000)">
            <g id="307---Signpost-(Webby)" sketch:type="MSLayerGroup" transform="translate(482.000000, 1198.000000)">
                <path d="M27,3 L27,0 M27,58 L27,39" id="Stroke-104" stroke="#0F81E0" stroke-width="2" stroke-linecap="round" stroke-linejoin="round" sketch:type="MSShapeGroup"></path>
                <path d="M46.889,19 L8.397,19 C7.073,19 6,17.927 6,16.604 L6,5.397 C6,4.073 7.073,3 8.397,3 L46.889,3 L55.6,10.841 C55.695,10.926 55.695,11.075 55.6,11.16 L46.889,19 L46.889,19 Z" id="Fill-105" fill="#C6E3F8" sketch:type="MSShapeGroup"></path>
                <path d="M46.889,19 L8.397,19 C7.073,19 6,17.927 6,16.604 L6,5.397 C6,4.073 7.073,3 8.397,3 L46.889,3 L55.6,10.841 C55.695,10.926 55.695,11.075 55.6,11.16 L46.889,19 L46.889,19 Z" id="Stroke-106" stroke="#0F81E0" stroke-width="2" stroke-linecap="round" stroke-linejoin="round" sketch:type="MSShapeGroup"></path>
                <path d="M9.783,39 L48.603,39 C49.927,39 51,37.927 51,36.603 L51,25.397 C51,24.073 49.927,23 48.603,23 L9.783,23 L1.071,30.84 C0.976,30.926 0.976,31.074 1.071,31.16 L9.783,39 L9.783,39 Z" id="Fill-107" fill="#C6E3F8" sketch:type="MSShapeGroup"></path>
                <path d="M9.783,39 L48.603,39 C49.927,39 51,37.927 51,36.603 L51,25.397 C51,24.073 49.927,23 48.603,23 L9.783,23 L1.071,30.84 C0.976,30.926 0.976,31.074 1.071,31.16 L9.783,39 L9.783,39 Z" id="Stroke-108" stroke="#0F81E0" stroke-width="2" stroke-linecap="round" stroke-linejoin="round" sketch:type="MSShapeGroup"></path>
                <path d="M27,19 L27,23" id="Stroke-109" stroke="#0F81E0" stroke-width="2" stroke-linecap="round" stroke-linejoin="round" sketch:type="MSShapeGroup"></path>
            </g>
        </g>
    </g>
</svg>