<?xml version="1.0" encoding="UTF-8" standalone="no"?>
<svg width="58px" height="60px" viewBox="0 0 58 60" version="1.1" xmlns="http://www.w3.org/2000/svg" xmlns:xlink="http://www.w3.org/1999/xlink" xmlns:sketch="http://www.bohemiancoding.com/sketch/ns">
    <!-- Generator: Sketch 3.2.2 (9983) - http://www.bohemiancoding.com/sketch -->
    <title>31 - Newspaper (Webby)</title>
    <desc>Created with Sketch.</desc>
    <defs></defs>
    <g id="Page-1" stroke="none" stroke-width="1" fill="none" fill-rule="evenodd" sketch:type="MSPage">
        <g id="Icons" sketch:type="MSArtboardGroup" transform="translate(-1201.000000, -4437.000000)">
            <g id="31---Newspaper-(Webby)" sketch:type="MSLayerGroup" transform="translate(1202.000000, 4438.000000)">
                <path d="M5,58 L5,58 C2.25,58 0,55.75 0,53 L0,30 L10,30 L10,53 C10,55.75 7.75,58 5,58 L5,58 Z" id="Fill-107" fill="#FFFFFF" sketch:type="MSShapeGroup"></path>
                <path d="M5,58 L5,58 C2.25,58 0,55.75 0,53 L0,30 L10,30 L10,53 C10,55.75 7.75,58 5,58 L5,58 Z" id="Stroke-108" stroke="#0F81E0" stroke-width="2" stroke-linecap="round" stroke-linejoin="round" sketch:type="MSShapeGroup"></path>
                <path d="M10,0 L10,53 C10,55.75 7.75,58 5,58 L51,58 C53.756,58 55.99,55.766 55.99,53.01 L55.99,0 L10,0 L10,0 Z" id="Fill-109" fill="#FFFFFF" sketch:type="MSShapeGroup"></path>
                <path d="M10,0 L10,53 C10,55.75 7.75,58 5,58 L51,58 C53.756,58 55.99,55.766 55.99,53.01 L55.99,0 L10,0 L10,0 Z" id="Stroke-110" stroke="#0F81E0" stroke-width="2" stroke-linecap="round" stroke-linejoin="round" sketch:type="MSShapeGroup"></path>
                <path d="M16,16 L28,16 L28,28 L16,28 L16,16 Z" id="Fill-111" fill="#C6E3F8" sketch:type="MSShapeGroup"></path>
                <path d="M16,16 L28,16 L28,28 L16,28 L16,16 Z" id="Stroke-112" stroke="#0F81E0" stroke-width="2" stroke-linecap="round" stroke-linejoin="round" sketch:type="MSShapeGroup"></path>
                <path d="M34,16 L50,16 M34,22 L50,22 M34,28 L50,28 M17,34 L50,34 M17,40 L32,40 M17,46 L32,46 M17,52 L32,52" id="Stroke-113" stroke="#0F81E0" stroke-width="2" stroke-linecap="round" stroke-linejoin="round" sketch:type="MSShapeGroup"></path>
                <path d="M38,52 L50,52 L50,40 L38,40 L38,52 Z" id="Fill-114" fill="#C6E3F8" sketch:type="MSShapeGroup"></path>
                <path d="M38,52 L50,52 L50,40 L38,40 L38,52 Z" id="Stroke-115" stroke="#0F81E0" stroke-width="2" stroke-linecap="round" stroke-linejoin="round" sketch:type="MSShapeGroup"></path>
                <path d="M10,12 L56,12" id="Stroke-116" stroke="#0F81E0" stroke-width="2" stroke-linecap="round" stroke-linejoin="round" sketch:type="MSShapeGroup"></path>
                <path d="M22,4 L44,4 L44,8 L22,8 L22,4 Z" id="Fill-117" fill="#C6E3F8" sketch:type="MSShapeGroup"></path>
                <path d="M22,4 L44,4 L44,8 L22,8 L22,4 Z" id="Stroke-118" stroke="#0F81E0" stroke-width="2" stroke-linecap="round" stroke-linejoin="round" sketch:type="MSShapeGroup"></path>
            </g>
        </g>
    </g>
</svg>