<?xml version="1.0" encoding="UTF-8" standalone="no"?>
<svg width="59px" height="60px" viewBox="0 0 59 60" version="1.1" xmlns="http://www.w3.org/2000/svg" xmlns:xlink="http://www.w3.org/1999/xlink" xmlns:sketch="http://www.bohemiancoding.com/sketch/ns">
    <!-- Generator: Sketch 3.2.2 (9983) - http://www.bohemiancoding.com/sketch -->
    <title>311 - Roadmap (Webby)</title>
    <desc>Created with Sketch.</desc>
    <defs></defs>
    <g id="Page-1" stroke="none" stroke-width="1" fill="none" fill-rule="evenodd" sketch:type="MSPage">
        <g id="Icons" sketch:type="MSArtboardGroup" transform="translate(-1200.000000, -1077.000000)">
            <g id="311---Roadmap-(Webby)" sketch:type="MSLayerGroup" transform="translate(1201.000000, 1077.000000)">
                <path d="M18.778,47.213 L11,56 L3.222,47.213 C-1.074,42.36 -1.074,34.492 3.222,29.64 C7.518,24.787 14.482,24.787 18.778,29.64 C23.074,34.492 23.074,42.36 18.778,47.213 L18.778,47.213 Z" id="Fill-97" fill="#C6E3F8" sketch:type="MSShapeGroup"></path>
                <path d="M18.778,47.213 L11,56 L3.222,47.213 C-1.074,42.36 -1.074,34.492 3.222,29.64 C7.518,24.787 14.482,24.787 18.778,29.64 C23.074,34.492 23.074,42.36 18.778,47.213 L18.778,47.213 Z" id="Stroke-98" stroke="#0F81E0" stroke-width="2" stroke-linejoin="round" sketch:type="MSShapeGroup"></path>
                <path d="M52.97,16.556 L47.253,23 L41.537,16.556 C38.38,12.998 38.38,7.228 41.537,3.669 C44.694,0.11 49.813,0.11 52.97,3.669 C56.127,7.228 56.127,12.998 52.97,16.556 L52.97,16.556 Z" id="Fill-99" fill="#C6E3F8" sketch:type="MSShapeGroup"></path>
                <path d="M52.97,16.556 L47.253,23 L41.537,16.556 C38.38,12.998 38.38,7.228 41.537,3.669 C44.694,0.11 49.813,0.11 52.97,3.669 C56.127,7.228 56.127,12.998 52.97,16.556 L52.97,16.556 Z" id="Stroke-100" stroke="#0F81E0" stroke-width="2" stroke-linejoin="round" sketch:type="MSShapeGroup"></path>
                <path d="M42,23 L30.5,23 C28.015,23 26,25.015 26,27.5 C26,29.985 28.015,32 30.5,32 L52.5,32 C54.985,32 57,34.015 57,36.5 C57,38.985 54.985,41 52.5,41 L34.5,41 C32.015,41 30,43.015 30,45.5 C30,47.985 32.015,50 34.5,50 L46.5,50 C48.985,50 51,52.015 51,54.5 C51,56.985 48.985,59 46.5,59 L11,59" id="Path" stroke="#0F81E0" stroke-width="2" stroke-linecap="round" stroke-linejoin="round" stroke-dasharray="3" sketch:type="MSShapeGroup"></path>
                <path d="M52,9.5 C52,11.985 49.985,14 47.5,14 C45.015,14 43,11.985 43,9.5 C43,7.015 45.015,5 47.5,5 C49.985,5 52,7.015 52,9.5 L52,9.5 Z" id="Fill-604" fill="#FFFFFF" sketch:type="MSShapeGroup"></path>
                <path d="M52,9.5 C52,11.985 49.985,14 47.5,14 C45.015,14 43,11.985 43,9.5 C43,7.015 45.015,5 47.5,5 C49.985,5 52,7.015 52,9.5 L52,9.5 Z" id="Stroke-605" stroke="#0F81E0" stroke-width="2" stroke-linejoin="round" sketch:type="MSShapeGroup"></path>
                <path d="M16,37 C16,39.761 13.761,42 11,42 C8.239,42 6,39.761 6,37 C6,34.239 8.239,32 11,32 C13.761,32 16,34.239 16,37 L16,37 Z" id="Fill-606" fill="#FFFFFF" sketch:type="MSShapeGroup"></path>
                <path d="M16,37 C16,39.761 13.761,42 11,42 C8.239,42 6,39.761 6,37 C6,34.239 8.239,32 11,32 C13.761,32 16,34.239 16,37 L16,37 Z" id="Stroke-607" stroke="#0F81E0" stroke-width="2" stroke-linejoin="round" sketch:type="MSShapeGroup"></path>
            </g>
        </g>
    </g>
</svg>