<?xml version="1.0" encoding="UTF-8" standalone="no"?>
<svg width="60px" height="60px" viewBox="0 0 60 60" version="1.1" xmlns="http://www.w3.org/2000/svg" xmlns:xlink="http://www.w3.org/1999/xlink" xmlns:sketch="http://www.bohemiancoding.com/sketch/ns">
    <!-- Generator: Sketch 3.2.2 (9983) - http://www.bohemiancoding.com/sketch -->
    <title>314 - Navigator (Webby)</title>
    <desc>Created with Sketch.</desc>
    <defs></defs>
    <g id="Page-1" stroke="none" stroke-width="1" fill="none" fill-rule="evenodd" sketch:type="MSPage">
        <g id="Icons" sketch:type="MSArtboardGroup" transform="translate(-840.000000, -1077.000000)">
            <g id="314---Navigator-(Webby)" sketch:type="MSLayerGroup" transform="translate(841.000000, 1078.000000)">
                <path d="M58,29 C58,45.016 45.016,58 29,58 C12.984,58 0,45.016 0,29 C0,12.984 12.984,0 29,0 C45.016,0 58,12.984 58,29 L58,29 Z" id="Fill-73" fill="#FFFFFF" sketch:type="MSShapeGroup"></path>
                <path d="M58,29 C58,45.016 45.016,58 29,58 C12.984,58 0,45.016 0,29 C0,12.984 12.984,0 29,0 C45.016,0 58,12.984 58,29 L58,29 Z" id="Stroke-74" stroke="#0F81E0" stroke-width="2" stroke-linecap="round" stroke-linejoin="round" sketch:type="MSShapeGroup"></path>
                <path d="M24.621,32.189 L8.049,29.412 L43.81,13 L26.519,47.882 L24.621,32.189 L24.621,32.189 Z" id="Fill-598" fill="#C6E3F8" sketch:type="MSShapeGroup"></path>
                <path d="M24.621,32.189 L8.049,29.412 L43.81,13 L26.519,47.882 L24.621,32.189 L24.621,32.189 Z" id="Stroke-599" stroke="#0F81E0" stroke-width="2" stroke-linecap="round" stroke-linejoin="round" sketch:type="MSShapeGroup"></path>
            </g>
        </g>
    </g>
</svg>