<?xml version="1.0" encoding="UTF-8" standalone="no"?>
<svg width="47px" height="58px" viewBox="0 0 47 58" version="1.1" xmlns="http://www.w3.org/2000/svg" xmlns:xlink="http://www.w3.org/1999/xlink" xmlns:sketch="http://www.bohemiancoding.com/sketch/ns">
    <!-- Generator: Sketch 3.2.2 (9983) - http://www.bohemiancoding.com/sketch -->
    <title>317 - Mute (Webby)</title>
    <desc>Created with Sketch.</desc>
    <defs></defs>
    <g id="Page-1" stroke="none" stroke-width="1" fill="none" fill-rule="evenodd" sketch:type="MSPage">
        <g id="Icons" sketch:type="MSArtboardGroup" transform="translate(-487.000000, -1078.000000)">
            <g id="317---Mute-(Webby)" sketch:type="MSLayerGroup" transform="translate(488.000000, 1079.000000)">
                <path d="M38,28 L38,34 C38,42.271 31.271,49 23,49 C14.728,49 8,42.271 8,34 L8,28" id="Path" stroke="#0F81E0" stroke-width="2" stroke-linecap="round" stroke-linejoin="round" sketch:type="MSShapeGroup"></path>
                <path d="M23,44 L23,44 C17.5,44 13,39.5 13,34 L13,10 C13,4.5 17.5,0 23,0 C28.5,0 33,4.5 33,10 L33,34 C33,39.5 28.5,44 23,44 L23,44 Z" id="Fill-10" fill="#C6E3F8" sketch:type="MSShapeGroup"></path>
                <path d="M23,44 L23,44 C17.5,44 13,39.5 13,34 L13,10 C13,4.5 17.5,0 23,0 C28.5,0 33,4.5 33,10 L33,34 C33,39.5 28.5,44 23,44 L23,44 Z" id="Stroke-11" stroke="#0F81E0" stroke-width="2" stroke-linecap="round" stroke-linejoin="round" sketch:type="MSShapeGroup"></path>
                <path d="M23,49 L23,56 M29,56 L17,56 M36,13 L45,4 M16,33 L30,19 M0,49 L7,42" id="Stroke-12" stroke="#0F81E0" stroke-width="2" stroke-linecap="round" stroke-linejoin="round" sketch:type="MSShapeGroup"></path>
            </g>
        </g>
    </g>
</svg>