<?xml version="1.0" encoding="UTF-8" standalone="no"?>
<svg width="32px" height="58px" viewBox="0 0 32 58" version="1.1" xmlns="http://www.w3.org/2000/svg" xmlns:xlink="http://www.w3.org/1999/xlink" xmlns:sketch="http://www.bohemiancoding.com/sketch/ns">
    <!-- Generator: Sketch 3.2.2 (9983) - http://www.bohemiancoding.com/sketch -->
    <title>318 - Voice (Webby)</title>
    <desc>Created with Sketch.</desc>
    <defs></defs>
    <g id="Page-1" stroke="none" stroke-width="1" fill="none" fill-rule="evenodd" sketch:type="MSPage">
        <g id="Icons" sketch:type="MSArtboardGroup" transform="translate(-374.000000, -1078.000000)">
            <g id="318---Voice-(Webby)" sketch:type="MSLayerGroup" transform="translate(375.000000, 1079.000000)">
                <path d="M30,28 L30,34 C30,42.271 23.271,49 15,49 C6.728,49 0,42.271 0,34 L0,28" id="Stroke-3" stroke="#0F81E0" stroke-width="2" stroke-linecap="round" stroke-linejoin="round" sketch:type="MSShapeGroup"></path>
                <path d="M15,44 L15,44 C9.5,44 5,39.5 5,34 L5,10 C5,4.5 9.5,0 15,0 C20.5,0 25,4.5 25,10 L25,34 C25,39.5 20.5,44 15,44 L15,44 Z" id="Fill-4" fill="#C6E3F8" sketch:type="MSShapeGroup"></path>
                <path d="M15,44 L15,44 C9.5,44 5,39.5 5,34 L5,10 C5,4.5 9.5,0 15,0 C20.5,0 25,4.5 25,10 L25,34 C25,39.5 20.5,44 15,44 L15,44 Z" id="Stroke-5" stroke="#0F81E0" stroke-width="2" stroke-linecap="round" stroke-linejoin="round" sketch:type="MSShapeGroup"></path>
                <path d="M15,49 L15,56" id="Path" stroke="#0F81E0" stroke-width="2" stroke-linecap="round" stroke-linejoin="round" sketch:type="MSShapeGroup"></path>
                <path d="M21,56 L9,56" id="Path" stroke="#0F81E0" stroke-width="2" stroke-linecap="round" stroke-linejoin="round" sketch:type="MSShapeGroup"></path>
            </g>
        </g>
    </g>
</svg>