<?xml version="1.0" encoding="UTF-8" standalone="no"?>
<svg width="51px" height="60px" viewBox="0 0 51 60" version="1.1" xmlns="http://www.w3.org/2000/svg" xmlns:xlink="http://www.w3.org/1999/xlink" xmlns:sketch="http://www.bohemiancoding.com/sketch/ns">
    <!-- Generator: Sketch 3.2.2 (9983) - http://www.bohemiancoding.com/sketch -->
    <title>32 - Bookmark File (Webby)</title>
    <desc>Created with Sketch.</desc>
    <defs></defs>
    <g id="Page-1" stroke="none" stroke-width="1" fill="none" fill-rule="evenodd" sketch:type="MSPage">
        <g id="Icons" sketch:type="MSArtboardGroup" transform="translate(-1085.000000, -4437.000000)">
            <g id="32---Bookmark-File-(Webby)" sketch:type="MSLayerGroup" transform="translate(1086.000000, 4438.000000)">
                <path d="M23,4 L23,28 L15,22 L7,28 L7,4 L0,4 L0,58 L49,58 L49,4 L23,4 L23,4 Z" id="Fill-1" fill="#FFFFFF" sketch:type="MSShapeGroup"></path>
                <path d="M23,4 L23,28 L15,22 L7,28 L7,4 L0,4 L0,58 L49,58 L49,4 L23,4 L23,4 Z" id="Stroke-2" stroke="#0F81E0" stroke-width="2" stroke-linecap="round" stroke-linejoin="round" sketch:type="MSShapeGroup"></path>
                <path d="M7,36 L42,36 M29,29 L42,29 M29,22 L42,22 M29,15 L42,15 M7,48 L42,48 M7,42 L21,42 M29,42 L42,42" id="Stroke-104" stroke="#0F81E0" stroke-width="2" stroke-linecap="round" stroke-linejoin="round" sketch:type="MSShapeGroup"></path>
                <path d="M23,28 L15,22 L7,28 L7,0 L23,0 L23,28 L23,28 Z" id="Fill-105" fill="#C6E3F8" sketch:type="MSShapeGroup"></path>
                <path d="M23,28 L15,22 L7,28 L7,0 L23,0 L23,28 L23,28 Z" id="Stroke-106" stroke="#0F81E0" stroke-width="2" stroke-linecap="round" stroke-linejoin="round" sketch:type="MSShapeGroup"></path>
            </g>
        </g>
    </g>
</svg>