<?xml version="1.0" encoding="UTF-8" standalone="no"?>
<svg width="60px" height="60px" viewBox="0 0 60 60" version="1.1" xmlns="http://www.w3.org/2000/svg" xmlns:xlink="http://www.w3.org/1999/xlink" xmlns:sketch="http://www.bohemiancoding.com/sketch/ns">
    <!-- Generator: Sketch 3.2.2 (9983) - http://www.bohemiancoding.com/sketch -->
    <title>324 - ON OFF Switch (Webby)</title>
    <desc>Created with Sketch.</desc>
    <defs></defs>
    <g id="Page-1" stroke="none" stroke-width="1" fill="none" fill-rule="evenodd" sketch:type="MSPage">
        <g id="Icons" sketch:type="MSArtboardGroup" transform="translate(-840.000000, -957.000000)">
            <g id="324---ON-OFF-Switch-(Webby)" sketch:type="MSLayerGroup" transform="translate(841.000000, 958.000000)">
                <path d="M45,26 L13,26 C5.85,26 0,20.15 0,13 C0,5.85 5.85,0 13,0 L45,0 C52.15,0 58,5.85 58,13 C58,20.15 52.15,26 45,26 L45,26 Z" id="Fill-559" fill="#FFFFFF" sketch:type="MSShapeGroup"></path>
                <path d="M45,26 L13,26 C5.85,26 0,20.15 0,13 C0,5.85 5.85,0 13,0 L45,0 C52.15,0 58,5.85 58,13 C58,20.15 52.15,26 45,26 L45,26 Z" id="Stroke-560" stroke="#0F81E0" stroke-width="2" stroke-linecap="round" stroke-linejoin="round" sketch:type="MSShapeGroup"></path>
                <path d="M13,58 L45,58 C52.15,58 58,52.15 58,45 C58,37.85 52.15,32 45,32 L13,32 C5.85,32 0,37.85 0,45 C0,52.15 5.85,58 13,58 L13,58 Z" id="Fill-561" fill="#FFFFFF" sketch:type="MSShapeGroup"></path>
                <path d="M13,58 L45,58 C52.15,58 58,52.15 58,45 C58,37.85 52.15,32 45,32 L13,32 C5.85,32 0,37.85 0,45 C0,52.15 5.85,58 13,58 L13,58 Z" id="Stroke-562" stroke="#0F81E0" stroke-width="2" stroke-linecap="round" stroke-linejoin="round" sketch:type="MSShapeGroup"></path>
                <path d="M54,13 C54,17.971 49.971,22 45,22 C40.029,22 36,17.971 36,13 C36,8.029 40.029,4 45,4 C49.971,4 54,8.029 54,13 L54,13 Z" id="Fill-563" fill="#C6E3F8" sketch:type="MSShapeGroup"></path>
                <path d="M54,13 C54,17.971 49.971,22 45,22 C40.029,22 36,17.971 36,13 C36,8.029 40.029,4 45,4 C49.971,4 54,8.029 54,13 L54,13 Z" id="Stroke-564" stroke="#0F81E0" stroke-width="2" stroke-linecap="round" stroke-linejoin="round" sketch:type="MSShapeGroup"></path>
                <path d="M4,45 C4,49.971 8.029,54 13,54 C17.971,54 22,49.971 22,45 C22,40.029 17.971,36 13,36 C8.029,36 4,40.029 4,45 L4,45 Z" id="Fill-565" fill="#C6E3F8" sketch:type="MSShapeGroup"></path>
                <path d="M4,45 C4,49.971 8.029,54 13,54 C17.971,54 22,49.971 22,45 C22,40.029 17.971,36 13,36 C8.029,36 4,40.029 4,45 L4,45 Z" id="Stroke-566" stroke="#0F81E0" stroke-width="2" stroke-linecap="round" stroke-linejoin="round" sketch:type="MSShapeGroup"></path>
                <path d="M9,33 C9,33.552 8.552,34 8,34 C7.448,34 7,33.552 7,33 C7,32.448 7.448,32 8,32 C8.552,32 9,32.448 9,33" id="Fill-600" fill="#0F81E0" sketch:type="MSShapeGroup"></path>
                <path d="M6,36 C6,36.552 5.552,37 5,37 C4.448,37 4,36.552 4,36 C4,35.448 4.448,35 5,35 C5.552,35 6,35.448 6,36" id="Fill-601" fill="#0F81E0" sketch:type="MSShapeGroup"></path>
                <path d="M12,36 C12,36.552 11.552,37 11,37 C10.448,37 10,36.552 10,36 C10,35.448 10.448,35 11,35 C11.552,35 12,35.448 12,36" id="Fill-602" fill="#0F81E0" sketch:type="MSShapeGroup"></path>
                <path d="M15,33 C15,33.552 14.552,34 14,34 C13.448,34 13,33.552 13,33 C13,32.448 13.448,32 14,32 C14.552,32 15,32.448 15,33" id="Fill-603" fill="#0F81E0" sketch:type="MSShapeGroup"></path>
                <path d="M21,33 C21,33.552 20.552,34 20,34 C19.448,34 19,33.552 19,33 C19,32.448 19.448,32 20,32 C20.552,32 21,32.448 21,33" id="Fill-604" fill="#0F81E0" sketch:type="MSShapeGroup"></path>
                <path d="M18,36 C18,36.552 17.552,37 17,37 C16.448,37 16,36.552 16,36 C16,35.448 16.448,35 17,35 C17.552,35 18,35.448 18,36" id="Fill-605" fill="#0F81E0" sketch:type="MSShapeGroup"></path>
                <path d="M24,36 C24,36.552 23.552,37 23,37 C22.448,37 22,36.552 22,36 C22,35.448 22.448,35 23,35 C23.552,35 24,35.448 24,36" id="Fill-606" fill="#0F81E0" sketch:type="MSShapeGroup"></path>
                <path d="M27,33 C27,33.552 26.552,34 26,34 C25.448,34 25,33.552 25,33 C25,32.448 25.448,32 26,32 C26.552,32 27,32.448 27,33" id="Fill-607" fill="#0F81E0" sketch:type="MSShapeGroup"></path>
                <path d="M33,33 C33,33.552 32.552,34 32,34 C31.448,34 31,33.552 31,33 C31,32.448 31.448,32 32,32 C32.552,32 33,32.448 33,33" id="Fill-608" fill="#0F81E0" sketch:type="MSShapeGroup"></path>
                <path d="M30,36 C30,36.552 29.552,37 29,37 C28.448,37 28,36.552 28,36 C28,35.448 28.448,35 29,35 C29.552,35 30,35.448 30,36" id="Fill-609" fill="#0F81E0" sketch:type="MSShapeGroup"></path>
                <path d="M36,36 C36,36.552 35.552,37 35,37 C34.448,37 34,36.552 34,36 C34,35.448 34.448,35 35,35 C35.552,35 36,35.448 36,36" id="Fill-610" fill="#0F81E0" sketch:type="MSShapeGroup"></path>
                <path d="M39,33 C39,33.552 38.552,34 38,34 C37.448,34 37,33.552 37,33 C37,32.448 37.448,32 38,32 C38.552,32 39,32.448 39,33" id="Fill-611" fill="#0F81E0" sketch:type="MSShapeGroup"></path>
                <path d="M45,33 C45,33.552 44.552,34 44,34 C43.448,34 43,33.552 43,33 C43,32.448 43.448,32 44,32 C44.552,32 45,32.448 45,33" id="Fill-612" fill="#0F81E0" sketch:type="MSShapeGroup"></path>
                <path d="M42,36 C42,36.552 41.552,37 41,37 C40.448,37 40,36.552 40,36 C40,35.448 40.448,35 41,35 C41.552,35 42,35.448 42,36" id="Fill-613" fill="#0F81E0" sketch:type="MSShapeGroup"></path>
                <path d="M48,36 C48,36.552 47.552,37 47,37 C46.448,37 46,36.552 46,36 C46,35.448 46.448,35 47,35 C47.552,35 48,35.448 48,36" id="Fill-614" fill="#0F81E0" sketch:type="MSShapeGroup"></path>
                <path d="M51,33 C51,33.552 50.552,34 50,34 C49.448,34 49,33.552 49,33 C49,32.448 49.448,32 50,32 C50.552,32 51,32.448 51,33" id="Fill-615" fill="#0F81E0" sketch:type="MSShapeGroup"></path>
                <path d="M54,36 C54,36.552 53.552,37 53,37 C52.448,37 52,36.552 52,36 C52,35.448 52.448,35 53,35 C53.552,35 54,35.448 54,36" id="Fill-616" fill="#0F81E0" sketch:type="MSShapeGroup"></path>
                <path d="M3,39 C3,39.552 2.552,40 2,40 C1.448,40 1,39.552 1,39 C1,38.448 1.448,38 2,38 C2.552,38 3,38.448 3,39" id="Fill-617" fill="#0F81E0" sketch:type="MSShapeGroup"></path>
                <path d="M3,45 C3,45.552 2.552,46 2,46 C1.448,46 1,45.552 1,45 C1,44.448 1.448,44 2,44 C2.552,44 3,44.448 3,45" id="Fill-618" fill="#0F81E0" sketch:type="MSShapeGroup"></path>
                <path d="M21,39 C21,39.552 20.552,40 20,40 C19.448,40 19,39.552 19,39 C19,38.448 19.448,38 20,38 C20.552,38 21,38.448 21,39" id="Fill-619" fill="#0F81E0" sketch:type="MSShapeGroup"></path>
                <path d="M24,42 C24,42.552 23.552,43 23,43 C22.448,43 22,42.552 22,42 C22,41.448 22.448,41 23,41 C23.552,41 24,41.448 24,42" id="Fill-620" fill="#0F81E0" sketch:type="MSShapeGroup"></path>
                <path d="M24,48 C24,48.552 23.552,49 23,49 C22.448,49 22,48.552 22,48 C22,47.448 22.448,47 23,47 C23.552,47 24,47.448 24,48" id="Fill-621" fill="#0F81E0" sketch:type="MSShapeGroup"></path>
                <path d="M27,39 C27,39.552 26.552,40 26,40 C25.448,40 25,39.552 25,39 C25,38.448 25.448,38 26,38 C26.552,38 27,38.448 27,39" id="Fill-622" fill="#0F81E0" sketch:type="MSShapeGroup"></path>
                <path d="M33,39 C33,39.552 32.552,40 32,40 C31.448,40 31,39.552 31,39 C31,38.448 31.448,38 32,38 C32.552,38 33,38.448 33,39" id="Fill-623" fill="#0F81E0" sketch:type="MSShapeGroup"></path>
                <path d="M27,45 C27,45.552 26.552,46 26,46 C25.448,46 25,45.552 25,45 C25,44.448 25.448,44 26,44 C26.552,44 27,44.448 27,45" id="Fill-624" fill="#0F81E0" sketch:type="MSShapeGroup"></path>
                <path d="M33,45 C33,45.552 32.552,46 32,46 C31.448,46 31,45.552 31,45 C31,44.448 31.448,44 32,44 C32.552,44 33,44.448 33,45" id="Fill-625" fill="#0F81E0" sketch:type="MSShapeGroup"></path>
                <path d="M30,42 C30,42.552 29.552,43 29,43 C28.448,43 28,42.552 28,42 C28,41.448 28.448,41 29,41 C29.552,41 30,41.448 30,42" id="Fill-626" fill="#0F81E0" sketch:type="MSShapeGroup"></path>
                <path d="M36,42 C36,42.552 35.552,43 35,43 C34.448,43 34,42.552 34,42 C34,41.448 34.448,41 35,41 C35.552,41 36,41.448 36,42" id="Fill-627" fill="#0F81E0" sketch:type="MSShapeGroup"></path>
                <path d="M30,48 C30,48.552 29.552,49 29,49 C28.448,49 28,48.552 28,48 C28,47.448 28.448,47 29,47 C29.552,47 30,47.448 30,48" id="Fill-628" fill="#0F81E0" sketch:type="MSShapeGroup"></path>
                <path d="M36,48 C36,48.552 35.552,49 35,49 C34.448,49 34,48.552 34,48 C34,47.448 34.448,47 35,47 C35.552,47 36,47.448 36,48" id="Fill-629" fill="#0F81E0" sketch:type="MSShapeGroup"></path>
                <path d="M39,39 C39,39.552 38.552,40 38,40 C37.448,40 37,39.552 37,39 C37,38.448 37.448,38 38,38 C38.552,38 39,38.448 39,39" id="Fill-630" fill="#0F81E0" sketch:type="MSShapeGroup"></path>
                <path d="M45,39 C45,39.552 44.552,40 44,40 C43.448,40 43,39.552 43,39 C43,38.448 43.448,38 44,38 C44.552,38 45,38.448 45,39" id="Fill-631" fill="#0F81E0" sketch:type="MSShapeGroup"></path>
                <path d="M39,45 C39,45.552 38.552,46 38,46 C37.448,46 37,45.552 37,45 C37,44.448 37.448,44 38,44 C38.552,44 39,44.448 39,45" id="Fill-632" fill="#0F81E0" sketch:type="MSShapeGroup"></path>
                <path d="M45,45 C45,45.552 44.552,46 44,46 C43.448,46 43,45.552 43,45 C43,44.448 43.448,44 44,44 C44.552,44 45,44.448 45,45" id="Fill-633" fill="#0F81E0" sketch:type="MSShapeGroup"></path>
                <path d="M42,42 C42,42.552 41.552,43 41,43 C40.448,43 40,42.552 40,42 C40,41.448 40.448,41 41,41 C41.552,41 42,41.448 42,42" id="Fill-634" fill="#0F81E0" sketch:type="MSShapeGroup"></path>
                <path d="M48,42 C48,42.552 47.552,43 47,43 C46.448,43 46,42.552 46,42 C46,41.448 46.448,41 47,41 C47.552,41 48,41.448 48,42" id="Fill-635" fill="#0F81E0" sketch:type="MSShapeGroup"></path>
                <path d="M42,48 C42,48.552 41.552,49 41,49 C40.448,49 40,48.552 40,48 C40,47.448 40.448,47 41,47 C41.552,47 42,47.448 42,48" id="Fill-636" fill="#0F81E0" sketch:type="MSShapeGroup"></path>
                <path d="M48,48 C48,48.552 47.552,49 47,49 C46.448,49 46,48.552 46,48 C46,47.448 46.448,47 47,47 C47.552,47 48,47.448 48,48" id="Fill-637" fill="#0F81E0" sketch:type="MSShapeGroup"></path>
                <path d="M51,39 C51,39.552 50.552,40 50,40 C49.448,40 49,39.552 49,39 C49,38.448 49.448,38 50,38 C50.552,38 51,38.448 51,39" id="Fill-638" fill="#0F81E0" sketch:type="MSShapeGroup"></path>
                <path d="M57,39 C57,39.552 56.552,40 56,40 C55.448,40 55,39.552 55,39 C55,38.448 55.448,38 56,38 C56.552,38 57,38.448 57,39" id="Fill-639" fill="#0F81E0" sketch:type="MSShapeGroup"></path>
                <path d="M51,45 C51,45.552 50.552,46 50,46 C49.448,46 49,45.552 49,45 C49,44.448 49.448,44 50,44 C50.552,44 51,44.448 51,45" id="Fill-640" fill="#0F81E0" sketch:type="MSShapeGroup"></path>
                <path d="M57,45 C57,45.552 56.552,46 56,46 C55.448,46 55,45.552 55,45 C55,44.448 55.448,44 56,44 C56.552,44 57,44.448 57,45" id="Fill-641" fill="#0F81E0" sketch:type="MSShapeGroup"></path>
                <path d="M27,51 C27,51.552 26.552,52 26,52 C25.448,52 25,51.552 25,51 C25,50.448 25.448,50 26,50 C26.552,50 27,50.448 27,51" id="Fill-642" fill="#0F81E0" sketch:type="MSShapeGroup"></path>
                <path d="M33,51 C33,51.552 32.552,52 32,52 C31.448,52 31,51.552 31,51 C31,50.448 31.448,50 32,50 C32.552,50 33,50.448 33,51" id="Fill-643" fill="#0F81E0" sketch:type="MSShapeGroup"></path>
                <path d="M39,51 C39,51.552 38.552,52 38,52 C37.448,52 37,51.552 37,51 C37,50.448 37.448,50 38,50 C38.552,50 39,50.448 39,51" id="Fill-644" fill="#0F81E0" sketch:type="MSShapeGroup"></path>
                <path d="M45,51 C45,51.552 44.552,52 44,52 C43.448,52 43,51.552 43,51 C43,50.448 43.448,50 44,50 C44.552,50 45,50.448 45,51" id="Fill-645" fill="#0F81E0" sketch:type="MSShapeGroup"></path>
                <path d="M51,51 C51,51.552 50.552,52 50,52 C49.448,52 49,51.552 49,51 C49,50.448 49.448,50 50,50 C50.552,50 51,50.448 51,51" id="Fill-646" fill="#0F81E0" sketch:type="MSShapeGroup"></path>
                <path d="M57,51 C57,51.552 56.552,52 56,52 C55.448,52 55,51.552 55,51 C55,50.448 55.448,50 56,50 C56.552,50 57,50.448 57,51" id="Fill-647" fill="#0F81E0" sketch:type="MSShapeGroup"></path>
                <path d="M27,57 C27,57.552 26.552,58 26,58 C25.448,58 25,57.552 25,57 C25,56.448 25.448,56 26,56 C26.552,56 27,56.448 27,57" id="Fill-648" fill="#0F81E0" sketch:type="MSShapeGroup"></path>
                <path d="M33,57 C33,57.552 32.552,58 32,58 C31.448,58 31,57.552 31,57 C31,56.448 31.448,56 32,56 C32.552,56 33,56.448 33,57" id="Fill-649" fill="#0F81E0" sketch:type="MSShapeGroup"></path>
                <path d="M39,57 C39,57.552 38.552,58 38,58 C37.448,58 37,57.552 37,57 C37,56.448 37.448,56 38,56 C38.552,56 39,56.448 39,57" id="Fill-650" fill="#0F81E0" sketch:type="MSShapeGroup"></path>
                <path d="M45,57 C45,57.552 44.552,58 44,58 C43.448,58 43,57.552 43,57 C43,56.448 43.448,56 44,56 C44.552,56 45,56.448 45,57" id="Fill-651" fill="#0F81E0" sketch:type="MSShapeGroup"></path>
                <path d="M51,57 C51,57.552 50.552,58 50,58 C49.448,58 49,57.552 49,57 C49,56.448 49.448,56 50,56 C50.552,56 51,56.448 51,57" id="Fill-652" fill="#0F81E0" sketch:type="MSShapeGroup"></path>
                <path d="M15,57 C15,57.552 14.552,58 14,58 C13.448,58 13,57.552 13,57 C13,56.448 13.448,56 14,56 C14.552,56 15,56.448 15,57" id="Fill-653" fill="#0F81E0" sketch:type="MSShapeGroup"></path>
                <path d="M21,57 C21,57.552 20.552,58 20,58 C19.448,58 19,57.552 19,57 C19,56.448 19.448,56 20,56 C20.552,56 21,56.448 21,57" id="Fill-654" fill="#0F81E0" sketch:type="MSShapeGroup"></path>
                <path d="M54,42 C54,42.552 53.552,43 53,43 C52.448,43 52,42.552 52,42 C52,41.448 52.448,41 53,41 C53.552,41 54,41.448 54,42" id="Fill-655" fill="#0F81E0" sketch:type="MSShapeGroup"></path>
                <path d="M54,48 C54,48.552 53.552,49 53,49 C52.448,49 52,48.552 52,48 C52,47.448 52.448,47 53,47 C53.552,47 54,47.448 54,48" id="Fill-656" fill="#0F81E0" sketch:type="MSShapeGroup"></path>
                <path d="M24,54 C24,54.552 23.552,55 23,55 C22.448,55 22,54.552 22,54 C22,53.448 22.448,53 23,53 C23.552,53 24,53.448 24,54" id="Fill-657" fill="#0F81E0" sketch:type="MSShapeGroup"></path>
                <path d="M30,54 C30,54.552 29.552,55 29,55 C28.448,55 28,54.552 28,54 C28,53.448 28.448,53 29,53 C29.552,53 30,53.448 30,54" id="Fill-658" fill="#0F81E0" sketch:type="MSShapeGroup"></path>
                <path d="M36,54 C36,54.552 35.552,55 35,55 C34.448,55 34,54.552 34,54 C34,53.448 34.448,53 35,53 C35.552,53 36,53.448 36,54" id="Fill-659" fill="#0F81E0" sketch:type="MSShapeGroup"></path>
                <path d="M42,54 C42,54.552 41.552,55 41,55 C40.448,55 40,54.552 40,54 C40,53.448 40.448,53 41,53 C41.552,53 42,53.448 42,54" id="Fill-660" fill="#0F81E0" sketch:type="MSShapeGroup"></path>
                <path d="M48,54 C48,54.552 47.552,55 47,55 C46.448,55 46,54.552 46,54 C46,53.448 46.448,53 47,53 C47.552,53 48,53.448 48,54" id="Fill-661" fill="#0F81E0" sketch:type="MSShapeGroup"></path>
                <path d="M6,54 C6,54.552 5.552,55 5,55 C4.448,55 4,54.552 4,54 C4,53.448 4.448,53 5,53 C5.552,53 6,53.448 6,54" id="Fill-662" fill="#0F81E0" sketch:type="MSShapeGroup"></path>
                <path d="M12,54 C12,54.552 11.552,55 11,55 C10.448,55 10,54.552 10,54 C10,53.448 10.448,53 11,53 C11.552,53 12,53.448 12,54" id="Fill-663" fill="#0F81E0" sketch:type="MSShapeGroup"></path>
                <path d="M18,54 C18,54.552 17.552,55 17,55 C16.448,55 16,54.552 16,54 C16,53.448 16.448,53 17,53 C17.552,53 18,53.448 18,54" id="Fill-664" fill="#0F81E0" sketch:type="MSShapeGroup"></path>
                <path d="M54,54 C54,54.552 53.552,55 53,55 C52.448,55 52,54.552 52,54 C52,53.448 52.448,53 53,53 C53.552,53 54,53.448 54,54" id="Fill-665" fill="#0F81E0" sketch:type="MSShapeGroup"></path>
            </g>
        </g>
    </g>
</svg>