<?xml version="1.0" encoding="UTF-8" standalone="no"?>
<svg width="60px" height="32px" viewBox="0 0 60 32" version="1.1" xmlns="http://www.w3.org/2000/svg" xmlns:xlink="http://www.w3.org/1999/xlink" xmlns:sketch="http://www.bohemiancoding.com/sketch/ns">
    <!-- Generator: Sketch 3.2.2 (9983) - http://www.bohemiancoding.com/sketch -->
    <title>327 - ON Switch (Webby)</title>
    <desc>Created with Sketch.</desc>
    <defs></defs>
    <g id="Page-1" stroke="none" stroke-width="1" fill="none" fill-rule="evenodd" sketch:type="MSPage">
        <g id="Icons" sketch:type="MSArtboardGroup" transform="translate(-480.000000, -971.000000)">
            <g id="327---ON-Switch-(Webby)" sketch:type="MSLayerGroup" transform="translate(481.000000, 972.000000)">
                <path d="M2.992,0 L55.008,0 C56.66,0 58,1.34 58,2.992 L58,27.008 C58,28.66 56.66,30 55.008,30 L2.992,30 C1.34,30 0,28.66 0,27.008 L0,2.992 C0,1.34 1.34,0 2.992,0 L2.992,0 Z" id="Fill-775" fill="#FFFFFF" sketch:type="MSShapeGroup"></path>
                <path d="M2.992,0 L55.008,0 C56.66,0 58,1.34 58,2.992 L58,27.008 C58,28.66 56.66,30 55.008,30 L2.992,30 C1.34,30 0,28.66 0,27.008 L0,2.992 C0,1.34 1.34,0 2.992,0 L2.992,0 Z" id="Stroke-776" stroke="#0F81E0" stroke-width="2" stroke-linejoin="round" sketch:type="MSShapeGroup"></path>
                <path d="M30.992,0 L55.008,0 C56.66,0 58,1.34 58,2.992 L58,27.008 C58,28.66 56.66,30 55.008,30 L30.992,30 C29.34,30 28,28.66 28,27.008 L28,2.992 C28,1.34 29.34,0 30.992,0 L30.992,0 Z" id="Fill-777" fill="#C6E3F8" sketch:type="MSShapeGroup"></path>
                <path d="M30.992,0 L55.008,0 C56.66,0 58,1.34 58,2.992 L58,27.008 C58,28.66 56.66,30 55.008,30 L30.992,30 C29.34,30 28,28.66 28,27.008 L28,2.992 C28,1.34 29.34,0 30.992,0 L30.992,0 Z" id="Stroke-778" stroke="#0F81E0" stroke-width="2" stroke-linejoin="round" sketch:type="MSShapeGroup"></path>
                <path d="M23,24 C23,23.448 23.448,23 24,23 C24.552,23 25,23.448 25,24 C25,24.552 24.552,25 24,25 C23.448,25 23,24.552 23,24" id="Fill-779" fill="#0F81E0" sketch:type="MSShapeGroup"></path>
                <path d="M17,24 C17,23.448 17.448,23 18,23 C18.552,23 19,23.448 19,24 C19,24.552 18.552,25 18,25 C17.448,25 17,24.552 17,24" id="Fill-780" fill="#0F81E0" sketch:type="MSShapeGroup"></path>
                <path d="M20,27 C20,26.448 20.448,26 21,26 C21.552,26 22,26.448 22,27 C22,27.552 21.552,28 21,28 C20.448,28 20,27.552 20,27" id="Fill-781" fill="#0F81E0" sketch:type="MSShapeGroup"></path>
                <path d="M14,27 C14,26.448 14.448,26 15,26 C15.552,26 16,26.448 16,27 C16,27.552 15.552,28 15,28 C14.448,28 14,27.552 14,27" id="Fill-782" fill="#0F81E0" sketch:type="MSShapeGroup"></path>
                <path d="M20,21 C20,20.448 20.448,20 21,20 C21.552,20 22,20.448 22,21 C22,21.552 21.552,22 21,22 C20.448,22 20,21.552 20,21" id="Fill-783" fill="#0F81E0" sketch:type="MSShapeGroup"></path>
                <path d="M14,21 C14,20.448 14.448,20 15,20 C15.552,20 16,20.448 16,21 C16,21.552 15.552,22 15,22 C14.448,22 14,21.552 14,21" id="Fill-784" fill="#0F81E0" sketch:type="MSShapeGroup"></path>
                <path d="M11,24 C11,23.448 11.448,23 12,23 C12.552,23 13,23.448 13,24 C13,24.552 12.552,25 12,25 C11.448,25 11,24.552 11,24" id="Fill-785" fill="#0F81E0" sketch:type="MSShapeGroup"></path>
                <path d="M5,24 C5,23.448 5.448,23 6,23 C6.552,23 7,23.448 7,24 C7,24.552 6.552,25 6,25 C5.448,25 5,24.552 5,24" id="Fill-786" fill="#0F81E0" sketch:type="MSShapeGroup"></path>
                <path d="M8,27 C8,26.448 8.448,26 9,26 C9.552,26 10,26.448 10,27 C10,27.552 9.552,28 9,28 C8.448,28 8,27.552 8,27" id="Fill-787" fill="#0F81E0" sketch:type="MSShapeGroup"></path>
                <path d="M2,27 C2,26.448 2.448,26 3,26 C3.552,26 4,26.448 4,27 C4,27.552 3.552,28 3,28 C2.448,28 2,27.552 2,27" id="Fill-788" fill="#0F81E0" sketch:type="MSShapeGroup"></path>
                <path d="M8,21 C8,20.448 8.448,20 9,20 C9.552,20 10,20.448 10,21 C10,21.552 9.552,22 9,22 C8.448,22 8,21.552 8,21" id="Fill-789" fill="#0F81E0" sketch:type="MSShapeGroup"></path>
                <path d="M2,21 C2,20.448 2.448,20 3,20 C3.552,20 4,20.448 4,21 C4,21.552 3.552,22 3,22 C2.448,22 2,21.552 2,21" id="Fill-790" fill="#0F81E0" sketch:type="MSShapeGroup"></path>
                <path d="M23,6 C23,5.448 23.448,5 24,5 C24.552,5 25,5.448 25,6 C25,6.552 24.552,7 24,7 C23.448,7 23,6.552 23,6" id="Fill-791" fill="#0F81E0" sketch:type="MSShapeGroup"></path>
                <path d="M20,3 C20,2.448 20.448,2 21,2 C21.552,2 22,2.448 22,3 C22,3.552 21.552,4 21,4 C20.448,4 20,3.552 20,3" id="Fill-792" fill="#0F81E0" sketch:type="MSShapeGroup"></path>
                <path d="M17,6 C17,5.448 17.448,5 18,5 C18.552,5 19,5.448 19,6 C19,6.552 18.552,7 18,7 C17.448,7 17,6.552 17,6" id="Fill-793" fill="#0F81E0" sketch:type="MSShapeGroup"></path>
                <path d="M11,6 C11,5.448 11.448,5 12,5 C12.552,5 13,5.448 13,6 C13,6.552 12.552,7 12,7 C11.448,7 11,6.552 11,6" id="Fill-794" fill="#0F81E0" sketch:type="MSShapeGroup"></path>
                <path d="M14,3 C14,2.448 14.448,2 15,2 C15.552,2 16,2.448 16,3 C16,3.552 15.552,4 15,4 C14.448,4 14,3.552 14,3" id="Fill-795" fill="#0F81E0" sketch:type="MSShapeGroup"></path>
                <path d="M8,3 C8,2.448 8.448,2 9,2 C9.552,2 10,2.448 10,3 C10,3.552 9.552,4 9,4 C8.448,4 8,3.552 8,3" id="Fill-796" fill="#0F81E0" sketch:type="MSShapeGroup"></path>
                <path d="M5,6 C5,5.448 5.448,5 6,5 C6.552,5 7,5.448 7,6 C7,6.552 6.552,7 6,7 C5.448,7 5,6.552 5,6" id="Fill-797" fill="#0F81E0" sketch:type="MSShapeGroup"></path>
                <path d="M2,3 C2,2.448 2.448,2 3,2 C3.552,2 4,2.448 4,3 C4,3.552 3.552,4 3,4 C2.448,4 2,3.552 2,3" id="Fill-798" fill="#0F81E0" sketch:type="MSShapeGroup"></path>
                <path d="M23,18 C23,17.448 23.448,17 24,17 C24.552,17 25,17.448 25,18 C25,18.552 24.552,19 24,19 C23.448,19 23,18.552 23,18" id="Fill-799" fill="#0F81E0" sketch:type="MSShapeGroup"></path>
                <path d="M17,18 C17,17.448 17.448,17 18,17 C18.552,17 19,17.448 19,18 C19,18.552 18.552,19 18,19 C17.448,19 17,18.552 17,18" id="Fill-800" fill="#0F81E0" sketch:type="MSShapeGroup"></path>
                <path d="M23,12 C23,11.448 23.448,11 24,11 C24.552,11 25,11.448 25,12 C25,12.552 24.552,13 24,13 C23.448,13 23,12.552 23,12" id="Fill-801" fill="#0F81E0" sketch:type="MSShapeGroup"></path>
                <path d="M17,12 C17,11.448 17.448,11 18,11 C18.552,11 19,11.448 19,12 C19,12.552 18.552,13 18,13 C17.448,13 17,12.552 17,12" id="Fill-802" fill="#0F81E0" sketch:type="MSShapeGroup"></path>
                <path d="M20,15 C20,14.448 20.448,14 21,14 C21.552,14 22,14.448 22,15 C22,15.552 21.552,16 21,16 C20.448,16 20,15.552 20,15" id="Fill-803" fill="#0F81E0" sketch:type="MSShapeGroup"></path>
                <path d="M14,15 C14,14.448 14.448,14 15,14 C15.552,14 16,14.448 16,15 C16,15.552 15.552,16 15,16 C14.448,16 14,15.552 14,15" id="Fill-804" fill="#0F81E0" sketch:type="MSShapeGroup"></path>
                <path d="M20,9 C20,8.448 20.448,8 21,8 C21.552,8 22,8.448 22,9 C22,9.552 21.552,10 21,10 C20.448,10 20,9.552 20,9" id="Fill-805" fill="#0F81E0" sketch:type="MSShapeGroup"></path>
                <path d="M14,9 C14,8.448 14.448,8 15,8 C15.552,8 16,8.448 16,9 C16,9.552 15.552,10 15,10 C14.448,10 14,9.552 14,9" id="Fill-806" fill="#0F81E0" sketch:type="MSShapeGroup"></path>
                <path d="M11,18 C11,17.448 11.448,17 12,17 C12.552,17 13,17.448 13,18 C13,18.552 12.552,19 12,19 C11.448,19 11,18.552 11,18" id="Fill-807" fill="#0F81E0" sketch:type="MSShapeGroup"></path>
                <path d="M5,18 C5,17.448 5.448,17 6,17 C6.552,17 7,17.448 7,18 C7,18.552 6.552,19 6,19 C5.448,19 5,18.552 5,18" id="Fill-808" fill="#0F81E0" sketch:type="MSShapeGroup"></path>
                <path d="M11,12 C11,11.448 11.448,11 12,11 C12.552,11 13,11.448 13,12 C13,12.552 12.552,13 12,13 C11.448,13 11,12.552 11,12" id="Fill-809" fill="#0F81E0" sketch:type="MSShapeGroup"></path>
                <path d="M5,12 C5,11.448 5.448,11 6,11 C6.552,11 7,11.448 7,12 C7,12.552 6.552,13 6,13 C5.448,13 5,12.552 5,12" id="Fill-810" fill="#0F81E0" sketch:type="MSShapeGroup"></path>
                <path d="M8,15 C8,14.448 8.448,14 9,14 C9.552,14 10,14.448 10,15 C10,15.552 9.552,16 9,16 C8.448,16 8,15.552 8,15" id="Fill-811" fill="#0F81E0" sketch:type="MSShapeGroup"></path>
                <path d="M2,15 C2,14.448 2.448,14 3,14 C3.552,14 4,14.448 4,15 C4,15.552 3.552,16 3,16 C2.448,16 2,15.552 2,15" id="Fill-812" fill="#0F81E0" sketch:type="MSShapeGroup"></path>
                <path d="M8,9 C8,8.448 8.448,8 9,8 C9.552,8 10,8.448 10,9 C10,9.552 9.552,10 9,10 C8.448,10 8,9.552 8,9" id="Fill-813" fill="#0F81E0" sketch:type="MSShapeGroup"></path>
                <path d="M2,9 C2,8.448 2.448,8 3,8 C3.552,8 4,8.448 4,9 C4,9.552 3.552,10 3,10 C2.448,10 2,9.552 2,9" id="Fill-814" fill="#0F81E0" sketch:type="MSShapeGroup"></path>
                <path d="M46,18 L46,12" id="Path" stroke="#0F81E0" stroke-width="2" stroke-linecap="round" stroke-linejoin="round" sketch:type="MSShapeGroup"></path>
                <path d="M43,18 L43,12" id="Path" stroke="#0F81E0" stroke-width="2" stroke-linecap="round" stroke-linejoin="round" sketch:type="MSShapeGroup"></path>
                <path d="M40,18 L40,12" id="Path" stroke="#0F81E0" stroke-width="2" stroke-linecap="round" stroke-linejoin="round" sketch:type="MSShapeGroup"></path>
            </g>
        </g>
    </g>
</svg>