<?xml version="1.0" encoding="UTF-8" standalone="no"?>
<svg width="60px" height="32px" viewBox="0 0 60 32" version="1.1" xmlns="http://www.w3.org/2000/svg" xmlns:xlink="http://www.w3.org/1999/xlink" xmlns:sketch="http://www.bohemiancoding.com/sketch/ns">
    <!-- Generator: Sketch 3.2.2 (9983) - http://www.bohemiancoding.com/sketch -->
    <title>328 - OFF Switch (Webby)</title>
    <desc>Created with Sketch.</desc>
    <defs></defs>
    <g id="Page-1" stroke="none" stroke-width="1" fill="none" fill-rule="evenodd" sketch:type="MSPage">
        <g id="Icons" sketch:type="MSArtboardGroup" transform="translate(-360.000000, -971.000000)">
            <g id="328---OFF-Switch-(Webby)" sketch:type="MSLayerGroup" transform="translate(361.000000, 972.000000)">
                <path d="M55.008,30 L2.992,30 C1.34,30 0,28.66 0,27.008 L0,2.992 C0,1.34 1.34,0 2.992,0 L55.008,0 C56.66,0 58,1.34 58,2.992 L58,27.008 C58,28.66 56.66,30 55.008,30 L55.008,30 Z" id="Fill-734" fill="#FFFFFF" sketch:type="MSShapeGroup"></path>
                <path d="M55.008,30 L2.992,30 C1.34,30 0,28.66 0,27.008 L0,2.992 C0,1.34 1.34,0 2.992,0 L55.008,0 C56.66,0 58,1.34 58,2.992 L58,27.008 C58,28.66 56.66,30 55.008,30 L55.008,30 Z" id="Stroke-735" stroke="#0F81E0" stroke-width="2" stroke-linejoin="round" sketch:type="MSShapeGroup"></path>
                <path d="M27.008,30 L2.992,30 C1.34,30 0,28.66 0,27.008 L0,2.992 C0,1.34 1.34,0 2.992,0 L27.008,0 C28.66,0 30,1.34 30,2.992 L30,27.008 C30,28.66 28.66,30 27.008,30 L27.008,30 Z" id="Fill-736" fill="#C6E3F8" sketch:type="MSShapeGroup"></path>
                <path d="M27.008,30 L2.992,30 C1.34,30 0,28.66 0,27.008 L0,2.992 C0,1.34 1.34,0 2.992,0 L27.008,0 C28.66,0 30,1.34 30,2.992 L30,27.008 C30,28.66 28.66,30 27.008,30 L27.008,30 Z" id="Stroke-737" stroke="#0F81E0" stroke-width="2" stroke-linejoin="round" sketch:type="MSShapeGroup"></path>
                <path d="M35,6 C35,6.552 34.552,7 34,7 C33.448,7 33,6.552 33,6 C33,5.448 33.448,5 34,5 C34.552,5 35,5.448 35,6" id="Fill-738" fill="#0F81E0" sketch:type="MSShapeGroup"></path>
                <path d="M41,6 C41,6.552 40.552,7 40,7 C39.448,7 39,6.552 39,6 C39,5.448 39.448,5 40,5 C40.552,5 41,5.448 41,6" id="Fill-739" fill="#0F81E0" sketch:type="MSShapeGroup"></path>
                <path d="M38,3 C38,3.552 37.552,4 37,4 C36.448,4 36,3.552 36,3 C36,2.448 36.448,2 37,2 C37.552,2 38,2.448 38,3" id="Fill-740" fill="#0F81E0" sketch:type="MSShapeGroup"></path>
                <path d="M44,3 C44,3.552 43.552,4 43,4 C42.448,4 42,3.552 42,3 C42,2.448 42.448,2 43,2 C43.552,2 44,2.448 44,3" id="Fill-741" fill="#0F81E0" sketch:type="MSShapeGroup"></path>
                <path d="M38,9 C38,9.552 37.552,10 37,10 C36.448,10 36,9.552 36,9 C36,8.448 36.448,8 37,8 C37.552,8 38,8.448 38,9" id="Fill-742" fill="#0F81E0" sketch:type="MSShapeGroup"></path>
                <path d="M44,9 C44,9.552 43.552,10 43,10 C42.448,10 42,9.552 42,9 C42,8.448 42.448,8 43,8 C43.552,8 44,8.448 44,9" id="Fill-743" fill="#0F81E0" sketch:type="MSShapeGroup"></path>
                <path d="M47,6 C47,6.552 46.552,7 46,7 C45.448,7 45,6.552 45,6 C45,5.448 45.448,5 46,5 C46.552,5 47,5.448 47,6" id="Fill-744" fill="#0F81E0" sketch:type="MSShapeGroup"></path>
                <path d="M53,6 C53,6.552 52.552,7 52,7 C51.448,7 51,6.552 51,6 C51,5.448 51.448,5 52,5 C52.552,5 53,5.448 53,6" id="Fill-745" fill="#0F81E0" sketch:type="MSShapeGroup"></path>
                <path d="M50,3 C50,3.552 49.552,4 49,4 C48.448,4 48,3.552 48,3 C48,2.448 48.448,2 49,2 C49.552,2 50,2.448 50,3" id="Fill-746" fill="#0F81E0" sketch:type="MSShapeGroup"></path>
                <path d="M56,3 C56,3.552 55.552,4 55,4 C54.448,4 54,3.552 54,3 C54,2.448 54.448,2 55,2 C55.552,2 56,2.448 56,3" id="Fill-747" fill="#0F81E0" sketch:type="MSShapeGroup"></path>
                <path d="M50,9 C50,9.552 49.552,10 49,10 C48.448,10 48,9.552 48,9 C48,8.448 48.448,8 49,8 C49.552,8 50,8.448 50,9" id="Fill-748" fill="#0F81E0" sketch:type="MSShapeGroup"></path>
                <path d="M56,9 C56,9.552 55.552,10 55,10 C54.448,10 54,9.552 54,9 C54,8.448 54.448,8 55,8 C55.552,8 56,8.448 56,9" id="Fill-749" fill="#0F81E0" sketch:type="MSShapeGroup"></path>
                <path d="M35,24 C35,24.552 34.552,25 34,25 C33.448,25 33,24.552 33,24 C33,23.448 33.448,23 34,23 C34.552,23 35,23.448 35,24" id="Fill-750" fill="#0F81E0" sketch:type="MSShapeGroup"></path>
                <path d="M38,27 C38,27.552 37.552,28 37,28 C36.448,28 36,27.552 36,27 C36,26.448 36.448,26 37,26 C37.552,26 38,26.448 38,27" id="Fill-751" fill="#0F81E0" sketch:type="MSShapeGroup"></path>
                <path d="M41,24 C41,24.552 40.552,25 40,25 C39.448,25 39,24.552 39,24 C39,23.448 39.448,23 40,23 C40.552,23 41,23.448 41,24" id="Fill-752" fill="#0F81E0" sketch:type="MSShapeGroup"></path>
                <path d="M47,24 C47,24.552 46.552,25 46,25 C45.448,25 45,24.552 45,24 C45,23.448 45.448,23 46,23 C46.552,23 47,23.448 47,24" id="Fill-753" fill="#0F81E0" sketch:type="MSShapeGroup"></path>
                <path d="M44,27 C44,27.552 43.552,28 43,28 C42.448,28 42,27.552 42,27 C42,26.448 42.448,26 43,26 C43.552,26 44,26.448 44,27" id="Fill-754" fill="#0F81E0" sketch:type="MSShapeGroup"></path>
                <path d="M50,27 C50,27.552 49.552,28 49,28 C48.448,28 48,27.552 48,27 C48,26.448 48.448,26 49,26 C49.552,26 50,26.448 50,27" id="Fill-755" fill="#0F81E0" sketch:type="MSShapeGroup"></path>
                <path d="M53,24 C53,24.552 52.552,25 52,25 C51.448,25 51,24.552 51,24 C51,23.448 51.448,23 52,23 C52.552,23 53,23.448 53,24" id="Fill-756" fill="#0F81E0" sketch:type="MSShapeGroup"></path>
                <path d="M56,27 C56,27.552 55.552,28 55,28 C54.448,28 54,27.552 54,27 C54,26.448 54.448,26 55,26 C55.552,26 56,26.448 56,27" id="Fill-757" fill="#0F81E0" sketch:type="MSShapeGroup"></path>
                <path d="M35,12 C35,12.552 34.552,13 34,13 C33.448,13 33,12.552 33,12 C33,11.448 33.448,11 34,11 C34.552,11 35,11.448 35,12" id="Fill-758" fill="#0F81E0" sketch:type="MSShapeGroup"></path>
                <path d="M41,12 C41,12.552 40.552,13 40,13 C39.448,13 39,12.552 39,12 C39,11.448 39.448,11 40,11 C40.552,11 41,11.448 41,12" id="Fill-759" fill="#0F81E0" sketch:type="MSShapeGroup"></path>
                <path d="M35,18 C35,18.552 34.552,19 34,19 C33.448,19 33,18.552 33,18 C33,17.448 33.448,17 34,17 C34.552,17 35,17.448 35,18" id="Fill-760" fill="#0F81E0" sketch:type="MSShapeGroup"></path>
                <path d="M41,18 C41,18.552 40.552,19 40,19 C39.448,19 39,18.552 39,18 C39,17.448 39.448,17 40,17 C40.552,17 41,17.448 41,18" id="Fill-761" fill="#0F81E0" sketch:type="MSShapeGroup"></path>
                <path d="M38,15 C38,15.552 37.552,16 37,16 C36.448,16 36,15.552 36,15 C36,14.448 36.448,14 37,14 C37.552,14 38,14.448 38,15" id="Fill-762" fill="#0F81E0" sketch:type="MSShapeGroup"></path>
                <path d="M44,15 C44,15.552 43.552,16 43,16 C42.448,16 42,15.552 42,15 C42,14.448 42.448,14 43,14 C43.552,14 44,14.448 44,15" id="Fill-763" fill="#0F81E0" sketch:type="MSShapeGroup"></path>
                <path d="M38,21 C38,21.552 37.552,22 37,22 C36.448,22 36,21.552 36,21 C36,20.448 36.448,20 37,20 C37.552,20 38,20.448 38,21" id="Fill-764" fill="#0F81E0" sketch:type="MSShapeGroup"></path>
                <path d="M44,21 C44,21.552 43.552,22 43,22 C42.448,22 42,21.552 42,21 C42,20.448 42.448,20 43,20 C43.552,20 44,20.448 44,21" id="Fill-765" fill="#0F81E0" sketch:type="MSShapeGroup"></path>
                <path d="M47,12 C47,12.552 46.552,13 46,13 C45.448,13 45,12.552 45,12 C45,11.448 45.448,11 46,11 C46.552,11 47,11.448 47,12" id="Fill-766" fill="#0F81E0" sketch:type="MSShapeGroup"></path>
                <path d="M53,12 C53,12.552 52.552,13 52,13 C51.448,13 51,12.552 51,12 C51,11.448 51.448,11 52,11 C52.552,11 53,11.448 53,12" id="Fill-767" fill="#0F81E0" sketch:type="MSShapeGroup"></path>
                <path d="M47,18 C47,18.552 46.552,19 46,19 C45.448,19 45,18.552 45,18 C45,17.448 45.448,17 46,17 C46.552,17 47,17.448 47,18" id="Fill-768" fill="#0F81E0" sketch:type="MSShapeGroup"></path>
                <path d="M53,18 C53,18.552 52.552,19 52,19 C51.448,19 51,18.552 51,18 C51,17.448 51.448,17 52,17 C52.552,17 53,17.448 53,18" id="Fill-769" fill="#0F81E0" sketch:type="MSShapeGroup"></path>
                <path d="M50,15 C50,15.552 49.552,16 49,16 C48.448,16 48,15.552 48,15 C48,14.448 48.448,14 49,14 C49.552,14 50,14.448 50,15" id="Fill-770" fill="#0F81E0" sketch:type="MSShapeGroup"></path>
                <path d="M56,15 C56,15.552 55.552,16 55,16 C54.448,16 54,15.552 54,15 C54,14.448 54.448,14 55,14 C55.552,14 56,14.448 56,15" id="Fill-771" fill="#0F81E0" sketch:type="MSShapeGroup"></path>
                <path d="M50,21 C50,21.552 49.552,22 49,22 C48.448,22 48,21.552 48,21 C48,20.448 48.448,20 49,20 C49.552,20 50,20.448 50,21" id="Fill-772" fill="#0F81E0" sketch:type="MSShapeGroup"></path>
                <path d="M56,21 C56,21.552 55.552,22 55,22 C54.448,22 54,21.552 54,21 C54,20.448 54.448,20 55,20 C55.552,20 56,20.448 56,21" id="Fill-773" fill="#0F81E0" sketch:type="MSShapeGroup"></path>
                <path d="M12,12 L12,18 M15,12 L15,18 M18,12 L18,18" id="Stroke-774" stroke="#0F81E0" stroke-width="2" stroke-linecap="round" stroke-linejoin="round" sketch:type="MSShapeGroup"></path>
            </g>
        </g>
    </g>
</svg>