<?xml version="1.0" encoding="UTF-8" standalone="no"?>
<svg width="60px" height="28px" viewBox="0 0 60 28" version="1.1" xmlns="http://www.w3.org/2000/svg" xmlns:xlink="http://www.w3.org/1999/xlink" xmlns:sketch="http://www.bohemiancoding.com/sketch/ns">
    <!-- Generator: Sketch 3.2.2 (9983) - http://www.bohemiancoding.com/sketch -->
    <title>330 - OFF Switch (Webby)</title>
    <desc>Created with Sketch.</desc>
    <defs></defs>
    <g id="Page-1" stroke="none" stroke-width="1" fill="none" fill-rule="evenodd" sketch:type="MSPage">
        <g id="Icons" sketch:type="MSArtboardGroup" transform="translate(-120.000000, -973.000000)">
            <g id="330---OFF-Switch-(Webby)" sketch:type="MSLayerGroup" transform="translate(121.000000, 974.000000)">
                <path d="M26,13 C26,20.18 20.18,26 13,26 C5.82,26 0,20.18 0,13 C0,5.82 5.82,0 13,0 C20.18,0 26,5.82 26,13 L26,13 Z" id="Fill-698" fill="#C6E3F8" sketch:type="MSShapeGroup"></path>
                <path d="M26,13 C26,20.18 20.18,26 13,26 C5.82,26 0,20.18 0,13 C0,5.82 5.82,0 13,0 C20.18,0 26,5.82 26,13 L26,13 Z" id="Stroke-699" stroke="#0F81E0" stroke-width="2" stroke-linecap="round" stroke-linejoin="round" sketch:type="MSShapeGroup"></path>
                <path d="M52,7 L24.526,7 C25.463,8.796 26,10.834 26,13 C26,15.166 25.463,17.204 24.526,19 L52,19 C55.314,19 58,16.314 58,13 C58,9.686 55.314,7 52,7 L52,7 Z" id="Fill-700" fill="#FFFFFF" sketch:type="MSShapeGroup"></path>
                <path d="M52,7 L24.526,7 C25.463,8.796 26,10.834 26,13 C26,15.166 25.463,17.204 24.526,19 L52,19 C55.314,19 58,16.314 58,13 C58,9.686 55.314,7 52,7 L52,7 Z" id="Stroke-701" stroke="#0F81E0" stroke-width="2" stroke-linecap="round" stroke-linejoin="round" sketch:type="MSShapeGroup"></path>
                <path d="M34,13 C34,13.552 33.552,14 33,14 C32.448,14 32,13.552 32,13 C32,12.448 32.448,12 33,12 C33.552,12 34,12.448 34,13" id="Fill-702" fill="#0F81E0" sketch:type="MSShapeGroup"></path>
                <path d="M31,10 C31,10.552 30.552,11 30,11 C29.448,11 29,10.552 29,10 C29,9.448 29.448,9 30,9 C30.552,9 31,9.448 31,10" id="Fill-703" fill="#0F81E0" sketch:type="MSShapeGroup"></path>
                <path d="M37,10 C37,10.552 36.552,11 36,11 C35.448,11 35,10.552 35,10 C35,9.448 35.448,9 36,9 C36.552,9 37,9.448 37,10" id="Fill-704" fill="#0F81E0" sketch:type="MSShapeGroup"></path>
                <path d="M31,16 C31,16.552 30.552,17 30,17 C29.448,17 29,16.552 29,16 C29,15.448 29.448,15 30,15 C30.552,15 31,15.448 31,16" id="Fill-705" fill="#0F81E0" sketch:type="MSShapeGroup"></path>
                <path d="M37,16 C37,16.552 36.552,17 36,17 C35.448,17 35,16.552 35,16 C35,15.448 35.448,15 36,15 C36.552,15 37,15.448 37,16" id="Fill-706" fill="#0F81E0" sketch:type="MSShapeGroup"></path>
                <path d="M40,13 C40,13.552 39.552,14 39,14 C38.448,14 38,13.552 38,13 C38,12.448 38.448,12 39,12 C39.552,12 40,12.448 40,13" id="Fill-707" fill="#0F81E0" sketch:type="MSShapeGroup"></path>
                <path d="M46,13 C46,13.552 45.552,14 45,14 C44.448,14 44,13.552 44,13 C44,12.448 44.448,12 45,12 C45.552,12 46,12.448 46,13" id="Fill-708" fill="#0F81E0" sketch:type="MSShapeGroup"></path>
                <path d="M43,10 C43,10.552 42.552,11 42,11 C41.448,11 41,10.552 41,10 C41,9.448 41.448,9 42,9 C42.552,9 43,9.448 43,10" id="Fill-709" fill="#0F81E0" sketch:type="MSShapeGroup"></path>
                <path d="M49,10 C49,10.552 48.552,11 48,11 C47.448,11 47,10.552 47,10 C47,9.448 47.448,9 48,9 C48.552,9 49,9.448 49,10" id="Fill-710" fill="#0F81E0" sketch:type="MSShapeGroup"></path>
                <path d="M43,16 C43,16.552 42.552,17 42,17 C41.448,17 41,16.552 41,16 C41,15.448 41.448,15 42,15 C42.552,15 43,15.448 43,16" id="Fill-711" fill="#0F81E0" sketch:type="MSShapeGroup"></path>
                <path d="M49,16 C49,16.552 48.552,17 48,17 C47.448,17 47,16.552 47,16 C47,15.448 47.448,15 48,15 C48.552,15 49,15.448 49,16" id="Fill-712" fill="#0F81E0" sketch:type="MSShapeGroup"></path>
                <path d="M52,13 C52,13.552 51.552,14 51,14 C50.448,14 50,13.552 50,13 C50,12.448 50.448,12 51,12 C51.552,12 52,12.448 52,13" id="Fill-713" fill="#0F81E0" sketch:type="MSShapeGroup"></path>
                <path d="M55,10 C55,10.552 54.552,11 54,11 C53.448,11 53,10.552 53,10 C53,9.448 53.448,9 54,9 C54.552,9 55,9.448 55,10" id="Fill-714" fill="#0F81E0" sketch:type="MSShapeGroup"></path>
                <path d="M55,16 C55,16.552 54.552,17 54,17 C53.448,17 53,16.552 53,16 C53,15.448 53.448,15 54,15 C54.552,15 55,15.448 55,16" id="Fill-715" fill="#0F81E0" sketch:type="MSShapeGroup"></path>
            </g>
        </g>
    </g>
</svg>