<?xml version="1.0" encoding="UTF-8" standalone="no"?>
<svg width="55px" height="54px" viewBox="0 0 55 54" version="1.1" xmlns="http://www.w3.org/2000/svg" xmlns:xlink="http://www.w3.org/1999/xlink" xmlns:sketch="http://www.bohemiancoding.com/sketch/ns">
    <!-- Generator: Sketch 3.2.2 (9983) - http://www.bohemiancoding.com/sketch -->
    <title>331 - Exit Window (Webby)</title>
    <desc>Created with Sketch.</desc>
    <defs></defs>
    <g id="Page-1" stroke="none" stroke-width="1" fill="none" fill-rule="evenodd" sketch:type="MSPage">
        <g id="Icons" sketch:type="MSArtboardGroup" transform="translate(-1203.000000, -839.000000)">
            <g id="331---Exit-Window-(Webby)" sketch:type="MSLayerGroup" transform="translate(1204.000000, 840.000000)">
                <path d="M7,8 L53,8 L53,52 L7,52 L7,8 Z" id="Fill-369" fill="#C6E3F8" sketch:type="MSShapeGroup"></path>
                <path d="M7,8 L53,8 L53,52 L7,52 L7,8 Z" id="Stroke-370" stroke="#0F81E0" stroke-width="2" stroke-linejoin="round" sketch:type="MSShapeGroup"></path>
                <path d="M7,8 L47,8 L47,0 L0,0 L0,45 L7,45 L7,8 L7,8 Z" id="Fill-371" fill="#FFFFFF" sketch:type="MSShapeGroup"></path>
                <path d="M7,8 L47,8 L47,0 L0,0 L0,45 L7,45 L7,8 L7,8 Z" id="Stroke-372" stroke="#0F81E0" stroke-width="2" stroke-linejoin="round" sketch:type="MSShapeGroup"></path>
                <path d="M37.778,22.222 L22.222,37.778 M37.778,37.778 L22.222,22.222" id="Stroke-373" stroke="#0F81E0" stroke-width="2" stroke-linecap="round" stroke-linejoin="round" sketch:type="MSShapeGroup"></path>
            </g>
        </g>
    </g>
</svg>