<?xml version="1.0" encoding="UTF-8" standalone="no"?>
<svg width="55px" height="55px" viewBox="0 0 55 55" version="1.1" xmlns="http://www.w3.org/2000/svg" xmlns:xlink="http://www.w3.org/1999/xlink" xmlns:sketch="http://www.bohemiancoding.com/sketch/ns">
    <!-- Generator: Sketch 3.2.2 (9983) - http://www.bohemiancoding.com/sketch -->
    <title>333 - Exit (Webby)</title>
    <desc>Created with Sketch.</desc>
    <defs></defs>
    <g id="Page-1" stroke="none" stroke-width="1" fill="none" fill-rule="evenodd" sketch:type="MSPage">
        <g id="Icons" sketch:type="MSArtboardGroup" transform="translate(-963.000000, -841.000000)">
            <g id="333---Exit-(Webby)" sketch:type="MSLayerGroup" transform="translate(964.000000, 842.000000)">
                <path d="M41,35 L53,23 M41,11 L53,23 L34,23" id="Stroke-686" stroke="#0F81E0" stroke-width="2" stroke-linecap="round" stroke-linejoin="round" sketch:type="MSShapeGroup"></path>
                <path d="M22,46 L34,46 L34,0 L0,0 L0,46" id="Fill-687" fill="#FFFFFF" sketch:type="MSShapeGroup"></path>
                <path d="M22,46 L34,46 L34,0 L0,0 L0,46" id="Stroke-688" stroke="#0F81E0" stroke-width="2" stroke-linecap="round" stroke-linejoin="round" sketch:type="MSShapeGroup"></path>
                <path d="M22,7 L0,0 L0,46 L22,53 L22,7 L22,7 Z" id="Fill-689" fill="#C6E3F8" sketch:type="MSShapeGroup"></path>
                <path d="M22,7 L0,0 L0,46 L22,53 L22,7 L22,7 Z" id="Stroke-690" stroke="#0F81E0" stroke-width="2" stroke-linecap="round" stroke-linejoin="round" sketch:type="MSShapeGroup"></path>
                <path d="M14,29 L19,31" id="Stroke-691" stroke="#0F81E0" stroke-width="2" stroke-linecap="round" stroke-linejoin="round" sketch:type="MSShapeGroup"></path>
            </g>
        </g>
    </g>
</svg>