<?xml version="1.0" encoding="UTF-8" standalone="no"?>
<svg width="36px" height="57px" viewBox="0 0 36 57" version="1.1" xmlns="http://www.w3.org/2000/svg" xmlns:xlink="http://www.w3.org/1999/xlink" xmlns:sketch="http://www.bohemiancoding.com/sketch/ns">
    <!-- Generator: Sketch 3.2.2 (9983) - http://www.bohemiancoding.com/sketch -->
    <title>338 - Bluetooth (Webby)</title>
    <desc>Created with Sketch.</desc>
    <defs></defs>
    <g id="Page-1" stroke="none" stroke-width="1" fill="none" fill-rule="evenodd" sketch:type="MSPage">
        <g id="Icons" sketch:type="MSArtboardGroup" transform="translate(-372.000000, -839.000000)">
            <g id="338---Bluetooth-(Webby)" sketch:type="MSLayerGroup" transform="translate(373.000000, 840.000000)">
                <path d="M17,55 L17,55 C7.611,55 0,47.389 0,38 L0,17 C0,7.611 7.611,0 17,0 C26.389,0 34,7.611 34,17 L34,38 C34,47.389 26.389,55 17,55 L17,55 Z" id="Fill-666" fill="#FFFFFF" sketch:type="MSShapeGroup"></path>
                <path d="M17,55 L17,55 C7.611,55 0,47.389 0,38 L0,17 C0,7.611 7.611,0 17,0 C26.389,0 34,7.611 34,17 L34,38 C34,47.389 26.389,55 17,55 L17,55 Z" id="Stroke-667" stroke="#0F81E0" stroke-width="2" stroke-linejoin="round" sketch:type="MSShapeGroup"></path>
                <path d="M17.035,27 L17,18 L17,10 L25,18 L17.035,27 L17.035,27 Z" id="Fill-841" fill="#FFFFFF" sketch:type="MSShapeGroup"></path>
                <path d="M17.035,27 L17,18 L17,10 L25,18 L17.035,27 L17.035,27 Z" id="Stroke-842" stroke="#0F81E0" stroke-width="2" stroke-linejoin="round" sketch:type="MSShapeGroup"></path>
                <path d="M17,45 L17,36 L17.035,27.606 L25,36 L17,45 L17,45 Z" id="Fill-843" fill="#FFFFFF" sketch:type="MSShapeGroup"></path>
                <path d="M17,45 L17,36 L17.035,27.606 L25,36 L17,45 L17,45 Z" id="Stroke-844" stroke="#0F81E0" stroke-width="2" stroke-linejoin="round" sketch:type="MSShapeGroup"></path>
                <path d="M7.073,18.013 L17.035,27.013 M17.073,27.013 L7,36.013" id="Stroke-845" stroke="#0F81E0" stroke-width="2" stroke-linejoin="round" sketch:type="MSShapeGroup"></path>
            </g>
        </g>
    </g>
</svg>