<?xml version="1.0" encoding="UTF-8" standalone="no"?>
<svg width="60px" height="16px" viewBox="0 0 60 16" version="1.1" xmlns="http://www.w3.org/2000/svg" xmlns:xlink="http://www.w3.org/1999/xlink" xmlns:sketch="http://www.bohemiancoding.com/sketch/ns">
    <!-- Generator: Sketch 3.2.2 (9983) - http://www.bohemiancoding.com/sketch -->
    <title>340 - More (Webby)</title>
    <desc>Created with Sketch.</desc>
    <defs></defs>
    <g id="Page-1" stroke="none" stroke-width="1" fill="none" fill-rule="evenodd" sketch:type="MSPage">
        <g id="Icons" sketch:type="MSArtboardGroup" transform="translate(-120.000000, -859.000000)">
            <g id="340---More-(Webby)" sketch:type="MSLayerGroup" transform="translate(121.000000, 860.000000)">
                <path d="M14,7 C14,10.866 10.866,14 7,14 C3.134,14 0,10.866 0,7 C0,3.134 3.134,0 7,0 C10.866,0 14,3.134 14,7 L14,7 Z" id="Fill-541" fill="#C6E3F8" sketch:type="MSShapeGroup"></path>
                <path d="M14,7 C14,10.866 10.866,14 7,14 C3.134,14 0,10.866 0,7 C0,3.134 3.134,0 7,0 C10.866,0 14,3.134 14,7 L14,7 Z" id="Stroke-542" stroke="#0F81E0" stroke-width="2" stroke-linecap="round" stroke-linejoin="round" sketch:type="MSShapeGroup"></path>
                <path d="M58,7 C58,10.866 54.866,14 51,14 C47.134,14 44,10.866 44,7 C44,3.134 47.134,0 51,0 C54.866,0 58,3.134 58,7 L58,7 Z" id="Fill-543" fill="#C6E3F8" sketch:type="MSShapeGroup"></path>
                <path d="M58,7 C58,10.866 54.866,14 51,14 C47.134,14 44,10.866 44,7 C44,3.134 47.134,0 51,0 C54.866,0 58,3.134 58,7 L58,7 Z" id="Stroke-544" stroke="#0F81E0" stroke-width="2" stroke-linecap="round" stroke-linejoin="round" sketch:type="MSShapeGroup"></path>
                <path d="M36,7 C36,10.866 32.866,14 29,14 C25.134,14 22,10.866 22,7 C22,3.134 25.134,0 29,0 C32.866,0 36,3.134 36,7 L36,7 Z" id="Fill-545" fill="#C6E3F8" sketch:type="MSShapeGroup"></path>
                <path d="M36,7 C36,10.866 32.866,14 29,14 C25.134,14 22,10.866 22,7 C22,3.134 25.134,0 29,0 C32.866,0 36,3.134 36,7 L36,7 Z" id="Stroke-546" stroke="#0F81E0" stroke-width="2" stroke-linecap="round" stroke-linejoin="round" sketch:type="MSShapeGroup"></path>
            </g>
        </g>
    </g>
</svg>