<?xml version="1.0" encoding="UTF-8" standalone="no"?>
<svg width="48px" height="59px" viewBox="0 0 48 59" version="1.1" xmlns="http://www.w3.org/2000/svg" xmlns:xlink="http://www.w3.org/1999/xlink" xmlns:sketch="http://www.bohemiancoding.com/sketch/ns">
    <!-- Generator: Sketch 3.2.2 (9983) - http://www.bohemiancoding.com/sketch -->
    <title>347 - Trash Bin (Webby)</title>
    <desc>Created with Sketch.</desc>
    <defs></defs>
    <g id="Page-1" stroke="none" stroke-width="1" fill="none" fill-rule="evenodd" sketch:type="MSPage">
        <g id="Icons" sketch:type="MSArtboardGroup" transform="translate(-486.000000, -717.000000)">
            <g id="347---Trash-Bin-(Webby)" sketch:type="MSLayerGroup" transform="translate(487.000000, 718.000000)">
                <path d="M30.999,6 C30.999,6 31.155,0 26.999,0 L21.939,0 L22.061,0 L17,0 C12.844,0 13,6 13,6" id="Stroke-399" stroke="#0F81E0" stroke-width="2" stroke-linejoin="round" sketch:type="MSShapeGroup"></path>
                <path d="M0,6 L46,6" id="Stroke-400" stroke="#0F81E0" stroke-width="2" stroke-linecap="round" stroke-linejoin="round" sketch:type="MSShapeGroup"></path>
                <path d="M3.166,10 L4.956,53 C4.956,53 5.04,57 8.864,57 L37.136,57 C40.96,57 41.044,53 41.044,53 L42.833,10 L3.166,10 L3.166,10 Z" id="Fill-499" fill="#C6E3F8" sketch:type="MSShapeGroup"></path>
                <path d="M3.166,10 L4.956,53 C4.956,53 5.04,57 8.864,57 L37.136,57 C40.96,57 41.044,53 41.044,53 L42.833,10 L3.166,10 L3.166,10 Z" id="Stroke-500" stroke="#0F81E0" stroke-width="2" stroke-linejoin="round" sketch:type="MSShapeGroup"></path>
                <path d="M11,52 L35,52 M11,47 L35,47 M11,42 L35,42" id="Stroke-501" stroke="#0F81E0" stroke-width="2" stroke-linecap="round" stroke-linejoin="round" sketch:type="MSShapeGroup"></path>
            </g>
        </g>
    </g>
</svg>