<?xml version="1.0" encoding="UTF-8" standalone="no"?>
<svg width="48px" height="59px" viewBox="0 0 48 59" version="1.1" xmlns="http://www.w3.org/2000/svg" xmlns:xlink="http://www.w3.org/1999/xlink" xmlns:sketch="http://www.bohemiancoding.com/sketch/ns">
    <!-- Generator: Sketch 3.2.2 (9983) - http://www.bohemiancoding.com/sketch -->
    <title>348 - Trash Bin (Webby)</title>
    <desc>Created with Sketch.</desc>
    <defs></defs>
    <g id="Page-1" stroke="none" stroke-width="1" fill="none" fill-rule="evenodd" sketch:type="MSPage">
        <g id="Icons" sketch:type="MSArtboardGroup" transform="translate(-365.000000, -717.000000)">
            <g id="348---Trash-Bin-(Webby)" sketch:type="MSLayerGroup" transform="translate(366.000000, 718.000000)">
                <path d="M43,6 L41.044,53 C41.044,53 40.96,57 37.136,57 L8.864,57 C5.04,57 4.956,53 4.956,53 L3,6" id="Fill-395" fill="#FFFFFF" sketch:type="MSShapeGroup"></path>
                <path d="M43,6 L41.044,53 C41.044,53 40.96,57 37.136,57 L8.864,57 C5.04,57 4.956,53 4.956,53 L3,6" id="Stroke-396" stroke="#0F81E0" stroke-width="2" stroke-linejoin="round" sketch:type="MSShapeGroup"></path>
                <path d="M30.999,6 C30.999,6 31.155,0 26.999,0 L21.939,0 L22.061,0 L17,0 C12.844,0 13,6 13,6" id="Stroke-397" stroke="#0F81E0" stroke-width="2" stroke-linejoin="round" sketch:type="MSShapeGroup"></path>
                <path d="M23,16 L23,49 M13,16 L13,49 M33,16 L33,49 M0,6 L46,6" id="Stroke-398" stroke="#0F81E0" stroke-width="2" stroke-linecap="round" stroke-linejoin="round" sketch:type="MSShapeGroup"></path>
            </g>
        </g>
    </g>
</svg>