<?xml version="1.0" encoding="UTF-8" standalone="no"?>
<svg width="59px" height="59px" viewBox="0 0 59 59" version="1.1" xmlns="http://www.w3.org/2000/svg" xmlns:xlink="http://www.w3.org/1999/xlink" xmlns:sketch="http://www.bohemiancoding.com/sketch/ns">
    <!-- Generator: Sketch 3.2.2 (9983) - http://www.bohemiancoding.com/sketch -->
    <title>35 - Blueprint (Webby)</title>
    <desc>Created with Sketch.</desc>
    <defs></defs>
    <g id="Page-1" stroke="none" stroke-width="1" fill="none" fill-rule="evenodd" sketch:type="MSPage">
        <g id="Icons" sketch:type="MSArtboardGroup" transform="translate(-720.000000, -4438.000000)">
            <g id="35---Blueprint-(Webby)" sketch:type="MSLayerGroup" transform="translate(721.000000, 4439.000000)">
                <path d="M6,0 C2.686,0 0,2.687 0,6 L0,51 C0,47.687 2.686,45 6,45 C9.314,45 12,47.687 12,51 L12,6 C12,2.687 9.314,0 6,0 L6,0 Z" id="Fill-154" fill="#C6E3F8" sketch:type="MSShapeGroup"></path>
                <path d="M6,0 C2.686,0 0,2.687 0,6 L0,51 C0,47.687 2.686,45 6,45 C9.314,45 12,47.687 12,51 L12,6 C12,2.687 9.314,0 6,0 L6,0 Z" id="Stroke-155" stroke="#0F81E0" stroke-width="2" stroke-linejoin="round" sketch:type="MSShapeGroup"></path>
                <path d="M12,7 L12,51 C12,47.687 9.314,45 6,45 C2.686,45 0,47.687 0,51 L0,51.059 C0,54.34 2.66,57 5.94,57 L57,57 L57,7 L12,7 L12,7 Z" id="Fill-156" fill="#FFFFFF" sketch:type="MSShapeGroup"></path>
                <path d="M12,7 L12,51 C12,47.687 9.314,45 6,45 C2.686,45 0,47.687 0,51 L0,51.059 C0,54.34 2.66,57 5.94,57 L57,57 L57,7 L12,7 L12,7 Z" id="Stroke-157" stroke="#0F81E0" stroke-width="2" stroke-linejoin="round" sketch:type="MSShapeGroup"></path>
                <path d="M51,40 L17,40 L17,23 L34,11 L51,23 L51,40 L51,40 Z" id="Stroke-184" stroke="#0F81E0" stroke-width="2" stroke-linecap="round" stroke-linejoin="round" stroke-dasharray="3" sketch:type="MSShapeGroup"></path>
                <path d="M41,46 L52,46 L52,52 L41,52 L41,46 Z" id="Fill-185" fill="#C6E3F8" sketch:type="MSShapeGroup"></path>
                <path d="M41,46 L52,46 L52,52 L41,52 L41,46 Z" id="Stroke-186" stroke="#0F81E0" stroke-width="2" stroke-linecap="round" stroke-linejoin="round" sketch:type="MSShapeGroup"></path>
                <path d="M22,27 L30,27 L30,35 L22,35 L22,27 Z" id="Path" stroke="#0F81E0" stroke-width="2" stroke-linecap="round" stroke-linejoin="round" stroke-dasharray="3" sketch:type="MSShapeGroup"></path>
                <path d="M38,27 L46,27 L46,35 L38,35 L38,27 Z" id="Path" stroke="#0F81E0" stroke-width="2" stroke-linecap="round" stroke-linejoin="round" stroke-dasharray="3" sketch:type="MSShapeGroup"></path>
                <path d="M37,46 L32,46 L37,46 Z" id="Path" stroke="#0F81E0" stroke-width="2" stroke-linecap="round" stroke-linejoin="round" sketch:type="MSShapeGroup"></path>
                <path d="M37,49 L30,49 L37,49 Z" id="Path" stroke="#0F81E0" stroke-width="2" stroke-linecap="round" stroke-linejoin="round" sketch:type="MSShapeGroup"></path>
                <path d="M37,52 L27,52 L37,52 Z" id="Path" stroke="#0F81E0" stroke-width="2" stroke-linecap="round" stroke-linejoin="round" sketch:type="MSShapeGroup"></path>
            </g>
        </g>
    </g>
</svg>