<?xml version="1.0" encoding="UTF-8" standalone="no"?>
<svg width="56px" height="51px" viewBox="0 0 56 51" version="1.1" xmlns="http://www.w3.org/2000/svg" xmlns:xlink="http://www.w3.org/1999/xlink" xmlns:sketch="http://www.bohemiancoding.com/sketch/ns">
    <!-- Generator: Sketch 3.2.2 (9983) - http://www.bohemiancoding.com/sketch -->
    <title>355 - Select Tabs (Webby)</title>
    <desc>Created with Sketch.</desc>
    <defs></defs>
    <g id="Page-1" stroke="none" stroke-width="1" fill="none" fill-rule="evenodd" sketch:type="MSPage">
        <g id="Icons" sketch:type="MSArtboardGroup" transform="translate(-722.000000, -600.000000)">
            <g id="355---Select-Tabs-(Webby)" sketch:type="MSLayerGroup" transform="translate(723.000000, 601.000000)">
                <path d="M0,49 L54,49 L54,12 L0,12 L0,49 Z" id="Fill-89" fill="#FFFFFF" sketch:type="MSShapeGroup"></path>
                <path d="M0,49 L54,49 L54,12 L0,12 L0,49 Z" id="Stroke-90" stroke="#0F81E0" stroke-width="2" stroke-linecap="round" stroke-linejoin="round" sketch:type="MSShapeGroup"></path>
                <path d="M2,8 L52,8 M5,4 L49,4 M8,0 L46,0" id="Stroke-91" stroke="#0F81E0" stroke-width="2" stroke-linecap="round" stroke-linejoin="round" sketch:type="MSShapeGroup"></path>
                <path d="M46,15 C46,15.552 45.552,16 45,16 C44.448,16 44,15.552 44,15 C44,14.448 44.448,14 45,14 C45.552,14 46,14.448 46,15" id="Fill-262" fill="#0F81E0" sketch:type="MSShapeGroup"></path>
                <path d="M46,21 C46,21.552 45.552,22 45,22 C44.448,22 44,21.552 44,21 C44,20.448 44.448,20 45,20 C45.552,20 46,20.448 46,21" id="Fill-263" fill="#0F81E0" sketch:type="MSShapeGroup"></path>
                <path d="M49,18 C49,18.552 48.552,19 48,19 C47.448,19 47,18.552 47,18 C47,17.448 47.448,17 48,17 C48.552,17 49,17.448 49,18" id="Fill-264" fill="#0F81E0" sketch:type="MSShapeGroup"></path>
                <path d="M49,24 C49,24.552 48.552,25 48,25 C47.448,25 47,24.552 47,24 C47,23.448 47.448,23 48,23 C48.552,23 49,23.448 49,24" id="Fill-265" fill="#0F81E0" sketch:type="MSShapeGroup"></path>
                <path d="M52,15 C52,15.552 51.552,16 51,16 C50.448,16 50,15.552 50,15 C50,14.448 50.448,14 51,14 C51.552,14 52,14.448 52,15" id="Fill-266" fill="#0F81E0" sketch:type="MSShapeGroup"></path>
                <path d="M52,21 C52,21.552 51.552,22 51,22 C50.448,22 50,21.552 50,21 C50,20.448 50.448,20 51,20 C51.552,20 52,20.448 52,21" id="Fill-267" fill="#0F81E0" sketch:type="MSShapeGroup"></path>
                <path d="M46,27 C46,27.552 45.552,28 45,28 C44.448,28 44,27.552 44,27 C44,26.448 44.448,26 45,26 C45.552,26 46,26.448 46,27" id="Fill-268" fill="#0F81E0" sketch:type="MSShapeGroup"></path>
                <path d="M46,33 C46,33.552 45.552,34 45,34 C44.448,34 44,33.552 44,33 C44,32.448 44.448,32 45,32 C45.552,32 46,32.448 46,33" id="Fill-269" fill="#0F81E0" sketch:type="MSShapeGroup"></path>
                <path d="M49,30 C49,30.552 48.552,31 48,31 C47.448,31 47,30.552 47,30 C47,29.448 47.448,29 48,29 C48.552,29 49,29.448 49,30" id="Fill-270" fill="#0F81E0" sketch:type="MSShapeGroup"></path>
                <path d="M49,36 C49,36.552 48.552,37 48,37 C47.448,37 47,36.552 47,36 C47,35.448 47.448,35 48,35 C48.552,35 49,35.448 49,36" id="Fill-271" fill="#0F81E0" sketch:type="MSShapeGroup"></path>
                <path d="M52,27 C52,27.552 51.552,28 51,28 C50.448,28 50,27.552 50,27 C50,26.448 50.448,26 51,26 C51.552,26 52,26.448 52,27" id="Fill-272" fill="#0F81E0" sketch:type="MSShapeGroup"></path>
                <path d="M52,33 C52,33.552 51.552,34 51,34 C50.448,34 50,33.552 50,33 C50,32.448 50.448,32 51,32 C51.552,32 52,32.448 52,33" id="Fill-273" fill="#0F81E0" sketch:type="MSShapeGroup"></path>
                <path d="M46,39 C46,39.552 45.552,40 45,40 C44.448,40 44,39.552 44,39 C44,38.448 44.448,38 45,38 C45.552,38 46,38.448 46,39" id="Fill-274" fill="#0F81E0" sketch:type="MSShapeGroup"></path>
                <path d="M46,45 C46,45.552 45.552,46 45,46 C44.448,46 44,45.552 44,45 C44,44.448 44.448,44 45,44 C45.552,44 46,44.448 46,45" id="Fill-275" fill="#0F81E0" sketch:type="MSShapeGroup"></path>
                <path d="M49,42 C49,42.552 48.552,43 48,43 C47.448,43 47,42.552 47,42 C47,41.448 47.448,41 48,41 C48.552,41 49,41.448 49,42" id="Fill-276" fill="#0F81E0" sketch:type="MSShapeGroup"></path>
                <path d="M49,48 C49,48.552 48.552,49 48,49 C47.448,49 47,48.552 47,48 C47,47.448 47.448,47 48,47 C48.552,47 49,47.448 49,48" id="Fill-277" fill="#0F81E0" sketch:type="MSShapeGroup"></path>
                <path d="M52,39 C52,39.552 51.552,40 51,40 C50.448,40 50,39.552 50,39 C50,38.448 50.448,38 51,38 C51.552,38 52,38.448 52,39" id="Fill-278" fill="#0F81E0" sketch:type="MSShapeGroup"></path>
                <path d="M52,45 C52,45.552 51.552,46 51,46 C50.448,46 50,45.552 50,45 C50,44.448 50.448,44 51,44 C51.552,44 52,44.448 52,45" id="Fill-279" fill="#0F81E0" sketch:type="MSShapeGroup"></path>
                <path d="M28,15 C28,15.552 27.552,16 27,16 C26.448,16 26,15.552 26,15 C26,14.448 26.448,14 27,14 C27.552,14 28,14.448 28,15" id="Fill-280" fill="#0F81E0" sketch:type="MSShapeGroup"></path>
                <path d="M28,21 C28,21.552 27.552,22 27,22 C26.448,22 26,21.552 26,21 C26,20.448 26.448,20 27,20 C27.552,20 28,20.448 28,21" id="Fill-281" fill="#0F81E0" sketch:type="MSShapeGroup"></path>
                <path d="M31,18 C31,18.552 30.552,19 30,19 C29.448,19 29,18.552 29,18 C29,17.448 29.448,17 30,17 C30.552,17 31,17.448 31,18" id="Fill-282" fill="#0F81E0" sketch:type="MSShapeGroup"></path>
                <path d="M31,24 C31,24.552 30.552,25 30,25 C29.448,25 29,24.552 29,24 C29,23.448 29.448,23 30,23 C30.552,23 31,23.448 31,24" id="Fill-283" fill="#0F81E0" sketch:type="MSShapeGroup"></path>
                <path d="M34,15 C34,15.552 33.552,16 33,16 C32.448,16 32,15.552 32,15 C32,14.448 32.448,14 33,14 C33.552,14 34,14.448 34,15" id="Fill-284" fill="#0F81E0" sketch:type="MSShapeGroup"></path>
                <path d="M40,15 C40,15.552 39.552,16 39,16 C38.448,16 38,15.552 38,15 C38,14.448 38.448,14 39,14 C39.552,14 40,14.448 40,15" id="Fill-285" fill="#0F81E0" sketch:type="MSShapeGroup"></path>
                <path d="M34,21 C34,21.552 33.552,22 33,22 C32.448,22 32,21.552 32,21 C32,20.448 32.448,20 33,20 C33.552,20 34,20.448 34,21" id="Fill-286" fill="#0F81E0" sketch:type="MSShapeGroup"></path>
                <path d="M40,21 C40,21.552 39.552,22 39,22 C38.448,22 38,21.552 38,21 C38,20.448 38.448,20 39,20 C39.552,20 40,20.448 40,21" id="Fill-287" fill="#0F81E0" sketch:type="MSShapeGroup"></path>
                <path d="M37,18 C37,18.552 36.552,19 36,19 C35.448,19 35,18.552 35,18 C35,17.448 35.448,17 36,17 C36.552,17 37,17.448 37,18" id="Fill-288" fill="#0F81E0" sketch:type="MSShapeGroup"></path>
                <path d="M43,18 C43,18.552 42.552,19 42,19 C41.448,19 41,18.552 41,18 C41,17.448 41.448,17 42,17 C42.552,17 43,17.448 43,18" id="Fill-289" fill="#0F81E0" sketch:type="MSShapeGroup"></path>
                <path d="M37,24 C37,24.552 36.552,25 36,25 C35.448,25 35,24.552 35,24 C35,23.448 35.448,23 36,23 C36.552,23 37,23.448 37,24" id="Fill-290" fill="#0F81E0" sketch:type="MSShapeGroup"></path>
                <path d="M43,24 C43,24.552 42.552,25 42,25 C41.448,25 41,24.552 41,24 C41,23.448 41.448,23 42,23 C42.552,23 43,23.448 43,24" id="Fill-291" fill="#0F81E0" sketch:type="MSShapeGroup"></path>
                <path d="M28,27 C28,27.552 27.552,28 27,28 C26.448,28 26,27.552 26,27 C26,26.448 26.448,26 27,26 C27.552,26 28,26.448 28,27" id="Fill-292" fill="#0F81E0" sketch:type="MSShapeGroup"></path>
                <path d="M28,33 C28,33.552 27.552,34 27,34 C26.448,34 26,33.552 26,33 C26,32.448 26.448,32 27,32 C27.552,32 28,32.448 28,33" id="Fill-293" fill="#0F81E0" sketch:type="MSShapeGroup"></path>
                <path d="M31,30 C31,30.552 30.552,31 30,31 C29.448,31 29,30.552 29,30 C29,29.448 29.448,29 30,29 C30.552,29 31,29.448 31,30" id="Fill-294" fill="#0F81E0" sketch:type="MSShapeGroup"></path>
                <path d="M31,36 C31,36.552 30.552,37 30,37 C29.448,37 29,36.552 29,36 C29,35.448 29.448,35 30,35 C30.552,35 31,35.448 31,36" id="Fill-295" fill="#0F81E0" sketch:type="MSShapeGroup"></path>
                <path d="M34,27 C34,27.552 33.552,28 33,28 C32.448,28 32,27.552 32,27 C32,26.448 32.448,26 33,26 C33.552,26 34,26.448 34,27" id="Fill-296" fill="#0F81E0" sketch:type="MSShapeGroup"></path>
                <path d="M40,27 C40,27.552 39.552,28 39,28 C38.448,28 38,27.552 38,27 C38,26.448 38.448,26 39,26 C39.552,26 40,26.448 40,27" id="Fill-297" fill="#0F81E0" sketch:type="MSShapeGroup"></path>
                <path d="M34,33 C34,33.552 33.552,34 33,34 C32.448,34 32,33.552 32,33 C32,32.448 32.448,32 33,32 C33.552,32 34,32.448 34,33" id="Fill-298" fill="#0F81E0" sketch:type="MSShapeGroup"></path>
                <path d="M40,33 C40,33.552 39.552,34 39,34 C38.448,34 38,33.552 38,33 C38,32.448 38.448,32 39,32 C39.552,32 40,32.448 40,33" id="Fill-299" fill="#0F81E0" sketch:type="MSShapeGroup"></path>
                <path d="M37,30 C37,30.552 36.552,31 36,31 C35.448,31 35,30.552 35,30 C35,29.448 35.448,29 36,29 C36.552,29 37,29.448 37,30" id="Fill-300" fill="#0F81E0" sketch:type="MSShapeGroup"></path>
                <path d="M43,30 C43,30.552 42.552,31 42,31 C41.448,31 41,30.552 41,30 C41,29.448 41.448,29 42,29 C42.552,29 43,29.448 43,30" id="Fill-301" fill="#0F81E0" sketch:type="MSShapeGroup"></path>
                <path d="M37,36 C37,36.552 36.552,37 36,37 C35.448,37 35,36.552 35,36 C35,35.448 35.448,35 36,35 C36.552,35 37,35.448 37,36" id="Fill-302" fill="#0F81E0" sketch:type="MSShapeGroup"></path>
                <path d="M43,36 C43,36.552 42.552,37 42,37 C41.448,37 41,36.552 41,36 C41,35.448 41.448,35 42,35 C42.552,35 43,35.448 43,36" id="Fill-303" fill="#0F81E0" sketch:type="MSShapeGroup"></path>
                <path d="M28,39 C28,39.552 27.552,40 27,40 C26.448,40 26,39.552 26,39 C26,38.448 26.448,38 27,38 C27.552,38 28,38.448 28,39" id="Fill-304" fill="#0F81E0" sketch:type="MSShapeGroup"></path>
                <path d="M28,45 C28,45.552 27.552,46 27,46 C26.448,46 26,45.552 26,45 C26,44.448 26.448,44 27,44 C27.552,44 28,44.448 28,45" id="Fill-305" fill="#0F81E0" sketch:type="MSShapeGroup"></path>
                <path d="M31,42 C31,42.552 30.552,43 30,43 C29.448,43 29,42.552 29,42 C29,41.448 29.448,41 30,41 C30.552,41 31,41.448 31,42" id="Fill-306" fill="#0F81E0" sketch:type="MSShapeGroup"></path>
                <path d="M31,48 C31,48.552 30.552,49 30,49 C29.448,49 29,48.552 29,48 C29,47.448 29.448,47 30,47 C30.552,47 31,47.448 31,48" id="Fill-307" fill="#0F81E0" sketch:type="MSShapeGroup"></path>
                <path d="M34,39 C34,39.552 33.552,40 33,40 C32.448,40 32,39.552 32,39 C32,38.448 32.448,38 33,38 C33.552,38 34,38.448 34,39" id="Fill-308" fill="#0F81E0" sketch:type="MSShapeGroup"></path>
                <path d="M40,39 C40,39.552 39.552,40 39,40 C38.448,40 38,39.552 38,39 C38,38.448 38.448,38 39,38 C39.552,38 40,38.448 40,39" id="Fill-309" fill="#0F81E0" sketch:type="MSShapeGroup"></path>
                <path d="M34,45 C34,45.552 33.552,46 33,46 C32.448,46 32,45.552 32,45 C32,44.448 32.448,44 33,44 C33.552,44 34,44.448 34,45" id="Fill-310" fill="#0F81E0" sketch:type="MSShapeGroup"></path>
                <path d="M40,45 C40,45.552 39.552,46 39,46 C38.448,46 38,45.552 38,45 C38,44.448 38.448,44 39,44 C39.552,44 40,44.448 40,45" id="Fill-311" fill="#0F81E0" sketch:type="MSShapeGroup"></path>
                <path d="M37,42 C37,42.552 36.552,43 36,43 C35.448,43 35,42.552 35,42 C35,41.448 35.448,41 36,41 C36.552,41 37,41.448 37,42" id="Fill-312" fill="#0F81E0" sketch:type="MSShapeGroup"></path>
                <path d="M43,42 C43,42.552 42.552,43 42,43 C41.448,43 41,42.552 41,42 C41,41.448 41.448,41 42,41 C42.552,41 43,41.448 43,42" id="Fill-313" fill="#0F81E0" sketch:type="MSShapeGroup"></path>
                <path d="M37,48 C37,48.552 36.552,49 36,49 C35.448,49 35,48.552 35,48 C35,47.448 35.448,47 36,47 C36.552,47 37,47.448 37,48" id="Fill-314" fill="#0F81E0" sketch:type="MSShapeGroup"></path>
                <path d="M43,48 C43,48.552 42.552,49 42,49 C41.448,49 41,48.552 41,48 C41,47.448 41.448,47 42,47 C42.552,47 43,47.448 43,48" id="Fill-315" fill="#0F81E0" sketch:type="MSShapeGroup"></path>
                <path d="M22,15 C22,15.552 21.552,16 21,16 C20.448,16 20,15.552 20,15 C20,14.448 20.448,14 21,14 C21.552,14 22,14.448 22,15" id="Fill-316" fill="#0F81E0" sketch:type="MSShapeGroup"></path>
                <path d="M22,21 C22,21.552 21.552,22 21,22 C20.448,22 20,21.552 20,21 C20,20.448 20.448,20 21,20 C21.552,20 22,20.448 22,21" id="Fill-317" fill="#0F81E0" sketch:type="MSShapeGroup"></path>
                <path d="M25,18 C25,18.552 24.552,19 24,19 C23.448,19 23,18.552 23,18 C23,17.448 23.448,17 24,17 C24.552,17 25,17.448 25,18" id="Fill-318" fill="#0F81E0" sketch:type="MSShapeGroup"></path>
                <path d="M25,24 C25,24.552 24.552,25 24,25 C23.448,25 23,24.552 23,24 C23,23.448 23.448,23 24,23 C24.552,23 25,23.448 25,24" id="Fill-319" fill="#0F81E0" sketch:type="MSShapeGroup"></path>
                <path d="M22,27 C22,27.552 21.552,28 21,28 C20.448,28 20,27.552 20,27 C20,26.448 20.448,26 21,26 C21.552,26 22,26.448 22,27" id="Fill-320" fill="#0F81E0" sketch:type="MSShapeGroup"></path>
                <path d="M22,33 C22,33.552 21.552,34 21,34 C20.448,34 20,33.552 20,33 C20,32.448 20.448,32 21,32 C21.552,32 22,32.448 22,33" id="Fill-321" fill="#0F81E0" sketch:type="MSShapeGroup"></path>
                <path d="M25,30 C25,30.552 24.552,31 24,31 C23.448,31 23,30.552 23,30 C23,29.448 23.448,29 24,29 C24.552,29 25,29.448 25,30" id="Fill-322" fill="#0F81E0" sketch:type="MSShapeGroup"></path>
                <path d="M25,36 C25,36.552 24.552,37 24,37 C23.448,37 23,36.552 23,36 C23,35.448 23.448,35 24,35 C24.552,35 25,35.448 25,36" id="Fill-323" fill="#0F81E0" sketch:type="MSShapeGroup"></path>
                <path d="M22,39 C22,39.552 21.552,40 21,40 C20.448,40 20,39.552 20,39 C20,38.448 20.448,38 21,38 C21.552,38 22,38.448 22,39" id="Fill-324" fill="#0F81E0" sketch:type="MSShapeGroup"></path>
                <path d="M22,45 C22,45.552 21.552,46 21,46 C20.448,46 20,45.552 20,45 C20,44.448 20.448,44 21,44 C21.552,44 22,44.448 22,45" id="Fill-325" fill="#0F81E0" sketch:type="MSShapeGroup"></path>
                <path d="M25,42 C25,42.552 24.552,43 24,43 C23.448,43 23,42.552 23,42 C23,41.448 23.448,41 24,41 C24.552,41 25,41.448 25,42" id="Fill-326" fill="#0F81E0" sketch:type="MSShapeGroup"></path>
                <path d="M25,48 C25,48.552 24.552,49 24,49 C23.448,49 23,48.552 23,48 C23,47.448 23.448,47 24,47 C24.552,47 25,47.448 25,48" id="Fill-327" fill="#0F81E0" sketch:type="MSShapeGroup"></path>
                <path d="M4,15 C4,15.552 3.552,16 3,16 C2.448,16 2,15.552 2,15 C2,14.448 2.448,14 3,14 C3.552,14 4,14.448 4,15" id="Fill-328" fill="#0F81E0" sketch:type="MSShapeGroup"></path>
                <path d="M4,21 C4,21.552 3.552,22 3,22 C2.448,22 2,21.552 2,21 C2,20.448 2.448,20 3,20 C3.552,20 4,20.448 4,21" id="Fill-329" fill="#0F81E0" sketch:type="MSShapeGroup"></path>
                <path d="M7,18 C7,18.552 6.552,19 6,19 C5.448,19 5,18.552 5,18 C5,17.448 5.448,17 6,17 C6.552,17 7,17.448 7,18" id="Fill-330" fill="#0F81E0" sketch:type="MSShapeGroup"></path>
                <path d="M7,24 C7,24.552 6.552,25 6,25 C5.448,25 5,24.552 5,24 C5,23.448 5.448,23 6,23 C6.552,23 7,23.448 7,24" id="Fill-331" fill="#0F81E0" sketch:type="MSShapeGroup"></path>
                <path d="M10,15 C10,15.552 9.552,16 9,16 C8.448,16 8,15.552 8,15 C8,14.448 8.448,14 9,14 C9.552,14 10,14.448 10,15" id="Fill-332" fill="#0F81E0" sketch:type="MSShapeGroup"></path>
                <path d="M16,15 C16,15.552 15.552,16 15,16 C14.448,16 14,15.552 14,15 C14,14.448 14.448,14 15,14 C15.552,14 16,14.448 16,15" id="Fill-333" fill="#0F81E0" sketch:type="MSShapeGroup"></path>
                <path d="M10,21 C10,21.552 9.552,22 9,22 C8.448,22 8,21.552 8,21 C8,20.448 8.448,20 9,20 C9.552,20 10,20.448 10,21" id="Fill-334" fill="#0F81E0" sketch:type="MSShapeGroup"></path>
                <path d="M16,21 C16,21.552 15.552,22 15,22 C14.448,22 14,21.552 14,21 C14,20.448 14.448,20 15,20 C15.552,20 16,20.448 16,21" id="Fill-335" fill="#0F81E0" sketch:type="MSShapeGroup"></path>
                <path d="M13,18 C13,18.552 12.552,19 12,19 C11.448,19 11,18.552 11,18 C11,17.448 11.448,17 12,17 C12.552,17 13,17.448 13,18" id="Fill-336" fill="#0F81E0" sketch:type="MSShapeGroup"></path>
                <path d="M19,18 C19,18.552 18.552,19 18,19 C17.448,19 17,18.552 17,18 C17,17.448 17.448,17 18,17 C18.552,17 19,17.448 19,18" id="Fill-337" fill="#0F81E0" sketch:type="MSShapeGroup"></path>
                <path d="M13,24 C13,24.552 12.552,25 12,25 C11.448,25 11,24.552 11,24 C11,23.448 11.448,23 12,23 C12.552,23 13,23.448 13,24" id="Fill-338" fill="#0F81E0" sketch:type="MSShapeGroup"></path>
                <path d="M19,24 C19,24.552 18.552,25 18,25 C17.448,25 17,24.552 17,24 C17,23.448 17.448,23 18,23 C18.552,23 19,23.448 19,24" id="Fill-339" fill="#0F81E0" sketch:type="MSShapeGroup"></path>
                <path d="M4,27 C4,27.552 3.552,28 3,28 C2.448,28 2,27.552 2,27 C2,26.448 2.448,26 3,26 C3.552,26 4,26.448 4,27" id="Fill-340" fill="#0F81E0" sketch:type="MSShapeGroup"></path>
                <path d="M4,33 C4,33.552 3.552,34 3,34 C2.448,34 2,33.552 2,33 C2,32.448 2.448,32 3,32 C3.552,32 4,32.448 4,33" id="Fill-341" fill="#0F81E0" sketch:type="MSShapeGroup"></path>
                <path d="M7,30 C7,30.552 6.552,31 6,31 C5.448,31 5,30.552 5,30 C5,29.448 5.448,29 6,29 C6.552,29 7,29.448 7,30" id="Fill-342" fill="#0F81E0" sketch:type="MSShapeGroup"></path>
                <path d="M7,36 C7,36.552 6.552,37 6,37 C5.448,37 5,36.552 5,36 C5,35.448 5.448,35 6,35 C6.552,35 7,35.448 7,36" id="Fill-343" fill="#0F81E0" sketch:type="MSShapeGroup"></path>
                <path d="M10,27 C10,27.552 9.552,28 9,28 C8.448,28 8,27.552 8,27 C8,26.448 8.448,26 9,26 C9.552,26 10,26.448 10,27" id="Fill-344" fill="#0F81E0" sketch:type="MSShapeGroup"></path>
                <path d="M16,27 C16,27.552 15.552,28 15,28 C14.448,28 14,27.552 14,27 C14,26.448 14.448,26 15,26 C15.552,26 16,26.448 16,27" id="Fill-345" fill="#0F81E0" sketch:type="MSShapeGroup"></path>
                <path d="M10,33 C10,33.552 9.552,34 9,34 C8.448,34 8,33.552 8,33 C8,32.448 8.448,32 9,32 C9.552,32 10,32.448 10,33" id="Fill-346" fill="#0F81E0" sketch:type="MSShapeGroup"></path>
                <path d="M16,33 C16,33.552 15.552,34 15,34 C14.448,34 14,33.552 14,33 C14,32.448 14.448,32 15,32 C15.552,32 16,32.448 16,33" id="Fill-347" fill="#0F81E0" sketch:type="MSShapeGroup"></path>
                <path d="M13,30 C13,30.552 12.552,31 12,31 C11.448,31 11,30.552 11,30 C11,29.448 11.448,29 12,29 C12.552,29 13,29.448 13,30" id="Fill-348" fill="#0F81E0" sketch:type="MSShapeGroup"></path>
                <path d="M19,30 C19,30.552 18.552,31 18,31 C17.448,31 17,30.552 17,30 C17,29.448 17.448,29 18,29 C18.552,29 19,29.448 19,30" id="Fill-349" fill="#0F81E0" sketch:type="MSShapeGroup"></path>
                <path d="M13,36 C13,36.552 12.552,37 12,37 C11.448,37 11,36.552 11,36 C11,35.448 11.448,35 12,35 C12.552,35 13,35.448 13,36" id="Fill-350" fill="#0F81E0" sketch:type="MSShapeGroup"></path>
                <path d="M19,36 C19,36.552 18.552,37 18,37 C17.448,37 17,36.552 17,36 C17,35.448 17.448,35 18,35 C18.552,35 19,35.448 19,36" id="Fill-351" fill="#0F81E0" sketch:type="MSShapeGroup"></path>
                <path d="M4,39 C4,39.552 3.552,40 3,40 C2.448,40 2,39.552 2,39 C2,38.448 2.448,38 3,38 C3.552,38 4,38.448 4,39" id="Fill-352" fill="#0F81E0" sketch:type="MSShapeGroup"></path>
                <path d="M4,45 C4,45.552 3.552,46 3,46 C2.448,46 2,45.552 2,45 C2,44.448 2.448,44 3,44 C3.552,44 4,44.448 4,45" id="Fill-353" fill="#0F81E0" sketch:type="MSShapeGroup"></path>
                <path d="M7,42 C7,42.552 6.552,43 6,43 C5.448,43 5,42.552 5,42 C5,41.448 5.448,41 6,41 C6.552,41 7,41.448 7,42" id="Fill-354" fill="#0F81E0" sketch:type="MSShapeGroup"></path>
                <path d="M7,48 C7,48.552 6.552,49 6,49 C5.448,49 5,48.552 5,48 C5,47.448 5.448,47 6,47 C6.552,47 7,47.448 7,48" id="Fill-355" fill="#0F81E0" sketch:type="MSShapeGroup"></path>
                <path d="M10,39 C10,39.552 9.552,40 9,40 C8.448,40 8,39.552 8,39 C8,38.448 8.448,38 9,38 C9.552,38 10,38.448 10,39" id="Fill-356" fill="#0F81E0" sketch:type="MSShapeGroup"></path>
                <path d="M16,39 C16,39.552 15.552,40 15,40 C14.448,40 14,39.552 14,39 C14,38.448 14.448,38 15,38 C15.552,38 16,38.448 16,39" id="Fill-357" fill="#0F81E0" sketch:type="MSShapeGroup"></path>
                <path d="M10,45 C10,45.552 9.552,46 9,46 C8.448,46 8,45.552 8,45 C8,44.448 8.448,44 9,44 C9.552,44 10,44.448 10,45" id="Fill-358" fill="#0F81E0" sketch:type="MSShapeGroup"></path>
                <path d="M16,45 C16,45.552 15.552,46 15,46 C14.448,46 14,45.552 14,45 C14,44.448 14.448,44 15,44 C15.552,44 16,44.448 16,45" id="Fill-359" fill="#0F81E0" sketch:type="MSShapeGroup"></path>
                <path d="M13,42 C13,42.552 12.552,43 12,43 C11.448,43 11,42.552 11,42 C11,41.448 11.448,41 12,41 C12.552,41 13,41.448 13,42" id="Fill-360" fill="#0F81E0" sketch:type="MSShapeGroup"></path>
                <path d="M19,42 C19,42.552 18.552,43 18,43 C17.448,43 17,42.552 17,42 C17,41.448 17.448,41 18,41 C18.552,41 19,41.448 19,42" id="Fill-361" fill="#0F81E0" sketch:type="MSShapeGroup"></path>
                <path d="M13,48 C13,48.552 12.552,49 12,49 C11.448,49 11,48.552 11,48 C11,47.448 11.448,47 12,47 C12.552,47 13,47.448 13,48" id="Fill-362" fill="#0F81E0" sketch:type="MSShapeGroup"></path>
                <path d="M19,48 C19,48.552 18.552,49 18,49 C17.448,49 17,48.552 17,48 C17,47.448 17.448,47 18,47 C18.552,47 19,47.448 19,48" id="Fill-363" fill="#0F81E0" sketch:type="MSShapeGroup"></path>
            </g>
        </g>
    </g>
</svg>