<?xml version="1.0" encoding="UTF-8" standalone="no"?>
<svg width="58px" height="48px" viewBox="0 0 58 48" version="1.1" xmlns="http://www.w3.org/2000/svg" xmlns:xlink="http://www.w3.org/1999/xlink" xmlns:sketch="http://www.bohemiancoding.com/sketch/ns">
    <!-- Generator: Sketch 3.2.2 (9983) - http://www.bohemiancoding.com/sketch -->
    <title>356 - Albums (Webby)</title>
    <desc>Created with Sketch.</desc>
    <defs></defs>
    <g id="Page-1" stroke="none" stroke-width="1" fill="none" fill-rule="evenodd" sketch:type="MSPage">
        <g id="Icons" sketch:type="MSArtboardGroup" transform="translate(-601.000000, -604.000000)">
            <g id="356---Albums-(Webby)" sketch:type="MSLayerGroup" transform="translate(602.000000, 605.000000)">
                <path d="M8,0 L48,0 L48,46 L8,46 L8,0 Z" id="Fill-79" fill="#C6E3F8" sketch:type="MSShapeGroup"></path>
                <path d="M8,0 L48,0 L48,46 L8,46 L8,0 Z" id="Stroke-80" stroke="#0F81E0" stroke-width="2" stroke-linecap="round" stroke-linejoin="round" sketch:type="MSShapeGroup"></path>
                <path d="M48,42 L52,42 L52,4 L48,4 L48,42 Z" id="Fill-81" fill="#FFFFFF" sketch:type="MSShapeGroup"></path>
                <path d="M48,42 L52,42 L52,4 L48,4 L48,42 Z" id="Stroke-82" stroke="#0F81E0" stroke-width="2" stroke-linecap="round" stroke-linejoin="round" sketch:type="MSShapeGroup"></path>
                <path d="M4,42 L8,42 L8,4 L4,4 L4,42 Z" id="Fill-83" fill="#FFFFFF" sketch:type="MSShapeGroup"></path>
                <path d="M4,42 L8,42 L8,4 L4,4 L4,42 Z" id="Stroke-84" stroke="#0F81E0" stroke-width="2" stroke-linecap="round" stroke-linejoin="round" sketch:type="MSShapeGroup"></path>
                <path d="M52,38 L56,38 L56,8 L52,8 L52,38 Z" id="Fill-85" fill="#FFFFFF" sketch:type="MSShapeGroup"></path>
                <path d="M52,38 L56,38 L56,8 L52,8 L52,38 Z" id="Stroke-86" stroke="#0F81E0" stroke-width="2" stroke-linecap="round" stroke-linejoin="round" sketch:type="MSShapeGroup"></path>
                <path d="M0,38 L4,38 L4,8 L0,8 L0,38 Z" id="Fill-87" fill="#FFFFFF" sketch:type="MSShapeGroup"></path>
                <path d="M0,38 L4,38 L4,8 L0,8 L0,38 Z" id="Stroke-88" stroke="#0F81E0" stroke-width="2" stroke-linecap="round" stroke-linejoin="round" sketch:type="MSShapeGroup"></path>
            </g>
        </g>
    </g>
</svg>