<?xml version="1.0" encoding="UTF-8" standalone="no"?>
<svg width="53px" height="53px" viewBox="0 0 53 53" version="1.1" xmlns="http://www.w3.org/2000/svg" xmlns:xlink="http://www.w3.org/1999/xlink" xmlns:sketch="http://www.bohemiancoding.com/sketch/ns">
    <!-- Generator: Sketch 3.2.2 (9983) - http://www.bohemiancoding.com/sketch -->
    <title>357 - Layers (Webby)</title>
    <desc>Created with Sketch.</desc>
    <defs></defs>
    <g id="Page-1" stroke="none" stroke-width="1" fill="none" fill-rule="evenodd" sketch:type="MSPage">
        <g id="Icons" sketch:type="MSArtboardGroup" transform="translate(-484.000000, -601.000000)">
            <g id="357---Layers-(Webby)" sketch:type="MSLayerGroup" transform="translate(485.000000, 602.000000)">
                <path d="M50.912,14.456 L25.456,29 L0,14.456 L25.456,0 L50.912,14.456 L50.912,14.456 Z" id="Fill-73" fill="#C6E3F8" sketch:type="MSShapeGroup"></path>
                <path d="M50.912,14.456 L25.456,29 L0,14.456 L25.456,0 L50.912,14.456 L50.912,14.456 Z" id="Stroke-74" stroke="#0F81E0" stroke-width="2" stroke-linecap="round" stroke-linejoin="round" sketch:type="MSShapeGroup"></path>
                <path d="M25.456,29 L9.656,19.973 L0,25.456 L25.456,40 L50.912,25.456 L41.256,19.973 L25.456,29 L25.456,29 Z" id="Fill-75" fill="#FFFFFF" sketch:type="MSShapeGroup"></path>
                <path d="M25.456,29 L9.656,19.973 L0,25.456 L25.456,40 L50.912,25.456 L41.256,19.973 L25.456,29 L25.456,29 Z" id="Stroke-76" stroke="#0F81E0" stroke-width="2" stroke-linecap="round" stroke-linejoin="round" sketch:type="MSShapeGroup"></path>
                <path d="M25.456,40 L9.656,30.973 L0,36.456 L25.456,51 L50.912,36.456 L41.256,30.973 L25.456,40 L25.456,40 Z" id="Fill-77" fill="#FFFFFF" sketch:type="MSShapeGroup"></path>
                <path d="M25.456,40 L9.656,30.973 L0,36.456 L25.456,51 L50.912,36.456 L41.256,30.973 L25.456,40 L25.456,40 Z" id="Stroke-78" stroke="#0F81E0" stroke-width="2" stroke-linecap="round" stroke-linejoin="round" sketch:type="MSShapeGroup"></path>
            </g>
        </g>
    </g>
</svg>