<?xml version="1.0" encoding="UTF-8" standalone="no"?>
<svg width="60px" height="48px" viewBox="0 0 60 48" version="1.1" xmlns="http://www.w3.org/2000/svg" xmlns:xlink="http://www.w3.org/1999/xlink" xmlns:sketch="http://www.bohemiancoding.com/sketch/ns">
    <!-- Generator: Sketch 3.2.2 (9983) - http://www.bohemiancoding.com/sketch -->
    <title>358 - Windows (Webby)</title>
    <desc>Created with Sketch.</desc>
    <defs></defs>
    <g id="Page-1" stroke="none" stroke-width="1" fill="none" fill-rule="evenodd" sketch:type="MSPage">
        <g id="Icons" sketch:type="MSArtboardGroup" transform="translate(-360.000000, -603.000000)">
            <g id="358---Windows-(Webby)" sketch:type="MSLayerGroup" transform="translate(361.000000, 604.000000)">
                <path d="M14,46 L58,46 L58,14 L14,14 L14,46 Z" id="Fill-67" fill="#C6E3F8" sketch:type="MSShapeGroup"></path>
                <path d="M14,46 L58,46 L58,14 L14,14 L14,46 Z" id="Stroke-68" stroke="#0F81E0" stroke-width="2" stroke-linecap="round" stroke-linejoin="round" sketch:type="MSShapeGroup"></path>
                <path d="M7,7 L7,32 L0,32 L0,0 L44,0 L44,7 L7,7 L7,7 Z" id="Fill-69" fill="#FFFFFF" sketch:type="MSShapeGroup"></path>
                <path d="M7,7 L7,32 L0,32 L0,0 L44,0 L44,7 L7,7 L7,7 Z" id="Stroke-70" stroke="#0F81E0" stroke-width="2" stroke-linecap="round" stroke-linejoin="round" sketch:type="MSShapeGroup"></path>
                <path d="M14,14 L14,39 L7,39 L7,7 L51,7 L51,14 L14,14 L14,14 Z" id="Fill-71" fill="#FFFFFF" sketch:type="MSShapeGroup"></path>
                <path d="M14,14 L14,39 L7,39 L7,7 L51,7 L51,14 L14,14 L14,14 Z" id="Stroke-72" stroke="#0F81E0" stroke-width="2" stroke-linecap="round" stroke-linejoin="round" sketch:type="MSShapeGroup"></path>
            </g>
        </g>
    </g>
</svg>