<?xml version="1.0" encoding="UTF-8" standalone="no"?>
<svg width="58px" height="57px" viewBox="0 0 58 57" version="1.1" xmlns="http://www.w3.org/2000/svg" xmlns:xlink="http://www.w3.org/1999/xlink" xmlns:sketch="http://www.bohemiancoding.com/sketch/ns">
    <!-- Generator: Sketch 3.2.2 (9983) - http://www.bohemiancoding.com/sketch -->
    <title>36 - Calendar Date (Webby)</title>
    <desc>Created with Sketch.</desc>
    <defs></defs>
    <g id="Page-1" stroke="none" stroke-width="1" fill="none" fill-rule="evenodd" sketch:type="MSPage">
        <g id="Icons" sketch:type="MSArtboardGroup" transform="translate(-601.000000, -4440.000000)">
            <g id="36---Calendar-Date-(Webby)" sketch:type="MSLayerGroup" transform="translate(602.000000, 4441.000000)">
                <path d="M18,4 L15,4" id="Path" stroke="#0F81E0" stroke-width="2" stroke-linecap="round" stroke-linejoin="round" sketch:type="MSShapeGroup"></path>
                <path d="M41,4 L56,4 L56,15 L0,15 L0,4 L15,4" id="Path" stroke="#0F81E0" stroke-width="2" stroke-linecap="round" stroke-linejoin="round" sketch:type="MSShapeGroup"></path>
                <path d="M0,15 L56,15 L56,55 L0,55 L0,15 Z" id="Fill-120" fill="#FFFFFF" sketch:type="MSShapeGroup"></path>
                <path d="M0,15 L56,15 L56,55 L0,55 L0,15 Z" id="Stroke-121" stroke="#0F81E0" stroke-width="2" stroke-linecap="round" stroke-linejoin="round" sketch:type="MSShapeGroup"></path>
                <path d="M18,22 L18,48 L18,22 Z" id="Path" stroke="#0F81E0" stroke-width="2" stroke-linecap="round" stroke-linejoin="round" sketch:type="MSShapeGroup"></path>
                <path d="M14,48 L22,48 L14,48 Z" id="Path" stroke="#0F81E0" stroke-width="2" stroke-linecap="round" stroke-linejoin="round" sketch:type="MSShapeGroup"></path>
                <path d="M18,22 L12,28 L18,22 Z" id="Path" stroke="#0F81E0" stroke-width="2" stroke-linecap="round" stroke-linejoin="round" sketch:type="MSShapeGroup"></path>
                <path d="M43,28 C43,31.313 40.314,34 37,34 C33.686,34 31,31.313 31,28 C31,24.687 33.686,22 37,22 C40.314,22 43,24.687 43,28 L43,28 Z" id="Path" stroke="#0F81E0" stroke-width="2" stroke-linecap="round" stroke-linejoin="round" sketch:type="MSShapeGroup"></path>
                <path d="M43,28 L43,42 C43,45.3 40.3,48 37,48 C33.7,48 31,45.3 31,42" id="Path" stroke="#0F81E0" stroke-width="2" stroke-linecap="round" stroke-linejoin="round" sketch:type="MSShapeGroup"></path>
                <path d="M15,4 C15,1.791 16.791,0 19,0 C21.209,0 23,1.791 23,4 C23,6.209 21.209,8 19,8" id="Path" stroke="#0F81E0" stroke-width="2" stroke-linecap="round" stroke-linejoin="round" sketch:type="MSShapeGroup"></path>
                <path d="M25,8 C27.209,8 29,6.209 29,4 C29,1.791 27.209,0 25,0" id="Path" stroke="#0F81E0" stroke-width="2" stroke-linecap="round" stroke-linejoin="round" sketch:type="MSShapeGroup"></path>
                <path d="M31,8 C33.209,8 35,6.209 35,4 C35,1.791 33.209,0 31,0" id="Path" stroke="#0F81E0" stroke-width="2" stroke-linecap="round" stroke-linejoin="round" sketch:type="MSShapeGroup"></path>
                <path d="M37,8 C39.209,8 41,6.209 41,4 C41,1.791 39.209,0 37,0" id="Path" stroke="#0F81E0" stroke-width="2" stroke-linecap="round" stroke-linejoin="round" sketch:type="MSShapeGroup"></path>
            </g>
        </g>
    </g>
</svg>