<?xml version="1.0" encoding="UTF-8" standalone="no"?>
<svg width="56px" height="56px" viewBox="0 0 56 56" version="1.1" xmlns="http://www.w3.org/2000/svg" xmlns:xlink="http://www.w3.org/1999/xlink" xmlns:sketch="http://www.bohemiancoding.com/sketch/ns">
    <!-- Generator: Sketch 3.2.2 (9983) - http://www.bohemiancoding.com/sketch -->
    <title>364 - Menu (Webby)</title>
    <desc>Created with Sketch.</desc>
    <defs></defs>
    <g id="Page-1" stroke="none" stroke-width="1" fill="none" fill-rule="evenodd" sketch:type="MSPage">
        <g id="Icons" sketch:type="MSArtboardGroup" transform="translate(-842.000000, -479.000000)">
            <g id="364---Menu-(Webby)" sketch:type="MSLayerGroup" transform="translate(843.000000, 480.000000)">
                <path d="M54,27 C54,41.912 41.912,54 27,54 C12.088,54 0,41.912 0,27 C0,12.088 12.088,0 27,0 C41.912,0 54,12.088 54,27 L54,27 Z" id="Fill-695" fill="#C6E3F8" sketch:type="MSShapeGroup"></path>
                <path d="M54,27 C54,41.912 41.912,54 27,54 C12.088,54 0,41.912 0,27 C0,12.088 12.088,0 27,0 C41.912,0 54,12.088 54,27 L54,27 Z" id="Stroke-696" stroke="#0F81E0" stroke-width="2" stroke-linecap="round" stroke-linejoin="round" sketch:type="MSShapeGroup"></path>
                <path d="M14,15 L40,15 M10,31 L44,31 M10,23 L44,23 M14,39 L40,39" id="Stroke-697" stroke="#0F81E0" stroke-width="2" stroke-linecap="round" stroke-linejoin="round" sketch:type="MSShapeGroup"></path>
            </g>
        </g>
    </g>
</svg>