<?xml version="1.0" encoding="UTF-8" standalone="no"?>
<svg width="59px" height="60px" viewBox="0 0 59 60" version="1.1" xmlns="http://www.w3.org/2000/svg" xmlns:xlink="http://www.w3.org/1999/xlink" xmlns:sketch="http://www.bohemiancoding.com/sketch/ns">
    <!-- Generator: Sketch 3.2.2 (9983) - http://www.bohemiancoding.com/sketch -->
    <title>366 - Perspective View (Webby)</title>
    <desc>Created with Sketch.</desc>
    <defs></defs>
    <g id="Page-1" stroke="none" stroke-width="1" fill="none" fill-rule="evenodd" sketch:type="MSPage">
        <g id="Icons" sketch:type="MSArtboardGroup" transform="translate(-601.000000, -477.000000)">
            <g id="366---Perspective-View-(Webby)" sketch:type="MSLayerGroup" transform="translate(602.000000, 478.000000)">
                <path d="M56.115,28.642 L48.881,35.876 C37.364,47.393 18.691,47.393 7.174,35.876 L0.17,28.872 L7.404,21.638 C18.921,10.121 37.594,10.121 49.111,21.638 L56.115,28.642 L56.115,28.642 Z" id="Fill-553" fill="#FFFFFF" sketch:type="MSShapeGroup"></path>
                <path d="M56.115,28.642 L48.881,35.876 C37.364,47.393 18.691,47.393 7.174,35.876 L0.17,28.872 L7.404,21.638 C18.921,10.121 37.594,10.121 49.111,21.638 L56.115,28.642 L56.115,28.642 Z" id="Stroke-554" stroke="#0F81E0" stroke-width="2" stroke-linecap="round" stroke-linejoin="round" sketch:type="MSShapeGroup"></path>
                <path d="M28,10 L28,0 M28,0 L24,4 M28,0 L32,4 M28,48 L28,58 M28,58 L32,54 M28,58 L24,54" id="Stroke-555" stroke="#0F81E0" stroke-width="2" stroke-linecap="round" stroke-linejoin="round" sketch:type="MSShapeGroup"></path>
                <path d="M39.626,28.783 C39.626,35.307 34.337,40.596 27.813,40.596 C21.289,40.596 16,35.307 16,28.783 C16,22.259 21.289,16.97 27.813,16.97 C34.337,16.97 39.626,22.259 39.626,28.783 L39.626,28.783 Z" id="Fill-838" fill="#C6E3F8" sketch:type="MSShapeGroup"></path>
                <path d="M39.626,28.783 C39.626,35.307 34.337,40.596 27.813,40.596 C21.289,40.596 16,35.307 16,28.783 C16,22.259 21.289,16.97 27.813,16.97 C34.337,16.97 39.626,22.259 39.626,28.783 L39.626,28.783 Z" id="Stroke-839" stroke="#0F81E0" stroke-width="2" stroke-linecap="round" stroke-linejoin="round" sketch:type="MSShapeGroup"></path>
            </g>
        </g>
    </g>
</svg>