<?xml version="1.0" encoding="UTF-8" standalone="no"?>
<svg width="58px" height="26px" viewBox="0 0 58 26" version="1.1" xmlns="http://www.w3.org/2000/svg" xmlns:xlink="http://www.w3.org/1999/xlink" xmlns:sketch="http://www.bohemiancoding.com/sketch/ns">
    <!-- Generator: Sketch 3.2.2 (9983) - http://www.bohemiancoding.com/sketch -->
    <title>367 - Views (Webby)</title>
    <desc>Created with Sketch.</desc>
    <defs></defs>
    <g id="Page-1" stroke="none" stroke-width="1" fill="none" fill-rule="evenodd" sketch:type="MSPage">
        <g id="Icons" sketch:type="MSArtboardGroup" transform="translate(-481.000000, -494.000000)">
            <g id="367---Views-(Webby)" sketch:type="MSLayerGroup" transform="translate(482.000000, 495.000000)">
                <path d="M0.055,11.836 L0.285,11.605 C15.634,-3.868 40.651,-3.868 56,11.605" id="Path" stroke="#0F81E0" stroke-width="2" stroke-linecap="round" stroke-linejoin="round" sketch:type="MSShapeGroup"></path>
                <path d="M40.028,12 C40.028,18.627 34.655,24 28.028,24 C21.4,24 16.028,18.627 16.028,12 C16.028,5.373 21.4,0 28.028,0 C34.655,0 40.028,5.373 40.028,12 L40.028,12 Z" id="Fill-50" fill="#C6E3F8" sketch:type="MSShapeGroup"></path>
                <path d="M40.028,12 C40.028,18.627 34.655,24 28.028,24 C21.4,24 16.028,18.627 16.028,12 C16.028,5.373 21.4,0 28.028,0 C34.655,0 40.028,5.373 40.028,12 L40.028,12 Z" id="Stroke-51" stroke="#0F81E0" stroke-width="2" stroke-linecap="round" stroke-linejoin="round" sketch:type="MSShapeGroup"></path>
                <path d="M35.055,12 C35.055,15.866 31.921,19 28.055,19 C24.189,19 21.055,15.866 21.055,12 C21.055,8.134 24.189,5 28.055,5" id="Stroke-52" stroke="#0F81E0" stroke-width="2" stroke-linecap="round" stroke-linejoin="round" sketch:type="MSShapeGroup"></path>
            </g>
        </g>
    </g>
</svg>