<?xml version="1.0" encoding="UTF-8" standalone="no"?>
<svg width="58px" height="26px" viewBox="0 0 58 26" version="1.1" xmlns="http://www.w3.org/2000/svg" xmlns:xlink="http://www.w3.org/1999/xlink" xmlns:sketch="http://www.bohemiancoding.com/sketch/ns">
    <!-- Generator: Sketch 3.2.2 (9983) - http://www.bohemiancoding.com/sketch -->
    <title>368 - View (Webby)</title>
    <desc>Created with Sketch.</desc>
    <defs></defs>
    <g id="Page-1" stroke="none" stroke-width="1" fill="none" fill-rule="evenodd" sketch:type="MSPage">
        <g id="Icons" sketch:type="MSArtboardGroup" transform="translate(-361.000000, -494.000000)">
            <g id="368---View-(Webby)" sketch:type="MSLayerGroup" transform="translate(362.000000, 495.000000)">
                <path d="M40.055,12 C40.055,18.627 34.682,24 28.055,24 C21.428,24 16.055,18.627 16.055,12 C16.055,5.373 21.428,0 28.055,0 C34.682,0 40.055,5.373 40.055,12 L40.055,12 Z" id="Fill-47" fill="#C6E3F8" sketch:type="MSShapeGroup"></path>
                <path d="M40.055,12 C40.055,18.627 34.682,24 28.055,24 C21.428,24 16.055,18.627 16.055,12 C16.055,5.373 21.428,0 28.055,0 C34.682,0 40.055,5.373 40.055,12 L40.055,12 Z" id="Stroke-48" stroke="#0F81E0" stroke-width="2" stroke-linecap="round" stroke-linejoin="round" sketch:type="MSShapeGroup"></path>
                <path d="M22.055,12 C22.055,8.684 24.739,6 28.055,6" id="Path" stroke="#0F81E0" stroke-width="2" stroke-linecap="round" stroke-linejoin="round" sketch:type="MSShapeGroup"></path>
                <path d="M0.055,11.836 L0.285,11.605 C15.634,-3.868 40.651,-3.868 56,11.605" id="Path" stroke="#0F81E0" stroke-width="2" stroke-linecap="round" stroke-linejoin="round" sketch:type="MSShapeGroup"></path>
            </g>
        </g>
    </g>
</svg>