<?xml version="1.0" encoding="UTF-8" standalone="no"?>
<svg width="60px" height="26px" viewBox="0 0 60 26" version="1.1" xmlns="http://www.w3.org/2000/svg" xmlns:xlink="http://www.w3.org/1999/xlink" xmlns:sketch="http://www.bohemiancoding.com/sketch/ns">
    <!-- Generator: Sketch 3.2.2 (9983) - http://www.bohemiancoding.com/sketch -->
    <title>371 - Record (Webby)</title>
    <desc>Created with Sketch.</desc>
    <defs></defs>
    <g id="Page-1" stroke="none" stroke-width="1" fill="none" fill-rule="evenodd" sketch:type="MSPage">
        <g id="Icons" sketch:type="MSArtboardGroup" transform="translate(-1200.000000, -373.000000)">
            <g id="371---Record-(Webby)" sketch:type="MSLayerGroup" transform="translate(1201.000000, 374.000000)">
                <path d="M24,12 C24,18.627 18.627,24 12,24 C5.373,24 0,18.627 0,12 C0,5.373 5.373,0 12,0 C18.627,0 24,5.373 24,12 L24,12 Z" id="Fill-502" fill="#C6E3F8" sketch:type="MSShapeGroup"></path>
                <path d="M24,12 C24,18.627 18.627,24 12,24 C5.373,24 0,18.627 0,12 C0,5.373 5.373,0 12,0 C18.627,0 24,5.373 24,12 L24,12 Z" id="Stroke-503" stroke="#0F81E0" stroke-width="2" stroke-linecap="round" stroke-linejoin="round" sketch:type="MSShapeGroup"></path>
                <path d="M58,12 C58,18.627 52.627,24 46,24 C39.373,24 34,18.627 34,12 C34,5.373 39.373,0 46,0 C52.627,0 58,5.373 58,12 L58,12 Z" id="Fill-504" fill="#C6E3F8" sketch:type="MSShapeGroup"></path>
                <path d="M58,12 C58,18.627 52.627,24 46,24 C39.373,24 34,18.627 34,12 C34,5.373 39.373,0 46,0 C52.627,0 58,5.373 58,12 L58,12 Z" id="Stroke-505" stroke="#0F81E0" stroke-width="2" stroke-linecap="round" stroke-linejoin="round" sketch:type="MSShapeGroup"></path>
                <path d="M12,24 L46,24" id="Stroke-506" stroke="#0F81E0" stroke-width="2" stroke-linecap="round" stroke-linejoin="round" sketch:type="MSShapeGroup"></path>
            </g>
        </g>
    </g>
</svg>