<?xml version="1.0" encoding="UTF-8" standalone="no"?>
<svg width="60px" height="24px" viewBox="0 0 60 24" version="1.1" xmlns="http://www.w3.org/2000/svg" xmlns:xlink="http://www.w3.org/1999/xlink" xmlns:sketch="http://www.bohemiancoding.com/sketch/ns">
    <!-- Generator: Sketch 3.2.2 (9983) - http://www.bohemiancoding.com/sketch -->
    <title>372 - Reading List (Webby)</title>
    <desc>Created with Sketch.</desc>
    <defs></defs>
    <g id="Page-1" stroke="none" stroke-width="1" fill="none" fill-rule="evenodd" sketch:type="MSPage">
        <g id="Icons" sketch:type="MSArtboardGroup" transform="translate(-1080.000000, -376.000000)">
            <g id="372---Reading-List-(Webby)" sketch:type="MSLayerGroup" transform="translate(1081.000000, 377.000000)">
                <path d="M25,11 C25,17.075 20.188,22 14.072,22 C7.957,22 3,17.075 3,11 C3,4.925 7.957,0 14.072,0 C20.188,0 25,4.925 25,11 L25,11 Z" id="Fill-53" fill="#C6E3F8" sketch:type="MSShapeGroup"></path>
                <path d="M25,11 C25,17.075 20.188,22 14.072,22 C7.957,22 3,17.075 3,11 C3,4.925 7.957,0 14.072,0 C20.188,0 25,4.925 25,11 L25,11 Z" id="Stroke-54" stroke="#0F81E0" stroke-width="2" stroke-linecap="round" stroke-linejoin="round" sketch:type="MSShapeGroup"></path>
                <path d="M55,11 C55,17.075 50.187,22 44.072,22 C37.957,22 33,17.075 33,11 C33,4.925 37.957,0 44.072,0 C50.187,0 55,4.925 55,11 L55,11 Z" id="Fill-55" fill="#C6E3F8" sketch:type="MSShapeGroup"></path>
                <path d="M55,11 C55,17.075 50.187,22 44.072,22 C37.957,22 33,17.075 33,11 C33,4.925 37.957,0 44.072,0 C50.187,0 55,4.925 55,11 L55,11 Z" id="Stroke-56" stroke="#0F81E0" stroke-width="2" stroke-linecap="round" stroke-linejoin="round" sketch:type="MSShapeGroup"></path>
                <path d="M33,11 C30.805,7.444 27.195,7.444 25,11 M3,11 L0,11 M55,10 L58,10" id="Stroke-57" stroke="#0F81E0" stroke-width="2" stroke-linecap="round" stroke-linejoin="round" sketch:type="MSShapeGroup"></path>
            </g>
        </g>
    </g>
</svg>