<?xml version="1.0" encoding="UTF-8" standalone="no"?>
<svg width="60px" height="58px" viewBox="0 0 60 58" version="1.1" xmlns="http://www.w3.org/2000/svg" xmlns:xlink="http://www.w3.org/1999/xlink" xmlns:sketch="http://www.bohemiancoding.com/sketch/ns">
    <!-- Generator: Sketch 3.2.2 (9983) - http://www.bohemiancoding.com/sketch -->
    <title>373 - Home (Webby)</title>
    <desc>Created with Sketch.</desc>
    <defs></defs>
    <g id="Page-1" stroke="none" stroke-width="1" fill="none" fill-rule="evenodd" sketch:type="MSPage">
        <g id="Icons" sketch:type="MSArtboardGroup" transform="translate(-960.000000, -359.000000)">
            <g id="373---Home-(Webby)" sketch:type="MSLayerGroup" transform="translate(960.000000, 360.000000)">
                <path d="M53.792,26.528 L30,8.188 L6.208,26.528 C4.98,27.474 3.234,27.329 2.179,26.193 C0.985,24.906 1.146,22.873 2.529,21.791 L27.959,1.896 L30,0 L32.041,1.896 L57.471,21.791 C58.854,22.873 59.015,24.906 57.821,26.193 C56.766,27.329 55.02,27.474 53.792,26.528 L53.792,26.528 Z" id="Fill-40" fill="#FFFFFF" sketch:type="MSShapeGroup"></path>
                <path d="M53.792,26.528 L30,8.188 L6.208,26.528 C4.98,27.474 3.234,27.329 2.179,26.193 C0.985,24.906 1.146,22.873 2.529,21.791 L27.959,1.896 L30,0 L32.041,1.896 L57.471,21.791 C58.854,22.873 59.015,24.906 57.821,26.193 C56.766,27.329 55.02,27.474 53.792,26.528 L53.792,26.528 Z" id="Stroke-41" stroke="#0F81E0" stroke-width="2" stroke-linecap="round" stroke-linejoin="round" sketch:type="MSShapeGroup"></path>
                <path d="M53.792,26.528 L30,8.188 L6.208,26.528 C4.98,27.474 3.234,27.329 2.179,26.193 C0.985,24.906 1.146,22.873 2.529,21.791 L27.959,1.896 L30,0 L32.041,1.896 L57.471,21.791 C58.854,22.873 59.015,24.906 57.821,26.193 C56.766,27.329 55.02,27.474 53.792,26.528 L53.792,26.528 Z" id="Fill-42" fill="#FFFFFF" sketch:type="MSShapeGroup"></path>
                <path d="M53.792,26.528 L30,8.188 L6.208,26.528 C4.98,27.474 3.234,27.329 2.179,26.193 C0.985,24.906 1.146,22.873 2.529,21.791 L27.959,1.896 L30,0 L32.041,1.896 L57.471,21.791 C58.854,22.873 59.015,24.906 57.821,26.193 C56.766,27.329 55.02,27.474 53.792,26.528 L53.792,26.528 Z" id="Stroke-43" stroke="#0F81E0" stroke-width="2" stroke-linecap="round" stroke-linejoin="round" sketch:type="MSShapeGroup"></path>
                <path d="M30,8.188 L7,25.917 L7,56 L53,56 L53,25.917 L30,8.188 L30,8.188 Z" id="Fill-44" fill="#C6E3F8" sketch:type="MSShapeGroup"></path>
                <path d="M30,8.188 L7,25.917 L7,56 L53,56 L53,25.917 L30,8.188 L30,8.188 Z" id="Stroke-45" stroke="#0F81E0" stroke-width="2" stroke-linecap="round" stroke-linejoin="round" sketch:type="MSShapeGroup"></path>
                <path d="M1,56 L1,47" id="Path" stroke="#0F81E0" stroke-width="2" stroke-linecap="round" stroke-linejoin="round" sketch:type="MSShapeGroup"></path>
                <path d="M4,56 L4,47" id="Path" stroke="#0F81E0" stroke-width="2" stroke-linecap="round" stroke-linejoin="round" sketch:type="MSShapeGroup"></path>
                <path d="M56,56 L56,47" id="Path" stroke="#0F81E0" stroke-width="2" stroke-linecap="round" stroke-linejoin="round" sketch:type="MSShapeGroup"></path>
                <path d="M59,56 L59,47" id="Path" stroke="#0F81E0" stroke-width="2" stroke-linecap="round" stroke-linejoin="round" sketch:type="MSShapeGroup"></path>
                <path d="M1,49 L7,49" id="Path" stroke="#0F81E0" stroke-width="2" stroke-linecap="round" stroke-linejoin="round" sketch:type="MSShapeGroup"></path>
                <path d="M1,54 L7,54" id="Path" stroke="#0F81E0" stroke-width="2" stroke-linecap="round" stroke-linejoin="round" sketch:type="MSShapeGroup"></path>
                <path d="M53,49 L59,49" id="Path" stroke="#0F81E0" stroke-width="2" stroke-linecap="round" stroke-linejoin="round" sketch:type="MSShapeGroup"></path>
                <path d="M53,54 L59,54" id="Path" stroke="#0F81E0" stroke-width="2" stroke-linecap="round" stroke-linejoin="round" sketch:type="MSShapeGroup"></path>
                <path d="M15,25 L27,25 L27,33 L15,33 L15,25 Z" id="Fill-822" fill="#FFFFFF" sketch:type="MSShapeGroup"></path>
                <path d="M15,25 L27,25 L27,33 L15,33 L15,25 Z" id="Stroke-823" stroke="#0F81E0" stroke-width="2" stroke-linecap="round" stroke-linejoin="round" sketch:type="MSShapeGroup"></path>
                <path d="M15,39 L27,39 L27,49 L15,49 L15,39 Z" id="Fill-824" fill="#FFFFFF" sketch:type="MSShapeGroup"></path>
                <path d="M15,39 L27,39 L27,49 L15,49 L15,39 Z" id="Stroke-825" stroke="#0F81E0" stroke-width="2" stroke-linecap="round" stroke-linejoin="round" sketch:type="MSShapeGroup"></path>
                <path d="M33,25 L45,25 L45,33 L33,33 L33,25 Z" id="Fill-826" fill="#FFFFFF" sketch:type="MSShapeGroup"></path>
                <path d="M33,25 L45,25 L45,33 L33,33 L33,25 Z" id="Stroke-827" stroke="#0F81E0" stroke-width="2" stroke-linecap="round" stroke-linejoin="round" sketch:type="MSShapeGroup"></path>
                <path d="M33,39 L45,39 L45,56 L33,56 L33,39 Z" id="Fill-828" fill="#FFFFFF" sketch:type="MSShapeGroup"></path>
                <path d="M33,39 L45,39 L45,56 L33,56 L33,39 Z" id="Stroke-829" stroke="#0F81E0" stroke-width="2" stroke-linecap="round" stroke-linejoin="round" sketch:type="MSShapeGroup"></path>
                <path d="M21,39 L21,49 M15,44 L27,44 M15,28 L27,28 M33,30 L45,30" id="Stroke-830" stroke="#0F81E0" stroke-width="2" stroke-linecap="round" stroke-linejoin="round" sketch:type="MSShapeGroup"></path>
            </g>
        </g>
    </g>
</svg>