<?xml version="1.0" encoding="UTF-8" standalone="no"?>
<svg width="58px" height="58px" viewBox="0 0 58 58" version="1.1" xmlns="http://www.w3.org/2000/svg" xmlns:xlink="http://www.w3.org/1999/xlink" xmlns:sketch="http://www.bohemiancoding.com/sketch/ns">
    <!-- Generator: Sketch 3.2.2 (9983) - http://www.bohemiancoding.com/sketch -->
    <title>375 - Home (Webby)</title>
    <desc>Created with Sketch.</desc>
    <defs></defs>
    <g id="Page-1" stroke="none" stroke-width="1" fill="none" fill-rule="evenodd" sketch:type="MSPage">
        <g id="Icons" sketch:type="MSArtboardGroup" transform="translate(-721.000000, -358.000000)">
            <g id="375---Home-(Webby)" sketch:type="MSLayerGroup" transform="translate(722.000000, 359.000000)">
                <path d="M0,26 L28,0 L56,26" id="Stroke-27" stroke="#0F81E0" stroke-width="2" stroke-linecap="round" stroke-linejoin="round" sketch:type="MSShapeGroup"></path>
                <path d="M28,0 L5,21.357 L5,56 L51,56 L51,21.357 L28,0 L28,0 Z" id="Fill-28" fill="#FFFFFF" sketch:type="MSShapeGroup"></path>
                <path d="M28,0 L5,21.357 L5,56 L51,56 L51,21.357 L28,0 L28,0 Z" id="Stroke-29" stroke="#0F81E0" stroke-width="2" stroke-linecap="round" stroke-linejoin="round" sketch:type="MSShapeGroup"></path>
                <path d="M35,56 L21,56 L21,39 C21,35.134 24.134,32 28,32 C31.866,32 35,35.134 35,39 L35,56 L35,56 Z" id="Fill-30" fill="#C6E3F8" sketch:type="MSShapeGroup"></path>
                <path d="M35,56 L21,56 L21,39 C21,35.134 24.134,32 28,32 C31.866,32 35,35.134 35,39 L35,56 L35,56 Z" id="Stroke-31" stroke="#0F81E0" stroke-width="2" stroke-linecap="round" stroke-linejoin="round" sketch:type="MSShapeGroup"></path>
            </g>
        </g>
    </g>
</svg>