<?xml version="1.0" encoding="UTF-8" standalone="no"?>
<svg width="58px" height="58px" viewBox="0 0 58 58" version="1.1" xmlns="http://www.w3.org/2000/svg" xmlns:xlink="http://www.w3.org/1999/xlink" xmlns:sketch="http://www.bohemiancoding.com/sketch/ns">
    <!-- Generator: Sketch 3.2.2 (9983) - http://www.bohemiancoding.com/sketch -->
    <title>376 - Home (Webby)</title>
    <desc>Created with Sketch.</desc>
    <defs></defs>
    <g id="Page-1" stroke="none" stroke-width="1" fill="none" fill-rule="evenodd" sketch:type="MSPage">
        <g id="Icons" sketch:type="MSArtboardGroup" transform="translate(-601.000000, -358.000000)">
            <g id="376---Home-(Webby)" sketch:type="MSLayerGroup" transform="translate(602.000000, 359.000000)">
                <path d="M0,26 L28,0 L56,26" id="Stroke-17" stroke="#0F81E0" stroke-width="2" stroke-linecap="round" stroke-linejoin="round" sketch:type="MSShapeGroup"></path>
                <path d="M28,0 L5,21.357 L5,56 L51,56 L51,21.357 L28,0 L28,0 Z" id="Fill-18" fill="#FFFFFF" sketch:type="MSShapeGroup"></path>
                <path d="M28,0 L5,21.357 L5,56 L51,56 L51,21.357 L28,0 L28,0 Z" id="Stroke-19" stroke="#0F81E0" stroke-width="2" stroke-linecap="round" stroke-linejoin="round" sketch:type="MSShapeGroup"></path>
                <path d="M35,56 L21,56 L21,33.937 C21,32.867 21.867,32 22.937,32 L33.063,32 C34.133,32 35,32.867 35,33.937 L35,56 L35,56 Z" id="Fill-20" fill="#C6E3F8" sketch:type="MSShapeGroup"></path>
                <path d="M35,56 L21,56 L21,33.937 C21,32.867 21.867,32 22.937,32 L33.063,32 C34.133,32 35,32.867 35,33.937 L35,56 L35,56 Z" id="Stroke-21" stroke="#0F81E0" stroke-width="2" stroke-linecap="round" stroke-linejoin="round" sketch:type="MSShapeGroup"></path>
                <path d="M47,17.643 L47,5 L39,5 L39,10.214 L47,17.643 L47,17.643 Z" id="Fill-22" fill="#FFFFFF" sketch:type="MSShapeGroup"></path>
                <path d="M47,17.643 L47,5 L39,5 L39,10.214 L47,17.643 L47,17.643 Z" id="Stroke-23" stroke="#0F81E0" stroke-width="2" stroke-linecap="round" stroke-linejoin="round" sketch:type="MSShapeGroup"></path>
            </g>
        </g>
    </g>
</svg>