<?xml version="1.0" encoding="UTF-8" standalone="no"?>
<svg width="54px" height="54px" viewBox="0 0 54 54" version="1.1" xmlns="http://www.w3.org/2000/svg" xmlns:xlink="http://www.w3.org/1999/xlink" xmlns:sketch="http://www.bohemiancoding.com/sketch/ns">
    <!-- Generator: Sketch 3.2.2 (9983) - http://www.bohemiancoding.com/sketch -->
    <title>377 - Search (Webby)</title>
    <desc>Created with Sketch.</desc>
    <defs></defs>
    <g id="Page-1" stroke="none" stroke-width="1" fill="none" fill-rule="evenodd" sketch:type="MSPage">
        <g id="Icons" sketch:type="MSArtboardGroup" transform="translate(-485.000000, -361.000000)">
            <g id="377---Search-(Webby)" sketch:type="MSLayerGroup" transform="translate(486.000000, 362.000000)">
                <path d="M40,20 C40,31.046 31.046,40 20,40 C8.954,40 0,31.046 0,20 C0,8.954 8.954,0 20,0 C31.046,0 40,8.954 40,20 L40,20 Z" id="Fill-13" fill="#C6E3F8" sketch:type="MSShapeGroup"></path>
                <path d="M40,20 C40,31.046 31.046,40 20,40 C8.954,40 0,31.046 0,20 C0,8.954 8.954,0 20,0 C31.046,0 40,8.954 40,20 L40,20 Z" id="Stroke-14" stroke="#0F81E0" stroke-width="2" stroke-linejoin="round" sketch:type="MSShapeGroup"></path>
                <path d="M35.483,32.655 C34.637,33.689 33.689,34.637 32.655,35.483 L48.385,51.213 L51.213,48.385 L35.483,32.655 L35.483,32.655 Z" id="Fill-15" fill="#FFFFFF" sketch:type="MSShapeGroup"></path>
                <path d="M35.483,32.655 C34.637,33.689 33.689,34.637 32.655,35.483 L48.385,51.213 L51.213,48.385 L35.483,32.655 L35.483,32.655 Z" id="Stroke-16" stroke="#0F81E0" stroke-width="2" stroke-linecap="round" stroke-linejoin="round" sketch:type="MSShapeGroup"></path>
            </g>
        </g>
    </g>
</svg>