<?xml version="1.0" encoding="UTF-8" standalone="no"?>
<svg width="60px" height="58px" viewBox="0 0 60 58" version="1.1" xmlns="http://www.w3.org/2000/svg" xmlns:xlink="http://www.w3.org/1999/xlink" xmlns:sketch="http://www.bohemiancoding.com/sketch/ns">
    <!-- Generator: Sketch 3.2.2 (9983) - http://www.bohemiancoding.com/sketch -->
    <title>4 - Box Archive (Webby)</title>
    <desc>Created with Sketch.</desc>
    <defs></defs>
    <g id="Page-1" stroke="none" stroke-width="1" fill="none" fill-rule="evenodd" sketch:type="MSPage">
        <g id="Icons" sketch:type="MSArtboardGroup" transform="translate(-840.000000, -4799.000000)">
            <g id="4---Box-Archive-(Webby)" sketch:type="MSLayerGroup" transform="translate(841.000000, 4800.000000)">
                <path d="M58,16.01 L0,16.01 L0,2.046 C0,0.916 0.916,0 2.046,0 L55.954,0 C57.084,0 58,0.916 58,2.046 L58,16.01 L58,16.01 Z" id="Fill-341" fill="#FFFFFF" sketch:type="MSShapeGroup"></path>
                <path d="M58,16.01 L0,16.01 L0,2.046 C0,0.916 0.916,0 2.046,0 L55.954,0 C57.084,0 58,0.916 58,2.046 L58,16.01 L58,16.01 Z" id="Stroke-342" stroke="#0F81E0" stroke-width="2" stroke-linecap="round" stroke-linejoin="round" sketch:type="MSShapeGroup"></path>
                <path d="M3,16.01 L55,16.01 L55,56 L3,56 L3,16.01 Z" id="Fill-343" fill="#FFFFFF" sketch:type="MSShapeGroup"></path>
                <path d="M3,56 L55,56 L55,16.01 L3,16.01 L3,56 Z" id="Stroke-344" stroke="#0F81E0" stroke-width="2" stroke-linecap="round" stroke-linejoin="round" sketch:type="MSShapeGroup"></path>
                <path d="M38,12.009 L20,12.009 C17.791,12.009 16,10.219 16,8.01 C16,5.801 17.791,4.01 20,4.01 L38,4.01 C40.209,4.01 42,5.801 42,8.01 C42,10.219 40.209,12.009 38,12.009 L38,12.009 Z" id="Fill-345" fill="#C6E3F8" sketch:type="MSShapeGroup"></path>
                <path d="M38,12.009 L20,12.009 C17.791,12.009 16,10.219 16,8.01 C16,5.801 17.791,4.01 20,4.01 L38,4.01 C40.209,4.01 42,5.801 42,8.01 C42,10.219 40.209,12.009 38,12.009 L38,12.009 Z" id="Stroke-346" stroke="#0F81E0" stroke-width="2" stroke-linecap="round" stroke-linejoin="round" sketch:type="MSShapeGroup"></path>
                <path d="M3,56 L55,56 L55,51 L3,51 L3,56 Z" id="Fill-355" fill="#C6E3F8" sketch:type="MSShapeGroup"></path>
                <path d="M3,56 L55,56 L55,51 L3,51 L3,56 Z" id="Stroke-356" stroke="#0F81E0" stroke-width="2" stroke-linecap="round" stroke-linejoin="round" sketch:type="MSShapeGroup"></path>
                <path d="M15,24 L43,24 L43,38 L15,38 L15,24 Z" id="Fill-486" fill="#C6E3F8" sketch:type="MSShapeGroup"></path>
                <path d="M15,24 L43,24 L43,38 L15,38 L15,24 Z" id="Stroke-487" stroke="#0F81E0" stroke-width="2" stroke-linecap="round" stroke-linejoin="round" sketch:type="MSShapeGroup"></path>
                <path d="M19,29 L25,29 M39,33 L23,33" id="Stroke-488" stroke="#0F81E0" stroke-width="2" stroke-linecap="round" stroke-linejoin="round" sketch:type="MSShapeGroup"></path>
            </g>
        </g>
    </g>
</svg>