<?xml version="1.0" encoding="UTF-8" standalone="no"?>
<svg width="52px" height="59px" viewBox="0 0 52 59" version="1.1" xmlns="http://www.w3.org/2000/svg" xmlns:xlink="http://www.w3.org/1999/xlink" xmlns:sketch="http://www.bohemiancoding.com/sketch/ns">
    <!-- Generator: Sketch 3.2.2 (9983) - http://www.bohemiancoding.com/sketch -->
    <title>40 - Note (Webby)</title>
    <desc>Created with Sketch.</desc>
    <defs></defs>
    <g id="Page-1" stroke="none" stroke-width="1" fill="none" fill-rule="evenodd" sketch:type="MSPage">
        <g id="Icons" sketch:type="MSArtboardGroup" transform="translate(-124.000000, -4438.000000)">
            <g id="40---Note-(Webby)" sketch:type="MSLayerGroup" transform="translate(124.000000, 4439.000000)">
                <path d="M13,4 C13,1.791 14.791,0 17,0 C19.209,0 21,1.791 21,4 C21,6.209 19.209,8 17,8" id="Path" stroke="#0F81E0" stroke-width="2" stroke-linecap="round" stroke-linejoin="round" sketch:type="MSShapeGroup"></path>
                <path d="M23,8 C25.209,8 27,6.209 27,4 C27,1.791 25.209,0 23,0" id="Path" stroke="#0F81E0" stroke-width="2" stroke-linecap="round" stroke-linejoin="round" sketch:type="MSShapeGroup"></path>
                <path d="M29,8 C31.209,8 33,6.209 33,4 C33,1.791 31.209,0 29,0" id="Path" stroke="#0F81E0" stroke-width="2" stroke-linecap="round" stroke-linejoin="round" sketch:type="MSShapeGroup"></path>
                <path d="M35,8 C37.209,8 39,6.209 39,4 C39,1.791 37.209,0 35,0" id="Path" stroke="#0F81E0" stroke-width="2" stroke-linecap="round" stroke-linejoin="round" sketch:type="MSShapeGroup"></path>
                <path d="M16,4 L13,4 L16,4 Z" id="Path" stroke="#0F81E0" stroke-width="2" stroke-linecap="round" stroke-linejoin="round" sketch:type="MSShapeGroup"></path>
                <path d="M1,16 L51,16 L1,16 Z" id="Path" stroke="#0F81E0" stroke-width="2" stroke-linecap="round" stroke-linejoin="round" stroke-dasharray="4" sketch:type="MSShapeGroup"></path>
                <path d="M1,26 L51,26 L1,26 Z" id="Path" stroke="#0F81E0" stroke-width="2" stroke-linecap="round" stroke-linejoin="round" stroke-dasharray="4" sketch:type="MSShapeGroup"></path>
                <path d="M1,36 L51,36 L1,36 Z" id="Path" stroke="#0F81E0" stroke-width="2" stroke-linecap="round" stroke-linejoin="round" stroke-dasharray="4" sketch:type="MSShapeGroup"></path>
                <path d="M1,46 L34,46 L1,46 Z" id="Path" stroke="#0F81E0" stroke-width="2" stroke-linecap="round" stroke-linejoin="round" stroke-dasharray="6" sketch:type="MSShapeGroup"></path>
                <path d="M8,11 L8,52 L8,11 Z" id="Path" stroke="#0F81E0" stroke-width="2" stroke-linecap="round" stroke-linejoin="round" sketch:type="MSShapeGroup"></path>
                <path d="M39,56.36 L39,45 L50.323,45 C50.573,45 50.698,45.302 50.521,45.479 L39.452,56.547 C39.285,56.714 39,56.596 39,56.36 L39,56.36 Z" id="Path" stroke="#0F81E0" stroke-width="2" stroke-linecap="round" stroke-linejoin="round" sketch:type="MSShapeGroup"></path>
                <path d="M39,45 L51,45 L51,57 L39,57 L39,45 Z" id="Fill-169" fill="#C6E3F8" sketch:type="MSShapeGroup"></path>
                <path d="M39,45 L51,45 L51,57 L39,57 L39,45 Z" id="Stroke-170" stroke="#0F81E0" stroke-width="2" stroke-linejoin="round" sketch:type="MSShapeGroup"></path>
                <path d="M39,4 L51,4 L51,45 L39,57 L1,57 L1,4 L13,4" id="Path" stroke="#0F81E0" stroke-width="2" stroke-linecap="round" stroke-linejoin="round" sketch:type="MSShapeGroup"></path>
            </g>
        </g>
    </g>
</svg>