<?xml version="1.0" encoding="UTF-8" standalone="no"?>
<svg width="56px" height="60px" viewBox="0 0 56 60" version="1.1" xmlns="http://www.w3.org/2000/svg" xmlns:xlink="http://www.w3.org/1999/xlink" xmlns:sketch="http://www.bohemiancoding.com/sketch/ns">
    <!-- Generator: Sketch 3.2.2 (9983) - http://www.bohemiancoding.com/sketch -->
    <title>41 - Edit Document (Webby)</title>
    <desc>Created with Sketch.</desc>
    <defs></defs>
    <g id="Page-1" stroke="none" stroke-width="1" fill="none" fill-rule="evenodd" sketch:type="MSPage">
        <g id="Icons" sketch:type="MSArtboardGroup" transform="translate(-1201.000000, -4317.000000)">
            <g id="41---Edit-Document-(Webby)" sketch:type="MSLayerGroup" transform="translate(1202.000000, 4318.000000)">
                <path d="M19,0 L28,0 L28,5 L19,5 L19,0 Z" id="Fill-5" fill="#C6E3F8" sketch:type="MSShapeGroup"></path>
                <path d="M19,0 L28,0 L28,5 L19,5 L19,0 Z" id="Stroke-6" stroke="#0F81E0" stroke-width="2" stroke-linecap="round" stroke-linejoin="round" sketch:type="MSShapeGroup"></path>
                <path d="M54,49 L50,56 L46,49 L46,1.985 C46,0.889 46.889,0 47.985,0 L52.015,0 C53.111,0 54,0.889 54,1.985 L54,49 L54,49 Z" id="Fill-7" fill="#FFFFFF" sketch:type="MSShapeGroup"></path>
                <path d="M54,49 L50,56 L46,49 L46,1.985 C46,0.889 46.889,0 47.985,0 L52.015,0 C53.111,0 54,0.889 54,1.985 L54,49 L54,49 Z" id="Stroke-8" stroke="#0F81E0" stroke-width="2" sketch:type="MSShapeGroup"></path>
                <path d="M46,7 L54,7 L54,11 L46,11 L46,7 Z" id="Fill-9" fill="#C6E3F8" sketch:type="MSShapeGroup"></path>
                <path d="M46,7 L54,7 L54,11 L46,11 L46,7 Z" id="Stroke-10" stroke="#0F81E0" stroke-width="2" sketch:type="MSShapeGroup"></path>
                <path d="M46,49 L54,49" id="Stroke-11" stroke="#0F81E0" stroke-width="2" sketch:type="MSShapeGroup"></path>
                <path d="M50,56 L50,58" id="Stroke-12" stroke="#0F81E0" stroke-width="2" stroke-linecap="round" sketch:type="MSShapeGroup"></path>
                <path d="M46,49 L46,2 L28,2 L28,5 L19,5 L19,2 L0,2 L0,58 L47,58 L47,50.75 L46,49 L46,49 Z" id="Fill-13" fill="#C6E3F8" sketch:type="MSShapeGroup"></path>
                <path d="M46,49 L46,2 L28,2 L28,5 L19,5 L19,2 L0,2 L0,58 L47,58 L47,50.75 L46,49 L46,49 Z" id="Stroke-14" stroke="#0F81E0" stroke-width="2" stroke-linecap="round" sketch:type="MSShapeGroup"></path>
                <path d="M28,2 L28,5 L19,5 L19,2 L12,2 L12,8 L35,8 L35,2 L28,2 L28,2 Z" id="Fill-21" fill="#FFFFFF" sketch:type="MSShapeGroup"></path>
                <path d="M28,2 L28,5 L19,5 L19,2 L12,2 L12,8 L35,8 L35,2 L28,2 L28,2 Z" id="Stroke-22" stroke="#0F81E0" stroke-width="2" stroke-linecap="round" stroke-linejoin="round" sketch:type="MSShapeGroup"></path>
                <path d="M35,7 L35,8 L12,8 L12,7 L5,7 L5,53 L42,53 L42,7 L35,7 L35,7 Z" id="Fill-23" fill="#FFFFFF" sketch:type="MSShapeGroup"></path>
                <path d="M35,7 L35,8 L12,8 L12,7 L5,7 L5,53 L42,53 L42,7 L35,7 L35,7 Z" id="Stroke-24" stroke="#0F81E0" stroke-width="2" stroke-linecap="round" sketch:type="MSShapeGroup"></path>
                <path d="M12,17 L21,17 M12,24 L17,24 M25,24 L32,24 M23,31 L16,31" id="Stroke-25" stroke="#0F81E0" stroke-width="2" stroke-linecap="round" sketch:type="MSShapeGroup"></path>
                <path d="M17.525,36.137 C14.681,37.617 14.283,40.848 14.186,43.736 C14.755,43.5 15.324,43.265 15.893,43.029 C14.958,42.245 14.023,41.462 13.087,40.678 C12.106,39.856 10.683,41.263 11.673,42.093 C12.609,42.876 13.544,43.66 14.479,44.443 C15.141,44.998 16.155,44.655 16.186,43.736 C16.259,41.569 16.363,38.993 18.534,37.863 C19.679,37.268 18.667,35.542 17.525,36.137" id="Fill-26" fill="#0F81E0" sketch:type="MSShapeGroup"></path>
                <path d="M18.512,41.24 C19.026,42.282 20.012,43.038 21.182,43.172 C21.789,43.241 22.299,43.159 22.87,42.946 C23.276,42.794 24.793,41.614 25.136,42.229 C25.766,43.355 27.493,42.347 26.863,41.219 C26.344,40.29 25.221,39.829 24.175,40.125 C22.81,40.511 21.194,42.166 20.239,40.231 C19.668,39.074 17.944,40.088 18.512,41.24" id="Fill-27" fill="#0F81E0" sketch:type="MSShapeGroup"></path>
                <path d="M22,24 C22,24.552 21.552,25 21,25 C20.448,25 20,24.552 20,24 C20,23.448 20.448,23 21,23 C21.552,23 22,23.448 22,24" id="Fill-33" fill="#0F81E0" sketch:type="MSShapeGroup"></path>
                <path d="M37,24 C37,24.552 36.552,25 36,25 C35.448,25 35,24.552 35,24 C35,23.448 35.448,23 36,23 C36.552,23 37,23.448 37,24" id="Fill-34" fill="#0F81E0" sketch:type="MSShapeGroup"></path>
                <path d="M12,32 C12,32.552 11.552,33 11,33 C10.448,33 10,32.552 10,32 C10,31.448 10.448,31 11,31 C11.552,31 12,31.448 12,32" id="Fill-35" fill="#0F81E0" sketch:type="MSShapeGroup"></path>
            </g>
        </g>
    </g>
</svg>