<?xml version="1.0" encoding="UTF-8" standalone="no"?>
<svg width="49px" height="60px" viewBox="0 0 49 60" version="1.1" xmlns="http://www.w3.org/2000/svg" xmlns:xlink="http://www.w3.org/1999/xlink" xmlns:sketch="http://www.bohemiancoding.com/sketch/ns">
    <!-- Generator: Sketch 3.2.2 (9983) - http://www.bohemiancoding.com/sketch -->
    <title>42 - Flipboard Document (Webby)</title>
    <desc>Created with Sketch.</desc>
    <defs></defs>
    <g id="Page-1" stroke="none" stroke-width="1" fill="none" fill-rule="evenodd" sketch:type="MSPage">
        <g id="Icons" sketch:type="MSArtboardGroup" transform="translate(-1086.000000, -4317.000000)">
            <g id="42---Flipboard-Document-(Webby)" sketch:type="MSLayerGroup" transform="translate(1087.000000, 4318.000000)">
                <path d="M19,0 L28,0 L28,5 L19,5 L19,0 Z" id="Fill-1" fill="#C6E3F8" sketch:type="MSShapeGroup"></path>
                <path d="M19,0 L28,0 L28,5 L19,5 L19,0 Z" id="Stroke-2" stroke="#0F81E0" stroke-width="2" stroke-linecap="round" stroke-linejoin="round" sketch:type="MSShapeGroup"></path>
                <path d="M32,2 L28,2 L28,5 L19,5 L19,2 L0,2 L0,58 L47,58 L47,2 L32,2 L32,2 Z" id="Fill-3" fill="#C6E3F8" sketch:type="MSShapeGroup"></path>
                <path d="M32,2 L28,2 L28,5 L19,5 L19,2 L0,2 L0,58 L47,58 L47,2 L32,2 L32,2 Z" id="Stroke-4" stroke="#0F81E0" stroke-width="2" stroke-linecap="round" sketch:type="MSShapeGroup"></path>
                <path d="M35,5 L35,8 L12,8 L12,5 L3,5 L3,55 L44,55 L44,5 L35,5 L35,5 Z" id="Fill-15" fill="#FFFFFF" sketch:type="MSShapeGroup"></path>
                <path d="M35,5 L35,8 L12,8 L12,5 L3,5 L3,55 L44,55 L44,5 L35,5 L35,5 Z" id="Stroke-16" stroke="#0F81E0" stroke-width="2" stroke-linecap="round" sketch:type="MSShapeGroup"></path>
                <path d="M10,16 L19,16 M10,24 L15,24 M25,24 L32,24 M22,32 L15,32" id="Stroke-17" stroke="#0F81E0" stroke-width="2" stroke-linecap="round" sketch:type="MSShapeGroup"></path>
                <path d="M13.145,40.167 C10.3,41.646 9.903,44.878 9.806,47.766 C10.375,47.53 10.944,47.294 11.513,47.059 C10.578,46.275 9.642,45.492 8.707,44.708 C7.726,43.886 6.303,45.293 7.293,46.122 C8.228,46.906 9.164,47.689 10.099,48.473 C10.761,49.028 11.775,48.684 11.806,47.766 C11.879,45.598 11.983,43.023 14.154,41.893 C15.299,41.297 14.287,39.572 13.145,40.167" id="Fill-18" fill="#0F81E0" sketch:type="MSShapeGroup"></path>
                <path d="M14.132,45.27 C14.646,46.311 15.632,47.067 16.801,47.202 C17.408,47.271 17.918,47.189 18.489,46.976 C18.896,46.824 20.412,45.644 20.756,46.258 C21.386,47.384 23.113,46.376 22.483,45.249 C21.963,44.32 20.841,43.858 19.795,44.155 C18.43,44.541 16.814,46.196 15.859,44.261 C15.288,43.104 13.564,44.118 14.132,45.27" id="Fill-19" fill="#0F81E0" sketch:type="MSShapeGroup"></path>
                <path d="M47,38 L27,58" id="Stroke-20" stroke="#0F81E0" stroke-width="2" stroke-linecap="round" sketch:type="MSShapeGroup"></path>
                <path d="M28,2 L28,5 L19,5 L19,2 L12,2 L12,8 L35,8 L35,2 L28,2 L28,2 Z" id="Fill-28" fill="#FFFFFF" sketch:type="MSShapeGroup"></path>
                <path d="M28,2 L28,5 L19,5 L19,2 L12,2 L12,8 L35,8 L35,2 L28,2 L28,2 Z" id="Stroke-29" stroke="#0F81E0" stroke-width="2" stroke-linecap="round" stroke-linejoin="round" sketch:type="MSShapeGroup"></path>
                <path d="M21,24 C21,24.552 20.552,25 20,25 C19.448,25 19,24.552 19,24 C19,23.448 19.448,23 20,23 C20.552,23 21,23.448 21,24" id="Fill-30" fill="#0F81E0" sketch:type="MSShapeGroup"></path>
                <path d="M38,24 C38,24.552 37.552,25 37,25 C36.448,25 36,24.552 36,24 C36,23.448 36.448,23 37,23 C37.552,23 38,23.448 38,24" id="Fill-31" fill="#0F81E0" sketch:type="MSShapeGroup"></path>
                <path d="M11,32 C11,32.552 10.552,33 10,33 C9.448,33 9,32.552 9,32 C9,31.448 9.448,31 10,31 C10.552,31 11,31.448 11,32" id="Fill-32" fill="#0F81E0" sketch:type="MSShapeGroup"></path>
            </g>
        </g>
    </g>
</svg>