<?xml version="1.0" encoding="UTF-8" standalone="no"?>
<svg width="49px" height="60px" viewBox="0 0 49 60" version="1.1" xmlns="http://www.w3.org/2000/svg" xmlns:xlink="http://www.w3.org/1999/xlink" xmlns:sketch="http://www.bohemiancoding.com/sketch/ns">
    <!-- Generator: Sketch 3.2.2 (9983) - http://www.bohemiancoding.com/sketch -->
    <title>43 - Flipboard (Webby)</title>
    <desc>Created with Sketch.</desc>
    <defs></defs>
    <g id="Page-1" stroke="none" stroke-width="1" fill="none" fill-rule="evenodd" sketch:type="MSPage">
        <g id="Icons" sketch:type="MSArtboardGroup" transform="translate(-965.000000, -4317.000000)">
            <g id="43---Flipboard-(Webby)" sketch:type="MSLayerGroup" transform="translate(966.000000, 4318.000000)">
                <path d="M32,2 L28,2 L28,5 L19,5 L19,2 L0,2 L0,58 L47,58 L47,2 L32,2 L32,2 Z" id="Fill-475" fill="#C6E3F8" sketch:type="MSShapeGroup"></path>
                <path d="M32,2 L28,2 L28,5 L19,5 L19,2 L0,2 L0,58 L47,58 L47,2 L32,2 L32,2 Z" id="Stroke-476" stroke="#0F81E0" stroke-width="2" stroke-linecap="round" stroke-linejoin="round" sketch:type="MSShapeGroup"></path>
                <path d="M19,0 L28,0 L28,5 L19,5 L19,0 Z" id="Fill-621" fill="#C6E3F8" sketch:type="MSShapeGroup"></path>
                <path d="M19,0 L28,0 L28,5 L19,5 L19,0 Z" id="Stroke-622" stroke="#0F81E0" stroke-width="2" stroke-linecap="round" stroke-linejoin="round" sketch:type="MSShapeGroup"></path>
                <path d="M35,5 L35,8 L12,8 L12,5 L3,5 L3,55 L44,55 L44,5 L35,5 L35,5 Z" id="Fill-623" fill="#FFFFFF" sketch:type="MSShapeGroup"></path>
                <path d="M35,5 L35,8 L12,8 L12,5 L3,5 L3,55 L44,55 L44,5 L35,5 L35,5 Z" id="Stroke-624" stroke="#0F81E0" stroke-width="2" stroke-linecap="round" stroke-linejoin="round" sketch:type="MSShapeGroup"></path>
                <path d="M28,2 L28,5 L19,5 L19,2 L12,2 L12,8 L35,8 L35,2 L28,2 L28,2 Z" id="Fill-625" fill="#FFFFFF" sketch:type="MSShapeGroup"></path>
                <path d="M28,2 L28,5 L19,5 L19,2 L12,2 L12,8 L35,8 L35,2 L28,2 L28,2 Z" id="Stroke-626" stroke="#0F81E0" stroke-width="2" stroke-linecap="round" stroke-linejoin="round" sketch:type="MSShapeGroup"></path>
                <path d="M9,15 L22,15 M9,46 L22,46 M9,21 L38,21 M9,33 L38,33 M9,40 L38,40 M9,27 L23,27 M31,27 L38,27" id="Stroke-627" stroke="#0F81E0" stroke-width="2" stroke-linecap="round" stroke-linejoin="round" sketch:type="MSShapeGroup"></path>
            </g>
        </g>
    </g>
</svg>