<?xml version="1.0" encoding="UTF-8" standalone="no"?>
<svg width="48px" height="60px" viewBox="0 0 48 60" version="1.1" xmlns="http://www.w3.org/2000/svg" xmlns:xlink="http://www.w3.org/1999/xlink" xmlns:sketch="http://www.bohemiancoding.com/sketch/ns">
    <!-- Generator: Sketch 3.2.2 (9983) - http://www.bohemiancoding.com/sketch -->
    <title>44 - Search File (Webby)</title>
    <desc>Created with Sketch.</desc>
    <defs></defs>
    <g id="Page-1" stroke="none" stroke-width="1" fill="none" fill-rule="evenodd" sketch:type="MSPage">
        <g id="Icons" sketch:type="MSArtboardGroup" transform="translate(-847.000000, -4317.000000)">
            <g id="44---Search-File-(Webby)" sketch:type="MSLayerGroup" transform="translate(848.000000, 4318.000000)">
                <path d="M43,20 L28,5 L5,5 L5,55 L43,55 L43,20 L43,20 Z" id="Fill-468" fill="#FFFFFF" sketch:type="MSShapeGroup"></path>
                <path d="M43,20 L28,5 L5,5 L5,55 L43,55 L43,20 L43,20 Z" id="Stroke-469" stroke="#0F81E0" stroke-width="2" stroke-linejoin="round" sketch:type="MSShapeGroup"></path>
                <path d="M36.281,37.453 C36.281,43.433 31.433,48.281 25.453,48.281 C19.473,48.281 14.625,43.433 14.625,37.453 C14.625,31.473 19.473,26.625 25.453,26.625 C31.433,26.625 36.281,31.473 36.281,37.453 L36.281,37.453 Z" id="Fill-470" fill="#C6E3F8" sketch:type="MSShapeGroup"></path>
                <path d="M36.281,37.453 C36.281,43.433 31.433,48.281 25.453,48.281 C19.473,48.281 14.625,43.433 14.625,37.453 C14.625,31.473 19.473,26.625 25.453,26.625 C31.433,26.625 36.281,31.473 36.281,37.453 L36.281,37.453 Z" id="Stroke-471" stroke="#0F81E0" stroke-width="2" stroke-linecap="round" stroke-linejoin="round" sketch:type="MSShapeGroup"></path>
                <path d="M33.244,45.244 L46,58 M19.625,34 L25.625,34 M19.625,40 L31.625,40" id="Stroke-472" stroke="#0F81E0" stroke-width="2" stroke-linecap="round" stroke-linejoin="round" sketch:type="MSShapeGroup"></path>
                <path d="M5,5 L28,5 L38,15 L38,0 L0,0 L0,50 L5,50 L5,5 L5,5 Z" id="Fill-473" fill="#FFFFFF" sketch:type="MSShapeGroup"></path>
                <path d="M5,5 L28,5 L38,15 L38,0 L0,0 L0,50 L5,50 L5,5 L5,5 Z" id="Stroke-474" stroke="#0F81E0" stroke-width="2" stroke-linecap="round" stroke-linejoin="round" sketch:type="MSShapeGroup"></path>
                <path d="M42.712,20 L28,20 L28,5.288 C28,5.182 28.129,5.128 28.204,5.203 L42.796,19.796 C42.871,19.872 42.818,20 42.712,20 L42.712,20 Z" id="Fill-619" fill="#C6E3F8" sketch:type="MSShapeGroup"></path>
                <path d="M42.712,20 L28,20 L28,5.288 C28,5.182 28.129,5.128 28.204,5.203 L42.796,19.796 C42.871,19.872 42.818,20 42.712,20 L42.712,20 Z" id="Stroke-620" stroke="#0F81E0" stroke-width="2" stroke-linejoin="round" sketch:type="MSShapeGroup"></path>
            </g>
        </g>
    </g>
</svg>