<?xml version="1.0" encoding="UTF-8" standalone="no"?>
<svg width="47px" height="60px" viewBox="0 0 47 60" version="1.1" xmlns="http://www.w3.org/2000/svg" xmlns:xlink="http://www.w3.org/1999/xlink" xmlns:sketch="http://www.bohemiancoding.com/sketch/ns">
    <!-- Generator: Sketch 3.2.2 (9983) - http://www.bohemiancoding.com/sketch -->
    <title>46 - Resumee (Webby)</title>
    <desc>Created with Sketch.</desc>
    <defs></defs>
    <g id="Page-1" stroke="none" stroke-width="1" fill="none" fill-rule="evenodd" sketch:type="MSPage">
        <g id="Icons" sketch:type="MSArtboardGroup" transform="translate(-607.000000, -4317.000000)">
            <g id="46---Resumee-(Webby)" sketch:type="MSLayerGroup" transform="translate(608.000000, 4318.000000)">
                <path d="M45,14 L31,0 L0,0 L0,58 L45,58 L45,14 L45,14 Z" id="Fill-464" fill="#FFFFFF" sketch:type="MSShapeGroup"></path>
                <path d="M45,14 L31,0 L0,0 L0,58 L45,58 L45,14 L45,14 Z" id="Stroke-465" stroke="#0F81E0" stroke-width="2" stroke-linejoin="round" sketch:type="MSShapeGroup"></path>
                <path d="M31,0 L31,14 L45,14" id="Stroke-605" stroke="#0F81E0" stroke-width="2" stroke-linejoin="round" sketch:type="MSShapeGroup"></path>
                <path d="M10,35 L27,35 M30,30 L37,30 M15,30 L25,30" id="Stroke-606" stroke="#0F81E0" stroke-width="2" stroke-linecap="round" stroke-linejoin="round" sketch:type="MSShapeGroup"></path>
                <path d="M15.525,39.166 C12.68,40.646 12.284,43.878 12.186,46.766 C12.755,46.53 13.324,46.294 13.893,46.058 C12.958,45.275 12.023,44.492 11.087,43.708 C10.106,42.886 8.683,44.293 9.673,45.122 C10.609,45.905 11.544,46.689 12.479,47.473 C13.141,48.027 14.155,47.684 14.186,46.766 C14.259,44.599 14.364,42.023 16.534,40.893 C17.679,40.297 16.667,38.571 15.525,39.166" id="Fill-607" fill="#0F81E0" sketch:type="MSShapeGroup"></path>
                <path d="M16.701,44.816 C18.803,47.101 21.591,46.033 23.88,44.629 C23.424,44.509 22.968,44.39 22.512,44.27 C23.066,45.256 23.75,45.762 24.804,46.142 C25.713,46.47 28.891,44.922 29.136,45.259 C29.889,46.289 31.626,45.293 30.864,44.249 C30.44,43.67 30.004,43.187 29.231,43.128 C27.774,43.019 25.273,45.103 24.239,43.261 C23.977,42.793 23.33,42.62 22.871,42.902 C21.455,43.771 19.604,45.02 18.115,43.402 C17.24,42.45 15.829,43.868 16.701,44.816" id="Fill-608" fill="#0F81E0" sketch:type="MSShapeGroup"></path>
                <path d="M19.593,21.092 L17.082,19.809 C16.91,19.722 16.802,19.545 16.802,19.353 L16.802,18.584 C18.091,18.029 18.832,16.95 19.192,15.601 C19.736,15.432 20.136,14.93 20.136,14.333 L20.136,13.666 C20.136,13.156 19.842,12.715 19.417,12.491 C19.124,9.984 17.466,8.969 14.802,8.969 C14.676,8.969 14.553,8.975 14.431,8.984 C13.526,9.056 12.61,8.885 11.857,8.378 C11.544,8.167 11.28,7.943 11.095,7.708 C11.01,7.601 10.841,7.669 10.857,7.805 C10.884,8.038 10.923,8.31 10.982,8.607 C11.203,9.714 11.071,9.553 10.643,10.596 C10.406,11.174 10.254,11.815 10.183,12.494 C9.761,12.718 9.469,13.158 9.469,13.666 L9.469,14.333 C9.469,14.93 9.869,15.432 10.413,15.601 C10.773,16.95 11.514,18.029 12.802,18.584 L12.802,19.348 C12.802,19.543 12.692,19.721 12.516,19.807 L9.942,21.075 C9.507,21.313 9.191,21.694 9,22.134 C10.637,23.304 12.637,24 14.802,24 C16.96,24 18.952,23.31 20.586,22.148 C20.382,21.702 20.048,21.32 19.593,21.092 L19.593,21.092 Z" id="Fill-609" fill="#C6E3F8" sketch:type="MSShapeGroup"></path>
                <path d="M19.593,21.092 L17.082,19.809 C16.91,19.722 16.802,19.545 16.802,19.353 L16.802,18.584 C18.091,18.029 18.832,16.95 19.192,15.601 C19.736,15.432 20.136,14.93 20.136,14.333 L20.136,13.666 C20.136,13.156 19.842,12.715 19.417,12.491 C19.124,9.984 17.466,8.969 14.802,8.969 C14.676,8.969 14.553,8.975 14.431,8.984 C13.526,9.056 12.61,8.885 11.857,8.378 C11.544,8.167 11.28,7.943 11.095,7.708 C11.01,7.601 10.841,7.669 10.857,7.805 C10.884,8.038 10.923,8.31 10.982,8.607 C11.203,9.714 11.071,9.553 10.643,10.596 C10.406,11.174 10.254,11.815 10.183,12.494 C9.761,12.718 9.469,13.158 9.469,13.666 L9.469,14.333 C9.469,14.93 9.869,15.432 10.413,15.601 C10.773,16.95 11.514,18.029 12.802,18.584 L12.802,19.348 C12.802,19.543 12.692,19.721 12.516,19.807 L9.942,21.075 C9.507,21.313 9.191,21.694 9,22.134 C10.637,23.304 12.637,24 14.802,24 C16.96,24 18.952,23.31 20.586,22.148 C20.382,21.702 20.048,21.32 19.593,21.092 L19.593,21.092 Z" id="Stroke-610" stroke="#0F81E0" stroke-width="2" stroke-linecap="round" stroke-linejoin="round" sketch:type="MSShapeGroup"></path>
            </g>
        </g>
    </g>
</svg>