<?xml version="1.0" encoding="UTF-8" standalone="no"?>
<svg width="47px" height="60px" viewBox="0 0 47 60" version="1.1" xmlns="http://www.w3.org/2000/svg" xmlns:xlink="http://www.w3.org/1999/xlink" xmlns:sketch="http://www.bohemiancoding.com/sketch/ns">
    <!-- Generator: Sketch 3.2.2 (9983) - http://www.bohemiancoding.com/sketch -->
    <title>47 - Document (Webby)</title>
    <desc>Created with Sketch.</desc>
    <defs></defs>
    <g id="Page-1" stroke="none" stroke-width="1" fill="none" fill-rule="evenodd" sketch:type="MSPage">
        <g id="Icons" sketch:type="MSArtboardGroup" transform="translate(-488.000000, -4317.000000)">
            <g id="47---Document-(Webby)" sketch:type="MSLayerGroup" transform="translate(489.000000, 4318.000000)">
                <path d="M45,14 L31,0 L0,0 L0,58 L45,58 L45,14 L45,14 Z" id="Fill-462" fill="#FFFFFF" sketch:type="MSShapeGroup"></path>
                <path d="M45,14 L31,0 L0,0 L0,58 L45,58 L45,14 L45,14 Z" id="Stroke-463" stroke="#0F81E0" stroke-width="2" stroke-linejoin="round" sketch:type="MSShapeGroup"></path>
                <path d="M31,0 L31,14 L45,14" id="Stroke-603" stroke="#0F81E0" stroke-width="2" stroke-linejoin="round" sketch:type="MSShapeGroup"></path>
                <path d="M9,15 L18,15 M9,37 L26,37 M29,30 L36,30 M9,23 L14,23 M24,23 L31,23 M14,30 L24,30 M29,44 L36,44 M14,44 L24,44" id="Stroke-604" stroke="#0F81E0" stroke-width="2" stroke-linecap="round" stroke-linejoin="round" sketch:type="MSShapeGroup"></path>
            </g>
        </g>
    </g>
</svg>