<?xml version="1.0" encoding="UTF-8" standalone="no"?>
<svg width="48px" height="60px" viewBox="0 0 48 60" version="1.1" xmlns="http://www.w3.org/2000/svg" xmlns:xlink="http://www.w3.org/1999/xlink" xmlns:sketch="http://www.bohemiancoding.com/sketch/ns">
    <!-- Generator: Sketch 3.2.2 (9983) - http://www.bohemiancoding.com/sketch -->
    <title>49 - Files (Webby)</title>
    <desc>Created with Sketch.</desc>
    <defs></defs>
    <g id="Page-1" stroke="none" stroke-width="1" fill="none" fill-rule="evenodd" sketch:type="MSPage">
        <g id="Icons" sketch:type="MSArtboardGroup" transform="translate(-246.000000, -4317.000000)">
            <g id="49---Files-(Webby)" sketch:type="MSLayerGroup" transform="translate(247.000000, 4318.000000)">
                <path d="M46,19 L32,5 L5,5 L5,58 L46,58 L46,19 L46,19 Z" id="Fill-454" fill="#FFFFFF" sketch:type="MSShapeGroup"></path>
                <path d="M46,19 L32,5 L5,5 L5,58 L46,58 L46,19 L46,19 Z" id="Stroke-455" stroke="#0F81E0" stroke-width="2" stroke-linejoin="round" sketch:type="MSShapeGroup"></path>
                <path d="M5,5 L32,5 L41,14 L41,0 L0,0 L0,53 L5,53 L5,5 L5,5 Z" id="Fill-456" fill="#C6E3F8" sketch:type="MSShapeGroup"></path>
                <path d="M5,5 L32,5 L41,14 L41,0 L0,0 L0,53 L5,53 L5,5 L5,5 Z" id="Stroke-457" stroke="#0F81E0" stroke-width="2" stroke-linejoin="round" sketch:type="MSShapeGroup"></path>
                <path d="M13,25 L38,25 M13,17 L23,17 M13,33 L38,33 M13,41 L38,41 M13,49 L38,49" id="Stroke-595" stroke="#0F81E0" stroke-width="2" stroke-linecap="round" stroke-linejoin="round" sketch:type="MSShapeGroup"></path>
                <path d="M32,5 L32,19 L46,19" id="Path" stroke="#0F81E0" stroke-width="2" stroke-linejoin="round" sketch:type="MSShapeGroup"></path>
            </g>
        </g>
    </g>
</svg>