<?xml version="1.0" encoding="UTF-8" standalone="no"?>
<svg width="54px" height="60px" viewBox="0 0 54 60" version="1.1" xmlns="http://www.w3.org/2000/svg" xmlns:xlink="http://www.w3.org/1999/xlink" xmlns:sketch="http://www.bohemiancoding.com/sketch/ns">
    <!-- Generator: Sketch 3.2.2 (9983) - http://www.bohemiancoding.com/sketch -->
    <title>5 - Archive (Webby)</title>
    <desc>Created with Sketch.</desc>
    <defs></defs>
    <g id="Page-1" stroke="none" stroke-width="1" fill="none" fill-rule="evenodd" sketch:type="MSPage">
        <g id="Icons" sketch:type="MSArtboardGroup" transform="translate(-723.000000, -4797.000000)">
            <g id="5---Archive-(Webby)" sketch:type="MSLayerGroup" transform="translate(724.000000, 4798.000000)">
                <path d="M50.168,58 L1.832,58 C0.82,58 0,57.179 0,56.167 L0,1.832 C0,0.82 0.82,0 1.832,0 L50.168,0 C51.18,0 52,0.82 52,1.832 L52,56.167 C52,57.179 51.18,58 50.168,58 L50.168,58 Z" id="Fill-467" fill="#FFFFFF" sketch:type="MSShapeGroup"></path>
                <path d="M50.168,58 L1.832,58 C0.82,58 0,57.179 0,56.167 L0,1.832 C0,0.82 0.82,0 1.832,0 L50.168,0 C51.18,0 52,0.82 52,1.832 L52,56.167 C52,57.179 51.18,58 50.168,58 L50.168,58 Z" id="Stroke-468" stroke="#0F81E0" stroke-width="2" stroke-linecap="round" stroke-linejoin="round" sketch:type="MSShapeGroup"></path>
                <path d="M0,29 L52,29" id="Fill-469" fill="#FFFFFF" sketch:type="MSShapeGroup"></path>
                <path d="M0,29 L52,29" id="Stroke-470" stroke="#0F81E0" stroke-width="2" stroke-linecap="round" stroke-linejoin="round" sketch:type="MSShapeGroup"></path>
                <path d="M34,12 L34,13.496 C34,14.878 32.879,16 31.495,16 L20.505,16 C19.121,16 18,14.878 18,13.496 L18,12" id="Path" stroke="#0F81E0" stroke-width="2" stroke-linecap="round" stroke-linejoin="round" sketch:type="MSShapeGroup"></path>
                <path d="M34,41 L34,42.495 C34,43.878 32.879,45 31.495,45 L20.505,45 C19.121,45 18,43.878 18,42.495 L18,41" id="Path" stroke="#0F81E0" stroke-width="2" stroke-linecap="round" stroke-linejoin="round" sketch:type="MSShapeGroup"></path>
            </g>
        </g>
    </g>
</svg>