<?xml version="1.0" encoding="UTF-8" standalone="no"?>
<svg width="60px" height="60px" viewBox="0 0 60 60" version="1.1" xmlns="http://www.w3.org/2000/svg" xmlns:xlink="http://www.w3.org/1999/xlink" xmlns:sketch="http://www.bohemiancoding.com/sketch/ns">
    <!-- Generator: Sketch 3.2.2 (9983) - http://www.bohemiancoding.com/sketch -->
    <title>51 - Folders (Webby)</title>
    <desc>Created with Sketch.</desc>
    <defs></defs>
    <g id="Page-1" stroke="none" stroke-width="1" fill="none" fill-rule="evenodd" sketch:type="MSPage">
        <g id="Icons" sketch:type="MSArtboardGroup" transform="translate(-1200.000000, -4197.000000)">
            <g id="51---Folders-(Webby)" sketch:type="MSLayerGroup" transform="translate(1201.000000, 4198.000000)">
                <path d="M25,15 L20,8 L0,8 L0,58 L58,58 L58,15 L25,15 L25,15 Z" id="Fill-437" fill="#FFFFFF" sketch:type="MSShapeGroup"></path>
                <path d="M25,15 L20,8 L0,8 L0,58 L58,58 L58,15 L25,15 L25,15 Z" id="Stroke-438" stroke="#0F81E0" stroke-width="2" stroke-linejoin="round" sketch:type="MSShapeGroup"></path>
                <path d="M20,8 L30,21.969" id="Stroke-439" stroke="#0F81E0" stroke-width="2" stroke-linecap="round" stroke-linejoin="round" sketch:type="MSShapeGroup"></path>
                <path d="M30,22 L58,22" id="Path" stroke="#0F81E0" stroke-width="2" stroke-linejoin="round" sketch:type="MSShapeGroup"></path>
                <path d="M1,58 L57,58" id="Path" stroke="#0F81E0" stroke-width="2" stroke-linecap="round" stroke-linejoin="round" sketch:type="MSShapeGroup"></path>
                <path d="M58,11 L28,11 L23,4 L3,4 L3,8 L20,8 L25,15 L58,15 L58,11 L58,11 Z" id="Fill-447" fill="#C6E3F8" sketch:type="MSShapeGroup"></path>
                <path d="M58,11 L28,11 L23,4 L3,4 L3,8 L20,8 L25,15 L58,15 L58,11 L58,11 Z" id="Stroke-448" stroke="#0F81E0" stroke-width="2" stroke-linejoin="round" sketch:type="MSShapeGroup"></path>
                <path d="M58,7 L31,7 L26,0 L6,0 L6,4 L23,4 L28,11 L58,11 L58,7 L58,7 Z" id="Fill-449" fill="#C6E3F8" sketch:type="MSShapeGroup"></path>
                <path d="M58,7 L31,7 L26,0 L6,0 L6,4 L23,4 L28,11 L58,11 L58,7 L58,7 Z" id="Stroke-450" stroke="#0F81E0" stroke-width="2" stroke-linejoin="round" sketch:type="MSShapeGroup"></path>
                <path d="M27,35 L53,35 L53,53 L27,53 L27,35 Z" id="Fill-451" fill="#C6E3F8" sketch:type="MSShapeGroup"></path>
                <path d="M27,35 L53,35 L53,53 L27,53 L27,35 Z" id="Stroke-452" stroke="#0F81E0" stroke-width="2" stroke-linejoin="round" sketch:type="MSShapeGroup"></path>
                <path d="M32,40 L42,40 M32,44 L48,44 M32,48 L48,48" id="Stroke-453" stroke="#0F81E0" stroke-width="2" stroke-linejoin="round" sketch:type="MSShapeGroup"></path>
            </g>
        </g>
    </g>
</svg>