<?xml version="1.0" encoding="UTF-8" standalone="no"?>
<svg width="60px" height="60px" viewBox="0 0 60 60" version="1.1" xmlns="http://www.w3.org/2000/svg" xmlns:xlink="http://www.w3.org/1999/xlink" xmlns:sketch="http://www.bohemiancoding.com/sketch/ns">
    <!-- Generator: Sketch 3.2.2 (9983) - http://www.bohemiancoding.com/sketch -->
    <title>56 - Document Folder (Webby)</title>
    <desc>Created with Sketch.</desc>
    <defs></defs>
    <g id="Page-1" stroke="none" stroke-width="1" fill="none" fill-rule="evenodd" sketch:type="MSPage">
        <g id="Icons" sketch:type="MSArtboardGroup" transform="translate(-600.000000, -4197.000000)">
            <g id="56---Document-Folder-(Webby)" sketch:type="MSLayerGroup" transform="translate(600.000000, 4198.000000)">
                <path d="M47.324,58 L2.565,58 C1.535,58 0.786,57.022 1.055,56.027 L11.221,28.156 C11.405,27.474 12.024,27 12.731,27 L57.49,27 C58.52,27 59,27.984 59,28.972 L48.834,56.844 C48.65,57.526 48.031,58 47.324,58 L47.324,58 Z" id="Fill-396" fill="#C6E3F8" sketch:type="MSShapeGroup"></path>
                <path d="M47.324,58 L2.565,58 C1.535,58 0.786,57.022 1.055,56.027 L11.221,28.156 C11.405,27.474 12.024,27 12.731,27 L57.49,27 C58.52,27 59,27.984 59,28.972 L48.834,56.844 C48.65,57.526 48.031,58 47.324,58 L47.324,58 Z" id="Stroke-397" stroke="#0F81E0" stroke-width="2" stroke-linejoin="round" sketch:type="MSShapeGroup"></path>
                <path d="M51.268,18 L49,18 L49,27 L53,27 L53,19.732 C53,18.775 52.224,18 51.268,18 L51.268,18 Z" id="Fill-398" fill="#C6E3F8" sketch:type="MSShapeGroup"></path>
                <path d="M51.268,18 L49,18 L49,27 L53,27 L53,19.732 C53,18.775 52.224,18 51.268,18 L51.268,18 Z" id="Stroke-399" stroke="#0F81E0" stroke-width="2" stroke-linejoin="round" sketch:type="MSShapeGroup"></path>
                <path d="M5,11 L2.732,11 C1.776,11 1,11.775 1,12.732 L1,55.46 C1.069,55.462 1.138,55.466 1.205,55.47 L5,45.121 L5,11 L5,11 Z" id="Fill-400" fill="#C6E3F8" sketch:type="MSShapeGroup"></path>
                <path d="M5,11 L2.732,11 C1.776,11 1,11.775 1,12.732 L1,55.46 C1.069,55.462 1.138,55.466 1.205,55.47 L5,45.121 L5,11 L5,11 Z" id="Stroke-401" stroke="#0F81E0" stroke-width="2" stroke-linejoin="round" sketch:type="MSShapeGroup"></path>
                <path d="M11.221,28.156 C11.405,27.473 12.024,27 12.731,27 L49,27 L49,0 L11,0 L11,28.761 L11.221,28.156 L11.221,28.156 Z" id="Fill-402" fill="#FFFFFF" sketch:type="MSShapeGroup"></path>
                <path d="M11.221,28.156 C11.405,27.473 12.024,27 12.731,27 L49,27 L49,0 L11,0 L11,28.761 L11.221,28.156 L11.221,28.156 Z" id="Stroke-403" stroke="#0F81E0" stroke-width="2" stroke-linejoin="round" sketch:type="MSShapeGroup"></path>
                <path d="M18,15 L42,15" id="Path" stroke="#0F81E0" stroke-width="2" stroke-linecap="round" stroke-linejoin="round" sketch:type="MSShapeGroup"></path>
                <path d="M18,8 L28,8" id="Path" stroke="#0F81E0" stroke-width="2" stroke-linecap="round" stroke-linejoin="round" sketch:type="MSShapeGroup"></path>
                <path d="M18,22 L42,22" id="Path" stroke="#0F81E0" stroke-width="2" stroke-linecap="round" stroke-linejoin="round" sketch:type="MSShapeGroup"></path>
                <path d="M11,28.761 L11,2 L8,2 L8,36.986 L11,28.761 L11,28.761 Z" id="Fill-582" fill="#FFFFFF" sketch:type="MSShapeGroup"></path>
                <path d="M11,28.761 L11,2 L8,2 L8,36.986 L11,28.761 L11,28.761 Z" id="Stroke-583" stroke="#0F81E0" stroke-width="2" stroke-linejoin="round" sketch:type="MSShapeGroup"></path>
                <path d="M8,36.986 L8,4 L5,4 L5,45.211 L8,36.986 L8,36.986 Z" id="Fill-584" fill="#FFFFFF" sketch:type="MSShapeGroup"></path>
                <path d="M8,36.986 L8,4 L5,4 L5,45.211 L8,36.986 L8,36.986 Z" id="Stroke-585" stroke="#0F81E0" stroke-width="2" stroke-linejoin="round" sketch:type="MSShapeGroup"></path>
            </g>
        </g>
    </g>
</svg>