<?xml version="1.0" encoding="UTF-8" standalone="no"?>
<svg width="60px" height="60px" viewBox="0 0 60 60" version="1.1" xmlns="http://www.w3.org/2000/svg" xmlns:xlink="http://www.w3.org/1999/xlink" xmlns:sketch="http://www.bohemiancoding.com/sketch/ns">
    <!-- Generator: Sketch 3.2.2 (9983) - http://www.bohemiancoding.com/sketch -->
    <title>57 - Document Folder (Webby)</title>
    <desc>Created with Sketch.</desc>
    <defs></defs>
    <g id="Page-1" stroke="none" stroke-width="1" fill="none" fill-rule="evenodd" sketch:type="MSPage">
        <g id="Icons" sketch:type="MSArtboardGroup" transform="translate(-480.000000, -4197.000000)">
            <g id="57---Document-Folder-(Webby)" sketch:type="MSLayerGroup" transform="translate(480.000000, 4198.000000)">
                <path d="M47.324,58 L2.565,58 C1.535,58 0.786,57.022 1.055,56.027 L11.221,28.156 C11.405,27.474 12.024,27 12.731,27 L57.49,27 C58.52,27 59,27.984 59,28.972 L48.834,56.844 C48.65,57.526 48.031,58 47.324,58 L47.324,58 Z" id="Fill-376" fill="#C6E3F8" sketch:type="MSShapeGroup"></path>
                <path d="M47.324,58 L2.565,58 C1.535,58 0.786,57.022 1.055,56.027 L11.221,28.156 C11.405,27.474 12.024,27 12.731,27 L57.49,27 C58.52,27 59,27.984 59,28.972 L48.834,56.844 C48.65,57.526 48.031,58 47.324,58 L47.324,58 Z" id="Stroke-377" stroke="#0F81E0" stroke-width="2" stroke-linejoin="round" sketch:type="MSShapeGroup"></path>
                <path d="M11.221,28.156 C11.405,27.473 12.024,27 12.731,27 L47,27 L47,15 L32,0 L9,0 L9,34.244 L11.221,28.156 L11.221,28.156 Z" id="Fill-390" fill="#FFFFFF" sketch:type="MSShapeGroup"></path>
                <path d="M11.221,28.156 C11.405,27.473 12.024,27 12.731,27 L47,27 L47,15 L32,0 L9,0 L9,34.244 L11.221,28.156 L11.221,28.156 Z" id="Stroke-391" stroke="#0F81E0" stroke-width="2" stroke-linejoin="round" sketch:type="MSShapeGroup"></path>
                <path d="M51.268,18 L47,18 L47,27 L53,27 L53,19.732 C53,18.775 52.224,18 51.268,18 L51.268,18 Z" id="Fill-392" fill="#C6E3F8" sketch:type="MSShapeGroup"></path>
                <path d="M51.268,18 L47,18 L47,27 L53,27 L53,19.732 C53,18.775 52.224,18 51.268,18 L51.268,18 Z" id="Stroke-393" stroke="#0F81E0" stroke-width="2" stroke-linejoin="round" sketch:type="MSShapeGroup"></path>
                <path d="M9,11 L2.732,11 C1.776,11 1,11.775 1,12.732 L1,55.46 C1.069,55.462 1.138,55.466 1.205,55.47 L9,34.212 L9,11 L9,11 Z" id="Fill-394" fill="#C6E3F8" sketch:type="MSShapeGroup"></path>
                <path d="M9,11 L2.732,11 C1.776,11 1,11.775 1,12.732 L1,55.46 C1.069,55.462 1.138,55.466 1.205,55.47 L9,34.212 L9,11 L9,11 Z" id="Stroke-395" stroke="#0F81E0" stroke-width="2" stroke-linejoin="round" sketch:type="MSShapeGroup"></path>
                <path d="M16,15 L26,15 M16,8 L26,8 M16,22 L40,22" id="Stroke-586" stroke="#0F81E0" stroke-width="2" stroke-linecap="round" stroke-linejoin="round" sketch:type="MSShapeGroup"></path>
                <path d="M46.712,15 L32,15 L32,0.288 C32,0.182 32.129,0.128 32.204,0.203 L46.796,14.796 C46.871,14.871 46.818,15 46.712,15 L46.712,15 Z" id="Fill-587" fill="#C6E3F8" sketch:type="MSShapeGroup"></path>
                <path d="M46.712,15 L32,15 L32,0.288 C32,0.182 32.129,0.128 32.204,0.203 L46.796,14.796 C46.871,14.871 46.818,15 46.712,15 L46.712,15 Z" id="Stroke-588" stroke="#0F81E0" stroke-width="2" stroke-linejoin="round" sketch:type="MSShapeGroup"></path>
            </g>
        </g>
    </g>
</svg>