<?xml version="1.0" encoding="UTF-8" standalone="no"?>
<svg width="60px" height="49px" viewBox="0 0 60 49" version="1.1" xmlns="http://www.w3.org/2000/svg" xmlns:xlink="http://www.w3.org/1999/xlink" xmlns:sketch="http://www.bohemiancoding.com/sketch/ns">
    <!-- Generator: Sketch 3.2.2 (9983) - http://www.bohemiancoding.com/sketch -->
    <title>58 - Document Folder (Webby)</title>
    <desc>Created with Sketch.</desc>
    <defs></defs>
    <g id="Page-1" stroke="none" stroke-width="1" fill="none" fill-rule="evenodd" sketch:type="MSPage">
        <g id="Icons" sketch:type="MSArtboardGroup" transform="translate(-360.000000, -4201.000000)">
            <g id="58---Document-Folder-(Webby)" sketch:type="MSLayerGroup" transform="translate(360.000000, 4202.000000)">
                <path d="M47.324,47 L2.565,47 C1.535,47 0.786,46.022 1.055,45.027 L11.221,17.156 C11.405,16.474 12.024,16 12.731,16 L57.49,16 C58.52,16 59,16.984 59,17.973 L48.834,45.843 C48.65,46.526 48.031,47 47.324,47 L47.324,47 Z" id="Fill-386" fill="#C6E3F8" sketch:type="MSShapeGroup"></path>
                <path d="M47.324,47 L2.565,47 C1.535,47 0.786,46.022 1.055,45.027 L11.221,17.156 C11.405,16.474 12.024,16 12.731,16 L57.49,16 C58.52,16 59,16.984 59,17.973 L48.834,45.843 C48.65,46.526 48.031,47 47.324,47 L47.324,47 Z" id="Stroke-389" stroke="#0F81E0" stroke-width="2" stroke-linejoin="round" sketch:type="MSShapeGroup"></path>
                <path d="M11.221,17.156 C11.405,16.473 12.024,16 12.731,16 L54,16 L54,9 L10,9 L4,15 L4,36.953 L11.221,17.156 L11.221,17.156 Z" id="Fill-404" fill="#FFFFFF" sketch:type="MSShapeGroup"></path>
                <path d="M11.221,17.156 C11.405,16.473 12.024,16 12.731,16 L54,16 L54,9 L10,9 L4,15 L4,36.953 L11.221,17.156 L11.221,17.156 Z" id="Stroke-405" stroke="#0F81E0" stroke-width="2" stroke-linejoin="round" sketch:type="MSShapeGroup"></path>
                <path d="M24.571,5 L21,0 L2.732,0 C1.776,0 1,0.775 1,1.732 L1,44.46 C1.069,44.462 1.138,44.466 1.205,44.47 L4,36.849 L4,15 L6,13 L6,5 L24.571,5 L24.571,5 Z" id="Fill-406" fill="#C6E3F8" sketch:type="MSShapeGroup"></path>
                <path d="M24.571,5 L21,0 L2.732,0 C1.776,0 1,0.775 1,1.732 L1,44.46 C1.069,44.462 1.138,44.466 1.205,44.47 L4,36.849 L4,15 L6,13 L6,5 L24.571,5 L24.571,5 Z" id="Stroke-407" stroke="#0F81E0" stroke-width="2" stroke-linejoin="round" sketch:type="MSShapeGroup"></path>
                <path d="M6,5 L6,13 L10,9 L52,9 L52,5 L6,5 L6,5 Z" id="Fill-408" fill="#FFFFFF" sketch:type="MSShapeGroup"></path>
                <path d="M6,5 L6,13 L10,9 L52,9 L52,5 L6,5 L6,5 Z" id="Stroke-409" stroke="#0F81E0" stroke-width="2" stroke-linejoin="round" sketch:type="MSShapeGroup"></path>
                <path d="M30,16 L30,14 M37,16 L37,14 M44,16 L44,14 M16,16 L16,14 M23,16 L23,14" id="Stroke-589" stroke="#0F81E0" stroke-width="2" stroke-linecap="round" stroke-linejoin="round" sketch:type="MSShapeGroup"></path>
                <path d="M10,9 L10,15 L4,15" id="Stroke-590" stroke="#0F81E0" stroke-width="2" stroke-linejoin="round" sketch:type="MSShapeGroup"></path>
            </g>
        </g>
    </g>
</svg>