<?xml version="1.0" encoding="UTF-8" standalone="no"?>
<svg width="60px" height="60px" viewBox="0 0 60 60" version="1.1" xmlns="http://www.w3.org/2000/svg" xmlns:xlink="http://www.w3.org/1999/xlink" xmlns:sketch="http://www.bohemiancoding.com/sketch/ns">
    <!-- Generator: Sketch 3.2.2 (9983) - http://www.bohemiancoding.com/sketch -->
    <title>6 - Box Archive (Webby)</title>
    <desc>Created with Sketch.</desc>
    <defs></defs>
    <g id="Page-1" stroke="none" stroke-width="1" fill="none" fill-rule="evenodd" sketch:type="MSPage">
        <g id="Icons" sketch:type="MSArtboardGroup" transform="translate(-600.000000, -4797.000000)">
            <g id="6---Box-Archive-(Webby)" sketch:type="MSLayerGroup" transform="translate(601.000000, 4798.000000)">
                <path d="M58,17 L0,17 L0,7.311 C0,7.139 0.139,7 0.311,7 L57.689,7 C57.861,7 58,7.139 58,7.311 L58,17 L58,17 Z" id="Fill-456" fill="#FFFFFF" sketch:type="MSShapeGroup"></path>
                <path d="M58,17 L0,17 L0,7.311 C0,7.139 0.139,7 0.311,7 L57.689,7 C57.861,7 58,7.139 58,7.311 L58,17 L58,17 Z" id="Stroke-457" stroke="#0F81E0" stroke-width="2" stroke-linejoin="round" sketch:type="MSShapeGroup"></path>
                <path d="M57.778,7 L0.222,7 C0.135,7 0.088,6.897 0.145,6.831 L6,0 L52,0 L57.855,6.831 C57.912,6.897 57.865,7 57.778,7 L57.778,7 Z" id="Fill-458" fill="#C6E3F8" sketch:type="MSShapeGroup"></path>
                <path d="M57.778,7 L0.222,7 C0.135,7 0.088,6.897 0.145,6.831 L6,0 L52,0 L57.855,6.831 C57.912,6.897 57.865,7 57.778,7 L57.778,7 Z" id="Stroke-459" stroke="#0F81E0" stroke-width="2" stroke-linejoin="round" sketch:type="MSShapeGroup"></path>
                <path d="M3,17 L55,17 L55,58 L3,58 L3,17 Z" id="Fill-460" fill="#FFFFFF" sketch:type="MSShapeGroup"></path>
                <path d="M3,17 L55,17 L55,58 L3,58 L3,17 Z" id="Stroke-461" stroke="#0F81E0" stroke-width="2" stroke-linejoin="round" sketch:type="MSShapeGroup"></path>
                <path d="M18,23 L40,23 L40,31 L18,31 L18,23 Z" id="Fill-462" fill="#C6E3F8" sketch:type="MSShapeGroup"></path>
                <path d="M18,23 L40,23 L40,31 L18,31 L18,23 Z" id="Stroke-463" stroke="#0F81E0" stroke-width="2" stroke-linejoin="round" sketch:type="MSShapeGroup"></path>
                <path d="M15,38 L43,38 L43,50 L15,50 L15,38 Z" id="Fill-464" fill="#C6E3F8" sketch:type="MSShapeGroup"></path>
                <path d="M15,38 L43,38 L43,50 L15,50 L15,38 Z" id="Stroke-465" stroke="#0F81E0" stroke-width="2" stroke-linejoin="round" sketch:type="MSShapeGroup"></path>
                <path d="M21,46 L26,46 M26,42 L37,42 M37,46 L36,46" id="Stroke-466" stroke="#0F81E0" stroke-width="2" stroke-linecap="round" stroke-linejoin="round" sketch:type="MSShapeGroup"></path>
            </g>
        </g>
    </g>
</svg>