<?xml version="1.0" encoding="UTF-8" standalone="no"?>
<svg width="60px" height="53px" viewBox="0 0 60 53" version="1.1" xmlns="http://www.w3.org/2000/svg" xmlns:xlink="http://www.w3.org/1999/xlink" xmlns:sketch="http://www.bohemiancoding.com/sketch/ns">
    <!-- Generator: Sketch 3.2.2 (9983) - http://www.bohemiancoding.com/sketch -->
    <title>70 - Folder (Webby)</title>
    <desc>Created with Sketch.</desc>
    <defs></defs>
    <g id="Page-1" stroke="none" stroke-width="1" fill="none" fill-rule="evenodd" sketch:type="MSPage">
        <g id="Icons" sketch:type="MSArtboardGroup" transform="translate(-120.000000, -4080.000000)">
            <g id="70---Folder-(Webby)" sketch:type="MSLayerGroup" transform="translate(121.000000, 4081.000000)">
                <path d="M25,7 L20,0 L0,0 L0,51 L58,51 L58,7 L25,7 L25,7 Z" id="Fill-302" fill="#FFFFFF" sketch:type="MSShapeGroup"></path>
                <path d="M25,7 L20,0 L0,0 L0,51 L58,51 L58,7 L25,7 L25,7 Z" id="Stroke-303" stroke="#0F81E0" stroke-width="2" stroke-linejoin="round" sketch:type="MSShapeGroup"></path>
                <path d="M20,0 L30,13.969" id="Stroke-304" stroke="#0F81E0" stroke-width="2" stroke-linecap="round" stroke-linejoin="round" sketch:type="MSShapeGroup"></path>
                <path d="M34,34 L53,34 L53,46 L34,46 L34,34 Z" id="Fill-366" fill="#C6E3F8" sketch:type="MSShapeGroup"></path>
                <path d="M34,34 L53,34 L53,46 L34,46 L34,34 Z" id="Stroke-367" stroke="#0F81E0" stroke-width="2" stroke-linejoin="round" sketch:type="MSShapeGroup"></path>
                <path d="M42,38 L38,38 L42,38 L42,38 Z M47,38 L46,38 L47,38 L47,38 Z M49,42 L38,42 L49,42 L49,42 Z" id="Stroke-368" stroke="#0F81E0" stroke-width="2" stroke-linecap="round" stroke-linejoin="round" sketch:type="MSShapeGroup"></path>
                <path d="M30,14 L58,14" id="Path" stroke="#0F81E0" stroke-width="2" stroke-linejoin="round" sketch:type="MSShapeGroup"></path>
            </g>
        </g>
    </g>
</svg>