<?xml version="1.0" encoding="UTF-8" standalone="no"?>
<svg width="56px" height="61px" viewBox="0 0 56 61" version="1.1" xmlns="http://www.w3.org/2000/svg" xmlns:xlink="http://www.w3.org/1999/xlink" xmlns:sketch="http://www.bohemiancoding.com/sketch/ns">
    <!-- Generator: Sketch 3.2.2 (9983) - http://www.bohemiancoding.com/sketch -->
    <title>71 - Tracked Time (Webby)</title>
    <desc>Created with Sketch.</desc>
    <defs></defs>
    <g id="Page-1" stroke="none" stroke-width="1" fill="none" fill-rule="evenodd" sketch:type="MSPage">
        <g id="Icons" sketch:type="MSArtboardGroup" transform="translate(-1201.000000, -3957.000000)">
            <g id="71---Tracked-Time-(Webby)" sketch:type="MSLayerGroup" transform="translate(1202.000000, 3958.000000)">
                <path d="M40,22.121 L40,22.121 L30.637,35.065 C29.71,36.339 27.865,36.484 26.751,35.37 C25.637,34.257 25.782,32.411 27.056,31.484 L40,22.121 L40,22.121 Z" id="Fill-212" fill="#C6E3F8" sketch:type="MSShapeGroup"></path>
                <path d="M40,22.121 L40,22.121 L30.637,35.065 C29.71,36.339 27.865,36.484 26.751,35.37 C25.637,34.257 25.782,32.411 27.056,31.484 L40,22.121 L40,22.121 Z" id="Stroke-213" stroke="#0F81E0" stroke-width="2" stroke-linecap="round" stroke-linejoin="round" sketch:type="MSShapeGroup"></path>
                <path d="M26,6.205 C26.661,6.155 27.326,6.121 28,6.121 C28.674,6.121 29.339,6.155 30,6.205 L30,3.121 L32.5,3.121 C33.328,3.121 34,2.45 34,1.621 C34,0.793 33.328,0.121 32.5,0.121 L23.5,0.121 C22.672,0.121 22,0.793 22,1.621 C22,2.45 22.672,3.121 23.5,3.121 L26,3.121 L26,6.205 L26,6.205 Z" id="Fill-214" fill="#FFFFFF" sketch:type="MSShapeGroup"></path>
                <path d="M26,6.205 C26.661,6.155 27.326,6.121 28,6.121 C28.674,6.121 29.339,6.155 30,6.205 L30,3.121 L32.5,3.121 C33.328,3.121 34,2.45 34,1.621 C34,0.793 33.328,0.121 32.5,0.121 L23.5,0.121 C22.672,0.121 22,0.793 22,1.621 C22,2.45 22.672,3.121 23.5,3.121 L26,3.121 L26,6.205 L26,6.205 Z" id="Stroke-215" stroke="#0F81E0" stroke-width="2" stroke-linecap="round" stroke-linejoin="round" sketch:type="MSShapeGroup"></path>
                <path d="M46.222,13.736 L49.757,10.201" id="Stroke-216" stroke="#0F81E0" stroke-width="2" stroke-linecap="round" stroke-linejoin="round" sketch:type="MSShapeGroup"></path>
                <path d="M54,8.787 L51.172,11.615 L48.343,8.787 L51.172,5.958 L54,8.787 L54,8.787 Z" id="Fill-217" fill="#FFFFFF" sketch:type="MSShapeGroup"></path>
                <path d="M54,8.787 L51.172,11.615 L48.343,8.787 L51.172,5.958 L54,8.787 L54,8.787 Z" id="Stroke-218" stroke="#0F81E0" stroke-width="2" stroke-linecap="round" stroke-linejoin="round" sketch:type="MSShapeGroup"></path>
                <path d="M28,6.121 L28,9.121 M28,55.121 L28,58.121 M53.837,32.121 L50.837,32.121 M40.837,9.605 L39.337,12.203 M50.354,45.121 L47.756,43.621 M39.337,52.04 L40.837,54.638 M50.354,19.121 L47.756,20.621" id="Stroke-219" stroke="#0F81E0" stroke-width="2" stroke-linecap="round" stroke-linejoin="round" sketch:type="MSShapeGroup"></path>
                <path d="M22,57.455 C23.877,57.886 25.829,58.121 27.837,58.121 C42.196,58.121 53.837,46.481 53.837,32.121 C53.837,17.762 42.196,6.121 27.837,6.121 C25.829,6.121 23.877,6.356 22,6.787 M14,14.121 L19,14.121 M9,21.121 L19,21.121 M4,28.121 L19,28.121 M0,35.121 L19,35.121 M6,42.121 L19,42.121 M12,49.121 L19,49.121" id="Stroke-228" stroke="#0F81E0" stroke-width="2" stroke-linecap="round" stroke-linejoin="round" sketch:type="MSShapeGroup"></path>
            </g>
        </g>
    </g>
</svg>