<?xml version="1.0" encoding="UTF-8" standalone="no"?>
<svg width="60px" height="61px" viewBox="0 0 60 61" version="1.1" xmlns="http://www.w3.org/2000/svg" xmlns:xlink="http://www.w3.org/1999/xlink" xmlns:sketch="http://www.bohemiancoding.com/sketch/ns">
    <!-- Generator: Sketch 3.2.2 (9983) - http://www.bohemiancoding.com/sketch -->
    <title>73 - Stopwatch (Webby)</title>
    <desc>Created with Sketch.</desc>
    <defs></defs>
    <g id="Page-1" stroke="none" stroke-width="1" fill="none" fill-rule="evenodd" sketch:type="MSPage">
        <g id="Icons" sketch:type="MSArtboardGroup" transform="translate(-960.000000, -3957.000000)">
            <g id="73---Stopwatch-(Webby)" sketch:type="MSLayerGroup" transform="translate(961.000000, 3958.000000)">
                <path d="M29,13.413 L29,0.121 C45.016,0.121 58,13.105 58,29.121 C58,45.138 45.016,58.121 29,58.121 C12.984,58.121 0,45.138 0,29.121 C0,21.131 3.231,13.896 8.458,8.651" id="Path" stroke="#0F81E0" stroke-width="2" stroke-linecap="round" stroke-linejoin="round" sketch:type="MSShapeGroup"></path>
                <path d="M19,19.121 L19,19.121 L31.944,28.484 C33.218,29.411 33.363,31.257 32.249,32.37 C31.135,33.484 29.29,33.339 28.363,32.065 L19,19.121 L19,19.121 Z" id="Fill-135" fill="#C6E3F8" sketch:type="MSShapeGroup"></path>
                <path d="M19,19.121 L19,19.121 L31.944,28.484 C33.218,29.411 33.363,31.257 32.249,32.37 C31.135,33.484 29.29,33.339 28.363,32.065 L19,19.121 L19,19.121 Z" id="Stroke-136" stroke="#0F81E0" stroke-width="2" stroke-linecap="round" stroke-linejoin="round" sketch:type="MSShapeGroup"></path>
            </g>
        </g>
    </g>
</svg>