<?xml version="1.0" encoding="UTF-8" standalone="no"?>
<svg width="60px" height="61px" viewBox="0 0 60 61" version="1.1" xmlns="http://www.w3.org/2000/svg" xmlns:xlink="http://www.w3.org/1999/xlink" xmlns:sketch="http://www.bohemiancoding.com/sketch/ns">
    <!-- Generator: Sketch 3.2.2 (9983) - http://www.bohemiancoding.com/sketch -->
    <title>76 - Time (Webby)</title>
    <desc>Created with Sketch.</desc>
    <defs></defs>
    <g id="Page-1" stroke="none" stroke-width="1" fill="none" fill-rule="evenodd" sketch:type="MSPage">
        <g id="Icons" sketch:type="MSArtboardGroup" transform="translate(-600.000000, -3957.000000)">
            <g id="76---Time-(Webby)" sketch:type="MSLayerGroup" transform="translate(601.000000, 3958.000000)">
                <path d="M58,29.121 C58,45.138 45.016,58.121 29,58.121 C12.984,58.121 0,45.138 0,29.121 C0,13.105 12.984,0.121 29,0.121 C45.016,0.121 58,13.105 58,29.121 L58,29.121 Z" id="Fill-187" fill="#FFFFFF" sketch:type="MSShapeGroup"></path>
                <path d="M58,29.121 C58,45.138 45.016,58.121 29,58.121 C12.984,58.121 0,45.138 0,29.121 C0,13.105 12.984,0.121 29,0.121 C45.016,0.121 58,13.105 58,29.121 L58,29.121 Z" id="Stroke-188" stroke="#0F81E0" stroke-width="2" stroke-linecap="round" stroke-linejoin="round" sketch:type="MSShapeGroup"></path>
                <path d="M29,30.121 L29,6.121 M29,30.121 L13,30.121" id="Stroke-191" stroke="#0F81E0" stroke-width="2" stroke-linecap="round" stroke-linejoin="round" sketch:type="MSShapeGroup"></path>
            </g>
        </g>
    </g>
</svg>