<?xml version="1.0" encoding="UTF-8" standalone="no"?>
<svg width="58px" height="60px" viewBox="0 0 58 60" version="1.1" xmlns="http://www.w3.org/2000/svg" xmlns:xlink="http://www.w3.org/1999/xlink" xmlns:sketch="http://www.bohemiancoding.com/sketch/ns">
    <!-- Generator: Sketch 3.2.2 (9983) - http://www.bohemiancoding.com/sketch -->
    <title>78 - Alarm Clock (Webby)</title>
    <desc>Created with Sketch.</desc>
    <defs></defs>
    <g id="Page-1" stroke="none" stroke-width="1" fill="none" fill-rule="evenodd" sketch:type="MSPage">
        <g id="Icons" sketch:type="MSArtboardGroup" transform="translate(-361.000000, -3958.000000)">
            <g id="78---Alarm-Clock-(Webby)" sketch:type="MSLayerGroup" transform="translate(362.000000, 3959.000000)">
                <path d="M15.932,53.189 L12,57.121 M44,57.121 L40.037,53.158" id="Stroke-128" stroke="#0F81E0" stroke-width="2" stroke-linecap="round" stroke-linejoin="round" sketch:type="MSShapeGroup"></path>
                <path d="M53.914,3.05 C56.695,5.831 56.695,10.34 53.914,13.121 L43.843,3.05 C46.624,0.269 51.133,0.269 53.914,3.05 L53.914,3.05 Z" id="Fill-129" fill="#FFFFFF" sketch:type="MSShapeGroup"></path>
                <path d="M53.914,3.05 C56.695,5.831 56.695,10.34 53.914,13.121 L43.843,3.05 C46.624,0.269 51.133,0.269 53.914,3.05 L53.914,3.05 Z" id="Stroke-130" stroke="#0F81E0" stroke-width="2" stroke-linecap="round" stroke-linejoin="round" sketch:type="MSShapeGroup"></path>
                <path d="M49.093,8.335 L46.093,11.335" id="Stroke-131" stroke="#0F81E0" stroke-width="2" stroke-linecap="round" stroke-linejoin="round" sketch:type="MSShapeGroup"></path>
                <path d="M2.086,3.05 C-0.695,5.831 -0.695,10.34 2.086,13.121 L12.157,3.05 C9.376,0.269 4.867,0.269 2.086,3.05 L2.086,3.05 Z" id="Fill-132" fill="#FFFFFF" sketch:type="MSShapeGroup"></path>
                <path d="M2.086,3.05 C-0.695,5.831 -0.695,10.34 2.086,13.121 L12.157,3.05 C9.376,0.269 4.867,0.269 2.086,3.05 L2.086,3.05 Z" id="Stroke-133" stroke="#0F81E0" stroke-width="2" stroke-linecap="round" stroke-linejoin="round" sketch:type="MSShapeGroup"></path>
                <path d="M6.907,8.335 L9.907,11.335" id="Path" stroke="#0F81E0" stroke-width="2" stroke-linecap="round" stroke-linejoin="round" sketch:type="MSShapeGroup"></path>
                <path d="M54,30.121 C54,44.481 42.359,56.121 28,56.121 C13.641,56.121 2,44.481 2,30.121 C2,15.762 13.641,4.121 28,4.121 C42.359,4.121 54,15.762 54,30.121 L54,30.121 Z" id="Fill-137" fill="#FFFFFF" sketch:type="MSShapeGroup"></path>
                <path d="M54,30.121 C54,44.481 42.359,56.121 28,56.121 C13.641,56.121 2,44.481 2,30.121 C2,15.762 13.641,4.121 28,4.121 C42.359,4.121 54,15.762 54,30.121 L54,30.121 Z" id="Stroke-138" stroke="#0F81E0" stroke-width="2" stroke-linecap="round" stroke-linejoin="round" sketch:type="MSShapeGroup"></path>
                <path d="M28,8 L28,9" id="Path" stroke="#0F81E0" stroke-width="2" stroke-linecap="round" stroke-linejoin="round" sketch:type="MSShapeGroup"></path>
                <path d="M28,51 L28,52" id="Path" stroke="#0F81E0" stroke-width="2" stroke-linecap="round" stroke-linejoin="round" sketch:type="MSShapeGroup"></path>
                <path d="M50,30 L49,30" id="Path" stroke="#0F81E0" stroke-width="2" stroke-linecap="round" stroke-linejoin="round" sketch:type="MSShapeGroup"></path>
                <path d="M7,30 L6,30" id="Path" stroke="#0F81E0" stroke-width="2" stroke-linecap="round" stroke-linejoin="round" sketch:type="MSShapeGroup"></path>
                <path d="M43.556,14.444 L42.849,15.151" id="Path" stroke="#0F81E0" stroke-width="2" stroke-linecap="round" stroke-linejoin="round" sketch:type="MSShapeGroup"></path>
                <path d="M13.151,44.849 L12.444,45.556" id="Path" stroke="#0F81E0" stroke-width="2" stroke-linecap="round" stroke-linejoin="round" sketch:type="MSShapeGroup"></path>
                <path d="M43.556,45.556 L42.849,44.849" id="Path" stroke="#0F81E0" stroke-width="2" stroke-linecap="round" stroke-linejoin="round" sketch:type="MSShapeGroup"></path>
                <path d="M13.151,15.151 L12.444,14.444" id="Path" stroke="#0F81E0" stroke-width="2" stroke-linecap="round" stroke-linejoin="round" sketch:type="MSShapeGroup"></path>
                <path d="M31,30.121 L39,30.121 M28,27.121 L28,16.121" id="Stroke-571" stroke="#0F81E0" stroke-width="2" stroke-linecap="round" stroke-linejoin="round" sketch:type="MSShapeGroup"></path>
                <path d="M31,30.121 C31,31.778 29.657,33.121 28,33.121 C26.343,33.121 25,31.778 25,30.121 C25,28.465 26.343,27.121 28,27.121 C29.657,27.121 31,28.465 31,30.121 L31,30.121 Z" id="Fill-572" fill="#C6E3F8" sketch:type="MSShapeGroup"></path>
                <path d="M31,30.121 C31,31.778 29.657,33.121 28,33.121 C26.343,33.121 25,31.778 25,30.121 C25,28.465 26.343,27.121 28,27.121 C29.657,27.121 31,28.465 31,30.121 L31,30.121 Z" id="Stroke-573" stroke="#0F81E0" stroke-width="2" stroke-linecap="round" stroke-linejoin="round" sketch:type="MSShapeGroup"></path>
            </g>
        </g>
    </g>
</svg>