<?xml version="1.0" encoding="UTF-8" standalone="no"?>
<svg width="60px" height="61px" viewBox="0 0 60 61" version="1.1" xmlns="http://www.w3.org/2000/svg" xmlns:xlink="http://www.w3.org/1999/xlink" xmlns:sketch="http://www.bohemiancoding.com/sketch/ns">
    <!-- Generator: Sketch 3.2.2 (9983) - http://www.bohemiancoding.com/sketch -->
    <title>79 - Clock (Webby)</title>
    <desc>Created with Sketch.</desc>
    <defs></defs>
    <g id="Page-1" stroke="none" stroke-width="1" fill="none" fill-rule="evenodd" sketch:type="MSPage">
        <g id="Icons" sketch:type="MSArtboardGroup" transform="translate(-240.000000, -3957.000000)">
            <g id="79---Clock-(Webby)" sketch:type="MSLayerGroup" transform="translate(241.000000, 3958.000000)">
                <path d="M58,29.121 C58,45.138 45.016,58.121 29,58.121 C12.984,58.121 0,45.138 0,29.121 C0,13.105 12.984,0.121 29,0.121 C45.016,0.121 58,13.105 58,29.121 L58,29.121 Z" id="Fill-192" fill="#FFFFFF" sketch:type="MSShapeGroup"></path>
                <path d="M58,29.121 C58,45.138 45.016,58.121 29,58.121 C12.984,58.121 0,45.138 0,29.121 C0,13.105 12.984,0.121 29,0.121 C45.016,0.121 58,13.105 58,29.121 L58,29.121 Z" id="Stroke-193" stroke="#0F81E0" stroke-width="2" stroke-linecap="round" stroke-linejoin="round" sketch:type="MSShapeGroup"></path>
                <path d="M29,7 L29,8" id="Path" stroke="#0F81E0" stroke-width="2" stroke-linecap="round" stroke-linejoin="round" sketch:type="MSShapeGroup"></path>
                <path d="M29,50 L29,51" id="Path" stroke="#0F81E0" stroke-width="2" stroke-linecap="round" stroke-linejoin="round" sketch:type="MSShapeGroup"></path>
                <path d="M51,29 L50,29" id="Path" stroke="#0F81E0" stroke-width="2" stroke-linecap="round" stroke-linejoin="round" sketch:type="MSShapeGroup"></path>
                <path d="M8,29 L7,29" id="Path" stroke="#0F81E0" stroke-width="2" stroke-linecap="round" stroke-linejoin="round" sketch:type="MSShapeGroup"></path>
                <path d="M44.556,13.443 L43.849,14.151" id="Path" stroke="#0F81E0" stroke-width="2" stroke-linecap="round" stroke-linejoin="round" sketch:type="MSShapeGroup"></path>
                <path d="M14.151,43.849 L13.444,44.556" id="Path" stroke="#0F81E0" stroke-width="2" stroke-linecap="round" stroke-linejoin="round" sketch:type="MSShapeGroup"></path>
                <path d="M44.556,44.556 L43.849,43.849" id="Path" stroke="#0F81E0" stroke-width="2" stroke-linecap="round" stroke-linejoin="round" sketch:type="MSShapeGroup"></path>
                <path d="M14.151,14.151 L13.444,13.443" id="Path" stroke="#0F81E0" stroke-width="2" stroke-linecap="round" stroke-linejoin="round" sketch:type="MSShapeGroup"></path>
                <path d="M26,29 L18,29 M29,26 L29,15" id="Stroke-574" stroke="#0F81E0" stroke-width="2" stroke-linecap="round" stroke-linejoin="round" sketch:type="MSShapeGroup"></path>
                <path d="M26,29 C26,30.657 27.343,32 29,32 C30.657,32 32,30.657 32,29 C32,27.343 30.657,26 29,26 C27.343,26 26,27.343 26,29 L26,29 Z" id="Fill-575" fill="#C6E3F8" sketch:type="MSShapeGroup"></path>
                <path d="M26,29 C26,30.657 27.343,32 29,32 C30.657,32 32,30.657 32,29 C32,27.343 30.657,26 29,26 C27.343,26 26,27.343 26,29 L26,29 Z" id="Stroke-576" stroke="#0F81E0" stroke-width="2" stroke-linecap="round" stroke-linejoin="round" sketch:type="MSShapeGroup"></path>
            </g>
        </g>
    </g>
</svg>