<?xml version="1.0" encoding="UTF-8" standalone="no"?>
<svg width="60px" height="60px" viewBox="0 0 60 60" version="1.1" xmlns="http://www.w3.org/2000/svg" xmlns:xlink="http://www.w3.org/1999/xlink" xmlns:sketch="http://www.bohemiancoding.com/sketch/ns">
    <!-- Generator: Sketch 3.2.2 (9983) - http://www.bohemiancoding.com/sketch -->
    <title>8 - Spotlight (Webby)</title>
    <desc>Created with Sketch.</desc>
    <defs></defs>
    <g id="Page-1" stroke="none" stroke-width="1" fill="none" fill-rule="evenodd" sketch:type="MSPage">
        <g id="Icons" sketch:type="MSArtboardGroup" transform="translate(-360.000000, -4797.000000)">
            <g id="8---Spotlight-(Webby)" sketch:type="MSLayerGroup" transform="translate(361.000000, 4798.000000)">
                <path d="M25,5.5 C25,8.537 19.404,11 12.5,11 C5.596,11 0,8.537 0,5.5 C0,2.462 5.596,0 12.5,0 C19.404,0 25,2.462 25,5.5 L25,5.5 Z" id="Fill-327" fill="#C6E3F8" sketch:type="MSShapeGroup"></path>
                <path d="M25,5.5 C25,8.537 19.404,11 12.5,11 C5.596,11 0,8.537 0,5.5 C0,2.462 5.596,0 12.5,0 C19.404,0 25,2.462 25,5.5 L25,5.5 Z" id="Stroke-328" stroke="#0F81E0" stroke-width="2" stroke-linecap="round" stroke-linejoin="round" sketch:type="MSShapeGroup"></path>
                <path d="M58,5.5 C58,8.537 52.404,11 45.5,11 C38.596,11 33,8.537 33,5.5 C33,2.462 38.596,0 45.5,0 C52.404,0 58,2.462 58,5.5 L58,5.5 Z" id="Fill-329" fill="#C6E3F8" sketch:type="MSShapeGroup"></path>
                <path d="M58,5.5 C58,8.537 52.404,11 45.5,11 C38.596,11 33,8.537 33,5.5 C33,2.462 38.596,0 45.5,0 C52.404,0 58,2.462 58,5.5 L58,5.5 Z" id="Stroke-330" stroke="#0F81E0" stroke-width="2" stroke-linecap="round" stroke-linejoin="round" sketch:type="MSShapeGroup"></path>
                <path d="M58,5 L57.943,5 C57.951,5.042 57.951,5.085 57.957,5.128 L58,5 L58,5 Z" id="Fill-331" fill="#FFFFFF" sketch:type="MSShapeGroup"></path>
                <path d="M58,5 L57.943,5 C57.951,5.042 57.951,5.085 57.957,5.128 L58,5 L58,5 Z" id="Stroke-332" stroke="#0F81E0" stroke-width="2" stroke-linecap="round" stroke-linejoin="round" sketch:type="MSShapeGroup"></path>
                <path d="M45.5,11 C38.596,11 33,8.537 33,5.5 C33,5.331 33.024,5.165 33.057,5 L33,5 L0,58 L57,8 L57.188,7.436 C55.406,9.517 50.852,11 45.5,11 L45.5,11 Z" id="Fill-333" fill="#FFFFFF" sketch:type="MSShapeGroup"></path>
                <path d="M45.5,11 C38.596,11 33,8.537 33,5.5 C33,5.331 33.024,5.165 33.057,5 L33,5 L0,58 L57,8 L57.188,7.436 C55.406,9.517 50.852,11 45.5,11 L45.5,11 Z" id="Stroke-334" stroke="#0F81E0" stroke-width="2" stroke-linecap="round" stroke-linejoin="round" sketch:type="MSShapeGroup"></path>
                <path d="M20.488,25.094 L29,11.424 L25,5 L24.943,5 C24.976,5.165 25,5.331 25,5.5 C25,8.537 19.404,11 12.5,11 C7.148,11 2.594,9.517 0.812,7.436 L1,8 L20.488,25.094 L20.488,25.094 Z" id="Fill-335" fill="#FFFFFF" sketch:type="MSShapeGroup"></path>
                <path d="M20.488,25.094 L29,11.424 L25,5 L24.943,5 C24.976,5.165 25,5.331 25,5.5 C25,8.537 19.404,11 12.5,11 C7.148,11 2.594,9.517 0.812,7.436 L1,8 L20.488,25.094 L20.488,25.094 Z" id="Stroke-336" stroke="#0F81E0" stroke-width="2" stroke-linecap="round" stroke-linejoin="round" sketch:type="MSShapeGroup"></path>
                <path d="M29,32.562 L58,58 L37.512,25.094 L29,32.562 L29,32.562 Z" id="Fill-337" fill="#FFFFFF" sketch:type="MSShapeGroup"></path>
                <path d="M29,32.562 L58,58 L37.512,25.094 L29,32.562 L29,32.562 Z" id="Stroke-338" stroke="#0F81E0" stroke-width="2" stroke-linecap="round" stroke-linejoin="round" sketch:type="MSShapeGroup"></path>
                <path d="M45.5,11 C38.596,11 33,8.537 33,5.5 C33,5.331 33.024,5.165 33.057,5 L33,5 L0,58 L57,8 L57.188,7.436 C55.406,9.517 50.852,11 45.5,11 L45.5,11 Z" id="Fill-339" fill="#FFFFFF" sketch:type="MSShapeGroup"></path>
                <path d="M45.5,11 C38.596,11 33,8.537 33,5.5 C33,5.331 33.024,5.165 33.057,5 L33,5 L0,58 L57,8 L57.188,7.436 C55.406,9.517 50.852,11 45.5,11 L45.5,11 Z" id="Stroke-340" stroke="#0F81E0" stroke-width="2" stroke-linecap="round" stroke-linejoin="round" sketch:type="MSShapeGroup"></path>
            </g>
        </g>
    </g>
</svg>