<?xml version="1.0" encoding="UTF-8" standalone="no"?>
<svg width="60px" height="60px" viewBox="0 0 60 60" version="1.1" xmlns="http://www.w3.org/2000/svg" xmlns:xlink="http://www.w3.org/1999/xlink" xmlns:sketch="http://www.bohemiancoding.com/sketch/ns">
    <!-- Generator: Sketch 3.2.2 (9983) - http://www.bohemiancoding.com/sketch -->
    <title>80 - Clock (Webby)</title>
    <desc>Created with Sketch.</desc>
    <defs></defs>
    <g id="Page-1" stroke="none" stroke-width="1" fill="none" fill-rule="evenodd" sketch:type="MSPage">
        <g id="Icons" sketch:type="MSArtboardGroup" transform="translate(-120.000000, -3957.000000)">
            <g id="80---Clock-(Webby)" sketch:type="MSLayerGroup" transform="translate(121.000000, 3958.000000)">
                <path d="M0,0 L58,0 L58,58 L0,58 L0,0 Z" id="Fill-300" fill="#FFFFFF" sketch:type="MSShapeGroup"></path>
                <path d="M0,0 L58,0 L58,58 L0,58 L0,0 Z" id="Stroke-301" stroke="#0F81E0" stroke-width="2" stroke-linecap="round" stroke-linejoin="round" sketch:type="MSShapeGroup"></path>
                <path d="M29,7 L29,8 M29,50 L29,51 M51,29 L50,29 M8,29 L7,29 M50,8 L49.293,8.707 M8.854,49.146 L8.146,49.853 M49.854,49.853 L49.146,49.146 M8.5,8.5 L7.793,7.793" id="Stroke-577" stroke="#0F81E0" stroke-width="2" stroke-linecap="round" stroke-linejoin="round" sketch:type="MSShapeGroup"></path>
                <path d="M26,29 L18,29 M29,26 L29,15" id="Stroke-578" stroke="#0F81E0" stroke-width="2" stroke-linecap="round" stroke-linejoin="round" sketch:type="MSShapeGroup"></path>
                <path d="M26,29 C26,30.657 27.343,32 29,32 C30.657,32 32,30.657 32,29 C32,27.343 30.657,26 29,26 C27.343,26 26,27.343 26,29 L26,29 Z" id="Fill-579" fill="#C6E3F8" sketch:type="MSShapeGroup"></path>
                <path d="M26,29 C26,30.657 27.343,32 29,32 C30.657,32 32,30.657 32,29 C32,27.343 30.657,26 29,26 C27.343,26 26,27.343 26,29 L26,29 Z" id="Stroke-580" stroke="#0F81E0" stroke-width="2" stroke-linecap="round" stroke-linejoin="round" sketch:type="MSShapeGroup"></path>
            </g>
        </g>
    </g>
</svg>