<?xml version="1.0" encoding="UTF-8" standalone="no"?>
<svg width="60px" height="60px" viewBox="0 0 60 60" version="1.1" xmlns="http://www.w3.org/2000/svg" xmlns:xlink="http://www.w3.org/1999/xlink" xmlns:sketch="http://www.bohemiancoding.com/sketch/ns">
    <!-- Generator: Sketch 3.2.2 (9983) - http://www.bohemiancoding.com/sketch -->
    <title>81 - Print (Webby)</title>
    <desc>Created with Sketch.</desc>
    <defs></defs>
    <g id="Page-1" stroke="none" stroke-width="1" fill="none" fill-rule="evenodd" sketch:type="MSPage">
        <g id="Icons" sketch:type="MSArtboardGroup" transform="translate(-1200.000000, -3837.000000)">
            <g id="81---Print-(Webby)" sketch:type="MSLayerGroup" transform="translate(1201.000000, 3838.000000)">
                <path d="M9,0 L49,0 L49,17 L9,17 L9,0 Z" id="Fill-292" fill="#FFFFFF" sketch:type="MSShapeGroup"></path>
                <path d="M9,0 L49,0 L49,17 L9,17 L9,0 Z" id="Stroke-293" stroke="#0F81E0" stroke-width="2" stroke-linejoin="round" sketch:type="MSShapeGroup"></path>
                <path d="M49,35 L49,58 L9,58 L9,35" id="Fill-294" fill="#FFFFFF" sketch:type="MSShapeGroup"></path>
                <path d="M49,35 L49,58 L9,58 L9,35" id="Stroke-295" stroke="#0F81E0" stroke-width="2" stroke-linecap="round" stroke-linejoin="round" sketch:type="MSShapeGroup"></path>
                <path d="M17,43 L41,43 M17,48 L41,48" id="Stroke-296" stroke="#0F81E0" stroke-width="2" stroke-linecap="round" stroke-linejoin="round" sketch:type="MSShapeGroup"></path>
                <path d="M49,35 L49,52 L52,52 L52,49 L58,49 L58,17 L0,17 L0,49 L6,49 L6,52 L9,52 L9,35 L49,35 L49,35 Z" id="Fill-297" fill="#C6E3F8" sketch:type="MSShapeGroup"></path>
                <path d="M49,35 L49,52 L52,52 L52,49 L58,49 L58,17 L0,17 L0,49 L6,49 L6,52 L9,52 L9,35 L49,35 L49,35 Z" id="Stroke-298" stroke="#0F81E0" stroke-width="2" stroke-linecap="round" stroke-linejoin="round" sketch:type="MSShapeGroup"></path>
                <path d="M6,49 L6,44" id="Path" stroke="#0F81E0" stroke-width="2" stroke-linecap="round" stroke-linejoin="round" sketch:type="MSShapeGroup"></path>
                <path d="M52,49 L52,44" id="Path" stroke="#0F81E0" stroke-width="2" stroke-linecap="round" stroke-linejoin="round" sketch:type="MSShapeGroup"></path>
                <path d="M53,26 C53,28.209 51.209,30 49,30 C46.791,30 45,28.209 45,26 C45,23.791 46.791,22 49,22 C51.209,22 53,23.791 53,26 L53,26 Z" id="Fill-563" fill="#FFFFFF" sketch:type="MSShapeGroup"></path>
                <path d="M53,26 C53,28.209 51.209,30 49,30 C46.791,30 45,28.209 45,26 C45,23.791 46.791,22 49,22 C51.209,22 53,23.791 53,26 L53,26 Z" id="Stroke-564" stroke="#0F81E0" stroke-width="2" stroke-linejoin="round" sketch:type="MSShapeGroup"></path>
                <path d="M0,35 L58,35" id="Stroke-565" stroke="#0F81E0" stroke-width="2" stroke-linecap="round" stroke-linejoin="round" sketch:type="MSShapeGroup"></path>
            </g>
        </g>
    </g>
</svg>