<?xml version="1.0" encoding="UTF-8" standalone="no"?>
<svg width="56px" height="56px" viewBox="0 0 56 56" version="1.1" xmlns="http://www.w3.org/2000/svg" xmlns:xlink="http://www.w3.org/1999/xlink" xmlns:sketch="http://www.bohemiancoding.com/sketch/ns">
    <!-- Generator: Sketch 3.2.2 (9983) - http://www.bohemiancoding.com/sketch -->
    <title>83 - Edit (Webby)</title>
    <desc>Created with Sketch.</desc>
    <defs></defs>
    <g id="Page-1" stroke="none" stroke-width="1" fill="none" fill-rule="evenodd" sketch:type="MSPage">
        <g id="Icons" sketch:type="MSArtboardGroup" transform="translate(-963.000000, -3838.000000)">
            <g id="83---Edit-(Webby)" sketch:type="MSLayerGroup" transform="translate(964.000000, 3839.000000)">
                <path d="M15.594,50.464 L0.745,54 L4.281,39.151 L40.343,3.088 L51.657,14.402 L15.594,50.464 L15.594,50.464 Z" id="Fill-274" fill="#FFFFFF" sketch:type="MSShapeGroup"></path>
                <path d="M15.594,50.464 L0.745,54 L4.281,39.151 L40.343,3.088 L51.657,14.402 L15.594,50.464 L15.594,50.464 Z" id="Stroke-275" stroke="#0F81E0" stroke-width="2" stroke-linecap="round" stroke-linejoin="round" sketch:type="MSShapeGroup"></path>
                <path d="M4.281,39.151 L10.645,38.444 M9.938,44.807 L10.645,38.444 M9.938,44.807 L16.302,44.1 M15.594,50.464 L16.302,44.1 M9.938,44.807 L16.302,44.1 M0.745,54 L4,50.745" id="Stroke-276" stroke="#0F81E0" stroke-width="2" stroke-linecap="round" stroke-linejoin="round" sketch:type="MSShapeGroup"></path>
                <path d="M40.343,3.088 C43.467,-0.036 48.533,-0.036 51.657,3.088 C54.781,6.212 54.781,11.278 51.657,14.402 L40.343,3.088 L40.343,3.088 Z" id="Fill-277" fill="#C6E3F8" sketch:type="MSShapeGroup"></path>
                <path d="M40.343,3.088 C43.467,-0.036 48.533,-0.036 51.657,3.088 C54.781,6.212 54.781,11.278 51.657,14.402 L40.343,3.088 L40.343,3.088 Z" id="Stroke-278" stroke="#0F81E0" stroke-width="2" stroke-linecap="round" stroke-linejoin="round" sketch:type="MSShapeGroup"></path>
                <path d="M34.686,8.745 L46,20.059 M37.515,5.917 L48.828,17.23 M10.645,38.444 L33.272,15.816 M16.302,44.1 L38.929,21.473" id="Stroke-279" stroke="#0F81E0" stroke-width="2" stroke-linecap="round" stroke-linejoin="round" sketch:type="MSShapeGroup"></path>
            </g>
        </g>
    </g>
</svg>