<?xml version="1.0" encoding="UTF-8" standalone="no"?>
<svg width="56px" height="56px" viewBox="0 0 56 56" version="1.1" xmlns="http://www.w3.org/2000/svg" xmlns:xlink="http://www.w3.org/1999/xlink" xmlns:sketch="http://www.bohemiancoding.com/sketch/ns">
    <!-- Generator: Sketch 3.2.2 (9983) - http://www.bohemiancoding.com/sketch -->
    <title>85 - Key (Webby)</title>
    <desc>Created with Sketch.</desc>
    <defs></defs>
    <g id="Page-1" stroke="none" stroke-width="1" fill="none" fill-rule="evenodd" sketch:type="MSPage">
        <g id="Icons" sketch:type="MSArtboardGroup" transform="translate(-723.000000, -3839.000000)">
            <g id="85---Key-(Webby)" sketch:type="MSLayerGroup" transform="translate(724.000000, 3840.000000)">
                <path d="M54,15 C54,23.284 47.284,30 39,30 C30.716,30 24,23.284 24,15 C24,6.716 30.716,0 39,0 C47.284,0 54,6.716 54,15 L54,15 Z" id="Fill-250" fill="#FFFFFF" sketch:type="MSShapeGroup"></path>
                <path d="M54,15 C54,23.284 47.284,30 39,30 C30.716,30 24,23.284 24,15 C24,6.716 30.716,0 39,0 C47.284,0 54,6.716 54,15 L54,15 Z" id="Stroke-251" stroke="#0F81E0" stroke-width="2" stroke-linecap="round" stroke-linejoin="round" sketch:type="MSShapeGroup"></path>
                <path d="M27,24 L0,51 M5,46 L13,54 M10,41 L16,47 M15,36 L23,44" id="Stroke-252" stroke="#0F81E0" stroke-width="2" stroke-linecap="round" stroke-linejoin="round" sketch:type="MSShapeGroup"></path>
            </g>
        </g>
    </g>
</svg>