<?xml version="1.0" encoding="UTF-8" standalone="no"?>
<svg width="50px" height="52px" viewBox="0 0 50 52" version="1.1" xmlns="http://www.w3.org/2000/svg" xmlns:xlink="http://www.w3.org/1999/xlink" xmlns:sketch="http://www.bohemiancoding.com/sketch/ns">
    <!-- Generator: Sketch 3.2.2 (9983) - http://www.bohemiancoding.com/sketch -->
    <title>86 - Funnel (Webby)</title>
    <desc>Created with Sketch.</desc>
    <defs></defs>
    <g id="Page-1" stroke="none" stroke-width="1" fill="none" fill-rule="evenodd" sketch:type="MSPage">
        <g id="Icons" sketch:type="MSArtboardGroup" transform="translate(-606.000000, -3843.000000)">
            <g id="86---Funnel-(Webby)" sketch:type="MSLayerGroup" transform="translate(607.000000, 3844.000000)">
                <path d="M1.649,8.187 C1.628,8.173 1.607,8.199 1.623,8.22 L18.993,31.99 C18.997,31.996 19.005,32 19.012,32 L28.988,32 C28.996,32 29.003,31.996 29.007,31.99 L46.377,8.22 C46.393,8.199 46.372,8.173 46.351,8.187" id="Fill-246" fill="#FFFFFF" sketch:type="MSShapeGroup"></path>
                <path d="M1.649,8.187 C1.628,8.173 1.607,8.199 1.623,8.22 L18.993,31.99 C18.997,31.996 19.005,32 19.012,32 L28.988,32 C28.996,32 29.003,31.996 29.007,31.99 L46.377,8.22 C46.393,8.199 46.372,8.173 46.351,8.187" id="Stroke-247" stroke="#0F81E0" stroke-width="2" stroke-linejoin="round" sketch:type="MSShapeGroup"></path>
                <path d="M29,40 L19.105,49.895 C19.066,49.934 19,49.906 19,49.851 L19,32 L29,32 L29,40 L29,40 Z" id="Fill-248" fill="#FFFFFF" sketch:type="MSShapeGroup"></path>
                <path d="M29,40 L19.105,49.895 C19.066,49.934 19,49.906 19,49.851 L19,32 L29,32 L29,40 L29,40 Z" id="Stroke-249" stroke="#0F81E0" stroke-width="2" stroke-linejoin="round" sketch:type="MSShapeGroup"></path>
                <path d="M48,6 C48,9.314 37.255,12 24,12 C10.745,12 0,9.314 0,6 C0,2.686 10.745,0 24,0 C37.255,0 48,2.686 48,6 L48,6 Z" id="Fill-555" fill="#C6E3F8" sketch:type="MSShapeGroup"></path>
                <path d="M48,6 C48,9.314 37.255,12 24,12 C10.745,12 0,9.314 0,6 C0,2.686 10.745,0 24,0 C37.255,0 48,2.686 48,6 L48,6 Z" id="Stroke-556" stroke="#0F81E0" stroke-width="2" stroke-linejoin="round" sketch:type="MSShapeGroup"></path>
            </g>
        </g>
    </g>
</svg>