<?xml version="1.0" encoding="UTF-8" standalone="no"?>
<svg width="60px" height="60px" viewBox="0 0 60 60" version="1.1" xmlns="http://www.w3.org/2000/svg" xmlns:xlink="http://www.w3.org/1999/xlink" xmlns:sketch="http://www.bohemiancoding.com/sketch/ns">
    <!-- Generator: Sketch 3.2.2 (9983) - http://www.bohemiancoding.com/sketch -->
    <title>87 - Globe (Webby)</title>
    <desc>Created with Sketch.</desc>
    <defs></defs>
    <g id="Page-1" stroke="none" stroke-width="1" fill="none" fill-rule="evenodd" sketch:type="MSPage">
        <g id="Icons" sketch:type="MSArtboardGroup" transform="translate(-480.000000, -3837.000000)">
            <g id="87---Globe-(Webby)" sketch:type="MSLayerGroup" transform="translate(481.000000, 3838.000000)">
                <path d="M58,29 C58,45.016 45.016,58 29,58 C12.984,58 0,45.016 0,29 C0,12.984 12.984,0 29,0 C45.016,0 58,12.984 58,29 L58,29 Z" id="Fill-244" fill="#FFFFFF" sketch:type="MSShapeGroup"></path>
                <path d="M58,29 C58,45.016 45.016,58 29,58 C12.984,58 0,45.016 0,29 C0,12.984 12.984,0 29,0 C45.016,0 58,12.984 58,29 L58,29 Z" id="Stroke-245" stroke="#0F81E0" stroke-width="2" stroke-linecap="round" stroke-linejoin="round" sketch:type="MSShapeGroup"></path>
                <path d="M43.887,4.486 C44.007,4.445 44.106,4.374 44.207,4.307 C39.785,1.578 34.578,0 29,0 C22.866,0 17.181,1.909 12.496,5.159 C12.521,5.275 12.554,5.39 12.604,5.499 C14.582,9.762 17.128,16.996 21.473,18.662 C23.586,19.472 25.539,19.167 27.542,20.148 C27.757,20.253 28.069,20.496 28.203,20.694 C29.221,22.183 28.636,24.365 29.645,24.899 C30.444,25.321 30.898,26.184 30.557,27.021 C29.165,30.438 30.369,34.347 33.609,37.03 C35.89,38.918 33.992,43.295 32.073,46.73 C31.387,47.959 32.61,49.378 33.935,48.907 C36.031,48.162 37.766,47.081 39.776,45.352 C42.689,42.847 43.318,40.117 46.206,37.99 C46.238,37.967 46.262,37.938 46.275,37.9 C47.013,35.736 49.306,31.013 46.992,29.81 C44.832,28.688 44.024,25.439 41.916,23.225 C41.674,22.97 41.33,22.845 40.982,22.8 C38.398,22.467 37.236,20.501 35.497,21.808 C34.195,22.787 32.731,22.191 32.277,20.626 C32.129,20.116 31.868,19.661 30.931,19.372 C30.219,19.152 29.873,18.346 30.129,17.647 C30.133,17.637 30.137,17.626 30.14,17.616 C30.484,16.682 28.552,16.824 27.569,16.988 C27.294,17.034 28.228,15.923 27.921,16.104 C26.714,16.816 25.214,15.586 25.278,14.185 C25.344,12.764 25.609,12.832 28.045,12.552 C30.667,11.331 31.936,12.221 31.853,15.22 C33.474,15.46 34.04,14.743 33.551,13.071 C33.409,12.583 33.523,12.037 33.834,11.634 C36.82,7.749 39.315,6.055 43.887,4.486 L43.887,4.486 Z" id="Fill-491" fill="#C6E3F8" sketch:type="MSShapeGroup"></path>
                <path d="M43.887,4.486 C44.007,4.445 44.106,4.374 44.207,4.307 C39.785,1.578 34.578,0 29,0 C22.866,0 17.181,1.909 12.496,5.159 C12.521,5.275 12.554,5.39 12.604,5.499 C14.582,9.762 17.128,16.996 21.473,18.662 C23.586,19.472 25.539,19.167 27.542,20.148 C27.757,20.253 28.069,20.496 28.203,20.694 C29.221,22.183 28.636,24.365 29.645,24.899 C30.444,25.321 30.898,26.184 30.557,27.021 C29.165,30.438 30.369,34.347 33.609,37.03 C35.89,38.918 33.992,43.295 32.073,46.73 C31.387,47.959 32.61,49.378 33.935,48.907 C36.031,48.162 37.766,47.081 39.776,45.352 C42.689,42.847 43.318,40.117 46.206,37.99 C46.238,37.967 46.262,37.938 46.275,37.9 C47.013,35.736 49.306,31.013 46.992,29.81 C44.832,28.688 44.024,25.439 41.916,23.225 C41.674,22.97 41.33,22.845 40.982,22.8 C38.398,22.467 37.236,20.501 35.497,21.808 C34.195,22.787 32.731,22.191 32.277,20.626 C32.129,20.116 31.868,19.661 30.931,19.372 C30.219,19.152 29.873,18.346 30.129,17.647 C30.133,17.637 30.137,17.626 30.14,17.616 C30.484,16.682 28.552,16.824 27.569,16.988 C27.294,17.034 28.228,15.923 27.921,16.104 C26.714,16.816 25.214,15.586 25.278,14.185 C25.344,12.764 25.609,12.832 28.045,12.552 C30.667,11.331 31.936,12.221 31.853,15.22 C33.474,15.46 34.04,14.743 33.551,13.071 C33.409,12.583 33.523,12.037 33.834,11.634 C36.82,7.749 39.315,6.055 43.887,4.486 L43.887,4.486 Z" id="Stroke-492" stroke="#0F81E0" stroke-width="2" stroke-linecap="round" stroke-linejoin="round" sketch:type="MSShapeGroup"></path>
            </g>
        </g>
    </g>
</svg>