<?xml version="1.0" encoding="UTF-8" standalone="no"?>
<svg width="49px" height="55px" viewBox="0 0 49 55" version="1.1" xmlns="http://www.w3.org/2000/svg" xmlns:xlink="http://www.w3.org/1999/xlink" xmlns:sketch="http://www.bohemiancoding.com/sketch/ns">
    <!-- Generator: Sketch 3.2.2 (9983) - http://www.bohemiancoding.com/sketch -->
    <title>89 - Alarm (Webby)</title>
    <desc>Created with Sketch.</desc>
    <defs></defs>
    <g id="Page-1" stroke="none" stroke-width="1" fill="none" fill-rule="evenodd" sketch:type="MSPage">
        <g id="Icons" sketch:type="MSArtboardGroup" transform="translate(-246.000000, -3840.000000)">
            <g id="89---Alarm-(Webby)" sketch:type="MSLayerGroup" transform="translate(247.000000, 3841.000000)">
                <path d="M9.491,46.638 C20.193,48.486 26.15,48.486 36.851,46.638 L46.342,45 C41.656,40.343 39.024,34.585 39.024,28 L39.024,19 C39.063,12.953 35.068,8.522 31.079,6.699 C26.08,4.415 20.264,4.406 15.273,6.707 C11.319,8.53 7.038,12.958 7,19 L7,28 C7,34.585 4.685,40.343 0,45 L9.491,46.638 L9.491,46.638 Z" id="Fill-229" fill="#FFFFFF" sketch:type="MSShapeGroup"></path>
                <path d="M9.491,46.638 C20.193,48.486 26.15,48.486 36.851,46.638 L46.342,45 C41.656,40.343 39.024,34.585 39.024,28 L39.024,19 C39.063,12.953 35.068,8.522 31.079,6.699 C26.08,4.415 20.264,4.406 15.273,6.707 C11.319,8.53 7.038,12.958 7,19 L7,28 C7,34.585 4.685,40.343 0,45 L9.491,46.638 L9.491,46.638 Z" id="Stroke-230" stroke="#0F81E0" stroke-width="2" stroke-linecap="round" stroke-linejoin="round" sketch:type="MSShapeGroup"></path>
                <path d="M12,19 C12.026,14.828 15.385,12.161 17.366,11.248 C19.16,10.421 21.167,9.983 23.171,9.983 C25.176,9.983 27.191,10.42 29.001,11.247" id="Stroke-231" stroke="#0F81E0" stroke-width="2" stroke-linecap="round" stroke-linejoin="round" sketch:type="MSShapeGroup"></path>
                <path d="M27,5.381 L27,4 C27,1.791 25.209,0 23,0 C20.791,0 19,1.791 19,4 L19,5.453 C21.629,4.862 24.361,4.841 27,5.381 L27,5.381 Z" id="Fill-232" fill="#C6E3F8" sketch:type="MSShapeGroup"></path>
                <path d="M27,5.381 L27,4 C27,1.791 25.209,0 23,0 C20.791,0 19,1.791 19,4 L19,5.453 C21.629,4.862 24.361,4.841 27,5.381 L27,5.381 Z" id="Stroke-233" stroke="#0F81E0" stroke-width="2" stroke-linecap="round" stroke-linejoin="round" sketch:type="MSShapeGroup"></path>
                <path d="M14.906,47.46 C16.35,50.728 19.508,53 23.183,53 C26.859,53 30.017,50.726 31.461,47.457 C25.533,48.209 20.83,48.21 14.906,47.46 L14.906,47.46 Z" id="Fill-234" fill="#C6E3F8" sketch:type="MSShapeGroup"></path>
                <path d="M14.906,47.46 C16.35,50.728 19.508,53 23.183,53 C26.859,53 30.017,50.726 31.461,47.457 C25.533,48.209 20.83,48.21 14.906,47.46 L14.906,47.46 Z" id="Stroke-235" stroke="#0F81E0" stroke-width="2" stroke-linecap="round" stroke-linejoin="round" sketch:type="MSShapeGroup"></path>
            </g>
        </g>
    </g>
</svg>