<?xml version="1.0" encoding="UTF-8" standalone="no"?>
<svg width="57px" height="60px" viewBox="0 0 57 60" version="1.1" xmlns="http://www.w3.org/2000/svg" xmlns:xlink="http://www.w3.org/1999/xlink" xmlns:sketch="http://www.bohemiancoding.com/sketch/ns">
    <!-- Generator: Sketch 3.2.2 (9983) - http://www.bohemiancoding.com/sketch -->
    <title>9 - Search Phone (Webby)</title>
    <desc>Created with Sketch.</desc>
    <defs></defs>
    <g id="Page-1" stroke="none" stroke-width="1" fill="none" fill-rule="evenodd" sketch:type="MSPage">
        <g id="Icons" sketch:type="MSArtboardGroup" transform="translate(-241.000000, -4797.000000)">
            <g id="9---Search-Phone-(Webby)" sketch:type="MSLayerGroup" transform="translate(242.000000, 4798.000000)">
                <path d="M17.366,34.727 L0,51" id="Stroke-101" stroke="#0F81E0" stroke-width="2" stroke-linecap="round" stroke-linejoin="round" sketch:type="MSShapeGroup"></path>
                <path d="M51.594,0 L26.405,0 C24.525,0 23,1.525 23,3.405 L23,13.633 C24.261,13.226 25.603,13 27,13 C34.18,13 40,18.82 40,26 C40,33.179 34.18,39 27,39 C25.603,39 24.261,38.774 23,38.367 L23,54.595 C23,56.475 24.525,58 26.405,58 L51.594,58 C53.475,58 55,56.475 55,54.595 L55,3.405 C55,1.525 53.475,0 51.594,0 L51.594,0 Z" id="Fill-102" fill="#FFFFFF" sketch:type="MSShapeGroup"></path>
                <path d="M51.594,0 L26.405,0 C24.525,0 23,1.525 23,3.405 L23,13.633 C24.261,13.226 25.603,13 27,13 C34.18,13 40,18.82 40,26 C40,33.179 34.18,39 27,39 C25.603,39 24.261,38.774 23,38.367 L23,54.595 C23,56.475 24.525,58 26.405,58 L51.594,58 C53.475,58 55,56.475 55,54.595 L55,3.405 C55,1.525 53.475,0 51.594,0 L51.594,0 Z" id="Stroke-103" stroke="#0F81E0" stroke-width="2" stroke-linecap="round" stroke-linejoin="round" sketch:type="MSShapeGroup"></path>
                <path d="M42,52 C42,53.657 40.657,55 39,55 C37.343,55 36,53.657 36,52 C36,50.343 37.343,49 39,49 C40.657,49 42,50.343 42,52 L42,52 Z" id="Fill-489" fill="#C6E3F8" sketch:type="MSShapeGroup"></path>
                <path d="M42,52 C42,53.657 40.657,55 39,55 C37.343,55 36,53.657 36,52 C36,50.343 37.343,49 39,49 C40.657,49 42,50.343 42,52 L42,52 Z" id="Stroke-490" stroke="#0F81E0" stroke-width="2" stroke-linecap="round" stroke-linejoin="round" sketch:type="MSShapeGroup"></path>
                <path d="M23,46 L55,46 M23,6 L55,6 M35,3 L39,3 M42,3 L43,3" id="Stroke-491" stroke="#0F81E0" stroke-width="2" stroke-linecap="round" stroke-linejoin="round" sketch:type="MSShapeGroup"></path>
                <path d="M40,26 C40,33.179 34.18,39 27,39 C19.82,39 14,33.179 14,26 C14,18.82 19.82,13 27,13 C34.18,13 40,18.82 40,26 L40,26 Z" id="Fill-492" fill="#C6E3F8" sketch:type="MSShapeGroup"></path>
                <path d="M40,26 C40,33.179 34.18,39 27,39 C19.82,39 14,33.179 14,26 C14,18.82 19.82,13 27,13 C34.18,13 40,18.82 40,26 L40,26 Z" id="Stroke-493" stroke="#0F81E0" stroke-width="2" stroke-linecap="round" stroke-linejoin="round" sketch:type="MSShapeGroup"></path>
            </g>
        </g>
    </g>
</svg>