<?xml version="1.0" encoding="UTF-8" standalone="no"?>
<svg width="57px" height="55px" viewBox="0 0 57 55" version="1.1" xmlns="http://www.w3.org/2000/svg" xmlns:xlink="http://www.w3.org/1999/xlink" xmlns:sketch="http://www.bohemiancoding.com/sketch/ns">
    <!-- Generator: Sketch 3.2.2 (9983) - http://www.bohemiancoding.com/sketch -->
    <title>90 - Gift (Webby)</title>
    <desc>Created with Sketch.</desc>
    <defs></defs>
    <g id="Page-1" stroke="none" stroke-width="1" fill="none" fill-rule="evenodd" sketch:type="MSPage">
        <g id="Icons" sketch:type="MSArtboardGroup" transform="translate(-121.000000, -3841.000000)">
            <g id="90---Gift-(Webby)" sketch:type="MSLayerGroup" transform="translate(122.000000, 3842.000000)">
                <path d="M0,11 L55,11 L55,23 L0,23 L0,11 Z" id="Fill-441" fill="#C6E3F8" sketch:type="MSShapeGroup"></path>
                <path d="M0,11 L55,11 L55,23 L0,23 L0,11 Z" id="Stroke-442" stroke="#0F81E0" stroke-width="2" stroke-linecap="round" stroke-linejoin="round" sketch:type="MSShapeGroup"></path>
                <path d="M38.485,11 L39.25,10.235 C41.583,7.902 41.583,4.083 39.25,1.75 C36.917,-0.583 33.098,-0.583 30.765,1.75 L22.987,9.528 C22.546,9.969 22.216,10.473 21.941,11 L38.485,11 L38.485,11 Z M15.973,11 L21.942,11 C22.216,10.473 22.546,9.969 22.987,9.528 L27.229,5.286 L23.694,1.75 C21.36,-0.583 17.542,-0.583 15.208,1.75 C12.875,4.083 12.875,7.902 15.208,10.235 L15.973,11 L15.973,11 Z" id="Stroke-443" stroke="#0F81E0" stroke-width="2" stroke-linecap="round" stroke-linejoin="round" sketch:type="MSShapeGroup"></path>
                <path d="M5,53 L51,53 L51,23 L5,23 L5,53 Z" id="Fill-444" fill="#FFFFFF" sketch:type="MSShapeGroup"></path>
                <path d="M5,53 L51,53 L51,23 L5,23 L5,53 Z" id="Stroke-445" stroke="#0F81E0" stroke-width="2" stroke-linecap="round" stroke-linejoin="round" sketch:type="MSShapeGroup"></path>
                <path d="M28,11 L28,53" id="Path" stroke="#0F81E0" stroke-width="2" stroke-linecap="round" stroke-linejoin="round" sketch:type="MSShapeGroup"></path>
                <path d="M5,37 L51,37" id="Path" stroke="#0F81E0" stroke-width="2" stroke-linecap="round" stroke-linejoin="round" sketch:type="MSShapeGroup"></path>
            </g>
        </g>
    </g>
</svg>