<?xml version="1.0" encoding="UTF-8" standalone="no"?>
<svg width="60px" height="60px" viewBox="0 0 60 60" version="1.1" xmlns="http://www.w3.org/2000/svg" xmlns:xlink="http://www.w3.org/1999/xlink" xmlns:sketch="http://www.bohemiancoding.com/sketch/ns">
    <!-- Generator: Sketch 3.2.2 (9983) - http://www.bohemiancoding.com/sketch -->
    <title>92 - Settings (Webby)</title>
    <desc>Created with Sketch.</desc>
    <defs></defs>
    <g id="Page-1" stroke="none" stroke-width="1" fill="none" fill-rule="evenodd" sketch:type="MSPage">
        <g id="Icons" sketch:type="MSArtboardGroup" transform="translate(-1080.000000, -3717.000000)">
            <g id="92---Settings-(Webby)" sketch:type="MSLayerGroup" transform="translate(1081.000000, 3718.000000)">
                <path d="M54,29 C54,42.807 42.807,54 29,54 C15.193,54 4,42.807 4,29 C4,15.193 15.193,4 29,4 C42.807,4 54,15.193 54,29 L54,29 Z" id="Fill-165" fill="#FFFFFF" sketch:type="MSShapeGroup"></path>
                <path d="M54,29 C54,42.807 42.807,54 29,54 C15.193,54 4,42.807 4,29 C4,15.193 15.193,4 29,4 C42.807,4 54,15.193 54,29 L54,29 Z" id="Stroke-166" stroke="#0F81E0" stroke-width="2" stroke-linecap="round" stroke-linejoin="round" sketch:type="MSShapeGroup"></path>
                <path d="M22.53,4.852 L21.494,0.988 M36.506,57.012 L35.47,53.148 M54,29 L58,29 M0,29 L4,29 M46.678,46.677 L49.506,49.506 M8.494,8.494 L11.322,11.322 M46.678,11.322 L49.506,8.494 M8.494,49.506 L11.322,46.677 M16.5,7.349 L14.5,3.885 M43.5,54.115 L41.5,50.65 M29,54 L29,58 M29,0 L29,4 M7.349,16.5 L3.885,14.5 M54.115,43.5 L50.651,41.5 M4.852,22.529 L0.988,21.494 M57.012,36.506 L53.148,35.47 M4.852,35.47 L0.988,36.506 M57.012,21.494 L53.148,22.529 M7.349,41.5 L3.885,43.5 M54.115,14.5 L50.651,16.5 M41.5,7.349 L43.5,3.885 M14.5,54.115 L16.5,50.65 M35.47,4.852 L36.506,0.988 M21.494,57.012 L22.53,53.148" id="Stroke-167" stroke="#0F81E0" stroke-width="2" stroke-linecap="round" stroke-linejoin="round" sketch:type="MSShapeGroup"></path>
                <path d="M39,29 C39,34.523 34.523,39 29,39 C23.477,39 19,34.523 19,29 C19,23.477 23.477,19 29,19 C34.523,19 39,23.477 39,29 L39,29 Z" id="Fill-168" fill="#C6E3F8" sketch:type="MSShapeGroup"></path>
                <path d="M39,29 C39,34.523 34.523,39 29,39 C23.477,39 19,34.523 19,29 C19,23.477 23.477,19 29,19 C34.523,19 39,23.477 39,29 L39,29 Z" id="Stroke-169" stroke="#0F81E0" stroke-width="2" stroke-linecap="round" stroke-linejoin="round" sketch:type="MSShapeGroup"></path>
                <path d="M29,4 L29,19 M5.224,21.275 L19.489,25.91 M14.305,49.225 L23.122,37.09 M43.695,49.225 L34.878,37.09 M52.776,21.275 L38.511,25.91" id="Stroke-170" stroke="#0F81E0" stroke-width="2" stroke-linecap="round" stroke-linejoin="round" sketch:type="MSShapeGroup"></path>
                <path d="M30,29 C30,29.552 29.552,30 29,30 C28.448,30 28,29.552 28,29 C28,28.448 28.448,28 29,28 C29.552,28 30,28.448 30,29" id="Fill-171" fill="#0F81E0" sketch:type="MSShapeGroup"></path>
            </g>
        </g>
    </g>
</svg>