<?xml version="1.0" encoding="UTF-8" standalone="no"?>
<svg width="60px" height="60px" viewBox="0 0 60 60" version="1.1" xmlns="http://www.w3.org/2000/svg" xmlns:xlink="http://www.w3.org/1999/xlink" xmlns:sketch="http://www.bohemiancoding.com/sketch/ns">
    <!-- Generator: Sketch 3.2.2 (9983) - http://www.bohemiancoding.com/sketch -->
    <title>99 - Settings (Webby)</title>
    <desc>Created with Sketch.</desc>
    <defs></defs>
    <g id="Page-1" stroke="none" stroke-width="1" fill="none" fill-rule="evenodd" sketch:type="MSPage">
        <g id="Icons" sketch:type="MSArtboardGroup" transform="translate(-240.000000, -3717.000000)">
            <g id="99---Settings-(Webby)" sketch:type="MSLayerGroup" transform="translate(241.000000, 3718.000000)">
                <path d="M58,29 C58,45.016 45.016,58 29,58 C12.984,58 0,45.016 0,29 C0,12.984 12.984,0 29,0 C45.016,0 58,12.984 58,29 L58,29 Z" id="Fill-102" fill="#FFFFFF" sketch:type="MSShapeGroup"></path>
                <path d="M58,29 C58,45.016 45.016,58 29,58 C12.984,58 0,45.016 0,29 C0,12.984 12.984,0 29,0 C45.016,0 58,12.984 58,29 L58,29 Z" id="Stroke-103" stroke="#0F81E0" stroke-width="2" stroke-linecap="round" stroke-linejoin="round" sketch:type="MSShapeGroup"></path>
                <path d="M18,33.643 L16.897,35.555 M10,33.707 L10,31.5 M40,33.143 L41.103,35.055 M48,33.207 L48,31" id="Stroke-151" stroke="#0F81E0" stroke-width="2" stroke-linecap="round" stroke-linejoin="round" sketch:type="MSShapeGroup"></path>
                <path d="M23.645,8.015 L22.788,4.818 M12.029,11.029 L14.37,13.37 M43.63,13.37 L45.971,11.029 M18.655,10.082 L17,7.215 M29,4 L29,7.31 M11.082,17.655 L8.215,16 M9.015,22.645 L5.818,21.788 M52.182,21.788 L48.985,22.645 M49.785,16 L46.918,17.655 M39.345,10.082 L41,7.215 M34.355,8.015 L35.212,4.818" id="Stroke-179" stroke="#0F81E0" stroke-width="2" stroke-linecap="round" stroke-linejoin="round" sketch:type="MSShapeGroup"></path>
                <path d="M25.001,21.073 C28.826,18.864 33.718,20.175 35.927,24.001 C38.136,27.826 36.825,32.718 32.999,34.927 C29.174,37.136 24.282,35.825 22.073,31.999 C19.864,28.173 21.175,23.281 25.001,21.073 L25.001,21.073 Z" id="Fill-180" fill="#C6E3F8" sketch:type="MSShapeGroup"></path>
                <path d="M25.001,21.073 C28.826,18.864 33.718,20.175 35.927,24.001 C38.136,27.826 36.825,32.718 32.999,34.927 C29.174,37.136 24.282,35.825 22.073,31.999 C19.864,28.173 21.175,23.281 25.001,21.073 L25.001,21.073 Z" id="Stroke-181" stroke="#0F81E0" stroke-width="2" stroke-linecap="round" stroke-linejoin="round" sketch:type="MSShapeGroup"></path>
                <path d="M49.672,28.084 C49.69,24.54 48.818,20.946 46.918,17.655 C41.205,7.759 28.551,4.369 18.655,10.082 C11.998,13.926 8.302,20.911 8.324,28.084 M23.343,22.343 L14.151,13.151 M43.849,13.151 L34.657,22.343" id="Stroke-184" stroke="#0F81E0" stroke-width="2" stroke-linecap="round" stroke-linejoin="round" sketch:type="MSShapeGroup"></path>
                <path d="M3.104,35.555 C2.386,35.969 1.729,36.447 1.116,36.963 C3.786,46.327 11.036,53.759 20.296,56.669 C24.145,52.348 24.997,45.889 21.945,40.603 C18.136,34.006 9.701,31.746 3.104,35.555 L3.104,35.555 Z" id="Fill-524" fill="#FFFFFF" sketch:type="MSShapeGroup"></path>
                <path d="M3.104,35.555 C2.386,35.969 1.729,36.447 1.116,36.963 C3.786,46.327 11.036,53.759 20.296,56.669 C24.145,52.348 24.997,45.889 21.945,40.603 C18.136,34.006 9.701,31.746 3.104,35.555 L3.104,35.555 Z" id="Stroke-525" stroke="#0F81E0" stroke-width="2" stroke-linecap="round" stroke-linejoin="round" sketch:type="MSShapeGroup"></path>
                <path d="M56.998,36.561 C52.679,32.839 46.321,32.043 41.104,35.055 C34.506,38.864 32.246,47.299 36.055,53.896 C36.625,54.883 37.308,55.76 38.063,56.547 C47.282,53.516 54.457,45.991 56.998,36.561 L56.998,36.561 Z" id="Fill-526" fill="#FFFFFF" sketch:type="MSShapeGroup"></path>
                <path d="M56.998,36.561 C52.679,32.839 46.321,32.043 41.104,35.055 C34.506,38.864 32.246,47.299 36.055,53.896 C36.625,54.883 37.308,55.76 38.063,56.547 C47.282,53.516 54.457,45.991 56.998,36.561 L56.998,36.561 Z" id="Stroke-527" stroke="#0F81E0" stroke-width="2" stroke-linecap="round" stroke-linejoin="round" sketch:type="MSShapeGroup"></path>
                <path d="M21.945,40.603 L23.856,39.5 M26,47.5 L23.793,47.5 M3.103,35.555 L7.241,42.722 M22.601,53.11 L15.04,49.744 M19.229,37.25 L13.692,43.4 M36.055,40.103 L34.144,39 M34.207,47 L32,47 M41.103,35.055 L45.241,42.222 M34.508,49.868 L42.603,48.147" id="Stroke-528" stroke="#0F81E0" stroke-width="2" stroke-linecap="round" stroke-linejoin="round" sketch:type="MSShapeGroup"></path>
                <path d="M53.154,45.048 C53.05,44.774 52.929,44.503 52.778,44.241 C51.255,41.602 47.88,40.698 45.241,42.222 C42.603,43.745 41.698,47.12 43.222,49.758 C43.938,50.999 45.066,51.851 46.332,52.252 C48.998,50.262 51.307,47.822 53.154,45.048 L53.154,45.048 Z" id="Fill-529" fill="#C6E3F8" sketch:type="MSShapeGroup"></path>
                <path d="M53.154,45.048 C53.05,44.774 52.929,44.503 52.778,44.241 C51.255,41.602 47.88,40.698 45.241,42.222 C42.603,43.745 41.698,47.12 43.222,49.758 C43.938,50.999 45.066,51.851 46.332,52.252 C48.998,50.262 51.307,47.822 53.154,45.048 L53.154,45.048 Z" id="Stroke-530" stroke="#0F81E0" stroke-width="2" stroke-linecap="round" stroke-linejoin="round" sketch:type="MSShapeGroup"></path>
                <path d="M7.241,42.722 C6.197,43.325 5.43,44.219 4.972,45.241 C6.904,48.094 9.335,50.578 12.133,52.583 C12.345,52.494 12.555,52.396 12.759,52.278 C15.398,50.754 16.302,47.38 14.778,44.741 C13.255,42.102 9.88,41.198 7.241,42.722 L7.241,42.722 Z" id="Fill-531" fill="#C6E3F8" sketch:type="MSShapeGroup"></path>
                <path d="M7.241,42.722 C6.197,43.325 5.43,44.219 4.972,45.241 C6.904,48.094 9.335,50.578 12.133,52.583 C12.345,52.494 12.555,52.396 12.759,52.278 C15.398,50.754 16.302,47.38 14.778,44.741 C13.255,42.102 9.88,41.198 7.241,42.722 L7.241,42.722 Z" id="Stroke-532" stroke="#0F81E0" stroke-width="2" stroke-linecap="round" stroke-linejoin="round" sketch:type="MSShapeGroup"></path>
            </g>
        </g>
    </g>
</svg>