<?xml version="1.0" encoding="iso-8859-1"?>
<!-- Generator: Adobe Illustrator 16.0.0, SVG Export Plug-In . SVG Version: 6.00 Build 0)  -->
<!DOCTYPE svg PUBLIC "-//W3C//DTD SVG 1.1//EN" "http://www.w3.org/Graphics/SVG/1.1/DTD/svg11.dtd">
<svg version="1.1" id="Layer_1" xmlns="http://www.w3.org/2000/svg" xmlns:xlink="http://www.w3.org/1999/xlink" x="0px" y="0px"
	 width="64px" height="64px" viewBox="0 0 64 64" style="enable-background:new 0 0 64 64;" xml:space="preserve">
<g id="Base_10_">
	<g>
		<path style="fill-rule:evenodd;clip-rule:evenodd;fill:#88C057;" d="M60,34.001H4c-2.209,0-4,1.79-4,3.999v22.001
			C0,62.21,1.791,64,4,64h56c2.209,0,4-1.79,4-3.999V38C64,35.791,62.209,34.001,60,34.001z M60,0H4C1.791,0,0,1.791,0,4v22.001
			c0,2.209,1.791,4,4,4h56c2.209,0,4-1.791,4-4V4C64,1.791,62.209,0,60,0z"/>
	</g>
</g>
<g id="Container_10_">
	<g>
		<path style="fill-rule:evenodd;clip-rule:evenodd;fill:#FFFFFF;" d="M58,46H6c-1.104,0-2,0.896-2,2.001V58
			c0,1.104,0.896,2.001,2,2.001h52c1.104,0,2-0.896,2-2.001v-9.999C60,46.896,59.104,46,58,46z M58,12H6c-1.104,0-2,0.896-2,2v10
			c0,1.104,0.896,2.001,2,2.001h52c1.104,0,2-0.896,2-2.001V14C60,12.896,59.104,12,58,12z"/>
	</g>
</g>
<g id="Buttons_10_">
	<g>
		<path style="fill-rule:evenodd;clip-rule:evenodd;fill:#FFFFFF;" d="M6,37.979c-1.104,0-2,0.896-2,2.003
			c0,1.104,0.896,2.002,2,2.002s2-0.897,2-2.002C8,38.876,7.104,37.979,6,37.979z M12,37.979c-1.104,0-2,0.896-2,2.003
			c0,1.104,0.896,2.002,2,2.002s2-0.897,2-2.002C14,38.876,13.104,37.979,12,37.979z M18,37.979c-1.104,0-2,0.896-2,2.003
			c0,1.104,0.896,2.002,2,2.002s2-0.897,2-2.002C20,38.876,19.104,37.979,18,37.979z M6,3.979c-1.104,0-2,0.896-2,2.003
			c0,1.104,0.896,2.001,2,2.001s2-0.896,2-2.001C8,4.876,7.104,3.979,6,3.979z M12,3.979c-1.104,0-2,0.896-2,2.003
			c0,1.104,0.896,2.001,2,2.001s2-0.896,2-2.001C14,4.876,13.104,3.979,12,3.979z M18,7.983c1.104,0,2-0.896,2-2.001
			c0-1.106-0.896-2.003-2-2.003s-2,0.896-2,2.003C16,7.087,16.896,7.983,18,7.983z"/>
	</g>
</g>
<g>
</g>
<g>
</g>
<g>
</g>
<g>
</g>
<g>
</g>
<g>
</g>
<g>
</g>
<g>
</g>
<g>
</g>
<g>
</g>
<g>
</g>
<g>
</g>
<g>
</g>
<g>
</g>
<g>
</g>
</svg>
