<?xml version="1.0" encoding="iso-8859-1"?>
<!-- Generator: Adobe Illustrator 16.0.0, SVG Export Plug-In . SVG Version: 6.00 Build 0)  -->
<!DOCTYPE svg PUBLIC "-//W3C//DTD SVG 1.1//EN" "http://www.w3.org/Graphics/SVG/1.1/DTD/svg11.dtd">
<svg version="1.1" id="Layer_1" xmlns="http://www.w3.org/2000/svg" xmlns:xlink="http://www.w3.org/1999/xlink" x="0px" y="0px"
	 width="64.006px" height="64.046px" viewBox="0 0 64.006 64.046" style="enable-background:new 0 0 64.006 64.046;"
	 xml:space="preserve">
<g id="Base_14_">
	<g>
		<path style="fill:#CCCCCC;" d="M60.307,0.002C60.303,0.002,60.3,0,60.296,0H3.71C3.706,0,3.703,0.002,3.699,0.002
			C1.655,0.008,0,1.615,0,3.597v6.396v50.341c0,2.05,1.661,3.713,3.71,3.713h56.586c2.049,0,3.71-1.663,3.71-3.713V9.992V3.597
			C64.006,1.615,62.351,0.008,60.307,0.002z"/>
	</g>
</g>
<g id="Container_14_">
	<g>
		<path style="fill:#FFFFFF;" d="M58.006,12.019h-52c-1.104,0-2,0.896-2,2v44c0,1.104,0.896,2.001,2,2.001h52
			c1.104,0,2-0.896,2-2.001v-44C60.006,12.914,59.11,12.019,58.006,12.019z"/>
	</g>
</g>
<g id="Buttons_14_">
	<g>
		<path style="fill-rule:evenodd;clip-rule:evenodd;fill:#FFFFFF;" d="M6.006,3.998c-1.104,0-2,0.896-2,2.004c0,1.104,0.896,2,2,2
			s2-0.896,2-2C8.006,4.895,7.11,3.998,6.006,3.998z M12.006,3.998c-1.105,0-2,0.896-2,2.004c0,1.104,0.895,2,2,2
			c1.104,0,2-0.896,2-2C14.006,4.895,13.11,3.998,12.006,3.998z M18.006,4.019c-1.104,0-2,0.896-2,2.001c0,1.104,0.896,2,2,2
			s2-0.896,2-2C20.006,4.914,19.11,4.019,18.006,4.019z"/>
	</g>
</g>
<g id="Base_15_">
	<g>
		<path style="fill:#9B7CAB;" d="M48.307,20.002C48.303,20.002,48.3,20,48.296,20H15.71c-0.004,0-0.007,0.002-0.011,0.002
			C13.655,20.008,12,21.614,12,23.598v6.395v14.34c0,2.051,1.661,3.713,3.71,3.713h32.586c2.049,0,3.71-1.662,3.71-3.713v-14.34
			v-6.395C52.006,21.614,50.351,20.008,48.307,20.002z"/>
	</g>
</g>
<g id="Container_15_">
	<g>
		<path style="fill:#FFFFFF;" d="M46.006,32.019h-28c-1.104,0-2,0.896-2,2.001v8c0,1.104,0.896,2,2,2h28c1.104,0,2-0.896,2-2v-8
			C48.006,32.914,47.11,32.019,46.006,32.019z"/>
	</g>
</g>
<g id="Buttons_15_">
	<g>
		<path style="fill-rule:evenodd;clip-rule:evenodd;fill:#FFFFFF;" d="M18.006,23.998c-1.104,0-2,0.896-2,2.003
			c0,1.104,0.896,2.002,2,2.002s2-0.897,2-2.002C20.006,24.895,19.11,23.998,18.006,23.998z M24.006,23.998
			c-1.104,0-2,0.896-2,2.003c0,1.104,0.896,2.002,2,2.002s2-0.897,2-2.002C26.006,24.895,25.11,23.998,24.006,23.998z
			 M30.006,24.019c-1.104,0-2,0.896-2,2.001c0,1.104,0.896,1.999,2,1.999s2-0.895,2-1.999C32.006,24.914,31.11,24.019,30.006,24.019
			z"/>
	</g>
</g>
<g>
</g>
<g>
</g>
<g>
</g>
<g>
</g>
<g>
</g>
<g>
</g>
<g>
</g>
<g>
</g>
<g>
</g>
<g>
</g>
<g>
</g>
<g>
</g>
<g>
</g>
<g>
</g>
<g>
</g>
</svg>
