<?xml version="1.0" encoding="iso-8859-1"?>
<!-- Generator: Adobe Illustrator 16.0.0, SVG Export Plug-In . SVG Version: 6.00 Build 0)  -->
<!DOCTYPE svg PUBLIC "-//W3C//DTD SVG 1.1//EN" "http://www.w3.org/Graphics/SVG/1.1/DTD/svg11.dtd">
<svg version="1.1" id="Layer_1" xmlns="http://www.w3.org/2000/svg" xmlns:xlink="http://www.w3.org/1999/xlink" x="0px" y="0px"
	 width="64.006px" height="64.046px" viewBox="0 0 64.006 64.046" style="enable-background:new 0 0 64.006 64.046;"
	 xml:space="preserve">
<g id="Base_8_">
	<g>
		<path style="fill-rule:evenodd;clip-rule:evenodd;fill:#88C057;" d="M26.307,34.001c-0.004,0-0.008-0.001-0.011-0.001H3.71
			c-0.004,0-0.007,0.001-0.011,0.001C1.655,34.008,0,35.614,0,37.598v22.735c0,2.05,1.661,3.713,3.71,3.713h22.586
			c2.049,0,3.71-1.663,3.71-3.713V37.598C30.006,35.614,28.351,34.008,26.307,34.001z M26.307,0.002C26.303,0.002,26.299,0,26.296,0
			H3.71C3.706,0,3.703,0.002,3.699,0.002C1.655,0.008,0,1.615,0,3.597v22.735c0,2.051,1.661,3.713,3.71,3.713h22.586
			c2.049,0,3.71-1.662,3.71-3.713V3.597C30.006,1.615,28.351,0.008,26.307,0.002z M60.307,34.001c-0.004,0-0.008-0.001-0.012-0.001
			H37.71c-0.004,0-0.007,0.001-0.011,0.001C35.655,34.008,34,35.614,34,37.598v22.735c0,2.05,1.661,3.713,3.71,3.713h22.585
			c2.05,0,3.711-1.663,3.711-3.713V37.598C64.006,35.614,62.351,34.008,60.307,34.001z M60.307,0.002
			C60.303,0.002,60.299,0,60.295,0H37.71c-0.004,0-0.007,0.002-0.011,0.002C35.655,0.008,34,1.615,34,3.597v22.735
			c0,2.051,1.661,3.713,3.71,3.713h22.585c2.05,0,3.711-1.662,3.711-3.713V3.597C64.006,1.615,62.351,0.008,60.307,0.002z"/>
	</g>
</g>
<g id="Container_8_">
	<g>
		<path style="fill-rule:evenodd;clip-rule:evenodd;fill:#FFFFFF;" d="M24.006,46.019h-18c-1.104,0-2,0.896-2,2.001v9.999
			c0,1.104,0.896,2.001,2,2.001h18c1.104,0,2-0.896,2-2.001V48.02C26.006,46.914,25.11,46.019,24.006,46.019z M24.006,12.019h-18
			c-1.104,0-2,0.896-2,2v10c0,1.104,0.896,2.001,2,2.001h18c1.104,0,2-0.896,2-2.001v-10C26.006,12.914,25.11,12.019,24.006,12.019z
			 M58.006,46.019h-18c-1.104,0-2,0.896-2,2.001v9.999c0,1.104,0.896,2.001,2,2.001h18c1.104,0,2-0.896,2-2.001V48.02
			C60.006,46.914,59.11,46.019,58.006,46.019z M58.006,12.019h-18c-1.104,0-2,0.896-2,2v10c0,1.104,0.896,2.001,2,2.001h18
			c1.104,0,2-0.896,2-2.001v-10C60.006,12.914,59.11,12.019,58.006,12.019z"/>
	</g>
</g>
<g id="Buttons_8_">
	<g>
		<path style="fill-rule:evenodd;clip-rule:evenodd;fill:#FFFFFF;" d="M6.006,38.019c-1.104,0-2,0.896-2,2.001c0,1.104,0.896,2,2,2
			s2-0.896,2-2C8.006,38.914,7.11,38.019,6.006,38.019z M12.006,38.019c-1.104,0-2,0.896-2,2.001c0,1.104,0.896,2,2,2s2-0.896,2-2
			C14.006,38.914,13.11,38.019,12.006,38.019z M18.006,38.019c-1.104,0-2,0.896-2,2.001c0,1.104,0.896,2,2,2s2-0.896,2-2
			C20.006,38.914,19.11,38.019,18.006,38.019z M6.006,4.019c-1.104,0-2,0.896-2,2.001c0,1.104,0.896,2,2,2s2-0.896,2-2
			C8.006,4.914,7.11,4.019,6.006,4.019z M12.006,4.019c-1.104,0-2,0.896-2,2.001c0,1.104,0.896,2,2,2s2-0.896,2-2
			C14.006,4.914,13.11,4.019,12.006,4.019z M18.006,4.019c-1.104,0-2,0.896-2,2.001c0,1.104,0.896,2,2,2s2-0.896,2-2
			C20.006,4.914,19.11,4.019,18.006,4.019z M40.006,38.019c-1.104,0-2,0.896-2,2.001c0,1.104,0.896,2,2,2s2-0.896,2-2
			C42.006,38.914,41.11,38.019,40.006,38.019z M46.006,38.019c-1.104,0-2,0.896-2,2.001c0,1.104,0.896,2,2,2s2-0.896,2-2
			C48.006,38.914,47.11,38.019,46.006,38.019z M52.006,38.019c-1.104,0-2,0.896-2,2.001c0,1.104,0.896,2,2,2s2-0.896,2-2
			C54.006,38.914,53.11,38.019,52.006,38.019z M40.006,4.019c-1.104,0-2,0.896-2,2.001c0,1.104,0.896,2,2,2s2-0.896,2-2
			C42.006,4.914,41.11,4.019,40.006,4.019z M46.006,4.019c-1.104,0-2,0.896-2,2.001c0,1.104,0.896,2,2,2s2-0.896,2-2
			C48.006,4.914,47.11,4.019,46.006,4.019z M52.006,8.02c1.104,0,2-0.896,2-2c0-1.105-0.896-2.001-2-2.001s-2,0.896-2,2.001
			C50.006,7.123,50.901,8.02,52.006,8.02z"/>
	</g>
</g>
<g>
</g>
<g>
</g>
<g>
</g>
<g>
</g>
<g>
</g>
<g>
</g>
<g>
</g>
<g>
</g>
<g>
</g>
<g>
</g>
<g>
</g>
<g>
</g>
<g>
</g>
<g>
</g>
<g>
</g>
</svg>
