<?xml version="1.0" encoding="iso-8859-1"?>
<!-- Generator: Adobe Illustrator 16.0.0, SVG Export Plug-In . SVG Version: 6.00 Build 0)  -->
<!DOCTYPE svg PUBLIC "-//W3C//DTD SVG 1.1//EN" "http://www.w3.org/Graphics/SVG/1.1/DTD/svg11.dtd">
<svg version="1.1" id="Layer_1" xmlns="http://www.w3.org/2000/svg" xmlns:xlink="http://www.w3.org/1999/xlink" x="0px" y="0px"
	 width="64.006px" height="64.046px" viewBox="0 0 64.006 64.046" style="enable-background:new 0 0 64.006 64.046;"
	 xml:space="preserve">
<g id="Base_16_">
	<g>
		<path style="fill:#9B7CAB;" d="M60.307,0.002C60.303,0.002,60.299,0,60.296,0H3.71C3.707,0,3.704,0.002,3.7,0.002
			C1.656,0.008,0,1.615,0,3.597v6.396v50.341c0,2.05,1.662,3.713,3.71,3.713h56.586c2.049,0,3.71-1.663,3.71-3.713V9.992V3.597
			C64.006,1.615,62.351,0.008,60.307,0.002z"/>
	</g>
</g>
<g id="Container_16_">
	<g>
		<path style="fill:#FFFFFF;" d="M58.006,12.019h-52c-1.104,0-2,0.896-2,2v44c0,1.104,0.896,2.001,2,2.001h52
			c1.104,0,2-0.896,2-2.001v-44C60.006,12.914,59.111,12.019,58.006,12.019z"/>
	</g>
</g>
<g id="Buttons_16_">
	<g>
		<path style="fill-rule:evenodd;clip-rule:evenodd;fill:#FFFFFF;" d="M6.006,3.998c-1.104,0-2,0.896-2,2.004c0,1.104,0.895,2,2,2
			c1.105,0,2-0.896,2-2C8.006,4.895,7.111,3.998,6.006,3.998z M12.006,3.998c-1.104,0-2,0.896-2,2.004c0,1.104,0.896,2,2,2
			c1.105,0,2-0.896,2-2C14.006,4.895,13.111,3.998,12.006,3.998z M18.006,4.019c-1.104,0-2,0.896-2,2.001c0,1.104,0.896,2,2,2
			s2-0.896,2-2C20.006,4.914,19.111,4.019,18.006,4.019z"/>
	</g>
</g>
<g>
</g>
<g>
</g>
<g>
</g>
<g>
</g>
<g>
</g>
<g>
</g>
<g>
</g>
<g>
</g>
<g>
</g>
<g>
</g>
<g>
</g>
<g>
</g>
<g>
</g>
<g>
</g>
<g>
</g>
</svg>
