<?xml version="1.0" encoding="iso-8859-1"?>
<!-- Generator: Adobe Illustrator 16.0.0, SVG Export Plug-In . SVG Version: 6.00 Build 0)  -->
<!DOCTYPE svg PUBLIC "-//W3C//DTD SVG 1.1//EN" "http://www.w3.org/Graphics/SVG/1.1/DTD/svg11.dtd">
<svg version="1.1" id="Layer_1" xmlns="http://www.w3.org/2000/svg" xmlns:xlink="http://www.w3.org/1999/xlink" x="0px" y="0px"
	 width="64px" height="63.999px" viewBox="0 0 64 63.999" style="enable-background:new 0 0 64 63.999;" xml:space="preserve">
<g id="Button_21_">
	<g>
		<path style="fill:#ED7161;" d="M60,0H4C1.791,0,0,1.79,0,4v55.999c0,2.21,1.791,4,4,4h56c2.21,0,4-1.79,4-4V4
			C64,1.79,62.21,0,60,0z"/>
	</g>
</g>
<g id="Arrow_8_">
	<g>
		<path style="fill-rule:evenodd;clip-rule:evenodd;fill:#FFFFFF;" d="M40.001,32c-0.553,0-1.052,0.223-1.414,0.586l-4.604,4.604
			v-15.19c0-1.104-0.888-1.999-1.981-1.999c-1.095,0-1.982,0.895-1.982,1.999V37.19l-4.604-4.604C25.054,32.223,24.554,32,24.001,32
			c-1.104,0-2,0.895-2,1.999c0,0.554,0.224,1.054,0.586,1.415l8,8C30.948,43.776,31.448,44,32.001,44s1.053-0.224,1.414-0.586l8-8
			c0.362-0.361,0.586-0.861,0.586-1.415C42.001,32.895,41.105,32,40.001,32z"/>
	</g>
</g>
<g>
</g>
<g>
</g>
<g>
</g>
<g>
</g>
<g>
</g>
<g>
</g>
<g>
</g>
<g>
</g>
<g>
</g>
<g>
</g>
<g>
</g>
<g>
</g>
<g>
</g>
<g>
</g>
<g>
</g>
</svg>
