<?xml version="1.0" encoding="iso-8859-1"?>
<!-- Generator: Adobe Illustrator 16.0.0, SVG Export Plug-In . SVG Version: 6.00 Build 0)  -->
<!DOCTYPE svg PUBLIC "-//W3C//DTD SVG 1.1//EN" "http://www.w3.org/Graphics/SVG/1.1/DTD/svg11.dtd">
<svg version="1.1" id="Layer_1" xmlns="http://www.w3.org/2000/svg" xmlns:xlink="http://www.w3.org/1999/xlink" x="0px" y="0px"
	 width="64px" height="64px" viewBox="0 0 64 64" style="enable-background:new 0 0 64 64;" xml:space="preserve">
<g id="Button_22_">
	<g>
		<path style="fill:#88C057;" d="M60,0H4C1.791,0,0,1.791,0,4.001V60c0,2.21,1.791,4,4,4h56c2.21,0,4-1.79,4-4V4.001
			C64,1.791,62.21,0,60,0z"/>
	</g>
</g>
<g id="Arrow_9_">
	<g>
		<path style="fill-rule:evenodd;clip-rule:evenodd;fill:#FFFFFF;" d="M41.414,28.586l-8-8C33.052,20.224,32.552,20,32,20
			c-0.553,0-1.053,0.224-1.414,0.586l-8,8C22.224,28.948,22,29.447,22,30c0,1.104,0.896,2,2,2c0.552,0,1.052-0.224,1.414-0.586
			l4.604-4.604V42c0,1.105,0.887,2,1.981,2s1.982-0.895,1.982-2V26.81l4.604,4.604C38.947,31.776,39.447,32,40,32
			c1.104,0,2-0.896,2-2C42,29.447,41.775,28.948,41.414,28.586z"/>
	</g>
</g>
<g>
</g>
<g>
</g>
<g>
</g>
<g>
</g>
<g>
</g>
<g>
</g>
<g>
</g>
<g>
</g>
<g>
</g>
<g>
</g>
<g>
</g>
<g>
</g>
<g>
</g>
<g>
</g>
<g>
</g>
</svg>
