<?xml version="1.0" encoding="iso-8859-1"?>
<!-- Generator: Adobe Illustrator 16.0.0, SVG Export Plug-In . SVG Version: 6.00 Build 0)  -->
<!DOCTYPE svg PUBLIC "-//W3C//DTD SVG 1.1//EN" "http://www.w3.org/Graphics/SVG/1.1/DTD/svg11.dtd">
<svg version="1.1" id="Layer_1" xmlns="http://www.w3.org/2000/svg" xmlns:xlink="http://www.w3.org/1999/xlink" x="0px" y="0px"
	 width="64px" height="63.999px" viewBox="0 0 64 63.999" style="enable-background:new 0 0 64 63.999;" xml:space="preserve">
<g id="Button_24_">
	<g>
		<path style="fill:#48A0DC;" d="M60,0H4C1.791,0,0,1.791,0,4v56c0,2.209,1.791,3.999,4,3.999h56c2.209,0,4-1.79,4-3.999V4
			C64,1.791,62.209,0,60,0z"/>
	</g>
</g>
<g id="Arrow_11_">
	<g>
		<path style="fill-rule:evenodd;clip-rule:evenodd;fill:#FFFFFF;" d="M42,30.02h-15.19l4.604-4.604
			C31.775,25.053,32,24.553,32,24.001C32,22.896,31.104,22,30,22c-0.552,0-1.052,0.225-1.415,0.587l-8,7.999
			C20.223,30.948,20,31.448,20,32.001c0,0.552,0.224,1.052,0.585,1.414l8,8c0.362,0.361,0.862,0.586,1.415,0.586
			c1.105,0,2-0.896,2-2.001c0-0.552-0.224-1.052-0.586-1.414l-4.603-4.603H42c1.105,0,2-0.888,2-1.982S43.104,30.02,42,30.02z"/>
	</g>
</g>
<g>
</g>
<g>
</g>
<g>
</g>
<g>
</g>
<g>
</g>
<g>
</g>
<g>
</g>
<g>
</g>
<g>
</g>
<g>
</g>
<g>
</g>
<g>
</g>
<g>
</g>
<g>
</g>
<g>
</g>
</svg>
