<?xml version="1.0" encoding="iso-8859-1"?>
<!-- Generator: Adobe Illustrator 16.0.0, SVG Export Plug-In . SVG Version: 6.00 Build 0)  -->
<!DOCTYPE svg PUBLIC "-//W3C//DTD SVG 1.1//EN" "http://www.w3.org/Graphics/SVG/1.1/DTD/svg11.dtd">
<svg version="1.1" id="Layer_1" xmlns="http://www.w3.org/2000/svg" xmlns:xlink="http://www.w3.org/1999/xlink" x="0px" y="0px"
	 width="64px" height="56px" viewBox="0 0 64 56" style="enable-background:new 0 0 64 56;" xml:space="preserve">
<g id="Bubble_7_">
	<g>
		<path style="fill-rule:evenodd;clip-rule:evenodd;fill:#CCCCCC;" d="M60,0H4C1.791,0,0,1.791,0,4v38v2v12l8-8h52
			c2.209,0,4-1.791,4-4V4C64,1.791,62.209,0,60,0z"/>
	</g>
</g>
<g id="Container_78_">
	<g>
		<path style="fill-rule:evenodd;clip-rule:evenodd;fill:#FFFFFF;" d="M58,4H6C4.896,4,4,4.896,4,6v34v2v6l4-4h50
			c1.104,0,2-0.896,2-2V6C60,4.896,59.104,4,58,4z"/>
	</g>
</g>
<g id="Dots_5_">
	<g>
		<path style="fill-rule:evenodd;clip-rule:evenodd;fill:#999999;" d="M20,20c-2.209,0-4,1.791-4,3.999C16,26.209,17.791,28,20,28
			c2.209,0,4-1.791,4-4.001C24,21.791,22.209,20,20,20z M32,20c-2.209,0-4,1.791-4,3.999C28,26.209,29.791,28,32,28
			c2.209,0,4-1.791,4-4.001C36,21.791,34.209,20,32,20z M44,20c-2.209,0-4,1.791-4,3.999C40,26.209,41.791,28,44,28
			c2.209,0,4-1.791,4-4.001C48,21.791,46.209,20,44,20z"/>
	</g>
</g>
<g>
</g>
<g>
</g>
<g>
</g>
<g>
</g>
<g>
</g>
<g>
</g>
<g>
</g>
<g>
</g>
<g>
</g>
<g>
</g>
<g>
</g>
<g>
</g>
<g>
</g>
<g>
</g>
<g>
</g>
</svg>
