<?xml version="1.0" encoding="iso-8859-1"?>
<!-- Generator: Adobe Illustrator 16.0.0, SVG Export Plug-In . SVG Version: 6.00 Build 0)  -->
<!DOCTYPE svg PUBLIC "-//W3C//DTD SVG 1.1//EN" "http://www.w3.org/Graphics/SVG/1.1/DTD/svg11.dtd">
<svg version="1.1" id="Layer_1" xmlns="http://www.w3.org/2000/svg" xmlns:xlink="http://www.w3.org/1999/xlink" x="0px" y="0px"
	 width="68px" height="64.001px" viewBox="0 0 68 64.001" style="enable-background:new 0 0 68 64.001;" xml:space="preserve">
<g id="Bubble_13_">
	<g>
		<path style="fill-rule:evenodd;clip-rule:evenodd;fill:#FFCC66;" d="M52,32.001c4.785,0,9.068,2.112,12,5.441V4.001
			C64,1.791,62.209,0,60,0H4C1.791,0,0,1.791,0,4.001v38v2v12l7.999-8H36C36,39.164,43.163,32.001,52,32.001z"/>
	</g>
</g>
<g id="Txt_3_">
	<g>
		<path style="fill:#FFFFFF;" d="M18,26h16c1.104,0,2-0.895,2-2c0-1.104-0.896-2-2-2H18c-1.105,0-2,0.896-2,2
			C16,25.105,16.895,26,18,26z M40,30.001H18c-1.105,0-2,0.895-2,2C16,33.104,16.895,34,18,34h22c1.104,0,2-0.896,2-1.999
			C42,30.896,41.104,30.001,40,30.001z M46,14H18c-1.105,0-2,0.896-2,2s0.895,2.001,2,2.001h28c1.104,0,2-0.896,2-2.001
			S47.104,14,46,14z"/>
	</g>
</g>
<g id="Elipse_11_">
	<g>
		<circle style="fill:#88C057;" cx="52" cy="48.001" r="11.999"/>
	</g>
</g>
<g id="Plus_5_">
	<g>
		<path style="fill:#FFFFFF;" d="M55.999,46.002h-2V44c0-1.104-0.895-1.999-1.999-1.999c-1.105,0-2,0.895-2,1.999v2.002h-2.001
			c-1.104,0-1.999,0.894-1.999,1.999c0,1.104,0.895,1.998,1.999,1.998H50v2C50,53.105,50.895,54,52,54
			c1.104,0,1.999-0.895,1.999-2.001v-2h2c1.105,0,2-0.895,2-1.998C57.999,46.896,57.104,46.002,55.999,46.002z"/>
	</g>
</g>
<g>
</g>
<g>
</g>
<g>
</g>
<g>
</g>
<g>
</g>
<g>
</g>
<g>
</g>
<g>
</g>
<g>
</g>
<g>
</g>
<g>
</g>
<g>
</g>
<g>
</g>
<g>
</g>
<g>
</g>
</svg>
