<?xml version="1.0" encoding="iso-8859-1"?>
<!-- Generator: Adobe Illustrator 16.0.0, SVG Export Plug-In . SVG Version: 6.00 Build 0)  -->
<!DOCTYPE svg PUBLIC "-//W3C//DTD SVG 1.1//EN" "http://www.w3.org/Graphics/SVG/1.1/DTD/svg11.dtd">
<svg version="1.1" id="Layer_1" xmlns="http://www.w3.org/2000/svg" xmlns:xlink="http://www.w3.org/1999/xlink" x="0px" y="0px"
	 width="64px" height="59.999px" viewBox="0 0 64 59.999" style="enable-background:new 0 0 64 59.999;" xml:space="preserve">
<g id="Bubble">
	<g>
		<path style="fill-rule:evenodd;clip-rule:evenodd;fill:#88C057;" d="M32,0C14.327,0,0,11.639,0,25.996
			c0,10.146,7.161,18.929,17.598,23.211L14,59.999l18-8l-0.033-0.01c0.011,0,0.022,0.001,0.033,0.001c17.673,0,32-11.638,32-25.994
			C64,11.639,49.673,0,32,0z"/>
	</g>
</g>
<g id="Heart_4_">
	<g>
		<path style="fill-rule:evenodd;clip-rule:evenodd;fill:#FFFFFF;" d="M42,23.457c0-3.015-2.379-5.458-5.313-5.458
			c-2.031,0-3.794,1.171-4.688,2.891c-0.895-1.72-2.657-2.891-4.688-2.891c-2.935,0-5.313,2.443-5.313,5.458
			c0,1.673,0.733,3.167,1.887,4.168l-0.012,0.005c0,0,6.753,7.422,7.241,7.951c0.487,0.529,1.279,0.529,1.768,0
			s7.241-7.951,7.241-7.951l-0.012-0.006C41.266,26.624,42,25.129,42,23.457z"/>
	</g>
</g>
<g>
</g>
<g>
</g>
<g>
</g>
<g>
</g>
<g>
</g>
<g>
</g>
<g>
</g>
<g>
</g>
<g>
</g>
<g>
</g>
<g>
</g>
<g>
</g>
<g>
</g>
<g>
</g>
<g>
</g>
</svg>
