<?xml version="1.0" encoding="iso-8859-1"?>
<!-- Generator: Adobe Illustrator 16.0.0, SVG Export Plug-In . SVG Version: 6.00 Build 0)  -->
<!DOCTYPE svg PUBLIC "-//W3C//DTD SVG 1.1//EN" "http://www.w3.org/Graphics/SVG/1.1/DTD/svg11.dtd">
<svg version="1.1" id="Layer_1" xmlns="http://www.w3.org/2000/svg" xmlns:xlink="http://www.w3.org/1999/xlink" x="0px" y="0px"
	 width="68px" height="60px" viewBox="0 0 68 60" style="enable-background:new 0 0 68 60;" xml:space="preserve">
<g id="Bubble_5_">
	<g>
		<path style="fill-rule:evenodd;clip-rule:evenodd;fill:#CCCCCC;" d="M36,44c0-8.837,7.163-16,16-16c4.786,0,9.068,2.112,12,5.441
			V4c0-2.209-1.791-4-4-4H4C1.791,0,0,1.791,0,4v38v2v12l8-8h28.524C36.194,46.719,36,45.384,36,44z"/>
	</g>
</g>
<g id="Container_76_">
	<g>
		<path style="fill-rule:evenodd;clip-rule:evenodd;fill:#FFFFFF;" d="M52,28c2.918,0,5.645,0.793,8,2.158V6c0-1.104-0.896-2-2-2H6
			C4.896,4,4,4.896,4,6v34v2v6l4-4h28C36,35.163,43.163,28,52,28z"/>
	</g>
</g>
<g id="Dots_3_">
	<g>
		<path style="fill-rule:evenodd;clip-rule:evenodd;fill:#999999;" d="M20,20c-2.209,0-4,1.791-4,3.999c0,2.21,1.791,4,4,4
			s4-1.79,4-4C24,21.791,22.209,20,20,20z M32,20c-2.209,0-4,1.791-4,3.999c0,2.21,1.791,4,4,4s4-1.79,4-4
			C36,21.791,34.209,20,32,20z M44,20c-2.209,0-4,1.791-4,3.999c0,2.21,1.791,4,4,4s4-1.79,4-4C48,21.791,46.209,20,44,20z"/>
	</g>
</g>
<g id="Elipse_8_">
	<g>
		<circle style="fill:#ED7161;" cx="52" cy="44" r="12"/>
	</g>
</g>
<g id="Minus_4_">
	<g>
		<path style="fill:#FFFFFF;" d="M56,41.999h-8c-1.105,0-2,0.896-2,2c0,1.104,0.895,2,2,2h8c1.104,0,2-0.896,2-2
			C58,42.895,57.104,41.999,56,41.999z"/>
	</g>
</g>
<g>
</g>
<g>
</g>
<g>
</g>
<g>
</g>
<g>
</g>
<g>
</g>
<g>
</g>
<g>
</g>
<g>
</g>
<g>
</g>
<g>
</g>
<g>
</g>
<g>
</g>
<g>
</g>
<g>
</g>
</svg>
