<?xml version="1.0" encoding="iso-8859-1"?>
<!-- Generator: Adobe Illustrator 16.0.0, SVG Export Plug-In . SVG Version: 6.00 Build 0)  -->
<!DOCTYPE svg PUBLIC "-//W3C//DTD SVG 1.1//EN" "http://www.w3.org/Graphics/SVG/1.1/DTD/svg11.dtd">
<svg version="1.1" id="Layer_1" xmlns="http://www.w3.org/2000/svg" xmlns:xlink="http://www.w3.org/1999/xlink" x="0px" y="0px"
	 width="64px" height="56.001px" viewBox="0 0 64 56.001" style="enable-background:new 0 0 64 56.001;" xml:space="preserve">
<g id="Bubble_14_">
	<g>
		<path style="fill-rule:evenodd;clip-rule:evenodd;fill:#FFCC66;" d="M60,0H4C1.791,0,0,1.791,0,4.001v38v2v12l8-8h52
			c2.209,0,4-1.791,4-4v-40C64,1.791,62.209,0,60,0z"/>
	</g>
</g>
<g id="Txt_4_">
	<g>
		<path style="fill:#FFFFFF;" d="M40,30H18c-1.105,0-2,0.896-2,2.001C16,33.104,16.895,34,18,34h22c1.104,0,1.999-0.896,1.999-1.999
			C41.999,30.896,41.104,30,40,30z M18,26.001h16c1.104,0,2-0.896,2-2.001c0-1.104-0.896-2-2-2H18c-1.105,0-2,0.896-2,2
			C16,25.105,16.895,26.001,18,26.001z M46,14H18c-1.105,0-2,0.896-2,2c0,1.104,0.895,2.001,2,2.001h28c1.104,0,2-0.896,2-2.001
			C48,14.896,47.104,14,46,14z"/>
	</g>
</g>
<g>
</g>
<g>
</g>
<g>
</g>
<g>
</g>
<g>
</g>
<g>
</g>
<g>
</g>
<g>
</g>
<g>
</g>
<g>
</g>
<g>
</g>
<g>
</g>
<g>
</g>
<g>
</g>
<g>
</g>
</svg>
