<?xml version="1.0" encoding="iso-8859-1"?>
<!-- Generator: Adobe Illustrator 16.0.0, SVG Export Plug-In . SVG Version: 6.00 Build 0)  -->
<!DOCTYPE svg PUBLIC "-//W3C//DTD SVG 1.1//EN" "http://www.w3.org/Graphics/SVG/1.1/DTD/svg11.dtd">
<svg version="1.1" id="Layer_1" xmlns="http://www.w3.org/2000/svg" xmlns:xlink="http://www.w3.org/1999/xlink" x="0px" y="0px"
	 width="68px" height="64.001px" viewBox="0 0 68 64.001" style="enable-background:new 0 0 68 64.001;" xml:space="preserve">
<g id="Bubble_12_">
	<g>
		<path style="fill-rule:evenodd;clip-rule:evenodd;fill:#FFCC66;" d="M52,32.001c4.785,0,9.068,2.112,12,5.441V4.001
			C64,1.791,62.209,0,60,0H4C1.791,0,0,1.791,0,4.001v38v2v12l7.999-8H36C36,39.164,43.163,32.001,52,32.001z"/>
	</g>
</g>
<g id="Txt_2_">
	<g>
		<path style="fill:#FFFFFF;" d="M44,12H16c-1.105,0-2,0.896-2,2c0,1.104,0.895,2.001,2,2.001h28c1.104,0,2-0.896,2-2.001
			C46,12.896,45.104,12,44,12z M38,28.001H16c-1.105,0-2,0.895-2,2C14,31.104,14.895,32,16,32h22c1.104,0,1.999-0.896,1.999-1.999
			C39.999,28.896,39.104,28.001,38,28.001z M16,24.001h16c1.104,0,2-0.896,2-2.001c0-1.104-0.896-2-2-2H16c-1.105,0-2,0.896-2,2
			C14,23.105,14.895,24.001,16,24.001z"/>
	</g>
</g>
<g id="Elipse_10_">
	<g>
		<circle style="fill:#ED7161;" cx="52" cy="48.001" r="11.999"/>
	</g>
</g>
<g id="Minus_5_">
	<g>
		<path style="fill:#FFFFFF;" d="M56,46.001h-8c-1.105,0-2,0.894-2,1.999c0,1.104,0.895,1.999,2,1.999h8
			c1.104,0,1.999-0.895,1.999-1.999C57.999,46.895,57.104,46.001,56,46.001z"/>
	</g>
</g>
<g>
</g>
<g>
</g>
<g>
</g>
<g>
</g>
<g>
</g>
<g>
</g>
<g>
</g>
<g>
</g>
<g>
</g>
<g>
</g>
<g>
</g>
<g>
</g>
<g>
</g>
<g>
</g>
<g>
</g>
</svg>
