<?xml version="1.0" encoding="iso-8859-1"?>
<!-- Generator: Adobe Illustrator 16.0.0, SVG Export Plug-In . SVG Version: 6.00 Build 0)  -->
<!DOCTYPE svg PUBLIC "-//W3C//DTD SVG 1.1//EN" "http://www.w3.org/Graphics/SVG/1.1/DTD/svg11.dtd">
<svg version="1.1" id="Layer_1" xmlns="http://www.w3.org/2000/svg" xmlns:xlink="http://www.w3.org/1999/xlink" x="0px" y="0px"
	 width="64px" height="63.999px" viewBox="0 0 64 63.999" style="enable-background:new 0 0 64 63.999;" xml:space="preserve">
<g id="Button_32_">
	<g>
		<path style="fill:#ED7161;" d="M60,0H4C1.791,0,0,1.791,0,4v56c0,2.209,1.791,3.999,4,3.999h56c2.209,0,4-1.79,4-3.999V4
			C64,1.791,62.209,0,60,0z"/>
	</g>
</g>
<g id="Dashboard">
	<g>
		<path style="fill-rule:evenodd;clip-rule:evenodd;fill:#FFFFFF;" d="M28,38.001C28,40.21,29.791,42,32,42c2.209,0,4-1.79,4-3.999
			C36,35.791,32,28,32,28S28,35.791,28,38.001z M45.897,24.091c-0.015-0.03-0.024-0.061-0.041-0.09
			c-0.026-0.046-0.061-0.083-0.091-0.126c-2.785-4.708-7.899-7.876-13.766-7.876c-5.87,0-10.988,3.171-13.771,7.885
			c-0.027,0.04-0.06,0.075-0.084,0.117c-0.016,0.027-0.023,0.056-0.038,0.083C16.772,26.42,16,29.118,16,32
			c0,4.417,1.79,8.415,4.683,11.31c0.001,0.001,0.002,0.003,0.004,0.005c0.781,0.78,2.047,0.78,2.829,0
			c0.781-0.782,0.781-2.048,0-2.829C21.343,38.314,20,35.314,20,32c0-1.473,0.267-2.882,0.753-4.185l1.587,0.917
			c0.957,0.552,2.18,0.225,2.732-0.732c0.552-0.956,0.225-2.18-0.732-2.731l-1.577-0.911c1.798-2.165,4.34-3.691,7.237-4.178V22
			c0,1.104,0.895,2.001,2,2.001c1.104,0,2-0.896,2-2.001v-1.82c2.897,0.487,5.438,2.013,7.237,4.178l-1.577,0.91
			c-0.957,0.552-1.284,1.775-0.732,2.731c0.552,0.957,1.775,1.284,2.732,0.732l1.586-0.917C43.732,29.118,44,30.527,44,32
			c0,3.314-1.343,6.313-3.514,8.485c-0.781,0.781-0.781,2.047,0,2.829c0.781,0.78,2.047,0.78,2.828,0
			c0.003-0.003,0.005-0.007,0.008-0.01C46.212,40.41,48,36.414,48,32C48,29.12,47.229,26.425,45.897,24.091z"/>
	</g>
</g>
<g>
</g>
<g>
</g>
<g>
</g>
<g>
</g>
<g>
</g>
<g>
</g>
<g>
</g>
<g>
</g>
<g>
</g>
<g>
</g>
<g>
</g>
<g>
</g>
<g>
</g>
<g>
</g>
<g>
</g>
</svg>
