<?xml version="1.0" encoding="iso-8859-1"?>
<!-- Generator: Adobe Illustrator 16.0.0, SVG Export Plug-In . SVG Version: 6.00 Build 0)  -->
<!DOCTYPE svg PUBLIC "-//W3C//DTD SVG 1.1//EN" "http://www.w3.org/Graphics/SVG/1.1/DTD/svg11.dtd">
<svg version="1.1" id="Layer_1" xmlns="http://www.w3.org/2000/svg" xmlns:xlink="http://www.w3.org/1999/xlink" x="0px" y="0px"
	 width="64px" height="44px" viewBox="0 0 64 44" style="enable-background:new 0 0 64 44;" xml:space="preserve">
<g id="Base_50_">
	<g>
		<path style="fill:#48A0DC;" d="M60,0H4C1.791,0,0,1.791,0,4v36c0,2.209,1.791,4,4,4h56c2.209,0,4-1.791,4-4V4
			C64,1.791,62.209,0,60,0z"/>
	</g>
</g>
<g id="Container_67_">
	<g>
		<path style="fill:#FFFFFF;" d="M58,4H32v36h26c1.104,0,2-0.896,2-1.999V6C60,4.896,59.104,4,58,4z"/>
	</g>
</g>
<g id="A_6_">
	<g>
		<path style="fill-rule:evenodd;clip-rule:evenodd;fill:#FFFFFF;" d="M23.858,29.148l-5.761-15.728C17.7,12.335,16.813,12,16,12
			s-1.7,0.274-2.099,1.366l-5.76,15.826c-0.397,1.094,0.165,2.302,1.258,2.699s2.301-0.166,2.698-1.258L12.328,30h7.362l0.212,0.58
			c0.396,1.086,1.605,1.646,2.697,1.251C23.692,31.436,24.256,30.234,23.858,29.148z M13.784,26l2.213-6.081L18.225,26H13.784z"/>
	</g>
</g>
<g id="B_4_">
	<g>
		<path style="fill-rule:evenodd;clip-rule:evenodd;fill:#999999;" d="M51.224,20.945C51.716,20.075,52,19.072,52,18.001
			C52,14.687,49.313,12,46,12h-4c-1.104,0-2,0.896-2,2.001V30c0,1.104,0.896,2.001,2,2.001h6c3.313,0,6-2.688,6-6.001
			C54,23.874,52.892,22.012,51.224,20.945z M44,16h2c1.104,0,2,0.896,2,2.001C48,19.104,47.104,20,46,20h-2V16z M48,28h-4v-4h4
			c1.104,0,2,0.896,2,2C50,27.105,49.104,28,48,28z"/>
	</g>
</g>
<g>
</g>
<g>
</g>
<g>
</g>
<g>
</g>
<g>
</g>
<g>
</g>
<g>
</g>
<g>
</g>
<g>
</g>
<g>
</g>
<g>
</g>
<g>
</g>
<g>
</g>
<g>
</g>
<g>
</g>
</svg>
