<?xml version="1.0" encoding="iso-8859-1"?>
<!-- Generator: Adobe Illustrator 16.0.0, SVG Export Plug-In . SVG Version: 6.00 Build 0)  -->
<!DOCTYPE svg PUBLIC "-//W3C//DTD SVG 1.1//EN" "http://www.w3.org/Graphics/SVG/1.1/DTD/svg11.dtd">
<svg version="1.1" id="Layer_1" xmlns="http://www.w3.org/2000/svg" xmlns:xlink="http://www.w3.org/1999/xlink" x="0px" y="0px"
	 width="64px" height="44px" viewBox="0 0 64 44" style="enable-background:new 0 0 64 44;" xml:space="preserve">
<g id="Button_11_">
	<g>
		<path style="fill:#ED7161;" d="M42,0H22C9.85,0,0,9.85,0,22s9.85,22,22,22h20c12.15,0,22-9.85,22-22S54.15,0,42,0z"/>
	</g>
</g>
<g id="AB_8_">
	<g>
		<path style="fill-rule:evenodd;clip-rule:evenodd;fill:#FFFFFF;" d="M45.224,20.945C45.716,20.075,46,19.072,46,18.001
			C46,14.687,43.313,12,40,12h-4c-1.104,0-2,0.896-2,2.001V30c0,1.104,0.896,2.001,2,2.001h6c3.313,0,6-2.688,6-6.001
			C48,23.874,46.892,22.012,45.224,20.945z M38,16h2c1.104,0,2,0.896,2,2.001C42,19.104,41.104,20,40,20h-2V16z M42,28h-4v-4h4
			c1.104,0,2,0.896,2,2C44,27.105,43.104,28,42,28z M26.098,13.421C25.7,12.335,24.813,12,24,12s-1.701,0.274-2.099,1.366
			l-5.76,15.826c-0.397,1.094,0.165,2.302,1.258,2.699s2.301-0.166,2.698-1.258L20.328,30h7.36l0.213,0.58
			c0.397,1.086,1.606,1.646,2.698,1.251c1.093-0.396,1.656-1.597,1.259-2.683L26.098,13.421z M21.784,26l2.213-6.081L26.224,26
			H21.784z"/>
	</g>
</g>
<g>
</g>
<g>
</g>
<g>
</g>
<g>
</g>
<g>
</g>
<g>
</g>
<g>
</g>
<g>
</g>
<g>
</g>
<g>
</g>
<g>
</g>
<g>
</g>
<g>
</g>
<g>
</g>
<g>
</g>
</svg>
