<?xml version="1.0" encoding="iso-8859-1"?>
<!-- Generator: Adobe Illustrator 16.0.0, SVG Export Plug-In . SVG Version: 6.00 Build 0)  -->
<!DOCTYPE svg PUBLIC "-//W3C//DTD SVG 1.1//EN" "http://www.w3.org/Graphics/SVG/1.1/DTD/svg11.dtd">
<svg version="1.1" id="Layer_1" xmlns="http://www.w3.org/2000/svg" xmlns:xlink="http://www.w3.org/1999/xlink" x="0px" y="0px"
	 width="64px" height="63.999px" viewBox="0 0 64 63.999" style="enable-background:new 0 0 64 63.999;" xml:space="preserve">
<g id="Button_31_">
	<g>
		<path style="fill:#9B7CAB;" d="M60,0H4C1.791,0,0,1.791,0,4v56c0,2.209,1.791,3.999,4,3.999h56c2.209,0,4-1.79,4-3.999V4
			C64,1.791,62.209,0,60,0z"/>
	</g>
</g>
<g id="Menu">
	<g>
		<path style="fill-rule:evenodd;clip-rule:evenodd;fill:#FFFFFF;" d="M22,26h20c1.104,0,2-0.896,2-1.999C44,22.896,43.104,22,42,22
			H22c-1.104,0-2,0.896-2,2.001C20,25.104,20.896,26,22,26z M42,30.001H22c-1.104,0-2,0.895-2,1.999c0,1.105,0.896,2.001,2,2.001h20
			c1.104,0,2-0.896,2-2.001C44,30.896,43.104,30.001,42,30.001z M42,38.001H22c-1.104,0-2,0.895-2,1.999s0.896,2.001,2,2.001h20
			c1.104,0,2-0.896,2-2.001S43.104,38.001,42,38.001z"/>
	</g>
</g>
<g>
</g>
<g>
</g>
<g>
</g>
<g>
</g>
<g>
</g>
<g>
</g>
<g>
</g>
<g>
</g>
<g>
</g>
<g>
</g>
<g>
</g>
<g>
</g>
<g>
</g>
<g>
</g>
<g>
</g>
</svg>
