<?xml version="1.0" encoding="iso-8859-1"?>
<!-- Generator: Adobe Illustrator 16.0.0, SVG Export Plug-In . SVG Version: 6.00 Build 0)  -->
<!DOCTYPE svg PUBLIC "-//W3C//DTD SVG 1.1//EN" "http://www.w3.org/Graphics/SVG/1.1/DTD/svg11.dtd">
<svg version="1.1" id="Layer_1" xmlns="http://www.w3.org/2000/svg" xmlns:xlink="http://www.w3.org/1999/xlink" x="0px" y="0px"
	 width="64px" height="44px" viewBox="0 0 64 44" style="enable-background:new 0 0 64 44;" xml:space="preserve">
<g id="Button_13_">
	<g>
		<path style="fill:#88C057;" d="M60,16C59.981,15.976,47.983,3.987,48,4c-2-2-4-4-6-4H4C1.791,0,0,1.791,0,4v36c0,2.21,1.791,4,4,4
			h38c2,0,4-2,6-4c0.009-0.009,12.002-12.002,12-12c2-2,4-4,4-6S62,18.001,60,16z"/>
	</g>
</g>
<g id="AB_10_">
	<g>
		<path style="fill-rule:evenodd;clip-rule:evenodd;fill:#FFFFFF;" d="M41.224,20.945C41.716,20.075,42,19.072,42,18.001
			C42,14.687,39.313,12,36,12h-4c-1.104,0-2,0.896-2,2.001V30c0,1.104,0.896,2.001,2,2.001h6c3.313,0,6-2.688,6-6.001
			C44,23.874,42.892,22.012,41.224,20.945z M34,16h2c1.104,0,2,0.896,2,2.001C38,19.104,37.104,20,36,20h-2V16z M38,28h-4v-4h4
			c1.104,0,2,0.896,2,2C40,27.105,39.104,28,38,28z M22.098,13.421C21.7,12.335,20.813,12,20,12s-1.701,0.274-2.098,1.366
			l-5.761,15.826c-0.397,1.094,0.165,2.302,1.258,2.699s2.301-0.166,2.698-1.258L16.328,30h7.36l0.213,0.58
			c0.397,1.086,1.606,1.646,2.698,1.251c1.093-0.396,1.656-1.597,1.259-2.683L22.098,13.421z M17.784,26l2.213-6.081L22.224,26
			H17.784z"/>
	</g>
</g>
<g>
</g>
<g>
</g>
<g>
</g>
<g>
</g>
<g>
</g>
<g>
</g>
<g>
</g>
<g>
</g>
<g>
</g>
<g>
</g>
<g>
</g>
<g>
</g>
<g>
</g>
<g>
</g>
<g>
</g>
</svg>
