<?xml version="1.0" encoding="iso-8859-1"?>
<!-- Generator: Adobe Illustrator 16.0.0, SVG Export Plug-In . SVG Version: 6.00 Build 0)  -->
<!DOCTYPE svg PUBLIC "-//W3C//DTD SVG 1.1//EN" "http://www.w3.org/Graphics/SVG/1.1/DTD/svg11.dtd">
<svg version="1.1" id="Layer_1" xmlns="http://www.w3.org/2000/svg" xmlns:xlink="http://www.w3.org/1999/xlink" x="0px" y="0px"
	 width="64px" height="63.999px" viewBox="0 0 64 63.999" style="enable-background:new 0 0 64 63.999;" xml:space="preserve">
<g id="Button_27_">
	<g>
		<path style="fill:#48A0DC;" d="M60,0H4C1.791,0,0,1.791,0,4v56c0,2.209,1.791,3.999,4,3.999h56c2.209,0,4-1.79,4-3.999V4
			C64,1.791,62.209,0,60,0z"/>
	</g>
</g>
<g id="Minimize">
	<g>
		<path style="fill:#FFFFFF;" d="M42,40H22c-1.104,0-2,0.896-2,2.001C20,43.104,20.896,44,22,44h20c1.104,0,2-0.896,2-1.999
			C44,40.896,43.104,40,42,40z"/>
	</g>
</g>
<g>
</g>
<g>
</g>
<g>
</g>
<g>
</g>
<g>
</g>
<g>
</g>
<g>
</g>
<g>
</g>
<g>
</g>
<g>
</g>
<g>
</g>
<g>
</g>
<g>
</g>
<g>
</g>
<g>
</g>
</svg>
