<?xml version="1.0" encoding="iso-8859-1"?>
<!-- Generator: Adobe Illustrator 16.0.0, SVG Export Plug-In . SVG Version: 6.00 Build 0)  -->
<!DOCTYPE svg PUBLIC "-//W3C//DTD SVG 1.1//EN" "http://www.w3.org/Graphics/SVG/1.1/DTD/svg11.dtd">
<svg version="1.1" id="Layer_1" xmlns="http://www.w3.org/2000/svg" xmlns:xlink="http://www.w3.org/1999/xlink" x="0px" y="0px"
	 width="64px" height="44px" viewBox="0 0 64 44" style="enable-background:new 0 0 64 44;" xml:space="preserve">
<g id="Button_14_">
	<g>
		<path style="fill:#CCCCCC;" d="M60,0H4C1.791,0,0,1.791,0,4v36c0,2.209,1.791,4,4,4h56c2.209,0,4-1.791,4-4V4
			C64,1.791,62.209,0,60,0z"/>
	</g>
</g>
<g id="AB_11_">
	<g>
		<path style="fill-rule:evenodd;clip-rule:evenodd;fill:#FFFFFF;" d="M26.098,13.421C25.7,12.335,24.813,12,24,12
			s-1.7,0.274-2.099,1.366l-5.76,15.826c-0.397,1.094,0.166,2.302,1.258,2.699c1.093,0.397,2.301-0.166,2.698-1.258L20.328,30h7.361
			l0.212,0.58c0.398,1.086,1.606,1.646,2.698,1.251c1.093-0.396,1.656-1.597,1.259-2.683L26.098,13.421z M21.784,26l2.214-6.081
			L26.225,26H21.784z M45.224,20.945C45.716,20.075,46,19.072,46,18.001C46,14.687,43.313,12,40,12h-4c-1.104,0-2,0.896-2,2.001V30
			c0,1.104,0.896,2.001,2,2.001h6c3.313,0,6-2.688,6-6.001C48,23.874,46.892,22.012,45.224,20.945z M38,16h2
			c1.104,0,2,0.896,2,2.001C42,19.104,41.104,20,40,20h-2V16z M42,28h-4v-4h4c1.104,0,2,0.896,2,2C44,27.105,43.104,28,42,28z"/>
	</g>
</g>
<g>
</g>
<g>
</g>
<g>
</g>
<g>
</g>
<g>
</g>
<g>
</g>
<g>
</g>
<g>
</g>
<g>
</g>
<g>
</g>
<g>
</g>
<g>
</g>
<g>
</g>
<g>
</g>
<g>
</g>
</svg>
