<?xml version="1.0" encoding="iso-8859-1"?>
<!-- Generator: Adobe Illustrator 16.0.0, SVG Export Plug-In . SVG Version: 6.00 Build 0)  -->
<!DOCTYPE svg PUBLIC "-//W3C//DTD SVG 1.1//EN" "http://www.w3.org/Graphics/SVG/1.1/DTD/svg11.dtd">
<svg version="1.1" id="Layer_1" xmlns="http://www.w3.org/2000/svg" xmlns:xlink="http://www.w3.org/1999/xlink" x="0px" y="0px"
	 width="64px" height="63.999px" viewBox="0 0 64 63.999" style="enable-background:new 0 0 64 63.999;" xml:space="preserve">
<g id="Button_25_">
	<g>
		<path style="fill:#ED7161;" d="M60,0H4C1.791,0,0,1.791,0,4v56c0,2.209,1.791,3.999,4,3.999h56c2.209,0,4-1.79,4-3.999V4
			C64,1.791,62.209,0,60,0z"/>
	</g>
</g>
<g id="Close">
	<g>
		<path style="fill-rule:evenodd;clip-rule:evenodd;fill:#FFFFFF;" d="M34.809,32l6.618-6.618c0.775-0.776,0.775-2.033,0-2.81
			c-0.775-0.775-2.033-0.775-2.81,0L32,29.191l-6.618-6.618c-0.775-0.775-2.033-0.775-2.809,0c-0.776,0.776-0.776,2.033,0,2.81
			L29.19,32l-6.617,6.618c-0.776,0.775-0.776,2.033,0,2.809c0.775,0.776,2.033,0.776,2.809,0L32,34.809l6.617,6.618
			c0.776,0.776,2.034,0.776,2.81,0c0.775-0.775,0.775-2.033,0-2.809L34.809,32z"/>
	</g>
</g>
<g>
</g>
<g>
</g>
<g>
</g>
<g>
</g>
<g>
</g>
<g>
</g>
<g>
</g>
<g>
</g>
<g>
</g>
<g>
</g>
<g>
</g>
<g>
</g>
<g>
</g>
<g>
</g>
<g>
</g>
</svg>
