<?xml version="1.0" encoding="iso-8859-1"?>
<!-- Generator: Adobe Illustrator 16.0.0, SVG Export Plug-In . SVG Version: 6.00 Build 0)  -->
<!DOCTYPE svg PUBLIC "-//W3C//DTD SVG 1.1//EN" "http://www.w3.org/Graphics/SVG/1.1/DTD/svg11.dtd">
<svg version="1.1" id="Layer_1" xmlns="http://www.w3.org/2000/svg" xmlns:xlink="http://www.w3.org/1999/xlink" x="0px" y="0px"
	 width="64px" height="63.999px" viewBox="0 0 64 63.999" style="enable-background:new 0 0 64 63.999;" xml:space="preserve">
<g id="Button_28_">
	<g>
		<path style="fill:#999999;" d="M60,0H4C1.791,0,0,1.791,0,4v56c0,2.209,1.791,3.999,4,3.999h56c2.209,0,4-1.79,4-3.999V4
			C64,1.791,62.209,0,60,0z"/>
	</g>
</g>
<g id="Settings">
	<g>
		<path style="fill-rule:evenodd;clip-rule:evenodd;fill:#FFFFFF;" d="M44.25,29.372l-1.301-0.425
			c-0.25-0.895-0.6-1.745-1.048-2.537l0.616-1.218c0.684-0.684,0.684-1.791,0-2.475L41.28,21.48c-0.684-0.684-1.791-0.684-2.475,0
			l-1.217,0.617c-0.791-0.448-1.643-0.799-2.537-1.049l-0.427-1.301c0-0.967-0.784-1.751-1.75-1.751h-1.75
			c-0.967,0-1.75,0.784-1.75,1.751l-0.425,1.301c-0.893,0.247-1.74,0.597-2.529,1.042l-1.228-0.61c-0.684-0.684-1.791-0.684-2.475,0
			l-1.237,1.237c-0.684,0.684-0.684,1.791,0,2.475l0.611,1.227c-0.443,0.786-0.792,1.629-1.039,2.517l-1.304,0.437
			c-0.967,0-1.75,0.784-1.75,1.751v1.75c0,0.967,0.783,1.749,1.75,1.749l1.305,0.438c0.247,0.888,0.595,1.732,1.038,2.518
			l-0.611,1.228c-0.684,0.684-0.684,1.791,0,2.475l1.237,1.237c0.684,0.683,1.791,0.683,2.475,0l1.229-0.61
			c0.785,0.442,1.628,0.79,2.516,1.038l0.438,1.305c0,0.966,0.783,1.749,1.75,1.749h1.75c0.966,0,1.75-0.783,1.75-1.749l0.438-1.305
			c0.89-0.249,1.736-0.599,2.523-1.044l1.22,0.616c0.684,0.683,1.791,0.683,2.475,0l1.237-1.237c0.684-0.684,0.684-1.791,0-2.475
			l-0.618-1.218c0.448-0.791,0.8-1.641,1.049-2.536l1.302-0.429c0.966,0,1.75-0.782,1.75-1.749v-1.75
			C46,30.156,45.216,29.372,44.25,29.372z M32,40.014c-4.427,0-8.016-3.589-8.016-8.016s3.589-8.017,8.016-8.017
			c4.426,0,8.016,3.59,8.016,8.017S36.426,40.014,32,40.014z M32,27.999c-2.209,0-4,1.791-4,4.001c0,2.208,1.791,3.999,4,3.999
			s4-1.791,4-3.999C36,29.79,34.209,27.999,32,27.999z"/>
	</g>
</g>
<g>
</g>
<g>
</g>
<g>
</g>
<g>
</g>
<g>
</g>
<g>
</g>
<g>
</g>
<g>
</g>
<g>
</g>
<g>
</g>
<g>
</g>
<g>
</g>
<g>
</g>
<g>
</g>
<g>
</g>
</svg>
