<?xml version="1.0" encoding="iso-8859-1"?>
<!-- Generator: Adobe Illustrator 16.0.0, SVG Export Plug-In . SVG Version: 6.00 Build 0)  -->
<!DOCTYPE svg PUBLIC "-//W3C//DTD SVG 1.1//EN" "http://www.w3.org/Graphics/SVG/1.1/DTD/svg11.dtd">
<svg version="1.1" id="Layer_1" xmlns="http://www.w3.org/2000/svg" xmlns:xlink="http://www.w3.org/1999/xlink" x="0px" y="0px"
	 width="64px" height="63.999px" viewBox="0 0 64 63.999" style="enable-background:new 0 0 64 63.999;" xml:space="preserve">
<g id="Button_29_">
	<g>
		<path style="fill:#88C057;" d="M60,0H4C1.791,0,0,1.791,0,4v56c0,2.209,1.791,3.999,4,3.999h56c2.209,0,4-1.79,4-3.999V4
			C64,1.791,62.209,0,60,0z"/>
	</g>
</g>
<g id="On_x2F_Off">
	<g>
		<path style="fill-rule:evenodd;clip-rule:evenodd;fill:#FFFFFF;" d="M36,18.587v4.26c3.524,1.543,5.988,5.058,5.988,9.15
			c0,5.518-4.472,9.989-9.988,9.989s-9.989-4.472-9.989-9.989c0-4.093,2.465-7.607,5.989-9.15v-4.26
			c-5.782,1.721-10,7.069-10,13.411c0,7.732,6.268,14,14,14c7.731,0,13.999-6.268,13.999-14C45.999,25.657,41.781,20.309,36,18.587z
			 M32,28c1.104,0,2-0.896,2-2v-8c0-1.104-0.896-2-2-2s-2,0.896-2,2v8C30,27.104,30.896,28,32,28z"/>
	</g>
</g>
<g>
</g>
<g>
</g>
<g>
</g>
<g>
</g>
<g>
</g>
<g>
</g>
<g>
</g>
<g>
</g>
<g>
</g>
<g>
</g>
<g>
</g>
<g>
</g>
<g>
</g>
<g>
</g>
<g>
</g>
</svg>
