<?xml version="1.0" encoding="iso-8859-1"?>
<!-- Generator: Adobe Illustrator 16.0.0, SVG Export Plug-In . SVG Version: 6.00 Build 0)  -->
<!DOCTYPE svg PUBLIC "-//W3C//DTD SVG 1.1//EN" "http://www.w3.org/Graphics/SVG/1.1/DTD/svg11.dtd">
<svg version="1.1" id="Layer_1" xmlns="http://www.w3.org/2000/svg" xmlns:xlink="http://www.w3.org/1999/xlink" x="0px" y="0px"
	 width="64px" height="64px" viewBox="0 0 64 64" style="enable-background:new 0 0 64 64;" xml:space="preserve">
<g id="Base_26_">
	<g>
		<path style="fill:#CCCCCC;" d="M60,0H4C1.791,0,0,1.791,0,4.001V60c0,2.21,1.791,4,4,4h56c2.209,0,4-1.79,4-4V4.001
			C64,1.791,62.209,0,60,0z"/>
	</g>
</g>
<g id="Container_21_">
	<g>
		<path style="fill:#FFFFFF;" d="M58,4.001H6C4.896,4.001,4,4.896,4,6v52c0,1.104,0.896,2,2,2h32c1.104,0,2-0.896,2-2V44
			c0-1.104,0.896-2,2-2h16c1.104,0,2-0.896,2-1.999V6C60,4.896,59.104,4.001,58,4.001z"/>
	</g>
</g>
<g id="Color">
	<g>
		<path style="fill-rule:evenodd;clip-rule:evenodd;fill:#88C057;" d="M36,42c0-2.209,1.791-3.999,4-3.999h16V8H8v48h28V42z"/>
	</g>
</g>
<g id="Arrow_1_">
	<g>
		<path style="fill:#FFFFFF;" d="M56,48c-0.553,0-1.053,0.224-1.415,0.585L52,51.171l-2.586-2.586C49.052,48.224,48.552,48,48,48
			c-1.105,0-2,0.896-2,2c0,0.552,0.224,1.052,0.585,1.414l4.001,4C50.947,55.776,51.447,56,52,56c0.552,0,1.052-0.224,1.414-0.586
			l4-4C57.775,51.052,58,50.552,58,50C58,48.896,57.104,48,56,48z"/>
	</g>
</g>
<g>
</g>
<g>
</g>
<g>
</g>
<g>
</g>
<g>
</g>
<g>
</g>
<g>
</g>
<g>
</g>
<g>
</g>
<g>
</g>
<g>
</g>
<g>
</g>
<g>
</g>
<g>
</g>
<g>
</g>
</svg>
