<?xml version="1.0" encoding="iso-8859-1"?>
<!-- Generator: Adobe Illustrator 16.0.0, SVG Export Plug-In . SVG Version: 6.00 Build 0)  -->
<!DOCTYPE svg PUBLIC "-//W3C//DTD SVG 1.1//EN" "http://www.w3.org/Graphics/SVG/1.1/DTD/svg11.dtd">
<svg version="1.1" id="Layer_1" xmlns="http://www.w3.org/2000/svg" xmlns:xlink="http://www.w3.org/1999/xlink" x="0px" y="0px"
	 width="64px" height="64px" viewBox="0 0 64 64" style="enable-background:new 0 0 64 64;" xml:space="preserve">
<g id="Base_53_">
	<g>
		<circle style="fill:#88C057;" cx="32" cy="32" r="32"/>
	</g>
</g>
<g id="Container_79_">
	<g>
		<circle style="fill:#FFFFFF;" cx="32" cy="32" r="28"/>
	</g>
</g>
<g id="Indicator">
	<g>
		<path style="fill-rule:evenodd;clip-rule:evenodd;fill:#999999;" d="M36.849,27.151c-2.678-2.678-7.02-2.678-9.697,0
			C24.473,29.829,16,48.001,16,48.001s18.171-8.475,20.849-11.152S39.526,29.829,36.849,27.151z M32,36c-2.209,0-4-1.791-4-4
			s1.791-4,4-4s4,1.791,4,4S34.209,36,32,36z"/>
	</g>
</g>
<g id="Indicator_1_">
	<g>
		<path style="fill-rule:evenodd;clip-rule:evenodd;fill:#ED7161;" d="M27.151,27.151c-2.679,2.678-2.679,7.02,0,9.697
			c2.678,2.678,7.02,2.678,9.697,0S48,16,48,16S29.829,24.474,27.151,27.151z M33.414,33.414c-0.781,0.781-2.047,0.781-2.828,0
			c-0.781-0.78-0.781-2.047,0-2.828s2.047-0.781,2.828,0S34.195,32.634,33.414,33.414z"/>
	</g>
</g>
<g>
</g>
<g>
</g>
<g>
</g>
<g>
</g>
<g>
</g>
<g>
</g>
<g>
</g>
<g>
</g>
<g>
</g>
<g>
</g>
<g>
</g>
<g>
</g>
<g>
</g>
<g>
</g>
<g>
</g>
</svg>
