<?xml version="1.0" encoding="iso-8859-1"?>
<!-- Generator: Adobe Illustrator 16.0.0, SVG Export Plug-In . SVG Version: 6.00 Build 0)  -->
<!DOCTYPE svg PUBLIC "-//W3C//DTD SVG 1.1//EN" "http://www.w3.org/Graphics/SVG/1.1/DTD/svg11.dtd">
<svg version="1.1" id="Layer_1" xmlns="http://www.w3.org/2000/svg" xmlns:xlink="http://www.w3.org/1999/xlink" x="0px" y="0px"
	 width="64px" height="64px" viewBox="0 0 64 64" style="enable-background:new 0 0 64 64;" xml:space="preserve">
<g id="Shape">
	<g>
		<circle style="fill:#FFFFFF;" cx="32" cy="32" r="32"/>
	</g>
</g>
<g id="Shape_1_">
	<g>
		<path style="fill-rule:evenodd;clip-rule:evenodd;fill:#CCCCCC;" d="M32,0C14.327,0,0,14.326,0,32c0,17.673,14.327,32,32,32
			c17.673,0,32-14.327,32-32C64,14.326,49.673,0,32,0z M32,60C16.536,60,4,47.464,4,32S16.536,3.999,32,3.999S60,16.536,60,32
			S47.464,60,32,60z"/>
	</g>
</g>
<g id="Levels">
	<g>
		<path style="fill-rule:evenodd;clip-rule:evenodd;fill:#ED7161;" d="M29,16c9.051,0,16.429,7.08,16.95,16H54
			c0-12.15-9.85-22-22-22c-12.15,0-22,9.85-22,22h2.05C12.571,23.08,19.949,16,29,16z"/>
	</g>
</g>
<g id="Indicator_2_">
	<g>
		<path style="fill:#999999;" d="M32,24c0,0-6,14.687-6,18s2.686,6.001,6,6.001c3.313,0,6-2.688,6-6.001S32,24,32,24z"/>
	</g>
</g>
<g>
</g>
<g>
</g>
<g>
</g>
<g>
</g>
<g>
</g>
<g>
</g>
<g>
</g>
<g>
</g>
<g>
</g>
<g>
</g>
<g>
</g>
<g>
</g>
<g>
</g>
<g>
</g>
<g>
</g>
</svg>
