<?xml version="1.0" encoding="iso-8859-1"?>
<!-- Generator: Adobe Illustrator 16.0.0, SVG Export Plug-In . SVG Version: 6.00 Build 0)  -->
<!DOCTYPE svg PUBLIC "-//W3C//DTD SVG 1.1//EN" "http://www.w3.org/Graphics/SVG/1.1/DTD/svg11.dtd">
<svg version="1.1" id="Layer_1" xmlns="http://www.w3.org/2000/svg" xmlns:xlink="http://www.w3.org/1999/xlink" x="0px" y="0px"
	 width="64px" height="44.001px" viewBox="0 0 64 44.001" style="enable-background:new 0 0 64 44.001;" xml:space="preserve">
<g id="Base_35_">
	<g>
		<path style="fill:#CCCCCC;" d="M60,0H4C1.791,0,0,1.792,0,4.001v36c0,2.209,1.791,4,4,4h56c2.209,0,4-1.791,4-4v-36
			C64,1.792,62.209,0,60,0z"/>
	</g>
</g>
<g id="Container_52_">
	<g>
		<path style="fill:#E6E6E6;" d="M6,4.001c-1.104,0-2,0.896-2,2.001v31.999c0,1.104,0.896,2,2,2h30v-36H6z"/>
	</g>
</g>
<g id="A_3_">
	<g>
		<path style="fill-rule:evenodd;clip-rule:evenodd;fill:#999999;" d="M27.858,29.15l-5.761-15.729
			c-0.397-1.086-1.285-1.42-2.098-1.42s-1.7,0.273-2.098,1.366l-5.761,15.826c-0.397,1.093,0.165,2.3,1.258,2.698
			c1.093,0.397,2.301-0.166,2.698-1.258l0.23-0.634h7.361l0.212,0.58c0.398,1.085,1.606,1.646,2.698,1.251
			C27.692,31.437,28.256,30.235,27.858,29.15z M17.784,26.001l2.214-6.081l2.227,6.081H17.784z"/>
	</g>
</g>
<g id="Arrow_4_">
	<g>
		<path style="fill:#FFFFFF;" d="M54,18.001c-0.553,0-1.053,0.224-1.415,0.585L50,21.172l-2.586-2.586
			c-0.362-0.361-0.862-0.585-1.414-0.585c-1.105,0-2,0.896-2,1.999c0,0.553,0.224,1.053,0.586,1.415l4,3.999
			c0.361,0.363,0.861,0.587,1.414,0.587c0.552,0,1.052-0.224,1.414-0.587l4-3.999C55.775,21.053,56,20.553,56,20
			C56,18.896,55.104,18.001,54,18.001z"/>
	</g>
</g>
<g>
</g>
<g>
</g>
<g>
</g>
<g>
</g>
<g>
</g>
<g>
</g>
<g>
</g>
<g>
</g>
<g>
</g>
<g>
</g>
<g>
</g>
<g>
</g>
<g>
</g>
<g>
</g>
<g>
</g>
</svg>
