<?xml version="1.0" encoding="iso-8859-1"?>
<!-- Generator: Adobe Illustrator 16.0.0, SVG Export Plug-In . SVG Version: 6.00 Build 0)  -->
<!DOCTYPE svg PUBLIC "-//W3C//DTD SVG 1.1//EN" "http://www.w3.org/Graphics/SVG/1.1/DTD/svg11.dtd">
<svg version="1.1" id="Layer_1" xmlns="http://www.w3.org/2000/svg" xmlns:xlink="http://www.w3.org/1999/xlink" x="0px" y="0px"
	 width="64px" height="60.001px" viewBox="0 0 64 60.001" style="enable-background:new 0 0 64 60.001;" xml:space="preserve">
<g id="Star">
	<g>
		<path style="fill-rule:evenodd;clip-rule:evenodd;fill:#CCCCCC;" d="M63.824,22.668c-0.399-1.23-1.443-2.144-2.723-2.384
			l-17.434-3.279L35.102,1.808C34.475,0.692,33.287,0,32,0c-0.005,0-0.01,0.001-0.015,0.001H32v52.288l16.083,7.384
			c0.478,0.219,0.986,0.326,1.493,0.326c0.743,0,1.479-0.23,2.101-0.681c1.044-0.758,1.589-2.02,1.427-3.294l-2.196-17.19
			l12.111-12.651C63.914,25.247,64.224,23.898,63.824,22.668z"/>
	</g>
</g>
<g id="Star_1_">
	<g>
		<path style="fill-rule:evenodd;clip-rule:evenodd;fill:#FFCC66;" d="M32,0.001h0.015C32.01,0.001,32.005,0,32,0.001
			C30.713,0,29.524,0.692,28.896,1.808l-8.564,15.197L2.897,20.284c-1.279,0.24-2.323,1.153-2.723,2.384s-0.09,2.579,0.807,3.515
			l12.11,12.651l-2.197,17.19c-0.163,1.274,0.384,2.536,1.427,3.294c0.62,0.45,1.358,0.681,2.101,0.681
			c0.507,0,1.016-0.107,1.492-0.326L32,52.289V0.001z"/>
	</g>
</g>
<g>
</g>
<g>
</g>
<g>
</g>
<g>
</g>
<g>
</g>
<g>
</g>
<g>
</g>
<g>
</g>
<g>
</g>
<g>
</g>
<g>
</g>
<g>
</g>
<g>
</g>
<g>
</g>
<g>
</g>
</svg>
