<?xml version="1.0" encoding="iso-8859-1"?>
<!-- Generator: Adobe Illustrator 16.0.0, SVG Export Plug-In . SVG Version: 6.00 Build 0)  -->
<!DOCTYPE svg PUBLIC "-//W3C//DTD SVG 1.1//EN" "http://www.w3.org/Graphics/SVG/1.1/DTD/svg11.dtd">
<svg version="1.1" id="Layer_1" xmlns="http://www.w3.org/2000/svg" xmlns:xlink="http://www.w3.org/1999/xlink" x="0px" y="0px"
	 width="63.993px" height="59.999px" viewBox="0 0 63.993 59.999" style="enable-background:new 0 0 63.993 59.999;"
	 xml:space="preserve">
<g id="Star_2_">
	<g>
		<path style="fill:#FFCC66;" d="M63.821,22.668c-0.399-1.23-1.443-2.144-2.723-2.384l-17.434-3.279L35.099,1.808
			C34.472,0.692,33.284,0,31.997,0s-2.475,0.692-3.104,1.808l-8.564,15.197L2.894,20.284c-1.279,0.24-2.323,1.153-2.722,2.384
			s-0.09,2.579,0.806,3.515l12.11,12.651l-2.197,17.19c-0.163,1.274,0.383,2.536,1.426,3.294c0.621,0.45,1.358,0.681,2.101,0.681
			c0.507,0,1.017-0.107,1.492-0.326l16.086-7.384l16.083,7.384c0.477,0.219,0.986,0.326,1.493,0.326c0.743,0,1.479-0.23,2.101-0.681
			c1.043-0.758,1.588-2.02,1.427-3.294l-2.196-17.19l12.111-12.651C63.911,25.247,64.221,23.898,63.821,22.668z"/>
	</g>
</g>
<g>
</g>
<g>
</g>
<g>
</g>
<g>
</g>
<g>
</g>
<g>
</g>
<g>
</g>
<g>
</g>
<g>
</g>
<g>
</g>
<g>
</g>
<g>
</g>
<g>
</g>
<g>
</g>
<g>
</g>
</svg>
