<?xml version="1.0" encoding="iso-8859-1"?>
<!-- Generator: Adobe Illustrator 16.0.0, SVG Export Plug-In . SVG Version: 6.00 Build 0)  -->
<!DOCTYPE svg PUBLIC "-//W3C//DTD SVG 1.1//EN" "http://www.w3.org/Graphics/SVG/1.1/DTD/svg11.dtd">
<svg version="1.1" id="Layer_1" xmlns="http://www.w3.org/2000/svg" xmlns:xlink="http://www.w3.org/1999/xlink" x="0px" y="0px"
	 width="64px" height="64.001px" viewBox="0 0 64 64.001" style="enable-background:new 0 0 64 64.001;" xml:space="preserve">
<g id="Base_21_">
	<g>
		<path style="fill:#CCCCCC;" d="M60,0H4C1.791,0,0,1.791,0,4v56c0,2.21,1.791,4.001,4,4.001h56c2.209,0,4-1.791,4-4.001V4
			C64,1.791,62.209,0,60,0z"/>
	</g>
</g>
<g id="Items_1_">
	<g>
		<path style="fill-rule:evenodd;clip-rule:evenodd;fill:#FFFFFF;" d="M18,4.001H6C4.896,4.001,4,4.896,4,6v12.001
			C4,19.105,4.896,20,6,20h12c1.104,0,2-0.895,2-1.999V6C20,4.896,19.104,4.001,18,4.001z M38,4.001H26c-1.104,0-2,0.896-2,1.999
			v12.001C24,19.105,24.896,20,26,20h12c1.104,0,2-0.895,2-1.999V6C40,4.896,39.104,4.001,38,4.001z M58,4.001H46
			c-1.105,0-2,0.896-2,1.999v12.001C44,19.105,44.895,20,46,20h12c1.104,0,2-0.895,2-1.999V6C60,4.896,59.104,4.001,58,4.001z
			 M58,24H46c-1.105,0-2,0.896-2,2v12c0,1.104,0.895,2.001,2,2.001h12c1.104,0,2-0.896,2-2.001V26C60,24.896,59.104,24,58,24z
			 M38,24H26c-1.104,0-2,0.896-2,2v12c0,1.104,0.896,2.001,2,2.001h12c1.104,0,2-0.896,2-2.001V26C40,24.896,39.104,24,38,24z
			 M18,44.001H6c-1.104,0-2,0.895-2,1.999v12c0,1.105,0.896,2.001,2,2.001h12c1.104,0,2-0.896,2-2.001V46
			C20,44.896,19.104,44.001,18,44.001z M38,44.001H26c-1.104,0-2,0.895-2,1.999v12c0,1.105,0.896,2.001,2,2.001h12
			c1.104,0,2-0.896,2-2.001V46C40,44.896,39.104,44.001,38,44.001z M58,44.001H46c-1.105,0-2,0.895-2,1.999v12
			c0,1.105,0.895,2.001,2,2.001h12c1.104,0,2-0.896,2-2.001V46C60,44.896,59.104,44.001,58,44.001z"/>
	</g>
</g>
<g id="Selected_1_">
	<g>
		<path style="fill:#E6E6E6;" d="M18,24H6c-1.104,0-2,0.896-2,2v12c0,1.104,0.896,2,2,2h12c1.104,0,2-0.896,2-2V26
			C20,24.896,19.104,24,18,24z"/>
	</g>
</g>
<g>
</g>
<g>
</g>
<g>
</g>
<g>
</g>
<g>
</g>
<g>
</g>
<g>
</g>
<g>
</g>
<g>
</g>
<g>
</g>
<g>
</g>
<g>
</g>
<g>
</g>
<g>
</g>
<g>
</g>
</svg>
