<?xml version="1.0" encoding="iso-8859-1"?>
<!-- Generator: Adobe Illustrator 16.0.0, SVG Export Plug-In . SVG Version: 6.00 Build 0)  -->
<!DOCTYPE svg PUBLIC "-//W3C//DTD SVG 1.1//EN" "http://www.w3.org/Graphics/SVG/1.1/DTD/svg11.dtd">
<svg version="1.1" id="Layer_1" xmlns="http://www.w3.org/2000/svg" xmlns:xlink="http://www.w3.org/1999/xlink" x="0px" y="0px"
	 width="64px" height="64.001px" viewBox="0 0 64 64.001" style="enable-background:new 0 0 64 64.001;" xml:space="preserve">
<g id="Base_20_">
	<g>
		<path style="fill:#CCCCCC;" d="M60,0H4C1.791,0,0,1.791,0,4v56c0,2.21,1.791,4.001,4,4.001h56c2.209,0,4-1.791,4-4.001V4
			C64,1.791,62.209,0,60,0z"/>
	</g>
</g>
<g id="Items">
	<g>
		<path style="fill-rule:evenodd;clip-rule:evenodd;fill:#FFFFFF;" d="M19.999,4.001H6C4.896,4.001,4,4.896,4,6v12.001
			C4,19.105,4.896,20,6,20h13.999C21.104,20,22,19.105,22,18.001V6C22,4.896,21.104,4.001,19.999,4.001z M42,4.001H28
			c-1.105,0-2,0.896-2,1.999v12.001C26,19.105,26.895,20,28,20h14c1.104,0,2-0.895,2-1.999V6C44,4.896,43.104,4.001,42,4.001z
			 M42,24H28c-1.105,0-2,0.896-2,2v12c0,1.104,0.895,2.001,2,2.001h14c1.104,0,2-0.896,2-2.001V26C44,24.896,43.104,24,42,24z
			 M19.999,44.001H6c-1.104,0-2,0.895-2,1.999v12c0,1.105,0.896,2.001,2,2.001h13.999C21.104,60.001,22,59.105,22,58V46
			C22,44.896,21.104,44.001,19.999,44.001z M42,44.001H28c-1.105,0-2,0.895-2,1.999v12c0,1.105,0.895,2.001,2,2.001h14
			c1.104,0,2-0.896,2-2.001V46C44,44.896,43.104,44.001,42,44.001z"/>
	</g>
</g>
<g id="Selected">
	<g>
		<path style="fill:#E6E6E6;" d="M20,24H6c-1.104,0-2,0.896-2,2v12c0,1.104,0.896,2,2,2h14c1.104,0,2-0.896,2-2V26
			C22,24.896,21.104,24,20,24z"/>
	</g>
</g>
<g id="Scroll_Bg_2_">
	<g>
		<path style="fill:#FFFFFF;" d="M58,4h-8c-1.104,0-2,0.896-2,2v52c0,1.104,0.896,2,2,2h8c1.104,0,2-0.896,2-2V6
			C60,4.896,59.104,4,58,4z"/>
	</g>
</g>
<g id="Scroll_4_">
	<g>
		<path style="fill-rule:evenodd;clip-rule:evenodd;fill:#999999;" d="M54,52.001c-1.104,0-2,0.895-2,1.999s0.896,2,2,2s2-0.896,2-2
			S55.104,52.001,54,52.001z M54,12.001c1.104,0,2-0.896,2-2C56,8.896,55.104,8,54,8s-2,0.896-2,2.001
			C52,11.104,52.896,12.001,54,12.001z M54,16c-1.104,0-2,0.896-2,2.001V34c0,1.104,0.896,2.001,2,2.001s2-0.896,2-2.001V18.001
			C56,16.896,55.104,16,54,16z"/>
	</g>
</g>
<g>
</g>
<g>
</g>
<g>
</g>
<g>
</g>
<g>
</g>
<g>
</g>
<g>
</g>
<g>
</g>
<g>
</g>
<g>
</g>
<g>
</g>
<g>
</g>
<g>
</g>
<g>
</g>
<g>
</g>
</svg>
