<?xml version="1.0" encoding="iso-8859-1"?>
<!-- Generator: Adobe Illustrator 16.0.0, SVG Export Plug-In . SVG Version: 6.00 Build 0)  -->
<!DOCTYPE svg PUBLIC "-//W3C//DTD SVG 1.1//EN" "http://www.w3.org/Graphics/SVG/1.1/DTD/svg11.dtd">
<svg version="1.1" id="Layer_1" xmlns="http://www.w3.org/2000/svg" xmlns:xlink="http://www.w3.org/1999/xlink" x="0px" y="0px"
	 width="64px" height="56px" viewBox="0 0 64 56" style="enable-background:new 0 0 64 56;" xml:space="preserve">
<g id="Heart">
	<g>
		<path style="fill-rule:evenodd;clip-rule:evenodd;fill:#ED7161;" d="M47,0c-0.009,0-0.019,0.001-0.028,0.001h0.047
			C47.013,0.001,47.006,0,47,0z M17,0C7.61,0,0,7.604,0,16.98c0,5.204,2.348,9.854,6.037,12.969L6,29.966
			c0,0,21.609,23.09,23.171,24.736c0.781,0.823,1.805,1.235,2.829,1.235V8.995C29.139,3.644,23.497,0,17,0z"/>
	</g>
</g>
<g id="Heart_1_">
	<g>
		<path style="fill-rule:evenodd;clip-rule:evenodd;fill:#CCCCCC;" d="M16.98,0.001h0.047C17.019,0.001,17.009,0,17,0
			C16.994,0,16.987,0.001,16.98,0.001z M64,16.98C64,7.604,56.389,0,47,0c-6.497,0-12.139,3.644-15,8.995v46.942
			c1.023,0,2.047-0.412,2.828-1.235C36.39,53.056,58,29.966,58,29.966l-0.037-0.017C61.652,26.834,64,22.184,64,16.98z"/>
	</g>
</g>
<g>
</g>
<g>
</g>
<g>
</g>
<g>
</g>
<g>
</g>
<g>
</g>
<g>
</g>
<g>
</g>
<g>
</g>
<g>
</g>
<g>
</g>
<g>
</g>
<g>
</g>
<g>
</g>
<g>
</g>
</svg>
