<?xml version="1.0" encoding="iso-8859-1"?>
<!-- Generator: Adobe Illustrator 16.0.0, SVG Export Plug-In . SVG Version: 6.00 Build 0)  -->
<!DOCTYPE svg PUBLIC "-//W3C//DTD SVG 1.1//EN" "http://www.w3.org/Graphics/SVG/1.1/DTD/svg11.dtd">
<svg version="1.1" id="Layer_1" xmlns="http://www.w3.org/2000/svg" xmlns:xlink="http://www.w3.org/1999/xlink" x="0px" y="0px"
	 width="64px" height="64px" viewBox="0 0 64 64" style="enable-background:new 0 0 64 64;" xml:space="preserve">
<g id="Frame_6_">
	<g>
		<path style="fill-rule:evenodd;clip-rule:evenodd;fill:#CCCCCC;" d="M32,0C14.326,0,0,14.326,0,32c0,17.673,14.326,32,32,32
			c17.673,0,32-14.327,32-32C64,14.326,49.673,0,32,0z M32,48c-8.837,0-16-7.164-16-16c0-8.837,7.163-15.999,16-15.999
			c8.836,0,16,7.162,16,15.999C48,40.836,40.836,48,32,48z"/>
	</g>
</g>
<g id="Container_80_">
	<g>
		<path style="fill-rule:evenodd;clip-rule:evenodd;fill:#FFFFFF;" d="M32,4C16.536,4,4,16.535,4,32c0,15.464,12.536,28,28,28
			s28-12.536,28-28C60,16.535,47.464,4,32,4z M32,48c-8.837,0-16-7.164-16-16c0-8.837,7.163-15.999,16-15.999
			c8.836,0,16,7.162,16,15.999C48,40.836,40.836,48,32,48z"/>
	</g>
</g>
<g id="Frame_7_">
	<g>
		<path style="fill-rule:evenodd;clip-rule:evenodd;fill:#CCCCCC;" d="M32,12c-11.046,0-20,8.954-20,20s8.954,20.001,20,20.001
			c11.045,0,20-8.955,20-20.001S43.045,12,32,12z M32,48c-8.837,0-16-7.164-16-16c0-8.837,7.163-15.999,16-15.999
			c8.836,0,16,7.162,16,15.999C48,40.836,40.836,48,32,48z"/>
	</g>
</g>
<g id="Stipes">
	<g>
		<path style="fill:#ED7161;" d="M17.701,39.149L3.402,46.299c2.862,5.712,7.366,10.45,12.916,13.579l7.841-13.938
			C21.384,44.374,19.132,42.006,17.701,39.149z M39.149,46.299l7.149,14.298c5.713-2.862,10.449-7.365,13.578-12.916l-13.938-7.84
			C44.374,42.616,42.006,44.868,39.149,46.299z M46.299,24.851l14.298-7.149c-2.862-5.713-7.366-10.45-12.916-13.579L39.84,18.061
			C42.615,19.626,44.867,21.995,46.299,24.851z M4.122,16.319l13.938,7.84c1.564-2.774,3.934-5.027,6.79-6.458L17.701,3.403
			C11.988,6.266,7.251,10.769,4.122,16.319z"/>
	</g>
</g>
<g>
</g>
<g>
</g>
<g>
</g>
<g>
</g>
<g>
</g>
<g>
</g>
<g>
</g>
<g>
</g>
<g>
</g>
<g>
</g>
<g>
</g>
<g>
</g>
<g>
</g>
<g>
</g>
<g>
</g>
</svg>
