<?xml version="1.0" encoding="iso-8859-1"?>
<!-- Generator: Adobe Illustrator 16.0.0, SVG Export Plug-In . SVG Version: 6.00 Build 0)  -->
<!DOCTYPE svg PUBLIC "-//W3C//DTD SVG 1.1//EN" "http://www.w3.org/Graphics/SVG/1.1/DTD/svg11.dtd">
<svg version="1.1" id="Layer_1" xmlns="http://www.w3.org/2000/svg" xmlns:xlink="http://www.w3.org/1999/xlink" x="0px" y="0px"
	 width="64px" height="64.001px" viewBox="0 0 64 64.001" style="enable-background:new 0 0 64 64.001;" xml:space="preserve">
<g id="Base_7_">
	<g>
		<path style="fill:#ED7161;" d="M60,0H4C1.791,0,0,1.791,0,4v56.001c0,2.208,1.791,4,4,4h56c2.209,0,4-1.792,4-4V4
			C64,1.791,62.209,0,60,0z"/>
	</g>
</g>
<g id="Container_7_">
	<g>
		<path style="fill-rule:evenodd;clip-rule:evenodd;fill:#FFFFFF;" d="M18,24H6c-1.104,0-2,0.896-2,2v32.001c0,1.104,0.896,2,2,2h12
			c1.104,0,2-0.896,2-2V26C20,24.896,19.104,24,18,24z M58,24H26c-1.105,0-2,0.896-2,2v32.001c0,1.104,0.895,2,2,2h32
			c1.104,0,2-0.896,2-2V26C60,24.896,59.104,24,58,24z M58,12H6c-1.104,0-2,0.896-2,2v4c0,1.104,0.896,2,2,2h52c1.104,0,2-0.896,2-2
			v-4C60,12.896,59.104,12,58,12z"/>
	</g>
</g>
<g id="Buttons_7_">
	<g>
		<path style="fill-rule:evenodd;clip-rule:evenodd;fill:#FFFFFF;" d="M6,4C4.896,4,4,4.896,4,6.001s0.896,2,2,2s2-0.896,2-2
			S7.104,4,6,4z M12,4c-1.104,0-2,0.896-2,2.001s0.896,2,2,2s2-0.896,2-2S13.104,4,12,4z M18,4c-1.104,0-2,0.896-2,2.001
			s0.896,2,2,2s2-0.896,2-2S19.104,4,18,4z"/>
	</g>
</g>
<g>
</g>
<g>
</g>
<g>
</g>
<g>
</g>
<g>
</g>
<g>
</g>
<g>
</g>
<g>
</g>
<g>
</g>
<g>
</g>
<g>
</g>
<g>
</g>
<g>
</g>
<g>
</g>
<g>
</g>
</svg>
