<?xml version="1.0" encoding="iso-8859-1"?>
<!-- Generator: Adobe Illustrator 16.0.0, SVG Export Plug-In . SVG Version: 6.00 Build 0)  -->
<!DOCTYPE svg PUBLIC "-//W3C//DTD SVG 1.1//EN" "http://www.w3.org/Graphics/SVG/1.1/DTD/svg11.dtd">
<svg version="1.1" id="Layer_1" xmlns="http://www.w3.org/2000/svg" xmlns:xlink="http://www.w3.org/1999/xlink" x="0px" y="0px"
	 width="64px" height="64.001px" viewBox="0 0 64 64.001" style="enable-background:new 0 0 64 64.001;" xml:space="preserve">
<g id="Base_22_">
	<g>
		<path style="fill:#CCCCCC;" d="M60,0H4C1.791,0,0,1.791,0,4v56c0,2.21,1.791,4.001,4,4.001h56c2.209,0,4-1.791,4-4.001V4
			C64,1.791,62.209,0,60,0z"/>
	</g>
</g>
<g id="Items_2_">
	<g>
		<path style="fill-rule:evenodd;clip-rule:evenodd;fill:#FFFFFF;" d="M42,52.001H6c-1.104,0-2,0.895-2,2V58
			c0,1.105,0.896,2.001,2,2.001h36c1.104,0,2-0.896,2-2.001v-3.999C44,52.896,43.104,52.001,42,52.001z M42,4.001H6
			C4.896,4.001,4,4.896,4,6v4.001c0,1.104,0.896,2,2,2h36c1.104,0,2-0.896,2-2V6C44,4.896,43.104,4.001,42,4.001z M42,40.001H6
			c-1.104,0-2,0.895-2,1.999v4.001c0,1.104,0.896,2,2,2h36c1.104,0,2-0.896,2-2V42C44,40.896,43.104,40.001,42,40.001z M42,28.001H6
			c-1.104,0-2,0.895-2,1.999v4.001c0,1.104,0.896,2,2,2h36c1.104,0,2-0.896,2-2V30C44,28.896,43.104,28.001,42,28.001z"/>
	</g>
</g>
<g id="Selected_2_">
	<g>
		<path style="fill:#E6E6E6;" d="M42,16H6c-1.104,0-2,0.896-2,2.001v4C4,23.104,4.896,24,6,24h36c1.104,0,2-0.896,2-1.999v-4
			C44,16.896,43.104,16,42,16z"/>
	</g>
</g>
<g id="Scroll_Bg_3_">
	<g>
		<path style="fill:#FFFFFF;" d="M58,4h-8c-1.104,0-2,0.896-2,2v52c0,1.104,0.896,2,2,2h8c1.104,0,2-0.896,2-2V6
			C60,4.896,59.104,4,58,4z"/>
	</g>
</g>
<g id="Scroll_5_">
	<g>
		<path style="fill-rule:evenodd;clip-rule:evenodd;fill:#999999;" d="M54,52.001c-1.104,0-2,0.895-2,1.999s0.896,2,2,2s2-0.896,2-2
			S55.104,52.001,54,52.001z M54,12.001c1.104,0,2-0.896,2-2C56,8.896,55.104,8,54,8s-2,0.896-2,2.001
			C52,11.104,52.896,12.001,54,12.001z M54,16c-1.104,0-2,0.896-2,2.001V34c0,1.104,0.896,2.001,2,2.001s2-0.896,2-2.001V18.001
			C56,16.896,55.104,16,54,16z"/>
	</g>
</g>
<g>
</g>
<g>
</g>
<g>
</g>
<g>
</g>
<g>
</g>
<g>
</g>
<g>
</g>
<g>
</g>
<g>
</g>
<g>
</g>
<g>
</g>
<g>
</g>
<g>
</g>
<g>
</g>
<g>
</g>
</svg>
