<?xml version="1.0" encoding="iso-8859-1"?>
<!-- Generator: Adobe Illustrator 16.0.0, SVG Export Plug-In . SVG Version: 6.00 Build 0)  -->
<!DOCTYPE svg PUBLIC "-//W3C//DTD SVG 1.1//EN" "http://www.w3.org/Graphics/SVG/1.1/DTD/svg11.dtd">
<svg version="1.1" id="Layer_1" xmlns="http://www.w3.org/2000/svg" xmlns:xlink="http://www.w3.org/1999/xlink" x="0px" y="0px"
	 width="64px" height="64.001px" viewBox="0 0 64 64.001" style="enable-background:new 0 0 64 64.001;" xml:space="preserve">
<g id="Base_23_">
	<g>
		<path style="fill:#CCCCCC;" d="M60,0H4C1.791,0,0,1.791,0,4v56c0,2.21,1.791,4.001,4,4.001h56c2.209,0,4-1.791,4-4.001V4
			C64,1.791,62.209,0,60,0z"/>
	</g>
</g>
<g id="Items_3_">
	<g>
		<path style="fill-rule:evenodd;clip-rule:evenodd;fill:#FFFFFF;" d="M58,52.001H6c-1.104,0-2,0.895-2,2V58
			c0,1.105,0.896,2.001,2,2.001h52c1.104,0,2-0.896,2-2.001v-3.999C60,52.896,59.104,52.001,58,52.001z M58,4.001H6
			C4.896,4.001,4,4.896,4,6v4.001c0,1.104,0.896,2,2,2h52c1.104,0,2-0.896,2-2V6C60,4.896,59.104,4.001,58,4.001z M58,40.001H6
			c-1.104,0-2,0.895-2,1.999v4.001c0,1.104,0.896,2,2,2h52c1.104,0,2-0.896,2-2V42C60,40.896,59.104,40.001,58,40.001z M58,28.001H6
			c-1.104,0-2,0.895-2,1.999v4.001c0,1.104,0.896,2,2,2h52c1.104,0,2-0.896,2-2V30C60,28.896,59.104,28.001,58,28.001z"/>
	</g>
</g>
<g id="Selected_3_">
	<g>
		<path style="fill:#E6E6E6;" d="M58,16H6c-1.104,0-2,0.896-2,2.001v4C4,23.104,4.896,24,6,24h52c1.104,0,2-0.896,2-1.999v-4
			C60,16.896,59.104,16,58,16z"/>
	</g>
</g>
<g>
</g>
<g>
</g>
<g>
</g>
<g>
</g>
<g>
</g>
<g>
</g>
<g>
</g>
<g>
</g>
<g>
</g>
<g>
</g>
<g>
</g>
<g>
</g>
<g>
</g>
<g>
</g>
<g>
</g>
</svg>
