<?xml version="1.0" encoding="iso-8859-1"?>
<!-- Generator: Adobe Illustrator 16.0.0, SVG Export Plug-In . SVG Version: 6.00 Build 0)  -->
<!DOCTYPE svg PUBLIC "-//W3C//DTD SVG 1.1//EN" "http://www.w3.org/Graphics/SVG/1.1/DTD/svg11.dtd">
<svg version="1.1" id="Layer_1" xmlns="http://www.w3.org/2000/svg" xmlns:xlink="http://www.w3.org/1999/xlink" x="0px" y="0px"
	 width="64px" height="64.001px" viewBox="0 0 64 64.001" style="enable-background:new 0 0 64 64.001;" xml:space="preserve">
<g id="Loader_6_">
	<g>
		<path style="fill-rule:evenodd;clip-rule:evenodd;fill:#E6E6E6;" d="M32,48.001c-2.209,0-4,1.79-4,3.999v8
			c0,2.21,1.791,4.001,4,4.001S36,62.21,36,60v-8C36,49.791,34.209,48.001,32,48.001z M58.249,42.536l-6.929-4
			c-1.913-1.104-4.359-0.449-5.464,1.465c-1.104,1.912-0.449,4.359,1.464,5.463l6.928,4c1.914,1.105,4.36,0.449,5.465-1.463
			C60.817,46.087,60.162,43.641,58.249,42.536z M24,45.856c-1.913-1.104-4.359-0.449-5.464,1.465l-4,6.928
			c-1.104,1.913-0.449,4.359,1.464,5.464s4.359,0.449,5.464-1.464l4-6.928C26.568,49.407,25.913,46.962,24,45.856z M45.464,47.321
			c-1.104-1.914-3.551-2.569-5.464-1.465c-1.913,1.105-2.568,3.551-1.464,5.465l3.999,6.928c1.105,1.913,3.552,2.568,5.465,1.464
			s2.568-3.551,1.464-5.464L45.464,47.321z"/>
	</g>
</g>
<g id="Loader_7_">
	<g>
		<path style="fill-rule:evenodd;clip-rule:evenodd;fill:#CCCCCC;" d="M12,36.001c2.209,0,4-1.791,4-4.001c0-2.209-1.791-4-4-4H4
			c-2.209,0-4,1.791-4,4c0,2.21,1.791,4.001,4,4.001H12z M18.144,40.001c-1.104-1.914-3.551-2.569-5.464-1.465l-6.929,4
			c-1.913,1.104-2.568,3.551-1.464,5.465c1.104,1.912,3.551,2.568,5.464,1.463l6.929-4C18.593,44.36,19.248,41.913,18.144,40.001z"
			/>
	</g>
</g>
<g id="Loader_8_">
	<g>
		<path style="fill-rule:evenodd;clip-rule:evenodd;fill:#B3B3B3;" d="M16.68,18.536l-6.929-4c-1.913-1.104-4.359-0.449-5.464,1.465
			c-1.104,1.912-0.449,4.358,1.464,5.463l6.929,4c1.913,1.105,4.359,0.449,5.464-1.464S18.593,19.641,16.68,18.536z M25.464,12.68
			l-4-6.928C20.359,3.839,17.913,3.183,16,4.287s-2.568,3.552-1.464,5.465l4,6.928c1.104,1.913,3.551,2.568,5.464,1.464
			C25.913,17.04,26.568,14.593,25.464,12.68z"/>
	</g>
</g>
<g id="Loader_9_">
	<g>
		<path style="fill-rule:evenodd;clip-rule:evenodd;fill:#999999;" d="M32,0c-2.209,0-4,1.791-4,4.001v8c0,2.208,1.791,4,4,4
			s4-1.792,4-4v-8C36,1.791,34.209,0,32,0z M48,4.287c-1.913-1.104-4.359-0.448-5.465,1.465l-3.999,6.928
			c-1.104,1.913-0.449,4.36,1.464,5.464c1.913,1.104,4.359,0.449,5.464-1.464l4-6.928C50.568,7.839,49.913,5.392,48,4.287z"/>
	</g>
</g>
<g id="Loader_10_">
	<g>
		<path style="fill-rule:evenodd;clip-rule:evenodd;fill:#808080;" d="M60,28h-8c-2.209,0-4,1.791-4,4c0,2.21,1.791,4.001,4,4.001h8
			c2.209,0,4-1.791,4-4.001C64,29.791,62.209,28,60,28z M51.32,25.464l6.929-4c1.913-1.104,2.568-3.551,1.464-5.463
			c-1.104-1.914-3.551-2.569-5.465-1.465l-6.928,4c-1.913,1.104-2.568,3.551-1.464,5.464S49.407,26.569,51.32,25.464z"/>
	</g>
</g>
<g>
</g>
<g>
</g>
<g>
</g>
<g>
</g>
<g>
</g>
<g>
</g>
<g>
</g>
<g>
</g>
<g>
</g>
<g>
</g>
<g>
</g>
<g>
</g>
<g>
</g>
<g>
</g>
<g>
</g>
</svg>
