<?xml version="1.0" encoding="iso-8859-1"?>
<!-- Generator: Adobe Illustrator 16.0.0, SVG Export Plug-In . SVG Version: 6.00 Build 0)  -->
<!DOCTYPE svg PUBLIC "-//W3C//DTD SVG 1.1//EN" "http://www.w3.org/Graphics/SVG/1.1/DTD/svg11.dtd">
<svg version="1.1" id="Layer_1" xmlns="http://www.w3.org/2000/svg" xmlns:xlink="http://www.w3.org/1999/xlink" x="0px" y="0px"
	 width="64px" height="44px" viewBox="0 0 64 44" style="enable-background:new 0 0 64 44;" xml:space="preserve">
<g id="Base_27_">
	<g>
		<path style="fill:#CCCCCC;" d="M60,0H4C1.791,0,0,1.791,0,4.001V40c0,2.21,1.791,4,4,4h56c2.209,0,4-1.79,4-4V4.001
			C64,1.791,62.209,0,60,0z"/>
	</g>
</g>
<g id="Container_22_">
	<g>
		<path style="fill:#FFFFFF;" d="M58,4.001H6c-1.104,0-2,0.895-2,2v32C4,39.105,4.896,40,6,40h52c1.104,0,2-0.895,2-1.999v-32
			C60,4.896,59.104,4.001,58,4.001z"/>
	</g>
</g>
<g id="Loader">
	<g>
		<path style="fill:#999999;" d="M26,8L8,26.001v8L34,8H26z M10,8l-2,2v8L18,8H10z M42,8L14,36.001h8L50,8H42z M30,36.001h8L56,18
			v-8L30,36.001z M54,36.001l2-2v-8l-10,10H54z"/>
	</g>
</g>
<g>
</g>
<g>
</g>
<g>
</g>
<g>
</g>
<g>
</g>
<g>
</g>
<g>
</g>
<g>
</g>
<g>
</g>
<g>
</g>
<g>
</g>
<g>
</g>
<g>
</g>
<g>
</g>
<g>
</g>
</svg>
