<?xml version="1.0" encoding="iso-8859-1"?>
<!-- Generator: Adobe Illustrator 16.0.0, SVG Export Plug-In . SVG Version: 6.00 Build 0)  -->
<!DOCTYPE svg PUBLIC "-//W3C//DTD SVG 1.1//EN" "http://www.w3.org/Graphics/SVG/1.1/DTD/svg11.dtd">
<svg version="1.1" id="Layer_1" xmlns="http://www.w3.org/2000/svg" xmlns:xlink="http://www.w3.org/1999/xlink" x="0px" y="0px"
	 width="64px" height="64.001px" viewBox="0 0 64 64.001" style="enable-background:new 0 0 64 64.001;" xml:space="preserve">
<g id="Loader_14_">
	<g>
		<path style="fill-rule:evenodd;clip-rule:evenodd;fill:#CCCCCC;" d="M8,32c0-2.209-1.791-4-4-4s-4,1.791-4,4s1.791,4.001,4,4.001
			S8,34.209,8,32z M11.215,44.001c-1.104-1.914-3.551-2.57-5.464-1.465c-1.913,1.104-2.568,3.551-1.464,5.465
			c1.104,1.912,3.551,2.568,5.464,1.463C11.664,48.359,12.32,45.913,11.215,44.001z"/>
	</g>
</g>
<g id="Loader_12_">
	<g>
		<path style="fill-rule:evenodd;clip-rule:evenodd;fill:#999999;" d="M32,0c-2.209,0-4,1.791-4,4.001C28,6.21,29.791,8,32,8
			s4-1.79,4-3.999C36,1.791,34.209,0,32,0z M48,4.287c-1.913-1.104-4.359-0.449-5.465,1.465c-1.104,1.913-0.448,4.359,1.465,5.464
			s4.359,0.449,5.464-1.464S49.913,5.392,48,4.287z"/>
	</g>
</g>
<g id="Loader_3_">
	<g>
		<path style="fill-rule:evenodd;clip-rule:evenodd;fill:#B3B3B3;" d="M9.751,14.536c-1.913-1.104-4.359-0.449-5.464,1.465
			c-1.104,1.912-0.449,4.358,1.464,5.463S10.11,21.913,11.215,20C12.32,18.087,11.664,15.641,9.751,14.536z M21.464,5.752
			C20.359,3.838,17.913,3.183,16,4.287s-2.568,3.552-1.464,5.465S18.087,12.32,20,11.216S22.568,7.665,21.464,5.752z"/>
	</g>
</g>
<g id="Loader_4_">
	<g>
		<path style="fill-rule:evenodd;clip-rule:evenodd;fill:#E6E6E6;" d="M32,56c-2.209,0-4,1.791-4,4c0,2.21,1.791,4.001,4,4.001
			S36,62.21,36,60C36,57.791,34.209,56,32,56z M20,52.784c-1.913-1.104-4.359-0.448-5.464,1.465S14.087,58.608,16,59.713
			s4.359,0.449,5.464-1.464C22.568,56.335,21.913,53.89,20,52.784z"/>
	</g>
</g>
<g id="Loader_5_">
	<g>
		<path style="fill-rule:evenodd;clip-rule:evenodd;fill:#808080;" d="M59.713,16.001c-1.105-1.914-3.551-2.569-5.465-1.465
			c-1.913,1.104-2.568,3.551-1.464,5.464s3.551,2.568,5.464,1.464C60.162,20.359,60.817,17.913,59.713,16.001z M60,28
			c-2.209,0-4,1.791-4,4s1.791,4.001,4,4.001s4-1.792,4-4.001S62.209,28,60,28z"/>
	</g>
</g>
<g>
</g>
<g>
</g>
<g>
</g>
<g>
</g>
<g>
</g>
<g>
</g>
<g>
</g>
<g>
</g>
<g>
</g>
<g>
</g>
<g>
</g>
<g>
</g>
<g>
</g>
<g>
</g>
<g>
</g>
</svg>
