<?xml version="1.0" encoding="iso-8859-1"?>
<!-- Generator: Adobe Illustrator 16.0.0, SVG Export Plug-In . SVG Version: 6.00 Build 0)  -->
<!DOCTYPE svg PUBLIC "-//W3C//DTD SVG 1.1//EN" "http://www.w3.org/Graphics/SVG/1.1/DTD/svg11.dtd">
<svg version="1.1" id="Layer_1" xmlns="http://www.w3.org/2000/svg" xmlns:xlink="http://www.w3.org/1999/xlink" x="0px" y="0px"
	 width="64px" height="64.001px" viewBox="0 0 64 64.001" style="enable-background:new 0 0 64 64.001;" xml:space="preserve">
<g id="Base_24_">
	<g>
		<path style="fill:#CCCCCC;" d="M60,0H4C1.791,0,0,1.791,0,4v56c0,2.21,1.791,4.001,4,4.001h56c2.209,0,4-1.791,4-4.001V4
			C64,1.791,62.209,0,60,0z"/>
	</g>
</g>
<g id="Items_4_">
	<g>
		<path style="fill-rule:evenodd;clip-rule:evenodd;fill:#FFFFFF;" d="M58,44.001H6c-1.105,0-2,0.895-2,1.999v12
			c0,1.105,0.895,2.001,2,2.001h52c1.104,0,2-0.896,2-2.001V46C60,44.896,59.104,44.001,58,44.001z M58,4.001H6
			C4.895,4.001,4,4.896,4,6v12.001C4,19.105,4.895,20,6,20h52c1.104,0,2-0.895,2-1.999V6C60,4.896,59.104,4.001,58,4.001z"/>
	</g>
</g>
<g id="Selected_4_">
	<g>
		<path style="fill:#48A0DC;" d="M58,24H6c-1.104,0-2,0.896-2,2v12c0,1.104,0.896,2,2,2h52c1.104,0,2-0.896,2-2V26
			C60,24.896,59.104,24,58,24z"/>
	</g>
</g>
<g id="Bullet">
	<g>
		<circle style="fill:#FFFFFF;" cx="10" cy="32.001" r="2"/>
	</g>
</g>
<g id="Bullets">
	<g>
		<path style="fill-rule:evenodd;clip-rule:evenodd;fill:#999999;" d="M10,50c-1.104,0-2,0.896-2,2s0.896,2.001,2,2.001
			s2-0.896,2-2.001S11.104,50,10,50z M10,14.001c1.104,0,2-0.896,2-2s-0.896-2-2-2s-2,0.896-2,2S8.896,14.001,10,14.001z"/>
	</g>
</g>
<g>
</g>
<g>
</g>
<g>
</g>
<g>
</g>
<g>
</g>
<g>
</g>
<g>
</g>
<g>
</g>
<g>
</g>
<g>
</g>
<g>
</g>
<g>
</g>
<g>
</g>
<g>
</g>
<g>
</g>
</svg>
