<?xml version="1.0" encoding="iso-8859-1"?>
<!-- Generator: Adobe Illustrator 16.0.0, SVG Export Plug-In . SVG Version: 6.00 Build 0)  -->
<!DOCTYPE svg PUBLIC "-//W3C//DTD SVG 1.1//EN" "http://www.w3.org/Graphics/SVG/1.1/DTD/svg11.dtd">
<svg version="1.1" id="Layer_1" xmlns="http://www.w3.org/2000/svg" xmlns:xlink="http://www.w3.org/1999/xlink" x="0px" y="0px"
	 width="64px" height="40.001px" viewBox="0 0 64 40.001" style="enable-background:new 0 0 64 40.001;" xml:space="preserve">
<g id="Menu_1_">
	<g>
		<path style="fill-rule:evenodd;clip-rule:evenodd;fill:#9B7CAB;" d="M4,8h56c2.209,0,4-1.79,4-4c0-2.209-1.791-4-4-4H4
			C1.791,0,0,1.791,0,4C0,6.21,1.791,8,4,8z M60,16H4c-2.209,0-4,1.791-4,4c0,2.21,1.791,4.001,4,4.001h56c2.209,0,4-1.791,4-4.001
			C64,17.791,62.209,16,60,16z M60,32H4c-2.209,0-4,1.792-4,4.001c0,2.208,1.791,4,4,4h56c2.209,0,4-1.792,4-4
			C64,33.792,62.209,32,60,32z"/>
	</g>
</g>
<g>
</g>
<g>
</g>
<g>
</g>
<g>
</g>
<g>
</g>
<g>
</g>
<g>
</g>
<g>
</g>
<g>
</g>
<g>
</g>
<g>
</g>
<g>
</g>
<g>
</g>
<g>
</g>
<g>
</g>
</svg>
