<?xml version="1.0" encoding="iso-8859-1"?>
<!-- Generator: Adobe Illustrator 16.0.0, SVG Export Plug-In . SVG Version: 6.00 Build 0)  -->
<!DOCTYPE svg PUBLIC "-//W3C//DTD SVG 1.1//EN" "http://www.w3.org/Graphics/SVG/1.1/DTD/svg11.dtd">
<svg version="1.1" id="Layer_1" xmlns="http://www.w3.org/2000/svg" xmlns:xlink="http://www.w3.org/1999/xlink" x="0px" y="0px"
	 width="64px" height="60px" viewBox="0 0 64 60" style="enable-background:new 0 0 64 60;" xml:space="preserve">
<g id="Bubble_3_">
	<g>
		<path style="fill-rule:evenodd;clip-rule:evenodd;fill:#CCCCCC;" d="M60,0H12C9.791,0,8,1.791,8,4h48c2.209,0,4,1.791,4,4v36
			c2.209,0,4-1.791,4-4V4C64,1.791,62.209,0,60,0z"/>
	</g>
</g>
<g id="Bubble_4_">
	<g>
		<path style="fill-rule:evenodd;clip-rule:evenodd;fill:#CCCCCC;" d="M52,8H4c-2.209,0-4,1.791-4,4v34v2v12l8-8h44
			c2.209,0,4-1.791,4-4V12C56,9.791,54.209,8,52,8z"/>
	</g>
</g>
<g id="Container_75_">
	<g>
		<path style="fill-rule:evenodd;clip-rule:evenodd;fill:#FFFFFF;" d="M50,12H6c-1.104,0-2,0.896-2,1.999V44v2v6l4-4h42
			c1.104,0,2-0.896,2-2V13.999C52,12.896,51.104,12,50,12z"/>
	</g>
</g>
<g id="Dots_2_">
	<g>
		<path style="fill-rule:evenodd;clip-rule:evenodd;fill:#999999;" d="M16,26c-2.209,0-4,1.79-4,3.999C12,32.209,13.791,34,16,34
			s4-1.791,4-4.001C20,27.79,18.209,26,16,26z M28,26c-2.209,0-4,1.79-4,3.999C24,32.209,25.791,34,28,34s4-1.791,4-4.001
			C32,27.79,30.209,26,28,26z M40,26c-2.209,0-4,1.79-4,3.999C36,32.209,37.791,34,40,34s4-1.791,4-4.001C44,27.79,42.209,26,40,26z
			"/>
	</g>
</g>
<g>
</g>
<g>
</g>
<g>
</g>
<g>
</g>
<g>
</g>
<g>
</g>
<g>
</g>
<g>
</g>
<g>
</g>
<g>
</g>
<g>
</g>
<g>
</g>
<g>
</g>
<g>
</g>
<g>
</g>
</svg>
