<?xml version="1.0" encoding="iso-8859-1"?>
<!-- Generator: Adobe Illustrator 16.0.0, SVG Export Plug-In . SVG Version: 6.00 Build 0)  -->
<!DOCTYPE svg PUBLIC "-//W3C//DTD SVG 1.1//EN" "http://www.w3.org/Graphics/SVG/1.1/DTD/svg11.dtd">
<svg version="1.1" id="Layer_1" xmlns="http://www.w3.org/2000/svg" xmlns:xlink="http://www.w3.org/1999/xlink" x="0px" y="0px"
	 width="64px" height="60px" viewBox="0 0 64 60" style="enable-background:new 0 0 64 60;" xml:space="preserve">
<g id="Bubble_15_">
	<g>
		<path style="fill-rule:evenodd;clip-rule:evenodd;fill:#CCCCCC;" d="M60,8.001v36c0,2.207-1.788,3.996-3.994,4L52,48l0.001,0.001
			H9.999l-1.64,1.64c0.627,1.389,2.018,2.36,3.641,2.36h44.001L64,60V48.001V46V12.001C64,9.792,62.209,8.001,60,8.001z"/>
	</g>
</g>
<g id="Bubble_2_">
	<g>
		<path style="fill-rule:evenodd;clip-rule:evenodd;fill:#CCCCCC;" d="M52,0H4C1.791,0,0,1.791,0,4v34v2v12l8-8h44
			c2.209,0,4-1.791,4-4V4C56,1.791,54.209,0,52,0z"/>
	</g>
</g>
<g id="Container_74_">
	<g>
		<path style="fill-rule:evenodd;clip-rule:evenodd;fill:#FFFFFF;" d="M50,4H6C4.896,4,4,4.896,4,5.999V36v2v6l4-4h42
			c1.104,0,2-0.896,2-2V5.999C52,4.896,51.104,4,50,4z"/>
	</g>
</g>
<g id="Dots_1_">
	<g>
		<path style="fill-rule:evenodd;clip-rule:evenodd;fill:#999999;" d="M16,18c-2.209,0-4,1.791-4,4s1.791,4,4,4s4-1.791,4-4
			S18.209,18,16,18z M28,18c-2.209,0-4,1.791-4,4s1.791,4,4,4s4-1.791,4-4S30.209,18,28,18z M40,18c-2.209,0-4,1.791-4,4
			s1.791,4,4,4s4-1.791,4-4S42.209,18,40,18z"/>
	</g>
</g>
<g>
</g>
<g>
</g>
<g>
</g>
<g>
</g>
<g>
</g>
<g>
</g>
<g>
</g>
<g>
</g>
<g>
</g>
<g>
</g>
<g>
</g>
<g>
</g>
<g>
</g>
<g>
</g>
<g>
</g>
</svg>
