<?xml version="1.0" encoding="iso-8859-1"?>
<!-- Generator: Adobe Illustrator 16.0.0, SVG Export Plug-In . SVG Version: 6.00 Build 0)  -->
<!DOCTYPE svg PUBLIC "-//W3C//DTD SVG 1.1//EN" "http://www.w3.org/Graphics/SVG/1.1/DTD/svg11.dtd">
<svg version="1.1" id="Layer_1" xmlns="http://www.w3.org/2000/svg" xmlns:xlink="http://www.w3.org/1999/xlink" x="0px" y="0px"
	 width="64px" height="60.001px" viewBox="0 0 64 60.001" style="enable-background:new 0 0 64 60.001;" xml:space="preserve">
<g id="Bubble_8_">
	<g>
		<path style="fill-rule:evenodd;clip-rule:evenodd;fill:#FFCC66;" d="M60,0H12C9.791,0,8,1.791,8,4.001h48c2.209,0,4,1.791,4,4v30
			l4,6v-12v-2v-26C64,1.791,62.209,0,60,0z"/>
	</g>
</g>
<g id="Bubble_9_">
	<g>
		<path style="fill-rule:evenodd;clip-rule:evenodd;fill:#FFCC66;" d="M52,8.001H4c-2.209,0-4,1.79-4,4v34V48v12.001l8-8h44
			c2.209,0,4-1.791,4-4.001V12.001C56,9.791,54.209,8.001,52,8.001z"/>
	</g>
</g>
<g id="Txt">
	<g>
		<path style="fill:#FFFFFF;" d="M18,32h8c1.104,0,2-0.896,2-1.999c0-1.105-0.896-2-2-2h-8c-1.105,0-2,0.895-2,2
			C16,31.104,16.895,32,18,32z M32,36.001H18c-1.105,0-2,0.895-2,2C16,39.104,16.895,40,18,40h14c1.104,0,2-0.896,2-1.999
			C34,36.896,33.104,36.001,32,36.001z M38,20.001H18c-1.105,0-2,0.896-2,1.999c0,1.104,0.895,2,2,2h20c1.104,0,2-0.896,2-2
			C40,20.896,39.104,20.001,38,20.001z"/>
	</g>
</g>
<g>
</g>
<g>
</g>
<g>
</g>
<g>
</g>
<g>
</g>
<g>
</g>
<g>
</g>
<g>
</g>
<g>
</g>
<g>
</g>
<g>
</g>
<g>
</g>
<g>
</g>
<g>
</g>
<g>
</g>
</svg>
