<?xml version="1.0" encoding="iso-8859-1"?>
<!-- Generator: Adobe Illustrator 16.0.0, SVG Export Plug-In . SVG Version: 6.00 Build 0)  -->
<!DOCTYPE svg PUBLIC "-//W3C//DTD SVG 1.1//EN" "http://www.w3.org/Graphics/SVG/1.1/DTD/svg11.dtd">
<svg version="1.1" id="Layer_1" xmlns="http://www.w3.org/2000/svg" xmlns:xlink="http://www.w3.org/1999/xlink" x="0px" y="0px"
	 width="64px" height="63.996px" viewBox="0 0 64 63.996" style="enable-background:new 0 0 64 63.996;" xml:space="preserve">
<g id="Base_51_">
	<g>
		<path style="fill:#CCCCCC;" d="M60,26.013H32c-2.209,0-4,1.789-4,3.997v23.977c0,2.206,1.791,3.995,4,3.995h12.058
			c-0.056,0.581-0.011,5.998,0.005,6.014c0.281,0.094,5.726-5.211,6.581-6.014H60c2.209,0,4-1.789,4-3.995V30.01
			C64,27.802,62.209,26.013,60,26.013z"/>
	</g>
</g>
<g id="Base_52_">
	<g>
		<path style="fill:#9B7CAB;" d="M38,0.039h-2.938C34.932,0.031,34.81,0,34.678,0H7.308C7.176,0,7.053,0.031,6.923,0.039H4
			c-2.209,0-4,1.788-4,3.996v27.973c0,2.206,1.791,3.995,4,3.995h11.251c0.208,0.163,6.386,6.238,6.686,6.139
			c0.017-0.016,0.066-6.049-0.002-6.139H38c2.209,0,4-1.789,4-3.995V4.035C42,1.827,40.209,0.039,38,0.039z"/>
	</g>
</g>
<g id="Dots">
	<g>
		<path style="fill-rule:evenodd;clip-rule:evenodd;fill:#FFFFFF;" d="M31,16.023c-1.657,0-3,1.343-3,2.998
			c0,1.654,1.343,2.996,3,2.996c1.656,0,3-1.342,3-2.996C34,17.366,32.656,16.023,31,16.023z M21,16.023c-1.657,0-3,1.343-3,2.998
			c0,1.654,1.343,2.996,3,2.996c1.656,0,3-1.342,3-2.996C24,17.366,22.656,16.023,21,16.023z M11,16.023c-1.657,0-3,1.343-3,2.998
			c0,1.654,1.343,2.996,3,2.996c1.656,0,3-1.342,3-2.996C14,17.366,12.656,16.023,11,16.023z"/>
	</g>
</g>
<g>
</g>
<g>
</g>
<g>
</g>
<g>
</g>
<g>
</g>
<g>
</g>
<g>
</g>
<g>
</g>
<g>
</g>
<g>
</g>
<g>
</g>
<g>
</g>
<g>
</g>
<g>
</g>
<g>
</g>
</svg>
