<?xml version="1.0" encoding="iso-8859-1"?>
<!-- Generator: Adobe Illustrator 16.0.0, SVG Export Plug-In . SVG Version: 6.00 Build 0)  -->
<!DOCTYPE svg PUBLIC "-//W3C//DTD SVG 1.1//EN" "http://www.w3.org/Graphics/SVG/1.1/DTD/svg11.dtd">
<svg version="1.1" id="Layer_1" xmlns="http://www.w3.org/2000/svg" xmlns:xlink="http://www.w3.org/1999/xlink" x="0px" y="0px"
	 width="52px" height="63.999px" viewBox="0 0 52 63.999" style="enable-background:new 0 0 52 63.999;" xml:space="preserve">
<g id="Bell_2_">
	<g>
		<path style="fill-rule:evenodd;clip-rule:evenodd;fill:#CCA352;" d="M16.838,58c1.543,3.53,5.063,5.999,9.162,5.999
			S33.618,61.53,35.162,58H16.838z"/>
	</g>
</g>
<g id="Bell_3_">
	<g>
		<path style="fill-rule:evenodd;clip-rule:evenodd;fill:#FFCC66;" d="M48,50c0,0-4-4.001-4-16c0-9.94-2.751-18.501-11.648-21.15
			C33.382,11.503,34,9.826,34,8c0-4.419-3.582-8-8-8s-8,3.581-8,8c0,1.826,0.618,3.503,1.648,4.85C10.751,15.499,8,24.06,8,34
			c0,11.999-4,16-4,16c-2.209,0-4,1.79-4,4c0,2.208,1.791,4,4,4h44c2.209,0,4-1.792,4-4C52,51.79,50.209,50,48,50z M22,8
			c0-2.21,1.791-4,4-4s4,1.79,4,4c0,2.209-1.791,3.999-4,3.999S22,10.209,22,8z"/>
	</g>
</g>
<g>
</g>
<g>
</g>
<g>
</g>
<g>
</g>
<g>
</g>
<g>
</g>
<g>
</g>
<g>
</g>
<g>
</g>
<g>
</g>
<g>
</g>
<g>
</g>
<g>
</g>
<g>
</g>
<g>
</g>
</svg>
