<?xml version="1.0" encoding="iso-8859-1"?>
<!-- Generator: Adobe Illustrator 16.0.0, SVG Export Plug-In . SVG Version: 6.00 Build 0)  -->
<!DOCTYPE svg PUBLIC "-//W3C//DTD SVG 1.1//EN" "http://www.w3.org/Graphics/SVG/1.1/DTD/svg11.dtd">
<svg version="1.1" id="Layer_1" xmlns="http://www.w3.org/2000/svg" xmlns:xlink="http://www.w3.org/1999/xlink" x="0px" y="0px"
	 width="62px" height="67.999px" viewBox="0 0 62 67.999" style="enable-background:new 0 0 62 67.999;" xml:space="preserve">
<g id="Bell">
	<g>
		<path style="fill-rule:evenodd;clip-rule:evenodd;fill:#CCA352;" d="M26,59.999V58h-9.162c1.543,3.53,5.063,5.999,9.162,5.999
			c0.353,0,0.699-0.024,1.042-0.061C26.382,62.775,26,61.433,26,59.999z"/>
	</g>
</g>
<g id="Bell_1_">
	<g>
		<path style="fill-rule:evenodd;clip-rule:evenodd;fill:#FFCC66;" d="M26,39.999c0-4.418,3.582-8,8-8h9.958
			c-0.362-9.072-3.313-16.68-11.606-19.149C33.382,11.503,34,9.826,34,8c0-4.419-3.582-8-8-8c-4.419,0-8,3.581-8,8
			c0,1.826,0.618,3.503,1.648,4.85C10.751,15.499,8,24.06,8,34c0,11.999-4,16-4,16c-2.209,0-4,1.79-4,4c0,2.208,1.791,4,4,4h22
			V39.999z M26,4c2.209,0,4,1.79,4,4c0,2.209-1.791,3.999-4,3.999S22,10.209,22,8C22,5.79,23.791,4,26,4z"/>
	</g>
</g>
<g id="Elipse_4_">
	<g>
		<path style="fill:#ED7161;" d="M54,35.999H34c-2.209,0-4,1.791-4,4v20c0,2.21,1.791,4,4,4h20c2.209,0,4-1.79,4-4v-20
			C58,37.79,56.209,35.999,54,35.999z"/>
	</g>
</g>
<g id="_x32__2_">
	<g>
		<path style="fill-rule:evenodd;clip-rule:evenodd;fill:#FFFFFF;" d="M48,53.999h-3.335l3.577-3.757
			C49.328,49.156,50,47.656,50,45.999c0-3.314-2.687-6-6-6c-3.314,0-6,2.686-6,6c0,1.104,0.896,2,2,2s2-0.896,2-2s0.896-2,2-2
			s2,0.896,2,2s-0.896,2-2,2v0.9l-5.414,5.685v0C38.225,54.946,38,55.446,38,55.999c0,1.104,0.896,2,2,2h8c1.104,0,2-0.896,2-2
			S49.104,53.999,48,53.999z"/>
	</g>
</g>
<g>
</g>
<g>
</g>
<g>
</g>
<g>
</g>
<g>
</g>
<g>
</g>
<g>
</g>
<g>
</g>
<g>
</g>
<g>
</g>
<g>
</g>
<g>
</g>
<g>
</g>
<g>
</g>
<g>
</g>
</svg>
