<?xml version="1.0" encoding="iso-8859-1"?>
<!-- Generator: Adobe Illustrator 16.0.0, SVG Export Plug-In . SVG Version: 6.00 Build 0)  -->
<!DOCTYPE svg PUBLIC "-//W3C//DTD SVG 1.1//EN" "http://www.w3.org/Graphics/SVG/1.1/DTD/svg11.dtd">
<svg version="1.1" id="Layer_1" xmlns="http://www.w3.org/2000/svg" xmlns:xlink="http://www.w3.org/1999/xlink" x="0px" y="0px"
	 width="64px" height="44.001px" viewBox="0 0 64 44.001" style="enable-background:new 0 0 64 44.001;" xml:space="preserve">
<g id="Base_33_">
	<g>
		<path style="fill:#CCCCCC;" d="M60,0H4C1.791,0,0,1.792,0,4.001v36c0,2.209,1.791,4,4,4h56c2.209,0,4-1.791,4-4v-36
			C64,1.792,62.209,0,60,0z"/>
	</g>
</g>
<g id="Container_50_">
	<g>
		<path style="fill:#E6E6E6;" d="M6,4.001c-1.104,0-2,0.896-2,2.001v31.999c0,1.104,0.896,2,2,2h30v-36H6z"/>
	</g>
</g>
<g id="_x32_">
	<g>
		<path style="fill-rule:evenodd;clip-rule:evenodd;fill:#999999;" d="M24,28.001h-4.044l4.286-5.757
			C25.328,21.158,26,19.658,26,18.001c0-3.314-2.687-6-6-6c-3.314,0-6,2.686-6,6C14,19.105,14.896,20,16,20s2-0.895,2-1.999
			s0.896-2,2-2s2,0.896,2,2c0,0.553-0.224,1.052-0.586,1.414L20,21.314l0,0l-5.412,7.27c-0.001,0.001-0.002,0.001-0.002,0.002v0.001
			C14.224,28.948,14,29.448,14,30.001c0,1.104,0.896,2,2,2h8c1.104,0,2-0.896,2-2S25.104,28.001,24,28.001z"/>
	</g>
</g>
<g id="Arrow_2_">
	<g>
		<path style="fill-rule:evenodd;clip-rule:evenodd;fill:#FFFFFF;" d="M54,26.001c-0.553,0-1.053,0.224-1.414,0.585L50,29.173
			l-2.586-2.587c-0.362-0.361-0.862-0.585-1.414-0.585c-1.104,0-2,0.896-2,2c0,0.552,0.224,1.052,0.586,1.413l4,4.001
			c0.361,0.362,0.861,0.586,1.414,0.586c0.552,0,1.052-0.224,1.414-0.586l4-4.001C55.775,29.053,56,28.553,56,28.001
			C56,26.896,55.104,26.001,54,26.001z M46,18.002c0.553,0,1.053-0.225,1.414-0.586L50,14.83l2.586,2.586
			c0.361,0.361,0.861,0.586,1.414,0.586c1.104,0,2-0.896,2-2c0-0.553-0.224-1.053-0.586-1.414l-4-4.001
			c-0.361-0.362-0.861-0.585-1.414-0.585s-1.053,0.223-1.414,0.585l-4,4.001C44.224,14.949,44,15.449,44,16.002
			C44,17.105,44.896,18.002,46,18.002z"/>
	</g>
</g>
<g>
</g>
<g>
</g>
<g>
</g>
<g>
</g>
<g>
</g>
<g>
</g>
<g>
</g>
<g>
</g>
<g>
</g>
<g>
</g>
<g>
</g>
<g>
</g>
<g>
</g>
<g>
</g>
<g>
</g>
</svg>
