<?xml version="1.0" encoding="iso-8859-1"?>
<!-- Generator: Adobe Illustrator 16.0.0, SVG Export Plug-In . SVG Version: 6.00 Build 0)  -->
<!DOCTYPE svg PUBLIC "-//W3C//DTD SVG 1.1//EN" "http://www.w3.org/Graphics/SVG/1.1/DTD/svg11.dtd">
<svg version="1.1" id="Layer_1" xmlns="http://www.w3.org/2000/svg" xmlns:xlink="http://www.w3.org/1999/xlink" x="0px" y="0px"
	 width="60.003px" height="63.976px" viewBox="0 0 60.003 63.976" style="enable-background:new 0 0 60.003 63.976;"
	 xml:space="preserve">
<g id="On">
	<g>
		<path style="fill-rule:evenodd;clip-rule:evenodd;fill:#88C057;" d="M45.022,8.035c-0.008-0.004-0.013-0.011-0.021-0.015
			c-1.913-1.104-4.359-0.449-5.464,1.464c-1.104,1.914-0.449,4.359,1.464,5.465l-0.013,0.021c10.51,6.07,14.108,19.508,8.04,30.018
			c-4.065,7.042-11.441,10.962-19.027,10.97c-7.586-0.008-14.962-3.928-19.028-10.97c-6.067-10.51-2.469-23.947,8.04-30.018
			l-0.012-0.021c1.913-1.105,2.568-3.551,1.464-5.465c-1.104-1.913-3.551-2.568-5.464-1.464c-0.008,0.004-0.014,0.011-0.021,0.015
			C0.651,16.328-4.255,34.66,4.024,49c5.55,9.613,15.62,14.965,25.978,14.976C40.358,63.965,50.428,58.613,55.979,49
			C64.258,34.66,59.352,16.328,45.022,8.035z M30.001,26.017c2.199,0,3.982-1.792,3.982-4.003V4.002c0-2.21-1.783-4.002-3.982-4.002
			s-3.982,1.792-3.982,4.002v18.012C26.019,24.225,27.802,26.017,30.001,26.017z"/>
	</g>
</g>
<g>
</g>
<g>
</g>
<g>
</g>
<g>
</g>
<g>
</g>
<g>
</g>
<g>
</g>
<g>
</g>
<g>
</g>
<g>
</g>
<g>
</g>
<g>
</g>
<g>
</g>
<g>
</g>
<g>
</g>
</svg>
