<?xml version="1.0" encoding="iso-8859-1"?>
<!-- Generator: Adobe Illustrator 16.0.0, SVG Export Plug-In . SVG Version: 6.00 Build 0)  -->
<!DOCTYPE svg PUBLIC "-//W3C//DTD SVG 1.1//EN" "http://www.w3.org/Graphics/SVG/1.1/DTD/svg11.dtd">
<svg version="1.1" id="Layer_1" xmlns="http://www.w3.org/2000/svg" xmlns:xlink="http://www.w3.org/1999/xlink" x="0px" y="0px"
	 width="64px" height="64px" viewBox="0 0 64 64" style="enable-background:new 0 0 64 64;" xml:space="preserve">
<g id="Base_42_">
	<g>
		<path style="fill:#CCCCCC;" d="M60,10H4c-2.209,0-4,1.791-4,4v36c0,2.209,1.791,4.001,4,4.001h56c2.209,0,4-1.792,4-4.001V14
			C64,11.791,62.209,10,60,10z"/>
	</g>
</g>
<g id="Container_59_">
	<g>
		<path style="fill:#FFFFFF;" d="M58,14H6c-1.104,0-2,0.896-2,2v32.001C4,49.104,4.896,50,6,50h52c1.104,0,2-0.896,2-1.999V16
			C60,14.896,59.104,14,58,14z"/>
	</g>
</g>
<g id="Text_5_">
	<g>
		<rect x="8" y="18" style="fill:#9B7CAB;" width="40" height="28"/>
	</g>
</g>
<g id="Password">
	<g>
		<path style="fill-rule:evenodd;clip-rule:evenodd;fill:#FFFFFF;" d="M36,26c-3.313,0-6,2.687-6,6.001C30,35.313,32.687,38,36,38
			s6-2.687,6-5.999C42,28.687,39.313,26,36,26z M20,26c-3.313,0-6,2.687-6,6.001C14,35.313,16.687,38,20,38s6-2.687,6-5.999
			C26,28.687,23.313,26,20,26z"/>
	</g>
</g>
<g id="Cursor">
	<g>
		<path style="fill-rule:evenodd;clip-rule:evenodd;fill:#666666;" d="M60,60h-4c-2.209,0-4-1.791-4-4V8.001C52,5.791,53.791,4,56,4
			h4c1.104,0,2-0.896,2-2.001C62,0.896,61.104,0,60,0h-4c-2.393,0-4.534,1.056-6,2.721C48.533,1.056,46.393,0,44,0h-4
			c-1.104,0-2,0.896-2,1.999C38,3.104,38.896,4,40,4h4c2.209,0,4,1.791,4,4.001V56c0,2.209-1.791,4-4,4h-4c-1.104,0-2,0.896-2,2
			s0.896,2,2,2h4c2.393,0,4.533-1.056,6-2.721C51.466,62.944,53.607,64,56,64h4c1.104,0,2-0.896,2-2S61.104,60,60,60z"/>
	</g>
</g>
<g>
</g>
<g>
</g>
<g>
</g>
<g>
</g>
<g>
</g>
<g>
</g>
<g>
</g>
<g>
</g>
<g>
</g>
<g>
</g>
<g>
</g>
<g>
</g>
<g>
</g>
<g>
</g>
<g>
</g>
</svg>
