<?xml version="1.0" encoding="iso-8859-1"?>
<!-- Generator: Adobe Illustrator 16.0.0, SVG Export Plug-In . SVG Version: 6.00 Build 0)  -->
<!DOCTYPE svg PUBLIC "-//W3C//DTD SVG 1.1//EN" "http://www.w3.org/Graphics/SVG/1.1/DTD/svg11.dtd">
<svg version="1.1" id="Layer_1" xmlns="http://www.w3.org/2000/svg" xmlns:xlink="http://www.w3.org/1999/xlink" x="0px" y="0px"
	 width="64px" height="44.001px" viewBox="0 0 64 44.001" style="enable-background:new 0 0 64 44.001;" xml:space="preserve">
<g id="Base_43_">
	<g>
		<path style="fill:#ED7161;" d="M60,0H4C1.791,0,0,1.791,0,4v36c0,2.209,1.791,4.001,4,4.001h56c2.209,0,4-1.792,4-4.001V4
			C64,1.791,62.209,0,60,0z"/>
	</g>
</g>
<g id="Container_60_">
	<g>
		<path style="fill:#FFFFFF;" d="M58,4H6C4.895,4,4,4.896,4,6v32.001C4,39.104,4.895,40,6,40h52c1.104,0,2-0.896,2-1.999V6
			C60,4.896,59.104,4,58,4z"/>
	</g>
</g>
<g id="Password_1_">
	<g>
		<path style="fill-rule:evenodd;clip-rule:evenodd;fill:#999999;" d="M36,16c-3.313,0-6,2.687-6,6.001C30,25.313,32.687,28,36,28
			s6-2.687,6-5.999C42,18.687,39.313,16,36,16z M20,16c-3.313,0-6,2.687-6,6.001C14,25.313,16.687,28,20,28s6-2.687,6-5.999
			C26,18.687,23.313,16,20,16z"/>
	</g>
</g>
<g>
</g>
<g>
</g>
<g>
</g>
<g>
</g>
<g>
</g>
<g>
</g>
<g>
</g>
<g>
</g>
<g>
</g>
<g>
</g>
<g>
</g>
<g>
</g>
<g>
</g>
<g>
</g>
<g>
</g>
</svg>
