<?xml version="1.0" encoding="iso-8859-1"?>
<!-- Generator: Adobe Illustrator 16.0.0, SVG Export Plug-In . SVG Version: 6.00 Build 0)  -->
<!DOCTYPE svg PUBLIC "-//W3C//DTD SVG 1.1//EN" "http://www.w3.org/Graphics/SVG/1.1/DTD/svg11.dtd">
<svg version="1.1" id="Layer_1" xmlns="http://www.w3.org/2000/svg" xmlns:xlink="http://www.w3.org/1999/xlink" x="0px" y="0px"
	 width="64px" height="64px" viewBox="0 0 64 64" style="enable-background:new 0 0 64 64;" xml:space="preserve">
<g id="Base_30_">
	<g>
		<path style="fill-rule:evenodd;clip-rule:evenodd;fill:#E6E6E6;" d="M32,0C14.327,0,0,14.327,0,32s14.327,32,32,32
			c17.673,0,32-14.327,32-32S49.673,0,32,0z M32,56.001C18.745,56.001,8,45.255,8,32S18.745,8,32,8s24,10.745,24,24
			S45.255,56.001,32,56.001z"/>
	</g>
</g>
<g id="Progress_2_">
	<g>
		<path style="fill-rule:evenodd;clip-rule:evenodd;fill:#48A0DC;" d="M32,0c-2.209,0-4,1.792-4,4.001s1.791,4,4,4
			C32.002,8.001,32.005,8,32.008,8C45.259,8.004,56,18.748,56,32c0,2.21,1.79,4,4,4c2.209,0,4-1.79,4-4C64,14.327,49.673,0,32,0z"/>
	</g>
</g>
<g id="_x32_5_1_">
	<g>
		<path style="fill-rule:evenodd;clip-rule:evenodd;fill:#48A0DC;" d="M24,22c-3.314,0-6,2.686-6,5.999c0,1.105,0.895,2,2,2
			c1.105,0,2-0.895,2-2C22,26.896,22.896,26,24,26c1.104,0,2,0.896,2,1.999c0,0.553-0.224,1.054-0.586,1.415l0.001,0.001
			l-6.829,9.171C18.224,38.947,18,39.448,18,40c0,1.104,0.895,1.999,2,1.999h8c1.105,0,2-0.895,2-1.999s-0.896-2.001-2-2.001h-4.042
			l4.285-5.756h0C29.329,31.157,30,29.656,30,27.999C30,24.686,27.314,22,24,22z M42,36.001c0,1.104-0.896,2-2,2s-2-0.896-2-2h0V36
			c0-1.104-0.895-2.001-2-2.001c-1.105,0-2,0.896-2,2.001v0.001C34,39.313,36.687,42,40,42c3.313,0,6-2.687,6-5.999V34h-4V36.001z
			 M40,28h-2v-2h6c1.104,0,2-0.896,2-2s-0.896-2-2-2h-8c-1.104,0-2,0.896-2,2v6c0,1.105,0.896,1.999,2,1.999V32h4
			c1.104,0,2,0.896,2,1.999h4C46,30.687,43.314,28,40,28z"/>
	</g>
</g>
<g>
</g>
<g>
</g>
<g>
</g>
<g>
</g>
<g>
</g>
<g>
</g>
<g>
</g>
<g>
</g>
<g>
</g>
<g>
</g>
<g>
</g>
<g>
</g>
<g>
</g>
<g>
</g>
<g>
</g>
</svg>
