<?xml version="1.0" encoding="iso-8859-1"?>
<!-- Generator: Adobe Illustrator 16.0.0, SVG Export Plug-In . SVG Version: 6.00 Build 0)  -->
<!DOCTYPE svg PUBLIC "-//W3C//DTD SVG 1.1//EN" "http://www.w3.org/Graphics/SVG/1.1/DTD/svg11.dtd">
<svg version="1.1" id="Layer_1" xmlns="http://www.w3.org/2000/svg" xmlns:xlink="http://www.w3.org/1999/xlink" x="0px" y="0px"
	 width="68px" height="67.999px" viewBox="0 0 68 67.999" style="enable-background:new 0 0 68 67.999;" xml:space="preserve">
<g id="Base_29_">
	<g>
		<path style="fill-rule:evenodd;clip-rule:evenodd;fill:#E6E6E6;" d="M20.318,14.303l-4.016-6.956
			c-3.545,2.361-6.593,5.411-8.952,8.958l6.949,4.012C15.931,17.97,17.975,15.936,20.318,14.303z M23.78,12.297
			c2.529-1.194,5.298-1.967,8.22-2.208V2.067c-4.376,0.271-8.508,1.428-12.231,3.282L23.78,12.297z M57.904,31.999h8.027
			c-0.27-4.375-1.428-8.507-3.282-12.23l-6.951,4.013C56.891,26.311,57.663,29.078,57.904,31.999z M48.233,5.346
			C44.509,3.492,40.375,2.338,36,2.067v8.021c2.922,0.241,5.695,1.007,8.225,2.2L48.233,5.346z M53.694,20.319l6.957-4.017
			c-2.361-3.546-5.41-6.594-8.957-8.953l-4.011,6.946C50.029,15.929,52.063,17.974,53.694,20.319z M12.294,23.777l-6.947-4.012
			c-1.853,3.725-3.008,7.858-3.278,12.233h8.027C10.337,29.078,11.102,26.307,12.294,23.777z M47.681,53.696l4.015,6.955
			c3.545-2.361,6.593-5.41,8.952-8.957L53.7,47.683C52.068,50.029,50.025,52.063,47.681,53.696z M36,57.91v8.021
			c4.375-0.271,8.507-1.428,12.23-3.282l-4.01-6.947C41.69,56.896,38.922,57.669,36,57.91z M10.096,35.999H2.069
			c0.27,4.376,1.427,8.508,3.282,12.231l6.951-4.014C11.109,41.688,10.337,38.92,10.096,35.999z M55.706,44.222l6.947,4.011
			c1.854-3.725,3.008-7.858,3.278-12.233h-8.027C57.663,38.92,56.898,41.691,55.706,44.222z M19.767,62.652
			c3.725,1.854,7.858,3.009,12.233,3.278V57.91c-2.922-0.241-5.695-1.007-8.225-2.2L19.767,62.652z M14.306,47.68l-6.957,4.017
			c2.36,3.545,5.409,6.593,8.956,8.952l4.01-6.946C17.97,52.069,15.938,50.024,14.306,47.68z"/>
	</g>
</g>
<g id="Progress_1_">
	<g>
		<path style="fill-rule:evenodd;clip-rule:evenodd;fill:#48A0DC;" d="M36,2.063v8.027c2.921,0.242,5.696,1,8.227,2.194l4.009-6.944
			C44.511,3.486,40.375,2.335,36,2.063z M62.651,19.768l-6.941,4.007c1.195,2.53,1.955,5.304,2.197,8.225h8.027
			C65.663,27.624,64.506,23.491,62.651,19.768z M51.7,7.341l-4.012,6.948c2.347,1.634,4.388,3.675,6.022,6.021l6.937-4.005
			C58.286,12.759,55.247,9.701,51.7,7.341z"/>
	</g>
</g>
<g id="_x32_5">
	<g>
		<path style="fill-rule:evenodd;clip-rule:evenodd;fill:#48A0DC;" d="M26,23.999c-3.314,0-6,2.686-6,5.999c0,1.105,0.896,2,2,2
			s2-0.895,2-2c0-1.104,0.896-1.999,2-1.999s2,0.896,2,1.999c0,0.553-0.224,1.054-0.587,1.415l0.001,0.001l-6.828,9.171v-0.001
			C20.224,40.946,20,41.447,20,41.999c0,1.104,0.896,1.999,2,1.999h8c1.104,0,2-0.895,2-1.999s-0.896-2.001-2-2.001h-4.043
			l4.285-5.756h0C31.328,33.156,32,31.655,32,29.998C32,26.685,29.313,23.999,26,23.999z M42,29.999h-2v-2h6c1.104,0,2-0.896,2-2
			s-0.896-2-2-2h-8c-1.104,0-2,0.896-2,2v6c0,1.105,0.896,1.999,2,1.999v0.001h4c1.104,0,2,0.896,2,1.999h4
			C48,32.686,45.313,29.999,42,29.999z M44,38c0,1.104-0.896,2-2,2s-2-0.896-2-2v-0.001c0-1.104-0.896-2.001-2-2.001
			s-2,0.896-2,2.001V38c0,3.313,2.687,5.999,6,5.999s6-2.687,6-5.999v-2.001h-4V38z"/>
	</g>
</g>
<g>
</g>
<g>
</g>
<g>
</g>
<g>
</g>
<g>
</g>
<g>
</g>
<g>
</g>
<g>
</g>
<g>
</g>
<g>
</g>
<g>
</g>
<g>
</g>
<g>
</g>
<g>
</g>
<g>
</g>
</svg>
