<?xml version="1.0" encoding="iso-8859-1"?>
<!-- Generator: Adobe Illustrator 16.0.0, SVG Export Plug-In . SVG Version: 6.00 Build 0)  -->
<!DOCTYPE svg PUBLIC "-//W3C//DTD SVG 1.1//EN" "http://www.w3.org/Graphics/SVG/1.1/DTD/svg11.dtd">
<svg version="1.1" id="Layer_1" xmlns="http://www.w3.org/2000/svg" xmlns:xlink="http://www.w3.org/1999/xlink" x="0px" y="0px"
	 width="56px" height="63.999px" viewBox="0 0 56 63.999" style="enable-background:new 0 0 56 63.999;" xml:space="preserve">
<g id="AB">
	<g>
		<path style="fill-rule:evenodd;clip-rule:evenodd;fill:#999999;" d="M44.098,20.633l0.23-0.634h7.361l0.212,0.58
			c0.397,1.086,1.606,1.645,2.698,1.25c1.093-0.396,1.656-1.596,1.259-2.682L50.098,3.42C49.7,2.334,48.813,1.999,48,1.999
			s-1.7,0.274-2.099,1.367l-5.76,15.826c-0.397,1.093,0.165,2.301,1.258,2.698S43.7,21.725,44.098,20.633z M47.998,9.919L50.225,16
			h-4.44L47.998,9.919z M53.224,48.944C53.716,48.074,54,47.071,54,46c0-3.314-2.687-6.001-6-6.001h-4c-1.104,0-2,0.896-2,1.999
			v16.001C42,59.104,42.896,60,44,60h6c3.313,0,6-2.688,6-6.001C56,51.873,54.892,50.011,53.224,48.944z M46,44h2
			c1.104,0,2,0.895,2,2c0,1.104-0.896,1.999-2,1.999h-2V44z M50,56h-4v-4.001h4c1.104,0,2,0.896,2,2S51.104,56,50,56z"/>
	</g>
</g>
<g id="Elipse_2_">
	<g>
		<circle style="fill:#CCCCCC;" cx="14" cy="50" r="14"/>
	</g>
</g>
<g id="Container_42_">
	<g>
		<circle style="fill:#FFFFFF;" cx="14" cy="50" r="10"/>
	</g>
</g>
<g id="Elipse_3_">
	<g>
		<circle style="fill:#48A0DC;" cx="14" cy="14" r="14"/>
	</g>
</g>
<g id="Container_43_">
	<g>
		<circle style="fill:#FFFFFF;" cx="14" cy="13.999" r="4"/>
	</g>
</g>
<g>
</g>
<g>
</g>
<g>
</g>
<g>
</g>
<g>
</g>
<g>
</g>
<g>
</g>
<g>
</g>
<g>
</g>
<g>
</g>
<g>
</g>
<g>
</g>
<g>
</g>
<g>
</g>
<g>
</g>
</svg>
