<?xml version="1.0" encoding="iso-8859-1"?>
<!-- Generator: Adobe Illustrator 16.0.0, SVG Export Plug-In . SVG Version: 6.00 Build 0)  -->
<!DOCTYPE svg PUBLIC "-//W3C//DTD SVG 1.1//EN" "http://www.w3.org/Graphics/SVG/1.1/DTD/svg11.dtd">
<svg version="1.1" id="Layer_1" xmlns="http://www.w3.org/2000/svg" xmlns:xlink="http://www.w3.org/1999/xlink" x="0px" y="0px"
	 width="56px" height="63.999px" viewBox="0 0 56 63.999" style="enable-background:new 0 0 56 63.999;" xml:space="preserve">
<g id="B">
	<g>
		<path style="fill-rule:evenodd;clip-rule:evenodd;fill:#999999;" d="M53.224,48.944C53.716,48.074,54,47.071,54,46
			c0-3.314-2.687-6.001-6-6.001h-4c-1.104,0-2,0.896-2,1.999v16.001C42,59.104,42.896,60,44,60h6c3.313,0,6-2.688,6-6.001
			C56,51.873,54.892,50.011,53.224,48.944z M46,44h2c1.104,0,2,0.895,2,2c0,1.104-0.896,1.999-2,1.999h-2V44z M50,56h-4v-4.001h4
			c1.104,0,2,0.896,2,2S51.104,56,50,56z"/>
	</g>
</g>
<g id="A">
	<g>
		<path style="fill-rule:evenodd;clip-rule:evenodd;fill:#CCCCCC;" d="M55.858,19.147L50.098,3.42C49.7,2.334,48.813,1.999,48,1.999
			s-1.701,0.274-2.099,1.367l-5.76,15.826c-0.398,1.093,0.165,2.301,1.258,2.698s2.301-0.166,2.698-1.258l0.23-0.634h7.36
			l0.213,0.58c0.397,1.086,1.606,1.645,2.698,1.25C55.692,21.434,56.256,20.233,55.858,19.147z M45.784,16l2.213-6.081L50.225,16
			H45.784z"/>
	</g>
</g>
<g id="Elipse">
	<g>
		<circle style="fill:#CCCCCC;" cx="14" cy="50" r="14"/>
	</g>
</g>
<g id="Container_40_">
	<g>
		<circle style="fill:#FFFFFF;" cx="14" cy="50" r="10"/>
	</g>
</g>
<g id="Elipse_1_">
	<g>
		<circle style="fill:#CCCCCC;" cx="14" cy="14" r="14"/>
	</g>
</g>
<g id="Container_41_">
	<g>
		<circle style="fill:#FFFFFF;" cx="14" cy="13.999" r="4"/>
	</g>
</g>
<g>
</g>
<g>
</g>
<g>
</g>
<g>
</g>
<g>
</g>
<g>
</g>
<g>
</g>
<g>
</g>
<g>
</g>
<g>
</g>
<g>
</g>
<g>
</g>
<g>
</g>
<g>
</g>
<g>
</g>
</svg>
