<?xml version="1.0" encoding="iso-8859-1"?>
<!-- Generator: Adobe Illustrator 16.0.0, SVG Export Plug-In . SVG Version: 6.00 Build 0)  -->
<!DOCTYPE svg PUBLIC "-//W3C//DTD SVG 1.1//EN" "http://www.w3.org/Graphics/SVG/1.1/DTD/svg11.dtd">
<svg version="1.1" id="Layer_1" xmlns="http://www.w3.org/2000/svg" xmlns:xlink="http://www.w3.org/1999/xlink" x="0px" y="0px"
	 width="64px" height="63.999px" viewBox="0 0 64 63.999" style="enable-background:new 0 0 64 63.999;" xml:space="preserve">
<g id="Button_20_">
	<g>
		<path style="fill:#48A0DC;" d="M60,0H4C1.791,0,0,1.79,0,4v55.999c0,2.21,1.791,4,4,4h56c2.21,0,4-1.79,4-4V4
			C64,1.79,62.21,0,60,0z"/>
	</g>
</g>
<g id="Repeat">
	<g>
		<path style="fill-rule:evenodd;clip-rule:evenodd;fill:#FFFFFF;" d="M22.001,29.999c0-2.21,1.791-4,4-4h11.078l-0.49,0.49
			c-0.806,0.808-0.806,2.114,0,2.922c0.807,0.806,2.114,0.806,2.921,0l3.841-3.842c0.615-0.615,0.758-1.521,0.434-2.275l0.08-0.08
			c-0.1-0.271-0.238-0.529-0.455-0.747l-3.878-3.877c-0.812-0.812-2.127-0.812-2.938,0s-0.812,2.127,0,2.939l0.469,0.469H26.001
			c-4.419,0-8,3.582-8,8v4c0,0.922,0.165,1.803,0.453,2.625l3.547-3.546V29.999z M45.547,27.373l-3.546,3.546v3.08
			c0,2.209-1.791,4-4,4H26.922l0.429-0.429c0.806-0.808,0.806-2.114,0-2.921c-0.807-0.807-2.114-0.807-2.921,0l-3.841,3.841
			c-0.615,0.616-0.758,1.521-0.434,2.275l-0.019,0.018c0.1,0.27,0.238,0.529,0.456,0.746l3.877,3.878
			c0.812,0.811,2.128,0.811,2.939,0c0.811-0.812,0.811-2.128,0-2.938l-0.471-0.471h11.063c4.418,0,8-3.58,8-7.999v-4
			C46.001,29.077,45.836,28.196,45.547,27.373z"/>
	</g>
</g>
<g>
</g>
<g>
</g>
<g>
</g>
<g>
</g>
<g>
</g>
<g>
</g>
<g>
</g>
<g>
</g>
<g>
</g>
<g>
</g>
<g>
</g>
<g>
</g>
<g>
</g>
<g>
</g>
<g>
</g>
</svg>
