<?xml version="1.0" encoding="iso-8859-1"?>
<!-- Generator: Adobe Illustrator 16.0.0, SVG Export Plug-In . SVG Version: 6.00 Build 0)  -->
<!DOCTYPE svg PUBLIC "-//W3C//DTD SVG 1.1//EN" "http://www.w3.org/Graphics/SVG/1.1/DTD/svg11.dtd">
<svg version="1.1" id="Layer_1" xmlns="http://www.w3.org/2000/svg" xmlns:xlink="http://www.w3.org/1999/xlink" x="0px" y="0px"
	 width="63.999px" height="64.002px" viewBox="0 0 63.999 64.002" style="enable-background:new 0 0 63.999 64.002;"
	 xml:space="preserve">
<g id="Settings_1_">
	<g>
		<path style="fill:#F06EAA;" d="M60,26l-2.974-0.972c-0.57-2.046-1.37-3.989-2.394-5.8l1.407-2.785
			c1.563-1.562,1.563-4.094,0-5.655l-2.827-2.829c-1.563-1.563-4.094-1.563-5.657,0l-2.78,1.412
			c-1.809-1.024-3.755-1.826-5.799-2.398L37.999,4c0-2.209-1.79-4-3.999-4h-4c-2.21,0-4,1.791-4,4l-0.971,2.973
			c-2.039,0.566-3.977,1.364-5.78,2.382l-2.806-1.396c-1.563-1.563-4.094-1.563-5.657,0l-2.827,2.829
			c-1.563,1.562-1.563,4.094,0,5.655l1.396,2.806C8.342,21.044,7.546,22.972,6.98,25L4,26c-2.209,0-4,1.791-4,4v4
			c0,2.211,1.791,3.999,4,3.999L6.981,39c0.566,2.027,1.361,3.958,2.374,5.751l-1.396,2.807c-1.563,1.563-1.563,4.094,0,5.657
			l2.827,2.827c1.563,1.563,4.095,1.563,5.657,0l2.808-1.396c1.794,1.013,3.722,1.809,5.749,2.374l1,2.981c0,2.208,1.79,4,4,4h4
			c2.209,0,3.999-1.792,3.999-4L39,57.021c2.035-0.569,3.969-1.368,5.77-2.387l2.786,1.408c1.563,1.563,4.095,1.563,5.657,0
			l2.827-2.827c1.563-1.563,1.563-4.095,0-5.657l-1.411-2.782c1.023-1.81,1.825-3.751,2.396-5.798L60,37.999
			c2.209,0,3.999-1.788,3.999-3.999v-4C63.999,27.791,62.209,26,60,26z"/>
	</g>
</g>
<g id="Elipse_12_">
	<g>
		<circle style="fill:#FFFFFF;" cx="31.999" cy="32" r="18.036"/>
	</g>
</g>
<g id="Elipse_13_">
	<g>
		<circle style="fill:#9B7CAB;" cx="32" cy="32.003" r="8"/>
	</g>
</g>
<g>
</g>
<g>
</g>
<g>
</g>
<g>
</g>
<g>
</g>
<g>
</g>
<g>
</g>
<g>
</g>
<g>
</g>
<g>
</g>
<g>
</g>
<g>
</g>
<g>
</g>
<g>
</g>
<g>
</g>
</svg>
