<?xml version="1.0" encoding="iso-8859-1"?>
<!-- Generator: Adobe Illustrator 16.0.0, SVG Export Plug-In . SVG Version: 6.00 Build 0)  -->
<!DOCTYPE svg PUBLIC "-//W3C//DTD SVG 1.1//EN" "http://www.w3.org/Graphics/SVG/1.1/DTD/svg11.dtd">
<svg version="1.1" id="Layer_1" xmlns="http://www.w3.org/2000/svg" xmlns:xlink="http://www.w3.org/1999/xlink" x="0px" y="0px"
	 width="60px" height="64.001px" viewBox="0 0 60 64.001" style="enable-background:new 0 0 60 64.001;" xml:space="preserve">
<g id="Lines">
	<g>
		<path style="fill-rule:evenodd;clip-rule:evenodd;fill:#CCCCCC;" d="M50.038,48.537L21.816,32l28.221-16.537
			c1.885-1.104,2.53-3.55,1.442-5.464c-1.089-1.912-3.499-2.568-5.384-1.463L11.963,28.536c-0.066,0.039-0.118,0.091-0.181,0.132
			c-0.119,0.079-0.235,0.161-0.346,0.253c-0.099,0.083-0.189,0.17-0.278,0.261c-0.09,0.091-0.177,0.183-0.259,0.284
			c-0.091,0.112-0.171,0.23-0.25,0.352c-0.041,0.063-0.092,0.116-0.129,0.183c-0.022,0.039-0.033,0.081-0.053,0.12
			c-0.066,0.126-0.121,0.257-0.173,0.39c-0.046,0.116-0.094,0.23-0.128,0.349c-0.036,0.123-0.059,0.247-0.083,0.373
			c-0.025,0.129-0.052,0.257-0.064,0.387c-0.012,0.127-0.01,0.253-0.01,0.381s-0.002,0.254,0.01,0.381
			c0.012,0.13,0.039,0.258,0.064,0.387c0.024,0.126,0.047,0.25,0.083,0.373c0.035,0.118,0.082,0.233,0.128,0.349
			c0.052,0.133,0.106,0.263,0.173,0.39c0.021,0.039,0.031,0.081,0.053,0.12c0.038,0.066,0.089,0.119,0.129,0.183
			c0.078,0.121,0.158,0.239,0.25,0.352c0.082,0.101,0.169,0.193,0.259,0.285c0.089,0.09,0.179,0.178,0.277,0.26
			c0.111,0.093,0.228,0.175,0.348,0.254c0.062,0.042,0.114,0.093,0.179,0.131l34.133,20c1.885,1.104,4.295,0.448,5.384-1.464
			C52.568,52.087,51.922,49.641,50.038,48.537z"/>
	</g>
</g>
<g id="Bubbles">
	<g>
		<path style="fill-rule:evenodd;clip-rule:evenodd;fill:#9B7CAB;" d="M12,20C5.373,20,0,25.374,0,32.001S5.373,44,12,44
			s12-5.372,12-11.999S18.627,20,12,20z M48,24c6.627,0,12-5.372,12-12S54.627,0,48,0S36,5.372,36,12S41.373,24,48,24z M48,40.001
			c-6.627,0-12,5.372-12,11.999c0,6.628,5.373,12.001,12,12.001S60,58.628,60,52C60,45.373,54.627,40.001,48,40.001z"/>
	</g>
</g>
<g>
</g>
<g>
</g>
<g>
</g>
<g>
</g>
<g>
</g>
<g>
</g>
<g>
</g>
<g>
</g>
<g>
</g>
<g>
</g>
<g>
</g>
<g>
</g>
<g>
</g>
<g>
</g>
<g>
</g>
</svg>
