<?xml version="1.0" encoding="iso-8859-1"?>
<!-- Generator: Adobe Illustrator 16.0.0, SVG Export Plug-In . SVG Version: 6.00 Build 0)  -->
<!DOCTYPE svg PUBLIC "-//W3C//DTD SVG 1.1//EN" "http://www.w3.org/Graphics/SVG/1.1/DTD/svg11.dtd">
<svg version="1.1" id="Layer_1" xmlns="http://www.w3.org/2000/svg" xmlns:xlink="http://www.w3.org/1999/xlink" x="0px" y="0px"
	 width="64px" height="63.999px" viewBox="0 0 64 63.999" style="enable-background:new 0 0 64 63.999;" xml:space="preserve">
<g id="Button_19_">
	<g>
		<path style="fill:#48A0DC;" d="M60,0H4C1.791,0,0,1.79,0,4v55.999c0,2.21,1.791,4,4,4h56c2.21,0,4-1.79,4-4V4
			C64,1.79,62.21,0,60,0z"/>
	</g>
</g>
<g id="Shuffle">
	<g>
		<path style="fill-rule:evenodd;clip-rule:evenodd;fill:#FFFFFF;" d="M41.531,34.592c-0.812-0.813-2.127-0.813-2.938,0
			c-0.812,0.811-0.812,2.127,0,2.938l0.379,0.379c-1.967-0.327-3.397-1.577-4.57-3.201c-0.691,1.367-1.34,2.746-2.045,3.936
			c1.377,1.928,3.101,3.355,5.645,3.355c0.383,0,0.732,0,1.079,0l-0.491,0.491c-0.806,0.808-0.806,2.114,0,2.922
			c0.807,0.806,2.114,0.806,2.921,0l3.841-3.842c0.223-0.223,0.378-0.485,0.478-0.764c0.011-0.023,0.02-0.047,0.029-0.071
			c0.033-0.081,0.054-0.165,0.077-0.249c0.007-0.031,0.021-0.059,0.026-0.09c0.151-0.672-0.029-1.404-0.552-1.928L41.531,34.592z
			 M20.001,27.999c0,0,3.077,0,4,0c1.206,0,2.164,0.582,3,1.487c0.665-1.268,1.309-2.655,2.023-3.973
			c-0.841-0.92-1.806-1.516-3.023-1.516c-2.823,0-6,0-6,0c-1.104,0-2,0.896-2,2.001C18.001,27.104,18.896,27.999,20.001,27.999z
			 M38.99,26.088l-0.401,0.401c-0.806,0.808-0.806,2.114,0,2.922c0.807,0.806,2.114,0.806,2.921,0l3.841-3.842
			c0.223-0.223,0.378-0.485,0.478-0.764c0.011-0.023,0.02-0.047,0.029-0.072c0.033-0.08,0.054-0.164,0.076-0.247
			c0.008-0.031,0.021-0.06,0.027-0.092c0.151-0.672-0.029-1.404-0.552-1.928l-3.878-3.877c-0.812-0.812-2.127-0.812-2.938,0
			s-0.812,2.127,0,2.939l0.469,0.469c-0.342,0-0.685,0-1.061,0c-8,0-8,14-14,14c-0.923,0-4,0-4,0c-1.104,0-2,0.896-2,2
			s0.896,1.999,2,1.999c0,0,3.177,0,6,0C31.735,39.998,31.994,27.219,38.99,26.088z"/>
	</g>
</g>
<g>
</g>
<g>
</g>
<g>
</g>
<g>
</g>
<g>
</g>
<g>
</g>
<g>
</g>
<g>
</g>
<g>
</g>
<g>
</g>
<g>
</g>
<g>
</g>
<g>
</g>
<g>
</g>
<g>
</g>
</svg>
