<?xml version="1.0" encoding="iso-8859-1"?>
<!-- Generator: Adobe Illustrator 16.0.0, SVG Export Plug-In . SVG Version: 6.00 Build 0)  -->
<!DOCTYPE svg PUBLIC "-//W3C//DTD SVG 1.1//EN" "http://www.w3.org/Graphics/SVG/1.1/DTD/svg11.dtd">
<svg version="1.1" id="Layer_1" xmlns="http://www.w3.org/2000/svg" xmlns:xlink="http://www.w3.org/1999/xlink" x="0px" y="0px"
	 width="44px" height="64px" viewBox="0 0 44 64" style="enable-background:new 0 0 44 64;" xml:space="preserve">
<g id="Slider_1_">
	<g>
		<path style="fill:#CCCCCC;" d="M26,0h-8c-2.209,0-4,1.791-4,4v56c0,2.21,1.791,4,4,4h8c2.209,0,4-1.79,4-4V4
			C30,1.791,28.209,0,26,0z"/>
	</g>
</g>
<g id="Container_26_">
	<g>
		<path style="fill:#FFFFFF;" d="M24,4h-4c-1.104,0-2,0.896-2,2v52c0,1.104,0.896,2,2,2h4c1.104,0,2-0.896,2-2V6
			C26,4.896,25.104,4,24,4z"/>
	</g>
</g>
<g id="Button_1_">
	<g>
		<circle style="fill:#CCCCCC;" cx="22" cy="32" r="22"/>
	</g>
</g>
<g id="Container_27_">
	<g>
		<circle style="fill:#FFFFFF;" cx="22" cy="32" r="8"/>
	</g>
</g>
<g>
</g>
<g>
</g>
<g>
</g>
<g>
</g>
<g>
</g>
<g>
</g>
<g>
</g>
<g>
</g>
<g>
</g>
<g>
</g>
<g>
</g>
<g>
</g>
<g>
</g>
<g>
</g>
<g>
</g>
</svg>
