<?xml version="1.0" encoding="iso-8859-1"?>
<!-- Generator: Adobe Illustrator 16.0.0, SVG Export Plug-In . SVG Version: 6.00 Build 0)  -->
<!DOCTYPE svg PUBLIC "-//W3C//DTD SVG 1.1//EN" "http://www.w3.org/Graphics/SVG/1.1/DTD/svg11.dtd">
<svg version="1.1" id="Layer_1" xmlns="http://www.w3.org/2000/svg" xmlns:xlink="http://www.w3.org/1999/xlink" x="0px" y="0px"
	 width="64px" height="43.999px" viewBox="0 0 64 43.999" style="enable-background:new 0 0 64 43.999;" xml:space="preserve">
<g id="Slider_5_">
	<g>
		<path style="fill:#CCCCCC;" d="M60,14H4c-2.209,0-4,1.79-4,3.999v8C0,28.208,1.791,30,4,30h56c2.209,0,4-1.792,4-4.001v-8
			C64,15.79,62.209,14,60,14z"/>
	</g>
</g>
<g id="Container_34_">
	<g>
		<path style="fill:#FFFFFF;" d="M58,17.999H6c-1.104,0-2,0.896-2,2.001v3.999c0,1.104,0.896,2,2,2h52c1.104,0,2-0.896,2-2V20
			C60,18.895,59.104,17.999,58,17.999z"/>
	</g>
</g>
<g id="Button_5_">
	<g>
		<circle style="fill:#CCCCCC;" cx="32" cy="22" r="22"/>
	</g>
</g>
<g id="Container_35_">
	<g>
		<circle style="fill:#FFFFFF;" cx="32" cy="22" r="8"/>
	</g>
</g>
<g>
</g>
<g>
</g>
<g>
</g>
<g>
</g>
<g>
</g>
<g>
</g>
<g>
</g>
<g>
</g>
<g>
</g>
<g>
</g>
<g>
</g>
<g>
</g>
<g>
</g>
<g>
</g>
<g>
</g>
</svg>
