<?xml version="1.0" encoding="iso-8859-1"?>
<!-- Generator: Adobe Illustrator 16.0.0, SVG Export Plug-In . SVG Version: 6.00 Build 0)  -->
<!DOCTYPE svg PUBLIC "-//W3C//DTD SVG 1.1//EN" "http://www.w3.org/Graphics/SVG/1.1/DTD/svg11.dtd">
<svg version="1.1" id="Layer_1" xmlns="http://www.w3.org/2000/svg" xmlns:xlink="http://www.w3.org/1999/xlink" x="0px" y="0px"
	 width="64px" height="63.999px" viewBox="0 0 64 63.999" style="enable-background:new 0 0 64 63.999;" xml:space="preserve">
<g id="Button_17_">
	<g>
		<path style="fill:#ED7161;" d="M60,0H4C1.791,0,0,1.79,0,4v55.999c0,2.21,1.791,4,4,4h56c2.21,0,4-1.79,4-4V4
			C64,1.79,62.21,0,60,0z"/>
	</g>
</g>
<g id="Arrow_6_">
	<g>
		<path style="fill-rule:evenodd;clip-rule:evenodd;fill:#FFFFFF;" d="M36.001,29.999h6c1.104,0,2-0.896,2-2c0-1.105-0.896-2-2-2
			H40.95l4.412-4.466c0.81-0.816,0.81-2.141,0-2.955c-0.809-0.816-2.121-0.816-2.932,0l-4.43,4.483V22c0-1.105-0.896-2.001-2-2.001
			s-2,0.896-2,2.001v5.999C34.001,29.104,34.896,29.999,36.001,29.999z M28.001,33.998h-6c-1.104,0-2,0.896-2,2c0,1.105,0.896,2,2,2
			h1.051l-4.412,4.467c-0.811,0.816-0.811,2.141-0.001,2.955c0.81,0.817,2.122,0.817,2.933,0l4.43-4.485v1.063
			c0,1.105,0.896,2.001,2,2.001s2-0.896,2-2.001v-6C30.001,34.894,29.105,33.998,28.001,33.998z M45.423,42.429l-4.475-4.43h1.057
			c1.103,0,1.996-0.896,1.996-2c0-1.105-0.894-2-1.996-2h-5.982c-1.102,0-1.995,0.895-1.995,2V42c0,1.104,0.894,1.999,1.995,1.999
			c1.103,0,1.995-0.896,1.995-1.999v-1.052l4.457,4.412c0.814,0.81,2.135,0.81,2.948,0C46.238,44.552,46.238,43.239,45.423,42.429z
			 M28.042,19.999c-1.104,0-1.996,0.896-1.996,2v1.051l-4.457-4.412c-0.814-0.811-2.135-0.811-2.948-0.001
			c-0.814,0.81-0.814,2.122,0,2.932l4.475,4.431H22.06c-1.104,0-1.996,0.895-1.996,2c0,1.104,0.893,2,1.996,2h5.982
			c1.102,0,1.994-0.896,1.994-2v-6C30.036,20.895,29.144,19.999,28.042,19.999z"/>
	</g>
</g>
<g>
</g>
<g>
</g>
<g>
</g>
<g>
</g>
<g>
</g>
<g>
</g>
<g>
</g>
<g>
</g>
<g>
</g>
<g>
</g>
<g>
</g>
<g>
</g>
<g>
</g>
<g>
</g>
<g>
</g>
</svg>
