<?xml version="1.0" encoding="iso-8859-1"?>
<!-- Generator: Adobe Illustrator 16.0.0, SVG Export Plug-In . SVG Version: 6.00 Build 0)  -->
<!DOCTYPE svg PUBLIC "-//W3C//DTD SVG 1.1//EN" "http://www.w3.org/Graphics/SVG/1.1/DTD/svg11.dtd">
<svg version="1.1" id="Layer_1" xmlns="http://www.w3.org/2000/svg" xmlns:xlink="http://www.w3.org/1999/xlink" x="0px" y="0px"
	 width="64px" height="64.001px" viewBox="0 0 64 64.001" style="enable-background:new 0 0 64 64.001;" xml:space="preserve">
<g id="Base_19_">
	<g>
		<path style="fill:#CCCCCC;" d="M60,0H4C1.791,0,0,1.791,0,4v56c0,2.21,1.791,4.001,4,4.001h56c2.209,0,4-1.791,4-4.001V4
			C64,1.791,62.209,0,60,0z"/>
	</g>
</g>
<g id="Container_19_">
	<g>
		<path style="fill:#FFFFFF;" d="M58,4.001H6C4.896,4.001,4,4.896,4,6v52c0,1.105,0.896,2.001,2,2.001h52c1.104,0,2-0.896,2-2.001V6
			C60,4.896,59.104,4.001,58,4.001z"/>
	</g>
</g>
<g id="Text_1_">
	<g>
		<path style="fill-rule:evenodd;clip-rule:evenodd;fill:#CCCCCC;" d="M50,43.999H14c-1.105,0-2,0.896-2,2c0,1.105,0.895,2,2,2h36
			c1.104,0,2-0.895,2-2C52,44.896,51.104,43.999,50,43.999z M14,40h28c1.104,0,2-0.896,2-2.001S43.104,36,42,36H14
			c-1.105,0-2,0.895-2,1.999S12.895,40,14,40z M50,28H14c-1.105,0-2,0.896-2,1.999c0,1.104,0.895,2,2,2h36c1.104,0,2-0.896,2-2
			C52,28.896,51.104,28,50,28z M14,23.999h28c1.104,0,2-0.895,2-2C44,20.896,43.104,20,42,20H14c-1.105,0-2,0.896-2,1.999
			C12,23.104,12.895,23.999,14,23.999z M14,16h36c1.104,0,2-0.896,2-2s-0.896-2-2-2H14c-1.105,0-2,0.896-2,2S12.895,16,14,16z"/>
	</g>
</g>
<g>
</g>
<g>
</g>
<g>
</g>
<g>
</g>
<g>
</g>
<g>
</g>
<g>
</g>
<g>
</g>
<g>
</g>
<g>
</g>
<g>
</g>
<g>
</g>
<g>
</g>
<g>
</g>
<g>
</g>
</svg>
