<?xml version="1.0" encoding="iso-8859-1"?>
<!-- Generator: Adobe Illustrator 16.0.0, SVG Export Plug-In . SVG Version: 6.00 Build 0)  -->
<!DOCTYPE svg PUBLIC "-//W3C//DTD SVG 1.1//EN" "http://www.w3.org/Graphics/SVG/1.1/DTD/svg11.dtd">
<svg version="1.1" id="Layer_1" xmlns="http://www.w3.org/2000/svg" xmlns:xlink="http://www.w3.org/1999/xlink" x="0px" y="0px"
	 width="64px" height="44px" viewBox="0 0 64 44" style="enable-background:new 0 0 64 44;" xml:space="preserve">
<g id="Base_38_">
	<g>
		<path style="fill:#CCCCCC;" d="M60,0H4C1.79,0,0,1.791,0,4v36c0,2.209,1.79,4,4,4h56c2.209,0,4-1.791,4-4V4
			C64,1.791,62.209,0,60,0z"/>
	</g>
</g>
<g id="Container_55_">
	<g>
		<path style="fill:#FFFFFF;" d="M58,4H6C4.896,4,4,4.896,4,6v32c0,1.104,0.896,2,2,2h52c1.104,0,2-0.896,2-2V6
			C60,4.896,59.104,4,58,4z"/>
	</g>
</g>
<g id="Magnifier_1_">
	<g>
		<path style="fill-rule:evenodd;clip-rule:evenodd;fill:#ED7161;" d="M45.325,22l6.024-6.023c0.918-0.919,0.918-2.407,0-3.325
			s-2.406-0.918-3.325,0L42,18.675l-6.024-6.023c-0.918-0.918-2.406-0.918-3.324,0c-0.919,0.918-0.919,2.406,0,3.325L38.675,22
			l-5.95,5.95c-0.918,0.919-0.918,2.407,0,3.325s2.406,0.918,3.324,0L42,25.325l5.951,5.95c0.918,0.918,2.407,0.918,3.325,0
			s0.918-2.406,0-3.325L45.325,22z"/>
	</g>
</g>
<g>
</g>
<g>
</g>
<g>
</g>
<g>
</g>
<g>
</g>
<g>
</g>
<g>
</g>
<g>
</g>
<g>
</g>
<g>
</g>
<g>
</g>
<g>
</g>
<g>
</g>
<g>
</g>
<g>
</g>
</svg>
