<?xml version="1.0" encoding="iso-8859-1"?>
<!-- Generator: Adobe Illustrator 16.0.0, SVG Export Plug-In . SVG Version: 6.00 Build 0)  -->
<!DOCTYPE svg PUBLIC "-//W3C//DTD SVG 1.1//EN" "http://www.w3.org/Graphics/SVG/1.1/DTD/svg11.dtd">
<svg version="1.1" id="Layer_1" xmlns="http://www.w3.org/2000/svg" xmlns:xlink="http://www.w3.org/1999/xlink" x="0px" y="0px"
	 width="64px" height="63.999px" viewBox="0 0 64 63.999" style="enable-background:new 0 0 64 63.999;" xml:space="preserve">
<g id="Base_41_">
	<g>
		<path style="fill:#CCCCCC;" d="M60,0H4C1.791,0,0,1.79,0,3.999v56c0,2.21,1.791,4,4,4h56c2.209,0,4-1.79,4-4v-56
			C64,1.79,62.209,0,60,0z"/>
	</g>
</g>
<g id="Container_58_">
	<g>
		<path style="fill:#FFFFFF;" d="M58,3.999H6c-1.104,0-2,0.896-2,2V58c0,1.104,0.896,1.999,2,1.999h52c1.104,0,2-0.896,2-1.999
			V5.999C60,4.895,59.104,3.999,58,3.999z"/>
	</g>
</g>
<g id="Text_4_">
	<g>
		<path style="fill:#666666;" d="M14,8c-1.104,0-2,0.895-2,1.999v24c0,1.104,0.896,2,2,2s2-0.896,2-2v-24C16,8.895,15.104,8,14,8z"
			/>
	</g>
</g>
<g>
</g>
<g>
</g>
<g>
</g>
<g>
</g>
<g>
</g>
<g>
</g>
<g>
</g>
<g>
</g>
<g>
</g>
<g>
</g>
<g>
</g>
<g>
</g>
<g>
</g>
<g>
</g>
<g>
</g>
</svg>
