<?xml version="1.0" encoding="iso-8859-1"?>
<!-- Generator: Adobe Illustrator 16.0.0, SVG Export Plug-In . SVG Version: 6.00 Build 0)  -->
<!DOCTYPE svg PUBLIC "-//W3C//DTD SVG 1.1//EN" "http://www.w3.org/Graphics/SVG/1.1/DTD/svg11.dtd">
<svg version="1.1" id="Layer_1" xmlns="http://www.w3.org/2000/svg" xmlns:xlink="http://www.w3.org/1999/xlink" x="0px" y="0px"
	 width="64px" height="44.001px" viewBox="0 0 64 44.001" style="enable-background:new 0 0 64 44.001;" xml:space="preserve">
<g id="Base_48_">
	<g>
		<path style="fill:#CCCCCC;" d="M60,0H4C1.791,0,0,1.791,0,4v36c0,2.209,1.791,4.001,4,4.001h56c2.209,0,4-1.792,4-4.001V4
			C64,1.791,62.209,0,60,0z"/>
	</g>
</g>
<g id="Container_65_">
	<g>
		<path style="fill:#FFFFFF;" d="M58,4H6C4.895,4,4,4.896,4,6v32.001C4,39.104,4.895,40,6,40h52c1.104,0,2-0.896,2-1.999V6
			C60,4.896,59.104,4,58,4z"/>
	</g>
</g>
<g id="Text_9_">
	<g>
		<path style="fill:#666666;" d="M14,8c-1.105,0-2,0.896-2,2v24c0,1.105,0.895,2,2,2c1.104,0,2-0.895,2-2V10C16,8.896,15.104,8,14,8
			z"/>
	</g>
</g>
<g>
</g>
<g>
</g>
<g>
</g>
<g>
</g>
<g>
</g>
<g>
</g>
<g>
</g>
<g>
</g>
<g>
</g>
<g>
</g>
<g>
</g>
<g>
</g>
<g>
</g>
<g>
</g>
<g>
</g>
</svg>
