<?xml version="1.0" encoding="iso-8859-1"?>
<!-- Generator: Adobe Illustrator 16.0.0, SVG Export Plug-In . SVG Version: 6.00 Build 0)  -->
<!DOCTYPE svg PUBLIC "-//W3C//DTD SVG 1.1//EN" "http://www.w3.org/Graphics/SVG/1.1/DTD/svg11.dtd">
<svg version="1.1" id="Layer_1" xmlns="http://www.w3.org/2000/svg" xmlns:xlink="http://www.w3.org/1999/xlink" x="0px" y="0px"
	 width="64px" height="44px" viewBox="0 0 64 44" style="enable-background:new 0 0 64 44;" xml:space="preserve">
<g id="Base_37_">
	<g>
		<path style="fill:#CCCCCC;" d="M60,0H4C1.791,0,0,1.791,0,4v36c0,2.209,1.791,4,4,4h56c2.209,0,4-1.791,4-4V4
			C64,1.791,62.209,0,60,0z"/>
	</g>
</g>
<g id="Container_54_">
	<g>
		<path style="fill:#FFFFFF;" d="M58,4H6C4.896,4,4,4.896,4,6v32c0,1.104,0.896,2,2,2h52c1.104,0,2-0.896,2-2V6
			C60,4.896,59.104,4,58,4z"/>
	</g>
</g>
<g id="Magnifier">
	<g>
		<path style="fill-rule:evenodd;clip-rule:evenodd;fill:#CCCCCC;" d="M53.333,30.132l-4.859-4.859
			c0.957-1.532,1.518-3.338,1.518-5.277c0-5.521-4.476-9.997-9.996-9.997S30,14.475,30,19.995s4.476,9.997,9.996,9.997
			c1.94,0,3.746-0.563,5.279-1.52l4.858,4.858c0.884,0.884,2.316,0.884,3.2,0S54.217,31.016,53.333,30.132z M39.996,25.998
			c-3.315,0-6.003-2.688-6.003-6.003s2.688-6.003,6.003-6.003S46,16.68,46,19.995S43.312,25.998,39.996,25.998z"/>
	</g>
</g>
<g>
</g>
<g>
</g>
<g>
</g>
<g>
</g>
<g>
</g>
<g>
</g>
<g>
</g>
<g>
</g>
<g>
</g>
<g>
</g>
<g>
</g>
<g>
</g>
<g>
</g>
<g>
</g>
<g>
</g>
</svg>
