<?xml version="1.0" encoding="iso-8859-1"?>
<!-- Generator: Adobe Illustrator 16.0.0, SVG Export Plug-In . SVG Version: 6.00 Build 0)  -->
<!DOCTYPE svg PUBLIC "-//W3C//DTD SVG 1.1//EN" "http://www.w3.org/Graphics/SVG/1.1/DTD/svg11.dtd">
<svg version="1.1" id="Layer_1" xmlns="http://www.w3.org/2000/svg" xmlns:xlink="http://www.w3.org/1999/xlink" x="0px" y="0px"
	 width="64px" height="64.001px" viewBox="0 0 64 64.001" style="enable-background:new 0 0 64 64.001;" xml:space="preserve">
<g id="Base_18_">
	<g>
		<path style="fill:#CCCCCC;" d="M60,0H4C1.791,0,0,1.791,0,4v56c0,2.21,1.791,4.001,4,4.001h56c2.209,0,4-1.791,4-4.001V4
			C64,1.791,62.209,0,60,0z"/>
	</g>
</g>
<g id="Container_18_">
	<g>
		<path style="fill:#FFFFFF;" d="M42,4.001H6C4.896,4.001,4,4.896,4,6v52c0,1.105,0.896,2.001,2,2.001h36c1.104,0,2-0.896,2-2.001V6
			C44,4.896,43.104,4.001,42,4.001z"/>
	</g>
</g>
<g id="Text">
	<g>
		<path style="fill-rule:evenodd;clip-rule:evenodd;fill:#CCCCCC;" d="M14,16h20c1.104,0,1.999-0.896,1.999-2S35.104,12,34,12H14
			c-1.105,0-2,0.896-2,2S12.895,16,14,16z M14,23.999h12c1.104,0,2-0.895,2-2C28,20.896,27.104,20,26,20H14
			c-1.105,0-2,0.896-2,1.999C12,23.104,12.895,23.999,14,23.999z M14,40h12c1.104,0,1.999-0.896,1.999-2.001S27.104,36,26,36H14
			c-1.105,0-2,0.895-2,1.999S12.895,40,14,40z M34,28H14c-1.105,0-2,0.896-2,1.999c0,1.104,0.895,2,2,2h20
			c1.104,0,1.999-0.896,1.999-2C35.999,28.896,35.104,28,34,28z M34,43.999H14c-1.105,0-2,0.896-2,2c0,1.105,0.895,2,2,2h20
			c1.104,0,1.999-0.895,1.999-2C35.999,44.896,35.104,43.999,34,43.999z M34,51.999H14c-1.105,0-2,0.896-2,2.001
			c0,1.104,0.895,1.999,2,1.999h20c1.104,0,1.999-0.896,1.999-1.999C35.999,52.896,35.104,51.999,34,51.999z"/>
	</g>
</g>
<g id="Scroll_Bg_1_">
	<g>
		<path style="fill:#FFFFFF;" d="M58,4h-8c-1.104,0-2,0.896-2,2v52c0,1.104,0.896,2,2,2h8c1.104,0,2-0.896,2-2V6
			C60,4.896,59.104,4,58,4z"/>
	</g>
</g>
<g id="Scroll_2_">
	<g>
		<rect x="48" y="16" style="fill:#E6E6E6;" width="12" height="32"/>
	</g>
</g>
<g id="Scroll_3_">
	<g>
		<path style="fill-rule:evenodd;clip-rule:evenodd;fill:#999999;" d="M54,52.001c-1.104,0-2,0.895-2,1.999s0.896,2,2,2s2-0.896,2-2
			S55.104,52.001,54,52.001z M54,12.001c1.104,0,2-0.896,2-2C56,8.896,55.104,8,54,8s-2,0.896-2,2.001
			C52,11.105,52.896,12.001,54,12.001z M48,16v8h12v-8H48z"/>
	</g>
</g>
<g>
</g>
<g>
</g>
<g>
</g>
<g>
</g>
<g>
</g>
<g>
</g>
<g>
</g>
<g>
</g>
<g>
</g>
<g>
</g>
<g>
</g>
<g>
</g>
<g>
</g>
<g>
</g>
<g>
</g>
</svg>
