<?xml version="1.0" encoding="iso-8859-1"?>
<!-- Generator: Adobe Illustrator 16.0.0, SVG Export Plug-In . SVG Version: 6.00 Build 0)  -->
<!DOCTYPE svg PUBLIC "-//W3C//DTD SVG 1.1//EN" "http://www.w3.org/Graphics/SVG/1.1/DTD/svg11.dtd">
<svg version="1.1" id="Layer_1" xmlns="http://www.w3.org/2000/svg" xmlns:xlink="http://www.w3.org/1999/xlink" x="0px" y="0px"
	 width="64px" height="44.001px" viewBox="0 0 64 44.001" style="enable-background:new 0 0 64 44.001;" xml:space="preserve">
<g id="Base_47_">
	<g>
		<path style="fill:#CCCCCC;" d="M60,0H4C1.791,0,0,1.791,0,4v36c0,2.209,1.791,4.001,4,4.001h56c2.209,0,4-1.792,4-4.001V4
			C64,1.791,62.209,0,60,0z"/>
	</g>
</g>
<g id="Container_64_">
	<g>
		<path style="fill:#FFFFFF;" d="M58,4H6C4.896,4,4,4.896,4,6v32.001C4,39.104,4.896,40,6,40h52c1.104,0,2-0.896,2-1.999V6
			C60,4.896,59.104,4,58,4z"/>
	</g>
</g>
<g id="Text_8_">
	<g>
		<path style="fill:#666666;" d="M50,8c-1.104,0-2,0.896-2,2v24c0,1.105,0.896,2,2,2s2-0.895,2-2V10C52,8.896,51.104,8,50,8z"/>
	</g>
</g>
<g id="AB_6_">
	<g>
		<path style="fill-rule:evenodd;clip-rule:evenodd;fill:#999999;" d="M22.098,13.421C21.7,12.335,20.813,12,20,12
			s-1.701,0.274-2.098,1.367l-5.761,15.826c-0.397,1.092,0.165,2.301,1.258,2.698c1.093,0.398,2.301-0.166,2.698-1.258L16.328,30
			h7.361l0.212,0.579c0.397,1.086,1.606,1.646,2.698,1.251c1.093-0.396,1.656-1.596,1.259-2.682L22.098,13.421z M17.784,26
			l2.213-6.08L22.224,26H17.784z M41.224,20.945C41.716,20.075,42,19.071,42,18c0-3.313-2.687-6-6-6h-4c-1.104,0-2,0.896-2,2v16
			c0,1.104,0.896,2,2,2h6c3.313,0,6-2.687,6-6C44,23.874,42.891,22.011,41.224,20.945z M34,16h2c1.104,0,2,0.896,2,2s-0.896,2-2,2
			h-2V16z M38,28h-4v-4h4c1.104,0,2,0.896,2,2S39.104,28,38,28z"/>
	</g>
</g>
<g>
</g>
<g>
</g>
<g>
</g>
<g>
</g>
<g>
</g>
<g>
</g>
<g>
</g>
<g>
</g>
<g>
</g>
<g>
</g>
<g>
</g>
<g>
</g>
<g>
</g>
<g>
</g>
<g>
</g>
</svg>
