<?xml version="1.0" encoding="iso-8859-1"?>
<!-- Generator: Adobe Illustrator 16.0.0, SVG Export Plug-In . SVG Version: 6.00 Build 0)  -->
<!DOCTYPE svg PUBLIC "-//W3C//DTD SVG 1.1//EN" "http://www.w3.org/Graphics/SVG/1.1/DTD/svg11.dtd">
<svg version="1.1" id="Layer_1" xmlns="http://www.w3.org/2000/svg" xmlns:xlink="http://www.w3.org/1999/xlink" x="0px" y="0px"
	 width="64px" height="44px" viewBox="0 0 64 44" style="enable-background:new 0 0 64 44;" xml:space="preserve">
<g id="Base_39_">
	<g>
		<path style="fill:#FFCC66;" d="M60,0H4C1.791,0,0,1.791,0,4v36c0,2.209,1.791,4,4,4h56c2.209,0,4-1.791,4-4V4
			C64,1.791,62.209,0,60,0z"/>
	</g>
</g>
<g id="Container_56_">
	<g>
		<path style="fill:#FFEECC;" d="M58,4H6C4.896,4,4,4.896,4,6.001V38c0,1.104,0.896,2,2,2h52c1.104,0,2-0.896,2-2V6.001
			C60,4.896,59.104,4,58,4z"/>
	</g>
</g>
<g id="AB_2_">
	<g>
		<path style="fill-rule:evenodd;clip-rule:evenodd;fill:#999999;" d="M22.098,13.421c-0.397-1.086-1.285-1.42-2.098-1.42
			s-1.701,0.273-2.098,1.366l-5.761,15.826c-0.397,1.093,0.165,2.3,1.258,2.698c1.093,0.397,2.301-0.166,2.698-1.258L16.328,30
			h7.361l0.212,0.58c0.397,1.085,1.606,1.646,2.698,1.251c1.093-0.396,1.656-1.597,1.259-2.682L22.098,13.421z M17.784,26
			l2.213-6.081L22.224,26H17.784z M41.224,20.945C41.716,20.075,42,19.072,42,18.001c0-3.314-2.687-6-6-6h-4
			c-1.104,0-2,0.895-2,1.999v16c0,1.104,0.896,2,2,2h6c3.313,0,6-2.687,6-6C44,23.874,42.892,22.012,41.224,20.945z M34,16.001h2
			c1.104,0,2,0.895,2,2C38,19.105,37.104,20,36,20h-2V16.001z M38,28h-4v-4h4c1.104,0,2,0.896,2,2S39.104,28,38,28z"/>
	</g>
</g>
<g>
</g>
<g>
</g>
<g>
</g>
<g>
</g>
<g>
</g>
<g>
</g>
<g>
</g>
<g>
</g>
<g>
</g>
<g>
</g>
<g>
</g>
<g>
</g>
<g>
</g>
<g>
</g>
<g>
</g>
</svg>
