<?xml version="1.0" encoding="iso-8859-1"?>
<!-- Generator: Adobe Illustrator 16.0.0, SVG Export Plug-In . SVG Version: 6.00 Build 0)  -->
<!DOCTYPE svg PUBLIC "-//W3C//DTD SVG 1.1//EN" "http://www.w3.org/Graphics/SVG/1.1/DTD/svg11.dtd">
<svg version="1.1" id="Layer_1" xmlns="http://www.w3.org/2000/svg" xmlns:xlink="http://www.w3.org/1999/xlink" x="0px" y="0px"
	 width="64px" height="52px" viewBox="0 0 64 52" style="enable-background:new 0 0 64 52;" xml:space="preserve">
<g id="Jacket_1_">
	<g>
		<path style="fill:#48A0DC;" d="M18,21.999H3.999C1.79,21.999,0,23.791,0,26l3.999,22c0,2.209,1.791,4,4,4H18
			c2.209,0,3.999-1.791,3.999-4V26C21.999,23.791,20.209,21.999,18,21.999z"/>
	</g>
</g>
<g id="Button_34_">
	<g>
		<circle style="fill:#FFFFFF;" cx="14" cy="46" r="2"/>
	</g>
</g>
<g id="Hand_1_">
	<g>
		<path style="fill-rule:evenodd;clip-rule:evenodd;fill:#CCCCCC;" d="M60,28c2.209,0,4-1.791,4-4c0-2.21-1.791-4-4-4l-17.12,1.557
			c0.632-2.128,1.12-4.686,1.12-7.556C44,5.75,41.563,0,38,0s-4,4.001-4,4.001S34,9.188,34,12s-2.153,8.526-4,9.999
			C27.954,23.632,21.999,24,21.999,24v22C23.563,50.063,30,50,30,50h4l20,2c2.209,0,4-1.791,4-4c0-2.21-1.791-4.001-4-4.001h3.999
			c2.21,0,4.001-1.79,4.001-3.999c0-2.21-1.791-4.001-4.001-4.001H60c2.209,0,4-1.79,4-3.999C64,29.79,62.209,28,60,28z"/>
	</g>
</g>
<g>
</g>
<g>
</g>
<g>
</g>
<g>
</g>
<g>
</g>
<g>
</g>
<g>
</g>
<g>
</g>
<g>
</g>
<g>
</g>
<g>
</g>
<g>
</g>
<g>
</g>
<g>
</g>
<g>
</g>
</svg>
