<?xml version="1.0" encoding="iso-8859-1"?>
<!-- Generator: Adobe Illustrator 16.0.0, SVG Export Plug-In . SVG Version: 6.00 Build 0)  -->
<!DOCTYPE svg PUBLIC "-//W3C//DTD SVG 1.1//EN" "http://www.w3.org/Graphics/SVG/1.1/DTD/svg11.dtd">
<svg version="1.1" id="Layer_1" xmlns="http://www.w3.org/2000/svg" xmlns:xlink="http://www.w3.org/1999/xlink" x="0px" y="0px"
	 width="63.999px" height="52px" viewBox="0 0 63.999 52" style="enable-background:new 0 0 63.999 52;" xml:space="preserve">
<g id="Jacket">
	<g>
		<path style="fill:#ED7161;" d="M18,0H8C5.79,0,4,1.791,4,4L0,26c0,2.209,1.79,4,4,4h14c2.209,0,4-1.791,4-4V4
			C22,1.791,20.209,0,18,0z"/>
	</g>
</g>
<g id="Button_33_">
	<g>
		<circle style="fill:#FFFFFF;" cx="14" cy="6" r="2"/>
	</g>
</g>
<g id="Hand">
	<g>
		<path style="fill-rule:evenodd;clip-rule:evenodd;fill:#CCCCCC;" d="M60,24c2.209,0,3.999-1.791,3.999-4s-1.79-4-3.999-4h-2.001
			C60.209,16,62,14.209,62,12s-1.791-4-4.001-4H54c2.209,0,4-1.791,4-4s-1.791-4-4-4L34,1.999c-0.002,0-0.003,0-0.005,0L30,2
			c0,0-6.438-0.063-8,4v22c0,0,5.954,0.368,8,2c1.847,1.473,4,7.188,4,10s0,7.999,0,7.999S34.438,52,38,52s6-5.751,6-14.001
			c0-2.87-0.488-5.428-1.12-7.556L60,32c2.209,0,3.999-1.791,3.999-4S62.209,24,60,24z"/>
	</g>
</g>
<g>
</g>
<g>
</g>
<g>
</g>
<g>
</g>
<g>
</g>
<g>
</g>
<g>
</g>
<g>
</g>
<g>
</g>
<g>
</g>
<g>
</g>
<g>
</g>
<g>
</g>
<g>
</g>
<g>
</g>
</svg>
