<?xml version="1.0" encoding="iso-8859-1"?>
<!-- Generator: Adobe Illustrator 16.0.0, SVG Export Plug-In . SVG Version: 6.00 Build 0)  -->
<!DOCTYPE svg PUBLIC "-//W3C//DTD SVG 1.1//EN" "http://www.w3.org/Graphics/SVG/1.1/DTD/svg11.dtd">
<svg version="1.1" id="Layer_1" xmlns="http://www.w3.org/2000/svg" xmlns:xlink="http://www.w3.org/1999/xlink" x="0px" y="0px"
	 width="48px" height="64.001px" viewBox="0 0 48 64.001" style="enable-background:new 0 0 48 64.001;" xml:space="preserve">
<g id="Voice">
	<g>
		<path style="fill-rule:evenodd;clip-rule:evenodd;fill:#9B7CAB;" d="M44,24.001c-2.209,0-4,1.791-4,4C40,36.838,32.836,44,24,44
			c-8.837,0-16-7.162-16-15.999c0-2.209-1.791-4-4-4s-4,1.791-4,4c0,11.89,8.65,21.756,20,23.662v4.338
			c-2.208,0-3.999,1.79-3.999,3.999s1.791,4.001,3.999,4.001h8.002c2.208,0,3.999-1.792,3.999-4.001s-1.791-3.999-3.999-3.999H28
			v-4.338C39.344,49.758,47.989,39.9,47.998,28.019c0-0.006,0.002-0.012,0.002-0.018C48,25.792,46.209,24.001,44,24.001z M24,40.001
			c6.627,0,12-5.373,12-12V11.998C36,5.371,30.627,0,24,0c-6.628,0-12.001,5.371-12.001,11.998v16.003
			C11.999,34.628,17.372,40.001,24,40.001z M20,11.998c0-2.208,1.79-3.999,4-3.999c2.209,0,4,1.791,4,3.999v16.003
			c0,2.207-1.791,3.998-4,3.998c-2.21,0-4-1.791-4-3.998V11.998z"/>
	</g>
</g>
<g>
</g>
<g>
</g>
<g>
</g>
<g>
</g>
<g>
</g>
<g>
</g>
<g>
</g>
<g>
</g>
<g>
</g>
<g>
</g>
<g>
</g>
<g>
</g>
<g>
</g>
<g>
</g>
<g>
</g>
</svg>
