<?xml version="1.0" encoding="iso-8859-1"?>
<!-- Generator: Adobe Illustrator 16.0.0, SVG Export Plug-In . SVG Version: 6.00 Build 0)  -->
<!DOCTYPE svg PUBLIC "-//W3C//DTD SVG 1.1//EN" "http://www.w3.org/Graphics/SVG/1.1/DTD/svg11.dtd">
<svg version="1.1" id="Layer_1" xmlns="http://www.w3.org/2000/svg" xmlns:xlink="http://www.w3.org/1999/xlink" x="0px" y="0px"
	 width="56px" height="47.997px" viewBox="0 0 56 47.997" style="enable-background:new 0 0 56 47.997;" xml:space="preserve">
<g id="Speaker">
	<g>
		<path style="fill-rule:evenodd;clip-rule:evenodd;fill:#48A0DC;" d="M23.999,0C21.79,0,8,11.997,8,11.997v0.005H4
			c-2.209,0-4,1.791-4,3.999v16c0,2.209,1.791,4,4,4h4.002c0.049,0.042,13.792,11.996,15.997,11.996c2.21,0,4.001-1.789,4.001-3.999
			V3.999C28,1.788,26.209,0,23.999,0z"/>
	</g>
</g>
<g id="Minus_3_">
	<g>
		<path style="fill:#ED7161;" d="M54,22.002H34c-1.104,0-2,0.895-2,1.999s0.896,2,2,2h20c1.104,0,2-0.896,2-2
			S55.104,22.002,54,22.002z"/>
	</g>
</g>
<g>
</g>
<g>
</g>
<g>
</g>
<g>
</g>
<g>
</g>
<g>
</g>
<g>
</g>
<g>
</g>
<g>
</g>
<g>
</g>
<g>
</g>
<g>
</g>
<g>
</g>
<g>
</g>
<g>
</g>
</svg>
