<?xml version="1.0" encoding="iso-8859-1"?>
<!-- Generator: Adobe Illustrator 16.0.0, SVG Export Plug-In . SVG Version: 6.00 Build 0)  -->
<!DOCTYPE svg PUBLIC "-//W3C//DTD SVG 1.1//EN" "http://www.w3.org/Graphics/SVG/1.1/DTD/svg11.dtd">
<svg version="1.1" id="Layer_1" xmlns="http://www.w3.org/2000/svg" xmlns:xlink="http://www.w3.org/1999/xlink" x="0px" y="0px"
	 width="54.008px" height="47.997px" viewBox="0 0 54.008 47.997" style="enable-background:new 0 0 54.008 47.997;"
	 xml:space="preserve">
<g id="Speaker_2_">
	<g>
		<path style="fill-rule:evenodd;clip-rule:evenodd;fill:#48A0DC;" d="M24,0C21.791,0,8,11.997,8,11.997v0.005H4
			c-2.209,0-4,1.791-4,3.999v16c0,2.209,1.791,4,4,4h4.002C8.051,36.043,21.795,47.997,24,47.997c2.209,0,4-1.789,4-3.999V3.999
			C28,1.788,26.209,0,24,0z"/>
	</g>
</g>
<g id="Mute">
	<g>
		<path style="fill-rule:evenodd;clip-rule:evenodd;fill:#ED7161;" d="M46.809,24.001l6.618-6.617c0.775-0.776,0.775-2.033,0-2.81
			c-0.776-0.775-2.033-0.775-2.81,0L44,21.192l-6.618-6.618c-0.775-0.775-2.033-0.775-2.809,0c-0.776,0.776-0.776,2.033,0,2.81
			l6.617,6.617l-6.617,6.618c-0.776,0.775-0.776,2.033,0,2.809c0.775,0.775,2.033,0.775,2.809,0L44,26.811l6.617,6.617
			c0.776,0.775,2.033,0.775,2.81,0c0.775-0.775,0.775-2.033,0-2.809L46.809,24.001z"/>
	</g>
</g>
<g>
</g>
<g>
</g>
<g>
</g>
<g>
</g>
<g>
</g>
<g>
</g>
<g>
</g>
<g>
</g>
<g>
</g>
<g>
</g>
<g>
</g>
<g>
</g>
<g>
</g>
<g>
</g>
<g>
</g>
</svg>
