<?xml version="1.0" encoding="iso-8859-1"?>
<!-- Generator: Adobe Illustrator 16.0.0, SVG Export Plug-In . SVG Version: 6.00 Build 0)  -->
<!DOCTYPE svg PUBLIC "-//W3C//DTD SVG 1.1//EN" "http://www.w3.org/Graphics/SVG/1.1/DTD/svg11.dtd">
<svg version="1.1" id="Layer_1" xmlns="http://www.w3.org/2000/svg" xmlns:xlink="http://www.w3.org/1999/xlink" x="0px" y="0px"
	 width="63.99px" height="63.991px" viewBox="0 0 63.99 63.991" style="enable-background:new 0 0 63.99 63.991;"
	 xml:space="preserve">
<g id="Handle_1_">
	<g>
		<path style="fill:#9B7CAB;" d="M62.476,55.162L49.656,42.344l-7.313,7.313l12.819,12.818c2.02,2.021,5.294,2.021,7.313,0
			C64.495,60.456,64.495,57.183,62.476,55.162z"/>
	</g>
</g>
<g id="Frame_1_">
	<g>
		<circle style="fill:#CCCCCC;" cx="27.99" cy="27.99" r="27.99"/>
	</g>
</g>
<g id="Container_69_">
	<g>
		<circle style="fill:#FFFFFF;" cx="27.986" cy="27.986" r="24.013"/>
	</g>
</g>
<g id="Equal">
	<g>
		<path style="fill-rule:evenodd;clip-rule:evenodd;fill:#9B7CAB;" d="M20,26.002h16c1.105,0,2.001-0.896,2.001-2s-0.896-2-2.001-2
			H20c-1.104,0-2,0.896-2,2S18.896,26.002,20,26.002z M36,30.002H20c-1.104,0-2,0.896-2,1.999c0,1.104,0.896,2.001,2,2.001h16
			c1.105,0,2.001-0.896,2.001-2.001C38.001,30.897,37.105,30.002,36,30.002z"/>
	</g>
</g>
<g>
</g>
<g>
</g>
<g>
</g>
<g>
</g>
<g>
</g>
<g>
</g>
<g>
</g>
<g>
</g>
<g>
</g>
<g>
</g>
<g>
</g>
<g>
</g>
<g>
</g>
<g>
</g>
<g>
</g>
</svg>
