<?xml version="1.0" encoding="iso-8859-1"?>
<!-- Generator: Adobe Illustrator 16.0.0, SVG Export Plug-In . SVG Version: 6.00 Build 0)  -->
<!DOCTYPE svg PUBLIC "-//W3C//DTD SVG 1.1//EN" "http://www.w3.org/Graphics/SVG/1.1/DTD/svg11.dtd">
<svg version="1.1" id="Layer_1" xmlns="http://www.w3.org/2000/svg" xmlns:xlink="http://www.w3.org/1999/xlink" x="0px" y="0px"
	 width="63.99px" height="63.991px" viewBox="0 0 63.99 63.991" style="enable-background:new 0 0 63.99 63.991;"
	 xml:space="preserve">
<g id="Handle_2_">
	<g>
		<path style="fill:#48A0DC;" d="M62.476,55.162L49.656,42.344l-7.313,7.313l12.819,12.818c2.02,2.021,5.294,2.021,7.313,0
			C64.495,60.456,64.495,57.183,62.476,55.162z"/>
	</g>
</g>
<g id="Frame_2_">
	<g>
		<circle style="fill:#CCCCCC;" cx="27.99" cy="27.99" r="27.99"/>
	</g>
</g>
<g id="Container_70_">
	<g>
		<circle style="fill:#FFFFFF;" cx="27.986" cy="27.986" r="24.013"/>
	</g>
</g>
<g id="_x31_:1">
	<g>
		<path style="fill-rule:evenodd;clip-rule:evenodd;fill:#48A0DC;" d="M20,32.002V20.001c0-0.138-0.014-0.272-0.041-0.403
			c-0.187-0.911-0.993-1.596-1.959-1.596h-2c-1.105,0-2,0.896-2,1.999c0,1.105,0.895,2.001,2,2.001v10c-1.105,0-2,0.896-2,2
			s0.895,2,2,2h4c1.104,0,2-0.896,2-2S21.104,32.002,20,32.002z M40,32.002V20.001c0-1.104-0.896-1.999-2-1.999h-2
			c-1.104,0-2,0.896-2,1.999c0,1.105,0.896,2.001,2,2.001v10c-1.104,0-2,0.896-2,2s0.896,2,2,2h4c1.104,0,2-0.896,2-2
			S41.104,32.002,40,32.002z M28,20.002c-1.104,0-2,0.896-2,2s0.896,2.001,2,2.001s2-0.896,2-2.001S29.104,20.002,28,20.002z
			 M28,28.002c-1.104,0-2,0.896-2,2s0.896,2,2,2s2-0.896,2-2S29.104,28.002,28,28.002z"/>
	</g>
</g>
<g>
</g>
<g>
</g>
<g>
</g>
<g>
</g>
<g>
</g>
<g>
</g>
<g>
</g>
<g>
</g>
<g>
</g>
<g>
</g>
<g>
</g>
<g>
</g>
<g>
</g>
<g>
</g>
<g>
</g>
</svg>
