<?xml version="1.0" encoding="iso-8859-1"?>
<!-- Generator: Adobe Illustrator 16.0.0, SVG Export Plug-In . SVG Version: 6.00 Build 0)  -->
<!DOCTYPE svg PUBLIC "-//W3C//DTD SVG 1.1//EN" "http://www.w3.org/Graphics/SVG/1.1/DTD/svg11.dtd">
<svg version="1.1" id="Layer_1" xmlns="http://www.w3.org/2000/svg" xmlns:xlink="http://www.w3.org/1999/xlink" x="0px" y="0px"
	 width="63.99px" height="63.991px" viewBox="0 0 63.99 63.991" style="enable-background:new 0 0 63.99 63.991;"
	 xml:space="preserve">
<g id="Handle">
	<g>
		<path style="fill:#48A0DC;" d="M62.476,55.162L49.657,42.344l-7.314,7.313l12.819,12.818c2.02,2.021,5.294,2.021,7.313,0
			C64.495,60.456,64.495,57.183,62.476,55.162z"/>
	</g>
</g>
<g id="Frame">
	<g>
		<circle style="fill:#CCCCCC;" cx="27.99" cy="27.99" r="27.99"/>
	</g>
</g>
<g id="Container_68_">
	<g>
		<circle style="fill:#FFFFFF;" cx="27.986" cy="27.986" r="24.013"/>
	</g>
</g>
<g id="Fit">
	<g>
		<path style="fill-rule:evenodd;clip-rule:evenodd;fill:#48A0DC;" d="M22,14.002h-6c-0.69,0-1.299,0.35-1.658,0.883
			c-0.006,0.008-0.01,0.018-0.015,0.026c-0.065,0.099-0.123,0.203-0.17,0.313c-0.001,0-0.001,0.001-0.001,0.002
			C14.056,15.465,14,15.727,14,16.002v0v0v5.999c0,1.105,0.895,2.001,2,2.001c1.104,0,2-0.896,2-2.001v-4h4
			c1.105,0,2.001-0.895,2.001-2C24.001,14.897,23.105,14.002,22,14.002z M41.414,14.588c-0.362-0.362-0.862-0.586-1.414-0.586h-6
			c-1.105,0-2.001,0.896-2.001,2.001c0,1.104,0.896,1.999,2.001,1.999h4v4c0,1.105,0.895,2.001,2,2.001c1.104,0,2-0.896,2-2.001
			v-5.999C42,15.45,41.775,14.95,41.414,14.588z M40,32.001c-1.104,0-2,0.896-2,2.001v4.001h-4c-1.105,0-2.001,0.895-2.001,1.999
			s0.896,2,2.001,2h6c0.552,0,1.052-0.224,1.414-0.586c0.03-0.031,0.054-0.067,0.082-0.1c0.056-0.063,0.114-0.125,0.161-0.196
			c0.216-0.319,0.342-0.704,0.342-1.118v-6C41.999,32.896,41.105,32.001,40,32.001z M22,38.002h-4.001v-4
			c0-1.105-0.895-2.001-1.999-2.001s-2,0.896-2,2.001v6c0,0.263,0.054,0.512,0.146,0.741c0.005,0.012,0.007,0.025,0.012,0.037
			c0.304,0.718,1.015,1.222,1.843,1.222h6c1.105,0,2.001-0.896,2.001-2S23.105,38.002,22,38.002z"/>
	</g>
</g>
<g>
</g>
<g>
</g>
<g>
</g>
<g>
</g>
<g>
</g>
<g>
</g>
<g>
</g>
<g>
</g>
<g>
</g>
<g>
</g>
<g>
</g>
<g>
</g>
<g>
</g>
<g>
</g>
<g>
</g>
</svg>
