<?xml version="1.0" encoding="utf-8"?>
<!-- Generator: Adobe Illustrator 18.0.0, SVG Export Plug-In . SVG Version: 6.00 Build 0)  -->
<!DOCTYPE svg PUBLIC "-//W3C//DTD SVG 1.1//EN" "http://www.w3.org/Graphics/SVG/1.1/DTD/svg11.dtd">
<svg version="1.1" xmlns="http://www.w3.org/2000/svg" xmlns:xlink="http://www.w3.org/1999/xlink" x="0px" y="0px"
	 viewBox="0 0 40 40" enable-background="new 0 0 40 40" xml:space="preserve">
<g id="Social">
	<g id="GitHub">
	</g>
	<g id="Soundcloud_3_">
	</g>
	<g id="Dropbox_2_">
	</g>
	<g id="Instagram_7_">
	</g>
	<g id="WordPress_3_">
	</g>
	<g id="PlayStation">
	</g>
	<g id="XBox_2_">
	</g>
	<g id="Windows_2_">
	</g>
	<g id="iOS_1_">
	</g>
	<g id="Apple_2_">
	</g>
	<g id="Android_2_">
		<path fill="#2ECC71" d="M14,16h12v10.2c0,0.5-0.4,0.9-0.8,0.9h-0.7L24,27v4.5c0,0.8-0.7,1.5-1.5,1.5c-0.8,0-1.5-0.6-1.5-1.5V27h-2
			v4.5c0,0.8-0.7,1.5-1.5,1.5S16,32.4,16,31.5V27l-0.5,0h-0.7c-0.5,0-0.8-0.4-0.8-0.9V16z M26,15H14c0,0,0.1-3.3,2.5-5l-1.3-1.7
			c-0.3-0.4-0.2-0.9,0.2-1.2C15.6,7,15.7,7,15.9,7c0.3,0,0.5,0.1,0.7,0.4L18,9.3C18.6,9.1,19.3,9,20,9c0.7,0,1.4,0.1,1.9,0.3
			l1.5-1.9C23.6,7.1,23.8,7,24.1,7c0.2,0,0.3,0,0.4,0.1c0.4,0.2,0.5,0.8,0.3,1.1L23.5,10C25.9,11.6,26,15,26,15z M17.1,12.7
			c0-0.5-0.4-0.8-0.8-0.8c-0.5,0-0.8,0.4-0.8,0.8c0,0.5,0.4,0.8,0.8,0.8C16.8,13.5,17.1,13.1,17.1,12.7z M24.5,12.7
			c0-0.5-0.4-0.8-0.8-0.8c-0.5,0-0.8,0.4-0.8,0.8c0,0.5,0.4,0.8,0.8,0.8C24.1,13.5,24.5,13.1,24.5,12.7z M28.5,16
			c-0.8,0-1.5,0.7-1.5,1.5v6.9c0,0.9,0.7,1.6,1.5,1.6c0.8,0,1.5-0.7,1.5-1.6v-6.9C30,16.6,29.3,16,28.5,16z M11.5,16
			c-0.8,0-1.5,0.7-1.5,1.5v6.9c0,0.9,0.7,1.6,1.5,1.6c0.8,0,1.5-0.7,1.5-1.6v-6.9C13,16.6,12.3,16,11.5,16z"/>
	</g>
	<g id="Deviantart_2_">
	</g>
	<g id="Yelp_2_">
	</g>
	<g id="Picassa_6_">
	</g>
	<g id="LastFM_2_">
	</g>
	<g id="Amazon_3_">
	</g>
	<g id="AIM_2_">
	</g>
	<g id="fffound_1_">
	</g>
	<g id="Forrst_3_">
	</g>
	<g id="Yahoo_3_">
	</g>
	<g id="YouTube_3_">
	</g>
	<g id="Behance_2_">
	</g>
	<g id="Tumblr_2_">
	</g>
	<g id="Vimeo_2_">
	</g>
	<g id="Skype_3_">
	</g>
	<g id="Pinterest_2_">
	</g>
	<g id="LinkedIn_1_">
	</g>
	<g id="Dribbble_3_">
	</g>
	<g id="Flickr_3_">
	</g>
	<g id="Google_Plus_2_">
	</g>
	<g id="RSS_2_">
	</g>
	<g id="Twitter_2_">
	</g>
	<g id="Facebook_2_">
	</g>
</g>
<g id="Lockup">
</g>
</svg>
