<?xml version="1.0" encoding="utf-8"?>
<!-- Generator: Adobe Illustrator 18.0.0, SVG Export Plug-In . SVG Version: 6.00 Build 0)  -->
<!DOCTYPE svg PUBLIC "-//W3C//DTD SVG 1.1//EN" "http://www.w3.org/Graphics/SVG/1.1/DTD/svg11.dtd">
<svg version="1.1" xmlns="http://www.w3.org/2000/svg" xmlns:xlink="http://www.w3.org/1999/xlink" x="0px" y="0px"
	 viewBox="0 0 40 40" enable-background="new 0 0 40 40" xml:space="preserve">
<g id="Social">
	<g id="GitHub">
	</g>
	<g id="Soundcloud_3_">
	</g>
	<g id="Dropbox_2_">
	</g>
	<g id="Instagram_7_">
	</g>
	<g id="WordPress_3_">
	</g>
	<g id="PlayStation">
	</g>
	<g id="XBox_2_">
	</g>
	<g id="Windows_2_">
	</g>
	<g id="iOS_1_">
	</g>
	<g id="Apple_2_">
	</g>
	<g id="Android_2_">
	</g>
	<g id="Deviantart_2_">
	</g>
	<g id="Yelp_2_">
	</g>
	<g id="Picassa_6_">
	</g>
	<g id="LastFM_2_">
	</g>
	<g id="Amazon_3_">
	</g>
	<g id="AIM_2_">
	</g>
	<g id="fffound_1_">
	</g>
	<g id="Forrst_3_">
	</g>
	<g id="Yahoo_3_">
	</g>
	<g id="YouTube_3_">
	</g>
	<g id="Behance_2_">
		<rect x="24.5" y="12.5" fill="#2980B9" width="7" height="2"/>
		<path fill="#3498D8" d="M17.4,19.3c1.5-0.7,2.3-1.9,2.3-3.5c0-3.1-2.2-4.3-5.3-4.3H6.5v17h8.1c3,0,5.9-1.5,5.9-4.9
			C20.5,21.5,19.5,19.9,17.4,19.3z M9.9,14.3h3.8c1.3,0,2.5,0.3,2.5,1.9c0,1.4-1,2-2.2,2h-4V14.3z M14.1,25.8H9.9v-4.6h4.3
			c1.6,0,2.5,0.7,2.5,2.4C16.7,25.3,15.6,25.8,14.1,25.8z"/>
		<path fill="#3498D8" d="M27.6,15.8c-3.7,0-6.2,2.7-6.2,6.3c0,3.7,2.4,6.3,6.2,6.3c2.7,0,4.9-1.5,5.8-4.3h-2.9
			c-0.2,0.7-1.4,1.8-2.8,1.8c-1.9,0-2.9-1.3-3-3.4h8.8C33.7,18.9,31.7,15.8,27.6,15.8z M24.7,20.4c0-0.9,0.7-2.1,2.8-2.1
			c1.6,0,2.3,0.4,2.7,2.1H24.7z"/>
	</g>
	<g id="Tumblr_2_">
	</g>
	<g id="Vimeo_2_">
	</g>
	<g id="Skype_3_">
	</g>
	<g id="Pinterest_2_">
	</g>
	<g id="LinkedIn_1_">
	</g>
	<g id="Dribbble_3_">
	</g>
	<g id="Flickr_3_">
	</g>
	<g id="Google_Plus_2_">
	</g>
	<g id="RSS_2_">
	</g>
	<g id="Twitter_2_">
	</g>
	<g id="Facebook_2_">
	</g>
</g>
<g id="Lockup">
</g>
</svg>
