<?xml version="1.0" encoding="utf-8"?>
<!-- Generator: Adobe Illustrator 18.0.0, SVG Export Plug-In . SVG Version: 6.00 Build 0)  -->
<!DOCTYPE svg PUBLIC "-//W3C//DTD SVG 1.1//EN" "http://www.w3.org/Graphics/SVG/1.1/DTD/svg11.dtd">
<svg version="1.1" xmlns="http://www.w3.org/2000/svg" xmlns:xlink="http://www.w3.org/1999/xlink" x="0px" y="0px"
	 viewBox="0 0 40 40" enable-background="new 0 0 40 40" xml:space="preserve">
<g id="Social">
	<g id="GitHub">
	</g>
	<g id="Soundcloud_3_">
	</g>
	<g id="Dropbox_2_">
	</g>
	<g id="Instagram_7_">
	</g>
	<g id="WordPress_3_">
	</g>
	<g id="PlayStation">
	</g>
	<g id="XBox_2_">
	</g>
	<g id="Windows_2_">
	</g>
	<g id="iOS_1_">
	</g>
	<g id="Apple_2_">
	</g>
	<g id="Android_2_">
	</g>
	<g id="Deviantart_2_">
		<path fill="#16A085" d="M21.5,17.2h-4l3.7,6.5c6.3-1.8,12.6-3.5,14.3-4c-3.5-4.8-11.4-6.5-20.4-4.9L13.7,12l-3.5,0.8l1.4,2.8
			C5.1,18,3,23.1,5.5,28c0,0,7.1-2,14.4-4l-4-7.7c4-0.6,9.9-0.5,12.8,2.7c-0.9,0.2-2.8,0.7-5.2,1.3L21.5,17.2z M9.5,23.8
			c-0.3-2.9,0.8-5.1,2.9-6.4l2.4,5C11.8,23.2,9.5,23.8,9.5,23.8z"/>
	</g>
	<g id="Yelp_2_">
	</g>
	<g id="Picassa_6_">
	</g>
	<g id="LastFM_2_">
	</g>
	<g id="Amazon_3_">
	</g>
	<g id="AIM_2_">
	</g>
	<g id="fffound_1_">
	</g>
	<g id="Forrst_3_">
	</g>
	<g id="Yahoo_3_">
	</g>
	<g id="YouTube_3_">
	</g>
	<g id="Behance_2_">
	</g>
	<g id="Tumblr_2_">
	</g>
	<g id="Vimeo_2_">
	</g>
	<g id="Skype_3_">
	</g>
	<g id="Pinterest_2_">
	</g>
	<g id="LinkedIn_1_">
	</g>
	<g id="Dribbble_3_">
	</g>
	<g id="Flickr_3_">
	</g>
	<g id="Google_Plus_2_">
	</g>
	<g id="RSS_2_">
	</g>
	<g id="Twitter_2_">
	</g>
	<g id="Facebook_2_">
	</g>
</g>
<g id="Lockup">
</g>
</svg>
