<?xml version="1.0" encoding="utf-8"?>
<!-- Generator: Adobe Illustrator 18.0.0, SVG Export Plug-In . SVG Version: 6.00 Build 0)  -->
<!DOCTYPE svg PUBLIC "-//W3C//DTD SVG 1.1//EN" "http://www.w3.org/Graphics/SVG/1.1/DTD/svg11.dtd">
<svg version="1.1" xmlns="http://www.w3.org/2000/svg" xmlns:xlink="http://www.w3.org/1999/xlink" x="0px" y="0px"
	 viewBox="0 0 40 40" enable-background="new 0 0 40 40" xml:space="preserve">
<g id="Social">
	<g id="GitHub">
	</g>
	<g id="Soundcloud_3_">
	</g>
	<g id="Dropbox_2_">
	</g>
	<g id="Instagram_7_">
	</g>
	<g id="WordPress_3_">
	</g>
	<g id="PlayStation">
	</g>
	<g id="XBox_2_">
	</g>
	<g id="Windows_2_">
	</g>
	<g id="iOS_1_">
	</g>
	<g id="Apple_2_">
	</g>
	<g id="Android_2_">
	</g>
	<g id="Deviantart_2_">
	</g>
	<g id="Yelp_2_">
	</g>
	<g id="Picassa_6_">
	</g>
	<g id="LastFM_2_">
	</g>
	<g id="Amazon_3_">
	</g>
	<g id="AIM_2_">
	</g>
	<g id="fffound_1_">
	</g>
	<g id="Forrst_3_">
	</g>
	<g id="Yahoo_3_">
	</g>
	<g id="YouTube_3_">
	</g>
	<g id="Behance_2_">
	</g>
	<g id="Tumblr_2_">
	</g>
	<g id="Vimeo_2_">
	</g>
	<g id="Skype_3_">
	</g>
	<g id="Pinterest_2_">
	</g>
	<g id="LinkedIn_1_">
	</g>
	<g id="Dribbble_3_">
		<circle fill="#B84187" cx="20" cy="20" r="11.5"/>
		<path fill="#E651A8" d="M27.5,14.1c1.2,1.6,2,3.5,2.1,5.7c-2.6-0.5-4.8-0.5-6.7-0.2c-0.2-0.6-0.5-1.1-0.8-1.6
			C24.2,17.1,26,15.9,27.5,14.1z M26.2,12.7c-1.4,1.6-3.1,2.8-5,3.5c-1.2-2.3-2.5-4.2-3.5-5.6c0.7-0.2,1.5-0.3,2.3-0.3
			C22.4,10.4,24.5,11.3,26.2,12.7z M15.9,11.3c1,1.3,2.3,3.2,3.6,5.5c-2.7,0.7-5.7,0.9-8.8,0.9C11.3,14.9,13.3,12.6,15.9,11.3z
			 M10.4,20c0-0.1,0-0.2,0-0.3c0,0,0,0,0.1,0c3.4,0,6.8-0.2,9.9-1.1c0.2,0.5,0.5,0.9,0.7,1.4c-4,1.2-6.5,3.8-8.2,6.3
			C11.3,24.6,10.4,22.4,10.4,20z M14.2,27.6c1.6-2.4,3.9-4.9,7.6-5.9c0.9,2.2,1.6,4.6,1.9,7.1c-1.1,0.5-2.4,0.7-3.7,0.7
			C17.8,29.6,15.8,28.9,14.2,27.6z M25.4,27.9c-0.4-2.3-1-4.5-1.8-6.5c1.7-0.2,3.6-0.2,5.9,0.2C29,24.2,27.5,26.5,25.4,27.9z"/>
	</g>
	<g id="Flickr_3_">
	</g>
	<g id="Google_Plus_2_">
	</g>
	<g id="RSS_2_">
	</g>
	<g id="Twitter_2_">
	</g>
	<g id="Facebook_2_">
	</g>
</g>
<g id="Lockup">
</g>
</svg>
