<?xml version="1.0" encoding="utf-8"?>
<!-- Generator: Adobe Illustrator 18.0.0, SVG Export Plug-In . SVG Version: 6.00 Build 0)  -->
<!DOCTYPE svg PUBLIC "-//W3C//DTD SVG 1.1//EN" "http://www.w3.org/Graphics/SVG/1.1/DTD/svg11.dtd">
<svg version="1.1" xmlns="http://www.w3.org/2000/svg" xmlns:xlink="http://www.w3.org/1999/xlink" x="0px" y="0px"
	 viewBox="0 0 40 40" enable-background="new 0 0 40 40" xml:space="preserve">
<g id="Social">
	<g id="GitHub">
	</g>
	<g id="Soundcloud_3_">
	</g>
	<g id="Dropbox_2_">
	</g>
	<g id="Instagram_7_">
	</g>
	<g id="WordPress_3_">
	</g>
	<g id="PlayStation">
	</g>
	<g id="XBox_2_">
	</g>
	<g id="Windows_2_">
	</g>
	<g id="iOS_1_">
	</g>
	<g id="Apple_2_">
	</g>
	<g id="Android_2_">
	</g>
	<g id="Deviantart_2_">
	</g>
	<g id="Yelp_2_">
	</g>
	<g id="Picassa_6_">
	</g>
	<g id="LastFM_2_">
	</g>
	<g id="Amazon_3_">
	</g>
	<g id="AIM_2_">
	</g>
	<g id="fffound_1_">
	</g>
	<g id="Forrst_3_">
	</g>
	<g id="Yahoo_3_">
	</g>
	<g id="YouTube_3_">
	</g>
	<g id="Behance_2_">
	</g>
	<g id="Tumblr_2_">
	</g>
	<g id="Vimeo_2_">
	</g>
	<g id="Skype_3_">
	</g>
	<g id="Pinterest_2_">
	</g>
	<g id="LinkedIn_1_">
	</g>
	<g id="Dribbble_3_">
	</g>
	<g id="Flickr_3_">
	</g>
	<g id="Google_Plus_2_">
		<path fill="#BDC3C7" d="M19.7,21.6c-0.6-0.4-1.7-1.3-1.7-1.9c0-0.7,0.2-1,1.2-1.8c1.1-0.8,1.7-1.8,1.7-3.1c0-1.5-0.6-3.4-2-3.4h2
			l1.4-0.9c0,0-4.8,0-6.5,0c-2.9,0-5.6,1.9-5.6,4.3c0,2.5,2,4.4,4.9,4.4c0.2,0,0.4,0,0.6-0.1c-0.2,0.3-0.3,0.7-0.3,1.1
			c0,0.7,0.4,1.2,0.9,1.7c-0.4,0-0.7,0-1.1,0c-3.6,0-6.9,1.8-6.9,4.1c0,2.2,3.5,3.5,7.1,3.5c4.1,0,6.2-1.7,6.2-3.9
			C21.8,23.8,21.4,22.7,19.7,21.6z M16.3,18.5c-1.7,0-3.2-1.8-3.5-3.9c-0.3-2.1,0.8-3.7,2.5-3.6c1.7,0,3.2,1.7,3.5,3.8
			C19,16.9,17.9,18.5,16.3,18.5z M15.6,28.5c-2.5,0-4.3-1-4.3-2.8c0-1.8,2.2-3.2,4.7-3.2c0.6,0,1.1,0.1,1.6,0.2
			c1.3,0.9,2.1,1.4,2.3,2.4c0.1,0.2,0.1,0.4,0.1,0.6C20.1,27.6,19.1,28.5,15.6,28.5z"/>
		<polygon fill="#E74C3C" points="28.5,11.5 28.5,14.5 31.5,14.5 31.5,16.5 28.5,16.5 28.5,19.5 26.5,19.5 26.5,16.5 23.5,16.5 
			23.5,14.5 26.5,14.5 26.5,11.5 		"/>
	</g>
	<g id="RSS_2_">
	</g>
	<g id="Twitter_2_">
	</g>
	<g id="Facebook_2_">
	</g>
</g>
<g id="Lockup">
</g>
</svg>
