<?xml version="1.0" encoding="utf-8"?>
<!-- Generator: Adobe Illustrator 18.0.0, SVG Export Plug-In . SVG Version: 6.00 Build 0)  -->
<!DOCTYPE svg PUBLIC "-//W3C//DTD SVG 1.1//EN" "http://www.w3.org/Graphics/SVG/1.1/DTD/svg11.dtd">
<svg version="1.1" xmlns="http://www.w3.org/2000/svg" xmlns:xlink="http://www.w3.org/1999/xlink" x="0px" y="0px"
	 viewBox="0 0 40 40" enable-background="new 0 0 40 40" xml:space="preserve">
<g id="Social">
	<g id="GitHub">
	</g>
	<g id="Soundcloud_3_">
	</g>
	<g id="Dropbox_2_">
	</g>
	<g id="Instagram_7_">
		<path fill-rule="evenodd" clip-rule="evenodd" fill="#DFD1C7" d="M8,18l0,11.2c0,1.5,1.2,2.8,2.8,2.8h18.5c1.5,0,2.8-1.2,2.8-2.8
			L32,18H8z"/>
		<path fill-rule="evenodd" clip-rule="evenodd" fill="#A46D4E" d="M8,18l0-7.2C8,9.2,9.2,8,10.8,8h18.5c1.5,0,2.8,1.2,2.8,2.8
			l0,7.2H8z"/>
		<rect x="8" y="16" fill-rule="evenodd" clip-rule="evenodd" fill="#845640" width="24" height="2"/>
		<path fill-rule="evenodd" clip-rule="evenodd" fill="#2C3E50" d="M20,13c-3.9,0-7,3.1-7,7c0,3.9,3.1,7,7,7c3.9,0,7-3.1,7-7
			C27,16.1,23.9,13,20,13"/>
		<path fill-rule="evenodd" clip-rule="evenodd" fill="#34495E" d="M20,15c-2.8,0-5,2.2-5,5c0,2.8,2.2,5,5,5c2.8,0,5-2.2,5-5
			C25,17.2,22.8,15,20,15"/>
		<path fill-rule="evenodd" clip-rule="evenodd" fill="#2C3E50" d="M29,11.6c0-0.3-0.3-0.6-0.6-0.6h-1.8c-0.3,0-0.6,0.3-0.6,0.6v1.8
			c0,0.3,0.3,0.6,0.6,0.6h1.8c0.3,0,0.6-0.3,0.6-0.6V11.6z"/>
		<rect x="11" y="8" fill-rule="evenodd" clip-rule="evenodd" fill="#E74C3C" width="1" height="6"/>
		<rect x="12" y="8" fill-rule="evenodd" clip-rule="evenodd" fill="#F1C40F" width="1" height="6"/>
		<rect x="13" y="8" fill-rule="evenodd" clip-rule="evenodd" fill="#3498D8" width="1" height="6"/>
		<rect x="14" y="8" fill-rule="evenodd" clip-rule="evenodd" fill="#2ECC71" width="1" height="6"/>
		<path fill-rule="evenodd" clip-rule="evenodd" fill="#7F8C8D" d="M20,16.7c-1.8,0-3.3,1.5-3.3,3.3c0,1.8,1.5,3.3,3.3,3.3
			c1.8,0,3.3-1.5,3.3-3.3C23.3,18.1,21.8,16.7,20,16.7"/>
	</g>
	<g id="WordPress_3_">
	</g>
	<g id="PlayStation">
	</g>
	<g id="XBox_2_">
	</g>
	<g id="Windows_2_">
	</g>
	<g id="iOS_1_">
	</g>
	<g id="Apple_2_">
	</g>
	<g id="Android_2_">
	</g>
	<g id="Deviantart_2_">
	</g>
	<g id="Yelp_2_">
	</g>
	<g id="Picassa_6_">
	</g>
	<g id="LastFM_2_">
	</g>
	<g id="Amazon_3_">
	</g>
	<g id="AIM_2_">
	</g>
	<g id="fffound_1_">
	</g>
	<g id="Forrst_3_">
	</g>
	<g id="Yahoo_3_">
	</g>
	<g id="YouTube_3_">
	</g>
	<g id="Behance_2_">
	</g>
	<g id="Tumblr_2_">
	</g>
	<g id="Vimeo_2_">
	</g>
	<g id="Skype_3_">
	</g>
	<g id="Pinterest_2_">
	</g>
	<g id="LinkedIn_1_">
	</g>
	<g id="Dribbble_3_">
	</g>
	<g id="Flickr_3_">
	</g>
	<g id="Google_Plus_2_">
	</g>
	<g id="RSS_2_">
	</g>
	<g id="Twitter_2_">
	</g>
	<g id="Facebook_2_">
	</g>
</g>
<g id="Lockup">
</g>
</svg>
