<?xml version="1.0" encoding="utf-8"?>
<!-- Generator: Adobe Illustrator 18.0.0, SVG Export Plug-In . SVG Version: 6.00 Build 0)  -->
<!DOCTYPE svg PUBLIC "-//W3C//DTD SVG 1.1//EN" "http://www.w3.org/Graphics/SVG/1.1/DTD/svg11.dtd">
<svg version="1.1" xmlns="http://www.w3.org/2000/svg" xmlns:xlink="http://www.w3.org/1999/xlink" x="0px" y="0px"
	 viewBox="0 0 40 40" enable-background="new 0 0 40 40" xml:space="preserve">
<g id="Social">
	<g id="GitHub">
	</g>
	<g id="Soundcloud_3_">
	</g>
	<g id="Dropbox_2_">
	</g>
	<g id="Instagram_7_">
	</g>
	<g id="WordPress_3_">
	</g>
	<g id="PlayStation">
	</g>
	<g id="XBox_2_">
	</g>
	<g id="Windows_2_">
	</g>
	<g id="iOS_1_">
		<path id="_x3C_Path_x3E__3_" fill="#7F8C8D" d="M10.2,26.3H7.1v-8.6h3.1L10.2,26.3z M10.8,14.9c0-1-1-1.9-2.2-1.9
			c-1.2,0-2.2,0.8-2.2,1.9c0,1,1,1.9,2.2,1.9C9.8,16.8,10.8,15.9,10.8,14.9z"/>
		<path fill="#7F8C8D" d="M33.5,23c0.2-2.5-2.3-3.4-3.9-4.2c-1.6-0.8-1.7-1.2-1.6-1.8c0.1-0.6,1-1.1,2-1.1c1.5,0,2.3,0.9,2.3,0.9
			l0.7-2.4c0,0-1.4-1-3.5-1c-2.6,0-4.5,1.4-4.8,3c-0.3,1.7,0.7,3.9,3,4.6c1.7,0.5,2.8,1.2,2.8,1.8c0,0.5-0.1,1.5-2,1.6
			c-1.7,0.1-3.3-1-3.3-1L24.2,26c0,0,2,0.9,4.5,0.9c0.5,0,0.9,0,1.3-0.2C30.9,26.4,33.3,25.7,33.5,23z"/>
		<path id="_x3C_Path_x3E__2_" fill="#7F8C8D" d="M17.8,13.3c-3.8,0-6.4,2.7-6.4,6.8c0,4.1,2.6,6.8,6.4,6.8c3.6,0,6.3-3,6.3-6.8
			C24.1,16.2,21.5,13.3,17.8,13.3z M17.8,24.4c-1.5,0-3.2-1.3-3.2-4.2c0-2.9,1.7-4.2,3.2-4.2c0.6,0,1.1,0.3,1.6,0.7
			c0.9,0.9,1.5,2.4,1.5,3.8C20.9,22.7,19.5,24.4,17.8,24.4z"/>
	</g>
	<g id="Apple_2_">
	</g>
	<g id="Android_2_">
	</g>
	<g id="Deviantart_2_">
	</g>
	<g id="Yelp_2_">
	</g>
	<g id="Picassa_6_">
	</g>
	<g id="LastFM_2_">
	</g>
	<g id="Amazon_3_">
	</g>
	<g id="AIM_2_">
	</g>
	<g id="fffound_1_">
	</g>
	<g id="Forrst_3_">
	</g>
	<g id="Yahoo_3_">
	</g>
	<g id="YouTube_3_">
	</g>
	<g id="Behance_2_">
	</g>
	<g id="Tumblr_2_">
	</g>
	<g id="Vimeo_2_">
	</g>
	<g id="Skype_3_">
	</g>
	<g id="Pinterest_2_">
	</g>
	<g id="LinkedIn_1_">
	</g>
	<g id="Dribbble_3_">
	</g>
	<g id="Flickr_3_">
	</g>
	<g id="Google_Plus_2_">
	</g>
	<g id="RSS_2_">
	</g>
	<g id="Twitter_2_">
	</g>
	<g id="Facebook_2_">
	</g>
</g>
<g id="Lockup">
</g>
</svg>
