<?xml version="1.0" encoding="utf-8"?>
<!-- Generator: Adobe Illustrator 18.0.0, SVG Export Plug-In . SVG Version: 6.00 Build 0)  -->
<!DOCTYPE svg PUBLIC "-//W3C//DTD SVG 1.1//EN" "http://www.w3.org/Graphics/SVG/1.1/DTD/svg11.dtd">
<svg version="1.1" xmlns="http://www.w3.org/2000/svg" xmlns:xlink="http://www.w3.org/1999/xlink" x="0px" y="0px"
	 viewBox="0 0 40 40" enable-background="new 0 0 40 40" xml:space="preserve">
<g id="Social">
	<g id="GitHub">
	</g>
	<g id="Soundcloud_3_">
	</g>
	<g id="Dropbox_2_">
	</g>
	<g id="Instagram_7_">
	</g>
	<g id="WordPress_3_">
	</g>
	<g id="PlayStation">
	</g>
	<g id="XBox_2_">
	</g>
	<g id="Windows_2_">
	</g>
	<g id="iOS_1_">
	</g>
	<g id="Apple_2_">
	</g>
	<g id="Android_2_">
	</g>
	<g id="Deviantart_2_">
	</g>
	<g id="Yelp_2_">
	</g>
	<g id="Picassa_6_">
	</g>
	<g id="LastFM_2_">
		<path fill="#E74C3C" d="M27.8,28c-2.9,0-6-1.1-7.4-3.2c-0.6-1-1.1-2.2-1.6-3.5c-1.5-3.8-2.7-6.2-5.7-6.2c-3.1,0-4.4,1.6-4.4,5.5
			c0,0,0.2,4.4,4.3,4.4c2.5,0,3.8-1.7,3.8-1.7l1.4,2.6c-0.2,0.3-0.9,2.1-5.3,2.1c-5.2,0-7.5-4.3-7.5-7.4c0-7.4,4.8-8.5,7.6-8.5
			c5.4,0,7.3,4.7,8.7,8.2c0.5,1.2,0.9,2.3,1.4,3.1c0.8,1.4,3.9,2.1,6.3,1.5c1.2-0.3,1.8-0.8,1.8-1.5c0-0.8-0.8-1.2-3.2-1.9
			c-2.3-0.6-5.4-1.5-5.4-4.6c0-2.3,1.9-4.1,4.8-4.5c2.8-0.4,6.1,0.7,7.1,3.7l-3.1,0.9c-0.5-1.5-2.4-1.8-3.5-1.6c-0.2,0-2,0.3-2,1.5
			c0,0.7,0.8,1.1,3.1,1.7c2.3,0.7,5.5,1.6,5.5,4.8c0,2.1-1.6,3.8-4.2,4.4C29.5,27.9,28.7,28,27.8,28z"/>
	</g>
	<g id="Amazon_3_">
	</g>
	<g id="AIM_2_">
	</g>
	<g id="fffound_1_">
	</g>
	<g id="Forrst_3_">
	</g>
	<g id="Yahoo_3_">
	</g>
	<g id="YouTube_3_">
	</g>
	<g id="Behance_2_">
	</g>
	<g id="Tumblr_2_">
	</g>
	<g id="Vimeo_2_">
	</g>
	<g id="Skype_3_">
	</g>
	<g id="Pinterest_2_">
	</g>
	<g id="LinkedIn_1_">
	</g>
	<g id="Dribbble_3_">
	</g>
	<g id="Flickr_3_">
	</g>
	<g id="Google_Plus_2_">
	</g>
	<g id="RSS_2_">
	</g>
	<g id="Twitter_2_">
	</g>
	<g id="Facebook_2_">
	</g>
</g>
<g id="Lockup">
</g>
</svg>
