<?xml version="1.0" encoding="utf-8"?>
<!-- Generator: Adobe Illustrator 18.0.0, SVG Export Plug-In . SVG Version: 6.00 Build 0)  -->
<!DOCTYPE svg PUBLIC "-//W3C//DTD SVG 1.1//EN" "http://www.w3.org/Graphics/SVG/1.1/DTD/svg11.dtd">
<svg version="1.1" xmlns="http://www.w3.org/2000/svg" xmlns:xlink="http://www.w3.org/1999/xlink" x="0px" y="0px"
	 viewBox="0 0 40 40" enable-background="new 0 0 40 40" xml:space="preserve">
<g id="Social">
	<g id="GitHub">
	</g>
	<g id="Soundcloud_3_">
	</g>
	<g id="Dropbox_2_">
	</g>
	<g id="Instagram_7_">
	</g>
	<g id="WordPress_3_">
	</g>
	<g id="PlayStation">
	</g>
	<g id="XBox_2_">
	</g>
	<g id="Windows_2_">
	</g>
	<g id="iOS_1_">
	</g>
	<g id="Apple_2_">
	</g>
	<g id="Android_2_">
	</g>
	<g id="Deviantart_2_">
	</g>
	<g id="Yelp_2_">
	</g>
	<g id="Picassa_6_">
	</g>
	<g id="LastFM_2_">
	</g>
	<g id="Amazon_3_">
	</g>
	<g id="AIM_2_">
	</g>
	<g id="fffound_1_">
	</g>
	<g id="Forrst_3_">
	</g>
	<g id="Yahoo_3_">
	</g>
	<g id="YouTube_3_">
	</g>
	<g id="Behance_2_">
	</g>
	<g id="Tumblr_2_">
	</g>
	<g id="Vimeo_2_">
	</g>
	<g id="Skype_3_">
	</g>
	<g id="Pinterest_2_">
		<path fill="#E74C3C" d="M20,8C13.4,8,8,13.4,8,20c0,4.9,3,9.2,7.3,11c0-0.8,0-1.8,0.2-2.7c0.2-1,1.6-6.6,1.6-6.6s-0.4-0.8-0.4-1.9
			c0-1.8,1-3.1,2.3-3.1c1.1,0,1.6,0.8,1.6,1.8c0,1.1-0.7,2.7-1.1,4.3c-0.3,1.3,0.6,2.3,1.9,2.3c2.3,0,3.8-2.9,3.8-6.4
			c0-2.6-1.8-4.6-5-4.6c-3.7,0-5.9,2.7-5.9,5.8c0,1,0.3,1.8,0.8,2.4c0.2,0.3,0.3,0.4,0.2,0.7c-0.1,0.2-0.2,0.8-0.2,1
			c-0.1,0.3-0.3,0.4-0.6,0.3c-1.7-0.7-2.5-2.5-2.5-4.6c0-3.4,2.9-7.5,8.6-7.5c4.6,0,7.6,3.3,7.6,6.9c0,4.7-2.6,8.3-6.5,8.3
			c-1.3,0-2.5-0.7-2.9-1.5c0,0-0.7,2.8-0.8,3.3c-0.3,0.9-0.7,1.8-1.2,2.5c1,0.3,2.2,0.5,3.3,0.5c6.6,0,12-5.4,12-12
			C32,13.4,26.6,8,20,8z"/>
	</g>
	<g id="LinkedIn_1_">
	</g>
	<g id="Dribbble_3_">
	</g>
	<g id="Flickr_3_">
	</g>
	<g id="Google_Plus_2_">
	</g>
	<g id="RSS_2_">
	</g>
	<g id="Twitter_2_">
	</g>
	<g id="Facebook_2_">
	</g>
</g>
<g id="Lockup">
</g>
</svg>
