<?xml version="1.0" encoding="utf-8"?>
<!-- Generator: Adobe Illustrator 18.0.0, SVG Export Plug-In . SVG Version: 6.00 Build 0)  -->
<!DOCTYPE svg PUBLIC "-//W3C//DTD SVG 1.1//EN" "http://www.w3.org/Graphics/SVG/1.1/DTD/svg11.dtd">
<svg version="1.1" xmlns="http://www.w3.org/2000/svg" xmlns:xlink="http://www.w3.org/1999/xlink" x="0px" y="0px"
	 viewBox="0 0 40 40" enable-background="new 0 0 40 40" xml:space="preserve">
<g id="Social">
	<g id="GitHub">
	</g>
	<g id="Soundcloud_3_">
	</g>
	<g id="Dropbox_2_">
	</g>
	<g id="Instagram_7_">
	</g>
	<g id="WordPress_3_">
	</g>
	<g id="PlayStation">
		<path fill="#2ECC71" d="M15.7,24.2l-4.8,1.7c-0.9,0.3-1,0.7-0.3,1c0.7,0.2,1.9,0.2,2.8-0.1l2.3-0.8v2.4c-0.1,0-0.3,0.1-0.5,0.1
			c-2.3,0.4-5.1,0.7-7.5-0.1C5.5,27.7,5,26,6,25.2c1-0.7,3-1.4,3-1.4l6.7-2.4V24.2z"/>
		<path fill="#3498D8" d="M34.2,26c-0.6,0.7-1.9,1.2-1.9,1.2l-10.2,3.7v-2.7l7.5-2.7c0.8-0.3,1-0.7,0.3-1c-0.7-0.2-1.8-0.1-2.8,0.1
			l-5,1.8v-2.8l0.3-0.1c0,0,1.4-0.5,3.5-0.7c2-0.2,4.5,0,6.5,0.8C34.5,24.2,34.8,25.3,34.2,26"/>
		<path fill="#E74C3C" d="M21.6,14.2L21.5,31l-5-1.5V9c2,0.4,4.9,1,6.4,1.6c3.9,1.4,5.3,3.3,5.3,7.1c0,3.7-2.3,5.1-5.2,3.7v-6.9
			c0-0.8-0.1-1.6-0.9-1.8C21.6,12.5,21.6,13.4,21.6,14.2z"/>
	</g>
	<g id="XBox_2_">
	</g>
	<g id="Windows_2_">
	</g>
	<g id="iOS_1_">
	</g>
	<g id="Apple_2_">
	</g>
	<g id="Android_2_">
	</g>
	<g id="Deviantart_2_">
	</g>
	<g id="Yelp_2_">
	</g>
	<g id="Picassa_6_">
	</g>
	<g id="LastFM_2_">
	</g>
	<g id="Amazon_3_">
	</g>
	<g id="AIM_2_">
	</g>
	<g id="fffound_1_">
	</g>
	<g id="Forrst_3_">
	</g>
	<g id="Yahoo_3_">
	</g>
	<g id="YouTube_3_">
	</g>
	<g id="Behance_2_">
	</g>
	<g id="Tumblr_2_">
	</g>
	<g id="Vimeo_2_">
	</g>
	<g id="Skype_3_">
	</g>
	<g id="Pinterest_2_">
	</g>
	<g id="LinkedIn_1_">
	</g>
	<g id="Dribbble_3_">
	</g>
	<g id="Flickr_3_">
	</g>
	<g id="Google_Plus_2_">
	</g>
	<g id="RSS_2_">
	</g>
	<g id="Twitter_2_">
	</g>
	<g id="Facebook_2_">
	</g>
</g>
<g id="Lockup">
</g>
</svg>
