<?xml version="1.0" encoding="utf-8"?>
<!-- Generator: Adobe Illustrator 18.0.0, SVG Export Plug-In . SVG Version: 6.00 Build 0)  -->
<!DOCTYPE svg PUBLIC "-//W3C//DTD SVG 1.1//EN" "http://www.w3.org/Graphics/SVG/1.1/DTD/svg11.dtd">
<svg version="1.1" xmlns="http://www.w3.org/2000/svg" xmlns:xlink="http://www.w3.org/1999/xlink" x="0px" y="0px"
	 viewBox="0 0 40 40" enable-background="new 0 0 40 40" xml:space="preserve">
<g id="Social">
	<g id="GitHub">
	</g>
	<g id="Soundcloud_3_">
	</g>
	<g id="Dropbox_2_">
	</g>
	<g id="Instagram_7_">
	</g>
	<g id="WordPress_3_">
	</g>
	<g id="PlayStation">
	</g>
	<g id="XBox_2_">
	</g>
	<g id="Windows_2_">
	</g>
	<g id="iOS_1_">
	</g>
	<g id="Apple_2_">
	</g>
	<g id="Android_2_">
	</g>
	<g id="Deviantart_2_">
	</g>
	<g id="Yelp_2_">
	</g>
	<g id="Picassa_6_">
	</g>
	<g id="LastFM_2_">
	</g>
	<g id="Amazon_3_">
	</g>
	<g id="AIM_2_">
	</g>
	<g id="fffound_1_">
	</g>
	<g id="Forrst_3_">
	</g>
	<g id="Yahoo_3_">
	</g>
	<g id="YouTube_3_">
	</g>
	<g id="Behance_2_">
	</g>
	<g id="Tumblr_2_">
	</g>
	<g id="Vimeo_2_">
	</g>
	<g id="Skype_3_">
	</g>
	<g id="Pinterest_2_">
	</g>
	<g id="LinkedIn_1_">
	</g>
	<g id="Dribbble_3_">
	</g>
	<g id="Flickr_3_">
	</g>
	<g id="Google_Plus_2_">
	</g>
	<g id="RSS_2_">
		<path fill="#E67E22" d="M30.5,30.2c0,0.1,0,0.2,0,0.2h-3.9c0-0.1,0-0.2,0-0.2c0-9.2-7.7-16.8-17-16.8c-0.1,0-0.1,0-0.2,0V9.5
			c0.1,0,0.1,0,0.2,0C21.1,9.5,30.5,18.9,30.5,30.2z M9.7,16.5c-0.1,0-0.1,0-0.2,0v3.9c0.1,0,0.1,0,0.2,0c5.4,0,9.9,4.5,9.9,9.9
			c0,0.1,0,0.2,0,0.2h3.9c0-0.1,0-0.2,0-0.2C23.5,22.8,17.2,16.5,9.7,16.5z M12.6,24.4c-1.7,0-3.1,1.4-3.1,3c0,1.7,1.4,3,3.1,3
			c1.7,0,3.1-1.4,3.1-3C15.6,25.7,14.3,24.4,12.6,24.4z"/>
	</g>
	<g id="Twitter_2_">
	</g>
	<g id="Facebook_2_">
	</g>
</g>
<g id="Lockup">
</g>
</svg>
