<?xml version="1.0" encoding="utf-8"?>
<!-- Generator: Adobe Illustrator 18.0.0, SVG Export Plug-In . SVG Version: 6.00 Build 0)  -->
<!DOCTYPE svg PUBLIC "-//W3C//DTD SVG 1.1//EN" "http://www.w3.org/Graphics/SVG/1.1/DTD/svg11.dtd">
<svg version="1.1" xmlns="http://www.w3.org/2000/svg" xmlns:xlink="http://www.w3.org/1999/xlink" x="0px" y="0px"
	 viewBox="0 0 40 40" enable-background="new 0 0 40 40" xml:space="preserve">
<g id="Social">
	<g id="GitHub">
	</g>
	<g id="Soundcloud_3_">
	</g>
	<g id="Dropbox_2_">
	</g>
	<g id="Instagram_7_">
	</g>
	<g id="WordPress_3_">
	</g>
	<g id="PlayStation">
	</g>
	<g id="XBox_2_">
	</g>
	<g id="Windows_2_">
	</g>
	<g id="iOS_1_">
	</g>
	<g id="Apple_2_">
	</g>
	<g id="Android_2_">
	</g>
	<g id="Deviantart_2_">
	</g>
	<g id="Yelp_2_">
	</g>
	<g id="Picassa_6_">
	</g>
	<g id="LastFM_2_">
	</g>
	<g id="Amazon_3_">
	</g>
	<g id="AIM_2_">
	</g>
	<g id="fffound_1_">
	</g>
	<g id="Forrst_3_">
	</g>
	<g id="Yahoo_3_">
	</g>
	<g id="YouTube_3_">
	</g>
	<g id="Behance_2_">
	</g>
	<g id="Tumblr_2_">
	</g>
	<g id="Vimeo_2_">
	</g>
	<g id="Skype_3_">
		<path fill="#3498D8" d="M30.3,21.6c0.1-0.5,0.1-1.1,0.1-1.6c0-5.9-4.8-10.4-10.7-10.4c-0.6,0-1.1,0.1-1.6,0.1
			C17,8.8,15.6,8,14.1,8C10.7,8,8,10.7,8,14.1c0,1.4,0.5,2.6,1.2,3.7C9.1,18.5,9,19.2,9,20c0,5.9,4.8,11,10.7,11
			c0.8,0,1.5-0.1,2.2-0.2c1.1,0.9,2.5,1.2,4,1.2c3.4,0,6.1-2.7,6.1-6.1C32,24.2,31.3,22.7,30.3,21.6z"/>
		<path fill="#FFFFFF" d="M24.7,24.9c-0.4,0.6-1,1.1-1.9,1.4c-0.8,0.3-1.8,0.5-2.9,0.5c-1.3,0-2.4-0.2-3.3-0.7
			c-0.6-0.3-1.1-0.8-1.5-1.3c-0.4-0.6-0.6-1.1-0.6-1.6c0-0.3,0.1-0.6,0.3-0.8c0.2-0.2,0.5-0.3,0.9-0.3c0.3,0,0.5,0.1,0.7,0.3
			c0.2,0.2,0.4,0.4,0.5,0.8c0.2,0.4,0.4,0.7,0.6,1c0.2,0.3,0.5,0.5,0.8,0.7c0.4,0.2,0.8,0.3,1.4,0.3c0.8,0,1.5-0.2,2-0.5
			c0.5-0.3,0.8-0.8,0.8-1.3c0-0.4-0.1-0.7-0.4-1c-0.3-0.3-0.6-0.5-1.1-0.6c-0.4-0.1-1-0.3-1.7-0.4c-1-0.2-1.8-0.5-2.4-0.7
			c-0.7-0.3-1.2-0.7-1.6-1.1c-0.4-0.5-0.6-1.1-0.6-1.8c0-0.7,0.2-1.3,0.6-1.8c0.4-0.5,1-0.9,1.8-1.2c0.8-0.3,1.7-0.4,2.7-0.4
			c0.8,0,1.5,0.1,2.2,0.3c0.6,0.2,1.1,0.4,1.5,0.8c0.4,0.3,0.7,0.6,0.9,1c0.2,0.3,0.3,0.7,0.3,1c0,0.3-0.1,0.6-0.3,0.8
			c-0.2,0.2-0.5,0.4-0.9,0.4c-0.3,0-0.6-0.1-0.7-0.2c-0.2-0.1-0.3-0.4-0.5-0.7c-0.2-0.5-0.5-0.8-0.9-1.1c-0.3-0.3-0.9-0.4-1.7-0.4
			c-0.7,0-1.3,0.1-1.7,0.4c-0.4,0.3-0.7,0.6-0.7,1c0,0.2,0.1,0.5,0.2,0.6c0.1,0.2,0.4,0.3,0.6,0.5c0.3,0.1,0.5,0.2,0.8,0.3
			c0.3,0.1,0.7,0.2,1.3,0.3c0.8,0.2,1.5,0.3,2.1,0.5c0.6,0.2,1.1,0.4,1.6,0.7c0.4,0.3,0.8,0.6,1,1.1c0.2,0.4,0.4,1,0.4,1.6
			C25.3,23.7,25.1,24.3,24.7,24.9z"/>
	</g>
	<g id="Pinterest_2_">
	</g>
	<g id="LinkedIn_1_">
	</g>
	<g id="Dribbble_3_">
	</g>
	<g id="Flickr_3_">
	</g>
	<g id="Google_Plus_2_">
	</g>
	<g id="RSS_2_">
	</g>
	<g id="Twitter_2_">
	</g>
	<g id="Facebook_2_">
	</g>
</g>
<g id="Lockup">
</g>
</svg>
