<?xml version="1.0" encoding="utf-8"?>
<!-- Generator: Adobe Illustrator 18.0.0, SVG Export Plug-In . SVG Version: 6.00 Build 0)  -->
<!DOCTYPE svg PUBLIC "-//W3C//DTD SVG 1.1//EN" "http://www.w3.org/Graphics/SVG/1.1/DTD/svg11.dtd">
<svg version="1.1" xmlns="http://www.w3.org/2000/svg" xmlns:xlink="http://www.w3.org/1999/xlink" x="0px" y="0px"
	 viewBox="0 0 40 40" enable-background="new 0 0 40 40" xml:space="preserve">
<g id="Social">
	<g id="GitHub">
	</g>
	<g id="Soundcloud_3_">
		<path fill-rule="evenodd" clip-rule="evenodd" fill="#E67E22" d="M32.6,27.5L32.6,27.5l-11.1,0V12.9c0.8-0.3,1.6-0.4,2.4-0.4
			c3.8,0,6.9,3,7.2,6.8c0.4-0.1,0.8-0.2,1.3-0.2c2.3,0,4.1,1.9,4.1,4.2C36.5,25.6,34.8,27.4,32.6,27.5z"/>
		<path id="_x3C_Path_x3E__1_" fill-rule="evenodd" clip-rule="evenodd" fill="#E67E22" d="M19.5,27.5V14c0.3-0.2,0.6-0.5,1-0.7
			v14.1H19.5z M17.5,27.5V16.2c0,0,0.1,0,0.1,0.1c0.3-0.4,0.6-0.9,0.9-1.2v12.5H17.5z M15.5,27.5v-12c0.3,0.1,0.7,0.1,1,0.3v11.8
			H15.5z M13.5,27.5V15.6c0.3-0.1,0.7-0.1,1-0.1v12.1H13.5z M11.5,27.5V16.4c0.3-0.2,0.7-0.4,1-0.5v11.6H11.5z M9.5,27.5v-8.8
			c0.3-0.5,0.6-1,1-1.4v10.2H9.5z M7.5,27.5v-8.4c0,0,0.1,0,0.1,0c0.3,0,0.6,0,0.9,0.1v8.3H7.5z M5.5,26.9v-7.2
			c0.3-0.2,0.6-0.3,1-0.4v8.1C6.1,27.2,5.8,27.1,5.5,26.9z M3.5,23.3c0-1,0.4-2,1-2.7V26C3.9,25.3,3.5,24.3,3.5,23.3z"/>
	</g>
	<g id="Dropbox_2_">
	</g>
	<g id="Instagram_7_">
	</g>
	<g id="WordPress_3_">
	</g>
	<g id="PlayStation">
	</g>
	<g id="XBox_2_">
	</g>
	<g id="Windows_2_">
	</g>
	<g id="iOS_1_">
	</g>
	<g id="Apple_2_">
	</g>
	<g id="Android_2_">
	</g>
	<g id="Deviantart_2_">
	</g>
	<g id="Yelp_2_">
	</g>
	<g id="Picassa_6_">
	</g>
	<g id="LastFM_2_">
	</g>
	<g id="Amazon_3_">
	</g>
	<g id="AIM_2_">
	</g>
	<g id="fffound_1_">
	</g>
	<g id="Forrst_3_">
	</g>
	<g id="Yahoo_3_">
	</g>
	<g id="YouTube_3_">
	</g>
	<g id="Behance_2_">
	</g>
	<g id="Tumblr_2_">
	</g>
	<g id="Vimeo_2_">
	</g>
	<g id="Skype_3_">
	</g>
	<g id="Pinterest_2_">
	</g>
	<g id="LinkedIn_1_">
	</g>
	<g id="Dribbble_3_">
	</g>
	<g id="Flickr_3_">
	</g>
	<g id="Google_Plus_2_">
	</g>
	<g id="RSS_2_">
	</g>
	<g id="Twitter_2_">
	</g>
	<g id="Facebook_2_">
	</g>
</g>
<g id="Lockup">
</g>
</svg>
