<?xml version="1.0" encoding="utf-8"?>
<!-- Generator: Adobe Illustrator 18.0.0, SVG Export Plug-In . SVG Version: 6.00 Build 0)  -->
<!DOCTYPE svg PUBLIC "-//W3C//DTD SVG 1.1//EN" "http://www.w3.org/Graphics/SVG/1.1/DTD/svg11.dtd">
<svg version="1.1" xmlns="http://www.w3.org/2000/svg" xmlns:xlink="http://www.w3.org/1999/xlink" x="0px" y="0px"
	 viewBox="0 0 40 40" enable-background="new 0 0 40 40" xml:space="preserve">
<g id="Social">
	<g id="GitHub">
	</g>
	<g id="Soundcloud_3_">
	</g>
	<g id="Dropbox_2_">
	</g>
	<g id="Instagram_7_">
	</g>
	<g id="WordPress_3_">
	</g>
	<g id="PlayStation">
	</g>
	<g id="XBox_2_">
	</g>
	<g id="Windows_2_">
	</g>
	<g id="iOS_1_">
	</g>
	<g id="Apple_2_">
	</g>
	<g id="Android_2_">
	</g>
	<g id="Deviantart_2_">
	</g>
	<g id="Yelp_2_">
	</g>
	<g id="Picassa_6_">
	</g>
	<g id="LastFM_2_">
	</g>
	<g id="Amazon_3_">
	</g>
	<g id="AIM_2_">
	</g>
	<g id="fffound_1_">
	</g>
	<g id="Forrst_3_">
	</g>
	<g id="Yahoo_3_">
	</g>
	<g id="YouTube_3_">
	</g>
	<g id="Behance_2_">
	</g>
	<g id="Tumblr_2_">
	</g>
	<g id="Vimeo_2_">
	</g>
	<g id="Skype_3_">
	</g>
	<g id="Pinterest_2_">
	</g>
	<g id="LinkedIn_1_">
	</g>
	<g id="Dribbble_3_">
	</g>
	<g id="Flickr_3_">
	</g>
	<g id="Google_Plus_2_">
	</g>
	<g id="RSS_2_">
	</g>
	<g id="Twitter_2_">
		<path fill="#3498D8" d="M30.8,13.4c-0.4,0.2-1.5,0.6-2.5,0.7c0.7-0.4,1.6-1.5,1.9-2.4c-0.6,0.4-2.1,1-2.8,1c0,0,0,0,0,0
			c-0.8-0.8-2-1.5-3.2-1.5c-2.5,0-4.3,2.1-4.3,4.6c0,0.3,0,0.7,0.1,1h0c-3.3-0.1-7.2-1.9-9.4-4.8c-1.4,2.3-0.2,5.1,1.4,6.1
			c-0.5,0-1.5-0.1-1.9-0.5c0,1.6,0.7,3.6,3.4,4.4C13,22.1,12,22.1,11.6,22c0.1,1.3,2,3,4,3c-0.7,0.8-3.4,2.3-6.4,1.9
			c2.1,1.2,4.4,2,7,2c7.2,0,13.1-5.8,12.8-13c0,0,0,0,0,0c0,0,0,0,0-0.1c0,0,0,0,0-0.1C29.6,15.2,30.2,14.4,30.8,13.4z"/>
	</g>
	<g id="Facebook_2_">
	</g>
</g>
<g id="Lockup">
</g>
</svg>
