<?xml version="1.0" encoding="utf-8"?>
<!-- Generator: Adobe Illustrator 18.0.0, SVG Export Plug-In . SVG Version: 6.00 Build 0)  -->
<!DOCTYPE svg PUBLIC "-//W3C//DTD SVG 1.1//EN" "http://www.w3.org/Graphics/SVG/1.1/DTD/svg11.dtd">
<svg version="1.1" xmlns="http://www.w3.org/2000/svg" xmlns:xlink="http://www.w3.org/1999/xlink" x="0px" y="0px"
	 viewBox="0 0 40 40" enable-background="new 0 0 40 40" xml:space="preserve">
<g id="Social">
	<g id="GitHub">
	</g>
	<g id="Soundcloud_3_">
	</g>
	<g id="Dropbox_2_">
	</g>
	<g id="Instagram_7_">
	</g>
	<g id="WordPress_3_">
		<path fill="#3498D8" d="M11,16l4.7,12.9c-3.3-1.6-5.6-5-5.6-8.9C10.1,18.6,10.4,17.2,11,16z M26.7,19.5c0-1.2-0.4-2.1-0.8-2.7
			c-0.5-0.8-1-1.5-1-2.3c0-0.9,0.7-1.8,1.7-1.8c0,0,0.1,0,0.1,0c-1.8-1.6-4.1-2.6-6.7-2.6c-3.4,0-6.5,1.8-8.2,4.4c0.2,0,0.4,0,0.6,0
			c1,0,2.6-0.1,2.6-0.1c0.5,0,0.6,0.8,0.1,0.8c0,0-0.5,0.1-1.1,0.1l3.6,10.7l2.2-6.5l-1.5-4.2c-0.5,0-1-0.1-1-0.1
			c-0.5,0-0.5-0.8,0.1-0.8c0,0,1.6,0.1,2.6,0.1c1,0,2.6-0.1,2.6-0.1c0.5,0,0.6,0.8,0.1,0.8c0,0-0.5,0.1-1.1,0.1L24.9,26l1-3.3
			C26.3,21.3,26.7,20.3,26.7,19.5z M20.2,20.9l-3,8.6c0.9,0.3,1.8,0.4,2.8,0.4c1.1,0,2.3-0.2,3.3-0.6c0,0-0.1-0.1-0.1-0.1L20.2,20.9
			z M28.7,15.3c0,0.3,0.1,0.7,0.1,1c0,1-0.2,2.1-0.8,3.5l-3,8.7c2.9-1.7,4.9-4.9,4.9-8.5C29.9,18.3,29.4,16.7,28.7,15.3z"/>
		<path fill="#2980B9" d="M20,6.5C12.6,6.5,6.5,12.6,6.5,20c0,7.4,6.1,13.5,13.5,13.5c7.4,0,13.5-6.1,13.5-13.5
			C33.5,12.6,27.4,6.5,20,6.5z M20,31.9c-6.5,0-11.9-5.3-11.9-11.9c0-6.5,5.3-11.9,11.9-11.9S31.9,13.5,31.9,20
			C31.9,26.5,26.5,31.9,20,31.9z"/>
	</g>
	<g id="PlayStation">
	</g>
	<g id="XBox_2_">
	</g>
	<g id="Windows_2_">
	</g>
	<g id="iOS_1_">
	</g>
	<g id="Apple_2_">
	</g>
	<g id="Android_2_">
	</g>
	<g id="Deviantart_2_">
	</g>
	<g id="Yelp_2_">
	</g>
	<g id="Picassa_6_">
	</g>
	<g id="LastFM_2_">
	</g>
	<g id="Amazon_3_">
	</g>
	<g id="AIM_2_">
	</g>
	<g id="fffound_1_">
	</g>
	<g id="Forrst_3_">
	</g>
	<g id="Yahoo_3_">
	</g>
	<g id="YouTube_3_">
	</g>
	<g id="Behance_2_">
	</g>
	<g id="Tumblr_2_">
	</g>
	<g id="Vimeo_2_">
	</g>
	<g id="Skype_3_">
	</g>
	<g id="Pinterest_2_">
	</g>
	<g id="LinkedIn_1_">
	</g>
	<g id="Dribbble_3_">
	</g>
	<g id="Flickr_3_">
	</g>
	<g id="Google_Plus_2_">
	</g>
	<g id="RSS_2_">
	</g>
	<g id="Twitter_2_">
	</g>
	<g id="Facebook_2_">
	</g>
</g>
<g id="Lockup">
</g>
</svg>
