<?xml version="1.0" encoding="utf-8"?>
<!-- Generator: Adobe Illustrator 18.0.0, SVG Export Plug-In . SVG Version: 6.00 Build 0)  -->
<!DOCTYPE svg PUBLIC "-//W3C//DTD SVG 1.1//EN" "http://www.w3.org/Graphics/SVG/1.1/DTD/svg11.dtd">
<svg version="1.1" xmlns="http://www.w3.org/2000/svg" xmlns:xlink="http://www.w3.org/1999/xlink" x="0px" y="0px"
	 viewBox="0 0 40 40" enable-background="new 0 0 40 40" xml:space="preserve">
<g id="Social">
	<g id="GitHub">
	</g>
	<g id="Soundcloud_3_">
	</g>
	<g id="Dropbox_2_">
	</g>
	<g id="Instagram_7_">
	</g>
	<g id="WordPress_3_">
	</g>
	<g id="PlayStation">
	</g>
	<g id="XBox_2_">
		<path fill="#2ECC71" d="M20,8.5c2.8,0,5.3,1,7.5,2.8c0,0-3.4-2-7.5,1.7c-4.6-3.4-7.5-1.7-7.5-1.7C14.5,9.5,17.1,8.5,20,8.5z"/>
		<path fill="#2ECC71" d="M8.5,20c0-3,1.2-5.8,3.1-7.8c0,0,2,0.9,5.4,3c-7.5,7.8-6,12.1-6,12.1C9.4,25.2,8.5,22.7,8.5,20z"/>
		<path fill="#2ECC71" d="M20,31.5c-3.3,0-6.2-1.4-8.3-3.6c0,0,1.9-5.6,8.3-10.3c7.1,5.3,8.4,10.3,8.4,10.3
			C26.2,30.1,23.3,31.5,20,31.5z"/>
		<path fill="#2ECC71" d="M29,27.2c0,0,1.6-4.2-6-12.1c3.4-2.1,5.4-3,5.4-3c1.9,2.1,3.1,4.8,3.1,7.8C31.5,22.7,30.6,25.2,29,27.2z"
			/>
	</g>
	<g id="Windows_2_">
	</g>
	<g id="iOS_1_">
	</g>
	<g id="Apple_2_">
	</g>
	<g id="Android_2_">
	</g>
	<g id="Deviantart_2_">
	</g>
	<g id="Yelp_2_">
	</g>
	<g id="Picassa_6_">
	</g>
	<g id="LastFM_2_">
	</g>
	<g id="Amazon_3_">
	</g>
	<g id="AIM_2_">
	</g>
	<g id="fffound_1_">
	</g>
	<g id="Forrst_3_">
	</g>
	<g id="Yahoo_3_">
	</g>
	<g id="YouTube_3_">
	</g>
	<g id="Behance_2_">
	</g>
	<g id="Tumblr_2_">
	</g>
	<g id="Vimeo_2_">
	</g>
	<g id="Skype_3_">
	</g>
	<g id="Pinterest_2_">
	</g>
	<g id="LinkedIn_1_">
	</g>
	<g id="Dribbble_3_">
	</g>
	<g id="Flickr_3_">
	</g>
	<g id="Google_Plus_2_">
	</g>
	<g id="RSS_2_">
	</g>
	<g id="Twitter_2_">
	</g>
	<g id="Facebook_2_">
	</g>
</g>
<g id="Lockup">
</g>
</svg>
