<?xml version="1.0" encoding="utf-8"?>
<!-- Generator: Adobe Illustrator 18.0.0, SVG Export Plug-In . SVG Version: 6.00 Build 0)  -->
<!DOCTYPE svg PUBLIC "-//W3C//DTD SVG 1.1//EN" "http://www.w3.org/Graphics/SVG/1.1/DTD/svg11.dtd">
<svg version="1.1" xmlns="http://www.w3.org/2000/svg" xmlns:xlink="http://www.w3.org/1999/xlink" x="0px" y="0px"
	 viewBox="0 0 40 40" enable-background="new 0 0 40 40" xml:space="preserve">
<g id="Social">
	<g id="GitHub">
	</g>
	<g id="Soundcloud_3_">
	</g>
	<g id="Dropbox_2_">
	</g>
	<g id="Instagram_7_">
	</g>
	<g id="WordPress_3_">
	</g>
	<g id="PlayStation">
	</g>
	<g id="XBox_2_">
	</g>
	<g id="Windows_2_">
	</g>
	<g id="iOS_1_">
	</g>
	<g id="Apple_2_">
	</g>
	<g id="Android_2_">
	</g>
	<g id="Deviantart_2_">
	</g>
	<g id="Yelp_2_">
	</g>
	<g id="Picassa_6_">
	</g>
	<g id="LastFM_2_">
	</g>
	<g id="Amazon_3_">
	</g>
	<g id="AIM_2_">
	</g>
	<g id="fffound_1_">
	</g>
	<g id="Forrst_3_">
	</g>
	<g id="Yahoo_3_">
		<path fill="#9B59B6" d="M7.5,13v2.2c0,0,1.2,0,1.8,0c0.6,0,1.3,0.7,1.9,1.3c0.6,0.6,4.8,5.2,4.8,5.2l0,3.8c0,0-0.3,0.6-1.5,0.6
			c-1.2,0-1.7,0.1-1.7,0.1V27h9.5v-0.6c0,0-0.3-0.4-0.5-0.4c-0.2,0-2,0-2.3,0c-0.3,0-0.4-0.3-0.4-0.7c0-0.4,0-3.3,0-3.3l5.3-4.9
			c0,0,0.8-0.5,1.4-0.5c0.6,0,1.4,0,1.4,0l0.5-1.3h-8.7l0.1,1l0.5,0.3l2.2,0.1c0,0,0.1,0.5-0.2,0.8c-0.4,0.3-3.6,3.3-3.6,3.3
			L14,15.3c0,0,0.1-0.1,0.7-0.1c0.6,0,2.4,0,2.4,0V13H7.5z"/>
		<path fill="#8E44AD" d="M32.5,14.4l-2.2,8.6l-1.6-0.1l0-8.7L32.5,14.4z M28.7,24.9V27H31l0.1-2.2L28.7,24.9z"/>
	</g>
	<g id="YouTube_3_">
	</g>
	<g id="Behance_2_">
	</g>
	<g id="Tumblr_2_">
	</g>
	<g id="Vimeo_2_">
	</g>
	<g id="Skype_3_">
	</g>
	<g id="Pinterest_2_">
	</g>
	<g id="LinkedIn_1_">
	</g>
	<g id="Dribbble_3_">
	</g>
	<g id="Flickr_3_">
	</g>
	<g id="Google_Plus_2_">
	</g>
	<g id="RSS_2_">
	</g>
	<g id="Twitter_2_">
	</g>
	<g id="Facebook_2_">
	</g>
</g>
<g id="Lockup">
</g>
</svg>
