<?xml version="1.0" encoding="utf-8"?>
<!-- Generator: Adobe Illustrator 18.0.0, SVG Export Plug-In . SVG Version: 6.00 Build 0)  -->
<!DOCTYPE svg PUBLIC "-//W3C//DTD SVG 1.1//EN" "http://www.w3.org/Graphics/SVG/1.1/DTD/svg11.dtd">
<svg version="1.1" xmlns="http://www.w3.org/2000/svg" xmlns:xlink="http://www.w3.org/1999/xlink" x="0px" y="0px"
	 viewBox="0 0 40 40" enable-background="new 0 0 40 40" xml:space="preserve">
<g id="Social">
	<g id="GitHub">
	</g>
	<g id="Soundcloud_3_">
	</g>
	<g id="Dropbox_2_">
	</g>
	<g id="Instagram_7_">
	</g>
	<g id="WordPress_3_">
	</g>
	<g id="PlayStation">
	</g>
	<g id="XBox_2_">
	</g>
	<g id="Windows_2_">
	</g>
	<g id="iOS_1_">
	</g>
	<g id="Apple_2_">
	</g>
	<g id="Android_2_">
	</g>
	<g id="Deviantart_2_">
	</g>
	<g id="Yelp_2_">
		<path fill="#E74C3C" d="M19.6,8.2c0.6,0.6,0.3,8.3,0.3,9.1c0,0.8-0.5,1.3-1.2,1.2c-0.7-0.1-6.2-7.6-6.1-8.3c0-0.6,1.7-1.4,3.1-1.9
			C16.4,8.2,19,7.7,19.6,8.2z M24.7,20.5c1.2-0.2,5.2-1,5.3-2c0.1-1-2.3-4.5-3.3-4.5c-0.6,0-4.9,5.2-4.2,6.2
			C22.9,20.8,23.4,20.7,24.7,20.5z M17.7,21.6c0-0.7-2.1-1.6-2.1-1.6s-3.8-1.7-4.5-1.6c-0.7,0.1-1,1.9-1,3.2
			c-0.2,3.7,1.6,2.8,1.6,2.8s3.8-1.2,4.5-1.5C16.9,22.6,17.7,22.2,17.7,21.6z M19,24.3c-0.9-0.1-1.9,1.5-2.4,2.1
			c-0.5,0.6-2.6,2.8-2.7,3.3c0,0.6,1.1,1.2,2.7,1.8c1.6,0.6,3.3,1,3.4-0.3c0.1-1.2,0-4.7,0-5.1C20,25.7,20,24.4,19,24.3z M28.8,24.8
			c-0.8-0.3-5.3-2.3-6-1.4c-0.5,0.5-0.2,1.4,0.3,2.3c0.5,0.8,2.4,3.7,2.4,3.7s0.3,0.8,0.9,0.8c0.6,0,1.8-1.1,2.3-1.9
			c0.6-0.8,1.2-1.8,1.2-2.4C30,25.2,29.6,25.1,28.8,24.8z"/>
	</g>
	<g id="Picassa_6_">
	</g>
	<g id="LastFM_2_">
	</g>
	<g id="Amazon_3_">
	</g>
	<g id="AIM_2_">
	</g>
	<g id="fffound_1_">
	</g>
	<g id="Forrst_3_">
	</g>
	<g id="Yahoo_3_">
	</g>
	<g id="YouTube_3_">
	</g>
	<g id="Behance_2_">
	</g>
	<g id="Tumblr_2_">
	</g>
	<g id="Vimeo_2_">
	</g>
	<g id="Skype_3_">
	</g>
	<g id="Pinterest_2_">
	</g>
	<g id="LinkedIn_1_">
	</g>
	<g id="Dribbble_3_">
	</g>
	<g id="Flickr_3_">
	</g>
	<g id="Google_Plus_2_">
	</g>
	<g id="RSS_2_">
	</g>
	<g id="Twitter_2_">
	</g>
	<g id="Facebook_2_">
	</g>
</g>
<g id="Lockup">
</g>
</svg>
