<?xml version="1.0" encoding="utf-8"?>
<!-- Generator: Adobe Illustrator 18.0.0, SVG Export Plug-In . SVG Version: 6.00 Build 0)  -->
<!DOCTYPE svg PUBLIC "-//W3C//DTD SVG 1.1//EN" "http://www.w3.org/Graphics/SVG/1.1/DTD/svg11.dtd">
<svg version="1.1" xmlns="http://www.w3.org/2000/svg" xmlns:xlink="http://www.w3.org/1999/xlink" x="0px" y="0px"
	 viewBox="0 0 40 40" enable-background="new 0 0 40 40" xml:space="preserve">
<g id="Social">
	<g id="GitHub">
	</g>
	<g id="Soundcloud_3_">
	</g>
	<g id="Dropbox_2_">
	</g>
	<g id="Instagram_7_">
	</g>
	<g id="WordPress_3_">
	</g>
	<g id="PlayStation">
	</g>
	<g id="XBox_2_">
	</g>
	<g id="Windows_2_">
	</g>
	<g id="iOS_1_">
	</g>
	<g id="Apple_2_">
	</g>
	<g id="Android_2_">
	</g>
	<g id="Deviantart_2_">
	</g>
	<g id="Yelp_2_">
	</g>
	<g id="Picassa_6_">
	</g>
	<g id="LastFM_2_">
	</g>
	<g id="Amazon_3_">
	</g>
	<g id="AIM_2_">
	</g>
	<g id="fffound_1_">
	</g>
	<g id="Forrst_3_">
	</g>
	<g id="Yahoo_3_">
	</g>
	<g id="YouTube_3_">
		<path fill="#E74C3C" d="M18.9,10.5c0.7,0,1.5,0,2.2,0c0.1,0,0.1,0,0.2,0c0.7,0,1.3,0,2,0c0.9,0,1.7,0,2.6,0.1c1,0,2,0.1,3,0.1
			c0.5,0,0.9,0.1,1.4,0.2c1,0.2,1.7,0.7,2.2,1.5c0.4,0.7,0.6,1.4,0.7,2.1c0.2,1.3,0.3,2.5,0.3,3.8c0,1.2,0,2.4,0,3.5
			c0,0.9-0.1,1.8-0.2,2.6c0,0.7-0.2,1.4-0.4,2.1c-0.5,1.5-1.5,2.3-3,2.4c-0.9,0.1-1.7,0.1-2.6,0.2c-1,0-2.1,0.1-3.1,0.1
			c-1,0-2,0-3.1,0c-0.1,0-0.1,0-0.2,0c-0.5,0-1,0-1.5,0c0,0-0.1,0-0.1,0c-0.6,0-1.3,0-1.9,0c-0.8,0-1.7,0-2.5-0.1
			c-1.2,0-2.4-0.1-3.7-0.1c-0.6,0-1.2-0.1-1.8-0.3c-0.9-0.2-1.6-0.7-2-1.5c-0.4-0.7-0.6-1.4-0.7-2.1c-0.2-1.3-0.3-2.5-0.3-3.8
			c0-1.1,0-2.3,0-3.4c0-0.9,0.1-1.8,0.2-2.7c0-0.7,0.2-1.5,0.4-2.2c0.4-1.2,1.2-2,2.4-2.3c0.7-0.2,1.4-0.2,2.1-0.2
			c0.7,0,1.5-0.1,2.2-0.1c1.1,0,2.1-0.1,3.2-0.1c0.6,0,1.2,0,1.8,0C18.8,10.5,18.9,10.5,18.9,10.5z"/>
		<polygon fill="#FFFFFF" points="24.5,20.2 17.3,16.4 17.3,23.6 		"/>
	</g>
	<g id="Behance_2_">
	</g>
	<g id="Tumblr_2_">
	</g>
	<g id="Vimeo_2_">
	</g>
	<g id="Skype_3_">
	</g>
	<g id="Pinterest_2_">
	</g>
	<g id="LinkedIn_1_">
	</g>
	<g id="Dribbble_3_">
	</g>
	<g id="Flickr_3_">
	</g>
	<g id="Google_Plus_2_">
	</g>
	<g id="RSS_2_">
	</g>
	<g id="Twitter_2_">
	</g>
	<g id="Facebook_2_">
	</g>
</g>
<g id="Lockup">
</g>
</svg>
