<?xml version="1.0" encoding="iso-8859-1"?>
<!-- Generator: Adobe Illustrator 16.0.0, SVG Export Plug-In . SVG Version: 6.00 Build 0)  -->
<!DOCTYPE svg PUBLIC "-//W3C//DTD SVG 1.1//EN" "http://www.w3.org/Graphics/SVG/1.1/DTD/svg11.dtd">
<svg version="1.1" id="Layer_1" xmlns="http://www.w3.org/2000/svg" xmlns:xlink="http://www.w3.org/1999/xlink" x="0px" y="0px"
	 width="62px" height="66px" viewBox="0 0 62 66" style="enable-background:new 0 0 62 66;" xml:space="preserve">
<g id="File_70_">
	<g>
		<path style="fill-rule:evenodd;clip-rule:evenodd;fill:#CCCCCC;" d="M14,36c-1.104,0-2,0.896-2,2c0,1.105,0.896,2,2,2h16
			c1.104,0,2-0.895,2-2c0-1.104-0.896-2-2-2H14z M52,0H4C1.791,0,0,1.791,0,4v56c0,2.209,1.791,3.999,4,3.999L40.815,64
			c-1.698-1.02-3.165-2.38-4.296-4H6c-1.104,0-2-0.896-2-2V6c0-1.104,0.896-2,2-2h44c1.104,0,2,0.896,2,2v32.587
			c1.446,0.431,2.791,1.089,4,1.933V4C56,1.791,54.209,0,52,0z M42,12H14c-1.104,0-2,0.896-2,2s0.896,2,2,2h28c1.104,0,2-0.896,2-2
			S43.104,12,42,12z M14,24h16c1.104,0,2-0.896,2-2s-0.896-2-2-2H14c-1.104,0-2,0.896-2,2S12.896,24,14,24z M42,28H14
			c-1.104,0-2,0.896-2,2s0.896,2,2,2h28c1.104,0,2-0.896,2-2S43.104,28,42,28z"/>
	</g>
</g>
<g id="Refresh_5_">
	<g>
		<path style="fill-rule:evenodd;clip-rule:evenodd;fill:#88C057;" d="M46,52c1.104,0,2-0.896,2-2.001c0-1.104-0.896-2-2-2h-2.442
			C44.654,46.779,46.23,46,48,46c1.774,0,3.365,0.775,4.463,2h4.699C55.619,44.469,52.1,42,48,42c-2.255,0-4.329,0.752-6,2.012V44
			c0-1.104-0.896-2.001-2-2.001S38,42.896,38,44v5.999C38,51.104,38.896,52,40,52H46z M56.778,52.156
			c-0.239-0.102-0.502-0.157-0.778-0.157h-6c-1.104,0-2,0.896-2,1.999C48,55.104,48.896,56,50,56h2.442
			c-1.096,1.22-2.672,1.999-4.442,1.999c-1.774,0-3.364-0.774-4.463-1.999h-4.699c1.544,3.53,5.063,6,9.162,6
			c2.254,0,4.328-0.753,6-2.011v0.01c0,1.105,0.896,2,2,2s2-0.895,2-2V54v-0.001v-0.001C58,53.17,57.496,52.46,56.778,52.156z"/>
	</g>
</g>
<g>
</g>
<g>
</g>
<g>
</g>
<g>
</g>
<g>
</g>
<g>
</g>
<g>
</g>
<g>
</g>
<g>
</g>
<g>
</g>
<g>
</g>
<g>
</g>
<g>
</g>
<g>
</g>
<g>
</g>
</svg>
