<?xml version="1.0" encoding="iso-8859-1"?>
<!-- Generator: Adobe Illustrator 16.0.0, SVG Export Plug-In . SVG Version: 6.00 Build 0)  -->
<!DOCTYPE svg PUBLIC "-//W3C//DTD SVG 1.1//EN" "http://www.w3.org/Graphics/SVG/1.1/DTD/svg11.dtd">
<svg version="1.1" id="Layer_1" xmlns="http://www.w3.org/2000/svg" xmlns:xlink="http://www.w3.org/1999/xlink" x="0px" y="0px"
	 width="56px" height="64px" viewBox="0 0 56 64" style="enable-background:new 0 0 56 64;" xml:space="preserve">
<g id="File_33_">
	<g>
		<path style="fill:#ED7261;" d="M52,0H4C1.791,0,0,1.79,0,4v56c0,2.209,1.791,4,4,4h34l18-18V4C56,1.79,54.209,0,52,0z"/>
	</g>
</g>
<g id="Corner_2_">
	<g>
		<path style="fill:#BA594C;" d="M42,45.999c-2.209,0-4,1.792-4,4.001v14l18-18.001H42z"/>
	</g>
</g>
<g id="Access">
	<g>
		<path style="fill:#FFFFFF;" d="M30.771,15.997h-5.408l-7.37,20.005h4.942l1.426-4.45h7.2l1.44,4.45h4.97L30.771,15.997z
			 M25.335,28.093l2.203-6.78c0.188-0.577,0.306-1.158,0.353-1.744h0.113c0.065,0.697,0.179,1.298,0.339,1.8l2.174,6.725H25.335z"/>
	</g>
</g>
<g>
</g>
<g>
</g>
<g>
</g>
<g>
</g>
<g>
</g>
<g>
</g>
<g>
</g>
<g>
</g>
<g>
</g>
<g>
</g>
<g>
</g>
<g>
</g>
<g>
</g>
<g>
</g>
<g>
</g>
</svg>
