<?xml version="1.0" encoding="iso-8859-1"?>
<!-- Generator: Adobe Illustrator 16.0.0, SVG Export Plug-In . SVG Version: 6.00 Build 0)  -->
<!DOCTYPE svg PUBLIC "-//W3C//DTD SVG 1.1//EN" "http://www.w3.org/Graphics/SVG/1.1/DTD/svg11.dtd">
<svg version="1.1" id="Layer_1" xmlns="http://www.w3.org/2000/svg" xmlns:xlink="http://www.w3.org/1999/xlink" x="0px" y="0px"
	 width="56px" height="64px" viewBox="0 0 56 64" style="enable-background:new 0 0 56 64;" xml:space="preserve">
<g id="File_37_">
	<g>
		<path style="fill:#88C057;" d="M52,0H4C1.791,0,0,1.79,0,4v56c0,2.209,1.791,4,4,4h34l18-18V4C56,1.79,54.209,0,52,0z"/>
	</g>
</g>
<g id="Corner_6_">
	<g>
		<path style="fill:#638C3F;" d="M42,45.999c-2.209,0-4,1.792-4,4.001v14l18-18.001H42z"/>
	</g>
</g>
<g id="Excel">
	<g>
		<path style="fill:#FFFFFF;" d="M31.366,25.916l6.481-9.919h-5.427l-3.437,5.942c-0.331,0.772-0.558,1.354-0.678,1.745h-0.061
			c-0.191-0.651-0.407-1.215-0.648-1.688l-3.09-5.999h-5.923L24.885,26l-6.888,10.002H23.8l3.738-6.459
			c0.261-0.622,0.427-1.088,0.497-1.395h0.061c0.15,0.651,0.296,1.097,0.437,1.339l3.723,6.515h5.773L31.366,25.916z"/>
	</g>
</g>
<g>
</g>
<g>
</g>
<g>
</g>
<g>
</g>
<g>
</g>
<g>
</g>
<g>
</g>
<g>
</g>
<g>
</g>
<g>
</g>
<g>
</g>
<g>
</g>
<g>
</g>
<g>
</g>
<g>
</g>
</svg>
