<?xml version="1.0" encoding="iso-8859-1"?>
<!-- Generator: Adobe Illustrator 16.0.0, SVG Export Plug-In . SVG Version: 6.00 Build 0)  -->
<!DOCTYPE svg PUBLIC "-//W3C//DTD SVG 1.1//EN" "http://www.w3.org/Graphics/SVG/1.1/DTD/svg11.dtd">
<svg version="1.1" id="Layer_1" xmlns="http://www.w3.org/2000/svg" xmlns:xlink="http://www.w3.org/1999/xlink" x="0px" y="0px"
	 width="56px" height="64px" viewBox="0 0 56 64" style="enable-background:new 0 0 56 64;" xml:space="preserve">
<g id="File_79_">
	<g>
		<path style="fill:#FFCC66;" d="M52,0H4C1.791,0,0,1.79,0,4v56c0,2.209,1.791,4,4,4h34l18-18V4C56,1.79,54.209,0,52,0z"/>
	</g>
</g>
<g id="Corner_42_">
	<g>
		<path style="fill:#CCA352;" d="M42,46c-2.209,0-4,1.791-4,4v14l18-18H42z"/>
	</g>
</g>
<g id="Chart">
	<g>
		<path style="fill-rule:evenodd;clip-rule:evenodd;fill:#FFFFFF;" d="M16,22.001c-1.104,0-2,0.895-2,1.999v12c0,1.104,0.896,2,2,2
			s2-0.896,2-2V24C18,22.896,17.104,22.001,16,22.001z M24,26.001c-1.104,0-2,0.895-2,2V36c0,1.104,0.896,2,2,2s2-0.896,2-2v-7.999
			C26,26.896,25.104,26.001,24,26.001z M32,18c-1.104,0-2,0.896-2,2v16c0,1.104,0.896,2,2,2s2-0.896,2-2V20
			C34,18.896,33.104,18,32,18z M40,14c-1.104,0-2,0.896-2,2v20c0,1.104,0.896,2,2,2s2-0.896,2-2V16C42,14.896,41.104,14,40,14z"/>
	</g>
</g>
<g>
</g>
<g>
</g>
<g>
</g>
<g>
</g>
<g>
</g>
<g>
</g>
<g>
</g>
<g>
</g>
<g>
</g>
<g>
</g>
<g>
</g>
<g>
</g>
<g>
</g>
<g>
</g>
<g>
</g>
</svg>
