<?xml version="1.0" encoding="iso-8859-1"?>
<!-- Generator: Adobe Illustrator 16.0.0, SVG Export Plug-In . SVG Version: 6.00 Build 0)  -->
<!DOCTYPE svg PUBLIC "-//W3C//DTD SVG 1.1//EN" "http://www.w3.org/Graphics/SVG/1.1/DTD/svg11.dtd">
<svg version="1.1" id="Layer_1" xmlns="http://www.w3.org/2000/svg" xmlns:xlink="http://www.w3.org/1999/xlink" x="0px" y="0px"
	 width="56px" height="64px" viewBox="0 0 56 64" style="enable-background:new 0 0 56 64;" xml:space="preserve">
<g id="File_82_">
	<g>
		<path style="fill:#88C057;" d="M52,0H4C1.791,0,0,1.79,0,4v55.999C0,62.209,1.791,64,4,64h34l18-18V4C56,1.79,54.209,0,52,0z"/>
	</g>
</g>
<g id="Corner_45_">
	<g>
		<path style="fill:#638C3F;" d="M42,46c-2.209,0-4,1.791-4,4v14l18-18H42z"/>
	</g>
</g>
<g id="Checked">
	<g>
		<path style="fill-rule:evenodd;clip-rule:evenodd;fill:#FFFFFF;" d="M26,32H14c-1.104,0-2,0.896-2,2s0.896,2,2,2h12
			c1.104,0,2-0.896,2-2S27.104,32,26,32z M26,18H14c-1.104,0-2,0.896-2,2s0.896,2,2,2h12c1.104,0,2-0.896,2-2S27.104,18,26,18z
			 M34.429,23.348c0.208,0.208,0.45,0.361,0.707,0.462c0.746,0.343,1.655,0.213,2.269-0.4l5.988-5.988
			c0.788-0.789,0.788-2.067,0-2.854c-0.788-0.789-2.065-0.789-2.854,0l-4.519,4.518l-0.512-0.514c-0.807-0.808-2.114-0.808-2.921,0
			c-0.807,0.809-0.807,2.118,0,2.927L34.429,23.348z M40.539,28.566l-4.519,4.518l-0.512-0.514c-0.807-0.808-2.114-0.808-2.921,0
			c-0.807,0.809-0.807,2.118,0,2.927l1.841,1.851c0.208,0.208,0.448,0.36,0.705,0.461c0.746,0.344,1.656,0.215,2.271-0.399
			l5.988-5.988c0.788-0.788,0.788-2.066,0-2.854C42.604,27.777,41.327,27.777,40.539,28.566z"/>
	</g>
</g>
<g>
</g>
<g>
</g>
<g>
</g>
<g>
</g>
<g>
</g>
<g>
</g>
<g>
</g>
<g>
</g>
<g>
</g>
<g>
</g>
<g>
</g>
<g>
</g>
<g>
</g>
<g>
</g>
<g>
</g>
</svg>
