<?xml version="1.0" encoding="iso-8859-1"?>
<!-- Generator: Adobe Illustrator 16.0.0, SVG Export Plug-In . SVG Version: 6.00 Build 0)  -->
<!DOCTYPE svg PUBLIC "-//W3C//DTD SVG 1.1//EN" "http://www.w3.org/Graphics/SVG/1.1/DTD/svg11.dtd">
<svg version="1.1" id="Layer_1" xmlns="http://www.w3.org/2000/svg" xmlns:xlink="http://www.w3.org/1999/xlink" x="0px" y="0px"
	 width="56px" height="63.999px" viewBox="0 0 56 63.999" style="enable-background:new 0 0 56 63.999;" xml:space="preserve">
<g id="File_49_">
	<g>
		<path style="fill:#48A0DC;" d="M52,0H4C1.791,0,0,1.79,0,3.999v56c0,2.209,1.791,4,4,4h34l18-18v-42C56,1.79,54.209,0,52,0z"/>
	</g>
</g>
<g id="Corner_18_">
	<g>
		<path style="fill:#387BA8;" d="M42,45.998c-2.209,0-4,1.792-4,4.001v14l18-18.001H42z"/>
	</g>
</g>
<g id="Lightroom_Logo">
	<g>
		<path style="fill-rule:evenodd;clip-rule:evenodd;fill:#FFFFFF;" d="M18.523,13.998h-4.526V38h14.72v-3.667H18.523V13.998z
			 M40.936,20.267c-1.914,0-4.011,1.246-4.895,3.704h-0.147l-0.147-3.313h-3.938c0.111,1.566,0.147,3.239,0.147,5.59V38h4.526
			v-8.974c0-0.497,0.074-0.962,0.147-1.354c0.405-1.958,1.877-3.312,4.048-3.312c0.552,0,0.957,0.071,1.325,0.142v-4.13
			C41.635,20.301,41.377,20.267,40.936,20.267z"/>
	</g>
</g>
<g>
</g>
<g>
</g>
<g>
</g>
<g>
</g>
<g>
</g>
<g>
</g>
<g>
</g>
<g>
</g>
<g>
</g>
<g>
</g>
<g>
</g>
<g>
</g>
<g>
</g>
<g>
</g>
<g>
</g>
</svg>
