<?xml version="1.0" encoding="iso-8859-1"?>
<!-- Generator: Adobe Illustrator 16.0.0, SVG Export Plug-In . SVG Version: 6.00 Build 0)  -->
<!DOCTYPE svg PUBLIC "-//W3C//DTD SVG 1.1//EN" "http://www.w3.org/Graphics/SVG/1.1/DTD/svg11.dtd">
<svg version="1.1" id="Layer_1" xmlns="http://www.w3.org/2000/svg" xmlns:xlink="http://www.w3.org/1999/xlink" x="0px" y="0px"
	 width="56px" height="64px" viewBox="0 0 56 64" style="enable-background:new 0 0 56 64;" xml:space="preserve">
<g id="File_41_">
	<g>
		<path style="fill:#88C057;" d="M52,0H4C1.791,0,0,1.791,0,4v56c0,2.21,1.791,4,4,4h34l18-18V4C56,1.791,54.209,0,52,0z"/>
	</g>
</g>
<g id="Corner_10_">
	<g>
		<path style="fill:#638C3F;" d="M42,46c-2.209,0-4,1.791-4,4v14l18-18H42z"/>
	</g>
</g>
<g id="Audition_Logo">
	<g>
		<path style="fill-rule:evenodd;clip-rule:evenodd;fill:#FFFFFF;" d="M17.808,14.005l-7.804,23.604h4.589l2.095-6.688h7.73
			l2.204,6.688h4.769l-7.911-23.604H17.808z M17.41,27.663l1.879-5.813c0.434-1.4,0.795-3.046,1.156-4.411h0.071
			c0.361,1.365,0.759,2.975,1.229,4.411l1.914,5.813H17.41z M47.852,32.319V19.991h-4.444v10.628c0,0.508-0.108,0.977-0.253,1.374
			c-0.47,1.123-1.625,2.387-3.396,2.387c-2.348,0-3.287-1.879-3.287-4.808v-9.581h-4.443v10.34c0,5.748,2.926,7.664,6.142,7.664
			c3.143,0,4.877-1.808,5.635-3.074h0.073l0.216,2.676h3.901C47.923,36.15,47.852,34.417,47.852,32.319z"/>
	</g>
</g>
<g>
</g>
<g>
</g>
<g>
</g>
<g>
</g>
<g>
</g>
<g>
</g>
<g>
</g>
<g>
</g>
<g>
</g>
<g>
</g>
<g>
</g>
<g>
</g>
<g>
</g>
<g>
</g>
<g>
</g>
</svg>
