<?xml version="1.0" encoding="iso-8859-1"?>
<!-- Generator: Adobe Illustrator 16.0.0, SVG Export Plug-In . SVG Version: 6.00 Build 0)  -->
<!DOCTYPE svg PUBLIC "-//W3C//DTD SVG 1.1//EN" "http://www.w3.org/Graphics/SVG/1.1/DTD/svg11.dtd">
<svg version="1.1" id="Layer_1" xmlns="http://www.w3.org/2000/svg" xmlns:xlink="http://www.w3.org/1999/xlink" x="0px" y="0px"
	 width="56px" height="64px" viewBox="0 0 56 64" style="enable-background:new 0 0 56 64;" xml:space="preserve">
<g id="Paper_1_">
	<g>
		<path style="fill:#ED7261;" d="M52,0H4C1.791,0,0,1.791,0,4v55.999C0,62.209,1.791,64,4,64h34l18-18V4C56,1.791,54.209,0,52,0z"/>
	</g>
</g>
<g id="Corner_39_">
	<g>
		<path style="fill:#BA594C;" d="M42,46c-2.208,0-4,1.791-4,4v14l18-18H42z"/>
	</g>
</g>
<g id="Music_1_">
	<g>
		<path style="fill-rule:evenodd;clip-rule:evenodd;fill:#FFFFFF;" d="M36.2,14.616l-14.4-2.593c-0.994-0.18-1.8,0.498-1.8,1.515
			v2.459v1.219V28.08c-0.323-0.052-0.657-0.081-1-0.081c-2.762,0-5,1.789-5,3.999c0,2.209,2.238,4,5,4
			c2.565,0,4.654-1.551,4.942-3.542c0.035-0.147,0.058-0.3,0.058-0.458V19.774l10,1.803v10.501c-0.323-0.052-0.658-0.081-1-0.081
			c-2.761,0-5,1.791-5,4s2.238,3.999,5,3.999c2.565,0,4.655-1.551,4.943-3.541c0.035-0.147,0.058-0.3,0.058-0.458v-15.54v-0.46
			V16.78C38,15.765,37.194,14.796,36.2,14.616z"/>
	</g>
</g>
<g>
</g>
<g>
</g>
<g>
</g>
<g>
</g>
<g>
</g>
<g>
</g>
<g>
</g>
<g>
</g>
<g>
</g>
<g>
</g>
<g>
</g>
<g>
</g>
<g>
</g>
<g>
</g>
<g>
</g>
</svg>
