<?xml version="1.0" encoding="iso-8859-1"?>
<!-- Generator: Adobe Illustrator 16.0.0, SVG Export Plug-In . SVG Version: 6.00 Build 0)  -->
<!DOCTYPE svg PUBLIC "-//W3C//DTD SVG 1.1//EN" "http://www.w3.org/Graphics/SVG/1.1/DTD/svg11.dtd">
<svg version="1.1" id="Layer_1" xmlns="http://www.w3.org/2000/svg" xmlns:xlink="http://www.w3.org/1999/xlink" x="0px" y="0px"
	 width="56px" height="64px" viewBox="0 0 56 64" style="enable-background:new 0 0 56 64;" xml:space="preserve">
<g id="File_81_">
	<g>
		<path style="fill:#CCCCCC;" d="M52,0H4C1.791,0,0,1.79,0,4v55.999C0,62.209,1.791,64,4,64h34l18-18V4C56,1.79,54.209,0,52,0z"/>
	</g>
</g>
<g id="Table">
	<g>
		<path style="fill-rule:evenodd;clip-rule:evenodd;fill:#FFFFFF;" d="M42,12H14c-1.104,0-2,0.896-2,2v24c0,1.104,0.896,2,2,2h28
			c1.104,0,2-0.896,2-2V14C44,12.896,43.104,12,42,12z M22,24h-6v-8h6V24z M26,16h14v8H26V16z M16,28.001h6V36h-6V28.001z
			 M26,28.001h14V36H26V28.001z"/>
	</g>
</g>
<g id="Corner_44_">
	<g>
		<path style="fill:#999999;" d="M42,46c-2.209,0-4,1.791-4,4v14l18-18H42z"/>
	</g>
</g>
<g>
</g>
<g>
</g>
<g>
</g>
<g>
</g>
<g>
</g>
<g>
</g>
<g>
</g>
<g>
</g>
<g>
</g>
<g>
</g>
<g>
</g>
<g>
</g>
<g>
</g>
<g>
</g>
<g>
</g>
</svg>
