<?xml version="1.0" encoding="iso-8859-1"?>
<!-- Generator: Adobe Illustrator 16.0.0, SVG Export Plug-In . SVG Version: 6.00 Build 0)  -->
<!DOCTYPE svg PUBLIC "-//W3C//DTD SVG 1.1//EN" "http://www.w3.org/Graphics/SVG/1.1/DTD/svg11.dtd">
<svg version="1.1" id="Layer_1" xmlns="http://www.w3.org/2000/svg" xmlns:xlink="http://www.w3.org/1999/xlink" x="0px" y="0px"
	 width="56px" height="64px" viewBox="0 0 56 64" style="enable-background:new 0 0 56 64;" xml:space="preserve">
<g id="File_43_">
	<g>
		<path style="fill:#FFCC66;" d="M52,0H4C1.791,0,0,1.791,0,4v56c0,2.21,1.791,4,4,4h34l18-18V4C56,1.791,54.209,0,52,0z"/>
	</g>
</g>
<g id="Corner_12_">
	<g>
		<path style="fill:#CCA352;" d="M42,46c-2.209,0-4,1.791-4,4v14l18-18H42z"/>
	</g>
</g>
<g id="Fireworks_Logo">
	<g>
		<path style="fill-rule:evenodd;clip-rule:evenodd;fill:#FFFFFF;" d="M14.583,17.596h9.919v-3.597H9.995v24.002h4.588V27.816h9.247
			v-3.598h-9.247V17.596z M43.983,21.974l-1.795,7.108c-0.433,1.876-0.797,3.62-1.063,5.365h-0.066
			c-0.366-1.745-0.798-3.489-1.297-5.365l-2.026-7.108h-3.323l-2.095,7.307c-0.465,1.646-0.997,3.422-1.329,5.167h-0.066
			c-0.299-1.745-0.665-3.489-1.03-5.201l-1.695-7.272H24.01l4.785,16.027h3.822l2.061-6.517c0.465-1.579,0.896-3.159,1.229-5.134
			h0.065c0.366,1.941,0.731,3.456,1.23,5.134l1.928,6.517h3.788l5.086-16.027H43.983z"/>
	</g>
</g>
<g>
</g>
<g>
</g>
<g>
</g>
<g>
</g>
<g>
</g>
<g>
</g>
<g>
</g>
<g>
</g>
<g>
</g>
<g>
</g>
<g>
</g>
<g>
</g>
<g>
</g>
<g>
</g>
<g>
</g>
</svg>
