<?xml version="1.0" encoding="iso-8859-1"?>
<!-- Generator: Adobe Illustrator 16.0.0, SVG Export Plug-In . SVG Version: 6.00 Build 0)  -->
<!DOCTYPE svg PUBLIC "-//W3C//DTD SVG 1.1//EN" "http://www.w3.org/Graphics/SVG/1.1/DTD/svg11.dtd">
<svg version="1.1" id="Layer_1" xmlns="http://www.w3.org/2000/svg" xmlns:xlink="http://www.w3.org/1999/xlink" x="0px" y="0px"
	 width="56px" height="64px" viewBox="0 0 56 64" style="enable-background:new 0 0 56 64;" xml:space="preserve">
<g id="File_80_">
	<g>
		<path style="fill:#48A0DC;" d="M52,0H4C1.791,0,0,1.79,0,4v55.999C0,62.209,1.791,64,4,64h34l18-18V4C56,1.79,54.209,0,52,0z"/>
	</g>
</g>
<g id="Corner_43_">
	<g>
		<path style="fill:#387BA8;" d="M42,46c-2.209,0-4,1.791-4,4v14l18-18H42z"/>
	</g>
</g>
<g id="Graphic">
	<g>
		<path style="fill-rule:evenodd;clip-rule:evenodd;fill:#FFFFFF;" d="M43,16.279c-0.957-0.557-2.18-0.227-2.732,0.737l-2.721,6.771
			l-1.815-2.892c-0.552-0.88-1.775-1.182-2.731-0.674c-0.404,0.214-0.688,0.542-0.849,0.911L26,27.284l-6.292-6.291
			c-0.169-0.285-0.402-0.536-0.708-0.714c-0.3-0.174-0.625-0.252-0.947-0.26c-0.533-0.035-1.077,0.143-1.483,0.55
			c-0.328,0.328-0.504,0.746-0.545,1.174L12.268,32.97c-0.552,0.963-0.225,2.195,0.732,2.751c0.956,0.557,2.18,0.227,2.732-0.737
			l3.143-9.394l5.348,5.349c0.09,0.176,0.199,0.345,0.347,0.492c0.394,0.393,0.915,0.574,1.431,0.555
			c0.516,0.02,1.037-0.162,1.431-0.555c0.147-0.147,0.258-0.316,0.347-0.493l5.922-5.923l2.568,4.09
			c0.553,0.88,1.775,1.181,2.732,0.673c0.589-0.312,0.937-0.859,0.99-1.438l3.742-9.31C44.284,18.067,43.956,16.835,43,16.279z"/>
	</g>
</g>
<g>
</g>
<g>
</g>
<g>
</g>
<g>
</g>
<g>
</g>
<g>
</g>
<g>
</g>
<g>
</g>
<g>
</g>
<g>
</g>
<g>
</g>
<g>
</g>
<g>
</g>
<g>
</g>
<g>
</g>
</svg>
