<?xml version="1.0" encoding="iso-8859-1"?>
<!-- Generator: Adobe Illustrator 16.0.0, SVG Export Plug-In . SVG Version: 6.00 Build 0)  -->
<!DOCTYPE svg PUBLIC "-//W3C//DTD SVG 1.1//EN" "http://www.w3.org/Graphics/SVG/1.1/DTD/svg11.dtd">
<svg version="1.1" id="Layer_1" xmlns="http://www.w3.org/2000/svg" xmlns:xlink="http://www.w3.org/1999/xlink" x="0px" y="0px"
	 width="63.951px" height="66.06px" viewBox="0 0 63.951 66.06" style="enable-background:new 0 0 63.951 66.06;"
	 xml:space="preserve">
<g id="File_72_">
	<g>
		<path style="fill-rule:evenodd;clip-rule:evenodd;fill:#CCCCCC;" d="M14,36c-1.105,0-2,0.896-2,2c0,1.105,0.895,2,2,2h16
			c1.104,0,2-0.895,2-2c0-1.104-0.896-2-2-2H14z M42,28H14c-1.105,0-2,0.896-2,2s0.895,2,2,2h28c1.104,0,2-0.896,2-2
			S43.104,28,42,28z M14,24h16c1.104,0,2-0.896,2-2s-0.896-2-2-2H14c-1.105,0-2,0.896-2,2S12.895,24,14,24z M42,12H14
			c-1.105,0-2,0.896-2,2s0.895,2,2,2h28c1.104,0,2-0.896,2-2S43.104,12,42,12z M52,0H4C1.791,0,0,1.791,0,4v56
			c0,2.209,1.791,3.999,4,3.999L43.397,64l-3.999-4H6c-1.104,0-2-0.896-2-2V6c0-1.104,0.896-2,2-2h44c1.104,0,2,0.896,2,2v41.313
			l1.616-1.616c0.691-0.693,1.515-1.158,2.384-1.446V4C56,1.791,54.209,0,52,0z"/>
	</g>
</g>
<g id="Ok_5_">
	<g>
		<path style="fill-rule:evenodd;clip-rule:evenodd;fill:#88C057;" d="M59.393,48.565c-0.788-0.789-2.065-0.789-2.854,0
			l-8.521,8.521l-4.509-4.516c-0.807-0.81-2.114-0.81-2.921,0c-0.807,0.808-0.807,2.117,0,2.926l5.841,5.851
			c0.207,0.208,0.448,0.36,0.705,0.461c0.746,0.344,1.656,0.215,2.271-0.399l9.988-9.988C60.181,50.632,60.181,49.353,59.393,48.565
			z"/>
	</g>
</g>
<g>
</g>
<g>
</g>
<g>
</g>
<g>
</g>
<g>
</g>
<g>
</g>
<g>
</g>
<g>
</g>
<g>
</g>
<g>
</g>
<g>
</g>
<g>
</g>
<g>
</g>
<g>
</g>
<g>
</g>
</svg>
