<?xml version="1.0" encoding="iso-8859-1"?>
<!-- Generator: Adobe Illustrator 16.0.0, SVG Export Plug-In . SVG Version: 6.00 Build 0)  -->
<!DOCTYPE svg PUBLIC "-//W3C//DTD SVG 1.1//EN" "http://www.w3.org/Graphics/SVG/1.1/DTD/svg11.dtd">
<svg version="1.1" id="Layer_1" xmlns="http://www.w3.org/2000/svg" xmlns:xlink="http://www.w3.org/1999/xlink" x="0px" y="0px"
	 width="56px" height="64px" viewBox="0 0 56 64" style="enable-background:new 0 0 56 64;" xml:space="preserve">
<g id="File_36_">
	<g>
		<path style="fill:#FFCC66;" d="M52,0H4C1.791,0,0,1.79,0,4v56c0,2.209,1.791,4,4,4h34l18-18V4C56,1.79,54.209,0,52,0z"/>
	</g>
</g>
<g id="Corner_5_">
	<g>
		<path style="fill:#CCA352;" d="M42,45.999c-2.209,0-4,1.792-4,4.001v14l18-18.001H42z"/>
	</g>
</g>
<g id="PowerPoint">
	<g>
		<path style="fill:#FFFFFF;" d="M27.713,15.997h-7.714v20.005h4.924V29.11h2.348c2.642,0,4.753-0.62,6.334-1.862
			c1.58-1.241,2.37-2.866,2.37-4.875C35.975,18.122,33.221,15.997,27.713,15.997z M26.858,25.692h-1.936v-6.235h1.936
			c2.622,0,3.934,1.027,3.934,3.083C30.792,24.642,29.48,25.692,26.858,25.692z"/>
	</g>
</g>
<g>
</g>
<g>
</g>
<g>
</g>
<g>
</g>
<g>
</g>
<g>
</g>
<g>
</g>
<g>
</g>
<g>
</g>
<g>
</g>
<g>
</g>
<g>
</g>
<g>
</g>
<g>
</g>
<g>
</g>
</svg>
