<?xml version="1.0" encoding="iso-8859-1"?>
<!-- Generator: Adobe Illustrator 16.0.0, SVG Export Plug-In . SVG Version: 6.00 Build 0)  -->
<!DOCTYPE svg PUBLIC "-//W3C//DTD SVG 1.1//EN" "http://www.w3.org/Graphics/SVG/1.1/DTD/svg11.dtd">
<svg version="1.1" id="Layer_1" xmlns="http://www.w3.org/2000/svg" xmlns:xlink="http://www.w3.org/1999/xlink" x="0px" y="0px"
	 width="56px" height="64px" viewBox="0 0 56 64" style="enable-background:new 0 0 56 64;" xml:space="preserve">
<g id="File_64_">
	<g>
		<path style="fill:#88C057;" d="M52,0H4C1.791,0,0,1.79,0,4v55.999C0,62.209,1.791,64,4,64h34l18-18V4C56,1.79,54.209,0,52,0z"/>
	</g>
</g>
<g id="Corner_34_">
	<g>
		<path style="fill:#638C3F;" d="M42,46c-2.209,0-4,1.791-4,4v14l18-18H42z"/>
	</g>
</g>
<g id="Code_1_">
	<g>
		<path style="fill-rule:evenodd;clip-rule:evenodd;fill:#FFFFFF;" d="M14.961,25.945l4.45-4.437c0.81-0.806,0.81-2.114,0-2.92
			c-0.808-0.807-2.121-0.807-2.931,0l-5.86,5.841c-0.608,0.606-0.759,1.497-0.451,2.245c0.099,0.294,0.245,0.575,0.479,0.81
			l5.846,5.865c0.808,0.811,2.115,0.811,2.923,0c0.807-0.81,0.807-2.123,0-2.933L14.961,25.945z M45.832,25.326
			c-0.099-0.295-0.244-0.576-0.477-0.81l-5.809-5.866c-0.803-0.81-2.103-0.81-2.904,0c-0.803,0.81-0.803,2.123,0,2.933l4.428,4.472
			l-4.424,4.437c-0.804,0.806-0.804,2.113,0,2.92s2.108,0.807,2.913,0l5.823-5.841C45.988,26.964,46.138,26.073,45.832,25.326z
			 M32.722,14.154c-1.017-0.397-2.166,0.097-2.567,1.103l-7.991,20.048c-0.401,1.007,0.098,2.145,1.114,2.542
			c1.018,0.396,2.167-0.098,2.568-1.104l7.991-20.047C34.238,15.689,33.739,14.551,32.722,14.154z"/>
	</g>
</g>
<g>
</g>
<g>
</g>
<g>
</g>
<g>
</g>
<g>
</g>
<g>
</g>
<g>
</g>
<g>
</g>
<g>
</g>
<g>
</g>
<g>
</g>
<g>
</g>
<g>
</g>
<g>
</g>
<g>
</g>
</svg>
