<?xml version="1.0" encoding="iso-8859-1"?>
<!-- Generator: Adobe Illustrator 16.0.0, SVG Export Plug-In . SVG Version: 6.00 Build 0)  -->
<!DOCTYPE svg PUBLIC "-//W3C//DTD SVG 1.1//EN" "http://www.w3.org/Graphics/SVG/1.1/DTD/svg11.dtd">
<svg version="1.1" id="Layer_1" xmlns="http://www.w3.org/2000/svg" xmlns:xlink="http://www.w3.org/1999/xlink" x="0px" y="0px"
	 width="56px" height="64.001px" viewBox="0 0 56 64.001" style="enable-background:new 0 0 56 64.001;" xml:space="preserve">
<g id="Paper">
	<g>
		<path style="fill:#ED7261;" d="M52,0H4C1.791,0,0,1.791,0,4v56c0,2.21,1.791,4.001,4,4.001h34l18-18V4C56,1.791,54.209,0,52,0z"/>
	</g>
</g>
<g id="Corner_28_">
	<g>
		<path style="fill:#BA594C;" d="M42,46.001c-2.209,0-4,1.79-4,4v14l18-18H42z"/>
	</g>
</g>
<g id="Remove_4_">
	<g>
		<path style="fill-rule:evenodd;clip-rule:evenodd;fill:#FFFFFF;" d="M35.43,30.728l-4.703-4.702l4.703-4.702
			c0.742-0.744,0.742-1.948,0-2.692c-0.743-0.741-1.948-0.741-2.691,0l-4.703,4.703l-4.762-4.762c-0.746-0.747-1.955-0.747-2.701,0
			c-0.746,0.745-0.746,1.954,0,2.701l4.762,4.762L20.63,30.74c-0.743,0.744-0.743,1.948,0,2.69c0.743,0.743,1.947,0.743,2.69,0
			l4.705-4.705l4.703,4.703c0.746,0.747,1.955,0.747,2.701,0C36.176,32.684,36.176,31.474,35.43,30.728z"/>
	</g>
</g>
<g>
</g>
<g>
</g>
<g>
</g>
<g>
</g>
<g>
</g>
<g>
</g>
<g>
</g>
<g>
</g>
<g>
</g>
<g>
</g>
<g>
</g>
<g>
</g>
<g>
</g>
<g>
</g>
<g>
</g>
</svg>
