<?xml version="1.0" encoding="iso-8859-1"?>
<!-- Generator: Adobe Illustrator 16.0.0, SVG Export Plug-In . SVG Version: 6.00 Build 0)  -->
<!DOCTYPE svg PUBLIC "-//W3C//DTD SVG 1.1//EN" "http://www.w3.org/Graphics/SVG/1.1/DTD/svg11.dtd">
<svg version="1.1" id="Layer_1" xmlns="http://www.w3.org/2000/svg" xmlns:xlink="http://www.w3.org/1999/xlink" x="0px" y="0px"
	 width="56px" height="64px" viewBox="0 0 56 64" style="enable-background:new 0 0 56 64;" xml:space="preserve">
<g id="File_34_">
	<g>
		<path style="fill:#9B7CAB;" d="M52,0H4C1.791,0,0,1.79,0,4v56c0,2.209,1.791,4,4,4h34l18-18V4C56,1.79,54.209,0,52,0z"/>
	</g>
</g>
<g id="Corner_3_">
	<g>
		<path style="fill:#6D5778;" d="M42,45.999c-2.209,0-4,1.792-4,4.001v14l18-18.001H42z"/>
	</g>
</g>
<g id="OneNote">
	<g>
		<path style="fill:#FFFFFF;" d="M33.288,15.997V27.06c0,1.368,0.041,2.283,0.124,2.749H33.35c-0.342-0.539-0.714-1.084-1.117-1.633
			L23.4,15.997h-5.401v20.005h4.733V25.01c0-1.451-0.041-2.53-0.124-3.236h0.063c0.207,0.371,0.579,0.925,1.117,1.659l9.174,12.569
			h5.06V15.997H33.288z"/>
	</g>
</g>
<g>
</g>
<g>
</g>
<g>
</g>
<g>
</g>
<g>
</g>
<g>
</g>
<g>
</g>
<g>
</g>
<g>
</g>
<g>
</g>
<g>
</g>
<g>
</g>
<g>
</g>
<g>
</g>
<g>
</g>
</svg>
