<?xml version="1.0" encoding="iso-8859-1"?>
<!-- Generator: Adobe Illustrator 16.0.0, SVG Export Plug-In . SVG Version: 6.00 Build 0)  -->
<!DOCTYPE svg PUBLIC "-//W3C//DTD SVG 1.1//EN" "http://www.w3.org/Graphics/SVG/1.1/DTD/svg11.dtd">
<svg version="1.1" id="Layer_1" xmlns="http://www.w3.org/2000/svg" xmlns:xlink="http://www.w3.org/1999/xlink" x="0px" y="0px"
	 width="56px" height="63.999px" viewBox="0 0 56 63.999" style="enable-background:new 0 0 56 63.999;" xml:space="preserve">
<g id="File_50_">
	<g>
		<path style="fill:#88C057;" d="M52,0H4C1.791,0,0,1.79,0,3.999v56c0,2.209,1.791,4,4,4h34l18-18v-42C56,1.79,54.209,0,52,0z"/>
	</g>
</g>
<g id="Corner_19_">
	<g>
		<path style="fill:#638C3F;" d="M42,45.998c-2.209,0-4,1.792-4,4.001v14l18-18.001H42z"/>
	</g>
</g>
<g id="Dreamweaver_Logo">
	<g>
		<path style="fill-rule:evenodd;clip-rule:evenodd;fill:#FFFFFF;" d="M14.085,14c-2.265,0-4.405,0.174-6.08,0.489v23.196
			C9.245,37.86,10.921,38,13.154,38c4.063,0,7.383-1.084,9.461-3.219c1.985-2.03,3.257-5.178,3.257-9.376
			c0-4.024-1.241-6.823-3.257-8.677C20.692,14.908,17.993,14,14.085,14z M13.93,34.571c-0.775,0-1.582,0-2.109-0.105V17.603
			c0.527-0.141,1.396-0.245,2.605-0.245c4.777,0,7.444,2.975,7.414,8.188C21.84,31.527,18.893,34.606,13.93,34.571z M45.983,21.973
			l-1.795,7.108c-0.433,1.876-0.797,3.62-1.063,5.364h-0.066c-0.366-1.744-0.798-3.488-1.297-5.364l-2.026-7.108h-3.323
			l-2.095,7.307c-0.465,1.646-0.997,3.422-1.329,5.166h-0.066c-0.299-1.744-0.665-3.488-1.03-5.2l-1.695-7.272H26.01L30.795,38
			h3.822l2.061-6.516c0.465-1.58,0.896-3.16,1.229-5.135h0.065c0.366,1.941,0.731,3.455,1.23,5.135L41.131,38h3.788l5.086-16.027
			H45.983z"/>
	</g>
</g>
<g>
</g>
<g>
</g>
<g>
</g>
<g>
</g>
<g>
</g>
<g>
</g>
<g>
</g>
<g>
</g>
<g>
</g>
<g>
</g>
<g>
</g>
<g>
</g>
<g>
</g>
<g>
</g>
<g>
</g>
</svg>
