<?xml version="1.0" encoding="iso-8859-1"?>
<!-- Generator: Adobe Illustrator 16.0.0, SVG Export Plug-In . SVG Version: 6.00 Build 0)  -->
<!DOCTYPE svg PUBLIC "-//W3C//DTD SVG 1.1//EN" "http://www.w3.org/Graphics/SVG/1.1/DTD/svg11.dtd">
<svg version="1.1" id="Layer_1" xmlns="http://www.w3.org/2000/svg" xmlns:xlink="http://www.w3.org/1999/xlink" x="0px" y="0px"
	 width="56px" height="64px" viewBox="0 0 56 64" style="enable-background:new 0 0 56 64;" xml:space="preserve">
<g id="File_65_">
	<g>
		<path style="fill:#9B7CAB;" d="M52,0H4C1.791,0,0,1.79,0,4v55.999C0,62.209,1.791,64,4,64h34l18-18V4C56,1.79,54.209,0,52,0z"/>
	</g>
</g>
<g id="Corner_35_">
	<g>
		<path style="fill:#6D5778;" d="M42,46c-2.209,0-4,1.791-4,4v14l18-18H42z"/>
	</g>
</g>
<g id="Pen_1_">
	<g>
		<path style="fill-rule:evenodd;clip-rule:evenodd;fill:#FFFFFF;" d="M20,22l-6,17.001l6.445-6.446C20.168,32.1,20,31.571,20,31
			c0-1.657,1.343-3,3-3c1.656,0,3,1.343,3,3s-1.344,3-3,3c-0.571,0-1.1-0.168-1.555-0.445L15,40l17-6l4-8l-8-7.999L20,22z M32,12
			l-2,4l8,8l4-2L32,12z"/>
	</g>
</g>
<g>
</g>
<g>
</g>
<g>
</g>
<g>
</g>
<g>
</g>
<g>
</g>
<g>
</g>
<g>
</g>
<g>
</g>
<g>
</g>
<g>
</g>
<g>
</g>
<g>
</g>
<g>
</g>
<g>
</g>
</svg>
