<?xml version="1.0" encoding="iso-8859-1"?>
<!-- Generator: Adobe Illustrator 16.0.0, SVG Export Plug-In . SVG Version: 6.00 Build 0)  -->
<!DOCTYPE svg PUBLIC "-//W3C//DTD SVG 1.1//EN" "http://www.w3.org/Graphics/SVG/1.1/DTD/svg11.dtd">
<svg version="1.1" id="Layer_1" xmlns="http://www.w3.org/2000/svg" xmlns:xlink="http://www.w3.org/1999/xlink" x="0px" y="0px"
	 width="56px" height="64.001px" viewBox="0 0 56 64.001" style="enable-background:new 0 0 56 64.001;" xml:space="preserve">
<g id="File_60_">
	<g>
		<path style="fill:#48A0DC;" d="M52,0H4C1.791,0,0,1.791,0,4v56c0,2.21,1.791,4.001,4,4.001h34l18-18V4C56,1.791,54.209,0,52,0z"/>
	</g>
</g>
<g id="Corner_30_">
	<g>
		<path style="fill:#387BA8;" d="M42,46.001c-2.209,0-4,1.79-4,4v14l18-18H42z"/>
	</g>
</g>
<g id="Arrow_2_">
	<g>
		<path style="fill-rule:evenodd;clip-rule:evenodd;fill:#FFFFFF;" d="M35.411,22.479l-5.841-5.861
			c-0.324-0.325-0.729-0.509-1.15-0.572c-0.136-0.029-0.276-0.046-0.42-0.046c-0.562,0-1.067,0.233-1.43,0.605
			c-0.017,0.016-0.038,0.024-0.054,0.041l-5.866,5.845c-0.81,0.809-0.81,2.116,0,2.923c0.811,0.807,2.123,0.807,2.934,0L26,23.004
			v10.995C26,35.105,26.896,36,28,36s2-0.895,2-2.001V22.911l2.49,2.499c0.807,0.81,2.114,0.81,2.921,0
			C36.218,24.601,36.218,23.287,35.411,22.479z"/>
	</g>
</g>
<g>
</g>
<g>
</g>
<g>
</g>
<g>
</g>
<g>
</g>
<g>
</g>
<g>
</g>
<g>
</g>
<g>
</g>
<g>
</g>
<g>
</g>
<g>
</g>
<g>
</g>
<g>
</g>
<g>
</g>
</svg>
