<?xml version="1.0" encoding="iso-8859-1"?>
<!-- Generator: Adobe Illustrator 16.0.0, SVG Export Plug-In . SVG Version: 6.00 Build 0)  -->
<!DOCTYPE svg PUBLIC "-//W3C//DTD SVG 1.1//EN" "http://www.w3.org/Graphics/SVG/1.1/DTD/svg11.dtd">
<svg version="1.1" id="Layer_1" xmlns="http://www.w3.org/2000/svg" xmlns:xlink="http://www.w3.org/1999/xlink" x="0px" y="0px"
	 width="56px" height="64px" viewBox="0 0 56 64" style="enable-background:new 0 0 56 64;" xml:space="preserve">
<g id="File_83_">
	<g>
		<path style="fill:#FFCC66;" d="M52,0H4C1.791,0,0,1.79,0,4v55.999C0,62.209,1.791,64,4,64h34l18-18V4C56,1.79,54.209,0,52,0z"/>
	</g>
</g>
<g id="Corner_46_">
	<g>
		<path style="fill:#CCA352;" d="M42,46c-2.209,0-4,1.791-4,4v14l18-18H42z"/>
	</g>
</g>
<g id="Picture_10_">
	<g>
		<path style="fill-rule:evenodd;clip-rule:evenodd;fill:#FFFFFF;" d="M42,20H30c-1.104,0-2,0.896-2,1.999
			C28,23.104,28.896,24,30,24h12c1.104,0,2-0.896,2-2.001C44,20.896,43.104,20,42,20z M30,15.999h12c1.104,0,2-0.895,2-1.999
			c0-1.105-0.896-2.001-2-2.001H30c-1.104,0-2,0.896-2,2.001C28,15.104,28.896,15.999,30,15.999z M42,28H14c-1.104,0-2,0.896-2,2
			s0.896,2,2,2h28c1.104,0,2-0.896,2-2S43.104,28,42,28z M24,35.999H14c-1.104,0-2,0.896-2,2C12,39.104,12.896,40,14,40h10
			c1.104,0,2-0.896,2-2.001C26,36.895,25.104,35.999,24,35.999z M14,24h8c1.104,0,2-0.896,2-2.001V14c0-1.105-0.896-2.001-2-2.001
			h-8c-1.104,0-2,0.896-2,2.001v7.999C12,23.104,12.896,24,14,24z"/>
	</g>
</g>
<g>
</g>
<g>
</g>
<g>
</g>
<g>
</g>
<g>
</g>
<g>
</g>
<g>
</g>
<g>
</g>
<g>
</g>
<g>
</g>
<g>
</g>
<g>
</g>
<g>
</g>
<g>
</g>
<g>
</g>
</svg>
