<?xml version="1.0" encoding="iso-8859-1"?>
<!-- Generator: Adobe Illustrator 16.0.0, SVG Export Plug-In . SVG Version: 6.00 Build 0)  -->
<!DOCTYPE svg PUBLIC "-//W3C//DTD SVG 1.1//EN" "http://www.w3.org/Graphics/SVG/1.1/DTD/svg11.dtd">
<svg version="1.1" id="Layer_1" xmlns="http://www.w3.org/2000/svg" xmlns:xlink="http://www.w3.org/1999/xlink" x="0px" y="0px"
	 width="56px" height="64px" viewBox="0 0 56 64" style="enable-background:new 0 0 56 64;" xml:space="preserve">
<g id="File_38_">
	<g>
		<path style="fill:#48A0DC;" d="M52,0H4C1.791,0,0,1.79,0,4v56c0,2.209,1.791,4,4,4h34l18-18V4C56,1.79,54.209,0,52,0z"/>
	</g>
</g>
<g id="Corner_7_">
	<g>
		<path style="fill:#387BA8;" d="M42,45.999c-2.208,0-4,1.792-4,4.001v14l18-18.001H42z"/>
	</g>
</g>
<g id="Word">
	<g>
		<path style="fill:#FFFFFF;" d="M37.467,15.997l-2.741,13.351c-0.157,0.753-0.254,1.498-0.291,2.232h-0.056
			c-0.092-0.939-0.198-1.655-0.318-2.147l-3.253-13.436h-4.79l-3.6,13.267c-0.23,0.848-0.365,1.628-0.401,2.344h-0.083
			c-0.055-0.957-0.143-1.72-0.263-2.287l-2.796-13.323h-4.887l5.219,20.005h5.164l3.378-12.835c0.157-0.585,0.277-1.334,0.36-2.245
			h0.056c0.037,0.827,0.143,1.576,0.318,2.245l3.295,12.835h4.957l5.247-20.005H37.467z"/>
	</g>
</g>
<g>
</g>
<g>
</g>
<g>
</g>
<g>
</g>
<g>
</g>
<g>
</g>
<g>
</g>
<g>
</g>
<g>
</g>
<g>
</g>
<g>
</g>
<g>
</g>
<g>
</g>
<g>
</g>
<g>
</g>
</svg>
