<?xml version="1.0" encoding="iso-8859-1"?>
<!-- Generator: Adobe Illustrator 16.0.0, SVG Export Plug-In . SVG Version: 6.00 Build 0)  -->
<!DOCTYPE svg PUBLIC "-//W3C//DTD SVG 1.1//EN" "http://www.w3.org/Graphics/SVG/1.1/DTD/svg11.dtd">
<svg version="1.1" id="Layer_1" xmlns="http://www.w3.org/2000/svg" xmlns:xlink="http://www.w3.org/1999/xlink" x="0px" y="0px"
	 width="56px" height="64.001px" viewBox="0 0 56 64.001" style="enable-background:new 0 0 56 64.001;" xml:space="preserve">
<g id="File_55_">
	<g>
		<path style="fill:#ED7261;" d="M52,0H4C1.791,0,0,1.791,0,4v56c0,2.21,1.791,4.001,4,4.001h34l18-18V4C56,1.791,54.209,0,52,0z"/>
	</g>
</g>
<g id="Corner_24_">
	<g>
		<path style="fill:#BA594C;" d="M42,46.001c-2.209,0-4,1.79-4,4v14l18-18H42z"/>
	</g>
</g>
<g id="Heart_1_">
	<g>
		<path style="fill-rule:evenodd;clip-rule:evenodd;fill:#FFFFFF;" d="M42.01,21.269c0-4.027-3.332-7.293-7.443-7.293
			c-2.845,0-5.314,1.565-6.566,3.863c-1.253-2.298-3.723-3.863-6.567-3.863c-4.11,0-7.442,3.266-7.442,7.293
			c0,2.235,1.028,4.232,2.644,5.569l-0.017,0.008c0,0,9.461,9.916,10.145,10.623s1.792,0.707,2.477,0
			c0.684-0.707,10.145-10.623,10.145-10.623l-0.018-0.008C40.981,25.5,42.01,23.503,42.01,21.269z"/>
	</g>
</g>
<g>
</g>
<g>
</g>
<g>
</g>
<g>
</g>
<g>
</g>
<g>
</g>
<g>
</g>
<g>
</g>
<g>
</g>
<g>
</g>
<g>
</g>
<g>
</g>
<g>
</g>
<g>
</g>
<g>
</g>
</svg>
