<?xml version="1.0" encoding="iso-8859-1"?>
<!-- Generator: Adobe Illustrator 16.0.0, SVG Export Plug-In . SVG Version: 6.00 Build 0)  -->
<!DOCTYPE svg PUBLIC "-//W3C//DTD SVG 1.1//EN" "http://www.w3.org/Graphics/SVG/1.1/DTD/svg11.dtd">
<svg version="1.1" id="Layer_1" xmlns="http://www.w3.org/2000/svg" xmlns:xlink="http://www.w3.org/1999/xlink" x="0px" y="0px"
	 width="56px" height="63.999px" viewBox="0 0 56 63.999" style="enable-background:new 0 0 56 63.999;" xml:space="preserve">
<g id="File_53_">
	<g>
		<path style="fill:#FFCC66;" d="M52,0H4C1.791,0,0,1.79,0,3.999v56c0,2.209,1.791,4,4,4h34l18-18v-42C56,1.79,54.209,0,52,0z"/>
	</g>
</g>
<g id="Corner_22_">
	<g>
		<path style="fill:#CCA352;" d="M42,45.998c-2.209,0-4,1.792-4,4.001v14l18-18.001H42z"/>
	</g>
</g>
<g id="Illustrator_Logo">
	<g>
		<path style="fill-rule:evenodd;clip-rule:evenodd;fill:#FFFFFF;" d="M22.026,13.991l-8.027,24.012h4.72l2.156-6.805h7.953
			l2.267,6.805h4.906l-8.14-24.012H22.026z M21.617,27.885l1.934-5.914c0.446-1.425,0.816-3.1,1.189-4.488h0.074
			c0.371,1.389,0.78,3.028,1.263,4.488l1.971,5.914H21.617z M37.243,38.003h4.504V21.059h-4.504V38.003z M39.459,18.624
			c1.562,0,2.542-1.01,2.542-2.297c-0.036-1.321-0.98-2.331-2.506-2.331c-1.489,0-2.506,1.01-2.506,2.331
			C36.989,17.614,37.97,18.624,39.459,18.624z"/>
	</g>
</g>
<g>
</g>
<g>
</g>
<g>
</g>
<g>
</g>
<g>
</g>
<g>
</g>
<g>
</g>
<g>
</g>
<g>
</g>
<g>
</g>
<g>
</g>
<g>
</g>
<g>
</g>
<g>
</g>
<g>
</g>
</svg>
