<?xml version="1.0" encoding="iso-8859-1"?>
<!-- Generator: Adobe Illustrator 16.0.0, SVG Export Plug-In . SVG Version: 6.00 Build 0)  -->
<!DOCTYPE svg PUBLIC "-//W3C//DTD SVG 1.1//EN" "http://www.w3.org/Graphics/SVG/1.1/DTD/svg11.dtd">
<svg version="1.1" id="Layer_1" xmlns="http://www.w3.org/2000/svg" xmlns:xlink="http://www.w3.org/1999/xlink" x="0px" y="0px"
	 width="56px" height="64px" viewBox="0 0 56 64" style="enable-background:new 0 0 56 64;" xml:space="preserve">
<g id="File_66_">
	<g>
		<path style="fill:#FFCC66;" d="M52,0H4C1.791,0,0,1.79,0,4v55.999C0,62.209,1.791,64,4,64h34l18-18V4C56,1.79,54.209,0,52,0z"/>
	</g>
</g>
<g id="Corner_36_">
	<g>
		<path style="fill:#CCA352;" d="M42,46c-2.209,0-4,1.791-4,4v14l18-18H42z"/>
	</g>
</g>
<g id="Path_1_">
	<g>
		<path style="fill-rule:evenodd;clip-rule:evenodd;fill:#FFFFFF;" d="M28,40.001c0.006,0,0.013-0.001,0.02-0.001H27.98
			C27.987,40,27.994,40.001,28,40.001z M37.777,16c-2.522-2.47-5.967-4-9.777-4c-2.63,0-5.082,0.739-7.184,2H16v4.815
			c-1.262,2.103-2.001,4.555-2.001,7.185c0,3.81,1.531,7.256,4.001,9.778V40h6v-0.586v-2.111V34h-4.922
			C17.168,31.879,16,29.08,16,26c0-2.188,0.595-4.233,1.619-6H22v-4.382C23.767,14.595,25.812,14,28,14c3.08,0,5.879,1.169,8,3.078
			V22h3.302h2.11H42v-6H37.777z"/>
	</g>
</g>
<g>
</g>
<g>
</g>
<g>
</g>
<g>
</g>
<g>
</g>
<g>
</g>
<g>
</g>
<g>
</g>
<g>
</g>
<g>
</g>
<g>
</g>
<g>
</g>
<g>
</g>
<g>
</g>
<g>
</g>
</svg>
