<?xml version="1.0" encoding="iso-8859-1"?>
<!-- Generator: Adobe Illustrator 16.0.0, SVG Export Plug-In . SVG Version: 6.00 Build 0)  -->
<!DOCTYPE svg PUBLIC "-//W3C//DTD SVG 1.1//EN" "http://www.w3.org/Graphics/SVG/1.1/DTD/svg11.dtd">
<svg version="1.1" id="Layer_1" xmlns="http://www.w3.org/2000/svg" xmlns:xlink="http://www.w3.org/1999/xlink" x="0px" y="0px"
	 width="56px" height="64px" viewBox="0 0 56 64" style="enable-background:new 0 0 56 64;" xml:space="preserve">
<g id="File_45_">
	<g>
		<path style="fill:#ED7261;" d="M52,0H4C1.791,0,0,1.791,0,4v56c0,2.21,1.791,4,4,4h34l18-18V4C56,1.791,54.209,0,52,0z"/>
	</g>
</g>
<g id="Corner_14_">
	<g>
		<path style="fill:#BA594C;" d="M42,46c-2.209,0-4,1.791-4,4v14l18-18H42z"/>
	</g>
</g>
<g id="Flash_Logo">
	<g>
		<path style="fill-rule:evenodd;clip-rule:evenodd;fill:#FFFFFF;" d="M17.999,38.005h4.422V27.819h8.917v-3.598h-8.917v-6.623
			h9.563v-3.597H17.999V38.005z M36.012,11.996v26.009h3.989V11.996H36.012z"/>
	</g>
</g>
<g>
</g>
<g>
</g>
<g>
</g>
<g>
</g>
<g>
</g>
<g>
</g>
<g>
</g>
<g>
</g>
<g>
</g>
<g>
</g>
<g>
</g>
<g>
</g>
<g>
</g>
<g>
</g>
<g>
</g>
</svg>
