<?xml version="1.0" encoding="iso-8859-1"?>
<!-- Generator: Adobe Illustrator 16.0.0, SVG Export Plug-In . SVG Version: 6.00 Build 0)  -->
<!DOCTYPE svg PUBLIC "-//W3C//DTD SVG 1.1//EN" "http://www.w3.org/Graphics/SVG/1.1/DTD/svg11.dtd">
<svg version="1.1" id="Layer_1" xmlns="http://www.w3.org/2000/svg" xmlns:xlink="http://www.w3.org/1999/xlink" x="0px" y="0px"
	 width="64px" height="68px" viewBox="0 0 64 68" style="enable-background:new 0 0 64 68;" xml:space="preserve">
<g id="File_74_">
	<g>
		<path style="fill-rule:evenodd;clip-rule:evenodd;fill:#CCCCCC;" d="M14,24h16c1.104,0,2-0.896,2-2s-0.896-2-2-2H14
			c-1.105,0-2,0.896-2,2S12.895,24,14,24z M14,36c-1.105,0-2,0.896-2,2c0,1.105,0.895,2,2,2h16c1.104,0,2-0.895,2-2
			c0-1.104-0.896-2-2-2H14z M42,28H14c-1.105,0-2,0.896-2,2s0.895,2,2,2h28c1.104,0,2-0.896,2-2S43.104,28,42,28z M52,0H4
			C1.791,0,0,1.791,0,4v56c0,2.209,1.791,3.999,4,3.999h32V60H6c-1.104,0-2-0.896-2-2V6c0-1.104,0.896-2,2-2h44c1.104,0,2,0.896,2,2
			v28.18c1.437,0.242,2.785,0.735,4,1.438V4C56,1.791,54.209,0,52,0z M42,12H14c-1.105,0-2,0.896-2,2s0.895,2,2,2h28
			c1.104,0,2-0.896,2-2S43.104,12,42,12z"/>
	</g>
</g>
<g id="Lock_3_">
	<g>
		<path style="fill-rule:evenodd;clip-rule:evenodd;fill:#88C057;" d="M58,51.999V46c0-4.42-3.582-8.001-8-8.001
			c-4.419,0-8,3.581-8,8.001v1.999h4V46c0-2.21,1.791-4.001,4-4.001S54,43.79,54,46v5.999h-8h-4c-1.104,0-2,0.895-2,2.001v7.998
			c0,1.105,0.896,2.001,2,2.001h16c1.104,0,2-0.896,2-2.001V54C60,52.894,59.104,51.999,58,51.999z M50,59.999c-1.104,0-2-0.896-2-2
			C48,56.895,48.896,56,50,56s2,0.895,2,1.999C52,59.103,51.104,59.999,50,59.999z"/>
	</g>
</g>
<g>
</g>
<g>
</g>
<g>
</g>
<g>
</g>
<g>
</g>
<g>
</g>
<g>
</g>
<g>
</g>
<g>
</g>
<g>
</g>
<g>
</g>
<g>
</g>
<g>
</g>
<g>
</g>
<g>
</g>
</svg>
