<?xml version="1.0" encoding="iso-8859-1"?>
<!-- Generator: Adobe Illustrator 16.0.0, SVG Export Plug-In . SVG Version: 6.00 Build 0)  -->
<!DOCTYPE svg PUBLIC "-//W3C//DTD SVG 1.1//EN" "http://www.w3.org/Graphics/SVG/1.1/DTD/svg11.dtd">
<svg version="1.1" id="Layer_1" xmlns="http://www.w3.org/2000/svg" xmlns:xlink="http://www.w3.org/1999/xlink" x="0px" y="0px"
	 width="62.017px" height="67.997px" viewBox="0 0 62.017 67.997" style="enable-background:new 0 0 62.017 67.997;"
	 xml:space="preserve">
<g id="File_71_">
	<g>
		<path style="fill-rule:evenodd;clip-rule:evenodd;fill:#CCCCCC;" d="M14,36c-1.105,0-2,0.896-2,2c0,1.105,0.895,2,2,2h16
			c1.104,0,2-0.895,2-2c0-1.104-0.896-2-2-2H14z M42,28H14c-1.105,0-2,0.896-2,2s0.895,2,2,2h28c1.104,0,2-0.896,2-2
			S43.104,28,42,28z M14,24h16c1.104,0,2-0.896,2-2s-0.896-2-2-2H14c-1.105,0-2,0.896-2,2S12.895,24,14,24z M52,0H4
			C1.791,0,0,1.791,0,4v56c0,2.209,1.791,3.999,4,3.999h34l0.196-0.197c-0.399-1.238-0.394-2.568,0.024-3.802H6
			c-1.104,0-2-0.896-2-2V6c0-1.104,0.896-2,2-2h44c1.104,0,2,0.896,2,2v39.383c1.154-0.98,2.573-1.477,4-1.453V4
			C56,1.791,54.209,0,52,0z M42,12H14c-1.105,0-2,0.896-2,2s0.895,2,2,2h28c1.104,0,2-0.896,2-2S43.104,12,42,12z"/>
	</g>
</g>
<g id="Remove_5_">
	<g>
		<path style="fill-rule:evenodd;clip-rule:evenodd;fill:#ED7161;" d="M57.43,60.727l-4.703-4.702l4.703-4.703
			c0.743-0.743,0.743-1.947,0-2.69c-0.743-0.742-1.948-0.742-2.691,0l-4.703,4.703l-4.762-4.761c-0.746-0.748-1.955-0.748-2.701,0
			c-0.746,0.744-0.746,1.953,0,2.7l4.763,4.762l-4.705,4.705c-0.743,0.743-0.743,1.948,0,2.69c0.743,0.743,1.947,0.743,2.69,0
			l4.705-4.705l4.703,4.703c0.746,0.747,1.955,0.747,2.701,0C58.176,62.683,58.176,61.473,57.43,60.727z"/>
	</g>
</g>
<g>
</g>
<g>
</g>
<g>
</g>
<g>
</g>
<g>
</g>
<g>
</g>
<g>
</g>
<g>
</g>
<g>
</g>
<g>
</g>
<g>
</g>
<g>
</g>
<g>
</g>
<g>
</g>
<g>
</g>
</svg>
