<?xml version="1.0" encoding="iso-8859-1"?>
<!-- Generator: Adobe Illustrator 16.0.0, SVG Export Plug-In . SVG Version: 6.00 Build 0)  -->
<!DOCTYPE svg PUBLIC "-//W3C//DTD SVG 1.1//EN" "http://www.w3.org/Graphics/SVG/1.1/DTD/svg11.dtd">
<svg version="1.1" id="Layer_1" xmlns="http://www.w3.org/2000/svg" xmlns:xlink="http://www.w3.org/1999/xlink" x="0px" y="0px"
	 width="56px" height="63.999px" viewBox="0 0 56 63.999" style="enable-background:new 0 0 56 63.999;" xml:space="preserve">
<g id="File_47_">
	<g>
		<path style="fill:#FFCC66;" d="M52,0H4C1.791,0,0,1.79,0,3.999v56c0,2.209,1.791,4,4,4h34l18-18v-42C56,1.79,54.209,0,52,0z"/>
	</g>
</g>
<g id="Corner_16_">
	<g>
		<path style="fill:#CCA352;" d="M42,45.998c-2.209,0-4,1.792-4,4.001v14l18-18.001H42z"/>
	</g>
</g>
<g id="Bridge_Logo">
	<g>
		<path style="fill-rule:evenodd;clip-rule:evenodd;fill:#FFFFFF;" d="M25.729,25.09v-0.07c2.595-0.945,3.98-2.939,3.98-5.109
			c0-1.993-0.995-3.534-2.488-4.407c-1.634-1.12-3.625-1.505-6.859-1.505c-2.453,0-4.977,0.21-6.363,0.489v23.199
			c1.103,0.14,2.95,0.313,5.367,0.313c4.373,0,7.181-0.734,8.887-2.203c1.386-1.119,2.311-2.765,2.311-4.864
			C30.563,27.679,28.253,25.72,25.729,25.09z M18.336,17.356c0.463-0.105,1.209-0.175,2.488-0.175c2.772,0,4.479,1.015,4.479,3.219
			c0,1.995-1.706,3.396-4.728,3.396h-2.239V17.356z M20.646,34.747c-0.995,0-1.741,0-2.311-0.104v-7.699h2.168
			c3.021,0,5.438,1.12,5.438,3.85C25.942,33.698,23.455,34.747,20.646,34.747z M42.97,20.33c-1.85,0-3.875,1.226-4.728,3.641H38.1
			l-0.143-3.255h-3.804c0.106,1.539,0.144,3.185,0.144,5.493v11.547h4.371v-8.817c0-0.49,0.072-0.944,0.143-1.329
			c0.391-1.926,1.813-3.255,3.909-3.255c0.534,0,0.925,0.069,1.28,0.14v-4.058C43.645,20.366,43.396,20.33,42.97,20.33z"/>
	</g>
</g>
<g>
</g>
<g>
</g>
<g>
</g>
<g>
</g>
<g>
</g>
<g>
</g>
<g>
</g>
<g>
</g>
<g>
</g>
<g>
</g>
<g>
</g>
<g>
</g>
<g>
</g>
<g>
</g>
<g>
</g>
</svg>
