<?xml version="1.0" encoding="iso-8859-1"?>
<!-- Generator: Adobe Illustrator 16.0.0, SVG Export Plug-In . SVG Version: 6.00 Build 0)  -->
<!DOCTYPE svg PUBLIC "-//W3C//DTD SVG 1.1//EN" "http://www.w3.org/Graphics/SVG/1.1/DTD/svg11.dtd">
<svg version="1.1" id="Layer_1" xmlns="http://www.w3.org/2000/svg" xmlns:xlink="http://www.w3.org/1999/xlink" x="0px" y="0px"
	 width="56px" height="64px" viewBox="0 0 56 64" style="enable-background:new 0 0 56 64;" xml:space="preserve">
<g id="File_35_">
	<g>
		<path style="fill:#48A0DC;" d="M52,0H4C1.791,0,0,1.79,0,4v56c0,2.209,1.791,4,4,4h34l18-18V4C56,1.79,54.209,0,52,0z"/>
	</g>
</g>
<g id="Corner_4_">
	<g>
		<path style="fill:#387BA8;" d="M42,45.999c-2.209,0-4,1.792-4,4.001v14l18-18.001H42z"/>
	</g>
</g>
<g id="Outlook">
	<g>
		<path style="fill:#FFFFFF;" d="M35.312,16.999c-1.8-1.986-4.158-2.979-7.074-2.979c-3.087,0-5.566,1.037-7.438,3.111
			s-2.807,4.791-2.807,8.148c0,3.182,0.921,5.762,2.765,7.743c1.842,1.98,4.227,2.97,7.152,2.97c3.001,0,5.436-1.021,7.302-3.066
			s2.8-4.736,2.8-8.076C38.012,21.602,37.111,18.984,35.312,16.999z M31.771,30.075c-0.931,1.189-2.189,1.785-3.775,1.785
			c-1.538,0-2.783-0.612-3.733-1.838c-0.949-1.225-1.424-2.89-1.424-4.993c0-2.074,0.475-3.741,1.424-5
			c0.95-1.26,2.232-1.89,3.848-1.89c1.566,0,2.802,0.612,3.704,1.837c0.902,1.226,1.354,2.939,1.354,5.142
			C33.167,27.232,32.701,28.885,31.771,30.075z"/>
	</g>
</g>
<g>
</g>
<g>
</g>
<g>
</g>
<g>
</g>
<g>
</g>
<g>
</g>
<g>
</g>
<g>
</g>
<g>
</g>
<g>
</g>
<g>
</g>
<g>
</g>
<g>
</g>
<g>
</g>
<g>
</g>
</svg>
