<?xml version="1.0" encoding="iso-8859-1"?>
<!-- Generator: Adobe Illustrator 16.0.0, SVG Export Plug-In . SVG Version: 6.00 Build 0)  -->
<!DOCTYPE svg PUBLIC "-//W3C//DTD SVG 1.1//EN" "http://www.w3.org/Graphics/SVG/1.1/DTD/svg11.dtd">
<svg version="1.1" id="Layer_1" xmlns="http://www.w3.org/2000/svg" xmlns:xlink="http://www.w3.org/1999/xlink" x="0px" y="0px"
	 width="56px" height="64.001px" viewBox="0 0 56 64.001" style="enable-background:new 0 0 56 64.001;" xml:space="preserve">
<g id="File_61_">
	<g>
		<path style="fill:#48A0DC;" d="M52,0H4C1.791,0,0,1.791,0,4v56c0,2.21,1.791,4.001,4,4.001h34l18-18V4C56,1.791,54.209,0,52,0z"/>
	</g>
</g>
<g id="Corner_31_">
	<g>
		<path style="fill:#387BA8;" d="M42,46.001c-2.208,0-4,1.79-4,4v14l18-18H42z"/>
	</g>
</g>
<g id="Arrow_3_">
	<g>
		<path style="fill-rule:evenodd;clip-rule:evenodd;fill:#FFFFFF;" d="M35.35,26.584c-0.81-0.807-2.123-0.807-2.933,0L30,28.993
			V17.999c0-1.105-0.896-2.001-2-2.001c-1.105,0-2,0.896-2,2.001v11.09l-2.491-2.499c-0.806-0.81-2.114-0.81-2.92,0
			c-0.807,0.808-0.807,2.121,0,2.931l5.841,5.859c0.324,0.326,0.73,0.51,1.151,0.573c0.135,0.029,0.275,0.046,0.419,0.046
			c0.562,0,1.068-0.233,1.432-0.606c0.016-0.016,0.036-0.024,0.052-0.04l5.866-5.846C36.16,28.699,36.16,27.392,35.35,26.584z"/>
	</g>
</g>
<g>
</g>
<g>
</g>
<g>
</g>
<g>
</g>
<g>
</g>
<g>
</g>
<g>
</g>
<g>
</g>
<g>
</g>
<g>
</g>
<g>
</g>
<g>
</g>
<g>
</g>
<g>
</g>
<g>
</g>
</svg>
