<?xml version="1.0" encoding="iso-8859-1"?>
<!-- Generator: Adobe Illustrator 16.0.0, SVG Export Plug-In . SVG Version: 6.00 Build 0)  -->
<!DOCTYPE svg PUBLIC "-//W3C//DTD SVG 1.1//EN" "http://www.w3.org/Graphics/SVG/1.1/DTD/svg11.dtd">
<svg version="1.1" id="Layer_1" xmlns="http://www.w3.org/2000/svg" xmlns:xlink="http://www.w3.org/1999/xlink" x="0px" y="0px"
	 width="56px" height="64.001px" viewBox="0 0 56 64.001" style="enable-background:new 0 0 56 64.001;" xml:space="preserve">
<g id="File_58_">
	<g>
		<path style="fill:#88C057;" d="M52,0H4C1.791,0,0,1.791,0,4v56c0,2.21,1.791,4.001,4,4.001h34l18-18V4C56,1.791,54.209,0,52,0z"/>
	</g>
</g>
<g id="Corner_27_">
	<g>
		<path style="fill:#638C3F;" d="M42,46.001c-2.209,0-4,1.79-4,4v14l18-18H42z"/>
	</g>
</g>
<g id="Refresh_4_">
	<g>
		<path style="fill-rule:evenodd;clip-rule:evenodd;fill:#FFFFFF;" d="M16,24.001h8c1.104,0,2-0.896,2-2.001c0-1.104-0.896-2-2-2
			h-3.989c1.823-2.427,4.72-4,7.989-4c4.838,0,8.873,3.436,9.799,8.001h4.042C40.868,17.218,35.051,12,28,12
			c-3.924,0-7.462,1.62-10,4.222v-2.221C18,12.896,17.104,12,16,12s-2,0.896-2,2.001V22C14,23.104,14.896,24.001,16,24.001z M40,28
			h-8c-1.104,0-2,0.896-2,2c0,1.104,0.896,2.001,2,2.001h3.988C34.165,34.427,31.269,36,28,36c-4.839,0-8.873-3.436-9.799-8
			l-4.042,0C15.131,34.781,20.948,40.001,28,40.001c3.924,0,7.462-1.621,10-4.224V38c0,1.105,0.896,2.001,2,2.001s2-0.896,2-2.001
			v-8C42,28.896,41.104,28,40,28z"/>
	</g>
</g>
<g>
</g>
<g>
</g>
<g>
</g>
<g>
</g>
<g>
</g>
<g>
</g>
<g>
</g>
<g>
</g>
<g>
</g>
<g>
</g>
<g>
</g>
<g>
</g>
<g>
</g>
<g>
</g>
<g>
</g>
</svg>
