<?xml version="1.0" encoding="iso-8859-1"?>
<!-- Generator: Adobe Illustrator 16.0.0, SVG Export Plug-In . SVG Version: 6.00 Build 0)  -->
<!DOCTYPE svg PUBLIC "-//W3C//DTD SVG 1.1//EN" "http://www.w3.org/Graphics/SVG/1.1/DTD/svg11.dtd">
<svg version="1.1" id="Layer_1" xmlns="http://www.w3.org/2000/svg" xmlns:xlink="http://www.w3.org/1999/xlink" x="0px" y="0px"
	 width="56px" height="64px" viewBox="0 0 56 64" style="enable-background:new 0 0 56 64;" xml:space="preserve">
<g id="File_84_">
	<g>
		<path style="fill-rule:evenodd;clip-rule:evenodd;fill:#CCCCCC;" d="M52,0H4C1.791,0,0,1.791,0,4v56c0,2.209,1.791,4,4,4h34l18-18
			V4C56,1.791,54.209,0,52,0z M52,44L36,60H6c-1.104,0-2-0.896-2-2V6c0-1.104,0.896-2,2-2h44c1.104,0,2,0.896,2,2V44z M30,36H14
			c-1.105,0-2,0.895-2,2c0,1.104,0.895,2,2,2h16c1.104,0,2-0.896,2-2C32,36.895,31.104,36,30,36z M42,28.001H14
			c-1.105,0-2,0.895-2,1.999s0.895,2,2,2h28c1.105,0,2-0.896,2-2S43.104,28.001,42,28.001z M42,12H14c-1.105,0-2,0.896-2,2
			s0.895,2,2,2h28c1.105,0,2-0.896,2-2S43.104,12,42,12z M14,24h16c1.104,0,2-0.896,2-2s-0.896-2-2-2H14c-1.105,0-2,0.896-2,2
			S12.895,24,14,24z"/>
	</g>
</g>
<g id="Corner_47_">
	<g>
		<path style="fill:#999999;" d="M42,46c-2.208,0-4,1.791-4,4v14l18-18H42z"/>
	</g>
</g>
<g>
</g>
<g>
</g>
<g>
</g>
<g>
</g>
<g>
</g>
<g>
</g>
<g>
</g>
<g>
</g>
<g>
</g>
<g>
</g>
<g>
</g>
<g>
</g>
<g>
</g>
<g>
</g>
<g>
</g>
</svg>
