<?xml version="1.0" encoding="iso-8859-1"?>
<!-- Generator: Adobe Illustrator 16.0.0, SVG Export Plug-In . SVG Version: 6.00 Build 0)  -->
<!DOCTYPE svg PUBLIC "-//W3C//DTD SVG 1.1//EN" "http://www.w3.org/Graphics/SVG/1.1/DTD/svg11.dtd">
<svg version="1.1" id="Layer_1" xmlns="http://www.w3.org/2000/svg" xmlns:xlink="http://www.w3.org/1999/xlink" x="0px" y="0px"
	 width="56px" height="64.001px" viewBox="0 0 56 64.001" style="enable-background:new 0 0 56 64.001;" xml:space="preserve">
<g id="File_59_">
	<g>
		<path style="fill:#88C057;" d="M52,0H4C1.791,0,0,1.791,0,4v56c0,2.21,1.791,4.001,4,4.001h34l18-18V4C56,1.791,54.209,0,52,0z"/>
	</g>
</g>
<g id="Corner_29_">
	<g>
		<path style="fill:#638C3F;" d="M42,46.001c-2.209,0-4,1.79-4,4v14l18-18H42z"/>
	</g>
</g>
<g id="Ok_4_">
	<g>
		<path style="fill-rule:evenodd;clip-rule:evenodd;fill:#FFFFFF;" d="M37.393,20.566c-0.788-0.789-2.065-0.789-2.854,0
			l-8.521,8.521l-4.509-4.517c-0.807-0.809-2.114-0.809-2.921,0s-0.807,2.118,0,2.927l5.841,5.851
			c0.208,0.209,0.451,0.362,0.709,0.462c0.745,0.342,1.653,0.212,2.266-0.402l9.988-9.987
			C38.181,22.633,38.181,21.354,37.393,20.566z"/>
	</g>
</g>
<g>
</g>
<g>
</g>
<g>
</g>
<g>
</g>
<g>
</g>
<g>
</g>
<g>
</g>
<g>
</g>
<g>
</g>
<g>
</g>
<g>
</g>
<g>
</g>
<g>
</g>
<g>
</g>
<g>
</g>
</svg>
