<?xml version="1.0" encoding="iso-8859-1"?>
<!-- Generator: Adobe Illustrator 16.0.0, SVG Export Plug-In . SVG Version: 6.00 Build 0)  -->
<!DOCTYPE svg PUBLIC "-//W3C//DTD SVG 1.1//EN" "http://www.w3.org/Graphics/SVG/1.1/DTD/svg11.dtd">
<svg version="1.1" id="Layer_1" xmlns="http://www.w3.org/2000/svg" xmlns:xlink="http://www.w3.org/1999/xlink" x="0px" y="0px"
	 width="56px" height="64.001px" viewBox="0 0 56 64.001" style="enable-background:new 0 0 56 64.001;" xml:space="preserve">
<g id="File_57_">
	<g>
		<path style="fill:#48A0DC;" d="M52,0H4C1.791,0,0,1.791,0,4v56c0,2.21,1.791,4.001,4,4.001h34l18-18V4C56,1.791,54.209,0,52,0z"/>
	</g>
</g>
<g id="Corner_26_">
	<g>
		<path style="fill:#387BA8;" d="M42,46.001c-2.209,0-4,1.79-4,4v14l18-18H42z"/>
	</g>
</g>
<g id="Wheel_1_">
	<g>
		<path style="fill:#FFFFFF;" d="M40.25,23.375l-1.301-0.426c-0.25-0.894-0.6-1.744-1.048-2.537l0.616-1.218
			c0.684-0.684,0.684-1.791,0-2.476l-1.237-1.237c-0.684-0.683-1.791-0.683-2.475,0L33.589,16.1
			c-0.791-0.448-1.643-0.799-2.537-1.049l-0.427-1.301c0-0.966-0.783-1.75-1.75-1.75h-1.75c-0.967,0-1.75,0.784-1.75,1.75
			l-0.425,1.301c-0.892,0.247-1.739,0.597-2.529,1.042l-1.228-0.611c-0.684-0.683-1.791-0.683-2.475,0l-1.237,1.237
			c-0.683,0.685-0.683,1.792,0,2.476l0.611,1.228c-0.443,0.785-0.791,1.629-1.039,2.517l-1.304,0.437c-0.967,0-1.75,0.784-1.75,1.75
			v1.75c0,0.968,0.783,1.75,1.75,1.75l1.305,0.438c0.247,0.887,0.595,1.731,1.038,2.516l-0.611,1.229
			c-0.683,0.684-0.683,1.791,0,2.475l1.237,1.237c0.684,0.684,1.791,0.684,2.475,0l1.229-0.609c0.785,0.442,1.629,0.789,2.516,1.037
			l0.438,1.305c0,0.966,0.783,1.75,1.75,1.75h1.75c0.967,0,1.75-0.784,1.75-1.75l0.438-1.305c0.891-0.248,1.736-0.599,2.524-1.044
			l1.219,0.616c0.684,0.684,1.791,0.684,2.475,0l1.237-1.237c0.684-0.684,0.684-1.791,0-2.475L37.9,31.59
			c0.447-0.792,0.799-1.642,1.048-2.537l1.302-0.428c0.967,0,1.75-0.782,1.75-1.75v-1.75C42,24.159,41.217,23.375,40.25,23.375z
			 M28,32.001c-3.313,0-6-2.687-6-6C22,22.687,24.687,20,28,20s6,2.687,6,6.001C34,29.314,31.313,32.001,28,32.001z"/>
	</g>
</g>
<g>
</g>
<g>
</g>
<g>
</g>
<g>
</g>
<g>
</g>
<g>
</g>
<g>
</g>
<g>
</g>
<g>
</g>
<g>
</g>
<g>
</g>
<g>
</g>
<g>
</g>
<g>
</g>
<g>
</g>
</svg>
