<?xml version="1.0" encoding="iso-8859-1"?>
<!-- Generator: Adobe Illustrator 16.0.0, SVG Export Plug-In . SVG Version: 6.00 Build 0)  -->
<!DOCTYPE svg PUBLIC "-//W3C//DTD SVG 1.1//EN" "http://www.w3.org/Graphics/SVG/1.1/DTD/svg11.dtd">
<svg version="1.1" id="Layer_1" xmlns="http://www.w3.org/2000/svg" xmlns:xlink="http://www.w3.org/1999/xlink" x="0px" y="0px"
	 width="56px" height="63.999px" viewBox="0 0 56 63.999" style="enable-background:new 0 0 56 63.999;" xml:space="preserve">
<g id="File_52_">
	<g>
		<path style="fill:#ED7261;" d="M52,0H4C1.791,0,0,1.79,0,3.999v56c0,2.209,1.791,4,4,4h34l18-18v-42C56,1.79,54.209,0,52,0z"/>
	</g>
</g>
<g id="Corner_21_">
	<g>
		<path style="fill:#BA594C;" d="M42,45.998c-2.209,0-4,1.792-4,4.001v14l18-18.001H42z"/>
	</g>
</g>
<g id="InDesign_Logo">
	<g>
		<path style="fill-rule:evenodd;clip-rule:evenodd;fill:#FFFFFF;" d="M15.996,37.99l3.696,0.009V13.856l-3.696,0.023V37.99z M40,12
			h-4.5v9.616c-0.803-1.131-2.296-1.975-4.322-1.975c-3.883,0-7.268,3.499-7.233,9.38c0,5.412,3.053,8.983,6.901,8.983
			c1.845,0,3.526-0.683,4.654-1.898v1.892H40c-0.066-1.19,0-2.784,0-4.588V12z M35.5,31.882c-0.398,1.912-1.701,2.552-3.36,2.552
			c-2.588,0-4.049-2.345-4.049-5.557c0-3.283,1.461-5.807,4.082-5.807c1.858,0,2.961,0.963,3.327,2.693c0.065,0.361,0,1.169,0,1.529
			v3.06C35.5,30.821,35.6,31.484,35.5,31.882z"/>
	</g>
</g>
<g>
</g>
<g>
</g>
<g>
</g>
<g>
</g>
<g>
</g>
<g>
</g>
<g>
</g>
<g>
</g>
<g>
</g>
<g>
</g>
<g>
</g>
<g>
</g>
<g>
</g>
<g>
</g>
<g>
</g>
</svg>
