<?xml version="1.0" encoding="iso-8859-1"?>
<!-- Generator: Adobe Illustrator 16.0.0, SVG Export Plug-In . SVG Version: 6.00 Build 0)  -->
<!DOCTYPE svg PUBLIC "-//W3C//DTD SVG 1.1//EN" "http://www.w3.org/Graphics/SVG/1.1/DTD/svg11.dtd">
<svg version="1.1" id="Layer_1" xmlns="http://www.w3.org/2000/svg" xmlns:xlink="http://www.w3.org/1999/xlink" x="0px" y="0px"
	 width="56px" height="64px" viewBox="0 0 56 64" style="enable-background:new 0 0 56 64;" xml:space="preserve">
<g id="File_39_">
	<g>
		<path style="fill:#ED7261;" d="M52,0H4C1.791,0,0,1.791,0,4v56c0,2.21,1.791,4,4,4h34l18-18V4C56,1.791,54.209,0,52,0z"/>
	</g>
</g>
<g id="Corner_8_">
	<g>
		<path style="fill:#BA594C;" d="M42,46c-2.209,0-4,1.791-4,4v14l18-18H42z"/>
	</g>
</g>
<g id="Acrobat">
	<g>
		<path style="fill:#FFFFFF;" d="M46.59,31.667c-0.821-0.414-1.968-0.615-3.504-0.615c-2.165,0-4.426,0.159-6.732,0.474
			c-3.094-3.059-6.274-7.364-8.624-11.681c1.189-4.088,1.796-9.014,0.018-10.955c-0.535-0.584-1.255-0.893-2.081-0.893
			c-1.416,0-2.182,0.615-2.574,1.132c-1.779,2.34,0.553,7.698,2.231,10.894c-0.231,0.739-0.49,1.477-0.771,2.196
			c-1.186,3.039-3.629,9.303-6.359,14.692C13.426,39.12,8.032,42.407,8.032,44.65c0,3.111,2.429,3.354,3.173,3.354
			c1.745,0,4.315-1.111,8.764-9.709c4.931-2.208,10.405-3.858,15.526-4.681c2.984,2.749,5.647,4.144,7.923,4.144
			c1.796,0,4.55-2.205,4.55-4.11C47.968,32.82,47.479,32.116,46.59,31.667z M11.205,46.072c-0.268,0-0.895,0-0.895-1.416
			c0.058-0.571,2.018-2.44,6.242-4.694C13.227,45.743,11.542,46.072,11.205,46.072z M25.007,10.175
			c0.091-0.119,0.225-0.247,0.659-0.247c0.065,0,0.147,0,0.281,0.146c0.683,0.747,0.898,3.189,0.229,6.617
			C24.647,13.175,24.433,10.931,25.007,10.175z M33.741,31.947c-4.094,0.757-8.351,1.995-12.362,3.595l0.056-0.108l-0.063,0.028
			c2.316-4.873,4.308-9.979,5.345-12.638c0.015-0.037,0.029-0.075,0.044-0.113l0.067,0.125l0.03-0.1
			c2.026,3.354,4.467,6.596,6.909,9.171l-0.059,0.008L33.741,31.947z M43.412,35.826c-1.338-0.003-3.136-0.907-5.164-2.58
			c1.654-0.175,3.273-0.264,4.838-0.264c1.538,0,2.584,0.259,2.603,0.645C45.729,34.459,44.019,35.78,43.412,35.826z"/>
	</g>
</g>
<g>
</g>
<g>
</g>
<g>
</g>
<g>
</g>
<g>
</g>
<g>
</g>
<g>
</g>
<g>
</g>
<g>
</g>
<g>
</g>
<g>
</g>
<g>
</g>
<g>
</g>
<g>
</g>
<g>
</g>
</svg>
