<?xml version="1.0" encoding="iso-8859-1"?>
<!-- Generator: Adobe Illustrator 16.0.0, SVG Export Plug-In . SVG Version: 6.00 Build 0)  -->
<!DOCTYPE svg PUBLIC "-//W3C//DTD SVG 1.1//EN" "http://www.w3.org/Graphics/SVG/1.1/DTD/svg11.dtd">
<svg version="1.1" id="Layer_1" xmlns="http://www.w3.org/2000/svg" xmlns:xlink="http://www.w3.org/1999/xlink" x="0px" y="0px"
	 width="56px" height="64px" viewBox="0 0 56 64" style="enable-background:new 0 0 56 64;" xml:space="preserve">
<g id="File_78_">
	<g>
		<path style="fill:#ED7261;" d="M52,0H4C1.791,0,0,1.79,0,4v56c0,2.209,1.791,4,4,4h34l18-18V4C56,1.79,54.209,0,52,0z"/>
	</g>
</g>
<g id="Corner_41_">
	<g>
		<path style="fill:#BA594C;" d="M42,46c-2.209,0-4,1.791-4,4v14l18-18H42z"/>
	</g>
</g>
<g id="Attachment_1_">
	<g>
		<path style="fill-rule:evenodd;clip-rule:evenodd;fill:#FFFFFF;" d="M39.661,14.335c-3.118-3.119-8.179-3.116-11.301,0.006
			c-0.004,0.004-0.007,0.008-0.011,0.012l-0.001,0L16.342,26.35l0.006,0.006c-0.002,0.001-0.004,0.002-0.005,0.004
			c-3.122,3.123-3.126,8.184-0.007,11.302c2.584,2.584,6.498,3.019,9.541,1.318c-1.674-0.083-3.322-0.755-4.6-2.033
			c-0.43-0.43-0.783-0.904-1.078-1.404c-0.366-0.186-0.717-0.414-1.023-0.721c-1.558-1.557-1.558-4.081-0.003-5.642l-0.006-0.005
			l2.028-2.029c0.029-0.031,0.054-0.065,0.084-0.096c0.022-0.022,0.049-0.037,0.07-0.059l2.7-2.701l2.24-2.241l4.877-4.878
			l0.019,0.019c0.056-0.063,0.098-0.134,0.158-0.194c1.516-1.516,4.006-1.482,5.563,0.073c1.557,1.558,1.589,4.047,0.073,5.563
			c-0.061,0.061-0.131,0.103-0.194,0.158l0.034,0.034l-9.883,9.883c-0.39,0.39-1.022,0.39-1.413,0c-0.39-0.39-0.39-1.022,0-1.412
			l7.097-7.083c0.747-0.778,0.734-2.019-0.04-2.795c-0.78-0.779-2.036-0.789-2.813-0.024l-0.002-0.002l-7.067,7.078l0.021,0.02
			c-0.084,0.073-0.177,0.128-0.256,0.208c-1.895,1.894-1.854,5.007,0.092,6.953c1.945,1.944,5.059,1.985,6.953,0.093
			c0.079-0.079,0.139-0.17,0.211-0.253l0.043,0.043l9.889-9.888l-0.002-0.002c0.002-0.002,0.004-0.003,0.006-0.005
			C42.777,22.514,42.78,17.454,39.661,14.335z"/>
	</g>
</g>
<g>
</g>
<g>
</g>
<g>
</g>
<g>
</g>
<g>
</g>
<g>
</g>
<g>
</g>
<g>
</g>
<g>
</g>
<g>
</g>
<g>
</g>
<g>
</g>
<g>
</g>
<g>
</g>
<g>
</g>
</svg>
