<?xml version="1.0" encoding="iso-8859-1"?>
<!-- Generator: Adobe Illustrator 16.0.0, SVG Export Plug-In . SVG Version: 6.00 Build 0)  -->
<!DOCTYPE svg PUBLIC "-//W3C//DTD SVG 1.1//EN" "http://www.w3.org/Graphics/SVG/1.1/DTD/svg11.dtd">
<svg version="1.1" id="Layer_1" xmlns="http://www.w3.org/2000/svg" xmlns:xlink="http://www.w3.org/1999/xlink" x="0px" y="0px"
	 width="64px" height="68px" viewBox="0 0 64 68" style="enable-background:new 0 0 64 68;" xml:space="preserve">
<g id="File_76_">
	<g>
		<path style="fill-rule:evenodd;clip-rule:evenodd;fill:#CCCCCC;" d="M52,0H4C1.792,0,0,1.791,0,4v56c0,2.209,1.792,3.999,4,3.999
			h33.44c-1.299-1.144-2.41-2.492-3.283-3.999H6c-1.105,0-2-0.896-2-2V6c0-1.104,0.895-2,2-2h44c1.104,0,2,0.896,2,2v30.526
			c1.419,0.366,2.762,0.916,4,1.633V4C56,1.791,54.209,0,52,0z M42,28H14c-1.105,0-2,0.896-2,2s0.895,2,2,2h28c1.104,0,2-0.896,2-2
			S43.105,28,42,28z M14,36c-1.105,0-2,0.896-2,2c0,1.105,0.895,2,2,2h16c1.104,0,2-0.895,2-2c0-1.104-0.895-2-2-2H14z M14,24h16
			c1.104,0,2-0.896,2-2s-0.896-2-2-2H14c-1.105,0-2,0.896-2,2S12.896,24,14,24z M42,12H14c-1.105,0-2,0.896-2,2s0.895,2,2,2h28
			c1.104,0,2-0.896,2-2S43.105,12,42,12z"/>
	</g>
</g>
<g id="Elipse_11_">
	<g>
		<circle style="fill:#88C057;" cx="48" cy="52" r="12"/>
	</g>
</g>
<g id="Plus_3_">
	<g>
		<path style="fill:#FFFFFF;" d="M52,50.001h-2V48c0-1.104-0.895-2-2-2c-1.104,0-2,0.896-2,2v2.001h-2c-1.104,0-2,0.895-2,2
			c0,1.104,0.896,1.998,2,1.998h2v2C46,57.105,46.896,58,48,58c1.105,0,2-0.895,2-2.001v-2h2c1.105,0,2-0.895,2-1.998
			C54,50.896,53.106,50.001,52,50.001z"/>
	</g>
</g>
<g>
</g>
<g>
</g>
<g>
</g>
<g>
</g>
<g>
</g>
<g>
</g>
<g>
</g>
<g>
</g>
<g>
</g>
<g>
</g>
<g>
</g>
<g>
</g>
<g>
</g>
<g>
</g>
<g>
</g>
</svg>
