<?xml version="1.0" encoding="iso-8859-1"?>
<!-- Generator: Adobe Illustrator 16.0.0, SVG Export Plug-In . SVG Version: 6.00 Build 0)  -->
<!DOCTYPE svg PUBLIC "-//W3C//DTD SVG 1.1//EN" "http://www.w3.org/Graphics/SVG/1.1/DTD/svg11.dtd">
<svg version="1.1" id="Layer_1" xmlns="http://www.w3.org/2000/svg" xmlns:xlink="http://www.w3.org/1999/xlink" x="0px" y="0px"
	 width="56px" height="64px" viewBox="0 0 56 64" style="enable-background:new 0 0 56 64;" xml:space="preserve">
<g id="File_46_">
	<g>
		<path style="fill:#9B7CAB;" d="M52,0H4C1.791,0,0,1.791,0,4v56c0,2.21,1.791,4,4,4h34l18-18V4C56,1.791,54.209,0,52,0z"/>
	</g>
</g>
<g id="Corner_15_">
	<g>
		<path style="fill:#6D5778;" d="M42,46c-2.208,0-4,1.791-4,4v14l18-18H42z"/>
	</g>
</g>
<g id="Premier_Logo">
	<g>
		<path style="fill-rule:evenodd;clip-rule:evenodd;fill:#FFFFFF;" d="M27.295,15.943C25.818,14.673,23.551,14,20.459,14
			c-2.851,0-4.947,0.213-6.459,0.494v23.507h4.191v-8.978c0.55,0.105,1.271,0.142,2.062,0.142c2.988,0,5.634-0.814,7.317-2.546
			c1.306-1.273,1.993-3.146,1.993-5.407C29.563,18.984,28.669,17.11,27.295,15.943z M20.253,25.771c-0.86,0-1.546-0.035-2.062-0.177
			v-8.059c0.447-0.106,1.271-0.212,2.439-0.212c2.92,0,4.707,1.414,4.707,4.065C25.337,24.181,23.414,25.771,20.253,25.771z
			 M41.004,20.398c-1.787,0-3.745,1.237-4.569,3.675h-0.138l-0.137-3.286h-3.676c0.103,1.556,0.137,3.216,0.137,5.549v11.665h4.226
			v-8.907c0-0.495,0.068-0.954,0.137-1.343c0.378-1.945,1.752-3.287,3.778-3.287c0.516,0,0.894,0.07,1.237,0.141v-4.102
			C41.657,20.434,41.416,20.398,41.004,20.398z"/>
	</g>
</g>
<g>
</g>
<g>
</g>
<g>
</g>
<g>
</g>
<g>
</g>
<g>
</g>
<g>
</g>
<g>
</g>
<g>
</g>
<g>
</g>
<g>
</g>
<g>
</g>
<g>
</g>
<g>
</g>
<g>
</g>
</svg>
