<?xml version="1.0" encoding="iso-8859-1"?>
<!-- Generator: Adobe Illustrator 16.0.0, SVG Export Plug-In . SVG Version: 6.00 Build 0)  -->
<!DOCTYPE svg PUBLIC "-//W3C//DTD SVG 1.1//EN" "http://www.w3.org/Graphics/SVG/1.1/DTD/svg11.dtd">
<svg version="1.1" id="Layer_1" xmlns="http://www.w3.org/2000/svg" xmlns:xlink="http://www.w3.org/1999/xlink" x="0px" y="0px"
	 width="56px" height="64px" viewBox="0 0 56 64" style="enable-background:new 0 0 56 64;" xml:space="preserve">
<g id="File_77_">
	<g>
		<path style="fill:#9B7CAB;" d="M52,0H4C1.791,0,0,1.791,0,4v56c0,2.209,1.791,4,4,4h34l18-18V4C56,1.791,54.209,0,52,0z"/>
	</g>
</g>
<g id="Corner_40_">
	<g>
		<path style="fill:#6D5778;" d="M42,46c-2.209,0-4,1.791-4,4v14l18-18H42z"/>
	</g>
</g>
<g id="Share_1_">
	<g>
		<path style="fill-rule:evenodd;clip-rule:evenodd;fill:#FFFFFF;" d="M36,28c-1.585,0-3.021,0.619-4.094,1.622l-5.952-2.909
			C25.981,26.479,26,26.242,26,26s-0.019-0.479-0.046-0.713l5.952-2.909C32.979,23.381,34.415,24,36,24c3.313,0,6-2.687,6-6.001
			c0-3.313-2.687-6-6-6c-3.314,0-6,2.687-6,6c0,0.248,0.02,0.491,0.049,0.73l-5.941,2.905c-1.073-1.011-2.516-1.635-4.107-1.635
			c-3.314,0-6,2.687-6,6.001c0,3.313,2.686,6,6,6c1.591,0,3.033-0.624,4.106-1.634l5.942,2.904C30.02,33.51,30,33.752,30,33.999
			C30,37.313,32.686,40,36,40c3.313,0,6-2.687,6-6.001C42,30.687,39.313,28,36,28z"/>
	</g>
</g>
<g>
</g>
<g>
</g>
<g>
</g>
<g>
</g>
<g>
</g>
<g>
</g>
<g>
</g>
<g>
</g>
<g>
</g>
<g>
</g>
<g>
</g>
<g>
</g>
<g>
</g>
<g>
</g>
<g>
</g>
</svg>
