<?xml version="1.0" encoding="iso-8859-1"?>
<!-- Generator: Adobe Illustrator 16.0.0, SVG Export Plug-In . SVG Version: 6.00 Build 0)  -->
<!DOCTYPE svg PUBLIC "-//W3C//DTD SVG 1.1//EN" "http://www.w3.org/Graphics/SVG/1.1/DTD/svg11.dtd">
<svg version="1.1" id="Layer_1" xmlns="http://www.w3.org/2000/svg" xmlns:xlink="http://www.w3.org/1999/xlink" x="0px" y="0px"
	 width="56px" height="64.001px" viewBox="0 0 56 64.001" style="enable-background:new 0 0 56 64.001;" xml:space="preserve">
<g id="File_56_">
	<g>
		<path style="fill:#FFCC66;" d="M52,0H4C1.791,0,0,1.791,0,4v56c0,2.21,1.791,4.001,4,4.001h34l18-18V4C56,1.791,54.209,0,52,0z"/>
	</g>
</g>
<g id="Corner_25_">
	<g>
		<path style="fill:#CCA352;" d="M42,46.001c-2.209,0-4,1.79-4,4v14l18-18H42z"/>
	</g>
</g>
<g id="Star_1_">
	<g>
		<path style="fill:#FFFFFF;" d="M41.925,21.823c-0.175-0.533-0.632-0.929-1.191-1.032l-7.625-1.422l-3.747-6.585
			c-0.274-0.483-0.794-0.783-1.356-0.783c-0.563,0-1.083,0.3-1.357,0.783l-3.746,6.585l-7.626,1.422
			c-0.56,0.104-1.016,0.499-1.19,1.032s-0.04,1.117,0.353,1.523l5.297,5.481l-0.961,7.45c-0.071,0.552,0.168,1.099,0.624,1.428
			c0.271,0.195,0.594,0.295,0.919,0.295c0.222,0,0.444-0.047,0.652-0.142l7.036-3.2l7.034,3.2c0.209,0.095,0.432,0.142,0.653,0.142
			c0.325,0,0.647-0.1,0.919-0.295c0.456-0.329,0.694-0.876,0.624-1.428l-0.961-7.45l5.298-5.481
			C41.964,22.94,42.1,22.356,41.925,21.823z"/>
	</g>
</g>
<g>
</g>
<g>
</g>
<g>
</g>
<g>
</g>
<g>
</g>
<g>
</g>
<g>
</g>
<g>
</g>
<g>
</g>
<g>
</g>
<g>
</g>
<g>
</g>
<g>
</g>
<g>
</g>
<g>
</g>
</svg>
