<?xml version="1.0" encoding="iso-8859-1"?>
<!-- Generator: Adobe Illustrator 16.0.0, SVG Export Plug-In . SVG Version: 6.00 Build 0)  -->
<!DOCTYPE svg PUBLIC "-//W3C//DTD SVG 1.1//EN" "http://www.w3.org/Graphics/SVG/1.1/DTD/svg11.dtd">
<svg version="1.1" id="Layer_1" xmlns="http://www.w3.org/2000/svg" xmlns:xlink="http://www.w3.org/1999/xlink" x="0px" y="0px"
	 width="56px" height="63.999px" viewBox="0 0 56 63.999" style="enable-background:new 0 0 56 63.999;" xml:space="preserve">
<g id="File_51_">
	<g>
		<path style="fill:#9B7CAB;" d="M52,0H4C1.791,0,0,1.79,0,3.999v56c0,2.209,1.791,4,4,4h34l18-18v-42C56,1.79,54.209,0,52,0z"/>
	</g>
</g>
<g id="Corner_20_">
	<g>
		<path style="fill:#6D5778;" d="M42,45.998c-2.209,0-4,1.792-4,4.001v14l18-18.001H42z"/>
	</g>
</g>
<g id="After_Efects_Logo">
	<g>
		<path style="fill-rule:evenodd;clip-rule:evenodd;fill:#FFFFFF;" d="M17.168,14.004L10,37.999h4.5l1.641-7.079h7.099l2.511,7.079
			h4.5l-7.873-23.995H17.168z M16.804,27.663l1.725-5.813c0.397-1.401,0.729-3.048,1.062-4.413h0.066
			c0.332,1.365,0.696,2.977,1.128,4.413l1.758,5.813H16.804z M45.996,28.469c0-3.747-1.691-8.301-6.966-8.301
			c-5.175,0-7.896,4.448-7.896,9.177c0,5.218,3.085,8.649,8.326,8.649c2.323,0,4.246-0.49,5.641-1.085l-0.598-2.978
			c-1.228,0.491-2.588,0.771-4.479,0.771c-2.588,0-4.876-1.33-4.976-4.412h10.813C45.93,29.903,45.996,29.273,45.996,28.469z
			 M35.05,27.277c0.165-1.751,1.227-4.167,3.748-4.167c2.72,0,3.384,2.592,3.351,4.167H35.05z"/>
	</g>
</g>
<g>
</g>
<g>
</g>
<g>
</g>
<g>
</g>
<g>
</g>
<g>
</g>
<g>
</g>
<g>
</g>
<g>
</g>
<g>
</g>
<g>
</g>
<g>
</g>
<g>
</g>
<g>
</g>
<g>
</g>
</svg>
