<?xml version="1.0" encoding="iso-8859-1"?>
<!-- Generator: Adobe Illustrator 16.0.0, SVG Export Plug-In . SVG Version: 6.00 Build 0)  -->
<!DOCTYPE svg PUBLIC "-//W3C//DTD SVG 1.1//EN" "http://www.w3.org/Graphics/SVG/1.1/DTD/svg11.dtd">
<svg version="1.1" id="Layer_1" xmlns="http://www.w3.org/2000/svg" xmlns:xlink="http://www.w3.org/1999/xlink" x="0px" y="0px"
	 width="56px" height="63.999px" viewBox="0 0 56 63.999" style="enable-background:new 0 0 56 63.999;" xml:space="preserve">
<g id="File_48_">
	<g>
		<path style="fill:#CCCCCC;" d="M52,0H4C1.791,0,0,1.79,0,3.999v56c0,2.209,1.791,4,4,4h34l18-18v-42C56,1.79,54.209,0,52,0z"/>
	</g>
</g>
<g id="Corner_17_">
	<g>
		<path style="fill:#999999;" d="M42,45.998c-2.209,0-4,1.792-4,4.001v14l18-18.001H42z"/>
	</g>
</g>
<g id="Flash_Builder_Logo">
	<g>
		<path style="fill-rule:evenodd;clip-rule:evenodd;fill:#FFFFFF;" d="M12.022,38.006h4.412V27.821h8.896v-3.597h-8.896V17.6h9.543
			v-3.597H12.022V38.006z M36.781,19.642c-2.212,0-3.796,1.011-4.521,2.31h-0.066v-9.958h-4.061v20.673
			c0,1.804-0.065,3.751-0.132,4.942h3.632l0.164-2.778h0.066c0.958,1.948,2.904,3.176,5.248,3.176c3.828,0,6.865-3.572,6.865-8.983
			C44.01,23.141,40.644,19.642,36.781,19.642z M35.824,34.434c-1.65,0-3.103-1.227-3.499-3.139c-0.099-0.397-0.132-0.83-0.132-1.299
			v-2.633c0-0.362,0.033-0.794,0.099-1.156c0.364-1.731,1.65-3.138,3.5-3.138c2.606,0,4.06,2.524,4.06,5.808
			C39.852,32.089,38.398,34.434,35.824,34.434z"/>
	</g>
</g>
<g>
</g>
<g>
</g>
<g>
</g>
<g>
</g>
<g>
</g>
<g>
</g>
<g>
</g>
<g>
</g>
<g>
</g>
<g>
</g>
<g>
</g>
<g>
</g>
<g>
</g>
<g>
</g>
<g>
</g>
</svg>
