<?xml version="1.0" encoding="iso-8859-1"?>
<!-- Generator: Adobe Illustrator 16.0.0, SVG Export Plug-In . SVG Version: 6.00 Build 0)  -->
<!DOCTYPE svg PUBLIC "-//W3C//DTD SVG 1.1//EN" "http://www.w3.org/Graphics/SVG/1.1/DTD/svg11.dtd">
<svg version="1.1" id="Layer_1" xmlns="http://www.w3.org/2000/svg" xmlns:xlink="http://www.w3.org/1999/xlink" x="0px" y="0px"
	 width="56px" height="63.999px" viewBox="0 0 56 63.999" style="enable-background:new 0 0 56 63.999;" xml:space="preserve">
<g id="File_54_">
	<g>
		<path style="fill:#48A0DC;" d="M52,0H4C1.791,0,0,1.79,0,3.999v56c0,2.209,1.791,4,4,4h34l18-18v-42C56,1.79,54.209,0,52,0z"/>
	</g>
</g>
<g id="Corner_23_">
	<g>
		<path style="fill:#387BA8;" d="M42,45.998c-2.208,0-4,1.792-4,4.001v14l18-18.001H42z"/>
	</g>
</g>
<g id="Photoshop_Logo">
	<g>
		<path style="fill-rule:evenodd;clip-rule:evenodd;fill:#FFFFFF;" d="M27.329,15.91c-1.481-1.252-3.755-1.914-6.856-1.914
			c-2.859,0-4.961,0.209-6.477,0.487L14,37.999h4.375v-8.888c0.551,0.104,0.958,0,1.75,0c2.998,0,5.792-0.989,7.48-2.694
			c1.309-1.253,2.145-3.079,2.145-5.307C29.75,18.918,28.707,17.059,27.329,15.91z M20.267,25.582c-0.861,0-1.375,0.112-1.892-0.027
			v-8c0.448-0.104,1.454,0,2.625,0c2.929,0,4.365,1.104,4.365,3.714C25.365,24.016,23.436,25.582,20.267,25.582z M37.525,27.495
			c-2.136-0.767-2.929-1.287-2.929-2.366c0-1.043,0.828-1.773,2.343-1.773c1.48,0,2.825,0.557,3.548,0.974l0.826-3.026
			c-0.964-0.522-2.583-1.01-4.444-1.01c-3.893,0-6.339,2.332-6.339,5.323c-0.034,1.982,1.344,3.793,4.617,4.94
			c2.067,0.73,2.755,1.321,2.755,2.471c0,1.113-0.826,1.879-2.687,1.879c-1.516,0-3.342-0.626-4.307-1.218l-0.826,3.097
			c1.239,0.694,3.065,1.218,5.099,1.218c4.444,0,6.821-2.262,6.821-5.323C41.969,30.175,40.557,28.608,37.525,27.495z"/>
	</g>
</g>
<g>
</g>
<g>
</g>
<g>
</g>
<g>
</g>
<g>
</g>
<g>
</g>
<g>
</g>
<g>
</g>
<g>
</g>
<g>
</g>
<g>
</g>
<g>
</g>
<g>
</g>
<g>
</g>
<g>
</g>
</svg>
