<?xml version="1.0" encoding="iso-8859-1"?>
<!-- Generator: Adobe Illustrator 16.0.0, SVG Export Plug-In . SVG Version: 6.00 Build 0)  -->
<!DOCTYPE svg PUBLIC "-//W3C//DTD SVG 1.1//EN" "http://www.w3.org/Graphics/SVG/1.1/DTD/svg11.dtd">
<svg version="1.1" id="Layer_1" xmlns="http://www.w3.org/2000/svg" xmlns:xlink="http://www.w3.org/1999/xlink" x="0px" y="0px"
	 width="56px" height="64px" viewBox="0 0 56 64" style="enable-background:new 0 0 56 64;" xml:space="preserve">
<g id="File_40_">
	<g>
		<path style="fill:#48A0DC;" d="M52,0H4C1.791,0,0,1.791,0,4v56c0,2.21,1.791,4,4,4h34l18-18V4C56,1.791,54.209,0,52,0z"/>
	</g>
</g>
<g id="Corner_9_">
	<g>
		<path style="fill:#387BA8;" d="M42,46c-2.209,0-4,1.791-4,4v14l18-18H42z"/>
	</g>
</g>
<g id="Prelude_Logo">
	<g>
		<path style="fill-rule:evenodd;clip-rule:evenodd;fill:#FFFFFF;" d="M29.677,15.951c-1.52-1.271-3.851-1.943-7.032-1.943
			c-2.932,0-5.087,0.212-6.642,0.495v23.5h4.311v-8.977c0.565,0.107,1.308,0.142,2.12,0.142c3.074,0,5.795-0.812,7.525-2.544
			c1.343-1.272,2.05-3.145,2.05-5.408C32.009,18.991,31.09,17.117,29.677,15.951z M22.434,25.776c-0.884,0-1.59-0.037-2.12-0.177
			v-8.058c0.46-0.105,1.308-0.211,2.509-0.211c3.004,0,4.84,1.412,4.84,4.063C27.662,24.185,25.684,25.776,22.434,25.776z
			 M35.976,11.997v26.006h4.021V11.997H35.976z"/>
	</g>
</g>
<g>
</g>
<g>
</g>
<g>
</g>
<g>
</g>
<g>
</g>
<g>
</g>
<g>
</g>
<g>
</g>
<g>
</g>
<g>
</g>
<g>
</g>
<g>
</g>
<g>
</g>
<g>
</g>
<g>
</g>
</svg>
