<?xml version="1.0" encoding="iso-8859-1"?>
<!-- Generator: Adobe Illustrator 16.0.0, SVG Export Plug-In . SVG Version: 6.00 Build 0)  -->
<!DOCTYPE svg PUBLIC "-//W3C//DTD SVG 1.1//EN" "http://www.w3.org/Graphics/SVG/1.1/DTD/svg11.dtd">
<svg version="1.1" id="Layer_1" xmlns="http://www.w3.org/2000/svg" xmlns:xlink="http://www.w3.org/1999/xlink" x="0px" y="0px"
	 width="56px" height="64px" viewBox="0 0 56 64" style="enable-background:new 0 0 56 64;" xml:space="preserve">
<g id="File_44_">
	<g>
		<path style="fill:#48A0DC;" d="M52,0H4C1.791,0,0,1.791,0,4v56c0,2.21,1.791,4,4,4h34l18-18V4C56,1.791,54.209,0,52,0z"/>
	</g>
</g>
<g id="Corner_13_">
	<g>
		<path style="fill:#387BA8;" d="M42,46c-2.209,0-4,1.791-4,4v14l18-18H42z"/>
	</g>
</g>
<g id="Encore_Logo">
	<g>
		<path style="fill-rule:evenodd;clip-rule:evenodd;fill:#FFFFFF;" d="M16.309,27.354h8.888v-3.561h-8.888v-6.196h9.412V14H12.005
			v24.001h14.241v-3.597h-9.938V27.354z M38.442,20.267c-2.601,0-4.302,1.639-4.977,2.992h-0.097l-0.192-2.6H29.71
			c0.097,1.496,0.129,3.169,0.129,5.163v12.179h3.98V27.817c0-0.499,0.032-1.034,0.161-1.426c0.417-1.316,1.509-2.563,3.081-2.563
			c2.151,0,2.985,1.887,2.985,4.38v9.793h3.948V27.71C43.995,22.226,41.171,20.267,38.442,20.267z"/>
	</g>
</g>
<g>
</g>
<g>
</g>
<g>
</g>
<g>
</g>
<g>
</g>
<g>
</g>
<g>
</g>
<g>
</g>
<g>
</g>
<g>
</g>
<g>
</g>
<g>
</g>
<g>
</g>
<g>
</g>
<g>
</g>
</svg>
