<?xml version="1.0" encoding="iso-8859-1"?>
<!-- Generator: Adobe Illustrator 16.0.0, SVG Export Plug-In . SVG Version: 6.00 Build 0)  -->
<!DOCTYPE svg PUBLIC "-//W3C//DTD SVG 1.1//EN" "http://www.w3.org/Graphics/SVG/1.1/DTD/svg11.dtd">
<svg version="1.1" id="Layer_1" xmlns="http://www.w3.org/2000/svg" xmlns:xlink="http://www.w3.org/1999/xlink" x="0px" y="0px"
	 width="64px" height="60px" viewBox="0 0 64 60" style="enable-background:new 0 0 64 60;" xml:space="preserve">
<g id="Folder_20_">
	<g>
		<path style="fill-rule:evenodd;clip-rule:evenodd;fill:#638C3F;" d="M60,4H24c0-2.209-1.791-4-4-4H4C1.791,0,0,1.791,0,4v4v6
			v2.001c0,2.209,1.791,4,4,4h56c2.209,0,4-1.791,4-4V8C64,5.79,62.209,4,60,4z"/>
	</g>
</g>
<g id="File_10_">
	<g>
		<path style="fill:#FFFFFF;" d="M56,8H8c-2.209,0-4,1.79-4,4v4.001c0,2.209,1.791,4,4,4h48c2.209,0,4-1.791,4-4V12
			C60,9.79,58.209,8,56,8z"/>
	</g>
</g>
<g id="Folder_21_">
	<g>
		<path style="fill:#88C057;" d="M60,12H4c-2.209,0-4,1.791-4,4.001V56c0,2.209,1.791,4,4,4h56c2.209,0,4-1.791,4-4V16.001
			C64,13.791,62.209,12,60,12z"/>
	</g>
</g>
<g id="Code">
	<g>
		<path style="fill-rule:evenodd;clip-rule:evenodd;fill:#FFFFFF;" d="M18.961,35.945l4.45-4.437c0.81-0.807,0.81-2.114,0-2.92
			c-0.808-0.807-2.121-0.807-2.931,0l-5.86,5.841c-0.608,0.606-0.759,1.497-0.451,2.245c0.099,0.294,0.245,0.574,0.479,0.81
			l5.846,5.865c0.808,0.811,2.115,0.811,2.923,0c0.807-0.81,0.807-2.123,0-2.933L18.961,35.945z M49.832,35.326
			c-0.099-0.295-0.244-0.575-0.477-0.81l-5.809-5.867c-0.803-0.81-2.103-0.81-2.904,0c-0.803,0.811-0.803,2.123,0,2.934l4.428,4.471
			l-4.424,4.438c-0.804,0.807-0.804,2.114,0,2.92c0.804,0.807,2.108,0.807,2.913,0l5.823-5.841
			C49.988,36.964,50.138,36.073,49.832,35.326z M36.722,24.154c-1.017-0.397-2.166,0.097-2.567,1.104l-7.991,20.047
			c-0.401,1.007,0.098,2.145,1.114,2.541c1.018,0.397,2.167-0.097,2.568-1.103l7.991-20.048
			C38.238,25.689,37.739,24.552,36.722,24.154z"/>
	</g>
</g>
<g>
</g>
<g>
</g>
<g>
</g>
<g>
</g>
<g>
</g>
<g>
</g>
<g>
</g>
<g>
</g>
<g>
</g>
<g>
</g>
<g>
</g>
<g>
</g>
<g>
</g>
<g>
</g>
<g>
</g>
</svg>
