<?xml version="1.0" encoding="iso-8859-1"?>
<!-- Generator: Adobe Illustrator 16.0.0, SVG Export Plug-In . SVG Version: 6.00 Build 0)  -->
<!DOCTYPE svg PUBLIC "-//W3C//DTD SVG 1.1//EN" "http://www.w3.org/Graphics/SVG/1.1/DTD/svg11.dtd">
<svg version="1.1" id="Layer_1" xmlns="http://www.w3.org/2000/svg" xmlns:xlink="http://www.w3.org/1999/xlink" x="0px" y="0px"
	 width="64px" height="60px" viewBox="0 0 64 60" style="enable-background:new 0 0 64 60;" xml:space="preserve">
<g id="Folder_24_">
	<g>
		<path style="fill-rule:evenodd;clip-rule:evenodd;fill:#CCA352;" d="M60,4H24c0-2.209-1.791-4-4-4H4C1.791,0,0,1.791,0,4v4v6
			v2.001c0,2.209,1.791,4,4,4h56c2.209,0,4-1.791,4-4V8C64,5.79,62.209,4,60,4z"/>
	</g>
</g>
<g id="File_12_">
	<g>
		<path style="fill:#FFFFFF;" d="M56,8H8c-2.209,0-4,1.79-4,4v4.001c0,2.209,1.791,4,4,4h48c2.209,0,4-1.791,4-4V12
			C60,9.79,58.209,8,56,8z"/>
	</g>
</g>
<g id="Folder_25_">
	<g>
		<path style="fill:#FFCC66;" d="M60,12H4c-2.209,0-4,1.791-4,4.001V56c0,2.209,1.791,4,4,4h56c2.209,0,4-1.791,4-4V16.001
			C64,13.791,62.209,12,60,12z"/>
	</g>
</g>
<g id="Path">
	<g>
		<path style="fill-rule:evenodd;clip-rule:evenodd;fill:#FFFFFF;" d="M41.777,26c-2.522-2.47-5.967-4-9.777-4
			c-2.63,0-5.082,0.738-7.184,2H20v4.815c-1.262,2.102-2.001,4.554-2.001,7.185c0,3.811,1.531,7.256,4.001,9.778v4.223h6v-0.588
			v-2.11V44h-4.922C21.168,41.879,20,39.08,20,36c0-2.188,0.595-4.234,1.619-6.001H26v-4.381C27.767,24.595,29.812,24,32,24
			c3.08,0,5.879,1.169,8,3.077V32h3.303h2.11H46v-6H41.777z"/>
	</g>
</g>
<g>
</g>
<g>
</g>
<g>
</g>
<g>
</g>
<g>
</g>
<g>
</g>
<g>
</g>
<g>
</g>
<g>
</g>
<g>
</g>
<g>
</g>
<g>
</g>
<g>
</g>
<g>
</g>
<g>
</g>
</svg>
