<?xml version="1.0" encoding="iso-8859-1"?>
<!-- Generator: Adobe Illustrator 16.0.0, SVG Export Plug-In . SVG Version: 6.00 Build 0)  -->
<!DOCTYPE svg PUBLIC "-//W3C//DTD SVG 1.1//EN" "http://www.w3.org/Graphics/SVG/1.1/DTD/svg11.dtd">
<svg version="1.1" id="Layer_1" xmlns="http://www.w3.org/2000/svg" xmlns:xlink="http://www.w3.org/1999/xlink" x="0px" y="0px"
	 width="66px" height="64.001px" viewBox="0 0 66 64.001" style="enable-background:new 0 0 66 64.001;" xml:space="preserve">
<g id="Folder_34_">
	<g>
		<path style="fill-rule:evenodd;clip-rule:evenodd;fill:#CCA352;" d="M60,3.999H24C24,1.791,22.209,0,20,0H4
			C1.791,0,0,1.791,0,3.999v4V14v2c0,2.209,1.791,4.001,4,4.001h56c2.209,0,4-1.792,4-4.001V7.999C64,5.791,62.209,3.999,60,3.999z"
			/>
	</g>
</g>
<g id="File_17_">
	<g>
		<path style="fill:#FFFFFF;" d="M56,7.999H8c-2.209,0-4,1.792-4,4.001v4c0,2.209,1.791,4.001,4,4.001h48c2.209,0,4-1.792,4-4.001
			v-4C60,9.791,58.209,7.999,56,7.999z"/>
	</g>
</g>
<g id="Folder_35_">
	<g>
		<path style="fill-rule:evenodd;clip-rule:evenodd;fill:#FFCC66;" d="M64,42.815V16c0-2.209-1.791-4-4-4H4c-2.209,0-4,1.791-4,4
			v40.001C0,58.209,1.791,60,4,60h38.211c-2.457-2.406-4.018-5.712-4.18-9.382C38.011,50.415,38,50.209,38,50v-7.999
			C38,38.687,40.687,36,44,36c1.148,0,2.218,0.328,3.13,0.888C48.648,36.323,50.284,36,52,36C57.103,36,61.553,38.738,64,42.815z"/>
	</g>
</g>
<g id="Refresh_1_">
	<g>
		<path style="fill-rule:evenodd;clip-rule:evenodd;fill:#88C057;" d="M50,50c1.104,0,2-0.896,2-2.001c0-1.104-0.896-2-2-2h-2.442
			c1.096-1.221,2.672-2,4.442-2c1.775,0,3.365,0.775,4.464,2.001h4.699C59.619,42.469,56.1,39.999,52,39.999
			c-2.255,0-4.329,0.752-6,2.012V42c0-1.105-0.896-2.001-2-2.001S42,40.895,42,42v5.999C42,49.104,42.896,50,44,50H50z
			 M60.403,50.04c-0.131-0.027-0.266-0.041-0.403-0.041h-6c-1.104,0-2,0.896-2,2C52,53.104,52.896,54,54,54h2.442
			c-1.096,1.221-2.672,2-4.442,2c-1.774,0-3.365-0.775-4.463-2l-4.7-0.001C44.381,57.53,47.899,60,52,60
			c2.254,0,4.328-0.753,6-2.011v0.01C58,59.104,58.896,60,60,60s2-0.896,2-2.001V52c0,0,0,0,0-0.001
			C62,51.033,61.314,50.227,60.403,50.04z"/>
	</g>
</g>
<g>
</g>
<g>
</g>
<g>
</g>
<g>
</g>
<g>
</g>
<g>
</g>
<g>
</g>
<g>
</g>
<g>
</g>
<g>
</g>
<g>
</g>
<g>
</g>
<g>
</g>
<g>
</g>
<g>
</g>
</svg>
