<?xml version="1.0" encoding="iso-8859-1"?>
<!-- Generator: Adobe Illustrator 16.0.0, SVG Export Plug-In . SVG Version: 6.00 Build 0)  -->
<!DOCTYPE svg PUBLIC "-//W3C//DTD SVG 1.1//EN" "http://www.w3.org/Graphics/SVG/1.1/DTD/svg11.dtd">
<svg version="1.1" id="Layer_1" xmlns="http://www.w3.org/2000/svg" xmlns:xlink="http://www.w3.org/1999/xlink" x="0px" y="0px"
	 width="68px" height="65.999px" viewBox="0 0 68 65.999" style="enable-background:new 0 0 68 65.999;" xml:space="preserve">
<g id="Folder_44_">
	<g>
		<path style="fill-rule:evenodd;clip-rule:evenodd;fill:#CCA352;" d="M60,3.999H24C24,1.791,22.209,0,20,0H4
			C1.791,0,0,1.791,0,3.999v4V14v2c0,2.209,1.791,4.001,4,4.001h56c2.209,0,4-1.792,4-4.001V7.999C64,5.791,62.209,3.999,60,3.999z"
			/>
	</g>
</g>
<g id="File_22_">
	<g>
		<path style="fill:#FFFFFF;" d="M56,7.999H8c-2.209,0-4,1.792-4,4.001v4c0,2.209,1.791,4.001,4,4.001h48c2.209,0,4-1.792,4-4.001
			v-4C60,9.791,58.209,7.999,56,7.999z"/>
	</g>
</g>
<g id="Folder_45_">
	<g>
		<path style="fill-rule:evenodd;clip-rule:evenodd;fill:#FFCC66;" d="M36,50.001c0-8.838,7.163-16,16-16
			c4.785,0,9.068,2.111,12,5.441V16c0-2.209-1.791-4-4-4H4c-2.209,0-4,1.791-4,4v40.001C0,58.209,1.791,60,4,60h35.521
			C37.322,57.26,36,53.787,36,50.001z"/>
	</g>
</g>
<g id="Elipse_1_">
	<g>
		<circle style="fill:#ED7161;" cx="52" cy="50" r="11.999"/>
	</g>
</g>
<g id="Minus">
	<g>
		<path style="fill:#FFFFFF;" d="M56,48h-8c-1.105,0-2,0.894-2,1.999c0,1.104,0.895,2,2,2h8c1.104,0,2-0.896,2-2
			C58,48.894,57.104,48,56,48z"/>
	</g>
</g>
<g>
</g>
<g>
</g>
<g>
</g>
<g>
</g>
<g>
</g>
<g>
</g>
<g>
</g>
<g>
</g>
<g>
</g>
<g>
</g>
<g>
</g>
<g>
</g>
<g>
</g>
<g>
</g>
<g>
</g>
</svg>
