<?xml version="1.0" encoding="iso-8859-1"?>
<!-- Generator: Adobe Illustrator 16.0.0, SVG Export Plug-In . SVG Version: 6.00 Build 0)  -->
<!DOCTYPE svg PUBLIC "-//W3C//DTD SVG 1.1//EN" "http://www.w3.org/Graphics/SVG/1.1/DTD/svg11.dtd">
<svg version="1.1" id="Layer_1" xmlns="http://www.w3.org/2000/svg" xmlns:xlink="http://www.w3.org/1999/xlink" x="0px" y="0px"
	 width="64px" height="60px" viewBox="0 0 64 60" style="enable-background:new 0 0 64 60;" xml:space="preserve">
<g id="Folder_30_">
	<g>
		<path style="fill-rule:evenodd;clip-rule:evenodd;fill:#BA594C;" d="M60,4H24c0-2.209-1.791-4-4-4H4C1.791,0,0,1.791,0,4v4v6
			v2.001c0,2.209,1.791,4,4,4h56c2.209,0,4-1.791,4-4V8C64,5.79,62.209,4,60,4z"/>
	</g>
</g>
<g id="File_15_">
	<g>
		<path style="fill:#FFFFFF;" d="M56,8H8c-2.209,0-4,1.79-4,4v4.001c0,2.209,1.791,4,4,4h48c2.209,0,4-1.791,4-4V12
			C60,9.79,58.209,8,56,8z"/>
	</g>
</g>
<g id="Folder_31_">
	<g>
		<path style="fill:#ED7261;" d="M60,12H4c-2.209,0-4,1.791-4,4.001V56c0,2.209,1.791,4,4,4h56c2.209,0,4-1.791,4-4V16.001
			C64,13.791,62.209,12,60,12z"/>
	</g>
</g>
<g id="Music">
	<g>
		<path style="fill-rule:evenodd;clip-rule:evenodd;fill:#FFFFFF;" d="M40.2,24.616l-14.4-2.593c-0.994-0.18-1.8,0.498-1.8,1.514
			v2.461v1.219v10.862c-0.323-0.052-0.657-0.08-1-0.08c-2.762,0-5,1.789-5,3.999s2.238,4,5,4c2.565,0,4.654-1.551,4.942-3.542
			c0.035-0.147,0.058-0.3,0.058-0.458V29.774l10,1.803v10.502c-0.323-0.053-0.658-0.081-1-0.081c-2.761,0-5,1.791-5,4s2.238,4,5,4
			c2.565,0,4.655-1.552,4.943-3.542c0.035-0.147,0.058-0.3,0.058-0.458v-15.54v-0.459V26.78C42,25.765,41.194,24.796,40.2,24.616z"
			/>
	</g>
</g>
<g>
</g>
<g>
</g>
<g>
</g>
<g>
</g>
<g>
</g>
<g>
</g>
<g>
</g>
<g>
</g>
<g>
</g>
<g>
</g>
<g>
</g>
<g>
</g>
<g>
</g>
<g>
</g>
<g>
</g>
</svg>
