<?xml version="1.0" encoding="iso-8859-1"?>
<!-- Generator: Adobe Illustrator 16.0.0, SVG Export Plug-In . SVG Version: 6.00 Build 0)  -->
<!DOCTYPE svg PUBLIC "-//W3C//DTD SVG 1.1//EN" "http://www.w3.org/Graphics/SVG/1.1/DTD/svg11.dtd">
<svg version="1.1" id="Layer_1" xmlns="http://www.w3.org/2000/svg" xmlns:xlink="http://www.w3.org/1999/xlink" x="0px" y="0px"
	 width="64px" height="62.001px" viewBox="0 0 64 62.001" style="enable-background:new 0 0 64 62.001;" xml:space="preserve">
<g id="Folder_54_">
	<g>
		<path style="fill:#CCA352;" d="M60,12.001v16c2.209,0,4-1.79,4-4v-8C64,13.791,62.209,12.001,60,12.001z"/>
	</g>
</g>
<g id="Folder_55_">
	<g>
		<path style="fill:#FFCC66;" d="M60,20.001V54c0,2.21-1.791,4.001-4,4.001H8c0,2.21,1.791,4,4,4h48c2.209,0,4-1.79,4-4v-34
			C64,21.792,62.209,20.001,60,20.001z"/>
	</g>
</g>
<g id="Folder_56_">
	<g>
		<path style="fill-rule:evenodd;clip-rule:evenodd;fill:#CCA352;" d="M52,4.001H24C24,1.792,22.209,0,20,0H4
			C1.791,0,0,1.792,0,4.001V8v6.001v2c0,2.21,1.791,4,4,4h48c2.209,0,4-1.79,4-4V8C56,5.791,54.209,4.001,52,4.001z"/>
	</g>
</g>
<g id="File_27_">
	<g>
		<path style="fill:#FFFFFF;" d="M48,8H8c-2.209,0-4,1.791-4,4.001v4c0,2.21,1.791,4,4,4h40c2.209,0,4-1.79,4-4v-4
			C52,9.791,50.209,8,48,8z"/>
	</g>
</g>
<g id="Folder_57_">
	<g>
		<path style="fill:#FFCC66;" d="M52,12.001H4c-2.209,0-4,1.791-4,4v34c0,2.209,1.791,4,4,4h48c2.209,0,4-1.791,4-4v-34
			C56,13.792,54.209,12.001,52,12.001z"/>
	</g>
</g>
<g>
</g>
<g>
</g>
<g>
</g>
<g>
</g>
<g>
</g>
<g>
</g>
<g>
</g>
<g>
</g>
<g>
</g>
<g>
</g>
<g>
</g>
<g>
</g>
<g>
</g>
<g>
</g>
<g>
</g>
</svg>
