<?xml version="1.0" encoding="iso-8859-1"?>
<!-- Generator: Adobe Illustrator 16.0.0, SVG Export Plug-In . SVG Version: 6.00 Build 0)  -->
<!DOCTYPE svg PUBLIC "-//W3C//DTD SVG 1.1//EN" "http://www.w3.org/Graphics/SVG/1.1/DTD/svg11.dtd">
<svg version="1.1" id="Layer_1" xmlns="http://www.w3.org/2000/svg" xmlns:xlink="http://www.w3.org/1999/xlink" x="0px" y="0px"
	 width="64px" height="60.001px" viewBox="0 0 64 60.001" style="enable-background:new 0 0 64 60.001;" xml:space="preserve">
<g id="Folder_8_">
	<g>
		<path style="fill-rule:evenodd;clip-rule:evenodd;fill:#BA594C;" d="M60,4H24c0-2.209-1.791-4-4-4H4C1.791,0,0,1.791,0,4v3.999V14
			v2c0,2.209,1.791,4.001,4,4.001h56c2.209,0,4-1.792,4-4.001V7.999C64,5.791,62.209,4,60,4z"/>
	</g>
</g>
<g id="File_4_">
	<g>
		<path style="fill:#FFFFFF;" d="M56,7.999H8c-2.209,0-4,1.792-4,4V16c0,2.209,1.791,4.001,4,4.001h48c2.209,0,4-1.792,4-4.001
			v-4.001C60,9.791,58.209,7.999,56,7.999z"/>
	</g>
</g>
<g id="Folder_9_">
	<g>
		<path style="fill:#ED7261;" d="M60,11.999H4c-2.209,0-4,1.792-4,4.001v40c0,2.209,1.791,4.001,4,4.001h56c2.209,0,4-1.792,4-4.001
			V16C64,13.791,62.209,11.999,60,11.999z"/>
	</g>
</g>
<g id="Remove">
	<g>
		<path style="fill-rule:evenodd;clip-rule:evenodd;fill:#FFFFFF;" d="M39.43,40.728l-4.703-4.703l4.703-4.702
			c0.742-0.743,0.742-1.948,0-2.692c-0.743-0.742-1.948-0.742-2.691,0l-4.703,4.703l-4.762-4.762c-0.746-0.746-1.955-0.746-2.701,0
			c-0.746,0.745-0.746,1.954,0,2.701l4.762,4.762l-4.705,4.705c-0.743,0.744-0.743,1.949,0,2.691c0.743,0.743,1.947,0.743,2.69,0
			l4.706-4.705l4.703,4.702c0.746,0.747,1.955,0.747,2.701,0C40.176,42.683,40.176,41.473,39.43,40.728z"/>
	</g>
</g>
<g>
</g>
<g>
</g>
<g>
</g>
<g>
</g>
<g>
</g>
<g>
</g>
<g>
</g>
<g>
</g>
<g>
</g>
<g>
</g>
<g>
</g>
<g>
</g>
<g>
</g>
<g>
</g>
<g>
</g>
</svg>
