<?xml version="1.0" encoding="iso-8859-1"?>
<!-- Generator: Adobe Illustrator 16.0.0, SVG Export Plug-In . SVG Version: 6.00 Build 0)  -->
<!DOCTYPE svg PUBLIC "-//W3C//DTD SVG 1.1//EN" "http://www.w3.org/Graphics/SVG/1.1/DTD/svg11.dtd">
<svg version="1.1" id="Layer_1" xmlns="http://www.w3.org/2000/svg" xmlns:xlink="http://www.w3.org/1999/xlink" x="0px" y="0px"
	 width="64px" height="60.001px" viewBox="0 0 64 60.001" style="enable-background:new 0 0 64 60.001;" xml:space="preserve">
<g id="Folder_4_">
	<g>
		<path style="fill-rule:evenodd;clip-rule:evenodd;fill:#387BA8;" d="M60,4H24c0-2.209-1.791-4-4-4H4C1.791,0,0,1.791,0,4v3.999V14
			v2c0,2.209,1.791,4.001,4,4.001h56c2.209,0,4-1.792,4-4.001V7.999C64,5.791,62.209,4,60,4z"/>
	</g>
</g>
<g id="File_2_">
	<g>
		<path style="fill:#FFFFFF;" d="M56,7.999H8c-2.209,0-4,1.792-4,4V16c0,2.209,1.791,4.001,4,4.001h48c2.209,0,4-1.792,4-4.001
			v-4.001C60,9.791,58.209,7.999,56,7.999z"/>
	</g>
</g>
<g id="Folder_5_">
	<g>
		<path style="fill:#48A0DC;" d="M60,11.999H4c-2.209,0-4,1.792-4,4.001v40c0,2.209,1.791,4.001,4,4.001h56c2.209,0,4-1.792,4-4.001
			V16C64,13.791,62.209,11.999,60,11.999z"/>
	</g>
</g>
<g id="Wheel">
	<g>
		<path style="fill:#FFFFFF;" d="M44.25,33.374l-1.301-0.426c-0.25-0.895-0.6-1.744-1.048-2.537l0.616-1.219
			c0.684-0.683,0.684-1.791,0-2.474l-1.237-1.237c-0.684-0.684-1.791-0.684-2.475,0l-1.217,0.617
			c-0.791-0.448-1.643-0.799-2.537-1.049l-0.427-1.301c0-0.966-0.783-1.75-1.75-1.75h-1.75c-0.967,0-1.75,0.784-1.75,1.75
			L28.95,25.05c-0.892,0.248-1.739,0.597-2.529,1.041l-1.228-0.609c-0.684-0.684-1.791-0.684-2.475,0l-1.237,1.237
			c-0.683,0.683-0.683,1.791,0,2.474l0.611,1.229c-0.443,0.785-0.791,1.629-1.039,2.517l-1.304,0.437c-0.967,0-1.75,0.783-1.75,1.75
			v1.75c0,0.967,0.783,1.75,1.75,1.75l1.305,0.438c0.247,0.887,0.595,1.731,1.038,2.517l-0.611,1.228
			c-0.683,0.684-0.683,1.791,0,2.475l1.237,1.237c0.684,0.684,1.791,0.684,2.475,0l1.229-0.61c0.785,0.443,1.629,0.791,2.516,1.038
			l0.438,1.305c0,0.967,0.783,1.75,1.75,1.75h1.75c0.967,0,1.75-0.783,1.75-1.75l0.438-1.305c0.891-0.248,1.736-0.598,2.524-1.044
			l1.219,0.616c0.684,0.684,1.791,0.684,2.475,0l1.237-1.237c0.684-0.684,0.684-1.791,0-2.475L41.9,41.589
			c0.447-0.792,0.799-1.642,1.048-2.537l1.302-0.428c0.967,0,1.75-0.783,1.75-1.75v-1.75C46,34.157,45.217,33.374,44.25,33.374z
			 M32,42c-3.313,0-6-2.687-6-6c0-3.314,2.687-6.001,6-6.001s6,2.687,6,6.001C38,39.313,35.313,42,32,42z"/>
	</g>
</g>
<g>
</g>
<g>
</g>
<g>
</g>
<g>
</g>
<g>
</g>
<g>
</g>
<g>
</g>
<g>
</g>
<g>
</g>
<g>
</g>
<g>
</g>
<g>
</g>
<g>
</g>
<g>
</g>
<g>
</g>
</svg>
