<?xml version="1.0" encoding="iso-8859-1"?>
<!-- Generator: Adobe Illustrator 16.0.0, SVG Export Plug-In . SVG Version: 6.00 Build 0)  -->
<!DOCTYPE svg PUBLIC "-//W3C//DTD SVG 1.1//EN" "http://www.w3.org/Graphics/SVG/1.1/DTD/svg11.dtd">
<svg version="1.1" id="Layer_1" xmlns="http://www.w3.org/2000/svg" xmlns:xlink="http://www.w3.org/1999/xlink" x="0px" y="0px"
	 width="66.017px" height="65.997px" viewBox="0 0 66.017 65.997" style="enable-background:new 0 0 66.017 65.997;"
	 xml:space="preserve">
<g id="Folder_36_">
	<g>
		<path style="fill-rule:evenodd;clip-rule:evenodd;fill:#CCA352;" d="M60,3.999H24C24,1.791,22.209,0,20,0H4
			C1.791,0,0,1.791,0,3.999v4V14v2c0,2.209,1.791,4.001,4,4.001h56c2.209,0,4-1.792,4-4.001V7.999C64,5.791,62.209,3.999,60,3.999z"
			/>
	</g>
</g>
<g id="File_18_">
	<g>
		<path style="fill:#FFFFFF;" d="M56,7.999H8c-2.209,0-4,1.792-4,4.001v4c0,2.209,1.791,4.001,4,4.001h48c2.209,0,4-1.792,4-4.001
			v-4C60,9.791,58.209,7.999,56,7.999z"/>
	</g>
</g>
<g id="Folder_37_">
	<g>
		<path style="fill-rule:evenodd;clip-rule:evenodd;fill:#FFCC66;" d="M43.772,52.248c-2.359-2.357-2.359-6.181,0-8.539
			c2.358-2.357,6.181-2.357,8.54,0l1.646,1.646l1.658-1.658c2.309-2.312,6.009-2.349,8.384-0.146V16c0-2.209-1.791-4-4-4H4
			c-2.209,0-4,1.791-4,4v40.001C0,58.209,1.791,60,4,60h37.883c-0.015-1.568,0.57-3.142,1.768-4.339l1.768-1.768L43.772,52.248z"/>
	</g>
</g>
<g id="Remove_1_">
	<g>
		<path style="fill-rule:evenodd;clip-rule:evenodd;fill:#ED7161;" d="M61.43,58.727l-4.703-4.702l4.703-4.702
			c0.743-0.743,0.743-1.948,0-2.692c-0.743-0.742-1.948-0.742-2.691,0l-4.703,4.703l-4.762-4.762c-0.746-0.747-1.955-0.747-2.701,0
			c-0.746,0.745-0.746,1.954,0,2.701l4.763,4.762l-4.705,4.705c-0.743,0.744-0.743,1.948,0,2.69c0.743,0.743,1.947,0.743,2.69,0
			l4.705-4.705l4.703,4.702c0.746,0.748,1.955,0.748,2.701,0C62.176,60.683,62.176,59.472,61.43,58.727z"/>
	</g>
</g>
<g>
</g>
<g>
</g>
<g>
</g>
<g>
</g>
<g>
</g>
<g>
</g>
<g>
</g>
<g>
</g>
<g>
</g>
<g>
</g>
<g>
</g>
<g>
</g>
<g>
</g>
<g>
</g>
<g>
</g>
</svg>
