<?xml version="1.0" encoding="iso-8859-1"?>
<!-- Generator: Adobe Illustrator 16.0.0, SVG Export Plug-In . SVG Version: 6.00 Build 0)  -->
<!DOCTYPE svg PUBLIC "-//W3C//DTD SVG 1.1//EN" "http://www.w3.org/Graphics/SVG/1.1/DTD/svg11.dtd">
<svg version="1.1" id="Layer_1" xmlns="http://www.w3.org/2000/svg" xmlns:xlink="http://www.w3.org/1999/xlink" x="0px" y="0px"
	 width="64px" height="60.001px" viewBox="0 0 64 60.001" style="enable-background:new 0 0 64 60.001;" xml:space="preserve">
<g id="Folder_2_">
	<g>
		<path style="fill-rule:evenodd;clip-rule:evenodd;fill:#CCA352;" d="M60,4H24c0-2.209-1.791-4-4-4H4C1.791,0,0,1.791,0,4v3.999V14
			v2c0,2.209,1.791,4.001,4,4.001h56c2.209,0,4-1.792,4-4.001V7.999C64,5.791,62.209,4,60,4z"/>
	</g>
</g>
<g id="File_1_">
	<g>
		<path style="fill:#FFFFFF;" d="M56,7.999H8c-2.209,0-4,1.792-4,4V16c0,2.209,1.791,4.001,4,4.001h48c2.209,0,4-1.792,4-4.001
			v-4.001C60,9.791,58.209,7.999,56,7.999z"/>
	</g>
</g>
<g id="Folder_3_">
	<g>
		<path style="fill:#FFCC66;" d="M60,11.999H4c-2.209,0-4,1.792-4,4.001v40c0,2.209,1.791,4.001,4,4.001h56c2.209,0,4-1.792,4-4.001
			V16C64,13.791,62.209,11.999,60,11.999z"/>
	</g>
</g>
<g id="Star">
	<g>
		<path style="fill:#FFFFFF;" d="M45.925,31.822c-0.175-0.532-0.632-0.929-1.191-1.032l-7.625-1.422l-3.747-6.586
			c-0.274-0.482-0.794-0.783-1.356-0.783c-0.563,0-1.083,0.301-1.357,0.783l-3.746,6.586l-7.626,1.422
			c-0.56,0.104-1.016,0.5-1.19,1.032c-0.175,0.533-0.04,1.116,0.353,1.522l5.297,5.482l-0.961,7.45
			c-0.071,0.552,0.168,1.099,0.624,1.428C23.669,47.899,23.991,48,24.316,48c0.222,0,0.444-0.047,0.652-0.142l7.036-3.2l7.034,3.2
			C39.248,47.953,39.471,48,39.692,48c0.325,0,0.647-0.101,0.919-0.295c0.456-0.329,0.694-0.876,0.624-1.428l-0.961-7.45
			l5.298-5.482C45.964,32.938,46.1,32.355,45.925,31.822z"/>
	</g>
</g>
<g>
</g>
<g>
</g>
<g>
</g>
<g>
</g>
<g>
</g>
<g>
</g>
<g>
</g>
<g>
</g>
<g>
</g>
<g>
</g>
<g>
</g>
<g>
</g>
<g>
</g>
<g>
</g>
<g>
</g>
</svg>
