<?xml version="1.0" encoding="iso-8859-1"?>
<!-- Generator: Adobe Illustrator 16.0.0, SVG Export Plug-In . SVG Version: 6.00 Build 0)  -->
<!DOCTYPE svg PUBLIC "-//W3C//DTD SVG 1.1//EN" "http://www.w3.org/Graphics/SVG/1.1/DTD/svg11.dtd">
<svg version="1.1" id="Layer_1" xmlns="http://www.w3.org/2000/svg" xmlns:xlink="http://www.w3.org/1999/xlink" x="0px" y="0px"
	 width="64px" height="61.999px" viewBox="0 0 64 61.999" style="enable-background:new 0 0 64 61.999;" xml:space="preserve">
<g id="Folder_46_">
	<g>
		<path style="fill-rule:evenodd;clip-rule:evenodd;fill:#CCA352;" d="M60,3.999H24C24,1.791,22.209,0,20,0H4
			C1.791,0,0,1.791,0,3.999v4V14v2c0,2.209,1.791,4.001,4,4.001h56c2.209,0,4-1.792,4-4.001V7.999C64,5.791,62.209,3.999,60,3.999z"
			/>
	</g>
</g>
<g id="File_23_">
	<g>
		<path style="fill:#FFFFFF;" d="M56,7.999H8c-2.209,0-4,1.792-4,4.001v4c0,2.209,1.791,4.001,4,4.001h48c2.209,0,4-1.792,4-4.001
			v-4C60,9.791,58.209,7.999,56,7.999z"/>
	</g>
</g>
<g id="Folder_47_">
	<g>
		<path style="fill:#FFCC66;" d="M60,12H4c-2.209,0-4,1.791-4,4v40.001C0,58.209,1.791,60,4,60h35.521
			C37.323,57.26,36,53.786,36,50.001c0-8.838,7.163-16,16-16c4.785,0,9.067,2.111,12,5.441V16C64,13.791,62.209,12,60,12z"/>
	</g>
</g>
<g id="Elipse_2_">
	<g>
		<circle style="fill:#88C057;" cx="52" cy="50" r="11.999"/>
	</g>
</g>
<g id="Plus">
	<g>
		<path style="fill:#FFFFFF;" d="M56,48.001h-2V46c0-1.104-0.895-2-2-2c-1.105,0-2,0.896-2,2v2.001h-2c-1.104,0-2,0.895-2,2
			c0,1.103,0.896,1.998,2,1.998h2v2c0,1.105,0.896,2.002,2,2.002c1.105,0,2-0.896,2-2.002v-2h2c1.105,0,2-0.896,2-1.998
			C58,48.896,57.106,48.001,56,48.001z"/>
	</g>
</g>
<g>
</g>
<g>
</g>
<g>
</g>
<g>
</g>
<g>
</g>
<g>
</g>
<g>
</g>
<g>
</g>
<g>
</g>
<g>
</g>
<g>
</g>
<g>
</g>
<g>
</g>
<g>
</g>
<g>
</g>
</svg>
