<?xml version="1.0" encoding="iso-8859-1"?>
<!-- Generator: Adobe Illustrator 16.0.0, SVG Export Plug-In . SVG Version: 6.00 Build 0)  -->
<!DOCTYPE svg PUBLIC "-//W3C//DTD SVG 1.1//EN" "http://www.w3.org/Graphics/SVG/1.1/DTD/svg11.dtd">
<svg version="1.1" id="Layer_1" xmlns="http://www.w3.org/2000/svg" xmlns:xlink="http://www.w3.org/1999/xlink" x="0px" y="0px"
	 width="64px" height="60.001px" viewBox="0 0 64 60.001" style="enable-background:new 0 0 64 60.001;" xml:space="preserve">
<g id="Folder_52_">
	<g>
		<path style="fill-rule:evenodd;clip-rule:evenodd;fill:#BA594C;" d="M60,4.001H24C24,1.792,22.209,0,20,0H4
			C1.791,0,0,1.792,0,4.001V8v6.001v2c0,2.21,1.791,4,4,4h56c2.209,0,4-1.79,4-4V8C64,5.791,62.209,4.001,60,4.001z"/>
	</g>
</g>
<g id="File_26_">
	<g>
		<path style="fill:#FFFFFF;" d="M56,8H8c-2.209,0-4,1.791-4,4.001v4c0,2.21,1.791,4,4,4h48c2.209,0,4-1.79,4-4v-4
			C60,9.791,58.209,8,56,8z"/>
	</g>
</g>
<g id="Folder_53_">
	<g>
		<path style="fill:#ED7261;" d="M60,12.001H4c-2.209,0-4,1.791-4,4v40c0,2.209,1.791,4,4,4h56c2.209,0,4-1.791,4-4v-40
			C64,13.792,62.209,12.001,60,12.001z"/>
	</g>
</g>
<g id="Attachment">
	<g>
		<path style="fill-rule:evenodd;clip-rule:evenodd;fill:#FFFFFF;" d="M43.661,24.336c-3.118-3.119-8.179-3.116-11.301,0.006
			c-0.004,0.004-0.007,0.009-0.011,0.013l-0.001-0.001L20.342,36.35l0.006,0.006c-0.001,0.002-0.003,0.003-0.005,0.005
			c-3.122,3.122-3.126,8.183-0.007,11.303c2.584,2.583,6.497,3.018,9.54,1.317c-1.673-0.083-3.321-0.755-4.599-2.033
			c-0.43-0.43-0.783-0.904-1.078-1.404c-0.366-0.186-0.717-0.414-1.023-0.721c-1.558-1.557-1.558-4.08-0.004-5.642l-0.005-0.005
			l2.022-2.023c0.032-0.033,0.058-0.07,0.09-0.103c0.023-0.023,0.052-0.039,0.075-0.063l2.695-2.696l2.24-2.241c0,0,0,0,0,0.001
			l2.067-2.068l2.81-2.811l0.019,0.019c0.056-0.063,0.098-0.134,0.158-0.194c1.516-1.516,4.006-1.482,5.563,0.073
			c1.557,1.557,1.589,4.047,0.073,5.563c-0.061,0.061-0.131,0.103-0.194,0.158l0.033,0.033l-9.882,9.883
			c-0.39,0.39-1.022,0.39-1.413,0c-0.39-0.391-0.39-1.022,0-1.412l7.1-7.086c0.743-0.778,0.73-2.018-0.043-2.791
			c-0.78-0.78-2.036-0.789-2.813-0.025l-0.002-0.002l-7.067,7.078l0.021,0.02c-0.084,0.073-0.177,0.129-0.256,0.208
			c-1.895,1.894-1.854,5.007,0.092,6.953c1.945,1.944,5.059,1.985,6.953,0.093c0.079-0.079,0.139-0.17,0.211-0.253l0.043,0.043
			l9.889-9.888l-0.002-0.002c0.002-0.002,0.004-0.003,0.006-0.005C46.777,32.514,46.78,27.455,43.661,24.336z"/>
	</g>
</g>
<g>
</g>
<g>
</g>
<g>
</g>
<g>
</g>
<g>
</g>
<g>
</g>
<g>
</g>
<g>
</g>
<g>
</g>
<g>
</g>
<g>
</g>
<g>
</g>
<g>
</g>
<g>
</g>
<g>
</g>
</svg>
