<?xml version="1.0" encoding="iso-8859-1"?>
<!-- Generator: Adobe Illustrator 16.0.0, SVG Export Plug-In . SVG Version: 6.00 Build 0)  -->
<!DOCTYPE svg PUBLIC "-//W3C//DTD SVG 1.1//EN" "http://www.w3.org/Graphics/SVG/1.1/DTD/svg11.dtd">
<svg version="1.1" id="Layer_1" xmlns="http://www.w3.org/2000/svg" xmlns:xlink="http://www.w3.org/1999/xlink" x="0px" y="0px"
	 width="64px" height="60.001px" viewBox="0 0 64 60.001" style="enable-background:new 0 0 64 60.001;" xml:space="preserve">
<g id="Folder_14_">
	<g>
		<path style="fill-rule:evenodd;clip-rule:evenodd;fill:#387BA8;" d="M60,4H24c0-2.209-1.791-4-4-4H4C1.791,0,0,1.791,0,4v3.999V14
			v2c0,2.209,1.791,4.001,4,4.001h56c2.209,0,4-1.792,4-4.001V7.999C64,5.791,62.209,4,60,4z"/>
	</g>
</g>
<g id="File_7_">
	<g>
		<path style="fill:#FFFFFF;" d="M56,7.999H8c-2.209,0-4,1.792-4,4V16c0,2.209,1.791,4.001,4,4.001h48c2.209,0,4-1.792,4-4.001
			v-4.001C60,9.791,58.209,7.999,56,7.999z"/>
	</g>
</g>
<g id="Folder_15_">
	<g>
		<path style="fill:#48A0DC;" d="M60,11.999H4c-2.209,0-4,1.792-4,4.001v40c0,2.209,1.791,4.001,4,4.001h56c2.209,0,4-1.792,4-4.001
			V16C64,13.791,62.209,11.999,60,11.999z"/>
	</g>
</g>
<g id="Arrow_1_">
	<g>
		<path style="fill-rule:evenodd;clip-rule:evenodd;fill:#FFFFFF;" d="M39.35,36.583c-0.81-0.807-2.123-0.807-2.933,0L34,38.991
			V27.998c0-1.105-0.896-2.001-2-2.001c-1.105,0-2,0.896-2,2.001v11.09l-2.491-2.499c-0.806-0.811-2.114-0.811-2.92,0
			c-0.807,0.808-0.807,2.121,0,2.93l5.841,5.86c0.324,0.325,0.729,0.51,1.149,0.573c0.136,0.029,0.276,0.046,0.421,0.046
			c0.561,0,1.066-0.232,1.43-0.604c0.017-0.016,0.038-0.024,0.054-0.041l5.866-5.846C40.16,38.698,40.16,37.392,39.35,36.583z"/>
	</g>
</g>
<g>
</g>
<g>
</g>
<g>
</g>
<g>
</g>
<g>
</g>
<g>
</g>
<g>
</g>
<g>
</g>
<g>
</g>
<g>
</g>
<g>
</g>
<g>
</g>
<g>
</g>
<g>
</g>
<g>
</g>
</svg>
