<?xml version="1.0" encoding="iso-8859-1"?>
<!-- Generator: Adobe Illustrator 16.0.0, SVG Export Plug-In . SVG Version: 6.00 Build 0)  -->
<!DOCTYPE svg PUBLIC "-//W3C//DTD SVG 1.1//EN" "http://www.w3.org/Graphics/SVG/1.1/DTD/svg11.dtd">
<svg version="1.1" id="Layer_1" xmlns="http://www.w3.org/2000/svg" xmlns:xlink="http://www.w3.org/1999/xlink" x="0px" y="0px"
	 width="64px" height="60.001px" viewBox="0 0 64 60.001" style="enable-background:new 0 0 64 60.001;" xml:space="preserve">
<g id="Folder_50_">
	<g>
		<path style="fill-rule:evenodd;clip-rule:evenodd;fill:#6D5778;" d="M60,4.001H24C24,1.792,22.209,0,20,0H4
			C1.791,0,0,1.792,0,4.001V8v6.001v2c0,2.21,1.791,4,4,4h56c2.209,0,4-1.79,4-4V8C64,5.791,62.209,4.001,60,4.001z"/>
	</g>
</g>
<g id="File_25_">
	<g>
		<path style="fill:#FFFFFF;" d="M56,8H8c-2.209,0-4,1.791-4,4.001v4c0,2.21,1.791,4,4,4h48c2.209,0,4-1.79,4-4v-4
			C60,9.791,58.209,8,56,8z"/>
	</g>
</g>
<g id="Folder_51_">
	<g>
		<path style="fill:#9B7CAB;" d="M60,12.001H4c-2.209,0-4,1.791-4,4v40c0,2.209,1.791,4,4,4h56c2.209,0,4-1.791,4-4v-40
			C64,13.792,62.209,12.001,60,12.001z"/>
	</g>
</g>
<g id="Share">
	<g>
		<path style="fill-rule:evenodd;clip-rule:evenodd;fill:#FFFFFF;" d="M40,38c-1.585,0-3.022,0.619-4.095,1.623l-5.951-2.909
			C29.981,36.479,30,36.242,30,36c0-0.241-0.019-0.479-0.046-0.712l5.951-2.909c1.073,1.003,2.51,1.622,4.095,1.622
			c3.313,0,6-2.687,6-6.001c0-3.313-2.687-6-6-6c-3.314,0-6,2.687-6,6c0,0.248,0.02,0.491,0.049,0.73l-5.941,2.905
			c-1.074-1.011-2.517-1.635-4.107-1.635c-3.314,0-6,2.687-6,5.999c0,3.313,2.686,6,6,6c1.591,0,3.033-0.623,4.106-1.634
			l5.942,2.905C34.02,43.511,34,43.753,34,44c0,3.314,2.686,6.001,6,6.001c3.313,0,6-2.687,6-6.001C46,40.687,43.313,38,40,38z"/>
	</g>
</g>
<g>
</g>
<g>
</g>
<g>
</g>
<g>
</g>
<g>
</g>
<g>
</g>
<g>
</g>
<g>
</g>
<g>
</g>
<g>
</g>
<g>
</g>
<g>
</g>
<g>
</g>
<g>
</g>
<g>
</g>
</svg>
