<?xml version="1.0" encoding="iso-8859-1"?>
<!-- Generator: Adobe Illustrator 16.0.0, SVG Export Plug-In . SVG Version: 6.00 Build 0)  -->
<!DOCTYPE svg PUBLIC "-//W3C//DTD SVG 1.1//EN" "http://www.w3.org/Graphics/SVG/1.1/DTD/svg11.dtd">
<svg version="1.1" id="Layer_1" xmlns="http://www.w3.org/2000/svg" xmlns:xlink="http://www.w3.org/1999/xlink" x="0px" y="0px"
	 width="64px" height="60.001px" viewBox="0 0 64 60.001" style="enable-background:new 0 0 64 60.001;" xml:space="preserve">
<g id="Folder_6_">
	<g>
		<path style="fill-rule:evenodd;clip-rule:evenodd;fill:#638C3F;" d="M60,4H24c0-2.209-1.791-4-4-4H4C1.791,0,0,1.791,0,4v3.999V14
			v2c0,2.209,1.791,4.001,4,4.001h56c2.209,0,4-1.792,4-4.001V7.999C64,5.791,62.209,4,60,4z"/>
	</g>
</g>
<g id="File_3_">
	<g>
		<path style="fill:#FFFFFF;" d="M56,7.999H8c-2.209,0-4,1.792-4,4V16c0,2.209,1.791,4.001,4,4.001h48c2.209,0,4-1.792,4-4.001
			v-4.001C60,9.791,58.209,7.999,56,7.999z"/>
	</g>
</g>
<g id="Folder_7_">
	<g>
		<path style="fill:#88C057;" d="M60,11.999H4c-2.209,0-4,1.792-4,4.001v40c0,2.209,1.791,4.001,4,4.001h56c2.209,0,4-1.792,4-4.001
			V16C64,13.791,62.209,11.999,60,11.999z"/>
	</g>
</g>
<g id="Refresh">
	<g>
		<path style="fill-rule:evenodd;clip-rule:evenodd;fill:#FFFFFF;" d="M20,34h8c1.104,0,2-0.896,2-2.001c0-1.104-0.896-2-2-2h-3.989
			c1.823-2.427,4.72-4,7.989-4c4.838,0,8.873,3.436,9.799,8.001h4.042C44.868,27.217,39.051,21.999,32,21.999
			c-3.924,0-7.462,1.62-10,4.223V24c0-1.105-0.896-2.001-2-2.001S18,22.895,18,24v7.999C18,33.104,18.896,34,20,34z M44,37.999h-8
			c-1.104,0-2,0.896-2,2C34,41.104,34.896,42,36,42h3.989c-1.824,2.427-4.72,3.999-7.989,3.999c-4.839,0-8.873-3.436-9.799-7.999
			l-4.042-0.001C19.131,44.781,24.948,50,32,50c3.924,0,7.462-1.62,10-4.223v2.222C42,49.104,42.896,50,44,50s2-0.896,2-2.001v-8
			C46,38.895,45.104,37.999,44,37.999z"/>
	</g>
</g>
<g>
</g>
<g>
</g>
<g>
</g>
<g>
</g>
<g>
</g>
<g>
</g>
<g>
</g>
<g>
</g>
<g>
</g>
<g>
</g>
<g>
</g>
<g>
</g>
<g>
</g>
<g>
</g>
<g>
</g>
</svg>
