<?xml version="1.0" encoding="iso-8859-1"?>
<!-- Generator: Adobe Illustrator 16.0.0, SVG Export Plug-In . SVG Version: 6.00 Build 0)  -->
<!DOCTYPE svg PUBLIC "-//W3C//DTD SVG 1.1//EN" "http://www.w3.org/Graphics/SVG/1.1/DTD/svg11.dtd">
<svg version="1.1" id="Layer_1" xmlns="http://www.w3.org/2000/svg" xmlns:xlink="http://www.w3.org/1999/xlink" x="0px" y="0px"
	 width="64px" height="60px" viewBox="0 0 64 60" style="enable-background:new 0 0 64 60;" xml:space="preserve">
<g id="Folder_16_">
	<g>
		<path style="fill-rule:evenodd;clip-rule:evenodd;fill:#387BA8;" d="M60,4H24c0-2.209-1.791-4-4-4H4C1.791,0,0,1.791,0,4v4v6
			v2.001c0,2.209,1.791,4,4,4h56c2.209,0,4-1.791,4-4V8C64,5.79,62.209,4,60,4z"/>
	</g>
</g>
<g id="File_8_">
	<g>
		<path style="fill:#FFFFFF;" d="M56,8H8c-2.209,0-4,1.79-4,4v4.001c0,2.209,1.791,4,4,4h48c2.209,0,4-1.791,4-4V12
			C60,9.79,58.209,8,56,8z"/>
	</g>
</g>
<g id="Folder_17_">
	<g>
		<path style="fill:#48A0DC;" d="M60,12H4c-2.209,0-4,1.791-4,4.001V56c0,2.209,1.791,4,4,4h56c2.209,0,4-1.791,4-4V16.001
			C64,13.791,62.209,12,60,12z"/>
	</g>
</g>
<g id="Play">
	<g>
		<path style="fill-rule:evenodd;clip-rule:evenodd;fill:#FFFFFF;" d="M41.008,33.93L29.33,26.516
			c-0.291-0.26-0.654-0.434-1.06-0.489c-0.041-0.007-0.081-0.009-0.122-0.013c-0.05-0.003-0.098-0.015-0.148-0.015
			c-0.028,0-0.055,0.007-0.083,0.009c-0.06,0.002-0.118,0.009-0.179,0.018c-0.08,0.011-0.158,0.023-0.235,0.044
			c-0.024,0.006-0.048,0.014-0.071,0.021C26.606,26.337,26,27.095,26,28v16c0,0.902,0.602,1.656,1.423,1.905
			c0.029,0.01,0.058,0.02,0.087,0.027c0.071,0.018,0.144,0.029,0.218,0.04c0.065,0.01,0.131,0.018,0.197,0.02
			C27.95,45.993,27.975,46,28,46c0.046,0,0.09-0.011,0.135-0.014c0.048-0.004,0.095-0.007,0.143-0.015
			c0.4-0.056,0.762-0.229,1.049-0.485l11.682-7.415c0.688-0.437,1.041-1.256,0.98-2.071C42.049,35.186,41.695,34.366,41.008,33.93z
			 M30,31.98l6.332,4.021L30,40.02V31.98z"/>
	</g>
</g>
<g>
</g>
<g>
</g>
<g>
</g>
<g>
</g>
<g>
</g>
<g>
</g>
<g>
</g>
<g>
</g>
<g>
</g>
<g>
</g>
<g>
</g>
<g>
</g>
<g>
</g>
<g>
</g>
<g>
</g>
</svg>
