<?xml version="1.0" encoding="iso-8859-1"?>
<!-- Generator: Adobe Illustrator 16.0.0, SVG Export Plug-In . SVG Version: 6.00 Build 0)  -->
<!DOCTYPE svg PUBLIC "-//W3C//DTD SVG 1.1//EN" "http://www.w3.org/Graphics/SVG/1.1/DTD/svg11.dtd">
<svg version="1.1" id="Layer_1" xmlns="http://www.w3.org/2000/svg" xmlns:xlink="http://www.w3.org/1999/xlink" x="0px" y="0px"
	 width="64px" height="60px" viewBox="0 0 64 60" style="enable-background:new 0 0 64 60;" xml:space="preserve">
<g id="Folder_26_">
	<g>
		<path style="fill-rule:evenodd;clip-rule:evenodd;fill:#999999;" d="M60,4H24c0-2.209-1.791-4-4-4H4C1.791,0,0,1.791,0,4v4v6
			v2.001c0,2.209,1.791,4,4,4h56c2.209,0,4-1.791,4-4V8C64,5.79,62.209,4,60,4z"/>
	</g>
</g>
<g id="File_13_">
	<g>
		<path style="fill:#FFFFFF;" d="M56,8H8c-2.209,0-4,1.79-4,4v4.001c0,2.209,1.791,4,4,4h48c2.209,0,4-1.791,4-4V12
			C60,9.79,58.209,8,56,8z"/>
	</g>
</g>
<g id="Folder_27_">
	<g>
		<path style="fill:#CCCCCC;" d="M60,12H4c-2.209,0-4,1.791-4,4.001V56c0,2.209,1.791,4,4,4h56c2.209,0,4-1.791,4-4V16.001
			C64,13.791,62.209,12,60,12z"/>
	</g>
</g>
<g id="T">
	<g>
		<path style="fill-rule:evenodd;clip-rule:evenodd;fill:#FFFFFF;" d="M40,24H24c-1.104,0-2,0.896-2,2v3.999
			C22,31.104,22.896,32,24,32s2-0.896,2-2.001V28h4v16h-2c-1.104,0-2,0.896-2,2s0.896,2,2,2h8c1.104,0,2-0.896,2-2s-0.896-2-2-2h-2
			V28h4v1.999C38,31.104,38.896,32,40,32s2-0.896,2-2.001V26C42,24.896,41.104,24,40,24z"/>
	</g>
</g>
<g>
</g>
<g>
</g>
<g>
</g>
<g>
</g>
<g>
</g>
<g>
</g>
<g>
</g>
<g>
</g>
<g>
</g>
<g>
</g>
<g>
</g>
<g>
</g>
<g>
</g>
<g>
</g>
<g>
</g>
</svg>
