<?xml version="1.0" encoding="iso-8859-1"?>
<!-- Generator: Adobe Illustrator 16.0.0, SVG Export Plug-In . SVG Version: 6.00 Build 0)  -->
<!DOCTYPE svg PUBLIC "-//W3C//DTD SVG 1.1//EN" "http://www.w3.org/Graphics/SVG/1.1/DTD/svg11.dtd">
<svg version="1.1" id="Layer_1" xmlns="http://www.w3.org/2000/svg" xmlns:xlink="http://www.w3.org/1999/xlink" x="0px" y="0px"
	 width="68px" height="65.999px" viewBox="0 0 68 65.999" style="enable-background:new 0 0 68 65.999;" xml:space="preserve">
<g id="Folder_42_">
	<g>
		<path style="fill-rule:evenodd;clip-rule:evenodd;fill:#CCA352;" d="M60,3.999H24C24,1.791,22.209,0,20,0H4
			C1.791,0,0,1.791,0,3.999v4V14v2c0,2.209,1.791,4.001,4,4.001h56c2.209,0,4-1.792,4-4.001V7.999C64,5.791,62.209,3.999,60,3.999z"
			/>
	</g>
</g>
<g id="File_21_">
	<g>
		<path style="fill:#FFFFFF;" d="M56,7.999H8c-2.209,0-4,1.792-4,4.001v4c0,2.209,1.791,4.001,4,4.001h48c2.209,0,4-1.792,4-4.001
			v-4C60,9.791,58.209,7.999,56,7.999z"/>
	</g>
</g>
<g id="Folder_43_">
	<g>
		<path style="fill-rule:evenodd;clip-rule:evenodd;fill:#FFCC66;" d="M40,50c0-1.576,0.92-2.926,2.245-3.578
			C42.084,45.64,42,44.83,42,44c0-6.628,5.372-12,12-12c4.176,0,7.851,2.136,10,5.372V16c0-2.209-1.791-4-4-4H4
			c-2.209,0-4,1.791-4,4v40.001C0,58.209,1.791,60,4,60h36V50z"/>
	</g>
</g>
<g id="Lock_1_">
	<g>
		<path style="fill-rule:evenodd;clip-rule:evenodd;fill:#88C057;" d="M62,49.998v-5.999c0-4.419-3.582-8-8-8c-4.419,0-8,3.581-8,8
			v2h4v-2c0-2.209,1.791-4,4-4s4,1.791,4,4v5.999h-8h-4c-1.104,0-2,0.896-2,2.001v7.999c0,1.106,0.896,2.001,2,2.001h16
			c1.104,0,2-0.895,2-2.001v-7.999C64,50.894,63.104,49.998,62,49.998z M54,57.999c-1.104,0-2-0.896-2-2s0.896-2,2-2s2,0.896,2,2
			S55.104,57.999,54,57.999z"/>
	</g>
</g>
<g>
</g>
<g>
</g>
<g>
</g>
<g>
</g>
<g>
</g>
<g>
</g>
<g>
</g>
<g>
</g>
<g>
</g>
<g>
</g>
<g>
</g>
<g>
</g>
<g>
</g>
<g>
</g>
<g>
</g>
</svg>
