<?xml version="1.0" encoding="iso-8859-1"?>
<!-- Generator: Adobe Illustrator 16.0.0, SVG Export Plug-In . SVG Version: 6.00 Build 0)  -->
<!DOCTYPE svg PUBLIC "-//W3C//DTD SVG 1.1//EN" "http://www.w3.org/Graphics/SVG/1.1/DTD/svg11.dtd">
<svg version="1.1" id="Layer_1" xmlns="http://www.w3.org/2000/svg" xmlns:xlink="http://www.w3.org/1999/xlink" x="0px" y="0px"
	 width="64px" height="60.001px" viewBox="0 0 64 60.001" style="enable-background:new 0 0 64 60.001;" xml:space="preserve">
<g id="Folder_58_">
	<g>
		<path style="fill-rule:evenodd;clip-rule:evenodd;fill:#CCA352;" d="M60,4.001H24C24,1.792,22.209,0,20,0H4
			C1.791,0,0,1.792,0,4.001V8v6.001V36c0,2.21,1.791,4.001,4,4.001h56c2.209,0,4-1.791,4-4.001V8C64,5.791,62.209,4.001,60,4.001z"
			/>
	</g>
</g>
<g id="File_28_">
	<g>
		<path style="fill:#FFFFFF;" d="M58,8.001H6c-1.104,0-2,0.896-2,2v22.001h56V10.001C60,8.896,59.104,8.001,58,8.001z"/>
	</g>
</g>
<g id="Text">
	<g>
		<path style="fill:#CCCCCC;" d="M34,24.001H18c-1.104,0-2,0.896-2,2s0.896,2,2,2h16c1.104,0,2-0.896,2-2S35.104,24.001,34,24.001z
			 M46,16.001H18c-1.104,0-2,0.896-2,2s0.896,2,2,2h28c1.104,0,2-0.896,2-2S47.104,16.001,46,16.001z"/>
	</g>
</g>
<g id="Folder_59_">
	<g>
		<path style="fill:#FFCC66;" d="M60,32.001H4c-2.209,0-4,1.791-4,3.999v20.001c0,2.209,1.791,4,4,4h56c2.209,0,4-1.791,4-4V36
			C64,33.792,62.209,32.001,60,32.001z"/>
	</g>
</g>
<g>
</g>
<g>
</g>
<g>
</g>
<g>
</g>
<g>
</g>
<g>
</g>
<g>
</g>
<g>
</g>
<g>
</g>
<g>
</g>
<g>
</g>
<g>
</g>
<g>
</g>
<g>
</g>
<g>
</g>
</svg>
