<?xml version="1.0" encoding="iso-8859-1"?>
<!-- Generator: Adobe Illustrator 16.0.0, SVG Export Plug-In . SVG Version: 6.00 Build 0)  -->
<!DOCTYPE svg PUBLIC "-//W3C//DTD SVG 1.1//EN" "http://www.w3.org/Graphics/SVG/1.1/DTD/svg11.dtd">
<svg version="1.1" id="Layer_1" xmlns="http://www.w3.org/2000/svg" xmlns:xlink="http://www.w3.org/1999/xlink" x="0px" y="0px"
	 width="67.951px" height="64.06px" viewBox="0 0 67.951 64.06" style="enable-background:new 0 0 67.951 64.06;"
	 xml:space="preserve">
<g id="Folder_38_">
	<g>
		<path style="fill-rule:evenodd;clip-rule:evenodd;fill:#CCA352;" d="M60,3.999H24C24,1.791,22.209,0,20,0H4
			C1.791,0,0,1.791,0,3.999v4V14v2c0,2.209,1.791,4.001,4,4.001h56c2.209,0,4-1.792,4-4.001V7.999C64,5.791,62.209,3.999,60,3.999z"
			/>
	</g>
</g>
<g id="File_19_">
	<g>
		<path style="fill:#FFFFFF;" d="M56,7.999H8c-2.209,0-4,1.792-4,4.001v4c0,2.209,1.791,4.001,4,4.001h48c2.209,0,4-1.792,4-4.001
			v-4C60,9.791,58.209,7.999,56,7.999z"/>
	</g>
</g>
<g id="Folder_39_">
	<g>
		<path style="fill-rule:evenodd;clip-rule:evenodd;fill:#FFCC66;" d="M60,12H4c-2.209,0-4,1.791-4,4v40.001C0,58.209,1.791,60,4,60
			h41.398l-3.645-3.646c-2.361-2.357-2.361-6.181,0-8.538c2.355-2.357,6.181-2.357,8.538,0l1.602,1.602l5.723-5.722
			c1.728-1.729,4.234-2.181,6.384-1.384V16C64,13.791,62.209,12,60,12z"/>
	</g>
</g>
<g id="Ok_1_">
	<g>
		<path style="fill-rule:evenodd;clip-rule:evenodd;fill:#88C057;" d="M63.393,46.565c-0.788-0.789-2.065-0.789-2.854,0
			l-8.521,8.521l-4.509-4.517c-0.807-0.808-2.114-0.808-2.921,0c-0.807,0.809-0.807,2.118,0,2.927l5.841,5.851
			c0.208,0.208,0.449,0.36,0.707,0.461c0.745,0.344,1.654,0.215,2.269-0.4l9.988-9.987C64.181,48.632,64.181,47.353,63.393,46.565z"
			/>
	</g>
</g>
<g>
</g>
<g>
</g>
<g>
</g>
<g>
</g>
<g>
</g>
<g>
</g>
<g>
</g>
<g>
</g>
<g>
</g>
<g>
</g>
<g>
</g>
<g>
</g>
<g>
</g>
<g>
</g>
<g>
</g>
</svg>
