<?xml version="1.0" encoding="iso-8859-1"?>
<!-- Generator: Adobe Illustrator 16.0.0, SVG Export Plug-In . SVG Version: 6.00 Build 0)  -->
<!DOCTYPE svg PUBLIC "-//W3C//DTD SVG 1.1//EN" "http://www.w3.org/Graphics/SVG/1.1/DTD/svg11.dtd">
<svg version="1.1" id="Layer_1" xmlns="http://www.w3.org/2000/svg" xmlns:xlink="http://www.w3.org/1999/xlink" x="0px" y="0px"
	 width="66.006px" height="65.995px" viewBox="0 0 66.006 65.995" style="enable-background:new 0 0 66.006 65.995;"
	 xml:space="preserve">
<g id="Body_13_">
	<g>
		<path style="fill-rule:evenodd;clip-rule:evenodd;fill:#CCCCCC;" d="M64.006,44.811V9.983v-6.39c0-1.981-1.655-3.585-3.699-3.592
			C60.303,0.002,60.3,0,60.296,0H3.71C3.706,0,3.703,0.002,3.699,0.002C1.655,0.009,0,1.612,0,3.594v6.39v50.291
			c0,2.048,1.661,3.709,3.71,3.709h41.093c-4.067-2.449-6.797-6.895-6.797-11.988v-8c0-3.313,2.687-6,6-6
			c1.148,0,2.218,0.328,3.13,0.888c1.519-0.564,3.154-0.888,4.87-0.888C57.108,37.995,61.559,40.733,64.006,44.811z"/>
	</g>
</g>
<g id="Container_3_">
	<g>
		<path style="fill-rule:evenodd;clip-rule:evenodd;fill:#FFFFFF;" d="M58.006,3.996h-52c-1.104,0-2,0.896-2,2.001v5.997v1.999
			v12.001v18.001v5.998v2.003h56v-2.003v-5.998V31.997v-2v-12v-12C60.006,4.893,59.11,3.996,58.006,3.996z"/>
	</g>
</g>
<g id="Picture_4_">
	<g>
		<path style="fill-rule:evenodd;clip-rule:evenodd;fill:#75A64B;" d="M28.006,39.995l-8-10l-14,19.998h32v-5.998
			c0-3.313,2.687-6,6-6c1.146,0,2.215,0.327,3.126,0.886c0.612-0.228,1.244-0.419,1.895-0.561L38.006,23.995L28.006,39.995z"/>
	</g>
</g>
<g id="Sun_3_">
	<g>
		<circle style="fill:#FFCC66;" cx="18.006" cy="17.988" r="5.996"/>
	</g>
</g>
<g id="Refresh_3_">
	<g>
		<path style="fill-rule:evenodd;clip-rule:evenodd;fill:#48A0DC;" d="M50.006,51.995c1.104,0,2-0.896,2-2.002
			c0-1.104-0.896-1.999-2-1.999h-2.443c1.097-1.221,2.673-2,4.443-2c1.774,0,3.365,0.775,4.463,2.001h4.699
			c-1.543-3.53-5.063-6-9.162-6c-2.255,0-4.329,0.752-6,2.012v-0.012c0-1.105-0.896-2-2-2s-2,0.895-2,2v5.998
			c0,1.106,0.896,2.002,2,2.002H50.006z M60.006,51.994h-6c-1.105,0-2,0.896-2,2s0.895,2.001,2,2.001h2.442
			c-1.096,1.221-2.672,2-4.442,2c-1.775,0-3.365-0.775-4.464-2l-4.698-0.001c1.543,3.53,5.063,6.001,9.162,6.001
			c2.254,0,4.328-0.753,6-2.011v0.01c0,1.104,0.896,2.001,2,2.001s2-0.896,2-2.001v-6C62.006,52.89,61.11,51.994,60.006,51.994z"/>
	</g>
</g>
<g>
</g>
<g>
</g>
<g>
</g>
<g>
</g>
<g>
</g>
<g>
</g>
<g>
</g>
<g>
</g>
<g>
</g>
<g>
</g>
<g>
</g>
<g>
</g>
<g>
</g>
<g>
</g>
<g>
</g>
</svg>
