<?xml version="1.0" encoding="iso-8859-1"?>
<!-- Generator: Adobe Illustrator 16.0.0, SVG Export Plug-In . SVG Version: 6.00 Build 0)  -->
<!DOCTYPE svg PUBLIC "-//W3C//DTD SVG 1.1//EN" "http://www.w3.org/Graphics/SVG/1.1/DTD/svg11.dtd">
<svg version="1.1" id="Layer_1" xmlns="http://www.w3.org/2000/svg" xmlns:xlink="http://www.w3.org/1999/xlink" x="0px" y="0px"
	 width="70.75px" height="69.111px" viewBox="0 0 70.75 69.111" style="enable-background:new 0 0 70.75 69.111;"
	 xml:space="preserve">
<g id="Body_12_">
	<g>
		<path style="fill-rule:evenodd;clip-rule:evenodd;fill:#CCCCCC;" d="M60.307,0.002C60.303,0.002,60.3,0,60.296,0H3.71
			C3.706,0,3.703,0.002,3.699,0.002C1.655,0.009,0,1.612,0,3.594v6.39v50.291c0,2.048,1.661,3.709,3.71,3.709h41.683l-3.633-3.635
			c-2.361-2.357-2.361-6.18,0-8.537c2.355-2.357,6.181-2.357,8.538,0l0.185,0.185h2.834l4.306-4.304
			c1.728-1.73,4.234-2.183,6.384-1.385V9.983v-6.39C64.006,1.612,62.351,0.009,60.307,0.002z"/>
	</g>
</g>
<g id="Container_2_">
	<g>
		<path style="fill-rule:evenodd;clip-rule:evenodd;fill:#FFFFFF;" d="M58.006,3.996h-52c-1.104,0-2,0.896-2,2.001v5.997v1.999
			v12.001v18.001v5.998v2.003h56v-2.003v-5.998V31.997v-2v-12v-12C60.006,4.893,59.11,3.996,58.006,3.996z"/>
	</g>
</g>
<g id="Picture_3_">
	<g>
		<polygon style="fill-rule:evenodd;clip-rule:evenodd;fill:#75A64B;" points="56.887,48.538 38.006,23.995 28.006,39.995 
			20.006,29.995 6.006,49.993 55.423,49.993 		"/>
	</g>
</g>
<g id="Sun_2_">
	<g>
		<circle style="fill:#FFCC66;" cx="18.006" cy="17.988" r="5.996"/>
	</g>
</g>
<g id="Ok_3_">
	<g>
		<path style="fill-rule:evenodd;clip-rule:evenodd;fill:#88C057;" d="M63.398,50.562c-0.788-0.791-2.065-0.791-2.854,0l-8.521,8.52
			l-4.509-4.517c-0.807-0.808-2.114-0.808-2.921,0c-0.807,0.809-0.807,2.118,0,2.927l5.841,5.851
			c0.208,0.208,0.449,0.36,0.707,0.461c0.745,0.344,1.654,0.214,2.269-0.4l9.988-9.987C64.187,52.627,64.187,51.348,63.398,50.562z"
			/>
	</g>
</g>
<g>
</g>
<g>
</g>
<g>
</g>
<g>
</g>
<g>
</g>
<g>
</g>
<g>
</g>
<g>
</g>
<g>
</g>
<g>
</g>
<g>
</g>
<g>
</g>
<g>
</g>
<g>
</g>
<g>
</g>
</svg>
