<?xml version="1.0" encoding="iso-8859-1"?>
<!-- Generator: Adobe Illustrator 16.0.0, SVG Export Plug-In . SVG Version: 6.00 Build 0)  -->
<!DOCTYPE svg PUBLIC "-//W3C//DTD SVG 1.1//EN" "http://www.w3.org/Graphics/SVG/1.1/DTD/svg11.dtd">
<svg version="1.1" id="Layer_1" xmlns="http://www.w3.org/2000/svg" xmlns:xlink="http://www.w3.org/1999/xlink" x="0px" y="0px"
	 width="63.964px" height="55.94px" viewBox="0 0 63.964 55.94" style="enable-background:new 0 0 63.964 55.94;"
	 xml:space="preserve">
<g id="Body_9_">
	<g>
		<path style="fill:#CCCCCC;" d="M63.836,38.5L55.981,8.911L54.324,2.67c-0.514-1.936-2.532-3.069-4.512-2.54
			c-0.004,0-0.008-0.001-0.012,0L2.779,12.847c-0.004,0.002-0.006,0.004-0.01,0.005c-1.977,0.542-3.163,2.542-2.649,4.477
			l1.657,6.242l7.854,29.589c0.531,2.001,2.57,3.188,4.554,2.652l47.021-12.717C63.19,42.558,64.367,40.501,63.836,38.5z"/>
	</g>
</g>
<g id="Body_10_">
	<g>
		<path style="fill:#CCCCCC;" d="M56.345,5.731c-0.003,0-0.007-0.002-0.011-0.002H7.654c-0.005,0-0.008,0.002-0.012,0.002
			c-2.048,0.007-3.706,1.63-3.706,3.633v6.461v30.634c0,2.071,1.664,3.751,3.718,3.751h48.68c2.054,0,3.719-1.68,3.719-3.751V15.825
			V9.364C60.053,7.361,58.394,5.738,56.345,5.731z"/>
	</g>
</g>
<g id="Container">
	<g>
		<path style="fill:#FFFFFF;" d="M54.04,9.771H9.954c-1.107,0-2.004,0.906-2.004,2.023v6.064v2.022v12.135v12.135
			c0,1.118,0.896,2.024,2.004,2.024H54.04c1.106,0,2.004-0.906,2.004-2.024v-6.063v-2.022V23.931V11.795
			C56.044,10.678,55.146,9.771,54.04,9.771z"/>
	</g>
</g>
<g id="Picture_1_">
	<g>
		<polygon style="fill:#75A64B;" points="36.005,21.906 29.993,32.019 23.981,25.951 15.966,38.086 48.028,38.086 		"/>
	</g>
</g>
<g id="Sun">
	<g>
		<ellipse style="fill:#FFCC66;" cx="18.983" cy="18.883" rx="3.018" ry="3.046"/>
	</g>
</g>
<g>
</g>
<g>
</g>
<g>
</g>
<g>
</g>
<g>
</g>
<g>
</g>
<g>
</g>
<g>
</g>
<g>
</g>
<g>
</g>
<g>
</g>
<g>
</g>
<g>
</g>
<g>
</g>
<g>
</g>
</svg>
