<?xml version="1.0" encoding="iso-8859-1"?>
<!-- Generator: Adobe Illustrator 16.0.0, SVG Export Plug-In . SVG Version: 6.00 Build 0)  -->
<!DOCTYPE svg PUBLIC "-//W3C//DTD SVG 1.1//EN" "http://www.w3.org/Graphics/SVG/1.1/DTD/svg11.dtd">
<svg version="1.1" id="Layer_1" xmlns="http://www.w3.org/2000/svg" xmlns:xlink="http://www.w3.org/1999/xlink" x="0px" y="0px"
	 width="64.006px" height="63.983px" viewBox="0 0 64.006 63.983" style="enable-background:new 0 0 64.006 63.983;"
	 xml:space="preserve">
<g id="Body_17_">
	<g>
		<path style="fill:#CCCCCC;" d="M60.307,0.002C60.303,0.002,60.3,0,60.296,0H3.71C3.707,0,3.703,0.002,3.699,0.002
			C1.655,0.009,0,1.612,0,3.594v6.39v50.291c0,2.048,1.661,3.709,3.71,3.709h56.585c2.049,0,3.71-1.661,3.71-3.709V9.983v-6.39
			C64.006,1.612,62.351,0.009,60.307,0.002z"/>
	</g>
</g>
<g id="Container_7_">
	<g>
		<path style="fill-rule:evenodd;clip-rule:evenodd;fill:#FFFFFF;" d="M58.006,3.996h-52c-1.104,0-2,0.896-2,2.001v5.997v1.999
			v12.001v18.001v5.998v2.003h56v-2.003v-5.998V31.997v-2v-12v-12C60.006,4.893,59.11,3.996,58.006,3.996z"/>
	</g>
</g>
<g id="Picture_8_">
	<g>
		<polygon style="fill:#75A64B;" points="37.544,23.995 28.313,38.765 20.929,29.534 8.005,47.994 56.006,47.994 		"/>
	</g>
</g>
<g id="Sun_7_">
	<g>
		<circle style="fill:#FFCC66;" cx="18.006" cy="17.988" r="5.996"/>
	</g>
</g>
<g>
</g>
<g>
</g>
<g>
</g>
<g>
</g>
<g>
</g>
<g>
</g>
<g>
</g>
<g>
</g>
<g>
</g>
<g>
</g>
<g>
</g>
<g>
</g>
<g>
</g>
<g>
</g>
<g>
</g>
</svg>
