<?xml version="1.0" encoding="iso-8859-1"?>
<!-- Generator: Adobe Illustrator 16.0.0, SVG Export Plug-In . SVG Version: 6.00 Build 0)  -->
<!DOCTYPE svg PUBLIC "-//W3C//DTD SVG 1.1//EN" "http://www.w3.org/Graphics/SVG/1.1/DTD/svg11.dtd">
<svg version="1.1" id="Layer_1" xmlns="http://www.w3.org/2000/svg" xmlns:xlink="http://www.w3.org/1999/xlink" x="0px" y="0px"
	 width="68.022px" height="67.991px" viewBox="0 0 68.022 67.991" style="enable-background:new 0 0 68.022 67.991;"
	 xml:space="preserve">
<g id="Body_11_">
	<g>
		<path style="fill-rule:evenodd;clip-rule:evenodd;fill:#CCCCCC;" d="M47.424,55.889l-1.646-1.646
			c-2.359-2.357-2.359-6.182,0-8.539c2.358-2.358,6.181-2.358,8.54,0l1.646,1.646l1.658-1.657c1.728-1.73,4.234-2.183,6.384-1.385
			V9.983v-6.39c0-1.981-1.655-3.585-3.699-3.592C60.303,0.002,60.3,0,60.296,0H3.71C3.706,0,3.703,0.002,3.699,0.002
			C1.655,0.009,0,1.612,0,3.594v6.39v50.291c0,2.048,1.661,3.709,3.71,3.709h40.548c-0.768-2.137-0.313-4.614,1.398-6.328
			L47.424,55.889z"/>
	</g>
</g>
<g id="Container_1_">
	<g>
		<path style="fill-rule:evenodd;clip-rule:evenodd;fill:#FFFFFF;" d="M58.006,3.996h-52c-1.104,0-2,0.896-2,2.001v5.997v1.999
			v12.001v18.001v5.998v2.003h56v-2.003v-5.998V31.997v-2v-12v-12C60.006,4.893,59.11,3.996,58.006,3.996z"/>
	</g>
</g>
<g id="Picture_2_">
	<g>
		<path style="fill-rule:evenodd;clip-rule:evenodd;fill:#75A64B;" d="M45.818,45.75c2.352-2.362,6.165-2.362,8.517,0l1.649,1.654
			l0.017-0.017L38.006,23.995l-10,16l-8-10l-14,19.998h38.051C44.063,48.456,44.648,46.922,45.818,45.75z"/>
	</g>
</g>
<g id="Sun_1_">
	<g>
		<circle style="fill:#FFCC66;" cx="18.006" cy="17.988" r="5.996"/>
	</g>
</g>
<g id="Remove_3_">
	<g>
		<path style="fill-rule:evenodd;clip-rule:evenodd;fill:#ED7161;" d="M63.436,60.722l-4.703-4.702l4.703-4.702
			c0.743-0.743,0.743-1.948,0-2.691c-0.743-0.742-1.948-0.742-2.691,0l-4.703,4.703l-4.762-4.762c-0.746-0.748-1.955-0.748-2.701,0
			c-0.746,0.744-0.746,1.953,0,2.699l4.763,4.763l-4.705,4.705c-0.743,0.744-0.743,1.948,0,2.69c0.743,0.744,1.947,0.744,2.69,0
			l4.706-4.705l4.702,4.702c0.746,0.747,1.955,0.747,2.701,0C64.182,62.678,64.182,61.468,63.436,60.722z"/>
	</g>
</g>
<g>
</g>
<g>
</g>
<g>
</g>
<g>
</g>
<g>
</g>
<g>
</g>
<g>
</g>
<g>
</g>
<g>
</g>
<g>
</g>
<g>
</g>
<g>
</g>
<g>
</g>
<g>
</g>
<g>
</g>
</svg>
