<?xml version="1.0" encoding="iso-8859-1"?>
<!-- Generator: Adobe Illustrator 16.0.0, SVG Export Plug-In . SVG Version: 6.00 Build 0)  -->
<!DOCTYPE svg PUBLIC "-//W3C//DTD SVG 1.1//EN" "http://www.w3.org/Graphics/SVG/1.1/DTD/svg11.dtd">
<svg version="1.1" id="Layer_1" xmlns="http://www.w3.org/2000/svg" xmlns:xlink="http://www.w3.org/1999/xlink" x="0px" y="0px"
	 width="68.006px" height="67.995px" viewBox="0 0 68.006 67.995" style="enable-background:new 0 0 68.006 67.995;"
	 xml:space="preserve">
<g id="Body_15_">
	<g>
		<path style="fill-rule:evenodd;clip-rule:evenodd;fill:#CCCCCC;" d="M36.006,51.996c0-8.838,7.163-16.001,16-16.001
			c4.786,0,9.068,2.111,12,5.441V9.983v-6.39c0-1.981-1.655-3.585-3.699-3.592C60.303,0.002,60.3,0,60.296,0H3.71
			C3.706,0,3.703,0.002,3.699,0.002C1.655,0.009,0,1.612,0,3.594v6.39v50.291c0,2.048,1.661,3.709,3.71,3.709h37.724
			C38.112,61.052,36.006,56.774,36.006,51.996z"/>
	</g>
</g>
<g id="Container_5_">
	<g>
		<path style="fill-rule:evenodd;clip-rule:evenodd;fill:#FFFFFF;" d="M58.006,3.996h-52c-1.104,0-2,0.896-2,2.001v5.997v1.999
			v12.001v18.001v5.998v2.003h56v-2.003v-5.998V31.997v-2v-12v-12C60.006,4.893,59.11,3.996,58.006,3.996z"/>
	</g>
</g>
<g id="Picture_6_">
	<g>
		<path style="fill-rule:evenodd;clip-rule:evenodd;fill:#75A64B;" d="M47.701,36.598l-9.695-12.603l-10,16l-8-10l-14,19.998h30.139
			C36.951,43.548,41.583,38.306,47.701,36.598z"/>
	</g>
</g>
<g id="Sun_5_">
	<g>
		<circle style="fill:#FFCC66;" cx="18.006" cy="17.988" r="5.996"/>
	</g>
</g>
<g id="Elipse_7_">
	<g>
		<circle style="fill:#ED7161;" cx="52.006" cy="51.996" r="12"/>
	</g>
</g>
<g id="Minus_2_">
	<g>
		<path style="fill:#FFFFFF;" d="M56.006,49.995h-8c-1.105,0-2,0.895-2,2c0,1.104,0.895,1.999,2,1.999h8c1.104,0,2-0.896,2-1.999
			C58.006,50.89,57.11,49.995,56.006,49.995z"/>
	</g>
</g>
<g>
</g>
<g>
</g>
<g>
</g>
<g>
</g>
<g>
</g>
<g>
</g>
<g>
</g>
<g>
</g>
<g>
</g>
<g>
</g>
<g>
</g>
<g>
</g>
<g>
</g>
<g>
</g>
<g>
</g>
</svg>
