<?xml version="1.0" encoding="iso-8859-1"?>
<!-- Generator: Adobe Illustrator 16.0.0, SVG Export Plug-In . SVG Version: 6.00 Build 0)  -->
<!DOCTYPE svg PUBLIC "-//W3C//DTD SVG 1.1//EN" "http://www.w3.org/Graphics/SVG/1.1/DTD/svg11.dtd">
<svg version="1.1" id="Layer_1" xmlns="http://www.w3.org/2000/svg" xmlns:xlink="http://www.w3.org/1999/xlink" x="0px" y="0px"
	 width="64.006px" height="63.983px" viewBox="0 0 64.006 63.983" style="enable-background:new 0 0 64.006 63.983;"
	 xml:space="preserve">
<g id="Body_8_">
	<g>
		<path style="fill:#CCCCCC;" d="M60.307,0.002C60.303,0.002,60.3,0,60.296,0H3.71C3.707,0,3.703,0.002,3.699,0.002
			C1.655,0.008,0,1.613,0,3.594v6.39v50.291c0,2.048,1.661,3.709,3.71,3.709h56.585c2.049,0,3.71-1.661,3.71-3.709V9.983v-6.39
			C64.006,1.613,62.351,0.008,60.307,0.002z"/>
	</g>
</g>
<g id="Film_Strip_7_">
	<g>
		<path style="fill-rule:evenodd;clip-rule:evenodd;fill:#FFFFFF;" d="M18.006,29.995h28v-26h-28V29.995z M18.006,59.995h28v-26h-28
			V59.995z M4.006,9.996h10V3.995h-10V9.996z M4.006,19.995h10v-6h-10V19.995z M4.006,29.995h10v-6h-10V29.995z M4.006,39.995h10v-6
			h-10V39.995z M4.006,49.995h10v-5.999h-10V49.995z M4.006,59.995h10v-6h-10V59.995z M50.006,3.995v6.001h10V3.995H50.006z
			 M50.006,19.995h10v-6h-10V19.995z M50.006,29.995h10v-6h-10V29.995z M50.006,39.995h10v-6h-10V39.995z M50.006,49.995h10v-5.999
			h-10V49.995z M50.006,59.995h10v-6h-10V59.995z"/>
	</g>
</g>
<g>
</g>
<g>
</g>
<g>
</g>
<g>
</g>
<g>
</g>
<g>
</g>
<g>
</g>
<g>
</g>
<g>
</g>
<g>
</g>
<g>
</g>
<g>
</g>
<g>
</g>
<g>
</g>
<g>
</g>
</svg>
