<?xml version="1.0" encoding="iso-8859-1"?>
<!-- Generator: Adobe Illustrator 16.0.0, SVG Export Plug-In . SVG Version: 6.00 Build 0)  -->
<!DOCTYPE svg PUBLIC "-//W3C//DTD SVG 1.1//EN" "http://www.w3.org/Graphics/SVG/1.1/DTD/svg11.dtd">
<svg version="1.1" id="Layer_1" xmlns="http://www.w3.org/2000/svg" xmlns:xlink="http://www.w3.org/1999/xlink" x="0px" y="0px"
	 width="68.006px" height="67.995px" viewBox="0 0 68.006 67.995" style="enable-background:new 0 0 68.006 67.995;"
	 xml:space="preserve">
<g id="Body_6_">
	<g>
		<path style="fill-rule:evenodd;clip-rule:evenodd;fill:#CCCCCC;" d="M36.006,51.996c0-8.837,7.163-16,16-16
			c4.786,0,9.068,2.111,12,5.441V9.983v-6.39c0-1.98-1.655-3.586-3.699-3.592C60.303,0.002,60.3,0,60.296,0H3.71
			C3.706,0,3.703,0.002,3.699,0.002C1.655,0.008,0,1.613,0,3.594v6.39v50.291c0,2.048,1.661,3.709,3.71,3.709h37.724
			C38.112,61.052,36.006,56.774,36.006,51.996z"/>
	</g>
</g>
<g id="Film_Strip_5_">
	<g>
		<path style="fill-rule:evenodd;clip-rule:evenodd;fill:#FFFFFF;" d="M18.006,29.995h28v-26h-28V29.995z M18.006,59.995h28v-26h-28
			V59.995z M4.006,9.996h10V3.995h-10V9.996z M4.006,19.995h10v-6h-10V19.995z M4.006,29.995h10v-6h-10V29.995z M4.006,39.995h10v-6
			h-10V39.995z M4.006,49.995h10v-5.999h-10V49.995z M4.006,59.995h10v-6h-10V59.995z M50.006,3.995v6.001h10V3.995H50.006z
			 M50.006,19.995h10v-6h-10V19.995z M50.006,29.995h10v-6h-10V29.995z M50.006,39.995h10v-6h-10V39.995z M50.006,49.995h10v-5.999
			h-10V49.995z M50.006,59.995h10v-6h-10V59.995z"/>
	</g>
</g>
<g id="Elipse_4_">
	<g>
		<circle style="fill:#ED7161;" cx="52.006" cy="51.996" r="12"/>
	</g>
</g>
<g id="Minus_1_">
	<g>
		<path style="fill:#FFFFFF;" d="M56.006,49.995h-8c-1.105,0-2,0.895-2,2c0,1.104,0.895,2,2,2h8c1.104,0,2-0.896,2-2
			C58.006,50.89,57.11,49.995,56.006,49.995z"/>
	</g>
</g>
<g>
</g>
<g>
</g>
<g>
</g>
<g>
</g>
<g>
</g>
<g>
</g>
<g>
</g>
<g>
</g>
<g>
</g>
<g>
</g>
<g>
</g>
<g>
</g>
<g>
</g>
<g>
</g>
<g>
</g>
</svg>
