<?xml version="1.0" encoding="iso-8859-1"?>
<!-- Generator: Adobe Illustrator 16.0.0, SVG Export Plug-In . SVG Version: 6.00 Build 0)  -->
<!DOCTYPE svg PUBLIC "-//W3C//DTD SVG 1.1//EN" "http://www.w3.org/Graphics/SVG/1.1/DTD/svg11.dtd">
<svg version="1.1" id="Layer_1" xmlns="http://www.w3.org/2000/svg" xmlns:xlink="http://www.w3.org/1999/xlink" x="0px" y="0px"
	 width="66.006px" height="67.995px" viewBox="0 0 66.006 67.995" style="enable-background:new 0 0 66.006 67.995;"
	 xml:space="preserve">
<g id="Body_4_">
	<g>
		<path style="fill-rule:evenodd;clip-rule:evenodd;fill:#CCCCCC;" d="M64.006,46.811V9.983v-6.39c0-1.98-1.655-3.586-3.699-3.592
			C60.303,0.002,60.3,0,60.296,0H3.71C3.706,0,3.703,0.002,3.699,0.002C1.655,0.008,0,1.613,0,3.594v6.39v50.291
			c0,2.048,1.661,3.709,3.71,3.709h38.494c-2.451-2.405-4.006-5.706-4.167-9.37c-0.021-0.203-0.031-0.409-0.031-0.618v-8
			c0-3.313,2.687-6,6-6c1.148,0,2.218,0.328,3.13,0.888c1.519-0.564,3.154-0.888,4.87-0.888
			C57.108,39.995,61.559,42.733,64.006,46.811z"/>
	</g>
</g>
<g id="Film_Strip_3_">
	<g>
		<path style="fill-rule:evenodd;clip-rule:evenodd;fill:#FFFFFF;" d="M18.006,29.995h28v-26h-28V29.995z M18.006,59.995h28v-26h-28
			V59.995z M4.006,9.996h10V3.995h-10V9.996z M4.006,19.995h10v-6h-10V19.995z M4.006,29.995h10v-6h-10V29.995z M4.006,39.995h10v-6
			h-10V39.995z M4.006,49.995h10v-5.999h-10V49.995z M4.006,59.995h10v-6h-10V59.995z M50.006,3.995v6.001h10V3.995H50.006z
			 M50.006,19.995h10v-6h-10V19.995z M50.006,29.995h10v-6h-10V29.995z M50.006,39.995h10v-6h-10V39.995z M50.006,49.995h10v-5.999
			h-10V49.995z M50.006,59.995h10v-6h-10V59.995z"/>
	</g>
</g>
<g id="Refresh_2_">
	<g>
		<path style="fill-rule:evenodd;clip-rule:evenodd;fill:#48A0DC;" d="M50.006,53.995c1.104,0,2-0.896,2-2.001c0-1.104-0.896-2-2-2
			h-2.442c1.096-1.22,2.672-1.999,4.442-1.999c1.774,0,3.365,0.775,4.463,2h4.699c-1.543-3.53-5.063-6-9.162-6
			c-2.255,0-4.329,0.752-6,2.012v-0.012c0-1.105-0.896-2.001-2-2.001s-2,0.896-2,2.001v5.999c0,1.105,0.896,2.001,2,2.001H50.006z
			 M61.124,54.337c-0.319-0.216-0.704-0.342-1.118-0.342h-6c-1.105,0-2,0.895-2,1.999c0,1.105,0.895,2.001,2,2.001h2.443
			c-1.097,1.221-2.673,2-4.443,2c-1.775,0-3.365-0.775-4.464-2h-4.698c1.543,3.53,5.063,6,9.162,6c2.254,0,4.328-0.753,6-2.011
			v0.009c0,1.106,0.896,2.002,2,2.002s2-0.896,2-2.002v-5.998c0-0.001,0-0.001,0-0.001C62.006,55.304,61.656,54.695,61.124,54.337z"
			/>
	</g>
</g>
<g>
</g>
<g>
</g>
<g>
</g>
<g>
</g>
<g>
</g>
<g>
</g>
<g>
</g>
<g>
</g>
<g>
</g>
<g>
</g>
<g>
</g>
<g>
</g>
<g>
</g>
<g>
</g>
<g>
</g>
</svg>
