<?xml version="1.0" encoding="iso-8859-1"?>
<!-- Generator: Adobe Illustrator 16.0.0, SVG Export Plug-In . SVG Version: 6.00 Build 0)  -->
<!DOCTYPE svg PUBLIC "-//W3C//DTD SVG 1.1//EN" "http://www.w3.org/Graphics/SVG/1.1/DTD/svg11.dtd">
<svg version="1.1" id="Layer_1" xmlns="http://www.w3.org/2000/svg" xmlns:xlink="http://www.w3.org/1999/xlink" x="0px" y="0px"
	 width="62.354px" height="62.324px" viewBox="0 0 62.354 62.324" style="enable-background:new 0 0 62.354 62.324;"
	 xml:space="preserve">
<g id="Body">
	<g>
		<path style="fill:#CCCCCC;" d="M62.25,46.63L51.674,7.16L50.33,2.146c-0.417-1.554-2.054-2.466-3.659-2.041
			c-0.002,0.002-0.006,0-0.009,0.001L2.253,12.005c-0.003,0.002-0.005,0.004-0.008,0.004c-1.603,0.436-2.564,2.043-2.148,3.598
			L1.44,20.62l10.576,39.47c0.431,1.607,2.084,2.562,3.691,2.131l44.409-11.899C61.726,49.891,62.681,48.237,62.25,46.63z"/>
	</g>
</g>
<g id="Body_1_">
	<g>
		<path style="fill:#CCCCCC;" d="M54.183,5.171c-0.003,0-0.006-0.002-0.009-0.002H8.198c-0.003,0-0.006,0.002-0.009,0.002
			C6.528,5.176,5.184,6.479,5.184,8.089v5.191v40.861c0,1.665,1.35,3.014,3.015,3.014h45.976c1.665,0,3.015-1.349,3.015-3.014V13.28
			V8.089C57.188,6.479,55.844,5.176,54.183,5.171z"/>
	</g>
</g>
<g id="Film_Strip">
	<g>
		<path style="fill-rule:evenodd;clip-rule:evenodd;fill:#FFFFFF;" d="M21.188,29.165h20V9.166h-20V29.165z M21.188,53.165h20v-20
			h-20V53.165z M9.188,13.165h8V9.166h-8V13.165z M9.188,21.165h8v-3.999h-8V21.165z M9.188,29.165h8v-3.999h-8V29.165z
			 M9.188,37.165h8v-4h-8V37.165z M9.188,45.166h8v-4.001h-8V45.166z M9.188,53.165h8v-4h-8V53.165z M45.188,9.166v3.999h8V9.166
			H45.188z M45.188,21.165h8v-3.999h-8V21.165z M45.188,29.165h8v-3.999h-8V29.165z M45.188,37.165h8v-4h-8V37.165z M45.188,45.166
			h8v-4.001h-8V45.166z M45.188,53.165h8v-4h-8V53.165z"/>
	</g>
</g>
<g>
</g>
<g>
</g>
<g>
</g>
<g>
</g>
<g>
</g>
<g>
</g>
<g>
</g>
<g>
</g>
<g>
</g>
<g>
</g>
<g>
</g>
<g>
</g>
<g>
</g>
<g>
</g>
<g>
</g>
</svg>
