<?xml version="1.0" encoding="iso-8859-1"?>
<!-- Generator: Adobe Illustrator 16.0.0, SVG Export Plug-In . SVG Version: 6.00 Build 0)  -->
<!DOCTYPE svg PUBLIC "-//W3C//DTD SVG 1.1//EN" "http://www.w3.org/Graphics/SVG/1.1/DTD/svg11.dtd">
<svg version="1.1" id="Layer_1" xmlns="http://www.w3.org/2000/svg" xmlns:xlink="http://www.w3.org/1999/xlink" x="0px" y="0px"
	 width="70.75px" height="69.112px" viewBox="0 0 70.75 69.112" style="enable-background:new 0 0 70.75 69.112;"
	 xml:space="preserve">
<g id="Body_3_">
	<g>
		<path style="fill-rule:evenodd;clip-rule:evenodd;fill:#CCCCCC;" d="M60.307,0.002C60.303,0.002,60.3,0,60.296,0H3.71
			C3.706,0,3.703,0.002,3.699,0.002C1.655,0.008,0,1.613,0,3.594v6.39v50.291c0,2.048,1.661,3.709,3.71,3.709h41.683l-3.633-3.635
			c-2.361-2.356-2.361-6.18,0-8.536c2.355-2.358,6.181-2.358,8.538,0l1.602,1.602l5.723-5.722c1.728-1.73,4.234-2.183,6.384-1.385
			V9.983v-6.39C64.006,1.613,62.351,0.008,60.307,0.002z"/>
	</g>
</g>
<g id="Film_Strip_2_">
	<g>
		<path style="fill-rule:evenodd;clip-rule:evenodd;fill:#FFFFFF;" d="M18.006,29.995h28v-26h-28V29.995z M18.006,59.995h28v-26h-28
			V59.995z M4.006,9.996h10V3.995h-10V9.996z M4.006,19.995h10v-6h-10V19.995z M4.006,29.995h10v-6h-10V29.995z M4.006,39.995h10v-6
			h-10V39.995z M4.006,49.995h10v-5.999h-10V49.995z M4.006,59.995h10v-6h-10V59.995z M50.006,3.995v6.001h10V3.995H50.006z
			 M50.006,19.995h10v-6h-10V19.995z M50.006,29.995h10v-6h-10V29.995z M50.006,39.995h10v-6h-10V39.995z M50.006,49.995h10v-5.999
			h-10V49.995z M50.006,59.995h10v-6h-10V59.995z"/>
	</g>
</g>
<g id="Ok_2_">
	<g>
		<path style="fill-rule:evenodd;clip-rule:evenodd;fill:#88C057;" d="M63.398,50.561c-0.788-0.789-2.065-0.789-2.854,0
			l-8.521,8.521l-4.509-4.516c-0.807-0.809-2.114-0.809-2.921,0s-0.807,2.117,0,2.926l5.841,5.851
			c0.207,0.208,0.448,0.359,0.705,0.461c0.746,0.344,1.656,0.215,2.271-0.399l9.988-9.988
			C64.187,52.627,64.187,51.349,63.398,50.561z"/>
	</g>
</g>
<g>
</g>
<g>
</g>
<g>
</g>
<g>
</g>
<g>
</g>
<g>
</g>
<g>
</g>
<g>
</g>
<g>
</g>
<g>
</g>
<g>
</g>
<g>
</g>
<g>
</g>
<g>
</g>
<g>
</g>
</svg>
