<?xml version="1.0" encoding="iso-8859-1"?>
<!-- Generator: Adobe Illustrator 16.0.0, SVG Export Plug-In . SVG Version: 6.00 Build 0)  -->
<!DOCTYPE svg PUBLIC "-//W3C//DTD SVG 1.1//EN" "http://www.w3.org/Graphics/SVG/1.1/DTD/svg11.dtd">
<svg version="1.1" id="Layer_1" xmlns="http://www.w3.org/2000/svg" xmlns:xlink="http://www.w3.org/1999/xlink" x="0px" y="0px"
	 width="68.022px" height="67.993px" viewBox="0 0 68.022 67.993" style="enable-background:new 0 0 68.022 67.993;"
	 xml:space="preserve">
<g id="Body_2_">
	<g>
		<path style="fill-rule:evenodd;clip-rule:evenodd;fill:#CCCCCC;" d="M47.424,55.89l-1.646-1.646c-2.359-2.358-2.359-6.183,0-8.54
			c2.358-2.357,6.181-2.357,8.54,0l1.646,1.646l1.658-1.658c1.728-1.73,4.234-2.183,6.384-1.385V9.983v-6.39
			c0-1.98-1.655-3.586-3.699-3.592C60.303,0.002,60.3,0,60.296,0H3.71C3.706,0,3.703,0.002,3.699,0.002C1.655,0.008,0,1.613,0,3.594
			v6.39v50.291c0,2.048,1.661,3.709,3.71,3.709h40.548c-0.768-2.137-0.313-4.614,1.398-6.327L47.424,55.89z"/>
	</g>
</g>
<g id="Film_Strip_1_">
	<g>
		<path style="fill-rule:evenodd;clip-rule:evenodd;fill:#FFFFFF;" d="M18.006,29.995h28v-26h-28V29.995z M18.006,59.995h28v-26h-28
			V59.995z M4.006,9.996h10V3.995h-10V9.996z M4.006,19.995h10v-6h-10V19.995z M4.006,29.995h10v-6h-10V29.995z M4.006,39.995h10v-6
			h-10V39.995z M4.006,49.995h10v-5.999h-10V49.995z M4.006,59.995h10v-6h-10V59.995z M50.006,3.995v6.001h10V3.995H50.006z
			 M50.006,19.995h10v-6h-10V19.995z M50.006,29.995h10v-6h-10V29.995z M50.006,39.995h10v-6h-10V39.995z M50.006,49.995h10v-5.999
			h-10V49.995z M50.006,59.995h10v-6h-10V59.995z"/>
	</g>
</g>
<g id="Remove_2_">
	<g>
		<path style="fill-rule:evenodd;clip-rule:evenodd;fill:#ED7161;" d="M63.436,60.722l-4.703-4.702l4.703-4.702
			c0.743-0.743,0.743-1.948,0-2.691c-0.743-0.742-1.948-0.742-2.691,0l-4.702,4.703l-4.763-4.762c-0.746-0.748-1.955-0.748-2.701,0
			c-0.746,0.744-0.746,1.953,0,2.7l4.763,4.763l-4.705,4.705c-0.743,0.743-0.743,1.947,0,2.689c0.743,0.744,1.947,0.744,2.69,0
			l4.705-4.704l4.703,4.702c0.746,0.746,1.955,0.746,2.701,0C64.182,62.678,64.182,61.468,63.436,60.722z"/>
	</g>
</g>
<g>
</g>
<g>
</g>
<g>
</g>
<g>
</g>
<g>
</g>
<g>
</g>
<g>
</g>
<g>
</g>
<g>
</g>
<g>
</g>
<g>
</g>
<g>
</g>
<g>
</g>
<g>
</g>
<g>
</g>
</svg>
