<?xml version="1.0" encoding="UTF-8" standalone="no"?>
<svg width="32px" height="60px" viewBox="0 0 32 60" version="1.1" xmlns="http://www.w3.org/2000/svg" xmlns:xlink="http://www.w3.org/1999/xlink" xmlns:sketch="http://www.bohemiancoding.com/sketch/ns">
    <!-- Generator: Sketch 3.2.2 (9983) - http://www.bohemiancoding.com/sketch -->
    <title>136 - Low Battery (Outline)</title>
    <desc>Created with Sketch.</desc>
    <defs></defs>
    <g id="Page-1" stroke="none" stroke-width="1" fill="none" fill-rule="evenodd" sketch:type="MSPage">
        <g id="Icons" sketch:type="MSArtboardGroup" transform="translate(-615.000000, -3237.000000)">
            <g id="136---Low-Battery-(Outline)" sketch:type="MSLayerGroup" transform="translate(616.000000, 3238.000000)">
                <path d="M10,0 L20,0 L20,4 L10,4 L10,0 Z" id="Path" stroke="#000000" stroke-width="2" stroke-linecap="round" stroke-linejoin="round" sketch:type="MSShapeGroup"></path>
                <path d="M27.536,58 L2.464,58 C1.103,58 0,56.897 0,55.536 L0,6.464 C0,5.103 1.103,4 2.464,4 L27.536,4 C28.897,4 30,5.103 30,6.464 L30,55.536 C30,56.897 28.897,58 27.536,58 L27.536,58 Z" id="Path" stroke="#000000" stroke-width="2" stroke-linecap="round" stroke-linejoin="round" sketch:type="MSShapeGroup"></path>
                <path d="M5,47 C5,47.552 4.552,48 4,48 C3.448,48 3,47.552 3,47 C3,46.448 3.448,46 4,46 C4.552,46 5,46.448 5,47" id="Fill-378" fill="#000000" sketch:type="MSShapeGroup"></path>
                <path d="M2,50 C2,50.552 1.552,51 1,51 C0.448,51 0,50.552 0,50 C0,49.448 0.448,49 1,49 C1.552,49 2,49.448 2,50" id="Fill-379" fill="#000000" sketch:type="MSShapeGroup"></path>
                <path d="M8,50 C8,50.552 7.552,51 7,51 C6.448,51 6,50.552 6,50 C6,49.448 6.448,49 7,49 C7.552,49 8,49.448 8,50" id="Fill-380" fill="#000000" sketch:type="MSShapeGroup"></path>
                <path d="M11,47 C11,47.552 10.552,48 10,48 C9.448,48 9,47.552 9,47 C9,46.448 9.448,46 10,46 C10.552,46 11,46.448 11,47" id="Fill-381" fill="#000000" sketch:type="MSShapeGroup"></path>
                <path d="M17,47 C17,47.552 16.552,48 16,48 C15.448,48 15,47.552 15,47 C15,46.448 15.448,46 16,46 C16.552,46 17,46.448 17,47" id="Fill-382" fill="#000000" sketch:type="MSShapeGroup"></path>
                <path d="M14,50 C14,50.552 13.552,51 13,51 C12.448,51 12,50.552 12,50 C12,49.448 12.448,49 13,49 C13.552,49 14,49.448 14,50" id="Fill-383" fill="#000000" sketch:type="MSShapeGroup"></path>
                <path d="M20,50 C20,50.552 19.552,51 19,51 C18.448,51 18,50.552 18,50 C18,49.448 18.448,49 19,49 C19.552,49 20,49.448 20,50" id="Fill-384" fill="#000000" sketch:type="MSShapeGroup"></path>
                <path d="M23,47 C23,47.552 22.552,48 22,48 C21.448,48 21,47.552 21,47 C21,46.448 21.448,46 22,46 C22.552,46 23,46.448 23,47" id="Fill-385" fill="#000000" sketch:type="MSShapeGroup"></path>
                <path d="M29,47 C29,47.552 28.552,48 28,48 C27.448,48 27,47.552 27,47 C27,46.448 27.448,46 28,46 C28.552,46 29,46.448 29,47" id="Fill-386" fill="#000000" sketch:type="MSShapeGroup"></path>
                <path d="M26,50 C26,50.552 25.552,51 25,51 C24.448,51 24,50.552 24,50 C24,49.448 24.448,49 25,49 C25.552,49 26,49.448 26,50" id="Fill-387" fill="#000000" sketch:type="MSShapeGroup"></path>
                <path d="M5,53 C5,53.552 4.552,54 4,54 C3.448,54 3,53.552 3,53 C3,52.448 3.448,52 4,52 C4.552,52 5,52.448 5,53" id="Fill-388" fill="#000000" sketch:type="MSShapeGroup"></path>
                <path d="M2,56 C2,56.552 1.552,57 1,57 C0.448,57 0,56.552 0,56 C0,55.448 0.448,55 1,55 C1.552,55 2,55.448 2,56" id="Fill-389" fill="#000000" sketch:type="MSShapeGroup"></path>
                <path d="M8,56 C8,56.552 7.552,57 7,57 C6.448,57 6,56.552 6,56 C6,55.448 6.448,55 7,55 C7.552,55 8,55.448 8,56" id="Fill-390" fill="#000000" sketch:type="MSShapeGroup"></path>
                <path d="M11,53 C11,53.552 10.552,54 10,54 C9.448,54 9,53.552 9,53 C9,52.448 9.448,52 10,52 C10.552,52 11,52.448 11,53" id="Fill-391" fill="#000000" sketch:type="MSShapeGroup"></path>
                <path d="M17,53 C17,53.552 16.552,54 16,54 C15.448,54 15,53.552 15,53 C15,52.448 15.448,52 16,52 C16.552,52 17,52.448 17,53" id="Fill-392" fill="#000000" sketch:type="MSShapeGroup"></path>
                <path d="M14,56 C14,56.552 13.552,57 13,57 C12.448,57 12,56.552 12,56 C12,55.448 12.448,55 13,55 C13.552,55 14,55.448 14,56" id="Fill-393" fill="#000000" sketch:type="MSShapeGroup"></path>
                <path d="M20,56 C20,56.552 19.552,57 19,57 C18.448,57 18,56.552 18,56 C18,55.448 18.448,55 19,55 C19.552,55 20,55.448 20,56" id="Fill-394" fill="#000000" sketch:type="MSShapeGroup"></path>
                <path d="M23,53 C23,53.552 22.552,54 22,54 C21.448,54 21,53.552 21,53 C21,52.448 21.448,52 22,52 C22.552,52 23,52.448 23,53" id="Fill-395" fill="#000000" sketch:type="MSShapeGroup"></path>
                <path d="M29,53 C29,53.552 28.552,54 28,54 C27.448,54 27,53.552 27,53 C27,52.448 27.448,52 28,52 C28.552,52 29,52.448 29,53" id="Fill-396" fill="#000000" sketch:type="MSShapeGroup"></path>
                <path d="M26,56 C26,56.552 25.552,57 25,57 C24.448,57 24,56.552 24,56 C24,55.448 24.448,55 25,55 C25.552,55 26,55.448 26,56" id="Fill-397" fill="#000000" sketch:type="MSShapeGroup"></path>
                <path d="M0,45 L30,45 L0,45 Z" id="Path" stroke="#000000" stroke-width="2" stroke-linecap="round" stroke-linejoin="round" sketch:type="MSShapeGroup"></path>
            </g>
        </g>
    </g>
</svg>