<?xml version="1.0" encoding="UTF-8" standalone="no"?>
<svg width="60px" height="51px" viewBox="0 0 60 51" version="1.1" xmlns="http://www.w3.org/2000/svg" xmlns:xlink="http://www.w3.org/1999/xlink" xmlns:sketch="http://www.bohemiancoding.com/sketch/ns">
    <!-- Generator: Sketch 3.2.2 (9983) - http://www.bohemiancoding.com/sketch -->
    <title>1 - Briefcase (Outline)</title>
    <desc>Created with Sketch.</desc>
    <defs></defs>
    <g id="Page-1" stroke="none" stroke-width="1" fill="none" fill-rule="evenodd" sketch:type="MSPage">
        <g id="Icons" sketch:type="MSArtboardGroup" transform="translate(-1200.000000, -4800.000000)" stroke="#1A1718" stroke-width="2" stroke-linecap="round" stroke-linejoin="round">
            <g id="1---Briefcase-(Outline)" sketch:type="MSLayerGroup" transform="translate(1201.000000, 4801.000000)">
                <path d="M55.99,49 L2.01,49 C0.9,49 0,48.1 0,46.99 L0,11.01 C0,9.9 0.9,9 2.01,9 L55.99,9 C57.1,9 58,9.9 58,11.01 L58,46.99 C58,48.1 57.1,49 55.99,49 L55.99,49 Z M39,9 L19,9 L19,2.206 C19,0.987 19.988,0 21.206,0 L36.794,0 C38.012,0 39,0.987 39,2.206 L39,9 L39,9 Z M8,9 L8,49 L8,9 Z M50,9 L50,49 L50,9 Z M5,6 L13,6 L13,9 L5,9 L5,6 Z M45,6 L53,6 L53,9 L45,9 L45,6 Z" id="Stroke-43" sketch:type="MSShapeGroup"></path>
            </g>
        </g>
    </g>
</svg>