<?xml version="1.0" encoding="UTF-8" standalone="no"?>
<svg width="56px" height="54px" viewBox="0 0 56 54" version="1.1" xmlns="http://www.w3.org/2000/svg" xmlns:xlink="http://www.w3.org/1999/xlink" xmlns:sketch="http://www.bohemiancoding.com/sketch/ns">
    <!-- Generator: Sketch 3.2.2 (9983) - http://www.bohemiancoding.com/sketch -->
    <title>304 - Map Location (Outline)</title>
    <desc>Created with Sketch.</desc>
    <defs></defs>
    <g id="Page-1" stroke="none" stroke-width="1" fill="none" fill-rule="evenodd" sketch:type="MSPage">
        <g id="304---Map-Location-(Outline)" sketch:type="MSLayerGroup" transform="translate(1.000000, 1.000000)" stroke="#1A1718" stroke-width="2" stroke-linecap="round">
            <path d="M14,22.502 L4,22.502 L0.345,51.502 L53.114,51.502 L50,22.502 L40,22.502" id="Path" sketch:type="MSShapeGroup"></path>
            <path d="M37.788,9.673 C37.263,5.674 35.173,0.492 26.966,0.492 C18.758,0.492 16.668,5.674 16.144,9.673 C15.856,11.865 16.017,14.092 16.474,16.256 C18.982,28.148 25.183,35.278 26.651,36.832 C26.823,37.015 27.109,37.015 27.281,36.832 C28.748,35.278 34.949,28.148 37.458,16.256 C37.914,14.092 38.075,11.865 37.788,9.673 L37.788,9.673 Z" id="Path" sketch:type="MSShapeGroup"></path>
            <path d="M33.311,11.068 C33.311,14.573 30.47,17.414 26.966,17.414 C23.461,17.414 20.62,14.573 20.62,11.068 C20.62,7.563 23.461,4.722 26.966,4.722 C30.47,4.722 33.311,7.563 33.311,11.068 L33.311,11.068 Z" id="Path" sketch:type="MSShapeGroup"></path>
            <path d="M41.795,27.441 C42.96,27.113 44.266,27.192 45.309,27.808 C46.352,28.423 47.076,29.609 46.994,30.817 C46.93,31.756 46.418,32.601 45.881,33.374 C45.489,33.937 45.067,34.495 44.506,34.89 C43.672,35.477 42.62,35.643 41.606,35.746 C38.939,36.018 36.248,35.964 33.58,36.226 C30.912,36.488 28.212,37.094 25.963,38.553 C24.918,39.23 23.995,40.075 23.026,40.857 C20.178,43.155 16.898,44.922 13.399,45.994 C12.291,46.334 11.131,46.607 9.981,46.463 C8.831,46.32 7.684,45.688 7.199,44.636 C6.941,44.075 6.886,43.441 6.916,42.824 C7.023,40.628 8.503,38.326 10.689,38.085 C11.318,38.016 12.012,38.147 12.438,38.614" id="Path" stroke-dasharray="3" sketch:type="MSShapeGroup"></path>
        </g>
    </g>
</svg>