<?xml version="1.0" encoding="UTF-8" standalone="no"?>
<svg width="47px" height="60px" viewBox="0 0 47 60" version="1.1" xmlns="http://www.w3.org/2000/svg" xmlns:xlink="http://www.w3.org/1999/xlink" xmlns:sketch="http://www.bohemiancoding.com/sketch/ns">
    <!-- Generator: Sketch 3.2.2 (9983) - http://www.bohemiancoding.com/sketch -->
    <title>47 - Document (Outline)</title>
    <desc>Created with Sketch.</desc>
    <defs></defs>
    <g id="Page-1" stroke="none" stroke-width="1" fill="none" fill-rule="evenodd" sketch:type="MSPage">
        <g id="Icons" sketch:type="MSArtboardGroup" transform="translate(-488.000000, -4317.000000)">
            <g id="47---Document-(Outline)" sketch:type="MSLayerGroup" transform="translate(489.000000, 4318.000000)">
                <path d="M45,14 L31,0 L0,0 L0,58 L45,58 L45,14 L45,14 Z" id="Path" stroke="#1A1718" stroke-width="2" stroke-linejoin="round" sketch:type="MSShapeGroup"></path>
                <path d="M20,23 C20,23.552 19.552,24 19,24 C18.448,24 18,23.552 18,23 C18,22.448 18.448,22 19,22 C19.552,22 20,22.448 20,23" id="Fill-580" fill="#000000" sketch:type="MSShapeGroup"></path>
                <path d="M11,44 C11,44.552 10.552,45 10,45 C9.448,45 9,44.552 9,44 C9,43.448 9.448,43 10,43 C10.552,43 11,43.448 11,44" id="Fill-578" fill="#000000" sketch:type="MSShapeGroup"></path>
                <path d="M11,30 C11,30.552 10.552,31 10,31 C9.448,31 9,30.552 9,30 C9,29.448 9.448,29 10,29 C10.552,29 11,29.448 11,30" id="Fill-579" fill="#000000" sketch:type="MSShapeGroup"></path>
                <path d="M31,0 L31,14 L45,14 L31,0 Z" id="Path" stroke="#1A1718" stroke-width="2" stroke-linejoin="round" sketch:type="MSShapeGroup"></path>
                <path d="M9,15 L18,15" id="Path" stroke="#000000" stroke-width="2" stroke-linecap="round" stroke-linejoin="round" sketch:type="MSShapeGroup"></path>
                <path d="M9,37 L26,37" id="Path" stroke="#000000" stroke-width="2" stroke-linecap="round" stroke-linejoin="round" sketch:type="MSShapeGroup"></path>
                <path d="M29,30 L36,30" id="Path" stroke="#000000" stroke-width="2" stroke-linecap="round" stroke-linejoin="round" sketch:type="MSShapeGroup"></path>
                <path d="M9,23 L14,23" id="Path" stroke="#000000" stroke-width="2" stroke-linecap="round" stroke-linejoin="round" sketch:type="MSShapeGroup"></path>
                <path d="M24,23 L31,23" id="Path" stroke="#000000" stroke-width="2" stroke-linecap="round" stroke-linejoin="round" sketch:type="MSShapeGroup"></path>
                <path d="M14,30 L24,30" id="Path" stroke="#000000" stroke-width="2" stroke-linecap="round" stroke-linejoin="round" sketch:type="MSShapeGroup"></path>
                <path d="M29,44 L36,44" id="Path" stroke="#000000" stroke-width="2" stroke-linecap="round" stroke-linejoin="round" sketch:type="MSShapeGroup"></path>
                <path d="M14,44 L24,44" id="Path" stroke="#000000" stroke-width="2" stroke-linecap="round" stroke-linejoin="round" sketch:type="MSShapeGroup"></path>
            </g>
        </g>
    </g>
</svg>