<?xml version="1.0" encoding="UTF-8" standalone="no"?>
<svg width="61px" height="51px" viewBox="0 0 61 51" version="1.1" xmlns="http://www.w3.org/2000/svg" xmlns:xlink="http://www.w3.org/1999/xlink" xmlns:sketch="http://www.bohemiancoding.com/sketch/ns">
    <!-- Generator: Sketch 3.2.2 (9983) - http://www.bohemiancoding.com/sketch -->
    <title>169 - Cloud Upload (Outline)</title>
    <desc>Created with Sketch.</desc>
    <defs></defs>
    <g id="Page-1" stroke="none" stroke-width="1" fill="none" fill-rule="evenodd" sketch:type="MSPage">
        <g id="Icons" sketch:type="MSArtboardGroup" transform="translate(-240.000000, -2884.000000)" stroke="#000000" stroke-width="2" stroke-linecap="round" stroke-linejoin="round">
            <g id="169---Cloud-Upload-(Outline)" sketch:type="MSLayerGroup" transform="translate(241.000000, 2885.000000)">
                <path d="M49.032,16 C49.032,16 46.497,15.625 44.028,16 L49.032,16 Z" id="Path" sketch:type="MSShapeGroup"></path>
                <path d="M7.028,14 C7.028,9.582 10.61,6 15.028,6 C19.446,6 23.028,9.582 23.028,14" id="Path" sketch:type="MSShapeGroup"></path>
                <path d="M43.028,38 L47,38 C53.066,38 58.028,33.037 58.028,26.972 C58.028,21.601 54.134,16.962 49.032,16 C48.917,7.301 41.839,0 33.113,0 C27.553,0 22.334,3.005 19.452,7.336 C18.185,6.493 16.665,6 15.028,6 C10.61,6 7.028,9.582 7.028,14 C7.028,14.153 7.043,14.303 7.051,14.454 C7.041,14.637 7.028,14.82 7.028,15 C3.04,16.912 0.028,21.457 0.028,26.155 C0.028,32.67 5.358,38 11.873,38 L17.028,38" id="Path" sketch:type="MSShapeGroup"></path>
                <path d="M30.028,49 L30.028,26 L30.028,49 Z" id="Path" sketch:type="MSShapeGroup"></path>
                <path d="M30.028,26 L38.028,34 L30.028,26 Z" id="Path" sketch:type="MSShapeGroup"></path>
                <path d="M22.028,34 L30.028,26 L22.028,34 Z" id="Path" sketch:type="MSShapeGroup"></path>
            </g>
        </g>
    </g>
</svg>