<?xml version="1.0" encoding="UTF-8" standalone="no"?>
<svg width="60px" height="60px" viewBox="0 0 60 60" version="1.1" xmlns="http://www.w3.org/2000/svg" xmlns:xlink="http://www.w3.org/1999/xlink" xmlns:sketch="http://www.bohemiancoding.com/sketch/ns">
    <!-- Generator: Sketch 3.2.2 (9983) - http://www.bohemiancoding.com/sketch -->
    <title>113 - Controls (Outline)</title>
    <desc>Created with Sketch.</desc>
    <defs></defs>
    <g id="Page-1" stroke="none" stroke-width="1" fill="none" fill-rule="evenodd" sketch:type="MSPage">
        <g id="Icons" sketch:type="MSArtboardGroup" transform="translate(-960.000000, -3477.000000)" stroke="#000000" stroke-width="2" stroke-linecap="round" stroke-linejoin="round">
            <g id="113---Controls-(Outline)" sketch:type="MSLayerGroup" transform="translate(961.000000, 3478.000000)">
                <path d="M0,0 L58,0 L58,58 L0,58 L0,0 Z" id="Path" sketch:type="MSShapeGroup"></path>
                <path d="M21,10 L53,10 L21,10 Z" id="Path" sketch:type="MSShapeGroup"></path>
                <path d="M9,5 L21,5 L21,15 L9,15 L9,5 Z" id="Path" sketch:type="MSShapeGroup"></path>
                <path d="M9,10 L5,10 L9,10 Z" id="Path" sketch:type="MSShapeGroup"></path>
                <path d="M35,29 L53,29 L35,29 Z" id="Path" sketch:type="MSShapeGroup"></path>
                <path d="M23,24 L35,24 L35,34 L23,34 L23,24 Z" id="Path" sketch:type="MSShapeGroup"></path>
                <path d="M23,29 L5,29 L23,29 Z" id="Path" sketch:type="MSShapeGroup"></path>
                <path d="M37,48 L5,48 L37,48 Z" id="Path" sketch:type="MSShapeGroup"></path>
                <path d="M37,43 L49,43 L49,53 L37,53 L37,43 Z" id="Path" sketch:type="MSShapeGroup"></path>
                <path d="M49,48 L53,48 L49,48 Z" id="Path" sketch:type="MSShapeGroup"></path>
            </g>
        </g>
    </g>
</svg>