<?xml version="1.0" encoding="UTF-8" standalone="no"?>
<svg width="36px" height="57px" viewBox="0 0 36 57" version="1.1" xmlns="http://www.w3.org/2000/svg" xmlns:xlink="http://www.w3.org/1999/xlink" xmlns:sketch="http://www.bohemiancoding.com/sketch/ns">
    <!-- Generator: Sketch 3.2.2 (9983) - http://www.bohemiancoding.com/sketch -->
    <title>338 - Bluetooth (Outline)</title>
    <desc>Created with Sketch.</desc>
    <defs></defs>
    <g id="Page-1" stroke="none" stroke-width="1" fill="none" fill-rule="evenodd" sketch:type="MSPage">
        <g id="338---Bluetooth-(Outline)" sketch:type="MSLayerGroup" transform="translate(1.000000, 1.000000)" stroke="#000000" stroke-width="2" stroke-linejoin="round">
            <path d="M17.035,27 L17,18 L17,10 L25,18 L17.035,27 L17.035,27 Z" id="Path" sketch:type="MSShapeGroup"></path>
            <path d="M17,45 L17,36 L17.035,27.606 L25,36 L17,45 L17,45 Z" id="Path" sketch:type="MSShapeGroup"></path>
            <path d="M7.073,18.013 L17.035,27.013 L7.073,18.013 Z" id="Path" sketch:type="MSShapeGroup"></path>
            <path d="M17.073,27.013 L7,36.013 L17.073,27.013 Z" id="Path" sketch:type="MSShapeGroup"></path>
            <path d="M17,55 L17,55 C7.611,55 0,47.389 0,38 L0,17 C0,7.611 7.611,0 17,0 C26.389,0 34,7.611 34,17 L34,38 C34,47.389 26.389,55 17,55 L17,55 Z" id="Path" sketch:type="MSShapeGroup"></path>
        </g>
    </g>
</svg>