<?xml version="1.0" encoding="UTF-8" standalone="no"?>
<svg width="60px" height="60px" viewBox="0 0 60 60" version="1.1" xmlns="http://www.w3.org/2000/svg" xmlns:xlink="http://www.w3.org/1999/xlink" xmlns:sketch="http://www.bohemiancoding.com/sketch/ns">
    <!-- Generator: Sketch 3.2.2 (9983) - http://www.bohemiancoding.com/sketch -->
    <title>129 - Compose (Outline)</title>
    <desc>Created with Sketch.</desc>
    <defs></defs>
    <g id="Page-1" stroke="none" stroke-width="1" fill="none" fill-rule="evenodd" sketch:type="MSPage">
        <g id="Icons" sketch:type="MSArtboardGroup" transform="translate(-240.000000, -3357.000000)" stroke="#000000" stroke-width="2" stroke-linecap="round" stroke-linejoin="round">
            <g id="129---Compose-(Outline)" sketch:type="MSLayerGroup" transform="translate(241.000000, 3358.000000)">
                <path d="M19,18 L19,1.774 L19,18 Z" id="Path" sketch:type="MSShapeGroup"></path>
                <path d="M39,18 L39,1.774 L39,18 Z" id="Path" sketch:type="MSShapeGroup"></path>
                <path d="M29,0 L29,25.937 C29,25.962 29.029,25.977 29.049,25.961 L29,0 Z" id="Path" sketch:type="MSShapeGroup"></path>
                <path d="M29,35 C25.252,35 21.907,36.72 19.706,39.412 L28.951,50.993 C28.971,51.009 29,50.995 29,50.97 C29,50.995 29.029,51.009 29.049,50.993 L38.294,39.412 C36.093,36.72 32.748,35 29,35 L29,35 Z" id="Path" sketch:type="MSShapeGroup"></path>
                <path d="M58,29 C58,45.016 45.016,58 29,58 C12.984,58 0,45.016 0,29 C0,12.984 12.984,0 29,0 C45.016,0 58,12.984 58,29 L58,29 Z" id="Path" sketch:type="MSShapeGroup"></path>
                <path d="M29,0 C21.243,0 14.204,3.051 9,8.011 L9,25.446 C9,25.669 9.258,25.793 9.432,25.654 L19,18 L28.951,25.961 C28.971,25.977 29,25.962 29,25.937 C29,25.962 29.029,25.977 29.049,25.961 L39,18 L48.568,25.654 C48.742,25.793 49,25.669 49,25.446 L49,8.011 C43.796,3.051 36.757,0 29,0 L29,0 Z" id="Path" sketch:type="MSShapeGroup"></path>
                <path d="M29,0 C21.243,0 14.204,3.051 9,8.011 L9,26 L28.951,50.993 C28.971,51.009 29,50.995 29,50.97 C29,50.995 29.029,51.009 29.049,50.993 L49,26 L49,8.011 C43.796,3.051 36.757,0 29,0 L29,0 Z" id="Path" sketch:type="MSShapeGroup"></path>
            </g>
        </g>
    </g>
</svg>