<?xml version="1.0" encoding="UTF-8" standalone="no"?>
<svg width="58px" height="58px" viewBox="0 0 58 58" version="1.1" xmlns="http://www.w3.org/2000/svg" xmlns:xlink="http://www.w3.org/1999/xlink" xmlns:sketch="http://www.bohemiancoding.com/sketch/ns">
    <!-- Generator: Sketch 3.2.2 (9983) - http://www.bohemiancoding.com/sketch -->
    <title>265 - CD (Outline)</title>
    <desc>Created with Sketch.</desc>
    <defs></defs>
    <g id="Page-1" stroke="none" stroke-width="1" fill="none" fill-rule="evenodd" sketch:type="MSPage">
        <g id="Icons" sketch:type="MSArtboardGroup" transform="translate(-721.000000, -1678.000000)" stroke-linecap="round" stroke="#000000" stroke-width="2">
            <g id="265---CD-(Outline)" sketch:type="MSLayerGroup" transform="translate(721.000000, 1678.000000)">
                <path d="M48.799,9.201 C59.734,20.136 59.734,37.864 48.799,48.799 C37.864,59.734 20.136,59.734 9.201,48.799 C-1.734,37.864 -1.734,20.136 9.201,9.201 C20.136,-1.734 37.864,-1.734 48.799,9.201 L48.799,9.201 Z" id="Stroke-64" sketch:type="MSShapeGroup"></path>
                <path d="M36.778,21.222 C41.074,25.518 41.074,32.482 36.778,36.778 C32.482,41.074 25.518,41.074 21.222,36.778 C16.926,32.482 16.926,25.518 21.222,21.222 C25.518,16.926 32.482,16.926 36.778,21.222 L36.778,21.222 Z" id="Stroke-160" sketch:type="MSShapeGroup"></path>
                <path d="M31.121,26.879 C32.293,28.05 32.293,29.95 31.121,31.121 C29.95,32.293 28.05,32.293 26.879,31.121 C25.707,29.95 25.707,28.05 26.879,26.879 C28.05,25.707 29.95,25.707 31.121,26.879 L31.121,26.879 Z" id="Stroke-162" sketch:type="MSShapeGroup"></path>
                <path d="M36.778,36.778 C36.018,37.538 35.172,38.157 34.274,38.648 L42.431,53.568 C44.715,52.318 46.865,50.733 48.799,48.799 C50.733,46.865 52.318,44.715 53.568,42.43 L38.648,34.274 C38.157,35.172 37.538,36.018 36.778,36.778 L36.778,36.778 Z" id="Stroke-164" sketch:type="MSShapeGroup"></path>
                <path d="M21.222,21.222 C21.982,20.462 22.828,19.843 23.726,19.352 L15.569,4.432 C13.285,5.682 11.135,7.267 9.201,9.201 C7.267,11.135 5.682,13.285 4.432,15.569 L19.352,23.726 C19.843,22.828 20.462,21.982 21.222,21.222 L21.222,21.222 Z" id="Stroke-166" sketch:type="MSShapeGroup"></path>
            </g>
        </g>
    </g>
</svg>