<?xml version="1.0" encoding="UTF-8" standalone="no"?>
<svg width="55px" height="55px" viewBox="0 0 55 55" version="1.1" xmlns="http://www.w3.org/2000/svg" xmlns:xlink="http://www.w3.org/1999/xlink" xmlns:sketch="http://www.bohemiancoding.com/sketch/ns">
    <!-- Generator: Sketch 3.2.2 (9983) - http://www.bohemiancoding.com/sketch -->
    <title>197 - Network (Outline)</title>
    <desc>Created with Sketch.</desc>
    <defs></defs>
    <g id="Page-1" stroke="none" stroke-width="1" fill="none" fill-rule="evenodd" sketch:type="MSPage">
        <g id="Icons" sketch:type="MSArtboardGroup" transform="translate(-482.000000, -2521.000000)" stroke="#000000" stroke-width="2">
            <g id="197---Network-(Outline)" sketch:type="MSLayerGroup" transform="translate(483.000000, 2522.000000)">
                <path d="M35,24 C35,27.866 31.866,31 28,31 C24.134,31 21,27.866 21,24 C21,20.134 24.134,17 28,17 C31.866,17 35,20.134 35,24 L35,24 Z" id="Stroke-632" sketch:type="MSShapeGroup"></path>
                <path d="M53,5 C53,7.761 50.761,10 48,10 C45.239,10 43,7.761 43,5 C43,2.238 45.239,0 48,0 C50.761,0 53,2.238 53,5 L53,5 Z" id="Stroke-634" sketch:type="MSShapeGroup"></path>
                <path d="M33,48 C33,50.761 30.761,53 28,53 C25.239,53 23,50.761 23,48 C23,45.239 25.239,43 28,43 C30.761,43 33,45.239 33,48 L33,48 Z" id="Stroke-636" sketch:type="MSShapeGroup"></path>
                <path d="M10,46 C10,48.761 7.761,51 5,51 C2.239,51 0,48.761 0,46 C0,43.238 2.239,41 5,41 C7.761,41 10,43.238 10,46 L10,46 Z" id="Stroke-638" sketch:type="MSShapeGroup"></path>
                <path d="M15,8 C15,9.657 13.657,11 12,11 C10.343,11 9,9.657 9,8 C9,6.343 10.343,5 12,5 C13.657,5 15,6.343 15,8 L15,8 Z" id="Stroke-640" sketch:type="MSShapeGroup"></path>
                <path d="M47,40 C47,41.657 45.657,43 44,43 C42.343,43 41,41.657 41,40 C41,38.343 42.343,37 44,37 C45.657,37 47,38.343 47,40 L47,40 Z" id="Stroke-642" sketch:type="MSShapeGroup"></path>
                <path d="M28,31 L28,43" id="Stroke-644" sketch:type="MSShapeGroup"></path>
                <path d="M33,19 L44,8" id="Stroke-646" sketch:type="MSShapeGroup"></path>
                <path d="M23,29 L9,43" id="Stroke-648" sketch:type="MSShapeGroup"></path>
                <path d="M23,19 L14,10" id="Stroke-650" sketch:type="MSShapeGroup"></path>
                <path d="M42,38 L33,29" id="Stroke-652" sketch:type="MSShapeGroup"></path>
            </g>
        </g>
    </g>
</svg>