<?xml version="1.0" encoding="UTF-8" standalone="no"?>
<svg width="58px" height="60px" viewBox="0 0 58 60" version="1.1" xmlns="http://www.w3.org/2000/svg" xmlns:xlink="http://www.w3.org/1999/xlink" xmlns:sketch="http://www.bohemiancoding.com/sketch/ns">
    <!-- Generator: Sketch 3.2.2 (9983) - http://www.bohemiancoding.com/sketch -->
    <title>31 - Newspaper (Outline)</title>
    <desc>Created with Sketch.</desc>
    <defs></defs>
    <g id="Page-1" stroke="none" stroke-width="1" fill="none" fill-rule="evenodd" sketch:type="MSPage">
        <g id="Icons" sketch:type="MSArtboardGroup" transform="translate(-1201.000000, -4437.000000)" stroke="#000000" stroke-width="2" stroke-linecap="round" stroke-linejoin="round">
            <g id="31---Newspaper-(Outline)" sketch:type="MSLayerGroup" transform="translate(1202.000000, 4438.000000)">
                <path d="M5,58 L5,58 C2.25,58 0,55.75 0,53 L0,30 L10,30 L10,53 C10,55.75 7.75,58 5,58 L5,58 Z M10,0 L10,53 C10,55.75 7.75,58 5,58 L51,58 C53.756,58 55.99,55.766 55.99,53.01 L55.99,0 L10,0 L10,0 Z M16,16 L28,16 L28,28 L16,28 L16,16 Z M34,16 L50,16 L34,16 Z M34,22 L50,22 L34,22 Z M34,28 L50,28 L34,28 Z M17,34 L50,34 L17,34 Z M17,40 L32,40 L17,40 Z M17,46 L32,46 L17,46 Z M17,52 L32,52 L17,52 Z M38,52 L50,52 L50,40 L38,40 L38,52 Z M10,12 L56,12 L10,12 Z M22,4 L44,4 L44,8 L22,8 L22,4 Z" id="Stroke-107" sketch:type="MSShapeGroup"></path>
            </g>
        </g>
    </g>
</svg>