<?xml version="1.0" encoding="UTF-8" standalone="no"?>
<svg width="60px" height="48px" viewBox="0 0 60 48" version="1.1" xmlns="http://www.w3.org/2000/svg" xmlns:xlink="http://www.w3.org/1999/xlink" xmlns:sketch="http://www.bohemiancoding.com/sketch/ns">
    <!-- Generator: Sketch 3.2.2 (9983) - http://www.bohemiancoding.com/sketch -->
    <title>266 - Albums (Outline)</title>
    <desc>Created with Sketch.</desc>
    <defs></defs>
    <g id="Page-1" stroke="none" stroke-width="1" fill="none" fill-rule="evenodd" sketch:type="MSPage">
        <g id="266---Albums-(Outline)" sketch:type="MSLayerGroup" transform="translate(1.000000, 1.000000)" stroke="#1A1718" stroke-width="2" stroke-linecap="round">
            <path d="M43,13 L24,16 L24,10 L43,7 L43,13 L43,13 Z" id="Stroke-24" stroke-linejoin="round" sketch:type="MSShapeGroup"></path>
            <path d="M24,34.102 L24,13.286" id="Stroke-26" stroke-linejoin="round" sketch:type="MSShapeGroup"></path>
            <path id="Stroke-28" stroke-linejoin="round" sketch:type="MSShapeGroup"></path>
            <path d="M43,28 L43,8" id="Stroke-30" stroke-linejoin="round" sketch:type="MSShapeGroup"></path>
            <path id="Stroke-32" stroke-linejoin="round" sketch:type="MSShapeGroup"></path>
            <path d="M43,28 C43,30.761 40.538,33 37.5,33 C34.462,33 32,30.761 32,28 C32,25.239 34.462,23 37.5,23 C40.538,23 43,25.239 43,28 L43,28 Z" id="Stroke-34" stroke-linejoin="round" sketch:type="MSShapeGroup"></path>
            <path d="M24,34 C24,36.761 21.538,39 18.5,39 C15.462,39 13,36.761 13,34 C13,31.239 15.462,29 18.5,29 C21.538,29 24,31.239 24,34 L24,34 Z" id="Stroke-36" stroke-linejoin="round" sketch:type="MSShapeGroup"></path>
            <path d="M8,0 L50,0 L50,46 L8,46 L8,0 Z" id="Stroke-188" sketch:type="MSShapeGroup"></path>
            <path d="M50,42 L54,42 L54,4 L50,4 L50,42 Z" id="Stroke-190" sketch:type="MSShapeGroup"></path>
            <path d="M4,42 L8,42 L8,4 L4,4 L4,42 Z" id="Stroke-192" sketch:type="MSShapeGroup"></path>
            <path d="M54,38 L58,38 L58,8 L54,8 L54,38 Z" id="Stroke-194" sketch:type="MSShapeGroup"></path>
            <path d="M0,38 L4,38 L4,8 L0,8 L0,38 Z" id="Stroke-196" sketch:type="MSShapeGroup"></path>
        </g>
    </g>
</svg>