<?xml version="1.0" encoding="UTF-8" standalone="no"?>
<svg width="32px" height="58px" viewBox="0 0 32 58" version="1.1" xmlns="http://www.w3.org/2000/svg" xmlns:xlink="http://www.w3.org/1999/xlink" xmlns:sketch="http://www.bohemiancoding.com/sketch/ns">
    <!-- Generator: Sketch 3.2.2 (9983) - http://www.bohemiancoding.com/sketch -->
    <title>318 - Voice (Outline)</title>
    <desc>Created with Sketch.</desc>
    <defs></defs>
    <g id="Page-1" stroke="none" stroke-width="1" fill="none" fill-rule="evenodd" sketch:type="MSPage">
        <g id="318---Voice-(Outline)" sketch:type="MSLayerGroup" transform="translate(1.000000, 1.000000)" stroke="#000000" stroke-width="2" stroke-linecap="round">
            <path d="M30,28 L30,34 C30,42.271 23.271,49 15,49 C6.728,49 0,42.271 0,34 L0,28" id="Path" sketch:type="MSShapeGroup"></path>
            <path d="M15,44 L15,44 C9.5,44 5,39.5 5,34 L5,10 C5,4.5 9.5,0 15,0 C20.5,0 25,4.5 25,10 L25,34 C25,39.5 20.5,44 15,44 L15,44 Z" id="Path" sketch:type="MSShapeGroup"></path>
            <path d="M15,49 L15,56 L15,49 Z" id="Path" sketch:type="MSShapeGroup"></path>
            <path d="M21,56 L9,56 L21,56 Z" id="Path" sketch:type="MSShapeGroup"></path>
        </g>
    </g>
</svg>