<?xml version="1.0" encoding="UTF-8" standalone="no"?>
<svg width="16px" height="60px" viewBox="0 0 16 60" version="1.1" xmlns="http://www.w3.org/2000/svg" xmlns:xlink="http://www.w3.org/1999/xlink" xmlns:sketch="http://www.bohemiancoding.com/sketch/ns">
    <!-- Generator: Sketch 3.2.2 (9983) - http://www.bohemiancoding.com/sketch -->
    <title>339 - More (Outline)</title>
    <desc>Created with Sketch.</desc>
    <defs></defs>
    <g id="Page-1" stroke="none" stroke-width="1" fill="none" fill-rule="evenodd" sketch:type="MSPage">
        <g id="Icons" sketch:type="MSArtboardGroup" transform="translate(-264.000000, -837.000000)" stroke="#000000" stroke-width="2" stroke-linecap="round" stroke-linejoin="round">
            <g id="339---More-(Outline)" sketch:type="MSLayerGroup" transform="translate(265.000000, 838.000000)">
                <path d="M7,14 C3.134,14 0,10.866 0,7 C0,3.134 3.134,0 7,0 C10.866,0 14,3.134 14,7 C14,10.866 10.866,14 7,14 L7,14 Z" id="Path" sketch:type="MSShapeGroup"></path>
                <path d="M7,58 C3.134,58 0,54.866 0,51 C0,47.134 3.134,44 7,44 C10.866,44 14,47.134 14,51 C14,54.866 10.866,58 7,58 L7,58 Z" id="Path" sketch:type="MSShapeGroup"></path>
                <path d="M7,36 C3.134,36 0,32.866 0,29 C0,25.134 3.134,22 7,22 C10.866,22 14,25.134 14,29 C14,32.866 10.866,36 7,36 L7,36 Z" id="Path" sketch:type="MSShapeGroup"></path>
            </g>
        </g>
    </g>
</svg>