<?xml version="1.0" encoding="UTF-8" standalone="no"?>
<svg width="46px" height="60px" viewBox="0 0 46 60" version="1.1" xmlns="http://www.w3.org/2000/svg" xmlns:xlink="http://www.w3.org/1999/xlink" xmlns:sketch="http://www.bohemiancoding.com/sketch/ns">
    <!-- Generator: Sketch 3.2.2 (9983) - http://www.bohemiancoding.com/sketch -->
    <title>84 - World-Wide (Outline)</title>
    <desc>Created with Sketch.</desc>
    <defs></defs>
    <g id="Page-1" stroke="none" stroke-width="1" fill="none" fill-rule="evenodd" sketch:type="MSPage">
        <g id="Icons" sketch:type="MSArtboardGroup" transform="translate(-847.000000, -3837.000000)" stroke="#161819" stroke-width="2" stroke-linejoin="round">
            <g id="84---World-Wide-(Outline)" sketch:type="MSLayerGroup" transform="translate(848.000000, 3838.000000)">
                <path d="M43.989,20 C43.989,31.046 35.034,40 23.989,40 C12.943,40 3.989,31.046 3.989,20 C3.989,8.954 12.943,0 23.989,0 C35.034,0 43.989,8.954 43.989,20 L43.989,20 Z" id="Stroke-26" sketch:type="MSShapeGroup"></path>
                <path d="M24,44.414 L24,55" id="Stroke-27" stroke-linecap="round" sketch:type="MSShapeGroup"></path>
                <path d="M9.847,5.858 L7.018,3.029 C-2.339,12.387 -2.339,27.613 7.018,36.971 C16.376,46.328 31.602,46.328 40.959,36.971 L38.131,34.142" id="Stroke-28" sketch:type="MSShapeGroup"></path>
                <path d="M14,55 L34,55 L34,58 L14,58 L14,55 Z" id="Stroke-29" stroke-linecap="round" sketch:type="MSShapeGroup"></path>
                <path d="M12.76,3.45 C12.755,3.791 12.743,4.146 12.723,4.531 C12.714,4.716 12.746,4.9 12.824,5.068 C14.18,7.991 15.926,12.95 18.905,14.093 C20.354,14.648 21.693,14.439 23.066,15.112 C23.213,15.183 23.427,15.35 23.519,15.486 C24.217,16.507 23.816,18.003 24.508,18.369 C25.055,18.658 25.367,19.25 25.133,19.823 C24.178,22.167 25.004,24.847 27.226,26.686 C28.789,27.981 27.488,30.981 26.172,33.337 C25.702,34.179 26.54,35.152 27.449,34.829 C28.886,34.318 30.076,33.577 31.453,32.392 C33.451,30.674 33.882,28.803 35.862,27.345 C35.884,27.328 35.9,27.308 35.909,27.282 C36.415,25.799 37.987,22.56 36.401,21.736 C34.92,20.967 34.366,18.739 32.921,17.221 C32.755,17.047 32.519,16.96 32.281,16.929 C30.509,16.701 29.712,15.354 28.52,16.25 C27.627,16.921 26.624,16.512 26.312,15.439 C26.211,15.09 26.032,14.778 25.389,14.579 C24.901,14.429 24.664,13.876 24.84,13.397 C24.842,13.39 24.845,13.383 24.847,13.376 C25.083,12.735 23.758,12.833 23.084,12.945 C22.896,12.976 23.536,12.215 23.326,12.339 C22.498,12.827 21.469,11.984 21.514,11.023 C21.559,10.049 21.741,10.096 23.411,9.904 C25.208,9.067 26.079,9.677 26.021,11.733 C27.133,11.897 27.521,11.406 27.186,10.26 C27.088,9.925 27.167,9.551 27.379,9.274 C29.427,6.611 31.138,5.449 34.272,4.373 C34.737,4.214 34.999,3.749 34.938,3.274 C31.791,1.21 28.033,0 23.989,0 C19.826,0 15.962,1.274 12.76,3.45 L12.76,3.45 Z" id="Stroke-30" sketch:type="MSShapeGroup"></path>
            </g>
        </g>
    </g>
</svg>