<?xml version="1.0" encoding="UTF-8" standalone="no"?>
<svg width="60px" height="54px" viewBox="0 0 60 54" version="1.1" xmlns="http://www.w3.org/2000/svg" xmlns:xlink="http://www.w3.org/1999/xlink" xmlns:sketch="http://www.bohemiancoding.com/sketch/ns">
    <!-- Generator: Sketch 3.2.2 (9983) - http://www.bohemiancoding.com/sketch -->
    <title>108 - Magnet (Outline)</title>
    <desc>Created with Sketch.</desc>
    <defs></defs>
    <g id="Page-1" stroke="none" stroke-width="1" fill="none" fill-rule="evenodd" sketch:type="MSPage">
        <g id="Icons" sketch:type="MSArtboardGroup" transform="translate(-360.000000, -3600.000000)" stroke="#1A1718" stroke-width="2" stroke-linecap="round" stroke-linejoin="round">
            <g id="108---Magnet-(Outline)" sketch:type="MSLayerGroup" transform="translate(361.000000, 3601.000000)">
                <path d="M58,38 L26,38 C19.373,38 14,32.628 14,26 C14,19.372 19.373,14 26,14 L58,14 L58,0 L26,0 C11.641,0 0,11.641 0,26 C0,40.359 11.641,52 26,52 L58,52 L58,38 L58,38 Z" id="Path" sketch:type="MSShapeGroup"></path>
                <path d="M41,0 L45,0 L45,14 L41,14 L41,0 Z" id="Path" sketch:type="MSShapeGroup"></path>
                <path d="M41,38 L45,38 L45,52 L41,52 L41,38 Z" id="Path" sketch:type="MSShapeGroup"></path>
            </g>
        </g>
    </g>
</svg>