<?xml version="1.0" encoding="UTF-8" standalone="no"?>
<svg width="60px" height="48px" viewBox="0 0 60 48" version="1.1" xmlns="http://www.w3.org/2000/svg" xmlns:xlink="http://www.w3.org/1999/xlink" xmlns:sketch="http://www.bohemiancoding.com/sketch/ns">
    <!-- Generator: Sketch 3.2.2 (9983) - http://www.bohemiancoding.com/sketch -->
    <title>151 - Live News (Outline)</title>
    <desc>Created with Sketch.</desc>
    <defs></defs>
    <g id="Page-1" stroke="none" stroke-width="1" fill="none" fill-rule="evenodd" sketch:type="MSPage">
        <g id="Icons" sketch:type="MSArtboardGroup" transform="translate(-1200.000000, -3005.000000)" stroke-width="2" stroke-linejoin="round">
            <g id="151---Live-News-(Outline)" sketch:type="MSLayerGroup" transform="translate(1201.000000, 3006.000000)">
                <path d="M0,0 L58,0 L58,38 L0,38 L0,0 Z" id="Stroke-141" stroke="#161819" stroke-linecap="round" sketch:type="MSShapeGroup"></path>
                <path d="M14,28 L53,28 L53,33 L14,33 L14,28 Z M49,4 L53,4 L53,8 L49,8 L49,4 Z M40.14,28 C40.302,27.89 40.47,27.789 40.628,27.675 C40.339,27.419 40.018,27.195 39.664,27.018 L35,24 C34.307,23.654 33,23.775 33,23 L33,20.896 C33.151,20.724 34.323,20.011 34.507,19.751 C35.238,18.719 35.984,17.583 36.367,16.392 C37.055,16.18 38,15.544 38,14.789 L38,12.544 C38,12.349 37.897,12.162 37.752,11.988 C37.288,11.432 37,10.751 37,10.027 L37,9 C37,9 36.842,3 30,3 C23.158,3 23,9 23,9 L23,10.027 C23,10.751 22.712,11.432 22.248,11.988 C22.103,12.162 22,12.349 22,12.544 L22,14.789 C22,15.381 22.75,15.902 23.215,16.202 C23.776,18.645 27,20.403 27,20.403 L27,22.455 C27,23.204 25.162,23.893 24.505,24.251 L19.798,26.983 C19.456,27.169 19.15,27.403 18.874,27.663 C19.037,27.782 19.21,27.887 19.377,28 L40.14,28 L40.14,28 Z M5,33 L10,33 L10,28 L5,28 L5,33 Z" id="Stroke-173" stroke="#000000" sketch:type="MSShapeGroup"></path>
                <path d="M31,43 L31,38 L27,38 L27,43 L22,43 L22,46 L36,46 L36,43 L31,43 L31,43 Z" id="Stroke-174" stroke="#161819" stroke-linecap="round" sketch:type="MSShapeGroup"></path>
            </g>
        </g>
    </g>
</svg>