<?xml version="1.0" encoding="UTF-8" standalone="no"?>
<svg width="60px" height="60px" viewBox="0 0 60 60" version="1.1" xmlns="http://www.w3.org/2000/svg" xmlns:xlink="http://www.w3.org/1999/xlink" xmlns:sketch="http://www.bohemiancoding.com/sketch/ns">
    <!-- Generator: Sketch 3.2.2 (9983) - http://www.bohemiancoding.com/sketch -->
    <title>238 - High Volume (Outline)</title>
    <desc>Created with Sketch.</desc>
    <defs></defs>
    <g id="Page-1" stroke="none" stroke-width="1" fill="none" fill-rule="evenodd" sketch:type="MSPage">
        <g id="238---High-Volume-(Outline)" sketch:type="MSLayerGroup" transform="translate(1.000000, 1.000000)" stroke-width="2" stroke-linecap="round">
            <path d="M16.427,20 L8.104,20 C6.942,20 6,20.942 6,22.104 L6,34.896 C6,36.058 6.942,37 8.104,37 L16.427,37 C16.802,37 17.17,37.1 17.494,37.291 L30.83,49.706 C32.232,50.531 34,49.52 34,47.893 L34,9.107 C34,7.48 32.232,6.469 30.83,7.294 L17.494,19.709 C17.17,19.9 16.802,20 16.427,20 L16.427,20 Z" id="Stroke-122" stroke="#1A1718" stroke-linejoin="round" sketch:type="MSShapeGroup"></path>
            <path d="M41.54,41.042 C48.185,34.397 48.185,23.644 41.54,17" id="Stroke-128" stroke="#1A1718" stroke-linejoin="round" sketch:type="MSShapeGroup"></path>
            <path d="M38,37 C42.698,32.302 42.698,24.698 38,20" id="Stroke-130" stroke="#1A1718" stroke-linejoin="round" sketch:type="MSShapeGroup"></path>
            <path d="M44.476,46 C53.873,36.603 53.873,21.396 44.476,12" id="Stroke-132" stroke="#1A1718" stroke-linejoin="round" sketch:type="MSShapeGroup"></path>
            <path d="M58,29 C58,45.016 45.016,58 29,58 C12.984,58 0,45.016 0,29 C0,12.984 12.984,0 29,0 C45.016,0 58,12.984 58,29 L58,29 Z" id="Stroke-316" stroke="#000000" sketch:type="MSShapeGroup"></path>
        </g>
    </g>
</svg>