<?xml version="1.0" encoding="UTF-8" standalone="no"?>
<svg width="60px" height="60px" viewBox="0 0 60 60" version="1.1" xmlns="http://www.w3.org/2000/svg" xmlns:xlink="http://www.w3.org/1999/xlink" xmlns:sketch="http://www.bohemiancoding.com/sketch/ns">
    <!-- Generator: Sketch 3.2.2 (9983) - http://www.bohemiancoding.com/sketch -->
    <title>117 - Controls (Outline)</title>
    <desc>Created with Sketch.</desc>
    <defs></defs>
    <g id="Page-1" stroke="none" stroke-width="1" fill="none" fill-rule="evenodd" sketch:type="MSPage">
        <g id="Icons" sketch:type="MSArtboardGroup" transform="translate(-480.000000, -3477.000000)" stroke="#000000" stroke-width="2" stroke-linecap="round" stroke-linejoin="round">
            <g id="117---Controls-(Outline)" sketch:type="MSLayerGroup" transform="translate(481.000000, 3478.000000)">
                <path d="M0,0 L58,0 L58,58 L0,58 L0,0 Z" id="Path" sketch:type="MSShapeGroup"></path>
                <path d="M10,37 L10,5 L10,37 Z" id="Path" sketch:type="MSShapeGroup"></path>
                <path d="M5,37 L15,37 L15,49 L5,49 L5,37 Z" id="Path" sketch:type="MSShapeGroup"></path>
                <path d="M10,49 L10,53 L10,49 Z" id="Path" sketch:type="MSShapeGroup"></path>
                <path d="M29,23 L29,5 L29,23 Z" id="Path" sketch:type="MSShapeGroup"></path>
                <path d="M24,23 L34,23 L34,35 L24,35 L24,23 Z" id="Path" sketch:type="MSShapeGroup"></path>
                <path d="M29,35 L29,53 L29,35 Z" id="Path" sketch:type="MSShapeGroup"></path>
                <path d="M48,21 L48,53 L48,21 Z" id="Path" sketch:type="MSShapeGroup"></path>
                <path d="M43,9 L53,9 L53,21 L43,21 L43,9 Z" id="Path" sketch:type="MSShapeGroup"></path>
                <path d="M48,9 L48,5 L48,9 Z" id="Path" sketch:type="MSShapeGroup"></path>
            </g>
        </g>
    </g>
</svg>