<?xml version="1.0" encoding="UTF-8" standalone="no"?>
<svg width="44px" height="57px" viewBox="0 0 44 57" version="1.1" xmlns="http://www.w3.org/2000/svg" xmlns:xlink="http://www.w3.org/1999/xlink" xmlns:sketch="http://www.bohemiancoding.com/sketch/ns">
    <!-- Generator: Sketch 3.2.2 (9983) - http://www.bohemiancoding.com/sketch -->
    <title>289 - Unlocked (Outline)</title>
    <desc>Created with Sketch.</desc>
    <defs></defs>
    <g id="Page-1" stroke="none" stroke-width="1" fill="none" fill-rule="evenodd" sketch:type="MSPage">
        <g id="289---Unlocked-(Outline)" sketch:type="MSLayerGroup" transform="translate(1.000000, 1.000000)" stroke="#1A1718" stroke-width="2" stroke-linecap="round">
            <path d="M0,23 L42,23 L42,55 L0,55 L0,23 Z" id="Path" sketch:type="MSShapeGroup"></path>
            <path d="M9,13.82 L9,10.601 C9,4.77 14.175,0 20.5,0 C26.825,0 32,4.77 32,10.601 L32,23" id="Path" sketch:type="MSShapeGroup"></path>
            <path d="M21,43 L21,43 C19.35,43 18,41.65 18,40 L18,34 C18,32.35 19.35,31 21,31 C22.65,31 24,32.35 24,34 L24,40 C24,41.65 22.65,43 21,43 L21,43 Z" id="Path" sketch:type="MSShapeGroup"></path>
            <path d="M0,49 L42,49 L42,55 L0,55 L0,49 Z" id="Path" sketch:type="MSShapeGroup"></path>
        </g>
    </g>
</svg>