<?xml version="1.0" encoding="UTF-8" standalone="no"?>
<svg width="54px" height="50px" viewBox="0 0 54 50" version="1.1" xmlns="http://www.w3.org/2000/svg" xmlns:xlink="http://www.w3.org/1999/xlink" xmlns:sketch="http://www.bohemiancoding.com/sketch/ns">
    <!-- Generator: Sketch 3.2.2 (9983) - http://www.bohemiancoding.com/sketch -->
    <title>114 - Controls (Outline)</title>
    <desc>Created with Sketch.</desc>
    <defs></defs>
    <g id="Page-1" stroke="none" stroke-width="1" fill="none" fill-rule="evenodd" sketch:type="MSPage">
        <g id="Icons" sketch:type="MSArtboardGroup" transform="translate(-843.000000, -3482.000000)" stroke="#000000" stroke-width="2" stroke-linecap="round" stroke-linejoin="round">
            <g id="114---Controls-(Outline)" sketch:type="MSLayerGroup" transform="translate(844.000000, 3483.000000)">
                <path d="M16,5 L52,5 L16,5 Z" id="Path" sketch:type="MSShapeGroup"></path>
                <path d="M4,0 L16,0 L16,10 L4,10 L4,0 Z" id="Path" sketch:type="MSShapeGroup"></path>
                <path d="M4,5 L0,5 L4,5 Z" id="Path" sketch:type="MSShapeGroup"></path>
                <path d="M32,24 L52,24 L32,24 Z" id="Path" sketch:type="MSShapeGroup"></path>
                <path d="M20,19 L32,19 L32,29 L20,29 L20,19 Z" id="Path" sketch:type="MSShapeGroup"></path>
                <path d="M20,24 L0,24 L20,24 Z" id="Path" sketch:type="MSShapeGroup"></path>
                <path d="M36,43 L0,43 L36,43 Z" id="Path" sketch:type="MSShapeGroup"></path>
                <path d="M36,38 L48,38 L48,48 L36,48 L36,38 Z" id="Path" sketch:type="MSShapeGroup"></path>
                <path d="M48,43 L52,43 L48,43 Z" id="Path" sketch:type="MSShapeGroup"></path>
            </g>
        </g>
    </g>
</svg>