<?xml version="1.0" encoding="UTF-8" standalone="no"?>
<svg width="46px" height="60px" viewBox="0 0 46 60" version="1.1" xmlns="http://www.w3.org/2000/svg" xmlns:xlink="http://www.w3.org/1999/xlink" xmlns:sketch="http://www.bohemiancoding.com/sketch/ns">
    <!-- Generator: Sketch 3.2.2 (9983) - http://www.bohemiancoding.com/sketch -->
    <title>297 - User (Outline)</title>
    <desc>Created with Sketch.</desc>
    <defs></defs>
    <g id="Page-1" stroke="none" stroke-width="1" fill="none" fill-rule="evenodd" sketch:type="MSPage">
        <g id="297---User-(Outline)" sketch:type="MSLayerGroup" transform="translate(0.000000, 1.000000)" stroke="#000000" stroke-width="2" stroke-linecap="round">
            <path d="M45,50.957 C45,47.919 43.283,45.142 40.566,43.783 L29.539,39.007 C28.936,38.705 28.445,38.063 28.099,37.367 C27.787,36.739 28.253,36 28.954,36 L36.72,36 C36.72,36 39.568,36.273 41.764,35.33 C43.05,34.777 43.494,33.162 42.689,32.017 C40.336,28.668 35.473,20.782 35.316,12.638 C35.316,12.638 35.046,0.102 22.678,0 C15.463,0.06 12.055,4.306 10.468,7.835 C9.582,9.804 9.203,11.95 9.06,14.104 C8.547,21.866 4.594,29.195 2.752,32.23 C2.127,33.259 2.429,34.629 3.463,35.247 C5.157,36.26 7.231,36 7.231,36 L15.18,36 C15.955,36 16.297,36.979 15.688,37.459 C15.192,37.85 14.72,38.204 14.464,38.343 L5.18,43.72 C2.603,45.125 1,47.826 1,50.761 L1,52 L1,53 C1,55.761 10.85,58 23,58 C35.15,58 45,55.761 45,53 L45,52 L45,50.957 L45,50.957 Z" id="Path" sketch:type="MSShapeGroup"></path>
        </g>
    </g>
</svg>