<?xml version="1.0" encoding="UTF-8" standalone="no"?>
<svg width="56px" height="56px" viewBox="0 0 56 56" version="1.1" xmlns="http://www.w3.org/2000/svg" xmlns:xlink="http://www.w3.org/1999/xlink" xmlns:sketch="http://www.bohemiancoding.com/sketch/ns">
    <!-- Generator: Sketch 3.2.2 (9983) - http://www.bohemiancoding.com/sketch -->
    <title>83 - Edit (Outline)</title>
    <desc>Created with Sketch.</desc>
    <defs></defs>
    <g id="Page-1" stroke="none" stroke-width="1" fill="none" fill-rule="evenodd" sketch:type="MSPage">
        <g id="Icons" sketch:type="MSArtboardGroup" transform="translate(-963.000000, -3838.000000)" stroke="#1A1718" stroke-width="2" stroke-linecap="round" stroke-linejoin="round">
            <g id="83---Edit-(Outline)" sketch:type="MSLayerGroup" transform="translate(964.000000, 3839.000000)">
                <path d="M15.594,50.464 L0.745,54 L4.281,39.151 L40.343,3.088 L51.657,14.402 L15.594,50.464 L15.594,50.464 Z M4.281,39.151 L10.645,38.443 L4.281,39.151 Z M9.938,44.807 L10.645,38.443 L9.938,44.807 Z M9.938,44.807 L16.302,44.1 L9.938,44.807 Z M15.594,50.464 L16.302,44.1 L15.594,50.464 Z M9.938,44.807 L16.302,44.1 L9.938,44.807 Z M0.745,54 L4,50.745 L0.745,54 Z M40.343,3.088 C43.467,-0.036 48.533,-0.036 51.657,3.088 C54.781,6.212 54.781,11.278 51.657,14.402 L40.343,3.088 Z M34.686,8.745 L46,20.059 L34.686,8.745 Z M37.515,5.917 L48.828,17.23 L37.515,5.917 Z M10.645,38.443 L33.272,15.816 L10.645,38.443 Z M16.302,44.1 L38.929,21.473 L16.302,44.1 Z" id="Stroke-25" sketch:type="MSShapeGroup"></path>
            </g>
        </g>
    </g>
</svg>