<?xml version="1.0" encoding="UTF-8" standalone="no"?>
<svg width="60px" height="53px" viewBox="0 0 60 53" version="1.1" xmlns="http://www.w3.org/2000/svg" xmlns:xlink="http://www.w3.org/1999/xlink" xmlns:sketch="http://www.bohemiancoding.com/sketch/ns">
    <!-- Generator: Sketch 3.2.2 (9983) - http://www.bohemiancoding.com/sketch -->
    <title>52 - Unlock Folder (Outline)</title>
    <desc>Created with Sketch.</desc>
    <defs></defs>
    <g id="Page-1" stroke="none" stroke-width="1" fill="none" fill-rule="evenodd" sketch:type="MSPage">
        <g id="Icons" sketch:type="MSArtboardGroup" transform="translate(-1080.000000, -4201.000000)" stroke-width="2" stroke-linejoin="round">
            <g id="52---Unlock-Folder-(Outline)" sketch:type="MSLayerGroup" transform="translate(1081.000000, 4202.000000)">
                <path d="M25,7 L20,0 L0,0 L0,51 L58,51 L58,7 L25,7 L25,7 Z" id="Stroke-81" stroke="#000000" sketch:type="MSShapeGroup"></path>
                <path d="M20,0 L30,13.968" id="Stroke-82" stroke="#000000" stroke-linecap="round" sketch:type="MSShapeGroup"></path>
                <path d="M29,39 L29,41 L29,39 Z" id="Path" stroke="#1A1718" stroke-linecap="round" sketch:type="MSShapeGroup"></path>
                <path d="M20,30 L38,30 L38,44 L20,44 L20,30 Z" id="Path" stroke="#1A1718" stroke-linecap="round" sketch:type="MSShapeGroup"></path>
                <path d="M24,25 C24,22.239 26.239,20 29,20 C31.761,20 34,22.239 34,25 L34,30" id="Path" stroke="#1A1718" stroke-linecap="round" sketch:type="MSShapeGroup"></path>
                <path d="M32,36 C32,37.657 30.657,39 29,39 C27.343,39 26,37.657 26,36 C26,34.343 27.343,33 29,33 C30.657,33 32,34.343 32,36 L32,36 Z" id="Path" stroke="#1A1718" stroke-linecap="round" sketch:type="MSShapeGroup"></path>
                <path d="M30,14 L58,14 L30,14 Z" id="Path" stroke="#000000" sketch:type="MSShapeGroup"></path>
            </g>
        </g>
    </g>
</svg>