<?xml version="1.0" encoding="UTF-8" standalone="no"?>
<svg width="44px" height="42px" viewBox="0 0 44 42" version="1.1" xmlns="http://www.w3.org/2000/svg" xmlns:xlink="http://www.w3.org/1999/xlink" xmlns:sketch="http://www.bohemiancoding.com/sketch/ns">
    <!-- Generator: Sketch 3.2.2 (9983) - http://www.bohemiancoding.com/sketch -->
    <title>211 - Divide (Outline)</title>
    <desc>Created with Sketch.</desc>
    <defs></defs>
    <g id="Page-1" stroke="none" stroke-width="1" fill="none" fill-rule="evenodd" sketch:type="MSPage">
        <g id="Icons" sketch:type="MSArtboardGroup" transform="translate(-1208.000000, -2287.000000)" stroke="#1A1718" stroke-width="2">
            <g id="211---Divide-(Outline)" sketch:type="MSLayerGroup" transform="translate(1209.000000, 2288.000000)">
                <path d="M37.059,15 L4.941,15 C2.224,15 0,17.282 0,20 C0,22.718 2.224,25 4.941,25 L37.059,25 C39.776,25 42,22.718 42,20 C42,17.282 39.776,15 37.059,15 L37.059,15 Z" id="Stroke-356" sketch:type="MSShapeGroup"></path>
                <path d="M26,5 C26,7.761 23.761,10 21,10 C18.239,10 16,7.761 16,5 C16,2.238 18.239,0 21,0 C23.761,0 26,2.238 26,5 L26,5 Z" id="Stroke-378" sketch:type="MSShapeGroup"></path>
                <path d="M26,35 C26,37.761 23.761,40 21,40 C18.239,40 16,37.761 16,35 C16,32.238 18.239,30 21,30 C23.761,30 26,32.238 26,35 L26,35 Z" id="Stroke-380" sketch:type="MSShapeGroup"></path>
            </g>
        </g>
    </g>
</svg>