<?xml version="1.0" encoding="UTF-8" standalone="no"?>
<svg width="45px" height="60px" viewBox="0 0 45 60" version="1.1" xmlns="http://www.w3.org/2000/svg" xmlns:xlink="http://www.w3.org/1999/xlink" xmlns:sketch="http://www.bohemiancoding.com/sketch/ns">
    <!-- Generator: Sketch 3.2.2 (9983) - http://www.bohemiancoding.com/sketch -->
    <title>121 - Bookmark (Outline)</title>
    <desc>Created with Sketch.</desc>
    <defs></defs>
    <g id="Page-1" stroke="none" stroke-width="1" fill="none" fill-rule="evenodd" sketch:type="MSPage">
        <g id="Icons" sketch:type="MSArtboardGroup" transform="translate(-1207.000000, -3357.000000)" stroke="#000000" stroke-width="2" stroke-linecap="round" stroke-linejoin="round">
            <g id="121---Bookmark-(Outline)" sketch:type="MSLayerGroup" transform="translate(1207.000000, 3358.000000)">
                <path d="M6,9 L6,58 L6,9 Z" id="Path" sketch:type="MSShapeGroup"></path>
                <path d="M39,6 L44,6 L39,6 Z" id="Path" sketch:type="MSShapeGroup"></path>
                <path d="M38,3 L44,3 L38,3 Z" id="Path" sketch:type="MSShapeGroup"></path>
                <path d="M13,5 L11,9 L11,35.201 C11,35.707 11.666,35.891 11.925,35.458 L17,27 L22.075,35.458 C22.334,35.891 23,35.707 23,35.201 L23,9 L25,5 L13,5 L13,5 Z" id="Path" sketch:type="MSShapeGroup"></path>
                <path d="M5.5,0 C2.873,0 0.753,2.282 1.023,4.961 C1.259,7.296 3.365,9 5.712,9 L11,9 L13,5 L25,5 L23.039,8.921 C23.021,8.958 23.048,9 23.088,9 L44,9 L44,0 L5.5,0 L5.5,0 Z" id="Path" sketch:type="MSShapeGroup"></path>
                <path d="M23,9.299 L23,35.201 C23,35.707 22.334,35.891 22.075,35.458 L17,27 L11.925,35.458 C11.665,35.891 11,35.707 11,35.201 L11,9 L5,9 C2.8,9 1,7.2 1,5 L1,53.958 C1,56.19 2.81,58 5.042,58 L44,58 L44,9 L23.299,9 C23.134,9 23,9.134 23,9.299 L23,9.299 Z" id="Path" sketch:type="MSShapeGroup"></path>
            </g>
        </g>
    </g>
</svg>