<?xml version="1.0" encoding="UTF-8" standalone="no"?>
<svg width="53px" height="53px" viewBox="0 0 53 53" version="1.1" xmlns="http://www.w3.org/2000/svg" xmlns:xlink="http://www.w3.org/1999/xlink" xmlns:sketch="http://www.bohemiancoding.com/sketch/ns">
    <!-- Generator: Sketch 3.2.2 (9983) - http://www.bohemiancoding.com/sketch -->
    <title>344 - Broken Link (Outline)</title>
    <desc>Created with Sketch.</desc>
    <defs></defs>
    <g id="Page-1" stroke="none" stroke-width="1" fill="none" fill-rule="evenodd" sketch:type="MSPage">
        <g id="344---Broken-Link-(Outline)" sketch:type="MSLayerGroup" stroke="#1A1718" stroke-width="2" stroke-linecap="round" stroke-linejoin="round">
            <path d="M24.008,13.401 L33.2,4.208 C37.478,-0.07 44.478,-0.07 48.756,4.208 C53.034,8.487 53.034,15.487 48.756,19.765 L36.735,31.786 C32.457,36.064 25.457,36.064 21.179,31.786" id="Path" sketch:type="MSShapeGroup"></path>
            <path d="M27.543,40.978 L19.765,48.756 C15.487,53.034 8.487,53.034 4.208,48.756 C-0.07,44.478 -0.07,37.478 4.208,33.2 L15.522,21.886 C19.8,17.608 26.801,17.608 31.078,21.886" id="Path" sketch:type="MSShapeGroup"></path>
            <path d="M33.965,45 L33.965,51 L33.965,45 Z" id="Path" sketch:type="MSShapeGroup"></path>
            <path d="M37.722,43 L41.965,47.243 L37.722,43 Z" id="Path" sketch:type="MSShapeGroup"></path>
            <path d="M38.965,39 L44.965,39 L38.965,39 Z" id="Path" sketch:type="MSShapeGroup"></path>
            <path d="M15.965,10 L15.965,4 L15.965,10 Z" id="Path" sketch:type="MSShapeGroup"></path>
            <path d="M12.207,12 L7.965,7.757 L12.207,12 Z" id="Path" sketch:type="MSShapeGroup"></path>
            <path d="M10.965,16 L4.965,16 L10.965,16 Z" id="Path" sketch:type="MSShapeGroup"></path>
        </g>
    </g>
</svg>