<?xml version="1.0" encoding="UTF-8" standalone="no"?>
<svg width="32px" height="58px" viewBox="0 0 32 58" version="1.1" xmlns="http://www.w3.org/2000/svg" xmlns:xlink="http://www.w3.org/1999/xlink" xmlns:sketch="http://www.bohemiancoding.com/sketch/ns">
    <!-- Generator: Sketch 3.2.2 (9983) - http://www.bohemiancoding.com/sketch -->
    <title>316 - Siri (Outline)</title>
    <desc>Created with Sketch.</desc>
    <defs></defs>
    <g id="Page-1" stroke="none" stroke-width="1" fill="none" fill-rule="evenodd" sketch:type="MSPage">
        <g id="316---Siri-(Outline)" sketch:type="MSLayerGroup" transform="translate(1.000000, 1.000000)">
            <path d="M30,28 L30,34 C30,42.271 23.271,49 15,49 C6.728,49 0,42.271 0,34 L0,28" id="Path" stroke="#000000" stroke-width="2" stroke-linecap="round" sketch:type="MSShapeGroup"></path>
            <path d="M15,44 L15,44 C9.5,44 5,39.5 5,34 L5,10 C5,4.5 9.5,0 15,0 C20.5,0 25,4.5 25,10 L25,34 C25,39.5 20.5,44 15,44 L15,44 Z" id="Path" stroke="#000000" stroke-width="2" stroke-linecap="round" sketch:type="MSShapeGroup"></path>
            <path d="M15,49 L15,56 L15,49 Z" id="Path" stroke="#000000" stroke-width="2" stroke-linecap="round" sketch:type="MSShapeGroup"></path>
            <path d="M21,56 L9,56 L21,56 Z" id="Path" stroke="#000000" stroke-width="2" stroke-linecap="round" sketch:type="MSShapeGroup"></path>
            <path d="M10,3 C10,3.552 9.552,4 9,4 C8.448,4 8,3.552 8,3 C8,2.448 8.448,2 9,2 C9.552,2 10,2.448 10,3" id="Fill-2" fill="#000000" sketch:type="MSShapeGroup"></path>
            <path d="M16,3 C16,3.552 15.552,4 15,4 C14.448,4 14,3.552 14,3 C14,2.448 14.448,2 15,2 C15.552,2 16,2.448 16,3" id="Fill-3" fill="#000000" sketch:type="MSShapeGroup"></path>
            <path d="M22,3 C22,3.552 21.552,4 21,4 C20.448,4 20,3.552 20,3 C20,2.448 20.448,2 21,2 C21.552,2 22,2.448 22,3" id="Fill-4" fill="#000000" sketch:type="MSShapeGroup"></path>
            <path d="M7,6 C7,6.552 6.552,7 6,7 C5.448,7 5,6.552 5,6 C5,5.448 5.448,5 6,5 C6.552,5 7,5.448 7,6" id="Fill-5" fill="#000000" sketch:type="MSShapeGroup"></path>
            <path d="M13,6 C13,6.552 12.552,7 12,7 C11.448,7 11,6.552 11,6 C11,5.448 11.448,5 12,5 C12.552,5 13,5.448 13,6" id="Fill-6" fill="#000000" sketch:type="MSShapeGroup"></path>
            <path d="M7,12 C7,12.552 6.552,13 6,13 C5.448,13 5,12.552 5,12 C5,11.448 5.448,11 6,11 C6.552,11 7,11.448 7,12" id="Fill-7" fill="#000000" sketch:type="MSShapeGroup"></path>
            <path d="M13,12 C13,12.552 12.552,13 12,13 C11.448,13 11,12.552 11,12 C11,11.448 11.448,11 12,11 C12.552,11 13,11.448 13,12" id="Fill-8" fill="#000000" sketch:type="MSShapeGroup"></path>
            <path d="M10,9 C10,9.552 9.552,10 9,10 C8.448,10 8,9.552 8,9 C8,8.448 8.448,8 9,8 C9.552,8 10,8.448 10,9" id="Fill-9" fill="#000000" sketch:type="MSShapeGroup"></path>
            <path d="M16,9 C16,9.552 15.552,10 15,10 C14.448,10 14,9.552 14,9 C14,8.448 14.448,8 15,8 C15.552,8 16,8.448 16,9" id="Fill-10" fill="#000000" sketch:type="MSShapeGroup"></path>
            <path d="M10,15 C10,15.552 9.552,16 9,16 C8.448,16 8,15.552 8,15 C8,14.448 8.448,14 9,14 C9.552,14 10,14.448 10,15" id="Fill-11" fill="#000000" sketch:type="MSShapeGroup"></path>
            <path d="M16,15 C16,15.552 15.552,16 15,16 C14.448,16 14,15.552 14,15 C14,14.448 14.448,14 15,14 C15.552,14 16,14.448 16,15" id="Fill-12" fill="#000000" sketch:type="MSShapeGroup"></path>
            <path d="M19,6 C19,6.552 18.552,7 18,7 C17.448,7 17,6.552 17,6 C17,5.448 17.448,5 18,5 C18.552,5 19,5.448 19,6" id="Fill-13" fill="#000000" sketch:type="MSShapeGroup"></path>
            <path d="M25,6 C25,6.552 24.552,7 24,7 C23.448,7 23,6.552 23,6 C23,5.448 23.448,5 24,5 C24.552,5 25,5.448 25,6" id="Fill-14" fill="#000000" sketch:type="MSShapeGroup"></path>
            <path d="M19,12 C19,12.552 18.552,13 18,13 C17.448,13 17,12.552 17,12 C17,11.448 17.448,11 18,11 C18.552,11 19,11.448 19,12" id="Fill-15" fill="#000000" sketch:type="MSShapeGroup"></path>
            <path d="M22,9 C22,9.552 21.552,10 21,10 C20.448,10 20,9.552 20,9 C20,8.448 20.448,8 21,8 C21.552,8 22,8.448 22,9" id="Fill-16" fill="#000000" sketch:type="MSShapeGroup"></path>
            <path d="M22,15 C22,15.552 21.552,16 21,16 C20.448,16 20,15.552 20,15 C20,14.448 20.448,14 21,14 C21.552,14 22,14.448 22,15" id="Fill-17" fill="#000000" sketch:type="MSShapeGroup"></path>
            <path d="M7,18 C7,18.552 6.552,19 6,19 C5.448,19 5,18.552 5,18 C5,17.448 5.448,17 6,17 C6.552,17 7,17.448 7,18" id="Fill-18" fill="#000000" sketch:type="MSShapeGroup"></path>
            <path d="M13,18 C13,18.552 12.552,19 12,19 C11.448,19 11,18.552 11,18 C11,17.448 11.448,17 12,17 C12.552,17 13,17.448 13,18" id="Fill-19" fill="#000000" sketch:type="MSShapeGroup"></path>
            <path d="M7,24 C7,24.552 6.552,25 6,25 C5.448,25 5,24.552 5,24 C5,23.448 5.448,23 6,23 C6.552,23 7,23.448 7,24" id="Fill-20" fill="#000000" sketch:type="MSShapeGroup"></path>
            <path d="M13,24 C13,24.552 12.552,25 12,25 C11.448,25 11,24.552 11,24 C11,23.448 11.448,23 12,23 C12.552,23 13,23.448 13,24" id="Fill-21" fill="#000000" sketch:type="MSShapeGroup"></path>
            <path d="M10,21 C10,21.552 9.552,22 9,22 C8.448,22 8,21.552 8,21 C8,20.448 8.448,20 9,20 C9.552,20 10,20.448 10,21" id="Fill-22" fill="#000000" sketch:type="MSShapeGroup"></path>
            <path d="M16,21 C16,21.552 15.552,22 15,22 C14.448,22 14,21.552 14,21 C14,20.448 14.448,20 15,20 C15.552,20 16,20.448 16,21" id="Fill-23" fill="#000000" sketch:type="MSShapeGroup"></path>
            <path d="M10,27 C10,27.552 9.552,28 9,28 C8.448,28 8,27.552 8,27 C8,26.448 8.448,26 9,26 C9.552,26 10,26.448 10,27" id="Fill-24" fill="#000000" sketch:type="MSShapeGroup"></path>
            <path d="M16,27 C16,27.552 15.552,28 15,28 C14.448,28 14,27.552 14,27 C14,26.448 14.448,26 15,26 C15.552,26 16,26.448 16,27" id="Fill-25" fill="#000000" sketch:type="MSShapeGroup"></path>
            <path d="M19,18 C19,18.552 18.552,19 18,19 C17.448,19 17,18.552 17,18 C17,17.448 17.448,17 18,17 C18.552,17 19,17.448 19,18" id="Fill-26" fill="#000000" sketch:type="MSShapeGroup"></path>
            <path d="M19,24 C19,24.552 18.552,25 18,25 C17.448,25 17,24.552 17,24 C17,23.448 17.448,23 18,23 C18.552,23 19,23.448 19,24" id="Fill-27" fill="#000000" sketch:type="MSShapeGroup"></path>
            <path d="M22,21 C22,21.552 21.552,22 21,22 C20.448,22 20,21.552 20,21 C20,20.448 20.448,20 21,20 C21.552,20 22,20.448 22,21" id="Fill-28" fill="#000000" sketch:type="MSShapeGroup"></path>
            <path d="M22,27 C22,27.552 21.552,28 21,28 C20.448,28 20,27.552 20,27 C20,26.448 20.448,26 21,26 C21.552,26 22,26.448 22,27" id="Fill-29" fill="#000000" sketch:type="MSShapeGroup"></path>
            <path d="M7,30 C7,30.552 6.552,31 6,31 C5.448,31 5,30.552 5,30 C5,29.448 5.448,29 6,29 C6.552,29 7,29.448 7,30" id="Fill-30" fill="#000000" sketch:type="MSShapeGroup"></path>
            <path d="M13,30 C13,30.552 12.552,31 12,31 C11.448,31 11,30.552 11,30 C11,29.448 11.448,29 12,29 C12.552,29 13,29.448 13,30" id="Fill-31" fill="#000000" sketch:type="MSShapeGroup"></path>
            <path d="M7,36 C7,36.552 6.552,37 6,37 C5.448,37 5,36.552 5,36 C5,35.448 5.448,35 6,35 C6.552,35 7,35.448 7,36" id="Fill-32" fill="#000000" sketch:type="MSShapeGroup"></path>
            <path d="M25,12 C25,12.552 24.552,13 24,13 C23.448,13 23,12.552 23,12 C23,11.448 23.448,11 24,11 C24.552,11 25,11.448 25,12" id="Fill-33" fill="#000000" sketch:type="MSShapeGroup"></path>
            <path d="M25,18 C25,18.552 24.552,19 24,19 C23.448,19 23,18.552 23,18 C23,17.448 23.448,17 24,17 C24.552,17 25,17.448 25,18" id="Fill-34" fill="#000000" sketch:type="MSShapeGroup"></path>
            <path d="M25,24 C25,24.552 24.552,25 24,25 C23.448,25 23,24.552 23,24 C23,23.448 23.448,23 24,23 C24.552,23 25,23.448 25,24" id="Fill-35" fill="#000000" sketch:type="MSShapeGroup"></path>
            <path d="M25,30 C25,30.552 24.552,31 24,31 C23.448,31 23,30.552 23,30 C23,29.448 23.448,29 24,29 C24.552,29 25,29.448 25,30" id="Fill-36" fill="#000000" sketch:type="MSShapeGroup"></path>
            <path d="M25,36 C25,36.552 24.552,37 24,37 C23.448,37 23,36.552 23,36 C23,35.448 23.448,35 24,35 C24.552,35 25,35.448 25,36" id="Fill-37" fill="#000000" sketch:type="MSShapeGroup"></path>
            <path d="M13,36 C13,36.552 12.552,37 12,37 C11.448,37 11,36.552 11,36 C11,35.448 11.448,35 12,35 C12.552,35 13,35.448 13,36" id="Fill-38" fill="#000000" sketch:type="MSShapeGroup"></path>
            <path d="M10,33 C10,33.552 9.552,34 9,34 C8.448,34 8,33.552 8,33 C8,32.448 8.448,32 9,32 C9.552,32 10,32.448 10,33" id="Fill-39" fill="#000000" sketch:type="MSShapeGroup"></path>
            <path d="M16,33 C16,33.552 15.552,34 15,34 C14.448,34 14,33.552 14,33 C14,32.448 14.448,32 15,32 C15.552,32 16,32.448 16,33" id="Fill-40" fill="#000000" sketch:type="MSShapeGroup"></path>
            <path d="M10,39 C10,39.552 9.552,40 9,40 C8.448,40 8,39.552 8,39 C8,38.448 8.448,38 9,38 C9.552,38 10,38.448 10,39" id="Fill-41" fill="#000000" sketch:type="MSShapeGroup"></path>
            <path d="M16,39 C16,39.552 15.552,40 15,40 C14.448,40 14,39.552 14,39 C14,38.448 14.448,38 15,38 C15.552,38 16,38.448 16,39" id="Fill-42" fill="#000000" sketch:type="MSShapeGroup"></path>
            <path d="M19,30 C19,30.552 18.552,31 18,31 C17.448,31 17,30.552 17,30 C17,29.448 17.448,29 18,29 C18.552,29 19,29.448 19,30" id="Fill-43" fill="#000000" sketch:type="MSShapeGroup"></path>
            <path d="M19,36 C19,36.552 18.552,37 18,37 C17.448,37 17,36.552 17,36 C17,35.448 17.448,35 18,35 C18.552,35 19,35.448 19,36" id="Fill-44" fill="#000000" sketch:type="MSShapeGroup"></path>
            <path d="M22,33 C22,33.552 21.552,34 21,34 C20.448,34 20,33.552 20,33 C20,32.448 20.448,32 21,32 C21.552,32 22,32.448 22,33" id="Fill-45" fill="#000000" sketch:type="MSShapeGroup"></path>
            <path d="M22,39 C22,39.552 21.552,40 21,40 C20.448,40 20,39.552 20,39 C20,38.448 20.448,38 21,38 C21.552,38 22,38.448 22,39" id="Fill-46" fill="#000000" sketch:type="MSShapeGroup"></path>
            <path d="M13,42 C13,42.552 12.552,43 12,43 C11.448,43 11,42.552 11,42 C11,41.448 11.448,41 12,41 C12.552,41 13,41.448 13,42" id="Fill-47" fill="#000000" sketch:type="MSShapeGroup"></path>
            <path d="M19,42 C19,42.552 18.552,43 18,43 C17.448,43 17,42.552 17,42 C17,41.448 17.448,41 18,41 C18.552,41 19,41.448 19,42" id="Fill-48" fill="#000000" sketch:type="MSShapeGroup"></path>
        </g>
    </g>
</svg>