<?xml version="1.0" encoding="UTF-8" standalone="no"?>
<svg width="50px" height="59px" viewBox="0 0 50 59" version="1.1" xmlns="http://www.w3.org/2000/svg" xmlns:xlink="http://www.w3.org/1999/xlink" xmlns:sketch="http://www.bohemiancoding.com/sketch/ns">
    <!-- Generator: Sketch 3.2.2 (9983) - http://www.bohemiancoding.com/sketch -->
    <title>313 - Compass (Outline)</title>
    <desc>Created with Sketch.</desc>
    <defs></defs>
    <g id="Page-1" stroke="none" stroke-width="1" fill="none" fill-rule="evenodd" sketch:type="MSPage">
        <g id="Icons" sketch:type="MSArtboardGroup" transform="translate(-965.000000, -1078.000000)" stroke-linecap="round" stroke="#000000" stroke-width="2">
            <g id="313---Compass-(Outline)" sketch:type="MSLayerGroup" transform="translate(966.000000, 1079.000000)">
                <path d="M48,33 C48,46.255 37.255,57 24,57 C10.745,57 0,46.255 0,33 C0,19.745 10.745,9 24,9 C37.255,9 48,19.745 48,33 L48,33 Z" id="Path" sketch:type="MSShapeGroup"></path>
                <path d="M27,3 C27,4.657 25.657,6 24,6 C22.343,6 21,4.657 21,3 C21,1.343 22.343,0 24,0 C25.657,0 27,1.343 27,3 L27,3 Z" id="Path" sketch:type="MSShapeGroup"></path>
                <path d="M24,6 L24,9 L24,6 Z" id="Path" sketch:type="MSShapeGroup"></path>
                <path d="M11.272,45.728 L19.757,28.757 L28.243,37.242 L11.272,45.728 L11.272,45.728 Z M36.728,20.272 L19.757,28.757 L28.243,37.242 L36.728,20.272 L36.728,20.272 Z" id="Stroke-51" stroke-linejoin="round" sketch:type="MSShapeGroup"></path>
            </g>
        </g>
    </g>
</svg>