<?xml version="1.0" encoding="UTF-8" standalone="no"?>
<svg width="60px" height="49px" viewBox="0 0 60 49" version="1.1" xmlns="http://www.w3.org/2000/svg" xmlns:xlink="http://www.w3.org/1999/xlink" xmlns:sketch="http://www.bohemiancoding.com/sketch/ns">
    <!-- Generator: Sketch 3.2.2 (9983) - http://www.bohemiancoding.com/sketch -->
    <title>59 - Document Folder (Outline)</title>
    <desc>Created with Sketch.</desc>
    <defs></defs>
    <g id="Page-1" stroke="none" stroke-width="1" fill="none" fill-rule="evenodd" sketch:type="MSPage">
        <g id="Icons" sketch:type="MSArtboardGroup" transform="translate(-240.000000, -4201.000000)" stroke-width="2" stroke-linejoin="round">
            <g id="59---Document-Folder-(Outline)" sketch:type="MSLayerGroup" transform="translate(240.000000, 4202.000000)">
                <path d="M47.324,47 L2.565,47 C1.535,47 0.786,46.022 1.055,45.027 L11.221,17.156 C11.405,16.474 12.024,16 12.731,16 L57.49,16 C58.52,16 59,16.984 59,17.972 L48.834,45.843 C48.65,46.526 48.031,47 47.324,47 L47.324,47 Z" id="Path" stroke="#000000" sketch:type="MSShapeGroup"></path>
                <path d="M30,16 L30,12 M37,16 L37,12 M44,16 L44,12 M16,16 L16,12 M23,16 L23,12" id="Stroke-62" stroke="#1A1718" stroke-linecap="round" sketch:type="MSShapeGroup"></path>
                <path d="M10,7 L10,13 L4,13" id="Stroke-63" stroke="#1A1718" sketch:type="MSShapeGroup"></path>
                <path d="M11.221,17.156 C11.405,16.473 12.024,16 12.731,16 L54,16 L54,7 L10,7 L4,13 L4,36.953 L11.221,17.156 L11.221,17.156 Z" id="Stroke-65" stroke="#1A1718" sketch:type="MSShapeGroup"></path>
                <path d="M4,13 L10,7 L26,7 L21,0 L2.732,0 C1.776,0 1,0.775 1,1.732 L1,44.46 C1.069,44.462 1.138,44.466 1.205,44.47 L4,36.849 L4,13 L4,13 Z" id="Path" stroke="#000000" sketch:type="MSShapeGroup"></path>
            </g>
        </g>
    </g>
</svg>