<?xml version="1.0" encoding="UTF-8" standalone="no"?>
<svg width="60px" height="60px" viewBox="0 0 60 60" version="1.1" xmlns="http://www.w3.org/2000/svg" xmlns:xlink="http://www.w3.org/1999/xlink" xmlns:sketch="http://www.bohemiancoding.com/sketch/ns">
    <!-- Generator: Sketch 3.2.2 (9983) - http://www.bohemiancoding.com/sketch -->
    <title>264 - Album CD (Outline)</title>
    <desc>Created with Sketch.</desc>
    <defs></defs>
    <g id="Page-1" stroke="none" stroke-width="1" fill="none" fill-rule="evenodd" sketch:type="MSPage">
        <g id="Icons" sketch:type="MSArtboardGroup" transform="translate(-840.000000, -1677.000000)" stroke-linecap="round" stroke="#000000" stroke-width="2">
            <g id="264---Album-CD-(Outline)" sketch:type="MSLayerGroup" transform="translate(841.000000, 1678.000000)">
                <path d="M29,0 C45.016,0 58,12.984 58,29 C58,45.016 45.016,58 29,58 C12.984,58 0,45.016 0,29 C0,12.984 12.984,0 29,0 L29,0 Z" id="Stroke-168" sketch:type="MSShapeGroup"></path>
                <path d="M21.932,6.486 C18.217,7.38 14.801,9.258 12.029,12.029 C9.258,14.801 7.38,18.217 6.486,21.932" id="Stroke-170" sketch:type="MSShapeGroup"></path>
                <path d="M36.068,51.514 C39.783,50.62 43.199,48.742 45.971,45.97 C48.742,43.199 50.62,39.783 51.514,36.068" id="Stroke-172" sketch:type="MSShapeGroup"></path>
                <path d="M23.225,11.313 C20.349,11.982 17.705,13.425 15.565,15.565 C13.425,17.705 11.982,20.349 11.313,23.225" id="Stroke-176" sketch:type="MSShapeGroup"></path>
                <path d="M34.775,46.687 C37.651,46.018 40.295,44.575 42.435,42.435 C44.575,40.295 46.018,37.651 46.687,34.775" id="Stroke-178" sketch:type="MSShapeGroup"></path>
                <path d="M24.519,16.139 C20.34,17.053 17.053,20.34 16.139,24.518" id="Stroke-180" sketch:type="MSShapeGroup"></path>
                <path d="M33.481,41.861 C37.66,40.946 40.946,37.66 41.861,33.481" id="Stroke-182" sketch:type="MSShapeGroup"></path>
                <path d="M29,21.92 C32.91,21.92 36.08,25.09 36.08,29 C36.08,32.91 32.91,36.08 29,36.08 C25.09,36.08 21.92,32.91 21.92,29 C21.92,25.09 25.09,21.92 29,21.92 L29,21.92 Z" id="Stroke-184" sketch:type="MSShapeGroup"></path>
            </g>
        </g>
    </g>
</svg>