<?xml version="1.0" encoding="UTF-8" standalone="no"?>
<svg width="43px" height="59px" viewBox="0 0 43 59" version="1.1" xmlns="http://www.w3.org/2000/svg" xmlns:xlink="http://www.w3.org/1999/xlink" xmlns:sketch="http://www.bohemiancoding.com/sketch/ns">
    <!-- Generator: Sketch 3.2.2 (9983) - http://www.bohemiancoding.com/sketch -->
    <title>26 - Notebook (Outline)</title>
    <desc>Created with Sketch.</desc>
    <defs></defs>
    <g id="Page-1" stroke="none" stroke-width="1" fill="none" fill-rule="evenodd" sketch:type="MSPage">
        <g id="26---Notebook-(Outline)" sketch:type="MSLayerGroup" transform="translate(1.000000, 1.000000)" stroke="#000000" stroke-width="2" stroke-linejoin="round">
            <path d="M38.003,51.996 L0,51.996 L0,0 L38.003,0 C39.658,0 41,1.341 41,2.997 L41,49 C41,50.655 39.658,51.996 38.003,51.996 L38.003,51.996 Z" id="Path" sketch:type="MSShapeGroup"></path>
            <path d="M30,0 L35,0 L35,51.997 L30,51.997 L30,0 Z" id="Path" sketch:type="MSShapeGroup"></path>
            <path d="M0,35.007 L30,35.007 L30,17.007 L0,17.007 L0,35.007 Z" id="Path" sketch:type="MSShapeGroup"></path>
            <path d="M35,35.007 L41,35.007 L41,17.007 L35,17.007 L35,35.007 Z" id="Path" sketch:type="MSShapeGroup"></path>
            <path d="M10,56.997 L7,54.996 L4,56.997 L4,51.996 L10,51.996 L10,56.997 L10,56.997 Z" id="Path" sketch:type="MSShapeGroup"></path>
        </g>
    </g>
</svg>