<?xml version="1.0" encoding="UTF-8" standalone="no"?>
<svg width="60px" height="28px" viewBox="0 0 60 28" version="1.1" xmlns="http://www.w3.org/2000/svg" xmlns:xlink="http://www.w3.org/1999/xlink" xmlns:sketch="http://www.bohemiancoding.com/sketch/ns">
    <!-- Generator: Sketch 3.2.2 (9983) - http://www.bohemiancoding.com/sketch -->
    <title>329 - ON Trigger (Outline)</title>
    <desc>Created with Sketch.</desc>
    <defs></defs>
    <g id="Page-1" stroke="none" stroke-width="1" fill="none" fill-rule="evenodd" sketch:type="MSPage">
        <g id="Icons" sketch:type="MSArtboardGroup" transform="translate(-240.000000, -974.000000)">
            <g id="329---ON-Trigger-(Outline)" sketch:type="MSLayerGroup" transform="translate(241.000000, 975.000000)">
                <path d="M32,13 C32,20.18 37.82,26 45,26 C52.18,26 58,20.18 58,13 C58,5.82 52.18,0 45,0 C37.82,0 32,5.82 32,13 L32,13 Z M6,7 L33.474,7 C32.537,8.796 32,10.834 32,13 C32,15.166 32.537,17.204 33.474,19 L6,19 C2.686,19 0,16.314 0,13 C0,9.686 2.686,7 6,7 L6,7 Z" id="Stroke-488" stroke="#000000" stroke-width="2" stroke-linecap="round" stroke-linejoin="round" sketch:type="MSShapeGroup"></path>
                <path d="M24,13 C24,13.552 24.448,14 25,14 C25.552,14 26,13.552 26,13 C26,12.448 25.552,12 25,12 C24.448,12 24,12.448 24,13" id="Fill-489" fill="#000000" sketch:type="MSShapeGroup"></path>
                <path d="M27,10 C27,10.552 27.448,11 28,11 C28.552,11 29,10.552 29,10 C29,9.448 28.552,9 28,9 C27.448,9 27,9.448 27,10" id="Fill-490" fill="#000000" sketch:type="MSShapeGroup"></path>
                <path d="M21,10 C21,10.552 21.448,11 22,11 C22.552,11 23,10.552 23,10 C23,9.448 22.552,9 22,9 C21.448,9 21,9.448 21,10" id="Fill-491" fill="#000000" sketch:type="MSShapeGroup"></path>
                <path d="M27,16 C27,16.552 27.448,17 28,17 C28.552,17 29,16.552 29,16 C29,15.448 28.552,15 28,15 C27.448,15 27,15.448 27,16" id="Fill-492" fill="#000000" sketch:type="MSShapeGroup"></path>
                <path d="M21,16 C21,16.552 21.448,17 22,17 C22.552,17 23,16.552 23,16 C23,15.448 22.552,15 22,15 C21.448,15 21,15.448 21,16" id="Fill-493" fill="#000000" sketch:type="MSShapeGroup"></path>
                <path d="M18,13 C18,13.552 18.448,14 19,14 C19.552,14 20,13.552 20,13 C20,12.448 19.552,12 19,12 C18.448,12 18,12.448 18,13" id="Fill-494" fill="#000000" sketch:type="MSShapeGroup"></path>
                <path d="M12,13 C12,13.552 12.448,14 13,14 C13.552,14 14,13.552 14,13 C14,12.448 13.552,12 13,12 C12.448,12 12,12.448 12,13" id="Fill-495" fill="#000000" sketch:type="MSShapeGroup"></path>
                <path d="M15,10 C15,10.552 15.448,11 16,11 C16.552,11 17,10.552 17,10 C17,9.448 16.552,9 16,9 C15.448,9 15,9.448 15,10" id="Fill-496" fill="#000000" sketch:type="MSShapeGroup"></path>
                <path d="M9,10 C9,10.552 9.448,11 10,11 C10.552,11 11,10.552 11,10 C11,9.448 10.552,9 10,9 C9.448,9 9,9.448 9,10" id="Fill-497" fill="#000000" sketch:type="MSShapeGroup"></path>
                <path d="M15,16 C15,16.552 15.448,17 16,17 C16.552,17 17,16.552 17,16 C17,15.448 16.552,15 16,15 C15.448,15 15,15.448 15,16" id="Fill-498" fill="#000000" sketch:type="MSShapeGroup"></path>
                <path d="M9,16 C9,16.552 9.448,17 10,17 C10.552,17 11,16.552 11,16 C11,15.448 10.552,15 10,15 C9.448,15 9,15.448 9,16" id="Fill-499" fill="#000000" sketch:type="MSShapeGroup"></path>
                <path d="M6,13 C6,13.552 6.448,14 7,14 C7.552,14 8,13.552 8,13 C8,12.448 7.552,12 7,12 C6.448,12 6,12.448 6,13" id="Fill-500" fill="#000000" sketch:type="MSShapeGroup"></path>
                <path d="M3,10 C3,10.552 3.448,11 4,11 C4.552,11 5,10.552 5,10 C5,9.448 4.552,9 4,9 C3.448,9 3,9.448 3,10" id="Fill-501" fill="#000000" sketch:type="MSShapeGroup"></path>
                <path d="M3,16 C3,16.552 3.448,17 4,17 C4.552,17 5,16.552 5,16 C5,15.448 4.552,15 4,15 C3.448,15 3,15.448 3,16" id="Fill-502" fill="#000000" sketch:type="MSShapeGroup"></path>
            </g>
        </g>
    </g>
</svg>