<?xml version="1.0" encoding="UTF-8" standalone="no"?>
<svg width="60px" height="60px" viewBox="0 0 60 60" version="1.1" xmlns="http://www.w3.org/2000/svg" xmlns:xlink="http://www.w3.org/1999/xlink" xmlns:sketch="http://www.bohemiancoding.com/sketch/ns">
    <!-- Generator: Sketch 3.2.2 (9983) - http://www.bohemiancoding.com/sketch -->
    <title>242 - Shuffle (Outline)</title>
    <desc>Created with Sketch.</desc>
    <defs></defs>
    <g id="Page-1" stroke="none" stroke-width="1" fill="none" fill-rule="evenodd" sketch:type="MSPage">
        <g id="Icons" sketch:type="MSArtboardGroup" transform="translate(-1080.000000, -1917.000000)" stroke-linecap="round" stroke="#000000" stroke-width="2">
            <g id="242---Shuffle-(Outline)" sketch:type="MSLayerGroup" transform="translate(1081.000000, 1918.000000)">
                <path d="M24,29 C24,35.633 18.633,41 12,41" id="Stroke-214" sketch:type="MSShapeGroup"></path>
                <path d="M24,29 C24,22.367 29.367,17 36,17 L46,17" id="Stroke-216" sketch:type="MSShapeGroup"></path>
                <path d="M28.061,38.002 C30.176,39.868 32.954,41 36,41 L46,41" id="Stroke-218" sketch:type="MSShapeGroup"></path>
                <path d="M10,17 L12,17 C15.076,17 17.88,18.154 20.003,20.054" id="Stroke-220" sketch:type="MSShapeGroup"></path>
                <path d="M10,41 L12,41" id="Stroke-222" sketch:type="MSShapeGroup"></path>
                <path d="M36,25 L47,17 L36,9" id="Stroke-224" sketch:type="MSShapeGroup"></path>
                <path d="M36,49 L47,41 L36,33" id="Stroke-230" sketch:type="MSShapeGroup"></path>
                <path d="M58,29 C58,45.016 45.016,58 29,58 C12.984,58 0,45.016 0,29 C0,12.984 12.984,0 29,0 C45.016,0 58,12.984 58,29 L58,29 Z" id="Stroke-250" sketch:type="MSShapeGroup"></path>
            </g>
        </g>
    </g>
</svg>