<?xml version="1.0" encoding="UTF-8" standalone="no"?>
<svg width="32px" height="60px" viewBox="0 0 32 60" version="1.1" xmlns="http://www.w3.org/2000/svg" xmlns:xlink="http://www.w3.org/1999/xlink" xmlns:sketch="http://www.bohemiancoding.com/sketch/ns">
    <!-- Generator: Sketch 3.2.2 (9983) - http://www.bohemiancoding.com/sketch -->
    <title>140 - Charging Battery (Outline)</title>
    <desc>Created with Sketch.</desc>
    <defs></defs>
    <g id="Page-1" stroke="none" stroke-width="1" fill="none" fill-rule="evenodd" sketch:type="MSPage">
        <g id="Icons" sketch:type="MSArtboardGroup" transform="translate(-131.000000, -3237.000000)" stroke="#000000" stroke-width="2" stroke-linejoin="round">
            <g id="140---Charging-Battery-(Outline)" sketch:type="MSLayerGroup" transform="translate(132.000000, 3238.000000)">
                <path d="M27.536,58 L2.464,58 C1.103,58 0,56.897 0,55.536 L0,6.464 C0,5.103 1.103,4 2.464,4 L27.536,4 C28.897,4 30,5.103 30,6.464 L30,55.536 C30,56.897 28.897,58 27.536,58 L27.536,58 Z M10,0 L20,0 L20,4 L10,4 L10,0 Z" id="Stroke-177" stroke-linecap="round" sketch:type="MSShapeGroup"></path>
                <path d="M22,29 L18,29 L18,16.068 C18.012,16.01 17.936,15.975 17.9,16.021 L8,32 L13,32 L13.002,45.929 C12.986,45.988 13.062,46.026 13.1,45.979 L22,29 L22,29 Z" id="Stroke-178" sketch:type="MSShapeGroup"></path>
            </g>
        </g>
    </g>
</svg>