<?xml version="1.0" encoding="UTF-8" standalone="no"?>
<svg width="58px" height="57px" viewBox="0 0 58 57" version="1.1" xmlns="http://www.w3.org/2000/svg" xmlns:xlink="http://www.w3.org/1999/xlink" xmlns:sketch="http://www.bohemiancoding.com/sketch/ns">
    <!-- Generator: Sketch 3.2.2 (9983) - http://www.bohemiancoding.com/sketch -->
    <title>34 - Calendar Date (Outline)</title>
    <desc>Created with Sketch.</desc>
    <defs></defs>
    <g id="Page-1" stroke="none" stroke-width="1" fill="none" fill-rule="evenodd" sketch:type="MSPage">
        <g id="Icons" sketch:type="MSArtboardGroup" transform="translate(-841.000000, -4440.000000)">
            <g id="34---Calendar-Date-(Outline)" sketch:type="MSLayerGroup" transform="translate(842.000000, 4441.000000)">
                <path d="M18,4 L15,4 L18,4 Z" id="Path" stroke="#000000" stroke-width="2" stroke-linecap="round" stroke-linejoin="round" sketch:type="MSShapeGroup"></path>
                <path d="M15,4 C15,1.791 16.791,0 19,0 C21.209,0 23,1.791 23,4 C23,6.209 21.209,8 19,8" id="Path" stroke="#000000" stroke-width="2" stroke-linecap="round" stroke-linejoin="round" sketch:type="MSShapeGroup"></path>
                <path d="M25,8 C27.209,8 29,6.209 29,4 C29,1.791 27.209,0 25,0" id="Path" stroke="#000000" stroke-width="2" stroke-linecap="round" stroke-linejoin="round" sketch:type="MSShapeGroup"></path>
                <path d="M31,8 C33.209,8 35,6.209 35,4 C35,1.791 33.209,0 31,0" id="Path" stroke="#000000" stroke-width="2" stroke-linecap="round" stroke-linejoin="round" sketch:type="MSShapeGroup"></path>
                <path d="M37,8 C39.209,8 41,6.209 41,4 C41,1.791 39.209,0 37,0" id="Path" stroke="#000000" stroke-width="2" stroke-linecap="round" stroke-linejoin="round" sketch:type="MSShapeGroup"></path>
                <path d="M41,4 L56,4 L56,16 L0,16 L0,4 L15,4" id="Path" stroke="#000000" stroke-width="2" stroke-linecap="round" stroke-linejoin="round" sketch:type="MSShapeGroup"></path>
                <path d="M41,4 L56,4 L56,55 L0,55 L0,4 L15,4" id="Path" stroke="#000000" stroke-width="2" stroke-linecap="round" stroke-linejoin="round" sketch:type="MSShapeGroup"></path>
                <path d="M18,23 L18,49 L18,23 Z" id="Path" stroke="#000000" stroke-width="2" stroke-linecap="round" stroke-linejoin="round" sketch:type="MSShapeGroup"></path>
                <path d="M14,49 L22,49 L14,49 Z" id="Path" stroke="#000000" stroke-width="2" stroke-linecap="round" stroke-linejoin="round" sketch:type="MSShapeGroup"></path>
                <path d="M18,23 L12,29 L18,23 Z" id="Path" stroke="#000000" stroke-width="2" stroke-linecap="round" stroke-linejoin="round" sketch:type="MSShapeGroup"></path>
                <path d="M43,29 C43,32.313 40.314,35 37,35 C33.686,35 31,32.313 31,29 C31,25.686 33.686,23 37,23 C40.314,23 43,25.686 43,29 L43,29 Z" id="Path" stroke="#000000" stroke-width="2" stroke-linecap="round" stroke-linejoin="round" sketch:type="MSShapeGroup"></path>
                <path d="M44,42 C44,45.866 40.866,49 37,49 C33.134,49 30,45.866 30,42 C30,38.134 33.134,35 37,35 C40.866,35 44,38.134 44,42 L44,42 Z" id="Path" stroke="#000000" stroke-width="2" stroke-linecap="round" stroke-linejoin="round" sketch:type="MSShapeGroup"></path>
                <path d="M2,7 C2,7.552 1.552,8 1,8 C0.448,8 0,7.552 0,7 C0,6.447 0.448,6 1,6 C1.552,6 2,6.447 2,7" id="Fill-152" fill="#000000" sketch:type="MSShapeGroup"></path>
                <path d="M8,7 C8,7.552 7.552,8 7,8 C6.448,8 6,7.552 6,7 C6,6.447 6.448,6 7,6 C7.552,6 8,6.447 8,7" id="Fill-153" fill="#000000" sketch:type="MSShapeGroup"></path>
                <path d="M2,13 C2,13.552 1.552,14 1,14 C0.448,14 0,13.552 0,13 C0,12.447 0.448,12 1,12 C1.552,12 2,12.447 2,13" id="Fill-154" fill="#000000" sketch:type="MSShapeGroup"></path>
                <path d="M8,13 C8,13.552 7.552,14 7,14 C6.448,14 6,13.552 6,13 C6,12.447 6.448,12 7,12 C7.552,12 8,12.447 8,13" id="Fill-155" fill="#000000" sketch:type="MSShapeGroup"></path>
                <path d="M5,10 C5,10.552 4.552,11 4,11 C3.448,11 3,10.552 3,10 C3,9.447 3.448,9 4,9 C4.552,9 5,9.447 5,10" id="Fill-156" fill="#000000" sketch:type="MSShapeGroup"></path>
                <path d="M11,10 C11,10.552 10.552,11 10,11 C9.448,11 9,10.552 9,10 C9,9.447 9.448,9 10,9 C10.552,9 11,9.447 11,10" id="Fill-157" fill="#000000" sketch:type="MSShapeGroup"></path>
                <path d="M14,7 C14,7.552 13.552,8 13,8 C12.448,8 12,7.552 12,7 C12,6.447 12.448,6 13,6 C13.552,6 14,6.447 14,7" id="Fill-158" fill="#000000" sketch:type="MSShapeGroup"></path>
                <path d="M14,13 C14,13.552 13.552,14 13,14 C12.448,14 12,13.552 12,13 C12,12.447 12.448,12 13,12 C13.552,12 14,12.447 14,13" id="Fill-159" fill="#000000" sketch:type="MSShapeGroup"></path>
                <path d="M20,13 C20,13.552 19.552,14 19,14 C18.448,14 18,13.552 18,13 C18,12.447 18.448,12 19,12 C19.552,12 20,12.447 20,13" id="Fill-160" fill="#000000" sketch:type="MSShapeGroup"></path>
                <path d="M17,10 C17,10.552 16.552,11 16,11 C15.448,11 15,10.552 15,10 C15,9.447 15.448,9 16,9 C16.552,9 17,9.447 17,10" id="Fill-161" fill="#000000" sketch:type="MSShapeGroup"></path>
                <path d="M23,10 C23,10.552 22.552,11 22,11 C21.448,11 21,10.552 21,10 C21,9.447 21.448,9 22,9 C22.552,9 23,9.447 23,10" id="Fill-162" fill="#000000" sketch:type="MSShapeGroup"></path>
                <path d="M26,13 C26,13.552 25.552,14 25,14 C24.448,14 24,13.552 24,13 C24,12.447 24.448,12 25,12 C25.552,12 26,12.447 26,13" id="Fill-163" fill="#000000" sketch:type="MSShapeGroup"></path>
                <path d="M32,13 C32,13.552 31.552,14 31,14 C30.448,14 30,13.552 30,13 C30,12.447 30.448,12 31,12 C31.552,12 32,12.447 32,13" id="Fill-164" fill="#000000" sketch:type="MSShapeGroup"></path>
                <path d="M29,10 C29,10.552 28.552,11 28,11 C27.448,11 27,10.552 27,10 C27,9.447 27.448,9 28,9 C28.552,9 29,9.447 29,10" id="Fill-165" fill="#000000" sketch:type="MSShapeGroup"></path>
                <path d="M35,10 C35,10.552 34.552,11 34,11 C33.448,11 33,10.552 33,10 C33,9.447 33.448,9 34,9 C34.552,9 35,9.447 35,10" id="Fill-166" fill="#000000" sketch:type="MSShapeGroup"></path>
                <path d="M44,7 C44,7.552 43.552,8 43,8 C42.448,8 42,7.552 42,7 C42,6.447 42.448,6 43,6 C43.552,6 44,6.447 44,7" id="Fill-167" fill="#000000" sketch:type="MSShapeGroup"></path>
                <path d="M38,13 C38,13.552 37.552,14 37,14 C36.448,14 36,13.552 36,13 C36,12.447 36.448,12 37,12 C37.552,12 38,12.447 38,13" id="Fill-168" fill="#000000" sketch:type="MSShapeGroup"></path>
                <path d="M44,13 C44,13.552 43.552,14 43,14 C42.448,14 42,13.552 42,13 C42,12.447 42.448,12 43,12 C43.552,12 44,12.447 44,13" id="Fill-169" fill="#000000" sketch:type="MSShapeGroup"></path>
                <path d="M41,10 C41,10.552 40.552,11 40,11 C39.448,11 39,10.552 39,10 C39,9.447 39.448,9 40,9 C40.552,9 41,9.447 41,10" id="Fill-170" fill="#000000" sketch:type="MSShapeGroup"></path>
                <path d="M47,10 C47,10.552 46.552,11 46,11 C45.448,11 45,10.552 45,10 C45,9.447 45.448,9 46,9 C46.552,9 47,9.447 47,10" id="Fill-171" fill="#000000" sketch:type="MSShapeGroup"></path>
                <path d="M50,7 C50,7.552 49.552,8 49,8 C48.448,8 48,7.552 48,7 C48,6.447 48.448,6 49,6 C49.552,6 50,6.447 50,7" id="Fill-172" fill="#000000" sketch:type="MSShapeGroup"></path>
                <path d="M56,7 C56,7.552 55.552,8 55,8 C54.448,8 54,7.552 54,7 C54,6.447 54.448,6 55,6 C55.552,6 56,6.447 56,7" id="Fill-173" fill="#000000" sketch:type="MSShapeGroup"></path>
                <path d="M50,13 C50,13.552 49.552,14 49,14 C48.448,14 48,13.552 48,13 C48,12.447 48.448,12 49,12 C49.552,12 50,12.447 50,13" id="Fill-174" fill="#000000" sketch:type="MSShapeGroup"></path>
                <path d="M56,13 C56,13.552 55.552,14 55,14 C54.448,14 54,13.552 54,13 C54,12.447 54.448,12 55,12 C55.552,12 56,12.447 56,13" id="Fill-175" fill="#000000" sketch:type="MSShapeGroup"></path>
                <path d="M53,10 C53,10.552 52.552,11 52,11 C51.448,11 51,10.552 51,10 C51,9.447 51.448,9 52,9 C52.552,9 53,9.447 53,10" id="Fill-176" fill="#000000" sketch:type="MSShapeGroup"></path>
            </g>
        </g>
    </g>
</svg>