<?xml version="1.0" encoding="UTF-8" standalone="no"?>
<svg width="56px" height="60px" viewBox="0 0 56 60" version="1.1" xmlns="http://www.w3.org/2000/svg" xmlns:xlink="http://www.w3.org/1999/xlink" xmlns:sketch="http://www.bohemiancoding.com/sketch/ns">
    <!-- Generator: Sketch 3.2.2 (9983) - http://www.bohemiancoding.com/sketch -->
    <title>41 - Edit Document (Outline)</title>
    <desc>Created with Sketch.</desc>
    <defs></defs>
    <g id="Page-1" stroke="none" stroke-width="1" fill="none" fill-rule="evenodd" sketch:type="MSPage">
        <g id="Icons" sketch:type="MSArtboardGroup" transform="translate(-1200.000000, -4317.000000)">
            <g id="41---Edit-Document-(Outline)" sketch:type="MSLayerGroup" transform="translate(1201.000000, 4318.000000)">
                <path d="M19,0 L28,0 L28,5 L19,5 L19,0 Z M28,2 L28,5 L19,5 L19,2 L12,2 L12,8 L35,8 L35,2 L28,2 L28,2 Z" id="Stroke-193" stroke="#1A1718" stroke-width="2" stroke-linecap="round" stroke-linejoin="round" sketch:type="MSShapeGroup"></path>
                <path d="M12,17 L21,17 M12,24 L17,24 M25,24 L32,24 M23,31 L16,31" id="Stroke-194" stroke="#000000" stroke-width="2" stroke-linecap="round" stroke-linejoin="round" sketch:type="MSShapeGroup"></path>
                <path d="M17.525,36.137 C14.681,37.617 14.283,40.848 14.186,43.736 C14.755,43.5 15.324,43.265 15.894,43.029 C14.958,42.245 14.023,41.462 13.087,40.678 C12.106,39.856 10.683,41.263 11.673,42.093 C12.609,42.876 13.544,43.66 14.479,44.443 C15.141,44.998 16.155,44.655 16.186,43.736 C16.259,41.569 16.364,38.993 18.534,37.863 C19.679,37.268 18.667,35.542 17.525,36.137" id="Fill-195" fill="#000000" sketch:type="MSShapeGroup"></path>
                <path d="M18.512,41.24 C19.026,42.282 20.012,43.038 21.182,43.172 C21.789,43.241 22.299,43.159 22.87,42.946 C23.276,42.794 24.793,41.614 25.136,42.229 C25.766,43.355 27.493,42.347 26.864,41.219 C26.344,40.29 25.221,39.829 24.175,40.125 C22.81,40.511 21.194,42.166 20.239,40.231 C19.669,39.074 17.944,40.088 18.512,41.24" id="Fill-196" fill="#000000" sketch:type="MSShapeGroup"></path>
                <path d="M54,49 L50,56 L46,49 L46,1.984 C46,0.889 46.889,0 47.985,0 L52.015,0 C53.111,0 54,0.889 54,1.984 L54,49 L54,49 Z M46,7 L54,7 L54,11 L46,11 L46,7 Z M46,49 L54,49 L46,49 Z" id="Stroke-197" stroke="#000000" stroke-width="2" stroke-linejoin="round" sketch:type="MSShapeGroup"></path>
                <path d="M50,56 L50,58" id="Stroke-198" stroke="#000000" stroke-width="2" stroke-linecap="round" stroke-linejoin="round" sketch:type="MSShapeGroup"></path>
                <path d="M35,7 L35,8 L12,8 L12,7 L5,7 L5,53 L42,53 L42,7 L35,7 L35,7 Z M46,49 L46,2 L28,2 L28,5 L19,5 L19,2 L0,2 L0,58 L47,58 L47,50.75 L46,49 L46,49 Z" id="Stroke-199" stroke="#1A1718" stroke-width="2" stroke-linecap="round" stroke-linejoin="round" sketch:type="MSShapeGroup"></path>
                <path d="M13,31 C13,31.552 12.552,32 12,32 C11.448,32 11,31.552 11,31 C11,30.448 11.448,30 12,30 C12.552,30 13,30.448 13,31" id="Fill-468" fill="#000000" sketch:type="MSShapeGroup"></path>
                <path d="M28,31 C28,31.552 27.552,32 27,32 C26.448,32 26,31.552 26,31 C26,30.448 26.448,30 27,30 C27.552,30 28,30.448 28,31" id="Fill-468" fill="#000000" sketch:type="MSShapeGroup"></path>
                <path d="M22,24 C22,24.552 21.552,25 21,25 C20.448,25 20,24.552 20,24 C20,23.448 20.448,23 21,23 C21.552,23 22,23.448 22,24" id="Fill-468" fill="#000000" sketch:type="MSShapeGroup"></path>
                <path d="M26,17 C26,17.552 25.552,18 25,18 C24.448,18 24,17.552 24,17 C24,16.448 24.448,16 25,16 C25.552,16 26,16.448 26,17" id="Fill-468" fill="#000000" sketch:type="MSShapeGroup"></path>
                <path d="M37,24 C37,24.552 36.552,25 36,25 C35.448,25 35,24.552 35,24 C35,23.448 35.448,23 36,23 C36.552,23 37,23.448 37,24" id="Fill-468" fill="#000000" sketch:type="MSShapeGroup"></path>
            </g>
        </g>
    </g>
</svg>