<?xml version="1.0" encoding="UTF-8" standalone="no"?>
<svg width="54px" height="54px" viewBox="0 0 54 54" version="1.1" xmlns="http://www.w3.org/2000/svg" xmlns:xlink="http://www.w3.org/1999/xlink" xmlns:sketch="http://www.bohemiancoding.com/sketch/ns">
    <!-- Generator: Sketch 3.2.2 (9983) - http://www.bohemiancoding.com/sketch -->
    <title>96 - Settings (Outline)</title>
    <desc>Created with Sketch.</desc>
    <defs></defs>
    <g id="Page-1" stroke="none" stroke-width="1" fill="none" fill-rule="evenodd" sketch:type="MSPage">
        <g id="Icons" sketch:type="MSArtboardGroup" transform="translate(-602.000000, -3721.000000)" stroke-linecap="round" stroke-width="2" stroke-linejoin="round">
            <g id="96---Settings-(Outline)" sketch:type="MSLayerGroup" transform="translate(603.000000, 3722.000000)">
                <path d="M52,23.5 L48.872,22.898 C44.229,22.005 42.1,16.581 44.896,12.768 L46.86,10.09 L42.617,5.847 L39.979,7.634 C36.065,10.285 30.724,7.955 30.005,3.283 L29.5,0 L23.5,0 L22.723,4.04 C21.85,8.581 16.618,10.748 12.79,8.155 L9.383,5.847 L5.14,10.09 L7.105,12.768 C9.9,16.581 7.771,22.005 3.128,22.898 L0,23.5 L0,29.5 L3.283,30.005 C7.955,30.724 10.286,36.065 7.634,39.979 L5.847,42.617 L10.09,46.859 L12.768,44.895 C16.581,42.1 22.006,44.229 22.898,48.871 L23.5,52 L29.5,52 L29.855,49.691 C30.59,44.915 36.129,42.62 40.026,45.478 L41.91,46.859 L46.153,42.617 L44.366,39.979 C41.714,36.065 44.045,30.724 48.717,30.005 L52,29.5 L52,23.5 L52,23.5 Z" id="Stroke-8" stroke="#1A1718" sketch:type="MSShapeGroup"></path>
                <path d="M36,26.5 C36,31.746 31.747,36 26.5,36 C21.253,36 17,31.746 17,26.5 C17,21.253 21.253,17 26.5,17 C31.747,17 36,21.253 36,26.5 L36,26.5 Z" id="Path" stroke="#000000" sketch:type="MSShapeGroup"></path>
                <path d="M31,26.5 C31,28.985 28.985,31 26.5,31 C24.015,31 22,28.985 22,26.5 C22,24.014 24.015,22 26.5,22 C28.985,22 31,24.014 31,26.5 L31,26.5 Z" id="Path" stroke="#000000" sketch:type="MSShapeGroup"></path>
            </g>
        </g>
    </g>
</svg>