<?xml version="1.0" encoding="UTF-8" standalone="no"?>
<svg width="60px" height="60px" viewBox="0 0 60 60" version="1.1" xmlns="http://www.w3.org/2000/svg" xmlns:xlink="http://www.w3.org/1999/xlink" xmlns:sketch="http://www.bohemiancoding.com/sketch/ns">
    <!-- Generator: Sketch 3.2.2 (9983) - http://www.bohemiancoding.com/sketch -->
    <title>98 - Settings (Outline)</title>
    <desc>Created with Sketch.</desc>
    <defs></defs>
    <g id="Page-1" stroke="none" stroke-width="1" fill="none" fill-rule="evenodd" sketch:type="MSPage">
        <g id="Icons" sketch:type="MSArtboardGroup" transform="translate(-360.000000, -3717.000000)">
            <g id="98---Settings-(Outline)" sketch:type="MSLayerGroup" transform="translate(361.000000, 3718.000000)">
                <path d="M22.518,5.852 L21.482,1.988 L22.518,5.852 Z M8.482,9.494 L11.311,12.322 L8.482,9.494 Z M46.666,12.322 L49.494,9.494 L46.666,12.322 Z M16.488,8.349 L14.488,4.885 L16.488,8.349 Z M29,1 L29,5 L29,1 Z M7.338,17.5 L3.873,15.5 L7.338,17.5 Z M54.103,15.5 L50.639,17.5 L54.103,15.5 Z M41.488,8.349 L43.488,4.885 L41.488,8.349 Z M35.459,5.852 L36.494,1.988 L35.459,5.852 Z M34.988,30 C34.988,33.314 32.302,36 28.988,36 C25.674,36 22.988,33.314 22.988,30 C22.988,26.686 25.674,24 28.988,24 C32.302,24 34.988,26.686 34.988,30 L34.988,30 Z M29,5 L29,20 L29,5 Z M5.212,22.275 L19.478,26.91 L5.212,22.275 Z M52.765,22.275 L38.499,26.91 L52.765,22.275 Z" id="Stroke-11" stroke="#000000" stroke-width="2" stroke-linecap="round" stroke-linejoin="round" sketch:type="MSShapeGroup"></path>
                <path d="M29.988,30 C29.988,30.552 29.54,31 28.988,31 C28.436,31 27.988,30.552 27.988,30 C27.988,29.448 28.436,29 28.988,29 C29.54,29 29.988,29.448 29.988,30" id="Fill-12" fill="#000000" sketch:type="MSShapeGroup"></path>
                <path d="M0,0 L58,0 L58,58 L0,58 L0,0 Z" id="Path" stroke="#000000" stroke-width="2" stroke-linecap="round" stroke-linejoin="round" sketch:type="MSShapeGroup"></path>
                <path d="M58,48.13 C56.636,45.668 54.014,44 51,44 C46.582,44 43,47.582 43,52 C43,54.392 44.056,56.534 45.721,58 L56.279,58 C56.967,57.394 57.553,56.677 58,55.87 L58,48.13 L58,48.13 Z" id="Path" stroke="#000000" stroke-width="2" stroke-linecap="round" stroke-linejoin="round" sketch:type="MSShapeGroup"></path>
                <path d="M58,38.549 C55.849,38.419 53.871,36.85 53.504,34.462 L53.125,32 L48.625,32 L48.042,35.03 C47.387,38.435 43.463,40.061 40.592,38.116 L38.037,36.385 L34.855,39.567 L36.328,41.576 C38.425,44.435 36.828,48.504 33.346,49.174 L31,49.625 L31,54.125 L33.462,54.504 C35.473,54.813 36.9,56.265 37.38,58 L58,58 L58,38.549 L58,38.549 Z" id="Path" stroke="#000000" stroke-width="2" stroke-linecap="round" stroke-linejoin="round" sketch:type="MSShapeGroup"></path>
                <path d="M0,48.13 C1.364,45.668 3.986,44 7,44 C11.418,44 15,47.582 15,52 C15,54.392 13.944,56.534 12.279,58 L1.721,58 C1.033,57.394 0.447,56.677 0,55.87 L0,48.13 L0,48.13 Z" id="Path" stroke="#000000" stroke-width="2" stroke-linecap="round" stroke-linejoin="round" sketch:type="MSShapeGroup"></path>
                <path d="M0,38.549 C2.151,38.419 4.129,36.85 4.496,34.462 L4.875,32 L9.375,32 L9.958,35.03 C10.613,38.435 14.537,40.061 17.408,38.116 L19.963,36.385 L23.145,39.567 L21.672,41.576 C19.575,44.435 21.172,48.504 24.654,49.174 L27,49.625 L27,54.125 L24.538,54.504 C22.527,54.813 21.1,56.265 20.62,58 L0,58 L0,38.549 L0,38.549 Z" id="Path" stroke="#000000" stroke-width="2" stroke-linecap="round" stroke-linejoin="round" sketch:type="MSShapeGroup"></path>
                <path d="M53.432,24.729 C51.012,13.452 40.545,5.064 29.035,5.004 C17.454,4.942 7.089,13.432 4.574,24.689" id="Path" stroke="#000000" stroke-width="2" stroke-linecap="round" stroke-linejoin="round" sketch:type="MSShapeGroup"></path>
            </g>
        </g>
    </g>
</svg>