<?xml version="1.0" encoding="UTF-8" standalone="no"?>
<svg width="60px" height="53px" viewBox="0 0 60 53" version="1.1" xmlns="http://www.w3.org/2000/svg" xmlns:xlink="http://www.w3.org/1999/xlink" xmlns:sketch="http://www.bohemiancoding.com/sketch/ns">
    <!-- Generator: Sketch 3.2.2 (9983) - http://www.bohemiancoding.com/sketch -->
    <title>67 - Folder (Outline)</title>
    <desc>Created with Sketch.</desc>
    <defs></defs>
    <g id="Page-1" stroke="none" stroke-width="1" fill="none" fill-rule="evenodd" sketch:type="MSPage">
        <g id="Icons" sketch:type="MSArtboardGroup" transform="translate(-480.000000, -4080.000000)" stroke="#000000" stroke-width="2" stroke-linejoin="round">
            <g id="67---Folder-(Outline)" sketch:type="MSLayerGroup" transform="translate(480.000000, 4081.000000)">
                <path d="M56.981,51 L3.019,51 C1.904,51 1,50.096 1,48.981 L1,17 L59,17 L59,48.981 C59,50.096 58.096,51 56.981,51 L56.981,51 Z" id="Path" sketch:type="MSShapeGroup"></path>
                <path d="M27.019,8 L27.019,2.019 C27.019,0.904 26.115,0 25,0 L3.019,0 C1.904,0 1,0.904 1,2.019 L1,17 L59,17 L59,10.019 C59,8.904 58.096,8 56.981,8 L27.019,8 L27.019,8 Z" id="Path" sketch:type="MSShapeGroup"></path>
                <path d="M35,34 L54,34 L54,46 L35,46 L35,34 Z" id="Stroke-59" sketch:type="MSShapeGroup"></path>
                <path d="M43,38 L39,38 L43,38 L43,38 Z M48,38 L47,38 L48,38 L48,38 Z M50,42 L39,42 L50,42 L50,42 Z" id="Stroke-60" stroke-linecap="round" sketch:type="MSShapeGroup"></path>
            </g>
        </g>
    </g>
</svg>