<?xml version="1.0" encoding="UTF-8" standalone="no"?>
<svg width="59px" height="59px" viewBox="0 0 59 59" version="1.1" xmlns="http://www.w3.org/2000/svg" xmlns:xlink="http://www.w3.org/1999/xlink" xmlns:sketch="http://www.bohemiancoding.com/sketch/ns">
    <!-- Generator: Sketch 3.2.2 (9983) - http://www.bohemiancoding.com/sketch -->
    <title>35 - Blueprint (Outline)</title>
    <desc>Created with Sketch.</desc>
    <defs></defs>
    <g id="Page-1" stroke="none" stroke-width="1" fill="none" fill-rule="evenodd" sketch:type="MSPage">
        <g id="Icons" sketch:type="MSArtboardGroup" transform="translate(-720.000000, -4439.000000)">
            <g id="35---Blueprint-(Outline)" sketch:type="MSLayerGroup" transform="translate(721.000000, 4440.000000)">
                <path d="M6,0 C2.686,0 0,2.686 0,6 L0,51 C0,47.686 2.686,45 6,45 C9.314,45 12,47.686 12,51 L12,6 C12,2.686 9.314,0 6,0 L6,0 Z M12,7 L12,51 C12,47.686 9.314,45 6,45 C2.686,45 0,47.686 0,51 L0,51.06 C0,54.34 2.66,57 5.94,57 L57,57 L57,7 L12,7 L12,7 Z" id="Stroke-112" stroke="#000000" stroke-width="2" stroke-linejoin="round" sketch:type="MSShapeGroup"></path>
                <path d="M51,40 L17,40 L17,23 L34,11 L51,23 L51,40 L51,40 Z" id="Path" stroke="#000000" stroke-width="2" stroke-linecap="round" stroke-linejoin="round" stroke-dasharray="3" sketch:type="MSShapeGroup"></path>
                <path d="M41,46 L52,46 L52,52 L41,52 L41,46 Z" id="Path" stroke="#000000" stroke-width="2" stroke-linecap="round" stroke-linejoin="round" sketch:type="MSShapeGroup"></path>
                <path d="M22,27 L30,27 L30,35 L22,35 L22,27 Z" id="Path" stroke="#000000" stroke-width="2" stroke-linecap="round" stroke-linejoin="round" stroke-dasharray="3" sketch:type="MSShapeGroup"></path>
                <path d="M38,27 L46,27 L46,35 L38,35 L38,27 Z" id="Path" stroke="#000000" stroke-width="2" stroke-linecap="round" stroke-linejoin="round" stroke-dasharray="3" sketch:type="MSShapeGroup"></path>
                <path d="M37,46 L32,46 L37,46 Z" id="Path" stroke="#000000" stroke-width="2" stroke-linecap="round" stroke-linejoin="round" sketch:type="MSShapeGroup"></path>
                <path d="M37,49 L30,49 L37,49 Z" id="Path" stroke="#000000" stroke-width="2" stroke-linecap="round" stroke-linejoin="round" sketch:type="MSShapeGroup"></path>
                <path d="M37,52 L27,52 L37,52 Z" id="Path" stroke="#000000" stroke-width="2" stroke-linecap="round" stroke-linejoin="round" sketch:type="MSShapeGroup"></path>
                <path d="M4,4 C4,4.552 3.552,5 3,5 C2.448,5 2,4.552 2,4 C2,3.448 2.448,3 3,3 C3.552,3 4,3.448 4,4" id="Fill-129" fill="#000000" sketch:type="MSShapeGroup"></path>
                <path d="M10,4 C10,4.552 9.552,5 9,5 C8.448,5 8,4.552 8,4 C8,3.448 8.448,3 9,3 C9.552,3 10,3.448 10,4" id="Fill-130" fill="#000000" sketch:type="MSShapeGroup"></path>
                <path d="M7,1 C7,1.552 6.552,2 6,2 C5.448,2 5,1.552 5,1 C5,0.448 5.448,0 6,0 C6.552,0 7,0.448 7,1" id="Fill-131" fill="#000000" sketch:type="MSShapeGroup"></path>
                <path d="M7,7 C7,7.552 6.552,8 6,8 C5.448,8 5,7.552 5,7 C5,6.448 5.448,6 6,6 C6.552,6 7,6.448 7,7" id="Fill-132" fill="#000000" sketch:type="MSShapeGroup"></path>
                <path d="M4,10 C4,10.552 3.552,11 3,11 C2.448,11 2,10.552 2,10 C2,9.448 2.448,9 3,9 C3.552,9 4,9.448 4,10" id="Fill-133" fill="#000000" sketch:type="MSShapeGroup"></path>
                <path d="M10,10 C10,10.552 9.552,11 9,11 C8.448,11 8,10.552 8,10 C8,9.448 8.448,9 9,9 C9.552,9 10,9.448 10,10" id="Fill-134" fill="#000000" sketch:type="MSShapeGroup"></path>
                <path d="M4,16 C4,16.552 3.552,17 3,17 C2.448,17 2,16.552 2,16 C2,15.448 2.448,15 3,15 C3.552,15 4,15.448 4,16" id="Fill-135" fill="#000000" sketch:type="MSShapeGroup"></path>
                <path d="M10,16 C10,16.552 9.552,17 9,17 C8.448,17 8,16.552 8,16 C8,15.448 8.448,15 9,15 C9.552,15 10,15.448 10,16" id="Fill-136" fill="#000000" sketch:type="MSShapeGroup"></path>
                <path d="M7,13 C7,13.552 6.552,14 6,14 C5.448,14 5,13.552 5,13 C5,12.448 5.448,12 6,12 C6.552,12 7,12.448 7,13" id="Fill-137" fill="#000000" sketch:type="MSShapeGroup"></path>
                <path d="M7,19 C7,19.552 6.552,20 6,20 C5.448,20 5,19.552 5,19 C5,18.448 5.448,18 6,18 C6.552,18 7,18.448 7,19" id="Fill-138" fill="#000000" sketch:type="MSShapeGroup"></path>
                <path d="M4,22 C4,22.552 3.552,23 3,23 C2.448,23 2,22.552 2,22 C2,21.448 2.448,21 3,21 C3.552,21 4,21.448 4,22" id="Fill-139" fill="#000000" sketch:type="MSShapeGroup"></path>
                <path d="M10,22 C10,22.552 9.552,23 9,23 C8.448,23 8,22.552 8,22 C8,21.448 8.448,21 9,21 C9.552,21 10,21.448 10,22" id="Fill-140" fill="#000000" sketch:type="MSShapeGroup"></path>
                <path d="M4,28 C4,28.552 3.552,29 3,29 C2.448,29 2,28.552 2,28 C2,27.448 2.448,27 3,27 C3.552,27 4,27.448 4,28" id="Fill-141" fill="#000000" sketch:type="MSShapeGroup"></path>
                <path d="M10,28 C10,28.552 9.552,29 9,29 C8.448,29 8,28.552 8,28 C8,27.448 8.448,27 9,27 C9.552,27 10,27.448 10,28" id="Fill-142" fill="#000000" sketch:type="MSShapeGroup"></path>
                <path d="M7,25 C7,25.552 6.552,26 6,26 C5.448,26 5,25.552 5,25 C5,24.448 5.448,24 6,24 C6.552,24 7,24.448 7,25" id="Fill-143" fill="#000000" sketch:type="MSShapeGroup"></path>
                <path d="M7,31 C7,31.552 6.552,32 6,32 C5.448,32 5,31.552 5,31 C5,30.448 5.448,30 6,30 C6.552,30 7,30.448 7,31" id="Fill-144" fill="#000000" sketch:type="MSShapeGroup"></path>
                <path d="M4,34 C4,34.552 3.552,35 3,35 C2.448,35 2,34.552 2,34 C2,33.448 2.448,33 3,33 C3.552,33 4,33.448 4,34" id="Fill-145" fill="#000000" sketch:type="MSShapeGroup"></path>
                <path d="M10,34 C10,34.552 9.552,35 9,35 C8.448,35 8,34.552 8,34 C8,33.448 8.448,33 9,33 C9.552,33 10,33.448 10,34" id="Fill-146" fill="#000000" sketch:type="MSShapeGroup"></path>
                <path d="M4,40 C4,40.552 3.552,41 3,41 C2.448,41 2,40.552 2,40 C2,39.448 2.448,39 3,39 C3.552,39 4,39.448 4,40" id="Fill-147" fill="#000000" sketch:type="MSShapeGroup"></path>
                <path d="M10,40 C10,40.552 9.552,41 9,41 C8.448,41 8,40.552 8,40 C8,39.448 8.448,39 9,39 C9.552,39 10,39.448 10,40" id="Fill-148" fill="#000000" sketch:type="MSShapeGroup"></path>
                <path d="M7,37 C7,37.552 6.552,38 6,38 C5.448,38 5,37.552 5,37 C5,36.448 5.448,36 6,36 C6.552,36 7,36.448 7,37" id="Fill-149" fill="#000000" sketch:type="MSShapeGroup"></path>
                <path d="M7,43 C7,43.552 6.552,44 6,44 C5.448,44 5,43.552 5,43 C5,42.448 5.448,42 6,42 C6.552,42 7,42.448 7,43" id="Fill-150" fill="#000000" sketch:type="MSShapeGroup"></path>
                <path d="M13,49 C13,49.552 12.552,50 12,50 C11.448,50 11,49.552 11,49 C11,48.448 11.448,48 12,48 C12.552,48 13,48.448 13,49" id="Fill-151" fill="#000000" sketch:type="MSShapeGroup"></path>
            </g>
        </g>
    </g>
</svg>