<?xml version="1.0" encoding="UTF-8" standalone="no"?>
<svg width="49px" height="60px" viewBox="0 0 49 60" version="1.1" xmlns="http://www.w3.org/2000/svg" xmlns:xlink="http://www.w3.org/1999/xlink" xmlns:sketch="http://www.bohemiancoding.com/sketch/ns">
    <!-- Generator: Sketch 3.2.2 (9983) - http://www.bohemiancoding.com/sketch -->
    <title>43 - Flipboard (Outline)</title>
    <desc>Created with Sketch.</desc>
    <defs></defs>
    <g id="Page-1" stroke="none" stroke-width="1" fill="none" fill-rule="evenodd" sketch:type="MSPage">
        <g id="Icons" sketch:type="MSArtboardGroup" transform="translate(-965.000000, -4317.000000)" stroke="#1A1718" stroke-width="2" stroke-linecap="round" stroke-linejoin="round">
            <g id="43---Flipboard-(Outline)" sketch:type="MSLayerGroup" transform="translate(966.000000, 4318.000000)">
                <path d="M9,15 L22,15 L9,15 Z M9,46 L22,46 L9,46 Z M9,21 L38,21 L9,21 Z M9,33 L38,33 L9,33 Z M9,40 L38,40 L9,40 Z M9,27 L23,27 L9,27 Z M31,27 L38,27 L31,27 Z M19,0 L28,0 L28,5 L19,5 L19,0 Z" id="Stroke-181" sketch:type="MSShapeGroup"></path>
                <path d="M35,5 L35,8 L12,8 L12,5 L3,5 L3,55 L44,55 L44,5 L35,5 L35,5 Z" id="Stroke-182" sketch:type="MSShapeGroup"></path>
                <path d="M28,2 L28,5 L19,5 L19,2 L12,2 L12,8 L35,8 L35,2 L28,2 L28,2 Z" id="Stroke-183" sketch:type="MSShapeGroup"></path>
                <path d="M32,2 L28,2 L28,5 L19,5 L19,2 L0,2 L0,58 L47,58 L47,2 L32,2 L32,2 Z" id="Stroke-184" sketch:type="MSShapeGroup"></path>
            </g>
        </g>
    </g>
</svg>