<?xml version="1.0" encoding="UTF-8" standalone="no"?>
<svg width="60px" height="60px" viewBox="0 0 60 60" version="1.1" xmlns="http://www.w3.org/2000/svg" xmlns:xlink="http://www.w3.org/1999/xlink" xmlns:sketch="http://www.bohemiancoding.com/sketch/ns">
    <!-- Generator: Sketch 3.2.2 (9983) - http://www.bohemiancoding.com/sketch -->
    <title>323 - ON OFF Switch (Outline)</title>
    <desc>Created with Sketch.</desc>
    <defs></defs>
    <g id="Page-1" stroke="none" stroke-width="1" fill="none" fill-rule="evenodd" sketch:type="MSPage">
        <g id="Icons" sketch:type="MSArtboardGroup" transform="translate(-960.000000, -958.000000)">
            <g id="323---ON-OFF-Switch-(Outline)" sketch:type="MSLayerGroup" transform="translate(961.000000, 959.000000)">
                <path d="M51.471,58 L6.529,58 C2.923,58 0,55.077 0,51.471 L0,6.529 C0,2.923 2.923,0 6.529,0 L51.471,0 C55.077,0 58,2.923 58,6.529 L58,51.471 C58,55.077 55.077,58 51.471,58 L51.471,58 Z" id="Path" stroke="#000000" stroke-width="2" stroke-linecap="round" stroke-linejoin="round" sketch:type="MSShapeGroup"></path>
                <path d="M53,16 C53,21.523 48.523,26 43,26 C37.477,26 33,21.523 33,16 C33,10.477 37.477,6 43,6 C48.523,6 53,10.477 53,16 L53,16 Z" id="Path" stroke="#000000" stroke-width="2" stroke-linecap="round" stroke-linejoin="round" sketch:type="MSShapeGroup"></path>
                <path d="M5,42 C5,47.523 9.477,52 15,52 C20.523,52 25,47.523 25,42 C25,36.477 20.523,32 15,32 C9.477,32 5,36.477 5,42 L5,42 Z" id="Path" stroke="#000000" stroke-width="2" stroke-linecap="round" stroke-linejoin="round" sketch:type="MSShapeGroup"></path>
                <path d="M43,26 L15,26 C9.5,26 5,21.5 5,16 C5,10.5 9.5,6 15,6 L43,6 C48.5,6 53,10.5 53,16 C53,21.5 48.5,26 43,26 L43,26 Z" id="Path" stroke="#000000" stroke-width="2" stroke-linecap="round" stroke-linejoin="round" sketch:type="MSShapeGroup"></path>
                <path d="M15,52 L43,52 C48.5,52 53,47.5 53,42 C53,36.5 48.5,32 43,32 L15,32 C9.5,32 5,36.5 5,42 C5,47.5 9.5,52 15,52 L15,52 Z" id="Path" stroke="#000000" stroke-width="2" stroke-linecap="round" stroke-linejoin="round" sketch:type="MSShapeGroup"></path>
                <path d="M28,38 C28,38.552 27.552,39 27,39 C26.448,39 26,38.552 26,38 C26,37.448 26.448,37 27,37 C27.552,37 28,37.448 28,38" id="Fill-375" fill="#000000" sketch:type="MSShapeGroup"></path>
                <path d="M31,35 C31,35.552 30.552,36 30,36 C29.448,36 29,35.552 29,35 C29,34.448 29.448,34 30,34 C30.552,34 31,34.448 31,35" id="Fill-376" fill="#000000" sketch:type="MSShapeGroup"></path>
                <path d="M25,35 C25,35.552 24.552,36 24,36 C23.448,36 23,35.552 23,35 C23,34.448 23.448,34 24,34 C24.552,34 25,34.448 25,35" id="Fill-377" fill="#000000" sketch:type="MSShapeGroup"></path>
                <path d="M37,35 C37,35.552 36.552,36 36,36 C35.448,36 35,35.552 35,35 C35,34.448 35.448,34 36,34 C36.552,34 37,34.448 37,35" id="Fill-378" fill="#000000" sketch:type="MSShapeGroup"></path>
                <path d="M34,38 C34,38.552 33.552,39 33,39 C32.448,39 32,38.552 32,38 C32,37.448 32.448,37 33,37 C33.552,37 34,37.448 34,38" id="Fill-379" fill="#000000" sketch:type="MSShapeGroup"></path>
                <path d="M40,38 C40,38.552 39.552,39 39,39 C38.448,39 38,38.552 38,38 C38,37.448 38.448,37 39,37 C39.552,37 40,37.448 40,38" id="Fill-380" fill="#000000" sketch:type="MSShapeGroup"></path>
                <path d="M43,35 C43,35.552 42.552,36 42,36 C41.448,36 41,35.552 41,35 C41,34.448 41.448,34 42,34 C42.552,34 43,34.448 43,35" id="Fill-381" fill="#000000" sketch:type="MSShapeGroup"></path>
                <path d="M49,35 C49,35.552 48.552,36 48,36 C47.448,36 47,35.552 47,35 C47,34.448 47.448,34 48,34 C48.552,34 49,34.448 49,35" id="Fill-382" fill="#000000" sketch:type="MSShapeGroup"></path>
                <path d="M46,38 C46,38.552 45.552,39 45,39 C44.448,39 44,38.552 44,38 C44,37.448 44.448,37 45,37 C45.552,37 46,37.448 46,38" id="Fill-383" fill="#000000" sketch:type="MSShapeGroup"></path>
                <path d="M52,38 C52,38.552 51.552,39 51,39 C50.448,39 50,38.552 50,38 C50,37.448 50.448,37 51,37 C51.552,37 52,37.448 52,38" id="Fill-384" fill="#000000" sketch:type="MSShapeGroup"></path>
                <path d="M28,44 C28,44.552 27.552,45 27,45 C26.448,45 26,44.552 26,44 C26,43.448 26.448,43 27,43 C27.552,43 28,43.448 28,44" id="Fill-385" fill="#000000" sketch:type="MSShapeGroup"></path>
                <path d="M28,50 C28,50.552 27.552,51 27,51 C26.448,51 26,50.552 26,50 C26,49.448 26.448,49 27,49 C27.552,49 28,49.448 28,50" id="Fill-386" fill="#000000" sketch:type="MSShapeGroup"></path>
                <path d="M31,41 C31,41.552 30.552,42 30,42 C29.448,42 29,41.552 29,41 C29,40.448 29.448,40 30,40 C30.552,40 31,40.448 31,41" id="Fill-387" fill="#000000" sketch:type="MSShapeGroup"></path>
                <path d="M37,41 C37,41.552 36.552,42 36,42 C35.448,42 35,41.552 35,41 C35,40.448 35.448,40 36,40 C36.552,40 37,40.448 37,41" id="Fill-388" fill="#000000" sketch:type="MSShapeGroup"></path>
                <path d="M31,47 C31,47.552 30.552,48 30,48 C29.448,48 29,47.552 29,47 C29,46.448 29.448,46 30,46 C30.552,46 31,46.448 31,47" id="Fill-389" fill="#000000" sketch:type="MSShapeGroup"></path>
                <path d="M37,47 C37,47.552 36.552,48 36,48 C35.448,48 35,47.552 35,47 C35,46.448 35.448,46 36,46 C36.552,46 37,46.448 37,47" id="Fill-390" fill="#000000" sketch:type="MSShapeGroup"></path>
                <path d="M34,44 C34,44.552 33.552,45 33,45 C32.448,45 32,44.552 32,44 C32,43.448 32.448,43 33,43 C33.552,43 34,43.448 34,44" id="Fill-391" fill="#000000" sketch:type="MSShapeGroup"></path>
                <path d="M40,44 C40,44.552 39.552,45 39,45 C38.448,45 38,44.552 38,44 C38,43.448 38.448,43 39,43 C39.552,43 40,43.448 40,44" id="Fill-392" fill="#000000" sketch:type="MSShapeGroup"></path>
                <path d="M34,50 C34,50.552 33.552,51 33,51 C32.448,51 32,50.552 32,50 C32,49.448 32.448,49 33,49 C33.552,49 34,49.448 34,50" id="Fill-393" fill="#000000" sketch:type="MSShapeGroup"></path>
                <path d="M40,50 C40,50.552 39.552,51 39,51 C38.448,51 38,50.552 38,50 C38,49.448 38.448,49 39,49 C39.552,49 40,49.448 40,50" id="Fill-394" fill="#000000" sketch:type="MSShapeGroup"></path>
                <path d="M43,41 C43,41.552 42.552,42 42,42 C41.448,42 41,41.552 41,41 C41,40.448 41.448,40 42,40 C42.552,40 43,40.448 43,41" id="Fill-395" fill="#000000" sketch:type="MSShapeGroup"></path>
                <path d="M49,41 C49,41.552 48.552,42 48,42 C47.448,42 47,41.552 47,41 C47,40.448 47.448,40 48,40 C48.552,40 49,40.448 49,41" id="Fill-396" fill="#000000" sketch:type="MSShapeGroup"></path>
                <path d="M43,47 C43,47.552 42.552,48 42,48 C41.448,48 41,47.552 41,47 C41,46.448 41.448,46 42,46 C42.552,46 43,46.448 43,47" id="Fill-397" fill="#000000" sketch:type="MSShapeGroup"></path>
                <path d="M49,47 C49,47.552 48.552,48 48,48 C47.448,48 47,47.552 47,47 C47,46.448 47.448,46 48,46 C48.552,46 49,46.448 49,47" id="Fill-398" fill="#000000" sketch:type="MSShapeGroup"></path>
                <path d="M46,44 C46,44.552 45.552,45 45,45 C44.448,45 44,44.552 44,44 C44,43.448 44.448,43 45,43 C45.552,43 46,43.448 46,44" id="Fill-399" fill="#000000" sketch:type="MSShapeGroup"></path>
                <path d="M52,44 C52,44.552 51.552,45 51,45 C50.448,45 50,44.552 50,44 C50,43.448 50.448,43 51,43 C51.552,43 52,43.448 52,44" id="Fill-400" fill="#000000" sketch:type="MSShapeGroup"></path>
                <path d="M46,50 C46,50.552 45.552,51 45,51 C44.448,51 44,50.552 44,50 C44,49.448 44.448,49 45,49 C45.552,49 46,49.448 46,50" id="Fill-401" fill="#000000" sketch:type="MSShapeGroup"></path>
            </g>
        </g>
    </g>
</svg>