<?xml version="1.0" encoding="UTF-8" standalone="no"?>
<svg width="56px" height="60px" viewBox="0 0 56 60" version="1.1" xmlns="http://www.w3.org/2000/svg" xmlns:xlink="http://www.w3.org/1999/xlink" xmlns:sketch="http://www.bohemiancoding.com/sketch/ns">
    <!-- Generator: Sketch 3.2.2 (9983) - http://www.bohemiancoding.com/sketch -->
    <title>33 - Calendar (Outline)</title>
    <desc>Created with Sketch.</desc>
    <defs></defs>
    <g id="Page-1" stroke="none" stroke-width="1" fill="none" fill-rule="evenodd" sketch:type="MSPage">
        <g id="Icons" sketch:type="MSArtboardGroup" transform="translate(-962.000000, -4437.000000)" stroke="#1A1718" stroke-width="2" stroke-linecap="round" stroke-linejoin="round">
            <g id="33---Calendar-(Outline)" sketch:type="MSLayerGroup" transform="translate(963.000000, 4438.000000)">
                <path d="M8,0 L15,0 L15,8 L8,8 L8,0 Z M39,0 L46,0 L46,8 L39,8 L39,0 Z M46,4 L46,8 L39,8 L39,4 L15,4 L15,8 L8,8 L8,4 L0,4 L0,15 L54,15 L54,4 L46,4 L46,4 Z M46,4 L46,8 L39,8 L39,4 L15,4 L15,8 L8,8 L8,4 L0,4 L0,58 L54,58 L54,4 L46,4 L46,4 Z" id="Stroke-177" sketch:type="MSShapeGroup"></path>
                <path d="M9,23 L18,23 L18,32 L9,32 L9,23 Z M9,32 L18,32 L18,41 L9,41 L9,32 Z M9,41 L18,41 L18,50 L9,50 L9,41 Z M18,23 L27,23 L27,32 L18,32 L18,23 Z M18,32 L27,32 L27,41 L18,41 L18,32 Z M18,41 L27,41 L27,50 L18,50 L18,41 Z M27,23 L36,23 L36,32 L27,32 L27,23 Z M27,32 L36,32 L36,41 L27,41 L27,32 Z M27,41 L36,41 L36,50 L27,50 L27,41 Z M36,23 L45,23 L45,32 L36,32 L36,23 Z M36,32 L45,32 L45,41 L36,41 L36,32 Z M36,41 L45,41 L45,50 L36,50 L36,41 Z" id="Stroke-178" sketch:type="MSShapeGroup"></path>
            </g>
        </g>
    </g>
</svg>