<?xml version="1.0" encoding="UTF-8" standalone="no"?>
<svg width="40px" height="60px" viewBox="0 0 40 60" version="1.1" xmlns="http://www.w3.org/2000/svg" xmlns:xlink="http://www.w3.org/1999/xlink" xmlns:sketch="http://www.bohemiancoding.com/sketch/ns">
    <!-- Generator: Sketch 3.2.2 (9983) - http://www.bohemiancoding.com/sketch -->
    <title>146 - Employee Badge (Outline)</title>
    <desc>Created with Sketch.</desc>
    <defs></defs>
    <g id="Page-1" stroke="none" stroke-width="1" fill="none" fill-rule="evenodd" sketch:type="MSPage">
        <g id="Icons" sketch:type="MSArtboardGroup" transform="translate(-610.000000, -3117.000000)" stroke-width="2" stroke-linejoin="round">
            <g id="146---Employee-Badge-(Outline)" sketch:type="MSLayerGroup" transform="translate(611.000000, 3118.000000)">
                <path d="M36,58 L2,58 C0.9,58 0,57.1 0,56 L0,6 C0,4.9 0.9,4 2,4 L36,4 C37.1,4 38,4.9 38,6 L38,56 C38,57.1 37.1,58 36,58 L36,58 Z" id="Path" stroke="#000000" stroke-linecap="round" sketch:type="MSShapeGroup"></path>
                <path d="M22,10 C22,11.657 20.657,13 19,13 C17.343,13 16,11.657 16,10 C16,8.343 17.343,7 19,7 C20.657,7 22,8.343 22,10 L22,10 Z" id="Path" stroke="#000000" stroke-linecap="round" sketch:type="MSShapeGroup"></path>
                <path d="M31,35 C31,41.628 25.627,47 19,47 C12.373,47 7,41.628 7,35 C7,28.372 12.373,23 19,23 C25.627,23 31,28.372 31,35 L31,35 Z M22.784,40.261 C23.532,39.387 24,38.267 24,37.027 L24,33 C24,30.239 21.761,28 19,28 C16.239,28 14,30.239 14,33 L14,37.027 C14,38.267 14.468,39.387 15.216,40.261 L9.413,42.196 C11.602,45.108 15.076,47 19,47 C22.924,47 26.398,45.108 28.587,42.196 L22.784,40.261 L22.784,40.261 Z" id="Stroke-573" stroke="#161819" sketch:type="MSShapeGroup"></path>
                <path d="M14,0 L19,10 L14,0 Z" id="Path" stroke="#000000" stroke-linecap="round" sketch:type="MSShapeGroup"></path>
                <path d="M22,4 L25,0 L22,4 Z" id="Path" stroke="#000000" stroke-linecap="round" sketch:type="MSShapeGroup"></path>
                <path d="M0,18 L38,18 L0,18 Z" id="Path" stroke="#000000" stroke-linecap="round" stroke-dasharray="1,9" sketch:type="MSShapeGroup"></path>
                <path d="M0,53 L38,53 L0,53 Z" id="Path" stroke="#000000" stroke-linecap="round" stroke-dasharray="1,9" sketch:type="MSShapeGroup"></path>
            </g>
        </g>
    </g>
</svg>