<?xml version="1.0" encoding="UTF-8" standalone="no"?>
<svg width="56px" height="56px" viewBox="0 0 56 56" version="1.1" xmlns="http://www.w3.org/2000/svg" xmlns:xlink="http://www.w3.org/1999/xlink" xmlns:sketch="http://www.bohemiancoding.com/sketch/ns">
    <!-- Generator: Sketch 3.2.2 (9983) - http://www.bohemiancoding.com/sketch -->
    <title>2 - Price Tag (Outline)</title>
    <desc>Created with Sketch.</desc>
    <defs></defs>
    <g id="Page-1" stroke="none" stroke-width="1" fill="none" fill-rule="evenodd" sketch:type="MSPage">
        <g id="Icons" sketch:type="MSArtboardGroup" transform="translate(-1082.000000, -4799.000000)" stroke="#000000" stroke-width="2" stroke-linejoin="round">
            <g id="2---Price-Tag-(Outline)" sketch:type="MSLayerGroup" transform="translate(1083.000000, 4800.000000)">
                <path d="M43.472,0 L30.294,0 L0,30.215 L23.734,54 L54,23.814 L54,10.504 L43.472,0 L43.472,0 Z M44.95,11.935 C44.95,13.556 43.636,14.87 42.015,14.87 C40.394,14.87 39.08,13.556 39.08,11.935 C39.08,10.314 40.394,9 42.015,9 C43.636,9 44.95,10.314 44.95,11.935 L44.95,11.935 Z M43.472,0 L30.294,0 L6,24.215 L29.734,48 L54,23.814 L54,10.504 L43.472,0 L43.472,0 Z" id="Stroke-41" sketch:type="MSShapeGroup"></path>
                <path d="M0,12 C0,12 21,-3 41,12 M52,26 C52,26 57.125,34.875 49,43 C42.966,49.034 23.875,47.125 29,27" id="Stroke-42" stroke-linecap="round" sketch:type="MSShapeGroup"></path>
            </g>
        </g>
    </g>
</svg>