<?xml version="1.0" encoding="UTF-8" standalone="no"?>
<svg width="60px" height="58px" viewBox="0 0 60 58" version="1.1" xmlns="http://www.w3.org/2000/svg" xmlns:xlink="http://www.w3.org/1999/xlink" xmlns:sketch="http://www.bohemiancoding.com/sketch/ns">
    <!-- Generator: Sketch 3.2.2 (9983) - http://www.bohemiancoding.com/sketch -->
    <title>373 - Home (Outline)</title>
    <desc>Created with Sketch.</desc>
    <defs></defs>
    <g id="Page-1" stroke="none" stroke-width="1" fill="none" fill-rule="evenodd" sketch:type="MSPage">
        <g id="Icons" sketch:type="MSArtboardGroup" transform="translate(-960.000000, -360.000000)" stroke="#000000" stroke-width="2" stroke-linecap="round" stroke-linejoin="round">
            <g id="373---Home-(Outline)" sketch:type="MSLayerGroup" transform="translate(961.000000, 361.000000)">
                <path d="M52.792,26.528 L29,8.188 L5.208,26.528 C3.98,27.474 2.234,27.329 1.179,26.193 C-0.015,24.906 0.146,22.873 1.529,21.791 L26.959,1.896 L29,0 L31.041,1.896 L56.471,21.791 C57.854,22.873 58.015,24.906 56.821,26.193 C55.766,27.329 54.02,27.474 52.792,26.528 L52.792,26.528 Z" id="Path" sketch:type="MSShapeGroup"></path>
                <path d="M14,25 L26,25 L26,33 L14,33 L14,25 Z" id="Path" sketch:type="MSShapeGroup"></path>
                <path d="M14,39 L26,39 L26,49 L14,49 L14,39 Z" id="Path" sketch:type="MSShapeGroup"></path>
                <path d="M32,25 L44,25 L44,33 L32,33 L32,25 Z" id="Path" sketch:type="MSShapeGroup"></path>
                <path d="M52.792,26.528 L29,8.188 L5.208,26.528 C3.98,27.474 2.234,27.329 1.179,26.193 C-0.015,24.906 0.146,22.873 1.529,21.791 L26.959,1.896 L29,0 L31.041,1.896 L56.471,21.791 C57.854,22.873 58.015,24.906 56.821,26.193 C55.766,27.329 54.02,27.474 52.792,26.528 L52.792,26.528 Z" id="Path" sketch:type="MSShapeGroup"></path>
                <path d="M29,8.188 L6,25.917 L6,56 L52,56 L52,25.917 L29,8.188 L29,8.188 Z" id="Path" sketch:type="MSShapeGroup"></path>
                <path d="M32,39 L44,39 L44,56 L32,56 L32,39 Z" id="Path" sketch:type="MSShapeGroup"></path>
                <path d="M0,56 L0,47 L0,56 Z" id="Path" sketch:type="MSShapeGroup"></path>
                <path d="M3,56 L3,47 L3,56 Z" id="Path" sketch:type="MSShapeGroup"></path>
                <path d="M55,56 L55,47 L55,56 Z" id="Path" sketch:type="MSShapeGroup"></path>
                <path d="M58,56 L58,47 L58,56 Z" id="Path" sketch:type="MSShapeGroup"></path>
                <path d="M0,49 L6,49 L0,49 Z" id="Path" sketch:type="MSShapeGroup"></path>
                <path d="M0,54 L6,54 L0,54 Z" id="Path" sketch:type="MSShapeGroup"></path>
                <path d="M52,49 L58,49 L52,49 Z" id="Path" sketch:type="MSShapeGroup"></path>
                <path d="M52,54 L58,54 L52,54 Z" id="Path" sketch:type="MSShapeGroup"></path>
                <path d="M20,39 L20,49 L20,39 Z" id="Path" sketch:type="MSShapeGroup"></path>
                <path d="M14,44 L26,44 L14,44 Z" id="Path" sketch:type="MSShapeGroup"></path>
                <path d="M14,28 L26,28 L14,28 Z" id="Path" sketch:type="MSShapeGroup"></path>
                <path d="M32,30 L44,30 L32,30 Z" id="Path" sketch:type="MSShapeGroup"></path>
            </g>
        </g>
    </g>
</svg>