<?xml version="1.0" encoding="UTF-8" standalone="no"?>
<svg width="32px" height="60px" viewBox="0 0 32 60" version="1.1" xmlns="http://www.w3.org/2000/svg" xmlns:xlink="http://www.w3.org/1999/xlink" xmlns:sketch="http://www.bohemiancoding.com/sketch/ns">
    <!-- Generator: Sketch 3.2.2 (9983) - http://www.bohemiancoding.com/sketch -->
    <title>137 - Half Battery (Outline)</title>
    <desc>Created with Sketch.</desc>
    <defs></defs>
    <g id="Page-1" stroke="none" stroke-width="1" fill="none" fill-rule="evenodd" sketch:type="MSPage">
        <g id="Icons" sketch:type="MSArtboardGroup" transform="translate(-495.000000, -3237.000000)">
            <g id="137---Half-Battery-(Outline)" sketch:type="MSLayerGroup" transform="translate(496.000000, 3238.000000)">
                <path d="M10,0 L20,0 L20,4 L10,4 L10,0 Z" id="Path" stroke="#000000" stroke-width="2" stroke-linecap="round" stroke-linejoin="round" sketch:type="MSShapeGroup"></path>
                <path d="M27.536,58 L2.464,58 C1.103,58 0,56.897 0,55.536 L0,6.464 C0,5.103 1.103,4 2.464,4 L27.536,4 C28.897,4 30,5.103 30,6.464 L30,55.536 C30,56.897 28.897,58 27.536,58 L27.536,58 Z" id="Path" stroke="#000000" stroke-width="2" stroke-linecap="round" stroke-linejoin="round" sketch:type="MSShapeGroup"></path>
                <path d="M5,35 C5,35.552 4.552,36 4,36 C3.448,36 3,35.552 3,35 C3,34.448 3.448,34 4,34 C4.552,34 5,34.448 5,35" id="Fill-337" fill="#000000" sketch:type="MSShapeGroup"></path>
                <path d="M2,38 C2,38.552 1.552,39 1,39 C0.448,39 0,38.552 0,38 C0,37.448 0.448,37 1,37 C1.552,37 2,37.448 2,38" id="Fill-338" fill="#000000" sketch:type="MSShapeGroup"></path>
                <path d="M8,38 C8,38.552 7.552,39 7,39 C6.448,39 6,38.552 6,38 C6,37.448 6.448,37 7,37 C7.552,37 8,37.448 8,38" id="Fill-339" fill="#000000" sketch:type="MSShapeGroup"></path>
                <path d="M11,35 C11,35.552 10.552,36 10,36 C9.448,36 9,35.552 9,35 C9,34.448 9.448,34 10,34 C10.552,34 11,34.448 11,35" id="Fill-340" fill="#000000" sketch:type="MSShapeGroup"></path>
                <path d="M17,35 C17,35.552 16.552,36 16,36 C15.448,36 15,35.552 15,35 C15,34.448 15.448,34 16,34 C16.552,34 17,34.448 17,35" id="Fill-341" fill="#000000" sketch:type="MSShapeGroup"></path>
                <path d="M14,38 C14,38.552 13.552,39 13,39 C12.448,39 12,38.552 12,38 C12,37.448 12.448,37 13,37 C13.552,37 14,37.448 14,38" id="Fill-342" fill="#000000" sketch:type="MSShapeGroup"></path>
                <path d="M20,38 C20,38.552 19.552,39 19,39 C18.448,39 18,38.552 18,38 C18,37.448 18.448,37 19,37 C19.552,37 20,37.448 20,38" id="Fill-343" fill="#000000" sketch:type="MSShapeGroup"></path>
                <path d="M23,35 C23,35.552 22.552,36 22,36 C21.448,36 21,35.552 21,35 C21,34.448 21.448,34 22,34 C22.552,34 23,34.448 23,35" id="Fill-344" fill="#000000" sketch:type="MSShapeGroup"></path>
                <path d="M29,35 C29,35.552 28.552,36 28,36 C27.448,36 27,35.552 27,35 C27,34.448 27.448,34 28,34 C28.552,34 29,34.448 29,35" id="Fill-345" fill="#000000" sketch:type="MSShapeGroup"></path>
                <path d="M26,38 C26,38.552 25.552,39 25,39 C24.448,39 24,38.552 24,38 C24,37.448 24.448,37 25,37 C25.552,37 26,37.448 26,38" id="Fill-346" fill="#000000" sketch:type="MSShapeGroup"></path>
                <path d="M5,41 C5,41.552 4.552,42 4,42 C3.448,42 3,41.552 3,41 C3,40.448 3.448,40 4,40 C4.552,40 5,40.448 5,41" id="Fill-347" fill="#000000" sketch:type="MSShapeGroup"></path>
                <path d="M5,47 C5,47.552 4.552,48 4,48 C3.448,48 3,47.552 3,47 C3,46.448 3.448,46 4,46 C4.552,46 5,46.448 5,47" id="Fill-348" fill="#000000" sketch:type="MSShapeGroup"></path>
                <path d="M2,44 C2,44.552 1.552,45 1,45 C0.448,45 0,44.552 0,44 C0,43.448 0.448,43 1,43 C1.552,43 2,43.448 2,44" id="Fill-349" fill="#000000" sketch:type="MSShapeGroup"></path>
                <path d="M8,44 C8,44.552 7.552,45 7,45 C6.448,45 6,44.552 6,44 C6,43.448 6.448,43 7,43 C7.552,43 8,43.448 8,44" id="Fill-350" fill="#000000" sketch:type="MSShapeGroup"></path>
                <path d="M2,50 C2,50.552 1.552,51 1,51 C0.448,51 0,50.552 0,50 C0,49.448 0.448,49 1,49 C1.552,49 2,49.448 2,50" id="Fill-351" fill="#000000" sketch:type="MSShapeGroup"></path>
                <path d="M8,50 C8,50.552 7.552,51 7,51 C6.448,51 6,50.552 6,50 C6,49.448 6.448,49 7,49 C7.552,49 8,49.448 8,50" id="Fill-352" fill="#000000" sketch:type="MSShapeGroup"></path>
                <path d="M11,41 C11,41.552 10.552,42 10,42 C9.448,42 9,41.552 9,41 C9,40.448 9.448,40 10,40 C10.552,40 11,40.448 11,41" id="Fill-353" fill="#000000" sketch:type="MSShapeGroup"></path>
                <path d="M17,41 C17,41.552 16.552,42 16,42 C15.448,42 15,41.552 15,41 C15,40.448 15.448,40 16,40 C16.552,40 17,40.448 17,41" id="Fill-354" fill="#000000" sketch:type="MSShapeGroup"></path>
                <path d="M11,47 C11,47.552 10.552,48 10,48 C9.448,48 9,47.552 9,47 C9,46.448 9.448,46 10,46 C10.552,46 11,46.448 11,47" id="Fill-355" fill="#000000" sketch:type="MSShapeGroup"></path>
                <path d="M17,47 C17,47.552 16.552,48 16,48 C15.448,48 15,47.552 15,47 C15,46.448 15.448,46 16,46 C16.552,46 17,46.448 17,47" id="Fill-356" fill="#000000" sketch:type="MSShapeGroup"></path>
                <path d="M14,44 C14,44.552 13.552,45 13,45 C12.448,45 12,44.552 12,44 C12,43.448 12.448,43 13,43 C13.552,43 14,43.448 14,44" id="Fill-357" fill="#000000" sketch:type="MSShapeGroup"></path>
                <path d="M20,44 C20,44.552 19.552,45 19,45 C18.448,45 18,44.552 18,44 C18,43.448 18.448,43 19,43 C19.552,43 20,43.448 20,44" id="Fill-358" fill="#000000" sketch:type="MSShapeGroup"></path>
                <path d="M14,50 C14,50.552 13.552,51 13,51 C12.448,51 12,50.552 12,50 C12,49.448 12.448,49 13,49 C13.552,49 14,49.448 14,50" id="Fill-359" fill="#000000" sketch:type="MSShapeGroup"></path>
                <path d="M20,50 C20,50.552 19.552,51 19,51 C18.448,51 18,50.552 18,50 C18,49.448 18.448,49 19,49 C19.552,49 20,49.448 20,50" id="Fill-360" fill="#000000" sketch:type="MSShapeGroup"></path>
                <path d="M23,41 C23,41.552 22.552,42 22,42 C21.448,42 21,41.552 21,41 C21,40.448 21.448,40 22,40 C22.552,40 23,40.448 23,41" id="Fill-361" fill="#000000" sketch:type="MSShapeGroup"></path>
                <path d="M29,41 C29,41.552 28.552,42 28,42 C27.448,42 27,41.552 27,41 C27,40.448 27.448,40 28,40 C28.552,40 29,40.448 29,41" id="Fill-362" fill="#000000" sketch:type="MSShapeGroup"></path>
                <path d="M23,47 C23,47.552 22.552,48 22,48 C21.448,48 21,47.552 21,47 C21,46.448 21.448,46 22,46 C22.552,46 23,46.448 23,47" id="Fill-363" fill="#000000" sketch:type="MSShapeGroup"></path>
                <path d="M29,47 C29,47.552 28.552,48 28,48 C27.448,48 27,47.552 27,47 C27,46.448 27.448,46 28,46 C28.552,46 29,46.448 29,47" id="Fill-364" fill="#000000" sketch:type="MSShapeGroup"></path>
                <path d="M26,44 C26,44.552 25.552,45 25,45 C24.448,45 24,44.552 24,44 C24,43.448 24.448,43 25,43 C25.552,43 26,43.448 26,44" id="Fill-365" fill="#000000" sketch:type="MSShapeGroup"></path>
                <path d="M26,50 C26,50.552 25.552,51 25,51 C24.448,51 24,50.552 24,50 C24,49.448 24.448,49 25,49 C25.552,49 26,49.448 26,50" id="Fill-366" fill="#000000" sketch:type="MSShapeGroup"></path>
                <path d="M5,53 C5,53.552 4.552,54 4,54 C3.448,54 3,53.552 3,53 C3,52.448 3.448,52 4,52 C4.552,52 5,52.448 5,53" id="Fill-367" fill="#000000" sketch:type="MSShapeGroup"></path>
                <path d="M2,56 C2,56.552 1.552,57 1,57 C0.448,57 0,56.552 0,56 C0,55.448 0.448,55 1,55 C1.552,55 2,55.448 2,56" id="Fill-368" fill="#000000" sketch:type="MSShapeGroup"></path>
                <path d="M8,56 C8,56.552 7.552,57 7,57 C6.448,57 6,56.552 6,56 C6,55.448 6.448,55 7,55 C7.552,55 8,55.448 8,56" id="Fill-369" fill="#000000" sketch:type="MSShapeGroup"></path>
                <path d="M11,53 C11,53.552 10.552,54 10,54 C9.448,54 9,53.552 9,53 C9,52.448 9.448,52 10,52 C10.552,52 11,52.448 11,53" id="Fill-370" fill="#000000" sketch:type="MSShapeGroup"></path>
                <path d="M17,53 C17,53.552 16.552,54 16,54 C15.448,54 15,53.552 15,53 C15,52.448 15.448,52 16,52 C16.552,52 17,52.448 17,53" id="Fill-371" fill="#000000" sketch:type="MSShapeGroup"></path>
                <path d="M14,56 C14,56.552 13.552,57 13,57 C12.448,57 12,56.552 12,56 C12,55.448 12.448,55 13,55 C13.552,55 14,55.448 14,56" id="Fill-372" fill="#000000" sketch:type="MSShapeGroup"></path>
                <path d="M20,56 C20,56.552 19.552,57 19,57 C18.448,57 18,56.552 18,56 C18,55.448 18.448,55 19,55 C19.552,55 20,55.448 20,56" id="Fill-373" fill="#000000" sketch:type="MSShapeGroup"></path>
                <path d="M23,53 C23,53.552 22.552,54 22,54 C21.448,54 21,53.552 21,53 C21,52.448 21.448,52 22,52 C22.552,52 23,52.448 23,53" id="Fill-374" fill="#000000" sketch:type="MSShapeGroup"></path>
                <path d="M29,53 C29,53.552 28.552,54 28,54 C27.448,54 27,53.552 27,53 C27,52.448 27.448,52 28,52 C28.552,52 29,52.448 29,53" id="Fill-375" fill="#000000" sketch:type="MSShapeGroup"></path>
                <path d="M26,56 C26,56.552 25.552,57 25,57 C24.448,57 24,56.552 24,56 C24,55.448 24.448,55 25,55 C25.552,55 26,55.448 26,56" id="Fill-376" fill="#000000" sketch:type="MSShapeGroup"></path>
                <path d="M0,32 L30,32 L0,32 Z" id="Path" stroke="#000000" stroke-width="2" stroke-linecap="round" stroke-linejoin="round" sketch:type="MSShapeGroup"></path>
            </g>
        </g>
    </g>
</svg>