<?xml version="1.0" encoding="UTF-8" standalone="no"?>
<svg width="50px" height="52px" viewBox="0 0 50 52" version="1.1" xmlns="http://www.w3.org/2000/svg" xmlns:xlink="http://www.w3.org/1999/xlink" xmlns:sketch="http://www.bohemiancoding.com/sketch/ns">
    <!-- Generator: Sketch 3.2.2 (9983) - http://www.bohemiancoding.com/sketch -->
    <title>276 - Picture (Outline)</title>
    <desc>Created with Sketch.</desc>
    <defs></defs>
    <g id="Page-1" stroke="none" stroke-width="1" fill="none" fill-rule="evenodd" sketch:type="MSPage">
        <g id="Icons" sketch:type="MSArtboardGroup" transform="translate(-605.000000, -1563.000000)" stroke="#000000" stroke-width="2">
            <g id="276---Picture-(Outline)" sketch:type="MSLayerGroup" transform="translate(606.000000, 1564.000000)">
                <path d="M16.569,17.569 C16.569,20.092 14.523,22.138 12,22.138 C9.477,22.138 7.431,20.092 7.431,17.569 C7.431,15.046 9.477,13 12,13 C14.523,13 16.569,15.046 16.569,17.569 L16.569,17.569 Z" id="Stroke-78" sketch:type="MSShapeGroup"></path>
                <path d="M3,40 L20.017,25.017 L30.983,35.983 M25.5,30.5 L36,19 L48,30" id="Stroke-79" stroke-linecap="round" stroke-linejoin="round" sketch:type="MSShapeGroup"></path>
                <path d="M0,0 L48,0 L48,50 L0,50 L0,0 Z" id="Path" sketch:type="MSShapeGroup"></path>
                <path d="M0,40 L48,40 L48,50 L0,50 L0,40 Z" id="Stroke-82" sketch:type="MSShapeGroup"></path>
            </g>
        </g>
    </g>
</svg>