<?xml version="1.0" encoding="UTF-8" standalone="no"?>
<svg width="52px" height="59px" viewBox="0 0 52 59" version="1.1" xmlns="http://www.w3.org/2000/svg" xmlns:xlink="http://www.w3.org/1999/xlink" xmlns:sketch="http://www.bohemiancoding.com/sketch/ns">
    <!-- Generator: Sketch 3.2.2 (9983) - http://www.bohemiancoding.com/sketch -->
    <title>40 - Note (Outline)</title>
    <desc>Created with Sketch.</desc>
    <defs></defs>
    <g id="Page-1" stroke="none" stroke-width="1" fill="none" fill-rule="evenodd" sketch:type="MSPage">
        <g id="Icons" sketch:type="MSArtboardGroup" transform="translate(-124.000000, -4438.000000)" stroke="#000000" stroke-width="2" stroke-linejoin="round">
            <g id="40---Note-(Outline)" sketch:type="MSLayerGroup" transform="translate(125.000000, 4439.000000)">
                <path d="M12,4 C12,1.791 13.791,0 16,0 C18.209,0 20,1.791 20,4 C20,6.209 18.209,8 16,8" id="Path" stroke-linecap="round" sketch:type="MSShapeGroup"></path>
                <path d="M22,8 C24.209,8 26,6.209 26,4 C26,1.791 24.209,0 22,0" id="Path" stroke-linecap="round" sketch:type="MSShapeGroup"></path>
                <path d="M28,8 C30.209,8 32,6.209 32,4 C32,1.791 30.209,0 28,0" id="Path" stroke-linecap="round" sketch:type="MSShapeGroup"></path>
                <path d="M34,8 C36.209,8 38,6.209 38,4 C38,1.791 36.209,0 34,0" id="Path" stroke-linecap="round" sketch:type="MSShapeGroup"></path>
                <path d="M15,4 L12,4 L15,4 Z" id="Path" stroke-linecap="round" sketch:type="MSShapeGroup"></path>
                <path d="M38,4 L50,4 L50,45 L38,57 L0,57 L0,4 L12,4" id="Path" stroke-linecap="round" sketch:type="MSShapeGroup"></path>
                <path d="M0,16 L50,16 L0,16 Z" id="Path" stroke-linecap="round" stroke-dasharray="4" sketch:type="MSShapeGroup"></path>
                <path d="M0,26 L50,26 L0,26 Z" id="Path" stroke-linecap="round" stroke-dasharray="4" sketch:type="MSShapeGroup"></path>
                <path d="M0,36 L50,36 L0,36 Z" id="Path" stroke-linecap="round" stroke-dasharray="4" sketch:type="MSShapeGroup"></path>
                <path d="M0,46 L33,46 L0,46 Z" id="Path" stroke-linecap="round" stroke-dasharray="5" sketch:type="MSShapeGroup"></path>
                <path d="M7,11 L7,52 L7,11 Z" id="Path" stroke-linecap="round" sketch:type="MSShapeGroup"></path>
                <path d="M38,45 L49.323,45 C49.573,45 49.698,45.302 49.521,45.479 L38.452,56.547 C38.286,56.714 38,56.596 38,56.36 L38,45 Z" id="Path" stroke-linecap="round" sketch:type="MSShapeGroup"></path>
                <path d="M38,45 L50,45 L50,57 L38,57 L38,45 Z" id="Stroke-114" sketch:type="MSShapeGroup"></path>
            </g>
        </g>
    </g>
</svg>