<?xml version="1.0" encoding="UTF-8" standalone="no"?>
<svg width="50px" height="54px" viewBox="0 0 50 54" version="1.1" xmlns="http://www.w3.org/2000/svg" xmlns:xlink="http://www.w3.org/1999/xlink" xmlns:sketch="http://www.bohemiancoding.com/sketch/ns">
    <!-- Generator: Sketch 3.2.2 (9983) - http://www.bohemiancoding.com/sketch -->
    <title>181 - Idea (Outline)</title>
    <desc>Created with Sketch.</desc>
    <defs></defs>
    <g id="Page-1" stroke="none" stroke-width="1" fill="none" fill-rule="evenodd" sketch:type="MSPage">
        <g id="Icons" sketch:type="MSArtboardGroup" transform="translate(-1204.000000, -2639.000000)" stroke="#1A1718" stroke-width="2" stroke-linecap="round" stroke-linejoin="round">
            <g id="181---Idea-(Outline)" sketch:type="MSLayerGroup" transform="translate(1205.000000, 2640.000000)">
                <path d="M24,8 C15.163,8 8,15.163 8,24 C8,31.089 12.615,37.091 19,39.192 L19,49 L21,49 L21,52 L27,52 L27,49 L29,49 L29,39.192 C35.385,37.091 40,31.089 40,24 C40,15.163 32.836,8 24,8 L24,8 Z" id="Stroke-702" sketch:type="MSShapeGroup"></path>
                <path d="M19,42 L29,42" id="Stroke-704" sketch:type="MSShapeGroup"></path>
                <path d="M24,0 L24,4" id="Stroke-706" sketch:type="MSShapeGroup"></path>
                <path d="M48,24 L44,24" id="Stroke-708" sketch:type="MSShapeGroup"></path>
                <path d="M4,24 L0,24" id="Stroke-710" sketch:type="MSShapeGroup"></path>
                <path d="M40.971,7.029 L38.142,9.858" id="Stroke-712" sketch:type="MSShapeGroup"></path>
                <path d="M9.858,38.142 L7.029,40.971" id="Stroke-714" sketch:type="MSShapeGroup"></path>
                <path d="M40.971,40.971 L38.142,38.142" id="Stroke-716" sketch:type="MSShapeGroup"></path>
                <path d="M9.858,9.858 L7.029,7.029" id="Stroke-718" sketch:type="MSShapeGroup"></path>
                <path d="M13,24 C13,17.925 17.925,13 24,13" id="Stroke-720" sketch:type="MSShapeGroup"></path>
            </g>
        </g>
    </g>
</svg>