<?xml version="1.0" encoding="UTF-8" standalone="no"?>
<svg width="60px" height="53px" viewBox="0 0 60 53" version="1.1" xmlns="http://www.w3.org/2000/svg" xmlns:xlink="http://www.w3.org/1999/xlink" xmlns:sketch="http://www.bohemiancoding.com/sketch/ns">
    <!-- Generator: Sketch 3.2.2 (9983) - http://www.bohemiancoding.com/sketch -->
    <title>66 - Folder (Outline)</title>
    <desc>Created with Sketch.</desc>
    <defs></defs>
    <g id="Page-1" stroke="none" stroke-width="1" fill="none" fill-rule="evenodd" sketch:type="MSPage">
        <g id="Icons" sketch:type="MSArtboardGroup" transform="translate(-600.000000, -4080.000000)" stroke="#000000" stroke-width="2" stroke-linejoin="round">
            <g id="66---Folder-(Outline)" sketch:type="MSLayerGroup" transform="translate(601.000000, 4081.000000)">
                <path d="M55.981,51 L2.019,51 C0.904,51 0,50.096 0,48.981 L0,17 L58,17 L58,48.981 C58,50.096 57.096,51 55.981,51 L55.981,51 Z" id="Path" sketch:type="MSShapeGroup"></path>
                <path d="M26.019,8 L26.019,2.019 C26.019,0.904 25.115,0 24,0 L2.019,0 C0.904,0 0,0.904 0,2.019 L0,17 L58,17 L58,10.019 C58,8.904 57.096,8 55.981,8 L26.019,8 L26.019,8 Z" id="Path" sketch:type="MSShapeGroup"></path>
                <path d="M18,28 L32,28 M18,34 L40,34 M18,40 L40,40" id="Stroke-54" stroke-linecap="round" sketch:type="MSShapeGroup"></path>
            </g>
        </g>
    </g>
</svg>