<?xml version="1.0" encoding="UTF-8" standalone="no"?>
<svg width="60px" height="56px" viewBox="0 0 60 56" version="1.1" xmlns="http://www.w3.org/2000/svg" xmlns:xlink="http://www.w3.org/1999/xlink" xmlns:sketch="http://www.bohemiancoding.com/sketch/ns">
    <!-- Generator: Sketch 3.2.2 (9983) - http://www.bohemiancoding.com/sketch -->
    <title>61 - Archive (Outline)</title>
    <desc>Created with Sketch.</desc>
    <defs></defs>
    <g id="Page-1" stroke="none" stroke-width="1" fill="none" fill-rule="evenodd" sketch:type="MSPage">
        <g id="Icons" sketch:type="MSArtboardGroup" transform="translate(-1200.000000, -4079.000000)" stroke="#000000" stroke-width="2" stroke-linejoin="round">
            <g id="61---Archive-(Outline)" sketch:type="MSLayerGroup" transform="translate(1200.000000, 4080.000000)">
                <path d="M53.723,54 L6.189,54 C6.055,54 5.941,53.902 5.921,53.769 L1.003,21.311 C0.978,21.148 1.105,21 1.271,21 L58.641,21 C58.807,21 58.934,21.148 58.909,21.311 L53.991,53.769 C53.971,53.902 53.857,54 53.723,54 L53.723,54 Z" id="Path" sketch:type="MSShapeGroup"></path>
                <path d="M55,21 L55,5.767 C55,5.344 54.656,5 54.232,5 L23.435,5 C23.165,5 22.915,4.858 22.776,4.627 L20.224,0.373 C20.085,0.142 19.835,0 19.565,0 L5.768,0 C5.344,0 5,0.344 5,0.767 L5,21 L55,21 L55,21 Z" id="Path" sketch:type="MSShapeGroup"></path>
                <path d="M8,17 L52,17 L52,21 L8,21 L8,17 Z" id="Path" sketch:type="MSShapeGroup"></path>
                <path d="M9,14 L51,14 L51,17 L9,17 L9,14 Z" id="Path" sketch:type="MSShapeGroup"></path>
                <path d="M10,11 L50,11 L50,14 L10,14 L10,11 Z" id="Path" sketch:type="MSShapeGroup"></path>
                <path d="M27.956,35 L46.956,35 L46.956,47 L27.956,47 L27.956,35 Z" id="Path" sketch:type="MSShapeGroup"></path>
                <path d="M35.956,39 L31.956,39 L35.956,39 L35.956,39 Z M40.956,39 L39.956,39 L40.956,39 L40.956,39 Z M42.956,43 L31.956,43 L42.956,43 L42.956,43 Z" id="Stroke-53" stroke-linecap="round" sketch:type="MSShapeGroup"></path>
            </g>
        </g>
    </g>
</svg>