<?xml version="1.0" encoding="UTF-8" standalone="no"?>
<svg width="47px" height="58px" viewBox="0 0 47 58" version="1.1" xmlns="http://www.w3.org/2000/svg" xmlns:xlink="http://www.w3.org/1999/xlink" xmlns:sketch="http://www.bohemiancoding.com/sketch/ns">
    <!-- Generator: Sketch 3.2.2 (9983) - http://www.bohemiancoding.com/sketch -->
    <title>317 - Mute (Outline)</title>
    <desc>Created with Sketch.</desc>
    <defs></defs>
    <g id="Page-1" stroke="none" stroke-width="1" fill="none" fill-rule="evenodd" sketch:type="MSPage">
        <g id="317---Mute-(Outline)" sketch:type="MSLayerGroup" transform="translate(1.000000, 1.000000)" stroke="#000000" stroke-width="2" stroke-linecap="round">
            <path d="M38,28 L38,34 C38,42.271 31.271,49 23,49 C14.728,49 8,42.271 8,34 L8,28" id="Path" sketch:type="MSShapeGroup"></path>
            <path d="M23,44 L23,44 C17.5,44 13,39.5 13,34 L13,10 C13,4.5 17.5,0 23,0 C28.5,0 33,4.5 33,10 L33,34 C33,39.5 28.5,44 23,44 L23,44 Z" id="Path" sketch:type="MSShapeGroup"></path>
            <path d="M23,49 L23,56 L23,49 Z" id="Path" sketch:type="MSShapeGroup"></path>
            <path d="M29,56 L17,56 L29,56 Z" id="Path" sketch:type="MSShapeGroup"></path>
            <path d="M36,13 L45,4 L36,13 Z" id="Path" sketch:type="MSShapeGroup"></path>
            <path d="M16,33 L30,19 L16,33 Z" id="Path" sketch:type="MSShapeGroup"></path>
            <path d="M0,49 L7,42 L0,49 Z" id="Path" sketch:type="MSShapeGroup"></path>
        </g>
    </g>
</svg>