<?xml version="1.0" encoding="UTF-8" standalone="no"?>
<svg width="56px" height="61px" viewBox="0 0 56 61" version="1.1" xmlns="http://www.w3.org/2000/svg" xmlns:xlink="http://www.w3.org/1999/xlink" xmlns:sketch="http://www.bohemiancoding.com/sketch/ns">
    <!-- Generator: Sketch 3.2.2 (9983) - http://www.bohemiancoding.com/sketch -->
    <title>74 - Stopwatch (Outline)</title>
    <desc>Created with Sketch.</desc>
    <defs></defs>
    <g id="Page-1" stroke="none" stroke-width="1" fill="none" fill-rule="evenodd" sketch:type="MSPage">
        <g id="Icons" sketch:type="MSArtboardGroup" transform="translate(-842.000000, -3957.000000)" stroke="#1A1718" stroke-width="2" stroke-linecap="round" stroke-linejoin="round">
            <g id="74---Stopwatch-(Outline)" sketch:type="MSLayerGroup" transform="translate(843.000000, 3958.000000)">
                <path d="M16,21.121 L16,21.121 L28.944,30.484 C30.218,31.411 30.363,33.256 29.249,34.37 C28.135,35.484 26.29,35.339 25.363,34.065 L16,21.121 L16,21.121 Z" id="Path" sketch:type="MSShapeGroup"></path>
                <path d="M53,32.121 C53,46.481 41.359,58.121 27,58.121 C12.641,58.121 1,46.481 1,32.121 C1,17.762 12.641,6.121 27,6.121 C41.359,6.121 53,17.762 53,32.121 L53,32.121 Z" id="Path" sketch:type="MSShapeGroup"></path>
                <path d="M25,6.205 C25.661,6.155 26.326,6.121 27,6.121 C27.674,6.121 28.339,6.155 29,6.205 L29,3.121 L31.5,3.121 C32.328,3.121 33,2.449 33,1.621 C33,0.793 32.328,0.121 31.5,0.121 L22.5,0.121 C21.672,0.121 21,0.793 21,1.621 C21,2.449 21.672,3.121 22.5,3.121 L25,3.121 L25,6.205 L25,6.205 Z M5.08,10.201 L8.615,13.736 L5.08,10.201 Z M3.666,11.615 L0.837,8.787 L3.666,5.958 L6.494,8.787 L3.666,11.615 L3.666,11.615 Z M45.385,13.736 L48.92,10.201 L45.385,13.736 Z M53.163,8.787 L50.334,11.615 L47.506,8.787 L50.334,5.958 L53.163,8.787 L53.163,8.787 Z M27,6.121 L27,9.121 L27,6.121 Z M27,55.121 L27,58.121 L27,55.121 Z M53,32.121 L50,32.121 L53,32.121 Z M4,32.121 L1,32.121 L4,32.121 Z M45.385,13.736 L43.264,15.858 L45.385,13.736 Z M10.737,48.385 L8.615,50.506 L10.737,48.385 Z M45.385,50.506 L43.264,48.385 L45.385,50.506 Z M10.737,15.858 L8.615,13.736 L10.737,15.858 Z M20.271,7.007 L21.047,9.905 L20.271,7.007 Z M32.953,54.337 L33.729,57.235 L32.953,54.337 Z M52.114,25.392 L49.216,26.168 L52.114,25.392 Z M4.784,38.074 L1.886,38.85 L4.784,38.074 Z M40,9.604 L38.5,12.203 L40,9.604 Z M15.5,52.039 L14,54.638 L15.5,52.039 Z M49.517,45.121 L46.919,43.621 L49.517,45.121 Z M7.081,20.621 L4.483,19.121 L7.081,20.621 Z M14,9.604 L15.5,12.203 L14,9.604 Z M38.5,52.039 L40,54.638 L38.5,52.039 Z M49.517,19.121 L46.919,20.621 L49.517,19.121 Z M7.081,43.621 L4.483,45.121 L7.081,43.621 Z M33.729,7.007 L32.953,9.905 L33.729,7.007 Z M21.047,54.337 L20.271,57.235 L21.047,54.337 Z M52.114,38.85 L49.216,38.074 L52.114,38.85 Z M4.784,26.168 L1.886,25.392 L4.784,26.168 Z" id="Stroke-16" sketch:type="MSShapeGroup"></path>
            </g>
        </g>
    </g>
</svg>