<?xml version="1.0" encoding="UTF-8" standalone="no"?>
<svg width="58px" height="57px" viewBox="0 0 58 57" version="1.1" xmlns="http://www.w3.org/2000/svg" xmlns:xlink="http://www.w3.org/1999/xlink" xmlns:sketch="http://www.bohemiancoding.com/sketch/ns">
    <!-- Generator: Sketch 3.2.2 (9983) - http://www.bohemiancoding.com/sketch -->
    <title>39 - Calendar (Outline)</title>
    <desc>Created with Sketch.</desc>
    <defs></defs>
    <g id="Page-1" stroke="none" stroke-width="1" fill="none" fill-rule="evenodd" sketch:type="MSPage">
        <g id="Icons" sketch:type="MSArtboardGroup" transform="translate(-241.000000, -4440.000000)">
            <g id="39---Calendar-(Outline)" sketch:type="MSLayerGroup" transform="translate(242.000000, 4441.000000)">
                <path d="M18,4 L15,4 L18,4 Z" id="Path" stroke="#000000" stroke-width="2" stroke-linecap="round" stroke-linejoin="round" sketch:type="MSShapeGroup"></path>
                <path d="M41,4 L56,4 L56,15 L0,15 L0,4 L15,4" id="Path" stroke="#000000" stroke-width="2" stroke-linecap="round" stroke-linejoin="round" sketch:type="MSShapeGroup"></path>
                <path d="M41,4 L56,4 L56,55 L0,55 L0,4 L15,4" id="Path" stroke="#000000" stroke-width="2" stroke-linecap="round" stroke-linejoin="round" sketch:type="MSShapeGroup"></path>
                <path d="M15,4 C15,1.791 16.791,0 19,0 C21.209,0 23,1.791 23,4 C23,6.209 21.209,8 19,8" id="Path" stroke="#000000" stroke-width="2" stroke-linecap="round" stroke-linejoin="round" sketch:type="MSShapeGroup"></path>
                <path d="M25,8 C27.209,8 29,6.209 29,4 C29,1.791 27.209,0 25,0" id="Path" stroke="#000000" stroke-width="2" stroke-linecap="round" stroke-linejoin="round" sketch:type="MSShapeGroup"></path>
                <path d="M31,8 C33.209,8 35,6.209 35,4 C35,1.791 33.209,0 31,0" id="Path" stroke="#000000" stroke-width="2" stroke-linecap="round" stroke-linejoin="round" sketch:type="MSShapeGroup"></path>
                <path d="M37,8 C39.209,8 41,6.209 41,4 C41,1.791 39.209,0 37,0" id="Path" stroke="#000000" stroke-width="2" stroke-linecap="round" stroke-linejoin="round" sketch:type="MSShapeGroup"></path>
                <path d="M17,26 C17,28.761 14.761,31 12,31 C9.239,31 7,28.761 7,26 C7,23.239 9.239,21 12,21 C14.761,21 17,23.239 17,26 L17,26 Z" id="Path" stroke="#000000" stroke-width="2" stroke-linecap="round" stroke-linejoin="round" sketch:type="MSShapeGroup"></path>
                <path d="M33,26 C33,28.761 30.761,31 28,31 C25.239,31 23,28.761 23,26 C23,23.239 25.239,21 28,21 C30.761,21 33,23.239 33,26 L33,26 Z" id="Path" stroke="#000000" stroke-width="2" stroke-linecap="round" stroke-linejoin="round" sketch:type="MSShapeGroup"></path>
                <path d="M49,26 C49,28.761 46.761,31 44,31 C41.239,31 39,28.761 39,26 C39,23.239 41.239,21 44,21 C46.761,21 49,23.239 49,26 L49,26 Z" id="Path" stroke="#000000" stroke-width="2" stroke-linecap="round" stroke-linejoin="round" sketch:type="MSShapeGroup"></path>
                <path d="M17,42 C17,44.761 14.761,47 12,47 C9.239,47 7,44.761 7,42 C7,39.238 9.239,37 12,37 C14.761,37 17,39.238 17,42 L17,42 Z" id="Path" stroke="#000000" stroke-width="2" stroke-linecap="round" stroke-linejoin="round" sketch:type="MSShapeGroup"></path>
                <path d="M33,42 C33,44.761 30.761,47 28,47 C25.239,47 23,44.761 23,42 C23,39.238 25.239,37 28,37 C30.761,37 33,39.238 33,42 L33,42 Z" id="Path" stroke="#000000" stroke-width="2" stroke-linecap="round" stroke-linejoin="round" sketch:type="MSShapeGroup"></path>
                <path d="M45,47 C45,47.552 44.552,48 44,48 C43.448,48 43,47.552 43,47 C43,46.448 43.448,46 44,46 C44.552,46 45,46.448 45,47" id="Fill-115" fill="#000000" sketch:type="MSShapeGroup"></path>
                <path d="M41,46 C41,46.552 40.552,47 40,47 C39.448,47 39,46.552 39,46 C39,45.447 39.448,45 40,45 C40.552,45 41,45.447 41,46" id="Fill-116" fill="#000000" sketch:type="MSShapeGroup"></path>
                <path d="M49,46 C49,46.552 48.552,47 48,47 C47.448,47 47,46.552 47,46 C47,45.447 47.448,45 48,45 C48.552,45 49,45.447 49,46" id="Fill-117" fill="#000000" sketch:type="MSShapeGroup"></path>
                <path d="M49,38 C49,38.552 48.552,39 48,39 C47.448,39 47,38.552 47,38 C47,37.448 47.448,37 48,37 C48.552,37 49,37.448 49,38" id="Fill-118" fill="#000000" sketch:type="MSShapeGroup"></path>
                <path d="M41,38 C41,38.552 40.552,39 40,39 C39.448,39 39,38.552 39,38 C39,37.448 39.448,37 40,37 C40.552,37 41,37.448 41,38" id="Fill-119" fill="#000000" sketch:type="MSShapeGroup"></path>
                <path d="M43,40 C43,40.552 42.552,41 42,41 C41.448,41 41,40.552 41,40 C41,39.447 41.448,39 42,39 C42.552,39 43,39.447 43,40" id="Fill-120" fill="#000000" sketch:type="MSShapeGroup"></path>
                <path d="M47,40 C47,40.552 46.552,41 46,41 C45.448,41 45,40.552 45,40 C45,39.447 45.448,39 46,39 C46.552,39 47,39.447 47,40" id="Fill-121" fill="#000000" sketch:type="MSShapeGroup"></path>
                <path d="M45,42 C45,42.552 44.552,43 44,43 C43.448,43 43,42.552 43,42 C43,41.448 43.448,41 44,41 C44.552,41 45,41.448 45,42" id="Fill-122" fill="#000000" sketch:type="MSShapeGroup"></path>
                <path d="M43,44 C43,44.552 42.552,45 42,45 C41.448,45 41,44.552 41,44 C41,43.448 41.448,43 42,43 C42.552,43 43,43.448 43,44" id="Fill-123" fill="#000000" sketch:type="MSShapeGroup"></path>
                <path d="M47,44 C47,44.552 46.552,45 46,45 C45.448,45 45,44.552 45,44 C45,43.448 45.448,43 46,43 C46.552,43 47,43.448 47,44" id="Fill-124" fill="#000000" sketch:type="MSShapeGroup"></path>
                <path d="M50,42 C50,42.552 49.552,43 49,43 C48.448,43 48,42.552 48,42 C48,41.448 48.448,41 49,41 C49.552,41 50,41.448 50,42" id="Fill-125" fill="#000000" sketch:type="MSShapeGroup"></path>
                <path d="M40,42 C40,42.552 39.552,43 39,43 C38.448,43 38,42.552 38,42 C38,41.448 38.448,41 39,41 C39.552,41 40,41.448 40,42" id="Fill-126" fill="#000000" sketch:type="MSShapeGroup"></path>
                <path d="M45,37 C45,37.552 44.552,38 44,38 C43.448,38 43,37.552 43,37 C43,36.447 43.448,36 44,36 C44.552,36 45,36.447 45,37" id="Fill-127" fill="#000000" sketch:type="MSShapeGroup"></path>
            </g>
        </g>
    </g>
</svg>