<?xml version="1.0" encoding="UTF-8" standalone="no"?>
<svg width="51px" height="60px" viewBox="0 0 51 60" version="1.1" xmlns="http://www.w3.org/2000/svg" xmlns:xlink="http://www.w3.org/1999/xlink" xmlns:sketch="http://www.bohemiancoding.com/sketch/ns">
    <!-- Generator: Sketch 3.2.2 (9983) - http://www.bohemiancoding.com/sketch -->
    <title>32 - Bookmark File (Outline)</title>
    <desc>Created with Sketch.</desc>
    <defs></defs>
    <g id="Page-1" stroke="none" stroke-width="1" fill="none" fill-rule="evenodd" sketch:type="MSPage">
        <g id="Icons" sketch:type="MSArtboardGroup" transform="translate(-1085.000000, -4437.000000)" stroke="#1A1718" stroke-width="2" stroke-linecap="round" stroke-linejoin="round">
            <g id="32---Bookmark-File-(Outline)" sketch:type="MSLayerGroup" transform="translate(1086.000000, 4438.000000)">
                <path d="M7,36 L42,36 L7,36 Z M29,29 L42,29 L29,29 Z M29,22 L42,22 L29,22 Z M29,15 L42,15 L29,15 Z M7,48 L42,48 L7,48 Z M7,42 L21,42 L7,42 Z M29,42 L42,42 L29,42 Z M23,28 L15,22 L7,28 L7,0 L23,0 L23,28 L23,28 Z M23,4 L23,28 L15,22 L7,28 L7,4 L0,4 L0,58 L49,58 L49,4 L23,4 L23,4 Z" id="Stroke-106" sketch:type="MSShapeGroup"></path>
            </g>
        </g>
    </g>
</svg>