<?xml version="1.0" encoding="UTF-8" standalone="no"?>
<svg width="60px" height="54px" viewBox="0 0 60 54" version="1.1" xmlns="http://www.w3.org/2000/svg" xmlns:xlink="http://www.w3.org/1999/xlink" xmlns:sketch="http://www.bohemiancoding.com/sketch/ns">
    <!-- Generator: Sketch 3.2.2 (9983) - http://www.bohemiancoding.com/sketch -->
    <title>111 - Controls (Outline)</title>
    <desc>Created with Sketch.</desc>
    <defs></defs>
    <g id="Page-1" stroke="none" stroke-width="1" fill="none" fill-rule="evenodd" sketch:type="MSPage">
        <g id="Icons" sketch:type="MSArtboardGroup" transform="translate(-1200.000000, -3480.000000)" stroke="#000000" stroke-width="2" stroke-linecap="round" stroke-linejoin="round">
            <g id="111---Controls-(Outline)" sketch:type="MSLayerGroup" transform="translate(1201.000000, 3481.000000)">
                <path d="M5,36 L5,0 L5,36 Z M0,36 L10,36 L10,48 L0,48 L0,36 Z M5,48 L5,52 L5,48 Z M21,26 L21,0 L21,26 Z M16,26 L26,26 L26,38 L16,38 L16,26 Z M21,38 L21,52 L21,38 Z M37,16 L37,0 L37,16 Z M32,16 L42,16 L42,28 L32,28 L32,16 Z M37,28 L37,52 L37,28 Z M53,16 L53,52 L53,16 Z M48,4 L58,4 L58,16 L48,16 L48,4 Z M53,4 L53,0 L53,4 Z" id="Stroke-468" sketch:type="MSShapeGroup"></path>
                <path d="M20,30 L22,30" id="Path" sketch:type="MSShapeGroup"></path>
                <path d="M36,24 L38,24" id="Path" sketch:type="MSShapeGroup"></path>
                <path d="M36,20 L38,20" id="Path" sketch:type="MSShapeGroup"></path>
                <path d="M52,12 L54,12" id="Path" sketch:type="MSShapeGroup"></path>
                <path d="M52,8 L54,8" id="Path" sketch:type="MSShapeGroup"></path>
                <path d="M20,34 L22,34" id="Path" sketch:type="MSShapeGroup"></path>
                <path d="M4,40 L6,40" id="Path" sketch:type="MSShapeGroup"></path>
                <path d="M4,44 L6,44" id="Path" sketch:type="MSShapeGroup"></path>
            </g>
        </g>
    </g>
</svg>