<?xml version="1.0" encoding="UTF-8" standalone="no"?>
<svg width="58px" height="60px" viewBox="0 0 58 60" version="1.1" xmlns="http://www.w3.org/2000/svg" xmlns:xlink="http://www.w3.org/1999/xlink" xmlns:sketch="http://www.bohemiancoding.com/sketch/ns">
    <!-- Generator: Sketch 3.2.2 (9983) - http://www.bohemiancoding.com/sketch -->
    <title>365 - Focus View (Outline)</title>
    <desc>Created with Sketch.</desc>
    <defs></defs>
    <g id="Page-1" stroke="none" stroke-width="1" fill="none" fill-rule="evenodd" sketch:type="MSPage">
        <g id="Icons" sketch:type="MSArtboardGroup" transform="translate(-721.000000, -478.000000)" stroke="#000000" stroke-width="2" stroke-linecap="round" stroke-linejoin="round">
            <g id="365---Focus-View-(Outline)" sketch:type="MSLayerGroup" transform="translate(722.000000, 479.000000)">
                <path d="M56,28.642 L48.766,35.876 C37.249,47.393 18.576,47.393 7.059,35.876 L0.055,28.872 L7.289,21.638 C18.806,10.121 37.479,10.121 48.996,21.638 L56,28.642 L56,28.642 Z" id="Path" sketch:type="MSShapeGroup"></path>
                <path d="M39.511,28.783 C39.511,35.307 34.222,40.596 27.698,40.596 C21.174,40.596 15.885,35.307 15.885,28.783 C15.885,22.259 21.174,16.97 27.698,16.97 C34.222,16.97 39.511,22.259 39.511,28.783 L39.511,28.783 Z" id="Path" sketch:type="MSShapeGroup"></path>
                <path d="M28,0 L28,10 L28,0 Z" id="Path" sketch:type="MSShapeGroup"></path>
                <path d="M28,10 L32,6 L28,10 Z" id="Path" sketch:type="MSShapeGroup"></path>
                <path d="M28,10 L24,6 L28,10 Z" id="Path" sketch:type="MSShapeGroup"></path>
                <path d="M28,58 L28,48 L28,58 Z" id="Path" sketch:type="MSShapeGroup"></path>
                <path d="M28,48 L24,52 L28,48 Z" id="Path" sketch:type="MSShapeGroup"></path>
                <path d="M28,48 L32,52 L28,48 Z" id="Path" sketch:type="MSShapeGroup"></path>
            </g>
        </g>
    </g>
</svg>