<?xml version="1.0" encoding="UTF-8" standalone="no"?>
<svg width="58px" height="60px" viewBox="0 0 58 60" version="1.1" xmlns="http://www.w3.org/2000/svg" xmlns:xlink="http://www.w3.org/1999/xlink" xmlns:sketch="http://www.bohemiancoding.com/sketch/ns">
    <!-- Generator: Sketch 3.2.2 (9983) - http://www.bohemiancoding.com/sketch -->
    <title>20 - Phone Vibration (Outline)</title>
    <desc>Created with Sketch.</desc>
    <defs></defs>
    <g id="Page-1" stroke="none" stroke-width="1" fill="none" fill-rule="evenodd" sketch:type="MSPage">
        <g id="Icons" sketch:type="MSArtboardGroup" transform="translate(-121.000000, -4677.000000)" stroke="#000000" stroke-width="2" stroke-linejoin="round">
            <g id="20---Phone-Vibration-(Outline)" sketch:type="MSLayerGroup" transform="translate(122.000000, 4678.000000)">
                <path d="M40.595,58 L15.405,58 C13.525,58 12,56.475 12,54.595 L12,3.405 C12,1.525 13.525,0 15.405,0 L40.595,0 C42.475,0 44,1.525 44,3.405 L44,54.595 C44,56.475 42.475,58 40.595,58 L40.595,58 Z" id="Path" stroke-linecap="round" sketch:type="MSShapeGroup"></path>
                <path d="M30,52 C30,53.657 28.657,55 27,55 C25.343,55 24,53.657 24,52 C24,50.343 25.343,49 27,49 C28.657,49 30,50.343 30,52 L30,52 Z" id="Path" stroke-linecap="round" sketch:type="MSShapeGroup"></path>
                <path d="M12,46 L44,46 L12,46 Z" id="Path" stroke-linecap="round" sketch:type="MSShapeGroup"></path>
                <path d="M12,6 L44,6 L12,6 Z" id="Path" stroke-linecap="round" sketch:type="MSShapeGroup"></path>
                <path d="M24,3 L28,3 L24,3 Z" id="Path" stroke-linecap="round" sketch:type="MSShapeGroup"></path>
                <path d="M31,3 L32,3 L31,3 Z" id="Path" stroke-linecap="round" sketch:type="MSShapeGroup"></path>
                <path d="M43.702,2 C43.632,1.848 43.551,1.701 43.461,1.562 L43.944,1.691 L43.702,2 Z" id="Path" stroke-linecap="round" sketch:type="MSShapeGroup"></path>
                <path d="M47.722,2.704 L53.485,4.247 C55.301,4.734 56.379,6.602 55.893,8.418 L44.083,52.494 C44.071,52.536 44.01,52.528 44.01,52.484 L44.01,3.914" id="Stroke-7" stroke-linecap="round" stroke-dasharray="4" sketch:type="MSShapeGroup"></path>
                <path d="M43.702,2 C43.632,1.848 43.551,1.701 43.461,1.562 L43.944,1.691" id="Path" sketch:type="MSShapeGroup"></path>
                <path d="M12.308,2 C12.378,1.848 12.458,1.701 12.548,1.562 L12.065,1.691" id="Stroke-9" stroke-linecap="round" sketch:type="MSShapeGroup"></path>
                <path d="M12,3.405 C12,2.724 12.204,2.094 12.548,1.562 L2.525,4.247 C0.708,4.734 -0.37,6.602 0.117,8.418 L11.926,52.494 C11.938,52.536 12,52.527 12,52.484 L12,3.405 L12,3.405 Z" id="Path" stroke-linecap="round" stroke-dasharray="4" sketch:type="MSShapeGroup"></path>
                <path d="M12.308,2 C12.378,1.848 12.458,1.701 12.548,1.562 L12.065,1.691 L12.308,2 Z" id="Path" stroke-linecap="round" sketch:type="MSShapeGroup"></path>
            </g>
        </g>
    </g>
</svg>