<?xml version="1.0" encoding="UTF-8" standalone="no"?>
<svg width="58px" height="58px" viewBox="0 0 58 58" version="1.1" xmlns="http://www.w3.org/2000/svg" xmlns:xlink="http://www.w3.org/1999/xlink" xmlns:sketch="http://www.bohemiancoding.com/sketch/ns">
    <!-- Generator: Sketch 3.2.2 (9983) - http://www.bohemiancoding.com/sketch -->
    <title>209 - Calculator (Outline)</title>
    <desc>Created with Sketch.</desc>
    <defs></defs>
    <g id="Page-1" stroke="none" stroke-width="1" fill="none" fill-rule="evenodd" sketch:type="MSPage">
        <g id="Icons" sketch:type="MSArtboardGroup" transform="translate(-241.000000, -2398.000000)" stroke-width="2">
            <g id="209---Calculator-(Outline)" sketch:type="MSLayerGroup" transform="translate(242.000000, 2399.000000)">
                <path d="M8,14 L20,14" id="Stroke-674" stroke="#1A1718" stroke-linecap="round" stroke-linejoin="round" sketch:type="MSShapeGroup"></path>
                <path d="M14,20 L14,8" id="Stroke-676" stroke="#1A1718" stroke-linecap="round" stroke-linejoin="round" sketch:type="MSShapeGroup"></path>
                <path d="M36,14 L48,14" id="Stroke-678" stroke="#1A1718" stroke-linecap="round" stroke-linejoin="round" sketch:type="MSShapeGroup"></path>
                <path d="M0,0 L56,0 L56,56 L0,56 L0,0 Z" id="Stroke-680" stroke="#161819" sketch:type="MSShapeGroup"></path>
                <path d="M0,0 L28,0 L28,28 L0,28 L0,0 Z" id="Stroke-682" stroke="#161819" sketch:type="MSShapeGroup"></path>
                <path d="M28,0 L56,0 L56,28 L28,28 L28,0 Z" id="Stroke-684" stroke="#161819" sketch:type="MSShapeGroup"></path>
                <path d="M0,28 L28,28 L28,56 L0,56 L0,28 Z" id="Stroke-686" stroke="#161819" sketch:type="MSShapeGroup"></path>
                <path d="M28,28 L56,28 L56,56 L28,56 L28,28 Z" id="Stroke-688" stroke="#161819" sketch:type="MSShapeGroup"></path>
                <path d="M36,45 L48,45" id="Stroke-690" stroke="#1A1718" stroke-linecap="round" stroke-linejoin="round" sketch:type="MSShapeGroup"></path>
                <path d="M36,39 L48,39" id="Stroke-692" stroke="#1A1718" stroke-linecap="round" stroke-linejoin="round" sketch:type="MSShapeGroup"></path>
                <path d="M14,42 L19,37" id="Stroke-694" stroke="#1A1718" stroke-linecap="round" stroke-linejoin="round" sketch:type="MSShapeGroup"></path>
                <path d="M9,47 L14,42" id="Stroke-696" stroke="#1A1718" stroke-linecap="round" stroke-linejoin="round" sketch:type="MSShapeGroup"></path>
                <path d="M14,42 L19,47" id="Stroke-698" stroke="#1A1718" stroke-linecap="round" stroke-linejoin="round" sketch:type="MSShapeGroup"></path>
                <path d="M9,37 L14,42" id="Stroke-700" stroke="#1A1718" stroke-linecap="round" stroke-linejoin="round" sketch:type="MSShapeGroup"></path>
            </g>
        </g>
    </g>
</svg>