<?xml version="1.0" encoding="UTF-8" standalone="no"?>
<svg width="52px" height="60px" viewBox="0 0 52 60" version="1.1" xmlns="http://www.w3.org/2000/svg" xmlns:xlink="http://www.w3.org/1999/xlink" xmlns:sketch="http://www.bohemiancoding.com/sketch/ns">
    <!-- Generator: Sketch 3.2.2 (9983) - http://www.bohemiancoding.com/sketch -->
    <title>147 - Time Flies (Outline)</title>
    <desc>Created with Sketch.</desc>
    <defs></defs>
    <g id="Page-1" stroke="none" stroke-width="1" fill="none" fill-rule="evenodd" sketch:type="MSPage">
        <g id="Icons" sketch:type="MSArtboardGroup" transform="translate(-484.000000, -3117.000000)">
            <g id="147---Time-Flies-(Outline)" sketch:type="MSLayerGroup" transform="translate(485.000000, 3118.000000)">
                <path d="M29,53 C29,53.552 28.552,54 28,54 C27.448,54 27,53.552 27,53 C27,52.448 27.448,52 28,52 C28.552,52 29,52.448 29,53" id="Fill-548" fill="#000000" sketch:type="MSShapeGroup"></path>
                <path d="M33,53 C33,53.552 32.552,54 32,54 C31.448,54 31,53.552 31,53 C31,52.448 31.448,52 32,52 C32.552,52 33,52.448 33,53" id="Fill-549" fill="#000000" sketch:type="MSShapeGroup"></path>
                <path d="M37,53 C37,53.552 36.552,54 36,54 C35.448,54 35,53.552 35,53 C35,52.448 35.448,52 36,52 C36.552,52 37,52.448 37,53" id="Fill-550" fill="#000000" sketch:type="MSShapeGroup"></path>
                <path d="M41,53 C41,53.552 40.552,54 40,54 C39.448,54 39,53.552 39,53 C39,52.448 39.448,52 40,52 C40.552,52 41,52.448 41,53" id="Fill-551" fill="#000000" sketch:type="MSShapeGroup"></path>
                <path d="M31,51 C31,51.552 30.552,52 30,52 C29.448,52 29,51.552 29,51 C29,50.448 29.448,50 30,50 C30.552,50 31,50.448 31,51" id="Fill-552" fill="#000000" sketch:type="MSShapeGroup"></path>
                <path d="M35,51 C35,51.552 34.552,52 34,52 C33.448,52 33,51.552 33,51 C33,50.448 33.448,50 34,50 C34.552,50 35,50.448 35,51" id="Fill-553" fill="#000000" sketch:type="MSShapeGroup"></path>
                <path d="M39,51 C39,51.552 38.552,52 38,52 C37.448,52 37,51.552 37,51 C37,50.448 37.448,50 38,50 C38.552,50 39,50.448 39,51" id="Fill-554" fill="#000000" sketch:type="MSShapeGroup"></path>
                <path d="M29,32 C29,32.552 28.552,33 28,33 C27.448,33 27,32.552 27,32 C27,31.448 27.448,31 28,31 C28.552,31 29,31.448 29,32" id="Fill-555" fill="#000000" sketch:type="MSShapeGroup"></path>
                <path d="M31,21 C31,21.552 30.552,22 30,22 C29.448,22 29,21.552 29,21 C29,20.448 29.448,20 30,20 C30.552,20 31,20.448 31,21" id="Fill-556" fill="#000000" sketch:type="MSShapeGroup"></path>
                <path d="M35,21 C35,21.552 34.552,22 34,22 C33.448,22 33,21.552 33,21 C33,20.448 33.448,20 34,20 C34.552,20 35,20.448 35,21" id="Fill-557" fill="#000000" sketch:type="MSShapeGroup"></path>
                <path d="M33,19 C33,19.552 32.552,20 32,20 C31.448,20 31,19.552 31,19 C31,18.448 31.448,18 32,18 C32.552,18 33,18.448 33,19" id="Fill-558" fill="#000000" sketch:type="MSShapeGroup"></path>
                <path d="M35,17 C35,17.552 34.552,18 34,18 C33.448,18 33,17.552 33,17 C33,16.448 33.448,16 34,16 C34.552,16 35,16.448 35,17" id="Fill-559" fill="#000000" sketch:type="MSShapeGroup"></path>
                <path d="M31,25 C31,25.552 30.552,26 30,26 C29.448,26 29,25.552 29,25 C29,24.448 29.448,24 30,24 C30.552,24 31,24.448 31,25" id="Fill-560" fill="#000000" sketch:type="MSShapeGroup"></path>
                <path d="M29,23 C29,23.552 28.552,24 28,24 C27.448,24 27,23.552 27,23 C27,22.448 27.448,22 28,22 C28.552,22 29,22.448 29,23" id="Fill-561" fill="#000000" sketch:type="MSShapeGroup"></path>
                <path d="M33,23 C33,23.552 32.552,24 32,24 C31.448,24 31,23.552 31,23 C31,22.448 31.448,22 32,22 C32.552,22 33,22.448 33,23" id="Fill-562" fill="#000000" sketch:type="MSShapeGroup"></path>
                <path d="M29,35 C29,35.552 28.552,36 28,36 C27.448,36 27,35.552 27,35 C27,34.448 27.448,34 28,34 C28.552,34 29,34.448 29,35" id="Fill-563" fill="#000000" sketch:type="MSShapeGroup"></path>
                <path d="M29,38 C29,38.552 28.552,39 28,39 C27.448,39 27,38.552 27,38 C27,37.448 27.448,37 28,37 C28.552,37 29,37.448 29,38" id="Fill-564" fill="#000000" sketch:type="MSShapeGroup"></path>
                <path d="M29,41 C29,41.552 28.552,42 28,42 C27.448,42 27,41.552 27,41 C27,40.448 27.448,40 28,40 C28.552,40 29,40.448 29,41" id="Fill-565" fill="#000000" sketch:type="MSShapeGroup"></path>
                <path d="M29,44 C29,44.552 28.552,45 28,45 C27.448,45 27,44.552 27,44 C27,43.448 27.448,43 28,43 C28.552,43 29,43.448 29,44" id="Fill-566" fill="#000000" sketch:type="MSShapeGroup"></path>
                <path d="M29,47 C29,47.552 28.552,48 28,48 C27.448,48 27,47.552 27,47 C27,46.448 27.448,46 28,46 C28.552,46 29,46.448 29,47" id="Fill-567" fill="#000000" sketch:type="MSShapeGroup"></path>
                <path d="M33,49 C33,49.552 32.552,50 32,50 C31.448,50 31,49.552 31,49 C31,48.448 31.448,48 32,48 C32.552,48 33,48.448 33,49" id="Fill-568" fill="#000000" sketch:type="MSShapeGroup"></path>
                <path d="M37,49 C37,49.552 36.552,50 36,50 C35.448,50 35,49.552 35,49 C35,48.448 35.448,48 36,48 C36.552,48 37,48.448 37,49" id="Fill-569" fill="#000000" sketch:type="MSShapeGroup"></path>
                <path d="M14,11 L19,11 M9,18 L19,18 M4,25 L19,25 M0,32 L19,32 M6,39 L19,39 M12,46 L19,46" id="Stroke-571" stroke="#1A1718" stroke-width="2" stroke-linecap="round" stroke-linejoin="round" sketch:type="MSShapeGroup"></path>
                <path d="M25,4 L48,4 C49.105,4 50,3.104 50,2 C50,0.896 49.105,0 48,0 L25,0 L25,4 Z" id="Path" stroke="#000000" stroke-width="2" stroke-linecap="round" stroke-linejoin="round" sketch:type="MSShapeGroup"></path>
                <path d="M30,29 C37.267,25.972 42,18.872 42,11 L42,4 L25,4" id="Path" stroke="#000000" stroke-width="2" stroke-linecap="round" stroke-linejoin="round" sketch:type="MSShapeGroup"></path>
                <path d="M25,54 L42,54 L42,47 C42,39.128 37.267,32.028 30,29" id="Path" stroke="#000000" stroke-width="2" stroke-linecap="round" stroke-linejoin="round" sketch:type="MSShapeGroup"></path>
                <path d="M25,58 L48,58 C49.105,58 50,57.105 50,56 C50,54.896 49.105,54 48,54 L25,54 L25,58 Z" id="Path" stroke="#000000" stroke-width="2" stroke-linecap="round" stroke-linejoin="round" sketch:type="MSShapeGroup"></path>
            </g>
        </g>
    </g>
</svg>