<?xml version="1.0" encoding="UTF-8" standalone="no"?>
<svg width="60px" height="60px" viewBox="0 0 60 60" version="1.1" xmlns="http://www.w3.org/2000/svg" xmlns:xlink="http://www.w3.org/1999/xlink" xmlns:sketch="http://www.bohemiancoding.com/sketch/ns">
    <!-- Generator: Sketch 3.2.2 (9983) - http://www.bohemiancoding.com/sketch -->
    <title>176 - Network Database (Outline)</title>
    <desc>Created with Sketch.</desc>
    <defs></defs>
    <g id="Page-1" stroke="none" stroke-width="1" fill="none" fill-rule="evenodd" sketch:type="MSPage">
        <g id="176---Network-Database-(Outline)" sketch:type="MSLayerGroup" transform="translate(1.000000, 1.000000)">
            <path d="M40,48.75 C30.059,48.75 22,45.896 22,42.375 L22,51.75 L22.034,51.75 C22.582,55.096 30.415,57.75 40,57.75 C49.585,57.75 57.418,55.096 57.966,51.75 L58,51.75 L58,42.375 C58,45.896 49.941,48.75 40,48.75 L40,48.75 Z" id="Path" stroke="#000000" stroke-width="2" stroke-linecap="round" stroke-linejoin="round" sketch:type="MSShapeGroup"></path>
            <path d="M22,42 L22,42.375 C22,42.249 22.013,42.124 22.034,42 L22,42 L22,42 Z" id="Path" stroke="#000000" stroke-width="2" stroke-linecap="round" stroke-linejoin="round" sketch:type="MSShapeGroup"></path>
            <path d="M57.966,42 C57.987,42.124 58,42.249 58,42.375 L58,42 L57.966,42 L57.966,42 Z" id="Path" stroke="#000000" stroke-width="2" stroke-linecap="round" stroke-linejoin="round" sketch:type="MSShapeGroup"></path>
            <path d="M40,39.75 C30.059,39.75 22,36.896 22,33.375 L22,42.75 L22.034,42.75 C22.582,46.096 30.415,48.75 40,48.75 C49.585,48.75 57.418,46.096 57.966,42.75 L58,42.75 L58,33.375 C58,36.896 49.941,39.75 40,39.75 L40,39.75 Z" id="Path" stroke="#000000" stroke-width="2" stroke-linecap="round" stroke-linejoin="round" sketch:type="MSShapeGroup"></path>
            <path d="M22,33 L22,33.375 C22,33.249 22.013,33.124 22.034,33 L22,33 L22,33 Z" id="Path" stroke="#000000" stroke-width="2" stroke-linecap="round" stroke-linejoin="round" sketch:type="MSShapeGroup"></path>
            <path d="M57.966,33 C57.987,33.124 58,33.249 58,33.375 L58,33 L57.966,33 L57.966,33 Z" id="Path" stroke="#000000" stroke-width="2" stroke-linecap="round" stroke-linejoin="round" sketch:type="MSShapeGroup"></path>
            <path d="M58,24.375 C58,27.896 49.941,30.75 40,30.75 C30.059,30.75 22,27.896 22,24.375 C22,20.854 30.059,18 40,18 C49.941,18 58,20.854 58,24.375 L58,24.375 Z" id="Path" stroke="#000000" stroke-width="2" stroke-linecap="round" stroke-linejoin="round" sketch:type="MSShapeGroup"></path>
            <path d="M40,30.75 C30.059,30.75 22,27.896 22,24.375 L22,33.75 L22.034,33.75 C22.582,37.096 30.415,39.75 40,39.75 C49.585,39.75 57.418,37.096 57.966,33.75 L58,33.75 L58,24.375 C58,27.896 49.941,30.75 40,30.75 L40,30.75 Z" id="Path" stroke="#000000" stroke-width="2" stroke-linecap="round" stroke-linejoin="round" sketch:type="MSShapeGroup"></path>
            <path d="M22,24 L22,24.375 C22,24.249 22.013,24.124 22.034,24 L22,24 L22,24 Z" id="Path" stroke="#000000" stroke-width="2" stroke-linecap="round" stroke-linejoin="round" sketch:type="MSShapeGroup"></path>
            <path d="M57.966,24 C57.987,24.124 58,24.249 58,24.375 L58,24 L57.966,24 L57.966,24 Z" id="Path" stroke="#000000" stroke-width="2" stroke-linecap="round" stroke-linejoin="round" sketch:type="MSShapeGroup"></path>
            <path d="M13,9.5 C13,11.433 11.433,13 9.5,13 C7.567,13 6,11.433 6,9.5 C6,7.567 7.567,6 9.5,6 C11.433,6 13,7.567 13,9.5 L13,9.5 Z" id="Stroke-39" stroke="#000000" stroke-width="2" stroke-linecap="round" stroke-linejoin="round" sketch:type="MSShapeGroup"></path>
            <path d="M50,8 C50,8.552 49.552,9 49,9 C48.448,9 48,8.552 48,8 C48,7.448 48.448,7 49,7 C49.552,7 50,7.448 50,8" id="Fill-40" fill="#000000" sketch:type="MSShapeGroup"></path>
            <path d="M46,8 C46,8.552 45.552,9 45,9 C44.448,9 44,8.552 44,8 C44,7.448 44.448,7 45,7 C45.552,7 46,7.448 46,8" id="Fill-41" fill="#000000" sketch:type="MSShapeGroup"></path>
            <path d="M52,11 C52,11.552 51.552,12 51,12 C50.448,12 50,11.552 50,11 C50,10.448 50.448,10 51,10 C51.552,10 52,10.448 52,11" id="Fill-42" fill="#000000" sketch:type="MSShapeGroup"></path>
            <path d="M48,11 C48,11.552 47.552,12 47,12 C46.448,12 46,11.552 46,11 C46,10.448 46.448,10 47,10 C47.552,10 48,10.448 48,11" id="Fill-43" fill="#000000" sketch:type="MSShapeGroup"></path>
            <path d="M42,8 C42,8.552 41.552,9 41,9 C40.448,9 40,8.552 40,8 C40,7.448 40.448,7 41,7 C41.552,7 42,7.448 42,8" id="Fill-44" fill="#000000" sketch:type="MSShapeGroup"></path>
            <path d="M44,11 C44,11.552 43.552,12 43,12 C42.448,12 42,11.552 42,11 C42,10.448 42.448,10 43,10 C43.552,10 44,10.448 44,11" id="Fill-45" fill="#000000" sketch:type="MSShapeGroup"></path>
            <path d="M38,8 C38,8.552 37.552,9 37,9 C36.448,9 36,8.552 36,8 C36,7.448 36.448,7 37,7 C37.552,7 38,7.448 38,8" id="Fill-46" fill="#000000" sketch:type="MSShapeGroup"></path>
            <path d="M40,11 C40,11.552 39.552,12 39,12 C38.448,12 38,11.552 38,11 C38,10.448 38.448,10 39,10 C39.552,10 40,10.448 40,11" id="Fill-47" fill="#000000" sketch:type="MSShapeGroup"></path>
            <path d="M34,8 C34,8.552 33.552,9 33,9 C32.448,9 32,8.552 32,8 C32,7.448 32.448,7 33,7 C33.552,7 34,7.448 34,8" id="Fill-48" fill="#000000" sketch:type="MSShapeGroup"></path>
            <path d="M36,11 C36,11.552 35.552,12 35,12 C34.448,12 34,11.552 34,11 C34,10.448 34.448,10 35,10 C35.552,10 36,10.448 36,11" id="Fill-49" fill="#000000" sketch:type="MSShapeGroup"></path>
            <path d="M13,28.5 C13,30.433 11.433,32 9.5,32 C7.567,32 6,30.433 6,28.5 C6,26.567 7.567,25 9.5,25 C11.433,25 13,26.567 13,28.5 L13,28.5 Z" id="Path" stroke="#000000" stroke-width="2" stroke-linecap="round" stroke-linejoin="round" sketch:type="MSShapeGroup"></path>
            <path d="M13,47.5 C13,49.433 11.433,51 9.5,51 C7.567,51 6,49.433 6,47.5 C6,45.567 7.567,44 9.5,44 C11.433,44 13,45.567 13,47.5 L13,47.5 Z" id="Path" stroke="#000000" stroke-width="2" stroke-linecap="round" stroke-linejoin="round" sketch:type="MSShapeGroup"></path>
            <path d="M54.392,0 L3.608,0 C1.615,0 0,1.615 0,3.608 L0,15.392 C0,17.385 1.615,19 3.608,19 L30.349,19 C33.14,18.37 36.445,18 40,18 C43.555,18 46.86,18.37 49.651,19 L54.392,19 C56.385,19 58,17.385 58,15.392 L58,3.608 C58,1.615 56.385,0 54.392,0 L54.392,0 Z M22,33.75 L22,24.375 C22,22.113 25.335,20.132 30.349,19 L3.608,19 C1.615,19 0,20.616 0,22.609 L0,34.392 C0,36.385 1.615,38 3.608,38 L22,38 L22,33.75 L22,33.75 Z M22.034,51.75 L22,51.75 L22,38 L3.608,38 C1.615,38 0,39.615 0,41.608 L0,53.392 C0,55.385 1.615,57 3.608,57 L31.539,57 C26.16,55.983 22.407,54.028 22.034,51.75 L22.034,51.75 Z" id="Stroke-172" stroke="#1A1718" stroke-width="2" stroke-linejoin="round" sketch:type="MSShapeGroup"></path>
        </g>
    </g>
</svg>