<?xml version="1.0" encoding="UTF-8" standalone="no"?>
<svg width="30px" height="58px" viewBox="0 0 30 58" version="1.1" xmlns="http://www.w3.org/2000/svg" xmlns:xlink="http://www.w3.org/1999/xlink" xmlns:sketch="http://www.bohemiancoding.com/sketch/ns">
    <!-- Generator: Sketch 3.2.2 (9983) - http://www.bohemiancoding.com/sketch -->
    <title>306 - Location Pin (Outline)</title>
    <desc>Created with Sketch.</desc>
    <defs></defs>
    <g id="Page-1" stroke="none" stroke-width="1" fill="none" fill-rule="evenodd" sketch:type="MSPage">
        <g id="306---Location-Pin-(Outline)" sketch:type="MSLayerGroup" transform="translate(1.000000, 1.000000)" stroke="#000000" stroke-width="2">
            <path d="M14,28 L14,57 L14,28 Z" id="Path" sketch:type="MSShapeGroup"></path>
            <path d="M12,10 C12,11.657 10.657,13 9,13 C7.343,13 6,11.657 6,10 C6,8.343 7.343,7 9,7 C10.657,7 12,8.343 12,10 L12,10 Z" id="Path" sketch:type="MSShapeGroup"></path>
            <path d="M28,14 C28,21.732 21.732,28 14,28 C6.268,28 0,21.732 0,14 C0,6.268 6.268,0 14,0 C21.732,0 28,6.268 28,14 L28,14 Z" id="Path" sketch:type="MSShapeGroup"></path>
        </g>
    </g>
</svg>