<?xml version="1.0" encoding="UTF-8" standalone="no"?>
<svg width="54px" height="54px" viewBox="0 0 54 54" version="1.1" xmlns="http://www.w3.org/2000/svg" xmlns:xlink="http://www.w3.org/1999/xlink" xmlns:sketch="http://www.bohemiancoding.com/sketch/ns">
    <!-- Generator: Sketch 3.2.2 (9983) - http://www.bohemiancoding.com/sketch -->
    <title>94 - Settings (Outline)</title>
    <desc>Created with Sketch.</desc>
    <defs></defs>
    <g id="Page-1" stroke="none" stroke-width="1" fill="none" fill-rule="evenodd" sketch:type="MSPage">
        <g id="Icons" sketch:type="MSArtboardGroup" transform="translate(-843.000000, -3719.000000)" stroke="#000000" stroke-width="2" stroke-linecap="round" stroke-linejoin="round">
            <g id="94---Settings-(Outline)" sketch:type="MSLayerGroup" transform="translate(844.000000, 3720.000000)">
                <path d="M39,26 C39,33.179 33.18,39 26,39 C18.82,39 13,33.179 13,26 C13,18.82 18.82,13 26,13 C33.18,13 39,18.82 39,26 L39,26 Z" id="Path" sketch:type="MSShapeGroup"></path>
                <path d="M50.219,21 L47.422,21 C46.87,18.625 45.936,16.398 44.684,14.387 L46.661,12.41 C47.357,11.714 47.357,10.587 46.661,9.891 L42.108,5.339 C41.413,4.643 40.286,4.643 39.59,5.339 L37.613,7.316 C35.602,6.064 33.375,5.13 31,4.578 L31,1.78 C31,0.797 30.203,0 29.219,0 L22.781,0 C21.797,0 21,0.797 21,1.78 L21,4.578 C18.625,5.13 16.398,6.064 14.388,7.316 L12.41,5.339 C11.714,4.643 10.587,4.643 9.892,5.339 L5.339,9.891 C4.643,10.587 4.643,11.714 5.339,12.41 L7.316,14.387 C6.064,16.398 5.13,18.625 4.578,21 L1.781,21 C0.797,21 0,21.797 0,22.78 L0,29.219 C0,30.203 0.797,31 1.781,31 L4.578,31 C5.13,33.375 6.064,35.602 7.316,37.612 L5.339,39.59 C4.643,40.285 4.643,41.413 5.339,42.108 L9.892,46.661 C10.587,47.357 11.714,47.357 12.41,46.661 L14.387,44.683 C16.398,45.936 18.625,46.87 21,47.422 L21,50.219 C21,51.203 21.797,52 22.781,52 L29.219,52 C30.203,52 31,51.203 31,50.219 L31,47.422 C33.375,46.87 35.602,45.936 37.613,44.683 L39.59,46.661 C40.286,47.357 41.413,47.357 42.108,46.661 L46.661,42.108 C47.357,41.413 47.357,40.285 46.661,39.59 L44.684,37.612 C45.936,35.602 46.87,33.375 47.422,31 L50.219,31 C51.203,31 52,30.203 52,29.219 L52,22.78 C52,21.797 51.203,21 50.219,21 L50.219,21 Z" id="Path" sketch:type="MSShapeGroup"></path>
                <path d="M35,26 C35,30.97 30.971,35 26,35 C21.029,35 17,30.97 17,26 C17,21.029 21.029,17 26,17 C30.971,17 35,21.029 35,26 L35,26 Z" id="Path" sketch:type="MSShapeGroup"></path>
            </g>
        </g>
    </g>
</svg>