<?xml version="1.0" encoding="UTF-8" standalone="no"?>
<svg width="60px" height="53px" viewBox="0 0 60 53" version="1.1" xmlns="http://www.w3.org/2000/svg" xmlns:xlink="http://www.w3.org/1999/xlink" xmlns:sketch="http://www.bohemiancoding.com/sketch/ns">
    <!-- Generator: Sketch 3.2.2 (9983) - http://www.bohemiancoding.com/sketch -->
    <title>170 - Cloud Transfer (Outline)</title>
    <desc>Created with Sketch.</desc>
    <defs></defs>
    <g id="Page-1" stroke="none" stroke-width="1" fill="none" fill-rule="evenodd" sketch:type="MSPage">
        <g id="170---Cloud-Transfer-(Outline)" sketch:type="MSLayerGroup" transform="translate(1.000000, 1.000000)" stroke="#000000" stroke-width="2" stroke-linecap="round" stroke-linejoin="round">
            <path d="M49.003,16 C49.003,16 46.469,15.625 44,16 L49.003,16 Z" id="Path" sketch:type="MSShapeGroup"></path>
            <path d="M7,14 C7,9.582 10.582,6 15,6 C19.418,6 23,9.582 23,14" id="Path" sketch:type="MSShapeGroup"></path>
            <path d="M43,38 L46.972,38 C53.037,38 58,33.037 58,26.972 C58,21.601 54.106,16.962 49.003,16 C48.889,7.301 41.811,0 33.084,0 C27.525,0 22.306,3.005 19.424,7.336 C18.157,6.493 16.636,6 15,6 C10.582,6 7,9.582 7,14 C7,14.153 7.014,14.303 7.023,14.454 C7.013,14.637 7,14.82 7,15 C3.011,16.912 0,21.457 0,26.155 C0,32.67 5.33,38 11.845,38 L17,38" id="Path" sketch:type="MSShapeGroup"></path>
            <path d="M30,21 L30,51 L30,21 Z" id="Path" sketch:type="MSShapeGroup"></path>
            <path d="M30,51 L22,43 L30,51 Z" id="Path" sketch:type="MSShapeGroup"></path>
            <path d="M38,43 L30,51 L38,43 Z" id="Path" sketch:type="MSShapeGroup"></path>
            <path d="M30,21 L38,29 M22,29 L30,21" id="Stroke-614" sketch:type="MSShapeGroup"></path>
        </g>
    </g>
</svg>