<?xml version="1.0" encoding="UTF-8" standalone="no"?>
<svg width="54px" height="54px" viewBox="0 0 54 54" version="1.1" xmlns="http://www.w3.org/2000/svg" xmlns:xlink="http://www.w3.org/1999/xlink" xmlns:sketch="http://www.bohemiancoding.com/sketch/ns">
    <!-- Generator: Sketch 3.2.2 (9983) - http://www.bohemiancoding.com/sketch -->
    <title>269 - Music Album (Outline)</title>
    <desc>Created with Sketch.</desc>
    <defs></defs>
    <g id="Page-1" stroke="none" stroke-width="1" fill="none" fill-rule="evenodd" sketch:type="MSPage">
        <g id="269---Music-Album-(Outline)" sketch:type="MSLayerGroup" transform="translate(1.000000, 1.000000)" stroke="#1A1718" stroke-width="2" stroke-linecap="round" stroke-linejoin="round">
            <path d="M40.824,52 L11.176,52 C5.003,52 0,46.996 0,40.824 L0,11.176 C0,5.003 5.003,0 11.176,0 L40.824,0 C46.996,0 52,5.003 52,11.176 L52,40.824 C52,46.996 46.996,52 40.824,52 L40.824,52 Z" id="Stroke-8" sketch:type="MSShapeGroup"></path>
            <path d="M42,16.143 L20,19 L20,11.714 L42,8.857 L42,16.143 L42,16.143 Z" id="Stroke-10" sketch:type="MSShapeGroup"></path>
            <path d="M20,40.286 L20,16" id="Stroke-12" sketch:type="MSShapeGroup"></path>
            <path id="Stroke-14" sketch:type="MSShapeGroup"></path>
            <path d="M42,33.857 L42,13.143" id="Stroke-16" sketch:type="MSShapeGroup"></path>
            <path id="Stroke-18" sketch:type="MSShapeGroup"></path>
            <path d="M42,33.857 C42,37.013 39.122,39.571 35.571,39.571 C32.021,39.571 29.143,37.013 29.143,33.857 C29.143,30.701 32.021,28.143 35.571,28.143 C39.122,28.143 42,30.701 42,33.857 L42,33.857 Z" id="Stroke-20" sketch:type="MSShapeGroup"></path>
            <path d="M20,40.286 C20,43.442 17.09,46 13.5,46 C9.91,46 7,43.442 7,40.286 C7,37.13 9.91,34.571 13.5,34.571 C17.09,34.571 20,37.13 20,40.286 L20,40.286 Z" id="Stroke-22" sketch:type="MSShapeGroup"></path>
        </g>
    </g>
</svg>