<?xml version="1.0" encoding="UTF-8" standalone="no"?>
<svg width="53px" height="53px" viewBox="0 0 53 53" version="1.1" xmlns="http://www.w3.org/2000/svg" xmlns:xlink="http://www.w3.org/1999/xlink" xmlns:sketch="http://www.bohemiancoding.com/sketch/ns">
    <!-- Generator: Sketch 3.2.2 (9983) - http://www.bohemiancoding.com/sketch -->
    <title>352 - Select Layers (Outline)</title>
    <desc>Created with Sketch.</desc>
    <defs></defs>
    <g id="Page-1" stroke="none" stroke-width="1" fill="none" fill-rule="evenodd" sketch:type="MSPage">
        <g id="Icons" sketch:type="MSArtboardGroup" transform="translate(-1084.000000, -602.000000)">
            <g id="352---Select-Layers-(Outline)" sketch:type="MSLayerGroup" transform="translate(1085.000000, 603.000000)">
                <path d="M50.912,14.456 L25.456,29 L0,14.456 L25.456,0 L50.912,14.456 L50.912,14.456 Z" id="Path" stroke="#1A1718" stroke-width="2" stroke-linecap="round" stroke-linejoin="round" sketch:type="MSShapeGroup"></path>
                <path d="M25.456,29 L9.656,19.973 L0,25.456 L25.456,40 L50.912,25.456 L41.256,19.973 L25.456,29 L25.456,29 Z" id="Path" stroke="#1A1718" stroke-width="2" stroke-linecap="round" stroke-linejoin="round" sketch:type="MSShapeGroup"></path>
                <path d="M25.456,40 L9.656,30.973 L0,36.456 L25.456,51 L50.912,36.456 L41.256,30.973 L25.456,40 L25.456,40 Z" id="Path" stroke="#1A1718" stroke-width="2" stroke-linecap="round" stroke-linejoin="round" sketch:type="MSShapeGroup"></path>
                <path d="M41,21 C41,21.552 40.552,22 40,22 C39.448,22 39,21.552 39,21 C39,20.448 39.448,20 40,20 C40.552,20 41,20.448 41,21" id="Fill-89" fill="#000000" sketch:type="MSShapeGroup"></path>
                <path d="M44,24 C44,24.552 43.552,25 43,25 C42.448,25 42,24.552 42,24 C42,23.448 42.448,23 43,23 C43.552,23 44,23.448 44,24" id="Fill-90" fill="#000000" sketch:type="MSShapeGroup"></path>
                <path d="M11,21 C11,21.552 10.552,22 10,22 C9.448,22 9,21.552 9,21 C9,20.448 9.448,20 10,20 C10.552,20 11,20.448 11,21" id="Fill-136" fill="#000000" sketch:type="MSShapeGroup"></path>
                <path d="M38,24 C38,24.552 37.552,25 37,25 C36.448,25 36,24.552 36,24 C36,23.448 36.448,23 37,23 C37.552,23 38,23.448 38,24" id="Fill-137" fill="#000000" sketch:type="MSShapeGroup"></path>
                <path d="M8,24 C8,24.552 7.552,25 7,25 C6.448,25 6,24.552 6,24 C6,23.448 6.448,23 7,23 C7.552,23 8,23.448 8,24" id="Fill-138" fill="#000000" sketch:type="MSShapeGroup"></path>
                <path d="M14,24 C14,24.552 13.552,25 13,25 C12.448,25 12,24.552 12,24 C12,23.448 12.448,23 13,23 C13.552,23 14,23.448 14,24" id="Fill-139" fill="#000000" sketch:type="MSShapeGroup"></path>
                <path d="M5,27 C5,27.552 4.552,28 4,28 C3.448,28 3,27.552 3,27 C3,26.448 3.448,26 4,26 C4.552,26 5,26.448 5,27" id="Fill-140" fill="#000000" sketch:type="MSShapeGroup"></path>
                <path d="M2,36 C2,36.552 1.552,37 1,37 C0.448,37 0,36.552 0,36 C0,35.448 0.448,35 1,35 C1.552,35 2,35.448 2,36" id="Fill-141" fill="#000000" sketch:type="MSShapeGroup"></path>
                <path d="M11,27 C11,27.552 10.552,28 10,28 C9.448,28 9,27.552 9,27 C9,26.448 9.448,26 10,26 C10.552,26 11,26.448 11,27" id="Fill-142" fill="#000000" sketch:type="MSShapeGroup"></path>
                <path d="M17,27 C17,27.552 16.552,28 16,28 C15.448,28 15,27.552 15,27 C15,26.448 15.448,26 16,26 C16.552,26 17,26.448 17,27" id="Fill-143" fill="#000000" sketch:type="MSShapeGroup"></path>
                <path d="M17,33 C17,33.552 16.552,34 16,34 C15.448,34 15,33.552 15,33 C15,32.448 15.448,32 16,32 C16.552,32 17,32.448 17,33" id="Fill-144" fill="#000000" sketch:type="MSShapeGroup"></path>
                <path d="M14,30 C14,30.552 13.552,31 13,31 C12.448,31 12,30.552 12,30 C12,29.448 12.448,29 13,29 C13.552,29 14,29.448 14,30" id="Fill-145" fill="#000000" sketch:type="MSShapeGroup"></path>
                <path d="M20,30 C20,30.552 19.552,31 19,31 C18.448,31 18,30.552 18,30 C18,29.448 18.448,29 19,29 C19.552,29 20,29.448 20,30" id="Fill-146" fill="#000000" sketch:type="MSShapeGroup"></path>
                <path d="M20,36 C20,36.552 19.552,37 19,37 C18.448,37 18,36.552 18,36 C18,35.448 18.448,35 19,35 C19.552,35 20,35.448 20,36" id="Fill-147" fill="#000000" sketch:type="MSShapeGroup"></path>
                <path d="M23,33 C23,33.552 22.552,34 22,34 C21.448,34 21,33.552 21,33 C21,32.448 21.448,32 22,32 C22.552,32 23,32.448 23,33" id="Fill-148" fill="#000000" sketch:type="MSShapeGroup"></path>
                <path d="M29,33 C29,33.552 28.552,34 28,34 C27.448,34 27,33.552 27,33 C27,32.448 27.448,32 28,32 C28.552,32 29,32.448 29,33" id="Fill-149" fill="#000000" sketch:type="MSShapeGroup"></path>
                <path d="M26,30 C26,30.552 25.552,31 25,31 C24.448,31 24,30.552 24,30 C24,29.448 24.448,29 25,29 C25.552,29 26,29.448 26,30" id="Fill-150" fill="#000000" sketch:type="MSShapeGroup"></path>
                <path d="M32,30 C32,30.552 31.552,31 31,31 C30.448,31 30,30.552 30,30 C30,29.448 30.448,29 31,29 C31.552,29 32,29.448 32,30" id="Fill-151" fill="#000000" sketch:type="MSShapeGroup"></path>
                <path d="M26,36 C26,36.552 25.552,37 25,37 C24.448,37 24,36.552 24,36 C24,35.448 24.448,35 25,35 C25.552,35 26,35.448 26,36" id="Fill-152" fill="#000000" sketch:type="MSShapeGroup"></path>
                <path d="M32,36 C32,36.552 31.552,37 31,37 C30.448,37 30,36.552 30,36 C30,35.448 30.448,35 31,35 C31.552,35 32,35.448 32,36" id="Fill-153" fill="#000000" sketch:type="MSShapeGroup"></path>
                <path d="M35,27 C35,27.552 34.552,28 34,28 C33.448,28 33,27.552 33,27 C33,26.448 33.448,26 34,26 C34.552,26 35,26.448 35,27" id="Fill-154" fill="#000000" sketch:type="MSShapeGroup"></path>
                <path d="M41,27 C41,27.552 40.552,28 40,28 C39.448,28 39,27.552 39,27 C39,26.448 39.448,26 40,26 C40.552,26 41,26.448 41,27" id="Fill-155" fill="#000000" sketch:type="MSShapeGroup"></path>
                <path d="M35,33 C35,33.552 34.552,34 34,34 C33.448,34 33,33.552 33,33 C33,32.448 33.448,32 34,32 C34.552,32 35,32.448 35,33" id="Fill-156" fill="#000000" sketch:type="MSShapeGroup"></path>
                <path d="M38,30 C38,30.552 37.552,31 37,31 C36.448,31 36,30.552 36,30 C36,29.448 36.448,29 37,29 C37.552,29 38,29.448 38,30" id="Fill-157" fill="#000000" sketch:type="MSShapeGroup"></path>
                <path d="M44,30 C44,30.552 43.552,31 43,31 C42.448,31 42,30.552 42,30 C42,29.448 42.448,29 43,29 C43.552,29 44,29.448 44,30" id="Fill-158" fill="#000000" sketch:type="MSShapeGroup"></path>
                <path d="M47,27 C47,27.552 46.552,28 46,28 C45.448,28 45,27.552 45,27 C45,26.448 45.448,26 46,26 C46.552,26 47,26.448 47,27" id="Fill-159" fill="#000000" sketch:type="MSShapeGroup"></path>
            </g>
        </g>
    </g>
</svg>