<?xml version="1.0" encoding="UTF-8" standalone="no"?>
<svg width="32px" height="60px" viewBox="0 0 32 60" version="1.1" xmlns="http://www.w3.org/2000/svg" xmlns:xlink="http://www.w3.org/1999/xlink" xmlns:sketch="http://www.bohemiancoding.com/sketch/ns">
    <!-- Generator: Sketch 3.2.2 (9983) - http://www.bohemiancoding.com/sketch -->
    <title>139 - Full Battery (Outline)</title>
    <desc>Created with Sketch.</desc>
    <defs></defs>
    <g id="Page-1" stroke="none" stroke-width="1" fill="none" fill-rule="evenodd" sketch:type="MSPage">
        <g id="Icons" sketch:type="MSArtboardGroup" transform="translate(-253.000000, -3237.000000)">
            <g id="139---Full-Battery-(Outline)" sketch:type="MSLayerGroup" transform="translate(254.000000, 3238.000000)">
                <path d="M27.536,58 L2.464,58 C1.103,58 0,56.897 0,55.536 L0,6.464 C0,5.103 1.103,4 2.464,4 L27.536,4 C28.897,4 30,5.103 30,6.464 L30,55.536 C30,56.897 28.897,58 27.536,58 L27.536,58 Z" id="Path" stroke="#000000" stroke-width="2" stroke-linecap="round" stroke-linejoin="round" sketch:type="MSShapeGroup"></path>
                <path d="M10,0 L20,0 L20,4 L10,4 L10,0 Z" id="Path" stroke="#000000" stroke-width="2" stroke-linecap="round" stroke-linejoin="round" sketch:type="MSShapeGroup"></path>
                <path d="M5,5 C5,5.552 4.552,6 4,6 C3.448,6 3,5.552 3,5 C3,4.448 3.448,4 4,4 C4.552,4 5,4.448 5,5" id="Fill-180" fill="#000000" sketch:type="MSShapeGroup"></path>
                <path d="M5,11 C5,11.552 4.552,12 4,12 C3.448,12 3,11.552 3,11 C3,10.448 3.448,10 4,10 C4.552,10 5,10.448 5,11" id="Fill-181" fill="#000000" sketch:type="MSShapeGroup"></path>
                <path d="M2,8 C2,8.552 1.552,9 1,9 C0.448,9 0,8.552 0,8 C0,7.448 0.448,7 1,7 C1.552,7 2,7.448 2,8" id="Fill-182" fill="#000000" sketch:type="MSShapeGroup"></path>
                <path d="M8,8 C8,8.552 7.552,9 7,9 C6.448,9 6,8.552 6,8 C6,7.448 6.448,7 7,7 C7.552,7 8,7.448 8,8" id="Fill-183" fill="#000000" sketch:type="MSShapeGroup"></path>
                <path d="M2,14 C2,14.552 1.552,15 1,15 C0.448,15 0,14.552 0,14 C0,13.448 0.448,13 1,13 C1.552,13 2,13.448 2,14" id="Fill-184" fill="#000000" sketch:type="MSShapeGroup"></path>
                <path d="M8,14 C8,14.552 7.552,15 7,15 C6.448,15 6,14.552 6,14 C6,13.448 6.448,13 7,13 C7.552,13 8,13.448 8,14" id="Fill-185" fill="#000000" sketch:type="MSShapeGroup"></path>
                <path d="M11,5 C11,5.552 10.552,6 10,6 C9.448,6 9,5.552 9,5 C9,4.448 9.448,4 10,4 C10.552,4 11,4.448 11,5" id="Fill-186" fill="#000000" sketch:type="MSShapeGroup"></path>
                <path d="M17,5 C17,5.552 16.552,6 16,6 C15.448,6 15,5.552 15,5 C15,4.448 15.448,4 16,4 C16.552,4 17,4.448 17,5" id="Fill-187" fill="#000000" sketch:type="MSShapeGroup"></path>
                <path d="M11,11 C11,11.552 10.552,12 10,12 C9.448,12 9,11.552 9,11 C9,10.448 9.448,10 10,10 C10.552,10 11,10.448 11,11" id="Fill-188" fill="#000000" sketch:type="MSShapeGroup"></path>
                <path d="M17,11 C17,11.552 16.552,12 16,12 C15.448,12 15,11.552 15,11 C15,10.448 15.448,10 16,10 C16.552,10 17,10.448 17,11" id="Fill-189" fill="#000000" sketch:type="MSShapeGroup"></path>
                <path d="M14,8 C14,8.552 13.552,9 13,9 C12.448,9 12,8.552 12,8 C12,7.448 12.448,7 13,7 C13.552,7 14,7.448 14,8" id="Fill-190" fill="#000000" sketch:type="MSShapeGroup"></path>
                <path d="M20,8 C20,8.552 19.552,9 19,9 C18.448,9 18,8.552 18,8 C18,7.448 18.448,7 19,7 C19.552,7 20,7.448 20,8" id="Fill-191" fill="#000000" sketch:type="MSShapeGroup"></path>
                <path d="M14,14 C14,14.552 13.552,15 13,15 C12.448,15 12,14.552 12,14 C12,13.448 12.448,13 13,13 C13.552,13 14,13.448 14,14" id="Fill-192" fill="#000000" sketch:type="MSShapeGroup"></path>
                <path d="M20,14 C20,14.552 19.552,15 19,15 C18.448,15 18,14.552 18,14 C18,13.448 18.448,13 19,13 C19.552,13 20,13.448 20,14" id="Fill-193" fill="#000000" sketch:type="MSShapeGroup"></path>
                <path d="M23,5 C23,5.552 22.552,6 22,6 C21.448,6 21,5.552 21,5 C21,4.448 21.448,4 22,4 C22.552,4 23,4.448 23,5" id="Fill-194" fill="#000000" sketch:type="MSShapeGroup"></path>
                <path d="M29,5 C29,5.552 28.552,6 28,6 C27.448,6 27,5.552 27,5 C27,4.448 27.448,4 28,4 C28.552,4 29,4.448 29,5" id="Fill-195" fill="#000000" sketch:type="MSShapeGroup"></path>
                <path d="M23,11 C23,11.552 22.552,12 22,12 C21.448,12 21,11.552 21,11 C21,10.448 21.448,10 22,10 C22.552,10 23,10.448 23,11" id="Fill-196" fill="#000000" sketch:type="MSShapeGroup"></path>
                <path d="M29,11 C29,11.552 28.552,12 28,12 C27.448,12 27,11.552 27,11 C27,10.448 27.448,10 28,10 C28.552,10 29,10.448 29,11" id="Fill-197" fill="#000000" sketch:type="MSShapeGroup"></path>
                <path d="M26,8 C26,8.552 25.552,9 25,9 C24.448,9 24,8.552 24,8 C24,7.448 24.448,7 25,7 C25.552,7 26,7.448 26,8" id="Fill-198" fill="#000000" sketch:type="MSShapeGroup"></path>
                <path d="M26,14 C26,14.552 25.552,15 25,15 C24.448,15 24,14.552 24,14 C24,13.448 24.448,13 25,13 C25.552,13 26,13.448 26,14" id="Fill-199" fill="#000000" sketch:type="MSShapeGroup"></path>
                <path d="M5,17 C5,17.552 4.552,18 4,18 C3.448,18 3,17.552 3,17 C3,16.448 3.448,16 4,16 C4.552,16 5,16.448 5,17" id="Fill-200" fill="#000000" sketch:type="MSShapeGroup"></path>
                <path d="M5,23 C5,23.552 4.552,24 4,24 C3.448,24 3,23.552 3,23 C3,22.448 3.448,22 4,22 C4.552,22 5,22.448 5,23" id="Fill-201" fill="#000000" sketch:type="MSShapeGroup"></path>
                <path d="M2,20 C2,20.552 1.552,21 1,21 C0.448,21 0,20.552 0,20 C0,19.448 0.448,19 1,19 C1.552,19 2,19.448 2,20" id="Fill-202" fill="#000000" sketch:type="MSShapeGroup"></path>
                <path d="M8,20 C8,20.552 7.552,21 7,21 C6.448,21 6,20.552 6,20 C6,19.448 6.448,19 7,19 C7.552,19 8,19.448 8,20" id="Fill-203" fill="#000000" sketch:type="MSShapeGroup"></path>
                <path d="M2,26 C2,26.552 1.552,27 1,27 C0.448,27 0,26.552 0,26 C0,25.448 0.448,25 1,25 C1.552,25 2,25.448 2,26" id="Fill-204" fill="#000000" sketch:type="MSShapeGroup"></path>
                <path d="M8,26 C8,26.552 7.552,27 7,27 C6.448,27 6,26.552 6,26 C6,25.448 6.448,25 7,25 C7.552,25 8,25.448 8,26" id="Fill-205" fill="#000000" sketch:type="MSShapeGroup"></path>
                <path d="M11,17 C11,17.552 10.552,18 10,18 C9.448,18 9,17.552 9,17 C9,16.448 9.448,16 10,16 C10.552,16 11,16.448 11,17" id="Fill-206" fill="#000000" sketch:type="MSShapeGroup"></path>
                <path d="M17,17 C17,17.552 16.552,18 16,18 C15.448,18 15,17.552 15,17 C15,16.448 15.448,16 16,16 C16.552,16 17,16.448 17,17" id="Fill-207" fill="#000000" sketch:type="MSShapeGroup"></path>
                <path d="M11,23 C11,23.552 10.552,24 10,24 C9.448,24 9,23.552 9,23 C9,22.448 9.448,22 10,22 C10.552,22 11,22.448 11,23" id="Fill-208" fill="#000000" sketch:type="MSShapeGroup"></path>
                <path d="M17,23 C17,23.552 16.552,24 16,24 C15.448,24 15,23.552 15,23 C15,22.448 15.448,22 16,22 C16.552,22 17,22.448 17,23" id="Fill-209" fill="#000000" sketch:type="MSShapeGroup"></path>
                <path d="M14,20 C14,20.552 13.552,21 13,21 C12.448,21 12,20.552 12,20 C12,19.448 12.448,19 13,19 C13.552,19 14,19.448 14,20" id="Fill-210" fill="#000000" sketch:type="MSShapeGroup"></path>
                <path d="M20,20 C20,20.552 19.552,21 19,21 C18.448,21 18,20.552 18,20 C18,19.448 18.448,19 19,19 C19.552,19 20,19.448 20,20" id="Fill-211" fill="#000000" sketch:type="MSShapeGroup"></path>
                <path d="M14,26 C14,26.552 13.552,27 13,27 C12.448,27 12,26.552 12,26 C12,25.448 12.448,25 13,25 C13.552,25 14,25.448 14,26" id="Fill-212" fill="#000000" sketch:type="MSShapeGroup"></path>
                <path d="M20,26 C20,26.552 19.552,27 19,27 C18.448,27 18,26.552 18,26 C18,25.448 18.448,25 19,25 C19.552,25 20,25.448 20,26" id="Fill-213" fill="#000000" sketch:type="MSShapeGroup"></path>
                <path d="M23,17 C23,17.552 22.552,18 22,18 C21.448,18 21,17.552 21,17 C21,16.448 21.448,16 22,16 C22.552,16 23,16.448 23,17" id="Fill-214" fill="#000000" sketch:type="MSShapeGroup"></path>
                <path d="M29,17 C29,17.552 28.552,18 28,18 C27.448,18 27,17.552 27,17 C27,16.448 27.448,16 28,16 C28.552,16 29,16.448 29,17" id="Fill-215" fill="#000000" sketch:type="MSShapeGroup"></path>
                <path d="M23,23 C23,23.552 22.552,24 22,24 C21.448,24 21,23.552 21,23 C21,22.448 21.448,22 22,22 C22.552,22 23,22.448 23,23" id="Fill-216" fill="#000000" sketch:type="MSShapeGroup"></path>
                <path d="M29,23 C29,23.552 28.552,24 28,24 C27.448,24 27,23.552 27,23 C27,22.448 27.448,22 28,22 C28.552,22 29,22.448 29,23" id="Fill-217" fill="#000000" sketch:type="MSShapeGroup"></path>
                <path d="M26,20 C26,20.552 25.552,21 25,21 C24.448,21 24,20.552 24,20 C24,19.448 24.448,19 25,19 C25.552,19 26,19.448 26,20" id="Fill-218" fill="#000000" sketch:type="MSShapeGroup"></path>
                <path d="M26,26 C26,26.552 25.552,27 25,27 C24.448,27 24,26.552 24,26 C24,25.448 24.448,25 25,25 C25.552,25 26,25.448 26,26" id="Fill-219" fill="#000000" sketch:type="MSShapeGroup"></path>
                <path d="M5,29 C5,29.552 4.552,30 4,30 C3.448,30 3,29.552 3,29 C3,28.448 3.448,28 4,28 C4.552,28 5,28.448 5,29" id="Fill-220" fill="#000000" sketch:type="MSShapeGroup"></path>
                <path d="M5,35 C5,35.552 4.552,36 4,36 C3.448,36 3,35.552 3,35 C3,34.448 3.448,34 4,34 C4.552,34 5,34.448 5,35" id="Fill-221" fill="#000000" sketch:type="MSShapeGroup"></path>
                <path d="M2,32 C2,32.552 1.552,33 1,33 C0.448,33 0,32.552 0,32 C0,31.448 0.448,31 1,31 C1.552,31 2,31.448 2,32" id="Fill-222" fill="#000000" sketch:type="MSShapeGroup"></path>
                <path d="M8,32 C8,32.552 7.552,33 7,33 C6.448,33 6,32.552 6,32 C6,31.448 6.448,31 7,31 C7.552,31 8,31.448 8,32" id="Fill-223" fill="#000000" sketch:type="MSShapeGroup"></path>
                <path d="M2,38 C2,38.552 1.552,39 1,39 C0.448,39 0,38.552 0,38 C0,37.448 0.448,37 1,37 C1.552,37 2,37.448 2,38" id="Fill-224" fill="#000000" sketch:type="MSShapeGroup"></path>
                <path d="M8,38 C8,38.552 7.552,39 7,39 C6.448,39 6,38.552 6,38 C6,37.448 6.448,37 7,37 C7.552,37 8,37.448 8,38" id="Fill-225" fill="#000000" sketch:type="MSShapeGroup"></path>
                <path d="M11,29 C11,29.552 10.552,30 10,30 C9.448,30 9,29.552 9,29 C9,28.448 9.448,28 10,28 C10.552,28 11,28.448 11,29" id="Fill-226" fill="#000000" sketch:type="MSShapeGroup"></path>
                <path d="M17,29 C17,29.552 16.552,30 16,30 C15.448,30 15,29.552 15,29 C15,28.448 15.448,28 16,28 C16.552,28 17,28.448 17,29" id="Fill-227" fill="#000000" sketch:type="MSShapeGroup"></path>
                <path d="M11,35 C11,35.552 10.552,36 10,36 C9.448,36 9,35.552 9,35 C9,34.448 9.448,34 10,34 C10.552,34 11,34.448 11,35" id="Fill-228" fill="#000000" sketch:type="MSShapeGroup"></path>
                <path d="M17,35 C17,35.552 16.552,36 16,36 C15.448,36 15,35.552 15,35 C15,34.448 15.448,34 16,34 C16.552,34 17,34.448 17,35" id="Fill-229" fill="#000000" sketch:type="MSShapeGroup"></path>
                <path d="M14,32 C14,32.552 13.552,33 13,33 C12.448,33 12,32.552 12,32 C12,31.448 12.448,31 13,31 C13.552,31 14,31.448 14,32" id="Fill-230" fill="#000000" sketch:type="MSShapeGroup"></path>
                <path d="M20,32 C20,32.552 19.552,33 19,33 C18.448,33 18,32.552 18,32 C18,31.448 18.448,31 19,31 C19.552,31 20,31.448 20,32" id="Fill-231" fill="#000000" sketch:type="MSShapeGroup"></path>
                <path d="M14,38 C14,38.552 13.552,39 13,39 C12.448,39 12,38.552 12,38 C12,37.448 12.448,37 13,37 C13.552,37 14,37.448 14,38" id="Fill-232" fill="#000000" sketch:type="MSShapeGroup"></path>
                <path d="M20,38 C20,38.552 19.552,39 19,39 C18.448,39 18,38.552 18,38 C18,37.448 18.448,37 19,37 C19.552,37 20,37.448 20,38" id="Fill-233" fill="#000000" sketch:type="MSShapeGroup"></path>
                <path d="M23,29 C23,29.552 22.552,30 22,30 C21.448,30 21,29.552 21,29 C21,28.448 21.448,28 22,28 C22.552,28 23,28.448 23,29" id="Fill-234" fill="#000000" sketch:type="MSShapeGroup"></path>
                <path d="M29,29 C29,29.552 28.552,30 28,30 C27.448,30 27,29.552 27,29 C27,28.448 27.448,28 28,28 C28.552,28 29,28.448 29,29" id="Fill-235" fill="#000000" sketch:type="MSShapeGroup"></path>
                <path d="M23,35 C23,35.552 22.552,36 22,36 C21.448,36 21,35.552 21,35 C21,34.448 21.448,34 22,34 C22.552,34 23,34.448 23,35" id="Fill-236" fill="#000000" sketch:type="MSShapeGroup"></path>
                <path d="M29,35 C29,35.552 28.552,36 28,36 C27.448,36 27,35.552 27,35 C27,34.448 27.448,34 28,34 C28.552,34 29,34.448 29,35" id="Fill-237" fill="#000000" sketch:type="MSShapeGroup"></path>
                <path d="M26,32 C26,32.552 25.552,33 25,33 C24.448,33 24,32.552 24,32 C24,31.448 24.448,31 25,31 C25.552,31 26,31.448 26,32" id="Fill-238" fill="#000000" sketch:type="MSShapeGroup"></path>
                <path d="M26,38 C26,38.552 25.552,39 25,39 C24.448,39 24,38.552 24,38 C24,37.448 24.448,37 25,37 C25.552,37 26,37.448 26,38" id="Fill-239" fill="#000000" sketch:type="MSShapeGroup"></path>
                <path d="M5,41 C5,41.552 4.552,42 4,42 C3.448,42 3,41.552 3,41 C3,40.448 3.448,40 4,40 C4.552,40 5,40.448 5,41" id="Fill-240" fill="#000000" sketch:type="MSShapeGroup"></path>
                <path d="M5,47 C5,47.552 4.552,48 4,48 C3.448,48 3,47.552 3,47 C3,46.448 3.448,46 4,46 C4.552,46 5,46.448 5,47" id="Fill-241" fill="#000000" sketch:type="MSShapeGroup"></path>
                <path d="M2,44 C2,44.552 1.552,45 1,45 C0.448,45 0,44.552 0,44 C0,43.448 0.448,43 1,43 C1.552,43 2,43.448 2,44" id="Fill-242" fill="#000000" sketch:type="MSShapeGroup"></path>
                <path d="M8,44 C8,44.552 7.552,45 7,45 C6.448,45 6,44.552 6,44 C6,43.448 6.448,43 7,43 C7.552,43 8,43.448 8,44" id="Fill-243" fill="#000000" sketch:type="MSShapeGroup"></path>
                <path d="M2,50 C2,50.552 1.552,51 1,51 C0.448,51 0,50.552 0,50 C0,49.448 0.448,49 1,49 C1.552,49 2,49.448 2,50" id="Fill-244" fill="#000000" sketch:type="MSShapeGroup"></path>
                <path d="M8,50 C8,50.552 7.552,51 7,51 C6.448,51 6,50.552 6,50 C6,49.448 6.448,49 7,49 C7.552,49 8,49.448 8,50" id="Fill-245" fill="#000000" sketch:type="MSShapeGroup"></path>
                <path d="M11,41 C11,41.552 10.552,42 10,42 C9.448,42 9,41.552 9,41 C9,40.448 9.448,40 10,40 C10.552,40 11,40.448 11,41" id="Fill-246" fill="#000000" sketch:type="MSShapeGroup"></path>
                <path d="M17,41 C17,41.552 16.552,42 16,42 C15.448,42 15,41.552 15,41 C15,40.448 15.448,40 16,40 C16.552,40 17,40.448 17,41" id="Fill-247" fill="#000000" sketch:type="MSShapeGroup"></path>
                <path d="M11,47 C11,47.552 10.552,48 10,48 C9.448,48 9,47.552 9,47 C9,46.448 9.448,46 10,46 C10.552,46 11,46.448 11,47" id="Fill-248" fill="#000000" sketch:type="MSShapeGroup"></path>
                <path d="M17,47 C17,47.552 16.552,48 16,48 C15.448,48 15,47.552 15,47 C15,46.448 15.448,46 16,46 C16.552,46 17,46.448 17,47" id="Fill-249" fill="#000000" sketch:type="MSShapeGroup"></path>
                <path d="M14,44 C14,44.552 13.552,45 13,45 C12.448,45 12,44.552 12,44 C12,43.448 12.448,43 13,43 C13.552,43 14,43.448 14,44" id="Fill-250" fill="#000000" sketch:type="MSShapeGroup"></path>
                <path d="M20,44 C20,44.552 19.552,45 19,45 C18.448,45 18,44.552 18,44 C18,43.448 18.448,43 19,43 C19.552,43 20,43.448 20,44" id="Fill-251" fill="#000000" sketch:type="MSShapeGroup"></path>
                <path d="M14,50 C14,50.552 13.552,51 13,51 C12.448,51 12,50.552 12,50 C12,49.448 12.448,49 13,49 C13.552,49 14,49.448 14,50" id="Fill-252" fill="#000000" sketch:type="MSShapeGroup"></path>
                <path d="M20,50 C20,50.552 19.552,51 19,51 C18.448,51 18,50.552 18,50 C18,49.448 18.448,49 19,49 C19.552,49 20,49.448 20,50" id="Fill-253" fill="#000000" sketch:type="MSShapeGroup"></path>
                <path d="M23,41 C23,41.552 22.552,42 22,42 C21.448,42 21,41.552 21,41 C21,40.448 21.448,40 22,40 C22.552,40 23,40.448 23,41" id="Fill-254" fill="#000000" sketch:type="MSShapeGroup"></path>
                <path d="M29,41 C29,41.552 28.552,42 28,42 C27.448,42 27,41.552 27,41 C27,40.448 27.448,40 28,40 C28.552,40 29,40.448 29,41" id="Fill-255" fill="#000000" sketch:type="MSShapeGroup"></path>
                <path d="M23,47 C23,47.552 22.552,48 22,48 C21.448,48 21,47.552 21,47 C21,46.448 21.448,46 22,46 C22.552,46 23,46.448 23,47" id="Fill-256" fill="#000000" sketch:type="MSShapeGroup"></path>
                <path d="M29,47 C29,47.552 28.552,48 28,48 C27.448,48 27,47.552 27,47 C27,46.448 27.448,46 28,46 C28.552,46 29,46.448 29,47" id="Fill-257" fill="#000000" sketch:type="MSShapeGroup"></path>
                <path d="M26,44 C26,44.552 25.552,45 25,45 C24.448,45 24,44.552 24,44 C24,43.448 24.448,43 25,43 C25.552,43 26,43.448 26,44" id="Fill-258" fill="#000000" sketch:type="MSShapeGroup"></path>
                <path d="M26,50 C26,50.552 25.552,51 25,51 C24.448,51 24,50.552 24,50 C24,49.448 24.448,49 25,49 C25.552,49 26,49.448 26,50" id="Fill-259" fill="#000000" sketch:type="MSShapeGroup"></path>
                <path d="M5,53 C5,53.552 4.552,54 4,54 C3.448,54 3,53.552 3,53 C3,52.448 3.448,52 4,52 C4.552,52 5,52.448 5,53" id="Fill-260" fill="#000000" sketch:type="MSShapeGroup"></path>
                <path d="M2,56 C2,56.552 1.552,57 1,57 C0.448,57 0,56.552 0,56 C0,55.448 0.448,55 1,55 C1.552,55 2,55.448 2,56" id="Fill-261" fill="#000000" sketch:type="MSShapeGroup"></path>
                <path d="M8,56 C8,56.552 7.552,57 7,57 C6.448,57 6,56.552 6,56 C6,55.448 6.448,55 7,55 C7.552,55 8,55.448 8,56" id="Fill-262" fill="#000000" sketch:type="MSShapeGroup"></path>
                <path d="M11,53 C11,53.552 10.552,54 10,54 C9.448,54 9,53.552 9,53 C9,52.448 9.448,52 10,52 C10.552,52 11,52.448 11,53" id="Fill-263" fill="#000000" sketch:type="MSShapeGroup"></path>
                <path d="M17,53 C17,53.552 16.552,54 16,54 C15.448,54 15,53.552 15,53 C15,52.448 15.448,52 16,52 C16.552,52 17,52.448 17,53" id="Fill-264" fill="#000000" sketch:type="MSShapeGroup"></path>
                <path d="M14,56 C14,56.552 13.552,57 13,57 C12.448,57 12,56.552 12,56 C12,55.448 12.448,55 13,55 C13.552,55 14,55.448 14,56" id="Fill-265" fill="#000000" sketch:type="MSShapeGroup"></path>
                <path d="M20,56 C20,56.552 19.552,57 19,57 C18.448,57 18,56.552 18,56 C18,55.448 18.448,55 19,55 C19.552,55 20,55.448 20,56" id="Fill-266" fill="#000000" sketch:type="MSShapeGroup"></path>
                <path d="M23,53 C23,53.552 22.552,54 22,54 C21.448,54 21,53.552 21,53 C21,52.448 21.448,52 22,52 C22.552,52 23,52.448 23,53" id="Fill-267" fill="#000000" sketch:type="MSShapeGroup"></path>
                <path d="M29,53 C29,53.552 28.552,54 28,54 C27.448,54 27,53.552 27,53 C27,52.448 27.448,52 28,52 C28.552,52 29,52.448 29,53" id="Fill-268" fill="#000000" sketch:type="MSShapeGroup"></path>
                <path d="M26,56 C26,56.552 25.552,57 25,57 C24.448,57 24,56.552 24,56 C24,55.448 24.448,55 25,55 C25.552,55 26,55.448 26,56" id="Fill-269" fill="#000000" sketch:type="MSShapeGroup"></path>
            </g>
        </g>
    </g>
</svg>