<?xml version="1.0" encoding="UTF-8" standalone="no"?>
<svg width="60px" height="60px" viewBox="0 0 60 60" version="1.1" xmlns="http://www.w3.org/2000/svg" xmlns:xlink="http://www.w3.org/1999/xlink" xmlns:sketch="http://www.bohemiancoding.com/sketch/ns">
    <!-- Generator: Sketch 3.2.2 (9983) - http://www.bohemiancoding.com/sketch -->
    <title>200 - Share (Outline)</title>
    <desc>Created with Sketch.</desc>
    <defs></defs>
    <g id="Page-1" stroke="none" stroke-width="1" fill="none" fill-rule="evenodd" sketch:type="MSPage">
        <g id="Icons" sketch:type="MSArtboardGroup" transform="translate(-120.000000, -2517.000000)" stroke-linecap="round" stroke="#000000" stroke-width="2">
            <g id="200---Share-(Outline)" sketch:type="MSLayerGroup" transform="translate(121.000000, 2518.000000)">
                <path d="M58,29 C58,45.016 45.016,58 29,58 C12.984,58 0,45.016 0,29 C0,12.984 12.984,0 29,0 C45.016,0 58,12.984 58,29 L58,29 Z" id="Stroke-314" sketch:type="MSShapeGroup"></path>
                <path d="M20,28 C20,30.761 17.761,33 15,33 C12.239,33 10,30.761 10,28 C10,25.239 12.239,23 15,23 C17.761,23 20,25.239 20,28 L20,28 Z" id="Stroke-438" sketch:type="MSShapeGroup"></path>
                <path d="M38,18 C35.239,18 33,15.761 33,13 C33,10.239 35.239,8 38,8 C40.761,8 43,10.239 43,13 C43,15.761 40.761,18 38,18 L38,18 Z" id="Stroke-440" sketch:type="MSShapeGroup"></path>
                <path d="M38,48 C35.239,48 33,45.761 33,43 C33,40.239 35.239,38 38,38 C40.761,38 43,40.239 43,43 C43,45.761 40.761,48 38,48 L38,48 Z" id="Stroke-442" sketch:type="MSShapeGroup"></path>
                <path d="M18,32 L33,43" id="Stroke-444" sketch:type="MSShapeGroup"></path>
                <path d="M18,24 L33,13" id="Stroke-446" sketch:type="MSShapeGroup"></path>
            </g>
        </g>
    </g>
</svg>