<?xml version="1.0" encoding="UTF-8" standalone="no"?>
<svg width="47px" height="58px" viewBox="0 0 47 58" version="1.1" xmlns="http://www.w3.org/2000/svg" xmlns:xlink="http://www.w3.org/1999/xlink" xmlns:sketch="http://www.bohemiancoding.com/sketch/ns">
    <!-- Generator: Sketch 3.2.2 (9983) - http://www.bohemiancoding.com/sketch -->
    <title>303 - Location (Outline)</title>
    <desc>Created with Sketch.</desc>
    <defs></defs>
    <g id="Page-1" stroke="none" stroke-width="1" fill="none" fill-rule="evenodd" sketch:type="MSPage">
        <g id="Icons" sketch:type="MSArtboardGroup" transform="translate(-966.000000, -1198.000000)" stroke-linecap="round" stroke="#1A1718" stroke-width="2">
            <g id="303---Location-(Outline)" sketch:type="MSLayerGroup" transform="translate(967.000000, 1199.000000)">
                <path d="M28.97,19.208 C28.273,13.89 25.494,7 14.581,7 C3.668,7 0.888,13.89 0.191,19.208 C-0.191,22.122 0.023,25.084 0.63,27.96 C3.965,43.773 12.211,53.253 14.162,55.321 C14.391,55.563 14.77,55.563 14.999,55.321 C16.95,53.253 25.196,43.773 28.531,27.96 C29.138,25.084 29.352,22.122 28.97,19.208 L28.97,19.208 Z" id="Path" sketch:type="MSShapeGroup"></path>
                <path d="M23.018,20.562 C23.018,25.222 19.24,29 14.581,29 C9.921,29 6.143,25.222 6.143,20.562 C6.143,15.903 9.921,12.125 14.581,12.125 C19.24,12.125 23.018,15.903 23.018,20.562 L23.018,20.562 Z" id="Path" sketch:type="MSShapeGroup"></path>
                <path d="M24.422,40.883 C26.884,44.846 29.106,47.372 30.001,48.321 C30.229,48.563 30.609,48.563 30.838,48.321 C32.789,46.253 41.035,36.773 44.37,20.96 C44.977,18.084 45.191,15.122 44.809,12.208 C44.112,6.89 41.332,0 30.419,0 C22.647,0 18.707,3.067 17,7" id="Path" sketch:type="MSShapeGroup"></path>
                <path d="M30.562,5 C27.382,5 24.438,6.401 23,9 C26.963,11.452 28.513,15.97 28.97,19.46 C29.07,20.22 29.125,20.983 29.147,21.747 C29.608,21.825 30.079,21.875 30.562,21.875 C35.222,21.875 39,18.097 39,13.438 C39,8.778 35.222,5 30.562,5 L30.562,5 Z" id="Path" sketch:type="MSShapeGroup"></path>
            </g>
        </g>
    </g>
</svg>