<?xml version="1.0" encoding="UTF-8" standalone="no"?>
<svg width="50px" height="60px" viewBox="0 0 50 60" version="1.1" xmlns="http://www.w3.org/2000/svg" xmlns:xlink="http://www.w3.org/1999/xlink" xmlns:sketch="http://www.bohemiancoding.com/sketch/ns">
    <!-- Generator: Sketch 3.2.2 (9983) - http://www.bohemiancoding.com/sketch -->
    <title>148 - Time-Tracking (Outline)</title>
    <desc>Created with Sketch.</desc>
    <defs></defs>
    <g id="Page-1" stroke="none" stroke-width="1" fill="none" fill-rule="evenodd" sketch:type="MSPage">
        <g id="Icons" sketch:type="MSArtboardGroup" transform="translate(-365.000000, -3117.000000)">
            <g id="148---Time-Tracking-(Outline)" sketch:type="MSLayerGroup" transform="translate(366.000000, 3118.000000)">
                <path d="M25,25 C25,25.552 24.552,26 24,26 C23.448,26 23,25.552 23,25 C23,24.448 23.448,24 24,24 C24.552,24 25,24.448 25,25" id="Fill-521" fill="#000000" sketch:type="MSShapeGroup"></path>
                <path d="M28,23 C28,23.552 27.552,24 27,24 C26.448,24 26,23.552 26,23 C26,22.448 26.448,22 27,22 C27.552,22 28,22.448 28,23" id="Fill-522" fill="#000000" sketch:type="MSShapeGroup"></path>
                <path d="M22,23 C22,23.552 21.552,24 21,24 C20.448,24 20,23.552 20,23 C20,22.448 20.448,22 21,22 C21.552,22 22,22.448 22,23" id="Fill-523" fill="#000000" sketch:type="MSShapeGroup"></path>
                <path d="M19,21 C19,21.552 18.552,22 18,22 C17.448,22 17,21.552 17,21 C17,20.448 17.448,20 18,20 C18.552,20 19,20.448 19,21" id="Fill-524" fill="#000000" sketch:type="MSShapeGroup"></path>
                <path d="M31,21 C31,21.552 30.552,22 30,22 C29.448,22 29,21.552 29,21 C29,20.448 29.448,20 30,20 C30.552,20 31,20.448 31,21" id="Fill-525" fill="#000000" sketch:type="MSShapeGroup"></path>
                <path d="M34,19 C34,19.552 33.552,20 33,20 C32.448,20 32,19.552 32,19 C32,18.448 32.448,18 33,18 C33.552,18 34,18.448 34,19" id="Fill-526" fill="#000000" sketch:type="MSShapeGroup"></path>
                <path d="M16,19 C16,19.552 15.552,20 15,20 C14.448,20 14,19.552 14,19 C14,18.448 14.448,18 15,18 C15.552,18 16,18.448 16,19" id="Fill-527" fill="#000000" sketch:type="MSShapeGroup"></path>
                <path d="M25,21 C25,21.552 24.552,22 24,22 C23.448,22 23,21.552 23,21 C23,20.448 23.448,20 24,20 C24.552,20 25,20.448 25,21" id="Fill-528" fill="#000000" sketch:type="MSShapeGroup"></path>
                <path d="M25,33 C25,33.552 24.552,34 24,34 C23.448,34 23,33.552 23,33 C23,32.448 23.448,32 24,32 C24.552,32 25,32.448 25,33" id="Fill-540" fill="#000000" sketch:type="MSShapeGroup"></path>
                <path d="M25,36 C25,36.552 24.552,37 24,37 C23.448,37 23,36.552 23,36 C23,35.448 23.448,35 24,35 C24.552,35 25,35.448 25,36" id="Fill-541" fill="#000000" sketch:type="MSShapeGroup"></path>
                <path d="M25,39 C25,39.552 24.552,40 24,40 C23.448,40 23,39.552 23,39 C23,38.448 23.448,38 24,38 C24.552,38 25,38.448 25,39" id="Fill-542" fill="#000000" sketch:type="MSShapeGroup"></path>
                <path d="M25,42 C25,42.552 24.552,43 24,43 C23.448,43 23,42.552 23,42 C23,41.448 23.448,41 24,41 C24.552,41 25,41.448 25,42" id="Fill-543" fill="#000000" sketch:type="MSShapeGroup"></path>
                <path d="M25,45 C25,45.552 24.552,46 24,46 C23.448,46 23,45.552 23,45 C23,44.448 23.448,44 24,44 C24.552,44 25,44.448 25,45" id="Fill-544" fill="#000000" sketch:type="MSShapeGroup"></path>
                <path d="M25,48 C25,48.552 24.552,49 24,49 C23.448,49 23,48.552 23,48 C23,47.448 23.448,47 24,47 C24.552,47 25,47.448 25,48" id="Fill-545" fill="#000000" sketch:type="MSShapeGroup"></path>
                <path d="M4,54 L44,54 L44,58 L4,58 L4,54 Z" id="Path" stroke="#1A1718" stroke-width="2" stroke-linecap="round" stroke-linejoin="round" sketch:type="MSShapeGroup"></path>
                <path d="M12.143,36.904 L24,29 L35.857,36.904 C37.82,38.214 39,40.418 39,42.778 L39,54 L9,54 L9,42.778 C9,40.418 10.18,38.214 12.143,36.904 L12.143,36.904 Z" id="Path" stroke="#1A1718" stroke-width="2" stroke-linecap="round" stroke-linejoin="round" sketch:type="MSShapeGroup"></path>
                <path d="M0,58 L4,58 L0,58 Z" id="Path" stroke="#1A1718" stroke-width="2" stroke-linecap="round" stroke-linejoin="round" sketch:type="MSShapeGroup"></path>
                <path d="M44,58 L48,58 L44,58 Z" id="Path" stroke="#1A1718" stroke-width="2" stroke-linecap="round" stroke-linejoin="round" sketch:type="MSShapeGroup"></path>
                <path d="M4,4 L44,4 L44,0 L4,0 L4,4 Z" id="Path" stroke="#1A1718" stroke-width="2" stroke-linecap="round" stroke-linejoin="round" sketch:type="MSShapeGroup"></path>
                <path d="M12.143,21.096 L24,29 L35.857,21.096 C37.82,19.786 39,17.582 39,15.222 L39,4 L9,4 L9,15.222 C9,17.582 10.18,19.786 12.143,21.096 L12.143,21.096 Z" id="Path" stroke="#1A1718" stroke-width="2" stroke-linecap="round" stroke-linejoin="round" sketch:type="MSShapeGroup"></path>
                <path d="M0,0 L4,0 L0,0 Z" id="Path" stroke="#1A1718" stroke-width="2" stroke-linecap="round" stroke-linejoin="round" sketch:type="MSShapeGroup"></path>
                <path d="M44,0 L48,0 L44,0 Z" id="Path" stroke="#1A1718" stroke-width="2" stroke-linecap="round" stroke-linejoin="round" sketch:type="MSShapeGroup"></path>
            </g>
        </g>
    </g>
</svg>