<?xml version="1.0" encoding="UTF-8" standalone="no"?>
<svg width="53px" height="46px" viewBox="0 0 53 46" version="1.1" xmlns="http://www.w3.org/2000/svg" xmlns:xlink="http://www.w3.org/1999/xlink" xmlns:sketch="http://www.bohemiancoding.com/sketch/ns">
    <!-- Generator: Sketch 3.2.2 (9983) - http://www.bohemiancoding.com/sketch -->
    <title>234 - Medium Volume (Outline)</title>
    <desc>Created with Sketch.</desc>
    <defs></defs>
    <g id="Page-1" stroke="none" stroke-width="1" fill="none" fill-rule="evenodd" sketch:type="MSPage">
        <g id="Icons" sketch:type="MSArtboardGroup" transform="translate(-843.000000, -2045.000000)" stroke-linecap="round" stroke="#000000" stroke-width="2">
            <g id="234---Medium-Volume-(Outline)" sketch:type="MSLayerGroup" transform="translate(844.000000, 2045.000000)">
                <path d="M0,13 L0,32 L11,31.995 L24.83,44.699 C26.232,45.544 28,44.509 28,42.844 L28,3.156 C28,1.491 26.232,0.456 24.83,1.3 L11,13 L0,13 L0,13 Z" id="Stroke-544" stroke-linejoin="round" sketch:type="MSShapeGroup"></path>
                <path d="M11,13 L11,18" id="Stroke-546" sketch:type="MSShapeGroup"></path>
                <path d="M11,27 L11,32" id="Stroke-548" sketch:type="MSShapeGroup"></path>
                <path d="M37.501,40 C44.784,37.516 50.027,30.625 50.027,22.5 C50.027,14.367 44.771,7.478 37.476,5" id="Stroke-550" stroke-linejoin="round" sketch:type="MSShapeGroup"></path>
                <path d="M32,34.501 C37.212,32.994 41.027,28.197 41.027,22.5 C41.027,16.803 37.212,12.006 32,10.499" id="Stroke-552" stroke-linejoin="round" sketch:type="MSShapeGroup"></path>
            </g>
        </g>
    </g>
</svg>