<?xml version="1.0" encoding="UTF-8" standalone="no"?>
<svg width="58px" height="48px" viewBox="0 0 58 48" version="1.1" xmlns="http://www.w3.org/2000/svg" xmlns:xlink="http://www.w3.org/1999/xlink" xmlns:sketch="http://www.bohemiancoding.com/sketch/ns">
    <!-- Generator: Sketch 3.2.2 (9983) - http://www.bohemiancoding.com/sketch -->
    <title>191 - Receive (Outline)</title>
    <desc>Created with Sketch.</desc>
    <defs></defs>
    <g id="Page-1" stroke="none" stroke-width="1" fill="none" fill-rule="evenodd" sketch:type="MSPage">
        <g id="Icons" sketch:type="MSArtboardGroup" transform="translate(-1200.000000, -2523.000000)" stroke="#000000" stroke-width="2">
            <g id="191---Receive-(Outline)" sketch:type="MSLayerGroup" transform="translate(1201.000000, 2524.000000)">
                <path d="M28.119,9.033 L23,3.914 L23.046,20.93 L40.063,20.977 L34.944,15.858 C34.944,15.858 40.656,6.5 54.451,10.001 C54.451,10.001 49.134,2.117 38.602,3.082 C38.602,3.082 33.562,3.251 28.119,9.033 L28.119,9.033 Z" id="Stroke-482" sketch:type="MSShapeGroup"></path>
                <path d="M34.944,15.858 L40.063,20.976 L23.046,20.93 L23,3.914 L28.119,9.033 C33.562,3.251 38.602,3.082 38.602,3.082 C41.456,2.82 43.914,3.22 46,3.925 L46,0 L0,0 L0,46 L46,46 L46,9.385 C38.281,10.405 34.944,15.858 34.944,15.858 L34.944,15.858 Z" id="Stroke-484" sketch:type="MSShapeGroup"></path>
            </g>
        </g>
    </g>
</svg>