<?xml version="1.0" encoding="UTF-8" standalone="no"?>
<svg width="54px" height="55px" viewBox="0 0 54 55" version="1.1" xmlns="http://www.w3.org/2000/svg" xmlns:xlink="http://www.w3.org/1999/xlink" xmlns:sketch="http://www.bohemiancoding.com/sketch/ns">
    <!-- Generator: Sketch 3.2.2 (9983) - http://www.bohemiancoding.com/sketch -->
    <title>342 - Notification (Outline)</title>
    <desc>Created with Sketch.</desc>
    <defs></defs>
    <g id="Page-1" stroke="none" stroke-width="1" fill="none" fill-rule="evenodd" sketch:type="MSPage">
        <g id="Icons" sketch:type="MSArtboardGroup" transform="translate(-1086.000000, -718.000000)" stroke="#000000" stroke-width="2" stroke-linecap="round" stroke-linejoin="round">
            <g id="342---Notification-(Outline)" sketch:type="MSLayerGroup" transform="translate(1087.000000, 719.000000)">
                <path d="M52,9 C52,13.971 47.971,18 43,18 C38.029,18 34,13.971 34,9 C34,4.029 38.029,0 43,0 C47.971,0 52,4.029 52,9 L52,9 Z" id="Path" sketch:type="MSShapeGroup"></path>
                <path d="M43,18 C38.029,18 34,13.97 34,9 C34,8.312 34.084,7.644 34.231,7 L4.235,7 C1.896,7 0,8.896 0,11.235 L0,48.765 C0,51.104 1.896,53 4.235,53 L41.765,53 C44.104,53 46,51.104 46,48.765 L46,17.477 C45.06,17.81 44.054,18 43,18 L43,18 Z" id="Path" sketch:type="MSShapeGroup"></path>
            </g>
        </g>
    </g>
</svg>