<?xml version="1.0" encoding="UTF-8" standalone="no"?>
<svg width="46px" height="60px" viewBox="0 0 46 60" version="1.1" xmlns="http://www.w3.org/2000/svg" xmlns:xlink="http://www.w3.org/1999/xlink" xmlns:sketch="http://www.bohemiancoding.com/sketch/ns">
    <!-- Generator: Sketch 3.2.2 (9983) - http://www.bohemiancoding.com/sketch -->
    <title>298 - User (Outline)</title>
    <desc>Created with Sketch.</desc>
    <defs></defs>
    <g id="Page-1" stroke="none" stroke-width="1" fill="none" fill-rule="evenodd" sketch:type="MSPage">
        <g id="298---User-(Outline)" sketch:type="MSLayerGroup" transform="translate(0.000000, 1.000000)" stroke="#000000" stroke-width="2" stroke-linecap="round">
            <path d="M45,49.957 C45,46.919 43.283,44.142 40.566,42.783 L31.014,38.007 C29.78,37.39 29,36.128 29,34.748 L29,31 C29.268,30.695 29.576,30.302 29.904,29.838 C31.205,28 32.19,25.977 32.873,23.854 C34.097,23.477 35,22.345 35,21 L35,17 C35,16.12 34.609,15.333 34,14.783 L34,9 C34,9 35.187,0 23,0 C10.812,0 12,9 12,9 L12,14.783 C11.391,15.333 11,16.12 11,17 L11,21 C11,22.054 11.554,22.981 12.383,23.517 C13.382,27.869 16,31 16,31 L16,34.655 C16,35.988 15.272,37.215 14.101,37.854 L5.18,42.72 C2.603,44.125 1,46.826 1,49.761 L1,52 L1,53 C1,55.761 10.85,58 23,58 C35.15,58 45,55.761 45,53 L45,52 L45,49.957 L45,49.957 Z" id="Path" sketch:type="MSShapeGroup"></path>
        </g>
    </g>
</svg>