<?xml version="1.0" encoding="UTF-8" standalone="no"?>
<svg width="60px" height="60px" viewBox="0 0 60 60" version="1.1" xmlns="http://www.w3.org/2000/svg" xmlns:xlink="http://www.w3.org/1999/xlink" xmlns:sketch="http://www.bohemiancoding.com/sketch/ns">
    <!-- Generator: Sketch 3.2.2 (9983) - http://www.bohemiancoding.com/sketch -->
    <title>91 - Settings (Outline)</title>
    <desc>Created with Sketch.</desc>
    <defs></defs>
    <g id="Page-1" stroke="none" stroke-width="1" fill="none" fill-rule="evenodd" sketch:type="MSPage">
        <g id="Icons" sketch:type="MSArtboardGroup" transform="translate(-1200.000000, -3717.000000)" stroke="#000000" stroke-width="2" stroke-linecap="round" stroke-linejoin="round">
            <g id="91---Settings-(Outline)" sketch:type="MSLayerGroup" transform="translate(1201.000000, 3718.000000)">
                <path d="M16.5,7.349 C28.457,0.446 43.747,4.542 50.651,16.5 C57.554,28.457 53.457,43.747 41.5,50.65 C29.543,57.554 14.253,53.457 7.349,41.5 C0.446,29.543 4.543,14.253 16.5,7.349 L16.5,7.349 Z" id="Path" sketch:type="MSShapeGroup"></path>
                <path d="M22.53,4.852 L21.494,0.988 L22.53,4.852 Z" id="Path" sketch:type="MSShapeGroup"></path>
                <path d="M36.506,57.011 L35.47,53.148 L36.506,57.011 Z" id="Path" sketch:type="MSShapeGroup"></path>
                <path d="M54,29 L58,29 L54,29 Z" id="Path" sketch:type="MSShapeGroup"></path>
                <path d="M0,29 L4,29 L0,29 Z" id="Path" sketch:type="MSShapeGroup"></path>
                <path d="M46.678,46.677 L49.506,49.506 L46.678,46.677 Z" id="Path" sketch:type="MSShapeGroup"></path>
                <path d="M8.494,8.494 L11.322,11.322 L8.494,8.494 Z" id="Path" sketch:type="MSShapeGroup"></path>
                <path d="M46.678,11.322 L49.506,8.494 L46.678,11.322 Z" id="Path" sketch:type="MSShapeGroup"></path>
                <path d="M8.494,49.506 L11.322,46.677 L8.494,49.506 Z" id="Path" sketch:type="MSShapeGroup"></path>
                <path d="M16.5,7.349 L14.5,3.885 L16.5,7.349 Z" id="Path" sketch:type="MSShapeGroup"></path>
                <path d="M43.5,54.115 L41.5,50.65 L43.5,54.115 Z" id="Path" sketch:type="MSShapeGroup"></path>
                <path d="M29,54 L29,58 L29,54 Z" id="Path" sketch:type="MSShapeGroup"></path>
                <path d="M29,0 L29,4 L29,0 Z" id="Path" sketch:type="MSShapeGroup"></path>
                <path d="M7.349,16.5 L3.885,14.5 L7.349,16.5 Z" id="Path" sketch:type="MSShapeGroup"></path>
                <path d="M54.115,43.5 L50.651,41.5 L54.115,43.5 Z" id="Path" sketch:type="MSShapeGroup"></path>
                <path d="M4.852,22.529 L0.988,21.494 L4.852,22.529 Z" id="Path" sketch:type="MSShapeGroup"></path>
                <path d="M57.012,36.506 L53.148,35.47 L57.012,36.506 Z" id="Path" sketch:type="MSShapeGroup"></path>
                <path d="M4.852,35.47 L0.988,36.506 L4.852,35.47 Z" id="Path" sketch:type="MSShapeGroup"></path>
                <path d="M57.012,21.494 L53.148,22.529 L57.012,21.494 Z" id="Path" sketch:type="MSShapeGroup"></path>
                <path d="M7.349,41.5 L3.885,43.5 L7.349,41.5 Z" id="Path" sketch:type="MSShapeGroup"></path>
                <path d="M54.115,14.5 L50.651,16.5 L54.115,14.5 Z" id="Path" sketch:type="MSShapeGroup"></path>
                <path d="M41.5,7.349 L43.5,3.885 L41.5,7.349 Z" id="Path" sketch:type="MSShapeGroup"></path>
                <path d="M14.5,54.115 L16.5,50.65 L14.5,54.115 Z" id="Path" sketch:type="MSShapeGroup"></path>
                <path d="M35.47,4.852 L36.506,0.988 L35.47,4.852 Z" id="Path" sketch:type="MSShapeGroup"></path>
                <path d="M21.494,57.011 L22.53,53.148 L21.494,57.011 Z" id="Path" sketch:type="MSShapeGroup"></path>
                <path d="M29,4 L29,19 L29,4 Z" id="Path" sketch:type="MSShapeGroup"></path>
                <path d="M7.349,41.5 L20.341,33.999 L7.349,41.5 Z" id="Path" sketch:type="MSShapeGroup"></path>
                <path d="M50.651,41.5 L37.66,33.999 L50.651,41.5 Z" id="Path" sketch:type="MSShapeGroup"></path>
                <path d="M24.001,20.341 C28.783,17.58 34.898,19.219 37.659,24 C40.42,28.783 38.781,34.898 33.999,37.658 C29.217,40.42 23.102,38.781 20.341,33.999 C17.58,29.217 19.219,23.102 24.001,20.341 L24.001,20.341 Z" id="Path" sketch:type="MSShapeGroup"></path>
                <path d="M26.5,24.671 C28.892,23.29 31.949,24.109 33.329,26.5 C34.71,28.891 33.891,31.949 31.5,33.329 C29.109,34.71 26.051,33.89 24.671,31.499 C23.29,29.108 24.109,26.051 26.5,24.671 L26.5,24.671 Z" id="Path" sketch:type="MSShapeGroup"></path>
            </g>
        </g>
    </g>
</svg>