<?xml version="1.0" encoding="UTF-8" standalone="no"?>
<svg width="60px" height="60px" viewBox="0 0 60 60" version="1.1" xmlns="http://www.w3.org/2000/svg" xmlns:xlink="http://www.w3.org/1999/xlink" xmlns:sketch="http://www.bohemiancoding.com/sketch/ns">
    <!-- Generator: Sketch 3.2.2 (9983) - http://www.bohemiancoding.com/sketch -->
    <title>240 - Low Volume (Outline)</title>
    <desc>Created with Sketch.</desc>
    <defs></defs>
    <g id="Page-1" stroke="none" stroke-width="1" fill="none" fill-rule="evenodd" sketch:type="MSPage">
        <g id="Icons" sketch:type="MSArtboardGroup" transform="translate(-120.000000, -2037.000000)" stroke-linecap="round" stroke-width="2">
            <g id="240---Low-Volume-(Outline)" sketch:type="MSLayerGroup" transform="translate(121.000000, 2038.000000)">
                <path d="M18.427,20 L10.104,20 C8.942,20 8,20.942 8,22.104 L8,34.896 C8,36.058 8.942,37 10.104,37 L18.427,37 C18.802,37 19.17,37.1 19.494,37.291 L32.83,49.706 C34.232,50.531 36,49.52 36,47.893 L36,9.107 C36,7.48 34.232,6.469 32.83,7.294 L19.494,19.709 C19.17,19.9 18.802,20 18.427,20 L18.427,20 Z" id="Stroke-140" stroke="#1A1718" stroke-linejoin="round" sketch:type="MSShapeGroup"></path>
                <path d="M40,37 C44.698,32.302 44.698,24.698 40,20" id="Stroke-142" stroke="#1A1718" stroke-linejoin="round" sketch:type="MSShapeGroup"></path>
                <path d="M58,29 C58,45.016 45.016,58 29,58 C12.984,58 0,45.016 0,29 C0,12.984 12.984,0 29,0 C45.016,0 58,12.984 58,29 L58,29 Z" id="Stroke-312" stroke="#000000" sketch:type="MSShapeGroup"></path>
            </g>
        </g>
    </g>
</svg>