<?xml version="1.0" encoding="UTF-8" standalone="no"?>
<svg width="60px" height="56px" viewBox="0 0 60 56" version="1.1" xmlns="http://www.w3.org/2000/svg" xmlns:xlink="http://www.w3.org/1999/xlink" xmlns:sketch="http://www.bohemiancoding.com/sketch/ns">
    <!-- Generator: Sketch 3.2.2 (9983) - http://www.bohemiancoding.com/sketch -->
    <title>62 - Important Archive (Outline)</title>
    <desc>Created with Sketch.</desc>
    <defs></defs>
    <g id="Page-1" stroke="none" stroke-width="1" fill="none" fill-rule="evenodd" sketch:type="MSPage">
        <g id="Icons" sketch:type="MSArtboardGroup" transform="translate(-1080.000000, -4079.000000)" stroke="#000000" stroke-width="2" stroke-linejoin="round">
            <g id="62---Important-Archive-(Outline)" sketch:type="MSLayerGroup" transform="translate(1081.000000, 4080.000000)">
                <path d="M52.767,54 L5.233,54 C5.099,54 4.985,53.902 4.965,53.769 L0.047,21.311 C0.023,21.148 0.149,21 0.315,21 L57.685,21 C57.851,21 57.978,21.148 57.953,21.311 L53.035,53.769 C53.015,53.902 52.901,54 52.767,54 L52.767,54 Z" id="Path" sketch:type="MSShapeGroup"></path>
                <path d="M54.044,21 L54.044,5.767 C54.044,5.344 53.701,5 53.276,5 L22.479,5 C22.209,5 21.959,4.858 21.821,4.627 L19.268,0.373 C19.129,0.142 18.879,0 18.609,0 L4.812,0 C4.388,0 4.044,0.344 4.044,0.767 L4.044,21 L54.044,21 L54.044,21 Z" id="Path" sketch:type="MSShapeGroup"></path>
                <path d="M7.044,17 L51.044,17 L51.044,21 L7.044,21 L7.044,17 Z" id="Path" sketch:type="MSShapeGroup"></path>
                <path d="M8.044,14 L50.044,14 L50.044,17 L8.044,17 L8.044,14 Z" id="Path" sketch:type="MSShapeGroup"></path>
                <path d="M9.044,11 L49.044,11 L49.044,14 L9.044,14 L9.044,11 Z" id="Path" sketch:type="MSShapeGroup"></path>
                <path d="M53.758,49 L55.576,37 L2.424,37 L4.243,49 L53.758,49 L53.758,49 Z" id="Path" sketch:type="MSShapeGroup"></path>
                <path d="M9.956,37 L3.415,43.54 L9.956,37 Z" id="Path" sketch:type="MSShapeGroup"></path>
                <path d="M16.956,37 L4.956,49 L16.956,37 Z" id="Path" sketch:type="MSShapeGroup"></path>
                <path d="M24.956,37 L12.956,49 L24.956,37 Z" id="Path" sketch:type="MSShapeGroup"></path>
                <path d="M32.956,37 L20.956,49 L32.956,37 Z" id="Path" sketch:type="MSShapeGroup"></path>
                <path d="M40.956,37 L28.956,49 L40.956,37 Z" id="Path" sketch:type="MSShapeGroup"></path>
                <path d="M48.956,37 L36.956,49 L48.956,37 Z" id="Path" sketch:type="MSShapeGroup"></path>
                <path d="M55.329,38.626 L44.956,49 L55.329,38.626 Z" id="Path" sketch:type="MSShapeGroup"></path>
            </g>
        </g>
    </g>
</svg>