<?xml version="1.0" encoding="UTF-8" standalone="no"?>
<svg width="52px" height="60px" viewBox="0 0 52 60" version="1.1" xmlns="http://www.w3.org/2000/svg" xmlns:xlink="http://www.w3.org/1999/xlink" xmlns:sketch="http://www.bohemiancoding.com/sketch/ns">
    <!-- Generator: Sketch 3.2.2 (9983) - http://www.bohemiancoding.com/sketch -->
    <title>10 - Phone Message (Outline)</title>
    <desc>Created with Sketch.</desc>
    <defs></defs>
    <g id="Page-1" stroke="none" stroke-width="1" fill="none" fill-rule="evenodd" sketch:type="MSPage">
        <g id="Icons" sketch:type="MSArtboardGroup" transform="translate(-126.000000, -4797.000000)" stroke="#000000" stroke-width="2" stroke-linecap="round" stroke-linejoin="round">
            <g id="10---Phone-Message-(Outline)" sketch:type="MSLayerGroup" transform="translate(127.000000, 4798.000000)">
                <path d="M18,52 C18,53.657 16.657,55 15,55 C13.343,55 12,53.657 12,52 C12,50.343 13.343,49 15,49 C16.657,49 18,50.343 18,52 L18,52 Z" id="Path" sketch:type="MSShapeGroup"></path>
                <path d="M0,46 L32,46 L0,46 Z" id="Path" sketch:type="MSShapeGroup"></path>
                <path d="M0,6 L32,6 L0,6 Z" id="Path" sketch:type="MSShapeGroup"></path>
                <path d="M12,3 L16,3 L12,3 Z" id="Path" sketch:type="MSShapeGroup"></path>
                <path d="M19,3 L20,3 L19,3 Z" id="Path" sketch:type="MSShapeGroup"></path>
                <path d="M50,12 L14,12 L14,31 L18,31 L18,37 L26,31 L50,31 L50,12 L50,12 Z" id="Path" sketch:type="MSShapeGroup"></path>
                <path d="M26,31 L18,37 L18,31 L14,31 L14,12 L32,12 L32,3.405 C32,1.524 30.475,0 28.594,0 L3.405,0 C1.525,0 0,1.524 0,3.405 L0,54.595 C0,56.475 1.525,58 3.405,58 L28.594,58 C30.475,58 32,56.475 32,54.595 L32,31 L26,31 L26,31 Z" id="Path" sketch:type="MSShapeGroup"></path>
                <path d="M20,19 L30,19 L20,19 Z" id="Path" sketch:type="MSShapeGroup"></path>
                <path d="M20,24 L44,24 L20,24 Z" id="Path" sketch:type="MSShapeGroup"></path>
            </g>
        </g>
    </g>
</svg>