<?xml version="1.0" encoding="UTF-8" standalone="no"?>
<svg width="59px" height="49px" viewBox="0 0 59 49" version="1.1" xmlns="http://www.w3.org/2000/svg" xmlns:xlink="http://www.w3.org/1999/xlink" xmlns:sketch="http://www.bohemiancoding.com/sketch/ns">
    <!-- Generator: Sketch 3.2.2 (9983) - http://www.bohemiancoding.com/sketch -->
    <title>369 - Hide (Outline)</title>
    <desc>Created with Sketch.</desc>
    <defs></defs>
    <g id="Page-1" stroke="none" stroke-width="1" fill="none" fill-rule="evenodd" sketch:type="MSPage">
        <g id="Icons" sketch:type="MSArtboardGroup" transform="translate(-239.000000, -483.000000)" stroke="#000000" stroke-width="2" stroke-linecap="round" stroke-linejoin="round">
            <g id="369---Hide-(Outline)" sketch:type="MSLayerGroup" transform="translate(240.000000, 484.000000)">
                <path d="M11.175,34.834 C10.348,34.175 9.55,33.464 8.785,32.699 L0.68,24.594 L9.016,16.257 C16.824,8.45 28.079,6.192 37.881,9.482" id="Path" sketch:type="MSShapeGroup"></path>
                <path d="M44.552,12.765 C46.05,13.77 47.472,14.934 48.796,16.257 L56.901,24.363 L48.565,32.699 C40.616,40.648 29.093,42.845 19.169,39.289" id="Path" sketch:type="MSShapeGroup"></path>
                <path d="M40.199,17.554 C41.53,19.541 42.305,21.93 42.305,24.5 C42.305,31.404 36.709,37 29.805,37 C27.383,37 25.122,36.311 23.207,35.119" id="Path" sketch:type="MSShapeGroup"></path>
                <path d="M18.578,30.001 C17.763,28.341 17.305,26.474 17.305,24.5 C17.305,17.596 22.902,12 29.805,12 C32.13,12 34.306,12.634 36.17,13.739" id="Path" sketch:type="MSShapeGroup"></path>
                <path d="M6.68,47 L53.18,0.5 L6.68,47 Z" id="Path" sketch:type="MSShapeGroup"></path>
            </g>
        </g>
    </g>
</svg>