<?xml version="1.0" encoding="UTF-8" standalone="no"?>
<svg width="54px" height="60px" viewBox="0 0 54 60" version="1.1" xmlns="http://www.w3.org/2000/svg" xmlns:xlink="http://www.w3.org/1999/xlink" xmlns:sketch="http://www.bohemiancoding.com/sketch/ns">
    <!-- Generator: Sketch 3.2.2 (9983) - http://www.bohemiancoding.com/sketch -->
    <title>320 - Lock Orientation (Outline)</title>
    <desc>Created with Sketch.</desc>
    <defs></defs>
    <g id="Page-1" stroke="none" stroke-width="1" fill="none" fill-rule="evenodd" sketch:type="MSPage">
        <g id="320---Lock-Orientation-(Outline)" sketch:type="MSLayerGroup" transform="translate(1.000000, 1.000000)" stroke="#1A1718" stroke-width="2" stroke-linecap="round">
            <path d="M16,21 L36,21 L36,38 L16,38 L16,21 Z M31,21 L21,21 L21,15 C21,12.239 23.239,10 26,10 C28.761,10 31,12.239 31,15 L31,21 L31,21 Z M29,28 C29,29.657 27.657,31 26,31 C24.343,31 23,29.657 23,28 C23,26.343 24.343,25 26,25 C27.657,25 29,26.343 29,28 L29,28 Z M26,31 L26,34 L26,31 Z" id="Stroke-154" sketch:type="MSShapeGroup"></path>
            <path d="M26,52 C11.641,52 0,40.359 0,26 C0,11.641 11.641,0 26,0 C40.359,0 52,11.641 52,26 C52,33.135 49.126,39.599 44.472,44.297 M26,52 L20,58 M26,52 L20,46" id="Stroke-155" stroke-linejoin="round" sketch:type="MSShapeGroup"></path>
        </g>
    </g>
</svg>