<?xml version="1.0" encoding="UTF-8" standalone="no"?>
<svg width="57px" height="60px" viewBox="0 0 57 60" version="1.1" xmlns="http://www.w3.org/2000/svg" xmlns:xlink="http://www.w3.org/1999/xlink" xmlns:sketch="http://www.bohemiancoding.com/sketch/ns">
    <!-- Generator: Sketch 3.2.2 (9983) - http://www.bohemiancoding.com/sketch -->
    <title>7 - Presentation (Outline)</title>
    <desc>Created with Sketch.</desc>
    <defs></defs>
    <g id="Page-1" stroke="none" stroke-width="1" fill="none" fill-rule="evenodd" sketch:type="MSPage">
        <g id="Icons" sketch:type="MSArtboardGroup" transform="translate(-482.000000, -4797.000000)" stroke="#000000" stroke-width="2" stroke-linecap="round" stroke-linejoin="round">
            <g id="7---Presentation-(Outline)" sketch:type="MSLayerGroup" transform="translate(483.000000, 4798.000000)">
                <path d="M55,44 L0,44 L6,8 L49,8 L55,44 L55,44 Z M55,44 L0,44 L1.414,37 L53.586,37 L55,44 L55,44 Z M24,55 L31,55 L31,44 L24,44 L24,55 Z M14,16 L14,5 C14,2.25 16.25,0 19,0 C21.75,0 24,2.25 24,5 M21,55 L34,55 L34,58 L21,58 L21,55 Z" id="Stroke-44" sketch:type="MSShapeGroup"></path>
            </g>
        </g>
    </g>
</svg>