<?xml version="1.0" encoding="UTF-8" standalone="no"?>
<svg width="54px" height="49px" viewBox="0 0 54 49" version="1.1" xmlns="http://www.w3.org/2000/svg" xmlns:xlink="http://www.w3.org/1999/xlink" xmlns:sketch="http://www.bohemiancoding.com/sketch/ns">
    <!-- Generator: Sketch 3.2.2 (9983) - http://www.bohemiancoding.com/sketch -->
    <title>196 - Search (Outline)</title>
    <desc>Created with Sketch.</desc>
    <defs></defs>
    <g id="Page-1" stroke="none" stroke-width="1" fill="none" fill-rule="evenodd" sketch:type="MSPage">
        <g id="Icons" sketch:type="MSArtboardGroup" transform="translate(-603.000000, -2522.000000)" stroke-linecap="round" stroke="#000000" stroke-width="2">
            <g id="196---Search-(Outline)" sketch:type="MSLayerGroup" transform="translate(604.000000, 2523.000000)">
                <path d="M22,36 C22,42.075 17.075,47 11,47 C4.925,47 0,42.075 0,36 C0,29.925 4.925,25 11,25 C17.075,25 22,29.925 22,36 L22,36 Z" id="Stroke-722" sketch:type="MSShapeGroup"></path>
                <path d="M22,36.44 L22,36 C22,36.149 21.984,36.293 21.978,36.44 L22,36.44 L22,36.44 Z" id="Stroke-724" stroke-linejoin="round" sketch:type="MSShapeGroup"></path>
                <path d="M14.264,0.367 C10.921,0.518 8.148,3.032 7.355,6.283 L1.425,30.596 C3.314,27.257 6.891,25 11,25 C17.075,25 22,29.925 22,36 L22,7.753 C22,3.556 18.503,0.176 14.264,0.367 L14.264,0.367 Z" id="Stroke-726" stroke-linejoin="round" sketch:type="MSShapeGroup"></path>
                <path d="M22,13 L30,13 L30,26 L22,26 L22,13 Z" id="Stroke-728" stroke-linejoin="round" sketch:type="MSShapeGroup"></path>
                <path d="M30,36 C30,42.075 34.925,47 41,47 C47.075,47 52,42.075 52,36 C52,29.925 47.075,25 41,25 C34.925,25 30,29.925 30,36 L30,36 Z" id="Stroke-730" sketch:type="MSShapeGroup"></path>
                <path d="M30,36.44 L30,36 C30,36.149 30.016,36.293 30.022,36.44 L30,36.44 L30,36.44 Z" id="Stroke-732" stroke-linejoin="round" sketch:type="MSShapeGroup"></path>
                <path d="M37.736,0.367 C41.078,0.518 43.852,3.032 44.645,6.283 L50.575,30.596 C48.686,27.257 45.109,25 41,25 C34.925,25 30,29.925 30,36 L30,7.753 C30,3.556 33.497,0.176 37.736,0.367 L37.736,0.367 Z" id="Stroke-734" stroke-linejoin="round" sketch:type="MSShapeGroup"></path>
            </g>
        </g>
    </g>
</svg>