<?xml version="1.0" encoding="UTF-8" standalone="no"?>
<svg width="41px" height="60px" viewBox="0 0 41 60" version="1.1" xmlns="http://www.w3.org/2000/svg" xmlns:xlink="http://www.w3.org/1999/xlink" xmlns:sketch="http://www.bohemiancoding.com/sketch/ns">
    <!-- Generator: Sketch 3.2.2 (9983) - http://www.bohemiancoding.com/sketch -->
    <title>349 - Trash Bin (Outline)</title>
    <desc>Created with Sketch.</desc>
    <defs></defs>
    <g id="Page-1" stroke="none" stroke-width="1" fill="none" fill-rule="evenodd" sketch:type="MSPage">
        <g id="Icons" sketch:type="MSArtboardGroup" transform="translate(-251.000000, -717.000000)">
            <g id="349---Trash-Bin-(Outline)" sketch:type="MSLayerGroup" transform="translate(252.000000, 718.000000)">
                <path d="M33.27,58 L4.729,58 C3.222,58 2,56.778 2,55.271 L2,19 L36,19 L36,55.271 C36,56.778 34.778,58 33.27,58 L33.27,58 Z" id="Path" stroke="#000000" stroke-width="2" stroke-linecap="round" stroke-linejoin="round" sketch:type="MSShapeGroup"></path>
                <path d="M38.496,15.104 L0.865,9.815 L1.345,6.406 C1.541,5.007 2.834,4.033 4.232,4.229 L36.799,8.806 C38.197,9.003 39.171,10.296 38.975,11.694 L38.496,15.104 L38.496,15.104 Z" id="Path" stroke="#000000" stroke-width="2" stroke-linecap="round" stroke-linejoin="round" sketch:type="MSShapeGroup"></path>
                <path d="M14.574,5.683 L15.131,1.722 C15.284,0.632 16.3,-0.134 17.389,0.02 L25.312,1.133 C26.401,1.286 27.167,2.302 27.014,3.392 L26.457,7.353 L14.574,5.683 L14.574,5.683 Z" id="Path" stroke="#000000" stroke-width="2" stroke-linecap="round" stroke-linejoin="round" sketch:type="MSShapeGroup"></path>
                <path d="M3.029,19 L13.657,19 L14,18.657 L8.343,13 L2.942,18.401 C2.801,18.543 2.801,18.771 2.942,18.912 L3.029,19 L3.029,19 Z" id="Path" stroke="#000000" stroke-width="2" stroke-linecap="round" stroke-linejoin="round" sketch:type="MSShapeGroup"></path>
                <path d="M15,19 L23,19 L23,16 L15,16 L15,19 Z" id="Path" stroke="#000000" stroke-width="2" stroke-linecap="round" stroke-linejoin="round" sketch:type="MSShapeGroup"></path>
                <path d="M26,16 L31,16 L31,19 L26,19 L26,16 Z" id="Path" stroke="#000000" stroke-width="2" stroke-linecap="round" stroke-linejoin="round" sketch:type="MSShapeGroup"></path>
                <path d="M8,27 C8,27.552 7.552,28 7,28 C6.448,28 6,27.552 6,27 C6,26.448 6.448,26 7,26 C7.552,26 8,26.448 8,27" id="Fill-321" fill="#000000" sketch:type="MSShapeGroup"></path>
                <path d="M8,33 C8,33.552 7.552,34 7,34 C6.448,34 6,33.552 6,33 C6,32.448 6.448,32 7,32 C7.552,32 8,32.448 8,33" id="Fill-322" fill="#000000" sketch:type="MSShapeGroup"></path>
                <path d="M11,24 C11,24.552 10.552,25 10,25 C9.448,25 9,24.552 9,24 C9,23.448 9.448,23 10,23 C10.552,23 11,23.448 11,24" id="Fill-323" fill="#000000" sketch:type="MSShapeGroup"></path>
                <path d="M17,24 C17,24.552 16.552,25 16,25 C15.448,25 15,24.552 15,24 C15,23.448 15.448,23 16,23 C16.552,23 17,23.448 17,24" id="Fill-324" fill="#000000" sketch:type="MSShapeGroup"></path>
                <path d="M11,30 C11,30.552 10.552,31 10,31 C9.448,31 9,30.552 9,30 C9,29.448 9.448,29 10,29 C10.552,29 11,29.448 11,30" id="Fill-325" fill="#000000" sketch:type="MSShapeGroup"></path>
                <path d="M17,30 C17,30.552 16.552,31 16,31 C15.448,31 15,30.552 15,30 C15,29.448 15.448,29 16,29 C16.552,29 17,29.448 17,30" id="Fill-326" fill="#000000" sketch:type="MSShapeGroup"></path>
                <path d="M14,27 C14,27.552 13.552,28 13,28 C12.448,28 12,27.552 12,27 C12,26.448 12.448,26 13,26 C13.552,26 14,26.448 14,27" id="Fill-327" fill="#000000" sketch:type="MSShapeGroup"></path>
                <path d="M20,27 C20,27.552 19.552,28 19,28 C18.448,28 18,27.552 18,27 C18,26.448 18.448,26 19,26 C19.552,26 20,26.448 20,27" id="Fill-328" fill="#000000" sketch:type="MSShapeGroup"></path>
                <path d="M14,33 C14,33.552 13.552,34 13,34 C12.448,34 12,33.552 12,33 C12,32.448 12.448,32 13,32 C13.552,32 14,32.448 14,33" id="Fill-329" fill="#000000" sketch:type="MSShapeGroup"></path>
                <path d="M20,33 C20,33.552 19.552,34 19,34 C18.448,34 18,33.552 18,33 C18,32.448 18.448,32 19,32 C19.552,32 20,32.448 20,33" id="Fill-330" fill="#000000" sketch:type="MSShapeGroup"></path>
                <path d="M23,24 C23,24.552 22.552,25 22,25 C21.448,25 21,24.552 21,24 C21,23.448 21.448,23 22,23 C22.552,23 23,23.448 23,24" id="Fill-331" fill="#000000" sketch:type="MSShapeGroup"></path>
                <path d="M29,24 C29,24.552 28.552,25 28,25 C27.448,25 27,24.552 27,24 C27,23.448 27.448,23 28,23 C28.552,23 29,23.448 29,24" id="Fill-332" fill="#000000" sketch:type="MSShapeGroup"></path>
                <path d="M23,30 C23,30.552 22.552,31 22,31 C21.448,31 21,30.552 21,30 C21,29.448 21.448,29 22,29 C22.552,29 23,29.448 23,30" id="Fill-333" fill="#000000" sketch:type="MSShapeGroup"></path>
                <path d="M29,30 C29,30.552 28.552,31 28,31 C27.448,31 27,30.552 27,30 C27,29.448 27.448,29 28,29 C28.552,29 29,29.448 29,30" id="Fill-334" fill="#000000" sketch:type="MSShapeGroup"></path>
                <path d="M26,27 C26,27.552 25.552,28 25,28 C24.448,28 24,27.552 24,27 C24,26.448 24.448,26 25,26 C25.552,26 26,26.448 26,27" id="Fill-335" fill="#000000" sketch:type="MSShapeGroup"></path>
                <path d="M32,27 C32,27.552 31.552,28 31,28 C30.448,28 30,27.552 30,27 C30,26.448 30.448,26 31,26 C31.552,26 32,26.448 32,27" id="Fill-336" fill="#000000" sketch:type="MSShapeGroup"></path>
                <path d="M26,33 C26,33.552 25.552,34 25,34 C24.448,34 24,33.552 24,33 C24,32.448 24.448,32 25,32 C25.552,32 26,32.448 26,33" id="Fill-337" fill="#000000" sketch:type="MSShapeGroup"></path>
                <path d="M32,33 C32,33.552 31.552,34 31,34 C30.448,34 30,33.552 30,33 C30,32.448 30.448,32 31,32 C31.552,32 32,32.448 32,33" id="Fill-338" fill="#000000" sketch:type="MSShapeGroup"></path>
                <path d="M8,39 C8,39.552 7.552,40 7,40 C6.448,40 6,39.552 6,39 C6,38.448 6.448,38 7,38 C7.552,38 8,38.448 8,39" id="Fill-339" fill="#000000" sketch:type="MSShapeGroup"></path>
                <path d="M8,45 C8,45.552 7.552,46 7,46 C6.448,46 6,45.552 6,45 C6,44.448 6.448,44 7,44 C7.552,44 8,44.448 8,45" id="Fill-340" fill="#000000" sketch:type="MSShapeGroup"></path>
                <path d="M11,36 C11,36.552 10.552,37 10,37 C9.448,37 9,36.552 9,36 C9,35.448 9.448,35 10,35 C10.552,35 11,35.448 11,36" id="Fill-341" fill="#000000" sketch:type="MSShapeGroup"></path>
                <path d="M17,36 C17,36.552 16.552,37 16,37 C15.448,37 15,36.552 15,36 C15,35.448 15.448,35 16,35 C16.552,35 17,35.448 17,36" id="Fill-342" fill="#000000" sketch:type="MSShapeGroup"></path>
                <path d="M11,42 C11,42.552 10.552,43 10,43 C9.448,43 9,42.552 9,42 C9,41.448 9.448,41 10,41 C10.552,41 11,41.448 11,42" id="Fill-343" fill="#000000" sketch:type="MSShapeGroup"></path>
                <path d="M17,42 C17,42.552 16.552,43 16,43 C15.448,43 15,42.552 15,42 C15,41.448 15.448,41 16,41 C16.552,41 17,41.448 17,42" id="Fill-344" fill="#000000" sketch:type="MSShapeGroup"></path>
                <path d="M14,39 C14,39.552 13.552,40 13,40 C12.448,40 12,39.552 12,39 C12,38.448 12.448,38 13,38 C13.552,38 14,38.448 14,39" id="Fill-345" fill="#000000" sketch:type="MSShapeGroup"></path>
                <path d="M20,39 C20,39.552 19.552,40 19,40 C18.448,40 18,39.552 18,39 C18,38.448 18.448,38 19,38 C19.552,38 20,38.448 20,39" id="Fill-346" fill="#000000" sketch:type="MSShapeGroup"></path>
                <path d="M14,45 C14,45.552 13.552,46 13,46 C12.448,46 12,45.552 12,45 C12,44.448 12.448,44 13,44 C13.552,44 14,44.448 14,45" id="Fill-347" fill="#000000" sketch:type="MSShapeGroup"></path>
                <path d="M20,45 C20,45.552 19.552,46 19,46 C18.448,46 18,45.552 18,45 C18,44.448 18.448,44 19,44 C19.552,44 20,44.448 20,45" id="Fill-348" fill="#000000" sketch:type="MSShapeGroup"></path>
                <path d="M23,36 C23,36.552 22.552,37 22,37 C21.448,37 21,36.552 21,36 C21,35.448 21.448,35 22,35 C22.552,35 23,35.448 23,36" id="Fill-349" fill="#000000" sketch:type="MSShapeGroup"></path>
                <path d="M29,36 C29,36.552 28.552,37 28,37 C27.448,37 27,36.552 27,36 C27,35.448 27.448,35 28,35 C28.552,35 29,35.448 29,36" id="Fill-350" fill="#000000" sketch:type="MSShapeGroup"></path>
                <path d="M23,42 C23,42.552 22.552,43 22,43 C21.448,43 21,42.552 21,42 C21,41.448 21.448,41 22,41 C22.552,41 23,41.448 23,42" id="Fill-351" fill="#000000" sketch:type="MSShapeGroup"></path>
                <path d="M29,42 C29,42.552 28.552,43 28,43 C27.448,43 27,42.552 27,42 C27,41.448 27.448,41 28,41 C28.552,41 29,41.448 29,42" id="Fill-352" fill="#000000" sketch:type="MSShapeGroup"></path>
                <path d="M26,39 C26,39.552 25.552,40 25,40 C24.448,40 24,39.552 24,39 C24,38.448 24.448,38 25,38 C25.552,38 26,38.448 26,39" id="Fill-353" fill="#000000" sketch:type="MSShapeGroup"></path>
                <path d="M32,39 C32,39.552 31.552,40 31,40 C30.448,40 30,39.552 30,39 C30,38.448 30.448,38 31,38 C31.552,38 32,38.448 32,39" id="Fill-354" fill="#000000" sketch:type="MSShapeGroup"></path>
                <path d="M26,45 C26,45.552 25.552,46 25,46 C24.448,46 24,45.552 24,45 C24,44.448 24.448,44 25,44 C25.552,44 26,44.448 26,45" id="Fill-355" fill="#000000" sketch:type="MSShapeGroup"></path>
                <path d="M32,45 C32,45.552 31.552,46 31,46 C30.448,46 30,45.552 30,45 C30,44.448 30.448,44 31,44 C31.552,44 32,44.448 32,45" id="Fill-356" fill="#000000" sketch:type="MSShapeGroup"></path>
                <path d="M8,51 C8,51.552 7.552,52 7,52 C6.448,52 6,51.552 6,51 C6,50.448 6.448,50 7,50 C7.552,50 8,50.448 8,51" id="Fill-357" fill="#000000" sketch:type="MSShapeGroup"></path>
                <path d="M11,48 C11,48.552 10.552,49 10,49 C9.448,49 9,48.552 9,48 C9,47.448 9.448,47 10,47 C10.552,47 11,47.448 11,48" id="Fill-358" fill="#000000" sketch:type="MSShapeGroup"></path>
                <path d="M17,48 C17,48.552 16.552,49 16,49 C15.448,49 15,48.552 15,48 C15,47.448 15.448,47 16,47 C16.552,47 17,47.448 17,48" id="Fill-359" fill="#000000" sketch:type="MSShapeGroup"></path>
                <path d="M11,54 C11,54.552 10.552,55 10,55 C9.448,55 9,54.552 9,54 C9,53.448 9.448,53 10,53 C10.552,53 11,53.448 11,54" id="Fill-360" fill="#000000" sketch:type="MSShapeGroup"></path>
                <path d="M17,54 C17,54.552 16.552,55 16,55 C15.448,55 15,54.552 15,54 C15,53.448 15.448,53 16,53 C16.552,53 17,53.448 17,54" id="Fill-361" fill="#000000" sketch:type="MSShapeGroup"></path>
                <path d="M14,51 C14,51.552 13.552,52 13,52 C12.448,52 12,51.552 12,51 C12,50.448 12.448,50 13,50 C13.552,50 14,50.448 14,51" id="Fill-362" fill="#000000" sketch:type="MSShapeGroup"></path>
                <path d="M20,51 C20,51.552 19.552,52 19,52 C18.448,52 18,51.552 18,51 C18,50.448 18.448,50 19,50 C19.552,50 20,50.448 20,51" id="Fill-363" fill="#000000" sketch:type="MSShapeGroup"></path>
                <path d="M23,48 C23,48.552 22.552,49 22,49 C21.448,49 21,48.552 21,48 C21,47.448 21.448,47 22,47 C22.552,47 23,47.448 23,48" id="Fill-364" fill="#000000" sketch:type="MSShapeGroup"></path>
                <path d="M29,48 C29,48.552 28.552,49 28,49 C27.448,49 27,48.552 27,48 C27,47.448 27.448,47 28,47 C28.552,47 29,47.448 29,48" id="Fill-365" fill="#000000" sketch:type="MSShapeGroup"></path>
                <path d="M23,54 C23,54.552 22.552,55 22,55 C21.448,55 21,54.552 21,54 C21,53.448 21.448,53 22,53 C22.552,53 23,53.448 23,54" id="Fill-366" fill="#000000" sketch:type="MSShapeGroup"></path>
                <path d="M29,54 C29,54.552 28.552,55 28,55 C27.448,55 27,54.552 27,54 C27,53.448 27.448,53 28,53 C28.552,53 29,53.448 29,54" id="Fill-367" fill="#000000" sketch:type="MSShapeGroup"></path>
                <path d="M26,51 C26,51.552 25.552,52 25,52 C24.448,52 24,51.552 24,51 C24,50.448 24.448,50 25,50 C25.552,50 26,50.448 26,51" id="Fill-368" fill="#000000" sketch:type="MSShapeGroup"></path>
                <path d="M32,51 C32,51.552 31.552,52 31,52 C30.448,52 30,51.552 30,51 C30,50.448 30.448,50 31,50 C31.552,50 32,50.448 32,51" id="Fill-369" fill="#000000" sketch:type="MSShapeGroup"></path>
            </g>
        </g>
    </g>
</svg>