<?xml version="1.0" encoding="UTF-8" standalone="no"?>
<svg width="56px" height="59px" viewBox="0 0 56 59" version="1.1" xmlns="http://www.w3.org/2000/svg" xmlns:xlink="http://www.w3.org/1999/xlink" xmlns:sketch="http://www.bohemiancoding.com/sketch/ns">
    <!-- Generator: Sketch 3.2.2 (9983) - http://www.bohemiancoding.com/sketch -->
    <title>105 - Fingerprint (Outline)</title>
    <desc>Created with Sketch.</desc>
    <defs></defs>
    <g id="Page-1" stroke="none" stroke-width="1" fill="none" fill-rule="evenodd" sketch:type="MSPage">
        <g id="Icons" sketch:type="MSArtboardGroup" transform="translate(-723.000000, -3598.000000)" stroke="#000000" stroke-width="2" stroke-linecap="round" stroke-linejoin="round">
            <g id="105---Fingerprint-(Outline)" sketch:type="MSLayerGroup" transform="translate(724.000000, 3599.000000)">
                <path d="M27.089,26 C27.089,26 29.839,35.5 29.089,57 M12.089,4.627 C13.645,3.615 15.317,2.742 17.08,2.007 C20.268,0.676 23.637,0.001 27.091,0.001 C37.558,0.001 46.957,6.23 51.035,15.87 C52.66,19.709 53.557,26.472 54,31 M2.416,39 C-1.789,24.88 1.182,14.596 7.877,8 M9,49 C9,41.625 8.978,37.249 8.612,34.75 C8.448,33.625 8.151,32.527 7.841,31.433 C5.101,21.767 9.982,11.469 19.39,7.544 C22.067,6.427 24.911,5.91 27.823,6.014 C35.594,6.292 43.838,13.016 46.337,20.38 C48.309,26.191 48.562,35.621 48.251,47 M24.089,12.326 C25.071,12.11 26.074,12.001 27.091,12.001 C32.727,12.001 37.788,15.355 39.984,20.546 C42.583,26.689 42.632,36.443 42.089,52 M16,50 C16,38.188 13.912,30.727 13.912,30.727 C12.277,24.688 14.034,18.068 19.089,14.52 M36,47 C35.987,48.858 36.16,52.855 36.086,55 M22,55 C22,44.375 21.437,31.187 20.559,28.52 C19.381,24.943 20.897,21.001 24.395,19.542 C25.254,19.184 26.161,19.001 27.091,19.001 C29.909,19.001 32.439,20.679 33.537,23.274 C33.988,24.341 35.874,28.768 36.177,42" id="Stroke-491" sketch:type="MSShapeGroup"></path>
            </g>
        </g>
    </g>
</svg>