<?xml version="1.0" encoding="UTF-8" standalone="no"?>
<svg width="55px" height="55px" viewBox="0 0 55 55" version="1.1" xmlns="http://www.w3.org/2000/svg" xmlns:xlink="http://www.w3.org/1999/xlink" xmlns:sketch="http://www.bohemiancoding.com/sketch/ns">
    <!-- Generator: Sketch 3.2.2 (9983) - http://www.bohemiancoding.com/sketch -->
    <title>296 - Profile (Outline)</title>
    <desc>Created with Sketch.</desc>
    <defs></defs>
    <g id="Page-1" stroke="none" stroke-width="1" fill="none" fill-rule="evenodd" sketch:type="MSPage">
        <g id="296---Profile-(Outline)" sketch:type="MSLayerGroup" transform="translate(1.000000, 1.000000)" stroke="#161819" stroke-width="2">
            <path d="M53,26.5 C53,41.135 41.135,53 26.5,53 C11.864,53 0,41.135 0,26.5 C0,11.864 11.864,0 26.5,0 C41.135,0 53,11.864 53,26.5 L53,26.5 Z" id="Path" sketch:type="MSShapeGroup"></path>
            <path d="M11.487,44.641 L20.6,40.733 C21.093,40.486 21.496,39.688 21.779,39.119 C22.034,38.605 21.653,38 21.079,38 L14.634,38 C14.634,38 12.304,37.772 10.507,37 C9.455,36.548 9.092,35.951 9.75,35.014 C11.675,32.273 15.654,25.822 15.783,19.158 C15.783,19.158 16.003,8.902 26.123,8.818 C32.026,8.867 34.815,12.341 36.113,15.229 C36.838,16.839 37.148,18.595 37.265,20.358 C37.684,26.709 40.919,32.517 42.426,35 C42.937,35.842 42.69,36.963 41.845,37.469 C40.458,38.298 38.761,38 38.761,38 L32.273,38 C31.64,38 31.36,38.886 31.857,39.279 C32.263,39.599 32.65,39.888 32.859,40.002 L40.439,44.589 C41.534,45.186 42.407,46.072 43,47.118 C38.451,50.794 32.664,53 26.359,53 C19.785,53 13.775,50.601 9.143,46.637 C9.748,45.812 10.537,45.116 11.487,44.641 L11.487,44.641 Z" id="Path" sketch:type="MSShapeGroup"></path>
        </g>
    </g>
</svg>