<?xml version="1.0" encoding="UTF-8" standalone="no"?>
<svg width="60px" height="48px" viewBox="0 0 60 48" version="1.1" xmlns="http://www.w3.org/2000/svg" xmlns:xlink="http://www.w3.org/1999/xlink" xmlns:sketch="http://www.bohemiancoding.com/sketch/ns">
    <!-- Generator: Sketch 3.2.2 (9983) - http://www.bohemiancoding.com/sketch -->
    <title>353 - Select Windows (Outline)</title>
    <desc>Created with Sketch.</desc>
    <defs></defs>
    <g id="Page-1" stroke="none" stroke-width="1" fill="none" fill-rule="evenodd" sketch:type="MSPage">
        <g id="Icons" sketch:type="MSArtboardGroup" transform="translate(-960.000000, -604.000000)">
            <g id="353---Select-Windows-(Outline)" sketch:type="MSLayerGroup" transform="translate(961.000000, 605.000000)">
                <path d="M14,46 L58,46 L58,14 L14,14 L14,46 Z" id="Path" stroke="#1A1718" stroke-width="2" stroke-linecap="round" stroke-linejoin="round" sketch:type="MSShapeGroup"></path>
                <path d="M7,7 L7,32 L0,32 L0,0 L44,0 L44,7 L7,7 L7,7 Z" id="Path" stroke="#1A1718" stroke-width="2" stroke-linecap="round" stroke-linejoin="round" sketch:type="MSShapeGroup"></path>
                <path d="M14,14 L14,39 L7,39 L7,7 L51,7 L51,14 L14,14 L14,14 Z" id="Path" stroke="#1A1718" stroke-width="2" stroke-linecap="round" stroke-linejoin="round" sketch:type="MSShapeGroup"></path>
                <path d="M34,9 C34,9.552 33.552,10 33,10 C32.448,10 32,9.552 32,9 C32,8.448 32.448,8 33,8 C33.552,8 34,8.448 34,9" id="Fill-91" fill="#000000" sketch:type="MSShapeGroup"></path>
                <path d="M37,12 C37,12.552 36.552,13 36,13 C35.448,13 35,12.552 35,12 C35,11.448 35.448,11 36,11 C36.552,11 37,11.448 37,12" id="Fill-92" fill="#000000" sketch:type="MSShapeGroup"></path>
                <path d="M40,9 C40,9.552 39.552,10 39,10 C38.448,10 38,9.552 38,9 C38,8.448 38.448,8 39,8 C39.552,8 40,8.448 40,9" id="Fill-93" fill="#000000" sketch:type="MSShapeGroup"></path>
                <path d="M46,9 C46,9.552 45.552,10 45,10 C44.448,10 44,9.552 44,9 C44,8.448 44.448,8 45,8 C45.552,8 46,8.448 46,9" id="Fill-94" fill="#000000" sketch:type="MSShapeGroup"></path>
                <path d="M43,12 C43,12.552 42.552,13 42,13 C41.448,13 41,12.552 41,12 C41,11.448 41.448,11 42,11 C42.552,11 43,11.448 43,12" id="Fill-95" fill="#000000" sketch:type="MSShapeGroup"></path>
                <path d="M49,12 C49,12.552 48.552,13 48,13 C47.448,13 47,12.552 47,12 C47,11.448 47.448,11 48,11 C48.552,11 49,11.448 49,12" id="Fill-96" fill="#000000" sketch:type="MSShapeGroup"></path>
                <path d="M28,9 C28,9.552 27.552,10 27,10 C26.448,10 26,9.552 26,9 C26,8.448 26.448,8 27,8 C27.552,8 28,8.448 28,9" id="Fill-97" fill="#000000" sketch:type="MSShapeGroup"></path>
                <path d="M31,12 C31,12.552 30.552,13 30,13 C29.448,13 29,12.552 29,12 C29,11.448 29.448,11 30,11 C30.552,11 31,11.448 31,12" id="Fill-98" fill="#000000" sketch:type="MSShapeGroup"></path>
                <path d="M10,9 C10,9.552 9.552,10 9,10 C8.448,10 8,9.552 8,9 C8,8.448 8.448,8 9,8 C9.552,8 10,8.448 10,9" id="Fill-99" fill="#000000" sketch:type="MSShapeGroup"></path>
                <path d="M10,15 C10,15.552 9.552,16 9,16 C8.448,16 8,15.552 8,15 C8,14.448 8.448,14 9,14 C9.552,14 10,14.448 10,15" id="Fill-100" fill="#000000" sketch:type="MSShapeGroup"></path>
                <path d="M13,12 C13,12.552 12.552,13 12,13 C11.448,13 11,12.552 11,12 C11,11.448 11.448,11 12,11 C12.552,11 13,11.448 13,12" id="Fill-101" fill="#000000" sketch:type="MSShapeGroup"></path>
                <path d="M13,18 C13,18.552 12.552,19 12,19 C11.448,19 11,18.552 11,18 C11,17.448 11.448,17 12,17 C12.552,17 13,17.448 13,18" id="Fill-102" fill="#000000" sketch:type="MSShapeGroup"></path>
                <path d="M16,9 C16,9.552 15.552,10 15,10 C14.448,10 14,9.552 14,9 C14,8.448 14.448,8 15,8 C15.552,8 16,8.448 16,9" id="Fill-103" fill="#000000" sketch:type="MSShapeGroup"></path>
                <path d="M22,9 C22,9.552 21.552,10 21,10 C20.448,10 20,9.552 20,9 C20,8.448 20.448,8 21,8 C21.552,8 22,8.448 22,9" id="Fill-104" fill="#000000" sketch:type="MSShapeGroup"></path>
                <path d="M19,12 C19,12.552 18.552,13 18,13 C17.448,13 17,12.552 17,12 C17,11.448 17.448,11 18,11 C18.552,11 19,11.448 19,12" id="Fill-105" fill="#000000" sketch:type="MSShapeGroup"></path>
                <path d="M25,12 C25,12.552 24.552,13 24,13 C23.448,13 23,12.552 23,12 C23,11.448 23.448,11 24,11 C24.552,11 25,11.448 25,12" id="Fill-106" fill="#000000" sketch:type="MSShapeGroup"></path>
                <path d="M10,21 C10,21.552 9.552,22 9,22 C8.448,22 8,21.552 8,21 C8,20.448 8.448,20 9,20 C9.552,20 10,20.448 10,21" id="Fill-107" fill="#000000" sketch:type="MSShapeGroup"></path>
                <path d="M10,27 C10,27.552 9.552,28 9,28 C8.448,28 8,27.552 8,27 C8,26.448 8.448,26 9,26 C9.552,26 10,26.448 10,27" id="Fill-108" fill="#000000" sketch:type="MSShapeGroup"></path>
                <path d="M13,24 C13,24.552 12.552,25 12,25 C11.448,25 11,24.552 11,24 C11,23.448 11.448,23 12,23 C12.552,23 13,23.448 13,24" id="Fill-109" fill="#000000" sketch:type="MSShapeGroup"></path>
                <path d="M13,30 C13,30.552 12.552,31 12,31 C11.448,31 11,30.552 11,30 C11,29.448 11.448,29 12,29 C12.552,29 13,29.448 13,30" id="Fill-110" fill="#000000" sketch:type="MSShapeGroup"></path>
                <path d="M10,33 C10,33.552 9.552,34 9,34 C8.448,34 8,33.552 8,33 C8,32.448 8.448,32 9,32 C9.552,32 10,32.448 10,33" id="Fill-111" fill="#000000" sketch:type="MSShapeGroup"></path>
                <path d="M10,39 C10,39.552 9.552,40 9,40 C8.448,40 8,39.552 8,39 C8,38.448 8.448,38 9,38 C9.552,38 10,38.448 10,39" id="Fill-112" fill="#000000" sketch:type="MSShapeGroup"></path>
                <path d="M13,36 C13,36.552 12.552,37 12,37 C11.448,37 11,36.552 11,36 C11,35.448 11.448,35 12,35 C12.552,35 13,35.448 13,36" id="Fill-113" fill="#000000" sketch:type="MSShapeGroup"></path>
            </g>
        </g>
    </g>
</svg>