<?xml version="1.0" encoding="UTF-8" standalone="no"?>
<svg width="58px" height="57px" viewBox="0 0 58 57" version="1.1" xmlns="http://www.w3.org/2000/svg" xmlns:xlink="http://www.w3.org/1999/xlink" xmlns:sketch="http://www.bohemiancoding.com/sketch/ns">
    <!-- Generator: Sketch 3.2.2 (9983) - http://www.bohemiancoding.com/sketch -->
    <title>38 - Calendar Event (Outline)</title>
    <desc>Created with Sketch.</desc>
    <defs></defs>
    <g id="Page-1" stroke="none" stroke-width="1" fill="none" fill-rule="evenodd" sketch:type="MSPage">
        <g id="Icons" sketch:type="MSArtboardGroup" transform="translate(-361.000000, -4440.000000)" stroke="#000000" stroke-width="2" stroke-linecap="round" stroke-linejoin="round">
            <g id="38---Calendar-Event-(Outline)" sketch:type="MSLayerGroup" transform="translate(362.000000, 4441.000000)">
                <path d="M18,4 L15,4 L18,4 Z" id="Path" sketch:type="MSShapeGroup"></path>
                <path d="M0,15 L0,4 L15,4" id="Path" sketch:type="MSShapeGroup"></path>
                <path d="M41,4 L56,4 L56,15" id="Path" sketch:type="MSShapeGroup"></path>
                <path d="M41,4 L56,4 L56,55 L0,55 L0,4 L15,4" id="Path" sketch:type="MSShapeGroup"></path>
                <path d="M15,4 C15,1.791 16.791,0 19,0 C21.209,0 23,1.791 23,4 C23,6.209 21.209,8 19,8" id="Path" sketch:type="MSShapeGroup"></path>
                <path d="M25,8 C27.209,8 29,6.209 29,4 C29,1.791 27.209,0 25,0" id="Path" sketch:type="MSShapeGroup"></path>
                <path d="M31,8 C33.209,8 35,6.209 35,4 C35,1.791 33.209,0 31,0" id="Path" sketch:type="MSShapeGroup"></path>
                <path d="M37,8 C39.209,8 41,6.209 41,4 C41,1.791 39.209,0 37,0" id="Path" sketch:type="MSShapeGroup"></path>
                <path d="M0,13 L14,13 L14,27 L0,27 L0,13 Z" id="Path" sketch:type="MSShapeGroup"></path>
                <path d="M0,27 L14,27 L14,41 L0,41 L0,27 Z" id="Path" sketch:type="MSShapeGroup"></path>
                <path d="M0,41 L14,41 L14,55 L0,55 L0,41 Z" id="Path" sketch:type="MSShapeGroup"></path>
                <path d="M14,13 L28,13 L28,27 L14,27 L14,13 Z" id="Path" sketch:type="MSShapeGroup"></path>
                <path d="M14,27 L28,27 L28,41 L14,41 L14,27 Z" id="Path" sketch:type="MSShapeGroup"></path>
                <path d="M14,41 L28,41 L28,55 L14,55 L14,41 Z" id="Path" sketch:type="MSShapeGroup"></path>
                <path d="M28,13 L42,13 L42,27 L28,27 L28,13 Z" id="Path" sketch:type="MSShapeGroup"></path>
                <path d="M28,27 L42,27 L42,41 L28,41 L28,27 Z" id="Path" sketch:type="MSShapeGroup"></path>
                <path d="M28,41 L42,41 L42,55 L28,55 L28,41 Z" id="Path" sketch:type="MSShapeGroup"></path>
                <path d="M42,13 L56,13 L56,27 L42,27 L42,13 Z" id="Path" sketch:type="MSShapeGroup"></path>
                <path d="M42,27 L56,27 L56,41 L42,41 L42,27 Z" id="Path" sketch:type="MSShapeGroup"></path>
                <path d="M42,41 L56,41 L56,55 L42,55 L42,41 Z M31,30 L39,38 L31,30 Z M31,38 L39,30 L31,38 Z" id="Stroke-111" sketch:type="MSShapeGroup"></path>
            </g>
        </g>
    </g>
</svg>