<?xml version="1.0" encoding="UTF-8" standalone="no"?>
<svg width="58px" height="59px" viewBox="0 0 58 59" version="1.1" xmlns="http://www.w3.org/2000/svg" xmlns:xlink="http://www.w3.org/1999/xlink" xmlns:sketch="http://www.bohemiancoding.com/sketch/ns">
    <!-- Generator: Sketch 3.2.2 (9983) - http://www.bohemiancoding.com/sketch -->
    <title>184 - Wi-Fi Signal (Outline)</title>
    <desc>Created with Sketch.</desc>
    <defs></defs>
    <g id="Page-1" stroke="none" stroke-width="1" fill="none" fill-rule="evenodd" sketch:type="MSPage">
        <g id="Icons" sketch:type="MSArtboardGroup" transform="translate(-841.000000, -2638.000000)" stroke-linecap="round" stroke="#000000" stroke-width="2">
            <g id="184---Wi-Fi-Signal-(Outline)" sketch:type="MSLayerGroup" transform="translate(842.000000, 2639.000000)">
                <path d="M8.214,39.598 C-2.703,28.681 -2.703,10.917 8.214,0" id="Stroke-602" sketch:type="MSShapeGroup"></path>
                <path d="M47.812,0 C58.729,10.917 58.729,28.681 47.812,39.598" id="Stroke-604" sketch:type="MSShapeGroup"></path>
                <path d="M12.457,35.355 C3.879,26.777 3.879,12.82 12.457,4.243" id="Stroke-606" sketch:type="MSShapeGroup"></path>
                <path d="M43.569,4.243 C52.147,12.82 52.147,26.777 43.569,35.355" id="Stroke-608" sketch:type="MSShapeGroup"></path>
                <path d="M16.699,31.113 C10.461,24.874 10.461,14.724 16.699,8.485" id="Stroke-610" sketch:type="MSShapeGroup"></path>
                <path d="M39.327,8.485 C45.565,14.724 45.565,24.874 39.327,31.113" id="Stroke-612" sketch:type="MSShapeGroup"></path>
                <path d="M28.013,26 C24.699,26 22.013,23.314 22.013,20 C22.013,16.686 24.699,14 28.013,14 C31.327,14 34.013,16.686 34.013,20 C34.013,23.314 31.327,26 28.013,26 L28.013,26 Z" id="Stroke-614" sketch:type="MSShapeGroup"></path>
                <path d="M28.013,26 L28.013,57" id="Stroke-624" sketch:type="MSShapeGroup"></path>
            </g>
        </g>
    </g>
</svg>