<?xml version="1.0" encoding="UTF-8" standalone="no"?>
<svg width="59px" height="59px" viewBox="0 0 59 59" version="1.1" xmlns="http://www.w3.org/2000/svg" xmlns:xlink="http://www.w3.org/1999/xlink" xmlns:sketch="http://www.bohemiancoding.com/sketch/ns">
    <!-- Generator: Sketch 3.2.2 (9983) - http://www.bohemiancoding.com/sketch -->
    <title>273 - Movie (Outline)</title>
    <desc>Created with Sketch.</desc>
    <defs></defs>
    <g id="Page-1" stroke="none" stroke-width="1" fill="none" fill-rule="evenodd" sketch:type="MSPage">
        <g id="Icons" sketch:type="MSArtboardGroup" transform="translate(-961.000000, -1558.000000)" stroke-linecap="round" stroke="#000000" stroke-width="2">
            <g id="273---Movie-(Outline)" sketch:type="MSLayerGroup" transform="translate(962.000000, 1559.000000)">
                <path d="M56,28 C56,43.464 43.464,56 28,56 C12.536,56 0,43.464 0,28 C0,12.536 12.536,0 28,0 C43.464,0 56,12.536 56,28 L56,28 Z" id="Path" sketch:type="MSShapeGroup"></path>
                <path d="M48,48 C48,52.975 52.025,57 57,57" id="Path" sketch:type="MSShapeGroup"></path>
                <path d="M52,28 C52,41.255 41.255,52 28,52 C14.745,52 4,41.255 4,28 C4,14.745 14.745,4 28,4 C41.255,4 52,14.745 52,28 L52,28 Z" id="Path" sketch:type="MSShapeGroup"></path>
                <path d="M34,16 C34,19.314 31.314,22 28,22 C24.686,22 22,19.314 22,16 C22,12.686 24.686,10 28,10 C31.314,10 34,12.686 34,16 L34,16 Z" id="Path" sketch:type="MSShapeGroup"></path>
                <path d="M34,40 C34,43.314 31.314,46 28,46 C24.686,46 22,43.314 22,40 C22,36.686 24.686,34 28,34 C31.314,34 34,36.686 34,40 L34,40 Z" id="Path" sketch:type="MSShapeGroup"></path>
                <path d="M40,34 C36.686,34 34,31.314 34,28 C34,24.686 36.686,22 40,22 C43.314,22 46,24.686 46,28 C46,31.314 43.314,34 40,34 L40,34 Z" id="Path" sketch:type="MSShapeGroup"></path>
                <path d="M16,34 C12.686,34 10,31.314 10,28 C10,24.686 12.686,22 16,22 C19.314,22 22,24.686 22,28 C22,31.314 19.314,34 16,34 L16,34 Z" id="Path" sketch:type="MSShapeGroup"></path>
                <path d="M28,16 C25.894,16 23.917,16.546 22.196,17.499 C22.863,20.086 25.205,22 28,22 C30.795,22 33.137,20.086 33.803,17.499 C32.083,16.546 30.106,16 28,16 L28,16 Z" id="Path" sketch:type="MSShapeGroup"></path>
                <path d="M28,40 C30.106,40 32.083,39.454 33.803,38.501 C33.137,35.914 30.795,34 28,34 C25.205,34 22.863,35.914 22.196,38.501 C23.917,39.454 25.894,40 28,40 L28,40 Z" id="Path" sketch:type="MSShapeGroup"></path>
                <path d="M40,28 C40,25.894 39.454,23.917 38.501,22.197 C35.914,22.863 34,25.205 34,28 C34,30.795 35.914,33.137 38.501,33.803 C39.454,32.083 40,30.106 40,28 L40,28 Z" id="Path" sketch:type="MSShapeGroup"></path>
                <path d="M17.499,22.197 C16.546,23.917 16,25.894 16,28 C16,30.106 16.546,32.083 17.499,33.803 C20.086,33.137 22,30.795 22,28 C22,25.205 20.086,22.863 17.499,22.197 L17.499,22.197 Z" id="Path" sketch:type="MSShapeGroup"></path>
            </g>
        </g>
    </g>
</svg>