<?xml version="1.0" encoding="UTF-8" standalone="no"?>
<svg width="60px" height="36px" viewBox="0 0 60 36" version="1.1" xmlns="http://www.w3.org/2000/svg" xmlns:xlink="http://www.w3.org/1999/xlink" xmlns:sketch="http://www.bohemiancoding.com/sketch/ns">
    <!-- Generator: Sketch 3.2.2 (9983) - http://www.bohemiancoding.com/sketch -->
    <title>321 - Off (Outline)</title>
    <desc>Created with Sketch.</desc>
    <defs></defs>
    <g id="Page-1" stroke="none" stroke-width="1" fill="none" fill-rule="evenodd" sketch:type="MSPage">
        <g id="321---Off-(Outline)" sketch:type="MSLayerGroup" transform="translate(1.000000, 1.000000)" stroke="#000000" stroke-width="2" stroke-linecap="round" stroke-linejoin="round">
            <path d="M41,34 L17,34 C7.65,34 0,26.35 0,17 C0,7.65 7.65,0 17,0 L41,0 C50.35,0 58,7.65 58,17 C58,26.35 50.35,34 41,34 L41,34 Z" id="Path" sketch:type="MSShapeGroup"></path>
            <path d="M29,17 C29,23.627 23.627,29 17,29 C10.373,29 5,23.627 5,17 C5,10.373 10.373,5 17,5 C23.627,5 29,10.373 29,17 L29,17 Z" id="Path" sketch:type="MSShapeGroup"></path>
            <path d="M36,17 L40,21 L36,17 Z" id="Path" sketch:type="MSShapeGroup"></path>
            <path d="M40,21 L48,13 L40,21 Z" id="Path" sketch:type="MSShapeGroup"></path>
        </g>
    </g>
</svg>