<?xml version="1.0" encoding="UTF-8" standalone="no"?>
<svg width="60px" height="60px" viewBox="0 0 60 60" version="1.1" xmlns="http://www.w3.org/2000/svg" xmlns:xlink="http://www.w3.org/1999/xlink" xmlns:sketch="http://www.bohemiancoding.com/sketch/ns">
    <!-- Generator: Sketch 3.2.2 (9983) - http://www.bohemiancoding.com/sketch -->
    <title>236 - Mute (Outline)</title>
    <desc>Created with Sketch.</desc>
    <defs></defs>
    <g id="Page-1" stroke="none" stroke-width="1" fill="none" fill-rule="evenodd" sketch:type="MSPage">
        <g id="Icons" sketch:type="MSArtboardGroup" transform="translate(-600.000000, -2037.000000)" stroke-linecap="round" stroke-width="2">
            <g id="236---Mute-(Outline)" sketch:type="MSLayerGroup" transform="translate(601.000000, 2038.000000)">
                <path d="M22.427,20 L14.104,20 C12.942,20 12,20.942 12,22.104 L12,34.896 C12,36.058 12.942,37 14.104,37 L22.427,37 C22.802,37 23.17,37.1 23.494,37.291 L36.83,49.706 C38.232,50.531 40,49.52 40,47.893 L40,9.107 C40,7.48 38.232,6.469 36.83,7.294 L23.494,19.709 C23.17,19.9 22.802,20 22.427,20 L22.427,20 Z" id="Stroke-126" stroke="#1A1718" stroke-linejoin="round" sketch:type="MSShapeGroup"></path>
                <path d="M49.506,8.494 C60.831,19.819 60.831,38.181 49.506,49.506 C38.181,60.831 19.819,60.831 8.494,49.506 C-2.831,38.181 -2.831,19.819 8.494,8.494 C19.819,-2.831 38.181,-2.831 49.506,8.494 L49.506,8.494 Z" id="Stroke-320" stroke="#000000" sketch:type="MSShapeGroup"></path>
                <path d="M8.494,49.506 L49.506,8.494" id="Stroke-334" stroke="#1A1718" stroke-linejoin="round" sketch:type="MSShapeGroup"></path>
            </g>
        </g>
    </g>
</svg>