<?xml version="1.0" encoding="UTF-8" standalone="no"?>
<svg width="47px" height="60px" viewBox="0 0 47 60" version="1.1" xmlns="http://www.w3.org/2000/svg" xmlns:xlink="http://www.w3.org/1999/xlink" xmlns:sketch="http://www.bohemiancoding.com/sketch/ns">
    <!-- Generator: Sketch 3.2.2 (9983) - http://www.bohemiancoding.com/sketch -->
    <title>45 - Diploma (Outline)</title>
    <desc>Created with Sketch.</desc>
    <defs></defs>
    <g id="Page-1" stroke="none" stroke-width="1" fill="none" fill-rule="evenodd" sketch:type="MSPage">
        <g id="Icons" sketch:type="MSArtboardGroup" transform="translate(-727.000000, -4317.000000)">
            <g id="45---Diploma-(Outline)" sketch:type="MSLayerGroup" transform="translate(728.000000, 4318.000000)">
                <path d="M45,14 L31,0 L0,0 L0,58 L45,58 L45,14 L45,14 Z" id="Path" stroke="#1A1718" stroke-width="2" stroke-linejoin="round" sketch:type="MSShapeGroup"></path>
                <path d="M20,23 C20,23.552 19.552,24 19,24 C18.448,24 18,23.552 18,23 C18,22.448 18.448,22 19,22 C19.552,22 20,22.448 20,23" id="Fill-488" fill="#000000" sketch:type="MSShapeGroup"></path>
                <path d="M11,31 C11,31.552 10.552,32 10,32 C9.448,32 9,31.552 9,31 C9,30.448 9.448,30 10,30 C10.552,30 11,30.448 11,31" id="Fill-472" fill="#000000" sketch:type="MSShapeGroup"></path>
                <path d="M23,15 C23,15.552 22.552,16 22,16 C21.448,16 21,15.552 21,15 C21,14.448 21.448,14 22,14 C22.552,14 23,14.448 23,15" id="Fill-473" fill="#000000" sketch:type="MSShapeGroup"></path>
                <path d="M31,0 L31,14 L45,14 L31,0 Z" id="Path" stroke="#1A1718" stroke-width="2" stroke-linejoin="round" sketch:type="MSShapeGroup"></path>
                <path d="M9,15 L18,15" id="Path" stroke="#000000" stroke-width="2" stroke-linecap="round" stroke-linejoin="round" sketch:type="MSShapeGroup"></path>
                <path d="M9,23 L14,23" id="Path" stroke="#000000" stroke-width="2" stroke-linecap="round" stroke-linejoin="round" sketch:type="MSShapeGroup"></path>
                <path d="M24,23 L31,23" id="Path" stroke="#000000" stroke-width="2" stroke-linecap="round" stroke-linejoin="round" sketch:type="MSShapeGroup"></path>
                <path d="M21,31 L14,31" id="Path" stroke="#000000" stroke-width="2" stroke-linecap="round" stroke-linejoin="round" sketch:type="MSShapeGroup"></path>
                <path d="M12.145,39.166 C9.3,40.646 8.903,43.878 8.806,46.766 C9.375,46.53 9.944,46.294 10.513,46.058 C9.578,45.275 8.642,44.492 7.707,43.708 C6.726,42.886 5.303,44.293 6.293,45.122 C7.228,45.905 8.164,46.689 9.099,47.473 C9.761,48.027 10.775,47.684 10.806,46.766 C10.879,44.599 10.983,42.023 13.154,40.893 C14.299,40.297 13.287,38.571 12.145,39.166" id="Fill-103" fill="#000000" sketch:type="MSShapeGroup"></path>
                <path d="M13.132,44.27 C13.646,45.312 14.632,46.068 15.801,46.202 C16.409,46.271 16.918,46.189 17.489,45.975 C17.896,45.823 19.412,44.644 19.756,45.259 C20.385,46.385 22.113,45.376 21.483,44.249 C20.963,43.32 19.841,42.858 18.795,43.155 C17.43,43.541 15.814,45.196 14.859,43.261 C14.288,42.104 12.564,43.117 13.132,44.27" id="Fill-104" fill="#000000" sketch:type="MSShapeGroup"></path>
                <path d="M33.545,29.09 L33.545,29.09 C33.87,30.005 34.916,30.439 35.794,30.021 C37.187,29.359 38.641,30.813 37.978,32.206 C37.561,33.084 37.994,34.129 38.91,34.455 C40.363,34.972 40.363,37.028 38.91,37.545 C37.994,37.871 37.561,38.916 37.978,39.793 C38.641,41.187 37.187,42.641 35.794,41.978 C34.916,41.561 33.87,41.994 33.545,42.91 C33.028,44.363 30.972,44.363 30.455,42.91 C30.13,41.994 29.084,41.561 28.206,41.978 C26.813,42.641 25.359,41.187 26.022,39.793 C26.439,38.916 26.006,37.871 25.09,37.545 C23.637,37.028 23.637,34.972 25.09,34.455 C26.006,34.129 26.439,33.084 26.022,32.206 C25.359,30.813 26.813,29.359 28.206,30.021 C29.084,30.439 30.13,30.005 30.455,29.09 C30.972,27.636 33.028,27.636 33.545,29.09 L33.545,29.09 Z M35.794,41.978 C34.916,41.561 33.87,41.994 33.545,42.91 C33.028,44.363 30.972,44.363 30.455,42.91 C30.13,41.994 29.084,41.561 28.206,41.978 C28.138,42.011 28.069,42.016 28,42.039 L28,53 L32,49 L36,53 L36,42.039 C35.931,42.016 35.863,42.011 35.794,41.978 L35.794,41.978 Z" id="Stroke-108" stroke="#1A1718" stroke-width="2" stroke-linejoin="round" sketch:type="MSShapeGroup"></path>
            </g>
        </g>
    </g>
</svg>