<?xml version="1.0" encoding="UTF-8" standalone="no"?>
<svg width="60px" height="54px" viewBox="0 0 60 54" version="1.1" xmlns="http://www.w3.org/2000/svg" xmlns:xlink="http://www.w3.org/1999/xlink" xmlns:sketch="http://www.bohemiancoding.com/sketch/ns">
    <!-- Generator: Sketch 3.2.2 (9983) - http://www.bohemiancoding.com/sketch -->
    <title>107 - Magnet (Outline)</title>
    <desc>Created with Sketch.</desc>
    <defs></defs>
    <g id="Page-1" stroke="none" stroke-width="1" fill="none" fill-rule="evenodd" sketch:type="MSPage">
        <g id="Icons" sketch:type="MSArtboardGroup" transform="translate(-480.000000, -3600.000000)" stroke="#1A1718" stroke-width="2" stroke-linecap="round" stroke-linejoin="round">
            <g id="107---Magnet-(Outline)" sketch:type="MSLayerGroup" transform="translate(481.000000, 3601.000000)">
                <path d="M46,38 L26,38 C19.373,38 14,32.628 14,26 C14,19.372 19.373,14 26,14 L46,14 L46,0 L26,0 C11.641,0 0,11.641 0,26 C0,40.359 11.641,52 26,52 L46,52 L46,38 L46,38 Z" id="Path" sketch:type="MSShapeGroup"></path>
                <path d="M37,0 L37,14 L37,0 Z" id="Path" sketch:type="MSShapeGroup"></path>
                <path d="M37,38 L37,52 L37,38 Z" id="Path" sketch:type="MSShapeGroup"></path>
                <path d="M53,3 L54,3 L53,3 Z" id="Path" sketch:type="MSShapeGroup"></path>
                <path d="M49,3 L50,3 L49,3 Z" id="Path" sketch:type="MSShapeGroup"></path>
                <path d="M57,3 L58,3 L57,3 Z" id="Path" sketch:type="MSShapeGroup"></path>
                <path d="M53,11 L54,11 L53,11 Z" id="Path" sketch:type="MSShapeGroup"></path>
                <path d="M49,11 L50,11 L49,11 Z" id="Path" sketch:type="MSShapeGroup"></path>
                <path d="M57,11 L58,11 L57,11 Z" id="Path" sketch:type="MSShapeGroup"></path>
                <path d="M51,7 L52,7 L51,7 Z" id="Path" sketch:type="MSShapeGroup"></path>
                <path d="M55,7 L56,7 L55,7 Z" id="Path" sketch:type="MSShapeGroup"></path>
                <path d="M53,42 L54,42 L53,42 Z" id="Path" sketch:type="MSShapeGroup"></path>
                <path d="M49,42 L50,42 L49,42 Z" id="Path" sketch:type="MSShapeGroup"></path>
                <path d="M57,42 L58,42 L57,42 Z" id="Path" sketch:type="MSShapeGroup"></path>
                <path d="M53,50 L54,50 L53,50 Z" id="Path" sketch:type="MSShapeGroup"></path>
                <path d="M49,50 L50,50 L49,50 Z" id="Path" sketch:type="MSShapeGroup"></path>
                <path d="M57,50 L58,50 L57,50 Z" id="Path" sketch:type="MSShapeGroup"></path>
                <path d="M51,46 L52,46 L51,46 Z" id="Path" sketch:type="MSShapeGroup"></path>
                <path d="M55,46 L56,46 L55,46 Z" id="Path" sketch:type="MSShapeGroup"></path>
            </g>
        </g>
    </g>
</svg>