<?xml version="1.0" encoding="UTF-8" standalone="no"?>
<svg width="34px" height="60px" viewBox="0 0 34 60" version="1.1" xmlns="http://www.w3.org/2000/svg" xmlns:xlink="http://www.w3.org/1999/xlink" xmlns:sketch="http://www.bohemiancoding.com/sketch/ns">
    <!-- Generator: Sketch 3.2.2 (9983) - http://www.bohemiancoding.com/sketch -->
    <title>19 - Phone Apps (Outline)</title>
    <desc>Created with Sketch.</desc>
    <defs></defs>
    <g id="Page-1" stroke="none" stroke-width="1" fill="none" fill-rule="evenodd" sketch:type="MSPage">
        <g id="Icons" sketch:type="MSArtboardGroup" transform="translate(-254.000000, -4677.000000)" stroke="#000000" stroke-width="2" stroke-linecap="round" stroke-linejoin="round">
            <g id="19---Phone-Apps-(Outline)" sketch:type="MSLayerGroup" transform="translate(255.000000, 4678.000000)">
                <path d="M28.595,58 L3.405,58 C1.525,58 0,56.475 0,54.595 L0,3.405 C0,1.525 1.525,0 3.405,0 L28.595,0 C30.475,0 32,1.525 32,3.405 L32,54.595 C32,56.475 30.475,58 28.595,58 L28.595,58 Z" id="Path" sketch:type="MSShapeGroup"></path>
                <path d="M19,52 C19,53.657 17.657,55 16,55 C14.343,55 13,53.657 13,52 C13,50.343 14.343,49 16,49 C17.657,49 19,50.343 19,52 L19,52 Z" id="Path" sketch:type="MSShapeGroup"></path>
                <path d="M0,46 L32,46 L0,46 Z" id="Path" sketch:type="MSShapeGroup"></path>
                <path d="M0,6 L32,6 L0,6 Z" id="Path" sketch:type="MSShapeGroup"></path>
                <path d="M12,3 L16,3 L12,3 Z" id="Path" sketch:type="MSShapeGroup"></path>
                <path d="M19,3 L20,3 L19,3 Z" id="Path" sketch:type="MSShapeGroup"></path>
                <path d="M17.962,17.019 L14.038,17.019 C13.465,17.019 13,16.554 13,15.981 L13,12.057 C13,11.484 13.465,11.019 14.038,11.019 L17.962,11.019 C18.535,11.019 19,11.484 19,12.057 L19,15.981 C19,16.554 18.535,17.019 17.962,17.019 L17.962,17.019 Z" id="Path" sketch:type="MSShapeGroup"></path>
                <path d="M8.962,17.019 L5.038,17.019 C4.465,17.019 4,16.554 4,15.981 L4,12.057 C4,11.484 4.465,11.019 5.038,11.019 L8.962,11.019 C9.535,11.019 10,11.484 10,12.057 L10,15.981 C10,16.554 9.535,17.019 8.962,17.019 L8.962,17.019 Z" id="Path" sketch:type="MSShapeGroup"></path>
                <path d="M26.962,17.019 L23.038,17.019 C22.465,17.019 22,16.554 22,15.981 L22,12.057 C22,11.484 22.465,11.019 23.038,11.019 L26.962,11.019 C27.535,11.019 28,11.484 28,12.057 L28,15.981 C28,16.554 27.535,17.019 26.962,17.019 L26.962,17.019 Z" id="Path" sketch:type="MSShapeGroup"></path>
                <path d="M17.962,26 L14.038,26 C13.465,26 13,25.535 13,24.962 L13,21.038 C13,20.465 13.465,20 14.038,20 L17.962,20 C18.535,20 19,20.465 19,21.038 L19,24.962 C19,25.535 18.535,26 17.962,26 L17.962,26 Z" id="Path" sketch:type="MSShapeGroup"></path>
                <path d="M8.962,26 L5.038,26 C4.465,26 4,25.535 4,24.962 L4,21.038 C4,20.465 4.465,20 5.038,20 L8.962,20 C9.535,20 10,20.465 10,21.038 L10,24.962 C10,25.535 9.535,26 8.962,26 L8.962,26 Z" id="Path" sketch:type="MSShapeGroup"></path>
                <path d="M26.962,26 L23.038,26 C22.465,26 22,25.535 22,24.962 L22,21.038 C22,20.465 22.465,20 23.038,20 L26.962,20 C27.535,20 28,20.465 28,21.038 L28,24.962 C28,25.535 27.535,26 26.962,26 L26.962,26 Z" id="Path" sketch:type="MSShapeGroup"></path>
                <path d="M17.962,35 L14.038,35 C13.465,35 13,34.535 13,33.962 L13,30.038 C13,29.465 13.465,29 14.038,29 L17.962,29 C18.535,29 19,29.465 19,30.038 L19,33.962 C19,34.535 18.535,35 17.962,35 L17.962,35 Z" id="Path" sketch:type="MSShapeGroup"></path>
                <path d="M8.962,35 L5.038,35 C4.465,35 4,34.535 4,33.962 L4,30.038 C4,29.465 4.465,29 5.038,29 L8.962,29 C9.535,29 10,29.465 10,30.038 L10,33.962 C10,34.535 9.535,35 8.962,35 L8.962,35 Z" id="Path" sketch:type="MSShapeGroup"></path>
                <path d="M26.962,35 L23.038,35 C22.465,35 22,34.535 22,33.962 L22,30.038 C22,29.465 22.465,29 23.038,29 L26.962,29 C27.535,29 28,29.465 28,30.038 L28,33.962 C28,34.535 27.535,35 26.962,35 L26.962,35 Z" id="Path" sketch:type="MSShapeGroup"></path>
            </g>
        </g>
    </g>
</svg>