<?xml version="1.0" encoding="UTF-8" standalone="no"?>
<svg width="60px" height="40px" viewBox="0 0 60 40" version="1.1" xmlns="http://www.w3.org/2000/svg" xmlns:xlink="http://www.w3.org/1999/xlink" xmlns:sketch="http://www.bohemiancoding.com/sketch/ns">
    <!-- Generator: Sketch 3.2.2 (9983) - http://www.bohemiancoding.com/sketch -->
    <title>182 - Promote (Outline)</title>
    <desc>Created with Sketch.</desc>
    <defs></defs>
    <g id="Page-1" stroke="none" stroke-width="1" fill="none" fill-rule="evenodd" sketch:type="MSPage">
        <g id="Icons" sketch:type="MSArtboardGroup" transform="translate(-1080.000000, -2647.000000)" stroke-linecap="round" stroke="#000000" stroke-width="2">
            <g id="182---Promote-(Outline)" sketch:type="MSLayerGroup" transform="translate(1081.000000, 2648.000000)">
                <path d="M38,33 L5,22.6 L5,15.4 L38,5 L38,33 L38,33 Z" id="Stroke-494" sketch:type="MSShapeGroup"></path>
                <path d="M21.276,32.883 L9.86,29.185 C8.604,28.778 7.91,27.418 8.316,26.163 C8.723,24.907 10.083,24.212 11.339,24.619 L22.755,28.317 C24.011,28.724 24.705,30.084 24.299,31.34 C23.892,32.596 22.531,33.29 21.276,32.883 L21.276,32.883 Z" id="Stroke-496" sketch:type="MSShapeGroup"></path>
                <path d="M2.5,26 L2.5,26 C1.125,26 0,24.875 0,23.5 L0,14.5 C0,13.125 1.125,12 2.5,12 C3.875,12 5,13.125 5,14.5 L5,23.5 C5,24.875 3.875,26 2.5,26 L2.5,26 Z" id="Stroke-522" sketch:type="MSShapeGroup"></path>
                <path d="M41,38 L41,38 C39.35,38 38,36.65 38,35 L38,3 C38,1.35 39.35,0 41,0 C42.65,0 44,1.35 44,3 L44,35 C44,36.65 42.65,38 41,38 L41,38 Z" id="Stroke-524" sketch:type="MSShapeGroup"></path>
                <path d="M49,19 L58,19" id="Stroke-526" stroke-dasharray="3" sketch:type="MSShapeGroup"></path>
                <path d="M49,7.364 L55.364,1" id="Stroke-528" stroke-dasharray="3" sketch:type="MSShapeGroup"></path>
                <path d="M49,13.364 L58,10.364" id="Stroke-626" stroke-dasharray="3" sketch:type="MSShapeGroup"></path>
                <path d="M49,30.636 L55.364,37" id="Stroke-628" stroke-dasharray="3" sketch:type="MSShapeGroup"></path>
                <path d="M49,24.636 L58,27.636" id="Stroke-630" stroke-dasharray="3" sketch:type="MSShapeGroup"></path>
            </g>
        </g>
    </g>
</svg>