<?xml version="1.0" encoding="UTF-8" standalone="no"?>
<svg width="60px" height="61px" viewBox="0 0 60 61" version="1.1" xmlns="http://www.w3.org/2000/svg" xmlns:xlink="http://www.w3.org/1999/xlink" xmlns:sketch="http://www.bohemiancoding.com/sketch/ns">
    <!-- Generator: Sketch 3.2.2 (9983) - http://www.bohemiancoding.com/sketch -->
    <title>72 - Speed Dial (Outline)</title>
    <desc>Created with Sketch.</desc>
    <defs></defs>
    <g id="Page-1" stroke="none" stroke-width="1" fill="none" fill-rule="evenodd" sketch:type="MSPage">
        <g id="Icons" sketch:type="MSArtboardGroup" transform="translate(-1080.000000, -3957.000000)" stroke="#000000" stroke-width="2" stroke-linecap="round" stroke-linejoin="round">
            <g id="72---Speed-Dial-(Outline)" sketch:type="MSLayerGroup" transform="translate(1081.000000, 3958.000000)">
                <path d="M58,29.121 C58,45.138 45.016,58.121 29,58.121 C12.984,58.121 0,45.138 0,29.121 C0,13.105 12.984,0.121 29,0.121 C45.016,0.121 58,13.105 58,29.121 L58,29.121 Z M29,4.121 L29,6.121 L29,4.121 Z M54.5,29.121 L52.5,29.121 L54.5,29.121 Z M5.5,29.121 L3.5,29.121 L5.5,29.121 Z M41.75,7.537 L40.75,9.27 L41.75,7.537 Z M51.084,42.371 L49.352,41.371 L51.084,42.371 Z M8.648,17.871 L6.916,16.871 L8.648,17.871 Z M16.246,7.504 L17.246,9.236 L16.246,7.504 Z M50.829,16.405 L49.097,17.404 L50.829,16.405 Z M8.394,40.905 L6.662,41.905 L8.394,40.905 Z M9.752,50.804 C14.873,55.354 21.612,58.121 29,58.121 C36.361,58.121 43.076,55.374 48.19,50.855 C42.906,46.645 36.22,44.121 28.939,44.121 C21.688,44.121 15.026,46.625 9.752,50.804 L9.752,50.804 Z M31.121,30.121 C29.95,31.293 28.05,31.293 26.879,30.121 C25.707,28.95 25.707,27.05 26.879,25.879 C28.05,24.707 29.95,24.707 31.121,25.879 C32.293,27.05 32.293,28.95 31.121,30.121 L31.121,30.121 Z M31.272,26.041 L40.314,17 L31.272,26.041 Z" id="Stroke-19" sketch:type="MSShapeGroup"></path>
            </g>
        </g>
    </g>
</svg>