<?xml version="1.0" encoding="UTF-8" standalone="no"?>
<svg width="60px" height="48px" viewBox="0 0 60 48" version="1.1" xmlns="http://www.w3.org/2000/svg" xmlns:xlink="http://www.w3.org/1999/xlink" xmlns:sketch="http://www.bohemiancoding.com/sketch/ns">
    <!-- Generator: Sketch 3.2.2 (9983) - http://www.bohemiancoding.com/sketch -->
    <title>354 - Select Windows (Outline)</title>
    <desc>Created with Sketch.</desc>
    <defs></defs>
    <g id="Page-1" stroke="none" stroke-width="1" fill="none" fill-rule="evenodd" sketch:type="MSPage">
        <g id="Icons" sketch:type="MSArtboardGroup" transform="translate(-840.000000, -604.000000)">
            <g id="354---Select-Windows-(Outline)" sketch:type="MSLayerGroup" transform="translate(841.000000, 605.000000)">
                <path d="M14,0 L58,0 L58,32 L14,32 L14,0 Z" id="Path" stroke="#1A1718" stroke-width="2" stroke-linecap="round" stroke-linejoin="round" sketch:type="MSShapeGroup"></path>
                <path d="M7,39 L7,14 L0,14 L0,46 L44,46 L44,39 L7,39 L7,39 Z" id="Path" stroke="#1A1718" stroke-width="2" stroke-linecap="round" stroke-linejoin="round" sketch:type="MSShapeGroup"></path>
                <path d="M14,32 L14,7 L7,7 L7,39 L51,39 L51,32 L14,32 L14,32 Z" id="Path" stroke="#1A1718" stroke-width="2" stroke-linecap="round" stroke-linejoin="round" sketch:type="MSShapeGroup"></path>
                <path d="M34,37 C34,36.448 33.552,36 33,36 C32.448,36 32,36.448 32,37 C32,37.552 32.448,38 33,38 C33.552,38 34,37.552 34,37" id="Fill-114" fill="#000000" sketch:type="MSShapeGroup"></path>
                <path d="M37,34 C37,33.448 36.552,33 36,33 C35.448,33 35,33.448 35,34 C35,34.552 35.448,35 36,35 C36.552,35 37,34.552 37,34" id="Fill-115" fill="#000000" sketch:type="MSShapeGroup"></path>
                <path d="M40,37 C40,36.448 39.552,36 39,36 C38.448,36 38,36.448 38,37 C38,37.552 38.448,38 39,38 C39.552,38 40,37.552 40,37" id="Fill-116" fill="#000000" sketch:type="MSShapeGroup"></path>
                <path d="M46,37 C46,36.448 45.552,36 45,36 C44.448,36 44,36.448 44,37 C44,37.552 44.448,38 45,38 C45.552,38 46,37.552 46,37" id="Fill-117" fill="#000000" sketch:type="MSShapeGroup"></path>
                <path d="M43,34 C43,33.448 42.552,33 42,33 C41.448,33 41,33.448 41,34 C41,34.552 41.448,35 42,35 C42.552,35 43,34.552 43,34" id="Fill-118" fill="#000000" sketch:type="MSShapeGroup"></path>
                <path d="M49,34 C49,33.448 48.552,33 48,33 C47.448,33 47,33.448 47,34 C47,34.552 47.448,35 48,35 C48.552,35 49,34.552 49,34" id="Fill-119" fill="#000000" sketch:type="MSShapeGroup"></path>
                <path d="M28,37 C28,36.448 27.552,36 27,36 C26.448,36 26,36.448 26,37 C26,37.552 26.448,38 27,38 C27.552,38 28,37.552 28,37" id="Fill-120" fill="#000000" sketch:type="MSShapeGroup"></path>
                <path d="M31,34 C31,33.448 30.552,33 30,33 C29.448,33 29,33.448 29,34 C29,34.552 29.448,35 30,35 C30.552,35 31,34.552 31,34" id="Fill-121" fill="#000000" sketch:type="MSShapeGroup"></path>
                <path d="M10,37 C10,36.448 9.552,36 9,36 C8.448,36 8,36.448 8,37 C8,37.552 8.448,38 9,38 C9.552,38 10,37.552 10,37" id="Fill-122" fill="#000000" sketch:type="MSShapeGroup"></path>
                <path d="M10,31 C10,30.448 9.552,30 9,30 C8.448,30 8,30.448 8,31 C8,31.552 8.448,32 9,32 C9.552,32 10,31.552 10,31" id="Fill-123" fill="#000000" sketch:type="MSShapeGroup"></path>
                <path d="M13,34 C13,33.448 12.552,33 12,33 C11.448,33 11,33.448 11,34 C11,34.552 11.448,35 12,35 C12.552,35 13,34.552 13,34" id="Fill-124" fill="#000000" sketch:type="MSShapeGroup"></path>
                <path d="M13,28 C13,27.448 12.552,27 12,27 C11.448,27 11,27.448 11,28 C11,28.552 11.448,29 12,29 C12.552,29 13,28.552 13,28" id="Fill-125" fill="#000000" sketch:type="MSShapeGroup"></path>
                <path d="M16,37 C16,36.448 15.552,36 15,36 C14.448,36 14,36.448 14,37 C14,37.552 14.448,38 15,38 C15.552,38 16,37.552 16,37" id="Fill-126" fill="#000000" sketch:type="MSShapeGroup"></path>
                <path d="M22,37 C22,36.448 21.552,36 21,36 C20.448,36 20,36.448 20,37 C20,37.552 20.448,38 21,38 C21.552,38 22,37.552 22,37" id="Fill-127" fill="#000000" sketch:type="MSShapeGroup"></path>
                <path d="M19,34 C19,33.448 18.552,33 18,33 C17.448,33 17,33.448 17,34 C17,34.552 17.448,35 18,35 C18.552,35 19,34.552 19,34" id="Fill-128" fill="#000000" sketch:type="MSShapeGroup"></path>
                <path d="M25,34 C25,33.448 24.552,33 24,33 C23.448,33 23,33.448 23,34 C23,34.552 23.448,35 24,35 C24.552,35 25,34.552 25,34" id="Fill-129" fill="#000000" sketch:type="MSShapeGroup"></path>
                <path d="M10,25 C10,24.448 9.552,24 9,24 C8.448,24 8,24.448 8,25 C8,25.552 8.448,26 9,26 C9.552,26 10,25.552 10,25" id="Fill-130" fill="#000000" sketch:type="MSShapeGroup"></path>
                <path d="M10,19 C10,18.448 9.552,18 9,18 C8.448,18 8,18.448 8,19 C8,19.552 8.448,20 9,20 C9.552,20 10,19.552 10,19" id="Fill-131" fill="#000000" sketch:type="MSShapeGroup"></path>
                <path d="M13,22 C13,21.448 12.552,21 12,21 C11.448,21 11,21.448 11,22 C11,22.552 11.448,23 12,23 C12.552,23 13,22.552 13,22" id="Fill-132" fill="#000000" sketch:type="MSShapeGroup"></path>
                <path d="M13,16 C13,15.448 12.552,15 12,15 C11.448,15 11,15.448 11,16 C11,16.552 11.448,17 12,17 C12.552,17 13,16.552 13,16" id="Fill-133" fill="#000000" sketch:type="MSShapeGroup"></path>
                <path d="M10,13 C10,12.448 9.552,12 9,12 C8.448,12 8,12.448 8,13 C8,13.552 8.448,14 9,14 C9.552,14 10,13.552 10,13" id="Fill-134" fill="#000000" sketch:type="MSShapeGroup"></path>
                <path d="M13,10 C13,9.448 12.552,9 12,9 C11.448,9 11,9.448 11,10 C11,10.552 11.448,11 12,11 C12.552,11 13,10.552 13,10" id="Fill-135" fill="#000000" sketch:type="MSShapeGroup"></path>
            </g>
        </g>
    </g>
</svg>