<?xml version="1.0" encoding="UTF-8" standalone="no"?>
<svg width="44px" height="54px" viewBox="0 0 44 54" version="1.1" xmlns="http://www.w3.org/2000/svg" xmlns:xlink="http://www.w3.org/1999/xlink" xmlns:sketch="http://www.bohemiancoding.com/sketch/ns">
    <!-- Generator: Sketch 3.2.2 (9983) - http://www.bohemiancoding.com/sketch -->
    <title>286 - Locked (Outline)</title>
    <desc>Created with Sketch.</desc>
    <defs></defs>
    <g id="Page-1" stroke="none" stroke-width="1" fill="none" fill-rule="evenodd" sketch:type="MSPage">
        <g id="Icons" sketch:type="MSArtboardGroup" transform="translate(-608.000000, -1439.000000)" stroke="#1A1718" stroke-width="2" stroke-linecap="round" stroke-linejoin="round">
            <g id="286---Locked-(Outline)" sketch:type="MSLayerGroup" transform="translate(609.000000, 1440.000000)">
                <path d="M35.771,52 L6.229,52 C2.789,52 0,49.211 0,45.771 L0,26.229 C0,22.789 2.789,20 6.229,20 L35.771,20 C39.211,20 42,22.789 42,26.229 L42,45.771 C42,49.211 39.211,52 35.771,52 L35.771,52 Z" id="Path" sketch:type="MSShapeGroup"></path>
                <path d="M6,20 L6,13.5 C6,6.075 12.75,0 21,0 C29.25,0 36,6.075 36,13.5 L36,20 L6,20 L6,20 Z" id="Path" sketch:type="MSShapeGroup"></path>
                <path d="M21,40 L21,40 C19.35,40 18,38.65 18,37 L18,31 C18,29.35 19.35,28 21,28 C22.65,28 24,29.35 24,31 L24,37 C24,38.65 22.65,40 21,40 L21,40 Z" id="Path" sketch:type="MSShapeGroup"></path>
            </g>
        </g>
    </g>
</svg>