<?xml version="1.0" encoding="UTF-8" standalone="no"?>
<svg width="60px" height="60px" viewBox="0 0 60 60" version="1.1" xmlns="http://www.w3.org/2000/svg" xmlns:xlink="http://www.w3.org/1999/xlink" xmlns:sketch="http://www.bohemiancoding.com/sketch/ns">
    <!-- Generator: Sketch 3.2.2 (9983) - http://www.bohemiancoding.com/sketch -->
    <title>263 - CD (Outline)</title>
    <desc>Created with Sketch.</desc>
    <defs></defs>
    <g id="Page-1" stroke="none" stroke-width="1" fill="none" fill-rule="evenodd" sketch:type="MSPage">
        <g id="Icons" sketch:type="MSArtboardGroup" transform="translate(-960.000000, -1677.000000)" stroke-linecap="round" stroke="#000000" stroke-width="2">
            <g id="263---CD-(Outline)" sketch:type="MSLayerGroup" transform="translate(961.000000, 1678.000000)">
                <path d="M58,29 C58,45.016 45.016,58 29,58 C12.984,58 0,45.016 0,29 C0,12.984 12.984,0 29,0 C45.016,0 58,12.984 58,29 L58,29 Z" id="Stroke-174" sketch:type="MSShapeGroup"></path>
                <path d="M36,29 C36,32.866 32.866,36 29,36 C25.134,36 22,32.866 22,29 C22,25.134 25.134,22 29,22 C32.866,22 36,25.134 36,29 L36,29 Z" id="Stroke-186" sketch:type="MSShapeGroup"></path>
                <path d="M42,29 C42,36.18 36.18,42 29,42 C21.82,42 16,36.18 16,29 C16,21.82 21.82,16 29,16 C36.18,16 42,21.82 42,29 L42,29 Z" id="Stroke-198" sketch:type="MSShapeGroup"></path>
            </g>
        </g>
    </g>
</svg>