<?xml version="1.0" encoding="UTF-8" standalone="no"?>
<svg width="60px" height="60px" viewBox="0 0 60 60" version="1.1" xmlns="http://www.w3.org/2000/svg" xmlns:xlink="http://www.w3.org/1999/xlink" xmlns:sketch="http://www.bohemiancoding.com/sketch/ns">
    <!-- Generator: Sketch 3.2.2 (9983) - http://www.bohemiancoding.com/sketch -->
    <title>292 - Profile (Outline)</title>
    <desc>Created with Sketch.</desc>
    <defs></defs>
    <g id="Page-1" stroke="none" stroke-width="1" fill="none" fill-rule="evenodd" sketch:type="MSPage">
        <g id="Icons" sketch:type="MSArtboardGroup" transform="translate(-1080.000000, -1317.000000)" stroke="#000000" stroke-width="2">
            <g id="292---Profile-(Outline)" sketch:type="MSLayerGroup" transform="translate(1081.000000, 1318.000000)">
                <path d="M14,53.824 L14,47 M44,47 L44,53.822 M15.228,11.583 L15.228,11.583 C15.406,11.835 15.581,12.09 15.773,12.333 C15.843,12.246 15.913,12.16 15.985,12.075 C17.986,9.695 21.326,9.144 24.168,10.403 C25.034,10.787 25.992,11 27,11 C29.942,11 32.456,9.182 33.492,6.61 C37.236,7.639 40.762,9.949 43,13" id="Stroke-68" sketch:type="MSShapeGroup"></path>
                <path d="M58,29 C58,45.016 45.016,58 29,58 C12.984,58 0,45.016 0,29 C0,12.984 12.984,0 29,0 C45.016,0 58,12.984 58,29 L58,29 Z M52.932,45.376 C52.275,38.985 46.875,34 40.311,34 L34.365,34 C33.611,34 33,33.389 33,32.635 L33,31.99 C33,31.407 33.379,30.908 33.925,30.703 C39.729,28.52 43.703,18.999 42.896,12.269 C42.134,5.919 36.97,0.801 30.614,0.09 C30.097,0.033 29.585,0.005 29.079,0.002 C29.063,0.002 29.047,0.001 29.031,0.001 C21.285,-0.016 15,6.258 15,14 C15,20.024 18.807,28.755 24.145,30.729 C24.668,30.922 25,31.442 25,32 L25,32.635 C25,33.389 24.389,34 23.635,34 L17.689,34 C11.125,34 5.725,38.985 5.068,45.376 C10.293,52.998 19.061,58 29,58 C38.939,58 47.707,52.998 52.932,45.376 L52.932,45.376 Z" id="Stroke-69" stroke-linecap="round" sketch:type="MSShapeGroup"></path>
                <path d="M26,38 L32,38 L32,44 L26,44 L26,38 Z M26,38.8 L22,34 L17.144,34 C17.075,34 17.028,34.07 17.054,34.134 L21,44 L26,40.667 L26,38.8 L26,38.8 Z M40.856,34 L36,34 L32,38.8 L32,40.667 L37,44 L40.946,34.134 C40.972,34.07 40.925,34 40.856,34 L40.856,34 Z" id="Stroke-70" sketch:type="MSShapeGroup"></path>
                <path d="M24.961,57.714 C26.281,57.898 27.629,58 29,58 C30.382,58 31.739,57.897 33.069,57.71 L31,44 L27,44 L24.961,57.714 L24.961,57.714 Z" id="Path" stroke-linecap="round" sketch:type="MSShapeGroup"></path>
            </g>
        </g>
    </g>
</svg>