<?xml version="1.0" encoding="UTF-8" standalone="no"?>
<svg width="60px" height="34px" viewBox="0 0 60 34" version="1.1" xmlns="http://www.w3.org/2000/svg" xmlns:xlink="http://www.w3.org/1999/xlink" xmlns:sketch="http://www.bohemiancoding.com/sketch/ns">
    <!-- Generator: Sketch 3.2.2 (9983) - http://www.bohemiancoding.com/sketch -->
    <title>370 - View (Outline)</title>
    <desc>Created with Sketch.</desc>
    <defs></defs>
    <g id="Page-1" stroke="none" stroke-width="1" fill="none" fill-rule="evenodd" sketch:type="MSPage">
        <g id="Icons" sketch:type="MSArtboardGroup" transform="translate(-120.000000, -491.000000)" stroke="#000000" stroke-width="2" stroke-linecap="round" stroke-linejoin="round">
            <g id="370---View-(Outline)" sketch:type="MSLayerGroup" transform="translate(121.000000, 492.000000)">
                <path d="M57.213,16.128 L49.979,23.362 C38.462,34.879 19.789,34.879 8.272,23.362 L0.842,15.931 L8.076,8.698 C19.593,-2.819 38.265,-2.819 49.783,8.698 L57.213,16.128 L57.213,16.128 Z" id="Path" sketch:type="MSShapeGroup"></path>
                <path d="M22,15 C22,11.684 24.684,9 28,9" id="Path" sketch:type="MSShapeGroup"></path>
                <path d="M41,16 C41,22.627 35.627,28 29,28 C22.373,28 17,22.627 17,16 C17,9.373 22.373,4 29,4 C35.627,4 41,9.373 41,16 L41,16 Z" id="Path" sketch:type="MSShapeGroup"></path>
            </g>
        </g>
    </g>
</svg>