<?xml version="1.0" encoding="UTF-8" standalone="no"?>
<svg width="57px" height="49px" viewBox="0 0 57 49" version="1.1" xmlns="http://www.w3.org/2000/svg" xmlns:xlink="http://www.w3.org/1999/xlink" xmlns:sketch="http://www.bohemiancoding.com/sketch/ns">
    <!-- Generator: Sketch 3.2.2 (9983) - http://www.bohemiancoding.com/sketch -->
    <title>267 - Movie Camera (Outline)</title>
    <desc>Created with Sketch.</desc>
    <defs></defs>
    <g id="Page-1" stroke="none" stroke-width="1" fill="none" fill-rule="evenodd" sketch:type="MSPage">
        <g id="267---Movie-Camera-(Outline)" sketch:type="MSLayerGroup" transform="translate(1.000000, 1.000000)" stroke="#000000" stroke-width="2">
            <path d="M34.827,31 L3.791,31 C1.697,31 0,29.303 0,27.209 L0,3.944 C0,1.775 1.775,0 3.944,0 L35.056,0 C37.234,0 39,1.766 39,3.944 L39,26.827 C39,29.122 37.122,31 34.827,31 L34.827,31 Z" id="Stroke-52" sketch:type="MSShapeGroup"></path>
            <path d="M52.02,28.928 L39.511,16.974 C38.815,16.271 38.832,15.127 39.549,14.446 L52.058,2.9 C53.172,1.842 55,2.639 55,4.183 L55,27.682 C55,29.252 53.12,30.037 52.02,28.928 L52.02,28.928 Z" id="Stroke-54" sketch:type="MSShapeGroup"></path>
            <path d="M20.132,31 L12.711,47" id="Stroke-56" stroke-linecap="round" sketch:type="MSShapeGroup"></path>
            <path d="M20.132,31 L27.553,47" id="Stroke-58" stroke-linecap="round" sketch:type="MSShapeGroup"></path>
            <path d="M17,11.5 C17,14.537 14.538,17 11.5,17 C8.462,17 6,14.537 6,11.5 C6,8.462 8.462,6 11.5,6 C14.538,6 17,8.462 17,11.5 L17,11.5 Z" id="Stroke-60" stroke-linecap="round" sketch:type="MSShapeGroup"></path>
            <path d="M13,12 L18,17" id="Stroke-62" stroke-linecap="round" sketch:type="MSShapeGroup"></path>
        </g>
    </g>
</svg>