<?xml version="1.0" encoding="UTF-8" standalone="no"?>
<svg width="58px" height="58px" viewBox="0 0 58 58" version="1.1" xmlns="http://www.w3.org/2000/svg" xmlns:xlink="http://www.w3.org/1999/xlink" xmlns:sketch="http://www.bohemiancoding.com/sketch/ns">
    <!-- Generator: Sketch 3.2.2 (9983) - http://www.bohemiancoding.com/sketch -->
    <title>198 - Share (Outline)</title>
    <desc>Created with Sketch.</desc>
    <defs></defs>
    <g id="Page-1" stroke="none" stroke-width="1" fill="none" fill-rule="evenodd" sketch:type="MSPage">
        <g id="Icons" sketch:type="MSArtboardGroup" transform="translate(-361.000000, -2518.000000)" stroke-linecap="round" stroke="#000000" stroke-width="2">
            <g id="198---Share-(Outline)" sketch:type="MSLayerGroup" transform="translate(362.000000, 2519.000000)">
                <path d="M34,6 C34,9.314 31.314,12 28,12 C24.686,12 22,9.314 22,6 C22,2.686 24.686,0 28,0 C31.314,0 34,2.686 34,6 L34,6 Z" id="Stroke-448" sketch:type="MSShapeGroup"></path>
                <path d="M12,43 C12,46.314 9.314,49 6,49 C2.686,49 0,46.314 0,43 C0,39.686 2.686,37 6,37 C9.314,37 12,39.686 12,43 L12,43 Z" id="Stroke-450" sketch:type="MSShapeGroup"></path>
                <path d="M56,43 C56,46.314 53.314,49 50,49 C46.686,49 44,46.314 44,43 C44,39.686 46.686,37 50,37 C53.314,37 56,39.686 56,43 L56,43 Z" id="Stroke-452" sketch:type="MSShapeGroup"></path>
                <path d="M52.162,37.408 C52.704,35.362 53,33.216 53,31 C53,21.991 48.233,14.098 41.087,9.698" id="Stroke-454" sketch:type="MSShapeGroup"></path>
                <path d="M9.533,47.842 C14.103,52.853 20.682,56 28,56 C31.384,56 34.61,55.324 37.554,54.105" id="Stroke-456" sketch:type="MSShapeGroup"></path>
                <path d="M22.046,6.714 C11.674,9.25 3.844,18.258 3.07,29.216" id="Stroke-458" sketch:type="MSShapeGroup"></path>
            </g>
        </g>
    </g>
</svg>