<?xml version="1.0" encoding="UTF-8" standalone="no"?>
<svg width="60px" height="61px" viewBox="0 0 60 61" version="1.1" xmlns="http://www.w3.org/2000/svg" xmlns:xlink="http://www.w3.org/1999/xlink" xmlns:sketch="http://www.bohemiancoding.com/sketch/ns">
    <!-- Generator: Sketch 3.2.2 (9983) - http://www.bohemiancoding.com/sketch -->
    <title>75 - Stopwatch (Outline)</title>
    <desc>Created with Sketch.</desc>
    <defs></defs>
    <g id="Page-1" stroke="none" stroke-width="1" fill="none" fill-rule="evenodd" sketch:type="MSPage">
        <g id="Icons" sketch:type="MSArtboardGroup" transform="translate(-720.000000, -3957.000000)" stroke="#1A1718" stroke-width="2" stroke-linecap="round" stroke-linejoin="round">
            <g id="75---Stopwatch-(Outline)" sketch:type="MSLayerGroup" transform="translate(721.000000, 3958.000000)">
                <path d="M58,29.121 C58,45.138 45.016,58.121 29,58.121 C12.984,58.121 0,45.138 0,29.121 C0,13.105 12.984,0.121 29,0.121 C45.016,0.121 58,13.105 58,29.121 L58,29.121 Z" id="Path" sketch:type="MSShapeGroup"></path>
                <path d="M29,0.121 L29,5.121 L29,0.121 Z" id="Path" sketch:type="MSShapeGroup"></path>
                <path d="M29,53.121 L29,58.121 L29,53.121 Z" id="Path" sketch:type="MSShapeGroup"></path>
                <path d="M58,29.121 L53,29.121 L58,29.121 Z" id="Path" sketch:type="MSShapeGroup"></path>
                <path d="M5,29.121 L0,29.121 L5,29.121 Z" id="Path" sketch:type="MSShapeGroup"></path>
                <path d="M49.506,8.615 L47.385,10.736 L49.506,8.615 Z" id="Path" sketch:type="MSShapeGroup"></path>
                <path d="M10.615,47.506 L8.494,49.627 L10.615,47.506 Z" id="Path" sketch:type="MSShapeGroup"></path>
                <path d="M49.506,49.627 L47.385,47.506 L49.506,49.627 Z" id="Path" sketch:type="MSShapeGroup"></path>
                <path d="M10.615,10.736 L8.494,8.615 L10.615,10.736 Z" id="Path" sketch:type="MSShapeGroup"></path>
                <path d="M21.494,1.109 L22.271,4.007 L21.494,1.109 Z" id="Path" sketch:type="MSShapeGroup"></path>
                <path d="M35.729,54.235 L36.506,57.133 L35.729,54.235 Z" id="Path" sketch:type="MSShapeGroup"></path>
                <path d="M57.012,21.615 L54.114,22.392 L57.012,21.615 Z" id="Path" sketch:type="MSShapeGroup"></path>
                <path d="M3.886,35.85 L0.988,36.627 L3.886,35.85 Z" id="Path" sketch:type="MSShapeGroup"></path>
                <path d="M43.5,4.006 L42,6.604 L43.5,4.006 Z" id="Path" sketch:type="MSShapeGroup"></path>
                <path d="M16,51.638 L14.5,54.236 L16,51.638 Z" id="Path" sketch:type="MSShapeGroup"></path>
                <path d="M54.115,43.621 L51.517,42.121 L54.115,43.621 Z" id="Path" sketch:type="MSShapeGroup"></path>
                <path d="M6.483,16.121 L3.885,14.621 L6.483,16.121 Z" id="Path" sketch:type="MSShapeGroup"></path>
                <path d="M14.5,4.006 L16,6.604 L14.5,4.006 Z" id="Path" sketch:type="MSShapeGroup"></path>
                <path d="M42,51.638 L43.5,54.236 L42,51.638 Z" id="Path" sketch:type="MSShapeGroup"></path>
                <path d="M54.115,14.621 L51.517,16.121 L54.115,14.621 Z" id="Path" sketch:type="MSShapeGroup"></path>
                <path d="M6.483,42.121 L3.885,43.621 L6.483,42.121 Z" id="Path" sketch:type="MSShapeGroup"></path>
                <path d="M36.506,1.109 L35.729,4.007 L36.506,1.109 Z" id="Path" sketch:type="MSShapeGroup"></path>
                <path d="M22.271,54.235 L21.494,57.133 L22.271,54.235 Z" id="Path" sketch:type="MSShapeGroup"></path>
                <path d="M57.012,36.627 L54.114,35.85 L57.012,36.627 Z" id="Path" sketch:type="MSShapeGroup"></path>
                <path d="M3.886,22.392 L0.988,21.615 L3.886,22.392 Z" id="Path" sketch:type="MSShapeGroup"></path>
                <path d="M32,29.121 C32,30.778 30.657,32.121 29,32.121 C27.343,32.121 26,30.778 26,29.121 C26,27.464 27.343,26.121 29,26.121 C30.657,26.121 32,27.464 32,29.121 L32,29.121 Z" id="Path" sketch:type="MSShapeGroup"></path>
                <path d="M32,29.121 L40,29.121 L32,29.121 Z" id="Path" sketch:type="MSShapeGroup"></path>
                <path d="M29,26.121 L29,12.121 L29,26.121 Z" id="Path" sketch:type="MSShapeGroup"></path>
                <path d="M36,42.121 C36,45.987 32.866,49.121 29,49.121 C25.134,49.121 22,45.987 22,42.121 C22,38.255 25.134,35.121 29,35.121 C32.866,35.121 36,38.255 36,42.121 L36,42.121 Z" id="Path" sketch:type="MSShapeGroup"></path>
                <path d="M29,42.121 L26,39.121 L29,42.121 Z" id="Path" sketch:type="MSShapeGroup"></path>
            </g>
        </g>
    </g>
</svg>