<?xml version="1.0" encoding="UTF-8" standalone="no"?>
<svg width="55px" height="58px" viewBox="0 0 55 58" version="1.1" xmlns="http://www.w3.org/2000/svg" xmlns:xlink="http://www.w3.org/1999/xlink" xmlns:sketch="http://www.bohemiancoding.com/sketch/ns">
    <!-- Generator: Sketch 3.2.2 (9983) - http://www.bohemiancoding.com/sketch -->
    <title>190 - Thumbs Up (Outline)</title>
    <desc>Created with Sketch.</desc>
    <defs></defs>
    <g id="Page-1" stroke="none" stroke-width="1" fill="none" fill-rule="evenodd" sketch:type="MSPage">
        <g id="Icons" sketch:type="MSArtboardGroup" transform="translate(-122.000000, -2638.000000)" stroke-linecap="round" stroke="#000000" stroke-width="2">
            <g id="190---Thumbs-Up-(Outline)" sketch:type="MSLayerGroup" transform="translate(123.000000, 2639.000000)">
                <path d="M0,20 L14,20 L14,56 L0,56 L0,20 Z" id="Stroke-498" sketch:type="MSShapeGroup"></path>
                <path d="M11,47 C11,49.209 9.209,51 7,51 C4.791,51 3,49.209 3,47 C3,44.791 4.791,43 7,43 C9.209,43 11,44.791 11,47 L11,47 Z" id="Stroke-500" sketch:type="MSShapeGroup"></path>
                <path d="M46,30 L38,30" id="Stroke-502" sketch:type="MSShapeGroup"></path>
                <path d="M46,38 L38,38" id="Stroke-504" sketch:type="MSShapeGroup"></path>
                <path d="M44,46 L36,46" id="Stroke-506" sketch:type="MSShapeGroup"></path>
                <path d="M52,26 C52,23.791 50.209,22 48,22 L32.398,22 L33.385,17.381 C34.139,13.858 33.937,9.562 33.49,6.545 C33.042,3.528 30.34,0 27.513,0 L27.274,0 C24.864,0 24,2.659 24,6 C24,22.25 16,22 16,22 L14,22 L14,54 L43,54 C45.209,54 47,52.209 47,50 C47,47.791 45.209,46 43,46 L46,46 C48.209,46 50,44.209 50,42 C50,39.791 48.209,38 46,38 L49,38 C51.209,38 53,36.209 53,34 C53,31.507 51.387,30.558 49,30.204 C47.837,30.031 45.724,30 45,30 L48,30 C50.209,30 52,28.209 52,26 L52,26 Z" id="Stroke-508" sketch:type="MSShapeGroup"></path>
            </g>
        </g>
    </g>
</svg>