<?xml version="1.0" encoding="UTF-8" standalone="no"?>
<svg width="60px" height="60px" viewBox="0 0 60 60" version="1.1" xmlns="http://www.w3.org/2000/svg" xmlns:xlink="http://www.w3.org/1999/xlink" xmlns:sketch="http://www.bohemiancoding.com/sketch/ns">
    <!-- Generator: Sketch 3.2.2 (9983) - http://www.bohemiancoding.com/sketch -->
    <title>51 - Folders (Outline)</title>
    <desc>Created with Sketch.</desc>
    <defs></defs>
    <g id="Page-1" stroke="none" stroke-width="1" fill="none" fill-rule="evenodd" sketch:type="MSPage">
        <g id="Icons" sketch:type="MSArtboardGroup" transform="translate(-1200.000000, -4197.000000)" stroke="#000000" stroke-width="2" stroke-linejoin="round">
            <g id="51---Folders-(Outline)" sketch:type="MSLayerGroup" transform="translate(1201.000000, 4198.000000)">
                <path d="M25,15 L20,8 L0,8 L0,58 L58,58 L58,15 L25,15 L25,15 Z" id="Path" sketch:type="MSShapeGroup"></path>
                <path d="M20,8 L30,21.969" id="Stroke-86" stroke-linecap="round" sketch:type="MSShapeGroup"></path>
                <path d="M30,22 L58,22" id="Path" sketch:type="MSShapeGroup"></path>
                <path d="M1,58 L57,58 L1,58 Z" id="Path" stroke-linecap="round" sketch:type="MSShapeGroup"></path>
                <path d="M58,11 L28,11 L23,4 L3,4 L3,8 L20,8 L25,15 L58,15 L58,11 L58,11 Z M58,7 L31,7 L26,0 L6,0 L6,4 L23,4 L28,11 L58,11 L58,7 L58,7 Z M27,35 L53,35 L53,53 L27,53 L27,35 Z M32,40 L42,40 L32,40 Z M32,44 L48,44 L32,44 Z M32,48 L48,48 L32,48 Z" id="Stroke-89" sketch:type="MSShapeGroup"></path>
            </g>
        </g>
    </g>
</svg>