<?xml version="1.0" encoding="UTF-8" standalone="no"?>
<svg width="60px" height="44px" viewBox="0 0 60 44" version="1.1" xmlns="http://www.w3.org/2000/svg" xmlns:xlink="http://www.w3.org/1999/xlink" xmlns:sketch="http://www.bohemiancoding.com/sketch/ns">
    <!-- Generator: Sketch 3.2.2 (9983) - http://www.bohemiancoding.com/sketch -->
    <title>141 - ID (Outline)</title>
    <desc>Created with Sketch.</desc>
    <defs></defs>
    <g id="Page-1" stroke="none" stroke-width="1" fill="none" fill-rule="evenodd" sketch:type="MSPage">
        <g id="Icons" sketch:type="MSArtboardGroup" transform="translate(-1200.000000, -3129.000000)">
            <g id="141---ID-(Outline)" sketch:type="MSLayerGroup" transform="translate(1201.000000, 3130.000000)">
                <path d="M54.783,42 L3.217,42 C1.44,42 0,40.56 0,38.783 L0,3.217 C0,1.44 1.44,0 3.217,0 L54.783,0 C56.56,0 58,1.44 58,3.217 L58,38.783 C58,40.56 56.56,42 54.783,42 L54.783,42 Z" id="Stroke-579" stroke="#161819" stroke-width="2" stroke-linecap="round" stroke-linejoin="round" sketch:type="MSShapeGroup"></path>
                <path d="M33,17 L53,17 L53,37 L33,37 L33,17 Z" id="Path" stroke="#000000" stroke-width="2" stroke-linecap="round" stroke-linejoin="round" sketch:type="MSShapeGroup"></path>
                <path d="M47.791,34.092 L45.279,32.809 C45.108,32.722 45,32.546 45,32.353 L45,31.584 C46.289,31.029 47.03,29.95 47.39,28.601 C47.933,28.433 48.333,27.93 48.333,27.333 L48.333,26.666 C48.333,26.156 48.039,25.715 47.615,25.492 C47.321,22.984 45.664,21.97 43,21.97 C42.874,21.97 42.75,21.975 42.629,21.984 C41.724,22.056 40.808,21.886 40.054,21.379 C39.741,21.168 39.478,20.943 39.292,20.708 C39.208,20.601 39.039,20.669 39.054,20.805 C39.081,21.038 39.121,21.31 39.18,21.607 C39.4,22.714 39.269,22.553 38.841,23.597 C38.604,24.174 38.451,24.815 38.38,25.494 C37.959,25.718 37.667,26.158 37.667,26.666 L37.667,27.333 C37.667,27.93 38.067,28.433 38.61,28.601 C38.97,29.95 39.711,31.029 41,31.584 L41,32.348 C41,32.543 40.889,32.721 40.714,32.808 L38.14,34.075 C37.437,34.458 37,35.195 37,35.995 L37,36.606 L37,36.879 C37,36.92 37.011,36.961 37.028,37 L48.972,37 C48.989,36.961 49,36.92 49,36.879 L49,36.606 L49,36.049 C49,35.22 48.532,34.463 47.791,34.092 L47.791,34.092 Z" id="Path" stroke="#000000" stroke-width="2" stroke-linecap="round" stroke-linejoin="round" sketch:type="MSShapeGroup"></path>
                <path d="M0,5 L58,5 L58,13 L0,13 L0,5 Z" id="Path" stroke="#000000" stroke-width="2" stroke-linecap="round" stroke-linejoin="round" sketch:type="MSShapeGroup"></path>
                <path d="M5,19 L14,19 L5,19 Z" id="Path" stroke="#000000" stroke-width="2" stroke-linecap="round" stroke-linejoin="round" sketch:type="MSShapeGroup"></path>
                <path d="M18,19 L27,19 L18,19 Z" id="Path" stroke="#000000" stroke-width="2" stroke-linecap="round" stroke-linejoin="round" sketch:type="MSShapeGroup"></path>
                <path d="M5,24 L6,24 L5,24 Z" id="Path" stroke="#000000" stroke-width="2" stroke-linecap="round" stroke-linejoin="round" sketch:type="MSShapeGroup"></path>
                <path d="M10,24 L12,24 L10,24 Z" id="Path" stroke="#000000" stroke-width="2" stroke-linecap="round" stroke-linejoin="round" sketch:type="MSShapeGroup"></path>
                <path d="M16,24 L17,24 L16,24 Z" id="Path" stroke="#000000" stroke-width="2" stroke-linecap="round" stroke-linejoin="round" sketch:type="MSShapeGroup"></path>
                <path d="M21,24 L23,24 L21,24 Z" id="Path" stroke="#000000" stroke-width="2" stroke-linecap="round" stroke-linejoin="round" sketch:type="MSShapeGroup"></path>
                <path d="M10.651,28.4 C7.807,29.881 7.41,33.112 7.313,36 C7.882,35.764 8.45,35.529 9.02,35.293 C8.084,34.509 7.149,33.726 6.214,32.942 C5.232,32.12 3.81,33.527 4.799,34.357 C5.735,35.14 6.67,35.924 7.605,36.707 C8.267,37.262 9.281,36.919 9.313,36 C9.385,33.833 9.49,31.257 11.661,30.127 C12.805,29.532 11.794,27.806 10.651,28.4" id="Fill-583" fill="#000000" sketch:type="MSShapeGroup"></path>
                <path d="M11.651,33.08 C13.753,35.365 16.542,34.297 18.831,32.893 C18.375,32.773 17.918,32.654 17.462,32.534 C18.016,33.52 18.7,34.025 19.754,34.406 C20.663,34.734 23.841,33.186 24.087,33.523 C24.839,34.553 26.576,33.557 25.814,32.513 C25.391,31.934 24.954,31.451 24.181,31.392 C22.724,31.283 20.224,33.367 19.189,31.524 C18.927,31.057 18.28,30.885 17.821,31.166 C16.405,32.035 14.555,33.285 13.065,31.665 C12.19,30.715 10.78,32.133 11.651,33.08" id="Fill-584" fill="#000000" sketch:type="MSShapeGroup"></path>
                <path d="M42,9 C42,9.552 41.552,10 41,10 C40.448,10 40,9.552 40,9 C40,8.448 40.448,8 41,8 C41.552,8 42,8.448 42,9" id="Fill-585" fill="#000000" sketch:type="MSShapeGroup"></path>
                <path d="M45,6 C45,6.552 44.552,7 44,7 C43.448,7 43,6.552 43,6 C43,5.448 43.448,5 44,5 C44.552,5 45,5.448 45,6" id="Fill-586" fill="#000000" sketch:type="MSShapeGroup"></path>
                <path d="M45,12 C45,12.552 44.552,13 44,13 C43.448,13 43,12.552 43,12 C43,11.448 43.448,11 44,11 C44.552,11 45,11.448 45,12" id="Fill-587" fill="#000000" sketch:type="MSShapeGroup"></path>
                <path d="M48,9 C48,9.552 47.552,10 47,10 C46.448,10 46,9.552 46,9 C46,8.448 46.448,8 47,8 C47.552,8 48,8.448 48,9" id="Fill-588" fill="#000000" sketch:type="MSShapeGroup"></path>
                <path d="M24,9 C24,9.552 23.552,10 23,10 C22.448,10 22,9.552 22,9 C22,8.448 22.448,8 23,8 C23.552,8 24,8.448 24,9" id="Fill-589" fill="#000000" sketch:type="MSShapeGroup"></path>
                <path d="M27,6 C27,6.552 26.552,7 26,7 C25.448,7 25,6.552 25,6 C25,5.448 25.448,5 26,5 C26.552,5 27,5.448 27,6" id="Fill-590" fill="#000000" sketch:type="MSShapeGroup"></path>
                <path d="M27,12 C27,12.552 26.552,13 26,13 C25.448,13 25,12.552 25,12 C25,11.448 25.448,11 26,11 C26.552,11 27,11.448 27,12" id="Fill-591" fill="#000000" sketch:type="MSShapeGroup"></path>
                <path d="M30,9 C30,9.552 29.552,10 29,10 C28.448,10 28,9.552 28,9 C28,8.448 28.448,8 29,8 C29.552,8 30,8.448 30,9" id="Fill-592" fill="#000000" sketch:type="MSShapeGroup"></path>
                <path d="M36,9 C36,9.552 35.552,10 35,10 C34.448,10 34,9.552 34,9 C34,8.448 34.448,8 35,8 C35.552,8 36,8.448 36,9" id="Fill-593" fill="#000000" sketch:type="MSShapeGroup"></path>
                <path d="M33,6 C33,6.552 32.552,7 32,7 C31.448,7 31,6.552 31,6 C31,5.448 31.448,5 32,5 C32.552,5 33,5.448 33,6" id="Fill-594" fill="#000000" sketch:type="MSShapeGroup"></path>
                <path d="M39,6 C39,6.552 38.552,7 38,7 C37.448,7 37,6.552 37,6 C37,5.448 37.448,5 38,5 C38.552,5 39,5.448 39,6" id="Fill-595" fill="#000000" sketch:type="MSShapeGroup"></path>
                <path d="M33,12 C33,12.552 32.552,13 32,13 C31.448,13 31,12.552 31,12 C31,11.448 31.448,11 32,11 C32.552,11 33,11.448 33,12" id="Fill-596" fill="#000000" sketch:type="MSShapeGroup"></path>
                <path d="M39,12 C39,12.552 38.552,13 38,13 C37.448,13 37,12.552 37,12 C37,11.448 37.448,11 38,11 C38.552,11 39,11.448 39,12" id="Fill-597" fill="#000000" sketch:type="MSShapeGroup"></path>
                <path d="M54,9 C54,9.552 53.552,10 53,10 C52.448,10 52,9.552 52,9 C52,8.448 52.448,8 53,8 C53.552,8 54,8.448 54,9" id="Fill-598" fill="#000000" sketch:type="MSShapeGroup"></path>
                <path d="M57,6 C57,6.552 56.552,7 56,7 C55.448,7 55,6.552 55,6 C55,5.448 55.448,5 56,5 C56.552,5 57,5.448 57,6" id="Fill-599" fill="#000000" sketch:type="MSShapeGroup"></path>
                <path d="M57,12 C57,12.552 56.552,13 56,13 C55.448,13 55,12.552 55,12 C55,11.448 55.448,11 56,11 C56.552,11 57,11.448 57,12" id="Fill-600" fill="#000000" sketch:type="MSShapeGroup"></path>
                <path d="M51,6 C51,6.552 50.552,7 50,7 C49.448,7 49,6.552 49,6 C49,5.448 49.448,5 50,5 C50.552,5 51,5.448 51,6" id="Fill-601" fill="#000000" sketch:type="MSShapeGroup"></path>
                <path d="M51,12 C51,12.552 50.552,13 50,13 C49.448,13 49,12.552 49,12 C49,11.448 49.448,11 50,11 C50.552,11 51,11.448 51,12" id="Fill-602" fill="#000000" sketch:type="MSShapeGroup"></path>
                <path d="M18,9 C18,9.552 17.552,10 17,10 C16.448,10 16,9.552 16,9 C16,8.448 16.448,8 17,8 C17.552,8 18,8.448 18,9" id="Fill-603" fill="#000000" sketch:type="MSShapeGroup"></path>
                <path d="M21,6 C21,6.552 20.552,7 20,7 C19.448,7 19,6.552 19,6 C19,5.448 19.448,5 20,5 C20.552,5 21,5.448 21,6" id="Fill-604" fill="#000000" sketch:type="MSShapeGroup"></path>
                <path d="M21,12 C21,12.552 20.552,13 20,13 C19.448,13 19,12.552 19,12 C19,11.448 19.448,11 20,11 C20.552,11 21,11.448 21,12" id="Fill-605" fill="#000000" sketch:type="MSShapeGroup"></path>
                <path d="M3,6 C3,6.552 2.552,7 2,7 C1.448,7 1,6.552 1,6 C1,5.448 1.448,5 2,5 C2.552,5 3,5.448 3,6" id="Fill-606" fill="#000000" sketch:type="MSShapeGroup"></path>
                <path d="M3,12 C3,12.552 2.552,13 2,13 C1.448,13 1,12.552 1,12 C1,11.448 1.448,11 2,11 C2.552,11 3,11.448 3,12" id="Fill-607" fill="#000000" sketch:type="MSShapeGroup"></path>
                <path d="M6,9 C6,9.552 5.552,10 5,10 C4.448,10 4,9.552 4,9 C4,8.448 4.448,8 5,8 C5.552,8 6,8.448 6,9" id="Fill-608" fill="#000000" sketch:type="MSShapeGroup"></path>
                <path d="M12,9 C12,9.552 11.552,10 11,10 C10.448,10 10,9.552 10,9 C10,8.448 10.448,8 11,8 C11.552,8 12,8.448 12,9" id="Fill-609" fill="#000000" sketch:type="MSShapeGroup"></path>
                <path d="M9,6 C9,6.552 8.552,7 8,7 C7.448,7 7,6.552 7,6 C7,5.448 7.448,5 8,5 C8.552,5 9,5.448 9,6" id="Fill-610" fill="#000000" sketch:type="MSShapeGroup"></path>
                <path d="M15,6 C15,6.552 14.552,7 14,7 C13.448,7 13,6.552 13,6 C13,5.448 13.448,5 14,5 C14.552,5 15,5.448 15,6" id="Fill-611" fill="#000000" sketch:type="MSShapeGroup"></path>
                <path d="M9,12 C9,12.552 8.552,13 8,13 C7.448,13 7,12.552 7,12 C7,11.448 7.448,11 8,11 C8.552,11 9,11.448 9,12" id="Fill-612" fill="#000000" sketch:type="MSShapeGroup"></path>
                <path d="M15,12 C15,12.552 14.552,13 14,13 C13.448,13 13,12.552 13,12 C13,11.448 13.448,11 14,11 C14.552,11 15,11.448 15,12" id="Fill-613" fill="#000000" sketch:type="MSShapeGroup"></path>
            </g>
        </g>
    </g>
</svg>