<?xml version="1.0" encoding="UTF-8" standalone="no"?>
<svg width="57px" height="51px" viewBox="0 0 57 51" version="1.1" xmlns="http://www.w3.org/2000/svg" xmlns:xlink="http://www.w3.org/1999/xlink" xmlns:sketch="http://www.bohemiancoding.com/sketch/ns">
    <!-- Generator: Sketch 3.2.2 (9983) - http://www.bohemiancoding.com/sketch -->
    <title>183 - Megaphone (Outline)</title>
    <desc>Created with Sketch.</desc>
    <defs></defs>
    <g id="Page-1" stroke="none" stroke-width="1" fill="none" fill-rule="evenodd" sketch:type="MSPage">
        <g id="Icons" sketch:type="MSArtboardGroup" transform="translate(-961.000000, -2641.000000)" stroke-linecap="round" stroke="#000000" stroke-width="2">
            <g id="183---Megaphone-(Outline)" sketch:type="MSLayerGroup" transform="translate(962.000000, 2642.000000)">
                <path d="M51,49 L51,49 C48.8,49 47,47.2 47,45 L47,4 C47,1.8 48.8,0 51,0 C53.2,0 55,1.8 55,4 L55,45 C55,47.2 53.2,49 51,49 L51,49 Z" id="Stroke-486" sketch:type="MSShapeGroup"></path>
                <path d="M47,42 L6,29 L6,20 L47,7 L47,42 L47,42 Z" id="Stroke-488" sketch:type="MSShapeGroup"></path>
                <path d="M26.345,41.854 L12.075,37.232 C10.505,36.723 9.637,35.023 10.145,33.453 C10.654,31.883 12.354,31.015 13.924,31.524 L28.194,36.146 C29.763,36.655 30.632,38.355 30.123,39.925 C29.615,41.495 27.914,42.363 26.345,41.854 L26.345,41.854 Z" id="Stroke-490" sketch:type="MSShapeGroup"></path>
                <path d="M3,33 L3,33 C1.35,33 0,31.65 0,30 L0,19 C0,17.35 1.35,16 3,16 C4.65,16 6,17.35 6,19 L6,30 C6,31.65 4.65,33 3,33 L3,33 Z" id="Stroke-492" sketch:type="MSShapeGroup"></path>
            </g>
        </g>
    </g>
</svg>